# https://github.com/mikedh/trimesh
v 0.01516298 -0.07262222 0.06419626
v 0.04338500 -0.07716367 0.04645248
v 0.04467691 -0.07118292 0.04008209
v 0.02600163 -0.07132276 -0.05568164
v -0.03588495 -0.08519515 0.04785565
v 0.04453004 -0.07846365 -0.04989060
v 0.00418317 -0.07244504 0.06387816
v 0.04425053 -0.07131783 0.04650694
v 0.01505486 -0.08223352 0.05974302
v 0.04451667 -0.07686241 0.01820512
v 0.04491440 -0.07166652 -0.05220158
v -0.01781284 -0.08542177 -0.03947587
v -0.03836811 -0.07432234 0.00741532
v 0.04454884 -0.07273707 0.04006800
v 0.01509286 -0.07990480 0.06201069
v 0.03664534 -0.08229384 0.04654401
v 0.04075059 -0.08105900 0.04649574
v 0.03812676 -0.07818166 -0.05484761
v 0.04366151 -0.07139428 -0.05333730
v 0.04469577 -0.07784248 -0.01494793
v -0.03808075 -0.07435895 0.05912681
v -0.03569550 -0.08352044 0.00913749
v -0.01779644 -0.07445308 -0.03953883
v 0.04459051 -0.07421771 0.03558141
v 0.04190515 -0.07983877 0.04665132
v -0.03005430 -0.07868401 0.06192372
v 0.03685242 -0.08212873 -0.03792775
v -0.01328073 -0.08512971 0.05228253
v 0.02593027 -0.07828976 -0.05515381
v 0.04076991 -0.07151726 -0.05493127
v 0.04374270 -0.07559896 -0.05354141
v 0.04463189 -0.07686411 -0.05208983
v 0.04267850 -0.08082663 -0.03021716
v -0.03834735 -0.08247872 0.05492034
v -0.03683040 -0.08156377 0.00751251
v -0.03416929 -0.08504832 0.03115396
v 0.01519417 -0.07410243 0.06384373
v 0.04308962 -0.07953621 0.01625116
v -0.03138512 -0.07425701 0.06219290
v -0.03177708 -0.08244506 0.06045327
v -0.00067769 -0.08529855 -0.00192031
v 0.03965644 -0.08042653 -0.05130714
v 0.01463761 -0.08369664 0.05412774
v 0.04109768 -0.07541240 -0.05496877
v 0.04352730 -0.07914616 -0.05216571
v 0.03975709 -0.08198968 -0.01772931
v -0.03805533 -0.08239165 0.03566198
v -0.03785599 -0.07713762 0.00740360
v 0.04218455 -0.08049341 0.01584860
v -0.03142567 -0.07751589 0.06196985
v -0.02307168 -0.08270347 0.06031871
v -0.03683890 -0.08113836 0.05879253
v -0.03279122 -0.08547053 0.05558973
v -0.00687727 -0.08534608 -0.02855146
v 0.04109744 -0.08035972 -0.04873873
v 0.01337405 -0.08367773 -0.03945389
v 0.02597575 -0.08105724 -0.05249357
v 0.01352433 -0.08359631 0.05558731
v 0.02574136 -0.08362855 0.02923491
v 0.03804355 -0.08030482 -0.05256551
v 0.03973931 -0.08188944 -0.02213690
v -0.03653589 -0.08376042 0.02637519
v -0.03780040 -0.08158369 0.02632440
v -0.03396031 -0.08144829 0.06029703
vn 0.20174399 0.52452917 0.82714480
vn 0.83460697 -0.27634236 0.47651454
vn 0.72772791 0.68472935 0.03946897
vn -0.12790361 0.64670255 -0.75194181
vn -0.44692767 -0.89451745 0.00970574
vn 0.88338609 -0.46442275 -0.06277357
vn -0.04759594 0.65620125 0.75308336
vn 0.70230070 0.57088327 0.42528345
vn 0.16969440 -0.82857736 0.53353854
vn 0.95684946 -0.29003567 0.01784423
vn 0.79375144 0.53361052 -0.29192202
vn -0.51502280 -0.64043375 -0.56973339
vn -0.79333646 0.58747530 -0.15965601
vn 0.99103516 -0.12052544 0.05764483
vn 0.22280498 -0.48451084 0.84593568
vn 0.21633388 -0.95553501 0.20038090
vn 0.50636697 -0.78550715 0.35576820
vn 0.12345640 -0.44496557 -0.88699727
vn 0.43691741 0.70277957 -0.56143036
vn 0.94711914 -0.32082187 0.00621806
vn -0.68835383 0.55555529 0.46639825
vn -0.58897187 -0.80263347 -0.09429554
vn -0.56271610 0.59098612 -0.57800172
vn 0.98847945 -0.14922930 0.02527821
vn 0.71878501 -0.50650368 0.47623747
vn -0.07797460 -0.23506187 0.96884771
vn 0.16096318 -0.98540655 -0.05536049
vn 0.03529088 -0.99706090 0.06800082
vn -0.11882267 -0.38051166 -0.91711071
vn 0.19811762 0.62894400 -0.75178378
vn 0.62362137 -0.13955777 -0.76916839
vn 0.90705128 -0.20761645 -0.36626956
vn 0.56880712 -0.82233643 -0.01487490
vn -0.84687201 -0.48452662 0.21918429
vn -0.89000565 -0.40957871 -0.20033778
vn -0.22167842 -0.97458838 -0.03218948
vn 0.24900901 -0.25274275 0.93494150
vn 0.80586368 -0.59176300 0.02000717
vn -0.20224513 0.60417014 0.77076283
vn -0.16463490 -0.61728681 0.76931941
vn 0.04113172 -0.99915085 -0.00239991
vn 0.18112461 -0.96004498 -0.21332490
vn 0.07928156 -0.99282385 0.08952781
vn 0.29277110 -0.14017172 -0.94585251
vn 0.55555316 -0.68472727 -0.47170886
vn 0.24820898 -0.96870612 -0.00086787
vn -0.91514807 -0.40253302 -0.02170662
vn -0.95891375 -0.19648501 -0.20464129
vn 0.65554563 -0.75502134 0.01423723
vn -0.23813990 -0.12521853 0.96312497
vn 0.00580402 -0.71741921 0.69661753
vn -0.63722863 -0.42823904 0.64074253
vn -0.21124404 -0.93144285 0.29629407
vn 0.03972607 -0.99902513 -0.01925189
vn 0.29020459 -0.95361554 -0.07999179
vn 0.06200229 -0.99433729 -0.08630796
vn -0.00953458 -0.87789710 -0.47875440
vn 0.07678637 -0.97523230 0.20742667
vn 0.08273238 -0.99653405 0.00867417
vn 0.10884851 -0.88123384 -0.45997708
vn 0.24567492 -0.96905816 -0.02387710
vn -0.69604887 -0.71671492 -0.04284515
vn -0.97055726 -0.23622137 -0.04709644
vn -0.38258681 -0.44160892 0.81154722
f 7//7 3//3 4//4
f 8//8 1//1 2//2
f 8//8 7//7 1//1
f 8//8 3//3 7//7
f 14//14 8//8 2//2
f 14//14 3//3 8//8
f 17//17 15//15 9//9
f 17//17 9//9 16//16
f 19//19 4//4 3//3
f 19//19 3//3 11//11
f 20//20 11//11 3//3
f 21//21 7//7 4//4
f 21//21 4//4 13//13
f 23//23 13//13 4//4
f 23//23 4//4 12//12
f 23//23 12//12 13//13
f 24//24 3//3 14//14
f 24//24 20//20 3//3
f 24//24 10//10 20//20
f 24//24 14//14 2//2
f 24//24 2//2 10//10
f 25//25 15//15 17//17
f 25//25 10//10 2//2
f 26//26 1//1 7//7
f 29//29 12//12 4//4
f 29//29 4//4 18//18
f 30//30 4//4 19//19
f 31//31 19//19 11//11
f 31//31 30//30 19//19
f 32//32 20//20 6//6
f 32//32 11//11 20//20
f 32//32 31//31 11//11
f 33//33 6//6 20//20
f 34//34 21//21 13//13
f 35//35 12//12 22//22
f 36//36 22//22 12//12
f 36//36 12//12 5//5
f 36//36 5//5 22//22
f 37//37 25//25 2//2
f 37//37 2//2 1//1
f 37//37 15//15 25//25
f 37//37 26//26 15//15
f 37//37 1//1 26//26
f 38//38 20//20 10//10
f 38//38 10//10 25//25
f 38//38 33//33 20//20
f 38//38 25//25 17//17
f 39//39 7//7 21//21
f 40//40 15//15 26//26
f 44//44 18//18 4//4
f 44//44 4//4 30//30
f 44//44 30//30 31//31
f 45//45 31//31 32//32
f 45//45 44//44 31//31
f 45//45 18//18 44//44
f 45//45 32//32 6//6
f 45//45 6//6 33//33
f 46//46 33//33 17//17
f 46//46 17//17 16//16
f 47//47 5//5 34//34
f 47//47 35//35 22//22
f 47//47 34//34 13//13
f 48//48 13//13 12//12
f 48//48 12//12 35//35
f 48//48 47//47 13//13
f 49//49 38//38 17//17
f 49//49 17//17 33//33
f 49//49 33//33 38//38
f 50//50 26//26 7//7
f 50//50 7//7 39//39
f 50//50 39//39 21//21
f 51//51 9//9 15//15
f 51//51 15//15 40//40
f 52//52 21//21 34//34
f 53//53 34//34 5//5
f 53//53 51//51 40//40
f 53//53 9//9 51//51
f 53//53 41//41 28//28
f 53//53 5//5 12//12
f 53//53 12//12 41//41
f 53//53 52//52 34//34
f 53//53 40//40 52//52
f 54//54 41//41 12//12
f 54//54 27//27 41//41
f 55//55 33//33 27//27
f 55//55 27//27 42//42
f 55//55 45//45 33//33
f 55//55 42//42 45//45
f 56//56 42//42 27//27
f 56//56 54//54 12//12
f 56//56 27//27 54//54
f 57//57 29//29 18//18
f 57//57 12//12 29//29
f 57//57 56//56 12//12
f 57//57 42//42 56//56
f 58//58 43//43 16//16
f 58//58 16//16 9//9
f 58//58 9//9 53//53
f 58//58 53//53 28//28
f 58//58 28//28 43//43
f 59//59 16//16 43//43
f 59//59 46//46 16//16
f 59//59 41//41 27//27
f 59//59 27//27 46//46
f 59//59 43//43 28//28
f 59//59 28//28 41//41
f 60//60 45//45 42//42
f 60//60 18//18 45//45
f 60//60 57//57 18//18
f 60//60 42//42 57//57
f 61//61 46//46 27//27
f 61//61 27//27 33//33
f 61//61 33//33 46//46
f 62//62 47//47 22//22
f 62//62 22//22 5//5
f 62//62 5//5 47//47
f 63//63 48//48 35//35
f 63//63 35//35 47//47
f 63//63 47//47 48//48
f 64//64 40//40 26//26
f 64//64 26//26 50//50
f 64//64 52//52 40//40
f 64//64 50//50 21//21
f 64//64 21//21 52//52

