# https://github.com/mikedh/trimesh
v -0.04374239 0.07561954 0.03576223
v -0.02109282 0.07769873 -0.01743203
v -0.03367005 0.10387174 0.01505669
v -0.05160295 0.09934621 -0.04347407
v -0.05459821 0.04915201 0.00485622
v -0.03219248 0.10272489 -0.04353300
v -0.05561759 0.09854397 0.01673523
v -0.03327829 0.09455114 0.01780768
v -0.04522949 0.04899781 0.03769021
v -0.03222656 0.06943857 -0.04368604
v -0.02127277 0.08039236 -0.02803777
v -0.04418431 0.10199345 -0.03274413
v -0.05236004 0.09471001 0.02212556
v -0.05714866 0.09124188 0.00176844
v -0.03362370 0.10279445 0.01739311
v -0.05462672 0.04902210 0.03762711
v -0.05241975 0.06953221 -0.04348134
v -0.04526916 0.04905101 0.00476603
v -0.04755662 0.10066287 -0.04366639
v -0.03220455 0.10373007 -0.02803590
v -0.02093287 0.07123943 -0.02856137
v -0.04572353 0.10208400 0.01657480
v -0.05707411 0.09590477 0.00649787
v -0.05706459 0.07847908 0.02146318
v -0.05448843 0.05907845 0.03619775
v -0.04653554 0.05979976 0.03715334
v -0.05401905 0.09264381 -0.04053903
v -0.05553470 0.07894314 -0.01701510
v -0.03831492 0.10210343 -0.04356081
v -0.05055109 0.10044922 -0.02457508
v -0.05270384 0.09708145 -0.04363264
v -0.03968745 0.10357621 0.00490961
v -0.03672722 0.10267156 0.01713623
v -0.05389557 0.09894148 -0.02471344
v -0.05555299 0.05560454 0.00956196
v -0.05712190 0.09247268 0.01837187
v -0.05589617 0.06753026 0.02986557
v -0.04719252 0.07185633 0.03598277
v -0.05398311 0.06960229 -0.02794353
v -0.05561485 0.08838211 -0.02023715
v -0.04304037 0.10208962 -0.03577394
v -0.05238587 0.09936059 -0.03874331
v -0.05188310 0.10034980 -0.00438961
v -0.03359350 0.10388594 -0.01700548
v -0.03955185 0.10351787 0.00929287
v -0.03516212 0.10371373 0.01514703
v -0.05695677 0.09698171 0.01119488
v -0.05704964 0.07900929 0.01587975
v -0.05547107 0.05560617 0.01884900
v -0.05711355 0.08835039 0.00180751
v -0.05422203 0.08149432 0.02678308
v -0.05261092 0.09194195 0.02353901
v -0.05400353 0.07410727 -0.03253266
v -0.05559585 0.08198369 -0.01854232
v -0.03669271 0.10364840 -0.01386375
v -0.05175789 0.10034297 0.00940159
v -0.04583809 0.10198341 -0.01541633
v -0.05470494 0.09878821 -0.00725375
v -0.04670396 0.07501129 0.03485916
v -0.05401573 0.08687245 -0.03878368
v -0.05038185 0.10055095 0.01645366
v -0.05537758 0.09833958 -0.00274575
vn 0.33719337 0.26353494 0.90379753
vn 0.98558445 0.00308374 0.16915611
vn 0.49859601 0.84293734 0.20213526
vn -0.49668374 0.61235501 -0.61508260
vn -0.63404112 -0.75444834 -0.16970434
vn 0.43871115 0.64119173 -0.62960757
vn -0.64972510 0.67239459 0.35460233
vn 0.90487705 0.01798867 0.42529275
vn 0.44226552 -0.61155033 0.65605442
vn 0.39062282 -0.50145312 -0.77198354
vn 0.95951706 0.19658970 -0.20169158
vn -0.21393467 0.97637348 -0.03044301
vn -0.34947021 0.54964496 0.75878916
vn -0.99858699 0.02957691 -0.04415013
vn 0.55196055 0.60229268 0.57670016
vn -0.55861215 -0.56559691 0.60667339
vn -0.55356892 -0.46203891 -0.69287913
vn 0.30459024 -0.94172727 -0.14273939
vn -0.17383682 0.68060145 -0.71173199
vn 0.48886445 0.87201904 -0.02437894
vn 0.87423892 -0.41610444 -0.25012676
vn -0.19813617 0.89091343 0.40867507
vn -0.98124831 0.18933541 -0.03610887
vn -0.99649788 -0.00898246 0.08313422
vn -0.67877570 0.14167322 0.72054997
vn 0.03003402 0.07507754 0.99672530
vn -0.97460063 0.06820451 -0.21331143
vn -0.99567416 -0.06440699 -0.06696793
vn -0.08310274 0.72670417 -0.68190541
vn -0.32602593 0.94507631 -0.02319189
vn -0.66559886 0.19735931 -0.71974124
vn -0.14755208 0.98905417 0.00048144
vn -0.08637025 0.79773882 0.59678552
vn -0.78186597 0.62105478 -0.05455785
vn -0.99486749 -0.09764335 -0.02654149
vn -0.91942555 0.19908547 0.33914839
vn -0.96819172 0.05279855 0.24457536
vn -0.30467635 0.23472903 0.92307887
vn -0.99083216 -0.10350307 -0.08682595
vn -0.99716682 -0.00110234 -0.07521385
vn -0.16099764 0.98532993 -0.05660994
vn -0.69109921 0.71863978 -0.07706334
vn -0.37320533 0.92772345 -0.00685479
vn 0.00618474 0.99991773 -0.01123741
vn -0.14002788 0.98968388 0.03029876
vn -0.09722117 0.96723466 0.23453176
vn -0.91984487 0.39193637 0.01647124
vn -0.99914503 -0.03901890 -0.01366491
vn -0.99629867 -0.08512926 0.01191537
vn -0.99884740 -0.02916855 -0.03811924
vn -0.67082286 0.29591792 0.68002153
vn -0.52302325 0.39393231 0.75582009
vn -0.99264379 -0.07353039 -0.09618514
vn -0.99645569 -0.04034613 -0.07381227
vn -0.12391718 0.99211422 -0.01881262
vn -0.34879241 0.93714129 0.01049088
vn -0.24008637 0.97063188 -0.01524101
vn -0.57086864 0.82083564 -0.01838072
vn -0.40644909 0.38376397 0.82917088
vn -0.99207123 -0.04157986 -0.11859930
vn -0.31584699 0.90263470 0.29238890
vn -0.74036723 0.67158487 -0.02881197
f 9//9 8//8 1//1
f 9//9 2//2 8//8
f 11//11 3//3 2//2
f 15//15 8//8 2//2
f 15//15 2//2 3//3
f 15//15 1//1 8//8
f 15//15 13//13 1//1
f 18//18 17//17 10//10
f 18//18 5//5 17//17
f 18//18 16//16 5//5
f 18//18 9//9 16//16
f 19//19 6//6 10//10
f 20//20 11//11 6//6
f 20//20 3//3 11//11
f 21//21 10//10 6//6
f 21//21 6//6 11//11
f 21//21 11//11 2//2
f 21//21 18//18 10//10
f 21//21 2//2 9//9
f 21//21 9//9 18//18
f 22//22 7//7 13//13
f 26//26 16//16 9//9
f 26//26 9//9 1//1
f 27//27 14//14 23//23
f 29//29 6//6 19//19
f 29//29 20//20 6//6
f 30//30 12//12 19//19
f 31//31 4//4 19//19
f 31//31 17//17 27//27
f 31//31 19//19 10//10
f 31//31 10//10 17//17
f 33//33 15//15 3//3
f 33//33 22//22 13//13
f 33//33 13//13 15//15
f 34//34 31//31 27//27
f 34//34 27//27 23//23
f 35//35 5//5 16//16
f 36//36 23//23 14//14
f 36//36 14//14 24//24
f 37//37 24//24 16//16
f 37//37 16//16 25//25
f 37//37 36//36 24//24
f 37//37 25//25 36//36
f 38//38 25//25 16//16
f 38//38 26//26 1//1
f 38//38 16//16 26//26
f 39//39 17//17 5//5
f 39//39 35//35 28//28
f 39//39 5//5 35//35
f 40//40 14//14 27//27
f 41//41 29//29 19//19
f 41//41 19//19 12//12
f 41//41 20//20 29//29
f 42//42 30//30 19//19
f 42//42 19//19 4//4
f 42//42 4//4 31//31
f 42//42 31//31 34//34
f 43//43 42//42 34//34
f 43//43 30//30 42//42
f 44//44 32//32 3//3
f 44//44 3//3 20//20
f 45//45 32//32 22//22
f 45//45 3//3 32//32
f 46//46 33//33 3//3
f 46//46 22//22 33//33
f 46//46 45//45 22//22
f 46//46 3//3 45//45
f 47//47 34//34 23//23
f 47//47 36//36 7//7
f 47//47 23//23 36//36
f 48//48 35//35 24//24
f 49//49 35//35 16//16
f 49//49 16//16 24//24
f 49//49 24//24 35//35
f 50//50 28//28 35//35
f 50//50 14//14 40//40
f 50//50 35//35 48//48
f 50//50 48//48 24//24
f 50//50 24//24 14//14
f 51//51 36//36 25//25
f 52//52 13//13 7//7
f 52//52 7//7 36//36
f 52//52 36//36 51//51
f 52//52 1//1 13//13
f 52//52 51//51 25//25
f 52//52 25//25 38//38
f 53//53 39//39 28//28
f 53//53 17//17 39//39
f 54//54 40//40 27//27
f 54//54 50//50 40//40
f 54//54 28//28 50//50
f 54//54 53//53 28//28
f 55//55 41//41 12//12
f 55//55 12//12 32//32
f 55//55 32//32 44//44
f 55//55 44//44 20//20
f 55//55 20//20 41//41
f 56//56 43//43 7//7
f 56//56 22//22 43//43
f 57//57 43//43 22//22
f 57//57 22//22 32//32
f 57//57 32//32 12//12
f 57//57 12//12 30//30
f 57//57 30//30 43//43
f 58//58 43//43 34//34
f 58//58 7//7 43//43
f 59//59 52//52 38//38
f 59//59 38//38 1//1
f 59//59 1//1 52//52
f 60//60 27//27 17//17
f 60//60 17//17 53//53
f 60//60 54//54 27//27
f 60//60 53//53 54//54
f 61//61 56//56 7//7
f 61//61 7//7 22//22
f 61//61 22//22 56//56
f 62//62 47//47 7//7
f 62//62 7//7 58//58
f 62//62 58//58 34//34
f 62//62 34//34 47//47

