# https://github.com/mikedh/trimesh
v 0.02090278 0.10673233 0.02275887
v 0.02135888 0.10577120 0.02237591
v 0.02043461 0.11000121 -0.00881079
v -0.02623819 0.10853512 -0.00881940
v -0.02845512 0.09025494 0.02094532
v -0.01350386 0.11123049 0.01434867
v 0.01975150 0.10961664 0.01976831
v -0.00809750 0.08422230 -0.00954699
v 0.00502390 0.11122870 -0.00711120
v -0.02618935 0.10718588 0.01934476
v 0.02063076 0.09446601 -0.00941855
v 0.02066052 0.10351179 0.01816939
v -0.03108213 0.08479365 -0.00746669
v -0.01527677 0.10965417 -0.00873360
v 0.01577639 0.11130077 0.01588233
v -0.02774391 0.09219180 0.02134861
v -0.01604013 0.10987741 0.01932244
v -0.02297685 0.10959085 0.00979987
v -0.02982199 0.08956732 0.01858473
v -0.01502898 0.08455235 -0.00940200
v 0.00793247 0.11126010 -0.00714171
v -0.01373620 0.11123222 0.00843741
v -0.02854664 0.10020721 0.01858460
v -0.00897922 0.10899172 0.02066028
v -0.01026980 0.11101782 0.01719231
v -0.02623570 0.10826317 0.01700833
v -0.03079188 0.08470015 -0.00752856
v 0.01105152 0.11120272 -0.00250317
v 0.00195658 0.11120476 -0.00562951
v -0.02294169 0.10957098 0.00541887
v -0.02955818 0.09957594 0.01618433
v 0.01257096 0.10751872 0.02238241
v 0.00770842 0.11093008 0.01700339
v -0.01972113 0.10959121 0.01736512
v -0.03056172 0.08977679 -0.00577877
v 0.02023268 0.10714968 0.02253405
vn 0.56174552 0.27911621 0.77880429
vn 0.77266559 -0.27908805 0.57017344
vn 0.59180790 0.55412111 -0.58541712
vn -0.53565152 0.58166991 -0.61215812
vn -0.39232446 -0.54955088 0.73761463
vn -0.10335859 0.99103956 0.08460255
vn 0.51667720 0.79034393 0.32924330
vn 0.16207303 -0.80649783 -0.56858912
vn -0.01880363 0.94777699 -0.31837901
vn -0.54204828 0.50142865 0.67435374
vn 0.65112002 -0.54036345 -0.53296347
vn 0.52947082 -0.79040517 0.30809141
vn -0.73683351 -0.50472479 -0.44981025
vn -0.05843431 0.71616781 -0.69547761
vn 0.14315572 0.97781753 0.15290298
vn -0.37708093 0.01374976 0.92607824
vn -0.13846374 0.79185752 0.59480204
vn -0.26105282 0.96501470 0.02445502
vn -0.70321538 -0.61784518 0.35178896
vn -0.06465502 -0.55082765 -0.83211095
vn 0.01341418 0.94155516 -0.33659166
vn -0.09087302 0.99561812 -0.02206016
vn -0.84579054 0.19021027 0.49845602
vn -0.04449803 0.52356758 0.85082132
vn -0.02288958 0.95929196 0.28148713
vn -0.63516645 0.75034823 0.18314237
vn -0.21984218 -0.77548091 -0.59186044
vn 0.07444604 0.99678109 -0.02975303
vn -0.04622405 0.99633884 -0.07191832
vn -0.21837420 0.97574404 -0.01537128
vn -0.96884418 0.19724520 0.14978413
vn -0.02150930 0.44847926 0.89353439
vn 0.00871759 0.92368847 0.38304518
vn -0.20049741 0.96308822 0.17961589
vn -0.98040646 0.16113656 -0.11330570
vn 0.10272343 0.65100493 0.75209074
f 5//5 2//2 1//1
f 7//7 1//1 2//2
f 7//7 2//2 3//3
f 11//11 3//3 2//2
f 11//11 8//8 4//4
f 11//11 4//4 3//3
f 12//12 2//2 5//5
f 12//12 5//5 8//8
f 12//12 11//11 2//2
f 12//12 8//8 11//11
f 14//14 3//3 4//4
f 15//15 7//7 3//3
f 16//16 5//5 1//1
f 19//19 8//8 5//5
f 20//20 4//4 8//8
f 21//21 14//14 9//9
f 21//21 3//3 14//14
f 22//22 14//14 4//4
f 22//22 21//21 9//9
f 22//22 6//6 15//15
f 22//22 15//15 21//21
f 22//22 18//18 6//6
f 23//23 16//16 10//10
f 23//23 5//5 16//16
f 23//23 19//19 5//5
f 24//24 10//10 16//16
f 24//24 17//17 10//10
f 24//24 7//7 17//17
f 25//25 15//15 6//6
f 25//25 6//6 17//17
f 25//25 17//17 7//7
f 26//26 18//18 4//4
f 26//26 10//10 17//17
f 26//26 6//6 18//18
f 27//27 19//19 13//13
f 27//27 8//8 19//19
f 27//27 20//20 8//8
f 27//27 13//13 4//4
f 27//27 4//4 20//20
f 28//28 21//21 15//15
f 28//28 15//15 3//3
f 28//28 3//3 21//21
f 29//29 22//22 9//9
f 29//29 9//9 14//14
f 29//29 14//14 22//22
f 30//30 22//22 4//4
f 30//30 4//4 18//18
f 30//30 18//18 22//22
f 31//31 13//13 19//19
f 31//31 19//19 23//23
f 31//31 26//26 4//4
f 31//31 23//23 10//10
f 31//31 10//10 26//26
f 32//32 24//24 16//16
f 32//32 16//16 1//1
f 32//32 7//7 24//24
f 33//33 25//25 7//7
f 33//33 7//7 15//15
f 33//33 15//15 25//25
f 34//34 26//26 17//17
f 34//34 17//17 6//6
f 34//34 6//6 26//26
f 35//35 31//31 4//4
f 35//35 4//4 13//13
f 35//35 13//13 31//31
f 36//36 32//32 1//1
f 36//36 1//1 7//7
f 36//36 7//7 32//32

