# https://github.com/mikedh/trimesh
v 0.01050266 0.01474134 0.07986249
v 0.04211066 -0.06498987 0.06709080
v 0.04327555 -0.02147828 0.05176504
v -0.04417063 -0.01203128 0.05171752
v -0.03675854 -0.06362938 0.07212222
v 0.03209132 -0.06100210 0.05039141
v 0.03578200 0.02768028 0.06499165
v 0.03280268 -0.06642245 0.07496314
v -0.04019664 0.01602802 0.07166638
v 0.04396926 -0.06050186 0.05006346
v -0.04267051 -0.03392822 0.05176588
v -0.00775452 -0.07386648 0.06415632
v -0.03254857 -0.01218114 0.05167785
v 0.03967907 0.01984375 0.06903790
v -0.01065119 -0.00397868 0.08121092
v -0.04032597 -0.05573558 0.06868494
v -0.04141773 0.02317235 0.06681277
v 0.04420957 -0.03244697 0.05008810
v 0.01411120 -0.07320430 0.05807103
v -0.04035222 -0.06366745 0.06429286
v -0.00763481 -0.07053925 0.07258116
v 0.03938768 0.02533753 0.06486954
v 0.03826018 -0.06732160 0.07367474
v 0.03430398 0.02132951 0.07176689
v 0.00559632 0.00686057 0.08114121
v -0.01971687 0.00958984 0.07963846
v -0.03894917 -0.06359262 0.07063458
v -0.03424683 0.01611841 0.06270930
v -0.04228617 0.01847243 0.06895423
v -0.00115743 0.02103669 0.07828352
v 0.04384061 -0.04018579 0.05329170
v 0.04197963 -0.04202033 0.06830273
v 0.03988217 -0.07029268 0.05800351
v -0.04354016 -0.01661796 0.05949197
v -0.04048634 -0.06198399 0.06585131
v -0.00779974 -0.07306088 0.06870776
v -0.01856498 -0.06198164 0.07510530
v 0.03278141 -0.07119742 0.07140610
v 0.03260799 0.01574752 0.07503010
v 0.03850624 0.02582882 0.06601821
v -0.00132002 -0.00692296 0.08130697
v -0.03360448 0.00075918 0.07485355
v -0.01375697 0.00362183 0.08132934
v -0.03790603 -0.05407342 0.07173002
v 0.03205666 0.02790045 0.06516064
v -0.04121052 0.02263028 0.06774157
v -0.04182855 -0.00582505 0.06969522
v -0.04290057 0.02100850 0.06639933
v 0.03254407 0.02734481 0.06619971
v -0.00056769 0.02050892 0.07881524
v 0.04069280 -0.06618174 0.07148084
v 0.03577692 -0.07152752 0.05805178
v 0.04251658 -0.06639734 0.05796025
v -0.00762151 -0.07190081 0.07106416
v -0.03225354 -0.06349068 0.07370067
v 0.01752651 -0.06625717 0.07491685
v 0.03686937 -0.07026500 0.07208026
v 0.00165621 -0.07297056 0.06842443
v 0.01573322 -0.07298405 0.06410723
v 0.03903309 -0.03729513 0.07230141
v 0.03477027 0.01821341 0.07341355
v 0.00595056 0.01271459 0.08113395
v 0.03391996 -0.04627902 0.07495135
v 0.03884064 0.02624107 0.06527567
vn 0.17436795 0.31367180 0.93338407
vn 0.95025181 -0.25765234 0.17503361
vn 0.68948340 0.20016435 -0.69609401
vn -0.70700423 0.12819410 -0.69549356
vn -0.40347713 -0.51539192 0.75602737
vn -0.03644747 -0.29008527 -0.95630650
vn 0.24239793 0.93188514 -0.26987651
vn 0.09702737 -0.30237280 0.94823857
vn -0.51427744 0.21180348 0.83105836
vn 0.68396532 -0.26731445 -0.67877420
vn -0.69464764 -0.15281306 -0.70293160
vn -0.17312900 -0.93706467 -0.30320977
vn 0.00320484 0.19409280 -0.98097794
vn 0.84136320 0.22485013 0.49147775
vn -0.07290056 -0.06151710 0.99544018
vn -0.94650600 -0.04704331 0.31923866
vn -0.47118393 0.85698650 -0.20870996
vn 0.73923281 0.06680677 -0.67012813
vn -0.04564852 -0.83435408 -0.54933549
vn -0.69051485 -0.62253992 -0.36828425
vn -0.06801312 -0.57309135 0.81666427
vn 0.79689073 0.42354110 -0.43078778
vn 0.48244289 -0.33119167 0.81090131
vn 0.29327677 0.56391953 0.77199967
vn 0.10952192 -0.01035503 0.99393044
vn -0.23375157 0.20126432 0.95123755
vn -0.67995043 -0.55316763 0.48132421
vn -0.06975527 0.41329537 -0.90792133
vn -0.82487549 0.17461091 0.53767226
vn -0.07701952 0.78965038 0.60870377
vn 0.99400011 -0.00352475 0.10932229
vn 0.94252992 0.01819578 0.33362592
vn 0.53162798 -0.80109870 -0.27497738
vn -0.99220732 -0.03510520 0.11955023
vn -0.97900912 -0.14105105 0.14712492
vn -0.12542803 -0.94433600 0.30413373
vn -0.05422752 -0.21392716 0.97534330
vn 0.08642126 -0.89250241 0.44268590
vn 0.34715334 0.18225008 0.91992906
vn 0.47877005 0.59883993 0.64200466
vn 0.02706844 -0.05422808 0.99816162
vn -0.38518321 -0.00384295 0.92283212
vn -0.13927972 0.04362498 0.98929168
vn -0.54061741 -0.01886983 0.84105692
vn 0.00029088 0.93827871 -0.34588002
vn -0.45028899 0.61755099 0.64488030
vn -0.86609499 -0.02104852 0.49943610
vn -0.87501868 0.42368829 -0.23415924
vn 0.09955305 0.80448654 0.58556861
vn -0.01224939 0.51758231 0.85554574
vn 0.83763481 -0.30624019 0.45231059
vn 0.15821021 -0.90586299 -0.39291446
vn 0.90981073 -0.41355345 -0.03489941
vn -0.09696128 -0.82748179 0.55305731
vn -0.22405136 -0.40993343 0.88416942
vn -0.00791574 -0.28043244 0.95984113
vn 0.37269176 -0.79315758 0.48166575
vn 0.02771254 -0.97025344 0.24050005
vn 0.05470604 -0.99564830 0.07544350
vn 0.67337052 0.02582141 0.73885411
vn 0.44944755 0.29269641 0.84399391
vn 0.08445895 0.15861508 0.98372147
vn 0.25065936 -0.00210743 0.96807306
vn 0.64194449 0.76459771 -0.05742479
f 11//11 10//10 6//6
f 11//11 4//4 10//10
f 13//13 7//7 3//3
f 13//13 4//4 7//7
f 18//18 13//13 3//3
f 18//18 10//10 4//4
f 18//18 4//4 13//13
f 19//19 11//11 6//6
f 19//19 6//6 10//10
f 20//20 19//19 12//12
f 20//20 11//11 19//19
f 22//22 3//3 7//7
f 22//22 18//18 3//3
f 22//22 14//14 18//18
f 27//27 20//20 12//12
f 28//28 4//4 17//17
f 31//31 2//2 10//10
f 31//31 10//10 18//18
f 32//32 18//18 14//14
f 32//32 31//31 18//18
f 32//32 2//2 31//31
f 35//35 4//4 11//11
f 35//35 11//11 20//20
f 35//35 34//34 4//4
f 35//35 16//16 34//34
f 35//35 27//27 16//16
f 35//35 20//20 27//27
f 36//36 27//27 12//12
f 36//36 5//5 27//27
f 40//40 7//7 24//24
f 40//40 24//24 14//14
f 41//41 8//8 25//25
f 41//41 15//15 37//37
f 42//42 26//26 9//9
f 43//43 15//15 41//41
f 44//44 27//27 5//5
f 44//44 9//9 27//27
f 44//44 42//42 9//9
f 44//44 5//5 42//42
f 45//45 28//28 17//17
f 45//45 7//7 4//4
f 45//45 4//4 28//28
f 45//45 17//17 30//30
f 46//46 29//29 9//9
f 46//46 30//30 17//17
f 47//47 27//27 9//9
f 47//47 9//9 29//29
f 47//47 16//16 27//27
f 47//47 34//34 16//16
f 48//48 17//17 4//4
f 48//48 4//4 34//34
f 48//48 47//47 29//29
f 48//48 34//34 47//47
f 48//48 46//46 17//17
f 48//48 29//29 46//46
f 49//49 24//24 7//7
f 49//49 45//45 30//30
f 49//49 7//7 45//45
f 50//50 49//49 30//30
f 50//50 24//24 49//49
f 50//50 9//9 26//26
f 50//50 46//46 9//9
f 50//50 30//30 46//46
f 51//51 2//2 32//32
f 51//51 32//32 14//14
f 52//52 19//19 10//10
f 52//52 10//10 33//33
f 53//53 33//33 10//10
f 53//53 10//10 2//2
f 53//53 51//51 33//33
f 53//53 2//2 51//51
f 54//54 5//5 36//36
f 54//54 38//38 21//21
f 54//54 36//36 38//38
f 55//55 37//37 15//15
f 55//55 21//21 37//37
f 55//55 54//54 21//21
f 55//55 5//5 54//54
f 55//55 15//15 43//43
f 55//55 43//43 26//26
f 55//55 42//42 5//5
f 55//55 26//26 42//42
f 56//56 37//37 21//21
f 56//56 21//21 8//8
f 56//56 41//41 37//37
f 56//56 8//8 41//41
f 57//57 23//23 8//8
f 57//57 8//8 21//21
f 57//57 21//21 38//38
f 57//57 51//51 23//23
f 57//57 33//33 51//51
f 57//57 52//52 33//33
f 57//57 38//38 52//52
f 58//58 38//38 36//36
f 58//58 36//36 12//12
f 59//59 12//12 19//19
f 59//59 52//52 38//38
f 59//59 19//19 52//52
f 59//59 58//58 12//12
f 59//59 38//38 58//58
f 60//60 39//39 23//23
f 60//60 51//51 14//14
f 60//60 23//23 51//51
f 61//61 14//14 24//24
f 61//61 1//1 39//39
f 61//61 50//50 1//1
f 61//61 24//24 50//50
f 61//61 60//60 14//14
f 61//61 39//39 60//60
f 62//62 39//39 1//1
f 62//62 25//25 8//8
f 62//62 1//1 50//50
f 62//62 43//43 41//41
f 62//62 41//41 25//25
f 62//62 50//50 26//26
f 62//62 26//26 43//43
f 63//63 8//8 23//23
f 63//63 23//23 39//39
f 63//63 62//62 8//8
f 63//63 39//39 62//62
f 64//64 22//22 7//7
f 64//64 7//7 40//40
f 64//64 40//40 14//14
f 64//64 14//14 22//22

