# https://github.com/mikedh/trimesh
v -0.04381689 0.02322555 0.06194882
v -0.03432883 -0.06214912 0.05907764
v -0.04021738 -0.00751595 0.01327128
v -0.05463204 0.02094985 0.01370243
v -0.04967512 -0.06199781 0.05899339
v -0.04613449 0.03026841 0.02305903
v -0.03122366 -0.03212552 0.06073197
v -0.05533344 0.03904928 0.04548194
v -0.03844396 -0.06277775 0.01354143
v -0.04554177 0.02087701 0.01363230
v -0.03760604 0.00359521 0.06277978
v -0.05275225 0.01870431 0.06169517
v -0.05292803 -0.01962990 0.03555147
v -0.05524626 0.03040348 0.02297367
v -0.04720087 0.04251539 0.04594339
v -0.03468506 -0.06264040 0.05776879
v -0.03285614 -0.04942125 0.06120375
v -0.03909604 -0.03734352 0.01366658
v -0.04855943 -0.06188637 0.01362362
v -0.05290439 -0.01031740 0.05573560
v -0.05015602 0.02578022 0.06101718
v -0.05155676 -0.01047069 0.06192905
v -0.05451479 0.01157600 0.02765523
v -0.05399218 0.04057181 0.04557946
v -0.03177955 -0.03334138 0.06140865
v -0.03433642 -0.05259803 0.06116430
v -0.05283378 -0.01026752 0.01532955
v -0.04973120 -0.05867981 0.02613807
v -0.05435629 0.02427286 0.05263799
v -0.05289687 -0.01799246 0.04642363
v -0.05267526 0.02370165 0.06012064
v -0.04617639 0.02897531 0.05915918
v -0.03822822 -0.00389164 0.06289653
v -0.05022857 -0.05254996 0.06037146
v -0.05289175 0.00538445 0.06038885
v -0.05446139 0.01166680 0.02150771
v -0.04961037 0.04201376 0.04567572
v -0.05176003 0.02425739 0.06105043
v -0.05130936 -0.02896623 0.01367535
v -0.04976043 -0.06033325 0.03869793
v -0.05138238 -0.03833763 0.02616862
v -0.05132512 -0.04307231 0.04644994
v -0.04502556 0.02600159 0.06118752
v -0.04843028 0.02873740 0.05931579
v -0.05267573 0.01470075 0.06174764
v -0.03948008 -0.01043991 0.06266417
v -0.05118016 -0.03818300 0.05883852
v -0.05285936 -0.01808314 0.02935816
v -0.05442104 0.01320603 0.01839876
v -0.05439790 0.03476394 0.05010276
v -0.05281787 -0.00864842 0.01376790
v -0.04969837 -0.05716087 0.02311966
v -0.04981608 -0.06031492 0.05898704
v -0.04526462 0.02965151 0.05818807
v -0.05446625 0.01788740 0.01370100
vn 0.55444913 0.28178293 0.78306101
vn 0.61011598 -0.56229259 0.55819848
vn 0.66171243 0.08897322 -0.74445982
vn -0.63049896 0.27703481 -0.72506743
vn -0.57578253 -0.62644545 0.52539564
vn 0.60850489 0.65183920 -0.45257867
vn 0.95327787 0.05433115 0.29716903
vn -0.89182087 0.42338091 0.15938676
vn 0.51224915 -0.60796351 -0.60661453
vn 0.55112173 0.36477799 -0.75046776
vn 0.70491229 0.16324069 0.69025440
vn -0.65732695 0.05242941 0.75177951
vn -0.99809903 -0.06123362 -0.00698281
vn -0.68385870 0.58085190 -0.44152955
vn 0.42465253 0.89345560 0.14631240
vn 0.47090550 -0.87826114 0.08309864
vn 0.74643444 -0.10306807 0.65742878
vn 0.93047454 0.02775191 -0.36530393
vn -0.55468057 -0.57693170 -0.59956591
vn -0.99471756 -0.04464915 0.09243068
vn -0.26138993 0.41786520 0.87009423
vn -0.58408179 -0.03758077 0.81082436
vn -0.99899213 -0.04476396 0.00330301
vn -0.51346458 0.83892384 0.18044643
vn 0.52524957 -0.02749476 0.85050393
vn 0.15959391 -0.14766523 0.97607621
vn -0.99576504 -0.06804084 -0.06182587
vn -0.98811705 -0.14969531 -0.03487138
vn -0.99178587 -0.00707244 0.12771365
vn -0.99820486 -0.05355398 0.02681463
vn -0.86223691 0.21252524 0.45976138
vn 0.12770730 0.64013221 0.75757614
vn 0.06822590 -0.00364446 0.99766324
vn -0.69388800 -0.10308720 0.71266575
vn -0.96506761 -0.03352303 0.25984748
vn -0.99832495 -0.05190069 -0.02556593
vn -0.25458217 0.95515183 0.15123790
vn -0.48057363 0.30110976 0.82363942
vn -0.70547846 -0.05371461 -0.70669292
vn -0.97683090 -0.21332450 -0.01714795
vn -0.99629132 -0.07659279 -0.03920648
vn -0.99729586 -0.07298453 0.00861509
vn 0.34552759 0.46328031 0.81607722
vn -0.17461788 0.62371713 0.76189601
vn -0.63438988 -0.00376802 0.77300407
vn -0.03256389 -0.03329949 0.99891478
vn -0.99225276 -0.05298125 0.11237193
vn -0.99739708 -0.06463689 -0.03195513
vn -0.99745144 -0.05631604 -0.04380792
vn -0.76994219 0.37116797 0.51906008
vn -0.84666405 -0.05552321 -0.52922317
vn -0.99377761 -0.09078172 -0.06453481
vn -0.99314426 -0.08008576 0.08515129
vn 0.65172196 0.56182151 0.50952436
vn -0.70203368 -0.03887405 -0.71108194
f 7//7 3//3 6//6
f 10//10 6//6 3//3
f 10//10 3//3 4//4
f 11//11 7//7 6//6
f 12//12 11//11 1//1
f 14//14 10//10 4//4
f 14//14 6//6 10//10
f 15//15 6//6 14//14
f 15//15 11//11 6//6
f 15//15 1//1 11//11
f 16//16 9//9 2//2
f 16//16 2//2 5//5
f 16//16 5//5 9//9
f 17//17 9//9 7//7
f 17//17 2//2 9//9
f 18//18 9//9 3//3
f 18//18 3//3 7//7
f 18//18 7//7 9//9
f 19//19 3//3 9//9
f 19//19 9//9 5//5
f 21//21 12//12 1//1
f 23//23 8//8 14//14
f 24//24 14//14 8//8
f 25//25 17//17 7//7
f 25//25 7//7 11//11
f 26//26 5//5 2//2
f 26//26 2//2 17//17
f 29//29 12//12 8//8
f 29//29 8//8 20//20
f 30//30 23//23 13//13
f 30//30 20//20 8//8
f 30//30 8//8 23//23
f 31//31 8//8 12//12
f 33//33 11//11 12//12
f 33//33 26//26 17//17
f 33//33 25//25 11//11
f 33//33 17//17 25//25
f 34//34 5//5 26//26
f 35//35 34//34 22//22
f 35//35 29//29 20//20
f 35//35 12//12 29//29
f 36//36 23//23 14//14
f 36//36 14//14 4//4
f 36//36 13//13 23//23
f 37//37 15//15 14//14
f 37//37 14//14 24//24
f 38//38 21//21 24//24
f 38//38 31//31 12//12
f 38//38 12//12 21//21
f 40//40 28//28 19//19
f 40//40 19//19 5//5
f 41//41 27//27 39//39
f 42//42 30//30 13//13
f 42//42 40//40 5//5
f 42//42 13//13 41//41
f 42//42 41//41 28//28
f 42//42 28//28 40//40
f 43//43 21//21 1//1
f 44//44 32//32 15//15
f 44//44 43//43 32//32
f 44//44 21//21 43//43
f 44//44 15//15 37//37
f 44//44 37//37 24//24
f 44//44 24//24 21//21
f 45//45 33//33 12//12
f 45//45 22//22 33//33
f 45//45 35//35 22//22
f 45//45 12//12 35//35
f 46//46 33//33 22//22
f 46//46 22//22 34//34
f 46//46 34//34 26//26
f 46//46 26//26 33//33
f 47//47 20//20 30//30
f 47//47 35//35 20//20
f 47//47 34//34 35//35
f 48//48 36//36 27//27
f 48//48 13//13 36//36
f 48//48 41//41 13//13
f 48//48 27//27 41//41
f 49//49 36//36 4//4
f 49//49 27//27 36//36
f 50//50 38//38 24//24
f 50//50 24//24 8//8
f 50//50 8//8 31//31
f 50//50 31//31 38//38
f 51//51 39//39 27//27
f 52//52 39//39 19//19
f 52//52 19//19 28//28
f 52//52 41//41 39//39
f 52//52 28//28 41//41
f 53//53 30//30 42//42
f 53//53 47//47 30//30
f 53//53 34//34 47//47
f 53//53 42//42 5//5
f 53//53 5//5 34//34
f 54//54 43//43 1//1
f 54//54 1//1 15//15
f 54//54 15//15 32//32
f 54//54 32//32 43//43
f 55//55 49//49 4//4
f 55//55 27//27 49//49
f 55//55 51//51 27//27
f 55//55 39//39 51//51
f 55//55 19//19 39//39
f 55//55 4//4 3//3
f 55//55 3//3 19//19

