# https://github.com/mikedh/trimesh
v 0.04509961 0.00501626 -0.01742079
v 0.04691024 -0.06226136 -0.01742176
v 0.04334854 -0.06232170 -0.06477781
v -0.02798414 0.00511149 -0.06865594
v -0.02949082 -0.01376789 -0.03463423
v 0.04021033 0.00510720 -0.06483997
v 0.04573864 -0.06262064 -0.06294526
v 0.03628669 -0.06230015 -0.01741651
v -0.02949082 0.00501004 -0.03463423
v -0.03074543 -0.07384602 -0.06453338
v 0.01277335 0.00515706 -0.06745289
v 0.04708715 -0.05143168 -0.03921114
v 0.04398853 -0.01236603 -0.06169218
v 0.03517731 0.00162952 -0.01783491
v -0.03012488 -0.07051238 -0.06763269
v -0.01699903 -0.06596529 -0.03496801
v 0.02679999 -0.07201136 -0.06323725
v -0.00604776 -0.07638028 -0.03461041
v -0.03366460 -0.06543087 -0.05814783
v 0.03724087 0.00506031 -0.06586670
v 0.04714318 -0.05448784 -0.01746214
v 0.04711207 -0.06224627 -0.03764045
v 0.04389502 0.00497156 -0.04694690
v 0.04535949 -0.04206488 -0.05939267
v 0.03487254 0.00491096 -0.01841404
v 0.00488970 -0.06851868 -0.06744117
v 0.04442469 -0.07035988 -0.05835742
v -0.01242582 -0.07212531 -0.06716335
v -0.02479829 -0.07634930 -0.05024210
v -0.02949082 0.00501004 -0.05028251
v -0.03229752 -0.07112239 -0.06394860
v -0.03257715 -0.07207631 -0.05788176
v 0.04545852 -0.00152048 -0.01742363
v 0.04710640 -0.06062128 -0.02056531
v 0.04230392 0.00328107 -0.06104674
v 0.04551757 -0.01075145 -0.03605595
v 0.04538504 -0.02946276 -0.05176606
v 0.02675452 -0.06924388 -0.06589749
v 0.03926256 -0.06248047 -0.06587249
v 0.04582247 -0.06904644 -0.05818140
v 0.04196342 -0.07145436 -0.05793144
v -0.02039936 -0.07462452 -0.06454051
v 0.00471910 -0.07458596 -0.05951112
v -0.03096472 -0.07083866 -0.06627366
v -0.03287594 -0.06528512 -0.06365095
v -0.03000082 -0.07540918 -0.05798990
v 0.04711297 -0.05903955 -0.01748683
v 0.04110893 0.00479999 -0.06349220
v 0.04546073 -0.00152013 -0.01898845
v 0.00326015 -0.06949126 -0.06733388
v 0.00467770 -0.07196124 -0.06575292
v 0.04568528 -0.06929102 -0.04097733
v -0.02873650 -0.07338831 -0.06583028
v -0.01544169 -0.07628759 -0.05178127
v 0.01265455 -0.07461824 -0.05166122
v 0.02189285 -0.07298720 -0.06091770
v 0.00172339 -0.07460564 -0.06086190
v -0.03120078 -0.06527483 -0.06672035
v -0.02753912 -0.07474900 -0.06442436
v 0.04233002 0.00487167 -0.05945843
v -0.01411027 -0.07304099 -0.06621191
v 0.04484760 -0.07132759 -0.04424574
v -0.02867942 -0.07171695 -0.06726909
v -0.02022988 -0.07632374 -0.05338134
vn 0.55251064 0.59288380 0.58585048
vn 0.59853293 -0.45405317 0.65999549
vn 0.42522639 -0.25004482 -0.86986212
vn -0.52220376 0.59500088 -0.61096414
vn -0.73289933 -0.02929742 0.67970599
vn 0.46001442 0.66067488 -0.59320776
vn 0.83164156 -0.18599340 -0.52323873
vn -0.09290907 -0.39640594 0.91336205
vn -0.62295841 0.60105936 0.50065004
vn -0.58517082 -0.70523699 -0.40026978
vn 0.03230311 0.70391263 -0.70955164
vn 0.99921452 0.02011370 -0.03414369
vn 0.92329624 0.05751608 -0.37975777
vn -0.15462036 0.07069004 0.98544176
vn -0.44899228 -0.24221391 -0.86008044
vn -0.54430918 -0.27890379 0.79116382
vn 0.14499835 -0.85523321 -0.49754560
vn -0.18462731 -0.81058956 0.55574933
vn -0.98864271 -0.07250679 0.13163718
vn 0.14329223 0.65481447 -0.74208176
vn 0.74378312 0.00985731 0.66834834
vn 0.99539437 -0.09514951 -0.01168823
vn 0.70633336 0.70596092 -0.05208033
vn 0.99544011 0.03660540 -0.08808541
vn -0.12556392 0.71847542 0.68412482
vn 0.04183955 -0.10461609 -0.99363219
vn 0.49463430 -0.75607576 -0.42858647
vn 0.03288622 -0.49082390 -0.87063792
vn -0.46270362 -0.81718845 0.34366903
vn -0.71692458 0.69668170 -0.02556860
vn -0.91848606 -0.26097896 -0.29710831
vn -0.89724668 -0.37516671 0.23280537
vn 0.71376550 0.03081256 0.69970665
vn 0.99854124 -0.05323524 0.00902229
vn 0.95313360 0.15847077 -0.25772728
vn 0.99775169 0.05295175 -0.04108123
vn 0.99700028 0.04195206 -0.06504196
vn 0.13805136 -0.44454192 -0.88505610
vn 0.19223588 -0.20267461 -0.96019184
vn 0.85127761 -0.42944180 -0.30150652
vn 0.24144976 -0.92579523 -0.29086973
vn 0.01559032 -0.89974411 -0.43613929
vn 0.06962998 -0.99132249 -0.11149613
vn -0.81541747 -0.22760897 -0.53224854
vn -0.95167102 -0.01626389 -0.30668835
vn -0.50594189 -0.85921911 0.07592979
vn 0.84239350 -0.02024978 0.53848225
vn 0.79927902 0.47803886 -0.36418663
vn 0.99872771 0.04887528 -0.01241633
vn 0.03975116 -0.27553925 -0.96046758
vn 0.06703692 -0.73159730 -0.67843307
vn 0.92623768 -0.37283845 0.05545492
vn -0.16595945 -0.69299275 -0.70158286
vn 0.03461167 -0.99788000 -0.05511378
vn 0.08582927 -0.99545033 -0.04137615
vn 0.08467936 -0.98250632 -0.16586363
vn 0.05541987 -0.97140576 -0.23086683
vn -0.77572221 -0.00980534 -0.63099835
vn -0.08872033 -0.90404532 -0.41812768
vn 0.72833023 0.67360226 -0.12567842
vn 0.03331930 -0.77723921 -0.62832240
vn 0.56887916 -0.81774489 0.08757738
vn -0.12243261 -0.51087923 -0.85088934
vn 0.00048504 -0.99669139 -0.08127755
f 7//7 3//3 6//6
f 8//8 2//2 1//1
f 9//9 5//5 8//8
f 11//11 1//1 6//6
f 11//11 9//9 1//1
f 11//11 4//4 9//9
f 13//13 7//7 6//6
f 14//14 9//9 8//8
f 14//14 8//8 1//1
f 16//16 8//8 5//5
f 18//18 2//2 8//8
f 18//18 8//8 16//16
f 19//19 5//5 9//9
f 20//20 11//11 6//6
f 20//20 6//6 3//3
f 22//22 7//7 12//12
f 22//22 12//12 21//21
f 23//23 6//6 1//1
f 24//24 12//12 7//7
f 24//24 7//7 13//13
f 25//25 14//14 1//1
f 25//25 1//1 9//9
f 25//25 9//9 14//14
f 26//26 15//15 4//4
f 26//26 4//4 11//11
f 27//27 3//3 7//7
f 29//29 18//18 16//16
f 30//30 19//19 9//9
f 30//30 9//9 4//4
f 30//30 4//4 19//19
f 32//32 16//16 5//5
f 32//32 5//5 19//19
f 32//32 29//29 16//16
f 32//32 19//19 31//31
f 32//32 31//31 10//10
f 33//33 21//21 12//12
f 33//33 1//1 2//2
f 33//33 2//2 21//21
f 34//34 22//22 21//21
f 34//34 2//2 22//22
f 36//36 13//13 23//23
f 36//36 23//23 1//1
f 37//37 24//24 13//13
f 37//37 12//12 24//24
f 37//37 36//36 12//12
f 37//37 13//13 36//36
f 38//38 27//27 17//17
f 38//38 3//3 27//27
f 39//39 26//26 11//11
f 39//39 11//11 20//20
f 39//39 38//38 26//26
f 39//39 20//20 3//3
f 39//39 3//3 38//38
f 40//40 27//27 7//7
f 40//40 7//7 22//22
f 41//41 17//17 27//27
f 44//44 15//15 10//10
f 44//44 10//10 31//31
f 45//45 31//31 19//19
f 45//45 19//19 4//4
f 46//46 32//32 10//10
f 46//46 29//29 32//32
f 47//47 34//34 21//21
f 47//47 21//21 2//2
f 47//47 2//2 34//34
f 48//48 35//35 13//13
f 48//48 13//13 6//6
f 49//49 33//33 12//12
f 49//49 12//12 36//36
f 49//49 36//36 1//1
f 49//49 1//1 33//33
f 50//50 38//38 28//28
f 50//50 26//26 38//38
f 50//50 28//28 15//15
f 50//50 15//15 26//26
f 51//51 38//38 17//17
f 51//51 28//28 38//38
f 51//51 17//17 42//42
f 52//52 40//40 22//22
f 52//52 22//22 2//2
f 55//55 54//54 43//43
f 55//55 18//18 54//54
f 56//56 17//17 41//41
f 56//56 55//55 43//43
f 56//56 41//41 55//55
f 57//57 42//42 17//17
f 57//57 56//56 43//43
f 57//57 17//17 56//56
f 57//57 43//43 54//54
f 58//58 44//44 31//31
f 58//58 31//31 45//45
f 58//58 15//15 44//44
f 58//58 45//45 4//4
f 58//58 4//4 15//15
f 59//59 46//46 10//10
f 59//59 10//10 53//53
f 59//59 53//53 28//28
f 60//60 48//48 6//6
f 60//60 6//6 23//23
f 60//60 35//35 48//48
f 60//60 23//23 13//13
f 60//60 13//13 35//35
f 61//61 51//51 42//42
f 61//61 28//28 51//51
f 61//61 59//59 28//28
f 61//61 42//42 59//59
f 62//62 27//27 40//40
f 62//62 40//40 52//52
f 62//62 41//41 27//27
f 62//62 55//55 41//41
f 62//62 18//18 55//55
f 62//62 52//52 2//2
f 62//62 2//2 18//18
f 63//63 15//15 28//28
f 63//63 28//28 53//53
f 63//63 53//53 10//10
f 63//63 10//10 15//15
f 64//64 54//54 18//18
f 64//64 18//18 29//29
f 64//64 29//29 46//46
f 64//64 46//46 59//59
f 64//64 59//59 42//42
f 64//64 57//57 54//54
f 64//64 42//42 57//57

