# https://github.com/mikedh/trimesh
v -0.04489950 0.03181613 0.00916385
v -0.02671600 -0.07168958 -0.00028962
v -0.02881809 0.05238805 -0.03288836
v -0.04639264 0.05194334 -0.06559808
v -0.04677368 -0.06340929 -0.00346088
v -0.02678281 -0.06043248 -0.06523810
v -0.05441466 0.05223152 -0.01589458
v -0.02677370 -0.06235505 -0.00027557
v -0.04578672 -0.06758009 -0.00017437
v -0.02987849 0.05218989 -0.06553813
v -0.04211428 -0.05873194 -0.06186289
v -0.03911961 0.05305385 -0.01776033
v -0.04421365 0.02245785 0.00909395
v -0.03302498 0.05184608 -0.02165284
v -0.02688155 0.00997346 -0.03161536
v -0.05388530 0.02246839 0.00914703
v -0.03778380 0.01474000 -0.06589925
v -0.04016123 -0.06064109 -0.06433841
v -0.05020577 0.05246523 -0.06198001
v -0.04690441 -0.04935524 -0.03143681
v -0.04370810 -0.06623368 -0.04690578
v -0.04498022 0.04276500 -0.00037505
v -0.02673236 -0.03070230 -0.06507040
v -0.04681231 -0.06315394 -0.00028328
v -0.05468170 0.04281142 -0.00027256
v -0.04329911 -0.07009094 -0.00022534
v -0.04254164 0.05223439 -0.06594234
v -0.04530255 0.02409885 -0.06582749
v -0.05328871 0.05235381 -0.03148787
v -0.05024492 -0.02587252 -0.00022590
v -0.04524846 -0.06611353 -0.01890188
v -0.04689028 -0.05864181 -0.02045420
v -0.04532751 -0.05079608 -0.04851417
v -0.04235772 -0.06713851 -0.05482496
v -0.03415409 0.05188890 -0.02013692
v -0.05401126 0.03195120 0.00907849
v -0.03779894 0.04431730 -0.06589305
v -0.04055513 0.01482454 -0.06586188
v -0.04581405 0.04138191 -0.06592080
v -0.04420059 -0.01654205 -0.06417199
v -0.05154135 0.01478660 -0.02508871
v -0.05163412 -0.00242918 -0.00641828
v -0.04847560 -0.04455342 -0.00653892
v -0.04369376 -0.05414676 -0.05887203
v -0.05155641 0.05073159 -0.04857581
v -0.04098134 -0.06033703 -0.06366356
v -0.03458146 -0.07128379 -0.05504811
v -0.04215623 -0.06999413 -0.04077646
v -0.04080176 -0.05401667 -0.06439907
v -0.04372131 -0.04774515 -0.06070998
v -0.04563985 0.00434470 -0.06429887
v -0.05157632 0.01012876 -0.02048492
v -0.05327037 0.02880662 -0.01270975
v -0.05164043 0.05229183 -0.04858584
v -0.03978138 -0.07047138 -0.05493311
v -0.02676916 -0.07143808 -0.04716276
v -0.04023580 -0.07139657 -0.00809044
v -0.04419521 -0.06974383 -0.00335728
v -0.04366988 -0.06895437 -0.02828698
v -0.04224296 -0.05086660 -0.06332517
v -0.03936837 -0.07138121 -0.04535455
v -0.03609613 -0.07130878 -0.00040296
v -0.04391225 -0.06992160 -0.00484715
v -0.04051500 -0.07120145 -0.04089142
vn 0.44132794 0.30998785 0.84210284
vn 0.57650655 -0.60611798 0.54796094
vn 0.73116287 0.67476425 0.10046919
vn -0.35225839 0.53477522 -0.76806868
vn -0.98337007 -0.18006882 -0.02363301
vn 0.61835908 -0.31489824 -0.72004941
vn -0.68747477 0.70168497 0.18712737
vn 0.85736658 0.01490807 0.51449033
vn -0.70025564 -0.38419212 0.60169631
vn 0.56702560 0.58431339 -0.58056854
vn -0.92016533 -0.16152296 -0.35665964
vn 0.18291998 0.92742417 0.32622797
vn 0.31398993 -0.01125135 0.94935964
vn 0.70667489 0.61960733 0.34160995
vn 0.99876007 0.03716482 0.03312251
vn -0.70946021 -0.07433712 0.70081396
vn 0.01796466 -0.00456229 -0.99982821
vn -0.35953456 -0.36995642 -0.85666047
vn -0.69933028 0.62362250 -0.34933099
vn -0.99399470 -0.07897061 -0.07575079
vn -0.94598553 -0.30888238 -0.09850410
vn 0.29811043 0.70326538 0.64540528
vn 0.79907127 0.00872528 -0.60117300
vn -0.91044413 -0.15856398 0.38203265
vn -0.69857519 0.54570236 0.46281923
vn -0.33504211 -0.68684980 0.64496832
vn -0.02173278 0.68182655 -0.73119097
vn -0.41721115 -0.02494503 -0.90846717
vn -0.74410294 0.66535883 -0.06007032
vn -0.99641589 -0.08249709 0.01869755
vn -0.95996622 -0.27534373 -0.05148486
vn -0.98852775 -0.14152346 -0.05276353
vn -0.99043954 -0.08633066 -0.10759434
vn -0.86638932 -0.41617850 -0.27598009
vn 0.55186991 0.71207477 0.43403817
vn -0.61887835 0.26506157 0.73941325
vn 0.02788418 0.00290704 -0.99960693
vn -0.02425110 -0.01079087 -0.99964766
vn -0.37988060 -0.01178747 -0.92496042
vn -0.72892072 -0.05597141 -0.68230622
vn -0.99487918 -0.06166873 -0.08007737
vn -0.99654269 -0.06693797 -0.04921351
vn -0.99587104 -0.08891477 -0.01830401
vn -0.96811113 -0.10904720 -0.22554278
vn -0.99316867 -0.05780790 -0.10136190
vn -0.76910349 -0.27770161 -0.57564020
vn 0.07602140 -0.90265925 -0.42358828
vn -0.75012567 -0.65836599 -0.06217475
vn -0.47196968 -0.04928819 -0.88023593
vn -0.94269776 -0.07008961 -0.32620298
vn -0.78019667 -0.05641442 -0.62298520
vn -0.99564705 -0.06434848 -0.06742573
vn -0.99647912 -0.05967990 -0.05888698
vn -0.96234050 0.25404784 -0.09674943
vn -0.44802437 -0.80799803 -0.38263998
vn 0.69639798 -0.71017275 -0.10336598
vn -0.19936142 -0.97977929 0.01695803
vn -0.65777412 -0.75306211 0.01518777
vn -0.85308277 -0.51977598 -0.04563677
vn -0.80881453 -0.07311125 -0.58350132
vn -0.21079665 -0.97661582 -0.04226491
vn -0.06639354 -0.79058277 0.60874526
vn -0.50666607 -0.86209971 -0.00857823
vn -0.39991065 -0.91604767 -0.03046547
f 12//12 3//3 10//10
f 13//13 8//8 1//1
f 13//13 2//2 8//8
f 14//14 8//8 3//3
f 14//14 1//1 8//8
f 14//14 3//3 12//12
f 15//15 3//3 8//8
f 15//15 10//10 3//3
f 15//15 8//8 2//2
f 16//16 13//13 1//1
f 16//16 2//2 13//13
f 17//17 10//10 6//6
f 19//19 12//12 10//10
f 22//22 12//12 7//7
f 23//23 6//6 10//10
f 23//23 10//10 15//15
f 23//23 15//15 2//2
f 24//24 5//5 9//9
f 24//24 9//9 16//16
f 25//25 22//22 7//7
f 25//25 1//1 22//22
f 26//26 16//16 9//9
f 26//26 2//2 16//16
f 27//27 19//19 10//10
f 27//27 4//4 19//19
f 28//28 6//6 18//18
f 29//29 7//7 12//12
f 29//29 12//12 19//19
f 30//30 24//24 16//16
f 30//30 5//5 24//24
f 31//31 21//21 9//9
f 31//31 9//9 5//5
f 31//31 5//5 21//21
f 32//32 21//21 5//5
f 33//33 32//32 20//20
f 33//33 21//21 32//32
f 35//35 14//14 12//12
f 35//35 12//12 22//22
f 35//35 22//22 1//1
f 35//35 1//1 14//14
f 36//36 25//25 16//16
f 36//36 16//16 1//1
f 36//36 1//1 25//25
f 37//37 27//27 10//10
f 37//37 10//10 17//17
f 37//37 17//17 27//27
f 38//38 17//17 6//6
f 38//38 6//6 28//28
f 39//39 27//27 17//17
f 39//39 38//38 28//28
f 39//39 17//17 38//38
f 39//39 4//4 27//27
f 39//39 28//28 19//19
f 39//39 19//19 4//4
f 41//41 33//33 20//20
f 41//41 29//29 33//33
f 42//42 32//32 30//30
f 42//42 20//20 32//32
f 42//42 30//30 16//16
f 43//43 32//32 5//5
f 43//43 5//5 30//30
f 43//43 30//30 32//32
f 44//44 33//33 19//19
f 44//44 11//11 34//34
f 44//44 34//34 21//21
f 44//44 21//21 33//33
f 45//45 33//33 29//29
f 45//45 19//19 33//33
f 46//46 34//34 11//11
f 47//47 18//18 6//6
f 48//48 21//21 34//34
f 49//49 40//40 28//28
f 49//49 28//28 18//18
f 49//49 18//18 46//46
f 50//50 44//44 19//19
f 50//50 11//11 44//44
f 51//51 19//19 28//28
f 51//51 28//28 40//40
f 52//52 41//41 20//20
f 52//52 20//20 42//42
f 53//53 42//42 16//16
f 53//53 16//16 25//25
f 53//53 25//25 7//7
f 53//53 52//52 42//42
f 53//53 41//41 52//52
f 53//53 7//7 29//29
f 53//53 29//29 41//41
f 54//54 45//45 29//29
f 54//54 29//29 19//19
f 54//54 19//19 45//45
f 55//55 46//46 18//18
f 55//55 34//34 46//46
f 55//55 18//18 47//47
f 55//55 48//48 34//34
f 56//56 47//47 6//6
f 56//56 23//23 2//2
f 56//56 6//6 23//23
f 58//58 26//26 9//9
f 59//59 9//9 21//21
f 59//59 21//21 48//48
f 59//59 58//58 9//9
f 59//59 48//48 58//58
f 60//60 49//49 46//46
f 60//60 40//40 49//49
f 60//60 46//46 11//11
f 60//60 11//11 50//50
f 60//60 51//51 40//40
f 60//60 50//50 19//19
f 60//60 19//19 51//51
f 61//61 56//56 2//2
f 61//61 47//47 56//56
f 61//61 2//2 57//57
f 61//61 55//55 47//47
f 62//62 57//57 2//2
f 62//62 2//2 26//26
f 62//62 26//26 57//57
f 63//63 57//57 26//26
f 63//63 26//26 58//58
f 63//63 58//58 48//48
f 64//64 48//48 55//55
f 64//64 55//55 61//61
f 64//64 63//63 48//48
f 64//64 61//61 57//57
f 64//64 57//57 63//63

