# https://github.com/mikedh/trimesh
v 0.01908931 0.09149443 -0.05528505
v 0.01908931 0.07115167 -0.05528505
v 0.01905730 0.07120150 -0.07108659
v -0.04006569 0.09719870 -0.07222993
v -0.04662670 0.07436035 -0.05505428
v 0.01921237 0.10422334 -0.06837022
v -0.04162074 0.10237598 -0.05526540
v -0.04645735 0.07116129 -0.05526402
v 0.01913489 0.10030261 -0.07081451
v -0.04566708 0.10105931 -0.05507308
v -0.03974895 0.10233391 -0.06739041
v -0.01376946 0.10465168 -0.05521025
v -0.03984532 0.07095994 -0.07258054
v -0.02651925 0.09886358 -0.07217125
v -0.04545264 0.10010763 -0.06686624
v -0.04169094 0.10226691 -0.05984787
v 0.01908738 0.10551405 -0.06309204
v -0.03073365 0.10405009 -0.05522219
v 0.01908990 0.10310532 -0.06927778
v -0.03869035 0.10078723 -0.06937961
v -0.01384296 0.09719069 -0.07249431
v -0.04676797 0.09879456 -0.05523165
v -0.04246141 0.09283291 -0.07229430
v -0.04504921 0.07141872 -0.06847451
v -0.04286082 0.09868256 -0.07131029
v -0.04428322 0.10067757 -0.06677782
v 0.00979777 0.10557206 -0.06279388
v -0.00291963 0.08055961 -0.07247970
v -0.04646948 0.09896003 -0.06296305
v -0.04320948 0.07131725 -0.07123530
v -0.04320994 0.09151189 -0.07124317
v -0.04146917 0.09586536 -0.07211303
v -0.03703141 0.09834873 -0.07211349
v 0.01593680 0.10563490 -0.06287543
v 0.00972449 0.10524123 -0.06392056
v -0.03087992 0.10380743 -0.05817672
v -0.00292051 0.08827562 -0.07234884
v -0.04633080 0.09167431 -0.06287778
v -0.04238281 0.08550931 -0.07224388
v -0.04473878 0.09911136 -0.06819706
vn 0.68043526 0.14105423 0.71910469
vn 0.57832292 -0.57808274 0.57564133
vn 0.58967683 -0.57896999 -0.56309413
vn -0.09965554 0.18880150 -0.97694563
vn -0.73746358 -0.04891128 0.67361351
vn 0.64224194 0.64616659 -0.41230332
vn -0.17918873 0.80392776 0.56709043
vn -0.59866694 -0.60025561 0.53036882
vn 0.65913688 0.19787819 -0.72552243
vn -0.51969703 0.59230304 0.61570456
vn -0.18463302 0.91945658 -0.34714587
vn 0.00004569 0.70412359 0.71007744
vn -0.14434849 -0.68034809 -0.71853322
vn -0.02183477 0.46388573 -0.88562592
vn -0.77313870 0.53391359 -0.34233438
vn -0.26192610 0.96396203 -0.04660382
vn 0.62996521 0.72718954 0.27265218
vn -0.06414309 0.75840315 0.64862186
vn 0.48435303 0.47800841 -0.73274150
vn -0.05460392 0.75638558 -0.65184298
vn 0.01489473 0.16026817 -0.98696112
vn -0.79406000 0.16291739 0.58559938
vn -0.47692692 0.03505212 -0.87824374
vn -0.73849464 -0.61710759 -0.27166871
vn -0.49856502 0.43738263 -0.74841790
vn -0.38410774 0.88395163 -0.26662851
vn -0.02180855 0.99509970 -0.09644151
vn 0.03333915 -0.02922496 -0.99901672
vn -0.96197432 0.24843027 -0.11352450
vn -0.53239729 -0.60846583 -0.58849169
vn -0.84725560 0.01267616 -0.53103415
vn -0.22871802 0.13785482 -0.96368258
vn -0.03590363 0.46018222 -0.88709822
vn 0.02795785 0.99842226 0.04869657
vn -0.03362116 0.95773018 -0.28569655
vn -0.06575890 0.99395430 -0.08792393
vn 0.04421334 0.02451578 -0.99872126
vn -0.99292230 -0.02164184 -0.11677727
vn -0.44869970 -0.01235381 -0.89359720
vn -0.86053562 0.05259336 -0.50666792
f 5//5 2//2 1//1
f 6//6 1//1 2//2
f 6//6 2//2 3//3
f 8//8 2//2 5//5
f 9//9 6//6 3//3
f 10//10 5//5 1//1
f 12//12 10//10 1//1
f 13//13 3//3 2//2
f 13//13 2//2 8//8
f 16//16 10//10 7//7
f 17//17 12//12 1//1
f 17//17 1//1 6//6
f 18//18 7//7 10//10
f 18//18 10//10 12//12
f 18//18 16//16 7//7
f 18//18 11//11 16//16
f 19//19 14//14 6//6
f 19//19 6//6 9//9
f 19//19 9//9 14//14
f 20//20 11//11 6//6
f 20//20 6//6 14//14
f 21//21 4//4 14//14
f 21//21 14//14 9//9
f 22//22 5//5 10//10
f 23//23 21//21 13//13
f 23//23 4//4 21//21
f 24//24 13//13 8//8
f 24//24 8//8 5//5
f 25//25 15//15 11//11
f 25//25 11//11 20//20
f 26//26 15//15 10//10
f 26//26 10//10 16//16
f 26//26 16//16 11//11
f 26//26 11//11 15//15
f 27//27 18//18 12//12
f 28//28 3//3 13//13
f 28//28 13//13 21//21
f 28//28 9//9 3//3
f 29//29 5//5 22//22
f 29//29 15//15 24//24
f 29//29 22//22 10//10
f 29//29 10//10 15//15
f 30//30 13//13 24//24
f 31//31 24//24 15//15
f 31//31 30//30 24//24
f 31//31 23//23 30//30
f 31//31 25//25 23//23
f 32//32 25//25 4//4
f 32//32 4//4 23//23
f 32//32 23//23 25//25
f 33//33 25//25 20//20
f 33//33 20//20 14//14
f 33//33 14//14 4//4
f 33//33 4//4 25//25
f 34//34 17//17 6//6
f 34//34 6//6 27//27
f 34//34 27//27 12//12
f 34//34 12//12 17//17
f 35//35 27//27 6//6
f 35//35 6//6 11//11
f 35//35 11//11 27//27
f 36//36 27//27 11//11
f 36//36 11//11 18//18
f 36//36 18//18 27//27
f 37//37 28//28 21//21
f 37//37 21//21 9//9
f 37//37 9//9 28//28
f 38//38 29//29 24//24
f 38//38 24//24 5//5
f 38//38 5//5 29//29
f 39//39 30//30 23//23
f 39//39 23//23 13//13
f 39//39 13//13 30//30
f 40//40 31//31 15//15
f 40//40 15//15 25//25
f 40//40 25//25 31//31

