# https://github.com/mikedh/trimesh
v 0.04799172 0.03288663 0.05607138
v 0.05256977 -0.05401527 0.04145742
v 0.05015894 0.05539328 -0.00533879
v 0.03388555 0.07595848 -0.00559072
v 0.03774602 -0.01542351 0.05769161
v 0.04295849 -0.05464183 -0.00365901
v 0.04781257 0.07476802 0.03096101
v 0.04962445 -0.01495124 0.05694522
v 0.03815227 0.03350415 0.05695293
v 0.05381809 -0.05405432 -0.00377636
v 0.03294709 0.05504358 -0.00621494
v 0.04069183 -0.05451551 0.04178536
v 0.04843083 0.07577955 -0.00535412
v 0.05075645 0.03653770 0.03824774
v 0.03840331 0.07628698 0.03042258
v 0.04367216 0.07337146 0.03501547
v 0.04913883 0.00671931 0.05693363
v 0.04617037 -0.06459722 0.01030101
v 0.03327843 0.05642390 -0.00659560
v 0.04927159 0.06316038 0.03063051
v 0.05240526 0.00681267 0.01334942
v 0.03439899 0.07652361 -0.00497915
v 0.04117228 0.03536465 0.05599895
v 0.04702186 0.06862688 0.03661991
v 0.04080556 0.07493689 0.03326334
v 0.04924177 0.03178122 0.05448196
v 0.05091551 -0.06194485 0.00700630
v 0.04617902 -0.06458838 0.00407469
v 0.05402082 -0.05083251 -0.00384143
v 0.05260041 -0.02597921 0.04295568
v 0.04538748 0.07011488 0.03659451
v 0.03922382 0.07339063 0.03330761
v 0.04491725 0.07411252 0.03415618
v 0.04938391 0.05667972 0.04060137
v 0.05252293 -0.05964342 0.00400029
v 0.04867012 -0.06397465 0.01031689
v 0.05236637 0.00668656 -0.00377822
v 0.05400310 -0.05084363 -0.00221468
v 0.05233981 -0.00100146 0.02890205
v 0.04700983 0.03337942 0.05603004
v 0.03958775 0.07483342 0.03261560
v 0.03857035 0.07409474 0.03213360
v 0.04420706 0.07300590 0.03511992
v 0.04639177 0.07262374 0.03449351
v 0.04794129 0.07301348 0.03225599
v 0.04824219 0.06344304 0.03827109
v 0.05233856 -0.05955987 0.01035389
v 0.04947925 -0.06355850 0.00401498
v 0.05408452 -0.04784492 -0.00381588
v 0.05078006 -0.06223716 0.00418012
vn 0.49997802 0.22562225 0.83613191
vn 0.63572997 -0.55837524 0.53297702
vn 0.73612917 0.04287410 -0.67548180
vn -0.66442940 0.42231277 -0.61659184
vn -0.64101509 -0.17189174 0.74803268
vn -0.61865044 -0.33921521 -0.70866401
vn 0.68744679 0.69304972 0.21702303
vn 0.62094684 -0.11744421 0.77500444
vn -0.60314536 0.18919770 0.77486767
vn 0.65198822 -0.31100951 -0.69150882
vn -0.91814828 -0.02925294 -0.39515566
vn -0.59307192 -0.61660586 0.51774792
vn 0.57622608 0.59084927 -0.56467748
vn 0.99706194 0.04904978 0.05883537
vn -0.57200990 0.77308618 0.27412122
vn -0.01031819 0.59286199 0.80523797
vn 0.62151021 0.02329123 0.78305975
vn -0.36972054 -0.92420872 0.09562935
vn -0.44455584 0.02594565 -0.89537530
vn 0.99475462 0.09637767 0.03427234
vn 0.99928254 0.03681593 0.00888757
vn -0.34836050 0.90403697 -0.24771377
vn 0.07310173 0.42248532 0.90341701
vn 0.60625051 0.41652004 0.67747427
vn -0.16335079 0.75354067 0.63678331
vn 0.92445718 0.10118998 0.36761326
vn 0.77542633 -0.62932893 0.05156653
vn -0.37187855 -0.86414452 -0.33905838
vn 0.72190717 -0.04372682 -0.69060698
vn 0.99281424 0.00620009 0.11950503
vn 0.26595355 0.48317999 0.83414975
vn -0.57022801 0.43753825 0.69526994
vn 0.24857421 0.76330912 0.59629695
vn 0.92759634 0.20304589 0.31358794
vn 0.90480547 -0.41839382 -0.07920656
vn 0.48569526 -0.86535050 0.12356627
vn 0.97971767 0.03455852 -0.19738034
vn 0.99891999 -0.04027609 0.02316658
vn 0.99917932 0.02990541 0.02731933
vn 0.14461686 0.38369421 0.91206618
vn -0.49570705 0.54059981 0.67972522
vn -0.76144490 0.35875432 0.53990462
vn 0.22560707 0.52386932 0.82137834
vn 0.53810420 0.51245516 0.66920369
vn 0.89037087 0.30326127 0.33951776
vn 0.78143249 0.32968567 0.52978357
vn 0.90221952 -0.42670855 0.06260796
vn 0.46773932 -0.81884550 -0.33273409
vn 0.83711899 0.00161236 -0.54701847
vn 0.75583282 -0.63617308 -0.15492114
f 8//8 5//5 2//2
f 11//11 9//9 4//4
f 11//11 5//5 9//9
f 12//12 2//2 5//5
f 12//12 11//11 6//6
f 12//12 5//5 11//11
f 15//15 4//4 9//9
f 15//15 7//7 13//13
f 17//17 1//1 9//9
f 17//17 9//9 5//5
f 17//17 5//5 8//8
f 18//18 2//2 12//12
f 19//19 10//10 6//6
f 19//19 6//6 11//11
f 19//19 13//13 3//3
f 19//19 11//11 4//4
f 19//19 4//4 13//13
f 20//20 13//13 7//7
f 20//20 3//3 13//13
f 20//20 14//14 3//3
f 21//21 3//3 14//14
f 22//22 15//15 13//13
f 22//22 13//13 4//4
f 22//22 4//4 15//15
f 23//23 16//16 9//9
f 25//25 9//9 16//16
f 26//26 1//1 17//17
f 26//26 17//17 8//8
f 28//28 6//6 10//10
f 28//28 18//18 12//12
f 28//28 12//12 6//6
f 29//29 19//19 3//3
f 29//29 10//10 19//19
f 30//30 14//14 26//26
f 30//30 26//26 8//8
f 30//30 8//8 2//2
f 31//31 16//16 23//23
f 31//31 1//1 24//24
f 32//32 9//9 25//25
f 33//33 25//25 16//16
f 33//33 7//7 15//15
f 33//33 15//15 25//25
f 34//34 26//26 14//14
f 34//34 14//14 20//20
f 34//34 1//1 26//26
f 35//35 10//10 2//2
f 36//36 27//27 2//2
f 36//36 2//2 18//18
f 36//36 18//18 28//28
f 37//37 3//3 21//21
f 38//38 2//2 10//10
f 38//38 10//10 29//29
f 39//39 21//21 14//14
f 39//39 14//14 30//30
f 40//40 31//31 23//23
f 40//40 1//1 31//31
f 40//40 23//23 9//9
f 40//40 9//9 1//1
f 41//41 32//32 25//25
f 41//41 25//25 15//15
f 41//41 15//15 32//32
f 42//42 32//32 15//15
f 42//42 15//15 9//9
f 42//42 9//9 32//32
f 43//43 33//33 16//16
f 43//43 16//16 31//31
f 43//43 31//31 33//33
f 44//44 33//33 31//31
f 44//44 31//31 24//24
f 44//44 7//7 33//33
f 45//45 44//44 24//24
f 45//45 7//7 44//44
f 45//45 34//34 20//20
f 45//45 20//20 7//7
f 46//46 24//24 1//1
f 46//46 1//1 34//34
f 46//46 45//45 24//24
f 46//46 34//34 45//45
f 47//47 35//35 2//2
f 47//47 2//2 27//27
f 47//47 27//27 35//35
f 48//48 28//28 10//10
f 48//48 36//36 28//28
f 48//48 27//27 36//36
f 49//49 29//29 3//3
f 49//49 3//3 37//37
f 49//49 37//37 21//21
f 49//49 38//38 29//29
f 49//49 21//21 39//39
f 49//49 39//39 30//30
f 49//49 30//30 2//2
f 49//49 2//2 38//38
f 50//50 48//48 10//10
f 50//50 10//10 35//35
f 50//50 35//35 27//27
f 50//50 27//27 48//48

