# https://github.com/mikedh/trimesh
v 0.03791576 0.08621991 0.02300543
v 0.04553736 0.03674933 -0.00014856
v 0.03993375 0.09273763 -0.05928548
v -0.00853574 0.09255045 -0.06585286
v -0.02146261 0.02439507 -0.01915046
v 0.02418578 0.10266534 0.01178344
v 0.04142929 0.08982169 0.01697161
v 0.03387127 0.04645343 0.00958419
v 0.04089355 0.02435824 -0.06163623
v 0.03036199 0.10083374 -0.05628601
v -0.02242945 0.10121655 -0.01572860
v 0.04469436 0.04616424 0.00925561
v 0.04133724 0.09393471 -0.04376249
v 0.03831818 0.09525639 0.01756012
v 0.03415079 0.08646411 0.02245459
v 0.04578283 0.02426731 -0.01421705
v -0.01938546 0.02428480 -0.06500789
v 0.03517173 0.09288227 -0.06420357
v -0.02094938 0.09979775 -0.04849056
v 0.01997424 0.10230830 -0.04524886
v 0.04109007 0.08656817 0.02045158
v 0.04303770 0.07575284 -0.01893437
v 0.03655580 0.09971147 -0.05736570
v 0.02404143 0.09983111 0.01562485
v 0.03992578 0.09535972 0.01461117
v -0.02301228 0.07651450 -0.01675323
v 0.04457824 0.02422260 -0.04374316
v -0.01654075 0.02339562 -0.03164179
v 0.03709840 0.09444074 -0.06248525
v 0.02280647 0.02590931 -0.06420607
v 0.02451959 0.09958310 -0.06172877
v -0.01941471 0.06650314 -0.06539119
v -0.00991145 0.10244856 -0.01565189
v 0.02739278 0.10238899 -0.04388280
v 0.01042781 0.10065293 -0.05609645
v 0.04162128 0.08670987 0.01854827
v 0.03955107 0.09024961 0.02006316
v 0.04135674 0.09252190 0.00292772
v 0.04463203 0.04452496 -0.03289121
v 0.03177798 0.10073923 0.01237609
v 0.03451343 0.09219656 0.01991559
v 0.03524058 0.08933418 0.02152038
v 0.03976526 0.09674449 -0.02999893
v -0.02258117 0.10075304 -0.03295509
v -0.02308816 0.06638981 -0.02089996
v 0.04319928 0.02413150 -0.05471774
v 0.04139073 0.08981366 -0.04677914
v 0.03555576 0.02416200 -0.01521030
v 0.04000959 0.09114018 -0.05963282
v 0.03685373 0.09669352 -0.06205517
v -0.00073670 0.08520564 -0.06581201
v 0.03792409 0.02431135 -0.06266296
v 0.03419122 0.09953476 -0.06138714
v 0.02898189 0.09582463 -0.06403228
v -0.00845369 0.08520946 -0.06587685
v 0.03342146 0.10066772 -0.05315937
v 0.00261150 0.10239613 -0.03281052
v 0.00149166 0.10073955 -0.05162117
v -0.00842105 0.09439041 -0.06513040
v 0.04148426 0.08822162 0.01849234
v 0.03999686 0.08914862 0.02032295
v 0.04309049 0.07271630 -0.03605653
v 0.03604988 0.09918189 0.01170029
v 0.03000290 0.10208593 0.00898694
vn 0.23059528 0.05964395 0.97122006
vn 0.70648004 -0.50255328 0.49832334
vn 0.91448333 0.25238306 -0.31626418
vn -0.33479976 0.23902623 -0.91146891
vn -0.66312432 -0.62626840 0.40994393
vn -0.04470433 0.93102356 0.36221079
vn 0.94902603 0.25334354 0.18752772
vn -0.13364516 -0.49673247 0.85755223
vn 0.57445078 -0.59482153 -0.56231100
vn 0.06808600 0.98539127 -0.15610362
vn -0.71435806 0.58952673 0.37702890
vn 0.67112832 -0.36010763 0.64800407
vn 0.94064574 0.33620263 -0.04640449
vn 0.45455681 0.63207972 0.62757735
vn -0.28840629 0.01689717 0.95735902
vn 0.64627408 -0.70939404 0.28122928
vn -0.55184940 -0.58015521 -0.59906775
vn 0.33970136 0.14266826 -0.92964980
vn -0.68872570 0.66481381 -0.28927409
vn -0.01547540 0.99657168 -0.08127366
vn 0.80261706 0.09735540 0.58849621
vn 0.99701540 0.07718742 0.00154742
vn 0.58128865 0.79670783 -0.16540901
vn -0.27313566 0.50751087 0.81720844
vn 0.79787478 0.56362922 0.21381751
vn -0.88340434 -0.01727201 0.46829312
vn 0.75189060 -0.65625834 -0.06313087
vn -0.09381195 -0.99552117 0.01170103
vn 0.67974341 0.15153743 -0.71762476
vn 0.05037993 -0.25415667 -0.96585001
vn -0.00497477 0.81677330 -0.57693728
vn -0.68319835 0.03451333 -0.72941679
vn -0.06684403 0.99732238 0.02966378
vn 0.11780157 0.99213616 -0.04229221
vn -0.06769640 0.96104583 -0.26797034
vn 0.98508762 0.06334674 0.15996741
vn 0.56210795 0.46336005 0.68507819
vn 0.96784869 0.25117043 0.01350323
vn 0.99789343 0.04161494 -0.04976841
vn 0.26685673 0.87616802 0.40139393
vn 0.05749978 0.51420494 0.85573773
vn -0.01659307 0.43639214 0.89960356
vn 0.77907145 0.62687713 0.00852854
vn -0.73503057 0.67420623 -0.07194455
vn -0.99965566 -0.02249864 0.01350457
vn 0.71944265 -0.67420264 -0.16689239
vn 0.99430988 0.06147616 -0.08699740
vn -0.01424593 -0.96951965 0.24459908
vn 0.90360711 0.06802604 -0.42292630
vn 0.61020011 0.45886377 -0.64583269
vn 0.02820067 0.00506612 -0.99958944
vn 0.15988490 -0.67823124 -0.71724417
vn 0.26440342 0.77907436 -0.56844875
vn 0.05553603 0.35346582 -0.93379744
vn -0.01740334 -0.00292587 -0.99984427
vn 0.21523452 0.97516587 -0.05220749
vn -0.03365237 0.99854721 -0.04208315
vn -0.05622493 0.99178753 -0.11487498
vn -0.32496757 0.60495205 -0.72693129
vn 0.92859410 0.24215644 0.28119968
vn 0.66715634 0.38179292 0.63963785
vn 0.99730837 0.05787012 -0.04502292
vn 0.51499117 0.83762110 0.18214003
vn 0.26338422 0.96048206 0.09001653
f 8//8 5//5 2//2
f 12//12 2//2 7//7
f 12//12 8//8 2//2
f 12//12 1//1 8//8
f 15//15 8//8 1//1
f 15//15 5//5 8//8
f 16//16 2//2 5//5
f 21//21 1//1 12//12
f 22//22 7//7 2//2
f 23//23 13//13 3//3
f 24//24 6//6 11//11
f 24//24 11//11 15//15
f 26//26 15//15 11//11
f 26//26 5//5 15//15
f 28//28 5//5 17//17
f 29//29 9//9 18//18
f 32//32 19//19 4//4
f 33//33 11//11 6//6
f 34//34 10//10 20//20
f 35//35 20//20 10//10
f 35//35 10//10 31//31
f 36//36 21//21 12//12
f 36//36 12//12 7//7
f 37//37 14//14 1//1
f 38//38 22//22 13//13
f 38//38 7//7 22//22
f 38//38 25//25 7//7
f 38//38 13//13 25//25
f 39//39 16//16 27//27
f 39//39 2//2 16//16
f 40//40 24//24 14//14
f 40//40 6//6 24//24
f 41//41 1//1 14//14
f 41//41 14//14 24//24
f 42//42 24//24 15//15
f 42//42 15//15 1//1
f 42//42 41//41 24//24
f 42//42 1//1 41//41
f 43//43 25//25 13//13
f 43//43 13//13 23//23
f 44//44 26//26 11//11
f 44//44 32//32 17//17
f 44//44 19//19 32//32
f 44//44 11//11 33//33
f 45//45 17//17 5//5
f 45//45 5//5 26//26
f 45//45 44//44 17//17
f 45//45 26//26 44//44
f 46//46 27//27 16//16
f 46//46 16//16 28//28
f 47//47 3//3 13//13
f 47//47 39//39 27//27
f 48//48 28//28 16//16
f 48//48 16//16 5//5
f 48//48 5//5 28//28
f 49//49 29//29 3//3
f 49//49 9//9 29//29
f 49//49 46//46 9//9
f 49//49 27//27 46//46
f 49//49 47//47 27//27
f 49//49 3//3 47//47
f 50//50 23//23 3//3
f 50//50 3//3 29//29
f 50//50 29//29 18//18
f 51//51 30//30 17//17
f 51//51 4//4 18//18
f 51//51 18//18 30//30
f 52//52 30//30 18//18
f 52//52 18//18 9//9
f 52//52 17//17 30//30
f 52//52 9//9 46//46
f 52//52 46//46 28//28
f 52//52 28//28 17//17
f 53//53 31//31 10//10
f 53//53 10//10 23//23
f 53//53 23//23 50//50
f 53//53 50//50 18//18
f 54//54 18//18 4//4
f 54//54 53//53 18//18
f 54//54 31//31 53//53
f 55//55 32//32 4//4
f 55//55 17//17 32//32
f 55//55 51//51 17//17
f 55//55 4//4 51//51
f 56//56 23//23 10//10
f 56//56 10//10 34//34
f 57//57 34//34 20//20
f 57//57 33//33 6//6
f 57//57 6//6 34//34
f 57//57 44//44 33//33
f 57//57 20//20 19//19
f 57//57 19//19 44//44
f 58//58 35//35 19//19
f 58//58 19//19 20//20
f 58//58 20//20 35//35
f 59//59 35//35 31//31
f 59//59 4//4 19//19
f 59//59 19//19 35//35
f 59//59 54//54 4//4
f 59//59 31//31 54//54
f 60//60 36//36 7//7
f 60//60 21//21 36//36
f 60//60 7//7 25//25
f 61//61 37//37 1//1
f 61//61 1//1 21//21
f 61//61 21//21 60//60
f 61//61 60//60 25//25
f 61//61 25//25 14//14
f 61//61 14//14 37//37
f 62//62 13//13 22//22
f 62//62 22//22 2//2
f 62//62 2//2 39//39
f 62//62 47//47 13//13
f 62//62 39//39 47//47
f 63//63 40//40 14//14
f 63//63 14//14 25//25
f 63//63 43//43 23//23
f 63//63 25//25 43//43
f 64//64 34//34 6//6
f 64//64 6//6 40//40
f 64//64 56//56 34//34
f 64//64 23//23 56//56
f 64//64 63//63 23//23
f 64//64 40//40 63//63

