# Blender 5.2.0 LTS
# www.blender.org
o new_ramp.002
v -184.513000 0.182182 60.645271
v -184.503693 0.177714 58.105286
v -164.190308 0.171084 60.720108
v -184.400452 2.306150 60.641953
v -164.190338 11.447239 60.700310
v -164.190308 20.483423 60.684433
v -184.066589 4.406674 60.639420
v -184.391113 2.301683 58.101959
v -184.057220 4.402296 58.099525
v -181.938446 0.173567 56.543846
v -175.275848 0.159349 50.519142
v -164.190308 0.153293 50.565857
v -175.214233 1.321732 50.517365
v -175.031555 2.471225 50.516060
v -164.190338 0.160640 50.559998
v -174.729736 3.595404 50.515221
v -174.311981 4.681854 50.514824
v -173.782959 5.718628 50.514961
v -173.148560 6.694467 50.515579
v -172.415466 7.598636 50.516670
v -171.592010 8.421265 50.518242
v -181.775574 10.336194 58.097404
v -182.742279 8.441608 58.097260
v -183.505646 6.456406 58.097939
v -182.751617 8.446119 60.637177
v -183.514984 6.460872 60.637932
v -181.785004 10.340719 60.637451
v -180.625610 12.123819 60.638596
v -164.190308 20.490635 60.684418
v -166.305908 20.380936 60.676804
v -166.296539 20.376423 58.136879
v -164.190308 20.485685 58.144394
v -164.190308 17.923283 56.578003
v -164.190338 15.519487 54.777710
v -165.311951 11.213207 50.536514
v -164.190338 11.271411 50.540543
v -166.461578 11.031770 50.532516
v -164.190308 12.423545 51.852150
v -167.586090 10.731077 50.528961
v -168.673096 10.314545 50.525742
v -169.710480 9.786704 50.522850
v -176.118408 16.612396 58.107300
v -177.771973 15.274724 58.103546
v -179.276794 13.771580 58.100586
v -176.127716 16.616806 60.647301
v -177.781311 15.279190 60.643524
v -179.286224 13.776046 60.640648
v -180.616272 12.119352 58.098610
v -174.343292 17.774227 60.651779
v -172.447632 18.738804 60.657066
v -174.333984 17.769821 58.111778
v -172.438324 18.734337 58.117073
v -170.452148 19.495504 58.123077
v -168.397461 20.044903 58.129662
v -168.406860 20.049309 60.669731
v -170.461578 19.499971 60.663139
v -170.686981 9.153243 50.520340
v -164.190308 0.200955 50.559929
v -164.190308 0.153283 50.560005
v -164.190308 20.490616 60.674210
v -164.190308 0.161613 55.310371
v -164.190308 0.158216 53.369713
vn -0.9986 0.0529 -0.0038
vn -0.9876 0.1570 -0.0039
vn -0.9334 0.3589 -0.0041
vn -0.9334 0.3589 -0.0040
vn -0.0518 0.9987 -0.0020
vn -0.0518 0.9987 -0.0019
vn -0.7067 0.7075 -0.0038
vn -0.0038 0.0019 1.0000
vn -0.7067 0.7075 -0.0039
vn -0.8384 0.5451 -0.0040
vn -0.2583 0.9661 -0.0026
vn -0.2583 0.9661 -0.0027
vn -0.3579 0.9338 -0.0030
vn -0.3578 0.9338 -0.0030
vn -0.8383 0.5451 -0.0041
vn -0.8908 0.4545 -0.0041
vn -0.8907 0.4545 -0.0041
vn -0.5442 0.8390 -0.0034
vn 1.0000 -0.0000 -0.0000
vn -0.0006 -1.0000 0.0018
vn -0.0037 0.0018 1.0000
vn -0.0006 -1.0000 0.0017
vn 1.0000 -0.0010 -0.0034
vn -0.0008 -1.0000 0.0015
vn -0.0037 0.0021 1.0000
vn 1.0000 0.0009 -0.0005
vn -0.0036 0.0019 1.0000
vn -0.0037 0.0017 1.0000
vn -0.0036 0.0017 1.0000
vn -0.0043 0.0019 1.0000
vn -0.0005 -1.0000 0.0018
vn -0.5658 0.2888 -0.7723
vn 0.0035 -0.0018 -1.0000
vn 0.0037 -0.0017 -1.0000
vn 0.0038 -0.0021 -1.0000
vn 0.0037 -0.0018 -1.0000
vn 0.0037 -0.0019 -1.0000
vn -0.6137 0.1642 -0.7723
vn -0.0042 0.0020 1.0000
vn -0.6289 0.7775 -0.0037
vn -0.2256 0.5948 -0.7716
vn -0.3446 0.5342 -0.7719
vn 0.0041 -0.0018 -1.0000
vn -0.1621 0.6154 -0.7714
vn 0.0035 -0.0014 -1.0000
vn 0.0038 -0.0019 -1.0000
vn 0.0037 -0.0016 -1.0000
vn -0.2867 0.5676 -0.7718
vn -0.6277 0.0989 -0.7722
vn 0.0039 -0.0029 -1.0000
vn -0.0966 0.6293 -0.7712
vn -0.4931 0.4007 -0.7722
vn -0.5930 0.2278 -0.7723
vn -0.0039 0.0021 1.0000
vn -0.0035 0.0016 1.0000
vn -0.1559 0.9878 -0.0023
vn -0.6347 0.0324 -0.7721
vn -0.4483 0.4503 -0.7721
vn 0.0036 -0.0016 -1.0000
vn 0.0036 -0.0019 -1.0000
vn -0.3986 0.4950 -0.7720
vn -0.0303 0.6362 -0.7709
vn -0.7768 0.6297 -0.0040
vn -0.4535 0.8913 -0.0032
vn -0.9658 0.2593 -0.0040
vn -0.5324 0.3466 -0.7723
vt 0.000000 0.000000
vt 0.431246 0.062001
vt 0.291967 0.042417
vt 0.500316 0.073591
vt 0.249992 0.036771
vt 0.124543 0.018319
vt 0.500316 0.073585
vt 0.523216 0.073611
vt 0.525589 0.072278
s 0
usemtl 
f 4/1/1 2/1/1 1/1/1
f 8/1/1 2/1/1 4/1/1
f 7/1/2 8/1/2 4/1/2
f 9/1/2 8/1/2 7/1/2
f 23/1/3 24/1/3 25/1/3
f 25/1/4 24/1/4 26/1/4
f 31/1/5 30/1/5 29/1/5 60/1/5
f 31/1/6 60/1/6 32/1/6
f 44/1/7 46/1/7 43/1/7
f 46/1/8 47/1/8 45/1/8
f 47/1/9 46/1/9 44/1/9
f 48/1/10 22/1/10 28/1/10
f 53/1/11 55/1/11 54/1/11
f 53/1/12 56/1/12 55/1/12
f 52/1/13 50/1/13 56/1/13
f 52/1/14 56/1/14 53/1/14
f 28/1/15 22/1/15 27/1/15
f 27/1/16 23/1/16 25/1/16
f 22/1/17 23/1/17 27/1/17
f 51/1/18 42/1/18 45/1/18 49/1/18
f 62/2/19 33/1/19 3/1/19 61/3/19
f 33/1/19 6/1/19 5/1/19 3/1/19
f 10/1/20 61/1/20 3/1/20 1/1/20
f 4/1/21 1/1/21 3/1/21
f 10/1/22 11/1/22 61/1/22
f 11/1/20 12/1/20 62/1/20 61/1/20
f 59/4/23 15/5/23 58/6/23 36/1/23 12/7/23
f 36/8/19 38/9/19 12/7/19
f 38/9/19 34/1/19 12/7/19
f 34/1/19 33/1/19 12/7/19
f 33/1/19 62/2/19 12/7/19
f 11/1/24 59/1/24 12/7/24
f 34/1/19 38/9/19 33/1/19
f 38/9/19 32/1/19 33/1/19
f 32/1/19 6/1/19 33/1/19
f 30/1/25 55/1/25 6/1/25
f 55/1/21 5/1/21 6/1/21
f 32/1/26 60/1/26 29/1/26 6/1/26
f 29/1/27 30/1/27 6/1/27
f 55/1/28 27/1/28 5/1/28
f 27/1/29 26/1/29 4/1/29
f 26/1/30 7/1/30 4/1/30
f 2/1/31 10/1/31 1/1/31
f 2/1/20 11/1/20 10/1/20
f 18/1/32 17/1/32 23/1/32 22/1/32
f 13/1/33 14/1/33 11/1/33
f 14/1/34 16/1/34 11/1/34
f 27/1/21 4/1/21 3/1/21 5/1/21
f 15/5/35 59/1/35 11/1/35
f 32/1/19 38/9/19 36/8/19
f 58/6/36 41/1/36 36/1/36
f 41/1/37 39/1/37 36/1/37
f 39/1/34 35/1/34 36/1/34
f 58/6/34 15/5/34 11/1/34 16/1/34
f 9/1/38 24/1/38 16/1/38 14/1/38
f 56/1/21 47/1/21 55/1/21
f 47/1/28 27/1/28 55/1/28
f 25/1/39 26/1/39 27/1/39
f 47/1/28 28/1/28 27/1/28
f 46/1/40 45/1/40 42/1/40 43/1/40
f 40/1/41 52/1/41 53/1/41 39/1/41
f 42/1/42 51/1/42 41/1/42 57/1/42
f 17/1/43 18/1/43 16/1/43
f 18/1/36 41/1/36 16/1/36
f 41/1/34 58/6/34 16/1/34
f 54/1/44 37/1/44 39/1/44 53/1/44
f 40/1/45 39/1/45 41/1/45
f 18/1/46 21/1/46 41/1/46
f 21/1/47 57/1/47 41/1/47
f 51/1/48 52/1/48 40/1/48 41/1/48
f 14/1/49 13/1/49 8/1/49 9/1/49
f 37/1/50 35/1/50 39/1/50
f 54/1/51 31/1/51 35/1/51 37/1/51
f 19/1/52 48/1/52 44/1/52 20/1/52
f 23/1/53 17/1/53 16/1/53 24/1/53
f 50/1/54 49/1/54 56/1/54
f 49/1/21 47/1/21 56/1/21
f 49/1/55 45/1/55 47/1/55
f 31/1/56 54/1/56 55/1/56 30/1/56
f 2/1/57 8/1/57 13/1/57 11/1/57
f 20/1/58 44/1/58 43/1/58 21/1/58
f 19/1/59 20/1/59 18/1/59
f 20/1/60 21/1/60 18/1/60
f 42/1/61 57/1/61 21/1/61 43/1/61
f 31/1/62 32/1/62 36/1/62 35/1/62
f 44/1/63 48/1/63 28/1/63 47/1/63
f 49/1/64 50/1/64 52/1/64 51/1/64
f 24/1/65 9/1/65 7/1/65 26/1/65
f 48/1/66 19/1/66 18/1/66 22/1/66
