# Blender 5.2.0 LTS
# www.blender.org
o new_ramp.010
v -36.191589 34.351887 38.719711
v -35.861286 34.351376 38.529015
v -22.259869 0.051281 37.080421
v -22.259869 0.092697 60.742310
v -36.191593 0.099100 60.002296
v -36.191593 0.101183 61.191406
v -22.259865 0.093575 61.242699
v -36.191589 5.271929 61.182343
v -22.259869 3.771011 61.236244
v -36.191593 30.176270 61.138695
v -36.191586 40.848602 61.119995
v -23.714989 48.230446 61.152946
v -36.191589 40.848274 59.081520
v -36.191589 40.848198 58.579880
v -36.191589 38.719475 56.329025
v -23.684013 48.215672 52.724411
v -22.259867 48.216080 53.379974
v -22.259869 12.613646 35.182762
v -22.259869 0.047964 35.201035
v -22.259867 48.229652 61.158310
v -36.191589 0.061806 38.719711
v -29.744488 0.051719 34.997475
v -25.901337 0.046848 33.439087
v -26.405407 0.046482 33.069656
v -26.212774 0.046188 32.958443
v -26.210089 2.424431 32.956894
v -26.202274 11.998781 32.952377
v -26.201677 12.506555 32.952034
v -35.534241 33.611767 38.340195
v -22.259867 48.227356 59.840950
v -22.259865 6.298115 61.231819
v -22.259867 14.433205 61.217560
v -36.191589 21.164507 61.154488
v -36.191589 10.804377 61.172646
v -22.259869 0.049530 36.090286
v -22.259865 44.004128 51.227150
v -22.259869 33.293980 61.184502
v -22.259865 45.349480 51.914787
v -29.470926 0.051294 34.839539
v -22.259865 0.050823 36.826439
v -36.191597 0.100312 60.694595
vn 0.0006 1.0000 -0.0017
vn 0.4934 -0.0009 -0.8698
vn 1.0000 -0.0000 -0.0000
vn -0.0037 0.0018 1.0000
vn 0.0005 1.0000 -0.0017
vn 0.4531 0.4057 -0.7938
vn 0.3643 0.4906 -0.7916
vn 0.0005 1.0000 -0.0018
vn -0.0006 -1.0000 0.0018
vn -1.0000 -0.0000 -0.0000
vn -0.5092 0.8606 -0.0001
vn 0.4925 -0.0012 -0.8703
vn 0.4430 0.4006 -0.8020
vn -0.5000 -0.0000 -0.8660
vn -0.0006 -1.0000 0.0017
vn -0.3002 0.7983 -0.5221
vn -0.0005 -1.0000 0.0018
vn -0.0005 -1.0000 0.0017
vn 0.5014 0.0003 0.8652
vn 0.8965 0.4424 -0.0243
vn 0.4926 -0.0013 -0.8703
vn 1.0000 -0.0000 0.0001
vn -0.5087 0.8609 -0.0034
vn 0.4430 0.4007 -0.8020
vn -0.5764 0.7767 -0.2540
vn 0.9908 0.1336 0.0204
vt 0.000000 0.000000
vt 0.584135 0.687146
vt 0.482844 0.582806
vt 0.299104 0.363301
vt 0.100030 0.122275
vt 0.067668 0.011648
vt 0.599333 0.088824
vt 0.599310 0.095394
vt 0.024162 0.029536
vt 0.395715 0.543407
vt 0.193709 0.033345
vt 0.405903 0.069607
vt 0.524714 0.642622
vt 0.525760 0.642621
vt 0.008900 0.010879
vt 0.570754 0.664370
vt 0.500127 0.664370
vt 0.260232 0.336708
vt 0.234240 0.303009
vt 0.485312 0.623750
vt 0.504994 0.642631
vt 0.500095 0.642634
vt 0.500127 0.654350
s 0
usemtl 
f 12/1/1 20/1/1 30/1/1
f 27/1/2 19/1/2 25/1/2
f 38/1/3 30/1/3 20/1/3
f 12/1/4 11/1/4 20/1/4
f 11/2/4 10/3/4 20/1/4
f 20/1/4 33/4/4 34/5/4
f 6/1/4 37/1/4 20/1/4
f 4/1/3 37/1/3 32/6/3
f 4/1/3 3/1/3 20/1/3
f 3/1/3 18/1/3 20/1/3
f 36/1/3 20/1/3 18/1/3
f 16/1/5 30/7/5 17/8/5
f 2/1/6 38/1/6 36/1/6
f 2/1/7 16/1/7 17/8/7
f 16/1/8 12/1/8 30/1/8
f 7/1/9 21/1/9 23/1/9
f 13/1/10 15/1/10 11/1/10
f 15/1/10 10/1/10 11/1/10
f 5/1/10 41/1/10 8/9/10
f 41/10/9 7/1/9 6/1/9
f 9/1/4 6/1/4 7/1/4
f 32/6/4 6/1/4 31/11/4
f 4/1/3 31/11/3 9/12/3
f 9/12/3 7/1/3 4/1/3
f 35/1/3 18/1/3 3/1/3
f 35/1/3 19/1/3 18/1/3
f 13/1/11 11/1/11 12/1/11
f 27/13/12 28/14/12 18/1/12
f 29/15/13 18/1/13 28/14/13
f 2/1/6 36/1/6 18/1/6
f 29/15/14 1/1/14 2/1/14
f 1/1/10 13/1/10 14/1/10
f 1/1/10 15/1/10 13/1/10
f 1/16/10 21/17/10 15/1/10
f 21/17/10 33/1/10 15/1/10
f 21/1/10 34/5/10 33/1/10
f 22/1/14 21/1/14 27/1/14
f 23/1/15 22/18/15 39/19/15
f 1/1/16 16/1/16 2/1/16
f 1/1/14 29/15/14 21/17/14
f 29/15/14 27/1/14 21/1/14
f 7/1/9 41/10/9 5/1/9
f 23/1/15 4/1/15 7/1/15
f 23/1/17 35/1/17 40/1/17
f 23/1/18 25/1/18 19/1/18
f 23/1/18 24/1/18 25/1/18
f 24/20/14 26/21/14 25/22/14
f 26/21/19 27/13/19 25/1/19
f 26/21/14 24/20/14 27/1/14
f 29/15/14 28/14/14 27/13/14
f 40/1/20 3/1/20 4/1/20
f 27/1/21 18/1/21 19/1/21
f 38/1/3 17/1/3 30/1/3
f 20/1/4 10/3/4 33/4/4
f 34/5/4 8/9/4 20/1/4
f 8/9/4 6/1/4 20/1/4
f 4/1/22 20/1/22 37/1/22
f 36/1/3 38/1/3 20/1/3
f 2/1/6 17/1/6 38/1/6
f 7/1/9 5/1/9 21/1/9
f 15/1/10 33/1/10 10/1/10
f 6/1/10 8/9/10 41/1/10
f 8/9/10 21/1/10 5/1/10
f 9/1/4 31/11/4 6/1/4
f 32/6/4 37/1/4 6/1/4
f 4/1/3 32/6/3 31/11/3
f 16/1/23 14/1/23 12/1/23
f 14/1/11 13/1/11 12/1/11
f 29/15/24 2/1/24 18/1/24
f 21/1/10 8/9/10 34/5/10
f 27/1/14 24/1/14 39/1/14
f 39/1/14 22/1/14 27/1/14
f 23/1/15 21/23/15 22/18/15
f 1/1/25 14/1/25 16/1/25
f 23/1/17 40/1/17 4/1/17
f 23/1/17 19/1/17 35/1/17
f 23/1/9 39/19/9 24/1/9
f 40/1/26 35/1/26 3/1/26
