# Blender 5.2.0 LTS
# www.blender.org
o new_ramp.003
v -36.191593 40.838570 2.699513
v -36.191589 34.919880 14.423592
v -25.881575 0.037452 28.059227
v -23.490601 48.123569 0.193442
v -23.521681 48.138348 8.622053
v -36.191593 -0.005562 0.231097
v -36.191593 40.838188 0.159428
v -36.191589 40.838547 2.645819
v -36.191589 34.323704 22.622889
v -36.191593 0.033607 22.622889
v -35.873959 34.323830 22.806274
v -26.135969 1.634915 28.428507
v -26.134521 0.038235 28.429340
v -27.038795 0.037825 27.907259
v -26.140587 12.593794 28.425838
v -35.763557 34.096783 22.870016
v -35.865166 34.323830 22.811354
v -27.935265 0.037404 27.389683
v -22.259865 0.030947 25.478949
v -22.259869 47.951294 7.995051
v -22.259869 40.956322 11.596889
v -22.259869 12.563046 26.297434
v -22.259865 8.293591 26.309557
v -22.259867 0.032423 26.324064
v -22.259865 48.122898 0.197978
v -22.259867 48.136192 7.781343
v -22.259867 48.136402 7.899737
v -22.259865 -0.013170 0.282405
v -36.191589 40.207890 0.160540
v -22.259865 8.024260 0.268312
v -36.191593 40.838505 2.232096
v -36.191589 17.326593 0.200703
v -31.951401 0.035555 25.070967
v -36.191589 10.167822 0.213261
v -36.191593 5.600918 0.221272
v -22.259867 33.523960 0.223575
v -22.259865 10.664563 0.263680
v -36.191593 27.369535 0.183086
v -22.259863 3.122544 0.276906
vn -0.0006 -1.0000 0.0017
vn 0.0006 1.0000 -0.0018
vn 0.0005 1.0000 -0.0018
vn 1.0000 -0.0000 -0.0000
vn 0.4422 0.4047 0.8004
vn 0.4809 0.0025 0.8768
vn 1.0000 -0.0001 -0.0002
vn 0.4540 0.4093 0.7914
vn 0.4522 0.4097 0.7922
vn -0.4997 0.0001 0.8662
vn -0.5000 -0.0000 0.8660
vn -0.4999 -0.0005 0.8661
vn 0.4774 0.0005 0.8787
vn 0.4801 0.0015 0.8772
vn -0.0006 -1.0000 0.0018
vn -1.0000 -0.0000 -0.0000
vn 0.4541 0.4079 0.7921
vn 0.0037 -0.0018 -1.0000
vn -0.4992 0.8665 -0.0001
vn -0.4991 0.8666 -0.0004
vn -1.0000 -0.0001 -0.0001
vn -0.5635 0.7832 0.2628
vn -0.0005 -1.0000 0.0018
vn -0.4979 0.8672 -0.0027
vn -0.0005 -1.0000 0.0017
vt 0.000000 0.000000
vt 0.500069 0.648003
vt 0.034085 0.036480
vt 0.570696 0.648003
vt 0.535518 0.575257
vt 0.584115 0.627690
vt 0.097194 0.104024
vt 0.584114 0.625162
vt 0.154884 0.193682
vt 0.169128 0.211494
vt 0.499988 0.625235
s 0
usemtl 
f 14/1/1 3/1/1 13/1/1
f 25/1/2 4/1/2 26/1/2
f 26/1/3 4/1/3 5/1/3 27/1/3
f 28/1/4 39/1/4 30/1/4 23/1/4 19/1/4
f 17/1/5 16/1/5 22/1/5
f 16/1/5 15/1/5 22/1/5
f 15/1/6 23/1/6 22/1/6
f 23/1/4 21/1/4 22/1/4
f 21/1/7 20/1/7 22/1/7
f 20/1/8 5/1/8 22/1/8
f 5/1/9 17/1/9 22/1/9
f 11/1/10 16/1/10 17/1/10
f 11/1/11 9/1/11 16/1/11
f 9/1/11 15/1/11 16/1/11
f 33/1/11 18/1/11 14/1/11 15/1/11
f 14/1/11 12/1/11 15/1/11
f 12/1/12 13/1/12 15/1/12
f 13/1/13 24/1/13 15/1/13
f 24/1/14 23/1/14 15/1/14
f 9/1/11 33/1/11 15/1/11
f 24/1/4 19/1/4 23/1/4
f 6/1/15 28/1/15 19/1/15 24/1/15 10/2/15
f 25/1/4 20/1/4 21/1/4 36/1/4
f 32/3/16 10/2/16 9/4/16 2/1/16
f 25/1/4 26/1/4 20/1/4
f 26/1/4 27/1/4 20/1/4
f 27/1/17 5/1/17 20/1/17
f 39/1/18 6/1/18 4/1/18 25/1/18 36/1/18 37/1/18 30/1/18
f 31/5/19 8/6/19 5/1/19
f 8/1/20 1/1/20 5/1/20
f 1/1/21 8/1/21 9/1/21
f 8/1/16 29/1/16 9/1/16
f 29/1/16 2/1/16 9/1/16
f 1/1/22 9/1/22 11/1/22 17/1/22 5/1/22
f 10/1/11 33/1/11 9/1/11
f 18/1/15 3/1/15 14/1/15
f 13/1/11 12/1/11 14/1/11
f 3/1/1 24/1/1 13/1/1
f 3/1/23 10/1/23 24/1/23
f 7/1/24 31/1/24 5/1/24 4/1/24
f 30/1/4 37/1/4 36/1/4 21/1/4 23/1/4
f 6/1/18 35/1/18 34/1/18 4/1/18
f 34/1/18 32/1/18 38/1/18 29/1/18 7/1/18 4/1/18
f 29/1/16 8/1/16 31/7/16 7/8/16
f 32/3/16 2/1/16 29/1/16 38/1/16
f 32/3/16 34/9/16 35/10/16 10/2/16
f 35/10/16 6/11/16 10/2/16
f 3/1/25 18/1/25 33/1/25 10/1/25
f 39/1/18 28/1/18 6/1/18
