# Blender 5.2.0 LTS
# www.blender.org
o new_ramp.012
v 0.095088 -0.025375 0.364731
v -22.095894 0.032356 26.324678
v -21.617569 0.032156 26.378424
v -17.021179 0.031752 27.586367
v 0.031117 0.005087 17.741217
v 0.121682 48.110729 0.280442
v -22.203299 -0.013201 0.282613
v -22.203300 6.373170 0.271410
v -22.203300 47.498932 8.242427
v -2.657405 48.145493 19.293440
v -3.679902 45.854897 19.883780
v -18.947226 13.245255 27.873985
v -18.531404 12.584032 28.458086
v -18.547623 0.034168 28.468065
v -22.203300 48.136391 7.912383
v -1.069071 48.143044 18.376415
v 0.057453 48.141312 17.726015
v -22.203299 48.136326 7.876410
v -22.203302 48.122871 0.198187
v -22.203300 47.126022 8.435501
v -21.374037 13.359108 26.401369
v -22.203302 12.623568 26.299068
v -22.203482 9.766776 26.307493
v -22.203119 0.032400 26.323967
v -3.386206 46.512833 19.714212
v -2.530080 48.145298 19.219927
v -22.203300 47.465118 8.259935
v -22.203302 13.010888 0.259774
v -22.203299 0.031624 25.894949
v -22.203302 15.916910 0.254676
vn 1.0000 -0.0005 0.0037
vn -0.4595 0.4084 0.7887
vn 0.0005 1.0000 -0.0017
vn 0.5000 -0.0000 0.8660
vn -0.0006 -1.0000 0.0018
vn 0.0037 -0.0018 -1.0000
vn -1.0000 -0.0000 -0.0000
vn -1.0000 0.0003 0.0009
vn -0.4595 0.4084 0.7888
vn -0.0005 -1.0000 0.0018
vn 0.0006 1.0000 -0.0018
vn -0.0006 -1.0000 0.0019
vn -1.0000 0.0017 0.0004
vn -1.0000 -0.0000 0.0001
vn -0.5059 0.0014 0.8626
vn -0.4593 0.4084 0.7888
vn -0.4595 0.4083 0.7888
vn -0.0004 -1.0000 -0.0000
vn -0.6271 0.2556 0.7358
vn 0.5002 -0.0000 0.8659
vn -0.0004 -1.0000 0.0018
vn -0.4358 0.0027 0.9000
vn -0.4594 0.4084 0.7888
vn -1.0000 0.0001 0.0001
vn -0.5061 0.0013 0.8625
vn -0.4591 0.4083 0.7890
vt 0.000000 0.000000
vt 0.002560 0.003051
vt 0.599146 0.608339
vt 0.599160 0.136920
vt 0.599156 0.138243
vt 0.271813 0.276759
vt 0.599118 0.600532
vt 0.443067 0.451087
vt 0.599164 0.135205
vt 0.172100 0.038792
vt 0.599146 0.608375
vt 0.520117 0.627079
vt 0.500067 0.627096
vt 0.585114 0.131963
vt 0.599165 0.135055
vt 0.526001 0.627071
s 0
usemtl 
f 6/1/1 5/1/1 1/1/1
f 20/2/2 25/1/2 10/1/2
f 18/3/3 16/1/3 17/1/3
f 16/4/4 11/1/4 17/5/4
f 11/1/4 5/1/4 17/5/4
f 7/1/5 5/1/5 3/1/5
f 30/1/6 19/1/6 6/1/6
f 1/1/6 7/1/6 6/1/6
f 8/1/6 28/1/6 6/1/6
f 27/6/7 30/1/7 28/1/7
f 27/6/7 18/3/7 19/7/7
f 9/8/8 18/3/8 27/6/8
f 16/4/4 26/9/4 25/10/4
f 15/11/9 9/8/9 10/1/9
f 21/1/9 25/1/9 20/2/9
f 4/1/4 5/1/4 13/1/4
f 23/12/7 28/1/7 8/1/7
f 4/1/10 3/1/10 5/1/10
f 18/3/11 6/1/11 19/7/11
f 2/1/12 29/1/12 3/1/12
f 8/1/13 29/1/13 24/1/13
f 24/13/7 23/12/7 8/1/7
f 29/1/10 7/1/10 3/1/10
f 5/1/4 11/1/4 13/1/4
f 23/12/14 20/2/14 27/6/14
f 14/1/15 23/12/15 24/13/15
f 12/1/16 11/1/16 25/1/16
f 21/1/17 22/1/17 12/1/17
f 24/13/18 2/1/18 3/1/18
f 13/1/19 12/1/19 23/12/19
f 26/14/3 15/1/3 10/15/3
f 14/1/20 4/1/20 13/1/20
f 14/1/5 3/1/5 4/1/5
f 14/1/5 24/13/5 3/1/5
f 24/1/21 29/1/21 2/1/21
f 12/1/22 22/16/22 23/12/22
f 22/1/2 21/1/2 20/2/2
f 23/12/7 27/6/7 28/1/7
f 6/1/1 17/5/1 5/1/1
f 10/1/23 9/8/23 27/6/23
f 27/6/2 20/2/2 10/1/2
f 18/3/3 26/1/3 16/1/3
f 7/1/5 1/1/5 5/1/5
f 6/1/6 7/1/6 8/1/6
f 28/1/6 30/1/6 6/1/6
f 27/6/7 19/1/7 30/1/7
f 9/8/7 15/11/7 18/3/7
f 25/10/4 11/1/4 16/4/4
f 26/9/4 10/15/4 25/10/4
f 21/1/2 12/1/2 25/1/2
f 18/3/11 17/1/11 6/1/11
f 8/1/7 7/1/7 29/1/7
f 23/12/24 22/16/24 20/2/24
f 14/1/25 13/1/25 23/12/25
f 12/1/26 13/1/26 11/1/26
f 26/14/3 18/3/3 15/1/3
