# Blender 5.2.0 LTS
# www.blender.org
o new_ramp.005
v -36.248161 34.518925 42.946510
v -36.248154 0.069245 42.946503
v -36.248154 40.872520 58.579628
v -36.248154 40.872589 59.088730
v -36.248154 40.872921 61.119743
v -62.565048 52.185524 61.003036
v -68.755890 52.150814 60.980293
v -71.171669 51.760811 58.425026
v -72.761215 51.373890 60.966911
v -74.160019 50.770317 58.421722
v -113.976814 31.887882 58.308296
v -36.248169 0.101214 61.191277
v -113.976814 0.143656 60.905006
v -113.976822 0.112210 42.946495
v -113.976830 6.900551 42.946510
v -72.810699 35.922092 42.946526
v -62.502205 38.154465 42.946495
v -68.286964 38.052776 42.946342
v -58.933964 37.659309 42.946503
v -113.976830 31.893847 60.849281
v -44.436718 44.392387 58.543358
v -62.555634 52.181057 58.462990
v -68.555458 52.160625 58.436218
v -36.248165 32.815567 61.133774
vn -0.1904 0.9812 0.0303
vn -0.0034 1.0000 -0.0018
vn -0.3141 0.9479 -0.0522
vn -0.1510 0.9885 -0.0081
vn -0.0000 -0.0000 -1.0000
vn -0.0006 -1.0000 0.0018
vn -0.3464 0.4913 -0.7992
vn -0.0001 0.0002 -1.0000
vn -0.0000 0.0002 -1.0000
vn -0.4285 0.9035 -0.0021
vn 0.3949 0.9187 -0.0002
vn -1.0000 -0.0000 -0.0000
vn -0.0130 0.7391 -0.6734
vn -0.3161 0.6706 -0.6711
vn -0.3161 0.6710 -0.6708
vn 1.0000 -0.0000 -0.0000
vn 0.1024 0.7381 -0.6669
vn 0.3713 0.8602 -0.3496
vn -0.0037 0.0018 1.0000
vn -0.0037 0.0017 1.0000
vn 0.3158 0.7284 -0.6080
vn -0.1093 0.7339 -0.6704
vn 0.3949 0.9187 -0.0003
vn 0.3949 0.9187 -0.0001
vn 0.1199 0.8661 -0.4853
vn 0.0005 0.7418 -0.6706
vn -0.4273 0.9039 0.0205
vn -0.2333 0.7060 -0.6687
vn -0.0056 1.0000 0.0034
vt 0.000000 0.000000
vt 0.514213 0.124971
vt 0.104175 0.014258
vt 0.500231 0.124971
vt 0.418883 0.572584
vt 0.203432 0.028856
vt 0.591630 0.074274
vt 0.571097 0.045938
vt 0.565691 0.686871
vt 0.500298 0.686930
vt 0.565699 0.686881
vt 0.578587 0.072633
vt 0.488500 0.065936
vt 0.576574 0.080581
vt 0.584185 0.062854
vt 0.486099 0.053472
vt 0.000000 0.000000
vt 0.500208 0.062782
vt 0.500143 0.045938
s 0
usemtl 
f 9/1/1 7/1/1 8/1/1
f 23/1/2 6/1/2 22/1/2
f 10/1/3 9/1/3 8/1/3
f 8/1/4 7/1/4 23/1/4
f 15/2/5 18/3/5 14/4/5
f 13/5/6 14/1/6 12/1/6
f 11/1/7 16/6/7 15/2/7
f 16/6/8 18/3/8 15/2/8
f 17/7/9 19/1/9 18/3/9
f 19/1/9 1/8/9 18/3/9
f 18/3/5 1/8/5 2/1/5
f 10/1/10 11/1/10 20/9/10
f 4/1/11 22/1/11 6/1/11
f 20/9/12 15/2/12 13/10/12
f 20/11/12 11/1/12 15/2/12
f 17/12/13 18/13/13 23/1/13
f 10/1/14 18/3/14 11/1/14
f 18/14/15 16/6/15 11/1/15
f 1/8/16 4/1/16 12/1/16
f 17/7/17 22/1/17 19/1/17
f 21/1/18 3/1/18 1/1/18
f 3/1/16 4/1/16 1/1/16
f 5/15/16 24/16/16 4/1/16
f 6/1/19 20/17/19 5/1/19
f 20/17/20 24/1/20 5/1/20
f 6/1/19 9/1/19 20/17/19
f 19/1/21 22/1/21 21/1/21
f 12/18/19 24/1/19 20/17/19
f 8/1/22 23/1/22 18/13/22
f 4/1/23 21/1/23 22/1/23
f 4/1/24 3/1/24 21/1/24
f 7/1/19 9/1/19 6/1/19
f 12/18/19 20/17/19 13/1/19
f 14/1/6 2/1/6 12/1/6
f 15/2/12 14/1/12 13/5/12
f 19/1/25 21/1/25 1/1/25
f 1/8/16 12/1/16 2/19/16
f 4/1/16 24/1/16 12/1/16
f 17/12/26 23/1/26 22/1/26
f 4/1/24 6/1/24 5/1/24
f 10/1/27 20/9/27 9/1/27
f 18/3/28 10/1/28 8/1/28
f 18/3/5 2/1/5 14/4/5
f 23/1/29 7/1/29 6/1/29
