# Blender 5.2.0 LTS
# www.blender.org
o new_ramp.004
v -69.632668 37.476337 42.889961
v -67.585236 38.141651 42.889969
v -62.484947 38.132736 42.889915
v -71.849556 36.399250 42.889954
v -73.942093 35.134651 42.889954
v -73.935425 35.190418 17.758415
v -71.801704 36.500839 17.758406
v -70.009483 37.387207 17.758415
v -68.751526 37.891361 17.758415
v -36.248150 34.515423 42.889923
v -36.248154 0.069147 42.889946
v -36.248177 34.566544 17.758429
v -62.347782 38.276913 17.758396
v -67.493362 38.273567 17.758413
v -113.976830 0.112118 42.889946
v -113.976830 6.871949 42.889946
v -113.976830 6.920426 17.758419
v -113.976822 0.068112 17.758413
v -36.248161 0.025136 17.758415
vn 0.0017 1.0000 0.0053
vn -0.0000 -0.0000 -1.0000
vn -0.0000 -0.0000 1.0000
vn -0.3720 0.9282 0.0023
vn -0.5767 0.8169 0.0017
vn -0.5233 0.8521 0.0018
vn -0.0006 -1.0000 0.0018
vn -1.0000 -0.0000 -0.0000
vn 0.1407 0.9900 0.0020
vn 0.1366 0.9906 0.0064
vn -0.4370 0.8995 0.0028
vn -0.0000 0.0001 -1.0000
vn -0.2907 0.9568 0.0040
vn -0.0007 1.0000 0.0057
vn 1.0000 -0.0000 -0.0000
vn -0.5768 0.8169 0.0016
vn -0.5172 0.8559 0.0025
vn -0.4433 0.8964 0.0035
vn -0.3090 0.9510 0.0049
vt 0.000000 0.000000
vt 0.578831 0.077708
vt 0.507257 0.074499
vt 0.514254 0.643056
vt 0.013162 0.001586
vt 0.500140 0.124971
vt -0.000000 -0.000000
vt 0.523423 0.612830
vt 0.571092 0.704063
vt 0.500142 0.704062
vt 0.577006 0.080266
vt 0.575147 0.082079
vt 0.571194 0.045938
vt 0.500052 0.045938
vt 0.578560 0.672199
vt 0.514152 0.625027
vt 0.518107 0.602586
vt 0.500231 0.668610
vt 0.565662 0.070891
vt 0.576753 0.669645
vt 0.574954 0.667868
vt 0.500140 0.643057
vt 0.577771 0.670919
s 0
usemtl 
f 3/1/1 14/2/1 2/1/1
f 6/3/2 7/1/2 17/4/2
f 7/1/2 13/5/2 17/4/2
f 17/4/2 13/5/2 18/6/2
f 13/5/2 19/1/2 18/6/2
f 11/7/3 16/1/3 15/1/3
f 3/8/3 1/1/3 16/1/3
f 1/1/3 5/1/3 16/1/3
f 10/9/3 3/8/3 11/10/3
f 3/8/3 16/1/3 11/7/3
f 8/11/4 1/1/4 9/1/4
f 8/11/2 13/5/2 7/12/2
f 12/13/2 19/14/2 13/5/2
f 3/1/3 2/15/3 1/1/3
f 6/3/5 16/16/5 5/17/5
f 5/17/6 7/12/6 6/3/6
f 1/1/3 4/1/3 5/1/3
f 19/14/7 11/1/7 15/1/7
f 17/4/8 15/18/8 16/16/8
f 12/13/9 13/19/9 10/1/9
f 13/19/10 3/8/10 10/9/10
f 1/20/11 7/12/11 4/21/11
f 9/1/12 14/1/12 8/11/12
f 14/2/2 13/19/2 8/11/2
f 9/1/13 2/15/13 14/1/13
f 3/1/14 13/19/14 14/2/14
f 11/7/15 19/14/15 10/9/15
f 19/14/15 12/13/15 10/9/15
f 6/3/16 17/4/16 16/16/16
f 5/17/17 4/21/17 7/12/17
f 18/6/7 19/14/7 15/1/7
f 17/4/8 18/22/8 15/18/8
f 1/20/18 8/11/18 7/12/18
f 9/1/19 1/23/19 2/15/19
