# Blender 5.2.0 LTS
# www.blender.org
o new_ramp.011
v -0.129334 0.081490 61.324188
v -22.203299 45.144405 61.163925
v -22.203300 6.645045 61.231422
v -22.203300 0.093545 61.242905
v -16.670282 0.042714 33.958832
v -16.163551 0.042914 34.251396
v -18.552601 0.042218 33.067886
v -17.965433 0.042110 33.211075
v -18.824146 0.042998 33.465240
v -21.649891 0.047542 35.151253
v -0.063887 0.050323 43.546539
v -0.102741 48.217594 61.239899
v -0.037659 48.186607 43.561684
v -2.627899 48.185356 42.066208
v -2.633062 48.185501 42.144653
v -2.632764 48.185356 42.063400
v -3.094304 47.147583 41.796921
v -18.473652 12.567120 32.917648
v -22.203302 43.702118 51.040451
v -22.203302 12.674114 35.181335
v -22.203300 0.047935 35.201248
v -22.203304 48.215988 53.347595
v -22.203302 48.227222 59.789955
v -22.203300 48.229622 61.158524
v -18.472576 0.041892 32.918274
v -5.363267 42.045815 40.486938
v -22.203299 0.048752 35.672195
v -22.203297 10.637056 61.224419
v -22.203304 8.029943 61.228989
v -22.203304 9.018774 61.227257
v -22.203299 18.502720 61.210632
v -22.203302 0.091148 59.875610
v -22.203300 0.092669 60.743797
v -22.203302 0.093011 60.938812
vn -0.0006 -1.0000 0.0018
vn 0.0005 1.0000 -0.0017
vn 1.0000 -0.0005 0.0037
vn 0.0005 1.0000 -0.0018
vn -0.0037 0.0018 1.0000
vn 0.0006 1.0000 -0.0018
vn -0.5204 -0.0007 -0.8539
vn 0.5000 -0.0000 -0.8660
vn -1.0000 -0.0000 -0.0000
vn 0.0008 1.0000 -0.0015
vn -0.4560 0.4061 -0.7919
vn -0.4665 0.4026 -0.7876
vn -0.0005 -1.0000 0.0017
vn 0.4994 0.0001 -0.8664
vn -0.0004 -1.0000 0.0020
vn -0.0006 -1.0000 0.0017
vn -1.0000 -0.0000 0.0001
vn -0.0005 -1.0000 0.0018
vn -0.0007 -1.0000 0.0015
vn -0.0006 -1.0000 0.0016
vn 0.8338 0.0151 -0.5519
vt 0.000000 0.000000
vt 0.599333 0.661124
vt 0.599338 0.662515
vt 0.599310 0.654573
vt 0.525884 0.133514
vt 0.599247 0.114910
vt 0.599249 0.111869
vt 0.599247 0.114916
vt 0.597109 0.115458
vt 0.586601 0.118122
s 0
usemtl 
f 6/1/1 11/1/1 1/1/1
f 14/1/2 15/1/2 12/1/2 13/1/2
f 11/1/3 13/1/3 12/1/3 1/1/3
f 10/1/1 9/1/1 1/1/1 33/1/1
f 23/2/4 24/3/4 12/1/4
f 24/1/5 2/1/5 12/1/5
f 22/4/6 23/2/6 12/1/6 15/1/6
f 25/1/7 21/1/7 20/1/7 18/5/7
f 17/1/8 14/6/8 13/7/8
f 11/1/8 17/1/8 13/7/8
f 14/1/4 22/1/4 15/1/4
f 20/1/9 21/1/9 22/1/9 19/1/9
f 21/1/9 31/1/9 22/1/9
f 31/1/9 2/1/9 22/1/9
f 2/1/9 23/2/9 22/4/9
f 14/6/10 16/8/10 22/1/10
f 16/8/11 17/9/11 22/1/11
f 17/9/11 26/1/11 22/1/11
f 26/10/11 18/5/11 22/1/11
f 18/5/12 19/1/12 22/1/12
f 2/1/9 24/1/9 23/2/9
f 3/1/9 34/1/9 4/1/9
f 33/1/1 1/1/1 4/1/1 34/1/1
f 9/1/13 6/1/13 1/1/13
f 6/1/8 18/1/8 11/1/8
f 18/1/8 26/1/8 17/1/8 11/1/8
f 16/8/14 14/6/14 17/1/14
f 18/5/12 20/1/12 19/1/12
f 4/1/5 1/1/5 12/1/5 2/1/5 31/1/5 28/1/5 30/1/5 29/1/5
f 25/1/15 7/1/15 21/1/15
f 7/1/16 10/1/16 21/1/16
f 10/1/16 27/1/16 21/1/16
f 32/1/9 29/1/9 21/1/9 27/1/9
f 29/1/9 30/1/9 28/1/9 31/1/9 21/1/9
f 6/1/8 5/1/8 18/1/8
f 5/1/8 8/1/8 25/1/8 18/5/8
f 32/1/9 33/1/9 34/1/9 29/1/9
f 34/1/17 3/1/17 29/1/17
f 27/1/18 10/1/18 33/1/18 32/1/18
f 7/1/19 9/1/19 10/1/19
f 8/1/13 5/1/13 6/1/13 9/1/13
f 7/1/20 8/1/20 9/1/20
f 8/1/1 7/1/1 25/1/1
f 29/1/21 3/1/21 4/1/21
