# https://github.com/mikedh/trimesh
v -0.00878172 -0.04961369 0.01663250
v 0.00719640 -0.05409423 -0.01346150
v 0.00714027 -0.04840545 -0.01886107
v -0.03494533 -0.04837557 -0.01927423
v -0.03446440 -0.05342894 0.01178311
v -0.00921797 -0.05261826 -0.01721176
v -0.01404537 -0.04823709 0.01740452
v -0.01039423 -0.05462697 0.00845826
v 0.00731077 -0.05173194 -0.01746489
v -0.03333833 -0.05354833 -0.01339581
v -0.03477785 -0.05023524 0.01590353
v -0.00894912 -0.05259877 0.01421893
v 0.00726252 -0.05342435 -0.01545234
v -0.01157667 -0.05064930 -0.01837695
v -0.03477778 -0.05253361 -0.01563762
v -0.02241176 -0.05455392 -0.01328954
v -0.01765812 -0.04939781 0.01713271
v -0.03503355 -0.04847662 0.01676640
v -0.00897332 -0.05364974 0.01206572
v -0.03485647 -0.05245439 0.01399800
v -0.03472981 -0.05023028 -0.01860317
v 0.00716486 -0.04953553 -0.01860318
v -0.03441690 -0.05333692 0.00534842
v -0.00273178 -0.05474092 -0.00620844
v -0.02641046 -0.05470083 0.00960310
v -0.00927765 -0.05463267 -0.01328237
v -0.02978352 -0.05337421 -0.01552490
v -0.01395381 -0.04949063 0.01699630
v -0.03484421 -0.05101377 -0.01762726
v -0.01764740 -0.04844638 0.01728790
v -0.01634758 -0.05137132 0.01584623
v -0.01627371 -0.05244203 -0.01732576
v -0.02625836 -0.05463077 -0.01215108
v -0.01283332 -0.05459028 0.00956331
v -0.03355680 -0.05336531 0.01272392
v -0.00278287 -0.05469640 -0.00977757
v -0.01512052 -0.05351346 -0.01620052
v -0.03235476 -0.05343358 -0.01444328
v -0.03348354 -0.05224055 -0.01636724
v -0.01400377 -0.05122981 0.01591136
v -0.01024060 -0.05338437 0.01286513
v -0.00662296 -0.05467290 -0.01231317
v -0.00937018 -0.05332976 -0.01636740
vn 0.54201168 0.22968882 0.80837268
vn 0.80438089 -0.57971622 0.13000185
vn 0.61653704 0.54660041 -0.56666575
vn -0.57262575 0.46304625 -0.67652637
vn -0.59018013 -0.80142752 0.09696058
vn 0.01477461 -0.64455122 -0.76441836
vn 0.09518129 0.59425457 0.79862508
vn 0.10631178 -0.98708321 0.11985218
vn 0.71535160 -0.42573425 -0.55409605
vn -0.32227325 -0.94033000 -0.10917619
vn -0.46939353 -0.50515138 0.72421806
vn 0.40041033 -0.70688148 0.58308674
vn 0.69087620 -0.63805880 -0.33995741
vn 0.00542221 -0.41024093 -0.91196106
vn -0.71521330 -0.63505917 -0.29183864
vn -0.01998418 -0.96939423 -0.24469462
vn -0.01929112 -0.37079392 0.92851479
vn -0.58862680 0.42611698 0.68698093
vn 0.28813150 -0.89648878 0.33658299
vn -0.67671747 -0.59028771 0.44001578
vn -0.51951661 -0.48164934 -0.70577362
vn 0.62798978 -0.24436677 -0.73885974
vn -0.58283932 -0.81242964 -0.01601262
vn 0.05680376 -0.99807805 0.02476967
vn -0.05041933 -0.98354328 0.17349500
vn 0.00754521 -0.97670825 -0.21443896
vn -0.07217513 -0.87040922 -0.48700979
vn 0.03872665 -0.42078368 0.90633401
vn -0.73365071 -0.53386027 -0.42041628
vn -0.02788769 -0.10265829 0.99432568
vn -0.00598994 -0.69113509 0.72270078
vn -0.01562517 -0.63244251 -0.77444969
vn -0.07447455 -0.98934654 -0.12508785
vn 0.02190290 -0.98011646 0.19721054
vn -0.11450931 -0.91570208 0.38519778
vn 0.03035502 -0.99906025 -0.03093832
vn -0.01015017 -0.84884411 -0.52854578
vn -0.13997720 -0.94343974 -0.30054590
vn -0.11905734 -0.79211579 -0.59864675
vn 0.03439453 -0.63628324 0.77068843
vn 0.02340140 -0.90578123 0.42309898
vn 0.01651308 -0.99758890 -0.06740700
vn 0.01745010 -0.84529739 -0.53401107
f 1//1 2//2 3//3
f 7//7 1//1 3//3
f 7//7 3//3 4//4
f 9//9 3//3 2//2
f 12//12 2//2 1//1
f 13//13 9//9 2//2
f 13//13 6//6 9//9
f 14//14 9//9 6//6
f 18//18 7//7 4//4
f 18//18 11//11 17//17
f 19//19 8//8 2//2
f 19//19 2//2 12//12
f 20//20 11//11 18//18
f 20//20 15//15 5//5
f 21//21 4//4 14//14
f 22//22 14//14 4//4
f 22//22 4//4 3//3
f 22//22 3//3 9//9
f 22//22 9//9 14//14
f 23//23 15//15 10//10
f 23//23 10//10 5//5
f 23//23 5//5 15//15
f 24//24 2//2 8//8
f 25//25 5//5 10//10
f 25//25 24//24 8//8
f 26//26 13//13 2//2
f 28//28 1//1 7//7
f 28//28 7//7 17//17
f 29//29 18//18 4//4
f 29//29 20//20 18//18
f 29//29 15//15 20//20
f 29//29 4//4 21//21
f 30//30 18//18 17//17
f 30//30 17//17 7//7
f 30//30 7//7 18//18
f 31//31 17//17 11//11
f 31//31 11//11 20//20
f 32//32 21//21 14//14
f 32//32 14//14 6//6
f 32//32 27//27 21//21
f 33//33 25//25 10//10
f 33//33 24//24 25//25
f 33//33 16//16 26//26
f 33//33 27//27 16//16
f 34//34 25//25 8//8
f 34//34 8//8 19//19
f 35//35 20//20 5//5
f 35//35 5//5 25//25
f 35//35 31//31 20//20
f 35//35 12//12 31//31
f 36//36 2//2 24//24
f 37//37 13//13 26//26
f 37//37 26//26 16//16
f 37//37 16//16 27//27
f 37//37 32//32 6//6
f 37//37 27//27 32//32
f 38//38 10//10 15//15
f 38//38 15//15 27//27
f 38//38 33//33 10//10
f 38//38 27//27 33//33
f 39//39 27//27 15//15
f 39//39 15//15 29//29
f 39//39 29//29 21//21
f 39//39 21//21 27//27
f 40//40 28//28 17//17
f 40//40 17//17 31//31
f 40//40 1//1 28//28
f 40//40 31//31 12//12
f 40//40 12//12 1//1
f 41//41 34//34 19//19
f 41//41 25//25 34//34
f 41//41 35//35 25//25
f 41//41 19//19 12//12
f 41//41 12//12 35//35
f 42//42 26//26 2//2
f 42//42 2//2 36//36
f 42//42 33//33 26//26
f 42//42 36//36 24//24
f 42//42 24//24 33//33
f 43//43 37//37 6//6
f 43//43 6//6 13//13
f 43//43 13//13 37//37

