# https://github.com/mikedh/trimesh
v -0.02781250 0.05380318 0.02355307
v -0.02141379 0.04704097 0.01263697
v -0.02795451 0.06165033 -0.01461304
v -0.04858947 0.05350362 -0.02228716
v -0.04964912 0.02871586 0.01287963
v -0.02803666 0.03926819 -0.01684381
v -0.04803850 0.05999499 0.01407668
v -0.02270672 0.05979178 0.00957402
v -0.02791474 0.04310013 0.02070595
v -0.02271916 0.05401965 -0.01397697
v -0.04975679 0.03030032 -0.01870297
v -0.04672105 0.06019946 -0.01307885
v -0.04935733 0.03936287 0.02540878
v -0.02272423 0.05520432 0.01829651
v -0.03007136 0.06178538 0.01895768
v -0.02417874 0.04174204 0.01256104
v -0.02287036 0.04400569 -0.01138137
v -0.02120238 0.05688395 0.00251166
v -0.02822054 0.05407725 -0.02229772
v -0.04967851 0.02714173 -0.01297598
v -0.03779774 0.06013200 -0.01840449
v -0.04818586 0.05876987 -0.01742171
v -0.03066671 0.04584939 0.02351315
v -0.04981160 0.03206489 0.02021056
v -0.04862138 0.05345777 0.02382514
v -0.02431464 0.04874007 0.02098342
v -0.02391703 0.05895930 0.01809078
v -0.02527774 0.06191144 0.00784437
v -0.04083469 0.06185278 0.01150742
v -0.02680406 0.04065807 0.01572439
v -0.02567746 0.03872646 -0.00882575
v -0.02261593 0.04309252 0.00700665
v -0.02106731 0.04834973 -0.00681567
v -0.02125116 0.05405334 0.01434441
v -0.02399633 0.05910931 -0.01082875
v -0.02575068 0.05945602 -0.01684241
v -0.04928866 0.03631563 -0.02258444
v -0.02577398 0.04539780 -0.01967541
v -0.03479495 0.06178952 -0.01445441
v -0.03172061 0.05633551 -0.02226488
v -0.04807645 0.06012545 0.00852191
v -0.04241413 0.05757886 -0.02073482
v -0.04966333 0.03653857 0.02409834
v -0.03660613 0.04986924 0.02528472
v -0.04977147 0.03029616 0.01723063
v -0.04828400 0.05705892 0.02145239
v -0.03373769 0.05803229 0.02362298
v -0.02288879 0.04581525 0.01689193
v -0.02389989 0.05529034 0.02065618
v -0.02803351 0.04852563 0.02344544
v -0.02390114 0.06021265 0.01513525
v -0.03759124 0.06170785 0.01705712
v -0.02565840 0.03895687 -0.01246217
v -0.04960538 0.02717803 0.00065649
v -0.02820814 0.03768612 -0.00451599
v -0.02266692 0.04327304 0.01117516
v -0.02280930 0.04541147 -0.01252041
v -0.02133039 0.05384387 -0.00687658
v -0.02118363 0.04716009 -0.00550530
v -0.02117457 0.04989222 0.01415755
v -0.02128167 0.05669912 0.00969861
v -0.02290275 0.05817828 0.01663743
v -0.02249244 0.05907182 -0.00210598
v -0.02430275 0.05402256 -0.01814381
vn 0.38241005 0.19933226 0.90223567
vn 0.96385252 -0.23850526 0.11875839
vn 0.28148830 0.91858671 -0.27742169
vn -0.66332629 0.25026720 -0.70524078
vn -0.46056403 -0.86704182 0.19005065
vn 0.50316318 -0.65097566 -0.56838148
vn -0.71887988 0.68299712 0.12933158
vn 0.78437505 0.61803188 0.05284304
vn 0.49014374 -0.59185362 0.63989718
vn 0.94784448 0.15328493 -0.27945406
vn -0.53731631 -0.62232612 -0.56921120
vn -0.37644433 0.92051897 -0.10456808
vn -0.55796570 -0.16648898 0.81299182
vn 0.91201297 0.12290522 0.39131401
vn 0.17055732 0.88340207 0.43647565
vn 0.66300837 -0.72398196 0.19044690
vn 0.91110015 -0.36352234 -0.19428851
vn 0.96637269 0.25650490 -0.01814014
vn 0.40921543 0.16187059 -0.89796472
vn -0.47362138 -0.85771048 -0.20003881
vn -0.05551569 0.85414295 -0.51706655
vn -0.70007183 0.63868617 -0.31934216
vn 0.27888108 -0.34652470 0.89562602
vn -0.54529992 -0.65246608 0.52624709
vn -0.69146931 0.26719014 0.67117778
vn 0.73463749 -0.19779617 0.64898724
vn 0.62634534 0.59001317 0.50948599
vn 0.34882840 0.93712988 0.01031205
vn -0.13109188 0.99048279 0.04193770
vn 0.53902111 -0.77850616 0.32153444
vn 0.66989984 -0.74239367 -0.00926558
vn 0.86939041 -0.49372259 0.01995774
vn 0.98896902 -0.08152036 -0.12367176
vn 0.97681454 0.10695924 0.18545372
vn 0.79580678 0.58459604 -0.15792097
vn 0.60232860 0.63677657 -0.48136874
vn -0.54740278 -0.26879644 -0.79252676
vn 0.63636201 -0.28639637 -0.71625450
vn -0.04614963 0.97983216 -0.19442001
vn 0.10610298 0.45256583 -0.88539614
vn -0.75569572 0.65492088 0.00161887
vn -0.12966807 0.64901121 -0.74964701
vn -0.58597701 -0.43422706 0.68416212
vn 0.06977756 0.02579397 0.99722904
vn -0.51869562 -0.77630847 0.35818990
vn -0.68602126 0.57207877 0.44955612
vn 0.05797474 0.54473744 0.83660030
vn 0.83038085 -0.38837141 0.39954385
vn 0.69322691 0.25029815 0.67586040
vn 0.40136824 -0.18691331 0.89664204
vn 0.61334821 0.76414265 0.19972478
vn -0.11904005 0.95067591 0.28643462
vn 0.69913179 -0.68187514 -0.21508377
vn -0.47528622 -0.87773467 0.06070301
vn 0.47116775 -0.87881821 0.07536254
vn 0.85408058 -0.50849084 0.10946885
vn 0.93145918 -0.19055564 -0.30995539
vn 0.97568952 0.17808384 -0.12773451
vn 0.96631453 -0.25481830 -0.03610893
vn 0.97574114 -0.07268681 0.20650874
vn 0.96809826 0.24422559 0.05603232
vn 0.87994821 0.39216368 0.26813951
vn 0.79603646 0.59742223 -0.09701870
vn 0.84347820 0.14195117 -0.51806794
f 20//20 11//11 6//6
f 25//25 22//22 4//4
f 29//29 15//15 28//28
f 36//36 35//35 10//10
f 36//36 3//3 35//35
f 37//37 11//11 4//4
f 37//37 6//6 11//11
f 38//38 37//37 19//19
f 38//38 6//6 37//37
f 39//39 3//3 21//21
f 39//39 12//12 29//29
f 39//39 29//29 28//28
f 39//39 28//28 3//3
f 39//39 22//22 12//12
f 39//39 21//21 22//22
f 40//40 37//37 4//4
f 40//40 19//19 37//37
f 40//40 36//36 19//19
f 40//40 21//21 3//3
f 40//40 3//3 36//36
f 41//41 12//12 22//22
f 41//41 29//29 12//12
f 41//41 7//7 29//29
f 41//41 22//22 25//25
f 42//42 22//22 21//21
f 42//42 4//4 22//22
f 42//42 40//40 4//4
f 42//42 21//21 40//40
f 43//43 23//23 13//13
f 43//43 9//9 23//23
f 43//43 24//24 9//9
f 43//43 13//13 25//25
f 43//43 25//25 4//4
f 43//43 4//4 11//11
f 43//43 11//11 24//24
f 44//44 13//13 23//23
f 44//44 25//25 13//13
f 45//45 5//5 30//30
f 45//45 30//30 9//9
f 45//45 9//9 24//24
f 45//45 24//24 11//11
f 45//45 11//11 20//20
f 46//46 41//41 25//25
f 46//46 7//7 41//41
f 47//47 46//46 25//25
f 47//47 15//15 46//46
f 47//47 27//27 15//15
f 47//47 44//44 1//1
f 47//47 25//25 44//44
f 48//48 26//26 9//9
f 48//48 30//30 16//16
f 48//48 9//9 30//30
f 49//49 26//26 14//14
f 49//49 1//1 26//26
f 49//49 47//47 1//1
f 49//49 27//27 47//47
f 50//50 23//23 9//9
f 50//50 9//9 26//26
f 50//50 26//26 1//1
f 50//50 44//44 23//23
f 50//50 1//1 44//44
f 51//51 8//8 28//28
f 51//51 28//28 15//15
f 51//51 15//15 27//27
f 52//52 29//29 7//7
f 52//52 15//15 29//29
f 52//52 46//46 15//15
f 52//52 7//7 46//46
f 53//53 32//32 31//31
f 53//53 17//17 32//32
f 53//53 38//38 17//17
f 53//53 6//6 38//38
f 53//53 31//31 20//20
f 53//53 20//20 6//6
f 54//54 20//20 31//31
f 54//54 45//45 20//20
f 54//54 5//5 45//45
f 54//54 30//30 5//5
f 55//55 31//31 16//16
f 55//55 16//16 30//30
f 55//55 54//54 31//31
f 55//55 30//30 54//54
f 56//56 32//32 2//2
f 56//56 16//16 31//31
f 56//56 31//31 32//32
f 56//56 48//48 16//16
f 56//56 2//2 48//48
f 57//57 33//33 17//17
f 57//57 10//10 33//33
f 57//57 17//17 38//38
f 58//58 33//33 10//10
f 58//58 18//18 33//33
f 58//58 10//10 35//35
f 59//59 32//32 17//17
f 59//59 17//17 33//33
f 59//59 2//2 32//32
f 60//60 33//33 18//18
f 60//60 18//18 34//34
f 60//60 59//59 33//33
f 60//60 2//2 59//59
f 60//60 48//48 2//2
f 60//60 34//34 14//14
f 60//60 14//14 26//26
f 60//60 26//26 48//48
f 61//61 34//34 18//18
f 61//61 18//18 8//8
f 62//62 14//14 34//34
f 62//62 49//49 14//14
f 62//62 27//27 49//49
f 62//62 34//34 61//61
f 62//62 51//51 27//27
f 62//62 61//61 8//8
f 62//62 8//8 51//51
f 63//63 8//8 18//18
f 63//63 58//58 35//35
f 63//63 18//18 58//58
f 63//63 28//28 8//8
f 63//63 35//35 3//3
f 63//63 3//3 28//28
f 64//64 36//36 10//10
f 64//64 19//19 36//36
f 64//64 38//38 19//19
f 64//64 57//57 38//38
f 64//64 10//10 57//57

