# https://github.com/mikedh/trimesh
v -0.03553067 0.05138071 0.02038291
v -0.02446706 0.04935285 0.01152427
v -0.02882895 0.05876404 -0.00789785
v -0.04639862 0.05222472 -0.01768517
v -0.04724217 0.03112606 -0.00183905
v -0.04614061 0.05745997 0.01044994
v -0.03001149 0.05876156 0.01505675
v -0.04711651 0.03600157 0.01727804
v -0.02816191 0.04240824 -0.01337953
v -0.04504393 0.05735272 -0.01130207
v -0.02795373 0.05338622 0.01777133
v -0.02578575 0.05688189 0.00903839
v -0.04641247 0.05502424 0.01717206
v -0.04034988 0.05888672 0.01027185
v -0.02868491 0.04178764 0.01134397
v -0.02437856 0.05131448 -0.00526632
v -0.04709248 0.03613443 -0.01677888
v -0.03113312 0.05455754 -0.01772512
v -0.04615812 0.05646949 -0.01369603
v -0.03455596 0.05591779 0.01905904
v -0.03012164 0.04377881 0.01688113
v -0.02776051 0.05869968 0.00811618
v -0.02569801 0.05351737 0.01486583
v -0.04712938 0.04089964 0.02060159
v -0.03638713 0.05864897 0.01512857
v -0.04601217 0.05742825 0.00577155
v -0.03782741 0.05882489 -0.01040445
v -0.04730845 0.03231248 0.01037089
v -0.02579185 0.04365902 0.00691070
v -0.02980914 0.03941275 -0.00911106
v -0.02441555 0.05396704 0.00902891
v -0.02556822 0.05667925 -0.00156541
v -0.02826653 0.05369896 -0.01575855
v -0.04695082 0.03838178 -0.01781689
v -0.04017228 0.05623440 -0.01582426
v -0.03121861 0.05679384 0.01779511
v -0.02982112 0.05329641 0.01883194
v -0.04653689 0.05219054 0.01922261
v -0.02580123 0.04616245 0.01377517
v -0.02760898 0.05873490 0.00212205
v -0.02663069 0.05748729 0.01244591
v -0.03208459 0.04602700 0.01899864
v -0.04717649 0.03869424 0.01935563
v -0.04732532 0.03378656 -0.01495342
v -0.03889716 0.05879516 0.01270866
v -0.03755797 0.05737468 0.01703613
v -0.03419464 0.05883049 -0.01242378
v -0.03892806 0.05883388 -0.00677853
v -0.04362644 0.05737652 -0.01254051
v -0.03010411 0.03939986 -0.00453652
v -0.04741008 0.03359302 0.01387775
v -0.02450627 0.04801863 -0.00528808
v -0.02697112 0.04243767 -0.00993221
v -0.02435152 0.05035736 0.01142463
v -0.02455993 0.05362087 -0.00163189
v -0.02990687 0.04394134 -0.01662418
v -0.02916706 0.05787225 -0.01369183
v -0.04156108 0.05317179 -0.01777872
v -0.04609246 0.05537061 -0.01537809
v -0.02877595 0.05764336 0.01547933
v -0.03090316 0.05754305 0.01680133
v -0.03885972 0.05561787 0.01907047
v -0.04648467 0.04876899 0.02026077
v -0.02860491 0.04300200 0.01486656
vn 0.10845386 0.08018018 0.99086270
vn 0.96546884 -0.15671040 0.20811479
vn 0.39277701 0.91492345 -0.09295856
vn -0.66518985 0.23445042 -0.70891146
vn -0.48619417 -0.87360571 -0.02069533
vn -0.72593854 0.68113493 0.09522836
vn 0.23789809 0.90483591 0.35309555
vn -0.41247487 -0.66389991 0.62377992
vn 0.73549055 -0.49970179 -0.45754976
vn -0.36705507 0.92469163 -0.10107407
vn 0.64146800 0.15035012 0.75227232
vn 0.81304330 0.57923682 0.05869656
vn -0.72635329 0.55819129 0.40104036
vn -0.13771921 0.98881807 0.05720355
vn 0.57603477 -0.79520142 0.18931099
vn 0.97455784 0.11860261 -0.19018525
vn -0.54498901 -0.42436507 -0.72311912
vn 0.26211578 0.36131993 -0.89484257
vn -0.71540225 0.64343554 -0.27237902
vn 0.06415484 0.54587227 0.83540866
vn 0.48781519 -0.49678807 0.71780077
vn 0.38384305 0.92292841 0.02945597
vn 0.86099806 0.19411866 0.47010668
vn -0.59040443 -0.22471118 0.77519513
vn -0.08222387 0.94015558 0.33067617
vn -0.53112691 0.84700131 -0.02220349
vn -0.10376172 0.98790176 -0.11525457
vn -0.46465958 -0.86706815 0.17967833
vn 0.83675197 -0.54324782 0.06875999
vn 0.54544889 -0.82144383 -0.16647986
vn 0.96773925 0.23772073 0.08348414
vn 0.83377827 0.54389020 -0.09485380
vn 0.79138638 0.17562440 -0.58554561
vn -0.58518677 -0.18759618 -0.78890058
vn -0.09852421 0.74298727 -0.66201427
vn 0.25224639 0.60578538 0.75458322
vn 0.38583419 0.14588744 0.91096039
vn -0.71630577 0.30483233 0.62768088
vn 0.83443789 -0.33920231 0.43434458
vn 0.39416249 0.91901119 -0.00737346
vn 0.71648112 0.65201420 0.24805702
vn 0.36282732 -0.27995057 0.88881045
vn -0.56999521 -0.44859424 0.68838120
vn -0.51901216 -0.73016024 -0.44440119
vn -0.14510142 0.97248023 0.18228487
vn -0.12230050 0.83157734 0.54177644
vn 0.00047617 0.94881970 -0.31581791
vn -0.11419648 0.99323911 -0.02086226
vn -0.16624689 0.93962894 -0.29909769
vn 0.53979651 -0.84027926 0.05050245
vn -0.54206843 -0.74830293 0.38236703
vn 0.97356800 -0.16856935 -0.15410948
vn 0.86333760 -0.46620078 -0.19314509
vn 0.97981056 -0.01101138 0.19962471
vn 0.97147459 0.22811620 -0.06480837
vn 0.50729902 -0.33614259 -0.79350858
vn 0.51232045 0.74191846 -0.43253296
vn -0.05953951 0.30515086 -0.95044095
vn -0.61446929 0.57919656 -0.53568538
vn 0.57039249 0.61001438 0.55003170
vn 0.10443840 0.78648388 0.60871646
vn -0.11935839 0.56747791 0.81469159
vn -0.55662579 0.14031724 0.81882770
vn 0.60311820 -0.65283095 0.45832324
f 19//19 13//13 6//6
f 19//19 4//4 13//13
f 24//24 13//13 4//4
f 26//26 14//14 10//10
f 26//26 6//6 14//14
f 26//26 19//19 6//6
f 26//26 10//10 19//19
f 32//32 12//12 31//31
f 37//37 20//20 1//1
f 37//37 36//36 20//20
f 37//37 11//11 36//36
f 38//38 13//13 24//24
f 39//39 2//2 23//23
f 39//39 23//23 11//11
f 39//39 11//11 21//21
f 39//39 29//29 2//2
f 40//40 3//3 7//7
f 40//40 7//7 22//22
f 40//40 32//32 3//3
f 40//40 22//22 12//12
f 40//40 12//12 32//32
f 41//41 22//22 7//7
f 41//41 12//12 22//22
f 41//41 31//31 12//12
f 41//41 23//23 31//31
f 42//42 1//1 24//24
f 42//42 37//37 1//1
f 42//42 21//21 11//11
f 42//42 11//11 37//37
f 43//43 8//8 21//21
f 43//43 42//42 24//24
f 43//43 21//21 42//42
f 44//44 24//24 4//4
f 44//44 30//30 5//5
f 44//44 9//9 30//30
f 44//44 34//34 17//17
f 44//44 4//4 34//34
f 45//45 25//25 7//7
f 45//45 7//7 14//14
f 45//45 14//14 6//6
f 45//45 6//6 13//13
f 45//45 13//13 25//25
f 46//46 7//7 25//25
f 46//46 25//25 13//13
f 47//47 35//35 19//19
f 47//47 14//14 7//7
f 47//47 7//7 3//3
f 48//48 27//27 10//10
f 48//48 10//10 14//14
f 48//48 47//47 27//27
f 48//48 14//14 47//47
f 49//49 19//19 10//10
f 49//49 10//10 27//27
f 49//49 47//47 19//19
f 49//49 27//27 47//47
f 50//50 28//28 5//5
f 50//50 15//15 28//28
f 50//50 5//5 30//30
f 50//50 30//30 29//29
f 50//50 29//29 15//15
f 51//51 8//8 43//43
f 51//51 43//43 24//24
f 51//51 24//24 44//44
f 51//51 44//44 5//5
f 51//51 5//5 28//28
f 52//52 2//2 29//29
f 52//52 33//33 16//16
f 52//52 9//9 33//33
f 53//53 30//30 9//9
f 53//53 29//29 30//30
f 53//53 52//52 29//29
f 53//53 9//9 52//52
f 54//54 16//16 31//31
f 54//54 52//52 16//16
f 54//54 2//2 52//52
f 54//54 31//31 23//23
f 54//54 23//23 2//2
f 55//55 32//32 31//31
f 55//55 31//31 16//16
f 55//55 16//16 32//32
f 56//56 33//33 9//9
f 56//56 18//18 33//33
f 56//56 34//34 18//18
f 56//56 17//17 34//34
f 56//56 44//44 17//17
f 56//56 9//9 44//44
f 57//57 33//33 18//18
f 57//57 3//3 32//32
f 57//57 32//32 16//16
f 57//57 16//16 33//33
f 57//57 47//47 3//3
f 57//57 18//18 35//35
f 57//57 35//35 47//47
f 58//58 34//34 4//4
f 58//58 18//18 34//34
f 58//58 35//35 18//18
f 58//58 4//4 35//35
f 59//59 35//35 4//4
f 59//59 4//4 19//19
f 59//59 19//19 35//35
f 60//60 36//36 11//11
f 60//60 7//7 36//36
f 60//60 41//41 7//7
f 60//60 11//11 23//23
f 60//60 23//23 41//41
f 61//61 36//36 7//7
f 61//61 20//20 36//36
f 61//61 46//46 20//20
f 61//61 7//7 46//46
f 62//62 13//13 38//38
f 62//62 46//46 13//13
f 62//62 20//20 46//46
f 62//62 1//1 20//20
f 63//63 38//38 24//24
f 63//63 24//24 1//1
f 63//63 62//62 38//38
f 63//63 1//1 62//62
f 64//64 39//39 21//21
f 64//64 15//15 29//29
f 64//64 29//29 39//39
f 64//64 21//21 8//8
f 64//64 8//8 51//51
f 64//64 51//51 28//28
f 64//64 28//28 15//15

