# https://github.com/mikedh/trimesh
v 0.01849498 -0.03908297 0.01749613
v 0.03414170 -0.05002033 0.01003670
v 0.03515585 -0.02739624 -0.01162180
v -0.03110038 -0.04064642 -0.01954488
v -0.03114503 -0.04630939 0.01703346
v 0.03414175 -0.04765272 -0.01705294
v 0.03473862 -0.02814403 0.01005114
v 0.01831161 -0.04810386 0.01616024
v 0.03468371 -0.04488323 -0.01844560
v 0.00106904 -0.05199204 -0.01333913
v 0.01853386 -0.04147906 0.01748907
v 0.03520405 -0.02756209 0.00874355
v -0.03127196 -0.03494170 0.01630155
v -0.00508480 -0.05148251 0.01233279
v 0.03426867 -0.04993013 -0.01194172
v 0.01531316 -0.04943342 -0.01816000
v 0.03471299 -0.03457848 -0.01831945
v -0.03105681 -0.04620834 -0.01900716
v -0.03120126 -0.04264541 0.01751634
v -0.01618810 -0.04629615 0.01751225
v 0.01855162 -0.03597508 0.01662603
v -0.03163149 -0.03153154 0.01107100
v 0.01343682 -0.05122558 0.01324422
v 0.03423373 -0.04894455 -0.01515374
v 0.00975799 -0.05262287 0.00628788
v 0.02069902 -0.04966170 -0.01804228
v 0.02829013 -0.04043601 -0.01952045
v -0.03130216 -0.03481492 -0.01727945
v 0.03511424 -0.02900931 -0.01398542
v 0.01507227 -0.05124227 -0.01623808
v -0.00513356 -0.05216057 0.00022341
v -0.03119924 -0.03919108 0.01746860
v -0.00516158 -0.04623089 0.01734284
v -0.02990769 -0.04488190 0.01737775
v -0.03153944 -0.03413716 0.01552887
v -0.03111782 -0.04487495 -0.01946628
v 0.01846622 -0.05027858 0.01441366
v -0.00128543 -0.05014942 0.01507091
v 0.02928087 -0.05122802 -0.01183475
v 0.02822849 -0.05124852 0.00997000
v 0.02791892 -0.05009328 -0.01608655
v 0.02706596 -0.04248125 -0.01950800
v -0.03128435 -0.03700770 -0.01825609
v -0.03148446 -0.03155608 -0.01281220
v 0.03475158 -0.03225660 -0.01713865
v 0.00737114 -0.05260002 0.00635826
v 0.00845661 -0.04906516 0.01618032
v -0.00249775 -0.05115431 0.01342366
v 0.00846928 -0.05015262 0.01510575
v 0.00367647 -0.04926138 0.01608406
v 0.00972305 -0.05259635 0.00521316
v 0.02559536 -0.05105563 -0.01519237
v 0.02933125 -0.05117877 0.00874063
v 0.02924461 -0.04889523 -0.01702744
v 0.02817111 -0.04137960 -0.01948181
v -0.03125822 -0.03288885 -0.01502916
v 0.00736923 -0.05264025 0.00512033
v 0.02182395 -0.05105559 -0.01635919
v 0.02292444 -0.05024765 -0.01706949
vn 0.18344035 0.11087811 0.97675774
vn 0.69794642 -0.54849705 0.46045822
vn 0.63407360 0.73994391 -0.22457443
vn -0.61578287 0.11149625 -0.77998721
vn -0.63172621 -0.56525427 0.53048054
vn 0.56701304 -0.55178549 -0.61157909
vn 0.54098946 0.50116831 0.67539671
vn 0.16681165 -0.39761978 0.90225960
vn 0.70536483 -0.20397640 -0.67886234
vn -0.05975434 -0.96163286 -0.26775300
vn 0.20834262 -0.08179696 0.97462947
vn 0.67822312 0.69833722 0.22877617
vn -0.47804920 0.38867633 0.78765454
vn -0.10061108 -0.96221958 0.25300372
vn 0.73779770 -0.66765882 -0.09942964
vn -0.00964066 -0.49000540 -0.87166609
vn 0.63986652 0.20769813 -0.73988670
vn -0.62132229 -0.60934911 -0.49259747
vn -0.67527999 -0.03764296 0.73660026
vn -0.01281120 -0.29776741 0.95455248
vn 0.09137237 0.42624582 0.89998088
vn -0.68367153 0.70185066 0.19999722
vn 0.02967681 -0.92786928 0.37172287
vn 0.69911152 -0.64371727 -0.31124131
vn 0.02645304 -0.99627383 0.08208953
vn 0.03950542 -0.52046013 -0.85297162
vn 0.06444020 0.06584740 -0.99574675
vn -0.65092154 0.44312475 -0.61639403
vn 0.68075005 0.55184909 -0.48170734
vn -0.00290171 -0.90027756 -0.43530666
vn -0.12592767 -0.99201970 -0.00625647
vn -0.61091634 0.09917727 0.78545853
vn 0.01728543 -0.21149511 0.97722619
vn -0.05399405 -0.13772458 0.98899777
vn -0.69460225 0.53620049 0.47960062
vn -0.67316278 -0.14616548 -0.72490518
vn 0.12136019 -0.77596809 0.61898726
vn -0.02924024 -0.76706979 0.64089698
vn 0.16881857 -0.97732788 -0.12779090
vn 0.13157370 -0.94989491 0.28352782
vn 0.19120202 -0.81552344 -0.54622642
vn 0.04156532 -0.12457519 -0.99133917
vn -0.69978377 0.24935177 -0.66942242
vn -0.68029106 0.70200586 -0.21069370
vn 0.58235892 0.45406974 -0.67429872
vn -0.02206918 -0.99494577 0.09795850
vn 0.02864673 -0.50253882 0.86407991
vn -0.03096618 -0.90164312 0.43137081
vn 0.01573329 -0.78791221 0.61558656
vn -0.00279894 -0.60205540 0.79844941
vn 0.03162108 -0.99896034 -0.03283826
vn 0.11795490 -0.94685224 -0.29926154
vn 0.16191091 -0.98586996 0.04295672
vn 0.16175893 -0.66328442 -0.73067628
vn 0.10109713 -0.06316730 -0.99286921
vn -0.48288797 0.69938522 -0.52695305
vn -0.01370233 -0.99990344 -0.00231630
vn 0.06348833 -0.90777031 -0.41463514
vn 0.13917789 -0.71416526 -0.68600109
f 11//11 7//7 1//1
f 11//11 2//2 7//7
f 11//11 8//8 2//2
f 12//12 7//7 2//2
f 12//12 2//2 9//9
f 15//15 9//9 2//2
f 20//20 11//11 1//1
f 20//20 1//1 19//19
f 21//21 13//13 1//1
f 21//21 1//1 7//7
f 21//21 7//7 13//13
f 22//22 7//7 12//12
f 22//22 12//12 3//3
f 24//24 6//6 9//9
f 24//24 9//9 15//15
f 25//25 23//23 14//14
f 26//26 9//9 6//6
f 27//27 17//17 9//9
f 27//27 4//4 17//17
f 29//29 9//9 17//17
f 29//29 12//12 9//9
f 29//29 3//3 12//12
f 30//30 18//18 16//16
f 30//30 10//10 18//18
f 30//30 16//16 26//26
f 31//31 14//14 5//5
f 31//31 5//5 18//18
f 31//31 18//18 10//10
f 32//32 19//19 1//1
f 32//32 1//1 13//13
f 33//33 8//8 11//11
f 33//33 11//11 20//20
f 34//34 20//20 19//19
f 34//34 19//19 5//5
f 34//34 5//5 20//20
f 35//35 13//13 7//7
f 35//35 7//7 22//22
f 35//35 32//32 13//13
f 35//35 19//19 32//32
f 35//35 22//22 5//5
f 35//35 5//5 19//19
f 36//36 18//18 5//5
f 36//36 5//5 22//22
f 36//36 16//16 18//18
f 37//37 2//2 8//8
f 39//39 15//15 2//2
f 39//39 24//24 15//15
f 40//40 23//23 25//25
f 40//40 37//37 23//23
f 40//40 2//2 37//37
f 41//41 6//6 24//24
f 42//42 26//26 16//16
f 42//42 16//16 36//36
f 42//42 36//36 4//4
f 42//42 4//4 27//27
f 42//42 9//9 26//26
f 43//43 28//28 17//17
f 43//43 17//17 4//4
f 43//43 4//4 36//36
f 44//44 22//22 3//3
f 44//44 28//28 43//43
f 44//44 43//43 36//36
f 44//44 36//36 22//22
f 45//45 29//29 17//17
f 45//45 17//17 28//28
f 45//45 28//28 29//29
f 46//46 25//25 14//14
f 46//46 14//14 31//31
f 47//47 33//33 20//20
f 47//47 8//8 33//33
f 47//47 37//37 8//8
f 48//48 38//38 5//5
f 48//48 5//5 14//14
f 48//48 14//14 23//23
f 49//49 23//23 37//37
f 49//49 37//37 47//47
f 49//49 48//48 23//23
f 49//49 38//38 48//48
f 50//50 20//20 5//5
f 50//50 5//5 38//38
f 50//50 47//47 20//20
f 50//50 49//49 47//47
f 50//50 38//38 49//49
f 51//51 39//39 25//25
f 51//51 10//10 39//39
f 52//52 39//39 10//10
f 52//52 41//41 24//24
f 52//52 24//24 39//39
f 53//53 39//39 2//2
f 53//53 2//2 40//40
f 53//53 40//40 25//25
f 53//53 25//25 39//39
f 54//54 26//26 6//6
f 54//54 6//6 41//41
f 55//55 42//42 27//27
f 55//55 27//27 9//9
f 55//55 9//9 42//42
f 56//56 29//29 28//28
f 56//56 28//28 44//44
f 56//56 44//44 3//3
f 56//56 3//3 29//29
f 57//57 46//46 31//31
f 57//57 31//31 10//10
f 57//57 10//10 51//51
f 57//57 51//51 25//25
f 57//57 25//25 46//46
f 58//58 52//52 10//10
f 58//58 10//10 30//30
f 58//58 30//30 26//26
f 58//58 41//41 52//52
f 59//59 54//54 41//41
f 59//59 26//26 54//54
f 59//59 58//58 26//26
f 59//59 41//41 58//58

