# https://github.com/mikedh/trimesh
v 0.02258589 -0.03493792 0.02113336
v 0.02243959 -0.05273588 0.01828644
v 0.02246304 -0.04187133 -0.02335305
v -0.06368279 -0.02467656 -0.02405359
v -0.06978123 -0.02425161 0.02233815
v -0.03745718 -0.05384296 -0.01739898
v 0.02256979 -0.03225773 -0.01732656
v -0.02079294 -0.04782754 0.02217879
v 0.00063665 -0.05409003 -0.01871269
v -0.04393335 -0.04588179 -0.02387437
v -0.06558178 -0.03880933 -0.01913980
v 0.02275145 -0.03519282 -0.02106608
v 0.02253278 -0.03087237 0.01278835
v 0.02230039 -0.05006129 0.02057791
v 0.00069509 -0.04166296 0.02233863
v -0.02866598 -0.05563129 0.01298154
v 0.02246170 -0.05482355 0.01295053
v -0.03508716 -0.04074607 -0.02392026
v -0.01772020 -0.05262022 -0.02099072
v -0.07446844 -0.02425279 -0.01895649
v -0.05382352 -0.04660203 -0.02118244
v 0.02265010 -0.03777327 -0.02245364
v 0.02262428 -0.03378889 -0.01980662
v 0.02263722 -0.03246112 0.01867916
v 0.02254281 -0.03014995 0.00079157
v -0.01618426 -0.05126192 0.02064778
v -0.00085088 -0.03900391 0.02225324
v -0.00713922 -0.04756361 0.02205632
v -0.02845380 -0.05554853 -0.01459521
v -0.04820547 -0.04814708 0.02058561
v 0.01331596 -0.04767813 -0.02290618
v 0.02242573 -0.05425484 0.01568293
v -0.04079620 -0.04963034 -0.02242429
v -0.06861755 -0.03434023 0.01740359
v -0.07084437 -0.02433103 -0.02254865
v -0.05872186 -0.02492488 -0.02394183
v 0.00842598 -0.05124104 0.02066838
v 0.00066753 -0.04027894 0.02229605
v -0.04047804 -0.05387447 0.01405572
v 0.00068175 -0.05563255 -0.01148335
v -0.01611352 -0.05388049 -0.01971793
v -0.05932817 -0.03973555 0.02211347
v -0.03942037 -0.04999490 0.02054184
v -0.00564223 -0.05283036 -0.02070232
v -0.03350302 -0.04608520 -0.02375541
v 0.00080154 -0.05274462 0.01927028
v -0.01018743 -0.05049128 -0.02226155
v -0.05397305 -0.04501263 -0.02251444
v -0.04522205 -0.05095139 -0.01978888
v -0.07187944 -0.02974150 -0.01363137
v -0.07374188 -0.02406355 0.01871392
v -0.05679151 -0.04613515 0.01560595
v -0.06616426 -0.03646897 -0.02054840
v -0.03013989 -0.05562950 0.01147537
v -0.02988989 -0.05551379 -0.01303182
v -0.00870575 -0.05547079 0.01131208
v -0.00552822 -0.05544626 -0.01593944
v -0.03450037 -0.05377175 -0.01846213
v -0.06428093 -0.03762242 0.02062320
v -0.04061865 -0.05251742 0.01788813
v -0.00734311 -0.05394397 -0.01969605
v 0.01765457 -0.05381109 0.01683922
v 0.01154970 -0.05265011 0.01921209
v -0.04684911 -0.04813221 -0.02232303
vn 0.65414386 0.26307266 0.70914638
vn 0.68592863 -0.55794012 0.46712390
vn 0.66890802 -0.25056364 -0.69984278
vn -0.08159415 0.63670197 -0.76678094
vn -0.35622742 0.54601553 0.75826715
vn -0.21757823 -0.94257789 -0.25339028
vn 0.67686383 0.69965297 -0.22878172
vn -0.01431167 -0.23215705 0.97257302
vn 0.17526490 -0.86518045 -0.46983508
vn -0.06800836 -0.23592597 -0.96938836
vn -0.67495598 -0.66086317 -0.32816809
vn 0.72399438 0.39111757 -0.56820699
vn 0.68444951 0.72096369 0.10835232
vn 0.62860517 -0.27938746 0.72580864
vn 0.03227892 -0.03043152 0.99901551
vn -0.03292008 -0.96673446 0.25365481
vn 0.68814078 -0.72490658 0.03118857
vn 0.00807328 -0.00774146 -0.99993744
vn -0.02337682 -0.62439578 -0.78075824
vn -0.83128457 0.45241789 -0.32293036
vn -0.44916603 -0.79437940 -0.40891471
vn 0.70338575 0.21445983 -0.67768390
vn 0.65632589 0.59403608 -0.46514241
vn 0.69085757 0.62263083 0.36748697
vn 0.70326706 0.71077638 -0.01457301
vn -0.01559011 -0.63210590 0.77472516
vn 0.02132447 0.08258143 0.99635615
vn 0.01623015 -0.18096815 0.98335503
vn -0.04691120 -0.98129430 -0.18671057
vn -0.26048935 -0.63113806 0.73062306
vn 0.26391814 -0.60105536 -0.75437369
vn 0.66179897 -0.70104321 0.26563235
vn -0.08367379 -0.59295765 -0.80087447
vn -0.79414393 -0.55436136 0.24903593
vn -0.42677238 0.53761724 -0.72720908
vn 0.06018698 0.73974708 -0.67018787
vn 0.02308783 -0.49670869 0.86761018
vn 0.02811454 0.04769982 0.99846597
vn -0.27572552 -0.94876854 0.15431686
vn 0.12405868 -0.98606482 -0.11084052
vn -0.01678821 -0.84391668 -0.53621151
vn -0.27647441 -0.40513839 0.87144982
vn -0.07075604 -0.51772466 0.85261642
vn 0.04850917 -0.62284861 -0.78083703
vn 0.00803245 -0.17201489 -0.98506160
vn 0.00013313 -0.81231903 0.58321332
vn 0.01079262 -0.41676734 -0.90894912
vn -0.30768963 -0.42115320 -0.85320400
vn -0.31236737 -0.87789152 -0.36295056
vn -0.86810935 -0.49554281 -0.02869629
vn -0.80878282 0.47618133 0.34514010
vn -0.54116422 -0.81123882 0.22143365
vn -0.57159714 -0.41258688 -0.70925931
vn -0.09505502 -0.99462053 0.04116492
vn -0.12010725 -0.99190868 -0.04112692
vn 0.01438770 -0.99859287 0.05104196
vn 0.02707625 -0.97540883 -0.21873382
vn -0.07870170 -0.86015588 -0.50392252
vn -0.58746941 -0.54675394 0.59660692
vn -0.19423751 -0.84212962 0.50308001
vn 0.01480680 -0.82376131 -0.56674338
vn 0.02081408 -0.89434157 0.44690035
vn 0.03273704 -0.78330304 0.62077744
vn -0.19968546 -0.58821096 -0.78366676
f 14//14 2//2 1//1
f 15//15 5//5 8//8
f 15//15 14//14 1//1
f 18//18 10//10 4//4
f 18//18 4//4 3//3
f 18//18 3//3 10//10
f 22//22 17//17 3//3
f 22//22 12//12 17//17
f 23//23 7//7 12//12
f 24//24 13//13 5//5
f 24//24 5//5 1//1
f 24//24 17//17 12//12
f 24//24 1//1 2//2
f 24//24 2//2 17//17
f 25//25 12//12 7//7
f 25//25 5//5 13//13
f 25//25 24//24 12//12
f 25//25 13//13 24//24
f 27//27 1//1 5//5
f 28//28 15//15 8//8
f 28//28 14//14 15//15
f 31//31 17//17 9//9
f 31//31 3//3 17//17
f 32//32 17//17 2//2
f 32//32 16//16 17//17
f 36//36 22//22 3//3
f 36//36 3//3 4//4
f 36//36 12//12 22//22
f 36//36 23//23 12//12
f 36//36 7//7 23//23
f 36//36 25//25 7//7
f 36//36 4//4 5//5
f 36//36 5//5 25//25
f 37//37 8//8 26//26
f 37//37 28//28 8//8
f 37//37 14//14 28//28
f 37//37 2//2 14//14
f 38//38 15//15 1//1
f 38//38 1//1 27//27
f 38//38 27//27 5//5
f 38//38 5//5 15//15
f 40//40 9//9 17//17
f 42//42 30//30 8//8
f 42//42 8//8 5//5
f 43//43 26//26 8//8
f 43//43 8//8 30//30
f 44//44 31//31 9//9
f 45//45 10//10 3//3
f 45//45 3//3 31//31
f 46//46 37//37 26//26
f 47//47 19//19 33//33
f 47//47 44//44 19//19
f 47//47 31//31 44//44
f 47//47 45//45 31//31
f 47//47 33//33 10//10
f 47//47 10//10 45//45
f 48//48 21//21 11//11
f 48//48 35//35 4//4
f 48//48 4//4 10//10
f 49//49 6//6 39//39
f 50//50 20//20 11//11
f 50//50 11//11 34//34
f 51//51 50//50 34//34
f 51//51 20//20 50//50
f 51//51 35//35 20//20
f 51//51 5//5 4//4
f 51//51 4//4 35//35
f 52//52 34//34 11//11
f 52//52 11//11 21//21
f 52//52 49//49 39//39
f 52//52 21//21 49//49
f 53//53 11//11 20//20
f 53//53 20//20 35//35
f 53//53 48//48 11//11
f 53//53 35//35 48//48
f 54//54 16//16 39//39
f 54//54 40//40 16//16
f 54//54 29//29 40//40
f 55//55 39//39 6//6
f 55//55 6//6 29//29
f 55//55 54//54 39//39
f 55//55 29//29 54//54
f 56//56 40//40 17//17
f 56//56 17//17 16//16
f 56//56 16//16 40//40
f 57//57 40//40 29//29
f 57//57 9//9 40//40
f 57//57 29//29 41//41
f 58//58 41//41 29//29
f 58//58 29//29 6//6
f 58//58 33//33 19//19
f 58//58 19//19 41//41
f 58//58 49//49 33//33
f 58//58 6//6 49//49
f 59//59 42//42 5//5
f 59//59 34//34 52//52
f 59//59 52//52 30//30
f 59//59 30//30 42//42
f 59//59 51//51 34//34
f 59//59 5//5 51//51
f 60//60 43//43 30//30
f 60//60 39//39 16//16
f 60//60 26//26 43//43
f 60//60 46//46 26//26
f 60//60 16//16 46//46
f 60//60 52//52 39//39
f 60//60 30//30 52//52
f 61//61 41//41 19//19
f 61//61 19//19 44//44
f 61//61 44//44 9//9
f 61//61 57//57 41//41
f 61//61 9//9 57//57
f 62//62 46//46 16//16
f 62//62 16//16 32//32
f 62//62 32//32 2//2
f 63//63 2//2 37//37
f 63//63 37//37 46//46
f 63//63 62//62 2//2
f 63//63 46//46 62//62
f 64//64 21//21 48//48
f 64//64 49//49 21//21
f 64//64 33//33 49//49
f 64//64 48//48 10//10
f 64//64 10//10 33//33

