# https://github.com/mikedh/trimesh
v 0.05669894 0.04250728 0.02286578
v 0.06886503 0.03617166 0.01515241
v 0.04748933 0.05862312 0.01509462
v 0.02678376 0.05229149 0.01518397
v 0.02775870 0.03967480 0.01446255
v 0.03481658 0.05428558 0.02238707
v 0.06433249 0.04181581 0.01923535
v 0.05698226 0.03650450 0.02315150
v 0.06793677 0.03819343 0.01497425
v 0.04557048 0.05915723 0.01505472
v 0.04888035 0.05389554 0.02110353
v 0.02832574 0.04465073 0.01948936
v 0.04799681 0.03427558 0.01681083
v 0.04303428 0.05419518 0.02243947
v 0.06724004 0.03606698 0.01935953
v 0.06606505 0.04213444 0.01501789
v 0.03103005 0.05681283 0.01958449
v 0.04187749 0.05740344 0.02014234
v 0.04977213 0.05589643 0.01828771
v 0.05021706 0.05280819 0.02137391
v 0.02730330 0.04423621 0.01731106
v 0.03253148 0.04554733 0.02230521
v 0.03262241 0.04122418 0.01996273
v 0.06796384 0.03585267 0.01833724
v 0.06675285 0.04069919 0.01501702
v 0.02735495 0.05116032 0.01853393
v 0.04551141 0.05887148 0.01622094
v 0.04540066 0.05519443 0.02132495
v 0.03607734 0.05625609 0.02138473
v 0.06532289 0.04166115 0.01803835
v 0.04877119 0.05593001 0.01900958
v 0.05022745 0.05065413 0.02237848
v 0.02702343 0.04290815 0.01491450
v 0.03276764 0.05348309 0.02235600
v 0.05077314 0.03651792 0.02182871
v 0.03136901 0.04036781 0.01809084
v 0.03129166 0.04326741 0.02119897
v 0.02709228 0.05243024 0.01740602
v 0.02738339 0.05006343 0.01860502
v 0.04734964 0.05858976 0.01570485
v 0.03479287 0.05779188 0.01969808
v 0.04067057 0.05619967 0.02142756
v 0.04657542 0.05307912 0.02235836
v 0.03265575 0.05534639 0.02149701
v 0.06665255 0.03805220 0.01911029
v 0.06662336 0.04055902 0.01612171
v 0.04645798 0.05599126 0.02027215
v 0.02950689 0.05427746 0.02005279
v 0.03051696 0.05301273 0.02136389
v 0.03069421 0.04438984 0.02124404
v 0.03036463 0.04262957 0.02024873
v 0.03370334 0.04246374 0.02131689
v 0.04735626 0.05717467 0.01807775
v 0.03488255 0.05741416 0.02009633
v 0.06532429 0.04042749 0.01903930
v 0.06761803 0.03695906 0.01817172
v 0.03135139 0.05632689 0.02015591
v 0.02967731 0.04332160 0.02014141
v 0.03378480 0.04432473 0.02225344
v 0.06772026 0.03815031 0.01619463
vn 0.25513390 0.19333556 0.94737957
vn 0.79059405 -0.39327544 -0.46935645
vn 0.40458557 0.70656009 -0.58058880
vn -0.73827987 0.34293897 -0.58080607
vn -0.63388526 -0.63777883 -0.43752445
vn -0.06015276 0.27529106 0.95947719
vn 0.57409537 0.46479077 0.67408015
vn 0.12404094 -0.54476242 0.82936587
vn 0.67930444 0.27864847 -0.67889654
vn 0.05858839 0.81064734 -0.58259616
vn 0.33077126 0.60587402 0.72353786
vn -0.75326072 -0.20072352 0.62634523
vn -0.14219783 -0.95834723 -0.24769006
vn 0.06804498 0.32058436 0.94477275
vn 0.55424945 -0.43781893 0.70789980
vn 0.65259101 0.51232822 -0.55825153
vn -0.49045631 0.85536943 0.16672055
vn 0.10024096 0.80945768 0.57855856
vn 0.54934652 0.73535935 0.39681865
vn 0.42230240 0.53685388 0.73037566
vn -0.92889592 -0.18077109 0.32322466
vn -0.26811620 -0.10063066 0.95811647
vn -0.28543491 -0.70725625 0.64677315
vn 0.75558031 -0.55408830 0.34940600
vn 0.89822435 0.42886297 -0.09627858
vn -0.86212651 0.08380541 0.49971446
vn 0.13962775 0.92101641 0.36363837
vn 0.20326353 0.59666066 0.77632467
vn -0.04485317 0.60729945 0.79320588
vn 0.73457169 0.55724492 0.38714666
vn 0.38697490 0.72747809 0.56659160
vn 0.24443326 0.27444998 0.93001591
vn -0.91601876 -0.10846061 -0.38619415
vn -0.25226659 0.18262928 0.95026739
vn -0.17655872 -0.71013595 0.68156728
vn -0.33525108 -0.78667770 0.51840613
vn -0.35448253 -0.43469501 0.82787824
vn -0.91241373 0.33428194 0.23612873
vn -0.86969951 -0.01077816 0.49346387
vn 0.40796212 0.86788769 0.28343936
vn -0.17974163 0.94551062 0.27148225
vn 0.04134130 0.60070675 0.79839983
vn 0.15839144 0.32974649 0.93068760
vn -0.28890798 0.51269043 0.80850523
vn 0.67521141 0.33855021 0.65534213
vn 0.86448507 0.43811673 0.24641285
vn 0.27180983 0.71789231 0.64089784
vn -0.69891034 0.39314912 0.59745971
vn -0.54538935 0.16887466 0.82099440
vn -0.51038329 -0.16502522 0.84396420
vn -0.47612273 -0.57312912 0.66695589
vn -0.21247008 -0.52787633 0.82231566
vn 0.30709073 0.80384703 0.50943619
vn -0.12582484 0.69733397 0.70561564
vn 0.70769221 0.41585863 0.57116840
vn 0.85939435 0.35810367 0.36497002
vn -0.38177944 0.56203904 0.73372786
vn -0.62201247 -0.39415791 0.67656487
vn -0.15601325 -0.28003156 0.94722869
vn 0.88331023 0.39962534 0.24507678
f 9//9 2//2 5//5
f 10//10 5//5 4//4
f 13//13 5//5 2//2
f 14//14 8//8 1//1
f 14//14 6//6 8//8
f 15//15 1//1 8//8
f 15//15 8//8 13//13
f 16//16 10//10 3//3
f 16//16 9//9 5//5
f 16//16 5//5 10//10
f 17//17 10//10 4//4
f 19//19 16//16 3//3
f 20//20 1//1 7//7
f 20//20 7//7 19//19
f 21//21 5//5 12//12
f 24//24 15//15 13//13
f 24//24 13//13 2//2
f 25//25 2//2 9//9
f 25//25 9//9 16//16
f 30//30 19//19 7//7
f 30//30 16//16 19//19
f 31//31 20//20 19//19
f 31//31 11//11 20//20
f 32//32 1//1 20//20
f 33//33 21//21 4//4
f 33//33 4//4 5//5
f 33//33 5//5 21//21
f 34//34 22//22 8//8
f 34//34 8//8 6//6
f 35//35 13//13 8//8
f 36//36 5//5 13//13
f 36//36 35//35 23//23
f 36//36 13//13 35//35
f 38//38 17//17 4//4
f 38//38 4//4 21//21
f 39//39 21//21 12//12
f 39//39 38//38 21//21
f 39//39 26//26 38//38
f 40//40 3//3 10//10
f 40//40 10//10 27//27
f 40//40 19//19 3//3
f 41//41 27//27 10//10
f 41//41 10//10 17//17
f 41//41 18//18 27//27
f 41//41 29//29 18//18
f 42//42 28//28 18//18
f 42//42 14//14 28//28
f 42//42 18//18 29//29
f 42//42 29//29 6//6
f 42//42 6//6 14//14
f 43//43 20//20 11//11
f 43//43 11//11 28//28
f 43//43 28//28 14//14
f 43//43 32//32 20//20
f 43//43 14//14 1//1
f 43//43 1//1 32//32
f 44//44 6//6 29//29
f 44//44 34//34 6//6
f 45//45 15//15 24//24
f 45//45 7//7 1//1
f 45//45 1//1 15//15
f 46//46 25//25 16//16
f 46//46 16//16 30//30
f 46//46 2//2 25//25
f 47//47 28//28 11//11
f 47//47 11//11 31//31
f 47//47 18//18 28//28
f 48//48 38//38 26//26
f 48//48 17//17 38//38
f 49//49 22//22 34//34
f 49//49 34//34 44//44
f 49//49 39//39 12//12
f 49//49 48//48 26//26
f 49//49 26//26 39//39
f 50//50 37//37 22//22
f 50//50 49//49 12//12
f 50//50 22//22 49//49
f 51//51 5//5 36//36
f 51//51 36//36 23//23
f 51//51 23//23 37//37
f 52//52 37//37 23//23
f 52//52 23//23 35//35
f 52//52 35//35 8//8
f 53//53 31//31 19//19
f 53//53 19//19 40//40
f 53//53 47//47 31//31
f 53//53 40//40 27//27
f 53//53 27//27 18//18
f 53//53 18//18 47//47
f 54//54 44//44 29//29
f 54//54 29//29 41//41
f 54//54 41//41 44//44
f 55//55 45//45 30//30
f 55//55 30//30 7//7
f 55//55 7//7 45//45
f 56//56 24//24 2//2
f 56//56 45//45 24//24
f 56//56 46//46 30//30
f 56//56 30//30 45//45
f 57//57 17//17 48//48
f 57//57 44//44 41//41
f 57//57 41//41 17//17
f 57//57 49//49 44//44
f 57//57 48//48 49//49
f 58//58 12//12 5//5
f 58//58 5//5 51//51
f 58//58 50//50 12//12
f 58//58 51//51 37//37
f 58//58 37//37 50//50
f 59//59 52//52 8//8
f 59//59 8//8 22//22
f 59//59 22//22 37//37
f 59//59 37//37 52//52
f 60//60 56//56 2//2
f 60//60 2//2 46//46
f 60//60 46//46 56//56

