# https://github.com/mikedh/trimesh
v 0.06573464 -0.01336082 0.01636720
v 0.07224844 -0.01967951 0.00874780
v 0.07234504 -0.01331089 -0.01211475
v 0.06193501 -0.01350386 -0.01593919
v 0.04725315 -0.04498821 0.00564814
v 0.07141203 -0.01321064 -0.01392852
v 0.07268514 -0.01331277 0.01172174
v 0.05786128 -0.03743265 0.01416392
v 0.04822680 -0.02520044 0.00864784
v 0.05911340 -0.01343868 0.01525141
v 0.04729665 -0.04214849 -0.01512716
v 0.07228517 -0.02075517 -0.00837988
v 0.07057343 -0.01322304 0.01440542
v 0.04746563 -0.04466475 0.00889913
v 0.06020624 -0.01352017 -0.01531214
v 0.05504317 -0.03490358 0.01546209
v 0.06514181 -0.02926056 -0.01573295
v 0.07224375 -0.02066939 0.00663351
v 0.07018365 -0.02088279 -0.01393037
v 0.07153537 -0.01325275 0.01341407
v 0.06542697 -0.02618094 0.01519382
v 0.05957539 -0.03929407 0.00982240
v 0.07041032 -0.01324345 -0.01494217
v 0.05542558 -0.01397484 -0.00176017
v 0.04806886 -0.03048383 -0.01571170
v 0.06102803 -0.01344324 0.01642440
v 0.05480749 -0.03883008 0.01424499
v 0.05249973 -0.02484956 0.01446634
v 0.07122289 -0.01872898 -0.01302074
v 0.07004476 -0.02695825 -0.01011994
v 0.06876286 -0.01332562 0.01548530
v 0.07027835 -0.02075289 0.01329235
v 0.05914994 -0.03454146 0.01516691
v 0.05152340 -0.04355196 0.00879971
v 0.05863643 -0.04032942 -0.01043094
v 0.06575697 -0.03088982 0.01240536
v 0.06889943 -0.01350902 -0.01600116
v 0.06916165 -0.02185454 -0.01483028
v 0.05534650 -0.01390218 0.00745568
v 0.04840012 -0.02456841 -0.00983181
v 0.04763427 -0.04026485 -0.01607641
v 0.06179316 -0.01881143 0.01645954
v 0.05472083 -0.04088348 0.01269461
v 0.05739546 -0.01352391 0.01358559
v 0.05142722 -0.02489702 0.01361940
v 0.05439963 -0.02462070 0.01551401
v 0.07219946 -0.01753209 -0.01128162
v 0.07118420 -0.02499201 -0.00831415
v 0.07103580 -0.02291494 -0.01110543
v 0.07054193 -0.01547491 0.01408623
v 0.07123753 -0.01546188 0.01328522
v 0.07119334 -0.02078915 0.01163282
v 0.05656205 -0.03864502 -0.01498279
v 0.06593417 -0.03409996 -0.00847807
v 0.05759626 -0.04034385 0.01126428
v 0.05155405 -0.04355922 -0.01140071
v 0.06269299 -0.03412754 0.01327826
v 0.06699071 -0.02793762 0.01332880
v 0.06856536 -0.01875640 -0.01574090
v 0.06821429 -0.02506615 -0.01491180
v 0.05653901 -0.01398437 -0.00798760
v 0.04820469 -0.02756152 -0.01390833
v 0.04856906 -0.02452262 0.00646280
v 0.06261224 -0.01878253 0.01641419
vn 0.12173080 0.64485197 0.75455122
vn 0.96267287 -0.22590537 0.14908961
vn 0.78227276 0.58854333 -0.20412269
vn -0.09038944 0.68438606 -0.72349532
vn -0.60519339 -0.79527738 0.03570501
vn 0.61626979 0.64262813 -0.45523689
vn 0.77864153 0.57486550 0.25148962
vn 0.37798065 -0.53523745 0.75541478
vn -0.92904940 0.26547349 0.25766457
vn -0.37944997 0.77600455 0.50382006
vn -0.58790403 -0.59704663 -0.54580599
vn 0.98150417 -0.16064795 -0.10412397
vn 0.46894777 0.64098790 0.60763682
vn -0.57204136 -0.69801450 0.43074869
vn -0.36464602 0.77499654 -0.51615274
vn -0.24566011 -0.15920713 0.95619255
vn 0.44996065 -0.33601822 -0.82742200
vn 0.95386590 -0.29150285 0.07187448
vn 0.80024080 -0.19405783 -0.56741187
vn 0.61497167 0.62973044 0.47460449
vn 0.38462595 -0.21403245 0.89791591
vn 0.64264065 -0.74620296 0.17376461
vn 0.47179055 0.65823288 -0.58663715
vn -0.53130614 0.84630510 -0.03848993
vn -0.71098691 0.13589026 -0.68995032
vn -0.15387265 0.66669720 0.72927228
vn -0.07022178 -0.43859769 0.89593580
vn -0.56839054 0.10773346 0.81567500
vn 0.85887233 -0.16322635 -0.48548479
vn 0.85555414 -0.44625807 -0.26245162
vn 0.31995252 0.57495620 0.75303104
vn 0.71345045 -0.23352312 0.66064772
vn 0.27495102 -0.30044214 0.91331071
vn 0.33732782 -0.92276324 0.18632751
vn 0.55624287 -0.79223776 -0.25090475
vn 0.78050746 -0.52579431 0.33815446
vn 0.24170943 0.52856300 -0.81375531
vn 0.65803295 -0.15998692 -0.73579672
vn -0.57124800 0.81791657 0.06847046
vn -0.90480493 0.39649284 -0.15531085
vn -0.50851703 -0.18843038 -0.84018118
vn -0.02106619 -0.03443076 0.99918504
vn 0.18892778 -0.74910542 0.63493887
vn -0.50456844 0.79607609 0.33417592
vn -0.73445164 0.17641519 0.65533081
vn -0.34488755 0.06605552 0.93631685
vn 0.95862016 -0.11595624 -0.26000297
vn 0.92735399 -0.36682406 -0.07385586
vn 0.89777142 -0.26526269 -0.35162790
vn 0.62818392 -0.13875069 0.76559337
vn 0.80049740 -0.14379810 0.58182988
vn 0.88787134 -0.31795172 0.33255252
vn 0.37064578 -0.53130944 -0.76179524
vn 0.76118032 -0.62496720 -0.17326428
vn 0.49478647 -0.79935959 0.34089676
vn 0.18104911 -0.94240485 -0.28123712
vn 0.62323667 -0.53399320 0.57133818
vn 0.72709768 -0.40075929 0.55742349
vn 0.42314221 -0.08765246 -0.90181357
vn 0.66701557 -0.28076431 -0.69011712
vn -0.52819937 0.83501054 -0.15415196
vn -0.87635208 0.32705113 -0.35361645
vn -0.86151299 0.50750641 0.01525183
vn 0.10887687 -0.07032464 0.99156456
f 7//7 3//3 6//6
f 11//11 5//5 9//9
f 12//12 3//3 7//7
f 13//13 10//10 1//1
f 13//13 6//6 10//10
f 14//14 9//9 5//5
f 15//15 10//10 6//6
f 18//18 12//12 7//7
f 18//18 7//7 2//2
f 20//20 7//7 6//6
f 20//20 6//6 13//13
f 23//23 15//15 6//6
f 23//23 4//4 15//15
f 25//25 15//15 4//4
f 26//26 1//1 10//10
f 27//27 16//16 14//14
f 28//28 14//14 16//16
f 28//28 26//26 10//10
f 29//29 19//19 6//6
f 29//29 6//6 3//3
f 31//31 13//13 1//1
f 31//31 1//1 21//21
f 33//33 27//27 8//8
f 33//33 16//16 27//27
f 34//34 14//14 5//5
f 37//37 4//4 23//23
f 38//38 23//23 6//6
f 38//38 6//6 19//19
f 40//40 39//39 24//24
f 41//41 11//11 25//25
f 41//41 37//37 17//17
f 41//41 25//25 4//4
f 41//41 4//4 37//37
f 42//42 1//1 26//26
f 43//43 8//8 27//27
f 43//43 27//27 14//14
f 43//43 14//14 34//34
f 44//44 39//39 9//9
f 44//44 10//10 15//15
f 44//44 15//15 24//24
f 44//44 24//24 39//39
f 45//45 9//9 14//14
f 45//45 14//14 28//28
f 45//45 44//44 9//9
f 45//45 28//28 10//10
f 45//45 10//10 44//44
f 46//46 28//28 16//16
f 46//46 26//26 28//28
f 46//46 42//42 26//26
f 46//46 16//16 42//42
f 47//47 29//29 3//3
f 47//47 3//3 12//12
f 48//48 12//12 18//18
f 49//49 19//19 29//29
f 49//49 29//29 47//47
f 49//49 48//48 30//30
f 49//49 47//47 12//12
f 49//49 12//12 48//48
f 50//50 32//32 20//20
f 50//50 20//20 13//13
f 50//50 13//13 31//31
f 50//50 31//31 21//21
f 50//50 21//21 32//32
f 51//51 32//32 7//7
f 51//51 7//7 20//20
f 51//51 20//20 32//32
f 52//52 2//2 7//7
f 52//52 7//7 32//32
f 52//52 36//36 18//18
f 52//52 18//18 2//2
f 53//53 17//17 35//35
f 53//53 41//41 17//17
f 53//53 11//11 41//41
f 54//54 22//22 35//35
f 54//54 36//36 22//22
f 54//54 30//30 48//48
f 54//54 48//48 18//18
f 54//54 18//18 36//36
f 54//54 35//35 17//17
f 54//54 17//17 30//30
f 55//55 35//35 22//22
f 55//55 34//34 35//35
f 55//55 43//43 34//34
f 55//55 8//8 43//43
f 56//56 35//35 34//34
f 56//56 34//34 5//5
f 56//56 5//5 11//11
f 56//56 53//53 35//35
f 56//56 11//11 53//53
f 57//57 33//33 8//8
f 57//57 8//8 55//55
f 57//57 55//55 22//22
f 57//57 22//22 36//36
f 57//57 21//21 33//33
f 58//58 32//32 21//21
f 58//58 57//57 36//36
f 58//58 21//21 57//57
f 58//58 52//52 32//32
f 58//58 36//36 52//52
f 59//59 37//37 23//23
f 59//59 23//23 38//38
f 59//59 17//17 37//37
f 60//60 30//30 17//17
f 60//60 59//59 38//38
f 60//60 17//17 59//59
f 60//60 38//38 19//19
f 60//60 49//49 30//30
f 60//60 19//19 49//49
f 61//61 40//40 24//24
f 61//61 24//24 15//15
f 61//61 15//15 40//40
f 62//62 40//40 15//15
f 62//62 15//15 25//25
f 62//62 25//25 11//11
f 62//62 11//11 9//9
f 62//62 9//9 40//40
f 63//63 40//40 9//9
f 63//63 9//9 39//39
f 63//63 39//39 40//40
f 64//64 42//42 16//16
f 64//64 16//16 33//33
f 64//64 33//33 21//21
f 64//64 21//21 1//1
f 64//64 1//1 42//42

