# https://github.com/mikedh/trimesh
v -0.04872166 0.04782574 0.02547586
v -0.04963484 0.03831219 0.02504072
v -0.04942976 0.03519335 -0.02216250
v -0.05733050 0.04861342 -0.02223332
v -0.07792245 0.01815117 0.01963593
v -0.04833065 0.05911274 -0.01598787
v -0.04963864 0.03218431 -0.02051972
v -0.06707990 0.02177661 0.02525525
v -0.04858947 0.05350362 -0.02228716
v -0.06129281 0.05111920 0.01865913
v -0.07823473 0.00462509 -0.02000303
v -0.06305673 0.02192315 0.02524856
v -0.06488891 0.00467785 -0.02240896
v -0.05717624 0.05261926 -0.01953773
v -0.04828522 0.05880058 0.01708747
v -0.06473081 0.04104144 0.02352490
v -0.06766699 0.00490354 0.02377534
v -0.06726613 0.03670397 -0.02241329
v -0.05953448 0.00459550 -0.01841952
v -0.05120480 0.05441404 -0.02094849
v -0.05848084 0.05396566 -0.01458467
v -0.05281137 0.05419042 0.02240004
v -0.05910918 0.04313036 0.02517743
v -0.07164077 0.03775781 0.01726271
v -0.07281902 0.02146127 0.02356953
v -0.07178011 0.00481343 0.02382053
v -0.07583904 0.00455230 -0.02233104
v -0.06579017 0.04233500 -0.02086603
v -0.06232625 0.00460909 -0.02082662
v -0.05674199 0.00489211 -0.00557244
v -0.05278726 0.05161208 -0.02223818
v -0.05106237 0.05714900 -0.01817787
v -0.05689879 0.05560431 0.01285085
v -0.05379645 0.05567941 0.01986097
v -0.04862138 0.05345777 0.02382514
v -0.06126038 0.04855102 0.02211104
v -0.06700821 0.02470630 0.02521639
v -0.07165910 0.03330025 0.02113127
v -0.07029566 0.04231747 -0.01291278
v -0.07320403 0.00637319 0.02362506
v -0.05819107 0.00468164 0.01134720
v -0.07372006 0.02595883 -0.02096051
v -0.07982807 0.00442572 -0.01715306
v -0.05864097 0.04988267 -0.02077502
v -0.06603191 0.03946724 -0.02230283
v -0.05674127 0.00491187 -0.01011386
v -0.05051122 0.02620250 0.00215229
v -0.04982075 0.05344781 -0.02203415
v -0.05412082 0.05292158 -0.02082618
v -0.04842592 0.05789754 -0.01881229
v -0.05546395 0.05531461 -0.01728566
v -0.05115738 0.05844575 0.01538250
v -0.05090561 0.05862921 -0.01312766
v -0.04844572 0.05763068 0.02018726
v -0.05852607 0.05403572 0.01596530
v -0.05621897 0.04605840 0.02514228
v -0.06032751 0.04723245 0.02346866
v -0.06548349 0.04527219 0.01958709
v -0.05539108 0.05401737 0.02100926
v -0.06925972 0.03204420 0.02364237
v -0.07314673 0.03171079 0.01987431
v -0.06602385 0.04236224 0.02200882
v -0.07516451 0.01960372 0.02239338
v -0.07029526 0.04211904 0.00830035
vn 0.65589392 0.08396455 0.75016872
vn 0.72399217 -0.16219193 0.67046932
vn 0.71766915 -0.08352758 -0.69135673
vn -0.23723803 0.28683860 -0.92813886
vn -0.93636468 0.04321559 0.34835843
vn 0.54455712 0.81355136 -0.20394049
vn 0.94341303 -0.23266132 -0.23630607
vn -0.13067686 -0.01949945 0.99123324
vn 0.59714667 0.28484597 -0.74985240
vn -0.66611357 0.69081672 0.28118493
vn -0.68577814 -0.50523262 -0.52387817
vn 0.08092852 -0.07987262 0.99351444
vn 0.14429053 -0.66162009 -0.73582546
vn -0.52308048 0.63984864 -0.56301024
vn 0.59263010 0.78179855 0.19385712
vn -0.45788543 0.27320706 0.84598986
vn 0.24938150 -0.69398563 0.67542047
vn -0.39001204 0.18713891 -0.90159283
vn 0.52875647 -0.76790944 -0.36156837
vn -0.28411582 0.61285863 -0.73734829
vn -0.63309280 0.75568344 -0.16773801
vn -0.28202434 0.60121601 0.74766408
vn -0.20312720 0.15216299 0.96725682
vn -0.87019900 0.43149384 0.23783767
vn -0.42488662 0.09103536 0.90065750
vn -0.29219197 -0.70963343 0.64112732
vn -0.32371973 -0.59981021 -0.73173305
vn -0.64164329 0.48814765 -0.59161285
vn 0.35987887 -0.77657175 -0.51713007
vn 0.65062787 -0.75920510 0.01705834
vn -0.18584401 0.30820660 -0.93299019
vn -0.38553313 0.79591739 -0.46677588
vn -0.56826665 0.82146467 0.04763216
vn -0.41585038 0.81099463 0.41152906
vn 0.58132167 0.38117702 0.71886660
vn -0.55705243 0.54809002 0.62393102
vn -0.18482646 0.05226936 0.98138020
vn -0.72127584 0.33120352 0.60833001
vn -0.84400878 0.50321194 -0.18554493
vn -0.66789408 -0.33507690 0.66456073
vn 0.59511897 -0.77695061 0.20538052
vn -0.76938702 0.21994146 -0.59972442
vn -0.79236628 -0.58242120 -0.18149718
vn -0.49131143 0.53033091 -0.69091404
vn -0.42565153 0.25581471 -0.86797443
vn 0.66782039 -0.73957315 -0.08394928
vn 0.97630346 -0.21303257 0.03806156
vn -0.20998119 0.51589612 -0.83051737
vn -0.34347840 0.57218175 -0.74473528
vn 0.52848919 0.68261728 -0.50471064
vn -0.49879486 0.79253585 -0.35084271
vn -0.32416613 0.93593672 0.13761822
vn -0.36566506 0.92769180 -0.07534582
vn 0.52963843 0.70817889 0.46686807
vn -0.60912056 0.77916387 0.14790469
vn -0.16635076 0.23924667 0.95660256
vn -0.38638336 0.39375855 0.83406361
vn -0.75708285 0.56170486 0.33363635
vn -0.46144260 0.69783899 0.54780606
vn -0.47243454 0.20076908 0.85819426
vn -0.85751085 0.31515953 0.40663203
vn -0.66170988 0.42595375 0.61701170
vn -0.63495170 0.10496671 0.76538769
vn -0.85285041 0.52052477 0.04123277
f 7//7 1//1 2//2
f 7//7 3//3 1//1
f 9//9 6//6 1//1
f 9//9 1//1 3//3
f 12//12 2//2 1//1
f 12//12 1//1 8//8
f 13//13 9//9 3//3
f 15//15 1//1 6//6
f 17//17 2//2 12//12
f 18//18 4//4 9//9
f 18//18 9//9 13//13
f 19//19 3//3 7//7
f 26//26 17//17 12//12
f 26//26 12//12 8//8
f 27//27 18//18 13//13
f 29//29 13//13 3//3
f 29//29 3//3 19//19
f 29//29 27//27 13//13
f 31//31 9//9 4//4
f 32//32 20//20 14//14
f 35//35 1//1 15//15
f 37//37 8//8 1//1
f 37//37 1//1 23//23
f 37//37 25//25 8//8
f 39//39 21//21 14//14
f 39//39 14//14 28//28
f 40//40 26//26 8//8
f 40//40 8//8 25//25
f 41//41 17//17 26//26
f 41//41 19//19 30//30
f 41//41 2//2 17//17
f 42//42 27//27 11//11
f 42//42 18//18 27//27
f 42//42 39//39 28//28
f 43//43 11//11 27//27
f 43//43 26//26 40//40
f 43//43 40//40 5//5
f 43//43 42//42 11//11
f 43//43 5//5 39//39
f 43//43 39//39 42//42
f 43//43 41//41 26//26
f 43//43 19//19 41//41
f 43//43 29//29 19//19
f 43//43 27//27 29//29
f 44//44 28//28 14//14
f 44//44 4//4 28//28
f 45//45 28//28 4//4
f 45//45 4//4 18//18
f 45//45 42//42 28//28
f 45//45 18//18 42//42
f 46//46 30//30 19//19
f 46//46 19//19 7//7
f 47//47 7//7 2//2
f 47//47 41//41 30//30
f 47//47 2//2 41//41
f 47//47 46//46 7//7
f 47//47 30//30 46//46
f 48//48 31//31 20//20
f 48//48 20//20 9//9
f 48//48 9//9 31//31
f 49//49 14//14 20//20
f 49//49 20//20 31//31
f 49//49 44//44 14//14
f 49//49 31//31 4//4
f 49//49 4//4 44//44
f 50//50 32//32 6//6
f 50//50 6//6 9//9
f 50//50 9//9 20//20
f 50//50 20//20 32//32
f 51//51 6//6 32//32
f 51//51 32//32 14//14
f 51//51 14//14 21//21
f 52//52 15//15 6//6
f 53//53 21//21 33//33
f 53//53 51//51 21//21
f 53//53 6//6 51//51
f 53//53 52//52 6//6
f 53//53 33//33 52//52
f 54//54 34//34 22//22
f 54//54 52//52 34//34
f 54//54 15//15 52//52
f 54//54 35//35 15//15
f 54//54 22//22 35//35
f 55//55 10//10 34//34
f 55//55 33//33 21//21
f 55//55 21//21 39//39
f 55//55 52//52 33//33
f 55//55 34//34 52//52
f 56//56 23//23 1//1
f 56//56 1//1 35//35
f 56//56 35//35 22//22
f 57//57 16//16 23//23
f 57//57 23//23 56//56
f 57//57 56//56 22//22
f 57//57 22//22 36//36
f 58//58 36//36 10//10
f 58//58 10//10 24//24
f 59//59 34//34 10//10
f 59//59 10//10 36//36
f 59//59 36//36 22//22
f 59//59 22//22 34//34
f 60//60 37//37 23//23
f 60//60 23//23 16//16
f 60//60 25//25 37//37
f 61//61 38//38 24//24
f 61//61 24//24 5//5
f 61//61 5//5 38//38
f 62//62 36//36 58//58
f 62//62 58//58 24//24
f 62//62 24//24 38//38
f 62//62 57//57 36//36
f 62//62 16//16 57//57
f 62//62 60//60 16//16
f 62//62 38//38 60//60
f 63//63 38//38 5//5
f 63//63 60//60 38//38
f 63//63 25//25 60//60
f 63//63 40//40 25//25
f 63//63 5//5 40//40
f 64//64 24//24 10//10
f 64//64 55//55 39//39
f 64//64 10//10 55//55
f 64//64 39//39 5//5
f 64//64 5//5 24//24

