# https://github.com/mikedh/trimesh
v -0.05135463 0.04359796 0.02057918
v -0.05237751 0.03248741 0.01801992
v -0.05136277 0.04717201 -0.01795612
v -0.06509154 0.03700143 -0.01761270
v -0.07490038 0.00909047 0.01634923
v -0.05782939 0.04984533 0.01169637
v -0.05180171 0.03440455 -0.01773060
v -0.06288273 0.00165936 0.01777216
v -0.05100878 0.05252545 0.01389458
v -0.06128328 0.04664692 -0.01347849
v -0.06533747 0.03905230 0.01807486
v -0.05273453 0.02772339 0.01041292
v -0.06456332 0.00905380 -0.01786373
v -0.05218090 0.03587874 0.02029245
v -0.05108612 0.05267136 -0.01266711
v -0.05105044 0.05032918 0.01802128
v -0.05928399 0.04523446 -0.01646607
v -0.06484193 0.02037761 0.02043259
v -0.06855885 0.03918315 0.00791542
v -0.05776637 0.01051063 -0.00914915
v -0.06061496 0.00167490 0.01541128
v -0.07308231 0.00908876 -0.01772730
v -0.05123488 0.04931129 -0.01693344
v -0.05792558 0.04979485 -0.00906904
v -0.05328473 0.05225468 0.01243031
v -0.05955267 0.04418761 0.01896960
v -0.05826079 0.04433193 -0.01747740
v -0.06508269 0.03921993 -0.01647924
v -0.07154117 0.02011437 0.01908926
v -0.06645544 0.00543821 0.01913982
v -0.06356163 0.04398112 0.01499624
v -0.06511780 0.04381010 -0.00308420
v -0.05274377 0.02638799 -0.00987332
v -0.06006703 0.00915827 -0.01446048
v -0.05278361 0.02879692 0.01369744
v -0.06088832 0.00159855 0.01607600
v -0.06634855 0.03453219 -0.01763389
v -0.07605929 0.02006197 -0.01151458
v -0.07467921 0.00424628 0.01660648
v -0.05317920 0.05112513 -0.01459850
v -0.05329075 0.05101705 0.01633026
v -0.05314736 0.05218880 -0.01135283
v -0.05138778 0.04821330 0.01930889
v -0.06092174 0.03865494 0.02029551
v -0.05463588 0.04668158 -0.01750429
v -0.06610314 0.04154149 -0.01361589
v -0.07478714 0.02242966 0.01300994
v -0.06989921 0.00548703 0.01921526
v -0.06981137 0.03549093 0.01396956
v -0.06141141 0.04429955 0.01803032
v -0.06265876 0.04625841 -0.00780350
v -0.06035761 0.04734870 0.01499574
v -0.06483665 0.04278941 0.01382299
v -0.05262313 0.02921849 -0.01450370
v -0.05284264 0.02632512 -0.00176993
v -0.06104992 0.00910914 -0.01558194
v -0.05886907 0.00919684 -0.01237609
v -0.06216080 0.00157320 0.01716715
v -0.06998654 0.02969608 -0.01665500
v -0.07615459 0.00904487 -0.01351058
v -0.07346341 0.00412732 0.01802046
v -0.05819831 0.04745550 -0.01537811
v -0.05122255 0.05176952 -0.01482244
v -0.05219739 0.05230617 -0.01259563
vn 0.64167129 0.08677320 0.76205536
vn 0.96667808 -0.19527203 0.16553648
vn 0.59153739 0.19137953 -0.78323521
vn -0.36845974 0.22905993 -0.90098223
vn -0.91720642 0.01905665 0.39795632
vn -0.55545727 0.82490769 0.10485476
vn 0.72870285 -0.10294707 -0.67704805
vn 0.14723508 -0.77957082 0.60876199
vn 0.58987599 0.78243615 0.19959956
vn -0.60898655 0.70240038 -0.36846856
vn -0.63232597 0.37425236 0.67830601
vn 0.97934063 -0.19782903 0.04189992
vn 0.15969726 -0.61136957 -0.77506389
vn 0.69563762 -0.12513680 0.70741013
vn 0.56939869 0.80046319 -0.18719991
vn 0.56763445 0.56039173 0.60311876
vn -0.45298449 0.51313977 -0.72903541
vn -0.04072409 -0.03275653 0.99863335
vn -0.85234561 0.52097075 0.04578694
vn 0.91859042 -0.38466885 -0.09067256
vn 0.58035475 -0.81395757 0.02571841
vn -0.41236669 -0.51901958 -0.74871382
vn 0.57852833 0.44939645 -0.68069655
vn -0.53205632 0.84295431 -0.07964990
vn -0.33145496 0.93572834 0.12062376
vn -0.30032987 0.41066659 0.86090355
vn -0.26856377 0.32298934 -0.90749732
vn -0.58247895 0.42964855 -0.69001478
vn -0.57246962 0.11526898 0.81178297
vn 0.08804291 -0.19539787 0.97676411
vn -0.73124723 0.62258835 0.27867768
vn -0.76451523 0.64458111 -0.00562657
vn 0.97180369 -0.22901133 -0.05613730
vn 0.60934877 -0.66599897 -0.43027835
vn 0.96520838 -0.23924598 0.10551848
vn 0.49476441 -0.81157364 0.31073526
vn -0.35204204 0.17456512 -0.91956154
vn -0.94505710 0.18845483 -0.26711768
vn -0.76243181 -0.60043245 0.24120242
vn -0.39221749 0.76277510 -0.51413966
vn -0.32861468 0.80427670 0.49512765
vn -0.38960833 0.91344391 -0.11758220
vn 0.36526168 0.37625826 0.85147732
vn -0.23782964 0.16398543 0.95736401
vn -0.25072313 0.42455721 -0.86999373
vn -0.77130071 0.53489135 -0.34494415
vn -0.94350247 0.20906093 0.25709262
vn -0.13734841 -0.23669277 0.96182740
vn -0.86514916 0.39168703 0.31320633
vn -0.53417295 0.52970683 0.65883984
vn -0.68133056 0.73019471 -0.05103275
vn -0.60491178 0.73864336 0.29746887
vn -0.76810710 0.61633371 0.17362097
vn 0.94303916 -0.27440698 -0.18809030
vn 0.97230290 -0.23338276 0.01263140
vn 0.47344626 -0.68168397 -0.55781324
vn 0.73151645 -0.62189582 -0.27951612
vn 0.30473828 -0.85800147 0.41348285
vn -0.68790919 0.25336693 -0.68013686
vn -0.79965927 -0.51701669 -0.30535027
vn -0.47732911 -0.57039997 0.66843159
vn -0.43648911 0.64573828 -0.62649766
vn 0.48064756 0.70704098 -0.51872051
vn -0.36464797 0.89491212 -0.25722392
f 12//12 7//7 1//1
f 12//12 1//1 2//2
f 13//13 3//3 7//7
f 14//14 2//2 1//1
f 16//16 1//1 7//7
f 16//16 15//15 9//9
f 16//16 7//7 15//15
f 18//18 14//14 1//1
f 21//21 2//2 14//14
f 22//22 3//3 13//13
f 22//22 13//13 21//21
f 23//23 15//15 7//7
f 23//23 7//7 3//3
f 25//25 9//9 15//15
f 25//25 24//24 6//6
f 27//27 3//3 4//4
f 28//28 27//27 4//4
f 28//28 17//17 27//27
f 30//30 8//8 14//14
f 30//30 14//14 18//18
f 33//33 7//7 12//12
f 33//33 21//21 20//20
f 35//35 21//21 12//12
f 35//35 12//12 2//2
f 35//35 2//2 21//21
f 36//36 21//21 14//14
f 37//37 4//4 3//3
f 37//37 3//3 22//22
f 41//41 16//16 9//9
f 41//41 9//9 25//25
f 42//42 25//25 15//15
f 42//42 24//24 25//25
f 42//42 40//40 10//10
f 42//42 10//10 24//24
f 43//43 1//1 16//16
f 43//43 16//16 26//26
f 44//44 18//18 1//1
f 44//44 43//43 26//26
f 44//44 1//1 43//43
f 44//44 29//29 18//18
f 44//44 26//26 11//11
f 44//44 11//11 29//29
f 45//45 23//23 3//3
f 45//45 3//3 27//27
f 45//45 27//27 17//17
f 46//46 10//10 17//17
f 46//46 17//17 28//28
f 46//46 38//38 19//19
f 46//46 19//19 32//32
f 47//47 5//5 29//29
f 47//47 38//38 5//5
f 47//47 19//19 38//38
f 48//48 30//30 18//18
f 48//48 18//18 29//29
f 48//48 8//8 30//30
f 49//49 11//11 31//31
f 49//49 19//19 47//47
f 49//49 47//47 29//29
f 49//49 29//29 11//11
f 50//50 31//31 11//11
f 50//50 11//11 26//26
f 50//50 26//26 16//16
f 50//50 16//16 41//41
f 51//51 24//24 10//10
f 51//51 46//46 32//32
f 51//51 10//10 46//46
f 51//51 32//32 6//6
f 51//51 6//6 24//24
f 52//52 6//6 32//32
f 52//52 31//31 50//50
f 52//52 50//50 41//41
f 52//52 41//41 25//25
f 52//52 25//25 6//6
f 53//53 32//32 19//19
f 53//53 52//52 32//32
f 53//53 31//31 52//52
f 53//53 49//49 31//31
f 53//53 19//19 49//49
f 54//54 33//33 20//20
f 54//54 7//7 33//33
f 55//55 33//33 12//12
f 55//55 12//12 21//21
f 55//55 21//21 33//33
f 56//56 13//13 7//7
f 56//56 7//7 34//34
f 56//56 34//34 21//21
f 56//56 21//21 13//13
f 57//57 20//20 21//21
f 57//57 21//21 34//34
f 57//57 54//54 20//20
f 57//57 34//34 7//7
f 57//57 7//7 54//54
f 58//58 36//36 14//14
f 58//58 14//14 8//8
f 58//58 22//22 21//21
f 58//58 21//21 36//36
f 58//58 8//8 39//39
f 59//59 28//28 4//4
f 59//59 4//4 37//37
f 59//59 46//46 28//28
f 59//59 38//38 46//46
f 59//59 37//37 22//22
f 59//59 22//22 38//38
f 60//60 38//38 22//22
f 60//60 58//58 39//39
f 60//60 22//22 58//58
f 60//60 39//39 5//5
f 60//60 5//5 38//38
f 61//61 29//29 5//5
f 61//61 5//5 39//39
f 61//61 48//48 29//29
f 61//61 39//39 8//8
f 61//61 8//8 48//48
f 62//62 17//17 10//10
f 62//62 10//10 40//40
f 62//62 45//45 17//17
f 62//62 40//40 23//23
f 62//62 23//23 45//45
f 63//63 15//15 23//23
f 63//63 23//23 40//40
f 64//64 42//42 15//15
f 64//64 40//40 42//42
f 64//64 63//63 40//40
f 64//64 15//15 63//63

