# https://github.com/mikedh/trimesh
v 0.06116730 -0.02317270 0.02355174
v 0.06517722 -0.03663338 0.01871370
v 0.06118916 -0.02318405 0.01307452
v 0.02253278 -0.03087237 0.01278835
v 0.02230039 -0.05006129 0.02057791
v 0.04215651 -0.05244054 0.01292843
v 0.04362380 -0.02453113 0.01271809
v 0.05922885 -0.03783301 0.02192651
v 0.02258589 -0.03493792 0.02113336
v 0.06456767 -0.04040397 0.01394052
v 0.02246170 -0.05482355 0.01295053
v 0.05142763 -0.02408478 0.02209872
v 0.05124358 -0.04961837 0.01291453
v 0.06069407 -0.03656790 0.02204398
v 0.03022219 -0.04469356 0.02222368
v 0.04346503 -0.04931522 0.01924936
v 0.02252656 -0.03116494 0.01425654
v 0.03310519 -0.05420646 0.01292271
v 0.05308838 -0.04877677 0.01300440
v 0.05992803 -0.04168743 0.01920007
v 0.06454573 -0.03631842 0.01973907
v 0.02555680 -0.04017790 0.02232495
v 0.03946980 -0.04458790 0.02209238
v 0.04669542 -0.05070411 0.01578865
v 0.02263722 -0.03246112 0.01867916
v 0.03448492 -0.05241956 0.01810863
v 0.05898625 -0.04092177 0.02058941
v 0.05271610 -0.04802924 0.01684234
v 0.06028244 -0.04215203 0.01840270
v 0.02563902 -0.03728383 0.02226047
v 0.03466269 -0.04992608 0.02053788
v 0.02243959 -0.05273588 0.01828644
v 0.03300058 -0.05377026 0.01570142
v 0.04208822 -0.05084231 0.01792926
v 0.05263346 -0.04641839 0.01897272
v 0.05106899 -0.04920280 0.01565359
v 0.06463510 -0.03763474 0.01844975
v 0.04197465 -0.04836524 0.02045011
v 0.03613760 -0.05117312 0.01920729
v 0.02242573 -0.05425484 0.01568293
v 0.04221082 -0.05224094 0.01424702
v 0.04983319 -0.04930494 0.01670463
v 0.04066190 -0.05228102 0.01562264
v 0.06424809 -0.03721517 0.01924982
v 0.05447301 -0.04366076 0.02046774
v 0.04523589 -0.05069404 0.01668315
vn 0.45809183 0.62558086 0.63150651
vn 0.96378005 -0.13138523 0.23209034
vn 0.47376701 0.65337196 -0.59046584
vn -0.63995744 0.53739297 -0.54923882
vn -0.66884301 -0.32445567 0.66886288
vn 0.18263855 -0.74743489 -0.63873644
vn -0.17277562 0.75225848 -0.63581111
vn 0.16544153 -0.29523502 0.94099170
vn -0.71986740 0.27827418 0.63588868
vn 0.76691887 -0.41914433 -0.48595625
vn -0.54909612 -0.65623711 -0.51753871
vn -0.18596127 0.81121573 0.55438926
vn 0.29053864 -0.71421207 -0.63677972
vn 0.32181170 -0.24521694 0.91449761
vn -0.02350555 -0.17098118 0.98499387
vn 0.21677512 -0.69080677 0.68977863
vn -0.79173343 0.59333102 0.14531505
vn 0.09544260 -0.76971474 -0.63121306
vn 0.43571536 -0.67586073 -0.59444461
vn 0.49398933 -0.61002953 0.61954702
vn 0.70186806 -0.22511503 0.67579912
vn -0.21166740 -0.03519439 0.97670787
vn 0.05453567 -0.22155410 0.97362192
vn 0.27883672 -0.92033673 0.27428159
vn -0.73653906 0.57692766 0.35307888
vn 0.10264291 -0.81865443 0.56503925
vn 0.37780427 -0.51492334 0.76949197
vn 0.44232204 -0.80236492 0.40070156
vn 0.55587254 -0.70337312 0.44302592
vn -0.17811133 0.11067748 0.97776626
vn 0.05146512 -0.51396563 0.85626554
vn -0.61213587 -0.61616990 0.49560501
vn 0.10403066 -0.94591571 0.30728015
vn 0.20482826 -0.81283305 0.54529609
vn 0.31509823 -0.66834838 0.67381270
vn 0.37808414 -0.89341654 0.24260930
vn 0.69884667 -0.55890783 0.44635790
vn 0.14701927 -0.50536636 0.85028829
vn 0.13398130 -0.71009715 0.69123878
vn -0.65292196 -0.71114572 0.26070036
vn 0.23459778 -0.95595198 0.17640772
vn 0.29887868 -0.83312859 0.46536897
vn 0.20075281 -0.92934413 0.30986739
vn 0.58428176 -0.53899450 0.60671225
vn 0.24057854 -0.49283598 0.83620253
vn 0.23560198 -0.86145025 0.44988351
f 1//1 2//2 3//3
f 7//7 1//1 3//3
f 10//10 3//3 2//2
f 11//11 5//5 4//4
f 12//12 1//1 7//7
f 12//12 9//9 1//1
f 13//13 7//7 3//3
f 17//17 4//4 5//5
f 17//17 5//5 9//9
f 17//17 12//12 7//7
f 17//17 7//7 4//4
f 18//18 13//13 6//6
f 18//18 7//7 13//13
f 18//18 11//11 4//4
f 18//18 4//4 7//7
f 19//19 13//13 3//3
f 19//19 3//3 10//10
f 21//21 2//2 1//1
f 21//21 1//1 14//14
f 22//22 9//9 5//5
f 22//22 5//5 15//15
f 22//22 15//15 1//1
f 23//23 14//14 1//1
f 23//23 1//1 15//15
f 23//23 8//8 14//14
f 24//24 6//6 13//13
f 25//25 17//17 9//9
f 25//25 9//9 12//12
f 25//25 12//12 17//17
f 27//27 14//14 8//8
f 27//27 21//21 14//14
f 27//27 20//20 21//21
f 28//28 19//19 10//10
f 29//29 28//28 10//10
f 30//30 22//22 1//1
f 30//30 1//1 9//9
f 30//30 9//9 22//22
f 31//31 23//23 15//15
f 31//31 15//15 5//5
f 32//32 31//31 5//5
f 32//32 26//26 31//31
f 33//33 11//11 18//18
f 35//35 20//20 27//27
f 35//35 29//29 20//20
f 35//35 28//28 29//29
f 36//36 24//24 13//13
f 36//36 13//13 19//19
f 36//36 19//19 28//28
f 37//37 29//29 10//10
f 37//37 10//10 2//2
f 37//37 2//2 21//21
f 38//38 8//8 23//23
f 38//38 23//23 31//31
f 38//38 16//16 35//35
f 39//39 31//31 26//26
f 39//39 38//38 31//31
f 39//39 16//16 38//38
f 39//39 34//34 16//16
f 39//39 26//26 34//34
f 40//40 32//32 5//5
f 40//40 5//5 11//11
f 40//40 11//11 33//33
f 40//40 33//33 26//26
f 40//40 26//26 32//32
f 41//41 33//33 18//18
f 41//41 18//18 6//6
f 41//41 6//6 24//24
f 42//42 28//28 35//35
f 42//42 35//35 16//16
f 42//42 16//16 34//34
f 42//42 36//36 28//28
f 42//42 24//24 36//36
f 43//43 41//41 24//24
f 43//43 33//33 41//41
f 43//43 34//34 26//26
f 43//43 26//26 33//33
f 44//44 37//37 21//21
f 44//44 21//21 20//20
f 44//44 20//20 29//29
f 44//44 29//29 37//37
f 45//45 27//27 8//8
f 45//45 8//8 38//38
f 45//45 38//38 35//35
f 45//45 35//35 27//27
f 46//46 42//42 34//34
f 46//46 24//24 42//42
f 46//46 43//43 24//24
f 46//46 34//34 43//43

