# https://github.com/mikedh/trimesh
v 0.04508057 0.08136110 0.03158969
v 0.04493955 -0.03064593 0.02832564
v 0.03397663 0.09778079 -0.02564299
v -0.03720491 0.09748752 -0.02115863
v -0.03925365 0.06475885 0.03246997
v 0.01683880 -0.03102334 -0.02227861
v 0.04551574 0.09930663 0.02249799
v 0.01298900 0.02247300 0.03158800
v 0.04486137 -0.03054296 -0.01270172
v 0.02027398 0.09725139 -0.02754473
v -0.03764539 0.03491354 -0.01473573
v 0.00133249 -0.03036425 0.02824463
v -0.05297547 0.09837109 -0.01472701
v -0.03881849 0.08149821 0.02785699
v 0.04613725 0.06423391 0.03157247
v 0.03414118 -0.03068984 -0.02229591
v 0.04541094 0.09635774 -0.01755694
v -0.03104812 0.04032770 -0.02086353
v 0.00177070 -0.02975778 -0.01256896
v -0.03784589 0.04030739 0.02212615
v -0.03926000 0.07347800 0.03150500
v -0.00442120 0.07969784 0.03121452
v -0.03853055 0.09745575 0.01759007
v 0.02678844 0.04339445 -0.02534029
v 0.04284600 -0.00748600 -0.01854600
v -0.03635218 0.03690367 -0.01901639
v -0.06396867 0.09531961 0.00683637
v -0.00569261 0.09782674 0.02191357
v 0.02181108 0.04246990 -0.02552662
vn 0.58516104 0.20496598 0.78458620
vn 0.57731493 -0.59283500 0.56147497
vn 0.28841783 0.64461877 -0.70801256
vn -0.18687659 0.59985489 -0.77797895
vn -0.47892840 -0.09209791 0.87300949
vn -0.14521902 -0.70937330 -0.68971078
vn 0.59382340 0.69153741 0.41127823
vn 0.00649294 -0.03858434 0.99923425
vn 0.71057996 -0.64339261 -0.28481936
vn 0.00200574 0.60474711 -0.79641504
vn -0.87851826 -0.42591590 -0.21633610
vn -0.40496944 -0.69886487 0.58956564
vn -0.58470272 0.59864915 -0.54748691
vn -0.25790525 0.45278088 0.85350709
vn 0.71681631 -0.00369675 0.69725226
vn 0.25738971 -0.65791084 -0.70774562
vn 0.74985737 0.53576705 -0.38815924
vn -0.20133346 -0.06241087 -0.97753246
vn -0.54672102 -0.76818169 -0.33315613
vn -0.84066287 -0.39297322 0.37263654
vn -0.33975772 0.21772594 0.91496454
vn -0.02867474 0.29237736 0.95587303
vn -0.17578424 0.84283590 0.50865268
vn 0.09785053 -0.03074655 -0.99472605
vn 0.72717164 -0.03263319 -0.68567957
vn -0.62518634 -0.24908758 -0.73966034
vn -0.87854150 0.44766051 0.16662804
vn -0.04702489 0.80766809 0.58775924
vn -0.01608181 -0.03781209 -0.99915545
f 9//9 2//2 6//6
f 12//12 6//6 2//2
f 12//12 8//8 5//5
f 12//12 2//2 8//8
f 13//13 7//7 3//3
f 13//13 10//10 4//4
f 13//13 3//3 10//10
f 15//15 7//7 1//1
f 15//15 2//2 9//9
f 15//15 8//8 2//2
f 15//15 1//1 5//5
f 15//15 5//5 8//8
f 16//16 9//9 6//6
f 17//17 3//3 7//7
f 17//17 15//15 9//9
f 17//17 7//7 15//15
f 18//18 10//10 6//6
f 18//18 4//4 10//10
f 19//19 12//12 11//11
f 19//19 6//6 12//12
f 20//20 12//12 5//5
f 20//20 11//11 12//12
f 22//22 1//1 7//7
f 22//22 14//14 21//21
f 22//22 21//21 5//5
f 22//22 5//5 1//1
f 23//23 7//7 13//13
f 24//24 10//10 3//3
f 24//24 3//3 16//16
f 25//25 16//16 3//3
f 25//25 3//3 17//17
f 25//25 17//17 9//9
f 25//25 9//9 16//16
f 26//26 18//18 6//6
f 26//26 13//13 4//4
f 26//26 4//4 18//18
f 26//26 19//19 11//11
f 26//26 6//6 19//19
f 27//27 11//11 20//20
f 27//27 26//26 11//11
f 27//27 13//13 26//26
f 27//27 20//20 5//5
f 27//27 5//5 21//21
f 27//27 21//21 14//14
f 27//27 23//23 13//13
f 27//27 14//14 23//23
f 28//28 22//22 7//7
f 28//28 14//14 22//22
f 28//28 23//23 14//14
f 28//28 7//7 23//23
f 29//29 24//24 16//16
f 29//29 16//16 6//6
f 29//29 6//6 10//10
f 29//29 10//10 24//24

