# https://github.com/mikedh/trimesh
v 0.01331605 -0.01946827 0.03136299
v 0.02003381 -0.03010193 0.02389572
v 0.01394485 -0.01360400 0.02452642
v -0.00872774 -0.01432307 0.02137161
v -0.00009435 -0.04600531 0.02328260
v 0.01423300 -0.04097200 0.01963400
v 0.00115279 -0.01070932 0.02588780
v 0.01807714 -0.01757324 0.02489084
v 0.01309551 -0.02720449 0.03141027
v -0.00822661 -0.03735746 0.02249042
v 0.01298900 -0.01484800 0.02630900
v 0.01687706 -0.01953099 0.02766495
v 0.01785934 -0.03701525 0.02114754
v -0.00074526 -0.04649008 0.02215692
v 0.00054900 -0.02728800 0.03050200
v 0.01726171 -0.03267587 0.02538374
v 0.00289779 -0.04575904 0.02349043
v -0.00799312 -0.03708464 0.02342492
v 0.00138172 -0.02068405 0.03146585
v 0.00578267 -0.04603065 0.02123047
v 0.01650486 -0.03516890 0.02383001
v 0.01297605 -0.03572657 0.02546165
v -0.00733074 -0.01544250 0.02365386
v -0.00047399 -0.01442879 0.02711678
vn 0.37186057 0.31917047 0.87169371
vn 0.99520757 -0.07796397 -0.05902128
vn 0.46995225 0.83094387 -0.29778711
vn -0.74348995 0.53974921 -0.39483349
vn -0.21884442 -0.67911229 0.70065228
vn 0.55109617 -0.63659382 -0.53948245
vn -0.11690827 0.97903777 0.16678582
vn 0.83538688 0.49135955 -0.24636265
vn 0.34950221 -0.21346025 0.91229542
vn -0.82834302 -0.33768939 -0.44700528
vn 0.24384349 0.72608318 0.64291801
vn 0.76098504 0.21509782 0.61207409
vn 0.83262702 -0.44087875 -0.33519871
vn -0.45077282 -0.82688483 -0.33625190
vn -0.33051184 -0.18312125 0.92586637
vn 0.57133370 -0.45267607 0.68458906
vn 0.14837086 -0.73002093 0.66712483
vn -0.75419230 -0.27673799 0.59549145
vn -0.30789552 0.16859056 0.93636402
vn 0.31122844 -0.87020256 -0.38194811
vn 0.46848393 -0.57549489 0.67031966
vn 0.39446845 -0.54050861 0.74313194
vn -0.67363155 0.29584437 0.67727147
vn -0.43462148 0.43541641 0.78836332
f 6//6 4//4 3//3
f 7//7 3//3 4//4
f 8//8 3//3 1//1
f 10//10 4//4 6//6
f 11//11 7//7 1//1
f 11//11 1//1 3//3
f 11//11 3//3 7//7
f 12//12 8//8 1//1
f 12//12 2//2 8//8
f 12//12 9//9 2//2
f 12//12 1//1 9//9
f 13//13 6//6 3//3
f 13//13 3//3 8//8
f 13//13 8//8 2//2
f 14//14 10//10 6//6
f 15//15 5//5 9//9
f 16//16 13//13 2//2
f 16//16 2//2 9//9
f 17//17 5//5 14//14
f 17//17 9//9 5//5
f 18//18 14//14 5//5
f 18//18 10//10 14//14
f 18//18 5//5 15//15
f 18//18 4//4 10//10
f 19//19 15//15 9//9
f 19//19 9//9 1//1
f 19//19 1//1 7//7
f 19//19 18//18 15//15
f 20//20 6//6 13//13
f 20//20 17//17 14//14
f 20//20 14//14 6//6
f 21//21 13//13 16//16
f 21//21 16//16 17//17
f 21//21 20//20 13//13
f 21//21 17//17 20//20
f 22//22 17//17 16//16
f 22//22 16//16 9//9
f 22//22 9//9 17//17
f 23//23 7//7 4//4
f 23//23 4//4 18//18
f 23//23 18//18 19//19
f 24//24 23//23 19//19
f 24//24 19//19 7//7
f 24//24 7//7 23//23

