# https://github.com/mikedh/trimesh
v 0.06585108 -0.06693539 0.02700839
v 0.07556393 -0.12795150 0.01502899
v 0.07631303 -0.05802047 0.00695214
v 0.06761312 -0.05590046 -0.01195411
v 0.06532987 -0.13686294 -0.01610546
v 0.06523800 -0.05850600 0.02126300
v 0.06798729 -0.06695070 0.02628736
v 0.06556993 -0.12487807 0.02801583
v 0.07643158 -0.11090322 -0.00964086
v 0.07641966 -0.05557546 -0.01013490
v 0.07643400 -0.06212000 0.00971100
v 0.06753854 -0.06023926 0.02093947
v 0.06675124 -0.13975004 0.01171400
v 0.07274937 -0.12556188 0.02248407
v 0.07547263 -0.13692029 -0.00239085
v 0.07490015 -0.10730071 -0.01218528
v 0.07498751 -0.08274257 -0.01169773
v 0.06833438 -0.12501311 0.02630720
v 0.07526908 -0.11303987 0.01632702
v 0.07542658 -0.13669458 0.00632930
v 0.07350034 -0.13554572 -0.00934113
v 0.06736472 -0.14036976 -0.00706825
v 0.07147822 -0.11432861 0.02371964
v 0.06653385 -0.13511797 0.02070918
v 0.07521882 -0.13157904 -0.00746355
v 0.06720344 -0.14038118 -0.00709415
v 0.06916418 -0.13688942 -0.01237666
v 0.06766065 -0.13478378 0.01983566
v 0.06764399 -0.13920847 0.01242985
vn -0.47455310 0.24476672 0.84551086
vn 0.93953370 -0.20488610 0.27440503
vn 0.74130824 0.64045348 0.20070234
vn -0.49719040 0.60390828 -0.62297391
vn -0.37922062 -0.48688422 -0.78685162
vn -0.45576645 0.74395270 0.48868324
vn 0.59549246 0.25984497 0.76017716
vn -0.43974947 -0.24810934 0.86316983
vn 0.94819894 -0.05248305 -0.31331181
vn 0.61197577 0.63842337 -0.46679895
vn 0.94227520 0.15459042 0.29701725
vn 0.60985982 0.56751814 0.55316738
vn -0.47264465 -0.85969221 0.19374295
vn 0.77278149 -0.23504294 0.58954523
vn 0.81529518 -0.57128784 -0.09446681
vn 0.63090618 -0.01053691 -0.77578758
vn 0.41312297 0.02943634 -0.91019938
vn 0.55684006 -0.24638477 0.79323621
vn 0.94700384 0.01654009 0.32079612
vn 0.80432964 -0.57650300 0.14386839
vn 0.72664795 -0.45396015 -0.51565777
vn 0.28234319 -0.94082698 -0.18742176
vn 0.72866098 0.01521035 0.68470564
vn -0.36137681 -0.70833649 0.60635486
vn 0.93341167 -0.12361733 -0.33684034
vn -0.41067084 -0.90112039 -0.13903776
vn 0.51673749 -0.69640520 -0.49799816
vn 0.61720702 -0.60728594 0.50025921
vn 0.38541979 -0.84769003 0.36451776
f 6//6 4//4 5//5
f 7//7 6//6 1//1
f 8//8 6//6 5//5
f 8//8 1//1 6//6
f 8//8 7//7 1//1
f 10//10 6//6 3//3
f 10//10 4//4 6//6
f 11//11 3//3 7//7
f 11//11 2//2 9//9
f 11//11 10//10 3//3
f 11//11 9//9 10//10
f 12//12 7//7 3//3
f 12//12 3//3 6//6
f 12//12 6//6 7//7
f 14//14 11//11 7//7
f 16//16 10//10 9//9
f 17//17 5//5 4//4
f 17//17 4//4 10//10
f 17//17 16//16 5//5
f 17//17 10//10 16//16
f 18//18 7//7 8//8
f 19//19 14//14 2//2
f 19//19 2//2 11//11
f 19//19 11//11 14//14
f 20//20 2//2 14//14
f 20//20 15//15 9//9
f 20//20 9//9 2//2
f 21//21 16//16 9//9
f 21//21 5//5 16//16
f 22//22 21//21 15//15
f 22//22 20//20 13//13
f 22//22 15//15 20//20
f 23//23 18//18 14//14
f 23//23 14//14 7//7
f 23//23 7//7 18//18
f 24//24 18//18 8//8
f 24//24 14//14 18//18
f 24//24 8//8 5//5
f 24//24 5//5 13//13
f 25//25 21//21 9//9
f 25//25 9//9 15//15
f 25//25 15//15 21//21
f 26//26 22//22 13//13
f 26//26 13//13 5//5
f 26//26 5//5 22//22
f 27//27 22//22 5//5
f 27//27 5//5 21//21
f 27//27 21//21 22//22
f 28//28 20//20 14//14
f 28//28 14//14 24//24
f 29//29 24//24 13//13
f 29//29 13//13 20//20
f 29//29 28//28 24//24
f 29//29 20//20 28//28

