# https://github.com/mikedh/trimesh
v -0.03885782 -0.01390499 0.02643985
v -0.02920539 -0.10896628 0.01782442
v -0.03422594 -0.03248078 -0.02234780
v -0.06219436 -0.06062236 -0.03912784
v -0.07744177 -0.09968686 -0.00864417
v -0.03540178 -0.10073139 -0.02844566
v -0.07726884 -0.00001713 -0.01860744
v -0.03707226 0.00027839 0.01837255
v -0.05286576 -0.10940991 0.02491414
v -0.05523434 -0.06286307 -0.03926921
v -0.06090743 -0.10374315 -0.03972575
v -0.03172172 -0.08774905 0.02137053
v -0.05476629 0.00172724 0.01729649
v -0.04136581 0.00102382 -0.01670632
v -0.05469566 -0.09807923 -0.03886896
v -0.06787450 -0.10192564 -0.03221559
v -0.06783955 -0.12433573 0.00004434
v -0.03150358 -0.11015492 0.02496770
v -0.04998213 -0.01336162 0.02601962
v -0.07791270 0.00053975 -0.00609969
v -0.03640624 -0.01144136 -0.02013325
v -0.04174800 0.00256900 -0.01482800
v -0.05443900 0.00008100 -0.01854600
v -0.05775020 -0.10525668 -0.03910400
v -0.06456911 -0.10357635 -0.03585941
v -0.07657409 -0.07703442 -0.01729399
v -0.03610563 -0.10375338 -0.02775378
v -0.06800083 -0.12187427 0.00258759
v -0.07080122 -0.12164286 -0.00469956
v -0.06175293 -0.12164876 0.00972534
v -0.03801667 -0.08522422 0.02600225
v -0.05917656 -0.02850874 0.02243670
v -0.05744229 -0.06064999 -0.03880640
v -0.07678102 -0.10441435 -0.01108402
v -0.05644145 -0.07579348 0.02371223
v -0.07689716 -0.10327839 -0.00914812
v -0.05250759 -0.08081981 0.02587765
v -0.05310171 -0.01741770 0.02579203
vn 0.50295423 0.20719158 0.83911185
vn 0.87004218 -0.49164677 0.03619481
vn 0.86302836 0.10842919 -0.49338135
vn -0.38796757 0.12600068 -0.91301971
vn -0.97599626 -0.06473472 0.20794404
vn 0.80580058 -0.13596984 -0.57636588
vn -0.60605661 0.60633996 -0.51482738
vn 0.61121969 0.66369805 0.43117907
vn -0.37056413 -0.35911053 0.85657565
vn 0.27042753 0.11037407 -0.95639245
vn -0.33690287 -0.36021377 -0.86990948
vn 0.94678471 0.06647926 0.31492732
vn -0.30483087 0.76965204 0.56099366
vn 0.52090331 0.57254483 -0.63312887
vn 0.33170980 -0.05539308 -0.94175380
vn -0.82037892 -0.23205703 -0.52261645
vn -0.32222087 -0.94372643 0.07452602
vn 0.55772240 -0.51410142 0.65164826
vn -0.19003179 0.27461758 0.94258851
vn -0.74775706 0.62713206 0.21809348
vn 0.73225575 0.30384253 -0.60949261
vn 0.45730059 0.84920050 -0.26407325
vn 0.03356382 0.59486358 -0.80312564
vn 0.13521526 -0.59575224 -0.79170456
vn -0.70782469 -0.36134238 -0.60697273
vn -0.94966935 -0.02335364 -0.31238234
vn 0.65466905 -0.59057380 -0.47183792
vn -0.78497604 -0.34577856 0.51405234
vn -0.70085504 -0.69880633 -0.14308015
vn -0.24975984 -0.82843125 0.50131995
vn 0.05833436 -0.01579940 0.99817207
vn -0.68676484 0.03424303 0.72607263
vn 0.08313023 0.29479726 -0.95193694
vn -0.94646412 -0.25732826 -0.19490467
vn -0.67588945 -0.02638664 0.73653051
vn -0.95814630 -0.20203863 0.20282025
vn -0.26424860 -0.01829986 0.96428097
vn -0.42644310 0.12884585 0.89529047
f 6//6 3//3 2//2
f 8//8 2//2 3//3
f 10//10 3//3 6//6
f 11//11 4//4 10//10
f 12//12 8//8 1//1
f 12//12 2//2 8//8
f 15//15 11//11 10//10
f 15//15 10//10 6//6
f 16//16 7//7 4//4
f 18//18 2//2 12//12
f 18//18 17//17 2//2
f 18//18 12//12 1//1
f 19//19 1//1 8//8
f 19//19 8//8 13//13
f 20//20 7//7 5//5
f 21//21 8//8 3//3
f 21//21 3//3 10//10
f 21//21 10//10 14//14
f 22//22 13//13 8//8
f 22//22 21//21 14//14
f 22//22 8//8 21//21
f 22//22 20//20 13//13
f 22//22 7//7 20//20
f 23//23 4//4 7//7
f 23//23 22//22 14//14
f 23//23 7//7 22//22
f 24//24 15//15 6//6
f 24//24 11//11 15//15
f 25//25 16//16 4//4
f 25//25 4//4 11//11
f 26//26 5//5 7//7
f 26//26 7//7 16//16
f 27//27 6//6 2//2
f 27//27 2//2 17//17
f 27//27 24//24 6//6
f 27//27 17//17 24//24
f 29//29 16//16 25//25
f 29//29 25//25 11//11
f 29//29 24//24 17//17
f 29//29 11//11 24//24
f 29//29 17//17 28//28
f 30//30 18//18 9//9
f 30//30 17//17 18//18
f 30//30 28//28 17//17
f 30//30 9//9 28//28
f 31//31 18//18 1//1
f 31//31 9//9 18//18
f 32//32 20//20 5//5
f 33//33 10//10 4//4
f 33//33 4//4 23//23
f 33//33 23//23 14//14
f 33//33 14//14 10//10
f 34//34 26//26 16//16
f 34//34 5//5 26//26
f 34//34 16//16 29//29
f 35//35 28//28 9//9
f 35//35 5//5 28//28
f 35//35 32//32 5//5
f 36//36 29//29 28//28
f 36//36 28//28 5//5
f 36//36 34//34 29//29
f 36//36 5//5 34//34
f 37//37 9//9 31//31
f 37//37 35//35 9//9
f 37//37 32//32 35//35
f 37//37 31//31 1//1
f 37//37 1//1 19//19
f 38//38 19//19 13//13
f 38//38 13//13 20//20
f 38//38 20//20 32//32
f 38//38 37//37 19//19
f 38//38 32//32 37//37

