# https://github.com/mikedh/trimesh
v 0.00068506 0.04112525 0.02450390
v 0.00199230 -0.06931839 -0.01284307
v 0.00200559 0.04070819 -0.01542948
v -0.03635218 0.03690367 -0.01901639
v -0.03842887 -0.08150255 0.02711425
v -0.01553250 -0.00586818 -0.02645660
v -0.03784589 0.04030739 0.02212615
v 0.00423241 0.00039270 -0.01767470
v 0.00128509 -0.03168044 0.02785323
v -0.01577163 0.04064146 -0.02096310
v -0.03728374 -0.08275810 -0.01694604
v -0.00318300 -0.05714400 -0.02028600
v -0.01587906 -0.07975528 0.01585027
v -0.03885782 -0.01390499 0.02643985
v 0.00185687 -0.01225311 0.02658231
v -0.01811100 0.00160309 -0.02676263
v -0.03920191 0.03740077 -0.01478096
v -0.00344786 0.04130083 -0.01611485
v -0.03196631 -0.05014834 -0.02482179
v -0.01571346 -0.07589619 -0.01854617
v -0.02565979 -0.08316218 0.02126521
v -0.00074526 -0.04649008 0.02215692
v -0.04262795 0.03511094 -0.01346343
v -0.01661349 -0.05037961 -0.02465254
v -0.03055200 0.00132500 -0.02491700
v -0.01183050 -0.06708796 -0.02104782
v -0.02924673 -0.09362444 0.00769047
v -0.03438562 -0.08126492 0.02637852
v -0.04289070 0.00056566 -0.01431495
v -0.02805192 0.00227463 -0.02524109
v -0.03079709 -0.06691050 -0.02098778
v -0.03284412 -0.08791302 0.02290295
v -0.03779497 -0.08948921 0.02435230
v -0.03891885 -0.00797538 -0.02101630
v -0.02728847 -0.08618321 0.01934973
v -0.02696876 -0.08429004 0.02135712
v -0.03801600 0.00345000 -0.02103400
vn 0.53853541 0.60526697 0.58620091
vn 0.82543799 -0.47563175 -0.30401738
vn 0.67190925 0.59143352 -0.44580753
vn -0.39400387 0.56540708 -0.72462113
vn -0.62224020 -0.19794287 0.75738745
vn 0.21954617 -0.00217182 -0.97559969
vn -0.56114209 0.61389529 0.55520459
vn 0.84776022 0.02752173 -0.52966515
vn 0.67590771 -0.07186876 0.73347368
vn 0.02300891 0.71404157 -0.69972511
vn -0.54818642 -0.57932121 -0.60322350
vn 0.52102093 -0.13155764 -0.84334440
vn 0.66879648 -0.58043829 0.46454566
vn -0.67614858 0.02841286 0.73621723
vn 0.84427695 0.02168432 0.53546823
vn 0.08939528 0.07573370 -0.99311273
vn -0.44069277 0.86147857 -0.25227874
vn 0.08604255 0.96521275 -0.24690288
vn -0.35578523 -0.09956183 -0.92924933
vn 0.26523335 -0.62172430 -0.73696008
vn 0.49780730 -0.45396302 0.73898949
vn 0.78574842 -0.33852523 0.51768724
vn -0.87731732 0.38597833 -0.28519301
vn 0.13009452 -0.10609523 -0.98580892
vn -0.29502189 0.05404775 -0.95396065
vn 0.23426254 -0.29060226 -0.92772377
vn 0.06364467 -0.99777622 -0.01979842
vn 0.29080047 -0.27430829 0.91661881
vn -0.97406393 -0.00181979 -0.22626566
vn -0.15341851 0.10081597 -0.98300504
vn -0.02593572 -0.23134059 -0.97252705
vn 0.43746511 -0.61828361 0.65295456
vn -0.47034388 -0.68044768 0.56193202
vn -0.69371648 -0.00767372 -0.72020730
vn 0.52768035 -0.72175016 0.44791759
vn 0.52450838 -0.58284698 0.62062900
vn -0.59277678 0.05900374 -0.80320250
f 8//8 3//3 1//1
f 8//8 6//6 3//3
f 9//9 2//2 8//8
f 12//12 8//8 2//2
f 12//12 6//6 8//8
f 14//14 5//5 9//9
f 14//14 9//9 1//1
f 14//14 1//1 7//7
f 15//15 9//9 8//8
f 15//15 8//8 1//1
f 15//15 1//1 9//9
f 16//16 4//4 10//10
f 16//16 10//10 3//3
f 16//16 3//3 6//6
f 17//17 10//10 4//4
f 17//17 7//7 10//10
f 18//18 10//10 7//7
f 18//18 7//7 1//1
f 18//18 1//1 3//3
f 18//18 3//3 10//10
f 19//19 16//16 6//6
f 22//22 13//13 2//2
f 22//22 2//2 9//9
f 22//22 21//21 13//13
f 22//22 9//9 21//21
f 23//23 14//14 7//7
f 23//23 7//7 17//17
f 23//23 17//17 4//4
f 24//24 19//19 6//6
f 24//24 6//6 12//12
f 25//25 16//16 19//19
f 26//26 12//12 2//2
f 26//26 2//2 20//20
f 26//26 24//24 12//12
f 26//26 19//19 24//24
f 26//26 20//20 11//11
f 27//27 11//11 20//20
f 27//27 20//20 2//2
f 27//27 2//2 13//13
f 28//28 21//21 9//9
f 28//28 9//9 5//5
f 29//29 5//5 14//14
f 29//29 14//14 23//23
f 29//29 11//11 5//5
f 30//30 25//25 4//4
f 30//30 4//4 16//16
f 30//30 16//16 25//25
f 31//31 26//26 11//11
f 31//31 11//11 19//19
f 31//31 19//19 26//26
f 32//32 21//21 28//28
f 33//33 5//5 11//11
f 33//33 11//11 27//27
f 33//33 27//27 32//32
f 33//33 32//32 28//28
f 33//33 28//28 5//5
f 34//34 19//19 11//11
f 34//34 11//11 29//29
f 34//34 25//25 19//19
f 34//34 29//29 23//23
f 35//35 32//32 27//27
f 35//35 27//27 13//13
f 35//35 13//13 32//32
f 36//36 32//32 13//13
f 36//36 13//13 21//21
f 36//36 21//21 32//32
f 37//37 4//4 25//25
f 37//37 25//25 34//34
f 37//37 34//34 23//23
f 37//37 23//23 4//4

