# https://github.com/mikedh/trimesh
v -0.03926711 0.07724123 0.03019590
v -0.02964267 -0.01293656 0.01732565
v -0.02974142 0.09621811 0.00235144
v -0.05489247 0.12945136 -0.03740120
v -0.07597123 -0.04707063 -0.02091602
v -0.03635218 0.03690367 -0.01901639
v -0.05736700 0.13941100 0.00384600
v -0.02573190 0.02936725 0.01944821
v -0.05774768 -0.02896416 0.02424398
v -0.03592900 0.05481800 -0.01854600
v -0.06225985 -0.03181142 -0.03846118
v -0.04021115 0.09826172 0.02481692
v -0.07666343 0.11188171 -0.01050692
v -0.03544741 0.02036248 0.02928743
v -0.02551793 0.01351941 0.01877821
v -0.05602479 -0.04750879 -0.02052767
v -0.05942726 0.01518891 -0.03864872
v -0.06170066 0.13082124 0.01632909
v -0.07201020 0.13131276 -0.01487287
v -0.07791270 0.00053975 -0.00609969
v -0.06543660 0.09641169 -0.03852311
v -0.03541226 0.02867784 0.02964194
v -0.03304000 -0.01360400 0.02398500
v -0.05446827 -0.02982531 0.02599373
v -0.06290108 -0.04966902 -0.02976726
v -0.05933092 -0.03100405 -0.03491893
v -0.05155280 0.07720838 0.03015645
v -0.06041065 0.13067945 -0.03391231
v -0.07187849 0.13124535 -0.00068170
v -0.07726884 -0.00001713 -0.01860744
v -0.07191172 -0.02945899 -0.00299960
v -0.06782939 0.12755622 0.01155576
v -0.06712116 0.02656570 -0.03818486
v -0.06299852 0.09802999 -0.03881836
v -0.06787200 0.11724853 -0.03269896
v -0.02861742 0.01363430 0.02375100
v -0.04832578 0.01987693 0.03133628
v -0.06787200 -0.04711242 -0.03051047
v -0.07684400 0.11328600 -0.00361800
v -0.07756297 0.09632230 -0.00449950
v -0.05917656 -0.02850874 0.02243670
v -0.05834500 0.08467400 0.02499500
v -0.05933913 0.02660744 -0.03883775
v -0.06538400 -0.03069000 -0.03845000
v -0.06706800 0.12945899 -0.02725400
v -0.06459759 0.11999912 -0.03571347
v -0.07672472 0.08844940 -0.01726138
v -0.05104269 0.06705437 0.03086870
v -0.07485623 -0.04729049 -0.02176226
v -0.07171926 0.12750245 0.00343824
v -0.07758745 0.06717207 -0.00416946
v -0.05903332 0.01860971 0.02397360
v -0.06783379 -0.00588430 -0.03591586
v -0.07563905 0.10589079 -0.01598560
v -0.05671631 0.01893972 0.02614488
vn 0.49352503 0.16248249 0.85441938
vn 0.91487499 -0.40103700 0.04661621
vn 0.96269713 0.27029422 -0.01246077
vn 0.34555236 0.57391709 -0.74243702
vn -0.74873118 -0.66261885 -0.01838172
vn 0.84313565 -0.05511661 -0.53486861
vn 0.22827554 0.94821048 0.22087819
vn 0.95459123 0.04671321 0.29423370
vn -0.62363081 -0.36889751 0.68920189
vn 0.86302693 0.01101923 -0.50503772
vn 0.35631830 -0.25855121 -0.89788002
vn 0.55058091 0.34861877 0.75850222
vn -0.97744944 0.12561731 -0.16974358
vn 0.38529615 -0.07019460 0.92011934
vn 0.98965696 -0.08724377 0.11387549
vn 0.59198623 -0.80265078 -0.07282882
vn 0.46746095 -0.02781669 -0.88357597
vn -0.14444126 0.59737035 0.78885067
vn -0.74899527 0.63052996 -0.20356340
vn -0.96626179 -0.03452754 0.25523715
vn -0.56554906 0.03302684 -0.82405309
vn 0.44608359 0.01136388 0.89491916
vn 0.60657715 -0.41180269 0.68006081
vn 0.02005520 -0.61894196 0.78518064
vn 0.24755959 -0.84596571 -0.47228832
vn 0.81724004 -0.20659956 -0.53799196
vn -0.28616338 0.11427836 0.95134167
vn -0.34999983 0.75456160 -0.55510082
vn -0.78706346 0.59442701 0.16488675
vn -0.96603469 -0.00492587 -0.25836547
vn -0.89184527 -0.18238241 0.41394283
vn -0.76952005 0.30900320 0.55888811
vn -0.59741332 0.00444659 -0.80192116
vn -0.02267328 0.03829758 -0.99900912
vn -0.83986887 0.15603057 -0.51987955
vn 0.73602708 -0.06229589 0.67407964
vn -0.17970921 -0.05156858 0.98236718
vn -0.46614797 -0.55773354 -0.68676005
vn -0.97131633 0.10702903 0.21234261
vn -0.97464867 0.01553644 0.22320076
vn -0.81609201 -0.22097781 0.53400621
vn -0.67811139 0.05307609 0.73304016
vn 0.32637194 -0.01041959 -0.94518400
vn -0.45842752 -0.13793324 -0.87796277
vn -0.70985320 0.55518457 -0.43344957
vn -0.56567284 0.22022272 -0.79467993
vn -0.96182471 0.02493614 -0.27252781
vn -0.31037436 0.01584051 0.95048242
vn -0.33203469 -0.92179104 -0.20013555
vn -0.89613264 0.25262432 0.36486605
vn -0.94362409 -0.00200280 0.33101295
vn -0.76872946 -0.01054901 0.63948708
vn -0.83912171 -0.02038963 -0.54356142
vn -0.94194311 0.09980557 -0.32059635
vn -0.60787683 -0.01515988 0.79388660
f 7//7 3//3 4//4
f 10//10 6//6 4//4
f 10//10 4//4 3//3
f 12//12 3//3 7//7
f 12//12 8//8 3//3
f 12//12 1//1 8//8
f 15//15 2//2 6//6
f 15//15 6//6 10//10
f 15//15 10//10 3//3
f 15//15 3//3 8//8
f 17//17 4//4 6//6
f 17//17 6//6 11//11
f 18//18 12//12 7//7
f 23//23 2//2 15//15
f 23//23 16//16 2//2
f 24//24 9//9 5//5
f 24//24 5//5 16//16
f 24//24 16//16 23//23
f 24//24 23//23 14//14
f 25//25 16//16 5//5
f 26//26 11//11 6//6
f 26//26 6//6 2//2
f 26//26 2//2 16//16
f 26//26 25//25 11//11
f 26//26 16//16 25//25
f 27//27 1//1 12//12
f 27//27 12//12 18//18
f 28//28 19//19 7//7
f 28//28 7//7 4//4
f 29//29 18//18 7//7
f 29//29 7//7 19//19
f 30//30 5//5 20//20
f 31//31 20//20 5//5
f 32//32 18//18 29//29
f 33//33 5//5 30//30
f 34//34 21//21 4//4
f 35//35 13//13 19//19
f 36//36 8//8 1//1
f 36//36 1//1 22//22
f 36//36 15//15 8//8
f 36//36 22//22 14//14
f 36//36 23//23 15//15
f 36//36 14//14 23//23
f 37//37 24//24 14//14
f 37//37 14//14 22//22
f 37//37 22//22 1//1
f 37//37 9//9 24//24
f 38//38 11//11 25//25
f 39//39 29//29 19//19
f 39//39 19//19 13//13
f 40//40 30//30 20//20
f 40//40 39//39 13//13
f 40//40 32//32 39//39
f 41//41 31//31 5//5
f 41//41 5//5 9//9
f 41//41 20//20 31//31
f 42//42 27//27 18//18
f 42//42 18//18 32//32
f 43//43 17//17 11//11
f 43//43 34//34 4//4
f 43//43 4//4 17//17
f 44//44 33//33 21//21
f 44//44 21//21 34//34
f 44//44 11//11 38//38
f 44//44 38//38 5//5
f 44//44 43//43 11//11
f 44//44 34//34 43//43
f 45//45 35//35 19//19
f 45//45 19//19 28//28
f 46//46 28//28 4//4
f 46//46 4//4 21//21
f 46//46 21//21 35//35
f 46//46 45//45 28//28
f 46//46 35//35 45//45
f 47//47 40//40 13//13
f 47//47 30//30 40//40
f 47//47 33//33 30//30
f 47//47 35//35 21//21
f 47//47 21//21 33//33
f 48//48 37//37 1//1
f 48//48 1//1 27//27
f 48//48 27//27 42//42
f 49//49 38//38 25//25
f 49//49 25//25 5//5
f 49//49 5//5 38//38
f 50//50 39//39 32//32
f 50//50 32//32 29//29
f 50//50 29//29 39//39
f 51//51 40//40 20//20
f 51//51 32//32 40//40
f 52//52 41//41 9//9
f 52//52 42//42 32//32
f 52//52 32//32 51//51
f 52//52 51//51 20//20
f 52//52 20//20 41//41
f 53//53 44//44 5//5
f 53//53 5//5 33//33
f 53//53 33//33 44//44
f 54//54 47//47 13//13
f 54//54 13//13 35//35
f 54//54 35//35 47//47
f 55//55 9//9 37//37
f 55//55 37//37 48//48
f 55//55 52//52 9//9
f 55//55 48//48 42//42
f 55//55 42//42 52//52

