# https://github.com/mikedh/trimesh
v 0.06026200 -0.11173348 0.03014780
v 0.06627096 -0.12756377 0.02682252
v 0.05794893 -0.12018054 -0.03319374
v -0.06090743 -0.10374315 -0.03972575
v -0.05563300 -0.12680900 0.02499500
v 0.06759749 -0.10356374 -0.01395609
v 0.04859894 -0.12454709 0.03129295
v -0.05531316 -0.10438154 0.01504748
v -0.00816072 -0.14377785 -0.01716711
v 0.03372891 -0.10357957 -0.02766280
v 0.06648187 -0.10690340 0.02499676
v 0.06574849 -0.14289314 -0.00262087
v -0.04921200 -0.13487500 0.02375100
v 0.06034297 -0.12471213 0.03139935
v 0.00349500 -0.11934500 0.03121500
v -0.07585778 -0.10345629 -0.00740220
v -0.05275312 -0.13112207 -0.03873355
v 0.06775966 -0.12990347 -0.01694898
v -0.05047880 -0.10943134 0.02574986
v 0.04722468 -0.10014246 0.01677877
v 0.05192164 -0.13554303 -0.02979436
v 0.06026200 -0.13551700 0.02295900
v 0.00936722 -0.14364288 0.01017114
v -0.04518115 -0.13285029 0.02601921
v 0.05155400 -0.11063700 0.03035300
v -0.06911600 -0.13676099 -0.01317000
v -0.01189100 -0.12805299 -0.03886500
v 0.06623863 -0.13867184 0.01442633
v 0.06375200 -0.12307700 -0.02974200
v -0.05464100 -0.11188100 0.02499500
v 0.06467712 -0.10350018 0.02082649
v -0.06871300 -0.10192900 -0.02974200
v 0.05803977 -0.14339756 -0.00889100
v 0.06275000 -0.13302900 -0.02779100
v -0.05061357 -0.13578255 -0.03464728
v 0.05777296 -0.13282704 0.02624839
v -0.05005228 -0.12966445 0.02623359
v 0.06402479 -0.10445580 0.02375589
v -0.06876100 -0.13551700 -0.00237400
v -0.06006057 -0.14305415 -0.00205921
v -0.05638705 -0.12681549 -0.03997488
v 0.05559974 -0.12683292 -0.03536558
v -0.01134093 -0.13223157 -0.03864324
v 0.06575643 -0.14299412 0.00011149
v 0.06343926 -0.14318929 0.00759322
v 0.06692809 -0.12270028 -0.02031476
v -0.07430593 -0.10323691 -0.01322413
v 0.06026200 -0.13302900 -0.03049200
v 0.06287641 -0.12505583 -0.03110220
v 0.00054900 -0.13515300 -0.03471800
v -0.06060285 -0.14367803 -0.01425978
v -0.05327229 -0.11821894 0.02609495
v 0.04897241 -0.10314630 0.02242294
v -0.06787200 -0.13048600 0.00260200
v -0.04810710 -0.14189122 0.01117927
v -0.05390373 -0.10835825 -0.03969218
v -0.05945321 -0.12189660 -0.03875664
v 0.04826110 -0.13251837 -0.03377593
v -0.06033691 -0.13495990 -0.02575524
v -0.04942643 -0.14235031 -0.01857957
v -0.05252003 -0.12078226 0.02628012
v -0.06456911 -0.10357635 -0.03585941
v -0.06040331 -0.12664020 -0.03469955
vn 0.28401503 0.30434095 0.90923707
vn 0.78782100 -0.27891020 0.54913312
vn 0.36512399 0.38988570 -0.84538371
vn -0.31369586 0.54720739 -0.77598903
vn -0.62061030 -0.23632918 0.74765726
vn 0.69971159 0.66434352 -0.26277630
vn -0.01292091 -0.24895453 0.96842898
vn -0.27522977 0.88826139 0.36775028
vn 0.00943560 -0.97480162 -0.22287389
vn 0.10528326 0.82888874 -0.54941686
vn 0.76450741 0.39151996 0.51209427
vn 0.67534084 -0.72908228 -0.11114757
vn -0.31688728 -0.69976795 0.64024000
vn 0.28804318 -0.20961613 0.93439403
vn -0.03837343 0.02716526 0.99889415
vn -0.81758841 0.56137410 0.12809491
vn -0.26216170 -0.55768525 -0.78756486
vn 0.96645285 -0.18268284 -0.18054323
vn -0.20593051 0.55825790 0.80370439
vn 0.03876067 0.97836892 0.20320401
vn 0.12972127 -0.84212305 -0.52345120
vn 0.23106374 -0.76657330 0.59914516
vn 0.00097060 -0.95963002 0.28126372
vn -0.07410723 -0.48070803 0.87374362
vn 0.01259259 0.43340691 0.90111036
vn -0.83721586 -0.51047256 -0.19618197
vn 0.04195166 0.00450701 -0.99910948
vn 0.76381067 -0.55991471 0.32107441
vn 0.81505285 0.14561589 -0.56078950
vn -0.57178012 0.31140790 0.75900765
vn 0.50336952 0.84642271 0.17374613
vn -0.68483133 0.63546308 -0.35664090
vn 0.15741477 -0.96179160 -0.22400339
vn 0.71595132 -0.52852920 -0.45614756
vn -0.20616147 -0.79530364 -0.57007856
vn 0.11836286 -0.64969434 0.75092443
vn -0.24265168 -0.25712662 0.93541759
vn 0.26264749 0.79460868 0.54736947
vn -0.83384113 -0.48355376 0.26624189
vn -0.38668471 -0.89556128 0.22010210
vn -0.39215979 -0.31831541 -0.86306778
vn 0.26837406 -0.10676841 -0.95737969
vn 0.02820030 -0.45674444 -0.88915086
vn 0.67793850 -0.73501501 0.01234248
vn 0.31063021 -0.92195520 0.23131686
vn 0.96282136 0.02054488 -0.26935653
vn -0.87434910 0.42189238 -0.23983426
vn 0.44549252 -0.60275802 -0.66198126
vn 0.72677118 -0.04175231 -0.68560951
vn 0.03732569 -0.82238578 -0.56770452
vn -0.36760289 -0.90622579 -0.20886104
vn -0.31109385 0.04551790 0.94928854
vn -0.00302705 0.81635457 0.57754311
vn -0.87136106 -0.20901838 0.44389326
vn -0.16112806 -0.92771286 0.33672927
vn 0.03392347 0.04019938 -0.99861565
vn -0.70551364 -0.17703104 -0.68622920
vn 0.09707876 -0.58244051 -0.80705561
vn -0.58073867 -0.63196650 -0.51318705
vn -0.02468983 -0.93191492 -0.36183560
vn -0.20088906 -0.01307345 0.97952676
vn -0.74265795 0.25463516 -0.61937074
vn -0.78972798 -0.35335771 -0.50146590
f 10//10 6//6 3//3
f 10//10 3//3 4//4
f 14//14 11//11 1//1
f 14//14 2//2 11//11
f 15//15 7//7 14//14
f 18//18 11//11 2//2
f 18//18 6//6 11//11
f 20//20 8//8 19//19
f 20//20 16//16 8//8
f 20//20 6//6 10//10
f 23//23 22//22 13//13
f 24//24 14//14 7//7
f 24//24 7//7 15//15
f 25//25 15//15 14//14
f 25//25 14//14 1//1
f 25//25 19//19 15//15
f 28//28 18//18 2//2
f 28//28 2//2 22//22
f 29//29 3//3 6//6
f 30//30 16//16 5//5
f 30//30 19//19 8//8
f 30//30 8//8 16//16
f 31//31 11//11 6//6
f 31//31 6//6 20//20
f 32//32 20//20 10//10
f 32//32 10//10 4//4
f 32//32 16//16 20//20
f 33//33 9//9 21//21
f 33//33 23//23 9//9
f 34//34 18//18 12//12
f 36//36 22//22 2//2
f 36//36 2//2 14//14
f 36//36 14//14 24//24
f 36//36 24//24 13//13
f 36//36 13//13 22//22
f 37//37 5//5 13//13
f 37//37 13//13 24//24
f 37//37 24//24 15//15
f 38//38 25//25 1//1
f 38//38 1//1 11//11
f 38//38 11//11 31//31
f 38//38 31//31 20//20
f 39//39 13//13 5//5
f 39//39 16//16 26//26
f 40//40 39//39 26//26
f 40//40 13//13 39//39
f 42//42 4//4 3//3
f 43//43 41//41 27//27
f 43//43 17//17 41//41
f 43//43 35//35 17//17
f 43//43 27//27 42//42
f 44//44 12//12 18//18
f 44//44 18//18 28//28
f 44//44 33//33 12//12
f 45//45 28//28 22//22
f 45//45 22//22 23//23
f 45//45 44//44 28//28
f 45//45 23//23 33//33
f 45//45 33//33 44//44
f 46//46 29//29 6//6
f 46//46 6//6 18//18
f 46//46 18//18 29//29
f 47//47 32//32 26//26
f 47//47 26//26 16//16
f 47//47 16//16 32//32
f 48//48 33//33 21//21
f 48//48 34//34 12//12
f 48//48 12//12 33//33
f 49//49 29//29 18//18
f 49//49 18//18 34//34
f 49//49 34//34 48//48
f 49//49 48//48 42//42
f 49//49 42//42 3//3
f 49//49 3//3 29//29
f 50//50 21//21 9//9
f 50//50 9//9 35//35
f 50//50 35//35 43//43
f 51//51 17//17 35//35
f 51//51 40//40 26//26
f 51//51 9//9 23//23
f 51//51 23//23 40//40
f 52//52 30//30 5//5
f 52//52 19//19 30//30
f 52//52 15//15 19//19
f 53//53 38//38 20//20
f 53//53 20//20 19//19
f 53//53 19//19 25//25
f 53//53 25//25 38//38
f 54//54 39//39 5//5
f 54//54 5//5 16//16
f 54//54 16//16 39//39
f 55//55 40//40 23//23
f 55//55 23//23 13//13
f 55//55 13//13 40//40
f 56//56 41//41 4//4
f 56//56 27//27 41//41
f 56//56 42//42 27//27
f 56//56 4//4 42//42
f 57//57 4//4 41//41
f 57//57 26//26 32//32
f 58//58 43//43 42//42
f 58//58 50//50 43//43
f 58//58 21//21 50//50
f 58//58 48//48 21//21
f 58//58 42//42 48//48
f 59//59 41//41 17//17
f 59//59 17//17 51//51
f 59//59 51//51 26//26
f 59//59 26//26 41//41
f 60//60 51//51 35//35
f 60//60 35//35 9//9
f 60//60 9//9 51//51
f 61//61 52//52 5//5
f 61//61 5//5 37//37
f 61//61 37//37 15//15
f 61//61 15//15 52//52
f 62//62 57//57 32//32
f 62//62 32//32 4//4
f 62//62 4//4 57//57
f 63//63 57//57 41//41
f 63//63 41//41 26//26
f 63//63 26//26 57//57

