# https://github.com/mikedh/trimesh
v 0.04606772 -0.02910176 0.03073929
v 0.07545818 -0.10495400 0.00873277
v 0.02951214 -0.03261471 -0.02504313
v -0.03072982 -0.08901291 -0.02974167
v -0.03504914 -0.10351953 0.01883548
v 0.03788791 -0.10312377 -0.02487364
v 0.05934620 -0.03555484 -0.01046752
v 0.06150600 -0.07589300 0.03121500
v -0.00361652 -0.03111974 0.02722050
v 0.03665166 -0.09280583 -0.02681961
v -0.03610563 -0.10375338 -0.02775378
v 0.04486137 -0.03054296 -0.01270172
v 0.01423300 -0.10692600 0.02499500
v 0.07394188 -0.07945230 0.01511556
v 0.00036934 -0.03070663 -0.01371533
v -0.04044708 -0.07677296 -0.00560457
v 0.00179300 -0.07590700 0.03121500
v -0.02217037 -0.09783452 -0.03018480
v 0.06761312 -0.05590046 -0.01195411
v 0.05652078 -0.03227452 -0.00743735
v 0.06616970 -0.10593652 0.02131742
v 0.07402740 -0.10566118 0.01203040
v 0.06519854 -0.06318221 0.02613196
v 0.02468433 -0.03091439 -0.02502312
v 0.03972868 -0.02930865 0.02633023
v -0.03801271 -0.09196646 0.02001474
v -0.03542536 -0.08200963 -0.02050919
v -0.01189100 -0.03972800 0.00807800
v 0.04868478 -0.06872544 0.03182561
v 0.00054900 -0.10586700 0.02499500
v -0.03168569 -0.09819855 -0.02980086
v 0.03412133 -0.03875655 -0.02478966
v 0.06759749 -0.10356374 -0.01395609
v 0.07603004 -0.08241541 0.00884414
v 0.06564160 -0.07982612 0.02634829
v 0.06029800 -0.06831588 0.03124337
v -0.03092428 -0.06828538 -0.01995484
v 0.05863158 -0.03934158 -0.01233337
v 0.01547700 -0.03848400 -0.02489700
v 0.01495446 -0.03380883 -0.02236131
v -0.03235695 -0.06875602 -0.01635375
vn 0.32784572 0.69787885 0.63677492
vn 0.82305214 -0.56718384 -0.02979393
vn 0.23758865 0.46691478 -0.85178766
vn -0.43237879 0.18658358 -0.88217637
vn -0.56195917 -0.66360148 0.49379649
vn 0.15452066 -0.70444522 -0.69273393
vn 0.73640428 0.55957470 -0.38024320
vn 0.41153290 -0.08547676 0.90737776
vn -0.40561827 0.69506190 0.59360153
vn 0.21570556 -0.04724184 -0.97531499
vn -0.60357850 -0.59061217 -0.53560271
vn 0.20420238 0.93351031 -0.29472000
vn -0.00318409 -0.79416979 0.60768759
vn 0.91567863 0.15104787 0.37244756
vn -0.40071936 0.83180896 -0.38408053
vn -0.95894842 0.28202276 -0.02968311
vn -0.13238469 -0.05851103 0.98946994
vn 0.02244872 -0.19943263 -0.97965437
vn 0.82230191 0.23928673 -0.51629587
vn 0.54273969 0.83196151 -0.11521141
vn 0.37268658 -0.70666661 0.60143745
vn 0.63010029 -0.71319623 0.30712339
vn 0.81714802 0.27872764 0.50455923
vn -0.02539675 0.71537574 -0.69827828
vn -0.03440951 0.99940641 0.00167771
vn -0.79071840 -0.02627798 0.61161579
vn -0.85041719 0.23112262 -0.47262346
vn -0.74668542 0.66455313 -0.02881029
vn 0.01234484 -0.01841984 0.99975413
vn -0.10983798 -0.73196908 0.67242612
vn -0.22056603 -0.09879577 -0.97035562
vn 0.30216906 0.14745827 -0.94178019
vn 0.56552123 -0.58991292 -0.57635795
vn 0.99458784 0.10387801 0.00209473
vn 0.76387835 -0.04991789 0.64342681
vn 0.37811528 0.08921212 0.92144996
vn -0.66186664 0.48844447 -0.56864272
vn 0.48539996 0.27632934 -0.82947512
vn -0.33945491 0.39707997 -0.85270034
vn -0.36229786 0.45388308 -0.81408255
vn -0.79212656 0.57620021 -0.20131774
f 12//12 7//7 3//3
f 13//13 5//5 11//11
f 17//17 1//1 9//9
f 17//17 13//13 8//8
f 18//18 3//3 10//10
f 18//18 10//10 6//6
f 18//18 6//6 11//11
f 20//20 12//12 1//1
f 20//20 1//1 7//7
f 20//20 7//7 12//12
f 21//21 8//8 13//13
f 22//22 13//13 11//11
f 22//22 11//11 6//6
f 22//22 21//21 13//13
f 22//22 2//2 14//14
f 23//23 14//14 7//7
f 23//23 7//7 1//1
f 24//24 18//18 4//4
f 24//24 3//3 18//18
f 24//24 12//12 3//3
f 24//24 15//15 1//1
f 24//24 1//1 12//12
f 25//25 15//15 9//9
f 25//25 9//9 1//1
f 25//25 1//1 15//15
f 26//26 9//9 16//16
f 26//26 17//17 9//9
f 26//26 5//5 17//17
f 26//26 16//16 11//11
f 26//26 11//11 5//5
f 27//27 4//4 11//11
f 27//27 11//11 16//16
f 28//28 16//16 9//9
f 28//28 9//9 15//15
f 29//29 17//17 8//8
f 29//29 1//1 17//17
f 30//30 17//17 5//5
f 30//30 5//5 13//13
f 30//30 13//13 17//17
f 31//31 18//18 11//11
f 31//31 11//11 4//4
f 31//31 4//4 18//18
f 32//32 19//19 10//10
f 32//32 10//10 3//3
f 33//33 6//6 10//10
f 33//33 10//10 19//19
f 33//33 22//22 6//6
f 33//33 2//2 22//22
f 34//34 14//14 2//2
f 34//34 33//33 19//19
f 34//34 2//2 33//33
f 34//34 19//19 7//7
f 34//34 7//7 14//14
f 35//35 22//22 14//14
f 35//35 8//8 21//21
f 35//35 21//21 22//22
f 35//35 23//23 8//8
f 35//35 14//14 23//23
f 36//36 23//23 1//1
f 36//36 8//8 23//23
f 36//36 29//29 8//8
f 36//36 1//1 29//29
f 37//37 4//4 27//27
f 37//37 27//27 16//16
f 38//38 32//32 3//3
f 38//38 3//3 7//7
f 38//38 7//7 19//19
f 38//38 19//19 32//32
f 39//39 24//24 4//4
f 39//39 4//4 37//37
f 40//40 37//37 15//15
f 40//40 15//15 24//24
f 40//40 39//39 37//37
f 40//40 24//24 39//39
f 41//41 28//28 15//15
f 41//41 15//15 37//37
f 41//41 37//37 16//16
f 41//41 16//16 28//28

