# https://github.com/mikedh/trimesh
v -0.01772454 0.05998349 0.02342092
v -0.01801497 0.04697525 0.02090919
v -0.01793515 0.06150339 -0.02586676
v -0.04854229 0.04633875 -0.02699806
v -0.07490292 0.00803570 0.01468797
v -0.03510279 0.06458685 0.00541529
v -0.01754185 0.06473435 -0.02330927
v -0.06424198 0.00811525 0.02597380
v -0.05780229 0.00858011 -0.02419345
v -0.06068726 0.04640500 -0.00456414
v -0.01749077 0.06354956 0.02212467
v -0.01820159 0.04247336 -0.02043785
v -0.03507719 0.05891460 -0.02398820
v -0.01803001 0.05083513 0.02322576
v -0.01941850 0.05154045 -0.02709714
v -0.07454279 0.00741573 -0.02173722
v -0.06108345 0.04139233 0.02080164
v -0.01756789 0.06793375 0.01419731
v -0.01836969 0.04790055 -0.02582241
v -0.05403368 0.00869798 0.01251824
v -0.01809564 0.04102149 -0.00031035
v -0.02625773 0.06053779 -0.02568748
v -0.02601614 0.06596327 -0.01500124
v -0.04237441 0.06002377 -0.01058546
v -0.05932947 0.00833802 0.02371277
v -0.06941384 0.00801856 -0.02630740
v -0.02507697 0.05807856 -0.02709117
v -0.07456025 0.02286452 -0.01839278
v -0.05944361 0.04703019 0.01244103
v -0.03778306 0.05853815 0.02100525
v -0.05306235 0.04015152 0.02486827
v -0.06771384 0.02406607 0.02397897
v -0.01761407 0.06372700 -0.02427586
v -0.06034320 0.00825460 -0.02528149
v -0.05399272 0.00862982 -0.01058126
v -0.02602899 0.06310038 -0.02308016
v -0.03972998 0.05224828 -0.02689612
v -0.01767546 0.06781890 -0.01209512
v -0.03508059 0.06141827 -0.01921248
v -0.03638385 0.06302208 -0.00915025
v -0.05400607 0.04833285 -0.02307550
v -0.06184792 0.00832869 0.02500058
v -0.01803243 0.04785692 0.02171298
v -0.05763879 0.00840733 0.02221235
v -0.06266376 0.02013863 -0.02716247
v -0.01944298 0.05715864 -0.02698932
v -0.07457570 0.02262241 -0.01844940
v -0.06829164 0.03002072 0.01722918
v -0.06248434 0.04295865 0.01092302
v -0.05542067 0.05116796 0.00244550
v -0.04789434 0.05468234 0.01815440
v -0.02763069 0.06601655 0.01412020
v -0.03072649 0.05889870 0.02329715
v -0.05229893 0.04027945 0.02489996
v -0.05442429 0.04283462 0.02310874
v -0.05723280 0.03732523 0.02452875
v -0.02072397 0.06321290 -0.02438172
v -0.07207255 0.00759354 -0.02457371
v -0.05554453 0.00867194 -0.02067565
v -0.01838961 0.04125951 -0.00838507
v -0.02055500 0.06607697 -0.02027293
v -0.03398120 0.05532610 -0.02686622
v -0.01757492 0.06643651 -0.02044564
v -0.02513713 0.06749611 0.00267129
vn 0.63756183 0.12189384 0.76069495
vn 0.86491289 -0.40523186 0.29616351
vn 0.60276883 0.30033867 -0.73923367
vn -0.25304174 0.26549473 -0.93031308
vn -0.77742040 -0.56918305 0.26767178
vn -0.41413958 0.90789702 0.06489528
vn 0.63737059 0.60106859 -0.48215690
vn -0.19617572 -0.63648906 0.74592008
vn 0.38192172 -0.79366403 -0.47353269
vn -0.75397521 0.65233349 -0.07734594
vn 0.59054703 0.54078144 0.59900721
vn 0.85733792 -0.44612688 -0.25679271
vn -0.35393553 0.70571176 -0.61375936
vn 0.70116902 -0.11513896 0.70363700
vn 0.39303025 -0.06079211 -0.91751378
vn -0.71041896 -0.62865486 -0.31638264
vn -0.65635398 0.50987541 0.55608140
vn 0.58725336 0.78015497 0.21561940
vn 0.75243754 -0.25145010 -0.60877795
vn 0.44035040 -0.89394273 0.08341418
vn 0.89788347 -0.43854055 0.03856769
vn -0.17594602 0.58336302 -0.79292533
vn -0.27162723 0.94621623 -0.17576546
vn -0.51658555 0.84472189 -0.13994393
vn 0.31398763 -0.82112962 0.47661087
vn -0.24659447 -0.52332624 -0.81567200
vn -0.04867972 0.24723320 -0.96773242
vn -0.87125630 0.31641628 -0.37522421
vn -0.71099060 0.68240034 0.16977086
vn -0.35855239 0.69491788 0.62332120
vn -0.19190384 0.23867371 0.95194946
vn -0.64224857 0.18521546 0.74378223
vn 0.65922215 0.45254534 -0.60052382
vn 0.16959336 -0.74891253 -0.64059981
vn 0.40252179 -0.91489657 -0.03066711
vn -0.25902967 0.81017349 -0.52585412
vn -0.21025963 0.35024097 -0.91275525
vn 0.59085215 0.80335130 -0.07429955
vn -0.40147456 0.85769485 -0.32121290
vn -0.37937924 0.91796830 -0.11578251
vn -0.60018894 0.59172527 -0.53817696
vn 0.36049859 -0.55957826 0.74626599
vn 0.82060547 -0.29780418 0.48776976
vn 0.40712267 -0.86361350 0.29735980
vn -0.24173007 0.08540758 -0.96657753
vn 0.28133618 0.08184601 -0.95611254
vn -0.89420021 0.13790239 -0.42589777
vn -0.89840023 0.36948072 0.23740478
vn -0.84968002 0.51708794 0.10326624
vn -0.61571222 0.78779181 0.01680839
vn -0.51494275 0.74428192 0.42529800
vn -0.27147023 0.91312343 0.30415378
vn -0.15360266 0.48557721 0.86059340
vn -0.02547056 0.08845763 0.99575424
vn -0.34656968 0.44771487 0.82428203
vn -0.29343869 0.24231255 0.92475854
vn -0.12546952 0.68153452 -0.72094944
vn -0.47490523 -0.61435317 -0.63010730
vn 0.43310478 -0.88524222 -0.16960676
vn 0.74337584 -0.66691839 -0.05110990
vn -0.18822044 0.91887661 -0.34675473
vn -0.17524702 0.35851633 -0.91692667
vn 0.60973196 0.74516274 -0.27011003
vn -0.18717914 0.98231676 -0.00421460
f 14//14 1//1 8//8
f 14//14 11//11 1//1
f 16//16 8//8 5//5
f 18//18 11//11 7//7
f 19//19 15//15 3//3
f 19//19 12//12 9//9
f 21//21 11//11 2//2
f 21//21 2//2 20//20
f 21//21 12//12 7//7
f 21//21 7//7 11//11
f 27//27 22//22 3//3
f 32//32 5//5 8//8
f 33//33 19//19 3//3
f 33//33 7//7 12//12
f 33//33 12//12 19//19
f 34//34 19//19 9//9
f 34//34 15//15 19//19
f 34//34 26//26 15//15
f 35//35 21//21 20//20
f 36//36 22//22 13//13
f 37//37 27//27 4//4
f 39//39 36//36 13//13
f 40//40 24//24 6//6
f 40//40 6//6 23//23
f 40//40 39//39 24//24
f 40//40 23//23 39//39
f 41//41 10//10 24//24
f 41//41 28//28 10//10
f 41//41 37//37 4//4
f 41//41 13//13 37//37
f 41//41 39//39 13//13
f 41//41 24//24 39//39
f 42//42 25//25 14//14
f 42//42 14//14 8//8
f 42//42 8//8 25//25
f 43//43 25//25 2//2
f 43//43 14//14 25//25
f 43//43 2//2 11//11
f 43//43 11//11 14//14
f 44//44 20//20 2//2
f 44//44 2//2 25//25
f 44//44 35//35 20//20
f 44//44 16//16 34//34
f 44//44 34//34 35//35
f 44//44 25//25 8//8
f 44//44 8//8 16//16
f 45//45 15//15 26//26
f 45//45 27//27 15//15
f 45//45 4//4 27//27
f 45//45 41//41 4//4
f 45//45 26//26 28//28
f 45//45 28//28 41//41
f 46//46 27//27 3//3
f 46//46 3//3 15//15
f 46//46 15//15 27//27
f 47//47 16//16 5//5
f 47//47 5//5 28//28
f 48//48 32//32 17//17
f 48//48 28//28 5//5
f 48//48 5//5 32//32
f 49//49 29//29 10//10
f 49//49 10//10 28//28
f 49//49 28//28 48//48
f 49//49 48//48 17//17
f 49//49 17//17 29//29
f 50//50 24//24 10//10
f 50//50 10//10 29//29
f 50//50 6//6 24//24
f 51//51 29//29 17//17
f 51//51 17//17 30//30
f 51//51 50//50 29//29
f 51//51 6//6 50//50
f 52//52 51//51 30//30
f 52//52 6//6 51//51
f 52//52 30//30 11//11
f 52//52 11//11 18//18
f 53//53 1//1 11//11
f 53//53 11//11 30//30
f 54//54 31//31 8//8
f 54//54 8//8 1//1
f 54//54 53//53 31//31
f 54//54 1//1 53//53
f 55//55 30//30 17//17
f 55//55 53//53 30//30
f 55//55 31//31 53//53
f 56//56 17//17 32//32
f 56//56 55//55 17//17
f 56//56 31//31 55//55
f 56//56 32//32 8//8
f 56//56 8//8 31//31
f 57//57 7//7 33//33
f 57//57 36//36 7//7
f 57//57 22//22 36//36
f 57//57 33//33 3//3
f 57//57 3//3 22//22
f 58//58 34//34 16//16
f 58//58 26//26 34//34
f 58//58 16//16 47//47
f 58//58 47//47 28//28
f 58//58 28//28 26//26
f 59//59 9//9 12//12
f 59//59 12//12 35//35
f 59//59 35//35 34//34
f 59//59 34//34 9//9
f 60//60 35//35 12//12
f 60//60 12//12 21//21
f 60//60 21//21 35//35
f 61//61 7//7 36//36
f 61//61 23//23 38//38
f 61//61 39//39 23//23
f 61//61 36//36 39//39
f 62//62 37//37 13//13
f 62//62 13//13 22//22
f 62//62 22//22 27//27
f 62//62 27//27 37//37
f 63//63 38//38 18//18
f 63//63 18//18 7//7
f 63//63 61//61 38//38
f 63//63 7//7 61//61
f 64//64 38//38 23//23
f 64//64 23//23 6//6
f 64//64 18//18 38//38
f 64//64 52//52 18//18
f 64//64 6//6 52//52

