# https://github.com/mikedh/trimesh
v -0.01698311 0.05236004 0.02341310
v -0.01805087 0.04573664 0.01922797
v -0.01779914 0.05290967 -0.00037300
v -0.03721987 0.05290967 -0.00037300
v -0.03728149 0.04122996 0.02364202
v -0.02676450 0.05298563 0.02437547
v -0.01782232 0.04107833 -0.00036747
v -0.02728154 0.04309573 0.02317972
v -0.03705387 0.05264434 0.02440300
v -0.03746920 0.03227186 -0.00043042
v -0.02488242 0.04375594 0.02226307
v -0.03793353 0.03469433 0.01841410
v -0.03649705 0.03301158 -0.00047752
v -0.03793816 0.03325199 0.01545275
v -0.03196565 0.03965753 0.02226439
v -0.01934572 0.04097486 -0.00041613
v -0.01828319 0.04288273 0.01108407
v -0.02997423 0.04188776 0.02314915
v -0.03712528 0.03880992 0.02219424
v -0.02781595 0.04126862 0.02210255
v -0.03044554 0.03823757 0.01999629
v -0.03342692 0.03690912 0.01950746
vn 0.67307622 0.41533886 0.61193303
vn 0.76675723 -0.52653259 0.36721491
vn 0.56863785 0.57995026 -0.58335983
vn -0.56980121 0.58479143 -0.57736085
vn -0.59540286 -0.23094504 0.76951922
vn 0.05487935 0.66463094 0.74515365
vn 0.67803210 -0.47201859 -0.56344558
vn 0.24758011 -0.36706915 0.89664058
vn -0.56643631 0.55542604 0.60881181
vn -0.44467309 -0.71866080 -0.53459564
vn 0.44721316 -0.54203707 0.71147467
vn -0.58659263 -0.66943491 0.45581355
vn 0.01768127 -0.07356640 -0.99713357
vn -0.51610602 -0.83485760 0.19143502
vn 0.17996661 -0.61118224 0.77075825
vn 0.02389333 -0.03049245 -0.99924938
vn 0.74410205 -0.64907606 0.15815313
vn 0.14941005 -0.38248606 0.91180099
vn -0.31264898 -0.56318095 0.76490380
vn 0.37896991 -0.65165004 0.65706471
vn 0.38720701 -0.81308423 0.43470077
vn 0.25394740 -0.78899280 0.55946500
f 6//6 1//1 3//3
f 6//6 3//3 4//4
f 7//7 1//1 2//2
f 7//7 3//3 1//1
f 8//8 6//6 5//5
f 8//8 1//1 6//6
f 9//9 6//6 4//4
f 9//9 5//5 6//6
f 11//11 2//2 1//1
f 11//11 1//1 8//8
f 12//12 9//9 4//4
f 12//12 5//5 9//9
f 13//13 10//10 4//4
f 13//13 4//4 3//3
f 13//13 7//7 10//10
f 14//14 12//12 4//4
f 14//14 4//4 10//10
f 14//14 10//10 7//7
f 16//16 13//13 3//3
f 16//16 3//3 7//7
f 16//16 7//7 13//13
f 17//17 14//14 7//7
f 17//17 7//7 2//2
f 18//18 15//15 8//8
f 18//18 8//8 5//5
f 18//18 5//5 15//15
f 19//19 15//15 5//5
f 19//19 5//5 12//12
f 19//19 12//12 15//15
f 20//20 11//11 8//8
f 20//20 8//8 15//15
f 20//20 2//2 11//11
f 21//21 17//17 2//2
f 21//21 14//14 17//17
f 21//21 2//2 20//20
f 21//21 12//12 14//14
f 21//21 20//20 15//15
f 22//22 21//21 15//15
f 22//22 15//15 12//12
f 22//22 12//12 21//21

