# https://github.com/mikedh/trimesh
v 0.03217886 -0.03538361 -0.01097925
v 0.03217283 -0.04225325 -0.01100144
v 0.03219138 -0.04230224 -0.01970683
v -0.01461061 -0.03952083 -0.01943251
v -0.01451565 -0.03562365 -0.01094758
v 0.00406865 -0.05139927 -0.01090009
v 0.03215790 -0.03691525 -0.01757833
v 0.03224012 -0.03786241 -0.01830628
v 0.02586118 -0.05157297 -0.01413082
v -0.01452783 -0.04744222 -0.01100144
v -0.00813570 -0.03615570 -0.01703075
v 0.03220500 -0.03600706 -0.01482263
v 0.03207100 -0.03953056 -0.01943640
v 0.02593742 -0.05147526 -0.01100683
v -0.01460180 -0.04690811 -0.01921079
v -0.01443784 -0.03714731 -0.01674561
v -0.00818925 -0.03686853 -0.01810907
v 0.02382018 -0.03618025 -0.01636730
v 0.02084533 -0.05155104 -0.01104681
v 0.00401643 -0.04951757 -0.01738121
v -0.01444289 -0.03607541 -0.01376407
v -0.01445066 -0.03809282 -0.01834687
v -0.00526332 -0.03704975 -0.01821683
v 0.02484179 -0.05154490 -0.01103633
v 0.02086025 -0.05136285 -0.01475929
v 0.02589205 -0.04884258 -0.01829825
v -0.01136836 -0.03894773 -0.01916242
v 0.03121371 -0.03903517 -0.01917539
v 0.00413618 -0.04887633 -0.01806621
v 0.02593261 -0.04606083 -0.01936635
v 0.02593542 -0.05039550 -0.01667475
v 0.01978596 -0.05037399 -0.01651619
vn 0.56932337 0.62381121 0.53547221
vn 0.72854049 -0.22530063 0.64689132
vn 0.70548525 -0.22646688 -0.67156781
vn -0.65822378 0.22361378 -0.71884513
vn -0.57604980 0.61306845 0.54066044
vn -0.07752794 -0.79872993 0.59667405
vn 0.59857977 0.65715700 -0.45809054
vn 0.71257696 0.41627490 -0.56475595
vn 0.42228518 -0.89171755 -0.16283441
vn -0.62578919 -0.52962683 0.57261096
vn -0.05066816 0.93556355 -0.34950477
vn 0.69505318 0.70075430 -0.16076221
vn 0.56337611 0.25765398 -0.78499795
vn 0.39412508 -0.67490400 0.62383492
vn -0.62520497 -0.50535111 -0.59475962
vn -0.69652904 0.65143784 -0.30079237
vn -0.04458286 0.68443143 -0.72771285
vn 0.00926268 0.94964533 -0.31318996
vn -0.00426818 -0.93201423 0.36239654
vn -0.05492300 -0.86841979 -0.49277838
vn -0.67680719 0.71522450 -0.17431564
vn -0.63196625 0.58708622 -0.50591346
vn 0.00532197 0.54359810 -0.83932877
vn 0.01732996 -0.84546658 0.53374707
vn -0.02179835 -0.95068595 -0.30938820
vn 0.21164951 -0.57591925 -0.78963378
vn -0.00345266 0.44384865 -0.89609512
vn 0.02131752 0.53199320 -0.84648024
vn -0.01439856 -0.65060834 -0.75927694
vn 0.05578888 -0.24699118 -0.96741044
vn 0.34769413 -0.79057472 -0.50408372
vn -0.01805156 -0.86195267 -0.50666728
f 6//6 2//2 1//1
f 6//6 1//1 5//5
f 8//8 1//1 2//2
f 8//8 2//2 3//3
f 10//10 6//6 5//5
f 10//10 5//5 4//4
f 11//11 5//5 1//1
f 12//12 8//8 7//7
f 12//12 1//1 8//8
f 13//13 8//8 3//3
f 13//13 3//3 4//4
f 14//14 9//9 3//3
f 14//14 3//3 2//2
f 14//14 2//2 6//6
f 15//15 4//4 3//3
f 15//15 10//10 4//4
f 15//15 6//6 10//10
f 17//17 11//11 7//7
f 18//18 11//11 1//1
f 18//18 1//1 12//12
f 18//18 12//12 7//7
f 18//18 7//7 11//11
f 19//19 6//6 9//9
f 20//20 6//6 15//15
f 21//21 5//5 11//11
f 21//21 11//11 16//16
f 21//21 16//16 4//4
f 21//21 4//4 5//5
f 22//22 16//16 11//11
f 22//22 11//11 17//17
f 22//22 17//17 4//4
f 22//22 4//4 16//16
f 23//23 17//17 7//7
f 23//23 7//7 8//8
f 24//24 14//14 6//6
f 24//24 6//6 19//19
f 24//24 19//19 9//9
f 24//24 9//9 14//14
f 25//25 9//9 6//6
f 25//25 6//6 20//20
f 27//27 23//23 13//13
f 27//27 13//13 4//4
f 27//27 4//4 17//17
f 27//27 17//17 23//23
f 28//28 23//23 8//8
f 28//28 8//8 13//13
f 28//28 13//13 23//23
f 29//29 20//20 15//15
f 29//29 15//15 26//26
f 30//30 26//26 15//15
f 30//30 15//15 3//3
f 30//30 3//3 26//26
f 31//31 29//29 26//26
f 31//31 20//20 29//29
f 31//31 9//9 25//25
f 31//31 26//26 3//3
f 31//31 3//3 9//9
f 32//32 31//31 25//25
f 32//32 25//25 20//20
f 32//32 20//20 31//31

