# https://github.com/mikedh/trimesh
v -0.03019253 0.03998431 0.01502656
v -0.01120503 0.03996700 0.00258794
v -0.01768611 0.04054447 0.00943484
v -0.03315096 0.03986913 -0.01647945
v -0.03221219 0.02079141 0.00933101
v -0.01233071 0.04004693 -0.00760642
v -0.03118482 0.04012493 -0.01621225
v -0.03976635 0.03109964 0.01352172
v -0.01436629 0.04016122 0.00661470
v -0.02513014 0.04037055 0.01370905
v -0.02850235 0.02334649 -0.00940948
v -0.03297783 0.03971048 0.01532505
v -0.03200600 0.02443712 0.01080847
v -0.01118391 0.03987682 -0.00255979
v -0.02930136 0.02442073 -0.01086770
v -0.03118618 0.02784814 0.01173601
v -0.03464517 0.02333721 0.01089173
v -0.02857848 0.02362910 -0.00986040
v -0.03331209 0.03793770 -0.01597700
v -0.03391350 0.02162022 -0.00636760
v -0.03306649 0.03802927 0.01499961
v -0.03960600 0.03083820 -0.01455435
v -0.03135936 0.02131442 -0.00637582
v -0.03984495 0.02577877 0.00091157
v -0.03208760 0.03797701 0.01485052
v -0.03934132 0.03163918 0.01376764
v -0.03926821 0.03149067 -0.01492490
v -0.03317422 0.02225956 -0.00932835
v -0.03401825 0.02085263 -0.00074969
v -0.03357661 0.02112376 0.00909892
v -0.03968311 0.03004129 -0.01361498
v -0.03275216 0.02111720 -0.00718718
v -0.03009213 0.02327199 -0.00988283
v -0.03968825 0.02586298 -0.00099174
v -0.03422721 0.02216499 0.01002093
v -0.03431245 0.02089624 0.00098929
v -0.03189568 0.02111046 -0.00489220
v -0.03210285 0.02237826 -0.00925469
v -0.03233586 0.02117199 -0.00703544
v -0.03968624 0.03004628 0.01164609
vn 0.11022244 0.59766071 0.79413644
vn 0.92306788 0.29798899 0.24320414
vn 0.49332778 0.54662503 0.67663045
vn -0.33706161 0.57358178 -0.74658785
vn 0.24229499 -0.84350074 0.47937421
vn 0.78367835 0.36081090 -0.50563202
vn 0.17353386 0.59687233 -0.78334502
vn -0.80055447 -0.02149078 0.59887452
vn 0.70482793 0.36476778 0.60840945
vn 0.30695451 0.56613973 0.76502597
vn 0.51826850 -0.79429416 -0.31700876
vn -0.33511012 0.60384472 0.72323769
vn 0.31150486 -0.34120080 0.88687470
vn 0.96471563 0.25013124 -0.08220775
vn 0.26164155 -0.49244981 -0.83008246
vn 0.27093543 -0.30589620 0.91270012
vn -0.25773836 -0.52232849 0.81286154
vn 0.43023047 -0.65348816 -0.62278003
vn 0.15483606 -0.27870478 -0.94781298
vn -0.59149697 -0.78080316 -0.20119088
vn 0.07617559 -0.22582189 0.97118575
vn -0.76420280 -0.15382062 -0.62636514
vn 0.39286830 -0.91371611 -0.10381406
vn -0.90450854 -0.42569215 0.02550464
vn 0.15794353 -0.25328240 0.95441179
vn -0.58498731 0.22953554 0.77788385
vn -0.61663893 0.11301224 -0.77909220
vn -0.24838697 -0.77693439 -0.57851263
vn -0.31573202 -0.94652311 -0.06638750
vn -0.45764222 -0.83534186 0.30457769
vn -0.85476744 -0.39908341 -0.33182082
vn -0.13918567 -0.94820688 -0.28553646
vn 0.15498876 -0.75545390 -0.63660654
vn -0.83437699 -0.53764767 -0.12144968
vn -0.51002749 -0.67848805 0.52870211
vn -0.41944479 -0.90777901 0.00182655
vn 0.19565250 -0.98033863 -0.02561778
vn 0.15905398 -0.81655334 -0.55492565
vn 0.22979618 -0.94716880 -0.22375203
vn -0.85628354 -0.46856004 0.21732461
f 6//6 3//3 2//2
f 7//7 3//3 6//6
f 9//9 5//5 2//2
f 9//9 2//2 3//3
f 9//9 3//3 5//5
f 10//10 7//7 1//1
f 10//10 3//3 7//7
f 11//11 2//2 5//5
f 12//12 7//7 4//4
f 12//12 1//1 7//7
f 13//13 5//5 3//3
f 13//13 3//3 10//10
f 14//14 11//11 6//6
f 14//14 6//6 2//2
f 14//14 2//2 11//11
f 15//15 7//7 6//6
f 16//16 13//13 10//10
f 16//16 10//10 1//1
f 17//17 5//5 13//13
f 17//17 13//13 16//16
f 18//18 15//15 6//6
f 18//18 6//6 11//11
f 19//19 4//4 7//7
f 19//19 7//7 15//15
f 21//21 1//1 12//12
f 23//23 11//11 5//5
f 25//25 16//16 1//1
f 25//25 1//1 21//21
f 25//25 21//21 17//17
f 25//25 17//17 16//16
f 26//26 21//21 12//12
f 26//26 8//8 17//17
f 26//26 17//17 21//21
f 26//26 12//12 4//4
f 26//26 4//4 8//8
f 27//27 22//22 8//8
f 27//27 8//8 4//4
f 27//27 4//4 19//19
f 27//27 19//19 15//15
f 27//27 15//15 22//22
f 28//28 22//22 15//15
f 31//31 28//28 20//20
f 31//31 22//22 28//28
f 31//31 24//24 8//8
f 31//31 8//8 22//22
f 32//32 20//20 28//28
f 32//32 29//29 20//20
f 33//33 28//28 15//15
f 33//33 15//15 18//18
f 33//33 18//18 11//11
f 34//34 20//20 29//29
f 34//34 31//31 20//20
f 34//34 24//24 31//31
f 35//35 30//30 5//5
f 35//35 5//5 17//17
f 35//35 17//17 8//8
f 35//35 24//24 30//30
f 36//36 29//29 5//5
f 36//36 5//5 30//30
f 36//36 30//30 24//24
f 36//36 34//34 29//29
f 36//36 24//24 34//34
f 37//37 23//23 5//5
f 37//37 5//5 29//29
f 37//37 29//29 32//32
f 38//38 32//32 28//28
f 38//38 11//11 32//32
f 38//38 33//33 11//11
f 38//38 28//28 33//33
f 39//39 32//32 11//11
f 39//39 11//11 23//23
f 39//39 37//37 32//32
f 39//39 23//23 37//37
f 40//40 35//35 8//8
f 40//40 8//8 24//24
f 40//40 24//24 35//35

