# https://github.com/mikedh/trimesh
v 0.04464332 0.04817289 0.02334373
v 0.06392708 0.03764380 -0.01233241
v 0.04229076 0.06167257 0.01114291
v 0.02089122 0.06126479 -0.02550730
v 0.02310879 0.04124931 -0.01233037
v 0.05122757 0.05437974 -0.01845413
v 0.02088715 0.06247400 0.02215296
v 0.05263732 0.04968015 0.01935941
v 0.03953766 0.03639330 0.01876896
v 0.05004848 0.03257082 -0.02450295
v 0.03092183 0.06592556 -0.01750208
v 0.02129165 0.04290823 0.01374127
v 0.03231559 0.05910326 0.02191659
v 0.05225495 0.05289251 0.01548223
v 0.02090320 0.05023317 0.02356728
v 0.05390036 0.03796465 0.02341490
v 0.02129920 0.04819995 -0.02575611
v 0.03953982 0.03318729 -0.00506099
v 0.05848302 0.04164015 -0.02278924
v 0.03654287 0.06066552 -0.02235619
v 0.04228187 0.06155898 -0.00758177
v 0.02075195 0.06922680 0.01387707
v 0.03126917 0.05665687 0.02322020
v 0.04256139 0.05596610 0.02026977
v 0.05245652 0.05428006 -0.00798596
v 0.02144001 0.04537631 0.01939774
v 0.05319966 0.04561560 0.02180818
v 0.03934843 0.03875130 0.02174088
v 0.02100469 0.05849912 0.02362402
v 0.05272539 0.03228708 -0.01185794
v 0.02153931 0.04279058 -0.01905740
v 0.04632754 0.04100333 -0.02570797
v 0.02068579 0.06660414 -0.02170715
v 0.02322743 0.04131486 0.00405472
v 0.03969860 0.03452150 0.00845483
v 0.05802404 0.04616920 -0.01952206
v 0.06192092 0.03734702 -0.02036291
v 0.04254066 0.05991859 -0.01876072
v 0.05613008 0.04638690 -0.02236925
v 0.03090121 0.06759038 0.00404207
v 0.02486654 0.06623967 0.01781385
v 0.02072374 0.06790000 0.01692018
v 0.04309883 0.04945891 0.02331352
v 0.04508674 0.05738857 0.01777672
v 0.04658471 0.05869390 0.01117388
v 0.05241662 0.05431874 -0.01499427
v 0.05960699 0.04482433 -0.01219690
v 0.04853840 0.05190028 0.02013125
v 0.04685877 0.03846129 0.02338121
v 0.02139840 0.04769168 0.02236824
v 0.05231215 0.03789223 0.02352710
v 0.02509861 0.05825242 0.02331397
v 0.02161702 0.04567864 -0.02291965
v 0.03886065 0.03361667 -0.01331096
v 0.05616487 0.03769177 -0.02406364
v 0.02946788 0.06182989 -0.02417701
v 0.02918550 0.06365336 -0.02243373
v 0.02466721 0.04125988 0.01245701
v 0.06338439 0.03717339 -0.01784999
v 0.03507166 0.06305223 -0.02007575
v 0.04546275 0.05698412 -0.02035745
v 0.03537143 0.06448482 -0.01526927
v 0.04457160 0.04812352 -0.02545749
v 0.05675010 0.04602329 -0.02178540
vn 0.15253458 0.18952432 0.96995553
vn 0.96100973 -0.27079220 0.05596320
vn 0.47004753 0.86284503 0.18588644
vn -0.61754697 0.24744777 -0.74659584
vn -0.56097415 -0.82727219 -0.03047497
vn 0.58520402 0.70982908 -0.39201904
vn -0.59457283 0.43069884 0.67895630
vn 0.72595103 0.47320246 0.49907368
vn -0.19829476 -0.90996126 0.36421104
vn 0.07543516 -0.75284305 -0.65386304
vn 0.25649328 0.93286935 -0.25291495
vn -0.79924155 -0.58402565 0.14186959
vn 0.24286287 0.54930456 0.79955120
vn 0.75617316 0.59985243 0.26149420
vn -0.69144527 -0.15337063 0.70596096
vn 0.56476661 -0.45909346 0.68576371
vn -0.66939157 -0.23532243 -0.70465473
vn -0.23468759 -0.97114693 0.04237195
vn 0.59503065 0.24158790 -0.76653364
vn 0.34705998 0.60365062 -0.71774320
vn 0.50821160 0.85995687 -0.04685247
vn -0.54117590 0.82178771 0.17830759
vn 0.12719439 0.27108316 0.95411504
vn 0.31713176 0.54035926 0.77938393
vn 0.71458478 0.69936848 0.01588477
vn -0.73364422 -0.57855650 0.35642464
vn 0.67594927 0.30091360 0.67271360
vn -0.24393310 -0.65236059 0.71758087
vn -0.60362175 0.15400491 0.78225525
vn 0.20280772 -0.97855611 0.03601358
vn -0.78182333 -0.57674755 -0.23688507
vn 0.07085853 -0.03568332 -0.99684792
vn -0.57838657 0.70719079 -0.40663272
vn -0.51438351 -0.85708281 0.02861229
vn -0.16491332 -0.97633372 0.13991450
vn 0.79552283 0.53491697 -0.28461774
vn 0.75757768 -0.27760974 -0.59076975
vn 0.47496665 0.81249844 -0.33801327
vn 0.53128737 0.44745615 -0.71938635
vn 0.28684076 0.95763688 0.02557298
vn 0.26632254 0.79270202 0.54835738
vn -0.58541080 0.68372387 0.43567862
vn 0.17145096 0.26022936 0.95020274
vn 0.45686888 0.72297575 0.51824405
vn 0.60684905 0.78398070 0.13079944
vn 0.68088672 0.72496687 -0.10400146
vn 0.83678246 0.54748500 -0.00743554
vn 0.39152023 0.52289272 0.75716254
vn -0.09225707 -0.51812360 0.85031557
vn -0.63143888 -0.49911248 0.59344054
vn 0.05492915 -0.61495357 0.78664788
vn 0.09735564 0.32721781 0.93992041
vn -0.50772402 -0.67707788 -0.53271181
vn -0.31079749 -0.94305045 -0.11857814
vn 0.37184516 -0.16455628 -0.91359313
vn 0.19804562 0.49398284 -0.84661614
vn 0.24639616 0.76361912 -0.59680380
vn -0.39362832 -0.91104522 0.12269210
vn 0.91374920 -0.31967895 -0.25073447
vn 0.36574803 0.81560641 -0.44834648
vn 0.44447569 0.64807192 -0.61842069
vn 0.41550140 0.89712203 -0.15010213
vn 0.17877510 0.21477649 -0.96016172
vn 0.74680013 0.46226606 -0.47812096
f 14//14 8//8 2//2
f 17//17 12//12 15//15
f 23//23 13//13 7//7
f 26//26 15//15 12//12
f 26//26 12//12 9//9
f 27//27 1//1 16//16
f 27//27 16//16 2//2
f 27//27 2//2 8//8
f 28//28 26//26 9//9
f 29//29 7//7 15//15
f 30//30 2//2 16//16
f 30//30 18//18 10//10
f 31//31 5//5 12//12
f 31//31 12//12 17//17
f 32//32 17//17 4//4
f 32//32 10//10 17//17
f 33//33 17//17 15//15
f 33//33 4//4 17//17
f 34//34 12//12 5//5
f 34//34 5//5 18//18
f 35//35 18//18 30//30
f 35//35 30//30 16//16
f 39//39 6//6 36//36
f 40//40 3//3 21//21
f 40//40 22//22 3//3
f 40//40 33//33 22//22
f 40//40 11//11 33//33
f 41//41 7//7 13//13
f 41//41 3//3 22//22
f 42//42 15//15 7//7
f 42//42 41//41 22//22
f 42//42 7//7 41//41
f 42//42 33//33 15//15
f 42//42 22//22 33//33
f 43//43 13//13 23//23
f 43//43 24//24 13//13
f 43//43 27//27 24//24
f 43//43 1//1 27//27
f 43//43 29//29 1//1
f 43//43 23//23 29//29
f 44//44 8//8 14//14
f 44//44 3//3 41//41
f 44//44 41//41 13//13
f 44//44 13//13 24//24
f 45//45 14//14 25//25
f 45//45 44//44 14//14
f 45//45 3//3 44//44
f 45//45 21//21 3//3
f 46//46 45//45 25//25
f 46//46 21//21 45//45
f 46//46 38//38 21//21
f 46//46 6//6 38//38
f 46//46 36//36 6//6
f 47//47 25//25 14//14
f 47//47 14//14 2//2
f 47//47 46//46 25//25
f 47//47 2//2 36//36
f 47//47 36//36 46//46
f 48//48 27//27 8//8
f 48//48 24//24 27//27
f 48//48 44//44 24//24
f 48//48 8//8 44//44
f 49//49 28//28 9//9
f 50//50 15//15 26//26
f 50//50 26//26 28//28
f 50//50 49//49 15//15
f 50//50 28//28 49//49
f 51//51 16//16 1//1
f 51//51 1//1 29//29
f 51//51 29//29 15//15
f 51//51 15//15 49//49
f 51//51 49//49 9//9
f 51//51 35//35 16//16
f 51//51 9//9 35//35
f 52//52 29//29 23//23
f 52//52 23//23 7//7
f 52//52 7//7 29//29
f 53//53 31//31 17//17
f 53//53 17//17 10//10
f 53//53 10//10 31//31
f 54//54 18//18 5//5
f 54//54 5//5 31//31
f 54//54 31//31 10//10
f 54//54 10//10 18//18
f 55//55 10//10 32//32
f 55//55 37//37 10//10
f 55//55 19//19 37//37
f 56//56 4//4 33//33
f 57//57 33//33 11//11
f 57//57 56//56 33//33
f 57//57 20//20 56//56
f 58//58 34//34 18//18
f 58//58 12//12 34//34
f 58//58 18//18 35//35
f 58//58 35//35 9//9
f 58//58 9//9 12//12
f 59//59 30//30 10//10
f 59//59 10//10 37//37
f 59//59 2//2 30//30
f 59//59 36//36 2//2
f 59//59 37//37 19//19
f 59//59 19//19 36//36
f 60//60 38//38 20//20
f 60//60 11//11 38//38
f 60//60 57//57 11//11
f 60//60 20//20 57//57
f 61//61 38//38 6//6
f 61//61 20//20 38//38
f 61//61 39//39 20//20
f 61//61 6//6 39//39
f 62//62 38//38 11//11
f 62//62 21//21 38//38
f 62//62 40//40 21//21
f 62//62 11//11 40//40
f 63//63 39//39 19//19
f 63//63 32//32 4//4
f 63//63 4//4 56//56
f 63//63 56//56 20//20
f 63//63 20//20 39//39
f 63//63 55//55 32//32
f 63//63 19//19 55//55
f 64//64 39//39 36//36
f 64//64 36//36 19//19
f 64//64 19//19 39//39

