# https://github.com/mikedh/trimesh
v -0.05531280 0.02460320 0.02417118
v -0.05610478 -0.02385823 0.01543996
v -0.05516689 0.00858027 -0.01933417
v -0.07022917 0.00796732 -0.02563508
v -0.07589239 -0.01702988 0.01760231
v -0.06172051 -0.02316506 -0.02263110
v -0.05514670 0.02452553 0.01456602
v -0.07130168 -0.02386867 0.02664133
v -0.07053157 0.02412929 0.01441202
v -0.05670592 -0.02323775 -0.01330818
v -0.05873220 0.00840782 -0.02470087
v -0.07617633 -0.02340575 -0.01883946
v -0.05366327 0.00857837 0.01113377
v -0.06225261 -0.02347584 0.02383078
v -0.06175270 0.00831582 -0.02587633
v -0.06850917 0.02227086 0.02410013
v -0.05808928 -0.02362588 -0.01886541
v -0.05631375 0.00834401 -0.02227028
v -0.07232835 -0.02274665 -0.02622741
v -0.07575756 0.00479041 -0.01792442
v -0.07437435 -0.02338274 0.02108212
v -0.05353044 0.00849855 -0.00755371
v -0.05819341 -0.02355352 0.01942897
v -0.06745104 -0.02321513 0.02648207
v -0.06486115 -0.01268402 -0.02547363
v -0.05993640 0.02439148 0.02488454
v -0.07442840 0.01219506 0.01910196
v -0.06935630 -0.02297121 -0.02557501
v -0.07454279 0.00741573 -0.02173722
v -0.07738281 -0.00268826 -0.00220669
v -0.07562726 -0.02280694 0.00607101
v -0.05397914 0.00237753 0.00393368
v -0.06869689 0.01801383 0.02509598
v -0.06615760 0.02405280 0.02476894
v -0.06011752 0.01700281 0.02505147
v -0.07121085 0.02032122 0.02014151
v -0.07314762 0.01328324 0.02225814
v -0.07170888 0.02102280 0.01439264
v -0.07310158 -0.02290473 -0.02509318
v -0.07568078 -0.00392862 -0.02454146
v -0.07736683 -0.01104626 -0.00347000
v -0.07571906 -0.00119601 0.01741046
v -0.06847559 0.02364667 0.02289832
v -0.07303127 0.01594820 0.02042812
v -0.07286006 -0.02351742 0.02399741
v -0.07042514 0.01367522 0.02471087
v -0.07477877 0.00297144 -0.02423736
v -0.07572633 -0.01397889 -0.02210437
v -0.07732091 -0.00842962 -0.01491095
v -0.07739994 -0.00820742 0.00108468
v -0.06984849 0.02335468 0.01968903
v -0.07328646 0.00596004 -0.02423926
v -0.07586601 0.00038710 -0.02100888
v -0.07729246 -0.00578956 -0.01161731
v -0.07612474 -0.01981231 -0.01972603
v -0.07735850 -0.00569917 0.00073021
v -0.07432654 0.00582544 -0.02308240
vn 0.58944104 0.60055132 0.54027527
vn 0.70277370 -0.69107436 0.16889453
vn 0.91032405 0.29201414 -0.29332211
vn -0.25459545 0.55807469 -0.78976819
vn -0.97304198 -0.05936207 0.22285746
vn 0.39726105 -0.65278504 -0.64502352
vn 0.62767474 0.76649890 -0.13602890
vn -0.37294735 -0.60781755 0.70104786
vn -0.55546448 0.82661423 -0.09037767
vn 0.81545502 -0.57062571 -0.09705363
vn 0.47094424 0.46571426 -0.74921409
vn -0.70246607 -0.68995619 -0.17464787
vn 0.99713070 -0.00374257 0.07560668
vn 0.44546851 -0.65673135 0.60849137
vn 0.14233613 0.51402153 -0.84588551
vn -0.65212302 0.35129738 0.67180779
vn 0.62385396 -0.69594045 -0.35563060
vn 0.75676707 0.37525215 -0.53524707
vn -0.29445304 -0.55719180 -0.77642431
vn -0.97186721 0.21696652 -0.09164961
vn -0.74746068 -0.62117612 0.23546285
vn 0.99304854 0.08056792 -0.08581030
vn 0.61499394 -0.64089768 0.45938287
vn 0.22631119 -0.47593938 0.84986172
vn 0.31128178 -0.08104131 -0.94685583
vn 0.02525128 0.69377762 0.71974647
vn -0.96846937 0.17657278 0.17575305
vn 0.16402774 -0.70331506 -0.69169562
vn -0.76917957 0.54154680 -0.33924895
vn -0.99498195 0.09959800 0.00954764
vn -0.90117903 -0.43179551 0.03780215
vn 0.99734130 -0.07264520 0.00574528
vn -0.35489351 0.12982109 0.92584939
vn -0.20309211 0.69685836 0.68785319
vn 0.12917233 0.01267790 0.99154111
vn -0.87852875 0.39589963 0.26730267
vn -0.83065261 0.15921204 0.53354266
vn -0.94213276 0.33500727 0.01248986
vn -0.58374970 -0.70128624 -0.40918688
vn -0.75958483 0.04541018 -0.64882109
vn -0.99775345 -0.06607071 0.01107764
vn -0.96725323 0.03868987 0.25084713
vn -0.59656383 0.72680815 0.34038436
vn -0.90632104 0.33291806 0.26028397
vn -0.84652358 -0.29351708 0.44412335
vn -0.54044018 0.10406653 0.83492189
vn -0.75773662 0.17213379 -0.62944831
vn -0.90215041 -0.09866524 -0.41998786
vn -0.99617975 0.00524492 -0.08716876
vn -0.99863623 -0.01948262 0.04843663
vn -0.77217389 0.59291342 0.22847572
vn -0.61952532 0.37843267 -0.68773330
vn -0.98037017 0.11566218 -0.15967652
vn -0.99605637 0.07752517 -0.04314566
vn -0.97813888 -0.03612238 -0.20479137
vn -0.99729804 0.03901242 0.06224671
vn -0.74254919 0.36255178 -0.56318461
f 9//9 1//1 7//7
f 13//13 7//7 1//1
f 13//13 1//1 2//2
f 14//14 8//8 2//2
f 15//15 9//9 7//7
f 15//15 4//4 9//9
f 15//15 7//7 11//11
f 17//17 3//3 10//10
f 17//17 10//10 2//2
f 17//17 2//2 8//8
f 17//17 8//8 12//12
f 18//18 11//11 7//7
f 18//18 7//7 3//3
f 18//18 3//3 17//17
f 18//18 17//17 6//6
f 18//18 6//6 11//11
f 19//19 4//4 15//15
f 21//21 12//12 8//8
f 22//22 3//3 7//7
f 22//22 7//7 13//13
f 22//22 10//10 3//3
f 22//22 2//2 10//10
f 23//23 14//14 2//2
f 23//23 2//2 1//1
f 23//23 1//1 14//14
f 24//24 14//14 1//1
f 24//24 8//8 14//14
f 25//25 15//15 11//11
f 25//25 11//11 6//6
f 25//25 19//19 15//15
f 26//26 1//1 9//9
f 26//26 8//8 24//24
f 28//28 17//17 12//12
f 28//28 6//6 17//17
f 28//28 25//25 6//6
f 28//28 19//19 25//25
f 29//29 9//9 4//4
f 30//30 27//27 20//20
f 31//31 21//21 5//5
f 31//31 12//12 21//21
f 32//32 22//22 13//13
f 32//32 13//13 2//2
f 32//32 2//2 22//22
f 33//33 8//8 26//26
f 34//34 26//26 9//9
f 34//34 33//33 26//26
f 34//34 16//16 33//33
f 35//35 26//26 24//24
f 35//35 24//24 1//1
f 35//35 1//1 26//26
f 38//38 20//20 27//27
f 38//38 29//29 20//20
f 38//38 9//9 29//29
f 39//39 28//28 12//12
f 39//39 19//19 28//28
f 40//40 4//4 19//19
f 40//40 19//19 39//39
f 41//41 31//31 5//5
f 41//41 12//12 31//31
f 42//42 27//27 30//30
f 42//42 37//37 27//27
f 42//42 5//5 21//21
f 42//42 21//21 37//37
f 43//43 34//34 9//9
f 43//43 16//16 34//34
f 44//44 36//36 9//9
f 44//44 27//27 37//37
f 44//44 37//37 16//16
f 44//44 43//43 36//36
f 44//44 16//16 43//43
f 44//44 38//38 27//27
f 44//44 9//9 38//38
f 45//45 37//37 21//21
f 45//45 21//21 8//8
f 45//45 8//8 37//37
f 46//46 37//37 8//8
f 46//46 8//8 33//33
f 46//46 33//33 16//16
f 46//46 16//16 37//37
f 47//47 4//4 40//40
f 47//47 20//20 29//29
f 48//48 40//40 39//39
f 48//48 39//39 12//12
f 48//48 12//12 40//40
f 49//49 12//12 41//41
f 50//50 41//41 5//5
f 50//50 49//49 41//41
f 50//50 30//30 49//49
f 50//50 5//5 42//42
f 51//51 43//43 9//9
f 51//51 9//9 36//36
f 51//51 36//36 43//43
f 52//52 29//29 4//4
f 52//52 4//4 47//47
f 53//53 47//47 40//40
f 53//53 20//20 47//47
f 53//53 49//49 20//20
f 53//53 40//40 49//49
f 54//54 49//49 30//30
f 54//54 30//30 20//20
f 54//54 20//20 49//49
f 55//55 49//49 40//40
f 55//55 40//40 12//12
f 55//55 12//12 49//49
f 56//56 50//50 42//42
f 56//56 42//42 30//30
f 56//56 30//30 50//50
f 57//57 52//52 47//47
f 57//57 47//47 29//29
f 57//57 29//29 52//52

