# https://github.com/mikedh/trimesh
v -0.03990011 0.04639771 0.01491770
v -0.03999355 0.03107219 0.01172166
v -0.03965929 0.04727970 -0.01616784
v -0.05717204 0.03063984 -0.01702751
v -0.06752075 0.01427496 0.00969503
v -0.05012993 0.01469445 -0.01079478
v -0.05344015 0.04453718 0.01135239
v -0.03948406 0.05208135 0.01225288
v -0.05602835 0.02079037 0.01489732
v -0.04004303 0.03146489 -0.01026611
v -0.05720639 0.01455341 -0.01703631
v -0.05540711 0.04240262 -0.01260126
v -0.04002717 0.03757585 0.01485473
v -0.03947471 0.05104942 -0.01408522
v -0.04865172 0.04571206 0.01376117
v -0.06170420 0.02757109 0.01473670
v -0.05394799 0.01438635 0.00950534
v -0.04624078 0.03720618 -0.01721560
v -0.04051411 0.03686055 -0.01592857
v -0.06571352 0.01413656 -0.01451884
v -0.04992964 0.04192723 -0.01599473
v -0.04645499 0.04938564 -0.00779691
v -0.04760893 0.04748772 0.01296561
v -0.04282700 0.04912608 0.01366754
v -0.06399636 0.02028419 0.01486756
v -0.06250688 0.03245153 0.01061717
v -0.05900130 0.03560331 0.01381788
v -0.05196409 0.04085095 0.01465373
v -0.05256977 0.01460556 0.00526437
v -0.05925108 0.02767988 -0.01714647
v -0.04629600 0.03522377 -0.01706785
v -0.05043545 0.01459003 -0.00938057
v -0.05558957 0.03857815 -0.01494500
v -0.04815386 0.03708573 -0.01715039
v -0.04154547 0.04882779 -0.01491889
v -0.05054453 0.04630629 -0.01245077
v -0.04748576 0.04839541 0.01051440
v -0.03956674 0.05282400 -0.00678302
v -0.05372606 0.04344201 0.01279571
v -0.04797108 0.04391785 0.01469040
v -0.03976183 0.04928066 0.01397078
v -0.04355303 0.04954420 0.01299140
v -0.05876902 0.03269162 0.01478828
v -0.06553833 0.02227441 0.01313171
v -0.06565197 0.02238224 -0.00578102
v -0.05843186 0.03946103 -0.00280992
v -0.06143201 0.01436786 -0.01706072
v -0.05945471 0.03744790 -0.01193888
v -0.05699555 0.03456914 -0.01591647
v -0.05281527 0.04345716 -0.01399512
v -0.04069752 0.04718881 -0.01600614
v -0.04148193 0.05135313 -0.01177422
v -0.05245408 0.04531500 -0.01076329
v -0.04638944 0.04947140 -0.00080204
v -0.04542430 0.04934203 0.01160027
v -0.05165830 0.04540833 0.01217798
v -0.05841345 0.03840942 0.01164516
v -0.05285458 0.04268085 0.01368544
v -0.04189227 0.04628984 0.01478013
v -0.03965397 0.05116039 0.01305264
v -0.05508636 0.03781832 0.01464630
v -0.06393881 0.02532471 0.01376898
v -0.06591983 0.02030463 0.01337938
v -0.06674693 0.01630350 -0.00573314
vn 0.60555063 0.12296054 0.78625005
vn 0.83349149 -0.37370212 0.40698730
vn 0.60802368 0.22745651 -0.76063838
vn -0.20919437 0.19067650 -0.95910385
vn -0.70451507 -0.61831496 0.34834628
vn 0.56078545 -0.78349036 -0.26769860
vn -0.64510577 0.73766386 0.19922494
vn 0.48978567 0.79790185 0.35137252
vn 0.16495599 -0.35724015 0.91933073
vn 0.92701031 -0.31996699 -0.19563488
vn 0.18771571 -0.67677333 -0.71185720
vn -0.68526436 0.62474176 -0.37431336
vn 0.68001725 -0.09408200 0.72713487
vn 0.52244307 0.66864165 -0.52912341
vn -0.30872335 0.46634485 0.82898273
vn -0.37979615 0.17511577 0.90834429
vn 0.33116596 -0.84231043 0.42525551
vn 0.08105716 0.01836278 -0.99654029
vn 0.71235517 -0.16331543 -0.68255269
vn -0.69699124 -0.56066628 -0.44705315
vn -0.24540361 0.33444746 -0.90990217
vn -0.49355955 0.86724841 -0.06541529
vn -0.40891691 0.69819949 0.58762610
vn -0.21245484 0.49646854 0.84165428
vn -0.29198722 -0.24117914 0.92551396
vn -0.88321186 0.41819882 0.21224174
vn -0.60679921 0.39434810 0.69013353
vn -0.18601347 0.20727384 0.96043560
vn 0.55428135 -0.82548506 0.10652044
vn -0.44744981 0.16697255 -0.87858343
vn 0.18824917 -0.09347622 -0.97766275
vn 0.40775304 -0.91209611 0.04263974
vn -0.50609935 0.38853686 -0.77000166
vn -0.08215083 0.12002777 -0.98936574
vn -0.26899444 0.52386056 -0.80821538
vn -0.48588210 0.78104507 -0.39228457
vn -0.49711076 0.85995045 0.11561191
vn 0.48927739 0.87080430 -0.04803655
vn -0.57181927 0.57458828 0.58555190
vn -0.15143884 0.22468501 0.96259177
vn 0.58591564 0.27868360 0.76094567
vn -0.35178027 0.70835955 0.61194558
vn -0.23813877 0.14533261 0.96029598
vn -0.89336543 0.26262375 0.36459152
vn -0.95755087 0.26511969 -0.11317194
vn -0.79679874 0.60423297 -0.00377949
vn -0.20186216 -0.63006784 -0.74984411
vn -0.81977187 0.45699924 -0.34514602
vn -0.49446854 0.32558971 -0.80591080
vn -0.45992342 0.55863914 -0.69021211
vn -0.19485129 0.39478137 -0.89787563
vn -0.33392656 0.90113944 -0.27647923
vn -0.61802292 0.78031041 -0.09572535
vn -0.49257081 0.87011883 0.01634651
vn -0.44087171 0.86611537 0.23553408
vn -0.49884321 0.76195361 0.41301592
vn -0.77698710 0.56970692 0.26781536
vn -0.35888761 0.40225964 0.84225107
vn -0.09870961 0.24993758 0.96321733
vn 0.44588945 0.49168750 0.74794786
vn -0.24157859 0.22354658 0.94428105
vn -0.71306861 0.28257290 0.64162739
vn -0.84008762 0.02704793 0.54177597
vn -0.99614763 0.02089894 -0.08516535
f 10//10 2//2 6//6
f 13//13 8//8 1//1
f 13//13 2//2 8//8
f 13//13 9//9 2//2
f 13//13 1//1 9//9
f 14//14 8//8 2//2
f 14//14 10//10 3//3
f 14//14 2//2 10//10
f 17//17 2//2 9//9
f 19//19 10//10 6//6
f 19//19 6//6 11//11
f 19//19 3//3 10//10
f 19//19 18//18 3//3
f 20//20 17//17 5//5
f 24//24 23//23 15//15
f 25//25 9//9 1//1
f 25//25 17//17 9//9
f 25//25 5//5 17//17
f 29//29 6//6 2//2
f 29//29 2//2 17//17
f 31//31 19//19 11//11
f 31//31 11//11 18//18
f 31//31 18//18 19//19
f 32//32 11//11 6//6
f 32//32 17//17 20//20
f 32//32 29//29 17//17
f 32//32 6//6 29//29
f 34//34 4//4 21//21
f 34//34 30//30 4//4
f 34//34 18//18 30//30
f 34//34 21//21 3//3
f 34//34 3//3 18//18
f 35//35 14//14 3//3
f 38//38 8//8 14//14
f 39//39 15//15 23//23
f 40//40 24//24 15//15
f 41//41 1//1 8//8
f 42//42 8//8 23//23
f 42//42 23//23 24//24
f 43//43 25//25 1//1
f 43//43 16//16 25//25
f 43//43 40//40 28//28
f 43//43 1//1 40//40
f 43//43 27//27 16//16
f 45//45 44//44 26//26
f 45//45 5//5 44//44
f 46//46 7//7 12//12
f 47//47 30//30 18//18
f 47//47 18//18 11//11
f 47//47 20//20 30//30
f 47//47 32//32 20//20
f 47//47 11//11 32//32
f 48//48 30//30 20//20
f 48//48 12//12 33//33
f 48//48 20//20 45//45
f 48//48 46//46 12//12
f 48//48 45//45 26//26
f 48//48 26//26 46//46
f 49//49 33//33 21//21
f 49//49 21//21 4//4
f 49//49 4//4 30//30
f 49//49 48//48 33//33
f 49//49 30//30 48//48
f 50//50 33//33 12//12
f 50//50 21//21 33//33
f 50//50 12//12 36//36
f 50//50 35//35 21//21
f 50//50 36//36 14//14
f 50//50 14//14 35//35
f 51//51 35//35 3//3
f 51//51 3//3 21//21
f 51//51 21//21 35//35
f 52//52 36//36 22//22
f 52//52 14//14 36//36
f 52//52 38//38 14//14
f 52//52 22//22 38//38
f 53//53 36//36 12//12
f 53//53 12//12 7//7
f 53//53 22//22 36//36
f 54//54 7//7 37//37
f 54//54 53//53 7//7
f 54//54 22//22 53//53
f 54//54 38//38 22//22
f 54//54 8//8 38//38
f 55//55 23//23 8//8
f 55//55 54//54 37//37
f 55//55 8//8 54//54
f 56//56 39//39 23//23
f 56//56 7//7 39//39
f 56//56 23//23 55//55
f 56//56 55//55 37//37
f 56//56 37//37 7//7
f 57//57 39//39 7//7
f 57//57 26//26 27//27
f 57//57 27//27 39//39
f 57//57 46//46 26//26
f 57//57 7//7 46//46
f 58//58 15//15 39//39
f 58//58 40//40 15//15
f 58//58 28//28 40//40
f 58//58 39//39 27//27
f 59//59 40//40 1//1
f 59//59 24//24 40//40
f 59//59 41//41 24//24
f 59//59 1//1 41//41
f 60//60 41//41 8//8
f 60//60 24//24 41//41
f 60//60 42//42 24//24
f 60//60 8//8 42//42
f 61//61 43//43 28//28
f 61//61 27//27 43//43
f 61//61 58//58 27//27
f 61//61 28//28 58//58
f 62//62 25//25 16//16
f 62//62 16//16 27//27
f 62//62 27//27 26//26
f 62//62 26//26 44//44
f 63//63 44//44 5//5
f 63//63 5//5 25//25
f 63//63 62//62 44//44
f 63//63 25//25 62//62
f 64//64 45//45 20//20
f 64//64 20//20 5//5
f 64//64 5//5 45//45

