# https://github.com/mikedh/trimesh
v 0.00012753 0.06316523 0.02302390
v 0.02104233 0.06336699 -0.00037300
v 0.00024478 0.07068161 0.01425077
v -0.01819272 0.06584587 -0.02127174
v 0.02092826 0.06281146 -0.02498674
v -0.01779846 0.06298733 0.02244827
v 0.02083970 0.06982122 -0.00031583
v 0.00028117 0.06936435 0.01848641
v -0.01588687 0.06909319 0.00970100
v 0.01205903 0.06325912 -0.02549379
v 0.02087527 0.06762008 -0.01918223
v -0.00114478 0.06904667 -0.01927372
v -0.01016460 0.06526822 0.02173814
v 0.00019798 0.06519658 0.02203314
v -0.01753965 0.06764789 0.01518802
v 0.01191832 0.06656952 -0.02340558
v 0.01201900 0.07076416 -0.00473463
v -0.00130334 0.07074237 -0.00178973
v -0.01765774 0.06760065 -0.01355621
v -0.01125142 0.06765211 0.01907950
v -0.00411516 0.07068419 0.01256297
v 0.02068579 0.06660414 -0.02170715
v 0.01191794 0.06535625 -0.02449275
v 0.00745314 0.06897403 -0.01910022
v 0.01335349 0.07078655 -0.00029933
v 0.01885646 0.06921565 -0.01362258
v 0.00019109 0.07072896 -0.00328298
v -0.01604593 0.06907169 -0.00034785
v -0.01139137 0.06896098 -0.01207246
v -0.01760452 0.06454581 0.02073107
v -0.01133159 0.06616881 0.02085373
v -0.00857967 0.06895399 0.01690945
v 0.01775478 0.06658187 -0.02255528
v 0.02081154 0.06912238 -0.01065145
v 0.01335981 0.06891669 -0.01767322
v -0.00565863 0.07066869 0.00863035
v -0.01770097 0.06669921 -0.01962545
v -0.00700825 0.06903523 -0.01635210
v -0.01447137 0.06899487 -0.00608504
v -0.01572898 0.06614595 0.01906890
v -0.01749077 0.06354956 0.02212467
v -0.00267548 0.06909213 0.01838587
v -0.00124189 0.07057976 0.01423130
v 0.02082692 0.06381180 -0.02429142
v 0.01635372 0.06755881 -0.02067440
v 0.01783104 0.06906746 -0.01493874
v -0.00420650 0.07071253 0.00414998
v -0.00567010 0.07062227 0.01144609
v -0.01154689 0.06765263 -0.01953202
vn 0.29869134 -0.45966649 0.83635531
vn 0.74142265 -0.60856165 0.28274577
vn 0.06646357 0.97890947 0.19318084
vn -0.68940010 -0.13771370 -0.71116977
vn 0.58405999 -0.40389936 -0.70408752
vn -0.61557183 -0.38125363 0.68972241
vn 0.74177417 0.61409540 0.26955133
vn 0.21410052 0.79595626 0.56622840
vn -0.39048187 0.91850844 0.06217840
vn -0.05601005 -0.49749840 -0.86565479
vn 0.72494110 0.65457816 -0.21444775
vn -0.04962153 0.91914232 -0.39078780
vn -0.04546082 0.54608420 0.83649588
vn 0.32390833 0.49649971 0.80533933
vn -0.72698599 0.65718679 0.19898969
vn 0.03115385 0.78202998 -0.62246168
vn 0.05153859 0.99643363 -0.06681166
vn -0.05660686 0.99767655 -0.03791002
vn -0.66714111 0.74154886 -0.07090856
vn -0.17178453 0.85176379 0.49496316
vn -0.08282707 0.98817252 0.12905325
vn 0.62652109 0.64833933 -0.43258229
vn 0.00659683 0.55598953 -0.83116311
vn 0.02946927 0.95211685 -0.30431079
vn 0.08386651 0.99597411 0.03165408
vn 0.16963273 0.97433812 -0.14795259
vn -0.03190297 0.99751939 -0.06274759
vn -0.41894929 0.90781150 -0.01896782
vn -0.14314639 0.98411294 -0.10502780
vn -0.67203831 0.62355223 0.39943350
vn -0.11669289 0.70784286 0.69666438
vn -0.14963856 0.94208148 0.30015128
vn 0.12373522 0.79017364 -0.60026262
vn 0.72526884 0.68577666 -0.06079052
vn 0.07389653 0.96907295 -0.23545047
vn -0.08896362 0.99603484 0.00025868
vn -0.46390591 0.85646278 -0.22641291
vn -0.10820738 0.98153200 -0.15775328
vn -0.17415718 0.98215294 -0.07102731
vn -0.28801992 0.83470707 0.46937048
vn -0.33954707 0.64909093 0.68072664
vn -0.09880698 0.89712060 0.43059472
vn -0.08331227 0.96568091 0.24600701
vn 0.62412064 0.50743551 -0.59412342
vn 0.08840690 0.92254965 -0.37561464
vn 0.10359439 0.97388243 -0.20204260
vn -0.06567342 0.99764835 -0.01961545
vn -0.12819403 0.98744756 0.09226925
vn -0.12507578 0.92465248 -0.35968576
f 5//5 2//2 1//1
f 6//6 5//5 1//1
f 7//7 1//1 2//2
f 8//8 7//7 3//3
f 10//10 6//6 4//4
f 10//10 5//5 6//6
f 11//11 7//7 2//2
f 11//11 2//2 5//5
f 13//13 6//6 1//1
f 14//14 1//1 7//7
f 14//14 7//7 8//8
f 14//14 13//13 1//1
f 14//14 8//8 13//13
f 15//15 4//4 6//6
f 16//16 4//4 12//12
f 19//19 4//4 15//15
f 22//22 11//11 5//5
f 23//23 5//5 10//10
f 23//23 10//10 4//4
f 23//23 4//4 16//16
f 24//24 16//16 12//12
f 24//24 12//12 17//17
f 25//25 3//3 7//7
f 25//25 7//7 17//17
f 25//25 17//17 18//18
f 25//25 21//21 3//3
f 26//26 17//17 7//7
f 27//27 18//18 17//17
f 27//27 17//17 12//12
f 28//28 19//19 15//15
f 28//28 15//15 9//9
f 30//30 15//15 6//6
f 31//31 13//13 8//8
f 31//31 8//8 20//20
f 32//32 15//15 20//20
f 32//32 21//21 9//9
f 32//32 9//9 15//15
f 33//33 23//23 16//16
f 33//33 16//16 24//24
f 34//34 26//26 7//7
f 34//34 7//7 11//11
f 34//34 11//11 26//26
f 35//35 24//24 17//17
f 35//35 17//17 26//26
f 36//36 28//28 9//9
f 37//37 4//4 19//19
f 37//37 19//19 29//29
f 38//38 27//27 12//12
f 38//38 37//37 29//29
f 38//38 29//29 18//18
f 38//38 18//18 27//27
f 39//39 18//18 29//29
f 39//39 29//29 19//19
f 39//39 19//19 28//28
f 40//40 30//30 20//20
f 40//40 20//20 15//15
f 40//40 15//15 30//30
f 41//41 6//6 13//13
f 41//41 13//13 31//31
f 41//41 30//30 6//6
f 41//41 31//31 20//20
f 41//41 20//20 30//30
f 42//42 32//32 20//20
f 42//42 20//20 8//8
f 43//43 8//8 3//3
f 43//43 3//3 21//21
f 43//43 21//21 32//32
f 43//43 42//42 8//8
f 43//43 32//32 42//42
f 44//44 33//33 22//22
f 44//44 22//22 5//5
f 44//44 5//5 23//23
f 44//44 23//23 33//33
f 45//45 33//33 24//24
f 45//45 11//11 22//22
f 45//45 22//22 33//33
f 45//45 35//35 11//11
f 45//45 24//24 35//35
f 46//46 35//35 26//26
f 46//46 26//26 11//11
f 46//46 11//11 35//35
f 47//47 36//36 21//21
f 47//47 28//28 36//36
f 47//47 39//39 28//28
f 47//47 18//18 39//39
f 47//47 25//25 18//18
f 47//47 21//21 25//25
f 48//48 36//36 9//9
f 48//48 9//9 21//21
f 48//48 21//21 36//36
f 49//49 12//12 4//4
f 49//49 4//4 37//37
f 49//49 38//38 12//12
f 49//49 37//37 38//38

