# https://github.com/mikedh/trimesh
v 0.06715061 -0.01565788 0.01621288
v 0.07063153 -0.04420675 0.01156136
v 0.07196958 -0.01582079 -0.01035595
v 0.06228184 -0.01561923 -0.01591672
v 0.04082907 -0.04638685 0.01391218
v 0.06915826 -0.04558968 -0.01225786
v 0.06806146 -0.01547502 -0.01585556
v 0.07075951 -0.01582543 0.01279440
v 0.06561393 -0.04324290 0.01599737
v 0.05948141 -0.01545906 0.01446898
v 0.07179727 -0.04327177 -0.00848812
v 0.04086830 -0.04327318 -0.01491618
v 0.06559341 -0.04855817 0.00253440
v 0.07105941 -0.03303252 -0.01272896
v 0.07000526 -0.03301886 0.01416379
v 0.07188160 -0.01569960 -0.00039256
v 0.04705803 -0.03855623 0.01627502
v 0.05863909 -0.01543348 0.00256219
v 0.06950976 -0.04759007 -0.00048709
v 0.06664782 -0.04244229 -0.01475076
v 0.04087111 -0.04760785 -0.01222457
v 0.06558048 -0.04665029 0.01432878
v 0.06991516 -0.01563665 -0.01417735
v 0.07082643 -0.04315026 -0.01192744
v 0.07182335 -0.03835636 -0.01046644
v 0.06916086 -0.01670810 0.01503050
v 0.07071641 -0.03732640 0.01265250
v 0.06825120 -0.04324863 0.01504599
v 0.07190186 -0.04052569 0.00782334
v 0.06296208 -0.01974829 0.01724890
v 0.04712956 -0.04413123 0.01623978
v 0.04089040 -0.04501243 0.01545541
v 0.05957470 -0.01560043 -0.01313287
v 0.07183401 -0.04433990 0.00474393
v 0.07085256 -0.04604529 -0.00821141
v 0.06764192 -0.04756135 -0.00924955
v 0.06861429 -0.04026596 -0.01463174
v 0.06469557 -0.02903212 -0.01588144
v 0.06248775 -0.04563266 -0.01386178
v 0.04073896 -0.04877794 -0.00041568
v 0.06847300 -0.04763850 0.00977290
v 0.06990136 -0.03738003 -0.01385680
v 0.07177641 -0.02069802 -0.01129111
v 0.07184343 -0.04144331 -0.00941444
v 0.06986869 -0.02503400 0.01427012
v 0.06981122 -0.04427193 0.01351001
v 0.06733212 -0.04485303 0.01497685
v 0.06559171 -0.01984466 0.01713682
v 0.06753910 -0.02781995 0.01612870
v 0.07196755 -0.02603613 0.00584649
v 0.06105596 -0.01562054 0.01614106
v 0.06306951 -0.02174566 0.01720393
v 0.06256015 -0.04427456 0.01604905
v 0.04824636 -0.04558714 0.01532650
v 0.04088176 -0.03946560 0.00175107
v 0.04089207 -0.03950195 -0.01532437
v 0.07185464 -0.04148830 0.00770122
v 0.07085507 -0.04586586 0.00787959
v 0.07182841 -0.04441170 -0.00234508
v 0.07089005 -0.04486827 -0.01022550
v 0.06558626 -0.04869893 -0.00017180
v 0.06932611 -0.04750468 -0.00721356
v 0.06975329 -0.04414145 -0.01284390
v 0.06738765 -0.02370316 -0.01565184
vn 0.27244938 0.68390325 0.67679220
vn 0.90032891 -0.31072015 0.30473076
vn 0.76444078 0.62215037 -0.16899470
vn -0.16788350 0.67985412 -0.71387219
vn -0.67003867 -0.66736565 0.32507116
vn 0.43081043 -0.67598408 -0.59786947
vn 0.28931796 0.63699492 -0.71451564
vn 0.71375113 0.63939696 0.28588609
vn 0.18820891 -0.19143231 0.96329179
vn -0.48299123 0.82844768 0.28353821
vn 0.97479601 -0.18514209 -0.12447949
vn -0.65959572 -0.23631330 -0.71350509
vn 0.08086793 -0.99375131 0.07693313
vn 0.84549449 -0.01745463 -0.53369879
vn 0.76485578 -0.01889411 0.64392441
vn 0.71622128 0.69734495 0.02714968
vn -0.20779785 0.10349439 0.97268133
vn -0.45831627 0.88876400 0.00668905
vn 0.54132006 -0.84080078 0.00516108
vn 0.17547569 -0.27772908 -0.94449714
vn -0.61435389 -0.67129840 -0.41464171
vn 0.17639887 -0.79352425 0.58241111
vn 0.61191138 0.64432256 -0.45870786
vn 0.84524147 -0.21207423 -0.49050114
vn 0.96995528 -0.03572092 -0.24064657
vn 0.66790869 0.19114133 0.71927948
vn 0.92162603 -0.03158946 0.38679138
vn 0.50862651 -0.15613867 0.84671116
vn 0.99002511 -0.03124582 0.13738262
vn -0.06501242 0.11661493 0.99104709
vn -0.04678559 -0.27672796 0.95980870
vn -0.69865166 -0.16196173 0.69688899
vn -0.47420707 0.84608573 -0.24344732
vn 0.95888602 -0.28112787 0.03879066
vn 0.78355041 -0.59509085 -0.17864948
vn 0.19392246 -0.93447989 -0.29856560
vn 0.43247037 -0.12622698 -0.89276880
vn 0.07335813 -0.03996582 -0.99650455
vn 0.06483667 -0.64681419 -0.75988658
vn -0.68693392 -0.72647181 0.01898687
vn 0.39142010 -0.88853541 0.23936401
vn 0.69619247 -0.05367957 -0.71584534
vn 0.93374978 0.00871628 -0.35782031
vn 0.98435558 -0.07346694 -0.16014589
vn 0.79703956 0.00604998 0.60389680
vn 0.73779904 -0.38542538 0.55416590
vn 0.38407157 -0.48031518 0.78853431
vn 0.24272860 0.05433334 0.96857148
vn 0.46380313 -0.02771371 0.88550472
vn 0.99726349 0.01616411 0.07214054
vn -0.22244175 0.70864652 0.66958179
vn 0.01894115 -0.03482404 0.99921395
vn 0.04010669 -0.32679206 0.94424489
vn -0.01252949 -0.69089614 0.72284544
vn -0.93980807 0.33680319 0.05765756
vn -0.71938290 0.20418590 -0.66392497
vn 0.98365566 -0.10041823 0.14945807
vn 0.82167709 -0.54972893 0.15048210
vn 0.96037646 -0.27866953 -0.00451070
vn 0.83515049 -0.44352697 -0.32528061
vn 0.12171939 -0.99237074 -0.01961409
vn 0.44109286 -0.88761009 -0.13261003
vn 0.58613325 -0.37840434 -0.71642025
vn 0.19390567 -0.04089198 -0.98016755
f 10//10 1//1 7//7
f 16//16 7//7 1//1
f 16//16 1//1 8//8
f 18//18 10//10 7//7
f 23//23 16//16 3//3
f 23//23 7//7 16//16
f 25//25 24//24 14//14
f 26//26 8//8 1//1
f 27//27 8//8 15//15
f 29//29 8//8 27//27
f 29//29 27//27 2//2
f 31//31 30//30 17//17
f 32//32 31//31 17//17
f 33//33 18//18 7//7
f 33//33 7//7 4//4
f 38//38 4//4 7//7
f 38//38 37//37 20//20
f 39//39 20//20 6//6
f 39//39 36//36 21//21
f 39//39 6//6 36//36
f 39//39 21//21 12//12
f 39//39 12//12 20//20
f 40//40 12//12 21//21
f 41//41 40//40 13//13
f 41//41 22//22 5//5
f 41//41 5//5 40//40
f 42//42 23//23 14//14
f 42//42 7//7 23//23
f 42//42 37//37 7//7
f 42//42 14//14 24//24
f 43//43 23//23 3//3
f 43//43 14//14 23//23
f 43//43 25//25 14//14
f 43//43 3//3 25//25
f 44//44 11//11 24//24
f 44//44 24//24 25//25
f 44//44 25//25 3//3
f 44//44 3//3 29//29
f 45//45 26//26 15//15
f 45//45 15//15 8//8
f 45//45 8//8 26//26
f 46//46 27//27 15//15
f 46//46 15//15 28//28
f 46//46 2//2 27//27
f 46//46 22//22 41//41
f 47//47 28//28 9//9
f 47//47 46//46 28//28
f 47//47 22//22 46//46
f 48//48 1//1 30//30
f 49//49 28//28 15//15
f 49//49 15//15 26//26
f 49//49 26//26 1//1
f 49//49 1//1 48//48
f 49//49 48//48 9//9
f 49//49 9//9 28//28
f 50//50 29//29 3//3
f 50//50 3//3 16//16
f 50//50 16//16 8//8
f 50//50 8//8 29//29
f 51//51 30//30 1//1
f 51//51 1//1 10//10
f 51//51 17//17 30//30
f 51//51 32//32 17//17
f 51//51 10//10 32//32
f 52//52 30//30 31//31
f 52//52 48//48 30//30
f 52//52 9//9 48//48
f 53//53 52//52 31//31
f 53//53 9//9 52//52
f 53//53 47//47 9//9
f 53//53 22//22 47//47
f 54//54 32//32 5//5
f 54//54 5//5 22//22
f 54//54 31//31 32//32
f 54//54 53//53 31//31
f 54//54 22//22 53//53
f 55//55 32//32 10//10
f 55//55 10//10 18//18
f 55//55 5//5 32//32
f 55//55 40//40 5//5
f 56//56 33//33 4//4
f 56//56 12//12 40//40
f 56//56 40//40 55//55
f 56//56 55//55 18//18
f 56//56 18//18 33//33
f 56//56 4//4 38//38
f 56//56 38//38 20//20
f 56//56 20//20 12//12
f 57//57 34//34 29//29
f 57//57 29//29 2//2
f 57//57 2//2 34//34
f 58//58 35//35 34//34
f 58//58 19//19 35//35
f 58//58 41//41 19//19
f 58//58 34//34 2//2
f 58//58 46//46 41//41
f 58//58 2//2 46//46
f 59//59 35//35 11//11
f 59//59 34//34 35//35
f 59//59 11//11 44//44
f 59//59 44//44 29//29
f 59//59 29//29 34//34
f 60//60 24//24 11//11
f 60//60 11//11 35//35
f 60//60 35//35 6//6
f 61//61 13//13 40//40
f 61//61 40//40 21//21
f 61//61 21//21 36//36
f 61//61 41//41 13//13
f 61//61 19//19 41//41
f 62//62 35//35 19//19
f 62//62 61//61 36//36
f 62//62 19//19 61//61
f 62//62 36//36 6//6
f 62//62 6//6 35//35
f 63//63 6//6 20//20
f 63//63 20//20 37//37
f 63//63 60//60 6//6
f 63//63 24//24 60//60
f 63//63 42//42 24//24
f 63//63 37//37 42//42
f 64//64 38//38 7//7
f 64//64 7//7 37//37
f 64//64 37//37 38//38

