# https://github.com/mikedh/trimesh
v 0.05458176 0.03624413 0.01497281
v 0.07074195 0.00122287 0.01171205
v 0.06525360 0.02874526 -0.01046965
v 0.04569455 0.04372860 -0.01590942
v 0.05918941 0.00153919 0.01434306
v 0.05210125 0.04586760 0.00351841
v 0.06641618 0.02557614 0.01063769
v 0.06685861 0.00134038 0.01608696
v 0.04606463 0.03391760 0.01498287
v 0.06388230 0.00150947 -0.01683384
v 0.05201566 0.04485478 -0.01146024
v 0.07054403 0.01368965 -0.00871325
v 0.05911683 0.03667040 0.01136814
v 0.05817560 0.00134622 -0.01151927
v 0.06564699 0.02357997 0.01386260
v 0.04527652 0.04926947 0.00867698
v 0.06041733 0.02107167 0.01613613
v 0.06076396 0.00137771 0.01601514
v 0.05889669 0.03136942 -0.01577967
v 0.06012094 0.03789675 -0.00858603
v 0.06948872 0.01682198 0.00771175
v 0.07167758 0.00117747 -0.01048187
v 0.04651706 0.03432951 -0.01588147
v 0.04665210 0.02934049 0.01250135
v 0.06050065 0.03214241 0.01383067
v 0.06946981 0.00749082 0.01341519
v 0.04518945 0.04821445 0.01144160
v 0.04546059 0.04818119 -0.01353500
v 0.04570799 0.04078551 0.01507568
v 0.06501605 0.02086460 0.01481544
v 0.06535278 0.00461021 -0.01691135
v 0.05327057 0.04481776 -0.00551328
v 0.05731301 0.03796628 -0.01399203
v 0.06008531 0.03794703 0.00148951
v 0.07155480 0.00545248 -0.00480791
v 0.06735781 0.02476068 -0.00867102
v 0.06198984 0.00137902 -0.01604264
v 0.06352617 0.00508977 -0.01691482
v 0.04683420 0.02820579 -0.00741266
v 0.05737881 0.00277180 -0.00582812
v 0.04624093 0.03142110 0.01377372
v 0.05436590 0.03901851 0.01390626
v 0.06560987 0.02579641 0.01284683
v 0.06996707 0.00138139 0.01353457
v 0.07045090 0.00740523 0.01065093
v 0.04541847 0.04642820 -0.01516797
v 0.05315413 0.04268396 0.01152004
v 0.04533473 0.04919503 -0.00544208
v 0.04538739 0.04550713 0.01400282
v 0.06217079 0.01895583 0.01601571
v 0.05877519 0.03208793 0.01489480
v 0.06777927 0.01575672 0.01396119
v 0.05035784 0.04130143 -0.01580338
v 0.06776946 0.00152323 -0.01598148
v 0.05627679 0.04168507 -0.00948828
v 0.05355265 0.04135351 -0.01463793
v 0.05904090 0.03796776 -0.01205063
v 0.06545240 0.02479119 -0.01377470
v 0.05808284 0.03878791 0.00967041
v 0.06216471 0.03499499 -0.00654833
v 0.05223648 0.04583660 -0.00241241
v 0.05924405 0.03888010 -0.00938403
v 0.07054552 0.01369791 0.00047306
v 0.07157580 0.00538590 -0.00846897
vn 0.21701299 0.24201729 0.94569181
vn 0.73631941 -0.65002430 0.18788862
vn 0.85945728 0.43917394 -0.26164754
vn -0.61743031 0.09048495 -0.78140404
vn -0.61816197 -0.73645021 0.27480332
vn 0.59244974 0.80079883 0.08788934
vn 0.90512465 0.38419880 0.18204574
vn 0.27304224 -0.61367032 0.74084862
vn -0.74437257 -0.08950091 0.66173942
vn -0.03966721 -0.64964370 -0.75920325
vn 0.55599954 0.77616417 -0.29737801
vn 0.95060139 0.18835729 -0.24673575
vn 0.72576675 0.55673356 0.40411678
vn -0.58764566 -0.77374553 -0.23662296
vn 0.65036923 0.24574536 0.71876915
vn -0.41550153 0.89045023 0.18562558
vn 0.08069878 0.06783334 0.99442765
vn -0.24896754 -0.67541274 0.69414177
vn 0.34024561 0.20608806 -0.91747514
vn 0.80610151 0.58147331 -0.10995062
vn 0.96211146 0.22920081 0.14767708
vn 0.74423189 -0.61426186 -0.26229994
vn -0.72158664 -0.12732935 -0.68051448
vn -0.93662454 -0.32064162 0.14115036
vn 0.59723513 0.42414155 0.68074529
vn 0.81577513 0.10993521 0.56782496
vn -0.47949952 0.73912892 0.47304192
vn -0.41546012 0.81577391 -0.40237523
vn -0.62940057 0.08592296 0.77231611
vn 0.42305376 0.15174506 0.89330787
vn 0.25647663 0.03562859 -0.96589355
vn 0.62251931 0.77994807 -0.06442606
vn 0.56683139 0.44133358 -0.69564850
vn 0.79339467 0.60538081 0.06355290
vn 0.99839917 0.04848015 0.02913354
vn 0.92841130 0.34361855 -0.14134617
vn -0.35346800 -0.73991317 -0.57235380
vn -0.04998632 -0.00842152 -0.99871440
vn -0.96235867 -0.26077229 -0.07657414
vn -0.87508505 -0.48364036 0.01783708
vn -0.93410409 -0.23299563 0.27048582
vn 0.44388067 0.48224564 0.75525432
vn 0.78125957 0.38385066 0.49223181
vn 0.66070332 -0.55079270 0.50999855
vn 0.97303381 0.11346343 0.20082641
vn -0.53537752 0.43851622 -0.72185486
vn 0.56251290 0.68882154 0.45727903
vn -0.50647362 0.85939317 -0.07019867
vn -0.51375841 0.44765811 0.73188422
vn 0.22284580 0.08346540 0.97127405
vn 0.33593148 0.26485594 0.90388128
vn 0.75873844 0.16540167 0.63004625
vn 0.19383805 0.22746956 -0.95429786
vn 0.48800929 -0.57399749 -0.65755138
vn 0.66795021 0.72315519 -0.17575295
vn 0.48292608 0.51208107 -0.71032062
vn 0.72031201 0.54907074 -0.42387725
vn 0.70962652 0.25336769 -0.65744582
vn 0.73223456 0.63815627 0.23788470
vn 0.85984345 0.50939434 -0.03444767
vn 0.57541602 0.81751753 -0.02369603
vn 0.74158797 0.65204248 -0.15775897
vn 0.98227322 0.18441683 0.03361177
vn 0.99301351 0.08701707 -0.07970068
f 18//18 9//9 5//5
f 18//18 8//8 17//17
f 18//18 5//5 14//14
f 18//18 14//14 2//2
f 18//18 2//2 8//8
f 22//22 2//2 14//14
f 29//29 17//17 1//1
f 29//29 18//18 17//17
f 29//29 9//9 18//18
f 35//35 2//2 22//22
f 36//36 7//7 21//21
f 37//37 22//22 14//14
f 37//37 23//23 10//10
f 37//37 14//14 23//23
f 38//38 23//23 4//4
f 38//38 10//10 23//23
f 38//38 31//31 10//10
f 38//38 4//4 31//31
f 39//39 23//23 14//14
f 40//40 14//14 5//5
f 40//40 5//5 24//24
f 40//40 39//39 14//14
f 40//40 24//24 39//39
f 41//41 24//24 5//5
f 41//41 5//5 9//9
f 41//41 39//39 24//24
f 42//42 25//25 13//13
f 43//43 25//25 15//15
f 43//43 7//7 13//13
f 43//43 13//13 25//25
f 44//44 26//26 8//8
f 44//44 8//8 2//2
f 44//44 2//2 26//26
f 45//45 26//26 2//2
f 45//45 2//2 35//35
f 46//46 9//9 27//27
f 46//46 41//41 9//9
f 46//46 39//39 41//41
f 46//46 4//4 23//23
f 46//46 23//23 39//39
f 47//47 6//6 16//16
f 47//47 16//16 27//27
f 47//47 42//42 13//13
f 48//48 27//27 16//16
f 48//48 46//46 27//27
f 48//48 28//28 46//46
f 49//49 27//27 9//9
f 49//49 9//9 29//29
f 49//49 29//29 1//1
f 49//49 1//1 42//42
f 49//49 47//47 27//27
f 49//49 42//42 47//47
f 50//50 17//17 8//8
f 50//50 8//8 30//30
f 51//51 30//30 15//15
f 51//51 15//15 25//25
f 51//51 1//1 17//17
f 51//51 50//50 30//30
f 51//51 17//17 50//50
f 51//51 42//42 1//1
f 51//51 25//25 42//42
f 52//52 15//15 30//30
f 52//52 43//43 15//15
f 52//52 21//21 7//7
f 52//52 7//7 43//43
f 52//52 45//45 21//21
f 52//52 26//26 45//45
f 52//52 30//30 8//8
f 52//52 8//8 26//26
f 53//53 31//31 4//4
f 53//53 19//19 31//31
f 53//53 4//4 46//46
f 54//54 10//10 31//31
f 54//54 37//37 10//10
f 54//54 22//22 37//37
f 55//55 11//11 32//32
f 56//56 28//28 11//11
f 56//56 46//46 28//28
f 56//56 53//53 46//46
f 56//56 33//33 19//19
f 56//56 19//19 53//53
f 57//57 20//20 3//3
f 57//57 11//11 55//55
f 57//57 56//56 11//11
f 57//57 33//33 56//56
f 58//58 19//19 33//33
f 58//58 12//12 22//22
f 58//58 22//22 54//54
f 58//58 36//36 12//12
f 58//58 3//3 36//36
f 58//58 54//54 31//31
f 58//58 31//31 19//19
f 58//58 57//57 3//3
f 58//58 33//33 57//57
f 59//59 34//34 6//6
f 59//59 13//13 7//7
f 59//59 7//7 34//34
f 59//59 47//47 13//13
f 59//59 6//6 47//47
f 60//60 3//3 20//20
f 60//60 20//20 34//34
f 60//60 36//36 3//3
f 60//60 34//34 7//7
f 60//60 7//7 36//36
f 61//61 6//6 34//34
f 61//61 32//32 11//11
f 61//61 11//11 28//28
f 61//61 28//28 48//48
f 61//61 48//48 16//16
f 61//61 16//16 6//6
f 62//62 34//34 20//20
f 62//62 61//61 34//34
f 62//62 32//32 61//61
f 62//62 55//55 32//32
f 62//62 57//57 55//55
f 62//62 20//20 57//57
f 63//63 45//45 35//35
f 63//63 21//21 45//45
f 63//63 36//36 21//21
f 63//63 12//12 36//36
f 64//64 35//35 22//22
f 64//64 22//22 12//12
f 64//64 63//63 35//35
f 64//64 12//12 63//63

