{
	"asset":{
		"generator":"Khronos glTF Blender I/O v3.6.27",
		"version":"2.0"
	},
	"scene":0,
	"scenes":[
		{
			"name":"Scene",
			"nodes":[
				0
			]
		}
	],
	"nodes":[
		{
			"mesh":0,
			"name":"achilles-rod",
			"rotation":[
				0.7071068286895752,
				0,
				0,
				0.7071068286895752
			]
		}
	],
	"materials":[
		{
			"doubleSided":true,
			"name":"Default OBJ.013",
			"pbrMetallicRoughness":{
				"baseColorFactor":[
					0.800000011920929,
					0.800000011920929,
					0.800000011920929,
					1
				],
				"metallicFactor":0,
				"roughnessFactor":0.5
			}
		}
	],
	"meshes":[
		{
			"name":"achilles-rod",
			"primitives":[
				{
					"attributes":{
						"POSITION":0,
						"NORMAL":1
					},
					"indices":2,
					"material":0
				}
			]
		}
	],
	"accessors":[
		{
			"bufferView":0,
			"componentType":5126,
			"count":11089,
			"max":[
				0.5106920003890991,
				0.00634999992325902,
				0.00952799990773201
			],
			"min":[
				-0.009541000239551067,
				-0.00634999992325902,
				-0.00952799990773201
			],
			"type":"VEC3"
		},
		{
			"bufferView":1,
			"componentType":5126,
			"count":11089,
			"type":"VEC3"
		},
		{
			"bufferView":2,
			"componentType":5123,
			"count":12552,
			"type":"SCALAR"
		}
	],
	"bufferViews":[
		{
			"buffer":0,
			"byteLength":133068,
			"byteOffset":0,
			"target":34962
		},
		{
			"buffer":0,
			"byteLength":133068,
			"byteOffset":133068,
			"target":34962
		},
		{
			"buffer":0,
			"byteLength":25104,
			"byteOffset":266136,
			"target":34963
		}
	],
	"buffers":[
		{
			"byteLength":291240,
			"uri":"data:application/octet-stream;base64,"
		}
	]
}
