{
	"asset":{
		"generator":"Khronos glTF Blender I/O v3.6.27",
		"version":"2.0"
	},
	"scene":0,
	"scenes":[
		{
			"name":"Scene",
			"nodes":[
				0
			]
		}
	],
	"nodes":[
		{
			"mesh":0,
			"name":"heel-spring",
			"rotation":[
				0.7071068286895752,
				0,
				0,
				0.7071068286895752
			]
		}
	],
	"materials":[
		{
			"doubleSided":true,
			"name":"Default OBJ.016",
			"pbrMetallicRoughness":{
				"baseColorFactor":[
					0.800000011920929,
					0.800000011920929,
					0.800000011920929,
					1
				],
				"metallicFactor":0,
				"roughnessFactor":0.5
			}
		}
	],
	"meshes":[
		{
			"name":"heel-spring",
			"primitives":[
				{
					"attributes":{
						"POSITION":0,
						"NORMAL":1
					},
					"indices":2,
					"material":0
				}
			]
		}
	],
	"accessors":[
		{
			"bufferView":0,
			"componentType":5126,
			"count":5611,
			"max":[
				0.12477099895477295,
				0.02500299923121929,
				0.01599700003862381
			],
			"min":[
				9.999999974752427e-07,
				-0.02499699965119362,
				-0.013406000100076199
			],
			"type":"VEC3"
		},
		{
			"bufferView":1,
			"componentType":5126,
			"count":5611,
			"type":"VEC3"
		},
		{
			"bufferView":2,
			"componentType":5123,
			"count":7164,
			"type":"SCALAR"
		}
	],
	"bufferViews":[
		{
			"buffer":0,
			"byteLength":67332,
			"byteOffset":0,
			"target":34962
		},
		{
			"buffer":0,
			"byteLength":67332,
			"byteOffset":67332,
			"target":34962
		},
		{
			"buffer":0,
			"byteLength":14328,
			"byteOffset":134664,
			"target":34963
		}
	],
	"buffers":[
		{
			"byteLength":148992,
			"uri":"data:application/octet-stream;base64,"
		}
	]
}
