{
	"asset":{
		"generator":"Khronos glTF Blender I/O v3.6.27",
		"version":"2.0"
	},
	"scene":0,
	"scenes":[
		{
			"name":"Scene",
			"nodes":[
				0
			]
		}
	],
	"nodes":[
		{
			"mesh":0,
			"name":"hip",
			"rotation":[
				0.7071068286895752,
				0,
				0,
				0.7071068286895752
			]
		}
	],
	"materials":[
		{
			"doubleSided":true,
			"name":"Default OBJ.006",
			"pbrMetallicRoughness":{
				"baseColorFactor":[
					0.800000011920929,
					0.800000011920929,
					0.800000011920929,
					1
				],
				"metallicFactor":0,
				"roughnessFactor":0.5
			}
		}
	],
	"meshes":[
		{
			"name":"hip",
			"primitives":[
				{
					"attributes":{
						"POSITION":0,
						"NORMAL":1
					},
					"indices":2,
					"material":0
				}
			]
		}
	],
	"accessors":[
		{
			"bufferView":0,
			"componentType":5126,
			"count":25303,
			"max":[
				0.04843199998140335,
				0.03500499948859215,
				0.04846600070595741
			],
			"min":[
				-0.06966199725866318,
				-0.03500000014901161,
				-0.04846600070595741
			],
			"type":"VEC3"
		},
		{
			"bufferView":1,
			"componentType":5126,
			"count":25303,
			"type":"VEC3"
		},
		{
			"bufferView":2,
			"componentType":5123,
			"count":27912,
			"type":"SCALAR"
		}
	],
	"bufferViews":[
		{
			"buffer":0,
			"byteLength":303636,
			"byteOffset":0,
			"target":34962
		},
		{
			"buffer":0,
			"byteLength":303636,
			"byteOffset":303636,
			"target":34962
		},
		{
			"buffer":0,
			"byteLength":55824,
			"byteOffset":607272,
			"target":34963
		}
	],
	"buffers":[
		{
			"byteLength":663096,
			"uri":"data:application/octet-stream;base64,"
		}
	]
}
