{
	"asset":{
		"generator":"Khronos glTF Blender I/O v3.6.27",
		"version":"2.0"
	},
	"scene":0,
	"scenes":[
		{
			"name":"Scene",
			"nodes":[
				0
			]
		}
	],
	"nodes":[
		{
			"mesh":0,
			"name":"knee-output",
			"rotation":[
				0.7071068286895752,
				0,
				0,
				0.7071068286895752
			]
		}
	],
	"materials":[
		{
			"doubleSided":true,
			"name":"Default OBJ.014",
			"pbrMetallicRoughness":{
				"baseColorFactor":[
					0.800000011920929,
					0.800000011920929,
					0.800000011920929,
					1
				],
				"metallicFactor":0,
				"roughnessFactor":0.5
			}
		}
	],
	"meshes":[
		{
			"name":"knee-output",
			"primitives":[
				{
					"attributes":{
						"POSITION":0,
						"NORMAL":1
					},
					"indices":2,
					"material":0
				}
			]
		}
	],
	"accessors":[
		{
			"bufferView":0,
			"componentType":5126,
			"count":5430,
			"max":[
				0.08415800333023071,
				0.027300000190734863,
				0.04848499968647957
			],
			"min":[
				-0.04847799986600876,
				-0.029500000178813934,
				-0.09597600251436234
			],
			"type":"VEC3"
		},
		{
			"bufferView":1,
			"componentType":5126,
			"count":5430,
			"type":"VEC3"
		},
		{
			"bufferView":2,
			"componentType":5123,
			"count":7308,
			"type":"SCALAR"
		}
	],
	"bufferViews":[
		{
			"buffer":0,
			"byteLength":65160,
			"byteOffset":0,
			"target":34962
		},
		{
			"buffer":0,
			"byteLength":65160,
			"byteOffset":65160,
			"target":34962
		},
		{
			"buffer":0,
			"byteLength":14616,
			"byteOffset":130320,
			"target":34963
		}
	],
	"buffers":[
		{
			"byteLength":144936,
			"uri":"data:application/octet-stream;base64,"
		}
	]
}
