{
	"asset":{
		"generator":"Khronos glTF Blender I/O v3.6.27",
		"version":"2.0"
	},
	"scene":0,
	"scenes":[
		{
			"name":"Scene",
			"nodes":[
				0
			]
		}
	],
	"nodes":[
		{
			"mesh":0,
			"name":"knee-spring",
			"rotation":[
				0.7071068286895752,
				0,
				0,
				0.7071068286895752
			]
		}
	],
	"materials":[
		{
			"doubleSided":true,
			"name":"Default OBJ.012",
			"pbrMetallicRoughness":{
				"baseColorFactor":[
					0.800000011920929,
					0.800000011920929,
					0.800000011920929,
					1
				],
				"metallicFactor":0,
				"roughnessFactor":0.5
			}
		}
	],
	"meshes":[
		{
			"name":"knee-spring",
			"primitives":[
				{
					"attributes":{
						"POSITION":0,
						"NORMAL":1
					},
					"indices":2,
					"material":0
				}
			]
		}
	],
	"accessors":[
		{
			"bufferView":0,
			"componentType":5126,
			"count":7614,
			"max":[
				0.13953599333763123,
				0.03782400116324425,
				0.012501999735832214
			],
			"min":[
				-3.000000106112566e-06,
				-0.03786500170826912,
				-0.014297000132501125
			],
			"type":"VEC3"
		},
		{
			"bufferView":1,
			"componentType":5126,
			"count":7614,
			"type":"VEC3"
		},
		{
			"bufferView":2,
			"componentType":5123,
			"count":9705,
			"type":"SCALAR"
		}
	],
	"bufferViews":[
		{
			"buffer":0,
			"byteLength":91368,
			"byteOffset":0,
			"target":34962
		},
		{
			"buffer":0,
			"byteLength":91368,
			"byteOffset":91368,
			"target":34962
		},
		{
			"buffer":0,
			"byteLength":19410,
			"byteOffset":182736,
			"target":34963
		}
	],
	"buffers":[
		{
			"byteLength":202148,
			"uri":"data:application/octet-stream;base64,"
		}
	]
}
