{
	"asset":{
		"generator":"Khronos glTF Blender I/O v3.6.27",
		"version":"2.0"
	},
	"scene":0,
	"scenes":[
		{
			"name":"Scene",
			"nodes":[
				0
			]
		}
	],
	"nodes":[
		{
			"mesh":0,
			"name":"pelvis",
			"rotation":[
				0.7071068286895752,
				0,
				0,
				0.7071068286895752
			]
		}
	],
	"materials":[
		{
			"doubleSided":true,
			"name":"Default OBJ",
			"pbrMetallicRoughness":{
				"baseColorFactor":[
					0.800000011920929,
					0.800000011920929,
					0.800000011920929,
					1
				],
				"metallicFactor":0,
				"roughnessFactor":0.5
			}
		}
	],
	"meshes":[
		{
			"name":"pelvis",
			"primitives":[
				{
					"attributes":{
						"POSITION":0,
						"NORMAL":1
					},
					"indices":2,
					"material":0
				}
			]
		}
	],
	"accessors":[
		{
			"bufferView":0,
			"componentType":5126,
			"count":49160,
			"max":[
				0.16349999606609344,
				0.1605599969625473,
				0.2004999965429306
			],
			"min":[
				-0.12087699770927429,
				-0.10669299960136414,
				-0.2004999965429306
			],
			"type":"VEC3"
		},
		{
			"bufferView":1,
			"componentType":5126,
			"count":49160,
			"type":"VEC3"
		},
		{
			"bufferView":2,
			"componentType":5123,
			"count":54078,
			"type":"SCALAR"
		}
	],
	"bufferViews":[
		{
			"buffer":0,
			"byteLength":589920,
			"byteOffset":0,
			"target":34962
		},
		{
			"buffer":0,
			"byteLength":589920,
			"byteOffset":589920,
			"target":34962
		},
		{
			"buffer":0,
			"byteLength":108156,
			"byteOffset":1179840,
			"target":34963
		}
	],
	"buffers":[
		{
			"byteLength":1287996,
			"uri":"data:application/octet-stream;base64,"
		}
	]
}
