{
	"asset":{
		"generator":"Khronos glTF Blender I/O v3.6.27",
		"version":"2.0"
	},
	"scene":0,
	"scenes":[
		{
			"name":"Scene",
			"nodes":[
				0
			]
		}
	],
	"nodes":[
		{
			"mesh":0,
			"name":"plantar-rod",
			"rotation":[
				0.7071068286895752,
				0,
				0,
				0.7071068286895752
			]
		}
	],
	"materials":[
		{
			"doubleSided":true,
			"name":"Default OBJ.011",
			"pbrMetallicRoughness":{
				"baseColorFactor":[
					0.800000011920929,
					0.800000011920929,
					0.800000011920929,
					1
				],
				"metallicFactor":0,
				"roughnessFactor":0.5
			}
		}
	],
	"meshes":[
		{
			"name":"plantar-rod",
			"primitives":[
				{
					"attributes":{
						"POSITION":0,
						"NORMAL":1
					},
					"indices":2,
					"material":0
				}
			]
		}
	],
	"accessors":[
		{
			"bufferView":0,
			"componentType":5126,
			"count":7907,
			"max":[
				0.3596450090408325,
				0.00634999992325902,
				0.009542999789118767
			],
			"min":[
				-0.009479000233113766,
				-0.00634999992325902,
				-0.009549999609589577
			],
			"type":"VEC3"
		},
		{
			"bufferView":1,
			"componentType":5126,
			"count":7907,
			"type":"VEC3"
		},
		{
			"bufferView":2,
			"componentType":5123,
			"count":9012,
			"type":"SCALAR"
		}
	],
	"bufferViews":[
		{
			"buffer":0,
			"byteLength":94884,
			"byteOffset":0,
			"target":34962
		},
		{
			"buffer":0,
			"byteLength":94884,
			"byteOffset":94884,
			"target":34962
		},
		{
			"buffer":0,
			"byteLength":18024,
			"byteOffset":189768,
			"target":34963
		}
	],
	"buffers":[
		{
			"byteLength":207792,
			"uri":"data:application/octet-stream;base64,"
		}
	]
}
