{
	"asset":{
		"generator":"Khronos glTF Blender I/O v3.6.27",
		"version":"2.0"
	},
	"scene":0,
	"scenes":[
		{
			"name":"Scene",
			"nodes":[
				0
			]
		}
	],
	"nodes":[
		{
			"mesh":0,
			"name":"shin-bone",
			"rotation":[
				0.7071068286895752,
				0,
				0,
				0.7071068286895752
			]
		}
	],
	"materials":[
		{
			"doubleSided":true,
			"name":"Default OBJ.009",
			"pbrMetallicRoughness":{
				"baseColorFactor":[
					0.800000011920929,
					0.800000011920929,
					0.800000011920929,
					1
				],
				"metallicFactor":0,
				"roughnessFactor":0.5
			}
		}
	],
	"meshes":[
		{
			"name":"shin-bone",
			"primitives":[
				{
					"attributes":{
						"POSITION":0,
						"NORMAL":1
					},
					"indices":2,
					"material":0
				}
			]
		}
	],
	"accessors":[
		{
			"bufferView":0,
			"componentType":5126,
			"count":13063,
			"max":[
				0.45723700523376465,
				0.03816299885511398,
				0.026504000648856163
			],
			"min":[
				-0.02450300008058548,
				-0.03855200111865997,
				-0.042493999004364014
			],
			"type":"VEC3"
		},
		{
			"bufferView":1,
			"componentType":5126,
			"count":13063,
			"type":"VEC3"
		},
		{
			"bufferView":2,
			"componentType":5123,
			"count":15648,
			"type":"SCALAR"
		}
	],
	"bufferViews":[
		{
			"buffer":0,
			"byteLength":156756,
			"byteOffset":0,
			"target":34962
		},
		{
			"buffer":0,
			"byteLength":156756,
			"byteOffset":156756,
			"target":34962
		},
		{
			"buffer":0,
			"byteLength":31296,
			"byteOffset":313512,
			"target":34963
		}
	],
	"buffers":[
		{
			"byteLength":344808,
			"uri":"data:application/octet-stream;base64,"
		}
	]
}
