{
	"asset":{
		"generator":"Khronos glTF Blender I/O v3.6.27",
		"version":"2.0"
	},
	"scene":0,
	"scenes":[
		{
			"name":"Scene",
			"nodes":[
				0
			]
		}
	],
	"nodes":[
		{
			"mesh":0,
			"name":"tarsus-r",
			"rotation":[
				0.7071068286895752,
				0,
				0,
				0.7071068286895752
			]
		}
	],
	"materials":[
		{
			"doubleSided":true,
			"name":"Default OBJ.003",
			"pbrMetallicRoughness":{
				"baseColorFactor":[
					0.800000011920929,
					0.800000011920929,
					0.800000011920929,
					1
				],
				"metallicFactor":0,
				"roughnessFactor":0.5
			}
		}
	],
	"meshes":[
		{
			"name":"tarsus-r",
			"primitives":[
				{
					"attributes":{
						"POSITION":0,
						"NORMAL":1
					},
					"indices":2,
					"material":0
				}
			]
		}
	],
	"accessors":[
		{
			"bufferView":0,
			"componentType":5126,
			"count":16532,
			"max":[
				0.4200960099697113,
				0.02761700004339218,
				0.06404399871826172
			],
			"min":[
				-0.02518399991095066,
				-0.026002999395132065,
				-0.02452000044286251
			],
			"type":"VEC3"
		},
		{
			"bufferView":1,
			"componentType":5126,
			"count":16532,
			"type":"VEC3"
		},
		{
			"bufferView":2,
			"componentType":5123,
			"count":19380,
			"type":"SCALAR"
		}
	],
	"bufferViews":[
		{
			"buffer":0,
			"byteLength":198384,
			"byteOffset":0,
			"target":34962
		},
		{
			"buffer":0,
			"byteLength":198384,
			"byteOffset":198384,
			"target":34962
		},
		{
			"buffer":0,
			"byteLength":38760,
			"byteOffset":396768,
			"target":34963
		}
	],
	"buffers":[
		{
			"byteLength":435528,
			"uri":"data:application/octet-stream;base64,"
		}
	]
}
