{
	"asset":{
		"generator":"Khronos glTF Blender I/O v3.6.27",
		"version":"2.0"
	},
	"scene":0,
	"scenes":[
		{
			"name":"Scene",
			"nodes":[
				0
			]
		}
	],
	"nodes":[
		{
			"mesh":0,
			"name":"thigh-r",
			"rotation":[
				0.7071068286895752,
				0,
				0,
				0.7071068286895752
			]
		}
	],
	"materials":[
		{
			"doubleSided":true,
			"name":"Default OBJ.018",
			"pbrMetallicRoughness":{
				"baseColorFactor":[
					0.800000011920929,
					0.800000011920929,
					0.800000011920929,
					1
				],
				"metallicFactor":0,
				"roughnessFactor":0.5
			}
		}
	],
	"meshes":[
		{
			"name":"thigh-r",
			"primitives":[
				{
					"attributes":{
						"POSITION":0,
						"NORMAL":1
					},
					"indices":2,
					"material":0
				}
			]
		}
	],
	"accessors":[
		{
			"bufferView":0,
			"componentType":5126,
			"count":18358,
			"max":[
				0.1861010044813156,
				0.10622099786996841,
				0.06621900200843811
			],
			"min":[
				-0.06606899946928024,
				-0.052942000329494476,
				-0.06613299995660782
			],
			"type":"VEC3"
		},
		{
			"bufferView":1,
			"componentType":5126,
			"count":18358,
			"type":"VEC3"
		},
		{
			"bufferView":2,
			"componentType":5123,
			"count":23538,
			"type":"SCALAR"
		}
	],
	"bufferViews":[
		{
			"buffer":0,
			"byteLength":220296,
			"byteOffset":0,
			"target":34962
		},
		{
			"buffer":0,
			"byteLength":220296,
			"byteOffset":220296,
			"target":34962
		},
		{
			"buffer":0,
			"byteLength":47076,
			"byteOffset":440592,
			"target":34963
		}
	],
	"buffers":[
		{
			"byteLength":487668,
			"uri":"data:application/octet-stream;base64,"
		}
	]
}
