{
	"asset":{
		"generator":"Khronos glTF Blender I/O v3.6.27",
		"version":"2.0"
	},
	"scene":0,
	"scenes":[
		{
			"name":"Scene",
			"nodes":[
				0
			]
		}
	],
	"nodes":[
		{
			"mesh":0,
			"name":"toe-output-crank",
			"rotation":[
				0.7071068286895752,
				0,
				0,
				0.7071068286895752
			]
		}
	],
	"materials":[
		{
			"doubleSided":true,
			"name":"Default OBJ.002",
			"pbrMetallicRoughness":{
				"baseColorFactor":[
					0.800000011920929,
					0.800000011920929,
					0.800000011920929,
					1
				],
				"metallicFactor":0,
				"roughnessFactor":0.5
			}
		}
	],
	"meshes":[
		{
			"name":"toe-output-crank",
			"primitives":[
				{
					"attributes":{
						"POSITION":0,
						"NORMAL":1
					},
					"indices":2,
					"material":0
				}
			]
		}
	],
	"accessors":[
		{
			"bufferView":0,
			"componentType":5126,
			"count":3373,
			"max":[
				0.06101899966597557,
				0.00989999994635582,
				0.02157999947667122
			],
			"min":[
				-0.021567000076174736,
				-0.015848999843001366,
				-0.0215000007301569
			],
			"type":"VEC3"
		},
		{
			"bufferView":1,
			"componentType":5126,
			"count":3373,
			"type":"VEC3"
		},
		{
			"bufferView":2,
			"componentType":5123,
			"count":3762,
			"type":"SCALAR"
		}
	],
	"bufferViews":[
		{
			"buffer":0,
			"byteLength":40476,
			"byteOffset":0,
			"target":34962
		},
		{
			"buffer":0,
			"byteLength":40476,
			"byteOffset":40476,
			"target":34962
		},
		{
			"buffer":0,
			"byteLength":7524,
			"byteOffset":80952,
			"target":34963
		}
	],
	"buffers":[
		{
			"byteLength":88476,
			"uri":"data:application/octet-stream;base64,"
		}
	]
}
