{
	"asset":{
		"generator":"Khronos glTF Blender I/O v3.6.27",
		"version":"2.0"
	},
	"scene":0,
	"scenes":[
		{
			"name":"Scene",
			"nodes":[
				0
			]
		}
	],
	"nodes":[
		{
			"mesh":0,
			"name":"toe",
			"rotation":[
				0.7071068286895752,
				0,
				0,
				0.7071068286895752
			]
		}
	],
	"materials":[
		{
			"doubleSided":true,
			"name":"Default OBJ.001",
			"pbrMetallicRoughness":{
				"baseColorFactor":[
					0.800000011920929,
					0.800000011920929,
					0.800000011920929,
					1
				],
				"metallicFactor":0,
				"roughnessFactor":0.5
			}
		}
	],
	"meshes":[
		{
			"name":"toe",
			"primitives":[
				{
					"attributes":{
						"POSITION":0,
						"NORMAL":1
					},
					"indices":2,
					"material":0
				}
			]
		}
	],
	"accessors":[
		{
			"bufferView":0,
			"componentType":5126,
			"count":7607,
			"max":[
				0.08909299969673157,
				0.015698999166488647,
				0.014104999601840973
			],
			"min":[
				-0.05908000096678734,
				-0.012000000104308128,
				-0.11299999803304672
			],
			"type":"VEC3"
		},
		{
			"bufferView":1,
			"componentType":5126,
			"count":7607,
			"type":"VEC3"
		},
		{
			"bufferView":2,
			"componentType":5123,
			"count":8274,
			"type":"SCALAR"
		}
	],
	"bufferViews":[
		{
			"buffer":0,
			"byteLength":91284,
			"byteOffset":0,
			"target":34962
		},
		{
			"buffer":0,
			"byteLength":91284,
			"byteOffset":91284,
			"target":34962
		},
		{
			"buffer":0,
			"byteLength":16548,
			"byteOffset":182568,
			"target":34963
		}
	],
	"buffers":[
		{
			"byteLength":199116,
			"uri":"data:application/octet-stream;base64,"
		}
	]
}
