{
	"asset":{
		"generator":"Khronos glTF Blender I/O v3.6.27",
		"version":"2.0"
	},
	"scene":0,
	"scenes":[
		{
			"name":"Scene",
			"nodes":[
				0
			]
		}
	],
	"nodes":[
		{
			"mesh":0,
			"name":"yaw",
			"rotation":[
				0.7071068286895752,
				0,
				0,
				0.7071068286895752
			]
		}
	],
	"materials":[
		{
			"doubleSided":true,
			"name":"Default OBJ.017",
			"pbrMetallicRoughness":{
				"baseColorFactor":[
					0.800000011920929,
					0.800000011920929,
					0.800000011920929,
					1
				],
				"metallicFactor":0,
				"roughnessFactor":0.5
			}
		}
	],
	"meshes":[
		{
			"name":"yaw",
			"primitives":[
				{
					"attributes":{
						"POSITION":0,
						"NORMAL":1
					},
					"indices":2,
					"material":0
				}
			]
		}
	],
	"accessors":[
		{
			"bufferView":0,
			"componentType":5126,
			"count":13164,
			"max":[
				0.0496629998087883,
				0.08568000048398972,
				0.046567998826503754
			],
			"min":[
				-0.04663600027561188,
				-0.03491700068116188,
				-0.06549999862909317
			],
			"type":"VEC3"
		},
		{
			"bufferView":1,
			"componentType":5126,
			"count":13164,
			"type":"VEC3"
		},
		{
			"bufferView":2,
			"componentType":5123,
			"count":14640,
			"type":"SCALAR"
		}
	],
	"bufferViews":[
		{
			"buffer":0,
			"byteLength":157968,
			"byteOffset":0,
			"target":34962
		},
		{
			"buffer":0,
			"byteLength":157968,
			"byteOffset":157968,
			"target":34962
		},
		{
			"buffer":0,
			"byteLength":29280,
			"byteOffset":315936,
			"target":34963
		}
	],
	"buffers":[
		{
			"byteLength":345216,
			"uri":"data:application/octet-stream;base64,"
		}
	]
}
