# https://github.com/mikedh/trimesh
v -0.02011161 0.02126986 0.02000000
v -0.02182904 -0.01349482 0.02000000
v -0.02182904 -0.01349482 -0.02000000
v -0.05098125 0.02089856 -0.02000000
v -0.05185874 0.01651301 0.02000000
v -0.02011161 0.02126986 -0.02000000
v -0.05098125 0.02089856 0.02000000
v -0.05231601 -0.01327619 0.02000000
v -0.05231601 -0.01327619 -0.02000000
v -0.05185874 0.01651301 -0.02000000
f 1 2 3
f 5 2 1
f 6 1 3
f 6 3 4
f 7 5 1
f 7 6 4
f 7 1 6
f 8 3 2
f 8 2 5
f 9 8 5
f 9 4 3
f 9 3 8
f 10 9 5
f 10 4 9
f 10 7 4
f 10 5 7

