# https://github.com/mikedh/trimesh
v 0.04744580 -0.03897120 0.02000000
v 0.04689083 -0.06384533 0.02000000
v 0.04744580 -0.03897120 -0.02000000
v 0.02387139 -0.04518165 -0.02000000
v 0.02387139 -0.04518165 0.02000000
v 0.03602058 -0.06742376 -0.02000000
v 0.04689083 -0.06384533 -0.02000000
v 0.02345780 -0.06986054 0.02000000
v 0.04238111 -0.06550334 0.02000000
v 0.02345780 -0.06986054 -0.02000000
v 0.04238111 -0.06550334 -0.02000000
v 0.03602058 -0.06742376 0.02000000
v 0.02541962 -0.06965149 0.02000000
v 0.02541962 -0.06965149 -0.02000000
f 1 2 3
f 1 3 4
f 5 2 1
f 5 1 4
f 6 4 3
f 7 6 3
f 7 3 2
f 8 5 4
f 8 2 5
f 9 7 2
f 9 2 8
f 10 8 4
f 10 4 6
f 11 9 6
f 11 6 7
f 11 7 9
f 12 9 8
f 12 6 9
f 13 8 10
f 13 12 8
f 13 6 12
f 14 13 10
f 14 10 6
f 14 6 13

