# https://github.com/mikedh/trimesh
v 0.00219515 0.07131322 0.02000000
v 0.00176022 0.04601754 0.02000000
v 0.00176022 0.04601754 -0.02000000
v -0.03459337 0.05374599 -0.02000000
v -0.04521583 0.03826490 0.02000000
v 0.00219515 0.07131322 -0.02000000
v -0.02455770 0.06198073 0.02000000
v -0.01741200 0.03408472 0.02000000
v -0.04521583 0.03826490 -0.02000000
v -0.03459337 0.05374599 0.02000000
v -0.01647841 0.06631986 -0.02000000
v -0.01299798 0.03582517 0.02000000
v -0.04106718 0.04547894 0.02000000
v -0.01741200 0.03408472 -0.02000000
v -0.02455770 0.06198073 -0.02000000
v -0.01029964 0.06863257 0.02000000
v -0.04340694 0.04157860 0.02000000
v -0.04106718 0.04547894 -0.02000000
v -0.01299798 0.03582517 -0.02000000
v -0.01647841 0.06631986 0.02000000
v -0.00185471 0.07067016 -0.02000000
v -0.04340694 0.04157860 -0.02000000
v -0.00185471 0.07067016 0.02000000
v -0.01029964 0.06863257 -0.02000000
f 1 2 3
f 5 2 1
f 6 1 3
f 6 3 4
f 7 5 1
f 8 2 5
f 9 4 3
f 9 8 5
f 10 7 4
f 10 5 7
f 11 6 4
f 12 3 2
f 12 2 8
f 13 10 4
f 13 5 10
f 14 9 3
f 14 8 9
f 14 12 8
f 15 11 4
f 15 4 7
f 15 7 11
f 16 7 1
f 17 9 5
f 17 5 13
f 18 13 4
f 18 4 9
f 18 17 13
f 19 14 3
f 19 3 12
f 19 12 14
f 20 16 11
f 20 11 7
f 20 7 16
f 21 1 6
f 21 6 11
f 22 18 9
f 22 9 17
f 22 17 18
f 23 21 16
f 23 16 1
f 23 1 21
f 24 21 11
f 24 11 16
f 24 16 21

