# https://github.com/mikedh/trimesh
v -0.01741200 0.03840908 0.02000000
v -0.01390001 0.03461512 0.02000000
v -0.01390001 0.03461512 -0.02000000
v -0.04561175 0.03742866 -0.02000000
v -0.05098125 0.02089856 0.02000000
v -0.01741200 0.03840908 -0.02000000
v -0.04561175 0.03742866 0.02000000
v -0.01993912 0.02185569 -0.02000000
v -0.04950379 0.02683442 -0.02000000
v -0.01993912 0.02185569 0.02000000
v -0.04740189 0.03308622 -0.02000000
v -0.04950379 0.02683442 0.02000000
v -0.05098125 0.02089856 -0.02000000
v -0.04740189 0.03308622 0.02000000
f 1 2 3
f 5 2 1
f 6 1 3
f 6 3 4
f 7 5 1
f 7 6 4
f 7 1 6
f 8 3 2
f 8 4 3
f 9 4 8
f 10 8 2
f 10 2 5
f 11 7 4
f 11 4 9
f 12 9 5
f 12 5 7
f 12 11 9
f 13 9 8
f 13 5 9
f 13 10 5
f 13 8 10
f 14 12 7
f 14 7 11
f 14 11 12

