# https://github.com/mikedh/trimesh
v -0.00311555 -0.04336785 0.02000000
v -0.00202977 -0.06998952 0.02000000
v -0.00202977 -0.06998952 -0.02000000
v -0.04119600 -0.03294292 -0.02000000
v -0.04225200 -0.04521647 0.02000000
v -0.00311555 -0.04336785 -0.02000000
v -0.04119600 -0.03294292 0.02000000
v -0.02700373 -0.06118556 0.02000000
v -0.01453848 -0.03396423 0.02000000
v -0.01438466 -0.06721496 0.02000000
v -0.03687663 -0.05258499 -0.02000000
v -0.01453848 -0.03396423 -0.02000000
v -0.02700373 -0.06118556 -0.02000000
v -0.00415500 -0.06970926 0.02000000
v -0.03687663 -0.05258499 0.02000000
v -0.04225200 -0.04521647 -0.02000000
v -0.01438466 -0.06721496 -0.02000000
v -0.03269693 -0.05673735 0.02000000
v -0.04127527 -0.04676096 0.02000000
v -0.00415500 -0.06970926 -0.02000000
v -0.03269693 -0.05673735 -0.02000000
v -0.04127527 -0.04676096 -0.02000000
f 1 2 3
f 5 2 1
f 6 1 3
f 6 3 4
f 7 5 1
f 8 2 5
f 9 7 1
f 10 2 8
f 11 4 3
f 12 6 4
f 12 4 7
f 12 7 9
f 12 9 1
f 12 1 6
f 13 10 8
f 13 11 3
f 14 2 10
f 15 8 5
f 16 4 11
f 16 7 4
f 16 5 7
f 17 13 3
f 17 10 13
f 18 13 8
f 18 15 11
f 18 8 15
f 19 15 5
f 19 11 15
f 19 5 16
f 20 17 3
f 20 14 10
f 20 10 17
f 20 3 2
f 20 2 14
f 21 18 11
f 21 11 13
f 21 13 18
f 22 19 16
f 22 16 11
f 22 11 19

