# https://github.com/mikedh/trimesh
v -0.04119600 -0.01348328 0.02000000
v -0.04119600 -0.04591601 0.02000000
v -0.04119600 -0.02213201 -0.02000000
v -0.05231601 -0.01327619 -0.02000000
v -0.05231601 -0.01327619 0.02000000
v -0.04225200 -0.04521647 -0.02000000
v -0.04119600 -0.01348328 -0.02000000
v -0.04119600 -0.04591601 -0.02000000
v -0.04960154 -0.02793947 0.02000000
v -0.05183870 -0.01754721 0.02000000
v -0.04960154 -0.02793947 -0.02000000
v -0.04369511 -0.04283906 0.02000000
v -0.05183870 -0.01754721 -0.02000000
v -0.04225200 -0.04521647 0.02000000
v -0.04757819 -0.03423254 -0.02000000
v -0.04369511 -0.04283906 -0.02000000
v -0.04757819 -0.03423254 0.02000000
f 1 2 3
f 5 2 1
f 5 1 4
f 6 4 3
f 7 1 3
f 7 3 4
f 7 4 1
f 8 6 3
f 8 3 2
f 8 2 6
f 9 2 5
f 10 9 5
f 10 5 4
f 11 4 6
f 11 9 10
f 12 2 9
f 13 11 10
f 13 10 4
f 13 4 11
f 14 12 6
f 14 6 2
f 14 2 12
f 15 11 6
f 15 9 11
f 16 15 6
f 16 6 12
f 16 12 15
f 17 15 12
f 17 12 9
f 17 9 15

