# https://github.com/mikedh/trimesh
v 0.05267150 0.06217030 0.02000000
v 0.05137107 0.05888585 0.02000000
v 0.05267150 0.06217030 -0.02000000
v 0.02995734 0.06993709 -0.02000000
v 0.02995734 0.06993709 0.02000000
v 0.04319240 0.03822930 -0.02000000
v 0.03591783 0.06848542 0.02000000
v 0.03047084 0.04356074 0.02000000
v 0.04861099 0.06398093 0.02000000
v 0.03591783 0.06848542 -0.02000000
v 0.03047084 0.04356074 -0.02000000
v 0.04319240 0.03822930 0.02000000
v 0.04861099 0.06398093 -0.02000000
f 1 2 3
f 5 2 1
f 6 3 2
f 6 4 3
f 7 5 1
f 7 4 5
f 8 5 4
f 8 2 5
f 9 7 1
f 9 1 3
f 10 3 4
f 10 4 7
f 10 7 9
f 11 8 4
f 11 4 6
f 11 6 8
f 12 8 6
f 12 6 2
f 12 2 8
f 13 10 9
f 13 9 3
f 13 3 10

