# OBJ generated by ONSHAPE BY PTC INC, 1.201 Units = meters
mtllib smaller_d.mtl
g Part 1
v 0.0294477 0.00732033 0.02 
v 0.0294477 0.00732033 -0.02 
v 0.0297635 -2.82118e-05 -0.02 
v 0.0285118 0.0138979 -0.02 
v 0.0273708 0.0184764 0.02 
v 0.0273708 0.0184764 -0.02 
v 0.0260448 0.0222081 0.02 
v 0.0260448 0.0222081 -0.02 
v 0.0245816 0.0253238 0.02 
v 0.0245816 0.0253238 -0.02 
v 0.0230004 0.0279798 0.02 
v 0.0230004 0.0279798 -0.02 
v 0.0213022 0.0302842 0.02 
v 0.0213022 0.0302842 -0.02 
v 0.0193636 0.0324237 0.02 
v 0.0193636 0.0324237 -0.02 
v 0.0172293 0.0343337 0.02 
v 0.0172293 0.0343337 -0.02 
v 0.0149256 0.0359991 0.02 
v 0.0149256 0.0359991 -0.02 
v 0.0124033 0.0374571 0.02 
v 0.0124033 0.0374571 -0.02 
v 0.00959637 0.0387254 0.02 
v 0.00959637 0.0387254 -0.02 
v 0.00641692 0.0398026 0.02 
v 0.00641692 0.0398026 -0.02 
v 0.00274583 0.0406657 0.02 
v 0.00274583 0.0406657 -0.02 
v -0.00158252 0.0412628 0.02 
v -0.00158252 0.0412628 -0.02 
v -0.00691189 0.0414996 0.02 
v -0.00691189 0.0414996 -0.02 
v 0.0285118 0.0138979 0.02 
v 0.0297635 -2.82118e-05 0.02 
v -0.00320424 -0.0421142 0.02 
v -0.00320424 -0.0421142 -0.02 
v -0.00973307 -0.0424306 -0.02 
v 0.00172711 -0.041379 0.02 
v 0.00172711 -0.041379 -0.02 
v 0.00577841 -0.0403647 0.02 
v 0.00577841 -0.0403647 -0.02 
v 0.0091986 -0.0391436 0.02 
v 0.0091986 -0.0391436 -0.02 
v 0.0121492 -0.0377514 0.02 
v 0.0121492 -0.0377514 -0.02 
v 0.0147434 -0.0362001 0.02 
v 0.0147434 -0.0362001 -0.02 
v 0.0172619 -0.0343184 0.02 
v 0.0172619 -0.0343184 -0.02 
v 0.0194797 -0.0322608 0.02 
v 0.0194797 -0.0322608 -0.02 
v 0.0210682 -0.0304839 0.02 
v 0.0210682 -0.0304839 -0.02 
v 0.0228921 -0.0280235 0.02 
v 0.0228921 -0.0280235 -0.02 
v 0.0245411 -0.0252587 0.02 
v 0.0245411 -0.0252587 -0.02 
v 0.0260275 -0.0220993 0.02 
v 0.0260275 -0.0220993 -0.02 
v 0.0273427 -0.0184245 0.02 
v 0.0273427 -0.0184245 -0.02 
v 0.0284539 -0.0140644 0.02 
v 0.0284539 -0.0140644 -0.02 
v 0.0292933 -0.00877582 0.02 
v 0.0292933 -0.00877582 -0.02 
v 0.0297369 -0.00219934 0.02 
v 0.0297369 -0.00219934 -0.02 
v -0.00973307 -0.0424306 0.02 
v -0.021441 -0.0424306 -0.02 
v -0.021441 -0.0424306 0.02 
v -0.021441 0.0414996 -0.02 
v -0.021441 0.0414996 0.02 
v 0.000142116 0.0635809 0.02 
v -0.00832248 0.0638997 0.02 
v -0.0487782 0.0638997 0.02 
v 0.0529865 0.0293371 0.02 
v 0.0505929 0.0343315 0.02 
v 0.0578539 -0.00750165 0.02 
v 0.0549807 0.0238266 0.02 
v 0.00802172 0.0626319 0.02 
v 0.056905 -0.0151128 0.02 
v 0.0477768 0.0389384 0.02 
v -0.000873437 -0.0644888 0.02 
v 0.00687919 -0.0634624 0.02 
v 0.0139403 -0.0619292 0.02 
v 0.0581727 0.000677083 0.02 
v 0.0444758 0.0432567 0.02 
v 0.0216271 0.0590538 0.02 
v 0.015161 0.0611078 0.02 
v 0.0203741 -0.0599182 0.02 
v 0.0553809 -0.022007 0.02 
v 0.0581335 0.00348169 0.02 
v 0.057625 0.0108543 0.02 
v 0.0407096 0.0472407 0.02 
v 0.0274852 0.0565032 0.02 
v -0.0122721 -0.065 0.02 
v 0.0261486 -0.0574907 0.02 
v 0.0400467 -0.0480729 0.02 
v 0.053326 -0.0282511 0.02 
v 0.0565594 0.0176325 0.02 
v 0.0374315 0.0501209 0.02 
v 0.0327936 0.0534766 0.02 
v -0.0487782 -0.065 0.02 
v -0.00938613 -0.0649692 0.02 
v 0.0358558 -0.0515987 0.02 
v 0.0445496 -0.0433043 0.02 
v 0.0507721 -0.0339091 0.02 
v 0.0411 -0.0470616 0.02 
v 0.0478245 -0.0389085 0.02 
v 0.0312584 -0.054723 0.02 
v 0.0578539 -0.00750165 -0.02 
v 0.056905 -0.0151128 -0.02 
v 0.0581335 0.00348169 -0.02 
v 0.0581727 0.000677083 -0.02 
v 0.057625 0.0108543 -0.02 
v -0.00832248 0.0638997 -0.02 
v 0.000142116 0.0635809 -0.02 
v 0.0553809 -0.022007 -0.02 
v 0.00802172 0.0626319 -0.02 
v 0.0529865 0.0293371 -0.02 
v 0.053326 -0.0282511 -0.02 
v 0.015161 0.0611078 -0.02 
v 0.0505929 0.0343315 -0.02 
v 0.0549807 0.0238266 -0.02 
v 0.0565594 0.0176325 -0.02 
v 0.0507721 -0.0339091 -0.02 
v 0.0478245 -0.0389085 -0.02 
v 0.0400467 -0.0480729 -0.02 
v 0.0358558 -0.0515987 -0.02 
v 0.00687919 -0.0634624 -0.02 
v -0.000873437 -0.0644888 -0.02 
v 0.0216271 0.0590538 -0.02 
v 0.0477768 0.0389384 -0.02 
v 0.0445496 -0.0433043 -0.02 
v 0.0411 -0.0470616 -0.02 
v 0.0139403 -0.0619292 -0.02 
v 0.0274852 0.0565032 -0.02 
v 0.0444758 0.0432567 -0.02 
v 0.0312584 -0.054723 -0.02 
v 0.0203741 -0.0599182 -0.02 
v -0.0122721 -0.065 -0.02 
v -0.0487782 -0.065 -0.02 
v 0.0327936 0.0534766 -0.02 
v 0.0374315 0.0501209 -0.02 
v -0.00938613 -0.0649692 -0.02 
v 0.0407096 0.0472407 -0.02 
v 0.0261486 -0.0574907 -0.02 
v -0.0487782 0.0638997 -0.02 
vn -0.995946 -0.0899542 0 
vn -1 0 0 
vn -0.980558 -0.196229 0 
vn -0.957045 -0.289938 0 
vn -0.924406 -0.38141 0 
vn -0.882878 -0.469602 0 
vn -0.832818 -0.553546 0 
vn -0.774687 -0.632345 0 
vn -0.704997 -0.70921 0 
vn -0.626869 -0.779125 0 
vn -0.543738 -0.839255 0 
vn -0.456785 -0.889577 0 
vn -0.367105 -0.930179 0 
vn -0.275758 -0.961227 0 
vn -0.183762 -0.982971 0 
vn -0.0920867 -0.995751 0 
vn 0 -1 0 
vn -0.980558 -0.196229 0 
vn -1 0 0 
vn -0.100986 0.994888 0 
vn 0 1 0 
vn -0.196742 0.980455 0 
vn -0.290929 0.956745 0 
vn -0.382704 0.923871 0 
vn -0.471067 0.882097 0 
vn -0.555082 0.831795 0 
vn -0.640779 0.767726 0 
vn -0.717605 0.69645 0 
vn -0.771985 0.63564 0 
vn -0.832103 0.554622 0 
vn -0.882754 0.469836 0 
vn -0.924042 0.38229 0 
vn -0.956104 0.293027 0 
vn -0.979168 0.203053 0 
vn -0.993557 0.113335 0 
vn -0.999693 0.0247961 0 
vn -1 0 0 
vn 0 1 0 
vn 1 0 0 
vn 0 -1 0 
vn 0 0 1 
vn 0 0 -1 
vn 0.603551 -0.797324 0 
vn 0.682521 -0.730866 0 
vn 0.519851 -0.854257 0 
vn 0.432682 -0.901547 0 
vn 0.34312 -0.939292 0 
vn 0.254904 -0.966966 0 
vn 0.171252 -0.985227 0 
vn 0.0932698 -0.995641 0 
vn 0.0215298 -0.999768 0 
vn 0 -1 0 
vn 0.254904 -0.966966 0 
vn 0.603551 -0.797324 0 
vn 0.996772 -0.0802791 0 
vn 1 0 0 
vn 0.985542 -0.169429 0 
vn 0.964488 -0.264125 0 
vn 0.932098 -0.362207 0 
vn 0.887485 -0.460837 0 
vn 0.832352 -0.554247 0 
vn 0.769092 -0.639139 0 
vn 0.702538 -0.711647 0 
vn 0.682521 -0.730866 0 
vn 1 0 0 
vn 0.76157 0.648083 0 
vn 0.690253 0.723568 0 
vn 0.825203 0.564836 0 
vn 0.878707 0.477362 0 
vn 0.922148 0.386836 0 
vn 0.955699 0.294344 0 
vn 0.979606 0.200928 0 
vn 0.993761 0.111529 0 
vn 0.999601 0.0282561 0 
vn 1 0 0 
vn 0.76157 0.648083 0 
vn 0.0775783 0.996986 0 
vn 0 1 0 
vn 0.163801 0.986493 0 
vn 0.255612 0.966779 0 
vn 0.351106 0.936336 0 
vn 0.447713 0.894177 0 
vn 0.542377 0.840135 0 
vn 0.628694 0.777653 0 
vn 0.690253 0.723568 0 
vn 0.542377 0.840135 0 
vn 0 1 0 
vn -1 0 0 
vn 0 -1 0 
usemtl 0.615686_0.811765_0.929412_0.000000_0.000000
o mesh0
f 1//1 2//1 3//2 
f 4//3 2//1 1//1 
f 5//4 6//4 4//3 
f 7//5 8//5 6//4 
f 9//6 10//6 8//5 
f 11//7 12//7 10//6 
f 13//8 14//8 12//7 
f 15//9 16//9 14//8 
f 17//10 18//10 16//9 
f 19//11 20//11 18//10 
f 21//12 22//12 20//11 
f 23//13 24//13 22//12 
f 25//14 26//14 24//13 
f 27//15 28//15 26//14 
f 29//16 30//16 28//15 
f 31//17 32//17 30//16 
f 30//16 29//16 31//17 
f 28//15 27//15 29//16 
f 26//14 25//14 27//15 
f 24//13 23//13 25//14 
f 22//12 21//12 23//13 
f 20//11 19//11 21//12 
f 18//10 17//10 19//11 
f 16//9 15//9 17//10 
f 14//8 13//8 15//9 
f 12//7 11//7 13//8 
f 10//6 9//6 11//7 
f 8//5 7//5 9//6 
f 6//4 5//4 7//5 
f 4//3 33//18 5//4 
f 1//1 33//18 4//3 
f 3//2 34//19 1//1 
o mesh1
f 35//20 36//20 37//21 
f 38//22 39//22 36//20 
f 40//23 41//23 39//22 
f 42//24 43//24 41//23 
f 44//25 45//25 43//24 
f 46//26 47//26 45//25 
f 48//27 49//27 47//26 
f 50//28 51//28 49//27 
f 52//29 53//29 51//28 
f 54//30 55//30 53//29 
f 56//31 57//31 55//30 
f 58//32 59//32 57//31 
f 60//33 61//33 59//32 
f 62//34 63//34 61//33 
f 64//35 65//35 63//34 
f 66//36 67//36 65//35 
f 34//37 3//37 67//36 
f 67//36 66//36 34//37 
f 65//35 64//35 66//36 
f 63//34 62//34 64//35 
f 61//33 60//33 62//34 
f 59//32 58//32 60//33 
f 57//31 56//31 58//32 
f 55//30 54//30 56//31 
f 53//29 52//29 54//30 
f 51//28 50//28 52//29 
f 49//27 48//27 50//28 
f 47//26 46//26 48//27 
f 45//25 44//25 46//26 
f 43//24 42//24 44//25 
f 41//23 40//23 42//24 
f 39//22 38//22 40//23 
f 36//20 35//20 38//22 
f 37//21 68//38 35//20 
o mesh2
f 68//38 37//38 69//38 
f 69//38 70//38 68//38 
o mesh3
f 70//39 69//39 71//39 
f 71//39 72//39 70//39 
o mesh4
f 72//40 71//40 32//40 
f 32//40 31//40 72//40 
o mesh5
f 73//41 74//41 31//41 
f 74//41 75//41 72//41 
f 76//41 77//41 7//41 
f 73//41 29//41 27//41 
f 72//41 31//41 74//41 
f 78//41 66//41 64//41 
f 79//41 5//41 33//41 
f 5//41 79//41 76//41 
f 80//41 27//41 25//41 
f 31//41 29//41 73//41 
f 64//41 81//41 78//41 
f 7//41 5//41 76//41 
f 77//41 82//41 9//41 
f 27//41 80//41 73//41 
f 83//41 84//41 38//41 
f 84//41 85//41 40//41 
f 81//41 64//41 62//41 
f 86//41 34//41 66//41 
f 9//41 7//41 77//41 
f 82//41 87//41 11//41 
f 88//41 89//41 23//41 
f 25//41 89//41 80//41 
f 40//41 38//41 84//41 
f 85//41 90//41 42//41 
f 91//41 62//41 60//41 
f 78//41 86//41 66//41 
f 92//41 93//41 1//41 
f 11//41 9//41 82//41 
f 87//41 94//41 13//41 
f 95//41 88//41 21//41 
f 25//41 23//41 89//41 
f 96//41 68//41 70//41 
f 42//41 40//41 85//41 
f 90//41 97//41 44//41 
f 98//41 52//41 50//41 
f 99//41 60//41 58//41 
f 62//41 91//41 81//41 
f 34//41 86//41 92//41 
f 1//41 93//41 100//41 
f 13//41 11//41 87//41 
f 13//41 94//41 101//41 
f 102//41 95//41 19//41 
f 23//41 21//41 88//41 
f 70//41 103//41 96//41 
f 104//41 83//41 35//41 
f 44//41 42//41 90//41 
f 50//41 105//41 98//41 
f 106//41 54//41 52//41 
f 107//41 58//41 56//41 
f 60//41 99//41 91//41 
f 100//41 33//41 1//41 
f 101//41 15//41 13//41 
f 102//41 17//41 15//41 
f 21//41 19//41 95//41 
f 35//41 68//41 104//41 
f 97//41 46//41 44//41 
f 105//41 50//41 48//41 
f 52//41 108//41 106//41 
f 109//41 56//41 54//41 
f 58//41 107//41 99//41 
f 33//41 100//41 79//41 
f 19//41 17//41 102//41 
f 38//41 35//41 83//41 
f 110//41 48//41 46//41 
f 98//41 108//41 52//41 
f 56//41 109//41 107//41 
f 15//41 101//41 102//41 
f 75//41 103//41 70//41 
f 46//41 97//41 110//41 
f 54//41 106//41 109//41 
f 70//41 72//41 75//41 
f 48//41 110//41 105//41 
f 96//41 104//41 68//41 
f 1//41 34//41 92//41 
o mesh6
f 111//42 112//42 65//42 
f 113//42 3//42 2//42 
f 67//42 114//42 111//42 
f 2//42 115//42 113//42 
f 65//42 67//42 111//42 
f 116//42 32//42 71//42 
f 117//42 30//42 32//42 
f 67//42 3//42 114//42 
f 112//42 118//42 63//42 
f 32//42 116//42 117//42 
f 117//42 119//42 28//42 
f 120//42 6//42 8//42 
f 63//42 65//42 112//42 
f 118//42 121//42 61//42 
f 28//42 30//42 117//42 
f 119//42 122//42 26//42 
f 8//42 123//42 120//42 
f 124//42 125//42 4//42 
f 61//42 63//42 118//42 
f 121//42 126//42 59//42 
f 26//42 28//42 119//42 
f 123//42 8//42 10//42 
f 4//42 6//42 124//42 
f 59//42 61//42 121//42 
f 126//42 127//42 57//42 
f 128//42 129//42 51//42 
f 130//42 39//42 41//42 
f 131//42 36//42 39//42 
f 122//42 24//42 26//42 
f 132//42 22//42 24//42 
f 133//42 10//42 12//42 
f 120//42 124//42 6//42 
f 57//42 59//42 126//42 
f 127//42 134//42 55//42 
f 134//42 135//42 53//42 
f 53//42 135//42 128//42 
f 136//42 41//42 43//42 
f 39//42 130//42 131//42 
f 24//42 122//42 132//42 
f 137//42 20//42 22//42 
f 138//42 12//42 14//42 
f 10//42 133//42 123//42 
f 2//42 4//42 125//42 
f 55//42 57//42 127//42 
f 51//42 53//42 128//42 
f 129//42 139//42 49//42 
f 140//42 43//42 45//42 
f 41//42 136//42 130//42 
f 141//42 142//42 69//42 
f 22//42 132//42 137//42 
f 143//42 18//42 20//42 
f 14//42 16//42 144//42 
f 12//42 138//42 133//42 
f 113//42 114//42 3//42 
f 49//42 51//42 129//42 
f 43//42 140//42 136//42 
f 145//42 37//42 36//42 
f 37//42 145//42 141//42 
f 20//42 137//42 143//42 
f 143//42 144//42 16//42 
f 14//42 146//42 138//42 
f 53//42 55//42 134//42 
f 45//42 147//42 140//42 
f 69//42 37//42 141//42 
f 16//42 18//42 143//42 
f 125//42 115//42 2//42 
f 139//42 147//42 47//42 
f 36//42 131//42 145//42 
f 144//42 146//42 14//42 
f 45//42 47//42 147//42 
f 47//42 49//42 139//42 
f 148//42 71//42 69//42 
f 69//42 142//42 148//42 
f 71//42 148//42 116//42 
o mesh7
f 129//43 128//44 98//44 
f 110//45 139//45 129//43 
f 97//46 147//46 139//45 
f 90//47 140//47 147//46 
f 136//48 140//47 90//47 
f 84//49 130//49 136//48 
f 83//50 131//50 130//49 
f 104//51 145//51 131//50 
f 96//52 141//52 145//51 
f 145//51 104//51 96//52 
f 131//50 83//50 104//51 
f 130//49 84//49 83//50 
f 136//48 85//53 84//49 
f 90//47 85//53 136//48 
f 147//46 97//46 90//47 
f 139//45 110//45 97//46 
f 129//43 105//54 110//45 
f 98//44 105//54 129//43 
o mesh8
f 78//55 111//55 114//56 
f 81//57 112//57 111//55 
f 91//58 118//58 112//57 
f 99//59 121//59 118//58 
f 107//60 126//60 121//59 
f 109//61 127//61 126//60 
f 106//62 134//62 127//61 
f 108//63 135//63 134//62 
f 98//64 128//64 135//63 
f 135//63 108//63 98//64 
f 134//62 106//62 108//63 
f 127//61 109//61 106//62 
f 126//60 107//60 109//61 
f 121//59 99//59 107//60 
f 118//58 91//58 99//59 
f 112//57 81//57 91//58 
f 111//55 78//55 81//57 
f 114//56 86//65 78//55 
o mesh9
f 138//66 146//67 94//67 
f 82//68 133//68 138//66 
f 77//69 123//69 133//68 
f 76//70 120//70 123//69 
f 79//71 124//71 120//70 
f 100//72 125//72 124//71 
f 93//73 115//73 125//72 
f 92//74 113//74 115//73 
f 86//75 114//75 113//74 
f 113//74 92//74 86//75 
f 115//73 93//73 92//74 
f 125//72 100//72 93//73 
f 124//71 79//71 100//72 
f 120//70 76//70 79//71 
f 123//69 77//69 76//70 
f 133//68 82//68 77//69 
f 138//66 87//76 82//68 
f 94//67 87//76 138//66 
o mesh10
f 73//77 117//77 116//78 
f 80//79 119//79 117//77 
f 89//80 122//80 119//79 
f 88//81 132//81 122//80 
f 95//82 137//82 132//81 
f 143//83 137//82 95//82 
f 101//84 144//84 143//83 
f 94//85 146//85 144//84 
f 144//84 101//84 94//85 
f 143//83 102//86 101//84 
f 95//82 102//86 143//83 
f 132//81 88//81 95//82 
f 122//80 89//80 88//81 
f 119//79 80//79 89//80 
f 117//77 73//77 80//79 
f 116//78 74//87 73//77 
o mesh11
f 74//87 116//87 148//87 
f 148//87 75//87 74//87 
o mesh12
f 75//88 148//88 142//88 
f 142//88 103//88 75//88 
o mesh13
f 103//89 142//89 141//89 
f 141//89 96//89 103//89 
