# https://github.com/mikedh/trimesh
v 0.02938271 0.05542133 0.02000000
v 0.03031934 0.03362780 0.02000000
v 0.02938271 0.05542133 -0.02000000
v 0.00686473 0.06277124 -0.02000000
v 0.00752455 0.03942734 0.02000000
v 0.02166557 0.05903705 0.02000000
v 0.01590011 0.03529460 -0.02000000
v 0.02166557 0.05903705 -0.02000000
v 0.00686473 0.06277124 0.02000000
v 0.03031934 0.03362780 -0.02000000
v 0.01590011 0.03529460 0.02000000
v 0.00752455 0.03942734 -0.02000000
v 0.01598804 0.06084509 0.02000000
v 0.01598804 0.06084509 -0.02000000
f 1 2 3
f 5 2 1
f 6 1 3
f 6 5 1
f 7 4 3
f 8 6 3
f 8 3 4
f 9 5 6
f 10 7 3
f 10 3 2
f 11 2 5
f 11 10 2
f 11 7 10
f 12 4 7
f 12 9 4
f 12 5 9
f 12 11 5
f 12 7 11
f 13 6 8
f 13 9 6
f 13 4 9
f 14 13 8
f 14 8 4
f 14 4 13

