# https://github.com/mikedh/trimesh
v 0.04412548 0.04362728 0.02000000
v 0.05653783 0.01771715 0.02000000
v 0.05145791 0.03252659 -0.02000000
v 0.03022306 0.05494220 -0.02000000
v 0.03031934 0.01800359 0.02000000
v 0.04412548 0.04362728 -0.02000000
v 0.05145791 0.03252659 0.02000000
v 0.03022306 0.05494220 0.02000000
v 0.05653783 0.01771715 -0.02000000
v 0.05560301 0.02138494 0.02000000
v 0.03839113 0.04927775 0.02000000
v 0.03031934 0.01800359 -0.02000000
v 0.05560301 0.02138494 -0.02000000
v 0.03839113 0.04927775 -0.02000000
v 0.03295716 0.05335826 0.02000000
v 0.03295716 0.05335826 -0.02000000
f 5 2 1
f 6 3 4
f 7 1 2
f 7 6 1
f 7 3 6
f 8 5 1
f 9 4 3
f 10 7 2
f 10 3 7
f 10 2 9
f 11 8 1
f 11 1 6
f 12 4 9
f 12 8 4
f 12 5 8
f 12 9 2
f 12 2 5
f 13 10 9
f 13 9 3
f 13 3 10
f 14 11 6
f 14 6 4
f 15 4 8
f 15 8 11
f 15 11 14
f 16 15 14
f 16 14 4
f 16 4 15

