# https://github.com/mikedh/trimesh
v 0.05714590 -0.01318051 0.02000000
v 0.05568742 -0.02062047 0.02000000
v 0.05714590 -0.01318051 -0.02000000
v 0.02853064 -0.01358088 -0.02000000
v 0.02259282 -0.02842722 0.02000000
v 0.02853064 -0.01358088 0.02000000
v 0.02045599 -0.05988378 -0.02000000
v 0.04774307 -0.03901780 -0.02000000
v 0.02045599 -0.05988378 0.02000000
v 0.02259282 -0.02842722 -0.02000000
v 0.05337535 -0.02810114 -0.02000000
v 0.04774307 -0.03901780 0.02000000
v 0.03484007 -0.05228897 0.02000000
v 0.05568742 -0.02062047 -0.02000000
v 0.05337535 -0.02810114 0.02000000
v 0.02909115 -0.05589688 0.02000000
v 0.03484007 -0.05228897 -0.02000000
v 0.02543514 -0.05779063 0.02000000
v 0.02909115 -0.05589688 -0.02000000
v 0.02543514 -0.05779063 -0.02000000
f 1 2 3
f 1 3 4
f 5 2 1
f 6 5 1
f 6 1 4
f 6 4 5
f 7 4 3
f 8 7 3
f 9 2 5
f 9 5 7
f 10 7 5
f 10 5 4
f 10 4 7
f 11 8 3
f 12 2 9
f 12 8 11
f 13 12 9
f 13 8 12
f 14 11 3
f 14 3 2
f 14 2 11
f 15 12 11
f 15 11 2
f 15 2 12
f 16 13 9
f 17 7 8
f 17 8 13
f 17 13 16
f 18 16 9
f 18 9 7
f 19 17 16
f 19 7 17
f 19 16 18
f 20 19 18
f 20 18 7
f 20 7 19

