# https://github.com/mikedh/trimesh
v 0.05653783 0.01771715 0.02000000
v 0.05714590 -0.01318051 0.02000000
v 0.05747505 0.01180814 -0.02000000
v 0.02742575 0.01825591 -0.02000000
v 0.02742575 0.01825591 0.02000000
v 0.02857863 -0.01327852 -0.02000000
v 0.05653783 0.01771715 -0.02000000
v 0.05747505 0.01180814 0.02000000
v 0.05714590 -0.01318051 -0.02000000
v 0.02857863 -0.01327852 0.02000000
v 0.05765532 -0.00909448 0.02000000
v 0.05765532 -0.00909448 -0.02000000
f 5 2 1
f 5 1 4
f 6 4 3
f 6 5 4
f 7 1 3
f 7 3 4
f 7 4 1
f 8 1 2
f 8 3 1
f 9 6 3
f 9 2 6
f 10 6 2
f 10 2 5
f 10 5 6
f 11 8 2
f 11 3 8
f 11 2 9
f 12 11 9
f 12 9 3
f 12 3 11

