# https://github.com/mikedh/trimesh
v 0.00730615 -0.03981926 0.02000000
v 0.00680996 -0.06347157 0.02000000
v 0.00730615 -0.03981926 -0.02000000
v -0.00475747 -0.04218947 -0.02000000
v -0.00475747 -0.04218947 0.02000000
v 0.00680996 -0.06347157 -0.02000000
v -0.00490623 -0.06471638 0.02000000
v 0.00271708 -0.06401344 0.02000000
v -0.00490623 -0.06471638 -0.02000000
v 0.00271708 -0.06401344 -0.02000000
f 1 2 3
f 1 3 4
f 5 2 1
f 5 1 4
f 6 3 2
f 6 4 3
f 7 2 5
f 8 6 2
f 8 2 7
f 9 4 6
f 9 7 5
f 9 5 4
f 10 9 6
f 10 6 8
f 10 8 7
f 10 7 9

