# https://github.com/mikedh/trimesh
v 0.02067187 -0.03092723 0.02000000
v 0.01992533 -0.06005847 0.02000000
v 0.02055421 -0.03668113 -0.02000000
v 0.00730615 -0.03981926 -0.02000000
v 0.00730615 -0.03981926 0.02000000
v 0.01403161 -0.06190066 -0.02000000
v 0.02067187 -0.03092723 -0.02000000
v 0.01992533 -0.06005847 -0.02000000
v 0.00680996 -0.06347157 0.02000000
v 0.00680996 -0.06347157 -0.02000000
v 0.01403161 -0.06190066 0.02000000
f 1 2 3
f 5 2 1
f 6 4 3
f 7 1 3
f 7 3 4
f 7 5 1
f 7 4 5
f 8 6 3
f 8 3 2
f 8 2 6
f 9 2 5
f 10 4 6
f 10 6 9
f 10 9 5
f 10 5 4
f 11 9 6
f 11 6 2
f 11 2 9

