# https://github.com/mikedh/trimesh
v 0.07613497 0.00721364 -0.01426651
v 0.07588969 -0.00892111 -0.01733311
v 0.07576145 -0.00063735 -0.02244425
v -0.01992821 0.00040842 -0.02155664
v -0.00723543 -0.00925813 -0.01218023
v -0.01412449 -0.00766682 -0.01994725
v 0.07060854 0.00644989 -0.01891339
v 0.07591919 -0.00812581 -0.01884592
v 0.04114748 -0.00883937 -0.01214735
v 0.01799648 0.00656955 -0.01630094
v -0.01994508 -0.00380413 -0.02148583
v -0.01300229 -0.00966662 -0.01794829
v 0.07556765 0.00571149 -0.01966970
v 0.07554543 -0.00527578 -0.02170141
v -0.01221993 -0.00968480 -0.01704633
v 0.06852342 0.00776613 -0.01425675
v -0.00410623 0.00515114 -0.01892604
v -0.01375583 -0.00882490 -0.01909646
v 0.07543328 0.00655514 -0.01790528
v 0.07281454 0.00394396 -0.02149886
v 0.07582518 0.00729909 -0.01425589
v 0.05908600 0.00653601 -0.01870584
v -0.00727996 0.00470883 -0.01958536
v 0.07547209 0.00473269 -0.02064639
v -0.00742036 0.00319166 -0.02050223
v -0.00736096 0.00404290 -0.02001273
vn 0.68055842 0.50774156 0.52824118
vn 0.59785394 -0.73736504 0.31442561
vn 0.65178607 0.03562475 -0.75756571
vn -0.81589948 0.53519874 -0.21879295
vn -0.23821450 -0.47295880 0.84827108
vn -0.08674055 -0.52695075 -0.84545785
vn 0.01210215 0.86976658 -0.49331495
vn 0.67925971 -0.58728190 -0.44012067
vn 0.02007420 -0.63019997 0.77617332
vn -0.05735905 0.90004990 0.43199551
vn -0.90243288 -0.31105453 -0.29809391
vn -0.42628683 -0.90448024 0.01396548
vn 0.62861673 0.61221850 -0.47961391
vn 0.55415859 -0.36704167 -0.74712025
vn -0.39558655 -0.82222446 0.40921659
vn 0.01440072 0.83180833 0.55487612
vn -0.14410915 0.94653320 0.28863030
vn -0.28322846 -0.78315629 -0.55357733
vn 0.38323594 0.87109185 -0.30713060
vn 0.04321447 0.47133270 -0.88089613
vn 0.15556564 0.79430657 0.58726178
vn -0.01088012 0.87101209 -0.49114109
vn -0.27077206 0.96251808 0.01553797
vn 0.59403154 0.45299464 -0.66477243
vn -0.02214311 0.46018884 -0.88754488
vn -0.03199348 0.52363191 -0.85134367
f 8//8 1//1 2//2
f 8//8 3//3 1//1
f 9//9 2//2 1//1
f 11//11 4//4 3//3
f 11//11 5//5 4//4
f 12//12 8//8 2//2
f 13//13 1//1 3//3
f 14//14 3//3 8//8
f 14//14 11//11 3//3
f 14//14 6//6 11//11
f 15//15 9//9 5//5
f 15//15 2//2 9//9
f 15//15 12//12 2//2
f 15//15 5//5 11//11
f 15//15 11//11 12//12
f 16//16 5//5 9//9
f 16//16 10//10 5//5
f 17//17 5//5 10//10
f 18//18 12//12 11//11
f 18//18 11//11 6//6
f 18//18 6//6 14//14
f 18//18 14//14 8//8
f 18//18 8//8 12//12
f 19//19 13//13 7//7
f 19//19 1//1 13//13
f 19//19 7//7 16//16
f 20//20 3//3 4//4
f 20//20 7//7 13//13
f 21//21 16//16 9//9
f 21//21 9//9 1//1
f 21//21 19//19 16//16
f 21//21 1//1 19//19
f 22//22 16//16 7//7
f 22//22 10//10 16//16
f 22//22 17//17 10//10
f 22//22 7//7 20//20
f 23//23 4//4 5//5
f 23//23 5//5 17//17
f 23//23 22//22 20//20
f 23//23 17//17 22//22
f 24//24 20//20 13//13
f 24//24 13//13 3//3
f 24//24 3//3 20//20
f 25//25 20//20 4//4
f 26//26 23//23 20//20
f 26//26 20//20 25//25
f 26//26 25//25 4//4
f 26//26 4//4 23//23

