# https://github.com/mikedh/trimesh
v -0.03759113 0.05171677 0.01418949
v -0.03572028 0.05126118 0.01115986
v -0.04438301 0.05661209 -0.01040078
v -0.04495775 0.05091637 -0.01692806
v -0.04986182 0.04818916 -0.00849844
v -0.03618577 0.05314810 -0.01089993
v -0.03791899 0.05559650 0.01011816
v -0.03653878 0.05123161 0.01331336
v -0.04821055 0.05426852 -0.01035260
v -0.04131530 0.05557499 -0.01325822
v -0.04108913 0.04830065 -0.01705683
v -0.04860901 0.05322441 0.01111021
v -0.03610148 0.05406587 0.00632003
v -0.03703795 0.05386445 0.01207188
v -0.04496822 0.05570546 -0.01275635
v -0.04951698 0.05010251 -0.01179491
v -0.03832178 0.05554608 -0.01120960
v -0.04128689 0.05295764 -0.01572849
v -0.03585712 0.05130462 -0.01110628
v -0.04678290 0.05300193 0.01374869
v -0.04406151 0.05663150 0.00829239
v -0.03706345 0.05309247 0.01285012
v -0.03621062 0.05303438 0.01103433
v -0.04750691 0.05567803 -0.00994778
v -0.04732379 0.05267877 -0.01414931
v -0.04942290 0.05116899 -0.00849792
v -0.04742946 0.04808526 -0.01506561
v -0.03670216 0.05450436 -0.01029532
v -0.04124193 0.05660663 0.00209967
v -0.04134904 0.05086308 -0.01677489
v -0.03767830 0.05407948 -0.01302385
v -0.04485681 0.05257200 -0.01583259
v -0.04236574 0.05541043 0.01292218
v -0.04760621 0.05305298 0.01279953
v -0.03611780 0.05392409 0.00813565
v -0.04607845 0.05646975 -0.01019832
v -0.04838055 0.05381723 0.01100310
v -0.04838033 0.05282491 -0.01181565
v -0.04935628 0.05109218 -0.01131089
v -0.04956382 0.04840552 -0.01186205
v -0.04565608 0.04843007 -0.01725967
v -0.04663132 0.05161384 -0.01570385
v -0.03790866 0.05549745 0.00336013
v -0.04132655 0.05656320 0.00932075
v -0.04308718 0.05672273 0.00912925
v -0.03765708 0.05479385 -0.01228458
v -0.03708365 0.05386171 -0.01236088
v -0.03930570 0.05456164 0.01358745
v -0.03694631 0.05466668 0.01020162
v -0.04687260 0.05545824 0.01020526
v -0.04741050 0.05383181 0.01253269
v -0.04139979 0.04830026 -0.01715969
v -0.04723158 0.05040983 -0.01516607
v -0.04597401 0.05007374 -0.01679464
v -0.04685303 0.05237971 -0.01494539
v -0.04375966 0.05552364 0.01282546
v -0.04622440 0.05654724 -0.00653566
v -0.03944190 0.05551465 -0.01217825
v -0.03764151 0.05460438 0.01202927
v -0.03927812 0.05543100 0.01213647
v -0.03857830 0.05385278 0.01376020
v -0.04744121 0.05571946 -0.00469324
v -0.04595335 0.05537163 0.01193251
v -0.04480249 0.05472498 0.01353447
vn 0.28482658 -0.35358877 0.89098193
vn 0.85480931 -0.48149008 0.19356741
vn 0.00749233 0.98525281 -0.17094085
vn -0.16408241 0.36140907 -0.91785644
vn -0.72863079 -0.68230826 0.05960380
vn 0.93218246 0.28892417 -0.21807951
vn 0.47554876 0.86601737 0.15449041
vn 0.61719755 -0.53635553 0.57566477
vn -0.87449720 0.44582404 -0.19103816
vn 0.12830224 0.84085322 -0.52583685
vn 0.47474153 -0.62561964 -0.61904810
vn -0.92977532 -0.19322084 0.31334257
vn 0.87729642 0.47994281 0.00242664
vn 0.75558927 0.50919411 0.41207550
vn -0.25757063 0.80611645 -0.53276039
vn -0.93782686 0.15112570 -0.31247689
vn 0.37640988 0.91011037 -0.17324757
vn 0.20859509 0.55033411 -0.80846797
vn 0.89939534 -0.35413957 -0.25626781
vn -0.47432192 -0.30211495 0.82688891
vn -0.23121109 0.96992805 0.07603292
vn 0.73313567 0.42155510 0.53366974
vn 0.89757837 0.36659136 0.24487516
vn -0.70403834 0.68071882 -0.20236578
vn -0.71549471 0.47131562 -0.51568296
vn -0.96776782 0.25181893 -0.00356025
vn -0.56703731 -0.70446874 -0.42684011
vn 0.77596635 0.62145685 -0.10801668
vn 0.17258220 0.98495547 -0.00883806
vn 0.32411628 0.26711108 -0.90752427
vn 0.60437957 0.40068422 -0.68860547
vn -0.19996636 0.61582390 -0.76208555
vn 0.04510052 0.82591422 0.56198901
vn -0.75551719 -0.34867531 0.55463438
vn 0.89850615 0.43436548 0.06335086
vn -0.32490883 0.91955793 -0.22101462
vn -0.80700287 0.54014440 0.23872662
vn -0.83221474 0.41884685 -0.36329870
vn -0.93190535 0.30099292 -0.20237510
vn -0.80552123 -0.52101724 -0.28227041
vn -0.32657683 -0.50174017 -0.80100211
vn -0.61618260 0.37145236 -0.69450857
vn 0.53600905 0.84413281 -0.01158052
vn 0.14714144 0.97786016 0.14879148
vn -0.05434512 0.98573980 0.15925972
vn 0.56046653 0.70106716 -0.44088786
vn 0.80967355 0.29673975 -0.50633414
vn 0.20509334 0.59840180 0.77450113
vn 0.75753247 0.62869016 0.17576473
vn -0.52600288 0.83420375 0.16560516
vn -0.63410629 0.55952331 0.53370674
vn 0.14006975 -0.60308025 -0.78528637
vn -0.80895897 0.09964091 -0.57935919
vn -0.56875160 0.18692127 -0.80098817
vn -0.56808777 0.52758491 -0.63160941
vn -0.07457042 0.85205670 0.51811064
vn -0.31452441 0.94924931 -0.00039431
vn 0.23643080 0.90869933 -0.34404361
vn 0.58722591 0.68779044 0.42674354
vn 0.25771308 0.88299733 0.39230050
vn 0.33439959 0.43368057 0.83671864
vn -0.72137579 0.69229635 0.01851329
vn -0.39009142 0.83111642 0.39632585
vn -0.19299907 0.53451747 0.82282588
f 11//11 8//8 5//5
f 11//11 2//2 8//8
f 15//15 3//3 10//10
f 17//17 10//10 3//3
f 19//19 2//2 11//11
f 19//19 13//13 2//2
f 19//19 6//6 13//13
f 20//20 8//8 1//1
f 20//20 5//5 8//8
f 22//22 1//1 8//8
f 23//23 8//8 2//2
f 23//23 22//22 8//8
f 23//23 14//14 22//22
f 25//25 9//9 24//24
f 25//25 24//24 15//15
f 26//26 16//16 5//5
f 26//26 5//5 12//12
f 27//27 11//11 5//5
f 28//28 13//13 6//6
f 28//28 7//7 13//13
f 29//29 17//17 3//3
f 29//29 7//7 17//17
f 30//30 4//4 18//18
f 31//31 18//18 10//10
f 31//31 30//30 18//18
f 31//31 19//19 11//11
f 31//31 11//11 30//30
f 32//32 15//15 10//10
f 32//32 10//10 18//18
f 32//32 18//18 4//4
f 34//34 12//12 5//5
f 34//34 5//5 20//20
f 35//35 23//23 2//2
f 35//35 2//2 13//13
f 36//36 3//3 15//15
f 36//36 15//15 24//24
f 37//37 24//24 9//9
f 37//37 26//26 12//12
f 37//37 9//9 26//26
f 38//38 9//9 25//25
f 39//39 26//26 9//9
f 39//39 16//16 26//26
f 39//39 9//9 38//38
f 39//39 38//38 25//25
f 39//39 25//25 16//16
f 40//40 27//27 5//5
f 40//40 5//5 16//16
f 40//40 16//16 27//27
f 42//42 16//16 25//25
f 42//42 32//32 4//4
f 43//43 28//28 17//17
f 43//43 17//17 7//7
f 43//43 7//7 28//28
f 44//44 7//7 29//29
f 45//45 29//29 3//3
f 45//45 44//44 29//29
f 46//46 31//31 10//10
f 46//46 17//17 28//28
f 47//47 6//6 19//19
f 47//47 19//19 31//31
f 47//47 31//31 46//46
f 47//47 46//46 28//28
f 47//47 28//28 6//6
f 49//49 35//35 13//13
f 49//49 13//13 7//7
f 49//49 14//14 23//23
f 49//49 23//23 35//35
f 51//51 37//37 12//12
f 51//51 12//12 34//34
f 51//51 34//34 20//20
f 52//52 11//11 27//27
f 52//52 27//27 41//41
f 52//52 30//30 11//11
f 52//52 41//41 4//4
f 52//52 4//4 30//30
f 53//53 27//27 16//16
f 53//53 16//16 42//42
f 54//54 42//42 4//4
f 54//54 4//4 41//41
f 54//54 53//53 42//42
f 54//54 41//41 27//27
f 54//54 27//27 53//53
f 55//55 42//42 25//25
f 55//55 25//25 15//15
f 55//55 15//15 32//32
f 55//55 32//32 42//42
f 56//56 33//33 44//44
f 56//56 44//44 45//45
f 57//57 21//21 45//45
f 57//57 50//50 21//21
f 57//57 36//36 24//24
f 57//57 45//45 3//3
f 57//57 3//3 36//36
f 58//58 46//46 10//10
f 58//58 10//10 17//17
f 58//58 17//17 46//46
f 59//59 49//49 7//7
f 59//59 14//14 49//49
f 59//59 22//22 14//14
f 60//60 44//44 33//33
f 60//60 33//33 48//48
f 60//60 7//7 44//44
f 60//60 59//59 7//7
f 60//60 48//48 59//59
f 61//61 1//1 22//22
f 61//61 59//59 48//48
f 61//61 22//22 59//59
f 62//62 24//24 37//37
f 62//62 37//37 50//50
f 62//62 57//57 24//24
f 62//62 50//50 57//57
f 63//63 45//45 21//21
f 63//63 21//21 50//50
f 63//63 56//56 45//45
f 63//63 50//50 37//37
f 63//63 37//37 51//51
f 64//64 48//48 33//33
f 64//64 33//33 56//56
f 64//64 61//61 48//48
f 64//64 20//20 1//1
f 64//64 1//1 61//61
f 64//64 56//56 63//63
f 64//64 63//63 51//51
f 64//64 51//51 20//20

