# https://github.com/mikedh/trimesh
v 0.09531901 0.00357422 0.01214307
v 0.09888653 -0.00330473 0.00917251
v 0.09781512 0.00538971 -0.00960308
v 0.09179600 0.00429706 -0.01693606
v 0.09044419 -0.00758920 0.00479808
v 0.09620979 -0.00772343 -0.01388925
v 0.09479670 0.00687795 0.00869143
v 0.09451039 -0.00502580 0.01149449
v 0.09893594 -0.00533443 -0.01161001
v 0.09184466 -0.00026627 -0.01755619
v 0.09456207 0.00723978 -0.01250410
v 0.09168413 0.00463271 0.01191984
v 0.09797533 0.00517461 0.00871273
v 0.09658752 -0.00126317 0.01219100
v 0.09661284 -0.00631794 0.00888692
v 0.09890109 0.00363353 0.00088090
v 0.09700687 0.00325551 -0.01528634
v 0.09160429 -0.00833433 -0.00451011
v 0.09056068 -0.00805489 0.00184045
v 0.09579797 0.00684805 0.00861803
v 0.09066670 -0.00725478 0.00722603
v 0.09711922 -0.00481556 0.01034517
v 0.09171637 0.00391336 0.01240862
v 0.09697789 0.00346143 0.01143412
v 0.09786116 -0.00559853 0.00788607
v 0.09873392 0.00266549 -0.01076723
v 0.09899511 -0.00427771 0.00491922
v 0.09885773 0.00268065 0.00905596
v 0.09691083 0.00523951 -0.01331522
v 0.09456706 0.00627917 -0.01460639
v 0.09437544 0.00144687 -0.01793798
v 0.09490065 -0.00777271 -0.01428313
v 0.09493479 -0.00868833 -0.01245884
v 0.09709620 0.00493442 0.01032392
v 0.09621209 0.00692303 0.00819999
v 0.09457086 -0.00651530 0.00952270
v 0.09715482 -0.00292050 0.01142248
v 0.09632813 -0.00553532 0.01034090
v 0.09468492 -0.00297853 0.01225709
v 0.09475311 0.00352616 0.01225936
v 0.09650353 -0.00031742 0.01221063
v 0.09725398 -0.00569004 0.00958651
v 0.09723109 -0.00773695 -0.01192917
v 0.09881090 -0.00044180 -0.01243123
v 0.09887539 0.00347859 0.00706467
v 0.09796751 -0.00285243 0.01079028
v 0.09608899 0.00690621 -0.01134255
v 0.09770799 0.00444299 -0.01241647
v 0.09583670 0.00511357 -0.01510182
v 0.09395582 0.00137668 -0.01791783
v 0.09711471 -0.00328127 -0.01586880
v 0.09458031 -0.00874473 -0.01194832
v 0.09531472 -0.00859381 -0.01275603
v 0.09786280 0.00348699 0.01036644
v 0.09727805 0.00603960 0.00844729
v 0.09373261 -0.00759940 0.00504445
v 0.09557565 -0.00633395 0.00939832
v 0.09545235 -0.00486419 0.01121450
v 0.09553278 -0.00291920 0.01214687
v 0.09807680 -0.00471598 0.00957095
v 0.09811301 -0.00680314 -0.01246339
v 0.09729112 -0.00641016 0.00492071
v 0.09779135 0.00259787 -0.01419224
v 0.09688524 0.00615784 -0.01153712
vn 0.25142331 0.40324163 0.87987642
vn 0.93932889 -0.19580800 0.28163888
vn 0.83038322 0.55317457 -0.06679527
vn -0.59336848 0.50738953 -0.62487575
vn -0.79267551 -0.60012278 0.10732281
vn 0.44372104 -0.66714980 -0.59835005
vn -0.21057526 0.93755254 0.27686332
vn -0.16001980 -0.53828306 0.82743279
vn 0.95728038 -0.23256631 -0.17183478
vn -0.64253434 -0.22042441 -0.73386831
vn -0.15031868 0.96763744 -0.20268713
vn -0.61081972 0.61368380 0.50029138
vn 0.80866937 0.53043339 0.25435068
vn 0.42924745 -0.04758599 0.90193248
vn 0.36807250 -0.89045612 0.26760144
vn 0.96170981 0.27404948 -0.00333679
vn 0.73041132 0.30165776 -0.61278210
vn -0.63758883 -0.76413462 -0.09787119
vn -0.69248558 -0.72113668 0.02063014
vn 0.17993934 0.86528923 0.46786364
vn -0.67714729 -0.64475840 0.35462396
vn 0.51247886 -0.46490085 0.72196442
vn -0.56844505 0.21682509 0.79363537
vn 0.57268044 0.28845063 0.76735477
vn 0.74013324 -0.65930540 0.13236003
vn 0.97069379 0.20653029 -0.12287716
vn 0.95231576 -0.30274715 0.03793216
vn 0.94133416 0.14723315 0.30366493
vn 0.71934204 0.58482290 -0.37487224
vn 0.14187700 0.83003223 -0.53936760
vn 0.28864259 0.09594499 -0.95261746
vn -0.28920162 -0.67141694 -0.68232083
vn -0.06524113 -0.97671727 -0.20436966
vn 0.49934712 0.60628922 0.61892312
vn 0.34803313 0.91650763 0.19719712
vn 0.03291894 -0.89166753 0.45149237
vn 0.51271114 -0.31203053 0.79985263
vn 0.33187246 -0.67226043 0.66176022
vn -0.17597698 -0.23087903 0.95693625
vn 0.11456321 0.29607870 0.94826825
vn 0.40949607 0.03381646 0.91168493
vn 0.54548305 -0.70355050 0.45548319
vn 0.57504192 -0.81475996 -0.07411477
vn 0.96806118 0.03858099 -0.24772778
vn 0.96899506 0.24398452 0.03898872
vn 0.74253000 -0.17751542 0.64586181
vn 0.47813672 0.86596997 -0.14656496
vn 0.87295278 0.41102176 -0.26270621
vn 0.50094070 0.59264549 -0.63073746
vn -0.10347284 0.03301990 -0.99408403
vn 0.58686505 -0.22282678 -0.77841997
vn -0.35642296 -0.91954847 -0.16550917
vn 0.20584693 -0.94566563 -0.25168144
vn 0.79210553 0.24705836 0.55814962
vn 0.65376518 0.72034867 0.23170863
vn 0.15181836 -0.97970124 0.13090706
vn 0.22249698 -0.85701252 0.46478450
vn 0.35478027 -0.48495008 0.79934622
vn 0.25236849 -0.27831854 0.92674103
vn 0.76593548 -0.48033516 0.42734175
vn 0.79692163 -0.52338670 -0.30163268
vn 0.53973870 -0.83886317 0.07064499
vn 0.88949573 0.20180496 -0.40996597
vn 0.71700152 0.66328260 -0.21439455
f 12//12 4//4 5//5
f 12//12 11//11 4//4
f 12//12 7//7 11//11
f 16//16 3//3 13//13
f 19//19 5//5 4//4
f 19//19 4//4 10//10
f 19//19 10//10 18//18
f 20//20 7//7 12//12
f 21//21 12//12 5//5
f 21//21 5//5 19//19
f 23//23 21//21 8//8
f 23//23 12//12 21//21
f 26//26 3//3 16//16
f 27//27 9//9 16//16
f 27//27 2//2 25//25
f 28//28 2//2 27//27
f 30//30 4//4 11//11
f 34//34 20//20 12//12
f 34//34 12//12 1//1
f 34//34 1//1 24//24
f 35//35 11//11 7//7
f 35//35 7//7 20//20
f 35//35 20//20 34//34
f 36//36 8//8 21//21
f 38//38 8//8 36//36
f 39//39 23//23 8//8
f 40//40 1//1 12//12
f 40//40 12//12 23//23
f 41//41 24//24 1//1
f 41//41 14//14 24//24
f 41//41 1//1 40//40
f 41//41 40//40 23//23
f 41//41 39//39 14//14
f 41//41 23//23 39//39
f 42//42 15//15 25//25
f 42//42 38//38 15//15
f 42//42 22//22 38//38
f 44//44 26//26 16//16
f 44//44 16//16 9//9
f 45//45 16//16 13//13
f 45//45 13//13 28//28
f 45//45 28//28 27//27
f 45//45 27//27 16//16
f 46//46 24//24 14//14
f 46//46 2//2 28//28
f 46//46 14//14 37//37
f 46//46 37//37 22//22
f 47//47 11//11 35//35
f 47//47 30//30 11//11
f 48//48 17//17 29//29
f 48//48 3//3 26//26
f 49//49 29//29 17//17
f 49//49 17//17 31//31
f 49//49 31//31 4//4
f 49//49 4//4 30//30
f 49//49 47//47 29//29
f 49//49 30//30 47//47
f 50//50 31//31 10//10
f 50//50 10//10 4//4
f 50//50 4//4 31//31
f 51//51 31//31 17//17
f 51//51 6//6 32//32
f 51//51 32//32 10//10
f 51//51 10//10 31//31
f 51//51 44//44 9//9
f 52//52 18//18 10//10
f 52//52 10//10 32//32
f 52//52 32//32 33//33
f 52//52 19//19 18//18
f 53//53 33//33 32//32
f 53//53 32//32 6//6
f 53//53 6//6 43//43
f 54//54 28//28 13//13
f 54//54 13//13 34//34
f 54//54 34//34 24//24
f 54//54 46//46 28//28
f 54//54 24//24 46//46
f 55//55 13//13 3//3
f 55//55 47//47 35//35
f 55//55 3//3 47//47
f 55//55 35//35 34//34
f 55//55 34//34 13//13
f 56//56 36//36 21//21
f 56//56 21//21 19//19
f 56//56 15//15 36//36
f 56//56 19//19 52//52
f 56//56 52//52 33//33
f 56//56 53//53 15//15
f 56//56 33//33 53//53
f 57//57 38//38 36//36
f 57//57 36//36 15//15
f 57//57 15//15 38//38
f 58//58 8//8 38//38
f 58//58 38//38 22//22
f 58//58 22//22 37//37
f 59//59 37//37 14//14
f 59//59 14//14 39//39
f 59//59 39//39 8//8
f 59//59 58//58 37//37
f 59//59 8//8 58//58
f 60//60 42//42 25//25
f 60//60 25//25 2//2
f 60//60 2//2 46//46
f 60//60 46//46 22//22
f 60//60 22//22 42//42
f 61//61 43//43 6//6
f 61//61 9//9 27//27
f 61//61 27//27 25//25
f 61//61 25//25 43//43
f 61//61 51//51 9//9
f 61//61 6//6 51//51
f 62//62 43//43 25//25
f 62//62 25//25 15//15
f 62//62 53//53 43//43
f 62//62 15//15 53//53
f 63//63 26//26 44//44
f 63//63 48//48 26//26
f 63//63 17//17 48//48
f 63//63 51//51 17//17
f 63//63 44//44 51//51
f 64//64 47//47 3//3
f 64//64 29//29 47//47
f 64//64 48//48 29//29
f 64//64 3//3 48//48

