# https://github.com/mikedh/trimesh
v -0.04007689 0.03445913 0.01883419
v -0.03719272 -0.03349914 0.01875399
v -0.03220822 0.00759153 0.01611741
v -0.04926810 0.03797100 -0.00509240
v -0.04998943 -0.03452222 0.01568698
v -0.05083879 -0.03616127 -0.00192618
v -0.03741012 0.03641964 0.01654353
v -0.03246176 -0.00194692 0.01900134
v -0.04466196 -0.03170041 0.02106097
v -0.04892094 0.03738647 0.01521920
v -0.03214560 -0.00340155 0.01862887
v -0.05098010 -0.01994376 -0.00428337
v -0.04195836 -0.03939380 0.01865034
v -0.03747042 0.03248989 0.01798079
v -0.03778958 0.00097293 0.02003080
v -0.04007220 -0.03263560 0.02109250
v -0.04181558 0.03946841 0.01670404
v -0.04454458 0.03154557 0.01896751
v -0.04811494 -0.03176590 0.01908075
v -0.03242827 0.00190661 0.01890250
v -0.05116596 0.01679362 -0.00299443
v -0.03889762 -0.03771309 0.01883474
v -0.04753733 -0.03914537 0.01493268
v -0.03828664 0.03527371 0.01804935
v -0.04089095 0.00626900 0.02013688
v -0.03850444 -0.03345922 0.02004839
v -0.04202461 -0.03535285 0.02116690
v -0.03808236 0.03761002 0.01666577
v -0.04501076 0.03929504 0.01696623
v -0.04905280 -0.02527124 0.01735085
v -0.04793474 0.03460352 0.01728663
v -0.03211037 0.00697667 0.01662356
v -0.03889834 0.03252191 0.01890782
v -0.05020332 0.03489038 -0.00505270
v -0.05109483 -0.03440243 0.00952905
v -0.03990925 -0.03855513 0.01870118
v -0.04593436 -0.03988666 0.01492534
v -0.04711386 -0.03720509 0.01905724
v -0.03762200 0.03629461 0.01707596
v -0.04186921 0.03837111 0.01785795
v -0.04165934 -0.02847614 0.02119061
v -0.04274608 0.00627027 0.02009685
v -0.04371123 0.03460514 0.01895856
v -0.03235394 -0.00307812 0.01882177
v -0.03738357 -0.03322501 0.01900934
v -0.03928811 -0.03639671 0.01988151
v -0.04997439 -0.03167068 0.01571357
v -0.04632111 0.03722400 0.01779654
v -0.04655999 -0.02849998 0.01992791
v -0.04523875 -0.00625273 0.02002440
v -0.05006354 0.03146974 0.00639940
v -0.05001127 0.03574750 -0.00210100
v -0.05089775 0.00106341 -0.00508078
v -0.04899084 -0.03712664 0.01572182
v -0.05123679 -0.03050721 -0.00296760
v -0.04222347 -0.03810489 0.02018389
v -0.04892998 -0.03610573 0.01757754
v -0.04653825 -0.03879696 0.01836008
v -0.04454558 -0.03534294 0.02089243
v -0.03932057 0.03718757 0.01787059
v -0.04195634 0.03913015 0.01729491
v -0.04100256 -0.02845781 0.02112837
v -0.04356978 -0.02951785 0.02114186
v -0.04370304 0.00419262 0.02004796
vn 0.14712482 0.18632205 0.97141051
vn 0.96134903 -0.25715442 0.09838522
vn 0.93854180 0.06124970 -0.33968776
vn -0.11829179 0.66945323 -0.73337536
vn -0.94510449 -0.14229861 0.29415745
vn -0.23978035 -0.60090440 -0.76250855
vn 0.94243785 0.33343318 -0.02516363
vn 0.52026817 0.00713523 0.85397314
vn -0.29248590 -0.01574131 0.95614027
vn -0.81239731 0.49999364 0.30002828
vn 0.97772259 -0.12758502 0.16667513
vn -0.21378536 -0.08446911 -0.97322186
vn 0.18863847 -0.94716529 0.25940980
vn 0.70910547 0.14589579 0.68984336
vn 0.14495172 0.02975095 0.98899135
vn 0.29869843 -0.07776238 0.95117415
vn 0.23868340 0.95370600 0.18296200
vn -0.27478645 0.04308108 0.96053965
vn -0.70464960 -0.02363560 0.70916168
vn 0.69531876 0.05322489 0.71672794
vn -0.99521711 0.02306323 -0.09492624
vn 0.78347985 -0.59510912 0.17889789
vn -0.60750258 -0.78781673 0.10141700
vn 0.51514090 0.24066126 0.82262507
vn 0.03832691 0.03631290 0.99860524
vn 0.59690095 -0.15479794 0.78724003
vn 0.09063831 -0.20593483 0.97435904
vn 0.69855729 0.69223702 0.18117842
vn -0.25490246 0.84282084 0.47400186
vn -0.87593053 0.01535709 0.48219277
vn -0.68499803 0.08483401 0.72358890
vn 0.99098991 0.07067309 0.11377310
vn 0.29750083 0.10621897 0.94879438
vn -0.74269622 0.11509597 -0.65966298
vn -0.96658644 -0.24149922 0.08595806
vn 0.53251484 -0.82510964 0.18873799
vn -0.03988544 -0.99749998 -0.05833481
vn -0.55244624 -0.35933219 0.75211936
vn 0.75328268 0.30768243 0.58128885
vn 0.07668234 0.46949696 0.87959788
vn 0.02630276 0.01829518 0.99948659
vn -0.07312064 0.03498989 0.99670912
vn -0.11996432 0.15696486 0.98029108
vn 0.58911649 -0.07441030 0.80461473
vn 0.70307907 -0.13755155 0.69768144
vn 0.51238517 -0.32954140 0.79300939
vn -0.94346287 0.00714673 0.33140117
vn -0.41608371 0.36409752 0.83325107
vn -0.49945532 0.02244330 0.86604889
vn -0.39805618 0.02908697 0.91689979
vn -0.99557705 0.06118936 0.07128948
vn -0.97480851 0.22150919 0.02611599
vn -0.33389892 -0.03007490 -0.94212898
vn -0.83576943 -0.51261666 0.19675776
vn -0.49428635 -0.14470971 -0.85716982
vn 0.04821604 -0.56790556 0.82168028
vn -0.82278161 -0.28875025 0.48954440
vn -0.43153609 -0.73346130 0.52517723
vn -0.29910601 -0.20942390 0.93095501
vn 0.34707611 0.46244206 0.81589553
vn 0.14045577 0.73748236 0.66059969
vn 0.11310753 0.02063614 0.99336843
vn -0.07886507 0.01684806 0.99674292
vn -0.15606771 0.03254588 0.98721003
f 7//7 3//3 4//4
f 11//11 6//6 3//3
f 11//11 2//2 6//6
f 12//12 4//4 3//3
f 12//12 3//3 6//6
f 16//16 8//8 15//15
f 20//20 8//8 11//11
f 20//20 15//15 8//8
f 22//22 6//6 2//2
f 26//26 8//8 16//16
f 28//28 7//7 4//4
f 28//28 4//4 17//17
f 29//29 17//17 4//4
f 29//29 4//4 10//10
f 31//31 30//30 19//19
f 31//31 10//10 30//30
f 32//32 20//20 11//11
f 32//32 11//11 3//3
f 32//32 3//3 7//7
f 33//33 15//15 20//20
f 33//33 25//25 15//15
f 33//33 24//24 1//1
f 33//33 20//20 14//14
f 33//33 14//14 24//24
f 36//36 6//6 22//22
f 37//37 23//23 6//6
f 37//37 36//36 13//13
f 37//37 6//6 36//36
f 39//39 24//24 14//14
f 39//39 7//7 28//28
f 39//39 32//32 7//7
f 39//39 14//14 20//20
f 39//39 20//20 32//32
f 41//41 15//15 25//25
f 41//41 27//27 16//16
f 42//42 41//41 25//25
f 43//43 42//42 25//25
f 43//43 18//18 42//42
f 43//43 1//1 40//40
f 43//43 33//33 1//1
f 43//43 25//25 33//33
f 44//44 26//26 11//11
f 44//44 11//11 8//8
f 44//44 8//8 26//26
f 45//45 26//26 2//2
f 45//45 2//2 11//11
f 45//45 11//11 26//26
f 46//46 22//22 2//2
f 46//46 2//2 26//26
f 46//46 26//26 16//16
f 46//46 16//16 27//27
f 47//47 30//30 10//10
f 47//47 5//5 19//19
f 47//47 19//19 30//30
f 47//47 35//35 5//5
f 47//47 10//10 35//35
f 48//48 29//29 10//10
f 48//48 10//10 31//31
f 48//48 31//31 18//18
f 48//48 18//18 43//43
f 48//48 43//43 40//40
f 48//48 40//40 29//29
f 49//49 31//31 19//19
f 49//49 19//19 9//9
f 50//50 9//9 18//18
f 50//50 18//18 31//31
f 50//50 49//49 9//9
f 50//50 31//31 49//49
f 51//51 34//34 21//21
f 51//51 35//35 10//10
f 51//51 21//21 35//35
f 52//52 10//10 4//4
f 52//52 4//4 34//34
f 52//52 51//51 10//10
f 52//52 34//34 51//51
f 53//53 34//34 4//4
f 53//53 4//4 12//12
f 53//53 21//21 34//34
f 54//54 5//5 35//35
f 54//54 35//35 6//6
f 54//54 6//6 23//23
f 55//55 35//35 21//21
f 55//55 12//12 6//6
f 55//55 6//6 35//35
f 55//55 53//53 12//12
f 55//55 21//21 53//53
f 56//56 13//13 36//36
f 56//56 46//46 27//27
f 56//56 36//36 22//22
f 56//56 22//22 46//46
f 57//57 38//38 19//19
f 57//57 19//19 5//5
f 57//57 5//5 54//54
f 58//58 37//37 13//13
f 58//58 56//56 38//38
f 58//58 13//13 56//56
f 58//58 23//23 37//37
f 58//58 54//54 23//23
f 58//58 57//57 54//54
f 58//58 38//38 57//57
f 59//59 27//27 9//9
f 59//59 9//9 19//19
f 59//59 19//19 38//38
f 59//59 56//56 27//27
f 59//59 38//38 56//56
f 60//60 39//39 28//28
f 60//60 24//24 39//39
f 60//60 40//40 1//1
f 60//60 1//1 24//24
f 61//61 17//17 29//29
f 61//61 29//29 40//40
f 61//61 40//40 60//60
f 61//61 60//60 28//28
f 61//61 28//28 17//17
f 62//62 41//41 16//16
f 62//62 16//16 15//15
f 62//62 15//15 41//41
f 63//63 9//9 27//27
f 63//63 27//27 41//41
f 63//63 41//41 42//42
f 64//64 42//42 18//18
f 64//64 18//18 9//9
f 64//64 63//63 42//42
f 64//64 9//9 63//63

