# https://github.com/mikedh/trimesh
v 0.07583809 0.00446569 0.01780424
v 0.07590904 -0.00439313 0.01673936
v 0.07583335 0.00827547 0.01265615
v -0.00619467 0.00873429 0.01054471
v -0.00938038 -0.00245924 0.02079664
v 0.07474098 -0.00494313 0.01636240
v -0.00990022 0.00739264 0.01917616
v 0.07600325 0.00823796 0.01271577
v 0.06222305 -0.00009718 0.01889078
v -0.00091528 0.00843068 0.01053322
v -0.00089712 -0.00554138 0.01787831
v 0.03059984 -0.00399268 0.01877774
v -0.00910872 0.00866616 0.01724706
v 0.07581120 0.00678539 0.01608968
v 0.07576990 -0.00203899 0.01780198
v 0.02521782 0.00449509 0.01980899
v -0.00917204 -0.00278267 0.02060373
v 0.05284562 -0.00526213 0.01657286
v 0.07472190 -0.00447413 0.01699393
v 0.07272187 0.00508347 0.01780140
v 0.07588169 0.00781749 0.01423632
v 0.06215609 0.00254637 0.01892053
v 0.02741878 -0.00207876 0.01986846
v -0.00946554 0.00559821 0.02013367
v 0.00124473 -0.00473559 0.01891923
v 0.07559537 -0.00408627 0.01703938
v 0.07571264 0.00601538 0.01680545
v 0.02539464 0.00600044 0.01893451
v 0.05805787 0.00355249 0.01882980
v 0.03275144 0.00152617 0.01990989
v 0.07367673 -0.00317562 0.01772167
v 0.02964526 0.00345379 0.01988022
v -0.00081010 -0.00503451 0.01847967
v 0.03273826 -0.00021100 0.01992156
v 0.05907701 -0.00116327 0.01887027
v 0.03062977 -0.00125255 0.01988336
vn 0.66944228 0.20592792 0.71375117
vn 0.77195225 -0.63565055 0.00617291
vn 0.20164329 0.68166015 -0.70333450
vn -0.43130205 0.44126179 -0.78693492
vn -0.77658422 -0.33594269 0.53297228
vn 0.23397791 -0.91606666 -0.32569345
vn -0.78004855 0.49371307 0.38441081
vn 0.70164861 0.53574509 -0.46975144
vn 0.05506968 -0.08623570 0.99475159
vn 0.00200091 0.00302684 -0.99999342
vn -0.15781826 -0.96518708 -0.20858402
vn 0.02575433 -0.58521755 0.81046723
vn -0.66242852 0.74896803 0.01534083
vn 0.63990109 0.59569785 0.48545924
vn 0.64905236 -0.11777994 0.75157096
vn 0.02170086 0.31888500 0.94754495
vn -0.57440090 -0.80948279 0.12166022
vn 0.01001911 -0.95855082 -0.28474539
vn 0.10635866 -0.63586081 0.76444023
vn 0.04633145 0.47394771 0.87933325
vn 0.62102443 0.71181474 0.32809821
vn 0.05012175 0.11671553 0.99189984
vn 0.02787287 -0.29500591 0.95508880
vn -0.46296430 0.21026884 0.86107553
vn 0.01247716 -0.70965954 0.70443428
vn 0.28274025 -0.42744741 0.85868892
vn 0.40628628 0.56781353 0.71590450
vn 0.02957476 0.57565287 0.81715917
vn 0.03654789 0.26138210 0.96454323
vn 0.02781631 0.03431891 0.99902376
vn 0.06813769 -0.32762464 0.94234779
vn 0.02629877 0.12906229 0.99128770
vn -0.03345410 -0.75622347 0.65345763
vn 0.03032772 -0.04867560 0.99835410
vn 0.03828072 -0.19862110 0.97932847
vn 0.03086574 -0.12210774 0.99203680
f 7//7 4//4 5//5
f 8//8 1//1 2//2
f 8//8 6//6 3//3
f 8//8 2//2 6//6
f 10//10 4//4 3//3
f 10//10 3//3 6//6
f 11//11 4//4 10//10
f 13//13 3//3 4//4
f 13//13 4//4 7//7
f 14//14 1//1 8//8
f 14//14 13//13 7//7
f 15//15 2//2 1//1
f 17//17 5//5 4//4
f 17//17 4//4 11//11
f 17//17 12//12 5//5
f 18//18 11//11 10//10
f 18//18 10//10 6//6
f 18//18 6//6 11//11
f 19//19 6//6 2//2
f 20//20 14//14 7//7
f 21//21 14//14 8//8
f 21//21 8//8 3//3
f 21//21 3//3 13//13
f 21//21 13//13 14//14
f 22//22 15//15 1//1
f 22//22 9//9 15//15
f 22//22 1//1 20//20
f 23//23 5//5 12//12
f 24//24 16//16 7//7
f 24//24 7//7 5//5
f 25//25 12//12 17//17
f 25//25 19//19 12//12
f 25//25 11//11 6//6
f 25//25 6//6 19//19
f 26//26 19//19 2//2
f 26//26 2//2 15//15
f 27//27 20//20 1//1
f 27//27 1//1 14//14
f 27//27 14//14 20//20
f 28//28 20//20 7//7
f 28//28 7//7 16//16
f 28//28 16//16 20//20
f 29//29 22//22 20//20
f 29//29 20//20 16//16
f 29//29 16//16 22//22
f 31//31 15//15 9//9
f 31//31 26//26 15//15
f 31//31 19//19 26//26
f 31//31 23//23 12//12
f 31//31 12//12 19//19
f 32//32 24//24 5//5
f 32//32 16//16 24//24
f 32//32 5//5 30//30
f 32//32 30//30 22//22
f 32//32 22//22 16//16
f 33//33 25//25 17//17
f 33//33 17//17 11//11
f 33//33 11//11 25//25
f 34//34 30//30 5//5
f 34//34 9//9 22//22
f 34//34 22//22 30//30
f 35//35 31//31 9//9
f 35//35 23//23 31//31
f 36//36 34//34 5//5
f 36//36 5//5 23//23
f 36//36 23//23 35//35
f 36//36 35//35 9//9
f 36//36 9//9 34//34

