# https://github.com/mikedh/trimesh
v -0.03857343 -0.05231758 0.01750014
v -0.03811768 -0.05214702 0.01711330
v -0.05007289 -0.05165378 0.01048760
v -0.04512536 -0.05194802 -0.01248814
v -0.03956641 -0.05720695 -0.00600086
v -0.03869801 -0.05185739 -0.01167842
v -0.04958010 -0.05205107 0.01273447
v -0.03884469 -0.05609895 0.01334661
v -0.04782504 -0.05524015 -0.00827042
v -0.04065073 -0.05187327 -0.01234665
v -0.03888947 -0.05437565 0.01663210
v -0.03871036 -0.05625119 -0.00887907
v -0.04986999 -0.05198324 -0.00686677
v -0.04712565 -0.05612867 0.00828628
v -0.03853265 -0.05510605 0.01514734
v -0.04548584 -0.05409423 0.01737916
v -0.03869518 -0.05450753 -0.01053213
v -0.04418609 -0.05616049 -0.01010862
v -0.04963280 -0.05362570 -0.00575873
v -0.04851188 -0.05363751 -0.00861153
v -0.04953922 -0.05358033 0.00320265
v -0.04228309 -0.05724938 0.01162939
v -0.04272845 -0.05621345 0.01608262
v -0.03993548 -0.05522124 0.01648338
v -0.04512591 -0.05622188 0.01519171
v -0.04069205 -0.05268846 -0.01220575
v -0.04673035 -0.05424820 -0.01041617
v -0.04098026 -0.05448190 -0.01148783
v -0.04052148 -0.05714833 -0.00800623
v -0.04509733 -0.05712244 -0.00593645
v -0.04848503 -0.05467084 -0.00770576
v -0.04881347 -0.05205359 -0.00870117
v -0.04870155 -0.05347862 0.01264398
v -0.04059766 -0.05707724 0.01146338
v -0.04078869 -0.05620593 0.01507645
v -0.04521956 -0.05539350 0.01639224
v -0.04320189 -0.05720687 0.01054780
v -0.04308307 -0.05626159 0.01590053
v -0.03880770 -0.05270689 -0.01139354
v -0.04406877 -0.05372191 -0.01238395
v -0.04502178 -0.05538996 -0.01053921
v -0.04753654 -0.05439079 -0.00949181
v -0.03980827 -0.05544291 -0.01032940
v -0.04695535 -0.05609685 -0.00491269
v -0.04595663 -0.05598583 -0.00874487
v -0.04325691 -0.05719614 -0.00756623
v -0.04975037 -0.05261725 -0.00685862
v -0.04966384 -0.05236780 0.01061274
v -0.03982390 -0.05714251 0.00012569
v -0.04525851 -0.05711841 0.00217445
v -0.04378027 -0.05381295 -0.01230298
v -0.04501674 -0.05273551 -0.01234762
v -0.04507713 -0.05439944 -0.01143965
v -0.03963883 -0.05634764 -0.00938660
vn 0.28170431 0.35825936 0.89010837
vn 0.72387448 0.52548751 0.44706668
vn -0.84301252 0.52226904 0.12870485
vn -0.33592808 0.56051099 -0.75695426
vn 0.41419904 -0.90978270 -0.02710347
vn 0.65803688 0.50986935 -0.55409450
vn -0.81498074 0.38216892 0.43560684
vn 0.68404152 -0.71343776 0.15196632
vn -0.63003265 -0.70417249 -0.32741407
vn 0.15543226 0.61262036 -0.77494329
vn 0.55433321 -0.50190376 0.66393321
vn 0.77151859 -0.56911947 -0.28436261
vn -0.78674419 0.57530936 -0.22372465
vn -0.57581070 -0.81382172 0.07833417
vn 0.80844276 -0.53208066 0.25161575
vn -0.44165219 0.04857421 0.89587046
vn 0.79273362 -0.33209635 -0.51116086
vn -0.17306539 -0.82323039 -0.54068485
vn -0.88351055 -0.46277206 -0.07246469
vn -0.79785138 -0.28843304 -0.52937657
vn -0.86353752 -0.50386745 0.02050713
vn -0.01035530 -0.99210666 0.12496858
vn 0.03900511 -0.80242355 0.59547884
vn 0.27117453 -0.65977240 0.70083147
vn -0.42070866 -0.84809836 0.32207669
vn 0.24142705 -0.28343293 -0.92810493
vn -0.61008854 -0.41857263 -0.67274730
vn 0.19393353 -0.55162636 -0.81123249
vn 0.12674473 -0.95817535 -0.25658484
vn -0.28935057 -0.95288266 -0.09105432
vn -0.77868266 -0.57990315 -0.23951128
vn -0.68144719 0.52711049 -0.50772459
vn -0.77101520 -0.58281128 0.25664485
vn 0.26173658 -0.95953258 0.10388065
vn 0.24480191 -0.91022879 0.33399935
vn -0.44642230 -0.66315076 0.60078132
vn -0.17560666 -0.98311401 0.05146975
vn -0.10969873 -0.91238507 0.39435983
vn 0.46176510 -0.34825487 -0.81577664
vn -0.12676564 -0.39620932 -0.90936717
vn -0.37702877 -0.68816285 -0.61990419
vn -0.67846221 -0.41908648 -0.60337016
vn 0.26177100 -0.64550794 -0.71749247
vn -0.57903085 -0.81483730 -0.02763050
vn -0.38871040 -0.85550377 -0.34207826
vn -0.10441601 -0.97562134 -0.19302927
vn -0.92462332 -0.24903345 -0.28819102
vn -0.84948191 -0.52051139 0.08630402
vn 0.34849164 -0.93698632 0.02470242
vn -0.27399413 -0.96172986 0.00170080
vn 0.08605277 -0.53131390 -0.84279325
vn -0.45181867 -0.26779511 -0.85096749
vn -0.39278252 -0.55199379 -0.73554384
vn 0.24284234 -0.79090724 -0.56168793
f 6//6 3//3 2//2
f 7//7 1//1 2//2
f 7//7 2//2 3//3
f 10//10 4//4 3//3
f 10//10 3//3 6//6
f 11//11 2//2 1//1
f 12//12 8//8 5//5
f 13//13 3//3 4//4
f 15//15 2//2 11//11
f 15//15 12//12 2//2
f 15//15 8//8 12//12
f 16//16 1//1 7//7
f 17//17 6//6 2//2
f 17//17 2//2 12//12
f 19//19 3//3 13//13
f 21//21 19//19 14//14
f 21//21 3//3 19//19
f 24//24 11//11 1//1
f 24//24 1//1 16//16
f 24//24 16//16 23//23
f 24//24 15//15 11//11
f 24//24 8//8 15//15
f 26//26 10//10 6//6
f 28//28 26//26 17//17
f 29//29 12//12 5//5
f 31//31 14//14 19//19
f 31//31 20//20 9//9
f 32//32 13//13 4//4
f 32//32 4//4 27//27
f 33//33 21//21 14//14
f 33//33 14//14 25//25
f 33//33 16//16 7//7
f 34//34 22//22 5//5
f 34//34 23//23 22//22
f 35//35 24//24 23//23
f 35//35 8//8 24//24
f 35//35 34//34 8//8
f 35//35 23//23 34//34
f 36//36 23//23 16//16
f 36//36 33//33 25//25
f 36//36 16//16 33//33
f 37//37 25//25 14//14
f 37//37 22//22 25//25
f 38//38 25//25 22//22
f 38//38 22//22 23//23
f 38//38 36//36 25//25
f 38//38 23//23 36//36
f 39//39 26//26 6//6
f 39//39 6//6 17//17
f 39//39 17//17 26//26
f 40//40 4//4 10//10
f 40//40 10//10 26//26
f 41//41 18//18 9//9
f 41//41 9//9 27//27
f 42//42 27//27 9//9
f 42//42 9//9 20//20
f 42//42 32//32 27//27
f 42//42 20//20 32//32
f 43//43 28//28 17//17
f 44//44 9//9 30//30
f 44//44 31//31 9//9
f 44//44 14//14 31//31
f 45//45 30//30 9//9
f 45//45 9//9 18//18
f 45//45 18//18 30//30
f 46//46 30//30 18//18
f 46//46 18//18 29//29
f 46//46 29//29 5//5
f 46//46 5//5 22//22
f 46//46 22//22 30//30
f 47//47 31//31 19//19
f 47//47 19//19 13//13
f 47//47 20//20 31//31
f 47//47 32//32 20//20
f 47//47 13//13 32//32
f 48//48 33//33 7//7
f 48//48 7//7 3//3
f 48//48 3//3 21//21
f 48//48 21//21 33//33
f 49//49 34//34 5//5
f 49//49 5//5 8//8
f 49//49 8//8 34//34
f 50//50 30//30 22//22
f 50//50 22//22 37//37
f 50//50 37//37 14//14
f 50//50 44//44 30//30
f 50//50 14//14 44//44
f 51//51 40//40 26//26
f 51//51 26//26 28//28
f 51//51 28//28 18//18
f 51//51 18//18 40//40
f 52//52 27//27 4//4
f 52//52 4//4 40//40
f 53//53 40//40 18//18
f 53//53 18//18 41//41
f 53//53 41//41 27//27
f 53//53 52//52 40//40
f 53//53 27//27 52//52
f 54//54 43//43 17//17
f 54//54 17//17 12//12
f 54//54 12//12 29//29
f 54//54 29//29 18//18
f 54//54 18//18 28//28
f 54//54 28//28 43//43

