# https://github.com/mikedh/trimesh
v -0.04977818 0.03171032 -0.01242126
v -0.03484806 -0.03446319 -0.00913138
v -0.03662714 0.03573081 -0.01621533
v -0.04480711 0.03131499 -0.02188208
v -0.04955994 -0.03665681 -0.01206993
v -0.03588729 -0.00393548 -0.01996346
v -0.04125641 0.03929193 -0.01635447
v -0.03395656 -0.01462951 -0.01028561
v -0.05051181 -0.03560175 -0.00913980
v -0.04841928 0.02793228 -0.01784438
v -0.03887405 0.03450409 -0.01986881
v -0.04481532 -0.03662159 -0.01769130
v -0.03847330 0.03853848 -0.01630707
v -0.04950274 0.03177574 -0.01580644
v -0.03438947 -0.03142820 -0.00915636
v -0.03844713 -0.04175296 -0.01042967
v -0.04261084 0.03166670 -0.02153146
v -0.03698967 0.03142692 -0.01793434
v -0.04122581 0.03632786 -0.01967288
v -0.04573228 0.01715870 -0.02237955
v -0.04031365 0.03909913 -0.01627398
v -0.03770875 0.03638863 -0.01782093
v -0.04125422 0.03894522 -0.01720261
v -0.04736838 0.03145548 -0.01900999
v -0.05049754 -0.02311800 -0.01112142
v -0.03686152 -0.03835751 -0.01478469
v -0.03489152 -0.03140039 -0.01201920
v -0.05038763 -0.03675755 -0.00924550
v -0.04850342 -0.03672716 -0.01390434
v -0.03958008 0.02323659 -0.02065911
v -0.04048417 0.03365909 -0.02055172
v -0.04143291 -0.02920429 -0.01860110
v -0.04248208 0.02012154 -0.02174488
v -0.03948132 0.03712471 -0.01868527
v -0.03808772 0.03547583 -0.01870478
v -0.03884145 0.03860883 -0.01681451
v -0.04819714 0.03049027 -0.01805985
v -0.05052795 -0.02313827 -0.01030145
v -0.04980074 0.03155938 -0.01244283
v -0.05035388 -0.03344911 -0.01089627
v -0.04947261 -0.01448744 -0.01448610
v -0.03580891 -0.03844731 -0.00926280
v -0.03850294 -0.04031469 -0.01481504
v -0.03604356 -0.03558228 -0.01402698
v -0.03492622 -0.03349130 -0.01109087
v -0.04651865 -0.03645542 -0.01653853
v -0.04019774 0.03617606 -0.01962296
v -0.04302911 -0.00405399 -0.02080471
v -0.03898649 -0.03546195 -0.01737941
v -0.03959403 0.03811059 -0.01780801
v -0.03705487 0.03569682 -0.01704295
v -0.04032469 0.03883030 -0.01708211
v -0.05035229 -0.03562301 -0.01011639
v -0.04936367 0.01494537 -0.01571325
v -0.04938426 -0.03559885 -0.01270517
v -0.04675023 0.01170723 -0.02064011
v -0.03770183 -0.04097484 -0.01311393
v -0.03689620 -0.04037853 -0.00938302
v -0.03816352 -0.04116349 -0.01322646
v -0.03703141 -0.03563000 -0.01581222
v -0.03599277 -0.03749262 -0.01303226
v -0.04552073 -0.03545944 -0.01747538
v -0.04233130 -0.00412186 -0.02073791
v -0.04408831 -0.02930322 -0.01862034
vn -0.60109728 0.43343213 0.67143030
vn 0.73798357 -0.14875543 0.65821887
vn 0.87412485 0.31242115 0.37188542
vn -0.34945457 0.28449258 -0.89271803
vn -0.75747535 -0.56635140 -0.32477251
vn 0.69184184 -0.02737968 -0.72152978
vn -0.20325402 0.94469349 0.25737526
vn 0.80223884 0.04037951 0.59563607
vn -0.75258805 -0.06279832 0.65549035
vn -0.86307762 0.00920055 -0.50498749
vn 0.53135491 0.22193091 -0.81756262
vn -0.26303341 -0.51181024 -0.81784088
vn 0.59956933 0.69710767 0.39313805
vn -0.87722711 0.38735349 -0.28360160
vn 0.76471414 -0.03528976 0.64340261
vn 0.07744449 -0.95125142 0.29853491
vn 0.21497740 0.16290083 -0.96293719
vn 0.86862966 0.06456541 -0.49123704
vn -0.12752552 0.56796468 -0.81311337
vn -0.40277677 -0.00663999 -0.91527416
vn 0.20485895 0.86538290 0.45732400
vn 0.72685299 0.41866431 -0.54443082
vn -0.24887247 0.81906660 -0.51690657
vn -0.72158633 0.35731842 -0.59298964
vn -0.98218399 -0.00782709 -0.18775872
vn 0.75200442 -0.35899576 -0.55282131
vn 0.96079586 -0.07443180 -0.26707906
vn -0.69392605 -0.52644845 0.49124197
vn -0.68424192 -0.55916445 -0.46813258
vn 0.38268921 0.02940445 -0.92340909
vn 0.24552044 0.21749661 -0.94467716
vn 0.11219692 -0.10925915 -0.98766102
vn 0.25193095 0.01408103 -0.96764276
vn 0.35064232 0.58661946 -0.73001889
vn 0.69904559 0.28699234 -0.65495852
vn 0.44799446 0.80083216 -0.39745292
vn -0.82126707 0.07711385 -0.56530863
vn -0.99379827 0.01302535 0.11043248
vn -0.96709976 0.06601716 0.24568228
vn -0.96023999 -0.04288133 -0.27586291
vn -0.89249256 -0.03036582 -0.45003884
vn 0.71380424 -0.30925245 0.62836807
vn 0.17934404 -0.73742553 -0.65118300
vn 0.91369536 -0.11848016 -0.38874574
vn 0.97277800 -0.14336913 -0.18206664
vn -0.61284370 -0.50105435 -0.61103776
vn 0.22825517 0.47820193 -0.84806986
vn 0.01112118 -0.07705839 -0.99696455
vn 0.34666737 -0.25499046 -0.90266361
vn 0.25820561 0.69956815 -0.66628392
vn 0.85448790 0.19387405 -0.48193700
vn 0.19046306 0.86091928 -0.47174339
vn -0.96441388 -0.11494462 -0.23810418
vn -0.92077357 -0.01129330 -0.38993397
vn -0.87360653 -0.08236800 -0.47961145
vn -0.83478097 -0.03417144 -0.54952073
vn 0.66262559 -0.69559487 -0.27762404
vn 0.52593931 -0.55841319 0.64153141
vn 0.06976467 -0.93584028 -0.34545024
vn 0.74274233 -0.15899245 -0.65042696
vn 0.93286246 -0.27560243 -0.23197183
vn -0.53721327 -0.10720966 -0.83660504
vn 0.10513206 -0.07052704 -0.99195423
vn -0.15135009 -0.09949774 -0.98345989
f 8//8 3//3 1//1
f 8//8 6//6 3//3
f 13//13 1//1 3//3
f 14//14 1//1 7//7
f 15//15 8//8 1//1
f 15//15 9//9 2//2
f 15//15 1//1 9//9
f 18//18 3//3 6//6
f 18//18 6//6 11//11
f 19//19 17//17 4//4
f 20//20 4//4 17//17
f 21//21 7//7 1//1
f 21//21 1//1 13//13
f 22//22 13//13 3//3
f 23//23 14//14 7//7
f 23//23 19//19 4//4
f 24//24 4//4 20//20
f 24//24 23//23 4//4
f 24//24 14//14 23//23
f 27//27 6//6 8//8
f 27//27 8//8 15//15
f 28//28 5//5 16//16
f 29//29 16//16 5//5
f 30//30 17//17 11//11
f 30//30 11//11 6//6
f 31//31 11//11 17//17
f 33//33 20//20 17//17
f 33//33 6//6 20//20
f 33//33 30//30 6//6
f 33//33 17//17 30//30
f 35//35 18//18 11//11
f 35//35 34//34 22//22
f 35//35 11//11 34//34
f 36//36 7//7 21//21
f 36//36 21//21 13//13
f 36//36 13//13 22//22
f 36//36 22//22 34//34
f 37//37 10//10 14//14
f 37//37 14//14 24//24
f 37//37 24//24 20//20
f 37//37 20//20 10//10
f 38//38 25//25 9//9
f 39//39 1//1 14//14
f 39//39 14//14 25//25
f 39//39 25//25 38//38
f 39//39 38//38 9//9
f 39//39 9//9 1//1
f 40//40 9//9 25//25
f 41//41 25//25 14//14
f 41//41 40//40 25//25
f 42//42 2//2 9//9
f 44//44 6//6 27//27
f 45//45 27//27 15//15
f 45//45 15//15 2//2
f 47//47 11//11 31//31
f 47//47 34//34 11//11
f 47//47 19//19 34//34
f 47//47 31//31 17//17
f 47//47 17//17 19//19
f 49//49 32//32 6//6
f 49//49 26//26 43//43
f 49//49 43//43 12//12
f 49//49 12//12 32//32
f 50//50 34//34 19//19
f 50//50 19//19 23//23
f 50//50 36//36 34//34
f 51//51 35//35 22//22
f 51//51 22//22 3//3
f 51//51 3//3 18//18
f 51//51 18//18 35//35
f 52//52 23//23 7//7
f 52//52 7//7 36//36
f 52//52 50//50 23//23
f 52//52 36//36 50//50
f 53//53 28//28 9//9
f 53//53 9//9 40//40
f 53//53 40//40 5//5
f 53//53 5//5 28//28
f 54//54 41//41 14//14
f 54//54 14//14 10//10
f 55//55 5//5 40//40
f 55//55 40//40 41//41
f 55//55 41//41 29//29
f 55//55 29//29 5//5
f 56//56 29//29 41//41
f 56//56 46//46 29//29
f 56//56 20//20 46//46
f 56//56 41//41 54//54
f 56//56 54//54 10//10
f 56//56 10//10 20//20
f 57//57 43//43 26//26
f 58//58 28//28 16//16
f 58//58 57//57 42//42
f 58//58 16//16 57//57
f 58//58 42//42 9//9
f 58//58 9//9 28//28
f 59//59 16//16 29//29
f 59//59 29//29 46//46
f 59//59 46//46 12//12
f 59//59 12//12 43//43
f 59//59 57//57 16//16
f 59//59 43//43 57//57
f 60//60 44//44 26//26
f 60//60 6//6 44//44
f 60//60 49//49 6//6
f 60//60 26//26 49//49
f 61//61 44//44 27//27
f 61//61 27//27 45//45
f 61//61 26//26 44//44
f 61//61 57//57 26//26
f 61//61 42//42 57//57
f 61//61 45//45 2//2
f 61//61 2//2 42//42
f 62//62 46//46 20//20
f 62//62 20//20 12//12
f 62//62 12//12 46//46
f 63//63 48//48 20//20
f 63//63 20//20 6//6
f 63//63 6//6 32//32
f 63//63 32//32 48//48
f 64//64 48//48 32//32
f 64//64 32//32 12//12
f 64//64 12//12 20//20
f 64//64 20//20 48//48

