# https://github.com/mikedh/trimesh
v 0.00709900 -0.03522727 0.01980970
v 0.00845200 -0.07480976 0.01845670
v 0.00792659 -0.03522727 -0.01924757
v -0.00792650 -0.03522727 -0.01924767
v -0.00845200 -0.07480976 0.01845670
v 0.00822100 -0.07457874 -0.01888893
v 0.00829586 -0.03522680 0.01876389
v -0.00712831 -0.07348610 0.01979403
v -0.00834700 -0.03522727 0.01867850
v -0.00822100 -0.07457874 -0.01888893
v 0.00712928 -0.07348700 0.01979354
v -0.00709900 -0.03522727 0.01980970
vn 0.27105547 0.63569466 0.72278713
vn 0.65325072 -0.65199719 0.38491967
vn 0.57146956 0.57738412 -0.58313817
vn -0.57103345 0.57745411 -0.58349597
vn -0.65292867 -0.65213788 0.38522765
vn 0.57788145 -0.57648676 -0.57768161
vn 0.71148680 0.62519695 0.32080415
vn -0.30133208 -0.30294627 0.90411423
vn -0.71378320 0.62636073 0.31334610
vn -0.57762173 -0.57662017 -0.57780820
vn 0.30114463 -0.30321956 0.90408507
vn -0.27810507 0.63430386 0.72132945
f 6//6 4//4 3//3
f 6//6 2//2 5//5
f 7//7 3//3 4//4
f 7//7 6//6 3//3
f 7//7 2//2 6//6
f 9//9 7//7 4//4
f 9//9 5//5 8//8
f 10//10 6//6 5//5
f 10//10 4//4 6//6
f 10//10 9//9 4//4
f 10//10 5//5 9//9
f 11//11 7//7 1//1
f 11//11 2//2 7//7
f 11//11 1//1 8//8
f 11//11 8//8 5//5
f 11//11 5//5 2//2
f 12//12 9//9 8//8
f 12//12 8//8 1//1
f 12//12 1//1 7//7
f 12//12 7//7 9//9

