# https://github.com/mikedh/trimesh
v 0.00648411 0.04994823 0.01903910
v 0.00685728 0.01456186 0.01840348
v 0.00688143 0.05034555 -0.01833546
v -0.00641620 0.04977710 -0.01924757
v -0.00694161 0.01456186 0.01845670
v 0.00596904 0.01456186 -0.01953631
v -0.00702361 0.05038451 0.01822570
v 0.00692039 0.05038451 0.01822570
v 0.00086071 0.01456186 0.02000000
v 0.00683839 0.01456186 -0.01845671
v 0.00639785 0.04986197 -0.01914418
v -0.00692279 0.01456228 -0.01849646
v -0.00695489 0.05031579 -0.01841929
v 0.00609016 0.01456186 0.01943697
v -0.00602061 0.01456186 0.01957870
v -0.00650247 0.04986337 0.01914248
v -0.00602061 0.01456186 -0.01957868
f 8 1 2
f 8 7 1
f 8 3 7
f 10 8 2
f 10 3 8
f 11 6 4
f 11 10 6
f 11 3 10
f 12 5 7
f 13 7 3
f 13 12 7
f 13 4 12
f 13 11 4
f 13 3 11
f 14 2 1
f 14 1 9
f 14 10 2
f 14 6 10
f 15 14 9
f 15 5 14
f 16 9 1
f 16 1 7
f 16 15 9
f 16 7 5
f 16 5 15
f 17 12 4
f 17 4 6
f 17 5 12
f 17 14 5
f 17 6 14

