# https://github.com/mikedh/trimesh
v 0.01477286 0.00864256 -0.00749998
v 0.01477286 -0.00864264 -0.00749998
v 0.01477286 -0.00792648 -0.01924822
v 0.00340921 0.01250007 -0.02000000
v 0.00340921 0.00113642 -0.00749998
v 0.01477286 0.00792642 -0.01924808
v 0.00864300 0.01250007 -0.00749998
v 0.00340921 -0.01477270 -0.02000000
v 0.00792659 0.01250007 -0.01924757
v 0.00792659 -0.01477270 -0.01924757
v 0.00864300 -0.01477270 -0.00749998
vn 0.69364741 0.39294193 0.60369686
vn 0.71987481 -0.30969962 0.62118145
vn 0.73549110 -0.28488283 -0.61473134
vn -0.58783214 0.60323746 -0.53903427
vn -0.71534892 0.03412427 0.69793371
vn 0.71385322 0.35799571 -0.60187429
vn -0.11210488 0.76230386 0.63743652
vn -0.59629032 -0.60425867 -0.52849722
vn 0.26813794 0.79709887 -0.54105031
vn 0.34169178 -0.76250516 -0.54939294
vn -0.05660522 -0.76919515 0.63650190
f 1//1 2//2 3//3
f 6//6 1//1 3//3
f 6//6 3//3 4//4
f 7//7 4//4 5//5
f 7//7 2//2 1//1
f 8//8 5//5 4//4
f 8//8 4//4 3//3
f 9//9 6//6 4//4
f 9//9 4//4 7//7
f 9//9 7//7 1//1
f 9//9 1//1 6//6
f 10//10 8//8 3//3
f 11//11 5//5 8//8
f 11//11 7//7 5//5
f 11//11 2//2 7//7
f 11//11 8//8 10//10
f 11//11 10//10 3//3
f 11//11 3//3 2//2

