# https://github.com/mikedh/trimesh
v 0.00340921 -0.01477270 0.02000000
v 0.00864300 -0.03522727 0.00159094
v 0.00864300 -0.01477270 0.00159094
v -0.00864300 -0.01477270 0.00159094
v -0.00834700 -0.03522727 0.01867850
v 0.00340921 -0.03522727 0.02000000
v -0.00834700 -0.01477270 0.01867850
v -0.00864300 -0.03522727 0.00159094
v -0.00709900 -0.01704543 0.01980970
v -0.00709900 -0.03522727 0.01980970
v -0.00709900 -0.01477270 0.01980970
vn 0.47982162 0.59219961 0.64735681
vn 0.65884162 -0.56416588 -0.49763900
vn 0.65884162 0.56416588 -0.49763900
vn -0.58278468 0.57644492 -0.57277680
vn -0.70894576 -0.62766266 0.32161388
vn 0.47982162 -0.59219961 0.64735681
vn -0.70894576 0.62766266 0.32161388
vn -0.58278468 -0.57644492 -0.57277680
vn -0.36834344 0.00000000 0.92968979
vn -0.28427822 -0.63589583 0.71751124
vn -0.28427822 0.63589583 0.71751124
f 1//1 3//3 4//4
f 3//3 2//2 4//4
f 6//6 2//2 3//3
f 6//6 3//3 1//1
f 8//8 4//4 2//2
f 8//8 2//2 6//6
f 8//8 7//7 4//4
f 8//8 5//5 7//7
f 9//9 7//7 5//5
f 10//10 9//9 5//5
f 10//10 6//6 1//1
f 10//10 1//1 9//9
f 10//10 8//8 6//6
f 10//10 5//5 8//8
f 11//11 9//9 1//1
f 11//11 7//7 9//9
f 11//11 1//1 4//4
f 11//11 4//4 7//7

