# https://github.com/mikedh/trimesh
v 0.04840665 0.00645420 0.01900432
v 0.04881539 -0.00695199 0.01822570
v 0.04801044 0.00605768 -0.01941578
v 0.00850553 0.00590973 -0.01953721
v 0.00850553 -0.00602311 0.01951756
v 0.04877179 -0.00690860 -0.01834706
v 0.00850553 0.00677991 -0.01845671
v 0.04835991 -0.00649695 0.01906128
v 0.04794964 -0.00608617 -0.01946579
v 0.00850583 -0.00686520 -0.01846556
v 0.04878863 0.00683595 -0.01830018
v 0.00850553 0.00680041 0.01839943
v 0.00850553 -0.00687118 0.01845170
v 0.00850553 -0.00594859 -0.01957868
v 0.04881539 0.00686261 0.01822570
v 0.00850553 0.00603086 0.01943781
f 7 3 4
f 8 2 1
f 8 1 5
f 9 4 3
f 9 3 6
f 10 9 6
f 10 6 2
f 11 2 6
f 11 6 3
f 11 3 7
f 13 8 5
f 13 2 8
f 13 10 2
f 14 4 9
f 14 9 10
f 14 10 13
f 14 13 5
f 14 7 4
f 15 1 2
f 15 2 11
f 15 12 1
f 15 11 7
f 15 7 12
f 16 5 1
f 16 1 12
f 16 14 5
f 16 12 7
f 16 7 14

