# https://github.com/mikedh/trimesh
v 0.07348632 0.00712860 0.01979402
v 0.07481000 -0.00845234 0.01845670
v 0.07457900 0.00822116 -0.01888893
v 0.01477286 0.00792642 -0.01924808
v 0.01477286 -0.00709934 0.01980970
v 0.07457900 -0.00822134 -0.01888893
v 0.01477266 0.00833512 0.01869891
v 0.07481000 0.00845226 0.01845670
v 0.07348624 -0.00712860 0.01979406
v 0.01477286 -0.00792648 -0.01924822
v 0.01477286 0.00709926 0.01980970
v 0.01477286 -0.00834744 0.01867850
vn 0.30273130 0.30158854 0.90410072
vn 0.65220814 -0.65272434 0.38545489
vn 0.57640775 0.57690715 -0.57873331
vn -0.57760830 0.57209655 -0.58230078
vn -0.63433046 -0.27812910 0.72129680
vn 0.57643632 -0.57685965 -0.57875220
vn -0.62583707 0.71363293 0.31473163
vn 0.65218442 0.65277484 0.38540951
vn 0.30269389 -0.30162484 0.90410113
vn -0.57762496 -0.57198785 -0.58239103
vn -0.63462289 0.27651568 0.72165980
vn -0.62611211 -0.71414405 0.31302061
f 6//6 3//3 2//2
f 7//7 3//3 4//4
f 8//8 1//1 2//2
f 8//8 2//2 3//3
f 8//8 7//7 1//1
f 8//8 3//3 7//7
f 9//9 2//2 1//1
f 10//10 4//4 3//3
f 10//10 3//3 6//6
f 10//10 7//7 4//4
f 11//11 7//7 5//5
f 11//11 1//1 7//7
f 11//11 9//9 1//1
f 11//11 5//5 9//9
f 12//12 9//9 5//5
f 12//12 2//2 9//9
f 12//12 5//5 7//7
f 12//12 7//7 10//10
f 12//12 10//10 6//6
f 12//12 6//6 2//2

