# https://github.com/mikedh/trimesh
v 0.00609016 -0.00990155 0.01943697
v 0.00692039 -0.05031139 0.01822570
v 0.00683839 -0.00990155 -0.01845671
v -0.00602061 -0.00990155 -0.01957868
v -0.00702361 -0.05031139 0.01822570
v 0.00639781 -0.04978818 -0.01914422
v 0.00685728 -0.00990155 0.01840348
v 0.00086071 -0.04968679 0.01926780
v -0.00694161 -0.00990155 0.01845670
v 0.00688210 -0.05027282 -0.01833357
v 0.00596904 -0.00990155 -0.01953631
v -0.00695561 -0.05024289 -0.01841728
v 0.00648409 -0.04987443 0.01903912
v -0.00602061 -0.00990155 0.01957870
v -0.00641615 -0.04970332 -0.01924763
v -0.00689015 -0.00990069 -0.01856144
v -0.00650244 -0.04978958 0.01914252
f 7 2 3
f 10 6 3
f 10 3 2
f 10 2 5
f 11 3 6
f 12 10 5
f 12 6 10
f 13 7 1
f 13 2 7
f 13 1 8
f 13 5 2
f 14 8 1
f 15 11 6
f 15 4 11
f 15 6 12
f 16 15 12
f 16 4 15
f 16 11 4
f 16 9 14
f 16 7 3
f 16 3 11
f 16 14 1
f 16 1 7
f 16 12 5
f 16 5 9
f 17 13 8
f 17 5 13
f 17 8 14
f 17 14 9
f 17 9 5

