# https://github.com/mikedh/trimesh
v 0.01022740 -0.00568178 0.02000000
v 0.00829586 -0.03522680 0.01876389
v 0.00864300 -0.03522727 0.00159094
v 0.00864300 -0.00864264 0.00159094
v 0.00340921 -0.00568178 0.02000000
v 0.01022740 -0.00864264 0.00159094
v 0.01022740 -0.00709934 0.01980970
v 0.00340921 -0.03522727 0.02000000
v 0.00709900 -0.03522727 0.01980970
vn 0.57136882 0.62240270 0.53493229
vn 0.68493669 -0.65554068 0.31800652
vn 0.09722212 -0.60843743 -0.78762412
vn -0.48865073 0.53652429 -0.68801319
vn -0.64599198 0.60685234 0.46306004
vn 0.60450518 0.50833664 -0.61332483
vn 0.95418057 -0.05447447 0.29423115
vn -0.64730473 -0.56494336 0.51169873
vn 0.26906370 -0.65662299 0.70459278
f 5//5 1//1 4//4
f 5//5 4//4 3//3
f 6//6 3//3 4//4
f 6//6 4//4 1//1
f 7//7 1//1 2//2
f 7//7 2//2 3//3
f 7//7 6//6 1//1
f 7//7 3//3 6//6
f 8//8 1//1 5//5
f 8//8 5//5 3//3
f 9//9 2//2 1//1
f 9//9 1//1 8//8
f 9//9 8//8 3//3
f 9//9 3//3 2//2

