# https://github.com/mikedh/trimesh

o mesh37
v 0.77184200 0.14845400 0.00250000
v 0.77184200 0.14845400 0.00250000
v 0.77184200 0.08209640 0.00250000
v 0.77184200 0.08209640 0.00250000
v 0.77184200 0.08209640 0.03750000
v 0.77184200 0.08209640 0.03750000
v 0.77184200 0.14845400 0.03750000
v 0.77184200 0.14845400 0.03750000
v 0.70548500 0.08209640 0.00250000
v 0.70548500 0.08209640 0.00250000
v 0.70548500 0.08209640 0.03750000
v 0.70548500 0.08209640 0.03750000
v 0.70798500 0.07959640 0.04000000
v 0.77434200 0.07959640 0.04000000
v 0.77385500 0.08008410 0.03995200
v 0.77385500 0.08008410 0.03995200
v 0.70749700 0.08008410 0.03995200
v 0.70749700 0.08008410 0.03995200
v 0.77338600 0.08055310 0.03980970
v 0.77338600 0.08055310 0.03980970
v 0.77295400 0.08098530 0.03957870
v 0.77295400 0.08098530 0.03957870
v 0.70659600 0.08098530 0.03957870
v 0.70659600 0.08098530 0.03957870
v 0.70702800 0.08055310 0.03980970
v 0.70702800 0.08055310 0.03980970
v 0.77257500 0.08136410 0.03926780
v 0.77257500 0.08136410 0.03926780
v 0.77226400 0.08167500 0.03888890
v 0.77226400 0.08167500 0.03888890
v 0.70590600 0.08167500 0.03888890
v 0.70590600 0.08167500 0.03888890
v 0.70621700 0.08136410 0.03926780
v 0.70621700 0.08136410 0.03926780
v 0.77213800 0.08180120 0.03867850
v 0.77213800 0.08180120 0.03867850
v 0.70567500 0.08190610 0.03845670
v 0.70567500 0.08190610 0.03845670
v 0.70578000 0.08180120 0.03867850
v 0.70578000 0.08180120 0.03867850
v 0.77195000 0.08198870 0.03822570
v 0.77195000 0.08198870 0.03822570
v 0.70559300 0.08198870 0.03822570
v 0.70559300 0.08198870 0.03822570
v 0.70553300 0.08204830 0.03798770
v 0.70553300 0.08204830 0.03798770
v 0.77203300 0.08190610 0.03845670
v 0.77203300 0.08190610 0.03845670
v 0.77189000 0.08204830 0.03798770
v 0.77189000 0.08204830 0.03798770
v 0.77185400 0.08208430 0.03774500
v 0.77185400 0.08208430 0.03774500
v 0.70549700 0.08208430 0.03774500
v 0.70549700 0.08208430 0.03774500
v 0.70749700 0.06682350 0.03995200
v 0.70749700 0.06682350 0.03995200
v 0.70798500 0.06731120 0.04000000
v 0.70702800 0.06635450 0.03980970
v 0.70702800 0.06635450 0.03980970
v 0.70659600 0.06592230 0.03957870
v 0.70659600 0.06592230 0.03957870
v 0.70621700 0.06554340 0.03926780
v 0.70621700 0.06554340 0.03926780
v 0.70590600 0.06523250 0.03888890
v 0.70590600 0.06523250 0.03888890
v 0.70578000 0.06510640 0.03867850
v 0.70578000 0.06510640 0.03867850
v 0.70567500 0.06500150 0.03845670
v 0.70567500 0.06500150 0.03845670
v 0.70559300 0.06491880 0.03822570
v 0.70559300 0.06491880 0.03822570
v 0.70553300 0.06485920 0.03798770
v 0.70553300 0.06485920 0.03798770
v 0.70549700 0.06482320 0.03774500
v 0.70549700 0.06482320 0.03774500
v 0.70548500 0.06481120 0.03750000
v 0.70548500 0.06481120 0.03750000
v 0.77434200 0.14595400 0.04000000
v 0.77385500 0.14644200 0.03995200
v 0.77385500 0.14644200 0.03995200
v 0.77338600 0.14691000 0.03980970
v 0.77338600 0.14691000 0.03980970
v 0.77295400 0.14734300 0.03957870
v 0.77295400 0.14734300 0.03957870
v 0.77257500 0.14772200 0.03926780
v 0.77257500 0.14772200 0.03926780
v 0.77226400 0.14803200 0.03888890
v 0.77226400 0.14803200 0.03888890
v 0.77213800 0.14815900 0.03867850
v 0.77213800 0.14815900 0.03867850
v 0.77203300 0.14826300 0.03845670
v 0.77203300 0.14826300 0.03845670
v 0.77195000 0.14834600 0.03822570
v 0.77195000 0.14834600 0.03822570
v 0.77189000 0.14840600 0.03798770
v 0.77189000 0.14840600 0.03798770
v 0.77185400 0.14844200 0.03774500
v 0.77185400 0.14844200 0.03774500
v 0.78711500 0.14644200 0.03995200
v 0.78711500 0.14644200 0.03995200
v 0.78801700 0.14734300 0.03957870
v 0.78801700 0.14734300 0.03957870
v 0.78870600 0.14803200 0.03888890
v 0.78870600 0.14803200 0.03888890
v 0.78883200 0.14815900 0.03867850
v 0.78883200 0.14815900 0.03867850
v 0.78902000 0.14834600 0.03822570
v 0.78902000 0.14834600 0.03822570
v 0.78893700 0.14826300 0.03845670
v 0.78893700 0.14826300 0.03845670
v 0.78908000 0.14840600 0.03798770
v 0.78908000 0.14840600 0.03798770
v 0.78911600 0.14844200 0.03774500
v 0.78911600 0.14844200 0.03774500
v 0.78912800 0.14845400 0.03750000
v 0.78912800 0.14845400 0.03750000
v 0.78839500 0.14772200 0.03926780
v 0.78839500 0.14772200 0.03926780
v 0.78758400 0.14691000 0.03980970
v 0.78758400 0.14691000 0.03980970
v 0.78662800 0.14595400 0.04000000
v 0.70548500 0.06481120 0.00250000
v 0.70548500 0.06481120 0.00250000
v 0.77184200 0.06481120 0.03750000
v 0.77184200 0.06481120 0.03750000
v 0.77185400 0.06482320 0.03774500
v 0.77185400 0.06482320 0.03774500
v 0.77189000 0.06485920 0.03798770
v 0.77189000 0.06485920 0.03798770
v 0.77195000 0.06491880 0.03822570
v 0.77195000 0.06491880 0.03822570
v 0.77203300 0.06500150 0.03845670
v 0.77203300 0.06500150 0.03845670
v 0.77213800 0.06510640 0.03867850
v 0.77213800 0.06510640 0.03867850
v 0.77226400 0.06523250 0.03888890
v 0.77226400 0.06523250 0.03888890
v 0.77257500 0.06554340 0.03926780
v 0.77257500 0.06554340 0.03926780
v 0.77295400 0.06592230 0.03957870
v 0.77295400 0.06592230 0.03957870
v 0.77338600 0.06635450 0.03980970
v 0.77338600 0.06635450 0.03980970
v 0.77385500 0.06682350 0.03995200
v 0.77385500 0.06682350 0.03995200
v 0.77434200 0.06731120 0.04000000
v 0.77185400 0.08208430 0.00225496
v 0.77185400 0.08208430 0.00225496
v 0.70553300 0.08204830 0.00201227
v 0.70553300 0.08204830 0.00201227
v 0.70549700 0.08208430 0.00225496
v 0.70549700 0.08208430 0.00225496
v 0.77189000 0.08204830 0.00201227
v 0.77189000 0.08204830 0.00201227
v 0.77195000 0.08198870 0.00177429
v 0.77195000 0.08198870 0.00177429
v 0.70567500 0.08190610 0.00154329
v 0.70567500 0.08190610 0.00154329
v 0.70559300 0.08198870 0.00177429
v 0.70559300 0.08198870 0.00177429
v 0.77203300 0.08190610 0.00154329
v 0.77203300 0.08190610 0.00154329
v 0.77213800 0.08180120 0.00132151
v 0.77213800 0.08180120 0.00132151
v 0.70590600 0.08167500 0.00111107
v 0.70590600 0.08167500 0.00111107
v 0.70578000 0.08180120 0.00132151
v 0.70578000 0.08180120 0.00132151
v 0.77226400 0.08167500 0.00111107
v 0.77226400 0.08167500 0.00111107
v 0.77257500 0.08136410 0.00073223
v 0.77257500 0.08136410 0.00073223
v 0.70621700 0.08136410 0.00073223
v 0.70621700 0.08136410 0.00073223
v 0.70659600 0.08098530 0.00042133
v 0.70659600 0.08098530 0.00042133
v 0.77295400 0.08098530 0.00042133
v 0.77295400 0.08098530 0.00042133
v 0.77338600 0.08055310 0.00019030
v 0.77338600 0.08055310 0.00019030
v 0.70702800 0.08055310 0.00019030
v 0.70702800 0.08055310 0.00019030
v 0.70749700 0.08008410 0.00004804
v 0.70749700 0.08008410 0.00004804
v 0.77385500 0.08008410 0.00004804
v 0.77385500 0.08008410 0.00004804
v 0.77434200 0.07959640 0.00000000
v 0.70798500 0.07959640 0.00000000
v 0.70749700 0.06682350 0.00004804
v 0.70749700 0.06682350 0.00004804
v 0.70702800 0.06635450 0.00019030
v 0.70702800 0.06635450 0.00019030
v 0.70659600 0.06592230 0.00042133
v 0.70659600 0.06592230 0.00042133
v 0.70621700 0.06554340 0.00073223
v 0.70621700 0.06554340 0.00073223
v 0.70578000 0.06510640 0.00132151
v 0.70578000 0.06510640 0.00132151
v 0.70590600 0.06523250 0.00111107
v 0.70590600 0.06523250 0.00111107
v 0.70567500 0.06500150 0.00154329
v 0.70567500 0.06500150 0.00154329
v 0.70559300 0.06491880 0.00177429
v 0.70559300 0.06491880 0.00177429
v 0.70549700 0.06482320 0.00225496
v 0.70549700 0.06482320 0.00225496
v 0.70553300 0.06485920 0.00201227
v 0.70553300 0.06485920 0.00201227
v 0.70798500 0.06731120 0.00000000
v 0.77184200 0.06481120 0.00250000
v 0.77184200 0.06481120 0.00250000
v 0.77189000 -0.00149819 0.03798770
v 0.77189000 -0.00149819 0.03798770
v 0.77184200 -0.00154622 0.03750000
v 0.77184200 -0.00154622 0.03750000
v 0.77185400 -0.00153419 0.03774500
v 0.77185400 -0.00153419 0.03774500
v 0.77195000 -0.00143857 0.03822570
v 0.77195000 -0.00143857 0.03822570
v 0.77203300 -0.00135592 0.03845670
v 0.77203300 -0.00135592 0.03845670
v 0.77213800 -0.00125103 0.03867850
v 0.77213800 -0.00125103 0.03867850
v 0.77226400 -0.00112490 0.03888890
v 0.77226400 -0.00112490 0.03888890
v 0.77257500 -0.00081399 0.03926780
v 0.77257500 -0.00081399 0.03926780
v 0.77295400 -0.00043515 0.03957870
v 0.77295400 -0.00043515 0.03957870
v 0.77338600 -0.00000293 0.03980970
v 0.77338600 -0.00000293 0.03980970
v 0.77385500 0.00046605 0.03995200
v 0.77385500 0.00046605 0.03995200
v 0.77434200 0.00095378 0.04000000
v 0.77385500 0.06682350 0.00004804
v 0.77385500 0.06682350 0.00004804
v 0.77338600 0.06635450 0.00019030
v 0.77338600 0.06635450 0.00019030
v 0.77295400 0.06592230 0.00042133
v 0.77295400 0.06592230 0.00042133
v 0.77257500 0.06554340 0.00073223
v 0.77257500 0.06554340 0.00073223
v 0.77226400 0.06523250 0.00111107
v 0.77226400 0.06523250 0.00111107
v 0.77213800 0.06510640 0.00132151
v 0.77213800 0.06510640 0.00132151
v 0.77195000 0.06491880 0.00177429
v 0.77195000 0.06491880 0.00177429
v 0.77203300 0.06500150 0.00154329
v 0.77203300 0.06500150 0.00154329
v 0.77189000 0.06485920 0.00201227
v 0.77189000 0.06485920 0.00201227
v 0.77185400 0.06482320 0.00225496
v 0.77185400 0.06482320 0.00225496
v 0.77434200 0.06731120 0.00000000
v 0.77184200 -0.00154622 0.00250000
v 0.77184200 -0.00154622 0.00250000
v 0.78911600 -0.00153419 0.03774500
v 0.78911600 -0.00153419 0.03774500
v 0.78908000 -0.00149819 0.03798770
v 0.78908000 -0.00149819 0.03798770
v 0.78912800 -0.00154622 0.03750000
v 0.78912800 -0.00154622 0.03750000
v 0.78902000 -0.00143857 0.03822570
v 0.78902000 -0.00143857 0.03822570
v 0.78893700 -0.00135592 0.03845670
v 0.78893700 -0.00135592 0.03845670
v 0.78883200 -0.00125103 0.03867850
v 0.78883200 -0.00125103 0.03867850
v 0.78870600 -0.00112490 0.03888890
v 0.78870600 -0.00112490 0.03888890
v 0.78839500 -0.00081399 0.03926780
v 0.78839500 -0.00081399 0.03926780
v 0.78801700 -0.00043515 0.03957870
v 0.78801700 -0.00043515 0.03957870
v 0.78758400 -0.00000293 0.03980970
v 0.78758400 -0.00000293 0.03980970
v 0.78711500 0.00046605 0.03995200
v 0.78711500 0.00046605 0.03995200
v 0.78662800 0.00095378 0.04000000
v 0.77434200 0.00095378 0.00000000
v 0.77385500 0.00046605 0.00004804
v 0.77385500 0.00046605 0.00004804
v 0.77338600 -0.00000293 0.00019030
v 0.77338600 -0.00000293 0.00019030
v 0.77295400 -0.00043515 0.00042133
v 0.77295400 -0.00043515 0.00042133
v 0.77257500 -0.00081399 0.00073223
v 0.77257500 -0.00081399 0.00073223
v 0.77226400 -0.00112490 0.00111107
v 0.77226400 -0.00112490 0.00111107
v 0.77213800 -0.00125103 0.00132151
v 0.77213800 -0.00125103 0.00132151
v 0.77203300 -0.00135592 0.00154329
v 0.77203300 -0.00135592 0.00154329
v 0.77195000 -0.00143857 0.00177429
v 0.77195000 -0.00143857 0.00177429
v 0.77189000 -0.00149819 0.00201227
v 0.77189000 -0.00149819 0.00201227
v 0.77185400 -0.00153419 0.00225496
v 0.77185400 -0.00153419 0.00225496
v 0.78912800 -0.00154622 0.00250000
v 0.78912800 -0.00154622 0.00250000
v 0.78912800 0.06481120 0.03750000
v 0.78912800 0.06481120 0.03750000
v 0.78911600 0.06482320 0.03774500
v 0.78911600 0.06482320 0.03774500
v 0.78908000 0.06485920 0.03798770
v 0.78908000 0.06485920 0.03798770
v 0.78902000 0.06491880 0.03822570
v 0.78902000 0.06491880 0.03822570
v 0.78893700 0.06500150 0.03845670
v 0.78893700 0.06500150 0.03845670
v 0.78883200 0.06510640 0.03867850
v 0.78883200 0.06510640 0.03867850
v 0.78870600 0.06523250 0.03888890
v 0.78870600 0.06523250 0.03888890
v 0.78839500 0.06554340 0.03926780
v 0.78839500 0.06554340 0.03926780
v 0.78801700 0.06592230 0.03957870
v 0.78801700 0.06592230 0.03957870
v 0.78758400 0.06635450 0.03980970
v 0.78758400 0.06635450 0.03980970
v 0.78711500 0.06682350 0.03995200
v 0.78711500 0.06682350 0.03995200
v 0.78662800 0.06731120 0.04000000
v 0.77189000 0.14840600 0.00201227
v 0.77189000 0.14840600 0.00201227
v 0.77185400 0.14844200 0.00225496
v 0.77185400 0.14844200 0.00225496
v 0.77203300 0.14826300 0.00154329
v 0.77203300 0.14826300 0.00154329
v 0.77195000 0.14834600 0.00177429
v 0.77195000 0.14834600 0.00177429
v 0.77213800 0.14815900 0.00132151
v 0.77213800 0.14815900 0.00132151
v 0.77226400 0.14803200 0.00111107
v 0.77226400 0.14803200 0.00111107
v 0.77257500 0.14772200 0.00073223
v 0.77257500 0.14772200 0.00073223
v 0.77295400 0.14734300 0.00042133
v 0.77295400 0.14734300 0.00042133
v 0.77338600 0.14691000 0.00019030
v 0.77338600 0.14691000 0.00019030
v 0.77385500 0.14644200 0.00004804
v 0.77385500 0.14644200 0.00004804
v 0.77434200 0.14595400 0.00000000
v 0.78912800 0.14845400 0.00250000
v 0.78912800 0.14845400 0.00250000
v 0.78711500 0.08008410 0.03995200
v 0.78711500 0.08008410 0.03995200
v 0.78758400 0.08055310 0.03980970
v 0.78758400 0.08055310 0.03980970
v 0.78801700 0.08098530 0.03957870
v 0.78801700 0.08098530 0.03957870
v 0.78839500 0.08136410 0.03926780
v 0.78839500 0.08136410 0.03926780
v 0.78870600 0.08167500 0.03888890
v 0.78870600 0.08167500 0.03888890
v 0.78883200 0.08180120 0.03867850
v 0.78883200 0.08180120 0.03867850
v 0.78893700 0.08190610 0.03845670
v 0.78893700 0.08190610 0.03845670
v 0.78902000 0.08198870 0.03822570
v 0.78902000 0.08198870 0.03822570
v 0.78908000 0.08204830 0.03798770
v 0.78908000 0.08204830 0.03798770
v 0.78911600 0.08208430 0.03774500
v 0.78911600 0.08208430 0.03774500
v 0.78912800 0.08209640 0.03750000
v 0.78912800 0.08209640 0.03750000
v 0.78662800 0.07959640 0.04000000
v 0.85298500 0.07959640 0.04000000
v 0.85298500 0.06731120 0.04000000
v 0.85347300 0.08008410 0.03995200
v 0.85347300 0.08008410 0.03995200
v 0.85394200 0.08055310 0.03980970
v 0.85394200 0.08055310 0.03980970
v 0.85437400 0.08098530 0.03957870
v 0.85437400 0.08098530 0.03957870
v 0.85475300 0.08136410 0.03926780
v 0.85475300 0.08136410 0.03926780
v 0.85506400 0.08167500 0.03888890
v 0.85506400 0.08167500 0.03888890
v 0.85519000 0.08180120 0.03867850
v 0.85519000 0.08180120 0.03867850
v 0.85529500 0.08190610 0.03845670
v 0.85529500 0.08190610 0.03845670
v 0.85537700 0.08198870 0.03822570
v 0.85537700 0.08198870 0.03822570
v 0.85543700 0.08204830 0.03798770
v 0.85543700 0.08204830 0.03798770
v 0.85547300 0.08208430 0.03774500
v 0.85547300 0.08208430 0.03774500
v 0.85548500 0.08209640 0.03750000
v 0.85548500 0.08209640 0.03750000
v 0.78912800 0.08209640 0.00250000
v 0.78912800 0.08209640 0.00250000
v 0.78911600 0.14844200 0.00225496
v 0.78911600 0.14844200 0.00225496
v 0.78908000 0.14840600 0.00201227
v 0.78908000 0.14840600 0.00201227
v 0.78902000 0.14834600 0.00177429
v 0.78902000 0.14834600 0.00177429
v 0.78893700 0.14826300 0.00154329
v 0.78893700 0.14826300 0.00154329
v 0.78883200 0.14815900 0.00132151
v 0.78883200 0.14815900 0.00132151
v 0.78870600 0.14803200 0.00111107
v 0.78870600 0.14803200 0.00111107
v 0.78839500 0.14772200 0.00073223
v 0.78839500 0.14772200 0.00073223
v 0.78801700 0.14734300 0.00042133
v 0.78801700 0.14734300 0.00042133
v 0.78758400 0.14691000 0.00019030
v 0.78758400 0.14691000 0.00019030
v 0.78711500 0.14644200 0.00004804
v 0.78711500 0.14644200 0.00004804
v 0.78662800 0.14595400 0.00000000
v 0.85547300 0.06482320 0.03774500
v 0.85547300 0.06482320 0.03774500
v 0.85543700 0.06485920 0.03798770
v 0.85543700 0.06485920 0.03798770
v 0.85548500 0.06481120 0.03750000
v 0.85548500 0.06481120 0.03750000
v 0.85529500 0.06500150 0.03845670
v 0.85529500 0.06500150 0.03845670
v 0.85537700 0.06491880 0.03822570
v 0.85537700 0.06491880 0.03822570
v 0.85519000 0.06510640 0.03867850
v 0.85519000 0.06510640 0.03867850
v 0.85506400 0.06523250 0.03888890
v 0.85506400 0.06523250 0.03888890
v 0.85475300 0.06554340 0.03926780
v 0.85475300 0.06554340 0.03926780
v 0.85437400 0.06592230 0.03957870
v 0.85437400 0.06592230 0.03957870
v 0.85394200 0.06635450 0.03980970
v 0.85394200 0.06635450 0.03980970
v 0.85347300 0.06682350 0.03995200
v 0.85347300 0.06682350 0.03995200
v 0.78912800 0.06481120 0.00250000
v 0.78912800 0.06481120 0.00250000
v 0.78711500 0.00046605 0.00004804
v 0.78711500 0.00046605 0.00004804
v 0.78801700 -0.00043515 0.00042133
v 0.78801700 -0.00043515 0.00042133
v 0.78870600 -0.00112490 0.00111107
v 0.78870600 -0.00112490 0.00111107
v 0.78883200 -0.00125103 0.00132151
v 0.78883200 -0.00125103 0.00132151
v 0.78893700 -0.00135592 0.00154329
v 0.78893700 -0.00135592 0.00154329
v 0.78902000 -0.00143857 0.00177429
v 0.78902000 -0.00143857 0.00177429
v 0.78908000 -0.00149819 0.00201227
v 0.78908000 -0.00149819 0.00201227
v 0.78911600 -0.00153419 0.00225496
v 0.78911600 -0.00153419 0.00225496
v 0.78839500 -0.00081399 0.00073223
v 0.78839500 -0.00081399 0.00073223
v 0.78758400 -0.00000293 0.00019030
v 0.78758400 -0.00000293 0.00019030
v 0.78662800 0.00095378 0.00000000
v 0.85548500 0.06481120 0.00250000
v 0.85548500 0.06481120 0.00250000
v 0.78711500 0.06682350 0.00004804
v 0.78711500 0.06682350 0.00004804
v 0.78758400 0.06635450 0.00019030
v 0.78758400 0.06635450 0.00019030
v 0.78801700 0.06592230 0.00042133
v 0.78801700 0.06592230 0.00042133
v 0.78839500 0.06554340 0.00073223
v 0.78839500 0.06554340 0.00073223
v 0.78870600 0.06523250 0.00111107
v 0.78870600 0.06523250 0.00111107
v 0.78883200 0.06510640 0.00132151
v 0.78883200 0.06510640 0.00132151
v 0.78893700 0.06500150 0.00154329
v 0.78893700 0.06500150 0.00154329
v 0.78902000 0.06491880 0.00177429
v 0.78902000 0.06491880 0.00177429
v 0.78908000 0.06485920 0.00201227
v 0.78908000 0.06485920 0.00201227
v 0.78911600 0.06482320 0.00225496
v 0.78911600 0.06482320 0.00225496
v 0.78662800 0.06731120 0.00000000
v 0.85548500 0.08209640 0.00250000
v 0.85548500 0.08209640 0.00250000
v 0.85298500 0.06731120 0.00000000
v 0.85347300 0.06682350 0.00004804
v 0.85347300 0.06682350 0.00004804
v 0.85394200 0.06635450 0.00019030
v 0.85394200 0.06635450 0.00019030
v 0.85437400 0.06592230 0.00042133
v 0.85437400 0.06592230 0.00042133
v 0.85475300 0.06554340 0.00073223
v 0.85475300 0.06554340 0.00073223
v 0.85506400 0.06523250 0.00111107
v 0.85506400 0.06523250 0.00111107
v 0.85519000 0.06510640 0.00132151
v 0.85519000 0.06510640 0.00132151
v 0.85529500 0.06500150 0.00154329
v 0.85529500 0.06500150 0.00154329
v 0.85537700 0.06491880 0.00177429
v 0.85537700 0.06491880 0.00177429
v 0.85543700 0.06485920 0.00201227
v 0.85543700 0.06485920 0.00201227
v 0.85547300 0.06482320 0.00225496
v 0.85547300 0.06482320 0.00225496
v 0.78662800 0.07959640 0.00000000
v 0.85298500 0.07959640 0.00000000
v 0.78911600 0.08208430 0.00225496
v 0.78911600 0.08208430 0.00225496
v 0.78908000 0.08204830 0.00201227
v 0.78908000 0.08204830 0.00201227
v 0.78902000 0.08198870 0.00177429
v 0.78902000 0.08198870 0.00177429
v 0.78893700 0.08190610 0.00154329
v 0.78893700 0.08190610 0.00154329
v 0.78883200 0.08180120 0.00132151
v 0.78883200 0.08180120 0.00132151
v 0.78870600 0.08167500 0.00111107
v 0.78870600 0.08167500 0.00111107
v 0.78839500 0.08136410 0.00073223
v 0.78839500 0.08136410 0.00073223
v 0.78801700 0.08098530 0.00042133
v 0.78801700 0.08098530 0.00042133
v 0.78758400 0.08055310 0.00019030
v 0.78758400 0.08055310 0.00019030
v 0.78711500 0.08008410 0.00004804
v 0.78711500 0.08008410 0.00004804
v 0.85547300 0.08208430 0.00225496
v 0.85547300 0.08208430 0.00225496
v 0.85543700 0.08204830 0.00201227
v 0.85543700 0.08204830 0.00201227
v 0.85529500 0.08190610 0.00154329
v 0.85529500 0.08190610 0.00154329
v 0.85537700 0.08198870 0.00177429
v 0.85537700 0.08198870 0.00177429
v 0.85519000 0.08180120 0.00132151
v 0.85519000 0.08180120 0.00132151
v 0.85506400 0.08167500 0.00111107
v 0.85506400 0.08167500 0.00111107
v 0.85475300 0.08136410 0.00073223
v 0.85475300 0.08136410 0.00073223
v 0.85437400 0.08098530 0.00042133
v 0.85437400 0.08098530 0.00042133
v 0.85394200 0.08055310 0.00019030
v 0.85394200 0.08055310 0.00019030
v 0.85347300 0.08008410 0.00004804
v 0.85347300 0.08008410 0.00004804
vn -0.99971010 0.00000000 -0.02407721
vn 0.00000000 0.99971010 -0.02407721
vn -0.99969140 0.00000000 -0.02484163
vn -0.00018238 0.99968323 -0.02516745
vn -0.99968822 0.00018313 0.02496858
vn 0.00000000 0.99968622 0.02504931
vn -0.99971001 0.00000000 0.02408107
vn 0.00000000 0.99971001 0.02408107
vn -0.99971018 0.00000000 -0.02407394
vn 0.00000000 0.99970526 -0.02427750
vn -0.99971009 0.00000000 0.02407780
vn 0.00000000 0.99970516 0.02428139
vn -0.03677675 0.03680873 0.99864538
vn -0.01229098 0.01229580 0.99984886
vn -0.14772101 0.00000000 0.98902907
vn 0.00000000 0.14764004 0.98904116
vn -0.24264664 0.00000000 0.97011474
vn 0.00000000 0.24268916 0.97010410
vn 0.00000000 0.33987284 0.94047140
vn -0.33990336 0.00000000 0.94046037
vn 0.00000000 0.51982242 0.85427434
vn -0.51988692 0.00000000 0.85423509
vn 0.00000000 0.59175639 0.80611685
vn -0.59165679 0.00000000 0.80618995
vn -0.42594509 0.00000000 0.90474901
vn 0.00000000 0.42580991 0.90481265
vn 0.00000000 0.68032682 0.73290887
vn -0.68017195 0.00000000 0.73305260
vn 0.00000000 0.80366559 0.59508119
vn -0.80373152 0.00000000 0.59499213
vn 0.00000000 0.83169729 0.55522933
vn -0.83193263 0.00000000 0.55487665
vn 0.00000000 0.73453759 0.67856800
vn -0.73439493 0.00000000 0.67872239
vn 0.00000000 0.87540965 0.48338177
vn -0.87558692 0.00013118 0.48306059
vn -0.92881743 0.00000000 0.37053770
vn 0.00000000 0.92833160 0.37175320
vn 0.00000000 0.88841116 0.45904859
vn -0.88842238 0.00000000 0.45902688
vn -0.95402041 0.00015003 0.29974160
vn 0.00000000 0.95444756 0.29837872
vn -0.95956507 0.00000000 0.28148691
vn 0.00000000 0.95955715 0.28151389
vn -0.98184813 0.00000000 0.18966881
vn 0.00000000 0.98198448 0.18896160
vn -0.91920113 0.00021952 0.39378832
vn 0.00000000 0.91959050 0.39287825
vn 0.00000000 0.97963405 0.20079126
vn -0.97942794 0.00020150 0.20179413
vn 0.00000000 0.99487898 0.10107334
vn -0.99490808 0.00017122 0.10078635
vn 0.00000000 0.99547458 0.09502819
vn -0.99549573 0.00000000 0.09480640
vn 0.00000000 -0.24268916 0.97010410
vn -0.24264664 0.00000000 0.97011474
vn -0.03677675 -0.03680873 0.99864538
vn 0.00000000 -0.42580991 0.90481265
vn -0.42594509 0.00000000 0.90474901
vn -0.59165860 0.00000000 0.80618862
vn 0.00000000 -0.59167954 0.80617326
vn -0.73439885 0.00000000 0.67871815
vn 0.00000000 -0.73450910 0.67859884
vn -0.83192978 0.00000000 0.55488093
vn 0.00024212 -0.83196358 0.55483020
vn 0.00012987 -0.88844556 0.45898199
vn -0.88841936 0.00000000 0.45903273
vn -0.92881913 0.00000000 0.37053342
vn 0.00022367 -0.92831514 0.37179422
vn 0.00014882 -0.95949336 0.28173119
vn -0.95956695 0.00000000 0.28148049
vn 0.00020323 -0.98201261 0.18881524
vn -0.98184813 0.00000000 0.18966881
vn 0.00017042 -0.99548620 0.09490630
vn -0.99549515 0.00000000 0.09481253
vn 0.00000000 -0.99971001 0.02408107
vn -0.99971001 0.00000000 0.02408107
vn -0.03687242 0.03676569 0.99864343
vn 0.00000000 0.24306034 0.97001117
vn -0.24273927 0.00000000 0.97009157
vn 0.00000000 0.42546387 0.90497541
vn -0.42591358 0.00000000 0.90476385
vn -0.59169460 0.00000000 0.80616221
vn 0.00000000 0.59140629 0.80637373
vn -0.73438557 0.00000000 0.67873252
vn 0.00000000 0.73516456 0.67788868
vn -0.83206655 -0.00024041 0.55467576
vn 0.00000000 0.83091887 0.55639359
vn -0.88840703 -0.00012884 0.45905657
vn 0.00000000 0.88893083 0.45804147
vn -0.92798796 -0.00022268 0.37261010
vn 0.00000000 0.92846786 0.37141274
vn -0.95911532 -0.00014798 0.28301550
vn 0.00000000 0.95913473 0.28294978
vn -0.98188173 -0.00020323 0.18949464
vn 0.00000000 0.98185350 0.18964097
vn -0.99548620 -0.00017041 0.09490630
vn 0.00000000 0.99549515 0.09481253
vn 0.00000000 0.24306034 0.97001117
vn 0.24273927 0.00000000 0.97009157
vn 0.59221868 0.00000000 0.80577728
vn 0.00000000 0.59143101 0.80635561
vn 0.00000000 0.83091887 0.55639359
vn 0.83193183 0.00000000 0.55487785
vn 0.88843039 0.00000000 0.45901137
vn 0.00000000 0.88893083 0.45804147
vn 0.00000000 0.95913473 0.28294978
vn 0.95913473 0.00000000 0.28294978
vn 0.00000000 0.92846786 0.37141274
vn 0.92791580 0.00000000 0.37278985
vn 0.98185350 0.00000000 0.18964097
vn 0.00000000 0.98185350 0.18964097
vn 0.00000000 0.99549515 0.09481253
vn 0.99549515 0.00000000 0.09481253
vn 0.00000000 0.99971001 0.02408107
vn 0.99971001 0.00000000 0.02408107
vn 0.00000000 0.73512508 0.67793150
vn 0.73467079 0.00000000 0.67842378
vn 0.42525581 0.00000000 0.90507320
vn 0.00000000 0.42548086 0.90496742
vn 0.03687242 0.03676569 0.99864343
vn -0.99971010 0.00000000 -0.02407721
vn 0.00000000 -0.99971010 -0.02407721
vn -0.99969137 0.00000000 0.02484267
vn -0.00018311 -0.99968830 0.02496545
vn -0.99489830 0.00000000 0.10088300
vn -0.00017125 -0.99490874 0.10077978
vn -0.00020236 -0.97960147 0.20095004
vn -0.97946046 0.00000000 0.20163631
vn -0.95399632 0.00000000 0.29981832
vn -0.00015045 -0.95440302 0.29852111
vn -0.91927959 0.00000000 0.39360519
vn -0.00022130 -0.91945086 0.39320488
vn -0.00013217 -0.87554412 0.48313816
vn -0.87556156 0.00000000 0.48310657
vn -0.80373733 0.00000000 0.59498430
vn 0.00000000 -0.80373445 0.59498818
vn -0.68017018 0.00000000 0.73305425
vn 0.00000000 -0.68026235 0.73296872
vn -0.51988215 0.00000000 0.85423800
vn 0.00000000 -0.51979399 0.85429164
vn 0.00000000 -0.33987284 0.94047140
vn -0.33990336 0.00000000 0.94046037
vn -0.14772101 0.00000000 0.98902907
vn 0.00000000 -0.14764004 0.98904116
vn -0.01229098 -0.01229580 0.99984886
vn -0.99489770 0.00000000 -0.10088890
vn -0.00017056 0.99488947 -0.10096988
vn -0.98184591 0.00000000 -0.18968026
vn 0.00020246 0.98201031 -0.18882719
vn 0.00016977 0.99546578 -0.09512016
vn -0.99549586 0.00000000 -0.09480499
vn -0.97945761 0.00000000 -0.20165014
vn -0.00020151 0.97959878 -0.20096315
vn -0.00014981 0.95446756 -0.29831468
vn -0.95399513 0.00000000 -0.29982209
vn 0.00022274 0.92839860 -0.37158577
vn -0.92881271 0.00000000 -0.37054953
vn 0.00014819 0.95953452 -0.28159099
vn -0.95956181 0.00000000 -0.28149801
vn -0.00022190 0.91950007 -0.39308977
vn -0.91927371 0.00000000 -0.39361891
vn -0.87557957 0.00000000 -0.48307392
vn -0.00013253 0.87545677 -0.48329641
vn 0.00024267 0.83184955 -0.55500114
vn -0.83194928 0.00000000 -0.55485170
vn 0.00013018 0.88839050 -0.45908855
vn -0.88842540 0.00000000 -0.45902104
vn -0.80371688 0.00000000 -0.59501191
vn 0.00000000 0.80365097 -0.59510093
vn -0.68015773 0.00000000 -0.73306580
vn 0.00000000 0.68031261 -0.73292207
vn -0.73435875 0.00000000 -0.67876154
vn 0.00000000 0.73450141 -0.67860716
vn -0.59167269 0.00000000 -0.80617829
vn 0.00000000 0.59177228 -0.80610519
vn -0.51991750 0.00000000 -0.85421648
vn 0.00000000 0.51985299 -0.85425574
vn 0.00000000 0.33983605 -0.94048469
vn -0.33986656 0.00000000 -0.94047367
vn 0.00000000 0.42582400 -0.90480601
vn -0.42595920 0.00000000 -0.90474237
vn 0.00000000 0.24265649 -0.97011228
vn -0.24261397 0.00000000 -0.97012291
vn -0.14775831 0.00000000 -0.98902350
vn 0.00000000 0.14767724 -0.98903561
vn -0.01230037 0.01230520 -0.99984863
vn -0.03680479 0.03683679 -0.99864331
vn 0.00000000 -0.24265649 -0.97011228
vn -0.24261397 0.00000000 -0.97012291
vn -0.42595920 0.00000000 -0.90474237
vn 0.00000000 -0.42582400 -0.90480601
vn -0.59167449 0.00000000 -0.80617696
vn 0.00000000 -0.59169543 -0.80616160
vn -0.73436267 0.00000000 -0.67875730
vn 0.00000000 -0.73447292 -0.67863799
vn -0.88842238 0.00000000 -0.45902688
vn 0.00000000 -0.88847222 -0.45893039
vn -0.83194641 0.00000000 -0.55485598
vn 0.00000000 -0.83184498 -0.55500805
vn 0.00000000 -0.92823832 -0.37198605
vn -0.92881442 0.00000000 -0.37054525
vn 0.00000000 -0.95950962 -0.28167585
vn -0.95956369 0.00000000 -0.28149159
vn -0.99549528 0.00000000 -0.09481111
vn 0.00000000 -0.99549528 -0.09481111
vn -0.98184591 0.00000000 -0.18968026
vn 0.00000000 -0.98198229 -0.18897299
vn -0.03680479 -0.03683679 -0.99864331
vn -0.99968840 -0.00018313 -0.02496135
vn 0.00000000 -0.99969148 -0.02483857
vn -0.98184839 0.00000000 0.18966742
vn 0.00000000 -0.98197794 0.18899558
vn 0.00000000 -0.99970856 0.02414117
vn -0.99971003 0.00000000 0.02408009
vn -0.99549532 0.00000000 0.09481069
vn 0.00000000 -0.99548898 0.09487723
vn -0.95912243 0.00000000 0.28299146
vn 0.00000000 -0.95954143 0.28156749
vn -0.92793250 0.00000000 0.37274827
vn 0.00000000 -0.92830924 0.37180903
vn -0.88842009 0.00000000 0.45903132
vn 0.00000000 -0.88846270 0.45894884
vn 0.00000000 -0.83178633 0.55509595
vn -0.83193087 0.00000000 0.55487929
vn -0.73439671 0.00000000 0.67872047
vn 0.00000000 -0.73451907 0.67858804
vn -0.59165828 0.00000000 0.80618886
vn 0.00000000 -0.59172059 0.80614313
vn -0.42594460 0.00000000 0.90474924
vn 0.00000000 -0.42580155 0.90481658
vn -0.24274258 0.00000000 0.97009074
vn 0.00000000 -0.24264763 0.97011449
vn -0.03686809 -0.03679055 0.99864268
vn -0.14775831 0.00000000 -0.98902350
vn 0.00000000 -0.14767724 -0.98903561
vn 0.00000000 -0.33983605 -0.94048469
vn -0.33986656 0.00000000 -0.94047367
vn 0.00000000 -0.51982456 -0.85427304
vn -0.51991272 0.00000000 -0.85421939
vn -0.68015596 0.00000000 -0.73306744
vn 0.00000000 -0.68024813 -0.73298191
vn 0.00000000 -0.80371983 -0.59500793
vn -0.80372269 0.00000000 -0.59500406
vn 0.00000000 -0.87553659 -0.48315182
vn -0.87560833 -0.00013105 -0.48302177
vn -0.95401647 -0.00014998 -0.29975415
vn 0.00000000 -0.95437783 -0.29860166
vn 0.00000000 -0.91952402 -0.39303381
vn -0.91918999 -0.00021930 -0.39381432
vn -0.97942509 -0.00020145 -0.20180794
vn 0.00000000 -0.97963123 -0.20080503
vn -0.99490881 -0.00017127 -0.10077915
vn 0.00000000 -0.99489836 -0.10088238
vn -0.01230037 -0.01230520 -0.99984863
vn 0.00000000 -0.99970865 -0.02413730
vn -0.99971013 0.00000000 -0.02407623
vn 0.00000000 -0.99548898 0.09487723
vn 0.99548637 0.00017041 0.09490446
vn 0.00000000 -0.98197794 0.18899558
vn 0.98187662 0.00020313 0.18952116
vn 0.00000000 -0.99970856 0.02414117
vn 0.99971003 0.00000000 0.02408009
vn 0.95910298 0.00014814 0.28305734
vn 0.00000000 -0.95954143 0.28156749
vn 0.92800462 0.00022284 0.37256861
vn 0.00000000 -0.92830924 0.37180903
vn 0.00000000 -0.88846270 0.45894884
vn 0.88839663 0.00012892 0.45907669
vn 0.00000000 -0.83178633 0.55509595
vn 0.83206520 0.00024041 0.55467779
vn 0.00000000 -0.73447987 0.67863048
vn 0.73468184 0.00000000 0.67841182
vn 0.00000000 -0.59174526 0.80612502
vn 0.59218200 0.00000000 0.80580424
vn 0.42528670 0.00000000 0.90505868
vn 0.00000000 -0.42581866 0.90480852
vn 0.00000000 -0.24264763 0.97011449
vn 0.24274258 0.00000000 0.97009074
vn 0.03686809 -0.03679055 0.99864268
vn -0.03689619 -0.03681860 -0.99864061
vn -0.24270991 0.00000000 -0.97009891
vn 0.00000000 -0.24261499 -0.97012266
vn -0.42595871 0.00000000 -0.90474260
vn 0.00000000 -0.42581564 -0.90480995
vn 0.00000000 -0.59173648 -0.80613147
vn -0.59167417 0.00000000 -0.80617720
vn -0.73436053 0.00000000 -0.67875962
vn 0.00000000 -0.73448290 -0.67862720
vn -0.83208165 0.00024010 -0.55465310
vn 0.00000000 -0.83180299 -0.55507098
vn 0.00000000 -0.88846573 -0.45894297
vn -0.88839968 0.00012876 -0.45907079
vn -0.92799985 0.00022278 -0.37258050
vn 0.00000000 -0.92830451 -0.37182085
vn 0.00000000 -0.95953819 -0.28157853
vn -0.95909971 0.00014810 -0.28306841
vn 0.00000000 -0.98197574 -0.18900698
vn -0.98187442 0.00020319 -0.18953255
vn 0.00000000 -0.99548912 -0.09487580
vn -0.99548650 0.00017046 -0.09490307
vn 0.00000000 -0.99970865 -0.02413730
vn 0.99971013 0.00000000 -0.02407623
vn 0.00000000 -0.99969137 0.02484267
vn 0.99968830 -0.00018311 0.02496545
vn 0.00000000 -0.99489830 0.10088300
vn 0.99490874 -0.00017125 0.10077978
vn 0.00000000 -0.97963405 0.20079126
vn 0.97942794 -0.00020149 0.20179413
vn 0.00000000 -0.95438037 0.29859355
vn 0.95401904 -0.00015002 0.29974599
vn 0.91919845 -0.00021954 0.39379457
vn 0.00000000 -0.91953255 0.39301385
vn 0.87558863 -0.00013119 0.48305748
vn 0.00000000 -0.87551685 0.48318760
vn 0.00000000 -0.80373445 0.59498818
vn 0.80373733 0.00000000 0.59498430
vn 0.00000000 -0.68028008 0.73295226
vn 0.68081547 0.00000000 0.73245498
vn 0.00000000 -0.51982476 0.85427292
vn 0.51959134 0.00000000 0.85441491
vn 0.00000000 -0.33982397 0.94048906
vn 0.33970202 0.00000000 0.94053311
vn 0.00000000 -0.14764004 0.98904116
vn 0.14772101 0.00000000 0.98902907
vn 0.01229098 -0.01229580 0.99984886
vn 0.00000000 0.98185129 -0.18965241
vn -0.98185129 0.00000000 -0.18965241
vn 0.00000000 0.99549528 -0.09481111
vn -0.99549528 0.00000000 -0.09481111
vn 0.00000000 0.92846315 -0.37142452
vn -0.92791104 0.00000000 -0.37280170
vn 0.00000000 0.95913145 -0.28296087
vn -0.95913145 0.00000000 -0.28296087
vn 0.00000000 0.88893393 -0.45803544
vn -0.88843340 0.00000000 -0.45900556
vn -0.83194847 0.00000000 -0.55485290
vn 0.00000000 0.83093568 -0.55636849
vn -0.73434940 0.00000000 -0.67877166
vn 0.00000000 0.73512844 -0.67792785
vn 0.00000000 0.59142218 -0.80636208
vn -0.59171048 0.00000000 -0.80615055
vn 0.00000000 0.42547792 -0.90496881
vn -0.42592767 0.00000000 -0.90475722
vn 0.00000000 0.24302760 -0.97001937
vn -0.24270661 0.00000000 -0.97009974
vn -0.03690053 0.03679372 -0.99864136
vn 0.99971010 0.00000000 -0.02407721
vn 0.00000000 0.99971010 -0.02407721
vn 0.00000000 0.14764004 0.98904116
vn 0.14772101 0.00000000 0.98902907
vn 0.00000000 0.33982397 0.94048906
vn 0.33970202 0.00000000 0.94053311
vn 0.00000000 0.51985321 0.85425561
vn 0.51959618 0.00000000 0.85441197
vn 0.00000000 0.68034454 0.73289243
vn 0.68081723 0.00000000 0.73245334
vn 0.00000000 0.80366559 0.59508119
vn 0.80373152 0.00000000 0.59499213
vn 0.87555984 0.00000000 0.48310968
vn 0.00013267 0.87543704 0.48333215
vn 0.91928225 0.00000000 0.39359896
vn 0.00022214 0.91950852 0.39307001
vn 0.00014984 0.95447010 0.29830656
vn 0.95399770 0.00000000 0.29981394
vn 0.00020155 0.97960160 0.20094940
vn 0.97946046 0.00000000 0.20163631
vn 0.00017054 0.99488940 0.10097054
vn 0.99489764 0.00000000 0.10088952
vn 0.99969130 0.00000000 0.02484574
vn 0.00018236 0.99968313 0.02517158
vn 0.01229098 0.01229580 0.99984886
vn 0.03677675 0.03680873 0.99864538
vn 0.03677675 -0.03680873 0.99864538
vn 0.00000000 0.24268916 0.97010410
vn 0.24264664 0.00000000 0.97011474
vn 0.00000000 0.42580991 0.90481265
vn 0.42594509 0.00000000 0.90474901
vn 0.00000000 0.59175639 0.80611685
vn 0.59165679 0.00000000 0.80618995
vn 0.00000000 0.73453759 0.67856800
vn 0.73439493 0.00000000 0.67872239
vn -0.00024297 0.83183306 0.55502585
vn 0.83193263 0.00000000 0.55487665
vn -0.00013034 0.88838744 0.45909448
vn 0.88842238 0.00000000 0.45902688
vn 0.92881743 0.00000000 0.37053770
vn -0.00022280 0.92840336 0.37157389
vn 0.95956507 0.00000000 0.28148691
vn -0.00014824 0.95953775 0.28157998
vn 0.98184813 0.00000000 0.18966881
vn -0.00020239 0.98201249 0.18881584
vn -0.00016971 0.99546565 0.09512158
vn 0.99549573 0.00000000 0.09480640
vn 0.99971009 0.00000000 0.02407780
vn 0.00000000 0.99970516 0.02428139
vn 0.00000000 0.99968632 -0.02504517
vn 0.99968832 0.00018315 -0.02496448
vn 0.99548633 -0.00017047 -0.09490491
vn 0.00000000 0.99549528 -0.09481111
vn 0.00000000 0.98185129 -0.18965241
vn 0.98187954 -0.00020329 -0.18950603
vn 0.00000000 0.95913145 -0.28296087
vn 0.95911206 -0.00014794 -0.28302658
vn 0.00000000 0.92846315 -0.37142452
vn 0.92798318 -0.00022262 -0.37262201
vn 0.00000000 0.88893393 -0.45803544
vn 0.88841006 -0.00012868 -0.45905071
vn 0.00000000 0.83093568 -0.55636849
vn 0.83208300 -0.00024010 -0.55465108
vn 0.73463462 0.00000000 -0.67846295
vn 0.00000000 0.73508898 -0.67797064
vn 0.59223455 0.00000000 -0.80576562
vn 0.00000000 0.59144689 -0.80634396
vn 0.42526986 0.00000000 -0.90506660
vn 0.00000000 0.42549493 -0.90496081
vn 0.24270661 0.00000000 -0.97009974
vn 0.00000000 0.24302760 -0.97001937
vn 0.03690053 0.03679372 -0.99864136
vn 0.00000000 -0.99549515 0.09481253
vn 0.99549515 0.00000000 0.09481253
vn 0.98184813 0.00000000 0.18966881
vn 0.00000000 -0.98198448 0.18896160
vn 0.99971001 0.00000000 0.02408107
vn 0.00000000 -0.99971001 0.02408107
vn 0.92881913 0.00000000 0.37053342
vn 0.00000000 -0.92824306 0.37197421
vn 0.95956695 0.00000000 0.28148049
vn 0.00000000 -0.95951286 0.28166483
vn 0.00000000 -0.88846919 0.45893626
vn 0.88841936 0.00000000 0.45903273
vn 0.00000000 -0.83182832 0.55503301
vn 0.83192978 0.00000000 0.55488093
vn 0.73439885 0.00000000 0.67871815
vn 0.00000000 -0.73450910 0.67859884
vn 0.00000000 -0.59167954 0.80617326
vn 0.59165860 0.00000000 0.80618862
vn 0.00000000 -0.42580991 0.90481265
vn 0.42594509 0.00000000 0.90474901
vn 0.24264664 0.00000000 0.97011474
vn 0.00000000 -0.24268916 0.97010410
vn 0.00018313 -0.99968840 -0.02496135
vn 0.99969148 0.00000000 -0.02483857
vn 0.24270991 0.00000000 -0.97009891
vn 0.00000000 -0.24261499 -0.97012266
vn 0.00000000 -0.59176114 -0.80611336
vn 0.59219787 0.00000000 -0.80579258
vn 0.83194751 0.00000000 -0.55485434
vn 0.00000000 -0.83180299 -0.55507098
vn 0.88842310 0.00000000 -0.45902548
vn 0.00000000 -0.88846573 -0.45894297
vn 0.92792775 0.00000000 -0.37276010
vn 0.00000000 -0.92830451 -0.37182085
vn 0.95911916 0.00000000 -0.28300255
vn 0.00000000 -0.95953819 -0.28157853
vn 0.00000000 -0.98197574 -0.18900698
vn 0.98184618 0.00000000 -0.18967886
vn 0.00000000 -0.99548912 -0.09487580
vn 0.99549546 0.00000000 -0.09480927
vn 0.00000000 -0.73444371 -0.67866961
vn 0.73464566 0.00000000 -0.67845100
vn 0.00000000 -0.42583277 -0.90480189
vn 0.42530076 0.00000000 -0.90505208
vn 0.03689619 -0.03681860 -0.99864061
vn 0.00000000 -0.99971010 -0.02407721
vn 0.99971010 0.00000000 -0.02407721
vn 0.14775831 0.00000000 -0.98902350
vn 0.00000000 -0.14767724 -0.98903561
vn 0.00000000 -0.33978715 -0.94050236
vn 0.33966523 0.00000000 -0.94054640
vn 0.51962189 0.00000000 -0.85439633
vn 0.00000000 -0.51985532 -0.85425432
vn 0.00000000 -0.68026586 -0.73296546
vn 0.68080128 0.00000000 -0.73246817
vn 0.00000000 -0.80371983 -0.59500793
vn 0.80372269 0.00000000 -0.59500406
vn 0.00013203 -0.87556383 -0.48310243
vn 0.87558129 0.00000000 -0.48307082
vn 0.91927104 0.00000000 -0.39362514
vn 0.00022107 -0.91944241 -0.39322464
vn 0.00015041 -0.95440048 -0.29852923
vn 0.95399376 0.00000000 -0.29982646
vn 0.97945761 0.00000000 -0.20165014
vn 0.00020233 -0.97959865 -0.20096379
vn 0.00017127 -0.99490881 -0.10077915
vn 0.99489836 0.00000000 -0.10088238
vn 0.01230037 -0.01230520 -0.99984863
vn 0.99971018 0.00000000 -0.02407394
vn 0.00000000 0.99970526 -0.02427750
vn 0.03680479 -0.03683679 -0.99864331
vn 0.00000000 -0.24265649 -0.97011228
vn 0.24261397 0.00000000 -0.97012291
vn 0.42595920 0.00000000 -0.90474237
vn 0.00000000 -0.42582400 -0.90480601
vn 0.00000000 -0.59169543 -0.80616160
vn 0.59167449 0.00000000 -0.80617696
vn 0.00000000 -0.73447292 -0.67863799
vn 0.73436267 0.00000000 -0.67875730
vn -0.00024181 -0.83198005 -0.55480550
vn 0.83194641 0.00000000 -0.55485598
vn -0.00012971 -0.88844862 -0.45897607
vn 0.88842238 0.00000000 -0.45902688
vn 0.92881442 0.00000000 -0.37054525
vn -0.00022361 -0.92831038 -0.37180611
vn -0.00014878 -0.95949013 -0.28174219
vn 0.95956369 0.00000000 -0.28149159
vn 0.98184591 0.00000000 -0.18968026
vn -0.00020329 -0.98201043 -0.18882659
vn -0.00017047 -0.99548633 -0.09490491
vn 0.99549528 0.00000000 -0.09481111
vn 0.01230037 0.01230520 -0.99984863
vn 0.03680479 0.03683679 -0.99864331
vn 0.00000000 0.99487904 -0.10107269
vn 0.99490814 0.00017124 -0.10078572
vn 0.00000000 0.97963123 -0.20080503
vn 0.97942509 0.00020146 -0.20180794
vn 0.95401785 0.00015000 -0.29974977
vn 0.00000000 0.95444502 -0.29838682
vn 0.00000000 0.91958197 -0.39289821
vn 0.91919267 0.00021928 -0.39380807
vn 0.87560661 0.00013104 -0.48302489
vn 0.00000000 0.87542942 -0.48334598
vn 0.00000000 0.80365097 -0.59510093
vn 0.80371688 0.00000000 -0.59501191
vn 0.68080304 0.00000000 -0.73246654
vn 0.00000000 0.68033032 -0.73290563
vn 0.00000000 0.51988377 -0.85423701
vn 0.51962673 0.00000000 -0.85439339
vn 0.33966523 0.00000000 -0.94054640
vn 0.00000000 0.33978715 -0.94050236
vn 0.14775831 0.00000000 -0.98902350
vn 0.00000000 0.14767724 -0.98903561
vn 0.99549586 0.00000000 -0.09480499
vn 0.00000000 0.99547472 -0.09502674
vn 0.98184591 0.00000000 -0.18968026
vn 0.00000000 0.98198229 -0.18897299
vn 0.92881271 0.00000000 -0.37054953
vn 0.00000000 0.92832686 -0.37176504
vn 0.95956181 0.00000000 -0.28149801
vn 0.00000000 0.95955392 -0.28152491
vn 0.88842540 0.00000000 -0.45902104
vn 0.00000000 0.88841420 -0.45904271
vn 0.00000000 0.83171396 -0.55520436
vn 0.83194928 0.00000000 -0.55485170
vn 0.00000000 0.73450141 -0.67860716
vn 0.73435875 0.00000000 -0.67876154
vn 0.00000000 0.59177228 -0.80610519
vn 0.59167269 0.00000000 -0.80617829
vn 0.00000000 0.42582400 -0.90480601
vn 0.42595920 0.00000000 -0.90474237
vn 0.00000000 0.24265649 -0.97011228
vn 0.24261397 0.00000000 -0.97012291
f 1//1 3//3 5//5
f 5//5 7//7 1//1
f 4//4 10//10 12//12
f 12//12 6//6 4//4
f 13//13 14//14 16//16
f 18//18 16//16 19//19
f 21//21 23//23 26//26
f 23//23 21//21 27//27
f 29//29 31//31 33//33
f 31//31 29//29 35//35
f 35//35 38//38 39//39
f 35//35 39//39 31//31
f 42//42 44//44 38//38
f 42//42 46//46 44//44
f 38//38 48//48 42//42
f 46//46 49//49 51//51
f 51//51 12//12 53//53
f 51//51 53//53 46//46
f 51//51 6//6 12//12
f 42//42 49//49 46//46
f 35//35 48//48 38//38
f 33//33 27//27 29//29
f 27//27 33//33 23//23
f 26//26 19//19 21//21
f 19//19 26//26 18//18
f 16//16 18//18 13//13
f 17//17 56//56 57//57
f 25//25 59//59 56//56
f 24//24 60//60 59//59
f 62//62 60//60 24//24
f 32//32 64//64 62//62
f 40//40 67//67 64//64
f 64//64 32//32 40//40
f 37//37 68//68 67//67
f 43//43 71//71 68//68
f 68//68 37//37 43//43
f 45//45 73//73 71//71
f 54//54 75//75 73//73
f 54//54 77//77 75//75
f 73//73 45//45 54//54
f 54//54 11//11 77//77
f 43//43 45//45 71//71
f 40//40 37//37 67//67
f 62//62 34//34 32//32
f 24//24 34//34 62//62
f 59//59 25//25 24//24
f 56//56 17//17 25//25
f 57//57 13//13 17//17
f 78//78 80//80 15//15
f 80//80 82//82 20//20
f 82//82 83//83 22//22
f 28//28 22//22 83//83
f 85//85 87//87 30//30
f 47//47 36//36 87//87
f 87//87 89//89 47//47
f 89//89 91//91 47//47
f 50//50 41//41 91//91
f 91//91 93//93 50//50
f 93//93 95//95 50//50
f 5//5 52//52 95//95
f 95//95 97//97 5//5
f 97//97 7//7 5//5
f 52//52 50//50 95//95
f 41//41 47//47 91//91
f 36//36 30//30 87//87
f 30//30 28//28 85//85
f 83//83 85//85 28//28
f 22//22 20//20 82//82
f 20//20 15//15 80//80
f 15//15 14//14 78//78
f 99//99 79//79 78//78
f 81//81 79//79 99//99
f 102//102 84//84 81//81
f 86//86 84//84 102//102
f 103//103 88//88 86//86
f 90//90 88//88 103//103
f 106//106 92//92 90//90
f 103//103 106//106 90//90
f 107//107 94//94 92//92
f 107//107 96//96 94//94
f 92//92 109//109 107//107
f 98//98 96//96 112//112
f 113//113 8//8 98//98
f 112//112 113//113 98//98
f 113//113 115//115 8//8
f 107//107 112//112 96//96
f 106//106 109//109 92//92
f 86//86 117//117 103//103
f 102//102 117//117 86//86
f 81//81 120//120 102//102
f 99//99 120//120 81//81
f 78//78 121//121 99//99
f 9//9 122//122 77//77
f 77//77 11//11 9//9
f 125//125 127//127 72//72
f 72//72 74//74 125//125
f 74//74 76//76 125//125
f 128//128 131//131 69//69
f 69//69 70//70 128//128
f 70//70 72//72 128//128
f 133//133 134//134 65//65
f 65//65 66//66 133//133
f 66//66 69//69 133//133
f 137//137 139//139 63//63
f 139//139 141//141 61//61
f 141//141 142//142 58//58
f 55//55 58//58 142//142
f 145//145 146//146 57//57
f 57//57 55//55 145//145
f 142//142 145//145 55//55
f 58//58 61//61 141//141
f 61//61 63//63 139//139
f 63//63 65//65 137//137
f 134//134 137//137 65//65
f 131//131 133//133 69//69
f 127//127 128//128 72//72
f 4//4 148//148 150//150
f 150//150 151//151 4//4
f 151//151 10//10 4//4
f 154//154 155//155 157//157
f 157//157 159//159 154//154
f 159//159 150//150 154//154
f 161//161 164//164 165//165
f 165//165 167//167 161//161
f 167//167 157//157 161//161
f 170//170 172//172 174//174
f 176//176 174//174 172//172
f 178//178 179//179 181//181
f 183//183 181//181 179//179
f 186//186 187//187 188//188
f 188//188 183//183 186//186
f 179//179 186//186 183//183
f 181//181 176//176 178//178
f 172//172 178//178 176//176
f 174//174 165//165 170//170
f 164//164 170//170 165//165
f 155//155 161//161 157//157
f 148//148 154//154 150//150
f 190//190 184//184 188//188
f 191//191 182//182 184//184
f 193//193 175//175 182//182
f 195//195 173//173 175//175
f 166//166 173//173 195//195
f 197//197 168//168 166//166
f 197//197 158//158 168//168
f 166//166 199//199 197//197
f 160//160 158//158 202//202
f 204//204 149//149 160//160
f 202//202 204//204 160//160
f 205//205 152//152 149//149
f 149//149 207//207 205//205
f 122//122 9//9 152//152
f 205//205 122//122 152//152
f 204//204 207//207 149//149
f 197//197 202//202 158//158
f 195//195 199//199 166//166
f 175//175 193//193 195//195
f 182//182 191//191 193//193
f 184//184 190//190 191//191
f 188//188 209//209 190//190
f 123//123 211//211 125//125
f 125//125 76//76 123//123
f 212//212 129//129 126//126
f 126//126 215//215 216//216
f 126//126 216//216 212//212
f 130//130 218//218 220//220
f 130//130 212//212 218//218
f 220//220 132//132 130//130
f 135//135 222//222 225//225
f 135//135 220//220 222//222
f 225//225 136//136 135//135
f 226//226 138//138 136//136
f 138//138 226//226 228//228
f 230//230 143//143 140//140
f 143//143 230//230 232//232
f 144//144 232//232 234//234
f 234//234 146//146 144//144
f 232//232 144//144 143//143
f 140//140 228//228 230//230
f 228//228 140//140 138//138
f 136//136 225//225 226//226
f 135//135 132//132 220//220
f 130//130 129//129 212//212
f 126//126 124//124 215//215
f 236//236 189//189 209//209
f 189//189 236//236 237//237
f 239//239 194//194 192//192
f 242//242 196//196 194//194
f 196//196 242//242 243//243
f 200//200 243//243 245//245
f 245//245 201//201 198//198
f 245//245 198//198 200//200
f 248//248 203//203 201//201
f 248//248 208//208 203//203
f 201//201 249//249 248//248
f 208//208 252//252 254//254
f 254//254 123//123 206//206
f 254//254 206//206 208//208
f 254//254 211//211 123//123
f 248//248 252//252 208//208
f 245//245 249//249 201//201
f 243//243 200//200 196//196
f 194//194 239//239 242//242
f 192//192 237//237 239//239
f 237//237 192//192 189//189
f 209//209 255//255 236//236
f 210//210 257//257 215//215
f 215//215 124//124 210//210
f 217//217 258//258 260//260
f 260//260 213//213 217//217
f 214//214 262//262 258//258
f 265//265 267//267 221//221
f 221//221 219//219 265//265
f 213//213 260//260 265//265
f 223//223 268//268 270//270
f 270//270 224//224 223//223
f 221//221 267//267 268//268
f 270//270 272//272 227//227
f 227//227 272//272 274//274
f 274//274 277//277 231//231
f 231//231 277//277 278//278
f 278//278 280//280 234//234
f 234//234 233//233 278//278
f 278//278 233//233 231//231
f 231//231 229//229 274//274
f 274//274 229//229 227//227
f 227//227 224//224 270//270
f 223//223 221//221 268//268
f 219//219 213//213 265//265
f 217//217 214//214 258//258
f 281//281 282//282 235//235
f 238//238 235//235 282//282
f 284//284 287//287 240//240
f 241//241 240//240 287//287
f 288//288 290//290 244//244
f 250//250 246//246 290//290
f 290//290 293//293 250//250
f 293//293 294//294 250//250
f 251//251 247//247 294//294
f 294//294 297//297 251//251
f 297//297 299//299 251//251
f 210//210 253//253 299//299
f 299//299 301//301 210//210
f 301//301 257//257 210//210
f 253//253 251//251 299//299
f 247//247 250//250 294//294
f 246//246 244//244 290//290
f 244//244 241//241 288//288
f 287//287 288//288 241//241
f 240//240 238//238 284//284
f 282//282 284//284 238//238
f 235//235 255//255 281//281
f 256//256 302//302 262//262
f 262//262 214//214 256//256
f 305//305 307//307 261//261
f 261//261 259//259 305//305
f 259//259 263//263 305//305
f 309//309 311//311 266//266
f 266//266 264//264 309//309
f 264//264 261//261 309//309
f 312//312 314//314 271//271
f 271//271 269//269 312//312
f 269//269 266//266 312//312
f 317//317 319//319 273//273
f 275//275 273//273 319//319
f 321//321 323//323 276//276
f 279//279 276//276 323//323
f 325//325 326//326 280//280
f 280//280 279//279 325//325
f 323//323 325//325 279//279
f 276//276 275//275 321//321
f 319//319 321//321 275//275
f 273//273 271//271 317//317
f 314//314 317//317 271//271
f 311//311 312//312 266//266
f 307//307 309//309 261//261
f 328//328 153//153 147//147
f 147//147 1//1 330//330
f 147//147 330//330 328//328
f 332//332 162//162 156//156
f 156//156 328//328 334//334
f 156//156 334//334 332//332
f 163//163 336//336 337//337
f 163//163 332//332 336//336
f 337//337 169//169 163//163
f 339//339 171//171 169//169
f 171//171 339//339 342//342
f 177//177 342//342 344//344
f 346//346 185//185 180//180
f 347//347 187//187 185//185
f 185//185 346//346 347//347
f 180//180 344//344 346//346
f 344//344 180//180 177//177
f 342//342 177//177 171//171
f 169//169 337//337 339//339
f 163//163 162//162 332//332
f 156//156 153//153 328//328
f 147//147 3//3 1//1
f 349//349 2//2 8//8
f 8//8 115//115 349//349
f 351//351 100//100 121//121
f 100//100 351//351 353//353
f 355//355 101//101 119//119
f 101//101 355//355 357//357
f 359//359 104//104 118//118
f 360//360 105//105 104//104
f 360//360 110//110 105//105
f 104//104 359//359 360//360
f 110//110 362//362 365//365
f 365//365 111//111 108//108
f 365//365 108//108 110//110
f 111//111 367//367 369//369
f 369//369 116//116 114//114
f 369//369 114//114 111//111
f 369//369 370//370 116//116
f 365//365 367//367 111//111
f 360//360 362//362 110//110
f 118//118 357//357 359//359
f 357//357 118//118 101//101
f 119//119 353//353 355//355
f 353//353 119//119 100//100
f 121//121 372//372 351//351
f 78//78 14//14 372//372
f 280//280 326//326 146//146
f 14//14 326//326 372//372
f 373//373 372//372 326//326
f 326//326 14//14 146//146
f 57//57 146//146 14//14
f 326//326 374//374 373//373
f 14//14 13//13 57//57
f 146//146 234//234 280//280
f 372//372 121//121 78//78
f 373//373 375//375 350//350
f 352//352 350//350 375//375
f 377//377 379//379 354//354
f 356//356 354//354 379//379
f 381//381 383//383 358//358
f 363//363 361//361 383//383
f 383//383 385//385 363//363
f 385//385 388//388 363//363
f 366//366 364//364 388//388
f 388//388 390//390 366//366
f 390//390 392//392 366//366
f 371//371 368//368 392//392
f 392//392 393//393 371//371
f 393//393 396//396 371//371
f 368//368 366//366 392//392
f 364//364 363//363 388//388
f 361//361 358//358 383//383
f 358//358 356//356 381//381
f 379//379 381//381 356//356
f 354//354 352//352 377//377
f 375//375 377//377 352//352
f 350//350 372//372 373//373
f 398//398 348//348 116//116
f 116//116 370//370 398//398
f 329//329 400//400 401//401
f 401//401 327//327 329//329
f 2//2 349//349 400//400
f 403//403 405//405 331//331
f 331//331 333//333 403//403
f 327//327 401//401 403//403
f 335//335 407//407 409//409
f 335//335 405//405 407//407
f 409//409 338//338 335//335
f 409//409 412//412 340//340
f 340//340 412//412 414//414
f 341//341 414//414 416//416
f 343//343 416//416 418//418
f 418//418 419//419 347//347
f 347//347 345//345 418//418
f 418//418 345//345 343//343
f 416//416 343//343 341//341
f 414//414 341//341 340//340
f 340//340 338//338 409//409
f 335//335 331//331 405//405
f 333//333 327//327 403//403
f 329//329 2//2 400//400
f 306//306 420//420 423//423
f 306//306 425//425 420//420
f 423//423 308//308 306//306
f 427//427 313//313 310//310
f 310//310 423//423 429//429
f 310//310 429//429 427//427
f 315//315 430//430 432//432
f 315//315 427//427 430//430
f 432//432 316//316 315//315
f 435//435 318//318 316//316
f 318//318 435//435 436//436
f 438//438 322//322 320//320
f 322//322 438//438 441//441
f 324//324 441//441 374//374
f 374//374 326//326 324//324
f 441//441 324//324 322//322
f 320//320 436//436 438//438
f 436//436 320//320 318//318
f 316//316 432//432 435//435
f 315//315 313//313 427//427
f 310//310 308//308 423//423
f 306//306 304//304 425//425
f 303//303 443//443 305//305
f 305//305 263//263 303//303
f 445//445 283//283 281//281
f 285//285 283//283 445//445
f 446//446 286//286 285//285
f 289//289 286//286 446//446
f 449//449 291//291 289//289
f 292//292 291//291 449//449
f 449//449 451//451 292//292
f 453//453 295//295 292//292
f 455//455 296//296 295//295
f 455//455 298//298 296//296
f 295//295 453//453 455//455
f 300//300 298//298 456//456
f 458//458 256//256 300//300
f 456//456 458//458 300//300
f 458//458 302//302 256//256
f 455//455 456//456 298//298
f 451//451 453//453 292//292
f 289//289 460//460 449//449
f 446//446 460//460 289//289
f 285//285 462//462 446//446
f 445//445 462//462 285//285
f 281//281 464//464 445//445
f 440//440 376//376 373//373
f 439//439 378//378 376//376
f 437//437 380//380 378//378
f 434//434 382//382 380//380
f 433//433 384//384 382//382
f 431//431 386//386 384//384
f 384//384 433//433 431//431
f 426//426 387//387 386//386
f 428//428 389//389 387//387
f 387//387 426//426 428//428
f 422//422 391//391 389//389
f 421//421 394//394 391//391
f 391//391 422//422 421//421
f 424//424 395//395 394//394
f 421//421 424//424 394//394
f 428//428 422//422 389//389
f 431//431 426//426 386//386
f 382//382 434//434 433//433
f 380//380 437//437 434//434
f 378//378 439//439 437//437
f 376//376 440//440 439//439
f 373//373 374//374 440//440
f 442//442 465//465 425//425
f 425//425 304//304 442//442
f 467//467 444//444 464//464
f 444//444 467//467 470//470
f 471//471 447//447 463//463
f 474//474 461//461 447//447
f 461//461 474//474 476//476
f 478//478 450//450 448//448
f 478//478 452//452 450//450
f 448//448 476//476 478//478
f 452//452 479//479 482//482
f 482//482 457//457 454//454
f 482//482 454//454 452//452
f 457//457 483//483 486//486
f 486//486 303//303 459//459
f 486//486 459//459 457//457
f 486//486 443//443 303//303
f 482//482 483//483 457//457
f 478//478 479//479 452//452
f 476//476 448//448 461//461
f 447//447 471//471 474//474
f 463//463 470//470 471//471
f 470//470 463//463 444//444
f 464//464 487//487 467//467
f 466//466 488//488 395//395
f 395//395 424//424 466//466
f 490//490 491//491 468//468
f 469//469 468//468 491//491
f 494//494 495//495 472//472
f 495//495 497//497 473//473
f 475//475 473//473 497//497
f 480//480 477//477 499//499
f 499//499 501//501 480//480
f 501//501 504//504 480//480
f 484//484 481//481 504//504
f 504//504 505//505 484//484
f 505//505 508//508 484//484
f 442//442 485//485 508//508
f 508//508 509//509 442//442
f 509//509 465//465 442//442
f 485//485 484//484 508//508
f 481//481 480//480 504//504
f 477//477 475//475 499//499
f 497//497 499//499 475//475
f 473//473 472//472 495//495
f 472//472 469//469 494//494
f 491//491 494//494 469//469
f 468//468 487//487 490//490
f 419//419 511//511 187//187
f 281//281 255//255 487//487
f 511//511 255//255 187//187
f 188//188 187//187 255//255
f 255//255 511//511 487//487
f 490//490 487//487 511//511
f 255//255 209//209 188//188
f 511//511 512//512 490//490
f 487//487 464//464 281//281
f 187//187 347//347 419//419
f 489//489 397//397 371//371
f 371//371 396//396 489//489
f 398//398 514//514 402//402
f 402//402 399//399 398//398
f 399//399 348//348 398//398
f 516//516 517//517 406//406
f 406//406 404//404 516//516
f 404//404 402//402 516//516
f 520//520 521//521 410//410
f 410//410 408//408 520//520
f 408//408 406//406 520//520
f 524//524 525//525 411//411
f 413//413 411//411 525//525
f 528//528 529//529 415//415
f 417//417 415//415 529//529
f 531//531 511//511 419//419
f 419//419 417//417 531//531
f 529//529 531//531 417//417
f 415//415 413//413 528//528
f 525//525 528//528 413//413
f 411//411 410//410 524//524
f 521//521 524//524 410//410
f 517//517 520//520 406//406
f 514//514 516//516 402//402
f 513//513 534//534 536//536
f 513//513 489//489 534//534
f 536//536 515//515 513//513
f 538//538 519//519 518//518
f 518//518 536//536 540//540
f 518//518 540//540 538//538
f 522//522 542//542 543//543
f 522//522 538//538 542//542
f 543//543 523//523 522//522
f 545//545 526//526 523//523
f 526//526 545//545 547//547
f 549//549 530//530 527//527
f 530//530 549//549 551//551
f 512//512 511//511 532//532
f 532//532 551//551 512//512
f 551//551 532//532 530//530
f 527//527 547//547 549//549
f 547//547 527//527 526//526
f 523//523 543//543 545//545
f 522//522 519//519 538//538
f 518//518 515//515 536//536
f 513//513 397//397 489//489
f 552//552 492//492 490//490
f 550//550 493//493 492//492
f 548//548 496//496 493//493
f 498//498 496//496 548//548
f 544//544 500//500 498//498
f 502//502 500//500 544//544
f 544//544 541//541 502//502
f 537//537 503//503 502//502
f 539//539 506//506 503//503
f 503//503 537//537 539//539
f 535//535 507//507 506//506
f 510//510 507//507 535//535
f 533//533 466//466 510//510
f 535//535 533//533 510//510
f 533//533 488//488 466//466
f 539//539 535//535 506//506
f 541//541 537//537 502//502
f 498//498 546//546 544//544
f 548//548 546//546 498//498
f 493//493 550//550 548//548
f 492//492 552//552 550//550
f 490//490 512//512 552//552

