# https://github.com/mikedh/trimesh
v 0.01477286 0.00709926 0.01980970
v 0.01477286 -0.00834744 0.01867850
v 0.01477286 0.00864256 -0.00749998
v 0.00864300 0.01250007 -0.00749998
v 0.00340921 -0.00568178 0.02000000
v 0.00834700 0.01250007 0.01867850
v 0.01477286 -0.00709934 0.01980970
v 0.00864300 -0.01477270 -0.00749998
v 0.01477266 0.00833512 0.01869891
v 0.00340921 0.01250007 0.02000000
v 0.01022740 -0.00709934 0.01980970
v 0.01477286 -0.00864264 -0.00749998
v 0.00864300 -0.01477270 0.00159094
v 0.00709900 0.01250007 0.01980970
v 0.01022740 -0.00834744 0.01867850
vn 0.69613572 0.16501994 0.69868696
vn 0.66068266 -0.63530111 0.39986363
vn 0.69204582 0.38392841 -0.61128680
vn -0.33220732 0.71723254 -0.61254860
vn -0.70799395 -0.35477860 0.61063631
vn 0.33176321 0.92094978 0.20441301
vn 0.63740270 -0.28112627 0.71741607
vn -0.25797778 -0.75833113 -0.59864962
vn 0.81447189 0.51353683 0.27002863
vn -0.62649462 0.56903366 0.53263983
vn -0.03450983 -0.43745197 0.89857935
vn 0.71780976 -0.29774393 -0.62936294
vn -0.12727523 -0.99005499 0.05993436
vn 0.12290837 0.73100256 0.67121441
vn -0.10618604 -0.83221802 0.54418534
f 6//6 3//3 4//4
f 8//8 4//4 3//3
f 9//9 1//1 3//3
f 9//9 3//3 6//6
f 10//10 7//7 1//1
f 10//10 5//5 7//7
f 10//10 6//6 4//4
f 10//10 8//8 5//5
f 10//10 4//4 8//8
f 11//11 7//7 5//5
f 11//11 2//2 7//7
f 12//12 8//8 3//3
f 12//12 7//7 2//2
f 12//12 3//3 1//1
f 12//12 1//1 7//7
f 13//13 5//5 8//8
f 13//13 12//12 2//2
f 13//13 8//8 12//12
f 14//14 9//9 6//6
f 14//14 1//1 9//9
f 14//14 10//10 1//1
f 14//14 6//6 10//10
f 15//15 11//11 5//5
f 15//15 5//5 13//13
f 15//15 13//13 2//2
f 15//15 2//2 11//11

