# https://github.com/mikedh/trimesh
v -0.05907697 0.00871635 -0.01041612
v -0.05877452 -0.02345511 -0.01035249
v -0.05780303 -0.00321529 -0.02124993
v -0.06603408 0.00859785 -0.02042907
v -0.07437788 0.00768469 -0.01018968
v -0.06852984 -0.02049717 -0.01860997
v -0.05699983 0.01025628 -0.01730137
v -0.06103984 -0.02533203 -0.01029454
v -0.05893840 -0.02000615 -0.01868245
v -0.06658810 -0.01425616 -0.02097791
v -0.07446901 0.00868570 -0.01038524
v -0.05789587 -0.00309471 -0.01041612
v -0.07079635 -0.02154774 -0.01039648
v -0.05837736 -0.01316597 -0.02080557
v -0.06448620 -0.02446670 -0.01761130
v -0.05912663 -0.02314801 -0.01585600
v -0.07237112 0.00891351 -0.01698591
v -0.06812063 -0.02581613 -0.01036448
v -0.07060000 -0.01799693 -0.01673756
v -0.06070815 -0.01572119 -0.02080538
v -0.06558204 -0.01978284 -0.01991577
v -0.05988639 -0.02406402 -0.01475884
v -0.06068755 -0.02248672 -0.01835179
v -0.07432678 0.00888003 -0.01138182
v -0.06796858 0.00874353 -0.01978249
v -0.06792178 -0.01895184 -0.01956709
v -0.06402580 -0.02525979 -0.01596316
v -0.06964900 -0.02317526 -0.01532696
v -0.07057749 -0.02040424 -0.01487397
v -0.06007040 -0.01920705 -0.01958446
v -0.06365504 -0.02369537 -0.01841080
v -0.06284023 -0.01689798 -0.02079387
v -0.07340237 0.00889332 -0.01470342
v -0.07038975 0.00857725 -0.01871242
v -0.06660400 -0.01693024 -0.02069644
v -0.06777879 -0.02547658 -0.01349255
v -0.06212858 -0.02536684 -0.01359735
v -0.06078455 -0.02309699 -0.01778251
v -0.06985932 -0.02374246 -0.01050540
v -0.06846404 -0.02220477 -0.01753261
v -0.07063470 -0.02151027 -0.01267230
v -0.06811411 -0.02121434 -0.01835396
v -0.06315478 -0.02328591 -0.01854543
v -0.06585505 -0.02518320 -0.01592933
v -0.06125487 -0.02536262 -0.01132875
v -0.06319442 -0.02416427 -0.01770093
v -0.06854491 -0.02418783 -0.01537430
vn 0.45529400 0.54104400 0.70709176
vn 0.71521511 -0.36256137 0.59750867
vn 0.67654559 0.00973128 -0.73633645
vn -0.06983819 0.53751080 -0.84035991
vn -0.72615839 -0.00696701 0.68749214
vn -0.58102660 -0.34775293 -0.73585052
vn 0.66917194 0.68962954 -0.27680320
vn 0.30419683 -0.71096976 0.63402389
vn 0.80004503 -0.30284371 -0.51789346
vn -0.34098191 -0.04456722 -0.93901283
vn -0.67971142 0.52513948 0.51207510
vn 0.69938518 -0.01315039 0.71462398
vn -0.74269716 -0.20174237 0.63851464
vn 0.71179067 -0.11043388 -0.69365583
vn -0.11912816 -0.76039987 -0.63843599
vn 0.79978731 -0.53300933 -0.27611829
vn -0.63649179 0.61261160 -0.46859922
vn -0.34043555 -0.74586013 0.57253498
vn -0.89259150 -0.13504054 -0.43016796
vn 0.14811402 -0.17546652 -0.97327989
vn -0.12638716 -0.37046164 -0.92020892
vn 0.53832999 -0.81406602 -0.21793882
vn 0.41437597 -0.52721111 -0.74184972
vn -0.73815701 0.67180601 -0.06165162
vn -0.28147541 0.62496775 -0.72813934
vn -0.52043247 -0.23573284 -0.82071924
vn 0.12690282 -0.94672335 -0.29599085
vn -0.79306476 -0.50281539 -0.34383859
vn -0.95940731 -0.20385392 -0.19488765
vn 0.29880734 -0.33028964 -0.89533398
vn 0.01658073 -0.59165207 -0.80602289
vn 0.05591764 -0.20444910 -0.97727876
vn -0.73233175 0.63065371 -0.25683870
vn -0.48296404 0.43556169 -0.75962606
vn -0.29051174 -0.16981148 -0.94168306
vn -0.38357236 -0.90198139 -0.19824686
vn 0.23955139 -0.95802362 -0.15749881
vn 0.43216700 -0.72447947 -0.53699272
vn -0.73157238 -0.45629111 0.50655728
vn -0.53332228 -0.52183510 -0.66577434
vn -0.96017859 -0.26244672 -0.09580605
vn -0.32370915 -0.49189794 -0.80823809
vn 0.15165566 -0.44293979 -0.88363166
vn -0.21934978 -0.88732425 -0.40563697
vn 0.31609566 -0.94684033 -0.05980738
vn 0.26772688 -0.80933979 -0.52277283
vn -0.53344780 -0.72293283 -0.43909174
f 7//7 3//3 4//4
f 7//7 2//2 3//3
f 8//8 1//1 5//5
f 10//10 4//4 3//3
f 11//11 5//5 1//1
f 11//11 1//1 7//7
f 12//12 7//7 1//1
f 12//12 2//2 7//7
f 12//12 8//8 2//2
f 12//12 1//1 8//8
f 14//14 3//3 2//2
f 14//14 2//2 9//9
f 16//16 9//9 2//2
f 18//18 8//8 5//5
f 18//18 5//5 13//13
f 20//20 10//10 3//3
f 20//20 3//3 14//14
f 22//22 16//16 2//2
f 22//22 2//2 8//8
f 23//23 9//9 16//16
f 24//24 11//11 7//7
f 24//24 19//19 11//11
f 25//25 17//17 7//7
f 25//25 7//7 4//4
f 25//25 4//4 10//10
f 26//26 17//17 10//10
f 26//26 19//19 17//17
f 26//26 6//6 19//19
f 26//26 21//21 6//6
f 28//28 19//19 6//6
f 29//29 5//5 11//11
f 29//29 11//11 19//19
f 29//29 19//19 28//28
f 30//30 20//20 14//14
f 30//30 14//14 9//9
f 30//30 9//9 23//23
f 32//32 10//10 20//20
f 32//32 20//20 30//30
f 33//33 24//24 7//7
f 33//33 7//7 17//17
f 33//33 17//17 19//19
f 33//33 19//19 24//24
f 34//34 25//25 10//10
f 34//34 10//10 17//17
f 34//34 17//17 25//25
f 35//35 26//26 10//10
f 35//35 21//21 26//26
f 35//35 32//32 21//21
f 35//35 10//10 32//32
f 36//36 27//27 18//18
f 36//36 18//18 28//28
f 37//37 18//18 27//27
f 37//37 27//27 22//22
f 38//38 23//23 16//16
f 38//38 16//16 22//22
f 38//38 31//31 23//23
f 39//39 28//28 18//18
f 39//39 18//18 13//13
f 40//40 28//28 6//6
f 41//41 13//13 5//5
f 41//41 5//5 29//29
f 41//41 29//29 28//28
f 41//41 39//39 13//13
f 41//41 28//28 39//39
f 42//42 31//31 15//15
f 42//42 6//6 21//21
f 42//42 21//21 31//31
f 42//42 40//40 6//6
f 42//42 15//15 40//40
f 43//43 30//30 23//23
f 43//43 23//23 31//31
f 43//43 32//32 30//30
f 43//43 31//31 21//21
f 43//43 21//21 32//32
f 44//44 15//15 27//27
f 44//44 27//27 36//36
f 45//45 8//8 18//18
f 45//45 18//18 37//37
f 45//45 37//37 22//22
f 45//45 22//22 8//8
f 46//46 38//38 22//22
f 46//46 22//22 27//27
f 46//46 27//27 15//15
f 46//46 15//15 31//31
f 46//46 31//31 38//38
f 47//47 44//44 36//36
f 47//47 36//36 28//28
f 47//47 28//28 40//40
f 47//47 40//40 15//15
f 47//47 15//15 44//44

