# https://github.com/mikedh/trimesh
v 0.06742910 -0.00254869 0.01426476
v 0.07218432 -0.01375261 0.00855760
v 0.07131609 0.01186970 -0.00853673
v 0.06470193 0.01273999 -0.01693894
v 0.06015523 -0.01314431 -0.01346653
v 0.06363353 0.01876831 -0.01249539
v 0.07153339 0.00155432 0.00880995
v 0.06000183 -0.01439265 0.01128334
v 0.07165798 -0.01605632 -0.01379145
v 0.06651692 0.01790401 -0.01429897
v 0.05890642 0.00685858 -0.01625429
v 0.07048344 -0.00254361 0.01244000
v 0.07225495 -0.00464007 0.00262156
v 0.06682446 0.01852051 -0.01255275
v 0.06602929 -0.01451790 0.01281943
v 0.06097344 0.00161272 0.00889712
v 0.06440778 -0.01793109 -0.01060229
v 0.06474993 0.01668124 -0.01587995
v 0.07042391 0.01173871 -0.01311188
v 0.05921140 -0.00603267 -0.01679030
v 0.07105139 -0.00266009 0.01149217
v 0.07206041 -0.00986731 0.00873724
v 0.07212440 0.00211046 -0.01144334
v 0.06421236 0.01853304 -0.01395073
v 0.06113644 -0.00753577 0.01431798
v 0.06952833 -0.01168428 0.01280519
v 0.05949042 -0.01223346 0.01238056
v 0.06140229 0.01557551 -0.01217586
v 0.06109669 -0.01623597 -0.00634081
v 0.06566614 -0.01515267 -0.01730528
v 0.06335812 -0.01778381 0.00946305
v 0.05906649 0.00196465 -0.01782178
v 0.07080825 -0.01330394 -0.01577065
v 0.06627533 0.01656639 -0.01584942
v 0.07118301 0.01185961 -0.00955267
v 0.07116546 -0.01253871 0.01101771
v 0.07209419 0.00224958 -0.00986694
v 0.07229151 -0.01481249 -0.01253310
v 0.06132086 0.01387599 -0.01400032
v 0.06953593 -0.00756019 0.01320445
v 0.06677547 -0.01143582 0.01374584
v 0.06342343 -0.01622298 0.01190271
v 0.05911790 -0.00321890 -0.01778149
v 0.06013712 -0.01446958 -0.00032553
v 0.06324180 0.01789038 -0.01316906
v 0.06281270 -0.01696867 -0.01332190
v 0.06684363 -0.01676840 -0.01517087
v 0.06193376 -0.01437078 -0.01472248
v 0.06257589 -0.01785986 0.00591331
v 0.07060981 -0.01680251 0.00942368
v 0.06448524 -0.00752445 -0.01796055
v 0.06680643 -0.01504319 -0.01698270
v 0.07115719 -0.00998877 -0.01501695
v 0.06604452 0.01290757 -0.01684952
v 0.07214731 -0.01376434 -0.01353029
v 0.07031236 -0.01231969 0.01206856
v 0.06212699 -0.01120599 0.01395287
v 0.06943147 -0.01428527 0.01195729
v 0.06775913 -0.00768957 0.01404451
v 0.06158759 -0.01527129 0.01185283
v 0.05890691 0.00639108 -0.01620072
v 0.06083935 -0.01608978 0.01037507
v 0.06307378 0.01797552 -0.01261564
v 0.06120567 -0.01534489 -0.01261848
vn 0.11817570 0.39200502 0.91234126
vn 0.95302706 -0.21365877 0.21468429
vn 0.89483615 0.42885260 0.12391011
vn -0.11518036 0.18604972 -0.97576585
vn -0.88634201 -0.34901617 -0.30427873
vn -0.40226210 0.90464020 0.14075270
vn 0.69823572 0.53318467 0.47768293
vn -0.82033201 -0.44782967 0.35567397
vn 0.65157930 -0.65954824 -0.37475397
vn 0.49894133 0.70875902 -0.49871655
vn -0.85848336 0.24203978 -0.45213169
vn 0.66670263 0.23176302 0.70837385
vn 0.99887391 0.03668085 0.03009048
vn 0.48365494 0.87153637 0.08063657
vn 0.12698103 -0.48125309 0.86733574
vn -0.64496386 0.55557688 0.52474370
vn -0.10687216 -0.99022507 -0.08962511
vn -0.26546832 0.50648276 -0.82036686
vn 0.85126049 0.24659248 -0.46319296
vn -0.86209840 -0.22059456 -0.45620653
vn 0.91017974 0.07947567 0.40651748
vn 0.98284645 0.02667179 0.18248691
vn 0.97021856 0.06490985 -0.23337235
vn -0.29158885 0.82041412 -0.49182985
vn -0.53055793 0.12400400 0.83852924
vn 0.46952739 -0.18571233 0.86316566
vn -0.83324496 -0.20545288 0.51331467
vn -0.88334385 0.46872351 -0.00138574
vn -0.77151815 -0.63448268 -0.04681310
vn -0.09304773 -0.47833553 -0.87323378
vn -0.15237239 -0.94704223 0.28265469
vn -0.65793340 0.04951329 -0.75144665
vn 0.60987317 -0.13223575 -0.78138878
vn 0.41032954 0.46514350 -0.78439224
vn 0.93516883 0.31634026 -0.15933645
vn 0.82610347 -0.15628543 0.54141290
vn 0.99761689 0.06646769 0.01850919
vn 0.97049710 -0.22445417 -0.08806652
vn -0.77262311 0.42566588 -0.47102239
vn 0.58796695 -0.03949760 0.80792005
vn 0.15948561 -0.21413677 0.96369590
vn -0.10826129 -0.67758949 0.72742833
vn -0.71905198 -0.06639813 -0.69177708
vn -0.94822422 -0.31719621 -0.01604349
vn -0.74940419 0.51770482 -0.41276517
vn -0.47994739 -0.79833363 -0.36374980
vn 0.09926884 -0.88348014 -0.45783024
vn -0.63609810 -0.45606244 -0.62240361
vn -0.36876416 -0.92938430 0.01605695
vn 0.55712539 -0.74982956 0.35688504
vn 0.11657557 -0.03088686 -0.99270143
vn 0.31427958 -0.39074969 -0.86518381
vn 0.81101476 0.06926974 -0.58091028
vn 0.35541288 0.15248730 -0.92218724
vn 0.93721637 -0.03925180 -0.34653250
vn 0.67344357 -0.19401554 0.71332442
vn -0.18733361 -0.24653750 0.95085508
vn 0.43043160 -0.44308246 0.78638831
vn 0.24440979 -0.06616971 0.96741171
vn -0.39080848 -0.54968458 0.73831944
vn -0.99967153 -0.00801355 -0.02434389
vn -0.67331972 -0.67944611 0.29153651
vn -0.80938542 0.56365145 -0.16490085
vn -0.79648173 -0.55550157 -0.23881972
f 7//7 6//6 1//1
f 12//12 7//7 1//1
f 13//13 3//3 7//7
f 14//14 7//7 3//3
f 14//14 6//6 7//7
f 16//16 1//1 6//6
f 19//19 10//10 14//14
f 21//21 7//7 12//12
f 22//22 13//13 7//7
f 22//22 2//2 13//13
f 22//22 21//21 2//2
f 22//22 7//7 21//21
f 24//24 14//14 10//10
f 24//24 6//6 14//14
f 25//25 1//1 16//16
f 27//27 16//16 11//11
f 27//27 25//25 16//16
f 27//27 20//20 5//5
f 28//28 16//16 6//6
f 28//28 11//11 16//16
f 32//32 18//18 4//4
f 32//32 11//11 18//18
f 34//34 10//10 19//19
f 34//34 24//24 10//10
f 34//34 18//18 24//24
f 35//35 19//19 14//14
f 35//35 14//14 3//3
f 35//35 23//23 19//19
f 35//35 3//3 23//23
f 36//36 21//21 12//12
f 36//36 2//2 21//21
f 37//37 23//23 3//3
f 37//37 3//3 13//13
f 37//37 13//13 23//23
f 38//38 23//23 13//13
f 38//38 13//13 2//2
f 39//39 24//24 18//18
f 39//39 18//18 11//11
f 39//39 11//11 28//28
f 40//40 12//12 1//1
f 43//43 20//20 27//27
f 43//43 30//30 20//20
f 44//44 27//27 5//5
f 44//44 8//8 27//27
f 44//44 5//5 29//29
f 45//45 6//6 24//24
f 45//45 39//39 28//28
f 45//45 24//24 39//39
f 47//47 9//9 17//17
f 47//47 46//46 30//30
f 47//47 17//17 46//46
f 48//48 5//5 20//20
f 48//48 20//20 30//30
f 48//48 46//46 5//5
f 48//48 30//30 46//46
f 49//49 17//17 31//31
f 49//49 46//46 17//17
f 49//49 29//29 46//46
f 50//50 42//42 31//31
f 50//50 15//15 42//42
f 50//50 2//2 36//36
f 50//50 38//38 2//2
f 50//50 9//9 38//38
f 50//50 31//31 17//17
f 50//50 17//17 9//9
f 51//51 43//43 32//32
f 51//51 30//30 43//43
f 52//52 33//33 9//9
f 52//52 51//51 33//33
f 52//52 30//30 51//51
f 52//52 47//47 30//30
f 52//52 9//9 47//47
f 53//53 33//33 19//19
f 53//53 19//19 23//23
f 54//54 4//4 18//18
f 54//54 18//18 34//34
f 54//54 33//33 51//51
f 54//54 51//51 32//32
f 54//54 32//32 4//4
f 54//54 34//34 19//19
f 54//54 19//19 33//33
f 55//55 38//38 9//9
f 55//55 9//9 33//33
f 55//55 33//33 53//53
f 55//55 53//53 23//23
f 55//55 23//23 38//38
f 56//56 36//36 12//12
f 56//56 12//12 40//40
f 56//56 40//40 26//26
f 56//56 50//50 36//36
f 57//57 15//15 41//41
f 57//57 42//42 15//15
f 57//57 25//25 27//27
f 58//58 41//41 15//15
f 58//58 26//26 41//41
f 58//58 15//15 50//50
f 58//58 56//56 26//26
f 58//58 50//50 56//56
f 59//59 1//1 25//25
f 59//59 57//57 41//41
f 59//59 25//25 57//57
f 59//59 40//40 1//1
f 59//59 41//41 26//26
f 59//59 26//26 40//40
f 60//60 27//27 8//8
f 60//60 57//57 27//27
f 60//60 42//42 57//57
f 61//61 43//43 27//27
f 61//61 27//27 11//11
f 61//61 11//11 32//32
f 61//61 32//32 43//43
f 62//62 44//44 29//29
f 62//62 8//8 44//44
f 62//62 29//29 49//49
f 62//62 49//49 31//31
f 62//62 60//60 8//8
f 62//62 31//31 42//42
f 62//62 42//42 60//60
f 63//63 45//45 28//28
f 63//63 28//28 6//6
f 63//63 6//6 45//45
f 64//64 46//46 29//29
f 64//64 29//29 5//5
f 64//64 5//5 46//46

