# https://github.com/mikedh/trimesh
v -0.06651003 0.01383494 0.01786957
v -0.06039725 0.01939160 0.00724207
v -0.07236942 0.01804495 0.00875424
v -0.06946600 0.01549836 -0.01361795
v -0.06684689 0.01393836 -0.01038260
v -0.06775086 0.02213151 -0.00415344
v -0.07410871 0.01393894 0.01094253
v -0.06638892 0.01843133 0.01500527
v -0.06061983 0.01914497 -0.01039928
v -0.07289326 0.01723499 -0.00876184
v -0.07054476 0.01381665 -0.01350798
v -0.06636742 0.01456940 0.01768811
v -0.07301373 0.01618246 0.01071834
v -0.06466011 0.02101518 0.00718313
v -0.06303801 0.02213257 0.00008188
v -0.06755174 0.02094854 -0.00904508
v -0.07017052 0.02101008 -0.00498764
v -0.07394835 0.01620392 0.00808401
v -0.06734584 0.01377425 0.01746767
v -0.06965939 0.01383005 -0.01390909
v -0.07177017 0.01640079 -0.01160859
v -0.07398966 0.01408158 -0.00709371
v -0.07107201 0.01794765 0.01067838
v -0.06764107 0.02201617 -0.00249949
v -0.06651050 0.01911879 0.01304978
v -0.06139919 0.02030737 0.00701775
v -0.06147871 0.02095040 -0.00589848
v -0.06944466 0.01769154 -0.01262094
v -0.07074043 0.02021742 -0.00874617
v -0.07176027 0.01946579 -0.00708596
v -0.07289454 0.01719564 0.00957719
v -0.06821931 0.01516878 0.01632759
v -0.07032487 0.01531860 -0.01326280
v -0.07281727 0.01416181 -0.01089285
v -0.07405067 0.01484446 -0.00722213
v -0.06724739 0.01810421 0.01466812
v -0.06996708 0.02105536 -0.00255896
v -0.06543872 0.02212484 -0.00031021
v -0.06739190 0.01883191 0.01296723
v -0.06400099 0.02104957 0.00687162
v -0.06136312 0.02094439 0.00193578
v -0.06309924 0.02105521 -0.00873383
v -0.07035783 0.01988286 -0.00973431
v -0.07184924 0.01720596 -0.01076357
v -0.07383836 0.01644133 0.00726360
v -0.07077107 0.02031973 -0.00240918
v -0.07387600 0.01553318 0.00984243
v -0.07391051 0.01447646 0.01087983
v -0.06717169 0.01444179 0.01730092
v -0.06644497 0.01633645 0.01654095
v -0.07016317 0.01746445 -0.01230229
v -0.07287969 0.01540885 -0.01064718
v -0.06222956 0.02096603 0.00490312
v -0.06230875 0.02097308 -0.00812304
v -0.06476913 0.02209461 -0.00410788
v -0.07099105 0.01633255 -0.01229185
v -0.06125360 0.01986803 -0.00969428
v -0.06317342 0.02198690 -0.00316857
vn 0.23760871 -0.51534387 0.82338496
vn 0.96529825 0.05325060 0.25566317
vn -0.57642515 0.79206685 0.20090833
vn -0.07634951 0.27909185 -0.95722437
vn 0.40681793 -0.89840071 -0.16545493
vn -0.19810373 0.97748387 -0.07266502
vn -0.77673963 -0.50880703 0.37120204
vn 0.09662814 0.74304037 0.66223411
vn 0.81380389 0.06411145 -0.57759237
vn -0.86253301 0.44528739 -0.24032466
vn -0.46776017 -0.59620956 -0.65248339
vn 0.30835411 0.30300392 0.90172411
vn -0.68031863 0.51961887 0.51687793
vn -0.09531658 0.96523646 0.24337898
vn 0.28101160 0.95826773 0.05249218
vn -0.08349338 0.88614390 -0.45582655
vn -0.54799545 0.83560683 -0.03823897
vn -0.92441021 0.37321052 0.07861088
vn -0.41776077 -0.58663376 0.69378438
vn 0.01517001 -0.57837784 -0.81562794
vn -0.69464754 0.36217954 -0.62152294
vn -0.72705015 -0.67899192 -0.10182366
vn -0.49685723 0.75911090 0.42057524
vn -0.26413300 0.95740983 0.11661983
vn -0.14809568 0.94326228 0.29719342
vn 0.47228629 0.83448829 0.28385726
vn 0.66547374 0.74212034 -0.08001316
vn -0.17660894 0.56264169 -0.80761601
vn -0.54357605 0.78480160 -0.29767689
vn -0.78202069 0.61823172 -0.07895053
vn -0.69833410 0.63162056 0.33672681
vn -0.58293631 0.37846012 0.71899457
vn -0.52445676 0.27435671 -0.80602326
vn -0.73852772 -0.52765634 -0.41970895
vn -0.98119467 0.12982943 -0.14283327
vn -0.50869683 0.65962532 0.55328291
vn -0.52271234 0.84862887 0.08124560
vn -0.09493246 0.99040450 0.10043285
vn -0.36744469 0.88080329 0.29861342
vn 0.15239497 0.95653016 0.24864799
vn 0.70223788 0.71077096 0.04082409
vn 0.14133682 0.88643925 -0.44073730
vn -0.42159061 0.73606061 -0.52959998
vn -0.71051358 0.50602402 -0.48898890
vn -0.85723815 0.51475355 0.01309707
vn -0.70204905 0.71098780 0.04029237
vn -0.88197421 0.38837268 0.26699843
vn -0.77268313 0.37668884 0.51094647
vn -0.46861469 0.36321698 0.80527865
vn 0.15002503 0.56756675 0.80954337
vn -0.52825235 0.50275199 -0.68424403
vn -0.85933932 0.20177445 -0.46991808
vn 0.27160724 0.94458471 0.18436167
vn 0.38733454 0.89488440 -0.22170670
vn 0.06347916 0.99077879 -0.11969873
vn -0.57948737 0.35927219 -0.73151752
vn 0.42171276 0.80414339 -0.41894123
vn 0.27223551 0.95884520 -0.08064564
f 9//9 2//2 1//1
f 9//9 1//1 5//5
f 12//12 1//1 2//2
f 19//19 5//5 1//1
f 19//19 7//7 11//11
f 19//19 1//1 12//12
f 20//20 9//9 5//5
f 20//20 19//19 11//11
f 20//20 5//5 19//19
f 20//20 11//11 4//4
f 20//20 4//4 9//9
f 22//22 11//11 7//7
f 24//24 3//3 14//14
f 25//25 14//14 3//3
f 25//25 8//8 14//14
f 26//26 8//8 2//2
f 27//27 2//2 9//9
f 28//28 9//9 4//4
f 29//29 17//17 6//6
f 29//29 6//6 16//16
f 30//30 17//17 29//29
f 30//30 29//29 10//10
f 31//31 3//3 18//18
f 31//31 23//23 3//3
f 31//31 13//13 23//23
f 32//32 7//7 19//19
f 33//33 4//4 11//11
f 33//33 11//11 21//21
f 33//33 28//28 4//4
f 34//34 11//11 22//22
f 35//35 34//34 22//22
f 35//35 22//22 7//7
f 35//35 7//7 18//18
f 36//36 23//23 13//13
f 36//36 8//8 23//23
f 36//36 32//32 8//8
f 36//36 13//13 32//32
f 37//37 3//3 24//24
f 37//37 24//24 6//6
f 37//37 6//6 17//17
f 38//38 15//15 6//6
f 38//38 6//6 24//24
f 38//38 24//24 14//14
f 38//38 14//14 15//15
f 39//39 23//23 8//8
f 39//39 8//8 25//25
f 39//39 25//25 3//3
f 39//39 3//3 23//23
f 40//40 14//14 8//8
f 40//40 8//8 26//26
f 40//40 15//15 14//14
f 41//41 26//26 2//2
f 41//41 15//15 26//26
f 41//41 27//27 15//15
f 41//41 2//2 27//27
f 42//42 16//16 6//6
f 42//42 28//28 16//16
f 42//42 9//9 28//28
f 43//43 29//29 16//16
f 43//43 16//16 28//28
f 44//44 10//10 29//29
f 44//44 29//29 43//43
f 45//45 18//18 3//3
f 45//45 3//3 30//30
f 45//45 30//30 10//10
f 45//45 35//35 18//18
f 45//45 10//10 35//35
f 46//46 30//30 3//3
f 46//46 17//17 30//30
f 46//46 37//37 17//17
f 46//46 3//3 37//37
f 47//47 31//31 18//18
f 47//47 18//18 7//7
f 47//47 13//13 31//31
f 48//48 32//32 13//13
f 48//48 7//7 32//32
f 48//48 47//47 7//7
f 48//48 13//13 47//47
f 49//49 32//32 19//19
f 49//49 19//19 12//12
f 49//49 12//12 32//32
f 50//50 32//32 12//12
f 50//50 8//8 32//32
f 50//50 12//12 2//2
f 50//50 2//2 8//8
f 51//51 28//28 33//33
f 51//51 43//43 28//28
f 51//51 44//44 43//43
f 51//51 21//21 44//44
f 52//52 21//21 11//11
f 52//52 11//11 34//34
f 52//52 44//44 21//21
f 52//52 10//10 44//44
f 52//52 35//35 10//10
f 52//52 34//34 35//35
f 53//53 40//40 26//26
f 53//53 26//26 15//15
f 53//53 15//15 40//40
f 55//55 42//42 6//6
f 55//55 6//6 15//15
f 56//56 51//51 33//33
f 56//56 33//33 21//21
f 56//56 21//21 51//51
f 57//57 54//54 27//27
f 57//57 27//27 9//9
f 57//57 9//9 42//42
f 57//57 42//42 54//54
f 58//58 15//15 27//27
f 58//58 27//27 54//54
f 58//58 55//55 15//15
f 58//58 54//54 42//42
f 58//58 42//42 55//55

