# https://github.com/mikedh/trimesh
v 0.05959670 0.02105547 0.02231019
v 0.05924163 -0.01638053 0.02042074
v 0.05920378 -0.00784356 -0.02327688
v 0.04015406 0.01178636 -0.02247166
v 0.03976006 0.00100664 0.02301814
v 0.05985481 0.02673537 -0.01205963
v 0.05901135 -0.00059080 0.02298359
v 0.03990590 0.01680472 0.00649698
v 0.03979812 -0.00829129 -0.01764512
v 0.05870688 0.01673698 -0.02091216
v 0.05965954 -0.01192679 -0.02144531
v 0.05927702 -0.01083522 0.02179191
v 0.05955489 0.01512261 0.02348665
v 0.03986332 0.01021089 0.02147375
v 0.03988942 0.01850486 -0.01750114
v 0.05968586 0.02368171 0.01966242
v 0.03957496 -0.00952248 0.01822081
v 0.03966800 -0.00313375 -0.02246064
v 0.05963764 0.02485653 -0.01448048
v 0.05627465 0.00340310 -0.02406805
v 0.05761451 -0.01691186 -0.01739034
v 0.03967761 0.00732763 0.02290783
v 0.04141590 0.01974590 -0.01097024
v 0.04001002 0.01726723 -0.01935855
v 0.03990545 0.01525095 0.01237111
v 0.03974522 -0.00885634 0.01937603
v 0.05924559 -0.01694282 -0.01934378
v 0.03966492 -0.00568152 -0.02144863
v 0.05933196 -0.00912886 -0.02284345
v 0.05620303 0.00100570 -0.02409293
v 0.03976378 -0.00960712 -0.00187246
v 0.05576179 -0.01568934 0.01785098
v 0.03984803 0.01810258 -0.00369053
v 0.04153352 0.01970364 -0.01496821
v 0.05972969 0.02679227 -0.00495212
v 0.05858723 0.01881833 -0.01982443
v 0.04174038 0.01828389 -0.01848962
v 0.05835101 -0.01680449 -0.01861230
v 0.03981590 -0.00711809 -0.02020426
v 0.05357399 0.01869975 -0.01947683
vn 0.51241571 0.46135757 0.72427849
vn 0.49106732 -0.69811366 0.52104722
vn 0.57722370 -0.13691223 -0.80502661
vn -0.63251767 0.20675404 -0.74644100
vn -0.66738439 -0.09733215 0.73832549
vn 0.53550244 0.81074967 -0.23647856
vn 0.44200196 -0.06941851 0.89432396
vn -0.81876840 0.56512574 0.10124821
vn -0.79806260 -0.58151900 -0.15789789
vn 0.59881391 0.27464571 -0.75232416
vn 0.82489085 -0.23802216 -0.51273828
vn 0.66195076 -0.15383059 0.73359208
vn 0.65379754 0.07748587 0.75269165
vn -0.75222492 0.43368766 0.49605715
vn -0.75571333 0.59459887 -0.27449872
vn 0.47259936 0.79060951 0.38934105
vn -0.78382127 -0.58890448 0.19701711
vn -0.70711839 -0.12051648 -0.69674914
vn 0.60550365 0.56605159 -0.55942017
vn 0.23981554 0.09358682 -0.96629706
vn -0.25309067 -0.96019574 -0.11819158
vn -0.70520892 0.13088740 0.69681337
vn -0.51583093 0.85614783 0.03048515
vn -0.66974099 0.46782221 -0.57670563
vn -0.82662645 0.52592622 0.20022567
vn -0.66910251 -0.41964572 0.61335088
vn 0.47282453 -0.74369323 -0.47260697
vn -0.73821406 -0.33339881 -0.58641729
vn 0.59185924 -0.24314711 -0.76849341
vn 0.07377164 -0.02727890 -0.99690200
vn -0.80454407 -0.59361576 -0.01814281
vn -0.30351060 -0.94772103 0.09851984
vn -0.83493083 0.54646910 0.06528424
vn -0.42751449 0.89814735 -0.10277505
vn 0.49141430 0.86849352 0.06504600
vn 0.38497467 0.51534459 -0.76564643
vn -0.17152065 0.79780693 -0.57800066
vn -0.39893136 -0.85833286 -0.32267394
vn -0.72089041 -0.55384595 -0.41661936
vn -0.07224378 0.63447460 -0.76956014
f 12//12 7//7 5//5
f 12//12 5//5 2//2
f 13//13 5//5 7//7
f 13//13 7//7 12//12
f 13//13 12//12 2//2
f 16//16 1//1 13//13
f 16//16 11//11 6//6
f 16//16 13//13 2//2
f 16//16 2//2 11//11
f 16//16 14//14 1//1
f 19//19 3//3 10//10
f 19//19 6//6 11//11
f 20//20 10//10 3//3
f 20//20 4//4 10//10
f 22//22 13//13 1//1
f 22//22 1//1 14//14
f 22//22 5//5 13//13
f 22//22 17//17 5//5
f 22//22 18//18 17//17
f 23//23 8//8 16//16
f 24//24 18//18 15//15
f 24//24 4//4 18//18
f 25//25 16//16 8//8
f 25//25 14//14 16//16
f 25//25 22//22 14//14
f 25//25 8//8 22//22
f 26//26 17//17 2//2
f 26//26 2//2 5//5
f 26//26 5//5 17//17
f 27//27 11//11 2//2
f 27//27 2//2 21//21
f 28//28 9//9 17//17
f 28//28 17//17 18//18
f 29//29 19//19 11//11
f 29//29 3//3 19//19
f 29//29 11//11 27//27
f 29//29 27//27 28//28
f 29//29 28//28 18//18
f 29//29 18//18 3//3
f 30//30 18//18 4//4
f 30//30 4//4 20//20
f 30//30 20//20 3//3
f 30//30 3//3 18//18
f 31//31 21//21 17//17
f 31//31 17//17 9//9
f 31//31 9//9 21//21
f 32//32 21//21 2//2
f 32//32 2//2 17//17
f 32//32 17//17 21//21
f 33//33 22//22 8//8
f 33//33 15//15 18//18
f 33//33 18//18 22//22
f 33//33 23//23 15//15
f 33//33 8//8 23//23
f 34//34 23//23 6//6
f 34//34 6//6 15//15
f 34//34 15//15 23//23
f 35//35 23//23 16//16
f 35//35 16//16 6//6
f 35//35 6//6 23//23
f 36//36 10//10 4//4
f 36//36 4//4 24//24
f 36//36 19//19 10//10
f 37//37 24//24 15//15
f 37//37 15//15 6//6
f 37//37 6//6 19//19
f 37//37 19//19 24//24
f 38//38 27//27 21//21
f 38//38 21//21 9//9
f 38//38 9//9 27//27
f 39//39 28//28 27//27
f 39//39 27//27 9//9
f 39//39 9//9 28//28
f 40//40 36//36 24//24
f 40//40 24//24 19//19
f 40//40 19//19 36//36

