# https://github.com/mikedh/trimesh
v 0.06714087 0.00382462 0.02295419
v 0.07445813 -0.00225660 0.01412090
v 0.03985952 0.01722480 0.00095241
v -0.01774310 0.01254013 0.00079338
v -0.01793487 -0.01180644 0.02009092
v 0.03976965 -0.00971262 0.00105351
v -0.01769567 0.00960813 0.01780478
v 0.07406794 0.00359119 0.01418154
v 0.06762628 -0.00952982 0.02188183
v 0.02956540 0.01696174 0.00077798
v -0.01190159 -0.01203724 0.00103869
v 0.05043430 0.01390677 0.01899299
v -0.00130620 0.00343663 0.02292202
v -0.03125434 0.00127844 0.02142846
v 0.07256802 -0.00226300 0.01936732
v 0.06784059 -0.00961282 0.01430607
v -0.01769884 0.01098553 0.01415493
v -0.01805720 -0.01259623 0.01569343
v 0.05001700 0.01609518 0.01446748
v -0.02045405 0.00583643 0.02140014
v 0.02963883 0.00722863 0.02298536
v -0.00597170 -0.00197267 0.02307827
v -0.01778962 -0.00518367 0.00101862
v 0.07194886 0.00354439 0.01919890
v 0.07384467 -0.00236342 0.01672756
v -0.03116150 0.00682242 0.01889402
v 0.00562195 -0.01130460 0.01999623
v -0.03106872 0.00069564 0.02156112
v -0.01784240 -0.01259012 0.00849353
v 0.03990590 0.01680472 0.00649698
v -0.01623359 0.01078744 0.01517069
v -0.02494154 0.00688165 0.02007288
v 0.05015618 0.01279374 0.02015021
v 0.00164187 0.00464371 0.02285426
v 0.06471820 -0.00059287 0.02295917
v -0.01332528 -0.00916313 0.02138657
v 0.07332485 0.00362175 0.01656591
v -0.00601045 0.00062897 0.02293877
v -0.03061011 0.00559831 0.01986979
v 0.03967761 0.00732763 0.02290783
v 0.03109412 0.00992321 0.02141361
v -0.00432089 0.00723317 0.02132707
v -0.00143788 -0.00343360 0.02294800
v -0.01774692 -0.00773865 0.02161672
vn 0.35228545 0.38747453 0.85191458
vn 0.87352695 -0.24649284 -0.41975225
vn 0.17861782 0.70485766 -0.68649207
vn -0.40569297 0.64045423 -0.65209784
vn -0.28960773 -0.77151189 0.56647751
vn 0.15876173 -0.63538561 -0.75569824
vn -0.09747644 0.84825508 0.52053978
vn 0.82085545 0.44620028 -0.35651318
vn 0.38569553 -0.68493345 0.61814653
vn -0.04917747 0.75828889 -0.65006118
vn -0.16073311 -0.68878636 -0.70692165
vn 0.15816762 0.82357407 0.54470979
vn -0.03309840 0.11047732 0.99332737
vn -0.88679347 -0.01231304 0.46200187
vn 0.77238381 -0.12304915 0.62312291
vn 0.44617070 -0.81077728 -0.37890884
vn -0.15885691 0.96326182 0.21654363
vn -0.36625687 -0.92792310 0.06938747
vn 0.24092007 0.96143621 0.13265722
vn -0.06952387 0.43756490 0.89649506
vn -0.01642754 0.27422770 0.96152447
vn -0.03466773 -0.06197632 0.99747536
vn -0.52490480 -0.21683836 -0.82307720
vn 0.67379096 0.49725512 0.54657396
vn 0.92167849 -0.24217403 0.30308497
vn -0.83724180 0.52682968 0.14654919
vn 0.02234017 -0.98183706 0.18840623
vn -0.77877047 -0.30991436 0.54540778
vn -0.48215110 -0.84305948 -0.23828770
vn -0.03650364 0.99152220 0.12470452
vn -0.08431244 0.93821455 0.33562609
vn -0.12415133 0.66032197 0.74064927
vn 0.07037843 0.59031463 0.80409919
vn -0.02893060 0.23858812 0.97068982
vn 0.05301071 -0.06253843 0.99663374
vn -0.02038968 -0.32845715 0.94429877
vn 0.77969820 0.53982852 0.31726313
vn -0.04572649 0.07118068 0.99641477
vn -0.32473323 0.43211760 0.84132200
vn 0.00937291 0.26314250 0.96471145
vn -0.03998571 0.59609433 0.80191813
vn -0.04981120 0.62447079 0.77945819
vn -0.00493122 -0.16472747 0.98632679
vn -0.11192939 -0.24686198 0.96256479
f 6//6 3//3 2//2
f 8//8 2//2 3//3
f 10//10 3//3 6//6
f 11//11 10//10 6//6
f 11//11 4//4 10//10
f 15//15 1//1 9//9
f 16//16 6//6 2//2
f 16//16 2//2 9//9
f 16//16 11//11 6//6
f 17//17 10//10 4//4
f 18//18 16//16 9//9
f 19//19 7//7 12//12
f 19//19 8//8 3//3
f 22//22 21//21 13//13
f 22//22 1//1 21//21
f 23//23 4//4 11//11
f 24//24 1//1 15//15
f 24//24 19//19 12//12
f 24//24 12//12 1//1
f 25//25 2//2 8//8
f 25//25 15//15 9//9
f 25//25 9//9 2//2
f 26//26 7//7 17//17
f 26//26 17//17 4//4
f 26//26 23//23 14//14
f 26//26 4//4 23//23
f 27//27 18//18 9//9
f 27//27 9//9 5//5
f 27//27 5//5 18//18
f 28//28 18//18 5//5
f 28//28 14//14 23//23
f 28//28 20//20 14//14
f 28//28 13//13 20//20
f 29//29 11//11 16//16
f 29//29 16//16 18//18
f 29//29 23//23 11//11
f 29//29 28//28 23//23
f 29//29 18//18 28//28
f 30//30 19//19 3//3
f 30//30 3//3 10//10
f 30//30 10//10 17//17
f 30//30 17//17 19//19
f 31//31 19//19 17//17
f 31//31 17//17 7//7
f 31//31 7//7 19//19
f 32//32 7//7 26//26
f 33//33 1//1 12//12
f 33//33 12//12 7//7
f 33//33 7//7 32//32
f 34//34 21//21 20//20
f 34//34 20//20 13//13
f 34//34 13//13 21//21
f 35//35 9//9 1//1
f 35//35 1//1 22//22
f 36//36 5//5 9//9
f 37//37 8//8 19//19
f 37//37 19//19 24//24
f 37//37 25//25 8//8
f 37//37 24//24 15//15
f 37//37 15//15 25//25
f 38//38 28//28 22//22
f 38//38 22//22 13//13
f 38//38 13//13 28//28
f 39//39 32//32 26//26
f 39//39 26//26 14//14
f 39//39 14//14 20//20
f 39//39 20//20 32//32
f 40//40 33//33 21//21
f 40//40 21//21 1//1
f 40//40 1//1 33//33
f 41//41 20//20 21//21
f 41//41 21//21 33//33
f 42//42 33//33 32//32
f 42//42 32//32 20//20
f 42//42 41//41 33//33
f 42//42 20//20 41//41
f 43//43 35//35 22//22
f 43//43 9//9 35//35
f 43//43 36//36 9//9
f 44//44 28//28 5//5
f 44//44 5//5 36//36
f 44//44 22//22 28//28
f 44//44 43//43 22//22
f 44//44 36//36 43//43

