# https://github.com/mikedh/trimesh
v 0.06811177 0.02031607 0.01889871
v 0.07090159 -0.00510304 0.01660366
v 0.07215697 0.01943301 -0.00648415
v 0.06696954 0.02080752 -0.01632071
v 0.06064070 0.00560888 0.01938034
v 0.07323296 0.00549840 -0.00794591
v 0.06982314 0.02553228 0.00665238
v 0.06468535 0.01154578 0.02014163
v 0.07219466 0.02078866 0.01401157
v 0.07129784 0.01708370 -0.01296244
v 0.06049730 0.00551115 -0.00788810
v 0.06989280 0.02340108 -0.01084074
v 0.06154136 0.02206465 0.01643161
v 0.06741249 -0.00505241 0.01825132
v 0.07206412 0.02140467 -0.00052679
v 0.07237447 0.00542362 0.01302729
v 0.06921539 0.02549017 0.01343202
v 0.07042954 0.02205384 0.01694240
v 0.06725950 0.01729102 -0.01683327
v 0.07218078 0.01825640 -0.00766924
v 0.06781322 0.02275837 -0.01495400
v 0.07111070 0.02124866 -0.01113813
v 0.06229465 0.01987408 0.01915247
v 0.06074758 0.01855862 -0.01431679
v 0.06294463 0.01152498 0.02039555
v 0.06823451 0.01502683 0.01900126
v 0.06776802 -0.00523017 0.01816643
v 0.07205427 0.02252079 0.01196385
v 0.07104798 0.02456224 0.00671446
v 0.06296435 0.02685892 -0.00639289
v 0.06816525 0.02442856 0.01574067
v 0.06802931 0.01717099 -0.01634422
v 0.06869644 0.02250446 -0.01385518
v 0.06958631 0.02034852 -0.01404345
v 0.07206046 0.02043421 -0.00439523
v 0.06151398 0.01919491 0.01904981
v 0.06370991 0.02527257 -0.01209305
v 0.06470521 0.01470067 0.02010962
v 0.07028301 -0.00497219 0.01711337
v 0.06825238 -0.00512005 0.01807344
v 0.07094853 0.02220493 0.01604868
v 0.06973189 0.02470822 -0.00646948
v 0.07201390 0.02243538 0.00411159
v 0.07108175 0.02443686 0.00951489
v 0.06436182 0.02687287 0.00083907
v 0.06184705 0.02504999 0.00002925
v 0.07031049 0.02316685 0.01579506
v 0.06838323 0.02315359 0.01693609
v 0.06673380 0.02530726 0.01406266
v 0.06448723 0.02315007 0.01710161
v 0.06779147 0.02028293 -0.01597681
v 0.06855822 0.02328837 -0.01312840
v 0.07083070 0.01932247 -0.01278032
v 0.06216534 0.01357035 0.02032972
v 0.06706046 0.02290841 -0.01552099
v 0.06193825 0.02447455 -0.00970003
v 0.06306660 0.01471672 0.02028663
v 0.07100291 0.02349552 0.01404185
v 0.06789486 0.02536533 -0.00978181
v 0.07088312 0.02251616 -0.00764854
v 0.06290573 0.02672381 -0.00105297
v 0.06871176 0.02536618 0.01388998
v 0.06438431 0.02675294 0.00256477
v 0.06381634 0.02427728 0.01428283
vn 0.31141562 0.28206583 0.90744651
vn 0.62858327 -0.74577308 0.22069341
vn 0.98082537 0.17957379 -0.07572872
vn 0.05206385 0.27074053 -0.96124342
vn -0.75316830 -0.24994102 0.60849569
vn 0.68381484 -0.54973250 -0.47978271
vn 0.43820051 0.89887725 -0.00007600
vn 0.23234780 -0.03622308 0.97195802
vn 0.95350445 0.13686884 0.26850734
vn 0.86720948 0.03463378 -0.49673758
vn -0.66834615 -0.58629933 -0.45778435
vn 0.72994370 0.61919850 -0.28943983
vn -0.79505717 0.51435924 0.32143222
vn -0.40701336 -0.67182687 0.61886088
vn 0.96637502 0.25271751 -0.04746776
vn 0.98309625 -0.04128451 0.17837417
vn 0.36615135 0.89526789 0.25382790
vn 0.63296289 0.35366538 0.68867901
vn 0.07916389 -0.17429191 -0.98150670
vn 0.98491163 0.11359008 -0.13056178
vn 0.62264821 0.53545815 -0.57060825
vn 0.88957418 0.34799251 -0.29590369
vn -0.27067457 0.44607077 0.85308625
vn -0.79285641 0.05158308 -0.60722145
vn -0.04175981 -0.05339626 0.99769983
vn 0.49739567 0.00410603 0.86751408
vn -0.07445569 -0.84887264 0.52332742
vn 0.93615838 0.33920460 0.09245391
vn 0.77794131 0.62807909 -0.01799932
vn -0.41109201 0.90519088 -0.10785566
vn 0.15886806 0.78916781 0.59327490
vn 0.59887991 -0.10413639 -0.79403934
vn 0.74731536 0.45230613 -0.48676371
vn 0.75273806 0.26367470 -0.60320898
vn 0.95815768 0.27689712 -0.07253858
vn -0.76508536 0.23748146 0.59853734
vn -0.33235508 0.79770027 -0.50320412
vn 0.19026882 0.06149893 0.97980389
vn 0.48843015 -0.37592679 0.78747383
vn 0.33729447 -0.45707522 0.82299130
vn 0.82573596 0.33359887 0.45483174
vn 0.67695783 0.72993706 -0.09444564
vn 0.95535240 0.29298846 -0.03820420
vn 0.75408959 0.65455944 0.05385935
vn 0.04714988 0.99873521 0.01746024
vn -0.92588929 0.37632641 0.03327835
vn 0.55824659 0.65991198 0.50286869
vn 0.19195451 0.63136031 0.75135719
vn -0.14158668 0.93669519 0.32024260
vn -0.18973151 0.73062043 0.65589308
vn 0.60625906 0.20530130 -0.76831070
vn 0.59446105 0.68275021 -0.42481549
vn 0.82845212 0.24512330 -0.50356891
vn -0.40417656 0.06180854 0.91259028
vn 0.13034382 0.60002906 -0.78928804
vn -0.86761734 0.45625238 -0.19767123
vn -0.02371336 0.13064393 0.99114572
vn 0.77281725 0.57222361 0.27443330
vn 0.38285807 0.89100796 -0.24397648
vn 0.88113762 0.46222168 -0.09973776
vn -0.54122551 0.83974614 0.04360459
vn 0.10150774 0.91173957 0.39802907
vn -0.16625261 0.97860163 0.12123914
vn -0.43207388 0.85959809 0.27276966
f 11//11 6//6 2//2
f 14//14 5//5 11//11
f 15//15 6//6 3//3
f 16//16 9//9 2//2
f 16//16 2//2 6//6
f 16//16 6//6 9//9
f 18//18 2//2 9//9
f 19//19 6//6 11//11
f 20//20 3//3 6//6
f 20//20 6//6 10//10
f 22//22 20//20 10//10
f 22//22 3//3 20//20
f 24//24 11//11 5//5
f 24//24 5//5 13//13
f 24//24 19//19 11//11
f 24//24 4//4 19//19
f 25//25 14//14 8//8
f 25//25 5//5 14//14
f 26//26 18//18 1//1
f 26//26 2//2 18//18
f 27//27 14//14 11//11
f 27//27 11//11 2//2
f 27//27 8//8 14//14
f 28//28 9//9 6//6
f 32//32 10//10 6//6
f 32//32 6//6 19//19
f 33//33 12//12 22//22
f 34//34 33//33 22//22
f 34//34 21//21 33//33
f 35//35 22//22 15//15
f 35//35 15//15 3//3
f 35//35 3//3 22//22
f 36//36 23//23 13//13
f 36//36 13//13 5//5
f 38//38 25//25 8//8
f 38//38 26//26 1//1
f 38//38 8//8 26//26
f 39//39 2//2 26//26
f 40//40 26//26 8//8
f 40//40 8//8 27//27
f 40//40 39//39 26//26
f 40//40 27//27 2//2
f 40//40 2//2 39//39
f 41//41 18//18 9//9
f 42//42 7//7 29//29
f 43//43 29//29 28//28
f 43//43 28//28 6//6
f 43//43 6//6 15//15
f 44//44 29//29 7//7
f 44//44 7//7 17//17
f 44//44 28//28 29//29
f 45//45 17//17 7//7
f 46//46 24//24 13//13
f 47//47 31//31 18//18
f 47//47 17//17 31//31
f 47//47 18//18 41//41
f 48//48 1//1 18//18
f 48//48 18//18 31//31
f 50//50 13//13 23//23
f 50//50 48//48 31//31
f 50//50 23//23 1//1
f 50//50 1//1 48//48
f 50//50 31//31 49//49
f 51//51 32//32 19//19
f 51//51 19//19 4//4
f 51//51 21//21 34//34
f 51//51 34//34 10//10
f 51//51 10//10 32//32
f 52//52 33//33 21//21
f 52//52 12//12 33//33
f 53//53 34//34 22//22
f 53//53 22//22 10//10
f 53//53 10//10 34//34
f 54//54 23//23 36//36
f 54//54 36//36 5//5
f 54//54 5//5 25//25
f 55//55 4//4 24//24
f 55//55 24//24 37//37
f 55//55 51//51 4//4
f 55//55 21//21 51//51
f 55//55 52//52 21//21
f 56//56 37//37 24//24
f 56//56 30//30 37//37
f 56//56 46//46 30//30
f 56//56 24//24 46//46
f 57//57 38//38 1//1
f 57//57 1//1 23//23
f 57//57 23//23 54//54
f 57//57 54//54 25//25
f 57//57 25//25 38//38
f 58//58 41//41 9//9
f 58//58 9//9 28//28
f 58//58 47//47 41//41
f 58//58 17//17 47//47
f 58//58 44//44 17//17
f 58//58 28//28 44//44
f 59//59 7//7 42//42
f 59//59 45//45 7//7
f 59//59 30//30 45//45
f 59//59 37//37 30//30
f 59//59 42//42 12//12
f 59//59 12//12 52//52
f 59//59 55//55 37//37
f 59//59 52//52 55//55
f 60//60 22//22 12//12
f 60//60 12//12 42//42
f 60//60 42//42 29//29
f 60//60 29//29 43//43
f 60//60 43//43 15//15
f 60//60 15//15 22//22
f 61//61 45//45 30//30
f 61//61 30//30 46//46
f 61//61 46//46 13//13
f 62//62 49//49 31//31
f 62//62 31//31 17//17
f 62//62 17//17 49//49
f 63//63 49//49 17//17
f 63//63 17//17 45//45
f 63//63 45//45 61//61
f 64//64 50//50 49//49
f 64//64 13//13 50//50
f 64//64 49//49 63//63
f 64//64 63//63 61//61
f 64//64 61//61 13//13

