# https://github.com/mikedh/trimesh
v 0.01867806 0.01083923 0.01035136
v 0.03416156 -0.00713800 -0.00070630
v 0.03425738 0.01543598 -0.01555002
v -0.01191607 0.00667173 -0.01975421
v -0.01190640 -0.00915462 -0.00071634
v 0.03407778 -0.00391312 -0.01870801
v -0.01184864 0.01066420 -0.00091440
v 0.03423346 0.01441193 -0.00078718
v 0.00927804 -0.00820188 -0.00066389
v 0.03438534 0.00924503 -0.01970421
v -0.01184954 -0.00712579 -0.01656062
v 0.00029095 0.01297514 -0.01330297
v 0.01174107 0.01049186 0.01032669
v -0.01202241 -0.00827615 -0.01458824
v 0.03419856 -0.00506238 -0.01771251
v -0.00469219 -0.00221703 -0.02075923
v 0.02523377 0.01245639 -0.01816742
v -0.01181459 0.01060378 -0.01469331
v 0.02489921 0.01523949 -0.00908632
v 0.01888972 0.01107798 0.00967557
v -0.01195031 0.00968395 -0.01777128
v -0.01187977 -0.00307800 -0.01981033
v 0.00340353 -0.00815293 -0.01240705
v 0.03419502 -0.00695897 -0.00901711
v 0.03408024 -0.00187491 -0.01951761
v -0.00581322 -0.00692433 -0.01750175
v -0.00825239 -0.00013434 -0.02079524
v 0.03423961 0.01365227 -0.01752748
v -0.00705583 0.01171051 -0.01010496
v 0.03422719 0.01542852 -0.00576124
v 0.02484352 0.01522355 -0.01225317
v 0.01057478 0.01403482 -0.00672834
v 0.02377164 0.01397295 -0.00093809
v 0.02601971 0.01401262 -0.01660165
v 0.03418434 -0.00600094 -0.01566520
v 0.00812961 -0.00818188 -0.00540815
v 0.01281181 0.00021309 -0.02068923
v 0.01035173 -0.00283059 -0.02058828
v -0.00571355 -0.00492467 -0.01955497
v 0.02908327 0.01237052 -0.01825829
v -0.00700026 0.01171716 -0.00915449
v 0.00026276 0.01282105 -0.00925609
v 0.02716841 0.01522552 -0.00680783
v 0.01057988 0.01163950 0.00497125
v 0.01079634 0.01402580 -0.01005299
v 0.01175957 0.01071441 0.00956043
v 0.01987621 -0.00672784 -0.01555139
v 0.03175664 -0.00696207 -0.01122702
v 0.00468338 0.00176649 -0.02059786
v -0.00030187 -0.00335337 -0.02052695
v 0.00557469 -0.00560437 -0.01867669
v -0.00680017 -0.00611646 -0.01829259
v -0.01184673 -0.00503334 -0.01836191
v 0.02944267 0.01517915 -0.00563619
v -0.00485070 -0.00805523 -0.01448596
v 0.02468795 -0.00568027 -0.01759598
v 0.00690500 -0.00449476 -0.01966005
v 0.00813208 -0.00683070 -0.01661720
vn 0.14161986 0.34380277 0.92830139
vn 0.63771283 -0.62740533 0.44686116
vn 0.61112178 0.73830400 -0.28537234
vn -0.66568310 0.23829841 -0.70716326
vn -0.61112726 -0.64143855 0.46376724
vn 0.59837108 -0.40100746 -0.69364621
vn -0.70235275 0.55745728 0.44265335
vn 0.67762979 0.59003112 0.43895461
vn 0.03132452 -0.72249694 0.69066414
vn 0.67021350 0.17191401 -0.72198299
vn -0.61893066 -0.60135413 -0.50527027
vn -0.12187119 0.97440742 -0.18888514
vn -0.12198216 0.36575283 0.92268371
vn -0.66388611 -0.71773403 -0.21003117
vn 0.67687872 -0.58293778 -0.44946496
vn -0.03611011 -0.20348573 -0.97841178
vn -0.03808564 0.56695344 -0.82286894
vn -0.68613121 0.71950058 -0.10743776
vn -0.05719130 0.99796773 0.02809924
vn -0.01949399 0.95496210 0.29608675
vn -0.67416336 0.58053901 -0.45659416
vn -0.69177594 -0.24576995 -0.67900160
vn 0.03934708 -0.99147359 -0.12422534
vn 0.71434432 -0.69864355 -0.04011702
vn 0.64412075 -0.15330089 -0.74940463
vn -0.00238535 -0.83543605 -0.54958249
vn -0.10913474 -0.01345230 -0.99393594
vn 0.62334883 0.48765909 -0.61124860
vn -0.19325753 0.98105608 -0.01343524
vn 0.66439334 0.74293883 0.08138422
vn -0.06592465 0.99466528 -0.07934056
vn -0.09375526 0.99096284 0.09593020
vn -0.05974434 0.97643272 0.20738796
vn -0.06607510 0.79009079 -0.60941826
vn 0.68921144 -0.69270095 -0.21249232
vn 0.04276546 -0.99873119 -0.02659189
vn 0.02469548 0.00931722 -0.99965160
vn 0.03008933 -0.30544378 -0.95173459
vn -0.05317116 -0.56723960 -0.82183457
vn -0.00679049 0.46220656 -0.88674629
vn -0.17503356 0.98439029 0.01841207
vn -0.13638721 0.98954650 0.04686432
vn -0.05443907 0.99298001 0.10500994
vn -0.08910502 0.97334322 0.21133685
vn -0.09078810 0.99569815 -0.01851252
vn -0.08588428 0.96356898 0.25329571
vn 0.04528592 -0.95757178 -0.28461461
vn 0.07030724 -0.99036234 -0.11932866
vn -0.00052502 0.10917279 -0.99402265
vn 0.00263590 -0.37916309 -0.92532610
vn 0.02611883 -0.73956091 -0.67258269
vn -0.07870791 -0.70732952 -0.70248844
vn -0.67132503 -0.46704299 -0.57549418
vn -0.05097468 0.98501995 0.16473397
vn 0.03395197 -0.96589400 -0.25670223
vn 0.04160065 -0.83376585 -0.55054872
vn 0.02774682 -0.60724480 -0.79403015
vn 0.03603991 -0.92100454 -0.38788111
f 8//8 1//1 2//2
f 9//9 5//5 2//2
f 9//9 2//2 1//1
f 10//10 8//8 2//2
f 10//10 3//3 8//8
f 13//13 7//7 5//5
f 13//13 9//9 1//1
f 13//13 5//5 9//9
f 14//14 5//5 7//7
f 17//17 10//10 4//4
f 20//20 13//13 1//1
f 20//20 1//1 8//8
f 21//21 14//14 7//7
f 21//21 4//4 14//14
f 21//21 7//7 18//18
f 21//21 17//17 4//4
f 21//21 18//18 12//12
f 21//21 12//12 3//3
f 22//22 14//14 4//4
f 23//23 5//5 14//14
f 24//24 15//15 10//10
f 24//24 10//10 2//2
f 25//25 15//15 6//6
f 25//25 10//10 15//15
f 26//26 14//14 11//11
f 27//27 4//4 10//10
f 27//27 22//22 4//4
f 27//27 16//16 22//22
f 28//28 3//3 10//10
f 29//29 18//18 7//7
f 29//29 12//12 18//18
f 30//30 8//8 3//3
f 30//30 3//3 19//19
f 31//31 19//19 3//3
f 31//31 3//3 12//12
f 32//32 19//19 31//31
f 33//33 20//20 8//8
f 33//33 8//8 30//30
f 34//34 21//21 3//3
f 34//34 17//17 21//21
f 34//34 28//28 17//17
f 34//34 3//3 28//28
f 35//35 15//15 24//24
f 36//36 5//5 23//23
f 36//36 23//23 24//24
f 36//36 24//24 2//2
f 36//36 2//2 5//5
f 37//37 10//10 25//25
f 37//37 16//16 27//27
f 38//38 25//25 6//6
f 38//38 37//37 25//25
f 38//38 16//16 37//37
f 39//39 22//22 16//16
f 40//40 28//28 10//10
f 40//40 10//10 17//17
f 40//40 17//17 28//28
f 41//41 29//29 7//7
f 41//41 12//12 29//29
f 42//42 32//32 12//12
f 42//42 7//7 32//32
f 42//42 41//41 7//7
f 42//42 12//12 41//41
f 43//43 30//30 19//19
f 43//43 19//19 32//32
f 43//43 32//32 33//33
f 44//44 32//32 7//7
f 44//44 33//33 32//32
f 45//45 32//32 31//31
f 45//45 31//31 12//12
f 45//45 12//12 32//32
f 46//46 13//13 20//20
f 46//46 20//20 33//33
f 46//46 33//33 44//44
f 46//46 44//44 7//7
f 46//46 7//7 13//13
f 47//47 35//35 23//23
f 48//48 35//35 24//24
f 48//48 24//24 23//23
f 48//48 23//23 35//35
f 49//49 37//37 27//27
f 49//49 27//27 10//10
f 49//49 10//10 37//37
f 50//50 39//39 16//16
f 50//50 16//16 38//38
f 51//51 26//26 39//39
f 52//52 39//39 26//26
f 52//52 26//26 11//11
f 52//52 11//11 39//39
f 53//53 39//39 11//11
f 53//53 22//22 39//39
f 53//53 11//11 14//14
f 53//53 14//14 22//22
f 54//54 43//43 33//33
f 54//54 33//33 30//30
f 54//54 30//30 43//43
f 55//55 47//47 23//23
f 55//55 23//23 14//14
f 56//56 15//15 35//35
f 56//56 35//35 47//47
f 56//56 51//51 15//15
f 56//56 26//26 51//51
f 57//57 50//50 38//38
f 57//57 39//39 50//50
f 57//57 51//51 39//39
f 57//57 38//38 6//6
f 57//57 6//6 15//15
f 57//57 15//15 51//51
f 58//58 55//55 14//14
f 58//58 14//14 26//26
f 58//58 47//47 55//55
f 58//58 56//56 47//47
f 58//58 26//26 56//56

