# https://github.com/mikedh/trimesh
v -0.02050170 0.00033338 0.01580068
v -0.01641523 -0.00877817 0.00574412
v -0.02058417 0.00775082 -0.01433462
v -0.03498260 0.00414758 -0.01581454
v -0.03493693 -0.00783803 0.01249385
v -0.02279377 -0.00691044 -0.01377300
v -0.03497267 0.00651966 0.00864160
v -0.02046423 0.00752032 0.00976823
v -0.02079683 -0.00881914 0.01375250
v -0.02052244 -0.00341589 -0.01611879
v -0.03509879 -0.00795248 -0.01309199
v -0.03493302 0.00850701 -0.00866447
v -0.03516105 0.00103557 0.01493775
v -0.01639390 -0.00379813 0.00574016
v -0.02049788 -0.00558661 0.01499149
v -0.01640615 -0.00859562 0.00058687
v -0.02062198 0.00557555 -0.01588020
v -0.03498983 -0.00610080 -0.01486192
v -0.03128059 -0.00902913 0.01196983
v -0.03489467 0.00744434 -0.01310096
v -0.02049520 0.00860854 0.00041515
v -0.03499337 0.00554576 0.01145893
v -0.03504239 -0.00630686 0.01409304
v -0.03502587 0.00753515 0.00345312
v -0.02045073 0.00586462 0.01337647
v -0.02062945 -0.00843406 0.01392343
v -0.02091624 -0.00772307 -0.01207635
v -0.01639390 -0.00379813 0.00057282
v -0.02538693 0.00565616 -0.01588953
v -0.02488158 -0.00602237 -0.01479680
v -0.03498834 -0.00437747 -0.01577168
v -0.03459641 -0.00881892 0.00489722
v -0.01952892 -0.00894643 0.00580069
v -0.03169847 0.00833487 -0.01232589
v -0.03494085 0.00586803 -0.01488860
v -0.02351469 0.00745613 0.00969974
v -0.02429656 -0.00857720 0.01389128
v -0.03504779 -0.00443195 0.01506867
v -0.03283083 0.00846545 -0.00158166
v -0.03509285 0.00271720 0.01432813
v -0.02046201 0.00655613 0.01232313
v -0.02049354 -0.00512681 -0.01485142
v -0.02368477 -0.00885188 -0.00027948
v -0.02046541 0.00855567 -0.01164139
v -0.03467296 -0.00866721 0.00945856
v -0.03377879 0.00843762 -0.01136334
v -0.03046024 0.00653799 -0.01495037
v -0.02643235 -0.00887746 0.01297768
v -0.03493363 0.00843849 -0.00365653
v -0.02443727 0.00628703 0.01217833
v -0.03286424 -0.00881395 0.00074984
v -0.02574399 0.00843399 -0.01254093
v -0.02866339 0.00753692 -0.01385727
v -0.03054517 0.00512893 -0.01583963
v -0.02863493 -0.00883483 -0.00029800
vn 0.51041886 0.13022461 0.85000831
vn 0.74127439 -0.65512076 0.14604471
vn 0.56677714 0.65707677 -0.49700482
vn -0.67577615 0.16533457 -0.71832519
vn -0.70312172 -0.61794517 0.35180052
vn 0.11767339 -0.76345527 -0.63505041
vn -0.68502655 0.70370036 0.18853229
vn 0.55118341 0.81052085 0.19812317
vn 0.28550276 -0.79373363 0.53709878
vn 0.56655122 -0.20819434 -0.79729219
vn -0.63196446 -0.69964877 -0.33333545
vn -0.69783253 0.71561745 -0.03035478
vn -0.69462204 0.14049242 0.70552258
vn 0.97948177 0.12388371 0.15896002
vn 0.51306555 -0.20692772 0.83303341
vn 0.73384826 -0.66755466 -0.12584717
vn 0.57268205 0.25971831 -0.77754850
vn -0.61597260 -0.45067485 -0.64611913
vn -0.11229918 -0.93271407 0.34268551
vn -0.70051094 0.60937374 -0.37141361
vn 0.56462832 0.82397778 0.04749186
vn -0.68055216 0.62678909 0.37945250
vn -0.70755469 -0.42420506 0.56516937
vn -0.72686007 0.67831772 0.10751516
vn 0.51533313 0.56514622 0.64423716
vn 0.50900034 -0.40571587 0.75915301
vn 0.42372251 -0.83370351 -0.35411536
vn 0.98816125 0.12577655 -0.08784988
vn -0.01807857 0.34944600 -0.93678208
vn 0.03455318 -0.60582455 -0.79484759
vn -0.64471974 -0.18854172 -0.74080259
vn -0.52246525 -0.85263673 -0.00637667
vn 0.03332559 -0.99941761 -0.00733755
vn -0.06260148 0.92323023 -0.37911345
vn -0.70072087 0.45030649 -0.55336636
vn -0.05806799 0.96365952 0.26074593
vn -0.04188531 -0.67184912 0.73950279
vn -0.66220936 -0.17077128 0.72959984
vn -0.06430581 0.99458249 0.08167278
vn -0.67205219 0.40154485 0.62217971
vn 0.53839829 0.74789197 0.38831028
vn 0.60842884 -0.51158013 -0.60671255
vn 0.01825426 -0.99839287 -0.05365133
vn 0.59455309 0.79268512 -0.13474762
vn -0.62386707 -0.77895060 0.06344959
vn -0.20207168 0.95664187 -0.20976979
vn -0.07950552 0.67665136 -0.73199851
vn -0.04657664 -0.92941139 0.36609437
vn -0.67324622 0.73885148 0.02894860
vn -0.09062526 0.86028490 0.50169409
vn -0.05299140 -0.99785267 -0.03849611
vn -0.01680305 0.96614291 -0.25745976
vn -0.06112044 0.81024254 -0.58289906
vn -0.05010835 0.29934283 -0.95282896
vn -0.00784205 -0.99907229 -0.04234445
f 13//13 4//4 11//11
f 14//14 1//1 2//2
f 15//15 2//2 1//1
f 16//16 14//14 2//2
f 21//21 8//8 14//14
f 23//23 13//13 11//11
f 23//23 11//11 5//5
f 24//24 12//12 4//4
f 24//24 4//4 13//13
f 24//24 22//22 7//7
f 25//25 1//1 14//14
f 26//26 9//9 2//2
f 26//26 2//2 15//15
f 27//27 11//11 6//6
f 28//28 14//14 16//16
f 28//28 17//17 3//3
f 28//28 16//16 10//10
f 28//28 10//10 17//17
f 29//29 17//17 10//10
f 29//29 10//10 4//4
f 29//29 3//3 17//17
f 30//30 6//6 11//11
f 30//30 11//11 18//18
f 31//31 18//18 11//11
f 31//31 11//11 4//4
f 31//31 4//4 10//10
f 31//31 30//30 18//18
f 31//31 10//10 30//30
f 33//33 2//2 9//9
f 33//33 9//9 19//19
f 33//33 16//16 2//2
f 35//35 4//4 12//12
f 35//35 12//12 20//20
f 36//36 7//7 22//22
f 36//36 24//24 7//7
f 36//36 8//8 21//21
f 37//37 9//9 26//26
f 37//37 26//26 15//15
f 37//37 23//23 5//5
f 37//37 5//5 19//19
f 38//38 15//15 1//1
f 38//38 1//1 13//13
f 38//38 13//13 23//23
f 38//38 37//37 15//15
f 38//38 23//23 37//37
f 39//39 21//21 12//12
f 39//39 36//36 21//21
f 39//39 24//24 36//36
f 40//40 24//24 13//13
f 40//40 22//22 24//24
f 40//40 25//25 22//22
f 40//40 13//13 1//1
f 40//40 1//1 25//25
f 41//41 25//25 14//14
f 41//41 14//14 8//8
f 41//41 8//8 36//36
f 42//42 27//27 6//6
f 42//42 10//10 16//16
f 42//42 16//16 27//27
f 42//42 30//30 10//10
f 42//42 6//6 30//30
f 43//43 27//27 16//16
f 43//43 11//11 27//27
f 43//43 16//16 33//33
f 43//43 33//33 19//19
f 44//44 21//21 14//14
f 44//44 14//14 28//28
f 44//44 28//28 3//3
f 44//44 12//12 21//21
f 45//45 32//32 19//19
f 45//45 19//19 5//5
f 45//45 5//5 11//11
f 45//45 11//11 32//32
f 46//46 34//34 20//20
f 46//46 20//20 12//12
f 46//46 12//12 44//44
f 47//47 35//35 20//20
f 47//47 3//3 29//29
f 48//48 37//37 19//19
f 48//48 19//19 9//9
f 48//48 9//9 37//37
f 49//49 39//39 12//12
f 49//49 12//12 24//24
f 49//49 24//24 39//39
f 50//50 41//41 36//36
f 50//50 36//36 22//22
f 50//50 22//22 25//25
f 50//50 25//25 41//41
f 51//51 32//32 11//11
f 51//51 19//19 32//32
f 52//52 44//44 3//3
f 52//52 3//3 34//34
f 52//52 46//46 44//44
f 52//52 34//34 46//46
f 53//53 34//34 3//3
f 53//53 3//3 47//47
f 53//53 47//47 20//20
f 53//53 20//20 34//34
f 54//54 47//47 29//29
f 54//54 29//29 4//4
f 54//54 4//4 35//35
f 54//54 35//35 47//47
f 55//55 51//51 11//11
f 55//55 11//11 43//43
f 55//55 43//43 19//19
f 55//55 19//19 51//51

