# https://github.com/mikedh/trimesh
v -0.04236371 -0.00444338 0.01822143
v -0.04230254 -0.01136937 0.01493981
v -0.04232847 -0.00435726 -0.01787055
v -0.05645086 -0.00451071 -0.01778577
v -0.07135436 -0.02668835 0.01706189
v -0.07188241 -0.00421706 0.00493153
v -0.06491176 -0.02307612 0.02000638
v -0.05968768 -0.02662744 -0.00683039
v -0.07171816 -0.00435793 -0.00694937
v -0.04242924 -0.00747671 0.01788246
v -0.06834927 -0.00438858 0.01943901
v -0.04248753 -0.01150017 -0.01430115
v -0.05979519 -0.02664911 0.01044563
v -0.05709238 -0.02046942 -0.01531870
v -0.06850715 -0.02503787 -0.00704125
v -0.07203550 -0.00449778 0.01468814
v -0.04242308 -0.00961946 0.01676745
v -0.06307830 -0.02154644 0.02006699
v -0.06961174 -0.02318696 0.01903168
v -0.05929779 -0.00436838 0.02017471
v -0.04236300 -0.00938396 -0.01632393
v -0.05786234 -0.02576862 0.00384086
v -0.06639165 -0.02675982 0.01797168
v -0.05677445 -0.01344656 -0.01757801
v -0.05708799 -0.02290226 -0.01351059
v -0.06473961 -0.02785346 -0.00561261
v -0.07060493 -0.01731789 -0.00679491
v -0.07062907 -0.02235030 0.01801101
v -0.06352275 -0.02347348 0.01919276
v -0.06787246 -0.02586643 0.01874189
v -0.06676952 -0.00437291 0.02029638
v -0.05944976 -0.01376342 0.01990186
v -0.06160189 -0.02775004 0.00828608
v -0.05765553 -0.02558026 0.00478605
v -0.05894993 -0.02556182 0.01246307
v -0.04236130 -0.00741445 -0.01736365
v -0.06676846 -0.02711154 -0.00690033
v -0.06265014 -0.02777689 -0.00565717
v -0.06944419 -0.02284316 -0.00693232
v -0.06969644 -0.01976709 0.01887281
v -0.06610983 -0.02569153 0.01897701
v -0.06902540 -0.02518327 0.01863178
v -0.06575892 -0.02308769 0.02006528
v -0.06803069 -0.02683704 0.01778574
v -0.06172962 -0.02782004 -0.00101006
v -0.06305822 -0.02766923 0.01255317
v -0.06465481 -0.02558287 0.01808655
v -0.07086254 -0.02715242 0.01496797
v -0.07055343 -0.01845597 -0.00567043
v -0.07067103 -0.02557796 0.01781870
v -0.06693506 -0.02190233 0.02003703
v -0.06509737 -0.02783846 0.01396311
v -0.06642436 -0.02779860 0.00030249
v -0.06811996 -0.02778039 0.01406501
v -0.06551881 -0.02784331 -0.00332805
v -0.06762776 -0.02779892 0.00963039
vn 0.60960971 0.55799918 0.56303900
vn 0.84679111 -0.46353381 0.26092377
vn 0.58147961 0.53957676 -0.60888290
vn -0.23335925 0.62848696 -0.74198895
vn -0.71324676 -0.57155736 0.40571078
vn -0.68746639 0.72616809 -0.00835936
vn 0.18915780 -0.32557477 0.92640185
vn 0.41851723 -0.88110488 -0.22022151
vn -0.71449684 0.59075520 -0.37483672
vn 0.72779586 -0.16422058 0.66584141
vn -0.47907577 0.66635502 0.57136451
vn 0.82140033 -0.50215895 -0.27044016
vn 0.51239093 -0.84604905 0.14716160
vn -0.07802436 -0.45216746 -0.88851381
vn -0.73065723 -0.44647033 -0.51653098
vn -0.75395116 0.61398481 0.23362429
vn 0.77783864 -0.34312192 0.52653053
vn 0.21151683 -0.24069991 0.94727197
vn -0.49201815 -0.11528454 0.86291808
vn 0.05435738 0.68637003 0.72521821
vn 0.79216022 -0.33856708 -0.50779378
vn 0.57904494 -0.81528906 -0.00327182
vn 0.17368719 -0.83277453 0.52566087
vn -0.24500419 -0.16437853 -0.95548556
vn 0.21434405 -0.76828776 -0.60315052
vn -0.07306318 -0.96633090 -0.24671111
vn -0.87264771 -0.11238039 -0.47524374
vn -0.78228493 0.01490345 0.62274247
vn 0.40975806 -0.52630652 0.74505018
vn -0.16715736 -0.50259812 0.84820607
vn -0.17668930 0.65088514 0.73832881
vn 0.11335232 -0.03150975 0.99305508
vn 0.27661675 -0.96020826 0.03851317
vn 0.61933808 -0.78400975 0.04182162
vn 0.54124054 -0.77217358 0.33287632
vn 0.71433872 -0.18966825 -0.67360682
vn -0.43025298 -0.77021456 -0.47079921
vn 0.13212330 -0.95854426 -0.25246058
vn -0.83126610 -0.24737243 -0.49779870
vn -0.66828455 0.02959190 0.74331695
vn 0.16841776 -0.57238956 0.80249962
vn -0.30564712 -0.31868572 0.89722865
vn -0.05374991 -0.21997076 0.97402454
vn -0.08746724 -0.85730346 0.50732658
vn 0.25263216 -0.96749900 -0.01107554
vn 0.29984321 -0.92727729 0.22416708
vn 0.46704387 -0.67176394 0.57498107
vn -0.61185791 -0.79092542 -0.00817804
vn -0.97887155 -0.17035013 -0.11309875
vn -0.53646248 -0.21392198 0.81636106
vn -0.20366237 -0.07737289 0.97597903
vn 0.12800142 -0.97324428 0.19081723
vn -0.23780621 -0.97038196 -0.04250948
vn -0.10535713 -0.98922336 0.10167116
vn -0.17801420 -0.98320177 -0.04031415
vn -0.13246344 -0.99107539 -0.01493316
f 1//1 2//2 3//3
f 6//6 1//1 3//3
f 9//9 6//6 3//3
f 9//9 3//3 4//4
f 10//10 2//2 1//1
f 16//16 9//9 5//5
f 16//16 6//6 9//9
f 16//16 11//11 6//6
f 17//17 2//2 10//10
f 18//18 10//10 1//1
f 18//18 17//17 10//10
f 20//20 1//1 6//6
f 21//21 3//3 2//2
f 21//21 2//2 12//12
f 22//22 8//8 12//12
f 24//24 4//4 3//3
f 24//24 14//14 15//15
f 24//24 9//9 4//4
f 25//25 12//12 8//8
f 25//25 21//21 12//12
f 25//25 14//14 21//21
f 27//27 5//5 9//9
f 27//27 9//9 24//24
f 28//28 16//16 5//5
f 28//28 11//11 16//16
f 28//28 5//5 19//19
f 29//29 18//18 7//7
f 29//29 17//17 18//18
f 31//31 11//11 19//19
f 31//31 18//18 20//20
f 31//31 20//20 6//6
f 31//31 6//6 11//11
f 32//32 20//20 18//18
f 32//32 18//18 1//1
f 32//32 1//1 20//20
f 33//33 22//22 13//13
f 34//34 2//2 13//13
f 34//34 13//13 22//22
f 34//34 22//22 12//12
f 34//34 12//12 2//2
f 35//35 13//13 2//2
f 36//36 21//21 14//14
f 36//36 14//14 24//24
f 36//36 24//24 3//3
f 36//36 3//3 21//21
f 37//37 15//15 14//14
f 37//37 14//14 25//25
f 37//37 25//25 26//26
f 38//38 26//26 25//25
f 38//38 25//25 8//8
f 39//39 27//27 24//24
f 39//39 24//24 15//15
f 40//40 28//28 19//19
f 40//40 19//19 11//11
f 40//40 11//11 28//28
f 41//41 29//29 7//7
f 41//41 30//30 23//23
f 42//42 5//5 30//30
f 43//43 42//42 30//30
f 43//43 19//19 42//42
f 43//43 7//7 18//18
f 43//43 18//18 31//31
f 43//43 41//41 7//7
f 43//43 30//30 41//41
f 44//44 30//30 5//5
f 44//44 23//23 30//30
f 45//45 8//8 22//22
f 45//45 22//22 33//33
f 45//45 38//38 8//8
f 45//45 26//26 38//38
f 46//46 33//33 13//13
f 46//46 35//35 23//23
f 46//46 13//13 35//35
f 47//47 35//35 2//2
f 47//47 23//23 35//35
f 47//47 41//41 23//23
f 47//47 2//2 17//17
f 47//47 17//17 29//29
f 47//47 29//29 41//41
f 48//48 15//15 37//37
f 48//48 39//39 15//15
f 48//48 5//5 39//39
f 49//49 39//39 5//5
f 49//49 5//5 27//27
f 49//49 27//27 39//39
f 50//50 42//42 19//19
f 50//50 19//19 5//5
f 50//50 5//5 42//42
f 51//51 43//43 31//31
f 51//51 31//31 19//19
f 51//51 19//19 43//43
f 52//52 45//45 33//33
f 52//52 26//26 45//45
f 52//52 33//33 46//46
f 52//52 46//46 23//23
f 52//52 23//23 44//44
f 53//53 48//48 37//37
f 54//54 44//44 5//5
f 54//54 5//5 48//48
f 54//54 52//52 44//44
f 55//55 53//53 37//37
f 55//55 37//37 26//26
f 55//55 26//26 52//52
f 56//56 54//54 48//48
f 56//56 48//48 53//53
f 56//56 53//53 55//55
f 56//56 55//55 52//52
f 56//56 52//52 54//54

