# https://github.com/mikedh/trimesh
v -0.06018151 0.01144121 0.01727518
v -0.04417200 0.00050295 0.01569172
v -0.04407622 0.00972508 -0.01277450
v -0.06267609 0.01044014 -0.01536731
v -0.07013482 0.00045535 0.01260010
v -0.05764737 0.01712830 -0.00713643
v -0.04415422 0.00880040 0.00896806
v -0.06552708 0.00056462 0.01750731
v -0.04414117 0.00057831 -0.01588876
v -0.05986588 0.01612146 -0.01145058
v -0.04427440 0.00499794 0.01465459
v -0.05922011 0.01683705 0.01092857
v -0.04420743 0.00981589 0.00377958
v -0.05898932 0.00056858 0.01740085
v -0.07033921 0.01230132 0.01105967
v -0.06061603 0.00042235 -0.01564857
v -0.04416415 0.00642832 -0.01548808
v -0.05979539 0.01683166 -0.01057187
v -0.04434260 0.00331632 0.01526421
v -0.04417492 0.00782651 0.01178539
v -0.05822509 0.01683820 0.00891395
v -0.06431271 0.01072013 0.01738140
v -0.06690936 0.00055090 0.01675711
v -0.07108099 0.01085742 -0.00630797
v -0.05919291 0.01039380 -0.01540241
v -0.04412240 0.00814877 -0.01456214
v -0.05746481 0.01592944 -0.01063226
v -0.06650890 0.01703928 -0.01018559
v -0.06108924 0.01253411 0.01718581
v -0.05833374 0.01600736 0.01273856
v -0.05759115 0.01704627 0.00391990
v -0.07107558 0.01088481 0.01085626
v -0.06568948 0.01051242 0.01668242
v -0.06908536 0.00062102 -0.01002023
v -0.06539052 0.01461461 -0.01335374
v -0.06214278 0.01411196 -0.01344302
v -0.06331823 0.01683926 0.00995304
v -0.06825415 0.01557165 -0.01009314
v -0.06327895 0.01214112 0.01732695
v -0.05982559 0.01506282 0.01521853
v -0.06177446 0.01694461 0.01187985
v -0.07100502 0.00594946 0.00003817
v -0.07029679 0.01254735 0.01087281
v -0.06359361 0.00053991 -0.01505559
v -0.06604382 0.01556833 -0.01255360
v -0.05916187 0.01205567 -0.01436821
v -0.06662627 0.01077593 -0.01399536
v -0.06698899 0.01507861 0.01160943
v -0.05919614 0.01338562 0.01605711
v -0.05845752 0.01517675 0.01436686
v -0.06156824 0.01416153 0.01626238
v -0.05923362 0.01595548 0.01375927
v -0.07089244 0.00816111 0.01052845
v -0.06982942 0.00075013 -0.00723957
v -0.06259134 0.00707997 -0.01542129
v -0.06622329 0.01687216 -0.01067712
v -0.06794049 0.01536458 -0.01096449
v -0.06989208 0.00693490 -0.00903834
v -0.06523968 0.01237620 -0.01438173
v -0.06682203 0.01338473 0.01322901
v -0.06100565 0.01416077 0.01626198
v -0.05840853 0.01424629 0.01513872
v -0.06261336 0.01504433 0.01536239
v -0.06077267 0.01686941 0.01201859
vn 0.15027131 0.15511931 0.97639978
vn 0.61332067 -0.54789934 0.56889724
vn 0.76663261 0.57481274 -0.28612017
vn -0.12868060 0.18954040 -0.97340420
vn -0.70230865 -0.65400150 0.28114871
vn 0.25141796 0.96372645 -0.08955634
vn 0.85287471 0.50408464 0.13602720
vn -0.19548143 -0.62986129 0.75170591
vn 0.57465572 -0.55828409 -0.59840594
vn 0.14274744 0.70923003 -0.69037377
vn 0.75713626 0.31215188 0.57385179
vn 0.22937240 0.96008579 0.16007367
vn 0.82296400 0.56588396 0.05005592
vn 0.05032932 -0.67101172 0.73973660
vn -0.72806330 0.42549419 0.53747421
vn -0.07043404 -0.68837946 -0.72192296
vn 0.66178420 0.17953301 -0.72788019
vn 0.14184910 0.90785086 -0.39457022
vn 0.60127562 0.18934525 0.77628345
vn 0.82367542 0.47027114 0.31686567
vn 0.31655591 0.94139769 0.11645919
vn -0.26982211 0.16109777 0.94933847
vn -0.49160360 -0.63101786 0.60011862
vn -0.96318867 0.18996843 -0.19020933
vn 0.04587097 0.29638841 -0.95396528
vn 0.72097079 0.40087399 -0.56524433
vn 0.33369694 0.86420862 -0.37654989
vn -0.35980345 0.90897082 -0.21050778
vn 0.12102388 0.34366779 0.93126026
vn 0.41054493 0.85586881 0.31454958
vn 0.25391018 0.96663795 0.03377401
vn -0.92794186 0.18910789 0.32118860
vn -0.58580471 0.27993354 0.76057219
vn -0.64040507 -0.67138568 -0.37299145
vn -0.19295725 0.50241416 -0.84282116
vn 0.08798582 0.57801667 -0.81126766
vn -0.26134525 0.96029090 0.09767321
vn -0.79531507 0.56493214 -0.21983088
vn -0.24395110 0.36030990 0.90036916
vn 0.20059071 0.70967847 0.67536645
vn -0.11765772 0.95897733 0.25791307
vn -0.99422325 -0.10581880 -0.01795840
vn -0.75087278 0.60050835 0.27491778
vn -0.33391941 -0.65472954 -0.67810549
vn -0.32053095 0.61445090 -0.72090915
vn 0.12076052 0.54122543 -0.83216100
vn -0.62934822 0.07656462 -0.77334253
vn -0.52333283 0.77692503 0.35001463
vn 0.32613614 0.47532079 0.81713240
vn 0.40910681 0.70950001 0.57379557
vn -0.05883177 0.60370471 0.79503424
vn 0.22668164 0.86042047 0.45639023
vn -0.99568467 -0.07802178 0.05024585
vn -0.76241148 -0.63708314 -0.11337462
vn -0.20251231 0.00527707 -0.97926550
vn -0.21642692 0.84508473 -0.48886725
vn -0.73743764 0.42074253 -0.52835731
vn -0.89747624 -0.01504241 -0.44080623
vn -0.30838300 0.28815595 -0.90656829
vn -0.54847018 0.54721701 0.63224521
vn 0.12758514 0.59001853 0.79724536
vn 0.37871997 0.55690896 0.73920470
vn -0.25791241 0.74451650 0.61577298
vn 0.08005465 0.95791452 0.27566470
f 7//7 2//2 3//3
f 8//8 5//5 2//2
f 9//9 3//3 2//2
f 13//13 7//7 3//3
f 13//13 3//3 6//6
f 14//14 8//8 2//2
f 14//14 2//2 1//1
f 16//16 9//9 2//2
f 16//16 2//2 5//5
f 16//16 4//4 9//9
f 18//18 3//3 10//10
f 19//19 1//1 2//2
f 19//19 2//2 11//11
f 20//20 11//11 2//2
f 20//20 2//2 7//7
f 21//21 7//7 13//13
f 22//22 14//14 1//1
f 22//22 8//8 14//14
f 23//23 5//5 8//8
f 25//25 17//17 9//9
f 25//25 9//9 4//4
f 26//26 3//3 9//9
f 26//26 9//9 17//17
f 26//26 10//10 3//3
f 26//26 17//17 25//25
f 27//27 18//18 6//6
f 27//27 6//6 3//3
f 27//27 3//3 18//18
f 28//28 6//6 18//18
f 29//29 19//19 11//11
f 29//29 1//1 19//19
f 30//30 20//20 7//7
f 30//30 21//21 12//12
f 30//30 7//7 21//21
f 31//31 21//21 13//13
f 31//31 13//13 6//6
f 31//31 12//12 21//21
f 32//32 5//5 23//23
f 33//33 23//23 8//8
f 33//33 8//8 22//22
f 33//33 32//32 23//23
f 33//33 15//15 32//32
f 34//34 16//16 5//5
f 35//35 25//25 4//4
f 36//36 10//10 26//26
f 36//36 35//35 10//10
f 36//36 25//25 35//35
f 39//39 22//22 1//1
f 39//39 1//1 29//29
f 39//39 33//33 22//22
f 41//41 31//31 6//6
f 41//41 6//6 28//28
f 41//41 28//28 37//37
f 41//41 12//12 31//31
f 42//42 32//32 24//24
f 43//43 32//32 15//15
f 43//43 24//24 32//32
f 43//43 38//38 24//24
f 43//43 28//28 38//38
f 44//44 16//16 34//34
f 45//45 18//18 10//10
f 45//45 10//10 35//35
f 46//46 36//36 26//26
f 46//46 26//26 25//25
f 46//46 25//25 36//36
f 47//47 44//44 34//34
f 48//48 43//43 15//15
f 48//48 41//41 37//37
f 48//48 37//37 28//28
f 48//48 28//28 43//43
f 49//49 29//29 11//11
f 50//50 11//11 20//20
f 50//50 20//20 30//30
f 51//51 39//39 29//29
f 52//52 30//30 12//12
f 52//52 50//50 30//30
f 52//52 40//40 50//50
f 53//53 42//42 5//5
f 53//53 5//5 32//32
f 53//53 32//32 42//42
f 54//54 34//34 5//5
f 54//54 5//5 42//42
f 54//54 42//42 24//24
f 54//54 24//24 34//34
f 55//55 4//4 16//16
f 55//55 16//16 44//44
f 55//55 47//47 4//4
f 55//55 44//44 47//47
f 56//56 45//45 28//28
f 56//56 28//28 18//18
f 56//56 18//18 45//45
f 57//57 38//38 28//28
f 57//57 28//28 45//45
f 57//57 45//45 47//47
f 57//57 24//24 38//38
f 58//58 47//47 34//34
f 58//58 34//34 24//24
f 58//58 57//57 47//47
f 58//58 24//24 57//57
f 59//59 35//35 4//4
f 59//59 4//4 47//47
f 59//59 47//47 45//45
f 59//59 45//45 35//35
f 60//60 48//48 15//15
f 60//60 15//15 33//33
f 60//60 33//33 39//39
f 61//61 49//49 40//40
f 61//61 29//29 49//49
f 61//61 51//51 29//29
f 62//62 49//49 11//11
f 62//62 40//40 49//49
f 62//62 50//50 40//40
f 62//62 11//11 50//50
f 63//63 41//41 48//48
f 63//63 39//39 51//51
f 63//63 60//60 39//39
f 63//63 48//48 60//60
f 63//63 52//52 41//41
f 63//63 40//40 52//52
f 63//63 61//61 40//40
f 63//63 51//51 61//61
f 64//64 52//52 12//12
f 64//64 12//12 41//41
f 64//64 41//41 52//52

