# OBJ generated by ONSHAPE BY PTC INC, 1.199 Units = meters
g Part 1
v 0.0351015 -0.0572206 0.075 
v 0.0351015 -0.0572206 0 
v 0.0483385 -0.0965127 0 
v 0.0483385 -0.0965127 0.075 
v 0.0895188 -0.0965127 0 
v 0.0895188 -0.0965127 0.075 
v 0.0895188 -0.0949553 0 
v 0.0895188 -0.0949553 0.075 
v 0.0187229 0.0940831 0 
v 0.0187229 0.0940831 0.075 
v -0.0176369 0.0940831 0 
v -0.0176369 0.0940831 0.075 
v -0.0885972 -0.0965127 0 
v -0.0885972 -0.0965127 0.075 
v -0.0468337 -0.0965127 0 
v -0.0468337 -0.0965127 0.075 
v -0.0337643 -0.0572206 0 
v -0.0337643 -0.0572206 0.075 
v 0.0245036 -0.0254267 0.075 
v -0.0231663 -0.0254267 0.075 
v 0.000542966 0.0459105 0.075 
v -0.0231663 -0.0254267 0 
v 0.0245036 -0.0254267 0 
v 0.000542966 0.0459105 0 
vn -0.947668 -0.319257 0 
vn 0 -1 0 
vn 1 0 0 
vn 0.936481 0.350717 0 
vn 0 1 0 
vn -0.937156 0.34891 0 
vn 0 -1 0 
vn 0.948885 -0.315621 0 
vn 0 0 1 
vn 0 0 -1 
vn 0 1 0 
vn 0.948962 -0.315392 0 
vn -0.947957 -0.318398 0 
usemtl 0.615686_0.811765_0.929412_0.000000_0.000000
# o mesh0
f 1//1 2//1 3//1 
f 3//1 4//1 1//1 
# o mesh1
f 4//2 3//2 5//2 
f 5//2 6//2 4//2 
# o mesh2
f 6//3 5//3 7//3 
f 7//3 8//3 6//3 
# o mesh3
f 8//4 7//4 9//4 
f 9//4 10//4 8//4 
# o mesh4
f 10//5 9//5 11//5 
f 11//5 12//5 10//5 
# o mesh5
f 12//6 11//6 13//6 
f 13//6 14//6 12//6 
# o mesh6
f 14//7 13//7 15//7 
f 15//7 16//7 14//7 
# o mesh7
f 16//8 15//8 17//8 
f 17//8 18//8 16//8 
# o mesh8
f 18//7 17//7 2//7 
f 2//7 1//7 18//7 
# o mesh9
f 4//9 6//9 8//9 
f 8//9 19//9 1//9 
f 18//9 1//9 19//9 
f 19//9 20//9 18//9 
f 14//9 16//9 18//9 
f 10//9 21//9 19//9 
f 12//9 14//9 20//9 
f 18//9 20//9 14//9 
f 10//9 12//9 21//9 
f 8//9 1//9 4//9 
f 20//9 21//9 12//9 
f 19//9 8//9 10//9 
# o mesh10
f 3//10 2//10 7//10 
f 17//10 22//10 23//10 
f 7//10 5//10 3//10 
f 9//10 7//10 23//10 
f 13//10 22//10 17//10 
f 2//10 23//10 7//10 
f 23//10 24//10 9//10 
f 23//10 2//10 17//10 
f 11//10 24//10 22//10 
f 17//10 15//10 13//10 
f 24//10 11//10 9//10 
f 22//10 13//10 11//10 
# o mesh11
f 19//11 23//11 22//11 
f 22//11 20//11 19//11 
# o mesh12
f 20//12 22//12 24//12 
f 24//12 21//12 20//12 
# o mesh13
f 21//13 24//13 23//13 
f 23//13 19//13 21//13 
