# https://github.com/mikedh/trimesh
v 0.03567519 0.04881729 0.07500000
v 0.05713115 -0.00847416 0.07500000
v 0.03697887 0.04533621 0.00000000
v 0.00236898 0.04932197 0.00000000
v 0.02237393 -0.01908610 0.07500000
v 0.03567519 0.04881729 0.00000000
v 0.00236898 0.04932197 0.07500000
v 0.05434965 -0.01998560 0.00000000
v 0.00579977 0.03025959 0.07500000
v 0.05713115 -0.00847416 0.00000000
v 0.05434965 -0.01998560 0.07500000
v 0.02237393 -0.01908610 0.00000000
v 0.00579977 0.03025959 0.00000000
f 1 2 3
f 5 2 1
f 6 1 3
f 6 3 4
f 7 5 1
f 7 6 4
f 7 1 6
f 8 4 3
f 9 7 4
f 9 5 7
f 10 8 3
f 10 3 2
f 10 2 8
f 11 8 2
f 11 2 5
f 11 5 8
f 12 8 5
f 12 4 8
f 12 5 9
f 13 12 9
f 13 9 4
f 13 4 12

