# https://github.com/mikedh/trimesh
v 0.08024599 -0.07019516 0.07500000
v 0.08951880 -0.09651270 0.07500000
v 0.08889942 -0.09330143 0.00000000
v 0.03888492 -0.06845112 0.00000000
v 0.04833850 -0.09651270 0.07500000
v 0.08024599 -0.07019516 0.00000000
v 0.08889942 -0.09330143 0.07500000
v 0.03888492 -0.06845112 0.07500000
v 0.04833850 -0.09651270 0.00000000
v 0.08951880 -0.09651270 0.00000000
f 5 2 1
f 6 1 3
f 6 3 4
f 6 4 1
f 7 1 2
f 7 2 3
f 7 3 1
f 8 5 1
f 8 1 4
f 8 4 5
f 9 2 5
f 9 5 4
f 9 4 3
f 10 9 3
f 10 3 2
f 10 2 9

