# https://github.com/mikedh/trimesh
v 0.05748635 -0.00942263 0.07500000
v 0.06258394 -0.02303414 0.07500000
v 0.05973851 -0.01543632 0.00000000
v 0.05434965 -0.00843434 0.00000000
v 0.05434965 -0.01998560 0.07500000
v 0.05748635 -0.00942263 0.00000000
v 0.05434965 -0.00843434 0.07500000
v 0.05434965 -0.01998560 0.00000000
v 0.06258394 -0.02303414 0.01299517
v 0.05723747 -0.02287341 0.07500000
v 0.06163546 -0.02050153 0.00000000
f 5 2 1
f 6 3 4
f 6 1 2
f 7 5 1
f 7 6 4
f 7 1 6
f 8 4 3
f 8 7 4
f 8 5 7
f 9 6 2
f 10 2 5
f 10 5 8
f 10 9 2
f 10 8 9
f 11 9 8
f 11 8 3
f 11 3 6
f 11 6 9

