# https://github.com/mikedh/trimesh
v -0.03228480 -0.04597593 0.07500000
v -0.03543847 -0.06225385 0.07500000
v -0.03543847 -0.06225385 0.00000000
v -0.07013894 -0.04693473 0.00000000
v -0.08859720 -0.09651270 0.07500000
v -0.03228480 -0.04597593 0.00000000
v -0.07013894 -0.04693473 0.07500000
v -0.04683370 -0.09651270 0.07500000
v -0.08859720 -0.09651270 0.00000000
v -0.04683370 -0.09651270 0.00000000
f 1 2 3
f 5 2 1
f 6 1 3
f 6 3 4
f 7 5 1
f 7 4 5
f 7 6 4
f 7 1 6
f 8 3 2
f 8 2 5
f 9 5 4
f 9 4 3
f 9 8 5
f 10 9 3
f 10 3 8
f 10 8 9

