# Gmsh OBJ export
v 0.09748674929141998 0.1657135337591171 0.0005574627430178225
v 0.1371238678693771 0.1682632267475128 0.003124832175672054
v 0.1190971359610558 0.1641451120376587 0.0002361467631999403
v 0.1592549979686737 0.1650280207395554 0.00247256038710475
v 0.1455974578857422 0.1649441868066788 0.006263137329369783
v 0.1751852929592133 0.153982862830162 0.003532628761604428
v 0.1901006698608398 0.1489736139774323 0.004817060194909573
v 0.1091379001736641 0.161823570728302 0.004629557486623526
v 0.1084388494491577 0.1612820327281952 0.002000017557293177
v 0.1364875733852386 0.162351667881012 0.004873577505350113
v 0.1237060874700546 0.167451798915863 0.005601478274911642
v 0.1410522758960724 0.1622139811515808 0.000662416685372591
v 0.1624824404716492 0.1579888612031937 0.001112216152250767
v 0.203286200761795 0.1427381336688995 0.0009206319809891284
v 0.1920823603868484 0.1545837670564651 0.002428938169032335
v 0.1897256374359131 0.1540271192789078 -3.383253351785243e-05
v 0.2162385880947113 0.1322930604219437 0.00426396494731307
v 0.2137487828731537 0.1416747272014618 0.0007742822635918856
v 0.2332141846418381 0.1178617030382156 0.0003734705969691277
v 0.1979424059391022 0.1509560644626617 0.00547791039571166
v 0.2367792278528214 0.1062812730669975 0.003205857705324888
v 0.2231990844011307 0.1321283876895905 0.006028516218066216
v 0.2284725606441498 0.1196736022830009 0.002936508040875196
v 0.2366999089717865 0.1195082664489746 0.003773295087739825
v 0.2472666949033737 0.09410113841295242 0.001386108924634755
v 0.2410890012979507 0.09546976536512375 0.0009379003313370049
v 0.2414022088050842 0.08426593989133835 0.004526644013822079
v 0.1558356136083603 0.1638273000717163 0.001004031859338284
v 0.241372287273407 0.05596302822232246 0.003207245375961065
v 0.2466647624969482 0.07631911337375641 0.005945976823568344
v 0.2326224148273468 0.04625273495912552 0.00491902232170105
v 0.2480489611625671 0.07932734489440918 0.001261837896890938
v 0.2185442894697189 0.02973116189241409 0.001221821294166148
v 0.2138261049985886 0.03247249126434326 0.0006527953664772213
v 0.1982997804880142 0.01702757552266121 0.0007641248521395028
v 0.164650022983551 0.005999583285301924 -5.004066406399943e-05
v 0.1448307782411575 0.00670551834627986 0.004287554882466793
v 0.1390602886676788 0.006338662933558226 0.00163207168225199
v 0.1185120195150375 0.005609169602394104 0.004446174949407578
v 0.1470943093299866 0.004055693745613098 -0.0001175559591501951
v 0.1926345825195312 0.02105880156159401 0.002284042071551085
v 0.2428838163614273 0.1002742201089859 0.005610707681626081
v 0.1660493314266205 0.01099268440157175 0.004269008990377188
v 0.2431696504354477 0.06445611268281937 -0.0003217774792574346
v 0.2281850576400757 0.04671047627925873 0.004736253060400486
v 0.2248966991901398 0.03686341270804405 0.005769558250904083
v 0.2077075988054276 0.0216191615909338 0.004149102140218019
v 0.1746370941400528 0.007613435387611389 0.005394973326474428
v 0.1549484133720398 0.003045048099011183 0.002235818188637495
v 0.08292821794748306 0.008834619075059891 0.005864315200597048
v 0.1408593356609344 0.002427580067887902 0.006276199128478765
v 0.08753855526447296 0.009592602029442787 0.001655780011788011
v 0.0860220193862915 0.01007830165326595 0.004084651824086905
v 0.1163041740655899 0.005498403683304787 0.001228442182764411
v 0.09602060168981552 0.004480460658669472 -0.0005132561200298369
v 0.05150612816214561 0.01683759316802025 -5.766611866420135e-05
v 0.09911710023880005 0.001428965013474226 0.004973340313881636
v 0.05128597095608711 0.01588684692978859 0.005261904094368219
v 0.2391526699066162 0.07006006687879562 0.001830857247114182
v 0.2180306911468506 0.03756756335496902 0.003540899837389588
v 0.1925449073314667 0.01997841149568558 0.005090062506496906
v 0.1639103293418884 0.007365609053522348 0.005657593253999949
v 0.1299233734607697 -5.623940069199307e-06 0.0009435196407139301
v 0.05854234471917152 0.01886812597513199 0.002205681521445513
v 0.07649227231740952 0.005577435251325369 0.002124269725754857
v 0.05792193114757538 0.01798362843692303 0.005479193292558193
v 0.03726055100560188 0.02540878392755985 0.006355611141771078
v 0.03081515431404114 0.03200630471110344 -0.0003339249815326184
v 0.04453355073928833 0.02403157576918602 0.0003615728055592626
v 0.03452970832586288 0.03295141085982323 0.0026313834823668
v 0.02036697790026665 0.04622634500265121 0.004486285150051117
v 0.01782142370939255 0.0418098196387291 0.006023838650435209
v 0.00839407742023468 0.06763553619384766 0.003695554798468947
v 0.005059167742729187 0.08908694982528687 0.005640802904963493
v -0.0008902791887521744 0.08715423941612244 0.00343798566609621
v 0.006050027906894684 0.05478469654917717 0.004028238356113434
v 0.008668302558362484 0.1158596202731133 0.005941645242273808
v 0.01867479458451271 0.03906001523137093 0.00130934314802289
v 0.006176922470331192 0.1099635735154152 0.00056139548541978
v 0.01349621452391148 0.1232653185725212 0.004301669541746378
v 0.02200735360383987 0.1298952847719193 0.0007201621774584055
v 0.006246971897780895 0.06662771850824356 -4.735983020509593e-05
v 0.03453897312283516 0.1433264315128326 0.003645836375653744
v 0.04198335856199265 0.1444804519414902 0.0001960192748811096
v 0.05084040388464928 0.1518465131521225 0.0008388546411879361
v 0.02564685419201851 0.1296692192554474 0.0003026693011634052
v 0.006035275291651487 0.09202748537063599 0.001600093673914671
v 0.05022736266255379 0.1457682996988297 0.0009714808547869325
v 0.07546065747737885 0.1570917069911957 0.0002561287546996027
v 0.04454510658979416 0.1477723717689514 0.004311690106987953
v 0.06786070764064789 0.1598646491765976 0.004761110059916973
v 0.07944896072149277 0.1562235653400421 0.00247673992998898
v 0.06989233195781708 0.159331202507019 0.00300001073628664
v 0.0729776918888092 0.1551573723554611 0.005202018655836582
v 0.08340728282928467 0.164211317896843 0.003248856402933598
v 0.08875055611133575 0.1618338376283646 0.005626385100185871
v 0.04222311079502106 0.14344123005867 0.005943356081843376
v 0.02971229329705238 0.1314686983823776 0.003857485949993134
v 0.01732834242284298 0.1167609095573425 0.001832264591939747
v 0.05465018376708031 0.1471538543701172 0.004049520008265972
f 1 2 3
f 4 2 5
f 6 7 5
f 8 9 10
f 5 2 11
f 12 13 10
f 6 14 7
f 15 16 4
f 17 7 14
f 14 6 13
f 14 18 19
f 15 4 20
f 16 13 12
f 14 13 16
f 21 22 23
f 18 24 19
f 18 15 20
f 22 24 18
f 19 25 26
f 26 27 21
f 18 20 22
f 23 17 14
f 22 7 17
f 19 23 14
f 4 16 28
f 21 23 19
f 18 14 16
f 29 30 31
f 32 30 29
f 29 31 33
f 34 35 36
f 37 38 39
f 36 40 41
f 42 27 30
f 43 40 37
f 21 27 42
f 41 34 36
f 41 40 43
f 44 29 33
f 33 35 34
f 22 21 42
f 31 45 46
f 47 48 35
f 36 49 40
f 38 37 40
f 46 33 31
f 50 51 39
f 52 53 39
f 52 39 54
f 54 39 38
f 47 35 33
f 47 33 46
f 20 4 5
f 35 48 36
f 55 56 52
f 57 50 58
f 59 32 44
f 45 44 60
f 45 31 30
f 61 43 62
f 63 51 57
f 64 53 52
f 55 52 54
f 60 41 61
f 57 65 55
f 30 59 45
f 36 48 49
f 40 49 63
f 63 54 38
f 63 38 40
f 59 30 27
f 25 30 32
f 61 41 43
f 66 53 64
f 66 67 58
f 66 58 50
f 44 33 34
f 56 68 69
f 50 53 66
f 66 64 67
f 67 64 70
f 67 70 71
f 42 30 25
f 37 51 62
f 65 58 56
f 37 39 51
f 55 54 63
f 59 27 26
f 26 21 19
f 18 16 15
f 69 70 64
f 48 47 46
f 60 46 45
f 25 19 24
f 68 71 70
f 51 49 48
f 25 59 26
f 69 64 56
f 56 64 52
f 65 56 55
f 63 49 51
f 45 59 44
f 32 59 25
f 72 71 73
f 72 73 74
f 72 74 75
f 72 67 71
f 76 72 75
f 77 75 74
f 65 57 58
f 78 67 72
f 78 72 76
f 79 77 80
f 81 79 80
f 56 58 67
f 79 75 77
f 56 67 68
f 68 67 78
f 82 76 75
f 81 80 83
f 84 83 85
f 78 76 82
f 86 81 83
f 84 86 83
f 82 68 78
f 87 75 79
f 86 79 81
f 88 84 85
f 1 89 85
f 87 74 73
f 82 73 71
f 51 48 62
f 62 48 61
f 61 48 46
f 61 46 60
f 53 50 39
f 51 50 57
f 90 85 83
f 55 63 57
f 82 71 68
f 91 85 90
f 83 80 77
f 68 70 69
f 89 3 9
f 89 92 88
f 1 85 93
f 93 85 91
f 41 60 34
f 34 60 44
f 42 25 24
f 42 24 22
f 1 3 89
f 9 92 89
f 86 84 88
f 92 9 8
f 94 92 8
f 11 1 95
f 96 95 91
f 91 97 94
f 98 77 99
f 99 77 74
f 99 74 87
f 87 73 82
f 9 3 12
f 9 12 10
f 100 88 92
f 11 8 10
f 10 5 11
f 94 100 92
f 88 98 86
f 94 8 96
f 96 8 11
f 99 79 86
f 99 86 98
f 98 88 100
f 94 96 91
f 95 96 11
f 94 97 100
f 11 2 1
f 100 97 98
f 2 4 3
f 3 4 28
f 97 77 98
f 97 90 83
f 93 95 1
f 97 83 77
f 90 97 91
f 91 95 93
f 37 62 43
f 23 22 17
f 85 89 88
f 79 99 87
f 75 87 82
f 29 44 32
f 22 20 7
f 7 20 5
f 28 16 12
f 13 6 10
f 10 6 5
f 28 12 3
