# https://github.com/mikedh/trimesh
v 0.08030303 0.08030303 0.02000000
v 0.08030303 0.07121212 0.02000000
v 0.08030303 0.08030303 -0.02000000
v 0.06818182 0.08030303 -0.02000000
v 0.06818182 0.08030303 0.02000000
v 0.07500000 0.07121212 -0.02000000
v 0.08030303 0.07121212 -0.02000000
v 0.06818182 0.07500000 -0.02000000
v 0.07500000 0.07121212 0.02000000
v 0.06818182 0.07500000 0.02000000
f 1 2 3
f 1 3 4
f 5 2 1
f 5 1 4
f 6 4 3
f 7 6 3
f 7 3 2
f 8 5 4
f 8 4 6
f 9 8 6
f 9 2 5
f 9 7 2
f 9 6 7
f 10 9 5
f 10 5 8
f 10 8 9

