# https://github.com/mikedh/trimesh
v 0.00236898 0.04932197 0.07500000
v 0.00318490 0.03804476 0.07500000
v 0.00318490 0.03804476 0.00000000
v -0.03475939 0.04809296 0.00000000
v -0.06023429 -0.02033135 0.07500000
v 0.00236898 0.04932197 0.00000000
v -0.03475939 0.04809296 0.07500000
v -0.02100856 -0.01893442 0.07500000
v -0.06023429 -0.02033135 0.00000000
v -0.02100856 -0.01893442 0.00000000
f 1 2 3
f 5 2 1
f 6 1 3
f 6 3 4
f 7 5 1
f 7 4 5
f 7 6 4
f 7 1 6
f 8 3 2
f 8 2 5
f 9 5 4
f 9 4 3
f 9 8 5
f 10 9 3
f 10 3 8
f 10 8 9

