# https://github.com/mikedh/trimesh
v 0.02870276 -0.09454634 0.01961842
v 0.02872930 -0.10907996 0.01964001
v 0.00122864 -0.08391585 -0.03265362
v -0.03454970 -0.08392958 -0.03213347
v -0.04485326 -0.10531924 0.02860964
v -0.00291004 -0.11139130 -0.02506941
v 0.00123717 -0.08398265 0.01961842
v 0.02899414 -0.10800573 0.01134245
v -0.03466596 -0.09664842 0.03214456
v -0.03603326 -0.10281031 -0.03104722
v -0.04052910 -0.11144772 0.02338473
v -0.04873981 -0.08388937 0.01959436
v 0.02870276 -0.09454634 0.01116747
v 0.00123565 -0.10752278 -0.02923705
v -0.03521320 -0.10730485 0.03031106
v -0.04027827 -0.11105235 -0.02356435
v -0.04163631 -0.09661365 0.03019703
v 0.00116819 -0.10969847 -0.02712084
v 0.00108657 -0.10050092 -0.03092137
v -0.04183262 -0.10617977 0.02990833
v -0.04001180 -0.10970930 0.02841704
v -0.03989849 -0.10711055 -0.02916439
v -0.04509278 -0.10739540 0.01361926
v -0.04548518 -0.09945280 0.02772251
v -0.00314455 -0.10268122 -0.03073373
v -0.03946920 -0.10782157 0.03010831
v -0.03723669 -0.10907602 0.02904257
v -0.04290373 -0.10934609 0.02544300
v -0.03974493 -0.10915278 -0.02694311
v -0.04153127 -0.09601913 -0.02918225
v -0.04177517 -0.11097349 -0.00333724
v -0.04711328 -0.10312647 0.02479168
v -0.04347036 -0.10739938 0.02793618
v -0.04351069 -0.10773347 -0.02554359
v -0.04843650 -0.08393488 -0.01410284
v -0.04151794 -0.11108672 0.01948230
v -0.04515101 -0.10735425 0.02335981
v -0.04213836 -0.10943727 -0.02514495
v -0.04339177 -0.10672305 -0.02657477
v -0.04711057 -0.10269964 -0.00357628
v -0.04284888 -0.10961085 -0.02021397
v -0.04527912 -0.09653076 -0.02568844
v -0.04172811 -0.10284623 -0.02851482
v -0.04505169 -0.10604265 -0.02435541
v -0.04733459 -0.09856874 -0.01421960
v -0.04709294 -0.10059030 -0.01213525
vn 0.70058336 0.46901680 0.53777895
vn 0.63134084 -0.58275278 0.51167171
vn 0.39882272 0.58987465 -0.70213128
vn -0.25803051 0.64812470 -0.71648770
vn -0.70329615 -0.29749804 0.64565428
vn 0.07273995 -0.94243930 -0.32636952
vn 0.18705089 0.85625750 0.48149253
vn 0.80763520 -0.53542442 -0.24707505
vn -0.02542745 0.26646727 0.96350851
vn -0.15561780 -0.18378136 -0.97057071
vn -0.27167633 -0.94765669 0.16774616
vn -0.66625183 0.66251002 0.34232875
vn 0.83743888 0.50905221 -0.19890192
vn 0.42858663 -0.42838571 -0.79548676
vn 0.07693221 -0.40705420 0.91015840
vn -0.26501779 -0.93540192 -0.23407012
vn -0.39699473 0.25940510 0.88040001
vn 0.36571670 -0.77110974 -0.52119196
vn 0.46938216 -0.13283316 -0.87294659
vn -0.36529222 -0.27762389 0.88853057
vn -0.23394106 -0.79750130 0.55611443
vn -0.31699034 -0.45049743 -0.83460721
vn -0.83390073 -0.55189428 -0.00471956
vn -0.75180640 0.08954737 0.65327514
vn 0.02410477 -0.19845598 -0.97981334
vn -0.17286765 -0.42976399 0.88623907
vn 0.05598812 -0.73805426 0.67241448
vn -0.62783183 -0.73446968 0.25764605
vn -0.17654122 -0.78388879 -0.59527436
vn -0.56145863 0.05267359 -0.82582667
vn -0.48898912 -0.87224981 -0.00836097
vn -0.94946046 -0.20708470 0.23588294
vn -0.60672622 -0.61054698 0.50903406
vn -0.71421361 -0.57230280 -0.40294966
vn -0.73755331 0.65507004 -0.16400717
vn -0.54240178 -0.83999742 0.01430565
vn -0.81420998 -0.57197844 0.09951268
vn -0.55796617 -0.73442245 -0.38639025
vn -0.68657355 -0.32118644 -0.65226991
vn -0.96393598 -0.26568680 -0.01542552
vn -0.69949882 -0.71286941 -0.05018571
vn -0.85258632 0.07047653 -0.51781235
vn -0.58929656 -0.07820937 -0.80412242
vn -0.90137946 -0.32290283 -0.28852874
vn -0.98985216 -0.11322764 -0.08586151
vn -0.97919745 -0.19527275 -0.05514451
f 7//7 1//1 3//3
f 8//8 1//1 2//2
f 8//8 2//2 6//6
f 9//9 2//2 1//1
f 9//9 1//1 7//7
f 10//10 4//4 3//3
f 11//11 6//6 2//2
f 12//12 7//7 3//3
f 12//12 3//3 4//4
f 12//12 9//9 7//7
f 13//13 8//8 3//3
f 13//13 3//3 1//1
f 13//13 1//1 8//8
f 15//15 2//2 9//9
f 16//16 6//6 11//11
f 17//17 9//9 12//12
f 18//18 14//14 8//8
f 18//18 8//8 6//6
f 19//19 3//3 8//8
f 19//19 8//8 14//14
f 19//19 10//10 3//3
f 20//20 17//17 5//5
f 20//20 9//9 17//17
f 21//21 11//11 2//2
f 22//22 10//10 14//14
f 22//22 14//14 18//18
f 24//24 17//17 12//12
f 24//24 5//5 17//17
f 25//25 19//19 14//14
f 25//25 14//14 10//10
f 25//25 10//10 19//19
f 26//26 15//15 9//9
f 26//26 9//9 20//20
f 26//26 20//20 21//21
f 27//27 21//21 2//2
f 27//27 2//2 15//15
f 27//27 26//26 21//21
f 27//27 15//15 26//26
f 28//28 11//11 21//21
f 29//29 22//22 18//18
f 29//29 18//18 6//6
f 29//29 6//6 16//16
f 30//30 4//4 10//10
f 30//30 10//10 22//22
f 31//31 16//16 11//11
f 32//32 24//24 12//12
f 32//32 5//5 24//24
f 33//33 28//28 21//21
f 33//33 5//5 28//28
f 33//33 21//21 20//20
f 33//33 20//20 5//5
f 35//35 12//12 4//4
f 36//36 31//31 11//11
f 36//36 11//11 28//28
f 37//37 28//28 5//5
f 37//37 5//5 32//32
f 37//37 32//32 23//23
f 37//37 36//36 28//28
f 37//37 23//23 31//31
f 37//37 31//31 36//36
f 38//38 29//29 16//16
f 38//38 22//22 29//29
f 39//39 38//38 34//34
f 39//39 22//22 38//38
f 40//40 23//23 32//32
f 40//40 32//32 12//12
f 41//41 31//31 23//23
f 41//41 34//34 38//38
f 41//41 38//38 16//16
f 41//41 16//16 31//31
f 42//42 35//35 4//4
f 42//42 4//4 30//30
f 43//43 30//30 22//22
f 43//43 22//22 39//39
f 43//43 42//42 30//30
f 43//43 39//39 42//42
f 44//44 34//34 41//41
f 44//44 35//35 42//42
f 44//44 42//42 39//39
f 44//44 39//39 34//34
f 44//44 41//41 23//23
f 44//44 23//23 40//40
f 45//45 35//35 44//44
f 45//45 40//40 12//12
f 45//45 12//12 35//35
f 46//46 45//45 44//44
f 46//46 44//44 40//40
f 46//46 40//40 45//45

