# https://github.com/mikedh/trimesh
v 0.02866092 -0.08184293 0.03177305
v 0.02882401 -0.10801836 0.02699111
v 0.02849546 -0.05648040 -0.03319392
v 0.00108334 -0.05653633 -0.03362683
v 0.00135838 -0.10438484 0.03030411
v 0.02045045 -0.10677274 -0.03097421
v 0.00095145 -0.05418527 0.00233781
v 0.02870104 -0.06717617 0.01970024
v 0.02870143 -0.10427585 0.03019709
v 0.02867258 -0.10627019 -0.03073196
v 0.02650731 -0.07122440 -0.03312510
v 0.00116819 -0.10969847 -0.02712084
v 0.00120331 -0.08181668 0.03310484
v 0.02456853 -0.05644070 0.00486262
v 0.02646824 -0.10711185 0.02828346
v 0.02860459 -0.06916473 -0.03301592
v 0.00098482 -0.07539301 -0.03321624
v 0.00137904 -0.10912060 0.02555594
v 0.02859728 -0.10935879 -0.02718583
v 0.00123717 -0.06708075 0.01961842
v 0.01596933 -0.08162682 0.03231296
v 0.00121140 -0.09020801 0.03223241
v 0.01176393 -0.07543715 -0.03309832
v 0.00108657 -0.10050092 -0.03092137
v 0.00080856 -0.10736520 0.02817217
v 0.02868778 -0.10931890 -0.01903027
v 0.00123565 -0.10752278 -0.02923705
v 0.02632529 -0.10919581 0.02389702
v 0.02022998 -0.10917038 0.02511855
vn 0.64708882 0.23374120 0.72570042
vn 0.68345878 -0.63786259 0.35498651
vn 0.58664254 0.56767267 -0.57757966
vn -0.57423573 0.55163258 -0.60494200
vn -0.52360370 -0.28529746 0.80277302
vn 0.00945818 -0.48406394 -0.87498151
vn -0.62209267 0.75230248 0.21689097
vn 0.68667616 0.54935715 0.47611193
vn 0.64575323 -0.26709771 0.71530524
vn 0.64985889 -0.33170958 -0.68385099
vn 0.05546053 -0.04176675 -0.99758692
vn -0.62779082 -0.72138117 -0.29238313
vn -0.60645872 0.24635450 0.75598762
vn 0.46110962 0.84522228 0.27014294
vn 0.04609195 -0.69405916 0.71844096
vn 0.72869298 -0.01392721 -0.68469890
vn -0.69855798 -0.03435707 -0.71472816
vn -0.51765890 -0.82694190 0.21953668
vn 0.63189833 -0.73079422 -0.25815557
vn -0.65688920 0.55687406 0.50831865
vn 0.04151753 0.50174051 0.86402127
vn -0.62978132 -0.08843977 0.77172138
vn 0.01209800 -0.05487480 -0.99841995
vn -0.70767388 -0.10983921 -0.69794916
vn -0.67573583 -0.53371150 0.50846153
vn 0.71585005 -0.69825326 0.00104367
vn -0.64333292 -0.37743629 -0.66608153
vn 0.17703850 -0.97717854 0.11738599
vn 0.00744279 -0.96551041 0.26025806
f 7//7 3//3 4//4
f 8//8 1//1 2//2
f 9//9 2//2 1//1
f 11//11 4//4 3//3
f 11//11 10//10 6//6
f 13//13 9//9 1//1
f 14//14 8//8 3//3
f 14//14 3//3 7//7
f 14//14 7//7 8//8
f 15//15 9//9 5//5
f 15//15 2//2 9//9
f 16//16 8//8 2//2
f 16//16 2//2 10//10
f 16//16 3//3 8//8
f 16//16 11//11 3//3
f 16//16 10//10 11//11
f 17//17 4//4 11//11
f 17//17 7//7 4//4
f 19//19 12//12 6//6
f 19//19 6//6 10//10
f 20//20 13//13 8//8
f 20//20 8//8 7//7
f 20//20 7//7 13//13
f 21//21 13//13 1//1
f 21//21 1//1 8//8
f 21//21 8//8 13//13
f 22//22 5//5 9//9
f 22//22 9//9 13//13
f 23//23 17//17 11//11
f 23//23 11//11 6//6
f 23//23 6//6 17//17
f 24//24 17//17 6//6
f 25//25 15//15 5//5
f 25//25 5//5 22//22
f 25//25 12//12 18//18
f 25//25 24//24 12//12
f 25//25 7//7 17//17
f 25//25 17//17 24//24
f 25//25 22//22 13//13
f 25//25 13//13 7//7
f 25//25 18//18 2//2
f 25//25 2//2 15//15
f 26//26 19//19 10//10
f 26//26 10//10 2//2
f 27//27 24//24 6//6
f 27//27 6//6 12//12
f 27//27 12//12 24//24
f 28//28 26//26 2//2
f 28//28 12//12 19//19
f 28//28 19//19 26//26
f 29//29 28//28 2//2
f 29//29 2//2 18//18
f 29//29 18//18 12//12
f 29//29 12//12 28//28

