# https://github.com/mikedh/trimesh
v 0.02988646 -0.01734352 0.00118248
v 0.02456853 -0.05644070 0.00486262
v 0.02849546 -0.05648040 -0.03319392
v -0.03646393 0.02818922 -0.03308417
v -0.03702100 -0.00841345 0.01151909
v 0.02658633 0.00896812 -0.03287284
v 0.02870509 -0.03327724 0.00271445
v -0.03706959 0.02793371 -0.01640160
v -0.03638936 -0.08393272 -0.03183500
v 0.02867327 -0.00157538 -0.03288330
v -0.02403877 0.02800758 -0.03350753
v -0.03342771 -0.01944753 0.01250365
v -0.03809588 0.01308712 -0.00192884
v 0.02624225 0.00839521 -0.01553313
v 0.00123717 -0.08398265 0.00060378
v 0.03002352 -0.00247187 -0.00903275
v 0.02637762 -0.00200361 -0.03303742
v -0.02405609 -0.05229212 -0.03310462
v -0.03679211 -0.08398265 0.00060378
v -0.02434285 0.02778209 -0.02165972
v 0.00122864 -0.08391585 -0.03265362
v 0.02857532 -0.05242557 -0.03301901
v -0.02818546 -0.03955481 -0.03302916
v -0.00931063 -0.08384802 -0.03307996
v -0.03686111 -0.02262544 0.01117964
v -0.03715222 -0.00799935 0.01122154
v -0.03451410 0.00481828 -0.03301483
v -0.00324681 -0.08384491 -0.03307532
vn 0.73475089 0.20387250 0.64697537
vn 0.66060769 -0.33012525 0.67425128
vn 0.72465978 -0.31222325 -0.61431656
vn -0.56593047 0.59058369 -0.57526829
vn -0.43017615 0.24160270 0.86981412
vn 0.59834293 0.53176617 -0.59934171
vn 0.75240591 -0.02275641 0.65830654
vn -0.56583713 0.74681515 0.34942163
vn -0.58296376 -0.58756828 -0.56117445
vn 0.72787116 0.07469676 -0.68163331
vn 0.13092047 0.73141412 -0.66924824
vn -0.06745700 -0.00980481 0.99767400
vn -0.62804642 0.49030051 0.60428727
vn 0.60729697 0.69697251 0.38133938
vn 0.31014310 -0.76550575 0.56374835
vn 0.79610523 0.38692070 0.46530510
vn 0.03893551 0.00806367 -0.99920919
vn -0.03665235 -0.01111660 -0.99926624
vn -0.58666442 -0.62525495 0.51466602
vn 0.20878410 0.94470468 0.25286810
vn 0.32997079 -0.74940521 -0.57403058
vn 0.97643583 -0.00881262 -0.21562794
vn -0.05826281 -0.00871291 -0.99826326
vn -0.01297086 -0.66564806 -0.74615308
vn -0.74083006 -0.09227760 0.66532373
vn -0.79009526 0.27662713 0.54701637
vn -0.07689962 -0.00941591 -0.99699438
vn 0.01472966 -0.64345313 -0.76534378
f 7//7 2//2 3//3
f 7//7 3//3 1//1
f 11//11 4//4 8//8
f 12//12 2//2 7//7
f 12//12 7//7 1//1
f 12//12 1//1 5//5
f 13//13 5//5 1//1
f 13//13 8//8 4//4
f 13//13 4//4 9//9
f 14//14 8//8 13//13
f 15//15 3//3 2//2
f 15//15 2//2 12//12
f 16//16 1//1 3//3
f 16//16 10//10 6//6
f 16//16 6//6 14//14
f 16//16 14//14 13//13
f 16//16 13//13 1//1
f 17//17 10//10 3//3
f 17//17 6//6 10//10
f 17//17 11//11 6//6
f 17//17 3//3 11//11
f 19//19 15//15 12//12
f 19//19 9//9 15//15
f 19//19 13//13 9//9
f 20//20 11//11 8//8
f 20//20 8//8 14//14
f 20//20 14//14 6//6
f 20//20 6//6 11//11
f 21//21 15//15 9//9
f 21//21 3//3 15//15
f 22//22 16//16 3//3
f 22//22 3//3 10//10
f 22//22 10//10 16//16
f 23//23 18//18 9//9
f 23//23 4//4 11//11
f 23//23 11//11 18//18
f 24//24 18//18 11//11
f 24//24 11//11 3//3
f 24//24 21//21 9//9
f 24//24 9//9 18//18
f 25//25 19//19 12//12
f 25//25 12//12 5//5
f 26//26 5//5 13//13
f 26//26 13//13 19//19
f 26//26 25//25 5//5
f 26//26 19//19 25//25
f 27//27 23//23 9//9
f 27//27 9//9 4//4
f 27//27 4//4 23//23
f 28//28 24//24 3//3
f 28//28 3//3 21//21
f 28//28 21//21 24//24

