# https://github.com/mikedh/trimesh
v 0.01189982 0.08334007 0.01867802
v 0.02831722 0.08698216 0.00159071
v -0.04251080 0.09319866 0.00441834
v -0.04191254 0.08556134 -0.03086663
v 0.00333886 0.06814205 -0.03298001
v 0.02865905 0.09757103 -0.03043520
v 0.00336861 0.06806722 -0.02153544
v -0.03868614 0.09088721 -0.02191665
v -0.02202576 0.08234448 -0.03285496
v 0.02873790 0.08287533 -0.03270865
v 0.02838620 0.09719292 -0.00092203
v 0.00754487 0.08086068 0.01894202
v -0.04704300 0.08694488 0.01757795
v -0.04087955 0.08875555 -0.02774730
v -0.04216117 0.09341215 -0.00531976
v -0.02201034 0.06812937 -0.03304562
v 0.02547994 0.09514668 -0.03109030
v 0.00117061 0.07439036 -0.03307332
v 0.02943319 0.08399259 -0.02036921
v -0.02185567 0.06826758 -0.02166617
v -0.03329015 0.09165159 0.01803416
v -0.03422373 0.09102799 -0.02421789
v 0.01207573 0.09668919 -0.01923421
v -0.04364779 0.08872343 -0.02566220
v -0.04482456 0.09298061 0.00159866
v -0.02214861 0.07238912 -0.03311571
v -0.04649773 0.08480074 -0.02454263
v 0.02835717 0.09495495 -0.03105199
v 0.00117648 0.07032481 -0.03312197
v -0.00726244 0.08042606 -0.03289681
v 0.00327962 0.08081300 0.01874183
v -0.02821956 0.08379009 0.01857200
v 0.01178701 0.08834409 0.01751376
v -0.03475972 0.09333759 0.00613421
v -0.04568318 0.08892399 0.01712703
v 0.02147841 0.09727582 -0.02875143
v -0.04200149 0.08712902 -0.02911788
v -0.04404647 0.09304230 -0.00123618
v -0.04209225 0.08469403 -0.03091492
v -0.04541591 0.08755267 -0.02589831
v -0.04558882 0.09131252 0.00379006
v -0.00299060 0.06822301 -0.03309101
v -0.03649948 0.09120967 0.01781905
v -0.04548634 0.08471240 -0.02770737
v -0.04530211 0.08587741 -0.02739529
vn 0.47201625 -0.30558428 0.82693344
vn 0.83796354 -0.36786424 0.40310421
vn -0.18963244 0.97169139 0.14090912
vn -0.34726588 0.39696306 -0.84960387
vn 0.20758547 -0.73951366 -0.64033414
vn 0.56231013 0.65920336 -0.49925769
vn 0.24049094 -0.96210241 0.12854207
vn -0.18816550 0.95818561 -0.21557847
vn -0.04578509 0.15206899 -0.98730884
vn 0.67677999 -0.36544701 -0.63907537
vn 0.65895437 0.68858551 0.30270305
vn 0.18170702 -0.59344125 0.78409824
vn -0.74525795 -0.21763931 0.63025687
vn -0.22935576 0.83497061 -0.50021997
vn -0.27585495 0.95605148 -0.09934592
vn -0.24809194 -0.72531927 -0.64215446
vn -0.01311201 0.22600853 -0.97403707
vn 0.00409420 0.02135167 -0.99976364
vn 0.88096392 -0.47021091 0.05295536
vn -0.26042295 -0.95685228 0.12889378
vn -0.06277373 0.66894623 0.74065539
vn -0.13579175 0.95454536 -0.26533705
vn -0.05484706 0.99842516 0.01178956
vn -0.39583724 0.85749825 -0.32864818
vn -0.61060781 0.79182666 0.01298601
vn -0.05777637 0.00026203 -0.99832952
vn -0.94400849 -0.31068863 -0.11099796
vn 0.28682482 0.16328800 -0.94396427
vn 0.01282865 -0.01722139 -0.99976940
vn 0.00197166 0.03574513 -0.99935899
vn -0.03995136 -0.73411733 0.67784632
vn -0.09559081 -0.55074659 0.82918067
vn 0.31104429 0.51802706 0.79680576
vn -0.04682512 0.98932540 0.13799518
vn -0.47749989 0.67102065 0.56720820
vn -0.09078326 0.97672249 -0.19434909
vn -0.36902538 0.69948907 -0.61199289
vn -0.47081419 0.87490593 -0.11346193
vn -0.48267549 -0.17230813 -0.85868171
vn -0.74489470 0.57790187 -0.33340864
vn -0.93009307 0.36722502 0.00852438
vn 0.00188732 -0.41489623 -0.90986678
vn -0.16603362 0.68224277 0.71202362
vn -0.82999448 -0.27167537 -0.48713617
vn -0.77023796 0.35553377 -0.52946126
f 10//10 7//7 5//5
f 11//11 1//1 2//2
f 12//12 7//7 2//2
f 12//12 2//2 1//1
f 14//14 6//6 4//4
f 16//16 5//5 7//7
f 17//17 9//9 4//4
f 17//17 4//4 6//6
f 17//17 10//10 9//9
f 19//19 2//2 7//7
f 19//19 7//7 10//10
f 19//19 11//11 2//2
f 19//19 10//10 6//6
f 19//19 6//6 11//11
f 20//20 16//16 7//7
f 21//21 12//12 1//1
f 22//22 14//14 8//8
f 23//23 15//15 3//3
f 23//23 3//3 11//11
f 24//24 15//15 8//8
f 24//24 8//8 14//14
f 25//25 3//3 15//15
f 26//26 9//9 18//18
f 27//27 20//20 13//13
f 27//27 16//16 20//20
f 28//28 17//17 6//6
f 28//28 6//6 10//10
f 28//28 10//10 17//17
f 29//29 18//18 10//10
f 29//29 10//10 5//5
f 29//29 26//26 18//18
f 30//30 18//18 9//9
f 30//30 9//9 10//10
f 30//30 10//10 18//18
f 31//31 20//20 7//7
f 31//31 7//7 12//12
f 32//32 21//21 13//13
f 32//32 12//12 21//21
f 32//32 31//31 12//12
f 32//32 13//13 20//20
f 32//32 20//20 31//31
f 33//33 21//21 1//1
f 33//33 1//1 11//11
f 33//33 11//11 21//21
f 34//34 21//21 11//11
f 34//34 11//11 3//3
f 34//34 3//3 21//21
f 35//35 25//25 13//13
f 35//35 3//3 25//25
f 36//36 6//6 14//14
f 36//36 14//14 22//22
f 36//36 15//15 23//23
f 36//36 23//23 11//11
f 36//36 11//11 6//6
f 36//36 22//22 8//8
f 36//36 8//8 15//15
f 37//37 24//24 14//14
f 37//37 14//14 4//4
f 38//38 25//25 15//15
f 38//38 15//15 24//24
f 39//39 26//26 16//16
f 39//39 4//4 9//9
f 39//39 9//9 26//26
f 40//40 37//37 4//4
f 40//40 24//24 37//37
f 40//40 38//38 24//24
f 40//40 25//25 38//38
f 41//41 27//27 13//13
f 41//41 13//13 25//25
f 41//41 40//40 27//27
f 41//41 25//25 40//40
f 42//42 29//29 5//5
f 42//42 5//5 16//16
f 42//42 16//16 26//26
f 42//42 26//26 29//29
f 43//43 21//21 3//3
f 43//43 3//3 35//35
f 43//43 35//35 13//13
f 43//43 13//13 21//21
f 44//44 39//39 16//16
f 44//44 16//16 27//27
f 44//44 27//27 40//40
f 44//44 4//4 39//39
f 45//45 44//44 40//40
f 45//45 40//40 4//4
f 45//45 4//4 44//44

