# https://github.com/mikedh/trimesh
v 0.04101613 0.08278139 0.02988325
v 0.04759010 -0.00172503 0.01933183
v 0.04468237 0.05551995 0.01132794
v -0.04431070 0.08964343 0.01727575
v -0.02417210 -0.00160016 0.03129871
v -0.02408381 -0.00120944 0.01949129
v 0.04448405 0.09145200 0.01697900
v 0.04109911 -0.00166745 0.02997722
v -0.04018290 0.08076867 0.03000049
v 0.04613178 0.01547807 0.01054535
v -0.04776930 0.07670569 0.01735795
v 0.04775455 -0.00169462 0.01765826
v 0.03446058 0.05533388 0.01109509
v -0.04297284 0.08945710 0.02574684
v 0.04565527 0.08436461 0.02807185
v 0.04548391 -0.00191215 0.02879292
v -0.03465731 0.02806186 0.03124453
v 0.04669163 0.09024540 0.01739891
v 0.03518554 0.02587818 0.01119186
v -0.03870830 0.09116223 0.02146530
v -0.03869801 0.08751064 0.02781876
v -0.04705712 0.07891336 0.02337987
v 0.04119686 0.09093155 0.02473414
v 0.04748796 0.02172881 0.02519471
v 0.04310049 0.08065753 0.02969472
v -0.03461071 0.02789634 0.01958663
v -0.03857854 0.09094752 0.01785512
v -0.04404455 0.08800765 0.02600527
v -0.04580652 0.07689314 0.02509926
v -0.04726572 0.07678201 0.02130728
v -0.04720511 0.08670047 0.02258907
v 0.04263291 0.08926015 0.02658107
v -0.03634278 0.09112179 0.02308661
v 0.04612729 0.08925313 0.02290185
v 0.04730524 0.01546969 0.02536618
v 0.04766328 0.02370212 0.02353745
v 0.04266978 0.00900235 0.02983302
v -0.04024495 0.07654722 0.03008580
v -0.04531872 0.08772311 0.02496588
v -0.04719733 0.08666591 0.01757011
v 0.04274381 0.08767163 0.02766720
v 0.02913800 0.09123197 0.02399921
v 0.04217967 0.09110394 0.02322715
vn 0.10351319 0.21493675 0.97112677
vn 0.70549420 -0.70282461 0.09118938
vn 0.48094990 0.07546491 -0.87349427
vn -0.40305435 0.67350670 -0.61962562
vn -0.45940449 -0.66116706 0.59313205
vn -0.48944754 -0.66621248 -0.56267400
vn 0.26180637 0.78771605 -0.55763863
vn 0.09215978 -0.60251164 0.79277128
vn -0.32537551 0.13582811 0.93577855
vn 0.56356619 -0.12652488 -0.81632383
vn -0.78661464 -0.08735947 -0.61123295
vn 0.61869675 -0.65387240 -0.43550570
vn -0.02011877 0.07170789 -0.99722275
vn -0.35928268 0.76300105 0.53735031
vn 0.74355436 0.22564226 0.62945411
vn 0.55567138 -0.63011554 0.54238706
vn -0.68059610 -0.19871578 0.70519571
vn 0.76992454 0.50108728 -0.39513004
vn -0.08342680 -0.02362422 -0.99623384
vn -0.14672477 0.98728049 0.06122966
vn -0.08880684 0.50969425 0.85575996
vn -0.92266025 -0.02926074 0.38450211
vn 0.14208301 0.89714428 0.41826375
vn 0.95441219 -0.00340579 0.29847241
vn 0.31736416 0.05076588 0.94694393
vn -0.82685168 -0.26925207 -0.49378094
vn -0.07507183 0.84849786 -0.52384692
vn -0.52637486 0.34266151 0.77814690
vn -0.77935814 -0.05566512 0.62410118
vn -0.97366664 -0.13726718 0.18201920
vn -0.88613857 0.38165655 0.26286255
vn 0.30128421 0.68312365 0.66525928
vn -0.02894652 0.95985459 0.27900047
vn 0.80354044 0.52162615 0.28675587
vn 0.96360259 -0.02408110 0.26625202
vn 0.99866504 0.01204811 0.05022935
vn 0.21661041 -0.00121018 0.97625738
vn -0.38328342 -0.00034061 0.92363072
vn -0.73628556 0.44113791 0.51310907
vn -0.74779167 0.31484045 -0.58453666
vn 0.23551139 0.49016385 0.83921022
vn -0.00396360 0.96356888 0.26743093
vn 0.23937507 0.94805455 0.20950454
f 8//8 1//1 5//5
f 11//11 10//10 6//6
f 12//12 5//5 6//6
f 12//12 6//6 10//10
f 13//13 7//7 3//3
f 13//13 4//4 7//7
f 13//13 3//3 10//10
f 13//13 11//11 4//4
f 16//16 8//8 5//5
f 16//16 12//12 2//2
f 16//16 5//5 12//12
f 17//17 5//5 1//1
f 17//17 1//1 9//9
f 18//18 10//10 3//3
f 18//18 3//3 7//7
f 18//18 12//12 10//10
f 19//19 13//13 10//10
f 19//19 10//10 11//11
f 19//19 11//11 13//13
f 20//20 4//4 14//14
f 21//21 9//9 1//1
f 24//24 15//15 16//16
f 24//24 2//2 12//12
f 25//25 16//16 15//15
f 25//25 15//15 1//1
f 26//26 17//17 11//11
f 26//26 11//11 6//6
f 26//26 6//6 5//5
f 26//26 5//5 17//17
f 27//27 20//20 7//7
f 27//27 7//7 4//4
f 27//27 4//4 20//20
f 28//28 21//21 14//14
f 28//28 9//9 21//21
f 29//29 22//22 17//17
f 30//30 22//22 11//11
f 30//30 11//11 17//17
f 30//30 17//17 22//22
f 31//31 11//11 22//22
f 31//31 14//14 4//4
f 32//32 23//23 14//14
f 32//32 14//14 21//21
f 33//33 20//20 14//14
f 33//33 14//14 23//23
f 34//34 18//18 7//7
f 34//34 23//23 32//32
f 34//34 32//32 15//15
f 35//35 24//24 16//16
f 35//35 16//16 2//2
f 35//35 2//2 24//24
f 36//36 24//24 12//12
f 36//36 12//12 18//18
f 36//36 18//18 34//34
f 36//36 34//34 15//15
f 36//36 15//15 24//24
f 37//37 8//8 16//16
f 37//37 16//16 25//25
f 37//37 25//25 1//1
f 37//37 1//1 8//8
f 38//38 29//29 17//17
f 38//38 17//17 9//9
f 38//38 9//9 29//29
f 39//39 29//29 9//9
f 39//39 9//9 28//28
f 39//39 28//28 14//14
f 39//39 14//14 31//31
f 39//39 31//31 22//22
f 39//39 22//22 29//29
f 40//40 31//31 4//4
f 40//40 4//4 11//11
f 40//40 11//11 31//31
f 41//41 32//32 21//21
f 41//41 21//21 1//1
f 41//41 1//1 15//15
f 41//41 15//15 32//32
f 42//42 33//33 23//23
f 42//42 7//7 20//20
f 42//42 20//20 33//33
f 43//43 34//34 7//7
f 43//43 23//23 34//34
f 43//43 42//42 23//23
f 43//43 7//7 42//42

