# https://github.com/mikedh/trimesh
v -0.03502489 0.07657582 0.03031173
v -0.03412287 -0.11040317 -0.01344800
v -0.02418940 0.02796523 0.01969365
v -0.03513290 0.09010309 -0.02649397
v -0.04926385 -0.08164200 -0.00351263
v -0.03448916 -0.09648584 -0.03135314
v -0.03438395 0.08637007 0.01738527
v -0.04719733 0.08666591 0.01757011
v -0.03679211 -0.08398265 0.01961842
v -0.02408381 -0.00120944 0.01949129
v -0.03047161 0.01530652 -0.01630934
v -0.04749506 0.02798330 -0.02573583
v -0.04609414 -0.10298133 -0.02228937
v -0.02426474 0.02794096 0.03101906
v -0.04088836 0.08605505 0.02870563
v -0.04873981 -0.08388937 0.01959436
v -0.02417210 -0.00160016 0.03129871
v -0.03454970 -0.08392958 -0.03213347
v -0.04598582 0.08677290 -0.02441947
v -0.04940956 0.03213405 -0.01199585
v -0.03657194 -0.10605952 -0.02941236
v -0.04922585 -0.06695971 -0.01803716
v -0.04685683 -0.10293549 -0.01419853
v -0.04705875 0.00658633 0.02636569
v -0.03680771 -0.02710686 0.03141668
v -0.04337039 -0.08594509 -0.02872795
v -0.04680381 0.08682272 0.01346966
v -0.03676614 0.02800801 -0.03302367
v -0.04712432 0.08259925 -0.02244369
v -0.04916406 -0.01838631 0.02141444
v -0.04912698 0.00877456 -0.02014668
v -0.04694969 -0.09857425 -0.02002594
v -0.04515563 0.08605665 0.02642260
v -0.04426344 -0.00779765 0.02981283
v -0.03433412 0.01522190 0.03221811
v -0.04486020 -0.08600180 -0.02749299
v -0.04002052 -0.08585993 -0.03068794
v -0.04228079 0.02797260 -0.03123892
v -0.04700860 0.08469598 -0.02032145
v -0.04915736 0.03189601 0.00895363
v -0.04701421 -0.02045485 0.02645475
v -0.04923664 -0.06903712 0.01736787
v -0.04927084 0.01739157 -0.01818213
v -0.04908744 -0.02671555 -0.02016216
v -0.04697821 -0.09232653 -0.02207438
v -0.04733459 -0.09856874 -0.01421960
v -0.04920308 -0.07532725 -0.01189263
v -0.04710559 0.05730768 0.02477007
v -0.04222056 -0.02663426 0.02983677
v -0.04494869 0.04254562 0.02832300
v -0.02634423 0.01767078 0.03210784
v -0.04024495 0.07654722 0.03008580
v -0.04153127 -0.09601913 -0.02918225
v -0.03838023 -0.09634728 -0.03060774
v -0.04726572 0.07678201 0.02130728
v -0.04914718 0.03395111 0.00683087
v -0.04512976 -0.02261295 0.02819590
v -0.04917799 -0.08151764 0.00473944
v -0.04935710 0.03007700 -0.01407368
v -0.04694629 -0.03537767 -0.02550657
v -0.04527912 -0.09653076 -0.02568844
v -0.02638128 0.02110654 0.03195201
v -0.03242727 0.02129173 0.03208048
v -0.04192461 0.06374886 0.02975535
vn 0.57307425 0.24771536 0.78116772
vn 0.42719803 -0.89400181 0.13513925
vn 0.99520683 0.07011707 -0.06816856
vn 0.41178493 0.69412319 -0.59044575
vn -0.99802294 -0.06154655 -0.01273738
vn 0.59457973 -0.15095555 -0.78973879
vn 0.68855304 0.71099122 0.14278024
vn -0.71625801 0.68953378 0.10732022
vn 0.51765875 -0.45930946 0.72184780
vn 0.99675845 -0.03032204 -0.07451961
vn 0.96847458 0.01252956 -0.24879710
vn -0.87984196 0.01636841 -0.47498443
vn -0.78374431 -0.52551370 -0.33102902
vn 0.79209147 0.09465520 0.60301866
vn 0.06516646 0.68827251 0.72251940
vn -0.63228810 -0.42166873 0.64992864
vn 0.73940501 -0.06622754 0.66999563
vn 0.52546959 -0.02431099 -0.85046498
vn -0.63442839 0.55679453 -0.53617204
vn -0.99956122 0.02250768 -0.01925555
vn 0.20135913 -0.68806652 -0.69715060
vn -0.98112924 -0.01972635 -0.19234420
vn -0.80837600 -0.57890296 0.10676898
vn -0.86131032 0.00905818 0.50799851
vn 0.03819921 -0.13193548 0.99052201
vn -0.57621978 -0.04045842 -0.81629277
vn -0.34691741 0.93789381 0.00187311
vn 0.40726878 0.03850969 -0.91249611
vn -0.97120665 0.07264401 -0.22689313
vn -0.97862269 -0.00182258 0.20565579
vn -0.98406504 0.00096852 -0.17780624
vn -0.98626950 -0.09304807 -0.13643507
vn -0.61163801 0.62257556 0.48815839
vn -0.52788948 -0.00524582 0.84929687
vn -0.11495302 0.00241319 0.99336800
vn -0.79575625 -0.03917128 -0.60434890
vn -0.37906062 -0.03421826 -0.92473897
vn -0.52523981 0.02850918 -0.85047656
vn -0.97156739 0.23283250 -0.04296314
vn -0.99891742 0.01671542 0.04341182
vn -0.82793131 -0.02540599 0.56025376
vn -0.99713801 -0.01024375 0.07490561
vn -0.99550385 0.01113634 -0.09406414
vn -0.97450035 -0.00580868 -0.22431080
vn -0.95703277 -0.04939723 -0.28574149
vn -0.99443389 -0.09683196 -0.04153083
vn -0.99759117 -0.04585452 -0.05205013
vn -0.92459827 0.02201501 0.38030696
vn -0.41973684 -0.07998752 0.90411447
vn -0.68896862 0.01835446 0.72455873
vn 0.21695838 0.00941378 0.97613546
vn -0.28351718 0.07259742 0.95621526
vn -0.55347180 -0.16384927 -0.81659193
vn -0.31105064 -0.12014677 -0.94276840
vn -0.98226837 0.04395176 0.18225557
vn -0.99948719 0.02751102 0.01638578
vn -0.63484923 -0.05762203 0.77048436
vn -0.99800814 -0.06164807 0.01338914
vn -0.99783933 0.01697346 -0.06347101
vn -0.87576034 -0.01214171 -0.48259341
vn -0.79935637 -0.15063197 -0.58166949
vn 0.19141833 0.04779364 0.98034422
vn -0.00470901 0.02919057 0.99956277
vn -0.43949390 0.02194093 0.89797757
f 7//7 3//3 4//4
f 10//10 2//2 6//6
f 11//11 4//4 3//3
f 11//11 10//10 6//6
f 11//11 3//3 10//10
f 14//14 7//7 1//1
f 14//14 3//3 7//7
f 14//14 10//10 3//3
f 15//15 7//7 4//4
f 15//15 4//4 8//8
f 15//15 1//1 7//7
f 16//16 2//2 9//9
f 17//17 9//9 2//2
f 17//17 2//2 10//10
f 17//17 10//10 14//14
f 18//18 11//11 6//6
f 18//18 4//4 11//11
f 21//21 6//6 2//2
f 21//21 2//2 13//13
f 22//22 5//5 20//20
f 23//23 16//16 5//5
f 23//23 13//13 2//2
f 23//23 2//2 16//16
f 25//25 16//16 9//9
f 25//25 9//9 17//17
f 27//27 19//19 8//8
f 27//27 8//8 4//4
f 27//27 4//4 19//19
f 28//28 19//19 4//4
f 28//28 4//4 18//18
f 29//29 19//19 12//12
f 29//29 20//20 8//8
f 31//31 29//29 12//12
f 32//32 13//13 23//23
f 33//33 15//15 8//8
f 35//35 34//34 25//25
f 37//37 28//28 18//18
f 38//38 12//12 19//19
f 38//38 19//19 28//28
f 38//38 36//36 12//12
f 38//38 26//26 36//36
f 38//38 37//37 26//26
f 38//38 28//28 37//37
f 39//39 29//29 8//8
f 39//39 8//8 19//19
f 39//39 19//19 29//29
f 40//40 20//20 30//30
f 41//41 30//30 16//16
f 41//41 24//24 30//30
f 41//41 34//34 24//24
f 42//42 30//30 20//20
f 42//42 20//20 5//5
f 42//42 16//16 30//30
f 43//43 31//31 22//22
f 43//43 22//22 20//20
f 43//43 29//29 31//31
f 44//44 31//31 12//12
f 44//44 22//22 31//31
f 45//45 32//32 22//22
f 45//45 13//13 32//32
f 46//46 32//32 23//23
f 46//46 23//23 5//5
f 47//47 5//5 22//22
f 47//47 22//22 32//32
f 47//47 46//46 5//5
f 47//47 32//32 46//46
f 48//48 30//30 24//24
f 49//49 16//16 25//25
f 49//49 25//25 34//34
f 50//50 24//24 34//34
f 50//50 48//48 24//24
f 50//50 33//33 48//48
f 51//51 35//35 25//25
f 51//51 25//25 17//17
f 51//51 17//17 14//14
f 52//52 35//35 1//1
f 52//52 1//1 15//15
f 52//52 34//34 35//35
f 52//52 15//15 33//33
f 53//53 36//36 26//26
f 53//53 26//26 37//37
f 54//54 37//37 18//18
f 54//54 18//18 6//6
f 54//54 53//53 37//37
f 54//54 6//6 21//21
f 54//54 21//21 53//53
f 55//55 40//40 30//30
f 55//55 8//8 40//40
f 55//55 30//30 48//48
f 55//55 48//48 33//33
f 55//55 33//33 8//8
f 56//56 40//40 8//8
f 56//56 8//8 20//20
f 56//56 20//20 40//40
f 57//57 41//41 16//16
f 57//57 34//34 41//41
f 57//57 49//49 34//34
f 57//57 16//16 49//49
f 58//58 42//42 5//5
f 58//58 5//5 16//16
f 58//58 16//16 42//42
f 59//59 43//43 20//20
f 59//59 20//20 29//29
f 59//59 29//29 43//43
f 60//60 22//22 44//44
f 60//60 45//45 22//22
f 60//60 36//36 45//45
f 60//60 44//44 12//12
f 60//60 12//12 36//36
f 61//61 45//45 36//36
f 61//61 13//13 45//45
f 61//61 36//36 53//53
f 61//61 53//53 21//21
f 61//61 21//21 13//13
f 62//62 51//51 14//14
f 62//62 14//14 1//1
f 62//62 1//1 51//51
f 63//63 51//51 1//1
f 63//63 1//1 35//35
f 63//63 35//35 51//51
f 64//64 50//50 34//34
f 64//64 34//34 52//52
f 64//64 52//52 33//33
f 64//64 33//33 50//50

