# https://github.com/mikedh/trimesh
v 0.02870208 0.08292330 -0.02080625
v 0.02624225 0.00839521 -0.01553313
v 0.02658633 0.00896812 -0.03287284
v -0.03849218 0.08036683 -0.03294361
v -0.04736380 0.06589815 -0.01616546
v 0.02873790 0.08287533 -0.03270865
v 0.02901421 0.05790984 -0.02050564
v -0.02197404 0.08596451 -0.01598909
v -0.03900261 0.00879023 -0.03193004
v 0.00521801 0.00889098 -0.03319457
v 0.02927040 0.06988128 -0.02058023
v 0.02871467 0.05562527 -0.03159225
v -0.03435710 0.08553905 -0.01602122
v -0.02221423 0.09040364 -0.02649378
v -0.04909007 0.02795411 -0.01621103
v 0.00292535 0.05751672 -0.03308327
v -0.03248757 0.00898809 -0.03318006
v 0.01478061 0.00789432 -0.01621538
v -0.04649773 0.08480074 -0.02454263
v -0.03513290 0.09010309 -0.02649397
v -0.00096982 0.06384088 -0.03304140
v -0.03804207 0.03011629 -0.03299282
v -0.02345935 0.01015228 -0.01704478
v -0.04510762 0.04870684 -0.02911289
v -0.04209225 0.08469403 -0.03091492
v -0.03662782 0.00899174 -0.03266633
v -0.04749506 0.02798330 -0.02573583
v -0.04228079 0.02797260 -0.03123892
v -0.04548634 0.08471240 -0.02770737
v -0.03452586 0.08250333 -0.03290272
v -0.02206209 0.08442540 -0.03200365
v -0.04721240 0.06177624 -0.02415411
v -0.04319307 0.07277371 -0.03107373
v -0.04308038 0.08062129 -0.03097318
vn 0.62553660 0.56551659 0.53748949
vn 0.56366524 -0.57911080 0.58899251
vn 0.57606229 -0.57225968 -0.58367037
vn -0.19757613 0.10835346 -0.97428086
vn -0.70587503 0.08229464 0.70353964
vn 0.60488102 0.53682541 -0.58816445
vn 0.98656956 -0.02623533 0.16122102
vn 0.03636024 0.56440749 0.82469516
vn -0.57335940 -0.73117537 -0.36965061
vn 0.00623231 -0.68357234 -0.72985616
vn 0.89783453 0.02364086 0.43969792
vn 0.95629061 -0.02806332 -0.29106822
vn -0.19606259 0.54715381 0.81374577
vn 0.02312293 0.97973198 -0.19897382
vn -0.76007765 -0.23336440 0.60648415
vn 0.00498159 0.00465588 -0.99997675
vn -0.03801726 -0.63294686 -0.77326125
vn -0.01753524 -0.83873427 0.54425853
vn -0.82046104 0.54562265 0.17070329
vn -0.16961580 0.96906775 -0.17927123
vn 0.00246905 0.00961356 -0.99995074
vn -0.21086452 -0.00756976 -0.97748599
vn -0.14409144 -0.67979212 0.71911079
vn -0.75784140 -0.00061174 -0.65243853
vn -0.40027269 0.51318584 -0.75922465
vn -0.15712936 -0.52755340 -0.83486393
vn -0.90490204 -0.13816135 -0.40257141
vn -0.56778482 -0.04421006 -0.82198897
vn -0.75057343 0.49498363 -0.43775647
vn -0.03539559 0.32265994 -0.94585290
vn -0.00344084 0.56014306 -0.82838874
vn -0.97645121 0.02546682 -0.21422997
vn -0.60647807 0.00813344 -0.79505861
vn -0.60419316 0.06367008 -0.79429009
f 7//7 2//2 3//3
f 8//8 2//2 1//1
f 10//10 6//6 3//3
f 11//11 1//1 2//2
f 11//11 2//2 7//7
f 11//11 6//6 1//1
f 12//12 7//7 3//3
f 12//12 3//3 6//6
f 12//12 11//11 7//7
f 12//12 6//6 11//11
f 13//13 2//2 8//8
f 14//14 8//8 1//1
f 14//14 1//1 6//6
f 15//15 13//13 5//5
f 15//15 2//2 13//13
f 16//16 6//6 10//10
f 17//17 10//10 9//9
f 17//17 16//16 10//10
f 17//17 4//4 16//16
f 18//18 10//10 3//3
f 18//18 3//3 2//2
f 18//18 9//9 10//10
f 19//19 5//5 13//13
f 19//19 15//15 5//5
f 20//20 13//13 8//8
f 20//20 8//8 14//14
f 20//20 19//19 13//13
f 21//21 16//16 4//4
f 21//21 4//4 6//6
f 21//21 6//6 16//16
f 22//22 4//4 17//17
f 23//23 15//15 9//9
f 23//23 9//9 18//18
f 23//23 18//18 2//2
f 23//23 2//2 15//15
f 26//26 22//22 17//17
f 26//26 17//17 9//9
f 26//26 9//9 22//22
f 27//27 9//9 15//15
f 28//28 22//22 9//9
f 28//28 27//27 24//24
f 28//28 9//9 27//27
f 29//29 19//19 20//20
f 29//29 20//20 25//25
f 29//29 24//24 27//27
f 30//30 6//6 4//4
f 30//30 4//4 25//25
f 31//31 25//25 20//20
f 31//31 20//20 14//14
f 31//31 30//30 25//25
f 31//31 14//14 6//6
f 31//31 6//6 30//30
f 32//32 27//27 15//15
f 32//32 15//15 19//19
f 32//32 29//29 27//27
f 32//32 19//19 29//29
f 33//33 4//4 22//22
f 33//33 22//22 28//28
f 33//33 28//28 24//24
f 33//33 24//24 29//29
f 34//34 25//25 4//4
f 34//34 4//4 33//33
f 34//34 33//33 29//29
f 34//34 29//29 25//25

