# https://github.com/mikedh/trimesh
v 0.04709992 0.08652429 0.02516712
v 0.04599644 0.05558160 0.01790744
v 0.04773442 0.08236644 -0.02691016
v 0.02835717 0.09495495 -0.03105199
v 0.01131701 0.08617362 0.01667233
v 0.02871467 0.05562527 -0.03159225
v 0.03659881 0.10467838 -0.01960338
v 0.04954378 0.07300911 0.01082803
v 0.04708573 0.07447478 0.02555574
v 0.04785138 0.05522673 -0.02237997
v 0.04336752 0.08477205 -0.03118368
v 0.01177343 0.09727863 -0.01803107
v 0.03521104 0.05544937 0.01754152
v 0.04743481 0.08937649 0.00303094
v 0.02675981 0.10596996 -0.00499701
v 0.01179362 0.08513787 0.01766212
v 0.04946248 0.08445281 0.01960499
v 0.04964608 0.08091154 -0.00960890
v 0.04160819 0.08768705 -0.03115429
v 0.04405952 0.05535385 -0.02962707
v 0.02147841 0.09727582 -0.02875143
v 0.03502787 0.05525573 0.01518941
v 0.04614037 0.09111768 0.01490545
v 0.03909363 0.10244479 -0.01669408
v 0.02501168 0.09149587 0.01758303
v 0.01405300 0.10491888 -0.01111889
v 0.04770852 0.08594442 0.02492074
v 0.04957532 0.08119370 0.01889850
v 0.04954250 0.07492219 -0.00774550
v 0.04767180 0.08416974 -0.02648702
v 0.04925564 0.08421477 0.00325474
v 0.03164700 0.10010542 -0.02871495
v 0.02859659 0.05535793 -0.02093877
v 0.04081920 0.05545453 -0.03077759
v 0.04386700 0.07491021 -0.03114860
v 0.04732246 0.07521737 -0.02726104
v 0.01357814 0.09710474 -0.02159645
v 0.04740478 0.08973228 0.01089215
v 0.04702756 0.08834149 0.02343521
v 0.03418969 0.10580276 -0.01243626
v 0.01178701 0.08834409 0.01751376
v 0.04740089 0.07472383 0.02490044
v 0.04918191 0.07528310 0.01615540
v 0.04547276 0.08777771 -0.02752581
v 0.03268933 0.09503001 -0.03063760
v 0.02322473 0.10406673 -0.02664652
v 0.01459875 0.10283100 -0.01900206
v 0.04760370 0.08783012 0.02287505
v 0.02791110 0.10607270 -0.00502717
v 0.03715767 0.10399809 -0.01453210
v 0.01656058 0.08924977 0.01775691
v 0.02116618 0.10547197 -0.00687716
v 0.01196315 0.09937576 -0.01267769
v 0.03889694 0.10249038 -0.01743796
v 0.03589009 0.10242016 -0.02463502
v 0.04025906 0.08962433 -0.03078386
v 0.02362486 0.10056395 -0.02861298
v 0.03063236 0.10573431 -0.02374934
v 0.01997392 0.10446763 -0.02500609
v 0.01579544 0.10101841 -0.02281625
v 0.01424078 0.10494110 -0.01368483
v 0.03995880 0.09325422 0.01550609
v 0.03206125 0.10558245 -0.00850247
v 0.01652846 0.10583607 -0.01220850
vn 0.23897619 0.39885686 0.88532683
vn 0.52981581 -0.69728540 0.48279218
vn 0.90064930 0.05665305 -0.43083787
vn -0.09685149 0.18020895 -0.97884857
vn -0.98259723 -0.12598946 0.13648934
vn -0.43140228 -0.63721582 -0.63862984
vn 0.54792756 0.81265058 -0.19842991
vn 0.99394299 -0.09734383 0.05100496
vn 0.42230702 -0.16886672 0.89058453
vn 0.70708735 -0.68626423 -0.17049600
vn 0.42837220 0.14307008 -0.89220413
vn -0.96595126 0.04248255 -0.25521246
vn -0.35583040 -0.75137017 0.55572260
vn 0.90596641 0.42204949 -0.03315269
vn -0.12580194 0.93002821 0.34528451
vn -0.73126851 -0.28139833 0.62133835
vn 0.97293841 0.18310696 0.14093504
vn 0.99007273 0.12987089 -0.05375445
vn 0.33871467 0.27851842 -0.89872124
vn 0.48020914 -0.66223548 -0.57518983
vn -0.49392268 0.11837757 -0.86140997
vn -0.32327064 -0.94311020 0.07771262
vn 0.69540288 0.70513044 0.13858531
vn 0.78189084 0.62185372 -0.04409847
vn -0.12581955 0.74581425 0.65416401
vn -0.66319738 0.73116099 0.15991511
vn 0.76253301 0.18396820 0.62024117
vn 0.98794551 -0.03674249 0.15037837
vn 0.99862734 -0.04540564 -0.02611077
vn 0.90430497 0.26183544 -0.33715683
vn 0.96555746 0.25892285 -0.02564666
vn 0.21379557 0.52285446 -0.82517554
vn -0.51908962 -0.85470721 0.00464308
vn 0.12748252 -0.67472018 -0.72698066
vn 0.42984193 -0.01512292 -0.90277750
vn 0.87334324 -0.03774781 -0.48564049
vn -0.82269368 0.05393450 -0.56592065
vn 0.87607778 0.48182413 0.01825469
vn 0.41156677 0.74862037 0.51978873
vn 0.32936151 0.94026215 0.08618632
vn -0.64560594 0.41362087 0.64195852
vn 0.93982201 -0.10767266 0.32425482
vn 0.98070322 -0.13520898 0.14120808
vn 0.77107353 0.44838133 -0.45210596
vn 0.15484453 0.30474002 -0.93976417
vn -0.13116008 0.70499828 -0.69697522
vn -0.76248345 0.54412195 -0.35007184
vn 0.84542999 0.49081339 0.21059521
vn 0.08383503 0.95587240 0.28156641
vn 0.61766378 0.78126997 0.09004825
vn -0.15593928 0.61978732 0.76912068
vn -0.23206867 0.90624402 0.35336370
vn -0.97019549 0.24231993 -0.00132494
vn 0.79488510 0.56969244 -0.20882576
vn 0.53545844 0.64188077 -0.54888371
vn 0.38710083 0.43149023 -0.81484301
vn -0.21541547 0.37862189 -0.90013424
vn 0.15621336 0.90414157 -0.39764985
vn -0.41184742 0.73471166 -0.53905517
vn -0.72459512 0.34366394 -0.59737510
vn -0.66511100 0.73239339 -0.14569583
vn -0.01871216 0.84267570 0.53809620
vn 0.34666773 0.90354645 0.25184379
vn -0.19738582 0.97975262 0.03352086
f 10//10 8//8 2//2
f 12//12 6//6 5//5
f 13//13 2//2 9//9
f 16//16 9//9 1//1
f 16//16 13//13 9//9
f 16//16 5//5 6//6
f 18//18 10//10 3//3
f 19//19 11//11 6//6
f 19//19 6//6 4//4
f 21//21 4//4 6//6
f 22//22 10//10 2//2
f 22//22 2//2 13//13
f 27//27 1//1 9//9
f 28//28 18//18 17//17
f 28//28 8//8 18//18
f 29//29 18//18 8//8
f 29//29 8//8 10//10
f 29//29 10//10 18//18
f 30//30 18//18 3//3
f 30//30 24//24 14//14
f 30//30 3//3 11//11
f 31//31 14//14 17//17
f 31//31 17//17 18//18
f 31//31 30//30 14//14
f 31//31 18//18 30//30
f 33//33 20//20 10//10
f 33//33 6//6 20//20
f 33//33 10//10 22//22
f 33//33 16//16 6//6
f 33//33 22//22 13//13
f 33//33 13//13 16//16
f 34//34 20//20 6//6
f 35//35 11//11 3//3
f 35//35 20//20 34//34
f 35//35 34//34 6//6
f 35//35 6//6 11//11
f 36//36 3//3 10//10
f 36//36 10//10 20//20
f 36//36 35//35 3//3
f 36//36 20//20 35//35
f 37//37 21//21 6//6
f 37//37 6//6 12//12
f 38//38 17//17 14//14
f 38//38 24//24 23//23
f 38//38 14//14 24//24
f 39//39 1//1 27//27
f 39//39 25//25 1//1
f 40//40 39//39 23//23
f 41//41 16//16 1//1
f 41//41 5//5 16//16
f 41//41 25//25 15//15
f 42//42 27//27 9//9
f 42//42 17//17 27//27
f 42//42 28//28 17//17
f 42//42 9//9 2//2
f 42//42 2//2 28//28
f 43//43 28//28 2//2
f 43//43 2//2 8//8
f 43//43 8//8 28//28
f 44//44 24//24 30//30
f 44//44 30//30 11//11
f 44//44 11//11 19//19
f 45//45 19//19 4//4
f 45//45 4//4 32//32
f 48//48 39//39 27//27
f 48//48 27//27 17//17
f 48//48 17//17 38//38
f 48//48 38//38 23//23
f 48//48 23//23 39//39
f 49//49 15//15 25//25
f 50//50 24//24 7//7
f 50//50 7//7 40//40
f 50//50 40//40 23//23
f 50//50 23//23 24//24
f 51//51 41//41 1//1
f 51//51 1//1 25//25
f 51//51 25//25 41//41
f 52//52 41//41 15//15
f 52//52 26//26 41//41
f 53//53 41//41 26//26
f 53//53 12//12 5//5
f 53//53 5//5 41//41
f 54//54 44//44 7//7
f 54//54 7//7 24//24
f 54//54 24//24 44//44
f 55//55 7//7 44//44
f 55//55 44//44 19//19
f 56//56 45//45 32//32
f 56//56 19//19 45//45
f 56//56 55//55 19//19
f 56//56 32//32 55//55
f 57//57 46//46 32//32
f 57//57 32//32 4//4
f 57//57 4//4 21//21
f 58//58 40//40 7//7
f 58//58 7//7 55//55
f 58//58 55//55 32//32
f 58//58 32//32 46//46
f 58//58 49//49 40//40
f 59//59 58//58 46//46
f 59//59 57//57 21//21
f 59//59 46//46 57//57
f 60//60 37//37 12//12
f 60//60 12//12 47//47
f 60//60 47//47 59//59
f 60//60 59//59 21//21
f 60//60 21//21 37//37
f 61//61 47//47 12//12
f 61//61 59//59 47//47
f 61//61 53//53 26//26
f 61//61 12//12 53//53
f 62//62 49//49 25//25
f 62//62 25//25 39//39
f 62//62 39//39 49//49
f 63//63 49//49 39//39
f 63//63 39//39 40//40
f 63//63 40//40 49//49
f 64//64 15//15 49//49
f 64//64 52//52 15//15
f 64//64 26//26 52//52
f 64//64 61//61 26//26
f 64//64 49//49 58//58
f 64//64 58//58 59//59
f 64//64 59//59 61//61

