# https://github.com/mikedh/trimesh
v 0.04468237 0.05551995 0.01132794
v 0.04771508 -0.10431915 0.02661807
v 0.04962043 -0.09000239 -0.02616596
v 0.02661091 0.05560821 -0.03155365
v 0.02866092 -0.08184293 0.03177305
v 0.04762687 0.04619613 -0.02674056
v 0.04284642 -0.03972032 0.03007392
v 0.03446058 0.05533388 0.01109509
v 0.02859728 -0.10935879 -0.02718583
v 0.04425964 -0.09031051 -0.03080627
v 0.03644610 0.07071975 -0.01941115
v 0.04990169 -0.02891880 0.01146698
v 0.04115142 -0.10462317 0.02988993
v 0.02662322 0.05548933 -0.02105444
v 0.04099916 -0.03972633 0.03048812
v 0.04757902 -0.10623949 -0.02536470
v 0.04573941 0.04056720 -0.02879004
v 0.02867258 -0.10627019 -0.03073196
v 0.04405952 0.05535385 -0.02962707
v 0.03715907 0.07108338 -0.01539411
v 0.04722872 0.05516213 -0.01909107
v 0.04962261 -0.09257681 0.02101071
v 0.04964201 -0.01028641 -0.01869701
v 0.04764185 -0.03945302 0.02644250
v 0.04463476 -0.10594342 0.02836880
v 0.02891885 -0.10698803 0.02826039
v 0.02602063 0.00137368 -0.01198455
v 0.02863095 0.07027972 -0.02074994
v 0.04543577 -0.10423576 -0.02938596
v 0.04434026 -0.06940360 -0.03064778
v 0.02658011 -0.00158875 -0.03295148
v 0.04764477 0.00041237 0.01766633
v 0.04746054 0.05467913 -0.02333981
v 0.04984807 -0.08457420 -0.02464525
v 0.04971372 -0.10448088 -0.02262953
v 0.04589840 -0.03977496 0.02778944
v 0.04631570 -0.09617165 0.02753709
v 0.04259172 -0.09031416 0.02962040
v 0.04750319 -0.10799668 0.01903422
v 0.02870143 -0.10427585 0.03019709
v 0.03847156 -0.10706588 0.02857771
v 0.04081920 0.05545453 -0.03077759
v 0.03592657 0.06989532 -0.01379932
v 0.04299989 -0.10437429 -0.03092566
v 0.04320169 0.03842482 -0.03079049
v 0.04707605 0.05244001 -0.02522389
v 0.04497223 0.05570814 -0.02771229
v 0.04942493 -0.03782563 -0.02377924
v 0.04717088 -0.10409738 -0.02711291
v 0.04570326 -0.10783861 0.02602359
v 0.04772832 -0.10702933 -0.02019378
v 0.04915956 -0.10469037 0.01503248
v 0.03699050 -0.10883850 -0.02763440
v 0.04583624 -0.10740102 -0.02722235
v 0.04935985 -0.01053201 -0.02184685
v 0.04942786 -0.10084719 -0.02411101
v 0.03293117 -0.10906405 0.02563598
v 0.04944515 -0.09650185 0.02116419
v 0.04097037 -0.10518313 -0.03085679
v 0.04466760 -0.10913382 -0.02446246
v 0.04319626 -0.10912723 0.02473062
v 0.03097218 -0.10929559 0.02384104
v 0.04081619 -0.10707786 -0.02908043
v 0.04320734 -0.10895915 -0.02578501
vn 0.58154116 0.49905794 0.64245704
vn 0.81370162 -0.22396783 0.53640291
vn 0.88748391 -0.01982352 -0.46041214
vn -0.63110351 0.27299885 -0.72607161
vn -0.63880504 -0.00175255 0.76936666
vn 0.90993041 0.05340258 -0.41130866
vn 0.40935588 0.08235053 0.90865073
vn -0.53898832 0.47059133 0.69859530
vn -0.62419503 -0.73167430 -0.27392203
vn 0.40519879 -0.00668985 -0.91420413
vn 0.34993433 0.84565352 -0.40300880
vn 0.99618918 0.02425864 0.08377733
vn 0.18476908 -0.27133053 0.94458464
vn -0.99050853 0.08419640 0.10864535
vn -0.08145335 0.11923333 0.98951946
vn 0.78560175 -0.51264705 -0.34644321
vn 0.66726662 0.01525646 -0.74466267
vn -0.60446444 -0.34402929 -0.71851693
vn 0.58369027 0.35304141 -0.73120957
vn 0.33631974 0.92760909 0.16257432
vn 0.95006514 0.30937523 0.04078240
vn 0.98651954 -0.01151045 0.16323819
vn 0.99902070 0.02064762 -0.03913208
vn 0.84393380 0.05795985 0.53330703
vn 0.38792032 -0.40959309 0.82568234
vn -0.65637911 -0.59948823 0.45801782
vn -0.99900066 0.00835169 0.04390821
vn -0.60037101 0.76310975 -0.23920318
vn 0.64175964 -0.22752897 -0.73237636
vn 0.59322833 0.00435754 -0.80502246
vn -0.65386271 -0.00575451 -0.75659133
vn 0.95924493 0.07941654 0.27118659
vn 0.93116196 0.32042781 -0.17396383
vn 0.99560299 0.00311247 -0.09362154
vn 0.92259072 -0.33254322 -0.19555403
vn 0.60229901 0.04626598 0.79692871
vn 0.50542096 -0.00794876 0.86283629
vn 0.37345287 -0.01067587 0.92758772
vn 0.68396611 -0.72508749 0.08024023
vn -0.64921388 -0.26273366 0.71378734
vn 0.04382114 -0.69364455 0.71898328
vn 0.19424210 0.33370716 -0.92244758
vn -0.29149377 0.84233545 0.45332370
vn 0.28131097 -0.29145891 -0.91428433
vn 0.37149174 0.01329670 -0.92834104
vn 0.88237540 0.19230187 -0.42945739
vn 0.79590647 0.44190848 -0.41382337
vn 0.98538485 0.01241106 -0.16989014
vn 0.81095068 -0.19221314 -0.55264193
vn 0.51576708 -0.73466744 0.44073582
vn 0.69077215 -0.72175953 -0.04355487
vn 0.96865260 -0.24462408 0.04325729
vn 0.06113847 -0.86903475 -0.49095894
vn 0.54801860 -0.64903006 -0.52766997
vn 0.99118137 0.01547566 -0.13160543
vn 0.88103961 -0.10796476 -0.46055708
vn -0.05417593 -0.92742408 0.37006694
vn 0.98887011 -0.05750148 0.13722060
vn 0.08636793 -0.42614889 -0.90052080
vn 0.35273526 -0.92235927 -0.15757924
vn 0.16596135 -0.94910217 0.26769742
vn -0.36109162 -0.92591184 0.11090584
vn 0.13868343 -0.73267968 -0.66629377
vn 0.13823214 -0.91383076 -0.38184449
f 14//14 5//5 8//8
f 15//15 7//7 1//1
f 15//15 1//1 8//8
f 15//15 8//8 5//5
f 15//15 13//13 7//7
f 15//15 5//5 13//13
f 17//17 6//6 3//3
f 19//19 6//6 17//17
f 20//20 8//8 1//1
f 21//21 20//20 1//1
f 24//24 1//1 7//7
f 24//24 22//22 12//12
f 24//24 2//2 22//22
f 27//27 14//14 4//4
f 27//27 5//5 14//14
f 28//28 4//4 14//14
f 28//28 20//20 11//11
f 28//28 14//14 8//8
f 29//29 10//10 3//3
f 30//30 17//17 3//3
f 30//30 3//3 10//10
f 31//31 27//27 4//4
f 31//31 18//18 9//9
f 31//31 9//9 27//27
f 32//32 21//21 1//1
f 32//32 12//12 21//21
f 32//32 24//24 12//12
f 32//32 1//1 24//24
f 33//33 11//11 20//20
f 33//33 20//20 21//21
f 33//33 23//23 6//6
f 33//33 21//21 12//12
f 33//33 12//12 23//23
f 34//34 12//12 22//22
f 34//34 23//23 12//12
f 35//35 34//34 22//22
f 35//35 3//3 34//34
f 36//36 24//24 7//7
f 36//36 7//7 2//2
f 36//36 2//2 24//24
f 37//37 25//25 2//2
f 37//37 2//2 7//7
f 37//37 7//7 25//25
f 38//38 25//25 7//7
f 38//38 7//7 13//13
f 38//38 13//13 25//25
f 40//40 13//13 5//5
f 40//40 5//5 27//27
f 40//40 27//27 9//9
f 40//40 9//9 26//26
f 41//41 25//25 13//13
f 41//41 40//40 26//26
f 41//41 13//13 40//40
f 42//42 4//4 28//28
f 42//42 31//31 4//4
f 42//42 28//28 11//11
f 42//42 11//11 19//19
f 43//43 28//28 8//8
f 43//43 8//8 20//20
f 43//43 20//20 28//28
f 44//44 10//10 29//29
f 44//44 31//31 10//10
f 44//44 18//18 31//31
f 45//45 19//19 17//17
f 45//45 17//17 30//30
f 45//45 42//42 19//19
f 45//45 30//30 10//10
f 45//45 10//10 31//31
f 45//45 31//31 42//42
f 46//46 33//33 6//6
f 46//46 6//6 19//19
f 47//47 19//19 11//11
f 47//47 11//11 33//33
f 47//47 46//46 19//19
f 47//47 33//33 46//46
f 48//48 34//34 3//3
f 48//48 3//3 6//6
f 49//49 29//29 3//3
f 49//49 35//35 16//16
f 50//50 39//39 2//2
f 50//50 2//2 25//25
f 50//50 25//25 41//41
f 51//51 16//16 35//35
f 51//51 35//35 39//39
f 52//52 39//39 35//35
f 52//52 2//2 39//39
f 53//53 9//9 18//18
f 54//54 44//44 29//29
f 54//54 49//49 16//16
f 54//54 29//29 49//49
f 55//55 48//48 6//6
f 55//55 6//6 23//23
f 55//55 23//23 34//34
f 55//55 34//34 48//48
f 56//56 49//49 3//3
f 56//56 3//3 35//35
f 56//56 35//35 49//49
f 57//57 41//41 26//26
f 58//58 22//22 2//2
f 58//58 2//2 52//52
f 58//58 52//52 35//35
f 58//58 35//35 22//22
f 59//59 18//18 44//44
f 59//59 44//44 54//54
f 60//60 54//54 16//16
f 60//60 16//16 51//51
f 60//60 51//51 39//39
f 61//61 50//50 41//41
f 61//61 41//41 57//57
f 61//61 39//39 50//50
f 61//61 60//60 39//39
f 61//61 9//9 60//60
f 62//62 57//57 26//26
f 62//62 26//26 9//9
f 62//62 61//61 57//57
f 62//62 9//9 61//61
f 63//63 53//53 18//18
f 63//63 18//18 59//59
f 63//63 59//59 54//54
f 64//64 54//54 60//60
f 64//64 63//63 54//54
f 64//64 53//53 63//63
f 64//64 60//60 9//9
f 64//64 9//9 53//53

