# https://github.com/mikedh/trimesh
v 0.03845637 -0.00897737 0.03213186
v 0.04986265 -0.08201395 0.01505366
v 0.04908368 -0.02655425 0.00078928
v -0.05015697 -0.05651218 0.00058852
v -0.03442889 -0.10381268 0.03178258
v 0.05023848 -0.08197500 0.00063412
v -0.03734204 -0.00152451 0.01763921
v 0.04752904 -0.00982068 0.02709901
v 0.04076183 -0.08185037 0.03007851
v 0.04939544 -0.03184576 0.02260017
v 0.05028809 -0.05665284 0.00049858
v -0.03679211 -0.08398265 0.00060378
v 0.00137904 -0.10912060 0.02555594
v -0.03715222 -0.00799935 0.01122154
v -0.03676633 -0.00157969 0.03164320
v 0.04702045 -0.00160336 0.01123596
v 0.03659664 -0.07339829 0.03197230
v 0.04253680 -0.02507377 0.03195238
v 0.04724382 -0.06904887 0.02682038
v 0.04920950 -0.01700067 0.01604914
v -0.04805973 -0.09643745 0.01967563
v 0.00123717 -0.08398265 0.00060378
v 0.00135838 -0.10438484 0.03030411
v 0.04431513 -0.08192244 0.02893600
v 0.02798262 -0.02688531 0.00133952
v -0.04887792 -0.02690697 0.01947021
v -0.03247017 -0.05041171 0.03204337
v 0.03635576 -0.00155355 0.01123247
v 0.04109911 -0.00166745 0.02997722
v 0.04947179 -0.06896866 0.02085058
v 0.04923318 -0.03684778 0.02316904
v 0.04940865 -0.02298096 0.01191930
v 0.04760050 -0.00170269 0.01555684
v 0.04903101 -0.01678804 0.02146559
v -0.04968930 -0.06914636 0.00065060
v -0.04348978 -0.05853662 0.02988973
v -0.03483139 -0.11041157 0.01945519
v -0.03521320 -0.10730485 0.03031106
v 0.02847801 -0.07943194 0.03198355
v 0.04767274 -0.08159966 0.02428470
v 0.00080856 -0.10736520 0.02817217
v 0.04369724 -0.06874013 0.02992279
v 0.04266757 -0.07748581 0.02982686
v -0.04961349 -0.06911790 0.01113978
v -0.03596851 -0.09451225 0.03201155
v 0.04548391 -0.00191215 0.02879292
v 0.04759010 -0.00172503 0.01933183
v -0.04694254 -0.09444129 0.02470378
v -0.04579425 -0.02683494 0.02694477
v 0.00114654 -0.10908338 0.02008876
v -0.03091174 -0.10421611 0.03163908
v -0.03503638 -0.10921609 0.02740055
v 0.03481532 -0.07520276 0.03196548
v -0.04963274 -0.05648482 0.01102558
v -0.03625247 -0.05467065 0.03198491
v 0.04239681 -0.01276800 0.03176072
v -0.04163631 -0.09661365 0.03019703
v -0.04574027 -0.09666322 0.02692920
v -0.04222056 -0.02663426 0.02983677
v -0.04773509 -0.02694011 0.02312168
v -0.04712357 -0.09683647 0.02296352
v -0.04511795 -0.06262358 0.02821771
v -0.04375394 -0.05056681 0.02973318
v -0.04672750 -0.02950341 0.02518729
vn 0.10121960 0.14103161 0.98481708
vn 0.85908682 -0.50157929 0.10192180
vn 0.64335260 0.18168937 -0.74369779
vn -0.71401219 0.08298824 -0.69519749
vn -0.17996072 -0.21557728 0.95976069
vn 0.66516248 -0.42993496 -0.61050373
vn -0.50533490 0.80846055 -0.30170876
vn 0.88581046 0.07534959 0.45788892
vn 0.24238524 -0.25964904 0.93478969
vn 0.98283988 0.01393647 0.18393352
vn 0.71839669 0.00810139 -0.69558649
vn -0.23216658 -0.36275769 -0.90249960
vn 0.26255023 -0.92204843 0.28441884
vn -0.45296996 0.47162095 -0.75656585
vn -0.43655158 0.65572461 0.61599347
vn 0.52210957 0.70656146 -0.47767406
vn 0.15378395 -0.05061058 0.98680751
vn 0.39724957 -0.00390705 0.91770230
vn 0.82304644 -0.02947118 0.56720897
vn 0.99733792 0.07190110 -0.01213658
vn -0.88948037 -0.42095076 -0.17783455
vn 0.01039191 -0.32063654 -0.94714530
vn 0.15032684 -0.40337878 0.90260036
vn 0.56999230 -0.43694756 0.69583447
vn -0.03502275 0.23778535 -0.97068612
vn -0.97233921 0.22999650 -0.04071943
vn -0.01130636 0.00351670 0.99992990
vn -0.01117148 0.82871181 -0.55956405
vn 0.12563585 0.75745103 0.64068992
vn 0.97650746 -0.02128401 0.21442987
vn 0.94590626 -0.00683235 0.32436810
vn 0.99893578 0.04238428 -0.01819031
vn 0.72388719 0.68917751 -0.03196401
vn 0.99192941 0.05992087 0.11173868
vn -0.70583133 -0.12712909 -0.69687899
vn -0.50669878 -0.00536207 0.86210649
vn -0.33015241 -0.87884522 -0.34442773
vn -0.34546481 -0.62058356 0.70393899
vn 0.05823130 -0.09651635 0.99362654
vn 0.80445072 -0.47698471 0.35404042
vn 0.19299913 -0.71064098 0.67656539
vn 0.48914609 -0.03141792 0.87163583
vn 0.32440065 -0.05995818 0.94401760
vn -0.99702405 -0.02630551 0.07246421
vn -0.15323586 -0.02409551 0.98789583
vn 0.55630710 0.64199583 0.52760189
vn 0.69173611 0.71899679 0.06741495
vn -0.93623238 -0.05448980 0.34713081
vn -0.79149564 0.09887437 0.60312396
vn 0.19338411 -0.90386920 -0.38160588
vn 0.02870849 -0.26660333 0.96337868
vn -0.36669776 -0.87269467 0.32239226
vn 0.07760355 -0.09467029 0.99247933
vn -0.99761906 0.00271275 0.06891191
vn -0.14943466 0.00184637 0.98876988
vn 0.39712720 0.04977518 0.91641280
vn -0.48729151 -0.14526554 0.86107195
vn -0.78353361 -0.29859944 0.54489765
vn -0.52733751 0.04313880 0.84856007
vn -0.92253271 0.13674191 0.36088093
vn -0.87544762 -0.41944760 0.24011490
vn -0.80193050 -0.00667857 0.59738000
vn -0.56740952 0.00886653 0.82338801
vn -0.89123192 0.00292791 0.45353842
f 11//11 4//4 3//3
f 11//11 10//10 2//2
f 11//11 2//2 6//6
f 12//12 4//4 11//11
f 13//13 6//6 2//2
f 18//18 1//1 17//17
f 19//19 8//8 18//18
f 22//22 12//12 11//11
f 22//22 11//11 6//6
f 24//24 9//9 23//23
f 25//25 3//3 4//4
f 25//25 4//4 14//14
f 26//26 14//14 4//4
f 26//26 7//7 14//14
f 26//26 15//15 7//7
f 27//27 1//1 15//15
f 28//28 7//7 15//15
f 28//28 14//14 7//7
f 28//28 16//16 3//3
f 28//28 25//25 14//14
f 28//28 3//3 25//25
f 29//29 15//15 1//1
f 29//29 28//28 15//15
f 29//29 16//16 28//28
f 30//30 2//2 10//10
f 31//31 10//10 8//8
f 31//31 8//8 19//19
f 31//31 30//30 10//10
f 31//31 19//19 30//30
f 32//32 11//11 3//3
f 32//32 3//3 20//20
f 32//32 20//20 10//10
f 32//32 10//10 11//11
f 33//33 20//20 3//3
f 33//33 3//3 16//16
f 34//34 8//8 10//10
f 34//34 10//10 20//20
f 35//35 4//4 12//12
f 35//35 12//12 21//21
f 37//37 21//21 12//12
f 37//37 12//12 22//22
f 37//37 22//22 6//6
f 39//39 17//17 1//1
f 39//39 23//23 9//9
f 40//40 24//24 13//13
f 40//40 13//13 2//2
f 40//40 19//19 24//24
f 40//40 30//30 19//19
f 40//40 2//2 30//30
f 41//41 24//24 23//23
f 41//41 13//13 24//24
f 41//41 38//38 13//13
f 41//41 23//23 38//38
f 42//42 24//24 19//19
f 42//42 19//19 18//18
f 42//42 18//18 17//17
f 43//43 17//17 9//9
f 43//43 9//9 24//24
f 43//43 42//42 17//17
f 43//43 24//24 42//42
f 44//44 21//21 26//26
f 44//44 35//35 21//21
f 44//44 4//4 35//35
f 45//45 5//5 39//39
f 45//45 39//39 1//1
f 45//45 1//1 27//27
f 46//46 18//18 8//8
f 47//47 33//33 16//16
f 47//47 16//16 29//29
f 47//47 29//29 46//46
f 47//47 46//46 8//8
f 47//47 8//8 34//34
f 47//47 34//34 20//20
f 47//47 20//20 33//33
f 48//48 26//26 21//21
f 50//50 37//37 6//6
f 50//50 6//6 13//13
f 50//50 13//13 37//37
f 51//51 38//38 23//23
f 51//51 5//5 38//38
f 51//51 39//39 5//5
f 51//51 23//23 39//39
f 52//52 37//37 13//13
f 52//52 13//13 38//38
f 52//52 21//21 37//37
f 53//53 39//39 9//9
f 53//53 9//9 17//17
f 53//53 17//17 39//39
f 54//54 44//44 26//26
f 54//54 26//26 4//4
f 54//54 4//4 44//44
f 55//55 45//45 27//27
f 55//55 27//27 15//15
f 55//55 15//15 36//36
f 55//55 36//36 45//45
f 56//56 1//1 18//18
f 56//56 18//18 46//46
f 56//56 46//46 29//29
f 56//56 29//29 1//1
f 57//57 45//45 36//36
f 57//57 5//5 45//45
f 57//57 38//38 5//5
f 58//58 38//38 57//57
f 58//58 57//57 36//36
f 58//58 52//52 38//38
f 59//59 15//15 49//49
f 60//60 49//49 15//15
f 60//60 15//15 26//26
f 60//60 26//26 48//48
f 61//61 58//58 48//48
f 61//61 48//48 21//21
f 61//61 21//21 52//52
f 61//61 52//52 58//58
f 62//62 48//48 58//58
f 62//62 58//58 36//36
f 63//63 59//59 49//49
f 63//63 36//36 15//15
f 63//63 15//15 59//59
f 63//63 62//62 36//36
f 63//63 49//49 62//62
f 64//64 60//60 48//48
f 64//64 49//49 60//60
f 64//64 62//62 49//49
f 64//64 48//48 62//62

