# https://github.com/mikedh/trimesh
v -0.00820277 0.04404093 0.02408964
v -0.00664030 0.02366428 0.01891493
v -0.00801913 0.04574199 -0.02080544
v -0.02943392 0.05310682 -0.02072560
v -0.02899665 0.01671593 0.02656416
v -0.02763653 0.05654871 0.02091783
v -0.00756021 0.03159777 0.02450626
v -0.02483264 0.01694606 -0.02277485
v -0.00866840 0.04988243 0.01838350
v -0.02954403 0.05381319 0.02530262
v -0.02013952 0.01682156 0.02524669
v -0.00676434 0.02365866 -0.01783030
v -0.02875743 0.01678500 -0.02326505
v -0.02280809 0.05434539 -0.01571000
v -0.01837473 0.05227985 0.02222782
v -0.02980568 0.05754791 0.00572280
v -0.00730867 0.02735415 0.02294025
v -0.00685615 0.02916768 -0.02324354
v -0.02140821 0.01685333 -0.02099005
v -0.01876250 0.01670300 0.02337463
v -0.01089395 0.04963759 -0.01716581
v -0.01381199 0.05181510 0.01903812
v -0.03009272 0.05730837 0.02159302
v -0.01109767 0.04634995 0.02410671
v -0.02969663 0.05516073 -0.01910020
v -0.01355459 0.05187239 0.01305764
v -0.02884590 0.03786996 -0.02292227
v -0.00763595 0.03802216 -0.02293514
v -0.00716835 0.02536481 -0.02155873
v -0.02022843 0.01707912 -0.01135762
v -0.00862943 0.04960034 -0.00160211
v -0.02290059 0.05244046 0.02420831
v -0.00871634 0.04771204 0.02215103
v -0.02714954 0.05495967 -0.01844346
v -0.01614426 0.05207730 -0.01534691
v -0.00863960 0.04754373 -0.01915865
f 1 2 3
f 7 2 1
f 9 1 3
f 10 7 1
f 10 5 7
f 11 7 5
f 17 11 2
f 17 2 7
f 17 7 11
f 18 3 2
f 18 2 12
f 18 8 13
f 19 13 8
f 20 12 2
f 20 2 11
f 20 11 5
f 20 5 13
f 20 13 19
f 22 15 9
f 23 6 16
f 23 5 10
f 23 13 5
f 23 22 6
f 23 15 22
f 24 10 1
f 25 23 16
f 25 4 13
f 25 13 23
f 25 3 4
f 26 22 9
f 26 16 6
f 26 6 22
f 27 18 13
f 27 13 4
f 28 4 3
f 28 3 18
f 28 27 4
f 28 18 27
f 29 18 12
f 29 12 19
f 29 19 8
f 29 8 18
f 30 20 19
f 30 19 12
f 30 12 20
f 31 9 3
f 31 26 9
f 32 23 10
f 32 15 23
f 32 10 24
f 33 24 1
f 33 1 9
f 33 9 15
f 33 32 24
f 33 15 32
f 34 25 16
f 34 16 14
f 34 14 21
f 34 3 25
f 35 14 16
f 35 16 26
f 35 26 31
f 35 31 21
f 35 21 14
f 36 31 3
f 36 21 31
f 36 34 21
f 36 3 34

