# https://github.com/mikedh/trimesh
v 0.07306703 0.01328040 0.01813944
v 0.08199373 0.01324280 0.01196629
v -0.00836070 0.04824360 0.02112454
v -0.00763076 0.03558877 -0.02311393
v 0.05057309 -0.00606452 -0.01962877
v 0.02243909 0.03756321 -0.01912522
v 0.05334083 0.02578234 0.01570387
v 0.07131731 -0.00000497 0.01865801
v -0.00674551 0.02196418 0.01187418
v -0.00824371 0.04844102 -0.01753914
v 0.08005931 0.01350390 -0.02375940
v 0.07832607 0.01434667 0.01524627
v 0.05352971 0.02272128 0.01907171
v 0.07227298 0.02096887 0.00515435
v -0.00766715 0.03346041 0.02454523
v -0.00665952 0.02409361 -0.01940997
v 0.05251874 -0.00587831 0.01240937
v 0.06891767 0.00020593 -0.02605119
v 0.00907846 0.03752970 -0.02269455
v 0.07910525 0.01316666 0.01550728
v 0.01287916 0.04029623 0.01986098
v 0.05554623 0.02370663 0.01723198
v 0.07297689 0.01487794 0.01707607
v 0.00585339 0.04454465 0.01622219
v 0.00578076 0.04483329 -0.00377539
v 0.06985009 0.02092290 -0.01748851
v 0.08046327 0.01680135 -0.00388340
v 0.07906184 0.01635821 0.00948920
v -0.00687065 0.02201035 0.00652229
v -0.00549830 0.04042739 0.02447133
v 0.05022920 -0.00629961 -0.01415527
v -0.00656368 0.02547997 0.02188638
v -0.00597106 0.02680982 -0.02287982
v 0.06200393 -0.00511064 -0.02412427
v 0.08189259 0.01418075 -0.02196971
v 0.01069387 0.04065660 -0.02075662
v -0.00801913 0.04574199 -0.02080544
v 0.04268711 0.01423972 -0.02550231
v -0.00811013 0.04651233 0.02277446
v 0.06956417 0.01868610 0.01507620
v 0.05516188 0.02609373 0.01385441
v 0.01787726 0.03990453 -0.01539146
v 0.01277295 0.04247896 0.00546806
v -0.00169909 0.04729715 0.01675704
v 0.06543065 0.02333908 -0.01092366
v 0.08100122 0.01457999 0.01132220
v 0.08099111 0.01632542 0.00041887
v 0.05849816 0.01863633 0.01931382
v -0.00307121 0.03339645 0.02440607
v -0.00631222 0.02432539 0.02059432
v 0.06012347 -0.00298504 0.01630470
v 0.05981219 -0.00528386 -0.02349848
v 0.07926485 0.01611587 -0.02155845
v 0.02079306 0.03446967 -0.02269660
v 0.00436708 0.03760116 -0.02271194
v -0.00576891 0.04543158 -0.02062291
v 0.04974917 0.01635119 -0.02518195
v 0.01998787 0.03430440 0.02176650
v -0.00761921 0.04046384 0.02450848
v 0.07183616 0.01873115 0.01335612
v 0.01044261 0.04221836 0.01840121
v -0.00384803 0.04716060 -0.01565530
v -0.00135992 0.04714964 -0.00375700
v 0.07217378 0.02102870 -0.00129315
f 10 4 3
f 15 3 4
f 20 8 2
f 20 2 12
f 20 12 1
f 20 1 8
f 22 13 12
f 22 21 13
f 22 7 21
f 23 13 1
f 23 1 12
f 23 12 13
f 29 15 4
f 29 9 15
f 29 4 16
f 29 16 5
f 31 17 9
f 31 29 5
f 31 9 29
f 32 15 9
f 32 8 15
f 33 16 4
f 33 5 16
f 34 18 8
f 34 33 18
f 34 31 5
f 34 8 17
f 34 17 31
f 35 18 11
f 35 2 8
f 35 8 18
f 36 10 6
f 37 4 10
f 38 33 4
f 38 18 33
f 39 21 3
f 39 13 21
f 39 3 15
f 40 22 12
f 40 7 22
f 41 14 24
f 42 6 10
f 42 26 6
f 44 10 3
f 44 43 25
f 44 24 14
f 44 14 43
f 45 25 43
f 45 42 25
f 45 26 42
f 46 12 2
f 47 27 14
f 47 14 28
f 47 28 46
f 47 46 2
f 47 35 27
f 47 2 35
f 48 1 13
f 48 30 8
f 48 8 1
f 49 30 15
f 49 15 8
f 49 8 30
f 50 32 9
f 50 9 17
f 50 17 32
f 51 32 17
f 51 17 8
f 51 8 32
f 52 34 5
f 52 5 33
f 52 33 34
f 53 27 35
f 53 6 26
f 53 36 6
f 53 35 11
f 53 11 36
f 54 36 11
f 54 37 36
f 54 19 37
f 55 37 19
f 55 19 4
f 55 4 37
f 56 37 10
f 56 10 36
f 56 36 37
f 57 38 4
f 57 4 19
f 57 19 54
f 57 54 11
f 57 11 18
f 57 18 38
f 58 39 30
f 58 13 39
f 58 48 13
f 58 30 48
f 59 39 15
f 59 15 30
f 59 30 39
f 60 40 12
f 60 28 14
f 60 14 41
f 60 41 7
f 60 7 40
f 60 46 28
f 60 12 46
f 61 21 7
f 61 7 41
f 61 3 21
f 61 41 24
f 61 44 3
f 61 24 44
f 62 42 10
f 62 25 42
f 63 44 25
f 63 10 44
f 63 62 10
f 63 25 62
f 64 26 45
f 64 53 26
f 64 27 53
f 64 14 27
f 64 45 43
f 64 43 14

