# https://github.com/mikedh/trimesh
v -0.02897607 -0.02379676 0.02658240
v -0.02484805 -0.05680632 0.01620268
v -0.02902389 -0.02384158 -0.02270449
v -0.02897115 -0.03114290 -0.02308614
v -0.04909176 -0.05290792 0.01420311
v -0.03990871 -0.03685801 0.02503550
v -0.04806834 -0.05017393 -0.02320970
v -0.02900676 -0.03574555 0.02674915
v -0.03836681 -0.02347341 -0.00856687
v -0.02908375 -0.04998006 -0.02382661
v -0.04785127 -0.03667676 0.01742956
v -0.03632490 -0.02334062 -0.02076377
v -0.03426005 -0.02406459 0.02462943
v -0.04533031 -0.03701927 0.02184983
v -0.04703639 -0.03851912 -0.01732861
v -0.04813446 -0.04595676 -0.02276675
v -0.03826986 -0.02382198 0.00792093
v -0.04701160 -0.04062815 -0.02051467
f 1 2 3
f 3 2 4
f 6 5 2
f 7 2 5
f 7 3 4
f 8 6 2
f 8 2 1
f 8 1 6
f 10 7 4
f 10 4 2
f 10 2 7
f 12 9 1
f 12 1 3
f 13 6 1
f 14 11 5
f 14 5 6
f 14 13 11
f 14 6 13
f 15 11 9
f 15 9 12
f 16 7 5
f 16 5 11
f 16 11 15
f 16 12 3
f 16 3 7
f 17 13 1
f 17 1 9
f 17 9 11
f 17 11 13
f 18 16 15
f 18 15 12
f 18 12 16

