# https://github.com/mikedh/trimesh
v 0.03685566 0.02760529 0.02175985
v 0.08274878 0.00396452 0.01375257
v 0.00837854 0.04944013 -0.01264666
v 0.00457413 0.04351859 -0.02487216
v 0.02961104 0.00854471 -0.00093066
v 0.08022100 0.00430805 -0.02265690
v 0.04365685 0.02858949 0.01591300
v 0.04145611 0.00759259 0.01954661
v 0.00496021 0.03156257 0.02334750
v 0.01828383 0.04075102 -0.02151239
v 0.03447281 0.00865319 -0.02173440
v 0.08018092 0.00405511 0.01602892
v 0.03164757 0.03047922 0.02201987
v 0.04810107 0.02591166 -0.01570501
v 0.00633935 0.02310650 -0.02065380
v 0.01171811 0.02123908 0.01680468
v 0.06806325 0.00531978 0.01983533
v 0.07797995 0.00447253 -0.02483058
v 0.01369330 0.04164694 -0.02337719
v 0.05140835 0.02301592 0.01776271
v 0.03843541 0.02936050 0.01968706
v 0.03788714 0.01879355 0.02227889
v 0.02325783 0.04120532 -0.01055163
v 0.05647754 0.02006037 -0.01971630
v 0.08133472 0.00569884 0.00547746
v 0.00579789 0.02753089 -0.02380237
v 0.02946462 0.00869074 -0.01287545
v 0.03411411 0.00858755 0.01587499
v 0.00632567 0.02608870 0.02049118
v 0.01128467 0.01901323 -0.01131594
v 0.07561654 0.00469559 0.01810208
v 0.04130404 0.02698027 -0.02322230
v 0.07935433 0.00540131 0.01506030
v 0.04887869 0.02553567 0.01576276
v 0.04414909 0.02581090 0.01952853
v 0.02787966 0.01902440 0.02191199
v 0.07937155 0.00504394 -0.02241913
v 0.08237957 0.00418539 0.00465959
v 0.06162073 0.01796375 0.00704285
v 0.02434239 0.01558289 -0.02369276
v 0.00851953 0.02101081 -0.01956987
v 0.03879151 0.00815693 -0.02340380
v 0.03172642 0.00856175 0.00895114
v 0.01075396 0.02569215 0.02210794
v 0.00656719 0.02401988 0.01434856
v 0.03701796 0.00817245 0.01774716
v 0.02203467 0.01624686 0.01801320
v 0.01121622 0.01904766 -0.01566745
v 0.06724321 0.00899098 0.01913277
v 0.05461738 0.01913018 0.01907057
v 0.05896828 0.01797970 0.01741023
v 0.08162322 0.00515808 0.01301141
v 0.07701098 0.00584305 -0.02414061
v 0.06145371 0.01790842 0.01184899
v 0.01123603 0.02308633 -0.02351107
v 0.03171289 0.00885278 -0.01953458
v 0.02463808 0.01384550 -0.02169863
v 0.01406699 0.01907289 0.01207245
v 0.00569372 0.02793544 0.02178804
v 0.00904607 0.02133433 0.00671380
f 9 3 4
f 12 6 2
f 12 8 5
f 13 3 9
f 17 8 12
f 18 12 5
f 18 6 12
f 19 4 3
f 19 3 10
f 19 18 4
f 21 7 3
f 21 3 13
f 21 20 7
f 21 13 1
f 22 13 9
f 22 1 13
f 22 17 1
f 22 8 17
f 23 14 3
f 23 3 7
f 24 10 3
f 24 3 14
f 26 15 9
f 26 9 4
f 27 18 5
f 31 17 12
f 32 19 10
f 32 18 19
f 32 10 24
f 33 12 2
f 34 7 20
f 34 23 7
f 35 21 1
f 35 20 21
f 36 22 9
f 36 8 22
f 37 24 14
f 37 25 6
f 37 14 25
f 38 25 2
f 38 2 6
f 38 6 25
f 39 25 14
f 39 14 23
f 39 23 34
f 40 26 4
f 40 4 18
f 41 15 40
f 42 18 27
f 42 40 18
f 42 11 40
f 43 28 16
f 43 5 8
f 44 29 8
f 44 36 9
f 44 8 36
f 45 16 29
f 46 8 29
f 46 43 8
f 46 28 43
f 47 29 16
f 47 16 28
f 47 46 29
f 47 28 46
f 48 27 5
f 48 5 30
f 48 41 27
f 48 30 41
f 49 31 1
f 49 1 17
f 49 17 31
f 50 31 12
f 50 20 35
f 50 35 1
f 50 1 31
f 51 12 33
f 51 50 12
f 51 20 50
f 51 33 2
f 51 2 20
f 52 34 20
f 52 20 2
f 52 2 25
f 53 37 6
f 53 6 18
f 53 18 32
f 53 32 24
f 53 24 37
f 54 39 34
f 54 25 39
f 54 52 25
f 54 34 52
f 55 40 15
f 55 15 26
f 55 26 40
f 56 41 11
f 56 27 41
f 56 42 27
f 56 11 42
f 57 41 40
f 57 40 11
f 57 11 41
f 58 43 16
f 58 5 43
f 58 16 45
f 59 44 9
f 59 29 44
f 59 45 29
f 59 9 15
f 59 15 45
f 60 45 15
f 60 15 41
f 60 41 30
f 60 58 45
f 60 30 5
f 60 5 58

