# https://github.com/mikedh/trimesh
v -0.01745875 -0.04966745 0.02521876
v -0.01777739 -0.05336565 0.02332227
v -0.01720575 -0.04957826 -0.02343137
v -0.04806834 -0.05017393 -0.02320970
v -0.04809485 -0.06596401 0.01788904
v -0.01763796 -0.05666563 0.00973812
v -0.03708286 -0.05821593 0.02511786
v -0.04877216 -0.06727037 -0.01887278
v -0.01720893 -0.05118971 -0.02286262
v -0.01785121 -0.05459104 0.02125563
v -0.03686736 -0.05985396 0.02317253
v -0.02038312 -0.05287268 0.02440664
v -0.03616290 -0.05006620 0.02670220
v -0.04909176 -0.05290792 0.01420311
v -0.04878238 -0.06109977 -0.02288938
v -0.04193349 -0.06624853 -0.00385936
v -0.01824183 -0.05676444 -0.01110548
v -0.04177770 -0.06418097 0.01742047
v -0.03522536 -0.05971740 0.02254739
v -0.01780269 -0.05131776 0.02463120
v -0.04903000 -0.06707996 0.00985132
v -0.04452611 -0.06431840 -0.02066938
v -0.04376651 -0.06082778 -0.02256993
v -0.01778053 -0.05510600 -0.01954328
v -0.03700895 -0.06386642 -0.01557130
v -0.04240846 -0.06622354 0.00054840
v -0.02050846 -0.05473861 0.02257121
v -0.04857543 -0.06519998 -0.02085585
v -0.02040161 -0.05513492 -0.02080089
v -0.04702163 -0.06636203 -0.01929736
v -0.04454857 -0.06622804 -0.01727749
v -0.02054068 -0.05645861 -0.01912954
v -0.04503806 -0.06639738 0.00669174
v -0.02553200 -0.05880997 -0.01748074
v -0.03307102 -0.06150523 -0.01868172
f 1 3 4
f 6 1 2
f 9 3 1
f 9 1 6
f 10 6 2
f 11 7 5
f 11 2 7
f 12 7 2
f 13 7 1
f 13 1 4
f 13 5 7
f 14 13 4
f 14 5 13
f 15 4 3
f 15 14 4
f 17 6 16
f 18 6 10
f 19 2 11
f 19 18 10
f 19 11 5
f 19 5 18
f 20 12 2
f 20 2 1
f 20 1 7
f 20 7 12
f 21 5 14
f 21 8 16
f 21 15 8
f 21 14 15
f 23 15 3
f 23 3 9
f 23 9 22
f 24 9 6
f 24 6 17
f 25 17 16
f 26 16 6
f 26 6 18
f 26 21 16
f 27 19 10
f 27 10 2
f 27 2 19
f 28 22 8
f 28 8 15
f 28 23 22
f 28 15 23
f 29 22 9
f 29 9 24
f 30 8 22
f 30 29 24
f 30 22 29
f 31 25 16
f 31 16 8
f 32 24 17
f 32 30 24
f 33 26 18
f 33 18 5
f 33 5 21
f 33 21 26
f 34 32 17
f 34 17 25
f 34 25 32
f 35 32 25
f 35 25 31
f 35 31 8
f 35 8 30
f 35 30 32

