# https://github.com/mikedh/trimesh
v 0.08039157 -0.01487175 0.01961362
v 0.08324732 -0.01921378 0.01658184
v 0.07950563 -0.01429598 -0.02443325
v -0.03608250 -0.03008409 -0.02330543
v -0.01324295 -0.04187481 0.02290962
v -0.01299676 -0.01993834 -0.00662933
v 0.08413558 -0.01420552 0.01631370
v 0.07951975 -0.02775614 0.01730179
v -0.01283651 -0.02251096 -0.01935056
v -0.01290018 -0.02306483 0.02101478
v 0.08068149 -0.02536232 -0.01957311
v 0.04885908 -0.01197096 0.01550254
v 0.08122176 -0.02376237 0.01773327
v 0.03478301 -0.02948647 0.02186620
v 0.04921294 -0.01206905 -0.01305565
v 0.06202544 -0.01498166 -0.02304401
v -0.01276091 -0.02021526 -0.01018751
v -0.03658776 -0.03020635 0.00279521
v 0.08329369 -0.01924199 0.00769224
v 0.08199829 -0.01426691 -0.02181581
v -0.03628277 -0.04646916 -0.02199717
v 0.03905383 -0.01736759 0.01970873
v 0.08082743 -0.02623852 0.01604849
v 0.07799335 -0.02213459 0.01929724
v 0.06292252 -0.02903911 0.01936963
v -0.01233245 -0.02444028 0.02253642
v 0.02291123 -0.01523387 -0.01040668
v -0.01283024 -0.02409402 -0.02112207
v 0.01285656 -0.01804845 -0.01721239
v 0.07909739 -0.02255441 -0.02326393
v 0.08363691 -0.01422813 0.00219753
v -0.03373719 -0.04236604 -0.02313346
v -0.03621191 -0.04943411 0.00194627
v 0.07900197 -0.02996031 0.01510722
v 0.08038843 -0.01900422 0.01907237
v 0.00691588 -0.03902266 0.02210856
v 0.03520367 -0.02299811 0.02210795
v 0.02544638 -0.01528938 -0.01295005
v 0.04855162 -0.01463573 -0.01916435
v -0.01029003 -0.02038890 -0.01267264
v 0.08082787 -0.02145784 -0.02139924
v 0.07037183 -0.02771833 -0.02367921
v -0.03335852 -0.03533755 -0.02327465
v -0.00848144 -0.04504391 0.01691482
v 0.07129505 -0.03201909 0.01626142
v -0.02366486 -0.04217952 -0.02307882
v 0.06569508 -0.03473106 -0.01018660
v -0.01382590 -0.04539168 0.01883295
v 0.07321276 -0.03085532 0.01669095
v -0.02106503 -0.04728633 -0.01718416
v 0.07501216 -0.03236791 0.00692980
v 0.07447007 -0.02992099 -0.01892428
v -0.00320125 -0.04514236 0.00425712
v 0.01695173 -0.04030648 0.01949832
v -0.03599177 -0.04883229 -0.01924663
v 0.06303792 -0.03460138 0.01165408
v 0.07731711 -0.02963820 -0.01534768
v 0.06781842 -0.03202069 -0.01892949
v -0.00347578 -0.04499062 -0.01075059
v -0.02123521 -0.04751937 -0.00841206
v -0.00086940 -0.04230834 0.02070025
v 0.01214950 -0.04257855 0.01415594
v 0.04272892 -0.03477572 -0.02153895
v 0.06495597 -0.03449623 0.00458130
f 7 1 2
f 12 1 7
f 12 6 10
f 13 2 1
f 15 12 7
f 16 3 4
f 16 15 3
f 17 9 4
f 17 4 6
f 18 10 6
f 18 6 4
f 19 7 2
f 20 3 15
f 21 18 4
f 22 1 12
f 23 13 8
f 23 2 13
f 23 19 2
f 23 11 19
f 24 8 13
f 24 1 14
f 25 24 14
f 25 8 24
f 26 18 5
f 26 10 18
f 26 1 22
f 26 22 12
f 26 12 10
f 27 6 12
f 27 12 15
f 27 17 6
f 28 16 4
f 28 4 9
f 28 9 16
f 29 16 9
f 30 3 20
f 31 19 11
f 31 11 20
f 31 7 19
f 31 20 15
f 31 15 7
f 32 21 4
f 33 5 18
f 33 18 21
f 34 23 8
f 34 11 23
f 35 24 13
f 35 13 1
f 35 1 24
f 36 25 14
f 36 14 5
f 37 26 5
f 37 5 14
f 37 14 1
f 37 1 26
f 38 27 15
f 38 17 27
f 38 15 29
f 39 29 15
f 39 15 16
f 39 16 29
f 40 29 9
f 40 9 17
f 40 38 29
f 40 17 38
f 41 30 20
f 41 20 11
f 41 11 30
f 42 30 11
f 42 32 3
f 42 3 30
f 43 32 4
f 43 4 3
f 43 3 32
f 46 42 21
f 46 21 32
f 46 32 42
f 48 5 33
f 48 33 44
f 49 8 25
f 49 25 36
f 49 36 45
f 49 45 34
f 49 34 8
f 51 34 45
f 52 42 11
f 53 44 33
f 54 45 36
f 55 50 33
f 55 33 21
f 56 51 45
f 57 11 34
f 57 34 51
f 57 52 11
f 57 51 47
f 57 47 52
f 58 52 47
f 58 47 50
f 58 50 55
f 58 42 52
f 59 50 47
f 59 47 53
f 60 53 33
f 60 33 50
f 60 59 53
f 60 50 59
f 61 54 36
f 61 36 5
f 61 5 48
f 61 48 54
f 62 54 48
f 62 48 44
f 62 44 53
f 62 53 47
f 62 56 45
f 62 45 54
f 63 55 21
f 63 21 42
f 63 58 55
f 63 42 58
f 64 47 51
f 64 51 56
f 64 62 47
f 64 56 62

