# https://github.com/mikedh/trimesh
v -0.05601051 -0.02908187 0.02508999
v -0.05677386 -0.04935428 0.02514545
v -0.05692019 -0.05044452 -0.02091995
v -0.07271707 -0.03155358 -0.02072603
v -0.07946470 -0.04887316 0.01887649
v -0.05615847 -0.02705599 -0.01926775
v -0.05691257 -0.05320781 -0.01740036
v -0.07547492 -0.05233844 0.02499005
v -0.07404370 -0.03156219 0.02122157
v -0.05664494 -0.02900044 -0.02116363
v -0.05578759 -0.02533054 0.02150945
v -0.07950730 -0.05311074 -0.01745128
v -0.06732812 -0.05533745 0.02046194
v -0.07711018 -0.03259962 -0.01785192
v -0.07184636 -0.03188422 0.02475967
v -0.07745684 -0.05180556 -0.02063181
v -0.06854297 -0.02973228 -0.02054073
v -0.07934069 -0.05236447 0.01889591
v -0.05738409 -0.05248469 0.02093373
v -0.06235565 -0.05265503 0.02339844
v -0.07354123 -0.05525709 -0.01664592
v -0.07906853 -0.03810936 0.00123442
v -0.07124609 -0.02769329 -0.01499616
v -0.06617609 -0.03013507 0.02495752
v -0.06808991 -0.02799959 0.02147034
v -0.07632679 -0.04100813 0.02339794
v -0.07449931 -0.03382225 -0.02078332
v -0.07892649 -0.03831011 -0.01758873
v -0.07736934 -0.05350012 0.02243475
v -0.07970119 -0.05343312 -0.01126686
v -0.05692067 -0.05072684 0.02352692
v -0.05965640 -0.05041601 0.02497479
v -0.06682228 -0.05509739 -0.01473884
v -0.07869200 -0.05284103 -0.01928156
v -0.06975235 -0.05484954 -0.01697032
v -0.07636264 -0.03390481 0.01702922
v -0.07667977 -0.03212387 0.00393211
v -0.05606323 -0.02527078 -0.01287035
v -0.06369380 -0.02791641 -0.01921028
v -0.07331324 -0.03002603 -0.01875250
v -0.07183898 -0.03044167 0.02287971
v -0.07494519 -0.03049215 -0.00075365
v -0.06358155 -0.02542181 0.00697962
v -0.07613849 -0.03599553 0.02104067
v -0.07480231 -0.04035643 0.02459397
v -0.07693661 -0.03380766 -0.01886596
v -0.07620129 -0.05537738 0.02075748
v -0.07740241 -0.05510708 -0.01511402
v -0.07728719 -0.04288813 -0.02059490
v -0.05898009 -0.05263025 -0.01861519
v -0.06862922 -0.02796069 -0.01743170
v -0.07440087 -0.03002214 -0.01773086
v -0.06999907 -0.02799420 0.00445982
v -0.06092589 -0.02546995 -0.00790233
v -0.07807655 -0.05484923 -0.01202273
v -0.06329298 -0.02544764 0.00222624
f 7 3 6
f 8 2 1
f 10 6 3
f 11 1 2
f 11 2 7
f 11 7 6
f 16 10 3
f 17 10 4
f 17 6 10
f 19 13 7
f 20 8 13
f 20 13 19
f 24 15 8
f 24 8 1
f 24 1 11
f 25 24 11
f 25 15 24
f 27 4 10
f 27 10 16
f 28 22 14
f 29 5 18
f 29 26 5
f 29 8 26
f 30 18 5
f 30 5 22
f 30 28 12
f 30 22 28
f 31 19 7
f 31 7 2
f 31 20 19
f 31 2 20
f 32 20 2
f 32 2 8
f 32 8 20
f 33 7 13
f 33 13 21
f 34 16 21
f 34 12 28
f 35 21 16
f 35 16 3
f 35 33 21
f 35 7 33
f 36 22 5
f 37 36 9
f 37 14 22
f 37 22 36
f 38 11 6
f 39 6 17
f 40 17 4
f 40 4 14
f 41 25 9
f 41 9 15
f 41 15 25
f 42 9 25
f 42 37 9
f 43 25 11
f 43 11 38
f 44 26 15
f 44 15 9
f 44 9 36
f 44 36 5
f 44 5 26
f 45 26 8
f 45 8 15
f 45 15 26
f 46 14 4
f 46 4 27
f 46 28 14
f 47 13 8
f 47 8 29
f 47 21 13
f 47 29 18
f 47 18 30
f 48 21 47
f 48 34 21
f 48 12 34
f 49 34 28
f 49 16 34
f 49 28 46
f 49 46 27
f 49 27 16
f 50 35 3
f 50 3 7
f 50 7 35
f 51 39 17
f 51 23 38
f 51 38 6
f 51 6 39
f 51 40 23
f 51 17 40
f 52 40 14
f 52 23 40
f 52 42 23
f 52 14 37
f 52 37 42
f 53 42 25
f 53 23 42
f 53 43 23
f 53 25 43
f 54 38 23
f 55 30 12
f 55 12 48
f 55 48 47
f 55 47 30
f 56 43 38
f 56 38 54
f 56 54 23
f 56 23 43

