# https://github.com/mikedh/trimesh
v 0.03506156 0.00715099 0.01957871
v 0.06539957 -0.06778262 0.01845671
v 0.03632047 0.00675776 -0.01812275
v 0.02775141 0.00783301 -0.01999999
v 0.02775141 -0.01965104 0.01950698
v 0.06506057 -0.06755159 -0.01888892
v 0.03539242 0.00728057 -0.01928680
v 0.03621960 0.00671826 0.01845671
v 0.06454279 -0.06719783 0.01930298
v 0.02775141 0.00783301 0.02000001
v 0.06373660 -0.06328849 -0.01819387
v 0.04806257 -0.06755159 -0.01888892
v 0.06399063 -0.06545185 -0.01917032
v 0.03861038 -0.00002023 -0.01888892
v 0.03908968 -0.00209537 0.01926781
v 0.04783075 -0.06606752 0.01927974
v 0.05670201 -0.04528193 -0.01812704
v 0.02775141 -0.01994252 -0.01926775
v 0.03666970 0.00463169 -0.01902381
v 0.06391632 -0.06548096 0.01926781
v 0.04790457 -0.06778262 0.01845671
v 0.04615484 -0.06357480 -0.01817549
f 8 2 3
f 8 7 1
f 8 3 7
f 10 7 4
f 10 1 7
f 10 9 1
f 11 2 6
f 12 6 2
f 13 4 7
f 13 12 4
f 13 6 12
f 14 6 13
f 14 11 6
f 14 3 11
f 15 8 1
f 16 10 5
f 16 9 10
f 17 11 3
f 17 3 2
f 17 2 11
f 18 4 12
f 18 10 4
f 18 5 10
f 19 7 3
f 19 3 14
f 19 14 13
f 19 13 7
f 20 9 2
f 20 2 8
f 20 8 15
f 20 15 1
f 20 1 9
f 21 16 5
f 21 12 2
f 21 2 9
f 21 9 16
f 21 5 18
f 22 21 18
f 22 18 12
f 22 12 21

