# https://github.com/mikedh/trimesh
v 0.06158846 -0.02129405 0.01906631
v 0.06996058 -0.02418661 -0.00165771
v 0.06838281 -0.02042586 -0.02407355
v 0.04957154 -0.02139963 -0.02569219
v 0.04949824 -0.03252681 0.01247584
v 0.05232732 -0.01887742 0.00670577
v 0.06019928 -0.02814056 0.01400095
v 0.04889065 -0.03151361 -0.02005934
v 0.05662685 -0.02092990 -0.02562241
v 0.05675918 -0.02138976 0.01952158
v 0.05572391 -0.03070747 0.01231760
v 0.06006563 -0.02606638 0.01722047
v 0.06784718 -0.02352510 -0.02128407
v 0.04905135 -0.02915163 -0.02342996
v 0.05802811 -0.02798436 -0.01948235
v 0.05597804 -0.02919843 0.01626191
v 0.05608407 -0.02710382 0.01838619
v 0.04967359 -0.02557003 -0.02522510
v 0.05132337 -0.02883813 -0.02303522
v 0.06825906 -0.02489780 -0.00149171
v 0.05771043 -0.02874933 0.01545322
v 0.05643147 -0.02312751 -0.02507237
v 0.05168505 -0.02518558 -0.02512687
v 0.05560083 -0.02800475 -0.02170139
v 0.06809258 -0.02161098 -0.02307870
v 0.05810655 -0.02589206 -0.02309361
f 1 2 3
f 6 1 3
f 6 4 5
f 8 5 4
f 9 6 3
f 9 4 6
f 10 6 5
f 10 1 6
f 11 2 7
f 11 5 8
f 12 7 2
f 12 2 1
f 13 3 2
f 14 8 4
f 15 11 8
f 15 13 2
f 15 8 13
f 16 5 11
f 17 12 1
f 17 1 10
f 17 16 12
f 17 10 5
f 17 5 16
f 18 14 4
f 18 4 9
f 19 8 14
f 19 14 3
f 20 15 2
f 20 2 11
f 20 11 15
f 21 16 11
f 21 11 7
f 21 7 12
f 21 12 16
f 22 9 3
f 23 3 14
f 23 14 18
f 23 22 3
f 23 18 9
f 23 9 22
f 24 19 13
f 24 13 8
f 24 8 19
f 25 3 13
f 26 19 3
f 26 3 25
f 26 25 13
f 26 13 19

