# https://github.com/mikedh/trimesh
v 0.05035887 -0.01320291 0.02019391
v 0.04958401 -0.02770300 0.01969533
v 0.04970997 -0.01942004 -0.02551041
v -0.02900615 -0.02886362 -0.02291071
v -0.03741781 -0.02727854 0.01931680
v -0.01778053 -0.05510600 -0.01954328
v 0.05031103 -0.00633570 -0.01976732
v 0.04951582 -0.02544985 -0.02526756
v -0.01780269 -0.05131776 0.02463120
v -0.02908375 -0.04998006 -0.02382661
v 0.05027967 -0.01084016 -0.02319027
v 0.05053111 -0.00709790 0.01419246
v 0.04628150 -0.03290234 -0.01812606
v 0.03325690 -0.03239204 0.02166526
v -0.01738438 -0.03393877 0.02473085
v -0.00607121 -0.04799075 -0.02299472
v 0.02608357 -0.02671378 -0.02518420
v -0.02484805 -0.05680632 0.01620268
v 0.04066633 -0.01957660 -0.02519317
v 0.04301715 -0.00750634 -0.00604746
v -0.01867854 -0.02408517 0.02147500
v 0.04889367 -0.03072484 -0.02154539
v 0.03903561 -0.03357997 0.01953776
v -0.00046258 -0.03583810 0.02442797
v 0.02594020 -0.03292980 -0.02523840
v -0.01720893 -0.05118971 -0.02286262
v -0.00375618 -0.05190463 0.00762729
v 0.04332745 -0.00758473 -0.00216965
v -0.01900335 -0.02672984 0.02293477
v 0.04910272 -0.02930724 -0.02321637
v 0.04653903 -0.03259827 0.01622259
v 0.03925015 -0.03516218 -0.01937707
v 0.02000817 -0.03880830 0.02180242
v 0.03263473 -0.02161680 0.02201185
v -0.00088801 -0.04437709 0.02408764
v 0.03016526 -0.03239315 -0.02504970
v -0.01314716 -0.05242271 -0.02087881
v -0.01128275 -0.05428823 0.00782400
v -0.00633195 -0.05187869 -0.01769319
v 0.04595317 -0.00792614 0.01171626
v 0.02785541 -0.02015009 0.02173188
v 0.01765649 -0.04217457 -0.02105860
v 0.04825055 -0.03089413 0.01804680
v 0.04131167 -0.03527272 -0.00151487
v -0.01579370 -0.05442620 0.01944781
v 0.04399019 -0.03264791 -0.02145941
v -0.01777739 -0.05336565 0.02332227
v -0.00300361 -0.03365851 0.02432464
v 0.01100986 -0.04312909 -0.02265230
v 0.04674716 -0.02725790 -0.02491261
v -0.01522922 -0.05096840 -0.02263480
v 0.02255267 -0.04224723 -0.00151228
v 0.02687795 -0.04002507 -0.01781351
v -0.01360186 -0.05419886 -0.01760417
v -0.01580016 -0.05445482 -0.01949233
v 0.04374237 -0.03175411 0.01918742
v 0.04124196 -0.03508867 0.01476936
v -0.01126671 -0.05406065 0.01238823
v -0.01529059 -0.05102627 0.02416598
v -0.01757206 -0.05492596 0.01949391
v 0.00286723 -0.04717427 0.02072501
v 0.04437096 -0.03131562 -0.02292284
v 0.02242221 -0.04237661 0.00539892
v -0.01326683 -0.05412151 0.01682025
f 7 4 5
f 8 1 2
f 10 5 4
f 11 4 7
f 11 8 3
f 11 1 8
f 12 11 7
f 12 1 11
f 14 2 1
f 15 5 9
f 17 10 4
f 18 9 5
f 18 5 10
f 18 10 6
f 19 11 3
f 19 4 11
f 19 17 4
f 19 3 17
f 20 12 7
f 20 7 5
f 21 12 5
f 21 1 12
f 23 2 14
f 24 15 9
f 25 10 17
f 25 17 3
f 25 3 8
f 26 6 10
f 26 25 16
f 26 10 25
f 28 20 5
f 28 12 20
f 29 1 21
f 29 21 5
f 29 5 15
f 30 8 2
f 30 2 22
f 31 13 22
f 33 23 14
f 34 24 14
f 34 14 1
f 35 24 9
f 35 14 24
f 35 33 14
f 36 25 8
f 36 16 25
f 38 18 6
f 40 28 5
f 40 5 12
f 40 12 28
f 41 29 15
f 41 1 29
f 41 34 1
f 41 15 34
f 42 32 39
f 43 31 22
f 43 22 2
f 44 13 31
f 46 22 13
f 46 13 32
f 46 32 42
f 46 30 22
f 47 23 33
f 47 9 18
f 48 34 15
f 48 15 24
f 48 24 34
f 49 16 36
f 49 37 16
f 49 42 6
f 49 6 37
f 50 36 8
f 50 8 30
f 50 49 36
f 50 30 49
f 51 26 16
f 51 16 37
f 51 37 6
f 51 6 26
f 52 27 39
f 52 13 44
f 53 39 32
f 53 32 13
f 53 52 39
f 53 13 52
f 54 38 6
f 54 6 39
f 54 39 27
f 54 27 38
f 55 42 39
f 55 39 6
f 55 6 42
f 56 43 2
f 56 2 23
f 56 23 43
f 57 44 31
f 58 38 27
f 58 27 57
f 58 18 38
f 59 47 33
f 59 9 47
f 59 35 9
f 59 33 35
f 60 47 18
f 60 45 47
f 60 18 58
f 61 47 45
f 61 31 43
f 61 43 23
f 61 23 47
f 61 57 31
f 61 45 57
f 62 46 42
f 62 42 49
f 62 49 30
f 62 30 46
f 63 52 44
f 63 44 57
f 63 57 27
f 63 27 52
f 64 58 57
f 64 57 45
f 64 60 58
f 64 45 60

