# https://github.com/mikedh/trimesh
v 0.04857266 0.02449256 0.01952082
v 0.05036587 0.00464115 0.01365781
v 0.04875154 0.02462549 -0.02257870
v -0.01010361 0.04468907 -0.02178785
v -0.00761430 0.03345009 0.02458603
v 0.05047789 0.00146715 -0.01972121
v -0.00862724 0.04989132 0.00268696
v 0.04876578 0.02810889 0.01412469
v 0.04941682 0.01252148 0.01943336
v 0.05053872 0.00809230 -0.02541411
v -0.00658963 0.02414593 -0.01961948
v 0.02255477 0.03756558 -0.01915550
v -0.01101029 0.04844161 0.02249788
v -0.00684326 0.02591086 0.02205136
v -0.00304072 0.03575903 0.02439450
v 0.04881944 0.02624193 0.01765169
v 0.04984066 0.01412254 -0.02542159
v 0.04881751 0.02820403 -0.01548808
v 0.05068617 0.00177767 0.00526800
v 0.05058724 0.00450982 -0.02329990
v -0.00655344 0.02725643 -0.02285041
v 0.01050258 0.04028142 -0.02115488
v -0.00874634 0.04977356 0.01872870
v -0.01071727 0.05028268 -0.00631320
v -0.00689656 0.02198038 0.00658272
v 0.02325607 0.01981194 0.02176285
v -0.01048159 0.04681850 0.02348093
v 0.03750921 0.02866402 -0.02301449
v 0.04611436 0.02822917 -0.01968215
v 0.03199033 0.03535543 0.00524377
v 0.04887638 0.02632606 -0.02095193
v 0.01739984 0.01499245 0.01608607
v 0.04273637 0.01425204 -0.02542219
v 0.01024031 0.04237558 0.01819324
v -0.01046774 0.04611612 -0.02110982
v -0.01071439 0.05036688 0.01912259
v -0.00664778 0.02189515 0.01210067
v -0.00439386 0.02186236 -0.00657973
v 0.00197247 0.02345998 0.02176307
v -0.00509459 0.03339994 0.02451591
v 0.04947394 0.00845786 0.01768122
v -0.00782709 0.04244863 0.02443537
v 0.01139649 0.03729056 -0.02264917
v 0.04362178 0.03051312 0.01228390
v 0.01299815 0.04236717 0.00067823
v 0.04421444 0.02810530 -0.02104986
v 0.02898870 0.00999822 0.01148180
v 0.01930383 0.01679783 0.01968069
v 0.04278360 0.01264633 -0.02531848
v -0.00769912 0.03805703 -0.02294219
v 0.04134113 0.03044543 0.01587659
v 0.01278003 0.04029347 0.01986779
v -0.01046695 0.04833134 -0.01907928
v -0.00653536 0.02413092 0.02013362
v 0.03163823 0.00765728 -0.00378081
v -0.00301340 0.03806732 0.02431432
v -0.00563748 0.04217497 0.02423956
v 0.00566167 0.04452321 0.01663137
v 0.01308636 0.04223262 0.00772612
v 0.00569242 0.04484875 -0.00374162
v 0.02470373 0.03754996 -0.01573752
v 0.02450434 0.03584871 -0.02064796
v 0.02692017 0.00995483 0.00753808
v 0.01275132 0.01741927 0.01814406
f 15 9 1
f 16 1 9
f 16 13 1
f 16 9 2
f 16 2 8
f 18 8 10
f 19 10 8
f 19 8 2
f 20 6 11
f 20 19 6
f 20 10 19
f 21 11 4
f 21 20 11
f 21 10 20
f 27 14 5
f 27 13 14
f 27 1 13
f 28 3 17
f 29 12 18
f 31 17 3
f 31 29 18
f 31 18 10
f 31 10 17
f 33 17 10
f 34 8 23
f 35 13 24
f 35 25 13
f 35 4 11
f 35 11 25
f 36 23 7
f 36 7 24
f 36 24 13
f 36 34 23
f 36 13 34
f 37 14 13
f 37 13 25
f 38 25 11
f 38 11 6
f 39 26 5
f 39 5 14
f 40 5 26
f 40 26 9
f 40 9 15
f 41 2 9
f 41 9 26
f 42 27 5
f 42 40 15
f 42 5 40
f 43 28 17
f 43 22 28
f 43 35 22
f 43 4 35
f 44 8 18
f 44 18 30
f 44 23 8
f 45 7 23
f 46 31 3
f 46 3 28
f 46 12 29
f 46 29 31
f 47 19 2
f 47 2 32
f 47 32 37
f 48 39 14
f 48 2 41
f 48 41 26
f 48 26 39
f 49 33 10
f 49 10 21
f 49 21 33
f 50 33 21
f 50 21 4
f 50 17 33
f 50 43 17
f 50 4 43
f 51 34 16
f 51 16 8
f 51 8 34
f 52 34 13
f 52 13 16
f 52 16 34
f 53 35 24
f 53 12 22
f 53 22 35
f 54 37 32
f 54 14 37
f 54 48 14
f 55 37 25
f 55 6 19
f 55 38 6
f 55 25 38
f 56 42 15
f 56 15 1
f 57 1 27
f 57 27 42
f 57 56 1
f 57 42 56
f 58 44 30
f 58 30 23
f 58 23 44
f 59 45 23
f 59 23 30
f 59 30 45
f 60 24 7
f 60 7 45
f 61 45 30
f 61 30 18
f 61 60 45
f 61 18 12
f 61 24 60
f 61 53 24
f 61 12 53
f 62 46 28
f 62 28 22
f 62 22 12
f 62 12 46
f 63 47 37
f 63 19 47
f 63 55 19
f 63 37 55
f 64 32 2
f 64 2 48
f 64 54 32
f 64 48 54

