# https://github.com/mikedh/trimesh
v -0.02903910 0.03809686 0.02634060
v -0.01561312 -0.05451197 0.01827185
v -0.01630241 0.02848635 0.02302141
v -0.02825031 0.03584507 0.01312856
v -0.04889549 -0.06456849 0.02320665
v -0.01688643 0.03199754 0.02467232
v -0.03983025 0.02132440 0.01720206
v -0.04809485 -0.06596401 0.01788904
v -0.01745875 -0.04966745 0.02521876
v -0.04825613 -0.04573881 0.02691075
v -0.03370172 0.03822850 0.02621098
v -0.03717236 -0.06242036 0.01725050
v -0.04785127 -0.03667676 0.01742956
v -0.04892513 -0.06287919 0.02537006
v -0.03160685 -0.04048780 0.02674785
v -0.04177770 -0.06418097 0.01742047
v -0.04696514 -0.06420426 0.02266881
v -0.04820213 -0.05918804 0.02700281
v -0.04176391 -0.06392023 0.01883034
v -0.03145731 -0.04294467 0.02672388
v -0.03684546 -0.06143385 0.02074621
f 3 2 4
f 6 3 4
f 6 4 1
f 9 2 3
f 9 3 6
f 9 6 1
f 11 1 4
f 11 4 7
f 11 10 1
f 11 7 10
f 12 4 2
f 13 7 4
f 13 4 8
f 13 10 7
f 13 8 5
f 14 2 9
f 14 13 5
f 14 10 13
f 15 9 1
f 16 8 4
f 16 4 12
f 16 12 2
f 17 14 5
f 17 2 14
f 17 5 8
f 18 15 1
f 18 1 10
f 18 10 14
f 18 14 9
f 19 16 2
f 19 17 8
f 19 8 16
f 20 18 9
f 20 9 15
f 20 15 18
f 21 19 2
f 21 2 17
f 21 17 19

