# https://github.com/mikedh/trimesh
v -0.02914738 0.04963947 0.02668009
v -0.02895324 0.03095519 0.02632462
v -0.02899188 0.03814977 -0.02286928
v -0.06178573 0.06397779 -0.02075792
v -0.06700907 0.04876638 0.02560352
v -0.02969862 0.05658802 -0.01532120
v -0.06313933 0.04501486 0.02686320
v -0.06359572 0.06911458 0.02153475
v -0.02943392 0.05310682 -0.02072560
v -0.04312667 0.04138567 0.02670968
v -0.04694444 0.03370636 -0.01559113
v -0.06925293 0.06395319 -0.01315236
v -0.05850837 0.06862760 -0.01439737
v -0.03056044 0.05681841 0.02287548
v -0.06400450 0.06568820 0.02655969
v -0.02943933 0.04563650 0.02664629
v -0.02966812 0.03177804 -0.02304201
v -0.06357469 0.04112389 0.02121125
v -0.06543298 0.04509564 -0.01865407
v -0.06620493 0.06881662 -0.01487170
v -0.05366890 0.06419927 -0.01855655
v -0.02987991 0.05514895 0.02452924
v -0.05144274 0.06636017 0.01988519
v -0.06473951 0.06187931 0.02694192
v -0.06696256 0.06745780 0.01909983
v -0.03677622 0.03099366 -0.02057821
v -0.04718980 0.03397664 0.01215639
v -0.05896357 0.04110323 0.02507273
v -0.06523613 0.04299660 0.02327727
v -0.06744213 0.05463366 -0.01813835
v -0.05912178 0.03867384 -0.01297283
v -0.06345113 0.04671805 -0.02050799
v -0.06065499 0.06926091 0.02123745
v -0.06439157 0.06654045 -0.01864475
v -0.02969663 0.05516073 -0.01910020
v -0.04651981 0.05987952 0.02674775
v -0.03971930 0.06149019 0.00368670
v -0.06559355 0.04640508 0.02639645
v -0.06496526 0.06689217 0.02574645
v -0.06931074 0.05897249 0.00968350
v -0.06651074 0.06906609 -0.00975961
v -0.03347530 0.03094508 -0.02221752
v -0.03681447 0.03223475 0.02398828
v -0.04943948 0.03396474 0.00072445
v -0.05924106 0.04261854 0.02664949
v -0.06515233 0.04263961 -0.01622020
v -0.06348511 0.04280635 0.02466115
v -0.06371101 0.06197264 -0.02030273
v -0.06682944 0.04810206 -0.01895752
v -0.05893919 0.06885065 -0.01184231
v -0.04674953 0.06384708 0.02258630
v -0.06561746 0.06633879 -0.01855779
v -0.06092546 0.06646365 -0.01837077
v -0.03440866 0.05377656 0.02633855
v -0.05651118 0.06440166 0.02670681
v -0.03979460 0.06131210 0.02165579
v -0.03490179 0.05916481 -0.00883029
v -0.06730948 0.04642224 0.02329402
v -0.06678451 0.06594978 0.02325941
v -0.06928575 0.06392372 -0.00931889
v -0.06684331 0.06773650 -0.01615772
v -0.06340566 0.04326686 -0.01836822
v -0.04408273 0.03394124 0.01929123
v -0.04939554 0.03409596 -0.00374105
f 1 2 3
f 9 6 1
f 9 1 3
f 9 3 4
f 10 7 2
f 10 1 7
f 16 10 2
f 16 2 1
f 16 1 10
f 17 3 2
f 17 4 3
f 21 9 4
f 22 1 6
f 22 6 14
f 24 7 1
f 32 4 17
f 34 20 13
f 35 21 13
f 35 13 6
f 35 6 9
f 35 9 21
f 36 24 1
f 38 24 5
f 38 7 24
f 39 8 25
f 39 33 8
f 39 24 15
f 41 25 8
f 41 8 33
f 42 17 2
f 42 2 26
f 42 32 17
f 43 28 18
f 43 2 28
f 43 26 2
f 44 11 26
f 44 43 27
f 44 26 43
f 44 27 18
f 44 18 31
f 45 28 2
f 45 2 7
f 46 18 29
f 46 31 18
f 46 26 11
f 46 11 31
f 47 29 18
f 47 18 28
f 47 28 45
f 47 45 7
f 47 38 29
f 47 7 38
f 48 4 32
f 49 32 19
f 49 48 32
f 49 30 48
f 49 19 46
f 49 40 12
f 49 12 30
f 50 33 23
f 50 41 33
f 50 13 20
f 50 20 41
f 50 37 13
f 50 23 37
f 51 23 33
f 51 22 14
f 52 30 12
f 52 20 34
f 52 48 30
f 52 34 4
f 52 4 48
f 53 21 4
f 53 4 34
f 53 34 13
f 53 13 21
f 54 36 1
f 54 1 22
f 54 22 36
f 55 15 24
f 55 24 36
f 55 39 15
f 55 36 22
f 55 22 51
f 55 51 33
f 55 33 39
f 56 37 23
f 56 14 37
f 56 51 14
f 56 23 51
f 57 37 14
f 57 14 6
f 57 6 13
f 57 13 37
f 58 38 5
f 58 29 38
f 58 46 29
f 58 49 46
f 58 5 40
f 58 40 49
f 59 39 25
f 59 5 24
f 59 24 39
f 59 40 5
f 59 25 40
f 60 40 25
f 60 12 40
f 60 41 12
f 60 25 41
f 61 41 20
f 61 12 41
f 61 52 12
f 61 20 52
f 62 42 26
f 62 19 32
f 62 32 42
f 62 46 19
f 62 26 46
f 63 43 18
f 63 18 27
f 63 27 43
f 64 44 31
f 64 31 11
f 64 11 44

