# https://github.com/mikedh/trimesh
v -0.02407227 -0.01494175 0.02399666
v -0.01381568 -0.04596659 0.01687344
v -0.01278623 -0.01997487 -0.00635461
v -0.02399013 -0.01474761 -0.02067864
v -0.02389226 -0.04811211 -0.01107205
v -0.02304542 -0.01366813 -0.01998327
v -0.01334017 -0.02174875 0.01699095
v -0.02358528 -0.04774146 0.01711513
v -0.02444105 -0.02323939 -0.02109379
v -0.01349729 -0.04670940 -0.01083526
v -0.02146785 -0.01519128 0.01937929
v -0.02225097 -0.02048967 0.02305852
v -0.01333453 -0.03017824 -0.02345130
v -0.02294043 -0.01478321 0.02323343
v -0.02388910 -0.02013654 0.02398252
v -0.02350666 -0.03021744 -0.02334190
v -0.01293241 -0.02435057 -0.02137693
v -0.02115134 -0.04773025 -0.01121197
v -0.01282067 -0.02238582 -0.01914038
v -0.01301389 -0.02016341 -0.01029932
f 6 4 1
f 7 2 3
f 9 1 4
f 9 8 1
f 9 5 8
f 10 3 2
f 10 8 5
f 10 2 8
f 11 3 6
f 11 7 3
f 12 2 7
f 14 11 6
f 14 6 1
f 14 7 11
f 14 12 7
f 14 1 12
f 15 8 2
f 15 2 12
f 15 12 1
f 15 1 8
f 16 9 4
f 16 4 13
f 16 13 5
f 16 5 9
f 17 13 4
f 17 4 6
f 17 10 13
f 18 13 10
f 18 10 5
f 18 5 13
f 19 17 6
f 19 3 10
f 19 10 17
f 20 19 6
f 20 6 3
f 20 3 19

