# https://github.com/mikedh/trimesh
v 0.01191137 0.05761601 0.02000001
v 0.01191137 0.04630169 0.02000001
v 0.01191196 0.04630184 -0.01999902
v 0.00193177 0.05801946 -0.01943384
v -0.00255236 0.05558771 0.01888891
v 0.01191137 0.05761601 -0.01999999
v 0.00210054 0.05807047 0.01957871
v 0.00510401 0.04706102 -0.01918757
v -0.00219793 0.05775671 0.01914787
v 0.00516633 0.04708210 0.01926781
v -0.00234716 0.05553343 -0.01849177
v -0.00191199 0.05768114 -0.01873247
vn 0.57748479 0.56065456 0.59344568
vn 0.52512250 -0.61167515 0.59169238
vn 0.52273720 -0.60973875 -0.59578895
vn -0.11063248 0.68833961 -0.71690239
vn -0.79811266 -0.25146817 0.54752163
vn 0.57227220 0.56146707 -0.59771168
vn -0.06602610 0.70254361 0.70857112
vn -0.40581989 -0.69862814 -0.58926135
vn -0.57724371 0.57469916 0.58009532
vn -0.39635159 -0.70413332 0.58915336
vn -0.80960506 -0.22680954 -0.54138440
vn -0.58446046 0.58114375 -0.56628431
f 1//1 2//2 3//3
f 6//6 1//1 3//3
f 6//6 3//3 4//4
f 7//7 2//2 1//1
f 7//7 6//6 4//4
f 7//7 1//1 6//6
f 8//8 3//3 2//2
f 8//8 4//4 3//3
f 9//9 2//2 7//7
f 9//9 7//7 4//4
f 10//10 8//8 2//2
f 10//10 5//5 8//8
f 10//10 9//9 5//5
f 10//10 2//2 9//9
f 11//11 8//8 5//5
f 11//11 5//5 9//9
f 12//12 4//4 8//8
f 12//12 8//8 11//11
f 12//12 11//11 9//9
f 12//12 9//9 4//4

