# https://github.com/mikedh/trimesh
v -0.00280521 0.05791740 0.01965947
v -0.00415764 0.04935184 0.01845671
v -0.00265924 0.05787879 -0.01957866
v -0.01610723 0.05706546 -0.01930109
v -0.03629436 0.00721180 0.01857816
v -0.01982341 0.00871146 0.01931352
v -0.01695287 0.05650758 0.01845671
v -0.03584468 0.00703513 -0.01926775
v -0.00624509 0.04484009 0.01931199
v -0.03478652 0.00750935 0.01980971
v -0.01561005 0.01788137 -0.01815722
v -0.01579249 0.05694156 0.01957871
v -0.01704949 0.05654563 -0.01814164
v -0.00885157 0.03599555 0.01845297
v -0.00358752 0.05365527 0.01942044
v -0.00437840 0.04942109 -0.01888892
v -0.01971732 0.00867119 -0.01918655
v -0.01983716 0.04770075 0.01926781
v -0.01935532 0.04977396 -0.01888892
v -0.03304695 0.01587605 -0.01818461
v -0.01570421 0.01791691 0.01845461
v -0.00876781 0.03596374 -0.01819846
v -0.00668652 0.04272654 -0.01900873
v -0.03377675 0.01163758 0.01946356
v -0.01739620 0.05441923 -0.01903702
v -0.03534762 0.00910234 -0.01890863
v -0.03557780 0.00919293 0.01845671
v -0.01774828 0.01330958 -0.01895862
v -0.02876396 0.02502304 0.01926781
v -0.01345724 0.02471206 -0.01900080
f 1 2 3
f 1 3 4
f 8 4 3
f 8 6 5
f 9 1 6
f 10 6 1
f 10 5 6
f 12 1 4
f 12 4 7
f 12 10 1
f 13 7 4
f 14 9 6
f 14 2 9
f 15 9 2
f 15 2 1
f 15 1 9
f 16 3 2
f 17 8 3
f 17 6 8
f 18 12 7
f 18 7 5
f 20 13 19
f 21 14 6
f 21 11 14
f 21 17 11
f 21 6 17
f 22 14 11
f 22 16 2
f 22 2 14
f 23 17 3
f 23 3 16
f 23 16 22
f 24 5 10
f 24 10 12
f 24 12 18
f 25 19 13
f 25 13 4
f 25 4 8
f 25 8 19
f 26 8 5
f 26 5 20
f 26 20 19
f 26 19 8
f 27 20 5
f 27 5 7
f 27 7 13
f 27 13 20
f 28 22 11
f 28 11 17
f 29 24 18
f 29 18 5
f 29 5 24
f 30 23 22
f 30 22 28
f 30 28 17
f 30 17 23

