# https://github.com/mikedh/trimesh
v -0.02080132 0.00822428 0.01979677
v -0.01524300 -0.00511482 0.01281153
v -0.01971732 0.00867119 -0.01918655
v -0.03584468 0.00703513 -0.01926775
v -0.04519034 -0.01774057 0.01957871
v -0.03584468 0.00703513 0.01926781
v -0.01934145 0.00852841 0.01861071
v -0.02429445 -0.01705849 0.02000001
v -0.04450463 -0.01348476 0.01845671
v -0.01524300 -0.00580891 -0.01922119
v -0.01750586 -0.00594857 0.01935108
v -0.03751394 0.00453861 -0.01816893
v -0.04477148 -0.01564258 0.01926781
v -0.01524300 -0.00649677 -0.01972343
v -0.03742388 0.00450314 0.01845671
v -0.04551660 -0.01761214 -0.01929081
v -0.04198093 -0.00679883 -0.01815324
v -0.02429445 -0.01705849 -0.01999999
v -0.04428934 -0.01356949 -0.01888892
v -0.03982599 -0.00223062 -0.01888892
f 6 3 4
f 6 5 1
f 7 6 1
f 7 3 6
f 8 1 5
f 10 7 2
f 10 3 7
f 11 7 1
f 11 1 8
f 11 8 2
f 11 2 7
f 12 6 4
f 13 9 5
f 13 5 6
f 13 6 9
f 14 10 2
f 14 2 8
f 14 4 3
f 14 3 10
f 15 9 6
f 15 6 12
f 16 5 9
f 17 15 12
f 17 9 15
f 18 16 4
f 18 4 14
f 18 14 8
f 18 8 5
f 18 5 16
f 19 16 9
f 19 9 17
f 19 4 16
f 19 17 12
f 20 19 12
f 20 12 4
f 20 4 19

