# https://github.com/mikedh/trimesh
v 0.05024128 -0.01307528 0.02001770
v 0.04958970 -0.02780645 0.01956347
v 0.04999230 -0.01947946 -0.02544043
v 0.00943669 -0.02558864 -0.02323488
v 0.00838345 -0.04229993 0.02255775
v 0.05061098 -0.00694389 -0.01140077
v 0.03258766 -0.03248687 0.02187544
v 0.00949746 -0.02187963 0.01865401
v 0.01298278 -0.04474483 -0.01802140
v 0.05012050 -0.01054399 -0.02301611
v 0.03882909 -0.03335811 0.01976560
v 0.00918473 -0.02524001 0.02237763
v 0.00980613 -0.02160494 -0.01747699
v 0.05039004 -0.00709805 0.01414294
v 0.04849633 -0.03120495 -0.02110440
v 0.00852714 -0.04563278 -0.01987197
v 0.04054735 -0.01965323 -0.02518309
v 0.02536467 -0.03680191 0.02149083
v 0.04422070 -0.03076104 0.01991076
v 0.01532210 -0.04447704 0.01220691
v 0.03262482 -0.02149395 0.02199511
v 0.00955571 -0.02334179 -0.02112250
v 0.00856082 -0.04352622 -0.02289559
v 0.04105124 -0.01192563 -0.02119645
v 0.05040126 -0.00941728 0.01765770
v 0.04327399 -0.00738787 -0.00551945
v 0.04967359 -0.02557003 -0.02522510
v 0.04611519 -0.03263937 -0.02002360
v 0.01479584 -0.04040633 0.02209238
v 0.01535349 -0.04477294 -0.00120406
v 0.00830988 -0.04554821 0.01916548
v 0.03065121 -0.02015354 0.02198801
v 0.02592191 -0.02873297 -0.02539672
v 0.01735322 -0.04233414 -0.02099698
v 0.02231624 -0.01938731 0.02003522
v 0.01244485 -0.01952547 -0.00616394
v 0.04601680 -0.00742261 0.01026266
v 0.03669613 -0.01246635 -0.01810961
v 0.04783330 -0.00756897 -0.01102115
v 0.04872537 -0.03270423 0.00820073
v 0.04905135 -0.02915163 -0.02342996
v 0.02707769 -0.03992757 -0.01769464
v 0.02212985 -0.04030486 0.01947992
v 0.02173022 -0.02094871 0.02159454
v 0.02832481 -0.02651289 -0.02533384
v 0.02572482 -0.03261778 -0.02522778
v 0.01091900 -0.04322254 -0.02260913
v 0.04383973 -0.03270629 -0.02159775
v 0.01058616 -0.04493838 -0.01997589
v 0.01284877 -0.01954318 0.01249737
v 0.04618942 -0.03287281 0.01590084
v 0.04868365 -0.03279550 0.01218565
v 0.04677338 -0.02716902 -0.02502169
v 0.02235076 -0.04224838 -0.00140511
v 0.04158796 -0.03501954 -0.00363535
v 0.01785700 -0.04046654 -0.02295186
v 0.04432099 -0.03124043 -0.02300281
v 0.04327468 -0.00756193 -0.00222771
v 0.04847826 -0.03073239 0.01801524
v 0.02235375 -0.04223500 0.00761276
v 0.04121748 -0.03512129 0.01466899
v 0.03029996 -0.03256966 -0.02495824
v 0.01290544 -0.04456934 0.01702731
f 6 1 2
f 6 2 3
f 7 2 1
f 10 6 3
f 17 10 3
f 17 4 10
f 19 2 7
f 19 18 11
f 19 7 18
f 21 7 1
f 21 12 5
f 21 5 7
f 22 12 8
f 22 4 12
f 22 8 13
f 23 12 4
f 23 5 12
f 24 6 10
f 24 22 13
f 24 10 4
f 24 4 22
f 25 1 6
f 25 6 14
f 25 14 8
f 26 14 6
f 27 3 2
f 29 18 7
f 29 7 5
f 29 11 18
f 30 16 9
f 31 30 20
f 31 16 30
f 31 23 16
f 31 5 23
f 32 21 1
f 32 12 21
f 33 23 4
f 33 3 27
f 34 28 9
f 35 25 8
f 35 8 12
f 36 26 13
f 36 13 8
f 37 8 14
f 37 14 26
f 38 26 24
f 38 24 13
f 38 13 26
f 39 26 6
f 39 6 24
f 39 24 26
f 40 27 2
f 40 28 15
f 41 40 15
f 41 27 40
f 42 30 9
f 42 9 28
f 43 29 5
f 43 5 31
f 43 11 29
f 44 12 32
f 44 35 12
f 44 25 35
f 44 32 1
f 44 1 25
f 45 33 4
f 45 4 17
f 45 17 3
f 45 3 33
f 46 33 27
f 46 23 33
f 47 34 16
f 47 16 23
f 48 15 28
f 48 28 34
f 48 41 15
f 48 34 47
f 49 34 9
f 49 9 16
f 49 16 34
f 50 36 8
f 50 26 36
f 50 8 37
f 51 43 31
f 52 40 2
f 53 27 41
f 54 30 42
f 54 52 30
f 54 40 52
f 55 42 28
f 55 28 40
f 55 54 42
f 55 40 54
f 56 47 23
f 56 53 41
f 57 48 47
f 57 41 48
f 57 56 41
f 57 47 56
f 58 50 37
f 58 37 26
f 58 26 50
f 59 2 19
f 59 19 11
f 59 11 43
f 59 43 51
f 59 52 2
f 59 51 52
f 60 52 20
f 60 20 30
f 60 30 52
f 61 52 51
f 61 51 31
f 61 20 52
f 62 46 27
f 62 27 53
f 62 23 46
f 62 56 23
f 62 53 56
f 63 61 31
f 63 31 20
f 63 20 61

