# https://github.com/mikedh/trimesh
v -0.02329588 0.00305955 0.02504321
v -0.01346689 -0.04291600 0.02239818
v -0.01283651 -0.02251096 -0.01935056
v -0.03273909 0.00296967 -0.02367071
v -0.03658776 -0.03020635 0.00279521
v -0.02033122 0.00328761 -0.01977691
v -0.01233245 -0.02444028 0.02253642
v -0.02391426 -0.04412780 0.02336563
v -0.03952798 0.00381181 0.00233420
v -0.03608250 -0.03008409 -0.02330543
v -0.01312081 -0.03010159 -0.02344966
v -0.01844190 -0.03249918 0.02475496
v -0.01829167 0.00369024 0.02170084
v -0.02323477 0.00368257 -0.02387742
v -0.02350591 -0.03491819 0.02492615
v -0.02338179 -0.04767162 0.00200770
v -0.03541120 0.00290019 -0.02243200
v -0.01283024 -0.02409402 -0.02112207
v -0.01323677 -0.04654444 0.00185903
v -0.01983177 0.00320289 0.02370692
v -0.01276091 -0.02021526 -0.01018751
v -0.03359432 -0.02496898 -0.02345085
v -0.01835677 0.00362315 0.01264386
v -0.02096710 -0.03489910 0.02475359
v -0.02354475 -0.04664721 0.02097164
v -0.03492590 0.00009513 -0.02313353
v -0.03568971 -0.02484237 -0.02343136
v -0.01382590 -0.04539168 0.01883295
f 9 5 8
f 10 5 9
f 12 7 1
f 12 2 7
f 13 9 1
f 14 9 13
f 15 9 8
f 15 1 9
f 15 12 1
f 16 5 10
f 16 10 11
f 17 10 9
f 17 14 4
f 17 9 14
f 18 6 3
f 18 14 6
f 18 11 14
f 19 7 2
f 19 16 11
f 19 18 7
f 19 11 18
f 20 13 1
f 20 1 7
f 20 7 13
f 21 13 7
f 21 3 6
f 21 18 3
f 21 7 18
f 22 14 11
f 22 11 10
f 23 14 13
f 23 6 14
f 23 21 6
f 23 13 21
f 24 15 8
f 24 8 2
f 24 2 12
f 24 12 15
f 25 8 5
f 25 5 16
f 25 16 19
f 25 2 8
f 26 17 4
f 26 10 17
f 27 22 10
f 27 4 14
f 27 14 22
f 27 26 4
f 27 10 26
f 28 25 19
f 28 19 2
f 28 2 25

