# https://github.com/mikedh/trimesh
v -0.00401695 0.04098472 0.02470242
v 0.00713963 -0.00414432 0.01925571
v 0.00410424 0.04376071 -0.01449906
v -0.00637335 0.04247556 -0.02051889
v -0.01286063 0.00353752 0.01706320
v 0.00325866 -0.00440996 -0.02298233
v -0.01165956 0.04919704 -0.01005678
v 0.00425504 0.04339115 0.01768152
v -0.00590138 0.00394515 0.02279329
v 0.00727200 0.00564652 -0.01433751
v 0.00472930 0.02719402 -0.02049319
v 0.00260651 -0.00408533 0.02231794
v -0.00218580 0.04731868 -0.01806311
v -0.01436351 0.04090074 0.01925614
v -0.01115937 0.00734676 -0.01749667
v 0.00145535 0.03938307 0.02291735
v -0.00497212 0.04733122 0.01806435
v 0.00626778 -0.00477226 -0.02019898
v 0.00720872 0.01755431 0.01675831
v -0.00302675 0.02699966 -0.02230822
v 0.00572699 0.02403974 -0.01755222
v 0.00252715 -0.00416159 -0.02343107
v -0.00904090 0.00390759 0.02139527
v -0.00371201 0.02731572 0.02467161
v -0.01056997 0.04659318 -0.01710751
v 0.00069861 0.03928287 -0.02052195
v 0.00052796 0.04889734 -0.00541207
v -0.01428889 0.04420578 -0.01275766
v 0.00078446 0.04569466 0.02068004
v 0.00535972 -0.00420921 0.02191762
v -0.01172534 0.04258414 0.02330640
v 0.00754764 -0.00427076 0.01118229
v 0.00546454 0.01767269 0.02051647
v 0.00573978 0.03976571 0.00756969
v -0.01106771 0.01333547 -0.01963835
v 0.00423330 0.03639515 -0.01886585
v 0.00561525 0.01883666 -0.01957693
v -0.01296254 0.00348935 0.01063749
v 0.00354644 0.01562536 -0.02189282
v 0.00219858 0.00375042 0.02317286
v -0.00629771 0.04623638 -0.01894582
v -0.00925362 0.04896177 -0.01397527
v 0.00065413 0.04542711 -0.01887714
v 0.00396482 0.04527574 0.01519540
v -0.00360912 0.04893716 0.00101548
v -0.01321584 0.04726859 -0.00687197
v -0.01262312 0.04783652 -0.01373363
v 0.00274616 0.04363878 0.02013449
v 0.00046747 0.04333379 0.02278301
v 0.00204771 0.04732551 0.01359749
v -0.00764256 0.04573071 0.02187351
v -0.00966554 0.03368561 0.02444702
v -0.01465551 0.03239360 0.02138600
v 0.00724617 0.01915036 -0.00202816
v 0.00398056 0.04106103 0.01917939
v 0.00445523 0.02082180 0.02134052
v 0.00709271 0.00808850 0.01878242
v 0.00561528 0.03814747 0.01622126
v -0.00598266 0.01453658 -0.02204500
v -0.01048790 0.04345440 -0.01861954
v -0.01412899 0.03832910 -0.01379891
v -0.01028864 0.00434851 -0.01824018
v 0.00263094 0.04073370 -0.01933962
v 0.00072994 0.02420514 -0.02205918
vn 0.08540931 0.24146154 0.96664449
vn 0.74362286 -0.61982350 0.25068682
vn 0.86935555 0.44687616 -0.21100386
vn -0.16589257 0.22112263 -0.96103301
vn -0.81401001 -0.50905771 0.27972836
vn 0.27689475 -0.73310623 -0.62119607
vn -0.42175067 0.90634574 -0.02576371
vn 0.88169651 0.35704499 0.30843175
vn -0.25808475 -0.22262653 0.94012217
vn 0.99391696 0.00514006 -0.11001210
vn 0.72832700 0.10323284 -0.67740886
vn -0.15437775 -0.74041846 0.65417735
vn 0.19752864 0.81615957 -0.54301565
vn -0.90821855 0.36088748 0.21189452
vn -0.95664365 -0.15724249 -0.24516875
vn 0.58479212 0.09208416 0.80593963
vn -0.08262651 0.96871217 0.23402904
vn 0.64884367 -0.67629786 -0.34874503
vn 0.97625229 0.05883508 0.20849438
vn -0.07369653 0.07031571 -0.99479874
vn 0.98436341 0.08018796 -0.15683930
vn -0.09360383 -0.62250351 -0.77699917
vn -0.55584981 -0.38019201 0.73924625
vn 0.07342986 -0.02853385 0.99689211
vn -0.49068405 0.56296138 -0.66505914
vn 0.24598449 0.17246625 -0.95380660
vn 0.44905909 0.89239867 -0.04439092
vn -0.95012398 0.18135219 -0.25372386
vn 0.39302224 0.75807113 0.52044373
vn 0.42355047 -0.64081971 0.64027736
vn -0.54579562 0.47498976 0.69028391
vn 0.73057838 -0.68251906 0.02056600
vn 0.81903549 0.06174601 0.57041063
vn 0.98133556 0.19228024 -0.00297017
vn -0.75719296 -0.06885282 -0.64955224
vn 0.87258270 0.15714523 -0.46249844
vn 0.93715073 0.04546372 -0.34595024
vn -0.83707217 -0.54683623 -0.01674264
vn 0.43398259 0.05125843 -0.89946189
vn 0.17638775 -0.04421587 0.98332717
vn -0.13313171 0.60170966 -0.78754139
vn -0.10830952 0.94728040 -0.30154417
vn 0.46562663 0.57983633 -0.66856688
vn 0.82490162 0.54371560 0.15463074
vn 0.01710846 0.99755201 0.06780336
vn -0.83307841 0.54855936 0.07115466
vn -0.69288627 0.62689236 -0.35625073
vn 0.75816004 0.38154948 0.52878479
vn 0.41935868 0.40385441 0.81304361
vn 0.43361527 0.89312484 0.11960695
vn -0.23211983 0.80436003 0.54692351
vn -0.29563851 -0.02114600 0.95506582
vn -0.87186853 -0.03313518 0.48861777
vn 0.99798162 0.05611292 -0.02973259
vn 0.85785172 0.13649479 0.49543879
vn 0.69857490 0.05151850 0.71367987
vn 0.93720509 0.02449699 0.34791741
vn 0.96868060 0.12750636 0.21307282
vn -0.30457570 -0.01562678 -0.95235993
vn -0.59707767 0.20222090 -0.77627635
vn -0.95050259 0.00008442 -0.31071663
vn -0.75201414 -0.47118039 -0.46093792
vn 0.65226740 0.26890559 -0.70868683
vn 0.20743603 0.07710859 -0.97520488
f 18//18 6//6 11//11
f 18//18 12//12 6//6
f 22//22 6//6 12//12
f 23//23 12//12 9//9
f 23//23 5//5 12//12
f 26//26 20//20 4//4
f 30//30 12//12 18//18
f 32//32 18//18 10//10
f 32//32 30//30 18//18
f 32//32 2//2 30//30
f 32//32 19//19 2//2
f 36//36 21//21 11//11
f 36//36 3//3 21//21
f 37//37 18//18 11//11
f 37//37 11//11 21//21
f 37//37 21//21 10//10
f 37//37 10//10 18//18
f 38//38 22//22 12//12
f 38//38 12//12 5//5
f 39//39 11//11 6//6
f 39//39 6//6 22//22
f 40//40 24//24 9//9
f 40//40 9//9 12//12
f 40//40 12//12 30//30
f 40//40 1//1 24//24
f 40//40 30//30 16//16
f 40//40 16//16 1//1
f 42//42 41//41 25//25
f 42//42 13//13 41//41
f 42//42 27//27 13//13
f 42//42 7//7 27//27
f 43//43 26//26 4//4
f 43//43 27//27 3//3
f 43//43 13//13 27//27
f 43//43 41//41 13//13
f 43//43 4//4 41//41
f 44//44 3//3 27//27
f 44//44 34//34 3//3
f 44//44 29//29 8//8
f 45//45 27//27 7//7
f 45//45 7//7 17//17
f 46//46 28//28 14//14
f 46//46 31//31 7//7
f 46//46 14//14 31//31
f 47//47 42//42 25//25
f 47//47 7//7 42//42
f 47//47 46//46 7//7
f 47//47 28//28 46//46
f 48//48 8//8 29//29
f 49//49 1//1 16//16
f 49//49 48//48 29//29
f 49//49 16//16 48//48
f 50//50 17//17 29//29
f 50//50 45//45 17//17
f 50//50 27//27 45//45
f 50//50 44//44 27//27
f 50//50 29//29 44//44
f 51//51 29//29 17//17
f 51//51 17//17 7//7
f 51//51 7//7 31//31
f 51//51 49//49 29//29
f 51//51 31//31 1//1
f 51//51 1//1 49//49
f 52//52 24//24 1//1
f 52//52 1//1 31//31
f 52//52 9//9 24//24
f 52//52 23//23 9//9
f 53//53 31//31 14//14
f 53//53 5//5 23//23
f 53//53 52//52 31//31
f 53//53 23//23 52//52
f 53//53 38//38 5//5
f 53//53 14//14 28//28
f 54//54 32//32 10//10
f 54//54 19//19 32//32
f 54//54 34//34 19//19
f 54//54 10//10 21//21
f 54//54 21//21 3//3
f 54//54 3//3 34//34
f 55//55 8//8 48//48
f 55//55 48//48 16//16
f 55//55 16//16 33//33
f 56//56 33//33 16//16
f 56//56 16//16 30//30
f 56//56 30//30 33//33
f 57//57 33//33 30//30
f 57//57 30//30 2//2
f 57//57 2//2 19//19
f 57//57 19//19 33//33
f 58//58 19//19 34//34
f 58//58 8//8 55//55
f 58//58 55//55 33//33
f 58//58 33//33 19//19
f 58//58 44//44 8//8
f 58//58 34//34 44//44
f 59//59 4//4 20//20
f 59//59 20//20 22//22
f 59//59 22//22 35//35
f 60//60 59//59 35//35
f 60//60 4//4 59//59
f 60//60 41//41 4//4
f 60//60 25//25 41//41
f 60//60 47//47 25//25
f 60//60 28//28 47//47
f 61//61 35//35 15//15
f 61//61 60//60 35//35
f 61//61 28//28 60//60
f 61//61 15//15 38//38
f 61//61 53//53 28//28
f 61//61 38//38 53//53
f 62//62 35//35 22//22
f 62//62 15//15 35//35
f 62//62 38//38 15//15
f 62//62 22//22 38//38
f 63//63 36//36 11//11
f 63//63 11//11 26//26
f 63//63 26//26 43//43
f 63//63 43//43 3//3
f 63//63 3//3 36//36
f 64//64 26//26 11//11
f 64//64 11//11 39//39
f 64//64 20//20 26//26
f 64//64 39//39 22//22
f 64//64 22//22 20//20

