# https://github.com/mikedh/trimesh
v 0.07241820 -0.00864327 0.02135059
v 0.07946168 -0.02800419 0.01630533
v 0.07883220 -0.00886212 -0.00187352
v 0.02463602 -0.00978784 -0.00165162
v 0.01513927 -0.03130215 0.02152828
v 0.03551306 -0.03441744 -0.00199232
v 0.06121012 -0.00091516 0.01813294
v 0.07772066 -0.01038033 0.01622806
v 0.07373379 -0.02713378 0.02106516
v 0.07822784 -0.02911105 -0.00182451
v 0.04495058 -0.00801958 -0.00184830
v 0.01521227 -0.03619584 0.01218441
v 0.01527186 -0.02299899 0.02303407
v 0.07790502 -0.01936267 0.01846873
v 0.08090945 -0.02459618 0.01209205
v 0.06429729 -0.00107352 0.02077983
v 0.08118771 -0.02642152 -0.00214002
v 0.02463936 -0.02289108 -0.00193666
v 0.07515866 -0.02971997 0.02007966
v 0.06951745 -0.02119994 0.02279502
v 0.01482603 -0.01330667 0.01781996
v 0.07657673 -0.00864848 0.01855065
v 0.07371752 -0.02310387 0.02116185
v 0.07920292 -0.01222730 0.00413358
v 0.07913193 -0.02180976 0.01738024
v 0.06666043 -0.03229369 -0.00202857
v 0.08105287 -0.02176484 -0.00182246
v 0.08066982 -0.02670945 0.00887982
v 0.07748491 -0.03048611 0.00927977
v 0.01536003 -0.01147388 0.01220348
v 0.01517591 -0.03533469 0.01756404
v 0.06737401 -0.01683631 0.02289098
v 0.01518585 -0.02583944 0.02305274
v 0.06163382 -0.00106232 0.01894503
v 0.01479646 -0.01558029 0.02035069
v 0.07774082 -0.00890648 0.01022019
v 0.07783328 -0.02877741 0.01851304
v 0.08067749 -0.02215670 0.01041862
v 0.07916891 -0.02700913 0.01740081
v 0.07547207 -0.03051285 -0.00179633
v 0.08079140 -0.01994909 0.00072254
v 0.08080483 -0.02568977 0.01169819
v 0.07534105 -0.03040821 0.01777642
v 0.03074105 -0.03246131 0.01979528
v 0.06907094 -0.01680304 0.02282696
v 0.01524343 -0.01883854 0.02179007
v 0.07658218 -0.03052401 0.01499896
v 0.07817725 -0.02886522 0.01803507
v 0.02434778 -0.03501298 0.01644873
v 0.02921814 -0.03357528 0.01875422
v 0.02450366 -0.03117210 0.02121944
v 0.04322447 -0.03369772 0.01501980
v 0.01825311 -0.03520205 0.01755312
v 0.02602624 -0.03525556 0.01366908
vn 0.37144447 0.27452464 0.88694150
vn 0.86596506 -0.44135305 0.23518505
vn 0.57969059 0.54242696 -0.60805576
vn -0.43592249 0.57028822 -0.69623482
vn -0.63671187 -0.39009530 0.66514935
vn -0.07753324 -0.69219007 -0.71753850
vn -0.05981216 0.99785941 -0.02644074
vn 0.94143353 0.27353821 0.19717949
vn 0.27700860 -0.17118221 0.94549610
vn 0.43834615 -0.66583933 -0.60374716
vn -0.03679288 0.61019333 -0.79139774
vn -0.67053078 -0.70375257 -0.23477819
vn -0.58697523 0.09965082 0.80344868
vn 0.64408754 0.05198965 0.76318302
vn 0.98740576 0.00789542 0.15801114
vn 0.17174795 0.79794402 0.57774388
vn 0.71814181 -0.29305202 -0.63118370
vn -0.47570550 -0.11145530 -0.87251475
vn 0.33297411 -0.60817146 0.72059401
vn 0.16722106 -0.08806190 0.98197873
vn -0.76417378 0.57281854 0.29650861
vn 0.72985805 0.49219019 0.47440072
vn 0.44899741 0.00064247 0.89353283
vn 0.97493175 0.21204407 0.06741951
vn 0.85826583 0.06270944 0.50935969
vn 0.08945122 -0.72840753 -0.67927973
vn 0.86114885 0.09569986 -0.49926365
vn 0.89930723 -0.43585731 0.03570590
vn 0.48437164 -0.87479186 0.01110496
vn -0.77776782 0.61087051 -0.14803524
vn -0.62351395 -0.69851720 0.35114680
vn 0.01531100 0.06367050 0.99785352
vn -0.63887006 -0.10716046 0.76181473
vn -0.21776674 0.92573042 0.30919384
vn -0.73123243 0.37406550 0.57041576
vn 0.79201159 0.60586244 0.07515543
vn 0.62412313 -0.33873016 0.70408252
vn 0.98372340 0.16149683 0.07878475
vn 0.83310664 -0.07636472 0.54781544
vn 0.24701076 -0.73482988 -0.63167296
vn 0.98870517 0.14838987 0.02103649
vn 0.96934197 -0.22469926 0.09943028
vn 0.24790894 -0.94355007 0.21966889
vn 0.03591356 -0.68493607 0.72771753
vn 0.17176084 0.05691413 0.98349326
vn -0.42369695 0.28140871 0.86098202
vn 0.37162823 -0.92282595 0.10141361
vn 0.69476471 -0.59425430 0.40517135
vn 0.07456158 -0.97679219 0.20079238
vn 0.03871503 -0.74255465 0.66866564
vn 0.03453526 -0.62124281 0.78285675
vn 0.08613055 -0.98925060 0.11817269
vn 0.04659475 -0.89975278 0.43390535
vn 0.07937411 -0.99354495 0.08104431
f 11//11 7//7 3//3
f 11//11 4//4 7//7
f 16//16 3//3 7//7
f 17//17 11//11 3//3
f 18//18 4//4 11//11
f 18//18 6//6 12//12
f 18//18 17//17 6//6
f 18//18 11//11 17//17
f 19//19 9//9 5//5
f 22//22 1//1 14//14
f 22//22 16//16 1//1
f 22//22 3//3 16//16
f 23//23 14//14 1//1
f 23//23 20//20 9//9
f 23//23 1//1 20//20
f 24//24 3//3 8//8
f 25//25 15//15 8//8
f 25//25 22//22 14//14
f 25//25 8//8 22//22
f 26//26 6//6 17//17
f 26//26 12//12 6//6
f 27//27 17//17 3//3
f 27//27 15//15 17//17
f 28//28 2//2 17//17
f 29//29 17//17 2//2
f 29//29 10//10 17//17
f 30//30 18//18 12//12
f 30//30 4//4 18//18
f 30//30 12//12 21//21
f 30//30 21//21 7//7
f 30//30 7//7 4//4
f 32//32 16//16 13//13
f 33//33 5//5 9//9
f 33//33 9//9 20//20
f 33//33 32//32 13//13
f 33//33 20//20 32//32
f 34//34 21//21 16//16
f 34//34 16//16 7//7
f 34//34 7//7 21//21
f 35//35 16//16 21//21
f 35//35 33//33 13//13
f 35//35 5//5 33//33
f 35//35 31//31 5//5
f 35//35 21//21 12//12
f 35//35 12//12 31//31
f 36//36 22//22 8//8
f 36//36 8//8 3//3
f 36//36 3//3 22//22
f 37//37 14//14 23//23
f 37//37 23//23 9//9
f 37//37 9//9 19//19
f 38//38 24//24 8//8
f 38//38 8//8 15//15
f 39//39 2//2 15//15
f 39//39 15//15 25//25
f 39//39 25//25 14//14
f 39//39 14//14 37//37
f 40//40 26//26 17//17
f 40//40 17//17 10//10
f 40//40 29//29 26//26
f 40//40 10//10 29//29
f 41//41 27//27 3//3
f 41//41 3//3 24//24
f 41//41 24//24 38//38
f 41//41 38//38 15//15
f 41//41 15//15 27//27
f 42//42 28//28 17//17
f 42//42 17//17 15//15
f 42//42 15//15 2//2
f 42//42 2//2 28//28
f 44//44 5//5 31//31
f 45//45 32//32 20//20
f 45//45 20//20 1//1
f 45//45 1//1 16//16
f 45//45 16//16 32//32
f 46//46 35//35 13//13
f 46//46 13//13 16//16
f 46//46 16//16 35//35
f 47//47 26//26 29//29
f 48//48 39//39 37//37
f 48//48 2//2 39//39
f 48//48 43//43 47//47
f 48//48 37//37 19//19
f 48//48 19//19 43//43
f 48//48 47//47 29//29
f 48//48 29//29 2//2
f 50//50 44//44 31//31
f 50//50 19//19 44//44
f 51//51 44//44 19//19
f 51//51 19//19 5//5
f 51//51 5//5 44//44
f 52//52 47//47 43//43
f 52//52 26//26 47//47
f 52//52 43//43 49//49
f 53//53 31//31 12//12
f 53//53 12//12 49//49
f 53//53 50//50 31//31
f 53//53 19//19 50//50
f 53//53 49//49 43//43
f 53//53 43//43 19//19
f 54//54 12//12 26//26
f 54//54 26//26 52//52
f 54//54 52//52 49//49
f 54//54 49//49 12//12

