# https://github.com/mikedh/trimesh
v 0.07897025 -0.01046839 -0.00190137
v 0.08118771 -0.02642152 -0.00214002
v 0.07846303 -0.02155464 -0.02352667
v 0.02029321 -0.02485844 -0.02829962
v 0.02524701 -0.03509378 -0.00140698
v 0.07104855 -0.01059966 -0.02547850
v 0.08226991 -0.01941788 -0.02115653
v 0.07547207 -0.03051285 -0.00179633
v 0.02463602 -0.00978784 -0.00165162
v 0.04516342 -0.03231542 -0.03014308
v 0.08105287 -0.02176484 -0.00182246
v 0.07779400 -0.02909793 -0.01845869
v 0.07788169 -0.01043908 -0.01665461
v 0.07936353 -0.01222951 -0.00173252
v 0.01524587 -0.02445666 -0.01446131
v 0.01501871 -0.01318008 -0.02400222
v 0.04696426 -0.03004181 -0.03022941
v 0.04079123 -0.03699202 -0.02871606
v 0.08314022 -0.02421207 -0.01816583
v 0.07822784 -0.02911105 -0.00182451
v 0.07291199 -0.01078850 -0.02425699
v 0.04486902 -0.00804362 -0.00167393
v 0.01504273 -0.03572046 -0.02032128
v 0.02156619 -0.02341339 -0.02814283
v 0.01534451 -0.00992941 -0.01462681
v 0.07242298 -0.01805056 -0.02507224
v 0.07583542 -0.02679029 -0.02380758
v 0.03760072 -0.02815786 -0.03017087
v 0.06821350 -0.03206020 -0.00200982
v 0.07107195 -0.03194113 -0.01583600
v 0.08299868 -0.02458803 -0.01880776
v 0.07574211 -0.03046958 -0.01722060
v 0.07621637 -0.01052111 -0.01910031
v 0.04015165 -0.03701032 -0.02866725
v 0.01579967 -0.02702865 -0.02679433
v 0.02473366 -0.01906998 -0.02667880
v 0.01712968 -0.02037347 -0.02651640
v 0.05952214 -0.01099391 -0.02509376
v 0.07804488 -0.02251227 -0.02368529
v 0.04409698 -0.03436864 -0.02970224
v 0.07692466 -0.02810191 -0.02241312
v 0.04067735 -0.03470225 -0.03005145
v 0.06066326 -0.01534100 -0.02682364
v 0.03536392 -0.03543762 -0.01003027
v 0.06210123 -0.03372770 -0.01609521
v 0.07116376 -0.03203379 -0.00829448
v 0.06961005 -0.03194664 -0.01865531
v 0.01539377 -0.02981059 -0.02546135
v 0.01551127 -0.01714046 -0.02528865
v 0.01557463 -0.02324418 -0.02680825
v 0.07825253 -0.02679174 -0.02238221
v 0.07678345 -0.02866865 -0.02149614
v 0.02030414 -0.02554079 -0.02835458
v 0.06199864 -0.03353565 -0.01967619
v 0.02360200 -0.03243324 -0.02679387
v 0.08080225 -0.02460548 -0.02093546
v 0.07704816 -0.02551723 -0.02361249
v 0.06780600 -0.03204512 -0.02026947
v 0.02185714 -0.02720000 -0.02831534
v 0.01525861 -0.03545594 -0.02104119
vn 0.51673280 0.64703497 0.56065404
vn 0.74039129 -0.34851164 0.57476985
vn 0.45406277 0.00757911 -0.89093746
vn -0.17722255 0.14414119 -0.97355816
vn -0.35139687 -0.60822741 0.71174409
vn 0.21050215 0.66955664 -0.71230804
vn 0.84436200 0.19612997 -0.49858384
vn 0.26112691 -0.67767100 0.68744072
vn -0.38920758 0.58297826 0.71319970
vn 0.12757007 -0.18457111 -0.97450469
vn 0.68661556 0.06235387 0.72434181
vn 0.56394296 -0.80828424 -0.16924811
vn 0.54201939 0.82354762 -0.16728510
vn 0.66127819 0.16524316 0.73171433
vn -0.93938272 -0.05325920 0.33870866
vn -0.65341078 0.53724883 -0.53330859
vn 0.12020104 -0.02073694 -0.99253297
vn 0.08778686 -0.87601683 -0.47422355
vn 0.99517214 -0.09776304 -0.00864822
vn 0.43273192 -0.59965267 0.67317142
vn 0.47204682 0.70718812 -0.52636182
vn -0.00165665 0.75207625 0.65907402
vn -0.72427082 -0.68948345 -0.00665918
vn -0.08947717 0.26373247 -0.96043689
vn -0.72175901 0.68116990 0.12276604
vn 0.21836439 -0.01954184 -0.97567162
vn 0.31878898 -0.34139281 -0.88420842
vn -0.05129050 0.11136760 -0.99245481
vn 0.10880235 -0.78368027 0.61156135
vn 0.24666371 -0.96714156 -0.06159726
vn 0.85383514 -0.41294023 -0.31693204
vn 0.39757615 -0.90820131 -0.13078066
vn 0.28145276 0.93327767 -0.22310789
vn -0.08775533 -0.87233055 -0.48097652
vn -0.61917322 -0.16791190 -0.76709198
vn -0.04176483 0.35049215 -0.93563398
vn -0.20112855 0.25258033 -0.94644096
vn -0.04783806 0.79086777 -0.61011449
vn 0.42316715 -0.10797469 -0.89959493
vn 0.21202185 -0.45645153 -0.86411732
vn 0.45501909 -0.66904166 -0.58765712
vn -0.03811558 -0.30875698 -0.95037694
vn -0.00081913 0.27248448 -0.96215983
vn 0.06349285 -0.99211442 0.10806315
vn 0.15610266 -0.98772219 0.00606906
vn 0.23138165 -0.97238753 0.03041414
vn 0.25328721 -0.94963449 -0.18449913
vn -0.75422265 -0.30669610 -0.58059082
vn -0.35231623 0.24612967 -0.90293602
vn -0.71591693 0.07724828 -0.69389888
vn 0.60004186 -0.44369355 -0.66564691
vn 0.44201671 -0.81917588 -0.36547519
vn -0.20778742 -0.06199395 -0.97620753
vn 0.20524825 -0.97329107 -0.10284770
vn -0.25395627 -0.49916722 -0.82845537
vn 0.64695605 -0.25498925 -0.71862950
vn 0.42965839 -0.20344256 -0.87977542
vn 0.26508975 -0.91828306 -0.29408103
vn -0.20229002 -0.25745227 -0.94487940
vn -0.56783802 -0.63872323 -0.51922310
f 7//7 3//3 6//6
f 13//13 1//1 7//7
f 14//14 5//5 8//8
f 14//14 7//7 1//1
f 15//15 5//5 9//9
f 19//19 11//11 2//2
f 19//19 14//14 11//11
f 19//19 7//7 14//14
f 20//20 2//2 11//11
f 20//20 14//14 8//8
f 20//20 11//11 14//14
f 21//21 13//13 7//7
f 21//21 7//7 6//6
f 22//22 1//1 13//13
f 22//22 14//14 1//1
f 22//22 9//9 5//5
f 22//22 5//5 14//14
f 22//22 13//13 6//6
f 23//23 5//5 15//15
f 23//23 15//15 16//16
f 25//25 16//16 15//15
f 25//25 15//15 9//9
f 25//25 9//9 22//22
f 25//25 22//22 6//6
f 26//26 17//17 6//6
f 27//27 10//10 17//17
f 28//28 4//4 24//24
f 29//29 8//8 5//5
f 31//31 19//19 2//2
f 31//31 7//7 19//19
f 31//31 20//20 12//12
f 31//31 2//2 20//20
f 32//32 20//20 8//8
f 32//32 12//12 20//20
f 33//33 21//21 6//6
f 33//33 6//6 13//13
f 33//33 13//13 21//21
f 34//34 18//18 5//5
f 34//34 5//5 23//23
f 36//36 24//24 16//16
f 36//36 16//16 6//6
f 37//37 24//24 4//4
f 38//38 25//25 6//6
f 38//38 6//6 16//16
f 38//38 16//16 25//25
f 39//39 26//26 6//6
f 39//39 6//6 3//3
f 39//39 17//17 26//26
f 39//39 27//27 17//17
f 39//39 3//3 7//7
f 40//40 10//10 27//27
f 41//41 40//40 27//27
f 41//41 18//18 40//40
f 42//42 28//28 17//17
f 42//42 17//17 10//10
f 42//42 10//10 40//40
f 42//42 40//40 18//18
f 42//42 18//18 34//34
f 43//43 28//28 24//24
f 43//43 6//6 17//17
f 43//43 17//17 28//28
f 43//43 36//36 6//6
f 43//43 24//24 36//36
f 44//44 29//29 5//5
f 44//44 5//5 18//18
f 44//44 18//18 29//29
f 45//45 29//29 18//18
f 46//46 8//8 29//29
f 46//46 45//45 30//30
f 46//46 29//29 45//45
f 46//46 32//32 8//8
f 46//46 30//30 32//32
f 47//47 32//32 30//30
f 48//48 23//23 16//16
f 49//49 16//16 24//24
f 49//49 24//24 37//37
f 50//50 37//37 4//4
f 50//50 49//49 37//37
f 50//50 16//16 49//49
f 50//50 48//48 16//16
f 50//50 35//35 48//48
f 51//51 39//39 7//7
f 51//51 31//31 41//41
f 51//51 41//41 27//27
f 52//52 12//12 32//32
f 52//52 18//18 41//41
f 52//52 41//41 31//31
f 52//52 31//31 12//12
f 53//53 4//4 28//28
f 53//53 28//28 42//42
f 53//53 50//50 4//4
f 53//53 35//35 50//50
f 54//54 45//45 18//18
f 54//54 30//30 45//45
f 54//54 47//47 30//30
f 54//54 18//18 47//47
f 55//55 42//42 34//34
f 55//55 48//48 35//35
f 56//56 51//51 7//7
f 56//56 7//7 31//31
f 56//56 31//31 51//51
f 57//57 51//51 27//27
f 57//57 27//27 39//39
f 57//57 39//39 51//51
f 58//58 52//52 32//32
f 58//58 32//32 47//47
f 58//58 47//47 18//18
f 58//58 18//18 52//52
f 59//59 53//53 42//42
f 59//59 35//35 53//53
f 59//59 55//55 35//35
f 59//59 42//42 55//55
f 60//60 55//55 34//34
f 60//60 34//34 23//23
f 60//60 23//23 48//48
f 60//60 48//48 55//55

