# https://github.com/mikedh/trimesh
v 0.05381272 -0.00955769 0.01477210
v 0.05408535 -0.00855356 0.01426324
v 0.01969489 -0.01171017 0.01162207
v 0.01968282 -0.01163840 -0.01836088
v 0.05232126 -0.01076144 -0.02028532
v 0.05271015 -0.00644788 -0.00722226
v 0.03106476 -0.01204466 0.01394936
v 0.05408229 -0.00745023 0.01029488
v 0.02607686 -0.00921022 -0.01094310
v 0.05256599 -0.00659340 -0.01431905
v 0.03850615 -0.01220615 0.01492953
v 0.02591647 -0.01211467 -0.01898765
v 0.01952009 -0.01152035 0.01126125
v 0.05266820 -0.00783950 -0.01729256
v 0.02605373 -0.00921651 -0.01190588
v 0.05404684 -0.00742712 0.00925730
v 0.04355568 -0.01196231 0.01504187
v 0.05238809 -0.00989824 -0.01970952
v 0.01954417 -0.01125748 -0.01780162
v 0.04355992 -0.01217784 -0.02003404
v 0.05005496 -0.00801781 -0.01715993
v 0.01985113 -0.01073937 -0.01649840
v 0.04230844 -0.01221547 -0.01995739
v 0.01948221 -0.01059468 -0.00705206
vn 0.55192085 -0.37264712 0.74600101
vn 0.68238988 0.52573086 0.50788888
vn -0.54320058 -0.25291994 0.80060267
vn -0.57632774 -0.25282036 -0.77712818
vn 0.55145596 -0.34429073 -0.75984223
vn 0.38352264 0.92353113 0.00079560
vn -0.18597469 -0.36949934 0.91043048
vn 0.69376846 0.71205874 0.10797068
vn -0.14897060 0.98857050 0.02315426
vn 0.54219748 0.82170013 -0.17558699
vn -0.08244288 -0.47667955 0.87520271
vn -0.09164893 -0.56711179 -0.81852593
vn -0.89229835 0.35443755 0.27960271
vn 0.65820217 0.62210853 -0.42397037
vn -0.14677051 0.98644717 -0.07335124
vn 0.92966455 0.36747498 -0.02619096
vn 0.08385450 -0.62123637 0.77912373
vn 0.61771719 0.49043991 -0.61473097
vn -0.80438161 0.47690312 -0.35430728
vn 0.03349894 -0.65466481 -0.75517667
vn -0.08578450 0.90157869 -0.42402463
vn -0.47362331 0.86626524 -0.15895126
vn -0.03088489 -0.73188951 -0.68072305
vn -0.78644381 0.61744129 0.01650430
f 5//5 2//2 1//1
f 7//7 2//2 3//3
f 9//9 8//8 6//6
f 11//11 1//1 2//2
f 11//11 2//2 7//7
f 12//12 7//7 3//3
f 12//12 3//3 4//4
f 12//12 11//11 7//7
f 12//12 4//4 5//5
f 13//13 3//3 2//2
f 13//13 2//2 8//8
f 13//13 8//8 9//9
f 13//13 4//4 3//3
f 15//15 9//9 6//6
f 15//15 6//6 10//10
f 16//16 10//10 6//6
f 16//16 6//6 8//8
f 16//16 14//14 10//10
f 16//16 5//5 14//14
f 16//16 8//8 2//2
f 16//16 2//2 5//5
f 17//17 5//5 1//1
f 17//17 1//1 11//11
f 18//18 14//14 5//5
f 18//18 5//5 4//4
f 18//18 4//4 14//14
f 19//19 14//14 4//4
f 19//19 4//4 13//13
f 20//20 12//12 5//5
f 20//20 5//5 17//17
f 20//20 17//17 11//11
f 21//21 19//19 10//10
f 21//21 10//10 14//14
f 21//21 14//14 19//19
f 22//22 15//15 10//10
f 22//22 10//10 19//19
f 23//23 20//20 11//11
f 23//23 11//11 12//12
f 23//23 12//12 20//20
f 24//24 9//9 15//15
f 24//24 15//15 22//22
f 24//24 13//13 9//9
f 24//24 22//22 19//19
f 24//24 19//19 13//13

