# https://github.com/mikedh/trimesh
v 0.06946896 0.05188714 0.02292977
v 0.07657673 -0.00864848 0.01855065
v 0.07433050 0.04569405 -0.01518258
v 0.06086687 0.05593819 -0.01904788
v 0.05563983 -0.00814087 0.01215445
v 0.07037329 0.05830703 -0.01218359
v 0.07459277 0.04914185 0.01791149
v 0.06440956 -0.00889633 0.02125560
v 0.05468200 0.04723124 0.01734359
v 0.07104855 -0.01059966 -0.02547850
v 0.07074263 0.05531497 -0.01789568
v 0.05826096 0.05680128 0.01476282
v 0.07347471 0.03796174 0.02129216
v 0.07897025 -0.01046839 -0.00190137
v 0.07154730 0.05707590 0.01477908
v 0.07317978 0.05563031 -0.01400427
v 0.07241820 -0.00864327 0.02135059
v 0.05003292 0.03949062 -0.00856341
v 0.05878475 0.04316915 0.02294531
v 0.05603798 -0.01087318 -0.02467079
v 0.06816576 0.05830604 -0.01504033
v 0.06781351 0.05157097 -0.02060321
v 0.07582402 0.00860364 -0.01972889
v 0.07315379 0.05007662 0.02052314
v 0.07770032 0.01464072 0.01632619
v 0.06933597 0.05693542 0.01943437
v 0.07458970 0.05192628 0.01051216
v 0.07108922 0.05808220 0.01028774
v 0.07156005 0.05554384 -0.01649507
v 0.07286402 0.05368768 -0.01642006
v 0.07071470 0.03200140 0.02281516
v 0.07367715 -0.00367674 0.02124761
v 0.05465053 0.04618215 0.01751650
v 0.05631295 0.05602855 -0.00340407
v 0.05829118 0.05462106 0.02133657
v 0.05747022 -0.00873264 0.01851568
v 0.05518788 -0.00698024 -0.00136683
v 0.05126792 0.04057795 -0.01081049
v 0.06245766 -0.01100906 -0.02554105
v 0.06785873 0.05666298 -0.01809905
v 0.06632500 0.05315616 -0.02054293
v 0.07050312 0.04257173 -0.02040511
v 0.07788169 -0.01043908 -0.01665461
v 0.07090214 0.04443908 0.02280759
v 0.07286054 0.05321750 0.01937717
v 0.07608102 0.01934287 0.01871948
v 0.07750561 0.00512426 0.01679960
v 0.07786292 0.01303494 -0.01401703
v 0.07607580 0.03167251 -0.01427150
v 0.07758398 0.01920450 0.01480954
v 0.07301998 0.05542781 0.01475017
v 0.06988552 0.05827188 0.01340775
v 0.07187636 0.05665137 -0.01371309
v 0.07161244 0.05479154 -0.01748304
v 0.07433543 0.04103418 -0.01676141
v 0.06539571 0.02569212 0.02305441
v 0.07507462 -0.00861635 0.01962283
v 0.06980654 0.02734100 0.02301449
v 0.05779123 0.05598689 -0.01261503
v 0.06546686 0.06005868 -0.01125668
v 0.05630106 0.05495790 0.01666131
v 0.05875768 0.05159455 0.02283688
v 0.06409557 0.05661550 0.01928892
v 0.06669029 0.05419572 0.02283865
vn 0.34017317 0.23503354 0.91051713
vn 0.67921512 -0.60404396 0.41689052
vn 0.97284703 0.11998535 -0.19791960
vn -0.44201488 0.56629982 -0.69564888
vn -0.85597806 -0.49963573 0.13291233
vn 0.49546764 0.85602784 -0.14740472
vn 0.95380910 0.15874083 0.25504813
vn -0.13868490 -0.67536368 0.72432755
vn -0.93717552 0.14324515 0.31809254
vn 0.35166583 -0.58592261 -0.73008618
vn 0.48354229 0.54161145 -0.68763646
vn -0.39678911 0.90714917 0.14013844
vn 0.71436668 0.03173021 0.69905182
vn 0.71834324 -0.69479349 0.03528436
vn 0.62224151 0.75422839 0.20965454
vn 0.83773493 0.50284546 -0.21294748
vn 0.20492601 -0.64313524 0.73782274
vn -0.98266406 0.12349672 -0.13827477
vn -0.45298114 -0.00941670 0.89147037
vn -0.57851463 -0.58748963 -0.56584164
vn 0.23137717 0.88699480 -0.39963086
vn 0.30672209 0.17386670 -0.93578413
vn 0.80233530 0.06165517 -0.59368064
vn 0.75801857 0.17347722 0.62873962
vn 0.95525316 0.02439368 0.29478185
vn 0.30454314 0.81985532 0.48486156
vn 0.96942631 0.24449621 0.02083819
vn 0.54907604 0.83510530 0.03338628
vn 0.56096289 0.71496271 -0.41731159
vn 0.84520005 0.21726975 -0.48829370
vn 0.32238885 -0.00489563 0.94659467
vn 0.46153607 -0.02988643 0.88661788
vn -0.91894268 0.02135396 0.39381258
vn -0.73380854 0.67836212 -0.03674035
vn -0.52056423 0.59109491 0.61613285
vn -0.58988367 -0.61797176 0.51975779
vn -0.98325711 -0.18209413 0.00686854
vn -0.85013320 0.19101755 -0.49069933
vn -0.04872243 -0.67713229 -0.73424654
vn 0.18978322 0.72714438 -0.65972978
vn 0.05317794 0.30531016 -0.95076696
vn 0.55220064 0.10073260 -0.82760340
vn 0.72742915 -0.63132633 -0.26883805
vn 0.38366010 0.03735647 0.92271849
vn 0.76708082 0.43456413 0.47195448
vn 0.81035232 0.02966120 0.58519170
vn 0.95011641 -0.01007706 0.31173268
vn 0.97872774 0.06439395 -0.19479585
vn 0.97939981 0.09582996 -0.17774315
vn 0.99452711 0.07311978 0.07462794
vn 0.84460718 0.51126451 0.15889402
vn 0.19601027 0.96901279 0.15031363
vn 0.51951716 0.78181139 -0.34477947
vn 0.65908387 0.38177025 -0.64796599
vn 0.85336932 0.10161083 -0.51130816
vn -0.05439851 -0.03389856 0.99794373
vn 0.47637387 -0.53476535 0.69792117
vn 0.15037585 -0.01612672 0.98849736
vn -0.72474072 0.64466329 -0.24322856
vn -0.05887486 0.98744697 -0.14656816
vn -0.81038721 0.53951430 0.22846637
vn -0.45924287 0.16252398 0.87331663
vn -0.10215298 0.91429363 0.39195909
vn 0.07833529 0.47506322 0.87645794
f 17//17 14//14 2//2
f 17//17 8//8 14//14
f 20//20 14//14 8//8
f 25//25 7//7 24//24
f 28//28 16//16 6//6
f 29//29 21//21 6//6
f 29//29 11//11 21//21
f 30//30 16//16 3//3
f 32//32 2//2 13//13
f 33//33 18//18 5//5
f 33//33 9//9 18//18
f 36//36 8//8 19//19
f 36//36 20//20 8//8
f 36//36 5//5 20//20
f 36//36 33//33 5//5
f 36//36 19//19 33//33
f 37//37 20//20 5//5
f 37//37 5//5 18//18
f 37//37 18//18 20//20
f 38//38 20//20 18//18
f 38//38 4//4 20//20
f 39//39 14//14 20//20
f 40//40 21//21 11//11
f 40//40 4//4 21//21
f 41//41 20//20 4//4
f 41//41 4//4 40//40
f 41//41 40//40 11//11
f 41//41 11//11 22//22
f 41//41 39//39 20//20
f 41//41 22//22 10//10
f 41//41 10//10 39//39
f 42//42 23//23 10//10
f 42//42 10//10 22//22
f 43//43 10//10 23//23
f 43//43 39//39 10//10
f 43//43 14//14 39//39
f 44//44 24//24 1//1
f 44//44 13//13 24//24
f 44//44 32//32 13//13
f 44//44 31//31 32//32
f 45//45 24//24 7//7
f 45//45 15//15 26//26
f 45//45 26//26 1//1
f 45//45 1//1 24//24
f 46//46 13//13 2//2
f 46//46 2//2 25//25
f 46//46 25//25 24//24
f 46//46 24//24 13//13
f 47//47 25//25 2//2
f 47//47 2//2 14//14
f 47//47 14//14 25//25
f 48//48 14//14 43//43
f 48//48 43//43 23//23
f 49//49 3//3 16//16
f 49//49 16//16 27//27
f 49//49 27//27 48//48
f 50//50 27//27 7//7
f 50//50 7//7 25//25
f 50//50 48//48 27//27
f 50//50 25//25 14//14
f 50//50 14//14 48//48
f 51//51 27//27 16//16
f 51//51 15//15 45//45
f 51//51 45//45 7//7
f 51//51 7//7 27//27
f 51//51 28//28 15//15
f 51//51 16//16 28//28
f 52//52 26//26 15//15
f 52//52 15//15 28//28
f 53//53 29//29 6//6
f 53//53 6//6 16//16
f 53//53 16//16 29//29
f 54//54 29//29 16//16
f 54//54 16//16 30//30
f 54//54 11//11 29//29
f 54//54 30//30 42//42
f 54//54 42//42 22//22
f 54//54 22//22 11//11
f 55//55 30//30 3//3
f 55//55 42//42 30//30
f 55//55 23//23 42//42
f 55//55 3//3 49//49
f 55//55 49//49 48//48
f 55//55 48//48 23//23
f 56//56 1//1 19//19
f 56//56 19//19 8//8
f 56//56 8//8 17//17
f 57//57 32//32 17//17
f 57//57 17//17 2//2
f 57//57 2//2 32//32
f 58//58 32//32 31//31
f 58//58 17//17 32//32
f 58//58 56//56 17//17
f 58//58 1//1 56//56
f 58//58 44//44 1//1
f 58//58 31//31 44//44
f 59//59 18//18 34//34
f 59//59 38//38 18//18
f 59//59 4//4 38//38
f 60//60 34//34 12//12
f 60//60 59//59 34//34
f 60//60 21//21 4//4
f 60//60 4//4 59//59
f 60//60 12//12 52//52
f 60//60 6//6 21//21
f 60//60 52//52 28//28
f 60//60 28//28 6//6
f 61//61 34//34 18//18
f 61//61 18//18 9//9
f 61//61 12//12 34//34
f 61//61 35//35 12//12
f 61//61 9//9 35//35
f 62//62 33//33 19//19
f 62//62 19//19 1//1
f 62//62 35//35 9//9
f 62//62 9//9 33//33
f 63//63 12//12 35//35
f 63//63 52//52 12//12
f 63//63 26//26 52//52
f 64//64 1//1 26//26
f 64//64 63//63 35//35
f 64//64 26//26 63//63
f 64//64 62//62 1//1
f 64//64 35//35 62//62

