# https://github.com/mikedh/trimesh
v 0.00219858 0.00375042 0.02317286
v 0.02442736 -0.03546762 0.01201944
v 0.02427639 -0.00900068 -0.01507460
v -0.00292940 0.00371507 -0.02254582
v -0.02567238 -0.03870132 0.01926911
v 0.00211215 0.00362809 -0.02271762
v 0.02459154 -0.01137012 0.01224994
v 0.01518585 -0.02583944 0.02305274
v -0.02580130 -0.01584385 0.01417967
v -0.01636544 -0.03539898 -0.02247690
v -0.01028864 0.00434851 -0.01824018
v 0.02468145 -0.03474258 -0.02038059
v 0.01204651 -0.03404900 0.01980653
v -0.02561984 -0.03188644 0.02298858
v 0.01527186 -0.02299899 0.02303407
v 0.01583571 -0.02573093 -0.02705972
v -0.02551609 -0.03961928 0.01372080
v -0.01286063 0.00353752 0.01706320
v -0.01582904 -0.01775797 -0.02361296
v 0.02463936 -0.02445666 -0.02072364
v 0.01517591 -0.03533469 0.01756404
v 0.01513927 -0.03130215 0.02152828
v 0.01557463 -0.02324418 -0.02680825
v 0.01539377 -0.02981059 -0.02546135
v -0.01610831 -0.02446067 -0.02536838
v -0.01601890 -0.03866889 -0.01833863
v -0.01313511 -0.03833123 0.01654560
v -0.01293054 0.00322359 0.00657266
v -0.00904090 0.00390759 0.02139527
v -0.01313023 -0.03673375 0.02032378
v 0.01374799 -0.02722710 0.02284228
v 0.01501871 -0.01318008 -0.02400222
v 0.01525861 -0.03545594 -0.02104119
v -0.01619047 -0.03309551 -0.02422723
v -0.01462664 -0.02301727 -0.02536294
v 0.01663818 -0.03668558 -0.01710469
v -0.01464855 -0.03821091 0.01801806
v -0.00475493 0.00388537 0.02305274
v -0.02513194 -0.01957481 0.02142804
v 0.00867058 -0.03509284 0.01897552
v -0.01969873 -0.03829396 0.01905592
v -0.02558239 -0.03628406 0.02169335
v 0.01551127 -0.01714046 -0.02528865
v 0.01556565 -0.03398663 -0.02230624
v -0.01581112 -0.02763204 -0.02533779
v -0.00116812 -0.00423304 -0.02364384
v 0.02453187 -0.03557943 -0.01864546
v -0.00067742 -0.03838002 -0.01295932
v 0.00882641 -0.03685890 -0.01953236
v 0.00569210 -0.03666805 0.01647013
v -0.02513890 -0.02203033 0.02276739
v 0.01675790 -0.03668247 -0.01281972
v -0.00082564 -0.03815863 -0.01734151
vn 0.26267423 0.69993053 0.66415322
vn 0.72522605 -0.61433988 0.31085959
vn 0.81536234 0.49686363 -0.29717132
vn -0.13375380 0.68978498 -0.71155225
vn -0.62553333 -0.69765144 0.34927142
vn 0.22525971 0.75136562 -0.62024815
vn 0.85285607 0.38767654 0.34977625
vn 0.40278573 -0.09492980 0.91035817
vn -0.95626158 0.29195660 0.01803150
vn -0.56508522 -0.55574318 -0.60977718
vn -0.51119816 0.76813305 -0.38554903
vn 0.70439116 -0.48644546 -0.51691771
vn 0.12044457 -0.69841242 0.70548791
vn -0.66381988 -0.10762882 0.74010756
vn 0.43803527 0.05551710 0.89724186
vn 0.26008820 -0.08262196 -0.96204352
vn -0.68113402 -0.73110919 -0.03918911
vn -0.56545693 0.79621982 0.21515681
vn -0.73836217 0.24632270 -0.62781082
vn 0.86958981 0.08363832 -0.48663970
vn 0.22177824 -0.84280244 0.49040642
vn 0.34658982 -0.42094318 0.83826150
vn 0.27766435 0.15714873 -0.94773772
vn 0.12025442 -0.46575264 -0.87670597
vn -0.63647694 0.05614163 -0.76924978
vn -0.40383951 -0.84702652 -0.34562947
vn 0.08345721 -0.98859593 0.12535141
vn -0.71531343 0.69799277 -0.03365689
vn -0.33155566 0.77888145 0.53236692
vn 0.08278585 -0.70977606 0.69954589
vn 0.05911529 -0.23871265 0.96928925
vn 0.46703341 0.36001045 -0.80763375
vn 0.07871646 -0.79040186 -0.60751018
vn -0.57026404 -0.32605648 -0.75398017
vn -0.10125496 0.12180443 -0.98737587
vn 0.10577219 -0.98844534 -0.10857281
vn 0.08314303 -0.95935098 0.26969042
vn -0.07765578 0.69989356 0.71001308
vn -0.84805388 0.30187369 0.43551910
vn 0.09709050 -0.79925574 0.59309670
vn 0.07800937 -0.89038260 0.44847894
vn -0.60975118 -0.40428669 0.68172999
vn 0.41131029 0.26683012 -0.87156499
vn 0.07399391 -0.62744586 -0.77513650
vn -0.41577264 -0.10269208 -0.90365228
vn -0.04584993 0.12618530 -0.99094654
vn 0.64252924 -0.75001958 -0.15692930
vn 0.06662020 -0.99765905 -0.01543296
vn 0.05986923 -0.90546517 -0.42017675
vn 0.09351887 -0.97275114 0.21215430
vn -0.67672567 0.10880921 0.72815034
vn 0.11733466 -0.99307485 0.00590982
vn 0.05825089 -0.98125454 -0.18370181
f 6//6 1//1 3//3
f 7//7 3//3 1//1
f 11//11 6//6 4//4
f 11//11 1//1 6//6
f 12//12 7//7 2//2
f 14//14 8//8 1//1
f 14//14 9//9 5//5
f 15//15 7//7 1//1
f 15//15 1//1 8//8
f 15//15 8//8 2//2
f 15//15 2//2 7//7
f 17//17 5//5 9//9
f 19//19 9//9 11//11
f 19//19 11//11 4//4
f 20//20 3//3 7//7
f 20//20 7//7 12//12
f 20//20 12//12 16//16
f 22//22 13//13 21//21
f 22//22 21//21 2//2
f 22//22 2//2 8//8
f 23//23 4//4 6//6
f 23//23 20//20 16//16
f 24//24 16//16 12//12
f 25//25 17//17 9//9
f 25//25 9//9 19//19
f 25//25 19//19 4//4
f 26//26 17//17 10//10
f 27//27 17//17 2//2
f 28//28 18//18 11//11
f 28//28 11//11 9//9
f 28//28 9//9 18//18
f 29//29 11//11 18//18
f 30//30 13//13 22//22
f 31//31 22//22 8//8
f 31//31 8//8 14//14
f 32//32 6//6 3//3
f 33//33 26//26 10//10
f 34//34 16//16 24//24
f 34//34 10//10 17//17
f 34//34 17//17 25//25
f 35//35 23//23 16//16
f 35//35 16//16 25//25
f 35//35 25//25 4//4
f 37//37 5//5 17//17
f 37//37 17//17 27//27
f 38//38 1//1 11//11
f 38//38 11//11 29//29
f 38//38 14//14 1//1
f 39//39 29//29 18//18
f 39//39 18//18 9//9
f 40//40 30//30 21//21
f 40//40 21//21 13//13
f 40//40 13//13 30//30
f 41//41 30//30 5//5
f 41//41 21//21 30//30
f 41//41 37//37 21//21
f 41//41 5//5 37//37
f 42//42 30//30 22//22
f 42//42 14//14 5//5
f 42//42 5//5 30//30
f 42//42 31//31 14//14
f 42//42 22//22 31//31
f 43//43 23//23 6//6
f 43//43 6//6 32//32
f 43//43 20//20 23//23
f 43//43 32//32 3//3
f 43//43 3//3 20//20
f 44//44 24//24 12//12
f 44//44 12//12 33//33
f 44//44 33//33 10//10
f 44//44 34//34 24//24
f 44//44 10//10 34//34
f 45//45 34//34 25//25
f 45//45 25//25 16//16
f 45//45 16//16 34//34
f 46//46 35//35 4//4
f 46//46 4//4 23//23
f 46//46 23//23 35//35
f 47//47 12//12 2//2
f 47//47 33//33 12//12
f 48//48 2//2 17//17
f 48//48 17//17 26//26
f 49//49 26//26 33//33
f 49//49 47//47 36//36
f 49//49 33//33 47//47
f 50//50 37//37 27//27
f 50//50 27//27 2//2
f 50//50 2//2 21//21
f 50//50 21//21 37//37
f 51//51 39//39 9//9
f 51//51 9//9 14//14
f 51//51 14//14 38//38
f 51//51 38//38 29//29
f 51//51 29//29 39//39
f 52//52 47//47 2//2
f 52//52 36//36 47//47
f 52//52 48//48 36//36
f 52//52 2//2 48//48
f 53//53 48//48 26//26
f 53//53 36//36 48//48
f 53//53 49//49 36//36
f 53//53 26//26 49//49

