# https://github.com/mikedh/trimesh
v -0.07050714 0.03357807 0.02041967
v -0.05342874 -0.01406291 0.01725266
v -0.05848856 0.02246863 -0.00858650
v -0.06932254 0.02264555 -0.01496694
v -0.07200988 -0.01365811 0.01552523
v -0.04947898 -0.01515959 -0.01795373
v -0.07077561 0.03649518 0.01872549
v -0.06880286 -0.01349714 0.01863526
v -0.04950208 -0.01123390 -0.01242171
v -0.06162701 0.02267630 -0.01472448
v -0.06964569 -0.01470317 -0.01575743
v -0.07570582 0.02292190 0.01458354
v -0.06128511 0.02280632 0.01929766
v -0.06876423 -0.01780422 0.00556582
v -0.07241844 0.02311111 0.01979114
v -0.04956613 -0.01226393 -0.01534788
v -0.06436540 0.00367759 -0.01734151
v -0.05947815 0.02272761 -0.01264578
v -0.07315168 0.03419372 0.01909943
v -0.07323763 0.00283556 -0.01111576
v -0.07057101 0.03606299 0.01895621
v -0.05852049 0.02244679 0.00114787
v -0.05957458 0.01884800 0.01719599
v -0.06355238 0.00652043 0.01995999
v -0.06925772 -0.01748460 0.00652708
v -0.06793258 -0.01762706 -0.00012856
v -0.07006490 0.01407537 0.02001602
v -0.07179792 0.00051395 0.01769690
v -0.07423451 0.00543333 0.01566928
v -0.04946844 -0.01420838 -0.01751215
v -0.06243900 0.00373687 -0.01721893
v -0.06869361 -0.00352752 -0.01732016
v -0.05839655 0.02102488 -0.01096528
v -0.07225150 0.03559712 0.01880982
v -0.07374927 0.02312316 -0.01183648
v -0.07252036 0.03335886 0.01984563
v -0.07339090 0.02191413 0.01876373
v -0.07174739 -0.01193203 -0.00718524
v -0.05751640 -0.01368549 0.01868358
v -0.06280054 0.02268397 0.02029257
v -0.07071549 -0.01469270 -0.01317261
v -0.06769727 -0.01491587 -0.01743872
v -0.06903985 0.01162982 0.01999835
v -0.07334766 0.01057281 0.01747725
v -0.07440757 0.00066999 0.01219830
v -0.06793760 0.00013585 -0.01734021
v -0.07451237 0.02290325 -0.00854415
v -0.07137079 0.02277170 -0.01384004
v -0.07170474 -0.00181373 -0.01427991
v -0.07347069 0.03450491 0.01819083
v -0.07252114 0.03563128 0.01832808
v -0.07437551 0.01402671 0.01657892
v -0.05475036 -0.01402861 0.01774499
v -0.06873834 -0.00702421 -0.01711131
v -0.06562251 0.00660787 0.01990376
v -0.07567353 0.01936006 0.01333102
v -0.07439118 0.00135078 0.00967181
v -0.07328949 -0.00733843 0.01225065
v -0.07422074 0.00315360 0.01450209
v -0.06690444 0.00255629 -0.01726918
v -0.07323680 0.00398029 -0.01206039
v -0.07006501 0.00378286 -0.01609433
v -0.07567041 0.02257174 0.01289315
v -0.07436018 0.01967656 -0.00825340
vn 0.11004522 0.31198599 0.94369211
vn 0.69108455 -0.50135062 0.52062434
vn 0.84853485 0.52278850 -0.08173613
vn -0.19065320 0.55183287 -0.81186935
vn -0.75247724 -0.53732343 0.38086945
vn 0.60864783 -0.52058808 -0.59877865
vn 0.13131145 0.94276450 0.30651655
vn -0.29450000 -0.55184415 0.78021650
vn 0.99614914 0.08064701 0.03439412
vn 0.27692150 0.59230744 -0.75662830
vn -0.66458882 -0.57639660 -0.47548781
vn -0.97699737 0.05952708 0.20477467
vn 0.77809484 0.34675828 0.52376246
vn -0.23097119 -0.97142963 0.05455997
vn -0.47875934 -0.03042932 0.87741869
vn 0.96960727 0.20818520 -0.12853270
vn -0.00362299 0.08485971 -0.99638632
vn 0.66212648 0.62335220 -0.41595739
vn -0.73245873 0.29461799 0.61376253
vn -0.99032705 -0.09773735 -0.09848724
vn 0.48897436 0.55943162 0.66928346
vn 0.89441739 0.44405239 0.05324484
vn 0.94016036 0.22827219 0.25296306
vn 0.04305170 -0.03704406 0.99838584
vn -0.47929083 -0.86433294 0.15234461
vn -0.18039198 -0.98067726 -0.07570228
vn -0.18346047 -0.04288461 0.98209122
vn -0.68290244 -0.09193262 0.72470177
vn -0.90703321 -0.08970325 0.41139287
vn 0.93527588 0.16298421 -0.31415790
vn 0.08604149 0.11037197 -0.99015902
vn -0.41677183 -0.00609923 -0.90899067
vn 0.92835599 0.30807682 -0.20795151
vn -0.47766190 0.62554840 0.61686976
vn -0.71129180 0.49110897 -0.50286774
vn -0.50255719 0.15766878 0.85004519
vn -0.78589667 -0.04115551 0.61698675
vn -0.97830098 -0.19800493 -0.06100203
vn 0.11515683 -0.55893808 0.82117424
vn 0.30422207 0.12470205 0.94440369
vn -0.78661776 -0.57797607 -0.21720076
vn -0.28930956 -0.59770319 -0.74769705
vn -0.06212707 -0.03930987 0.99729382
vn -0.73243802 -0.08300814 0.67575454
vn -0.99127629 -0.10904845 0.07402540
vn -0.20165943 0.04985587 -0.97818601
vn -0.96873957 0.19774684 -0.14979928
vn -0.44032703 0.54579456 -0.71289579
vn -0.83592248 -0.05838244 -0.54573354
vn -0.89020357 0.43648980 0.13043874
vn -0.61677116 0.78629170 0.03658840
vn -0.86372610 -0.06131175 0.50021805
vn 0.23402651 -0.61417756 0.75366937
vn -0.65091562 -0.03950492 -0.75812151
vn -0.03804146 -0.04988417 0.99803027
vn -0.99735810 -0.04990173 0.05278853
vn -0.99436409 -0.09568740 -0.04565054
vn -0.98673880 -0.15938553 0.03070490
vn -0.97332462 -0.10975760 0.20147570
vn -0.09843576 0.08006104 -0.99191765
vn -0.94879479 -0.04925387 -0.31202966
vn -0.60045771 0.03552440 -0.79886704
vn -0.99683434 0.06618047 -0.04406180
vn -0.99631183 -0.05397059 -0.06670762
f 9//9 2//2 6//6
f 10//10 4//4 7//7
f 14//14 6//6 2//2
f 16//16 3//3 9//9
f 17//17 4//4 10//10
f 18//18 6//6 10//10
f 18//18 10//10 7//7
f 18//18 7//7 3//3
f 21//21 13//13 7//7
f 21//21 7//7 1//1
f 21//21 1//1 13//13
f 22//22 3//3 7//7
f 22//22 7//7 13//13
f 22//22 9//9 3//3
f 23//23 13//13 2//2
f 23//23 2//2 9//9
f 23//23 22//22 13//13
f 23//23 9//9 22//22
f 25//25 8//8 5//5
f 26//26 6//6 14//14
f 27//27 15//15 8//8
f 27//27 1//1 15//15
f 28//28 5//5 8//8
f 28//28 8//8 15//15
f 30//30 16//16 9//9
f 30//30 9//9 6//6
f 30//30 6//6 18//18
f 31//31 17//17 10//10
f 31//31 10//10 6//6
f 31//31 6//6 17//17
f 33//33 18//18 3//3
f 33//33 3//3 16//16
f 33//33 30//30 18//18
f 33//33 16//16 30//30
f 34//34 1//1 7//7
f 36//36 15//15 1//1
f 36//36 34//34 19//19
f 36//36 1//1 34//34
f 37//37 19//19 12//12
f 37//37 36//36 19//19
f 37//37 15//15 36//36
f 39//39 24//24 8//8
f 39//39 8//8 25//25
f 40//40 13//13 1//1
f 40//40 24//24 39//39
f 40//40 2//2 13//13
f 41//41 25//25 5//5
f 41//41 14//14 25//25
f 41//41 26//26 14//14
f 41//41 11//11 26//26
f 41//41 5//5 38//38
f 41//41 38//38 20//20
f 42//42 26//26 11//11
f 42//42 6//6 26//26
f 43//43 1//1 27//27
f 43//43 40//40 1//1
f 43//43 24//24 40//40
f 43//43 27//27 8//8
f 44//44 29//29 5//5
f 44//44 5//5 28//28
f 44//44 28//28 15//15
f 44//44 15//15 37//37
f 46//46 32//32 4//4
f 46//46 17//17 6//6
f 46//46 42//42 32//32
f 46//46 6//6 42//42
f 48//48 35//35 7//7
f 48//48 7//7 4//4
f 49//49 11//11 41//41
f 50//50 35//35 47//47
f 50//50 47//47 12//12
f 50//50 12//12 19//19
f 51//51 34//34 7//7
f 51//51 7//7 35//35
f 51//51 35//35 50//50
f 51//51 50//50 19//19
f 51//51 19//19 34//34
f 52//52 37//37 12//12
f 52//52 12//12 29//29
f 52//52 44//44 37//37
f 52//52 29//29 44//44
f 53//53 14//14 2//2
f 53//53 40//40 39//39
f 53//53 2//2 40//40
f 53//53 39//39 25//25
f 53//53 25//25 14//14
f 54//54 42//42 11//11
f 54//54 32//32 42//42
f 54//54 49//49 32//32
f 54//54 11//11 49//49
f 55//55 43//43 8//8
f 55//55 8//8 24//24
f 55//55 24//24 43//43
f 56//56 45//45 29//29
f 56//56 29//29 12//12
f 57//57 20//20 38//38
f 57//57 56//56 20//20
f 57//57 45//45 56//56
f 58//58 38//38 5//5
f 58//58 5//5 45//45
f 58//58 57//57 38//38
f 58//58 45//45 57//57
f 59//59 45//45 5//5
f 59//59 5//5 29//29
f 59//59 29//29 45//45
f 60//60 46//46 4//4
f 60//60 4//4 17//17
f 60//60 17//17 46//46
f 61//61 47//47 35//35
f 61//61 35//35 49//49
f 61//61 49//49 41//41
f 61//61 41//41 20//20
f 62//62 48//48 4//4
f 62//62 4//4 32//32
f 62//62 35//35 48//48
f 62//62 49//49 35//35
f 62//62 32//32 49//49
f 63//63 56//56 12//12
f 63//63 12//12 47//47
f 63//63 47//47 56//56
f 64//64 56//56 47//47
f 64//64 20//20 56//56
f 64//64 61//61 20//20
f 64//64 47//47 61//61

