# https://github.com/mikedh/trimesh
v -0.06622547 0.03484626 0.02615720
v -0.05838704 0.02229394 0.02106277
v -0.06013788 0.04472443 -0.00943880
v -0.07342186 0.03968263 -0.01892703
v -0.07737258 0.02723595 -0.00784993
v -0.05974056 0.02696642 -0.01804939
v -0.07539014 0.04470675 0.01802273
v -0.05997954 0.04291713 0.01978495
v -0.07224628 0.02726714 0.02530384
v -0.05702031 0.02249440 0.00428779
v -0.06222721 0.04194933 -0.01741079
v -0.07057199 0.02704088 -0.01914090
v -0.07470718 0.04746489 -0.01197970
v -0.06139213 0.04042986 0.02344224
v -0.06065738 0.02246459 0.02385936
v -0.07857408 0.03519942 0.01647214
v -0.07233442 0.03642848 0.02615693
v -0.05842883 0.03969080 -0.00966935
v -0.05868405 0.03631916 0.01812266
v -0.06202076 0.02696510 -0.01943411
v -0.07610540 0.02763789 -0.01522782
v -0.06497220 0.04560280 -0.01654715
v -0.06334347 0.04732473 -0.00525530
v -0.05985256 0.03335866 0.02299056
v -0.07287792 0.04437295 0.02226979
v -0.06666784 0.03203713 0.02617787
v -0.07705709 0.04056758 -0.01641970
v -0.07667010 0.03380027 0.02245619
v -0.06502780 0.04206518 0.02431928
v -0.05826650 0.02714345 -0.01623944
v -0.06016039 0.04478914 -0.00041434
v -0.06008608 0.04381635 -0.01400553
v -0.05871530 0.03491383 0.01938625
v -0.05848839 0.03949215 0.00277722
v -0.06101370 0.03963562 -0.01727412
v -0.06794268 0.04116660 -0.01908244
v -0.07300704 0.03860046 -0.01897708
v -0.07313230 0.02719856 -0.01773227
v -0.07482312 0.04321947 -0.01748997
v -0.06653190 0.04720473 -0.01359957
v -0.07344595 0.04719191 0.00227235
v -0.06022095 0.03944619 0.02209963
v -0.05981028 0.02242066 0.02308045
v -0.06241948 0.02708891 0.02493349
v -0.06486182 0.04575727 0.01671403
v -0.07075522 0.03212253 0.02605113
v -0.07858682 0.03504356 0.01580543
v -0.07685560 0.02738243 -0.01265078
v -0.07851057 0.03962234 0.01589312
v -0.07575717 0.04186508 0.02230632
v -0.06779548 0.03639815 0.02603757
v -0.06244144 0.03929878 0.02432484
v -0.07183553 0.04200248 0.02449483
v -0.06349396 0.04284141 0.02319718
v -0.06143586 0.04421556 0.01959039
v -0.06155964 0.04612274 -0.01269648
v -0.06089378 0.04489368 -0.01489712
v -0.05852540 0.03446877 -0.01362015
v -0.05869010 0.02713298 0.02114448
v -0.05986094 0.04203584 0.02044983
v -0.06484281 0.03813172 -0.01895640
v -0.06028082 0.03839883 -0.01690506
v -0.06383392 0.04346543 -0.01731619
v -0.07605616 0.03863660 -0.01726605
vn 0.19176035 0.07463758 0.97859961
vn 0.68833532 -0.68055475 0.25107712
vn 0.85163861 0.52357593 -0.02408153
vn -0.29938307 0.10470125 -0.94837093
vn -0.77154161 -0.63412557 -0.05107157
vn 0.54879570 -0.53680221 -0.64083280
vn -0.57170744 0.79922990 0.18542429
vn 0.80632577 0.52295747 0.27632271
vn -0.48343373 -0.58382309 0.65225948
vn 0.66773029 -0.74331794 -0.04018341
vn 0.44200567 0.30353633 -0.84409519
vn -0.20772603 -0.62360697 -0.75363403
vn -0.52124483 0.82462451 -0.21976861
vn 0.61352596 0.31650494 0.72347116
vn 0.19908447 -0.71836741 0.66656856
vn -0.96386062 -0.20663180 0.16815471
vn -0.33146904 0.10792152 0.93727329
vn 0.97953808 0.18490451 -0.07947001
vn 0.98876212 0.11777297 0.09208143
vn 0.22001503 -0.55548570 -0.80189090
vn -0.70294014 -0.55768806 -0.44142857
vn 0.16214857 0.71458823 -0.68049358
vn 0.31688413 0.94833762 0.01549871
vn 0.78120135 0.06769337 0.62059814
vn -0.24722631 0.82307246 0.51130312
vn 0.09146943 -0.08507695 0.99216695
vn -0.87409401 0.17158582 -0.45444248
vn -0.85930259 -0.18737516 0.47590924
vn 0.15760063 0.50874196 0.84637087
vn 0.83599612 -0.40864133 -0.36622772
vn 0.80149064 0.59712540 0.03246549
vn 0.90621171 0.33836532 -0.25355323
vn 0.97513040 0.07743134 0.20766580
vn 0.98001270 0.19802555 0.01899942
vn 0.57175622 0.19916626 -0.79588167
vn 0.03931961 0.27374563 -0.96099808
vn -0.10423668 -0.00084057 -0.99455216
vn -0.44963039 -0.66893423 -0.59191174
vn -0.45085941 0.51482380 -0.72916544
vn 0.07348548 0.95679406 -0.28132724
vn -0.26130527 0.96266338 0.07070199
vn 0.85903016 0.14973277 0.48953783
vn 0.54755637 -0.65733305 0.51777919
vn 0.31304927 -0.08442685 0.94597688
vn 0.13773764 0.97254872 0.18755619
vn -0.09436912 -0.09011866 0.99145000
vn -0.96453480 -0.25793561 0.05605212
vn -0.74472273 -0.64592076 -0.16785240
vn -0.96169031 0.24402552 0.12491312
vn -0.73316245 0.38534595 0.56034037
vn 0.06307944 0.19601682 0.97856956
vn 0.41487252 0.17315653 0.89325115
vn -0.19334634 0.46691518 0.86290637
vn 0.31241717 0.70505322 0.63662820
vn 0.43171647 0.84652197 0.31148265
vn 0.52153581 0.83573553 -0.17189103
vn 0.64745564 0.59668431 -0.47409813
vn 0.96803155 0.11766885 -0.22151513
vn 0.94493365 0.05582225 0.32246591
vn 0.86176547 0.33301266 0.38270464
vn 0.23102368 0.12497244 -0.96488857
vn 0.78966804 0.15060280 -0.59476313
vn 0.28879997 0.41488347 -0.86282460
vn -0.63519601 -0.05488505 -0.77039838
f 15//15 9//9 5//5
f 15//15 10//10 2//2
f 15//15 5//5 10//10
f 20//20 6//6 10//10
f 20//20 10//10 12//12
f 26//26 9//9 15//15
f 26//26 1//1 17//17
f 28//28 16//16 9//9
f 28//28 9//9 17//17
f 30//30 18//18 10//10
f 30//30 10//10 6//6
f 31//31 18//18 3//3
f 32//32 3//3 18//18
f 33//33 2//2 10//10
f 33//33 10//10 19//19
f 34//34 8//8 19//19
f 34//34 31//31 8//8
f 34//34 18//18 31//31
f 34//34 19//19 10//10
f 34//34 10//10 18//18
f 35//35 6//6 20//20
f 37//37 20//20 12//12
f 37//37 12//12 4//4
f 37//37 36//36 20//20
f 37//37 4//4 36//36
f 38//38 4//4 12//12
f 38//38 12//12 10//10
f 39//39 13//13 22//22
f 39//39 27//27 13//13
f 39//39 4//4 27//27
f 39//39 36//36 4//4
f 39//39 22//22 36//36
f 40//40 22//22 13//13
f 40//40 13//13 23//23
f 41//41 23//23 13//13
f 41//41 13//13 7//7
f 41//41 7//7 25//25
f 42//42 14//14 24//24
f 43//43 24//24 15//15
f 43//43 15//15 2//2
f 43//43 2//2 24//24
f 44//44 15//15 24//24
f 44//44 26//26 15//15
f 44//44 1//1 26//26
f 45//45 41//41 25//25
f 45//45 23//23 41//41
f 46//46 26//26 17//17
f 46//46 17//17 9//9
f 46//46 9//9 26//26
f 47//47 27//27 5//5
f 47//47 5//5 9//9
f 47//47 9//9 16//16
f 48//48 27//27 21//21
f 48//48 5//5 27//27
f 48//48 21//21 38//38
f 48//48 38//38 10//10
f 48//48 10//10 5//5
f 49//49 7//7 13//13
f 49//49 13//13 27//27
f 49//49 16//16 28//28
f 49//49 47//47 16//16
f 49//49 27//27 47//47
f 50//50 28//28 17//17
f 50//50 25//25 7//7
f 50//50 49//49 28//28
f 50//50 7//7 49//49
f 51//51 29//29 17//17
f 51//51 17//17 1//1
f 51//51 1//1 29//29
f 52//52 29//29 1//1
f 52//52 14//14 29//29
f 52//52 1//1 44//44
f 52//52 44//44 24//24
f 52//52 24//24 14//14
f 53//53 29//29 25//25
f 53//53 17//17 29//29
f 53//53 50//50 17//17
f 53//53 25//25 50//50
f 54//54 29//29 14//14
f 54//54 14//14 8//8
f 54//54 25//25 29//29
f 55//55 31//31 23//23
f 55//55 8//8 31//31
f 55//55 23//23 45//45
f 55//55 54//54 8//8
f 55//55 45//45 25//25
f 55//55 25//25 54//54
f 56//56 31//31 3//3
f 56//56 23//23 31//31
f 56//56 40//40 23//23
f 56//56 22//22 40//40
f 57//57 22//22 56//56
f 57//57 56//56 3//3
f 57//57 3//3 32//32
f 57//57 35//35 11//11
f 58//58 32//32 18//18
f 58//58 18//18 30//30
f 58//58 30//30 32//32
f 59//59 33//33 24//24
f 59//59 24//24 2//2
f 59//59 2//2 33//33
f 60//60 33//33 19//19
f 60//60 19//19 8//8
f 60//60 8//8 14//14
f 60//60 14//14 42//42
f 60//60 42//42 24//24
f 60//60 24//24 33//33
f 61//61 35//35 20//20
f 61//61 11//11 35//35
f 61//61 36//36 11//11
f 61//61 20//20 36//36
f 62//62 30//30 6//6
f 62//62 6//6 35//35
f 62//62 32//32 30//30
f 62//62 57//57 32//32
f 62//62 35//35 57//57
f 63//63 36//36 22//22
f 63//63 11//11 36//36
f 63//63 57//57 11//11
f 63//63 22//22 57//57
f 64//64 27//27 4//4
f 64//64 4//4 38//38
f 64//64 38//38 21//21
f 64//64 21//21 27//27

