# https://github.com/mikedh/trimesh
v 0.03546930 -0.02311143 0.02308567
v 0.03549615 -0.02858909 0.02201790
v 0.03562643 -0.03329181 -0.02218032
v 0.02444656 -0.03338364 -0.02375929
v 0.02462241 -0.02886140 0.02217965
v 0.03559843 -0.02289108 -0.00193666
v 0.03557153 -0.02426714 0.02301290
v 0.02442736 -0.03546762 0.01201944
v 0.03519644 -0.03314196 -0.02235782
v 0.02463891 -0.02291227 0.02286794
v 0.03584295 -0.03520030 -0.01683926
v 0.03248080 -0.02303043 0.02306517
v 0.03248739 -0.02426776 0.02302598
v 0.02463936 -0.02289108 -0.00193666
v 0.03561936 -0.03435466 0.01216368
v 0.02453187 -0.03557943 -0.01864546
v 0.02603088 -0.03530046 0.01210481
v 0.03532504 -0.03518165 -0.00850874
v 0.03394646 -0.03371536 -0.02159564
v 0.03082290 -0.03519225 -0.01838628
vn 0.55284053 0.57160279 0.60633126
vn 0.62804943 -0.45245122 0.63312069
vn 0.72232017 -0.16299805 -0.67207530
vn -0.51184877 -0.02869175 -0.85859631
vn -0.61389569 -0.42563744 0.66480437
vn 0.65412962 0.73788248 -0.16626448
vn 0.70257495 -0.06989701 0.70816866
vn -0.62959718 -0.74527287 0.21948975
vn 0.26492963 0.26220813 -0.92793275
vn -0.57456667 0.55375693 0.60268267
vn 0.70988498 -0.69464553 -0.11632243
vn 0.00264306 0.69218640 0.72171393
vn -0.00965594 -0.10802445 0.99410134
vn -0.65341715 0.73863453 -0.16572584
vn 0.68814905 -0.69428004 0.21077504
vn -0.62743167 -0.76244251 -0.15814841
vn 0.08337679 -0.94155835 0.32636818
vn 0.24376809 -0.96963151 0.01979535
vn 0.08679371 -0.91769598 -0.38768665
vn 0.07610878 -0.95232345 -0.29544459
f 7//7 5//5 2//2
f 7//7 6//6 1//1
f 8//8 2//2 5//5
f 9//9 6//6 3//3
f 9//9 3//3 4//4
f 9//9 4//4 6//6
f 10//10 8//8 5//5
f 10//10 4//4 8//8
f 11//11 3//3 6//6
f 11//11 6//6 7//7
f 12//12 1//1 6//6
f 12//12 6//6 10//10
f 13//13 10//10 5//5
f 13//13 5//5 7//7
f 13//13 12//12 10//10
f 13//13 7//7 1//1
f 13//13 1//1 12//12
f 14//14 10//10 6//6
f 14//14 6//6 4//4
f 14//14 4//4 10//10
f 15//15 11//11 7//7
f 15//15 7//7 2//2
f 16//16 11//11 8//8
f 16//16 8//8 4//4
f 17//17 15//15 2//2
f 17//17 2//2 8//8
f 17//17 8//8 15//15
f 18//18 15//15 8//8
f 18//18 8//8 11//11
f 18//18 11//11 15//15
f 19//19 16//16 4//4
f 19//19 4//4 3//3
f 19//19 3//3 11//11
f 20//20 19//19 11//11
f 20//20 11//11 16//16
f 20//20 16//16 19//19

