# https://github.com/mikedh/trimesh
v 0.04053588 0.06978976 0.02500000
v 0.07774215 0.00534658 0.02500000
v 0.05643622 0.04224955 -0.02500000
v 0.03508009 0.07000000 -0.02500000
v 0.03809678 0.05401441 0.02500000
v 0.04053588 0.06978976 -0.02500000
v 0.03508009 0.07000000 0.02500000
v 0.06499099 0.00743224 -0.02500000
v 0.07774215 0.00534658 -0.02500000
v 0.06499099 0.00743224 0.02500000
v 0.03809678 0.05401441 -0.02500000
f 1 2 3
f 5 2 1
f 6 1 3
f 6 3 4
f 6 4 1
f 7 5 1
f 7 1 4
f 7 4 5
f 8 4 3
f 9 8 3
f 9 3 2
f 9 2 8
f 10 8 2
f 10 2 5
f 10 5 8
f 11 8 5
f 11 5 4
f 11 4 8

