# https://github.com/mikedh/trimesh
v 0.01053464 -0.07000000 0.02500000
v 0.01000000 -0.11000000 0.02500000
v 0.01000000 -0.11000000 -0.02500000
v -0.00582900 -0.06227273 -0.02500000
v -0.01128355 -0.07000000 0.02500000
v 0.01053464 -0.07000000 -0.02500000
v -0.00582900 -0.06227273 0.02500000
v -0.01000000 -0.11000000 0.02500000
v 0.00235282 -0.06227273 -0.02500000
v -0.01128355 -0.07000000 -0.02500000
v 0.00235282 -0.06227273 0.02500000
v -0.01000000 -0.11000000 -0.02500000
f 1 2 3
f 5 2 1
f 6 1 3
f 6 3 4
f 7 5 1
f 8 3 2
f 8 2 5
f 9 6 4
f 9 4 7
f 9 1 6
f 10 8 5
f 10 4 3
f 10 7 4
f 10 5 7
f 11 9 7
f 11 7 1
f 11 1 9
f 12 10 3
f 12 3 8
f 12 8 10

