# https://github.com/mikedh/trimesh
v -0.03037445 0.07000000 0.02500000
v -0.03037445 0.06000000 0.02500000
v -0.03037445 0.07000000 -0.02500000
v -0.04041450 0.07000000 -0.02500000
v -0.07979214 0.00179589 0.02500000
v -0.04041450 0.07000000 0.02500000
v -0.06625369 -0.00524519 -0.02500000
v -0.03037445 0.06000000 -0.02500000
v -0.06625369 -0.00524519 0.02500000
v -0.07979214 0.00179589 -0.02500000
v -0.07900485 -0.00315953 0.02500000
v -0.07900485 -0.00315953 -0.02500000
f 1 2 3
f 1 3 4
f 5 2 1
f 6 5 1
f 6 1 4
f 6 4 5
f 7 4 3
f 8 7 3
f 8 3 2
f 9 2 5
f 9 8 2
f 9 7 8
f 10 5 4
f 10 4 7
f 11 9 5
f 11 7 9
f 11 5 10
f 12 11 10
f 12 10 7
f 12 7 11

