# https://github.com/mikedh/trimesh
v 0.07842397 0.00416563 0.02500000
v 0.07881762 -0.00348382 0.02500000
v 0.07881762 -0.00348382 -0.02500000
v 0.06567281 0.00625130 -0.02500000
v 0.05811629 -0.01933959 0.02500000
v 0.07842397 0.00416563 -0.02500000
v 0.06567281 0.00625130 0.02500000
v 0.07086745 -0.01725392 0.02500000
v 0.05811629 -0.01933959 -0.02500000
v 0.07086745 -0.01725392 -0.02500000
f 1 2 3
f 5 2 1
f 6 1 3
f 6 3 4
f 6 4 1
f 7 5 1
f 7 1 4
f 7 4 5
f 8 3 2
f 8 2 5
f 9 5 4
f 9 4 3
f 9 8 5
f 10 9 3
f 10 3 8
f 10 8 9

