# https://github.com/mikedh/trimesh
v 0.02655427 -0.00547229 0.01998781
v 0.02646767 -0.02025342 0.01888891
v 0.02653531 -0.00547928 -0.01998616
v -0.02573855 -0.00531186 -0.01970118
v -0.02523006 -0.01923761 0.01975295
v -0.02523006 -0.01994252 -0.01926775
v 0.01928743 -0.00511482 0.01231109
v 0.02646767 -0.01994252 -0.01926775
v 0.02646767 -0.01923761 0.01975295
v -0.02581982 -0.00528136 0.01974728
v -0.02523006 -0.02025342 0.01888891
v 0.01497929 -0.00539807 -0.01865322
v -0.01948587 -0.00511482 0.01231109
vn 0.58309630 0.56171371 0.58692114
vn 0.62117086 -0.71285217 0.32555881
vn 0.57793284 0.55833103 -0.59519753
vn -0.58740932 0.55924227 -0.58497724
vn -0.61319584 -0.28302696 0.73748668
vn -0.56880744 -0.59231738 -0.57062967
vn 0.01881979 0.99973803 0.01302630
vn 0.57882242 -0.58892404 -0.56403287
vn 0.63481598 -0.27434639 0.72231761
vn -0.59299977 0.56265236 0.57599791
vn -0.61014293 -0.72154464 0.32725973
vn 0.00353792 0.99975863 -0.02168308
vn -0.00973193 0.99993410 0.00608898
f 6//6 4//4 3//3
f 7//7 1//1 3//3
f 8//8 1//1 2//2
f 8//8 3//3 1//1
f 8//8 6//6 3//3
f 8//8 2//2 6//6
f 9//9 2//2 1//1
f 9//9 1//1 5//5
f 10//10 5//5 1//1
f 10//10 4//4 6//6
f 10//10 1//1 7//7
f 11//11 6//6 2//2
f 11//11 10//10 6//6
f 11//11 5//5 10//10
f 11//11 9//9 5//5
f 11//11 2//2 9//9
f 12//12 7//7 3//3
f 12//12 3//3 4//4
f 12//12 4//4 7//7
f 13//13 10//10 7//7
f 13//13 7//7 4//4
f 13//13 4//4 10//10

