# https://github.com/mikedh/trimesh

o mesh40
v 0.02388157 -0.00511482 0.01750001
v 0.00656357 0.04097908 0.01750001
v 0.00656357 0.04097908 -0.01749999
v 0.02388157 -0.00511482 -0.01749999
v -0.02423043 -0.00511482 -0.01749999
v -0.02423043 -0.00511482 0.01750001
v 0.00661757 0.04099908 0.01798531
v 0.00658657 0.04098708 0.01784631
v 0.02389857 -0.00512692 0.01774501
v 0.00674657 0.04104808 0.01845441
v 0.00669557 0.04102908 0.01832751
v 0.02395057 -0.00516292 0.01798771
v 0.02403757 -0.00522252 0.01822571
v 0.00682457 0.04107808 0.01864631
v 0.02415657 -0.00530512 0.01845671
v 0.02430757 -0.00541002 0.01867851
v 0.00696757 0.04113208 0.01888241
v 0.00707657 0.04117308 0.01906171
v 0.02448957 -0.00553622 0.01888891
v 0.02493857 -0.00584712 0.01926781
v 0.00725157 0.04124008 0.01926511
v 0.00760657 0.04137408 0.01957361
v 0.00729557 0.04125608 0.01931711
v 0.02548557 -0.00622592 0.01957871
v 0.00794857 0.04150408 0.01978301
v 0.00766257 0.04139508 0.01961991
v 0.00800857 0.04152708 0.01980421
v 0.02611057 -0.00665812 0.01980971
v 0.00844557 0.04169308 0.01994751
v 0.00838857 0.04167108 0.01993901
v 0.02678757 -0.00712712 0.01995201
v 0.00890157 0.04186508 0.02000001
v 0.00878357 0.04182108 0.01999681
v 0.02749157 -0.00761482 0.02000001
v 0.00265157 0.06104608 0.02000001
v 0.00024757 0.06035908 0.01750001
v 0.00316257 0.05072008 0.01750001
v 0.00554257 0.05148608 0.02000001
v 0.00532257 0.04433808 0.01750001
v 0.00767657 0.04517908 0.02000001
v -0.00057243 0.07254608 0.02000001
v -0.00053843 0.07110808 0.01994601
v -0.00004143 0.07066108 0.02000001
v -0.00057243 0.07256108 0.02000001
v -0.00050243 0.06956008 0.01988781
v -0.00048343 0.06872508 0.01978791
v -0.00052543 0.07052608 0.01992411
v -0.00043943 0.06682608 0.01956081
v -0.00040743 0.06545408 0.01925291
v -0.00039243 0.06479208 0.01910451
v -0.00037743 0.06418408 0.01888131
v -0.00036443 0.06361108 0.01867111
v -0.00035543 0.06321508 0.01845521
v -0.00034243 0.06264908 0.01801611
v -0.00034143 0.06262808 0.01798761
v -0.00034543 0.06277208 0.01814381
v -0.00035243 0.06308708 0.01838501
v -0.00033743 0.06244308 0.01762341
v -0.00033743 0.06243108 0.01750001
v -0.00033943 0.06253508 0.01785811
v -0.00033843 0.06248108 0.01775001
v -0.00052743 0.07060108 0.01992691
v -0.00049843 0.07053208 0.01992821
v 0.00218257 0.06091208 0.01995201
v 0.00320757 0.05073508 0.01798771
v 0.00043057 0.06041208 0.01845671
v 0.00029457 0.06037308 0.01798771
v 0.00065357 0.06047508 0.01888891
v 0.00334357 0.05077808 0.01845671
v 0.00095257 0.06056008 0.01926781
v 0.00356357 0.05084908 0.01888891
v 0.00131657 0.06066408 0.01957871
v 0.00385957 0.05094408 0.01926781
v 0.00173157 0.06078308 0.01980971
v 0.00421957 0.05106008 0.01957871
v 0.00463157 0.05119308 0.01980971
v 0.00507757 0.05133608 0.01995201
v 0.00536757 0.04435408 0.01798771
v 0.00550157 0.04440208 0.01845671
v 0.00571957 0.04448008 0.01888891
v 0.00601157 0.04458408 0.01926781
v 0.00636857 0.04471208 0.01957871
v 0.00677557 0.04485708 0.01980971
v 0.00721757 0.04501508 0.01995201
v -0.02714543 -0.00712712 0.01995201
v -0.02646643 -0.00665812 0.01980971
v -0.02584043 -0.00622592 0.01957871
v -0.02529143 -0.00584712 0.01926781
v -0.02484043 -0.00553622 0.01888891
v -0.02465843 -0.00541002 0.01867851
v -0.02450643 -0.00530512 0.01845671
v -0.02429943 -0.00516292 0.01798771
v -0.02438643 -0.00522252 0.01822571
v -0.02424743 -0.00512692 0.01774501
v -0.02785243 -0.00761482 0.02000001
v -0.00909643 0.04184208 0.02000001
v -0.00863943 0.04167408 0.01994681
v -0.00903043 0.04181808 0.01999901
v -0.00820143 0.04151308 0.01980371
v -0.00826943 0.04153808 0.01983951
v -0.00858143 0.04165208 0.01993901
v -0.00779543 0.04136308 0.01957531
v -0.00785243 0.04138408 0.01961981
v -0.00744543 0.04123508 0.01925931
v -0.00758843 0.04128708 0.01941581
v -0.00714943 0.04112608 0.01888571
v -0.00726443 0.04116808 0.01906171
v -0.00693643 0.04104808 0.01845251
v -0.00707843 0.04110008 0.01877621
v -0.00679543 0.04099608 0.01798771
v -0.00679543 0.04099608 0.01799271
v -0.00688243 0.04102708 0.01832751
v -0.00674943 0.04097908 0.01750001
v -0.00300343 0.06200608 0.02000001
v -0.00259943 0.05376208 0.01750001
v -0.00057143 0.06142808 0.01750001
v -0.00500043 0.05445708 0.02000001
v -0.00306343 0.05218508 0.01750001
v -0.00545843 0.05290108 0.02000001
v -0.00497843 0.04612108 0.01750001
v -0.00735143 0.04690908 0.02000001
v -0.00088843 0.07118908 0.02000001
v -0.00453243 0.05432108 0.01995201
v -0.00252943 0.06189308 0.01995201
v -0.00207343 0.06178508 0.01980971
v -0.00165243 0.06168508 0.01957871
v -0.00408143 0.05419108 0.01980971
v -0.00128443 0.06159708 0.01926781
v -0.00366643 0.05407108 0.01957871
v -0.00098143 0.06152508 0.01888891
v -0.00330243 0.05396508 0.01926781
v -0.00075643 0.06147208 0.01845671
v -0.00300443 0.05387908 0.01888891
v -0.00061843 0.06143908 0.01798771
v -0.00278243 0.05381508 0.01845671
v -0.00499143 0.05276108 0.01995201
v -0.00454243 0.05262708 0.01980971
v -0.00412743 0.05250308 0.01957871
v -0.00376443 0.05239508 0.01926781
v -0.00346743 0.05230608 0.01888891
v -0.00264543 0.05377508 0.01798771
v -0.00324543 0.05223908 0.01845671
v -0.00688843 0.04675508 0.01995201
v -0.00644343 0.04660708 0.01980971
v -0.00603343 0.04647108 0.01957871
v -0.00567343 0.04635208 0.01926781
v -0.00537843 0.04625408 0.01888891
v -0.00310943 0.05219908 0.01798771
v -0.00515943 0.04618108 0.01845671
v -0.00502443 0.04613608 0.01798771
v -0.00674943 0.04097908 -0.01749999
v -0.00306343 0.05218508 -0.01749999
v -0.00259943 0.05376208 -0.01749999
v -0.00057143 0.06142808 -0.01749999
v -0.00033743 0.06243108 -0.01749999
v -0.00497843 0.04612108 -0.01749999
v 0.00316257 0.05072008 -0.01749999
v 0.00532257 0.04433808 -0.01749999
v 0.00024757 0.06035908 -0.01749999
v -0.00500043 0.05445708 -0.01999999
v -0.00300343 0.06200608 -0.01999999
v -0.00545843 0.05290108 -0.01999999
v -0.00735143 0.04690908 -0.01999999
v -0.00677243 0.04098708 -0.01784628
v -0.00680443 0.04099908 -0.01798533
v -0.00688243 0.04102708 -0.01832747
v -0.00701143 0.04107508 -0.01864625
v -0.00693343 0.04104608 -0.01845441
v -0.00726443 0.04116808 -0.01906166
v -0.00715443 0.04112808 -0.01888235
v -0.00748443 0.04124908 -0.01931700
v -0.00779643 0.04136408 -0.01957363
v -0.00743943 0.04123308 -0.01926511
v -0.00785243 0.04138408 -0.01961980
v -0.00814043 0.04149008 -0.01978293
v -0.00820043 0.04151208 -0.01980419
v -0.00858143 0.04165208 -0.01993898
v -0.00863943 0.04167408 -0.01994674
v -0.00903043 0.04181808 -0.01999899
v -0.00088843 0.07118908 -0.01999999
v -0.00057243 0.07256108 -0.01999999
v -0.00057243 0.07254608 -0.01999998
v -0.00052743 0.07060008 -0.01993940
v -0.00053343 0.07088708 -0.01996564
v -0.00053843 0.07110808 -0.01997022
v -0.00052543 0.07052608 -0.01993259
v -0.00045043 0.06731808 -0.01963915
v -0.00044243 0.06697308 -0.01956614
v -0.00048343 0.06874608 -0.01976978
v -0.00040743 0.06547008 -0.01924792
v -0.00039243 0.06479208 -0.01910446
v -0.00037743 0.06414608 -0.01888745
v -0.00037443 0.06403408 -0.01884983
v -0.00035543 0.06322708 -0.01845374
v -0.00034243 0.06264908 -0.01801612
v -0.00034143 0.06262708 -0.01798762
v -0.00035243 0.06308708 -0.01838499
v -0.00034843 0.06290508 -0.01825644
v -0.00033743 0.06244508 -0.01763156
v -0.00034043 0.06256408 -0.01790444
v -0.00033843 0.06248108 -0.01775002
v -0.00909643 0.04184208 -0.01999999
v -0.00264543 0.05377508 -0.01798772
v -0.00061843 0.06143908 -0.01798772
v -0.00075643 0.06147208 -0.01845670
v -0.00098143 0.06152508 -0.01888892
v -0.00278243 0.05381508 -0.01845670
v -0.00128443 0.06159708 -0.01926775
v -0.00300443 0.05387908 -0.01888892
v -0.00165243 0.06168508 -0.01957866
v -0.00330243 0.05396508 -0.01926775
v -0.00207343 0.06178508 -0.01980968
v -0.00366643 0.05407108 -0.01957866
v -0.00252943 0.06189308 -0.01995195
v -0.00408143 0.05419108 -0.01980968
v -0.00453243 0.05432108 -0.01995195
v -0.00310943 0.05219908 -0.01798772
v -0.00324543 0.05223908 -0.01845670
v -0.00346743 0.05230608 -0.01888892
v -0.00376443 0.05239508 -0.01926775
v -0.00412743 0.05250308 -0.01957866
v -0.00454243 0.05262708 -0.01980968
v -0.00499143 0.05276108 -0.01995195
v -0.00502443 0.04613608 -0.01798772
v -0.00515943 0.04618108 -0.01845670
v -0.00537843 0.04625408 -0.01888892
v -0.00567343 0.04635208 -0.01926775
v -0.00603343 0.04647108 -0.01957866
v -0.00644343 0.04660708 -0.01980968
v -0.00688843 0.04675508 -0.01995195
v -0.00004143 0.07066108 -0.01999999
v 0.00265157 0.06104608 -0.01999999
v 0.00554257 0.05148608 -0.01999999
v 0.00767657 0.04517908 -0.01999999
v 0.00878357 0.04182108 -0.01999680
v 0.00890157 0.04186508 -0.01999999
v 0.00838857 0.04167108 -0.01993900
v 0.00807757 0.04155308 -0.01983947
v 0.00844557 0.04169308 -0.01994744
v 0.00800957 0.04152708 -0.01980366
v 0.00766257 0.04139508 -0.01961986
v 0.00760457 0.04137408 -0.01957533
v 0.00739957 0.04129608 -0.01941586
v 0.00725657 0.04124208 -0.01925928
v 0.00707657 0.04117308 -0.01906171
v 0.00689157 0.04110308 -0.01877625
v 0.00696257 0.04113008 -0.01888567
v 0.00669557 0.04102908 -0.01832750
v 0.00660957 0.04099608 -0.01799275
v 0.00675057 0.04104908 -0.01845252
v 0.00660957 0.04099608 -0.01798767
v -0.00050343 0.07053208 -0.01993665
v 0.00218257 0.06091208 -0.01995195
v 0.00173157 0.06078308 -0.01980968
v 0.00507757 0.05133608 -0.01995195
v 0.00131657 0.06066408 -0.01957866
v 0.00463157 0.05119308 -0.01980968
v 0.00095257 0.06056008 -0.01926775
v 0.00421957 0.05106008 -0.01957866
v 0.00065357 0.06047508 -0.01888892
v 0.00385957 0.05094408 -0.01926775
v 0.00043057 0.06041208 -0.01845670
v 0.00356357 0.05084908 -0.01888892
v 0.00029457 0.06037308 -0.01798772
v 0.00334357 0.05077808 -0.01845670
v 0.00320757 0.05073508 -0.01798772
v 0.00721757 0.04501508 -0.01995195
v 0.00677557 0.04485708 -0.01980968
v 0.00636857 0.04471208 -0.01957866
v 0.00601157 0.04458408 -0.01926775
v 0.00571957 0.04448008 -0.01888892
v 0.00550157 0.04440208 -0.01845670
v 0.00536757 0.04435408 -0.01798772
v -0.02424743 -0.00512692 -0.01774503
v -0.02429943 -0.00516292 -0.01798772
v -0.02438643 -0.00522252 -0.01822570
v -0.02450643 -0.00530512 -0.01845670
v -0.02465843 -0.00541002 -0.01867848
v -0.02484043 -0.00553622 -0.01888892
v -0.02529143 -0.00584712 -0.01926775
v -0.02584043 -0.00622592 -0.01957866
v -0.02646643 -0.00665812 -0.01980968
v -0.02714543 -0.00712712 -0.01995195
v -0.02785243 -0.00761482 -0.01999999
v 0.02749157 -0.00761482 -0.01999999
v 0.02678757 -0.00712712 -0.01995195
v 0.02611057 -0.00665812 -0.01980968
v 0.02548557 -0.00622592 -0.01957866
v 0.02493857 -0.00584712 -0.01926775
v 0.02448957 -0.00553622 -0.01888892
v 0.02430757 -0.00541002 -0.01867848
v 0.02415657 -0.00530512 -0.01845670
v 0.02403757 -0.00522252 -0.01822570
v 0.02395057 -0.00516292 -0.01798772
v 0.02389857 -0.00512692 -0.01774503
v 0.00547657 0.07887608 0.02000001
v -0.00566543 0.07887608 0.02000001
v -0.06248643 -0.06547292 0.02000001
v 0.06201457 -0.06547292 0.02000001
v 0.03095857 -0.01817472 0.02000001
v -0.03206343 -0.01817472 0.02000001
v -0.05035743 -0.06547292 0.02000001
v 0.04948057 -0.06547292 0.02000001
v -0.05002343 -0.06596065 0.01995201
v -0.04970243 -0.06642963 0.01980971
v -0.06320243 -0.06596065 0.01995201
v -0.04940543 -0.06686185 0.01957871
v -0.06389143 -0.06642963 0.01980971
v -0.04914643 -0.06724069 0.01926781
v -0.06452643 -0.06686185 0.01957871
v -0.04893343 -0.06755159 0.01888891
v -0.06508243 -0.06724069 0.01926781
v -0.04877443 -0.06778262 0.01845671
v -0.06553843 -0.06755159 0.01888891
v -0.06572443 -0.06767772 0.01867851
v -0.04871843 -0.06786527 0.01822571
v -0.06587843 -0.06778262 0.01845671
v -0.06599943 -0.06786527 0.01822571
v -0.06608643 -0.06792488 0.01798771
v -0.04867743 -0.06792488 0.01798771
v -0.04865243 -0.06796088 0.01774501
v -0.06613943 -0.06796088 0.01774501
v -0.06615743 -0.06797292 0.01750001
v -0.04864443 -0.06797292 0.01750001
v -0.00599743 0.07936408 0.01995201
v -0.00631743 0.07983308 0.01980971
v -0.00661143 0.08026508 0.01957871
v -0.00686943 0.08064408 0.01926781
v -0.00708143 0.08095508 0.01888891
v -0.00723843 0.08118608 0.01845671
v -0.00729543 0.08126808 0.01822571
v -0.00736043 0.08136408 0.01774501
v -0.00733543 0.08132808 0.01798771
v -0.00736843 0.08137608 0.01750001
v -0.03035043 -0.02067472 0.01750001
v -0.03035843 -0.02066272 0.01774501
v -0.03038343 -0.02062672 0.01798771
v -0.03042343 -0.02056712 0.01822571
v -0.03048043 -0.02048442 0.01845671
v -0.03063843 -0.02025342 0.01888891
v -0.03085243 -0.01994252 0.01926781
v -0.03111143 -0.01956362 0.01957871
v -0.03140743 -0.01913142 0.01980971
v -0.03172943 -0.01866242 0.01995201
v -0.06615743 -0.06797292 -0.01749999
v -0.04864443 -0.06797292 -0.01749999
v 0.00580957 0.07936408 0.01995201
v 0.00612957 0.07983308 0.01980971
v 0.00642457 0.08026508 0.01957871
v 0.00668257 0.08064408 0.01926781
v 0.00689457 0.08095508 0.01888891
v 0.00705257 0.08118608 0.01845671
v 0.00710857 0.08126808 0.01822571
v 0.00714957 0.08132808 0.01798771
v 0.00717457 0.08136408 0.01774501
v 0.00718257 0.08137608 0.01750001
v -0.00736843 0.08137608 -0.01749999
v 0.02926057 -0.02066272 0.01774501
v 0.02925257 -0.02067472 0.01750001
v 0.02928557 -0.02062672 0.01798771
v 0.02932657 -0.02056712 0.01822571
v 0.02938257 -0.02048442 0.01845671
v 0.02954057 -0.02025342 0.01888891
v 0.02975257 -0.01994252 0.01926781
v 0.03001057 -0.01956362 0.01957871
v 0.03030557 -0.01913142 0.01980971
v 0.03062557 -0.01866242 0.01995201
v -0.03035043 -0.02067472 -0.01749999
v -0.04865243 -0.06796088 -0.01774503
v -0.06613943 -0.06796088 -0.01774503
v -0.06608643 -0.06792488 -0.01798772
v -0.04867743 -0.06792488 -0.01798772
v -0.04871843 -0.06786527 -0.01822570
v -0.06599943 -0.06786527 -0.01822570
v -0.06587843 -0.06778262 -0.01845670
v -0.04877443 -0.06778262 -0.01845670
v -0.06572443 -0.06767772 -0.01867848
v -0.06553843 -0.06755159 -0.01888892
v -0.04893343 -0.06755159 -0.01888892
v -0.06508243 -0.06724069 -0.01926775
v -0.04914643 -0.06724069 -0.01926775
v -0.06452643 -0.06686185 -0.01957866
v -0.04940543 -0.06686185 -0.01957866
v -0.06389143 -0.06642963 -0.01980968
v -0.04970243 -0.06642963 -0.01980968
v -0.06320243 -0.06596065 -0.01995195
v -0.05002343 -0.06596065 -0.01995195
v -0.06248643 -0.06547292 -0.01999999
v -0.05035743 -0.06547292 -0.01999999
v 0.06272957 -0.06596065 0.01995201
v 0.06341657 -0.06642963 0.01980971
v 0.06405057 -0.06686185 0.01957871
v 0.06460557 -0.06724069 0.01926781
v 0.06506057 -0.06755159 0.01888891
v 0.06524557 -0.06767772 0.01867851
v 0.06539957 -0.06778262 0.01845671
v 0.06552057 -0.06786527 0.01822571
v 0.06560857 -0.06792488 0.01798771
v 0.06566057 -0.06796088 0.01774501
v 0.06567857 -0.06797292 0.01750001
v 0.00718257 0.08137608 -0.01749999
v -0.00736043 0.08136408 -0.01774503
v -0.00733543 0.08132808 -0.01798772
v -0.00729543 0.08126808 -0.01822570
v -0.00723843 0.08118608 -0.01845670
v -0.00708143 0.08095508 -0.01888892
v -0.00686943 0.08064408 -0.01926775
v -0.00661143 0.08026508 -0.01957866
v -0.00631743 0.07983308 -0.01980968
v -0.00599743 0.07936408 -0.01995195
v -0.00566543 0.07887608 -0.01999999
v 0.04780757 -0.06792488 0.01798771
v 0.04777457 -0.06797292 0.01750001
v 0.04778357 -0.06796088 0.01774501
v 0.04790457 -0.06778262 0.01845671
v 0.04784857 -0.06786527 0.01822571
v 0.04806257 -0.06755159 0.01888891
v 0.04827457 -0.06724069 0.01926781
v 0.04853257 -0.06686185 0.01957871
v 0.04882757 -0.06642963 0.01980971
v 0.04914757 -0.06596065 0.01995201
v 0.02925257 -0.02067472 -0.01749999
v -0.03172943 -0.01866242 -0.01995195
v -0.03140743 -0.01913142 -0.01980968
v -0.03111143 -0.01956362 -0.01957866
v -0.03085243 -0.01994252 -0.01926775
v -0.03063843 -0.02025342 -0.01888892
v -0.03048043 -0.02048442 -0.01845670
v -0.03042343 -0.02056712 -0.01822570
v -0.03038343 -0.02062672 -0.01798772
v -0.03035843 -0.02066272 -0.01774503
v -0.03206343 -0.01817472 -0.01999999
v 0.04777457 -0.06797292 -0.01749999
v 0.03095857 -0.01817472 -0.01999999
v 0.03062557 -0.01866242 -0.01995195
v 0.03030557 -0.01913142 -0.01980968
v 0.03001057 -0.01956362 -0.01957866
v 0.02975257 -0.01994252 -0.01926775
v 0.02954057 -0.02025342 -0.01888892
v 0.02938257 -0.02048442 -0.01845670
v 0.02932657 -0.02056712 -0.01822570
v 0.02928557 -0.02062672 -0.01798772
v 0.02926057 -0.02066272 -0.01774503
v 0.06567857 -0.06797292 -0.01749999
v 0.04948057 -0.06547292 -0.01999999
v 0.04914757 -0.06596065 -0.01995195
v 0.04882757 -0.06642963 -0.01980968
v 0.04853257 -0.06686185 -0.01957866
v 0.04827457 -0.06724069 -0.01926775
v 0.04806257 -0.06755159 -0.01888892
v 0.04790457 -0.06778262 -0.01845670
v 0.04784857 -0.06786527 -0.01822570
v 0.04780757 -0.06792488 -0.01798772
v 0.04778357 -0.06796088 -0.01774503
v 0.00547657 0.07887608 -0.01999999
v 0.06201457 -0.06547292 -0.01999999
v 0.00717457 0.08136408 -0.01774503
v 0.00714957 0.08132808 -0.01798772
v 0.00710857 0.08126808 -0.01822570
v 0.00705257 0.08118608 -0.01845670
v 0.00689457 0.08095508 -0.01888892
v 0.00668257 0.08064408 -0.01926775
v 0.00642457 0.08026508 -0.01957866
v 0.00612957 0.07983308 -0.01980968
v 0.00580957 0.07936408 -0.01995195
v 0.06566057 -0.06796088 -0.01774503
v 0.06560857 -0.06792488 -0.01798772
v 0.06552057 -0.06786527 -0.01822570
v 0.06539957 -0.06778262 -0.01845670
v 0.06524557 -0.06767772 -0.01867848
v 0.06506057 -0.06755159 -0.01888892
v 0.06460557 -0.06724069 -0.01926775
v 0.06405057 -0.06686185 -0.01957866
v 0.06341657 -0.06642963 -0.01980968
v 0.06272957 -0.06596065 -0.01995195
vn -0.82139196 0.56869201 0.04364218
vn -0.93649617 -0.34891836 0.03508414
vn -0.93589543 -0.34871336 -0.04998741
vn -0.82150498 0.56854474 -0.04343324
vn 0.82237941 0.56727561 -0.04347982
vn 0.82240518 0.56724126 0.04344051
vn -0.91032321 -0.34092574 0.23469403
vn -0.92592069 -0.34596804 0.15158160
vn -0.80886511 0.56074649 0.17691979
vn -0.85988048 -0.32149164 0.39654593
vn -0.88829387 -0.33224887 0.31708783
vn -0.77130717 0.53549050 0.34399879
vn -0.71873433 0.49724276 0.48597387
vn -0.82541420 -0.30870505 0.47264425
vn -0.65560170 0.45349943 0.60375879
vn -0.58730269 0.40668356 0.69977427
vn -0.78567963 -0.29446556 0.54405657
vn -0.73964800 -0.27665142 0.61350211
vn -0.49622422 0.34359844 0.79730899
vn -0.37754130 0.26156998 0.88828133
vn -0.69258224 -0.25873052 0.67334119
vn -0.57262685 -0.21436897 0.79129289
vn -0.63675659 -0.23806574 0.73339331
vn -0.26267627 0.18243176 0.94748078
vn -0.36874908 -0.13781193 0.91925621
vn -0.50858447 -0.18952635 0.83989380
vn -0.29412787 -0.11086666 0.94931416
vn -0.16007092 0.11086839 0.98085957
vn -0.12776566 -0.04863359 0.99061128
vn -0.21247110 -0.08023505 0.97386774
vn -0.06432580 0.04453305 0.99693480
vn -0.01196459 -0.00464052 0.99991765
vn -0.07498795 -0.02836133 0.99678104
vn -0.00887488 0.00614679 0.99994173
vn -0.04792792 -0.01332104 0.99876197
vn -0.95863136 -0.28021633 0.05004732
vn -0.95120691 -0.30472791 0.04843885
vn -0.04709607 -0.01508104 0.99877651
vn -0.94181803 -0.33262792 0.04834737
vn -0.04648318 -0.01577137 0.99879456
vn 0.00006958 -0.00300566 0.99999548
vn 0.00052163 -0.03762955 0.99929162
vn -0.07213565 -0.02026225 0.99718899
vn 0.00000000 0.00000000 1.00000000
vn 0.00199973 -0.04469452 0.99899870
vn 0.00218519 -0.11773637 0.99304248
vn 0.00684240 -0.03710659 0.99928789
vn 0.00400237 -0.12809591 0.99175371
vn 0.00503331 -0.21793457 0.97595040
vn 0.00848397 -0.23460040 0.97205487
vn 0.00402945 -0.34133222 0.93993408
vn 0.01109742 -0.36764986 0.92989808
vn 0.00890261 -0.47450775 0.88020631
vn 0.01308292 -0.75182928 0.65922801
vn 0.00439806 -0.79216580 0.61029010
vn 0.01434617 -0.64163591 0.76687519
vn 0.01219895 -0.50613925 0.86236549
vn 0.02275751 -0.97741741 0.21008880
vn 0.02771442 -0.99777533 0.06063251
vn 0.01937354 -0.84333234 0.53704305
vn 0.01998836 -0.92485457 0.37979532
vn 0.00273242 -0.03721515 0.99930354
vn -0.14259519 -0.04037182 0.98895739
vn -0.18827877 -0.05347340 0.98065881
vn -0.93411514 -0.29923332 0.19464926
vn -0.88690446 -0.25886322 0.38260988
vn -0.94131572 -0.27528839 0.19529727
vn -0.79813994 -0.23178345 0.55610167
vn -0.87980186 -0.28182445 0.38278411
vn -0.67971577 -0.19638229 0.70669688
vn -0.79210025 -0.25370700 0.55516660
vn -0.53481974 -0.15476635 0.83067155
vn -0.67421183 -0.21593502 0.70626516
vn -0.36801286 -0.10629605 0.92372490
vn -0.52978982 -0.16968436 0.83098133
vn -0.36514107 -0.11695941 0.92357593
vn -0.18682085 -0.05983127 0.98057034
vn -0.92506484 -0.32609324 0.19472608
vn -0.87135866 -0.30693101 0.38278903
vn -0.78471949 -0.27618565 0.55492054
vn -0.66757583 -0.23503655 0.70647034
vn -0.52436078 -0.18479467 0.83120196
vn -0.36164435 -0.12725027 0.92359122
vn -0.18508134 -0.06451318 0.98060336
vn 0.06415855 0.04433783 0.99695428
vn 0.15994238 0.11038270 0.98093532
vn 0.26276963 0.18143604 0.94764607
vn 0.37711953 0.26049639 0.88877584
vn 0.49560492 0.34278523 0.79804388
vn 0.58801506 0.40486672 0.70022941
vn 0.65479808 0.45206285 0.60570509
vn 0.77239733 0.53396584 0.34392273
vn 0.71838919 0.49614789 0.48760050
vn 0.80988570 0.55922107 0.17707891
vn 0.00883709 0.00609870 0.99994235
vn 0.00680998 -0.00267486 0.99997323
vn 0.11705926 -0.04323561 0.99218336
vn 0.06533476 -0.02404665 0.99757362
vn 0.41707950 -0.15081257 0.89627019
vn 0.34470255 -0.12469297 0.93039336
vn 0.19499044 -0.07088495 0.97824028
vn 0.55331130 -0.20068582 0.80843788
vn 0.48833188 -0.17645143 0.85463259
vn 0.67313797 -0.24479793 0.69782466
vn 0.61490850 -0.22327939 0.75632919
vn 0.77274102 -0.28009478 0.56957724
vn 0.72488948 -0.26317467 0.63661160
vn 0.85233098 -0.30923872 0.42178585
vn 0.81563152 -0.29574804 0.49727087
vn 0.93908668 -0.33997618 0.05032301
vn 0.93181592 -0.33735283 0.13383632
vn 0.88286608 -0.31985016 0.34386531
vn 0.93921000 -0.33968000 0.05002069
vn 0.04872543 -0.01134055 0.99874783
vn 0.96198628 -0.26869878 0.04881977
vn 0.96878272 -0.24325118 0.04784254
vn 0.04767490 -0.01331267 0.99877419
vn 0.95534226 -0.29139788 0.04907583
vn 0.04720822 -0.01440325 0.99878122
vn 0.94844336 -0.31307111 0.04941328
vn 0.04684043 -0.01516974 0.99878719
vn 0.07262363 -0.01691861 0.99721591
vn 0.18863463 -0.05267636 0.98063356
vn 0.19087755 -0.04570328 0.98054932
vn 0.37204957 -0.09101866 0.92373953
vn 0.54086146 -0.13253767 0.83060379
vn 0.36931313 -0.10320729 0.92355621
vn 0.68724281 -0.16794038 0.70674844
vn 0.53556198 -0.14957557 0.83114410
vn 0.80709788 -0.19867807 0.55598565
vn 0.68178202 -0.19041360 0.70633982
vn 0.89664581 -0.22277931 0.38261688
vn 0.80138887 -0.22390635 0.55465469
vn 0.95102050 -0.23883800 0.19625600
vn 0.88977857 -0.24843824 0.38284792
vn 0.18727667 -0.05715757 0.98064288
vn 0.36629623 -0.11174429 0.92376419
vn 0.53150983 -0.16210455 0.83139606
vn 0.67715527 -0.20658753 0.70624524
vn 0.79548907 -0.24256319 0.55530194
vn 0.94465349 -0.26378688 0.19505449
vn 0.88367164 -0.26945840 0.38277486
vn 0.18615386 -0.06092021 0.98063014
vn 0.36444733 -0.12039162 0.92340890
vn 0.52764898 -0.17390316 0.83147113
vn 0.67212148 -0.22075444 0.70676742
vn 0.79024140 -0.25984879 0.55497490
vn 0.93819749 -0.28624515 0.19454867
vn 0.87773777 -0.28885935 0.38227828
vn 0.93149775 -0.30704909 0.19501999
vn 0.93978864 -0.33995092 -0.03508097
vn 0.95534240 -0.29139792 -0.04907284
vn 0.96198642 -0.26869882 -0.04881679
vn 0.96876986 -0.24331275 -0.04778969
vn 0.02768528 -0.99749259 -0.06513107
vn 0.94860417 -0.31263268 -0.04910128
vn -0.95120704 -0.30472796 -0.04843590
vn -0.94159104 -0.33320900 -0.04876547
vn -0.95863150 -0.28021637 -0.05004427
vn 0.04771434 -0.01332369 -0.99877216
vn 0.04846969 -0.01163117 -0.99875693
vn 0.04724728 -0.01441516 -0.99877920
vn 0.04687917 -0.01518225 -0.99878518
vn 0.92888605 -0.33656555 -0.15457791
vn 0.91325933 -0.33136424 -0.23697073
vn 0.89201213 -0.32341511 -0.31578002
vn 0.82900632 -0.30080335 -0.47145080
vn 0.86333523 -0.31286526 -0.39593890
vn 0.74249466 -0.26938341 -0.61329786
vn 0.78835836 -0.28641852 -0.54447730
vn 0.63571599 -0.22980522 -0.73692248
vn 0.57599525 -0.20828405 -0.79047279
vn 0.69231605 -0.25087667 -0.67657918
vn 0.51114880 -0.18491330 -0.83936522
vn 0.37106840 -0.13460526 -0.91879795
vn 0.29652561 -0.10821837 -0.94887373
vn 0.20785843 -0.07608170 -0.97519559
vn 0.11681479 -0.04314954 -0.99221592
vn 0.06539009 -0.02406728 -0.99756950
vn 0.04222274 -0.01412821 -0.99900833
vn 0.00000082 -0.00005293 -1.00000000
vn 0.00029207 -0.00227012 -0.99999738
vn 0.00319424 -0.06545999 -0.99785008
vn -0.02796290 -0.05966769 -0.99782656
vn 0.00021965 -0.02071098 -0.99978548
vn 0.09537734 -0.08821636 -0.99152460
vn 0.00406321 -0.10316405 -0.99465606
vn 0.00199806 -0.20472459 -0.97881758
vn 0.01384140 -0.08947106 -0.99589324
vn 0.00569204 -0.20646742 -0.97843692
vn 0.00956215 -0.22066028 -0.97530385
vn 0.00612808 -0.31675956 -0.94848607
vn 0.00262400 -0.33538122 -0.94207884
vn 0.00959548 -0.43873933 -0.89856315
vn 0.01414105 -0.72331396 -0.69037450
vn 0.00440453 -0.77931507 -0.62661680
vn 0.01457644 -0.46594614 -0.88469301
vn 0.01440898 -0.60483296 -0.79622200
vn 0.02232481 -0.97607199 -0.21629857
vn 0.02220578 -0.82670435 -0.56219820
vn 0.01911218 -0.91721807 -0.39792680
vn 0.00681003 -0.00267509 -0.99997323
vn 0.94460248 -0.26391590 -0.19512703
vn 0.95100621 -0.23889326 -0.19625801
vn 0.89664035 -0.22232253 -0.38289524
vn 0.80742942 -0.19930101 -0.55528087
vn 0.88981932 -0.24849555 -0.38271600
vn 0.68655301 -0.16823285 -0.70734905
vn 0.80134952 -0.22377634 -0.55476400
vn 0.54100890 -0.13155806 -0.83066349
vn 0.68175836 -0.19043389 -0.70635718
vn 0.37262928 -0.09104673 -0.92350307
vn 0.53563725 -0.14956600 -0.83109731
vn 0.19067879 -0.04638590 -0.98055594
vn 0.36926097 -0.10314852 -0.92358363
vn 0.18865090 -0.05271866 -0.98062816
vn 0.93822238 -0.28611254 -0.19462370
vn 0.88371913 -0.26946491 -0.38266062
vn 0.79542150 -0.24264177 -0.55536439
vn 0.67713585 -0.20650166 -0.70628897
vn 0.53156006 -0.16216543 -0.83135208
vn 0.36622151 -0.11177922 -0.92378959
vn 0.18731416 -0.05713391 -0.98063710
vn 0.93157774 -0.30661889 -0.19531457
vn 0.87778295 -0.28874888 -0.38225801
vn 0.79023501 -0.25977865 -0.55501683
vn 0.67147287 -0.22139267 -0.70718418
vn 0.52827584 -0.17443209 -0.83096214
vn 0.36431183 -0.11973884 -0.92354724
vn 0.18615961 -0.06092538 -0.98062873
vn -0.05519465 -0.02205640 -0.99823197
vn -0.04777044 -0.01350364 -0.99876706
vn -0.04713503 -0.01509352 -0.99877449
vn -0.04652140 -0.01578339 -0.99879259
vn -0.07518775 -0.02825397 -0.99676904
vn -0.01188502 -0.00442922 -0.99991956
vn -0.19967681 -0.07423277 -0.97704589
vn -0.34185948 -0.12737325 -0.93107902
vn -0.12730579 -0.04807217 -0.99069789
vn -0.41436947 -0.15536098 -0.89675019
vn -0.48376031 -0.18094330 -0.85629171
vn -0.54959196 -0.20534969 -0.80980256
vn -0.61241689 -0.22923937 -0.75656782
vn -0.67003926 -0.25142743 -0.69844946
vn -0.72302450 -0.27055183 -0.63563927
vn -0.81206265 -0.30358244 -0.49838936
vn -0.76987954 -0.28766086 -0.56968125
vn -0.87920282 -0.32828227 -0.34530155
vn -0.92849538 -0.34642532 -0.13373792
vn -0.84849427 -0.31758948 -0.42331359
vn -0.93574094 -0.34907900 -0.05032635
vn -0.14511633 -0.07572445 -0.98651257
vn -0.18886510 -0.05325703 -0.98055783
vn -0.36823424 -0.10532305 -0.92374813
vn -0.18682915 -0.05985089 -0.98056756
vn -0.53497599 -0.15395720 -0.83072130
vn -0.36513146 -0.11694214 -0.92358191
vn -0.67912796 -0.19658287 -0.70720605
vn -0.52981998 -0.16969490 -0.83095995
vn -0.79835743 -0.23231652 -0.55556678
vn -0.67416707 -0.21592296 -0.70631157
vn -0.88691507 -0.25858018 -0.38277663
vn -0.79209046 -0.25370189 -0.55518290
vn -0.94129953 -0.27534214 -0.19529953
vn -0.87981166 -0.28181257 -0.38277031
vn -0.93412370 -0.29919772 -0.19466289
vn -0.18510192 -0.06450431 -0.98060006
vn -0.36161765 -0.12721102 -0.92360708
vn -0.52436972 -0.18430508 -0.83130502
vn -0.66780611 -0.23478277 -0.70633707
vn -0.78473281 -0.27625232 -0.55486853
vn -0.87127131 -0.30707834 -0.38286970
vn -0.92494114 -0.32669368 -0.19430678
vn 0.80982974 0.55929898 -0.17708878
vn 0.77235028 0.53403174 -0.34392607
vn 0.71841382 0.49614608 -0.48756604
vn 0.65458019 0.45220133 -0.60583721
vn 0.58802358 0.40501844 -0.70013451
vn 0.49566550 0.34271475 -0.79803654
vn 0.37707954 0.26048984 -0.88879473
vn 0.26280004 0.18144037 -0.94763681
vn 0.15992203 0.11036795 -0.98094029
vn 0.06418376 0.04435528 -0.99695188
vn 0.00884444 0.00610377 -0.99994226
vn -0.00887309 0.00613741 -0.99994180
vn -0.06443595 0.04442197 -0.99693264
vn -0.16015436 0.11070462 -0.98086445
vn -0.26279035 0.18227749 -0.94747884
vn -0.37771394 0.26138431 -0.88826259
vn -0.49617829 0.34353585 -0.79736455
vn -0.58747332 0.40663123 -0.69966145
vn -0.65551912 0.45361625 -0.60376069
vn -0.71860304 0.49723182 -0.48617916
vn -0.77146097 0.53531567 -0.34392602
vn -0.80896138 0.56056056 -0.17706875
vn 0.03151411 0.04619287 0.99843532
vn -0.03151208 0.04623202 0.99843357
vn -0.03700777 -0.02519037 0.99899743
vn 0.03699562 -0.02525733 0.99899619
vn -0.01414707 -0.02072986 0.99968502
vn 0.01414302 -0.02063832 0.99968697
vn 0.03164186 -0.04613267 0.99843406
vn -0.03151986 -0.04621536 0.99843409
vn 0.10895986 -0.15883824 0.98127374
vn 0.19899704 -0.29072515 0.93588411
vn -0.12084649 -0.08241154 0.98924439
vn 0.28804070 -0.41975913 0.86071763
vn -0.21766012 -0.14839385 0.96467784
vn 0.37209369 -0.54290650 0.75286042
vn -0.32264971 -0.21958392 0.92069542
vn 0.44767784 -0.65365265 0.61018257
vn -0.43810444 -0.29804976 0.84807478
vn 0.50267774 -0.73201287 0.45986112
vn -0.53750070 -0.36799085 0.75873298
vn -0.61222482 -0.41693495 0.67182290
vn 0.53186174 -0.77646229 0.33797839
vn -0.67704198 -0.46065790 0.57394115
vn -0.73589585 -0.50068523 0.45581970
vn -0.78325434 -0.53379013 0.31871734
vn 0.55018908 -0.80275906 0.22993448
vn 0.56189827 -0.81901191 0.11614572
vn -0.81508416 -0.55531325 0.16512115
vn -0.82585447 -0.56223555 0.04307646
vn 0.56499857 -0.82457672 0.02915222
vn -0.10836165 0.15929987 0.98126515
vn -0.19880444 0.29177439 0.93559847
vn -0.28687606 0.42117153 0.86041657
vn -0.37060318 0.54432082 0.75257433
vn -0.44652514 0.65536346 0.60919130
vn -0.49919621 0.73470995 0.45935220
vn -0.53079234 0.77740756 0.33748627
vn -0.55940318 0.82073901 0.11599812
vn -0.54725521 0.80484813 0.22963280
vn -0.56258274 0.82622909 0.02908875
vn 0.56512282 -0.82446829 0.02980326
vn 0.56082573 -0.81904830 0.12097260
vn 0.54956817 -0.80067768 0.23851642
vn 0.52873797 -0.77267321 0.35130084
vn 0.49440669 -0.72089478 0.48566732
vn 0.43051998 -0.62883793 0.64746846
vn 0.34820410 -0.50741903 0.78821307
vn 0.25855909 -0.37720927 0.88930330
vn 0.16654633 -0.24317644 0.95557707
vn 0.07441532 -0.10851587 0.99130554
vn -0.82585470 -0.56223574 -0.04306962
vn 0.56499861 -0.82457686 -0.02914746
vn 0.10859527 0.15916262 0.98126160
vn 0.19881462 0.29151369 0.93567757
vn 0.28734638 0.42075186 0.86046495
vn 0.37117947 0.54395891 0.75255200
vn 0.44662368 0.65491763 0.60959838
vn 0.50084919 0.73402943 0.45864025
vn 0.53046019 0.77751356 0.33776419
vn 0.54818538 0.80394504 0.23057574
vn 0.56008884 0.82027176 0.11599455
vn 0.56327755 0.82575558 0.02908813
vn -0.56258283 0.82622919 -0.02908406
vn -0.55915364 -0.82017800 0.12105887
vn -0.56348070 -0.82559490 0.02970789
vn -0.54719348 -0.80198574 0.23957914
vn -0.52812990 -0.77315229 0.35116143
vn -0.49268913 -0.72260876 0.48486493
vn -0.43000994 -0.63000340 0.64667393
vn -0.34745586 -0.50890033 0.78758802
vn -0.25799194 -0.37821024 0.88904284
vn -0.16643192 -0.24389989 0.95541261
vn -0.07432355 -0.10894900 0.99126491
vn 0.56522698 -0.82440050 -0.02970321
vn 0.56181398 -0.81908266 -0.11605452
vn -0.81508459 -0.55531350 -0.16511822
vn -0.78324954 -0.53378687 -0.31873460
vn 0.55005862 -0.80282052 -0.23003200
vn 0.53179575 -0.77653619 -0.33791244
vn -0.73588888 -0.50068042 -0.45583623
vn -0.67703490 -0.46065308 -0.57395338
vn 0.50252670 -0.73207515 -0.45992705
vn -0.61222497 -0.41693486 -0.67182282
vn -0.53752676 -0.36800735 -0.75870651
vn 0.44767005 -0.65364127 -0.61020047
vn -0.43806327 -0.29802170 -0.84810591
vn 0.37207154 -0.54287418 -0.75289468
vn -0.32266081 -0.21959148 -0.92068973
vn 0.28805060 -0.41977357 -0.86070727
vn -0.21766920 -0.14840005 -0.96467484
vn 0.19899986 -0.29072929 -0.93588222
vn -0.12083107 -0.08240102 -0.98924715
vn 0.10895273 -0.15882786 -0.98127622
vn -0.03703848 -0.02521128 -0.99899577
vn 0.03166805 -0.04617086 -0.99843146
vn 0.12107267 -0.08250711 0.98920877
vn 0.21771305 -0.14877860 0.96460663
vn 0.32275708 -0.22006425 0.92054310
vn 0.43831633 -0.29862736 0.84776205
vn 0.53850421 -0.36844233 0.75780173
vn 0.61195823 -0.41799359 0.67140783
vn 0.67654481 -0.46137607 0.57395056
vn 0.73422529 -0.50172456 0.45736822
vn 0.78360023 -0.53362501 0.31814308
vn 0.81456454 -0.55648213 0.16374449
vn 0.82538636 -0.56292252 0.04307665
vn 0.56327764 0.82575568 -0.02908344
vn -0.55940327 0.82073916 -0.11599663
vn -0.54725333 0.80484543 -0.22964674
vn -0.53078995 0.77740396 -0.33749832
vn -0.49919843 0.73471321 -0.45934456
vn -0.44651735 0.65535203 -0.60920930
vn -0.37058116 0.54428849 -0.75260856
vn -0.28688593 0.42118604 -0.86040617
vn -0.19880724 0.29177851 -0.93559659
vn -0.10835463 0.15928954 -0.98126761
vn -0.03153816 0.04627029 -0.99843097
vn -0.54911773 -0.80379436 0.22887626
vn -0.56374413 -0.82539451 0.03027297
vn -0.55914421 -0.82089074 0.11617293
vn -0.50087558 -0.73338716 0.45963782
vn -0.53014364 -0.77766190 0.33791965
vn -0.44666655 -0.65490206 0.60958370
vn -0.37123487 -0.54402775 0.75247490
vn -0.28734798 -0.42079767 0.86044202
vn -0.19881961 -0.29141757 0.93570645
vn -0.10861150 -0.15917032 0.98125856
vn -0.56337639 -0.82566283 -0.02979812
vn 0.07443275 -0.10854128 -0.99130145
vn 0.16653338 -0.24315753 -0.95558414
vn 0.25857256 -0.37722892 -0.88929105
vn 0.34819374 -0.50740392 -0.78822736
vn 0.43050127 -0.62881067 -0.64750737
vn 0.49441021 -0.72089991 -0.48565611
vn 0.52879750 -0.77258778 -0.35139909
vn 0.54970171 -0.80060948 -0.23843761
vn 0.56091337 -0.81897431 -0.12106724
vn 0.01415476 -0.02065545 -0.99968645
vn -0.56374780 -0.82539206 -0.03027163
vn -0.01415881 -0.02074706 -0.99968449
vn -0.07434087 -0.10897440 -0.99126082
vn -0.16641900 -0.24388096 -0.95541970
vn -0.25800536 -0.37822991 -0.88903058
vn -0.34744552 -0.50888517 -0.78760237
vn -0.42999137 -0.62997616 -0.64671281
vn -0.49269263 -0.72261389 -0.48485373
vn -0.52807039 -0.77322597 -0.35108867
vn -0.54706517 -0.80204246 -0.23968225
vn -0.55906586 -0.82025204 -0.12096260
vn 0.82538658 -0.56292271 -0.04306982
vn -0.03154595 -0.04625361 -0.99843150
vn -0.10860443 -0.15915997 -0.98126102
vn -0.19882242 -0.29142168 -0.93570457
vn -0.28735787 -0.42081215 -0.86043163
vn -0.37121282 -0.54399543 -0.75250914
vn -0.44665876 -0.65489065 -0.60960166
vn -0.50102553 -0.73333391 -0.45955934
vn -0.53019768 -0.77758582 -0.33800992
vn -0.54923742 -0.80373250 -0.22880629
vn -0.55923013 -0.82082073 -0.11625400
vn 0.03154019 0.04623111 -0.99843272
vn 0.03702632 -0.02527829 -0.99899452
vn 0.56008892 0.82027191 -0.11599306
vn 0.54818350 0.80394230 -0.23058973
vn 0.53045773 0.77750996 -0.33777633
vn 0.50085142 0.73403270 -0.45863260
vn 0.44661590 0.65490622 -0.60961634
vn 0.37115742 0.54392658 -0.75258624
vn 0.28735627 0.42076635 -0.86045456
vn 0.19881743 0.29151781 -0.93567569
vn 0.10858821 0.15915226 -0.98126406
vn 0.81456496 -0.55648238 -0.16374152
vn 0.78359547 -0.53362172 -0.31816032
vn 0.73421819 -0.50171979 -0.45738485
vn 0.67653772 -0.46137123 -0.57396280
vn 0.61195838 -0.41799354 -0.67140773
vn 0.53853010 -0.36845890 -0.75777528
vn 0.43827521 -0.29859927 -0.84779321
vn 0.32276818 -0.22007182 -0.92053739
vn 0.21772212 -0.14878480 -0.96460363
vn 0.12105723 -0.08249659 -0.98921153
f 1//1 2//2 3//3
f 3//3 4//4 1//1
f 4//4 5//5 6//6
f 6//6 1//1 4//4
f 7//7 8//8 1//1
f 1//1 9//9 7//7
f 8//8 2//2 1//1
f 10//10 11//11 12//12
f 12//12 13//13 10//10
f 11//11 7//7 12//12
f 14//14 10//10 15//15
f 16//16 17//17 14//14
f 15//15 16//16 14//14
f 18//18 17//17 19//19
f 20//20 21//21 18//18
f 22//22 23//23 20//20
f 20//20 24//24 22//22
f 24//24 25//25 26//26
f 27//27 25//25 24//24
f 24//24 28//28 27//27
f 29//29 30//30 28//28
f 28//28 31//31 29//29
f 32//32 33//33 31//31
f 31//31 34//34 32//32
f 33//33 29//29 31//31
f 30//30 27//27 28//28
f 26//26 22//22 24//24
f 23//23 21//21 20//20
f 19//19 20//20 18//18
f 16//16 19//19 17//17
f 13//13 15//15 10//10
f 9//9 12//12 7//7
f 63//63 64//64 35//35
f 36//36 37//37 65//65
f 66//66 67//67 65//65
f 68//68 66//66 69//69
f 70//70 68//68 71//71
f 72//72 70//70 73//73
f 74//74 72//72 75//75
f 64//64 74//74 76//76
f 64//64 77//77 38//38
f 37//37 39//39 78//78
f 69//69 65//65 78//78
f 71//71 69//69 79//79
f 73//73 71//71 80//80
f 75//75 73//73 81//81
f 76//76 75//75 82//82
f 77//77 76//76 83//83
f 77//77 84//84 40//40
f 63//63 41//41 42//42
f 43//43 44//44 41//41
f 41//41 63//63 43//43
f 64//64 45//45 46//46
f 63//63 47//47 45//45
f 45//45 64//64 63//63
f 74//74 46//46 48//48
f 72//72 48//48 49//49
f 70//70 50//50 51//51
f 70//70 49//49 50//50
f 68//68 52//52 53//53
f 68//68 51//51 52//52
f 66//66 54//54 55//55
f 66//66 56//56 54//54
f 66//66 57//57 56//56
f 66//66 53//53 57//57
f 67//67 58//58 59//59
f 67//67 55//55 60//60
f 60//60 61//61 67//67
f 61//61 58//58 67//67
f 39//39 2//2 8//8
f 8//8 78//78 39//39
f 78//78 7//7 11//11
f 11//11 79//79 78//78
f 80//80 79//79 14//14
f 79//79 10//10 14//14
f 81//81 80//80 18//18
f 80//80 17//17 18//18
f 82//82 81//81 23//23
f 81//81 21//21 23//23
f 23//23 22//22 82//82
f 82//82 26//26 25//25
f 25//25 83//83 82//82
f 83//83 27//27 30//30
f 30//30 84//84 83//83
f 84//84 29//29 33//33
f 33//33 40//40 84//84
f 33//33 32//32 40//40
f 30//30 29//29 84//84
f 25//25 27//27 83//83
f 22//22 26//26 82//82
f 18//18 21//21 81//81
f 14//14 17//17 80//80
f 11//11 10//10 79//79
f 8//8 7//7 78//78
f 59//59 36//36 67//67
f 55//55 67//67 66//66
f 53//53 66//66 68//68
f 51//51 68//68 70//70
f 49//49 70//70 72//72
f 48//48 72//72 74//74
f 46//46 74//74 64//64
f 47//47 63//63 62//62
f 42//42 62//62 63//63
f 40//40 38//38 77//77
f 83//83 84//84 77//77
f 82//82 83//83 76//76
f 81//81 82//82 75//75
f 80//80 81//81 73//73
f 79//79 80//80 71//71
f 78//78 79//79 69//69
f 78//78 65//65 37//37
f 38//38 35//35 64//64
f 76//76 77//77 64//64
f 75//75 76//76 74//74
f 73//73 75//75 72//72
f 71//71 73//73 70//70
f 69//69 71//71 68//68
f 65//65 69//69 66//66
f 65//65 67//67 36//36
f 35//35 43//43 63//63
f 34//34 31//31 85//85
f 31//31 28//28 86//86
f 28//28 24//24 87//87
f 24//24 20//20 88//88
f 20//20 19//19 89//89
f 90//90 19//19 16//16
f 16//16 91//91 90//90
f 16//16 15//15 91//91
f 13//13 12//12 92//92
f 93//93 15//15 13//13
f 92//92 93//93 13//13
f 9//9 1//1 6//6
f 94//94 12//12 9//9
f 6//6 94//94 9//9
f 94//94 92//92 12//12
f 93//93 91//91 15//15
f 90//90 89//89 19//19
f 89//89 88//88 20//20
f 88//88 87//87 24//24
f 87//87 86//86 28//28
f 86//86 85//85 31//31
f 85//85 95//95 34//34
f 96//96 95//95 85//85
f 85//85 97//97 98//98
f 97//97 85//85 86//86
f 86//86 99//99 100//100
f 100//100 101//101 86//86
f 99//99 86//86 87//87
f 87//87 102//102 103//103
f 102//102 87//87 88//88
f 88//88 104//104 105//105
f 104//104 88//88 89//89
f 89//89 106//106 107//107
f 106//106 89//89 90//90
f 90//90 108//108 109//109
f 90//90 109//109 106//106
f 108//108 91//91 93//93
f 93//93 110//110 111//111
f 111//111 112//112 93//93
f 93//93 112//112 108//108
f 110//110 92//92 94//94
f 94//94 113//113 110//110
f 94//94 6//6 113//113
f 93//93 92//92 110//110
f 90//90 91//91 108//108
f 89//89 107//107 104//104
f 88//88 105//105 102//102
f 87//87 103//103 99//99
f 86//86 101//101 97//97
f 85//85 98//98 96//96
f 123//123 124//124 114//114
f 125//125 124//124 123//123
f 126//126 125//125 127//127
f 128//128 126//126 129//129
f 130//130 128//128 131//131
f 132//132 130//130 133//133
f 134//134 132//132 135//135
f 115//115 116//116 134//134
f 136//136 123//123 117//117
f 127//127 123//123 136//136
f 129//129 127//127 137//137
f 131//131 129//129 138//138
f 133//133 131//131 139//139
f 135//135 133//133 140//140
f 141//141 135//135 142//142
f 118//118 115//115 141//141
f 143//143 136//136 119//119
f 137//137 136//136 143//143
f 138//138 137//137 144//144
f 139//139 138//138 145//145
f 140//140 139//139 146//146
f 142//142 140//140 147//147
f 148//148 142//142 149//149
f 120//120 118//118 148//148
f 143//143 121//121 98//98
f 121//121 96//96 98//98
f 144//144 143//143 101//101
f 101//101 100//100 144//144
f 143//143 97//97 101//101
f 145//145 144//144 99//99
f 145//145 102//102 105//105
f 105//105 146//146 145//145
f 145//145 103//103 102//102
f 146//146 104//104 107//107
f 107//107 147//147 146//146
f 149//149 147//147 109//109
f 147//147 106//106 109//109
f 150//150 149//149 112//112
f 112//112 111//111 150//150
f 149//149 108//108 112//112
f 120//120 150//150 110//110
f 134//134 61//61 60//60
f 134//134 58//58 61//61
f 116//116 59//59 58//58
f 58//58 134//134 116//116
f 132//132 134//134 55//55
f 55//55 54//54 132//132
f 54//54 56//56 132//132
f 56//56 57//57 132//132
f 130//130 132//132 53//53
f 53//53 52//52 130//130
f 128//128 130//130 51//51
f 51//51 50//50 128//128
f 126//126 128//128 49//49
f 125//125 126//126 48//48
f 124//124 45//45 47//47
f 124//124 125//125 46//46
f 46//46 45//45 124//124
f 114//114 124//124 62//62
f 62//62 122//122 114//114
f 122//122 42//42 41//41
f 41//41 44//44 122//122
f 62//62 42//42 122//122
f 47//47 62//62 124//124
f 48//48 46//46 125//125
f 49//49 48//48 126//126
f 50//50 49//49 128//128
f 52//52 51//51 130//130
f 57//57 53//53 132//132
f 60//60 55//55 134//134
f 110//110 113//113 120//120
f 111//111 110//110 150//150
f 109//109 108//108 149//149
f 107//107 106//106 147//147
f 105//105 104//104 146//146
f 99//99 103//103 145//145
f 100//100 99//99 144//144
f 98//98 97//97 143//143
f 148//148 150//150 120//120
f 149//149 150//150 148//148
f 147//147 149//149 142//142
f 146//146 147//147 140//140
f 145//145 146//146 139//139
f 144//144 145//145 138//138
f 143//143 144//144 137//137
f 119//119 121//121 143//143
f 141//141 148//148 118//118
f 142//142 148//148 141//141
f 140//140 142//142 135//135
f 139//139 140//140 133//133
f 138//138 139//139 131//131
f 137//137 138//138 129//129
f 136//136 137//137 127//127
f 117//117 119//119 136//136
f 134//134 141//141 115//115
f 135//135 141//141 134//134
f 133//133 135//135 132//132
f 131//131 133//133 130//130
f 129//129 131//131 128//128
f 127//127 129//129 126//126
f 123//123 127//127 125//125
f 114//114 117//117 123//123
f 6//6 5//5 151//151
f 151//151 113//113 6//6
f 152//152 153//153 115//115
f 116//116 115//115 153//153
f 153//153 154//154 116//116
f 59//59 116//116 154//154
f 154//154 155//155 59//59
f 151//151 156//156 120//120
f 118//118 120//120 156//156
f 156//156 152//152 118//118
f 120//120 113//113 151//151
f 115//115 118//118 152//152
f 157//157 158//158 39//39
f 2//2 39//39 158//158
f 158//158 3//3 2//2
f 155//155 159//159 36//36
f 37//37 36//36 159//159
f 159//159 157//157 37//37
f 36//36 59//59 155//155
f 39//39 37//37 157//157
f 153//153 203//203 204//204
f 205//205 204//204 203//203
f 206//206 205//205 207//207
f 208//208 206//206 209//209
f 210//210 208//208 211//211
f 212//212 210//210 213//213
f 214//214 212//212 215//215
f 216//216 160//160 161//161
f 152//152 217//217 203//203
f 207//207 203//203 217//217
f 209//209 207//207 218//218
f 211//211 209//209 219//219
f 213//213 211//211 220//220
f 215//215 213//213 221//221
f 216//216 215//215 222//222
f 223//223 162//162 160//160
f 156//156 224//224 217//217
f 218//218 217//217 224//224
f 219//219 218//218 225//225
f 220//220 219//219 226//226
f 221//221 220//220 227//227
f 222//222 221//221 228//228
f 223//223 222//222 229//229
f 230//230 163//163 162//162
f 156//156 151//151 164//164
f 164//164 224//224 156//156
f 224//224 165//165 166//166
f 166//166 225//225 224//224
f 226//226 225//225 167//167
f 225//225 168//168 167//167
f 227//227 226//226 169//169
f 226//226 170//170 169//169
f 227//227 171//171 172//172
f 227//227 173//173 171//171
f 172//172 228//228 227//227
f 228//228 174//174 175//175
f 175//175 229//229 228//228
f 229//229 176//176 177//177
f 177//177 230//230 229//229
f 230//230 178//178 179//179
f 179//179 163//163 230//230
f 180//180 181//181 182//182
f 161//161 180//180 183//183
f 180//180 184//184 183//183
f 180//180 185//185 184//184
f 214//214 183//183 186//186
f 186//186 212//212 214//214
f 212//212 187//187 188//188
f 212//212 189//189 187//187
f 210//210 188//188 190//190
f 208//208 191//191 192//192
f 208//208 190//190 191//191
f 206//206 193//193 194//194
f 206//206 192//192 193//193
f 205//205 195//195 196//196
f 205//205 197//197 198//198
f 205//205 194//194 197//197
f 198//198 195//195 205//205
f 154//154 204//204 199//199
f 204//204 196//196 200//200
f 200//200 201//201 204//204
f 201//201 199//199 204//204
f 199//199 155//155 154//154
f 196//196 204//204 205//205
f 194//194 205//205 206//206
f 192//192 206//206 208//208
f 190//190 208//208 210//210
f 188//188 210//210 212//212
f 186//186 189//189 212//212
f 183//183 214//214 161//161
f 182//182 185//185 180//180
f 179//179 202//202 163//163
f 177//177 178//178 230//230
f 175//175 176//176 229//229
f 172//172 174//174 228//228
f 169//169 173//173 227//227
f 167//167 170//170 226//226
f 166//166 168//168 225//225
f 164//164 165//165 224//224
f 162//162 223//223 230//230
f 229//229 230//230 223//223
f 228//228 229//229 222//222
f 227//227 228//228 221//221
f 226//226 227//227 220//220
f 225//225 226//226 219//219
f 224//224 225//225 218//218
f 217//217 152//152 156//156
f 160//160 216//216 223//223
f 222//222 223//223 216//216
f 221//221 222//222 215//215
f 220//220 221//221 213//213
f 219//219 220//220 211//211
f 218//218 219//219 209//209
f 217//217 218//218 207//207
f 203//203 153//153 152//152
f 161//161 214//214 216//216
f 215//215 216//216 214//214
f 213//213 215//215 212//212
f 211//211 213//213 210//210
f 209//209 211//211 208//208
f 207//207 209//209 206//206
f 203//203 207//207 205//205
f 204//204 154//154 153//153
f 252//252 231//231 232//232
f 253//253 232//232 233//233
f 254//254 253//253 255//255
f 256//256 254//254 257//257
f 258//258 256//256 259//259
f 260//260 258//258 261//261
f 262//262 260//260 263//263
f 264//264 262//262 265//265
f 159//159 264//264 266//266
f 255//255 233//233 234//234
f 257//257 255//255 267//267
f 259//259 257//257 268//268
f 261//261 259//259 269//269
f 263//263 261//261 270//270
f 265//265 263//263 271//271
f 266//266 265//265 272//272
f 157//157 266//266 273//273
f 264//264 201//201 200//200
f 264//264 199//199 201//201
f 264//264 159//159 155//155
f 155//155 199//199 264//264
f 262//262 195//195 198//198
f 198//198 197//197 262//262
f 262//262 264//264 196//196
f 196//196 195//195 262//262
f 260//260 262//262 194//194
f 194//194 193//193 260//260
f 258//258 260//260 192//192
f 192//192 191//191 258//258
f 256//256 258//258 190//190
f 254//254 256//256 188//188
f 188//188 187//187 254//254
f 252//252 253//253 189//189
f 253//253 254//254 189//189
f 231//231 184//184 185//185
f 185//185 182//182 231//231
f 231//231 252//252 183//183
f 183//183 184//184 231//231
f 267//267 234//234 235//235
f 234//234 236//236 235//235
f 268//268 267//267 237//237
f 237//237 238//238 268//268
f 267//267 239//239 237//237
f 268//268 240//240 241//241
f 241//241 269//269 268//268
f 269//269 242//242 243//243
f 243//243 270//270 269//269
f 270//270 244//244 245//245
f 245//245 271//271 270//270
f 272//272 271//271 246//246
f 271//271 247//247 246//246
f 273//273 272//272 248//248
f 248//248 249//249 273//273
f 272//272 250//250 248//248
f 3//3 158//158 273//273
f 273//273 251//251 3//3
f 249//249 251//251 273//273
f 246//246 250//250 272//272
f 245//245 247//247 271//271
f 243//243 244//244 270//270
f 241//241 242//242 269//269
f 238//238 240//240 268//268
f 235//235 239//239 267//267
f 182//182 181//181 231//231
f 183//183 252//252 186//186
f 189//189 186//186 252//252
f 187//187 189//189 254//254
f 190//190 188//188 256//256
f 191//191 190//190 258//258
f 193//193 192//192 260//260
f 197//197 194//194 262//262
f 200//200 196//196 264//264
f 273//273 158//158 157//157
f 272//272 273//273 266//266
f 271//271 272//272 265//265
f 270//270 271//271 263//263
f 269//269 270//270 261//261
f 268//268 269//269 259//259
f 267//267 268//268 257//257
f 234//234 267//267 255//255
f 266//266 157//157 159//159
f 265//265 266//266 264//264
f 263//263 265//265 262//262
f 261//261 263//263 260//260
f 259//259 261//261 258//258
f 257//257 259//259 256//256
f 255//255 257//257 254//254
f 233//233 255//255 253//253
f 232//232 253//253 252//252
f 164//164 151//151 5//5
f 274//274 165//165 164//164
f 5//5 274//274 164//164
f 166//166 165//165 275//275
f 276//276 168//168 166//166
f 275//275 276//276 166//166
f 170//170 167//167 277//277
f 277//277 278//278 170//170
f 167//167 168//168 277//277
f 173//173 169//169 279//279
f 279//279 280//280 173//173
f 172//172 171//171 280//280
f 280//280 281//281 172//172
f 176//176 175//175 281//281
f 281//281 282//282 176//176
f 175//175 174//174 281//281
f 178//178 177//177 282//282
f 282//282 283//283 178//178
f 202//202 179//179 283//283
f 283//283 284//284 202//202
f 179//179 178//178 283//283
f 177//177 176//176 282//282
f 174//174 172//172 281//281
f 171//171 173//173 280//280
f 169//169 170//170 279//279
f 278//278 279//279 170//170
f 276//276 277//277 168//168
f 274//274 275//275 165//165
f 235//235 285//285 286//286
f 286//286 239//239 235//235
f 286//286 238//238 237//237
f 238//238 286//286 287//287
f 287//287 240//240 238//238
f 241//241 287//287 288//288
f 288//288 242//242 241//241
f 243//243 288//288 289//289
f 289//289 244//244 243//243
f 245//245 289//289 290//290
f 290//290 247//247 245//245
f 246//246 290//290 291//291
f 291//291 250//250 246//246
f 246//246 247//247 290//290
f 292//292 249//249 248//248
f 249//249 292//292 293//293
f 293//293 251//251 249//249
f 248//248 250//250 292//292
f 251//251 294//294 295//295
f 295//295 3//3 251//251
f 295//295 4//4 3//3
f 293//293 294//294 251//251
f 291//291 292//292 250//250
f 245//245 244//244 289//289
f 243//243 242//242 288//288
f 241//241 240//240 287//287
f 237//237 239//239 286//286
f 235//235 236//236 285//285
f 295//295 274//274 5//5
f 5//5 4//4 295//295
f 294//294 275//275 274//274
f 293//293 276//276 275//275
f 275//275 294//294 293//293
f 292//292 277//277 276//276
f 291//291 279//279 278//278
f 278//278 292//292 291//291
f 291//291 290//290 279//279
f 289//289 280//280 279//279
f 288//288 281//281 280//280
f 287//287 282//282 281//281
f 286//286 283//283 282//282
f 285//285 284//284 283//283
f 283//283 286//286 285//285
f 282//282 287//287 286//286
f 281//281 288//288 287//287
f 280//280 289//289 288//288
f 279//279 290//290 289//289
f 278//278 277//277 292//292
f 293//293 292//292 276//276
f 295//295 294//294 274//274
f 296//296 35//35 38//38
f 297//297 298//298 95//95
f 38//38 40//40 296//296
f 297//297 117//117 114//114
f 95//95 96//96 297//297
f 296//296 32//32 34//34
f 296//296 43//43 35//35
f 297//297 119//119 117//117
f 96//96 121//121 297//297
f 299//299 34//34 300//300
f 300//300 34//34 95//95
f 40//40 32//32 296//296
f 121//121 119//119 297//297
f 95//95 301//301 300//300
f 298//298 302//302 301//301
f 296//296 44//44 43//43
f 114//114 122//122 297//297
f 301//301 95//95 298//298
f 296//296 297//297 44//44
f 300//300 303//303 299//299
f 122//122 44//44 297//297
f 34//34 299//299 296//296
f 304//304 302//302 298//298
f 305//305 304//304 306//306
f 307//307 305//305 308//308
f 309//309 307//307 310//310
f 311//311 309//309 312//312
f 313//313 311//311 314//314
f 314//314 315//315 313//313
f 316//316 313//313 317//317
f 317//317 318//318 316//316
f 319//319 320//320 316//316
f 321//321 320//320 319//319
f 319//319 322//322 321//321
f 323//323 324//324 321//321
f 322//322 323//323 321//321
f 318//318 319//319 316//316
f 315//315 317//317 313//313
f 312//312 314//314 311//311
f 310//310 312//312 309//309
f 308//308 310//310 307//307
f 306//306 308//308 305//305
f 298//298 306//306 304//304
f 325//325 306//306 298//298
f 326//326 308//308 306//306
f 327//327 310//310 308//308
f 328//328 312//312 310//310
f 329//329 314//314 312//312
f 330//330 315//315 314//314
f 330//330 317//317 315//315
f 331//331 318//318 317//317
f 331//331 319//319 318//318
f 317//317 330//330 331//331
f 332//332 322//322 319//319
f 332//332 323//323 322//322
f 319//319 333//333 332//332
f 332//332 334//334 323//323
f 331//331 333//333 319//319
f 314//314 329//329 330//330
f 312//312 328//328 329//329
f 310//310 327//327 328//328
f 308//308 326//326 327//327
f 306//306 325//325 326//326
f 298//298 297//297 325//325
f 335//335 336//336 320//320
f 320//320 321//321 335//335
f 321//321 324//324 335//335
f 337//337 338//338 313//313
f 313//313 316//316 337//337
f 316//316 320//320 337//337
f 339//339 340//340 311//311
f 340//340 341//341 309//309
f 341//341 342//342 307//307
f 342//342 343//343 305//305
f 343//343 344//344 304//304
f 302//302 304//304 344//344
f 344//344 301//301 302//302
f 304//304 305//305 343//343
f 305//305 307//307 342//342
f 307//307 309//309 341//341
f 309//309 311//311 340//340
f 311//311 313//313 339//339
f 338//338 339//339 313//313
f 336//336 337//337 320//320
f 324//324 323//323 345//345
f 345//345 346//346 324//324
f 325//325 297//297 296//296
f 326//326 325//325 347//347
f 327//327 326//326 348//348
f 328//328 327//327 349//349
f 329//329 328//328 350//350
f 330//330 329//329 351//351
f 331//331 330//330 352//352
f 352//352 353//353 331//331
f 354//354 333//333 331//331
f 332//332 333//333 354//354
f 354//354 355//355 332//332
f 356//356 334//334 332//332
f 355//355 356//356 332//332
f 353//353 354//354 331//331
f 351//351 352//352 330//330
f 350//350 351//351 329//329
f 349//349 350//350 328//328
f 348//348 349//349 327//327
f 347//347 348//348 326//326
f 296//296 347//347 325//325
f 357//357 345//345 323//323
f 323//323 334//334 357//357
f 358//358 337//337 336//336
f 336//336 359//359 358//358
f 358//358 360//360 337//337
f 361//361 339//339 338//338
f 338//338 360//360 361//361
f 361//361 362//362 339//339
f 363//363 340//340 339//339
f 364//364 341//341 340//340
f 365//365 342//342 341//341
f 366//366 343//343 342//342
f 367//367 344//344 343//343
f 300//300 301//301 344//344
f 344//344 367//367 300//300
f 343//343 366//366 367//367
f 342//342 365//365 366//366
f 341//341 364//364 365//365
f 340//340 363//363 364//364
f 339//339 362//362 363//363
f 338//338 337//337 360//360
f 336//336 335//335 359//359
f 368//368 335//335 324//324
f 324//324 346//346 368//368
f 369//369 370//370 371//371
f 369//369 345//345 370//370
f 371//371 372//372 369//369
f 373//373 374//374 375//375
f 373//373 371//371 374//374
f 375//375 376//376 373//373
f 376//376 377//377 378//378
f 376//376 375//375 377//377
f 379//379 378//378 380//380
f 381//381 380//380 382//382
f 383//383 382//382 384//384
f 385//385 384//384 386//386
f 387//387 386//386 388//388
f 388//388 389//389 387//387
f 386//386 387//387 385//385
f 384//384 385//385 383//383
f 382//382 383//383 381//381
f 380//380 381//381 379//379
f 378//378 379//379 376//376
f 373//373 372//372 371//371
f 369//369 346//346 345//345
f 347//347 296//296 299//299
f 348//348 347//347 390//390
f 349//349 348//348 391//391
f 350//350 349//349 392//392
f 351//351 350//350 393//393
f 352//352 351//351 394//394
f 394//394 395//395 352//352
f 353//353 352//352 396//396
f 396//396 397//397 353//353
f 398//398 354//354 353//353
f 355//355 354//354 398//398
f 398//398 399//399 355//355
f 400//400 356//356 355//355
f 399//399 400//400 355//355
f 397//397 398//398 353//353
f 395//395 396//396 352//352
f 393//393 394//394 351//351
f 392//392 393//393 350//350
f 391//391 392//392 349//349
f 390//390 391//391 348//348
f 299//299 390//390 347//347
f 401//401 357//357 334//334
f 334//334 356//356 401//401
f 402//402 403//403 371//371
f 371//371 370//370 402//402
f 345//345 357//357 402//402
f 404//404 405//405 375//375
f 375//375 374//374 404//404
f 371//371 403//403 404//404
f 405//405 406//406 378//378
f 378//378 377//377 405//405
f 406//406 407//407 380//380
f 407//407 408//408 382//382
f 408//408 409//409 384//384
f 409//409 410//410 386//386
f 410//410 411//411 388//388
f 388//388 386//386 410//410
f 386//386 384//384 409//409
f 384//384 382//382 408//408
f 382//382 380//380 407//407
f 380//380 378//378 406//406
f 377//377 375//375 405//405
f 374//374 371//371 404//404
f 370//370 345//345 402//402
f 412//412 360//360 358//358
f 358//358 413//413 414//414
f 358//358 414//414 412//412
f 415//415 362//362 361//361
f 361//361 412//412 416//416
f 361//361 416//416 415//415
f 417//417 363//363 362//362
f 418//418 364//364 363//363
f 419//419 365//365 364//364
f 365//365 419//419 420//420
f 366//366 420//420 421//421
f 367//367 421//421 303//303
f 303//303 300//300 367//367
f 421//421 367//367 366//366
f 420//420 366//366 365//365
f 364//364 418//418 419//419
f 363//363 417//417 418//418
f 362//362 415//415 417//417
f 361//361 360//360 412//412
f 358//358 359//359 413//413
f 368//368 422//422 359//359
f 359//359 335//335 368//368
f 423//423 387//387 389//389
f 387//387 423//423 424//424
f 385//385 424//424 425//425
f 426//426 381//381 383//383
f 381//381 426//426 427//427
f 428//428 376//376 379//379
f 429//429 373//373 376//376
f 429//429 372//372 373//373
f 376//376 428//428 429//429
f 372//372 430//430 431//431
f 431//431 346//346 369//369
f 431//431 369//369 372//372
f 431//431 368//368 346//346
f 429//429 430//430 372//372
f 379//379 427//427 428//428
f 427//427 379//379 381//381
f 383//383 425//425 426//426
f 425//425 383//383 385//385
f 424//424 385//385 387//387
f 389//389 432//432 423//423
f 421//421 390//390 299//299
f 420//420 391//391 390//390
f 419//419 392//392 391//391
f 418//418 393//393 392//392
f 417//417 394//394 393//393
f 415//415 395//395 394//394
f 415//415 396//396 395//395
f 416//416 397//397 396//396
f 416//416 398//398 397//397
f 396//396 415//415 416//416
f 414//414 399//399 398//398
f 414//414 400//400 399//399
f 398//398 412//412 414//414
f 414//414 413//413 400//400
f 416//416 412//412 398//398
f 394//394 417//417 415//415
f 393//393 418//418 417//417
f 392//392 419//419 418//418
f 391//391 420//420 419//419
f 390//390 421//421 420//420
f 299//299 303//303 421//421
f 433//433 413//413 359//359
f 359//359 422//422 433//433
f 434//434 435//435 423//423
f 435//435 436//436 424//424
f 436//436 437//437 425//425
f 437//437 438//438 426//426
f 438//438 439//439 427//427
f 439//439 440//440 428//428
f 429//429 440//440 441//441
f 441//441 430//430 429//429
f 441//441 442//442 430//430
f 431//431 442//442 443//443
f 443//443 368//368 431//431
f 443//443 422//422 368//368
f 431//431 430//430 442//442
f 429//429 428//428 440//440
f 428//428 427//427 439//439
f 427//427 426//426 438//438
f 426//426 425//425 437//437
f 425//425 424//424 436//436
f 424//424 423//423 435//435
f 423//423 432//432 434//434
f 433//433 444//444 400//400
f 400//400 413//413 433//433
f 435//435 434//434 445//445
f 436//436 435//435 446//446
f 447//447 448//448 437//437
f 448//448 449//449 438//438
f 449//449 450//450 439//439
f 450//450 451//451 440//440
f 442//442 441//441 451//451
f 451//451 452//452 442//442
f 452//452 453//453 442//442
f 422//422 443//443 453//453
f 453//453 454//454 422//422
f 454//454 433//433 422//422
f 443//443 442//442 453//453
f 441//441 440//440 451//451
f 440//440 439//439 450//450
f 439//439 438//438 449//449
f 438//438 437//437 448//448
f 437//437 436//436 447//447
f 446//446 447//447 436//436
f 445//445 446//446 435//435
f 455//455 234//234 233//233
f 455//455 236//236 234//234
f 411//411 202//202 284//284
f 233//233 232//232 455//455
f 455//455 456//456 285//285
f 411//411 163//163 202//202
f 411//411 180//180 161//161
f 285//285 236//236 455//455
f 434//434 432//432 284//284
f 456//456 445//445 434//434
f 411//411 162//162 163//163
f 161//161 160//160 411//411
f 232//232 231//231 455//455
f 388//388 284//284 432//432
f 434//434 285//285 456//456
f 160//160 162//162 411//411
f 231//231 181//181 455//455
f 284//284 285//285 434//434
f 411//411 181//181 180//180
f 432//432 389//389 388//388
f 181//181 411//411 455//455
f 284//284 388//388 411//411
f 400//400 444//444 401//401
f 401//401 356//356 400//400
f 402//402 457//457 458//458
f 402//402 401//401 457//457
f 458//458 403//403 402//402
f 404//404 459//459 460//460
f 404//404 458//458 459//459
f 460//460 405//405 404//404
f 405//405 460//460 461//461
f 406//406 461//461 462//462
f 407//407 462//462 463//463
f 408//408 463//463 464//464
f 409//409 464//464 465//465
f 410//410 465//465 455//455
f 455//455 411//411 410//410
f 465//465 410//410 409//409
f 464//464 409//409 408//408
f 463//463 408//408 407//407
f 462//462 407//407 406//406
f 461//461 406//406 405//405
f 404//404 403//403 458//458
f 402//402 357//357 401//401
f 457//457 466//466 467//467
f 457//457 444//444 466//466
f 467//467 458//458 457//457
f 459//459 468//468 469//469
f 459//459 467//467 468//468
f 469//469 460//460 459//459
f 460//460 470//470 471//471
f 460//460 469//469 470//470
f 461//461 471//471 472//472
f 462//462 472//472 473//473
f 463//463 473//473 474//474
f 464//464 474//474 475//475
f 465//465 475//475 456//456
f 456//456 455//455 465//465
f 475//475 465//465 464//464
f 474//474 464//464 463//463
f 473//473 463//463 462//462
f 472//472 462//462 461//461
f 471//471 461//461 460//460
f 459//459 458//458 467//467
f 457//457 401//401 444//444
f 454//454 453//453 467//467
f 467//467 466//466 454//454
f 444//444 433//433 454//454
f 452//452 451//451 469//469
f 469//469 468//468 452//452
f 467//467 453//453 452//452
f 451//451 450//450 471//471
f 471//471 470//470 451//451
f 450//450 449//449 472//472
f 449//449 448//448 473//473
f 448//448 447//447 474//474
f 447//447 446//446 475//475
f 446//446 445//445 456//456
f 456//456 475//475 446//446
f 475//475 474//474 447//447
f 474//474 473//473 448//448
f 473//473 472//472 449//449
f 472//472 471//471 450//450
f 470//470 469//469 451//451
f 468//468 467//467 452//452
f 466//466 444//444 454//454

