# https://github.com/mikedh/trimesh
v -0.00280521 0.05791740 0.01965947
v -0.00415764 0.04935184 0.01845671
v -0.00265924 0.05787879 -0.01957866
v -0.01610723 0.05706546 -0.01930109
v -0.03629436 0.00721180 0.01857816
v -0.01982341 0.00871146 0.01931352
v -0.01695287 0.05650758 0.01845671
v -0.03584468 0.00703513 -0.01926775
v -0.00624509 0.04484009 0.01931199
v -0.03478652 0.00750935 0.01980971
v -0.01561005 0.01788137 -0.01815722
v -0.01579249 0.05694156 0.01957871
v -0.01704949 0.05654563 -0.01814164
v -0.00885157 0.03599555 0.01845297
v -0.00358752 0.05365527 0.01942044
v -0.00437840 0.04942109 -0.01888892
v -0.01971732 0.00867119 -0.01918655
v -0.01983716 0.04770075 0.01926781
v -0.01935532 0.04977396 -0.01888892
v -0.03304695 0.01587605 -0.01818461
v -0.01570421 0.01791691 0.01845461
v -0.00876781 0.03596374 -0.01819846
v -0.00668652 0.04272654 -0.01900873
v -0.03377675 0.01163758 0.01946356
v -0.01739620 0.05441923 -0.01903702
v -0.03534762 0.00910234 -0.01890863
v -0.03557780 0.00919293 0.01845671
v -0.01774828 0.01330958 -0.01895862
v -0.02876396 0.02502304 0.01926781
v -0.01345724 0.02471206 -0.01900080
vn 0.60567901 0.55442855 0.57075557
vn 0.92164606 -0.25306648 0.29415284
vn 0.61776375 0.53810802 -0.57341757
vn -0.33856587 0.67397420 -0.65660638
vn -0.76449730 -0.54115121 0.35028452
vn 0.47305017 -0.64873655 0.59612450
vn -0.72539075 0.63988028 0.25369565
vn -0.62114483 -0.53993319 -0.56802400
vn 0.57510683 -0.20421548 0.79217938
vn -0.27869242 -0.53608000 0.79683673
vn 0.90887214 -0.36162926 -0.20778766
vn -0.29665809 0.67215178 0.67838482
vn -0.77341743 0.60672361 -0.18360815
vn 0.88768939 -0.32792020 0.32322730
vn 0.71513678 -0.17217145 0.67744843
vn 0.86523644 -0.24476833 -0.43755498
vn 0.46794936 -0.64477683 -0.60438914
vn -0.68825502 0.27136801 0.67280341
vn -0.79078238 0.31156833 -0.52686660
vn -0.91362475 0.34751129 -0.21101117
vn 0.88940972 -0.35427417 0.28886011
vn 0.91306715 -0.33251525 -0.23609741
vn 0.70762913 -0.24636099 -0.66224412
vn -0.60689180 0.23459223 0.75937397
vn -0.76540327 0.30708534 -0.56555850
vn -0.89624910 0.29783920 -0.32867819
vn -0.91091093 0.34953996 0.21923296
vn 0.81341688 -0.32097176 -0.48510835
vn -0.68260525 0.26865544 0.67961337
vn 0.74196939 -0.28006988 -0.60913240
f 1//1 2//2 3//3
f 1//1 3//3 4//4
f 8//8 4//4 3//3
f 8//8 6//6 5//5
f 9//9 1//1 6//6
f 10//10 6//6 1//1
f 10//10 5//5 6//6
f 12//12 1//1 4//4
f 12//12 4//4 7//7
f 12//12 10//10 1//1
f 13//13 7//7 4//4
f 14//14 9//9 6//6
f 14//14 2//2 9//9
f 15//15 9//9 2//2
f 15//15 2//2 1//1
f 15//15 1//1 9//9
f 16//16 3//3 2//2
f 17//17 8//8 3//3
f 17//17 6//6 8//8
f 18//18 12//12 7//7
f 18//18 7//7 5//5
f 20//20 13//13 19//19
f 21//21 14//14 6//6
f 21//21 11//11 14//14
f 21//21 17//17 11//11
f 21//21 6//6 17//17
f 22//22 14//14 11//11
f 22//22 16//16 2//2
f 22//22 2//2 14//14
f 23//23 17//17 3//3
f 23//23 3//3 16//16
f 23//23 16//16 22//22
f 24//24 5//5 10//10
f 24//24 10//10 12//12
f 24//24 12//12 18//18
f 25//25 19//19 13//13
f 25//25 13//13 4//4
f 25//25 4//4 8//8
f 25//25 8//8 19//19
f 26//26 8//8 5//5
f 26//26 5//5 20//20
f 26//26 20//20 19//19
f 26//26 19//19 8//8
f 27//27 20//20 5//5
f 27//27 5//5 7//7
f 27//27 7//7 13//13
f 27//27 13//13 20//20
f 28//28 22//22 11//11
f 28//28 11//11 17//17
f 29//29 24//24 18//18
f 29//29 18//18 5//5
f 29//29 5//5 24//24
f 30//30 23//23 22//22
f 30//30 22//22 28//28
f 30//30 28//28 17//17
f 30//30 17//17 23//23

