# https://github.com/mikedh/trimesh
v 0.01191137 0.05761601 0.02000001
v 0.01191137 0.04630169 0.02000001
v 0.01191196 0.04630184 -0.01999902
v 0.00193177 0.05801946 -0.01943384
v -0.00255236 0.05558771 0.01888891
v 0.01191137 0.05761601 -0.01999999
v 0.00210054 0.05807047 0.01957871
v 0.00510401 0.04706102 -0.01918757
v -0.00219793 0.05775671 0.01914787
v 0.00516633 0.04708210 0.01926781
v -0.00234716 0.05553343 -0.01849177
v -0.00191199 0.05768114 -0.01873247
f 1 2 3
f 6 1 3
f 6 3 4
f 7 2 1
f 7 6 4
f 7 1 6
f 8 3 2
f 8 4 3
f 9 2 7
f 9 7 4
f 10 8 2
f 10 5 8
f 10 9 5
f 10 2 9
f 11 8 5
f 11 5 9
f 12 4 8
f 12 8 11
f 12 11 9
f 12 9 4

