# https://github.com/mikedh/trimesh
v 0.01984158 0.04586253 0.01960735
v 0.03506156 0.00715099 0.01957871
v 0.02297351 0.04079088 -0.01818530
v 0.00510401 0.04706102 -0.01918757
v 0.01888070 0.00875076 0.01846342
v 0.02077082 0.04534019 -0.01897206
v 0.02288747 0.04075719 0.01845671
v 0.00616375 0.04665394 0.01980779
v 0.03539242 0.00728057 -0.01928680
v 0.02315119 0.03859761 0.01926781
v 0.02103681 0.04544437 0.01848582
v 0.02001892 0.00832818 0.01957715
v 0.00470476 0.04692610 0.01855848
v 0.03438179 0.01141047 0.01845671
v 0.01912852 0.00884446 -0.01894212
v 0.03416634 0.01132609 -0.01888892
v 0.02127039 0.04327299 0.01930571
v 0.00698818 0.04247155 0.01941428
v 0.03464560 0.00925092 0.01926781
v 0.03187148 0.01810213 -0.01814360
v 0.00769058 0.03821581 -0.01811368
v 0.00779593 0.03825421 0.01845455
v 0.01863936 0.01092295 0.01926685
v 0.00555958 0.04495271 -0.01888892
v 0.01448392 0.02011350 -0.01809800
v 0.00534037 0.04487836 0.01845671
v 0.01184090 0.02902215 0.01926581
f 6 4 1
f 8 2 1
f 9 4 6
f 11 6 1
f 11 7 3
f 11 3 6
f 12 2 8
f 12 9 2
f 13 8 1
f 13 1 4
f 14 2 9
f 14 7 11
f 15 4 9
f 15 12 5
f 15 9 12
f 16 9 6
f 16 6 3
f 16 14 9
f 17 11 1
f 17 10 11
f 17 1 2
f 17 2 10
f 18 12 8
f 18 8 13
f 19 10 2
f 19 2 14
f 19 14 11
f 19 11 10
f 20 3 7
f 20 7 14
f 20 16 3
f 20 14 16
f 23 5 12
f 24 13 4
f 24 4 15
f 24 15 21
f 25 21 15
f 25 15 5
f 25 22 21
f 25 5 22
f 26 18 13
f 26 21 22
f 26 24 21
f 26 13 24
f 27 22 5
f 27 5 23
f 27 26 22
f 27 18 26
f 27 23 12
f 27 12 18

