# https://github.com/mikedh/trimesh
v -0.02080132 0.00822428 0.01979677
v -0.01524300 -0.00511482 0.01281153
v -0.01971732 0.00867119 -0.01918655
v -0.03584468 0.00703513 -0.01926775
v -0.04519034 -0.01774057 0.01957871
v -0.03584468 0.00703513 0.01926781
v -0.01934145 0.00852841 0.01861071
v -0.02429445 -0.01705849 0.02000001
v -0.04450463 -0.01348476 0.01845671
v -0.01524300 -0.00580891 -0.01922119
v -0.01750586 -0.00594857 0.01935108
v -0.03751394 0.00453861 -0.01816893
v -0.04477148 -0.01564258 0.01926781
v -0.01524300 -0.00649677 -0.01972343
v -0.03742388 0.00450314 0.01845671
v -0.04551660 -0.01761214 -0.01929081
v -0.04198093 -0.00679883 -0.01815324
v -0.02429445 -0.01705849 -0.01999999
v -0.04428934 -0.01356949 -0.01888892
v -0.03982599 -0.00223062 -0.01888892
vn 0.17292975 0.61033323 0.77303858
vn 0.98056298 -0.15673303 0.11802966
vn 0.44537396 0.68480330 -0.57678980
vn -0.41975958 0.66445496 -0.61830534
vn -0.62338444 -0.53327644 0.57184620
vn -0.43348047 0.66738837 0.60554723
vn 0.58687513 0.72370280 0.36308655
vn 0.36245018 -0.68129242 0.63597996
vn -0.92012640 0.29092760 0.26216129
vn 0.97027242 0.18640154 -0.15435642
vn 0.68682431 -0.15764531 0.70952120
vn -0.87929708 0.42300611 -0.21886633
vn -0.78880441 0.24584843 0.56333485
vn 0.73524990 -0.21333150 -0.64334847
vn -0.87520438 0.40461299 0.26515206
vn -0.66373437 -0.49863906 -0.55750854
vn -0.91517478 0.34831816 -0.20280430
vn 0.32753879 -0.69390977 -0.64125469
vn -0.88690756 0.31255825 -0.34015043
vn -0.78963247 0.31106230 -0.52888638
f 6//6 3//3 4//4
f 6//6 5//5 1//1
f 7//7 6//6 1//1
f 7//7 3//3 6//6
f 8//8 1//1 5//5
f 10//10 7//7 2//2
f 10//10 3//3 7//7
f 11//11 7//7 1//1
f 11//11 1//1 8//8
f 11//11 8//8 2//2
f 11//11 2//2 7//7
f 12//12 6//6 4//4
f 13//13 9//9 5//5
f 13//13 5//5 6//6
f 13//13 6//6 9//9
f 14//14 10//10 2//2
f 14//14 2//2 8//8
f 14//14 4//4 3//3
f 14//14 3//3 10//10
f 15//15 9//9 6//6
f 15//15 6//6 12//12
f 16//16 5//5 9//9
f 17//17 15//15 12//12
f 17//17 9//9 15//15
f 18//18 16//16 4//4
f 18//18 4//4 14//14
f 18//18 14//14 8//8
f 18//18 8//8 5//5
f 18//18 5//5 16//16
f 19//19 16//16 9//9
f 19//19 9//9 17//17
f 19//19 4//4 16//16
f 19//19 17//17 12//12
f 20//20 19//19 12//12
f 20//20 12//12 4//4
f 20//20 4//4 19//19

