# https://github.com/mikedh/trimesh
v -0.00303654 0.05645242 0.01957871
v -0.00219417 0.05660957 0.01873012
v -0.01668518 0.05570807 0.01926781
v -0.01668518 0.05570807 -0.01926775
v -0.02042409 0.00777521 -0.01949456
v -0.01956304 0.00799272 0.01864411
v -0.00210996 0.05658728 -0.01856708
v -0.03569910 0.00701835 -0.01938404
v -0.00662296 0.04384067 0.01934119
v -0.03560410 0.00698095 0.01946790
v -0.00303654 0.05645242 -0.01957866
v -0.00692712 0.04107167 -0.01845906
v -0.03502718 0.01106201 0.01778470
v -0.00348667 0.05373576 0.01935972
v -0.02051791 0.00781084 0.01957771
v -0.01949915 0.00796945 -0.01851095
v -0.00376443 0.05239508 -0.01926775
v -0.00694324 0.04107886 0.01848405
v -0.01920428 0.05126098 0.01778048
v -0.03486689 0.01099890 -0.01845670
v -0.03199340 0.01817859 0.01854976
v -0.01955502 0.00942605 0.01931577
v -0.00958576 0.03530799 -0.01915813
v -0.00406720 0.04963810 -0.01845670
v -0.01545134 0.01811983 0.01786733
v -0.00407461 0.04964044 0.01847126
v -0.01786981 0.05417304 -0.01846069
v -0.03534142 0.00831360 -0.01926775
v -0.03534142 0.00831360 0.01926781
v -0.01785393 0.05416655 0.01849697
v -0.01952139 0.00941355 -0.01928371
v -0.00240802 0.05523010 -0.01845670
v -0.01559228 0.01817350 -0.01842745
v -0.01840342 0.01096998 0.01858567
v -0.00512663 0.04808299 0.01926781
v -0.00247039 0.05524660 0.01857742
v -0.01678689 0.01664581 -0.01929127
vn 0.32122143 0.54385553 0.77526638
vn 0.74542626 0.58276331 0.32361491
vn -0.39751715 0.67703560 0.61935685
vn -0.39540884 0.67701338 -0.62072920
vn 0.26631804 -0.67207127 -0.69093770
vn 0.66415121 -0.70193279 0.25728105
vn 0.75677931 0.57959725 -0.30224511
vn -0.63025381 -0.52864480 -0.56860779
vn 0.54558108 -0.18969079 0.81630796
vn -0.61286542 -0.54303574 0.57402802
vn 0.34080296 0.55724981 -0.75718293
vn 0.88336621 -0.31069510 -0.35090269
vn -0.94285899 0.28258512 0.17652924
vn 0.64097468 -0.19388783 0.74267016
vn 0.25492054 -0.67141318 0.69585908
vn 0.67642901 -0.69788841 -0.23536261
vn 0.63501414 -0.19950657 -0.74629362
vn 0.89032820 -0.32147760 0.32244046
vn -0.91761531 0.37884073 0.12025741
vn -0.91390564 0.30480280 -0.26808905
vn -0.84123538 0.33052926 0.42787082
vn 0.66986847 -0.25847246 0.69603752
vn 0.60025091 -0.22361891 -0.76791499
vn 0.90739517 -0.29177885 -0.30248820
vn 0.92370243 -0.35457314 0.14509208
vn 0.91308405 -0.28215677 0.29438933
vn -0.86173924 0.44001777 -0.25256653
vn -0.75009471 0.26392386 -0.60638447
vn -0.81953923 0.24719239 0.51696361
vn -0.85448526 0.44704884 0.26457945
vn 0.68294823 -0.26497899 -0.68071128
vn 0.92700610 -0.24674738 -0.28244543
vn 0.91491128 -0.34756231 -0.20527494
vn 0.87187788 -0.33248375 0.35956018
vn 0.65485829 -0.21354136 0.72495566
vn 0.92404324 -0.24249734 0.29553193
vn 0.62174858 -0.23459171 -0.74725861
f 1//1 2//2 3//3
f 3//3 2//2 4//4
f 7//7 4//4 2//2
f 10//10 1//1 3//3
f 10//10 8//8 5//5
f 11//11 4//4 7//7
f 11//11 8//8 4//4
f 11//11 5//5 8//8
f 13//13 8//8 10//10
f 14//14 2//2 1//1
f 14//14 1//1 9//9
f 15//15 10//10 5//5
f 15//15 5//5 6//6
f 15//15 9//9 1//1
f 15//15 1//1 10//10
f 16//16 6//6 5//5
f 17//17 11//11 7//7
f 20//20 8//8 13//13
f 20//20 13//13 19//19
f 22//22 15//15 6//6
f 22//22 9//9 15//15
f 22//22 18//18 9//9
f 22//22 6//6 18//18
f 23//23 12//12 16//16
f 23//23 17//17 12//12
f 23//23 5//5 11//11
f 23//23 11//11 17//17
f 24//24 12//12 17//17
f 25//25 12//12 18//18
f 25//25 6//6 16//16
f 26//26 18//18 12//12
f 26//26 12//12 24//24
f 27//27 3//3 4//4
f 27//27 20//20 19//19
f 28//28 4//4 8//8
f 28//28 8//8 20//20
f 28//28 27//27 4//4
f 28//28 20//20 27//27
f 29//29 21//21 13//13
f 29//29 13//13 10//10
f 29//29 10//10 3//3
f 29//29 3//3 21//21
f 30//30 19//19 13//13
f 30//30 13//13 21//21
f 30//30 21//21 3//3
f 30//30 27//27 19//19
f 30//30 3//3 27//27
f 31//31 23//23 16//16
f 31//31 16//16 5//5
f 32//32 24//24 17//17
f 32//32 17//17 7//7
f 32//32 26//26 24//24
f 33//33 25//25 16//16
f 33//33 16//16 12//12
f 33//33 12//12 25//25
f 34//34 25//25 18//18
f 34//34 18//18 6//6
f 34//34 6//6 25//25
f 35//35 26//26 14//14
f 35//35 14//14 9//9
f 35//35 9//9 18//18
f 35//35 18//18 26//26
f 36//36 2//2 14//14
f 36//36 14//14 26//26
f 36//36 26//26 32//32
f 36//36 32//32 7//7
f 36//36 7//7 2//2
f 37//37 31//31 5//5
f 37//37 5//5 23//23
f 37//37 23//23 31//31

