# https://github.com/mikedh/trimesh
v -0.02429445 -0.01705849 0.02000001
v -0.02429445 -0.01965104 0.01950698
v -0.02429445 -0.01705849 -0.01999999
v -0.04551660 -0.01761214 -0.01929081
v -0.06590394 -0.06780004 0.01840802
v -0.04883612 -0.06610157 0.01936769
v -0.04635072 -0.01817455 0.01845671
v -0.06563560 -0.06761748 -0.01877899
v -0.06431005 -0.06671457 0.01965742
v -0.04893343 -0.06755159 -0.01888892
v -0.04519034 -0.01774057 0.01957871
v -0.06475296 -0.06557684 -0.01889816
v -0.04644792 -0.01813627 -0.01813756
v -0.04877443 -0.06778262 0.01845671
v -0.02429445 -0.01994252 -0.01926775
v -0.05816167 -0.04965914 0.01926781
v -0.04875268 -0.02490836 -0.01888892
v -0.06244559 -0.05880577 -0.01817965
v -0.04923487 -0.02698143 0.01926781
v -0.06497565 -0.06548920 0.01845671
v -0.06318528 -0.06304034 0.01945405
v -0.04679934 -0.02026080 -0.01902963
f 1 2 3
f 1 3 4
f 6 2 1
f 9 6 1
f 11 1 4
f 11 4 7
f 11 9 1
f 12 4 3
f 12 10 8
f 12 3 10
f 13 7 4
f 13 5 7
f 14 9 5
f 14 6 9
f 14 5 8
f 14 8 10
f 14 2 6
f 15 10 3
f 15 3 2
f 15 14 10
f 15 2 14
f 17 12 8
f 17 8 13
f 18 13 8
f 18 8 5
f 18 5 13
f 19 11 7
f 20 7 5
f 20 19 7
f 20 16 19
f 21 9 11
f 21 19 16
f 21 11 19
f 21 16 20
f 21 20 5
f 21 5 9
f 22 17 13
f 22 13 4
f 22 4 12
f 22 12 17

