# https://github.com/mikedh/trimesh
v 0.01133410 0.06644137 0.01982120
v 0.01984158 0.04586253 0.01960735
v 0.01399938 0.06344982 0.01845671
v 0.01136932 0.06645516 -0.01980968
v 0.01191196 0.04630184 -0.01999902
v 0.01822799 0.05201913 -0.01888892
v 0.01242520 0.06598241 -0.01926775
v 0.01228424 0.06592720 0.01939217
v 0.01191137 0.04630169 0.02000001
v 0.01844343 0.05210351 0.01845671
v 0.01989154 0.04588210 -0.01957866
v 0.01593849 0.05879727 -0.01812011
v 0.01870711 0.04994391 0.01926781
v 0.01378395 0.06336544 -0.01888892
v 0.01426303 0.06129021 0.01926781
vn -0.37569585 0.69665441 0.61116713
vn 0.64254570 -0.53002013 0.55336577
vn 0.86589721 0.42148976 0.26938523
vn -0.38362629 0.68161230 -0.62308550
vn -0.56694150 -0.56247194 -0.60183275
vn 0.88066979 0.29733999 -0.36879486
vn 0.68438618 0.60792427 -0.40254644
vn 0.67273807 0.59299129 0.44247578
vn -0.56819655 -0.56241948 0.60069711
vn 0.91289581 0.30731807 0.26865749
vn 0.65436776 -0.51874104 -0.55019140
vn 0.91168756 0.36333466 -0.19186901
vn 0.72932701 0.25838904 0.63349603
vn 0.85971811 0.38620248 -0.33426399
vn 0.68978995 0.27102275 0.67136912
f 5//5 1//1 4//4
f 7//7 4//4 1//1
f 8//8 1//1 2//2
f 8//8 7//7 1//1
f 8//8 3//3 7//7
f 9//9 5//5 2//2
f 9//9 2//2 1//1
f 9//9 1//1 5//5
f 11//11 5//5 4//4
f 11//11 7//7 6//6
f 11//11 4//4 7//7
f 11//11 2//2 5//5
f 11//11 10//10 2//2
f 11//11 6//6 10//10
f 12//12 10//10 6//6
f 12//12 3//3 10//10
f 13//13 8//8 2//2
f 13//13 2//2 10//10
f 13//13 10//10 3//3
f 14//14 7//7 3//3
f 14//14 3//3 12//12
f 14//14 12//12 6//6
f 14//14 6//6 7//7
f 15//15 13//13 3//3
f 15//15 3//3 8//8
f 15//15 8//8 13//13

