# https://github.com/mikedh/trimesh
v -0.02051791 0.00781084 0.01957771
v -0.01661377 -0.00511482 0.01231109
v -0.01931163 0.00789793 -0.01777363
v -0.02523006 0.00741960 -0.01999999
v -0.02581982 -0.00528136 0.01974728
v -0.01661377 -0.00571633 -0.01910839
v -0.01932369 0.00790267 0.01785400
v -0.01948587 -0.00581900 0.01923354
v -0.02523006 0.00741960 0.02000001
v -0.01661377 -0.00539807 -0.01865322
v -0.02042409 0.00777521 -0.01949456
v -0.02573855 -0.00531186 -0.01970118
v -0.02379401 -0.00622592 0.01957871
v -0.02379401 -0.00622592 -0.01957866
vn 0.34374043 0.64433809 0.68313318
vn 0.86251962 -0.49226041 0.11721604
vn 0.62718942 0.75280264 -0.19980392
vn -0.55548701 0.55541355 -0.61882952
vn -0.66068047 -0.42163389 0.62106858
vn 0.64532535 -0.51807208 -0.56138802
vn 0.65579204 0.71014946 0.25617288
vn 0.51172692 -0.57950604 0.63427778
vn -0.55709543 0.55429363 0.61838763
vn 0.99119808 0.12171712 -0.05207030
vn 0.31447186 0.66467409 -0.67772841
vn -0.66586540 -0.42338846 -0.61430081
vn -0.08837651 -0.75532182 0.64936779
vn -0.10540033 -0.75233852 -0.65029033
f 1//1 3//3 4//4
f 7//7 2//2 3//3
f 7//7 3//3 1//1
f 8//8 7//7 1//1
f 8//8 2//2 7//7
f 8//8 6//6 2//2
f 9//9 1//1 4//4
f 9//9 4//4 5//5
f 9//9 8//8 1//1
f 10//10 6//6 3//3
f 10//10 3//3 2//2
f 10//10 2//2 6//6
f 11//11 6//6 4//4
f 11//11 4//4 3//3
f 11//11 3//3 6//6
f 12//12 5//5 4//4
f 13//13 9//9 5//5
f 13//13 8//8 9//9
f 13//13 6//6 8//8
f 14//14 12//12 4//4
f 14//14 4//4 6//6
f 14//14 6//6 13//13
f 14//14 13//13 5//5
f 14//14 5//5 12//12

