# https://github.com/mikedh/trimesh
v 0.03756539 0.07038944 0.01455559
v 0.03747205 0.05118486 0.01416913
v 0.03756087 0.07035361 -0.01366233
v 0.00787744 0.07037335 -0.01385345
v 0.00783136 0.07043268 0.01453984
v 0.03751446 0.05112081 -0.01395523
v 0.00787423 0.05110224 0.01419390
v 0.03301000 0.05696104 -0.01428260
v 0.00786812 0.05113456 -0.01401814
v 0.03303666 0.05561140 -0.01427288
vn 0.57786010 0.57097452 0.58315162
vn 0.57747208 -0.58242393 0.57210870
vn 0.58326423 0.58552534 -0.56299460
vn -0.57826214 0.58076801 -0.57299338
vn -0.57693694 0.57313855 0.58194155
vn 0.58453235 -0.58295758 -0.56434244
vn -0.57702671 -0.58329932 0.57166606
vn 0.03619900 0.01379715 -0.99924935
vn -0.57951069 -0.57559395 -0.57693931
vn 0.02286562 -0.02803419 -0.99934541
f 5//5 1//1 3//3
f 5//5 3//3 4//4
f 6//6 1//1 2//2
f 6//6 3//3 1//1
f 7//7 2//2 1//1
f 7//7 1//1 5//5
f 7//7 6//6 2//2
f 8//8 4//4 3//3
f 8//8 3//3 6//6
f 9//9 7//7 5//5
f 9//9 5//5 4//4
f 9//9 6//6 7//7
f 9//9 4//4 8//8
f 10//10 9//9 8//8
f 10//10 8//8 6//6
f 10//10 6//6 9//9

