# https://github.com/mikedh/trimesh
v 0.05740108 -0.02966898 0.01230565
v 0.05889547 -0.08696832 0.00583716
v 0.05960609 -0.02965345 -0.01169699
v 0.00739909 -0.05051224 -0.01473180
v 0.00729754 -0.08624659 0.01369815
v 0.05433392 -0.08440063 -0.01445310
v 0.05044503 -0.02977686 0.00037228
v 0.06228184 -0.02970912 -0.00128381
v 0.05144471 -0.08645684 0.01347364
v 0.00743610 -0.05053884 0.01381541
v 0.05188407 -0.02978978 -0.01392295
v 0.00733657 -0.08110642 -0.01584496
v 0.05530804 -0.08892257 -0.00719848
v 0.05937960 -0.02973557 0.01147680
v 0.06077932 -0.07867642 -0.00539096
v 0.05043853 -0.02977962 0.01358400
v 0.05440327 -0.07285967 0.01358004
v 0.05728495 -0.02973691 -0.01279014
v 0.04730989 -0.08039348 -0.01570015
v 0.00741024 -0.07586421 -0.01593507
v 0.04176053 -0.08744278 -0.01283618
v 0.04883853 -0.08891962 0.00979512
v 0.06077534 -0.02969830 0.00727375
v 0.05891408 -0.08416081 -0.01042133
v 0.06085838 -0.02975985 -0.01035576
v 0.06067894 -0.07861787 0.00150459
v 0.05858517 -0.03148143 0.01196429
v 0.05749003 -0.08451167 0.01122068
v 0.05871209 -0.04321671 -0.01267572
v 0.04568896 -0.08399970 -0.01550708
v 0.02518779 -0.07300894 -0.01575903
v 0.05443796 -0.08760371 -0.01146228
v 0.00761384 -0.08601429 -0.01087016
v 0.05172858 -0.08746514 0.01239664
v 0.05774866 -0.08899567 0.00585608
v 0.05912973 -0.08773342 -0.00702056
v 0.06228770 -0.02972778 -0.00243394
v 0.06043537 -0.06074697 -0.00912066
v 0.05645875 -0.08494390 0.01196146
v 0.05908699 -0.07717033 0.00888216
v 0.05691432 -0.08534261 -0.01280395
v 0.05811170 -0.05933928 -0.01290089
v 0.04715180 -0.08261892 -0.01566492
v 0.02101013 -0.08484141 -0.01423666
v 0.05146493 -0.08496974 -0.01421398
v 0.02084056 -0.08752582 0.01054792
v 0.04624629 -0.08753194 0.01222529
v 0.05468839 -0.08868404 0.00986403
v 0.05773583 -0.08798266 0.00946150
v 0.05911132 -0.08662893 -0.00886657
v 0.05907056 -0.08843221 0.00312530
v 0.05822886 -0.08874623 -0.00611366
v 0.06055718 -0.03855506 -0.01039576
v 0.05293942 -0.08576225 0.01329868
v 0.05894272 -0.08406491 0.00708085
v 0.05446808 -0.08617504 -0.01284549
v 0.05771681 -0.08543265 -0.01198133
v 0.04035318 -0.08355727 -0.01567816
v 0.00772278 -0.08492531 -0.01288718
v 0.05688909 -0.08863104 0.00869918
v 0.05541297 -0.08800069 0.01075055
v 0.05663418 -0.08743707 -0.01030872
v 0.01663242 -0.08212480 -0.01566129
v 0.00904386 -0.08330230 -0.01430060
vn 0.19162783 0.69941534 0.68854699
vn 0.95966129 -0.18923802 0.20794032
vn 0.43974820 0.67888975 -0.58798829
vn -0.67436809 0.44080052 -0.59238719
vn -0.59848216 -0.55175696 0.58084711
vn 0.27564901 -0.32510981 -0.90461109
vn -0.23345775 0.97231559 -0.00999354
vn 0.73673499 0.67320335 0.06339403
vn 0.10346329 -0.40908499 0.90661172
vn -0.67155685 0.42361624 0.60791502
vn -0.07644300 0.72145746 -0.68822642
vn -0.65707189 -0.24067206 -0.71437630
vn 0.05950987 -0.98311289 -0.17305384
vn 0.60074502 0.60961847 0.51717573
vn 0.98833672 -0.08297487 -0.12769375
vn -0.10958139 0.72147633 0.68371326
vn 0.28094042 -0.01517470 0.95960524
vn 0.22393556 0.65531260 -0.72140021
vn 0.09180937 0.00440161 -0.99576687
vn -0.61611650 0.01476538 -0.78751663
vn -0.02138810 -0.85840396 -0.51252823
vn -0.01389003 -0.96994877 0.24291244
vn 0.71214007 0.67861059 0.17984488
vn 0.89325639 -0.09834776 -0.43865789
vn 0.72269979 0.60057552 -0.34207318
vn 0.99072100 -0.08228094 0.10817465
vn 0.42804281 0.00726158 0.90372929
vn 0.78232842 -0.13227670 0.60865846
vn 0.54485519 -0.00093395 -0.83852964
vn 0.04114896 -0.41176052 -0.91036259
vn 0.00741353 0.02807528 -0.99957832
vn 0.15544763 -0.83762152 -0.52366613
vn -0.65572818 -0.72916037 -0.19582060
vn 0.08765215 -0.78906722 0.60802140
vn 0.36870546 -0.92222153 0.11646343
vn 0.80955125 -0.54257973 -0.22412944
vn 0.75991221 0.64638267 -0.06872317
vn 0.94286210 -0.02745206 -0.33205037
vn 0.49970894 -0.23025705 0.83502854
vn 0.93457144 -0.04619090 0.35276425
vn 0.52178416 -0.40328365 -0.75173372
vn 0.63375134 -0.01662653 -0.77335813
vn 0.08465416 -0.10216852 -0.99115855
vn -0.04654206 -0.65698668 -0.75246417
vn 0.06506464 -0.65677483 -0.75127453
vn -0.05847064 -0.99446729 0.08726964
vn -0.00793153 -0.85558566 0.51760050
vn 0.11236583 -0.93452439 0.33769524
vn 0.68623205 -0.55332346 0.47214269
vn 0.81971243 -0.44400098 -0.36184895
vn 0.79804332 -0.59955656 0.06048796
vn 0.41524379 -0.89649868 -0.15447564
vn 0.86304535 -0.02738353 -0.50438365
vn 0.29369463 -0.26363482 0.91882542
vn 0.96083213 -0.10266857 0.25741169
vn 0.15555361 -0.67441882 -0.72177720
vn 0.69528519 -0.38256676 -0.60845804
vn -0.00895407 -0.31256706 -0.94985349
vn -0.57411667 -0.63198027 -0.52056796
vn 0.26509397 -0.92330775 0.27789925
vn 0.30610610 -0.68987440 0.65602771
vn 0.38645427 -0.79423352 -0.46887761
vn -0.03102957 -0.44994589 -0.89251659
vn -0.07738650 -0.61535568 -0.78444166
f 7//7 1//1 3//3
f 10//10 4//4 5//5
f 11//11 7//7 3//3
f 11//11 4//4 7//7
f 12//12 5//5 4//4
f 16//16 7//7 4//4
f 16//16 4//4 10//10
f 16//16 1//1 7//7
f 17//17 10//10 5//5
f 17//17 5//5 9//9
f 17//17 16//16 10//10
f 17//17 1//1 16//16
f 18//18 11//11 3//3
f 18//18 6//6 11//11
f 19//19 11//11 6//6
f 20//20 12//12 4//4
f 20//20 4//4 11//11
f 23//23 1//1 14//14
f 23//23 8//8 3//3
f 23//23 3//3 1//1
f 26//26 15//15 8//8
f 26//26 8//8 23//23
f 27//27 14//14 1//1
f 27//27 1//1 17//17
f 29//29 18//18 3//3
f 29//29 6//6 18//18
f 29//29 3//3 25//25
f 31//31 20//20 11//11
f 31//31 11//11 19//19
f 31//31 19//19 20//20
f 32//32 13//13 21//21
f 33//33 21//21 13//13
f 33//33 5//5 12//12
f 34//34 9//9 5//5
f 35//35 22//22 13//13
f 37//37 8//8 15//15
f 37//37 15//15 25//25
f 37//37 25//25 3//3
f 37//37 3//3 8//8
f 38//38 25//25 15//15
f 38//38 15//15 24//24
f 39//39 27//27 17//17
f 39//39 28//28 14//14
f 39//39 14//14 27//27
f 40//40 26//26 23//23
f 40//40 23//23 14//14
f 40//40 14//14 28//28
f 42//42 29//29 25//25
f 42//42 41//41 6//6
f 42//42 6//6 29//29
f 43//43 19//19 6//6
f 43//43 6//6 30//30
f 44//44 30//30 21//21
f 45//45 30//30 6//6
f 45//45 21//21 30//30
f 46//46 22//22 5//5
f 46//46 5//5 33//33
f 46//46 33//33 13//13
f 46//46 13//13 22//22
f 47//47 34//34 5//5
f 47//47 5//5 22//22
f 47//47 22//22 34//34
f 48//48 34//34 22//22
f 48//48 22//22 35//35
f 49//49 28//28 39//39
f 49//49 40//40 28//28
f 50//50 24//24 15//15
f 50//50 15//15 36//36
f 51//51 49//49 35//35
f 51//51 2//2 49//49
f 51//51 26//26 2//2
f 51//51 36//36 15//15
f 51//51 15//15 26//26
f 52//52 13//13 32//32
f 52//52 36//36 51//51
f 52//52 51//51 35//35
f 52//52 35//35 13//13
f 53//53 38//38 24//24
f 53//53 25//25 38//38
f 53//53 42//42 25//25
f 53//53 24//24 42//42
f 54//54 39//39 17//17
f 54//54 17//17 9//9
f 55//55 2//2 26//26
f 55//55 26//26 40//40
f 55//55 49//49 2//2
f 55//55 40//40 49//49
f 56//56 41//41 32//32
f 56//56 6//6 41//41
f 56//56 45//45 6//6
f 56//56 32//32 21//21
f 56//56 21//21 45//45
f 57//57 42//42 24//24
f 57//57 41//41 42//42
f 57//57 24//24 50//50
f 58//58 43//43 30//30
f 58//58 12//12 20//20
f 58//58 20//20 19//19
f 58//58 19//19 43//43
f 58//58 30//30 44//44
f 59//59 33//33 12//12
f 59//59 44//44 21//21
f 59//59 21//21 33//33
f 60//60 49//49 48//48
f 60//60 48//48 35//35
f 60//60 35//35 49//49
f 61//61 9//9 34//34
f 61//61 34//34 48//48
f 61//61 48//48 49//49
f 61//61 54//54 9//9
f 61//61 49//49 39//39
f 61//61 39//39 54//54
f 62//62 50//50 36//36
f 62//62 57//57 50//50
f 62//62 32//32 41//41
f 62//62 41//41 57//57
f 62//62 52//52 32//32
f 62//62 36//36 52//52
f 63//63 58//58 44//44
f 63//63 44//44 12//12
f 63//63 12//12 58//58
f 64//64 59//59 12//12
f 64//64 12//12 44//44
f 64//64 44//44 59//59

