# https://github.com/mikedh/trimesh
v -0.00030145 0.07081618 0.01514227
v -0.00028405 0.03225222 0.01474611
v -0.00030941 0.07081078 -0.01338971
v -0.02849074 0.07074379 -0.01323251
v -0.04181965 0.06189620 0.01575239
v -0.00030051 0.05151654 -0.01357524
v 0.00007705 0.08531477 -0.00512788
v -0.04180635 0.03223825 0.00253206
v -0.00645962 0.07095926 -0.01381057
v -0.01347821 0.08462051 0.00081171
v -0.00028700 0.06929002 -0.01332312
v -0.00029196 0.03223825 0.00104941
v -0.04180635 0.06189139 0.00253206
v -0.04185787 0.03214885 0.01456963
v -0.02848557 0.05150603 -0.01332179
v -0.02846536 0.07081439 0.01548098
v -0.00019330 0.08416984 0.00111978
v -0.02846244 0.03223825 0.00104941
v -0.02839471 0.05909728 -0.01374187
v -0.02849046 0.06591503 -0.01346175
vn 0.62545386 0.30304637 0.71900652
vn 0.57849459 -0.58191251 0.57159587
vn 0.65575546 0.19253906 -0.73000924
vn -0.49958421 0.47707752 -0.72305785
vn -0.69628677 0.33735311 0.63354370
vn 0.63722468 -0.25062045 -0.72878948
vn 0.57019543 0.74466221 -0.34692271
vn -0.65362381 -0.65167097 -0.38483875
vn 0.01794269 0.27004445 -0.96268066
vn -0.26127801 0.95779368 0.11985438
vn 0.98839049 0.00236131 -0.15191665
vn 0.61724678 -0.70474041 -0.34978189
vn -0.89523079 0.36132590 -0.26077852
vn -0.58142472 -0.58972112 0.56051253
vn -0.34701620 -0.26129765 -0.90072376
vn -0.27384219 0.57055608 0.77425849
vn 0.63005473 0.68387506 0.36789392
vn -0.02716169 -0.88620390 -0.46249852
vn -0.42058406 -0.00574866 -0.90723536
vn -0.43905148 0.03679904 -0.89770799
f 5//5 2//2 1//1
f 7//7 1//1 2//2
f 9//9 3//3 6//6
f 9//9 7//7 3//3
f 9//9 4//4 7//7
f 10//10 7//7 4//4
f 11//11 7//7 6//6
f 11//11 6//6 3//3
f 11//11 3//3 7//7
f 12//12 7//7 2//2
f 12//12 6//6 7//7
f 13//13 10//10 4//4
f 13//13 5//5 10//10
f 14//14 2//2 5//5
f 14//14 13//13 8//8
f 14//14 5//5 13//13
f 14//14 12//12 2//2
f 16//16 10//10 5//5
f 16//16 5//5 1//1
f 16//16 1//1 10//10
f 17//17 10//10 1//1
f 17//17 1//1 7//7
f 17//17 7//7 10//10
f 18//18 14//14 8//8
f 18//18 12//12 14//14
f 18//18 8//8 15//15
f 18//18 15//15 6//6
f 18//18 6//6 12//12
f 19//19 9//9 6//6
f 19//19 6//6 15//15
f 19//19 15//15 8//8
f 19//19 8//8 13//13
f 20//20 4//4 9//9
f 20//20 9//9 19//19
f 20//20 19//19 13//13
f 20//20 13//13 4//4

