# https://github.com/mikedh/trimesh
v 0.05401882 0.08686767 0.01346167
v 0.05921061 0.08367183 0.00153106
v 0.04868984 0.08945962 -0.01115058
v -0.04376434 0.09043358 -0.01578973
v -0.02384543 0.07634528 0.01470715
v -0.02382427 0.09116806 0.01187769
v 0.05788849 0.08842344 0.00710129
v 0.04858627 0.07488252 0.01351319
v -0.02380314 0.09253947 -0.00977902
v -0.02387803 0.08984973 0.01372056
v 0.05755451 0.08365780 0.00855498
v 0.05877487 0.08731898 -0.00935590
v 0.05432440 0.08935695 0.01164015
v 0.00428685 0.07488023 0.01429634
v -0.04114640 0.09246067 -0.01418313
v -0.04760935 0.08052926 0.00055058
v 0.05746885 0.08772777 0.00832753
v 0.05907783 0.08695575 -0.00014092
v 0.05595478 0.08943167 0.00355460
v 0.04880768 0.07483557 0.00175823
v 0.03401635 0.07480116 -0.01390582
v 0.05276376 0.08880956 0.01320239
v -0.00909346 0.09100858 0.01237240
v 0.04440708 0.08956693 -0.01189493
v -0.04125373 0.09239541 -0.00633222
v 0.05423443 0.08755070 0.01323003
v 0.05910016 0.08639231 0.00147046
v 0.05935472 0.08369643 -0.00942143
v 0.05674082 0.08833729 -0.01065909
v 0.05799820 0.08782423 -0.00968734
v 0.05534028 0.08950666 0.00891215
v -0.04554407 0.07613580 -0.01477717
v -0.02386471 0.09254193 -0.00878315
v -0.00201753 0.09026538 0.01348072
v 0.04874274 0.08839643 -0.01332712
v -0.04369660 0.09234052 -0.00925125
v -0.04637297 0.08616308 0.00047186
v 0.05819160 0.08379185 -0.01154792
v -0.04888437 0.08071459 -0.01134584
v -0.04230761 0.08876093 -0.01585107
v -0.04769902 0.07621733 0.00042479
v 0.00433293 0.07482091 -0.01409694
v -0.03712668 0.09232613 -0.00477957
v -0.04355519 0.09243666 -0.00993181
v -0.04071498 0.09095763 -0.01577512
v 0.02498467 0.08940411 -0.01369133
v -0.04230286 0.08961962 0.00018812
v 0.04874682 0.08374188 -0.01377452
v 0.05812916 0.08588547 -0.01167186
v -0.04816382 0.07586841 -0.01348007
v -0.04780432 0.08849718 -0.00724529
v -0.04435826 0.08855468 -0.01570175
v -0.00020921 0.07635447 -0.01441352
v -0.04909807 0.07631134 -0.01047933
v -0.04453026 0.09111217 -0.01363482
v -0.03966025 0.09076103 -0.00013204
v 0.05687381 0.08707723 -0.01149863
v -0.04771355 0.08876993 -0.01088148
v -0.04634827 0.09000477 -0.00721126
v -0.04591892 0.08436941 -0.01491546
v -0.04900789 0.07603452 -0.01249086
v -0.04268087 0.09232176 -0.01277041
v -0.04345075 0.09104397 -0.01513471
v -0.04470357 0.08987033 -0.01514225
vn 0.44302679 -0.02117658 0.89625823
vn 0.92084513 -0.37956168 0.08931508
vn 0.10081569 0.96730292 -0.23272570
vn -0.36605402 0.42361964 -0.82858364
vn -0.21906215 -0.58417730 0.78150409
vn -0.14586723 0.91561940 0.37465165
vn 0.81385229 0.54029527 0.21383514
vn 0.31350669 -0.69902033 0.64271621
vn 0.02649820 0.99663112 -0.07761614
vn -0.24347159 0.46121693 0.85322947
vn 0.86360416 -0.30689043 0.40000765
vn 0.82617471 0.52015740 -0.21649857
vn 0.41351948 0.81878792 0.39823106
vn 0.00074913 -0.70604616 0.70816542
vn -0.10679635 0.91725686 -0.38371135
vn -0.83362857 0.07575742 0.54710531
vn 0.85598647 0.20984977 0.47249364
vn 0.93139840 0.36386112 0.01010509
vn 0.27853455 0.96023444 -0.01919165
vn 0.34805953 -0.93402525 -0.08032060
vn 0.08593221 -0.71781488 -0.69091060
vn 0.13692974 0.61573536 0.77596406
vn 0.00717187 0.94111861 0.33800047
vn 0.04820636 0.94280821 -0.32983151
vn -0.19376931 0.96461870 0.17878541
vn 0.58610422 0.26467230 0.76578745
vn 0.98386256 0.14826393 0.10016118
vn 0.88386604 -0.40306768 -0.23731261
vn 0.36460105 0.82217075 -0.43715137
vn 0.55090506 0.80126159 -0.23341695
vn 0.28757843 0.95086976 0.11465317
vn -0.17598206 -0.58445827 -0.79211038
vn 0.01397639 0.99952453 0.02748411
vn 0.01834032 0.58571602 0.81030881
vn 0.13323107 0.55123729 -0.82364248
vn -0.43736147 0.89183697 0.11550654
vn -0.72897123 0.39380182 0.55992952
vn 0.57962638 -0.43078482 -0.69170637
vn -0.96775585 0.11906286 -0.22197443
vn -0.01724329 -0.02951251 -0.99941567
vn -0.67002345 -0.60342965 0.43236701
vn -0.00278989 -0.79925167 -0.60099000
vn -0.00542863 0.99787034 0.06500241
vn -0.35739064 0.93346131 -0.03036296
vn -0.00998935 0.42226997 -0.90641507
vn 0.04155897 0.75647630 -0.65269936
vn -0.45961918 0.75962152 0.46013624
vn 0.15279787 -0.10508062 -0.98265501
vn 0.61310745 0.21961936 -0.75885874
vn -0.49960486 -0.65657135 -0.56507436
vn -0.88878095 0.43512587 0.14399272
vn -0.39871428 0.04093037 -0.91616136
vn 0.00983210 -0.10586939 -0.99433143
vn -0.92632795 -0.37160363 0.06186490
vn -0.60122755 0.74314947 -0.29369082
vn -0.30281217 0.88873503 0.34417270
vn 0.31921728 0.49138758 -0.81033239
vn -0.87462305 0.43242098 -0.21919537
vn -0.63156588 0.75014974 0.19595897
vn -0.63650479 0.06377091 -0.76863186
vn -0.78602955 -0.54998252 -0.28227075
vn -0.33070364 0.92327516 -0.19544330
vn -0.37673593 0.79239743 -0.47976698
vn -0.72954206 0.36198326 -0.58029001
f 10//10 5//5 1//1
f 11//11 2//2 7//7
f 11//11 8//8 2//2
f 11//11 1//1 8//8
f 14//14 8//8 1//1
f 14//14 1//1 5//5
f 16//16 5//5 10//10
f 17//17 11//11 7//7
f 17//17 7//7 13//13
f 18//18 12//12 7//7
f 19//19 3//3 9//9
f 20//20 2//2 8//8
f 20//20 8//8 14//14
f 21//21 20//20 14//14
f 23//23 22//22 13//13
f 23//23 6//6 10//10
f 24//24 15//15 9//9
f 24//24 9//9 3//3
f 26//26 1//1 11//11
f 26//26 11//11 17//17
f 26//26 17//17 13//13
f 26//26 22//22 1//1
f 26//26 13//13 22//22
f 27//27 18//18 7//7
f 27//27 7//7 2//2
f 28//28 12//12 18//18
f 28//28 2//2 20//20
f 28//28 27//27 2//2
f 28//28 18//18 27//27
f 29//29 3//3 19//19
f 30//30 19//19 7//7
f 30//30 7//7 12//12
f 30//30 29//29 19//19
f 30//30 12//12 29//29
f 31//31 13//13 7//7
f 31//31 7//7 19//19
f 31//31 19//19 9//9
f 31//31 23//23 13//13
f 33//33 6//6 23//23
f 33//33 9//9 15//15
f 33//33 31//31 9//9
f 33//33 23//23 31//31
f 34//34 23//23 10//10
f 34//34 22//22 23//23
f 34//34 10//10 1//1
f 34//34 1//1 22//22
f 35//35 24//24 3//3
f 35//35 3//3 29//29
f 37//37 16//16 10//10
f 38//38 28//28 20//20
f 38//38 20//20 21//21
f 41//41 5//5 16//16
f 41//41 14//14 5//5
f 42//42 32//32 21//21
f 42//42 21//21 14//14
f 43//43 33//33 25//25
f 43//43 25//25 6//6
f 43//43 6//6 33//33
f 44//44 33//33 15//15
f 44//44 25//25 33//33
f 44//44 36//36 25//25
f 45//45 4//4 15//15
f 45//45 40//40 4//4
f 46//46 15//15 24//24
f 46//46 24//24 35//35
f 46//46 45//45 15//15
f 46//46 35//35 45//45
f 47//47 37//37 10//10
f 47//47 10//10 6//6
f 47//47 25//25 36//36
f 48//48 38//38 21//21
f 48//48 21//21 40//40
f 48//48 45//45 35//35
f 48//48 40//40 45//45
f 49//49 29//29 12//12
f 49//49 12//12 28//28
f 49//49 28//28 38//38
f 49//49 48//48 35//35
f 49//49 38//38 48//48
f 50//50 32//32 42//42
f 50//50 42//42 14//14
f 50//50 14//14 41//41
f 51//51 39//39 16//16
f 51//51 16//16 37//37
f 52//52 40//40 32//32
f 52//52 4//4 40//40
f 53//53 40//40 21//21
f 53//53 21//21 32//32
f 53//53 32//32 40//40
f 54//54 41//41 16//16
f 54//54 16//16 39//39
f 56//56 47//47 6//6
f 56//56 6//6 25//25
f 56//56 25//25 47//47
f 57//57 49//49 35//35
f 57//57 35//35 29//29
f 57//57 29//29 49//49
f 58//58 36//36 44//44
f 58//58 44//44 55//55
f 58//58 39//39 51//51
f 59//59 47//47 36//36
f 59//59 58//58 51//51
f 59//59 36//36 58//58
f 59//59 51//51 37//37
f 59//59 37//37 47//47
f 60//60 52//52 32//32
f 60//60 32//32 50//50
f 61//61 50//50 41//41
f 61//61 41//41 54//54
f 61//61 54//54 39//39
f 61//61 60//60 50//50
f 61//61 39//39 58//58
f 61//61 58//58 60//60
f 62//62 55//55 44//44
f 62//62 44//44 15//15
f 63//63 15//15 4//4
f 63//63 4//4 55//55
f 63//63 62//62 15//15
f 63//63 55//55 62//62
f 64//64 58//58 55//55
f 64//64 55//55 4//4
f 64//64 4//4 52//52
f 64//64 60//60 58//58
f 64//64 52//52 60//60

