# https://github.com/mikedh/trimesh
v -0.03443692 0.08184603 0.01413866
v -0.03459024 0.00899849 0.01436362
v -0.03442126 0.00900799 -0.01445192
v -0.05717791 0.06794478 -0.01385497
v -0.06427651 0.00908120 0.01220438
v -0.03442969 0.06827097 -0.01358824
v -0.03438315 0.08316436 0.01229579
v -0.05851583 0.07792734 0.01540910
v -0.06399265 0.00870363 0.00982192
v -0.05785733 0.01101290 -0.01561142
v -0.04876425 0.08310142 0.00083306
v -0.06178580 0.00886697 0.01421816
v -0.04626832 0.06687435 0.01544334
v -0.06257059 0.06520996 0.01294136
v -0.05697119 0.08285867 0.01335024
v -0.03442425 0.06203776 -0.01414884
v -0.06161553 0.00882746 -0.01314595
v -0.03604916 0.08297483 0.00066257
v -0.04627038 0.07860408 0.01536946
v -0.05665513 0.04319482 0.01543742
v -0.06269837 0.03258590 0.01400150
v -0.03594563 0.08300483 0.01276666
v -0.05696385 0.08297013 0.00984393
v -0.06088018 0.07851568 0.01217686
v -0.04190145 0.06837641 -0.01407620
v -0.06015366 0.00885952 -0.01448915
v -0.05956677 0.06803082 -0.01207276
v -0.03446173 0.08294257 0.00240372
v -0.04928833 0.08095381 0.01533920
v -0.04784120 0.05941574 0.01540525
v -0.05937248 0.04474429 0.01532924
v -0.06076012 0.07494974 0.01453125
v -0.05957295 0.07904873 0.01404644
v -0.05963132 0.08066853 0.01180284
v -0.06080695 0.07824594 0.01002653
v -0.05286174 0.08161591 0.00060621
v -0.05631017 0.08087076 0.01513226
v -0.05793398 0.04324991 0.01539999
v -0.05949628 0.08017173 0.00885346
v -0.05796747 0.08192278 0.01314249
v -0.05723966 0.08207537 0.01387007
v -0.05815170 0.08161686 0.00893520
v -0.05524544 0.08002294 0.00107775
v -0.05795901 0.08037261 0.00632289
vn 0.63604984 0.35578330 0.68473268
vn 0.57883669 -0.58067125 0.57251112
vn 0.59215228 -0.57629957 -0.56323573
vn -0.29897098 0.38280458 -0.87411499
vn -0.79190263 -0.51204207 0.33272083
vn 0.66217777 0.31693070 -0.67902542
vn 0.65951647 0.72226538 0.20825646
vn -0.33857176 0.19237984 0.92106415
vn -0.66307713 -0.74728891 -0.04345112
vn -0.16998316 -0.16326421 -0.97182844
vn -0.09482162 0.91739833 -0.38650895
vn -0.26396872 -0.63926677 0.72225931
vn 0.05181636 0.00165840 0.99865525
vn -0.95153620 0.05586654 0.30241988
vn -0.33036985 0.85938972 0.39026283
vn 0.70829798 0.02809411 -0.70535431
vn -0.69589420 -0.62336888 -0.35657046
vn 0.23975158 0.86987148 -0.43109487
vn 0.05677722 0.04304228 0.99745863
vn -0.00522123 -0.01582857 0.99986109
vn -0.64701277 0.00772990 0.76243998
vn 0.02308509 0.86970179 0.49303740
vn -0.39429088 0.91251842 -0.10883401
vn -0.92089425 0.34617571 0.17920980
vn 0.01205745 0.40015725 -0.91636717
vn -0.35829967 -0.66019734 -0.66012182
vn -0.78260059 0.34353588 -0.51915259
vn 0.71267664 0.68733867 -0.14020542
vn 0.01140687 0.41099327 0.91156701
vn 0.02702757 -0.01107449 0.99957334
vn -0.22322974 -0.00110075 0.97476524
vn -0.73972535 0.11563915 0.66289818
vn -0.69021694 0.41657356 0.59166463
vn -0.78225338 0.61306128 0.11061422
vn -0.93969657 0.31647530 -0.12966781
vn -0.38435417 0.80367774 -0.45428401
vn -0.18388830 0.41515009 0.89097447
vn -0.04888774 -0.01768069 0.99864778
vn -0.77957312 0.57847927 -0.24005725
vn -0.68988922 0.61450758 0.38266605
vn -0.47780870 0.55483426 0.68107106
vn -0.65934296 0.70335936 -0.26561716
vn -0.59629091 0.69668965 -0.39882413
vn -0.65691233 0.65753876 -0.36892948
f 7//7 1//1 2//2
f 7//7 2//2 3//3
f 9//9 3//3 2//2
f 12//12 9//9 2//2
f 12//12 5//5 9//9
f 13//13 2//2 1//1
f 16//16 3//3 10//10
f 16//16 7//7 3//3
f 16//16 6//6 7//7
f 17//17 9//9 5//5
f 17//17 5//5 14//14
f 17//17 3//3 9//9
f 18//18 11//11 7//7
f 19//19 13//13 1//1
f 19//19 8//8 13//13
f 20//20 12//12 2//2
f 20//20 13//13 8//8
f 21//21 14//14 5//5
f 21//21 5//5 12//12
f 22//22 15//15 1//1
f 22//22 1//1 7//7
f 22//22 7//7 15//15
f 23//23 15//15 7//7
f 23//23 7//7 11//11
f 25//25 16//16 10//10
f 25//25 10//10 4//4
f 25//25 6//6 16//16
f 25//25 18//18 6//6
f 25//25 4//4 11//11
f 25//25 11//11 18//18
f 26//26 4//4 10//10
f 26//26 10//10 3//3
f 26//26 3//3 17//17
f 27//27 17//17 14//14
f 27//27 26//26 17//17
f 27//27 4//4 26//26
f 28//28 18//18 7//7
f 28//28 7//7 6//6
f 28//28 6//6 18//18
f 29//29 8//8 19//19
f 29//29 19//19 1//1
f 29//29 1//1 15//15
f 30//30 20//20 2//2
f 30//30 2//2 13//13
f 30//30 13//13 20//20
f 31//31 21//21 12//12
f 32//32 14//14 21//21
f 32//32 24//24 14//14
f 32//32 31//31 8//8
f 32//32 21//21 31//31
f 33//33 32//32 8//8
f 33//33 24//24 32//32
f 34//34 15//15 23//23
f 34//34 24//24 33//33
f 35//35 27//27 14//14
f 35//35 14//14 24//24
f 35//35 24//24 34//34
f 36//36 23//23 11//11
f 36//36 11//11 4//4
f 36//36 4//4 27//27
f 37//37 29//29 15//15
f 37//37 8//8 29//29
f 38//38 20//20 8//8
f 38//38 8//8 31//31
f 38//38 31//31 12//12
f 38//38 12//12 20//20
f 39//39 35//35 34//34
f 39//39 27//27 35//35
f 40//40 34//34 33//33
f 40//40 15//15 34//34
f 41//41 33//33 8//8
f 41//41 8//8 37//37
f 41//41 37//37 15//15
f 41//41 40//40 33//33
f 41//41 15//15 40//40
f 42//42 39//39 34//34
f 42//42 34//34 23//23
f 43//43 36//36 27//27
f 43//43 42//42 23//23
f 43//43 23//23 36//36
f 44//44 27//27 39//39
f 44//44 39//39 42//42
f 44//44 43//43 27//27
f 44//44 42//42 43//43

