# https://github.com/mikedh/trimesh
v 0.06453761 0.08013636 0.01287245
v 0.06574229 -0.00970490 0.00241175
v 0.06821021 0.07496481 -0.01135434
v 0.04399833 0.07494674 -0.01403098
v 0.04243634 0.00821692 0.01396295
v 0.05580888 0.00078134 -0.01361114
v 0.06208313 0.08066017 -0.01055220
v 0.06899890 0.06903166 0.00314535
v 0.06307392 -0.00957346 0.01183296
v 0.04403949 0.06600995 0.01450567
v 0.06608381 0.00058588 -0.00890828
v 0.06253706 0.07951825 -0.01296338
v 0.04251835 0.00818238 -0.01418427
v 0.06465630 0.08071379 -0.00838058
v 0.04422839 0.07965522 0.00160633
v 0.06692796 0.07977306 0.00902380
v 0.05721729 0.00528374 0.01362687
v 0.06470863 -0.00952841 0.00737063
v 0.06253181 0.00225981 -0.01261191
v 0.06910897 0.06018714 -0.00832710
v 0.05876136 0.07956939 -0.01313354
v 0.04250739 0.04674035 -0.01405206
v 0.06582636 -0.00961006 0.00188908
v 0.06533302 0.07963090 -0.01115988
v 0.06442734 0.08089417 0.01045227
v 0.06937333 0.07486939 -0.00922786
v 0.06744639 0.06764381 0.00860241
v 0.06292176 0.07510607 0.01363078
v 0.05581785 0.00524981 0.01370006
v 0.06331289 -0.00956568 0.01157368
v 0.06594192 0.00105554 0.00463964
v 0.06374027 0.00085490 -0.01190406
v 0.06566445 0.06756737 -0.01255830
v 0.05870845 0.08063258 -0.01095701
v 0.04246998 0.04678693 0.01418355
v 0.06765014 0.02898569 -0.00114833
v 0.06550554 0.07742865 -0.01237363
v 0.06535890 0.08067963 0.00910572
v 0.06479122 0.08015859 0.01279681
v 0.06900410 0.07483557 0.00317222
v 0.06898584 0.06463778 0.00169992
v 0.06778530 0.04108839 -0.00976443
v 0.05869196 0.07506168 0.01427681
v 0.06624888 -0.00066499 0.00169111
v 0.06757122 0.06627835 -0.01149740
v 0.06132348 0.00091840 -0.01285782
v 0.05888228 0.08075719 -0.00706606
v 0.06768015 0.02898901 -0.00242230
v 0.06599275 0.07877351 0.01141012
v 0.06601107 0.06908090 0.01115180
v 0.06757313 0.07483076 0.00874855
vn 0.01675827 0.62130926 0.78338622
vn 0.45569719 -0.89013071 0.00271759
vn 0.70095565 0.19030347 -0.68734690
vn -0.62390445 0.40153516 -0.67045713
vn -0.70037120 -0.33515058 0.63020177
vn -0.15050261 -0.57807363 -0.80198494
vn 0.08602848 0.96672074 -0.24093591
vn 0.98866699 -0.01727596 0.14912787
vn 0.06032082 -0.75535833 0.65252983
vn -0.64452037 0.21160888 0.73472116
vn 0.88039602 -0.26598832 -0.39262330
vn 0.18273532 0.54105694 -0.82089292
vn -0.67790449 -0.35508891 -0.64370596
vn 0.41050841 0.90662341 -0.09755430
vn -0.68758126 0.70938603 0.15493053
vn 0.81270170 0.54568946 0.20430115
vn 0.13706134 -0.04184174 0.98967846
vn 0.78731906 -0.57438360 0.22408074
vn 0.35073306 -0.04971308 -0.93515503
vn 0.98614408 -0.03573646 -0.16199614
vn -0.04734291 0.58155496 -0.81212837
vn -0.72958847 0.02079206 -0.68357030
vn 0.51337597 -0.83205156 -0.21008406
vn 0.56020882 0.70848035 -0.42921052
vn 0.13534661 0.97336826 0.18502845
vn 0.93700290 0.27022552 -0.22136789
vn 0.92241000 -0.02911207 0.38511334
vn 0.28666212 0.02004655 0.95782199
vn 0.02320032 -0.06884540 0.99735754
vn 0.65823515 -0.64505452 0.38811229
vn 0.97763688 -0.04211158 0.20604063
vn 0.52524648 -0.40074601 -0.75067888
vn 0.30360672 -0.00839887 -0.95276042
vn -0.10309651 0.95907963 -0.26369941
vn -0.75911289 0.01678686 0.65074252
vn 0.99833928 -0.04245199 0.03894243
vn 0.43711776 0.23957404 -0.86690965
vn 0.39065154 0.91840439 0.06264789
vn 0.46886369 0.57220758 0.67286353
vn 0.98201341 0.15305966 0.11055497
vn 0.99727340 -0.03121036 0.06687055
vn 0.87742357 -0.04421149 -0.47767481
vn -0.12709084 0.32757857 0.93623725
vn 0.99659214 -0.04509776 0.06906730
vn 0.51992844 -0.02471460 -0.85385222
vn 0.19735040 -0.43882723 -0.87663190
vn -0.04343713 0.99894305 -0.01503327
vn 0.99891171 -0.04664092 -0.00016285
vn 0.83919380 0.10886698 0.53282431
vn 0.80237949 -0.02267960 0.59638309
vn 0.92620822 0.02968069 0.37584225
f 12//12 6//6 4//4
f 13//13 4//4 6//6
f 13//13 9//9 5//5
f 13//13 2//2 9//9
f 15//15 10//10 1//1
f 21//21 12//12 4//4
f 22//22 13//13 5//5
f 22//22 4//4 13//13
f 23//23 13//13 6//6
f 23//23 2//2 13//13
f 24//24 12//12 7//7
f 24//24 7//7 14//14
f 24//24 14//14 16//16
f 25//25 15//15 1//1
f 26//26 24//24 16//16
f 26//26 3//3 24//24
f 28//28 17//17 9//9
f 29//29 5//5 9//9
f 29//29 9//9 17//17
f 29//29 10//10 5//5
f 30//30 9//9 2//2
f 30//30 2//2 18//18
f 30//30 18//18 27//27
f 31//31 18//18 2//2
f 31//31 27//27 18//18
f 31//31 8//8 27//27
f 31//31 2//2 23//23
f 32//32 11//11 23//23
f 33//33 6//6 12//12
f 34//34 7//7 12//12
f 34//34 12//12 21//21
f 34//34 21//21 4//4
f 34//34 4//4 15//15
f 35//35 22//22 5//5
f 35//35 5//5 10//10
f 35//35 10//10 15//15
f 35//35 15//15 4//4
f 35//35 4//4 22//22
f 37//37 24//24 3//3
f 37//37 12//12 24//24
f 37//37 33//33 12//12
f 37//37 3//3 33//33
f 38//38 16//16 14//14
f 38//38 14//14 25//25
f 39//39 25//25 1//1
f 39//39 38//38 25//25
f 39//39 16//16 38//38
f 39//39 28//28 9//9
f 39//39 1//1 28//28
f 40//40 26//26 16//16
f 40//40 8//8 26//26
f 41//41 26//26 8//8
f 41//41 20//20 26//26
f 41//41 36//36 20//20
f 42//42 26//26 20//20
f 42//42 20//20 11//11
f 42//42 3//3 26//26
f 42//42 32//32 3//3
f 42//42 11//11 32//32
f 43//43 28//28 1//1
f 43//43 1//1 10//10
f 43//43 10//10 29//29
f 43//43 29//29 17//17
f 43//43 17//17 28//28
f 44//44 31//31 23//23
f 44//44 8//8 31//31
f 44//44 41//41 8//8
f 44//44 36//36 41//41
f 45//45 32//32 19//19
f 45//45 3//3 32//32
f 45//45 33//33 3//3
f 45//45 19//19 33//33
f 46//46 32//32 23//23
f 46//46 23//23 6//6
f 46//46 19//19 32//32
f 46//46 33//33 19//19
f 46//46 6//6 33//33
f 47//47 34//34 15//15
f 47//47 15//15 25//25
f 47//47 25//25 14//14
f 47//47 14//14 7//7
f 47//47 7//7 34//34
f 48//48 20//20 36//36
f 48//48 23//23 11//11
f 48//48 11//11 20//20
f 48//48 44//44 23//23
f 48//48 36//36 44//44
f 49//49 16//16 39//39
f 50//50 39//39 9//9
f 50//50 9//9 30//30
f 50//50 49//49 39//39
f 50//50 30//30 27//27
f 51//51 27//27 8//8
f 51//51 8//8 40//40
f 51//51 40//40 16//16
f 51//51 16//16 49//49
f 51//51 50//50 27//27
f 51//51 49//49 50//50

