# https://github.com/mikedh/trimesh
v 0.04974830 -0.00420981 0.01384138
v 0.06008052 -0.02184679 0.00037346
v 0.04985220 -0.00412564 -0.01364302
v 0.00538384 -0.00413846 -0.01452732
v 0.00540282 -0.04268406 0.01400935
v -0.00790522 -0.00414834 0.01394724
v 0.06032719 -0.01149884 0.00179611
v 0.04921346 -0.04183368 0.01334581
v -0.00792921 -0.00413020 0.00056622
v 0.05913187 -0.01155461 -0.01028275
v 0.04248776 -0.03530078 0.01389128
v 0.05671023 -0.02178112 0.01206697
v 0.00536582 -0.04265746 -0.01453786
v -0.00798728 -0.03524460 0.01384833
v 0.06029583 -0.01144507 -0.00803130
v 0.04974943 -0.01884943 0.01374391
v 0.04247854 -0.04269213 0.01375517
v 0.05662849 -0.01165246 0.01222597
v 0.06012617 -0.01588546 0.00186352
v 0.04531763 -0.02492555 -0.01417386
v -0.00792921 -0.03081802 0.00056622
v 0.06009920 -0.02186793 -0.00370621
v 0.04982106 -0.04270864 -0.01366756
v 0.03200718 -0.00413820 -0.01417731
v 0.05882511 -0.02190507 -0.01016182
v 0.04989441 -0.04267928 0.00056622
v 0.03202036 -0.04271529 -0.01426078
v 0.05535691 -0.01139670 -0.01276076
v 0.06010375 -0.01731104 -0.00799418
v 0.02745094 -0.04277260 0.01380692
v 0.05777370 -0.01146020 -0.01180700
v 0.05757281 -0.02179867 -0.01150305
v 0.05525167 -0.02188213 -0.01259620
vn 0.29245675 0.69474208 0.65711681
vn 0.96708779 -0.22720843 0.11453178
vn 0.27819783 0.71298725 -0.64362656
vn -0.31762776 0.62433908 -0.71366191
vn -0.19128519 -0.72966716 0.65650271
vn -0.57568640 0.57791175 0.57844894
vn 0.90199630 0.41312565 0.12541878
vn 0.47816538 -0.61378408 0.62819342
vn -0.72194215 0.63612937 -0.27228471
vn 0.79356003 0.30328852 -0.52752113
vn 0.03044514 -0.01194966 0.99946501
vn 0.70750710 -0.12477738 0.69560356
vn -0.37660528 -0.63895586 -0.67074874
vn -0.70377056 -0.41330586 0.57782806
vn 0.89254990 0.40563541 -0.19701417
vn 0.13355203 -0.01167192 0.99097307
vn 0.05518101 -0.71083955 0.70118627
vn 0.69269516 0.23932376 0.68036575
vn 0.97372560 -0.04885153 0.22242300
vn 0.06024336 0.00025346 -0.99818369
vn -0.91692983 -0.22435330 -0.33000801
vn 0.96857116 -0.24179405 -0.05835704
vn 0.44372044 -0.66782551 -0.59759623
vn 0.01314478 0.69464869 -0.71922904
vn 0.87248169 -0.19714562 -0.44711219
vn 0.54108374 -0.84047055 0.02894198
vn 0.01160310 -0.70687900 -0.70723931
vn 0.28932814 0.05473746 -0.95566366
vn 0.96661700 -0.06214251 -0.24857571
vn 0.00318772 -0.87329526 0.48718091
vn 0.60272411 0.22772048 -0.76476600
vn 0.60025451 -0.08824999 -0.79492545
vn 0.34863128 -0.03538753 -0.93659167
f 6//6 1//1 3//3
f 6//6 5//5 1//1
f 7//7 3//3 1//1
f 9//9 6//6 3//3
f 9//9 3//3 4//4
f 11//11 1//1 5//5
f 12//12 8//8 2//2
f 13//13 9//9 4//4
f 14//14 5//5 6//6
f 14//14 6//6 9//9
f 14//14 13//13 5//5
f 15//15 10//10 3//3
f 15//15 3//3 7//7
f 16//16 1//1 11//11
f 16//16 8//8 12//12
f 17//17 11//11 5//5
f 17//17 16//16 11//11
f 17//17 8//8 16//16
f 18//18 12//12 7//7
f 18//18 7//7 1//1
f 18//18 16//16 12//12
f 18//18 1//1 16//16
f 19//19 12//12 2//2
f 19//19 2//2 7//7
f 19//19 7//7 12//12
f 20//20 13//13 4//4
f 21//21 14//14 9//9
f 21//21 9//9 13//13
f 21//21 13//13 14//14
f 22//22 15//15 7//7
f 22//22 7//7 2//2
f 23//23 20//20 3//3
f 24//24 20//20 4//4
f 24//24 4//4 3//3
f 24//24 3//3 20//20
f 25//25 10//10 15//15
f 25//25 22//22 23//23
f 26//26 8//8 17//17
f 26//26 2//2 8//8
f 26//26 23//23 22//22
f 26//26 22//22 2//2
f 27//27 13//13 20//20
f 27//27 20//20 23//23
f 28//28 23//23 3//3
f 29//29 25//25 15//15
f 29//29 15//15 22//22
f 29//29 22//22 25//25
f 30//30 5//5 13//13
f 30//30 13//13 27//27
f 30//30 17//17 5//5
f 30//30 27//27 23//23
f 30//30 26//26 17//17
f 30//30 23//23 26//26
f 31//31 28//28 3//3
f 31//31 3//3 10//10
f 31//31 10//10 25//25
f 32//32 31//31 25//25
f 32//32 25//25 23//23
f 33//33 32//32 23//23
f 33//33 23//23 28//28
f 33//33 28//28 31//31
f 33//33 31//31 32//32

