# https://github.com/mikedh/trimesh
v -0.01972729 -0.00873693 0.01378855
v -0.00655780 -0.08298040 0.01373340
v -0.00643823 -0.00872705 -0.01468601
v -0.05736480 -0.00886751 -0.01477530
v -0.06108563 -0.07481028 0.01503159
v -0.00651877 -0.07784023 -0.01580971
v -0.06148765 -0.00864583 0.01191824
v -0.00636028 -0.03985111 0.01380063
v -0.04496071 -0.06221773 -0.01581598
v -0.05208502 -0.08120311 -0.00706844
v -0.00640737 -0.00871879 0.00040753
v -0.05899694 -0.00886006 0.01393201
v -0.06246693 -0.06939655 -0.01333910
v -0.00613256 -0.08165912 -0.01285193
v -0.03339961 -0.08134306 0.01525325
v -0.00644825 -0.07112579 -0.01577595
v -0.06130063 -0.02837505 0.01351384
v -0.05979605 -0.01036409 -0.01137109
v -0.06407078 -0.07498035 0.01168119
v -0.06035797 -0.07352086 -0.01581262
v -0.00624151 -0.08274810 -0.01083491
v -0.03302398 -0.08278662 0.01221117
v -0.03610861 -0.02958031 0.01519458
v -0.06110793 -0.01061471 0.01265840
v -0.06409007 -0.05935417 0.01076664
v -0.05882667 -0.00889957 -0.01343210
v -0.06258624 -0.07131527 0.01376306
v -0.05374881 -0.06370989 -0.01579432
v -0.06075301 -0.07785013 -0.01107107
v -0.05664794 -0.07590512 -0.01569959
v -0.05079329 -0.07986263 -0.01183248
v -0.03160061 -0.08271697 0.01351507
v -0.01937272 -0.08298173 0.01370886
v -0.01355157 -0.08263501 -0.00969264
v -0.06005474 -0.07985400 0.01134427
v -0.05648834 -0.03279582 0.01480464
v -0.06406676 -0.05926075 0.01163000
v -0.06246683 -0.06821759 -0.01329233
v -0.06399108 -0.07490060 0.00982750
v -0.06084823 -0.06963437 -0.01538400
v -0.06249022 -0.07467255 0.01389625
v -0.06235093 -0.07336078 -0.01247057
v -0.03163930 -0.07710645 -0.01581194
v -0.06051145 -0.07564106 -0.01490180
v -0.04471559 -0.08099430 -0.00953069
v -0.01082652 -0.08257414 -0.01074635
v -0.04417262 -0.07838246 -0.01418340
v -0.06006274 -0.07834850 -0.01199245
v -0.03722322 -0.08176232 0.01500688
v -0.05450941 -0.08130548 0.00884132
v -0.06312212 -0.07713542 0.01118463
v -0.05514537 -0.03139190 0.01482093
v -0.06089412 -0.03850773 -0.01284669
v -0.06104461 -0.07484798 -0.01474615
v -0.05940472 -0.07481742 -0.01562978
v -0.05834939 -0.07827728 -0.01299265
v -0.06068886 -0.07979743 0.01060640
v -0.05523142 -0.07810070 0.01498743
v -0.05323568 -0.08105936 0.01315054
v -0.05894852 -0.07837676 0.01380753
v -0.05797009 -0.07692061 -0.01447375
v -0.05475865 -0.08109280 0.01162819
v -0.05003224 -0.08102328 0.01399465
v -0.05892802 -0.07982235 0.01228984
vn 0.22837048 0.68385779 0.69295415
vn 0.58449832 -0.58609559 0.56111824
vn 0.57696632 0.58314468 -0.57188473
vn -0.27391046 0.64400418 -0.71430503
vn -0.38929013 -0.22749162 0.89258095
vn 0.58108105 -0.25085130 -0.77422119
vn -0.69763168 0.65884092 0.28149366
vn 0.72095303 0.04260152 0.69167322
vn -0.00033050 0.01067339 -0.99994298
vn -0.15088027 -0.97760100 -0.14673591
vn 0.70444089 0.67652271 0.21466265
vn -0.22480124 0.62528806 0.74731469
vn -0.93128398 -0.01902580 -0.36379687
vn 0.65821040 -0.57610699 -0.48462337
vn 0.01662159 -0.29365894 0.95576574
vn 0.67006383 0.00736184 -0.74226698
vn -0.62898951 0.03374998 0.77668085
vn -0.95623111 0.21421997 -0.19932856
vn -0.92881274 -0.22740013 0.29256808
vn -0.43917187 -0.10534805 -0.89220505
vn 0.61723795 -0.76365546 -0.18933476
vn -0.05251865 -0.99748042 0.04769284
vn 0.01386898 0.02680430 0.99954449
vn -0.70426904 0.07123549 0.70635022
vn -0.99928229 0.02666917 -0.02690085
vn -0.62921187 0.66964225 -0.39455251
vn -0.72258666 0.01231370 0.69117067
vn -0.01139224 0.01248522 -0.99985716
vn -0.80852797 -0.56838096 -0.15239945
vn -0.07019063 -0.42768777 -0.90119723
vn -0.08384663 -0.87861856 -0.47010549
vn -0.03410484 -0.96044761 0.27636433
vn -0.00561866 -0.93515827 0.35418559
vn -0.03606296 -0.99399699 -0.10329304
vn -0.41880004 -0.82174627 0.38644482
vn -0.08126041 0.01725507 0.99654353
vn -0.93253239 0.02773315 0.36001974
vn -0.93073651 0.03089057 -0.36438347
vn -0.97611363 -0.20673200 -0.06681365
vn -0.65257534 0.01805682 -0.75750866
vn -0.69229274 -0.24631951 0.67827536
vn -0.95196144 -0.20359306 -0.22873407
vn -0.01614075 -0.35239818 -0.93571096
vn -0.53926842 -0.52337707 -0.65974693
vn -0.05634639 -0.95799377 -0.28119924
vn -0.04433313 -0.94393945 -0.32712824
vn -0.04175608 -0.71561383 -0.69724692
vn -0.50639872 -0.79535094 -0.33313245
vn -0.06501893 -0.66202211 0.74665873
vn -0.15769935 -0.98744736 0.00886721
vn -0.78312205 -0.56188206 0.26647404
vn -0.02979217 0.02347692 0.99928037
vn -0.91808576 0.05451215 -0.39261554
vn -0.80688122 -0.29081097 -0.51417085
vn -0.19827193 -0.34226408 -0.91844627
vn -0.18050152 -0.82341218 -0.53796987
vn -0.53199922 -0.83353511 0.14898338
vn -0.12117109 -0.34570710 0.93048598
vn -0.16562460 -0.86810748 0.46792937
vn -0.36622117 -0.57562030 0.73112470
vn -0.15688478 -0.69176261 -0.70487705
vn -0.17613875 -0.97412853 0.14159357
vn -0.10628847 -0.74805525 0.65506954
vn -0.33633467 -0.78660420 0.51781543
f 7//7 3//3 4//4
f 9//9 4//4 3//3
f 11//11 7//7 1//1
f 11//11 3//3 7//7
f 11//11 1//1 8//8
f 12//12 1//1 7//7
f 14//14 11//11 8//8
f 14//14 3//3 11//11
f 14//14 8//8 2//2
f 15//15 2//2 8//8
f 16//16 9//9 3//3
f 16//16 6//6 9//9
f 16//16 14//14 6//6
f 16//16 3//3 14//14
f 17//17 5//5 12//12
f 21//21 14//14 2//2
f 23//23 15//15 8//8
f 23//23 8//8 1//1
f 23//23 1//1 12//12
f 23//23 5//5 15//15
f 24//24 17//17 12//12
f 24//24 12//12 7//7
f 25//25 7//7 18//18
f 26//26 18//18 7//7
f 26//26 7//7 4//4
f 27//27 5//5 17//17
f 28//28 20//20 4//4
f 28//28 4//4 9//9
f 28//28 9//9 20//20
f 33//33 22//22 21//21
f 33//33 21//21 2//2
f 33//33 32//32 22//22
f 34//34 22//22 10//10
f 34//34 21//21 22//22
f 36//36 12//12 5//5
f 36//36 5//5 23//23
f 37//37 24//24 7//7
f 37//37 17//17 24//24
f 37//37 7//7 25//25
f 37//37 25//25 19//19
f 37//37 27//27 17//17
f 37//37 19//19 27//27
f 38//38 25//25 18//18
f 38//38 13//13 25//25
f 39//39 25//25 13//13
f 39//39 19//19 25//25
f 40//40 26//26 4//4
f 40//40 4//4 20//20
f 40//40 38//38 26//26
f 40//40 20//20 13//13
f 40//40 13//13 38//38
f 41//41 27//27 19//19
f 41//41 5//5 27//27
f 42//42 39//39 13//13
f 42//42 29//29 39//39
f 43//43 30//30 20//20
f 43//43 6//6 14//14
f 43//43 20//20 9//9
f 43//43 9//9 6//6
f 45//45 10//10 31//31
f 46//46 31//31 14//14
f 46//46 14//14 21//21
f 46//46 45//45 31//31
f 46//46 10//10 45//45
f 46//46 34//34 10//10
f 46//46 21//21 34//34
f 47//47 14//14 31//31
f 47//47 43//43 14//14
f 47//47 30//30 43//43
f 48//48 31//31 10//10
f 48//48 29//29 44//44
f 49//49 33//33 2//2
f 49//49 2//2 15//15
f 49//49 32//32 33//33
f 50//50 10//10 22//22
f 51//51 39//39 29//29
f 51//51 19//19 39//39
f 51//51 41//41 19//19
f 51//51 5//5 41//41
f 52//52 36//36 23//23
f 52//52 23//23 12//12
f 52//52 12//12 36//36
f 53//53 38//38 18//18
f 53//53 18//18 26//26
f 53//53 26//26 38//38
f 54//54 42//42 13//13
f 54//54 13//13 20//20
f 54//54 20//20 44//44
f 54//54 44//44 29//29
f 54//54 29//29 42//42
f 55//55 44//44 20//20
f 55//55 20//20 30//30
f 55//55 30//30 44//44
f 56//56 47//47 31//31
f 56//56 30//30 47//47
f 56//56 31//31 48//48
f 56//56 48//48 44//44
f 57//57 29//29 48//48
f 57//57 51//51 29//29
f 57//57 35//35 51//51
f 57//57 48//48 10//10
f 57//57 10//10 50//50
f 58//58 49//49 15//15
f 58//58 15//15 5//5
f 59//59 22//22 32//32
f 59//59 32//32 49//49
f 60//60 51//51 35//35
f 60//60 5//5 51//51
f 60//60 58//58 5//5
f 60//60 59//59 58//58
f 61//61 56//56 44//44
f 61//61 44//44 30//30
f 61//61 30//30 56//56
f 62//62 57//57 50//50
f 62//62 35//35 57//57
f 62//62 59//59 35//35
f 62//62 50//50 22//22
f 62//62 22//22 59//59
f 63//63 59//59 49//49
f 63//63 49//49 58//58
f 63//63 58//58 59//59
f 64//64 60//60 35//35
f 64//64 35//35 59//59
f 64//64 59//59 60//60

