# https://github.com/mikedh/trimesh
v 0.02956213 0.04793478 -0.00110020
v 0.02956213 0.04052150 -0.00110020
v 0.02954639 0.04052805 -0.01571179
v -0.04023035 0.04935360 -0.01605046
v -0.05174575 0.04950877 -0.00069525
v 0.02955245 0.04794114 -0.01562142
v -0.02677884 0.04941744 0.00038246
v -0.04605338 0.04052150 -0.00703083
v -0.04006212 0.04050838 -0.01624127
v -0.04605338 0.04052150 0.00038246
v -0.05162739 0.05014764 -0.00559145
v -0.01047843 0.04045171 -0.01591260
v -0.02677884 0.04052150 0.00038246
v 0.00138309 0.04942118 -0.01572484
v 0.00139165 0.04941744 -0.00851349
vn 0.59649600 0.56270224 0.57232745
vn 0.58474293 -0.57835685 0.56884010
vn 0.57864890 -0.57407180 -0.57931598
vn -0.27861252 0.60913642 -0.74251457
vn -0.75796428 0.37378975 0.53457588
vn 0.59332605 0.56422888 -0.57411669
vn 0.01606695 0.68486238 0.72849528
vn -0.55074808 -0.80919524 -0.20464511
vn -0.30639161 -0.63163044 -0.71215670
vn -0.39512950 -0.66032788 0.63862334
vn -0.82780533 0.50356253 -0.24731178
vn 0.00223316 -0.96162124 -0.27437128
vn 0.00934000 -0.70263872 0.71148549
vn 0.02721750 0.73752218 -0.67477422
vn 0.03126030 0.99872910 0.03953457
f 6//6 1//1 2//2
f 6//6 2//2 3//3
f 7//7 2//2 1//1
f 9//9 6//6 3//3
f 9//9 4//4 6//6
f 10//10 7//7 5//5
f 10//10 5//5 8//8
f 10//10 8//8 9//9
f 11//11 5//5 7//7
f 11//11 4//4 9//9
f 11//11 9//9 8//8
f 11//11 8//8 5//5
f 12//12 9//9 3//3
f 12//12 3//3 2//2
f 12//12 10//10 9//9
f 13//13 2//2 7//7
f 13//13 7//7 10//10
f 13//13 12//12 2//2
f 13//13 10//10 12//12
f 14//14 6//6 4//4
f 14//14 4//4 11//11
f 14//14 1//1 6//6
f 15//15 14//14 11//11
f 15//15 11//11 7//7
f 15//15 7//7 1//1
f 15//15 1//1 14//14

