# https://github.com/mikedh/trimesh
v 0.03254381 0.04341596 0.01421478
v 0.03251016 0.00484595 0.01399417
v 0.03257516 0.03595629 -0.01411121
v -0.02370708 0.03583194 -0.01460241
v -0.02393892 0.00480418 0.01417032
v 0.02509366 0.00468074 -0.01431949
v 0.03259089 0.04336302 0.00050038
v -0.02375273 0.02556591 0.01424859
v 0.03259217 0.00481141 -0.01415305
v 0.02961530 0.02561871 -0.01431417
v -0.02376994 0.00481368 -0.01464522
v 0.00442041 0.04336302 0.00050038
v -0.02375007 0.03594973 0.00050038
v 0.02371071 0.03588915 -0.01428272
v 0.00442215 0.04335178 0.01417520
v 0.02658579 0.03295688 -0.01429069
vn 0.57622719 0.57747979 0.57834187
vn 0.57783195 -0.57757164 0.57664655
vn 0.61180567 0.42212850 -0.66895541
vn -0.61126171 0.51014475 -0.60507144
vn -0.58023614 -0.57613208 0.57567165
vn 0.01442962 -0.70948385 -0.70457395
vn 0.65984930 0.73083155 -0.17459707
vn -0.68230886 0.22174037 0.69662459
vn 0.58864890 -0.57435016 -0.56887114
vn 0.03390445 0.00258122 -0.99942175
vn -0.57521554 -0.57553989 -0.58127525
vn -0.08709247 0.97722915 -0.19348926
vn -0.76714184 0.62286778 0.15339209
vn 0.00696253 0.52698445 -0.84984641
vn -0.12617702 0.72392944 0.67823707
vn 0.01478172 0.01280984 -0.99980869
f 5//5 2//2 1//1
f 6//6 2//2 5//5
f 7//7 1//1 2//2
f 8//8 5//5 1//1
f 9//9 2//2 6//6
f 9//9 7//7 2//2
f 9//9 3//3 7//7
f 10//10 9//9 6//6
f 10//10 3//3 9//9
f 11//11 6//6 5//5
f 11//11 5//5 4//4
f 11//11 10//10 6//6
f 11//11 4//4 10//10
f 12//12 7//7 4//4
f 12//12 1//1 7//7
f 13//13 4//4 5//5
f 13//13 5//5 8//8
f 13//13 12//12 4//4
f 14//14 7//7 3//3
f 14//14 4//4 7//7
f 15//15 13//13 8//8
f 15//15 8//8 1//1
f 15//15 1//1 12//12
f 15//15 12//12 13//13
f 16//16 14//14 3//3
f 16//16 3//3 10//10
f 16//16 10//10 4//4
f 16//16 4//4 14//14

