# https://github.com/mikedh/trimesh
v -0.04216815 0.07163632 0.02169520
v -0.02548928 0.01423228 0.02186560
v -0.03779452 0.07475933 -0.01889019
v -0.06731854 0.06836706 -0.02261701
v -0.08123038 0.06517478 0.01489983
v -0.03370625 0.02198739 -0.02080017
v -0.03793464 0.07584789 0.01646839
v -0.06379595 0.02411699 0.02364991
v -0.02626560 0.02245907 -0.01255937
v -0.04818091 0.06558341 -0.02253390
v -0.03802090 0.07395469 0.01852296
v -0.07503443 0.07634691 0.01862861
v -0.03527275 0.01423395 0.02240272
v -0.06709356 0.04329168 -0.02323577
v -0.02969282 0.02181452 -0.01736623
v -0.02526603 0.02403487 0.00205649
v -0.03978719 0.07666774 -0.01880682
v -0.03592790 0.02330615 -0.02159728
v -0.04058719 0.07569895 0.01954416
v -0.02526834 0.01848385 0.01976112
v -0.07238209 0.07290753 0.02162204
v -0.07867762 0.07402379 -0.01573773
v -0.06398125 0.02396593 0.00296819
v -0.03242755 0.01381146 0.02212837
v -0.03594335 0.07462280 -0.01257607
v -0.05445837 0.06837459 -0.02231285
v -0.03991567 0.07796704 0.01480196
v -0.05136772 0.04307264 -0.02260691
v -0.02543205 0.02228932 0.01373112
v -0.07235246 0.06558049 0.02215104
v -0.04490004 0.07362791 0.02162481
v -0.07950725 0.07363928 0.01393821
v -0.08046667 0.06595173 -0.00992923
v -0.07289565 0.07351751 -0.02035627
v -0.07206459 0.07748222 -0.01547341
v -0.05115597 0.02396593 -0.00985710
v -0.03559568 0.07384689 -0.01052367
v -0.03553521 0.07127237 -0.01500712
v -0.03791645 0.07565996 -0.01804884
v -0.04220127 0.07787698 0.01733276
v -0.04816645 0.04978994 -0.02247640
v -0.07692870 0.07559542 0.01698340
v -0.08035446 0.07299870 -0.00996263
v -0.07242371 0.07538936 -0.01909133
v -0.04078890 0.07807274 -0.01780121
v -0.06401348 0.07808182 0.01710700
v -0.07757224 0.07531944 -0.01484189
v -0.06354989 0.07765026 -0.01838680
v -0.07254673 0.07794076 0.01503435
f 11 1 2
f 13 2 1
f 13 1 8
f 14 4 10
f 15 6 3
f 15 3 9
f 15 9 2
f 15 2 6
f 16 2 9
f 17 3 10
f 18 10 3
f 18 3 6
f 19 11 7
f 19 1 11
f 20 11 2
f 20 7 11
f 20 2 16
f 21 12 5
f 23 13 8
f 23 6 13
f 23 8 5
f 24 13 6
f 24 6 2
f 24 2 13
f 26 17 10
f 26 10 4
f 26 4 17
f 27 7 25
f 27 19 7
f 28 18 14
f 28 14 10
f 29 20 16
f 29 7 20
f 30 8 1
f 30 21 5
f 30 5 8
f 31 12 21
f 31 1 19
f 31 30 1
f 31 21 30
f 33 22 14
f 33 23 5
f 33 14 23
f 34 4 14
f 34 14 22
f 34 17 4
f 36 18 6
f 36 6 23
f 36 23 14
f 36 14 18
f 37 16 9
f 37 29 16
f 37 25 7
f 37 7 29
f 38 9 3
f 38 3 25
f 38 37 9
f 38 25 37
f 39 25 3
f 39 3 17
f 40 19 27
f 41 28 10
f 41 10 18
f 41 18 28
f 42 32 5
f 42 5 12
f 43 22 33
f 43 33 5
f 43 5 32
f 44 34 22
f 45 39 17
f 45 27 25
f 45 25 39
f 46 31 19
f 46 19 40
f 46 12 31
f 46 40 27
f 46 27 45
f 47 22 43
f 47 43 32
f 47 32 42
f 47 44 22
f 47 35 44
f 48 17 34
f 48 34 44
f 48 45 17
f 48 44 35
f 49 12 46
f 49 35 47
f 49 47 42
f 49 42 12
f 49 48 35
f 49 46 45
f 49 45 48

