# https://github.com/mikedh/trimesh
v -0.06417931 0.04311903 0.02368031
v -0.02903135 -0.07234328 0.01565853
v -0.03043330 0.02678052 0.00283926
v -0.07959182 0.04322629 0.00297102
v -0.07000104 -0.08102806 0.01852194
v -0.06398125 0.04320386 0.00296819
v -0.03596768 0.01996006 0.02155977
v -0.07713597 0.04326325 0.01902274
v -0.06549609 -0.08493176 0.00239526
v -0.02454016 -0.02202517 0.01609937
v -0.03581811 0.02326128 0.02058298
v -0.03567740 -0.07554116 0.02185351
v -0.06744436 -0.06490337 0.02200687
v -0.07619466 -0.03350757 0.01452349
v -0.07974477 0.04339990 0.00675721
v -0.02855925 -0.06221601 0.00282318
v -0.03922378 0.02369963 0.02165773
v -0.02649646 -0.01923479 0.01957977
v -0.03520771 -0.08386935 0.01540719
v -0.07631733 -0.00790118 0.01983727
v -0.06461812 -0.08015524 0.02208848
v -0.07315436 -0.06556723 0.00321545
v -0.07629158 -0.03336715 0.01005267
v -0.03062978 -0.07248667 0.01897938
v -0.04770269 -0.08560992 0.00290375
v -0.06677485 -0.08634480 0.01856379
v -0.07019985 -0.07502988 0.01902115
v -0.07289398 -0.06232845 0.01721842
v -0.07989397 0.04304135 0.01491061
v -0.07179661 0.04293027 0.02196974
v -0.07032352 -0.08053116 0.00338976
v -0.07973190 0.03701068 0.00981785
v -0.07314188 -0.06835976 0.00916972
v -0.03567857 -0.08156288 0.01952755
v -0.06846332 -0.08417388 0.01906116
v -0.07608192 -0.02337214 0.01785179
v -0.07228453 -0.01143020 0.02133335
v -0.07017395 -0.08187431 0.00966701
v -0.07318073 -0.06846144 0.00638404
v -0.07328262 -0.06522137 0.01565311
v -0.06525687 -0.08080770 0.02161241
v -0.07956477 0.03697069 0.01525250
v -0.06812402 -0.08438911 0.01347037
v -0.06976934 -0.08262104 0.01545185
f 6 1 3
f 6 3 4
f 9 4 3
f 11 3 1
f 11 10 3
f 12 7 1
f 15 6 4
f 15 8 1
f 15 1 6
f 16 9 3
f 16 10 2
f 16 3 10
f 17 11 1
f 17 1 7
f 17 7 11
f 18 11 7
f 18 10 11
f 18 7 12
f 19 16 2
f 21 12 1
f 21 1 13
f 22 4 9
f 23 4 22
f 24 18 12
f 24 2 10
f 24 10 18
f 25 9 16
f 25 16 19
f 26 25 19
f 26 9 25
f 27 20 5
f 27 5 13
f 27 13 20
f 28 5 20
f 29 20 8
f 29 8 15
f 30 13 1
f 30 1 8
f 30 8 20
f 31 22 9
f 32 15 4
f 32 4 23
f 32 29 15
f 32 23 14
f 32 14 29
f 33 14 23
f 34 19 2
f 34 2 24
f 34 24 12
f 34 26 19
f 34 12 21
f 34 21 26
f 36 28 20
f 37 30 20
f 37 20 13
f 37 13 30
f 38 31 9
f 38 5 33
f 39 33 23
f 39 23 22
f 39 22 31
f 39 38 33
f 39 31 38
f 40 14 33
f 40 36 14
f 40 28 36
f 40 33 5
f 40 5 28
f 41 35 26
f 41 26 21
f 41 5 35
f 41 21 13
f 41 13 5
f 42 29 14
f 42 14 36
f 42 36 20
f 42 20 29
f 43 38 9
f 43 9 26
f 43 26 38
f 44 38 26
f 44 26 35
f 44 35 5
f 44 5 38

