# https://github.com/mikedh/trimesh
v 0.07247915 0.07028092 0.04000000
v 0.08139642 0.02817310 0.04000000
v 0.07807783 0.05939572 0.00000000
v 0.03614792 0.09193834 0.00000000
v 0.03659879 -0.00237782 0.04000000
v 0.06130415 0.08144302 0.00000000
v 0.07807783 0.05939572 0.04000000
v 0.03614792 0.09193834 0.04000000
v 0.06790106 -0.00068536 0.00000000
v 0.07247915 0.07028092 0.00000000
v 0.08162296 0.04240882 0.04000000
v 0.03517166 0.04993322 0.04000000
v 0.05014887 0.08754493 0.04000000
v 0.08139642 0.02817310 -0.00000000
v 0.06790106 -0.00068536 0.04000000
v 0.03659879 -0.00237782 0.00000000
v 0.05014887 0.08754493 0.00000000
v 0.04181440 0.09054454 0.04000000
v 0.06130415 0.08144302 0.04000000
v 0.08162296 0.04240882 0.00000000
v 0.07859047 0.01666653 0.04000000
v 0.03517166 0.04993322 0.00000000
v 0.04181440 0.09054454 0.00000000
v 0.07285931 0.00552861 0.04000000
v 0.07859047 0.01666653 0.00000000
v 0.07285931 0.00552861 0.00000000
f 5 2 1
f 7 1 2
f 7 3 1
f 8 5 1
f 10 6 1
f 10 1 3
f 11 7 2
f 11 3 7
f 12 8 4
f 12 5 8
f 13 8 1
f 14 10 3
f 14 6 10
f 15 2 5
f 15 5 9
f 16 9 5
f 16 5 12
f 17 13 6
f 17 6 14
f 18 4 8
f 18 8 13
f 18 13 17
f 19 13 1
f 19 1 6
f 19 6 13
f 20 14 3
f 20 3 11
f 20 11 2
f 20 2 14
f 21 2 15
f 22 16 12
f 22 12 4
f 22 4 14
f 22 14 16
f 23 18 17
f 23 4 18
f 23 17 14
f 23 14 4
f 24 21 15
f 25 14 2
f 25 2 21
f 25 21 24
f 26 25 24
f 26 14 25
f 26 16 14
f 26 9 16
f 26 24 15
f 26 15 9

