# https://github.com/mikedh/trimesh
v 0.06644810 -0.00218688 0.04000000
v 0.06494658 -0.00373858 0.04000000
v 0.05022574 -0.02434682 0.00000000
v -0.01147580 -0.00237782 0.00000000
v -0.01147580 -0.00237782 0.04000000
v 0.06644810 -0.00218688 0.00000000
v 0.05022574 -0.02434682 0.04000000
v -0.01298610 -0.02941978 0.00000000
v -0.01298610 -0.02941978 0.04000000
v 0.01052813 -0.02881529 0.00000000
v 0.01052813 -0.02881529 0.04000000
f 5 2 1
f 6 3 4
f 6 5 1
f 6 4 5
f 7 1 2
f 7 6 1
f 7 3 6
f 7 2 5
f 8 5 4
f 8 4 3
f 9 7 5
f 9 5 8
f 10 8 3
f 10 3 7
f 10 9 8
f 11 10 7
f 11 7 9
f 11 9 10

