# https://github.com/mikedh/trimesh
v -0.02668059 -0.01935194 0.02007264
v -0.02924523 -0.07975242 0.01273181
v -0.02603239 -0.01982164 -0.02093856
v -0.06930036 -0.02055238 -0.02277850
v -0.07437940 -0.04299419 0.01750180
v -0.03870288 -0.07881472 -0.02240689
v -0.07373259 -0.02026306 -0.01807617
v -0.03867033 -0.07763366 0.02180184
v -0.02887453 -0.07721021 -0.01699489
v -0.03246798 -0.01999810 -0.02241261
v -0.06410499 -0.02078055 0.02365036
v -0.06974100 -0.08249800 -0.01478900
v -0.03182074 -0.07950182 0.01884413
v -0.03362918 -0.07723849 -0.02185718
v -0.02886648 -0.07961661 -0.01487025
v -0.07573405 -0.02064223 0.00303824
v -0.04166065 -0.02069755 0.02200879
v -0.06789499 -0.06231283 0.02164879
v -0.07020863 -0.06452124 -0.01986158
v -0.02933794 -0.07537589 0.01711167
v -0.03591268 -0.07507981 0.02175952
v -0.03576766 -0.08433555 0.01239666
v -0.03170532 -0.07911153 -0.01947087
v -0.07344563 -0.06217639 0.00330482
v -0.06843017 -0.04294507 0.02216484
v -0.06601727 -0.08484752 0.00287629
v -0.07329273 -0.05258871 -0.01248105
v -0.06562092 -0.07748490 -0.02183912
v -0.03173754 -0.08131258 0.01701133
v -0.03596381 -0.06882017 0.02175586
v -0.03364805 -0.08428330 -0.00658434
v -0.07297663 -0.06190691 0.01701211
v -0.04723106 -0.08153112 0.01896922
v -0.06974400 -0.08013016 -0.01739166
v -0.07281246 -0.04272730 -0.01802217
v -0.06776146 -0.06485534 -0.02206812
v -0.06564042 -0.08213713 -0.01979890
v -0.03399200 -0.08172000 0.01872500
v -0.03385347 -0.08413615 0.00258663
v -0.03142530 -0.08102521 -0.01684015
v -0.03573733 -0.08460861 -0.00899801
v -0.07069101 -0.08022287 0.00292791
v -0.04454505 -0.07756390 0.02162634
v -0.04806400 -0.08453300 0.01220900
v -0.06739219 -0.08021839 -0.02003220
v -0.07296508 -0.04932134 -0.01539601
v -0.06088315 -0.08000450 -0.02207424
v -0.06647920 -0.08441534 -0.01502077
v -0.04172181 -0.08103688 -0.02014193
v -0.06990879 -0.08341605 -0.00776000
v -0.05787526 -0.08452994 -0.01529505
v -0.04136223 -0.08403921 -0.01234068
v -0.06855079 -0.08428963 -0.01226712
v -0.06769273 -0.08452234 -0.00428984
vn 0.61095561 0.58467395 0.53375051
vn 0.88581824 -0.44926235 0.11614382
vn 0.64602693 0.57432709 -0.50278982
vn -0.31715002 0.58864596 -0.74358040
vn -0.89125047 0.01707647 0.45318979
vn 0.11552760 -0.45251483 -0.88424188
vn -0.70734721 0.62782477 -0.32480144
vn 0.07527641 -0.32075824 0.94416503
vn 0.89063773 -0.18359086 -0.41600340
vn 0.07887108 0.65801671 -0.74886138
vn -0.31783113 0.62409882 0.71378151
vn -0.81671288 -0.50849248 -0.27279197
vn 0.62245118 -0.33449445 0.70757896
vn 0.40222733 -0.27220501 -0.87413821
vn 0.86372505 -0.47133263 -0.17839445
vn -0.75014914 0.65341467 0.10161464
vn 0.08299634 0.27895732 0.95671021
vn -0.41067771 -0.26503313 0.87241118
vn -0.82029163 -0.07880727 -0.56649012
vn 0.88669422 -0.12876358 0.44406452
vn 0.29003084 -0.10991658 0.95068420
vn 0.23214449 -0.95709478 0.17343159
vn 0.53377403 -0.52348911 -0.66411176
vn -0.99432056 -0.10570847 -0.01234302
vn -0.42469743 -0.00509662 0.90532100
vn -0.38020728 -0.87488458 0.30003232
vn -0.98949060 -0.07410725 -0.12416307
vn -0.33689924 -0.16567283 -0.92685027
vn 0.65208955 -0.67564314 0.34392670
vn 0.11885114 0.00209819 0.99290987
vn 0.44227263 -0.89626505 -0.03322488
vn -0.86084317 -0.24986999 0.44329901
vn -0.18964057 -0.71081261 0.67733439
vn -0.85441387 -0.29797606 -0.42566091
vn -0.90066098 -0.04140553 -0.43254523
vn -0.39070510 -0.05265190 -0.91900887
vn -0.27373798 -0.69682668 -0.66294804
vn 0.26611818 -0.72055527 0.64029776
vn 0.44654430 -0.89424267 0.03046681
vn 0.43482758 -0.80341857 -0.40674756
vn 0.16835649 -0.97209679 -0.16335213
vn -0.83994644 -0.46251264 0.28385215
vn -0.09241299 -0.31368325 0.94501993
vn -0.06479678 -0.96725279 0.24540458
vn -0.57346824 -0.37170444 -0.73004794
vn -0.97555481 -0.06505020 -0.20990781
vn -0.04385700 -0.41918716 -0.90683995
vn -0.22712468 -0.93124204 -0.28496079
vn 0.08595175 -0.84348495 -0.53023149
vn -0.82082259 -0.57116038 0.00510850
vn 0.01587296 -0.96175883 -0.27343739
vn 0.09647811 -0.93767077 -0.33386450
vn -0.45421998 -0.88359137 -0.11380029
vn -0.35349807 -0.93472827 0.03636167
f 1//1 2//2 3//3
f 7//7 1//1 3//3
f 10//10 6//6 4//4
f 10//10 7//7 3//3
f 10//10 4//4 7//7
f 14//14 3//3 9//9
f 14//14 10//10 3//3
f 14//14 6//6 10//10
f 15//15 9//9 3//3
f 15//15 3//3 2//2
f 16//16 5//5 11//11
f 16//16 11//11 1//1
f 16//16 1//1 7//7
f 17//17 1//1 11//11
f 18//18 8//8 11//11
f 19//19 7//7 4//4
f 20//20 2//2 1//1
f 20//20 1//1 13//13
f 21//21 13//13 1//1
f 21//21 8//8 13//13
f 21//21 11//11 8//8
f 23//23 14//14 9//9
f 23//23 9//9 15//15
f 23//23 6//6 14//14
f 24//24 5//5 16//16
f 25//25 18//18 11//11
f 25//25 11//11 5//5
f 25//25 5//5 18//18
f 27//27 12//12 24//24
f 27//27 24//24 16//16
f 27//27 16//16 7//7
f 29//29 20//20 13//13
f 29//29 2//2 20//20
f 30//30 21//21 1//1
f 30//30 1//1 17//17
f 30//30 17//17 11//11
f 30//30 11//11 21//21
f 31//31 15//15 2//2
f 32//32 18//18 5//5
f 32//32 5//5 24//24
f 33//33 18//18 26//26
f 34//34 12//12 27//27
f 35//35 7//7 19//19
f 35//35 19//19 34//34
f 36//36 19//19 4//4
f 38//38 29//29 13//13
f 38//38 13//13 8//8
f 38//38 8//8 33//33
f 38//38 22//22 29//29
f 39//39 29//29 22//22
f 39//39 22//22 31//31
f 39//39 31//31 2//2
f 39//39 2//2 29//29
f 40//40 23//23 15//15
f 40//40 15//15 31//31
f 40//40 6//6 23//23
f 41//41 31//31 22//22
f 41//41 40//40 31//31
f 42//42 26//26 18//18
f 42//42 18//18 32//32
f 42//42 32//32 24//24
f 43//43 33//33 8//8
f 43//43 8//8 18//18
f 43//43 18//18 33//33
f 44//44 33//33 26//26
f 44//44 38//38 33//33
f 44//44 22//22 38//38
f 44//44 41//41 22//22
f 44//44 26//26 41//41
f 45//45 34//34 19//19
f 45//45 28//28 37//37
f 45//45 37//37 12//12
f 45//45 12//12 34//34
f 45//45 36//36 28//28
f 45//45 19//19 36//36
f 46//46 35//35 34//34
f 46//46 34//34 27//27
f 46//46 27//27 7//7
f 46//46 7//7 35//35
f 47//47 36//36 4//4
f 47//47 4//4 6//6
f 47//47 28//28 36//36
f 47//47 37//37 28//28
f 48//48 12//12 37//37
f 49//49 6//6 40//40
f 49//49 47//47 6//6
f 49//49 37//37 47//47
f 50//50 26//26 42//42
f 50//50 42//42 24//24
f 50//50 24//24 12//12
f 51//51 41//41 26//26
f 51//51 26//26 48//48
f 51//51 48//48 37//37
f 51//51 37//37 49//49
f 52//52 49//49 40//40
f 52//52 40//40 41//41
f 52//52 51//51 49//49
f 52//52 41//41 51//51
f 53//53 48//48 26//26
f 53//53 50//50 12//12
f 53//53 12//12 48//48
f 54//54 53//53 26//26
f 54//54 26//26 50//50
f 54//54 50//50 53//53

