# https://github.com/mikedh/trimesh
v -0.08718347 0.07319298 0.01335754
v -0.08621137 0.04756772 0.01288797
v -0.08714857 0.07327975 -0.01326130
v -0.11256957 0.07326535 -0.01340524
v -0.11368149 0.04756787 0.01298889
v -0.08700226 0.04756787 -0.01368832
v -0.11266309 0.07329317 0.01337271
v -0.08648901 0.07310218 0.01270839
v -0.08702938 0.04756787 0.01373173
v -0.08617864 0.04756787 -0.01277978
v -0.11336408 0.04756787 -0.01337185
v -0.11334516 0.07326320 -0.01262435
v -0.08651081 0.07321260 -0.01257849
v -0.11276698 0.04756787 0.01381629
v -0.11332030 0.07327412 0.01276258
v -0.11324280 0.07253912 -0.01338240
vn 0.29876418 0.64310677 0.70509123
vn 0.72173166 -0.62688255 0.29346496
vn 0.32025105 0.63918626 -0.69919968
vn -0.15779214 0.69566894 -0.70081836
vn -0.71769435 -0.62027059 0.31651101
vn 0.31624553 -0.62035983 -0.71773424
vn -0.28332227 0.64182392 0.71259424
vn 0.75426958 0.58152061 0.30481336
vn 0.30546178 -0.62360363 0.71959128
vn 0.72529741 -0.62882250 -0.28022480
vn -0.57710835 -0.57855144 -0.57638892
vn -0.70606019 0.68892223 -0.16390595
vn 0.74971043 0.60118520 -0.27660554
vn -0.27870093 -0.62779137 0.72677630
vn -0.71906455 0.62297223 0.30798016
vn -0.66438613 0.13438044 -0.73520947
f 6//6 4//4 3//3
f 7//7 1//1 3//3
f 7//7 3//3 4//4
f 9//9 8//8 1//1
f 9//9 2//2 8//8
f 10//10 2//2 6//6
f 10//10 8//8 2//2
f 11//11 4//4 6//6
f 11//11 6//6 2//2
f 11//11 2//2 5//5
f 12//12 7//7 4//4
f 12//12 11//11 5//5
f 13//13 3//3 1//1
f 13//13 1//1 8//8
f 13//13 8//8 10//10
f 13//13 10//10 6//6
f 13//13 6//6 3//3
f 14//14 7//7 5//5
f 14//14 5//5 2//2
f 14//14 2//2 9//9
f 14//14 9//9 1//1
f 14//14 1//1 7//7
f 15//15 12//12 5//5
f 15//15 5//5 7//7
f 15//15 7//7 12//12
f 16//16 12//12 4//4
f 16//16 4//4 11//11
f 16//16 11//11 12//12

