# https://github.com/mikedh/trimesh
v 0.12126339 0.02815832 0.00289139
v 0.12820084 0.00768488 0.00268300
v 0.12482448 0.02533062 -0.01953371
v 0.02577194 0.01080962 -0.02240187
v 0.02572353 0.00491830 0.00298239
v 0.12569200 0.00823665 -0.01927185
v 0.02584320 0.02354463 -0.01502740
v 0.12670476 0.02065286 0.00292956
v 0.12772651 0.01719052 -0.01585157
v 0.08019014 0.00490091 -0.02227620
v 0.09012071 0.02683400 -0.01460307
v 0.02584745 0.01967262 -0.02031530
v 0.02585317 0.02474057 0.00290933
v 0.12603266 0.02585988 -0.01297191
v 0.08019230 0.00491830 0.00298239
v 0.12825818 0.00817104 -0.01488239
v 0.12774870 0.01732614 -0.00395351
v 0.04186837 0.01107525 -0.02229646
v 0.02579911 0.00499141 -0.02266681
v 0.12385659 0.02756381 -0.01246158
v 0.11302962 0.02681073 -0.01796009
v 0.07093642 0.02691803 -0.00926434
v 0.06403195 0.00459093 -0.02256900
v 0.06420912 0.00787280 -0.02228682
v 0.12356917 0.02663601 -0.01800391
v 0.02898436 0.02104582 -0.01931285
v 0.07086036 0.02711040 0.00267536
vn 0.30095231 0.71325541 0.63300428
vn 0.61518209 -0.54648445 0.56824796
vn 0.52916212 0.45385407 -0.71694068
vn -0.68762307 0.09890840 -0.71929942
vn -0.58057335 -0.57326751 0.57818590
vn 0.44208187 -0.57729130 -0.68651175
vn -0.67585956 0.69711872 -0.23924744
vn 0.67652028 0.24260354 0.69531564
vn 0.95376674 0.09779859 -0.28419085
vn 0.04678298 -0.67660593 -0.73485766
vn -0.03238516 0.97914024 -0.20058810
vn -0.65592412 0.38816994 -0.64736979
vn -0.58859828 0.57998490 0.56317811
vn 0.83805727 0.54248420 -0.05805956
vn 0.02334015 -0.71029058 0.70352152
vn 0.76443095 -0.61256424 -0.20102330
vn 0.98977049 0.13883759 0.03284048
vn 0.00529524 0.11545704 -0.99329836
vn -0.57476084 -0.56210292 -0.59471866
vn 0.33806808 0.93912632 -0.06125140
vn -0.02068865 0.87280879 -0.48762362
vn -0.04217673 0.99417534 -0.09917924
vn 0.01315228 -0.68157820 -0.73162707
vn 0.01505894 0.09370882 -0.99548575
vn 0.25576871 0.89620644 -0.36248640
vn -0.06882774 0.75234788 -0.65516060
vn -0.02947504 0.80899927 0.58707019
f 7//7 4//4 5//5
f 9//9 6//6 3//3
f 10//10 3//3 6//6
f 12//12 3//3 4//4
f 12//12 4//4 7//7
f 13//13 7//7 5//5
f 13//13 8//8 1//1
f 13//13 5//5 8//8
f 14//14 1//1 8//8
f 14//14 9//9 3//3
f 15//15 8//8 5//5
f 15//15 2//2 8//8
f 15//15 10//10 2//2
f 16//16 6//6 9//9
f 16//16 10//10 6//6
f 16//16 2//2 10//10
f 17//17 8//8 2//2
f 17//17 16//16 9//9
f 17//17 2//2 16//16
f 17//17 14//14 8//8
f 17//17 9//9 14//14
f 18//18 4//4 3//3
f 19//19 5//5 4//4
f 20//20 1//1 14//14
f 21//21 7//7 11//11
f 21//21 3//3 12//12
f 21//21 11//11 20//20
f 22//22 11//11 7//7
f 22//22 7//7 13//13
f 22//22 20//20 11//11
f 22//22 1//1 20//20
f 23//23 15//15 5//5
f 23//23 10//10 15//15
f 23//23 5//5 19//19
f 23//23 19//19 4//4
f 23//23 4//4 18//18
f 24//24 18//18 3//3
f 24//24 3//3 10//10
f 24//24 23//23 18//18
f 24//24 10//10 23//23
f 25//25 20//20 14//14
f 25//25 14//14 3//3
f 25//25 21//21 20//20
f 25//25 3//3 21//21
f 26//26 21//21 12//12
f 26//26 12//12 7//7
f 26//26 7//7 21//21
f 27//27 22//22 13//13
f 27//27 13//13 1//1
f 27//27 1//1 22//22

