# https://github.com/mikedh/trimesh
v -0.07872070 -0.02054250 0.00211538
v -0.08000051 -0.06750007 0.00211538
v -0.08028110 -0.06750000 -0.01826790
v -0.09403874 -0.01749989 -0.01999988
v -0.09788462 -0.03865385 0.00211538
v -0.08057718 -0.01749985 -0.01999447
v -0.09403846 -0.01750000 0.00211538
v -0.09788462 -0.06750000 0.00211538
v -0.08028110 -0.03865385 -0.01826790
v -0.09788462 -0.06750005 -0.01999949
v -0.08146125 -0.06750000 -0.01957341
v -0.09788489 -0.03865374 -0.01999868
vn 0.65422776 0.46809052 0.59403477
vn 0.57302781 -0.58375493 0.57521241
vn 0.71216157 -0.64304227 -0.28164256
vn -0.51844545 0.62131286 -0.58752417
vn -0.72330115 0.06521987 0.68744586
vn 0.55678019 0.59383218 -0.58082627
vn -0.47577997 0.64958767 0.59301709
vn -0.57734937 -0.57734942 0.57735203
vn 0.99246476 0.00106461 -0.12252580
vn -0.57125118 -0.57766188 -0.58307705
vn 0.32080517 -0.63387612 -0.70376495
vn -0.72347163 0.06522506 -0.68726595
f 1//1 2//2 3//3
f 7//7 6//6 4//4
f 7//7 1//1 6//6
f 7//7 5//5 2//2
f 7//7 2//2 1//1
f 8//8 2//2 5//5
f 9//9 6//6 1//1
f 9//9 1//1 3//3
f 9//9 3//3 6//6
f 10//10 4//4 6//6
f 10//10 2//2 8//8
f 11//11 10//10 6//6
f 11//11 6//6 3//3
f 11//11 3//3 2//2
f 11//11 2//2 10//10
f 12//12 4//4 10//10
f 12//12 7//7 4//4
f 12//12 5//5 7//7
f 12//12 10//10 8//8
f 12//12 8//8 5//5

