# https://github.com/mikedh/trimesh
v 0.11855677 0.01996438 0.02326778
v 0.12667951 -0.01055821 0.01955527
v 0.12487993 0.02528584 -0.01950166
v 0.06778182 0.01954692 -0.02100056
v 0.08006979 -0.01289707 0.02142847
v 0.12382700 -0.01061900 -0.01915000
v 0.08014200 0.02651063 0.01288087
v 0.12480928 0.02479495 0.01824516
v 0.12050238 -0.00579500 0.02326308
v 0.12830643 -0.00937721 -0.01254566
v 0.11422746 -0.00226095 -0.02294845
v 0.07994929 -0.01425101 -0.01965761
v 0.06792909 0.02678132 -0.00874932
v 0.08001570 0.01221519 0.02352260
v 0.12333567 0.02307876 0.02118093
v 0.12043583 0.02824482 0.01302804
v 0.12397477 -0.01087910 0.02129082
v 0.12663553 0.01655723 -0.01946144
v 0.12003155 -0.01572362 -0.00835170
v 0.12860821 0.00178009 0.01114180
v 0.12356873 0.02393251 -0.02069712
v 0.06783824 0.00408648 -0.00900198
v 0.10005679 -0.00911349 -0.02261813
v 0.06790909 0.02411456 -0.01789757
v 0.10241038 0.02308203 0.02172219
v 0.09439641 0.01625317 0.02344441
v 0.08416293 -0.00783651 0.02331496
v 0.08005113 0.02590643 0.01525570
v 0.12664652 0.00197727 0.01966936
v 0.12037200 0.01821088 0.02321328
v 0.12460066 0.02640833 0.01482010
v 0.12046521 0.02463403 0.02121395
v 0.11267596 0.02830816 0.01122613
v 0.12648537 -0.00915266 -0.01781984
v 0.12494027 0.01712672 -0.02121922
v 0.12548561 -0.01387812 -0.01249412
v 0.12385972 -0.01404050 0.01821149
v 0.07983697 -0.01802970 0.01098016
v 0.12872246 -0.00590518 0.00927717
v 0.12847457 0.01391950 -0.01287857
v 0.10441832 -0.00009438 -0.02313621
v 0.06783737 0.00405134 -0.02255297
v 0.06772029 0.02261146 -0.01949106
v 0.08000706 0.00615616 0.02352275
v 0.11430764 -0.00548712 -0.02279155
v 0.09000710 -0.01233160 -0.02096785
v 0.11691700 0.02815028 -0.01453988
v 0.11479454 0.01980580 0.02324549
v 0.10007445 -0.00956076 0.02304483
v 0.11470580 0.02826600 0.01302044
v 0.12459943 0.02322755 0.01987109
v 0.12881139 -0.00399485 0.01129850
v 0.12524297 -0.00943236 0.02147240
v 0.12221600 0.02805300 -0.01275500
v 0.12311211 0.02627535 0.01826343
v 0.10246593 0.02476289 0.02016383
v 0.11696255 0.02466044 0.02130382
v 0.12836008 0.00425762 -0.01431579
v 0.12495509 0.01936121 -0.02119770
v 0.12381172 -0.00593261 -0.02047008
v 0.12512737 -0.00921876 -0.01925304
v 0.12652922 -0.01275265 0.01698836
v 0.12641064 -0.01244208 -0.01434285
v 0.09413728 -0.01789944 -0.01036997
vn 0.07922769 0.20877190 0.97474985
vn 0.81397540 -0.33086228 0.47746644
vn 0.59434773 0.63365748 -0.49520599
vn -0.66001477 0.19492619 -0.72552345
vn -0.53073650 -0.52421431 0.66597157
vn 0.28611463 -0.63112473 -0.72098543
vn -0.18174149 0.96875976 0.16874409
vn 0.82955768 0.44079854 0.34282750
vn 0.15562437 -0.12154377 0.98031024
vn 0.95676854 -0.25559976 -0.13879023
vn 0.10993089 -0.01260999 -0.99385924
vn -0.40469202 -0.70575349 -0.58149496
vn -0.72052497 0.69115979 0.05605283
vn -0.54420259 0.17196652 0.82114010
vn 0.49219823 0.34067971 0.80104821
vn 0.16361501 0.97603775 0.14345882
vn 0.24023254 -0.52751567 0.81487149
vn 0.88308514 0.06788090 -0.46427666
vn 0.17363463 -0.98024861 -0.09467665
vn 0.99030064 0.07202066 0.11881776
vn 0.16840957 0.38967309 -0.90542426
vn -0.97036976 -0.20207379 0.13247156
vn 0.02288195 -0.35370225 -0.93507814
vn -0.60652662 0.69833422 -0.38007206
vn -0.07852994 0.50460446 0.85977171
vn -0.04020024 0.17493167 0.98375955
vn -0.11396002 -0.15940684 0.98061337
vn -0.46494160 0.69995617 0.54211684
vn 0.85445901 0.05058783 0.51704997
vn 0.28208307 0.06919114 0.95689170
vn 0.74111893 0.66294415 0.10605558
vn 0.13458477 0.63516410 0.76056131
vn -0.02657417 0.99914331 0.03172461
vn 0.80364619 -0.28556958 -0.52211380
vn 0.46082591 -0.00987955 -0.88743556
vn 0.49186417 -0.84480946 -0.21063384
vn 0.27879111 -0.87331206 0.39950165
vn -0.50139921 -0.84455480 0.18795218
vn 0.98747098 -0.15466898 0.03128221
vn 0.98739587 0.12995629 -0.09033693
vn 0.00084751 0.02121634 -0.99977455
vn -0.71401610 -0.19039540 -0.67374372
vn -0.68722285 0.43918008 -0.57865847
vn -0.57085334 -0.02033503 0.82080019
vn 0.12019441 -0.21644290 -0.96886830
vn 0.00045428 -0.55439278 -0.83225503
vn 0.00255246 0.96013886 -0.27951181
vn -0.01750017 0.23908506 0.97084091
vn 0.01789938 -0.34346109 0.93899632
vn -0.01764923 0.97719882 0.21159151
vn 0.81031593 0.27405168 0.51796117
vn 0.99241476 -0.03886762 0.11662873
vn 0.52716645 -0.21346608 0.82251308
vn 0.36234547 0.92628912 -0.10341292
vn 0.33454583 0.83031421 0.44570999
vn -0.06596472 0.81200092 0.57991651
vn -0.01033663 0.68732070 0.72628053
vn 0.97788919 -0.01584566 -0.20852253
vn 0.47228201 0.12513124 -0.87252041
vn 0.39295265 -0.12292099 -0.91130601
vn 0.53873718 -0.32188122 -0.77855940
vn 0.76234927 -0.61694642 0.19545000
vn 0.68118784 -0.65325172 -0.33052279
vn 0.01723638 -0.97772845 -0.20916495
f 26//26 9//9 1//1
f 26//26 25//25 14//14
f 28//28 7//7 13//13
f 28//28 13//13 14//14
f 28//28 14//14 25//25
f 30//30 15//15 1//1
f 30//30 1//1 9//9
f 32//32 1//1 15//15
f 33//33 13//13 7//7
f 37//37 2//2 17//17
f 37//37 17//17 5//5
f 37//37 19//19 36//36
f 38//38 5//5 22//22
f 38//38 37//37 5//5
f 38//38 19//19 37//37
f 40//40 18//18 3//3
f 40//40 3//3 31//31
f 40//40 31//31 8//8
f 40//40 8//8 20//20
f 42//42 38//38 22//22
f 42//42 12//12 38//38
f 42//42 23//23 12//12
f 42//42 41//41 23//23
f 42//42 4//4 41//41
f 43//43 22//22 13//13
f 43//43 42//42 22//22
f 43//43 4//4 42//42
f 43//43 13//13 24//24
f 43//43 21//21 4//4
f 43//43 24//24 3//3
f 43//43 3//3 21//21
f 44//44 14//14 13//13
f 44//44 13//13 22//22
f 44//44 22//22 5//5
f 44//44 5//5 27//27
f 44//44 27//27 9//9
f 44//44 26//26 14//14
f 44//44 9//9 26//26
f 45//45 6//6 23//23
f 45//45 11//11 35//35
f 45//45 41//41 11//11
f 45//45 23//23 41//41
f 46//46 23//23 6//6
f 46//46 6//6 12//12
f 46//46 12//12 23//23
f 47//47 24//24 13//13
f 47//47 3//3 24//24
f 47//47 13//13 33//33
f 47//47 33//33 16//16
f 48//48 26//26 1//1
f 48//48 1//1 25//25
f 48//48 25//25 26//26
f 49//49 17//17 9//9
f 49//49 9//9 27//27
f 49//49 27//27 5//5
f 49//49 5//5 17//17
f 50//50 7//7 28//28
f 50//50 33//33 7//7
f 50//50 16//16 33//33
f 51//51 8//8 15//15
f 51//51 15//15 29//29
f 51//51 29//29 20//20
f 51//51 20//20 8//8
f 52//52 29//29 2//2
f 52//52 20//20 29//29
f 52//52 2//2 39//39
f 52//52 40//40 20//20
f 52//52 39//39 10//10
f 52//52 10//10 40//40
f 53//53 17//17 2//2
f 53//53 2//2 29//29
f 53//53 29//29 15//15
f 53//53 15//15 30//30
f 53//53 30//30 9//9
f 53//53 9//9 17//17
f 54//54 31//31 3//3
f 54//54 16//16 31//31
f 54//54 47//47 16//16
f 54//54 3//3 47//47
f 55//55 32//32 15//15
f 55//55 15//15 8//8
f 55//55 8//8 31//31
f 55//55 31//31 16//16
f 55//55 16//16 50//50
f 56//56 28//28 25//25
f 56//56 55//55 50//50
f 56//56 50//50 28//28
f 57//57 25//25 1//1
f 57//57 1//1 32//32
f 57//57 56//56 25//25
f 57//57 32//32 55//55
f 57//57 55//55 56//56
f 58//58 34//34 18//18
f 58//58 10//10 34//34
f 58//58 40//40 10//10
f 58//58 18//18 40//40
f 59//59 21//21 3//3
f 59//59 3//3 18//18
f 59//59 18//18 35//35
f 59//59 35//35 11//11
f 59//59 11//11 41//41
f 59//59 41//41 4//4
f 59//59 4//4 21//21
f 60//60 45//45 35//35
f 61//61 35//35 18//18
f 61//61 18//18 34//34
f 61//61 60//60 35//35
f 61//61 6//6 45//45
f 61//61 45//45 60//60
f 62//62 37//37 36//36
f 62//62 2//2 37//37
f 62//62 39//39 2//2
f 62//62 10//10 39//39
f 63//63 34//34 10//10
f 63//63 62//62 36//36
f 63//63 10//10 62//62
f 63//63 36//36 6//6
f 63//63 61//61 34//34
f 63//63 6//6 61//61
f 64//64 36//36 19//19
f 64//64 12//12 6//6
f 64//64 6//6 36//36
f 64//64 38//38 12//12
f 64//64 19//19 38//38

