# https://github.com/mikedh/trimesh
v 0.05369758 0.02549203 -0.00892411
v 0.05360489 0.00205314 -0.00900198
v 0.05361910 0.00202757 -0.02274625
v 0.02503226 0.01765963 -0.02111360
v 0.02528236 0.02468180 -0.00889064
v 0.02513817 0.00205314 -0.00900198
v 0.05352155 0.01935429 -0.02086892
v 0.05370971 0.02299050 -0.01824851
v 0.02515087 0.00207707 -0.02262518
v 0.05360175 0.01599675 -0.02189668
v 0.02941513 0.02403909 -0.01427393
v 0.02531842 0.02085783 -0.01930453
v 0.02529649 0.02417869 -0.01261746
v 0.05367161 0.02450664 -0.01454463
v 0.04548363 0.01933327 -0.02075532
v 0.02519412 0.02221659 -0.01760764
vn 0.56331715 0.63510643 0.52850129
vn 0.57604481 -0.57895096 0.57705127
vn 0.57188415 -0.56239298 -0.59721240
vn -0.67806138 0.22794083 -0.69876731
vn -0.57191856 0.61131093 0.54699918
vn -0.57710160 -0.57868156 0.57626503
vn 0.59127925 0.35480070 -0.72422739
vn 0.64514358 0.59991129 -0.47317673
vn -0.57444307 -0.55393005 -0.60264140
vn 0.66465063 0.13313129 -0.73519766
vn -0.04464210 0.95216935 -0.30229227
vn -0.54189375 0.54681151 -0.63823846
vn -0.66856911 0.72515531 -0.16481844
vn 0.65124375 0.72943883 -0.20928587
vn -0.01436309 0.48238622 -0.87584088
vn -0.68411196 0.62696356 -0.37270299
f 5//5 2//2 1//1
f 6//6 3//3 2//2
f 6//6 5//5 4//4
f 6//6 2//2 5//5
f 8//8 1//1 2//2
f 8//8 2//2 3//3
f 9//9 6//6 4//4
f 9//9 3//3 6//6
f 10//10 4//4 7//7
f 10//10 9//9 4//4
f 10//10 3//3 9//9
f 10//10 8//8 3//3
f 10//10 7//7 8//8
f 13//13 5//5 1//1
f 13//13 1//1 11//11
f 14//14 11//11 1//1
f 14//14 1//1 8//8
f 14//14 8//8 11//11
f 15//15 12//12 8//8
f 15//15 8//8 7//7
f 15//15 7//7 4//4
f 15//15 4//4 12//12
f 16//16 11//11 8//8
f 16//16 8//8 12//12
f 16//16 13//13 11//11
f 16//16 12//12 4//4
f 16//16 4//4 5//5
f 16//16 5//5 13//13

