# https://github.com/mikedh/trimesh
v -0.04234006 0.07154327 0.02176614
v -0.02645143 -0.01615226 0.02148199
v -0.02541947 0.01840641 -0.01962622
v -0.07304970 0.06841705 -0.02231695
v -0.07437940 -0.04299419 0.01750180
v -0.03814815 0.07595848 -0.01751802
v -0.02522150 0.01359998 0.02212958
v -0.07977474 0.07170686 0.01642414
v -0.02603239 -0.01982164 -0.02093856
v -0.04819576 0.06554589 -0.02245223
v -0.03819846 0.07632903 0.01681918
v -0.06406674 -0.04319417 0.02354307
v -0.07954576 0.06285231 -0.01551793
v -0.07208607 0.07813384 -0.01248274
v -0.02541692 0.00140930 -0.02260456
v -0.06930036 -0.02055238 -0.02277850
v -0.04067250 0.07626734 -0.01955751
v -0.03858584 0.07413104 0.01901725
v -0.07455904 0.07571160 0.01913007
v -0.03566486 0.07382654 -0.01265729
v -0.02817006 -0.02934461 0.00304424
v -0.07687590 -0.00916854 0.01924280
v -0.07932331 0.07331716 -0.01493299
v -0.07440434 -0.04430448 0.00190165
v -0.02628845 -0.01663397 -0.02219124
v -0.07618241 0.03727603 -0.02025736
v -0.05441177 0.06850559 -0.02227743
v -0.03825294 0.07207270 -0.01926253
v -0.07224010 0.07540584 -0.01911826
v -0.03959102 0.07820292 0.01486369
v -0.04502112 0.07432826 0.02145379
v -0.07264200 0.07375700 0.02157300
v -0.03584672 0.07384481 -0.00706904
v -0.02574475 0.02084227 -0.01710226
v -0.03560588 0.07164604 -0.01490906
v -0.02925769 -0.02902146 0.01450928
v -0.06843017 -0.04294507 0.02216484
v -0.07978820 0.03726857 0.00975465
v -0.07989853 0.07292975 0.01479877
v -0.07738500 0.07266100 -0.01881800
v -0.02951523 -0.01933336 -0.02201177
v -0.07649335 -0.03330576 0.00972205
v -0.07104320 -0.01717824 -0.02223857
v -0.06046262 0.07819576 -0.01739138
v -0.07792942 0.07499400 -0.01495942
v -0.04026480 0.07801032 -0.01733273
v -0.06994086 0.07833398 0.01509498
v -0.04040000 0.07592400 0.01926100
v -0.06080737 0.07803397 0.01713805
v -0.07667323 0.07365005 0.01892589
v -0.07341958 -0.03971724 0.01877595
v -0.07185326 -0.01097509 0.02145055
v -0.07961692 0.03722556 0.01502169
v -0.07270246 0.07812536 0.01208872
v -0.07968244 0.05657761 -0.01279169
v -0.07468052 -0.04295174 0.00327834
v -0.07634403 -0.03337420 0.01474794
v -0.07308277 -0.01746851 -0.02013975
v -0.06954355 0.07825352 -0.01523063
v -0.04234229 0.07830240 0.01669691
v -0.07687882 0.07530840 0.01697065
v -0.07958785 0.04667770 0.01658837
v -0.07968797 0.04658963 -0.00316458
v -0.07607681 -0.02314673 0.01799785
vn 0.25000791 0.16720467 0.95369735
vn 0.71722324 -0.17572583 0.67432281
vn 0.89206637 0.12143876 -0.43528176
vn -0.28828285 0.17068016 -0.94221085
vn -0.67143445 -0.64084812 0.37214174
vn 0.74864934 0.51923372 -0.41221416
vn 0.73035816 0.05579301 0.68078198
vn -0.87029887 0.16642472 0.46355441
vn 0.70362919 -0.50245766 -0.50243632
vn 0.10528513 0.09502453 -0.98989160
vn 0.77054772 0.54445774 0.33139400
vn 0.06121465 -0.71622466 0.69517983
vn -0.95416011 0.00232146 -0.29928764
vn -0.27951501 0.95537532 -0.09554766
vn 0.70969586 -0.00588456 -0.70448361
vn -0.30002846 -0.39785154 -0.86700466
vn 0.28182735 0.49101674 -0.82430329
vn 0.69023632 0.30010450 0.65841561
vn -0.35804404 0.75043307 0.55556698
vn 0.88492326 0.45802490 -0.08440393
vn 0.73172683 -0.67596335 -0.08746087
vn -0.79783306 -0.03590828 0.60180811
vn -0.90953279 0.34553968 -0.23098147
vn -0.50910492 -0.80579751 -0.30249387
vn 0.56953950 -0.11416779 -0.81399660
vn -0.74242894 -0.03265769 -0.66912835
vn 0.01245705 0.19860495 -0.98000046
vn 0.59870494 0.17803957 -0.78093169
vn -0.22304174 0.67326403 -0.70495952
vn 0.44630640 0.88312883 0.14454778
vn 0.06754101 0.47013421 0.88000684
vn -0.23995208 0.36554663 0.89933234
vn 0.92747620 0.37197398 0.03772610
vn 0.98637400 0.16403525 -0.01260006
vn 0.91452595 0.23548282 -0.32892267
vn 0.68479229 -0.63615188 0.35548602
vn -0.35837346 -0.62232867 0.69589905
vn -0.99954251 -0.03024209 -0.00043685
vn -0.89192640 0.43199251 0.13360305
vn -0.63916072 0.37233178 -0.67293582
vn 0.08259871 -0.46193156 -0.88306098
vn -0.99311982 -0.10909735 -0.04255340
vn -0.54451487 -0.09050232 -0.83385423
vn -0.01929489 0.89540058 -0.44484323
vn -0.59306292 0.76566042 -0.24907928
vn 0.34302607 0.88593635 -0.31216966
vn -0.11810731 0.96537874 0.23258236
vn 0.34324860 0.60764829 0.71620106
vn -0.01608165 0.89294865 0.44987119
vn -0.63386506 0.30092337 0.71250278
vn -0.63287528 -0.09386040 0.76854350
vn -0.34453801 -0.01054735 0.93871311
vn -0.99123894 -0.03113346 0.12835912
vn -0.32265386 0.94473908 0.05798761
vn -0.99408045 -0.03356051 -0.10333324
vn -0.98249231 -0.18599206 -0.01076223
vn -0.97905034 -0.10941370 0.17172386
vn -0.86430695 -0.17588418 -0.47120936
vn -0.14622871 0.95167414 -0.27006202
vn 0.10663998 0.92794982 0.35712330
vn -0.59766935 0.74448358 0.29754924
vn -0.91091746 -0.00543489 0.41255283
vn -0.99867381 -0.03591467 -0.03688838
vn -0.92411905 -0.08616026 0.37226388
f 9//9 7//7 2//2
f 12//12 2//2 7//7
f 12//12 7//7 1//1
f 15//15 3//3 7//7
f 15//15 7//7 9//9
f 16//16 4//4 10//10
f 16//16 10//10 15//15
f 17//17 15//15 10//10
f 18//18 1//1 7//7
f 18//18 7//7 11//11
f 21//21 9//9 2//2
f 24//24 9//9 21//21
f 24//24 21//21 12//12
f 24//24 12//12 5//5
f 25//25 16//16 15//15
f 25//25 15//15 9//9
f 27//27 17//17 10//10
f 27//27 10//10 4//4
f 27//27 4//4 17//17
f 28//28 17//17 6//6
f 28//28 6//6 3//3
f 28//28 3//3 15//15
f 28//28 15//15 17//17
f 29//29 17//17 4//4
f 30//30 11//11 20//20
f 32//32 12//12 1//1
f 32//32 1//1 31//31
f 33//33 20//20 11//11
f 33//33 11//11 7//7
f 33//33 7//7 20//20
f 34//34 20//20 7//7
f 34//34 7//7 3//3
f 34//34 3//3 20//20
f 35//35 20//20 3//3
f 35//35 3//3 6//6
f 35//35 6//6 20//20
f 36//36 21//21 2//2
f 36//36 2//2 12//12
f 36//36 12//12 21//21
f 37//37 5//5 12//12
f 39//39 23//23 13//13
f 40//40 13//13 23//23
f 40//40 26//26 13//13
f 40//40 4//4 26//26
f 40//40 29//29 4//4
f 41//41 24//24 16//16
f 41//41 9//9 24//24
f 41//41 25//25 9//9
f 41//41 16//16 25//25
f 43//43 26//26 4//4
f 43//43 4//4 16//16
f 44//44 17//17 29//29
f 45//45 23//23 39//39
f 45//45 40//40 23//23
f 45//45 29//29 40//40
f 46//46 6//6 17//17
f 46//46 17//17 44//44
f 46//46 30//30 20//20
f 46//46 20//20 6//6
f 48//48 18//18 11//11
f 48//48 11//11 30//30
f 48//48 31//31 1//1
f 48//48 1//1 18//18
f 49//49 32//32 31//31
f 49//49 19//19 32//32
f 49//49 47//47 19//19
f 50//50 32//32 19//19
f 50//50 8//8 22//22
f 50//50 22//22 32//32
f 51//51 37//37 22//22
f 51//51 22//22 5//5
f 51//51 5//5 37//37
f 52//52 32//32 22//22
f 52//52 22//22 37//37
f 52//52 37//37 12//12
f 52//52 12//12 32//32
f 53//53 39//39 38//38
f 54//54 14//14 45//45
f 54//54 47//47 14//14
f 54//54 19//19 47//47
f 55//55 39//39 13//13
f 55//55 38//38 39//39
f 56//56 42//42 24//24
f 56//56 24//24 5//5
f 56//56 5//5 42//42
f 57//57 42//42 5//5
f 57//57 22//22 53//53
f 57//57 53//53 38//38
f 57//57 38//38 42//42
f 58//58 43//43 16//16
f 58//58 16//16 24//24
f 58//58 24//24 42//42
f 58//58 42//42 55//55
f 58//58 55//55 13//13
f 58//58 13//13 26//26
f 58//58 26//26 43//43
f 59//59 44//44 29//29
f 59//59 14//14 47//47
f 59//59 45//45 14//14
f 59//59 29//29 45//45
f 60//60 46//46 44//44
f 60//60 30//30 46//46
f 60//60 44//44 59//59
f 60//60 59//59 47//47
f 60//60 47//47 49//49
f 60//60 48//48 30//30
f 60//60 49//49 31//31
f 60//60 31//31 48//48
f 61//61 39//39 8//8
f 61//61 8//8 50//50
f 61//61 50//50 19//19
f 61//61 19//19 54//54
f 61//61 54//54 45//45
f 61//61 45//45 39//39
f 62//62 53//53 22//22
f 62//62 22//22 8//8
f 62//62 8//8 39//39
f 62//62 39//39 53//53
f 63//63 55//55 42//42
f 63//63 42//42 38//38
f 63//63 38//38 55//55
f 64//64 57//57 5//5
f 64//64 5//5 22//22
f 64//64 22//22 57//57

