# https://github.com/mikedh/trimesh
v 0.12323852 0.02226544 0.02169725
v 0.12767665 -0.01004105 0.01769472
v 0.12569200 0.00823665 -0.01927185
v 0.08017778 0.00812036 -0.02213694
v 0.08021648 -0.01238172 0.02173471
v 0.12369800 -0.01401500 -0.01452400
v 0.12155645 0.02814390 -0.01267610
v 0.12603266 0.02585988 -0.01297191
v 0.12394500 -0.00960163 0.02188820
v 0.08019629 0.00812810 0.02353984
v 0.12748727 -0.00988144 -0.01524809
v 0.08011967 -0.01783843 -0.00920465
v 0.11218886 0.00801146 -0.02234687
v 0.12768479 0.00768392 0.01232897
v 0.12293918 0.02660713 0.01761311
v 0.12766648 0.00102584 0.01769162
v 0.09617873 0.02781977 0.00335786
v 0.09627339 0.02038042 0.02297174
v 0.12825818 0.00817104 -0.01488239
v 0.09622099 -0.00968229 -0.02282709
v 0.07989338 -0.01467274 0.01988554
v 0.09631239 0.00799554 -0.02243770
v 0.12385659 0.02756381 -0.01246158
v 0.12501127 0.02477014 0.01791302
v 0.12471028 0.02250681 0.02018145
v 0.10928683 0.02794025 0.00297819
v 0.10904454 0.02256478 0.02202946
v 0.10913439 0.02682287 0.01722685
v 0.08019439 -0.00468439 -0.02249725
v 0.10892604 -0.01138089 -0.01998102
v 0.10561335 -0.01199867 0.02123451
v 0.08668858 -0.00484776 -0.02265091
v 0.12517388 -0.00919671 -0.01922350
v 0.12382873 -0.01415528 0.01789732
v 0.12558553 -0.01135455 -0.01702760
v 0.11814351 0.00159560 -0.02212295
v 0.12121506 -0.01123731 -0.01898723
v 0.12540727 -0.01230681 0.01958569
v 0.11764176 -0.01689038 0.00009170
v 0.10521400 -0.01388300 0.01960700
v 0.11786789 -0.00662418 -0.02199980
v 0.10175050 -0.01664764 -0.00906398
v 0.08015375 -0.01721810 0.01479883
v 0.10865092 -0.00869473 -0.02216842
v 0.11700854 -0.01651908 0.00897625
vn 0.35488960 0.32969089 0.87484701
vn 0.90786458 -0.30196474 0.29085941
vn 0.58479918 0.14653889 -0.79783223
vn -0.67212287 0.37089483 -0.64084933
vn -0.56470384 -0.29063195 0.77242647
vn 0.40038412 -0.87162549 -0.28277476
vn 0.07471623 0.85240092 -0.51752309
vn 0.71603885 0.50672094 -0.48012734
vn 0.36297476 -0.25545985 0.89609686
vn -0.69388178 0.27390452 0.66596125
vn 0.90956008 -0.34384952 -0.23338373
vn -0.64127697 -0.72950945 -0.23786511
vn 0.07461569 0.22477630 -0.97154934
vn 0.99443250 0.08300943 0.06491101
vn 0.31173213 0.87452097 0.37153218
vn 0.92576323 0.02519709 0.37726323
vn -0.41829352 0.90759379 -0.03611161
vn -0.26392718 0.55245893 0.79065262
vn 0.96439457 0.05935717 -0.25772045
vn -0.03216300 -0.48579440 -0.87348116
vn -0.65938826 -0.57996492 0.47838041
vn -0.00671062 0.23957512 -0.97085464
vn 0.39139237 0.83059155 -0.39614353
vn 0.80907348 0.49970330 0.30934886
vn 0.79932510 0.26658872 0.53852561
vn 0.00916700 0.99898854 0.04402124
vn -0.00853122 0.53347221 0.84577457
vn -0.07721939 0.91716908 0.39094507
vn -0.66917011 -0.22788922 -0.70730324
vn 0.04116038 -0.79885114 -0.60011889
vn 0.03384095 -0.55303276 0.83247196
vn -0.01908265 0.01048368 -0.99976294
vn 0.56222771 -0.29844045 -0.77125437
vn 0.37676896 -0.86230803 0.33833418
vn 0.57732688 -0.64328677 -0.50286758
vn 0.20341273 0.03368859 -0.97851333
vn 0.15216712 -0.66655174 -0.72976293
vn 0.55216937 -0.61120585 0.56704178
vn 0.20580165 -0.97809589 -0.03121082
vn 0.03672305 -0.77228280 0.63421660
vn 0.17749263 -0.21298242 -0.96079907
vn 0.05801789 -0.98115974 -0.18428102
vn -0.60798594 -0.77236959 0.18384317
vn 0.08381529 -0.41178743 -0.90741728
vn 0.12483413 -0.98632445 0.10761284
f 10//10 5//5 9//9
f 11//11 2//2 6//6
f 13//13 8//8 3//3
f 13//13 7//7 8//8
f 16//16 9//9 2//2
f 17//17 7//7 4//4
f 17//17 4//4 10//10
f 18//18 10//10 9//9
f 18//18 9//9 1//1
f 18//18 17//17 10//10
f 19//19 11//11 3//3
f 19//19 3//3 8//8
f 19//19 8//8 14//14
f 19//19 2//2 11//11
f 19//19 16//16 2//2
f 19//19 14//14 16//16
f 21//21 10//10 4//4
f 21//21 5//5 10//10
f 22//22 4//4 7//7
f 22//22 7//7 13//13
f 22//22 13//13 20//20
f 23//23 15//15 8//8
f 23//23 8//8 7//7
f 23//23 7//7 15//15
f 24//24 14//14 8//8
f 24//24 8//8 15//15
f 24//24 15//15 1//1
f 24//24 16//16 14//14
f 25//25 1//1 9//9
f 25//25 9//9 16//16
f 25//25 24//24 1//1
f 25//25 16//16 24//24
f 26//26 15//15 7//7
f 26//26 7//7 17//17
f 27//27 18//18 1//1
f 27//27 1//1 15//15
f 28//28 17//17 18//18
f 28//28 26//26 17//17
f 28//28 15//15 26//26
f 28//28 27//27 15//15
f 28//28 18//18 27//27
f 29//29 20//20 12//12
f 29//29 21//21 4//4
f 29//29 12//12 21//21
f 30//30 6//6 12//12
f 30//30 12//12 20//20
f 31//31 9//9 5//5
f 31//31 5//5 21//21
f 32//32 22//22 20//20
f 32//32 20//20 29//29
f 32//32 29//29 4//4
f 32//32 4//4 22//22
f 33//33 3//3 11//11
f 34//34 6//6 2//2
f 35//35 33//33 11//11
f 35//35 11//11 6//6
f 36//36 13//13 3//3
f 36//36 3//3 33//33
f 36//36 20//20 13//13
f 37//37 30//30 20//20
f 37//37 33//33 35//35
f 37//37 35//35 6//6
f 37//37 6//6 30//30
f 38//38 34//34 2//2
f 38//38 2//2 9//9
f 38//38 9//9 31//31
f 39//39 6//6 34//34
f 40//40 31//31 21//21
f 40//40 21//21 34//34
f 40//40 38//38 31//31
f 40//40 34//34 38//38
f 41//41 36//36 33//33
f 41//41 20//20 36//36
f 41//41 33//33 37//37
f 42//42 39//39 12//12
f 42//42 12//12 6//6
f 42//42 6//6 39//39
f 43//43 34//34 21//21
f 43//43 21//21 12//12
f 43//43 12//12 39//39
f 44//44 41//41 37//37
f 44//44 37//37 20//20
f 44//44 20//20 41//41
f 45//45 43//43 39//39
f 45//45 39//39 34//34
f 45//45 34//34 43//43

