# https://github.com/mikedh/trimesh
v 0.10898341 0.02036527 0.02270190
v 0.10904454 0.02256478 0.02202946
v 0.02584323 0.01872840 0.02213440
v 0.02585317 0.02474057 0.00290933
v 0.09621253 0.00812235 0.00298239
v 0.10913439 0.02682287 0.01722685
v 0.04258718 -0.02024700 0.00454596
v 0.07127994 0.02347667 0.01990539
v 0.10928683 0.02794025 0.00297819
v 0.09619715 0.00810156 0.02357863
v 0.02572353 -0.00789788 0.00298239
v 0.07081301 0.02145786 0.02181028
v 0.02597022 0.02387014 0.01178254
v 0.07086036 0.02711040 0.00267536
v 0.02564936 -0.00734728 0.02278585
v 0.05455994 -0.00469384 0.00298239
v 0.02590129 0.02094535 0.02012592
v 0.10850920 0.02787526 0.00295493
v 0.07409481 0.02662447 0.01152483
v 0.04179901 -0.00760628 0.02337960
v 0.05441168 -0.00458080 0.02351013
f 1 2 3
f 8 2 6
f 9 1 5
f 9 6 2
f 9 2 1
f 10 7 5
f 10 5 1
f 10 1 3
f 12 3 2
f 12 2 8
f 14 11 4
f 15 11 7
f 15 3 4
f 15 4 11
f 16 5 7
f 16 7 11
f 16 14 5
f 16 11 14
f 17 12 8
f 17 3 12
f 17 8 6
f 17 6 13
f 17 13 4
f 17 4 3
f 18 14 9
f 18 9 5
f 18 5 14
f 19 6 9
f 19 9 14
f 19 13 6
f 19 14 4
f 19 4 13
f 20 3 15
f 20 15 7
f 21 10 3
f 21 3 20
f 21 20 7
f 21 7 10

