# https://github.com/mikedh/trimesh
v 0.07912130 0.01912130 0.00211538
v 0.08000000 0.00173077 0.00211538
v 0.07912130 0.00173077 -0.01912130
v -0.06903845 0.01908088 -0.01915963
v -0.06903846 0.00173077 0.00211538
v 0.07795478 0.01895092 -0.01902853
v 0.07905971 0.01809243 -0.01887286
v -0.06903846 0.02000000 0.00211538
v -0.06903844 0.00173069 -0.01999861
v 0.07898772 0.01897647 -0.01797970
v 0.07134614 0.00173085 -0.01999881
vn 0.56411346 0.59051244 0.57712309
vn 0.59837641 -0.56514507 0.56794077
vn 0.59379029 -0.58156645 -0.55605176
vn -0.58205666 0.57662684 -0.57333371
vn -0.57735066 -0.57734912 0.57735103
vn 0.15894607 0.69084754 -0.70531257
vn 0.74185336 0.18910972 -0.64334369
vn -0.57469640 0.59120041 0.56586758
vn -0.57485178 -0.56445096 -0.59240234
vn 0.66792114 0.72940384 -0.14782217
vn 0.03192945 -0.68039914 -0.73214583
f 7//7 1//1 2//2
f 7//7 2//2 3//3
f 7//7 3//3 6//6
f 8//8 4//4 5//5
f 8//8 6//6 4//4
f 8//8 5//5 2//2
f 8//8 2//2 1//1
f 9//9 5//5 4//4
f 9//9 3//3 2//2
f 9//9 2//2 5//5
f 10//10 7//7 6//6
f 10//10 1//1 7//7
f 10//10 8//8 1//1
f 10//10 6//6 8//8
f 11//11 6//6 3//3
f 11//11 3//3 9//9
f 11//11 9//9 4//4
f 11//11 4//4 6//6

