# https://github.com/mikedh/trimesh
v -0.00399279 0.07210154 0.03125834
v 0.01621218 0.05078557 0.01994938
v 0.00582488 0.07060891 0.02120635
v -0.00737316 0.07709561 0.00831715
v -0.01530279 0.04732694 0.02624802
v 0.01288579 0.06203208 0.00835959
v -0.00242353 0.07675510 0.02387065
v 0.01262199 0.06099731 0.02313595
v 0.00274026 0.04773604 0.02921959
v -0.00931968 0.07504477 0.02620514
v 0.00273083 0.07476678 0.00728588
v -0.01276390 0.04728162 0.01804239
v 0.00246258 0.07299600 0.02478191
v 0.01243375 0.06181060 0.02006742
v 0.01470249 0.05612741 0.01995431
v -0.00766625 0.04760038 0.03008879
v 0.01083558 0.05060410 0.02792472
v -0.00907294 0.07161307 0.02936302
v -0.00997392 0.07457125 0.02271949
v -0.00834904 0.07684498 0.02396677
v 0.01148901 0.04973911 0.00783844
v -0.00364742 0.07824433 0.00821110
v -0.01488055 0.04737992 0.02074828
v -0.01371808 0.04713021 0.01882489
v -0.00103518 0.07350023 0.02794385
v 0.00287393 0.07342484 0.02332221
v 0.01137895 0.06283726 0.02250590
v 0.01602737 0.05167460 0.01980989
v -0.00052787 0.06394390 0.03106952
v -0.01073566 0.04741543 0.02890763
v 0.00373293 0.06443792 0.03008977
v 0.01373458 0.05051857 0.02623976
v -0.00758394 0.07373260 0.02875193
v -0.00998127 0.07430831 0.02438363
v -0.00901282 0.07614196 0.02436073
v -0.00422065 0.07695361 0.02581250
v -0.00819976 0.07546294 0.00826282
v 0.00274987 0.04747963 0.01818061
v 0.00052406 0.07566891 0.00728170
v -0.00620806 0.07805553 0.00841928
v 0.00185145 0.07339627 0.02501988
v 0.00485625 0.07157184 0.02190639
v 0.00352491 0.05426356 0.02985690
v -0.00153818 0.06397067 0.03103716
v -0.01390423 0.04743982 0.02720801
v -0.00098426 0.07083395 0.03071661
v 0.01288291 0.05047470 0.02679243
v 0.01494451 0.05058026 0.02418439
v 0.00705907 0.06026196 0.02880446
v -0.00641223 0.07291046 0.02994136
v -0.00818459 0.07676541 0.02493505
v -0.00436397 0.07782078 0.01840682
v -0.00215992 0.07250251 0.02996386
v -0.00787895 0.07117324 0.00854992
v 0.01576895 0.05067740 0.02078138
v -0.00631895 0.04728690 0.01792199
v 0.00071921 0.07563154 0.00731276
v 0.00685572 0.05069937 0.02892761
v 0.00554213 0.06109717 0.02980643
v 0.00049422 0.06967115 0.03046825
v 0.01232474 0.06047685 0.02366558
v -0.00735783 0.07689817 0.02570095
v -0.00583264 0.07805861 0.01237934
v -0.00379000 0.07777163 0.01749097
vn -0.00122648 0.39704686 0.91779752
vn 0.87831186 -0.47696326 0.03277701
vn 0.76765691 0.62894366 0.12301520
vn -0.58599973 0.50706972 -0.63204795
vn -0.76179213 -0.55366935 0.33633763
vn 0.74297436 0.28923569 -0.60359905
vn 0.42085485 0.88479154 0.20006281
vn 0.83229948 0.41150073 0.37140910
vn 0.16257474 -0.74137228 0.65110414
vn -0.75656826 0.50125281 0.41994058
vn 0.48210312 0.57344613 -0.66237158
vn -0.33090622 -0.69551502 -0.63777733
vn 0.65742840 0.60255076 0.45246048
vn 0.86619095 0.49620708 0.05909123
vn 0.94832914 0.30366056 0.09198974
vn -0.11439397 -0.63651564 0.76273315
vn 0.39367971 -0.28654026 0.87344775
vn -0.66790985 0.25272146 0.70002021
vn -0.92953865 0.36728329 -0.03257115
vn -0.49196046 0.86860437 0.05917227
vn 0.38492588 -0.59146297 -0.70852214
vn 0.12495213 0.82019078 -0.55827776
vn -0.83828745 -0.50833972 -0.19714178
vn -0.54471180 -0.71414495 -0.43964309
vn 0.49574159 0.67924320 0.54117368
vn 0.64899708 0.72678890 0.22490148
vn 0.79635355 0.58919659 0.13663236
vn 0.96888385 0.22996378 0.09154639
vn 0.10191556 -0.01082521 0.99473415
vn -0.28771660 -0.68572975 0.66857600
vn 0.46204259 0.20710940 0.86233540
vn 0.68390516 -0.44376540 0.57909066
vn -0.38001917 0.60989821 0.69542045
vn -0.94148958 0.31149541 0.12871668
vn -0.78244374 0.61265721 0.11150308
vn 0.18134510 0.89182985 0.41443151
vn -0.69694512 0.19730879 -0.68944669
vn 0.10780595 -0.99234353 -0.06026768
vn 0.07279414 0.31639573 -0.94583019
vn -0.30637164 0.77725781 -0.54955137
vn 0.56265012 0.69500130 0.44765840
vn 0.74021403 0.65150076 0.16622259
vn 0.14517027 -0.08043596 0.98613166
vn -0.03794348 -0.04111285 0.99843379
vn -0.45983098 -0.44139600 0.77053556
vn 0.39819774 0.37928687 0.83521257
vn 0.49495117 -0.41135765 0.76538109
vn 0.80729982 -0.49331399 0.32389554
vn 0.64245234 0.26892384 0.71758969
vn -0.28278736 0.54609633 0.78854937
vn -0.49770972 0.82785799 0.25872028
vn 0.05789441 0.99469176 0.08506787
vn 0.39644136 0.66021275 0.63792897
vn -0.45798693 -0.12751901 -0.87976524
vn 0.27992740 -0.95952386 0.03089680
vn 0.01088989 -0.99242548 -0.12236451
vn 0.26707644 0.64875562 -0.71259128
vn 0.21581925 -0.13706442 0.96676543
vn 0.42878501 0.11945228 0.89547449
vn 0.47654027 0.34244923 0.80971470
vn 0.67685397 0.28934954 0.67686449
vn -0.24054936 0.87337120 0.42350768
vn -0.16514236 0.98564162 0.03519375
vn 0.29946682 0.95226277 0.05928940
f 11//11 3//3 6//6
f 14//14 8//8 6//6
f 14//14 6//6 3//3
f 15//15 6//6 8//8
f 18//18 10//10 5//5
f 18//18 16//16 1//1
f 21//21 11//11 6//6
f 21//21 6//6 2//2
f 22//22 7//7 11//11
f 23//23 5//5 19//19
f 24//24 5//5 23//23
f 26//26 11//11 7//7
f 26//26 13//13 8//8
f 27//27 14//14 3//3
f 27//27 3//3 8//8
f 27//27 8//8 14//14
f 28//28 15//15 8//8
f 28//28 8//8 2//2
f 28//28 2//2 6//6
f 28//28 6//6 15//15
f 30//30 9//9 16//16
f 30//30 5//5 24//24
f 30//30 16//16 18//18
f 33//33 10//10 18//18
f 34//34 19//19 5//5
f 34//34 5//5 10//10
f 35//35 34//34 10//10
f 35//35 19//19 34//34
f 35//35 20//20 4//4
f 35//35 4//4 19//19
f 37//37 24//24 23//23
f 37//37 23//23 19//19
f 37//37 19//19 4//4
f 38//38 21//21 2//2
f 38//38 30//30 24//24
f 38//38 9//9 30//30
f 39//39 4//4 22//22
f 39//39 37//37 4//4
f 39//39 11//11 21//21
f 39//39 21//21 37//37
f 40//40 22//22 4//4
f 40//40 4//4 20//20
f 41//41 26//26 7//7
f 41//41 13//13 26//26
f 41//41 7//7 36//36
f 41//41 36//36 25//25
f 42//42 3//3 11//11
f 42//42 11//11 26//26
f 42//42 26//26 8//8
f 42//42 8//8 3//3
f 43//43 29//29 16//16
f 43//43 16//16 9//9
f 44//44 29//29 1//1
f 44//44 1//1 16//16
f 44//44 16//16 29//29
f 45//45 30//30 18//18
f 45//45 18//18 5//5
f 45//45 5//5 30//30
f 46//46 1//1 29//29
f 47//47 17//17 9//9
f 47//47 9//9 32//32
f 48//48 32//32 9//9
f 48//48 2//2 8//8
f 48//48 8//8 32//32
f 50//50 33//33 18//18
f 50//50 18//18 1//1
f 51//51 35//35 10//10
f 51//51 20//20 35//35
f 52//52 36//36 7//7
f 53//53 36//36 1//1
f 53//53 25//25 36//36
f 53//53 46//46 25//25
f 53//53 1//1 46//46
f 54//54 37//37 21//21
f 54//54 21//21 12//12
f 54//54 12//12 24//24
f 54//54 24//24 37//37
f 55//55 38//38 2//2
f 55//55 9//9 38//38
f 55//55 48//48 9//9
f 55//55 2//2 48//48
f 56//56 38//38 24//24
f 56//56 24//24 12//12
f 56//56 12//12 21//21
f 56//56 21//21 38//38
f 57//57 39//39 22//22
f 57//57 22//22 11//11
f 57//57 11//11 39//39
f 58//58 43//43 9//9
f 58//58 9//9 17//17
f 59//59 31//31 29//29
f 59//59 29//29 43//43
f 59//59 43//43 58//58
f 59//59 58//58 17//17
f 59//59 49//49 31//31
f 59//59 17//17 47//47
f 59//59 47//47 32//32
f 59//59 32//32 49//49
f 60//60 41//41 25//25
f 60//60 25//25 46//46
f 60//60 13//13 41//41
f 60//60 8//8 13//13
f 60//60 31//31 8//8
f 60//60 46//46 29//29
f 60//60 29//29 31//31
f 61//61 49//49 32//32
f 61//61 32//32 8//8
f 61//61 8//8 31//31
f 61//61 31//31 49//49
f 62//62 33//33 50//50
f 62//62 36//36 52//52
f 62//62 20//20 51//51
f 62//62 51//51 10//10
f 62//62 10//10 33//33
f 62//62 50//50 1//1
f 62//62 1//1 36//36
f 63//63 40//40 20//20
f 63//63 62//62 52//52
f 63//63 20//20 62//62
f 63//63 52//52 22//22
f 63//63 22//22 40//40
f 64//64 52//52 7//7
f 64//64 7//7 22//22
f 64//64 22//22 52//52

