# https://github.com/mikedh/trimesh
v 0.03477018 -0.00369893 0.02334769
v 0.05072785 -0.01730034 0.00779539
v 0.04956170 0.00172930 0.00481471
v 0.03264701 0.00204369 -0.02105078
v 0.02762516 -0.02669840 -0.00903670
v 0.04534240 -0.02349088 -0.01807454
v 0.02844101 0.00215405 0.01468540
v 0.04859449 -0.00248052 0.01498320
v 0.03104970 -0.02636769 0.02355320
v 0.05080876 -0.01523888 -0.00866402
v 0.03207607 -0.02652718 -0.02105933
v 0.02658595 0.00247765 -0.01825228
v 0.05183076 -0.00887502 0.00486127
v 0.04746597 0.00123489 0.01414166
v 0.02866895 -0.02647482 0.02154779
v 0.04046217 -0.02588640 0.02217024
v 0.04539359 -0.02570425 -0.01620072
v 0.04315799 0.00146331 -0.01690469
v 0.03969700 -0.02609399 -0.02083870
v 0.03842047 -0.02617684 0.02323622
v 0.04862108 0.00169102 -0.00751739
v 0.02883261 -0.02669703 -0.01649353
v 0.02863484 0.00235770 -0.01989318
v 0.04955333 -0.01623133 0.01209924
v 0.05061843 -0.00160780 0.00456474
v 0.05184198 -0.01414433 0.00062728
v 0.04356295 -0.00365254 0.01992482
v 0.02713301 -0.02620917 -0.00262635
v 0.03019582 -0.00312107 0.02183745
v 0.05063230 -0.01793251 -0.00152931
v 0.04627462 -0.02365225 -0.01541306
v 0.04641799 -0.02560275 0.01318030
v 0.04641114 -0.01115047 -0.01582658
v 0.03253435 -0.02583367 -0.02108659
v 0.04259546 -0.02578580 -0.01992761
v 0.03118711 -0.02661974 -0.02020395
v 0.04528143 -0.02579454 0.01635069
v 0.03566188 -0.02080185 0.02431252
v 0.04231326 0.00172094 -0.01762357
v 0.05071913 -0.00358979 -0.00542270
v 0.05063038 -0.00690859 0.00880952
v 0.05059075 -0.01623244 0.00879315
v 0.05060541 -0.00474860 0.00771923
v 0.05181744 -0.01295198 0.00472613
v 0.04754531 -0.00049462 0.01565569
v 0.04248212 -0.01741724 0.02117520
v 0.02676659 0.00240692 -0.01479150
v 0.03263565 -0.00376208 0.02310336
v 0.05071897 -0.01711672 -0.00573434
v 0.05063319 -0.01797855 0.00486719
v 0.04957031 -0.02010674 -0.00153011
v 0.04848561 -0.01324234 -0.01275356
v 0.04962319 -0.00371905 -0.00835076
v 0.03968798 -0.01003119 -0.02085027
v 0.04441590 -0.02559887 -0.01808291
v 0.04415300 -0.02577863 0.01813569
v 0.04965754 -0.01906777 0.01005848
v 0.03563212 -0.02502069 0.02428207
v 0.03852214 -0.01751254 0.02336964
v 0.04436617 -0.00910330 -0.01767346
v 0.05180489 -0.00894045 -0.00141010
v 0.04964225 0.00165072 -0.00451538
v 0.05184448 -0.00779245 0.00377966
v 0.05178028 -0.01403813 0.00359058
vn 0.08524468 0.46273651 0.88238782
vn 0.95324319 -0.25678133 0.15934479
vn 0.62067573 0.77947028 0.08478042
vn 0.01375523 0.63997498 -0.76827262
vn -0.67637502 -0.73318829 -0.07036881
vn 0.76837086 -0.12809793 -0.62705434
vn -0.62834001 0.72400300 0.28461991
vn 0.86801862 0.14036279 0.47627928
vn -0.29942163 -0.63967741 0.70792619
vn 0.95212818 -0.09591928 -0.29026095
vn -0.24536141 -0.63671252 -0.73102322
vn -0.70827876 0.61862949 -0.34005699
vn 0.98660483 0.04368827 0.15716945
vn 0.51254570 0.77844264 0.36238648
vn -0.68779555 -0.62818047 0.36376720
vn 0.51611806 -0.57238580 0.63717866
vn 0.61458451 -0.76445091 -0.19468099
vn 0.69337420 0.47564501 -0.54128924
vn 0.16571078 -0.67356041 -0.72031681
vn 0.29144910 -0.69596342 0.65627154
vn 0.59833827 0.75422219 -0.27044446
vn -0.65554466 -0.71167892 -0.25253576
vn -0.32880657 0.65953257 -0.67594603
vn 0.89559213 -0.09950792 0.43360457
vn 0.96686160 0.23802422 0.09232068
vn 0.98894244 -0.14588451 -0.02665624
vn 0.48442168 0.30461452 0.82008879
vn -0.88084773 -0.47293700 0.02092550
vn -0.61771161 0.41301134 0.66921895
vn 0.92829662 -0.37058350 -0.03054910
vn 0.91806277 -0.26774879 -0.29235480
vn 0.65016561 -0.74884209 0.12853096
vn 0.79270172 0.09583148 -0.60203016
vn -0.00571867 -0.01987080 -0.99978620
vn 0.40952580 -0.61783047 -0.67124818
vn -0.50857215 -0.72579795 -0.46321885
vn 0.60877976 -0.73079648 0.30874537
vn 0.06374599 0.01787098 0.99780613
vn 0.39869466 0.70200021 -0.59011717
vn 0.96383289 0.16817999 -0.20674055
vn 0.96054249 0.05310357 0.27301672
vn 0.95687171 -0.07982038 0.27932997
vn 0.96508456 0.16355396 0.20460180
vn 0.98877489 -0.05046601 0.14063215
vn 0.63070189 0.43377643 0.64346960
vn 0.64285001 -0.02454334 0.76559878
vn -0.98054247 0.18818994 0.05586598
vn -0.22879448 0.41778840 0.87926443
vn 0.94128237 -0.32240101 -0.10022519
vn 0.92661674 -0.37516021 0.02522356
vn 0.87248476 -0.48753928 -0.03279924
vn 0.86464136 0.05969281 -0.49883071
vn 0.88666936 0.17005591 -0.42999817
vn 0.30612765 0.05825816 -0.95020621
vn 0.60395566 -0.66063511 -0.44586861
vn 0.60641709 -0.64614995 0.46340971
vn 0.92265173 -0.29593363 0.24725912
vn 0.08494094 -0.25133093 0.96416689
vn 0.37259310 0.03594798 0.92729829
vn 0.64371086 0.10078948 -0.75860253
vn 0.99434002 0.06278201 -0.08571084
vn 0.67033202 0.73414532 -0.10810009
vn 0.99175952 0.11681143 0.05261316
vn 0.98520882 -0.16440419 0.04832028
f 12//12 7//7 3//3
f 14//14 7//7 1//1
f 14//14 8//8 3//3
f 14//14 3//3 7//7
f 20//20 15//15 5//5
f 20//20 9//9 15//15
f 21//21 12//12 3//3
f 22//22 5//5 12//12
f 22//22 20//20 5//5
f 23//23 4//4 11//11
f 23//23 11//11 12//12
f 23//23 12//12 21//21
f 25//25 3//3 8//8
f 28//28 12//12 5//5
f 28//28 5//5 15//15
f 28//28 15//15 7//7
f 29//29 15//15 9//9
f 29//29 7//7 15//15
f 31//31 17//17 6//6
f 31//31 6//6 10//10
f 31//31 10//10 17//17
f 34//34 19//19 11//11
f 34//34 11//11 4//4
f 35//35 17//17 19//19
f 36//36 11//11 19//19
f 36//36 20//20 22//22
f 36//36 22//22 12//12
f 36//36 12//12 11//11
f 37//37 19//19 17//17
f 37//37 17//17 32//32
f 37//37 36//36 19//19
f 37//37 20//20 36//36
f 39//39 21//21 18//18
f 39//39 23//23 21//21
f 39//39 4//4 23//23
f 41//41 13//13 8//8
f 41//41 8//8 24//24
f 42//42 24//24 2//2
f 42//42 41//41 24//24
f 42//42 13//13 41//41
f 43//43 25//25 8//8
f 43//43 8//8 13//13
f 44//44 42//42 2//2
f 44//44 13//13 42//42
f 45//45 14//14 1//1
f 45//45 1//1 27//27
f 45//45 27//27 8//8
f 45//45 8//8 14//14
f 46//46 8//8 27//27
f 47//47 28//28 7//7
f 47//47 7//7 12//12
f 47//47 12//12 28//28
f 48//48 29//29 9//9
f 48//48 1//1 7//7
f 48//48 7//7 29//29
f 48//48 38//38 1//1
f 48//48 9//9 38//38
f 49//49 17//17 10//10
f 49//49 10//10 26//26
f 49//49 26//26 30//30
f 50//50 30//30 26//26
f 50//50 2//2 32//32
f 51//51 32//32 17//17
f 51//51 50//50 32//32
f 51//51 30//30 50//50
f 51//51 49//49 30//30
f 51//51 17//17 49//49
f 52//52 10//10 6//6
f 52//52 6//6 33//33
f 53//53 33//33 18//18
f 53//53 18//18 21//21
f 53//53 52//52 33//33
f 53//53 21//21 40//40
f 53//53 40//40 10//10
f 53//53 10//10 52//52
f 54//54 34//34 4//4
f 54//54 19//19 34//34
f 54//54 35//35 19//19
f 54//54 4//4 39//39
f 54//54 6//6 35//35
f 55//55 35//35 6//6
f 55//55 6//6 17//17
f 55//55 17//17 35//35
f 56//56 16//16 20//20
f 56//56 20//20 37//37
f 56//56 46//46 16//16
f 56//56 37//37 24//24
f 56//56 24//24 8//8
f 56//56 8//8 46//46
f 57//57 37//37 32//32
f 57//57 32//32 2//2
f 57//57 2//2 24//24
f 57//57 24//24 37//37
f 58//58 38//38 9//9
f 58//58 9//9 20//20
f 59//59 27//27 1//1
f 59//59 1//1 38//38
f 59//59 46//46 27//27
f 59//59 20//20 16//16
f 59//59 16//16 46//46
f 59//59 58//58 20//20
f 59//59 38//38 58//58
f 60//60 33//33 6//6
f 60//60 54//54 39//39
f 60//60 6//6 54//54
f 60//60 39//39 18//18
f 60//60 18//18 33//33
f 61//61 26//26 10//10
f 61//61 10//10 40//40
f 62//62 40//40 21//21
f 62//62 21//21 3//3
f 62//62 3//3 25//25
f 62//62 25//25 40//40
f 63//63 43//43 13//13
f 63//63 25//25 43//43
f 63//63 26//26 61//61
f 63//63 44//44 26//26
f 63//63 13//13 44//44
f 63//63 61//61 40//40
f 63//63 40//40 25//25
f 64//64 44//44 2//2
f 64//64 26//26 44//44
f 64//64 50//50 26//26
f 64//64 2//2 50//50

