# https://github.com/mikedh/trimesh
v 0.03623744 -0.03711073 0.02324298
v 0.04344660 -0.03667742 0.01544395
v 0.02989305 -0.03746108 -0.02105257
v 0.02014512 -0.04505876 -0.02240803
v 0.03190840 -0.06521453 0.01563535
v 0.02075370 -0.03811045 0.00871314
v 0.02886668 -0.03730158 0.02355996
v 0.03445602 -0.06040920 0.02028132
v 0.03335052 -0.05818003 -0.02080273
v 0.02060187 -0.04251118 -0.01973221
v 0.02116278 -0.06051584 0.01842348
v 0.03827914 -0.03682029 0.02217700
v 0.02580934 -0.05866075 0.02206542
v 0.04256928 -0.03677775 -0.01736405
v 0.03573764 -0.06113893 0.01740227
v 0.03353823 -0.05506825 -0.02232343
v 0.02123769 -0.03832952 -0.00064689
v 0.02064111 -0.05630892 0.02210856
v 0.02639847 -0.06418094 -0.02129771
v 0.04118400 -0.03675171 0.01925966
v 0.03370536 -0.05953705 0.02106934
v 0.03305602 -0.04308098 0.02305919
v 0.02790218 -0.06406608 0.01900586
v 0.04041243 -0.03671970 -0.01992085
v 0.03250030 -0.06315291 0.01944928
v 0.03346744 -0.06432136 0.01595414
v 0.04300519 -0.03761755 -0.01441327
v 0.03541763 -0.05931396 0.01935902
v 0.03225678 -0.03931508 -0.02201581
v 0.03430887 -0.05610008 -0.02039352
v 0.02701543 -0.03806537 -0.01839855
v 0.02068979 -0.04245480 0.02110995
v 0.02100380 -0.05847635 -0.02070591
v 0.02614456 -0.04455873 0.02324491
v 0.02835784 -0.06219974 -0.02229389
v 0.03884953 -0.03891014 0.02134553
v 0.03620597 -0.03895432 0.02300146
v 0.03501893 -0.04110874 0.02305333
v 0.02877932 -0.06513035 0.01558420
v 0.02112886 -0.05968691 0.02047723
v 0.04337961 -0.03668796 -0.01445401
v 0.04131960 -0.03674720 -0.01922099
v 0.03449907 -0.06148874 0.01940914
v 0.03086230 -0.06408051 0.01953124
v 0.03189017 -0.06312971 0.02017610
v 0.03033610 -0.06195101 -0.01950651
v 0.02670190 -0.06403281 -0.02139392
v 0.03047587 -0.03949890 -0.02198899
v 0.03436260 -0.04270149 -0.02203219
v 0.03751398 -0.03702788 -0.02083194
v 0.03546270 -0.05389965 -0.01951254
v 0.02615366 -0.03817526 -0.01635441
v 0.02087040 -0.03926875 0.01845747
v 0.02052902 -0.05179717 -0.02192288
v 0.02156053 -0.06099243 -0.01939963
v 0.02403051 -0.05831958 0.02205131
v 0.02070095 -0.04590212 0.02207982
v 0.03260661 -0.05795966 -0.02210372
v 0.02539533 -0.06392512 0.01725187
v 0.02096950 -0.05901616 0.02085927
v 0.04203082 -0.04311102 0.00157143
v 0.03208615 -0.06491532 0.01627182
v 0.02869179 -0.06493555 0.01657281
v 0.03000064 -0.06246968 0.02087260
vn 0.20187616 0.52864854 0.82448574
vn 0.79901474 0.56264892 0.21213588
vn -0.18685546 0.81615167 -0.54679200
vn -0.69678578 0.19083941 -0.69142598
vn 0.25406450 -0.96205690 0.09948739
vn -0.72223885 0.69153080 0.01249778
vn -0.15658646 0.67251438 0.72332917
vn 0.64172775 -0.34995083 0.68243674
vn 0.80557176 -0.49842771 -0.32034974
vn -0.77344018 0.57276743 -0.27152857
vn -0.83662416 -0.53595765 0.11317868
vn 0.42667875 0.64277618 0.63622640
vn -0.00235918 -0.22332623 0.97474090
vn 0.79989803 0.49086997 -0.34526774
vn 0.86588775 -0.46283946 0.18978421
vn 0.48343192 -0.15890807 -0.86083785
vn -0.61782128 0.78407132 -0.05940561
vn -0.71210937 -0.16132853 0.68328131
vn -0.17141933 -0.82638797 -0.53637519
vn 0.63483619 0.61047857 0.47360207
vn 0.36384010 -0.21968556 0.90518431
vn 0.07713160 -0.08701876 0.99321622
vn -0.21059901 -0.82150187 0.52988937
vn 0.35447695 0.65838242 -0.66398696
vn 0.53153603 -0.72810112 0.43282584
vn 0.64779853 -0.75243875 0.11913436
vn 0.91805343 -0.38026148 -0.11215664
vn 0.83763104 -0.25309466 0.48406335
vn 0.03776432 0.24144239 -0.96968006
vn 0.86578235 -0.32096185 -0.38393282
vn -0.41127521 0.89051469 -0.19451554
vn -0.82518310 0.24752634 0.50774360
vn -0.79812099 -0.23692933 -0.55395612
vn -0.08884492 -0.02489371 0.99573434
vn 0.24782332 -0.46922005 -0.84759433
vn 0.67438637 -0.15168453 0.72263049
vn 0.41190503 -0.13237360 0.90156058
vn 0.15966253 -0.09890999 0.98220400
vn -0.16311636 -0.98407325 0.07066034
vn -0.66023437 -0.55665899 0.50420366
vn 0.82777128 0.54634272 -0.12768841
vn 0.62547543 0.56585683 -0.53720251
vn 0.68442954 -0.53227613 0.49823521
vn 0.13308368 -0.82909956 0.54303098
vn 0.34698655 -0.60823308 0.71389975
vn 0.64836968 -0.72956317 -0.21761053
vn 0.25617086 -0.73911059 -0.62297032
vn -0.07500210 0.27658787 -0.95805732
vn 0.18130200 0.02993757 -0.98297168
vn 0.12854134 0.65636214 -0.74341500
vn 0.90356955 -0.36954866 -0.21678529
vn -0.46146185 0.87588855 -0.14096882
vn -0.76508236 0.59712188 0.24102790
vn -0.75447374 -0.10693373 -0.64756047
vn -0.78679180 -0.55896338 -0.26176058
vn -0.12349956 -0.31224027 0.94194155
vn -0.76136931 0.05215661 0.64621704
vn 0.52911897 -0.35379092 -0.77127498
vn -0.44624944 -0.86886255 0.21433455
vn -0.74930279 -0.39065512 0.53472788
vn 0.95195734 -0.30520447 -0.02504917
vn 0.37939185 -0.86247348 0.33496467
vn -0.13175834 -0.96378108 0.23187449
vn -0.00085934 -0.46487627 0.88537524
f 7//7 3//3 6//6
f 10//10 3//3 4//4
f 10//10 4//4 6//6
f 12//12 7//7 1//1
f 17//17 10//10 6//6
f 17//17 6//6 3//3
f 20//20 2//2 12//12
f 22//22 1//1 7//7
f 22//22 13//13 21//21
f 24//24 12//12 2//2
f 24//24 7//7 12//12
f 24//24 3//3 7//7
f 26//26 9//9 15//15
f 28//28 15//15 2//2
f 28//28 20//20 8//8
f 28//28 2//2 20//20
f 29//29 16//16 4//4
f 30//30 16//16 14//14
f 30//30 9//9 16//16
f 31//31 17//17 3//3
f 31//31 3//3 10//10
f 32//32 6//6 4//4
f 32//32 4//4 18//18
f 34//34 22//22 7//7
f 34//34 13//13 22//22
f 35//35 4//4 16//16
f 36//36 20//20 12//12
f 36//36 8//8 20//20
f 36//36 21//21 8//8
f 36//36 12//12 21//21
f 37//37 21//21 12//12
f 37//37 12//12 1//1
f 37//37 1//1 21//21
f 38//38 22//22 21//21
f 38//38 21//21 1//1
f 38//38 1//1 22//22
f 39//39 19//19 5//5
f 41//41 24//24 2//2
f 42//42 14//14 16//16
f 42//42 16//16 24//24
f 42//42 41//41 14//14
f 42//42 24//24 41//41
f 43//43 28//28 8//8
f 43//43 15//15 28//28
f 43//43 26//26 15//15
f 43//43 25//25 26//26
f 44//44 26//26 25//25
f 45//45 8//8 21//21
f 45//45 44//44 25//25
f 45//45 43//43 8//8
f 45//45 25//25 43//43
f 46//46 9//9 26//26
f 46//46 35//35 9//9
f 47//47 26//26 5//5
f 47//47 5//5 19//19
f 47//47 46//46 26//26
f 47//47 19//19 35//35
f 47//47 35//35 46//46
f 48//48 29//29 4//4
f 48//48 4//4 3//3
f 48//48 3//3 29//29
f 49//49 24//24 16//16
f 49//49 16//16 29//29
f 50//50 29//29 3//3
f 50//50 3//3 24//24
f 50//50 49//49 29//29
f 50//50 24//24 49//49
f 51//51 27//27 15//15
f 51//51 15//15 9//9
f 51//51 9//9 30//30
f 51//51 41//41 27//27
f 51//51 30//30 14//14
f 51//51 14//14 41//41
f 52//52 31//31 10//10
f 52//52 10//10 17//17
f 52//52 17//17 31//31
f 53//53 32//32 7//7
f 53//53 7//7 6//6
f 53//53 6//6 32//32
f 54//54 33//33 18//18
f 54//54 18//18 4//4
f 54//54 4//4 35//35
f 54//54 35//35 19//19
f 54//54 19//19 33//33
f 55//55 33//33 19//19
f 55//55 11//11 33//33
f 56//56 34//34 18//18
f 56//56 13//13 34//34
f 57//57 32//32 18//18
f 57//57 18//18 34//34
f 57//57 34//34 7//7
f 57//57 7//7 32//32
f 58//58 35//35 16//16
f 58//58 16//16 9//9
f 58//58 9//9 35//35
f 59//59 19//19 39//39
f 59//59 55//55 19//19
f 59//59 11//11 55//55
f 59//59 40//40 11//11
f 59//59 23//23 40//40
f 60//60 11//11 40//40
f 60//60 33//33 11//11
f 60//60 18//18 33//33
f 60//60 56//56 18//18
f 60//60 40//40 56//56
f 61//61 41//41 2//2
f 61//61 2//2 15//15
f 61//61 15//15 27//27
f 61//61 27//27 41//41
f 62//62 44//44 5//5
f 62//62 5//5 26//26
f 62//62 26//26 44//44
f 63//63 39//39 5//5
f 63//63 5//5 44//44
f 63//63 44//44 23//23
f 63//63 59//59 39//39
f 63//63 23//23 59//59
f 64//64 45//45 21//21
f 64//64 21//21 13//13
f 64//64 44//44 45//45
f 64//64 13//13 56//56
f 64//64 23//23 44//44
f 64//64 56//56 40//40
f 64//64 40//40 23//23

