# https://github.com/mikedh/trimesh
v -0.01118285 -0.02826694 0.01212514
v -0.00536198 -0.02811191 0.00684074
v -0.01880866 -0.01698776 -0.00903444
v -0.01593607 -0.02721779 -0.03166526
v -0.01093009 -0.03143948 -0.00553968
v -0.01770165 -0.01701212 -0.02209601
v -0.01969882 -0.02294686 0.00321499
v -0.01958924 -0.01954296 0.00524059
v -0.01016811 -0.03011906 -0.02257552
v -0.01748668 -0.01700681 -0.01345746
v -0.01593804 -0.02820867 0.00893195
v -0.01961519 -0.02209388 -0.02502743
v -0.01231732 -0.02330854 0.00656707
v -0.01363704 -0.03043746 -0.03105018
v -0.01237677 -0.02400140 -0.02109346
v -0.01993461 -0.01678473 -0.02173183
v -0.00553536 -0.02767829 0.00669311
v -0.01292958 -0.02828024 0.01094298
v -0.01978305 -0.01968404 0.00478903
v -0.01707919 -0.02796024 -0.03143201
v -0.01057729 -0.02770320 0.01172757
v -0.01350725 -0.02125387 0.00293190
v -0.01372742 -0.03086890 -0.00939584
v -0.01332001 -0.02911747 -0.03048908
v -0.01784557 -0.01992253 -0.02647363
v -0.02161735 -0.01828845 -0.00059974
v -0.01312917 -0.02233492 -0.01927917
v -0.01010009 -0.02832897 -0.02193623
v -0.01683975 -0.02819361 0.00347509
v -0.01075774 -0.02796645 0.01193298
v -0.02075368 -0.01802874 0.00133109
v -0.01740485 -0.01783799 -0.00639027
v -0.01024842 -0.02950406 -0.02351225
v -0.01348327 -0.03039571 -0.03095244
v -0.01572899 -0.02096142 -0.02449125
v -0.01799832 -0.01795979 -0.02436828
v -0.01763664 -0.02364209 -0.02974193
v -0.01439521 -0.02668556 -0.02979726
v -0.01972901 -0.01965650 -0.02453753
v -0.02108432 -0.01817827 0.00143096
v -0.01865129 -0.02466709 -0.02719304
v -0.01890662 -0.02452791 0.00300310
v -0.01975240 -0.01689725 -0.01374261
v -0.01830998 -0.01715039 -0.00920070
v -0.01036575 -0.02929007 -0.02360144
v -0.01904015 -0.01796788 -0.02416070
v -0.01943882 -0.01688840 -0.02247659
v -0.01669798 -0.02528224 -0.03081024
v -0.01449706 -0.02749377 -0.03070489
v -0.01146323 -0.02739171 -0.02409333
v -0.01891293 -0.02179663 -0.02765949
v -0.02085622 -0.01810854 0.00163781
v -0.01968595 -0.02303216 0.00211668
v -0.01874769 -0.02437580 -0.02819673
v -0.01899390 -0.01879315 -0.02495745
v -0.01609055 -0.02686047 -0.03152492
v -0.01592097 -0.02721466 -0.03165949
v -0.01797378 -0.02306194 -0.02920795
v -0.02106690 -0.01817626 0.00147413
vn -0.01119162 -0.39641313 0.91800402
vn 0.87486674 -0.32758222 0.35678857
vn 0.07484596 0.99338845 0.08704872
vn 0.02569144 0.14385196 -0.98926567
vn 0.13850206 -0.98957936 0.03936844
vn 0.46655010 0.86048435 -0.20468924
vn -0.92481255 -0.32240160 0.20193801
vn -0.43715699 0.61522568 0.65604202
vn 0.74455313 -0.64992694 -0.15243233
vn 0.39228540 0.91978552 0.01033259
vn -0.61387890 -0.56761036 0.54860839
vn -0.98132994 -0.14449490 -0.12693608
vn 0.41467385 0.80204951 0.42983972
vn 0.07516442 -0.69907858 -0.71108329
vn 0.82289253 0.51970165 -0.22969125
vn -0.65441805 0.73924117 -0.15893237
vn 0.78119128 0.58063464 0.22935473
vn -0.39444751 -0.71136457 0.58169718
vn -0.92248186 -0.09236126 0.37482878
vn -0.65628529 -0.38328693 -0.64990826
vn 0.42885031 0.50181749 0.75117682
vn 0.48386759 0.85155717 0.20179828
vn -0.42655306 -0.90444874 0.00499713
vn 0.77689687 0.25537805 -0.57551134
vn 0.19639174 0.69569810 -0.69096631
vn -0.92455206 0.37393518 0.07332105
vn 0.80477706 0.57593103 -0.14365699
vn 0.92135056 0.31776337 -0.22391872
vn -0.71074945 -0.69934522 0.07583850
vn 0.40309293 0.13229783 0.90554590
vn -0.01648325 0.98691280 0.16041017
vn 0.40856432 0.90379598 0.12738929
vn 0.94624346 -0.02245475 -0.32267492
vn 0.68511714 -0.45193967 -0.57128368
vn 0.75919068 0.54831086 -0.35069176
vn 0.32668484 0.76945984 -0.54882472
vn -0.27134044 0.48727405 -0.83002312
vn 0.71282066 0.52464571 -0.46543913
vn -0.93247969 0.19535862 -0.30383651
vn -0.84778074 0.47675022 0.23232961
vn -0.91904792 -0.39386012 -0.01500445
vn -0.87978258 -0.46980130 0.07259034
vn -0.23727938 0.97120942 0.02123100
vn 0.35532737 0.92880737 0.10516330
vn 0.86606396 0.35241325 -0.35459572
vn -0.45510769 0.66249258 -0.59496267
vn -0.25812412 0.87950233 -0.39980945
vn 0.07295533 0.50595795 -0.85946732
vn 0.63272467 0.43986408 -0.63732181
vn 0.81998926 0.46113441 -0.33907620
vn -0.74443823 0.34737015 -0.57021549
vn -0.24347862 0.90282897 0.35442631
vn -0.90942671 -0.41579382 0.00765232
vn -0.95037251 -0.16837736 -0.26161260
vn -0.54543246 0.56237397 -0.62148126
vn 0.08801684 0.42599438 -0.90043424
vn 0.42136374 0.32934575 -0.84497573
vn -0.48989035 0.44334977 -0.75063202
vn -0.76064615 0.56463834 0.32031387
f 5//5 2//2 1//1
f 9//9 2//2 5//5
f 11//11 1//1 8//8
f 14//14 9//9 5//5
f 16//16 10//10 6//6
f 16//16 3//3 10//10
f 17//17 6//6 10//10
f 18//18 11//11 5//5
f 18//18 5//5 1//1
f 18//18 1//1 11//11
f 19//19 11//11 8//8
f 19//19 7//7 11//11
f 20//20 4//4 14//14
f 21//21 13//13 8//8
f 21//21 17//17 13//13
f 21//21 2//2 17//17
f 22//22 8//8 13//13
f 22//22 17//17 10//10
f 22//22 13//13 17//17
f 23//23 14//14 5//5
f 23//23 5//5 11//11
f 23//23 20//20 14//14
f 27//27 17//17 15//15
f 27//27 15//15 6//6
f 27//27 6//6 17//17
f 28//28 17//17 2//2
f 28//28 15//15 17//17
f 29//29 23//23 11//11
f 29//29 20//20 23//23
f 30//30 21//21 8//8
f 30//30 8//8 1//1
f 30//30 1//1 2//2
f 30//30 2//2 21//21
f 31//31 8//8 22//22
f 32//32 22//22 10//10
f 32//32 31//31 22//22
f 32//32 3//3 31//31
f 33//33 28//28 2//2
f 33//33 2//2 9//9
f 34//34 24//24 33//33
f 34//34 33//33 9//9
f 34//34 9//9 14//14
f 35//35 6//6 15//15
f 36//36 6//6 35//35
f 38//38 36//36 35//35
f 38//38 25//25 36//36
f 39//39 26//26 16//16
f 39//39 12//12 26//26
f 40//40 26//26 7//7
f 40//40 7//7 19//19
f 40//40 31//31 26//26
f 42//42 29//29 11//11
f 42//42 11//11 7//7
f 42//42 20//20 29//29
f 43//43 31//31 3//3
f 43//43 3//3 16//16
f 43//43 16//16 26//26
f 43//43 26//26 31//31
f 44//44 32//32 10//10
f 44//44 10//10 3//3
f 44//44 3//3 32//32
f 45//45 33//33 24//24
f 45//45 24//24 28//28
f 45//45 28//28 33//33
f 46//46 36//36 25//25
f 47//47 16//16 6//6
f 47//47 6//6 36//36
f 47//47 46//46 16//16
f 47//47 36//36 46//46
f 48//48 37//37 25//25
f 48//48 20//20 37//37
f 48//48 25//25 38//38
f 49//49 38//38 24//24
f 49//49 48//48 38//38
f 50//50 38//38 35//35
f 50//50 35//35 15//15
f 50//50 15//15 28//28
f 50//50 28//28 24//24
f 50//50 24//24 38//38
f 51//51 12//12 39//39
f 52//52 8//8 31//31
f 52//52 31//31 40//40
f 53//53 41//41 20//20
f 53//53 7//7 26//26
f 53//53 26//26 41//41
f 53//53 42//42 7//7
f 53//53 20//20 42//42
f 54//54 41//41 26//26
f 54//54 26//26 12//12
f 54//54 20//20 41//41
f 54//54 51//51 20//20
f 54//54 12//12 51//51
f 55//55 39//39 16//16
f 55//55 16//16 46//46
f 55//55 51//51 39//39
f 55//55 46//46 25//25
f 56//56 4//4 20//20
f 56//56 20//20 48//48
f 57//57 49//49 24//24
f 57//57 4//4 56//56
f 57//57 56//56 48//48
f 57//57 48//48 49//49
f 57//57 24//24 34//34
f 57//57 34//34 14//14
f 57//57 14//14 4//4
f 58//58 37//37 20//20
f 58//58 20//20 51//51
f 58//58 25//25 37//37
f 58//58 55//55 25//25
f 58//58 51//51 55//55
f 59//59 52//52 40//40
f 59//59 8//8 52//52
f 59//59 40//40 19//19
f 59//59 19//19 8//8

