# https://github.com/mikedh/trimesh
v -0.02635406 0.02374473 0.02263467
v -0.02677338 0.01578613 0.02121203
v -0.02659786 0.02487311 -0.02268667
v -0.03487557 0.02049593 -0.02380921
v -0.04924055 -0.01072107 0.01610255
v -0.04135420 0.02185608 0.01933572
v -0.02674059 0.01298165 -0.02067408
v -0.04092380 -0.01702044 0.01928292
v -0.02634277 0.02716583 0.01297707
v -0.03464465 0.02515058 -0.02081094
v -0.04210169 -0.01903655 -0.02060669
v -0.03791944 -0.01960949 0.01826382
v -0.03888814 0.01581761 0.02240489
v -0.02629965 0.02591231 0.02205570
v -0.03161923 0.02427731 -0.02271141
v -0.04703898 0.00312835 -0.01381786
v -0.02603751 0.02778045 -0.01112909
v -0.03923309 0.02296963 0.01893989
v -0.02976234 -0.01103514 -0.02988130
v -0.02644799 0.02307461 0.02258201
v -0.04825871 -0.01900065 0.01447266
v -0.04306494 0.01930139 0.02041187
v -0.04544377 -0.01160327 0.01913640
v -0.03711303 0.01919449 0.02231022
v -0.02658497 0.02594488 -0.02224051
v -0.03782045 0.02275297 -0.02173621
v -0.02600360 0.02760264 -0.00999746
v -0.03270178 0.02514974 0.01969203
v -0.03010155 0.02069559 -0.02374036
v -0.02686978 0.01793546 -0.02248773
v -0.03294768 -0.01957322 -0.01639226
v -0.02698187 0.01392188 0.02022800
v -0.03846877 0.00038063 0.02146734
v -0.04503208 -0.01892574 0.01817482
v -0.04808794 -0.01394795 -0.01407381
v -0.04486908 0.01845707 0.01615083
v -0.04214946 0.02065769 0.02040313
v -0.04814374 -0.00980475 0.01710024
v -0.03887317 0.01741363 0.02233036
v -0.03241365 0.02538831 -0.02163081
v -0.03678581 0.02211952 -0.02252880
v -0.04285484 0.01686656 -0.02083564
v -0.03871226 0.02272168 -0.02125530
v -0.03479669 0.02395437 0.02041964
v -0.03458065 -0.01919782 -0.02216202
v -0.03394543 -0.01964363 0.01059329
v -0.04262628 -0.00913355 0.02034627
v -0.03786173 0.01469601 0.02251903
v -0.04810172 -0.01247844 0.01711883
v -0.04682219 -0.01856361 -0.01179255
v -0.04919919 -0.01691136 0.01353248
v -0.04805779 0.00108427 -0.00208822
v -0.04464877 0.01857332 0.01774251
v -0.04009984 0.02035202 0.02125744
v -0.04254694 0.01918339 -0.01973052
v -0.04681532 -0.00643465 -0.01782415
v -0.04097087 0.01943970 -0.02158396
v -0.04071938 0.02104257 -0.02093038
v -0.03600296 0.02247607 0.02132006
v -0.03359912 -0.01939794 -0.02120329
v -0.04006192 -0.01895779 -0.02165902
v -0.03588158 -0.01967828 0.01722571
v -0.04269148 -0.01692205 0.01920071
v -0.04610956 -0.01574899 0.01815491
vn 0.64453963 0.08430253 0.75990904
vn 0.82005847 -0.16925575 0.54667779
vn 0.66909775 0.21563118 -0.71120419
vn -0.19740188 0.25656677 -0.94615326
vn -0.92336944 0.00327519 0.38389862
vn -0.53277207 0.80170372 0.27097062
vn 0.99392233 -0.07058418 -0.08447649
vn 0.03772657 -0.25397359 0.96647510
vn 0.52902197 0.84715768 0.04959464
vn -0.35632664 0.87765219 -0.32055882
vn -0.49307122 -0.69337255 -0.52546673
vn 0.14506001 -0.74862386 0.64693115
vn -0.25053037 0.01555230 0.96798381
vn 0.52812188 0.63647327 0.56212904
vn -0.13074858 0.47820363 -0.86846191
vn -0.97433287 0.14639406 -0.17100946
vn 0.59510181 0.80234054 -0.04586391
vn -0.38282649 0.89675699 0.22197022
vn 0.43750866 -0.30135442 -0.84721407
vn 0.44150701 -0.13606698 0.88688068
vn -0.63276206 -0.72966525 0.25923116
vn -0.67266405 0.27836407 0.68559209
vn -0.45822087 -0.07238748 0.88588582
vn -0.14237849 0.20459154 0.96843723
vn 0.55824722 0.65375290 -0.51084948
vn -0.37433654 0.54682876 -0.74889950
vn 0.99180955 0.12761579 0.00529383
vn -0.28304984 0.92161186 0.26554541
vn 0.02932662 0.20912166 -0.97744978
vn 0.97894795 -0.04437896 -0.19922708
vn 0.56983685 -0.82171447 -0.00844400
vn 0.96587375 -0.20443716 0.15903881
vn 0.04057908 -0.10821846 0.99329860
vn -0.35803796 -0.67126618 0.64900735
vn -0.93692516 -0.17411347 -0.30307714
vn -0.89076477 0.45345218 0.03031903
vn -0.55802166 0.55215548 0.61946441
vn -0.64554957 0.01635283 0.76354328
vn -0.23221569 0.10549202 0.96692673
vn -0.19990362 0.84141531 -0.50205459
vn -0.31713845 0.41647091 -0.85204177
vn -0.78838663 0.16967335 -0.59131843
vn -0.55224683 0.70277224 -0.44848034
vn -0.31100526 0.75950054 0.57134461
vn 0.06741721 -0.86247581 -0.50158788
vn 0.63890399 -0.76342729 0.09476527
vn -0.18544819 -0.08693294 0.97880112
vn -0.05837357 -0.03559009 0.99766020
vn -0.70426924 -0.12546428 0.69875858
vn -0.65411290 -0.74219759 -0.14587341
vn -0.96627986 -0.21626291 0.13976262
vn -0.99081387 0.13111691 -0.03310949
vn -0.88588913 0.39545731 0.24251590
vn -0.28062337 0.34643357 0.89511692
vn -0.85451450 0.45673562 -0.24738139
vn -0.83522264 0.00393947 -0.54989783
vn -0.54615157 0.26293297 -0.79535194
vn -0.66380818 0.60207612 -0.44369251
vn -0.24976736 0.51340508 0.82099421
vn 0.43501401 -0.87343437 -0.21880404
vn -0.24805091 -0.75001483 -0.61314640
vn 0.50752476 -0.73411941 0.45109568
vn -0.14759071 -0.23991066 0.95951022
vn -0.59667187 -0.18395846 0.78111585
f 15//15 3//3 4//4
f 17//17 7//7 3//3
f 18//18 10//10 6//6
f 20//20 12//12 2//2
f 20//20 2//2 1//1
f 20//20 8//8 12//12
f 21//21 11//11 12//12
f 23//23 13//13 22//22
f 24//24 1//1 14//14
f 25//25 3//3 15//15
f 25//25 17//17 3//3
f 27//27 17//17 9//9
f 27//27 9//9 14//14
f 27//27 14//14 1//1
f 27//27 7//7 17//17
f 27//27 1//1 2//2
f 27//27 2//2 7//7
f 28//28 17//17 10//10
f 28//28 10//10 18//18
f 28//28 9//9 17//17
f 28//28 14//14 9//9
f 29//29 19//19 4//4
f 29//29 4//4 3//3
f 29//29 3//3 19//19
f 30//30 19//19 3//3
f 30//30 3//3 7//7
f 30//30 7//7 19//19
f 31//31 12//12 11//11
f 32//32 19//19 7//7
f 32//32 7//7 2//2
f 33//33 8//8 20//20
f 33//33 20//20 1//1
f 34//34 21//21 12//12
f 34//34 12//12 8//8
f 38//38 23//23 22//22
f 38//38 22//22 5//5
f 39//39 1//1 24//24
f 39//39 22//22 13//13
f 40//40 25//25 15//15
f 40//40 10//10 17//17
f 40//40 17//17 25//25
f 40//40 26//26 10//10
f 40//40 15//15 26//26
f 41//41 26//26 15//15
f 41//41 15//15 4//4
f 43//43 6//6 10//10
f 43//43 10//10 26//26
f 44//44 28//28 18//18
f 44//44 18//18 6//6
f 44//44 14//14 28//28
f 44//44 6//6 37//37
f 46//46 31//31 19//19
f 46//46 19//19 32//32
f 47//47 8//8 33//33
f 47//47 13//13 23//23
f 48//48 33//33 1//1
f 48//48 47//47 33//33
f 48//48 13//13 47//47
f 48//48 39//39 13//13
f 48//48 1//1 39//39
f 49//49 5//5 21//21
f 49//49 38//38 5//5
f 49//49 23//23 38//38
f 50//50 35//35 11//11
f 50//50 11//11 21//21
f 51//51 21//21 5//5
f 51//51 5//5 35//35
f 51//51 50//50 21//21
f 51//51 35//35 50//50
f 52//52 35//35 5//5
f 52//52 16//16 35//35
f 52//52 36//36 16//16
f 52//52 5//5 36//36
f 53//53 36//36 5//5
f 53//53 5//5 22//22
f 53//53 22//22 37//37
f 53//53 37//37 6//6
f 53//53 6//6 36//36
f 54//54 39//39 24//24
f 54//54 37//37 22//22
f 54//54 22//22 39//39
f 55//55 42//42 16//16
f 55//55 16//16 36//36
f 56//56 35//35 16//16
f 56//56 16//16 42//42
f 56//56 11//11 35//35
f 56//56 42//42 19//19
f 56//56 19//19 11//11
f 57//57 41//41 4//4
f 57//57 4//4 19//19
f 57//57 19//19 42//42
f 57//57 43//43 26//26
f 57//57 26//26 41//41
f 58//58 36//36 6//6
f 58//58 6//6 43//43
f 58//58 55//55 36//36
f 58//58 43//43 57//57
f 58//58 57//57 42//42
f 58//58 42//42 55//55
f 59//59 44//44 37//37
f 59//59 14//14 44//44
f 59//59 37//37 54//54
f 59//59 54//54 24//24
f 59//59 24//24 14//14
f 60//60 31//31 11//11
f 60//60 11//11 45//45
f 60//60 45//45 19//19
f 60//60 19//19 31//31
f 61//61 45//45 11//11
f 61//61 11//11 19//19
f 61//61 19//19 45//45
f 62//62 12//12 31//31
f 62//62 31//31 46//46
f 62//62 2//2 12//12
f 62//62 46//46 32//32
f 62//62 32//32 2//2
f 63//63 34//34 8//8
f 63//63 8//8 47//47
f 63//63 47//47 23//23
f 63//63 23//23 34//34
f 64//64 34//34 23//23
f 64//64 23//23 49//49
f 64//64 49//49 21//21
f 64//64 21//21 34//34

