# https://github.com/mikedh/trimesh
v 0.00793915 -0.04495234 0.02195215
v 0.00806773 -0.05893734 0.01968160
v 0.00762113 -0.04368481 -0.02220881
v -0.03279423 -0.03367776 -0.02107597
v -0.04002452 -0.03349949 0.01688016
v -0.00681920 -0.05884666 -0.01729110
v 0.00797569 -0.03680162 0.00008123
v -0.02382530 -0.05342910 0.01891288
v 0.00837882 -0.06042503 -0.01770281
v -0.00698543 -0.05039710 -0.02320140
v 0.00784007 -0.04156139 -0.01985988
v 0.00810859 -0.03831897 0.01832980
v -0.00478453 -0.03406619 0.00964327
v 0.00161481 -0.05417613 0.02187817
v -0.00866999 -0.06099719 0.00159148
v -0.03322617 -0.04488393 -0.00906320
v -0.02272680 -0.04915098 -0.02011612
v 0.00643149 -0.04464675 -0.02327963
v 0.00817308 -0.05842036 -0.02041410
v -0.02685579 -0.03424770 -0.02119268
v 0.00834716 -0.04013257 0.02001465
v -0.03904474 -0.03345072 -0.01331182
v 0.00799190 -0.03716066 0.00858547
v -0.00953925 -0.03440833 0.01447110
v -0.00062132 -0.05617024 0.02081883
v 0.00787931 -0.05535914 0.02198089
v -0.03724773 -0.03384222 0.01912916
v -0.00715485 -0.05978441 0.01603769
v 0.00813932 -0.06019689 0.01637416
v -0.00759436 -0.06100427 -0.00387225
v -0.03317188 -0.04728512 0.01517345
v -0.02520282 -0.05466813 0.00991070
v -0.01899641 -0.05166781 -0.01982961
v -0.02817772 -0.04310217 -0.02083866
v -0.00396945 -0.04586028 -0.02327854
v 0.00810370 -0.05941358 -0.01951839
v -0.00602756 -0.05588230 -0.01984392
v 0.00224084 -0.04957167 -0.02305230
v 0.00776722 -0.05084739 -0.02205055
v 0.00813402 -0.05637299 -0.02112218
v -0.00864381 -0.03433441 -0.00166510
v -0.02108904 -0.05440759 0.01899157
v -0.00179177 -0.04909780 0.02200332
v 0.00803538 -0.05710060 0.02129178
v 0.00806158 -0.04195417 0.02127082
v -0.03065176 -0.03432946 0.01884688
v -0.00243274 -0.06113008 -0.00207667
v -0.04074456 -0.03468968 0.01281191
v -0.03530039 -0.04299708 0.01686568
v -0.02795148 -0.05237455 0.00981195
v -0.02727787 -0.05354561 0.01594591
v -0.01977104 -0.05775144 0.01351640
v -0.02593104 -0.05121385 -0.01308732
v -0.02112926 -0.04854658 -0.02088280
v -0.03022851 -0.03997672 -0.02090335
v -0.03414332 -0.04081600 -0.01722736
v -0.00709685 -0.04735127 -0.02320356
v -0.00698274 -0.05700293 -0.01886485
v 0.00671630 -0.04561035 -0.02323781
v -0.00429391 -0.05090794 -0.02313091
v -0.00608609 -0.05867131 0.01803478
v -0.00073681 -0.05119836 0.02195582
v 0.00670639 -0.05549260 0.02190360
v -0.03739538 -0.03774945 -0.01121700
vn 0.60335134 0.07765325 0.79368579
vn 0.61852905 -0.63134781 0.46778388
vn 0.71072906 0.38797820 -0.58680245
vn -0.39218218 0.57050365 -0.72160843
vn -0.73686219 0.50897664 0.44494594
vn -0.23300634 -0.86085877 -0.45236072
vn 0.73729291 0.67129399 -0.07591807
vn -0.31267755 -0.51709950 0.79676902
vn 0.64132179 -0.73042656 -0.23491149
vn -0.10166355 -0.27724693 -0.95540497
vn 0.71941289 0.60297070 -0.34477735
vn 0.64503596 0.67753910 0.35336861
vn 0.13512322 0.98825510 0.07136922
vn -0.07632835 -0.21019368 0.97467564
vn -0.17335933 -0.98484152 0.00580797
vn -0.77200088 -0.62187069 -0.13149710
vn -0.42832225 -0.58447832 -0.68914813
vn 0.25782688 0.27959427 -0.92485260
vn 0.60244058 -0.41745084 -0.68029416
vn 0.07820305 0.74352456 -0.66412010
vn 0.72137075 0.42968539 0.54313415
vn -0.81179254 0.51295004 -0.27906116
vn 0.73732027 0.67381733 0.04826003
vn 0.08572204 0.95571307 0.28153909
vn -0.11211784 -0.49886344 0.85939796
vn 0.56880711 -0.13829420 0.81076087
vn -0.33966098 0.51490671 0.78708417
vn -0.12905095 -0.93751285 0.32313389
vn 0.66137228 -0.73232300 0.16214108
vn -0.21341326 -0.97233795 -0.09494046
vn -0.76637217 -0.59979858 0.23003340
vn -0.53433610 -0.84138796 -0.08093961
vn -0.33386516 -0.67079142 -0.66224838
vn -0.39982642 -0.37148242 -0.83793773
vn -0.01511215 0.05968462 -0.99810288
vn 0.40346882 -0.70252450 -0.58623566
vn -0.15034937 -0.55477079 -0.81830584
vn 0.06029192 -0.15236433 -0.98648365
vn 0.74338779 -0.05971537 -0.66618966
vn 0.69159304 -0.18087221 -0.69927413
vn 0.11819139 0.98887397 -0.09032758
vn -0.21651183 -0.61281546 0.75998674
vn -0.05960814 0.00390063 0.99821423
vn 0.62479124 -0.40909297 0.66504048
vn 0.58433733 0.27144651 0.76476577
vn 0.08530727 0.82744244 0.55503304
vn 0.02053469 -0.99978851 -0.00112104
vn -0.99883026 0.00392285 0.04819469
vn -0.70713561 -0.43766223 0.55534764
vn -0.68344749 -0.72611300 -0.07522928
vn -0.59735208 -0.73560672 0.31945773
vn -0.33690823 -0.92485784 0.17643929
vn -0.56128483 -0.78310581 -0.26777720
vn -0.22172172 -0.34697721 -0.91128826
vn -0.40045738 -0.23341375 -0.88608798
vn -0.74467996 -0.45953258 -0.48402641
vn -0.05368210 0.01868468 -0.99838325
vn -0.17855376 -0.61190208 -0.77051567
vn 0.41341405 -0.02668020 -0.91015218
vn -0.01135928 -0.24289004 -0.96998732
vn -0.12267899 -0.74606795 0.65447115
vn -0.07201489 -0.07311083 0.99472039
vn -0.06179909 -0.29759609 0.95268958
vn -0.87415857 -0.46628490 -0.13573944
f 20//20 11//11 3//3
f 20//20 7//7 11//11
f 20//20 18//18 4//4
f 20//20 3//3 18//18
f 21//21 11//11 7//7
f 21//21 9//9 11//11
f 22//22 13//13 4//4
f 22//22 5//5 13//13
f 23//23 13//13 12//12
f 23//23 7//7 13//13
f 23//23 21//21 7//7
f 23//23 12//12 21//21
f 24//24 12//12 13//13
f 27//27 21//21 12//12
f 27//27 24//24 13//13
f 27//27 13//13 5//5
f 29//29 28//28 15//15
f 29//29 2//2 28//28
f 29//29 21//21 2//2
f 29//29 9//9 21//21
f 30//30 6//6 9//9
f 35//35 18//18 10//10
f 35//35 4//4 18//18
f 36//36 19//19 9//9
f 36//36 9//9 6//6
f 36//36 6//6 19//19
f 37//37 10//10 19//19
f 37//37 33//33 10//10
f 40//40 11//11 9//9
f 40//40 9//9 19//19
f 40//40 3//3 11//11
f 40//40 39//39 3//3
f 41//41 13//13 7//7
f 41//41 7//7 20//20
f 41//41 20//20 4//4
f 41//41 4//4 13//13
f 42//42 25//25 14//14
f 42//42 14//14 8//8
f 43//43 26//26 1//1
f 43//43 1//1 27//27
f 44//44 21//21 1//1
f 44//44 1//1 26//26
f 44//44 2//2 21//21
f 45//45 27//27 1//1
f 45//45 1//1 21//21
f 45//45 21//21 27//27
f 46//46 27//27 12//12
f 46//46 12//12 24//24
f 46//46 24//24 27//27
f 47//47 29//29 15//15
f 47//47 15//15 30//30
f 47//47 30//30 9//9
f 47//47 9//9 29//29
f 48//48 16//16 31//31
f 48//48 5//5 22//22
f 49//49 27//27 5//5
f 49//49 48//48 31//31
f 49//49 5//5 48//48
f 49//49 8//8 27//27
f 50//50 31//31 16//16
f 51//51 50//50 32//32
f 51//51 31//31 50//50
f 51//51 49//49 31//31
f 51//51 8//8 49//49
f 52//52 30//30 15//15
f 52//52 51//51 32//32
f 52//52 15//15 28//28
f 52//52 28//28 42//42
f 52//52 42//42 8//8
f 52//52 8//8 51//51
f 53//53 17//17 33//33
f 53//53 33//33 6//6
f 53//53 6//6 30//30
f 53//53 52//52 32//32
f 53//53 30//30 52//52
f 53//53 50//50 16//16
f 53//53 32//32 50//50
f 54//54 33//33 17//17
f 54//54 10//10 33//33
f 54//54 34//34 10//10
f 54//54 17//17 34//34
f 55//55 4//4 10//10
f 55//55 10//10 34//34
f 56//56 55//55 34//34
f 56//56 22//22 4//4
f 56//56 4//4 55//55
f 56//56 53//53 16//16
f 56//56 34//34 17//17
f 56//56 17//17 53//53
f 57//57 35//35 10//10
f 57//57 10//10 4//4
f 57//57 4//4 35//35
f 58//58 37//37 19//19
f 58//58 19//19 6//6
f 58//58 6//6 33//33
f 58//58 33//33 37//37
f 59//59 10//10 18//18
f 59//59 40//40 38//38
f 59//59 39//39 40//40
f 59//59 18//18 3//3
f 59//59 3//3 39//39
f 60//60 40//40 19//19
f 60//60 19//19 10//10
f 60//60 38//38 40//40
f 60//60 59//59 38//38
f 60//60 10//10 59//59
f 61//61 42//42 28//28
f 61//61 28//28 2//2
f 61//61 25//25 42//42
f 61//61 44//44 25//25
f 61//61 2//2 44//44
f 62//62 14//14 26//26
f 62//62 26//26 43//43
f 62//62 8//8 14//14
f 62//62 43//43 27//27
f 62//62 27//27 8//8
f 63//63 44//44 26//26
f 63//63 26//26 14//14
f 63//63 14//14 25//25
f 63//63 25//25 44//44
f 64//64 48//48 22//22
f 64//64 16//16 48//48
f 64//64 56//56 16//16
f 64//64 22//22 56//56

