# https://github.com/mikedh/trimesh
v 0.01089190 0.04098056 0.02321551
v 0.04152072 0.01392472 0.00266081
v 0.01613978 0.05289238 -0.00915651
v -0.01892151 0.03319559 -0.02050316
v -0.01331936 0.01938438 0.01879469
v 0.03009489 0.01407858 -0.01976001
v -0.01254724 0.03729287 0.02081452
v 0.01619628 0.05095556 0.01572461
v 0.02511708 0.01412394 0.02232776
v 0.03891689 0.01902981 -0.00636833
v 0.00777011 0.04146576 -0.02098072
v -0.01333969 0.01820962 -0.01828568
v -0.01285788 0.03696041 -0.01732569
v -0.01656056 0.03349024 0.02100566
v -0.00467445 0.03799698 0.02453540
v 0.01594735 0.05162051 0.01461235
v 0.02487684 0.02065078 0.02210862
v 0.03514305 0.01393558 -0.01615047
v -0.01296878 0.02649517 -0.02197879
v -0.00612755 0.03798920 -0.02090665
v 0.01387095 0.04134456 -0.01887049
v -0.01334099 0.01815020 0.00806960
v 0.02026106 0.01464332 -0.01982538
v -0.01866788 0.03363661 -0.02010461
v -0.01901782 0.03339510 -0.01686077
v 0.00564646 0.04140806 0.02389780
v -0.00774386 0.03781203 0.02335424
v -0.01288434 0.02433366 0.02226960
v 0.01592747 0.05271071 -0.00702884
v 0.03587376 0.02633185 0.00375658
v 0.01687395 0.03973206 0.02110538
v 0.01524921 0.03039065 0.02326664
v 0.03900868 0.01411935 0.01353581
v 0.03922346 0.01389272 -0.00934382
v 0.03358231 0.01915755 -0.01460353
v 0.02506027 0.01426203 -0.02098515
v -0.01290185 0.02053141 -0.01990232
v 0.00556752 0.04142516 -0.02112477
v -0.01276710 0.03141879 -0.02204504
v 0.01163945 0.04124648 -0.01998530
v 0.02973740 0.01912121 -0.01850742
v -0.01070760 0.03722697 -0.01989918
v -0.01245193 0.03230494 0.02314143
v -0.01287604 0.02247472 0.02150985
v -0.01173664 0.02946602 0.02328066
v 0.03692966 0.02421161 -0.00342629
v 0.02187221 0.04573272 0.00272754
v 0.01642886 0.05110751 0.01450031
v 0.01382737 0.04100070 0.02237133
v 0.01530168 0.02826812 0.02330454
v 0.03923305 0.01395813 0.01244357
v 0.03903744 0.02028762 0.00481925
v 0.03900739 0.01789997 -0.00726080
v 0.03677690 0.02113256 -0.00830894
v 0.02508596 0.01742928 -0.02090950
v 0.02427323 0.01432931 -0.02098298
v -0.01579769 0.03401897 -0.02078302
v 0.03298004 0.01589560 -0.01762395
v 0.02770916 0.01924905 -0.01961539
v -0.01208386 0.03699472 -0.01907401
v -0.01561443 0.03326859 0.02158068
v -0.00583881 0.03496578 0.02417669
v -0.01260925 0.03062437 0.02335378
v 0.03580702 0.02628443 -0.00132011
vn 0.18610452 0.30600262 0.93366349
vn 0.84151114 -0.53944878 0.02922357
vn 0.24509147 0.91772808 -0.31257855
vn -0.79062880 0.18257300 -0.58444264
vn -0.61013789 -0.69930801 0.37242458
vn 0.32331809 -0.60947578 -0.72388168
vn -0.53366666 0.75495891 0.38109965
vn 0.36127596 0.73048959 0.57953830
vn 0.19317168 -0.66264891 0.72358906
vn 0.89541621 0.37010816 -0.24748689
vn 0.11485226 0.40420337 -0.90742966
vn -0.54548321 -0.74637918 -0.38126918
vn -0.47458439 0.87876385 -0.05043570
vn -0.85265452 0.25693229 0.45493524
vn -0.17058737 0.39002638 0.90486428
vn 0.16898686 0.95571434 0.24094301
vn 0.40772904 0.14173385 0.90203578
vn 0.64259515 -0.55130299 -0.53210571
vn -0.24433264 -0.18512559 -0.95185612
vn -0.18945877 0.56757872 -0.80122392
vn 0.47149372 0.43414371 -0.76760205
vn -0.62660035 -0.77813981 0.04324864
vn -0.10049979 -0.99348048 -0.05381756
vn -0.59037614 0.75600688 -0.28268287
vn -0.94864132 0.31627659 0.00698352
vn -0.03301497 0.43865022 0.89805122
vn -0.36132598 0.59806772 0.71537301
vn -0.44472836 -0.26171865 0.85657459
vn -0.39156561 0.91922942 0.04115404
vn 0.84322517 0.51813223 0.14321418
vn 0.54450797 0.32234855 0.77434003
vn 0.14964538 0.05381010 0.98727440
vn 0.74996635 -0.39851059 0.52795813
vn 0.74708013 -0.57895853 -0.32661643
vn 0.71850716 0.42176987 -0.55304397
vn 0.05915301 -0.68274250 -0.72826067
vn -0.36164028 -0.40856531 -0.83802786
vn -0.07800895 0.48088756 -0.87330508
vn -0.11261389 0.10992546 -0.98753962
vn 0.29749244 0.40667269 -0.86377982
vn 0.53754117 0.34089751 -0.77125766
vn -0.31426722 0.77478598 -0.54858255
vn -0.34220877 0.19225610 0.91974494
vn -0.50758693 -0.43265004 0.74509694
vn -0.07769250 -0.14756511 0.98599615
vn 0.85923277 0.48267185 -0.16954921
vn 0.79012560 0.61194945 0.03492004
vn 0.77072926 0.62087433 0.14314843
vn 0.34267830 0.33119792 0.87913566
vn 0.08349491 -0.00616891 0.99648911
vn 0.60870260 -0.77543207 0.16788762
vn 0.89509511 0.41830571 0.15435373
vn 0.89625438 0.28152573 -0.34274093
vn 0.77685782 0.45146472 -0.43894367
vn 0.19600283 0.10046716 -0.97544310
vn -0.06879570 -0.73742014 -0.67192164
vn -0.17351718 0.36691573 -0.91392813
vn 0.62685175 0.25702790 -0.73552263
vn 0.40238849 0.24960326 -0.88078471
vn -0.38967034 0.86645338 -0.31211467
vn -0.46086270 0.18532764 0.86790508
vn -0.03833787 -0.10996328 0.99319600
vn -0.32808567 -0.04410970 0.94361757
vn 0.83690509 0.54463370 -0.05444263
f 13//13 7//7 3//3
f 18//18 9//9 6//6
f 22//22 9//9 5//5
f 23//23 22//22 12//12
f 23//23 9//9 22//22
f 24//24 13//13 3//3
f 24//24 7//7 13//13
f 25//25 5//5 14//14
f 25//25 22//22 5//5
f 25//25 4//4 12//12
f 25//25 12//12 22//22
f 25//25 24//24 4//4
f 25//25 14//14 7//7
f 25//25 7//7 24//24
f 26//26 1//1 8//8
f 26//26 8//8 15//15
f 27//27 7//7 14//14
f 27//27 16//16 7//7
f 27//27 15//15 8//8
f 27//27 8//8 16//16
f 29//29 16//16 3//3
f 29//29 3//3 7//7
f 29//29 7//7 16//16
f 32//32 17//17 1//1
f 32//32 9//9 17//17
f 32//32 1//1 26//26
f 33//33 17//17 9//9
f 33//33 31//31 17//17
f 33//33 8//8 31//31
f 34//34 9//9 18//18
f 36//36 6//6 9//9
f 36//36 9//9 23//23
f 37//37 12//12 4//4
f 37//37 4//4 19//19
f 38//38 20//20 3//3
f 38//38 3//3 11//11
f 39//39 19//19 4//4
f 39//39 20//20 38//38
f 39//39 38//38 36//36
f 39//39 36//36 19//19
f 40//40 11//11 3//3
f 40//40 3//3 21//21
f 42//42 20//20 4//4
f 42//42 4//4 24//24
f 42//42 3//3 20//20
f 44//44 28//28 14//14
f 44//44 14//14 5//5
f 44//44 5//5 9//9
f 44//44 9//9 28//28
f 45//45 28//28 9//9
f 48//48 16//16 8//8
f 48//48 8//8 30//30
f 48//48 30//30 47//47
f 48//48 47//47 3//3
f 48//48 3//3 16//16
f 49//49 31//31 8//8
f 49//49 8//8 1//1
f 49//49 1//1 17//17
f 49//49 17//17 31//31
f 50//50 32//32 26//26
f 50//50 26//26 15//15
f 50//50 15//15 9//9
f 50//50 9//9 32//32
f 51//51 33//33 9//9
f 51//51 2//2 33//33
f 51//51 34//34 2//2
f 51//51 9//9 34//34
f 52//52 33//33 2//2
f 52//52 30//30 8//8
f 52//52 8//8 33//33
f 52//52 46//46 30//30
f 52//52 2//2 10//10
f 52//52 10//10 46//46
f 53//53 34//34 18//18
f 53//53 10//10 2//2
f 53//53 2//2 34//34
f 54//54 35//35 3//3
f 54//54 10//10 53//53
f 54//54 53//53 18//18
f 54//54 18//18 35//35
f 54//54 46//46 10//10
f 54//54 3//3 46//46
f 55//55 6//6 36//36
f 55//55 11//11 40//40
f 55//55 38//38 11//11
f 55//55 36//36 38//38
f 56//56 36//36 23//23
f 56//56 23//23 12//12
f 56//56 12//12 37//37
f 56//56 37//37 19//19
f 56//56 19//19 36//36
f 57//57 39//39 4//4
f 57//57 4//4 20//20
f 57//57 20//20 39//39
f 58//58 18//18 6//6
f 58//58 35//35 18//18
f 58//58 3//3 35//35
f 58//58 41//41 21//21
f 58//58 21//21 3//3
f 59//59 40//40 21//21
f 59//59 21//21 41//41
f 59//59 55//55 40//40
f 59//59 6//6 55//55
f 59//59 58//58 6//6
f 59//59 41//41 58//58
f 60//60 42//42 24//24
f 60//60 24//24 3//3
f 60//60 3//3 42//42
f 61//61 27//27 14//14
f 61//61 43//43 15//15
f 61//61 15//15 27//27
f 62//62 45//45 9//9
f 62//62 9//9 15//15
f 63//63 28//28 45//45
f 63//63 43//43 61//61
f 63//63 61//61 14//14
f 63//63 14//14 28//28
f 63//63 15//15 43//43
f 63//63 62//62 15//15
f 63//63 45//45 62//62
f 64//64 46//46 3//3
f 64//64 30//30 46//46
f 64//64 47//47 30//30
f 64//64 3//3 47//47

