# https://github.com/mikedh/trimesh
v 0.02584640 -0.02591510 0.02523068
v 0.02526802 -0.03101837 0.02632602
v 0.02706151 -0.02632520 0.00764617
v 0.02282037 -0.03099652 0.00079847
v 0.01070014 -0.03183131 0.00769244
v 0.02660046 -0.02711859 0.00647333
v 0.02283497 -0.03178340 0.02429185
v 0.01120536 -0.03135590 0.00779189
v 0.02331752 -0.03032791 0.00107023
v 0.01079829 -0.03188969 0.00855510
v 0.02151392 -0.03189690 0.00145887
v 0.02539091 -0.02606498 0.02436125
v 0.01114421 -0.03152274 0.00839133
v 0.01169758 -0.03188042 0.00727553
vn 0.32029213 0.66777688 0.67192782
vn 0.29294497 -0.43462551 0.85163602
vn 0.72300293 0.63485164 -0.27245211
vn 0.26037924 -0.26064887 -0.92965844
vn -0.89415929 -0.24012651 -0.37791324
vn 0.85249393 0.09103249 -0.51474964
vn -0.46041985 -0.66802660 0.58459732
vn -0.52456358 0.81175006 -0.25670002
vn 0.50275265 0.32016480 -0.80295347
vn -0.88615548 -0.35435257 0.29860127
vn -0.07458473 -0.72868861 -0.68077164
vn -0.32690159 0.94505322 0.00312271
vn -0.61595543 0.76178073 0.20072126
vn -0.08606900 -0.98685528 -0.13678008
f 1//1 2//2 3//3
f 6//6 3//3 2//2
f 6//6 2//2 4//4
f 7//7 2//2 1//1
f 9//9 6//6 4//4
f 9//9 3//3 6//6
f 9//9 8//8 3//3
f 9//9 4//4 5//5
f 9//9 5//5 8//8
f 10//10 7//7 1//1
f 11//11 4//4 2//2
f 11//11 2//2 7//7
f 11//11 7//7 10//10
f 11//11 5//5 4//4
f 12//12 8//8 1//1
f 12//12 1//1 3//3
f 12//12 3//3 8//8
f 13//13 10//10 1//1
f 13//13 1//1 8//8
f 13//13 8//8 5//5
f 13//13 5//5 10//10
f 14//14 11//11 10//10
f 14//14 10//10 5//5
f 14//14 5//5 11//11

