# https://github.com/mikedh/trimesh
v 0.00387551 0.07396278 -0.00179147
v 0.01895749 0.05085127 -0.01316026
v 0.00613333 0.07268605 -0.01945012
v -0.00613334 0.07707878 -0.02344252
v -0.01352923 0.04725440 -0.01488823
v 0.00601128 0.05107053 -0.02518912
v -0.00401243 0.07917884 -0.00842724
v 0.01316338 0.06211967 -0.00152107
v 0.01383265 0.05819108 -0.02090624
v -0.01293227 0.04724442 -0.02428935
v 0.00311816 0.07579907 -0.01263195
v -0.00806721 0.07206945 -0.00139539
v 0.01461119 0.06134932 -0.01728493
v 0.00617967 0.07287008 -0.00724906
v 0.01176661 0.04982669 -0.00204222
v 0.01115675 0.05103554 -0.02319776
v 0.00399657 0.07202682 -0.02303380
v -0.00876505 0.07545254 -0.02073083
v -0.00304539 0.06414220 -0.02526246
v -0.00336982 0.07833191 -0.00166956
v 0.00117225 0.07675908 -0.02033377
v 0.01720493 0.05603073 -0.01327210
v 0.00409690 0.07470407 -0.00721168
v 0.00812003 0.07103508 -0.01563854
v 0.00281472 0.04759004 -0.01762032
v -0.00767107 0.04734414 -0.00995387
v 0.00557952 0.05495487 -0.00140023
v 0.01365534 0.05554203 -0.02120849
v 0.00299912 0.04776739 -0.02514461
v 0.00937358 0.06665528 -0.02093192
v 0.00892250 0.05958426 -0.02400464
v -0.01441603 0.04723289 -0.02293067
v -0.00758327 0.07651188 -0.00165398
v -0.00672493 0.07802753 -0.02183701
v -0.00626138 0.07257893 -0.02414459
v 0.00262908 0.06474991 -0.02500491
v -0.00593046 0.07814311 -0.00146138
v 0.00303243 0.07570277 -0.01856418
v 0.00149325 0.07672280 -0.01682168
v -0.00365272 0.07771107 -0.02295910
v 0.00207470 0.07490946 -0.02253255
v 0.01587134 0.05902477 -0.01335549
v 0.01868465 0.05178777 -0.01287838
v 0.00304214 0.07471198 -0.00187669
v 0.00717538 0.07174993 -0.01854811
v 0.00697015 0.07196254 -0.00838410
v 0.01468418 0.06117746 -0.01461824
v 0.01861394 0.05073834 -0.01343208
v -0.00949401 0.04721902 -0.01088178
v -0.00475214 0.04757889 -0.01012292
v 0.01048373 0.05162414 -0.00154956
v -0.00685045 0.07044882 -0.00127020
v 0.01069479 0.06046401 -0.02296764
v 0.01278599 0.05105212 -0.02139463
v 0.00892525 0.05093746 -0.02431257
v -0.00776329 0.04768483 -0.02529715
v 0.01350946 0.06016536 -0.02011882
v 0.00619769 0.07167550 -0.02109542
v -0.00723677 0.07656673 -0.02322868
v -0.01311074 0.05509612 -0.01949959
v -0.01449000 0.04747913 -0.01808672
v -0.00773879 0.07712228 -0.02140141
v 0.00573210 0.06043073 -0.02506631
v -0.00257218 0.07341008 -0.02400548
vn 0.49585178 0.50155493 0.70892430
vn 0.89669773 -0.44141983 -0.03288940
vn 0.70580778 0.67134077 -0.22613479
vn -0.16998194 0.52520434 -0.83382645
vn -0.66962630 -0.66692939 0.32681159
vn 0.17993887 -0.08874797 -0.97966617
vn 0.01449280 0.99949579 0.02825114
vn 0.65403512 0.26739640 0.70762789
vn 0.76162229 0.17092563 -0.62507273
vn -0.36842059 -0.61074149 -0.70090021
vn 0.57154515 0.82030164 0.02100879
vn -0.65251541 0.02189679 0.75745903
vn 0.86883821 0.43035126 -0.24478144
vn 0.73377607 0.67181154 0.10120249
vn 0.35028088 -0.64659427 0.67765711
vn 0.55882615 -0.42718968 -0.71078992
vn 0.44054822 0.36629749 -0.81959954
vn -0.92691705 0.33587767 -0.16736481
vn -0.06206655 0.06645919 -0.99585688
vn 0.20233260 0.73602087 0.64601455
vn 0.45124803 0.85929108 -0.24081955
vn 0.93700906 0.34871795 -0.02024362
vn 0.58847515 0.80410163 0.08436574
vn 0.77411467 0.63242978 -0.02791141
vn 0.11282605 -0.99349902 0.01516525
vn -0.20244505 -0.80221174 0.56166922
vn -0.17548743 -0.22302423 0.95888704
vn 0.72031164 -0.01142806 -0.69355644
vn 0.14112151 -0.71376366 -0.68602198
vn 0.71335501 0.41999336 -0.56100820
vn 0.40107553 0.11176698 -0.90920106
vn -0.75630103 -0.56004160 -0.33817475
vn -0.72217832 0.37485357 0.58132889
vn -0.37333855 0.88890207 -0.26546455
vn -0.19903204 0.12412870 -0.97209995
vn 0.14050354 0.14145412 -0.97992320
vn -0.32108043 0.67485874 0.66443438
vn 0.61750918 0.77940404 -0.10588559
vn 0.45732735 0.88913069 -0.01727188
vn 0.16942342 0.76583584 -0.62031538
vn 0.45467208 0.57229688 -0.68245849
vn 0.89627765 0.44250984 0.02951976
vn 0.95923541 0.27070246 0.08116411
vn 0.47047832 0.68738382 0.55331152
vn 0.76098406 0.62447051 -0.17589725
vn 0.80308692 0.59228866 0.06515781
vn 0.85097191 0.52427544 0.03133809
vn 0.41404187 -0.88661567 -0.20611158
vn -0.37015827 -0.77361906 0.51429214
vn 0.08627541 -0.99198860 0.09227769
vn -0.01386316 -0.22563453 0.97411338
vn -0.23489524 -0.14433489 0.96124485
vn 0.56664905 0.22133208 -0.79367561
vn 0.65505677 -0.52478404 -0.54360127
vn 0.38854947 -0.24718161 -0.88765453
vn -0.06641336 -0.53156980 -0.84440678
vn 0.76384789 0.36516587 -0.53215626
vn 0.69982622 0.51902831 -0.49076765
vn -0.60013108 0.38517480 -0.70105853
vn -0.98030676 0.19726017 -0.00933156
vn -0.88065675 -0.46421297 0.09460446
vn -0.78849908 0.59002297 -0.17361480
vn 0.21204732 0.09733223 -0.97240031
vn 0.10335218 0.20695286 -0.97287658
f 13//13 2//2 9//9
f 14//14 1//1 8//8
f 15//15 2//2 8//8
f 20//20 11//11 7//7
f 22//22 2//2 13//13
f 23//23 14//14 11//11
f 23//23 1//1 14//14
f 23//23 11//11 20//20
f 24//24 11//11 14//14
f 27//27 26//26 15//15
f 28//28 9//9 2//2
f 29//29 25//25 10//10
f 37//37 8//8 1//1
f 37//37 1//1 20//20
f 37//37 33//33 12//12
f 37//37 20//20 7//7
f 37//37 7//7 34//34
f 38//38 3//3 21//21
f 38//38 11//11 24//24
f 39//39 21//21 7//7
f 39//39 7//7 11//11
f 39//39 38//38 21//21
f 39//39 11//11 38//38
f 40//40 4//4 34//34
f 40//40 34//34 7//7
f 40//40 7//7 21//21
f 41//41 21//21 3//3
f 41//41 40//40 21//21
f 41//41 17//17 40//40
f 42//42 22//22 13//13
f 42//42 8//8 22//22
f 43//43 22//22 8//8
f 43//43 8//8 2//2
f 43//43 2//2 22//22
f 44//44 23//23 20//20
f 44//44 20//20 1//1
f 44//44 1//1 23//23
f 45//45 24//24 13//13
f 45//45 38//38 24//24
f 45//45 3//3 38//38
f 46//46 24//24 14//14
f 46//46 14//14 8//8
f 46//46 8//8 24//24
f 47//47 24//24 8//8
f 47//47 13//13 24//24
f 47//47 42//42 13//13
f 47//47 8//8 42//42
f 48//48 2//2 15//15
f 48//48 15//15 25//25
f 48//48 25//25 29//29
f 49//49 12//12 5//5
f 49//49 10//10 25//25
f 49//49 25//25 26//26
f 49//49 32//32 10//10
f 49//49 5//5 32//32
f 50//50 26//26 25//25
f 50//50 25//25 15//15
f 50//50 15//15 26//26
f 51//51 27//27 15//15
f 51//51 15//15 8//8
f 51//51 8//8 27//27
f 52//52 27//27 8//8
f 52//52 26//26 27//27
f 52//52 49//49 26//26
f 52//52 12//12 49//49
f 52//52 37//37 12//12
f 52//52 8//8 37//37
f 53//53 28//28 16//16
f 53//53 9//9 28//28
f 53//53 16//16 31//31
f 53//53 31//31 17//17
f 53//53 30//30 9//9
f 53//53 17//17 30//30
f 54//54 28//28 2//2
f 54//54 16//16 28//28
f 54//54 2//2 48//48
f 54//54 48//48 29//29
f 54//54 29//29 16//16
f 55//55 29//29 6//6
f 55//55 16//16 29//29
f 55//55 31//31 16//16
f 56//56 19//19 6//6
f 56//56 6//6 29//29
f 56//56 29//29 10//10
f 56//56 35//35 19//19
f 56//56 10//10 35//35
f 57//57 30//30 13//13
f 57//57 13//13 9//9
f 57//57 9//9 30//30
f 58//58 30//30 17//17
f 58//58 13//13 30//30
f 58//58 45//45 13//13
f 58//58 3//3 45//45
f 58//58 41//41 3//3
f 58//58 17//17 41//41
f 59//59 32//32 18//18
f 59//59 10//10 32//32
f 59//59 35//35 10//10
f 59//59 4//4 35//35
f 59//59 34//34 4//4
f 60//60 33//33 18//18
f 60//60 18//18 32//32
f 61//61 5//5 12//12
f 61//61 12//12 33//33
f 61//61 33//33 60//60
f 61//61 60//60 32//32
f 61//61 32//32 5//5
f 62//62 18//18 33//33
f 62//62 37//37 34//34
f 62//62 33//33 37//37
f 62//62 59//59 18//18
f 62//62 34//34 59//59
f 63//63 36//36 17//17
f 63//63 17//17 31//31
f 63//63 6//6 19//19
f 63//63 19//19 36//36
f 63//63 55//55 6//6
f 63//63 31//31 55//55
f 64//64 35//35 4//4
f 64//64 4//4 40//40
f 64//64 40//40 17//17
f 64//64 17//17 36//36
f 64//64 36//36 19//19
f 64//64 19//19 35//35

