# https://github.com/mikedh/trimesh
v 0.02420512 -0.00333756 0.02646323
v 0.02612908 -0.08230794 -0.00022282
v 0.01847747 0.04682511 -0.00298004
v -0.04136132 0.05341182 0.00394386
v -0.02173970 -0.08973218 0.02405579
v -0.02066465 -0.11427073 -0.00238514
v -0.04373836 0.05434353 0.02063040
v 0.02801056 0.03104804 -0.00107614
v 0.01124764 -0.09327258 0.02484580
v 0.01546664 -0.11480319 -0.00277553
v -0.04980381 -0.02218613 -0.00030560
v 0.01364162 0.04281606 0.01690554
v -0.04415800 0.05794200 0.01197400
v -0.03529841 -0.02251773 0.02822492
v 0.02757700 -0.00113600 0.02393000
v -0.01929654 -0.11089139 0.01696619
v 0.02201229 -0.08195208 0.01704288
v 0.02849016 -0.03351031 -0.00027139
v 0.00215806 0.04292766 -0.00213619
v -0.03469462 0.03290058 0.02671041
v 0.02792290 0.03109538 0.01599067
v -0.05159142 0.04130325 0.01386712
v -0.04299476 0.05717866 0.01349702
v -0.03363999 -0.02265538 0.02834312
v -0.05067900 -0.02208900 0.01495700
v -0.00937700 -0.09965100 0.02393000
v 0.00692600 -0.11121300 0.01716900
v -0.04355613 0.03134114 0.02657113
v 0.01747284 0.04289683 0.00954213
v -0.05088257 0.04432064 0.01258156
v 0.00781539 -0.09624197 0.02493549
v -0.01370468 -0.09648615 0.02460212
v -0.04017254 -0.02961557 0.02538294
v -0.03036825 -0.09763707 0.01522296
v -0.05141909 -0.02853963 0.00796278
v 0.00033471 -0.09906056 0.02453913
v 0.01237825 -0.11014254 0.01414602
v -0.04389307 0.05338553 0.02088965
v -0.05174211 0.02635808 0.01682769
v -0.05097685 0.04023520 0.00888046
v -0.03552485 -0.02548571 0.02807387
v -0.02177546 -0.10886078 0.01653645
v -0.02969799 -0.09692493 0.01622616
v -0.05125293 -0.02929135 0.00812555
v -0.05063763 -0.02533589 0.00106541
v -0.05087371 0.01280200 0.01702356
v -0.04791813 0.03921873 0.00529694
v -0.02295056 -0.10959499 0.01523427
v -0.05114236 0.01072944 0.00518079
vn 0.35722171 0.03726911 0.93327577
vn 0.86622674 -0.15467646 -0.47510675
vn 0.43140511 0.70151807 -0.56724072
vn -0.33629476 0.53227648 -0.77690899
vn -0.37352914 -0.19602919 0.90666892
vn -0.41883166 -0.70856485 -0.56790482
vn -0.35481388 0.65725053 0.66492771
vn 0.79255511 0.19612585 -0.57740025
vn 0.43908563 -0.21255000 0.87294118
vn 0.51312982 -0.69852149 -0.49876398
vn -0.54304343 0.00935777 -0.83965246
vn 0.33687864 0.66508052 0.66646881
vn -0.44551748 0.89193390 -0.07725338
vn -0.19518651 -0.01598860 0.98063581
vn 0.84963490 0.05340071 0.52466074
vn -0.25425225 -0.76281675 0.59453040
vn 0.85426019 -0.18853335 0.48445300
vn 0.82073869 -0.03154103 -0.57043244
vn -0.08386593 0.09547495 -0.99189266
vn 0.03916369 0.18313599 0.98230719
vn 0.78853137 0.34862526 0.50663469
vn -0.96007815 0.15403375 0.23350280
vn 0.17323341 0.92067717 0.34977669
vn -0.02126425 -0.01263715 0.99969402
vn -0.89702418 -0.09552889 0.43153430
vn -0.06594918 -0.39520606 0.91622207
vn 0.19980783 -0.77679114 0.59722052
vn -0.44269593 0.10419402 0.89059751
vn 0.59290675 0.74929423 0.29499107
vn -0.93151429 0.36113646 -0.04314607
vn 0.18250935 -0.27794875 0.94309853
vn -0.15945942 -0.23678744 0.95838635
vn -0.60369179 -0.13615807 0.78550443
vn -0.88493453 -0.37295934 0.27891256
vn -0.98877631 -0.14934078 -0.00432787
vn 0.01804578 -0.32996621 0.94382024
vn 0.64827456 -0.60689923 0.45979715
vn -0.49923850 0.27707425 0.82096942
vn -0.93987052 0.01624109 0.34114459
vn -0.88988713 0.17235716 -0.42236703
vn -0.26942908 -0.06905851 0.96054094
vn -0.49743827 -0.38137273 0.77917264
vn -0.63080946 -0.27552366 0.72537310
vn -0.96412869 -0.26174965 0.04407936
vn -0.87535365 -0.13497330 -0.46426092
vn -0.76682612 -0.04181058 0.64049166
vn -0.59443853 0.14094354 -0.79169296
vn -0.66149783 -0.64372674 0.38475511
vn -0.91662152 0.04647404 -0.39704553
f 10//10 6//6 3//3
f 10//10 3//3 8//8
f 11//11 3//3 6//6
f 13//13 3//3 4//4
f 13//13 12//12 3//3
f 15//15 1//1 9//9
f 17//17 10//10 2//2
f 17//17 15//15 9//9
f 17//17 2//2 15//15
f 18//18 10//10 8//8
f 18//18 2//2 10//10
f 18//18 15//15 2//2
f 19//19 11//11 4//4
f 19//19 4//4 3//3
f 19//19 3//3 11//11
f 20//20 12//12 7//7
f 20//20 1//1 12//12
f 21//21 8//8 3//3
f 21//21 12//12 1//1
f 21//21 1//1 15//15
f 21//21 18//18 8//8
f 21//21 15//15 18//18
f 23//23 13//13 7//7
f 23//23 7//7 12//12
f 23//23 12//12 13//13
f 24//24 1//1 20//20
f 27//27 16//16 6//6
f 27//27 6//6 10//10
f 28//28 24//24 20//20
f 28//28 14//14 24//24
f 29//29 21//21 3//3
f 29//29 3//3 12//12
f 29//29 12//12 21//21
f 30//30 22//22 7//7
f 30//30 7//7 13//13
f 31//31 9//9 1//1
f 31//31 1//1 24//24
f 31//31 27//27 9//9
f 32//32 5//5 16//16
f 32//32 16//16 26//26
f 32//32 31//31 24//24
f 33//33 28//28 25//25
f 34//34 33//33 25//25
f 36//36 26//26 16//16
f 36//36 16//16 27//27
f 36//36 27//27 31//31
f 36//36 32//32 26//26
f 36//36 31//31 32//32
f 37//37 17//17 9//9
f 37//37 9//9 27//27
f 37//37 27//27 10//10
f 37//37 10//10 17//17
f 38//38 28//28 20//20
f 38//38 20//20 7//7
f 38//38 7//7 22//22
f 38//38 22//22 28//28
f 39//39 28//28 22//22
f 39//39 35//35 25//25
f 39//39 22//22 35//35
f 40//40 30//30 13//13
f 40//40 13//13 4//4
f 40//40 22//22 30//30
f 41//41 32//32 24//24
f 41//41 24//24 14//14
f 41//41 5//5 32//32
f 41//41 33//33 5//5
f 41//41 14//14 28//28
f 41//41 28//28 33//33
f 42//42 16//16 5//5
f 43//43 5//5 33//33
f 43//43 33//33 34//34
f 43//43 42//42 5//5
f 44//44 34//34 25//25
f 44//44 25//25 35//35
f 44//44 6//6 34//34
f 45//45 11//11 6//6
f 45//45 44//44 35//35
f 45//45 6//6 44//44
f 46//46 39//39 25//25
f 46//46 25//25 28//28
f 46//46 28//28 39//39
f 47//47 40//40 4//4
f 47//47 4//4 11//11
f 48//48 34//34 6//6
f 48//48 6//6 16//16
f 48//48 16//16 42//42
f 48//48 43//43 34//34
f 48//48 42//42 43//43
f 49//49 11//11 45//45
f 49//49 47//47 11//11
f 49//49 40//40 47//47
f 49//49 22//22 40//40
f 49//49 45//45 35//35
f 49//49 35//35 22//22

