# https://github.com/mikedh/trimesh
v 0.02901915 0.04287927 -0.00235595
v 0.02276948 -0.10356113 -0.00245124
v 0.03396196 -0.01782752 -0.03620501
v -0.04411474 0.03246109 -0.03050710
v -0.05127585 0.03136111 0.00137898
v -0.01326254 -0.09731250 -0.03696563
v 0.03264011 0.04133854 -0.03706998
v 0.04175523 -0.00306982 -0.01746023
v 0.00249808 0.04248928 0.00128710
v 0.01413495 -0.10865607 -0.02677591
v -0.04377523 -0.04870910 -0.02420637
v 0.02546960 0.04115967 -0.03778765
v 0.02849016 -0.03351031 -0.00027139
v 0.03152629 -0.05485790 -0.03067274
v 0.03542980 0.04252676 -0.02558320
v 0.03990858 -0.02121667 -0.02538474
v -0.02199149 0.04402064 0.00151353
v -0.02066465 -0.11427073 -0.00238514
v -0.04959200 0.03334200 -0.02513900
v -0.03233930 -0.04846830 -0.03381321
v 0.02028815 -0.07102389 -0.03628720
v 0.02612908 -0.08230794 -0.00022282
v 0.03925807 0.02622704 -0.02503937
v -0.01918709 0.04252001 -0.02730672
v 0.01546664 -0.11480319 -0.00277553
v -0.01052777 -0.11266310 -0.02861278
v -0.05074536 -0.02245763 0.00156898
v -0.04315216 -0.04483221 -0.02689451
v -0.01941738 -0.07664862 -0.03660290
v 0.02252754 -0.06463788 -0.03602290
v 0.02207105 -0.07104298 -0.03468385
v -0.00720400 -0.09989075 -0.03633998
v 0.04037640 0.00831824 -0.01778481
v 0.01353281 -0.11188101 -0.02469329
v 0.00918142 -0.11348579 -0.02717453
v -0.02290789 -0.10980240 -0.01607394
v -0.04384603 -0.04937031 -0.01834424
v -0.04726381 -0.03060128 -0.02250795
v -0.04130069 -0.04853712 -0.02812301
v -0.01744152 -0.08909607 -0.03680172
v -0.01180254 -0.03073752 -0.03629700
v 0.02960981 -0.05473924 -0.03239801
v -0.01155100 -0.09925700 -0.03654100
v -0.04705757 -0.03040274 -0.02326480
v -0.02016904 -0.08868995 -0.03378597
vn 0.47996609 0.63431955 0.60602909
vn 0.77776105 -0.35855454 0.51626194
vn 0.55179818 -0.04002327 -0.83301675
vn -0.42275112 0.40388377 -0.81127023
vn -0.69013147 0.41599007 0.59217465
vn -0.36531131 -0.27230352 -0.89016765
vn 0.47439732 0.58502243 -0.65779628
vn 0.97887940 0.00351227 0.20440835
vn 0.06927369 0.47627033 0.87656587
vn 0.68799926 -0.36283080 -0.62849887
vn -0.91737823 -0.26971347 -0.29269749
vn -0.00146815 0.62451945 -0.78100788
vn 0.49039743 -0.01580836 0.87135553
vn 0.86540173 -0.22159636 -0.44941617
vn 0.67031654 0.74136070 -0.03255851
vn 0.97110825 -0.11560932 -0.20876601
vn -0.13211728 0.74700706 0.65155620
vn -0.46220298 -0.69255199 0.55384126
vn -0.77778851 0.51799655 -0.35598399
vn -0.37724944 -0.04526475 -0.92500484
vn 0.36825145 -0.15887524 -0.91605105
vn 0.64241430 -0.13318415 0.75469587
vn 0.98733583 0.12629264 -0.09601110
vn -0.15727629 0.90049405 -0.40543142
vn 0.41055683 -0.73871448 0.53455028
vn -0.27897103 -0.78848529 -0.54814789
vn -0.74819663 -0.10066683 0.65579570
vn -0.77803642 -0.11391050 -0.61780557
vn -0.15879418 -0.00607959 -0.98729299
vn 0.52854293 -0.14841786 -0.83583163
vn 0.69001962 -0.25761684 -0.67639226
vn 0.09418972 -0.31292693 -0.94509525
vn 0.95185899 0.13049035 0.27737471
vn 0.68324597 -0.64404732 -0.34406103
vn 0.24645080 -0.78407883 -0.56963356
vn -0.76523983 -0.59062734 -0.25606122
vn -0.95733695 -0.28875299 0.01129938
vn -0.97470776 -0.11810967 -0.18972317
vn -0.69026727 -0.19052595 -0.69801931
vn -0.42688544 -0.17980847 -0.88624925
vn -0.10088797 0.02503258 -0.99458282
vn 0.63590625 -0.16764411 -0.75333837
vn -0.14901038 -0.39493474 -0.90654424
vn -0.88789930 -0.07666087 -0.45360549
vn -0.74727384 -0.33444284 -0.57422103
f 12//12 7//7 3//3
f 13//13 8//8 1//1
f 13//13 1//1 9//9
f 14//14 2//2 10//10
f 16//16 3//3 7//7
f 16//16 14//14 3//3
f 16//16 2//2 14//14
f 17//17 9//9 1//1
f 17//17 1//1 15//15
f 19//19 5//5 17//17
f 21//21 12//12 3//3
f 21//21 6//6 12//12
f 22//22 8//8 13//13
f 22//22 16//16 8//8
f 22//22 2//2 16//16
f 22//22 13//13 9//9
f 23//23 7//7 15//15
f 23//23 16//16 7//7
f 23//23 8//8 16//16
f 23//23 15//15 1//1
f 24//24 15//15 7//7
f 24//24 7//7 12//12
f 24//24 17//17 15//15
f 24//24 19//19 17//17
f 24//24 12//12 4//4
f 24//24 4//4 19//19
f 25//25 22//22 18//18
f 25//25 2//2 22//22
f 27//27 5//5 19//19
f 27//27 18//18 22//22
f 27//27 17//17 5//5
f 27//27 22//22 9//9
f 27//27 9//9 17//17
f 28//28 19//19 4//4
f 29//29 20//20 4//4
f 30//30 21//21 3//3
f 30//30 14//14 21//21
f 31//31 21//21 14//14
f 31//31 14//14 10//10
f 31//31 10//10 21//21
f 32//32 6//6 21//21
f 33//33 23//23 1//1
f 33//33 1//1 8//8
f 33//33 8//8 23//23
f 34//34 10//10 2//2
f 34//34 2//2 25//25
f 35//35 25//25 18//18
f 35//35 18//18 26//26
f 35//35 34//34 25//25
f 35//35 10//10 34//34
f 35//35 26//26 32//32
f 35//35 32//32 21//21
f 35//35 21//21 10//10
f 36//36 26//26 18//18
f 36//36 6//6 26//26
f 37//37 27//27 11//11
f 37//37 18//18 27//27
f 37//37 36//36 18//18
f 37//37 11//11 36//36
f 38//38 27//27 19//19
f 38//38 11//11 27//27
f 39//39 28//28 4//4
f 39//39 4//4 20//20
f 39//39 11//11 28//28
f 39//39 36//36 11//11
f 40//40 29//29 12//12
f 40//40 12//12 6//6
f 40//40 20//20 29//29
f 40//40 39//39 20//20
f 41//41 29//29 4//4
f 41//41 4//4 12//12
f 41//41 12//12 29//29
f 42//42 30//30 3//3
f 42//42 3//3 14//14
f 42//42 14//14 30//30
f 43//43 32//32 26//26
f 43//43 26//26 6//6
f 43//43 6//6 32//32
f 44//44 28//28 11//11
f 44//44 11//11 38//38
f 44//44 38//38 19//19
f 44//44 19//19 28//28
f 45//45 40//40 6//6
f 45//45 6//6 36//36
f 45//45 36//36 39//39
f 45//45 39//39 40//40

