# https://github.com/mikedh/trimesh
v -0.02046228 -0.04895294 0.02570576
v -0.01971107 -0.11200205 0.01525256
v -0.02146286 -0.04931803 -0.03499465
v -0.03233930 -0.04846830 -0.03381321
v -0.04364610 -0.05466556 0.00652545
v -0.02026457 -0.11141893 -0.01681158
v -0.02039434 -0.08346317 -0.03655207
v -0.02937497 -0.09926397 0.01514232
v -0.04377523 -0.04870910 -0.02420637
v -0.02113769 -0.05251040 0.02505601
v -0.03204282 -0.10040579 -0.00498403
v -0.04350331 -0.05007543 -0.01465128
v -0.04052285 -0.07013746 -0.01808442
v -0.02233508 -0.04971901 0.02523393
v -0.02244437 -0.11092301 0.01445158
v -0.03206169 -0.10001596 0.00448081
v -0.04002900 -0.05904300 -0.02498000
v -0.02190277 -0.11124000 -0.01632924
v -0.04383406 -0.06341927 -0.00650541
v -0.03123951 -0.08395788 0.01551824
v -0.04283638 -0.05976249 0.00718328
v -0.04313930 -0.05923556 -0.01991219
v -0.04321900 -0.06339000 -0.01628500
v -0.03165559 -0.09518092 0.01202828
v -0.04340580 -0.05141252 -0.02363360
vn 0.43504510 0.58032780 0.68844419
vn 0.43283491 -0.70712431 0.55913249
vn 0.55420897 0.56795346 -0.60850742
vn -0.32779633 0.63261826 -0.70167208
vn -0.83103874 0.40682436 0.37930009
vn 0.51931560 -0.73133868 -0.44210297
vn 0.34187519 -0.35797086 -0.86889482
vn -0.66493893 -0.31657649 0.67648766
vn -0.73819391 0.57148874 -0.35842763
vn -0.15913431 -0.16144745 0.97396663
vn -0.86631838 -0.48339290 -0.12579257
vn -0.65102279 0.74771483 0.13073584
vn -0.86090827 -0.33720908 -0.38095536
vn -0.48589181 0.41453341 0.76946163
vn -0.57305476 -0.67318836 0.46736033
vn -0.88358297 -0.45460355 0.11232433
vn -0.74074948 -0.24669893 -0.62484386
vn -0.50626161 -0.77647718 -0.37520977
vn -0.98550276 -0.16845088 0.02021420
vn -0.64109888 -0.08969281 0.76219907
vn -0.87767525 -0.12794366 0.46186207
vn -0.91428645 -0.21265110 -0.34476050
vn -0.96198988 -0.21545411 -0.16779453
vn -0.92017236 -0.26843734 0.28499864
vn -0.84665805 -0.22381950 -0.48277840
f 1//1 3//3 4//4
f 7//7 1//1 2//2
f 7//7 3//3 1//1
f 7//7 2//2 6//6
f 7//7 4//4 3//3
f 9//9 1//1 4//4
f 9//9 4//4 7//7
f 10//10 8//8 2//2
f 10//10 2//2 1//1
f 12//12 9//9 5//5
f 12//12 5//5 1//1
f 12//12 1//1 9//9
f 14//14 10//10 1//1
f 14//14 1//1 5//5
f 14//14 8//8 10//10
f 15//15 2//2 8//8
f 16//16 15//15 8//8
f 16//16 11//11 15//15
f 17//17 9//9 7//7
f 17//17 7//7 13//13
f 18//18 13//13 7//7
f 18//18 7//7 6//6
f 18//18 11//11 13//13
f 18//18 15//15 11//11
f 18//18 6//6 2//2
f 18//18 2//2 15//15
f 19//19 5//5 9//9
f 19//19 11//11 16//16
f 20//20 8//8 14//14
f 21//21 19//19 16//16
f 21//21 5//5 19//19
f 21//21 8//8 20//20
f 21//21 20//20 14//14
f 21//21 14//14 5//5
f 22//22 17//17 13//13
f 23//23 13//13 11//11
f 23//23 11//11 19//19
f 23//23 22//22 13//13
f 23//23 19//19 9//9
f 23//23 9//9 22//22
f 24//24 21//21 16//16
f 24//24 16//16 8//8
f 24//24 8//8 21//21
f 25//25 22//22 9//9
f 25//25 9//9 17//17
f 25//25 17//17 22//22

