# https://github.com/mikedh/trimesh
v 0.00465506 0.09529436 0.02812356
v 0.02549011 0.04270115 0.02067351
v 0.03580792 0.10198562 0.00164375
v -0.01614564 0.09211521 -0.03230526
v -0.04967000 0.03037137 0.01764908
v 0.02553174 0.04268625 -0.03667368
v -0.03062629 0.10107666 -0.02281049
v 0.03612498 0.09222637 0.01506020
v -0.04355613 0.03134114 0.02657113
v 0.02446292 0.09490847 -0.02986332
v -0.04411474 0.03246109 -0.03050710
v -0.01312526 0.10108747 0.02348680
v 0.00542053 0.09203141 0.02844093
v 0.03080246 0.10076964 0.01308407
v 0.03646463 0.09260713 -0.00012663
v -0.02071959 0.03127886 0.00157391
v 0.01568110 0.09313809 -0.03392456
v -0.00609496 0.10083430 -0.02339867
v -0.01512764 0.07899177 -0.03272374
v -0.04022520 0.09322886 -0.02616546
v -0.02388222 0.07625200 0.02957132
v -0.00975619 0.07570029 0.03206733
v 0.03409800 0.10157800 0.00980100
v 0.03308073 0.09862345 0.01391369
v -0.00598192 0.10092922 0.02600398
v 0.02441244 0.04187184 -0.03521233
v -0.02487578 0.03185835 0.01795766
v -0.02346035 0.03220158 -0.02932370
v 0.02361581 0.08759219 -0.03266006
v -0.03110498 0.10077440 -0.02719037
v 0.02449119 0.09687428 -0.02769577
v -0.04339525 0.05011096 -0.03025596
v -0.05176600 0.09420800 0.00736300
v -0.03469462 0.03290058 0.02671041
v -0.00937700 0.09638100 0.02836500
v -0.02795080 0.09885736 -0.02839327
v 0.02073357 0.09642315 -0.02918739
v -0.03537413 0.09211853 -0.02837394
v -0.04687376 0.09580341 0.00823016
v -0.05089754 0.09369618 -0.00524678
v -0.04753526 0.09585994 0.00160566
v -0.04087577 0.07677764 0.02497545
v -0.00610387 0.09908023 0.02716932
v -0.02052815 0.09601382 0.02717177
v -0.04959200 0.03334200 -0.02513900
v -0.04186793 0.09460781 0.01764636
v -0.01139472 0.10068919 0.02508466
v -0.05090013 0.09110577 -0.00777892
v -0.05281676 0.06097377 0.00661669
v -0.04332798 0.08838182 0.01867096
v -0.04222226 0.09631236 0.01218057
v -0.05097467 0.05944028 -0.01085630
vn 0.22281642 0.40766418 0.88552965
vn 0.62176108 -0.57108039 0.53598539
vn 0.69261942 0.71498245 -0.09528083
vn -0.10065065 0.21806728 -0.97072968
vn -0.69107214 -0.67130215 0.26790432
vn 0.58398390 -0.44428872 -0.67938968
vn -0.15874524 0.98706591 -0.02237933
vn 0.83291193 0.09119940 0.54583916
vn -0.37161471 -0.60125278 0.70738787
vn 0.62067367 0.42666979 -0.65781234
vn -0.34461085 -0.61807194 -0.70656241
vn -0.16404543 0.95036878 0.26436392
vn 0.27503701 0.08891475 0.95731333
vn 0.26014205 0.78708466 0.55930658
vn 0.98848152 -0.01309658 -0.15077390
vn 0.12933289 -0.99154221 0.01081912
vn 0.09404691 0.44078115 -0.89267416
vn 0.04211597 0.97032657 -0.23810205
vn -0.09160942 0.02076256 -0.99557854
vn -0.64595684 0.38428171 -0.65959633
vn -0.21003050 0.08935676 0.97360287
vn 0.03858195 0.00476826 0.99924406
vn 0.54288305 0.79211197 0.27899216
vn 0.52171064 0.50282092 0.68919456
vn 0.01737760 0.84514452 0.53425533
vn 0.34248238 -0.92531559 -0.16277858
vn 0.14388654 -0.97458617 0.17169290
vn 0.07115512 -0.91650796 -0.39363703
vn 0.59343163 0.13809652 -0.79294908
vn -0.26843431 0.77410143 -0.57333237
vn 0.45683884 0.77249638 -0.44107553
vn -0.49399332 0.07302064 -0.86639401
vn -0.80592735 0.54292411 0.23603922
vn 0.12094648 -0.63042827 0.76676733
vn -0.05650338 0.33260440 0.94137223
vn -0.13014047 0.34581174 -0.92923501
vn 0.10545160 0.82029367 -0.56213722
vn -0.29086038 0.17529041 -0.94057084
vn -0.28721940 0.94549672 0.15343068
vn -0.81296367 0.55983844 -0.16022172
vn -0.34825102 0.93723903 -0.01744187
vn -0.55449214 0.13659052 0.82090286
vn 0.00469184 0.47602232 0.87942069
vn -0.25679981 0.50301573 0.82524483
vn -0.77772865 -0.52210300 -0.35006656
vn -0.48136022 0.62854991 0.61091517
vn -0.16158409 0.81318890 0.55911931
vn -0.93441796 0.19274988 -0.29951721
vn -0.99384814 -0.00503585 0.11063687
vn -0.68319528 0.24168054 0.68908253
vn -0.26974663 0.93770768 0.21895447
vn -0.99357098 0.01066325 -0.11270764
f 12//12 3//3 7//7
f 13//13 8//8 1//1
f 13//13 2//2 8//8
f 15//15 3//3 8//8
f 15//15 10//10 3//3
f 15//15 6//6 10//10
f 15//15 8//8 2//2
f 15//15 2//2 6//6
f 17//17 6//6 4//4
f 18//18 7//7 3//3
f 19//19 4//4 6//6
f 19//19 6//6 11//11
f 22//22 2//2 13//13
f 22//22 21//21 9//9
f 22//22 13//13 1//1
f 23//23 8//8 3//3
f 24//24 14//14 1//1
f 24//24 1//1 8//8
f 24//24 23//23 14//14
f 24//24 8//8 23//23
f 25//25 1//1 14//14
f 25//25 14//14 23//23
f 25//25 23//23 3//3
f 25//25 3//3 12//12
f 26//26 6//6 2//2
f 26//26 2//2 16//16
f 27//27 16//16 2//2
f 27//27 9//9 5//5
f 27//27 5//5 16//16
f 28//28 16//16 5//5
f 28//28 5//5 11//11
f 28//28 26//26 16//16
f 28//28 11//11 6//6
f 28//28 6//6 26//26
f 29//29 17//17 10//10
f 29//29 10//10 6//6
f 29//29 6//6 17//17
f 30//30 7//7 18//18
f 31//31 18//18 3//3
f 31//31 3//3 10//10
f 31//31 30//30 18//18
f 32//32 19//19 11//11
f 32//32 4//4 19//19
f 33//33 5//5 9//9
f 34//34 22//22 9//9
f 34//34 2//2 22//22
f 34//34 27//27 2//2
f 34//34 9//9 27//27
f 35//35 22//22 1//1
f 36//36 30//30 17//17
f 36//36 17//17 4//4
f 37//37 31//31 10//10
f 37//37 10//10 17//17
f 37//37 17//17 30//30
f 37//37 30//30 31//31
f 38//38 32//32 20//20
f 38//38 4//4 32//32
f 38//38 36//36 4//4
f 38//38 20//20 30//30
f 38//38 30//30 36//36
f 39//39 12//12 7//7
f 40//40 30//30 20//20
f 41//41 7//7 30//30
f 41//41 40//40 33//33
f 41//41 30//30 40//40
f 41//41 39//39 7//7
f 41//41 33//33 39//39
f 42//42 33//33 9//9
f 42//42 9//9 21//21
f 43//43 35//35 1//1
f 43//43 1//1 25//25
f 44//44 21//21 22//22
f 44//44 22//22 35//35
f 44//44 42//42 21//21
f 44//44 43//43 25//25
f 44//44 35//35 43//43
f 45//45 20//20 32//32
f 45//45 32//32 11//11
f 45//45 11//11 5//5
f 46//46 42//42 44//44
f 47//47 44//44 25//25
f 47//47 25//25 12//12
f 47//47 46//46 44//44
f 47//47 12//12 46//46
f 48//48 40//40 20//20
f 48//48 20//20 45//45
f 48//48 33//33 40//40
f 49//49 45//45 5//5
f 49//49 5//5 33//33
f 49//49 33//33 48//48
f 50//50 46//46 33//33
f 50//50 33//33 42//42
f 50//50 42//42 46//46
f 51//51 39//39 33//33
f 51//51 33//33 46//46
f 51//51 46//46 12//12
f 51//51 12//12 39//39
f 52//52 49//49 48//48
f 52//52 48//48 45//45
f 52//52 45//45 49//49

