# https://github.com/mikedh/trimesh
v 0.02043207 0.04247351 0.02821353
v 0.04044291 0.00460670 0.01655382
v 0.04045863 0.04315096 0.01748216
v 0.01847747 0.04682511 -0.00298004
v -0.02522818 -0.00324739 0.02212460
v 0.02901915 0.04287927 -0.00235595
v -0.00353222 0.04433629 0.02962429
v 0.03230082 0.01270587 0.02509302
v 0.01741908 -0.00314960 0.00899308
v -0.01870969 0.02808907 0.01634576
v 0.03990096 0.04140802 0.01824849
v 0.02646969 -0.00051896 0.02580483
v 0.02226318 0.03172397 -0.00265396
v -0.00539081 0.04295991 0.01819444
v -0.02487113 -0.00375171 0.02102854
v -0.02449809 -0.00397561 0.02713267
v 0.03411742 0.03989486 0.02393053
v 0.02866300 0.00291000 0.02527500
v 0.03210693 -0.00270033 0.01686940
v 0.02126321 0.03142318 0.02804128
v 0.02801056 0.03104804 -0.00107614
v -0.02468756 -0.00302646 0.02636646
v 0.03216910 -0.00246169 0.01649080
v 0.01329365 0.00867988 0.02786274
v -0.01331670 0.02577960 0.02828404
v 0.00983062 0.00612716 0.02760502
v -0.01423425 0.00926054 0.02829763
vn 0.17152066 0.58724876 0.79102437
vn 0.90310311 -0.42594234 -0.05457010
vn 0.79953199 0.58499490 0.13612335
vn -0.12605043 0.69387607 -0.70897623
vn -0.98349743 -0.16888447 -0.06489104
vn 0.51792875 0.42154023 -0.74434780
vn -0.32326135 0.67931238 0.65881469
vn 0.48341285 -0.06385677 0.87306033
vn 0.04289281 -0.76202746 -0.64612256
vn -0.88301058 0.32689557 -0.33679607
vn 0.75148652 0.02565560 0.65924942
vn 0.26684531 -0.58967486 0.76228416
vn -0.04658940 -0.18435222 -0.98175541
vn -0.55105794 0.80399139 -0.22345692
vn -0.61238896 -0.61395824 -0.49803117
vn -0.54430840 -0.57476907 0.61103917
vn 0.48378098 0.29240586 0.82489683
vn 0.53201420 -0.20274841 0.82210338
vn 0.43278027 -0.90054725 0.04142332
vn 0.15870304 -0.01285988 0.98724261
vn 0.45687060 -0.21613850 -0.86287508
vn -0.94109397 0.14141679 0.30715376
vn 0.45724918 -0.68362995 -0.56883503
vn 0.05938341 -0.08530798 0.99458341
vn -0.58889166 0.22409037 0.77652438
vn 0.03344976 -0.15408582 0.98749110
vn -0.03916046 -0.04565854 0.99818924
f 6//6 3//3 2//2
f 6//6 4//4 3//3
f 7//7 1//1 3//3
f 7//7 3//3 4//4
f 11//11 8//8 2//2
f 11//11 2//2 3//3
f 13//13 4//4 6//6
f 14//14 10//10 7//7
f 14//14 7//7 4//4
f 14//14 4//4 10//10
f 15//15 10//10 4//4
f 15//15 5//5 10//10
f 15//15 4//4 13//13
f 15//15 13//13 9//9
f 16//16 5//5 15//15
f 16//16 15//15 9//9
f 17//17 11//11 3//3
f 17//17 3//3 1//1
f 17//17 1//1 8//8
f 17//17 8//8 11//11
f 18//18 12//12 2//2
f 18//18 2//2 8//8
f 18//18 8//8 12//12
f 19//19 2//2 12//12
f 19//19 16//16 9//9
f 19//19 12//12 16//16
f 20//20 12//12 8//8
f 20//20 8//8 1//1
f 20//20 1//1 7//7
f 21//21 13//13 6//6
f 21//21 6//6 2//2
f 21//21 2//2 9//9
f 21//21 9//9 13//13
f 22//22 10//10 5//5
f 22//22 5//5 16//16
f 23//23 19//19 9//9
f 23//23 9//9 2//2
f 23//23 2//2 19//19
f 24//24 12//12 20//20
f 24//24 20//20 7//7
f 25//25 22//22 16//16
f 25//25 16//16 7//7
f 25//25 7//7 10//10
f 25//25 10//10 22//22
f 26//26 24//24 16//16
f 26//26 16//16 12//12
f 26//26 12//12 24//24
f 27//27 24//24 7//7
f 27//27 7//7 16//16
f 27//27 16//16 24//24

