# https://github.com/mikedh/trimesh
v 0.01373439 -0.03371481 0.02598584
v 0.02844988 -0.04951062 0.01854582
v 0.02893028 -0.03280105 -0.00935570
v 0.00194462 -0.03316042 -0.01875252
v 0.00143321 -0.05004479 0.01413851
v 0.02342836 -0.04725493 -0.01739036
v 0.02209138 -0.03163560 -0.01426663
v 0.02917251 -0.03275502 0.00550053
v 0.01250343 -0.04941676 0.02416666
v 0.00251176 -0.03402362 0.01638991
v 0.02897308 -0.04920571 -0.00980239
v 0.00213648 -0.04909926 -0.01742248
v 0.02532780 -0.04104974 -0.02142684
v 0.02227075 -0.03399615 0.02074850
v 0.01617670 -0.03330461 0.02511847
v 0.01267403 -0.04975707 0.02380180
v 0.01246509 -0.04501133 0.02529372
v 0.00515958 -0.03246868 -0.01894182
vn -0.15433637 0.53171755 0.83274050
vn 0.69158269 -0.56086207 0.45513418
vn 0.75974664 0.62016327 -0.19540357
vn -0.65620653 0.50216278 -0.56322777
vn -0.71923488 -0.63842953 0.27406006
vn 0.26239829 -0.75234951 -0.60424941
vn 0.21320300 0.89649688 -0.38837845
vn 0.72978651 0.67330484 0.11862645
vn -0.18658855 -0.48106708 0.85659744
vn -0.71960646 0.59654640 0.35538563
vn 0.70726084 -0.67773890 -0.20112704
vn -0.58835676 -0.61054372 -0.53016288
vn 0.50690460 0.01085440 -0.86193382
vn 0.59133484 0.60959319 0.52793868
vn 0.27305497 0.66860848 0.69166732
vn -0.03322946 -0.89125027 0.45229278
vn -0.20203261 -0.13464341 0.97007937
vn -0.10802040 0.76034687 -0.64047188
f 8//8 3//3 7//7
f 10//10 4//4 5//5
f 11//11 2//2 5//5
f 11//11 8//8 2//2
f 11//11 3//3 8//8
f 12//12 5//5 4//4
f 12//12 11//11 5//5
f 12//12 6//6 11//11
f 13//13 12//12 4//4
f 13//13 6//6 12//12
f 13//13 7//7 3//3
f 13//13 11//11 6//6
f 13//13 3//3 11//11
f 14//14 2//2 8//8
f 15//15 8//8 7//7
f 15//15 14//14 8//8
f 15//15 2//2 14//14
f 15//15 10//10 1//1
f 16//16 9//9 5//5
f 16//16 5//5 2//2
f 16//16 2//2 9//9
f 17//17 9//9 2//2
f 17//17 1//1 10//10
f 17//17 10//10 5//5
f 17//17 5//5 9//9
f 17//17 15//15 1//1
f 17//17 2//2 15//15
f 18//18 4//4 10//10
f 18//18 13//13 4//4
f 18//18 7//7 13//13
f 18//18 15//15 7//7
f 18//18 10//10 15//15

