# https://github.com/mikedh/trimesh
v 0.00464467 -0.11212091 0.01745735
v 0.01535382 -0.11274352 0.00768927
v 0.01229762 -0.11226748 -0.02660374
v -0.00831883 -0.11442372 -0.02953337
v 0.00211498 -0.14926284 0.00326070
v -0.02236764 -0.11208988 -0.01242570
v 0.01018600 -0.13295101 0.00610800
v -0.00452128 -0.14824460 -0.01522654
v -0.01971107 -0.11200205 0.01525256
v -0.01101736 -0.11369528 -0.02766616
v 0.00049513 -0.14856735 0.00591379
v 0.00957456 -0.13929998 -0.00734226
v 0.00049794 -0.12872181 -0.02719262
v -0.01317608 -0.14257049 0.00513988
v 0.00495477 -0.11351472 -0.02943867
v -0.01053093 -0.14168992 -0.01776389
v 0.00572384 -0.14157613 0.00553344
v -0.00419700 -0.13186400 0.01197400
v -0.00960898 -0.14804265 0.00421144
v 0.00991144 -0.13823833 0.00131948
v 0.01287754 -0.12887925 -0.00551797
v 0.00361266 -0.14758480 -0.00847737
v -0.02133300 -0.12383600 0.00110500
v 0.00108043 -0.12043144 -0.02887928
v 0.00636000 -0.12355935 -0.02614140
v -0.00653186 -0.13014851 -0.02555487
v 0.00008720 -0.13041276 0.01277758
v -0.00733673 -0.14799604 0.00521994
v -0.01007727 -0.14763030 -0.01185909
v 0.01280160 -0.12981612 0.00067882
v 0.01453541 -0.11316393 -0.00711579
v -0.00121135 -0.14323908 -0.01707943
v -0.02285182 -0.11208225 0.01146539
v -0.00730663 -0.11986998 -0.02845558
v -0.00173638 -0.11235648 0.01763527
v -0.01242023 -0.14299768 -0.01239134
v -0.00390006 -0.14799202 -0.01516144
v 0.00100890 -0.14311002 -0.01513961
v -0.02034856 -0.12423438 0.00613888
v -0.02160908 -0.11834867 -0.00759496
v -0.02216394 -0.11643756 0.00887116
v -0.02202000 -0.11556000 -0.00976300
vn 0.31693633 0.53545750 0.78283883
vn 0.78478491 0.51467886 0.34528005
vn 0.66333386 0.50234140 -0.55465422
vn -0.29124116 0.34840890 -0.89094883
vn 0.44101592 -0.87064453 0.21790608
vn -0.77098106 0.56517124 -0.29354673
vn 0.75350111 -0.32053573 0.57401474
vn -0.02132689 -0.84738483 -0.53055077
vn -0.43912483 0.50306952 0.74437252
vn -0.55537354 0.52483752 -0.64506264
vn 0.20564627 -0.71583697 0.66729831
vn 0.86465379 -0.45271375 -0.21777074
vn 0.21696601 -0.42011652 -0.88115144
vn -0.73900159 -0.47402975 0.47871959
vn 0.15654569 0.46606653 -0.87079012
vn -0.59640802 -0.44998261 -0.66469025
vn 0.65877160 -0.41132475 0.62994597
vn -0.14108248 -0.32267321 0.93593682
vn -0.49606905 -0.78009765 0.38126519
vn 0.87669030 -0.43808310 0.19873933
vn 0.97110135 -0.21335621 -0.10696402
vn 0.57911772 -0.77053313 -0.26627309
vn -0.96037959 -0.27868945 0.00179839
vn 0.08710322 -0.17741440 -0.98027402
vn 0.58545633 -0.37424094 -0.71915548
vn -0.36466323 -0.36567457 -0.85633103
vn 0.14701410 -0.31574045 0.93738723
vn -0.18979248 -0.71412830 0.67379492
vn -0.57185832 -0.78743588 -0.23004958
vn 0.96183832 -0.24815287 0.11527012
vn 0.96056015 0.26615519 -0.08053330
vn 0.52439507 -0.54158392 -0.65703628
vn -0.79106448 0.51234630 0.33424280
vn -0.34297851 -0.24965393 -0.90555986
vn -0.05119672 0.44206159 0.89552244
vn -0.88744778 -0.39942956 -0.22998363
vn 0.41524442 -0.68973347 -0.59316087
vn 0.59585962 -0.52968333 -0.60364466
vn -0.90155950 -0.33755578 0.27064102
vn -0.94759161 -0.27499275 -0.16263190
vn -0.94615619 -0.26368949 0.18776665
vn -0.96495033 -0.21727845 -0.14717656
f 1//1 2//2 3//3
f 7//7 2//2 1//1
f 9//9 1//1 3//3
f 9//9 3//3 6//6
f 10//10 6//6 3//3
f 15//15 10//10 3//3
f 15//15 4//4 10//10
f 16//16 6//6 10//10
f 17//17 7//7 1//1
f 17//17 1//1 11//11
f 17//17 11//11 5//5
f 19//19 8//8 5//5
f 19//19 5//5 11//11
f 20//20 5//5 12//12
f 20//20 17//17 5//5
f 20//20 7//7 17//17
f 21//21 12//12 3//3
f 22//22 12//12 5//5
f 22//22 5//5 8//8
f 24//24 15//15 13//13
f 24//24 13//13 4//4
f 24//24 4//4 15//15
f 25//25 15//15 3//3
f 25//25 13//13 15//15
f 25//25 3//3 12//12
f 25//25 12//12 22//22
f 26//26 16//16 10//10
f 26//26 10//10 4//4
f 26//26 13//13 8//8
f 26//26 8//8 16//16
f 27//27 18//18 11//11
f 27//27 11//11 1//1
f 28//28 19//19 11//11
f 28//28 11//11 18//18
f 28//28 18//18 9//9
f 28//28 9//9 14//14
f 28//28 14//14 19//19
f 29//29 16//16 8//8
f 29//29 8//8 19//19
f 29//29 19//19 14//14
f 30//30 2//2 7//7
f 30//30 7//7 20//20
f 30//30 21//21 2//2
f 30//30 20//20 12//12
f 30//30 12//12 21//21
f 31//31 21//21 3//3
f 31//31 3//3 2//2
f 31//31 2//2 21//21
f 32//32 13//13 25//25
f 33//33 14//14 9//9
f 33//33 9//9 6//6
f 33//33 6//6 23//23
f 34//34 26//26 4//4
f 34//34 4//4 13//13
f 34//34 13//13 26//26
f 35//35 27//27 1//1
f 35//35 1//1 9//9
f 35//35 9//9 18//18
f 35//35 18//18 27//27
f 36//36 29//29 14//14
f 36//36 14//14 23//23
f 36//36 6//6 16//16
f 36//36 16//16 29//29
f 37//37 22//22 8//8
f 37//37 8//8 13//13
f 37//37 13//13 32//32
f 38//38 32//32 25//25
f 38//38 25//25 22//22
f 38//38 37//37 32//32
f 38//38 22//22 37//37
f 39//39 23//23 14//14
f 39//39 14//14 33//33
f 40//40 36//36 23//23
f 41//41 39//39 33//33
f 41//41 33//33 23//23
f 41//41 23//23 39//39
f 42//42 40//40 23//23
f 42//42 23//23 6//6
f 42//42 6//6 36//36
f 42//42 36//36 40//40

