# https://github.com/mikedh/trimesh
v 0.02506318 -0.04917965 0.01903749
v 0.04143346 -0.05100363 0.00795262
v 0.04525448 -0.03185442 -0.00223501
v 0.02608293 -0.05407892 -0.01856729
v 0.01219392 -0.11208017 0.01083133
v 0.02127556 -0.11195578 -0.00094824
v 0.02893028 -0.03280105 -0.00935570
v 0.04433334 -0.03307500 0.00716614
v 0.01244673 -0.09486352 0.02294190
v 0.03300121 -0.07787379 -0.00793768
v 0.01274367 -0.11436121 -0.00818563
v 0.04284601 -0.03419416 -0.00885079
v 0.03226187 -0.06394292 0.01743926
v 0.02931851 -0.03227661 0.01296613
v 0.02119988 -0.10879506 0.00648922
v 0.04089647 -0.05044712 -0.00731074
v 0.03247002 -0.08231342 -0.00053225
v 0.01453400 -0.11230000 0.00901400
v 0.02187451 -0.10400739 -0.00632775
v 0.01301138 -0.10240177 -0.00922365
v 0.03312727 -0.04806380 0.01636284
v 0.01280514 -0.08401370 0.02399396
v 0.03409262 -0.03185664 0.01072725
v 0.03249720 -0.06971275 0.01531116
v 0.02542867 -0.05935866 -0.01908476
v 0.03231288 -0.08184328 -0.00501032
v 0.02104649 -0.11056993 0.00367727
v 0.01344700 -0.10379800 0.01740900
v 0.02193544 -0.04817659 -0.01514421
v 0.02700578 -0.04397505 0.01753993
v 0.01416717 -0.08330505 -0.00189483
vn -0.34660412 0.28675559 0.89310515
vn 0.93313076 -0.19517423 0.30195034
vn 0.76251948 0.63134186 -0.14132052
vn -0.00729317 0.16550839 -0.98618142
vn -0.51755778 -0.70170413 0.48963789
vn 0.67861047 -0.72458629 -0.12026029
vn -0.42771243 0.76585202 -0.48013827
vn 0.74230680 0.49980608 0.44628970
vn -0.41515200 -0.31781976 0.85243148
vn 0.80381054 -0.28788705 -0.52058588
vn -0.38180661 -0.71752157 -0.58256889
vn 0.60559127 0.43908799 -0.66367233
vn 0.58408880 -0.08566952 0.80715612
vn -0.36240798 0.72948146 0.58010107
vn 0.75012143 -0.49982843 0.43300044
vn 0.88235458 -0.21106944 -0.42059493
vn 0.94421608 -0.32110183 0.07314101
vn 0.31783888 -0.86143573 0.39611480
vn 0.65918645 -0.35241357 -0.66428751
vn -0.85322998 -0.00148441 -0.52153273
vn 0.45060759 0.11449341 0.88534968
vn -0.57151218 0.07092056 0.81752315
vn 0.16475213 0.87700600 0.45135042
vn 0.79116766 -0.28946735 0.53876004
vn -0.01861943 -0.07228641 -0.99721010
vn 0.93009271 -0.32830642 -0.16474964
vn 0.72774188 -0.63207844 0.26621155
vn 0.13373638 -0.54252580 0.82932523
vn -0.73752858 0.37673180 -0.56046832
vn -0.05301655 0.34099956 0.93856728
vn -0.98424051 0.13958707 -0.10856367
f 8//8 2//2 3//3
f 12//12 7//7 3//3
f 12//12 4//4 7//7
f 13//13 2//2 8//8
f 16//16 3//3 2//2
f 16//16 12//12 3//3
f 17//17 2//2 15//15
f 17//17 16//16 2//2
f 18//18 11//11 6//6
f 18//18 5//5 11//11
f 19//19 10//10 6//6
f 19//19 6//6 11//11
f 20//20 11//11 5//5
f 20//20 5//5 9//9
f 21//21 13//13 8//8
f 21//21 1//1 13//13
f 21//21 8//8 14//14
f 22//22 13//13 1//1
f 22//22 9//9 13//13
f 22//22 1//1 14//14
f 22//22 20//20 9//9
f 23//23 14//14 8//8
f 23//23 8//8 3//3
f 23//23 3//3 7//7
f 23//23 7//7 14//14
f 24//24 13//13 9//9
f 24//24 15//15 2//2
f 24//24 2//2 13//13
f 25//25 16//16 10//10
f 25//25 4//4 12//12
f 25//25 12//12 16//16
f 25//25 10//10 19//19
f 25//25 19//19 11//11
f 25//25 11//11 20//20
f 26//26 17//17 6//6
f 26//26 6//6 10//10
f 26//26 10//10 16//16
f 26//26 16//16 17//17
f 27//27 17//17 15//15
f 27//27 6//6 17//17
f 27//27 18//18 6//6
f 27//27 15//15 18//18
f 28//28 18//18 15//15
f 28//28 9//9 5//5
f 28//28 5//5 18//18
f 28//28 24//24 9//9
f 28//28 15//15 24//24
f 29//29 7//7 4//4
f 29//29 25//25 20//20
f 29//29 4//4 25//25
f 29//29 22//22 14//14
f 29//29 14//14 7//7
f 30//30 21//21 14//14
f 30//30 14//14 1//1
f 30//30 1//1 21//21
f 31//31 29//29 20//20
f 31//31 20//20 22//22
f 31//31 22//22 29//29

