# https://github.com/mikedh/trimesh
v 0.02388844 0.07733667 0.02399774
v 0.04823223 -0.02753046 0.00654051
v 0.04425285 0.08450839 0.00763072
v 0.02446292 0.09490847 -0.02986332
v 0.02783575 -0.03375368 -0.03521602
v 0.03532231 0.10187988 0.00816462
v 0.04234972 0.00564399 0.01669627
v 0.02283497 0.05131493 0.02586186
v 0.04027268 0.02437133 -0.02718365
v 0.04107380 0.09350632 0.01299097
v 0.03313067 0.09538556 -0.02755591
v 0.02768478 0.10163719 0.00339039
v 0.04768414 0.01096192 0.00739520
v 0.02449119 0.09687428 -0.02769577
v 0.02778660 -0.02934283 -0.03692763
v 0.03036381 0.04218994 0.02505453
v 0.02549046 -0.03203682 0.01851616
v 0.02493690 0.09205068 0.01747130
v 0.04061900 0.09420800 -0.00731800
v 0.04086323 0.06010870 0.01618445
v 0.04327380 0.05699210 0.01217236
v 0.04942842 -0.01978819 -0.00760928
v 0.03152966 0.09602296 -0.02721111
v 0.03710751 0.10038975 -0.00443882
v 0.02646241 0.04195865 -0.03824668
v 0.02412047 0.04256444 0.02687045
v 0.03877552 0.08497624 0.01560122
v 0.04433334 -0.03307500 0.00716614
v 0.04081600 -0.02100200 0.01306100
v 0.03482005 0.09049481 0.01608851
v 0.03410718 0.08632028 -0.02898355
v 0.04018562 0.09837663 -0.00081182
v 0.04809881 0.01085472 0.00113655
v 0.04376849 0.08370764 0.00027343
v 0.04029851 -0.02044840 -0.02702883
v 0.03000477 -0.03399165 -0.03373379
v 0.04388724 -0.03191198 -0.00807344
v 0.03021484 -0.03018677 0.01682776
v 0.04020376 0.06180724 -0.01784362
v 0.03109916 0.04351781 -0.03689019
v 0.02866197 0.09485416 -0.02902999
v 0.04105766 0.09615139 0.01066540
v 0.03350688 -0.02772614 -0.03353563
v 0.04773377 -0.02875910 -0.00107837
v 0.03381846 -0.03367025 -0.03080989
v 0.04350791 0.05789322 -0.00861157
v 0.03301116 0.04415295 -0.03473058
v 0.03742441 0.10039219 0.00762876
v 0.02967350 -0.02815401 -0.03616801
v 0.04822700 -0.02317600 -0.00784600
vn -0.51518879 0.20054098 0.83328496
vn 0.86186226 -0.28834637 0.41719277
vn 0.97799064 0.12065593 0.17022470
vn -0.56944969 0.37576305 -0.73111503
vn -0.42917688 -0.65492471 -0.62199746
vn 0.18128093 0.91110559 0.37016731
vn 0.64239369 -0.05118742 0.76466345
vn -0.79950903 0.04064411 0.59927737
vn 0.86318743 0.03570561 -0.50361947
vn 0.65343749 0.35892770 0.66647607
vn 0.58032565 0.53693683 -0.61230791
vn -0.53638600 0.83894909 0.09194826
vn 0.95541488 0.02716509 0.29401440
vn -0.59331302 0.72313861 -0.35362438
vn -0.45337104 -0.22075986 -0.86355068
vn 0.43415943 0.00431622 0.90082571
vn -0.47390808 -0.59357181 0.65044879
vn -0.59035022 0.48749186 0.64330265
vn 0.92292023 0.29716109 -0.24477241
vn 0.74041695 0.04969314 0.67030839
vn 0.88272797 0.03748006 0.46838720
vn 0.97464569 -0.10501111 -0.19758147
vn 0.18815175 0.87509002 -0.44588830
vn 0.40968279 0.89315859 -0.18554716
vn -0.54186187 0.02908363 -0.83996420
vn -0.34983455 -0.04427570 0.93576463
vn 0.52363300 0.10985823 0.84483114
vn 0.48752822 -0.78350185 0.38528053
vn 0.51073462 -0.17508418 0.84172185
vn 0.24598836 0.38083894 0.89132005
vn 0.68223553 0.15068085 -0.71543690
vn 0.81879906 0.56850896 -0.07978511
vn 0.99891597 0.04446610 0.01377108
vn 0.97960280 0.12597229 -0.15655457
vn 0.83022199 -0.12114884 -0.54410882
vn 0.30125764 -0.82857471 -0.47191925
vn 0.66023619 -0.72267008 -0.20453884
vn 0.43608380 -0.27302880 0.85748831
vn 0.94505220 0.08413429 -0.31590784
vn 0.50312065 0.06805535 -0.86153240
vn 0.20486612 0.43900259 -0.87481804
vn 0.74945838 0.54173851 0.38056737
vn 0.66831375 -0.16095240 -0.72625825
vn 0.87851245 -0.46818446 -0.09496939
vn 0.54840264 -0.73679659 -0.39545585
vn 0.95950218 0.07612719 -0.27121989
vn 0.76352757 0.05269755 -0.64362149
vn 0.63571121 0.75923561 0.13940066
vn 0.50069527 -0.13915267 -0.85436572
vn 0.89047485 -0.33901508 -0.30351823
f 13//13 7//7 2//2
f 14//14 8//8 1//1
f 14//14 4//4 8//8
f 15//15 8//8 4//4
f 15//15 5//5 8//8
f 17//17 8//8 5//5
f 17//17 7//7 16//16
f 18//18 10//10 6//6
f 18//18 6//6 12//12
f 18//18 14//14 1//1
f 18//18 12//12 14//14
f 20//20 7//7 13//13
f 20//20 16//16 7//7
f 21//21 13//13 3//3
f 21//21 3//3 10//10
f 21//21 20//20 13//13
f 21//21 10//10 20//20
f 22//22 13//13 2//2
f 23//23 11//11 4//4
f 23//23 4//4 14//14
f 24//24 14//14 12//12
f 24//24 12//12 6//6
f 24//24 23//23 14//14
f 24//24 11//11 23//23
f 25//25 15//15 4//4
f 26//26 16//16 1//1
f 26//26 1//1 8//8
f 26//26 17//17 16//16
f 26//26 8//8 17//17
f 27//27 10//10 1//1
f 27//27 1//1 16//16
f 27//27 20//20 10//10
f 27//27 16//16 20//20
f 29//29 2//2 7//7
f 30//30 18//18 1//1
f 30//30 1//1 10//10
f 30//30 10//10 18//18
f 31//31 11//11 19//19
f 32//32 3//3 19//19
f 32//32 19//19 11//11
f 32//32 11//11 24//24
f 32//32 24//24 6//6
f 33//33 22//22 3//3
f 33//33 3//3 13//13
f 33//33 13//13 22//22
f 34//34 19//19 3//3
f 34//34 3//3 22//22
f 35//35 9//9 22//22
f 36//36 28//28 17//17
f 36//36 17//17 5//5
f 36//36 5//5 15//15
f 38//38 29//29 7//7
f 38//38 7//7 17//17
f 38//38 17//17 28//28
f 38//38 28//28 2//2
f 38//38 2//2 29//29
f 39//39 31//31 19//19
f 39//39 9//9 31//31
f 40//40 9//9 35//35
f 40//40 15//15 25//25
f 41//41 4//4 11//11
f 41//41 11//11 31//31
f 41//41 31//31 40//40
f 41//41 40//40 25//25
f 41//41 25//25 4//4
f 42//42 10//10 3//3
f 42//42 3//3 32//32
f 42//42 6//6 10//10
f 43//43 40//40 35//35
f 44//44 22//22 2//2
f 44//44 2//2 28//28
f 44//44 28//28 37//37
f 45//45 37//37 28//28
f 45//45 28//28 36//36
f 45//45 36//36 43//43
f 45//45 43//43 35//35
f 46//46 39//39 19//19
f 46//46 19//19 34//34
f 46//46 34//34 22//22
f 46//46 22//22 9//9
f 46//46 9//9 39//39
f 47//47 40//40 31//31
f 47//47 31//31 9//9
f 47//47 9//9 40//40
f 48//48 42//42 32//32
f 48//48 32//32 6//6
f 48//48 6//6 42//42
f 49//49 43//43 36//36
f 49//49 36//36 15//15
f 49//49 15//15 40//40
f 49//49 40//40 43//43
f 50//50 44//44 37//37
f 50//50 22//22 44//44
f 50//50 37//37 45//45
f 50//50 45//45 35//35
f 50//50 35//35 22//22

