# https://github.com/mikedh/trimesh
v -0.00156346 -0.04470414 0.02570882
v -0.00026469 -0.05238057 0.02518633
v 0.00161568 0.01016405 -0.05504289
v -0.02294096 0.01007598 -0.05901524
v -0.04507778 -0.01595123 -0.00218371
v 0.00110428 -0.04859910 -0.05212846
v 0.00163837 0.01015592 -0.02116724
v -0.01318890 -0.03854485 0.02561811
v -0.02680803 -0.01011813 -0.06187583
v -0.02399547 -0.04445949 -0.00424136
v -0.01926074 0.01030937 -0.05847349
v -0.04399252 0.00980791 -0.00225727
v 0.00189338 -0.05269874 -0.04106776
v -0.01166860 -0.03965896 0.02653824
v 0.00131428 -0.03920531 -0.05563562
v -0.03042062 -0.03400456 -0.04677448
v -0.02187023 -0.04391245 0.01235144
v -0.04509159 0.00585828 -0.00228550
v -0.04091078 0.00980479 -0.03691754
v -0.03310194 0.01014777 -0.00241306
v 0.00176508 -0.05854002 -0.00209938
v 0.00156914 -0.03414771 -0.05569254
v -0.00853775 -0.04435097 -0.05598685
v 0.00166355 -0.05119308 -0.04820931
v -0.00500662 -0.05903218 0.00512641
v -0.03684286 -0.03152342 -0.01264450
v -0.01042724 -0.04668976 0.02566674
v -0.03679647 0.00969177 -0.05105148
v -0.04215611 0.00834893 -0.03030034
v -0.04218862 -0.01104601 -0.04073551
v 0.00178830 -0.05803170 -0.00304142
v 0.00139535 -0.04512599 -0.05460146
v 0.00017296 -0.04176823 -0.05569732
v -0.03029512 -0.02262104 -0.05595928
v -0.00426533 -0.04841720 -0.05232273
v -0.02921670 -0.03652800 -0.04366689
v -0.00294381 -0.05295700 -0.03661338
v -0.01866961 -0.04843206 0.00121467
v -0.00051860 -0.05506388 0.02285619
v -0.03836325 -0.02912689 -0.00251090
v -0.03451815 0.00974980 -0.05292186
v -0.04238323 0.00911098 -0.02484616
v -0.04219249 0.00309440 -0.03953452
v -0.04373376 -0.00460883 -0.03162949
v -0.04102303 -0.02384410 -0.02464849
v -0.00624264 -0.04525109 -0.05575044
v 0.00121828 -0.04757106 -0.05297137
v -0.01341377 -0.04193861 -0.05524689
v -0.03410078 -0.02516122 -0.05078626
v -0.01868233 -0.04844660 -0.00360351
v -0.03424513 -0.03400206 -0.01509958
v -0.00178316 -0.05119620 -0.04762722
v -0.02661307 -0.03766583 -0.04591785
v -0.02540876 -0.04330314 -0.00247743
v -0.00468601 -0.05897769 0.00608710
v -0.03695324 0.00717580 -0.05203986
v -0.04211255 0.00702041 -0.03432143
v -0.04083504 0.00566372 -0.04311536
v -0.04492739 -0.00059208 -0.01277475
v -0.04215529 -0.00198344 -0.04188809
v -0.04217964 -0.01486320 -0.03568688
v -0.03982243 -0.02728843 -0.00689489
v -0.03289082 -0.03276582 -0.04102317
v -0.00116831 -0.04309691 -0.05563976
vn 0.59559038 0.20509119 0.77666576
vn 0.55349003 -0.35433979 0.75371885
vn 0.62532738 0.59423761 -0.50581354
vn -0.12465118 0.68181390 -0.72082722
vn -0.91990614 -0.17306645 0.35188165
vn 0.43613702 -0.67591273 -0.59407616
vn 0.68212464 0.69510375 0.22701709
vn -0.55492742 0.03446139 0.83118468
vn -0.31735922 -0.03896550 -0.94750452
vn -0.62887128 -0.77652901 -0.03903354
vn 0.08991965 0.74592651 -0.65993038
vn -0.56276597 0.70237937 0.43584135
vn 0.67253844 -0.72823363 -0.13178705
vn -0.13431629 0.19668823 0.97122236
vn 0.62798537 -0.06203546 -0.77574866
vn -0.69699340 -0.58183931 -0.41912196
vn -0.71559360 -0.58889164 0.37567597
vn -0.89676911 0.14873394 0.41675339
vn -0.61571175 0.77949550 -0.11526406
vn 0.09662273 0.85267560 0.51342806
vn 0.68277929 -0.73012184 -0.02710251
vn 0.76515808 -0.01017016 -0.64376213
vn -0.24835813 -0.55477671 -0.79406614
vn 0.64408762 -0.69887103 -0.31101514
vn -0.31386164 -0.94851827 0.04247316
vn -0.77793809 -0.62777556 -0.02664888
vn -0.44094948 -0.45847754 0.77159698
vn -0.57375355 0.73289628 -0.36560897
vn -0.95050866 0.29773499 -0.08880967
vn -0.93797673 -0.14701702 -0.31398353
vn 0.99975549 -0.01992967 0.00957933
vn 0.70274317 -0.29677970 -0.64658631
vn 0.23570379 -0.14419681 -0.96106764
vn -0.59076383 -0.29295750 -0.75178055
vn -0.24361566 -0.84040474 -0.48411909
vn -0.64535552 -0.74049228 -0.18758318
vn -0.29815804 -0.94063801 -0.16217864
vn -0.62929895 -0.77220327 0.08766381
vn 0.34812227 -0.80742888 0.47630819
vn -0.81196922 -0.53525299 0.23283090
vn -0.36375203 0.75031028 -0.55201354
vn -0.92001718 0.38402514 -0.07805815
vn -0.97306732 0.14742534 -0.17721668
vn -0.99513502 -0.00111886 -0.09851418
vn -0.90381826 -0.41433280 -0.10696211
vn -0.05000270 -0.51747772 -0.85423448
vn 0.58845879 -0.50960086 -0.62771269
vn -0.44184320 -0.60785088 -0.65976654
vn -0.78523360 -0.35957350 -0.50409830
vn -0.58679489 -0.80704223 -0.06598932
vn -0.70395131 -0.70831813 -0.05232572
vn -0.24105933 -0.92488847 -0.29406072
vn -0.53925003 -0.78224855 -0.31192403
vn -0.68577272 -0.72584631 0.05350619
vn -0.18444257 -0.95968093 0.21211658
vn -0.76028266 0.13884883 -0.63457960
vn -0.96839739 0.22134843 -0.11494072
vn -0.92875049 0.22790282 -0.29237446
vn -0.99736396 0.04118826 -0.05973823
vn -0.94637432 0.00936861 -0.32293633
vn -0.95314912 -0.25557597 -0.16182606
vn -0.86603432 -0.49949309 0.02216330
vn -0.81753186 -0.55253764 -0.16230775
vn 0.12876084 -0.20930360 -0.96933619
f 7//7 1//1 2//2
f 11//11 7//7 3//3
f 11//11 9//9 4//4
f 11//11 3//3 9//9
f 13//13 3//3 7//7
f 14//14 2//2 1//1
f 14//14 12//12 8//8
f 18//18 5//5 8//8
f 18//18 8//8 12//12
f 20//20 7//7 11//11
f 20//20 19//19 12//12
f 20//20 11//11 19//19
f 20//20 12//12 14//14
f 20//20 14//14 1//1
f 20//20 1//1 7//7
f 21//21 7//7 2//2
f 22//22 15//15 9//9
f 22//22 9//9 3//3
f 22//22 3//3 13//13
f 24//24 22//22 13//13
f 27//27 8//8 5//5
f 27//27 5//5 17//17
f 27//27 14//14 8//8
f 27//27 2//2 14//14
f 28//28 19//19 11//11
f 31//31 21//21 13//13
f 31//31 13//13 7//7
f 31//31 7//7 21//21
f 32//32 15//15 22//22
f 32//32 22//22 24//24
f 33//33 9//9 15//15
f 33//33 15//15 32//32
f 35//35 6//6 24//24
f 37//37 13//13 21//21
f 37//37 21//21 25//25
f 38//38 25//25 17//17
f 39//39 21//21 2//2
f 39//39 2//2 27//27
f 39//39 27//27 17//17
f 40//40 17//17 5//5
f 41//41 28//28 11//11
f 41//41 11//11 4//4
f 41//41 4//4 9//9
f 42//42 12//12 19//19
f 42//42 19//19 29//29
f 42//42 29//29 18//18
f 42//42 18//18 12//12
f 44//44 30//30 5//5
f 46//46 23//23 9//9
f 46//46 35//35 23//23
f 46//46 6//6 35//35
f 47//47 32//32 24//24
f 47//47 24//24 6//6
f 47//47 46//46 32//32
f 47//47 6//6 46//46
f 48//48 23//23 35//35
f 48//48 34//34 9//9
f 48//48 9//9 23//23
f 49//49 48//48 16//16
f 49//49 34//34 48//48
f 50//50 36//36 25//25
f 50//50 25//25 10//10
f 50//50 10//10 36//36
f 51//51 26//26 36//36
f 52//52 35//35 24//24
f 52//52 24//24 13//13
f 52//52 13//13 37//37
f 53//53 37//37 25//25
f 53//53 25//25 36//36
f 53//53 52//52 37//37
f 53//53 35//35 52//52
f 53//53 48//48 35//35
f 53//53 36//36 16//16
f 53//53 16//16 48//48
f 54//54 38//38 17//17
f 54//54 10//10 25//25
f 54//54 25//25 38//38
f 54//54 17//17 40//40
f 54//54 40//40 26//26
f 54//54 26//26 51//51
f 54//54 51//51 36//36
f 54//54 36//36 10//10
f 55//55 25//25 21//21
f 55//55 21//21 39//39
f 55//55 39//39 17//17
f 55//55 17//17 25//25
f 56//56 41//41 9//9
f 56//56 28//28 41//41
f 56//56 9//9 34//34
f 56//56 34//34 49//49
f 56//56 49//49 30//30
f 57//57 29//29 19//19
f 57//57 19//19 43//43
f 57//57 43//43 18//18
f 57//57 18//18 29//29
f 58//58 43//43 19//19
f 58//58 19//19 28//28
f 58//58 28//28 56//56
f 59//59 44//44 5//5
f 59//59 5//5 18//18
f 59//59 18//18 43//43
f 59//59 43//43 44//44
f 60//60 44//44 43//43
f 60//60 30//30 44//44
f 60//60 43//43 58//58
f 60//60 58//58 56//56
f 60//60 56//56 30//30
f 61//61 45//45 5//5
f 61//61 5//5 30//30
f 61//61 49//49 45//45
f 61//61 30//30 49//49
f 62//62 40//40 5//5
f 62//62 5//5 45//45
f 62//62 45//45 26//26
f 62//62 26//26 40//40
f 63//63 36//36 26//26
f 63//63 26//26 45//45
f 63//63 16//16 36//36
f 63//63 49//49 16//16
f 63//63 45//45 49//49
f 64//64 33//33 32//32
f 64//64 32//32 46//46
f 64//64 46//46 9//9
f 64//64 9//9 33//33

