# https://github.com/mikedh/trimesh
v 0.03120088 -0.02409222 0.05151940
v 0.04070886 -0.02394259 0.04147257
v 0.04214024 -0.02264763 -0.02519150
v 0.02285664 -0.02319026 -0.05347380
v 0.02285187 -0.04310161 -0.00238975
v 0.03371016 -0.02325828 -0.00241306
v 0.04111438 -0.02294847 -0.00242950
v 0.03157183 -0.03596352 0.04405343
v 0.01926471 -0.03045148 -0.00388323
v 0.02254447 -0.04094326 -0.04826469
v 0.03912768 -0.02403406 0.04806404
v 0.03756532 -0.03011865 -0.04098576
v 0.02337659 -0.02437255 -0.01811274
v 0.03170973 -0.03321983 0.04955512
v 0.02233195 -0.03853615 -0.05063524
v 0.02241524 -0.04236788 -0.04373124
v 0.03751373 -0.02748017 0.04680509
v 0.02996690 -0.03774948 -0.03834863
v 0.03881022 -0.02764094 0.03361813
v 0.03944993 -0.02273052 -0.04924527
v 0.03232901 -0.02990239 0.05232064
v 0.03473194 -0.03273646 0.04238501
v 0.03865474 -0.02516054 0.04795173
v 0.03483106 -0.03022628 0.04988013
v 0.03618216 -0.03153945 0.03355179
v 0.02715325 -0.03919548 -0.04336008
v 0.03745803 -0.03028256 -0.03474878
v 0.04017293 -0.02509748 -0.04466379
v 0.03454594 -0.02419692 -0.05144600
v 0.03502850 -0.02998334 -0.04934996
v 0.03202770 -0.03070294 0.05199269
v 0.03738244 -0.02895656 0.04257055
v 0.03369850 -0.03128966 0.05014024
v 0.03217107 -0.03535966 0.04377595
v 0.03412099 -0.02917484 0.05129667
v 0.02452298 -0.04057077 -0.04577325
v 0.03240874 -0.03515400 -0.04212744
v 0.04183893 -0.02270215 -0.03579276
v 0.02267596 -0.03485502 -0.05189402
v 0.03458499 -0.02301135 -0.05164507
v 0.02868220 -0.03504397 -0.04942567
v 0.03667049 -0.02520197 -0.05025978
v 0.03782368 -0.02657667 -0.04885326
v 0.04012000 -0.02490201 0.04135099
v 0.03003948 -0.03507651 -0.04811197
v 0.03116408 -0.03652796 -0.04103431
v 0.03621995 -0.03120995 -0.04345183
v 0.04056460 -0.02283967 -0.04619288
v 0.04135435 -0.02389914 -0.03564137
v 0.02283163 -0.02572000 -0.05321949
v 0.03428519 -0.02910791 -0.05007877
v 0.02693015 -0.02313679 -0.05315460
v 0.02320569 -0.04037678 -0.04845668
v 0.04013254 -0.02413085 -0.04616832
v 0.03116382 -0.03510543 -0.04607724
v 0.03476527 -0.03269465 -0.04325935
v 0.03761575 -0.02859791 -0.04595896
v 0.03881733 -0.02766935 -0.04364660
v 0.02393234 -0.03475541 -0.05159334
v 0.02691782 -0.02444796 -0.05303513
v 0.03910021 -0.02389016 -0.04902305
v 0.03862540 -0.02625906 -0.04723861
v 0.03749243 -0.02736572 -0.04847956
v 0.02557925 -0.02578113 -0.05300385
vn -0.43981794 0.58242823 0.68362090
vn 0.88358113 0.45315759 0.11803634
vn 0.86257203 0.50581804 0.01084491
vn -0.52971225 0.54942905 -0.64616766
vn -0.33788295 -0.93528130 0.10528058
vn -0.04776898 0.99877959 0.01254822
vn 0.10713259 0.99406920 0.01868249
vn -0.09829994 -0.94823578 0.30197023
vn -0.97344384 0.20916764 0.09303754
vn -0.36739402 -0.81307723 -0.45158283
vn 0.73150824 0.50214258 0.46124670
vn 0.79119415 -0.60854523 -0.06070027
vn -0.59720695 0.80110279 0.03972632
vn -0.33659331 -0.75251113 0.56606708
vn -0.49394224 -0.47632194 -0.72741905
vn -0.40453622 -0.90227876 -0.14914249
vn 0.82168130 -0.53522451 0.19589424
vn 0.62234981 -0.78213117 -0.03084693
vn 0.85246708 -0.52232320 0.02187133
vn 0.64999768 0.52687196 -0.54763943
vn 0.00135594 -0.18435347 0.98285907
vn 0.76963314 -0.62996030 0.10399448
vn 0.83101690 -0.43303151 0.34913412
vn 0.73260690 -0.51896198 0.44041525
vn 0.77023967 -0.63750176 0.01795418
vn 0.58960814 -0.79260666 -0.15536061
vn 0.78408409 -0.62065444 -0.00045309
vn 0.90027791 -0.40109843 -0.16917369
vn 0.31574401 -0.20134004 -0.92723671
vn 0.58551820 -0.53887922 -0.60562168
vn -0.34472618 -0.49951932 0.79476054
vn 0.82320176 -0.55602745 0.11477081
vn 0.60444995 -0.62371218 0.49560404
vn 0.73433734 -0.66878497 0.11608326
vn 0.58871736 -0.19349037 0.78483969
vn 0.55478975 -0.79382576 -0.24909636
vn 0.66762048 -0.72626649 -0.16376775
vn 0.83878176 0.54203745 -0.05138643
vn -0.44286977 -0.20838598 -0.87203305
vn 0.24666734 0.56376435 -0.78824170
vn 0.47062256 -0.58219636 -0.66299458
vn 0.47194935 -0.25161955 -0.84495646
vn 0.71544957 -0.41873311 -0.55928033
vn 0.84203578 -0.53351983 0.07957596
vn 0.57463520 -0.69296985 -0.43541610
vn 0.65653340 -0.74696197 -0.10493673
vn 0.72495156 -0.66439044 -0.18174317
vn 0.84969366 0.48210175 -0.21353827
vn 0.89440754 -0.44619978 -0.03067425
vn -0.56515412 -0.09122771 -0.81992581
vn 0.36154654 -0.32106800 -0.87532819
vn 0.09486532 0.62976449 -0.77097163
vn 0.48804503 -0.69536166 -0.52752651
vn 0.88408516 -0.36337494 -0.29385725
vn 0.63053422 -0.72297870 -0.28236218
vn 0.68779332 -0.70581003 -0.16962470
vn 0.77496422 -0.57798648 -0.25566010
vn 0.83893403 -0.52794512 -0.13215008
vn 0.27698093 -0.30208915 -0.91215334
vn 0.15136204 -0.13023317 -0.97986165
vn 0.74662585 -0.35940588 -0.55980109
vn 0.82940612 -0.46918388 -0.30323583
vn 0.76247316 -0.53112766 -0.36951061
vn 0.10325078 -0.13658683 -0.98523262
f 6//6 3//3 4//4
f 6//6 4//4 1//1
f 7//7 2//2 3//3
f 7//7 6//6 1//1
f 7//7 3//3 6//6
f 11//11 7//7 1//1
f 11//11 2//2 7//7
f 13//13 9//9 1//1
f 13//13 1//1 4//4
f 13//13 4//4 9//9
f 14//14 1//1 9//9
f 14//14 9//9 5//5
f 14//14 5//5 8//8
f 15//15 9//9 4//4
f 16//16 5//5 9//9
f 16//16 15//15 10//10
f 16//16 9//9 15//15
f 18//18 8//8 5//5
f 18//18 5//5 16//16
f 19//19 3//3 2//2
f 20//20 4//4 3//3
f 21//21 11//11 1//1
f 23//23 17//17 2//2
f 23//23 2//2 11//11
f 24//24 22//22 17//17
f 24//24 17//17 23//23
f 24//24 23//23 11//11
f 25//25 8//8 18//18
f 26//26 18//18 16//16
f 27//27 12//12 3//3
f 27//27 3//3 19//19
f 27//27 19//19 25//25
f 27//27 25//25 18//18
f 31//31 21//21 1//1
f 31//31 1//1 14//14
f 32//32 2//2 17//17
f 32//32 17//17 22//22
f 32//32 25//25 19//19
f 32//32 22//22 25//25
f 33//33 14//14 8//8
f 33//33 8//8 24//24
f 33//33 31//31 14//14
f 33//33 21//21 31//31
f 34//34 24//24 8//8
f 34//34 22//22 24//24
f 34//34 25//25 22//22
f 34//34 8//8 25//25
f 35//35 24//24 11//11
f 35//35 11//11 21//21
f 35//35 33//33 24//24
f 35//35 21//21 33//33
f 36//36 26//26 16//16
f 36//36 16//16 10//10
f 38//38 20//20 3//3
f 41//41 15//15 30//30
f 42//42 40//40 20//20
f 42//42 29//29 40//40
f 43//43 42//42 20//20
f 43//43 30//30 42//42
f 44//44 32//32 19//19
f 44//44 19//19 2//2
f 44//44 2//2 32//32
f 46//46 18//18 26//26
f 46//46 27//27 18//18
f 46//46 12//12 27//27
f 48//48 38//38 28//28
f 48//48 20//20 38//38
f 49//49 38//38 3//3
f 49//49 3//3 12//12
f 49//49 28//28 38//38
f 50//50 39//39 15//15
f 50//50 15//15 4//4
f 51//51 30//30 15//15
f 51//51 42//42 30//30
f 51//51 29//29 42//42
f 52//52 4//4 20//20
f 52//52 20//20 40//40
f 53//53 10//10 15//15
f 53//53 15//15 41//41
f 53//53 41//41 30//30
f 53//53 30//30 45//45
f 53//53 45//45 36//36
f 53//53 36//36 10//10
f 54//54 48//48 28//28
f 54//54 20//20 48//48
f 55//55 26//26 36//36
f 55//55 36//36 45//45
f 55//55 46//46 26//26
f 55//55 37//37 46//46
f 55//55 45//45 30//30
f 55//55 30//30 47//47
f 56//56 46//46 37//37
f 56//56 55//55 47//47
f 56//56 37//37 55//55
f 56//56 47//47 12//12
f 56//56 12//12 46//46
f 57//57 47//47 30//30
f 58//58 49//49 12//12
f 58//58 28//28 49//49
f 58//58 57//57 28//28
f 58//58 12//12 47//47
f 58//58 47//47 57//57
f 59//59 51//51 15//15
f 59//59 15//15 39//39
f 59//59 39//39 29//29
f 59//59 29//29 51//51
f 60//60 4//4 52//52
f 60//60 29//29 39//39
f 60//60 52//52 40//40
f 60//60 40//40 29//29
f 61//61 54//54 43//43
f 61//61 43//43 20//20
f 61//61 20//20 54//54
f 62//62 54//54 28//28
f 62//62 43//43 54//54
f 62//62 28//28 57//57
f 63//63 57//57 30//30
f 63//63 30//30 43//43
f 63//63 62//62 57//57
f 63//63 43//43 62//62
f 64//64 60//60 39//39
f 64//64 39//39 50//50
f 64//64 50//50 4//4
f 64//64 4//4 60//60

