# https://github.com/mikedh/trimesh
v 0.02773439 0.01732630 0.05504042
v 0.04061346 0.00962635 0.04539262
v 0.02746995 0.02757632 0.05142035
v 0.02293994 0.03409813 -0.02781342
v 0.02302022 0.01014777 -0.02780166
v 0.03879827 0.02124309 -0.01167463
v 0.03632681 0.01067872 0.05260904
v 0.01098634 0.02694512 0.05362074
v 0.03883856 0.01967583 0.03339853
v 0.04350150 0.00989195 -0.02782922
v 0.03005560 0.02523181 0.05141312
v 0.01804977 0.01065547 0.03272795
v 0.01862536 0.02828766 0.05346276
v 0.01217369 0.03778813 -0.01302613
v 0.03378317 0.02604783 0.02418927
v 0.02471776 0.03285985 -0.02796482
v 0.04314392 0.00971981 0.02152501
v 0.03960227 0.00972846 0.04906700
v 0.02394662 0.02552512 0.05372129
v 0.03054932 0.02306234 0.05214884
v 0.03772445 0.00963267 0.05134519
v 0.02257765 0.01056012 0.05091375
v 0.01924543 0.02204598 0.05505057
v 0.01045415 0.01827274 0.03090266
v 0.01218700 0.03928261 0.02833865
v 0.03658903 0.02335980 0.02813974
v 0.04314275 0.01108627 -0.02785755
v 0.03118264 0.02869537 -0.01169256
v 0.04154427 0.01085313 0.03876504
v 0.04274459 0.01228218 0.01618160
v 0.03870252 0.01861383 0.03737249
v 0.03457009 0.00982901 0.05387467
v 0.01300552 0.02823047 0.05361540
v 0.01170240 0.02454505 0.05413614
v 0.01025764 0.02700889 0.02812571
v 0.01935559 0.01101248 0.04761980
v 0.01272434 0.02431290 -0.01339449
v 0.02098457 0.03033529 0.05028940
v 0.01192301 0.03830851 -0.01033188
v 0.02871923 0.02997352 0.02279148
v 0.03870983 0.02120651 0.00405280
v 0.03763221 0.02081191 0.03464792
v 0.03920019 0.01987127 -0.02782627
v 0.03259996 0.02736109 -0.01831715
v 0.02888275 0.03015744 -0.02788658
v 0.04185764 0.00980315 0.03881304
v 0.04146166 0.01234491 0.03488204
v 0.04007055 0.01890920 0.00145225
v 0.03874022 0.01577855 0.04242933
v 0.04012597 0.01622545 0.03619675
v 0.02887105 0.01035774 0.05363645
v 0.03666874 0.01015943 0.05239326
v 0.02506909 0.01039750 0.05239375
v 0.01099005 0.02855792 0.05297113
v 0.01175089 0.02328892 0.05274417
v 0.01789389 0.01096743 0.03998197
v 0.01243246 0.02212914 -0.00720558
v 0.02242021 0.02988201 0.05002804
v 0.01038876 0.01940238 0.02918794
v 0.01678418 0.03663329 0.02815753
v 0.02996116 0.02868668 0.02671575
v 0.03117451 0.02869058 -0.00653699
v 0.02352452 0.03396081 -0.00624163
v 0.03633502 0.02344160 -0.02220880
vn 0.14299863 0.04250316 0.98880983
vn 0.80550695 -0.55782976 0.19996129
vn 0.46684790 0.71081660 0.52611101
vn -0.13723780 0.68718203 -0.71340497
vn -0.42636977 -0.62933076 -0.64973196
vn 0.81702236 0.57652264 -0.00980320
vn 0.63412501 0.22681811 0.73921514
vn -0.74641844 0.08519043 0.66000159
vn 0.84704959 0.52178008 0.10125480
vn 0.66197796 -0.50064235 -0.55780141
vn 0.62519634 0.56323980 0.54026888
vn -0.41705034 -0.90887224 -0.00450121
vn 0.07416320 0.58280432 0.80922119
vn -0.67933019 0.63954980 -0.35984240
vn 0.64147921 0.76600884 0.04165197
vn 0.27461646 0.46933544 -0.83923182
vn 0.80160646 -0.59619627 0.04446453
vn 0.80848875 -0.43485225 0.39654692
vn 0.21180097 0.35968513 0.90871720
vn 0.54109467 0.34104658 0.76870267
vn 0.56895854 -0.63204505 0.52612283
vn -0.35464515 -0.84919311 0.39127725
vn -0.06134199 -0.01076144 0.99805879
vn -0.91494950 -0.40304173 0.02060988
vn -0.42156287 0.90080131 0.10412369
vn 0.73478596 0.67516725 0.06510599
vn 0.67425812 0.23734587 -0.69931604
vn 0.62862515 0.77770566 -0.00207938
vn 0.94075154 0.30580154 0.14653311
vn 0.95436199 0.29793763 0.02064840
vn 0.83528417 0.51042983 0.20435690
vn 0.25740652 -0.60037199 0.75716270
vn -0.06203770 0.56203603 0.82478290
vn -0.61329760 -0.18873823 0.76697062
vn -0.99827649 0.05854763 -0.00402760
vn -0.52783452 -0.81625706 0.23476613
vn -0.93591389 -0.16927844 -0.30888510
vn 0.16804411 0.88279002 0.43868321
vn -0.59768328 0.79602976 -0.09545316
vn 0.55541265 0.83017664 0.04820300
vn 0.81250928 0.58282005 0.01222563
vn 0.74846167 0.64316453 0.16169264
vn 0.61727802 0.40634269 -0.67368647
vn 0.67630619 0.73620357 -0.02478386
vn 0.45897610 0.57555998 -0.67680991
vn 0.87561857 -0.46911642 0.11498652
vn 0.95578869 0.28434127 0.07495343
vn 0.89836985 0.43921174 0.00496645
vn 0.85905938 0.43904345 0.26316883
vn 0.91750058 0.37404535 0.13521377
vn -0.13427780 -0.66642402 0.73338155
vn 0.66988053 -0.04235341 0.74125992
vn -0.24562091 -0.81702409 0.52167232
vn -0.66770731 0.55029273 0.50134306
vn -0.83367419 -0.45872795 0.30749962
vn -0.51913853 -0.85047943 0.08473440
vn -0.94478003 -0.31246567 -0.09877200
vn 0.34067260 0.90599527 0.25122648
vn -0.99651574 -0.07812838 -0.02919480
vn 0.50399548 0.86061737 0.07298146
vn 0.58512636 0.80598629 0.08951674
vn 0.63124203 0.77557066 0.00486399
vn 0.49308273 0.86998044 0.00185895
vn 0.72003475 0.69195790 -0.05238533
f 14//14 4//4 5//5
f 16//16 5//5 4//4
f 17//17 2//2 10//10
f 19//19 11//11 3//3
f 19//19 3//3 13//13
f 20//20 18//18 11//11
f 20//20 7//7 18//18
f 20//20 19//19 1//1
f 20//20 11//11 19//19
f 21//21 12//12 5//5
f 21//21 2//2 18//18
f 21//21 18//18 7//7
f 21//21 10//10 2//2
f 21//21 5//5 10//10
f 23//23 19//19 13//13
f 23//23 1//1 19//19
f 24//24 5//5 12//12
f 26//26 15//15 3//3
f 26//26 3//3 11//11
f 27//27 10//10 5//5
f 27//27 5//5 16//16
f 30//30 17//17 10//10
f 30//30 10//10 27//27
f 31//31 9//9 11//11
f 32//32 20//20 1//1
f 32//32 7//7 20//20
f 32//32 12//12 21//21
f 33//33 23//23 13//13
f 34//34 33//33 8//8
f 34//34 23//23 33//33
f 36//36 22//22 34//34
f 37//37 14//14 5//5
f 38//38 13//13 3//3
f 38//38 33//33 13//13
f 39//39 25//25 4//4
f 39//39 4//4 14//14
f 39//39 35//35 25//25
f 39//39 14//14 37//37
f 41//41 26//26 9//9
f 41//41 6//6 26//26
f 42//42 26//26 11//11
f 42//42 11//11 9//9
f 42//42 9//9 26//26
f 43//43 27//27 16//16
f 44//44 26//26 6//6
f 45//45 16//16 4//4
f 45//45 28//28 44//44
f 45//45 43//43 16//16
f 46//46 29//29 2//2
f 46//46 2//2 17//17
f 47//47 17//17 30//30
f 47//47 46//46 17//17
f 47//47 29//29 46//46
f 48//48 30//30 27//27
f 48//48 6//6 41//41
f 48//48 41//41 9//9
f 48//48 9//9 30//30
f 48//48 43//43 6//6
f 48//48 27//27 43//43
f 49//49 18//18 2//2
f 49//49 31//31 11//11
f 49//49 11//11 18//18
f 50//50 9//9 31//31
f 50//50 29//29 47//47
f 50//50 47//47 30//30
f 50//50 30//30 9//9
f 50//50 2//2 29//29
f 50//50 49//49 2//2
f 50//50 31//31 49//49
f 51//51 32//32 1//1
f 51//51 1//1 23//23
f 51//51 23//23 34//34
f 52//52 32//32 21//21
f 52//52 21//21 7//7
f 52//52 7//7 32//32
f 53//53 22//22 12//12
f 53//53 12//12 32//32
f 53//53 32//32 51//51
f 53//53 51//51 34//34
f 53//53 34//34 22//22
f 54//54 8//8 33//33
f 54//54 35//35 8//8
f 54//54 25//25 35//35
f 54//54 38//38 25//25
f 54//54 33//33 38//38
f 55//55 34//34 8//8
f 55//55 8//8 24//24
f 55//55 36//36 34//34
f 55//55 24//24 36//36
f 56//56 36//36 24//24
f 56//56 24//24 12//12
f 56//56 12//12 22//22
f 56//56 22//22 36//36
f 57//57 37//37 5//5
f 57//57 5//5 24//24
f 57//57 39//39 37//37
f 58//58 38//38 3//3
f 58//58 3//3 25//25
f 58//58 25//25 38//38
f 59//59 35//35 39//39
f 59//59 24//24 8//8
f 59//59 8//8 35//35
f 59//59 57//57 24//24
f 59//59 39//39 57//57
f 60//60 40//40 25//25
f 60//60 25//25 3//3
f 60//60 3//3 40//40
f 61//61 40//40 3//3
f 61//61 3//3 15//15
f 61//61 15//15 40//40
f 62//62 40//40 15//15
f 62//62 15//15 26//26
f 62//62 44//44 28//28
f 62//62 26//26 44//44
f 63//63 4//4 25//25
f 63//63 25//25 40//40
f 63//63 40//40 62//62
f 63//63 62//62 28//28
f 63//63 45//45 4//4
f 63//63 28//28 45//45
f 64//64 44//44 6//6
f 64//64 6//6 43//43
f 64//64 45//45 44//44
f 64//64 43//43 45//45

