# https://github.com/mikedh/trimesh
v 0.02153685 0.02842389 0.05275443
v 0.04350150 0.00989195 -0.02782922
v 0.01026329 0.04369636 -0.04390445
v -0.02155378 0.01750510 -0.05850105
v -0.04540420 0.00977873 0.04478054
v 0.03585951 0.01004464 -0.05188257
v 0.02627745 0.03824327 -0.04079711
v -0.03006814 0.01081840 0.04943102
v -0.01583085 0.04535310 0.03263371
v 0.01215005 0.02683529 -0.05418209
v -0.03624137 0.00972131 -0.05181109
v 0.03920019 0.01987127 -0.02782627
v -0.04071758 0.01010527 0.05004296
v 0.01161368 0.02322406 0.05222129
v 0.00553889 0.04495972 0.02814500
v 0.02960166 0.01404351 -0.05305550
v -0.01491376 0.02959321 -0.05310110
v 0.02487529 0.03672923 -0.04526321
v -0.02294096 0.01007598 -0.05901524
v -0.03159836 0.02503107 -0.04366387
v 0.04314377 0.00973907 -0.04104119
v 0.02098457 0.03033529 0.05028940
v 0.04157139 0.01483926 -0.02778973
v -0.03068835 0.03123303 0.04514015
v 0.01109123 0.01819808 0.03486967
v 0.01150457 0.02498640 0.05436430
v 0.01350087 0.04369679 -0.03010446
v 0.00087960 0.04551157 -0.04267065
v 0.01472188 0.02471506 -0.05425748
v 0.00808573 0.04287658 -0.04486289
v 0.01600518 0.02798900 -0.05301568
v 0.02367174 0.03938971 -0.04269576
v 0.02394151 0.02657024 -0.05143426
v -0.03316858 0.01375943 -0.05298500
v 0.02962388 0.01014939 -0.05316183
v -0.04083545 0.01221604 -0.03167544
v 0.04230378 0.00984464 -0.04585281
v -0.04663799 0.00955197 0.02182800
v 0.03892390 0.01967469 -0.04314028
v 0.02072821 0.03383817 0.02936029
v -0.00003103 0.04514300 0.03611160
v 0.04314275 0.01108627 -0.02785755
v -0.04112694 0.01609635 0.04696909
v -0.03506834 0.02849664 0.03954310
v -0.02644133 0.01097424 0.04653613
v -0.00639189 0.03338494 0.05345073
v 0.02401173 0.03944824 -0.04129096
v -0.00906914 0.04514439 -0.03519676
v 0.01415410 0.04326366 -0.04081732
v 0.00578046 0.04276790 -0.04485342
v 0.01995227 0.02663679 -0.05280219
v 0.02625974 0.03815275 -0.04266421
v 0.03403841 0.01495337 -0.05165674
v -0.02303275 0.01364926 -0.05840869
v -0.03415257 0.01869925 -0.04965423
v -0.04116598 0.00978949 -0.03552039
v -0.04090695 0.01850232 0.00049210
v 0.04129584 0.01465965 -0.04425867
v 0.00429077 0.04471302 0.03421477
v -0.00282529 0.03513695 0.05141778
v -0.01548226 0.04567909 0.02471516
v 0.04276831 0.01107498 -0.04102829
v -0.04213952 0.01350449 0.04719690
v -0.02824684 0.02935762 0.04949422
vn 0.67929979 0.00116190 0.73385996
vn 0.81589678 -0.56810210 0.10757532
vn 0.19182546 0.83987186 -0.50775806
vn -0.21969233 0.30177511 -0.92772144
vn -0.83376234 -0.47261409 0.28544050
vn 0.42313381 -0.55370421 -0.71719553
vn 0.66102134 0.75026530 0.01235984
vn 0.11548487 -0.85456600 0.50634000
vn -0.32648250 0.91802546 0.22502984
vn 0.08666679 0.34439790 -0.93481493
vn -0.67734368 -0.53211928 -0.50799076
vn 0.85794936 0.50972744 0.06403773
vn -0.38874867 -0.53601783 0.74937265
vn 0.29879397 -0.83723865 0.45798865
vn 0.32903856 0.94189572 0.06757280
vn 0.19580036 0.11033903 -0.97441650
vn -0.25490054 0.60915169 -0.75097266
vn 0.41835692 0.56895934 -0.70799912
vn -0.16828582 -0.59179320 -0.78832778
vn -0.68437343 0.67142627 -0.28428819
vn 0.80202471 -0.59194038 -0.07976818
vn 0.58910656 0.72565898 0.35548910
vn 0.91238212 0.40331892 0.06994788
vn -0.57810530 0.70992381 0.40224676
vn 0.26247804 -0.92935574 0.25962125
vn 0.17573769 -0.31329629 0.93325329
vn 0.27905015 0.96024486 0.00779950
vn -0.06750977 0.89479138 -0.44135114
vn 0.14324962 0.14489467 -0.97902251
vn 0.05960288 0.60110313 -0.79694575
vn 0.16585607 0.45931987 -0.87264943
vn 0.35970903 0.85195704 -0.38049784
vn 0.36688232 0.39497203 -0.84225558
vn -0.55196315 0.26710552 -0.78993121
vn 0.11875510 -0.61367278 -0.78057860
vn -0.91006864 0.39864959 -0.11337360
vn 0.74428925 -0.51326354 -0.42731026
vn -0.87249590 -0.48861598 0.00230933
vn 0.80613959 0.49967210 -0.31696491
vn 0.66585967 0.73825422 0.10775714
vn 0.07426603 0.94102112 0.33009667
vn 0.94034493 0.33154385 0.07635506
vn -0.73274164 0.45747284 0.50379390
vn -0.76320302 0.63629214 0.11248759
vn 0.23502431 -0.94158576 0.24120497
vn -0.10153724 0.47075674 0.87640076
vn 0.41711517 0.90763544 -0.04704093
vn -0.37380164 0.90395995 -0.20767459
vn 0.28200955 0.95171995 -0.12124250
vn -0.03265627 0.57575546 -0.81696953
vn 0.23712361 0.34994373 -0.90626253
vn 0.62343230 0.70903432 -0.32954893
vn 0.48588055 0.30489037 -0.81912267
vn -0.44747832 0.14474156 -0.88250385
vn -0.72214869 0.49116691 -0.48708966
vn -0.83612476 -0.52236169 -0.16743253
vn -0.84107793 0.53706897 -0.06438051
vn 0.84727065 0.39852979 -0.35115017
vn 0.33230372 0.91607584 0.22445332
vn 0.05643421 0.76806269 0.63788312
vn -0.35529521 0.93464114 -0.01453430
vn 0.95039386 0.30313381 -0.06972383
vn -0.72601681 0.30955546 0.61406433
vn -0.37113444 0.50625471 0.77843780
f 13//13 5//5 2//2
f 13//13 2//2 8//8
f 14//14 2//2 1//1
f 17//17 10//10 4//4
f 19//19 6//6 11//11
f 21//21 2//2 5//5
f 22//22 12//12 7//7
f 22//22 1//1 12//12
f 23//23 12//12 1//1
f 25//25 2//2 14//14
f 26//26 13//13 8//8
f 26//26 8//8 14//14
f 26//26 14//14 1//1
f 28//28 15//15 27//27
f 29//29 4//4 10//10
f 29//29 19//19 4//4
f 29//29 16//16 19//19
f 30//30 10//10 17//17
f 30//30 28//28 3//3
f 31//31 3//3 18//18
f 31//31 30//30 3//3
f 31//31 10//10 30//30
f 32//32 18//18 3//3
f 34//34 19//19 11//11
f 35//35 19//19 16//16
f 35//35 16//16 6//6
f 35//35 6//6 19//19
f 37//37 21//21 11//11
f 37//37 11//11 6//6
f 38//38 21//21 5//5
f 38//38 11//11 21//21
f 39//39 7//7 12//12
f 40//40 22//22 7//7
f 40//40 7//7 15//15
f 40//40 15//15 22//22
f 41//41 15//15 28//28
f 42//42 23//23 1//1
f 42//42 1//1 2//2
f 44//44 24//24 9//9
f 44//44 43//43 24//24
f 44//44 38//38 5//5
f 44//44 5//5 43//43
f 45//45 25//25 14//14
f 45//45 14//14 8//8
f 45//45 8//8 2//2
f 45//45 2//2 25//25
f 46//46 13//13 26//26
f 46//46 26//26 1//1
f 47//47 27//27 15//15
f 47//47 15//15 7//7
f 48//48 28//28 17//17
f 48//48 17//17 20//20
f 49//49 28//28 27//27
f 49//49 3//3 28//28
f 49//49 27//27 47//47
f 49//49 47//47 32//32
f 49//49 32//32 3//3
f 50//50 30//30 17//17
f 50//50 17//17 28//28
f 50//50 28//28 30//30
f 51//51 29//29 10//10
f 51//51 10//10 31//31
f 51//51 31//31 18//18
f 51//51 18//18 33//33
f 51//51 16//16 29//29
f 52//52 18//18 32//32
f 52//52 39//39 18//18
f 52//52 7//7 39//39
f 52//52 47//47 7//7
f 52//52 32//32 47//47
f 53//53 33//33 18//18
f 53//53 6//6 16//16
f 53//53 51//51 33//33
f 53//53 16//16 51//51
f 53//53 18//18 39//39
f 53//53 37//37 6//6
f 54//54 34//34 4//4
f 54//54 4//4 19//19
f 54//54 19//19 34//34
f 55//55 34//34 11//11
f 55//55 20//20 17//17
f 55//55 17//17 4//4
f 55//55 4//4 34//34
f 55//55 36//36 20//20
f 56//56 38//38 36//36
f 56//56 11//11 38//38
f 56//56 55//55 11//11
f 56//56 36//36 55//55
f 57//57 20//20 36//36
f 57//57 36//36 38//38
f 57//57 44//44 20//20
f 57//57 38//38 44//44
f 58//58 39//39 12//12
f 58//58 12//12 23//23
f 58//58 23//23 42//42
f 58//58 21//21 37//37
f 58//58 53//53 39//39
f 58//58 37//37 53//53
f 59//59 41//41 22//22
f 59//59 22//22 15//15
f 59//59 15//15 41//41
f 60//60 1//1 22//22
f 60//60 22//22 41//41
f 60//60 46//46 1//1
f 60//60 41//41 9//9
f 60//60 9//9 46//46
f 61//61 41//41 28//28
f 61//61 9//9 41//41
f 61//61 28//28 48//48
f 61//61 48//48 20//20
f 61//61 44//44 9//9
f 61//61 20//20 44//44
f 62//62 42//42 2//2
f 62//62 2//2 21//21
f 62//62 58//58 42//42
f 62//62 21//21 58//58
f 63//63 43//43 5//5
f 63//63 5//5 13//13
f 63//63 13//13 43//43
f 64//64 43//43 13//13
f 64//64 24//24 43//43
f 64//64 13//13 46//46
f 64//64 46//46 9//9
f 64//64 9//9 24//24

