# https://github.com/mikedh/trimesh
v 0.03457009 0.00982901 0.05387467
v 0.04416793 -0.01460592 0.04147165
v 0.04314392 0.00971981 0.02152501
v 0.02877935 0.01055729 0.02165826
v -0.01191369 -0.05601746 0.02531169
v 0.03666874 0.01015943 0.05239326
v 0.00929012 -0.04241745 0.05253471
v -0.00928816 -0.03076463 0.03942695
v 0.01875165 -0.05668332 0.02792823
v 0.03084772 0.00371341 0.02166772
v 0.01895045 0.01080399 0.04646302
v 0.03844545 -0.01781242 0.05369394
v 0.04401964 0.00168274 0.03992108
v -0.01154172 -0.03912667 0.02579885
v -0.00657895 -0.04053164 0.04551131
v 0.04503230 0.00326976 0.02159835
v 0.01512092 -0.05688904 0.03760186
v -0.01097956 -0.05578949 0.02512325
v 0.02887105 0.01035774 0.05363645
v 0.03841863 -0.00339792 0.05360397
v 0.03630510 -0.01623401 0.05382898
v 0.03614022 -0.02869645 0.04937414
v 0.04146028 0.00965754 0.04140269
v -0.01011063 -0.03494987 0.03995242
v 0.01861768 0.01053214 0.03149314
v -0.00420483 -0.04386627 0.04557752
v -0.00925326 -0.03495857 0.04323118
v 0.04196135 -0.02254000 0.02703137
v 0.04554933 -0.00593762 0.03734859
v 0.04411757 0.00455178 0.03504046
v 0.04434157 0.00574916 0.02155817
v 0.00595184 -0.05798883 0.02657755
v 0.00529793 -0.03839294 0.05105089
v 0.04155312 -0.00089476 0.05001169
v 0.03922888 -0.02092259 0.05214071
v 0.01892815 -0.05543637 0.03719410
v -0.01018717 -0.03187219 0.03815311
v 0.01742360 0.01071951 0.03741980
v -0.01166102 -0.05466510 0.02776872
v -0.00538443 -0.04245309 0.04559750
v 0.00661863 -0.04782390 0.04592519
v 0.02010162 0.01066112 0.04868580
v 0.04140890 -0.02267032 0.04020123
v 0.04569192 -0.01224424 0.02694059
v 0.04548032 0.00026931 0.03094043
v 0.04400450 0.00301503 0.03858109
v 0.04277508 0.00955742 0.02821470
v 0.00875739 -0.05793986 0.03270708
v 0.01687523 -0.05798412 0.02769880
v -0.00862471 -0.03612289 0.04403020
v 0.03894768 0.00035737 0.05232034
v 0.04009678 0.00840961 0.04901931
v 0.04284952 0.00045364 0.04666896
v 0.04018293 -0.00874397 0.05261872
v 0.03091861 -0.03147467 0.05238990
v 0.02868021 -0.03564085 0.05126749
v -0.01010962 -0.03321786 0.03966394
v 0.01772565 0.01062395 0.03407832
v -0.00756924 -0.04048438 0.04452616
v 0.02257765 0.01056012 0.05091375
v 0.01941944 -0.05719163 0.02904713
v 0.03862122 -0.02380943 0.05061625
v 0.04424838 -0.01729003 0.02709396
v 0.04549958 -0.01099357 0.03623076
vn 0.19712444 0.53110450 0.82405702
vn 0.95671981 -0.19147010 0.21914926
vn 0.50775381 0.62548937 -0.59240958
vn -0.15621102 0.69367799 -0.70314221
vn -0.68313410 -0.62124670 -0.38390148
vn 0.46137010 0.73256918 0.50047980
vn -0.10598113 -0.39325035 0.91330288
vn -0.83456246 0.45835248 0.30564441
vn 0.45980370 -0.42079969 -0.78198988
vn -0.02489652 -0.02680877 -0.99933050
vn -0.48708375 0.85008947 0.20024316
vn 0.45559990 -0.10724370 0.88370103
vn 0.96855189 0.17158910 0.18017885
vn -0.78474766 0.16879992 -0.59638721
vn -0.56907675 -0.15082017 0.80833467
vn 0.72179747 0.07358211 -0.68818172
vn 0.10103289 -0.87291336 0.47729930
vn -0.07112910 -0.28801206 -0.95498152
vn -0.10984178 0.68116726 0.72384111
vn 0.43043156 0.06675196 0.90015157
vn 0.01204858 -0.01876388 0.99975134
vn 0.75369011 -0.53564556 0.38083468
vn 0.65024464 0.74972730 0.12284500
vn -0.98095987 -0.00865594 0.19401754
vn -0.47767594 0.81050469 -0.33898061
vn -0.43356568 -0.56473198 0.70220979
vn -0.83082705 0.13493636 0.53992462
vn 0.73797123 -0.42609584 -0.52329801
vn 0.98823540 0.03183150 0.14959129
vn 0.95347244 0.28460807 0.09944120
vn 0.69322557 0.19278024 -0.69445957
vn 0.00106180 -0.77356947 -0.63371062
vn -0.37695429 0.04889926 0.92494017
vn 0.84447006 0.08542247 0.52874693
vn 0.75357798 -0.29226349 0.58881430
vn 0.53893137 -0.74073169 0.40108546
vn -0.93653286 0.34675518 0.05164349
vn -0.50677927 0.86204796 0.00693484
vn -0.77104959 -0.49643041 0.39879742
vn -0.55184344 -0.38130532 0.74167046
vn -0.23023816 -0.73907775 0.63305171
vn -0.45755941 0.77700072 0.43233004
vn 0.89066146 -0.44128852 0.10948334
vn 0.92767097 -0.18059958 -0.32681854
vn 0.98972957 0.13811724 0.03686466
vn 0.96078017 0.22419995 0.16320494
vn 0.79751277 0.60011652 0.06191560
vn -0.11879728 -0.95584829 0.26877733
vn 0.21481549 -0.78920780 -0.57533065
vn -0.69468650 0.02102522 0.71900529
vn 0.68687053 0.15127115 0.71086279
vn 0.79757627 0.45063660 0.40099719
vn 0.94357442 0.12333280 0.30733749
vn 0.76338215 -0.01640971 0.64573865
vn 0.36793067 -0.34770487 0.86239686
vn 0.44788465 -0.54090025 0.71191731
vn -0.95538318 0.16870600 0.24244847
vn -0.50858669 0.85003099 -0.13706527
vn -0.78256823 -0.25535014 0.56778805
vn -0.31555349 0.73365018 0.60181675
vn 0.60519588 -0.77818979 -0.16780527
vn 0.79464891 -0.44483756 0.41310126
vn 0.85825711 -0.31832480 -0.40257181
vn 0.98736209 -0.12703831 0.09474895
f 6//6 3//3 4//4
f 10//10 4//4 3//3
f 11//11 6//6 4//4
f 18//18 4//4 10//10
f 18//18 14//14 4//4
f 18//18 5//5 14//14
f 18//18 10//10 16//16
f 19//19 1//1 6//6
f 19//19 6//6 11//11
f 20//20 6//6 1//1
f 20//20 1//1 12//12
f 21//21 12//12 1//1
f 21//21 7//7 12//12
f 21//21 19//19 7//7
f 21//21 1//1 19//19
f 23//23 3//3 6//6
f 25//25 4//4 14//14
f 28//28 9//9 16//16
f 31//31 16//16 10//10
f 31//31 10//10 3//3
f 31//31 30//30 16//16
f 31//31 3//3 30//30
f 32//32 5//5 18//18
f 32//32 18//18 16//16
f 33//33 15//15 7//7
f 33//33 7//7 19//19
f 38//38 11//11 4//4
f 38//38 37//37 8//8
f 38//38 8//8 11//11
f 39//39 27//27 24//24
f 39//39 14//14 5//5
f 40//40 26//26 7//7
f 40//40 7//7 15//15
f 40//40 39//39 26//26
f 41//41 17//17 7//7
f 41//41 7//7 26//26
f 41//41 39//39 17//17
f 41//41 26//26 39//39
f 42//42 11//11 8//8
f 42//42 8//8 27//27
f 45//45 16//16 30//30
f 45//45 44//44 16//16
f 45//45 29//29 44//44
f 46//46 30//30 23//23
f 46//46 45//45 30//30
f 46//46 13//13 29//29
f 46//46 29//29 45//45
f 47//47 30//30 3//3
f 47//47 3//3 23//23
f 47//47 23//23 30//30
f 48//48 5//5 32//32
f 48//48 39//39 5//5
f 48//48 17//17 39//39
f 49//49 32//32 16//16
f 49//49 16//16 9//9
f 49//49 48//48 32//32
f 49//49 17//17 48//48
f 50//50 15//15 33//33
f 51//51 34//34 6//6
f 51//51 6//6 20//20
f 51//51 20//20 34//34
f 52//52 23//23 6//6
f 52//52 6//6 34//34
f 52//52 46//46 23//23
f 53//53 29//29 13//13
f 53//53 52//52 34//34
f 53//53 13//13 46//46
f 53//53 46//46 52//52
f 53//53 34//34 2//2
f 53//53 2//2 29//29
f 54//54 34//34 20//20
f 54//54 20//20 12//12
f 54//54 12//12 35//35
f 54//54 35//35 2//2
f 54//54 2//2 34//34
f 55//55 35//35 12//12
f 55//55 12//12 7//7
f 56//56 7//7 17//17
f 56//56 17//17 36//36
f 56//56 55//55 7//7
f 56//56 36//36 22//22
f 56//56 22//22 55//55
f 57//57 37//37 14//14
f 57//57 24//24 27//27
f 57//57 27//27 8//8
f 57//57 8//8 37//37
f 57//57 39//39 24//24
f 57//57 14//14 39//39
f 58//58 25//25 14//14
f 58//58 14//14 37//37
f 58//58 37//37 38//38
f 58//58 38//38 4//4
f 58//58 4//4 25//25
f 59//59 40//40 15//15
f 59//59 39//39 40//40
f 59//59 15//15 50//50
f 59//59 50//50 27//27
f 59//59 27//27 39//39
f 60//60 19//19 11//11
f 60//60 11//11 42//42
f 60//60 42//42 27//27
f 60//60 27//27 50//50
f 60//60 50//50 33//33
f 60//60 33//33 19//19
f 61//61 43//43 22//22
f 61//61 22//22 36//36
f 61//61 9//9 28//28
f 61//61 28//28 43//43
f 61//61 49//49 9//9
f 61//61 36//36 17//17
f 61//61 17//17 49//49
f 62//62 22//22 43//43
f 62//62 55//55 22//22
f 62//62 35//35 55//55
f 62//62 43//43 2//2
f 62//62 2//2 35//35
f 63//63 28//28 16//16
f 63//63 16//16 44//44
f 63//63 43//43 28//28
f 63//63 44//44 2//2
f 63//63 2//2 43//43
f 64//64 44//44 29//29
f 64//64 29//29 2//2
f 64//64 2//2 44//44

