# https://github.com/mikedh/trimesh
v -0.03108512 0.01059878 0.04995681
v -0.01097956 -0.05578949 0.02512325
v -0.02211023 0.01070166 0.00707361
v -0.03199242 0.00545254 -0.00915063
v -0.04921263 -0.01734946 0.04312563
v -0.00846373 -0.03897217 0.01276849
v -0.04399252 0.00980791 -0.00225727
v -0.02243722 -0.04314408 0.04426027
v -0.02221631 -0.04571450 -0.00242898
v -0.02703668 0.01036615 -0.00758334
v -0.01053401 -0.03997454 0.02681451
v -0.02359929 0.01079782 -0.00200361
v -0.04540420 0.00977873 0.04478054
v -0.03858505 -0.03406100 0.04234129
v -0.03906323 -0.01722526 0.05096587
v -0.01044034 -0.06000494 0.01450347
v -0.04507778 -0.01595123 -0.00218371
v -0.02698616 0.00342910 -0.00754664
v -0.01680338 -0.04519410 0.04205048
v -0.02217410 0.01084582 0.03598678
v -0.04891402 0.00053488 0.01916505
v -0.04118604 0.01003972 0.04962627
v -0.03665401 -0.01894888 0.05089525
v -0.03082934 -0.03668463 0.04554600
v -0.04288624 -0.02763937 0.04407403
v -0.01423906 -0.05830350 0.01728365
v -0.04627877 -0.00845853 -0.00219261
v -0.03580266 -0.03270278 -0.00263333
v -0.01936715 -0.04681611 0.04002582
v -0.01593064 -0.04711617 0.03953586
v -0.02350856 0.01093831 0.03982510
v -0.04621120 0.00953797 0.01786505
v -0.04779626 0.00455818 0.04350720
v -0.03821580 -0.00615941 0.05087203
v -0.04289234 0.00653693 0.04960959
v -0.01844612 -0.04398563 0.04300333
v -0.02809625 -0.04337099 0.04054823
v -0.03570486 -0.02479570 0.04972250
v -0.04619442 -0.02090900 0.04456993
v -0.03467207 -0.03516299 0.04433127
v -0.01223807 -0.05775369 0.02215724
v -0.04484184 0.00699442 -0.00218839
v -0.04885880 -0.01483117 0.01519207
v -0.03836325 -0.02912689 -0.00251090
v -0.02540876 -0.04330314 -0.00247743
v -0.04512413 -0.02723253 0.03130393
v -0.01251928 -0.04060159 0.03141127
v -0.02741938 0.01072931 0.04748364
v -0.04620644 0.00962270 0.03370165
v -0.04891336 0.00058020 0.02545789
v -0.04750487 0.00696269 0.02191547
v -0.04264385 0.00205483 0.04971574
v -0.03903281 -0.00761713 0.05080208
v -0.04614971 0.00457814 0.04600002
v -0.02951330 -0.03938311 0.04411126
v -0.02263258 -0.04458458 0.04202974
v -0.02924545 -0.04323946 0.03860443
v -0.03832615 -0.02096346 0.04992259
v -0.02443541 -0.04207174 0.04441372
v -0.04119118 -0.03024833 0.04346844
v -0.01331917 -0.05770450 0.02119306
v -0.01133652 -0.05661076 0.02376870
v -0.01180907 -0.05545754 0.02632898
v -0.01248204 -0.05773713 0.02203580
vn 0.19309713 0.66220503 0.72401519
vn 0.77666004 -0.51211437 0.36679429
vn 0.66253933 0.74696952 -0.05548119
vn -0.11500975 0.15437778 -0.98129519
vn -0.89938151 -0.19500936 0.39125983
vn 0.96372940 0.03381492 -0.26473041
vn -0.57401962 0.68411346 -0.44998917
vn -0.02127602 -0.51910319 0.85444673
vn 0.08852544 -0.57020294 -0.81672018
vn 0.33616394 0.64861252 -0.68285841
vn 0.96215802 0.06177980 0.26539633
vn 0.61035626 0.73944550 -0.28405209
vn -0.61217771 0.74629221 0.26131663
vn -0.66342233 -0.65875814 0.35483591
vn -0.32075288 -0.12411777 0.93899540
vn 0.45605355 -0.84807508 -0.26978474
vn -0.74126898 -0.25241913 -0.62193639
vn 0.52422857 -0.02451933 -0.85122453
vn 0.56510224 -0.39242861 0.72571292
vn 0.67793372 0.72353312 0.13002189
vn -0.98982424 0.12467595 -0.06858484
vn -0.27408501 0.68756168 0.67241085
vn 0.10939768 -0.10702210 0.98821982
vn -0.32139842 -0.48505974 0.81327738
vn -0.70361317 -0.49704191 0.50781674
vn -0.51849131 -0.85503451 0.00909683
vn -0.80289525 -0.03047046 -0.59534088
vn -0.57312215 -0.49086018 -0.65619150
vn -0.14853448 -0.83801023 0.52504892
vn 0.58233825 -0.56472404 0.58478108
vn 0.59741338 0.75475344 0.27100646
vn -0.64963752 0.75853399 -0.05096349
vn -0.93789845 0.19896250 0.28418379
vn -0.03054333 0.02983530 0.99908806
vn -0.51536529 0.14422471 0.84474721
vn 0.34102332 -0.21138878 0.91597919
vn -0.45780168 -0.77832017 0.42969214
vn -0.16873078 -0.31016627 0.93558902
vn -0.65031708 -0.32046002 0.68876199
vn -0.46238461 -0.54104771 0.70247267
vn 0.07319196 -0.92274530 0.37839668
vn -0.81838307 0.16327694 -0.55098983
vn -0.97090877 -0.21120139 -0.11282787
vn -0.65913219 -0.39619722 -0.63919678
vn -0.48707600 -0.53899883 -0.68719519
vn -0.84432304 -0.53540890 -0.02135225
vn 0.90599800 0.10904692 0.40899437
vn 0.51914309 0.68461203 0.51166085
vn -0.62969862 0.77669005 0.01523847
vn -0.99282645 0.11906993 0.01086211
vn -0.94492958 0.32611571 -0.02750707
vn -0.50182008 -0.01213610 0.86488689
vn -0.17637369 0.02023142 0.98411534
vn -0.79444449 0.12323902 0.59470169
vn -0.42264339 -0.62764527 0.65378436
vn -0.28047473 -0.81727952 0.50337671
vn -0.61901416 -0.76782689 0.16511614
vn -0.46623099 -0.33138037 0.82025345
vn -0.26417622 -0.56779249 0.77962980
vn -0.68035494 -0.56523309 0.46650692
vn -0.37266206 -0.89167842 0.25696806
vn 0.41147603 -0.82485836 0.38768049
vn 0.25410837 -0.79712301 0.54774432
vn -0.27558773 -0.90772991 0.31635079
f 10//10 4//4 7//7
f 10//10 6//6 9//9
f 11//11 2//2 6//6
f 12//12 10//10 7//7
f 12//12 3//3 6//6
f 12//12 6//6 10//10
f 16//16 9//9 6//6
f 16//16 6//6 2//2
f 18//18 10//10 9//9
f 18//18 9//9 4//4
f 18//18 4//4 10//10
f 20//20 11//11 6//6
f 20//20 6//6 3//3
f 20//20 3//3 12//12
f 22//22 1//1 7//7
f 22//22 7//7 13//13
f 26//26 9//9 16//16
f 27//27 4//4 17//17
f 29//29 19//19 8//8
f 30//30 2//2 11//11
f 30//30 11//11 19//19
f 30//30 19//19 29//29
f 31//31 11//11 20//20
f 31//31 20//20 12//12
f 31//31 12//12 7//7
f 31//31 7//7 1//1
f 34//34 1//1 22//22
f 34//34 23//23 1//1
f 34//34 15//15 23//23
f 35//35 34//34 22//22
f 35//35 22//22 13//13
f 36//36 19//19 1//1
f 36//36 1//1 23//23
f 36//36 23//23 8//8
f 36//36 8//8 19//19
f 38//38 23//23 15//15
f 38//38 8//8 23//23
f 39//39 25//25 15//15
f 39//39 15//15 5//5
f 39//39 5//5 25//25
f 40//40 38//38 25//25
f 40//40 24//24 38//38
f 42//42 7//7 4//4
f 42//42 4//4 27//27
f 42//42 27//27 21//21
f 43//43 27//27 17//17
f 43//43 5//5 21//21
f 43//43 21//21 27//27
f 44//44 17//17 4//4
f 44//44 4//4 28//28
f 44//44 43//43 17//17
f 45//45 28//28 4//4
f 45//45 4//4 9//9
f 45//45 9//9 26//26
f 45//45 26//26 28//28
f 46//46 28//28 26//26
f 46//46 26//26 14//14
f 46//46 44//44 28//28
f 46//46 43//43 44//44
f 46//46 25//25 5//5
f 46//46 5//5 43//43
f 47//47 31//31 19//19
f 47//47 19//19 11//11
f 47//47 11//11 31//31
f 48//48 31//31 1//1
f 48//48 1//1 19//19
f 48//48 19//19 31//31
f 49//49 13//13 7//7
f 49//49 7//7 32//32
f 49//49 33//33 13//13
f 50//50 21//21 5//5
f 50//50 5//5 33//33
f 51//51 50//50 33//33
f 51//51 21//21 50//50
f 51//51 42//42 21//21
f 51//51 32//32 7//7
f 51//51 7//7 42//42
f 51//51 49//49 32//32
f 51//51 33//33 49//49
f 52//52 35//35 5//5
f 52//52 5//5 15//15
f 52//52 15//15 35//35
f 53//53 35//35 15//15
f 53//53 15//15 34//34
f 53//53 34//34 35//35
f 54//54 33//33 5//5
f 54//54 5//5 35//35
f 54//54 35//35 13//13
f 54//54 13//13 33//33
f 55//55 24//24 40//40
f 55//55 40//40 14//14
f 55//55 14//14 37//37
f 56//56 37//37 29//29
f 56//56 29//29 8//8
f 56//56 8//8 37//37
f 57//57 37//37 14//14
f 57//57 14//14 26//26
f 57//57 26//26 37//37
f 58//58 38//38 15//15
f 58//58 15//15 25//25
f 58//58 25//25 38//38
f 59//59 38//38 24//24
f 59//59 8//8 38//38
f 59//59 24//24 55//55
f 59//59 55//55 37//37
f 59//59 37//37 8//8
f 60//60 40//40 25//25
f 60//60 14//14 40//40
f 60//60 46//46 14//14
f 60//60 25//25 46//46
f 61//61 26//26 16//16
f 61//61 37//37 26//26
f 62//62 41//41 16//16
f 62//62 16//16 2//2
f 62//62 2//2 41//41
f 63//63 30//30 29//29
f 63//63 29//29 41//41
f 63//63 41//41 2//2
f 63//63 2//2 30//30
f 64//64 41//41 29//29
f 64//64 29//29 37//37
f 64//64 37//37 61//61
f 64//64 61//61 16//16
f 64//64 16//16 41//41

