# https://github.com/mikedh/trimesh
v 0.00107065 0.04566279 0.03550020
v 0.00477068 0.04545713 0.03088641
v -0.00050467 0.07817197 -0.00762082
v 0.00062993 0.04448541 -0.04317647
v 0.00058644 0.04410737 -0.02294405
v 0.01331959 0.04422519 -0.03834984
v -0.00090737 0.06892979 0.02436488
v -0.01259933 0.04568829 0.03521057
v 0.00364309 0.06900341 -0.02915811
v 0.00915845 0.04407662 -0.04416042
v 0.01280148 0.04432878 -0.02955302
v 0.00047545 0.05876927 0.03243196
v -0.01576952 0.04577827 0.02597828
v -0.00733615 0.06461252 -0.03411736
v 0.00412589 0.07520082 -0.00520849
v 0.01192500 0.04429961 -0.04226872
v 0.00383380 0.04417525 -0.02297217
v 0.00375944 0.04563870 0.03331202
v -0.00164596 0.05119317 0.03483553
v -0.01103166 0.06494615 0.02672687
v -0.00823488 0.04547409 -0.03638861
v -0.01622574 0.04585240 0.03197344
v -0.00582593 0.07401511 -0.02163646
v 0.00573523 0.04437469 -0.04408711
v 0.00188587 0.06387028 -0.03424261
v 0.00301903 0.07403774 -0.02051918
v -0.00083169 0.07683363 0.00648398
v 0.00128622 0.06700007 0.02261670
v 0.00441068 0.07028455 -0.02725645
v -0.00615107 0.05659104 0.03334119
v -0.00025901 0.05667678 0.03338809
v -0.00599879 0.06412581 0.02938541
v -0.00704801 0.04538278 -0.03752536
v -0.01489460 0.05523598 -0.01612043
v -0.01302110 0.05610030 0.03090108
v -0.00460914 0.07158004 -0.02692831
v 0.00577054 0.04544979 -0.04357956
v -0.00409556 0.06672503 -0.03287371
v 0.00196296 0.07674420 -0.01157362
v -0.00010188 0.07655178 -0.01536362
v -0.00045391 0.07828007 -0.00000403
v -0.01209888 0.07135738 0.01803669
v 0.00261963 0.06875551 0.01338156
v 0.00157947 0.07406492 0.00898559
v 0.00436255 0.07413000 -0.01546934
v -0.00867481 0.04979971 0.03470110
v -0.00153807 0.05978420 0.03229431
v -0.00955926 0.04578401 -0.03400705
v -0.01161566 0.07596299 -0.00462932
v -0.00976190 0.05350352 0.03334675
v -0.01208876 0.06001580 0.02949673
v -0.00608516 0.06766822 -0.03202117
v 0.00152262 0.07143911 -0.02665713
v -0.00132354 0.06762863 -0.03170547
v -0.00625540 0.07661983 -0.01512112
v 0.00108867 0.07520461 -0.01936310
v 0.00112090 0.07657282 -0.01399174
v 0.00186346 0.07675473 -0.00013631
v -0.00480963 0.07396805 0.01681038
v -0.00716459 0.07011926 0.02308077
v -0.01327949 0.06884716 0.02082176
v -0.00003872 0.07297768 0.01568284
v 0.00146018 0.07048807 0.01699922
v 0.00446624 0.07283752 -0.02057075
vn 0.28637264 -0.55078564 0.78398080
vn 0.76874161 -0.59239514 0.24104839
vn 0.14304717 0.98804462 -0.05749200
vn -0.31255625 -0.53631656 -0.78401093
vn -0.05551425 -0.99845614 0.00187202
vn 0.84449580 -0.51141422 -0.15900423
vn 0.41840905 0.70453391 0.57320663
vn -0.34576057 -0.52860343 0.77525998
vn 0.37082103 0.65671787 -0.65666841
vn 0.27726668 -0.45382624 -0.84685591
vn 0.79131360 -0.60722703 0.07140117
vn 0.59124957 0.40711801 0.69618882
vn -0.65264918 -0.75647797 -0.04230985
vn -0.57848085 0.41773485 -0.70061223
vn 0.84190978 0.53592873 0.06299467
vn 0.72009474 -0.36803578 -0.58822890
vn 0.02597690 -0.99949773 0.01815208
vn 0.68727499 -0.50863261 0.51859999
vn 0.05269283 0.19173661 0.98003089
vn -0.47083098 0.57582856 0.66838586
vn -0.65902718 -0.59062814 -0.46566251
vn -0.77595870 -0.50535810 0.37749342
vn -0.42464935 0.81308748 -0.39819804
vn -0.09327065 -0.34279594 -0.93476817
vn 0.24312666 0.54327282 -0.80358203
vn 0.45903172 0.83401670 -0.30611439
vn 0.24734044 0.93530437 0.25303840
vn 0.87055655 0.38107222 0.31131214
vn 0.61503439 0.66570172 -0.42258008
vn -0.16345335 0.35208293 0.92158592
vn 0.23001877 0.27339594 0.93399466
vn -0.11460120 0.60216816 0.79010130
vn -0.57256911 -0.52667458 -0.62831402
vn -0.98716546 -0.01872184 -0.15859964
vn -0.63422765 0.36086578 0.68376252
vn -0.18265561 0.83672982 -0.51625588
vn 0.00504437 0.43949075 -0.89823295
vn 0.03086361 0.60959531 -0.79211173
vn 0.50074955 0.85842611 -0.11115080
vn 0.11106078 0.96142096 -0.25166493
vn 0.17159333 0.97838531 0.11540328
vn -0.57949388 0.76705199 0.27535083
vn 0.95761105 0.23629220 0.16476369
vn 0.76606017 0.59858317 0.23420078
vn 0.81398380 0.57355446 -0.09200900
vn -0.08627756 0.20936239 0.97402442
vn 0.08311731 0.50671650 0.85809667
vn -0.79414668 -0.53830437 -0.28206287
vn -0.71352082 0.69950270 -0.03979978
vn -0.31946107 0.34407439 0.88292550
vn -0.56787928 0.43140418 0.70100182
vn -0.39303357 0.70225733 -0.59359857
vn 0.13763489 0.83937323 -0.52584143
vn 0.10895888 0.70893080 -0.69681065
vn -0.35286809 0.89515569 -0.27236081
vn 0.18761667 0.92193930 -0.33886266
vn 0.31758145 0.92550220 -0.20636789
vn 0.67126508 0.72832149 0.13766260
vn -0.02864104 0.93282480 0.35919019
vn -0.16231334 0.79014585 0.59103631
vn -0.78942500 0.51102308 0.34009349
vn 0.52501529 0.77413502 0.35365792
vn 0.85154469 0.44999959 0.26902047
vn 0.80137525 0.57297097 -0.17176140
f 8//8 5//5 2//2
f 8//8 2//2 1//1
f 10//10 5//5 4//4
f 15//15 11//11 6//6
f 15//15 2//2 11//11
f 16//16 6//6 10//10
f 17//17 11//11 2//2
f 17//17 2//2 5//5
f 17//17 6//6 11//11
f 17//17 10//10 6//6
f 17//17 5//5 10//10
f 18//18 12//12 1//1
f 18//18 1//1 2//2
f 18//18 2//2 12//12
f 19//19 8//8 1//1
f 21//21 4//4 5//5
f 21//21 5//5 13//13
f 22//22 13//13 5//5
f 22//22 5//5 8//8
f 24//24 10//10 4//4
f 24//24 4//4 14//14
f 25//25 16//16 10//10
f 25//25 9//9 16//16
f 28//28 12//12 2//2
f 28//28 7//7 12//12
f 29//29 16//16 9//9
f 29//29 6//6 16//16
f 31//31 19//19 1//1
f 31//31 1//1 12//12
f 31//31 30//30 19//19
f 33//33 21//21 14//14
f 33//33 14//14 4//4
f 33//33 4//4 21//21
f 34//34 13//13 22//22
f 35//35 22//22 8//8
f 37//37 24//24 14//14
f 37//37 10//10 24//24
f 37//37 25//25 10//10
f 37//37 14//14 25//25
f 38//38 25//25 14//14
f 41//41 39//39 3//3
f 43//43 28//28 2//2
f 43//43 2//2 15//15
f 45//45 15//15 6//6
f 45//45 39//39 15//15
f 45//45 26//26 39//39
f 46//46 30//30 8//8
f 46//46 8//8 19//19
f 46//46 19//19 30//30
f 47//47 31//31 12//12
f 47//47 30//30 31//31
f 47//47 32//32 30//30
f 47//47 12//12 7//7
f 47//47 7//7 32//32
f 48//48 21//21 13//13
f 48//48 13//13 34//34
f 48//48 34//34 14//14
f 48//48 14//14 21//21
f 49//49 14//14 34//34
f 49//49 41//41 3//3
f 50//50 35//35 8//8
f 50//50 8//8 30//30
f 51//51 32//32 20//20
f 51//51 30//30 32//32
f 51//51 50//50 30//30
f 51//51 35//35 50//50
f 52//52 23//23 36//36
f 52//52 49//49 23//23
f 52//52 14//14 49//49
f 52//52 38//38 14//14
f 53//53 29//29 9//9
f 53//53 52//52 36//36
f 54//54 9//9 25//25
f 54//54 25//25 38//38
f 54//54 53//53 9//9
f 54//54 38//38 52//52
f 54//54 52//52 53//53
f 55//55 3//3 40//40
f 55//55 49//49 3//3
f 55//55 23//23 49//49
f 56//56 26//26 29//29
f 56//56 29//29 53//53
f 56//56 55//55 40//40
f 56//56 23//23 55//55
f 56//56 53//53 36//36
f 56//56 36//36 23//23
f 57//57 40//40 3//3
f 57//57 3//3 39//39
f 57//57 56//56 40//40
f 57//57 39//39 26//26
f 57//57 26//26 56//56
f 58//58 15//15 39//39
f 58//58 39//39 41//41
f 58//58 44//44 15//15
f 58//58 41//41 27//27
f 58//58 27//27 44//44
f 59//59 27//27 41//41
f 59//59 49//49 42//42
f 59//59 41//41 49//49
f 60//60 20//20 32//32
f 60//60 59//59 42//42
f 60//60 32//32 7//7
f 60//60 7//7 59//59
f 61//61 22//22 35//35
f 61//61 35//35 51//51
f 61//61 51//51 20//20
f 61//61 60//60 42//42
f 61//61 20//20 60//60
f 61//61 42//42 49//49
f 61//61 49//49 34//34
f 61//61 34//34 22//22
f 62//62 44//44 27//27
f 62//62 59//59 7//7
f 62//62 27//27 59//59
f 63//63 43//43 15//15
f 63//63 15//15 44//44
f 63//63 28//28 43//43
f 63//63 44//44 62//62
f 63//63 62//62 7//7
f 63//63 7//7 28//28
f 64//64 29//29 26//26
f 64//64 26//26 45//45
f 64//64 45//45 6//6
f 64//64 6//6 29//29

