# https://github.com/mikedh/trimesh
v 0.02509211 0.01017399 -0.01976523
v 0.02172376 -0.04352182 -0.01440562
v 0.02560075 -0.02314521 -0.05324959
v 0.00161568 0.01016405 -0.05504289
v 0.00163837 0.01015592 -0.02116724
v 0.00121695 -0.05151931 -0.04756390
v 0.02578091 0.01013663 -0.05317710
v 0.02616535 -0.01378905 -0.01956995
v 0.00178042 -0.04006449 -0.01405903
v 0.00307348 0.01044772 -0.02110426
v 0.02197024 -0.04185219 -0.04718393
v 0.00132925 -0.03787310 -0.05570738
v 0.02379934 -0.02681255 -0.01469415
v 0.02569270 -0.02325828 -0.02780166
v 0.00175507 -0.05617377 -0.01435009
v 0.01084065 0.01016364 -0.05448929
v 0.01530655 0.01029350 -0.01986429
v 0.00515449 -0.04389450 -0.05428072
v 0.00296654 -0.03782931 -0.05582028
v 0.02190405 -0.04308226 -0.03439111
v 0.01281122 -0.05140488 -0.01436535
v 0.01041853 -0.04727219 -0.04930837
v 0.00139535 -0.04512599 -0.05460146
v 0.02233195 -0.03853615 -0.05063524
v 0.01189948 -0.03871234 -0.05428275
v 0.01348388 0.00477540 -0.05436069
v 0.00135918 -0.03520869 -0.05585090
v 0.01651528 -0.04848294 -0.01705870
v 0.01794395 -0.04705083 -0.02619619
v 0.00711716 -0.05498658 -0.02181163
v 0.00164493 -0.05018025 -0.04979452
v 0.00469223 -0.04628143 -0.05288210
v 0.01796055 -0.04187898 -0.05056482
v 0.01163416 -0.04254694 -0.05282485
v 0.02257634 -0.03606700 -0.05151895
v 0.01774870 -0.04722405 -0.01446688
v 0.02070068 -0.04298334 -0.04624335
v 0.00631188 -0.05553961 -0.01444542
v 0.00166168 -0.05250963 -0.04365367
v 0.00740832 -0.05505140 -0.01857870
v 0.00370523 -0.04975067 -0.04931429
v 0.00258073 -0.04496538 -0.05440418
v 0.00500108 -0.04721866 -0.05178620
v 0.01542709 -0.04451499 -0.04940960
v 0.01980266 -0.03866645 -0.05149601
v 0.01299663 -0.04344443 -0.05182040
v 0.01638252 -0.04857150 -0.01590261
v 0.01551063 -0.04577753 -0.04716645
v 0.00612886 -0.05513728 -0.02326494
v 0.00892491 -0.04822765 -0.04845668
v 0.00887441 -0.05401041 -0.01444331
v 0.01930595 -0.04306097 -0.04799037
v 0.01667255 -0.04570921 -0.04491778
v 0.01806895 -0.04432877 -0.04714570
v 0.00438787 -0.05509672 -0.02354364
v 0.00228380 -0.05236381 -0.04329573
v 0.00239861 -0.05110445 -0.04746117
vn 0.56598448 0.61879169 0.54475537
vn 0.67828174 -0.35710189 0.64219321
vn 0.75232307 -0.09246267 -0.65227345
vn -0.56089688 0.57828275 -0.59243881
vn -0.65383970 0.55190758 0.51758253
vn -0.56437761 -0.76738211 -0.30430679
vn 0.60242316 0.58268516 -0.54549458
vn 0.96597114 -0.00209333 0.25864140
vn -0.68309922 0.02874617 0.72975963
vn -0.11482821 0.80766746 0.57834917
vn 0.78672049 -0.55985049 -0.26007363
vn -0.71841996 -0.06900105 -0.69217889
vn 0.62526516 -0.00739527 0.78037734
vn 0.99242810 -0.12001462 0.02613331
vn -0.53250261 -0.64403769 0.54923258
vn 0.05256724 0.70758127 -0.70467399
vn -0.02659262 0.74339642 0.66832222
vn 0.21980113 -0.36735000 -0.90373748
vn 0.05156684 -0.09836875 -0.99381309
vn 0.85868978 -0.51139603 -0.03355535
vn 0.43227179 -0.58906573 0.68274641
vn 0.35488180 -0.78503618 -0.50771754
vn -0.56985090 -0.37233471 -0.73255499
vn 0.72242498 -0.40361967 -0.56142079
vn 0.23451797 -0.22427466 -0.94588699
vn 0.08518111 0.01481235 -0.99625538
vn -0.66062586 0.00822615 -0.75067023
vn 0.64934233 -0.76047394 -0.00582368
vn 0.63262655 -0.77312678 -0.04537214
vn 0.40376568 -0.91094639 -0.08455740
vn -0.28522764 -0.75276263 -0.59329049
vn 0.23975784 -0.62725906 -0.74098735
vn 0.41568402 -0.59506022 -0.68783001
vn 0.29636285 -0.41840487 -0.85854903
vn 0.57979874 -0.27362658 -0.76743854
vn 0.57473442 -0.63350638 0.51802510
vn 0.56465638 -0.80783672 -0.16900594
vn 0.24277002 -0.73641114 0.63147554
vn -0.23710516 -0.95229854 -0.19211619
vn 0.43549452 -0.89952820 -0.03454763
vn 0.30053770 -0.82405668 -0.48021629
vn 0.21509379 -0.48203157 -0.84934105
vn 0.26753633 -0.70772607 -0.65387164
vn 0.41061408 -0.71828818 -0.56165663
vn 0.31558946 -0.35487387 -0.88003854
vn 0.33663332 -0.56014695 -0.75691043
vn 0.65148730 -0.75722424 0.04664487
vn 0.43122903 -0.84328183 -0.32080724
vn 0.21003643 -0.96733986 -0.14190944
vn 0.35276412 -0.88007457 -0.31784624
vn 0.43050892 -0.68691576 0.58549877
vn 0.47306380 -0.72293563 -0.50356203
vn 0.47863299 -0.86141212 -0.16994004
vn 0.48029505 -0.80793283 -0.34141062
vn -0.01371647 -0.99228485 -0.12321783
vn 0.35713344 -0.90853650 -0.21683437
vn 0.34424057 -0.89135874 -0.29492036
f 6//6 5//5 4//4
f 8//8 7//7 1//1
f 8//8 3//3 7//7
f 10//10 4//4 5//5
f 10//10 1//1 7//7
f 12//12 6//6 4//4
f 13//13 8//8 1//1
f 13//13 2//2 8//8
f 13//13 9//9 2//2
f 14//14 8//8 2//2
f 14//14 3//3 8//8
f 15//15 9//9 5//5
f 15//15 5//5 6//6
f 16//16 10//10 7//7
f 16//16 4//4 10//10
f 17//17 1//1 10//10
f 17//17 13//13 1//1
f 17//17 9//9 13//13
f 17//17 10//10 5//5
f 17//17 5//5 9//9
f 19//19 7//7 3//3
f 19//19 4//4 16//16
f 20//20 11//11 3//3
f 20//20 3//3 14//14
f 20//20 14//14 2//2
f 21//21 2//2 9//9
f 21//21 9//9 15//15
f 23//23 6//6 12//12
f 23//23 19//19 18//18
f 23//23 12//12 19//19
f 24//24 3//3 11//11
f 25//25 19//19 3//3
f 25//25 18//18 19//19
f 26//26 19//19 16//16
f 26//26 16//16 7//7
f 26//26 7//7 19//19
f 27//27 19//19 12//12
f 27//27 12//12 4//4
f 27//27 4//4 19//19
f 29//29 28//28 21//21
f 29//29 20//20 2//2
f 29//29 2//2 28//28
f 31//31 6//6 23//23
f 32//32 31//31 23//23
f 33//33 24//24 11//11
f 34//34 18//18 25//25
f 35//35 25//25 3//3
f 35//35 3//3 24//24
f 36//36 2//2 21//21
f 37//37 11//11 20//20
f 37//37 20//20 29//29
f 37//37 29//29 30//30
f 38//38 21//21 15//15
f 39//39 15//15 6//6
f 40//40 30//30 29//29
f 40//40 29//29 21//21
f 40//40 38//38 30//30
f 41//41 31//31 22//22
f 41//41 22//22 6//6
f 41//41 6//6 31//31
f 42//42 32//32 23//23
f 42//42 23//23 18//18
f 42//42 18//18 32//32
f 43//43 32//32 22//22
f 43//43 22//22 31//31
f 43//43 31//31 32//32
f 45//45 34//34 25//25
f 45//45 24//24 34//34
f 45//45 35//35 24//24
f 45//45 25//25 35//35
f 46//46 34//34 24//24
f 46//46 24//24 33//33
f 46//46 32//32 18//18
f 46//46 18//18 34//34
f 46//46 33//33 44//44
f 46//46 44//44 22//22
f 46//46 22//22 32//32
f 47//47 28//28 2//2
f 47//47 2//2 36//36
f 47//47 36//36 21//21
f 47//47 21//21 28//28
f 48//48 22//22 44//44
f 49//49 38//38 15//15
f 49//49 30//30 38//38
f 49//49 48//48 30//30
f 50//50 6//6 22//22
f 50//50 22//22 48//48
f 51//51 40//40 21//21
f 51//51 21//21 38//38
f 51//51 38//38 40//40
f 52//52 44//44 33//33
f 52//52 33//33 11//11
f 53//53 37//37 30//30
f 53//53 30//30 48//48
f 54//54 11//11 37//37
f 54//54 53//53 48//48
f 54//54 37//37 53//53
f 54//54 52//52 11//11
f 54//54 48//48 44//44
f 54//54 44//44 52//52
f 55//55 49//49 15//15
f 55//55 15//15 39//39
f 55//55 39//39 49//49
f 56//56 49//49 39//39
f 56//56 48//48 49//49
f 56//56 50//50 48//48
f 56//56 39//39 50//50
f 57//57 50//50 39//39
f 57//57 39//39 6//6
f 57//57 6//6 50//50

