# https://github.com/mikedh/trimesh
v 0.04473141 0.00320221 0.02692065
v 0.04569192 -0.01224424 0.02694059
v 0.04404707 0.00299249 -0.04622548
v 0.02578091 0.01013663 -0.05317710
v 0.01541541 -0.02378555 -0.02059908
v 0.04275774 0.00971657 -0.04495553
v 0.04550814 0.00189364 -0.03302292
v 0.02722637 -0.01395902 0.02717069
v 0.04008581 -0.02245122 -0.04842177
v 0.03585951 0.01004464 -0.05188257
v 0.02877935 0.01055729 0.02165826
v 0.04559956 0.00030861 0.02693564
v 0.04406711 0.00832939 0.01357087
v 0.04419931 0.00443921 -0.04354741
v 0.04012893 -0.02474781 -0.00234356
v 0.04554593 -0.01357263 -0.03030158
v 0.02560075 -0.02314521 -0.05324959
v 0.04298149 0.00424862 -0.04776898
v 0.02854453 0.00371083 0.02732640
v 0.01497697 -0.01391957 -0.02180715
v 0.02785076 0.01091096 0.01081281
v 0.04562068 -0.00324391 -0.03971921
v 0.04412169 0.00722423 -0.03695092
v 0.04549105 0.00314773 0.01624841
v 0.04314392 0.00971981 0.02152501
v 0.04532057 -0.01380516 0.02697074
v 0.04283380 -0.02113428 -0.03302736
v 0.03722981 -0.01386823 -0.05157003
v 0.02962388 0.01014939 -0.05316183
v 0.03458499 -0.02301135 -0.05164507
v 0.04181600 0.00965234 -0.04649676
v 0.04282553 0.00683096 -0.04669455
v 0.04413662 -0.00696139 -0.04722858
v 0.02773028 -0.01157906 0.02759090
v 0.01500277 -0.02325828 -0.02780166
v 0.02559633 0.01015197 -0.01999557
v 0.04557629 -0.00067981 -0.03836752
v 0.04409983 0.00822476 0.00570575
v 0.04549627 0.00303237 0.00430518
v 0.04406807 0.00700895 0.02020602
v 0.04547628 -0.01352282 0.02425985
v 0.04141835 -0.02260257 -0.04337327
v 0.04283275 -0.02098648 -0.01990548
v 0.04043985 0.00324188 -0.05044499
v 0.03070730 -0.02048859 -0.05298613
v 0.02825955 -0.02312838 -0.05305962
v 0.03792178 -0.02245681 -0.05061817
v 0.03913226 0.00687504 -0.05068251
v 0.04410300 -0.00193862 -0.04724097
v 0.04554959 -0.00840452 -0.03972867
v 0.01500277 -0.01390459 -0.02780166
v 0.04410856 -0.01861462 -0.02773579
v 0.04273686 -0.02004403 -0.03971541
v 0.04403161 -0.01355374 -0.04344006
v 0.03586820 -0.02165052 -0.05147672
v 0.03078388 0.00211386 -0.05300427
v 0.04174227 -0.01620727 -0.04921816
v 0.03792526 0.00955487 -0.05055578
v 0.03704854 0.00867938 -0.05151457
v 0.04164791 0.00424965 -0.04910787
v 0.04081690 -0.01355533 -0.05024056
v 0.04273130 -0.01877497 -0.04334704
v 0.04412701 -0.01605286 -0.03838281
v 0.04033214 -0.02118645 -0.04923297
vn 0.57461890 0.37731072 0.72625735
vn 0.75063320 -0.07256007 0.65672280
vn 0.93791921 0.14248378 -0.31623714
vn -0.49154274 0.61146759 -0.62007509
vn -0.70827724 -0.69462146 0.12587446
vn 0.64686112 0.73807014 -0.19189362
vn 0.98985290 0.14074382 -0.01955532
vn -0.54729214 -0.49733367 0.67314971
vn 0.58938315 -0.75355467 -0.29117496
vn 0.26003133 0.68872268 -0.67679005
vn -0.49421486 0.77340457 0.39698494
vn 0.72973794 0.09754192 0.67673341
vn 0.90755324 0.41980642 0.01047350
vn 0.97350224 0.19342604 -0.12198264
vn 0.39441005 -0.90875724 0.13638546
vn 0.98580253 -0.16421407 -0.03503007
vn -0.42606997 -0.58861017 -0.68702435
vn 0.78731927 0.18885801 -0.58690801
vn -0.53619964 0.31427407 0.78340395
vn -0.98093891 0.17173345 0.09092014
vn -0.52942755 0.84652798 0.05564927
vn 0.99446910 0.02301328 -0.10247729
vn 0.94402391 0.32777367 -0.03719238
vn 0.98500961 0.17101717 0.02256524
vn 0.52431452 0.77906039 0.34374293
vn 0.53969635 -0.52828944 0.65546787
vn 0.86400825 -0.50221073 -0.03569485
vn 0.29135761 -0.02792904 -0.95620642
vn 0.07713517 0.68538611 -0.72408290
vn 0.21274793 -0.73572995 -0.64299282
vn 0.56248818 0.69841077 -0.44252620
vn 0.82114154 0.27681719 -0.49909800
vn 0.87727263 -0.04391168 -0.47797959
vn -0.39195158 -0.02232239 0.91971499
vn -0.78006060 -0.60454980 -0.16132266
vn -0.67214781 0.74027356 0.01457335
vn 0.99326134 0.09481619 -0.06664677
vn 0.90601655 0.42322264 -0.00407635
vn 0.98897037 0.14809300 -0.00246544
vn 0.95456900 0.29103747 0.06399390
vn 0.96069928 -0.27742236 0.00968142
vn 0.63625532 -0.76017888 -0.13155694
vn 0.86744698 -0.49737014 0.01259705
vn 0.53011208 0.06382846 -0.84552180
vn 0.16692280 -0.06860885 -0.98357999
vn 0.08578214 -0.70590657 -0.70309128
vn 0.40743345 -0.60533356 -0.68379037
vn 0.58221752 0.21665365 -0.78363509
vn 0.86993412 0.02948508 -0.49228574
vn 0.98991354 -0.08631869 -0.11233995
vn -0.97565372 0.15959499 -0.15043023
vn 0.93101757 -0.36468237 -0.01459624
vn 0.93930855 -0.33178394 -0.08728614
vn 0.95843781 -0.19864277 -0.20478770
vn 0.30664118 -0.11297459 -0.94509678
vn 0.17165670 0.00033001 -0.98515677
vn 0.79115576 -0.17880804 -0.58489336
vn 0.57064032 0.51842198 -0.63687383
vn 0.42982539 0.13058835 -0.89341861
vn 0.69021799 0.16872388 -0.70365573
vn 0.53012954 -0.04122381 -0.84691396
vn 0.94122216 -0.28033292 -0.18845236
vn 0.96141969 -0.25556656 -0.10177384
vn 0.76197741 -0.30871673 -0.56928412
f 14//14 3//3 6//6
f 15//15 8//8 5//5
f 17//17 15//15 5//5
f 19//19 1//1 11//11
f 20//20 19//19 11//11
f 20//20 5//5 8//8
f 20//20 8//8 19//19
f 21//21 20//20 11//11
f 21//21 6//6 10//10
f 22//22 12//12 2//2
f 22//22 2//2 16//16
f 23//23 14//14 6//6
f 23//23 7//7 14//14
f 25//25 11//11 1//1
f 25//25 21//21 11//11
f 25//25 6//6 21//21
f 26//26 8//8 15//15
f 26//26 2//2 12//12
f 29//29 17//17 4//4
f 29//29 21//21 10//10
f 29//29 4//4 21//21
f 31//31 10//10 6//6
f 32//32 6//6 3//3
f 32//32 3//3 18//18
f 32//32 31//31 6//6
f 32//32 18//18 31//31
f 34//34 12//12 1//1
f 34//34 1//1 19//19
f 34//34 26//26 12//12
f 34//34 19//19 8//8
f 34//34 8//8 26//26
f 35//35 17//17 5//5
f 35//35 5//5 20//20
f 36//36 21//21 4//4
f 36//36 20//20 21//21
f 37//37 7//7 12//12
f 37//37 12//12 22//22
f 37//37 14//14 7//7
f 37//37 22//22 3//3
f 37//37 3//3 14//14
f 38//38 23//23 6//6
f 38//38 13//13 24//24
f 38//38 25//25 13//13
f 38//38 6//6 25//25
f 39//39 7//7 23//23
f 39//39 38//38 24//24
f 39//39 23//23 38//38
f 39//39 24//24 12//12
f 39//39 12//12 7//7
f 40//40 1//1 12//12
f 40//40 12//12 24//24
f 40//40 25//25 1//1
f 40//40 24//24 13//13
f 40//40 13//13 25//25
f 41//41 16//16 2//2
f 41//41 2//2 26//26
f 42//42 27//27 15//15
f 42//42 30//30 9//9
f 42//42 15//15 30//30
f 43//43 26//26 15//15
f 43//43 15//15 27//27
f 45//45 17//17 29//29
f 46//46 30//30 15//15
f 46//46 15//15 17//17
f 46//46 45//45 30//30
f 46//46 17//17 45//45
f 47//47 9//9 30//30
f 48//48 31//31 18//18
f 49//49 18//18 3//3
f 49//49 3//3 22//22
f 49//49 22//22 33//33
f 49//49 44//44 18//18
f 50//50 33//33 22//22
f 50//50 22//22 16//16
f 51//51 35//35 20//20
f 51//51 4//4 17//17
f 51//51 17//17 35//35
f 51//51 36//36 4//4
f 51//51 20//20 36//36
f 52//52 16//16 41//41
f 52//52 43//43 27//27
f 52//52 41//41 26//26
f 52//52 26//26 43//43
f 53//53 27//27 42//42
f 53//53 52//52 27//27
f 53//53 16//16 52//52
f 54//54 33//33 50//50
f 55//55 45//45 28//28
f 55//55 30//30 45//45
f 55//55 47//47 30//30
f 56//56 45//45 29//29
f 56//56 29//29 10//10
f 56//56 10//10 28//28
f 56//56 28//28 45//45
f 57//57 33//33 54//54
f 58//58 48//48 10//10
f 58//58 10//10 31//31
f 58//58 31//31 48//48
f 59//59 48//48 44//44
f 59//59 10//10 48//48
f 59//59 44//44 28//28
f 59//59 28//28 10//10
f 60//60 48//48 18//18
f 60//60 18//18 44//44
f 60//60 44//44 48//48
f 61//61 49//49 33//33
f 61//61 44//44 49//49
f 61//61 33//33 57//57
f 61//61 28//28 44//44
f 61//61 57//57 47//47
f 61//61 55//55 28//28
f 61//61 47//47 55//55
f 62//62 53//53 42//42
f 62//62 57//57 54//54
f 63//63 54//54 50//50
f 63//63 50//50 16//16
f 63//63 62//62 54//54
f 63//63 16//16 53//53
f 63//63 53//53 62//62
f 64//64 9//9 47//47
f 64//64 47//47 57//57
f 64//64 57//57 62//62
f 64//64 62//62 42//42
f 64//64 42//42 9//9

