# https://github.com/mikedh/trimesh
v -0.02086288 0.01259030 0.00487922
v -0.01775910 0.00057109 0.00444932
v -0.04309968 0.00074043 -0.01273179
v -0.07384650 0.00133632 -0.01219336
v -0.06584363 0.00186837 0.00458699
v -0.07411181 0.00045225 -0.00626986
v -0.03320586 0.01155281 -0.00751170
v -0.03777979 0.01037752 0.00510362
v -0.07393740 0.00045122 -0.01224681
v -0.06939636 0.00420715 -0.00194678
v -0.06056598 0.00446969 -0.01247251
v -0.02009056 0.01315307 -0.00059625
v -0.01775910 0.00057109 -0.00032823
v -0.07345106 0.00325482 -0.00587102
v -0.05454081 0.00773637 0.00439730
v -0.04371929 0.00324593 -0.01251348
v -0.06924376 0.00366497 -0.00048598
v -0.07386161 0.00196777 -0.00851366
v -0.05955057 0.00638708 -0.00606275
v -0.06136815 0.00639157 -0.00196215
v -0.07366972 0.00267897 -0.00636673
v -0.05582792 0.00760873 0.00088851
v -0.05483593 0.00772815 0.00320010
vn 0.41563836 0.63610646 0.65008716
vn 0.63964403 -0.52816573 0.55847692
vn 0.17330377 -0.60859124 -0.77432713
vn -0.61906962 0.46833728 -0.63040701
vn -0.45577320 -0.27352927 0.84702570
vn -0.76819212 -0.58851554 0.25205224
vn 0.17076409 0.74185387 -0.64845390
vn -0.10510279 0.66375455 0.74052907
vn -0.60281881 -0.53946842 -0.58786335
vn -0.38183504 0.89825210 0.21758945
vn -0.13202941 0.59969953 -0.78925833
vn 0.59592883 0.72048648 -0.35463793
vn 0.72657255 -0.54976406 -0.41213082
vn -0.71847335 0.67282588 0.17635583
vn -0.18552118 0.73832478 0.64842764
vn 0.11910825 0.26707923 -0.95628547
vn -0.61639081 0.58607055 0.52591223
vn -0.95537720 0.29203151 -0.04440721
vn -0.20658520 0.96346641 -0.17045538
vn -0.23284403 0.97244608 -0.01150119
vn -0.95820315 0.27973793 0.05994510
vn -0.20351853 0.97904807 0.00671492
vn -0.19772204 0.97949840 0.03858593
f 6//6 2//2 5//5
f 8//8 5//5 2//2
f 8//8 2//2 1//1
f 9//9 2//2 6//6
f 9//9 6//6 4//4
f 11//11 9//9 4//4
f 11//11 3//3 9//9
f 12//12 1//1 2//2
f 12//12 8//8 1//1
f 12//12 7//7 8//8
f 13//13 9//9 3//3
f 13//13 2//2 9//9
f 13//13 12//12 2//2
f 13//13 3//3 7//7
f 13//13 7//7 12//12
f 14//14 6//6 5//5
f 14//14 11//11 4//4
f 15//15 5//5 8//8
f 15//15 8//8 7//7
f 16//16 11//11 7//7
f 16//16 7//7 3//3
f 16//16 3//3 11//11
f 17//17 14//14 5//5
f 17//17 10//10 14//14
f 17//17 15//15 10//10
f 17//17 5//5 15//15
f 18//18 14//14 4//4
f 18//18 4//4 6//6
f 19//19 7//7 11//11
f 19//19 11//11 14//14
f 20//20 14//14 10//10
f 20//20 10//10 15//15
f 20//20 19//19 14//14
f 20//20 7//7 19//19
f 21//21 18//18 6//6
f 21//21 6//6 14//14
f 21//21 14//14 18//18
f 22//22 20//20 15//15
f 22//22 7//7 20//20
f 23//23 22//22 15//15
f 23//23 15//15 7//7
f 23//23 7//7 22//22

