# https://github.com/mikedh/trimesh
v 0.02052927 0.01238207 0.00091073
v 0.04912448 -0.00184715 -0.04094764
v 0.03073352 0.03723987 -0.03771313
v -0.00964584 0.03803520 -0.04705806
v -0.01177597 -0.00180985 -0.04772908
v 0.04209109 0.01961345 -0.04729141
v 0.00534271 0.03988215 -0.02299235
v 0.03352659 0.01033440 -0.00918367
v 0.00493426 -0.00181769 0.00086615
v 0.02175127 0.03924430 -0.04757248
v 0.03474848 -0.00193401 -0.04808744
v 0.02024257 0.03885112 -0.02300025
v 0.04290510 0.01946388 -0.03641641
v 0.00493426 0.01012619 0.00086615
v 0.02046130 -0.00181769 0.00086615
v 0.02763257 0.03757685 -0.04514590
v 0.00142104 0.04099705 -0.04189219
v -0.01770726 0.02203157 -0.04776602
v 0.04631893 -0.00197977 -0.04674204
v 0.01195366 0.03990811 -0.02313172
v 0.01326343 0.04123614 -0.03994410
v 0.03243597 0.03423256 -0.03550476
v 0.04306857 0.01977085 -0.03956868
v 0.04930342 0.00326368 -0.03712323
v -0.01582884 0.03648535 -0.03387671
v 0.03440415 -0.00150619 -0.00869520
v 0.02991837 0.03759957 -0.04031968
v 0.03346746 0.02952077 -0.04729411
v 0.00416238 0.03993351 -0.04697304
v -0.01178717 -0.00181769 -0.02302160
v 0.03399001 -0.00190239 -0.04811289
v 0.04912877 -0.00072626 -0.04467717
v 0.04915872 -0.00191403 -0.04476060
v 0.01307199 0.04098342 -0.03617274
v 0.00381549 0.04104225 -0.03752614
v 0.03094917 0.03686919 -0.03706736
v 0.04888057 0.00357466 -0.04325326
v -0.01144991 0.03788256 -0.02784218
v -0.01481638 0.03968524 -0.04277257
v 0.04876598 -0.00145254 -0.03877247
v 0.01986573 0.03983591 -0.04409775
v 0.02022094 0.03973900 -0.03630989
v 0.01789334 0.03988843 -0.04737833
v -0.01595237 0.02270618 -0.02316999
v 0.04802007 -0.00073886 -0.04566136
v 0.00620530 0.04102410 -0.03633410
v 0.03110852 0.03650975 -0.03676082
v 0.04784948 0.00457844 -0.04476274
v 0.00174039 0.03874865 -0.02299372
v -0.01374278 0.03889664 -0.04597642
v -0.01644569 0.03486004 -0.03620784
v -0.01402950 0.04040686 -0.03793111
v -0.00448466 0.03987365 -0.04593843
v 0.01417282 0.04102939 -0.04431775
v -0.01749780 0.02141534 -0.03317070
v 0.04807471 -0.00192755 -0.04572299
v -0.00010325 0.03749092 -0.02269982
v -0.01664517 0.02964451 -0.04714893
v -0.01527158 0.03967484 -0.04162706
v -0.01683332 0.03055340 -0.03384988
v -0.00904294 0.03865073 -0.02785828
v 0.00533515 0.04090373 -0.04414924
v -0.01378136 0.03607841 -0.04655775
v -0.01329478 0.03988023 -0.03551732
vn 0.28040083 0.34604294 0.89533773
vn 0.70366768 -0.70761139 0.06432665
vn 0.58522672 0.80988750 0.03989879
vn -0.08487099 0.33933995 -0.93682726
vn -0.49990454 -0.63573628 -0.58816225
vn 0.62036540 0.33568635 -0.70884515
vn -0.08340958 0.87277143 0.48094996
vn 0.73390590 0.30315462 0.60784818
vn -0.33960255 -0.62551031 0.70242932
vn 0.19515342 0.67014976 -0.71611064
vn 0.04588682 -0.68963422 -0.72270260
vn 0.34392017 0.82261825 0.45278928
vn 0.85549980 0.45024502 0.25573328
vn -0.37028491 0.24725623 0.89540686
vn 0.22666811 -0.64697346 0.72804321
vn 0.49794469 0.74624314 -0.44178304
vn -0.04729173 0.99591175 -0.07696283
vn -0.74000361 -0.03053626 -0.67190937
vn 0.26012391 -0.65300263 -0.71128273
vn 0.05242711 0.89665337 0.43961818
vn 0.08786149 0.99605695 0.01228469
vn 0.75158888 0.56885361 0.33394569
vn 0.88061742 0.47349667 -0.01771650
vn 0.96893634 0.08850581 0.23093093
vn -0.86641135 0.41927066 0.27118903
vn 0.60183523 -0.61249443 0.51248896
vn 0.53411452 0.83480039 -0.13352896
vn 0.44988726 0.39949233 -0.79875361
vn -0.03597992 0.68452850 -0.72809765
vn -0.66258990 -0.71138604 0.23431715
vn 0.00680931 -0.38147003 -0.92435613
vn 0.89838813 0.08544948 -0.43080989
vn 0.72151163 -0.60549274 -0.33585639
vn 0.07858488 0.99399340 0.07616784
vn -0.02861717 0.99871497 0.04182659
vn 0.69876189 0.67690588 0.23136605
vn 0.94877416 0.22220202 -0.22461936
vn -0.52315842 0.66642341 0.53121098
vn -0.55612669 0.77373355 -0.30341309
vn 0.79590209 -0.53599474 0.28151289
vn 0.21441154 0.97639600 -0.02604887
vn 0.20941479 0.97692863 0.04190345
vn 0.06137121 0.70134614 -0.71017404
vn -0.86822252 0.12517624 0.48012558
vn 0.58815074 0.08938017 -0.80379717
vn -0.01356560 0.99774164 0.06578453
vn 0.68901498 0.61869505 0.37745833
vn 0.80829229 0.20898677 -0.55044355
vn -0.25106792 0.70005180 0.66850010
vn -0.45312245 0.62042139 -0.64012292
vn -0.98165243 0.18661094 0.03917726
vn -0.45755244 0.88209695 0.11203006
vn -0.07754804 0.90873264 -0.41011132
vn 0.07377630 0.98363260 -0.16438965
vn -0.99443970 -0.07368536 0.07523402
vn 0.46430456 -0.62834324 -0.62418430
vn -0.30383032 0.60026150 0.73984678
vn -0.71175874 0.17878960 -0.67928916
vn -0.74973611 0.65174054 -0.11458639
vn -0.98719196 0.11932386 0.10589548
vn -0.22932890 0.89045967 0.39305194
vn -0.02765779 0.98028887 -0.19562407
vn -0.22446065 0.19112992 -0.95555574
vn -0.37244987 0.87633422 0.30548229
f 11//11 10//10 6//6
f 12//12 1//1 8//8
f 14//14 9//9 1//1
f 14//14 1//1 7//7
f 15//15 1//1 9//9
f 18//18 4//4 10//10
f 19//19 11//11 6//6
f 19//19 15//15 9//9
f 19//19 5//5 11//11
f 20//20 7//7 1//1
f 20//20 1//1 12//12
f 22//22 12//12 8//8
f 22//22 8//8 13//13
f 23//23 6//6 3//3
f 24//24 13//13 8//8
f 24//24 23//23 13//13
f 26//26 8//8 1//1
f 26//26 1//1 15//15
f 26//26 24//24 8//8
f 26//26 15//15 2//2
f 27//27 16//16 10//10
f 27//27 3//3 6//6
f 27//27 6//6 16//16
f 28//28 16//16 6//6
f 28//28 6//6 10//10
f 28//28 10//10 16//16
f 30//30 18//18 5//5
f 30//30 19//19 9//9
f 30//30 5//5 19//19
f 31//31 11//11 5//5
f 31//31 5//5 18//18
f 31//31 18//18 10//10
f 31//31 10//10 11//11
f 33//33 2//2 15//15
f 33//33 15//15 19//19
f 33//33 32//32 24//24
f 33//33 24//24 2//2
f 34//34 20//20 12//12
f 34//34 12//12 21//21
f 35//35 21//21 17//17
f 36//36 3//3 12//12
f 36//36 22//22 13//13
f 36//36 23//23 3//3
f 36//36 13//13 23//23
f 37//37 6//6 23//23
f 37//37 23//23 24//24
f 37//37 24//24 32//32
f 40//40 26//26 2//2
f 40//40 2//2 24//24
f 40//40 24//24 26//26
f 41//41 27//27 10//10
f 42//42 21//21 12//12
f 42//42 12//12 3//3
f 42//42 3//3 27//27
f 42//42 41//41 21//21
f 42//42 27//27 41//41
f 43//43 10//10 4//4
f 43//43 4//4 29//29
f 44//44 38//38 25//25
f 44//44 14//14 38//38
f 44//44 30//30 9//9
f 44//44 9//9 14//14
f 45//45 19//19 6//6
f 45//45 6//6 32//32
f 46//46 7//7 20//20
f 46//46 20//20 34//34
f 46//46 35//35 7//7
f 46//46 34//34 21//21
f 46//46 21//21 35//35
f 47//47 36//36 12//12
f 47//47 12//12 22//22
f 47//47 22//22 36//36
f 48//48 37//37 32//32
f 48//48 32//32 6//6
f 48//48 6//6 37//37
f 49//49 14//14 7//7
f 49//49 7//7 38//38
f 50//50 29//29 4//4
f 52//52 25//25 38//38
f 52//52 7//7 35//35
f 52//52 35//35 17//17
f 52//52 17//17 39//39
f 53//53 50//50 39//39
f 53//53 29//29 50//50
f 54//54 41//41 10//10
f 54//54 10//10 43//43
f 54//54 21//21 41//41
f 54//54 17//17 21//21
f 54//54 43//43 29//29
f 55//55 18//18 30//30
f 55//55 30//30 44//44
f 56//56 33//33 19//19
f 56//56 19//19 45//45
f 56//56 45//45 32//32
f 56//56 32//32 33//33
f 57//57 49//49 38//38
f 57//57 38//38 14//14
f 57//57 14//14 49//49
f 58//58 4//4 18//18
f 58//58 39//39 50//50
f 58//58 18//18 51//51
f 59//59 51//51 25//25
f 59//59 58//58 51//51
f 59//59 39//39 58//58
f 59//59 52//52 39//39
f 59//59 25//25 52//52
f 60//60 44//44 25//25
f 60//60 25//25 51//51
f 60//60 55//55 44//44
f 60//60 51//51 18//18
f 60//60 18//18 55//55
f 61//61 38//38 7//7
f 61//61 7//7 52//52
f 62//62 53//53 39//39
f 62//62 39//39 17//17
f 62//62 17//17 54//54
f 62//62 54//54 29//29
f 62//62 29//29 53//53
f 63//63 58//58 50//50
f 63//63 50//50 4//4
f 63//63 4//4 58//58
f 64//64 61//61 52//52
f 64//64 52//52 38//38
f 64//64 38//38 61//61

