# https://github.com/mikedh/trimesh
v 0.04094205 -0.02288559 -0.01220786
v 0.04118825 -0.02730546 -0.01197233
v 0.04915872 -0.00191403 -0.04476060
v 0.02002398 -0.02976657 -0.05465831
v 0.02024127 -0.02655361 -0.01229824
v 0.03954993 -0.03178129 -0.04598080
v 0.04911548 -0.00173837 -0.03893493
v 0.02214014 -0.02371786 -0.01158897
v 0.04942298 -0.00733718 -0.04006563
v 0.04115060 -0.02794048 -0.04801405
v 0.02002165 -0.04176842 -0.01829049
v 0.02733831 -0.03807836 -0.01225825
v 0.02046130 -0.00181769 -0.02660476
v 0.02015341 -0.03538441 -0.05465685
v 0.04392098 -0.00556648 -0.04790662
v 0.04906573 -0.00549855 -0.04468729
v 0.04179533 -0.02786422 -0.04198924
v 0.02303648 -0.03339265 -0.01254031
v 0.03184522 -0.03647281 -0.01216488
v 0.02762762 -0.01137279 -0.01824405
v 0.02033738 -0.00177196 -0.04733964
v 0.02046130 -0.01137279 -0.01824405
v 0.03237314 -0.03528828 -0.04813884
v 0.02002885 -0.04173189 -0.04630376
v 0.04305293 -0.01822491 -0.04813167
v 0.03962167 -0.03180620 -0.04498443
v 0.04048802 -0.02975285 -0.04678509
v 0.02056335 -0.03338626 -0.01373539
v 0.04105911 -0.00175220 -0.02706105
v 0.04807471 -0.00192755 -0.04572299
v 0.03399001 -0.00190239 -0.04811289
v 0.04009752 -0.03055383 -0.04670521
v 0.03905303 -0.03257362 -0.04539701
v 0.04631893 -0.00197977 -0.04674204
v 0.04829496 -0.00507057 -0.04554255
v 0.03713392 -0.00194254 -0.04799868
v 0.03348759 -0.03548742 -0.04304046
v 0.03853909 -0.03285453 -0.04491643
vn 0.52639347 0.25430513 0.81131918
vn 0.66805420 -0.30464572 0.67889217
vn 0.71211713 0.61571833 -0.33731311
vn -0.60389778 0.04919074 -0.79554242
vn -0.76860940 -0.01812993 0.63946141
vn 0.72086207 -0.59120018 -0.36171843
vn 0.70901097 0.68743579 0.15727519
vn -0.29200409 0.22545896 0.92946322
vn 0.98849616 -0.14698402 0.03565150
vn 0.71501086 -0.32852102 -0.61711701
vn -0.53443223 -0.80314885 0.26331372
vn 0.03357204 -0.65062576 0.75865607
vn -0.61789452 0.71455567 0.32804964
vn -0.46544647 -0.40429610 -0.78733998
vn 0.28144387 0.09028025 -0.95532132
vn 0.90373415 -0.12627449 -0.40904686
vn 0.91146909 -0.41073842 -0.02276074
vn -0.31956088 -0.21093771 0.92378901
vn 0.39059572 -0.63328280 0.66812265
vn 0.03519223 0.57178124 0.81965098
vn -0.60141408 0.64249356 -0.47487170
vn -0.66831493 0.42345738 0.61158728
vn 0.43904327 -0.73646630 -0.51464395
vn -0.48453393 -0.83782563 -0.25154539
vn 0.50703275 -0.08093923 -0.85811808
vn 0.84658859 -0.53188765 -0.01957766
vn 0.89330945 -0.43155892 -0.12551944
vn -0.72142612 -0.23060978 0.65296514
vn 0.35188572 0.80619344 0.47563492
vn 0.42365562 0.67315966 -0.60611219
vn 0.00846859 0.76298359 -0.64636238
vn 0.72976931 -0.53833095 -0.42146951
vn 0.62783181 -0.75189370 -0.20120406
vn 0.28437337 0.65759954 -0.69763502
vn 0.62579407 -0.05406746 -0.77811213
vn 0.06541987 0.73327119 -0.67678180
vn 0.44022230 -0.89716694 -0.03599724
vn 0.46408137 -0.88561359 -0.01780590
f 7//7 1//1 2//2
f 8//8 2//2 1//1
f 9//9 7//7 2//2
f 9//9 3//3 7//7
f 15//15 14//14 4//4
f 16//16 3//3 9//9
f 16//16 9//9 10//10
f 17//17 10//10 9//9
f 17//17 9//9 2//2
f 18//18 12//12 8//8
f 18//18 8//8 5//5
f 19//19 2//2 8//8
f 19//19 8//8 12//12
f 19//19 12//12 11//11
f 20//20 8//8 1//1
f 21//21 4//4 11//11
f 21//21 11//11 5//5
f 21//21 5//5 13//13
f 22//22 13//13 5//5
f 22//22 5//5 8//8
f 22//22 20//20 13//13
f 22//22 8//8 20//20
f 23//23 14//14 10//10
f 24//24 11//11 4//4
f 24//24 4//4 14//14
f 24//24 14//14 23//23
f 24//24 19//19 11//11
f 25//25 10//10 14//14
f 25//25 14//14 15//15
f 25//25 16//16 10//10
f 26//26 17//17 2//2
f 27//27 10//10 17//17
f 27//27 17//17 26//26
f 28//28 18//18 5//5
f 28//28 5//5 11//11
f 28//28 11//11 12//12
f 28//28 12//12 18//18
f 29//29 20//20 1//1
f 29//29 1//1 7//7
f 29//29 13//13 20//20
f 29//29 21//21 13//13
f 29//29 7//7 21//21
f 30//30 21//21 7//7
f 30//30 7//7 3//3
f 31//31 4//4 21//21
f 31//31 21//21 30//30
f 32//32 23//23 10//10
f 32//32 6//6 23//23
f 32//32 10//10 27//27
f 32//32 27//27 26//26
f 32//32 26//26 6//6
f 33//33 24//24 23//23
f 33//33 23//23 6//6
f 33//33 6//6 26//26
f 33//33 26//26 2//2
f 33//33 2//2 19//19
f 34//34 25//25 15//15
f 34//34 31//31 30//30
f 35//35 30//30 3//3
f 35//35 3//3 16//16
f 35//35 16//16 25//25
f 35//35 34//34 30//30
f 35//35 25//25 34//34
f 36//36 15//15 4//4
f 36//36 4//4 31//31
f 36//36 34//34 15//15
f 36//36 31//31 34//34
f 37//37 19//19 24//24
f 37//37 24//24 33//33
f 38//38 37//37 33//33
f 38//38 33//33 19//19
f 38//38 19//19 37//37

