# https://github.com/mikedh/trimesh
v -0.01159389 0.03496585 0.05536719
v -0.01155262 -0.04550618 0.04571792
v -0.01180618 0.02206170 -0.04783559
v -0.02511300 0.02111414 -0.04815724
v -0.04248744 -0.00468560 0.04098059
v -0.01164359 -0.03710720 -0.04887285
v -0.01175384 0.03957761 -0.03382274
v -0.02494646 -0.01663020 0.05595711
v -0.01175108 -0.02806728 -0.04974041
v -0.04266319 -0.00774413 -0.03873731
v -0.01127021 -0.04409375 0.00956679
v -0.01426720 0.02202994 -0.04801108
v -0.03436361 0.01944598 0.03887979
v -0.01147617 0.03892940 -0.03194183
v -0.03239058 -0.02567295 0.04459784
v -0.01150497 -0.02636028 0.05548794
v -0.02846477 0.02100187 0.05486375
v -0.01154469 -0.03619456 -0.04922916
v -0.02275210 -0.03413129 -0.04630635
v -0.01433702 0.03762176 0.04196796
v -0.04307896 0.00860865 -0.04300538
v -0.01141205 0.03764330 0.04466012
v -0.03240538 -0.01288671 0.05369040
v -0.04230412 -0.01496229 0.02900265
v -0.01397646 -0.04176875 0.04725684
v -0.04194563 0.00883555 0.03477798
v -0.01141125 -0.03904258 -0.04067032
v -0.01622228 -0.03634879 -0.04829377
v -0.01395839 -0.04521492 0.04476991
v -0.02432409 0.03004824 0.00444216
v -0.02129520 0.03052839 0.05348832
v -0.03265212 0.01808873 -0.04599778
v -0.03208709 -0.01820086 -0.04813024
v -0.04176691 -0.01304170 0.03900250
v -0.02951007 0.01980721 0.05432287
v -0.02577757 -0.01619654 0.05571973
v -0.03203918 -0.02465267 -0.04415621
v -0.01186777 -0.04444025 0.04626490
v -0.02455169 -0.03325138 0.04703391
v -0.04250557 0.00245831 0.03895035
v -0.04257534 0.00990053 0.00888702
v -0.01156078 -0.03770012 -0.04661707
v -0.01248773 -0.03866667 -0.04060648
v -0.01293661 -0.04358302 0.01319481
v -0.02361358 -0.03793060 0.03875354
v -0.01361304 -0.04514113 0.04502927
v -0.01324823 0.03906297 -0.03403099
v -0.02492422 0.02957312 0.04312446
v -0.01716284 0.03277143 0.05413251
v -0.03313197 0.01930427 0.04438260
v -0.04270737 0.00744190 -0.04510214
v -0.02900585 -0.02531590 -0.04773208
v -0.02491149 -0.01746297 -0.04927670
v -0.04189207 -0.00834802 0.04154021
v -0.03347514 -0.02579429 0.04216614
v -0.03228887 -0.00791606 0.05342635
v -0.03112560 -0.02442360 -0.04701041
v -0.01470185 -0.04139500 0.04718854
v -0.04244818 0.01005686 0.00733594
v -0.01391871 -0.03731849 -0.04642849
v -0.02364207 -0.03662548 0.00206429
v -0.02380221 -0.03511270 0.04573688
v -0.02395539 0.03043024 0.03918454
v -0.03382232 0.01948811 0.04124892
vn 0.45668407 0.60269990 0.65436419
vn 0.50225993 -0.73650526 0.45309487
vn 0.65593918 0.26674149 -0.70611102
vn -0.23105608 0.42824233 -0.87362554
vn -0.93837457 0.00676336 0.34555379
vn 0.47155421 -0.66542662 -0.57865710
vn 0.46630239 0.81748724 -0.33804836
vn -0.23465372 -0.20795837 0.94957409
vn 0.58080770 -0.01880995 -0.81382344
vn -0.93117855 -0.27035103 -0.24457479
vn 0.53440459 -0.84273606 -0.06486653
vn 0.01964747 0.35516308 -0.93459786
vn -0.78685865 0.61030827 0.09152748
vn 0.97868409 0.20421571 -0.02175769
vn -0.72669899 -0.48850078 0.48298610
vn 0.58663321 -0.24731481 0.77116591
vn -0.53013992 0.35503405 0.77000162
vn 0.61486363 -0.19679444 -0.76368492
vn -0.53373648 -0.72108782 -0.44176660
vn -0.34207018 0.93565844 0.08678295
vn -0.90788396 0.37801067 -0.18125851
vn 0.61945884 0.77096735 0.14791921
vn -0.60031399 -0.17993804 0.77925953
vn -0.93513667 -0.35361032 0.02188943
vn -0.26283951 -0.48361265 0.83488574
vn -0.92680891 0.34670472 0.14429510
vn 0.57490541 -0.81057530 -0.11158607
vn -0.30714305 -0.68666067 -0.65890840
vn -0.41785200 -0.85189832 0.31570391
vn -0.69031250 0.72344327 -0.00992413
vn -0.55409850 0.64068971 0.53149934
vn -0.57297892 0.57561098 -0.58340994
vn -0.45679257 -0.13465159 -0.87932332
vn -0.91331038 -0.30975285 0.26441882
vn -0.73536135 0.29393401 0.61061156
vn -0.37701797 -0.21967729 0.89977738
vn -0.79877888 -0.57524349 -0.17620225
vn -0.11776723 -0.47652557 0.87123720
vn -0.55876312 -0.52416690 0.64267631
vn -0.95268155 0.13565547 0.27202107
vn -0.93379729 0.35767845 0.00942099
vn 0.60072277 -0.77323812 -0.20306396
vn -0.34369933 -0.93341533 -0.10298827
vn -0.44347764 -0.89415682 -0.06173463
vn -0.69286079 -0.71594245 0.08585071
vn -0.36891621 -0.60650783 0.70430752
vn -0.41140725 0.83742680 -0.35980610
vn -0.68760122 0.71872816 0.10312319
vn -0.43443448 0.68471759 0.58517391
vn -0.80522282 0.54109613 0.24255141
vn -0.73364662 0.14023668 -0.66490324
vn -0.32527882 -0.28421211 -0.90189643
vn -0.09954047 -0.02057751 -0.99482072
vn -0.89180635 -0.14792583 0.42755044
vn -0.79439962 -0.56751964 0.21645024
vn -0.75464703 0.05334226 0.65395907
vn -0.65963975 -0.42741865 -0.61821411
vn -0.37607565 -0.49108301 0.78575096
vn -0.77567364 0.63109070 -0.00741181
vn -0.21560690 -0.95349764 -0.21060843
vn -0.65536960 -0.75429669 -0.03907922
vn -0.65724820 -0.63999523 0.39803381
vn -0.63170373 0.77517120 0.00774694
vn -0.79540458 0.57516530 0.19109270
f 12//12 7//7 3//3
f 12//12 4//4 7//7
f 12//12 9//9 4//4
f 12//12 3//3 9//9
f 14//14 3//3 7//7
f 16//16 1//1 8//8
f 16//16 2//2 11//11
f 17//17 8//8 1//1
f 18//18 9//9 3//3
f 18//18 3//3 14//14
f 22//22 14//14 7//7
f 22//22 11//11 14//14
f 22//22 16//16 11//11
f 22//22 1//1 16//16
f 22//22 20//20 1//1
f 22//22 7//7 20//20
f 24//24 21//21 10//10
f 24//24 5//5 21//21
f 25//25 16//16 8//8
f 27//27 18//18 14//14
f 27//27 14//14 11//11
f 28//28 18//18 6//6
f 29//29 11//11 2//2
f 31//31 17//17 1//1
f 34//34 15//15 23//23
f 34//34 5//5 24//24
f 35//35 23//23 17//17
f 36//36 8//8 17//17
f 36//36 17//17 23//23
f 37//37 24//24 10//10
f 38//38 25//25 2//2
f 38//38 2//2 16//16
f 38//38 16//16 25//25
f 39//39 23//23 15//15
f 39//39 36//36 23//23
f 39//39 8//8 36//36
f 40//40 21//21 5//5
f 40//40 35//35 26//26
f 40//40 5//5 35//35
f 41//41 26//26 13//13
f 41//41 40//40 26//26
f 41//41 21//21 40//40
f 42//42 6//6 18//18
f 42//42 18//18 27//27
f 43//43 27//27 11//11
f 43//43 11//11 19//19
f 43//43 28//28 27//27
f 43//43 19//19 28//28
f 44//44 29//29 19//19
f 44//44 19//19 11//11
f 44//44 11//11 29//29
f 46//46 29//29 2//2
f 47//47 20//20 7//7
f 47//47 21//21 30//30
f 47//47 32//32 21//21
f 47//47 7//7 4//4
f 47//47 4//4 32//32
f 48//48 30//30 13//13
f 48//48 31//31 20//20
f 49//49 31//31 1//1
f 49//49 1//1 20//20
f 49//49 20//20 31//31
f 50//50 17//17 31//31
f 50//50 35//35 17//17
f 50//50 26//26 35//35
f 50//50 31//31 48//48
f 51//51 10//10 21//21
f 51//51 21//21 32//32
f 51//51 32//32 4//4
f 51//51 4//4 33//33
f 52//52 28//28 19//19
f 52//52 33//33 18//18
f 52//52 18//18 28//28
f 53//53 33//33 4//4
f 53//53 4//4 9//9
f 53//53 9//9 18//18
f 53//53 18//18 33//33
f 54//54 34//34 23//23
f 54//54 23//23 5//5
f 54//54 5//5 34//34
f 55//55 34//34 24//24
f 55//55 15//15 34//34
f 55//55 24//24 45//45
f 56//56 35//35 5//5
f 56//56 5//5 23//23
f 56//56 23//23 35//35
f 57//57 37//37 10//10
f 57//57 33//33 52//52
f 57//57 52//52 19//19
f 57//57 19//19 37//37
f 57//57 51//51 33//33
f 57//57 10//10 51//51
f 58//58 39//39 29//29
f 58//58 25//25 8//8
f 58//58 8//8 39//39
f 58//58 29//29 46//46
f 58//58 46//46 2//2
f 58//58 2//2 25//25
f 59//59 41//41 13//13
f 59//59 21//21 41//41
f 59//59 30//30 21//21
f 59//59 13//13 30//30
f 60//60 28//28 6//6
f 60//60 6//6 42//42
f 60//60 42//42 27//27
f 60//60 27//27 28//28
f 61//61 45//45 24//24
f 61//61 24//24 37//37
f 61//61 37//37 19//19
f 61//61 19//19 29//29
f 61//61 29//29 45//45
f 62//62 45//45 29//29
f 62//62 29//29 39//39
f 62//62 55//55 45//45
f 62//62 39//39 15//15
f 62//62 15//15 55//55
f 63//63 47//47 30//30
f 63//63 30//30 48//48
f 63//63 48//48 20//20
f 63//63 20//20 47//47
f 64//64 13//13 26//26
f 64//64 26//26 50//50
f 64//64 50//50 48//48
f 64//64 48//48 13//13

