# https://github.com/mikedh/trimesh
v 0.04406065 -0.02329598 0.05620707
v 0.04460494 -0.02273063 0.05553920
v 0.02046130 -0.02331666 0.03072584
v 0.02649187 -0.03237548 -0.02012624
v 0.03937806 -0.03228154 -0.00828796
v 0.01999155 -0.04442260 0.00083709
v 0.03359277 -0.02345763 0.05635119
v 0.03939332 -0.03319363 0.04122454
v 0.04321755 -0.02177862 -0.00371186
v 0.02018598 -0.03148381 -0.01751864
v 0.01993802 -0.04431396 -0.01456354
v 0.02046130 -0.02212228 0.00086615
v 0.02753503 -0.03735506 0.04502718
v 0.04163685 -0.02995587 0.04057235
v 0.04168885 -0.02945557 0.05063443
v 0.04094205 -0.02288559 -0.01220786
v 0.02713226 -0.03754432 -0.01803995
v 0.03924040 -0.03358660 0.01287836
v 0.02002165 -0.04176842 -0.01829049
v 0.01979118 -0.03286453 0.03072171
v 0.03122855 -0.03761959 0.04131227
v 0.03346775 -0.03414618 0.05566459
v 0.04185686 -0.02723600 -0.00956130
v 0.04049915 -0.02846888 0.05736402
v 0.04407159 -0.02436424 0.05383965
v 0.02214014 -0.02371786 -0.01158897
v 0.04118825 -0.02730546 -0.01197233
v 0.03266874 -0.03751088 0.03657629
v 0.03492885 -0.03627894 0.03057155
v 0.03739730 -0.03371685 -0.00823974
v 0.03354813 -0.03357246 0.05592322
v 0.03444681 -0.03402951 0.05567130
v 0.04373923 -0.02195642 0.00086989
v 0.04185659 -0.02290733 -0.01036307
v 0.03837573 -0.03387792 0.04213231
v 0.03483348 -0.03133601 0.05688510
v 0.03876017 -0.03031877 0.05716332
v 0.04166749 -0.02669188 -0.01074391
v 0.04095633 -0.03031451 0.05068262
v 0.03409452 -0.03614636 0.04484903
v 0.03597455 -0.02599159 0.05687491
v 0.03975748 -0.03150284 0.04948669
v 0.03498633 -0.02932417 0.05685371
vn 0.58419614 0.13816379 0.79976599
vn 0.76609976 0.51095573 0.38989151
vn -0.73107920 0.65491248 0.19134481
vn 0.09748631 0.16832600 -0.98089896
vn 0.74009666 -0.64039252 -0.20531524
vn -0.49342212 -0.86951915 0.02170390
vn -0.45387292 0.60128293 0.65761554
vn 0.70351751 -0.70977082 0.03589564
vn 0.71711699 0.68284899 -0.13950084
vn -0.75108579 0.30474555 -0.58566226
vn -0.43731759 -0.85969441 -0.26396752
vn -0.68521763 0.72696390 -0.04472460
vn -0.54903803 -0.71089654 0.43952628
vn 0.88092391 -0.47325792 0.00005425
vn 0.82832785 -0.54884694 0.11242782
vn 0.47905680 0.62792477 -0.61336373
vn 0.48847316 -0.55308086 -0.67490409
vn 0.72890981 -0.68436733 -0.01821652
vn -0.49208057 -0.51845824 -0.69932665
vn -0.94556207 -0.21754097 0.24205021
vn 0.22268509 -0.96571559 0.13343447
vn -0.37675390 -0.65402780 0.65597572
vn 0.94475690 -0.29127821 -0.15030439
vn 0.48239964 -0.31796514 0.81620387
vn 0.90178406 -0.42041231 0.10019485
vn -0.49132003 0.77379002 -0.39981700
vn 0.77170087 -0.25399984 -0.58306247
vn 0.42053990 -0.90597363 0.04855887
vn 0.51629037 -0.85640172 0.00451067
vn 0.56218081 -0.81639143 -0.13212783
vn -0.49446344 -0.24751606 0.83321168
vn 0.27850770 -0.77738547 0.56400824
vn 0.87329974 0.48682020 -0.01880601
vn 0.84912162 0.42650545 -0.31158557
vn 0.56460939 -0.82084285 0.08621624
vn -0.23952491 -0.17649538 0.95471315
vn 0.37518957 -0.52619011 0.76312303
vn 0.95744585 -0.09786429 -0.27151432
vn 0.69368916 -0.70208525 0.16084669
vn 0.41012083 -0.90175399 0.13653076
vn -0.07318480 0.11553956 0.99060315
vn 0.59906967 -0.78589172 0.15326360
vn -0.15874537 0.02878700 0.98689980
f 7//7 1//1 2//2
f 12//12 7//7 2//2
f 12//12 3//3 7//7
f 12//12 2//2 9//9
f 15//15 8//8 14//14
f 16//16 12//12 9//9
f 17//17 5//5 11//11
f 18//18 14//14 8//8
f 19//19 11//11 10//10
f 19//19 10//10 4//4
f 19//19 17//17 11//11
f 19//19 4//4 17//17
f 20//20 11//11 6//6
f 20//20 10//10 11//11
f 20//20 12//12 10//10
f 20//20 3//3 12//12
f 20//20 6//6 13//13
f 20//20 13//13 7//7
f 20//20 7//7 3//3
f 21//21 13//13 6//6
f 23//23 18//18 5//5
f 23//23 14//14 18//18
f 24//24 1//1 7//7
f 25//25 15//15 14//14
f 25//25 24//24 15//15
f 25//25 2//2 1//1
f 25//25 1//1 24//24
f 25//25 14//14 23//23
f 26//26 16//16 4//4
f 26//26 4//4 10//10
f 26//26 10//10 12//12
f 26//26 12//12 16//16
f 27//27 17//17 4//4
f 27//27 4//4 16//16
f 27//27 23//23 5//5
f 27//27 5//5 17//17
f 28//28 21//21 6//6
f 29//29 6//6 11//11
f 29//29 11//11 18//18
f 29//29 28//28 6//6
f 30//30 18//18 11//11
f 30//30 11//11 5//5
f 30//30 5//5 18//18
f 31//31 7//7 13//13
f 31//31 13//13 22//22
f 32//32 22//22 13//13
f 32//32 13//13 21//21
f 33//33 23//23 9//9
f 33//33 9//9 2//2
f 33//33 25//25 23//23
f 33//33 2//2 25//25
f 34//34 16//16 9//9
f 34//34 27//27 16//16
f 35//35 29//29 18//18
f 35//35 18//18 8//8
f 35//35 28//28 29//29
f 36//36 7//7 31//31
f 37//37 24//24 36//36
f 37//37 36//36 31//31
f 37//37 31//31 22//22
f 37//37 22//22 32//32
f 38//38 34//34 9//9
f 38//38 9//9 23//23
f 38//38 23//23 27//27
f 38//38 27//27 34//34
f 39//39 8//8 15//15
f 39//39 37//37 32//32
f 39//39 15//15 24//24
f 39//39 24//24 37//37
f 40//40 35//35 32//32
f 40//40 32//32 21//21
f 40//40 21//21 28//28
f 40//40 28//28 35//35
f 41//41 36//36 24//24
f 41//41 24//24 7//7
f 42//42 39//39 32//32
f 42//42 32//32 35//35
f 42//42 35//35 8//8
f 42//42 8//8 39//39
f 43//43 41//41 7//7
f 43//43 7//7 36//36
f 43//43 36//36 41//41

