# https://github.com/mikedh/trimesh
v -0.04258371 -0.00216645 0.04024584
v -0.04209734 -0.01451867 0.03639385
v -0.04216242 0.00573702 -0.04478717
v -0.04314139 0.00768917 -0.04488809
v -0.07390112 -0.00674876 0.01596773
v -0.04241467 0.00880221 0.03400932
v -0.05416846 -0.00793822 0.03715962
v -0.06060655 -0.00752358 -0.03345320
v -0.04252928 0.00882756 -0.03586904
v -0.04210882 -0.00968764 0.04060376
v -0.06794554 -0.00683867 0.02606740
v -0.05366091 -0.00171153 0.03808482
v -0.04259717 -0.00757840 -0.03880859
v -0.07338819 -0.00756872 -0.01072364
v -0.06363418 -0.00572912 -0.03664484
v -0.07324146 0.00402485 -0.00447415
v -0.04261687 0.00146162 0.03920976
v -0.04246001 -0.01516036 0.03308199
v -0.06617463 -0.00592349 0.02819063
v -0.04414189 -0.00720180 0.04020395
v -0.05389117 -0.00521915 0.03769143
v -0.04217776 -0.00814928 -0.03102046
v -0.05801049 -0.00697980 -0.03613825
v -0.06703011 -0.00775743 -0.02832130
v -0.04855943 0.00877514 0.00890748
v -0.07381612 0.00012959 -0.01923700
v -0.05220745 0.00748910 -0.03717523
v -0.04491244 0.00133539 0.03876474
v -0.07275836 -0.00645065 0.01949482
v -0.07189222 -0.00781526 0.00473060
v -0.04230412 -0.01496229 0.02900265
v -0.06696870 -0.00657029 0.02736966
v -0.07388021 0.00058222 0.01862486
v -0.04423992 -0.00551075 0.04012338
v -0.06569582 -0.00480928 0.02864410
v -0.06522785 -0.00752702 -0.03084625
v -0.07262069 0.00427903 0.00030649
v -0.04246446 0.00887507 0.01388261
v -0.07391835 -0.00654725 -0.01452709
v -0.07277904 -0.00551796 -0.02434580
v -0.04390323 0.00812319 -0.04451238
v -0.07083077 0.00055317 -0.02775962
v -0.04857627 0.00872321 -0.03119766
v -0.07317886 -0.00772911 -0.00638061
v -0.06478598 0.00077941 0.02830850
v -0.07361925 -0.00594098 0.01839318
v -0.07366972 0.00267897 -0.00636673
v -0.07279500 -0.00608072 0.02043694
v -0.06929243 -0.00220201 0.02457212
v -0.06444535 -0.00645570 -0.03420583
v -0.05741179 0.00643494 0.02056024
v -0.07383697 0.00093813 -0.01451376
v -0.07042954 -0.00665035 -0.02566350
v -0.07380827 -0.00357999 -0.01948588
v -0.07275075 -0.00673831 -0.01895067
v -0.06512671 -0.00041826 -0.03667659
v -0.07268985 -0.00036108 -0.02613472
v -0.05331487 0.00689597 -0.03799147
v -0.05322773 0.00745847 -0.03486257
v -0.07268562 0.00052633 0.02022343
v -0.06897826 -0.00534921 0.02500184
v -0.06001210 0.00507946 0.02216790
v -0.07363059 -0.00637088 -0.01685205
v -0.06529906 -0.00384931 -0.03517781
vn 0.51818251 0.15751041 0.84064104
vn 0.50528225 -0.75059684 0.42578660
vn 0.62955480 -0.02771857 -0.77646148
vn 0.35648469 0.47091452 -0.80694373
vn -0.79891715 -0.59478868 0.08920658
vn 0.48996276 0.76288944 0.42182484
vn -0.46638189 -0.46767176 0.75084690
vn -0.10953403 -0.96655104 -0.23190814
vn 0.63321532 0.77282870 -0.04212064
vn 0.53011636 -0.30427783 0.79144908
vn -0.60368766 -0.64586342 0.46735602
vn -0.42239358 0.28207010 0.86140590
vn 0.53634865 -0.66615882 -0.51823022
vn -0.58635413 -0.80927143 -0.03561731
vn -0.43396468 -0.55672182 -0.70833288
vn -0.68018712 0.73246796 -0.02891666
vn 0.54299031 0.36672538 0.75542970
vn 0.30945105 -0.94622122 0.09436873
vn -0.66682400 -0.08476291 0.74037896
vn -0.19644462 0.00340977 0.98050899
vn -0.44804566 -0.09503161 0.88894549
vn 0.88904699 -0.45413149 -0.05796592
vn -0.12005695 -0.89760470 -0.42413693
vn -0.32772585 -0.91281207 -0.24365939
vn -0.11178448 0.99360996 0.01560377
vn -0.92038157 0.36980934 -0.12703861
vn -0.27097457 0.94936972 -0.15896513
vn -0.21775906 0.48279170 0.84822943
vn -0.49044222 -0.83754065 0.24081547
vn -0.29542655 -0.95491190 0.02943487
vn 0.57901261 -0.81355091 -0.05365921
vn -0.65601324 -0.38117950 0.65142061
vn -0.82252560 0.48456230 0.29774319
vn -0.17577445 0.04242751 0.98351576
vn -0.66347810 0.04824923 0.74663835
vn -0.23854359 -0.93225097 -0.27203875
vn -0.51276909 0.85671605 0.05572665
vn 0.60536638 0.79594676 0.00055854
vn -0.89922715 -0.43049404 -0.07788077
vn -0.82132290 -0.47287854 -0.31908397
vn -0.09283187 0.77051408 -0.63062690
vn -0.58390139 0.73396257 -0.34692666
vn -0.12511804 0.99147873 -0.03626859
vn -0.47465950 -0.88016021 -0.00404611
vn -0.57132679 0.54100276 0.61717235
vn -0.92240298 -0.27913724 0.26693657
vn -0.96955881 0.24352183 -0.02555061
vn -0.77247924 -0.42547578 0.47142993
vn -0.73573245 0.10829588 0.66855798
vn -0.37177603 -0.84886256 -0.37578576
vn -0.27726103 0.95193309 0.13019109
vn -0.97442161 0.22113797 -0.04000651
vn -0.50643422 -0.81429277 -0.28364004
vn -0.99140361 -0.07064690 -0.11012675
vn -0.52993625 -0.83552128 -0.14516115
vn -0.63273687 0.25955573 -0.72957171
vn -0.86146889 0.34039601 -0.37683140
vn -0.42866078 0.82446118 -0.36947759
vn -0.29778321 0.94884208 -0.10499464
vn -0.66714247 0.51147707 0.54158299
vn -0.76419794 0.00101919 0.64498099
vn -0.35031260 0.90916507 0.22516651
vn -0.83621645 -0.52889623 -0.14495112
vn -0.78101145 -0.22571285 -0.58230131
f 9//9 6//6 3//3
f 9//9 3//3 4//4
f 10//10 2//2 3//3
f 10//10 3//3 6//6
f 10//10 7//7 2//2
f 11//11 2//2 7//7
f 15//15 4//4 3//3
f 15//15 3//3 13//13
f 17//17 10//10 6//6
f 17//17 1//1 10//10
f 17//17 12//12 1//1
f 18//18 2//2 11//11
f 20//20 12//12 10//10
f 20//20 10//10 1//1
f 21//21 7//7 10//10
f 21//21 10//10 12//12
f 21//21 19//19 7//7
f 22//22 13//13 3//3
f 22//22 3//3 2//2
f 23//23 15//15 13//13
f 23//23 13//13 8//8
f 23//23 8//8 15//15
f 24//24 18//18 14//14
f 28//28 17//17 6//6
f 28//28 6//6 12//12
f 28//28 12//12 17//17
f 29//29 18//18 11//11
f 29//29 5//5 18//18
f 30//30 18//18 5//5
f 31//31 8//8 13//13
f 31//31 13//13 22//22
f 31//31 22//22 2//2
f 31//31 2//2 18//18
f 31//31 24//24 8//8
f 31//31 18//18 24//24
f 32//32 11//11 7//7
f 32//32 7//7 19//19
f 34//34 20//20 1//1
f 34//34 1//1 12//12
f 34//34 12//12 20//20
f 35//35 21//21 12//12
f 35//35 19//19 21//21
f 35//35 32//32 19//19
f 36//36 15//15 8//8
f 36//36 8//8 24//24
f 37//37 16//16 33//33
f 38//38 25//25 6//6
f 38//38 6//6 9//9
f 38//38 9//9 25//25
f 39//39 14//14 5//5
f 39//39 5//5 33//33
f 41//41 9//9 4//4
f 43//43 25//25 9//9
f 43//43 41//41 27//27
f 43//43 9//9 41//41
f 43//43 37//37 25//25
f 43//43 16//16 37//37
f 44//44 30//30 5//5
f 44//44 5//5 14//14
f 44//44 14//14 18//18
f 44//44 18//18 30//30
f 45//45 12//12 6//6
f 45//45 35//35 12//12
f 46//46 33//33 5//5
f 47//47 33//33 16//16
f 48//48 11//11 32//32
f 48//48 33//33 46//46
f 48//48 29//29 11//11
f 48//48 46//46 5//5
f 48//48 5//5 29//29
f 49//49 32//32 35//35
f 49//49 35//35 45//45
f 50//50 36//36 24//24
f 50//50 24//24 15//15
f 50//50 15//15 36//36
f 51//51 6//6 25//25
f 51//51 25//25 37//37
f 51//51 37//37 33//33
f 52//52 39//39 33//33
f 52//52 26//26 39//39
f 52//52 33//33 47//47
f 52//52 47//47 16//16
f 52//52 16//16 26//26
f 53//53 40//40 15//15
f 53//53 15//15 24//24
f 54//54 40//40 39//39
f 54//54 39//39 26//26
f 55//55 14//14 39//39
f 55//55 40//40 53//53
f 55//55 53//53 24//24
f 55//55 24//24 14//14
f 56//56 41//41 4//4
f 56//56 4//4 15//15
f 57//57 26//26 16//16
f 57//57 16//16 42//42
f 57//57 54//54 26//26
f 57//57 40//40 54//54
f 57//57 56//56 40//40
f 57//57 42//42 56//56
f 58//58 42//42 16//16
f 58//58 56//56 42//42
f 58//58 27//27 41//41
f 58//58 41//41 56//56
f 59//59 43//43 27//27
f 59//59 16//16 43//43
f 59//59 58//58 16//16
f 59//59 27//27 58//58
f 60//60 45//45 6//6
f 60//60 6//6 33//33
f 60//60 49//49 45//45
f 60//60 33//33 48//48
f 60//60 48//48 49//49
f 61//61 49//49 48//48
f 61//61 48//48 32//32
f 61//61 32//32 49//49
f 62//62 51//51 33//33
f 62//62 33//33 6//6
f 62//62 6//6 51//51
f 63//63 55//55 39//39
f 63//63 39//39 40//40
f 63//63 40//40 55//55
f 64//64 56//56 15//15
f 64//64 15//15 40//40
f 64//64 40//40 56//56

