# https://github.com/mikedh/trimesh
v 0.04611131 -0.01951391 0.05577480
v 0.04931359 -0.01257039 0.05335442
v -0.01747004 -0.02237036 0.05348223
v 0.00364191 -0.00106821 0.03168712
v 0.02201484 -0.04530141 0.03034291
v 0.02663686 -0.00148753 0.05073187
v 0.04264175 -0.02333106 0.03083362
v 0.00248127 -0.04576863 0.04609261
v -0.01682997 -0.03892689 0.04503633
v -0.01799052 -0.01723558 0.04682046
v 0.04886037 -0.00201543 0.05126766
v -0.00413429 -0.02786656 0.05735007
v 0.04314523 -0.02331857 0.03792714
v 0.04380622 -0.00180243 0.03074537
v 0.03346775 -0.03414618 0.05566459
v 0.00448233 -0.03474839 0.03075162
v -0.01180559 -0.04558359 0.04501798
v 0.02477138 -0.00171191 0.05001313
v -0.01812982 -0.01856069 0.04888217
v -0.02048416 -0.02455437 0.04419138
v 0.04890616 -0.01345555 0.05368263
v -0.01102810 -0.02630172 0.05599019
v 0.03967606 -0.00452059 0.05201215
v 0.03310941 -0.03659607 0.04491170
v 0.04437314 -0.00954342 0.03062102
v 0.02030682 -0.04501181 0.04556701
v 0.02637374 -0.03468950 0.05575413
v 0.04443213 -0.02275641 0.05608639
v 0.01325699 -0.04593527 0.03202976
v -0.00232249 -0.04565619 0.03920822
v 0.00749533 -0.00261028 0.03806998
v -0.01777718 -0.01623511 0.04500953
v -0.01614803 -0.03880109 0.04764303
v -0.01176056 -0.03002713 0.03911727
v -0.00657086 -0.02730019 0.05690114
v 0.03722940 -0.01414769 0.05438626
v 0.04307748 -0.00446206 0.05205077
v 0.04871931 -0.00812272 0.04075715
v 0.02138774 -0.04586029 0.04146051
v 0.00083119 -0.02771010 0.05734318
v 0.01660451 -0.04565033 0.04568808
v -0.01155262 -0.04550618 0.04571792
v 0.03314108 -0.03616644 0.04716342
v 0.04412996 -0.02311966 0.05383952
v -0.00545494 -0.04604158 0.04498258
v 0.01328001 -0.04584828 0.03073399
v -0.01178717 -0.02331666 0.03908655
v 0.04913396 -0.00921799 0.04429995
v 0.04423163 -0.01564887 0.03086885
v 0.04876201 -0.00219104 0.04830587
v 0.01726773 -0.04595731 0.03367603
v 0.03229821 -0.03428555 0.05565657
v 0.01898796 -0.04562688 0.04452067
v -0.00552966 -0.04597715 0.04561479
v -0.01186777 -0.04444025 0.04626490
v 0.04565120 -0.02048694 0.05583557
v -0.00210124 -0.04593514 0.04029113
v 0.04929820 -0.00691579 0.05215826
v 0.04909558 -0.00717401 0.04628075
vn 0.67043091 -0.16339894 0.72375630
vn 0.85899052 -0.07110042 0.50703060
vn -0.64905048 0.20605409 0.73230812
vn -0.37127099 0.75707532 -0.53758238
vn 0.30435958 -0.67928075 -0.66778957
vn -0.05877932 0.79923008 0.59814402
vn 0.64014693 -0.35690098 -0.68031875
vn -0.00411033 -0.85179577 0.52385788
vn -0.85614499 -0.41514760 -0.30768200
vn -0.71729466 0.62554667 0.30688716
vn 0.58401896 0.65224903 0.48321120
vn -0.12162677 -0.11417311 0.98598754
vn 0.84751613 -0.52783389 -0.05574759
vn 0.42942391 0.62171114 -0.65503462
vn 0.40473393 -0.57106966 0.71419177
vn -0.29592718 -0.12675175 -0.94676349
vn -0.54823666 -0.80252830 -0.23533996
vn -0.27969116 0.85519285 0.43636916
vn -0.71662824 0.54787276 0.43160098
vn -0.94604369 -0.00495126 -0.32400127
vn 0.78351200 -0.15109557 0.60272636
vn -0.28977966 -0.04486927 0.95604106
vn -0.01755837 0.28924737 0.95709334
vn 0.69232693 -0.72144062 0.01438221
vn 0.55857327 0.01336250 -0.82934754
vn 0.27698479 -0.85948593 0.42960838
vn 0.02680139 -0.44747024 0.89389713
vn 0.61804584 -0.37385876 0.69155546
vn -0.00610444 -0.99887028 -0.04712642
vn -0.34536616 -0.73305235 -0.58596626
vn -0.33201467 0.84872126 0.41162907
vn -0.74282173 0.65723720 -0.12749564
vn -0.69989351 -0.43450697 0.56687985
vn -0.51171559 -0.13000071 -0.84926260
vn -0.20322989 -0.04905890 0.97790124
vn -0.00902239 0.23854634 0.97108920
vn -0.00152490 0.28412570 0.95878583
vn 0.96974693 0.03003854 -0.24225725
vn 0.33974583 -0.93643301 0.08755566
vn 0.00314023 0.01088902 0.99993578
vn 0.05238734 -0.90326831 0.42586610
vn -0.33146318 -0.78791441 0.51896342
vn 0.65019973 -0.74614157 0.14322385
vn 0.83029555 -0.55652626 -0.02979651
vn -0.03824345 -0.99901303 0.02259212
vn -0.11563645 -0.69117191 -0.71337900
vn -0.48776880 0.02732233 -0.87254518
vn 0.98829601 -0.10600310 -0.10970109
vn 0.68902409 -0.11157559 -0.71609824
vn 0.78519004 0.61186237 -0.09539938
vn 0.04864000 -0.99765544 -0.04814316
vn 0.06097219 -0.57765107 0.81400346
vn 0.14727422 -0.96223790 0.22892908
vn -0.03532551 -0.88126544 0.47129961
vn -0.30848564 -0.49445538 0.81261952
vn 0.83107692 -0.38378457 0.40251777
vn -0.08172787 -0.98819750 -0.12956178
vn 0.82510661 0.14557243 0.54590086
vn 0.99511246 0.07984536 -0.05810264
f 13//13 7//7 2//2
f 14//14 4//4 6//6
f 14//14 6//6 11//11
f 16//16 14//14 5//5
f 16//16 4//4 14//14
f 18//18 6//6 4//4
f 19//19 3//3 6//6
f 19//19 18//18 10//10
f 19//19 6//6 18//18
f 20//20 19//19 10//10
f 20//20 3//3 19//19
f 21//21 11//11 1//1
f 21//21 2//2 11//11
f 22//22 6//6 3//3
f 23//23 6//6 12//12
f 24//24 5//5 7//7
f 24//24 7//7 13//13
f 25//25 7//7 5//5
f 25//25 5//5 14//14
f 30//30 17//17 9//9
f 30//30 9//9 16//16
f 31//31 18//18 4//4
f 32//32 20//20 10//10
f 32//32 4//4 20//20
f 32//32 31//31 4//4
f 32//32 10//10 18//18
f 32//32 18//18 31//31
f 33//33 20//20 9//9
f 33//33 3//3 20//20
f 33//33 22//22 3//3
f 33//33 9//9 17//17
f 34//34 16//16 9//9
f 34//34 9//9 20//20
f 35//35 12//12 6//6
f 35//35 6//6 22//22
f 36//36 12//12 1//1
f 37//37 1//1 11//11
f 37//37 11//11 6//6
f 37//37 6//6 23//23
f 37//37 36//36 1//1
f 37//37 23//23 12//12
f 37//37 12//12 36//36
f 38//38 25//25 14//14
f 39//39 15//15 26//26
f 39//39 5//5 24//24
f 40//40 27//27 15//15
f 40//40 12//12 27//27
f 40//40 15//15 28//28
f 40//40 28//28 1//1
f 40//40 1//1 12//12
f 41//41 26//26 15//15
f 41//41 27//27 8//8
f 42//42 27//27 12//12
f 42//42 33//33 17//17
f 43//43 28//28 15//15
f 43//43 24//24 28//28
f 43//43 39//39 24//24
f 43//43 15//15 39//39
f 44//44 28//28 24//24
f 44//44 24//24 13//13
f 45//45 39//39 41//41
f 46//46 16//16 5//5
f 46//46 30//30 16//16
f 47//47 34//34 20//20
f 47//47 20//20 4//4
f 47//47 4//4 16//16
f 47//47 16//16 34//34
f 48//48 2//2 7//7
f 48//48 7//7 38//38
f 49//49 38//38 7//7
f 49//49 7//7 25//25
f 49//49 25//25 38//38
f 50//50 38//38 14//14
f 50//50 14//14 11//11
f 51//51 5//5 39//39
f 51//51 46//46 5//5
f 51//51 29//29 46//46
f 51//51 45//45 29//29
f 51//51 39//39 45//45
f 52//52 41//41 15//15
f 52//52 15//15 27//27
f 52//52 27//27 41//41
f 53//53 41//41 39//39
f 53//53 39//39 26//26
f 53//53 26//26 41//41
f 54//54 8//8 27//27
f 54//54 27//27 42//42
f 54//54 42//42 17//17
f 54//54 17//17 45//45
f 54//54 45//45 41//41
f 54//54 41//41 8//8
f 55//55 42//42 12//12
f 55//55 12//12 35//35
f 55//55 35//35 22//22
f 55//55 22//22 33//33
f 55//55 33//33 42//42
f 56//56 44//44 13//13
f 56//56 1//1 28//28
f 56//56 28//28 44//44
f 56//56 13//13 2//2
f 56//56 21//21 1//1
f 56//56 2//2 21//21
f 57//57 45//45 17//17
f 57//57 17//17 30//30
f 57//57 30//30 46//46
f 57//57 46//46 29//29
f 57//57 29//29 45//45
f 58//58 11//11 2//2
f 58//58 2//2 48//48
f 58//58 50//50 11//11
f 59//59 58//58 48//48
f 59//59 50//50 58//58
f 59//59 48//48 38//38
f 59//59 38//38 50//50

