# https://github.com/mikedh/trimesh
v 0.00517375 -0.01203435 0.04327026
v 0.02772002 -0.03833307 0.03054477
v 0.02033738 -0.00177196 -0.04733964
v -0.01177597 -0.00180985 -0.04772908
v -0.01180559 -0.04558359 0.04501798
v 0.00552255 -0.00215886 0.03506581
v 0.01333798 -0.04222441 0.04621523
v 0.00628890 -0.04537048 -0.04779208
v 0.02046130 -0.00181769 0.03072584
v -0.01208017 -0.01633000 0.04307048
v 0.02015341 -0.03538441 -0.05465685
v 0.02124952 -0.04568874 0.02754488
v -0.01150607 -0.03742374 -0.04774082
v 0.02792287 -0.03449412 0.03077146
v 0.01353189 -0.03847301 0.04624273
v -0.01122757 -0.00295024 0.02464597
v 0.01738365 -0.02996715 -0.05670247
v 0.01371913 -0.04617270 0.04532087
v 0.01965981 -0.04236836 -0.04583687
v -0.00360590 -0.04472420 -0.04330958
v -0.01175108 -0.02806728 -0.04974041
v 0.02755338 -0.03397178 0.00086234
v 0.00601764 -0.03816711 0.04624471
v 0.00852267 -0.00306410 -0.04805254
v 0.01984579 -0.03500007 -0.05548228
v 0.00481838 -0.04655477 0.04561614
v 0.02201484 -0.04530141 0.03034291
v 0.01386178 -0.04584646 -0.03977091
v -0.00295286 -0.04470075 -0.04652391
v 0.00046318 -0.04581842 -0.04449510
v -0.01135272 -0.04451901 0.01528659
v 0.01363766 -0.03391869 -0.05653039
v 0.02749027 -0.03786299 0.00087225
v -0.01057921 -0.03305998 0.04498446
v 0.01943533 -0.03169399 -0.05513763
v 0.01145577 -0.04513466 -0.04804965
v 0.00621547 -0.04359989 0.04616746
v 0.02325231 -0.04394277 0.03040089
v 0.02276158 -0.04513209 0.02595762
v 0.02074830 -0.04575869 0.01438866
v -0.00393137 -0.04404059 -0.04656806
v -0.00945287 -0.04594333 0.04016115
v 0.00482774 -0.04585532 -0.04443245
v -0.00173342 -0.04508924 -0.04670258
v -0.01124898 -0.03854348 -0.04296553
v -0.01147136 -0.03682424 -0.04907606
v 0.01767620 -0.03386597 -0.05625837
v 0.01641871 -0.02991522 -0.05656989
v 0.01504919 -0.04459988 -0.04656834
v 0.02319197 -0.04452582 0.02808677
v 0.01860158 -0.04325586 -0.04547145
v -0.00545494 -0.04604158 0.04498258
v 0.00960757 -0.04584599 -0.04318849
v 0.00979077 -0.03551431 -0.05515365
v 0.01379569 -0.03337613 -0.05651383
v 0.01386687 -0.04479075 -0.04704549
v 0.01621670 -0.04445937 -0.04427848
v -0.00034781 -0.04391368 -0.04780198
v 0.00696408 -0.03669143 -0.05390613
vn 0.13430430 0.40150274 0.90595690
vn 0.90555678 -0.30396621 0.29592477
vn 0.56748206 0.66360238 -0.48743819
vn -0.60238853 0.61827164 -0.50484476
vn -0.61509012 -0.54934119 0.56558677
vn -0.04471350 0.87837481 0.47587645
vn 0.38821167 -0.09152724 0.91701388
vn -0.03723093 -0.85124745 -0.52344210
vn 0.59860461 0.71411238 0.36292703
vn -0.68872167 0.30282098 0.65875785
vn 0.85752664 -0.34395164 -0.38255109
vn 0.22383800 -0.97447889 0.01695413
vn -0.87768832 -0.45105164 -0.16191242
vn 0.92950670 0.07481446 0.36113723
vn 0.40758971 0.06203807 0.91105538
vn -0.68255779 0.71451266 0.15357903
vn 0.28786977 0.13267026 -0.94843534
vn 0.37388264 -0.68174306 0.62883875
vn 0.75037824 -0.59521143 -0.28749932
vn -0.45963983 -0.88542829 -0.06890546
vn -0.77910802 -0.00336447 -0.62688067
vn 0.99548150 0.07921213 -0.05236440
vn -0.02734036 0.04657653 0.99854050
vn 0.01127968 0.35591740 -0.93444934
vn 0.60029259 -0.31371903 -0.73568280
vn -0.01097965 -0.76889890 0.63927610
vn 0.51824027 -0.83734929 0.17399192
vn 0.21916831 -0.97430325 -0.05194636
vn -0.39525791 -0.81170931 -0.42999904
vn -0.12080282 -0.98731688 -0.10301482
vn -0.74049222 -0.67106486 -0.03665006
vn -0.08745641 -0.26814685 -0.95940015
vn 0.93289614 -0.35362710 -0.06821050
vn -0.27582375 0.06292721 0.95914620
vn 0.69100841 0.16040465 -0.70482461
vn 0.11979188 -0.85894656 -0.49785611
vn -0.01339539 -0.10357330 0.99453162
vn 0.73656648 -0.62696156 0.25374992
vn 0.60339608 -0.79743934 -0.00191434
vn 0.31882296 -0.94734918 -0.02968926
vn -0.53360644 -0.75716482 -0.37678323
vn -0.11918429 -0.99286397 -0.00403065
vn 0.00471194 -0.99693934 -0.07803690
vn -0.24062624 -0.83589010 -0.49334242
vn -0.79410128 -0.60264706 -0.07886499
vn -0.73320534 -0.32383408 -0.59794767
vn 0.14841329 -0.26022310 -0.95407413
vn -0.14277106 0.13237238 -0.98086389
vn 0.34421894 -0.87003628 -0.35291668
vn 0.74090728 -0.66768658 0.07246401
vn 0.50273552 -0.82434774 -0.26020721
vn -0.06228807 -0.98378184 0.16820667
vn 0.03875674 -0.99670188 -0.07129706
vn -0.16514325 -0.40667216 -0.89852404
vn -0.16463014 0.08685192 -0.98252413
vn 0.28775312 -0.87968296 -0.37862386
vn 0.38669109 -0.91711996 -0.09675216
vn -0.17403511 -0.54313110 -0.82141365
vn -0.18397812 -0.48122470 -0.85707342
f 9//9 3//3 4//4
f 9//9 4//4 6//6
f 9//9 6//6 1//1
f 10//10 1//1 6//6
f 14//14 3//3 9//9
f 15//15 9//9 1//1
f 15//15 14//14 9//9
f 15//15 7//7 14//14
f 16//16 10//10 6//6
f 16//16 6//6 4//4
f 16//16 4//4 10//10
f 18//18 14//14 7//7
f 18//18 2//2 14//14
f 21//21 10//10 4//4
f 21//21 13//13 5//5
f 21//21 5//5 10//10
f 22//22 11//11 3//3
f 22//22 3//3 14//14
f 23//23 15//15 1//1
f 23//23 1//1 10//10
f 23//23 7//7 15//15
f 24//24 17//17 4//4
f 24//24 4//4 3//3
f 24//24 3//3 17//17
f 25//25 3//3 11//11
f 25//25 11//11 19//19
f 26//26 18//18 7//7
f 27//27 18//18 12//12
f 30//30 5//5 20//20
f 31//31 20//20 5//5
f 31//31 5//5 13//13
f 32//32 21//21 4//4
f 33//33 22//22 14//14
f 33//33 14//14 2//2
f 33//33 19//19 11//11
f 33//33 11//11 22//22
f 34//34 23//23 10//10
f 34//34 10//10 5//5
f 34//34 5//5 23//23
f 35//35 25//25 17//17
f 35//35 17//17 3//3
f 35//35 3//3 25//25
f 36//36 32//32 25//25
f 36//36 8//8 32//32
f 37//37 23//23 5//5
f 37//37 5//5 26//26
f 37//37 26//26 7//7
f 37//37 7//7 23//23
f 38//38 2//2 18//18
f 38//38 18//18 27//27
f 39//39 27//27 12//12
f 39//39 19//19 33//33
f 39//39 33//33 2//2
f 40//40 12//12 18//18
f 40//40 18//18 26//26
f 40//40 26//26 28//28
f 40//40 39//39 12//12
f 41//41 29//29 20//20
f 42//42 30//30 26//26
f 42//42 5//5 30//30
f 43//43 26//26 30//30
f 43//43 30//30 8//8
f 44//44 8//8 30//30
f 44//44 30//30 20//20
f 44//44 20//20 29//29
f 45//45 31//31 13//13
f 45//45 20//20 31//31
f 45//45 41//41 20//20
f 45//45 13//13 41//41
f 46//46 13//13 21//21
f 46//46 21//21 32//32
f 46//46 44//44 29//29
f 46//46 41//41 13//13
f 46//46 29//29 41//41
f 47//47 32//32 17//17
f 47//47 17//17 25//25
f 47//47 25//25 32//32
f 48//48 4//4 17//17
f 49//49 25//25 19//19
f 50//50 38//38 27//27
f 50//50 27//27 39//39
f 50//50 39//39 2//2
f 50//50 2//2 38//38
f 51//51 40//40 28//28
f 51//51 19//19 39//39
f 51//51 39//39 40//40
f 51//51 49//49 19//19
f 52//52 42//42 26//26
f 52//52 26//26 5//5
f 52//52 5//5 42//42
f 53//53 36//36 28//28
f 53//53 28//28 26//26
f 53//53 26//26 43//43
f 53//53 43//43 8//8
f 53//53 8//8 36//36
f 54//54 32//32 8//8
f 54//54 46//46 32//32
f 55//55 32//32 4//4
f 55//55 4//4 48//48
f 55//55 48//48 17//17
f 55//55 17//17 32//32
f 56//56 49//49 28//28
f 56//56 28//28 36//36
f 56//56 36//36 25//25
f 56//56 25//25 49//49
f 57//57 51//51 28//28
f 57//57 28//28 49//49
f 57//57 49//49 51//51
f 58//58 54//54 8//8
f 58//58 8//8 44//44
f 58//58 44//44 46//46
f 59//59 58//58 46//46
f 59//59 46//46 54//54
f 59//59 54//54 58//58

