# https://github.com/mikedh/trimesh
v 0.02373241 0.03512168 0.05704646
v 0.04886037 -0.00201543 0.05126766
v 0.04690056 0.01605451 0.05524218
v 0.03387283 0.02933640 -0.04743520
v 0.02295855 -0.02578481 -0.00207305
v 0.04624371 0.00491504 -0.03543759
v 0.03938285 0.02831083 0.02213933
v 0.02795178 0.02127375 0.05669273
v 0.01323149 0.03967716 -0.02305728
v 0.04906171 0.01204216 0.05385179
v 0.02874933 -0.02346736 -0.02617502
v 0.03893315 0.02805627 0.03040033
v 0.04053845 0.02595400 -0.04178397
v 0.03593145 0.02113876 0.05678811
v 0.02046130 -0.02331666 0.03072584
v 0.03043313 0.03647919 -0.03557790
v 0.04883230 0.01284528 0.05434785
v 0.04918757 0.00954978 0.05234817
v 0.04209109 0.01961345 -0.04729141
v 0.02066310 -0.01142108 -0.03087836
v 0.04343677 -0.02306855 0.00087175
v 0.02868241 0.03648891 0.01830185
v 0.02483030 0.03504049 0.05683556
v 0.03935068 0.00045700 0.05208654
v 0.04429947 0.01752181 0.05577465
v 0.02022579 0.03554701 0.05755476
v 0.02039275 0.03957484 -0.03500826
v 0.03732414 0.02913721 -0.04262879
v 0.03948426 0.02705611 -0.04272464
v 0.04790396 0.01453115 0.05491634
v 0.04313904 0.02076351 -0.03956107
v 0.04635194 0.00208475 -0.03544452
v 0.04910989 0.01146216 0.05336919
v 0.03354755 0.01973651 -0.04697893
v 0.02416313 -0.02393289 -0.01664020
v 0.01329497 0.01012619 -0.02302160
v 0.04177315 -0.02210715 -0.02667671
v 0.04264175 -0.02333106 0.03083362
v 0.04570512 0.01717835 0.05496285
v 0.02807111 -0.00196220 0.05118339
v 0.04379976 0.01789913 0.05586530
v 0.03650724 0.02248689 0.05701665
v 0.01670562 0.03872854 0.03905586
v 0.02155096 0.03868992 0.02704870
v 0.03438964 0.03006422 -0.04513118
v 0.04045781 0.02358050 -0.04625455
v 0.03493125 0.02914266 -0.04620355
v 0.04178763 0.02250735 -0.04406201
v 0.04440431 -0.01486552 -0.02147807
v 0.03346746 0.02952077 -0.04729411
v 0.02074812 0.02921847 -0.03520662
v 0.04459740 -0.00167459 -0.03534222
v 0.04314948 -0.02316979 0.01751642
v 0.02126882 -0.00170018 0.04751155
v 0.02068320 0.02604871 0.05681762
v 0.02015413 0.03650133 0.05318686
v 0.01666960 0.03987428 0.01405935
v 0.01194155 0.02046397 0.02998509
v 0.02298806 0.03752096 0.03759088
v 0.04201784 0.02012123 -0.04731523
v 0.03951164 0.02557376 -0.04483750
v 0.04876201 -0.00219104 0.04830587
v 0.02477138 -0.00171191 0.05001313
v 0.01391904 0.03892446 0.03868458
vn 0.18537571 0.44622981 0.87550831
vn 0.66483663 -0.39672095 0.63293345
vn 0.62746675 0.37166020 0.68421793
vn 0.16212073 0.47836803 -0.86306483
vn -0.53490137 -0.84330526 -0.05212259
vn 0.98545926 0.08607709 -0.14649496
vn 0.73588029 0.67673780 0.02249793
vn -0.06231144 -0.16828841 0.98376638
vn -0.72601816 0.65455386 -0.21084797
vn 0.96410167 0.06541787 0.25734894
vn -0.22212189 -0.81535522 -0.53465665
vn 0.67378281 0.73420866 0.08339291
vn 0.82689004 0.55026404 -0.11602733
vn 0.00503447 -0.19331953 0.98112294
vn -0.57775535 -0.74041297 0.34349292
vn 0.46199044 0.86817049 -0.18123143
vn 0.78843245 0.13509387 0.60010325
vn 0.99886110 -0.00361085 0.04757594
vn 0.59014910 -0.11521399 -0.79903052
vn -0.67221229 -0.40329896 -0.62087083
vn 0.68306238 -0.72977862 -0.02913691
vn 0.46372533 0.88537394 0.03273832
vn 0.37692550 0.71005042 0.59477354
vn -0.00026353 -0.26907080 0.96312036
vn 0.14820842 -0.05404566 0.98747827
vn -0.43184080 0.52276891 0.73500081
vn -0.40159384 0.74748052 -0.52914578
vn 0.63278293 0.73111841 -0.25505221
vn 0.72010980 0.65213706 -0.23697918
vn 0.67489044 0.22255867 0.70355563
vn 0.95082951 0.29790016 -0.08472744
vn 0.90672605 -0.17649126 -0.38301268
vn 0.99830398 0.03670871 0.04518450
vn -0.34909795 -0.18511852 -0.91861948
vn -0.61833802 -0.76358724 -0.18599092
vn -0.95285431 -0.11443448 -0.28102210
vn 0.52418470 -0.70608623 -0.47610149
vn 0.50738752 -0.79857310 0.32378836
vn 0.65266245 0.73881685 0.16787312
vn -0.15054411 -0.46703164 0.87133112
vn 0.23647608 0.11553995 0.96474327
vn 0.17552531 0.08550509 0.98075468
vn 0.12145989 0.98800277 0.09538359
vn 0.24035885 0.96959853 0.04589455
vn 0.50408750 0.78919918 -0.35079973
vn 0.69724585 0.51081523 -0.50290758
vn 0.60818480 0.67660285 -0.41511423
vn 0.89160760 0.40561796 -0.20127087
vn 0.97219986 -0.22024958 -0.07948299
vn -0.25568240 0.49198397 -0.83221288
vn -0.76612088 -0.03115610 -0.64194088
vn 0.58762743 -0.37701134 -0.71593048
vn 0.70538308 -0.70875832 0.00981642
vn -0.75882111 -0.32031437 0.56708838
vn -0.59061083 -0.13406412 0.79574221
vn 0.05551379 0.98387726 0.17001102
vn 0.00052437 0.99989423 0.01453453
vn -0.98829787 -0.06568121 0.13767096
vn 0.31364105 0.94597753 0.08219367
vn 0.62710005 0.17818808 -0.75828394
vn 0.64426479 0.62549855 -0.44008458
vn 0.99216279 -0.12214411 -0.02634029
vn -0.42143583 -0.42154164 0.80292869
vn -0.68419891 0.70027830 0.20367168
f 12//12 3//3 7//7
f 17//17 2//2 10//10
f 18//18 10//10 2//2
f 22//22 12//12 7//7
f 22//22 7//7 16//16
f 23//23 12//12 22//22
f 24//24 14//14 8//8
f 25//25 24//24 2//2
f 25//25 14//14 24//24
f 26//26 1//1 23//23
f 27//27 16//16 4//4
f 29//29 16//16 7//7
f 29//29 7//7 13//13
f 29//29 28//28 16//16
f 30//30 2//2 17//17
f 30//30 25//25 2//2
f 30//30 3//3 25//25
f 30//30 7//7 3//3
f 30//30 17//17 13//13
f 30//30 13//13 7//7
f 31//31 17//17 10//10
f 31//31 13//13 17//17
f 31//31 10//10 6//6
f 32//32 18//18 2//2
f 32//32 6//6 18//18
f 32//32 19//19 6//6
f 33//33 18//18 6//6
f 33//33 6//6 10//10
f 33//33 10//10 18//18
f 34//34 19//19 11//11
f 34//34 11//11 20//20
f 35//35 20//20 11//11
f 35//35 11//11 5//5
f 35//35 5//5 20//20
f 36//36 9//9 27//27
f 36//36 20//20 5//5
f 36//36 5//5 15//15
f 37//37 21//21 5//5
f 37//37 5//5 11//11
f 37//37 11//11 19//19
f 38//38 15//15 5//5
f 38//38 5//5 21//21
f 38//38 2//2 15//15
f 39//39 23//23 3//3
f 39//39 3//3 12//12
f 39//39 12//12 23//23
f 40//40 15//15 2//2
f 40//40 2//2 24//24
f 40//40 24//24 8//8
f 41//41 25//25 3//3
f 41//41 3//3 23//23
f 41//41 14//14 25//25
f 42//42 1//1 26//26
f 42//42 14//14 41//41
f 42//42 41//41 23//23
f 42//42 23//23 1//1
f 42//42 26//26 8//8
f 42//42 8//8 14//14
f 44//44 22//22 16//16
f 44//44 16//16 27//27
f 45//45 28//28 4//4
f 45//45 4//4 16//16
f 45//45 16//16 28//28
f 46//46 29//29 13//13
f 47//47 29//29 4//4
f 47//47 4//4 28//28
f 47//47 28//28 29//29
f 48//48 13//13 31//31
f 48//48 46//46 13//13
f 49//49 37//37 32//32
f 49//49 21//21 37//37
f 50//50 27//27 4//4
f 50//50 4//4 34//34
f 51//51 34//34 20//20
f 51//51 50//50 34//34
f 51//51 27//27 50//50
f 51//51 36//36 27//27
f 51//51 20//20 36//36
f 52//52 37//37 19//19
f 52//52 19//19 32//32
f 52//52 32//32 37//37
f 53//53 38//38 21//21
f 53//53 21//21 2//2
f 53//53 2//2 38//38
f 55//55 40//40 8//8
f 55//55 8//8 26//26
f 56//56 26//26 23//23
f 57//57 27//27 9//9
f 57//57 44//44 27//27
f 57//57 43//43 44//44
f 58//58 9//9 36//36
f 58//58 36//36 15//15
f 58//58 15//15 54//54
f 58//58 54//54 55//55
f 58//58 55//55 26//26
f 59//59 44//44 43//43
f 59//59 23//23 22//22
f 59//59 22//22 44//44
f 59//59 56//56 23//23
f 59//59 43//43 56//56
f 60//60 4//4 46//46
f 60//60 34//34 4//4
f 60//60 19//19 34//34
f 60//60 46//46 48//48
f 60//60 48//48 31//31
f 60//60 31//31 6//6
f 60//60 6//6 19//19
f 61//61 46//46 4//4
f 61//61 4//4 29//29
f 61//61 29//29 46//46
f 62//62 49//49 32//32
f 62//62 32//32 2//2
f 62//62 2//2 21//21
f 62//62 21//21 49//49
f 63//63 54//54 15//15
f 63//63 15//15 40//40
f 63//63 55//55 54//54
f 63//63 40//40 55//55
f 64//64 56//56 43//43
f 64//64 26//26 56//56
f 64//64 58//58 26//26
f 64//64 9//9 58//58
f 64//64 57//57 9//9
f 64//64 43//43 57//57

