# https://github.com/mikedh/trimesh
v 0.02022579 0.03554701 0.05755476
v 0.02070786 -0.00178181 0.04710222
v 0.01323149 0.03967716 -0.02305728
v -0.02418424 0.02637220 -0.04690107
v -0.01204332 0.01778186 0.04994186
v 0.00493426 -0.00181769 -0.02302160
v -0.01154267 0.03863092 0.03424877
v 0.02170572 0.02131549 0.00099395
v 0.00254470 0.03102368 0.05680334
v -0.01770726 0.02203157 -0.04776602
v -0.02568086 -0.00898959 -0.00745463
v 0.01314564 0.03874058 0.04963170
v -0.00904294 0.03865073 -0.02785828
v 0.02101763 0.01169017 0.05215272
v 0.02026978 0.03807718 0.03901741
v 0.01329497 0.01012619 -0.02302160
v -0.01120313 0.03511983 0.05545382
v -0.01720201 0.02883237 -0.04716807
v -0.02612092 -0.00902926 -0.02182774
v -0.01602001 -0.00369526 0.02312116
v -0.00108498 0.03993960 0.03666160
v -0.02437284 0.02915744 -0.04052348
v 0.02068320 0.02604871 0.05681762
v 0.02004569 0.03730887 0.04952167
v 0.01325669 0.03994037 0.01753159
v 0.02046130 -0.00181769 0.00086615
v -0.02588129 0.02068683 0.00446838
v -0.00403190 0.03794562 0.05704373
v -0.02529525 0.02136252 -0.04755888
v -0.00299818 0.03888473 -0.02794721
v -0.01178717 -0.00898401 -0.02182721
v -0.01202076 0.01534999 0.04884334
v -0.00639848 0.03974551 0.02850208
v -0.01326607 0.03785477 0.00448072
v -0.02353061 0.02746519 -0.04662055
v 0.01769875 0.03622655 0.05757600
v 0.01660804 0.03870439 0.04059392
v 0.00534271 0.03988215 -0.02299235
v -0.01778473 -0.00318048 0.02185114
v -0.01177683 0.03349139 0.05456725
v -0.02468124 0.02963131 -0.00041475
v -0.02664229 0.02027753 -0.00521254
v -0.00109407 0.03868515 0.05327419
v -0.00916103 0.03859310 0.04380904
v -0.02473188 0.02523668 -0.04644884
v 0.01195366 0.03990811 -0.02313172
v -0.01178717 -0.00898401 -0.00749456
v -0.01152799 0.03855326 0.00693587
v -0.01144991 0.03788256 -0.02784218
v -0.02412733 0.02773728 -0.04521992
v -0.02215189 0.02790646 -0.04648707
v -0.00170208 0.03759178 0.05723277
v 0.01409474 0.03733138 0.05676647
v -0.00448090 0.03987116 0.01044630
v -0.02487512 0.02774438 0.00446009
v -0.01130172 0.03730560 0.04573734
v -0.02693021 0.02056774 -0.02179909
v -0.00323110 0.03979965 0.03667994
v -0.00667806 0.03969560 0.02932671
v -0.02499313 0.02908354 -0.00253465
v -0.02470964 0.02768971 -0.04075716
vn 0.62245345 0.41523631 0.66342333
vn 0.52685431 -0.66508506 0.52923189
vn 0.66269673 0.60383543 -0.44296255
vn -0.58713223 0.33986887 -0.73468694
vn -0.64338393 -0.26430659 0.71847000
vn 0.46929900 -0.67065577 -0.57443824
vn -0.46760108 0.88166361 0.06339173
vn 0.98528369 0.08700316 -0.14712748
vn -0.09319523 -0.21147173 0.97293081
vn 0.25406583 -0.23621805 -0.93789743
vn -0.68737551 -0.71424993 0.13176469
vn 0.11100205 0.98716860 0.11478982
vn -0.16150781 0.96278545 -0.21670121
vn 0.66041325 -0.25293765 0.70701972
vn 0.74618599 0.66534449 0.02287320
vn 0.77338212 -0.21380386 -0.59679812
vn -0.61145122 0.34915951 0.71008101
vn 0.15783364 0.52962887 -0.83341575
vn -0.61983509 -0.71473406 -0.32397484
vn -0.34285162 -0.84884550 0.40238548
vn -0.01433081 0.99903096 0.04161458
vn -0.74112975 0.65217335 -0.15936316
vn 0.65951028 -0.13843848 0.73883758
vn 0.66406974 0.74090752 0.10033660
vn 0.13768852 0.99047299 0.00226278
vn 0.77364259 -0.61552312 -0.15036103
vn -0.98299484 0.01938964 0.18260666
vn -0.20635296 0.60749082 0.76705499
vn -0.63361468 -0.18866002 -0.75029317
vn 0.02047249 0.93899804 -0.34331263
vn 0.13871580 -0.89553414 -0.42281975
vn -0.62324880 -0.42526904 0.65628285
vn -0.11890925 0.99290431 0.00127036
vn -0.47525002 0.87982030 -0.00732566
vn -0.39966469 0.64578219 -0.65056398
vn 0.14611078 0.58204536 0.79992177
vn 0.15699065 0.98642762 0.04810920
vn -0.02585767 0.99588683 -0.08683780
vn -0.76613094 -0.52960456 0.36409119
vn -0.85003679 -0.03400343 0.52562460
vn -0.81332746 0.58015981 0.04373827
vn -0.99685556 0.06554355 0.04453126
vn -0.02823046 0.99019726 0.13679340
vn -0.27617158 0.95485712 0.10944008
vn -0.94064213 0.23732312 -0.24263165
vn 0.12250891 0.95109657 -0.28356106
vn 0.09093809 -0.99486790 0.04436345
vn -0.27862800 0.96036452 -0.00814977
vn -0.39017470 0.91029132 -0.13832361
vn -0.69881620 0.66044046 -0.27472588
vn -0.23625418 0.88059594 -0.41077336
vn -0.02776111 0.25914613 0.96543907
vn 0.10304177 0.87790561 0.46761536
vn -0.08858674 0.99604169 -0.00730320
vn -0.94215205 0.29861710 0.15224105
vn -0.61179784 0.77513725 0.15768845
vn -0.99451559 0.10268133 -0.01988176
vn -0.09419194 0.99428102 0.05033027
vn -0.15586838 0.98759749 0.01887462
vn -0.93482448 0.35482030 0.01434390
vn -0.97694286 0.20376621 -0.06373372
f 14//14 2//2 8//8
f 14//14 9//9 5//5
f 14//14 5//5 2//2
f 15//15 8//8 3//3
f 15//15 1//1 8//8
f 16//16 3//3 8//8
f 16//16 10//10 3//3
f 16//16 6//6 10//10
f 17//17 5//5 9//9
f 18//18 3//3 10//10
f 20//20 11//11 2//2
f 23//23 14//14 8//8
f 23//23 8//8 1//1
f 23//23 9//9 14//14
f 24//24 15//15 12//12
f 24//24 1//1 15//15
f 25//25 15//15 3//3
f 25//25 21//21 12//12
f 26//26 16//16 8//8
f 26//26 8//8 2//2
f 26//26 6//6 16//16
f 28//28 17//17 9//9
f 29//29 18//18 10//10
f 29//29 4//4 18//18
f 30//30 18//18 13//13
f 31//31 10//10 6//6
f 31//31 6//6 26//26
f 31//31 26//26 2//2
f 31//31 29//29 10//10
f 31//31 19//19 29//29
f 32//32 20//20 2//2
f 32//32 2//2 5//5
f 35//35 18//18 4//4
f 36//36 23//23 1//1
f 36//36 9//9 23//23
f 36//36 1//1 24//24
f 37//37 25//25 12//12
f 37//37 12//12 15//15
f 37//37 15//15 25//25
f 38//38 30//30 13//13
f 39//39 27//27 11//11
f 39//39 5//5 27//27
f 39//39 32//32 5//5
f 39//39 11//11 20//20
f 39//39 20//20 32//32
f 40//40 27//27 5//5
f 40//40 5//5 17//17
f 41//41 34//34 22//22
f 41//41 7//7 34//34
f 42//42 19//19 11//11
f 42//42 11//11 27//27
f 43//43 12//12 21//21
f 44//44 28//28 43//43
f 45//45 4//4 29//29
f 46//46 3//3 18//18
f 46//46 18//18 30//30
f 46//46 30//30 38//38
f 46//46 25//25 3//3
f 46//46 38//38 21//21
f 46//46 21//21 25//25
f 47//47 11//11 19//19
f 47//47 19//19 31//31
f 47//47 31//31 2//2
f 47//47 2//2 11//11
f 48//48 33//33 13//13
f 48//48 34//34 7//7
f 49//49 22//22 34//34
f 49//49 13//13 35//35
f 49//49 48//48 13//13
f 49//49 34//34 48//48
f 50//50 35//35 4//4
f 50//50 49//49 35//35
f 50//50 22//22 49//49
f 50//50 45//45 22//22
f 50//50 4//4 45//45
f 51//51 35//35 13//13
f 51//51 13//13 18//18
f 51//51 18//18 35//35
f 52//52 36//36 28//28
f 52//52 28//28 9//9
f 52//52 9//9 36//36
f 53//53 28//28 36//36
f 53//53 43//43 28//28
f 53//53 12//12 43//43
f 53//53 36//36 24//24
f 53//53 24//24 12//12
f 54//54 33//33 21//21
f 54//54 21//21 38//38
f 54//54 38//38 13//13
f 54//54 13//13 33//33
f 55//55 40//40 17//17
f 55//55 27//27 40//40
f 55//55 17//17 41//41
f 55//55 42//42 27//27
f 56//56 41//41 17//17
f 56//56 7//7 41//41
f 56//56 44//44 7//7
f 56//56 17//17 28//28
f 56//56 28//28 44//44
f 57//57 29//29 19//19
f 57//57 19//19 42//42
f 58//58 44//44 43//43
f 58//58 43//43 21//21
f 58//58 21//21 33//33
f 59//59 7//7 44//44
f 59//59 48//48 7//7
f 59//59 33//33 48//48
f 59//59 58//58 33//33
f 59//59 44//44 58//58
f 60//60 55//55 41//41
f 60//60 42//42 55//55
f 60//60 57//57 42//42
f 60//60 41//41 22//22
f 60//60 22//22 57//57
f 61//61 45//45 29//29
f 61//61 29//29 57//57
f 61//61 57//57 22//22
f 61//61 22//22 45//45

