# https://github.com/mikedh/trimesh
v 0.00772576 0.01800584 -0.01138231
v 0.00752276 -0.03410881 -0.01736885
v 0.00387617 0.01500778 -0.02333387
v -0.00566163 0.03253856 -0.02156119
v -0.01446340 -0.02952864 -0.01140649
v 0.00420273 0.03124485 -0.01845144
v 0.00836801 -0.03333287 -0.02295453
v 0.00175226 -0.04461885 -0.01139767
v -0.01426174 0.01735290 -0.01140952
v 0.00132391 0.03259238 -0.02086177
v 0.00697856 0.01876631 -0.01560932
v -0.00574459 -0.04460510 -0.02425718
v -0.01223724 0.02593872 -0.01551789
v -0.00895461 0.03187148 -0.01972743
v 0.00444323 0.01411221 -0.02258056
v -0.00781264 -0.00528324 -0.02331788
v 0.00672498 -0.03321373 -0.02392664
v -0.00580450 -0.04461885 -0.01139767
v 0.00182692 -0.04462819 -0.02415649
v -0.01315852 -0.02963443 -0.01975678
v 0.00491261 0.02629757 -0.01534741
v 0.00591369 0.01120968 -0.01971395
v 0.00034698 0.01537397 -0.02316958
v -0.00937430 0.01276394 -0.02176005
v -0.01302098 0.02162482 -0.01672341
v -0.01108631 -0.02952506 -0.02260108
v -0.01352297 0.02169418 -0.01540717
v -0.01162925 0.02001254 -0.01917180
v -0.00842900 -0.02945177 -0.02350184
v -0.01181405 0.02575950 -0.01687343
v -0.01069956 0.01998218 -0.02011816
vn 0.71627491 0.22556244 0.66035736
vn 0.92365580 -0.20732747 0.32229688
vn 0.47324860 0.10182562 -0.87502417
vn -0.19560015 0.77759823 -0.59756303
vn -0.77620772 -0.17646626 0.60527781
vn 0.67773969 0.71941359 0.15202960
vn 0.89050797 -0.18293713 -0.41656880
vn 0.43290630 -0.65168954 0.62281047
vn -0.72506561 0.18595147 0.66310023
vn 0.30914839 0.84871549 -0.42907958
vn 0.95833469 0.11601165 -0.26102859
vn -0.41482085 -0.66031989 -0.62602021
vn -0.69962756 0.56067649 0.44290309
vn -0.61588680 0.78501949 -0.06654206
vn 0.87970005 0.08993165 -0.46694765
vn -0.25725191 0.03153763 -0.96582961
vn 0.30264783 -0.04272980 -0.95214414
vn -0.39876621 -0.68584936 0.60876610
vn 0.40301729 -0.68098475 -0.61142198
vn -0.92003413 -0.16430610 -0.35572561
vn 0.24710680 0.51040409 0.82366613
vn 0.91864548 0.07935707 -0.38703093
vn -0.06963250 0.05320543 -0.99615285
vn -0.48694467 0.05553539 -0.87166548
vn -0.88768555 0.13073730 -0.44149986
vn -0.61661352 -0.05534916 -0.78531792
vn -0.97208701 0.18778053 -0.14066026
vn -0.78574915 0.08004703 -0.61334390
vn -0.26684877 0.00725509 -0.96371111
vn -0.90288324 0.26068587 -0.34182559
vn -0.62303193 0.09096366 -0.77688920
f 7//7 1//1 2//2
f 8//8 2//2 1//1
f 8//8 7//7 2//2
f 9//9 5//5 1//1
f 10//10 6//6 3//3
f 10//10 3//3 4//4
f 11//11 6//6 1//1
f 11//11 1//1 7//7
f 14//14 10//10 4//4
f 14//14 6//6 10//10
f 14//14 13//13 6//6
f 15//15 7//7 3//3
f 15//15 3//3 6//6
f 15//15 6//6 11//11
f 16//16 3//3 12//12
f 17//17 3//3 7//7
f 18//18 5//5 12//12
f 18//18 8//8 1//1
f 18//18 1//1 5//5
f 19//19 7//7 8//8
f 19//19 18//18 12//12
f 19//19 8//8 18//18
f 19//19 17//17 7//7
f 19//19 12//12 3//3
f 19//19 3//3 17//17
f 20//20 5//5 9//9
f 20//20 12//12 5//5
f 21//21 13//13 9//9
f 21//21 9//9 1//1
f 21//21 1//1 6//6
f 21//21 6//6 13//13
f 22//22 15//15 11//11
f 22//22 11//11 7//7
f 22//22 7//7 15//15
f 23//23 16//16 4//4
f 23//23 4//4 3//3
f 23//23 3//3 16//16
f 24//24 14//14 4//4
f 24//24 4//4 16//16
f 26//26 12//12 20//20
f 26//26 24//24 16//16
f 27//27 25//25 20//20
f 27//27 20//20 9//9
f 27//27 9//9 13//13
f 28//28 25//25 14//14
f 28//28 26//26 20//20
f 28//28 20//20 25//25
f 29//29 26//26 16//16
f 29//29 16//16 12//12
f 29//29 12//12 26//26
f 30//30 27//27 13//13
f 30//30 13//13 14//14
f 30//30 14//14 25//25
f 30//30 25//25 27//27
f 31//31 28//28 14//14
f 31//31 14//14 24//24
f 31//31 24//24 26//26
f 31//31 26//26 28//28

