# https://github.com/mikedh/trimesh
v 0.07362575 -0.04220967 0.02311161
v 0.07699273 -0.05293278 0.01807712
v 0.07307054 -0.04099359 -0.02038864
v 0.02291216 -0.04611633 -0.02491061
v 0.02293267 -0.05419743 0.02203688
v 0.07227418 -0.05797536 -0.01654244
v 0.02283731 -0.03661681 0.01426912
v 0.07874706 -0.04181560 0.01432831
v 0.07098865 -0.05392756 0.02168019
v 0.07246872 -0.04876114 -0.02330194
v 0.02299841 -0.05819634 -0.01802563
v 0.06218030 -0.03480700 -0.00453247
v 0.02294224 -0.04380469 0.02354758
v 0.02290155 -0.05825392 0.01693585
v 0.07621469 -0.04212282 0.02154066
v 0.07869687 -0.05331985 -0.01256210
v 0.07344547 -0.05795943 0.01244625
v 0.06922292 -0.04245459 -0.02326106
v 0.06201212 -0.05277028 -0.02318172
v 0.04866896 -0.03865146 -0.01572035
v 0.07192538 -0.03576675 -0.00366845
v 0.07168269 -0.03708240 0.01886443
v 0.06967520 -0.05031110 0.02314802
v 0.02293200 -0.05147372 -0.02353569
v 0.06215453 -0.05968239 0.00820446
v 0.06369240 -0.05804982 0.01767846
v 0.07870640 -0.04456036 0.01561617
v 0.07453344 -0.05143126 0.02151793
v 0.07430945 -0.05534566 -0.01930841
v 0.07832343 -0.04638682 -0.01484370
v 0.07459597 -0.05531227 0.01906906
v 0.07713236 -0.05552811 0.00817963
v 0.07171451 -0.04405588 -0.02327752
v 0.05159830 -0.05788962 -0.01819142
v 0.04878242 -0.04171252 -0.02353934
v 0.07087788 -0.03899817 -0.01826509
v 0.06205120 -0.03509285 0.00822932
v 0.07361886 -0.03729706 0.01894434
v 0.03356232 -0.03986530 0.02165683
v 0.02298708 -0.05162940 0.02315286
v 0.02295784 -0.05956007 -0.00231268
v 0.02297805 -0.05471368 -0.02208837
v 0.07488567 -0.05798314 -0.01395006
v 0.02302882 -0.05702185 0.01942294
v 0.07092327 -0.05806477 0.01657991
v 0.06071774 -0.05968757 0.00966503
v 0.07705969 -0.05040011 0.01921377
v 0.07717055 -0.04120988 0.01962595
v 0.07382991 -0.04590850 0.02310238
v 0.07339417 -0.05303066 0.02165998
v 0.06982548 -0.05389079 -0.02178515
v 0.07850321 -0.04366353 -0.01244540
v 0.07844831 -0.04889945 -0.01517129
v 0.07589414 -0.05429333 0.01886415
v 0.07848950 -0.05034006 0.01248115
v 0.07146926 -0.04116827 -0.02161485
v 0.07262116 -0.04356865 -0.02221471
v 0.06078783 -0.03887063 -0.01826881
v 0.07563522 -0.03960134 -0.01523279
v 0.06831224 -0.03571322 -0.00579373
v 0.02305483 -0.03706734 0.01690377
v 0.07231029 -0.03570917 0.00817567
v 0.07358192 -0.04003404 0.02172652
v 0.02601694 -0.04261879 0.02307868
vn 0.24648127 0.26856859 0.93119165
vn 0.88235965 -0.34494526 0.32008470
vn 0.58993550 0.58092115 -0.56080899
vn -0.61553669 0.35981724 -0.70117483
vn -0.66538267 -0.40648770 0.62612591
vn 0.16218230 -0.91436732 -0.37098425
vn -0.69355667 0.72003302 0.02305638
vn 0.91878802 0.38673353 0.07915652
vn 0.11334519 -0.57527163 0.81007125
vn 0.46672823 -0.10346216 -0.87832815
vn -0.63677401 -0.71142259 -0.29731591
vn 0.00282057 0.99156001 -0.12961789
vn -0.64626224 0.23489374 0.72606477
vn -0.67044441 -0.71416105 0.20119217
vn 0.69949443 0.23252421 0.67575146
vn 0.93016610 -0.32492386 -0.17092546
vn 0.41746722 -0.90218683 0.10853588
vn 0.09305097 0.44772020 -0.88931892
vn 0.03237887 -0.43605064 -0.89933945
vn -0.11625193 0.95296161 -0.27991008
vn 0.38838855 0.91812889 -0.07869989
vn 0.04334671 0.89489688 0.44416285
vn 0.07286895 -0.19430820 0.97823026
vn -0.68876797 -0.24116003 -0.68369622
vn 0.07023957 -0.99748529 0.00946069
vn 0.02534179 -0.88312657 0.46844985
vn 0.98022428 -0.01557264 0.19727610
vn 0.57778731 -0.23356305 0.78205507
vn 0.55085400 -0.53917845 -0.63706080
vn 0.91183055 0.15491707 -0.38021802
vn 0.45239138 -0.73772612 0.50110100
vn 0.80939324 -0.58382416 0.06349744
vn 0.39738906 0.20796926 -0.89377330
vn 0.01512412 -0.88978740 -0.45612460
vn -0.04174686 0.64684024 -0.76148204
vn 0.16706980 0.90537857 -0.39035539
vn 0.01063147 0.99547861 0.09438911
vn 0.38292875 0.84133604 0.38146984
vn -0.02857193 0.67625462 0.73611367
vn -0.64015474 -0.17318684 0.74847060
vn -0.68848663 -0.72508472 -0.01543749
vn -0.65267852 -0.45876015 -0.60295097
vn 0.49537258 -0.85075941 -0.17554038
vn -0.59177167 -0.64055332 0.48938505
vn 0.20660048 -0.91350240 0.35047055
vn 0.02184514 -0.99495175 0.09794796
vn 0.85514020 -0.15559220 0.49449601
vn 0.82915936 0.39473964 0.39582240
vn 0.36583134 -0.07722645 0.92747157
vn 0.35686542 -0.42686392 0.83092374
vn 0.14860256 -0.57025095 -0.80791778
vn 0.94265572 0.29540214 -0.15536334
vn 0.92724022 -0.02467809 -0.37365299
vn 0.70494392 -0.54545878 0.45335283
vn 0.97984121 -0.18032263 0.08599386
vn 0.27812377 0.68822711 -0.67006762
vn 0.72502107 0.24791080 -0.64256103
vn -0.00837175 0.92345188 -0.38362290
vn 0.65635308 0.68760597 -0.31048135
vn 0.11637162 0.97184941 -0.20485694
vn -0.60646063 0.71029721 0.35732811
vn 0.39092253 0.91969837 0.03653055
vn 0.25428902 0.61545815 0.74602169
vn -0.07550136 0.55575911 0.82790782
f 13//13 7//7 5//5
f 14//14 7//7 4//4
f 14//14 5//5 7//7
f 19//19 4//4 10//10
f 20//20 4//4 7//7
f 20//20 7//7 12//12
f 23//23 1//1 13//13
f 24//24 14//14 4//4
f 24//24 4//4 19//19
f 27//27 16//16 8//8
f 33//33 10//10 4//4
f 33//33 4//4 18//18
f 34//34 6//6 11//11
f 35//35 18//18 4//4
f 35//35 4//4 20//20
f 37//37 12//12 7//7
f 40//40 23//23 13//13
f 40//40 13//13 5//5
f 40//40 5//5 9//9
f 40//40 9//9 23//23
f 41//41 24//24 11//11
f 41//41 14//14 24//24
f 41//41 11//11 6//6
f 41//41 6//6 25//25
f 42//42 24//24 19//19
f 42//42 11//11 24//24
f 42//42 34//34 11//11
f 42//42 19//19 34//34
f 43//43 25//25 6//6
f 43//43 17//17 25//25
f 43//43 32//32 17//17
f 43//43 16//16 32//32
f 43//43 29//29 16//16
f 43//43 6//6 29//29
f 44//44 26//26 9//9
f 44//44 9//9 5//5
f 44//44 5//5 14//14
f 44//44 14//14 26//26
f 45//45 25//25 17//17
f 45//45 17//17 31//31
f 45//45 31//31 9//9
f 45//45 9//9 26//26
f 46//46 26//26 14//14
f 46//46 45//45 26//26
f 46//46 25//25 45//45
f 46//46 41//41 25//25
f 46//46 14//14 41//41
f 47//47 2//2 27//27
f 47//47 15//15 28//28
f 48//48 27//27 8//8
f 48//48 47//47 27//27
f 48//48 15//15 47//47
f 48//48 38//38 15//15
f 48//48 8//8 38//38
f 49//49 28//28 15//15
f 49//49 15//15 1//1
f 49//49 1//1 23//23
f 50//50 23//23 9//9
f 50//50 9//9 31//31
f 50//50 49//49 23//23
f 50//50 28//28 49//49
f 51//51 19//19 10//10
f 51//51 10//10 29//29
f 51//51 29//29 6//6
f 51//51 34//34 19//19
f 51//51 6//6 34//34
f 52//52 8//8 16//16
f 53//53 29//29 10//10
f 53//53 16//16 29//29
f 53//53 52//52 16//16
f 53//53 30//30 52//52
f 54//54 50//50 31//31
f 54//54 28//28 50//50
f 54//54 47//47 28//28
f 54//54 2//2 47//47
f 54//54 32//32 2//2
f 54//54 31//31 17//17
f 54//54 17//17 32//32
f 55//55 27//27 2//2
f 55//55 2//2 32//32
f 55//55 32//32 16//16
f 55//55 16//16 27//27
f 56//56 33//33 18//18
f 56//56 3//3 33//33
f 56//56 36//36 3//3
f 56//56 18//18 35//35
f 56//56 35//35 36//36
f 57//57 10//10 33//33
f 57//57 53//53 10//10
f 57//57 30//30 53//53
f 57//57 33//33 3//3
f 57//57 3//3 30//30
f 58//58 20//20 12//12
f 58//58 12//12 36//36
f 58//58 36//36 35//35
f 58//58 35//35 20//20
f 59//59 36//36 21//21
f 59//59 3//3 36//36
f 59//59 8//8 52//52
f 59//59 52//52 30//30
f 59//59 30//30 3//3
f 60//60 36//36 12//12
f 60//60 12//12 21//21
f 60//60 21//21 36//36
f 61//61 37//37 7//7
f 61//61 22//22 37//37
f 61//61 39//39 22//22
f 61//61 7//7 13//13
f 62//62 21//21 12//12
f 62//62 12//12 37//37
f 62//62 37//37 22//22
f 62//62 22//22 38//38
f 62//62 38//38 8//8
f 62//62 59//59 21//21
f 62//62 8//8 59//59
f 63//63 38//38 22//22
f 63//63 1//1 15//15
f 63//63 15//15 38//38
f 63//63 39//39 1//1
f 63//63 22//22 39//39
f 64//64 13//13 1//1
f 64//64 1//1 39//39
f 64//64 61//61 13//13
f 64//64 39//39 61//61

