# https://github.com/mikedh/trimesh
v 0.07267765 -0.03574161 0.01433659
v 0.07388594 -0.03689754 0.01350771
v 0.06224434 -0.03804760 -0.01154249
v 0.02298669 -0.04506367 -0.02488612
v 0.02291120 -0.04613021 0.01429533
v 0.06220637 -0.04613021 0.00069315
v 0.02302215 -0.03584399 -0.00487468
v 0.07231029 -0.03570917 0.00817567
v 0.06220637 -0.04613021 0.01429533
v 0.07374179 -0.03736060 0.00815103
v 0.04851797 -0.04598803 -0.02482144
v 0.02832569 -0.03883054 -0.02002651
v 0.02283731 -0.03661681 0.01426912
v 0.05887314 -0.03415873 0.00053098
v 0.02292797 -0.04588685 -0.02494647
v 0.02275680 -0.04175099 -0.02413718
v 0.04876553 -0.04142572 -0.02289106
v 0.07196624 -0.03560825 0.01308800
v 0.06367129 -0.03567212 0.01389962
v 0.04440593 -0.03427511 -0.00242063
v 0.05802834 -0.03415321 -0.00617628
v 0.02310745 -0.04045077 -0.02125612
v 0.04847691 -0.04404505 -0.02467458
v 0.03434912 -0.04023224 -0.02220384
v 0.05756574 -0.03424593 0.00198636
v 0.02298103 -0.03578054 0.00196829
v 0.06215469 -0.03556064 -0.00523896
v 0.04744929 -0.03436754 -0.00911767
v 0.05599209 -0.03440823 -0.00919802
v 0.02662358 -0.04025678 -0.02233433
v 0.05036847 -0.03439916 0.00174885
v 0.04440230 -0.03434046 -0.00645830
v 0.04055503 -0.03858054 -0.01887444
vn 0.42524615 0.56970528 0.70327919
vn 0.91238754 -0.05528094 0.40557735
vn 0.75759371 0.23256938 -0.60988790
vn -0.37636984 0.13586852 -0.91645266
vn -0.57424083 -0.58013480 0.57766001
vn 0.42148538 -0.89168687 -0.16505938
vn -0.68928830 0.71966902 -0.08341547
vn 0.49621250 0.85035010 -0.17515098
vn 0.24795844 -0.72658390 0.64077488
vn 0.97211208 -0.08560265 -0.21833526
vn 0.31605270 -0.60886261 -0.72759674
vn -0.09133854 0.92106059 -0.37855602
vn -0.59339682 0.53989308 0.59698885
vn 0.05061549 0.99845266 0.02302964
vn -0.56249378 -0.56110038 -0.60726198
vn -0.64971537 0.44808784 -0.61407429
vn 0.23976456 0.67085493 -0.70175966
vn 0.10659827 0.99355958 0.03842086
vn -0.01129504 0.95426689 0.29874257
vn -0.04113826 0.99878135 0.02726626
vn 0.18769089 0.96872210 -0.16232567
vn -0.51387782 0.81241094 -0.27553229
vn 0.31990336 0.27739019 -0.90593406
vn 0.02658053 0.79878220 -0.60103284
vn -0.00682835 0.99611681 0.08777624
vn -0.69499601 0.71877749 0.01842475
vn 0.39657714 0.86603537 -0.30448203
vn -0.02198817 0.97836322 -0.20572294
vn 0.16012959 0.93127938 -0.32722657
vn -0.05216410 0.83398021 -0.54932314
vn -0.02692432 0.99542784 0.09164327
vn -0.05254844 0.99736910 -0.04993543
vn 0.03835068 0.88251077 -0.46872590
f 8//8 1//1 2//2
f 9//9 2//2 1//1
f 9//9 1//1 5//5
f 9//9 5//5 6//6
f 10//10 9//9 6//6
f 10//10 2//2 9//9
f 10//10 8//8 2//2
f 10//10 3//3 8//8
f 11//11 10//10 6//6
f 11//11 3//3 10//10
f 11//11 6//6 5//5
f 13//13 5//5 1//1
f 15//15 11//11 5//5
f 15//15 4//4 11//11
f 16//16 4//4 15//15
f 16//16 13//13 7//7
f 16//16 15//15 5//5
f 16//16 5//5 13//13
f 18//18 1//1 8//8
f 18//18 8//8 14//14
f 19//19 13//13 1//1
f 21//21 14//14 8//8
f 21//21 20//20 14//14
f 22//22 16//16 7//7
f 22//22 7//7 12//12
f 22//22 12//12 16//16
f 23//23 11//11 4//4
f 23//23 4//4 16//16
f 23//23 16//16 17//17
f 23//23 17//17 3//3
f 23//23 3//3 11//11
f 24//24 17//17 16//16
f 25//25 18//18 14//14
f 25//25 1//1 18//18
f 25//25 19//19 1//1
f 25//25 13//13 19//19
f 25//25 14//14 20//20
f 26//26 20//20 7//7
f 26//26 7//7 13//13
f 26//26 13//13 20//20
f 27//27 21//21 8//8
f 27//27 8//8 3//3
f 28//28 12//12 7//7
f 29//29 3//3 17//17
f 29//29 28//28 21//21
f 29//29 12//12 28//28
f 29//29 27//27 3//3
f 29//29 21//21 27//27
f 30//30 24//24 16//16
f 30//30 16//16 12//12
f 30//30 12//12 24//24
f 31//31 25//25 20//20
f 31//31 20//20 13//13
f 31//31 13//13 25//25
f 32//32 28//28 7//7
f 32//32 7//7 20//20
f 32//32 20//20 21//21
f 32//32 21//21 28//28
f 33//33 29//29 17//17
f 33//33 17//17 24//24
f 33//33 24//24 12//12
f 33//33 12//12 29//29

