# https://github.com/mikedh/trimesh
v 0.06953345 0.05409606 0.02303248
v 0.07534106 0.04357739 0.01962633
v 0.07399024 0.05541007 -0.01645100
v 0.03358197 0.05601698 -0.02248104
v 0.02296400 0.04098477 0.02196436
v 0.05491758 0.06107718 0.01106722
v 0.07562086 0.05550461 0.01821181
v 0.05759563 0.04525182 0.02454739
v 0.05134225 0.03732895 -0.01496192
v 0.06588434 0.06086889 -0.01116330
v 0.01398988 0.05556910 0.02258779
v 0.07312590 0.04781081 0.02324907
v 0.07722212 0.04515938 -0.01320113
v 0.07151194 0.05800373 0.01949796
v 0.06781845 0.04018014 0.02198706
v 0.02286258 0.03807020 -0.01565266
v 0.07156000 0.04554296 -0.02176500
v 0.06940287 0.05820491 -0.01761472
v 0.02294765 0.05865969 -0.01565551
v 0.07297028 0.05834171 -0.01357447
v 0.05456942 0.05169751 0.02462677
v 0.03664012 0.04630345 0.02476528
v 0.07457775 0.05329221 0.02149992
v 0.07726539 0.04733583 0.01271440
v 0.07704179 0.05314413 -0.00948369
v 0.06205117 0.05561602 0.02302228
v 0.01385270 0.05828486 0.01921073
v 0.06941694 0.05938054 0.01680685
v 0.03815958 0.04480752 0.02466155
v 0.06824410 0.04236074 0.02298749
v 0.03344767 0.03550628 0.00518972
v 0.07209139 0.03725706 -0.00814157
v 0.02307758 0.03704404 0.01387636
v 0.07537452 0.05041478 -0.01663649
v 0.06247553 0.04517812 -0.02161441
v 0.04674980 0.05936083 -0.01827471
v 0.07046577 0.05252897 -0.02210329
v 0.04506030 0.06102284 -0.01274461
v 0.06764321 0.05959539 -0.01565018
v 0.07292781 0.05654992 -0.01640919
v 0.07451657 0.05647937 0.01796118
v 0.06061983 0.05033288 0.02469084
v 0.02301307 0.04347240 0.02354595
v 0.02280938 0.05282940 0.02378340
v 0.07307407 0.05027155 0.02302289
v 0.07195383 0.05544056 0.02165647
v 0.07473076 0.05503187 0.02048880
v 0.07571908 0.04665113 0.02071938
v 0.07700823 0.04356418 0.00206779
v 0.07706434 0.05331648 0.00051792
v 0.07557906 0.05592673 -0.01270231
v 0.01381362 0.05492542 0.02294610
v 0.06226699 0.05786218 0.02075884
v 0.01384575 0.05923625 0.01422552
v 0.06493129 0.06103078 0.00067239
v 0.05632401 0.05932555 0.01804670
v 0.06651270 0.06093821 -0.00402128
v 0.03371082 0.03973227 0.02160764
v 0.06057794 0.04769982 0.02478112
v 0.07306569 0.04235342 0.02166613
v 0.02249313 0.03707192 -0.01120715
v 0.07319482 0.04124858 -0.01800268
v 0.06661057 0.03568249 -0.00215154
v 0.06662122 0.03723317 0.01698559
vn 0.16599993 0.36616476 0.91562405
vn 0.80582212 -0.51024637 0.30049850
vn 0.73905376 0.43806656 -0.51175896
vn -0.19844689 0.35835501 -0.91225025
vn -0.42488205 -0.69010466 0.58585904
vn 0.00587659 0.99264805 0.12089383
vn 0.84962742 0.47576516 0.22755386
vn 0.02415532 -0.26772150 0.96319350
vn 0.01241243 -0.88157642 -0.47187811
vn 0.14498173 0.98260885 -0.11601787
vn -0.41207118 0.61400380 0.67319885
vn 0.42421713 -0.06185604 0.90344544
vn 0.94103195 -0.23327663 -0.24503239
vn 0.32092908 0.83130127 0.45380913
vn 0.17409072 -0.69838562 0.69422615
vn -0.56775354 -0.57259874 -0.59142760
vn 0.41167116 -0.27478397 -0.86891923
vn 0.28012322 0.75650316 -0.59096019
vn -0.61902175 0.60410500 -0.50186575
vn 0.53565687 0.81767008 -0.21092026
vn 0.00106070 0.21683380 0.97620796
vn -0.03824545 -0.01641987 0.99913346
vn 0.67414358 0.23760216 0.69933943
vn 0.99248028 -0.07657030 0.09549811
vn 0.96786320 0.23456191 -0.09067267
vn 0.04623903 0.52444728 0.85018645
vn -0.65775999 0.68247811 0.31870899
vn 0.23908332 0.95057866 0.19808934
vn -0.01049382 -0.29694015 0.95483843
vn 0.14236091 -0.32569308 0.93469642
vn -0.04361647 -0.99837086 0.03678622
vn 0.48278064 -0.86395212 -0.14321173
vn -0.49958274 -0.84554714 0.18832717
vn 0.86633222 0.11705297 -0.48555852
vn -0.00817819 -0.40274078 -0.91527754
vn 0.01560649 0.85770902 -0.51389851
vn 0.37292684 0.28821271 -0.88196315
vn -0.03300342 0.98818259 -0.14968616
vn 0.16583477 0.92228364 -0.34912994
vn 0.56890654 0.63516396 -0.52240989
vn 0.57920433 0.79744370 0.16913275
vn 0.06135516 0.14319132 0.98779137
vn -0.26960142 -0.33777060 0.90179049
vn -0.05219480 0.14562702 0.98796178
vn 0.38363471 0.13796648 0.91312084
vn 0.27984884 0.53026844 0.80031244
vn 0.68244169 0.46296166 0.56563224
vn 0.86675633 -0.10165398 0.48826216
vn 0.91297343 -0.40689844 0.03021885
vn 0.95961831 0.28121857 0.00698665
vn 0.84231782 0.49745269 -0.20746450
vn -0.73935550 0.03328563 0.67249201
vn 0.03691984 0.81364982 0.58018177
vn -0.78120253 0.62340027 -0.03308641
vn 0.09578423 0.99499741 0.02838198
vn 0.00098594 0.93137619 0.36405690
vn 0.21194075 0.97728236 -0.00055008
vn -0.02724734 -0.76306100 0.64575188
vn 0.06800351 -0.06760543 0.99539190
vn 0.52162900 -0.58987326 0.61640305
vn -0.60570033 -0.78212687 -0.14630337
vn 0.51603533 -0.64974300 -0.55815910
vn 0.15534871 -0.98763632 -0.02100656
vn 0.24361478 -0.93257095 0.26638931
f 19//19 4//4 16//16
f 25//25 24//24 13//13
f 29//29 15//15 8//8
f 30//30 8//8 15//15
f 34//34 13//13 17//17
f 34//34 25//25 13//13
f 35//35 16//16 4//4
f 35//35 4//4 17//17
f 35//35 9//9 16//16
f 36//36 18//18 4//4
f 36//36 4//4 19//19
f 37//37 17//17 4//4
f 37//37 4//4 18//18
f 37//37 34//34 17//17
f 37//37 3//3 34//34
f 38//38 36//36 19//19
f 39//39 20//20 18//18
f 39//39 10//10 20//20
f 39//39 18//18 36//36
f 39//39 38//38 10//10
f 39//39 36//36 38//38
f 40//40 20//20 3//3
f 40//40 18//18 20//20
f 40//40 37//37 18//18
f 40//40 3//3 37//37
f 41//41 7//7 20//20
f 41//41 28//28 14//14
f 41//41 20//20 28//28
f 42//42 26//26 21//21
f 42//42 1//1 26//26
f 42//42 21//21 22//22
f 43//43 29//29 22//22
f 44//44 22//22 21//21
f 44//44 43//43 22//22
f 45//45 23//23 1//1
f 45//45 12//12 23//23
f 45//45 42//42 12//12
f 45//45 1//1 42//42
f 46//46 1//1 23//23
f 46//46 26//26 1//1
f 46//46 14//14 26//26
f 47//47 23//23 7//7
f 47//47 46//46 23//23
f 47//47 14//14 46//46
f 47//47 41//41 14//14
f 47//47 7//7 41//41
f 48//48 23//23 12//12
f 48//48 7//7 23//23
f 48//48 24//24 7//7
f 48//48 2//2 24//24
f 49//49 24//24 2//2
f 49//49 13//13 24//24
f 49//49 32//32 13//13
f 49//49 2//2 32//32
f 50//50 7//7 24//24
f 50//50 24//24 25//25
f 51//51 3//3 20//20
f 51//51 50//50 25//25
f 51//51 20//20 7//7
f 51//51 7//7 50//50
f 51//51 34//34 3//3
f 51//51 25//25 34//34
f 52//52 26//26 11//11
f 52//52 21//21 26//26
f 52//52 44//44 21//21
f 52//52 43//43 44//44
f 52//52 5//5 43//43
f 52//52 33//33 5//5
f 52//52 11//11 27//27
f 53//53 26//26 14//14
f 53//53 14//14 28//28
f 53//53 27//27 11//11
f 53//53 11//11 26//26
f 54//54 19//19 16//16
f 54//54 52//52 27//27
f 54//54 38//38 19//19
f 54//54 27//27 6//6
f 54//54 6//6 38//38
f 55//55 6//6 28//28
f 55//55 38//38 6//6
f 55//55 10//10 38//38
f 56//56 28//28 6//6
f 56//56 6//6 27//27
f 56//56 53//53 28//28
f 56//56 27//27 53//53
f 57//57 28//28 20//20
f 57//57 20//20 10//10
f 57//57 55//55 28//28
f 57//57 10//10 55//55
f 58//58 15//15 29//29
f 58//58 5//5 33//33
f 58//58 43//43 5//5
f 58//58 29//29 43//43
f 59//59 29//29 8//8
f 59//59 22//22 29//29
f 59//59 42//42 22//22
f 59//59 12//12 42//42
f 59//59 30//30 12//12
f 59//59 8//8 30//30
f 60//60 30//30 15//15
f 60//60 12//12 30//30
f 60//60 48//48 12//12
f 60//60 2//2 48//48
f 61//61 16//16 9//9
f 61//61 31//31 33//33
f 61//61 33//33 52//52
f 61//61 54//54 16//16
f 61//61 52//52 54//54
f 62//62 17//17 13//13
f 62//62 13//13 32//32
f 62//62 32//32 9//9
f 62//62 35//35 17//17
f 62//62 9//9 35//35
f 63//63 9//9 32//32
f 63//63 61//61 9//9
f 63//63 31//31 61//61
f 64//64 33//33 31//31
f 64//64 58//58 33//33
f 64//64 15//15 58//58
f 64//64 31//31 63//63
f 64//64 60//60 15//15
f 64//64 63//63 32//32
f 64//64 32//32 2//2
f 64//64 2//2 60//60

