# https://github.com/mikedh/trimesh
v 0.02280938 0.05282940 0.02378340
v 0.06064418 0.03904128 -0.01557421
v 0.06128652 0.05892082 -0.01546412
v -0.06865450 0.05496906 -0.02480494
v -0.06583821 0.03590927 0.01966438
v 0.05277417 0.04764768 -0.02338009
v -0.07316880 0.05801160 0.01631117
v 0.02301307 0.04347240 0.02354595
v -0.00795234 0.02616470 -0.02062000
v 0.06101312 0.05318567 -0.02168208
v 0.02289594 0.05921089 0.01427295
v -0.06907048 0.05963780 -0.01140356
v -0.06592162 0.05423455 0.02312884
v -0.07663062 0.04033212 -0.01120239
v -0.00029558 0.03247612 0.02330789
v 0.05888997 0.04298957 -0.02040701
v -0.06205146 0.04762752 -0.02488235
v 0.06157366 0.05839593 -0.01666211
v 0.03629860 0.05439807 -0.02314666
v -0.05309662 0.05809483 -0.02200401
v 0.00918652 0.05954646 0.00983526
v -0.07108761 0.04082305 0.02342710
v 0.01385270 0.05828486 0.01921073
v -0.06919035 0.03571898 -0.01126251
v -0.07523985 0.05675425 -0.01261895
v -0.01387454 0.02629014 -0.00971584
v -0.05540240 0.04176690 0.02479799
v 0.02312197 0.03843364 0.01826946
v -0.00572161 0.02640585 -0.02164167
v 0.06050448 0.04550082 -0.02173539
v -0.06045978 0.05467697 -0.02481767
v -0.07319905 0.04097432 -0.02145780
v 0.06064653 0.03967344 -0.01642131
v 0.05138464 0.05105627 -0.02319830
v 0.03364296 0.05711097 -0.02180808
v -0.06752022 0.05648858 -0.02380721
v 0.00915654 0.05953363 0.01403979
v -0.00425883 0.05950587 -0.00807267
v -0.07265587 0.05159454 0.02143317
v -0.00689203 0.03252138 0.02318741
v -0.07231115 0.03680558 0.01528733
v -0.05728976 0.05758596 0.01955579
v 0.02126161 0.05390717 0.02316275
v -0.07662761 0.05175175 0.01114238
v -0.07396957 0.05803610 -0.01132097
v -0.01181405 0.02575950 -0.01687343
v 0.00156579 0.04479691 0.02470311
v -0.02995713 0.05022292 0.02466914
v -0.05565086 0.04607697 0.02470220
v 0.02299632 0.03997799 0.02090718
v 0.04859700 0.04556066 -0.02325106
v 0.05588724 0.04396300 -0.02167706
v -0.06872135 0.04801102 -0.02451851
v -0.07501983 0.05006498 -0.01968137
v -0.07325183 0.03729186 -0.01401430
v -0.07005945 0.03719667 -0.01802053
v 0.05894848 0.04154515 -0.01890547
v 0.05290388 0.05026711 -0.02324348
v 0.03341964 0.05817317 -0.01975214
v -0.05710287 0.05782707 -0.02239431
v -0.07388969 0.05695294 -0.01656566
v -0.02237319 0.05958243 0.01420343
v -0.07155684 0.04714792 0.02314904
v -0.07019896 0.05687279 0.02008778
vn 0.38222571 0.35116957 0.85474174
vn 0.75350942 -0.65206335 0.08388649
vn 0.68143839 0.70183009 0.20754815
vn -0.37613828 0.35191993 -0.85713030
vn -0.18636671 -0.88422600 0.42826607
vn 0.10599761 -0.10288661 -0.98902925
vn -0.57929070 0.75857062 0.29831677
vn 0.41650864 -0.24318355 0.87600360
vn -0.04658649 -0.95729355 -0.28533973
vn 0.67047148 0.26761539 -0.69198988
vn 0.19715305 0.92999339 0.31023051
vn -0.16040569 0.98217527 -0.09798855
vn -0.12272756 0.43956622 0.88978620
vn -0.92422243 -0.36989735 -0.09480957
vn 0.10118515 -0.70832045 0.69860125
vn 0.25866166 -0.62097171 -0.73992451
vn -0.03587648 -0.15994631 -0.98647355
vn 0.75225613 0.58489008 -0.30333861
vn 0.04122865 0.30644368 -0.95099552
vn 0.00039992 0.91528927 -0.40279697
vn 0.00728008 0.99997298 -0.00101858
vn -0.55480216 -0.35366313 0.75307167
vn 0.04485560 0.86267851 0.50375963
vn -0.24690752 -0.96664919 -0.06801483
vn -0.87803027 0.46285132 -0.12178460
vn -0.01431965 -0.99460277 0.10276323
vn -0.04772257 -0.19913816 0.97880874
vn 0.35241029 -0.83958328 0.41340889
vn 0.09240201 -0.77401106 -0.62639345
vn 0.67294838 -0.25265965 -0.69520039
vn 0.01160883 0.24844742 -0.96857582
vn -0.58662874 -0.42548311 -0.68907971
vn 0.74386814 -0.50681988 -0.43565331
vn 0.05040869 0.21663671 -0.97495000
vn 0.03342778 0.70826877 -0.70515100
vn -0.18994978 0.79170480 -0.58062259
vn 0.00818356 0.99307672 0.11718217
vn 0.00411535 0.99973455 -0.02266938
vn -0.71732576 0.20291702 0.66653465
vn -0.03322042 -0.73998498 0.67180253
vn -0.66630645 -0.71926375 0.19671137
vn -0.01399954 0.88286008 0.46942741
vn 0.14863551 0.68941805 0.70895009
vn -0.98162111 0.11065474 0.15548478
vn -0.51183239 0.85660098 -0.06528679
vn -0.03158098 -0.99747484 -0.06361281
vn 0.02279946 -0.02410714 0.99944936
vn -0.00093383 0.18238483 0.98322678
vn -0.04274066 0.07778717 0.99605341
vn 0.42300097 -0.65064962 0.63065462
vn 0.06554635 -0.24264877 -0.96789733
vn 0.13956737 -0.47441855 -0.86916511
vn -0.26722976 -0.14559788 -0.95256995
vn -0.87300040 0.10921426 -0.47533415
vn -0.54683840 -0.81623354 -0.18636140
vn -0.28287210 -0.85944726 -0.42583304
vn 0.20782113 -0.70444993 -0.67864621
vn 0.09638596 0.12270611 -0.98775146
vn 0.01615069 0.94189574 -0.33551686
vn -0.02537376 0.87195143 -0.48893444
vn -0.64423657 0.67572326 -0.35826990
vn -0.00592773 0.98813834 0.15345191
vn -0.55696107 0.04662380 0.82922891
vn -0.30135707 0.71816418 0.62723531
f 8//8 2//2 3//3
f 8//8 3//3 1//1
f 11//11 1//1 3//3
f 18//18 3//3 2//2
f 20//20 12//12 3//3
f 28//28 15//15 2//2
f 30//30 6//6 10//10
f 31//31 17//17 4//4
f 31//31 6//6 17//17
f 33//33 18//18 2//2
f 33//33 10//10 18//18
f 33//33 30//30 10//10
f 33//33 16//16 30//30
f 33//33 2//2 29//29
f 34//34 19//19 10//10
f 34//34 31//31 19//19
f 35//35 18//18 10//10
f 35//35 10//10 19//19
f 35//35 31//31 4//4
f 35//35 19//19 31//31
f 36//36 35//35 4//4
f 37//37 11//11 3//3
f 37//37 3//3 21//21
f 37//37 23//23 11//11
f 38//38 21//21 3//3
f 38//38 3//3 12//12
f 38//38 12//12 21//21
f 40//40 22//22 5//5
f 40//40 27//27 22//22
f 40//40 15//15 27//27
f 40//40 26//26 15//15
f 40//40 5//5 26//26
f 41//41 5//5 22//22
f 41//41 26//26 5//5
f 42//42 13//13 23//23
f 43//43 23//23 13//13
f 43//43 13//13 1//1
f 43//43 1//1 11//11
f 43//43 11//11 23//23
f 44//44 25//25 14//14
f 44//44 7//7 25//25
f 44//44 39//39 7//7
f 44//44 14//14 41//41
f 44//44 41//41 22//22
f 44//44 22//22 39//39
f 45//45 25//25 7//7
f 45//45 7//7 12//12
f 46//46 9//9 29//29
f 46//46 15//15 26//26
f 46//46 29//29 2//2
f 46//46 2//2 15//15
f 46//46 41//41 24//24
f 46//46 26//26 41//41
f 47//47 27//27 15//15
f 47//47 15//15 8//8
f 47//47 8//8 1//1
f 48//48 1//1 13//13
f 48//48 47//47 1//1
f 48//48 27//27 47//47
f 49//49 22//22 27//27
f 49//49 48//48 13//13
f 49//49 27//27 48//48
f 50//50 28//28 2//2
f 50//50 2//2 8//8
f 50//50 8//8 15//15
f 50//50 15//15 28//28
f 51//51 29//29 17//17
f 51//51 17//17 6//6
f 51//51 6//6 30//30
f 52//52 30//30 16//16
f 52//52 16//16 29//29
f 52//52 51//51 30//30
f 52//52 29//29 51//51
f 53//53 32//32 4//4
f 53//53 4//4 17//17
f 53//53 17//17 29//29
f 53//53 29//29 32//32
f 54//54 4//4 32//32
f 54//54 32//32 14//14
f 54//54 14//14 25//25
f 55//55 14//14 32//32
f 55//55 41//41 14//14
f 55//55 24//24 41//41
f 56//56 32//32 29//29
f 56//56 29//29 9//9
f 56//56 55//55 32//32
f 56//56 9//9 46//46
f 56//56 46//46 24//24
f 56//56 24//24 55//55
f 57//57 33//33 29//29
f 57//57 29//29 16//16
f 57//57 16//16 33//33
f 58//58 34//34 10//10
f 58//58 10//10 6//6
f 58//58 6//6 31//31
f 58//58 31//31 34//34
f 59//59 35//35 20//20
f 59//59 20//20 3//3
f 59//59 3//3 18//18
f 59//59 18//18 35//35
f 60//60 36//36 12//12
f 60//60 12//12 20//20
f 60//60 20//20 35//35
f 60//60 35//35 36//36
f 61//61 36//36 4//4
f 61//61 25//25 45//45
f 61//61 45//45 12//12
f 61//61 12//12 36//36
f 61//61 54//54 25//25
f 61//61 4//4 54//54
f 62//62 37//37 21//21
f 62//62 21//21 12//12
f 62//62 12//12 7//7
f 62//62 7//7 42//42
f 62//62 42//42 23//23
f 62//62 23//23 37//37
f 63//63 39//39 22//22
f 63//63 13//13 39//39
f 63//63 49//49 13//13
f 63//63 22//22 49//49
f 64//64 39//39 13//13
f 64//64 7//7 39//39
f 64//64 42//42 7//7
f 64//64 13//13 42//42

