# https://github.com/mikedh/trimesh
v -0.04258883 -0.04427542 0.01620141
v -0.04275792 -0.05364844 0.01504694
v -0.04265357 -0.04518986 -0.01650365
v -0.06555354 -0.04702858 -0.01641810
v -0.06836052 -0.05181187 0.01409949
v -0.04274482 -0.05650604 -0.01194012
v -0.06637359 -0.04070109 -0.01007016
v -0.06365905 -0.05094965 0.01604715
v -0.04278500 -0.05168637 -0.01653053
v -0.06578694 -0.05620494 -0.01102195
v -0.04246392 -0.04248210 0.01522563
v -0.06558369 -0.04254879 -0.01456966
v -0.06178721 -0.05535673 0.01412773
v -0.04286021 -0.05086320 0.01613225
v -0.05845500 -0.04793687 -0.01744656
v -0.04267597 -0.05369200 -0.01552532
v -0.07025919 -0.04992571 -0.00379080
v -0.04274361 -0.05642246 0.00978949
v -0.04283879 -0.04060642 -0.01189685
v -0.06071846 -0.04363506 0.01513754
v -0.06579995 -0.05350425 0.01500340
v -0.05569809 -0.05275058 0.01609782
v -0.05573552 -0.04719918 -0.01741132
v -0.06157168 -0.05277607 -0.01639598
v -0.06904872 -0.05085231 -0.01269255
v -0.06919820 -0.05432161 0.01040384
v -0.06901764 -0.04351396 0.00866239
v -0.04286728 -0.05536374 0.01340987
v -0.06057010 -0.05733417 0.00874619
v -0.04278504 -0.04135560 -0.01377641
v -0.06091855 -0.04075897 0.00969259
v -0.06263942 -0.04630311 0.01602582
v -0.06706835 -0.05038756 0.01517276
v -0.06265392 -0.05187308 0.01597465
v -0.05657654 -0.05539708 0.01410604
v -0.05579795 -0.04790349 -0.01738865
v -0.06175395 -0.04458671 -0.01635740
v -0.06471910 -0.05093002 -0.01635381
v -0.05554730 -0.05284832 -0.01631367
v -0.05955637 -0.05424541 -0.01557915
v -0.06911117 -0.04488926 -0.01254755
v -0.06762803 -0.05444385 0.01285532
v -0.06799986 -0.05455602 -0.01181436
v -0.06993598 -0.04909449 0.01136216
v -0.05449204 -0.05747849 -0.00491958
v -0.06651211 -0.05617184 0.01048306
v -0.05456798 -0.05620444 0.01257560
v -0.06369242 -0.04060620 -0.01271286
v -0.04272756 -0.04159402 0.01284084
v -0.06268589 -0.04259109 0.01408777
v -0.06473239 -0.04072987 0.00860751
v -0.05861652 -0.04531799 0.01601828
v -0.06710640 -0.05169409 0.01503677
v -0.06373167 -0.04715063 0.01601584
v -0.05766094 -0.05256644 0.01607367
v -0.04610239 -0.04436384 -0.01626934
v -0.04276602 -0.04337426 -0.01563174
v -0.06457265 -0.04525886 -0.01625752
v -0.05852856 -0.04712885 -0.01743889
v -0.06544850 -0.04794139 -0.01645212
v -0.04276475 -0.05544526 -0.01362826
v -0.05535335 -0.05621829 -0.01265500
v -0.06547227 -0.05521481 -0.01346753
v -0.06739548 -0.04348319 -0.01411796
vn 0.61959277 0.17451004 0.76527841
vn 0.67185633 -0.40577447 0.61964196
vn 0.68046580 0.17676131 -0.71114115
vn -0.45466713 0.09203611 -0.88589342
vn -0.75945754 -0.17652375 0.62614983
vn 0.65152825 -0.72583475 -0.22062376
vn -0.48169499 0.86875452 -0.11504574
vn -0.14162930 -0.09431047 0.98541701
vn 0.61707438 -0.18162508 -0.76565759
vn -0.31921405 -0.92756636 -0.19422421
vn 0.63562121 0.57848732 0.51121237
vn -0.31572370 0.65189575 -0.68945665
vn -0.08629388 -0.77940544 0.62054856
vn 0.59713392 -0.14274815 0.78933773
vn -0.04653316 -0.08908601 -0.99493635
vn 0.67768882 -0.44176649 -0.58786073
vn -0.99557031 -0.08557920 -0.03893527
vn 0.69033018 -0.71465846 0.11272762
vn 0.63427679 0.76217832 -0.12952666
vn -0.10050327 0.52075637 0.84776878
vn -0.29761238 -0.51813896 0.80184717
vn 0.00001926 -0.32347193 0.94623777
vn 0.03034026 0.13711627 -0.99009020
vn -0.13023058 -0.41038901 -0.90256349
vn -0.87066684 -0.18746756 -0.45474737
vn -0.82885368 -0.53173959 0.17393844
vn -0.79543018 0.54575546 0.26351814
vn 0.61098127 -0.67681299 0.41064104
vn -0.07032146 -0.98738345 0.14187603
vn 0.64636495 0.63067641 -0.42948761
vn -0.02139501 0.97943835 0.20060601
vn -0.16106924 0.25095822 0.95450336
vn -0.52663239 0.14802341 0.83710656
vn -0.07713217 -0.25933361 0.96270281
vn 0.00598014 -0.76196797 0.64758710
vn 0.03201943 -0.08482068 -0.99588162
vn -0.06004489 0.47314239 -0.87893736
vn -0.37954365 -0.26006027 -0.88787120
vn 0.01415421 -0.39981055 -0.91648851
vn -0.03776674 -0.69000682 -0.72281689
vn -0.89547753 0.27552403 -0.34958046
vn -0.53085867 -0.66921550 0.51994200
vn -0.74439901 -0.56908144 -0.34930850
vn -0.92248824 0.13978361 0.35982772
vn -0.00346010 -0.99847146 -0.05516125
vn -0.35312511 -0.91118886 0.21222044
vn 0.02085569 -0.93057808 0.36549893
vn -0.12604724 0.91363349 -0.38650478
vn 0.55516862 0.81821630 0.14936497
vn -0.30565020 0.71025618 0.63412468
vn -0.29940627 0.93244684 0.20223445
vn -0.03606561 0.25510525 0.96624044
vn -0.44579160 -0.20506892 0.87133036
vn -0.32615370 0.23441845 0.91579023
vn -0.03921947 -0.27737238 0.95996166
vn 0.00902660 0.44341975 -0.89626863
vn 0.61656030 0.46539877 -0.63502549
vn -0.24515204 0.32776244 -0.91239918
vn -0.04818946 0.18047015 -0.98239926
vn -0.43676459 -0.06469159 -0.89724673
vn 0.60360676 -0.63914603 -0.47660386
vn -0.01329699 -0.92864474 -0.37073188
vn -0.33948356 -0.71429349 -0.61199324
vn -0.64662259 0.47329589 -0.59822256
f 11//11 1//1 2//2
f 14//14 2//2 1//1
f 16//16 9//9 3//3
f 16//16 3//3 11//11
f 18//18 11//11 2//2
f 18//18 16//16 11//11
f 18//18 6//6 16//16
f 20//20 1//1 11//11
f 22//22 2//2 14//14
f 22//22 21//21 13//13
f 22//22 14//14 1//1
f 22//22 1//1 8//8
f 23//23 3//3 9//9
f 24//24 15//15 9//9
f 28//28 18//18 2//2
f 30//30 19//19 11//11
f 30//30 11//11 3//3
f 32//32 8//8 1//1
f 34//34 8//8 21//21
f 35//35 22//22 13//13
f 35//35 2//2 22//22
f 35//35 28//28 2//2
f 36//36 23//23 9//9
f 36//36 9//9 15//15
f 36//36 15//15 23//23
f 38//38 15//15 24//24
f 39//39 24//24 9//9
f 39//39 9//9 16//16
f 40//40 39//39 16//16
f 40//40 24//24 39//39
f 41//41 4//4 25//25
f 41//41 25//25 17//17
f 41//41 27//27 7//7
f 41//41 17//17 27//27
f 42//42 21//21 5//5
f 42//42 5//5 26//26
f 42//42 13//13 21//21
f 43//43 10//10 26//26
f 43//43 25//25 38//38
f 43//43 26//26 17//17
f 43//43 17//17 25//25
f 44//44 26//26 5//5
f 44//44 33//33 27//27
f 44//44 5//5 33//33
f 44//44 27//27 17//17
f 44//44 17//17 26//26
f 45//45 29//29 10//10
f 45//45 6//6 18//18
f 45//45 18//18 29//29
f 46//46 26//26 10//10
f 46//46 10//10 29//29
f 46//46 42//42 26//26
f 46//46 29//29 13//13
f 46//46 13//13 42//42
f 47//47 29//29 18//18
f 47//47 18//18 28//28
f 47//47 28//28 35//35
f 47//47 35//35 13//13
f 47//47 13//13 29//29
f 48//48 30//30 12//12
f 48//48 12//12 7//7
f 48//48 19//19 30//30
f 49//49 31//31 11//11
f 49//49 11//11 19//19
f 49//49 19//19 31//31
f 50//50 20//20 11//11
f 50//50 11//11 31//31
f 50//50 32//32 20//20
f 50//50 27//27 33//33
f 51//51 7//7 27//27
f 51//51 50//50 31//31
f 51//51 27//27 50//50
f 51//51 48//48 7//7
f 51//51 31//31 19//19
f 51//51 19//19 48//48
f 52//52 32//32 1//1
f 52//52 1//1 20//20
f 52//52 20//20 32//32
f 53//53 21//21 8//8
f 53//53 8//8 33//33
f 53//53 33//33 5//5
f 53//53 5//5 21//21
f 54//54 33//33 8//8
f 54//54 8//8 32//32
f 54//54 50//50 33//33
f 54//54 32//32 50//50
f 55//55 22//22 8//8
f 55//55 8//8 34//34
f 55//55 34//34 21//21
f 55//55 21//21 22//22
f 57//57 37//37 12//12
f 57//57 12//12 30//30
f 57//57 56//56 37//37
f 57//57 30//30 3//3
f 57//57 3//3 56//56
f 58//58 12//12 37//37
f 59//59 23//23 15//15
f 59//59 58//58 37//37
f 59//59 4//4 58//58
f 59//59 37//37 56//56
f 59//59 56//56 3//3
f 59//59 3//3 23//23
f 60//60 15//15 38//38
f 60//60 59//59 15//15
f 60//60 4//4 59//59
f 60//60 38//38 25//25
f 60//60 25//25 4//4
f 61//61 40//40 16//16
f 61//61 16//16 6//6
f 62//62 45//45 10//10
f 62//62 6//6 45//45
f 62//62 61//61 6//6
f 62//62 40//40 61//61
f 63//63 24//24 40//40
f 63//63 10//10 43//43
f 63//63 43//43 38//38
f 63//63 38//38 24//24
f 63//63 62//62 10//10
f 63//63 40//40 62//62
f 64//64 4//4 41//41
f 64//64 58//58 4//4
f 64//64 12//12 58//58
f 64//64 41//41 7//7
f 64//64 7//7 12//12

