# https://github.com/mikedh/trimesh
v 0.02294224 -0.04380469 0.02354758
v 0.02302882 -0.05702185 0.01942294
v 0.02275680 -0.04175099 -0.02413718
v -0.03734706 -0.04366725 -0.02343929
v -0.03764226 -0.05177202 0.02318343
v -0.00734099 -0.05945070 -0.01688983
v 0.00257345 -0.02785907 0.02207622
v 0.02304868 -0.03995117 -0.01993911
v 0.02298708 -0.05162940 0.02315286
v 0.02299841 -0.05819634 -0.01802563
v -0.03747741 -0.05983323 -0.01691997
v -0.03725457 -0.04236091 0.02328223
v 0.02305483 -0.03706734 0.01690377
v -0.00569508 -0.02950027 -0.02404531
v -0.03749613 -0.05575093 0.02163298
v 0.02298159 -0.05971083 0.00816365
v 0.02311385 -0.05972554 0.00080636
v 0.02293200 -0.05147372 -0.02353569
v -0.03761165 -0.03711948 -0.01685815
v -0.00583592 -0.05795015 -0.01935839
v 0.00146898 -0.02793330 0.02266061
v 0.02305134 -0.03845155 0.01913229
v 0.00800925 -0.02798225 -0.01387672
v -0.03753481 -0.05294798 -0.02347768
v 0.02293267 -0.05419743 0.02203688
v -0.03765235 -0.05820136 0.01929432
v 0.00314664 -0.05952379 -0.01551090
v 0.02297805 -0.05471368 -0.02208837
v -0.03744576 -0.03887064 0.01974146
v -0.03753488 -0.03818974 -0.01954322
v 0.02296700 -0.04126264 0.02213853
v -0.01311837 -0.02941840 0.00800473
v 0.00513254 -0.02788421 0.02055367
v 0.02303247 -0.03543233 -0.00343353
v 0.00706323 -0.02810379 -0.01836248
v -0.03737905 -0.05581317 -0.02204167
v -0.00282897 -0.05662727 0.02039666
v -0.02542023 -0.05525042 0.02181263
v -0.03755779 -0.05958773 0.01545877
v -0.03750588 -0.05831783 -0.01933159
v -0.03763687 -0.03704574 -0.00550527
v 0.01675502 -0.05667369 -0.02049995
v -0.00801370 -0.02918243 0.02195635
v -0.01108631 -0.02952506 -0.02260108
v -0.03750770 -0.04107353 -0.02219370
v 0.00939076 -0.02776935 0.00866620
v 0.00672498 -0.03321373 -0.02392664
v 0.00724156 -0.02798247 -0.01734681
v 0.02290155 -0.05825392 0.01693585
v -0.03707612 -0.03979902 0.02188826
v -0.01176081 -0.02964125 0.01643706
v -0.01315852 -0.02963443 -0.01975678
v -0.00842900 -0.02945177 -0.02350184
v 0.00772888 -0.02789725 0.01788442
v 0.02302287 -0.03557761 0.00050820
v -0.00748414 -0.05951199 0.01403748
v 0.01675236 -0.05801978 0.01791191
v 0.00906517 -0.02803328 0.01376326
v -0.02546205 -0.05944825 0.01541231
vn 0.67442091 0.10151543 0.73133512
vn 0.67682181 -0.58719253 0.44397879
vn 0.65443921 0.25491933 -0.71184651
vn -0.63063383 0.12432468 -0.76605766
vn -0.67087213 -0.13734188 0.72874399
vn 0.01359149 -0.94091082 -0.33838160
vn 0.18366989 0.89104044 0.41510519
vn 0.87020721 0.45451885 -0.19013686
vn 0.66538286 -0.16896509 0.72712891
vn 0.66274560 -0.69143629 -0.28754847
vn -0.63734202 -0.74103333 -0.21134036
vn -0.64321787 0.16400741 0.74791199
vn 0.83723031 0.51409363 0.18642196
vn -0.00644594 0.62994128 -0.77661601
vn -0.58366809 -0.43480926 0.68576415
vn 0.65850912 -0.74985456 0.06390525
vn 0.70545129 -0.70855122 -0.01713602
vn 0.65934058 -0.17194157 -0.73191946
vn -0.77941681 0.61496837 -0.11968015
vn 0.01149633 -0.80449304 -0.59385080
vn 0.00537522 0.72997211 0.68345580
vn 0.83740662 0.42408110 0.34482660
vn 0.29314700 0.95451342 -0.05448833
vn -0.65891160 -0.18067502 -0.73020000
vn 0.62488221 -0.42300850 0.65619055
vn -0.65647453 -0.63219749 0.41154286
vn 0.02449268 -0.98856275 -0.14880790
vn 0.67038147 -0.42992605 -0.60477456
vn -0.77832041 0.59902652 0.18810785
vn -0.75921455 0.52452447 -0.38531460
vn 0.78579967 0.34920854 0.51046280
vn -0.21865971 0.97544470 0.02637362
vn 0.26014437 0.89226829 0.36902874
vn 0.84798158 0.52791343 -0.04727199
vn 0.26202503 0.89565274 -0.35937314
vn -0.57629184 -0.49404265 -0.65100659
vn 0.01237412 -0.69843627 0.71556527
vn 0.00364233 -0.41278182 0.91082265
vn -0.64557863 -0.75249903 0.13028216
vn -0.68083181 -0.58241254 -0.44414376
vn -0.80181921 0.59743984 0.01231218
vn 0.02242133 -0.74709223 -0.66434215
vn -0.18722411 0.80273666 0.56618105
vn -0.21493509 0.88220141 -0.41895535
vn -0.75349676 0.34213948 -0.56141180
vn 0.26951641 0.96276228 0.02120611
vn 0.18696557 0.44264276 -0.87698989
vn 0.24731296 0.96207812 -0.11507387
vn 0.61604092 -0.75342927 0.22986500
vn -0.61472996 0.54072321 0.57421728
vn -0.27373288 0.95761503 0.08968702
vn -0.21563737 0.97341914 -0.07717325
vn -0.14222769 0.79314248 -0.59219616
vn 0.31068924 0.92543686 0.21688435
vn 0.84692012 0.53084542 0.03048689
vn 0.01137928 -0.98733698 0.15822834
vn 0.01616178 -0.91132746 0.41136486
vn 0.42737456 0.89952757 0.09056013
vn 0.01221307 -0.96306831 0.26898005
f 9//9 1//1 5//5
f 12//12 5//5 1//1
f 17//17 10//10 8//8
f 17//17 2//2 16//16
f 17//17 16//16 11//11
f 17//17 8//8 13//13
f 18//18 3//3 8//8
f 20//20 10//10 6//6
f 20//20 6//6 11//11
f 21//21 12//12 1//1
f 22//22 9//9 2//2
f 22//22 17//17 13//13
f 22//22 2//2 17//17
f 22//22 1//1 9//9
f 24//24 14//14 3//3
f 24//24 4//4 14//14
f 24//24 3//3 18//18
f 25//25 2//2 9//9
f 26//26 15//15 5//5
f 26//26 19//19 24//24
f 27//27 6//6 10//10
f 27//27 10//10 17//17
f 27//27 17//17 11//11
f 27//27 11//11 6//6
f 28//28 18//18 8//8
f 28//28 8//8 10//10
f 28//28 24//24 18//18
f 29//29 5//5 12//12
f 31//31 21//21 1//1
f 31//31 7//7 21//21
f 31//31 1//1 22//22
f 33//33 22//22 13//13
f 33//33 31//31 22//22
f 33//33 7//7 31//31
f 34//34 13//13 8//8
f 35//35 8//8 3//3
f 35//35 34//34 8//8
f 36//36 24//24 28//28
f 37//37 25//25 15//15
f 37//37 2//2 25//25
f 37//37 26//26 2//2
f 37//37 15//15 26//26
f 38//38 25//25 9//9
f 38//38 15//15 25//25
f 38//38 9//9 5//5
f 38//38 5//5 15//15
f 39//39 26//26 11//11
f 39//39 11//11 16//16
f 40//40 26//26 24//24
f 40//40 11//11 26//26
f 40//40 24//24 36//36
f 40//40 20//20 11//11
f 41//41 26//26 5//5
f 41//41 19//19 26//26
f 41//41 5//5 29//29
f 41//41 32//32 19//19
f 41//41 29//29 32//32
f 42//42 28//28 10//10
f 42//42 10//10 20//20
f 42//42 36//36 28//28
f 42//42 40//40 36//36
f 42//42 20//20 40//40
f 43//43 12//12 21//21
f 43//43 21//21 32//32
f 44//44 30//30 19//19
f 45//45 24//24 19//19
f 45//45 19//19 30//30
f 45//45 4//4 24//24
f 45//45 30//30 44//44
f 46//46 7//7 33//33
f 46//46 34//34 23//23
f 47//47 35//35 3//3
f 47//47 3//3 14//14
f 47//47 14//14 35//35
f 48//48 21//21 7//7
f 48//48 23//23 34//34
f 48//48 34//34 35//35
f 48//48 46//46 23//23
f 48//48 7//7 46//46
f 49//49 16//16 2//2
f 50//50 43//43 29//29
f 50//50 29//29 12//12
f 50//50 12//12 43//43
f 51//51 43//43 32//32
f 51//51 32//32 29//29
f 51//51 29//29 43//43
f 52//52 44//44 19//19
f 52//52 19//19 32//32
f 52//52 32//32 21//21
f 52//52 48//48 44//44
f 52//52 21//21 48//48
f 53//53 35//35 14//14
f 53//53 45//45 44//44
f 53//53 14//14 4//4
f 53//53 4//4 45//45
f 53//53 48//48 35//35
f 53//53 44//44 48//48
f 54//54 46//46 33//33
f 54//54 33//33 13//13
f 55//55 46//46 13//13
f 55//55 13//13 34//34
f 55//55 34//34 46//46
f 56//56 39//39 16//16
f 56//56 16//16 49//49
f 57//57 49//49 2//2
f 57//57 2//2 26//26
f 57//57 26//26 39//39
f 58//58 54//54 13//13
f 58//58 13//13 46//46
f 58//58 46//46 54//54
f 59//59 56//56 49//49
f 59//59 39//39 56//56
f 59//59 57//57 39//39
f 59//59 49//49 57//57

