# https://github.com/mikedh/trimesh
v 0.00090670 0.02477934 0.02358555
v 0.00906517 -0.02803328 0.01376326
v 0.00789634 0.02670863 0.01391553
v 0.00422023 0.02030946 -0.01938661
v 0.00146898 -0.02793330 0.02266061
v 0.00752264 0.02129792 -0.01352641
v 0.00359005 0.02684367 -0.01738335
v 0.00459329 0.02162493 0.02200950
v 0.00706323 -0.02810379 -0.01836248
v 0.00912996 -0.01916063 0.01114343
v 0.00152909 0.02638199 0.02302317
v 0.00105535 -0.00372124 0.02377616
v 0.00648670 0.01850373 -0.01670113
v 0.00491261 0.02629757 -0.01534741
v 0.00745249 0.01865247 0.01671108
v 0.00772888 -0.02789725 0.01788442
v 0.00766585 0.02217571 -0.01203523
v 0.00893196 -0.02063426 0.01379118
v 0.00800925 -0.02798225 -0.01387672
v 0.00614153 0.02570213 0.01926464
v 0.00347137 0.02160301 0.02305291
v 0.00617901 0.02252881 -0.01532308
v 0.00773038 0.02656620 0.00848004
v 0.00898756 -0.02615786 0.00563684
v 0.00364850 0.02624949 0.02164589
v 0.00381560 -0.02629510 0.02157412
v 0.00901116 -0.02767478 0.00724005
v 0.00899802 -0.02215014 0.00544639
v 0.00367990 0.01588121 0.02303726
v 0.00513254 -0.02788421 0.02055367
v 0.00487169 0.01291223 0.02167099
v 0.00257345 -0.02785907 0.02207622
vn -0.59157682 0.24401138 0.76843693
vn 0.72785958 -0.67487688 0.12149743
vn 0.70497464 0.69903556 0.11983341
vn -0.22330608 0.15323862 -0.96262782
vn -0.46724404 -0.57974580 0.66751616
vn 0.94336478 0.16384088 -0.28847714
vn -0.24666304 0.68190197 -0.68859789
vn 0.76306293 0.07915406 0.64145896
vn -0.00791558 -0.58604793 -0.81023772
vn 0.99956197 0.01433142 0.02589372
vn -0.28797322 0.73526271 0.61356350
vn -0.54677239 -0.03971773 0.83633872
vn 0.86638607 0.09323597 -0.49059376
vn 0.74269753 0.62053666 -0.25166374
vn 0.94709534 0.02310923 0.32011932
vn 0.65974494 -0.63564550 0.40086333
vn 0.95869478 0.25374825 -0.12851514
vn 0.98407775 0.01777210 0.17684777
vn 0.77585738 -0.62385377 -0.09408400
vn 0.77145167 0.44246250 0.45726279
vn 0.48040419 0.07980520 0.87340881
vn 0.83821294 0.25644461 -0.48128497
vn 0.75183301 0.65792227 -0.04342127
vn 0.99918057 -0.01541569 -0.03742393
vn 0.48516747 0.68562521 0.54270673
vn 0.51684440 -0.05636236 0.85422195
vn 0.96666662 -0.25440347 -0.02888800
vn 0.99928928 0.00391867 -0.03749096
vn 0.51597998 0.00141314 0.85659948
vn 0.47451285 -0.67342760 0.56686226
vn 0.78110366 -0.00269678 0.62439555
vn 0.46105987 -0.35407766 0.81366627
f 7//7 4//4 5//5
f 9//9 5//5 4//4
f 9//9 2//2 5//5
f 11//11 7//7 1//1
f 11//11 3//3 7//7
f 12//12 7//7 5//5
f 12//12 1//1 7//7
f 13//13 4//4 7//7
f 13//13 9//9 4//4
f 13//13 6//6 9//9
f 16//16 2//2 15//15
f 17//17 3//3 10//10
f 17//17 6//6 14//14
f 18//18 10//10 3//3
f 18//18 2//2 10//10
f 18//18 15//15 2//2
f 18//18 3//3 15//15
f 19//19 2//2 9//9
f 19//19 9//9 6//6
f 19//19 6//6 17//17
f 20//20 15//15 3//3
f 20//20 16//16 15//15
f 20//20 8//8 16//16
f 21//21 11//11 1//1
f 21//21 1//1 12//12
f 22//22 13//13 7//7
f 22//22 6//6 13//13
f 22//22 14//14 6//6
f 22//22 7//7 14//14
f 23//23 14//14 7//7
f 23//23 7//7 3//3
f 23//23 17//17 14//14
f 23//23 3//3 17//17
f 25//25 20//20 3//3
f 25//25 3//3 11//11
f 25//25 11//11 21//21
f 25//25 21//21 8//8
f 25//25 8//8 20//20
f 26//26 12//12 5//5
f 27//27 24//24 10//10
f 27//27 10//10 2//2
f 27//27 2//2 19//19
f 27//27 19//19 24//24
f 28//28 24//24 19//19
f 28//28 19//19 17//17
f 28//28 17//17 10//10
f 28//28 10//10 24//24
f 29//29 21//21 12//12
f 29//29 12//12 26//26
f 29//29 8//8 21//21
f 30//30 29//29 26//26
f 30//30 16//16 29//29
f 30//30 5//5 2//2
f 30//30 2//2 16//16
f 31//31 29//29 16//16
f 31//31 16//16 8//8
f 31//31 8//8 29//29
f 32//32 30//30 26//26
f 32//32 26//26 5//5
f 32//32 5//5 30//30

