# https://github.com/mikedh/trimesh
v -0.00041358 0.01525650 0.01802286
v 0.00007015 -0.03843470 0.01752618
v 0.00426516 0.00954636 -0.00629940
v -0.01112609 0.00908930 -0.00631845
v -0.00922962 -0.01103713 0.01559444
v 0.00008371 -0.03429093 -0.00631015
v -0.01015973 0.01551299 0.01163694
v 0.00395503 0.01478314 0.01254375
v -0.00520666 -0.03831369 0.01791129
v 0.00008371 -0.03852272 0.01167495
v -0.00770963 0.01547056 0.01702316
v -0.01148520 -0.02154564 -0.00106163
v -0.00005316 -0.03524472 0.01787866
v -0.00831837 0.01576360 0.01632446
v -0.00520602 -0.03429093 -0.00631015
v -0.00520602 -0.03852272 0.01167495
v -0.00590659 0.01536667 0.01802275
v -0.00820783 -0.00563555 0.01712897
v -0.01145603 -0.00894101 -0.00109475
v -0.01032716 -0.01734174 0.01036336
v -0.00316184 -0.03825832 0.01785179
v -0.00954543 0.01549189 0.01432701
v -0.01126725 -0.02372778 -0.00631633
v -0.00815672 -0.02150775 0.01623330
v -0.00686286 0.01223361 0.01779099
v -0.00835133 0.00051051 0.01700254
v -0.01149070 -0.01526179 -0.00009323
v -0.01036108 -0.01214748 0.01044886
v -0.00937544 -0.02380661 0.01317416
v -0.01152185 -0.00890200 -0.00307225
v -0.01032573 -0.02365061 0.00727153
v -0.00686576 -0.00894538 0.01774292
v -0.01146914 -0.01949701 -0.00001553
v -0.00923027 -0.01839523 0.01448374
v -0.01146786 -0.01946691 -0.00409258
v -0.01147478 -0.02151569 -0.00196668
vn 0.36457035 0.61997119 0.69478355
vn 0.57758379 -0.62312536 0.52736302
vn 0.62405786 0.45491583 -0.63529786
vn -0.61103398 0.46156232 -0.64311562
vn -0.89676264 -0.02456843 0.44182934
vn 0.55661619 -0.52795534 -0.64143712
vn -0.68102575 0.73147685 -0.03384589
vn 0.75205258 0.64227483 0.14798636
vn -0.47945568 -0.62074058 0.62032522
vn 0.65007235 -0.75573828 -0.07915550
vn -0.52681129 0.41650575 0.74094050
vn -0.99111320 -0.12246514 0.05193190
vn 0.50946475 -0.02948722 0.85998615
vn -0.53508279 0.73433833 0.41765251
vn -0.39163927 -0.61752902 -0.68211186
vn -0.53391919 -0.84259062 -0.07050779
vn -0.15295270 0.59110371 0.79196078
vn -0.64237201 -0.00795792 0.76635166
vn -0.99861083 0.01898479 0.04915271
vn -0.98411046 -0.03426540 0.17421963
vn 0.04573727 -0.36879301 0.92838560
vn -0.79571995 0.53110748 0.29112645
vn -0.72495593 -0.18595021 -0.66322049
vn -0.80505572 -0.06744339 0.58935276
vn -0.43277161 0.01834134 0.90131700
vn -0.72474829 0.00944156 0.68894904
vn -0.99834216 0.00046223 0.05755629
vn -0.98685303 -0.00388848 0.16157343
vn -0.95124731 -0.13124062 0.27911368
vn -0.99950965 0.01155331 -0.02910279
vn -0.97819501 -0.17496059 0.11190761
vn -0.32108367 -0.01155778 0.94698030
vn -0.99676135 -0.02216046 0.07730277
vn -0.93151615 -0.05595085 0.35937051
vn -0.99858819 -0.00594777 -0.05278491
vn -0.99916375 -0.03734593 -0.01664559
f 6//6 4//4 3//3
f 7//7 3//3 4//4
f 8//8 2//2 3//3
f 8//8 3//3 7//7
f 10//10 6//6 3//3
f 10//10 3//3 2//2
f 13//13 8//8 1//1
f 13//13 2//2 8//8
f 13//13 1//1 9//9
f 14//14 8//8 7//7
f 14//14 1//1 8//8
f 15//15 6//6 10//10
f 16//16 10//10 2//2
f 16//16 2//2 9//9
f 16//16 15//15 10//10
f 17//17 9//9 1//1
f 17//17 14//14 11//11
f 17//17 1//1 14//14
f 19//19 7//7 4//4
f 21//21 13//13 9//9
f 21//21 9//9 2//2
f 21//21 2//2 13//13
f 22//22 14//14 7//7
f 22//22 7//7 5//5
f 23//23 4//4 6//6
f 23//23 6//6 15//15
f 23//23 15//15 16//16
f 23//23 16//16 9//9
f 24//24 18//18 5//5
f 24//24 9//9 18//18
f 25//25 17//17 11//11
f 26//26 11//11 14//14
f 26//26 14//14 22//22
f 26//26 22//22 5//5
f 26//26 5//5 18//18
f 26//26 25//25 11//11
f 26//26 18//18 25//25
f 27//27 7//7 19//19
f 28//28 20//20 5//5
f 28//28 5//5 7//7
f 28//28 7//7 27//27
f 29//29 9//9 24//24
f 29//29 5//5 20//20
f 30//30 19//19 4//4
f 30//30 27//27 19//19
f 30//30 12//12 27//27
f 31//31 23//23 9//9
f 31//31 12//12 23//23
f 31//31 9//9 29//29
f 31//31 29//29 20//20
f 31//31 20//20 12//12
f 32//32 25//25 18//18
f 32//32 18//18 9//9
f 32//32 9//9 17//17
f 32//32 17//17 25//25
f 33//33 27//27 12//12
f 33//33 12//12 20//20
f 33//33 28//28 27//27
f 33//33 20//20 28//28
f 34//34 29//29 24//24
f 34//34 24//24 5//5
f 34//34 5//5 29//29
f 35//35 12//12 30//30
f 35//35 30//30 4//4
f 35//35 4//4 23//23
f 36//36 35//35 23//23
f 36//36 23//23 12//12
f 36//36 12//12 35//35

