# https://github.com/mikedh/trimesh
v 0.02810191 0.06922875 0.03567520
v 0.03717787 -0.04898471 0.03250832
v 0.03512391 0.07803600 -0.03269529
v 0.02155667 0.07570902 -0.04005975
v 0.02384723 -0.01785418 0.03888211
v 0.03176368 -0.03119438 -0.03580548
v 0.02182217 0.09767251 0.01985931
v 0.03736324 0.06929613 0.02846253
v 0.03465010 -0.04935531 0.03521714
v 0.03953289 -0.04936074 0.00278664
v 0.03136389 0.07801498 -0.03750669
v 0.02180586 -0.03126261 -0.03805652
v 0.02391261 0.06919891 0.03630282
v 0.03176990 0.09126642 0.02765746
v 0.03179881 0.04239047 0.03553856
v 0.03726080 -0.03142899 -0.02618666
v 0.03618366 -0.04949805 0.03418813
v 0.03945630 -0.02469492 0.02439313
v 0.03950702 0.05813097 0.00936314
v 0.02789351 0.05379071 -0.03961218
v 0.03463936 0.00229749 -0.03442415
v 0.02162415 0.10106213 -0.02188238
v 0.02177300 0.00892555 0.00021967
v 0.02177300 -0.03134596 -0.01767878
v 0.02591547 -0.03128070 -0.03766905
v 0.02364940 -0.00025460 0.03815027
v 0.03379306 0.06931252 0.03334342
v 0.03011863 0.09169243 0.02768077
v 0.03705496 0.08411605 0.02050946
v 0.02992869 0.06475113 0.03554523
v 0.02754999 -0.01788354 0.03807575
v 0.03529527 -0.03129665 -0.03209153
v 0.03955211 -0.04919036 0.02010542
v 0.03716162 -0.00924147 0.03196968
v 0.03939881 0.05798757 0.01569145
v 0.03703292 0.00008558 -0.02818859
v 0.02759266 0.07367826 -0.03956579
v 0.02150810 0.04036141 -0.04001641
v 0.03337309 0.07810314 -0.03597350
v 0.03089005 0.03126961 -0.03757930
v 0.03031708 0.09723327 0.01480120
v 0.02177300 0.06933281 0.02035543
v 0.03937770 -0.04902313 0.00189971
v 0.03011746 0.00011341 -0.03735860
v 0.03530627 0.08762281 0.02728341
v 0.02884378 0.09664851 0.01915907
v 0.03708141 0.07143007 -0.01334383
v 0.03281506 -0.01771566 -0.03556310
v 0.03940300 -0.04256789 0.02472905
v 0.03954318 -0.01120458 -0.00176018
v 0.03576463 0.06934679 0.03163058
v 0.03712605 0.06478473 -0.01752263
v 0.03473937 0.07586564 -0.03405366
v 0.02600615 0.07543857 -0.03969517
v 0.02544803 0.04502226 -0.03979140
v 0.02890283 0.09803976 -0.01992723
v 0.03342669 0.09134336 0.02556801
v 0.03141749 0.09346307 0.02385564
v 0.03950437 0.04919198 0.00489245
v 0.03486568 0.09078712 0.01874085
v 0.03693694 0.08407646 0.01827910
v 0.03485928 0.09079210 0.02191040
vn 0.23681712 0.18258693 0.95424298
vn 0.86925343 -0.38996041 0.30385745
vn 0.92642469 0.25374423 -0.27812076
vn -0.61291965 0.24209195 -0.75214426
vn -0.61838019 -0.12010188 0.77664759
vn 0.44511045 -0.47711879 -0.75778252
vn -0.60919634 0.71320266 0.34673012
vn 0.95440097 0.06892195 0.29046264
vn -0.23452368 -0.65256037 0.72053009
vn 0.45126492 -0.87829730 -0.15796778
vn 0.40535555 0.35830859 -0.84101238
vn -0.58466154 -0.46352909 -0.66581655
vn -0.56570530 0.14796123 0.81122438
vn 0.35293215 0.59149306 0.72496541
vn 0.45150875 0.02067296 0.89202717
vn 0.95824020 -0.16245719 -0.23533673
vn 0.51660896 -0.69154822 0.50485270
vn 0.98886434 0.00345541 0.14877960
vn 0.99832674 0.05333254 -0.02234642
vn 0.31543750 -0.00305702 -0.94894143
vn 0.79873829 -0.00656211 -0.60164283
vn -0.45509539 0.81085767 -0.36796470
vn -0.99966145 -0.00926430 0.02431375
vn -0.95120897 -0.30812750 0.01609132
vn 0.16240176 -0.52990045 -0.83236481
vn -0.90891538 0.00757915 0.41691173
vn 0.52041130 0.14323019 0.84181779
vn -0.04480363 0.62963627 0.77559706
vn 0.98015912 0.19139040 0.05155404
vn 0.30904419 0.05067221 0.94969680
vn 0.30320241 -0.00130401 0.95292529
vn 0.76838630 -0.38429850 -0.51175889
vn 0.75850437 -0.64974108 0.05007641
vn 0.88534657 0.01287317 0.46475340
vn 0.99683649 0.03749220 0.07008099
vn 0.97381037 0.00196446 -0.22735324
vn 0.28409964 0.05132999 -0.95741978
vn -0.67660445 -0.01650206 -0.73616174
vn 0.69582212 0.31372120 -0.64607321
vn 0.54398348 -0.01165300 -0.83901501
vn 0.50926843 0.85644509 0.08454280
vn -0.99809526 0.00064879 0.06168822
vn 0.42317956 -0.81778371 -0.39006265
vn 0.37841879 -0.02344891 -0.92533744
vn 0.76778522 0.32896017 0.54981003
vn 0.29717070 0.90003487 0.31878960
vn 0.99334692 0.09673418 -0.06248512
vn 0.61648856 -0.02628708 -0.78692493
vn 0.98673668 -0.02645739 0.16015847
vn 0.99884216 0.00087796 -0.04809948
vn 0.77955331 0.09282372 0.61941940
vn 0.99497449 0.03450269 -0.09399644
vn 0.89803849 0.03349305 -0.43864004
vn 0.13753647 0.26198764 -0.95522049
vn 0.11230167 -0.01553457 -0.99355272
vn 0.66791516 0.69559701 -0.26463962
vn 0.66455346 0.65910488 0.35206456
vn 0.41613972 0.82960483 0.37226812
vn 0.99865473 0.01370316 -0.05000959
vn 0.89899581 0.43723108 -0.02520960
vn 0.96983441 0.23644756 -0.05927704
vn 0.85827875 0.50186247 0.10719915
f 12//12 10//10 9//9
f 14//14 13//13 1//1
f 17//17 9//9 10//10
f 17//17 15//15 9//9
f 22//22 11//11 4//4
f 24//24 12//12 9//9
f 24//24 9//9 5//5
f 24//24 5//5 23//23
f 26//26 13//13 7//7
f 26//26 5//5 13//13
f 27//27 14//14 1//1
f 27//27 15//15 17//17
f 28//28 7//7 13//13
f 28//28 13//13 14//14
f 30//30 13//13 5//5
f 30//30 1//1 13//13
f 30//30 27//27 1//1
f 30//30 15//15 27//27
f 31//31 5//5 9//9
f 31//31 9//9 15//15
f 31//31 30//30 5//5
f 31//31 15//15 30//30
f 33//33 17//17 10//10
f 33//33 2//2 17//17
f 33//33 19//19 18//18
f 34//34 17//17 2//2
f 34//34 18//18 8//8
f 34//34 2//2 18//18
f 35//35 8//8 18//18
f 35//35 18//18 19//19
f 35//35 29//29 8//8
f 35//35 19//19 29//29
f 36//36 32//32 21//21
f 36//36 16//16 32//32
f 37//37 11//11 20//20
f 38//38 12//12 24//24
f 38//38 24//24 23//23
f 38//38 22//22 4//4
f 40//40 20//20 11//11
f 40//40 39//39 21//21
f 40//40 11//11 39//39
f 41//41 22//22 7//7
f 42//42 23//23 5//5
f 42//42 38//38 23//23
f 42//42 7//7 22//22
f 42//42 22//22 38//38
f 42//42 26//26 7//7
f 42//42 5//5 26//26
f 43//43 25//25 6//6
f 43//43 10//10 12//12
f 43//43 12//12 25//25
f 43//43 6//6 32//32
f 43//43 32//32 16//16
f 43//43 16//16 10//10
f 44//44 25//25 20//20
f 44//44 6//6 25//25
f 44//44 20//20 40//40
f 45//45 14//14 27//27
f 45//45 8//8 29//29
f 46//46 7//7 28//28
f 46//46 41//41 7//7
f 47//47 29//29 19//19
f 47//47 3//3 29//29
f 48//48 32//32 6//6
f 48//48 21//21 32//32
f 48//48 40//40 21//21
f 48//48 44//44 40//40
f 48//48 6//6 44//44
f 49//49 33//33 18//18
f 49//49 18//18 2//2
f 49//49 2//2 33//33
f 50//50 33//33 10//10
f 50//50 19//19 33//33
f 50//50 10//10 16//16
f 50//50 16//16 36//36
f 51//51 27//27 17//17
f 51//51 17//17 34//34
f 51//51 34//34 8//8
f 51//51 45//45 27//27
f 51//51 8//8 45//45
f 52//52 36//36 3//3
f 52//52 47//47 19//19
f 52//52 3//3 47//47
f 53//53 36//36 21//21
f 53//53 3//3 36//36
f 53//53 39//39 3//3
f 53//53 21//21 39//39
f 54//54 4//4 11//11
f 54//54 11//11 37//37
f 54//54 37//37 20//20
f 54//54 20//20 4//4
f 55//55 38//38 4//4
f 55//55 4//4 20//20
f 55//55 20//20 25//25
f 55//55 25//25 12//12
f 55//55 12//12 38//38
f 56//56 3//3 39//39
f 56//56 22//22 41//41
f 56//56 39//39 11//11
f 56//56 11//11 22//22
f 57//57 14//14 45//45
f 58//58 46//46 28//28
f 58//58 28//28 14//14
f 58//58 14//14 57//57
f 58//58 57//57 41//41
f 58//58 41//41 46//46
f 59//59 50//50 36//36
f 59//59 36//36 52//52
f 59//59 52//52 19//19
f 59//59 19//19 50//50
f 60//60 56//56 41//41
f 60//60 3//3 56//56
f 61//61 60//60 29//29
f 61//61 29//29 3//3
f 61//61 3//3 60//60
f 62//62 60//60 41//41
f 62//62 41//41 57//57
f 62//62 57//57 45//45
f 62//62 45//45 29//29
f 62//62 29//29 60//60

