# https://github.com/mikedh/trimesh
v 0.02612535 0.09729899 0.01963440
v 0.02950992 0.09705418 0.01739626
v 0.02460573 0.12344524 -0.00600591
v -0.00866613 0.09778438 -0.03580653
v -0.02933802 0.09701405 0.01988781
v 0.02921402 0.09692391 -0.02606956
v 0.03111463 0.12084180 -0.00222386
v -0.02606967 0.12342303 -0.00505336
v 0.00099216 0.10071369 -0.03556626
v -0.02690661 0.09725641 -0.02592059
v 0.01920520 0.12257215 -0.00045224
v 0.03348858 0.11624766 -0.00743636
v 0.00530239 0.09782620 -0.03581589
v 0.00774829 0.10086302 -0.03348305
v -0.02053845 0.12299644 -0.00648541
v -0.00483242 0.10087249 -0.03527373
v -0.01277707 0.09752018 -0.03375566
v -0.03224462 0.11893702 -0.00390064
v -0.02287679 0.12260946 -0.00050785
v 0.02754951 0.12258084 -0.00290508
v 0.02610470 0.12310992 -0.00559104
v 0.03298496 0.11861355 -0.00376969
v 0.03284947 0.10747669 -0.00986284
v 0.00504337 0.09954623 -0.03531968
v -0.01064783 0.10116021 -0.03332752
v -0.03056756 0.09733427 -0.02186504
v -0.02995458 0.12104215 -0.00408698
v -0.02639798 0.12296972 -0.00230106
v 0.03100253 0.11811134 -0.00721129
v 0.02816670 0.09866757 -0.02514974
v 0.03307761 0.10901119 0.00045114
v -0.00843956 0.09986409 -0.03525486
v -0.03116425 0.09746255 0.01769083
v -0.02847161 0.12107172 -0.00006103
v -0.03194241 0.10714279 0.00278503
v -0.03066550 0.11895313 0.00052781
v -0.03171964 0.10685539 -0.00537927
v -0.03174385 0.11886474 -0.00117959
v -0.02976002 0.12044654 -0.00101233
vn 0.24070282 -0.32881507 0.91320469
vn 0.68335014 -0.46670271 0.56144561
vn 0.17192267 0.93312155 -0.31579544
vn -0.20947557 -0.50759245 -0.83574511
vn -0.35660110 -0.38633440 0.85063587
vn 0.63607421 -0.43220208 -0.63922685
vn 0.60175348 0.74734579 0.28172151
vn -0.30741268 0.90548199 -0.29257444
vn 0.04503719 0.48670939 -0.87240221
vn -0.54549701 -0.45287057 -0.70522426
vn 0.06083976 0.85194077 0.52009177
vn 0.84899252 0.38283795 -0.36420709
vn 0.19686462 -0.51682918 -0.83314580
vn 0.29641364 0.56734968 -0.76827944
vn -0.04225049 0.86957841 -0.49198403
vn -0.06847510 0.54572811 -0.83515986
vn -0.38345924 -0.56199868 -0.73288232
vn -0.87165708 0.44807813 -0.19859489
vn -0.04228886 0.84738742 0.52928840
vn 0.29030747 0.89902504 0.32783465
vn 0.36245221 0.86875315 -0.33748535
vn 0.87357593 0.48634951 0.01814511
vn 0.98469374 -0.15201400 -0.08526423
vn 0.24720739 0.43101362 -0.86782243
vn -0.34467648 0.57906057 -0.73884165
vn -0.75804117 -0.49317110 -0.42679721
vn -0.61109231 0.74986244 -0.25352023
vn -0.27278652 0.92348915 0.26973193
vn 0.38610055 0.60314326 -0.69795743
vn 0.36441550 0.59824126 -0.71365869
vn 0.98918629 -0.04922215 0.13815808
vn -0.25472233 0.45048991 -0.85567247
vn -0.83183960 -0.37539552 0.40880445
vn -0.37675839 0.76255778 0.52588853
vn -0.99893286 -0.04434235 0.01291879
vn -0.60730946 0.58467729 0.53789189
vn -0.99791822 -0.05534098 -0.03311500
vn -0.83335929 0.48295691 0.26882136
vn -0.58925723 0.76680734 0.25452390
f 5//5 2//2 1//1
f 6//6 2//2 5//5
f 7//7 1//1 2//2
f 10//10 6//6 5//5
f 11//11 5//5 1//1
f 11//11 1//1 7//7
f 11//11 3//3 8//8
f 13//13 4//4 9//9
f 14//14 9//9 3//3
f 15//15 8//8 3//3
f 15//15 3//3 9//9
f 16//16 9//9 4//4
f 16//16 15//15 9//9
f 16//16 8//8 15//15
f 17//17 6//6 10//10
f 17//17 13//13 6//6
f 17//17 4//4 13//13
f 19//19 5//5 11//11
f 20//20 11//11 7//7
f 20//20 3//3 11//11
f 21//21 20//20 7//7
f 21//21 3//3 20//20
f 21//21 14//14 3//3
f 22//22 7//7 2//2
f 22//22 21//21 7//7
f 22//22 12//12 21//21
f 23//23 2//2 6//6
f 23//23 6//6 12//12
f 24//24 13//13 9//9
f 24//24 9//9 14//14
f 24//24 14//14 6//6
f 24//24 6//6 13//13
f 25//25 8//8 16//16
f 25//25 10//10 8//8
f 26//26 18//18 10//10
f 26//26 10//10 5//5
f 27//27 8//8 10//10
f 27//27 10//10 18//18
f 28//28 19//19 11//11
f 28//28 11//11 8//8
f 28//28 8//8 27//27
f 29//29 21//21 12//12
f 29//29 12//12 6//6
f 29//29 6//6 21//21
f 30//30 21//21 6//6
f 30//30 6//6 14//14
f 30//30 14//14 21//21
f 31//31 22//22 2//2
f 31//31 12//12 22//22
f 31//31 23//23 12//12
f 31//31 2//2 23//23
f 32//32 25//25 16//16
f 32//32 16//16 4//4
f 32//32 4//4 17//17
f 32//32 17//17 10//10
f 32//32 10//10 25//25
f 33//33 26//26 5//5
f 34//34 5//5 19//19
f 34//34 19//19 28//28
f 35//35 33//33 18//18
f 35//35 26//26 33//33
f 36//36 33//33 5//5
f 36//36 5//5 34//34
f 37//37 35//35 18//18
f 37//37 18//18 26//26
f 37//37 26//26 35//35
f 38//38 18//18 33//33
f 38//38 33//33 36//36
f 38//38 27//27 18//18
f 38//38 36//36 34//34
f 39//39 38//38 34//34
f 39//39 27//27 38//38
f 39//39 34//34 28//28
f 39//39 28//28 27//27

