# https://github.com/mikedh/trimesh
v 0.02100714 0.09908276 0.00170500
v 0.03815695 0.00879349 -0.01978506
v 0.03128956 0.08601387 -0.03541271
v -0.01813708 0.08427990 -0.03756928
v -0.01849851 0.00892555 0.00021967
v 0.02171858 0.00896993 -0.03932138
v -0.01058276 0.09755971 -0.03503781
v 0.03515593 0.07969067 -0.01997834
v 0.02177300 0.00892555 0.00021967
v 0.03690030 0.00892592 -0.02876026
v 0.02179475 0.07772851 -0.03964188
v -0.01844798 0.00897374 -0.03923989
v 0.02885090 0.09571906 -0.02948069
v -0.02491024 0.09631145 -0.00118872
v 0.03742798 0.02450905 -0.01962702
v 0.03136389 0.07801498 -0.03750669
v 0.03739228 0.00876463 -0.02603348
v 0.00134222 0.09575054 -0.03746219
v -0.01621234 0.02690046 -0.04000675
v 0.02890283 0.09803976 -0.01992723
v 0.03271693 0.08962375 -0.03173028
v -0.01696041 0.09724832 -0.03109263
v -0.01851758 0.06916982 -0.03997075
v 0.02786920 0.08382818 -0.03727172
v 0.02187087 0.02700449 -0.03980983
v 0.03512391 0.07803600 -0.03269529
v 0.03008219 0.08825674 -0.03492460
v 0.00724649 0.09761192 -0.03509194
v -0.00635178 0.09542129 -0.03726719
v -0.01164961 0.02237757 -0.03991835
v 0.03251734 0.09064655 -0.02894824
v -0.01726536 0.09009215 -0.03524147
v -0.01827010 0.04035077 -0.03990023
v 0.00393649 0.07765598 -0.03972780
v 0.03107845 0.08021402 -0.03745491
v 0.01708021 0.02473000 -0.03992082
v 0.03461588 0.08252970 -0.03295372
v 0.03337309 0.07810314 -0.03597350
v 0.03100909 0.08966859 -0.03355613
v 0.03066504 0.09412011 -0.02933866
v -0.01483268 0.09693426 -0.03277662
v -0.01169806 0.07346916 -0.03984478
v 0.03277982 0.08216982 -0.03565466
v 0.02903272 0.09427012 -0.03097634
vn 0.37352546 0.63865192 0.67275735
vn 0.75273323 -0.62244947 0.21435799
vn 0.52105672 0.34322726 -0.78146973
vn -0.67656810 0.19109268 -0.71115343
vn -0.55707432 -0.59658193 0.57771809
vn 0.21911745 -0.65777826 -0.72063535
vn -0.21965920 0.80880503 -0.54551284
vn 0.95887502 0.13607362 0.24908367
vn 0.33622536 -0.62405274 0.70534437
vn 0.66987354 -0.60855545 -0.42535832
vn 0.11232857 0.10161147 -0.98846214
vn -0.56262731 -0.59918937 -0.56958109
vn 0.40849977 0.81978350 -0.40135141
vn -0.66800248 0.54548603 0.50617949
vn 0.90635101 0.03802676 0.42081091
vn 0.43553922 0.02377989 -0.89985560
vn 0.70721709 -0.69754032 -0.11524539
vn 0.02181439 0.48966360 -0.87163851
vn -0.08537657 -0.01672853 -0.99620831
vn 0.60213142 0.79636203 0.05696725
vn 0.84012513 0.41352994 -0.35097401
vn -0.58874810 0.74174089 -0.32124154
vn -0.64095224 0.04131832 -0.76646789
vn 0.20151609 0.29661955 -0.93349242
vn 0.20024779 -0.01727114 -0.97959304
vn 0.96685053 0.05471333 -0.24941232
vn 0.31960470 0.44924913 -0.83428296
vn 0.11319489 0.84725657 -0.51898288
vn -0.10352844 0.40985065 -0.90625841
vn -0.00594674 -0.03442689 -0.99938953
vn 0.93107969 0.36476181 -0.00627984
vn -0.63321589 0.37556844 -0.67674662
vn -0.47431995 -0.00666673 -0.88032729
vn -0.00344982 0.07411991 -0.99724337
vn 0.40534164 0.16666066 -0.89884503
vn 0.01559449 -0.01719715 -0.99973050
vn 0.92971411 0.21103730 -0.30181936
vn 0.75311781 0.04568864 -0.65629727
vn 0.51241695 0.50589618 -0.69390051
vn 0.75389321 0.59191927 -0.28509052
vn -0.47210319 0.51294278 -0.71694371
vn -0.02931429 0.08433863 -0.99600586
vn 0.69202421 0.23381166 -0.68296017
vn 0.40722343 0.62586886 -0.66517460
f 9//9 5//5 2//2
f 9//9 2//2 1//1
f 9//9 1//1 5//5
f 14//14 5//5 1//1
f 14//14 12//12 5//5
f 15//15 8//8 1//1
f 15//15 1//1 2//2
f 15//15 2//2 8//8
f 16//16 10//10 6//6
f 17//17 6//6 10//10
f 17//17 12//12 6//6
f 17//17 2//2 5//5
f 17//17 5//5 12//12
f 20//20 1//1 8//8
f 22//22 14//14 1//1
f 22//22 1//1 7//7
f 22//22 4//4 14//14
f 23//23 14//14 4//4
f 23//23 12//12 14//14
f 24//24 11//11 18//18
f 25//25 16//16 6//6
f 25//25 11//11 16//16
f 26//26 8//8 2//2
f 26//26 2//2 17//17
f 26//26 17//17 10//10
f 27//27 24//24 18//18
f 27//27 3//3 24//24
f 28//28 18//18 7//7
f 28//28 27//27 18//18
f 28//28 20//20 13//13
f 28//28 7//7 1//1
f 28//28 1//1 20//20
f 29//29 4//4 7//7
f 29//29 7//7 18//18
f 29//29 23//23 4//4
f 30//30 6//6 12//12
f 30//30 12//12 19//19
f 31//31 20//20 8//8
f 32//32 7//7 4//4
f 32//32 4//4 22//22
f 33//33 23//23 19//19
f 33//33 19//19 12//12
f 33//33 12//12 23//23
f 34//34 18//18 11//11
f 34//34 11//11 23//23
f 35//35 16//16 11//11
f 35//35 11//11 24//24
f 35//35 24//24 3//3
f 36//36 23//23 11//11
f 36//36 11//11 25//25
f 36//36 19//19 23//23
f 36//36 30//30 19//19
f 36//36 25//25 6//6
f 36//36 6//6 30//30
f 37//37 8//8 26//26
f 37//37 31//31 8//8
f 37//37 21//21 31//31
f 38//38 26//26 10//10
f 38//38 10//10 16//16
f 38//38 37//37 26//26
f 38//38 16//16 35//35
f 39//39 21//21 3//3
f 39//39 3//3 27//27
f 40//40 31//31 21//21
f 40//40 13//13 20//20
f 40//40 20//20 31//31
f 41//41 32//32 22//22
f 41//41 22//22 7//7
f 41//41 7//7 32//32
f 42//42 29//29 18//18
f 42//42 18//18 34//34
f 42//42 34//34 23//23
f 42//42 23//23 29//29
f 43//43 3//3 21//21
f 43//43 21//21 37//37
f 43//43 37//37 38//38
f 43//43 38//38 35//35
f 43//43 35//35 3//3
f 44//44 28//28 13//13
f 44//44 13//13 40//40
f 44//44 40//40 21//21
f 44//44 21//21 39//39
f 44//44 39//39 27//27
f 44//44 27//27 28//28

