# https://github.com/mikedh/trimesh
v 0.02174683 0.07537442 0.02907380
v 0.01768950 0.02293031 0.03235220
v 0.01772217 0.02293921 0.00600064
v -0.00982075 0.08994022 0.01029596
v -0.02195868 0.06515884 0.03150994
v 0.01561996 0.08604926 0.00704037
v 0.02814211 0.06521586 0.02010195
v 0.00043044 0.06197762 0.03251236
v -0.02212420 0.07786294 0.02826478
v 0.00206103 0.02293921 0.00600064
v 0.02110561 0.08434528 0.01925822
v 0.02595020 0.06523408 0.02798827
v 0.01772217 0.06522430 0.00600064
v 0.00202159 0.02300940 0.03330303
v 0.01903277 0.06827414 0.03090927
v -0.00126023 0.07520955 0.03085121
v 0.01594085 0.02284768 0.03257556
v -0.01203400 0.06522430 0.00600064
v 0.02685343 0.07557257 0.02020349
v -0.00877646 0.08059891 0.02674551
v 0.02706923 0.06519862 0.02577064
v -0.01951068 0.06525603 0.03260126
v -0.01829845 0.04486481 0.02166178
v 0.02452655 0.06676488 0.02919833
v 0.00817106 0.07398705 0.03067522
v 0.01762676 0.04009189 0.03251899
v -0.02422870 0.07606638 0.02164905
v 0.02526712 0.07664663 0.02658739
v 0.02038337 0.08219867 0.02373790
v -0.02062707 0.08227843 0.02374593
v -0.01153024 0.07767097 0.02961721
v 0.02684660 0.07410568 0.02559251
v -0.00586003 0.06659938 0.03247791
v -0.01791357 0.04465483 0.03271846
v -0.02030440 0.07405674 0.03092476
v -0.01203400 0.04486481 0.00600064
v 0.02303646 0.07276514 0.02916843
v 0.02457011 0.06521009 0.02918726
v 0.01761237 0.06972097 0.03088741
v 0.01446065 0.07699548 0.02916164
v 0.00822138 0.05427152 0.03253609
v -0.02392446 0.06514435 0.02914283
v 0.02695507 0.07556188 0.02407189
v -0.01041462 0.08432207 0.02083186
v 0.02259687 0.07968383 0.02657585
v -0.02278783 0.07928587 0.02539537
v -0.02065459 0.08339415 0.02136257
v -0.02130638 0.08071228 0.02541752
v 0.02578514 0.07273685 0.02765718
v -0.01044117 0.06815555 0.03247436
v -0.02167115 0.07083393 0.03093525
v -0.01805506 0.07506957 0.03068398
v 0.01140187 0.07915620 0.02817822
v -0.02335133 0.06503104 0.03007379
v 0.02146643 0.08339304 0.02083118
v 0.00980852 0.08057177 0.02671878
v 0.02487096 0.07569668 0.02776011
v 0.02205605 0.07847213 0.02764803
v -0.02287904 0.07118992 0.02958720
v -0.02270180 0.08018353 0.02166831
v -0.01187482 0.07926805 0.02793318
v -0.01816457 0.06830858 0.03253047
v -0.01979445 0.06649102 0.03249847
v -0.02113682 0.07658856 0.02924113
vn 0.22042500 0.29294113 0.93037536
vn 0.55124211 -0.62107256 0.55713644
vn 0.50952946 -0.61873925 -0.59794772
vn -0.31524838 0.84798446 -0.42607607
vn -0.59112075 0.01256858 0.80648515
vn 0.38370220 0.64916316 -0.65677988
vn 0.97798580 -0.02350589 -0.20734331
vn 0.03633132 0.05071605 0.99805206
vn -0.58775619 0.49005036 0.64373388
vn -0.33008073 -0.70286338 -0.63010300
vn 0.52492775 0.84529222 0.09965901
vn 0.79671422 -0.03019894 0.60360126
vn 0.45768211 0.04442152 -0.88800553
vn -0.30223248 -0.70327795 0.64347157
vn 0.19289661 0.09075303 0.97701320
vn 0.02709893 0.34939588 0.93658324
vn 0.07328912 -0.70646489 0.70394323
vn -0.43605807 0.06552715 -0.89752969
vn 0.91643291 0.29269058 -0.27291564
vn -0.01362421 0.77841762 0.62759891
vn 0.94757730 -0.06609744 0.31261541
vn -0.20542998 0.00340384 0.97866590
vn -0.89038131 -0.42829148 -0.15423208
vn 0.50037982 0.05178498 0.86425595
vn 0.05841172 0.24898700 0.96674378
vn 0.24645347 0.00878034 0.96911485
vn -0.95729197 0.13575705 -0.25526868
vn 0.73911240 0.50174849 0.44940106
vn 0.15758136 0.84073653 0.51800599
vn -0.35157723 0.79814592 0.48924078
vn -0.03282861 0.57839608 0.81509524
vn 0.91701938 0.16752885 0.36195240
vn 0.03090076 0.08084545 0.99624754
vn -0.66000938 -0.35981511 0.65948518
vn -0.30224007 0.32377146 0.89656176
vn -0.57263424 -0.22234547 -0.78908334
vn 0.36042718 0.14186958 0.92193561
vn 0.55040273 -0.00865881 0.83485439
vn 0.09844949 0.16068255 0.98208392
vn 0.07435873 0.40693718 0.91042458
vn 0.04896757 0.04091465 0.99796201
vn -0.97734534 -0.08205622 0.19509709
vn 0.91790143 0.36497121 0.15573369
vn -0.01216033 0.86768155 0.49697169
vn 0.42899842 0.69258432 0.57990286
vn -0.84546063 0.44535358 0.29471430
vn -0.60300343 0.79745014 0.02145059
vn -0.38205468 0.73300745 0.56279153
vn 0.71521923 0.11414203 0.68951653
vn 0.01509411 0.11872715 0.99281218
vn -0.57162693 0.16384691 0.80398808
vn -0.06279509 0.42323174 0.90384272
vn 0.04541696 0.61748384 0.78527129
vn -0.79632529 -0.02104845 0.60450228
vn 0.54453485 0.76399760 0.34610613
vn 0.01690253 0.79360009 0.60820491
vn 0.58680538 0.31758351 0.74484909
vn 0.23456325 0.50738053 0.82918338
vn -0.85037331 0.16249885 0.50045914
vn -0.87422763 0.41778834 -0.24734381
vn -0.06140752 0.72728559 0.68358232
vn -0.07829962 0.14898160 0.98573508
vn -0.29057004 0.08149235 0.95337718
vn -0.15589240 0.52005311 0.83978707
f 7//7 2//2 3//3
f 11//11 6//6 4//4
f 13//13 7//7 3//3
f 13//13 3//3 10//10
f 17//17 10//10 3//3
f 17//17 3//3 2//2
f 17//17 14//14 10//10
f 18//18 4//4 6//6
f 18//18 13//13 10//10
f 18//18 6//6 13//13
f 19//19 6//6 11//11
f 19//19 13//13 6//6
f 19//19 7//7 13//13
f 21//21 12//12 2//2
f 21//21 2//2 7//7
f 23//23 10//10 14//14
f 26//26 14//14 17//17
f 26//26 17//17 2//2
f 26//26 24//24 15//15
f 27//27 4//4 18//18
f 29//29 11//11 4//4
f 32//32 21//21 7//7
f 32//32 12//12 21//21
f 33//33 14//14 8//8
f 34//34 22//22 5//5
f 34//34 14//14 22//22
f 34//34 23//23 14//14
f 36//36 18//18 10//10
f 36//36 10//10 23//23
f 36//36 27//27 18//18
f 36//36 23//23 27//27
f 37//37 1//1 15//15
f 37//37 15//15 24//24
f 38//38 2//2 12//12
f 38//38 12//12 24//24
f 38//38 26//26 2//2
f 38//38 24//24 26//26
f 39//39 15//15 1//1
f 39//39 1//1 25//25
f 39//39 33//33 8//8
f 39//39 8//8 15//15
f 40//40 25//25 1//1
f 40//40 16//16 25//25
f 41//41 8//8 14//14
f 41//41 14//14 26//26
f 41//41 26//26 15//15
f 41//41 15//15 8//8
f 42//42 27//27 23//23
f 42//42 23//23 34//34
f 43//43 19//19 11//11
f 43//43 28//28 32//32
f 43//43 32//32 7//7
f 43//43 7//7 19//19
f 44//44 29//29 4//4
f 44//44 30//30 20//20
f 44//44 4//4 30//30
f 46//46 27//27 42//42
f 47//47 30//30 4//4
f 47//47 46//46 30//30
f 48//48 9//9 31//31
f 48//48 46//46 9//9
f 48//48 30//30 46//46
f 49//49 24//24 12//12
f 49//49 12//12 32//32
f 50//50 25//25 16//16
f 50//50 39//39 25//25
f 50//50 33//33 39//39
f 51//51 35//35 9//9
f 52//52 31//31 9//9
f 52//52 16//16 31//31
f 53//53 31//31 16//16
f 53//53 16//16 40//40
f 53//53 20//20 31//31
f 54//54 42//42 34//34
f 54//54 34//34 5//5
f 54//54 5//5 51//51
f 55//55 43//43 11//11
f 55//55 28//28 43//43
f 55//55 45//45 28//28
f 55//55 11//11 29//29
f 55//55 29//29 45//45
f 56//56 44//44 20//20
f 56//56 29//29 44//44
f 56//56 20//20 53//53
f 56//56 53//53 45//45
f 56//56 45//45 29//29
f 57//57 28//28 45//45
f 57//57 1//1 37//37
f 57//57 37//37 24//24
f 57//57 24//24 49//49
f 57//57 49//49 32//32
f 57//57 32//32 28//28
f 58//58 40//40 1//1
f 58//58 57//57 45//45
f 58//58 1//1 57//57
f 58//58 53//53 40//40
f 58//58 45//45 53//53
f 59//59 46//46 42//42
f 59//59 9//9 46//46
f 59//59 42//42 54//54
f 59//59 54//54 51//51
f 59//59 51//51 9//9
f 60//60 47//47 4//4
f 60//60 4//4 27//27
f 60//60 27//27 46//46
f 60//60 46//46 47//47
f 61//61 48//48 31//31
f 61//61 31//31 20//20
f 61//61 20//20 30//30
f 61//61 30//30 48//48
f 62//62 50//50 16//16
f 62//62 33//33 50//50
f 62//62 22//22 14//14
f 62//62 14//14 33//33
f 62//62 52//52 35//35
f 62//62 16//16 52//52
f 63//63 51//51 5//5
f 63//63 5//5 22//22
f 63//63 35//35 51//51
f 63//63 62//62 35//35
f 63//63 22//22 62//62
f 64//64 52//52 9//9
f 64//64 9//9 35//35
f 64//64 35//35 52//52

