# https://github.com/mikedh/trimesh
v 0.03936149 -0.01790212 0.00248868
v 0.03948308 -0.04925536 0.00248647
v 0.03176368 -0.03119438 -0.03580548
v -0.03261633 -0.01781138 -0.03562025
v -0.03835882 -0.01792429 0.00245334
v -0.03136934 -0.04923543 -0.03522210
v 0.02166574 -0.01783233 -0.03806915
v 0.03707794 -0.03593894 -0.02819305
v -0.01833633 -0.01771058 -0.03781126
v -0.03606111 -0.04902590 -0.03161650
v 0.03790898 -0.01808710 -0.01749835
v 0.01730538 -0.04472686 -0.03776959
v -0.02054846 -0.02899922 -0.03760784
v -0.03629947 -0.01790910 -0.03222399
v -0.03446259 -0.04892130 -0.03326110
v -0.03815636 -0.04924271 0.00245161
v 0.03529527 -0.03129665 -0.03209153
v 0.03740018 -0.04908982 -0.02614368
v 0.02553359 -0.04027100 -0.03744434
v -0.01597517 -0.03783878 -0.03768057
v -0.02053152 -0.02018689 -0.03759389
v 0.02998718 -0.04931352 -0.03572124
v 0.03726080 -0.03142899 -0.02618666
v 0.03702731 -0.04687741 -0.02855224
v 0.02591547 -0.03128070 -0.03766905
v -0.01160888 -0.04240583 -0.03765172
v 0.03349673 -0.04928662 -0.03388238
v -0.00056717 -0.04465324 -0.03766735
v 0.03513405 -0.04913817 -0.03184903
v 0.03179175 -0.04448998 -0.03511715
vn 0.59912606 0.57432070 0.55785635
vn 0.60108488 -0.57225402 0.55787302
vn 0.55936889 0.14481386 -0.81617118
vn -0.34269303 0.64253975 -0.68534966
vn -0.59841874 0.57106188 0.56194603
vn -0.25172571 -0.67611285 -0.69246342
vn 0.21705761 0.67729077 -0.70296743
vn 0.96470274 0.02526350 -0.26212666
vn -0.04757654 0.69630259 -0.71616980
vn -0.71805658 -0.62217392 -0.31192043
vn 0.70701506 0.68638084 -0.17032629
vn 0.01791308 -0.21615824 -0.97619400
vn -0.10946980 -0.01790842 -0.99382878
vn -0.71245112 0.61668877 -0.33482586
vn -0.56034753 -0.48522173 -0.67124549
vn -0.59433552 -0.57606901 0.56116823
vn 0.81907484 0.19930748 -0.53795254
vn 0.73487342 -0.66714635 -0.12197055
vn 0.17029212 -0.05744641 -0.98371770
vn -0.06147756 -0.04388870 -0.99714306
vn -0.13469518 0.01727490 -0.99073649
vn 0.21623661 -0.69859804 -0.68205756
vn 0.97545510 0.07552672 -0.20684065
vn 0.94107553 -0.07409046 -0.32998099
vn 0.18796689 0.00239102 -0.98217246
vn -0.03736915 -0.11137529 -0.99307557
vn 0.48279280 -0.67544495 -0.55739145
vn -0.00920909 -0.23034768 -0.97306482
vn 0.66288716 -0.63308903 -0.39972353
vn 0.46434530 -0.04703776 -0.88440426
f 9//9 5//5 1//1
f 9//9 4//4 5//5
f 9//9 1//1 7//7
f 11//11 7//7 1//1
f 11//11 1//1 2//2
f 13//13 6//6 4//4
f 14//14 5//5 4//4
f 15//15 4//4 6//6
f 15//15 6//6 10//10
f 15//15 14//14 4//4
f 15//15 10//10 14//14
f 16//16 10//10 6//6
f 16//16 14//14 10//10
f 16//16 5//5 14//14
f 16//16 2//2 1//1
f 16//16 1//1 5//5
f 17//17 3//3 7//7
f 17//17 7//7 11//11
f 18//18 11//11 2//2
f 20//20 9//9 7//7
f 20//20 7//7 12//12
f 20//20 13//13 9//9
f 20//20 6//6 13//13
f 21//21 13//13 4//4
f 21//21 4//4 9//9
f 21//21 9//9 13//13
f 22//22 16//16 6//6
f 22//22 2//2 16//16
f 22//22 12//12 19//19
f 23//23 17//17 11//11
f 23//23 8//8 17//17
f 23//23 18//18 8//8
f 23//23 11//11 18//18
f 24//24 17//17 8//8
f 24//24 8//8 18//18
f 25//25 19//19 12//12
f 25//25 12//12 7//7
f 25//25 7//7 3//3
f 25//25 22//22 19//19
f 25//25 3//3 22//22
f 26//26 20//20 12//12
f 26//26 6//6 20//20
f 27//27 18//18 2//2
f 27//27 2//2 22//22
f 27//27 3//3 17//17
f 28//28 22//22 6//6
f 28//28 12//12 22//22
f 28//28 26//26 12//12
f 28//28 6//6 26//26
f 29//29 24//24 18//18
f 29//29 18//18 27//27
f 29//29 27//27 17//17
f 29//29 17//17 24//24
f 30//30 27//27 22//22
f 30//30 22//22 3//3
f 30//30 3//3 27//27

