# https://github.com/mikedh/trimesh
v 0.02369930 0.00884087 0.03789882
v 0.02384723 -0.01785418 0.03888211
v 0.02171858 0.00896993 -0.03932138
v -0.01844798 0.00897374 -0.03923989
v 0.00158090 0.00902582 0.03922309
v 0.02166574 -0.01783233 -0.03806915
v 0.02401030 0.00892555 -0.01767878
v -0.01849851 -0.01792212 0.00245698
v 0.02401030 -0.01792212 -0.01767878
v -0.01849851 0.00892555 0.00245698
v 0.00156320 -0.01793600 0.03980174
v -0.01833633 -0.01771058 -0.03781126
vn 0.59331701 0.58853248 0.54918525
vn 0.58893778 -0.56908885 0.57383810
vn 0.54028042 0.57002770 -0.61900363
vn -0.57609571 0.56274670 -0.59281522
vn -0.38582905 0.61447381 0.68815542
vn 0.53989046 -0.59632347 -0.59406785
vn 0.72065085 0.69238280 -0.03561465
vn -0.73217427 -0.65635083 0.18200115
vn 0.71715427 -0.69574136 -0.04041927
vn -0.73422896 0.65324222 0.18488493
vn -0.39220671 -0.59902904 0.69809606
vn -0.58033495 -0.59021924 -0.56111728
f 5//5 2//2 1//1
f 5//5 3//3 4//4
f 6//6 4//4 3//3
f 7//7 1//1 2//2
f 7//7 5//5 1//1
f 7//7 3//3 5//5
f 9//9 6//6 3//3
f 9//9 3//3 7//7
f 9//9 7//7 2//2
f 9//9 8//8 6//6
f 10//10 5//5 4//4
f 10//10 4//4 8//8
f 11//11 2//2 5//5
f 11//11 10//10 8//8
f 11//11 5//5 10//10
f 11//11 9//9 2//2
f 11//11 8//8 9//9
f 12//12 8//8 4//4
f 12//12 4//4 6//6
f 12//12 6//6 8//8

