# https://github.com/mikedh/trimesh
v 0.00183577 0.04006158 0.03878262
v 0.00163724 -0.04924441 0.02483004
v 0.00163724 0.04024783 0.00021967
v -0.01849851 0.04024783 0.00021967
v -0.01850698 -0.03131407 0.04003816
v 0.00163724 -0.04924441 0.00245698
v -0.01842275 0.04020704 0.03876347
v 0.00152204 -0.03121965 0.03974248
v -0.01849851 0.00892555 0.00021967
v -0.01849851 -0.04924441 0.02483004
v -0.01202949 0.00220303 0.04040941
v 0.00163724 0.00892555 0.00021967
v -0.01849851 -0.04924441 0.00245698
v -0.01840459 -0.01582492 0.04037075
v -0.00510805 -0.01580958 0.04036232
v -0.01396194 0.00215604 0.04039065
v -0.01846059 -0.02214142 0.04033027
v -0.00745092 -0.02214329 0.04036503
v -0.00523282 -0.02004038 0.04035693
vn 0.58416840 0.58218395 0.56551670
vn 0.62322892 -0.70854804 0.33097641
vn 0.57582468 0.57821435 -0.57800873
vn -0.57761991 0.57776023 -0.57667005
vn -0.63716015 -0.27776383 0.71893964
vn 0.57881592 -0.58768046 -0.56533512
vn -0.57757428 0.58951742 0.56469210
vn 0.64379868 -0.26949162 0.71616864
vn -0.70273079 -0.01367279 -0.71132446
vn -0.62345427 -0.70951398 0.32847326
vn 0.01910034 0.02103124 0.99959635
vn 0.70103336 -0.01373446 -0.71299621
vn -0.57934142 -0.58731497 -0.56517664
vn -0.61094931 0.00372546 0.79166095
vn 0.06341738 0.00620634 0.99796779
vn -0.05867547 0.02398489 0.99798894
vn -0.67723562 -0.01129288 0.73567954
vn 0.01271210 -0.02692570 0.99955661
vn 0.04404820 -0.00930747 0.99898605
f 6//6 1//1 2//2
f 7//7 1//1 3//3
f 7//7 3//3 4//4
f 7//7 4//4 5//5
f 8//8 5//5 2//2
f 8//8 2//2 1//1
f 9//9 4//4 3//3
f 9//9 5//5 4//4
f 10//10 6//6 2//2
f 10//10 2//2 5//5
f 11//11 1//1 7//7
f 12//12 9//9 3//3
f 12//12 6//6 9//9
f 12//12 3//3 1//1
f 12//12 1//1 6//6
f 13//13 9//9 6//6
f 13//13 6//6 10//10
f 13//13 10//10 5//5
f 13//13 5//5 9//9
f 15//15 8//8 1//1
f 15//15 1//1 11//11
f 16//16 14//14 11//11
f 16//16 11//11 7//7
f 16//16 7//7 14//14
f 17//17 14//14 7//7
f 17//17 7//7 5//5
f 18//18 15//15 11//11
f 18//18 11//11 14//14
f 18//18 14//14 17//17
f 18//18 17//17 5//5
f 18//18 5//5 8//8
f 19//19 18//18 8//8
f 19//19 8//8 15//15
f 19//19 15//15 18//18

