# https://github.com/mikedh/trimesh
v 0.02754999 -0.01788354 0.03807575
v 0.03855783 -0.07832799 0.02464035
v 0.03859844 -0.04927416 -0.01541906
v 0.00163724 -0.04924441 -0.01544147
v 0.00163724 -0.07832939 0.02483004
v 0.03785506 -0.07840949 -0.01546193
v 0.03929699 -0.01818673 0.00203764
v 0.02385287 -0.04935156 0.03912278
v 0.00156320 -0.01793600 0.03980174
v 0.03959902 -0.07597527 0.01153628
v 0.00163724 -0.07832939 -0.01544147
v 0.03457163 -0.01793572 0.03488074
v 0.00163724 -0.01792212 0.00245698
v 0.00152204 -0.03121965 0.03974248
v 0.03962081 -0.07606502 0.01358463
v 0.03953289 -0.04936074 0.00278664
v 0.03955211 -0.04919036 0.02010542
v 0.03361249 -0.04957905 0.03596140
v 0.03948264 -0.05586515 0.00265630
v 0.03958972 -0.07382735 0.01582113
v 0.02767859 -0.04934074 0.03816911
v 0.03190764 -0.01793974 0.03634839
vn 0.16693007 0.68145230 0.71257078
vn 0.58563520 -0.66596251 0.46208803
vn 0.63862239 0.18376072 -0.74725728
vn -0.65338061 0.19317626 -0.73196770
vn -0.60779475 -0.66183702 0.43881351
vn 0.54940460 -0.58814037 -0.59350274
vn 0.62501578 0.68540740 -0.37359333
vn 0.05170510 -0.21355591 0.97556161
vn -0.56251665 0.57660240 0.59254088
vn 0.98198173 -0.18677811 -0.02873707
vn -0.57764608 -0.57688565 -0.57751879
vn 0.62782372 0.63406783 0.45143700
vn -0.60904400 0.68668509 -0.39689922
vn -0.69210191 -0.06435159 0.71892546
vn 0.97000940 -0.24301000 0.00528208
vn 0.99962053 0.00194408 -0.02747746
vn 0.98891077 0.02051093 0.14708772
vn 0.63799095 -0.10410769 0.76297388
vn 0.99899087 -0.01139022 -0.04344540
vn 0.99770147 -0.02592616 0.06260675
vn 0.28340781 -0.16015962 0.94553102
vn 0.32248974 0.65874738 0.67974426
f 6//6 4//4 3//3
f 6//6 2//2 5//5
f 7//7 3//3 4//4
f 8//8 5//5 2//2
f 9//9 8//8 1//1
f 10//10 6//6 3//3
f 11//11 6//6 5//5
f 11//11 4//4 6//6
f 13//13 7//7 4//4
f 13//13 9//9 1//1
f 13//13 12//12 7//7
f 13//13 1//1 12//12
f 14//14 5//5 8//8
f 14//14 8//8 9//9
f 14//14 11//11 5//5
f 14//14 4//4 11//11
f 14//14 13//13 4//4
f 14//14 9//9 13//13
f 15//15 2//2 6//6
f 15//15 6//6 10//10
f 16//16 3//3 7//7
f 16//16 15//15 10//10
f 17//17 12//12 2//2
f 17//17 7//7 12//12
f 17//17 16//16 7//7
f 17//17 15//15 16//16
f 18//18 2//2 12//12
f 19//19 16//16 10//10
f 19//19 10//10 3//3
f 19//19 3//3 16//16
f 20//20 17//17 2//2
f 20//20 2//2 15//15
f 20//20 15//15 17//17
f 21//21 8//8 2//2
f 21//21 2//2 18//18
f 21//21 18//18 1//1
f 21//21 1//1 8//8
f 22//22 18//18 12//12
f 22//22 12//12 1//1
f 22//22 1//1 18//18

