# https://github.com/mikedh/trimesh
v 0.02381629 -0.03128063 0.03860192
v 0.03722773 -0.10016915 0.03119993
v 0.03513405 -0.04913817 -0.03184903
v -0.02929264 -0.04901592 -0.03558673
v -0.03393994 -0.10079850 0.03685023
v 0.02951592 -0.10483377 -0.03134339
v 0.02401030 -0.03134596 0.02483004
v 0.03717787 -0.04898471 0.03250832
v 0.03026029 -0.10072058 0.03828637
v -0.01850698 -0.03131407 0.04003816
v 0.03714122 -0.09604255 -0.02608086
v 0.02998718 -0.04931352 -0.03572124
v -0.03230138 -0.10378716 -0.03117089
v 0.03740018 -0.04908982 -0.02614368
v 0.03361249 -0.04957905 0.03596140
v 0.03356487 -0.10066844 0.03696692
v -0.00509666 -0.10725807 0.01554530
v -0.03605369 -0.04889163 0.03284030
v -0.01849851 -0.03134596 0.02483004
v 0.01031860 -0.04044478 0.04032465
v 0.03514974 -0.08794016 -0.03144697
v 0.03462900 -0.10367621 -0.02780988
v -0.00058811 -0.08734497 -0.03543593
v 0.03349673 -0.04928662 -0.03388238
v 0.03737532 -0.09110800 0.03174462
v 0.02966406 -0.05857973 0.03779223
v -0.02051725 -0.10471301 0.03508147
v 0.03016026 -0.10501203 0.02445283
v -0.01826933 -0.10719270 -0.02801966
v -0.03134285 -0.04883267 0.03811225
v -0.03840191 -0.08018161 -0.01302932
v -0.03684673 -0.04915395 -0.03025778
v 0.03183746 -0.10050674 0.03811456
v -0.02727082 -0.09827777 0.04031495
v 0.03713176 -0.06953794 -0.02804779
v 0.03166997 -0.10190630 -0.03264692
v 0.03698034 -0.10029662 -0.02367348
v 0.03467611 -0.10181173 -0.02984265
v -0.01170350 -0.08498502 -0.03548719
v 0.03000984 -0.06245609 -0.03533019
v 0.03563857 -0.10136676 0.03402452
v -0.02872744 -0.10708154 -0.01569193
v -0.00054069 -0.10480748 0.03347521
v 0.02931318 -0.10712947 -0.02197886
v -0.00488440 -0.10353253 -0.03296685
v -0.03430574 -0.07187537 0.03581315
v -0.03617476 -0.10121397 0.00753929
v -0.03446259 -0.04892130 -0.03326110
v -0.03854173 -0.05601253 -0.00657681
v -0.03608841 -0.09579547 -0.02815443
v 0.03019395 -0.10255033 0.03657553
v -0.00948628 -0.04040801 0.04036256
v 0.01029004 -0.06934478 0.04026472
v -0.03107378 -0.10224584 0.03744484
v -0.03219562 -0.07840564 0.03792474
v -0.02741937 -0.09197008 0.04033091
v 0.03307504 -0.10487823 -0.02841377
v 0.03691090 -0.10213037 0.00530078
v 0.00819273 -0.08495901 -0.03545392
v -0.03101141 -0.09841537 -0.03296668
v 0.03372331 -0.07385368 -0.03290293
v -0.02881106 -0.10712758 -0.02166443
v -0.02727556 -0.10507265 0.03119435
v 0.02981205 -0.10697627 0.00887096
vn 0.39327636 0.69544870 0.60140238
vn 0.91309035 -0.36309228 0.18555327
vn 0.69944296 0.54951151 -0.45696460
vn -0.17603605 0.55298474 -0.81438270
vn -0.75904695 -0.43209393 0.48697286
vn 0.17097703 -0.76574448 -0.62000182
vn 0.41147022 0.90678707 -0.09181211
vn 0.90195363 0.26346803 0.34214652
vn 0.09244051 -0.38492804 0.91830559
vn -0.31737252 0.70825548 0.63059405
vn 0.97004203 -0.07363782 -0.23150793
vn 0.19990034 0.54761108 -0.81250352
vn -0.54749537 -0.59890711 -0.58443057
vn 0.86301346 0.46616500 -0.19467399
vn 0.54750059 0.09821119 0.83102206
vn 0.60967934 -0.39753256 0.68575430
vn -0.00795227 -0.99774087 0.06670767
vn -0.89170567 0.33036052 0.30939122
vn -0.33536837 0.93744035 -0.09345392
vn 0.05338654 0.05223973 0.99720654
vn 0.74146826 -0.04404401 -0.66954085
vn 0.76766783 -0.59522576 -0.23747083
vn 0.00129145 -0.08878826 -0.99604969
vn 0.51417526 0.54079279 -0.66570787
vn 0.95331952 -0.00939609 0.30181719
vn 0.29828519 0.02483154 0.95415373
vn -0.01878498 -0.89102737 0.45356076
vn 0.22300342 -0.96478464 0.13949937
vn -0.03748472 -0.93693656 -0.34748351
vn -0.53210538 0.17561058 0.82826614
vn -0.99854180 -0.04619911 -0.02792706
vn -0.81286883 0.48117570 -0.32819844
vn 0.33794985 -0.33894122 0.87801409
vn -0.16849703 -0.25666369 0.95169979
vn 0.95727531 -0.00498571 -0.28913512
vn 0.38086155 -0.32638871 -0.86510976
vn 0.95151950 -0.29139257 -0.09849375
vn 0.77949387 -0.32313968 -0.53662841
vn -0.03662169 -0.06934317 -0.99692045
vn 0.26396158 -0.03583373 -0.96386733
vn 0.70756036 -0.57695366 0.40802305
vn -0.31863317 -0.94770775 0.01797015
vn 0.02529177 -0.96481642 0.26170518
vn 0.23871238 -0.96789697 -0.07868830
vn -0.00938849 -0.50784887 -0.86139502
vn -0.76427068 0.01418246 0.64473963
vn -0.86231802 -0.50376490 0.05126949
vn -0.51364938 0.54547324 -0.66228639
vn -0.99345212 0.11388708 0.00908954
vn -0.91442095 -0.17687183 -0.36407510
vn 0.16505027 -0.86311361 0.47727698
vn -0.00740732 0.01654476 0.99983569
vn 0.04799030 -0.01146841 0.99878196
vn -0.32422459 -0.73217293 0.59900018
vn -0.54506841 0.00934574 0.83833948
vn -0.23762540 -0.00284004 0.97135272
vn 0.48949013 -0.81235823 -0.31697559
vn 0.85703906 -0.51518660 0.00817389
vn 0.02947173 -0.06273765 -0.99759481
vn -0.37505743 -0.14256803 -0.91597286
vn 0.51214186 -0.03424575 -0.85821789
vn -0.34693792 -0.93525673 -0.07020632
vn -0.25972759 -0.95511552 0.14246372
vn 0.29892537 -0.95305509 0.04826614
f 8//8 7//7 1//1
f 12//12 4//4 7//7
f 14//14 3//3 7//7
f 14//14 7//7 8//8
f 15//15 8//8 1//1
f 16//16 8//8 15//15
f 19//19 7//7 4//4
f 19//19 10//10 1//1
f 19//19 1//1 7//7
f 20//20 1//1 10//10
f 24//24 12//12 7//7
f 24//24 7//7 3//3
f 24//24 3//3 21//21
f 25//25 14//14 8//8
f 25//25 2//2 11//11
f 25//25 11//11 14//14
f 25//25 8//8 16//16
f 26//26 15//15 1//1
f 30//30 10//10 18//18
f 32//32 18//18 10//10
f 32//32 10//10 19//19
f 33//33 20//20 9//9
f 33//33 1//1 20//20
f 33//33 26//26 1//1
f 33//33 16//16 15//15
f 33//33 15//15 26//26
f 35//35 14//14 11//11
f 35//35 11//11 21//21
f 35//35 21//21 3//3
f 35//35 3//3 14//14
f 37//37 11//11 2//2
f 38//38 21//21 11//11
f 38//38 37//37 22//22
f 38//38 11//11 37//37
f 38//38 36//36 21//21
f 39//39 4//4 12//12
f 40//40 12//12 24//24
f 41//41 25//25 16//16
f 41//41 2//2 25//25
f 43//43 27//27 17//17
f 43//43 17//17 28//28
f 44//44 29//29 6//6
f 44//44 17//17 29//29
f 45//45 29//29 13//13
f 45//45 6//6 29//29
f 45//45 36//36 6//6
f 45//45 23//23 36//36
f 45//45 39//39 23//23
f 46//46 30//30 18//18
f 46//46 18//18 5//5
f 46//46 5//5 30//30
f 47//47 5//5 18//18
f 47//47 18//18 31//31
f 47//47 42//42 5//5
f 48//48 32//32 19//19
f 48//48 19//19 4//4
f 49//49 32//32 31//31
f 49//49 31//31 18//18
f 49//49 18//18 32//32
f 50//50 31//31 32//32
f 50//50 47//47 31//31
f 50//50 13//13 47//47
f 50//50 32//32 48//48
f 51//51 33//33 9//9
f 51//51 16//16 33//33
f 51//51 41//41 16//16
f 51//51 28//28 41//41
f 51//51 43//43 28//28
f 51//51 9//9 27//27
f 51//51 27//27 43//43
f 52//52 20//20 10//10
f 53//53 34//34 9//9
f 53//53 9//9 20//20
f 54//54 27//27 9//9
f 54//54 9//9 34//34
f 54//54 34//34 5//5
f 55//55 30//30 5//5
f 56//56 10//10 30//30
f 56//56 30//30 55//55
f 56//56 55//55 5//5
f 56//56 5//5 34//34
f 56//56 52//52 10//10
f 56//56 20//20 52//52
f 56//56 53//53 20//20
f 56//56 34//34 53//53
f 57//57 6//6 36//36
f 57//57 44//44 6//6
f 57//57 38//38 22//22
f 57//57 36//36 38//38
f 58//58 37//37 2//2
f 58//58 22//22 37//37
f 58//58 2//2 41//41
f 58//58 57//57 22//22
f 59//59 39//39 12//12
f 59//59 23//23 39//39
f 59//59 12//12 40//40
f 59//59 40//40 36//36
f 59//59 36//36 23//23
f 60//60 4//4 39//39
f 60//60 48//48 4//4
f 60//60 50//50 48//48
f 60//60 13//13 50//50
f 60//60 45//45 13//13
f 60//60 39//39 45//45
f 61//61 40//40 24//24
f 61//61 24//24 21//21
f 61//61 21//21 36//36
f 61//61 36//36 40//40
f 62//62 13//13 29//29
f 62//62 29//29 17//17
f 62//62 17//17 42//42
f 62//62 47//47 13//13
f 62//62 42//42 47//47
f 63//63 42//42 17//17
f 63//63 17//17 27//27
f 63//63 27//27 54//54
f 63//63 54//54 5//5
f 63//63 5//5 42//42
f 64//64 28//28 17//17
f 64//64 17//17 44//44
f 64//64 44//44 57//57
f 64//64 57//57 58//58
f 64//64 58//58 41//41
f 64//64 41//41 28//28

