# https://github.com/mikedh/trimesh
v -0.06057051 0.00206770 0.01847206
v -0.04931714 -0.01574357 0.00190919
v -0.05484113 0.00228516 -0.00948231
v -0.06533531 0.00159121 -0.01434486
v -0.07025374 -0.01570207 0.01379118
v -0.05057203 -0.01604581 -0.01306334
v -0.06578574 0.00211129 0.01742234
v -0.05594695 0.00210188 0.01269944
v -0.06451445 -0.01565626 0.01760365
v -0.04951486 -0.01602827 -0.01212358
v -0.05860670 0.00194414 -0.01372220
v -0.07057597 -0.01581654 -0.01277729
v -0.06899936 0.00172626 -0.01086793
v -0.05317798 -0.01491923 0.01093749
v -0.05483334 0.00211169 0.00490139
v -0.05689818 0.00219915 0.01584513
v -0.06826686 -0.01560234 0.01667479
v -0.06116698 0.00219420 0.01847404
v -0.06948394 -0.01570826 0.01553708
v -0.04965872 -0.01478246 -0.00370084
v -0.05875292 -0.01606972 -0.01568202
v -0.06689844 0.00165906 -0.01345713
v -0.07013656 -0.00041681 -0.00815526
v -0.06076306 0.00186505 -0.01449869
v -0.05815515 -0.01042411 0.01544925
v -0.06546612 -0.01552880 0.01739690
v -0.05883166 0.00216757 0.01763693
v -0.06886689 -0.00603379 0.01544829
v -0.04975885 -0.01483353 -0.00892656
v -0.06421603 -0.01569244 -0.01595436
v -0.07152704 -0.01594543 -0.01087820
v -0.06902920 0.00058513 -0.01143781
v -0.06893222 0.00186135 0.01057507
v -0.05287714 -0.01604849 -0.01384645
v -0.06078747 -0.01013946 0.01706426
v -0.05888873 -0.00223682 0.01718634
v -0.06794612 -0.00482889 0.01614375
v -0.07011029 -0.01351286 0.01385259
v -0.06086797 -0.01283736 -0.01558918
v -0.06790780 0.00165906 -0.01241752
v -0.07001156 -0.00055612 -0.00973560
v -0.06802639 0.00187530 0.01477125
v -0.06045759 0.00099848 0.01835824
v -0.06890267 0.00074298 0.01167824
v -0.07008545 -0.00689659 0.00845597
v -0.06708285 0.00185714 0.01630964
v -0.07007403 -0.00799805 0.00955294
v -0.07129155 -0.01576689 -0.00478580
vn 0.23069500 0.40830873 0.88321220
vn 0.81290622 -0.56738690 0.13136055
vn 0.60175351 0.76025596 -0.24475211
vn -0.22562644 0.60945508 -0.76003764
vn -0.75099987 -0.63501937 0.18096847
vn 0.44114041 -0.59094459 -0.67541071
vn -0.34321575 0.66685847 0.66143990
vn 0.70006387 0.69542378 0.16216145
vn 0.06682334 -0.66741787 0.74167919
vn 0.78283601 -0.51352705 -0.35136556
vn 0.33566730 0.70630550 -0.62326560
vn -0.58357769 -0.56647121 -0.58184830
vn -0.61548998 0.75084055 -0.23960500
vn 0.66385928 -0.56103907 0.49449572
vn 0.65416634 0.75436002 0.05483928
vn 0.60847775 0.65959180 0.44124085
vn -0.39088582 -0.58435582 0.71115157
vn -0.06248807 0.67563399 0.73458420
vn -0.61846098 -0.64424887 0.44994379
vn 0.96448737 0.26364537 -0.01597624
vn 0.13502508 -0.65493010 -0.74352861
vn -0.43284024 0.68338250 -0.58790959
vn -0.96259487 0.27018479 -0.02028038
vn 0.08183290 0.68964642 -0.71950760
vn 0.54406579 -0.18061585 0.81937191
vn -0.23544416 -0.11759974 0.96474678
vn 0.43679213 0.62519458 0.64679546
vn -0.85263376 0.09159059 0.51441893
vn 0.96242170 0.27044148 -0.02461447
vn -0.17894874 -0.55992834 -0.80898554
vn -0.76548606 -0.61777966 -0.17994273
vn -0.82052044 0.18532527 -0.54074093
vn -0.69806013 0.71231485 0.07293567
vn 0.24399720 -0.63088039 -0.73651564
vn 0.42165292 -0.16515803 0.89158939
vn 0.53961932 -0.10395717 0.83546627
vn -0.64592497 0.06024691 0.76101987
vn -0.96617987 0.06813808 0.24870396
vn 0.05692711 0.07127245 -0.99583108
vn -0.54755247 0.66832340 -0.50351776
vn -0.95062614 0.20158633 -0.23595105
vn -0.69139800 0.67099871 0.26782370
vn 0.32284495 -0.08682189 0.94246119
vn -0.97422818 0.13246902 0.18256891
vn -0.99340477 0.08977597 0.07132489
vn -0.66021117 0.52385489 0.53823533
vn -0.99135581 0.08532756 0.09966377
vn -0.96717875 -0.24979975 0.04653339
f 10//10 2//2 9//9
f 11//11 10//10 6//6
f 11//11 3//3 10//10
f 13//13 7//7 3//3
f 14//14 9//9 2//2
f 15//15 8//8 2//2
f 15//15 2//2 3//3
f 16//16 14//14 2//2
f 16//16 2//2 8//8
f 16//16 15//15 3//3
f 16//16 8//8 15//15
f 18//18 9//9 1//1
f 18//18 16//16 3//3
f 18//18 3//3 7//7
f 19//19 10//10 9//9
f 19//19 6//6 10//10
f 19//19 9//9 17//17
f 20//20 3//3 2//2
f 20//20 2//2 10//10
f 21//21 6//6 19//19
f 22//22 4//4 12//12
f 24//24 13//13 3//3
f 24//24 3//3 11//11
f 24//24 22//22 13//13
f 24//24 4//4 22//22
f 24//24 11//11 6//6
f 25//25 9//9 14//14
f 26//26 17//17 9//9
f 26//26 7//7 17//17
f 26//26 18//18 7//7
f 26//26 9//9 18//18
f 27//27 18//18 1//1
f 27//27 16//16 18//18
f 27//27 14//14 16//16
f 28//28 19//19 17//17
f 29//29 20//20 10//10
f 29//29 10//10 3//3
f 29//29 3//3 20//20
f 30//30 21//21 12//12
f 30//30 12//12 4//4
f 30//30 4//4 24//24
f 31//31 21//21 19//19
f 31//31 19//19 5//5
f 31//31 12//12 21//21
f 32//32 12//12 31//31
f 33//33 7//7 13//13
f 33//33 13//13 23//23
f 34//34 24//24 6//6
f 34//34 6//6 21//21
f 34//34 21//21 24//24
f 35//35 9//9 25//25
f 36//36 25//25 14//14
f 36//36 14//14 27//27
f 36//36 35//35 25//25
f 37//37 28//28 17//17
f 37//37 17//17 7//7
f 37//37 7//7 28//28
f 38//38 5//5 19//19
f 38//38 19//19 28//28
f 39//39 30//30 24//24
f 39//39 24//24 21//21
f 39//39 21//21 30//30
f 40//40 22//22 12//12
f 40//40 12//12 32//32
f 40//40 32//32 13//13
f 40//40 13//13 22//22
f 41//41 32//32 31//31
f 41//41 31//31 23//23
f 41//41 23//23 13//13
f 41//41 13//13 32//32
f 42//42 7//7 33//33
f 43//43 1//1 9//9
f 43//43 9//9 35//35
f 43//43 35//35 36//36
f 43//43 36//36 27//27
f 43//43 27//27 1//1
f 44//44 38//38 28//28
f 44//44 33//33 38//38
f 44//44 42//42 33//33
f 44//44 28//28 42//42
f 45//45 33//33 23//23
f 45//45 23//23 31//31
f 45//45 5//5 38//38
f 46//46 42//42 28//28
f 46//46 28//28 7//7
f 46//46 7//7 42//42
f 47//47 45//45 38//38
f 47//47 38//38 33//33
f 47//47 33//33 45//45
f 48//48 45//45 31//31
f 48//48 31//31 5//5
f 48//48 5//5 45//45

