# https://github.com/mikedh/trimesh
v -0.01177324 0.03930596 0.01738938
v -0.00375384 0.02536916 0.01696235
v -0.00493436 0.03765313 -0.01335939
v -0.03321333 0.04172829 -0.01537265
v -0.04119892 0.03419118 0.01846089
v -0.00345517 0.02540275 -0.01672835
v -0.02489710 0.05049878 -0.00869196
v -0.00490719 0.04077217 0.01255336
v -0.01033210 0.03446049 0.01731749
v -0.01913848 0.04475249 -0.01532233
v -0.04124615 0.03422290 -0.01393537
v -0.03531433 0.04831889 0.01444596
v -0.00483293 0.03801719 0.01508531
v -0.01211705 0.04612180 -0.01164166
v -0.00487747 0.04069659 -0.00653274
v -0.00358929 0.02843158 -0.01666476
v -0.03419118 0.04836779 -0.01214017
v -0.03322184 0.03969481 -0.01529191
v -0.03631936 0.02930883 -0.00347819
v -0.03442533 0.04501223 0.01734919
v -0.01517656 0.04726105 0.01253789
v -0.04828149 0.04139685 0.01300448
v -0.00431982 0.03270982 0.01621667
v -0.02167658 0.04825072 -0.01254099
v -0.01009067 0.04211590 -0.01414598
v -0.00896203 0.04496960 0.00435286
v -0.00508410 0.03977191 -0.01140228
v -0.02453849 0.04475056 -0.01528427
v -0.03629240 0.04938795 -0.00971418
v -0.04481846 0.04261062 -0.01208939
v -0.01364670 0.02622259 -0.00058623
v -0.00674266 0.02554388 0.01620996
v -0.02153922 0.04449753 0.01723431
v -0.02366345 0.04939446 0.01070585
v -0.01613634 0.04815844 -0.01004953
v -0.01186405 0.04335556 0.01609681
v -0.04371902 0.04327413 0.01617647
v -0.00737986 0.03937174 0.01604197
v -0.01067445 0.03842212 0.01725169
v -0.01523565 0.04616121 -0.01323985
v -0.03218423 0.04939966 -0.01142489
v -0.01188906 0.04125296 -0.01522038
v -0.00449035 0.03445839 -0.01527783
v -0.00804398 0.04394674 -0.00438292
v -0.00802343 0.04388128 0.01154091
v -0.00906347 0.04388097 -0.01160074
v -0.03315720 0.04567445 -0.01407974
v -0.02790739 0.04662015 -0.01420902
v -0.03426031 0.04934037 0.00971807
v -0.04290409 0.04156310 -0.01334912
v -0.04262590 0.04508478 -0.01140185
v -0.04806451 0.04122460 -0.01047721
v -0.00719173 0.02573939 -0.01360734
v -0.03633355 0.02933235 -0.00145997
v -0.02153007 0.04738029 0.01527125
v -0.02052943 0.04933708 0.00749897
v -0.02067372 0.04925780 -0.01032833
v -0.01101889 0.04605495 -0.00007961
v -0.01383184 0.04152873 0.01720884
v -0.03963259 0.04545594 0.01629012
v -0.04369808 0.04493664 0.01377337
v -0.04504429 0.04136058 0.01648807
v -0.00696341 0.04176311 0.01433796
v -0.01943360 0.04636744 -0.01420344
vn 0.15813685 0.15135628 0.97574792
vn 0.58503064 -0.57534043 0.57159649
vn 0.78088832 0.41355575 -0.46817205
vn -0.12669926 0.13999599 -0.98201243
vn -0.44357005 -0.52788175 0.72428342
vn 0.54203377 -0.59396783 -0.59447591
vn 0.07105441 0.98004929 -0.18561964
vn 0.86781139 0.45618288 0.19697861
vn 0.04587546 -0.00409874 0.99893876
vn 0.08609299 0.36464883 -0.92715653
vn -0.50043378 -0.55399417 -0.66532435
vn -0.17023818 0.87433750 0.45448091
vn 0.79930777 0.26560849 0.53903545
vn 0.44979389 0.80751923 -0.38157327
vn 0.89134071 0.44998162 -0.05502991
vn 0.69517826 0.10315055 -0.71139803
vn -0.21890365 0.66798614 -0.71124940
vn -0.10271448 -0.06037488 -0.99287694
vn -0.42042062 -0.90276538 -0.09089099
vn -0.04341464 0.39818330 0.91627792
vn 0.32605281 0.89084495 0.31636187
vn -0.96579131 0.08520403 0.24492329
vn 0.78410593 0.13499157 0.60576824
vn 0.09465822 0.79812197 -0.59501357
vn 0.41709058 0.51552715 -0.74850999
vn 0.56767880 0.82299852 0.02035222
vn 0.84036009 0.46074627 -0.28549568
vn -0.02161017 0.28638241 -0.95787166
vn -0.32902375 0.91049580 -0.25048109
vn -0.47982614 0.42955673 -0.76501496
vn -0.11716460 -0.99309949 -0.00508564
vn -0.14330868 -0.95639584 0.25449874
vn 0.06808275 0.34680248 0.93546394
vn 0.07338961 0.97343954 0.21686271
vn 0.30991381 0.92577951 -0.21653113
vn 0.32398797 0.58225758 0.74565937
vn -0.40434101 0.52949322 0.74575149
vn 0.39826592 0.32260512 0.85866769
vn 0.24223518 0.13802194 0.96034997
vn 0.26285765 0.70129531 -0.66263922
vn -0.08048804 0.86309244 -0.49859112
vn 0.20790935 0.33567966 -0.91874527
vn 0.73193600 0.28886839 -0.61710999
vn 0.63197878 0.77358459 -0.04658014
vn 0.55689453 0.80502579 0.20445526
vn 0.60429466 0.70411027 -0.37290306
vn -0.16654859 0.42882307 -0.88790334
vn -0.04669384 0.55294647 -0.83190738
vn -0.19814965 0.97502895 0.10027589
vn -0.34227314 0.20453874 -0.91706761
vn -0.47641544 0.73638967 -0.48037338
vn -0.92989574 0.08538541 -0.35777542
vn -0.12348692 -0.99161216 -0.03816167
vn -0.43135376 -0.90106052 0.04498748
vn 0.11834664 0.77752300 0.61761805
vn 0.21069715 0.97492376 0.07162656
vn 0.20046661 0.92724014 -0.31628922
vn 0.44218244 0.89689246 -0.00765574
vn 0.13446425 0.25788008 0.95677439
vn -0.27285300 0.60610579 0.74711914
vn -0.51625606 0.81756644 0.25507803
vn -0.54462528 0.18339658 0.81838194
vn 0.54621523 0.62401405 0.55879817
vn 0.12211049 0.66151518 -0.73992344
f 9//9 5//5 2//2
f 9//9 2//2 1//1
f 9//9 1//1 5//5
f 16//16 8//8 2//2
f 16//16 2//2 6//6
f 16//16 15//15 8//8
f 16//16 6//6 4//4
f 18//18 11//11 4//4
f 18//18 4//4 6//6
f 18//18 6//6 11//11
f 19//19 11//11 6//6
f 19//19 5//5 11//11
f 22//22 11//11 5//5
f 23//23 2//2 8//8
f 23//23 8//8 13//13
f 26//26 8//8 15//15
f 27//27 15//15 16//16
f 28//28 16//16 4//4
f 28//28 10//10 16//16
f 32//32 2//2 5//5
f 32//32 31//31 6//6
f 32//32 6//6 2//2
f 33//33 20//20 5//5
f 33//33 5//5 1//1
f 38//38 23//23 13//13
f 38//38 36//36 1//1
f 39//39 1//1 2//2
f 39//39 2//2 23//23
f 39//39 38//38 1//1
f 39//39 23//23 38//38
f 40//40 25//25 10//10
f 40//40 14//14 25//25
f 40//40 35//35 14//14
f 41//41 7//7 24//24
f 41//41 29//29 7//7
f 41//41 17//17 29//29
f 42//42 16//16 10//10
f 42//42 10//10 25//25
f 43//43 25//25 3//3
f 43//43 42//42 25//25
f 43//43 16//16 42//42
f 43//43 27//27 16//16
f 43//43 3//3 27//27
f 44//44 26//26 15//15
f 45//45 26//26 21//21
f 45//45 8//8 26//26
f 46//46 15//15 27//27
f 46//46 44//44 15//15
f 46//46 14//14 44//44
f 46//46 25//25 14//14
f 46//46 27//27 3//3
f 46//46 3//3 25//25
f 47//47 28//28 4//4
f 48//48 10//10 28//28
f 48//48 41//41 24//24
f 48//48 17//17 41//41
f 48//48 47//47 17//17
f 48//48 28//28 47//47
f 49//49 7//7 29//29
f 49//49 34//34 7//7
f 49//49 12//12 34//34
f 50//50 4//4 11//11
f 50//50 47//47 4//4
f 51//51 29//29 17//17
f 51//51 50//50 30//30
f 51//51 17//17 47//47
f 51//51 47//47 50//50
f 52//52 11//11 22//22
f 52//52 51//51 30//30
f 52//52 50//50 11//11
f 52//52 30//30 50//50
f 53//53 31//31 19//19
f 53//53 19//19 6//6
f 53//53 6//6 31//31
f 54//54 32//32 5//5
f 54//54 5//5 19//19
f 54//54 19//19 31//31
f 54//54 31//31 32//32
f 55//55 12//12 20//20
f 55//55 20//20 33//33
f 55//55 34//34 12//12
f 55//55 21//21 34//34
f 55//55 36//36 21//21
f 55//55 33//33 36//36
f 56//56 34//34 21//21
f 56//56 7//7 34//34
f 56//56 35//35 7//7
f 57//57 24//24 7//7
f 57//57 7//7 35//35
f 57//57 40//40 24//24
f 57//57 35//35 40//40
f 58//58 14//14 35//35
f 58//58 44//44 14//14
f 58//58 26//26 44//44
f 58//58 21//21 26//26
f 58//58 56//56 21//21
f 58//58 35//35 56//56
f 59//59 36//36 33//33
f 59//59 33//33 1//1
f 59//59 1//1 36//36
f 60//60 20//20 12//12
f 61//61 22//22 37//37
f 61//61 12//12 49//49
f 61//61 49//49 29//29
f 61//61 29//29 51//51
f 61//61 52//52 22//22
f 61//61 51//51 52//52
f 61//61 60//60 12//12
f 61//61 37//37 60//60
f 62//62 37//37 22//22
f 62//62 22//22 5//5
f 62//62 5//5 20//20
f 62//62 60//60 37//37
f 62//62 20//20 60//60
f 63//63 38//38 13//13
f 63//63 13//13 8//8
f 63//63 36//36 38//38
f 63//63 8//8 45//45
f 63//63 45//45 21//21
f 63//63 21//21 36//36
f 64//64 40//40 10//10
f 64//64 24//24 40//40
f 64//64 48//48 24//24
f 64//64 10//10 48//48

