# https://github.com/mikedh/trimesh
v 0.00235482 -0.02412012 0.01610188
v 0.00216482 -0.04077117 0.01401050
v 0.00221091 -0.02551793 -0.01720780
v -0.00771628 -0.03006438 -0.01805821
v -0.01123339 -0.03790707 0.01597142
v 0.00209669 -0.04287324 -0.01008752
v -0.00302982 -0.01862673 -0.01044600
v 0.00210352 -0.03703738 0.01587777
v 0.00210366 -0.03533767 -0.01700946
v -0.01111924 -0.04052241 -0.01291041
v 0.00223787 -0.04167236 -0.01209260
v 0.00208774 -0.02408011 -0.01671486
v -0.01131111 -0.02738897 0.01311190
v 0.00205134 -0.03972235 0.01473331
v 0.00198837 -0.03052500 -0.01816834
v -0.00995840 -0.03683959 -0.01688108
v -0.01100047 -0.04149163 0.00809958
v 0.00213793 -0.04272273 0.00371672
v -0.00561905 -0.04147700 -0.01200245
v -0.00231783 -0.01852298 0.00818872
v -0.01109148 -0.02883026 -0.01708986
v -0.01119134 -0.03036795 0.01592233
v -0.01114930 -0.03949687 0.01494381
v 0.00201823 -0.02977184 -0.01816149
v -0.00027866 -0.03969773 -0.01472964
v 0.00091289 -0.03158552 -0.01811050
v -0.01106060 -0.04152946 -0.00281634
v -0.00228631 -0.04263835 -0.00826176
v -0.00561024 -0.04147560 0.01239334
v -0.00237849 -0.01846289 0.00794492
v -0.00293158 -0.01995415 -0.01252376
v -0.01115333 -0.02508327 -0.01308379
v -0.01107610 -0.03580208 -0.01709417
v -0.00768108 -0.03049059 -0.01813591
v -0.00434641 -0.03936487 -0.01492692
v -0.00434246 -0.04034050 -0.01385037
v -0.00252141 -0.03649260 -0.01683018
v 0.00191507 -0.03742070 -0.01583792
v -0.01106576 -0.04086585 0.01302339
v -0.00116905 -0.04258901 0.00155896
v -0.00114210 -0.04253727 -0.01019499
v -0.00901861 -0.04155455 -0.00927272
v 0.00205279 -0.04170759 0.01227802
v -0.00338661 -0.01865239 -0.00298983
v -0.01107831 -0.02534027 0.00265016
v -0.01079843 -0.03759509 -0.01610831
v 0.00090033 -0.04039326 -0.01395782
v -0.00772962 -0.04142705 0.01134912
v -0.00286256 -0.01850051 0.00054953
v -0.01008662 -0.02406127 -0.01039537
v -0.01108624 -0.02627187 0.01000566
vn 0.56568619 0.46104752 0.68369168
vn 0.65153879 -0.56887749 0.50187209
vn 0.68224153 0.22486806 -0.69568732
vn -0.11894150 0.25491592 -0.95962013
vn -0.64959616 -0.22655672 0.72573885
vn 0.58371311 -0.78856154 -0.19351925
vn 0.04058414 0.97693681 -0.20963634
vn 0.64463832 -0.15735123 0.74811899
vn 0.68558083 -0.26579524 -0.67774022
vn -0.68884145 -0.64223998 -0.33619229
vn 0.69238314 -0.59367210 -0.41007198
vn 0.59990052 0.52969088 -0.59962233
vn -0.80278648 0.46416815 0.37427504
vn 0.49444102 -0.40983013 0.76652942
vn 0.60000011 -0.06502489 -0.79735289
vn -0.09554746 -0.46437351 -0.88047029
vn -0.67156254 -0.73935174 0.04860825
vn 0.66254769 -0.74757780 0.04645408
vn -0.08285784 -0.90877853 -0.40896964
vn 0.14251654 0.93345087 0.32917853
vn -0.71827256 0.26264145 -0.64428565
vn -0.66670955 0.20480517 0.71662627
vn -0.65830228 -0.52917059 0.53536586
vn 0.62807104 0.07380782 -0.77464777
vn 0.05845540 -0.63815388 -0.76768652
vn 0.05933650 -0.17106086 -0.98347210
vn -0.73005897 -0.68330160 -0.01062187
vn -0.10471260 -0.99310893 -0.05263004
vn -0.04819227 -0.94791038 0.31487047
vn 0.04224067 0.99260652 0.11378934
vn -0.10787338 0.77906761 -0.61758966
vn -0.81603298 0.50253323 -0.28557054
vn -0.69776226 -0.18504170 -0.69201691
vn -0.11521313 0.01206212 -0.99326756
vn -0.03679118 -0.69237620 -0.72059809
vn -0.04304949 -0.79097596 -0.61033087
vn 0.03859546 -0.40541214 -0.91331889
vn 0.51261543 -0.47074079 -0.71807279
vn -0.65826497 -0.69986233 0.27727235
vn -0.07354262 -0.99694735 0.02621960
vn -0.10290296 -0.96937147 -0.22300210
vn -0.20556054 -0.97205312 -0.11339136
vn 0.58855524 -0.77486851 0.23061119
vn -0.45306318 0.89145625 0.00628652
vn -0.86763247 0.49594707 0.03536104
vn -0.49346916 -0.57798796 -0.64993701
vn 0.18076493 -0.70634549 -0.68439761
vn -0.08270818 -0.99007397 0.11363490
vn -0.15085654 0.98854566 0.00444762
vn -0.65745279 0.75339390 -0.01238796
vn -0.81913778 0.56204378 0.11454292
f 8//8 2//2 1//1
f 8//8 1//1 5//5
f 11//11 1//1 2//2
f 11//11 3//3 1//1
f 11//11 9//9 3//3
f 12//12 1//1 3//3
f 12//12 3//3 4//4
f 13//13 10//10 5//5
f 14//14 8//8 5//5
f 14//14 2//2 8//8
f 18//18 11//11 2//2
f 18//18 6//6 11//11
f 19//19 11//11 6//6
f 20//20 1//1 12//12
f 20//20 13//13 1//1
f 21//21 12//12 4//4
f 22//22 13//13 5//5
f 22//22 5//5 1//1
f 22//22 1//1 13//13
f 23//23 14//14 5//5
f 23//23 2//2 14//14
f 24//24 4//4 3//3
f 24//24 3//3 9//9
f 24//24 9//9 15//15
f 26//26 15//15 9//9
f 27//27 23//23 5//5
f 27//27 5//5 10//10
f 28//28 17//17 27//27
f 30//30 20//20 12//12
f 30//30 12//12 7//7
f 30//30 13//13 20//20
f 31//31 7//7 12//12
f 31//31 12//12 21//21
f 32//32 31//31 21//21
f 32//32 7//7 31//31
f 32//32 10//10 13//13
f 33//33 32//32 21//21
f 33//33 10//10 32//32
f 33//33 26//26 16//16
f 34//34 24//24 15//15
f 34//34 4//4 24//24
f 34//34 15//15 26//26
f 34//34 26//26 33//33
f 34//34 33//33 21//21
f 34//34 21//21 4//4
f 35//35 16//16 25//25
f 36//36 11//11 19//19
f 36//36 35//35 25//25
f 36//36 19//19 10//10
f 36//36 10//10 35//35
f 37//37 25//25 16//16
f 37//37 26//26 9//9
f 37//37 16//16 26//26
f 38//38 9//9 11//11
f 38//38 37//37 9//9
f 38//38 25//25 37//37
f 39//39 27//27 17//17
f 39//39 23//23 27//27
f 39//39 29//29 2//2
f 39//39 2//2 23//23
f 40//40 18//18 17//17
f 40//40 17//17 28//28
f 40//40 28//28 6//6
f 40//40 6//6 18//18
f 41//41 19//19 6//6
f 41//41 6//6 28//28
f 41//41 10//10 19//19
f 42//42 28//28 27//27
f 42//42 27//27 10//10
f 42//42 41//41 28//28
f 42//42 10//10 41//41
f 43//43 29//29 18//18
f 43//43 18//18 2//2
f 43//43 2//2 29//29
f 45//45 32//32 13//13
f 45//45 30//30 44//44
f 46//46 33//33 16//16
f 46//46 10//10 33//33
f 46//46 35//35 10//10
f 46//46 16//16 35//35
f 47//47 36//36 25//25
f 47//47 11//11 36//36
f 47//47 38//38 11//11
f 47//47 25//25 38//38
f 48//48 39//39 17//17
f 48//48 29//29 39//39
f 48//48 17//17 18//18
f 48//48 18//18 29//29
f 49//49 44//44 30//30
f 49//49 30//30 7//7
f 49//49 7//7 44//44
f 50//50 44//44 7//7
f 50//50 7//7 32//32
f 50//50 45//45 44//44
f 50//50 32//32 45//45
f 51//51 45//45 13//13
f 51//51 13//13 30//30
f 51//51 30//30 45//45

