# https://github.com/mikedh/trimesh
v -0.05096734 0.03731322 0.01796782
v -0.04579303 0.03011243 0.01746580
v -0.04582829 0.03045238 -0.01168286
v -0.05104253 0.03744485 -0.01343684
v -0.06758982 0.01099163 -0.01035273
v -0.06567331 0.01112251 0.01682484
v -0.06202735 0.03344391 0.00120823
v -0.05935351 0.01113043 -0.01398349
v -0.05916096 0.01133307 0.01898726
v -0.05613266 0.04025304 -0.00644073
v -0.06093574 0.03336924 0.01396266
v -0.06645796 0.01879388 0.01224554
v -0.06497443 0.01100246 -0.01336203
v -0.04826677 0.03038875 -0.01303624
v -0.05241823 0.00793965 -0.00525243
v -0.05127240 0.03215202 0.01888468
v -0.06421653 0.02815509 -0.00880770
v -0.06210641 0.02402519 0.01777060
v -0.05857557 0.03675561 0.01314482
v -0.06764970 0.01108191 0.00897609
v -0.06302717 0.03041488 0.01110925
v -0.06297452 0.01098337 -0.01406862
v -0.05557092 0.01154236 -0.01193434
v -0.04648224 0.02574844 0.00183945
v -0.05474168 0.01139192 0.01427488
v -0.05251698 0.00796790 -0.00198982
v -0.04693143 0.03043802 0.01791461
v -0.06205746 0.03325471 -0.00806280
v -0.06641347 0.02077922 -0.00940436
v -0.06110810 0.02931477 -0.01180223
v -0.05900182 0.03349651 0.01657304
v -0.05747712 0.02927874 0.01864850
v -0.06160767 0.01346923 0.01889679
v -0.06521411 0.02064913 0.01518770
v -0.05888051 0.03762707 -0.00543500
v -0.06192666 0.03256599 0.01212149
v -0.05602896 0.03687522 0.01648490
v -0.06661685 0.01114068 0.01528645
v -0.06414920 0.02955517 -0.00647294
v -0.06019925 0.01557376 -0.01401141
v -0.05457351 0.01165046 -0.01092473
v -0.04699507 0.02518651 -0.00547504
v -0.05562423 0.01163131 0.01657268
v -0.06194293 0.01126719 0.01881956
v -0.05141170 0.03005721 0.01887185
v -0.05786763 0.03666296 -0.01069415
v -0.06740356 0.01536188 -0.00544698
v -0.06560297 0.02072337 -0.01086463
v -0.06155075 0.02414074 -0.01271720
v -0.06222795 0.03125904 -0.00968811
v -0.06304693 0.02820191 0.01504724
v -0.05790992 0.03670478 0.01496029
v -0.05435527 0.03173284 0.01874425
v -0.05923196 0.03060602 0.01753391
v -0.06477974 0.01325445 0.01769019
v -0.05954457 0.02430359 0.01878144
v -0.05778251 0.03871549 -0.00543192
v -0.05987103 0.03551012 0.01108412
v -0.05876114 0.03772294 -0.00828773
v -0.06300641 0.03138127 0.00668598
v -0.05297373 0.03719208 0.01762016
v -0.06632372 0.01538228 0.01494350
v -0.06638826 0.02084028 -0.00547791
v -0.06414977 0.02936180 -0.00720446
vn 0.32962724 0.72448472 0.60536582
vn 0.85600050 0.07743040 0.51114349
vn 0.88372896 0.10712150 -0.45557448
vn 0.31065808 0.64936268 -0.69413231
vn -0.78950278 -0.53063875 -0.30839567
vn -0.57720875 -0.60481336 0.54866279
vn -0.83443471 0.55069566 0.02128380
vn 0.17632464 -0.53781589 -0.82441718
vn 0.15764187 -0.62639851 0.76339632
vn -0.14379678 0.98045257 -0.13429533
vn -0.78975917 0.50203690 0.35247611
vn -0.96987891 0.19808154 0.14176951
vn -0.48281888 -0.52469981 -0.70112484
vn 0.35467586 -0.04115069 -0.93408332
vn 0.51784920 -0.83235631 -0.19752261
vn 0.10000925 0.09748888 0.99019900
vn -0.85756010 0.32799579 -0.39624415
vn -0.57452443 0.18717039 0.79679917
vn -0.58182217 0.79543488 0.16960638
vn -0.81288079 -0.57843216 0.06812533
vn -0.92938682 0.34875348 0.12087662
vn -0.16700735 -0.54299230 -0.82296288
vn 0.52070343 -0.48445946 -0.70297011
vn 0.96885087 -0.24758941 0.00524095
vn 0.66638619 -0.69265344 0.27597222
vn 0.49706664 -0.86457278 0.07374729
vn 0.33362355 0.04562997 0.94160142
vn -0.81729306 0.51621680 -0.25603177
vn -0.94182940 0.21780358 -0.25596676
vn -0.51796177 0.27111146 -0.81130400
vn -0.56911463 0.40402504 0.71615104
vn -0.24211358 0.17165459 0.95494278
vn -0.20137864 0.02830939 0.97910430
vn -0.86571895 0.22064141 0.44927505
vn -0.75312230 0.65781648 0.00918108
vn -0.85755471 0.48879850 0.16023713
vn -0.34664186 0.74774549 0.56631802
vn -0.76594423 -0.57187794 0.29374317
vn -0.92770958 0.37201384 -0.03099424
vn -0.01079188 0.02865234 -0.99953118
vn 0.69387147 -0.41934394 -0.58539990
vn 0.95584403 -0.28837306 -0.05659658
vn 0.54514299 -0.68194837 0.48761209
vn -0.18204136 -0.62291503 0.76081391
vn 0.13401338 -0.03542938 0.99034599
vn -0.48962184 0.55500519 -0.67248768
vn -0.99284410 0.11847207 -0.01499867
vn -0.72354459 0.20782338 -0.65824970
vn -0.38491722 0.16286001 -0.90846869
vn -0.73211656 0.39030654 -0.55827068
vn -0.83569644 0.32346864 0.44382372
vn -0.50907306 0.77571489 0.37297592
vn -0.13064900 0.15465817 0.97929142
vn -0.47647624 0.28473987 0.83180142
vn -0.61053246 0.04213392 0.79086967
vn -0.21850773 0.08744495 0.97190933
vn -0.68680349 0.72651150 0.02195464
vn -0.77261715 0.63043145 0.07495949
vn -0.66205086 0.68741368 -0.29858179
vn -0.90981562 0.41200160 0.04990209
vn -0.21037896 0.73157236 0.64849254
vn -0.92056728 0.12237654 0.37091761
vn -0.97589476 0.21787788 0.01259579
vn -0.91802725 0.36325908 -0.15896165
f 1//1 2//2 3//3
f 1//1 3//3 4//4
f 10//10 1//1 4//4
f 14//14 8//8 4//4
f 14//14 4//4 3//3
f 14//14 3//3 8//8
f 15//15 5//5 13//13
f 22//22 15//15 13//13
f 22//22 8//8 15//15
f 23//23 15//15 8//8
f 23//23 8//8 3//3
f 24//24 3//3 2//2
f 26//26 20//20 5//5
f 26//26 5//5 15//15
f 26//26 2//2 25//25
f 26//26 24//24 2//2
f 26//26 15//15 24//24
f 27//27 9//9 2//2
f 27//27 2//2 1//1
f 27//27 1//1 16//16
f 33//33 9//9 16//16
f 35//35 28//28 7//7
f 36//36 11//11 19//19
f 38//38 26//26 6//6
f 38//38 20//20 26//26
f 39//39 7//7 28//28
f 40//40 22//22 4//4
f 40//40 4//4 8//8
f 40//40 8//8 22//22
f 41//41 23//23 3//3
f 41//41 3//3 15//15
f 41//41 15//15 23//23
f 42//42 24//24 15//15
f 42//42 15//15 3//3
f 42//42 3//3 24//24
f 43//43 25//25 2//2
f 43//43 2//2 9//9
f 43//43 26//26 25//25
f 43//43 9//9 26//26
f 44//44 26//26 9//9
f 44//44 6//6 26//26
f 44//44 9//9 33//33
f 45//45 27//27 16//16
f 45//45 16//16 9//9
f 45//45 9//9 27//27
f 46//46 10//10 4//4
f 46//46 4//4 30//30
f 47//47 20//20 12//12
f 47//47 29//29 5//5
f 47//47 5//5 20//20
f 48//48 13//13 5//5
f 48//48 5//5 29//29
f 48//48 29//29 17//17
f 49//49 22//22 13//13
f 49//49 48//48 30//30
f 49//49 13//13 48//48
f 49//49 30//30 4//4
f 49//49 4//4 22//22
f 50//50 17//17 28//28
f 50//50 46//46 30//30
f 50//50 28//28 46//46
f 50//50 48//48 17//17
f 50//50 30//30 48//48
f 51//51 31//31 11//11
f 51//51 18//18 31//31
f 51//51 34//34 18//18
f 51//51 11//11 36//36
f 51//51 36//36 21//21
f 51//51 21//21 12//12
f 51//51 12//12 34//34
f 52//52 19//19 11//11
f 52//52 11//11 31//31
f 52//52 31//31 37//37
f 52//52 37//37 10//10
f 52//52 10//10 19//19
f 53//53 16//16 1//1
f 54//54 31//31 18//18
f 54//54 18//18 32//32
f 55//55 44//44 33//33
f 55//55 6//6 44//44
f 55//55 18//18 34//34
f 56//56 32//32 18//18
f 56//56 55//55 33//33
f 56//56 18//18 55//55
f 56//56 53//53 32//32
f 56//56 33//33 16//16
f 56//56 16//16 53//53
f 57//57 35//35 19//19
f 57//57 19//19 10//10
f 58//58 35//35 7//7
f 58//58 19//19 35//35
f 58//58 36//36 19//19
f 58//58 7//7 36//36
f 59//59 28//28 35//35
f 59//59 46//46 28//28
f 59//59 10//10 46//46
f 59//59 57//57 10//10
f 59//59 35//35 57//57
f 60//60 36//36 7//7
f 60//60 21//21 36//36
f 60//60 7//7 39//39
f 60//60 39//39 12//12
f 60//60 12//12 21//21
f 61//61 1//1 10//10
f 61//61 10//10 37//37
f 61//61 53//53 1//1
f 61//61 32//32 53//53
f 61//61 54//54 32//32
f 61//61 37//37 31//31
f 61//61 31//31 54//54
f 62//62 12//12 20//20
f 62//62 20//20 38//38
f 62//62 34//34 12//12
f 62//62 38//38 6//6
f 62//62 55//55 34//34
f 62//62 6//6 55//55
f 63//63 39//39 29//29
f 63//63 12//12 39//39
f 63//63 47//47 12//12
f 63//63 29//29 47//47
f 64//64 17//17 29//29
f 64//64 29//29 39//39
f 64//64 39//39 28//28
f 64//64 28//28 17//17

