# https://github.com/mikedh/trimesh
v 0.01424313 0.01410826 0.01610723
v 0.01708650 -0.01577375 0.01136245
v 0.01409184 0.01581251 -0.01669569
v 0.00494005 0.02376064 -0.01600428
v -0.00208730 -0.01350548 0.00935378
v 0.00638360 0.02902688 0.01030630
v 0.01807408 0.00309368 0.00388378
v 0.00563561 -0.01545305 0.01654975
v 0.00846440 -0.01562512 -0.01715730
v 0.01412568 0.01976584 0.01205620
v 0.00488006 0.02939702 -0.01114005
v 0.01702019 0.00286020 0.01140213
v 0.01266502 -0.01573267 -0.01578222
v 0.01264313 -0.01570576 0.01493961
v 0.00158026 0.01581800 0.01537019
v 0.00544527 -0.01545780 -0.01727861
v 0.00480772 0.02840177 0.01426307
v 0.01416661 0.01970476 -0.01284070
v -0.00399091 0.01603365 -0.00490741
v 0.01600474 0.00275137 0.01317553
v 0.01743226 -0.01537087 0.00942804
v 0.01417744 0.01695077 0.01485706
v 0.01792327 0.00286628 -0.00806699
v 0.01373933 0.01026425 -0.01670192
v 0.00960075 -0.01533266 0.01603527
v -0.00055646 -0.01366850 0.01227262
v 0.00500217 0.02183600 0.01614694
v 0.00566345 0.01963241 -0.01675100
v 0.00475002 0.03034369 0.01239911
v 0.01402918 0.02066805 -0.00713787
v -0.00122755 0.01613519 0.01230996
v 0.00012360 -0.01344319 -0.01525037
v 0.01674248 0.00285452 -0.01088742
v -0.00175899 -0.01356927 0.01047160
v 0.00248984 -0.01341671 0.01501368
v 0.00355951 0.01566302 0.01617831
v 0.00726309 0.01926246 -0.01674936
v 0.00526977 0.02989075 0.01212635
v 0.00487720 0.03032932 -0.00694526
v 0.00550468 0.02818325 0.01372470
v -0.00374090 0.01629791 0.00026677
v 0.00202098 0.01589495 -0.01392976
v 0.00498730 0.01566157 -0.01675001
v 0.00637798 0.02896100 -0.00259396
v 0.00546860 0.02978735 -0.00686067
vn 0.60330281 0.12696256 0.78734124
vn 0.66455055 -0.65446993 0.36061292
vn 0.61813410 0.20893464 -0.75779717
vn -0.26925177 0.47913847 -0.83542193
vn -0.80516497 -0.58625367 0.08953216
vn 0.70783176 0.70416907 0.05585805
vn 0.99457517 0.09195787 0.04862089
vn -0.19698322 -0.66400325 0.72131636
vn 0.09063806 -0.68905980 -0.71901414
vn 0.85434661 0.45946327 0.24286905
vn -0.14222001 0.87683765 -0.45927030
vn 0.95124265 0.05443507 0.30360212
vn 0.53702818 -0.65838170 -0.52738437
vn 0.33071325 -0.69952113 0.63348160
vn -0.58263337 0.08361895 0.80842206
vn -0.22017457 -0.67079401 -0.70820799
vn -0.16787947 0.57680249 0.79944692
vn 0.81690331 0.48706981 -0.30892066
vn -0.95493500 0.20992618 -0.20983359
vn 0.86231568 0.00201458 0.50636708
vn 0.88415599 -0.46713482 -0.00729674
vn 0.77348864 0.33391665 0.53871606
vn 0.98317582 0.01324949 -0.18218055
vn 0.53940682 -0.03415475 -0.84135232
vn 0.18518213 -0.45760004 0.86966073
vn -0.68471099 -0.49633715 0.53368558
vn -0.16865388 0.20897093 0.96326892
vn -0.19901322 0.10013192 -0.97486786
vn -0.14755606 0.91060021 0.38604983
vn 0.87751445 0.47858343 -0.03043512
vn -0.88240516 0.16474035 0.44070597
vn -0.71805006 -0.47093697 -0.51246705
vn 0.89978885 -0.04549879 -0.43394687
vn -0.75747719 -0.57906409 0.30151797
vn -0.57937054 -0.17827977 0.79532767
vn -0.21852804 0.02618555 0.97547927
vn 0.05825210 0.12193352 -0.99082739
vn 0.70810159 0.67926958 0.19283406
vn -0.12888699 0.98516484 -0.11330656
vn 0.62505280 0.54672078 0.55714037
vn -0.96715524 0.23695447 0.09199634
vn -0.77749697 0.10384635 -0.62025349
vn -0.38225151 0.04315640 -0.92305000
vn 0.70985877 0.70429493 -0.00831731
vn 0.69737684 0.71240720 -0.07836784
f 11//11 3//3 4//4
f 12//12 7//7 10//10
f 14//14 2//2 1//1
f 14//14 8//8 9//9
f 14//14 13//13 2//2
f 14//14 9//9 13//13
f 16//16 9//9 8//8
f 16//16 8//8 5//5
f 16//16 3//3 9//9
f 18//18 3//3 11//11
f 19//19 11//11 4//4
f 20//20 12//12 1//1
f 20//20 1//1 2//2
f 20//20 2//2 12//12
f 21//21 12//12 2//2
f 21//21 7//7 12//12
f 21//21 2//2 13//13
f 22//22 12//12 10//10
f 22//22 1//1 12//12
f 22//22 17//17 1//1
f 23//23 21//21 13//13
f 23//23 7//7 21//21
f 23//23 18//18 7//7
f 23//23 3//3 18//18
f 24//24 13//13 9//9
f 24//24 9//9 3//3
f 24//24 3//3 13//13
f 25//25 14//14 1//1
f 25//25 1//1 8//8
f 25//25 8//8 14//14
f 27//27 8//8 1//1
f 27//27 17//17 15//15
f 27//27 1//1 17//17
f 30//30 10//10 7//7
f 30//30 7//7 18//18
f 30//30 6//6 10//10
f 31//31 15//15 17//17
f 31//31 17//17 29//29
f 31//31 26//26 15//15
f 32//32 16//16 5//5
f 32//32 5//5 19//19
f 33//33 23//23 13//13
f 33//33 13//13 3//3
f 33//33 3//3 23//23
f 34//34 5//5 8//8
f 34//34 8//8 26//26
f 34//34 31//31 5//5
f 34//34 26//26 31//31
f 35//35 26//26 8//8
f 35//35 8//8 15//15
f 35//35 15//15 26//26
f 36//36 27//27 15//15
f 36//36 15//15 8//8
f 36//36 8//8 27//27
f 37//37 28//28 4//4
f 37//37 4//4 3//3
f 37//37 3//3 16//16
f 37//37 16//16 28//28
f 38//38 29//29 10//10
f 38//38 10//10 6//6
f 38//38 6//6 29//29
f 39//39 29//29 6//6
f 39//39 11//11 19//19
f 39//39 19//19 29//29
f 40//40 22//22 10//10
f 40//40 10//10 29//29
f 40//40 29//29 17//17
f 40//40 17//17 22//22
f 41//41 19//19 5//5
f 41//41 5//5 31//31
f 41//41 31//31 29//29
f 41//41 29//29 19//19
f 42//42 32//32 19//19
f 42//42 19//19 4//4
f 42//42 4//4 32//32
f 43//43 28//28 16//16
f 43//43 16//16 32//32
f 43//43 32//32 4//4
f 43//43 4//4 28//28
f 44//44 6//6 30//30
f 45//45 30//30 18//18
f 45//45 18//18 11//11
f 45//45 11//11 39//39
f 45//45 44//44 30//30
f 45//45 39//39 6//6
f 45//45 6//6 44//44

