# https://github.com/mikedh/trimesh
v -0.03236036 -0.02062618 0.00313737
v -0.01309169 -0.02003952 -0.00134934
v -0.03929363 -0.01937399 -0.00031245
v -0.03918496 -0.01977689 -0.01419628
v -0.02692124 -0.02101714 -0.01419095
v -0.01346168 -0.01986763 -0.01220740
v -0.03346109 -0.02057649 0.00314622
v -0.01365981 -0.02046836 -0.00124686
v -0.02578276 -0.01950487 -0.00689077
v -0.01374215 -0.01998976 -0.01236101
v -0.03828907 -0.01968039 -0.00035892
v -0.03339629 -0.02078444 -0.01418636
v -0.03955136 -0.01929449 -0.01379160
v -0.01803073 -0.02082913 -0.01320391
v -0.03898723 -0.01949219 -0.00016351
v -0.02594551 -0.01951900 -0.00880417
vn 0.06966193 -0.16319388 0.98413158
vn 0.85937866 0.25711651 0.44199481
vn -0.89672413 0.19371645 0.39794443
vn -0.45275395 -0.34467916 -0.82231997
vn 0.06365880 -0.45790920 -0.88671682
vn 0.87904519 0.20290183 -0.43140514
vn -0.22911780 -0.13071326 0.96458233
vn 0.35753801 -0.73703871 0.57353335
vn 0.02442788 0.99962863 0.01207781
vn 0.40674163 -0.30488616 -0.86116530
vn -0.22781791 -0.97277212 0.04258411
vn -0.07571410 -0.72779890 -0.68159822
vn -0.80728699 0.44793128 -0.38424638
vn 0.15909416 -0.54482398 -0.82332004
vn -0.45001621 -0.79212410 0.41234066
vn 0.02264905 0.99966234 -0.01273653
f 7//7 1//1 2//2
f 7//7 2//2 3//3
f 8//8 2//2 1//1
f 8//8 1//1 5//5
f 8//8 6//6 2//2
f 9//9 3//3 2//2
f 9//9 2//2 6//6
f 10//10 5//5 4//4
f 10//10 6//6 8//8
f 11//11 4//4 7//7
f 12//12 5//5 1//1
f 12//12 1//1 7//7
f 12//12 7//7 4//4
f 12//12 4//4 5//5
f 13//13 4//4 3//3
f 13//13 3//3 9//9
f 13//13 10//10 4//4
f 13//13 6//6 10//10
f 14//14 10//10 8//8
f 14//14 8//8 5//5
f 14//14 5//5 10//10
f 15//15 11//11 7//7
f 15//15 7//7 3//3
f 15//15 3//3 4//4
f 15//15 4//4 11//11
f 16//16 13//13 9//9
f 16//16 9//9 6//6
f 16//16 6//6 13//13

