# https://github.com/mikedh/trimesh
v 0.05977689 -0.03857249 0.01436704
v 0.06639906 -0.04014793 0.01000733
v 0.02209381 -0.02208474 -0.01378712
v 0.01476893 -0.03098934 -0.01837570
v 0.01495428 -0.04384132 0.00453304
v 0.06205167 -0.03755326 -0.01736657
v 0.06506717 -0.03179337 0.00904055
v 0.05846969 -0.04706918 0.01080997
v 0.01497606 -0.02762458 0.01617294
v 0.05522767 -0.03395147 -0.01845967
v 0.02946092 -0.04480239 -0.01306736
v 0.06422999 -0.03595426 0.01227045
v 0.06522537 -0.03365088 -0.01102470
v 0.06042088 -0.04454459 0.01331183
v 0.06227220 -0.04631297 -0.01332717
v 0.01478573 -0.02762933 -0.01765543
v 0.01480204 -0.04093986 0.01451911
v 0.02386588 -0.02172110 0.00927760
v 0.04685403 -0.04305033 -0.01712971
v 0.01484739 -0.04409074 -0.01030173
v 0.06662555 -0.03343220 0.00905222
v 0.05857913 -0.03473483 0.01334505
v 0.06118487 -0.03268573 -0.01499562
v 0.06355390 -0.04595101 0.00870600
v 0.06433918 -0.04044100 0.01227327
v 0.06407422 -0.04476386 -0.01156189
v 0.05470168 -0.04706662 -0.01324573
v 0.01480349 -0.04292510 0.01206381
v 0.05467262 -0.04597601 0.01278065
v 0.02575164 -0.03934643 0.01552698
v 0.01473907 -0.03174250 -0.01838254
v 0.06214929 -0.03069730 -0.00667845
v 0.05655092 -0.04026646 -0.01822775
v 0.05123640 -0.04718614 0.00139074
v 0.06534978 -0.03594061 0.01119082
v 0.06449844 -0.03377200 0.01101303
v 0.06619199 -0.03813448 0.00279861
v 0.05756720 -0.03656209 0.01436697
v 0.01894120 -0.02750418 0.01565845
v 0.06179980 -0.03384201 0.01209175
v 0.06239137 -0.03390016 -0.01495975
v 0.06017194 -0.03487501 -0.01707936
v 0.05505364 -0.03186847 -0.01627939
v 0.06128382 -0.04615101 0.01129280
v 0.06220030 -0.04716014 0.00778131
v 0.06285662 -0.03668781 0.01335638
v 0.05968292 -0.04045559 0.01449673
v 0.06434589 -0.04414616 0.01047697
v 0.06509954 -0.04362016 0.00490207
v 0.06292433 -0.04443451 -0.01550931
v 0.05135097 -0.04516449 -0.01607901
v 0.03915661 -0.04592472 -0.01262161
v 0.03909999 -0.04600641 0.00893977
v 0.05932296 -0.04618106 0.01262418
v 0.02381750 -0.04373834 0.01210390
v 0.01485422 -0.03825489 0.01566357
v 0.05542322 -0.04360775 0.01438910
v 0.01475066 -0.04159165 -0.01415740
v 0.06173959 -0.03086836 0.00599231
v 0.02346610 -0.02228977 -0.01134924
v 0.05949320 -0.03104005 -0.01363243
v 0.06240069 -0.03092899 -0.00949635
v 0.05972626 -0.03720148 -0.01823048
v 0.05124067 -0.04019749 -0.01823308
vn 0.17577521 0.10318700 0.97900742
vn 0.92642309 -0.18452152 0.32816470
vn -0.15447300 0.90252973 -0.40196788
vn -0.61777188 0.10239810 -0.77966181
vn -0.63864871 -0.76814807 0.04556717
vn 0.61803392 0.07875658 -0.78219657
vn 0.48433871 0.80526015 0.34201185
vn 0.04797489 -0.96647212 0.25224999
vn -0.61793040 0.42822194 0.65938456
vn 0.13856209 0.37783043 -0.91544782
vn -0.10633044 -0.86318131 -0.49357053
vn 0.57979351 0.22234093 0.78383927
vn 0.87896373 0.38443067 -0.28219818
vn 0.36001072 -0.40262679 0.84159607
vn 0.39795854 -0.86116297 -0.31627097
vn -0.66162450 0.46670582 -0.58688900
vn -0.67662046 -0.43124475 0.59683559
vn -0.08393884 0.94543503 0.31481246
vn -0.06813228 -0.45030296 -0.89027256
vn -0.67636369 -0.71284964 -0.18541184
vn 0.88141908 0.37089935 0.29246209
vn 0.16291167 0.48937747 0.85672019
vn 0.44789651 0.67307398 -0.58852370
vn 0.70573481 -0.67941016 0.20084875
vn 0.61567423 -0.16399447 0.77074707
vn 0.88985484 -0.43114442 -0.14924088
vn 0.02181612 -0.94818035 -0.31698279
vn -0.68301576 -0.66950631 0.29197734
vn -0.04473124 -0.77403543 0.63156019
vn 0.00038183 -0.22317533 0.97477824
vn -0.68284005 -0.11626957 -0.72125644
vn 0.34614312 0.93782168 -0.02598907
vn 0.07953302 -0.24978890 -0.96502850
vn -0.04491714 -0.99893342 0.01069936
vn 0.74165431 0.11516120 0.66082281
vn 0.44276565 0.49555120 0.74725336
vn 0.99444238 -0.07846864 -0.07019273
vn 0.11660518 0.24955656 0.96131408
vn 0.10751537 0.54290225 0.83288510
vn 0.22488304 0.58786394 0.77707375
vn 0.64269230 0.46096384 -0.61193051
vn 0.38908491 0.45982377 -0.79823244
vn 0.19709950 0.75082519 -0.63040727
vn 0.42416647 -0.75773490 0.49590385
vn 0.36693483 -0.92473522 0.10111186
vn 0.39721788 0.20373886 0.89482313
vn 0.22815600 -0.08643200 0.96978057
vn 0.74948572 -0.49371714 0.44103803
vn 0.89916735 -0.43757391 -0.00521100
vn 0.59601396 -0.45056808 -0.66464710
vn -0.01555474 -0.67892720 -0.73404081
vn -0.08217806 -0.96814443 -0.23652300
vn -0.08423992 -0.98444377 0.15418854
vn 0.18955057 -0.73367025 0.65253241
vn -0.08042635 -0.88502254 0.45854848
vn -0.66587660 -0.15014447 0.73079750
vn 0.03320482 -0.33180730 0.94276262
vn -0.69363947 -0.46016954 -0.55417351
vn 0.24164240 0.97000890 0.02629973
vn 0.21003600 0.97709739 -0.03414055
vn 0.30098784 0.86228956 -0.40726285
vn 0.46178194 0.87176089 -0.16367769
vn 0.25881468 0.06609560 -0.96366298
vn -0.01062553 -0.19821160 -0.98010166
f 16//16 9//9 3//3
f 16//16 10//10 4//4
f 16//16 3//3 10//10
f 17//17 9//9 16//16
f 18//18 3//3 9//9
f 21//21 13//13 7//7
f 28//28 20//20 5//5
f 31//31 17//17 16//16
f 31//31 16//16 4//4
f 31//31 4//4 10//10
f 35//35 21//21 12//12
f 35//35 2//2 21//21
f 35//35 25//25 2//2
f 35//35 12//12 25//25
f 36//36 21//21 7//7
f 36//36 12//12 21//21
f 37//37 21//21 2//2
f 37//37 13//13 21//21
f 37//37 26//26 13//13
f 37//37 2//2 26//26
f 39//39 18//18 9//9
f 39//39 38//38 22//22
f 39//39 9//9 38//38
f 40//40 7//7 18//18
f 40//40 39//39 22//22
f 40//40 18//18 39//39
f 40//40 36//36 7//7
f 41//41 23//23 13//13
f 41//41 13//13 6//6
f 42//42 10//10 23//23
f 42//42 41//41 6//6
f 42//42 23//23 41//41
f 43//43 23//23 10//10
f 43//43 10//10 3//3
f 45//45 26//26 24//24
f 45//45 15//15 26//26
f 45//45 27//27 15//15
f 45//45 34//34 27//27
f 45//45 8//8 34//34
f 45//45 44//44 8//8
f 45//45 24//24 44//44
f 46//46 25//25 12//12
f 46//46 38//38 1//1
f 46//46 12//12 36//36
f 46//46 36//36 40//40
f 46//46 40//40 22//22
f 46//46 22//22 38//38
f 47//47 14//14 25//25
f 47//47 9//9 30//30
f 47//47 38//38 9//9
f 47//47 1//1 38//38
f 47//47 46//46 1//1
f 47//47 25//25 46//46
f 48//48 2//2 25//25
f 48//48 44//44 24//24
f 48//48 25//25 14//14
f 48//48 14//14 44//44
f 49//49 26//26 2//2
f 49//49 24//24 26//26
f 49//49 48//48 24//24
f 49//49 2//2 48//48
f 50//50 26//26 15//15
f 50//50 6//6 13//13
f 50//50 13//13 26//26
f 51//51 27//27 11//11
f 51//51 19//19 33//33
f 51//51 33//33 50//50
f 51//51 50//50 15//15
f 51//51 15//15 27//27
f 52//52 20//20 11//11
f 52//52 11//11 27//27
f 52//52 34//34 20//20
f 52//52 27//27 34//34
f 53//53 28//28 5//5
f 53//53 34//34 8//8
f 53//53 5//5 20//20
f 53//53 20//20 34//34
f 54//54 29//29 8//8
f 54//54 44//44 14//14
f 54//54 8//8 44//44
f 55//55 8//8 29//29
f 55//55 53//53 8//8
f 55//55 28//28 53//53
f 55//55 29//29 17//17
f 55//55 17//17 28//28
f 56//56 30//30 9//9
f 56//56 9//9 17//17
f 56//56 17//17 30//30
f 57//57 47//47 30//30
f 57//57 14//14 47//47
f 57//57 54//54 14//14
f 57//57 29//29 54//54
f 57//57 30//30 17//17
f 57//57 17//17 29//29
f 58//58 28//28 17//17
f 58//58 17//17 31//31
f 58//58 20//20 28//28
f 58//58 11//11 20//20
f 58//58 31//31 19//19
f 58//58 51//51 11//11
f 58//58 19//19 51//51
f 59//59 32//32 18//18
f 59//59 18//18 7//7
f 59//59 7//7 32//32
f 60//60 32//32 3//3
f 60//60 3//3 18//18
f 60//60 18//18 32//32
f 61//61 43//43 3//3
f 61//61 23//23 43//43
f 62//62 32//32 7//7
f 62//62 7//7 13//13
f 62//62 13//13 23//23
f 62//62 23//23 61//61
f 62//62 61//61 3//3
f 62//62 3//3 32//32
f 63//63 33//33 10//10
f 63//63 50//50 33//33
f 63//63 6//6 50//50
f 63//63 42//42 6//6
f 63//63 10//10 42//42
f 64//64 31//31 10//10
f 64//64 10//10 33//33
f 64//64 33//33 19//19
f 64//64 19//19 31//31

