# https://github.com/mikedh/trimesh
v -0.02303503 -0.02504659 -0.00277837
v -0.02305605 -0.04151638 -0.00250281
v -0.02297060 -0.03574282 -0.02009846
v -0.05889593 -0.02291872 -0.01928435
v -0.06594948 -0.02299085 -0.00249598
v -0.05708345 -0.04032611 -0.01486179
v -0.02304784 -0.02502401 -0.01608807
v -0.02269294 -0.03753583 -0.01911260
v -0.06310865 -0.03735311 -0.00215893
v -0.03846270 -0.02348973 -0.00260494
v -0.05880195 -0.02985132 -0.02001015
v -0.02298599 -0.02877100 -0.02009414
v -0.04678632 -0.04187216 -0.01700746
v -0.03849145 -0.02400351 -0.01507580
v -0.06720548 -0.03127132 -0.01464417
v -0.05343282 -0.02329600 -0.01901200
v -0.05692164 -0.02505387 -0.02002539
v -0.03953801 -0.03836025 -0.01883687
v -0.06218394 -0.03412179 -0.01757137
v -0.02301375 -0.04046315 -0.01591470
v -0.05686468 -0.04046176 -0.01460897
v -0.06373717 -0.03708771 -0.01383593
v -0.06597399 -0.03267815 -0.00236684
v -0.06525587 -0.02304282 -0.01610727
v -0.05851450 -0.02849428 -0.01998029
v -0.06117062 -0.03645136 -0.01658210
v -0.06205298 -0.03107344 -0.01877642
v -0.05994395 -0.03920697 -0.01429154
v -0.06407957 -0.03590337 -0.01582939
v -0.06688066 -0.02936225 -0.01044945
v -0.06567274 -0.03531119 -0.00988974
v -0.06699722 -0.02521699 -0.01319550
v -0.06681354 -0.02853391 -0.01527378
v -0.06202183 -0.02992194 -0.01871450
v -0.06422492 -0.03695581 -0.01062974
v -0.06207960 -0.03806084 -0.01460755
v -0.06216521 -0.03707573 -0.01573406
v -0.06489549 -0.03131126 -0.01672181
v -0.06714657 -0.03196368 -0.01398856
v -0.06506768 -0.03543327 -0.00271493
v -0.06582654 -0.02330620 -0.01513216
v -0.06567423 -0.02435346 -0.01601045
v -0.06583363 -0.03518303 -0.01329852
v -0.06497866 -0.02544428 -0.01655317
v -0.06683776 -0.02634114 -0.01421677
v -0.06474595 -0.03612590 -0.01403711
vn 0.60292699 0.55154566 0.57643424
vn 0.56513898 -0.59318314 0.57336872
vn 0.54826062 -0.17409143 -0.81798683
vn -0.17935498 0.72811284 -0.66157652
vn -0.54235363 0.59579516 0.59235180
vn -0.31433531 -0.81713567 -0.48320038
vn 0.65987605 0.70155591 -0.26904071
vn 0.69823729 -0.42612626 -0.57522265
vn -0.35202116 -0.63540350 0.68727251
vn 0.05072474 0.72635642 0.68544391
vn -0.19767824 -0.11965849 -0.97293636
vn 0.63686413 0.29135173 -0.71380547
vn -0.10234846 -0.85666256 -0.50562244
vn 0.06252674 0.99707138 -0.04403494
vn -0.91536332 -0.13854616 -0.37804094
vn 0.08547163 0.83038270 -0.55059893
vn -0.06718938 0.17317262 -0.98259698
vn -0.02453477 -0.35274240 -0.93539876
vn -0.31993130 -0.38197417 -0.86702924
vn 0.62548598 -0.72426032 -0.29019697
vn -0.22511772 -0.97288436 -0.05308525
vn -0.60143794 -0.78034859 -0.17125563
vn -0.71471299 -0.11999255 0.68904799
vn -0.49779705 0.70514478 -0.50494449
vn -0.24159023 0.07486973 -0.96748576
vn -0.25065440 -0.52520995 -0.81322007
vn -0.41587098 -0.15620803 -0.89590757
vn -0.41412295 -0.89790576 -0.14922277
vn -0.57856229 -0.52986221 -0.62009009
vn -0.99576160 0.00112758 0.09196502
vn -0.85772587 -0.51165026 0.05020305
vn -0.96448452 0.24601024 -0.09616945
vn -0.83154763 0.05110321 -0.55309764
vn -0.44899341 0.07691390 -0.89021861
vn -0.61485197 -0.78861907 0.00608341
vn -0.46719860 -0.82332038 -0.32228716
vn -0.33742418 -0.64697915 -0.68378571
vn -0.61078181 -0.13553202 -0.78011323
vn -0.95947808 -0.25937621 -0.11011715
vn -0.76962228 -0.46540482 0.43712686
vn -0.77652345 0.59415882 -0.20972989
vn -0.74571665 0.14355778 -0.65061343
vn -0.82993599 -0.53225406 -0.16706845
vn -0.53723098 0.06295596 -0.84108229
vn -0.92694808 0.16011042 -0.33931093
vn -0.69402121 -0.68140006 -0.23244035
f 8//8 1//1 2//2
f 8//8 7//7 1//1
f 10//10 4//4 5//5
f 10//10 1//1 7//7
f 10//10 5//5 9//9
f 10//10 9//9 2//2
f 10//10 2//2 1//1
f 12//12 8//8 3//3
f 12//12 7//7 8//8
f 13//13 3//3 8//8
f 14//14 10//10 7//7
f 14//14 7//7 4//4
f 14//14 4//4 10//10
f 16//16 12//12 4//4
f 16//16 4//4 7//7
f 16//16 7//7 12//12
f 17//17 4//4 12//12
f 17//17 12//12 3//3
f 17//17 3//3 11//11
f 18//18 13//13 11//11
f 18//18 11//11 3//3
f 18//18 3//3 13//13
f 19//19 11//11 13//13
f 20//20 13//13 8//8
f 20//20 8//8 2//2
f 20//20 2//2 13//13
f 21//21 6//6 13//13
f 21//21 13//13 2//2
f 21//21 2//2 9//9
f 23//23 9//9 5//5
f 24//24 5//5 4//4
f 25//25 17//17 11//11
f 25//25 11//11 4//4
f 25//25 4//4 17//17
f 26//26 19//19 13//13
f 26//26 13//13 6//6
f 27//27 11//11 19//19
f 28//28 21//21 9//9
f 28//28 6//6 21//21
f 29//29 19//19 26//26
f 29//29 27//27 19//19
f 30//30 23//23 5//5
f 32//32 30//30 5//5
f 32//32 15//15 30//30
f 33//33 15//15 32//32
f 34//34 24//24 4//4
f 34//34 4//4 11//11
f 34//34 11//11 27//27
f 35//35 28//28 9//9
f 36//36 22//22 29//29
f 36//36 35//35 22//22
f 36//36 28//28 35//35
f 36//36 6//6 28//28
f 37//37 29//29 26//26
f 37//37 26//26 6//6
f 37//37 36//36 29//29
f 37//37 6//6 36//36
f 38//38 29//29 15//15
f 38//38 27//27 29//29
f 38//38 15//15 33//33
f 39//39 30//30 15//15
f 39//39 23//23 30//30
f 40//40 9//9 23//23
f 40//40 39//39 31//31
f 40//40 23//23 39//39
f 40//40 35//35 9//9
f 40//40 31//31 35//35
f 41//41 32//32 5//5
f 41//41 5//5 24//24
f 42//42 41//41 24//24
f 43//43 35//35 31//31
f 43//43 31//31 39//39
f 43//43 39//39 15//15
f 43//43 15//15 29//29
f 44//44 38//38 33//33
f 44//44 27//27 38//38
f 44//44 33//33 42//42
f 44//44 34//34 27//27
f 44//44 42//42 24//24
f 44//44 24//24 34//34
f 45//45 33//33 32//32
f 45//45 32//32 41//41
f 45//45 42//42 33//33
f 45//45 41//41 42//42
f 46//46 43//43 29//29
f 46//46 29//29 22//22
f 46//46 22//22 35//35
f 46//46 35//35 43//43

