# https://github.com/mikedh/trimesh
v -0.06285014 -0.00398616 -0.01016407
v -0.05383180 -0.01807394 -0.01075179
v -0.06507043 -0.00375799 -0.01700233
v -0.07216688 -0.00374379 -0.01876576
v -0.07194776 -0.02154847 -0.01068185
v -0.05936493 -0.01989052 -0.01879578
v -0.07606069 -0.00369558 -0.01030235
v -0.06420767 -0.00383713 -0.01528281
v -0.05518173 -0.01742276 -0.01029910
v -0.05513953 -0.02022998 -0.01620147
v -0.06786340 -0.00377266 -0.01894164
v -0.06803140 -0.01939503 -0.01875913
v -0.07576156 -0.00365828 -0.01342021
v -0.07533778 -0.01104714 -0.01034083
v -0.05738365 -0.02024294 -0.01799338
v -0.07469592 -0.00369738 -0.01699981
v -0.07562916 -0.00677819 -0.01341639
v -0.06603274 -0.00389558 -0.01785897
v -0.07361096 -0.00876847 -0.01777453
v -0.07566016 -0.00885917 -0.01034244
v -0.07459992 -0.00790514 -0.01685358
v -0.07396344 -0.00373634 -0.01803275
v -0.07111236 -0.01206260 -0.01859116
v -0.07559241 -0.00884557 -0.01131032
v -0.07471305 -0.01194343 -0.01427549
v -0.07180632 -0.01414848 -0.01786607
v -0.07219366 -0.00894781 -0.01842650
v -0.07415870 -0.01414789 -0.01448029
v -0.07354299 -0.01408370 -0.01595049
v -0.07448771 -0.01185898 -0.01510242
v -0.07350939 -0.01181180 -0.01684856
vn 0.44655630 0.68388788 0.57696172
vn 0.87836806 -0.22820009 0.41999318
vn 0.45589522 0.80126043 -0.38748068
vn -0.16716378 0.64994252 -0.74137102
vn -0.50258729 -0.74590958 0.43706397
vn 0.16120096 -0.49831694 -0.85187704
vn -0.62305122 0.55477042 0.55139546
vn 0.52281338 0.83223374 -0.18453501
vn 0.20781428 -0.09162904 0.97386721
vn 0.78639878 -0.51097276 -0.34710777
vn 0.12540024 0.67427681 -0.72775378
vn -0.27528224 -0.57705991 -0.76890932
vn -0.72189250 0.67852348 -0.13593053
vn -0.73640332 -0.17139669 0.65447179
vn 0.43179014 -0.54399483 -0.71946293
vn -0.67081828 0.66014764 -0.33794663
vn -0.98138776 -0.08302218 -0.17316290
vn 0.48057644 0.53153482 -0.69750772
vn -0.61156119 -0.14066736 -0.77859206
vn -0.77274984 -0.09077889 0.62818538
vn -0.86919409 -0.11384504 -0.48118702
vn -0.48294791 0.60813563 -0.63002569
vn -0.31669271 -0.09471704 -0.94378727
vn -0.98697216 -0.12977147 -0.09510689
vn -0.96300217 -0.18976123 -0.19135697
vn -0.59795193 -0.25941497 -0.75839130
vn -0.37549812 -0.07589173 -0.92371078
vn -0.91645091 -0.31971386 -0.24062581
vn -0.79587394 -0.33861983 -0.50191761
vn -0.91945851 -0.19374612 -0.34213811
vn -0.74633064 -0.22566089 -0.62615312
f 7//7 1//1 3//3
f 8//8 1//1 2//2
f 8//8 3//3 1//1
f 9//9 5//5 2//2
f 9//9 2//2 1//1
f 10//10 2//2 5//5
f 10//10 8//8 2//2
f 10//10 3//3 8//8
f 12//12 11//11 6//6
f 12//12 4//4 11//11
f 13//13 7//7 3//3
f 14//14 5//5 9//9
f 14//14 9//9 1//1
f 14//14 1//1 7//7
f 15//15 10//10 5//5
f 15//15 6//6 11//11
f 15//15 12//12 6//6
f 15//15 5//5 12//12
f 16//16 13//13 3//3
f 16//16 11//11 4//4
f 16//16 3//3 11//11
f 17//17 7//7 13//13
f 18//18 15//15 11//11
f 18//18 11//11 3//3
f 18//18 3//3 10//10
f 18//18 10//10 15//15
f 20//20 14//14 7//7
f 20//20 7//7 17//17
f 21//21 17//17 13//13
f 21//21 13//13 16//16
f 22//22 16//16 4//4
f 22//22 21//21 16//16
f 22//22 19//19 21//21
f 23//23 4//4 12//12
f 24//24 20//20 17//17
f 24//24 14//14 20//20
f 25//25 17//17 21//21
f 25//25 24//24 17//17
f 25//25 14//14 24//24
f 26//26 23//23 12//12
f 26//26 19//19 23//23
f 27//27 22//22 4//4
f 27//27 4//4 23//23
f 27//27 23//23 19//19
f 27//27 19//19 22//22
f 28//28 5//5 14//14
f 28//28 14//14 25//25
f 29//29 26//26 12//12
f 29//29 12//12 5//5
f 29//29 5//5 28//28
f 30//30 28//28 25//25
f 30//30 25//25 21//21
f 30//30 29//29 28//28
f 30//30 21//21 29//29
f 31//31 29//29 21//21
f 31//31 21//21 19//19
f 31//31 19//19 26//26
f 31//31 26//26 29//29

