# https://github.com/mikedh/trimesh
v -0.01237573 -0.01524578 0.01608753
v -0.01080038 -0.01539924 0.01537310
v -0.02231132 -0.01575616 -0.00999571
v -0.04951277 -0.02406308 -0.01461628
v -0.03357635 -0.03861666 0.01251606
v -0.04829663 -0.01978530 0.01090509
v -0.00793730 -0.01636002 -0.01125820
v -0.02224095 -0.03078481 0.01586610
v -0.01812858 -0.01595072 0.01595562
v -0.04865243 -0.03730435 0.01072561
v -0.02727806 -0.03839582 -0.01267691
v -0.02220595 -0.01911029 -0.01362116
v -0.01620339 -0.02491581 0.01610111
v -0.04969626 -0.02431752 0.01747098
v -0.04874804 -0.03661848 -0.01152916
v -0.04168581 -0.04067857 -0.00830492
v -0.01949000 -0.03425233 0.00556475
v -0.02222944 -0.01689655 -0.01188762
v -0.01986096 -0.02502746 -0.01643919
v -0.01271726 -0.01714392 0.01602507
v -0.04886339 -0.02248411 0.01558065
v -0.03136515 -0.03226540 0.01726304
v -0.04861110 -0.02004025 0.01170758
v -0.04360035 -0.03586436 -0.01404872
v -0.04876247 -0.03751842 -0.00967956
v -0.02847848 -0.03972345 -0.01037847
v -0.04278150 -0.03965430 0.00555090
v -0.02369705 -0.03533104 0.01245692
v -0.01663409 -0.03248354 -0.01227401
v -0.01145154 -0.02422711 0.00552945
v -0.01494844 -0.02346809 -0.01532870
v -0.01125038 -0.01709379 0.01535348
v -0.04772482 -0.03527321 0.01632727
v -0.04890843 -0.03292145 -0.01407522
v -0.04357252 -0.03868868 -0.01231823
v -0.02109923 -0.03287780 -0.01524722
v -0.04487908 -0.03971088 -0.00743716
v -0.03346590 -0.03966464 0.00031392
v -0.04366455 -0.03844477 0.01321487
v -0.02546240 -0.03745153 0.00749726
v -0.02846475 -0.03555449 0.01504649
v -0.01556087 -0.02733347 0.01414067
v -0.02016232 -0.03634477 -0.01082657
v -0.01154349 -0.02129138 0.01268517
v -0.01144626 -0.02539167 -0.01083163
v -0.01672787 -0.03153944 0.00655436
v -0.01409941 -0.02061784 0.01599384
v -0.04891154 -0.03280693 0.01726659
v -0.02032825 -0.02608139 -0.01639141
v -0.04886936 -0.03468053 -0.01344883
v -0.04643993 -0.03834034 -0.01062671
v -0.03858941 -0.03856872 -0.01338884
v -0.01340932 -0.02762096 -0.01358384
v -0.04654154 -0.03849236 0.00971497
v -0.02955164 -0.03839781 0.00860484
v -0.03980832 -0.04069491 -0.00822341
v -0.04086677 -0.03966169 0.00560671
v -0.04859751 -0.03623131 0.01455034
v -0.02257655 -0.03531539 0.01074724
v -0.03061777 -0.03754918 0.01341869
v -0.03364531 -0.03570827 0.01603177
v -0.02250405 -0.03239696 0.01501178
v -0.02747526 -0.03367208 0.01595508
v -0.01457639 -0.02445244 0.01512803
vn 0.18214781 0.67109280 0.71864917
vn 0.71568619 0.51642673 0.47020922
vn -0.09688092 0.96015920 -0.26212287
vn -0.66432089 0.41565926 -0.62121263
vn 0.09919063 -0.92349619 0.37056175
vn -0.43860225 0.89844248 0.02071679
vn 0.75285699 0.49630134 -0.43230930
vn 0.30003515 -0.37532268 0.87699019
vn -0.11971939 0.83649393 0.53473842
vn -0.79848255 -0.59169352 0.11101530
vn 0.18926754 -0.74607942 -0.63839118
vn -0.01813739 0.52486378 -0.85099298
vn 0.34396750 -0.25956050 0.90239388
vn -0.67459968 0.26503646 0.68896368
vn -0.76389945 -0.52263019 -0.37857010
vn -0.13785297 -0.97674301 -0.16422438
vn 0.60139111 -0.78868832 0.12766938
vn -0.06557321 0.75262502 -0.65517611
vn 0.09741389 0.13576671 -0.98594013
vn 0.29707966 -0.10846631 0.94867209
vn -0.38625824 0.76247858 0.51906742
vn 0.08268563 -0.20246578 0.97579234
vn -0.65471501 0.72193075 0.22397377
vn -0.12068825 -0.32632827 -0.93752024
vn -0.80276976 -0.57975532 -0.13944349
vn 0.19424851 -0.96118186 -0.19595137
vn -0.11475412 -0.98896319 0.09371922
vn 0.43736853 -0.78875948 0.43193432
vn 0.68454148 -0.64165114 -0.34595776
vn 0.90023918 -0.42147188 0.10922851
vn 0.31126029 0.10652427 -0.94433554
vn 0.72260192 -0.22970721 0.65198241
vn -0.26969274 -0.58603574 0.76408635
vn -0.65274464 -0.15561993 -0.74142219
vn -0.22323703 -0.76566783 -0.60325617
vn 0.25049156 -0.43485405 -0.86496008
vn -0.37804398 -0.92327358 -0.06818099
vn 0.10471194 -0.99167328 0.07496343
vn -0.10300432 -0.89656480 0.43076870
vn 0.36666424 -0.91888890 0.14560400
vn 0.25621328 -0.65954558 0.70665011
vn 0.67198085 -0.55683591 0.48823714
vn 0.53460784 -0.80672250 -0.25178020
vn 0.89748709 -0.33921306 0.28187130
vn 0.88234752 -0.45495026 -0.12034579
vn 0.73673024 -0.65827187 0.15461793
vn 0.38913497 -0.16747304 0.90582932
vn -0.65148717 -0.22066732 0.72585839
vn 0.09660829 -0.12296221 -0.98769790
vn -0.73210879 -0.35201418 -0.58318327
vn -0.38068669 -0.85711756 -0.34702613
vn -0.02714295 -0.66496626 -0.74638002
vn 0.69409283 -0.41984916 -0.58477502
vn -0.33419408 -0.93379660 0.12782110
vn 0.21909355 -0.96514757 0.14313696
vn 0.02488303 -0.98966890 -0.14119599
vn 0.01691749 -0.99394428 0.10857516
vn -0.72191542 -0.60512730 0.33564726
vn 0.53479333 -0.80262525 0.26417571
vn 0.22500027 -0.85240835 0.47199034
vn 0.06464630 -0.57748454 0.81383811
vn 0.42231753 -0.59334382 0.68526712
vn 0.22443419 -0.44183886 0.86856647
vn 0.67522387 -0.37585305 0.63467095
f 6//6 3//3 4//4
f 7//7 1//1 2//2
f 7//7 3//3 1//1
f 9//9 1//1 3//3
f 9//9 3//3 6//6
f 14//14 1//1 9//9
f 18//18 12//12 4//4
f 18//18 4//4 3//3
f 18//18 3//3 7//7
f 18//18 7//7 12//12
f 19//19 4//4 12//12
f 20//20 2//2 1//1
f 20//20 1//1 13//13
f 21//21 14//14 9//9
f 22//22 8//8 13//13
f 22//22 13//13 1//1
f 22//22 1//1 14//14
f 23//23 6//6 4//4
f 23//23 4//4 14//14
f 23//23 14//14 21//21
f 23//23 21//21 9//9
f 23//23 9//9 6//6
f 25//25 14//14 4//4
f 25//25 10//10 14//14
f 31//31 19//19 12//12
f 31//31 12//12 7//7
f 32//32 2//2 20//20
f 37//37 10//10 25//25
f 43//43 26//26 11//11
f 43//43 36//36 29//29
f 43//43 11//11 36//36
f 43//43 40//40 26//26
f 43//43 17//17 40//40
f 44//44 30//30 7//7
f 44//44 7//7 2//2
f 44//44 2//2 32//32
f 44//44 42//42 30//30
f 45//45 7//7 30//30
f 46//46 45//45 30//30
f 46//46 29//29 45//45
f 46//46 43//43 29//29
f 46//46 17//17 43//43
f 46//46 30//30 42//42
f 47//47 32//32 20//20
f 47//47 20//20 13//13
f 47//47 13//13 32//32
f 48//48 22//22 14//14
f 48//48 14//14 10//10
f 49//49 34//34 4//4
f 49//49 4//4 19//19
f 49//49 24//24 34//34
f 49//49 36//36 24//24
f 49//49 19//19 31//31
f 49//49 31//31 36//36
f 50//50 25//25 4//4
f 50//50 4//4 34//34
f 50//50 15//15 25//25
f 50//50 35//35 15//15
f 50//50 34//34 24//24
f 50//50 24//24 35//35
f 51//51 25//25 15//15
f 51//51 15//15 35//35
f 51//51 35//35 16//16
f 51//51 37//37 25//25
f 51//51 16//16 37//37
f 52//52 35//35 24//24
f 52//52 11//11 26//26
f 52//52 26//26 16//16
f 52//52 16//16 35//35
f 52//52 36//36 11//11
f 52//52 24//24 36//36
f 53//53 36//36 31//31
f 53//53 29//29 36//36
f 53//53 45//45 29//29
f 53//53 31//31 7//7
f 53//53 7//7 45//45
f 54//54 10//10 37//37
f 54//54 27//27 39//39
f 54//54 37//37 16//16
f 54//54 16//16 27//27
f 55//55 38//38 26//26
f 55//55 5//5 38//38
f 55//55 26//26 40//40
f 56//56 16//16 26//26
f 56//56 26//26 38//38
f 56//56 27//27 16//16
f 57//57 38//38 5//5
f 57//57 56//56 38//38
f 57//57 27//27 56//56
f 57//57 39//39 27//27
f 57//57 5//5 39//39
f 58//58 39//39 33//33
f 58//58 54//54 39//39
f 58//58 10//10 54//54
f 58//58 48//48 10//10
f 58//58 33//33 48//48
f 59//59 40//40 17//17
f 59//59 28//28 40//40
f 59//59 17//17 46//46
f 59//59 46//46 42//42
f 59//59 42//42 28//28
f 60//60 40//40 28//28
f 60//60 55//55 40//40
f 60//60 5//5 55//55
f 60//60 28//28 41//41
f 61//61 60//60 41//41
f 61//61 33//33 39//39
f 61//61 39//39 5//5
f 61//61 5//5 60//60
f 61//61 48//48 33//33
f 61//61 22//22 48//48
f 62//62 41//41 28//28
f 62//62 28//28 42//42
f 62//62 42//42 13//13
f 62//62 13//13 8//8
f 63//63 8//8 22//22
f 63//63 61//61 41//41
f 63//63 22//22 61//61
f 63//63 62//62 8//8
f 63//63 41//41 62//62
f 64//64 32//32 13//13
f 64//64 13//13 42//42
f 64//64 44//44 32//32
f 64//64 42//42 44//44

