# https://github.com/mikedh/trimesh
v 0.06699281 -0.00691702 0.01563240
v 0.06938218 -0.03192550 0.01121581
v 0.07167307 -0.00696210 -0.01128001
v 0.06443674 -0.00683984 -0.01799685
v 0.05485839 -0.03726289 0.01047811
v 0.06557472 -0.03971099 -0.01503151
v 0.06877852 -0.00687511 0.01469659
v 0.05925131 -0.03811451 0.01559256
v 0.05689644 -0.00674893 0.00307383
v 0.07042013 -0.02984165 -0.01149964
v 0.05503605 -0.03720901 -0.01360332
v 0.07054962 -0.00689927 -0.01509951
v 0.06472437 -0.03636756 0.01552558
v 0.07147187 -0.01417303 0.01123500
v 0.06062736 -0.00705621 0.01577197
v 0.05828537 -0.04142694 0.01201636
v 0.06770158 -0.03993853 -0.01190637
v 0.05950525 -0.03508968 -0.01777131
v 0.05808867 -0.00678494 -0.01120551
v 0.05499448 -0.03039091 0.00527128
v 0.05692384 -0.00671350 -0.00309222
v 0.07149356 -0.02263112 -0.01131178
v 0.06747982 -0.03180447 -0.01578104
v 0.06714709 -0.01830522 0.01565826
v 0.07160605 -0.00700452 0.00924965
v 0.05604719 -0.03236414 0.01397458
v 0.05588061 -0.03908599 0.01284246
v 0.06357562 -0.04053029 0.01384761
v 0.05947763 -0.04147997 -0.01146785
v 0.06936543 -0.03298481 0.00939355
v 0.06177786 -0.00676873 -0.01731523
v 0.05504771 -0.03260944 -0.01134684
v 0.05503935 -0.03029696 0.00628581
v 0.07147036 -0.01000833 -0.01208957
v 0.06810504 -0.00687636 -0.01705494
v 0.06391242 -0.03401218 -0.01775910
v 0.06728716 -0.03686519 -0.01477945
v 0.07055812 -0.02875464 -0.01166293
v 0.06956529 -0.01296949 -0.01590683
v 0.06162476 -0.00974843 0.01673511
v 0.06947454 -0.02371666 0.01377590
v 0.07047954 -0.00701320 0.01283773
v 0.07161118 -0.02267977 -0.00968121
v 0.05814075 -0.00701416 0.01240974
v 0.05776080 -0.04051952 0.01381169
v 0.05565255 -0.04054121 0.01112000
v 0.05598550 -0.03634288 0.01374500
v 0.06294420 -0.03814569 0.01548268
v 0.06637368 -0.03788293 0.01361433
v 0.06283066 -0.04163569 -0.01346540
v 0.06932305 -0.03397707 -0.00854330
v 0.07045895 -0.02790934 0.00922441
v 0.05788453 -0.03261551 -0.01684582
v 0.05988441 -0.03052804 -0.01784903
v 0.05996664 -0.00677277 -0.01521909
v 0.05510583 -0.03463268 -0.01327982
v 0.05502220 -0.03342922 0.00912636
v 0.06280293 -0.03894657 -0.01676485
v 0.06529761 -0.00688854 -0.01795974
v 0.06655691 -0.03593906 -0.01594754
v 0.06956977 -0.03266346 -0.01193887
v 0.07050793 -0.00797679 -0.01516105
v 0.06667091 -0.03070314 -0.01672164
v 0.06310411 -0.01098509 0.01662788
vn 0.21979922 0.67662044 0.70276104
vn 0.91366753 -0.22959856 0.33540447
vn 0.74611823 0.65863324 -0.09751838
vn -0.05071533 0.66903462 -0.74149891
vn -0.98606334 -0.08027766 0.14572091
vn 0.48412053 -0.61324561 -0.62414512
vn 0.45637279 0.67112466 0.58422219
vn -0.22811088 -0.27885349 0.93284841
vn -0.68686779 0.72522861 0.04749842
vn 0.95619547 -0.20062553 -0.21316569
vn -0.82760591 -0.38042682 -0.41272738
vn 0.64026574 0.64348474 -0.41950824
vn 0.37676163 -0.19221574 0.90614777
vn 0.95186746 -0.02740364 0.30528247
vn -0.37907550 0.67621048 0.63169704
vn -0.12790476 -0.97113569 0.20133515
vn 0.73415339 -0.65390144 -0.18284338
vn -0.31753815 -0.23427329 -0.91885012
vn -0.67869887 0.70607703 -0.20204719
vn -0.99848936 0.05390678 0.01063250
vn -0.68261446 0.72955269 -0.04231268
vn 0.94939835 -0.08535114 -0.30225478
vn 0.76634585 -0.11875706 -0.63135631
vn 0.40162883 -0.02720232 0.91539845
vn 0.74159938 0.66389971 0.09626803
vn -0.79293262 0.03999103 0.60799554
vn -0.79399067 -0.27592696 0.54170392
vn 0.35196105 -0.80429470 0.47878330
vn -0.37687447 -0.89499237 -0.23865099
vn 0.93878965 -0.33049648 0.09719084
vn -0.37029886 0.67578112 -0.63733714
vn -0.99503848 0.06809433 -0.07253678
vn -0.99525209 0.07519498 0.06179792
vn 0.96613342 -0.00960476 -0.25786422
vn 0.35562253 0.65688270 -0.66485918
vn 0.24583868 -0.12896666 -0.96069295
vn 0.79359112 -0.27104147 -0.54474733
vn 0.92850040 -0.13181285 -0.34714894
vn 0.69534364 -0.06044978 -0.71613061
vn -0.23308741 0.11995342 0.96502924
vn 0.77396160 -0.09559892 0.62597466
vn 0.67945816 0.61912213 0.39373138
vn 0.99610967 -0.08471089 -0.02428146
vn -0.67576132 0.67986040 0.28484465
vn -0.35440375 -0.65687725 0.66551503
vn -0.74229486 -0.64644728 0.17636398
vn -0.76900764 -0.08157991 0.63401260
vn 0.16035146 -0.34340773 0.92539642
vn 0.74830587 -0.48201769 0.45573815
vn 0.02229034 -0.93412718 -0.35624367
vn 0.96580002 -0.25920681 0.00649251
vn 0.98053348 -0.13901593 0.13866744
vn -0.66171296 0.02343581 -0.74939090
vn -0.25074396 0.02103290 -0.96782492
vn -0.58460406 0.71376968 -0.38570836
vn -0.93957177 0.07803014 -0.33334096
vn -0.99037373 0.08317131 0.11064541
vn 0.00771774 -0.55189294 -0.83387926
vn 0.15971321 0.58506861 -0.79510151
vn 0.60747792 -0.22438059 -0.76198683
vn 0.91391951 -0.22472431 -0.33800905
vn 0.81767546 -0.01068123 -0.57558037
vn 0.55641291 -0.07649938 -0.82737689
vn 0.13885706 0.00940739 0.99026775
f 9//9 1//1 7//7
f 12//12 7//7 3//3
f 15//15 1//1 9//9
f 21//21 9//9 7//7
f 21//21 20//20 9//9
f 24//24 7//7 1//1
f 25//25 3//3 7//7
f 31//31 21//21 7//7
f 31//31 7//7 12//12
f 32//32 11//11 5//5
f 32//32 5//5 20//20
f 32//32 20//20 21//21
f 32//32 21//21 19//19
f 33//33 20//20 5//5
f 33//33 9//9 20//20
f 34//34 22//22 12//12
f 34//34 12//12 3//3
f 34//34 3//3 22//22
f 35//35 31//31 12//12
f 35//35 4//4 31//31
f 37//37 17//17 6//6
f 38//38 22//22 10//10
f 38//38 37//37 23//23
f 38//38 10//10 37//37
f 39//39 38//38 23//23
f 39//39 22//22 38//38
f 40//40 1//1 15//15
f 40//40 8//8 13//13
f 40//40 26//26 8//8
f 40//40 15//15 26//26
f 41//41 7//7 24//24
f 41//41 2//2 14//14
f 41//41 24//24 13//13
f 42//42 25//25 7//7
f 42//42 14//14 25//25
f 42//42 41//41 14//14
f 42//42 7//7 41//41
f 43//43 22//22 3//3
f 43//43 3//3 25//25
f 43//43 25//25 14//14
f 43//43 10//10 22//22
f 44//44 26//26 15//15
f 44//44 15//15 9//9
f 44//44 5//5 26//26
f 45//45 28//28 8//8
f 45//45 16//16 28//28
f 46//46 27//27 5//5
f 46//46 5//5 11//11
f 46//46 45//45 27//27
f 46//46 16//16 45//45
f 46//46 29//29 16//16
f 46//46 11//11 29//29
f 47//47 26//26 5//5
f 47//47 5//5 27//27
f 47//47 8//8 26//26
f 47//47 45//45 8//8
f 47//47 27//27 45//45
f 48//48 28//28 13//13
f 48//48 13//13 8//8
f 48//48 8//8 28//28
f 49//49 13//13 28//28
f 49//49 41//41 13//13
f 49//49 2//2 41//41
f 49//49 30//30 2//2
f 49//49 28//28 17//17
f 49//49 17//17 30//30
f 50//50 6//6 17//17
f 50//50 17//17 28//28
f 50//50 28//28 16//16
f 50//50 16//16 29//29
f 51//51 30//30 17//17
f 51//51 17//17 10//10
f 51//51 10//10 30//30
f 52//52 14//14 2//2
f 52//52 2//2 30//30
f 52//52 43//43 14//14
f 52//52 30//30 10//10
f 52//52 10//10 43//43
f 53//53 18//18 11//11
f 54//54 31//31 4//4
f 54//54 53//53 31//31
f 54//54 18//18 53//53
f 54//54 36//36 18//18
f 54//54 4//4 36//36
f 55//55 19//19 21//21
f 55//55 21//21 31//31
f 55//55 31//31 53//53
f 56//56 32//32 19//19
f 56//56 11//11 32//32
f 56//56 19//19 55//55
f 56//56 55//55 53//53
f 56//56 53//53 11//11
f 57//57 33//33 5//5
f 57//57 9//9 33//33
f 57//57 44//44 9//9
f 57//57 5//5 44//44
f 58//58 18//18 36//36
f 58//58 6//6 50//50
f 58//58 11//11 18//18
f 58//58 50//50 29//29
f 58//58 29//29 11//11
f 59//59 36//36 4//4
f 59//59 4//4 35//35
f 59//59 35//35 36//36
f 60//60 23//23 37//37
f 60//60 37//37 6//6
f 60//60 58//58 36//36
f 60//60 6//6 58//58
f 61//61 37//37 10//10
f 61//61 10//10 17//17
f 61//61 17//17 37//37
f 62//62 12//12 22//22
f 62//62 22//22 39//39
f 62//62 39//39 35//35
f 62//62 35//35 12//12
f 63//63 36//36 35//35
f 63//63 35//35 39//39
f 63//63 39//39 23//23
f 63//63 60//60 36//36
f 63//63 23//23 60//60
f 64//64 24//24 1//1
f 64//64 1//1 40//40
f 64//64 40//40 13//13
f 64//64 13//13 24//24

