# https://github.com/mikedh/trimesh
v 0.05464564 0.03060133 0.01546946
v 0.06946826 0.00651017 0.00919473
v 0.06412731 0.02809914 -0.01115528
v 0.04435262 0.03586369 -0.01681463
v 0.05600296 0.00650053 0.01235482
v 0.06315982 0.00662615 -0.01801467
v 0.05006765 0.03907557 0.00703404
v 0.06403310 0.02595503 0.01103880
v 0.06485502 0.00659767 0.01557748
v 0.06953528 0.00655259 -0.01133493
v 0.05643412 0.02952762 -0.01768908
v 0.05595088 0.00672975 -0.01126044
v 0.05008139 0.03926120 -0.01124754
v 0.04447868 0.02938869 0.01552599
v 0.06831924 0.01682269 0.00709469
v 0.05699147 0.03392766 0.01178677
v 0.05679279 0.00640038 0.01383443
v 0.06343007 0.02199301 0.01442440
v 0.06603545 0.01879965 -0.01541979
v 0.05176598 0.03083848 -0.01795603
v 0.04448570 0.02948775 -0.01599169
v 0.04400867 0.04047469 0.00908123
v 0.05416755 0.03430701 -0.01588388
v 0.04408947 0.03467497 0.01574736
v 0.06611359 0.02391021 0.00294875
v 0.06737272 0.02102658 -0.01019332
v 0.06940340 0.01171351 0.00196904
v 0.06297007 0.02907692 0.00703907
v 0.05520205 0.03696433 -0.00950028
v 0.06834175 0.00650149 0.01278281
v 0.06745406 0.00636742 -0.01623508
v 0.04477717 0.02770276 0.01460209
v 0.05848957 0.00645848 0.01571705
v 0.06157246 0.02206582 0.01541590
v 0.06005476 0.02918712 0.01365631
v 0.05929758 0.02976599 -0.01596607
v 0.06057830 0.02215451 -0.01781436
v 0.04435488 0.03218364 -0.01693892
v 0.05964007 0.00674596 -0.01737015
v 0.04399009 0.04020362 -0.01210017
v 0.04712170 0.04010881 0.00607785
v 0.05109597 0.03694021 0.01276040
v 0.05155713 0.03424730 -0.01685608
v 0.04451180 0.02276282 -0.00432600
v 0.06604509 0.02291052 0.00915016
v 0.06718734 0.02090104 0.00503309
v 0.06624093 0.02379593 -0.01214660
v 0.06937442 0.00964739 0.00814353
v 0.06831853 0.01696686 -0.00530565
v 0.06202056 0.02884846 0.01102211
v 0.06407739 0.02793418 -0.00029788
v 0.05605342 0.03597243 0.00713012
v 0.05605515 0.03599511 -0.01118794
v 0.06635509 0.01067990 0.01460172
v 0.06848924 0.00949862 -0.01505769
v 0.06385820 0.01604551 0.01549793
v 0.06121519 0.02612932 0.01435607
v 0.05525427 0.03211650 -0.01670136
v 0.06354943 0.02110382 -0.01680378
v 0.05456822 0.03038114 -0.01786986
v 0.06129556 0.00668593 -0.01788902
v 0.05716142 0.00678212 -0.01415390
v 0.04413448 0.03840002 -0.01486205
v 0.04607046 0.04012176 0.00818721
vn 0.22515878 0.30244345 0.92619193
vn 0.76021871 -0.63370694 0.14311893
vn 0.78459376 0.57283098 -0.23722837
vn -0.58154978 0.31389247 -0.75051407
vn -0.57437846 -0.80586343 0.14378285
vn 0.12462681 -0.62758417 -0.76850912
vn 0.37925323 0.91448923 0.14098385
vn 0.81654337 0.43536381 0.37909798
vn 0.25862830 -0.61493680 0.74495915
vn 0.79196515 -0.60004077 -0.11288167
vn 0.30607058 0.29493596 -0.90517047
vn -0.53105417 -0.83587217 -0.13892151
vn 0.30382834 0.90967142 -0.28317177
vn -0.72744394 -0.15036147 0.66948991
vn 0.95679320 0.22552373 0.18353698
vn 0.55590519 0.69300054 0.45904212
vn -0.45498460 -0.82841677 0.32667211
vn 0.67910451 0.25990194 0.68648966
vn 0.74573057 0.21849222 -0.62940215
vn -0.02224760 0.11979838 -0.99254894
vn -0.85728388 -0.26664939 -0.44041167
vn -0.57540626 0.77221021 0.26944208
vn 0.40006845 0.64492573 -0.65116514
vn -0.60303144 0.31426793 0.73320444
vn 0.90776284 0.41742485 0.04151061
vn 0.95983483 0.26026875 -0.10477253
vn 0.99349688 0.11373699 0.00527652
vn 0.78790448 0.60640570 0.10713852
vn 0.55323885 0.82933853 -0.07825843
vn 0.68242065 -0.59816635 0.42011792
vn 0.49740587 -0.63983552 -0.58583095
vn -0.88077756 -0.37058912 0.29477888
vn -0.18641936 -0.67576120 0.71315820
vn 0.26992885 0.14793626 0.95144799
vn 0.56072324 0.48607124 0.67031649
vn 0.57515987 0.50103431 -0.64664964
vn 0.22799521 0.11181021 -0.96722110
vn -0.73763921 -0.06008378 -0.67251642
vn -0.34745127 -0.72910306 -0.58964934
vn -0.59346254 0.76259153 -0.25740315
vn 0.22528249 0.97345389 0.04043912
vn 0.30361721 0.74945412 0.58833248
vn 0.17693445 0.52410523 -0.83307137
vn -0.93856281 -0.34087351 -0.05389894
vn 0.90073423 0.34242371 0.26725239
vn 0.94460441 0.32388087 0.05313832
vn 0.86196050 0.39032661 -0.32352627
vn 0.97796757 0.12168161 0.16962613
vn 0.98225168 0.18558692 -0.02718684
vn 0.73768651 0.58694915 0.33363050
vn 0.83075008 0.55626868 0.02048088
vn 0.57852667 0.80645889 0.12219226
vn 0.59159335 0.75396367 -0.28558028
vn 0.69461841 0.12217439 0.70892784
vn 0.85211619 0.08212420 -0.51686904
vn 0.36002674 0.10183357 0.92736760
vn 0.53916318 0.34494016 0.76832243
vn 0.36292825 0.47577950 -0.80119720
vn 0.53614424 0.23764136 -0.80998515
vn 0.15704045 0.24473337 -0.95678831
vn -0.12942550 -0.69498329 -0.70728160
vn -0.50280560 -0.80869484 -0.30528542
vn -0.59264668 0.58610787 -0.55249206
vn 0.26431762 0.94312356 0.20162872
f 17//17 5//5 12//12
f 27//27 2//2 10//10
f 29//29 13//13 7//7
f 31//31 10//10 2//2
f 31//31 30//30 17//17
f 31//31 2//2 30//30
f 31//31 17//17 12//12
f 32//32 17//17 14//14
f 32//32 5//5 17//17
f 33//33 14//14 17//17
f 33//33 24//24 14//14
f 33//33 9//9 24//24
f 33//33 30//30 9//9
f 33//33 17//17 30//30
f 38//38 4//4 20//20
f 39//39 21//21 38//38
f 40//40 24//24 22//22
f 41//41 7//7 13//13
f 41//41 40//40 22//22
f 41//41 13//13 40//40
f 42//42 22//22 24//24
f 42//42 24//24 1//1
f 42//42 35//35 16//16
f 42//42 1//1 35//35
f 43//43 20//20 4//4
f 44//44 14//14 24//24
f 44//44 32//32 14//14
f 44//44 21//21 12//12
f 44//44 12//12 5//5
f 44//44 5//5 32//32
f 44//44 38//38 21//21
f 44//44 40//40 38//38
f 44//44 24//24 40//40
f 45//45 30//30 15//15
f 45//45 8//8 18//18
f 45//45 28//28 8//8
f 45//45 25//25 28//28
f 46//46 26//26 25//25
f 46//46 15//15 26//26
f 46//46 45//45 15//15
f 46//46 25//25 45//45
f 47//47 3//3 25//25
f 47//47 25//25 26//26
f 47//47 36//36 3//3
f 48//48 27//27 15//15
f 48//48 2//2 27//27
f 48//48 30//30 2//2
f 48//48 15//15 30//30
f 49//49 26//26 15//15
f 49//49 15//15 27//27
f 49//49 27//27 10//10
f 49//49 10//10 26//26
f 50//50 28//28 16//16
f 50//50 8//8 28//28
f 50//50 35//35 8//8
f 50//50 16//16 35//35
f 51//51 28//28 25//25
f 51//51 25//25 3//3
f 51//51 3//3 28//28
f 52//52 29//29 7//7
f 52//52 16//16 28//28
f 52//52 28//28 3//3
f 52//52 3//3 29//29
f 52//52 42//42 16//16
f 52//52 7//7 42//42
f 53//53 23//23 13//13
f 53//53 13//13 29//29
f 53//53 36//36 23//23
f 53//53 29//29 3//3
f 53//53 3//3 36//36
f 54//54 9//9 30//30
f 54//54 45//45 18//18
f 54//54 30//30 45//45
f 55//55 31//31 19//19
f 55//55 10//10 31//31
f 55//55 19//19 47//47
f 55//55 47//47 26//26
f 55//55 26//26 10//10
f 56//56 24//24 9//9
f 56//56 9//9 54//54
f 56//56 54//54 18//18
f 56//56 18//18 34//34
f 56//56 34//34 1//1
f 56//56 1//1 24//24
f 57//57 34//34 18//18
f 57//57 18//18 8//8
f 57//57 8//8 35//35
f 57//57 35//35 1//1
f 57//57 1//1 34//34
f 58//58 36//36 11//11
f 58//58 23//23 36//36
f 58//58 43//43 23//23
f 58//58 11//11 43//43
f 59//59 19//19 31//31
f 59//59 31//31 6//6
f 59//59 6//6 37//37
f 59//59 47//47 19//19
f 59//59 36//36 47//47
f 59//59 37//37 11//11
f 59//59 11//11 36//36
f 60//60 11//11 37//37
f 60//60 43//43 11//11
f 60//60 20//20 43//43
f 60//60 37//37 6//6
f 60//60 6//6 20//20
f 61//61 38//38 20//20
f 61//61 20//20 6//6
f 61//61 39//39 38//38
f 61//61 6//6 31//31
f 61//61 31//31 12//12
f 61//61 12//12 39//39
f 62//62 39//39 12//12
f 62//62 12//12 21//21
f 62//62 21//21 39//39
f 63//63 4//4 38//38
f 63//63 38//38 40//40
f 63//63 43//43 4//4
f 63//63 40//40 13//13
f 63//63 13//13 23//23
f 63//63 23//23 43//43
f 64//64 41//41 22//22
f 64//64 7//7 41//41
f 64//64 42//42 7//7
f 64//64 22//22 42//42

