# https://github.com/mikedh/trimesh
v -0.05961653 -0.02504808 0.01764604
v -0.05872282 -0.03623800 0.01560403
v -0.05943304 -0.02479364 -0.01444122
v -0.06726416 -0.02448891 -0.01413409
v -0.07202739 -0.02420553 0.00999357
v -0.05866831 -0.03734903 -0.01135410
v -0.05883181 -0.03353749 0.01744165
v -0.06709594 -0.02440347 0.01759948
v -0.07096271 -0.02415193 0.01393984
v -0.05904331 -0.03281189 -0.01415270
v -0.06947564 -0.02904794 -0.00865795
v -0.06763801 -0.02700433 0.01626421
v -0.07095157 -0.02427271 -0.01169833
v -0.06672363 -0.03056521 -0.01291605
v -0.05878963 -0.03541108 -0.01327377
v -0.06249202 -0.03608619 0.00472159
v -0.06065368 -0.03437798 0.01619018
v -0.06583886 -0.02723583 0.01714789
v -0.06897068 -0.02429621 0.01658313
v -0.06917772 -0.02438338 -0.01327258
v -0.07186261 -0.02424481 -0.00871168
v -0.06300018 -0.03154349 -0.01391459
v -0.06255294 -0.03597665 -0.00968927
v -0.06952535 -0.02819060 -0.01055420
v -0.06360026 -0.03403178 -0.01240563
v -0.05876005 -0.03757019 0.01294347
v -0.06739899 -0.03117336 0.01086488
v -0.05960250 -0.03595488 0.01548717
v -0.06708470 -0.02517101 0.01736752
v -0.05965478 -0.03348319 0.01714826
v -0.06871176 -0.02707759 0.01526805
v -0.06964274 -0.02621388 -0.01214739
v -0.06717310 -0.02553151 -0.01400180
v -0.07151159 -0.02515934 -0.00864565
v -0.06105082 -0.03261055 -0.01390426
v -0.06954686 -0.02908441 0.00157056
v -0.06735615 -0.03121267 -0.01134942
v -0.05982067 -0.03516571 -0.01308938
v -0.06374031 -0.03329339 -0.01282570
v -0.06054418 -0.03706313 -0.01020525
v -0.07068877 -0.02592804 0.01284978
v -0.06349089 -0.03500289 0.00881952
v -0.06336784 -0.03401465 0.01367763
v -0.06992719 -0.02435142 0.01558185
v -0.06867229 -0.02512292 0.01642047
v -0.07061812 -0.02515799 -0.01158377
v -0.06507662 -0.02953307 -0.01388298
v -0.07060376 -0.02614490 -0.01049280
v -0.06466061 -0.03377717 -0.01148024
v -0.05947043 -0.03702850 -0.01123760
v -0.06051243 -0.03710054 0.00786886
v -0.07055218 -0.02703255 0.00685916
v -0.06629943 -0.03130625 0.01368706
v -0.06040689 -0.03602992 0.01454270
v -0.06652764 -0.03190108 0.01184432
v -0.06744191 -0.03014869 -0.01234338
v -0.05949136 -0.03721556 0.01289434
v -0.06952057 -0.02788408 0.01180490
v -0.07160808 -0.02496170 0.00997155
v -0.06843178 -0.02787019 0.01484397
v -0.06241351 -0.03509388 0.01285573
vn 0.56588994 0.56435749 0.60105674
vn 0.54545067 -0.63170130 0.55085119
vn 0.55693492 0.56606940 -0.60777376
vn -0.18168579 0.61027610 -0.77107286
vn -0.87558723 0.47611927 0.08159317
vn 0.53833899 -0.75757418 -0.36915104
vn 0.56407306 -0.27056298 0.78013926
vn -0.21364762 0.58270430 0.78409846
vn -0.74612405 0.55773184 0.36364008
vn 0.57120129 -0.13375614 -0.80983849
vn -0.81944218 -0.56723789 -0.08219305
vn -0.52682060 -0.43180613 0.73212261
vn -0.71441771 0.53488569 -0.45111488
vn -0.53951481 -0.42805461 -0.72504691
vn 0.57520273 -0.43395281 -0.69341674
vn -0.58693586 -0.80951265 0.01398487
vn -0.45684734 -0.54665101 0.70175721
vn -0.37309511 -0.34728038 0.86034666
vn -0.49780837 0.54475807 0.67485218
vn -0.44314278 0.57722656 -0.68588189
vn -0.83190869 0.54002386 -0.12767993
vn -0.20532335 -0.26038639 -0.94341997
vn -0.57918269 -0.80285414 -0.14132462
vn -0.82887592 -0.46656682 -0.30867477
vn -0.44614727 -0.65532039 -0.60951440
vn 0.47804167 -0.85407161 0.20503131
vn -0.76010785 -0.63900846 0.11791630
vn -0.39453594 -0.69430780 0.60189539
vn -0.40534019 -0.30226117 0.86274997
vn -0.35006304 -0.41800535 0.83828838
vn -0.68683183 -0.46416832 0.55929402
vn -0.68646729 -0.33367922 -0.64608114
vn -0.33765708 -0.17808883 -0.92426840
vn -0.90727080 -0.40442541 -0.11532468
vn -0.16643356 -0.31972464 -0.93277866
vn -0.80861663 -0.58830216 0.00630160
vn -0.72809167 -0.62719295 -0.27660715
vn -0.28905127 -0.56759889 -0.77089615
vn -0.35170868 -0.46707452 -0.81125976
vn -0.36879602 -0.90703738 -0.20315678
vn -0.84763235 -0.45659127 0.27026617
vn -0.62945632 -0.77293658 0.07971065
vn -0.61053522 -0.69417967 0.38126282
vn -0.76754074 0.23526224 0.59626579
vn -0.57958358 -0.35826772 0.73193381
vn -0.80259300 -0.37637241 -0.46280481
vn -0.24662947 -0.19777246 -0.94871490
vn -0.86635769 -0.41396514 -0.27938723
vn -0.63251901 -0.71100981 -0.30722103
vn -0.39117755 -0.77538499 -0.49574010
vn -0.41356091 -0.90960946 0.03972409
vn -0.85133417 -0.52253412 0.04677844
vn -0.66209710 -0.61187297 0.43271110
vn -0.52764851 -0.74597934 0.40632730
vn -0.70128396 -0.68355697 0.20236272
vn -0.73416153 -0.43540510 -0.52098872
vn -0.48754276 -0.84814837 0.20723514
vn -0.82167196 -0.55815840 0.11538797
vn -0.85985979 -0.50539240 0.07224725
vn -0.68334431 -0.55183059 0.47804137
vn -0.60127537 -0.77075967 0.21070705
f 7//7 3//3 1//1
f 7//7 2//2 6//6
f 8//8 1//1 3//3
f 8//8 7//7 1//1
f 9//9 8//8 3//3
f 10//10 4//4 3//3
f 13//13 9//9 3//3
f 15//15 10//10 3//3
f 15//15 7//7 6//6
f 15//15 3//3 7//7
f 18//18 7//7 8//8
f 18//18 12//12 17//17
f 19//19 8//8 9//9
f 20//20 13//13 3//3
f 20//20 3//3 4//4
f 21//21 5//5 9//9
f 21//21 9//9 13//13
f 22//22 4//4 10//10
f 26//26 6//6 2//2
f 28//28 2//2 7//7
f 28//28 7//7 17//17
f 28//28 26//26 2//2
f 29//29 18//18 8//8
f 29//29 12//12 18//18
f 29//29 8//8 19//19
f 30//30 18//18 17//17
f 30//30 17//17 7//7
f 30//30 7//7 18//18
f 31//31 17//17 12//12
f 32//32 20//20 14//14
f 32//32 13//13 20//20
f 33//33 20//20 4//4
f 33//33 14//14 20//20
f 34//34 5//5 21//21
f 34//34 24//24 11//11
f 35//35 22//22 10//10
f 35//35 10//10 15//15
f 35//35 15//15 22//22
f 36//36 16//16 27//27
f 36//36 34//34 11//11
f 36//36 5//5 34//34
f 37//37 11//11 24//24
f 37//37 36//36 11//11
f 37//37 23//23 16//16
f 37//37 16//16 36//36
f 38//38 15//15 6//6
f 38//38 6//6 25//25
f 38//38 22//22 15//15
f 39//39 25//25 14//14
f 39//39 14//14 22//22
f 39//39 38//38 25//25
f 39//39 22//22 38//38
f 40//40 6//6 26//26
f 40//40 16//16 23//23
f 41//41 9//9 5//5
f 42//42 27//27 16//16
f 44//44 19//19 9//9
f 44//44 41//41 31//31
f 44//44 9//9 41//41
f 45//45 31//31 12//12
f 45//45 44//44 31//31
f 45//45 19//19 44//44
f 45//45 29//29 19//19
f 45//45 12//12 29//29
f 46//46 13//13 32//32
f 47//47 22//22 14//14
f 47//47 14//14 33//33
f 47//47 33//33 4//4
f 47//47 4//4 22//22
f 48//48 34//34 21//21
f 48//48 21//21 13//13
f 48//48 13//13 46//46
f 48//48 46//46 24//24
f 48//48 24//24 34//34
f 49//49 37//37 14//14
f 49//49 14//14 25//25
f 49//49 23//23 37//37
f 49//49 40//40 23//23
f 49//49 25//25 40//40
f 50//50 40//40 25//25
f 50//50 25//25 6//6
f 50//50 6//6 40//40
f 51//51 40//40 26//26
f 51//51 16//16 40//40
f 51//51 42//42 16//16
f 52//52 36//36 27//27
f 52//52 5//5 36//36
f 54//54 26//26 28//28
f 54//54 53//53 43//43
f 54//54 28//28 17//17
f 54//54 17//17 53//53
f 55//55 27//27 42//42
f 55//55 43//43 53//53
f 55//55 53//53 41//41
f 55//55 41//41 27//27
f 56//56 37//37 24//24
f 56//56 24//24 46//46
f 56//56 14//14 37//37
f 56//56 46//46 32//32
f 56//56 32//32 14//14
f 57//57 51//51 26//26
f 57//57 42//42 51//51
f 57//57 26//26 54//54
f 58//58 52//52 27//27
f 58//58 27//27 41//41
f 59//59 41//41 5//5
f 59//59 5//5 52//52
f 59//59 58//58 41//41
f 59//59 52//52 58//58
f 60//60 31//31 41//41
f 60//60 41//41 53//53
f 60//60 53//53 17//17
f 60//60 17//17 31//31
f 61//61 55//55 42//42
f 61//61 43//43 55//55
f 61//61 42//42 57//57
f 61//61 57//57 54//54
f 61//61 54//54 43//43

