# https://github.com/mikedh/trimesh
v 0.03592710 0.03845446 0.01591219
v 0.03644727 0.03019785 0.01314400
v 0.03616987 0.03863463 -0.01686299
v 0.02243458 0.03826650 -0.01575924
v 0.02176858 0.02678809 0.01308669
v 0.02565176 0.04399069 0.01023760
v 0.03602521 0.04184945 0.01387647
v 0.03631631 0.03316818 0.01569082
v 0.02182285 0.02256897 -0.00935763
v 0.02879428 0.04396110 -0.01276068
v 0.02248912 0.03852330 0.01581433
v 0.03645517 0.02725951 -0.00592496
v 0.03649868 0.02823065 0.01005184
v 0.02169490 0.02366149 -0.01083833
v 0.02997273 0.04141661 -0.01553268
v 0.02267072 0.04312772 -0.01181752
v 0.03582772 0.04398311 -0.01193534
v 0.02281881 0.04183481 0.01388327
v 0.02198007 0.03196949 0.01591170
v 0.02184792 0.02567362 0.01136569
v 0.03649557 0.02713689 0.00314323
v 0.02207133 0.02665471 -0.01436551
v 0.03634736 0.03007683 -0.01307139
v 0.03090898 0.03842596 -0.01672464
v 0.02275152 0.04390176 -0.00414587
v 0.02378668 0.04199645 -0.01379824
v 0.03578453 0.04286095 -0.01380336
v 0.03577085 0.04396154 0.01018762
v 0.02978251 0.04400019 0.01123112
v 0.02464321 0.04122173 0.01463559
v 0.02190203 0.02784072 0.01385020
v 0.02213117 0.03272337 -0.01572972
v 0.02173725 0.02457990 0.00723659
v 0.03632333 0.03326724 -0.01582686
v 0.03634779 0.02840464 -0.00905985
v 0.02275249 0.04391395 -0.00207644
v 0.02391246 0.04379723 -0.01126564
v 0.02263359 0.04041006 -0.01470904
v 0.02486633 0.04374412 -0.01193177
v 0.02688273 0.04314037 -0.01346824
v 0.03162869 0.04395087 -0.01289328
v 0.03596665 0.04104072 -0.01564464
v 0.02466742 0.04279926 0.01304009
v 0.03484546 0.04291882 0.01274920
v 0.02365104 0.03925284 0.01568874
v 0.03492948 0.04129871 0.01459775
v 0.03100172 0.03782718 -0.01677080
v 0.02178300 0.02264903 -0.00641957
v 0.03619251 0.03596313 -0.01677409
v 0.02276714 0.04282675 0.01236308
v 0.02390631 0.04290676 -0.01269671
v 0.03383003 0.04386418 0.01118485
v 0.03486682 0.03926075 0.01565641
v 0.02368652 0.04391232 0.00737962
v 0.02467076 0.04396140 0.00944532
vn 0.60436850 0.16954598 0.77845544
vn 0.74428717 -0.48684851 0.45718174
vn 0.65138428 0.18160597 -0.73669382
vn -0.70042722 0.18389659 -0.68962581
vn -0.62235808 -0.57037371 0.53604501
vn -0.08525789 0.97997429 0.17994858
vn 0.70937947 0.51739049 0.47863123
vn 0.66869446 -0.22425291 0.70891350
vn -0.46475522 -0.84956070 -0.24949790
vn -0.04475633 0.92719678 -0.37189112
vn -0.66804773 0.19559581 0.71795160
vn 0.79195175 -0.60113529 -0.10699901
vn 0.74569864 -0.61980155 0.24449863
vn -0.62690471 -0.60476568 -0.49117101
vn -0.06132973 0.55078612 -0.83239012
vn -0.75537511 0.59309130 -0.27865955
vn 0.64509536 0.74384934 -0.17475736
vn -0.61888543 0.55616052 0.55467676
vn -0.65507323 -0.15057188 0.74041014
vn -0.51450971 -0.78518475 0.34462250
vn 0.77687842 -0.62655343 0.06237559
vn -0.53425718 -0.47168816 -0.70148381
vn 0.75187470 -0.51257724 -0.41466735
vn -0.07293846 0.20834497 -0.97533192
vn -0.67531870 0.73747382 -0.00877567
vn -0.27267210 0.67069412 -0.68979658
vn 0.56540127 0.64997161 -0.50779752
vn 0.64017625 0.75736133 0.12875632
vn -0.00284069 0.95538245 0.29535792
vn -0.05283495 0.59446713 0.80238227
vn -0.45403579 -0.45148898 0.76812057
vn -0.70460668 -0.06932290 -0.70620377
vn -0.62291062 -0.76734494 0.15219760
vn 0.71471460 -0.30618465 -0.62883544
vn 0.60620811 -0.73691761 -0.29910562
vn -0.68720420 0.72646235 0.00168645
vn -0.24206006 0.95028897 -0.19585148
vn -0.67490637 0.42898517 -0.60039414
vn -0.17237410 0.89443127 -0.41264981
vn -0.14659932 0.74113119 -0.65515891
vn 0.01359953 0.91505601 -0.40309744
vn 0.64059054 0.47625807 -0.60234709
vn -0.07501602 0.83434493 0.54611458
vn 0.14603010 0.82745956 0.54220465
vn -0.08947630 0.37641971 0.92211832
vn 0.11030636 0.59530851 0.79588962
vn -0.06026913 -0.01659963 -0.99804413
vn -0.57255648 -0.81807801 0.05410585
vn 0.62807974 -0.11454939 -0.76967154
vn -0.70685695 0.65492909 0.26724734
vn -0.24887933 0.77209238 -0.58474989
vn 0.06919560 0.93646878 0.34385780
vn 0.04838419 0.39931862 0.91553460
vn -0.34992079 0.93562566 0.04647639
vn -0.18086384 0.97809926 0.10300536
f 7//7 2//2 3//3
f 8//8 5//5 2//2
f 8//8 7//7 1//1
f 8//8 2//2 7//7
f 17//17 7//7 3//3
f 17//17 10//10 6//6
f 19//19 8//8 1//1
f 19//19 1//1 11//11
f 19//19 14//14 5//5
f 20//20 13//13 2//2
f 20//20 2//2 5//5
f 21//21 9//9 12//12
f 23//23 9//9 14//14
f 23//23 14//14 22//22
f 24//24 15//15 3//3
f 24//24 4//4 15//15
f 28//28 7//7 17//17
f 29//29 28//28 17//17
f 29//29 17//17 6//6
f 31//31 19//19 5//5
f 31//31 5//5 8//8
f 31//31 8//8 19//19
f 32//32 19//19 16//16
f 32//32 16//16 4//4
f 32//32 14//14 19//19
f 32//32 22//22 14//14
f 33//33 21//21 13//13
f 33//33 13//13 20//20
f 33//33 20//20 5//5
f 33//33 5//5 14//14
f 34//34 21//21 12//12
f 34//34 13//13 21//21
f 34//34 3//3 2//2
f 34//34 2//2 13//13
f 34//34 12//12 23//23
f 34//34 23//23 22//22
f 35//35 23//23 12//12
f 35//35 12//12 9//9
f 35//35 9//9 23//23
f 36//36 6//6 10//10
f 36//36 10//10 25//25
f 36//36 25//25 16//16
f 36//36 16//16 19//19
f 37//37 25//25 10//10
f 37//37 16//16 25//25
f 38//38 26//26 15//15
f 38//38 15//15 4//4
f 38//38 4//4 16//16
f 38//38 16//16 26//26
f 39//39 37//37 10//10
f 39//39 16//16 37//37
f 40//40 10//10 15//15
f 40//40 15//15 26//26
f 40//40 39//39 10//10
f 41//41 15//15 10//10
f 41//41 10//10 17//17
f 41//41 17//17 27//27
f 42//42 27//27 17//17
f 42//42 17//17 3//3
f 42//42 3//3 15//15
f 42//42 41//41 27//27
f 42//42 15//15 41//41
f 43//43 18//18 30//30
f 43//43 29//29 6//6
f 44//44 7//7 28//28
f 44//44 29//29 43//43
f 45//45 30//30 18//18
f 45//45 18//18 11//11
f 45//45 11//11 1//1
f 46//46 1//1 7//7
f 46//46 43//43 30//30
f 46//46 44//44 43//43
f 46//46 7//7 44//44
f 46//46 30//30 45//45
f 47//47 32//32 4//4
f 47//47 4//4 24//24
f 47//47 24//24 3//3
f 48//48 33//33 14//14
f 48//48 14//14 9//9
f 48//48 9//9 21//21
f 48//48 21//21 33//33
f 49//49 34//34 22//22
f 49//49 22//22 32//32
f 49//49 32//32 47//47
f 49//49 47//47 3//3
f 49//49 3//3 34//34
f 50//50 43//43 6//6
f 50//50 18//18 43//43
f 50//50 11//11 18//18
f 50//50 36//36 19//19
f 50//50 19//19 11//11
f 51//51 26//26 16//16
f 51//51 16//16 39//39
f 51//51 40//40 26//26
f 51//51 39//39 40//40
f 52//52 44//44 28//28
f 52//52 28//28 29//29
f 52//52 29//29 44//44
f 53//53 46//46 45//45
f 53//53 45//45 1//1
f 53//53 1//1 46//46
f 54//54 36//36 50//50
f 55//55 54//54 50//50
f 55//55 50//50 6//6
f 55//55 6//6 36//36
f 55//55 36//36 54//54

