# https://github.com/mikedh/trimesh
v -0.06402087 0.01677373 0.02191386
v -0.05770372 -0.01431033 0.01746949
v -0.06775579 0.01673194 0.01649708
v -0.07491993 0.01669744 0.01650441
v -0.07017591 -0.01343780 0.02261415
v -0.06019265 -0.01011640 0.01600521
v -0.06313763 0.01663492 0.02104557
v -0.06082646 -0.01634580 0.02301777
v -0.07163408 0.01020242 0.02254062
v -0.07268840 -0.01628261 0.01662845
v -0.05955866 -0.01618556 0.02231579
v -0.07156357 0.01660723 0.02176358
v -0.07607627 -0.00011739 0.01922637
v -0.06684523 0.01553788 0.02263752
v -0.07108337 -0.01039241 0.02272038
v -0.07642134 -0.00009753 0.01646212
v -0.06912295 -0.01558755 0.02254613
v -0.07502619 0.01227002 0.01965759
v -0.06863818 0.01558519 0.02271974
v -0.07340479 -0.00012874 0.02197724
v -0.07113712 -0.01564915 0.02095357
v -0.07413332 0.01643454 0.01971317
v -0.07594932 0.00901343 0.01830314
v -0.07402995 0.01222617 0.02070652
v -0.06971455 0.01449351 0.02265212
v -0.07093161 -0.01436872 0.02169924
v -0.07491717 0.01542496 0.01815317
v -0.07600881 0.00403057 0.01888841
v -0.07610578 0.00908458 0.01662595
v -0.07238276 0.01541050 0.02148200
v -0.07330375 0.00927350 0.02156458
v -0.07511319 0.01550468 0.01653390
v -0.07307081 0.01644192 0.02078660
vn 0.34435139 0.69887122 0.62689803
vn 0.80728995 -0.41978165 -0.41480875
vn 0.23753628 0.66942946 -0.70387550
vn -0.57547655 0.62901585 -0.52265266
vn -0.36574619 -0.16372478 0.91620081
vn 0.37649426 0.01597333 -0.92628124
vn 0.78509694 0.61923074 0.01326978
vn 0.21649302 -0.67798453 0.70247259
vn -0.31956343 0.04852088 0.94632179
vn -0.57784226 -0.67053497 -0.46527538
vn 0.66055820 -0.63735580 0.39678767
vn -0.28083957 0.71487511 0.64037701
vn -0.90506782 -0.07789438 0.41807260
vn 0.10265813 0.20204624 0.97398081
vn -0.45143529 -0.10415636 0.88620406
vn -0.77685872 -0.07496201 -0.62519695
vn -0.23323238 -0.63241282 0.73868578
vn -0.85417682 0.12398149 0.50498570
vn -0.05658371 0.32352743 0.94452543
vn -0.54564445 -0.02221585 0.83772226
vn -0.57969432 -0.67810642 0.45180325
vn -0.63775556 0.65096431 0.41171994
vn -0.96141547 0.08475898 0.26171779
vn -0.66089924 0.09293654 0.74469792
vn -0.19225893 0.08520294 0.97763846
vn -0.69172105 -0.25361982 0.67616491
vn -0.94757071 0.21940169 0.23232016
vn -0.94580683 0.04215725 0.32198169
vn -0.83166176 0.07975648 -0.54952490
vn -0.53825189 0.12898843 0.83285466
vn -0.60785523 0.05338832 0.79225104
vn -0.95891033 0.14877839 -0.24156981
vn -0.53240199 0.59480441 0.60229216
f 1//1 3//3 4//4
f 6//6 4//4 3//3
f 7//7 3//3 1//1
f 7//7 6//6 3//3
f 7//7 2//2 6//6
f 10//10 6//6 2//2
f 11//11 7//7 1//1
f 11//11 1//1 8//8
f 11//11 2//2 7//7
f 11//11 10//10 2//2
f 11//11 8//8 10//10
f 12//12 1//1 4//4
f 14//14 8//8 1//1
f 15//15 5//5 8//8
f 16//16 4//4 6//6
f 16//16 6//6 10//10
f 16//16 10//10 13//13
f 17//17 10//10 8//8
f 17//17 8//8 5//5
f 19//19 15//15 8//8
f 19//19 8//8 14//14
f 19//19 14//14 1//1
f 19//19 1//1 12//12
f 20//20 15//15 9//9
f 20//20 13//13 15//15
f 21//21 13//13 10//10
f 21//21 10//10 17//17
f 22//22 12//12 4//4
f 24//24 22//22 18//18
f 24//24 18//18 13//13
f 24//24 13//13 20//20
f 25//25 19//19 12//12
f 25//25 12//12 9//9
f 25//25 9//9 15//15
f 25//25 15//15 19//19
f 26//26 15//15 13//13
f 26//26 13//13 21//21
f 26//26 5//5 15//15
f 26//26 21//21 17//17
f 26//26 17//17 5//5
f 27//27 22//22 4//4
f 27//27 18//18 22//22
f 27//27 23//23 18//18
f 28//28 13//13 18//18
f 28//28 18//18 23//23
f 28//28 23//23 16//16
f 28//28 16//16 13//13
f 29//29 4//4 16//16
f 29//29 16//16 23//23
f 30//30 9//9 12//12
f 31//31 24//24 20//20
f 31//31 20//20 9//9
f 31//31 30//30 24//24
f 31//31 9//9 30//30
f 32//32 29//29 23//23
f 32//32 4//4 29//29
f 32//32 27//27 4//4
f 32//32 23//23 27//27
f 33//33 30//30 12//12
f 33//33 12//12 22//22
f 33//33 22//22 24//24
f 33//33 24//24 30//30

