# https://github.com/mikedh/trimesh
v -0.06529827 0.03393288 0.01602387
v -0.06365583 0.00587975 0.01065828
v -0.05954828 0.03119611 -0.01169463
v -0.06558783 0.03207900 -0.01530849
v -0.07642464 0.00611138 0.01086810
v -0.06830939 0.00604463 -0.01453889
v -0.06492045 0.03659649 -0.01081432
v -0.05934667 0.03143955 0.01078806
v -0.06781055 0.00606590 0.01708628
v -0.06249206 0.00603885 -0.00267358
v -0.06228528 0.02968363 -0.01429122
v -0.07494725 0.01958465 -0.01078953
v -0.06352511 0.00577108 -0.00670514
v -0.06291193 0.03459740 -0.01342884
v -0.06403418 0.03642842 0.01170162
v -0.07307411 0.02265083 0.01519259
v -0.06308492 0.02811620 0.01592433
v -0.06257185 0.00604095 0.00128449
v -0.05946089 0.02530654 -0.00273698
v -0.06415087 0.02951171 -0.01525729
v -0.06551642 0.00605931 -0.01259958
v -0.07612177 0.00610723 -0.01009417
v -0.07339036 0.01150612 -0.01421417
v -0.07179695 0.03388630 -0.00986542
v -0.05945932 0.02858327 -0.01018794
v -0.06892668 0.03596157 -0.01218858
v -0.06217232 0.03273425 -0.01426857
v -0.06142799 0.03370723 0.01325811
v -0.06049652 0.03468156 -0.00172076
v -0.07023720 0.03001854 0.01610228
v -0.07511649 0.02171358 0.01093989
v -0.06427602 0.03285156 0.01596934
v -0.06618621 0.00607417 0.01649260
v -0.05948405 0.02520390 0.00025260
v -0.06662487 0.02613760 -0.01539520
v -0.06031848 0.02863359 -0.01222512
v -0.06647873 0.00592172 -0.01345622
v -0.07514190 0.00611991 -0.01259705
v -0.06265873 0.01288845 -0.00952846
v -0.06372211 0.03390154 -0.01423826
v -0.06588753 0.03642285 -0.01156872
v -0.07021984 0.03016096 -0.01415885
v -0.06983024 0.03565541 0.01270725
v -0.06018901 0.03280016 -0.01257231
v -0.06404875 0.03017401 -0.01522804
v -0.06519855 0.03609641 0.01493959
v -0.06043395 0.03182823 0.01357393
v -0.06286114 0.03640965 0.00149400
v -0.06128163 0.03541203 0.00754225
v -0.05944469 0.03280111 0.00752917
v -0.07156687 0.02281613 0.01616956
v -0.07413662 0.02264344 0.01411916
v -0.07608380 0.01651448 -0.00380784
v -0.06337969 0.02609133 0.01598734
v -0.06563857 0.00600275 0.01556436
v -0.06517905 0.02638092 -0.01530608
v -0.07261287 0.00607351 -0.01436301
v -0.05962459 0.02962644 -0.01149659
v -0.07485303 0.01746703 -0.01169549
v -0.06738816 0.03372637 -0.01411404
v -0.06487424 0.03197372 -0.01519373
v -0.06916849 0.03627959 -0.01078875
v -0.06366746 0.03549816 -0.01241500
v -0.07290017 0.02981288 -0.01159643
vn 0.05789167 0.33223938 0.94141678
vn 0.64771373 -0.74132716 0.17578670
vn 0.93836252 0.08506860 -0.33502106
vn -0.06182073 0.26608260 -0.96196582
vn -0.72196482 -0.60983228 0.32691188
vn 0.15166019 -0.64324469 -0.75049014
vn 0.23874315 0.95625726 -0.16903777
vn 0.96336318 0.15817894 0.21658901
vn -0.09418008 -0.62558573 0.77444988
vn 0.74979913 -0.65924374 -0.05655934
vn 0.58280293 -0.07664154 -0.80899123
vn -0.95730297 0.14477042 -0.25022499
vn 0.60100035 -0.78024994 -0.17322996
vn 0.38716405 0.72142448 -0.57415217
vn 0.27837299 0.94874121 0.14966160
vn -0.63563993 0.04312090 0.77078043
vn 0.46121377 -0.00379512 0.88728093
vn 0.73379887 -0.67797269 0.04350006
vn 0.99539920 -0.09325312 -0.02200645
vn 0.27278257 -0.03593887 -0.96140422
vn 0.65386481 -0.61607492 -0.43921805
vn -0.74953410 -0.64329561 -0.15610697
vn -0.51402455 0.03569165 -0.85703260
vn -0.83869718 0.50951264 -0.19231202
vn 0.98562762 -0.10037003 -0.13588248
vn -0.39108041 0.73264034 -0.55704061
vn 0.48965236 0.25697898 -0.83318807
vn 0.69579473 0.56969998 0.43739184
vn 0.76832641 0.63794805 -0.05193076
vn -0.48441464 0.25113215 0.83801856
vn -0.97129771 0.19762331 0.13238503
vn 0.36547849 0.19784739 0.90955038
vn 0.46605385 -0.62641491 0.62481852
vn 0.99399498 -0.10535228 0.02957834
vn -0.09969828 0.00895610 -0.99497741
vn 0.75697042 -0.14165982 -0.63790930
vn 0.39394807 -0.73281660 -0.55478352
vn -0.62834831 -0.62800899 -0.45911122
vn 0.92944741 -0.21081955 -0.30279139
vn 0.14417300 0.55079412 -0.82209487
vn 0.01397709 0.90706188 -0.42076524
vn -0.50732612 0.20668293 -0.83660168
vn -0.59743650 0.73521362 0.32020394
vn 0.79937709 0.39945419 -0.44881245
vn 0.28756744 0.03166480 -0.95723681
vn 0.11017291 0.78944750 0.60384979
vn 0.81063203 0.19949073 0.55052625
vn 0.33245001 0.94305757 -0.01092767
vn 0.64870470 0.75529165 0.09336347
vn 0.93596612 0.34679081 0.06085686
vn -0.36382087 0.02520129 0.93112796
vn -0.86335761 0.15797446 0.47922616
vn -0.99249551 0.11592831 -0.03890102
vn 0.52942254 -0.05082449 0.84683449
vn 0.58782284 -0.74247982 0.32122893
vn 0.17327831 -0.04982562 -0.98361173
vn -0.24427848 -0.65823592 -0.71207689
vn 0.91018852 -0.12125372 -0.39604848
vn -0.86397995 0.09728274 -0.49403919
vn -0.24930454 0.47257388 -0.84529354
vn 0.21296603 0.21235977 -0.95370268
vn -0.41820741 0.89804283 -0.13646110
vn 0.36889546 0.84206040 -0.39351038
vn -0.87762127 0.25989659 -0.40278365
f 9//9 5//5 2//2
f 13//13 2//2 5//5
f 16//16 5//5 9//9
f 18//18 8//8 2//2
f 18//18 13//13 10//10
f 18//18 2//2 13//13
f 20//20 11//11 6//6
f 22//22 13//13 5//5
f 25//25 19//19 10//10
f 25//25 3//3 8//8
f 25//25 8//8 19//19
f 30//30 9//9 1//1
f 32//32 1//1 9//9
f 32//32 9//9 17//17
f 34//34 18//18 10//10
f 34//34 10//10 19//19
f 34//34 19//19 8//8
f 34//34 8//8 18//18
f 35//35 4//4 20//20
f 36//36 21//21 11//11
f 37//37 6//6 11//11
f 37//37 11//11 21//21
f 37//37 21//21 13//13
f 39//39 25//25 10//10
f 39//39 10//10 13//13
f 39//39 13//13 21//21
f 40//40 14//14 27//27
f 41//41 40//40 26//26
f 41//41 14//14 40//40
f 42//42 35//35 23//23
f 42//42 4//4 35//35
f 43//43 24//24 31//31
f 44//44 27//27 14//14
f 44//44 11//11 27//27
f 44//44 36//36 11//11
f 44//44 3//3 36//36
f 44//44 29//29 3//3
f 45//45 27//27 11//11
f 45//45 11//11 20//20
f 45//45 20//20 4//4
f 46//46 28//28 15//15
f 46//46 1//1 32//32
f 46//46 15//15 43//43
f 46//46 43//43 30//30
f 46//46 30//30 1//1
f 47//47 8//8 28//28
f 47//47 32//32 17//17
f 47//47 46//46 32//32
f 47//47 28//28 46//46
f 48//48 29//29 7//7
f 48//48 7//7 15//15
f 49//49 15//15 28//28
f 49//49 48//48 15//15
f 49//49 29//29 48//48
f 50//50 8//8 3//3
f 50//50 3//3 29//29
f 50//50 29//29 49//49
f 50//50 49//49 28//28
f 50//50 28//28 8//8
f 51//51 30//30 16//16
f 51//51 16//16 9//9
f 51//51 9//9 30//30
f 52//52 31//31 5//5
f 52//52 5//5 16//16
f 52//52 43//43 31//31
f 52//52 16//16 30//30
f 52//52 30//30 43//43
f 53//53 22//22 5//5
f 53//53 5//5 31//31
f 53//53 12//12 22//22
f 54//54 17//17 9//9
f 54//54 9//9 33//33
f 54//54 47//47 17//17
f 54//54 33//33 47//47
f 55//55 33//33 9//9
f 55//55 9//9 2//2
f 55//55 47//47 33//33
f 55//55 2//2 8//8
f 55//55 8//8 47//47
f 56//56 35//35 20//20
f 56//56 20//20 6//6
f 56//56 6//6 35//35
f 57//57 35//35 6//6
f 57//57 23//23 35//35
f 57//57 38//38 23//23
f 57//57 6//6 37//37
f 57//57 22//22 38//38
f 57//57 37//37 13//13
f 57//57 13//13 22//22
f 58//58 36//36 3//3
f 58//58 3//3 25//25
f 58//58 25//25 39//39
f 58//58 39//39 21//21
f 58//58 21//21 36//36
f 59//59 38//38 22//22
f 59//59 22//22 12//12
f 59//59 23//23 38//38
f 60//60 40//40 4//4
f 60//60 26//26 40//40
f 60//60 42//42 26//26
f 60//60 4//4 42//42
f 61//61 40//40 27//27
f 61//61 4//4 40//40
f 61//61 45//45 4//4
f 61//61 27//27 45//45
f 62//62 41//41 26//26
f 62//62 7//7 41//41
f 62//62 26//26 24//24
f 62//62 24//24 43//43
f 62//62 43//43 15//15
f 62//62 15//15 7//7
f 63//63 41//41 7//7
f 63//63 14//14 41//41
f 63//63 44//44 14//14
f 63//63 7//7 29//29
f 63//63 29//29 44//44
f 64//64 24//24 26//26
f 64//64 26//26 42//42
f 64//64 12//12 53//53
f 64//64 53//53 31//31
f 64//64 31//31 24//24
f 64//64 59//59 12//12
f 64//64 42//42 23//23
f 64//64 23//23 59//59

