# https://github.com/mikedh/trimesh
v 0.02406724 -0.05384465 0.01945247
v 0.02366185 -0.07188768 0.01962109
v 0.02347718 -0.07157348 -0.02422100
v -0.00506212 -0.06736356 -0.02338003
v -0.01878952 -0.06488514 0.01897959
v -0.01877642 -0.08021507 0.01259919
v 0.02437940 -0.04590151 -0.00975675
v 0.02387446 -0.06868100 0.02024243
v 0.01593086 -0.08024645 -0.01602351
v -0.01890918 -0.06308278 0.00662309
v -0.01790500 -0.07936389 0.01879634
v 0.02475243 -0.05379036 -0.02235843
v 0.02440115 -0.04469480 -0.00044964
v 0.02104900 -0.07851378 -0.01148024
v -0.00502104 -0.07939657 -0.02335918
v -0.01907207 -0.07948734 0.00709596
v -0.00494214 -0.06316932 -0.01784373
v -0.01815879 -0.07991826 0.01776655
v 0.02217267 -0.07107699 0.02018507
v 0.02397226 -0.06263474 -0.02336212
v 0.02429477 -0.05007592 0.01414902
v 0.02446653 -0.04457326 -0.00392225
v -0.01909799 -0.06376573 0.01224983
v 0.02087316 -0.07851578 -0.01525079
v 0.02276710 -0.07543500 0.01036713
v 0.00297500 -0.08015000 -0.01949400
v 0.01092588 -0.07855948 -0.02199866
v -0.00518836 -0.07989054 -0.01952847
v -0.00506301 -0.06639995 -0.02260448
v 0.00702700 -0.08028014 0.01124704
v 0.00332697 -0.07897632 0.01868160
v 0.02358404 -0.07077246 0.02023293
v 0.02413903 -0.04623833 0.00360458
v 0.01593881 -0.08014359 -0.01733600
v 0.02197769 -0.07671329 -0.01612218
v 0.00947710 -0.07756908 -0.02352117
v -0.01274716 -0.08009475 0.01850315
v 0.02006222 -0.07840129 0.00638392
v 0.01380875 -0.07893541 -0.02028175
v 0.00365748 -0.07917856 -0.02324609
v 0.00552453 -0.08004594 0.01438742
v 0.02126372 -0.07736596 0.00863961
v 0.01175400 -0.07897400 0.01697600
vn 0.55394909 0.43378925 0.71061051
vn 0.71568727 -0.48580313 0.50178388
vn 0.65484884 -0.26825061 -0.70655120
vn -0.53229115 0.22233764 -0.81684277
vn -0.65423231 0.40030434 0.64166699
vn -0.69789073 -0.71435215 0.05147362
vn 0.45746622 0.83202066 -0.31379337
vn 0.69476973 -0.01828943 0.71899966
vn 0.17068567 -0.98480658 -0.03197486
vn -0.82667608 0.53971349 -0.15911004
vn -0.51979038 -0.40350055 0.75299752
vn 0.55200766 0.49231111 -0.67299132
vn 0.51770395 0.84409116 0.13961639
vn 0.64061813 -0.76785391 0.00296332
vn -0.44473632 -0.55992597 -0.69906546
vn -0.81162375 -0.55204541 -0.19108310
vn -0.50845249 0.75924296 -0.40623416
vn -0.65688826 -0.70095823 0.27776858
vn -0.00861195 -0.11678035 0.99312043
vn 0.23001962 0.08575131 -0.96940068
vn 0.58729188 0.71726485 0.37499251
vn 0.51251465 0.85453833 -0.08421985
vn -0.82707669 0.55460668 0.09140886
vn 0.59895288 -0.78157811 -0.17433046
vn 0.86078673 -0.50134423 0.08775060
vn 0.00715249 -0.99179537 -0.12763534
vn 0.20838598 -0.78510758 -0.58325069
vn -0.14464685 -0.98449959 -0.09918596
vn -0.56331728 0.58542949 -0.58304885
vn 0.07982955 -0.99513643 0.05771246
vn 0.05202115 -0.66724166 0.74302246
vn 0.51071467 -0.19830144 0.83656863
vn -0.23583195 0.91278885 0.33346636
vn 0.24803634 -0.92139106 -0.29919306
vn 0.87924470 -0.46481243 -0.10429846
vn 0.11617542 -0.46611912 -0.87706114
vn -0.00019750 -0.80250939 0.59663946
vn 0.39446951 -0.91503997 0.08423574
vn 0.25391463 -0.79350023 -0.55306848
vn 0.04541149 -0.70395539 -0.70879095
vn 0.06023027 -0.98458262 0.16422354
vn 0.58698803 -0.79348640 0.16069968
vn 0.21517792 -0.85266459 0.47608987
f 8//8 1//1 5//5
f 12//12 8//8 2//2
f 12//12 2//2 3//3
f 15//15 4//4 3//3
f 16//16 6//6 5//5
f 16//16 10//10 4//4
f 16//16 4//4 15//15
f 17//17 10//10 7//7
f 17//17 7//7 12//12
f 18//18 11//11 5//5
f 18//18 5//5 6//6
f 19//19 5//5 11//11
f 20//20 12//12 3//3
f 20//20 3//3 4//4
f 20//20 4//4 12//12
f 21//21 1//1 8//8
f 21//21 8//8 12//12
f 21//21 5//5 1//1
f 22//22 12//12 7//7
f 22//22 7//7 10//10
f 22//22 10//10 13//13
f 22//22 21//21 12//12
f 22//22 13//13 21//21
f 23//23 13//13 10//10
f 23//23 5//5 13//13
f 23//23 16//16 5//5
f 23//23 10//10 16//16
f 24//24 14//14 9//9
f 25//25 3//3 2//2
f 26//26 9//9 6//6
f 28//28 16//16 15//15
f 28//28 6//6 16//16
f 28//28 26//26 6//6
f 28//28 15//15 26//26
f 29//29 4//4 10//10
f 29//29 10//10 17//17
f 29//29 17//17 12//12
f 29//29 12//12 4//4
f 30//30 6//6 9//9
f 31//31 19//19 11//11
f 32//32 2//2 8//8
f 32//32 8//8 5//5
f 32//32 5//5 19//19
f 32//32 31//31 2//2
f 32//32 19//19 31//31
f 33//33 21//21 13//13
f 33//33 13//13 5//5
f 33//33 5//5 21//21
f 34//34 24//24 9//9
f 34//34 3//3 24//24
f 34//34 9//9 26//26
f 35//35 24//24 3//3
f 35//35 14//14 24//24
f 35//35 25//25 14//14
f 35//35 3//3 25//25
f 36//36 15//15 3//3
f 36//36 3//3 27//27
f 37//37 18//18 6//6
f 37//37 6//6 30//30
f 37//37 31//31 11//11
f 37//37 11//11 18//18
f 38//38 30//30 9//9
f 38//38 9//9 14//14
f 39//39 34//34 27//27
f 39//39 27//27 3//3
f 39//39 3//3 34//34
f 40//40 34//34 26//26
f 40//40 26//26 15//15
f 40//40 27//27 34//34
f 40//40 36//36 27//27
f 40//40 15//15 36//36
f 41//41 37//37 30//30
f 42//42 38//38 14//14
f 42//42 14//14 25//25
f 42//42 25//25 2//2
f 43//43 31//31 37//37
f 43//43 37//37 41//41
f 43//43 38//38 42//42
f 43//43 41//41 30//30
f 43//43 30//30 38//38
f 43//43 42//42 2//2
f 43//43 2//2 31//31

