# https://github.com/mikedh/trimesh
v -0.04901883 -0.02956405 0.01895375
v -0.03349400 -0.07354831 0.01942018
v -0.03474892 -0.05374315 -0.01880149
v -0.06086823 -0.03508141 -0.02494778
v -0.06225442 -0.04825551 0.01657538
v -0.04654997 -0.07028573 -0.02422100
v -0.04696520 -0.02606673 -0.01885611
v -0.03487473 -0.05464928 0.01900219
v -0.05443100 -0.03501890 0.02024588
v -0.03330510 -0.07674754 -0.01889836
v -0.04715066 -0.03345257 -0.02491329
v -0.06240647 -0.05246905 -0.01692366
v -0.05492957 -0.06234009 0.01176424
v -0.06150746 -0.02743779 0.01052846
v -0.03297217 -0.07678600 -0.00849830
v -0.04761719 -0.02675437 0.01235429
v -0.04603096 -0.02772214 -0.01703014
v -0.05300772 -0.06193048 0.01900200
v -0.04672326 -0.04436800 0.02033936
v -0.04697266 -0.06792977 -0.02502367
v -0.03906969 -0.05089719 -0.02414552
v -0.04757635 -0.02950212 -0.02408747
v -0.05943898 -0.05921089 -0.01611996
v -0.06017556 -0.02618526 -0.01789032
v -0.05397765 -0.02828920 0.01877300
v -0.06263177 -0.02903042 -0.01936989
v -0.04671017 -0.07127539 -0.01914907
v -0.04884472 -0.02725349 0.01669670
v -0.04606270 -0.02784187 -0.01300596
v -0.06118400 -0.04528248 0.01864493
v -0.04497600 -0.07127945 0.01168554
v -0.05951263 -0.05794417 0.01042167
v -0.05340063 -0.03516091 0.02023277
v -0.04886982 -0.04565028 0.02025171
v -0.04195087 -0.05000565 -0.02500025
v -0.06110757 -0.05105641 -0.02384370
v -0.03794700 -0.05107511 -0.02297388
v -0.04751523 -0.02680900 -0.02141717
v -0.05182209 -0.03066087 -0.02493516
v -0.05049006 -0.02610627 0.01402160
v -0.06253500 -0.05247300 -0.00787400
v -0.06238145 -0.02818624 0.01056246
v -0.05037800 -0.06839950 -0.02114727
v -0.04934721 -0.02736864 0.01765100
v -0.04775105 -0.02815691 0.01528186
v -0.04785707 -0.02613400 0.01063822
v -0.05467692 -0.03778904 0.02009442
v -0.06094490 -0.05039098 0.01758038
v -0.06118400 -0.03491300 0.01885000
v -0.04082345 -0.07143427 0.01899402
v -0.03349400 -0.07475900 0.01704900
v -0.05919411 -0.05113283 -0.02470913
v -0.06245200 -0.03288700 -0.02354600
v -0.05310176 -0.06299830 -0.02418737
v -0.06118400 -0.05191997 -0.02284367
v -0.05062719 -0.02617721 -0.02145642
v -0.04902682 -0.03061501 -0.02493238
v -0.05893757 -0.02622989 0.00515231
v -0.05578100 -0.02627666 0.01356805
v -0.06092219 -0.05534490 0.01061858
v -0.06059634 -0.05702616 -0.01631782
v -0.06030005 -0.02625076 -0.01311857
v -0.05430724 -0.02735581 0.01765112
v -0.06245270 -0.03655903 0.01765100
vn 0.39895207 0.37335955 0.83752009
vn 0.54731409 -0.47706457 0.68764575
vn 0.94080178 0.20355419 -0.27103082
vn -0.35869181 0.10990024 -0.92696393
vn -0.93156836 -0.17079513 0.32095080
vn -0.24570763 -0.66451190 -0.70572778
vn 0.54763243 0.82381593 -0.14637633
vn 0.75882969 0.19740882 0.62065067
vn -0.09594803 0.10232557 0.99011285
vn 0.53267709 -0.72851564 -0.43072042
vn 0.31238680 0.13338310 -0.94054422
vn -0.97070641 -0.21462294 -0.10800954
vn -0.68708248 -0.71356352 0.13691157
vn -0.49737236 0.83202695 0.24566621
vn 0.58765008 -0.80892847 0.01738130
vn 0.74398053 0.64323998 0.18092900
vn 0.89601368 0.44330442 -0.02531160
vn -0.48970357 -0.45669022 0.74271425
vn 0.09410388 0.04680763 0.99446142
vn -0.03753637 -0.22720551 -0.97312316
vn 0.53605546 0.08500560 -0.83989201
vn 0.47778162 0.49293715 -0.72714351
vn -0.80453137 -0.57934126 -0.13074011
vn -0.39517699 0.87787824 -0.27049020
vn -0.18368892 0.52505504 0.83100878
vn -0.83319110 0.46112246 -0.30521904
vn -0.49397313 -0.86698637 -0.06576609
vn 0.58682695 0.73354465 0.34285037
vn 0.88549945 0.46395857 0.02516296
vn -0.55021381 -0.07963790 0.83121752
vn -0.51659865 -0.84428542 0.14250605
vn -0.79832922 -0.57955071 0.16368086
vn 0.06085702 0.10706163 0.99238814
vn -0.05594342 -0.04098033 0.99759258
vn 0.17416200 0.01866144 -0.98454017
vn -0.76210961 -0.19483826 -0.61743583
vn 0.79169329 0.20058950 -0.57704904
vn 0.52805522 0.69955032 -0.48144266
vn -0.08515713 0.36669613 -0.92643522
vn 0.08898117 0.98020275 0.17687545
vn -0.97719539 -0.21223048 0.00688395
vn -0.85396006 0.47048178 0.22225911
vn -0.67672852 -0.70555265 -0.21031873
vn 0.37041177 0.73031198 0.57396823
vn 0.82812983 0.47451782 0.29838536
vn 0.52870678 0.84694557 0.05614569
vn -0.13293185 -0.04479365 0.99011244
vn -0.71498565 -0.32833602 0.61724466
vn -0.56053092 0.26314956 0.78521169
vn -0.33313554 -0.62092624 0.70955713
vn 0.51784631 -0.82519041 0.22560140
vn -0.26295796 -0.10897933 -0.95863268
vn -0.74875480 0.30819878 -0.58683879
vn -0.57368754 -0.41856475 -0.70404983
vn -0.87399615 -0.35718343 -0.32947036
vn -0.03137317 0.88006525 -0.47381524
vn 0.09682385 0.31619081 -0.94374176
vn -0.20116406 0.97919025 0.02682313
vn -0.19019027 0.95979700 0.20643976
vn -0.90748791 -0.39110519 0.15330500
vn -0.88815393 -0.44010739 -0.13224251
vn -0.47054531 0.88237570 0.00048386
vn -0.26050239 0.81206683 0.52219343
vn -0.91156429 0.07545270 0.40417501
f 15//15 8//8 2//2
f 15//15 3//3 8//8
f 15//15 10//10 3//3
f 17//17 8//8 3//3
f 17//17 3//3 7//7
f 19//19 8//8 1//1
f 19//19 2//2 8//8
f 20//20 10//10 6//6
f 21//21 10//10 20//20
f 22//22 21//21 11//11
f 25//25 9//9 1//1
f 27//27 6//6 10//10
f 27//27 10//10 15//15
f 29//29 16//16 8//8
f 29//29 8//8 17//17
f 29//29 17//17 7//7
f 31//31 18//18 13//13
f 31//31 27//27 15//15
f 32//32 13//13 18//18
f 33//33 19//19 1//1
f 33//33 1//1 9//9
f 33//33 9//9 19//19
f 34//34 18//18 2//2
f 34//34 2//2 19//19
f 34//34 19//19 9//9
f 35//35 20//20 4//4
f 35//35 21//21 20//20
f 35//35 11//11 21//21
f 37//37 3//3 10//10
f 37//37 10//10 21//21
f 37//37 22//22 3//3
f 37//37 21//21 22//22
f 38//38 7//7 3//3
f 38//38 3//3 22//22
f 39//39 35//35 4//4
f 40//40 7//7 24//24
f 41//41 26//26 12//12
f 42//42 24//24 26//26
f 43//43 6//6 27//27
f 43//43 32//32 23//23
f 43//43 13//13 32//32
f 43//43 31//31 13//13
f 43//43 27//27 31//31
f 44//44 1//1 8//8
f 44//44 8//8 28//28
f 44//44 25//25 1//1
f 44//44 28//28 40//40
f 45//45 28//28 8//8
f 45//45 8//8 16//16
f 45//45 16//16 28//28
f 46//46 29//29 7//7
f 46//46 16//16 29//29
f 46//46 7//7 40//40
f 46//46 40//40 28//28
f 46//46 28//28 16//16
f 47//47 30//30 18//18
f 47//47 9//9 30//30
f 47//47 34//34 9//9
f 47//47 18//18 34//34
f 48//48 30//30 5//5
f 48//48 18//18 30//30
f 48//48 32//32 18//18
f 49//49 30//30 9//9
f 49//49 9//9 25//25
f 50//50 2//2 18//18
f 50//50 18//18 31//31
f 51//51 31//31 15//15
f 51//51 15//15 2//2
f 51//51 50//50 31//31
f 51//51 2//2 50//50
f 52//52 36//36 4//4
f 52//52 4//4 20//20
f 53//53 4//4 36//36
f 53//53 39//39 4//4
f 53//53 26//26 24//24
f 53//53 36//36 12//12
f 53//53 12//12 26//26
f 54//54 20//20 6//6
f 54//54 6//6 43//43
f 54//54 43//43 23//23
f 54//54 52//52 20//20
f 54//54 36//36 52//52
f 55//55 12//12 36//36
f 55//55 54//54 23//23
f 55//55 36//36 54//54
f 56//56 24//24 7//7
f 56//56 7//7 38//38
f 56//56 38//38 22//22
f 56//56 22//22 39//39
f 56//56 53//53 24//24
f 56//56 39//39 53//53
f 57//57 39//39 22//22
f 57//57 22//22 11//11
f 57//57 11//11 35//35
f 57//57 35//35 39//39
f 58//58 40//40 24//24
f 59//59 58//58 14//14
f 59//59 40//40 58//58
f 60//60 5//5 41//41
f 60//60 48//48 5//5
f 60//60 32//32 48//48
f 60//60 23//23 32//32
f 61//61 41//41 12//12
f 61//61 60//60 41//41
f 61//61 23//23 60//60
f 61//61 55//55 23//23
f 61//61 12//12 55//55
f 62//62 42//42 14//14
f 62//62 24//24 42//42
f 62//62 58//58 24//24
f 62//62 14//14 58//58
f 63//63 14//14 42//42
f 63//63 59//59 14//14
f 63//63 25//25 44//44
f 63//63 44//44 40//40
f 63//63 40//40 59//59
f 63//63 49//49 25//25
f 63//63 42//42 49//49
f 64//64 41//41 5//5
f 64//64 49//49 42//42
f 64//64 5//5 30//30
f 64//64 30//30 49//49
f 64//64 42//42 26//26
f 64//64 26//26 41//41

