# https://github.com/mikedh/trimesh
v -0.03385002 0.06164603 0.02036414
v -0.02488594 0.05612864 -0.01746798
v -0.02455447 0.07510590 -0.01720739
v -0.04221382 0.05369570 -0.02471891
v -0.05049731 0.02103482 0.00954700
v -0.02475241 0.05963153 -0.02422590
v -0.05234433 0.06190348 0.00130700
v -0.03417000 0.04883100 0.01924000
v -0.02448348 0.06903548 -0.02348578
v -0.04843325 0.02216373 -0.02358110
v -0.04099188 0.06596734 0.01828805
v -0.04915934 0.06335873 -0.01519830
v -0.04113099 0.03116429 0.01115320
v -0.03678380 0.05529287 -0.02491770
v -0.06239293 0.02663949 -0.02075397
v -0.04753073 0.02060266 -0.01980644
v -0.03411347 0.06909200 0.01098494
v -0.03467560 0.07399370 -0.01696240
v -0.06248271 0.03996646 0.01892135
v -0.04690700 0.02857000 0.01900200
v -0.03952110 0.05513452 -0.02476583
v -0.05511545 0.02520791 -0.02492827
v -0.06076100 0.05178817 -0.01384190
v -0.04744852 0.02215333 -0.02264205
v -0.02490219 0.05832289 -0.02271363
v -0.04010471 0.03078568 -0.01479263
v -0.04910845 0.02105901 0.00840365
v -0.06020766 0.02134162 -0.01818809
v -0.03898379 0.06642304 0.01831125
v -0.04489822 0.06601957 0.01111102
v -0.05025117 0.06333500 -0.01147844
v -0.02448056 0.07263309 -0.02221008
v -0.03743761 0.06504000 -0.02162093
v -0.05646159 0.05302435 0.01900200
v -0.06167310 0.02843144 0.01889645
v -0.03414491 0.05624159 0.02023752
v -0.03346581 0.06553520 -0.02326740
v -0.05781395 0.02988392 -0.02493288
v -0.04797496 0.02522520 -0.02482780
v -0.05578100 0.05558500 -0.01688500
v -0.06194000 0.04613000 -0.01679200
v -0.04926326 0.02117073 -0.02274984
v -0.04763174 0.02310765 -0.02400665
v -0.04009000 0.03135758 -0.00712592
v -0.04767700 0.02048819 -0.01160274
v -0.04835653 0.02232627 0.01083831
v -0.06118400 0.02537512 -0.02195001
v -0.03953309 0.06519369 0.01956931
v -0.05087313 0.06320780 0.00151643
v -0.04362436 0.06604618 0.01368724
v -0.05969193 0.05277521 -0.01475241
v -0.03146957 0.07360479 -0.01903848
v -0.04425637 0.05417471 0.02021927
v -0.04943762 0.06324425 0.01139717
v -0.06206501 0.04725892 0.01382362
v -0.05466644 0.02719381 0.01845533
v -0.06115477 0.02219107 0.00974026
v -0.06242120 0.02854264 0.01814593
v -0.05218408 0.02407649 -0.02494443
v -0.06089716 0.03379150 -0.02375194
v -0.04801529 0.06366023 -0.01622974
v -0.06237398 0.03847950 -0.01785663
v -0.05443100 0.01960748 -0.01857339
v -0.06118400 0.02228076 -0.01912528
vn 0.58598601 0.23078104 0.77676284
vn 0.95766916 -0.28744796 0.01560309
vn 0.63884893 0.76902383 -0.02178054
vn -0.24309175 0.22896094 -0.94259392
vn 0.05843750 -0.94152746 0.33182992
vn 0.71603149 -0.10514932 -0.69010328
vn -0.73290598 0.67877182 0.04601782
vn 0.71772871 -0.24510224 0.65175946
vn 0.65314871 0.18497309 -0.73428994
vn 0.24983921 -0.65931282 -0.70914525
vn -0.36136544 0.78932181 0.49637295
vn -0.62991047 0.70569462 -0.32435768
vn 0.81520647 -0.53747236 0.21578202
vn -0.00348310 0.06266751 -0.99802838
vn -0.93661673 -0.15485629 -0.31427477
vn 0.51939614 -0.83722569 -0.17111633
vn 0.32058391 0.87807233 0.35526742
vn -0.36781235 0.87870359 -0.30429275
vn -0.73519487 0.06918562 0.67431584
vn 0.36681376 -0.49071689 0.79034461
vn -0.09231745 0.15073629 -0.98425406
vn -0.21990401 -0.36907706 -0.90300850
vn -0.87270386 0.45687395 -0.17220388
vn 0.65196996 -0.64150272 -0.40423932
vn 0.89818968 -0.38382040 -0.21432964
vn 0.83812565 -0.54240127 -0.05784692
vn 0.44247872 -0.88706963 0.13160567
vn -0.44979848 -0.86923496 -0.20521189
vn 0.06424291 0.85327431 0.51748990
vn -0.43953292 0.88565548 0.14975039
vn -0.65524425 0.74909481 -0.09752918
vn 0.56712483 0.53336547 -0.62760713
vn -0.41397765 0.46002112 -0.78549543
vn -0.55307740 0.42823979 0.71464402
vn -0.36781750 -0.42335310 0.82793867
vn 0.53643163 -0.06146466 0.84170256
vn -0.25358803 0.36041654 -0.89765975
vn -0.27887019 -0.06651950 -0.95802222
vn 0.20353559 -0.19250969 -0.95995483
vn -0.57907291 0.51918830 -0.62858418
vn -0.88044749 0.26208177 -0.39512703
vn 0.09471272 -0.83380257 -0.54387753
vn 0.45614875 -0.48809268 -0.74410608
vn 0.84160156 -0.53855560 0.04080061
vn 0.49910035 -0.86602408 0.03001902
vn 0.50032019 -0.77759796 0.38081639
vn -0.61478299 -0.38877858 -0.68621650
vn -0.06100228 0.48645211 0.87157505
vn -0.60074867 0.79837036 0.04130147
vn -0.39828998 0.88831675 0.22860107
vn -0.72760970 0.56318715 -0.39166869
vn -0.24814554 0.74911346 -0.61420909
vn -0.05335561 0.02633781 0.99822818
vn -0.62174797 0.75159439 0.22030736
vn -0.92009598 0.35022998 0.17539198
vn -0.01302794 -0.64036606 0.76795936
vn -0.61288257 -0.75585203 0.23035336
vn -0.86753352 -0.30927482 0.38953135
vn -0.10153533 -0.41784056 -0.90282880
vn -0.66122793 0.11321492 -0.74159289
vn -0.52568647 0.60512132 -0.59789792
vn -0.98633542 0.05853035 -0.15400205
vn -0.13272752 -0.95780057 -0.25495387
vn -0.70396306 -0.62276110 -0.34147419
f 1//1 2//2 3//3
f 8//8 2//2 1//1
f 9//9 3//3 2//2
f 9//9 2//2 6//6
f 13//13 2//2 8//8
f 14//14 9//9 6//6
f 17//17 1//1 3//3
f 18//18 17//17 3//3
f 18//18 11//11 17//17
f 20//20 13//13 8//8
f 21//21 14//14 4//4
f 21//21 9//9 14//14
f 25//25 6//6 2//2
f 25//25 2//2 16//16
f 25//25 24//24 6//6
f 25//25 16//16 24//24
f 26//26 16//16 2//2
f 29//29 17//17 11//11
f 29//29 1//1 17//17
f 31//31 18//18 12//12
f 31//31 23//23 7//7
f 32//32 3//3 9//9
f 36//36 20//20 8//8
f 36//36 8//8 1//1
f 37//37 21//21 4//4
f 37//37 9//9 21//21
f 37//37 32//32 9//9
f 37//37 4//4 33//33
f 38//38 4//4 14//14
f 39//39 14//14 6//6
f 40//40 33//33 4//4
f 42//42 24//24 16//16
f 42//42 10//10 24//24
f 43//43 24//24 10//10
f 43//43 6//6 24//24
f 43//43 39//39 6//6
f 44//44 26//26 2//2
f 44//44 2//2 13//13
f 44//44 13//13 26//26
f 45//45 26//26 13//13
f 45//45 16//16 26//26
f 45//45 13//13 27//27
f 46//46 20//20 5//5
f 46//46 5//5 27//27
f 46//46 27//27 13//13
f 46//46 13//13 20//20
f 47//47 38//38 22//22
f 48//48 29//29 11//11
f 48//48 1//1 29//29
f 48//48 11//11 34//34
f 49//49 30//30 18//18
f 49//49 31//31 7//7
f 49//49 18//18 31//31
f 50//50 11//11 18//18
f 50//50 18//18 30//30
f 51//51 31//31 12//12
f 51//51 23//23 31//31
f 51//51 12//12 40//40
f 51//51 41//41 23//23
f 51//51 40//40 41//41
f 52//52 18//18 3//3
f 52//52 3//3 32//32
f 52//52 32//32 37//37
f 52//52 37//37 33//33
f 52//52 33//33 18//18
f 53//53 34//34 19//19
f 53//53 48//48 34//34
f 53//53 1//1 48//48
f 53//53 19//19 35//35
f 53//53 36//36 1//1
f 53//53 35//35 20//20
f 53//53 20//20 36//36
f 54//54 7//7 34//34
f 54//54 49//49 7//7
f 54//54 30//30 49//49
f 54//54 50//50 30//30
f 54//54 34//34 11//11
f 54//54 11//11 50//50
f 55//55 19//19 34//34
f 55//55 23//23 41//41
f 55//55 34//34 7//7
f 55//55 7//7 23//23
f 56//56 5//5 20//20
f 56//56 20//20 35//35
f 57//57 56//56 35//35
f 57//57 5//5 56//56
f 58//58 35//35 19//19
f 58//58 19//19 15//15
f 58//58 57//57 35//35
f 58//58 15//15 57//57
f 59//59 38//38 14//14
f 59//59 22//22 38//38
f 59//59 14//14 39//39
f 59//59 39//39 43//43
f 59//59 43//43 10//10
f 59//59 10//10 42//42
f 60//60 40//40 4//4
f 60//60 4//4 38//38
f 60//60 41//41 40//40
f 60//60 47//47 15//15
f 60//60 38//38 47//47
f 61//61 40//40 12//12
f 61//61 12//12 18//18
f 61//61 18//18 33//33
f 61//61 33//33 40//40
f 62//62 15//15 19//19
f 62//62 55//55 41//41
f 62//62 19//19 55//55
f 62//62 60//60 15//15
f 62//62 41//41 60//60
f 63//63 42//42 16//16
f 63//63 16//16 45//45
f 63//63 57//57 28//28
f 63//63 5//5 57//57
f 63//63 45//45 27//27
f 63//63 27//27 5//5
f 64//64 15//15 47//47
f 64//64 57//57 15//15
f 64//64 28//28 57//57
f 64//64 47//47 22//22
f 64//64 22//22 59//59
f 64//64 59//59 42//42
f 64//64 63//63 28//28
f 64//64 42//42 63//63

