# https://github.com/mikedh/trimesh
v -0.01944815 0.07450800 0.01906640
v -0.01493350 0.05956455 0.01912599
v -0.01958277 0.07473178 -0.02423258
v -0.03561056 0.06794372 -0.02510564
v -0.03667300 0.05076412 0.01987679
v -0.03763498 0.04824611 -0.01760962
v -0.03543659 0.07348181 0.01675976
v -0.01490779 0.06393751 0.01961173
v -0.02011949 0.05975273 -0.01943911
v -0.03557966 0.04993830 0.01695683
v -0.02882261 0.07565209 0.01234500
v -0.03444752 0.07300018 -0.02312877
v -0.03381722 0.06608938 0.01963608
v -0.03663136 0.05937400 -0.02545954
v -0.01959902 0.07092715 -0.02532748
v -0.01968808 0.07568198 0.00764191
v -0.01497044 0.06052172 0.01961488
v -0.03673979 0.04954969 0.01736574
v -0.03363045 0.07028802 -0.02479321
v -0.02925579 0.07533529 -0.01779315
v -0.03531702 0.07239191 0.01807869
v -0.01501386 0.06375631 0.01963081
v -0.02043500 0.06156559 -0.02313350
v -0.01989992 0.06485032 -0.02504581
v -0.01977016 0.07573165 -0.01946599
v -0.02258187 0.07557210 0.01253575
v -0.03532000 0.05125500 0.01978900
v -0.03599612 0.05587979 0.01978297
v -0.03363245 0.07331203 0.01754581
v -0.03415458 0.05944425 -0.02514986
v -0.02791614 0.05977425 -0.02384327
vn 0.43369711 0.65114723 0.62282750
vn 0.76065995 -0.53092925 0.37351113
vn 0.53968862 0.61705727 -0.57269235
vn -0.69161156 0.19952448 -0.69416384
vn -0.51814804 -0.50137776 0.69292348
vn -0.47791827 -0.80965631 -0.34066227
vn -0.69803124 0.66186378 0.27329239
vn 0.76903526 0.15858395 0.61922201
vn 0.77539613 -0.58879800 -0.22820550
vn 0.38137796 -0.91606327 0.12401189
vn -0.14255599 0.98355898 0.11085810
vn -0.60567607 0.66506646 -0.43685593
vn -0.21656633 0.10414405 0.97069719
vn -0.62447207 -0.20460535 -0.75377138
vn 0.63405400 0.09416115 -0.76753450
vn 0.55633618 0.83079279 0.01653447
vn 0.64969254 -0.13257364 0.74854782
vn -0.52201620 -0.82373460 0.22126998
vn -0.17211058 0.34256762 -0.92359373
vn -0.20297229 0.97342894 -0.10601108
vn -0.63056762 0.36919808 0.68269851
vn 0.08661314 0.02007882 0.99603966
vn 0.63196367 -0.53683093 -0.55895838
vn 0.65288684 -0.22015829 -0.72475451
vn 0.53824145 0.83765219 -0.09292439
vn 0.05111308 0.99415010 0.09514738
vn 0.31415578 -0.73274231 0.60365127
vn -0.38673542 0.06911665 0.91959698
vn -0.14199565 0.77989549 0.60959023
vn 0.14987674 -0.46646821 -0.87174789
vn 0.20660702 -0.55949703 -0.80266843
f 7//7 6//6 5//5
f 9//9 2//2 6//6
f 10//10 6//6 2//2
f 11//11 7//7 1//1
f 12//12 4//4 7//7
f 14//14 7//7 4//4
f 14//14 6//6 7//7
f 15//15 8//8 2//2
f 15//15 3//3 8//8
f 15//15 14//14 4//4
f 16//16 1//1 8//8
f 17//17 5//5 2//2
f 17//17 2//2 8//8
f 18//18 10//10 2//2
f 18//18 5//5 6//6
f 18//18 6//6 10//10
f 19//19 12//12 3//3
f 19//19 4//4 12//12
f 19//19 15//15 4//4
f 19//19 3//3 15//15
f 20//20 3//3 12//12
f 20//20 12//12 7//7
f 20//20 7//7 11//11
f 21//21 7//7 5//5
f 21//21 13//13 1//1
f 22//22 8//8 1//1
f 22//22 1//1 13//13
f 22//22 13//13 5//5
f 22//22 17//17 8//8
f 22//22 5//5 17//17
f 23//23 9//9 6//6
f 24//24 15//15 2//2
f 24//24 2//2 9//9
f 24//24 9//9 23//23
f 24//24 14//14 15//15
f 25//25 16//16 8//8
f 25//25 8//8 3//3
f 25//25 3//3 20//20
f 25//25 20//20 11//11
f 25//25 11//11 16//16
f 26//26 16//16 11//11
f 26//26 11//11 1//1
f 26//26 1//1 16//16
f 27//27 18//18 2//2
f 27//27 2//2 5//5
f 27//27 5//5 18//18
f 28//28 21//21 5//5
f 28//28 5//5 13//13
f 28//28 13//13 21//21
f 29//29 21//21 1//1
f 29//29 1//1 7//7
f 29//29 7//7 21//21
f 30//30 6//6 14//14
f 30//30 14//14 24//24
f 31//31 23//23 6//6
f 31//31 6//6 30//30
f 31//31 30//30 24//24
f 31//31 24//24 23//23

