# https://github.com/mikedh/trimesh
v -0.03531702 0.07239191 0.01807869
v -0.03667300 0.05076412 0.01987679
v -0.03561056 0.06794372 -0.02510564
v -0.04083809 0.06591576 -0.02508579
v -0.06437573 0.04179893 0.01639849
v -0.04917928 0.02401636 -0.01636031
v -0.03513136 0.07477931 -0.00635591
v -0.05652762 0.04663967 0.01965440
v -0.04139900 0.03366500 -0.01607100
v -0.04984752 0.02960500 -0.02511362
v -0.04722500 0.02979461 0.01839070
v -0.03529938 0.07274703 -0.02252830
v -0.05297183 0.06390021 0.01535896
v -0.03599612 0.05587979 0.01978297
v -0.03909975 0.04101986 -0.01315196
v -0.05199704 0.02960500 -0.02521713
v -0.04614500 0.02755800 -0.01877700
v -0.03716889 0.05802100 -0.02507986
v -0.06373600 0.02892360 0.01213460
v -0.06274844 0.03014150 0.01783887
v -0.05764700 0.03298800 0.01964500
v -0.04371103 0.03049758 0.01374452
v -0.04474887 0.06620328 -0.02422862
v -0.03870300 0.07358200 0.01133400
v -0.05048801 0.06425526 0.01775800
v -0.04563692 0.05463775 0.01979462
v -0.04150494 0.03366015 0.00064732
v -0.04919627 0.02822887 -0.02422350
v -0.03910542 0.04348405 -0.01698919
v -0.05029793 0.02283900 -0.00936715
v -0.06298612 0.03141108 -0.01825536
v -0.05945235 0.04030924 0.01945622
v -0.06445098 0.03573040 0.01642762
v -0.04720815 0.03345890 0.01939240
v -0.04371113 0.02960500 -0.01701018
v -0.06171584 0.05329692 -0.00593165
v -0.05238608 0.04213113 -0.02501414
v -0.05152340 0.06420853 -0.01676801
v -0.03543659 0.07348181 0.01675976
v -0.05994128 0.05405864 0.01495494
v -0.06286329 0.04346340 0.01764538
v -0.05604856 0.02287478 -0.01362824
v -0.05504924 0.02841642 0.01719427
v -0.04664248 0.02875626 0.01479788
v -0.05959140 0.03781185 0.01943590
v -0.06463000 0.02960500 0.01166800
v -0.04318235 0.04188644 0.01978171
v -0.04872726 0.02899885 -0.02408085
v -0.06441200 0.03975400 -0.00716800
v -0.05832300 0.04621314 -0.02063423
v -0.06244439 0.02819671 -0.01917144
v -0.04538599 0.06667927 -0.02160901
v -0.03918597 0.07307463 0.00305502
v -0.05302664 0.06385403 0.01369800
v -0.03667300 0.07302971 0.01631877
v -0.05520179 0.05781785 0.01769681
v -0.06215557 0.05260545 0.00000207
v -0.06037245 0.05436155 0.01417922
v -0.05200035 0.02283900 -0.01550230
v -0.05655291 0.02283900 -0.01087853
v -0.05068261 0.02846824 0.01700311
v -0.06460233 0.04182361 0.00826986
v -0.05965766 0.04910452 -0.01720459
v -0.06451997 0.03571366 -0.00832139
vn 0.53189511 0.46114420 0.71023490
vn 0.70547731 -0.16139396 0.69011140
vn 0.62468078 0.17548456 -0.76090676
vn -0.11553742 0.20289448 -0.97236050
vn -0.90355799 0.12911956 0.40854755
vn 0.49111466 -0.83754178 -0.23943718
vn 0.51412998 0.85465292 -0.07237916
vn -0.20424991 0.10701756 0.97305150
vn 0.89676584 -0.37457797 -0.23558942
vn 0.23953379 -0.28046768 -0.92949526
vn 0.35768126 -0.61767874 0.70038353
vn 0.46890470 0.76551350 -0.44058763
vn -0.67006260 0.68208383 0.29287842
vn 0.70962596 -0.02208642 0.70423234
vn 0.97169401 -0.22876928 -0.05895228
vn -0.23077382 -0.38485771 -0.89365988
vn 0.68558624 -0.63946257 -0.34793553
vn 0.68118021 -0.13189211 -0.72013748
vn -0.46093911 -0.86746652 0.18718168
vn -0.53355543 -0.54194169 0.64932104
vn -0.10234565 -0.22200745 0.96965873
vn 0.77098495 -0.59165073 0.23565147
vn -0.46394719 0.51063778 -0.72387987
vn -0.35019576 0.93118173 0.10130902
vn -0.38971256 0.51173450 0.76567089
vn -0.05529400 0.08170489 0.99512154
vn 0.91195166 -0.40962539 0.02347800
vn 0.33914263 -0.64759061 -0.68235524
vn 0.96004122 -0.22452051 -0.16706706
vn 0.35685769 -0.93152098 0.07015163
vn -0.90509336 0.02787875 -0.42429800
vn -0.27674752 0.03777232 0.96020001
vn -0.89741322 -0.02690614 0.44036981
vn 0.17202862 -0.19041592 0.96651329
vn 0.81178154 -0.52877581 -0.24780409
vn -0.89145920 0.43441900 -0.12876580
vn -0.32047518 0.06347681 -0.94512769
vn -0.69553429 0.66043663 -0.28294082
vn 0.43639437 0.82047051 0.36930759
vn -0.70190588 0.38722872 0.59781441
vn -0.61920415 0.20411373 0.75823731
vn -0.28719982 -0.93315506 -0.21618949
vn -0.06771857 -0.82773598 0.55701647
vn 0.39973652 -0.88512664 0.23824681
vn -0.29552429 -0.00598249 0.95531650
vn -0.89375304 -0.43749038 0.09903368
vn 0.06463939 -0.06068408 0.99606184
vn 0.73876461 -0.33083818 -0.58717369
vn -0.98249901 0.13419568 -0.12917899
vn -0.69187817 0.20599833 -0.69200381
vn -0.72295345 -0.45757166 -0.51765479
vn -0.52419979 0.81144455 -0.25840341
vn -0.50570367 0.86215767 -0.03078886
vn -0.67771717 0.73530696 -0.00480822
vn -0.44338275 0.82362450 0.35363033
vn -0.51683486 0.34126356 0.78512477
vn -0.91024537 0.41406492 0.00190060
vn -0.83716551 0.46600266 0.28634844
vn 0.04621781 -0.95060441 -0.30694489
vn -0.33908110 -0.94020580 0.03220347
vn 0.08900396 -0.90507322 0.41583742
vn -0.99250823 0.12197003 0.00712177
vn -0.84872801 0.31964482 -0.42129320
vn -0.99479413 -0.03660822 -0.09510244
f 14//14 7//7 1//1
f 14//14 2//2 3//3
f 14//14 12//12 7//7
f 14//14 3//3 12//12
f 15//15 3//3 2//2
f 16//16 4//4 3//3
f 18//18 3//3 15//15
f 18//18 16//16 3//3
f 18//18 10//10 16//16
f 21//21 20//20 11//11
f 22//22 2//2 11//11
f 23//23 12//12 3//3
f 23//23 3//3 4//4
f 26//26 2//2 14//14
f 26//26 21//21 2//2
f 26//26 8//8 21//21
f 26//26 14//14 1//1
f 26//26 25//25 8//8
f 26//26 1//1 25//25
f 27//27 15//15 2//2
f 27//27 9//9 15//15
f 27//27 2//2 22//22
f 28//28 16//16 10//10
f 28//28 17//17 6//6
f 28//28 10//10 18//18
f 29//29 18//18 15//15
f 29//29 15//15 9//9
f 29//29 9//9 18//18
f 32//32 21//21 8//8
f 34//34 21//21 11//11
f 34//34 11//11 2//2
f 35//35 27//27 22//22
f 35//35 9//9 27//27
f 35//35 17//17 28//28
f 35//35 18//18 9//9
f 35//35 6//6 17//17
f 35//35 30//30 6//6
f 35//35 22//22 30//30
f 37//37 23//23 4//4
f 37//37 4//4 16//16
f 38//38 7//7 12//12
f 39//39 1//1 7//7
f 39//39 7//7 24//24
f 39//39 25//25 1//1
f 41//41 32//32 8//8
f 41//41 33//33 20//20
f 41//41 5//5 33//33
f 43//43 20//20 19//19
f 43//43 11//11 20//20
f 44//44 30//30 22//22
f 44//44 22//22 11//11
f 45//45 20//20 21//21
f 45//45 21//21 32//32
f 45//45 41//41 20//20
f 45//45 32//32 41//41
f 46//46 19//19 20//20
f 46//46 20//20 33//33
f 47//47 34//34 2//2
f 47//47 2//2 21//21
f 47//47 21//21 34//34
f 48//48 35//35 28//28
f 48//48 28//28 18//18
f 48//48 18//18 35//35
f 50//50 23//23 37//37
f 51//51 37//37 16//16
f 51//51 50//50 37//37
f 51//51 31//31 50//50
f 52//52 38//38 12//12
f 52//52 12//12 23//23
f 52//52 23//23 38//38
f 53//53 24//24 7//7
f 53//53 7//7 38//38
f 54//54 13//13 24//24
f 54//54 53//53 38//38
f 54//54 24//24 53//53
f 54//54 38//38 36//36
f 54//54 36//36 13//13
f 55//55 39//39 24//24
f 55//55 24//24 13//13
f 55//55 13//13 25//25
f 55//55 25//25 39//39
f 56//56 25//25 13//13
f 56//56 40//40 41//41
f 56//56 41//41 8//8
f 56//56 8//8 25//25
f 57//57 36//36 49//49
f 57//57 13//13 36//36
f 58//58 41//41 40//40
f 58//58 5//5 41//41
f 58//58 57//57 5//5
f 58//58 13//13 57//57
f 58//58 56//56 13//13
f 58//58 40//40 56//56
f 59//59 28//28 6//6
f 59//59 6//6 30//30
f 59//59 42//42 51//51
f 59//59 51//51 16//16
f 59//59 16//16 28//28
f 60//60 30//30 43//43
f 60//60 59//59 30//30
f 60//60 42//42 59//59
f 60//60 43//43 19//19
f 60//60 19//19 46//46
f 60//60 51//51 42//42
f 60//60 46//46 51//51
f 61//61 43//43 30//30
f 61//61 30//30 44//44
f 61//61 44//44 11//11
f 61//61 11//11 43//43
f 62//62 46//46 33//33
f 62//62 33//33 5//5
f 62//62 57//57 49//49
f 62//62 5//5 57//57
f 63//63 49//49 36//36
f 63//63 31//31 49//49
f 63//63 50//50 31//31
f 63//63 36//36 38//38
f 63//63 38//38 23//23
f 63//63 23//23 50//50
f 64//64 49//49 31//31
f 64//64 62//62 49//49
f 64//64 46//46 62//62
f 64//64 51//51 46//46
f 64//64 31//31 51//51

