# https://github.com/mikedh/trimesh
v 0.03136531 0.06362038 0.01997875
v 0.04950614 0.01946897 0.01872841
v 0.04923986 0.04279342 -0.01614096
v 0.01000913 0.07278410 -0.02223342
v 0.01022760 0.05693500 0.01916788
v 0.03664015 0.01015889 -0.02498075
v 0.03778251 0.06310197 -0.01614189
v 0.04161204 0.05423054 0.01832067
v 0.04173551 0.01031789 0.02049829
v 0.00969018 0.07251652 0.01900296
v 0.04957500 0.01040129 -0.02444168
v 0.01052907 0.05825920 -0.02260166
v 0.04338355 0.04478528 0.02022231
v 0.04899533 0.03547947 0.01834499
v 0.03263090 0.06471169 0.01114057
v 0.04207895 0.05760237 -0.00927026
v 0.01013456 0.06025397 0.02020633
v 0.02982095 0.01041065 0.01111419
v 0.01003389 0.06611958 -0.02350291
v 0.05020730 0.01018047 -0.02125025
v 0.04288676 0.04741623 -0.02391387
v 0.04155120 0.05364242 0.01908527
v 0.04417200 0.02857000 0.02015000
v 0.04955474 0.02058577 0.01869696
v 0.04195328 0.05555901 0.01266011
v 0.01971079 0.07209960 0.01201684
v 0.04015850 0.06089682 -0.01620872
v 0.03514832 0.01025200 0.02017692
v 0.01445600 0.06774100 0.02002000
v 0.02450122 0.06640744 0.02006105
v 0.03036475 0.01033033 -0.00069248
v 0.01096103 0.05163031 -0.00451707
v 0.01040400 0.05963700 -0.02365500
v 0.04957187 0.02586900 -0.02399478
v 0.04619254 0.01033600 -0.02490170
v 0.03264587 0.06323696 -0.02223094
v 0.02374790 0.05846517 -0.02492451
v 0.04835268 0.03540646 0.01875675
v 0.04903637 0.04259015 -0.00955958
v 0.03167820 0.06424704 0.01833768
v 0.01313423 0.07529192 -0.00646809
v 0.02224201 0.07231048 -0.00434849
v 0.04023140 0.06076048 -0.01070060
v 0.04312452 0.05485706 -0.01792715
v 0.03100238 0.01028484 0.01440734
v 0.01008545 0.06774100 0.01991352
v 0.01646702 0.07211392 0.01599052
v 0.02990884 0.01661514 -0.01528052
v 0.01107340 0.05122204 0.00086932
v 0.02975859 0.01031868 0.00982546
v 0.04456027 0.04330374 -0.02394072
v 0.04423441 0.03280544 -0.02502424
v 0.02013084 0.07336079 -0.01677830
v 0.03092834 0.06272053 -0.02331184
v 0.01157702 0.06769990 -0.02344242
v 0.01003041 0.07519751 -0.00260300
v 0.03793147 0.06302219 -0.01185155
v 0.02020365 0.07337772 -0.00412855
v 0.04147528 0.05031389 -0.02368297
v 0.03269100 0.01101100 0.01765100
v 0.02053439 0.06909658 0.01901831
v 0.01572710 0.07356176 0.01220908
v 0.03026326 0.06474186 0.01916170
v 0.04656989 0.02472555 -0.02477330
vn 0.36739616 0.46805309 0.80370788
vn 0.77730329 -0.23024112 0.58548153
vn 0.94661162 0.25999679 -0.19059936
vn -0.54778681 0.60876486 -0.57387713
vn -0.87494045 -0.24425611 0.41811262
vn -0.32555266 -0.68146569 -0.65545402
vn 0.59136219 0.77300796 -0.22967249
vn 0.79118270 0.52721506 0.30995841
vn 0.29823695 -0.68348580 0.66625962
vn -0.56818573 0.59995444 0.56322255
vn 0.56142676 -0.56071379 -0.60860500
vn -0.92997942 -0.29811945 -0.21508850
vn 0.33541994 0.12153594 0.93419617
vn 0.86706225 0.15539355 0.47334544
vn 0.59535501 0.79606870 0.10875213
vn 0.88210323 0.47057212 0.02134864
vn -0.69501034 -0.04143812 0.71780464
vn -0.69072951 -0.70810450 0.14656319
vn -0.72475081 0.04170210 -0.68774792
vn 0.72819284 -0.68203057 -0.06759802
vn 0.51484597 0.25431976 -0.81869108
vn 0.61500880 0.35246428 0.70536026
vn 0.20081868 0.00320599 0.97962318
vn 0.80573061 0.00978501 0.59220135
vn 0.82487440 0.55075188 0.12749349
vn 0.41043716 0.89392285 0.18012016
vn 0.75552713 0.59563992 -0.27274868
vn -0.24807940 -0.69094622 0.67900658
vn 0.00338151 0.13069996 0.99141620
vn 0.15267673 0.37962406 0.91245569
vn -0.55960868 -0.82583518 -0.06952968
vn -0.95796036 -0.28211215 -0.05219857
vn -0.73178971 -0.10642498 -0.67316977
vn 0.77421849 0.06574495 -0.62949450
vn 0.06586552 -0.66929273 -0.74007362
vn 0.46282350 0.61294163 -0.64038814
vn 0.01328389 0.10260226 -0.99463376
vn 0.44216537 0.06574003 0.89452112
vn 0.95918182 0.27910044 0.04553216
vn 0.58162251 0.77205673 0.25621021
vn 0.04621452 0.99792736 -0.04477957
vn 0.49211466 0.86968527 0.03834959
vn 0.77461524 0.63078660 0.04560137
vn 0.82313361 0.46292017 -0.32887075
vn -0.51806155 -0.81723812 0.25245610
vn -0.51579957 0.07592934 0.85333788
vn 0.28844133 0.88399067 0.36791587
vn -0.85150533 -0.47551814 -0.22095513
vn -0.95161008 -0.30654368 0.02166173
vn -0.56803006 -0.82288765 0.01406282
vn 0.58203062 0.21512626 -0.78419452
vn 0.14798664 0.04674565 -0.98788400
vn 0.31067431 0.90220336 -0.29918319
vn 0.23478526 0.39579477 -0.88781889
vn -0.03563742 0.18679542 -0.98175223
vn -0.65274286 0.75712952 0.02610858
vn 0.61071215 0.79117692 0.03270707
vn 0.36578416 0.92988884 0.03884188
vn 0.47278964 0.32396522 -0.81946110
vn -0.71574020 -0.46608758 0.52007531
vn 0.28597727 0.75092859 0.59525058
vn 0.18420867 0.96741923 0.17368708
vn 0.40501842 0.81232632 0.41962606
vn 0.18446793 0.01956639 -0.98264375
f 17//17 10//10 5//5
f 17//17 9//9 13//13
f 19//19 10//10 4//4
f 19//19 5//5 10//10
f 20//20 2//2 9//9
f 22//22 8//8 1//1
f 22//22 1//1 13//13
f 22//22 14//14 8//8
f 22//22 13//13 14//14
f 23//23 13//13 9//9
f 23//23 9//9 2//2
f 23//23 2//2 13//13
f 24//24 3//3 14//14
f 24//24 20//20 3//3
f 24//24 2//2 20//20
f 24//24 13//13 2//2
f 25//25 8//8 14//14
f 28//28 17//17 5//5
f 28//28 9//9 17//17
f 28//28 20//20 9//9
f 28//28 6//6 20//20
f 30//30 17//17 13//13
f 30//30 13//13 1//1
f 30//30 29//29 17//17
f 30//30 10//10 29//29
f 32//32 12//12 31//31
f 33//33 5//5 19//19
f 33//33 32//32 5//5
f 33//33 12//12 32//32
f 33//33 6//6 12//12
f 34//34 20//20 11//11
f 34//34 3//3 20//20
f 35//35 20//20 6//6
f 35//35 11//11 20//20
f 36//36 7//7 27//27
f 37//37 33//33 19//19
f 37//37 6//6 33//33
f 38//38 24//24 14//14
f 38//38 14//14 13//13
f 38//38 13//13 24//24
f 39//39 25//25 14//14
f 39//39 14//14 3//3
f 39//39 3//3 16//16
f 39//39 16//16 25//25
f 40//40 25//25 15//15
f 40//40 1//1 8//8
f 40//40 8//8 25//25
f 40//40 15//15 26//26
f 42//42 26//26 15//15
f 43//43 25//25 16//16
f 43//43 16//16 27//27
f 43//43 15//15 25//25
f 44//44 3//3 21//21
f 44//44 27//27 16//16
f 44//44 16//16 3//3
f 45//45 5//5 18//18
f 45//45 6//6 28//28
f 46//46 29//29 10//10
f 46//46 10//10 17//17
f 46//46 17//17 29//29
f 48//48 31//31 12//12
f 48//48 12//12 6//6
f 48//48 6//6 31//31
f 49//49 18//18 5//5
f 49//49 5//5 32//32
f 50//50 32//32 31//31
f 50//50 49//49 32//32
f 50//50 18//18 49//49
f 50//50 45//45 18//18
f 50//50 31//31 6//6
f 50//50 6//6 45//45
f 51//51 21//21 3//3
f 51//51 3//3 34//34
f 52//52 51//51 34//34
f 52//52 37//37 21//21
f 52//52 21//21 51//51
f 52//52 35//35 6//6
f 52//52 6//6 37//37
f 53//53 36//36 4//4
f 53//53 7//7 36//36
f 53//53 42//42 7//7
f 53//53 4//4 41//41
f 54//54 4//4 36//36
f 55//55 37//37 19//19
f 55//55 19//19 4//4
f 55//55 54//54 37//37
f 55//55 4//4 54//54
f 56//56 41//41 4//4
f 56//56 4//4 10//10
f 57//57 42//42 15//15
f 57//57 7//7 42//42
f 57//57 15//15 43//43
f 57//57 43//43 27//27
f 57//57 27//27 7//7
f 58//58 26//26 42//42
f 58//58 53//53 41//41
f 58//58 42//42 53//53
f 59//59 36//36 27//27
f 59//59 27//27 44//44
f 59//59 44//44 21//21
f 59//59 54//54 36//36
f 59//59 21//21 37//37
f 59//59 37//37 54//54
f 60//60 45//45 28//28
f 60//60 28//28 5//5
f 60//60 5//5 45//45
f 61//61 47//47 10//10
f 61//61 10//10 30//30
f 61//61 30//30 1//1
f 62//62 47//47 26//26
f 62//62 41//41 56//56
f 62//62 56//56 10//10
f 62//62 10//10 47//47
f 62//62 58//58 41//41
f 62//62 26//26 58//58
f 63//63 40//40 26//26
f 63//63 26//26 47//47
f 63//63 47//47 61//61
f 63//63 61//61 1//1
f 63//63 1//1 40//40
f 64//64 52//52 34//34
f 64//64 34//34 11//11
f 64//64 11//11 35//35
f 64//64 35//35 52//52

