# https://github.com/mikedh/trimesh
v 0.04841153 -0.01630174 0.02024582
v 0.04745552 -0.05021559 0.00954593
v 0.04744248 -0.01695239 -0.01949520
v 0.03343707 -0.00728057 -0.02466893
v 0.02211162 -0.06978278 0.01847101
v 0.04725957 -0.00735784 -0.00524600
v 0.04852311 -0.01879963 0.01961874
v 0.03369000 -0.01646087 0.01995183
v 0.02920936 -0.06428015 -0.02274050
v 0.04467900 -0.00693000 -0.02283700
v 0.04211583 -0.05109952 0.02034440
v 0.02976640 -0.00749925 -0.01778162
v 0.03663032 -0.00745167 0.00007855
v 0.04144877 -0.05164151 -0.02203455
v 0.04045600 -0.06174500 -0.00389300
v 0.04758508 -0.04072459 0.01787075
v 0.02286500 -0.06376100 0.01984200
v 0.02210044 -0.06589290 -0.02353840
v 0.03946051 -0.00725733 -0.00052154
v 0.03129763 -0.00743580 -0.00646849
v 0.04685917 -0.04335776 -0.01471419
v 0.04202000 -0.03805200 -0.02554300
v 0.03098265 -0.06864748 -0.01323740
v 0.03970164 -0.05972293 0.01401611
v 0.03171700 -0.06240800 0.01978700
v 0.02587545 -0.03623503 -0.01869191
v 0.02490042 -0.04917480 0.01955314
v 0.04180900 -0.06015927 -0.01036641
v 0.04351599 -0.03184955 -0.02419444
v 0.04178961 -0.04709992 -0.02393054
v 0.04113200 -0.02154447 -0.02508857
v 0.03510299 -0.02411706 -0.02525378
v 0.04045600 -0.04752400 -0.02522000
v 0.03022128 -0.06891841 0.00989016
v 0.02281875 -0.07057763 -0.01891719
v 0.04037402 -0.06154248 0.00285056
v 0.03936935 -0.05753525 0.01814030
v 0.02545427 -0.04478675 0.01651904
v 0.02547026 -0.04313482 0.00981760
v 0.04166010 -0.06081373 -0.00685461
v 0.03963573 -0.06029197 -0.01717107
v 0.04273657 -0.02486498 -0.02492533
v 0.04696621 -0.03131167 -0.01920598
v 0.03973852 -0.05274029 -0.02389752
v 0.02964989 -0.06649930 0.01779963
v 0.02899420 -0.06847259 -0.01854747
v 0.03776410 -0.05760015 0.01953670
v 0.03048738 -0.00758078 -0.01147093
v 0.02882413 -0.06885298 0.01303906
v 0.03760299 -0.05941200 0.01786746
vn 0.59692429 0.45055845 0.66383618
vn 0.93799970 -0.32283164 0.12623901
vn 0.94136396 0.04539585 -0.33432485
vn -0.33834246 0.64207833 -0.68793881
vn -0.53597089 -0.65304201 0.53504330
vn 0.68748956 0.72410562 0.05503789
vn 0.97754434 -0.02835596 0.20881331
vn -0.48542007 0.50544677 0.71336591
vn 0.33689802 -0.49715704 -0.79958402
vn 0.51450042 0.66059913 -0.54671574
vn 0.49799508 -0.26192559 0.82667762
vn -0.71096880 0.68979074 -0.13679219
vn -0.16608676 0.94953891 0.26606586
vn 0.84516316 -0.32935030 -0.42098411
vn 0.62002349 -0.78440535 0.01670702
vn 0.87020780 -0.13235886 0.47457298
vn -0.67357966 -0.01620339 0.73893700
vn -0.61073178 -0.33665094 -0.71670973
vn 0.05206878 0.97639005 0.20964569
vn -0.61188837 0.77897490 0.13707927
vn 0.96094035 -0.17679149 -0.21292821
vn 0.44717595 -0.06519604 -0.89206678
vn 0.46203310 -0.88112820 -0.10069015
vn 0.71825229 -0.64096515 0.27069784
vn 0.25485731 -0.35206059 0.90061151
vn -0.99087312 0.13314791 -0.02102590
vn -0.77021779 0.13509932 0.62330790
vn 0.81928156 -0.54968170 -0.16318012
vn 0.75829082 -0.03168011 -0.65114622
vn 0.80779653 -0.20064290 -0.55426274
vn 0.14061530 0.06214690 -0.98811189
vn -0.08266726 0.01910615 -0.99639404
vn 0.36854542 -0.15354431 -0.91684154
vn 0.42184275 -0.89965984 0.11252051
vn -0.44550385 -0.83121487 -0.33257805
vn 0.72092078 -0.68786276 0.08436852
vn 0.68049826 -0.54396877 0.49093797
vn -0.97117261 0.20678206 0.11859569
vn -0.98998463 0.13885879 0.02546910
vn 0.76834938 -0.63919880 -0.03262087
vn 0.72428003 -0.57113333 -0.38629671
vn 0.46352168 0.02647340 -0.88569002
vn 0.94043829 -0.06255129 -0.33416037
vn 0.53291787 -0.37468563 -0.75868915
vn 0.45816897 -0.70263935 0.54440715
vn 0.42748884 -0.79768437 -0.42538563
vn 0.43940913 -0.45170491 0.77645495
vn -0.85551204 0.50592488 0.11017787
vn 0.41001582 -0.88265230 0.22980847
vn 0.58351049 -0.64356160 0.49532208
f 6//6 1//1 3//3
f 7//7 2//2 3//3
f 7//7 3//3 1//1
f 10//10 6//6 3//3
f 11//11 1//1 8//8
f 13//13 8//8 1//1
f 16//16 11//11 2//2
f 16//16 2//2 7//7
f 16//16 7//7 1//1
f 16//16 1//1 11//11
f 17//17 11//11 8//8
f 18//18 5//5 17//17
f 18//18 12//12 4//4
f 19//19 13//13 1//1
f 19//19 1//1 6//6
f 19//19 6//6 10//10
f 20//20 8//8 13//13
f 20//20 13//13 19//19
f 20//20 4//4 12//12
f 20//20 19//19 10//10
f 20//20 10//10 4//4
f 21//21 3//3 2//2
f 25//25 17//17 5//5
f 25//25 11//11 17//17
f 26//26 18//18 17//17
f 26//26 17//17 12//12
f 26//26 12//12 18//18
f 27//27 17//17 8//8
f 28//28 14//14 21//21
f 28//28 21//21 2//2
f 29//29 10//10 3//3
f 30//30 21//21 14//14
f 31//31 4//4 10//10
f 32//32 22//22 18//18
f 32//32 18//18 4//4
f 32//32 31//31 22//22
f 32//32 4//4 31//31
f 33//33 9//9 18//18
f 33//33 18//18 22//22
f 33//33 22//22 30//30
f 34//34 23//23 15//15
f 35//35 18//18 9//9
f 35//35 5//5 18//18
f 35//35 34//34 5//5
f 35//35 23//23 34//34
f 36//36 2//2 24//24
f 36//36 34//34 15//15
f 36//36 24//24 34//34
f 37//37 24//24 2//2
f 37//37 2//2 11//11
f 38//38 27//27 8//8
f 38//38 8//8 20//20
f 38//38 12//12 27//27
f 39//39 27//27 12//12
f 39//39 12//12 17//17
f 39//39 17//17 27//27
f 40//40 15//15 23//23
f 40//40 23//23 28//28
f 40//40 36//36 15//15
f 40//40 28//28 2//2
f 40//40 2//2 36//36
f 41//41 28//28 23//23
f 41//41 14//14 28//28
f 42//42 29//29 22//22
f 42//42 10//10 29//29
f 42//42 31//31 10//10
f 42//42 22//22 31//31
f 43//43 29//29 3//3
f 43//43 3//3 21//21
f 43//43 21//21 30//30
f 43//43 30//30 22//22
f 43//43 22//22 29//29
f 44//44 33//33 30//30
f 44//44 30//30 14//14
f 44//44 9//9 33//33
f 44//44 41//41 9//9
f 44//44 14//14 41//41
f 45//45 25//25 5//5
f 45//45 34//34 24//24
f 46//46 35//35 9//9
f 46//46 23//23 35//35
f 46//46 41//41 23//23
f 46//46 9//9 41//41
f 47//47 37//37 11//11
f 47//47 11//11 25//25
f 47//47 25//25 45//45
f 48//48 38//38 20//20
f 48//48 20//20 12//12
f 48//48 12//12 38//38
f 49//49 45//45 5//5
f 49//49 5//5 34//34
f 49//49 34//34 45//45
f 50//50 45//45 24//24
f 50//50 24//24 37//37
f 50//50 47//47 45//45
f 50//50 37//37 47//47

