# https://github.com/mikedh/trimesh
v 0.02354100 -0.05956253 0.02077877
v 0.02211162 -0.06978278 0.01847101
v 0.02421800 -0.06205126 -0.02405997
v 0.01068700 -0.06105500 -0.02345300
v 0.01070087 -0.07257233 0.01983261
v 0.02440360 -0.03874788 -0.01712235
v 0.02222866 -0.07080366 0.01478007
v 0.02199061 -0.06858761 0.01932726
v 0.01072795 -0.07741464 -0.01103928
v 0.02448528 -0.04178418 -0.00178940
v 0.01768047 -0.07115602 0.01891903
v 0.01170663 -0.07163887 0.02001959
v 0.01013866 -0.07537005 -0.01701797
v 0.01052478 -0.07729006 0.00080338
v 0.02287214 -0.07109695 -0.01840673
v 0.02446109 -0.03938680 -0.01366752
v 0.01120029 -0.04492522 0.00090086
v 0.01962717 -0.07002469 0.01936959
v 0.01129561 -0.07052700 -0.02293204
v 0.01207558 -0.06004076 0.02089224
v 0.01106138 -0.04927578 -0.01824341
v 0.02028934 -0.06924243 -0.02283700
v 0.01133401 -0.04558075 -0.01263431
v 0.02160489 -0.06818100 -0.02309079
v 0.01121851 -0.04741963 -0.01665379
vn 0.62811000 0.27130631 0.72929467
vn 0.70401238 -0.57792021 0.41276482
vn 0.67404007 -0.01792614 -0.73847724
vn -0.67961853 0.11676564 -0.72421298
vn -0.54899366 -0.57910539 0.60269636
vn 0.43319481 0.78660858 -0.43998772
vn 0.75223295 -0.64566341 0.13139387
vn 0.54484933 -0.29626550 0.78445265
vn -0.35606963 -0.93016783 -0.08945514
vn 0.61696561 0.72404285 0.30840783
vn 0.25665325 -0.84284717 0.47300926
vn 0.02834005 -0.19584235 0.98022580
vn -0.60552694 -0.70281726 -0.37334304
vn -0.49579430 -0.86543712 0.07215683
vn 0.73102495 -0.64074830 -0.23461490
vn 0.63593376 0.75913946 0.13890836
vn -0.69600293 0.65709016 0.28950377
vn 0.22445777 -0.48693266 0.84410621
vn -0.49110514 -0.41616527 -0.76525957
vn -0.55538105 0.34138157 0.75829448
vn -0.77450773 0.33127788 -0.53888101
vn 0.21426158 -0.60871128 -0.76391266
vn -0.81556348 0.56632736 -0.11886773
vn 0.42831436 -0.41939637 -0.80040833
vn -0.80285380 0.48134014 -0.35176333
f 6//6 3//3 4//4
f 7//7 1//1 2//2
f 7//7 3//3 1//1
f 8//8 2//2 1//1
f 10//10 1//1 3//3
f 11//11 7//7 2//2
f 14//14 9//9 7//7
f 14//14 13//13 9//9
f 14//14 5//5 13//13
f 14//14 11//11 5//5
f 14//14 7//7 11//11
f 15//15 3//3 7//7
f 15//15 7//7 9//9
f 15//15 9//9 13//13
f 16//16 10//10 3//3
f 16//16 3//3 6//6
f 17//17 13//13 5//5
f 17//17 16//16 6//6
f 17//17 10//10 16//16
f 18//18 5//5 11//11
f 18//18 12//12 5//5
f 18//18 8//8 1//1
f 18//18 1//1 12//12
f 18//18 11//11 2//2
f 18//18 2//2 8//8
f 19//19 13//13 4//4
f 19//19 4//4 3//3
f 20//20 1//1 10//10
f 20//20 10//10 17//17
f 20//20 12//12 1//1
f 20//20 17//17 5//5
f 20//20 5//5 12//12
f 21//21 4//4 13//13
f 21//21 13//13 17//17
f 21//21 6//6 4//4
f 22//22 15//15 13//13
f 22//22 13//13 19//19
f 23//23 21//21 17//17
f 23//23 17//17 6//6
f 24//24 22//22 19//19
f 24//24 19//19 3//3
f 24//24 3//3 15//15
f 24//24 15//15 22//22
f 25//25 23//23 6//6
f 25//25 6//6 21//21
f 25//25 21//21 23//23

