# https://github.com/mikedh/trimesh
v 0.01038495 0.06706694 0.02038360
v 0.01022760 0.05693500 0.01916788
v 0.01003389 0.06611958 -0.02350291
v -0.02444831 0.07051043 -0.02325723
v -0.03982777 0.06165845 0.02000503
v 0.01015974 0.07522354 -0.00566777
v 0.01052907 0.05825920 -0.02260166
v -0.03396193 0.05138063 0.02027452
v 0.01005164 0.07358316 -0.02112603
v -0.02452354 0.07348414 0.01770284
v 0.01049104 0.05106863 -0.00219598
v -0.02475241 0.05963153 -0.02422590
v 0.01011735 0.06178887 0.02025829
v -0.03814755 0.06158539 0.02023571
v 0.01000913 0.07278410 -0.02223342
v -0.02454828 0.07520422 -0.01709960
v 0.00517446 0.07359543 0.01900309
v -0.03417000 0.04883100 0.01924000
v -0.00216095 0.07047453 -0.02328986
v 0.01040400 0.05963700 -0.02365500
v -0.03484223 0.04747549 -0.01746630
v -0.03287591 0.07069267 0.01869176
v 0.00837800 0.07509100 -0.01746800
v -0.01121047 0.07529545 -0.00074591
v -0.02448056 0.07263309 -0.02221008
v 0.00974545 0.07343175 0.01683776
v 0.00984937 0.05557207 0.01630000
v -0.03417000 0.04805204 0.01192379
v -0.04729157 0.06294689 -0.01656374
v -0.03665811 0.06449720 0.02007801
v -0.03567371 0.07344797 -0.01311859
v -0.02166636 0.07329250 0.01910875
v 0.00711801 0.07476519 -0.01872262
v -0.02308638 0.07513052 -0.00862077
v 0.00839243 0.07525323 -0.00108647
v -0.00671000 0.07364870 -0.02119255
v 0.00969018 0.07251652 0.01900296
v 0.01013100 0.05118096 0.00009200
v -0.04321976 0.06433109 -0.01885322
v -0.04633028 0.06580113 -0.00125555
v -0.04762085 0.06299552 -0.00096507
v -0.03889159 0.06638865 0.01853897
v -0.03810823 0.06305443 0.02009771
v -0.00812999 0.07032351 0.02010265
v -0.03047274 0.07347024 0.01389118
v -0.03552100 0.07364949 -0.01678533
v -0.03154693 0.07242768 0.01765834
v -0.01976804 0.07502555 -0.01796578
v 0.01003041 0.07519751 -0.00260300
v -0.04379213 0.06255315 -0.01873959
v -0.04430000 0.06648600 -0.01746800
v -0.04625920 0.06604576 -0.00710126
v -0.02443718 0.07513689 -0.01137086
v -0.03406768 0.07220340 0.01370132
v -0.04228499 0.06533546 -0.01881023
v -0.04656834 0.06439110 -0.01601787
v -0.03280895 0.07230372 0.01653813
vn 0.69117206 0.09598563 0.71628761
vn 0.65409411 -0.45906347 0.60118352
vn 0.57846982 0.09622090 -0.81000877
vn -0.15024419 0.27858542 -0.94858676
vn -0.67877522 -0.01632692 0.73416458
vn 0.69927728 0.71480747 -0.00784641
vn 0.69961987 -0.54828304 -0.45816781
vn -0.20288964 -0.23714299 0.95005210
vn 0.67841850 0.64941544 -0.34352282
vn -0.08681966 0.96753795 0.23734504
vn 0.71208759 -0.69902447 -0.06554423
vn -0.10755927 -0.18632154 -0.97658348
vn 0.55712564 -0.09946803 0.82444959
vn -0.08508321 0.02324445 0.99610268
vn 0.61201830 0.43178109 -0.66256977
vn -0.08442573 0.97211017 -0.21880152
vn 0.05340765 0.76102558 0.64651967
vn -0.35604083 -0.75720941 0.54760281
vn 0.00683457 0.24832499 -0.96865267
vn 0.62967111 -0.20539377 -0.74921806
vn -0.34959178 -0.80759691 -0.47494507
vn -0.31269480 0.53167629 0.78711008
vn 0.25045890 0.95728805 -0.14446425
vn -0.01375801 0.99895680 0.04354340
vn -0.14446326 0.67138292 -0.72689432
vn 0.67994715 0.71578237 0.15914610
vn 0.49573157 -0.82272716 0.27815504
vn -0.37469109 -0.92448444 0.07025027
vn -0.90117886 -0.07496568 -0.42691546
vn -0.16219351 0.22429428 0.96092941
vn -0.40655862 0.91272458 0.04054553
vn -0.04339510 0.71131479 0.70153270
vn 0.02648527 0.93793909 -0.34578720
vn -0.05288768 0.99801006 0.03433374
vn 0.04987514 0.99731364 0.05364667
vn -0.00386291 0.83894245 -0.54420643
vn 0.60945172 0.50359868 0.61233730
vn 0.49550548 -0.85362758 0.16060597
vn -0.39013655 0.18965914 -0.90101214
vn -0.76612793 0.62999274 0.12711073
vn -0.98578669 -0.09849497 0.13610048
vn -0.63628384 0.50288579 0.58502031
vn -0.20370251 0.21085790 0.95605660
vn -0.00416616 0.18184752 0.98331792
vn -0.19285965 0.97493335 0.11095096
vn -0.38472213 0.84214739 -0.37785797
vn -0.27350431 0.81511154 0.51067461
vn -0.01491415 0.94108249 -0.33784806
vn 0.59875363 0.79970129 0.04440652
vn -0.44397937 -0.13015585 -0.88653357
vn -0.60155869 0.59021938 -0.53830125
vn -0.77579643 0.63080319 -0.01507450
vn -0.08549773 0.99610927 0.02136476
vn -0.50137977 0.85152938 0.15334939
vn -0.33224748 0.37128936 -0.86703853
vn -0.79751435 0.56794024 -0.20350614
vn -0.45716730 0.83741704 0.29955095
f 7//7 6//6 1//1
f 9//9 6//6 7//7
f 11//11 7//7 1//1
f 11//11 1//1 2//2
f 13//13 8//8 2//2
f 13//13 2//2 1//1
f 13//13 1//1 8//8
f 14//14 8//8 1//1
f 14//14 5//5 8//8
f 15//15 9//9 7//7
f 18//18 2//2 8//8
f 18//18 8//8 5//5
f 19//19 12//12 4//4
f 19//19 3//3 12//12
f 19//19 15//15 3//3
f 19//19 4//4 15//15
f 20//20 12//12 3//3
f 20//20 15//15 7//7
f 20//20 3//3 15//15
f 21//21 7//7 11//11
f 21//21 20//20 7//7
f 21//21 12//12 20//20
f 23//23 16//16 6//6
f 23//23 6//6 9//9
f 24//24 6//6 16//16
f 24//24 10//10 17//17
f 25//25 15//15 4//4
f 26//26 1//1 6//6
f 27//27 2//2 18//18
f 28//28 21//21 11//11
f 32//32 17//17 10//10
f 32//32 22//22 30//30
f 33//33 23//23 9//9
f 35//35 24//24 17//17
f 35//35 6//6 24//24
f 35//35 17//17 26//26
f 36//36 9//9 15//15
f 36//36 15//15 25//25
f 36//36 33//33 9//9
f 37//37 26//26 17//17
f 37//37 17//17 1//1
f 37//37 1//1 26//26
f 38//38 27//27 18//18
f 38//38 11//11 2//2
f 38//38 2//2 27//27
f 38//38 28//28 11//11
f 38//38 18//18 28//28
f 39//39 4//4 12//12
f 41//41 29//29 21//21
f 41//41 21//21 28//28
f 41//41 28//28 18//18
f 41//41 18//18 5//5
f 42//42 30//30 22//22
f 42//42 5//5 30//30
f 42//42 41//41 5//5
f 42//42 40//40 41//41
f 43//43 30//30 5//5
f 43//43 5//5 14//14
f 43//43 14//14 30//30
f 44//44 30//30 14//14
f 44//44 14//14 1//1
f 44//44 32//32 30//30
f 44//44 1//1 17//17
f 44//44 17//17 32//32
f 45//45 10//10 24//24
f 45//45 24//24 34//34
f 46//46 16//16 25//25
f 46//46 31//31 45//45
f 47//47 32//32 10//10
f 47//47 22//22 32//32
f 47//47 10//10 45//45
f 47//47 42//42 22//22
f 48//48 16//16 23//23
f 48//48 23//23 33//33
f 48//48 33//33 36//36
f 48//48 36//36 25//25
f 48//48 25//25 16//16
f 49//49 35//35 26//26
f 49//49 26//26 6//6
f 49//49 6//6 35//35
f 50//50 39//39 12//12
f 50//50 12//12 21//21
f 50//50 21//21 29//29
f 50//50 29//29 39//39
f 51//51 25//25 4//4
f 51//51 46//46 25//25
f 51//51 39//39 29//29
f 52//52 41//41 40//40
f 52//52 29//29 41//41
f 52//52 46//46 51//51
f 52//52 40//40 31//31
f 52//52 31//31 46//46
f 53//53 45//45 34//34
f 53//53 46//46 45//45
f 53//53 16//16 46//46
f 53//53 34//34 24//24
f 53//53 24//24 16//16
f 54//54 40//40 42//42
f 54//54 31//31 40//40
f 54//54 45//45 31//31
f 55//55 51//51 4//4
f 55//55 4//4 39//39
f 55//55 39//39 51//51
f 56//56 52//52 51//51
f 56//56 51//51 29//29
f 56//56 29//29 52//52
f 57//57 54//54 42//42
f 57//57 42//42 47//47
f 57//57 47//47 45//45
f 57//57 45//45 54//54

