# https://github.com/mikedh/trimesh
v -0.04594509 0.01754625 0.01803850
v -0.04211002 -0.01001656 0.01272984
v -0.04222746 0.01609321 0.00311378
v -0.05671197 0.01740237 0.00325090
v -0.05499246 0.00254114 0.01656046
v -0.04862926 -0.01003953 0.00326991
v -0.04252997 0.01735862 0.00322456
v -0.04127789 0.01781364 0.01527754
v -0.04593866 0.00251231 0.01816962
v -0.05596237 0.01747263 0.01554392
v -0.04173896 -0.01000136 0.00325540
v -0.05697533 0.00262568 0.00326099
v -0.04862926 -0.01003953 0.01277079
v -0.04125433 0.01747351 0.01430544
v -0.05326162 0.00264625 0.01817488
v -0.04195498 0.01732721 0.01602049
v -0.05704165 0.00900692 0.00535005
v -0.05592585 0.00266234 0.01469086
v -0.05480104 0.01205020 0.01715177
v -0.04383531 0.00251037 0.01709835
v -0.05702396 0.00999280 0.00532459
v -0.05480381 0.00799795 0.01715483
v -0.05235929 0.01727568 0.01801008
v -0.04230334 0.00256168 0.01542144
v -0.05703464 0.00899731 0.00325838
v -0.05333327 0.01514253 0.01782857
v -0.05455619 0.01738196 0.01717411
v -0.05701952 0.01097867 0.00433459
v -0.05700346 0.01097506 0.00333198
vn 0.15985247 0.64123550 0.75050931
vn 0.58756773 -0.66656926 0.45874784
vn 0.67726262 0.10553022 -0.72813372
vn -0.58256219 0.58348690 -0.56583066
vn -0.77417344 -0.28180591 0.56678118
vn -0.37359275 -0.69712903 -0.61191468
vn 0.46850261 0.65026028 -0.59805257
vn 0.70178274 0.64285530 0.30698216
vn 0.20644721 -0.16803720 0.96392067
vn -0.70566160 0.64434281 0.29472707
vn 0.58302124 -0.57868809 -0.57026864
vn -0.75149638 -0.22389824 -0.62058261
vn -0.38650706 -0.79814510 0.46214358
vn 0.98432510 0.16776072 -0.05440991
vn -0.35480227 -0.23457849 0.90503496
vn 0.56903047 0.22862954 0.78989421
vn -0.99849926 -0.00609822 0.05442471
vn -0.92938123 -0.26452209 0.25744630
vn -0.65831608 0.01106764 0.75266025
vn 0.58305929 -0.10814530 0.80519964
vn -0.99820648 0.02991446 0.05185505
vn -0.73088106 -0.01419543 0.68235721
vn -0.13231449 0.59065590 0.79600156
vn 0.84491326 -0.07678727 0.52936310
vn -0.71163342 0.00064610 -0.70255068
vn -0.34054813 0.03301573 0.93964724
vn -0.43488424 0.64247941 0.63094842
vn -0.99917367 0.03794101 0.01457561
vn -0.96288969 0.03264286 -0.26791394
f 7//7 3//3 4//4
f 8//8 7//7 4//4
f 10//10 8//8 4//4
f 10//10 1//1 8//8
f 11//11 6//6 3//3
f 11//11 2//2 6//6
f 11//11 8//8 2//2
f 12//12 4//4 3//3
f 12//12 3//3 6//6
f 13//13 6//6 2//2
f 13//13 12//12 6//6
f 13//13 2//2 9//9
f 14//14 3//3 7//7
f 14//14 7//7 8//8
f 14//14 11//11 3//3
f 14//14 8//8 11//11
f 15//15 9//9 1//1
f 15//15 13//13 9//9
f 15//15 5//5 13//13
f 16//16 8//8 1//1
f 16//16 1//1 9//9
f 18//18 13//13 5//5
f 18//18 12//12 13//13
f 18//18 17//17 12//12
f 18//18 5//5 10//10
f 18//18 10//10 17//17
f 20//20 16//16 9//9
f 20//20 9//9 2//2
f 21//21 17//17 10//10
f 21//21 10//10 4//4
f 22//22 19//19 10//10
f 22//22 10//10 5//5
f 22//22 5//5 15//15
f 22//22 15//15 19//19
f 23//23 15//15 1//1
f 24//24 20//20 2//2
f 24//24 2//2 8//8
f 24//24 8//8 16//16
f 24//24 16//16 20//20
f 25//25 4//4 12//12
f 25//25 12//12 17//17
f 26//26 15//15 23//23
f 27//27 23//23 1//1
f 27//27 1//1 10//10
f 27//27 26//26 23//23
f 27//27 10//10 19//19
f 27//27 19//19 15//15
f 27//27 15//15 26//26
f 28//28 21//21 4//4
f 28//28 25//25 17//17
f 28//28 17//17 21//21
f 29//29 28//28 4//4
f 29//29 4//4 25//25
f 29//29 25//25 28//28

