# https://github.com/mikedh/trimesh
v -0.04705539 -0.00864880 0.01569695
v -0.04141951 -0.05540133 0.01214805
v -0.03904217 0.01598599 -0.01436765
v -0.05243613 0.00847114 -0.01575952
v -0.05717181 -0.05747285 0.01092074
v -0.04700107 -0.05740668 -0.01564732
v -0.05674164 0.00843131 -0.00007277
v -0.04310794 -0.00751605 0.01343097
v -0.05062384 -0.05371033 0.01673251
v -0.04248348 -0.05675934 -0.01217582
v -0.04693503 -0.00107654 -0.01678275
v -0.05700113 -0.05484210 -0.01052524
v -0.04561201 0.01585602 -0.01553655
v -0.05502212 -0.00642993 0.01323679
v -0.04495694 -0.05375285 0.01555867
v -0.03912157 0.01592720 -0.00747233
v -0.04895215 -0.06106825 0.01129457
v -0.04383311 -0.05057784 -0.01566647
v -0.03901205 0.01414526 -0.01370248
v -0.04959111 -0.03587521 -0.01686495
v -0.05581724 0.00835975 -0.01235219
v -0.05703889 -0.00847680 -0.00417218
v -0.05065325 -0.00009924 -0.01688694
v -0.05595551 -0.00630873 0.01136719
v -0.04293370 0.01607565 -0.00008793
v -0.05206556 -0.00843140 0.01566202
v -0.05433027 -0.05195588 0.01547594
v -0.04596639 -0.01371588 0.01557804
v -0.04134250 -0.05394572 0.01210227
v -0.05341306 -0.05846983 0.01460437
v -0.04603243 -0.05805904 0.01471847
v -0.04509823 -0.06000046 0.01109316
v -0.04885177 -0.06106586 -0.01120205
v -0.04320599 -0.05445143 -0.01480311
v -0.04684526 -0.03473452 -0.01676648
v -0.04251600 -0.05329928 -0.01420376
v -0.05307267 -0.05143297 -0.01564432
v -0.05523951 0.00860240 -0.01374262
v -0.05708707 -0.04966189 -0.01049923
v -0.05706454 -0.01692695 0.00312958
v -0.04786473 -0.03580364 -0.01691639
v -0.05589356 -0.00846525 0.01185002
v -0.05329129 -0.00632482 0.01485121
v -0.04596833 -0.00645876 0.01484596
v -0.04368952 0.01593303 -0.01490802
v -0.04963390 -0.04646012 0.01678752
v -0.05315934 -0.02240861 0.01563057
v -0.04386498 -0.00646070 0.01377469
v -0.04247706 -0.01579608 0.01228592
v -0.04147833 -0.05563171 0.01063873
v -0.05604367 -0.05920807 0.01112286
v -0.05509011 -0.05567140 0.01471011
v -0.04231198 -0.05664108 0.01291690
v -0.04805379 -0.05993852 0.01305890
v -0.04674318 -0.05731853 0.01555171
v -0.04594997 -0.05911915 -0.01388151
v -0.05399167 -0.05838693 -0.01383189
v -0.04496332 -0.05455972 -0.01560311
v -0.05165691 -0.01690042 -0.01678005
v -0.05150270 -0.05575134 -0.01580647
v -0.05400941 0.00845956 -0.01480591
v -0.05697471 -0.01903693 -0.00732300
v -0.05595145 -0.03063163 -0.01287297
v -0.05704381 -0.00743671 -0.00010944
vn 0.19825872 0.16203226 0.96666386
vn 0.91386406 -0.22545228 0.33767402
vn 0.62255922 0.59639167 -0.50669221
vn -0.36008663 0.21371233 -0.90811049
vn -0.92569796 -0.28761951 0.24567927
vn 0.14462229 -0.43891436 -0.88681372
vn -0.79846843 0.53325163 0.27944743
vn 0.79525967 0.11112649 0.59599744
vn -0.08631362 -0.13910775 0.98650849
vn 0.84685001 -0.47569851 -0.23781503
vn 0.15561946 0.02004019 -0.98761378
vn -0.92485791 -0.24840235 -0.28798285
vn -0.19374413 0.73480454 -0.65001961
vn -0.75952261 0.23348375 0.60713321
vn 0.46553047 -0.08180207 0.88124333
vn 0.74024160 0.65994749 0.12849782
vn 0.01027754 -0.96961460 0.24442154
vn 0.43860865 -0.05155456 -0.89719819
vn 0.99686946 -0.02558661 -0.07481041
vn -0.12837228 -0.02479812 -0.99141596
vn -0.89004430 0.41672638 -0.18482497
vn -0.99864223 0.01712471 -0.04919804
vn -0.20623156 0.03768736 -0.97777718
vn -0.94166024 0.13594697 0.30788701
vn 0.22943678 0.83360582 0.50245407
vn -0.21504612 0.15275154 0.96458392
vn -0.55055387 -0.01443311 0.83467486
vn 0.39101818 0.02270863 0.92010277
vn 0.92529574 -0.02557301 0.37838315
vn -0.32725805 -0.60817264 0.72320689
vn 0.36630993 -0.62889304 0.68579193
vn 0.51202660 -0.83343135 0.20789645
vn 0.03762613 -0.96872021 -0.24528644
vn 0.64530844 -0.26404746 -0.71683747
vn 0.23341584 -0.00732809 -0.97234939
vn 0.89579695 -0.09011417 -0.43523242
vn -0.52283674 -0.04681702 -0.85114623
vn -0.77393461 0.41053378 -0.48216931
vn -0.96486399 -0.00805769 -0.26262627
vn -0.99845272 0.01364542 0.05390697
vn 0.06955426 -0.02662115 -0.99722290
vn -0.92738461 0.02724271 0.37311610
vn -0.38932021 0.35693259 0.84913421
vn 0.24896999 0.36514396 0.89704171
vn -0.01185757 0.99763897 -0.06764525
vn 0.04214279 0.00746837 0.99908368
vn -0.48483509 0.02094705 0.87435471
vn 0.55914515 0.29302027 0.77556162
vn 0.96241117 0.02892829 0.27005164
vn 0.93204926 -0.36206342 -0.01393775
vn -0.61071020 -0.75071146 0.25192332
vn -0.65471790 -0.17678116 0.73491012
vn 0.74540851 -0.45985537 0.48259631
vn 0.12691832 -0.80730632 0.57632304
vn 0.21877611 -0.42527138 0.87822621
vn 0.38363269 -0.77467310 -0.50270026
vn -0.56916818 -0.60513364 -0.55665147
vn 0.27960752 -0.15240301 -0.94794143
vn -0.36890866 -0.00082543 -0.92946529
vn -0.23012619 -0.23256073 -0.94496425
vn -0.57138161 0.25557495 -0.77987467
vn -0.99570172 0.01388383 -0.09157142
vn -0.83210318 0.00136111 -0.55461918
vn -0.99969813 0.01457869 0.01977671
f 13//13 3//3 11//11
f 19//19 3//3 16//16
f 21//21 7//7 13//13
f 22//22 7//7 21//21
f 23//23 13//13 11//11
f 23//23 4//4 13//13
f 24//24 14//14 7//7
f 25//25 8//8 16//16
f 25//25 13//13 7//7
f 25//25 16//16 3//3
f 28//28 15//15 8//8
f 29//29 15//15 2//2
f 29//29 8//8 15//15
f 29//29 19//19 16//16
f 33//33 32//32 17//17
f 35//35 11//11 3//3
f 35//35 3//3 18//18
f 36//36 19//19 10//10
f 36//36 3//3 19//19
f 36//36 10//10 34//34
f 36//36 34//34 18//18
f 36//36 18//18 3//3
f 38//38 21//21 13//13
f 39//39 12//12 5//5
f 39//39 5//5 22//22
f 40//40 24//24 7//7
f 40//40 5//5 24//24
f 41//41 23//23 11//11
f 41//41 20//20 23//23
f 41//41 11//11 35//35
f 41//41 35//35 18//18
f 42//42 24//24 5//5
f 42//42 14//14 24//24
f 43//43 25//25 7//7
f 43//43 7//7 14//14
f 44//44 25//25 43//43
f 44//44 43//43 26//26
f 44//44 26//26 1//1
f 45//45 25//25 3//3
f 45//45 3//3 13//13
f 45//45 13//13 25//25
f 46//46 26//26 9//9
f 46//46 1//1 26//26
f 46//46 28//28 1//1
f 46//46 9//9 15//15
f 46//46 15//15 28//28
f 47//47 27//27 9//9
f 47//47 9//9 26//26
f 47//47 26//26 43//43
f 47//47 43//43 14//14
f 47//47 14//14 27//27
f 48//48 28//28 8//8
f 48//48 1//1 28//28
f 48//48 44//44 1//1
f 48//48 8//8 25//25
f 48//48 25//25 44//44
f 49//49 29//29 16//16
f 49//49 16//16 8//8
f 49//49 8//8 29//29
f 50//50 29//29 2//2
f 50//50 10//10 19//19
f 50//50 19//19 29//29
f 50//50 32//32 10//10
f 51//51 17//17 30//30
f 51//51 33//33 17//17
f 51//51 5//5 12//12
f 52//52 51//51 30//30
f 52//52 5//5 51//51
f 52//52 42//42 5//5
f 52//52 27//27 14//14
f 52//52 14//14 42//42
f 52//52 30//30 9//9
f 52//52 9//9 27//27
f 53//53 2//2 15//15
f 53//53 31//31 32//32
f 53//53 50//50 2//2
f 53//53 32//32 50//50
f 54//54 30//30 17//17
f 54//54 32//32 31//31
f 54//54 17//17 32//32
f 55//55 15//15 9//9
f 55//55 9//9 30//30
f 55//55 54//54 31//31
f 55//55 30//30 54//54
f 55//55 53//53 15//15
f 55//55 31//31 53//53
f 56//56 10//10 32//32
f 56//56 32//32 33//33
f 56//56 34//34 10//10
f 56//56 6//6 34//34
f 57//57 56//56 33//33
f 57//57 6//6 56//56
f 57//57 12//12 37//37
f 57//57 51//51 12//12
f 57//57 33//33 51//51
f 58//58 34//34 6//6
f 58//58 18//18 34//34
f 58//58 41//41 18//18
f 58//58 6//6 41//41
f 59//59 23//23 20//20
f 59//59 20//20 37//37
f 59//59 4//4 23//23
f 60//60 37//37 20//20
f 60//60 57//57 37//37
f 60//60 6//6 57//57
f 60//60 41//41 6//6
f 60//60 20//20 41//41
f 61//61 38//38 13//13
f 61//61 13//13 4//4
f 61//61 4//4 59//59
f 61//61 59//59 37//37
f 61//61 37//37 38//38
f 62//62 39//39 22//22
f 62//62 22//22 21//21
f 62//62 21//21 39//39
f 63//63 39//39 21//21
f 63//63 21//21 38//38
f 63//63 38//38 37//37
f 63//63 37//37 12//12
f 63//63 12//12 39//39
f 64//64 40//40 7//7
f 64//64 7//7 22//22
f 64//64 22//22 5//5
f 64//64 5//5 40//40

