# https://github.com/mikedh/trimesh
v -0.02370885 0.03485185 0.01581653
v -0.01066625 0.02391272 0.01043954
v -0.01948940 0.03624874 -0.01383158
v -0.04763333 0.03710026 -0.01581028
v -0.05103933 0.02449144 0.01237621
v -0.01828719 0.01815849 -0.01648774
v -0.02854446 0.03743992 0.01596739
v -0.01846124 0.03633605 0.01014027
v -0.01649996 0.02428886 0.01584788
v -0.01062905 0.02394242 -0.01124436
v -0.02177531 0.03162572 -0.01657841
v -0.05028680 0.02459228 -0.01358667
v -0.02201498 0.03668217 -0.01570042
v -0.05134001 0.03706693 0.01213799
v -0.02226608 0.03658120 0.01466469
v -0.04743625 0.02429449 0.01484237
v -0.02686074 0.03708541 0.01590085
v -0.01837055 0.01809234 -0.00834302
v -0.01111279 0.02565490 0.00302479
v -0.01807011 0.02025953 -0.01685395
v -0.05014264 0.03720497 -0.01420172
v -0.02342007 0.03198022 -0.01664236
v -0.01391373 0.02610968 -0.01560294
v -0.01853031 0.03627351 -0.01124633
v -0.05114356 0.02436624 -0.01122068
v -0.01997657 0.03425095 0.01465854
v -0.02035526 0.02452121 0.01589616
v -0.04963315 0.02440077 0.01400640
v -0.04949464 0.03720392 0.01360101
v -0.01188886 0.02374761 0.01321408
v -0.01430051 0.02999594 0.01046396
v -0.04748342 0.02446101 -0.01560357
v -0.01556872 0.02417189 -0.01685849
v -0.01940075 0.03514161 -0.01473885
v -0.01439783 0.02790603 -0.01484263
v -0.01753343 0.03522309 0.00225675
v -0.01114437 0.02565167 -0.00185950
v -0.03470276 0.01931223 -0.00849340
v -0.05097510 0.02651823 -0.01212113
v -0.01983236 0.03039162 0.01567773
v -0.02053191 0.03622847 0.01379002
v -0.04580380 0.03278511 0.01483468
v -0.04762449 0.02966474 0.01469726
v -0.01367360 0.02402420 0.01486783
v -0.01752043 0.03520575 0.00936701
v -0.01227877 0.02479292 0.01288954
v -0.04934065 0.03701181 -0.01487224
v -0.01839682 0.02904816 -0.01657591
v -0.01177120 0.02388295 -0.01437867
v -0.01532301 0.02801668 -0.01571216
v -0.02040557 0.03624152 -0.01478789
v -0.01443128 0.02888297 -0.01323850
v -0.01427631 0.02982542 -0.01023193
v -0.03497836 0.01941199 -0.01189078
v -0.05102647 0.03705492 -0.01126304
v -0.01652513 0.02533015 0.01572820
v -0.01741118 0.03299338 0.01282225
v -0.01409743 0.02691050 0.01370168
v -0.04905671 0.02444944 -0.01464995
v -0.01353601 0.02418594 -0.01594459
v -0.01663133 0.02745805 -0.01652291
v -0.05089563 0.03266071 -0.01208848
v -0.01654218 0.03307887 0.01106099
v -0.01848175 0.03520266 0.01202872
vn 0.19420971 0.19854935 0.96065641
vn 0.93775016 -0.26668409 0.22249547
vn 0.54654283 0.77126217 -0.32626002
vn -0.19247932 0.63967207 -0.74415816
vn -0.77241796 -0.56321975 0.29352005
vn 0.23680689 -0.76345943 -0.60087620
vn 0.02362232 0.70804893 0.70576816
vn 0.52618641 0.83844334 0.14191768
vn 0.14196313 -0.54081645 0.82907421
vn 0.97513228 -0.15966718 -0.15369914
vn 0.08984497 0.13717748 -0.98646349
vn -0.69798157 -0.52313795 -0.48902802
vn 0.18498029 0.74528450 -0.64057264
vn -0.73563305 0.59358536 0.32634404
vn 0.30301274 0.76638012 0.56643163
vn -0.18656089 -0.60818981 0.77155699
vn 0.16517565 0.54484401 0.82210827
vn 0.25417909 -0.96466210 0.06942640
vn 0.90914866 0.41628593 0.01243943
vn 0.10415164 -0.12598547 -0.98654959
vn -0.62153918 0.65076918 -0.43610610
vn 0.01224120 0.10195016 -0.99471419
vn 0.60051239 0.33540968 -0.72586860
vn 0.55542272 0.82435365 -0.10930083
vn -0.80132198 -0.58063250 -0.14404507
vn 0.49664910 0.37303529 0.78369914
vn -0.01531483 -0.31196520 0.94997009
vn -0.47815447 -0.58840897 0.65203005
vn -0.32229709 0.68042374 0.65813990
vn 0.71623698 -0.42727741 0.55175955
vn 0.82615108 0.51548067 0.22749522
vn -0.29548554 -0.46664280 -0.83362629
vn 0.26371990 -0.00196450 -0.96459730
vn 0.60520182 0.46055526 -0.64932243
vn 0.74079048 0.48153867 -0.46834814
vn 0.79437403 0.60739808 -0.00612113
vn 0.89470169 0.44639814 -0.01541359
vn -0.16213101 -0.98525095 0.05471843
vn -0.95611864 -0.01175924 -0.29274370
vn 0.27790709 0.19473869 0.94066173
vn 0.48790388 0.72672596 0.48354853
vn -0.13217259 0.08966102 0.98716326
vn -0.26040032 0.03463646 0.96487926
vn 0.45795480 -0.44509965 0.76952174
vn 0.81037936 0.58001664 0.08286129
vn 0.77859844 0.45188560 0.43541230
vn -0.52364863 0.30147019 -0.79681105
vn 0.15062255 0.16038373 -0.97549470
vn 0.86346247 -0.12066724 -0.48976728
vn 0.53216806 0.36990845 -0.76155426
vn 0.52481044 0.61481483 -0.58870768
vn 0.80709295 0.51860096 -0.28223044
vn 0.83911043 0.53940894 -0.07022599
vn -0.20039066 -0.95319199 -0.22642575
vn -0.78099390 0.61600756 -0.10287480
vn 0.28765332 0.17349984 0.94188820
vn 0.71571820 0.48099768 0.50634839
vn 0.68288888 0.42759596 0.59230438
vn -0.51728469 -0.56563309 -0.64224275
vn 0.56351834 -0.03700653 -0.82527426
vn 0.30163403 0.22506751 -0.92647802
vn -0.96311003 0.01506283 -0.26868601
vn 0.78860030 0.52266295 0.32393365
vn 0.71227836 0.56520559 0.41617565
f 13//13 7//7 8//8
f 15//15 8//8 7//7
f 17//17 9//9 1//1
f 17//17 7//7 9//9
f 17//17 15//15 7//7
f 17//17 1//1 15//15
f 18//18 10//10 2//2
f 18//18 6//6 10//10
f 18//18 9//9 16//16
f 19//19 2//2 10//10
f 21//21 13//13 4//4
f 21//21 7//7 13//13
f 22//22 13//13 11//11
f 22//22 4//4 13//13
f 22//22 20//20 4//4
f 24//24 13//13 8//8
f 24//24 3//3 13//13
f 25//25 5//5 14//14
f 26//26 15//15 1//1
f 27//27 16//16 9//9
f 27//27 9//9 7//7
f 27//27 7//7 16//16
f 28//28 14//14 5//5
f 29//29 14//14 28//28
f 29//29 21//21 14//14
f 29//29 7//7 21//21
f 30//30 18//18 2//2
f 31//31 2//2 19//19
f 32//32 4//4 20//20
f 32//32 20//20 6//6
f 33//33 22//22 11//11
f 33//33 20//20 22//22
f 33//33 6//6 20//20
f 35//35 34//34 3//3
f 36//36 24//24 8//8
f 37//37 19//19 10//10
f 37//37 36//36 19//19
f 37//37 24//24 36//36
f 38//38 5//5 25//25
f 38//38 28//28 5//5
f 38//38 18//18 16//16
f 38//38 16//16 28//28
f 38//38 6//6 18//18
f 39//39 21//21 12//12
f 39//39 12//12 25//25
f 40//40 26//26 1//1
f 41//41 8//8 15//15
f 41//41 15//15 26//26
f 42//42 16//16 7//7
f 42//42 7//7 29//29
f 43//43 29//29 28//28
f 43//43 28//28 16//16
f 43//43 42//42 29//29
f 43//43 16//16 42//42
f 44//44 9//9 18//18
f 44//44 18//18 30//30
f 45//45 31//31 19//19
f 45//45 8//8 31//31
f 45//45 36//36 8//8
f 45//45 19//19 36//36
f 46//46 30//30 2//2
f 46//46 2//2 31//31
f 47//47 21//21 4//4
f 47//47 4//4 32//32
f 48//48 33//33 11//11
f 48//48 11//11 13//13
f 49//49 10//10 6//6
f 49//49 35//35 10//10
f 49//49 23//23 35//35
f 50//50 13//13 34//34
f 50//50 35//35 23//23
f 50//50 34//34 35//35
f 51//51 34//34 13//13
f 51//51 13//13 3//3
f 51//51 3//3 34//34
f 52//52 24//24 10//10
f 52//52 10//10 35//35
f 52//52 35//35 3//3
f 52//52 3//3 24//24
f 53//53 37//37 10//10
f 53//53 10//10 24//24
f 53//53 24//24 37//37
f 54//54 38//38 25//25
f 54//54 25//25 12//12
f 54//54 32//32 6//6
f 54//54 6//6 38//38
f 55//55 39//39 25//25
f 55//55 25//25 14//14
f 55//55 14//14 21//21
f 56//56 40//40 1//1
f 56//56 1//1 9//9
f 56//56 9//9 44//44
f 56//56 44//44 26//26
f 56//56 26//26 40//40
f 57//57 41//41 26//26
f 58//58 44//44 30//30
f 58//58 26//26 44//44
f 58//58 57//57 26//26
f 58//58 30//30 46//46
f 58//58 46//46 57//57
f 59//59 47//47 32//32
f 59//59 12//12 21//21
f 59//59 21//21 47//47
f 59//59 54//54 12//12
f 59//59 32//32 54//54
f 60//60 23//23 49//49
f 60//60 49//49 6//6
f 60//60 6//6 33//33
f 61//61 48//48 13//13
f 61//61 13//13 50//50
f 61//61 33//33 48//48
f 61//61 50//50 23//23
f 61//61 60//60 33//33
f 61//61 23//23 60//60
f 62//62 55//55 21//21
f 62//62 21//21 39//39
f 62//62 39//39 55//55
f 63//63 31//31 8//8
f 63//63 57//57 46//46
f 63//63 46//46 31//31
f 64//64 8//8 41//41
f 64//64 41//41 57//57
f 64//64 63//63 8//8
f 64//64 57//57 63//63

