# https://github.com/mikedh/trimesh
v 0.05194709 0.05968355 0.01318178
v 0.05653609 -0.01005181 -0.00046761
v 0.05639975 0.05600493 -0.01330061
v 0.04714799 0.05422582 -0.01725032
v 0.03715148 -0.01029423 -0.00840145
v 0.05366469 -0.01006575 -0.01618350
v 0.04647023 0.06060405 -0.01158427
v 0.05748163 0.05674234 0.00980302
v 0.04528886 0.02366492 0.01439935
v 0.05634436 0.00262561 -0.01086601
v 0.05338186 0.05624931 -0.01622619
v 0.03745487 -0.01023500 -0.01395066
v 0.03954863 -0.01055491 -0.01416506
v 0.05298598 0.06041640 -0.01092618
v 0.04190514 -0.01026525 -0.00040642
v 0.04181334 0.05718528 0.01169322
v 0.05386009 0.02375633 0.01423440
v 0.05519022 0.00490146 -0.01487533
v 0.05525229 -0.01002651 -0.01375630
v 0.05757465 0.05663837 0.00758278
v 0.05254165 0.00478920 -0.01723965
v 0.04625023 0.05878381 -0.01514409
v 0.04811488 -0.01002087 -0.01723489
v 0.04532986 0.06293994 0.00978614
v 0.05346038 0.05934059 -0.01377159
v 0.05474173 0.06081852 0.01128978
v 0.04266585 0.02375347 0.01225119
v 0.05006173 0.02361651 0.01534957
v 0.04183997 0.05401309 -0.01366608
v 0.05485053 0.05417055 0.01297084
v 0.05644701 0.02375571 0.01089381
v 0.05618270 0.05231191 -0.01355526
v 0.05639810 -0.01009100 -0.00463909
v 0.05444951 -0.01009026 -0.01547845
v 0.05107045 0.04999649 -0.01727605
v 0.05193079 0.05804525 -0.01608359
v 0.05085624 -0.01002266 -0.01723287
v 0.04645656 -0.00676639 -0.01717545
v 0.04915850 0.06044509 -0.01367563
v 0.04543074 0.05967779 0.01315060
v 0.05627176 0.05779268 -0.01182413
v 0.05453569 0.05717826 -0.01509323
v 0.05635742 0.05966051 0.00887296
v 0.04858683 0.06274418 0.01038788
v 0.04370941 0.02375077 0.01315684
v 0.04187052 0.02591658 0.01047215
v 0.04916311 0.02374492 0.01528379
v 0.03696070 -0.00822799 -0.01328030
v 0.04280656 0.05693513 -0.01375864
v 0.04446832 0.05640201 -0.01617437
v 0.05560286 0.02366189 0.01273576
v 0.05012457 0.05213009 0.01423596
v 0.05529805 0.05945310 0.01218716
v 0.05002417 0.05319699 -0.01729708
v 0.05250768 0.00995183 -0.01722398
v 0.04613856 0.05004231 -0.01719596
v 0.05181136 0.06037368 -0.01283256
v 0.04616282 0.05932440 -0.01459682
v 0.05268721 0.05941882 -0.01432973
v 0.04251063 0.05970793 0.01159259
v 0.04363134 0.05813194 0.01300723
v 0.05473931 0.05933703 -0.01173948
v 0.05275221 0.05849625 -0.01548775
v 0.05520156 0.05702300 -0.01433828
vn 0.14130710 0.42995538 0.89172343
vn 0.61573009 -0.66467281 0.42318614
vn 0.89993400 0.14058436 -0.41274063
vn -0.12136951 0.16389943 -0.97898234
vn -0.73991490 -0.65081260 0.17020251
vn 0.39413305 -0.65003793 -0.64969980
vn -0.36695260 0.91174680 -0.18456314
vn 0.93368467 0.15978197 0.32047254
vn -0.40689127 -0.16357262 0.89871213
vn 0.98690182 -0.01831242 -0.16027931
vn 0.44907129 0.16427835 -0.87826397
vn -0.62521354 -0.58184600 -0.52015696
vn -0.11310173 -0.94376713 -0.31066315
vn 0.32300220 0.93815647 -0.12462747
vn -0.39175984 -0.72491279 0.56659127
vn -0.89280553 0.13567905 0.42952238
vn 0.45677273 -0.15048893 0.87676209
vn 0.84413455 -0.00776113 -0.53607521
vn 0.73915150 -0.63941569 -0.21166636
vn 0.98347697 0.18082374 -0.00870743
vn 0.35937332 -0.00151429 -0.93319265
vn -0.20596169 0.60091638 -0.77232072
vn -0.07618671 -0.62713613 -0.77517473
vn -0.35434155 0.90600930 0.23149343
vn 0.50519344 0.75773129 -0.41306522
vn 0.47427929 0.79957357 0.36843080
vn -0.79670568 -0.10547166 0.59509309
vn 0.08723862 -0.19006990 0.97788693
vn -0.91915703 0.15468451 -0.36224722
vn 0.51858277 0.04867719 0.85364070
vn 0.96024236 -0.05635445 0.27342051
vn 0.71521996 0.00492214 -0.69888210
vn 0.71334284 -0.69949041 -0.04307156
vn 0.60000488 -0.66192361 -0.44927863
vn 0.20599183 0.01360142 -0.97845918
vn 0.13222066 0.48610630 -0.86383932
vn 0.12876877 -0.63925412 -0.75813770
vn -0.19851065 -0.03624686 -0.97942825
vn -0.01401541 0.90264443 -0.43015880
vn -0.17779191 0.43520664 0.88260139
vn 0.86024775 0.46171095 -0.21632568
vn 0.65509248 0.34988739 -0.66965115
vn 0.78049571 0.62161319 0.06650936
vn 0.10153702 0.93143555 0.34945392
vn -0.63209735 -0.13188164 0.76358377
vn -0.94410300 -0.02305831 0.32884319
vn -0.15087431 -0.16749593 0.97425975
vn -0.94541798 -0.01362585 -0.32557515
vn -0.80320322 0.49735251 -0.32787967
vn -0.47778230 0.34799900 -0.80661067
vn 0.77827433 -0.11358780 0.61756529
vn 0.04992219 0.06012184 0.99694189
vn 0.60645343 0.37188290 0.70279254
vn 0.09942564 0.09326914 -0.99066413
vn 0.37815226 0.00536866 -0.92572785
vn -0.26500225 0.01382919 -0.96414862
vn 0.20580368 0.94187297 -0.26555629
vn -0.35802457 0.77400375 -0.52224189
vn 0.29071499 0.80612404 -0.51541132
vn -0.76017677 0.50728413 0.40594838
vn -0.41126869 0.17030684 0.89546281
vn 0.58969051 0.77755753 -0.21833319
vn 0.34974214 0.62488508 -0.69799647
vn 0.72739295 0.43240689 -0.53284499
f 13//13 5//5 12//12
f 15//15 13//13 2//2
f 15//15 5//5 13//13
f 18//18 3//3 10//10
f 19//19 18//18 10//10
f 20//20 8//8 2//2
f 20//20 2//2 10//10
f 20//20 10//10 3//3
f 21//21 18//18 6//6
f 21//21 11//11 18//18
f 23//23 13//13 12//12
f 27//27 5//5 15//15
f 28//28 15//15 2//2
f 28//28 2//2 17//17
f 30//30 28//28 17//17
f 31//31 2//2 8//8
f 32//32 18//18 11//11
f 32//32 11//11 3//3
f 32//32 3//3 18//18
f 33//33 19//19 10//10
f 33//33 10//10 2//2
f 33//33 2//2 13//13
f 34//34 6//6 18//18
f 34//34 18//18 19//19
f 34//34 19//19 33//33
f 34//34 33//33 13//13
f 34//34 13//13 6//6
f 37//37 6//6 13//13
f 37//37 13//13 23//23
f 37//37 21//21 6//6
f 38//38 23//23 12//12
f 38//38 4//4 23//23
f 39//39 7//7 24//24
f 39//39 36//36 22//22
f 41//41 20//20 3//3
f 42//42 3//3 11//11
f 42//42 25//25 41//41
f 43//43 8//8 20//20
f 43//43 20//20 41//41
f 44//44 1//1 26//26
f 44//44 40//40 1//1
f 44//44 24//24 40//40
f 44//44 26//26 14//14
f 45//45 27//27 15//15
f 45//45 15//15 9//9
f 45//45 9//9 16//16
f 45//45 16//16 27//27
f 46//46 27//27 16//16
f 46//46 16//16 5//5
f 46//46 5//5 27//27
f 47//47 9//9 15//15
f 47//47 15//15 28//28
f 48//48 29//29 12//12
f 48//48 12//12 5//5
f 48//48 5//5 16//16
f 48//48 16//16 29//29
f 49//49 24//24 7//7
f 50//50 12//12 29//29
f 50//50 29//29 49//49
f 50//50 36//36 4//4
f 50//50 22//22 36//36
f 51//51 30//30 17//17
f 51//51 8//8 30//30
f 51//51 31//31 8//8
f 51//51 17//17 2//2
f 51//51 2//2 31//31
f 52//52 30//30 1//1
f 52//52 28//28 30//30
f 52//52 1//1 40//40
f 52//52 47//47 28//28
f 53//53 26//26 1//1
f 53//53 1//1 30//30
f 53//53 30//30 8//8
f 53//53 43//43 26//26
f 53//53 8//8 43//43
f 54//54 11//11 35//35
f 54//54 36//36 11//11
f 54//54 4//4 36//36
f 54//54 23//23 4//4
f 54//54 37//37 23//23
f 54//54 35//35 21//21
f 54//54 21//21 37//37
f 55//55 35//35 11//11
f 55//55 11//11 21//21
f 55//55 21//21 35//35
f 56//56 38//38 12//12
f 56//56 4//4 38//38
f 56//56 50//50 4//4
f 56//56 12//12 50//50
f 57//57 39//39 24//24
f 57//57 14//14 25//25
f 57//57 44//44 14//14
f 57//57 24//24 44//44
f 58//58 39//39 22//22
f 58//58 7//7 39//39
f 58//58 49//49 7//7
f 58//58 50//50 49//49
f 58//58 22//22 50//50
f 59//59 57//57 25//25
f 59//59 39//39 57//57
f 60//60 40//40 24//24
f 60//60 24//24 49//49
f 60//60 49//49 29//29
f 60//60 29//29 16//16
f 61//61 16//16 9//9
f 61//61 9//9 47//47
f 61//61 52//52 40//40
f 61//61 47//47 52//52
f 61//61 60//60 16//16
f 61//61 40//40 60//60
f 62//62 41//41 25//25
f 62//62 25//25 14//14
f 62//62 43//43 41//41
f 62//62 14//14 26//26
f 62//62 26//26 43//43
f 63//63 42//42 11//11
f 63//63 11//11 36//36
f 63//63 36//36 39//39
f 63//63 39//39 59//59
f 63//63 59//59 25//25
f 63//63 25//25 42//42
f 64//64 42//42 41//41
f 64//64 41//41 3//3
f 64//64 3//3 42//42

