# https://github.com/mikedh/trimesh
v -0.00436127 0.01344450 0.01591651
v 0.02424212 -0.02867999 0.01616954
v 0.02417331 -0.01678585 -0.01134451
v -0.00722825 0.01370770 -0.01689795
v -0.01883234 0.00939260 -0.00791576
v 0.00102527 0.01285033 -0.00592270
v 0.02444829 -0.01838824 0.01322595
v 0.00876254 -0.02241366 0.01441965
v -0.01816714 0.01419401 0.01077295
v 0.01448064 -0.02821480 -0.01551314
v -0.00089138 0.01306521 -0.01459660
v 0.00556405 0.00043397 0.01595494
v 0.02418151 -0.02865359 -0.01556094
v 0.00009760 0.01287928 0.01234439
v 0.00310417 0.01084924 0.00121351
v 0.00162571 -0.00902512 0.01586243
v -0.00923905 0.01380249 0.01614973
v -0.01859059 0.01383892 -0.00824643
v 0.00768734 -0.02559664 0.00525558
v -0.00830282 0.00678948 -0.01537265
v -0.00000622 0.01288447 -0.01291587
v -0.00189026 0.01330728 -0.01532071
v -0.00255739 0.01330547 0.01512140
v 0.02465384 -0.02051120 0.01395385
v 0.01625848 -0.02844046 0.01605000
v 0.01905252 -0.02847019 -0.01646140
v 0.00204520 0.01062454 0.01161522
v 0.00090385 0.01291495 0.00534445
v -0.01555294 0.01251021 0.01318991
v -0.01876704 0.00939308 -0.00797839
v -0.01661306 0.01125314 0.00952335
v 0.00989140 -0.02772219 -0.00789023
v 0.00165699 -0.00729029 -0.01634307
v 0.00215575 0.01070543 -0.01089285
v 0.01316966 -0.01308149 -0.01644501
v 0.02401268 -0.01762355 -0.01207607
v 0.02421785 -0.02764697 0.01601858
v 0.01196406 -0.02762225 0.01339881
v 0.00708282 -0.01739259 0.01585245
v -0.01723682 0.01389232 0.01227967
v -0.01316132 0.01379257 0.01511739
v -0.00849860 0.00775828 -0.01558671
v 0.00019728 -0.00777822 -0.01543977
v 0.00663546 -0.02453423 0.00255360
v 0.01069812 -0.02776649 -0.01080282
v 0.00977508 -0.02773209 0.00728826
v 0.01435790 -0.02504308 -0.01640121
v -0.00364443 0.01322900 -0.01630353
v 0.02011873 -0.02731163 -0.01643107
v 0.02393991 -0.02677139 -0.01518985
v 0.01355066 -0.02787708 0.01495216
v 0.00678173 -0.02247581 0.01062619
v -0.00082423 -0.00667876 0.01514403
v -0.01285816 0.01198012 0.01483958
v -0.00664970 0.00564478 0.01588371
v -0.01490101 0.01396459 0.01410003
v -0.00691079 0.00764626 -0.01635180
v 0.01280271 -0.02788959 -0.01425952
v 0.00581750 -0.01354277 -0.01634735
v -0.00717604 0.00271579 -0.01441506
v 0.00663587 -0.02457317 0.00331431
v 0.01731234 -0.02827174 -0.01634623
v 0.01940426 -0.02346332 -0.01624343
v 0.01172313 -0.02675246 0.01409406
vn 0.15567761 0.70563870 0.69125864
vn 0.56077171 -0.57612690 0.59465358
vn 0.88861697 0.36891746 -0.27250649
vn -0.18955678 0.63233688 -0.75114466
vn -0.91132929 -0.28307348 -0.29891192
vn 0.51255572 0.85770721 -0.04031101
vn 0.83152204 0.37303537 0.41160140
vn -0.65829784 -0.47088754 0.58728944
vn -0.82711970 0.48034347 0.29179301
vn -0.30784473 -0.77055688 -0.55809830
vn 0.52642566 0.76563648 -0.36969827
vn 0.26430435 0.19774028 0.94395021
vn 0.62502799 -0.55835676 -0.54550686
vn 0.53795878 0.80648820 0.24531029
vn 0.75456969 0.65596499 0.01828975
vn -0.34510224 -0.22349183 0.91156780
vn -0.07615329 0.65693639 0.75009017
vn -0.69560932 0.61933984 -0.36406844
vn -0.77515744 -0.62049834 0.11879712
vn -0.55085381 -0.30228514 -0.77793559
vn 0.56062451 0.81293267 -0.15760909
vn 0.36892449 0.78939248 -0.49066713
vn 0.36582839 0.78602746 0.49832762
vn 0.83465111 0.16153938 0.52655726
vn -0.14102865 -0.70635323 0.69366853
vn -0.00493922 -0.70078257 -0.71335783
vn 0.77538559 0.61679055 0.13544964
vn 0.47993748 0.87623935 0.04318119
vn -0.62403218 -0.34862276 0.69931825
vn -0.64938402 -0.20343868 -0.73274355
vn -0.81508816 -0.53708675 0.21718452
vn -0.50536342 -0.85942234 -0.07746646
vn -0.28458387 -0.17969542 -0.94165895
vn 0.76802054 0.62862590 -0.12236801
vn 0.27010543 0.16768190 -0.94811699
vn 0.73642955 0.25935281 -0.62482609
vn 0.58284804 0.14256864 0.79997647
vn -0.53746322 -0.78710571 0.30265145
vn -0.37425314 -0.25133946 0.89261585
vn -0.75601170 0.23331251 0.61156487
vn -0.33991554 0.47388579 0.81233594
vn -0.53534943 -0.17566930 -0.82616057
vn -0.54935035 -0.35690996 -0.75553258
vn -0.77530616 -0.63033066 -0.03979473
vn -0.51516150 -0.83040808 -0.21220519
vn -0.50373039 -0.85725695 0.10661244
vn -0.20060091 -0.15838199 -0.96678561
vn 0.26246095 0.56375257 -0.78313300
vn 0.14720594 -0.00562588 -0.98908986
vn 0.55742738 0.23581683 -0.79603087
vn -0.42005687 -0.73305949 0.53495421
vn -0.77824273 -0.55349692 0.29661323
vn -0.59048434 -0.38127355 0.71130775
vn -0.46203556 -0.25740251 0.84868551
vn -0.24750059 -0.13896646 0.95887005
vn -0.43397238 0.58534715 0.68486253
vn -0.32619547 -0.15171033 -0.93304903
vn -0.52648340 -0.73235558 -0.43182234
vn -0.28588545 -0.19773772 -0.93764029
vn -0.59169299 -0.34244002 -0.72981795
vn -0.77506915 -0.63005123 0.04799226
vn -0.14858980 -0.57922814 -0.80150848
vn 0.24597481 0.12604972 -0.96104519
vn -0.66007379 -0.51831538 0.54373869
f 15//15 7//7 3//3
f 15//15 3//3 6//6
f 17//17 1//1 4//4
f 17//17 4//4 9//9
f 17//17 12//12 1//1
f 17//17 2//2 12//12
f 18//18 9//9 4//4
f 18//18 5//5 9//9
f 21//21 11//11 6//6
f 21//21 3//3 11//11
f 22//22 4//4 1//1
f 22//22 6//6 11//11
f 23//23 12//12 7//7
f 23//23 1//1 12//12
f 23//23 7//7 14//14
f 23//23 22//22 1//1
f 24//24 7//7 12//12
f 24//24 2//2 13//13
f 24//24 13//13 3//3
f 24//24 3//3 7//7
f 25//25 13//13 2//2
f 25//25 17//17 16//16
f 25//25 2//2 17//17
f 26//26 25//25 10//10
f 26//26 13//13 25//25
f 27//27 15//15 14//14
f 27//27 14//14 7//7
f 27//27 7//7 15//15
f 28//28 15//15 6//6
f 28//28 14//14 15//15
f 28//28 23//23 14//14
f 28//28 6//6 22//22
f 28//28 22//22 23//23
f 30//30 18//18 4//4
f 30//30 5//5 18//18
f 31//31 9//9 5//5
f 31//31 5//5 19//19
f 34//34 21//21 6//6
f 34//34 6//6 3//3
f 34//34 3//3 21//21
f 36//36 22//22 11//11
f 36//36 11//11 3//3
f 36//36 35//35 22//22
f 36//36 3//3 13//13
f 37//37 24//24 12//12
f 37//37 12//12 2//2
f 37//37 2//2 24//24
f 39//39 25//25 16//16
f 40//40 8//8 29//29
f 42//42 30//30 4//4
f 42//42 20//20 30//30
f 43//43 5//5 30//30
f 43//43 42//42 33//33
f 43//43 20//20 42//42
f 44//44 5//5 32//32
f 45//45 32//32 5//5
f 45//45 10//10 32//32
f 46//46 32//32 10//10
f 46//46 10//10 25//25
f 47//47 4//4 26//26
f 48//48 35//35 4//4
f 48//48 4//4 22//22
f 48//48 22//22 35//35
f 49//49 26//26 4//4
f 49//49 4//4 35//35
f 49//49 13//13 26//26
f 50//50 36//36 13//13
f 50//50 13//13 35//35
f 50//50 35//35 36//36
f 51//51 39//39 8//8
f 51//51 25//25 39//39
f 51//51 46//46 25//25
f 51//51 38//38 46//46
f 52//52 38//38 8//8
f 52//52 9//9 31//31
f 52//52 46//46 38//38
f 52//52 31//31 19//19
f 52//52 19//19 46//46
f 52//52 40//40 9//9
f 52//52 8//8 40//40
f 53//53 29//29 8//8
f 53//53 8//8 39//39
f 53//53 39//39 16//16
f 53//53 16//16 29//29
f 54//54 29//29 16//16
f 55//55 16//16 17//17
f 55//55 17//17 41//41
f 55//55 54//54 16//16
f 55//55 41//41 54//54
f 56//56 40//40 29//29
f 56//56 54//54 41//41
f 56//56 29//29 54//54
f 56//56 9//9 40//40
f 56//56 41//41 17//17
f 56//56 17//17 9//9
f 57//57 42//42 4//4
f 57//57 4//4 33//33
f 57//57 33//33 42//42
f 58//58 43//43 10//10
f 58//58 5//5 43//43
f 58//58 45//45 5//5
f 58//58 10//10 45//45
f 59//59 43//43 33//33
f 59//59 10//10 43//43
f 59//59 47//47 10//10
f 59//59 33//33 4//4
f 59//59 4//4 47//47
f 60//60 43//43 30//30
f 60//60 30//30 20//20
f 60//60 20//20 43//43
f 61//61 19//19 5//5
f 61//61 5//5 44//44
f 61//61 46//46 19//19
f 61//61 44//44 32//32
f 61//61 32//32 46//46
f 62//62 47//47 26//26
f 62//62 26//26 10//10
f 62//62 10//10 47//47
f 63//63 49//49 35//35
f 63//63 35//35 13//13
f 63//63 13//13 49//49
f 64//64 51//51 8//8
f 64//64 8//8 38//38
f 64//64 38//38 51//51

