# https://github.com/mikedh/trimesh
v 0.04946549 -0.04252667 0.01639359
v 0.05398023 -0.06490798 0.01266400
v 0.05234407 -0.04238435 -0.01362092
v 0.02511815 -0.04205971 -0.01536327
v 0.02306494 -0.04188443 0.01386544
v 0.04375011 -0.06858744 -0.01354859
v 0.05393416 -0.04251381 0.01255517
v 0.03965735 -0.06595304 0.01641011
v 0.02108916 -0.04180804 -0.00974983
v 0.05281369 -0.06528369 -0.01271830
v 0.04660147 -0.06131104 -0.01635471
v 0.05203287 -0.04347809 0.01522458
v 0.05139871 -0.04243047 0.01556031
v 0.04924739 -0.06532842 0.01634940
v 0.02778594 -0.04240471 0.01626420
v 0.05401179 -0.04233018 -0.00153890
v 0.02321802 -0.04186756 -0.01378909
v 0.03315081 -0.06159344 0.00877595
v 0.05113214 -0.06964736 -0.00260785
v 0.03682299 -0.06104599 -0.01526117
v 0.05042162 -0.04236095 -0.01539059
v 0.04965702 -0.06606962 -0.01503481
v 0.05386965 -0.05511042 0.01360425
v 0.02506274 -0.04210317 0.01559350
v 0.04448600 -0.04979332 0.01736165
v 0.05030219 -0.06440326 0.01605234
v 0.05388545 -0.06051228 -0.00765141
v 0.05297246 -0.04232989 -0.01095144
v 0.03731365 -0.06573051 0.01391920
v 0.01998382 -0.04184719 0.00554516
v 0.05386677 -0.06542664 -0.00674870
v 0.05147068 -0.06952980 0.01161475
v 0.04164038 -0.06598079 -0.01513037
v 0.04038724 -0.06025522 -0.01630562
v 0.02635165 -0.04495603 -0.01526781
v 0.03710189 -0.06571228 -0.01248430
v 0.05196196 -0.06405287 -0.01424068
v 0.04945009 -0.06960522 -0.01054313
v 0.05282005 -0.04452029 0.01444350
v 0.02786003 -0.04807202 0.01551738
v 0.02879841 -0.04723209 0.01608775
v 0.03896979 -0.06495414 0.01651185
v 0.05028229 -0.04339658 0.01611896
v 0.05206800 -0.06329037 0.01515923
v 0.05110698 -0.06636071 0.01501064
v 0.05389967 -0.06331943 -0.00784557
v 0.05274720 -0.05520697 -0.01268269
v 0.02204389 -0.04189184 0.01188030
v 0.03317689 -0.06057605 0.01175584
v 0.05193384 -0.06875123 -0.00774115
v 0.04160046 -0.06850387 0.01460117
v 0.05286526 -0.06802937 0.01189508
v 0.04276480 -0.06789812 -0.01411111
v 0.04561260 -0.06232927 -0.01630440
v 0.03988179 -0.06514542 -0.01496140
v 0.03822917 -0.05401508 -0.01634919
v 0.02782056 -0.05099491 -0.01235336
v 0.03817019 -0.06477464 -0.01432524
v 0.02667787 -0.04701939 -0.01435569
v 0.02358785 -0.04786501 -0.00145366
v 0.03798606 -0.06744973 0.00553744
v 0.05187883 -0.05521191 -0.01423233
v 0.05112144 -0.06647290 -0.01413457
v 0.05034331 -0.06525100 -0.01502873
vn 0.15773923 0.63122487 0.75939022
vn 0.91493070 -0.20833943 0.34568267
vn 0.66720646 0.63201931 -0.39419173
vn -0.34855698 0.52282965 -0.77791850
vn -0.69732177 0.50632985 0.50731886
vn -0.13317951 -0.88541654 -0.44530975
vn 0.73552656 0.63820669 0.22736073
vn -0.29604311 -0.48230100 0.82446602
vn -0.85089694 0.46624935 -0.24204533
vn 0.87537493 -0.30067986 -0.37856355
vn 0.14989963 -0.04869185 -0.98750150
vn 0.64642415 0.09956846 0.75645353
vn 0.40130310 0.68750028 0.60522655
vn 0.19858211 -0.35037009 0.91531740
vn -0.11010594 0.49806268 0.86012223
vn 0.71976716 0.69361990 -0.02875175
vn -0.69115027 0.50510225 -0.51689749
vn -0.80394296 -0.58877754 0.08376588
vn 0.35282253 -0.93566419 -0.00698516
vn -0.42223134 -0.29824404 -0.85602056
vn 0.29858212 0.63697471 -0.71071227
vn 0.20016078 -0.47922589 -0.85456317
vn 0.89022006 -0.00096255 0.45552971
vn -0.41213498 0.52401641 0.74535332
vn 0.04998125 0.02321809 0.99848024
vn 0.41946934 -0.11235851 0.90078912
vn 0.99369308 0.01412984 -0.11124035
vn 0.70586225 0.69645090 -0.12928506
vn -0.68659471 -0.64546151 0.33461493
vn -0.88255700 0.45578920 0.11553941
vn 0.96042459 -0.26861797 -0.07368170
vn 0.35131626 -0.89084075 0.28806186
vn -0.18317241 -0.43239535 -0.88288285
vn -0.12159904 -0.12852538 -0.98422299
vn -0.46353779 -0.26506142 -0.84550290
vn -0.63124787 -0.70586383 -0.32137576
vn 0.68934857 -0.08582582 -0.71932780
vn 0.22347379 -0.93498395 -0.27543508
vn 0.78048743 0.05592744 0.62266484
vn -0.58928426 -0.33125576 0.73689462
vn -0.27491073 -0.13097130 0.95250754
vn -0.38278168 -0.29373796 0.87589737
vn 0.38451536 0.01913681 0.92292021
vn 0.62597975 -0.09533800 0.77398968
vn 0.44238762 -0.49922040 0.74503167
vn 0.99243221 -0.02903270 -0.11931224
vn 0.96531083 0.00923394 -0.26094012
vn -0.82214723 0.46113871 0.33380387
vn -0.81059996 -0.51299968 0.28241642
vn 0.68885258 -0.71116639 -0.14044389
vn -0.20622619 -0.86751665 0.45264292
vn 0.78327472 -0.54254890 0.30351507
vn -0.23201634 -0.71479201 -0.65972782
vn 0.01632246 -0.17792238 -0.98390914
vn -0.31982434 -0.43356824 -0.84245532
vn -0.04193191 0.01069446 -0.99906323
vn -0.77835709 -0.48431324 -0.39950085
vn -0.49844970 -0.49953797 -0.70852644
vn -0.69129148 -0.42764348 -0.58244068
vn -0.84653928 -0.52980517 -0.05174671
vn -0.54344139 -0.83942622 0.00592311
vn 0.68745588 0.00726028 -0.72618985
vn 0.52202764 -0.57499616 -0.62997346
vn 0.38767164 -0.17455579 -0.90511932
f 13//13 12//12 7//7
f 16//16 9//9 5//5
f 16//16 5//5 13//13
f 16//16 13//13 7//7
f 16//16 7//7 2//2
f 21//21 4//4 17//17
f 23//23 2//2 7//7
f 24//24 13//13 5//5
f 24//24 1//1 13//13
f 24//24 15//15 1//1
f 25//25 14//14 1//1
f 25//25 1//1 15//15
f 26//26 1//1 14//14
f 28//28 17//17 9//9
f 28//28 9//9 16//16
f 28//28 21//21 17//17
f 28//28 3//3 21//21
f 28//28 16//16 27//27
f 30//30 5//5 9//9
f 35//35 17//17 4//4
f 35//35 34//34 20//20
f 35//35 4//4 34//34
f 37//37 3//3 10//10
f 38//38 19//19 32//32
f 39//39 23//23 7//7
f 39//39 7//7 12//12
f 39//39 12//12 23//23
f 40//40 24//24 5//5
f 40//40 5//5 29//29
f 41//41 15//15 24//24
f 41//41 24//24 40//40
f 42//42 8//8 14//14
f 42//42 14//14 25//25
f 42//42 25//25 15//15
f 42//42 15//15 41//41
f 42//42 41//41 40//40
f 42//42 40//40 29//29
f 42//42 29//29 8//8
f 43//43 26//26 13//13
f 43//43 13//13 1//1
f 43//43 1//1 26//26
f 44//44 12//12 13//13
f 44//44 13//13 26//26
f 44//44 23//23 12//12
f 44//44 2//2 23//23
f 45//45 26//26 14//14
f 45//45 44//44 26//26
f 45//45 2//2 44//44
f 46//46 28//28 27//27
f 46//46 31//31 10//10
f 46//46 27//27 16//16
f 46//46 16//16 2//2
f 46//46 2//2 31//31
f 47//47 10//10 3//3
f 47//47 3//3 28//28
f 47//47 46//46 10//10
f 47//47 28//28 46//46
f 48//48 29//29 5//5
f 48//48 5//5 30//30
f 49//49 30//30 18//18
f 49//49 18//18 29//29
f 49//49 48//48 30//30
f 49//49 29//29 48//48
f 50//50 10//10 31//31
f 50//50 19//19 38//38
f 50//50 32//32 19//19
f 51//51 14//14 8//8
f 51//51 8//8 29//29
f 51//51 38//38 32//32
f 51//51 6//6 38//38
f 51//51 45//45 14//14
f 51//51 32//32 45//45
f 52//52 31//31 2//2
f 52//52 45//45 32//32
f 52//52 2//2 45//45
f 52//52 50//50 31//31
f 52//52 32//32 50//50
f 53//53 33//33 22//22
f 53//53 22//22 6//6
f 53//53 6//6 36//36
f 54//54 11//11 22//22
f 54//54 22//22 33//33
f 54//54 34//34 11//11
f 54//54 33//33 34//34
f 55//55 34//34 33//33
f 55//55 20//20 34//34
f 55//55 33//33 53//53
f 56//56 21//21 11//11
f 56//56 11//11 34//34
f 56//56 34//34 4//4
f 56//56 4//4 21//21
f 57//57 36//36 9//9
f 57//57 9//9 17//17
f 58//58 35//35 20//20
f 58//58 20//20 55//55
f 58//58 55//55 53//53
f 58//58 53//53 36//36
f 59//59 17//17 35//35
f 59//59 58//58 36//36
f 59//59 35//35 58//58
f 59//59 57//57 17//17
f 59//59 36//36 57//57
f 60//60 30//30 9//9
f 60//60 9//9 36//36
f 60//60 36//36 18//18
f 60//60 18//18 30//30
f 61//61 29//29 18//18
f 61//61 18//18 36//36
f 61//61 51//51 29//29
f 61//61 36//36 6//6
f 61//61 6//6 51//51
f 62//62 37//37 21//21
f 62//62 21//21 3//3
f 62//62 3//3 37//37
f 63//63 37//37 10//10
f 63//63 50//50 38//38
f 63//63 10//10 50//50
f 63//63 38//38 6//6
f 63//63 6//6 22//22
f 64//64 22//22 11//11
f 64//64 11//11 21//21
f 64//64 21//21 37//37
f 64//64 63//63 22//22
f 64//64 37//37 63//63

