# https://github.com/mikedh/trimesh
v 0.05119202 0.01381208 0.01857994
v 0.05640955 -0.02848127 0.01484392
v 0.05609931 0.01392708 -0.00562604
v 0.05019598 0.01389516 -0.00565083
v 0.03740218 -0.02008033 0.01145388
v 0.05661261 -0.02832600 0.00281847
v 0.04274353 0.01395328 0.01553803
v 0.05652469 0.01395552 0.01418066
v 0.04408657 -0.02842443 0.01856247
v 0.04178286 -0.01995100 -0.00044306
v 0.04185666 0.01390125 0.00278063
v 0.05393776 0.01395613 0.01752125
v 0.05642692 0.01396309 0.00709123
v 0.05194088 -0.02849413 0.01868234
v 0.03758574 -0.01999143 0.01623278
v 0.05019598 0.00756124 -0.00565083
v 0.04386206 -0.02833096 0.01229527
v 0.04234171 -0.00090006 -0.00048345
v 0.05568054 0.01386169 0.01602261
v 0.04924079 0.01394473 0.01857063
v 0.05663302 0.00753278 -0.00559161
v 0.05173828 0.00227164 0.01853305
v 0.05387410 -0.02839793 0.01784906
v 0.04808467 -0.02833096 0.00279439
v 0.03753687 0.00117365 0.01450483
v 0.05624521 0.00319881 0.01493143
v 0.04536654 0.01386473 0.01768620
v 0.03749051 -0.00002572 0.01458130
v 0.04646632 0.00223340 0.01839731
v 0.03903732 0.00141702 0.01533983
v 0.04733023 0.00740175 0.01849593
v 0.03749233 -0.00002694 0.01459076
v 0.04816634 0.01175441 0.01851140
vn 0.15309903 0.54893849 0.82172211
vn 0.71776065 -0.64362657 0.26563976
vn 0.54297457 0.59914925 -0.58838660
vn -0.26763183 0.64266998 -0.71787778
vn -0.93896415 -0.30773729 -0.15376634
vn 0.60669744 -0.63398677 -0.47956124
vn -0.57812992 0.73524811 0.35380222
vn 0.73059249 0.66336366 0.16181245
vn -0.37340274 -0.67855966 0.63255607
vn -0.57597503 -0.31839163 -0.75291403
vn -0.66317126 0.68665671 -0.29783627
vn 0.38052836 0.67418413 0.63298809
vn 0.68490814 0.72853409 -0.01178620
vn 0.14670659 -0.66595835 0.73142098
vn -0.81268051 -0.21793913 0.54041921
vn -0.24239292 -0.05928211 -0.96836527
vn -0.48332298 -0.87040990 -0.09373096
vn -0.79538356 0.04106055 -0.60471400
vn 0.64749868 0.58439217 0.48911272
vn -0.06347935 0.69292315 0.71821159
vn 0.69764212 -0.05182999 -0.71456919
vn 0.30156969 0.00686411 0.95341943
vn 0.47897504 -0.60163186 0.63923550
vn -0.23862806 -0.80587604 -0.54186756
vn -0.92406838 0.13713547 0.35677934
vn 0.91040241 0.00363724 0.41370789
vn -0.30681334 0.65861171 0.68709256
vn -0.99920689 0.03004584 0.02613110
vn -0.28452301 0.02757592 0.95827252
vn -0.47997051 0.07672343 0.87392323
vn -0.18056048 0.02087158 0.98334241
vn -0.81191277 0.05519241 0.58116388
vn -0.16659427 0.03826042 0.98528295
f 8//8 2//2 6//6
f 11//11 7//7 3//3
f 11//11 3//3 4//4
f 13//13 3//3 7//7
f 13//13 12//12 8//8
f 13//13 7//7 12//12
f 15//15 5//5 9//9
f 16//16 10//10 4//4
f 16//16 4//4 3//3
f 17//17 9//9 5//5
f 17//17 5//5 10//10
f 18//18 10//10 5//5
f 18//18 5//5 11//11
f 18//18 11//11 4//4
f 18//18 4//4 10//10
f 19//19 8//8 12//12
f 20//20 12//12 7//7
f 20//20 1//1 12//12
f 20//20 14//14 1//1
f 20//20 9//9 14//14
f 21//21 13//13 8//8
f 21//21 8//8 6//6
f 21//21 3//3 13//13
f 21//21 16//16 3//3
f 21//21 6//6 10//10
f 21//21 10//10 16//16
f 22//22 14//14 12//12
f 22//22 12//12 1//1
f 22//22 1//1 14//14
f 23//23 14//14 2//2
f 23//23 12//12 14//14
f 23//23 19//19 12//12
f 23//23 2//2 19//19
f 24//24 14//14 9//9
f 24//24 6//6 2//2
f 24//24 2//2 14//14
f 24//24 9//9 17//17
f 24//24 17//17 10//10
f 24//24 10//10 6//6
f 25//25 11//11 5//5
f 25//25 7//7 11//11
f 26//26 19//19 2//2
f 26//26 2//2 8//8
f 26//26 8//8 19//19
f 27//27 20//20 7//7
f 27//27 7//7 25//25
f 28//28 25//25 5//5
f 28//28 5//5 15//15
f 29//29 27//27 15//15
f 29//29 15//15 9//9
f 30//30 27//27 25//25
f 30//30 15//15 27//27
f 31//31 29//29 9//9
f 31//31 9//9 20//20
f 31//31 27//27 29//29
f 32//32 30//30 25//25
f 32//32 25//25 28//28
f 32//32 28//28 15//15
f 32//32 15//15 30//30
f 33//33 31//31 20//20
f 33//33 20//20 27//27
f 33//33 27//27 31//31

