# https://github.com/mikedh/trimesh
v -0.04133784 0.06584535 0.01441170
v -0.02936766 0.04530586 -0.01177334
v -0.03857488 0.06849932 -0.01321741
v -0.05027090 0.06678038 -0.01583782
v -0.05494755 0.04527870 0.01187463
v -0.02937993 0.04528274 -0.01684616
v -0.05121027 0.07038930 0.00803345
v -0.02800693 0.05365503 -0.01206905
v -0.03772705 0.04537628 0.01427779
v -0.04227157 0.06412614 -0.01693310
v -0.05375019 0.04541674 -0.01446509
v -0.04145218 0.07054282 0.00803920
v -0.05024197 0.07041805 -0.01239327
v -0.05292188 0.06599414 0.01327722
v -0.02971744 0.05240436 -0.01518405
v -0.03845110 0.06254541 0.01447893
v -0.03760010 0.04661625 0.01459612
v -0.04229954 0.06787809 -0.01583342
v -0.05294819 0.04522358 -0.01513561
v -0.05024422 0.06937772 0.01201347
v -0.03899852 0.06865386 0.01012711
v -0.05455610 0.06611249 -0.01050297
v -0.04147269 0.07042452 -0.01227408
v -0.05197511 0.07047560 -0.01062210
v -0.03852145 0.06669668 -0.01503698
v -0.05027990 0.06604438 0.01452974
v -0.05310218 0.04541569 0.01333765
v -0.04410505 0.06427992 -0.01700774
v -0.05072550 0.06945560 -0.01405850
v -0.05463401 0.04526669 -0.01152640
v -0.05288679 0.06618901 -0.01479713
v -0.04831589 0.07043454 0.00993870
v -0.05351934 0.06874051 0.01022201
v -0.03942682 0.06952495 -0.01252016
v -0.03873731 0.06752920 0.01167470
v -0.04245953 0.06944377 0.01192378
v -0.04514900 0.07051162 -0.01296965
v -0.03966087 0.06866646 -0.01403868
v -0.03946422 0.06597824 -0.01585602
v -0.05203407 0.06839129 0.01264826
v -0.04723075 0.05059924 0.01458567
v -0.04723430 0.06804525 -0.01574170
v -0.04823884 0.05899490 -0.01695568
v -0.05441699 0.05991290 -0.01243767
v -0.05573199 0.05694277 0.01002215
v -0.05175229 0.06791145 -0.01471969
v -0.05358376 0.06788601 -0.01240954
v -0.05217318 0.06935363 0.01110695
v -0.05199727 0.07046472 0.00191054
v -0.03983700 0.06949914 0.00911367
v -0.03880303 0.06686385 0.01243089
v -0.04064064 0.06941153 0.01055588
v -0.04244362 0.06760409 0.01348305
v -0.04324969 0.07042852 0.00997726
v -0.04130230 0.06932600 -0.01416777
v -0.03965743 0.06762218 -0.01509915
v -0.04023998 0.06684699 -0.01581339
v -0.02993945 0.05116404 -0.01572433
v -0.05114308 0.06767068 0.01362204
v -0.05368593 0.06752162 0.01198666
v -0.05031744 0.05906053 0.01454110
v -0.04424150 0.07044579 -0.01310694
v -0.04718245 0.06321732 -0.01694916
v -0.05096803 0.06586912 -0.01585907
vn 0.19532835 0.34214770 0.91912012
vn 0.67805864 -0.72652568 0.11134144
vn 0.70086535 0.64339345 -0.30794907
vn -0.22634759 0.33932040 -0.91303255
vn -0.68738988 -0.63266274 0.35669737
vn 0.54466056 -0.56906453 -0.61604419
vn -0.27759093 0.95527674 0.10192947
vn 0.96640395 0.23031748 -0.11409325
vn 0.42633517 -0.68588819 0.58974208
vn 0.12047026 0.15976841 -0.97977598
vn -0.74273996 -0.48295947 -0.46377527
vn 0.27571292 0.95643980 0.09594427
vn -0.15332289 0.94416351 -0.29162879
vn -0.62035206 0.15034922 0.76977817
vn 0.67275308 0.28651242 -0.68213922
vn 0.58807973 0.14661573 0.79540308
vn 0.55955132 -0.12741170 0.81894357
vn 0.10531653 0.52812126 -0.84261282
vn -0.32369517 -0.66216172 -0.67584266
vn -0.10414881 0.83009143 0.54781496
vn 0.69956590 0.67165676 0.24389494
vn -0.96487395 0.22414076 -0.13703712
vn 0.22258697 0.95118349 -0.21378729
vn -0.48626149 0.86427276 -0.12877249
vn 0.58061322 0.46248375 -0.67007244
vn -0.17718404 0.22028608 0.95920793
vn -0.29984308 -0.62277905 0.72266201
vn -0.00293356 0.15919125 -0.98724341
vn -0.32054340 0.72410176 -0.61067878
vn -0.73115146 -0.67158060 -0.11998767
vn -0.71184585 0.20689456 -0.67117072
vn -0.04819241 0.96960195 0.23989487
vn -0.79857733 0.58089486 0.15759255
vn 0.54892883 0.80827768 -0.21298902
vn 0.72212101 0.54053158 0.43170229
vn 0.18894995 0.78668485 0.58772856
vn -0.01362178 0.94907973 -0.31474133
vn 0.42444560 0.69761811 -0.57721305
vn 0.34784837 0.28382934 -0.89355605
vn -0.40373408 0.63966736 0.65408292
vn -0.07220290 -0.06738472 0.99511107
vn -0.05595097 0.52608822 -0.84858746
vn -0.18320572 -0.01654486 -0.98293536
vn -0.95330380 0.02607178 -0.30088557
vn -0.96268916 0.04683107 0.26652662
vn -0.48952373 0.50478476 -0.71102663
vn -0.83556017 0.45046725 -0.31451305
vn -0.39628925 0.84580100 0.35717714
vn -0.41571611 0.90946950 0.00673351
vn 0.55412237 0.82003460 0.14314905
vn 0.68432651 0.45132618 0.57271450
vn 0.38791180 0.83054004 0.39965945
vn 0.15230662 0.58341897 0.79776249
vn 0.09070954 0.95763930 0.27331073
vn 0.21505994 0.76930115 -0.60160199
vn 0.39641766 0.57447522 -0.71612237
vn 0.27217773 0.38421416 -0.88221242
vn 0.50080778 0.21843377 -0.83754299
vn -0.24267775 0.51377493 0.82288689
vn -0.81518731 0.37382414 0.44240836
vn -0.21527701 -0.00236838 0.97655015
vn 0.04338589 0.89960777 -0.43453830
vn -0.11715130 0.09633623 -0.98843053
vn -0.35591867 0.15280212 -0.92194003
f 8//8 2//2 6//6
f 9//9 6//6 2//2
f 9//9 5//5 6//6
f 15//15 8//8 6//6
f 17//17 9//9 2//2
f 17//17 2//2 8//8
f 17//17 8//8 16//16
f 19//19 6//6 5//5
f 21//21 8//8 3//3
f 25//25 3//3 8//8
f 25//25 8//8 15//15
f 26//26 17//17 16//16
f 26//26 16//16 1//1
f 27//27 5//5 9//9
f 27//27 9//9 17//17
f 27//27 26//26 14//14
f 27//27 14//14 5//5
f 28//28 18//18 10//10
f 28//28 10//10 6//6
f 29//29 24//24 13//13
f 30//30 19//19 5//5
f 30//30 11//11 19//19
f 31//31 19//19 11//11
f 34//34 21//21 3//3
f 34//34 23//23 12//12
f 35//35 8//8 21//21
f 37//37 13//13 24//24
f 37//37 29//29 13//13
f 37//37 24//24 12//12
f 37//37 12//12 23//23
f 38//38 3//3 25//25
f 38//38 34//34 3//3
f 39//39 6//6 10//10
f 39//39 25//25 15//15
f 41//41 27//27 17//17
f 41//41 17//17 26//26
f 42//42 28//28 4//4
f 42//42 18//18 28//28
f 42//42 4//4 29//29
f 43//43 28//28 6//6
f 43//43 6//6 19//19
f 44//44 30//30 22//22
f 44//44 11//11 30//30
f 44//44 31//31 11//11
f 44//44 22//22 31//31
f 45//45 30//30 5//5
f 45//45 22//22 30//30
f 45//45 33//33 22//22
f 45//45 5//5 14//14
f 46//46 29//29 4//4
f 47//47 31//31 22//22
f 47//47 46//46 31//31
f 47//47 24//24 29//29
f 47//47 29//29 46//46
f 47//47 33//33 24//24
f 47//47 22//22 33//33
f 48//48 32//32 7//7
f 48//48 20//20 32//32
f 48//48 7//7 33//33
f 48//48 40//40 20//20
f 49//49 7//7 32//32
f 49//49 33//33 7//7
f 49//49 24//24 33//33
f 49//49 32//32 12//12
f 49//49 12//12 24//24
f 50//50 34//34 12//12
f 50//50 21//21 34//34
f 51//51 16//16 8//8
f 51//51 8//8 35//35
f 51//51 1//1 16//16
f 51//51 35//35 36//36
f 52//52 36//36 35//35
f 52//52 35//35 21//21
f 52//52 21//21 50//50
f 52//52 50//50 12//12
f 53//53 26//26 1//1
f 53//53 51//51 36//36
f 53//53 1//1 51//51
f 54//54 12//12 32//32
f 54//54 32//32 20//20
f 54//54 20//20 36//36
f 54//54 52//52 12//12
f 54//54 36//36 52//52
f 55//55 23//23 34//34
f 55//55 34//34 38//38
f 56//56 38//38 25//25
f 56//56 55//55 38//38
f 56//56 18//18 55//55
f 57//57 39//39 10//10
f 57//57 10//10 18//18
f 57//57 18//18 56//56
f 57//57 56//56 25//25
f 57//57 25//25 39//39
f 58//58 39//39 15//15
f 58//58 15//15 6//6
f 58//58 6//6 39//39
f 59//59 20//20 40//40
f 59//59 26//26 53//53
f 59//59 53//53 36//36
f 59//59 36//36 20//20
f 59//59 14//14 26//26
f 60//60 59//59 40//40
f 60//60 14//14 59//59
f 60//60 45//45 14//14
f 60//60 33//33 45//45
f 60//60 48//48 33//33
f 60//60 40//40 48//48
f 61//61 41//41 26//26
f 61//61 26//26 27//27
f 61//61 27//27 41//41
f 62//62 18//18 42//42
f 62//62 55//55 18//18
f 62//62 37//37 23//23
f 62//62 23//23 55//55
f 62//62 42//42 29//29
f 62//62 29//29 37//37
f 63//63 4//4 28//28
f 63//63 28//28 43//43
f 64//64 63//63 43//43
f 64//64 4//4 63//63
f 64//64 46//46 4//4
f 64//64 31//31 46//46
f 64//64 43//43 19//19
f 64//64 19//19 31//31

