# https://github.com/mikedh/trimesh
v 0.04291753 -0.02772007 0.01463309
v 0.05532617 -0.03609932 -0.00025486
v 0.05245593 -0.02763927 -0.01596999
v 0.03585068 -0.03534816 -0.01606309
v 0.03623050 -0.03611473 0.01548616
v 0.05161057 -0.03610173 -0.01617517
v 0.03625941 -0.02825987 -0.01399165
v 0.05532734 -0.02762532 -0.00025410
v 0.04259887 -0.03611613 0.01544028
v 0.05404337 -0.03505234 -0.01273190
v 0.04422585 -0.02757352 -0.01607737
v 0.03600797 -0.03623928 -0.01619565
v 0.03648030 -0.02809689 0.01331914
v 0.05353302 -0.03612513 -0.01440550
v 0.05521641 -0.03188931 -0.00446593
v 0.05404354 -0.02760003 -0.01354278
v 0.03601373 -0.03217909 0.01453953
v 0.05324076 -0.02766377 -0.01526494
v 0.05416141 -0.03607068 -0.01173602
v 0.05518934 -0.02766451 -0.00442558
v 0.05398048 -0.03075203 -0.01362985
v 0.05517889 -0.03500693 -0.00339574
v 0.05520074 -0.03607096 -0.00232348
vn 0.28412120 0.66111403 0.69440865
vn 0.73350476 -0.63494543 0.24251819
vn 0.30266863 0.62105065 -0.72297150
vn -0.77043639 0.05910765 -0.63477086
vn -0.55976283 -0.54009324 0.62846231
vn 0.26775512 -0.62981487 -0.72913677
vn -0.65452018 0.63876753 -0.40444948
vn 0.72914856 0.63719095 0.24965990
vn 0.33034924 -0.59536611 0.73239919
vn 0.97816749 -0.05013580 -0.20167984
vn -0.06510295 0.71433458 -0.69676948
vn -0.53009206 -0.59362920 -0.60548061
vn -0.61470229 0.66720484 0.42068848
vn 0.64084005 -0.66571264 -0.38229662
vn 0.99643113 -0.01371271 -0.08328842
vn 0.71125663 0.67121727 -0.20876154
vn -0.76945212 0.17047755 0.61553297
vn 0.63684544 0.59766195 -0.48706065
vn 0.75294879 -0.64817137 -0.11376293
vn 0.77113998 0.63367503 -0.06163684
vn 0.95634401 -0.01541878 -0.29183623
vn 0.99439963 -0.05736064 -0.08876448
vn 0.78155469 -0.62061249 -0.06334352
f 9//9 1//1 5//5
f 9//9 8//8 1//1
f 9//9 2//2 8//8
f 11//11 3//3 6//6
f 11//11 4//4 7//7
f 11//11 1//1 8//8
f 12//12 5//5 4//4
f 12//12 11//11 6//6
f 12//12 4//4 11//11
f 12//12 9//9 5//5
f 12//12 2//2 9//9
f 13//13 11//11 7//7
f 13//13 1//1 11//11
f 14//14 12//12 6//6
f 14//14 2//2 12//12
f 15//15 8//8 2//2
f 16//16 11//11 8//8
f 16//16 3//3 11//11
f 16//16 15//15 10//10
f 17//17 5//5 1//1
f 17//17 1//1 13//13
f 17//17 4//4 5//5
f 17//17 13//13 7//7
f 17//17 7//7 4//4
f 18//18 14//14 6//6
f 18//18 6//6 3//3
f 18//18 3//3 16//16
f 19//19 14//14 10//10
f 19//19 2//2 14//14
f 19//19 10//10 15//15
f 20//20 16//16 8//8
f 20//20 8//8 15//15
f 20//20 15//15 16//16
f 21//21 16//16 10//10
f 21//21 10//10 14//14
f 21//21 18//18 16//16
f 21//21 14//14 18//18
f 22//22 19//19 15//15
f 22//22 15//15 2//2
f 23//23 22//22 2//2
f 23//23 2//2 19//19
f 23//23 19//19 22//22

