# https://github.com/mikedh/trimesh
v -0.03336901 0.06075273 0.01500658
v -0.01705598 0.04366896 0.00844915
v -0.03209133 0.06640078 -0.00839014
v -0.03346873 0.06178656 -0.01576695
v -0.03339619 0.04321724 -0.01527194
v -0.01821129 0.04356373 -0.01311724
v -0.03365987 0.06692002 0.00956054
v -0.03272978 0.04440840 0.01470998
v -0.02060693 0.04875894 -0.01131394
v -0.02462338 0.04411737 -0.01651559
v -0.01799566 0.04359592 0.01145321
v -0.03362216 0.06771083 -0.01129457
v -0.03362259 0.06275438 0.01406453
v -0.02050558 0.04973192 0.00814672
v -0.01695049 0.04365605 0.00451151
v -0.02086598 0.04372856 -0.01563321
v -0.03304972 0.05155047 -0.01648263
v -0.01991857 0.04361332 0.01399987
v -0.03306200 0.06731033 -0.00838444
v -0.03371661 0.06576494 0.01232213
v -0.03011492 0.06345724 -0.01211509
v -0.03002407 0.06327102 0.00432759
v -0.01746150 0.04440679 0.00833712
v -0.01900855 0.04359311 0.01321835
v -0.02571174 0.04413180 0.01596806
v -0.02573323 0.05306504 0.01383530
v -0.03357681 0.06768192 -0.00833924
v -0.03294665 0.06720712 -0.01117988
v -0.03312233 0.06538464 0.01196219
v -0.03090710 0.06441805 -0.01266161
v -0.02478067 0.05591659 0.00324806
v -0.03115666 0.06439022 0.00618810
v -0.02632059 0.04814013 0.01576642
v -0.03187735 0.05049843 0.01591153
v -0.02193826 0.04382463 0.01512071
v -0.03178226 0.06146401 0.01373829
v -0.02688041 0.05593857 0.01297427
v -0.03209784 0.06624349 -0.01205678
v -0.02371078 0.05373245 0.00929805
v -0.01861221 0.04438575 -0.01294029
v -0.02150858 0.04650971 -0.01481282
v -0.02854309 0.04436889 0.01579254
v -0.02894320 0.05125775 0.01580410
v -0.02221919 0.04515800 0.01484248
v -0.03261917 0.06034622 0.01484643
v -0.03269368 0.06249837 0.01367827
v -0.02365936 0.05276600 0.01107559
v -0.02982998 0.06024613 0.01282393
v -0.03344864 0.06496814 -0.01475779
v -0.02099730 0.04467092 -0.01533402
v -0.03189171 0.05154520 0.01592274
v -0.02871181 0.05513760 0.01479328
v -0.02064093 0.04864791 0.01012536
v -0.03287978 0.06662667 -0.01279158
v -0.03295114 0.06476082 -0.01446798
v -0.03347228 0.06688219 -0.01308076
vn -0.46049152 0.25609295 0.84991998
vn 0.89086320 -0.43036874 0.14541496
vn 0.75571321 0.65487905 0.00556497
vn -0.53307273 0.20945366 -0.81973327
vn -0.60543714 -0.62951324 -0.48698968
vn 0.81596742 -0.45278538 -0.35941976
vn -0.28937290 0.93462274 0.20674540
vn -0.63956049 -0.60555190 0.47357077
vn 0.84662102 0.50008133 -0.18207559
vn 0.09704850 -0.42387973 -0.90050406
vn 0.80518739 -0.47534140 0.35457555
vn -0.41770219 0.89090607 -0.17835712
vn -0.52763429 0.38468105 0.75737873
vn 0.83272558 0.53335435 0.14866489
vn 0.88768021 -0.46019899 -0.01551549
vn 0.43466455 -0.50061532 -0.74863277
vn -0.53537768 0.00120796 -0.84461191
vn 0.47531894 -0.55148317 0.68552040
vn 0.63609376 0.77139177 0.01842454
vn -0.38304004 0.71578644 0.58389221
vn 0.82574112 0.54511439 -0.14492035
vn 0.78435134 0.61735159 0.06058047
vn 0.86503877 0.49374628 0.08900862
vn 0.68924241 -0.48540918 0.53788737
vn 0.05029497 -0.62178800 0.78156900
vn 0.58854759 0.39108869 0.70757429
vn -0.19109307 0.98119604 0.02716174
vn 0.65248739 0.75062902 -0.10400134
vn 0.71068868 0.59659789 0.37281706
vn 0.73997318 0.52523912 -0.42019468
vn 0.82064656 0.57142401 0.00371941
vn 0.76997964 0.63088978 0.09544340
vn 0.24182865 0.15716225 0.95750662
vn -0.38964917 -0.04401220 0.91991111
vn 0.29022043 -0.56164147 0.77481027
vn 0.53231415 0.44393532 0.72080724
vn 0.69241422 0.48743830 0.53194591
vn 0.72958634 0.64893362 -0.21584468
vn 0.78838138 0.57696060 0.21347428
vn 0.81934035 0.47144842 -0.32621736
vn 0.63126939 0.39567578 -0.66703795
vn -0.13490225 -0.57721388 0.80537291
vn 0.13926941 0.12407876 0.98245025
vn 0.46206069 0.29483149 0.83640559
vn 0.41172391 0.33714054 0.84665204
vn 0.45710674 0.45169493 0.76617565
vn 0.77034542 0.52172499 0.36656646
vn 0.68654017 0.50148151 0.52647782
vn -0.39489448 0.47781201 -0.78469996
vn 0.58941041 0.33922093 -0.73316065
vn -0.28328826 0.02910259 0.95859314
vn 0.42691586 0.30787025 0.85026982
vn 0.79589699 0.50508146 0.33382733
vn 0.59328167 0.66857209 -0.44836170
vn 0.59894572 0.45180279 -0.66116433
vn -0.35949955 0.73233406 -0.57831384
f 11//11 5//5 6//6
f 12//12 4//4 5//5
f 13//13 8//8 1//1
f 13//13 5//5 8//8
f 14//14 11//11 2//2
f 15//15 6//6 9//9
f 15//15 11//11 6//6
f 15//15 2//2 11//11
f 15//15 9//9 14//14
f 16//16 6//6 5//5
f 16//16 5//5 10//10
f 16//16 10//10 4//4
f 17//17 10//10 5//5
f 17//17 5//5 4//4
f 17//17 4//4 10//10
f 18//18 8//8 5//5
f 19//19 7//7 3//3
f 20//20 12//12 5//5
f 20//20 7//7 12//12
f 20//20 5//5 13//13
f 21//21 14//14 9//9
f 22//22 3//3 7//7
f 23//23 15//15 14//14
f 23//23 14//14 2//2
f 23//23 2//2 15//15
f 24//24 18//18 5//5
f 24//24 5//5 11//11
f 26//26 18//18 24//24
f 27//27 19//19 12//12
f 27//27 12//12 7//7
f 27//27 7//7 19//19
f 28//28 19//19 3//3
f 28//28 12//12 19//19
f 29//29 7//7 20//20
f 30//30 21//21 9//9
f 31//31 21//21 3//3
f 31//31 14//14 21//21
f 31//31 22//22 14//14
f 31//31 3//3 22//22
f 32//32 22//22 7//7
f 32//32 14//14 22//22
f 34//34 1//1 8//8
f 35//35 25//25 8//8
f 35//35 8//8 18//18
f 35//35 33//33 25//25
f 37//37 26//26 24//24
f 38//38 28//28 3//3
f 38//38 3//3 21//21
f 38//38 21//21 30//30
f 38//38 12//12 28//28
f 39//39 7//7 29//29
f 39//39 32//32 7//7
f 39//39 14//14 32//32
f 40//40 30//30 9//9
f 40//40 9//9 6//6
f 40//40 6//6 30//30
f 41//41 30//30 6//6
f 42//42 34//34 8//8
f 42//42 8//8 25//25
f 42//42 25//25 34//34
f 43//43 33//33 1//1
f 43//43 25//25 33//33
f 44//44 35//35 18//18
f 44//44 18//18 26//26
f 45//45 13//13 1//1
f 45//45 26//26 36//36
f 45//45 1//1 33//33
f 46//46 36//36 20//20
f 46//46 20//20 13//13
f 46//46 45//45 36//36
f 46//46 13//13 45//45
f 47//47 37//37 24//24
f 47//47 24//24 11//11
f 47//47 14//14 39//39
f 47//47 39//39 29//29
f 48//48 36//36 26//26
f 48//48 26//26 37//37
f 48//48 20//20 36//36
f 48//48 29//29 20//20
f 48//48 47//47 29//29
f 48//48 37//37 47//47
f 49//49 4//4 12//12
f 49//49 16//16 4//4
f 50//50 41//41 6//6
f 50//50 6//6 16//16
f 50//50 49//49 41//41
f 50//50 16//16 49//49
f 51//51 43//43 1//1
f 51//51 1//1 34//34
f 51//51 34//34 25//25
f 51//51 25//25 43//43
f 52//52 33//33 35//35
f 52//52 35//35 44//44
f 52//52 45//45 33//33
f 52//52 44//44 26//26
f 52//52 26//26 45//45
f 53//53 47//47 11//11
f 53//53 11//11 14//14
f 53//53 14//14 47//47
f 54//54 38//38 30//30
f 54//54 12//12 38//38
f 55//55 30//30 41//41
f 55//55 41//41 49//49
f 55//55 54//54 30//30
f 55//55 49//49 54//54
f 56//56 54//54 49//49
f 56//56 49//49 12//12
f 56//56 12//12 54//54

