# https://github.com/mikedh/trimesh
v 0.01764835 -0.02868355 0.03400459
v 0.01183577 -0.06169531 0.03038903
v 0.01620697 -0.06221175 -0.01127172
v -0.02868041 -0.02729718 -0.03280028
v -0.03910771 -0.06150090 0.02849170
v 0.00957094 -0.02725830 -0.01185217
v -0.03203963 -0.02760745 0.02843536
v -0.03745643 -0.06157752 -0.03193634
v -0.02830703 -0.03719596 -0.03386752
v -0.04155737 -0.06188162 -0.02703837
v -0.03281281 -0.04705133 -0.03296090
v -0.03140902 -0.06121667 -0.03453441
v -0.04103189 -0.05696159 0.01945668
v -0.03395644 -0.02788967 -0.02708780
v -0.02864888 -0.04184164 -0.03414058
v -0.03326777 -0.06125691 -0.03394962
v -0.04134725 -0.06151256 0.02167063
v -0.03632336 -0.04243037 -0.02898468
v -0.03597498 -0.03773659 0.02168390
v -0.04091388 -0.05439229 -0.02367583
v -0.03605929 -0.04475243 0.02768751
v -0.02992793 -0.02742823 -0.03183799
v -0.03831798 -0.05454739 -0.02959796
v -0.03599473 -0.03540789 -0.02693036
v -0.03337263 -0.03036663 0.02609483
v -0.03847416 -0.05690449 0.02800845
v -0.04110098 -0.05938611 0.02131627
v -0.03362853 -0.03293201 -0.02924600
v -0.03655465 -0.05191180 -0.03097111
v -0.03590187 -0.03526524 -0.01687236
v -0.03838636 -0.04712505 0.02146660
v -0.03569876 -0.04019202 0.02573469
v -0.03207222 -0.03240319 -0.03089539
v -0.03839994 -0.04496896 -0.00713848
v -0.04083011 -0.05479162 0.00020020
vn 0.60657895 0.50909269 0.61064442
vn 0.47815818 -0.65011928 0.59051645
vn 0.70389779 -0.57597195 -0.41567321
vn -0.06946340 0.66282011 -0.74554969
vn -0.54222713 -0.55611424 0.62986244
vn 0.58765905 0.67819338 -0.44126022
vn -0.47803586 0.65882450 0.58088897
vn -0.47510914 -0.60842063 -0.63568518
vn 0.07032951 0.08515750 -0.99388227
vn -0.75244643 -0.59186111 -0.28900657
vn -0.47096963 0.10191507 -0.87624250
vn 0.04075635 -0.59071083 -0.80585336
vn -0.98013213 0.17284716 0.09728758
vn -0.68364391 0.69028023 -0.23694769
vn 0.05766169 0.03872423 -0.99758487
vn -0.29217800 -0.53465911 -0.79295123
vn -0.77191272 -0.61805849 0.14884373
vn -0.78348865 0.17564219 -0.59606657
vn -0.95948306 0.26994963 0.08074310
vn -0.97804820 0.17959355 -0.10567817
vn -0.90942211 0.19266964 0.36855098
vn -0.50760070 0.71678346 -0.47808263
vn -0.77096349 0.14654586 -0.61978998
vn -0.92529362 0.23866832 -0.29473573
vn -0.94089772 0.30606933 0.14502776
vn -0.88618656 0.17780510 0.42785363
vn -0.96009209 0.16302889 0.22725483
vn -0.75970228 0.20222258 -0.61802789
vn -0.67585636 0.14440758 -0.72274798
vn -0.96424408 0.26479807 0.01073926
vn -0.95986372 0.22805740 0.16325275
vn -0.93818174 0.20843726 0.27634931
vn -0.71536082 0.17925030 -0.67537266
vn -0.96707592 0.25423645 0.01131351
vn -0.97987651 0.19932178 0.01062370
f 1//1 2//2 3//3
f 5//5 2//2 1//1
f 5//5 3//3 2//2
f 6//6 1//1 3//3
f 7//7 5//5 1//1
f 7//7 6//6 4//4
f 7//7 1//1 6//6
f 9//9 6//6 3//3
f 9//9 4//4 6//6
f 10//10 8//8 3//3
f 10//10 3//3 5//5
f 11//11 8//8 4//4
f 11//11 4//4 9//9
f 12//12 3//3 8//8
f 15//15 9//9 3//3
f 15//15 3//3 12//12
f 15//15 11//11 9//9
f 16//16 12//12 8//8
f 16//16 8//8 11//11
f 16//16 15//15 12//12
f 16//16 11//11 15//15
f 17//17 13//13 10//10
f 17//17 10//10 5//5
f 20//20 10//10 13//13
f 22//22 14//14 7//7
f 22//22 7//7 4//4
f 23//23 8//8 10//10
f 23//23 10//10 18//18
f 24//24 18//18 10//10
f 24//24 14//14 18//18
f 24//24 10//10 20//20
f 25//25 7//7 14//14
f 25//25 14//14 19//19
f 26//26 5//5 7//7
f 26//26 7//7 21//21
f 27//27 13//13 17//17
f 27//27 26//26 21//21
f 27//27 17//17 5//5
f 27//27 5//5 26//26
f 28//28 18//18 14//14
f 28//28 14//14 22//22
f 29//29 22//22 4//4
f 29//29 4//4 8//8
f 29//29 23//23 18//18
f 29//29 8//8 23//23
f 30//30 19//19 14//14
f 30//30 14//14 24//24
f 31//31 25//25 19//19
f 31//31 19//19 13//13
f 31//31 13//13 27//27
f 32//32 21//21 7//7
f 32//32 7//7 25//25
f 32//32 25//25 31//31
f 32//32 31//31 27//27
f 32//32 27//27 21//21
f 33//33 28//28 22//22
f 33//33 18//18 28//28
f 33//33 29//29 18//18
f 33//33 22//22 29//29
f 34//34 19//19 30//30
f 34//34 30//30 24//24
f 34//34 24//24 20//20
f 35//35 34//34 20//20
f 35//35 20//20 13//13
f 35//35 13//13 19//19
f 35//35 19//19 34//34

