# https://github.com/mikedh/trimesh
v -0.02365065 0.00406696 0.03185703
v -0.01707759 -0.02725830 0.02933192
v -0.01647587 0.00146900 -0.03622960
v -0.01800965 0.00125069 -0.03590081
v -0.03195394 -0.02776133 -0.02965316
v -0.02644959 0.00124575 -0.02931749
v -0.03203963 -0.02760745 0.02843536
v -0.01707759 -0.02725830 -0.01427477
v -0.02398581 -0.02732829 -0.03514892
v -0.02310260 0.00122571 -0.03357636
v -0.03137170 -0.01552549 -0.02419925
v -0.01668662 -0.01042451 -0.03673050
v -0.02771483 -0.02530074 -0.03321978
v -0.02432943 -0.00569773 -0.03367122
v -0.03139046 -0.01818365 -0.02729483
v -0.02643613 0.00124516 0.02400423
v -0.01878465 -0.01036787 -0.03626033
v -0.02761619 -0.02737831 -0.03343877
v -0.02914283 -0.02022127 -0.03125396
v -0.02851020 -0.00564128 -0.02802058
v -0.03105811 -0.01835127 0.02419098
v -0.03115640 -0.01563428 -0.02598108
v -0.02861722 -0.00596128 -0.02175440
v -0.02853543 -0.01104046 0.02868121
v -0.03121793 -0.02293678 0.02849667
v -0.02550438 0.00148588 0.02892306
vn 0.08363852 0.72658197 0.68197011
vn 0.61077733 -0.53923824 0.57980443
vn 0.52052778 0.58202622 -0.62473699
vn -0.29907614 0.48214140 -0.82346411
vn -0.71665067 -0.60650480 -0.34433087
vn -0.66140676 0.69883590 -0.27234074
vn -0.62714213 -0.56933437 0.53155539
vn 0.71245278 -0.70016860 -0.04663661
vn 0.18333228 -0.63810279 -0.74780619
vn -0.44918137 0.67473335 -0.58563726
vn -0.98467599 0.16918056 -0.04232185
vn 0.62566301 -0.08737325 -0.77518495
vn -0.59442689 0.07332944 -0.80079927
vn -0.58421723 0.10307421 -0.80502543
vn -0.95278247 0.13560182 -0.27169415
vn -0.88367581 0.46442389 0.05854491
vn -0.29018199 0.03663431 -0.95627001
vn -0.42638615 -0.58092734 -0.69333850
vn -0.70254590 0.11518666 -0.70225444
vn -0.94272708 0.23357354 -0.23813662
vn -0.97910022 0.18357381 0.08754098
vn -0.96611848 0.19565301 -0.16832998
vn -0.95946295 0.28183476 0.00011469
vn -0.92792517 0.21092529 0.30735223
vn -0.88904623 0.15775717 0.42977840
vn -0.91613028 0.31919564 0.24252723
f 1//1 2//2 3//3
f 6//6 1//1 3//3
f 7//7 5//5 2//2
f 7//7 2//2 1//1
f 8//8 2//2 5//5
f 9//9 8//8 5//5
f 10//10 6//6 3//3
f 10//10 3//3 4//4
f 10//10 5//5 6//6
f 11//11 5//5 7//7
f 12//12 3//3 2//2
f 12//12 2//2 8//8
f 12//12 8//8 9//9
f 12//12 4//4 3//3
f 14//14 10//10 4//4
f 14//14 4//4 9//9
f 14//14 5//5 10//10
f 15//15 6//6 5//5
f 15//15 5//5 11//11
f 16//16 1//1 6//6
f 17//17 12//12 9//9
f 17//17 9//9 4//4
f 17//17 4//4 12//12
f 18//18 9//9 5//5
f 18//18 5//5 13//13
f 18//18 14//14 9//9
f 18//18 13//13 14//14
f 19//19 14//14 13//13
f 19//19 13//13 5//5
f 19//19 5//5 14//14
f 20//20 6//6 15//15
f 21//21 16//16 11//11
f 21//21 11//11 7//7
f 22//22 20//20 15//15
f 22//22 15//15 11//11
f 22//22 11//11 20//20
f 23//23 16//16 6//6
f 23//23 6//6 20//20
f 23//23 20//20 11//11
f 23//23 11//11 16//16
f 24//24 16//16 21//21
f 25//25 24//24 21//21
f 25//25 21//21 7//7
f 25//25 7//7 1//1
f 25//25 1//1 24//24
f 26//26 24//24 1//1
f 26//26 1//1 16//16
f 26//26 16//16 24//24

