# https://github.com/mikedh/trimesh
v -0.00340326 -0.04407861 0.01572798
v 0.01896188 -0.03932980 0.00170153
v -0.00022245 0.00180270 0.00176039
v -0.01083453 0.00168627 -0.03147711
v -0.02177928 -0.05837587 -0.03666911
v 0.01988580 -0.00922788 -0.01571631
v -0.02567804 -0.02424729 -0.01660720
v 0.01599836 -0.00947046 0.00165166
v -0.00304089 -0.05810638 0.01518331
v 0.00077818 0.00178481 -0.02441487
v 0.01856009 -0.04114967 -0.03742131
v -0.00677591 0.00146279 0.00190221
v -0.02624530 -0.02408259 -0.03110201
v 0.01818533 -0.02447558 0.00127258
v -0.02679866 -0.05809558 -0.01716781
v -0.02226104 -0.04120380 -0.03613356
v 0.01997833 -0.02327755 -0.03424526
v 0.00292004 -0.05742970 -0.01627931
v -0.00741995 -0.03928201 0.01295514
v -0.00722584 -0.05866890 0.01232021
v -0.02616200 -0.05712500 -0.03302200
v -0.01677629 -0.05785705 -0.03717800
v -0.01100119 -0.00245224 -0.03211203
v -0.02481361 -0.02467661 -0.03195662
v 0.02170414 -0.03933518 -0.01713649
v 0.00333538 -0.05821510 -0.00576839
v 0.01209940 -0.04674868 -0.03561385
v 0.02083374 -0.02442824 -0.01746404
v 0.02034789 -0.03975130 -0.03398373
v -0.01266264 -0.05794837 -0.03252173
vn -0.03336876 0.04599682 0.99838410
vn 0.84355067 -0.24825329 0.47622745
vn 0.21082114 0.80515612 0.55432668
vn -0.33376609 0.75553214 -0.56371215
vn -0.30021865 -0.65541044 -0.69304106
vn 0.84443275 0.53034342 -0.07529401
vn -0.93175310 0.24290124 0.26987988
vn 0.67345611 0.44969256 0.58671412
vn 0.11758694 -0.62015506 0.77561654
vn 0.34247422 0.88621644 -0.31198049
vn 0.57352425 -0.34100478 -0.74483936
vn -0.42714027 0.70635823 0.56445482
vn -0.85538036 0.27165201 -0.44105514
vn 0.83245759 0.07260731 0.54931097
vn -0.75242589 -0.62684029 0.20230308
vn -0.39400723 0.07111829 -0.91635173
vn 0.69523116 0.26553877 -0.66793921
vn 0.40411456 -0.90472630 -0.13476550
vn -0.62849498 0.12688400 0.76739462
vn -0.48218949 -0.70308878 0.52264659
vn -0.79764737 -0.48016062 -0.36497186
vn 0.07801952 -0.64518076 -0.76003601
vn -0.08591958 0.14843846 -0.98518214
vn -0.39564715 0.18819597 -0.89891357
vn 0.93990694 -0.34021749 0.02875772
vn 0.43706333 -0.89823188 0.04642355
vn 0.45163525 -0.74680688 -0.48816502
vn 0.99810192 0.06069211 -0.01044193
vn 0.91874834 -0.33487615 -0.20918759
vn 0.21833801 -0.95620646 -0.19493006
f 8//8 3//3 1//1
f 8//8 6//6 3//3
f 9//9 2//2 1//1
f 10//10 4//4 3//3
f 10//10 3//3 6//6
f 12//12 1//1 3//3
f 12//12 3//3 4//4
f 12//12 4//4 7//7
f 13//13 7//7 4//4
f 14//14 8//8 1//1
f 14//14 1//1 2//2
f 14//14 2//2 6//6
f 14//14 6//6 8//8
f 15//15 7//7 13//13
f 17//17 10//10 6//6
f 17//17 11//11 4//4
f 17//17 4//4 10//10
f 19//19 12//12 7//7
f 19//19 1//1 12//12
f 19//19 7//7 15//15
f 20//20 15//15 5//5
f 20//20 19//19 15//15
f 20//20 9//9 1//1
f 20//20 1//1 19//19
f 21//21 15//15 13//13
f 21//21 5//5 15//15
f 21//21 16//16 5//5
f 21//21 13//13 16//16
f 22//22 16//16 11//11
f 22//22 5//5 16//16
f 23//23 16//16 4//4
f 23//23 4//4 11//11
f 23//23 11//11 16//16
f 24//24 16//16 13//13
f 24//24 13//13 4//4
f 24//24 4//4 16//16
f 25//25 6//6 2//2
f 26//26 2//2 9//9
f 26//26 9//9 20//20
f 26//26 20//20 5//5
f 26//26 25//25 2//2
f 26//26 18//18 11//11
f 27//27 22//22 11//11
f 27//27 11//11 18//18
f 28//28 25//25 17//17
f 28//28 17//17 6//6
f 28//28 6//6 25//25
f 29//29 11//11 17//17
f 29//29 17//17 25//25
f 29//29 26//26 11//11
f 29//29 25//25 26//26
f 30//30 18//18 26//26
f 30//30 27//27 18//18
f 30//30 22//22 27//27
f 30//30 26//26 5//5
f 30//30 5//5 22//22

