# https://github.com/mikedh/trimesh
v 0.00468417 -0.10688483 0.02966975
v 0.02186481 -0.10266161 0.01640677
v -0.02636500 -0.10261769 0.01586284
v -0.02629224 -0.10262171 0.00174165
v -0.00987884 -0.12072787 0.00161531
v 0.02018163 -0.10271601 0.02329842
v 0.02299551 -0.10324598 0.00185733
v -0.02544621 -0.10990427 0.01505929
v 0.01799093 -0.11795113 0.00086325
v 0.00074845 -0.11373741 0.02321454
v -0.02619248 -0.11065639 0.00207904
v 0.01873219 -0.11172468 0.02144946
v -0.00493800 -0.11820400 0.01375900
v 0.01367022 -0.11306357 0.02267352
v 0.02026553 -0.11554813 0.00103419
v 0.00885700 -0.11867400 0.01242200
v 0.01946532 -0.11386639 0.01219766
v 0.02174499 -0.10995244 0.00158595
v 0.01838286 -0.11294898 0.01886924
v 0.01692343 -0.11767592 0.00361965
vn -0.03483535 0.14563760 0.98872453
vn 0.78538230 0.60832651 0.11451419
vn -0.68682032 0.55085379 0.47417081
vn -0.58340641 0.56904708 -0.57950184
vn -0.21319351 -0.80726547 -0.55033716
vn 0.62270327 0.53475019 0.57121176
vn 0.66862902 0.51738595 -0.53408521
vn -0.71657560 -0.50309210 0.48313326
vn 0.38497948 -0.69713231 -0.60481182
vn -0.12809310 -0.75714054 0.64057035
vn -0.70806870 -0.42758040 -0.56197305
vn 0.67146070 -0.52343043 0.52455801
vn -0.16337578 -0.90983421 0.38145781
vn 0.24565347 -0.74112437 0.62481121
vn 0.69777039 -0.36913891 -0.61388350
vn 0.15535131 -0.95581652 0.24956111
vn 0.82302252 -0.54220427 0.16925857
vn 0.90301084 -0.18166118 -0.38932073
vn 0.52995221 -0.80121477 0.27785886
vn 0.37524424 -0.89641192 0.23587586
f 3//3 2//2 4//4
f 6//6 2//2 3//3
f 6//6 3//3 1//1
f 7//7 4//4 2//2
f 8//8 1//1 3//3
f 9//9 5//5 4//4
f 9//9 4//4 7//7
f 10//10 1//1 8//8
f 11//11 8//8 3//3
f 11//11 3//3 4//4
f 11//11 4//4 5//5
f 11//11 5//5 8//8
f 12//12 2//2 6//6
f 12//12 6//6 1//1
f 13//13 10//10 8//8
f 13//13 8//8 5//5
f 14//14 12//12 1//1
f 14//14 1//1 10//10
f 15//15 9//9 7//7
f 16//16 13//13 5//5
f 16//16 5//5 9//9
f 16//16 14//14 10//10
f 16//16 10//10 13//13
f 17//17 9//9 15//15
f 17//17 2//2 12//12
f 18//18 15//15 7//7
f 18//18 7//7 2//2
f 18//18 17//17 15//15
f 18//18 2//2 17//17
f 19//19 12//12 14//14
f 19//19 14//14 16//16
f 19//19 17//17 12//12
f 19//19 9//9 17//17
f 20//20 19//19 16//16
f 20//20 16//16 9//9
f 20//20 9//9 19//19

