# https://github.com/mikedh/trimesh
v 0.00206304 0.06435026 0.04138851
v 0.00074845 -0.11373741 0.02321454
v -0.00661417 0.00097577 -0.01821848
v -0.02563127 0.01287999 -0.01707645
v -0.02297900 -0.06030800 0.02916400
v -0.02679866 -0.05809558 -0.01716781
v 0.00056626 0.05413056 0.00170175
v -0.00044272 -0.06883436 0.04144108
v -0.02261600 0.05430100 0.02967700
v 0.00040402 -0.10071271 0.00108573
v -0.00990072 -0.11521145 0.01590620
v -0.02562600 -0.05818600 0.00845300
v -0.02527369 0.05406147 0.00169709
v -0.01603179 0.05411533 0.04124861
v -0.00870542 -0.05808539 -0.01721223
v 0.00326678 0.05854270 0.01188818
v -0.01000347 -0.11346368 0.02317050
v 0.00039736 -0.11593813 0.01585140
v -0.00727699 -0.10012329 -0.00042665
v -0.02191800 0.06300500 0.02649300
v -0.00918300 0.06491300 0.04163800
v -0.01699100 -0.04226800 0.04135000
v -0.01886000 0.05430100 0.03710500
v -0.02081482 0.04582480 0.03386943
v -0.00812200 -0.06863300 0.04028900
v -0.01873696 -0.05721635 0.03608839
vn 0.58182345 0.61676158 0.53017603
vn 0.61797363 -0.59075135 0.51876915
vn 0.53715044 0.07554070 -0.84009702
vn -0.63117080 0.19453838 -0.75085168
vn -0.92590071 -0.15569998 0.34418802
vn -0.70210020 -0.21121088 -0.68003329
vn 0.55325057 0.53280738 -0.64033593
vn 0.57591814 -0.16733101 0.80019912
vn -0.95185741 0.10093015 0.28944876
vn 0.70029519 -0.38659955 -0.60010618
vn -0.54598706 -0.81325064 -0.20129959
vn -0.98956425 -0.12184374 0.07692005
vn -0.65693586 0.57292451 -0.49009467
vn -0.52716843 0.14960517 0.83648774
vn 0.44255205 -0.14984766 -0.88413425
vn 0.71076235 0.65195204 -0.26415038
vn -0.53774846 -0.64970254 0.53732038
vn 0.57037966 -0.79492117 -0.20680275
vn -0.21612174 -0.55988341 -0.79988872
vn -0.64141566 0.76515427 0.05590076
vn -0.19013303 0.74196535 0.64291279
vn -0.53195262 -0.03231091 0.84615744
vn -0.83214594 0.18788323 0.52175954
vn -0.89186978 0.00764490 0.45222766
vn -0.34595629 -0.23746409 0.90770317
vn -0.70855667 -0.18967457 0.67968449
f 6//6 4//4 3//3
f 7//7 3//3 4//4
f 8//8 2//2 1//1
f 10//10 3//3 7//7
f 12//12 5//5 9//9
f 12//12 6//6 11//11
f 13//13 7//7 4//4
f 13//13 12//12 9//9
f 13//13 4//4 6//6
f 13//13 6//6 12//12
f 15//15 6//6 3//3
f 15//15 3//3 10//10
f 16//16 10//10 7//7
f 16//16 1//1 2//2
f 16//16 2//2 10//10
f 16//16 7//7 13//13
f 17//17 12//12 11//11
f 17//17 5//5 12//12
f 17//17 2//2 8//8
f 18//18 10//10 2//2
f 18//18 17//17 11//11
f 18//18 2//2 17//17
f 19//19 11//11 6//6
f 19//19 18//18 11//11
f 19//19 10//10 18//18
f 19//19 15//15 10//10
f 19//19 6//6 15//15
f 20//20 13//13 9//9
f 20//20 16//16 13//13
f 20//20 1//1 16//16
f 21//21 8//8 1//1
f 21//21 20//20 14//14
f 21//21 1//1 20//20
f 22//22 21//21 14//14
f 22//22 8//8 21//21
f 23//23 20//20 9//9
f 23//23 14//14 20//20
f 23//23 22//22 14//14
f 24//24 9//9 5//5
f 24//24 5//5 22//22
f 24//24 23//23 9//9
f 24//24 22//22 23//23
f 25//25 17//17 8//8
f 25//25 8//8 22//22
f 26//26 22//22 5//5
f 26//26 5//5 17//17
f 26//26 25//25 22//22
f 26//26 17//17 25//25

