# https://github.com/mikedh/trimesh
v -0.01020471 -0.05793461 0.03868980
v 0.00036800 -0.12102847 0.00037073
v -0.00377340 -0.05720323 -0.01232479
v -0.01979500 -0.06081700 -0.03930100
v -0.02560562 -0.11124600 0.01379291
v 0.00041165 -0.12185561 -0.03361113
v -0.02616200 -0.05712500 -0.03302200
v 0.00090772 -0.09916738 0.00188142
v -0.00947750 -0.10481011 0.03376444
v -0.01266264 -0.05794837 -0.03252173
v -0.01765215 -0.12115076 -0.01726462
v -0.01873696 -0.05721635 0.03608839
v 0.00146331 -0.10270337 -0.02656700
v -0.01000347 -0.11346368 0.02317050
v -0.00923033 -0.09471900 0.03526773
v -0.01412919 -0.06947626 -0.03930100
v -0.01677629 -0.05785705 -0.03717800
v -0.00922693 -0.12191389 -0.03201285
v -0.02507500 -0.11443000 -0.03081100
v -0.00421570 -0.05706714 -0.01076276
v -0.02510100 -0.06720000 0.02437100
v -0.01769454 -0.10107735 0.03260652
v 0.00044021 -0.10567038 -0.03148212
v -0.01767300 -0.11792600 0.00420800
v -0.01042162 -0.05762092 -0.02713685
v -0.02177928 -0.05837587 -0.03666911
v -0.01894040 -0.06035049 -0.03928380
v -0.01024400 -0.12108554 -0.00290049
v -0.02058076 -0.11957940 -0.01806922
v -0.02611575 -0.10054250 -0.03690258
v -0.02510100 -0.05964531 0.01502139
v -0.01635000 -0.10381800 0.03286100
v -0.02494514 -0.08827413 0.02265401
v -0.01802400 -0.11124600 0.02543200
v -0.00208255 -0.12093723 0.00102500
v -0.02522600 -0.11443000 -0.01489300
v -0.01762996 -0.12117041 -0.02861521
v -0.02510143 -0.06774814 -0.03610577
v -0.02429183 -0.09463449 -0.03902185
v -0.02192788 -0.09848334 -0.03884920
v -0.01967884 -0.11929411 -0.03115502
v -0.02297900 -0.06030800 0.02916400
v -0.01512980 -0.09577759 0.03420775
v -0.02510100 -0.10737200 0.01800400
v -0.01351019 -0.11292257 0.02304757
v -0.02269034 -0.06735854 -0.03823975
v -0.01979500 -0.09638900 -0.03884700
v -0.02297900 -0.11520600 -0.03187200
v -0.02225912 -0.11706494 -0.03080586
v -0.01825124 -0.07528097 0.03489654
v -0.02191800 -0.11018500 0.02049900
v -0.01390384 -0.08683780 -0.03865662
vn 0.42122539 0.53587008 0.73171882
vn 0.68420153 -0.70199566 0.19766223
vn 0.71974827 0.68565023 -0.10884024
vn -0.31660201 0.24368524 -0.91672279
vn -0.83868689 -0.50198862 0.21121486
vn 0.56324646 -0.61820948 -0.54824308
vn -0.68312809 0.66681974 -0.29780439
vn 0.98899967 0.03219301 0.14437197
vn 0.44191040 -0.40547955 0.80018843
vn 0.60962287 0.68898123 -0.39200105
vn -0.29052704 -0.95509727 0.05816567
vn -0.47520486 0.63265684 0.61149461
vn 0.98581682 0.08842920 -0.14263758
vn 0.21270652 -0.84896651 0.48374766
vn 0.53005477 -0.09359267 0.84278251
vn 0.45995686 0.12379563 -0.87926920
vn 0.32006186 0.75290621 -0.57505882
vn -0.11797301 -0.83292566 -0.54066368
vn -0.83234882 -0.43498089 -0.34349244
vn 0.27879612 0.95987027 0.03036110
vn -0.97018274 0.03240100 0.24019916
vn -0.66384145 -0.16041058 0.73046764
vn 0.85790798 0.10270400 -0.50343399
vn -0.34614211 -0.91472165 0.20849448
vn 0.38810158 0.89927557 -0.20169437
vn -0.32467416 0.67023828 -0.66735848
vn 0.07545673 0.39707920 -0.91467721
vn -0.12393185 -0.98216702 0.14138188
vn -0.61189990 -0.79022189 0.03358377
vn -0.78932767 -0.20109580 -0.58010543
vn -0.86250328 0.50207768 0.06329374
vn -0.43869924 -0.39012164 0.80953572
vn -0.94129248 -0.05014489 0.33384721
vn -0.43915401 -0.71800076 0.54001727
vn -0.01938782 -0.97494624 0.22159408
vn -0.91136125 -0.41115140 0.01937026
vn -0.35253875 -0.92213341 -0.15933108
vn -0.78889332 0.07448613 -0.60999930
vn -0.44024605 -0.02683708 -0.89747601
vn -0.10405279 -0.19889936 -0.97448041
vn -0.44846275 -0.68921048 -0.56909584
vn -0.88894598 0.31662386 0.33094467
vn -0.26604320 -0.10715261 0.95798712
vn -0.90592789 -0.21132345 0.36692923
vn -0.16701372 -0.93373506 0.31661532
vn -0.57210824 0.08854165 -0.81538491
vn 0.09120880 -0.06245766 -0.99387122
vn -0.42021703 -0.44110408 -0.79299738
vn -0.66291418 -0.72018369 -0.20464666
vn -0.60466927 -0.07417750 0.79301499
vn -0.75011019 -0.43870287 0.49484796
vn 0.17579253 -0.04074970 -0.98358347
f 8//8 3//3 1//1
f 13//13 3//3 8//8
f 13//13 8//8 2//2
f 13//13 2//2 6//6
f 14//14 2//2 9//9
f 15//15 8//8 1//1
f 15//15 9//9 2//2
f 15//15 2//2 8//8
f 17//17 10//10 16//16
f 18//18 6//6 2//2
f 20//20 12//12 1//1
f 20//20 1//1 3//3
f 20//20 7//7 12//12
f 21//21 7//7 5//5
f 23//23 10//10 3//3
f 23//23 3//3 13//13
f 23//23 16//16 10//10
f 23//23 13//13 6//6
f 23//23 6//6 16//16
f 25//25 3//3 10//10
f 25//25 10//10 17//17
f 25//25 20//20 3//3
f 25//25 17//17 7//7
f 25//25 7//7 20//20
f 26//26 4//4 7//7
f 26//26 7//7 17//17
f 27//27 17//17 16//16
f 27//27 16//16 4//4
f 27//27 26//26 17//17
f 27//27 4//4 26//26
f 28//28 18//18 2//2
f 28//28 11//11 18//18
f 28//28 24//24 11//11
f 28//28 14//14 24//24
f 29//29 24//24 5//5
f 29//29 11//11 24//24
f 30//30 5//5 7//7
f 31//31 12//12 7//7
f 31//31 7//7 21//21
f 32//32 9//9 15//15
f 33//33 21//21 5//5
f 34//34 5//5 24//24
f 34//34 14//14 9//9
f 34//34 9//9 32//32
f 35//35 28//28 2//2
f 35//35 2//2 14//14
f 35//35 14//14 28//28
f 36//36 29//29 5//5
f 36//36 19//19 29//29
f 36//36 30//30 19//19
f 36//36 5//5 30//30
f 37//37 18//18 11//11
f 37//37 11//11 29//29
f 38//38 30//30 7//7
f 39//39 4//4 16//16
f 39//39 30//30 38//38
f 40//40 6//6 18//18
f 40//40 30//30 39//39
f 41//41 18//18 37//37
f 41//41 37//37 29//29
f 41//41 40//40 18//18
f 41//41 30//30 40//40
f 42//42 31//31 21//21
f 42//42 12//12 31//31
f 42//42 21//21 33//33
f 43//43 32//32 15//15
f 43//43 15//15 1//1
f 43//43 22//22 32//32
f 44//44 33//33 5//5
f 44//44 22//22 33//33
f 44//44 34//34 32//32
f 44//44 32//32 22//22
f 45//45 34//34 24//24
f 45//45 24//24 14//14
f 45//45 14//14 34//34
f 46//46 38//38 7//7
f 46//46 7//7 4//4
f 46//46 39//39 38//38
f 46//46 4//4 39//39
f 47//47 40//40 39//39
f 47//47 39//39 16//16
f 47//47 6//6 40//40
f 48//48 41//41 19//19
f 48//48 19//19 30//30
f 48//48 30//30 41//41
f 49//49 41//41 29//29
f 49//49 29//29 19//19
f 49//49 19//19 41//41
f 50//50 42//42 33//33
f 50//50 33//33 22//22
f 50//50 12//12 42//42
f 50//50 22//22 43//43
f 50//50 43//43 1//1
f 50//50 1//1 12//12
f 51//51 44//44 5//5
f 51//51 5//5 34//34
f 51//51 34//34 44//44
f 52//52 47//47 16//16
f 52//52 16//16 6//6
f 52//52 6//6 47//47

