# https://github.com/mikedh/trimesh
v 0.01433714 -0.01551101 0.04143181
v 0.01982680 -0.10591713 0.02315416
v 0.02011095 0.00194758 0.02341595
v -0.00069214 -0.02398862 0.01677373
v -0.00919675 -0.09855955 0.03465025
v -0.00600000 -0.07516500 0.01430800
v 0.01716526 0.00176417 0.03690957
v 0.00780134 -0.10170034 0.03463421
v 0.00053327 -0.02434979 0.04193381
v 0.01770069 -0.11230571 0.02211617
v -0.01136233 -0.06937363 0.03773592
v 0.01728836 -0.06940066 0.03489762
v 0.01899313 0.00181398 0.03430241
v 0.00823508 -0.06014640 0.04042917
v -0.01033264 -0.11323950 0.02388578
v 0.01310200 -0.10318600 0.03179900
v 0.02028099 0.00165307 0.02449375
v 0.01863734 -0.03145625 0.03394134
v 0.01516715 -0.01842493 0.04069206
v -0.00756500 -0.07092000 0.04028900
v 0.00758388 -0.11062287 0.03180972
v 0.01944108 -0.10474151 0.02533871
v -0.00812200 -0.06863300 0.04028900
v -0.00302388 -0.10234666 0.03471199
v 0.01685947 -0.11120444 0.02400997
v 0.01681661 -0.08943683 0.03166327
v 0.01843585 -0.08251048 0.03074145
v -0.00600000 -0.11027623 0.03219170
v -0.00756432 -0.10822749 0.03284167
vn 0.33558867 0.12484945 0.93369849
vn 0.91975431 -0.16521367 -0.35602873
vn 0.29043327 0.75721478 -0.58504212
vn -0.57616352 0.34216110 -0.74226773
vn -0.66111092 -0.18370694 0.72745042
vn -0.48557414 0.01904186 -0.87398808
vn 0.00230104 0.78344897 0.62145186
vn 0.22721037 -0.21701614 0.94935738
vn -0.63502894 0.29034904 0.71584613
vn 0.58428291 -0.72301546 -0.36859481
vn -0.93659364 0.03832684 0.34831511
vn 0.73531162 -0.07975673 0.67301983
vn 0.69862654 0.66164994 0.27228718
vn 0.23991846 -0.08229314 0.96729880
vn -0.62465013 -0.71225886 -0.32015546
vn 0.54393193 -0.26211974 0.79713945
vn 0.94041187 0.33905980 0.02576763
vn 0.93790073 -0.01577175 0.34654505
vn 0.71458705 -0.03847574 0.69848763
vn -0.24304791 -0.12576572 0.96182675
vn 0.20966814 -0.69338353 0.68938998
vn 0.85263420 -0.20964539 0.47860604
vn -0.39855942 -0.01333248 0.91704560
vn -0.03854932 -0.23165106 0.97203484
vn 0.58933469 -0.51890390 0.61921189
vn 0.68258322 -0.13628190 0.71798844
vn 0.92269987 -0.05054617 0.38219110
vn -0.19478243 -0.68451478 0.70249507
vn -0.51795260 -0.36765146 0.77237135
f 6//6 4//4 3//3
f 7//7 3//3 4//4
f 9//9 7//7 4//4
f 9//9 1//1 7//7
f 10//10 6//6 3//3
f 10//10 3//3 2//2
f 11//11 4//4 6//6
f 11//11 9//9 4//4
f 13//13 3//3 7//7
f 14//14 1//1 9//9
f 14//14 12//12 1//1
f 14//14 8//8 12//12
f 15//15 6//6 10//10
f 15//15 11//11 6//6
f 15//15 5//5 11//11
f 16//16 12//12 8//8
f 17//17 13//13 2//2
f 17//17 2//2 3//3
f 17//17 3//3 13//13
f 19//19 13//13 7//7
f 19//19 7//7 1//1
f 19//19 18//18 13//13
f 19//19 1//1 12//12
f 19//19 12//12 18//18
f 20//20 14//14 9//9
f 20//20 8//8 14//14
f 21//21 15//15 10//10
f 21//21 16//16 8//8
f 22//22 10//10 2//2
f 22//22 2//2 13//13
f 22//22 13//13 18//18
f 23//23 20//20 9//9
f 23//23 9//9 11//11
f 23//23 11//11 5//5
f 23//23 5//5 20//20
f 24//24 20//20 5//5
f 24//24 8//8 20//20
f 24//24 21//21 8//8
f 25//25 21//21 10//10
f 25//25 16//16 21//21
f 25//25 22//22 16//16
f 25//25 10//10 22//22
f 26//26 22//22 12//12
f 26//26 12//12 16//16
f 26//26 16//16 22//22
f 27//27 22//22 18//18
f 27//27 18//18 12//12
f 27//27 12//12 22//22
f 28//28 15//15 21//21
f 28//28 21//21 24//24
f 29//29 28//28 24//24
f 29//29 24//24 5//5
f 29//29 5//5 15//15
f 29//29 15//15 28//28

