# https://github.com/mikedh/trimesh
v 0.02637881 0.00245131 -0.01474591
v 0.01620697 -0.06221175 -0.01127172
v 0.00956678 -0.06116848 -0.03322059
v -0.01647587 0.00146900 -0.03622960
v -0.02412239 0.00401666 -0.01254072
v 0.02280308 0.00188136 -0.03362478
v 0.02049848 -0.02706129 -0.01193729
v -0.03161315 -0.06117461 -0.01427477
v -0.00290558 -0.01013120 -0.03576077
v 0.02655651 0.00226122 -0.03030983
v -0.00496462 -0.02725830 -0.01185217
v -0.03140902 -0.06121667 -0.03453441
v -0.00283736 0.00174182 -0.03594166
v 0.02609858 -0.00481657 -0.02752912
v 0.01721569 -0.04125887 -0.03105178
v -0.00496462 -0.06117461 -0.01185217
v -0.01733294 -0.03434704 -0.03579738
v -0.03713368 -0.03990988 -0.01411827
v 0.02596785 -0.00485745 -0.02207107
v 0.02247918 -0.00256827 -0.03332763
v 0.01909874 -0.04133542 -0.02768269
v -0.01009552 -0.02707202 -0.03583057
v -0.02143201 -0.03177399 -0.03577949
v -0.02360075 -0.01034803 -0.03438324
v 0.02415728 -0.00433386 -0.03151833
v -0.01909899 -0.03417884 -0.03584816
v -0.02805160 -0.00917559 -0.01340521
v -0.02082526 -0.01047806 -0.03560631
v -0.03056705 -0.04198863 -0.03344118
v -0.02761619 -0.02737831 -0.03343877
vn 0.62867532 0.55966323 0.53994852
vn 0.55150178 -0.64267714 0.53180060
vn 0.38706810 -0.65461668 -0.64934990
vn -0.32249668 0.62990419 -0.70655262
vn -0.53012929 0.67836698 0.50870540
vn 0.32519551 0.57039643 -0.75425181
vn 0.37758323 -0.01352089 0.92587693
vn -0.52847306 -0.64144372 0.55611706
vn 0.07128326 -0.02004912 -0.99725460
vn 0.73542503 0.57764238 -0.35423059
vn -0.01560811 0.01110423 0.99981652
vn -0.53154813 -0.59526685 -0.60258939
vn 0.03685502 0.66005535 -0.75031237
vn 0.98166849 -0.14238611 -0.12670114
vn 0.73081161 -0.18387208 -0.65734728
vn -0.05909114 -0.43511742 0.89843256
vn 0.03155018 -0.04737727 -0.99837868
vn -0.85021336 0.04788285 0.52425611
vn 0.99069569 -0.12751258 0.04756670
vn 0.54531184 -0.10436364 -0.83171103
vn 0.92899288 -0.22954167 -0.29031509
vn 0.04459838 -0.02632639 -0.99865805
vn -0.09347945 -0.00277394 -0.99561734
vn -0.74161056 0.23865435 -0.62694329
vn 0.69831056 -0.13489158 -0.70296986
vn -0.01018478 -0.03154482 -0.99945045
vn -0.95436006 0.28687870 -0.08305107
vn -0.30373809 0.05327673 -0.95126482
vn -0.75556686 0.10431793 -0.64671206
vn -0.88846141 0.18421457 -0.42035855
f 7//7 2//2 1//1
f 7//7 1//1 5//5
f 9//9 6//6 3//3
f 10//10 5//5 1//1
f 11//11 7//7 5//5
f 11//11 2//2 7//7
f 12//12 3//3 2//2
f 12//12 2//2 8//8
f 13//13 6//6 9//9
f 13//13 10//10 6//6
f 13//13 4//4 5//5
f 13//13 5//5 10//10
f 14//14 10//10 1//1
f 16//16 8//8 2//2
f 16//16 2//2 11//11
f 16//16 11//11 5//5
f 17//17 3//3 12//12
f 18//18 12//12 8//8
f 18//18 16//16 5//5
f 18//18 8//8 16//16
f 19//19 14//14 1//1
f 19//19 1//1 2//2
f 19//19 2//2 14//14
f 20//20 15//15 3//3
f 20//20 3//3 6//6
f 20//20 6//6 10//10
f 21//21 15//15 10//10
f 21//21 10//10 14//14
f 21//21 14//14 2//2
f 21//21 2//2 3//3
f 21//21 3//3 15//15
f 22//22 9//9 3//3
f 22//22 3//3 17//17
f 22//22 13//13 9//9
f 22//22 4//4 13//13
f 23//23 12//12 4//4
f 24//24 5//5 4//4
f 25//25 20//20 10//10
f 25//25 10//10 15//15
f 25//25 15//15 20//20
f 26//26 22//22 17//17
f 26//26 4//4 22//22
f 26//26 23//23 4//4
f 26//26 17//17 12//12
f 26//26 12//12 23//23
f 27//27 24//24 18//18
f 27//27 18//18 5//5
f 27//27 5//5 24//24
f 28//28 24//24 4//4
f 28//28 4//4 12//12
f 28//28 12//12 24//24
f 29//29 24//24 12//12
f 29//29 12//12 18//18
f 30//30 29//29 18//18
f 30//30 18//18 24//24
f 30//30 24//24 29//29

