# https://github.com/mikedh/trimesh
v 0.00775891 0.10470625 0.03481606
v 0.02013319 0.06558541 0.02920354
v 0.01950818 0.11298378 -0.03192678
v -0.02333687 0.12043459 -0.03131489
v -0.02510193 0.06597363 0.02649601
v 0.00878683 0.12118459 0.00023434
v 0.01885147 0.11285051 0.01908739
v 0.00206304 0.06435026 0.04138851
v -0.02509039 0.10449020 0.02295990
v 0.01960261 0.08411388 -0.03236500
v 0.01659659 0.12211897 -0.02976218
v 0.01734700 0.10374200 0.03179900
v 0.02055453 0.07649971 0.02705396
v -0.00957333 0.11336359 0.02543200
v 0.00068146 0.06468895 0.00584939
v -0.02621893 0.09812575 -0.03189398
v -0.01626955 0.09932351 0.03469589
v 0.00263609 0.12157082 -0.03235010
v -0.01979500 0.12192060 -0.03155292
v 0.01840947 0.12009247 -0.02735780
v 0.01592841 0.12119650 -0.01235224
v 0.01734754 0.11161287 0.02437049
v 0.01473874 0.06507110 0.03650427
v 0.00633281 0.08226491 0.03924374
v 0.01922139 0.11370942 0.01268397
v 0.01868992 0.09865785 0.02982234
v -0.02616200 0.11376600 0.01057500
v -0.02641063 0.06575467 0.00504967
v -0.01780719 0.10358963 0.03277823
v -0.01133395 0.06531634 0.04040851
v 0.01440347 0.12009500 -0.03145634
v -0.00932794 0.12123346 0.00233268
v 0.01736280 0.11335284 0.01965164
v 0.01940082 0.10451099 0.02588828
v 0.00301440 0.11063260 0.03136557
v 0.01940524 0.07654501 0.02997350
v 0.00979835 0.10130390 0.03498550
v 0.01316094 0.09389339 0.03501256
v -0.00987642 0.10417700 0.03475720
v 0.01848276 0.11884253 -0.01760406
v -0.02510100 0.11980100 -0.03081100
v -0.02510100 0.09887100 0.02470400
v 0.01328656 0.08395254 -0.03145295
v -0.01888100 0.06597400 0.03604400
v -0.01799008 0.11116582 0.02437627
v -0.00967715 0.08697629 0.03801818
v -0.02325667 0.12118524 -0.01484450
v -0.01661200 0.12076800 -0.00003700
v 0.00975272 0.11346047 0.02503074
v -0.00523774 0.11069160 0.03148376
v -0.02618128 0.10194495 -0.03127921
v -0.02402006 0.12122906 -0.03072787
v -0.01814842 0.08802362 0.03494714
v -0.02127531 0.07337471 0.03254273
v -0.01815882 0.12120715 -0.00326502
v -0.02501969 0.11907188 -0.01578430
v -0.01680695 0.11283492 0.02248313
v 0.00701039 0.12098215 0.00241866
v -0.01448900 0.07552500 0.03810100
vn 0.17296857 0.41295937 0.89417360
vn 0.75317610 -0.62960016 0.19060274
vn 0.72215865 0.11865258 -0.68147521
vn -0.22524731 0.21924327 -0.94931345
vn -0.74162974 -0.62565576 0.24195081
vn 0.17753301 0.97289564 0.14817593
vn 0.78304347 0.58546420 0.20993952
vn 0.08944789 -0.64636964 0.75776340
vn -0.87171612 0.29584946 0.39062015
vn 0.59087120 -0.43536328 -0.67921280
vn 0.45572448 0.78412420 -0.42126529
vn 0.64459037 0.33433494 0.68754884
vn 0.98661100 0.01022538 0.16277030
vn -0.14735438 0.89105202 0.42931687
vn 0.10791976 -0.96413538 -0.24247949
vn -0.67240424 -0.24069407 -0.69995636
vn -0.39485962 0.18380807 0.90016691
vn 0.01197990 0.61062243 -0.79183125
vn -0.09726151 0.73041930 -0.67603834
vn 0.89087419 0.44780810 -0.07623053
vn 0.46623611 0.87981965 0.09241898
vn 0.58127155 0.66466739 0.46940457
vn 0.48995974 -0.62926612 0.60329396
vn 0.20107758 0.11533738 0.97276158
vn 0.90064944 0.42677695 0.08180483
vn 0.92329774 0.05255170 0.38047287
vn -0.80868112 0.54196843 0.22870300
vn -0.67969459 -0.70452724 -0.20409954
vn -0.53194158 0.40680414 0.74266315
vn -0.24936062 -0.60690033 0.75464646
vn 0.18731567 0.34102954 -0.92120123
vn -0.05378183 0.97911754 0.19605191
vn 0.32245588 0.90384213 0.28123229
vn 0.96356440 0.16575230 0.20992812
vn 0.08887986 0.73700501 0.67001790
vn 0.86121438 0.02528483 0.50761252
vn 0.28303310 0.18570697 0.94095971
vn 0.41093147 0.11091420 0.90489412
vn -0.13662946 0.37887252 0.91530760
vn 0.85192274 0.52000984 0.06178520
vn -0.79437157 0.30585916 -0.52480853
vn -0.92248929 0.07551442 0.37856451
vn -0.12032544 -0.66218020 -0.73962096
vn -0.56460902 -0.58223392 0.58499599
vn -0.46734975 0.70479461 0.53371225
vn -0.13086738 0.14790034 0.98030568
vn -0.47099433 0.87954018 0.06762707
vn -0.22361504 0.93866722 0.26248840
vn 0.15403985 0.88679178 0.43574312
vn -0.09284631 0.72726214 0.68005098
vn -0.98346563 0.04774194 -0.17468849
vn -0.49433300 0.75995665 -0.42201987
vn -0.63474699 0.08617034 0.76790034
vn -0.81496447 0.03447674 0.57848446
vn -0.23905051 0.96002679 0.14561394
vn -0.87692205 0.47879271 0.04201509
vn -0.31240729 0.85534039 0.41327291
vn 0.09428666 0.96930855 0.22704837
vn -0.43207197 0.08201106 0.89810244
f 13//13 10//10 3//3
f 13//13 2//2 10//10
f 15//15 10//10 2//2
f 18//18 3//3 10//10
f 18//18 10//10 16//16
f 19//19 11//11 18//18
f 19//19 18//18 16//16
f 19//19 16//16 4//4
f 20//20 3//3 11//11
f 21//21 11//11 6//6
f 21//21 20//20 11//11
f 23//23 15//15 2//2
f 23//23 8//8 15//15
f 24//24 8//8 23//23
f 25//25 13//13 3//3
f 25//25 3//3 20//20
f 25//25 21//21 7//7
f 26//26 2//2 13//13
f 28//28 15//15 8//8
f 28//28 8//8 5//5
f 28//28 27//27 16//16
f 28//28 5//5 27//27
f 28//28 10//10 15//15
f 30//30 5//5 8//8
f 31//31 18//18 11//11
f 31//31 11//11 3//3
f 31//31 3//3 18//18
f 32//32 6//6 11//11
f 32//32 11//11 19//19
f 33//33 21//21 6//6
f 33//33 7//7 21//21
f 33//33 22//22 7//7
f 34//34 22//22 12//12
f 34//34 7//7 22//22
f 34//34 12//12 26//26
f 34//34 26//26 13//13
f 34//34 25//25 7//7
f 34//34 13//13 25//25
f 35//35 1//1 12//12
f 35//35 12//12 22//22
f 36//36 23//23 2//2
f 36//36 12//12 23//23
f 36//36 26//26 12//12
f 36//36 2//2 26//26
f 37//37 12//12 1//1
f 37//37 1//1 24//24
f 38//38 24//24 23//23
f 38//38 23//23 12//12
f 38//38 37//37 24//24
f 38//38 12//12 37//37
f 39//39 24//24 1//1
f 39//39 29//29 17//17
f 40//40 25//25 20//20
f 40//40 20//20 21//21
f 40//40 21//21 25//25
f 41//41 4//4 16//16
f 42//42 27//27 5//5
f 42//42 9//9 27//27
f 42//42 29//29 9//9
f 43//43 28//28 16//16
f 43//43 16//16 10//10
f 43//43 10//10 28//28
f 44//44 5//5 30//30
f 45//45 27//27 9//9
f 45//45 9//9 29//29
f 46//46 30//30 8//8
f 46//46 8//8 24//24
f 46//46 24//24 39//39
f 46//46 39//39 17//17
f 46//46 17//17 30//30
f 48//48 14//14 32//32
f 49//49 32//32 14//14
f 49//49 35//35 22//22
f 49//49 22//22 33//33
f 50//50 39//39 1//1
f 50//50 1//1 35//35
f 50//50 29//29 39//39
f 50//50 45//45 29//29
f 50//50 14//14 45//45
f 50//50 49//49 14//14
f 50//50 35//35 49//49
f 51//51 41//41 16//16
f 51//51 16//16 27//27
f 51//51 27//27 41//41
f 52//52 19//19 4//4
f 52//52 4//4 41//41
f 52//52 47//47 19//19
f 53//53 17//17 29//29
f 53//53 29//29 42//42
f 54//54 42//42 5//5
f 54//54 5//5 44//44
f 54//54 53//53 42//42
f 54//54 44//44 53//53
f 55//55 32//32 19//19
f 55//55 19//19 47//47
f 55//55 48//48 32//32
f 55//55 47//47 27//27
f 55//55 27//27 48//48
f 56//56 41//41 27//27
f 56//56 27//27 47//47
f 56//56 52//52 41//41
f 56//56 47//47 52//52
f 57//57 45//45 14//14
f 57//57 14//14 48//48
f 57//57 48//48 27//27
f 57//57 27//27 45//45
f 58//58 6//6 32//32
f 58//58 32//32 49//49
f 58//58 49//49 33//33
f 58//58 33//33 6//6
f 59//59 53//53 44//44
f 59//59 44//44 30//30
f 59//59 30//30 17//17
f 59//59 17//17 53//53

