# https://github.com/mikedh/trimesh
v 0.02569865 0.00199313 0.02902588
v 0.02108072 -0.02687199 0.02604801
v 0.02616840 0.00190234 -0.01434082
v -0.02412239 0.00401666 -0.01254072
v -0.02365065 0.00406696 0.03185703
v -0.01707759 -0.02725830 -0.01427477
v 0.02627919 0.00237061 0.01285402
v 0.02022346 -0.02708439 0.02884855
v 0.02067658 -0.02708203 -0.01441485
v -0.01707759 -0.02725830 0.02933192
v 0.02675980 0.00233866 0.02616640
v 0.02159350 -0.02202055 -0.01471104
v 0.02616806 -0.00245236 0.01748168
v 0.02411401 -0.00739329 -0.01454768
v 0.02114259 -0.02657556 0.01522189
vn 0.54245845 0.48975651 0.68255211
vn 0.74831536 -0.65659049 0.09440891
vn 0.63059506 0.51285241 -0.58252234
vn -0.64767334 0.53924416 -0.53827036
vn -0.61258767 0.51460958 0.59992776
vn -0.50887469 -0.61928043 -0.59794506
vn 0.28607154 0.95813674 -0.01170699
vn 0.44104415 -0.64199983 0.62714932
vn 0.51176808 -0.63931493 -0.57390754
vn -0.50404328 -0.65161934 0.56686208
vn 0.78238251 0.59963634 0.16826726
vn 0.63468908 -0.13131363 -0.76152905
vn 0.98773608 -0.15613183 0.00054125
vn 0.10115063 -0.00200335 -0.99486911
vn 0.94759650 -0.31940231 -0.00656037
f 6//6 4//4 3//3
f 7//7 3//3 4//4
f 7//7 4//4 5//5
f 8//8 1//1 5//5
f 9//9 8//8 6//6
f 9//9 2//2 8//8
f 10//10 5//5 4//4
f 10//10 4//4 6//6
f 10//10 8//8 5//5
f 10//10 6//6 8//8
f 11//11 7//7 5//5
f 11//11 5//5 1//1
f 11//11 3//3 7//7
f 11//11 8//8 2//2
f 11//11 1//1 8//8
f 12//12 9//9 6//6
f 12//12 3//3 9//9
f 13//13 9//9 3//3
f 13//13 3//3 11//11
f 13//13 11//11 2//2
f 14//14 12//12 6//6
f 14//14 6//6 3//3
f 14//14 3//3 12//12
f 15//15 13//13 2//2
f 15//15 2//2 9//9
f 15//15 9//9 13//13

