# https://github.com/mikedh/trimesh
v 0.01484707 -0.03299297 -0.01335751
v 0.02652330 -0.04779454 -0.01785188
v 0.02240881 -0.03927704 -0.02256184
v -0.02834313 -0.04141673 -0.02284687
v -0.01970620 -0.04570198 -0.01335146
v 0.02657433 -0.04408838 -0.02181312
v -0.00725529 -0.03527736 -0.02161605
v 0.01500418 -0.04970830 -0.01358199
v -0.01979652 -0.03443272 -0.01337642
v -0.02884309 -0.04760246 -0.01976276
v 0.00185951 -0.04301627 -0.02286150
v 0.02242142 -0.03922080 -0.01767224
v 0.01490678 -0.03490015 -0.01934847
v -0.00073956 -0.03685373 -0.02285306
v 0.02636891 -0.04800898 -0.01737091
v 0.00523864 -0.03387979 -0.01333618
v -0.01959975 -0.03595356 -0.02031090
v -0.01986630 -0.03507196 -0.01832509
v 0.00491035 -0.04680106 -0.02084783
v -0.01321865 -0.04889373 -0.01762373
v -0.02834777 -0.04138119 -0.01767224
v 0.02019645 -0.04011505 -0.02301765
v -0.02839790 -0.04501372 -0.02189967
v 0.02720647 -0.04614256 -0.01974145
v 0.02679411 -0.04322994 -0.02214721
v 0.01484578 -0.03397764 -0.01715255
v -0.00732314 -0.03678259 -0.02278276
v 0.01507205 -0.03742240 -0.02218258
v 0.00831786 -0.04497759 -0.02182326
v 0.00825820 -0.04943482 -0.01725985
v 0.02014021 -0.03954208 -0.02288282
v -0.00341595 -0.04329433 -0.02285134
v -0.00977007 -0.03858621 -0.02296060
v 0.00195621 -0.04664513 -0.02096439
v 0.02342969 -0.04574825 -0.02075302
v 0.01921607 -0.04102427 -0.02289353
v -0.00042582 -0.03520304 -0.02155159
v -0.01704792 -0.03717825 -0.02206310
v 0.00815683 -0.04894094 -0.01799363
v 0.02012816 -0.04763092 -0.01907576
v -0.01612656 -0.03611694 -0.02123502
v 0.02247876 -0.04665030 -0.01989778
vn 0.28438821 0.76197821 0.58181832
vn 0.70593170 -0.67727733 -0.20725793
vn 0.46186838 0.60736804 -0.64636032
vn -0.66447552 0.30135030 -0.68385692
vn -0.22495314 -0.45609045 0.86103286
vn 0.33394295 -0.50075582 -0.79857731
vn -0.04014754 0.84624773 -0.53127484
vn 0.16470084 -0.74650292 0.64467591
vn -0.32717526 0.71019679 0.62335934
vn -0.69734131 -0.71634636 -0.02372758
vn 0.01136245 -0.24279039 -0.97001223
vn 0.72479710 0.58660466 0.36133659
vn 0.17661813 0.85304486 -0.49104023
vn 0.01448640 0.36056059 -0.93262329
vn 0.67653058 -0.61046427 0.41187346
vn -0.00019301 0.02347157 0.99972449
vn -0.22545204 0.80275841 -0.55204195
vn -0.29819338 0.92449427 -0.23746799
vn 0.01019792 -0.65762580 -0.75327572
vn -0.06808537 -0.99695418 0.03803614
vn -0.83350742 0.29438708 0.46754853
vn 0.06625930 0.03840394 -0.99706311
vn -0.55974497 -0.34793299 -0.75208258
vn 0.92096515 -0.34134487 -0.18790122
vn 0.79740094 0.17952371 -0.57612757
vn 0.21849503 0.93143044 -0.29102794
vn -0.03087045 0.38760190 -0.92130982
vn 0.09103688 0.60737508 -0.78918172
vn 0.02117162 -0.46164965 -0.88680966
vn 0.00616566 -0.95002858 -0.31210205
vn 0.06834490 0.33920797 -0.93822542
vn -0.00022742 -0.26921405 -0.96308034
vn -0.01321476 0.05693495 -0.99829043
vn -0.00036555 -0.58666531 -0.80982942
vn 0.06988884 -0.66784077 -0.74101569
vn 0.02475031 -0.19522656 -0.98044582
vn 0.01534093 0.83275926 -0.55342268
vn -0.12137498 0.55293585 -0.82433614
vn 0.01933729 -0.80986675 -0.58629507
vn 0.05925538 -0.80561949 -0.58946250
vn -0.11066878 0.75531037 -0.64595562
vn 0.08213642 -0.74350601 -0.66366590
f 8//8 1//1 5//5
f 12//12 3//3 1//1
f 15//15 1//1 8//8
f 15//15 12//12 1//1
f 16//16 9//9 5//5
f 16//16 5//5 1//1
f 16//16 1//1 9//9
f 18//18 9//9 1//1
f 18//18 1//1 7//7
f 18//18 7//7 17//17
f 18//18 17//17 4//4
f 18//18 4//4 9//9
f 20//20 8//8 5//5
f 20//20 5//5 10//10
f 21//21 9//9 4//4
f 21//21 4//4 10//10
f 21//21 10//10 5//5
f 21//21 5//5 9//9
f 23//23 10//10 4//4
f 24//24 15//15 2//2
f 24//24 12//12 15//15
f 25//25 3//3 12//12
f 25//25 22//22 3//3
f 25//25 6//6 11//11
f 25//25 24//24 6//6
f 25//25 12//12 24//24
f 26//26 1//1 3//3
f 26//26 3//3 13//13
f 27//27 7//7 14//14
f 28//28 13//13 3//3
f 29//29 11//11 6//6
f 29//29 6//6 19//19
f 30//30 20//20 10//10
f 30//30 2//2 15//15
f 30//30 15//15 8//8
f 30//30 8//8 20//20
f 31//31 22//22 14//14
f 31//31 3//3 22//22
f 31//31 28//28 3//3
f 31//31 14//14 28//28
f 32//32 22//22 11//11
f 32//32 4//4 22//22
f 32//32 23//23 4//4
f 32//32 11//11 29//29
f 33//33 22//22 4//4
f 33//33 14//14 22//22
f 33//33 27//27 14//14
f 33//33 4//4 27//27
f 34//34 19//19 10//10
f 34//34 10//10 23//23
f 34//34 23//23 32//32
f 34//34 32//32 29//29
f 34//34 29//29 19//19
f 35//35 19//19 6//6
f 35//35 6//6 24//24
f 36//36 25//25 11//11
f 36//36 11//11 22//22
f 36//36 22//22 25//25
f 37//37 26//26 13//13
f 37//37 7//7 1//1
f 37//37 1//1 26//26
f 37//37 13//13 28//28
f 37//37 28//28 14//14
f 37//37 14//14 7//7
f 38//38 7//7 27//27
f 38//38 27//27 4//4
f 38//38 4//4 17//17
f 39//39 30//30 10//10
f 39//39 10//10 19//19
f 40//40 2//2 30//30
f 40//40 30//30 39//39
f 40//40 39//39 19//19
f 40//40 19//19 35//35
f 41//41 38//38 17//17
f 41//41 17//17 7//7
f 41//41 7//7 38//38
f 42//42 40//40 35//35
f 42//42 35//35 24//24
f 42//42 24//24 2//2
f 42//42 2//2 40//40

