# https://github.com/mikedh/trimesh
v -0.04575124 0.04099792 0.01723007
v -0.02833253 0.04484256 0.01112825
v -0.04767052 0.04486470 -0.00681763
v -0.04780698 0.03963315 -0.01509335
v -0.04819066 0.03226635 0.00719471
v -0.03104926 0.04510515 -0.01357911
v -0.04767052 0.04486470 0.01154569
v -0.04836235 0.03563321 0.01543539
v -0.04120320 0.04491087 -0.01529488
v -0.04837830 0.03354668 -0.00978463
v -0.02926019 0.04166186 -0.00658658
v -0.03686856 0.04486470 0.01154569
v -0.03270842 0.04519075 -0.01451170
v -0.03016023 0.04078379 0.01030180
v -0.04774514 0.04068880 0.01768609
v -0.04837326 0.03348925 0.01129824
v -0.04829879 0.03570964 -0.01271870
v -0.02830402 0.04504983 -0.00962745
v -0.03215229 0.04193545 -0.01141322
v -0.04820170 0.03233118 -0.00358686
v -0.02912618 0.04518297 -0.01164512
v -0.04140216 0.04114820 0.01607849
v -0.02822464 0.04327237 0.00723310
v -0.04806547 0.03881399 0.01713080
v -0.04809976 0.03785060 -0.01437702
v -0.03115316 0.04078458 -0.00765161
v -0.03305202 0.04284310 -0.01332481
v -0.03046384 0.04060120 0.00544124
v -0.02769653 0.04493412 0.00721403
v -0.02915771 0.04283432 -0.00952158
v -0.04820093 0.03661617 0.01617031
v -0.02949995 0.04134098 0.01004160
v -0.03286971 0.04430155 -0.01421966
v -0.03102924 0.04189968 -0.01039649
v -0.02874397 0.04294634 0.01035871
v -0.02859219 0.04325356 -0.00854391
v -0.02853878 0.04429117 -0.00959372
v -0.03042948 0.04358091 -0.01221943
v -0.03119199 0.04436163 -0.01342579
v -0.02931823 0.04453512 -0.01151678
vn 0.16269088 0.34207715 0.92548090
vn 0.67342604 0.47417684 0.56714522
vn -0.68608391 0.72228957 -0.08710132
vn -0.58796432 0.07378598 -0.80551448
vn -0.44471750 -0.88965583 0.10362840
vn 0.54213310 0.45802949 -0.70448612
vn -0.62024530 0.75110901 0.22612171
vn -0.54417969 -0.62571487 0.55888225
vn -0.11097271 0.63932049 -0.76089051
vn -0.52402968 -0.78284832 -0.33547192
vn 0.70658067 -0.70052196 -0.10006371
vn 0.01340059 0.94677108 0.32162859
vn 0.25381978 0.54626720 -0.79822783
vn 0.54433574 -0.70797884 0.44996063
vn -0.46385790 0.25711891 0.84777692
vn -0.54575761 -0.77688163 0.31401205
vn -0.58071840 -0.57771439 -0.57359587
vn 0.84309622 0.50250265 -0.19151986
vn 0.39673570 -0.76815229 -0.50253642
vn -0.45263831 -0.88845043 -0.07598942
vn 0.70207891 0.54509962 -0.45820477
vn 0.32996750 -0.07908747 0.94067349
vn 0.91089426 -0.41085647 0.03832230
vn -0.59775212 -0.21946086 0.77105728
vn -0.60545775 -0.36163792 -0.70897033
vn 0.45878131 -0.86581446 -0.19971238
vn 0.34266536 -0.64383737 -0.68414464
vn 0.51813347 -0.85524289 -0.00986457
vn 0.81755641 0.57276546 0.05950828
vn 0.71585141 -0.60164863 -0.35436658
vn -0.40284822 -0.44938892 0.79734742
vn 0.74921545 -0.58552042 0.30958367
vn 0.28967881 -0.42300221 -0.85857750
vn 0.47543069 -0.77958041 -0.40770093
vn 0.82150656 -0.40123851 0.40513531
vn 0.90981204 -0.38398953 -0.15746142
vn 0.88592287 -0.32896386 -0.32699152
vn 0.59597679 -0.55043497 -0.58466487
vn 0.53261850 -0.40664875 -0.74226298
vn 0.77093038 -0.38108865 -0.51033105
f 8//8 7//7 3//3
f 9//9 4//4 3//3
f 12//12 1//1 2//2
f 13//13 3//3 7//7
f 13//13 9//9 3//3
f 13//13 4//4 9//9
f 15//15 12//12 7//7
f 15//15 1//1 12//12
f 16//16 8//8 10//10
f 16//16 14//14 8//8
f 16//16 5//5 14//14
f 17//17 10//10 8//8
f 17//17 8//8 3//3
f 20//20 16//16 10//10
f 20//20 5//5 16//16
f 21//21 13//13 7//7
f 21//21 6//6 13//13
f 22//22 14//14 2//2
f 22//22 2//2 1//1
f 22//22 1//1 15//15
f 24//24 15//15 7//7
f 24//24 7//7 8//8
f 24//24 22//22 15//15
f 25//25 17//17 3//3
f 25//25 3//3 4//4
f 26//26 20//20 10//10
f 26//26 11//11 20//20
f 27//27 19//19 10//10
f 27//27 10//10 17//17
f 27//27 17//17 25//25
f 28//28 14//14 5//5
f 28//28 5//5 20//20
f 28//28 20//20 11//11
f 28//28 11//11 14//14
f 29//29 21//21 7//7
f 29//29 7//7 12//12
f 29//29 12//12 2//2
f 29//29 18//18 21//21
f 31//31 8//8 14//14
f 31//31 14//14 22//22
f 31//31 24//24 8//8
f 31//31 22//22 24//24
f 32//32 14//14 11//11
f 32//32 11//11 23//23
f 33//33 25//25 4//4
f 33//33 4//4 13//13
f 33//33 27//27 25//25
f 34//34 26//26 10//10
f 34//34 10//10 19//19
f 34//34 30//30 11//11
f 34//34 11//11 26//26
f 35//35 29//29 2//2
f 35//35 23//23 29//29
f 35//35 32//32 23//23
f 35//35 2//2 14//14
f 35//35 14//14 32//32
f 36//36 29//29 23//23
f 36//36 23//23 11//11
f 36//36 18//18 29//29
f 36//36 11//11 30//30
f 37//37 21//21 18//18
f 37//37 36//36 30//30
f 37//37 18//18 36//36
f 38//38 30//30 34//34
f 38//38 34//34 19//19
f 38//38 19//19 27//27
f 39//39 33//33 13//13
f 39//39 13//13 6//6
f 39//39 6//6 21//21
f 39//39 21//21 38//38
f 39//39 38//38 27//27
f 39//39 27//27 33//33
f 40//40 37//37 30//30
f 40//40 21//21 37//37
f 40//40 38//38 21//21
f 40//40 30//30 38//38

