# https://github.com/mikedh/trimesh
v 0.06441134 0.04100531 -0.01316451
v 0.07352317 -0.00466352 -0.01301971
v 0.06940260 0.02403026 -0.02051187
v 0.05406218 0.04047038 -0.02159805
v 0.05508173 0.02172868 -0.01337065
v 0.06509599 0.00146224 -0.02179438
v 0.06300429 0.03877616 -0.01959329
v 0.07456329 0.01653187 -0.01290409
v 0.05406284 0.04047372 -0.01306882
v 0.07137514 -0.00359633 -0.01953350
v 0.06564702 0.02188510 -0.02261475
v 0.05458697 0.03029057 -0.02056408
v 0.07218129 -0.00985999 -0.01318322
v 0.06795139 0.03554990 -0.01584674
v 0.06292530 0.03998204 -0.01876504
v 0.06898879 0.03452233 -0.01298721
v 0.07246843 -0.00890983 -0.01306900
v 0.07432613 0.00493405 -0.01591465
v 0.05405586 0.03714100 -0.02165853
v 0.06856226 0.00166779 -0.02181768
v 0.06460824 0.03252818 -0.02142089
v 0.05488523 0.02186510 -0.01401332
v 0.07005012 -0.00914197 -0.01939798
v 0.07101944 0.02590253 -0.01781293
v 0.06091217 0.03973188 -0.02033873
v 0.06697312 0.03564868 -0.01789401
v 0.06840147 0.03569494 -0.01305841
v 0.07218818 -0.00674917 -0.01698936
v 0.07457212 0.00172794 -0.01306683
v 0.07222959 0.01868598 -0.01881739
v 0.06536385 0.02028103 -0.02260993
v 0.06502356 0.02172178 -0.02258708
v 0.05447977 0.03305966 -0.02140173
v 0.06957027 0.01436088 -0.02150449
v 0.06737596 0.02513818 -0.02153741
v 0.06985583 -0.00802326 -0.02000661
v 0.07220680 0.02500175 -0.01501773
v 0.06190518 0.03865633 -0.02037421
v 0.06498511 0.03435485 -0.02037073
v 0.06991411 0.03120737 -0.01586151
v 0.06803620 0.03029589 -0.01955552
v 0.06891486 0.03447067 -0.01396286
v 0.07324263 -0.00463655 -0.01493069
v 0.07331394 -0.00153562 -0.01672483
v 0.07127554 -0.00883016 -0.01771982
v 0.07436259 0.01233580 -0.01586621
v 0.07327142 0.00161635 -0.01767491
v 0.07117995 0.02389674 -0.01850750
v 0.06562866 0.01989712 -0.02259449
v 0.07039160 0.01870501 -0.02053149
v 0.06957034 0.00295606 -0.02144494
v 0.06701142 0.03032686 -0.02052755
v 0.06628933 0.02831935 -0.02146641
v 0.07017939 -0.00783244 -0.01967271
v 0.07341949 0.02183394 -0.01292191
v 0.07323287 0.01860924 -0.01697560
v 0.06699429 0.03448603 -0.01855784
v 0.06897600 0.03132617 -0.01760469
v 0.07221734 -0.00883424 -0.01487589
v 0.07219603 -0.00153211 -0.01886552
v 0.07321260 -0.00355059 -0.01600421
v 0.07431090 0.00180525 -0.01485911
v 0.07044999 -0.00891165 -0.01894176
v 0.07338312 0.01541451 -0.01764872
vn 0.40097569 0.75889821 0.51311988
vn 0.74203375 -0.15934596 0.65114882
vn 0.62642107 0.17622610 -0.75930297
vn -0.54186700 0.59344893 -0.59514580
vn -0.65712320 -0.21080457 0.72370611
vn -0.60250287 -0.34045083 -0.72186115
vn 0.55350711 0.44428746 -0.70444200
vn 0.78291909 0.10380101 0.61340284
vn -0.60024648 0.55015002 0.58055071
vn 0.71700936 -0.13172383 -0.68450450
vn 0.18482397 0.05569620 -0.98119215
vn -0.90329737 -0.18609580 -0.38655169
vn 0.18349663 -0.84190102 0.50747577
vn 0.81808724 0.50390163 -0.27715775
vn 0.45163608 0.77688456 -0.43871999
vn 0.68565082 0.30074665 0.66289848
vn 0.67392017 -0.25128572 0.69475686
vn 0.95199699 -0.02210480 -0.30530821
vn -0.73566536 -0.01950228 -0.67706436
vn 0.21734386 -0.09913076 -0.97104827
vn 0.35321358 0.23225140 -0.90625573
vn -0.96607192 -0.25825090 -0.00339421
vn -0.12501375 -0.85124370 -0.50966237
vn 0.84783059 0.27788320 -0.45162399
vn 0.26434649 0.63991666 -0.72154528
vn 0.73087118 0.46956265 -0.49531630
vn 0.69674830 0.46481179 0.54634404
vn 0.89937841 -0.22173988 -0.37676240
vn 0.79970694 -0.07805739 0.59529476
vn 0.78309517 0.11837947 -0.61053113
vn -0.05081167 -0.02479520 -0.99840041
vn -0.06799013 0.00566002 -0.99766994
vn -0.71759206 -0.12618367 -0.68493745
vn 0.50958374 0.01441276 -0.86030035
vn 0.43863168 0.14650578 -0.88664441
vn 0.06934190 -0.41703627 -0.90624084
vn 0.93949957 0.28855259 -0.18460218
vn 0.39527381 0.36257803 -0.84397618
vn 0.56182876 0.35795143 -0.74580106
vn 0.89973692 0.34813985 -0.26319598
vn 0.71910004 0.29842972 -0.62756261
vn 0.90157578 0.40791885 -0.14409483
vn 0.96023938 -0.20461279 -0.18993141
vn 0.91979689 -0.14165587 -0.36593346
vn 0.77982008 -0.48574904 -0.39487786
vn 0.95900633 0.02348693 -0.28240968
vn 0.85007019 -0.05433480 -0.52385915
vn 0.80808070 0.22211193 -0.54559314
vn 0.09120655 -0.02526223 -0.99551152
vn 0.60763564 0.08774242 -0.78935429
vn 0.53492670 -0.02225269 -0.84460538
vn 0.59210128 0.26321687 -0.76166460
vn 0.42348630 0.17019731 -0.88977089
vn 0.76866103 -0.19917455 -0.60785666
vn 0.75702421 0.18963939 0.62526095
vn 0.92184097 0.17830628 -0.34411640
vn 0.69078574 0.35146221 -0.63189349
vn 0.80920836 0.33429114 -0.48314725
vn 0.90771383 -0.34924420 -0.23255988
vn 0.79215416 -0.08830604 -0.60389885
vn 0.94412605 -0.17681610 -0.27814038
vn 0.97084952 -0.10834675 -0.21380409
vn 0.79542081 -0.27357213 -0.54079943
vn 0.84882930 0.05750934 -0.52552974
f 9//9 1//1 4//4
f 9//9 2//2 8//8
f 15//15 4//4 1//1
f 15//15 1//1 14//14
f 16//16 1//1 9//9
f 17//17 9//9 5//5
f 17//17 2//2 9//9
f 17//17 5//5 13//13
f 19//19 9//9 4//4
f 21//21 11//11 4//4
f 22//22 12//12 6//6
f 22//22 19//19 12//12
f 22//22 5//5 9//9
f 22//22 9//9 19//19
f 23//23 22//22 6//6
f 23//23 13//13 5//5
f 23//23 5//5 22//22
f 25//25 15//15 7//7
f 25//25 4//4 15//15
f 25//25 21//21 4//4
f 26//26 15//15 14//14
f 26//26 7//7 15//15
f 27//27 14//14 1//1
f 27//27 1//1 16//16
f 29//29 8//8 2//2
f 31//31 6//6 19//19
f 32//32 19//19 4//4
f 32//32 4//4 11//11
f 32//32 31//31 19//19
f 32//32 11//11 31//31
f 33//33 19//19 6//6
f 33//33 6//6 12//12
f 33//33 12//12 19//19
f 34//34 20//20 11//11
f 35//35 34//34 11//11
f 35//35 3//3 34//34
f 36//36 23//23 6//6
f 36//36 6//6 20//20
f 38//38 25//25 7//7
f 38//38 21//21 25//25
f 39//39 38//38 7//7
f 39//39 21//21 38//38
f 40//40 26//26 14//14
f 40//40 37//37 24//24
f 40//40 16//16 37//37
f 42//42 27//27 16//16
f 42//42 14//14 27//27
f 42//42 40//40 14//14
f 42//42 16//16 40//40
f 43//43 29//29 2//2
f 45//45 10//10 28//28
f 45//45 13//13 23//23
f 46//46 29//29 18//18
f 46//46 8//8 29//29
f 47//47 18//18 44//44
f 48//48 30//30 3//3
f 48//48 41//41 24//24
f 48//48 3//3 41//41
f 49//49 31//31 11//11
f 49//49 11//11 20//20
f 49//49 20//20 6//6
f 49//49 6//6 31//31
f 50//50 34//34 3//3
f 50//50 3//3 30//30
f 50//50 30//30 34//34
f 51//51 20//20 34//34
f 51//51 36//36 20//20
f 51//51 10//10 36//36
f 52//52 3//3 35//35
f 52//52 41//41 3//3
f 52//52 21//21 39//39
f 53//53 35//35 11//11
f 53//53 11//11 21//21
f 53//53 52//52 35//35
f 53//53 21//21 52//52
f 54//54 36//36 10//10
f 54//54 10//10 23//23
f 54//54 23//23 36//36
f 55//55 37//37 16//16
f 55//55 16//16 9//9
f 55//55 9//9 8//8
f 56//56 24//24 37//37
f 56//56 48//48 24//24
f 56//56 30//30 48//48
f 56//56 8//8 46//46
f 56//56 55//55 8//8
f 56//56 37//37 55//55
f 57//57 39//39 7//7
f 57//57 7//7 26//26
f 57//57 52//52 39//39
f 57//57 41//41 52//52
f 58//58 40//40 24//24
f 58//58 26//26 40//40
f 58//58 24//24 41//41
f 58//58 57//57 26//26
f 58//58 41//41 57//57
f 59//59 17//17 13//13
f 59//59 28//28 43//43
f 59//59 45//45 28//28
f 59//59 13//13 45//45
f 59//59 43//43 2//2
f 59//59 2//2 17//17
f 60//60 44//44 28//28
f 60//60 28//28 10//10
f 60//60 47//47 44//44
f 60//60 10//10 51//51
f 60//60 51//51 34//34
f 60//60 34//34 30//30
f 61//61 43//43 28//28
f 61//61 28//28 44//44
f 62//62 44//44 18//18
f 62//62 18//18 29//29
f 62//62 61//61 44//44
f 62//62 29//29 43//43
f 62//62 43//43 61//61
f 63//63 45//45 23//23
f 63//63 23//23 10//10
f 63//63 10//10 45//45
f 64//64 46//46 18//18
f 64//64 18//18 47//47
f 64//64 56//56 46//46
f 64//64 30//30 56//56
f 64//64 60//60 30//30
f 64//64 47//47 60//60

