# https://github.com/mikedh/trimesh
v 0.05962636 -0.02534704 0.01692360
v 0.06557617 -0.02514072 0.01117191
v 0.05306273 -0.02585088 -0.01644520
v 0.02878194 -0.03739863 -0.01758004
v 0.04344527 -0.04575606 0.01210162
v 0.02894346 -0.03207316 0.00373945
v 0.06264245 -0.02523096 -0.01562453
v 0.05684858 -0.03839186 0.01188834
v 0.04792822 -0.02636228 0.01382142
v 0.02876201 -0.03208889 -0.01182326
v 0.02900756 -0.04714041 0.01353646
v 0.06441746 -0.02499038 0.01394199
v 0.04975077 -0.04251994 -0.01396159
v 0.04988003 -0.03805536 -0.01652047
v 0.05009430 -0.03796626 0.01658294
v 0.06210920 -0.03430440 -0.00988914
v 0.04982687 -0.02612598 0.01537528
v 0.02886286 -0.03507057 -0.01663522
v 0.04474860 -0.02676749 -0.00887447
v 0.02872345 -0.04612092 0.01489549
v 0.06572194 -0.02509761 -0.01198521
v 0.06208064 -0.03216321 0.01190844
v 0.06360459 -0.02503124 0.01498552
v 0.02872163 -0.04713987 -0.01176712
v 0.05100303 -0.04359786 0.00598896
v 0.05972009 -0.02542348 -0.01662734
v 0.04049056 -0.04219963 -0.01648383
v 0.06110281 -0.03314484 -0.01380119
v 0.04865092 -0.04364111 0.01282986
v 0.05292529 -0.02586944 0.01668104
v 0.02882863 -0.03412761 0.01516633
v 0.02882301 -0.03301140 -0.01401918
v 0.04913120 -0.02637936 -0.01441657
v 0.04466283 -0.02677132 -0.00702933
v 0.03964877 -0.04576148 0.01386620
v 0.06528955 -0.02928079 -0.00690550
v 0.06427498 -0.02826321 0.01206776
v 0.06012640 -0.03622513 0.00702105
v 0.05522985 -0.03462960 0.01665468
v 0.02871022 -0.04811026 -0.00362714
v 0.05490141 -0.04152191 -0.00893401
v 0.05866265 -0.02956884 -0.01641255
v 0.05070858 -0.04164405 -0.01480025
v 0.03635221 -0.04143852 -0.01700189
v 0.04259436 -0.04472919 -0.01349539
v 0.06312127 -0.03144468 -0.01245184
v 0.05276447 -0.04242989 0.00788593
v 0.04764993 -0.04468565 0.01030051
v 0.02872609 -0.04247928 0.01683795
v 0.02877042 -0.03306572 0.01224015
v 0.03398089 -0.04690178 0.01352196
v 0.04251661 -0.04578246 0.01289747
v 0.04672127 -0.04290495 0.01439402
v 0.06530625 -0.02920343 -0.00594653
v 0.06115920 -0.03211376 0.01372723
v 0.06403104 -0.02607192 0.01394853
v 0.06100139 -0.03413048 0.01092783
v 0.05945035 -0.02722160 0.01666823
v 0.05412656 -0.03747411 0.01551493
v 0.02882280 -0.04802324 0.00587718
v 0.05582274 -0.03965011 -0.01250878
v 0.05974792 -0.02743513 -0.01648256
v 0.06123793 -0.02948742 -0.01535132
v 0.04472649 -0.04092961 -0.01647512
vn 0.16585518 0.62064096 0.76635296
vn 0.85994394 0.48422103 0.16132706
vn -0.10740365 0.76604855 -0.63374607
vn -0.65706536 -0.03666151 -0.75294159
vn 0.24766544 -0.95757350 0.14735949
vn -0.71686774 0.69640168 0.03354626
vn 0.47109894 0.58231004 -0.66255627
vn 0.62177625 -0.69649853 0.35816769
vn -0.25326107 0.95955175 0.12296047
vn -0.77368488 0.61930446 -0.13369250
vn -0.48748647 -0.82179268 0.29498089
vn 0.68493039 0.59620290 0.41882272
vn 0.30438393 -0.88287337 -0.35761016
vn 0.18321430 -0.22383561 -0.95725135
vn 0.14850584 -0.31991667 0.93573465
vn 0.77795562 -0.60816325 -0.15786867
vn -0.22088959 0.93261007 0.28538789
vn -0.69756121 0.40825852 -0.58884068
vn -0.22642640 0.97225670 -0.05871954
vn -0.63673291 -0.50350828 0.58399538
vn 0.77608926 0.54436352 -0.31836114
vn 0.81468315 -0.51935772 0.25799015
vn 0.51129221 0.56561817 0.64703660
vn -0.60269031 -0.70874134 -0.36667438
vn 0.39676131 -0.91780886 0.01440014
vn 0.10174191 0.65545881 -0.74834640
vn 0.07566256 -0.52438883 -0.84811057
vn 0.60650466 -0.48334961 -0.63128856
vn 0.40492855 -0.78981503 0.46067895
vn -0.10718977 0.72630765 0.67896064
vn -0.69405353 0.42378658 0.58197477
vn -0.75878634 0.55304504 -0.34407044
vn -0.23898434 0.95090827 -0.19662132
vn -0.21903409 0.97571589 0.00160434
vn 0.14071224 -0.69484258 0.70526155
vn 0.93653331 -0.34705434 -0.04958471
vn 0.86597368 -0.39988817 0.30029826
vn 0.75873469 -0.64594586 0.08411674
vn 0.30461115 -0.28539635 0.90871391
vn -0.62778108 -0.77718884 -0.04322524
vn 0.51877752 -0.84738360 -0.11318535
vn 0.24620195 -0.20991688 -0.94621324
vn 0.36380278 -0.64398566 -0.67300075
vn -0.02648423 -0.37726755 -0.92572554
vn 0.18148013 -0.89858865 -0.39950396
vn 0.80945844 -0.40759214 -0.42266497
vn 0.55727422 -0.82063000 0.12653791
vn 0.33724822 -0.93654382 0.09565205
vn -0.63134051 -0.16176384 0.75844685
vn -0.79673423 0.58778392 0.14044440
vn 0.10257346 -0.90037941 0.42284228
vn 0.20930903 -0.87993922 0.42649349
vn 0.22357046 -0.59367220 0.77302624
vn 0.94314490 -0.33147798 0.02449585
vn 0.65931738 -0.46026750 0.59452033
vn 0.76953279 -0.32343344 0.55064516
vn 0.78032318 -0.58166507 0.22969867
vn 0.38671172 -0.20587756 0.89892629
vn 0.42924130 -0.55923750 0.70922869
vn -0.60401900 -0.79616081 0.03590297
vn 0.57975239 -0.69022391 -0.43298744
vn 0.25534114 -0.12801289 -0.95833898
vn 0.53551986 -0.28771870 -0.79400027
vn 0.12849014 -0.35105318 -0.92749768
f 18//18 3//3 4//4
f 21//21 12//12 2//2
f 21//21 7//7 12//12
f 23//23 12//12 7//7
f 23//23 7//7 3//3
f 24//24 10//10 4//4
f 26//26 14//14 4//4
f 26//26 4//4 3//3
f 26//26 3//3 7//7
f 30//30 3//3 17//17
f 30//30 23//23 3//3
f 30//30 1//1 23//23
f 31//31 30//30 17//17
f 32//32 10//10 3//3
f 32//32 3//3 18//18
f 32//32 18//18 4//4
f 32//32 4//4 10//10
f 33//33 19//19 3//3
f 33//33 3//3 10//10
f 33//33 10//10 19//19
f 34//34 9//9 17//17
f 34//34 17//17 3//3
f 34//34 3//3 19//19
f 34//34 6//6 9//9
f 34//34 19//19 10//10
f 34//34 10//10 6//6
f 37//37 2//2 12//12
f 40//40 10//10 24//24
f 41//41 16//16 38//38
f 43//43 14//14 42//42
f 44//44 4//4 14//14
f 44//44 27//27 24//24
f 44//44 24//24 4//4
f 45//45 24//24 27//27
f 45//45 40//40 24//24
f 45//45 5//5 40//40
f 45//45 41//41 25//25
f 45//45 13//13 41//41
f 45//45 43//43 13//13
f 45//45 27//27 43//43
f 46//46 16//16 28//28
f 46//46 36//36 16//16
f 46//46 21//21 36//36
f 46//46 7//7 21//21
f 47//47 8//8 29//29
f 47//47 38//38 8//8
f 47//47 41//41 38//38
f 47//47 25//25 41//41
f 48//48 29//29 5//5
f 48//48 47//47 29//29
f 48//48 25//25 47//47
f 48//48 45//45 25//25
f 48//48 5//5 45//45
f 49//49 1//1 30//30
f 49//49 39//39 1//1
f 49//49 15//15 39//39
f 49//49 30//30 31//31
f 49//49 35//35 15//15
f 49//49 20//20 35//35
f 49//49 40//40 20//20
f 49//49 10//10 40//40
f 50//50 31//31 17//17
f 50//50 17//17 9//9
f 50//50 9//9 6//6
f 50//50 6//6 10//10
f 50//50 49//49 31//31
f 50//50 10//10 49//49
f 51//51 35//35 20//20
f 51//51 20//20 11//11
f 52//52 5//5 29//29
f 52//52 51//51 5//5
f 52//52 35//35 51//51
f 53//53 15//15 35//35
f 53//53 52//52 29//29
f 53//53 35//35 52//52
f 54//54 36//36 21//21
f 54//54 21//21 2//2
f 54//54 2//2 37//37
f 54//54 37//37 22//22
f 54//54 22//22 38//38
f 54//54 38//38 16//16
f 54//54 16//16 36//36
f 55//55 22//22 37//37
f 55//55 23//23 39//39
f 56//56 37//37 12//12
f 56//56 12//12 23//23
f 56//56 55//55 37//37
f 56//56 23//23 55//55
f 57//57 38//38 22//22
f 57//57 8//8 38//38
f 57//57 55//55 8//8
f 57//57 22//22 55//55
f 58//58 39//39 23//23
f 58//58 23//23 1//1
f 58//58 1//1 39//39
f 59//59 29//29 8//8
f 59//59 55//55 39//39
f 59//59 8//8 55//55
f 59//59 53//53 29//29
f 59//59 39//39 15//15
f 59//59 15//15 53//53
f 60//60 11//11 20//20
f 60//60 20//20 40//40
f 60//60 51//51 11//11
f 60//60 40//40 5//5
f 60//60 5//5 51//51
f 61//61 28//28 16//16
f 61//61 16//16 41//41
f 61//61 43//43 28//28
f 61//61 41//41 13//13
f 61//61 13//13 43//43
f 62//62 26//26 7//7
f 62//62 42//42 14//14
f 62//62 14//14 26//26
f 63//63 43//43 42//42
f 63//63 28//28 43//43
f 63//63 46//46 28//28
f 63//63 7//7 46//46
f 63//63 62//62 7//7
f 63//63 42//42 62//62
f 64//64 43//43 27//27
f 64//64 14//14 43//43
f 64//64 44//44 14//14
f 64//64 27//27 44//44

