# https://github.com/mikedh/trimesh
v 0.01216680 -0.03857615 0.01688059
v 0.01236073 -0.04910923 0.01367596
v 0.01216675 -0.04551213 -0.01600655
v -0.03122814 -0.03748680 -0.01673309
v -0.03107880 -0.04337159 0.01685639
v 0.01211647 -0.03307304 -0.00788872
v 0.00450395 -0.04645425 0.01671856
v -0.02638061 -0.05081618 -0.01157274
v -0.02225988 -0.03770804 -0.01655298
v -0.03157548 -0.03274920 0.00923875
v 0.01229588 -0.03392575 0.00277895
v -0.02867411 -0.04998071 0.01222231
v 0.01207927 -0.04444810 0.01697746
v 0.01205908 -0.05000700 -0.00456298
v -0.03098282 -0.04616182 -0.01569558
v -0.03107373 -0.04149680 -0.01737808
v -0.03149456 -0.03345274 -0.01377464
v -0.03148461 -0.03585934 0.01595894
v 0.01219065 -0.03687372 0.01590416
v -0.02455691 -0.04702543 0.01575815
v 0.01198424 -0.04722138 0.01564574
v -0.03135227 -0.03761540 0.01687378
v 0.01207481 -0.04910869 -0.01162762
v -0.01905811 -0.05106966 0.00053582
v -0.02491856 -0.05060951 -0.01292074
v -0.03085072 -0.04990183 -0.00131079
v -0.02243651 -0.04148924 -0.01707734
v -0.03141589 -0.03544447 -0.01565700
v -0.03152673 -0.03251359 -0.01183905
v -0.03165944 -0.03477010 0.01499954
v 0.01212359 -0.03503454 0.01237966
v -0.03110157 -0.04606260 0.01593800
v -0.02775450 -0.04889421 0.01380311
v 0.01218230 -0.05011645 0.00495873
v -0.02634787 -0.05097617 -0.00806113
v -0.02634201 -0.05001993 -0.01341464
v 0.01210362 -0.04790427 -0.01372358
v 0.00640327 -0.04979497 -0.01085050
v -0.03078197 -0.04909763 -0.01262984
v 0.01218180 -0.03609643 0.01530584
v -0.03062769 -0.04985330 0.01136585
v -0.02982287 -0.04805049 0.01466167
v -0.01969600 -0.05104498 -0.00967745
v 0.00230299 -0.04997158 0.01143722
v -0.02431001 -0.05093670 -0.00369849
v 0.01206745 -0.04613364 -0.01558723
v -0.02964135 -0.04981084 -0.01168922
v -0.02962678 -0.04884327 -0.01354460
v -0.03088454 -0.04897440 0.01317428
v -0.02179771 -0.05098362 -0.01136491
v -0.01838197 -0.05001550 0.01213610
v -0.02977823 -0.04811429 -0.01426407
vn 0.64327979 0.19739515 0.73974743
vn 0.66078222 -0.66995307 0.33842242
vn 0.63086906 -0.04680470 -0.77447630
vn -0.60991611 0.22108397 -0.76100211
vn -0.61205603 -0.13660314 0.77892682
vn 0.63297314 0.70441962 -0.32115106
vn 0.00303299 -0.46409197 0.88578183
vn -0.18228609 -0.96462178 -0.19046417
vn 0.07121252 0.42151821 -0.90401946
vn -0.65040842 0.74838136 0.12997781
vn 0.71833677 0.69277510 0.06367852
vn -0.08161326 -0.93833507 0.33595621
vn 0.63203895 -0.14622169 0.76101642
vn 0.66566195 -0.74498533 -0.04348592
vn -0.67565267 -0.37250708 -0.63618547
vn -0.62558239 -0.08398232 -0.77562468
vn -0.64971746 0.59889636 -0.46817771
vn -0.58954387 0.41494228 0.69300860
vn 0.69214808 0.40082313 0.60022651
vn -0.02027841 -0.53717017 0.84323009
vn 0.51204670 -0.49465058 0.70223143
vn -0.62001720 0.15674280 0.76877198
vn 0.67683289 -0.69488009 -0.24297922
vn -0.00712105 -0.99921048 0.03908586
vn -0.04326719 -0.85649867 -0.51433256
vn -0.76519334 -0.64378832 -0.00396886
vn 0.03771285 0.08622547 -0.99556161
vn -0.66030038 0.42902443 -0.61639390
vn -0.65365591 0.73499445 -0.18032501
vn -0.66573438 0.60829680 0.43217211
vn 0.63621215 0.75009227 0.18054277
vn -0.68574858 -0.35646254 0.63457335
vn -0.02474598 -0.77808525 0.62767108
vn 0.67886579 -0.73389630 0.02318312
vn -0.14861957 -0.98871686 -0.01874017
vn -0.13315962 -0.73842437 -0.66105822
vn 0.68449097 -0.58722614 -0.43201571
vn 0.05765203 -0.96644540 -0.25031885
vn -0.74387450 -0.60456442 -0.28487294
vn 0.64783204 0.61471678 0.44992991
vn -0.59820224 -0.79086975 0.12914768
vn -0.16346348 -0.68849744 0.70657694
vn 0.02054416 -0.99892581 -0.04153517
vn 0.02143515 -0.98267361 0.18410083
vn -0.06004226 -0.99746376 0.03822260
vn 0.44960006 -0.59118236 -0.66959929
vn -0.35283066 -0.91805457 -0.18079362
vn -0.27905513 -0.73655976 -0.61612333
vn -0.71672114 -0.59490675 0.36386365
vn 0.01436589 -0.98537437 -0.16979684
vn 0.00145300 -0.95531698 0.29557969
vn -0.26613799 -0.67908670 -0.68411389
f 9//9 6//6 3//3
f 11//11 2//2 3//3
f 11//11 3//3 6//6
f 11//11 6//6 10//10
f 13//13 2//2 1//1
f 13//13 5//5 7//7
f 16//16 4//4 9//9
f 16//16 3//3 15//15
f 19//19 1//1 2//2
f 19//19 2//2 11//11
f 19//19 18//18 1//1
f 21//21 13//13 7//7
f 21//21 7//7 2//2
f 21//21 2//2 13//13
f 22//22 13//13 1//1
f 22//22 5//5 13//13
f 22//22 1//1 18//18
f 27//27 16//16 9//9
f 27//27 9//9 3//3
f 27//27 3//3 16//16
f 28//28 9//9 4//4
f 28//28 4//4 16//16
f 28//28 16//16 15//15
f 28//28 17//17 6//6
f 28//28 6//6 9//9
f 29//29 10//10 6//6
f 29//29 6//6 17//17
f 30//30 17//17 28//28
f 30//30 28//28 15//15
f 30//30 15//15 26//26
f 30//30 22//22 18//18
f 30//30 29//29 17//17
f 30//30 10//10 29//29
f 31//31 11//11 10//10
f 31//31 10//10 30//30
f 32//32 20//20 7//7
f 32//32 7//7 5//5
f 32//32 30//30 26//26
f 32//32 5//5 22//22
f 32//32 22//22 30//30
f 33//33 12//12 2//2
f 33//33 2//2 7//7
f 34//34 23//23 2//2
f 34//34 14//14 23//23
f 35//35 26//26 8//8
f 36//36 15//15 3//3
f 36//36 25//25 8//8
f 37//37 23//23 25//25
f 37//37 3//3 2//2
f 37//37 2//2 23//23
f 38//38 25//25 23//23
f 38//38 23//23 14//14
f 39//39 26//26 15//15
f 39//39 36//36 8//8
f 40//40 30//30 18//18
f 40//40 18//18 19//19
f 40//40 31//31 30//30
f 40//40 19//19 11//11
f 40//40 11//11 31//31
f 41//41 35//35 12//12
f 41//41 26//26 35//35
f 42//42 33//33 7//7
f 42//42 7//7 20//20
f 42//42 20//20 32//32
f 42//42 12//12 33//33
f 43//43 34//34 24//24
f 43//43 14//14 34//34
f 43//43 24//24 35//35
f 43//43 38//38 14//14
f 44//44 34//34 2//2
f 44//44 24//24 34//34
f 45//45 35//35 24//24
f 45//45 24//24 12//12
f 45//45 12//12 35//35
f 46//46 36//36 3//3
f 46//46 25//25 36//36
f 46//46 37//37 25//25
f 46//46 3//3 37//37
f 47//47 39//39 8//8
f 47//47 8//8 26//26
f 47//47 26//26 39//39
f 48//48 36//36 39//39
f 49//49 32//32 26//26
f 49//49 26//26 41//41
f 49//49 42//42 32//32
f 49//49 41//41 12//12
f 49//49 12//12 42//42
f 50//50 43//43 35//35
f 50//50 35//35 8//8
f 50//50 8//8 25//25
f 50//50 25//25 38//38
f 50//50 38//38 43//43
f 51//51 44//44 2//2
f 51//51 2//2 12//12
f 51//51 12//12 24//24
f 51//51 24//24 44//44
f 52//52 48//48 39//39
f 52//52 39//39 15//15
f 52//52 15//15 36//36
f 52//52 36//36 48//48

