# https://github.com/mikedh/trimesh
v -0.03360081 0.05123591 0.01707883
v -0.02786333 0.04654762 0.01138793
v -0.03083149 0.05689336 -0.01015558
v -0.04725237 0.04847020 -0.01519072
v -0.04723222 0.04315586 0.01792477
v -0.02900844 0.04775214 -0.01208273
v -0.04644149 0.05466242 0.01258775
v -0.02995145 0.05604725 0.01048952
v -0.03178549 0.04353014 0.01588212
v -0.02799045 0.05430372 -0.00535899
v -0.03259661 0.05404941 -0.01383672
v -0.04468653 0.03863207 -0.00764730
v -0.04683624 0.05473645 -0.01138880
v -0.04697348 0.04983331 0.01705492
v -0.02898291 0.05130160 0.01335227
v -0.03834169 0.05688377 0.01341998
v -0.03352862 0.04553214 0.01690165
v -0.03131792 0.04217750 0.01198943
v -0.02893312 0.05348810 -0.01128593
v -0.02779110 0.04751689 -0.00938877
v -0.03054292 0.05683994 0.00735016
v -0.03649068 0.04867965 -0.01518902
v -0.04729406 0.04210020 -0.01485467
v -0.04058685 0.05421319 -0.01389235
v -0.04730800 0.04628062 0.01828589
v -0.04673113 0.05378573 0.01428234
v -0.03090526 0.05507502 0.01383427
v -0.02791795 0.05244024 0.00939855
v -0.02894152 0.04739430 0.01415141
v -0.04046293 0.05222677 0.01692089
v -0.04254958 0.05687782 -0.00015025
v -0.02995802 0.04534662 0.01512525
v -0.03339543 0.04282826 0.01614602
v -0.02896934 0.05510290 -0.00936548
v -0.03051807 0.05429015 -0.01284616
v -0.02794925 0.05138557 -0.01024683
v -0.02771172 0.04573943 0.00747178
v -0.03650875 0.04252839 -0.00953348
v -0.02795147 0.05439616 -0.00126374
v -0.03340815 0.05692739 0.01237357
v -0.03086237 0.05043348 -0.01409280
v -0.04741125 0.04316509 -0.01514935
v -0.03150784 0.04771135 -0.01395398
v -0.04700801 0.05210064 -0.01427525
v -0.03746867 0.05052631 -0.01514030
v -0.03610864 0.05684283 -0.01266202
v -0.04683207 0.05176212 0.01600134
v -0.04340948 0.05565491 0.01356946
v -0.02892517 0.05438351 0.01127917
v -0.03177550 0.05226086 0.01599236
v -0.03341255 0.05412532 0.01585323
v -0.02785223 0.05042109 0.01139087
v -0.03430061 0.05231643 0.01697988
v -0.04620449 0.04732030 0.01815781
v -0.04566129 0.05573022 0.00523453
v -0.02891179 0.04564997 0.01338635
v -0.03155793 0.04227313 0.01436209
v -0.02999008 0.05590187 -0.01047503
v -0.02798310 0.05322477 -0.00848369
v -0.02787206 0.04866779 -0.01035363
v -0.02895484 0.05140673 -0.01204816
v -0.02888000 0.05500944 0.00948313
v -0.03125554 0.05687032 0.01032832
v -0.04140197 0.05688271 -0.00862251
vn 0.28538780 0.10578261 0.95255648
vn 0.94391941 -0.26133213 0.20179608
vn 0.38663210 0.88390325 -0.26311719
vn -0.68868667 0.10530590 -0.71737113
vn -0.56494853 -0.55122576 0.61398967
vn 0.68306010 -0.46400860 -0.56402564
vn -0.68698475 0.71230617 0.14377717
vn 0.63446844 0.73632606 0.23510365
vn 0.49529844 -0.40140064 0.77042650
vn 0.91274390 0.40741378 -0.03020903
vn 0.22076069 0.39988590 -0.88958191
vn -0.23655085 -0.95877601 -0.15745554
vn -0.71868438 0.63724712 -0.27822449
vn -0.68656587 0.34056622 0.64237213
vn 0.80713323 0.20908030 0.55210631
vn -0.07424194 0.89965636 0.43024014
vn 0.25619322 -0.11525987 0.95972923
vn 0.50351693 -0.86310847 0.03891623
vn 0.82424905 0.32525420 -0.46349025
vn 0.85962494 -0.47811602 -0.18013893
vn 0.41978884 0.90736084 0.02176299
vn 0.12931298 -0.10125857 -0.98642022
vn -0.51490678 -0.60460893 -0.60771626
vn -0.08476266 0.47243129 -0.87728215
vn -0.66265680 0.04067429 0.74781787
vn -0.73886310 0.53349201 0.41166442
vn 0.54170008 0.60300182 0.58561918
vn 0.97513158 0.20160628 0.09205062
vn 0.81134719 -0.00620370 0.58453165
vn -0.07306439 0.46286227 0.88341390
vn -0.20171269 0.97943680 -0.00394221
vn 0.69504783 -0.23548915 0.67930359
vn 0.16437819 -0.67237441 0.72172880
vn 0.81397951 0.54848485 -0.19131578
vn 0.53218191 0.45444553 -0.71432602
vn 0.95585885 0.11247798 -0.27144532
vn 0.91129423 -0.41171517 -0.00578323
vn 0.39093153 -0.85636698 -0.33735462
vn 0.90863575 0.41757934 -0.00292733
vn 0.15036935 0.93268258 0.32786014
vn 0.46620683 0.03877398 -0.88382564
vn -0.66436986 -0.14867395 -0.73246757
vn 0.38975912 -0.45666757 -0.79971404
vn -0.67690741 0.37036505 -0.63610227
vn 0.03948173 0.17558699 -0.98367190
vn 0.01524704 0.83251194 -0.55379725
vn -0.69526074 0.43031421 0.57571016
vn -0.24465881 0.85838509 0.45090698
vn 0.84018332 0.42880160 0.33199575
vn 0.54154692 0.24670320 0.80365693
vn 0.21030003 0.58453316 0.78364206
vn 0.96382402 0.10730410 0.24398585
vn 0.12828751 0.34440540 0.93001464
vn -0.06050330 0.21578019 0.97456568
vn -0.51923152 0.85375788 0.03867960
vn 0.85879308 -0.39011682 0.33208933
vn 0.45467727 -0.83141677 0.31939746
vn 0.68771389 0.61086909 -0.39228632
vn 0.96548232 0.22575751 -0.12991322
vn 0.94476338 -0.07029453 -0.32012629
vn 0.78864974 0.10602460 -0.60563221
vn 0.84205550 0.52967695 0.10190612
vn 0.29807148 0.93994681 0.16629308
vn -0.17870569 0.97754793 -0.11164373
f 23//23 12//12 5//5
f 25//25 17//17 1//1
f 25//25 5//5 17//17
f 25//25 13//13 4//4
f 26//26 7//7 13//13
f 26//26 13//13 25//25
f 32//32 17//17 9//9
f 32//32 1//1 17//17
f 33//33 17//17 5//5
f 33//33 9//9 17//17
f 34//34 3//3 10//10
f 37//37 18//18 20//20
f 38//38 20//20 18//18
f 38//38 18//18 12//12
f 38//38 6//6 20//20
f 38//38 12//12 23//23
f 39//39 10//10 3//3
f 39//39 3//3 21//21
f 39//39 37//37 20//20
f 40//40 31//31 16//16
f 41//41 11//11 35//35
f 42//42 4//4 22//22
f 42//42 22//22 23//23
f 42//42 25//25 4//4
f 42//42 23//23 5//5
f 42//42 5//5 25//25
f 43//43 23//23 22//22
f 43//43 38//38 23//23
f 43//43 6//6 38//38
f 43//43 41//41 6//6
f 43//43 22//22 41//41
f 44//44 4//4 13//13
f 45//45 22//22 4//4
f 45//45 44//44 24//24
f 45//45 4//4 44//44
f 45//45 24//24 11//11
f 45//45 41//41 22//22
f 45//45 11//11 41//41
f 46//46 11//11 24//24
f 46//46 35//35 11//11
f 46//46 3//3 35//35
f 46//46 44//44 13//13
f 46//46 24//24 44//44
f 47//47 26//26 25//25
f 47//47 25//25 14//14
f 47//47 14//14 30//30
f 48//48 7//7 26//26
f 48//48 16//16 31//31
f 48//48 26//26 47//47
f 48//48 47//47 30//30
f 48//48 30//30 16//16
f 49//49 27//27 15//15
f 49//49 8//8 27//27
f 50//50 15//15 27//27
f 50//50 29//29 15//15
f 50//50 32//32 29//29
f 50//50 1//1 32//32
f 51//51 50//50 27//27
f 51//51 16//16 30//30
f 51//51 40//40 16//16
f 51//51 27//27 40//40
f 52//52 2//2 37//37
f 52//52 39//39 28//28
f 52//52 37//37 39//39
f 52//52 29//29 2//2
f 52//52 15//15 29//29
f 52//52 49//49 15//15
f 52//52 28//28 49//49
f 53//53 51//51 30//30
f 53//53 1//1 50//50
f 53//53 50//50 51//51
f 54//54 30//30 14//14
f 54//54 14//14 25//25
f 54//54 53//53 30//30
f 54//54 25//25 1//1
f 54//54 1//1 53//53
f 55//55 31//31 13//13
f 55//55 13//13 7//7
f 55//55 48//48 31//31
f 55//55 7//7 48//48
f 56//56 2//2 29//29
f 56//56 29//29 32//32
f 57//57 9//9 33//33
f 57//57 18//18 37//37
f 57//57 37//37 2//2
f 57//57 2//2 56//56
f 57//57 56//56 32//32
f 57//57 32//32 9//9
f 57//57 12//12 18//18
f 57//57 33//33 5//5
f 57//57 5//5 12//12
f 58//58 34//34 19//19
f 58//58 19//19 35//35
f 58//58 35//35 3//3
f 58//58 3//3 34//34
f 59//59 20//20 36//36
f 59//59 39//39 20//20
f 59//59 10//10 39//39
f 59//59 34//34 10//10
f 59//59 36//36 19//19
f 59//59 19//19 34//34
f 60//60 36//36 20//20
f 60//60 20//20 6//6
f 61//61 19//19 36//36
f 61//61 6//6 41//41
f 61//61 41//41 35//35
f 61//61 35//35 19//19
f 61//61 60//60 6//6
f 61//61 36//36 60//60
f 62//62 39//39 21//21
f 62//62 21//21 8//8
f 62//62 8//8 49//49
f 62//62 49//49 28//28
f 62//62 28//28 39//39
f 63//63 8//8 21//21
f 63//63 21//21 3//3
f 63//63 3//3 40//40
f 63//63 40//40 27//27
f 63//63 27//27 8//8
f 64//64 40//40 3//3
f 64//64 31//31 40//40
f 64//64 3//3 46//46
f 64//64 46//46 13//13
f 64//64 13//13 31//31

