# https://github.com/mikedh/trimesh
v -0.05440646 0.03853982 0.01784868
v -0.05883074 -0.00025963 0.01006118
v -0.05484052 0.03400816 -0.01532765
v -0.06405441 0.03099337 -0.01626306
v -0.07383035 0.01713644 0.01293826
v -0.06397422 0.00021744 -0.01807376
v -0.05427306 0.04659521 -0.01104431
v -0.05780068 -0.00024743 0.00170148
v -0.06255969 -0.00018548 0.01646978
v -0.05467322 0.04091992 -0.01536996
v -0.07535725 0.00915166 -0.01116550
v -0.05414495 0.04582193 -0.01279134
v -0.06421523 0.03886988 0.01252405
v -0.05873680 -0.00030893 -0.01083655
v -0.06017597 -0.00005612 0.01424435
v -0.06727970 0.01611181 0.01784615
v -0.06231177 0.03126442 -0.01654924
v -0.06878702 0.00538822 -0.01756749
v -0.07289613 0.00007256 0.01291313
v -0.05415578 0.04670037 0.00918109
v -0.05447054 0.04368402 -0.01456661
v -0.06340457 0.03989626 -0.01337829
v -0.06097125 -0.00020389 -0.01491101
v -0.05780531 -0.00027532 0.00069778
v -0.05488724 0.03511302 0.01783449
v -0.06654512 0.03284361 0.01586033
v -0.05978355 0.03867921 -0.01531685
v -0.07078994 0.02442721 -0.01459322
v -0.07409549 0.00014865 -0.01068488
v -0.06739337 0.00946857 -0.01752999
v -0.07500140 0.00878352 0.00596403
v -0.07008331 0.01213644 0.01667483
v -0.05419365 0.04536911 0.01399098
v -0.05907736 0.04424616 -0.01174139
v -0.06169600 -0.00001690 0.01594269
v -0.06665036 0.01414542 0.01787494
v -0.07057867 0.03086039 0.00818869
v -0.06386365 0.03006155 0.01796441
v -0.05663737 0.04074748 -0.01525111
v -0.05625067 0.04360355 -0.01430212
v -0.06386549 0.03845396 -0.01407535
v -0.07387850 0.01669890 -0.01301099
v -0.06815831 0.02352249 -0.01628596
v -0.06898042 0.00017366 -0.01749196
v -0.07381924 0.00892992 0.01302985
v -0.07498186 0.01703673 0.00483891
v -0.07391382 0.00016341 0.00918072
v -0.07084640 0.02137544 0.01574446
v -0.07218204 0.00009797 0.01387064
v -0.05829109 0.04405150 0.01212980
v -0.05957611 0.03925153 0.01658837
v -0.05726048 0.04531004 -0.01154511
v -0.06328528 0.04105260 0.00381130
v -0.06850114 0.00868777 0.01686535
v -0.06729724 0.01420571 0.01781442
v -0.06936346 0.03174927 0.01208055
v -0.06954130 0.03277377 -0.00879252
v -0.05734402 0.04411476 -0.01336722
v -0.06366633 0.03521496 -0.01520208
v -0.06276737 0.03908619 -0.01423514
v -0.07203762 0.01821173 -0.01443796
v -0.06799325 0.02877234 -0.01523312
v -0.06786754 0.00862353 -0.01751646
v -0.07529497 0.00630079 -0.01135637
vn 0.61989179 0.18807128 0.76181583
vn 0.65173903 -0.74476354 0.14339981
vn 0.81670580 -0.05912619 -0.57401718
vn -0.26957376 0.19241910 -0.94355969
vn -0.89899512 0.11359574 0.42297019
vn 0.22495542 -0.58937632 -0.77590631
vn 0.43746992 0.88592896 -0.15411017
vn 0.75965781 -0.64886680 0.04349589
vn 0.12706651 -0.69076576 0.71182636
vn 0.60333136 0.12823314 -0.78711342
vn -0.96037419 0.04400148 -0.27521863
vn 0.57750093 0.65708597 -0.48449015
vn -0.68989720 0.64170163 0.33505354
vn 0.66007416 -0.72511050 -0.19625715
vn 0.64202703 -0.66709048 0.37787774
vn -0.25206171 0.02741087 0.96732287
vn -0.06068209 0.12088807 -0.99080965
vn -0.37823219 0.02457221 -0.92538458
vn -0.64544916 -0.69580294 0.31504548
vn 0.48784530 0.86812466 0.09146878
vn 0.55985140 0.35591158 -0.74826022
vn -0.64384403 0.62584698 -0.44020499
vn 0.52224987 -0.73893248 -0.42571570
vn 0.68183083 -0.73127645 -0.01847894
vn 0.65835937 -0.10079246 0.74592480
vn -0.62389737 0.37898512 0.68346349
vn -0.20410968 0.28286911 -0.93718958
vn -0.75150725 0.25271595 -0.60940258
vn -0.67060515 -0.71044029 -0.21345568
vn -0.09546942 0.06106860 -0.99355735
vn -0.99524820 -0.04095293 0.08833962
vn -0.52143279 -0.03916013 0.85239330
vn 0.48548953 0.71351098 0.50517522
vn -0.55367910 0.78968115 -0.26427853
vn 0.56937619 -0.51889093 0.63762290
vn -0.00797439 -0.06651535 0.99775354
vn -0.89895419 0.42889166 0.08906914
vn -0.24116852 0.12659317 0.96219120
vn -0.13035954 0.26384813 -0.95571468
vn -0.23300326 0.52272991 -0.82003837
vn -0.58845981 0.41254204 -0.69535898
vn -0.87984667 0.15040512 -0.45083049
vn -0.34760520 0.11240973 -0.93087845
vn -0.35954384 -0.62831782 -0.68988763
vn -0.88066224 -0.03775091 0.47223818
vn -0.98575738 0.16127816 0.04766275
vn -0.72322804 -0.68309171 0.10162147
vn -0.66536995 0.17102217 0.72665965
vn -0.44598132 -0.66297806 0.60129922
vn -0.53351129 0.78765730 0.30815852
vn -0.36841517 0.48285927 0.79442884
vn -0.42131534 0.87275779 -0.24655066
vn -0.69124463 0.72190665 0.03211927
vn -0.27786581 -0.14711709 0.94928771
vn -0.22438964 -0.05495041 0.97294899
vn -0.84610042 0.43010963 0.31483295
vn -0.87147382 0.45937898 -0.17176827
vn -0.36911680 0.68570281 -0.62734715
vn -0.33222382 0.27192803 -0.90315142
vn -0.33684145 0.41283475 -0.84623006
vn -0.59714770 0.08249466 -0.79787797
vn -0.55321000 0.29411090 -0.77939559
vn -0.16400176 0.06342510 -0.98441896
vn -0.92845624 -0.09314208 -0.35957414
f 8//8 1//1 2//2
f 8//8 3//3 1//1
f 10//10 3//3 6//6
f 12//12 1//1 3//3
f 14//14 2//2 9//9
f 15//15 9//9 2//2
f 17//17 10//10 6//6
f 19//19 14//14 9//9
f 20//20 12//12 7//7
f 21//21 12//12 3//3
f 21//21 3//3 10//10
f 23//23 6//6 3//3
f 23//23 3//3 14//14
f 24//24 14//14 3//3
f 24//24 3//3 8//8
f 24//24 8//8 2//2
f 24//24 2//2 14//14
f 25//25 15//15 2//2
f 25//25 2//2 1//1
f 27//27 17//17 4//4
f 29//29 23//23 14//14
f 29//29 14//14 19//19
f 30//30 17//17 6//6
f 30//30 6//6 18//18
f 33//33 1//1 12//12
f 33//33 12//12 20//20
f 35//35 25//25 9//9
f 35//35 9//9 15//15
f 35//35 15//15 25//25
f 36//36 9//9 25//25
f 38//38 16//16 36//36
f 38//38 36//36 25//25
f 38//38 25//25 1//1
f 39//39 10//10 17//17
f 39//39 17//17 27//27
f 39//39 21//21 10//10
f 40//40 39//39 27//27
f 40//40 21//21 39//39
f 40//40 12//12 21//21
f 43//43 4//4 17//17
f 43//43 17//17 30//30
f 44//44 18//18 6//6
f 44//44 6//6 23//23
f 44//44 23//23 29//29
f 44//44 42//42 18//18
f 45//45 5//5 31//31
f 45//45 32//32 5//5
f 46//46 31//31 5//5
f 46//46 11//11 31//31
f 46//46 42//42 11//11
f 46//46 5//5 37//37
f 47//47 29//29 19//19
f 47//47 45//45 31//31
f 47//47 19//19 45//45
f 48//48 5//5 32//32
f 48//48 38//38 26//26
f 48//48 32//32 16//16
f 48//48 16//16 38//38
f 49//49 19//19 9//9
f 49//49 45//45 19//19
f 49//49 32//32 45//45
f 50//50 33//33 20//20
f 50//50 20//20 34//34
f 51//51 1//1 33//33
f 51//51 38//38 1//1
f 51//51 26//26 38//38
f 51//51 13//13 26//26
f 51//51 50//50 13//13
f 51//51 33//33 50//50
f 52//52 7//7 12//12
f 52//52 34//34 20//20
f 52//52 20//20 7//7
f 53//53 34//34 22//22
f 53//53 50//50 34//34
f 53//53 13//13 50//50
f 53//53 37//37 13//13
f 54//54 49//49 9//9
f 54//54 32//32 49//49
f 55//55 36//36 16//16
f 55//55 16//16 32//32
f 55//55 32//32 54//54
f 55//55 54//54 9//9
f 55//55 9//9 36//36
f 56//56 26//26 13//13
f 56//56 13//13 37//37
f 56//56 37//37 5//5
f 56//56 48//48 26//26
f 56//56 5//5 48//48
f 57//57 28//28 42//42
f 57//57 46//46 37//37
f 57//57 42//42 46//46
f 57//57 41//41 28//28
f 57//57 22//22 41//41
f 57//57 53//53 22//22
f 57//57 37//37 53//53
f 58//58 40//40 22//22
f 58//58 22//22 34//34
f 58//58 34//34 52//52
f 58//58 52//52 12//12
f 58//58 12//12 40//40
f 59//59 27//27 4//4
f 60//60 40//40 27//27
f 60//60 59//59 41//41
f 60//60 27//27 59//59
f 60//60 41//41 22//22
f 60//60 22//22 40//40
f 61//61 42//42 28//28
f 61//61 18//18 42//42
f 61//61 43//43 18//18
f 61//61 28//28 43//43
f 62//62 43//43 28//28
f 62//62 4//4 43//43
f 62//62 59//59 4//4
f 62//62 28//28 41//41
f 62//62 41//41 59//59
f 63//63 43//43 30//30
f 63//63 30//30 18//18
f 63//63 18//18 43//43
f 64//64 44//44 29//29
f 64//64 11//11 42//42
f 64//64 42//42 44//44
f 64//64 29//29 47//47
f 64//64 47//47 31//31
f 64//64 31//31 11//11

