# https://github.com/mikedh/trimesh
v -0.06223584 -0.00518866 0.01688859
v -0.04524571 -0.04414221 0.01323585
v -0.04586330 -0.02919056 -0.01431901
v -0.06656995 -0.01383847 -0.01783665
v -0.06898241 -0.02637170 0.01221812
v -0.05848450 -0.03693617 -0.01576440
v -0.05743432 -0.01445470 -0.01160305
v -0.04602061 -0.02993791 0.01506111
v -0.06253274 -0.02776491 0.01685760
v -0.07103766 -0.00525830 0.01460202
v -0.04514314 -0.04426544 -0.01256827
v -0.04662994 -0.03774350 -0.01747768
v -0.07011103 -0.02529761 -0.01027335
v -0.05865131 -0.03973531 0.01038254
v -0.06002438 -0.00534417 0.01554510
v -0.06235500 -0.01375563 -0.01794436
v -0.04571344 -0.03278321 0.01693535
v -0.06688191 -0.00528530 0.01699475
v -0.06841735 -0.02321288 0.01471237
v -0.05684921 -0.03287017 -0.01854972
v -0.05055445 -0.03973900 -0.01659445
v -0.04548967 -0.04026160 -0.01636931
v -0.06467357 -0.02325749 -0.01787407
v -0.07247627 -0.01382442 -0.01055548
v -0.06274689 -0.03665784 -0.00983450
v -0.06298534 -0.03263052 0.01453899
v -0.05251749 -0.04319193 -0.01050397
v -0.04611280 -0.02710234 -0.01059193
v -0.06093928 -0.00523050 0.01625143
v -0.05850426 -0.01432956 -0.01360488
v -0.04591284 -0.03187930 -0.01632672
v -0.04543997 -0.03853939 0.01691796
v -0.04584578 -0.03102714 0.01602051
v -0.07072812 -0.00525834 0.01494967
v -0.07118347 -0.01995617 0.01231181
v -0.06669434 -0.01500905 0.01685408
v -0.05803519 -0.02265379 -0.01841883
v -0.05258120 -0.03783199 -0.01750342
v -0.06187226 -0.03135403 -0.01645824
v -0.06352783 -0.02043552 -0.01844034
v -0.07028247 -0.01379996 -0.01328707
v -0.07141631 -0.01775967 -0.01123811
v -0.06572639 -0.03254665 0.01021306
v -0.06834244 -0.02614932 0.01363818
v -0.05431224 -0.03979274 0.01483103
v -0.04843589 -0.04421123 -0.01054147
v -0.04925327 -0.04395445 0.00830191
v -0.06065618 -0.03871761 -0.00919319
v -0.04608803 -0.04401528 -0.01250742
v -0.05243950 -0.03989420 -0.01544414
v -0.05647435 -0.01436945 -0.00874433
v -0.04615385 -0.02724906 0.00597677
v -0.06069828 -0.01437566 -0.01654442
v -0.04587428 -0.03013938 -0.01538004
v -0.04594825 -0.02839983 0.01126948
v -0.07242716 -0.01382299 0.00717714
v -0.07228582 -0.01811407 -0.00443558
v -0.07103809 -0.02203721 0.00616232
v -0.07113007 -0.01604062 0.01326333
v -0.06819006 -0.01611869 0.01581058
v -0.05514204 -0.03309911 -0.01853450
v -0.04671185 -0.03671099 -0.01742044
v -0.06102265 -0.01763937 -0.01843437
v -0.05563427 -0.03706898 -0.01717730
vn 0.12287136 0.71610652 0.68709102
vn 0.53856203 -0.73626300 0.40971666
vn 0.89466712 0.36401722 -0.25896372
vn -0.41038265 0.50506536 -0.75927272
vn -0.86886334 -0.42540343 0.25319642
vn -0.51764806 -0.60119847 -0.60876997
vn 0.63479981 0.72364674 -0.27085899
vn 0.89258624 0.38387021 0.23650260
vn -0.27802171 -0.19018262 0.94155961
vn -0.69353419 0.68311161 0.22884242
vn 0.59577057 -0.72816049 -0.33888010
vn 0.37527401 -0.12837550 -0.91798102
vn -0.87668530 -0.37370751 -0.30292835
vn -0.55553932 -0.79315077 0.24957548
vn 0.52969300 0.82031641 0.21565325
vn 0.21320246 0.65836314 -0.72187443
vn 0.70313581 0.08839102 0.70554026
vn -0.19085111 0.63013087 0.75266921
vn -0.62071921 -0.20000124 0.75809443
vn -0.21490078 -0.21231788 -0.95327791
vn -0.14526923 -0.64324635 -0.75175194
vn 0.65787207 -0.36709859 -0.65760396
vn -0.53000129 -0.20136729 -0.82374138
vn -0.85172277 0.38427763 -0.35622890
vn -0.74158319 -0.62847202 -0.23468551
vn -0.55386289 -0.50457897 0.66229598
vn -0.36128096 -0.89825620 -0.25022364
vn 0.89915589 0.42088364 -0.11989848
vn 0.33837038 0.81538202 0.46974211
vn 0.57428289 0.73806284 -0.35420672
vn 0.75304295 0.16954368 -0.63575251
vn 0.61461537 -0.23003491 0.75454085
vn 0.89533056 0.28162711 0.34506428
vn -0.48364110 0.64254767 0.59432632
vn -0.91576375 -0.19147311 0.35314982
vn -0.30760814 -0.05257462 0.95005955
vn 0.17154257 0.09675936 -0.98041357
vn -0.11421609 -0.42371161 -0.89856728
vn -0.60593150 -0.40216312 -0.68637588
vn -0.16254170 -0.02438649 -0.98640027
vn -0.67848305 0.48322681 -0.55331059
vn -0.85694407 -0.17456165 -0.48494855
vn -0.77917470 -0.59169393 0.20684554
vn -0.70649444 -0.37451450 0.60050354
vn -0.32868761 -0.62938668 0.70415685
vn -0.16269283 -0.97613695 -0.14383216
vn -0.25235943 -0.96296991 0.09488771
vn -0.59223074 -0.78991256 -0.15906257
vn -0.25382011 -0.81879895 -0.51492099
vn -0.31089417 -0.76683611 -0.56152221
vn 0.67773647 0.70765622 -0.19973973
vn 0.92668335 0.37520462 0.02189675
vn 0.64101510 0.58588968 -0.49581542
vn 0.84749842 0.30071560 -0.43739749
vn 0.94932187 0.30286865 0.08401524
vn -0.99745537 0.00028562 0.07129310
vn -0.98507802 -0.17097670 -0.01970451
vn -0.95340861 -0.29890788 0.04081797
vn -0.86345081 -0.06968993 0.49959584
vn -0.58176121 -0.09534796 0.80775161
vn 0.05264666 -0.07644999 -0.99568254
vn 0.37741355 0.09401149 -0.92126047
vn 0.14470527 0.13645243 -0.98002098
vn -0.30715310 -0.54029287 -0.78341598
f 16//16 4//4 10//10
f 16//16 10//10 15//15
f 17//17 11//11 3//3
f 18//18 17//17 1//1
f 22//22 3//3 11//11
f 22//22 11//11 21//21
f 28//28 3//3 7//7
f 29//29 15//15 10//10
f 29//29 10//10 1//1
f 29//29 17//17 15//15
f 29//29 1//1 17//17
f 30//30 7//7 3//3
f 30//30 16//16 15//15
f 30//30 15//15 7//7
f 31//31 22//22 12//12
f 32//32 2//2 11//11
f 32//32 11//11 17//17
f 32//32 18//18 9//9
f 32//32 17//17 18//18
f 33//33 8//8 15//15
f 33//33 15//15 17//17
f 34//34 18//18 1//1
f 34//34 1//1 10//10
f 36//36 19//19 9//9
f 36//36 9//9 18//18
f 36//36 18//18 34//34
f 38//38 22//22 21//21
f 38//38 12//12 22//22
f 39//39 13//13 23//23
f 39//39 25//25 13//13
f 39//39 6//6 25//25
f 39//39 23//23 20//20
f 39//39 20//20 6//6
f 40//40 23//23 4//4
f 40//40 20//20 23//23
f 41//41 24//24 10//10
f 41//41 10//10 4//4
f 42//42 23//23 13//13
f 42//42 13//13 24//24
f 42//42 24//24 41//41
f 42//42 41//41 4//4
f 42//42 4//4 23//23
f 43//43 25//25 14//14
f 43//43 5//5 13//13
f 43//43 13//13 25//25
f 43//43 14//14 26//26
f 44//44 43//43 26//26
f 44//44 5//5 43//43
f 44//44 35//35 5//5
f 44//44 19//19 35//35
f 44//44 26//26 9//9
f 44//44 9//9 19//19
f 45//45 26//26 14//14
f 45//45 14//14 2//2
f 45//45 2//2 32//32
f 45//45 32//32 9//9
f 45//45 9//9 26//26
f 46//46 27//27 11//11
f 46//46 11//11 2//2
f 47//47 2//2 14//14
f 47//47 14//14 27//27
f 47//47 46//46 2//2
f 47//47 27//27 46//46
f 48//48 27//27 14//14
f 48//48 14//14 25//25
f 48//48 25//25 6//6
f 48//48 6//6 27//27
f 49//49 21//21 11//11
f 49//49 11//11 27//27
f 50//50 27//27 6//6
f 50//50 49//49 27//27
f 50//50 21//21 49//49
f 51//51 28//28 7//7
f 51//51 7//7 15//15
f 51//51 15//15 28//28
f 52//52 28//28 15//15
f 53//53 30//30 3//3
f 53//53 3//3 16//16
f 53//53 16//16 30//30
f 54//54 31//31 16//16
f 54//54 16//16 3//3
f 54//54 3//3 22//22
f 54//54 22//22 31//31
f 55//55 33//33 17//17
f 55//55 17//17 3//3
f 55//55 3//3 28//28
f 55//55 28//28 52//52
f 55//55 8//8 33//33
f 55//55 52//52 15//15
f 55//55 15//15 8//8
f 56//56 10//10 24//24
f 57//57 24//24 13//13
f 57//57 56//56 24//24
f 57//57 35//35 56//56
f 58//58 13//13 5//5
f 58//58 5//5 35//35
f 58//58 57//57 13//13
f 58//58 35//35 57//57
f 59//59 34//34 10//10
f 59//59 56//56 35//35
f 59//59 10//10 56//56
f 59//59 35//35 19//19
f 60//60 36//36 34//34
f 60//60 19//19 36//36
f 60//60 59//59 19//19
f 60//60 34//34 59//59
f 61//61 37//37 12//12
f 61//61 38//38 20//20
f 61//61 12//12 38//38
f 62//62 37//37 31//31
f 62//62 31//31 12//12
f 62//62 12//12 37//37
f 63//63 16//16 31//31
f 63//63 31//31 37//37
f 63//63 20//20 40//40
f 63//63 61//61 20//20
f 63//63 37//37 61//61
f 63//63 40//40 4//4
f 63//63 4//4 16//16
f 64//64 38//38 21//21
f 64//64 6//6 20//20
f 64//64 20//20 38//38
f 64//64 50//50 6//6
f 64//64 21//21 50//50

