# https://github.com/mikedh/trimesh
v 0.05577873 0.04321129 0.01674331
v 0.06702982 0.03356062 0.00919449
v 0.05317090 0.05298959 -0.01067337
v 0.03483315 0.05094437 -0.01626567
v 0.03208956 0.04277701 0.01307244
v 0.06584703 0.03344820 -0.01178080
v 0.05822982 0.04789770 0.01280614
v 0.05517560 0.03379563 0.01682429
v 0.05379506 0.04751826 -0.01553044
v 0.03042863 0.04011122 -0.01175111
v 0.06376102 0.03653620 0.01491892
v 0.03295455 0.05565357 0.01487909
v 0.06240685 0.04390659 -0.00881549
v 0.06047398 0.02844028 0.01047363
v 0.04901528 0.03843915 -0.01561152
v 0.04507021 0.05450395 -0.01423759
v 0.05721515 0.04702909 0.01484363
v 0.06238159 0.04284551 0.01123173
v 0.06023378 0.03375609 0.01684215
v 0.03323345 0.04548272 0.01700452
v 0.02823787 0.05273056 0.01239012
v 0.04699286 0.05622379 0.01129298
v 0.05627561 0.05098850 0.00390066
v 0.05719104 0.04788653 -0.01350053
v 0.06562786 0.03765762 -0.00450196
v 0.06047398 0.02844028 -0.00788969
v 0.05207627 0.02887195 0.01015352
v 0.05977873 0.04313529 -0.01441754
v 0.04646232 0.04478698 -0.01647284
v 0.02792855 0.04280377 -0.01439158
v 0.04529084 0.04983071 -0.01647479
v 0.03238387 0.05747665 -0.01091086
v 0.06230444 0.04080870 0.01395568
v 0.06181853 0.03862830 0.01554396
v 0.04398743 0.05155298 0.01668104
v 0.06595984 0.03350163 0.01322510
v 0.05916924 0.03795560 0.01680179
v 0.03195881 0.04989478 0.01668878
v 0.02934443 0.04713479 0.01387992
v 0.04175374 0.05741262 -0.00979337
v 0.05219148 0.05303469 0.01319421
v 0.05721869 0.05009026 -0.00975832
v 0.06141920 0.04593735 0.00065828
v 0.05210369 0.05416954 0.00068276
v 0.05408253 0.05100629 -0.01338146
v 0.06702357 0.03350765 -0.00458976
v 0.06554440 0.03665504 -0.00888765
v 0.04904210 0.03650338 -0.01462858
v 0.04992976 0.02897329 -0.00749746
v 0.03320662 0.04259718 0.01404084
v 0.05158543 0.03435655 0.01556379
v 0.05364169 0.04845324 -0.01526026
v 0.06034375 0.04579626 -0.01153733
v 0.03690182 0.04547899 -0.01636256
v 0.02935684 0.04444637 0.00712772
v 0.04204205 0.05371774 -0.01523470
v 0.04639481 0.04680764 -0.01647331
v 0.03776273 0.05752079 0.01145571
v 0.03090478 0.05631152 0.01036685
v 0.02704335 0.05445924 -0.01022740
v 0.06041816 0.04495173 0.01296166
v 0.05754572 0.04518187 0.01555509
v 0.06044323 0.04290708 0.01465324
v 0.06312517 0.03357594 0.01608853
vn 0.17392212 0.17207084 0.96960957
vn 0.96799286 -0.22073682 0.11943654
vn 0.46836335 0.85014773 -0.24059219
vn -0.22613381 0.28551413 -0.93131369
vn -0.65120399 -0.68017296 0.33659784
vn 0.71175079 -0.31990264 -0.62535839
vn 0.68914998 0.64613154 0.32800357
vn -0.10676116 -0.46472832 0.87899354
vn 0.24602703 0.16016660 -0.95593795
vn -0.57648065 -0.80148974 -0.15901024
vn 0.70551593 0.28596756 0.64843645
vn -0.27911877 0.68088216 0.67712052
vn 0.85132253 0.49340836 -0.17832033
vn 0.24945176 -0.92529212 0.28567169
vn 0.02029235 -0.28900526 -0.95711242
vn 0.21873746 0.72228588 -0.65609225
vn 0.47065142 0.49268638 0.73194765
vn 0.84869798 0.49134324 0.19568740
vn 0.11590110 -0.38348454 0.91624590
vn -0.37194922 -0.29733920 0.87934247
vn -0.88910785 0.27460175 0.36617088
vn 0.27231291 0.90032456 0.33950164
vn 0.65178235 0.75652883 0.05332826
vn 0.58304422 0.53926350 -0.60766299
vn 0.92300998 0.38331996 -0.03344222
vn 0.23443240 -0.90488843 -0.35527227
vn -0.27511948 -0.90315435 0.32957774
vn 0.51138036 0.17980206 -0.84033407
vn 0.05114861 -0.06302466 -0.99670041
vn -0.73580259 -0.35198926 -0.57853100
vn 0.09475131 0.21988083 -0.97091432
vn -0.26573014 0.87152459 -0.41210725
vn 0.77125043 0.40500714 0.49106210
vn 0.49132598 0.27668957 0.82585814
vn 0.10455196 0.39403420 0.91312975
vn 0.86053995 -0.25381864 0.44164137
vn 0.20361900 0.11914845 0.97177310
vn -0.40943549 0.12611325 0.90358067
vn -0.85573881 -0.27009819 0.44131401
vn 0.15789673 0.95983487 -0.23191730
vn 0.45061002 0.73823766 0.50195196
vn 0.67403134 0.71591180 -0.18207701
vn 0.81084224 0.58470451 0.02560287
vn 0.47614270 0.87935465 -0.00485101
vn 0.46496440 0.66081419 -0.58917970
vn 0.95767367 -0.28203884 -0.05757807
vn 0.91873058 0.33822320 -0.20381162
vn -0.08071542 -0.57296669 -0.81559438
vn -0.24801000 -0.91189966 -0.32700159
vn -0.47683859 -0.68636127 0.54912036
vn -0.34404902 -0.66398248 0.66389572
vn 0.31808976 0.40949339 -0.85506378
vn 0.76198642 0.52808675 -0.37483474
vn -0.09858596 -0.13466357 -0.98597491
vn -0.87158454 -0.47567704 0.11862434
vn 0.02810547 0.55851833 -0.82901590
vn 0.06869120 0.01377355 -0.99754289
vn 0.02004959 0.95630676 0.29167687
vn -0.50001235 0.84921041 0.16979200
vn -0.82497292 0.45693848 -0.33260624
vn 0.75053587 0.53712317 0.38496053
vn 0.39248314 0.34486739 0.85265672
vn 0.61650861 0.40320236 0.67627287
vn 0.46107188 -0.33885892 0.82011423
f 19//19 8//8 14//14
f 20//20 8//8 19//19
f 27//27 14//14 8//8
f 27//27 5//5 10//10
f 28//28 6//6 15//15
f 29//29 28//28 15//15
f 29//29 9//9 28//28
f 35//35 20//20 1//1
f 35//35 22//22 12//12
f 36//36 14//14 2//2
f 36//36 33//33 11//11
f 36//36 2//2 18//18
f 36//36 18//18 33//33
f 37//37 20//20 19//19
f 37//37 1//1 20//20
f 38//38 12//12 21//21
f 38//38 35//35 12//12
f 38//38 20//20 35//35
f 39//39 5//5 20//20
f 39//39 38//38 21//21
f 39//39 20//20 38//38
f 39//39 21//21 30//30
f 40//40 3//3 16//16
f 40//40 16//16 32//32
f 41//41 17//17 7//7
f 41//41 7//7 23//23
f 41//41 35//35 17//17
f 41//41 22//22 35//35
f 43//43 42//42 23//23
f 43//43 13//13 42//42
f 43//43 25//25 13//13
f 43//43 18//18 2//2
f 43//43 2//2 25//25
f 43//43 23//23 7//7
f 43//43 7//7 18//18
f 44//44 41//41 23//23
f 44//44 22//22 41//41
f 44//44 40//40 22//22
f 44//44 3//3 40//40
f 44//44 42//42 3//3
f 44//44 23//23 42//42
f 45//45 16//16 3//3
f 45//45 42//42 24//24
f 45//45 3//3 42//42
f 46//46 25//25 2//2
f 46//46 26//26 6//6
f 46//46 2//2 14//14
f 46//46 14//14 26//26
f 47//47 6//6 13//13
f 47//47 13//13 25//25
f 47//47 46//46 6//6
f 47//47 25//25 46//46
f 48//48 15//15 6//6
f 48//48 6//6 26//26
f 48//48 30//30 15//15
f 49//49 26//26 14//14
f 49//49 14//14 27//27
f 49//49 27//27 10//10
f 49//49 48//48 26//26
f 49//49 10//10 30//30
f 49//49 30//30 48//48
f 50//50 20//20 5//5
f 50//50 5//5 27//27
f 51//51 27//27 8//8
f 51//51 8//8 20//20
f 51//51 50//50 27//27
f 51//51 20//20 50//50
f 52//52 28//28 9//9
f 52//52 24//24 28//28
f 52//52 45//45 24//24
f 52//52 16//16 45//45
f 52//52 31//31 16//16
f 52//52 9//9 31//31
f 53//53 28//28 24//24
f 53//53 13//13 6//6
f 53//53 6//6 28//28
f 53//53 42//42 13//13
f 53//53 24//24 42//42
f 54//54 29//29 15//15
f 54//54 15//15 30//30
f 54//54 30//30 4//4
f 54//54 31//31 29//29
f 54//54 4//4 31//31
f 55//55 30//30 10//10
f 55//55 10//10 5//5
f 55//55 39//39 30//30
f 55//55 5//5 39//39
f 56//56 31//31 4//4
f 56//56 16//16 31//31
f 56//56 32//32 16//16
f 56//56 4//4 32//32
f 57//57 31//31 9//9
f 57//57 9//9 29//29
f 57//57 29//29 31//31
f 58//58 12//12 22//22
f 58//58 40//40 32//32
f 58//58 22//22 40//40
f 59//59 21//21 12//12
f 59//59 58//58 32//32
f 59//59 12//12 58//58
f 60//60 30//30 21//21
f 60//60 59//59 32//32
f 60//60 21//21 59//59
f 60//60 32//32 4//4
f 60//60 4//4 30//30
f 61//61 7//7 17//17
f 61//61 33//33 18//18
f 61//61 18//18 7//7
f 62//62 37//37 34//34
f 62//62 1//1 37//37
f 62//62 35//35 1//1
f 62//62 17//17 35//35
f 63//63 62//62 34//34
f 63//63 17//17 62//62
f 63//63 61//61 17//17
f 63//63 33//33 61//61
f 63//63 34//34 11//11
f 63//63 11//11 33//33
f 64//64 11//11 34//34
f 64//64 36//36 11//11
f 64//64 19//19 14//14
f 64//64 14//14 36//36
f 64//64 37//37 19//19
f 64//64 34//34 37//37

