# https://github.com/mikedh/trimesh
v -0.02717939 0.01589239 0.01974439
v -0.02163473 -0.00494010 0.01987307
v -0.02586584 0.01589239 -0.01822569
v -0.04231084 0.01589239 -0.01926775
v -0.04223445 -0.00438898 0.01933048
v -0.02163473 -0.00478366 -0.01982555
v -0.02595387 0.01589239 0.01846744
v -0.04223445 0.01589239 0.01933048
v -0.02163473 -0.00404114 0.01936704
v -0.02694578 0.01589239 -0.01961970
v -0.04231084 -0.00438898 -0.01926775
v -0.02163473 -0.00392022 -0.01926775
f 5 2 1
f 7 1 2
f 7 3 4
f 7 4 1
f 8 5 1
f 8 1 4
f 9 7 2
f 9 3 7
f 10 6 4
f 10 4 3
f 10 3 6
f 11 4 6
f 11 8 4
f 11 5 8
f 11 6 2
f 11 2 5
f 12 6 3
f 12 3 9
f 12 9 2
f 12 2 6

