# https://github.com/mikedh/trimesh
v -0.02717939 -0.02016337 0.01974439
v -0.02588243 -0.07975655 0.01827190
v -0.02586584 -0.02016337 -0.01822569
v -0.04231084 -0.02016337 -0.01926775
v -0.04253095 -0.07936852 0.01899966
v -0.02648984 -0.07914848 -0.01926775
v -0.02595275 -0.02016338 0.01846506
v -0.02648984 -0.07914848 0.01926782
v -0.04223445 -0.02016337 0.01933048
v -0.02582997 -0.07980871 -0.01808341
v -0.02694578 -0.02016337 -0.01961970
v -0.04262184 -0.07945939 -0.01888891
f 7 2 3
f 7 3 1
f 8 5 2
f 8 1 5
f 8 7 1
f 8 2 7
f 9 5 1
f 9 1 3
f 10 6 3
f 10 3 2
f 11 6 4
f 11 3 6
f 11 9 3
f 11 4 9
f 12 4 6
f 12 9 4
f 12 5 9
f 12 6 10
f 12 10 2
f 12 2 5

