# https://github.com/mikedh/trimesh
v -0.02163473 0.05441024 0.01926533
v -0.02595387 0.01589239 0.01846744
v -0.02163473 0.05497654 -0.01967773
v -0.04231084 0.05420163 -0.01926775
v -0.04223445 0.05420163 0.01933048
v -0.02694578 0.01589239 -0.01961970
v -0.02586584 0.01589239 -0.01822569
v -0.02717939 0.01589239 0.01974439
v -0.02614170 0.05521045 0.01980286
v -0.02163473 0.05387028 0.01845672
v -0.04223445 0.01589239 0.01933048
v -0.02163473 0.05433514 -0.01917348
v -0.04231084 0.01589239 -0.01926775
f 6 4 3
f 7 6 3
f 8 2 1
f 9 1 3
f 9 3 4
f 9 4 5
f 9 8 1
f 10 1 2
f 10 2 7
f 11 6 7
f 11 7 2
f 11 2 8
f 11 9 5
f 11 8 9
f 12 10 7
f 12 7 3
f 12 3 1
f 12 1 10
f 13 4 6
f 13 6 11
f 13 11 5
f 13 5 4

