# https://github.com/mikedh/trimesh
v 0.03629333 -0.00356207 0.01970865
v 0.03831963 -0.00327884 0.01867487
v -0.04223445 -0.00438898 0.01933048
v -0.04231084 -0.00438898 -0.01926775
v 0.02476927 -0.02071906 -0.01952615
v 0.02456467 -0.02084122 0.01967590
v 0.03839267 -0.00336984 -0.01845669
v -0.04223445 -0.02016337 0.01933048
v 0.03643961 -0.00374465 -0.01958345
v -0.04231084 -0.02016337 -0.01926775
f 1 2 3
f 3 2 4
f 6 2 1
f 6 1 3
f 7 4 2
f 7 6 5
f 7 2 6
f 8 6 3
f 8 3 4
f 9 7 5
f 9 4 7
f 10 8 4
f 10 5 6
f 10 6 8
f 10 9 5
f 10 4 9

