# https://github.com/mikedh/trimesh
v 0.05004301 -0.07141013 0.01611313
v 0.05742521 -0.07435191 0.00870122
v 0.05825235 -0.06510777 -0.00804666
v 0.04611269 -0.07439276 -0.01541849
v 0.04632928 -0.07771405 0.00992407
v 0.05560598 -0.07693513 -0.01149504
v 0.04086352 -0.06509843 0.00040833
v 0.05792250 -0.06507604 0.00047280
v 0.05101946 -0.07667085 0.01350279
v 0.05734767 -0.07413848 -0.01009671
v 0.05288943 -0.07435623 -0.01556127
v 0.04591545 -0.07880207 -0.00895447
v 0.04120563 -0.06504789 -0.00798494
v 0.04462052 -0.07140349 0.01359469
v 0.05743765 -0.07135555 0.00967828
v 0.05563045 -0.07570585 0.01213512
v 0.05740136 -0.07558459 0.00052326
v 0.05727387 -0.07233241 -0.01164501
v 0.04888352 -0.07751697 -0.01394959
v 0.04170490 -0.07614810 -0.00315570
v 0.05513277 -0.07868489 0.00111563
v 0.04640221 -0.07127715 0.01534594
v 0.05177088 -0.07554191 0.01434229
v 0.05485885 -0.07346616 0.01340603
v 0.05642169 -0.07568257 0.01143132
v 0.05650995 -0.07780649 -0.00125903
v 0.05641802 -0.07516261 -0.01176650
v 0.05741679 -0.07132312 -0.01165153
v 0.05337030 -0.07704330 -0.01430423
v 0.04644501 -0.07686549 -0.01421339
v 0.04318148 -0.07785839 -0.00797033
v 0.04189800 -0.07646622 -0.00762139
v 0.04185401 -0.07232647 0.00443527
v 0.05392676 -0.07776055 0.00959062
v 0.05021724 -0.07869271 0.00455832
v 0.04603565 -0.07425923 0.01437287
v 0.05388825 -0.07657887 0.01219401
v 0.05270350 -0.07428458 0.01444210
v 0.05726556 -0.07346662 0.00962309
v 0.05656203 -0.07352788 0.01168480
v 0.05623321 -0.07616564 -0.01092949
v 0.05492534 -0.07868133 -0.00036110
v 0.05654750 -0.07656638 0.00970403
v 0.05078294 -0.07883338 -0.00899689
v 0.04741952 -0.07637493 -0.01524262
v 0.04728398 -0.07757823 -0.01387299
v 0.04603772 -0.07870951 -0.00377871
v 0.04349212 -0.07761737 -0.00296537
v 0.04609851 -0.07538409 -0.01517703
v 0.04378702 -0.07132255 0.01178347
v 0.04175232 -0.07523261 0.00018128
v 0.04703206 -0.07765647 0.01091535
v 0.05294636 -0.07872828 0.00442169
v 0.04829709 -0.07496123 0.01517948
v 0.05256868 -0.07515800 0.01413377
v 0.05009136 -0.07500490 0.01517922
v 0.05637230 -0.07689614 -0.00688804
v 0.05626464 -0.07798665 0.00247618
v 0.05729586 -0.07541884 0.00450753
v 0.05217728 -0.07761628 -0.01285768
v 0.05394294 -0.07757271 -0.01213645
v 0.05201789 -0.07621027 -0.01520096
v 0.04633999 -0.07775435 -0.01273785
v 0.04697561 -0.07873329 -0.00998076
vn 0.14116569 0.41755696 0.89761820
vn 0.97651435 -0.17473931 0.12603923
vn 0.65967745 0.66317725 -0.35358393
vn -0.43701966 0.16450649 -0.88428018
vn -0.52847016 -0.81191431 0.24802104
vn 0.65628326 -0.68793202 -0.30990614
vn -0.70967507 0.68106578 0.18030722
vn 0.67019074 0.71884631 0.18467364
vn 0.08986002 -0.82828361 0.55305645
vn 0.95339347 -0.25812375 -0.15624667
vn 0.30655477 0.13892403 -0.94166039
vn -0.22271917 -0.96682841 -0.12505601
vn -0.64813131 0.65016732 -0.39649498
vn -0.80124762 0.19943027 0.56411861
vn 0.84404824 0.35048149 0.40588827
vn 0.53207104 -0.52518563 0.66413889
vn 0.96978622 -0.24384302 0.00743466
vn 0.86031493 -0.15538110 -0.48550483
vn 0.03255130 -0.87315382 -0.48635668
vn -0.89016130 -0.45239353 0.05434109
vn 0.29153806 -0.95627712 0.02322995
vn -0.39379382 0.41925062 0.81801916
vn 0.30831341 -0.53239907 0.78834895
vn 0.60699157 0.08941861 0.78966167
vn 0.74460870 -0.44866945 0.49422020
vn 0.74196638 -0.66769416 -0.06058381
vn 0.81222353 -0.31033623 -0.49394773
vn 0.81454988 0.12570538 -0.56630968
vn 0.40825066 -0.66396927 -0.62647922
vn -0.54410532 -0.62173850 -0.56337432
vn -0.58915889 -0.78738504 -0.18142931
vn -0.89821700 -0.37396868 -0.23098407
vn -0.95616700 -0.18640900 0.22582371
vn 0.22896970 -0.93754887 0.26186827
vn -0.05582049 -0.99487641 0.08429115
vn -0.64277363 -0.43445715 0.63094298
vn 0.32154191 -0.79057476 0.52115482
vn 0.42642988 -0.23849899 0.87251120
vn 0.95346390 -0.09733967 0.28536220
vn 0.81918144 0.05708883 0.57068610
vn 0.85578515 -0.47242926 -0.21081361
vn 0.26386869 -0.96306231 -0.05370563
vn 0.71641786 -0.65418617 0.24245803
vn 0.10512805 -0.98634590 -0.12676695
vn -0.15363507 -0.48199332 -0.86259997
vn -0.17199173 -0.85236863 -0.49384872
vn -0.20833383 -0.97701775 0.04509236
vn -0.51900029 -0.84976842 0.09237060
vn -0.59485974 -0.30851245 -0.74226812
vn -0.92829966 -0.03576653 0.37010878
vn -0.91556770 -0.37401195 0.14782031
vn -0.28478960 -0.87915595 0.38207291
vn 0.08869428 -0.99083255 0.10190277
vn -0.22423417 -0.52045514 0.82392080
vn 0.42727598 -0.40004502 0.81080159
vn 0.12079547 -0.46670248 0.87612628
vn 0.83864918 -0.53362720 -0.10913095
vn 0.69542904 -0.71344177 0.08590280
vn 0.94249201 -0.33170665 0.04098174
vn 0.09712624 -0.95457330 -0.28170253
vn 0.30777138 -0.92156434 -0.23663462
vn 0.12682825 -0.45573419 -0.88103402
vn -0.41989063 -0.82372484 -0.38101083
vn -0.07165602 -0.97445931 -0.21282498
f 8//8 2//2 3//3
f 8//8 7//7 1//1
f 13//13 11//11 4//4
f 13//13 3//3 11//11
f 13//13 8//8 3//3
f 13//13 7//7 8//8
f 15//15 8//8 1//1
f 15//15 2//2 8//8
f 17//17 10//10 3//3
f 17//17 3//3 2//2
f 22//22 1//1 7//7
f 22//22 7//7 14//14
f 24//24 15//15 1//1
f 25//25 24//24 16//16
f 26//26 10//10 17//17
f 27//27 18//18 10//10
f 27//27 11//11 18//18
f 28//28 18//18 11//11
f 28//28 11//11 3//3
f 28//28 3//3 10//10
f 28//28 10//10 18//18
f 29//29 27//27 6//6
f 29//29 11//11 27//27
f 32//32 20//20 7//7
f 32//32 7//7 13//13
f 32//32 31//31 20//20
f 32//32 13//13 4//4
f 32//32 30//30 31//31
f 36//36 22//22 14//14
f 37//37 23//23 9//9
f 37//37 16//16 23//23
f 37//37 9//9 34//34
f 37//37 25//25 16//16
f 38//38 16//16 24//24
f 38//38 24//24 1//1
f 39//39 25//25 2//2
f 39//39 2//2 15//15
f 40//40 15//15 24//24
f 40//40 24//24 25//25
f 40//40 39//39 15//15
f 40//40 25//25 39//39
f 41//41 27//27 10//10
f 41//41 6//6 27//27
f 42//42 26//26 21//21
f 42//42 6//6 26//26
f 43//43 37//37 34//34
f 43//43 25//25 37//37
f 43//43 2//2 25//25
f 44//44 42//42 21//21
f 45//45 4//4 11//11
f 45//45 29//29 19//19
f 46//46 45//45 19//19
f 46//46 30//30 45//45
f 47//47 31//31 12//12
f 47//47 35//35 5//5
f 47//47 12//12 35//35
f 48//48 5//5 20//20
f 48//48 20//20 31//31
f 48//48 47//47 5//5
f 48//48 31//31 47//47
f 49//49 32//32 4//4
f 49//49 30//30 32//32
f 49//49 45//45 30//30
f 49//49 4//4 45//45
f 50//50 14//14 7//7
f 50//50 7//7 33//33
f 50//50 36//36 14//14
f 51//51 33//33 7//7
f 51//51 7//7 20//20
f 51//51 20//20 5//5
f 51//51 5//5 36//36
f 51//51 50//50 33//33
f 51//51 36//36 50//50
f 52//52 34//34 9//9
f 52//52 5//5 35//35
f 52//52 36//36 5//5
f 53//53 21//21 34//34
f 53//53 52//52 35//35
f 53//53 34//34 52//52
f 53//53 44//44 21//21
f 53//53 35//35 12//12
f 53//53 12//12 44//44
f 54//54 1//1 22//22
f 54//54 22//22 36//36
f 54//54 52//52 9//9
f 54//54 36//36 52//52
f 55//55 38//38 23//23
f 55//55 23//23 16//16
f 55//55 16//16 38//38
f 56//56 38//38 1//1
f 56//56 23//23 38//38
f 56//56 1//1 54//54
f 56//56 54//54 9//9
f 56//56 9//9 23//23
f 57//57 26//26 6//6
f 57//57 6//6 41//41
f 57//57 41//41 10//10
f 57//57 10//10 26//26
f 58//58 21//21 26//26
f 58//58 26//26 17//17
f 58//58 43//43 34//34
f 58//58 34//34 21//21
f 59//59 17//17 2//2
f 59//59 2//2 43//43
f 59//59 58//58 17//17
f 59//59 43//43 58//58
f 60//60 44//44 19//19
f 60//60 19//19 29//29
f 61//61 29//29 6//6
f 61//61 6//6 42//42
f 61//61 42//42 44//44
f 61//61 60//60 29//29
f 61//61 44//44 60//60
f 62//62 45//45 11//11
f 62//62 11//11 29//29
f 62//62 29//29 45//45
f 63//63 31//31 30//30
f 63//63 30//30 46//46
f 63//63 12//12 31//31
f 64//64 44//44 12//12
f 64//64 63//63 46//46
f 64//64 12//12 63//63
f 64//64 46//46 19//19
f 64//64 19//19 44//44

