# https://github.com/mikedh/trimesh
v -0.04007104 0.00117410 0.02147920
v -0.03790484 -0.06433009 0.01870486
v -0.03803785 -0.03280211 0.01971773
v -0.03774729 0.00123592 0.01710969
v -0.04421919 -0.02222847 0.01729953
v -0.03790492 0.00123490 0.01791557
v -0.04178751 -0.05929214 0.02346656
v -0.03777630 -0.06521186 0.01708449
v -0.03896717 0.00138489 0.01984322
v -0.03902439 -0.06152307 0.02061590
v -0.04163307 -0.02344216 0.02347480
v -0.04417765 -0.06829337 0.01855735
v -0.03811617 -0.02560498 0.01969686
v -0.04002788 -0.06352445 0.02156868
v -0.04013130 -0.01176181 0.02174636
v -0.04429327 -0.02223127 0.02387593
v -0.04018544 -0.06748922 0.01722566
v -0.03971673 0.00124597 0.02098318
v -0.04435780 -0.06461838 0.02318484
v -0.04245712 -0.02234713 0.02361657
v -0.03944669 -0.06663226 0.01904440
v -0.04180450 -0.06448757 0.02237420
v -0.04439160 -0.06241083 0.02368051
v -0.03950821 -0.06713862 0.01730599
v -0.03900680 -0.06611535 0.01904937
v -0.04036540 -0.06698228 0.01914585
v -0.04271398 -0.06134683 0.02356711
v -0.03795540 -0.06504425 0.01798227
v -0.03968662 -0.06518628 0.02063483
v -0.04335452 -0.06237711 0.02351917
v -0.03902355 -0.06533368 0.01963343
vn -0.26922908 0.76309966 0.58753265
vn 0.91391105 -0.17392303 0.36676611
vn 0.90352727 -0.00043837 0.42853037
vn 0.31698892 0.66962566 -0.67165431
vn -0.72920028 0.06727046 -0.68098579
vn 0.76333513 0.59406859 0.25377546
vn 0.44286847 -0.03197718 0.89601617
vn 0.74355926 -0.31718923 -0.58865152
vn 0.32313400 0.91181056 0.25334938
vn 0.78681484 -0.03132155 0.61639384
vn 0.47348091 0.01005151 0.88074673
vn -0.55039580 -0.80256998 -0.23009972
vn 0.87370545 0.01125135 0.48632519
vn 0.64542404 -0.17707336 0.74301604
vn 0.73186770 0.01046443 0.68136639
vn -0.66575437 0.09457596 0.74015303
vn 0.13261937 -0.76838618 -0.62609486
vn 0.40379461 0.82906960 0.38677321
vn -0.55043426 -0.44414512 0.70693510
vn 0.18552236 0.04258995 0.98171663
vn 0.54482862 -0.72687843 0.41810229
vn 0.37452109 -0.45997776 0.80508038
vn -0.65023255 -0.10887353 0.75189373
vn 0.55707182 -0.74432422 -0.36831025
vn 0.74128082 -0.53864447 0.40045584
vn 0.29813890 -0.82373736 0.48225507
vn 0.28104517 -0.11792476 0.95242184
vn 0.86151969 -0.42140267 0.28320242
vn 0.57900866 -0.45556094 0.67617543
vn 0.23675387 -0.21135806 0.94830131
vn 0.75555917 -0.36654079 0.54293479
f 3//3 2//2 4//4
f 5//5 1//1 4//4
f 6//6 3//3 4//4
f 8//8 5//5 4//4
f 8//8 4//4 2//2
f 9//9 6//6 4//4
f 9//9 4//4 1//1
f 10//10 2//2 3//3
f 11//11 10//10 3//3
f 11//11 7//7 10//10
f 13//13 3//3 6//6
f 13//13 6//6 9//9
f 14//14 10//10 7//7
f 14//14 2//2 10//10
f 15//15 11//11 3//3
f 15//15 1//1 11//11
f 15//15 13//13 1//1
f 15//15 3//3 13//13
f 16//16 1//1 5//5
f 17//17 12//12 5//5
f 17//17 5//5 8//8
f 18//18 13//13 9//9
f 18//18 9//9 1//1
f 18//18 1//1 13//13
f 20//20 11//11 1//1
f 20//20 1//1 16//16
f 20//20 16//16 7//7
f 20//20 7//7 11//11
f 23//23 16//16 5//5
f 23//23 5//5 12//12
f 23//23 12//12 19//19
f 24//24 21//21 17//17
f 24//24 17//17 8//8
f 24//24 8//8 21//21
f 25//25 21//21 8//8
f 26//26 19//19 12//12
f 26//26 12//12 17//17
f 26//26 17//17 21//21
f 26//26 22//22 19//19
f 27//27 22//22 14//14
f 27//27 14//14 7//7
f 27//27 7//7 16//16
f 27//27 16//16 23//23
f 28//28 25//25 8//8
f 28//28 8//8 2//2
f 28//28 2//2 25//25
f 29//29 2//2 14//14
f 29//29 14//14 22//22
f 29//29 21//21 25//25
f 29//29 26//26 21//21
f 29//29 22//22 26//26
f 30//30 27//27 23//23
f 30//30 23//23 19//19
f 30//30 19//19 22//22
f 30//30 22//22 27//27
f 31//31 29//29 25//25
f 31//31 25//25 2//2
f 31//31 2//2 29//29

