# https://github.com/mikedh/trimesh
v 0.03521581 0.04917447 0.01533975
v 0.05126621 0.02484484 0.00895904
v 0.04369968 0.04942290 -0.01167625
v 0.02130366 0.06039099 -0.01633056
v 0.01092716 0.05085481 0.00935890
v 0.04114080 0.02487624 -0.01752529
v 0.03380356 0.05876755 0.00563865
v 0.04116960 0.02919801 0.01575315
v 0.05019427 0.02480204 -0.01365902
v 0.03927548 0.04695678 -0.01713510
v 0.02204650 0.05047775 -0.01527096
v 0.03273749 0.05861802 -0.01074203
v 0.01086419 0.06226699 0.01395283
v 0.04580754 0.04662026 0.00964136
v 0.03692976 0.02499231 0.01000444
v 0.03427456 0.04930601 -0.01735031
v 0.04616548 0.02908284 -0.01727996
v 0.03427586 0.02505974 -0.00952770
v 0.02181556 0.05208324 -0.01631180
v 0.03783635 0.05663595 0.00081257
v 0.02114648 0.06328049 -0.00759930
v 0.03373771 0.05491196 -0.01615980
v 0.02752249 0.05896744 0.01349657
v 0.01841589 0.05789196 0.01551583
v 0.01087375 0.05358029 0.01451590
v 0.01093579 0.06356770 0.00902041
v 0.05004513 0.03420627 -0.00980572
v 0.04835842 0.02901173 0.01451295
v 0.04670041 0.02908850 0.01563967
v 0.04639618 0.02488947 -0.01739651
v 0.04477530 0.04259816 -0.01530835
v 0.02199186 0.04943915 -0.01420249
v 0.03451003 0.02503983 -0.00280131
v 0.03560878 0.02511714 -0.01241718
v 0.03473027 0.05875591 -0.00139030
v 0.04279704 0.05059815 -0.01161637
v 0.03960431 0.05462883 0.00890833
v 0.02431489 0.06081564 -0.01459870
v 0.02852202 0.05790580 -0.01633550
v 0.02211830 0.05991947 0.01452640
v 0.01066112 0.06134967 0.01479211
v 0.01837232 0.05588907 0.01548292
v 0.03991811 0.02921252 0.01505335
v 0.02135866 0.06118334 -0.01490460
v 0.02533620 0.06193307 0.00565319
v 0.04790518 0.04140746 -0.00886740
v 0.05004680 0.03531275 0.00798151
v 0.05134320 0.02487899 -0.00979884
v 0.04314270 0.04477522 0.01418141
v 0.04801810 0.03311460 -0.01527125
v 0.04128803 0.04379588 -0.01716147
v 0.04177935 0.04854264 -0.01515425
v 0.03530171 0.02499034 0.00036294
v 0.03917758 0.02497594 -0.01646360
v 0.03771493 0.05671829 0.00672244
v 0.02673507 0.06190407 -0.00329973
v 0.03544365 0.05783470 -0.00407060
v 0.03545153 0.05562161 -0.01367024
v 0.04475293 0.04968616 0.00687845
v 0.02721649 0.05985134 -0.01447319
v 0.02326784 0.05996142 -0.01626683
v 0.03040277 0.05683217 -0.01634251
v 0.02154629 0.05783292 0.01540193
v 0.02954723 0.05702374 0.01423970
vn 0.18345349 0.19746998 0.96299036
vn 0.71009568 -0.63956961 0.29447383
vn 0.81374179 0.50227532 -0.29247872
vn -0.44184723 0.45539881 -0.77290552
vn -0.91933920 -0.39157349 -0.03854401
vn -0.11666478 -0.68639791 -0.71780724
vn 0.38929975 0.90802885 0.15469101
vn -0.11036030 -0.44625578 0.88807454
vn 0.68294446 -0.61848165 -0.38867380
vn 0.26780832 0.21852167 -0.93836399
vn -0.77183387 -0.42336004 -0.47438250
vn 0.46867007 0.85319896 -0.22891026
vn -0.47910527 0.77568177 0.41082348
vn 0.83388797 0.42184611 0.35591671
vn -0.34003176 -0.86484541 0.36935189
vn 0.02905470 0.08727997 -0.99576003
vn 0.39507429 0.06468329 -0.91636913
vn -0.51443441 -0.84269296 -0.15882635
vn -0.60282813 -0.16106376 -0.78144527
vn 0.64672408 0.76170195 -0.03947293
vn -0.02920053 0.98496224 -0.17028423
vn 0.38024230 0.51133348 -0.77068402
vn 0.31168823 0.78298401 0.53831821
vn -0.01272641 0.12742283 0.99176684
vn -0.72936417 -0.23559769 0.64227848
vn -0.66096613 0.74899791 -0.04610745
vn 0.95374984 0.22647128 -0.19766639
vn 0.71180781 -0.14479948 0.68728652
vn 0.28001472 -0.34752615 0.89488398
vn 0.31369721 -0.60873289 -0.72872377
vn 0.71860364 0.28272456 -0.63535472
vn -0.80486470 -0.42844216 -0.41064598
vn -0.43415609 -0.90003237 0.03808183
vn -0.51165290 -0.78883177 -0.34052276
vn 0.48326414 0.87446493 -0.04203401
vn 0.69237105 0.66046595 -0.29052892
vn 0.60919093 0.68611817 0.39765345
vn 0.25419766 0.88737194 -0.38464865
vn 0.25527353 0.51515031 -0.81820265
vn 0.17732543 0.71128117 0.68017262
vn -0.64595361 0.32353005 0.69142768
vn -0.07668502 -0.03860616 0.99630767
vn -0.42835867 -0.53140723 0.73083186
vn -0.24020803 0.88675563 -0.39492347
vn 0.24582519 0.95731074 0.15207276
vn 0.92063643 0.34878356 -0.17543831
vn 0.94984423 0.23429629 0.20712599
vn 0.79455848 -0.59690911 -0.11124896
vn 0.51866777 0.31674137 0.79414019
vn 0.75867406 0.19268634 -0.62232279
vn 0.30586506 0.15639271 -0.93914210
vn 0.58912665 0.44674806 -0.67330971
vn -0.10224120 -0.99462117 0.01659736
vn -0.39221284 -0.76925030 -0.50440368
vn 0.55113260 0.81633624 0.17276576
vn 0.31085685 0.94994268 -0.03125565
vn 0.59722384 0.79145583 -0.13008212
vn 0.54536699 0.72746595 -0.41637499
vn 0.82156924 0.55582533 0.12681553
vn 0.34485744 0.85204652 -0.39381478
vn 0.17273492 0.57400223 -0.80042744
vn 0.30056887 0.51520022 -0.80263758
vn 0.08427275 0.22165506 0.97147678
vn 0.33521643 0.49820938 0.79963576
f 9//9 2//2 6//6
f 15//15 6//6 2//2
f 19//19 5//5 4//4
f 19//19 16//16 6//6
f 19//19 4//4 16//16
f 25//25 5//5 15//15
f 26//26 4//4 5//5
f 29//29 15//15 2//2
f 29//29 8//8 15//15
f 29//29 2//2 28//28
f 29//29 24//24 8//8
f 29//29 1//1 24//24
f 30//30 9//9 6//6
f 30//30 6//6 16//16
f 32//32 18//18 5//5
f 32//32 19//19 11//11
f 32//32 5//5 19//19
f 33//33 15//15 5//5
f 33//33 5//5 18//18
f 34//34 11//11 19//19
f 34//34 32//32 11//11
f 34//34 18//18 32//32
f 39//39 16//16 4//4
f 41//41 5//5 25//25
f 41//41 26//26 5//5
f 41//41 13//13 26//26
f 41//41 40//40 13//13
f 42//42 25//25 8//8
f 42//42 8//8 24//24
f 42//42 41//41 25//25
f 42//42 24//24 41//41
f 43//43 25//25 15//15
f 43//43 15//15 8//8
f 43//43 8//8 25//25
f 44//44 26//26 21//21
f 44//44 4//4 26//26
f 44//44 38//38 4//4
f 44//44 21//21 38//38
f 45//45 23//23 7//7
f 45//45 21//21 26//26
f 45//45 40//40 23//23
f 45//45 26//26 13//13
f 45//45 13//13 40//40
f 46//46 31//31 3//3
f 46//46 27//27 31//31
f 47//47 28//28 2//2
f 47//47 14//14 28//28
f 47//47 27//27 46//46
f 48//48 2//2 9//9
f 48//48 9//9 27//27
f 48//48 47//47 2//2
f 48//48 27//27 47//47
f 49//49 29//29 28//28
f 49//49 28//28 14//14
f 49//49 1//1 29//29
f 49//49 14//14 37//37
f 50//50 30//30 17//17
f 50//50 9//9 30//30
f 50//50 17//17 31//31
f 50//50 31//31 27//27
f 50//50 27//27 9//9
f 51//51 30//30 16//16
f 51//51 16//16 10//10
f 51//51 17//17 30//30
f 51//51 31//31 17//17
f 52//52 3//3 31//31
f 52//52 36//36 3//3
f 52//52 10//10 22//22
f 52//52 51//51 10//10
f 52//52 31//31 51//51
f 53//53 33//33 18//18
f 53//53 18//18 6//6
f 53//53 6//6 15//15
f 53//53 15//15 33//33
f 54//54 34//34 19//19
f 54//54 19//19 6//6
f 54//54 6//6 18//18
f 54//54 18//18 34//34
f 55//55 35//35 7//7
f 55//55 20//20 35//35
f 55//55 7//7 23//23
f 55//55 23//23 37//37
f 56//56 35//35 12//12
f 56//56 12//12 21//21
f 56//56 21//21 45//45
f 56//56 45//45 7//7
f 56//56 7//7 35//35
f 57//57 35//35 20//20
f 57//57 20//20 36//36
f 57//57 36//36 12//12
f 57//57 12//12 35//35
f 58//58 12//12 36//36
f 58//58 52//52 22//22
f 58//58 36//36 52//52
f 59//59 3//3 36//36
f 59//59 46//46 3//3
f 59//59 47//47 46//46
f 59//59 14//14 47//47
f 59//59 37//37 14//14
f 59//59 36//36 20//20
f 59//59 55//55 37//37
f 59//59 20//20 55//55
f 60//60 38//38 21//21
f 60//60 21//21 12//12
f 60//60 12//12 58//58
f 61//61 39//39 4//4
f 61//61 4//4 38//38
f 61//61 60//60 39//39
f 61//61 38//38 60//60
f 62//62 22//22 10//10
f 62//62 10//10 16//16
f 62//62 16//16 39//39
f 62//62 58//58 22//22
f 62//62 60//60 58//58
f 62//62 39//39 60//60
f 63//63 24//24 1//1
f 63//63 41//41 24//24
f 63//63 40//40 41//41
f 64//64 23//23 40//40
f 64//64 1//1 49//49
f 64//64 49//49 37//37
f 64//64 37//37 23//23
f 64//64 63//63 1//1
f 64//64 40//40 63//63

