# https://github.com/mikedh/trimesh
v -0.00185459 0.06406668 0.01524413
v 0.01016344 0.05350848 0.01179688
v 0.00957634 0.06520249 -0.01596102
v -0.02061679 0.06161082 -0.01632623
v -0.02169785 0.04998504 0.01480722
v -0.02166031 0.04804047 -0.01315771
v -0.01038039 0.06846161 -0.00477518
v 0.00948835 0.06679558 0.00872464
v 0.00925590 0.05607730 0.01422386
v 0.01017778 0.05249399 -0.01193435
v 0.01002824 0.05644877 -0.01654836
v -0.02065707 0.06625156 -0.00574546
v -0.02159128 0.04574026 0.00036374
v -0.00801533 0.06739732 -0.01298118
v -0.00614691 0.06741972 0.01195628
v 0.00628268 0.06849200 -0.00771916
v 0.00992620 0.05418359 0.01279706
v -0.02129156 0.05285520 0.01644967
v -0.00112619 0.06571520 0.01455555
v -0.02091427 0.05314018 -0.01663502
v 0.00436352 0.06528743 -0.01685109
v 0.01013747 0.05350693 -0.01407406
v 0.00950507 0.06734201 0.00436510
v -0.02161990 0.04928008 -0.01477830
v -0.02167242 0.04809834 0.01084887
v 0.01017283 0.05250331 0.00672202
v -0.02165909 0.04687772 -0.00791135
v -0.01517601 0.06729585 -0.00863132
v -0.01431889 0.06736814 0.00553497
v 0.00117486 0.06860554 0.00457944
v -0.00395390 0.06844611 -0.00891196
v -0.02151650 0.05106781 0.01579342
v -0.00192408 0.06228679 0.01527687
v -0.02070787 0.06412231 0.01163861
v -0.00166325 0.06745397 0.01197092
v 0.00951635 0.06475652 -0.01656712
v -0.01335883 0.06450300 -0.01654854
v 0.00326517 0.06735966 -0.01309997
v 0.00926235 0.06742320 -0.00880034
v -0.02160612 0.04576431 -0.00061049
v -0.01633307 0.06739676 -0.00396030
v -0.00924437 0.06843120 -0.00578596
v -0.02047179 0.06416345 -0.01370908
v 0.00639557 0.06845165 -0.00283470
v 0.00644771 0.06742482 0.00877622
v -0.00396359 0.06859837 0.00465528
v -0.01685106 0.05897270 0.01627952
v -0.02086214 0.06147256 0.01512122
v -0.02064927 0.06522463 0.00660286
v -0.01226518 0.06635696 0.01246232
v -0.00092312 0.06663253 0.01371627
v -0.00279304 0.06635558 -0.01571721
v 0.00648601 0.06737939 -0.01201551
v 0.00636915 0.06629194 -0.01482446
v 0.00435890 0.06841465 -0.00860173
v 0.00951491 0.06626444 -0.01317817
v -0.01622460 0.06726115 -0.00755486
v -0.01016332 0.06833798 0.00053994
v -0.02061453 0.06627482 -0.00289746
v -0.01949250 0.06325057 -0.01571614
v -0.01639750 0.06525275 -0.01470899
v 0.00329508 0.06852816 0.00350925
v -0.00929089 0.06742495 0.01078869
v -0.02094621 0.05891642 0.01627573
vn 0.08568526 0.23254832 0.96880303
vn 0.74543720 -0.58648189 0.31680020
vn 0.71556323 0.60077983 -0.35641670
vn -0.68128035 0.22310308 -0.69719589
vn -0.63928711 -0.59996890 0.48098786
vn -0.62054619 -0.71042922 -0.33198306
vn -0.10208250 0.99364875 -0.04734258
vn 0.71179894 0.60415915 0.35823734
vn 0.58007820 -0.07809702 0.81080832
vn 0.73477377 -0.65698008 -0.16877405
vn 0.66626766 -0.21990718 -0.71255051
vn -0.75705335 0.64885910 -0.07649897
vn -0.57269857 -0.81653913 0.07266498
vn -0.09429324 0.93411155 -0.34430276
vn -0.06269508 0.92048025 0.38572715
vn 0.16716093 0.98108420 -0.09762688
vn 0.69347098 -0.41280954 0.59049664
vn -0.57101600 -0.10723213 0.81390540
vn 0.14132885 0.51189079 0.84734525
vn -0.54157002 -0.14590649 -0.82789686
vn 0.04553350 0.49203505 -0.86938381
vn 0.71613348 -0.53801526 -0.44462616
vn 0.74797701 0.66138693 0.05565722
vn -0.64106090 -0.47082648 -0.60610507
vn -0.62148399 -0.74258522 0.24964942
vn 0.75357943 -0.65318789 0.07391634
vn -0.64251854 -0.75368303 -0.13831780
vn -0.19695879 0.95907183 -0.20344154
vn -0.21721583 0.96789504 0.12647717
vn 0.03888489 0.99523586 0.08940661
vn -0.02085848 0.99084065 -0.13341560
vn -0.59165997 -0.37440166 0.71397610
vn 0.08057329 -0.00284046 0.99674464
vn -0.73765306 0.61739819 0.27329001
vn 0.04313050 0.95308468 0.29961534
vn 0.59135013 0.34583639 -0.72849311
vn -0.09323754 0.49093828 -0.86619072
vn 0.04871159 0.93851317 -0.34178973
vn 0.68804039 0.71925452 -0.09629823
vn -0.61104441 -0.78958319 -0.05641900
vn -0.21316900 0.97700994 0.00324968
vn -0.08581176 0.98777629 -0.13013200
vn -0.74786585 0.60078831 -0.28240054
vn 0.19012153 0.98166543 0.01366715
vn 0.16547791 0.95039149 0.26338768
vn -0.03314429 0.99652386 0.07643071
vn 0.02730493 0.08991392 0.99557517
vn -0.68615844 0.43920932 0.57989807
vn -0.76636415 0.63407608 0.10311894
vn -0.18693231 0.83443231 0.51843903
vn 0.12756195 0.77611761 0.61755113
vn -0.02458721 0.79542488 -0.60555324
vn 0.16461988 0.94395158 -0.28610438
vn 0.11889755 0.89197606 -0.43616750
vn 0.03202513 0.98301035 -0.18073470
vn 0.74998635 0.63184333 -0.19568975
vn -0.23953845 0.95972450 -0.14679992
vn -0.11776565 0.99181890 0.04925973
vn -0.73240301 0.68010580 0.03227884
vn -0.36699297 0.62337216 -0.69045152
vn -0.24155955 0.84969642 -0.46868431
vn 0.10428900 0.99210274 0.06968473
vn -0.13175127 0.96564565 0.22398681
vn -0.63822522 0.18595832 0.74705292
f 11//11 2//2 10//10
f 17//17 5//5 2//2
f 17//17 2//2 8//8
f 17//17 8//8 9//9
f 19//19 9//9 8//8
f 19//19 1//1 9//9
f 21//21 11//11 20//20
f 22//22 11//11 10//10
f 22//22 10//10 6//6
f 23//23 8//8 2//2
f 23//23 2//2 11//11
f 23//23 11//11 3//3
f 24//24 6//6 5//5
f 24//24 5//5 12//12
f 24//24 12//12 4//4
f 24//24 4//4 20//20
f 24//24 20//20 11//11
f 24//24 22//22 6//6
f 24//24 11//11 22//22
f 25//25 13//13 2//2
f 25//25 2//2 5//5
f 26//26 13//13 10//10
f 26//26 10//10 2//2
f 26//26 2//2 13//13
f 27//27 6//6 10//10
f 27//27 25//25 5//5
f 27//27 5//5 6//6
f 32//32 17//17 9//9
f 32//32 5//5 17//17
f 32//32 9//9 18//18
f 33//33 18//18 9//9
f 33//33 9//9 1//1
f 34//34 12//12 5//5
f 36//36 21//21 3//3
f 36//36 3//3 11//11
f 36//36 11//11 21//21
f 37//37 21//21 20//20
f 37//37 20//20 4//4
f 38//38 14//14 31//31
f 39//39 16//16 23//23
f 40//40 27//27 10//10
f 40//40 10//10 13//13
f 40//40 13//13 25//25
f 40//40 25//25 27//27
f 42//42 28//28 7//7
f 42//42 14//14 28//28
f 42//42 31//31 14//14
f 42//42 7//7 31//31
f 43//43 4//4 12//12
f 44//44 23//23 16//16
f 44//44 16//16 30//30
f 45//45 8//8 23//23
f 45//45 30//30 35//35
f 46//46 35//35 30//30
f 46//46 15//15 35//35
f 46//46 31//31 7//7
f 46//46 30//30 16//16
f 46//46 16//16 31//31
f 47//47 33//33 1//1
f 47//47 18//18 33//33
f 48//48 34//34 5//5
f 49//49 34//34 29//29
f 49//49 12//12 34//34
f 50//50 29//29 34//34
f 50//50 34//34 48//48
f 50//50 48//48 19//19
f 51//51 19//19 8//8
f 51//51 45//45 35//35
f 51//51 8//8 45//45
f 51//51 35//35 15//15
f 51//51 50//50 19//19
f 51//51 15//15 50//50
f 52//52 37//37 14//14
f 52//52 21//21 37//37
f 52//52 14//14 38//38
f 53//53 38//38 16//16
f 53//53 16//16 39//39
f 54//54 3//3 21//21
f 54//54 52//52 38//38
f 54//54 21//21 52//52
f 54//54 53//53 3//3
f 54//54 38//38 53//53
f 55//55 38//38 31//31
f 55//55 31//31 16//16
f 55//55 16//16 38//38
f 56//56 39//39 23//23
f 56//56 23//23 3//3
f 56//56 53//53 39//39
f 56//56 3//3 53//53
f 57//57 12//12 41//41
f 57//57 43//43 12//12
f 57//57 41//41 7//7
f 57//57 7//7 28//28
f 58//58 41//41 29//29
f 58//58 7//7 41//41
f 58//58 46//46 7//7
f 59//59 41//41 12//12
f 59//59 29//29 41//41
f 59//59 49//49 29//29
f 59//59 12//12 49//49
f 60//60 37//37 4//4
f 60//60 4//4 43//43
f 61//61 28//28 14//14
f 61//61 14//14 37//37
f 61//61 60//60 43//43
f 61//61 37//37 60//60
f 61//61 57//57 28//28
f 61//61 43//43 57//57
f 62//62 44//44 30//30
f 62//62 23//23 44//44
f 62//62 45//45 23//23
f 62//62 30//30 45//45
f 63//63 15//15 46//46
f 63//63 50//50 15//15
f 63//63 29//29 50//50
f 63//63 58//58 29//29
f 63//63 46//46 58//58
f 64//64 32//32 18//18
f 64//64 18//18 47//47
f 64//64 47//47 1//1
f 64//64 1//1 19//19
f 64//64 19//19 48//48
f 64//64 48//48 5//5
f 64//64 5//5 32//32

