# https://github.com/mikedh/trimesh
v 0.04173830 0.02078209 0.01440346
v 0.04210350 0.01333634 0.01409226
v 0.04198171 0.01334336 -0.01796283
v 0.04168006 0.02076432 -0.00035356
v 0.03645336 -0.00251338 -0.00789724
v 0.03871219 0.00800868 0.00792149
v 0.03940389 -0.01452444 -0.01489345
v 0.03645406 0.02078878 -0.00037568
v 0.04046301 0.02116736 0.01360920
v 0.03632194 0.01344224 -0.01054285
v 0.04187598 -0.00684537 -0.01786003
v 0.03791699 -0.01423114 0.00016583
v 0.04076626 0.01333621 0.01280575
v 0.03741104 0.02104498 0.00592740
v 0.03651467 -0.00256254 -0.00992980
v 0.03838443 0.01345358 -0.01468781
v 0.03635390 0.01342541 -0.00574840
v 0.03646551 -0.00149880 -0.00686857
v 0.03753808 -0.01423606 -0.00975211
v 0.03758005 -0.00587772 -0.01238913
v 0.03945339 -0.00695793 -0.01563743
v 0.04133157 -0.00699124 -0.01764433
v 0.04122365 0.01335844 -0.01747874
v 0.03783502 -0.01433362 -0.00040988
v 0.03827673 -0.01435772 -0.01279083
v 0.03746651 -0.01432198 -0.00363744
v 0.03761183 -0.01319900 -0.01076431
v 0.03751635 -0.01323602 -0.00263972
vn 0.41765948 0.47697939 0.77333771
vn 0.39250968 -0.21297887 0.89474921
vn 0.41320807 0.41707984 -0.80950818
vn 0.65238636 0.74106720 -0.15878109
vn -0.99868596 -0.05003713 0.01107430
vn -0.91297598 -0.09703738 0.39630619
vn 0.10151811 -0.76700167 -0.63356335
vn -0.69774941 0.70823579 -0.10746083
vn -0.47952292 0.70414259 0.52368023
vn -0.93720320 0.21424214 -0.27522802
vn 0.58566846 -0.22228894 -0.77947423
vn -0.05681778 -0.75782824 0.64997546
vn -0.77994249 -0.14445572 0.60895177
vn -0.71117294 0.68042730 0.17678160
vn -0.98062594 -0.04335482 -0.19103173
vn -0.72381628 0.39196504 -0.56784981
vn -0.99984645 -0.00274283 0.01730785
vn -0.99670965 -0.03032160 0.07516967
vn -0.76728173 -0.63655369 -0.07796243
vn -0.91006881 -0.04282588 -0.41223864
vn -0.80264727 -0.03445920 -0.59545775
vn -0.51921631 -0.10774369 -0.84782411
vn -0.53249446 0.46694106 -0.70598562
vn -0.44689216 -0.87376006 0.19191343
vn -0.71760711 -0.64692873 -0.25792100
vn -0.72185565 -0.69068502 0.04334307
vn -0.97014115 -0.10400300 -0.21911078
vn -0.99229697 -0.05123558 0.11279020
f 1//1 2//2 3//3
f 1//1 3//3 4//4
f 8//8 4//4 3//3
f 9//9 2//2 1//1
f 9//9 1//1 4//4
f 11//11 3//3 2//2
f 12//12 11//11 2//2
f 12//12 7//7 11//11
f 13//13 9//9 6//6
f 13//13 2//2 9//9
f 13//13 12//12 2//2
f 13//13 6//6 12//12
f 14//14 6//6 9//9
f 14//14 12//12 6//6
f 14//14 8//8 12//12
f 14//14 9//9 4//4
f 14//14 4//4 8//8
f 15//15 5//5 10//10
f 16//16 10//10 8//8
f 17//17 10//10 5//5
f 17//17 8//8 10//10
f 18//18 17//17 5//5
f 18//18 8//8 17//17
f 19//19 5//5 15//15
f 20//20 15//15 10//10
f 20//20 10//10 16//16
f 21//21 20//20 16//16
f 21//21 7//7 20//20
f 22//22 3//3 11//11
f 22//22 21//21 16//16
f 22//22 11//11 7//7
f 22//22 7//7 21//21
f 23//23 16//16 8//8
f 23//23 8//8 3//3
f 23//23 22//22 16//16
f 23//23 3//3 22//22
f 24//24 12//12 8//8
f 24//24 8//8 18//18
f 24//24 7//7 12//12
f 25//25 15//15 20//20
f 25//25 20//20 7//7
f 26//26 18//18 5//5
f 26//26 5//5 19//19
f 26//26 19//19 25//25
f 26//26 25//25 7//7
f 26//26 7//7 24//24
f 27//27 25//25 19//19
f 27//27 19//19 15//15
f 27//27 15//15 25//25
f 28//28 26//26 24//24
f 28//28 24//24 18//18
f 28//28 18//18 26//26

