# https://github.com/mikedh/trimesh
v -0.03127462 0.05332148 0.01666853
v -0.03175789 0.04651004 0.01667516
v -0.03166316 0.04638855 -0.01596993
v -0.04146906 0.04669401 -0.01596865
v -0.05246539 0.02888794 0.01201805
v -0.03111127 0.05991268 -0.00848977
v -0.04802805 0.02369108 0.01785504
v -0.03088936 0.05891475 -0.01258258
v -0.04507833 0.05038382 0.00585776
v -0.03706089 0.04597561 0.01770059
v -0.03783714 0.02378095 0.01206657
v -0.03098670 0.05768126 0.01392098
v -0.03112261 0.05520597 -0.01623647
v -0.05245062 0.03514910 -0.00963421
v -0.04188166 0.05462934 -0.00832039
v -0.04352128 0.02359983 0.01785984
v -0.04844499 0.03918741 0.01554593
v -0.03249327 0.03963232 -0.00125236
v -0.03107861 0.05994233 0.00390940
v -0.03098265 0.05694127 -0.01544416
v -0.04820026 0.02367320 -0.01656745
v -0.04828422 0.04633432 -0.00845816
v -0.03809922 0.05750409 -0.00724015
v -0.04142398 0.02367016 0.01699856
v -0.05031839 0.03199135 0.01579372
v -0.04460838 0.03941515 0.01753404
v -0.05139473 0.03821196 0.00926203
v -0.03887641 0.05434882 0.01294204
v -0.03801683 0.02372774 -0.00948904
v -0.03198436 0.04264305 -0.01329809
v -0.03259222 0.04070209 0.00699616
v -0.03695633 0.05536428 -0.01313451
v -0.03412406 0.05394258 -0.01586305
v -0.04358958 0.02373720 -0.01640777
v -0.04938739 0.03716663 -0.01420763
v -0.05383933 0.02368925 -0.00653941
v -0.04400186 0.05264002 -0.00644576
v -0.04410491 0.04725438 -0.01402205
v -0.03314943 0.05960454 -0.00749339
v -0.03992495 0.05662028 -0.00353768
v -0.03903914 0.02360886 -0.01246565
v -0.03889938 0.02393094 0.01399422
v -0.05150584 0.02367125 0.01497171
v -0.04205129 0.04236966 0.01762637
v -0.04793311 0.03095209 0.01760507
v -0.05122497 0.03606077 0.01308831
v -0.05027225 0.04237460 -0.00754875
v -0.04707052 0.04620975 0.01097872
v -0.03626384 0.05740712 0.00908029
v -0.03590469 0.05385935 0.01544255
v -0.03682805 0.02587883 -0.00015385
v -0.03256896 0.03966932 0.00157298
v -0.03233542 0.04388519 0.01492846
v -0.03375886 0.05665542 -0.01409325
v -0.04102742 0.05436026 -0.01025436
v -0.03520813 0.05281384 -0.01593112
v -0.05160166 0.02796170 -0.01349087
v -0.04557102 0.04038765 -0.01589266
v -0.05127238 0.03803699 -0.01046854
v -0.05360757 0.02988068 -0.00553234
v -0.04703830 0.04856513 -0.00346485
v -0.04610712 0.04933558 -0.00857184
v -0.04812706 0.04434499 -0.01098407
v -0.03617152 0.05840633 -0.00716870
vn 0.61231528 0.24057148 0.75312374
vn 0.76945790 -0.12056029 0.62721588
vn 0.74142632 -0.11472305 -0.66115477
vn -0.30140690 0.25602851 -0.91847879
vn -0.97198736 0.03730482 0.23205372
vn 0.49831480 0.85901691 -0.11735549
vn -0.27273591 -0.61656134 0.73855754
vn 0.53838748 0.76004573 -0.36396346
vn -0.75942071 0.63617873 0.13622338
vn -0.02108268 0.12502379 0.99192972
vn 0.63322904 -0.75434539 0.17315894
vn 0.53608205 0.69217577 0.48322742
vn 0.57037695 0.19852904 -0.79702971
vn -0.94849238 0.20219366 -0.24388506
vn -0.65685406 0.71720268 -0.23272959
vn 0.11075943 -0.68793938 0.71726687
vn -0.65802082 0.34160347 0.67105564
vn 0.97411204 -0.22606047 0.00154802
vn 0.51644256 0.85232219 0.08266785
vn 0.53050229 0.53706647 -0.65584062
vn -0.33027932 -0.61991480 -0.71177328
vn -0.84021326 0.49476238 -0.22192762
vn -0.47661986 0.85928621 -0.18563598
vn 0.39383306 -0.72587836 0.56391145
vn -0.74265581 0.11572733 0.65959801
vn -0.29528958 0.19021245 0.93628163
vn -0.93990938 0.31578084 0.12981842
vn -0.57039215 0.67639956 0.46597900
vn 0.64468210 -0.75785015 -0.10024037
vn 0.95620656 -0.24137106 -0.16555671
vn 0.96667272 -0.24933044 0.05812212
vn -0.48024727 0.66517307 -0.57175811
vn -0.34711112 0.41409057 -0.84145283
vn 0.20313029 -0.66671215 -0.71710041
vn -0.69235596 0.21828143 -0.68774736
vn -0.74845513 -0.65354932 -0.11264194
vn -0.75922822 0.64786670 -0.06197790
vn -0.61113024 0.45647522 -0.64664534
vn -0.29872906 0.94756490 -0.11349764
vn -0.57070875 0.82036190 0.03602602
vn 0.52089541 -0.77459202 -0.35871323
vn 0.67016135 -0.58017520 0.46290443
vn -0.66847360 -0.63256000 0.39116607
vn -0.25322930 0.22164759 0.94167259
vn -0.35637603 0.07291405 0.93149324
vn -0.89932566 0.24283557 0.36365400
vn -0.92023910 0.37973011 -0.09468390
vn -0.78433130 0.52435515 0.33147563
vn -0.45518245 0.86553373 0.20895046
vn -0.33776292 0.51560431 0.78744423
vn 0.92757146 -0.37357927 -0.00705117
vn 0.97007558 -0.24025475 0.03508584
vn 0.95930584 -0.26929949 0.08491227
vn -0.42574424 0.69791553 -0.57589561
vn -0.58563920 0.67059372 -0.45533591
vn -0.33461972 0.35430946 -0.87320928
vn -0.82843466 -0.03795594 -0.55879814
vn -0.37824263 0.18949798 -0.90610321
vn -0.88127479 0.31297507 -0.35412053
vn -0.99339415 0.10702279 -0.04140281
vn -0.84558033 0.53325263 0.02520987
vn -0.76698812 0.56986559 -0.29492785
vn -0.77462404 0.42374206 -0.46946807
vn -0.39510519 0.90993038 -0.12616888
f 1//1 2//2 3//3
f 10//10 2//2 1//1
f 12//12 1//1 3//3
f 16//16 10//10 7//7
f 16//16 2//2 10//10
f 19//19 12//12 8//8
f 19//19 8//8 6//6
f 20//20 12//12 3//3
f 20//20 8//8 12//12
f 20//20 3//3 13//13
f 21//21 4//4 13//13
f 24//24 2//2 16//16
f 30//30 3//3 2//2
f 30//30 2//2 18//18
f 33//33 20//20 13//13
f 34//34 21//21 13//13
f 34//34 13//13 3//3
f 39//39 6//6 8//8
f 39//39 19//19 6//6
f 40//40 23//23 15//15
f 40//40 37//37 9//9
f 40//40 15//15 37//37
f 41//41 24//24 16//16
f 41//41 11//11 24//24
f 41//41 29//29 11//11
f 41//41 21//21 34//34
f 41//41 34//34 3//3
f 41//41 30//30 29//29
f 41//41 3//3 30//30
f 41//41 36//36 21//21
f 41//41 16//16 36//36
f 42//42 24//24 11//11
f 42//42 11//11 2//2
f 42//42 2//2 24//24
f 43//43 25//25 5//5
f 43//43 7//7 25//25
f 43//43 5//5 36//36
f 43//43 36//36 16//16
f 43//43 16//16 7//7
f 44//44 7//7 10//10
f 44//44 17//17 26//26
f 45//45 25//25 7//7
f 45//45 44//44 26//26
f 45//45 7//7 44//44
f 45//45 26//26 17//17
f 45//45 17//17 25//25
f 46//46 25//25 17//17
f 46//46 27//27 5//5
f 46//46 5//5 25//25
f 47//47 14//14 27//27
f 48//48 28//28 9//9
f 48//48 17//17 28//28
f 48//48 46//46 17//17
f 48//48 27//27 46//46
f 49//49 28//28 12//12
f 49//49 12//12 19//19
f 49//49 19//19 40//40
f 49//49 40//40 9//9
f 49//49 9//9 28//28
f 50//50 1//1 12//12
f 50//50 12//12 28//28
f 50//50 28//28 17//17
f 50//50 17//17 44//44
f 50//50 44//44 10//10
f 50//50 10//10 1//1
f 51//51 18//18 11//11
f 51//51 11//11 29//29
f 51//51 30//30 18//18
f 51//51 29//29 30//30
f 52//52 18//18 2//2
f 52//52 2//2 31//31
f 52//52 31//31 11//11
f 52//52 11//11 18//18
f 53//53 31//31 2//2
f 53//53 2//2 11//11
f 53//53 11//11 31//31
f 54//54 8//8 20//20
f 54//54 33//33 32//32
f 54//54 20//20 33//33
f 54//54 32//32 23//23
f 54//54 23//23 8//8
f 55//55 15//15 23//23
f 55//55 23//23 32//32
f 55//55 32//32 38//38
f 56//56 33//33 13//13
f 56//56 13//13 4//4
f 56//56 4//4 38//38
f 56//56 38//38 32//32
f 56//56 32//32 33//33
f 57//57 35//35 21//21
f 57//57 14//14 35//35
f 57//57 36//36 14//14
f 57//57 21//21 36//36
f 58//58 4//4 21//21
f 58//58 21//21 35//35
f 58//58 38//38 4//4
f 58//58 35//35 38//38
f 59//59 35//35 14//14
f 59//59 47//47 22//22
f 59//59 14//14 47//47
f 60//60 27//27 14//14
f 60//60 14//14 36//36
f 60//60 36//36 5//5
f 60//60 5//5 27//27
f 61//61 37//37 22//22
f 61//61 9//9 37//37
f 61//61 48//48 9//9
f 61//61 27//27 48//48
f 61//61 47//47 27//27
f 61//61 22//22 47//47
f 62//62 37//37 15//15
f 62//62 22//22 37//37
f 62//62 15//15 55//55
f 62//62 55//55 38//38
f 63//63 38//38 35//35
f 63//63 62//62 38//38
f 63//63 22//22 62//62
f 63//63 59//59 22//22
f 63//63 35//35 59//59
f 64//64 39//39 8//8
f 64//64 8//8 23//23
f 64//64 23//23 40//40
f 64//64 40//40 19//19
f 64//64 19//19 39//39

