# https://github.com/mikedh/trimesh
v -0.04545526 0.00294079 0.01807109
v -0.03887767 -0.06143278 0.01040763
v -0.03972236 0.00314518 -0.00828603
v -0.05008942 0.00732360 -0.01627873
v -0.05445485 -0.06277359 0.01142441
v -0.04355065 -0.05920397 -0.01353555
v -0.03961348 0.00312293 0.01147194
v -0.04629151 -0.06154369 0.01783510
v -0.05435928 0.00296080 0.01318891
v -0.03986677 -0.03934453 -0.01036777
v -0.05425249 -0.06336545 -0.00900539
v -0.05033846 0.00730356 -0.00641381
v -0.04269169 -0.02045154 0.01703041
v -0.03868815 -0.00549129 -0.00212374
v -0.04453686 -0.06706182 0.01024368
v -0.05274522 -0.01093610 0.01679064
v -0.04110721 -0.06216467 -0.01003762
v -0.04347051 -0.00663440 -0.01569736
v -0.04908439 -0.05424971 -0.01586167
v -0.05552600 0.00416519 -0.00824806
v -0.04266643 0.00332358 0.01681051
v -0.04996203 0.00303204 0.01806629
v -0.03888095 -0.06066236 0.01117680
v -0.04432331 -0.02046012 0.01797882
v -0.03987189 -0.00558125 -0.01044173
v -0.03873102 -0.05421231 0.00207501
v -0.05180591 -0.06501192 0.01485994
v -0.04235150 -0.06496178 0.01405056
v -0.05543151 -0.01490374 0.01339731
v -0.04166266 -0.03957601 -0.01419612
v -0.04096128 -0.06427072 -0.00701800
v -0.05009958 -0.06593217 -0.00987939
v -0.04358518 0.00299822 -0.01508037
v -0.05257719 -0.04253604 -0.01374560
v -0.04552356 0.00307816 -0.01619652
v -0.05560235 0.00730311 -0.00640834
v -0.05188940 0.00301501 0.01706833
v -0.05061782 -0.05945304 0.01785687
v -0.03868761 -0.00659340 0.00721768
v -0.04255386 -0.06304900 0.01579537
v -0.04450949 0.00184777 0.01779073
v -0.03987496 -0.06063217 -0.00522293
v -0.03877203 -0.06153238 0.00949274
v -0.05363004 -0.06601751 -0.00414681
v -0.04551757 -0.06489521 0.01620438
v -0.03964249 -0.06332485 0.01144674
v -0.05559297 -0.06176471 -0.00513430
v -0.04196202 -0.05632581 -0.01294831
v -0.04423898 -0.04149491 -0.01577302
v -0.04082136 -0.02341300 -0.01284310
v -0.04441999 -0.06419909 -0.01162396
v -0.05073061 -0.06208954 -0.01367841
v -0.04528301 -0.06699397 -0.00789167
v -0.04097312 0.00294982 -0.01225440
v -0.05159485 -0.04049350 -0.01476781
v -0.05257795 0.00511234 -0.01483279
v -0.05449250 -0.01913375 -0.01190078
v -0.04463882 0.00190071 -0.01577998
v -0.05555572 0.00295849 0.00409959
v -0.05448476 -0.01088166 0.01496014
v -0.05343982 0.00301221 0.01518296
v -0.05089579 -0.02465176 0.01780451
v -0.05005357 -0.06301322 0.01688397
v -0.05331269 -0.05854123 0.01538728
vn 0.13011549 0.54189218 0.83031489
vn 0.96190920 -0.21584966 0.16774867
vn 0.82240872 0.55413319 -0.12876451
vn -0.09995197 0.70975150 -0.69732518
vn -0.91190973 -0.34949966 0.21510608
vn 0.42821001 -0.26974475 -0.86248128
vn 0.78443245 0.57525330 0.23183911
vn 0.17172690 -0.20535641 0.96350330
vn -0.84651937 0.45766863 0.27192715
vn 0.96222250 -0.02246121 -0.27133624
vn -0.80172790 -0.41442021 -0.43068347
vn 0.15230278 0.98650452 0.06010577
vn 0.69374361 -0.00259861 0.72021736
vn 0.99750732 0.04172347 -0.05690605
vn 0.21151555 -0.96962420 0.12284168
vn -0.59854052 0.00798724 0.80105272
vn 0.81789550 -0.33468378 -0.46801039
vn 0.53440838 0.01216753 -0.84513883
vn -0.20541580 -0.12509310 -0.97064724
vn -0.96712114 0.06785670 -0.24509624
vn 0.51880924 0.61545408 0.59334076
vn -0.18460631 0.59569994 0.78170461
vn 0.93117062 -0.07602261 0.35656954
vn 0.26720546 -0.00608758 0.96362035
vn 0.95231919 0.01511077 -0.30472909
vn 0.99757361 -0.03200577 -0.06182649
vn -0.51614059 -0.70557967 0.48554734
vn 0.54706893 -0.71745649 0.43124445
vn -0.95678322 -0.00024555 0.29080203
vn 0.74884555 -0.03043089 -0.66204554
vn 0.78560469 -0.58373095 -0.20514250
vn -0.24690361 -0.84918129 -0.46682946
vn 0.61109977 0.35858599 -0.70567213
vn -0.78273189 -0.04562753 -0.62068424
vn 0.30513966 0.19957095 -0.93116122
vn -0.70262423 0.71051919 -0.03849255
vn -0.49409087 0.58979700 0.63875951
vn -0.38485985 -0.12656915 0.91425552
vn 0.99597154 0.03111657 0.08409781
vn 0.60595781 -0.27527249 0.74635125
vn 0.38217135 0.03747536 0.92333128
vn 0.98055929 -0.13344097 -0.14386449
vn 0.97159002 -0.23627284 0.01371051
vn -0.59490301 -0.80120785 -0.06447004
vn 0.14006851 -0.71072085 0.68938863
vn 0.81779133 -0.51375078 0.25937900
vn -0.97473909 -0.19746246 -0.10436609
vn 0.74368241 -0.10084079 -0.66088396
vn 0.31457215 -0.03752784 -0.94849145
vn 0.86202405 0.00625016 -0.50682884
vn 0.34060508 -0.62239603 -0.70470658
vn -0.36339310 -0.40325233 -0.83984106
vn 0.22448638 -0.93851200 -0.26229962
vn 0.77817547 0.45407638 -0.43388659
vn -0.58999798 -0.02068150 -0.80713980
vn -0.75069458 0.21387773 -0.62507117
vn -0.90112884 -0.01124235 -0.43340561
vn 0.49745842 0.06222747 -0.86525306
vn -0.98700282 0.13912902 0.08042731
vn -0.82902362 0.03075416 0.55836728
vn -0.68819110 0.56806507 0.45132592
vn -0.37818799 -0.00136781 0.92572781
vn -0.29261647 -0.42648552 0.85585379
vn -0.83049185 -0.09163355 0.54944206
f 7//7 3//3 4//4
f 12//12 7//7 4//4
f 14//14 3//3 7//7
f 21//21 7//7 12//12
f 22//22 1//1 21//21
f 23//23 21//21 13//13
f 23//23 7//7 21//21
f 24//24 1//1 8//8
f 24//24 13//13 21//21
f 25//25 14//14 10//10
f 25//25 3//3 14//14
f 26//26 10//10 14//14
f 35//35 19//19 4//4
f 35//35 4//4 33//33
f 36//36 12//12 4//4
f 36//36 22//22 21//21
f 36//36 21//21 12//12
f 37//37 16//16 22//22
f 37//37 22//22 36//36
f 38//38 8//8 1//1
f 38//38 1//1 22//22
f 39//39 14//14 7//7
f 39//39 7//7 23//23
f 39//39 26//26 14//14
f 40//40 23//23 13//13
f 40//40 24//24 8//8
f 40//40 13//13 24//24
f 41//41 24//24 21//21
f 41//41 21//21 1//1
f 41//41 1//1 24//24
f 42//42 17//17 10//10
f 42//42 10//10 26//26
f 42//42 31//31 17//17
f 43//43 23//23 2//2
f 43//43 42//42 26//26
f 43//43 31//31 42//42
f 43//43 39//39 23//23
f 43//43 26//26 39//39
f 44//44 27//27 5//5
f 44//44 11//11 32//32
f 44//44 15//15 27//27
f 45//45 27//27 15//15
f 45//45 15//15 28//28
f 45//45 40//40 8//8
f 45//45 28//28 40//40
f 46//46 2//2 23//23
f 46//46 40//40 28//28
f 46//46 23//23 40//40
f 46//46 43//43 2//2
f 46//46 31//31 43//43
f 46//46 28//28 15//15
f 46//46 15//15 31//31
f 47//47 5//5 29//29
f 47//47 44//44 5//5
f 47//47 11//11 44//44
f 47//47 36//36 20//20
f 48//48 17//17 6//6
f 48//48 30//30 10//10
f 48//48 10//10 17//17
f 49//49 18//18 30//30
f 49//49 35//35 18//18
f 49//49 19//19 35//35
f 49//49 6//6 19//19
f 49//49 48//48 6//6
f 49//49 30//30 48//48
f 50//50 25//25 10//10
f 50//50 10//10 30//30
f 50//50 30//30 18//18
f 51//51 6//6 17//17
f 51//51 17//17 31//31
f 52//52 32//32 11//11
f 52//52 51//51 32//32
f 52//52 19//19 6//6
f 52//52 6//6 51//51
f 52//52 34//34 19//19
f 52//52 11//11 34//34
f 53//53 31//31 15//15
f 53//53 44//44 32//32
f 53//53 15//15 44//44
f 53//53 51//51 31//31
f 53//53 32//32 51//51
f 54//54 33//33 4//4
f 54//54 4//4 3//3
f 54//54 3//3 25//25
f 54//54 18//18 33//33
f 54//54 50//50 18//18
f 54//54 25//25 50//50
f 55//55 4//4 19//19
f 55//55 19//19 34//34
f 56//56 55//55 34//34
f 56//56 4//4 55//55
f 56//56 36//36 4//4
f 56//56 20//20 36//36
f 57//57 34//34 11//11
f 57//57 56//56 34//34
f 57//57 20//20 56//56
f 57//57 47//47 20//20
f 57//57 11//11 47//47
f 58//58 35//35 33//33
f 58//58 33//33 18//18
f 58//58 18//18 35//35
f 59//59 29//29 9//9
f 59//59 9//9 36//36
f 59//59 47//47 29//29
f 59//59 36//36 47//47
f 60//60 16//16 37//37
f 60//60 9//9 29//29
f 61//61 37//37 36//36
f 61//61 36//36 9//9
f 61//61 60//60 37//37
f 61//61 9//9 60//60
f 62//62 38//38 22//22
f 62//62 22//22 16//16
f 62//62 16//16 38//38
f 63//63 38//38 27//27
f 63//63 8//8 38//38
f 63//63 45//45 8//8
f 63//63 27//27 45//45
f 64//64 29//29 5//5
f 64//64 5//5 27//27
f 64//64 27//27 38//38
f 64//64 60//60 29//29
f 64//64 38//38 16//16
f 64//64 16//16 60//60

