# https://github.com/mikedh/trimesh
v 0.05740666 -0.00091282 -0.00076646
v 0.05803873 -0.04981441 -0.00076258
v 0.05836859 -0.04984615 -0.00928205
v 0.04487423 0.00547300 -0.00926619
v 0.04098840 0.00536639 0.00029439
v 0.05728384 -0.00091199 -0.00924533
v 0.05762673 -0.00939830 -0.00075265
v 0.04912731 0.00547300 -0.00076003
v 0.04071995 -0.02248165 -0.00987067
v 0.05762659 -0.00730203 -0.00182032
v 0.04912731 0.00547300 -0.00926619
v 0.05019058 -0.04981704 -0.00926619
v 0.05757475 -0.00727700 -0.00488093
v 0.05019058 -0.04981704 -0.00076003
v 0.04111116 -0.02207957 -0.00024064
vn 0.71958734 0.35817425 0.59489938
vn 0.57027088 -0.57911311 0.58259688
vn 0.59372391 -0.57654734 -0.56132440
vn -0.40546705 0.63700111 -0.65561121
vn -0.63107879 0.58510567 0.50930435
vn 0.69858683 0.35620038 -0.62056243
vn 0.72030807 0.01077908 0.69357054
vn 0.29037861 0.77506125 0.56121326
vn -0.73328235 -0.11127138 -0.67075754
vn 0.99954808 0.02608793 0.01493491
vn 0.25080940 0.73075094 -0.63489977
vn -0.46714015 -0.65970743 -0.58869872
vn 0.99938820 0.02589200 -0.02351233
vn -0.46669276 -0.65789442 0.59107766
vn -0.71425995 -0.12483759 0.68865689
f 7//7 2//2 3//3
f 7//7 5//5 2//2
f 7//7 1//1 5//5
f 8//8 5//5 1//1
f 8//8 4//4 5//5
f 9//9 5//5 4//4
f 9//9 6//6 3//3
f 10//10 6//6 1//1
f 10//10 1//1 7//7
f 10//10 7//7 3//3
f 11//11 4//4 8//8
f 11//11 9//9 4//4
f 11//11 6//6 9//9
f 11//11 8//8 1//1
f 11//11 1//1 6//6
f 12//12 9//9 3//3
f 13//13 10//10 3//3
f 13//13 3//3 6//6
f 13//13 6//6 10//10
f 14//14 12//12 3//3
f 14//14 3//3 2//2
f 14//14 2//2 5//5
f 14//14 9//9 12//12
f 15//15 14//14 5//5
f 15//15 5//5 9//9
f 15//15 9//9 14//14

