# https://github.com/mikedh/trimesh
v 0.01267356 0.04615315 0.06355355
v 0.02428488 0.00355816 0.06603802
v 0.02303695 0.04982444 0.00111101
v -0.01087993 0.04002639 0.00108694
v -0.01085660 0.02822988 0.06400337
v 0.02428197 0.00356220 0.00108694
v -0.00036266 0.05030991 0.05199132
v 0.02307314 0.05185887 0.05763567
v 0.00534792 0.04641892 0.06348304
v 0.00750983 0.04777697 0.00105400
v -0.00046159 0.00356220 0.00108694
v -0.01087943 0.04002779 0.06343732
v 0.02432699 0.02958436 0.06419192
v 0.02304266 0.05263733 0.05062275
v 0.00107819 0.05029176 0.05648168
v 0.01110180 0.04748836 0.06333423
v 0.02428197 0.02960805 0.00108694
v -0.00048337 0.04908637 0.03115227
v -0.01087993 0.02830575 0.00108694
v -0.00044968 0.00359214 0.06512161
v 0.02439562 0.02036200 0.06482750
v -0.00032546 0.04909243 0.05874512
v 0.01272917 0.05161894 0.05329769
v 0.01269576 0.04798579 0.06277720
v 0.02313055 0.05043016 0.01684002
v -0.00044460 0.04683481 0.00118623
v -0.00039963 0.01389129 0.06484169
v -0.00039818 0.04479651 0.06316424
v 0.00654639 0.04759792 0.06249456
v 0.00369848 0.05019558 0.05774406
v -0.00002715 0.05027245 0.05568792
v 0.01394160 0.05155536 0.05650506
v 0.01667924 0.04908035 0.00121289
v 0.01265200 0.04902955 0.06129733
v 0.00367231 0.04888078 0.05990125
v 0.01282966 0.05153869 0.05563795
v 0.00882194 0.05016487 0.05880563
vn 0.16160661 0.22142637 0.96169312
vn 0.56507462 -0.56375249 0.60239008
vn 0.52861735 0.60881617 -0.59152901
vn -0.69455171 0.35898584 -0.62347982
vn -0.74160306 -0.12235927 0.65958556
vn 0.57691576 -0.57760302 -0.57753178
vn -0.41618942 0.90927741 -0.00097516
vn 0.61738582 0.66867634 0.41437507
vn -0.11237226 0.43195662 0.89486644
vn -0.06007492 0.45946922 -0.88615972
vn -0.44205152 -0.66587332 -0.60100181
vn -0.70429665 0.34970364 0.61779738
vn 0.72455464 0.09645400 0.68243475
vn 0.63731484 0.77056235 0.00796675
vn -0.15324485 0.95484980 0.25451496
vn -0.00398113 0.53519057 0.84472197
vn 0.71326759 0.02112649 -0.70057334
vn -0.35401919 0.93358431 -0.05559443
vn -0.73233281 -0.14791880 -0.66468690
vn -0.45401989 -0.65650649 0.60238291
vn 0.78149817 0.04413091 0.62234481
vn -0.34467023 0.82012658 0.45672183
vn -0.09592529 0.99521095 0.01880169
vn 0.12106551 0.61841504 0.77647021
vn 0.98343274 0.18098367 -0.01024464
vn -0.26269454 0.69779780 -0.66638563
vn -0.03817816 0.02978358 0.99882699
vn -0.22546024 0.57355014 0.78753281
vn -0.12356806 0.77603540 0.61846584
vn -0.10493341 0.91195863 0.39663640
vn -0.38392103 0.91350685 0.13457297
vn -0.07532596 0.97126612 0.22576121
vn -0.11671502 0.93087370 -0.34619614
vn -0.05520640 0.83972556 0.54019740
vn -0.10562975 0.84336724 0.52685298
vn -0.09113345 0.99332091 0.07076909
vn -0.08375409 0.88173492 0.46425078
f 9//9 2//2 1//1
f 11//11 10//10 6//6
f 11//11 6//6 2//2
f 12//12 7//7 4//4
f 12//12 5//5 2//2
f 12//12 2//2 9//9
f 13//13 8//8 1//1
f 13//13 1//1 2//2
f 14//14 3//3 7//7
f 14//14 8//8 13//13
f 16//16 9//9 1//1
f 17//17 10//10 3//3
f 17//17 6//6 10//10
f 17//17 14//14 13//13
f 18//18 7//7 3//3
f 18//18 4//4 7//7
f 19//19 11//11 5//5
f 19//19 4//4 10//10
f 19//19 10//10 11//11
f 19//19 12//12 4//4
f 19//19 5//5 12//12
f 20//20 11//11 2//2
f 20//20 5//5 11//11
f 21//21 13//13 2//2
f 21//21 2//2 6//6
f 21//21 17//17 13//13
f 21//21 6//6 17//17
f 23//23 14//14 7//7
f 24//24 16//16 1//1
f 24//24 1//1 8//8
f 25//25 17//17 3//3
f 25//25 3//3 14//14
f 25//25 14//14 17//17
f 26//26 10//10 4//4
f 26//26 4//4 18//18
f 27//27 20//20 2//2
f 27//27 2//2 5//5
f 27//27 5//5 20//20
f 28//28 22//22 12//12
f 28//28 12//12 9//9
f 28//28 9//9 22//22
f 29//29 22//22 9//9
f 29//29 9//9 16//16
f 30//30 15//15 22//22
f 31//31 22//22 15//15
f 31//31 7//7 12//12
f 31//31 12//12 22//22
f 31//31 23//23 7//7
f 32//32 8//8 14//14
f 32//32 30//30 8//8
f 32//32 15//15 30//30
f 32//32 31//31 15//15
f 33//33 26//26 18//18
f 33//33 18//18 3//3
f 33//33 3//3 10//10
f 33//33 10//10 26//26
f 34//34 29//29 16//16
f 34//34 16//16 24//24
f 34//34 24//24 8//8
f 35//35 30//30 22//22
f 35//35 22//22 29//29
f 36//36 32//32 14//14
f 36//36 14//14 23//23
f 36//36 23//23 31//31
f 36//36 31//31 32//32
f 37//37 34//34 8//8
f 37//37 8//8 30//30
f 37//37 30//30 35//35
f 37//37 35//35 29//29
f 37//37 29//29 34//34

