# https://github.com/mikedh/trimesh
v 0.03663267 0.04236814 0.06206520
v 0.04506852 0.00331387 0.06163239
v 0.04229283 0.04208915 0.00092964
v 0.02303695 0.04982444 0.00111101
v 0.01191237 0.03000954 0.06351718
v 0.02428197 0.00356220 0.00108694
v 0.03413411 0.05140116 0.05688350
v 0.04219115 0.04085516 0.05551925
v 0.03587211 0.00337416 0.06611942
v 0.04634671 0.00355337 0.00108862
v 0.02297967 0.02960805 0.00108694
v 0.03547185 0.04920816 0.00113572
v 0.01269576 0.04798579 0.06277720
v 0.04236590 0.03441483 0.05972370
v 0.03846657 0.04710482 0.05850479
v 0.04305938 0.00343803 0.06405293
v 0.02428488 0.00355816 0.06603802
v 0.04644889 0.00335140 0.05315078
v 0.01256133 0.04263097 0.03494654
v 0.02802760 0.05295167 0.05068270
v 0.03176091 0.04917928 0.06098089
v 0.02799820 0.04367712 0.06333060
v 0.04103339 0.04329168 0.05784266
v 0.03957296 0.04827024 0.04945762
v 0.03812160 0.03206047 0.06335223
v 0.04240484 0.02931947 0.06098257
v 0.02695010 0.00346357 0.06615424
v 0.01267356 0.04615315 0.06355355
v 0.04344454 0.03068023 0.05913986
v 0.04368512 0.03711638 0.03755834
v 0.01260988 0.05003363 0.03498797
v 0.03063518 0.05033015 0.00643672
v 0.03388568 0.05147264 0.04043112
v 0.02441893 0.05282377 0.05540599
v 0.03514385 0.05053255 0.05856774
v 0.03307826 0.04598748 0.06202326
v 0.03869289 0.04312156 0.06103180
v 0.04004418 0.04653906 0.00116692
v 0.03969832 0.04803023 0.05296478
v 0.04073562 0.00344778 0.06498782
v 0.03674748 0.03455032 0.06342751
v 0.04241893 0.02032674 0.06236033
v 0.03052398 0.04722332 0.06203236
v 0.02953449 0.00611965 0.06610794
v 0.04485435 0.01240825 0.06013461
v 0.04219772 0.03703530 0.05900693
v 0.04502474 0.02168836 0.00112067
v 0.04356387 0.03318812 0.05677602
v 0.01264958 0.05044924 0.05898551
v 0.02826865 0.05036166 0.00632046
v 0.02932436 0.05290367 0.05198872
v 0.03851203 0.04929398 0.05412373
v 0.03303502 0.05165409 0.05790048
v 0.02443755 0.05293236 0.05195098
v 0.04018192 0.03447092 0.06216892
v 0.03509796 0.04844294 0.06073110
v 0.04094414 0.04586303 0.05178674
v 0.03965069 0.04665482 0.05654026
v 0.03923480 0.01377869 0.06461494
v 0.03936212 0.02819192 0.06323619
v 0.02422739 0.04834884 0.06204504
v 0.03200568 0.00597737 0.06606933
v 0.03961589 0.04071696 0.06103017
v 0.04364157 0.03588505 0.00118329
vn 0.28241539 0.21004625 0.93601395
vn 0.70268717 -0.62797493 0.33448202
vn 0.68334927 0.24798163 -0.68668689
vn -0.47890750 0.57402927 -0.66418221
vn -0.80786234 -0.14171157 0.57208065
vn -0.50093166 -0.61322239 -0.61075836
vn 0.38640475 0.91765425 0.09274725
vn 0.96200120 0.24160498 0.12720352
vn 0.08909333 -0.66026566 0.74572893
vn 0.59970501 -0.55769299 -0.57387492
vn -0.60755371 -0.01770790 -0.79408118
vn 0.23450061 0.70304240 -0.67137236
vn -0.61631593 0.49589645 0.61175271
vn 0.80804166 0.17994843 0.56096991
vn 0.69842610 0.52874328 0.48231890
vn 0.47019738 -0.58800793 0.65814976
vn -0.45423631 -0.64663060 0.61281175
vn 0.74875867 -0.66085017 0.05135665
vn -0.98653004 -0.05915310 -0.15251032
vn 0.02727312 0.99923629 -0.02798238
vn 0.10737893 0.61007397 0.78503472
vn 0.08001265 0.18513420 0.97945051
vn 0.86491506 0.34435924 0.36515565
vn 0.77130368 0.63636454 -0.01143709
vn 0.30261401 0.10396424 0.94742609
vn 0.75437841 0.11877291 0.64560531
vn -0.03546568 -0.69054563 0.72241879
vn -0.62271732 0.19701699 0.75723672
vn 0.92401563 0.12374212 0.36177757
vn 0.98216508 0.18777999 0.00950970
vn -0.77645615 0.61600726 -0.13285668
vn 0.08659096 0.99219896 -0.08968406
vn 0.34490093 0.93796509 -0.03556450
vn -0.05476877 0.96906394 0.24065632
vn 0.45113460 0.76669987 0.45678100
vn 0.18961538 0.26262339 0.94608401
vn 0.57377990 0.31034202 0.75793434
vn 0.56773709 0.54230629 -0.61933714
vn 0.82671536 0.55383449 0.09904080
vn 0.24416992 -0.61492846 0.74982934
vn 0.21085057 0.12867237 0.96901262
vn 0.68869008 0.10052722 0.71805309
vn 0.10963087 0.34792875 0.93108896
vn -0.00179574 0.04556452 0.99895978
vn 0.95595054 0.08367100 0.28134982
vn 0.88072823 0.21738340 0.42078764
vn 0.76728180 0.06455799 -0.63805243
vn 0.97954626 0.15123422 0.13273027
vn -0.67219609 0.69786484 0.24725913
vn -0.00456830 0.99653029 -0.08310540
vn 0.14853853 0.98825794 0.03581255
vn 0.64381620 0.75352862 0.13302376
vn 0.18813444 0.90576229 0.37973689
vn -0.10127163 0.99483828 -0.00639128
vn 0.55709638 0.16346555 0.81420061
vn 0.37570518 0.50768496 0.77530742
vn 0.92008631 0.38748971 0.05738395
vn 0.81817588 0.50614790 0.27276828
vn 0.27713318 0.08174638 0.95734776
vn 0.39661110 0.09126147 0.91343909
vn 0.04404378 0.52850490 0.84778695
vn 0.02631431 0.06316053 0.99765641
vn 0.67054668 0.23193417 0.70467985
vn 0.82298045 0.11869527 -0.55553092
f 9//9 6//6 2//2
f 10//10 6//6 3//3
f 10//10 2//2 6//6
f 11//11 4//4 3//3
f 11//11 3//3 6//6
f 12//12 3//3 4//4
f 16//16 9//9 2//2
f 17//17 5//5 6//6
f 18//18 2//2 10//10
f 19//19 11//11 6//6
f 19//19 6//6 5//5
f 19//19 4//4 11//11
f 27//27 17//17 6//6
f 27//27 6//6 9//9
f 28//28 13//13 5//5
f 28//28 5//5 17//17
f 28//28 17//17 27//27
f 29//29 26//26 2//2
f 29//29 14//14 26//26
f 31//31 4//4 19//19
f 31//31 19//19 5//5
f 32//32 12//12 4//4
f 36//36 22//22 1//1
f 37//37 23//23 15//15
f 38//38 3//3 12//12
f 40//40 9//9 16//16
f 41//41 22//22 9//9
f 41//41 1//1 22//22
f 42//42 16//16 2//2
f 42//42 2//2 26//26
f 43//43 28//28 22//22
f 43//43 22//22 36//36
f 44//44 28//28 27//27
f 44//44 27//27 9//9
f 45//45 29//29 2//2
f 45//45 2//2 18//18
f 46//46 14//14 29//29
f 46//46 8//8 23//23
f 47//47 30//30 18//18
f 47//47 18//18 10//10
f 47//47 10//10 3//3
f 48//48 18//18 30//30
f 48//48 45//45 18//18
f 48//48 29//29 45//45
f 48//48 30//30 8//8
f 48//48 46//46 29//29
f 48//48 8//8 46//46
f 49//49 31//31 5//5
f 49//49 5//5 13//13
f 50//50 32//32 4//4
f 50//50 20//20 32//32
f 51//51 7//7 33//33
f 51//51 32//32 20//20
f 51//51 33//33 12//12
f 51//51 12//12 32//32
f 52//52 33//33 7//7
f 52//52 24//24 38//38
f 52//52 38//38 12//12
f 52//52 12//12 33//33
f 52//52 39//39 24//24
f 52//52 7//7 35//35
f 52//52 35//35 15//15
f 53//53 13//13 21//21
f 53//53 21//21 35//35
f 53//53 35//35 7//7
f 53//53 51//51 34//34
f 53//53 7//7 51//51
f 53//53 49//49 13//13
f 53//53 34//34 49//49
f 54//54 4//4 31//31
f 54//54 49//49 34//34
f 54//54 31//31 49//49
f 54//54 50//50 4//4
f 54//54 20//20 50//50
f 54//54 51//51 20//20
f 54//54 34//34 51//51
f 55//55 26//26 14//14
f 55//55 42//42 26//26
f 55//55 16//16 42//42
f 55//55 37//37 1//1
f 55//55 41//41 25//25
f 55//55 1//1 41//41
f 56//56 37//37 15//15
f 56//56 15//15 35//35
f 56//56 35//35 21//21
f 56//56 36//36 1//1
f 56//56 1//1 37//37
f 56//56 43//43 36//36
f 56//56 21//21 43//43
f 57//57 38//38 24//24
f 57//57 3//3 38//38
f 57//57 24//24 39//39
f 57//57 30//30 3//3
f 57//57 8//8 30//30
f 57//57 39//39 23//23
f 57//57 23//23 8//8
f 58//58 15//15 23//23
f 58//58 23//23 39//39
f 58//58 52//52 15//15
f 58//58 39//39 52//52
f 59//59 9//9 40//40
f 59//59 41//41 9//9
f 59//59 25//25 41//41
f 60//60 40//40 16//16
f 60//60 59//59 40//40
f 60//60 25//25 59//59
f 60//60 55//55 25//25
f 60//60 16//16 55//55
f 61//61 43//43 21//21
f 61//61 21//21 13//13
f 61//61 13//13 28//28
f 61//61 28//28 43//43
f 62//62 44//44 9//9
f 62//62 9//9 22//22
f 62//62 22//22 28//28
f 62//62 28//28 44//44
f 63//63 14//14 46//46
f 63//63 55//55 14//14
f 63//63 37//37 55//55
f 63//63 46//46 23//23
f 63//63 23//23 37//37
f 64//64 47//47 3//3
f 64//64 3//3 30//30
f 64//64 30//30 47//47

