# https://github.com/mikedh/trimesh
v -0.03433131 0.00356144 0.06557811
v -0.03277665 -0.04472071 0.06411636
v -0.03562348 0.03872409 0.00108694
v -0.04606959 0.03799587 0.00130217
v -0.04721803 -0.00692013 0.05890127
v -0.03297535 -0.04681097 0.01928210
v -0.04575107 0.04269057 0.04372318
v -0.03301890 -0.02118135 0.01931903
v -0.03996325 -0.02877933 0.06594360
v -0.04570170 -0.02119263 0.00109924
v -0.03562348 0.03872409 0.03494654
v -0.04497207 0.04285447 0.03490448
v -0.04918677 0.02837212 0.05191734
v -0.03290197 -0.03297593 0.06756948
v -0.03432119 0.00356220 0.00108694
v -0.04379305 0.00356623 0.06346323
v -0.04725184 0.00621290 0.00109209
v -0.04456797 -0.03494498 0.05811048
v -0.03562348 0.02830575 0.05187634
v -0.03301890 -0.02118135 0.03624883
v -0.04705911 0.03771373 0.00656209
v -0.04597793 -0.02372647 0.02063435
v -0.03760013 -0.03899701 0.06577576
v -0.03799905 -0.00699366 0.06600743
v -0.03432119 -0.02118135 0.00108694
v -0.04342496 -0.02889404 0.06361735
v -0.04613348 0.00356106 0.06120107
v -0.04040899 0.00347357 0.06487732
v -0.04217195 -0.04119125 0.01926728
v -0.04856398 0.03721025 0.04409193
v -0.04859870 0.03219319 0.00900353
v -0.04724530 -0.00804721 0.05459187
v -0.04597166 -0.02109053 0.00896653
v -0.03422148 -0.03539451 0.06734976
v -0.03840564 -0.04443823 0.06172578
v -0.03430464 -0.00567211 0.06620962
v -0.04247237 -0.02118441 0.06473548
v -0.04582538 -0.02617519 0.05913025
v -0.04116472 -0.03530277 0.06458527
v -0.04712682 0.00367489 0.05907343
v -0.04581331 -0.00824998 0.06152937
v -0.03670857 -0.00568428 0.06608460
v -0.04037530 -0.02383419 0.06595168
v -0.03888049 -0.04493071 0.01924972
v -0.04465315 -0.03507729 0.01933073
v -0.04768191 0.03965676 0.04421762
v -0.04853154 0.02716635 0.01022228
v -0.04847674 0.03585557 0.02066677
v -0.04704328 0.03566627 0.00138766
v -0.04719051 -0.00813421 0.05802438
v -0.04597625 -0.01849928 0.00372847
v -0.03862050 -0.03642202 0.06583301
v -0.03285598 -0.04149133 0.06621543
v -0.03722653 -0.04234718 0.06462671
v -0.04311914 -0.03875132 0.05830693
v -0.03300442 -0.04619662 0.06176907
v -0.04243206 -0.02617021 0.06464229
v -0.04440106 -0.02489806 0.06269145
v -0.04337162 -0.03496228 0.06232150
v -0.04591128 -0.02878890 0.05185245
v -0.04172583 0.00213669 0.06461666
v -0.03419277 -0.03298320 0.06744788
v -0.03646816 -0.04600905 0.01919647
v -0.04065444 -0.04207989 0.06047196
vn 0.61813506 0.23252775 0.75089273
vn 0.57171942 -0.59715035 0.56262630
vn 0.55306401 0.57002308 -0.60761327
vn -0.44358922 0.60722954 -0.65916682
vn -0.96490570 -0.03739306 0.25992066
vn 0.54716313 -0.76098187 -0.34859591
vn -0.19465464 0.89369618 0.40424832
vn 0.99942851 0.01671714 -0.02938027
vn -0.40264550 -0.05374699 0.91377670
vn -0.62784916 -0.27771011 -0.72710558
vn 0.81379810 0.57176500 0.10400688
vn -0.22577615 0.97385348 -0.02518985
vn -0.72062089 0.32635477 0.61171734
vn 0.66485996 0.00155996 0.74696639
vn 0.69981914 0.02079527 -0.71401732
vn -0.53924699 0.15970880 0.82686503
vn -0.69977772 -0.03176560 -0.71365404
vn -0.95612311 -0.25969784 0.13559360
vn 0.67414949 0.43435971 0.59737267
vn 0.99959837 0.02817627 0.00303225
vn -0.85772557 0.50610748 -0.09034416
vn -0.99622557 -0.08518246 -0.01669000
vn -0.39993265 -0.26794605 0.87650373
vn -0.18616301 0.04358102 0.98155185
vn 0.61647418 -0.22892572 -0.75336087
vn -0.75341663 -0.09305161 0.65092609
vn -0.80045763 0.06494422 0.59586058
vn -0.21591608 0.24607983 0.94489416
vn -0.81088811 -0.54337546 -0.21726387
vn -0.96698300 0.23527551 0.09792502
vn -0.99154970 0.09174997 -0.09171228
vn -0.99829986 -0.05822842 0.00261717
vn -0.99616492 -0.08386225 -0.02495131
vn -0.10634435 -0.12832073 0.98601454
vn -0.55452814 -0.75686890 0.34590173
vn 0.15262842 0.06234259 0.98631535
vn -0.60554621 -0.00044701 0.79581002
vn -0.96970009 -0.10115983 0.22237002
vn -0.61601254 -0.22227517 0.75572634
vn -0.93137615 0.01635641 0.36369070
vn -0.80407045 -0.01711936 0.59428751
vn -0.09183961 0.06314956 0.99376940
vn -0.36679486 -0.00044417 0.93030174
vn -0.53641615 -0.77450469 -0.33526141
vn -0.95775140 -0.27402440 -0.08730913
vn -0.83307893 0.47675271 0.28051087
vn -0.99874616 -0.03370156 -0.03701768
vn -0.96996239 0.24189176 -0.02571656
vn -0.71648442 0.14816914 -0.68168613
vn -0.99723282 -0.06321530 0.03912204
vn -0.99759569 -0.05950856 -0.03551862
vn -0.40759181 -0.14438467 0.90167731
vn 0.57156683 -0.30784742 0.76061904
vn -0.44645398 -0.49528083 0.74523536
vn -0.88182937 -0.45041186 0.13966430
vn 0.46424427 -0.85539075 0.22974752
vn -0.59988749 -0.03825050 0.79916950
vn -0.83334449 -0.05059704 0.55043337
vn -0.83794876 -0.26307994 0.47815356
vn -0.99086259 -0.13394180 0.01584054
vn -0.36588909 0.07951260 0.92725558
vn -0.17499468 -0.01069643 0.98451127
vn -0.27561462 -0.87022884 -0.40833608
vn -0.79016271 -0.55195841 0.26642972
f 8//8 2//2 6//6
f 11//11 8//8 3//3
f 12//12 3//3 4//4
f 12//12 11//11 3//3
f 12//12 7//7 11//11
f 15//15 8//8 6//6
f 15//15 3//3 8//8
f 17//17 4//4 3//3
f 19//19 11//11 7//7
f 19//19 1//1 11//11
f 19//19 13//13 1//1
f 19//19 7//7 13//13
f 20//20 11//11 1//1
f 20//20 8//8 11//11
f 20//20 1//1 14//14
f 20//20 14//14 2//2
f 20//20 2//2 8//8
f 21//21 12//12 4//4
f 21//21 7//7 12//12
f 25//25 15//15 6//6
f 25//25 6//6 10//10
f 25//25 10//10 17//17
f 25//25 17//17 3//3
f 25//25 3//3 15//15
f 27//27 16//16 13//13
f 28//28 1//1 13//13
f 28//28 13//13 16//16
f 32//32 13//13 22//22
f 33//33 22//22 13//13
f 36//36 14//14 1//1
f 40//40 27//27 13//13
f 40//40 13//13 5//5
f 40//40 5//5 27//27
f 41//41 27//27 5//5
f 41//41 37//37 16//16
f 41//41 16//16 27//27
f 42//42 28//28 24//24
f 42//42 1//1 28//28
f 42//42 36//36 1//1
f 42//42 14//14 36//36
f 43//43 16//16 37//37
f 44//44 29//29 10//10
f 45//45 10//10 29//29
f 45//45 33//33 10//10
f 45//45 22//22 33//33
f 46//46 30//30 13//13
f 46//46 13//13 7//7
f 46//46 7//7 21//21
f 47//47 31//31 17//17
f 47//47 13//13 31//31
f 47//47 33//33 13//13
f 47//47 17//17 33//33
f 48//48 21//21 31//31
f 48//48 46//46 21//21
f 48//48 30//30 46//46
f 48//48 31//31 13//13
f 48//48 13//13 30//30
f 49//49 31//31 21//21
f 49//49 21//21 4//4
f 49//49 4//4 17//17
f 49//49 17//17 31//31
f 50//50 5//5 13//13
f 50//50 13//13 32//32
f 50//50 38//38 5//5
f 51//51 33//33 17//17
f 51//51 17//17 10//10
f 51//51 10//10 33//33
f 52//52 34//34 9//9
f 52//52 23//23 34//34
f 52//52 39//39 23//23
f 52//52 9//9 39//39
f 53//53 34//34 23//23
f 53//53 2//2 14//14
f 53//53 14//14 34//34
f 54//54 35//35 2//2
f 54//54 23//23 39//39
f 54//54 53//53 23//23
f 54//54 2//2 53//53
f 55//55 45//45 29//29
f 55//55 18//18 45//45
f 56//56 6//6 2//2
f 56//56 2//2 35//35
f 57//57 37//37 26//26
f 57//57 43//43 37//37
f 57//57 9//9 43//43
f 57//57 39//39 9//9
f 57//57 26//26 39//39
f 58//58 5//5 38//38
f 58//58 41//41 5//5
f 58//58 26//26 37//37
f 58//58 37//37 41//41
f 59//59 38//38 18//18
f 59//59 58//58 38//38
f 59//59 26//26 58//58
f 59//59 39//39 26//26
f 59//59 18//18 55//55
f 59//59 54//54 39//39
f 59//59 35//35 54//54
f 60//60 32//32 22//22
f 60//60 22//22 45//45
f 60//60 45//45 18//18
f 60//60 18//18 38//38
f 60//60 50//50 32//32
f 60//60 38//38 50//50
f 61//61 43//43 24//24
f 61//61 24//24 28//28
f 61//61 28//28 16//16
f 61//61 16//16 43//43
f 62//62 43//43 9//9
f 62//62 9//9 34//34
f 62//62 34//34 14//14
f 62//62 24//24 43//43
f 62//62 42//42 24//24
f 62//62 14//14 42//42
f 63//63 44//44 10//10
f 63//63 10//10 6//6
f 63//63 6//6 56//56
f 63//63 56//56 35//35
f 63//63 35//35 44//44
f 64//64 44//44 35//35
f 64//64 29//29 44//44
f 64//64 55//55 29//29
f 64//64 59//59 55//55
f 64//64 35//35 59//59

