# https://github.com/mikedh/trimesh
v 0.01388671 0.03624184 0.06286572
v 0.01389128 0.00619638 0.06233118
v 0.01389369 0.03637903 0.02439852
v 0.00975217 0.04141052 0.02467774
v 0.00338714 0.03627724 0.06287719
v 0.00347535 0.00616585 0.05148620
v 0.01387775 0.04258347 0.05835754
v 0.01390186 0.04170405 0.06038984
v 0.00341968 0.02394962 0.06292948
v 0.01389369 0.00616585 0.05148620
v 0.00972636 0.03637903 0.02439852
v 0.00345242 0.04321773 0.03177543
v 0.01387732 0.04155946 0.02449587
v 0.00329853 0.04361469 0.05748546
v 0.00347291 0.04015780 0.06199269
v 0.00862143 0.02606163 0.06284758
v 0.00346917 0.00618762 0.06245169
v 0.00347535 0.03637903 0.03169136
v 0.00746000 0.04357120 0.03475398
v 0.01377819 0.04003491 0.06188221
v 0.00337110 0.04178025 0.06078191
v 0.00347535 0.02596069 0.03794236
v 0.00342087 0.04361861 0.03397262
v 0.01368518 0.04244397 0.02980105
v 0.00635333 0.04345346 0.05557980
v 0.00760670 0.04142113 0.06103829
v 0.01278959 0.04243804 0.02882164
v 0.00756565 0.04355526 0.03588631
vn 0.67987743 0.08912497 0.72788970
vn 0.58232253 -0.58288769 0.56669429
vn 0.63366623 -0.26885441 -0.72538570
vn -0.33923947 0.53194645 -0.77585408
vn -0.67821096 0.08259454 0.73021095
vn -0.62517201 -0.71094692 -0.32204725
vn 0.68623757 0.70975228 0.15915307
vn 0.68033751 0.59101189 0.43341183
vn -0.69384635 -0.01241282 0.72001608
vn 0.62563470 -0.71273692 -0.31715502
vn -0.36426005 -0.28258556 -0.88738944
vn -0.70279900 0.61625388 -0.35539376
vn 0.57936673 0.52144788 -0.62643938
vn -0.63868052 0.74581899 0.18931779
vn -0.59385846 0.33064685 0.73348809
vn 0.02536352 -0.01619477 0.99954711
vn -0.57445911 -0.58439164 0.57313449
vn -0.91008958 -0.12654600 -0.39461762
vn 0.08102424 0.99517383 -0.05535453
vn 0.60028593 0.36447143 0.71191107
vn -0.64924765 0.56878373 0.50493817
vn -0.90536207 -0.23666138 -0.35257752
vn -0.68102612 0.72837986 -0.07527419
vn 0.64482799 0.76209890 -0.05832779
vn 0.08561889 0.99590764 0.02893749
vn 0.02276771 0.68365623 0.72944897
vn 0.09007756 0.98357452 -0.15641995
vn 0.10587246 0.99436924 0.00456372
f 8//8 1//1 2//2
f 9//9 1//1 5//5
f 10//10 6//6 3//3
f 10//10 8//8 2//2
f 10//10 3//3 8//8
f 11//11 3//3 6//6
f 12//12 4//4 11//11
f 13//13 4//4 12//12
f 13//13 11//11 4//4
f 13//13 3//3 11//11
f 13//13 8//8 3//3
f 13//13 7//7 8//8
f 14//14 8//8 7//7
f 14//14 9//9 5//5
f 15//15 5//5 1//1
f 16//16 9//9 2//2
f 16//16 2//2 1//1
f 16//16 1//1 9//9
f 17//17 2//2 9//9
f 17//17 10//10 2//2
f 17//17 6//6 10//10
f 17//17 14//14 6//6
f 17//17 9//9 14//14
f 18//18 12//12 11//11
f 20//20 15//15 1//1
f 20//20 1//1 8//8
f 21//21 14//14 5//5
f 21//21 5//5 15//15
f 21//21 8//8 14//14
f 22//22 18//18 11//11
f 22//22 11//11 6//6
f 23//23 12//12 18//18
f 23//23 14//14 19//19
f 23//23 18//18 22//22
f 23//23 22//22 6//6
f 23//23 6//6 14//14
f 24//24 19//19 7//7
f 24//24 7//7 13//13
f 25//25 14//14 7//7
f 26//26 20//20 8//8
f 26//26 8//8 21//21
f 26//26 21//21 15//15
f 26//26 15//15 20//20
f 27//27 23//23 19//19
f 27//27 13//13 12//12
f 27//27 12//12 23//23
f 27//27 24//24 13//13
f 27//27 19//19 24//24
f 28//28 25//25 7//7
f 28//28 7//7 19//19
f 28//28 19//19 14//14
f 28//28 14//14 25//25

