# https://github.com/mikedh/trimesh
v 0.04453289 0.02694329 0.00110690
v 0.04665823 0.00083737 0.00111197
v 0.04500113 0.02560483 -0.05728909
v 0.03718019 0.02568232 -0.06479916
v 0.03730489 0.00095762 0.00108694
v 0.04277945 0.00078665 -0.06421888
v 0.04457060 0.02691808 -0.03148630
v 0.04631059 0.00995181 -0.05233073
v 0.04502474 0.02168836 0.00112067
v 0.03730489 0.02700346 0.00108694
v 0.04174332 0.02568456 -0.06304598
v 0.03724462 0.00090468 -0.06621427
v 0.04671864 0.00088797 -0.05969706
v 0.03730489 0.02700346 -0.03147037
v 0.04084473 0.00086997 -0.06538561
v 0.04402922 0.02564386 -0.06046397
v 0.04631313 0.00995387 -0.05354371
v 0.03937440 0.02566750 -0.06411628
v 0.03838467 0.01390998 -0.06521785
v 0.04481212 0.02299188 -0.05966134
v 0.04498966 0.00735554 -0.06152746
v 0.04525924 0.00094783 -0.06175232
v 0.04381788 0.00858868 -0.06270626
v 0.04367457 0.02162544 -0.06152611
v 0.04282467 0.00600841 -0.06380827
vn 0.54717658 0.59929299 0.58433356
vn 0.59566390 -0.56043942 0.57540609
vn 0.75942000 0.64257286 -0.10188906
vn -0.49749678 0.57152443 -0.65257703
vn -0.58101147 -0.57319993 0.57781270
vn 0.45033644 -0.66808409 -0.59233499
vn 0.59309783 0.80503610 -0.01232215
vn 0.99766384 0.06823481 0.00329658
vn 0.70232776 0.06122109 0.70921625
vn -0.57549489 0.58037105 0.57617278
vn 0.42796355 0.67911027 -0.59636939
vn -0.51272383 -0.54480233 -0.66355459
vn 0.75426780 -0.61162883 -0.23872633
vn -0.66415195 0.74747049 -0.01378637
vn 0.28478178 -0.61690781 -0.73370572
vn 0.62955405 0.68173955 -0.37268336
vn 0.99767826 0.06652230 -0.01459042
vn 0.25937327 0.68018767 -0.68561669
vn 0.23240804 0.05818709 -0.97087629
vn 0.92366574 0.10090622 -0.36967491
vn 0.79148634 0.06529907 -0.60768858
vn 0.65973278 -0.51324360 -0.54893867
vn 0.70313145 0.06327103 -0.70823932
vn 0.76721032 0.07835762 -0.63659125
vn 0.60717253 0.05809440 -0.79244341
f 6//6 2//2 5//5
f 7//7 1//1 3//3
f 9//9 5//5 2//2
f 9//9 2//2 8//8
f 9//9 8//8 3//3
f 9//9 3//3 1//1
f 10//10 4//4 5//5
f 10//10 9//9 1//1
f 10//10 5//5 9//9
f 11//11 4//4 7//7
f 12//12 6//6 5//5
f 12//12 5//5 4//4
f 13//13 2//2 6//6
f 14//14 7//7 4//4
f 14//14 4//4 10//10
f 14//14 10//10 1//1
f 14//14 1//1 7//7
f 15//15 11//11 6//6
f 15//15 6//6 12//12
f 16//16 11//11 7//7
f 16//16 7//7 3//3
f 17//17 13//13 3//3
f 17//17 3//3 8//8
f 17//17 8//8 2//2
f 17//17 2//2 13//13
f 18//18 15//15 4//4
f 18//18 4//4 11//11
f 18//18 11//11 15//15
f 19//19 15//15 12//12
f 19//19 12//12 4//4
f 19//19 4//4 15//15
f 20//20 16//16 3//3
f 20//20 3//3 13//13
f 21//21 20//20 13//13
f 21//21 16//16 20//20
f 22//22 21//21 13//13
f 22//22 13//13 6//6
f 23//23 22//22 6//6
f 23//23 21//21 22//22
f 24//24 11//11 16//16
f 24//24 16//16 21//21
f 24//24 23//23 11//11
f 24//24 21//21 23//23
f 25//25 23//23 6//6
f 25//25 6//6 11//11
f 25//25 11//11 23//23

