# https://github.com/mikedh/trimesh
v 0.02688544 -0.01989220 0.06728915
v 0.04825730 -0.03006343 0.05312774
v 0.03990947 -0.02248365 -0.04970246
v -0.04045861 -0.02366226 -0.06643780
v -0.03274083 -0.04570334 0.06261604
v 0.00214300 -0.01987906 0.00108694
v 0.03990947 -0.01987906 0.01931903
v 0.03795099 -0.03805298 0.06508022
v -0.03430500 -0.02119742 0.06692251
v -0.01918910 -0.04966311 -0.06056777
v 0.02688994 -0.02248099 -0.06654378
v 0.04845471 -0.03019140 0.01931481
v 0.03983161 -0.03026525 0.06673852
v -0.04601171 -0.02634429 0.01673340
v -0.04570170 -0.02119263 0.00109924
v 0.00215683 -0.01991103 0.06709893
v 0.03428296 -0.04184557 0.05811130
v 0.00207180 -0.02257648 -0.06658059
v -0.03174022 -0.04438666 -0.06643986
v 0.04184778 -0.04313328 -0.06299148
v 0.03990947 -0.01987906 0.00108694
v 0.03922682 -0.03622207 0.06591731
v -0.03291844 -0.03669596 0.06733883
v -0.04251900 -0.02365227 -0.06530761
v -0.04607867 -0.02112627 0.01933110
v 0.00609695 -0.02002214 0.06738017
v -0.00576320 -0.04446410 0.06302125
v 0.04170739 -0.03949873 0.05330767
v 0.03723066 -0.03411117 -0.06662883
v -0.03522244 -0.04964079 -0.05732594
v 0.03552400 -0.04453800 -0.06436123
v 0.04776483 -0.03384119 -0.05959045
v 0.04914054 -0.03379496 -0.03937045
v 0.02156905 -0.03511898 0.06737081
v -0.03419277 -0.03298320 0.06744788
v -0.04598251 -0.02641762 -0.05222976
v -0.03958780 -0.04291084 -0.06513848
v -0.04598303 -0.02111413 0.01021799
v 0.01901198 -0.01996115 0.06741532
v 0.03671360 -0.04030905 0.06188619
v -0.01491117 -0.04573815 0.06067680
v -0.03150993 -0.04265675 0.06590562
v 0.03928084 -0.03909866 0.06308926
v 0.03671993 -0.04580304 -0.04962868
v -0.03282207 -0.04856586 -0.06387017
v 0.03970843 -0.04245257 -0.06515477
v 0.04551223 -0.03416164 -0.06380748
v 0.04902551 -0.03392483 -0.04422231
v 0.04654605 -0.03925571 -0.01611523
v 0.02556084 -0.02771084 0.06744189
v 0.00171964 -0.04072605 0.06601236
v -0.04465315 -0.03507729 0.01933073
v -0.03301696 -0.04382060 0.06513265
v -0.03288743 -0.03038055 0.06741566
v -0.04597789 -0.02374639 -0.05353969
v -0.04255569 -0.03555804 -0.06517319
v 0.03789324 -0.03923555 0.06367925
v -0.03035885 -0.04573698 0.06274316
v 0.00172419 -0.04443736 0.06045333
v -0.03431292 -0.04968217 -0.03172965
v 0.00477540 -0.03782275 0.06726720
v 0.03937281 -0.04032863 0.05799089
v 0.04629123 -0.03479726 0.05307481
v 0.03691784 -0.04575102 -0.06088017
vn 0.19245852 0.71584515 0.67121192
vn 0.93025659 0.26685179 0.25181897
vn 0.47764822 0.86731445 -0.14006366
vn -0.20163782 0.62456811 -0.75449113
vn -0.49388713 -0.81906027 0.29191743
vn -0.01336552 0.99972001 -0.01952610
vn 0.42598565 0.90461816 0.01422038
vn 0.22066195 -0.62281754 0.75060417
vn -0.51544930 0.59114327 0.62037218
vn 0.04116920 -0.97165275 -0.23280043
vn 0.14046792 0.69723497 -0.70294535
vn 0.92203568 0.38710488 0.00010962
vn 0.56252073 0.22088010 0.79673233
vn -0.99386506 -0.08807359 0.06689757
vn -0.40470409 0.91401160 -0.02823817
vn -0.02356191 0.92956676 0.36790009
vn 0.17215371 -0.97219313 0.15875649
vn -0.01155776 0.69419241 -0.71969668
vn -0.07757702 -0.28817079 -0.95443145
vn 0.63198424 -0.67571634 -0.37947773
vn 0.43756160 0.89887517 -0.02373337
vn 0.49802158 -0.34492226 0.79561495
vn -0.28945220 -0.18009118 0.94009818
vn -0.61218207 0.61149118 -0.50130993
vn -0.75474651 0.64793749 0.10263879
vn -0.00562819 0.53857903 0.84255620
vn 0.06485289 -0.86219845 0.50240216
vn 0.58583270 -0.80486920 0.09479252
vn 0.18923118 0.04431811 -0.98093194
vn -0.46844164 -0.87899566 -0.08904527
vn 0.11083293 -0.73130353 -0.67298678
vn 0.94835680 0.13849174 -0.28537592
vn 0.99548495 0.09225907 -0.02231533
vn 0.03503104 -0.18934397 0.98128573
vn -0.63195005 -0.06213919 0.77251398
vn -0.98611328 -0.15373832 -0.06281021
vn -0.65546646 -0.43266683 -0.61900172
vn -0.62654561 0.77933618 -0.00870087
vn 0.00057477 0.58410586 0.81167728
vn 0.20036394 -0.92186021 0.33170474
vn 0.04519817 -0.98302133 0.17783755
vn -0.07463826 -0.39771399 0.91446854
vn 0.56938784 -0.70953743 0.41515553
vn 0.28777591 -0.95751638 0.01863916
vn -0.21501015 -0.79838108 -0.56245736
vn 0.31247779 -0.44692209 -0.83822329
vn 0.70497209 0.18524810 -0.68461485
vn 0.99823472 0.02872402 -0.05198445
vn 0.75671283 -0.65327897 0.02474416
vn 0.02821267 -0.00593244 0.99958434
vn 0.04801391 -0.56881961 0.82105963
vn -0.91884501 -0.38386069 0.09151404
vn -0.56804686 -0.52489693 0.63388167
vn -0.02923308 0.03469150 0.99897043
vn -0.79719235 0.58971555 -0.12930559
vn -0.74638976 -0.21095720 -0.63118886
vn 0.20465552 -0.82104685 0.53291481
vn 0.00413805 -0.93144546 0.36385742
vn 0.08758725 -0.98419640 0.15390234
vn -0.39836576 -0.91674123 0.02983695
vn 0.02496981 -0.25035464 0.96783215
vn 0.45624045 -0.87738699 0.14844770
vn 0.83647289 -0.51131104 0.19716524
vn 0.25329937 -0.95203843 -0.17164575
f 7//7 1//1 2//2
f 7//7 6//6 1//1
f 12//12 7//7 2//2
f 13//13 2//2 1//1
f 16//16 1//1 6//6
f 18//18 6//6 11//11
f 19//19 4//4 18//18
f 21//21 3//3 11//11
f 21//21 7//7 12//12
f 21//21 11//11 6//6
f 21//21 6//6 7//7
f 22//22 2//2 13//13
f 24//24 15//15 6//6
f 24//24 18//18 4//4
f 24//24 6//6 18//18
f 25//25 9//9 16//16
f 26//26 16//16 9//9
f 29//29 19//19 18//18
f 29//29 18//18 11//11
f 33//33 21//21 12//12
f 33//33 3//3 21//21
f 33//33 12//12 2//2
f 34//34 22//22 13//13
f 35//35 9//9 25//25
f 35//35 23//23 34//34
f 36//36 14//14 25//25
f 38//38 6//6 15//15
f 38//38 25//25 16//16
f 38//38 16//16 6//6
f 39//39 1//1 16//16
f 39//39 16//16 26//26
f 40//40 27//27 17//17
f 43//43 22//22 8//8
f 44//44 41//41 10//10
f 45//45 10//10 30//30
f 45//45 31//31 10//10
f 45//45 19//19 31//31
f 45//45 37//37 19//19
f 45//45 30//30 37//37
f 46//46 20//20 31//31
f 46//46 31//31 19//19
f 46//46 19//19 29//29
f 47//47 29//29 11//11
f 47//47 11//11 3//3
f 47//47 3//3 32//32
f 47//47 46//46 29//29
f 47//47 32//32 20//20
f 47//47 20//20 46//46
f 48//48 32//32 3//3
f 48//48 3//3 33//33
f 48//48 20//20 32//32
f 49//49 48//48 33//33
f 49//49 20//20 48//48
f 49//49 44//44 20//20
f 49//49 28//28 44//44
f 49//49 33//33 2//2
f 50//50 34//34 13//13
f 50//50 13//13 1//1
f 50//50 1//1 39//39
f 50//50 39//39 35//35
f 50//50 35//35 34//34
f 51//51 8//8 22//22
f 51//51 27//27 8//8
f 52//52 14//14 36//36
f 52//52 37//37 30//30
f 52//52 35//35 25//25
f 52//52 25//25 14//14
f 53//53 23//23 35//35
f 53//53 42//42 23//23
f 53//53 51//51 42//42
f 53//53 27//27 51//51
f 53//53 52//52 5//5
f 53//53 35//35 52//52
f 54//54 26//26 9//9
f 54//54 9//9 35//35
f 54//54 39//39 26//26
f 54//54 35//35 39//39
f 55//55 15//15 24//24
f 55//55 38//38 15//15
f 55//55 36//36 25//25
f 55//55 25//25 38//38
f 56//56 24//24 4//4
f 56//56 4//4 19//19
f 56//56 19//19 37//37
f 56//56 55//55 24//24
f 56//56 36//36 55//55
f 56//56 52//52 36//36
f 56//56 37//37 52//52
f 57//57 8//8 27//27
f 57//57 27//27 40//40
f 57//57 43//43 8//8
f 57//57 40//40 43//43
f 58//58 41//41 27//27
f 58//58 53//53 5//5
f 58//58 27//27 53//53
f 59//59 17//17 27//27
f 59//59 27//27 41//41
f 59//59 44//44 17//17
f 59//59 41//41 44//44
f 60//60 30//30 10//10
f 60//60 10//10 41//41
f 60//60 41//41 58//58
f 60//60 58//58 5//5
f 60//60 52//52 30//30
f 60//60 5//5 52//52
f 61//61 34//34 23//23
f 61//61 23//23 42//42
f 61//61 42//42 51//51
f 61//61 51//51 22//22
f 61//61 22//22 34//34
f 62//62 43//43 40//40
f 62//62 40//40 17//17
f 62//62 28//28 43//43
f 62//62 44//44 28//28
f 62//62 17//17 44//44
f 63//63 43//43 28//28
f 63//63 2//2 22//22
f 63//63 22//22 43//43
f 63//63 49//49 2//2
f 63//63 28//28 49//49
f 64//64 31//31 20//20
f 64//64 20//20 44//44
f 64//64 44//44 10//10
f 64//64 10//10 31//31

