# https://github.com/mikedh/trimesh
v 0.03960569 0.00348920 0.06542718
v 0.04880983 -0.02622295 0.05561869
v 0.04749963 -0.00065688 -0.05617685
v 0.02690487 0.00094307 -0.06601115
v 0.02688286 -0.03029490 0.06742795
v 0.04636553 0.00340072 0.00111775
v 0.04178787 -0.03355672 0.06581399
v 0.02688655 0.00356220 0.05317863
v 0.04627996 0.00077919 -0.06033716
v 0.04619276 0.00330463 0.05796222
v 0.04191974 -0.01470221 0.06601832
v 0.04733000 -0.03371595 -0.06070982
v 0.02692574 -0.00693256 0.06653658
v 0.02679377 -0.04519304 0.00094531
v 0.02688655 0.00356220 0.00108694
v 0.04084473 0.00086997 -0.06538561
v 0.04897067 -0.01607526 0.05445386
v 0.04757809 -0.00055086 -0.04835695
v 0.03938360 -0.03505454 0.06628168
v 0.04370529 0.00202081 0.06360828
v 0.04622005 -0.02600958 0.06378817
v 0.04546244 -0.03957466 0.00116934
v 0.04884437 -0.01867151 -0.05844142
v 0.04070314 -0.00680151 0.06597909
v 0.02688561 -0.03418645 -0.06649143
v 0.04406611 -0.01361193 -0.06517626
v 0.04755201 -0.00578380 0.05682730
v 0.04273258 -0.02874474 0.06598941
v 0.03948799 -0.03935622 0.06198305
v 0.04506852 0.00331387 0.06163239
v 0.04610052 -0.03253997 0.06122808
v 0.04566353 -0.02011205 0.06452899
v 0.04890673 -0.01993071 0.05826490
v 0.04886498 -0.03379750 -0.05091047
v 0.03680273 -0.04432252 -0.01300145
v 0.04744143 -0.00300260 -0.05824848
v 0.04886755 -0.01228120 -0.05611463
v 0.04277138 -0.00050687 0.06466532
v 0.02686533 -0.03157293 -0.06660482
v 0.04277945 0.00078665 -0.06421888
v 0.03963486 -0.03416290 -0.06648847
v 0.04745855 -0.02389480 -0.06205417
v 0.04301500 -0.03458890 0.06489139
v 0.03925183 -0.03732205 0.06521322
v 0.04186555 0.00340635 0.06454845
v 0.04382684 -0.03817474 0.05794752
v 0.04735898 -0.03231720 0.05426757
v 0.04516099 -0.02359481 0.06477470
v 0.04328534 -0.02403080 0.06588139
v 0.04636839 -0.01634485 0.06362595
v 0.04749635 -0.00816106 0.05926211
v 0.04742612 -0.02585886 0.06163105
v 0.04870842 -0.03227535 -0.05841945
v 0.04885468 -0.02751127 0.05053861
v 0.04420694 -0.04088726 -0.01475151
v 0.02687512 -0.04518776 -0.01455992
v 0.03682517 -0.04434204 -0.00827001
v 0.04504090 -0.01226334 -0.06412846
v 0.03088527 -0.03417423 -0.06652665
v 0.04085877 -0.01474566 -0.06651709
v 0.04551223 -0.03416164 -0.06380748
v 0.04616593 -0.01485734 -0.06323473
v 0.04401911 -0.03136934 0.06466894
v 0.04478520 -0.03111073 0.06381999
vn 0.01608195 0.70821316 0.70581547
vn 0.98332738 -0.13968326 0.11642961
vn 0.93384687 0.34898807 -0.07834119
vn -0.57175446 0.57566266 -0.58455911
vn -0.65256189 -0.32653583 0.68376701
vn 0.60904438 0.79306605 -0.01054434
vn 0.37759462 -0.17748221 0.90880271
vn -0.69648285 0.70667598 0.12458214
vn 0.65160037 0.67903772 -0.33811941
vn 0.68885172 0.71711353 0.10597874
vn 0.26335578 0.03595958 0.96402834
vn 0.75972468 -0.56410386 -0.32342735
vn -0.67758114 0.21084308 0.70457717
vn -0.65350638 -0.75564984 0.04384898
vn -0.69922337 0.71476383 -0.01411933
vn 0.21404219 0.67549416 -0.70561574
vn 0.99650707 0.07010629 0.04537363
vn 0.95730805 0.28895283 -0.00821911
vn 0.15078351 -0.27750693 0.94881728
vn 0.66282176 0.20646354 0.71975004
vn 0.75998702 -0.10205214 0.64187622
vn 0.74306683 -0.66865926 0.02732174
vn 0.97212951 0.03208700 -0.23223832
vn 0.21435112 0.05562241 0.97517165
vn -0.59047607 -0.52442452 -0.61344677
vn 0.53851773 0.04017438 -0.84165591
vn 0.98836438 0.13151221 0.07642244
vn 0.35540090 -0.05702634 0.93297277
vn 0.04718840 -0.93518394 0.35100463
vn 0.62381721 0.70016026 0.34731498
vn 0.87478266 -0.34410627 0.34109556
vn 0.62785587 0.02207397 0.77801655
vn 0.97571952 0.00864769 0.21885301
vn 0.88000455 -0.47158502 -0.05656469
vn 0.24841728 -0.96612809 -0.06989542
vn 0.95920153 0.11439069 -0.25854826
vn 0.99133422 0.06927393 -0.11161359
vn 0.48741455 0.09595904 0.86788186
vn -0.70160668 -0.01123377 -0.71247587
vn 0.47625151 0.67314782 -0.56573538
vn 0.16735110 -0.59994086 -0.78234556
vn 0.83103057 -0.00317026 -0.55621771
vn 0.62365031 -0.42433953 0.65650304
vn 0.09630736 -0.71293713 0.69458299
vn 0.34446956 0.71844782 0.60429583
vn 0.64754167 -0.74239213 0.17188287
vn 0.92524081 -0.36975674 0.08490822
vn 0.57149393 -0.03718979 0.81976314
vn 0.33891431 -0.00516596 0.94080306
vn 0.78732944 0.06906182 0.61265228
vn 0.95416467 0.10778476 0.27919927
vn 0.92078072 -0.11589494 0.37246641
vn 0.94312057 -0.24910191 -0.22016320
vn 0.98836911 -0.15057942 0.02126834
vn 0.60981986 -0.79162243 -0.03812701
vn -0.64093315 -0.76352137 -0.07899250
vn 0.27107255 -0.96234141 0.02046197
vn 0.71133045 0.09966360 -0.69575582
vn 0.00234633 -0.63853670 -0.76958780
vn 0.19971056 0.01876173 -0.97967530
vn 0.53804348 -0.59539365 -0.59667044
vn 0.79785051 0.05124839 -0.60067309
vn 0.63258565 -0.14185606 0.76138837
vn 0.79627487 -0.22540668 0.56137167
f 9//9 6//6 3//3
f 10//10 6//6 1//1
f 13//13 8//8 5//5
f 13//13 1//1 8//8
f 14//14 5//5 8//8
f 15//15 14//14 8//8
f 15//15 4//4 14//14
f 15//15 8//8 1//1
f 15//15 1//1 6//6
f 16//16 6//6 9//9
f 16//16 15//15 6//6
f 16//16 4//4 15//15
f 18//18 3//3 6//6
f 18//18 6//6 10//10
f 24//24 1//1 13//13
f 24//24 13//13 5//5
f 24//24 5//5 11//11
f 27//27 18//18 10//10
f 27//27 17//17 18//18
f 28//28 11//11 5//5
f 28//28 5//5 19//19
f 28//28 19//19 7//7
f 29//29 5//5 14//14
f 30//30 10//10 1//1
f 33//33 17//17 27//27
f 36//36 23//23 9//9
f 36//36 9//9 3//3
f 37//37 18//18 17//17
f 37//37 34//34 23//23
f 37//37 17//17 34//34
f 37//37 3//3 18//18
f 37//37 36//36 3//3
f 37//37 23//23 36//36
f 38//38 1//1 24//24
f 38//38 24//24 11//11
f 38//38 11//11 32//32
f 39//39 25//25 14//14
f 39//39 14//14 4//4
f 40//40 26//26 16//16
f 40//40 16//16 9//9
f 43//43 28//28 7//7
f 43//43 7//7 19//19
f 44//44 19//19 5//5
f 44//44 5//5 29//29
f 44//44 43//43 19//19
f 44//44 29//29 43//43
f 45//45 30//30 1//1
f 45//45 20//20 30//30
f 45//45 38//38 20//20
f 45//45 1//1 38//38
f 46//46 43//43 29//29
f 46//46 31//31 43//43
f 47//47 2//2 31//31
f 47//47 22//22 34//34
f 47//47 46//46 22//22
f 47//47 31//31 46//46
f 48//48 28//28 21//21
f 48//48 21//21 32//32
f 49//49 32//32 11//11
f 49//49 11//11 28//28
f 49//49 48//48 32//32
f 49//49 28//28 48//48
f 50//50 30//30 20//20
f 50//50 38//38 32//32
f 50//50 20//20 38//38
f 50//50 32//32 21//21
f 51//51 33//33 27//27
f 51//51 27//27 10//10
f 51//51 10//10 30//30
f 51//51 50//50 33//33
f 51//51 30//30 50//50
f 52//52 31//31 2//2
f 52//52 2//2 33//33
f 52//52 21//21 31//31
f 52//52 50//50 21//21
f 52//52 33//33 50//50
f 53//53 34//34 12//12
f 53//53 23//23 34//34
f 53//53 42//42 23//23
f 53//53 12//12 42//42
f 54//54 33//33 2//2
f 54//54 47//47 34//34
f 54//54 2//2 47//47
f 54//54 34//34 17//17
f 54//54 17//17 33//33
f 55//55 34//34 22//22
f 55//55 22//22 46//46
f 55//55 12//12 34//34
f 56//56 14//14 25//25
f 57//57 29//29 14//14
f 57//57 56//56 35//35
f 57//57 14//14 56//56
f 57//57 46//46 29//29
f 57//57 55//55 46//46
f 57//57 35//35 55//55
f 58//58 40//40 9//9
f 58//58 26//26 40//40
f 59//59 25//25 39//39
f 59//59 39//39 41//41
f 59//59 56//56 25//25
f 59//59 41//41 56//56
f 60//60 16//16 26//26
f 60//60 26//26 41//41
f 60//60 4//4 16//16
f 60//60 41//41 39//39
f 60//60 39//39 4//4
f 61//61 56//56 41//41
f 61//61 35//35 56//56
f 61//61 55//55 35//35
f 61//61 12//12 55//55
f 61//61 42//42 12//12
f 61//61 41//41 26//26
f 61//61 26//26 42//42
f 62//62 9//9 23//23
f 62//62 23//23 42//42
f 62//62 58//58 9//9
f 62//62 42//42 26//26
f 62//62 26//26 58//58
f 63//63 43//43 21//21
f 63//63 21//21 28//28
f 63//63 28//28 43//43
f 64//64 43//43 31//31
f 64//64 31//31 21//21
f 64//64 21//21 43//43

