# https://github.com/mikedh/trimesh
v 0.03716314 0.00335794 0.06599994
v 0.03971642 -0.00691950 0.06620655
v 0.02688655 0.00356220 0.00108694
v -0.03432119 0.00356220 0.00108694
v -0.04247237 -0.02118441 0.06473548
v -0.03433131 0.00356144 0.06557811
v 0.03990947 0.00356220 0.05317863
v 0.02688655 -0.01987906 0.00108694
v -0.04734663 -0.00802877 0.05704393
v 0.00216086 -0.02120879 0.06719546
v 0.03960569 0.00348920 0.06542718
v 0.03990947 -0.00685614 0.05317863
v -0.03432119 -0.02118135 0.00108694
v -0.04256044 -0.00812863 0.06460895
v -0.04034620 -0.02109085 0.06594584
v 0.02688544 -0.01989220 0.06728915
v 0.03931378 0.00071774 0.06581174
v 0.02565068 0.00345912 0.06609338
v -0.04733557 -0.00807011 0.05587552
v 0.00214300 -0.02118135 0.00108694
v -0.04581331 -0.00824998 0.06152937
v -0.03897274 -0.00827734 0.06605755
v -0.04039358 -0.01209548 0.06594523
v -0.03430222 -0.00432829 0.06609188
v -0.04625366 -0.02114660 0.05325873
v -0.04580150 -0.02097656 0.06047161
v -0.04575684 -0.01455772 0.06141291
v -0.04465307 -0.02110620 0.06267596
vn 0.07116314 0.60557538 0.79259969
vn 0.73367650 -0.27581594 0.62100271
vn 0.49628295 0.59133825 -0.63562749
vn -0.50733196 0.59494814 -0.62341880
vn -0.43564062 -0.68203200 0.58740923
vn -0.30569676 0.72519631 0.61696013
vn 0.72908658 0.67962562 -0.08088130
vn 0.51960140 -0.58150778 -0.62598968
vn -0.92868784 0.34974500 0.12335856
vn 0.01250345 -0.69473066 0.71916130
vn 0.62241072 0.61805424 0.48022271
vn 0.93519649 -0.34670851 -0.07211607
vn -0.50070643 -0.59067496 -0.63276865
vn -0.56894099 0.18616230 0.80103043
vn -0.20241383 -0.62505366 0.75388100
vn 0.31810146 -0.68544881 0.65495908
vn 0.32365653 0.07229453 0.94340869
vn 0.00125434 0.69927617 0.71485052
vn -0.94973423 0.30280904 -0.07944543
vn 0.01873482 -0.71253365 -0.70138778
vn -0.82488618 0.27402850 0.49444025
vn -0.20397367 0.08370681 0.97539116
vn -0.30752220 0.01777007 0.95137496
vn -0.03199249 0.04845023 0.99831311
vn -0.71359800 -0.69692430 -0.07123496
vn -0.75347284 -0.62279730 0.21071829
vn -0.89030543 -0.02769810 0.45452069
vn -0.59679214 -0.66397595 0.45052756
f 7//7 3//3 4//4
f 7//7 4//4 6//6
f 8//8 3//3 7//7
f 8//8 4//4 3//3
f 9//9 6//6 4//4
f 11//11 2//2 7//7
f 11//11 7//7 6//6
f 12//12 8//8 7//7
f 12//12 7//7 2//2
f 13//13 4//4 8//8
f 13//13 10//10 5//5
f 15//15 5//5 10//10
f 16//16 2//2 1//1
f 16//16 10//10 8//8
f 16//16 12//12 2//2
f 16//16 8//8 12//12
f 17//17 11//11 1//1
f 17//17 1//1 2//2
f 17//17 2//2 11//11
f 18//18 11//11 6//6
f 18//18 1//1 11//11
f 18//18 16//16 1//1
f 18//18 10//10 16//16
f 19//19 9//9 4//4
f 19//19 4//4 13//13
f 20//20 13//13 8//8
f 20//20 8//8 10//10
f 20//20 10//10 13//13
f 21//21 14//14 6//6
f 21//21 6//6 9//9
f 22//22 15//15 10//10
f 22//22 6//6 14//14
f 23//23 14//14 5//5
f 23//23 5//5 15//15
f 23//23 22//22 14//14
f 23//23 15//15 22//22
f 24//24 18//18 6//6
f 24//24 10//10 18//18
f 24//24 22//22 10//10
f 24//24 6//6 22//22
f 25//25 19//19 13//13
f 25//25 13//13 5//5
f 25//25 9//9 19//19
f 26//26 9//9 25//25
f 27//27 21//21 9//9
f 27//27 9//9 26//26
f 28//28 26//26 25//25
f 28//28 25//25 5//5
f 28//28 27//27 26//26
f 28//28 21//21 27//27
f 28//28 5//5 14//14
f 28//28 14//14 21//21

