# https://github.com/mikedh/trimesh
v -0.00023104 0.04349093 0.06360106
v -0.00044968 0.00359214 0.06512161
v -0.00046159 0.00356220 0.00108694
v -0.04572841 0.03854502 0.00113986
v -0.04831521 0.03210864 0.05909901
v -0.00044460 0.04683481 0.00118623
v -0.03932450 0.02292839 0.06471727
v -0.03932072 0.04762271 0.05561218
v -0.00951274 0.04648664 0.00105521
v -0.03046816 0.02296662 0.06478705
v -0.04771176 0.00364326 0.05194750
v -0.04708397 0.04085414 0.05797853
v -0.00032546 0.04909243 0.05874512
v -0.03562348 0.00356220 0.00108694
v -0.02382205 0.04902361 0.04674051
v -0.03550060 0.04637485 0.00653487
v -0.04040899 0.00347357 0.06487732
v -0.00039963 0.01389129 0.06484169
v -0.03162976 0.04227560 0.06351421
v -0.04767980 0.03814257 0.01539441
v -0.04370788 0.03720131 0.06208202
v -0.04623189 0.03808860 0.00257705
v -0.00048337 0.04908637 0.03115227
v -0.02642375 0.04908201 0.05564584
v -0.03758470 0.04484714 0.00141878
v -0.04613348 0.00356106 0.06120107
v -0.04129360 0.04181884 0.06199668
v -0.00035299 0.04569480 0.06276381
v -0.04882611 0.02834290 0.04408833
v -0.04844375 0.03843491 0.05176487
v -0.04362055 0.04508636 0.04554474
v -0.04744280 0.03448538 0.05967320
v -0.04399017 0.02024711 0.06332226
v -0.04580201 0.04047029 0.00903300
v -0.00428675 0.04897172 0.03118237
v -0.02765538 0.04757391 0.05864565
v -0.03546138 0.04771508 0.03244461
v -0.04712682 0.00367489 0.05907343
v -0.04112713 0.04624313 0.05759919
v -0.04506660 0.04193173 0.05963599
v -0.04046776 0.03601332 0.06340117
v -0.02380201 0.04351845 0.06339612
v -0.04854275 0.01922469 0.05568758
v -0.04835712 0.03707798 0.05556867
v -0.04586890 0.04267743 0.04432914
v -0.04856398 0.03721025 0.04409193
v -0.03776429 0.04635642 0.01168889
v -0.04744707 0.03826672 0.05844791
v -0.04054523 0.02174241 0.06462716
v -0.04379305 0.00356623 0.06346323
v -0.04503405 0.03315063 0.06200216
v -0.04568460 0.03907846 0.00268211
v -0.01995358 0.04883080 0.05772968
v -0.03813602 0.04764622 0.05676933
v -0.02662693 0.04905056 0.05333165
v -0.04828735 0.02591125 0.05911358
v -0.04366949 0.04511278 0.05642843
v -0.03927278 0.04393247 0.06091747
v -0.04477445 0.03961942 0.06074349
v -0.04251041 0.04385283 0.05966471
v -0.03521119 0.04120366 0.06339949
v -0.01733754 0.04642409 0.06107167
v -0.04854037 0.01926513 0.05328626
v -0.04842846 0.03833864 0.04679222
vn 0.67527062 0.15735969 0.72058831
vn 0.57517404 -0.57135552 0.58542949
vn 0.57667315 -0.57752983 -0.57784719
vn -0.64618051 0.25768313 -0.71836631
vn -0.90435515 0.04714293 0.42416897
vn 0.57736569 0.56290241 -0.59143025
vn -0.07555324 0.05348033 0.99570656
vn -0.31452433 0.94372490 0.10226316
vn -0.02123837 0.65009203 -0.75955861
vn -0.00383569 0.03698133 0.99930860
vn -0.70987460 -0.70398554 -0.02196380
vn -0.83570373 0.42609258 0.34647423
vn 0.62519331 0.73133761 0.27254105
vn -0.41124424 -0.64822385 -0.64084632
vn -0.03789262 0.99886376 -0.02890214
vn -0.15965312 0.97565090 -0.15038683
vn -0.15133223 -0.66569725 0.73071590
vn 0.68810105 0.02049796 0.72532530
vn -0.07004076 0.39391026 0.91647641
vn -0.96841537 0.23800110 -0.07434483
vn -0.45062853 0.17246445 0.87589380
vn -0.96751274 0.09546054 -0.23410764
vn 0.65713365 0.75299157 -0.03433737
vn -0.06650259 0.98435664 0.16315457
vn -0.26462615 0.66813458 -0.69539139
vn -0.60062448 -0.67366050 0.43061788
vn -0.31495106 0.41649013 0.85284336
vn 0.60162395 0.47558221 0.64177114
vn -0.99967533 -0.01546350 -0.02025125
vn -0.96251661 0.27054313 0.01918806
vn -0.59438498 0.80363189 -0.02970321
vn -0.73439192 0.15301954 0.66125148
vn -0.53671198 0.01727443 0.84358867
vn -0.74511300 0.65765724 -0.11087637
vn -0.03261659 0.99801146 -0.05393775
vn -0.08541233 0.79820001 0.59630653
vn -0.14586846 0.98846280 -0.04078821
vn -0.74814725 -0.63539240 0.19118627
vn -0.37746114 0.81377815 0.44191426
vn -0.60674329 0.49794940 0.61960389
vn -0.22380390 0.12315233 0.96682228
vn -0.04695861 0.46275485 0.88524168
vn -0.99587339 -0.03868296 0.08209641
vn -0.98443826 0.13038530 0.11781761
vn -0.79767741 0.60263361 -0.02331271
vn -0.99513768 0.09727489 -0.01544617
vn -0.36469840 0.92774947 -0.07922125
vn -0.85857026 0.20045150 0.47188591
vn -0.23672818 0.03900410 0.97079269
vn -0.42705010 -0.63983208 0.63893907
vn -0.52582594 0.09004437 0.84581268
vn -0.73535364 0.65335508 -0.17995043
vn -0.04152607 0.91000175 0.41251958
vn -0.16458806 0.90683224 0.38802842
vn -0.06789459 0.99760111 -0.01350403
vn -0.90649412 -0.00775110 0.42214728
vn -0.62193848 0.75873034 0.19370284
vn -0.18299848 0.67066209 0.71883511
vn -0.58634694 0.24919724 0.77077753
vn -0.41748046 0.67223160 0.61140391
vn -0.12722562 0.25970809 0.95726974
vn -0.04849609 0.74085537 0.66991152
vn -0.99896413 -0.04477078 -0.00813869
vn -0.94579314 0.32453204 -0.01242166
f 1//1 2//2 3//3
f 6//6 1//1 3//3
f 9//9 6//6 3//3
f 13//13 1//1 6//6
f 14//14 9//9 3//3
f 14//14 4//4 9//9
f 16//16 6//6 9//9
f 17//17 10//10 7//7
f 17//17 2//2 10//10
f 17//17 14//14 3//3
f 17//17 3//3 2//2
f 18//18 10//10 2//2
f 18//18 2//2 1//1
f 18//18 1//1 10//10
f 19//19 10//10 1//1
f 19//19 7//7 10//10
f 22//22 14//14 11//11
f 22//22 4//4 14//14
f 22//22 11//11 20//20
f 23//23 13//13 6//6
f 23//23 6//6 16//16
f 24//24 23//23 15//15
f 24//24 13//13 23//23
f 25//25 16//16 9//9
f 25//25 9//9 4//4
f 26//26 11//11 14//14
f 26//26 14//14 17//17
f 28//28 1//1 13//13
f 29//29 20//20 11//11
f 33//33 5//5 26//26
f 34//34 22//22 20//20
f 35//35 23//23 16//16
f 35//35 16//16 15//15
f 35//35 15//15 23//23
f 37//37 15//15 16//16
f 38//38 11//11 26//26
f 41//41 27//27 21//21
f 42//42 19//19 1//1
f 42//42 1//1 28//28
f 43//43 5//5 29//29
f 43//43 11//11 38//38
f 44//44 12//12 30//30
f 44//44 30//30 29//29
f 44//44 29//29 5//5
f 45//45 30//30 12//12
f 45//45 34//34 20//20
f 45//45 31//31 34//34
f 46//46 20//20 29//29
f 46//46 29//29 30//30
f 47//47 31//31 8//8
f 47//47 16//16 25//25
f 47//47 34//34 31//31
f 47//47 25//25 34//34
f 47//47 37//37 16//16
f 47//47 8//8 37//37
f 48//48 5//5 32//32
f 48//48 44//44 5//5
f 48//48 12//12 44//44
f 49//49 33//33 17//17
f 49//49 17//17 7//7
f 49//49 7//7 41//41
f 50//50 33//33 26//26
f 50//50 26//26 17//17
f 50//50 17//17 33//33
f 51//51 32//32 5//5
f 51//51 5//5 33//33
f 51//51 33//33 49//49
f 51//51 49//49 41//41
f 51//51 41//41 21//21
f 52//52 4//4 22//22
f 52//52 22//22 34//34
f 52//52 34//34 25//25
f 52//52 25//25 4//4
f 53//53 13//13 24//24
f 54//54 24//24 8//8
f 54//54 8//8 39//39
f 54//54 53//53 24//24
f 54//54 36//36 53//53
f 55//55 37//37 8//8
f 55//55 8//8 24//24
f 55//55 24//24 15//15
f 55//55 15//15 37//37
f 56//56 38//38 26//26
f 56//56 26//26 5//5
f 56//56 43//43 38//38
f 56//56 5//5 43//43
f 57//57 12//12 40//40
f 57//57 45//45 12//12
f 57//57 31//31 45//45
f 57//57 39//39 8//8
f 57//57 8//8 31//31
f 58//58 27//27 19//19
f 58//58 54//54 39//39
f 58//58 36//36 54//54
f 58//58 42//42 36//36
f 58//58 19//19 42//42
f 59//59 21//21 27//27
f 59//59 27//27 40//40
f 59//59 51//51 21//21
f 59//59 32//32 51//51
f 59//59 40//40 12//12
f 59//59 48//48 32//32
f 59//59 12//12 48//48
f 60//60 40//40 27//27
f 60//60 57//57 40//40
f 60//60 39//39 57//57
f 60//60 58//58 39//39
f 60//60 27//27 58//58
f 61//61 41//41 7//7
f 61//61 7//7 19//19
f 61//61 19//19 27//27
f 61//61 27//27 41//41
f 62//62 42//42 28//28
f 62//62 36//36 42//42
f 62//62 53//53 36//36
f 62//62 28//28 13//13
f 62//62 13//13 53//53
f 63//63 43//43 29//29
f 63//63 29//29 11//11
f 63//63 11//11 43//43
f 64//64 45//45 20//20
f 64//64 30//30 45//45
f 64//64 46//46 30//30
f 64//64 20//20 46//46

