# https://github.com/mikedh/trimesh
v 0.02322578 0.00041962 0.02000000
v 0.02255570 -0.00028452 0.02000000
v 0.01511641 -0.01065489 -0.02000000
v -0.01573795 0.00032796 -0.02000000
v -0.01573795 0.00032796 0.02000000
v 0.02322578 0.00041962 -0.02000000
v 0.01511641 -0.01065489 0.02000000
v -0.01649310 -0.01319298 0.02000000
v -0.01649310 -0.01319298 -0.02000000
v -0.00473603 -0.01289074 0.02000000
v -0.00473603 -0.01289074 -0.02000000
f 5 2 1
f 5 1 4
f 6 3 4
f 6 4 1
f 7 1 2
f 7 6 1
f 7 3 6
f 7 2 5
f 8 5 4
f 8 7 5
f 9 8 4
f 9 4 3
f 10 3 7
f 10 7 8
f 10 8 9
f 11 10 9
f 11 9 3
f 11 3 10

