# https://github.com/mikedh/trimesh
v 0.02624714 0.03665400 0.02000000
v 0.03068817 0.01558021 0.02000000
v 0.02904138 0.03120864 -0.02000000
v 0.00808612 0.04745858 -0.02000000
v 0.00829928 0.00032796 0.02000000
v 0.02066248 0.04222317 -0.02000000
v 0.02904138 0.03120864 0.02000000
v 0.00808612 0.04745858 0.02000000
v 0.02393624 0.00116968 -0.02000000
v 0.02624714 0.03665400 -0.02000000
v 0.03080133 0.02275500 0.02000000
v 0.00758579 0.02648341 -0.02000000
v 0.01509299 0.04527413 0.02000000
v 0.03068817 0.01558021 -0.02000000
v 0.02393624 0.00116968 0.02000000
v 0.00758579 0.02648341 0.02000000
v 0.00829928 0.00032796 -0.02000000
v 0.01509299 0.04527413 -0.02000000
v 0.01077801 0.04680915 0.02000000
v 0.02066248 0.04222317 0.02000000
v 0.02929539 0.00990027 -0.02000000
v 0.03080133 0.02275500 -0.02000000
v 0.01077801 0.04680915 -0.02000000
v 0.02639067 0.00422231 -0.02000000
v 0.02929539 0.00990027 0.02000000
v 0.02639067 0.00422231 0.02000000
f 5 2 1
f 6 3 4
f 7 1 2
f 7 3 1
f 8 5 1
f 9 4 3
f 10 6 1
f 10 1 3
f 10 3 6
f 11 7 2
f 11 3 7
f 12 8 4
f 12 4 9
f 13 8 1
f 14 9 3
f 14 11 2
f 15 2 5
f 16 12 5
f 16 5 8
f 16 8 12
f 17 12 9
f 17 5 12
f 17 15 5
f 17 9 15
f 18 13 6
f 18 6 4
f 19 4 8
f 19 8 13
f 19 13 18
f 20 13 1
f 20 1 6
f 20 6 13
f 21 14 2
f 21 9 14
f 22 14 3
f 22 3 11
f 22 11 14
f 23 19 18
f 23 18 4
f 23 4 19
f 24 9 21
f 25 21 2
f 25 2 15
f 26 25 15
f 26 24 21
f 26 21 25
f 26 15 9
f 26 9 24

