# https://github.com/mikedh/trimesh
v -0.00213025 0.00577594 0.02000000
v -0.00221701 0.00032796 0.02000000
v -0.00213025 0.00577594 -0.02000000
v -0.01874261 0.00783960 -0.02000000
v -0.01874261 0.00783960 0.02000000
v -0.01874261 0.00032796 -0.02000000
v -0.01649310 0.00783960 0.02000000
v -0.00221701 0.00032796 -0.02000000
v -0.01874261 0.00032796 0.02000000
v -0.01649310 0.00783960 -0.02000000
f 1 2 3
f 5 2 1
f 6 4 3
f 6 5 4
f 7 5 1
f 8 6 3
f 8 3 2
f 8 2 6
f 9 6 2
f 9 2 5
f 9 5 6
f 10 3 4
f 10 4 5
f 10 5 7
f 10 7 1
f 10 1 3

