# https://github.com/mikedh/trimesh
v -0.00972865 0.03938847 0.02000000
v -0.00972757 0.03191033 0.02000000
v -0.00972865 0.03938847 -0.02000000
v -0.01874261 0.03938847 -0.02000000
v -0.01874261 0.02586753 0.02000000
v -0.01874261 0.03938847 0.02000000
v -0.01649310 0.02586753 -0.02000000
v -0.00972757 0.03191033 -0.02000000
v -0.01649310 0.02586753 0.02000000
v -0.01874261 0.02586753 -0.02000000
f 1 2 3
f 1 3 4
f 5 2 1
f 6 5 1
f 6 1 4
f 6 4 5
f 7 4 3
f 8 7 3
f 8 3 2
f 9 2 5
f 9 8 2
f 9 7 8
f 10 5 4
f 10 4 7
f 10 9 5
f 10 7 9

