# https://github.com/mikedh/trimesh
v 0.01558358 -0.01135030 0.02000000
v 0.04168840 -0.05000000 0.02000000
v 0.01558358 -0.01135030 -0.02000000
v -0.00522166 -0.01018833 -0.02000000
v 0.01835940 -0.05000000 0.02000000
v -0.00522166 -0.01018833 0.02000000
v 0.04168840 -0.05000000 -0.02000000
v -0.00406208 -0.01397363 0.02000000
v 0.01835940 -0.05000000 -0.02000000
v -0.00406208 -0.01397363 -0.02000000
f 1 2 3
f 1 3 4
f 5 2 1
f 6 5 1
f 6 1 4
f 7 3 2
f 7 2 5
f 7 4 3
f 8 6 4
f 8 5 6
f 9 7 5
f 9 4 7
f 9 5 8
f 10 9 8
f 10 8 4
f 10 4 9

