# https://github.com/mikedh/trimesh
v -0.02198802 -0.01408704 0.03209233
v 0.00144981 -0.07121879 0.00492781
v 0.00961316 -0.03868922 -0.02626300
v -0.04449894 -0.01360263 -0.03469774
v -0.04308931 -0.05340703 0.00947500
v 0.00110829 -0.06242900 -0.02668866
v -0.00105256 -0.02023396 -0.02627155
v 0.00086128 -0.03612472 0.02306222
v -0.02821167 -0.04654500 0.02821956
v -0.04493880 -0.01419898 0.01105603
v 0.01030332 -0.04197288 -0.02696662
v -0.04404500 -0.04389800 -0.02626300
v -0.03077457 -0.01399317 -0.03364274
v 0.00053067 -0.02559440 0.00371907
v -0.03069800 -0.05458691 0.01844596
v -0.02271288 -0.04517895 0.02822795
v -0.04239083 -0.01392719 0.01635655
v 0.01013327 -0.04227577 -0.01912806
v 0.00040409 -0.03103076 -0.03288100
v -0.04282721 -0.03502447 -0.03288100
v -0.04526200 -0.04257400 -0.02626300
v -0.04217670 -0.05485121 0.00013858
v -0.04053603 -0.01345500 -0.03527374
v -0.00454094 -0.01915469 -0.02626300
v -0.00121154 -0.02083272 -0.02096800
v 0.00989757 -0.03848240 -0.02065196
v -0.03212760 -0.05316300 0.01970871
v -0.02444700 -0.06175300 0.00947500
v -0.00358723 -0.06385556 0.01448405
v -0.02577000 -0.04642003 0.02822689
v -0.04562400 -0.01360633 -0.03240282
v -0.03238800 -0.01444722 0.02840917
v -0.04222468 -0.04294156 0.01756841
v 0.00051513 -0.05285238 0.01946476
v -0.01232687 -0.02050199 -0.03287474
v 0.00109084 -0.04495783 -0.03312379
v -0.04443800 -0.03132400 -0.03221900
v -0.04467506 -0.05241133 0.00334462
v -0.00059428 -0.06205070 -0.02626300
v -0.04462999 -0.05207118 -0.00040855
v -0.02591111 -0.01394117 0.03118876
v -0.02223045 -0.01420073 0.01952682
v 0.00012955 -0.02207723 -0.02546307
v 0.00993227 -0.04002526 -0.01964500
v -0.02829128 -0.05316300 0.02168310
v -0.03340386 -0.04500801 0.02635593
v -0.01503331 -0.06429678 0.01079800
v -0.00075886 -0.07121865 0.00285700
v -0.04165400 -0.05478419 0.00761556
v -0.00015240 -0.06252426 0.01591904
v -0.04436170 -0.02801500 0.01437749
v -0.04237718 -0.01955941 0.01741600
v -0.01223135 -0.01908526 -0.03125458
v -0.03418324 -0.01397358 -0.03504557
v 0.00200320 -0.04159708 -0.03328545
v -0.01039260 -0.04382476 -0.03288100
v -0.01312079 -0.03670782 -0.03496825
v -0.04466894 -0.04323339 0.01118547
v -0.03371200 -0.01427991 0.02733147
v -0.03064509 -0.04522200 0.02812139
v -0.02873435 -0.01415054 -0.02949721
v 0.00024072 -0.02220874 -0.02229200
v -0.00482196 -0.06242900 0.01587326
v -0.02433661 -0.06195051 0.00358465
vn 0.21052033 0.63296066 0.74501141
vn 0.52336584 -0.81249189 0.25679782
vn 0.87456037 0.35244844 -0.33305294
vn -0.48594872 0.56444266 -0.66727680
vn -0.73848444 -0.58055032 0.34293158
vn 0.35432795 -0.72990791 -0.58453926
vn 0.58990614 0.74297365 -0.31622918
vn 0.74536673 0.13665018 0.65249917
vn -0.15363483 -0.44385711 0.88282909
vn -0.77126530 0.61770852 0.15357740
vn 0.89949960 -0.06344871 -0.43229009
vn -0.49245758 -0.68784929 -0.53324374
vn 0.19726350 0.91713503 -0.34633863
vn 0.77599364 0.60750680 0.16961536
vn -0.32313810 -0.81269449 0.48488084
vn 0.16625003 -0.24396470 0.95542773
vn -0.59938070 0.71329123 0.36326079
vn 0.99264539 -0.06880689 0.09960297
vn 0.46411004 0.28362671 -0.83914108
vn -0.43499764 -0.29320032 -0.85135811
vn -0.86190380 -0.35624513 -0.36084796
vn -0.53980715 -0.83077339 -0.13573436
vn -0.05202054 0.67260529 -0.73817070
vn 0.26928664 0.94799217 -0.16969250
vn 0.58480666 0.80381527 0.10900544
vn 0.95141477 0.30399396 0.04896550
vn -0.42291832 -0.70105633 0.57416035
vn -0.34690275 -0.90320199 0.25275411
vn -0.06486481 -0.77422361 0.62957951
vn 0.04837502 -0.35649565 0.93304379
vn -0.75277644 0.63417262 -0.17650134
vn -0.46159471 0.43629267 0.77238528
vn -0.81433207 -0.17967449 0.55188799
vn 0.70234428 -0.23018956 0.67359133
vn 0.26908020 0.47247182 -0.83926529
vn 0.28022971 -0.25309448 -0.92596679
vn -0.82115964 -0.11489371 -0.55901367
vn -0.90971676 -0.41203497 0.05140625
vn -0.31575185 -0.84405823 -0.43343567
vn -0.89078018 -0.44236545 -0.10403592
vn -0.21064212 0.67697383 0.70522077
vn 0.16484334 0.98623133 -0.01320756
vn 0.85618396 0.51301357 -0.06136860
vn 0.97529822 0.13301944 0.17634968
vn -0.22830255 -0.72991809 0.64428062
vn -0.60193865 -0.31227525 0.73495172
vn -0.23205783 -0.86192456 0.45081618
vn -0.11286184 -0.99126219 -0.06827506
vn -0.49210121 -0.85696700 0.15311420
vn 0.55236185 -0.50896078 0.66019339
vn -0.93580433 -0.00219256 0.35251304
vn -0.83340363 0.05209468 0.55020408
vn 0.30729034 0.77061371 -0.55832531
vn 0.10410126 0.63967360 -0.76156458
vn 0.39501708 -0.03123230 -0.91814272
vn -0.07456370 -0.33419692 -0.93954919
vn 0.01292583 -0.10753916 -0.99411682
vn -0.97387125 -0.08989669 0.20855063
vn -0.53423124 0.62699099 0.56699143
vn -0.36979583 -0.31612927 0.87367805
vn 0.16133256 0.98631293 -0.03403823
vn 0.81677367 0.57538635 0.04255951
vn -0.07097782 -0.69760666 0.71295658
vn -0.36808732 -0.92978466 0.00349466
f 11//11 2//2 6//6
f 14//14 1//1 8//8
f 16//16 8//8 1//1
f 18//18 2//2 11//11
f 19//19 7//7 3//3
f 19//19 3//3 11//11
f 20//20 6//6 12//12
f 21//21 20//20 12//12
f 23//23 1//1 13//13
f 23//23 20//20 4//4
f 24//24 1//1 7//7
f 24//24 7//7 13//13
f 25//25 14//14 7//7
f 25//25 7//7 1//1
f 25//25 1//1 14//14
f 26//26 14//14 8//8
f 26//26 18//18 11//11
f 26//26 11//11 3//3
f 27//27 5//5 15//15
f 28//28 15//15 5//5
f 30//30 16//16 1//1
f 30//30 1//1 9//9
f 31//31 10//10 17//17
f 31//31 21//21 10//10
f 31//31 23//23 4//4
f 31//31 17//17 23//23
f 34//34 18//18 8//8
f 34//34 2//2 18//18
f 34//34 8//8 16//16
f 35//35 7//7 19//19
f 36//36 11//11 6//6
f 37//37 4//4 20//20
f 37//37 20//20 21//21
f 37//37 31//31 4//4
f 37//37 21//21 31//31
f 38//38 22//22 5//5
f 39//39 22//22 12//12
f 39//39 12//12 6//6
f 40//40 21//21 12//12
f 40//40 12//12 22//22
f 40//40 38//38 21//21
f 40//40 22//22 38//38
f 41//41 23//23 17//17
f 41//41 1//1 23//23
f 42//42 13//13 1//1
f 42//42 1//1 24//24
f 43//43 26//26 3//3
f 43//43 3//3 7//7
f 44//44 26//26 8//8
f 44//44 8//8 18//18
f 44//44 18//18 26//26
f 45//45 27//27 15//15
f 45//45 9//9 27//27
f 46//46 5//5 27//27
f 46//46 33//33 5//5
f 47//47 15//15 28//28
f 47//47 45//45 15//15
f 47//47 2//2 29//29
f 47//47 29//29 45//45
f 48//48 47//47 28//28
f 48//48 2//2 47//47
f 48//48 22//22 39//39
f 48//48 39//39 6//6
f 48//48 6//6 2//2
f 49//49 28//28 5//5
f 49//49 5//5 22//22
f 49//49 22//22 28//28
f 50//50 30//30 9//9
f 50//50 29//29 2//2
f 50//50 2//2 34//34
f 50//50 34//34 16//16
f 50//50 16//16 30//30
f 52//52 51//51 33//33
f 52//52 17//17 10//10
f 52//52 10//10 51//51
f 53//53 35//35 13//13
f 53//53 13//13 7//7
f 53//53 7//7 35//35
f 54//54 23//23 13//13
f 54//54 13//13 35//35
f 54//54 35//35 19//19
f 55//55 19//19 11//11
f 55//55 11//11 36//36
f 56//56 36//36 6//6
f 56//56 6//6 20//20
f 57//57 20//20 23//23
f 57//57 55//55 36//36
f 57//57 23//23 54//54
f 57//57 54//54 19//19
f 57//57 19//19 55//55
f 57//57 56//56 20//20
f 57//57 36//36 56//56
f 58//58 10//10 21//21
f 58//58 21//21 38//38
f 58//58 51//51 10//10
f 58//58 33//33 51//51
f 58//58 38//38 5//5
f 58//58 5//5 33//33
f 59//59 41//41 17//17
f 59//59 32//32 41//41
f 59//59 17//17 52//52
f 59//59 52//52 33//33
f 59//59 46//46 32//32
f 59//59 33//33 46//46
f 60//60 9//9 1//1
f 60//60 1//1 41//41
f 60//60 41//41 32//32
f 60//60 32//32 46//46
f 60//60 46//46 27//27
f 60//60 27//27 9//9
f 61//61 42//42 24//24
f 61//61 24//24 13//13
f 61//61 13//13 42//42
f 62//62 43//43 7//7
f 62//62 7//7 14//14
f 62//62 14//14 26//26
f 62//62 26//26 43//43
f 63//63 45//45 29//29
f 63//63 9//9 45//45
f 63//63 50//50 9//9
f 63//63 29//29 50//50
f 64//64 48//48 28//28
f 64//64 28//28 22//22
f 64//64 22//22 48//48

