# https://github.com/mikedh/trimesh
v 0.00927319 -0.03441273 0.02864586
v 0.02800503 -0.03507892 0.01767723
v -0.02236849 -0.03641387 0.02533311
v -0.02284775 -0.05560319 0.01476900
v -0.00152634 -0.06301920 0.01579222
v -0.02225772 -0.03463896 0.03035349
v 0.01973306 -0.05133956 0.01687716
v 0.02728213 -0.03446536 0.01845589
v -0.02260556 -0.04338056 0.02871491
v 0.00707868 -0.03836250 0.02823260
v 0.02646747 -0.04147405 0.01606428
v 0.01472805 -0.03424581 0.02636187
v 0.02188000 -0.04522200 0.01922600
v -0.02242768 -0.05448700 0.02029215
v -0.00194500 -0.06110500 0.01733500
v 0.02023313 -0.05194250 0.01609300
v 0.00935760 -0.03619569 0.02835197
v 0.02032029 -0.04716699 0.01888015
v -0.01566500 -0.05978100 0.01476900
v 0.00854408 -0.04154140 0.02609438
v 0.02139339 -0.04895743 0.01741600
v -0.02209004 -0.05561555 0.01867007
v 0.02188000 -0.04995523 0.01628347
v -0.01548537 -0.05954050 0.01526040
vn 0.17010877 0.59283439 0.78715335
vn 0.88067847 0.39210443 -0.26581864
vn -0.67164595 0.58198212 -0.45846323
vn -0.71786495 -0.27321611 -0.64033029
vn 0.17570873 -0.95457166 -0.24066449
vn -0.54590353 0.61414625 0.56992430
vn 0.36263929 -0.53450429 0.76341202
vn 0.60503405 0.76340829 0.22614503
vn -0.65467376 -0.27419328 0.70442907
vn 0.16479446 -0.32341590 0.93179662
vn 0.85521615 -0.19337238 -0.48084557
vn 0.36696694 0.61707730 0.69609688
vn 0.53852211 -0.35589965 0.76376002
vn -0.67506117 -0.52862534 0.51463353
vn 0.08836138 -0.57360479 0.81435238
vn 0.57422495 -0.74868942 -0.33125497
vn 0.27653316 -0.24057204 0.93040556
vn 0.33720703 -0.43679128 0.83396931
vn -0.24884664 -0.82050887 -0.51462660
vn 0.25731014 -0.46328102 0.84803431
vn 0.52573586 -0.44009652 0.72795389
vn -0.57338524 -0.75577249 0.31628674
vn 0.80506665 -0.56918537 -0.16702006
vn -0.23056865 -0.83279136 0.50328585
f 3//3 2//2 4//4
f 8//8 2//2 3//3
f 8//8 3//3 6//6
f 9//9 6//6 3//3
f 9//9 3//3 4//4
f 10//10 1//1 6//6
f 10//10 6//6 9//9
f 11//11 4//4 2//2
f 12//12 8//8 6//6
f 12//12 6//6 1//1
f 13//13 2//2 8//8
f 13//13 11//11 2//2
f 13//13 8//8 12//12
f 14//14 9//9 4//4
f 15//15 5//5 7//7
f 15//15 10//10 9//9
f 15//15 14//14 5//5
f 15//15 9//9 14//14
f 16//16 7//7 5//5
f 17//17 12//12 1//1
f 17//17 1//1 10//10
f 17//17 13//13 12//12
f 17//17 10//10 13//13
f 18//18 13//13 10//10
f 19//19 16//16 5//5
f 19//19 4//4 11//11
f 19//19 11//11 16//16
f 20//20 15//15 7//7
f 20//20 10//10 15//15
f 20//20 18//18 10//10
f 20//20 7//7 18//18
f 21//21 7//7 16//16
f 21//21 18//18 7//7
f 21//21 13//13 18//18
f 22//22 14//14 4//4
f 22//22 4//4 19//19
f 22//22 5//5 14//14
f 23//23 21//21 16//16
f 23//23 16//16 11//11
f 23//23 11//11 13//13
f 23//23 13//13 21//21
f 24//24 22//22 19//19
f 24//24 19//19 5//5
f 24//24 5//5 22//22

