# https://github.com/mikedh/trimesh
v 0.02741237 0.05108260 0.01676038
v 0.05044000 0.05471100 0.00219500
v 0.00562787 0.07223278 -0.00009062
v -0.03986234 0.04346100 -0.02759041
v 0.03968550 0.04096528 0.00856429
v 0.04967600 0.07204705 -0.02609630
v -0.04206312 0.03805416 0.01743714
v 0.04173400 0.06993300 0.00607700
v 0.04722321 0.06214971 0.00808253
v 0.02235999 0.06993300 -0.02616345
v 0.03350605 0.04683337 -0.02782367
v -0.03387633 0.06070314 0.00762924
v 0.00052371 0.03799552 0.02129478
v 0.04572375 0.07420219 -0.00600304
v 0.04858608 0.05595368 0.00682700
v 0.04041100 0.06855602 0.00806862
v 0.05100000 0.07125700 -0.00116000
v 0.03718632 0.07414366 -0.02088653
v -0.01951854 0.03715322 -0.02389635
v 0.04173400 0.06153300 -0.03288100
v 0.04173400 0.04216571 -0.00808194
v -0.04514900 0.05146280 0.00208841
v -0.03427772 0.06081707 0.00020900
v 0.02651180 0.04147430 0.01665355
v -0.01650727 0.06066663 0.01723032
v 0.02104851 0.07190321 0.00776280
v 0.04853688 0.04826725 0.00020900
v 0.04101645 0.06259691 0.01012198
v 0.05268582 0.06758683 -0.01897508
v 0.05166100 0.07207600 -0.02493900
v 0.04636700 0.07310000 -0.00111400
v 0.04853711 0.06294155 0.00664203
v 0.00767479 0.07185134 -0.00935292
v 0.03344568 0.07217519 -0.02626300
v 0.02324313 0.07447701 -0.00552835
v -0.03395074 0.04081300 -0.02807590
v -0.04345433 0.03797637 0.01620390
v 0.02647206 0.05934400 -0.03292861
v 0.04069709 0.04121919 0.00536421
v 0.04931831 0.05651862 -0.02493900
v -0.03413308 0.04921220 -0.02361600
v -0.04470660 0.05191829 0.00555902
v -0.04415913 0.04346100 -0.02656211
v -0.01382701 0.06801112 0.00146999
v 0.01333131 0.04009669 0.01951361
v 0.03026673 0.04161978 0.01496568
v -0.03428838 0.05057807 0.01739123
v 0.00483260 0.06071959 0.01741600
v 0.03664700 0.06993300 0.00780703
v 0.05275307 0.06761462 -0.01004820
v 0.04769873 0.07404678 -0.01237734
v 0.04548514 0.07428216 -0.02096800
v 0.05166100 0.07125700 -0.02591600
v 0.04082223 0.07188540 0.00400276
v 0.03003464 0.07425404 -0.00121371
v 0.05018298 0.05862460 0.00522934
v -0.00422174 0.06963451 -0.00640900
v 0.03047767 0.07418645 -0.01637949
v 0.02375126 0.07436034 -0.00960368
v -0.02308998 0.03816600 -0.02572473
v -0.04445212 0.03862561 -0.02512170
v 0.03248660 0.06076828 -0.03284119
v 0.02540369 0.05766710 -0.03288100
v 0.03876211 0.04745213 -0.02632606
vn 0.25901663 0.11994118 0.95839684
vn 0.94507837 -0.25411974 0.20554815
vn -0.16937316 0.97535183 0.14142684
vn -0.20694763 0.12434586 -0.97041784
vn 0.48039722 -0.76077062 0.43640186
vn 0.16345888 0.73770643 -0.65503467
vn -0.40898295 -0.49549498 0.76630129
vn 0.34649483 0.67671869 0.64960999
vn 0.52418105 0.20636297 0.82622549
vn -0.20272386 0.76120186 -0.61601523
vn 0.16562897 -0.71673577 -0.67738975
vn -0.46857812 0.81345792 0.34455878
vn 0.05129220 -0.64156256 0.76535390
vn 0.19717422 0.97492129 0.10320272
vn 0.70329169 -0.20481457 0.68075825
vn 0.28303490 0.53002274 0.79935420
vn 0.74976086 0.56471803 0.34489446
vn -0.05317910 0.97987537 -0.19239605
vn 0.04742593 -0.94874471 -0.31246480
vn 0.28080202 0.02189265 -0.95951599
vn 0.45818541 -0.87359424 -0.16400988
vn -0.92059808 0.38814469 -0.04292875
vn -0.48315718 0.86064131 -0.16079701
vn 0.29389337 -0.53547927 0.79176299
vn -0.15407293 0.59409715 0.78949991
vn -0.00755620 0.84733858 0.53099928
vn 0.85206168 -0.50895402 0.12229757
vn 0.26637008 0.27114485 0.92494727
vn 0.99633127 -0.03410056 -0.07849296
vn 0.69984598 0.66875083 -0.25097397
vn 0.24870968 0.91034265 0.33078658
vn 0.69539405 0.29806381 0.65389991
vn -0.20532682 0.95841773 -0.19818260
vn -0.09522477 0.79273546 -0.60208200
vn -0.07081652 0.99645197 0.04548071
vn -0.06801551 -0.40356354 -0.91242005
vn -0.72425808 -0.51578323 0.45762200
vn -0.08191676 0.24655627 -0.96566021
vn 0.44747473 -0.89335830 0.04095496
vn 0.79460252 -0.40674917 -0.45073489
vn -0.33623376 0.82725385 -0.45010880
vn -0.84816991 0.45628273 0.26909825
vn -0.69114026 0.27513788 -0.66829955
vn -0.25613274 0.96077394 0.10634591
vn 0.19640463 -0.38885144 0.90012209
vn 0.38567160 -0.52997413 0.75523827
vn -0.36658039 0.37241380 0.85260001
vn 0.03974765 0.41386451 0.90947033
vn 0.12906267 0.68159315 0.72025940
vn 0.99525919 0.08556385 0.04623832
vn 0.33263438 0.94271880 0.02521177
vn 0.10790067 0.97909174 -0.17244363
vn 0.74670473 0.27658324 -0.60492459
vn 0.18004883 0.86356775 0.47099168
vn 0.01467494 0.98452131 0.17464949
vn 0.89208463 -0.03344508 0.45062893
vn -0.27791205 0.92726312 -0.25089439
vn -0.10464282 0.98267378 -0.15297755
vn -0.09683946 0.99098648 -0.09256299
vn 0.01753960 -0.74809835 -0.66335603
vn -0.65134857 -0.62037781 -0.43689406
vn -0.04970590 0.32785936 -0.94341802
vn -0.00422565 -0.18810255 -0.98214030
vn 0.40593411 -0.72268641 -0.55941206
f 17//17 8//8 16//16
f 19//19 5//5 13//13
f 21//21 19//19 11//11
f 24//24 13//13 5//5
f 27//27 15//15 5//5
f 27//27 2//2 15//15
f 28//28 1//1 9//9
f 28//28 9//9 16//16
f 31//31 17//17 14//14
f 32//32 17//17 16//16
f 32//32 16//16 9//9
f 34//34 10//10 33//33
f 34//34 6//6 20//20
f 37//37 19//19 13//13
f 37//37 13//13 7//7
f 38//38 4//4 10//10
f 38//38 10//10 34//34
f 39//39 5//5 19//19
f 39//39 19//19 21//21
f 39//39 27//27 5//5
f 39//39 21//21 27//27
f 40//40 27//27 21//21
f 40//40 29//29 2//2
f 40//40 2//2 27//27
f 42//42 23//23 22//22
f 42//42 12//12 23//23
f 42//42 22//22 37//37
f 43//43 22//22 23//23
f 43//43 23//23 41//41
f 43//43 41//41 10//10
f 43//43 10//10 4//4
f 44//44 23//23 12//12
f 44//44 12//12 25//25
f 44//44 26//26 3//3
f 44//44 25//25 26//26
f 45//45 24//24 1//1
f 45//45 1//1 13//13
f 45//45 13//13 24//24
f 46//46 24//24 5//5
f 46//46 5//5 15//15
f 46//46 15//15 9//9
f 46//46 9//9 1//1
f 46//46 1//1 24//24
f 47//47 25//25 12//12
f 47//47 7//7 13//13
f 47//47 13//13 25//25
f 47//47 12//12 42//42
f 47//47 42//42 37//37
f 47//47 37//37 7//7
f 48//48 25//25 13//13
f 48//48 13//13 1//1
f 48//48 26//26 25//25
f 48//48 28//28 16//16
f 48//48 1//1 28//28
f 49//49 16//16 8//8
f 49//49 48//48 16//16
f 49//49 26//26 48//48
f 50//50 2//2 29//29
f 50//50 30//30 17//17
f 50//50 29//29 30//30
f 51//51 14//14 17//17
f 51//51 17//17 30//30
f 52//52 30//30 6//6
f 52//52 51//51 30//30
f 52//52 14//14 51//51
f 52//52 35//35 14//14
f 52//52 34//34 18//18
f 52//52 6//6 34//34
f 53//53 20//20 6//6
f 53//53 6//6 30//30
f 53//53 40//40 20//20
f 53//53 30//30 29//29
f 53//53 29//29 40//40
f 54//54 8//8 17//17
f 54//54 17//17 31//31
f 54//54 49//49 8//8
f 54//54 26//26 49//49
f 55//55 31//31 14//14
f 55//55 54//54 31//31
f 55//55 26//26 54//54
f 55//55 14//14 35//35
f 55//55 35//35 3//3
f 55//55 3//3 26//26
f 56//56 32//32 9//9
f 56//56 9//9 15//15
f 56//56 15//15 2//2
f 56//56 17//17 32//32
f 56//56 50//50 17//17
f 56//56 2//2 50//50
f 57//57 33//33 10//10
f 57//57 23//23 44//44
f 57//57 44//44 3//3
f 57//57 3//3 33//33
f 57//57 41//41 23//23
f 57//57 10//10 41//41
f 58//58 34//34 33//33
f 58//58 18//18 34//34
f 59//59 33//33 3//3
f 59//59 3//3 35//35
f 59//59 58//58 33//33
f 59//59 18//18 58//58
f 59//59 52//52 18//18
f 59//59 35//35 52//52
f 60//60 36//36 11//11
f 60//60 11//11 19//19
f 61//61 19//19 37//37
f 61//61 60//60 19//19
f 61//61 36//36 60//60
f 61//61 37//37 22//22
f 61//61 22//22 43//43
f 61//61 43//43 4//4
f 61//61 4//4 36//36
f 62//62 38//38 34//34
f 62//62 34//34 20//20
f 62//62 20//20 38//38
f 63//63 36//36 4//4
f 63//63 4//4 38//38
f 63//63 11//11 36//36
f 63//63 38//38 20//20
f 63//63 20//20 11//11
f 64//64 40//40 21//21
f 64//64 21//21 11//11
f 64//64 11//11 20//20
f 64//64 20//20 40//40

