# https://github.com/mikedh/trimesh
v 0.01941953 0.00197452 0.03576033
v 0.02994219 -0.01428483 0.01513278
v 0.03968550 0.04096528 0.00856429
v 0.01478007 0.04125857 -0.01365974
v -0.00042676 -0.01358487 0.01079800
v 0.02910003 -0.01420147 -0.00408792
v 0.00049253 0.04015501 0.02079673
v 0.02790700 0.00242900 0.02668200
v 0.00036918 0.00143782 0.03776164
v 0.04020747 0.03978593 -0.00773200
v 0.02188000 -0.01456052 -0.00544617
v 0.02417920 0.04033393 0.01790617
v 0.02939430 0.04147516 0.01542176
v 0.00052377 0.04051332 0.00058837
v 0.02058701 0.00031450 0.03457705
v 0.01958592 0.00110500 0.03577237
v 0.00113367 -0.01443961 0.01031951
v 0.00010180 0.03050151 0.02862987
v 0.03010300 -0.01429973 -0.00253340
v 0.02222436 0.04081300 -0.01348514
v 0.00599700 -0.01444559 0.00500717
v 0.04041100 0.04116155 -0.00831053
v 0.01333131 0.04009669 0.01951361
v 0.00665366 0.04162913 -0.00643163
v 0.00503385 0.00167733 0.03761429
v 0.01633140 -0.00139307 0.03341800
v 0.01991785 -0.00062215 0.03385350
v 0.00895587 0.02097244 0.03046404
v 0.02505814 -0.01453492 -0.00535926
v 0.00141399 0.01057150 0.03594700
v 0.00070200 0.00375200 0.03756800
v 0.00492531 0.00396661 0.03747730
v 0.00605967 0.01111167 0.03488034
vn 0.39431761 0.18343419 0.90048072
vn 0.59323999 -0.74313915 0.30953273
vn 0.75425099 0.58341105 0.30122582
vn -0.27719468 0.55952921 -0.78108269
vn -0.81319335 -0.57246659 -0.10487409
vn 0.45995836 -0.63339883 -0.62228950
vn -0.59975680 0.70512770 0.37826803
vn 0.82157310 -0.10894896 0.55959608
vn -0.59410790 -0.34586658 0.72623144
vn 0.98510169 -0.16908657 -0.03137511
vn -0.18022581 -0.71363920 -0.67693260
vn 0.18967172 0.63831639 0.74604076
vn 0.29229197 0.79277121 0.53486374
vn -0.77847372 0.55273845 -0.29742034
vn 0.55642361 -0.43006816 0.71093892
vn 0.38988915 -0.29285653 0.87305298
vn -0.33843538 -0.94093744 0.00991146
vn -0.60773306 0.38129757 0.69661517
vn 0.67900678 -0.70751115 -0.19590245
vn 0.13471923 0.50323093 -0.85358618
vn -0.42788030 -0.73829219 -0.52138574
vn 0.69382741 0.52078694 -0.49737762
vn 0.07812238 0.74803780 0.65904199
vn -0.54174149 0.65837217 -0.52255357
vn 0.07608324 -0.34881038 0.93409992
vn 0.05007920 -0.77192917 0.63373293
vn 0.16792723 -0.73581575 0.65603020
vn 0.22610211 0.37763274 0.89792614
vn 0.13267159 -0.73101291 -0.66934175
vn -0.21975336 0.30540195 0.92651935
vn -0.43784292 0.17831511 0.88119084
vn 0.08927939 0.17772659 0.98002166
vn 0.17496758 0.34710750 0.92135917
f 8//8 2//2 3//3
f 10//10 3//3 2//2
f 13//13 12//12 1//1
f 13//13 1//1 3//3
f 15//15 2//2 8//8
f 16//16 8//8 3//3
f 16//16 3//3 1//1
f 16//16 15//15 8//8
f 17//17 9//9 5//5
f 17//17 2//2 9//9
f 17//17 11//11 2//2
f 18//18 5//5 9//9
f 18//18 14//14 5//5
f 18//18 7//7 14//14
f 19//19 10//10 2//2
f 20//20 11//11 4//4
f 21//21 4//4 11//11
f 21//21 17//17 5//5
f 21//21 11//11 17//17
f 22//22 13//13 3//3
f 22//22 20//20 4//4
f 22//22 3//3 10//10
f 22//22 19//19 6//6
f 22//22 10//10 19//19
f 23//23 13//13 7//7
f 23//23 12//12 13//13
f 23//23 18//18 12//12
f 23//23 7//7 18//18
f 24//24 5//5 14//14
f 24//24 21//21 5//5
f 24//24 4//4 21//21
f 24//24 22//22 4//4
f 24//24 13//13 22//22
f 24//24 14//14 7//7
f 24//24 7//7 13//13
f 25//25 16//16 1//1
f 25//25 9//9 16//16
f 26//26 16//16 9//9
f 26//26 9//9 2//2
f 27//27 2//2 15//15
f 27//27 15//15 16//16
f 27//27 26//26 2//2
f 27//27 16//16 26//26
f 28//28 18//18 1//1
f 28//28 1//1 12//12
f 28//28 12//12 18//18
f 29//29 6//6 19//19
f 29//29 11//11 20//20
f 29//29 22//22 6//6
f 29//29 20//20 22//22
f 29//29 19//19 2//2
f 29//29 2//2 11//11
f 31//31 30//30 18//18
f 31//31 18//18 9//9
f 32//32 25//25 1//1
f 32//32 1//1 30//30
f 32//32 30//30 31//31
f 32//32 31//31 9//9
f 32//32 9//9 25//25
f 33//33 30//30 1//1
f 33//33 1//1 18//18
f 33//33 18//18 30//30

