# https://github.com/mikedh/trimesh
v -0.01566917 -0.03654941 0.00279217
v 0.01118778 -0.04508765 -0.01785134
v -0.00110798 -0.02005872 -0.02421542
v -0.01428931 -0.02505027 -0.03486689
v -0.02141658 -0.05901140 -0.00565106
v 0.01147812 -0.04500047 -0.02738970
v -0.01867234 -0.01858586 -0.01913903
v -0.00110355 -0.02564742 -0.01361168
v 0.00022535 -0.06560758 -0.00601209
v 0.00997780 -0.03830011 -0.02082528
v 0.00027148 -0.03256730 -0.03374453
v -0.01426127 -0.01971964 -0.03267864
v -0.02149567 -0.03465624 0.00228682
v -0.02115484 -0.03471490 -0.03384698
v 0.00016417 -0.04719067 -0.00613837
v -0.00902485 -0.01882321 -0.01713381
v -0.01431892 -0.05204879 0.00242225
v 0.00047293 -0.06525199 -0.00675481
v 0.01008753 -0.03831618 -0.02555801
v 0.01073863 -0.04114270 -0.02627906
v -0.00105294 -0.02284687 -0.01603363
v -0.01235471 -0.02127047 -0.03348885
v -0.01889991 -0.01837212 -0.02804230
v -0.02415493 -0.05000480 -0.00082445
v -0.01304613 -0.03745679 -0.03482764
v -0.01819570 -0.02541443 -0.03361174
v -0.00093177 -0.02840540 -0.01207420
v -0.01073806 -0.01857169 -0.01704137
v -0.00766611 -0.02185724 -0.01331038
v -0.00978366 -0.06400459 -0.00547001
v -0.01756405 -0.03542975 0.00294549
v -0.01433531 -0.03766238 0.00254430
v -0.00018285 -0.02082327 -0.02485413
v -0.00253432 -0.02031013 -0.02134796
v -0.00879147 -0.02688320 -0.03472780
v -0.01442263 -0.02115608 -0.03361099
v -0.00689375 -0.01895464 -0.02697334
v -0.02119341 -0.05254226 -0.02536053
v -0.01547978 -0.03620324 -0.03494819
v 0.00139255 -0.04440771 -0.03352544
v -0.01553240 -0.02633470 -0.03487100
v -0.00619145 -0.02052168 -0.01594672
v -0.00350687 -0.02329739 -0.01340153
v -0.00908062 -0.02054350 -0.01452014
v -0.00244941 -0.06533609 -0.00542047
v 0.00002341 -0.02138215 -0.02402366
v -0.00129624 -0.01999349 -0.02627027
v -0.00031717 -0.02970154 -0.03276010
v -0.01769757 -0.02288148 -0.03244883
v -0.01178239 -0.01925441 -0.02988520
v -0.00661988 -0.01890780 -0.02565252
v 0.00051287 -0.06299029 -0.02612069
v -0.00922502 -0.02995950 -0.03493614
v -0.01494306 -0.04246822 -0.03339866
v -0.01224474 -0.01995801 -0.03233204
v -0.02111195 -0.05115032 -0.02636388
v -0.01430208 -0.03724721 -0.03482208
v -0.00965918 -0.04326632 -0.03366286
v -0.00773800 -0.01926987 -0.02830208
v -0.00168604 -0.06095862 -0.02666343
vn 0.29240990 0.26885789 0.91772103
vn 0.93862867 -0.02937174 0.34367649
vn 0.48232890 0.86806312 0.11758083
vn -0.07435594 0.20566045 -0.97579453
vn -0.67507206 -0.69963504 0.23406948
vn 0.88370046 -0.13301487 -0.44875444
vn -0.58948981 0.77925514 0.21275148
vn 0.64932043 0.43916743 0.62089850
vn 0.48045382 -0.74140041 0.46849713
vn 0.89648379 0.37238903 0.24009002
vn 0.44782189 0.20071915 -0.87130211
vn -0.12226114 0.77789202 -0.61638966
vn -0.61312418 0.39200858 0.68586297
vn -0.75530887 -0.02155764 -0.65501433
vn 0.63629009 0.10926413 0.76367288
vn 0.22224700 0.92606655 0.30497051
vn 0.03044291 -0.27364932 0.96134764
vn 0.83355653 -0.55243417 -0.00008942
vn 0.88470509 0.37335200 -0.27911501
vn 0.90829724 0.27398010 -0.31611871
vn 0.62984504 0.66095013 0.40797078
vn 0.22817438 0.47809922 -0.84814951
vn -0.61400703 0.75549224 -0.22853193
vn -0.83581698 -0.20735633 0.50834371
vn 0.00779529 -0.12581421 -0.99202319
vn -0.61104168 0.28764903 -0.73748634
vn 0.63891737 0.36654524 0.67633511
vn 0.02080072 0.94138727 0.33668581
vn 0.21223065 0.73890780 0.63951029
vn -0.27832116 -0.89816391 0.34035118
vn 0.05987295 0.37159219 0.92646342
vn 0.42120901 0.18124670 0.88866901
vn 0.78220333 0.62030440 -0.05814117
vn 0.40043323 0.87184223 0.28203610
vn 0.19511834 0.22991149 -0.95345138
vn -0.20840454 0.45407357 -0.86624751
vn 0.14547231 0.97040199 -0.19276353
vn -0.73960885 -0.50808722 -0.44139114
vn -0.12459328 -0.11722176 -0.98525914
vn 0.27507272 -0.19254209 -0.94194615
vn -0.20353848 0.12721252 -0.97076725
vn 0.33941414 0.83381533 0.43537346
vn 0.41548132 0.64347956 0.64289139
vn 0.12138574 0.78852966 0.60289840
vn -0.03089330 -0.86767641 0.49616856
vn 0.80947976 0.55684160 0.18619866
vn 0.50604712 0.78515100 -0.35700732
vn 0.54049350 0.42547319 -0.72583699
vn -0.58377892 0.45143041 -0.67484277
vn 0.07106750 0.97257894 -0.22144892
vn 0.13512527 0.99064973 -0.01882198
vn 0.27101995 -0.80600361 -0.52621894
vn 0.06898003 0.01317797 -0.99753100
vn -0.23745380 -0.35885730 -0.90268329
vn 0.25840916 0.77563474 -0.57586062
vn -0.70764829 -0.35346951 -0.61179507
vn -0.06832869 -0.20643548 -0.97607150
vn -0.05557443 -0.30572791 -0.95049562
vn 0.19013530 0.91351111 -0.35964706
vn -0.24920895 -0.49138544 -0.83452696
f 10//10 8//8 2//2
f 15//15 9//9 2//2
f 18//18 6//6 2//2
f 18//18 2//2 9//9
f 20//20 10//10 2//2
f 20//20 2//2 6//6
f 20//20 19//19 10//10
f 20//20 6//6 11//11
f 20//20 11//11 19//19
f 21//21 8//8 10//10
f 23//23 13//13 7//7
f 24//24 23//23 14//14
f 24//24 13//13 23//23
f 24//24 17//17 13//13
f 24//24 5//5 17//17
f 26//26 14//14 23//23
f 27//27 8//8 1//1
f 27//27 15//15 2//2
f 27//27 2//2 8//8
f 28//28 7//7 13//13
f 28//28 23//23 7//7
f 30//30 17//17 5//5
f 31//31 17//17 1//1
f 31//31 13//13 17//17
f 32//32 1//1 17//17
f 32//32 27//27 1//1
f 32//32 15//15 27//27
f 32//32 17//17 9//9
f 32//32 9//9 15//15
f 33//33 10//10 19//19
f 33//33 3//3 21//21
f 34//34 21//21 3//3
f 34//34 3//3 16//16
f 35//35 4//4 22//22
f 36//36 22//22 4//4
f 36//36 12//12 22//22
f 38//38 24//24 14//14
f 38//38 5//5 24//24
f 40//40 11//11 6//6
f 41//41 14//14 26//26
f 41//41 39//39 14//14
f 41//41 36//36 4//4
f 41//41 26//26 36//36
f 42//42 34//34 16//16
f 42//42 21//21 34//34
f 43//43 8//8 21//21
f 43//43 42//42 29//29
f 43//43 21//21 42//42
f 43//43 29//29 31//31
f 43//43 31//31 1//1
f 43//43 1//1 8//8
f 44//44 28//28 13//13
f 44//44 31//31 29//29
f 44//44 13//13 31//31
f 44//44 16//16 28//28
f 44//44 42//42 16//16
f 44//44 29//29 42//42
f 45//45 9//9 17//17
f 45//45 17//17 30//30
f 46//46 33//33 21//21
f 46//46 21//21 10//10
f 46//46 10//10 33//33
f 47//47 33//33 19//19
f 47//47 3//3 33//33
f 48//48 35//35 22//22
f 48//48 11//11 35//35
f 48//48 22//22 47//47
f 48//48 47//47 19//19
f 48//48 19//19 11//11
f 49//49 36//36 26//26
f 49//49 26//26 23//23
f 49//49 23//23 12//12
f 49//49 12//12 36//36
f 50//50 37//37 12//12
f 50//50 12//12 23//23
f 50//50 23//23 37//37
f 51//51 37//37 23//23
f 51//51 23//23 28//28
f 51//51 28//28 16//16
f 51//51 16//16 3//3
f 51//51 47//47 37//37
f 51//51 3//3 47//47
f 52//52 30//30 5//5
f 52//52 5//5 38//38
f 52//52 45//45 30//30
f 52//52 9//9 45//45
f 52//52 18//18 9//9
f 52//52 40//40 6//6
f 52//52 6//6 18//18
f 53//53 25//25 39//39
f 53//53 40//40 25//25
f 53//53 35//35 11//11
f 53//53 11//11 40//40
f 53//53 4//4 35//35
f 53//53 41//41 4//4
f 53//53 39//39 41//41
f 54//54 14//14 39//39
f 55//55 47//47 22//22
f 55//55 22//22 12//12
f 56//56 38//38 14//14
f 56//56 14//14 54//54
f 56//56 52//52 38//38
f 57//57 54//54 39//39
f 57//57 39//39 25//25
f 58//58 25//25 40//40
f 58//58 40//40 52//52
f 58//58 52//52 54//54
f 58//58 57//57 25//25
f 58//58 54//54 57//57
f 59//59 55//55 12//12
f 59//59 12//12 37//37
f 59//59 37//37 47//47
f 59//59 47//47 55//55
f 60//60 56//56 54//54
f 60//60 54//54 52//52
f 60//60 52//52 56//56

