# https://github.com/mikedh/trimesh
v -0.01101147 0.02398031 0.02853426
v 0.00011986 0.03704078 0.02161511
v -0.03356214 0.06078279 0.00894221
v -0.03998371 0.04344616 -0.02776441
v -0.03065621 0.02021803 -0.02663779
v 0.00040136 0.07092311 -0.00715536
v -0.00546122 0.06162726 0.01861903
v -0.01144038 0.02085150 0.00497088
v -0.04600484 0.01984777 0.01014675
v -0.03498930 0.06040842 -0.00025752
v -0.00008062 0.05659799 -0.01982475
v -0.00024489 0.06084636 0.01827862
v -0.03455323 0.05068424 0.01708336
v -0.00470627 0.06887784 0.00838438
v -0.01108137 0.01991694 0.02916618
v -0.04502679 0.01984641 -0.00847215
v -0.04380318 0.04428838 -0.02648554
v -0.01101862 0.06902253 0.00374920
v -0.03175013 0.04279696 -0.02782239
v -0.03386677 0.04776618 -0.02478061
v -0.01242289 0.03265771 -0.02284453
v 0.00035520 0.03754092 0.00107230
v -0.00326254 0.06144725 0.01858850
v 0.00032934 0.06945054 0.00844240
v -0.01806663 0.06006010 0.01716863
v -0.04379055 0.05227714 0.01027790
v -0.04284739 0.03184206 0.01725929
v -0.04158448 0.04109878 0.01707513
v -0.02738007 0.01288137 0.00259122
v -0.00222892 0.07041312 -0.00652098
v -0.04733304 0.04020654 -0.00293935
v -0.04327505 0.03769827 -0.02626653
v -0.03288600 0.06165966 0.00102372
v -0.03335767 0.03906221 -0.02773678
v -0.03335399 0.04381532 -0.02768912
v -0.03397910 0.04747137 -0.02503031
v 0.00035266 0.06230147 -0.01483684
v -0.03344359 0.04889865 -0.02381383
v -0.01358175 0.03270209 -0.02340193
v -0.00003728 0.05475015 -0.01902111
v -0.00004790 0.05146381 0.01953139
v -0.00130429 0.07034248 0.00520003
v -0.02828375 0.05380030 0.01806121
v -0.03231732 0.06078288 0.00954201
v -0.01124006 0.06125224 0.01805685
v -0.03399846 0.05205121 0.01655037
v -0.03401826 0.06098232 0.00634610
v -0.04516090 0.05049903 -0.00413226
v -0.03692494 0.01955417 0.02003543
v -0.04590230 0.04293549 0.01014546
v -0.04299431 0.03682541 0.01695302
v -0.02621556 0.01312742 0.00310262
v -0.03340109 0.02009613 -0.02631631
v -0.04602224 0.01986067 -0.00603608
v -0.01132426 0.06883605 0.00266761
v -0.03008550 0.02194373 -0.02671242
v -0.03984941 0.04179861 -0.02771804
v 0.00013995 0.03973743 0.02090808
v 0.00013558 0.07038417 0.00520285
v -0.00418824 0.07016152 0.00302057
v -0.02272025 0.05669734 0.01788459
v -0.04436006 0.05190827 0.00797443
v -0.04599695 0.04350952 -0.01471016
v -0.04084511 0.02010580 0.01754509
vn 0.06798150 0.16963478 0.98315948
vn 0.85845531 -0.15529981 0.48881126
vn -0.42799591 0.80881807 0.40327761
vn -0.15152289 0.28870095 -0.94535315
vn 0.19097449 -0.63573421 -0.74791093
vn 0.55551048 0.76861959 -0.31722551
vn -0.03812080 0.56648695 0.82318852
vn 0.64820860 -0.74593752 -0.15297986
vn -0.79106878 -0.55985613 0.24651836
vn -0.52066071 0.83209316 -0.19113712
vn 0.63713725 0.28451634 -0.71631458
vn 0.67980462 0.35036958 0.64428785
vn -0.37358806 0.33916191 0.86336618
vn -0.15649478 0.89220290 0.42365479
vn 0.33579833 -0.56231811 0.75567044
vn -0.64682464 -0.69486090 -0.31430275
vn -0.67410723 0.36674639 -0.64115250
vn -0.24954801 0.95925355 0.13250817
vn 0.11166888 0.10200090 -0.98849678
vn -0.08498284 0.66382013 -0.74304828
vn 0.62980472 -0.44423160 -0.63718467
vn 0.93119581 -0.34042316 -0.13033202
vn 0.11798905 0.52543965 0.84261009
vn 0.63736550 0.68464141 0.35359772
vn -0.23131898 0.66614086 0.70904717
vn -0.74266174 0.51872310 0.42353263
vn -0.68168895 0.00273255 0.73163700
vn -0.51852246 0.21634032 0.82724321
vn -0.01354969 -0.99954965 -0.02677488
vn -0.26201605 0.92606521 -0.27157102
vn -0.99773462 0.06634601 -0.01112827
vn -0.71415198 -0.17502512 -0.67775597
vn -0.38753513 0.91425789 -0.11810604
vn 0.01209377 -0.04612264 -0.99886257
vn 0.00896979 0.35942220 -0.93313194
vn -0.06978978 0.63668358 -0.76796055
vn 0.68586761 0.47021892 -0.55540957
vn -0.11577752 0.70183095 -0.70287188
vn 0.33727145 -0.15255138 -0.92896504
vn 0.90798206 -0.20010472 -0.36813949
vn 0.92288602 0.06718128 0.37916760
vn -0.08556740 0.98068712 0.17587209
vn -0.27236783 0.43337979 0.85906794
vn -0.27312940 0.77489573 0.57003240
vn -0.15797631 0.59726892 0.78632902
vn -0.39986034 0.53470511 0.74444755
vn -0.49745625 0.86296738 0.08845660
vn -0.85431276 0.51037844 -0.09830339
vn -0.36564919 -0.57600188 0.73111046
vn -0.94824132 0.12267827 0.29289664
vn -0.68024424 0.07266295 0.72937499
vn 0.31374710 -0.94792291 -0.05481707
vn -0.31356278 -0.64932702 -0.69285843
vn -0.79512466 -0.59350692 -0.12460462
vn -0.29126999 0.95097718 -0.10394323
vn 0.16143072 -0.08167719 -0.98349833
vn -0.17422360 -0.06195264 -0.98275531
vn 0.99622673 0.01608409 0.08528545
vn 0.54239084 0.83053377 0.12659321
vn -0.13800291 0.98891618 0.05477203
vn -0.19430318 0.42827130 0.88251344
vn -0.86916664 0.48896357 0.07391869
vn -0.97977936 0.13500359 -0.14767001
vn -0.57953798 -0.56279267 0.58940660
f 15//15 12//12 1//1
f 15//15 2//2 12//12
f 18//18 3//3 14//14
f 21//21 8//8 5//5
f 22//22 8//8 21//21
f 22//22 15//15 8//8
f 22//22 2//2 15//15
f 23//23 7//7 1//1
f 23//23 1//1 12//12
f 24//24 23//23 12//12
f 24//24 14//14 7//7
f 24//24 7//7 23//23
f 24//24 22//22 6//6
f 28//28 15//15 1//1
f 28//28 1//1 13//13
f 28//28 13//13 26//26
f 30//30 17//17 10//10
f 30//30 6//6 17//17
f 30//30 18//18 6//6
f 33//33 30//30 10//10
f 34//34 4//4 19//19
f 35//35 19//19 4//4
f 35//35 4//4 11//11
f 35//35 11//11 19//19
f 36//36 20//20 11//11
f 36//36 11//11 4//4
f 36//36 4//4 17//17
f 36//36 17//17 20//20
f 37//37 11//11 20//20
f 37//37 6//6 22//22
f 38//38 20//20 17//17
f 38//38 17//17 6//6
f 38//38 37//37 20//20
f 38//38 6//6 37//37
f 39//39 19//19 11//11
f 39//39 11//11 21//21
f 39//39 21//21 5//5
f 40//40 22//22 21//21
f 40//40 21//21 11//11
f 40//40 37//37 22//22
f 40//40 11//11 37//37
f 41//41 24//24 12//12
f 41//41 12//12 2//2
f 42//42 18//18 14//14
f 42//42 14//14 24//24
f 43//43 25//25 3//3
f 43//43 13//13 1//1
f 44//44 25//25 14//14
f 44//44 14//14 3//3
f 44//44 3//3 25//25
f 45//45 7//7 14//14
f 45//45 14//14 25//25
f 45//45 43//43 1//1
f 45//45 1//1 7//7
f 46//46 26//26 13//13
f 46//46 3//3 26//26
f 46//46 43//43 3//3
f 46//46 13//13 43//43
f 47//47 26//26 3//3
f 47//47 33//33 10//10
f 47//47 3//3 18//18
f 47//47 18//18 33//33
f 48//48 10//10 17//17
f 49//49 29//29 15//15
f 49//49 9//9 29//29
f 50//50 31//31 9//9
f 51//51 15//15 28//28
f 51//51 49//49 15//15
f 51//51 27//27 49//49
f 51//51 28//28 26//26
f 51//51 26//26 50//50
f 51//51 50//50 9//9
f 51//51 9//9 27//27
f 52//52 29//29 5//5
f 52//52 5//5 8//8
f 52//52 8//8 15//15
f 52//52 15//15 29//29
f 53//53 29//29 16//16
f 53//53 5//5 29//29
f 53//53 16//16 32//32
f 54//54 29//29 9//9
f 54//54 16//16 29//29
f 54//54 9//9 31//31
f 54//54 32//32 16//16
f 54//54 17//17 32//32
f 55//55 33//33 18//18
f 55//55 18//18 30//30
f 55//55 30//30 33//33
f 56//56 34//34 19//19
f 56//56 5//5 34//34
f 56//56 39//39 5//5
f 56//56 19//19 39//39
f 57//57 34//34 5//5
f 57//57 4//4 34//34
f 57//57 5//5 53//53
f 57//57 53//53 32//32
f 57//57 32//32 17//17
f 57//57 17//17 4//4
f 58//58 41//41 2//2
f 58//58 24//24 41//41
f 58//58 2//2 22//22
f 58//58 22//22 24//24
f 59//59 42//42 24//24
f 59//59 24//24 6//6
f 59//59 6//6 42//42
f 60//60 42//42 6//6
f 60//60 6//6 18//18
f 60//60 18//18 42//42
f 61//61 45//45 25//25
f 61//61 25//25 43//43
f 61//61 43//43 45//45
f 62//62 47//47 10//10
f 62//62 26//26 47//47
f 62//62 10//10 48//48
f 62//62 50//50 26//26
f 62//62 48//48 31//31
f 62//62 31//31 50//50
f 63//63 48//48 17//17
f 63//63 31//31 48//48
f 63//63 54//54 31//31
f 63//63 17//17 54//54
f 64//64 49//49 27//27
f 64//64 27//27 9//9
f 64//64 9//9 49//49

