# https://github.com/mikedh/trimesh
v 0.01550305 0.00175916 0.03593999
v 0.03257767 -0.03463300 0.01137357
v 0.02910003 -0.01420147 -0.00408792
v -0.03276382 -0.01396400 0.00042859
v -0.02225772 -0.03463896 0.03035349
v 0.03445400 -0.03714221 -0.00654441
v -0.02311600 0.00375200 0.00682700
v 0.03004134 0.00214902 0.02085090
v 0.01129100 -0.03430518 0.02829430
v 0.02188000 -0.01456052 -0.00544617
v -0.03704300 -0.03728000 0.00020900
v -0.02201788 0.00149911 0.03176089
v 0.02188000 0.00184075 0.03250248
v 0.03096926 0.00153604 0.01490368
v -0.00708714 -0.01313288 0.03741916
v 0.02722189 -0.03653057 0.01668614
v 0.02505814 -0.01453492 -0.00535926
v -0.02811103 -0.00653515 0.00285700
v 0.01685069 -0.03477223 -0.00529959
v 0.00503385 0.00167733 0.03761429
v -0.03579106 -0.01455984 0.02188797
v 0.02809293 0.00242900 0.02588532
v 0.00921697 -0.00681094 0.03742595
v 0.03010300 -0.01429973 -0.00253340
v 0.03214621 -0.01682924 0.01002301
v -0.01562743 -0.01130146 0.03736089
v 0.02862572 -0.03502296 0.01741600
v -0.03503600 -0.03529500 0.02271100
v 0.01536253 0.00103618 0.03594700
v 0.01472805 -0.03424581 0.02636187
v 0.00648464 -0.00826847 0.03731088
v 0.00953286 -0.00311692 0.03750762
v -0.01487396 -0.01345500 0.03729502
v -0.02100440 -0.00682136 0.03444766
v -0.01299779 0.00086271 0.03728752
v 0.02908592 -0.03531563 0.01637730
v 0.03015070 -0.03438755 0.01609300
v -0.01587122 -0.00379349 0.03731554
v -0.01518100 0.00065451 0.03632063
vn 0.27294822 0.63312969 0.72432456
vn 0.85474959 -0.45338019 0.25268466
vn 0.48597991 0.46564353 -0.73959423
vn -0.65192943 0.31584776 -0.68936798
vn -0.21283183 -0.68729327 0.69450023
vn 0.61576524 -0.53877192 -0.57494173
vn -0.38475143 0.82427166 -0.41538243
vn 0.72024677 0.67598974 0.15582835
vn 0.21329565 -0.68854145 0.69312022
vn -0.02546012 0.30470010 -0.95210799
vn -0.64208577 -0.56790936 -0.51498041
vn -0.51918152 0.72026515 0.46007462
vn 0.49161453 0.52782400 0.69261604
vn 0.69220036 0.69035264 -0.21040889
vn 0.03288427 -0.18556051 0.98208244
vn 0.28542379 -0.89996147 0.32954910
vn 0.13108262 0.43061398 -0.89296637
vn -0.21380505 0.42972836 -0.87728042
vn -0.09036423 -0.07294663 -0.99323366
vn 0.02286858 0.67366331 0.73868449
vn -0.91204354 0.24845349 0.32626284
vn 0.64344963 0.63567948 0.42647881
vn 0.24254573 -0.16665053 0.95571919
vn 0.85996626 0.32008385 -0.39749762
vn 0.99408451 0.03577927 0.10254672
vn -0.28002734 -0.05333876 0.95850909
vn 0.58115848 -0.47543515 0.66046668
vn -0.66202218 -0.61288200 0.43139575
vn 0.40061047 -0.11716373 0.90872653
vn 0.44954674 -0.46775485 0.76099483
vn 0.11334126 -0.29009992 0.95026091
vn 0.15148260 0.00852596 0.98842315
vn -0.15938099 -0.17483839 0.97161167
vn -0.58760517 0.05927154 0.80697401
vn -0.13490563 0.62546601 0.76850032
vn 0.60037909 -0.70244095 0.38225864
vn 0.77504886 -0.35531128 0.52254488
vn -0.31644051 0.09970258 0.94335826
vn -0.42354040 0.46220499 0.77908926
f 11//11 4//4 10//10
f 14//14 7//7 8//8
f 14//14 8//8 2//2
f 15//15 5//5 9//9
f 16//16 6//6 2//2
f 16//16 9//9 5//5
f 16//16 11//11 6//6
f 17//17 3//3 6//6
f 17//17 6//6 10//10
f 17//17 10//10 7//7
f 17//17 14//14 3//3
f 17//17 7//7 14//14
f 18//18 10//10 4//4
f 18//18 4//4 7//7
f 18//18 7//7 10//10
f 19//19 11//11 10//10
f 19//19 10//10 6//6
f 19//19 6//6 11//11
f 20//20 7//7 12//12
f 21//21 12//12 7//7
f 21//21 7//7 4//4
f 21//21 4//4 11//11
f 22//22 2//2 8//8
f 22//22 8//8 7//7
f 22//22 1//1 13//13
f 22//22 20//20 1//1
f 22//22 7//7 20//20
f 24//24 14//14 6//6
f 24//24 6//6 3//3
f 24//24 3//3 14//14
f 25//25 14//14 2//2
f 25//25 2//2 6//6
f 25//25 6//6 14//14
f 26//26 15//15 20//20
f 28//28 16//16 5//5
f 28//28 11//11 16//16
f 28//28 21//21 11//11
f 28//28 5//5 26//26
f 29//29 23//23 13//13
f 29//29 13//13 1//1
f 29//29 1//1 23//23
f 30//30 23//23 9//9
f 30//30 13//13 23//23
f 30//30 27//27 13//13
f 30//30 9//9 16//16
f 30//30 16//16 27//27
f 31//31 23//23 15//15
f 31//31 15//15 9//9
f 31//31 9//9 23//23
f 32//32 20//20 15//15
f 32//32 15//15 23//23
f 32//32 23//23 1//1
f 32//32 1//1 20//20
f 33//33 26//26 5//5
f 33//33 5//5 15//15
f 33//33 15//15 26//26
f 34//34 12//12 21//21
f 34//34 28//28 26//26
f 34//34 21//21 28//28
f 35//35 20//20 12//12
f 36//36 27//27 16//16
f 36//36 16//16 2//2
f 37//37 22//22 13//13
f 37//37 13//13 27//27
f 37//37 2//2 22//22
f 37//37 36//36 2//2
f 37//37 27//27 36//36
f 38//38 26//26 20//20
f 38//38 20//20 35//35
f 38//38 34//34 26//26
f 38//38 12//12 34//34
f 39//39 38//38 35//35
f 39//39 35//35 12//12
f 39//39 12//12 38//38

