# https://github.com/mikedh/trimesh
v -0.02677991 0.03811800 0.00360373
v -0.01106325 0.03832196 -0.00084251
v -0.01543348 0.04215017 -0.01676754
v -0.04385920 0.03867050 -0.02626300
v -0.04929274 0.01242318 -0.00988050
v -0.04714655 0.03811464 -0.00322782
v -0.01765343 0.02217223 0.00352224
v -0.03345173 0.01353753 -0.02576790
v -0.04495549 0.03860029 -0.02122223
v -0.01189549 0.03686884 -0.00014357
v -0.04928542 0.01260317 -0.00319661
v -0.03467239 0.01312542 -0.02497454
v -0.01373985 0.03287200 -0.02383628
v -0.03238800 0.01502900 -0.00376100
v -0.02448693 0.03835514 -0.02582727
v -0.01121000 0.03708149 -0.01767022
v -0.01385800 0.02757700 -0.01925900
v -0.02898951 0.02508879 -0.02626300
v -0.01253400 0.04077931 -0.01656063
v -0.01244753 0.03260462 -0.02274253
v -0.01090413 0.03284027 -0.01699800
v -0.03106500 0.01831200 -0.02604600
v -0.01951854 0.03715322 -0.02389635
v -0.01218387 0.04085784 -0.01594512
v -0.01436441 0.03222029 -0.02390330
v -0.01253400 0.03344600 -0.02229200
v -0.01136988 0.03211921 -0.01765900
v -0.03300875 0.01434100 -0.02590635
v -0.01129531 0.03851146 -0.01563108
v -0.04297700 0.03718300 -0.02626300
vn -0.06092283 0.58915763 0.80571812
vn 0.74262774 0.46804859 0.47899327
vn 0.20981392 0.95053994 -0.22902389
vn -0.53095654 0.52460115 -0.66549139
vn -0.71272796 -0.67188750 -0.20145978
vn -0.67310261 0.58438176 0.45324478
vn 0.50019790 -0.52450838 0.68897969
vn 0.12384449 -0.71691748 -0.68606987
vn -0.71672664 0.68765567 -0.11589912
vn 0.53890627 0.05787357 0.84037533
vn -0.61115944 -0.60696229 0.50801665
vn -0.21615927 -0.83270444 -0.50978279
vn 0.50293195 0.08180168 -0.86044636
vn 0.24446223 -0.93204340 0.26745712
vn 0.13978145 0.52745819 -0.83800298
vn 0.92127750 0.24441128 -0.30250768
vn 0.74630492 -0.61297486 -0.25940468
vn 0.09410953 -0.04127869 -0.99470572
vn 0.56143086 0.64315989 -0.52071177
vn 0.80531031 -0.10560890 -0.58337129
vn 0.97369260 -0.21331263 -0.08012772
vn 0.12155084 -0.09042321 -0.98845791
vn 0.41731714 0.57332922 -0.70508156
vn 0.69537318 0.70314562 -0.14846675
vn 0.38259113 -0.29091636 -0.87692172
vn 0.69207608 0.42375451 -0.58434820
vn 0.89273476 -0.40631183 -0.19476998
vn 0.17157353 -0.23031867 -0.95787047
vn 0.96884160 0.23729803 -0.07096192
vn -0.04915554 -0.03002231 -0.99833982
f 1//1 2//2 3//3
f 6//6 1//1 3//3
f 9//9 6//6 3//3
f 9//9 3//3 4//4
f 9//9 4//4 5//5
f 9//9 5//5 6//6
f 10//10 7//7 2//2
f 10//10 2//2 1//1
f 10//10 1//1 7//7
f 11//11 6//6 5//5
f 11//11 7//7 1//1
f 11//11 1//1 6//6
f 12//12 5//5 4//4
f 12//12 4//4 8//8
f 12//12 11//11 5//5
f 14//14 12//12 8//8
f 14//14 8//8 7//7
f 14//14 7//7 11//11
f 14//14 11//11 12//12
f 15//15 4//4 3//3
f 17//17 7//7 8//8
f 18//18 15//15 13//13
f 18//18 4//4 15//15
f 19//19 15//15 3//3
f 20//20 17//17 8//8
f 21//21 16//16 2//2
f 21//21 2//2 7//7
f 21//21 7//7 17//17
f 21//21 20//20 16//16
f 22//22 18//18 13//13
f 23//23 19//19 13//13
f 23//23 13//13 15//15
f 23//23 15//15 19//19
f 24//24 19//19 3//3
f 24//24 3//3 2//2
f 24//24 16//16 19//19
f 25//25 20//20 8//8
f 25//25 13//13 20//20
f 25//25 22//22 13//13
f 26//26 19//19 16//16
f 26//26 16//16 20//20
f 26//26 20//20 13//13
f 26//26 13//13 19//19
f 27//27 21//21 17//17
f 27//27 17//17 20//20
f 27//27 20//20 21//21
f 28//28 8//8 4//4
f 28//28 18//18 22//22
f 28//28 25//25 8//8
f 28//28 22//22 25//25
f 29//29 24//24 2//2
f 29//29 2//2 16//16
f 29//29 16//16 24//24
f 30//30 28//28 4//4
f 30//30 4//4 18//18
f 30//30 18//18 28//28

