# https://github.com/mikedh/trimesh
v 0.02761161 -0.04150325 0.01478897
v 0.05145373 -0.06600969 -0.00173937
v 0.04878732 -0.04817680 -0.00142833
v 0.02875264 -0.03559811 -0.00218336
v 0.01658600 -0.07387118 -0.00088366
v 0.04938339 -0.07001896 -0.00230586
v 0.04116884 -0.03931953 0.00126503
v 0.04109891 -0.04661212 0.00812859
v 0.01628829 -0.06172126 0.01139057
v 0.05045134 -0.05124644 -0.00128427
v 0.04733977 -0.07208224 -0.00219129
v 0.04127674 -0.03930502 -0.00093817
v 0.02868818 -0.04106724 0.01350722
v 0.04173400 -0.05774600 0.00815100
v 0.03952549 -0.04233130 0.00815100
v 0.02433634 -0.07163194 0.00682700
v 0.04996256 -0.05140382 -0.00000459
v 0.02732622 -0.04522200 0.01468011
v 0.04869399 -0.06944484 -0.00136302
v 0.04851624 -0.04857263 -0.00030476
v 0.01649105 -0.07191856 0.00698573
v 0.04331070 -0.07365243 -0.00136689
v 0.05103750 -0.06585614 -0.00102724
v 0.02059259 -0.06526348 0.01000145
v 0.04305800 -0.07318972 -0.00049824
v 0.04672286 -0.07169400 -0.00138571
v 0.01613846 -0.07302665 0.00312378
v 0.02481740 -0.07007982 0.00768829
v 0.01604869 -0.06507600 0.01054440
v 0.01617000 -0.07015329 0.00816043
vn -0.25825224 0.55745050 0.78902137
vn 0.91970412 -0.18725259 -0.34508086
vn 0.71720533 0.46474437 -0.51925830
vn -0.32531949 0.79908866 -0.50559325
vn -0.59875663 -0.59962419 -0.53098147
vn 0.71994161 -0.56514794 -0.40285468
vn 0.53481006 0.80897806 0.24399322
vn 0.60936770 0.13798649 0.78078853
vn -0.77520744 0.05922577 0.62892426
vn 0.86565885 0.25003162 -0.43372681
vn 0.53961254 -0.74344233 -0.39510987
vn 0.47431612 0.69657800 -0.53833383
vn 0.20267720 0.87421190 0.44122046
vn 0.46803398 -0.18371498 0.86440326
vn 0.54760955 0.53492824 0.64340932
vn 0.10868825 -0.75290907 0.64908766
vn 0.82516849 0.20277381 0.52723784
vn 0.05473552 -0.08944224 0.99448686
vn 0.50884084 -0.42735589 0.74729375
vn 0.77522793 0.47826338 0.41265699
vn -0.48161301 -0.71220409 0.51069976
vn 0.20432431 -0.94746012 -0.24611155
vn 0.71624018 -0.22665139 0.66002209
vn 0.12841317 -0.30650151 0.94316853
vn 0.28744160 -0.67950922 0.67501448
vn 0.44713173 -0.52070758 0.72728043
vn -0.74098605 -0.66266590 0.10869035
vn 0.17904303 -0.43339608 0.88323917
vn -0.70911652 -0.19682453 0.67706268
vn -0.65994757 -0.38667911 0.64416494
f 6//6 4//4 3//3
f 9//9 1//1 4//4
f 9//9 4//4 5//5
f 10//10 6//6 3//3
f 10//10 2//2 6//6
f 11//11 5//5 4//4
f 11//11 4//4 6//6
f 12//12 7//7 3//3
f 12//12 3//3 4//4
f 12//12 4//4 7//7
f 13//13 7//7 4//4
f 13//13 4//4 1//1
f 14//14 8//8 1//1
f 15//15 7//7 13//13
f 15//15 13//13 1//1
f 15//15 1//1 8//8
f 17//17 8//8 14//14
f 17//17 15//15 8//8
f 17//17 2//2 10//10
f 18//18 14//14 1//1
f 18//18 1//1 9//9
f 20//20 3//3 7//7
f 20//20 7//7 15//15
f 20//20 15//15 17//17
f 20//20 17//17 10//10
f 20//20 10//10 3//3
f 22//22 5//5 11//11
f 22//22 16//16 21//21
f 23//23 17//17 14//14
f 23//23 2//2 17//17
f 23//23 14//14 19//19
f 23//23 19//19 6//6
f 23//23 6//6 2//2
f 24//24 14//14 18//18
f 25//25 22//22 11//11
f 25//25 16//16 22//22
f 26//26 11//11 6//6
f 26//26 6//6 19//19
f 26//26 25//25 11//11
f 26//26 19//19 14//14
f 26//26 14//14 25//25
f 27//27 9//9 5//5
f 27//27 22//22 21//21
f 27//27 5//5 22//22
f 28//28 14//14 24//24
f 28//28 25//25 14//14
f 28//28 16//16 25//25
f 29//29 24//24 18//18
f 29//29 18//18 9//9
f 29//29 28//28 24//24
f 29//29 9//9 27//27
f 30//30 21//21 16//16
f 30//30 16//16 28//28
f 30//30 28//28 29//29
f 30//30 29//29 27//27
f 30//30 27//27 21//21

