# https://github.com/mikedh/trimesh
v -0.04840828 0.04470841 0.01998658
v -0.04344935 0.02074657 0.01151692
v -0.04108093 0.04881559 -0.00708357
v -0.05082297 0.04700068 -0.01349226
v -0.05969241 0.02051971 -0.00218340
v -0.05264041 0.05316780 0.00410486
v -0.04217184 0.04754651 0.01463269
v -0.05616742 0.02056001 0.01624582
v -0.04563809 0.02066598 -0.01384347
v -0.04730896 0.05313177 -0.00895775
v -0.05743827 0.04766617 -0.00607004
v -0.04392120 0.03980353 0.01791537
v -0.03986505 0.04077768 -0.00318938
v -0.04641837 0.05106887 0.01618078
v -0.05537483 0.04845795 0.01555596
v -0.05502673 0.02038506 0.01680320
v -0.05470906 0.02053207 -0.01371258
v -0.04442693 0.04055803 -0.01342872
v -0.05162298 0.05229292 -0.01072160
v -0.04395381 0.04585861 0.01793085
v -0.04207792 0.03978345 0.01447319
v -0.03981008 0.04390166 -0.00214580
v -0.04204673 0.04180700 -0.01072590
v -0.04196875 0.02183043 -0.00618823
v -0.04631507 0.05310574 0.00409939
v -0.05302171 0.04666410 0.01874429
v -0.05538210 0.05143456 0.00818438
v -0.05744706 0.04704783 0.00730534
v -0.05871949 0.02057705 0.01044711
v -0.05332497 0.02076948 0.01740896
v -0.05300724 0.02062932 -0.01470058
v -0.05429054 0.04068612 -0.01197581
v -0.05967839 0.02055571 -0.00696692
v -0.04375766 0.04968058 -0.01150657
v -0.05193429 0.05061045 -0.01232036
v -0.05246194 0.05320009 -0.00706276
v -0.04549848 0.04664231 0.01885155
v -0.04311445 0.04951539 0.01522377
v -0.04308399 0.03677873 0.01631403
v -0.04305641 0.02079880 0.00940789
v -0.03984593 0.04378152 -0.00503487
v -0.04105425 0.04763330 0.00523043
v -0.04091435 0.04391560 0.00837618
v -0.04496011 0.02390931 -0.01357898
v -0.05013366 0.05325069 0.00739819
v -0.04261764 0.05199973 -0.00719576
v -0.05538084 0.04669986 0.01644458
v -0.04740361 0.04856255 0.01885265
v -0.05284958 0.04081964 0.01875819
v -0.05209953 0.05211537 0.01421435
v -0.05961582 0.02261641 -0.00619269
v -0.05636696 0.04959049 0.00914134
v -0.04389602 0.03569226 0.01702775
v -0.04843945 0.04074870 0.01992485
v -0.05265679 0.02793008 -0.01456833
v -0.05874518 0.02671036 -0.00835973
v -0.04198259 0.04479354 -0.01074392
v -0.04564667 0.04967841 -0.01264533
v -0.05325754 0.05134003 -0.00965182
v -0.05749661 0.04579972 -0.00663847
v -0.05351852 0.04138673 -0.01255737
v -0.05181689 0.05299152 -0.00880604
v -0.05543800 0.05129220 0.00557214
v -0.04310380 0.04850720 0.01593987
vn 0.04741073 0.08966577 0.99484284
vn 0.62497987 -0.68800235 0.36885354
vn 0.92731655 0.30513946 -0.21673471
vn -0.20580897 0.14998625 -0.96702988
vn -0.73965522 -0.67250566 0.02542242
vn -0.29957498 0.95380825 0.02246470
vn 0.93683569 0.18782981 0.29505736
vn -0.62893615 -0.55876262 0.54057715
vn 0.43138219 -0.63615361 -0.63970149
vn 0.16585938 0.92796134 -0.33373404
vn -0.90266114 0.35127611 -0.24861208
vn 0.65408363 -0.07668874 0.75252471
vn 0.99708143 -0.07600469 -0.00720462
vn 0.25830059 0.83103143 0.49261301
vn -0.76962350 0.45165843 0.45131400
vn -0.25149395 -0.72244436 0.64406905
vn -0.49286952 -0.65218774 -0.57596075
vn 0.44246745 0.03616528 -0.89605504
vn -0.28633819 0.79005242 -0.54205868
vn 0.70832633 0.11146130 0.69702955
vn 0.95158061 -0.04142763 0.30459496
vn 0.99373246 0.10371541 0.04170017
vn 0.86636253 -0.03967121 -0.49783749
vn 0.82531804 -0.54682787 -0.14081699
vn 0.30638049 0.94917445 0.07210306
vn -0.43276847 0.30115011 0.84971764
vn -0.68539279 0.72110444 0.10121812
vn -0.97389610 0.20595879 0.09543251
vn -0.75797258 -0.62734720 0.17864225
vn 0.06904111 -0.58560946 0.80764775
vn -0.15613073 -0.60344359 -0.78197124
vn -0.72871511 0.10726838 -0.67636365
vn -0.74282657 -0.62675297 -0.23534953
vn 0.60787412 0.45157167 -0.65312486
vn -0.40026157 0.46222993 -0.79128640
vn -0.41787952 0.89971074 -0.12608449
vn 0.44594027 0.23698463 0.86311967
vn 0.69324897 0.61771742 0.37125606
vn 0.86092954 -0.11616128 0.49528464
vn 0.71529185 -0.69441119 0.07842624
vn 0.98382584 0.06013254 -0.16873288
vn 0.94004573 0.32989713 0.08649804
vn 0.99122896 0.02334728 0.13007713
vn 0.70314308 -0.06592642 -0.70798553
vn 0.00481352 0.99383461 0.11076825
vn 0.64216626 0.73949438 -0.20191720
vn -0.83969845 0.15453648 0.52060060
vn 0.11879031 0.52343274 0.84374583
vn -0.40005684 -0.02526866 0.91614192
vn -0.28242879 0.86881805 0.40668068
vn -0.99550963 0.07157988 -0.06194275
vn -0.89583911 0.42135367 0.14118560
vn 0.59159011 -0.20475558 0.77980529
vn 0.08683376 -0.07813609 0.99315389
vn -0.26691190 0.05167539 -0.96233450
vn -0.87913866 0.06746667 -0.47176633
vn 0.82613404 0.08721166 -0.55668364
vn 0.27443553 0.44901561 -0.85033530
vn -0.72544353 0.56985471 -0.38600166
vn -0.89915033 0.13100051 -0.41757342
vn -0.59152827 0.10868640 -0.79892526
vn -0.32197178 0.90355995 -0.28268992
vn -0.75641846 0.65361349 -0.02491024
vn 0.72000770 0.34509232 0.60207990
f 16//16 9//9 2//2
f 17//17 16//16 5//5
f 17//17 9//9 16//16
f 20//20 12//12 7//7
f 21//21 7//7 12//12
f 29//29 16//16 8//8
f 29//29 5//5 16//16
f 29//29 28//28 5//5
f 30//30 16//16 2//2
f 31//31 9//9 17//17
f 33//33 17//17 5//5
f 36//36 27//27 6//6
f 37//37 12//12 20//20
f 38//38 25//25 14//14
f 39//39 21//21 12//12
f 39//39 2//2 21//21
f 40//40 21//21 2//2
f 40//40 24//24 13//13
f 40//40 2//2 9//9
f 40//40 9//9 24//24
f 41//41 22//22 13//13
f 41//41 3//3 22//22
f 41//41 24//24 23//23
f 41//41 13//13 24//24
f 42//42 22//22 3//3
f 42//42 38//38 7//7
f 43//43 13//13 22//22
f 43//43 40//40 13//13
f 43//43 21//21 40//40
f 43//43 7//7 21//21
f 43//43 42//42 7//7
f 43//43 22//22 42//42
f 44//44 9//9 18//18
f 44//44 24//24 9//9
f 44//44 23//23 24//24
f 45//45 14//14 25//25
f 45//45 36//36 6//6
f 45//45 25//25 10//10
f 45//45 10//10 36//36
f 46//46 10//10 25//25
f 46//46 34//34 10//10
f 46//46 3//3 34//34
f 46//46 25//25 38//38
f 46//46 42//42 3//3
f 46//46 38//38 42//42
f 47//47 26//26 15//15
f 47//47 8//8 26//26
f 47//47 29//29 8//8
f 47//47 15//15 28//28
f 47//47 28//28 29//29
f 48//48 26//26 1//1
f 48//48 1//1 37//37
f 48//48 38//38 14//14
f 49//49 26//26 8//8
f 49//49 8//8 16//16
f 49//49 16//16 30//30
f 49//49 1//1 26//26
f 50//50 27//27 15//15
f 50//50 14//14 45//45
f 50//50 45//45 6//6
f 50//50 6//6 27//27
f 50//50 48//48 14//14
f 50//50 15//15 26//26
f 50//50 26//26 48//48
f 51//51 28//28 11//11
f 51//51 5//5 28//28
f 51//51 33//33 5//5
f 51//51 11//11 33//33
f 52//52 27//27 11//11
f 52//52 11//11 28//28
f 52//52 28//28 15//15
f 52//52 15//15 27//27
f 53//53 30//30 2//2
f 53//53 39//39 12//12
f 53//53 2//2 39//39
f 54//54 49//49 30//30
f 54//54 1//1 49//49
f 54//54 37//37 1//1
f 54//54 12//12 37//37
f 54//54 53//53 12//12
f 54//54 30//30 53//53
f 55//55 31//31 17//17
f 55//55 4//4 18//18
f 55//55 18//18 9//9
f 55//55 9//9 31//31
f 56//56 32//32 17//17
f 56//56 17//17 33//33
f 57//57 18//18 34//34
f 57//57 44//44 18//18
f 57//57 23//23 44//44
f 57//57 34//34 3//3
f 57//57 41//41 23//23
f 57//57 3//3 41//41
f 58//58 34//34 18//18
f 58//58 18//18 4//4
f 58//58 4//4 35//35
f 58//58 35//35 19//19
f 58//58 19//19 10//10
f 58//58 10//10 34//34
f 59//59 35//35 11//11
f 59//59 19//19 35//35
f 59//59 11//11 36//36
f 60//60 35//35 32//32
f 60//60 11//11 35//35
f 60//60 32//32 56//56
f 60//60 56//56 33//33
f 60//60 33//33 11//11
f 61//61 35//35 4//4
f 61//61 32//32 35//35
f 61//61 4//4 55//55
f 61//61 55//55 17//17
f 61//61 17//17 32//32
f 62//62 36//36 10//10
f 62//62 10//10 19//19
f 62//62 59//59 36//36
f 62//62 19//19 59//59
f 63//63 36//36 11//11
f 63//63 11//11 27//27
f 63//63 27//27 36//36
f 64//64 20//20 7//7
f 64//64 7//7 38//38
f 64//64 37//37 20//20
f 64//64 48//48 37//37
f 64//64 38//38 48//48

