# https://github.com/mikedh/trimesh
v 0.02256593 0.00053536 0.01589832
v 0.03030061 -0.02966975 0.00843461
v 0.02983348 -0.01257904 -0.01408067
v 0.01796283 0.00025686 -0.01682242
v 0.01551621 -0.02847053 0.00842950
v 0.02358911 0.00021463 -0.01576957
v 0.02997700 -0.01495029 0.01219061
v 0.01579415 0.00032098 0.01543819
v 0.02536981 -0.02616501 -0.01678703
v 0.02363866 0.00036563 0.01539431
v 0.01611466 0.00040538 -0.01591181
v 0.03024441 -0.01792860 -0.01786339
v 0.02393152 -0.02179758 0.01467577
v 0.02311035 -0.02908325 -0.01051679
v 0.02983691 -0.01146402 -0.01100780
v 0.02051587 0.00033948 -0.01673901
v 0.01554027 -0.01771108 -0.01778883
v 0.03033316 -0.02928623 -0.01207219
v 0.03015545 -0.01498040 -0.01671903
v 0.01548861 -0.02181098 0.01437210
v 0.02987451 -0.01271958 0.00816506
v 0.01554946 -0.02826555 -0.01204857
v 0.01574201 -0.02377762 -0.01771946
v 0.03015974 -0.02549735 -0.01691389
v 0.01691505 0.00023140 0.01592662
v 0.02979141 -0.01356510 0.01092028
v 0.03027808 -0.02818690 -0.01397706
v 0.01560559 -0.02580950 -0.01596383
v 0.03023545 -0.02262714 -0.01779645
v 0.02907355 -0.02379783 -0.01769129
v 0.02786958 -0.02586652 -0.01696735
v 0.01572087 -0.02527322 -0.01674085
vn 0.18161135 0.66479873 0.72461022
vn 0.61344618 -0.69089245 0.38255903
vn 0.93216795 0.32619599 -0.15703212
vn -0.15007572 0.60790333 -0.77969919
vn -0.65258215 -0.68964386 0.31389151
vn 0.51207553 0.72673860 -0.45785332
vn 0.84059793 0.04341499 0.53991689
vn -0.66894613 0.58788596 0.45486391
vn -0.03094839 -0.67043429 -0.74132318
vn 0.60688803 0.62426163 0.49191904
vn -0.65503110 0.64003951 -0.40160141
vn 0.70053733 0.05563150 -0.71144402
vn 0.19846282 -0.31618634 0.92770615
vn -0.06996978 -0.99363361 -0.08829763
vn 0.95500752 0.29411917 -0.03813852
vn 0.10073731 0.72174002 -0.68479438
vn -0.70382900 0.02299200 -0.70999726
vn 0.64023859 -0.73762054 -0.21450055
vn 0.89250132 0.22780876 -0.38928725
vn -0.65927985 -0.28500162 0.69579031
vn 0.96771092 0.24799672 0.04509096
vn -0.68262125 -0.69850661 -0.21474809
vn -0.61103439 -0.22000640 -0.76041710
vn 0.66175437 -0.40530348 -0.63072200
vn -0.16405831 0.52223877 0.83687009
vn 0.94384171 0.29368538 0.15136621
vn 0.66321387 -0.61508260 -0.42640445
vn -0.72121095 -0.56536570 -0.40027040
vn 0.68764753 -0.07746343 -0.72190047
vn 0.07579732 -0.23920655 -0.96800568
vn 0.05159019 -0.57117701 -0.81920405
vn -0.58268802 -0.53835890 -0.60880569
f 10//10 6//6 1//1
f 10//10 1//1 7//7
f 11//11 8//8 1//1
f 12//12 7//7 2//2
f 13//13 2//2 7//7
f 13//13 7//7 1//1
f 14//14 2//2 5//5
f 15//15 3//3 6//6
f 15//15 6//6 10//10
f 16//16 4//4 11//11
f 16//16 12//12 4//4
f 16//16 6//6 12//12
f 16//16 11//11 1//1
f 16//16 1//1 6//6
f 17//17 8//8 11//11
f 17//17 11//11 4//4
f 17//17 4//4 12//12
f 18//18 12//12 2//2
f 18//18 2//2 14//14
f 19//19 12//12 6//6
f 19//19 6//6 3//3
f 19//19 3//3 15//15
f 19//19 7//7 12//12
f 20//20 5//5 2//2
f 20//20 2//2 13//13
f 20//20 8//8 17//17
f 21//21 15//15 10//10
f 21//21 19//19 15//15
f 21//21 7//7 19//19
f 22//22 14//14 5//5
f 22//22 20//20 17//17
f 22//22 5//5 20//20
f 22//22 18//18 14//14
f 23//23 17//17 12//12
f 25//25 20//20 13//13
f 25//25 13//13 1//1
f 25//25 1//1 8//8
f 25//25 8//8 20//20
f 26//26 21//21 10//10
f 26//26 10//10 7//7
f 26//26 7//7 21//21
f 27//27 22//22 9//9
f 27//27 18//18 22//22
f 28//28 22//22 17//17
f 28//28 17//17 23//23
f 28//28 9//9 22//22
f 29//29 23//23 12//12
f 29//29 27//27 24//24
f 29//29 12//12 18//18
f 29//29 18//18 27//27
f 30//30 29//29 24//24
f 30//30 23//23 29//29
f 31//31 27//27 9//9
f 31//31 24//24 27//27
f 31//31 30//30 24//24
f 31//31 9//9 23//23
f 31//31 23//23 30//30
f 32//32 28//28 23//23
f 32//32 23//23 9//9
f 32//32 9//9 28//28

