# https://github.com/mikedh/trimesh
v -0.04657332 0.03608806 0.02448881
v -0.04360960 0.01816289 0.01692753
v -0.04211435 0.03571435 0.01862762
v -0.05702605 0.03596249 0.01797805
v -0.05728849 0.01800025 0.02081171
v -0.04291027 0.02762660 0.01692596
v -0.04405626 0.03310859 0.02243837
v -0.04666284 0.01830648 0.02213467
v -0.05396378 0.03605290 0.02342793
v -0.05872934 0.01808643 0.01704392
v -0.04309720 0.02446941 0.01686415
v -0.04307677 0.03306431 0.02081051
v -0.04482724 0.03597005 0.02362657
v -0.04416294 0.01808241 0.01873966
v -0.05348521 0.01818581 0.02281958
v -0.05203349 0.03611777 0.02442074
v -0.05568405 0.03592684 0.02155271
v -0.05823577 0.02326923 0.01690048
v -0.04483096 0.03301170 0.02316545
v -0.04623724 0.02152302 0.02237121
v -0.04517225 0.01826329 0.02062013
v -0.04963919 0.01929527 0.02323976
v -0.05654939 0.03592279 0.01983319
v -0.04779748 0.02139683 0.02309716
v -0.04424924 0.02035091 0.01955642
v -0.05039885 0.01914096 0.02325112
v -0.05799615 0.01803235 0.01971595
v -0.04756235 0.03086733 0.02418170
v -0.05124517 0.03091038 0.02432266
v -0.04973271 0.02971044 0.02439235
vn 0.20931953 0.64636220 0.73375830
vn 0.63106732 -0.58544761 -0.50892548
vn 0.72913528 0.57986290 -0.36348421
vn -0.62303640 0.61679462 -0.48103018
vn -0.52400481 -0.65916444 0.53937111
vn 0.61392136 0.03444586 -0.78861527
vn 0.79000136 -0.07945131 0.60793530
vn 0.36661664 -0.68400029 0.63066302
vn -0.45567876 0.65732204 0.60023713
vn -0.68383491 -0.54278922 -0.48759582
vn 0.68754074 -0.05106805 -0.72434784
vn 0.90417387 -0.05480845 0.42363385
vn 0.53893242 0.60978343 0.58113339
vn 0.62821904 -0.73605908 0.25210687
vn -0.19769115 -0.67326763 0.71248082
vn -0.19176044 0.65905230 0.72723999
vn -0.64188557 0.63270002 0.43321310
vn -0.69558268 0.08090193 -0.71387647
vn 0.63655448 -0.12520202 0.76100122
vn 0.57784420 -0.13218276 0.80537184
vn 0.59660550 -0.64531715 0.47710341
vn 0.14262019 -0.31322268 0.93890949
vn -0.69993354 0.66148625 0.26931206
vn 0.31811433 -0.13182074 0.93884320
vn 0.87391866 -0.12857957 0.46875738
vn 0.02023163 -0.36606044 0.93037113
vn -0.70614956 -0.64332149 0.29578753
vn 0.22910071 -0.10385945 0.96784610
vn -0.17765266 -0.05553918 0.98252477
vn 0.01509009 -0.08223177 0.99649898
f 1//1 3//3 4//4
f 6//6 4//4 3//3
f 11//11 6//6 3//3
f 11//11 3//3 2//2
f 13//13 3//3 1//1
f 13//13 12//12 3//3
f 13//13 7//7 12//12
f 14//14 2//2 3//3
f 14//14 3//3 12//12
f 14//14 10//10 2//2
f 14//14 5//5 10//10
f 15//15 14//14 8//8
f 15//15 5//5 14//14
f 15//15 9//9 5//5
f 16//16 1//1 4//4
f 16//16 4//4 9//9
f 16//16 9//9 15//15
f 17//17 5//5 9//9
f 18//18 10//10 4//4
f 18//18 4//4 6//6
f 18//18 6//6 11//11
f 18//18 11//11 2//2
f 18//18 2//2 10//10
f 19//19 7//7 13//13
f 20//20 13//13 1//1
f 20//20 19//19 13//13
f 20//20 7//7 19//19
f 21//21 12//12 7//7
f 21//21 8//8 14//14
f 21//21 20//20 8//8
f 21//21 7//7 20//20
f 23//23 17//17 9//9
f 23//23 9//9 4//4
f 23//23 4//4 10//10
f 24//24 20//20 1//1
f 24//24 8//8 20//20
f 24//24 22//22 8//8
f 25//25 21//21 14//14
f 25//25 14//14 12//12
f 25//25 12//12 21//21
f 26//26 15//15 8//8
f 26//26 8//8 22//22
f 27//27 23//23 10//10
f 27//27 10//10 5//5
f 27//27 5//5 17//17
f 27//27 17//17 23//23
f 28//28 24//24 1//1
f 28//28 22//22 24//24
f 29//29 16//16 15//15
f 30//30 29//29 15//15
f 30//30 15//15 26//26
f 30//30 26//26 22//22
f 30//30 22//22 28//28
f 30//30 28//28 1//1
f 30//30 1//1 16//16
f 30//30 16//16 29//29

