# https://github.com/mikedh/trimesh
v 0.07687541 -0.02349986 0.01323999
v 0.08050253 -0.03111277 0.01057775
v 0.07871689 -0.02155981 -0.01476211
v 0.04169935 -0.02119880 -0.01809284
v 0.04175555 -0.03293995 0.00820516
v 0.04129232 -0.01433048 -0.00879171
v 0.08037310 -0.02332093 0.00992347
v 0.06059012 -0.02911171 0.01442685
v 0.07910523 -0.03484137 -0.01524230
v 0.04154139 -0.01644329 -0.01531241
v 0.04161469 -0.02876755 -0.01714334
v 0.07890073 -0.02363489 0.01229418
v 0.07309849 -0.01781208 0.00391864
v 0.07323669 -0.03442115 0.01160310
v 0.04163782 -0.01716882 0.01090671
v 0.08047257 -0.02708012 -0.01367493
v 0.06801160 -0.02591837 -0.01793814
v 0.07728960 -0.01888122 -0.01246861
v 0.06999619 -0.02160671 -0.01682615
v 0.04178811 -0.03255643 -0.01230164
v 0.04161039 -0.01825061 -0.01694848
v 0.04142613 -0.01560911 -0.01349905
v 0.07810082 -0.02814324 0.01328856
v 0.08039344 -0.02622741 0.01089094
v 0.07860116 -0.01996164 0.00905560
v 0.05963666 -0.03247856 0.01267279
v 0.07878530 -0.03450164 0.00898852
v 0.07682504 -0.03573016 -0.01127906
v 0.04144379 -0.01664303 0.00999880
v 0.05644841 -0.02799926 0.01451533
v 0.08049340 -0.02202773 -0.01080061
v 0.07973467 -0.03317876 -0.01587241
v 0.04169040 -0.02589734 -0.01802591
v 0.07309836 -0.01780729 -0.00642842
v 0.06790996 -0.02427611 -0.01786367
v 0.07792717 -0.01983877 -0.01392826
v 0.04416443 -0.03114586 -0.01516955
v 0.04173302 -0.03145710 -0.01420652
v 0.04558918 -0.01868437 -0.01695880
v 0.07195568 -0.01903541 -0.01427639
v 0.04140235 -0.01439985 -0.01031975
v 0.07783078 -0.02532637 0.01329826
v 0.07698089 -0.03279041 0.01258935
v 0.07954654 -0.02263955 0.01145322
v 0.07704400 -0.01900533 0.00684830
v 0.07712292 -0.02075832 0.01135966
v 0.05962901 -0.03338211 0.01153972
v 0.08042485 -0.03190941 0.00992171
v 0.05651232 -0.03444859 0.00711000
v 0.07587513 -0.03563813 -0.00787918
v 0.04706774 -0.03341212 -0.01133531
v 0.04167574 -0.01775733 0.01137943
v 0.06165238 -0.02528338 0.01448814
v 0.06073919 -0.03180965 0.01330887
v 0.08051146 -0.02812513 -0.01263779
v 0.08031020 -0.02245322 -0.01321647
v 0.07950027 -0.02160217 0.01059892
v 0.07959926 -0.02066671 -0.01236480
v 0.07918591 -0.03403044 -0.01607140
v 0.07414513 -0.01785057 0.00286142
v 0.07823294 -0.02520789 -0.01684019
v 0.07590209 -0.02168066 -0.01581368
v 0.04802127 -0.03223328 -0.01428169
v 0.07293869 -0.02088172 -0.01588762
vn 0.19915028 0.34071972 0.91883037
vn 0.87166568 -0.22382315 0.43600704
vn 0.56363505 0.45573116 -0.68893007
vn -0.62664010 0.13896224 -0.76681920
vn -0.66685317 -0.61749796 0.41713682
vn -0.66609528 0.74575502 0.01290470
vn 0.96029693 0.22115702 0.17005701
vn -0.00091659 -0.21657691 0.97626513
vn 0.48892723 -0.79738431 -0.35373497
vn -0.60274684 0.63251566 -0.48643621
vn -0.67342041 -0.37468358 -0.63727322
vn 0.57946727 0.22308260 0.78386978
vn 0.10798405 0.98096409 0.16139670
vn 0.02889434 -0.86020365 0.50913141
vn -0.49344047 0.63060619 0.59904284
vn 0.96067366 0.02968809 -0.27608828
vn 0.04272653 -0.07469078 -0.99629099
vn 0.35831824 0.90683413 -0.22194570
vn 0.09739335 0.47040570 -0.87705930
vn -0.68345485 -0.70241096 -0.19876698
vn -0.62952639 0.40163576 -0.66512047
vn -0.66499470 0.68031913 -0.30813623
vn 0.41990559 -0.07885606 0.90413551
vn 0.91541966 0.02927169 0.40143495
vn 0.53882517 0.80528356 0.24735768
vn -0.13258827 -0.65170916 0.74679014
vn 0.48989774 -0.83870208 0.23786345
vn 0.12661113 -0.98878834 -0.07916586
vn -0.65416453 0.70273119 0.27970993
vn -0.15315758 -0.16780760 0.97384976
vn 0.95472643 0.29631722 -0.02633518
vn 0.82903442 -0.17790714 -0.53014242
vn -0.64713452 -0.10692372 -0.75484053
vn 0.15513655 0.98703264 -0.04122160
vn 0.06273269 0.18070023 -0.98153555
vn 0.42645154 0.71337788 -0.55608550
vn -0.10766585 -0.75951906 -0.64151295
vn -0.71758315 -0.57883360 -0.38733202
vn 0.06409009 0.52671339 -0.84762342
vn 0.10314495 0.82168779 -0.56052680
vn -0.55063878 0.81408368 -0.18456627
vn 0.36242766 0.08264660 0.92834031
vn 0.30637570 -0.50873689 0.80456243
vn 0.68889547 0.35759415 0.63051523
vn 0.29822584 0.94026123 0.16422595
vn 0.21394781 0.73559560 0.64274836
vn -0.08963129 -0.87801607 0.47016382
vn 0.87101917 -0.41235757 0.26699595
vn -0.07260666 -0.98851640 0.13252770
vn 0.01656001 -0.99914369 0.03791628
vn -0.10414976 -0.97870977 -0.17686156
vn -0.60440057 0.24755893 0.75724139
vn 0.02172404 0.20009646 0.97953534
vn -0.06215944 -0.51428776 0.85536209
vn 0.99697443 -0.06429951 -0.04367565
vn 0.90085503 0.26045365 -0.34730983
vn 0.72319741 0.56728564 0.39391941
vn 0.75390245 0.62716673 -0.19568593
vn 0.39998378 -0.46539643 -0.78956896
vn 0.21998827 0.97448924 0.04445097
vn 0.47524503 0.15250613 -0.86653566
vn 0.20685539 0.48431130 -0.85009024
vn -0.08974967 -0.85138467 -0.51680668
vn 0.13444509 0.59914381 -0.78927258
f 11//11 5//5 6//6
f 21//21 4//4 11//11
f 22//22 11//11 6//6
f 22//22 21//21 11//11
f 22//22 10//10 21//21
f 24//24 2//2 7//7
f 24//24 23//23 2//2
f 24//24 12//12 23//23
f 28//28 9//9 27//27
f 29//29 6//6 5//5
f 29//29 13//13 6//6
f 30//30 5//5 26//26
f 31//31 7//7 2//2
f 33//33 11//11 4//4
f 33//33 4//4 17//17
f 35//35 17//17 4//4
f 35//35 4//4 19//19
f 38//38 20//20 5//5
f 38//38 5//5 11//11
f 38//38 11//11 37//37
f 39//39 19//19 4//4
f 39//39 4//4 21//21
f 39//39 21//21 10//10
f 40//40 22//22 18//18
f 40//40 10//10 22//22
f 40//40 18//18 36//36
f 40//40 39//39 10//10
f 41//41 22//22 6//6
f 41//41 18//18 22//22
f 41//41 34//34 18//18
f 41//41 6//6 34//34
f 42//42 23//23 12//12
f 42//42 12//12 1//1
f 43//43 2//2 23//23
f 43//43 14//14 27//27
f 43//43 23//23 8//8
f 44//44 24//24 7//7
f 44//44 12//12 24//24
f 44//44 1//1 12//12
f 45//45 25//25 18//18
f 45//45 29//29 25//25
f 45//45 13//13 29//29
f 46//46 1//1 44//44
f 46//46 29//29 15//15
f 46//46 25//25 29//29
f 47//47 26//26 5//5
f 47//47 14//14 26//26
f 48//48 27//27 9//9
f 48//48 43//43 27//27
f 48//48 2//2 43//43
f 48//48 9//9 32//32
f 49//49 47//47 5//5
f 49//49 14//14 47//47
f 50//50 28//28 27//27
f 50//50 27//27 14//14
f 50//50 49//49 28//28
f 50//50 14//14 49//49
f 51//51 20//20 9//9
f 51//51 9//9 28//28
f 51//51 28//28 49//49
f 51//51 49//49 5//5
f 51//51 5//5 20//20
f 52//52 29//29 5//5
f 52//52 15//15 29//29
f 52//52 5//5 30//30
f 52//52 46//46 15//15
f 52//52 1//1 46//46
f 53//53 30//30 8//8
f 53//53 52//52 30//30
f 53//53 1//1 52//52
f 53//53 42//42 1//1
f 53//53 8//8 23//23
f 53//53 23//23 42//42
f 54//54 30//30 26//26
f 54//54 8//8 30//30
f 54//54 43//43 8//8
f 54//54 26//26 14//14
f 54//54 14//14 43//43
f 55//55 31//31 2//2
f 55//55 16//16 31//31
f 55//55 2//2 48//48
f 55//55 48//48 32//32
f 55//55 32//32 16//16
f 56//56 31//31 16//16
f 56//56 16//16 32//32
f 57//57 31//31 25//25
f 57//57 7//7 31//31
f 57//57 44//44 7//7
f 57//57 46//46 44//44
f 57//57 25//25 46//46
f 58//58 18//18 25//25
f 58//58 25//25 31//31
f 58//58 36//36 18//18
f 58//58 31//31 56//56
f 58//58 56//56 3//3
f 58//58 3//3 36//36
f 59//59 32//32 9//9
f 59//59 11//11 33//33
f 59//59 33//33 17//17
f 59//59 37//37 11//11
f 59//59 9//9 37//37
f 60//60 34//34 6//6
f 60//60 6//6 13//13
f 60//60 18//18 34//34
f 60//60 45//45 18//18
f 60//60 13//13 45//45
f 61//61 35//35 19//19
f 61//61 32//32 59//59
f 61//61 59//59 17//17
f 61//61 17//17 35//35
f 61//61 56//56 32//32
f 61//61 3//3 56//56
f 62//62 36//36 3//3
f 62//62 61//61 19//19
f 62//62 3//3 61//61
f 63//63 38//38 37//37
f 63//63 37//37 9//9
f 63//63 9//9 20//20
f 63//63 20//20 38//38
f 64//64 40//40 36//36
f 64//64 19//19 39//39
f 64//64 39//39 40//40
f 64//64 62//62 19//19
f 64//64 36//36 62//62

