# https://github.com/mikedh/trimesh
v -0.04628731 0.00749931 0.01634444
v -0.03223738 -0.02481193 0.00882997
v -0.03259221 -0.00661416 -0.01272453
v -0.05186993 0.00728609 -0.01536034
v -0.05761257 -0.02121790 0.01141606
v -0.04186459 0.00745478 -0.01066045
v -0.03232294 -0.00867081 0.01089780
v -0.03756407 -0.01981143 0.01521093
v -0.05745943 0.00719165 0.01087331
v -0.05370155 -0.02110787 -0.01369638
v -0.04450078 0.00732276 -0.01450324
v -0.05642394 0.00726959 -0.01126327
v -0.03219346 -0.02032864 -0.01542241
v -0.04191911 0.00745558 0.00874812
v -0.04066331 -0.02317819 0.01305157
v -0.05481204 -0.01858361 0.01498310
v -0.03765846 -0.01309026 0.01493021
v -0.05328810 -0.02306605 -0.00363552
v -0.04278338 0.00743480 -0.01264070
v -0.04469302 0.00752775 0.01543535
v -0.05669860 0.00727280 0.01364557
v -0.05655474 -0.00998523 -0.01443677
v -0.03242807 -0.00646807 -0.01119032
v -0.03254924 -0.01001486 -0.01617162
v -0.05409580 -0.02295015 0.01067535
v -0.03752066 -0.02249478 0.01391902
v -0.05129952 -0.01150122 0.01621830
v -0.05870856 -0.01892059 -0.01090865
v -0.03221119 -0.02432693 -0.00965793
v -0.03259806 -0.00756635 -0.01438288
v -0.04630708 0.00739353 -0.01523444
v -0.04286538 0.00732285 0.01266927
v -0.05854109 0.00721248 -0.00762668
v -0.05845864 -0.01375770 0.01225068
v -0.05337550 0.00384853 -0.01519275
v -0.05427708 -0.01559688 -0.01613113
v -0.03235849 -0.00745614 0.00147688
v -0.03225860 -0.01869791 -0.01631442
v -0.04072168 -0.02412775 0.01089308
v -0.05667750 -0.02211869 0.00093059
v -0.05319318 -0.02127002 0.01401458
v -0.03743253 -0.02314963 0.01324960
v -0.05333782 -0.01957968 0.01500284
v -0.05024746 -0.01149628 0.01617238
v -0.05388942 0.00704184 0.01614343
v -0.03846075 -0.02408136 -0.00681215
v -0.05474030 -0.02217803 -0.01050979
v -0.03227629 -0.02231450 -0.01367111
v -0.05016843 -0.00318791 -0.01627904
v -0.04387470 0.00750374 0.01454975
v -0.05937398 -0.00548762 -0.00953952
v -0.05737684 0.00418702 0.01277033
v -0.05745839 -0.01848737 0.01338000
v -0.05955585 -0.01674208 -0.00696704
v -0.05544325 0.00267525 -0.01333890
v -0.05357175 0.00718884 -0.01437235
v -0.05848574 -0.01680391 -0.01235476
v -0.05388531 -0.00861261 -0.01607523
v -0.05216475 -0.01921591 -0.01516432
v -0.05303676 -0.02290956 0.01160781
v -0.04281575 -0.02413981 0.00686177
v -0.05484786 -0.02295780 0.00886350
v -0.05757036 -0.02111315 0.00103653
v -0.05559567 -0.02013768 0.01405093
vn 0.13494190 0.67344601 0.72681576
vn 0.67057294 -0.68328147 0.28889162
vn 0.88753172 0.41563504 -0.19883400
vn -0.17375806 0.68776787 -0.70482870
vn -0.75050789 -0.58431730 0.30872512
vn 0.49707707 0.86000581 -0.11534470
vn 0.87395673 0.20958041 0.43849251
vn 0.35537156 -0.20575174 0.91179892
vn -0.74241941 0.66284341 0.09722155
vn -0.30955008 -0.70773823 -0.63504752
vn 0.34455087 0.74778026 -0.56754681
vn -0.55705930 0.72674709 -0.40190000
vn 0.67427948 -0.41743351 -0.60917687
vn 0.51852730 0.85187070 0.07379536
vn -0.04630950 -0.82208013 0.56748541
vn -0.33467159 -0.17668822 0.92562206
vn 0.43208305 0.06786097 0.89927700
vn -0.19607296 -0.97911583 -0.05373627
vn 0.41928634 0.85169162 -0.31435705
vn 0.37442949 0.75340508 0.54053986
vn -0.61682084 0.66709597 0.41774996
vn -0.70049362 0.05694024 -0.71138351
vn 0.94607035 0.32033496 -0.04833641
vn 0.68604172 0.12818164 -0.71618170
vn -0.24951136 -0.94415932 0.21519120
vn 0.24300464 -0.53814752 0.80706009
vn -0.10520428 -0.05589228 0.99287870
vn -0.82386594 -0.45600664 -0.33660489
vn 0.63826264 -0.74710686 -0.18561291
vn 0.86560855 0.34335781 -0.36445474
vn 0.08865938 0.72688136 -0.68101616
vn 0.65103119 0.72040382 0.23911657
vn -0.72443093 0.67254962 -0.15125088
vn -0.92427172 -0.01519324 0.38143277
vn -0.51006219 0.11226650 -0.85277945
vn -0.35489603 -0.16651817 -0.91995680
vn 0.95878672 0.28313454 0.02372462
vn 0.63808828 -0.17905532 -0.74885415
vn -0.05397355 -0.97107584 0.23259099
vn -0.55202534 -0.83313068 -0.03407781
vn -0.17360389 -0.68293014 0.70955487
vn 0.13679674 -0.79677222 0.58859211
vn -0.11804551 -0.34109944 0.93258588
vn 0.04919015 -0.03168933 0.99828659
vn -0.30015017 0.56674924 0.76727125
vn -0.07418481 -0.99504858 -0.06614328
vn -0.36917747 -0.89665511 -0.24437187
vn 0.60304849 -0.63650195 -0.48083031
vn -0.04820674 0.05249675 -0.99745687
vn 0.48094325 0.80591334 0.34524960
vn -0.96026582 0.07124513 -0.26984011
vn -0.93934495 0.05907521 0.33784788
vn -0.76248778 -0.18126539 0.62109198
vn -0.98753147 -0.15299517 -0.03706850
vn -0.73292464 0.12683847 -0.66838124
vn -0.48758911 0.65169887 -0.58098662
vn -0.81986731 -0.16837027 -0.54723765
vn -0.32516474 0.04460870 -0.94460466
vn -0.13307297 -0.43866599 -0.88874278
vn -0.17079595 -0.90901696 0.38015379
vn -0.07824259 -0.99688902 0.00950686
vn -0.30987927 -0.94940447 0.05104897
vn -0.80888639 -0.58762269 -0.02005961
vn -0.42700301 -0.50942171 0.74709969
f 8//8 2//2 7//7
f 13//13 7//7 2//2
f 17//17 8//8 7//7
f 17//17 1//1 8//8
f 20//20 12//12 1//1
f 20//20 14//14 6//6
f 20//20 17//17 7//7
f 20//20 1//1 17//17
f 21//21 1//1 12//12
f 23//23 3//3 6//6
f 23//23 6//6 14//14
f 26//26 2//2 8//8
f 29//29 13//13 2//2
f 30//30 19//19 6//6
f 30//30 6//6 3//3
f 30//30 3//3 23//23
f 30//30 23//23 24//24
f 30//30 24//24 11//11
f 30//30 11//11 19//19
f 31//31 19//19 11//11
f 31//31 4//4 12//12
f 31//31 6//6 19//19
f 31//31 20//20 6//6
f 31//31 12//12 20//20
f 31//31 11//11 24//24
f 32//32 7//7 14//14
f 33//33 21//21 12//12
f 33//33 9//9 21//21
f 37//37 7//7 13//13
f 37//37 13//13 23//23
f 37//37 23//23 14//14
f 37//37 14//14 7//7
f 38//38 24//24 23//23
f 38//38 23//23 13//13
f 41//41 15//15 26//26
f 42//42 26//26 15//15
f 42//42 2//2 26//26
f 42//42 39//39 2//2
f 42//42 15//15 39//39
f 43//43 27//27 16//16
f 43//43 8//8 27//27
f 43//43 41//41 26//26
f 43//43 26//26 8//8
f 44//44 27//27 8//8
f 44//44 8//8 1//1
f 44//44 1//1 27//27
f 45//45 16//16 27//27
f 45//45 27//27 1//1
f 45//45 1//1 21//21
f 46//46 29//29 2//2
f 47//47 10//10 29//29
f 47//47 18//18 40//40
f 47//47 40//40 28//28
f 47//47 28//28 10//10
f 47//47 46//46 18//18
f 47//47 29//29 46//46
f 48//48 29//29 10//10
f 48//48 10//10 13//13
f 48//48 13//13 29//29
f 49//49 31//31 24//24
f 49//49 4//4 31//31
f 49//49 38//38 36//36
f 49//49 24//24 38//38
f 50//50 20//20 7//7
f 50//50 7//7 32//32
f 50//50 32//32 14//14
f 50//50 14//14 20//20
f 51//51 33//33 12//12
f 51//51 12//12 22//22
f 51//51 34//34 9//9
f 51//51 9//9 33//33
f 52//52 34//34 21//21
f 52//52 21//21 9//9
f 52//52 9//9 34//34
f 53//53 34//34 5//5
f 53//53 16//16 45//45
f 53//53 45//45 21//21
f 53//53 21//21 34//34
f 54//54 28//28 5//5
f 54//54 5//5 34//34
f 54//54 34//34 51//51
f 55//55 35//35 22//22
f 55//55 22//22 12//12
f 56//56 12//12 4//4
f 56//56 4//4 35//35
f 56//56 55//55 12//12
f 56//56 35//35 55//55
f 57//57 22//22 36//36
f 57//57 51//51 22//22
f 57//57 54//54 51//51
f 57//57 28//28 54//54
f 57//57 36//36 10//10
f 57//57 10//10 28//28
f 58//58 36//36 22//22
f 58//58 22//22 35//35
f 58//58 35//35 4//4
f 58//58 49//49 36//36
f 58//58 4//4 49//49
f 59//59 38//38 13//13
f 59//59 13//13 10//10
f 59//59 10//10 36//36
f 59//59 36//36 38//38
f 60//60 39//39 15//15
f 60//60 25//25 39//39
f 60//60 15//15 41//41
f 60//60 41//41 5//5
f 60//60 5//5 25//25
f 61//61 39//39 25//25
f 61//61 2//2 39//39
f 61//61 46//46 2//2
f 61//61 18//18 46//46
f 62//62 25//25 5//5
f 62//62 5//5 40//40
f 62//62 40//40 18//18
f 62//62 61//61 25//25
f 62//62 18//18 61//61
f 63//63 40//40 5//5
f 63//63 5//5 28//28
f 63//63 28//28 40//40
f 64//64 5//5 41//41
f 64//64 53//53 5//5
f 64//64 16//16 53//53
f 64//64 43//43 16//16
f 64//64 41//41 43//43

