# https://github.com/mikedh/trimesh
v 0.00718146 -0.02500804 0.01355634
v 0.00723709 -0.02829434 0.01144320
v 0.00751930 -0.00736232 -0.01663037
v -0.02033339 -0.01387378 -0.01728950
v -0.02016076 -0.02788681 0.00790702
v 0.00735686 -0.02656040 -0.01727752
v 0.00192263 -0.02745377 0.01210851
v -0.02032942 -0.01243758 0.01143168
v 0.00717626 -0.01899826 -0.01832550
v -0.02009848 -0.02606591 -0.01346680
v 0.00718546 -0.02955273 -0.01258523
v 0.00621576 -0.02924689 0.00977295
v 0.00721261 -0.02752875 0.01220952
v 0.00714241 -0.01257275 0.00795852
v -0.02040340 -0.01014979 -0.01463260
v 0.00185806 -0.02497383 0.01337752
v -0.02018198 -0.02177279 -0.01723737
v 0.00734443 -0.02403125 -0.01836954
v 0.00719963 -0.02934609 0.00969894
v 0.00727302 -0.02835316 -0.01452815
v -0.01806005 -0.02823723 -0.00136900
v 0.00192232 -0.02573516 0.01318004
v -0.00097206 -0.01254388 0.00956299
v 0.00095914 -0.00781123 -0.00824891
v -0.02042302 -0.01207746 -0.01658586
v -0.02022599 -0.01287901 0.01182675
v -0.02011683 -0.02340353 -0.01634536
v 0.00509403 -0.02000461 -0.01827193
v -0.02009844 -0.02702570 -0.01147364
v -0.01901682 -0.02826103 0.00580980
v 0.00716034 -0.02572230 0.01332068
v -0.02028561 -0.01047483 -0.00154551
v 0.00368207 -0.00752315 -0.01436156
v 0.00714241 -0.00730943 -0.00783145
v -0.00010439 -0.02936643 -0.01053987
v -0.01801466 -0.02824285 0.00675505
v -0.01907235 -0.02827168 0.00064141
v -0.02030651 -0.01151791 0.00883811
v 0.00213257 -0.00763980 -0.01250928
v 0.00095732 -0.02932997 0.00269860
v 0.00305467 -0.02925140 0.00780552
vn 0.64036028 0.00072732 0.76807433
vn 0.66448026 -0.59102030 0.45734122
vn 0.56929424 0.62797007 -0.53062007
vn -0.65686297 0.11386641 -0.74536265
vn -0.65905876 -0.59478586 0.46029483
vn 0.61520641 -0.51548331 -0.59648808
vn -0.08439715 -0.69797344 0.71113304
vn -0.64701361 0.60725959 0.46109563
vn 0.51162361 0.06301135 -0.85689605
vn -0.69952635 -0.59330862 -0.39830611
vn 0.59627497 -0.77112005 -0.22322641
vn -0.06735557 -0.90194921 0.42655697
vn 0.65852791 -0.45816608 0.59701325
vn 0.66708963 0.56995466 0.47973233
vn -0.67412222 0.68825120 -0.26808492
vn -0.09152740 -0.12106690 0.98841567
vn -0.67435362 -0.18836895 -0.71397783
vn 0.63148126 -0.16271691 -0.75812573
vn 0.62166124 -0.75302210 0.21562702
vn 0.65742520 -0.64547885 -0.38877905
vn -0.11785915 -0.98971136 -0.08112119
vn -0.10135162 -0.39116164 0.91472423
vn 0.09766688 0.72561805 0.68113114
vn -0.09541772 0.99392316 0.05488357
vn -0.70156868 0.37358179 -0.60682620
vn -0.54535554 0.22711320 0.80685001
vn -0.67351219 -0.46030495 -0.57836034
vn -0.03446155 0.00995170 -0.99935648
vn -0.70041647 -0.68712902 -0.19305565
vn -0.16773791 -0.98508206 0.03843605
vn 0.58635690 -0.34162914 0.73448970
vn -0.68348509 0.72806486 0.05262780
vn -0.08453384 0.99512972 -0.05070376
vn 0.60811027 0.78555840 0.11445483
vn -0.07172273 -0.98926036 -0.12735695
vn -0.06633147 -0.98953420 0.12814917
vn -0.31144995 -0.94973501 -0.03165974
vn -0.66604500 0.72207887 0.18704586
vn -0.09447962 0.99552097 -0.00340699
vn -0.03547087 -0.99922816 0.01687914
vn -0.04467417 -0.99801408 0.04440847
f 1//1 2//2 3//3
f 6//6 3//3 2//2
f 9//9 4//4 3//3
f 12//12 7//7 5//5
f 12//12 2//2 7//7
f 13//13 7//7 2//2
f 13//13 2//2 1//1
f 14//14 1//1 3//3
f 18//18 9//9 3//3
f 18//18 3//3 6//6
f 18//18 6//6 17//17
f 18//18 17//17 4//4
f 19//19 6//6 2//2
f 19//19 2//2 12//12
f 19//19 12//12 5//5
f 20//20 11//11 10//10
f 20//20 10//10 6//6
f 20//20 19//19 11//11
f 20//20 6//6 19//19
f 22//22 7//7 13//13
f 22//22 1//1 16//16
f 22//22 16//16 5//5
f 22//22 5//5 7//7
f 23//23 1//1 14//14
f 25//25 15//15 3//3
f 25//25 3//3 4//4
f 25//25 5//5 8//8
f 25//25 8//8 15//15
f 25//25 4//4 17//17
f 26//26 16//16 1//1
f 26//26 8//8 5//5
f 26//26 5//5 16//16
f 26//26 23//23 8//8
f 26//26 1//1 23//23
f 27//27 17//17 6//6
f 27//27 6//6 10//10
f 27//27 10//10 17//17
f 28//28 18//18 4//4
f 28//28 4//4 9//9
f 28//28 9//9 18//18
f 29//29 10//10 11//11
f 29//29 5//5 25//25
f 29//29 25//25 17//17
f 29//29 17//17 10//10
f 31//31 22//22 13//13
f 31//31 13//13 1//1
f 31//31 1//1 22//22
f 32//32 24//24 15//15
f 33//33 3//3 15//15
f 34//34 23//23 14//14
f 34//34 14//14 3//3
f 34//34 3//3 33//33
f 35//35 29//29 11//11
f 35//35 21//21 29//29
f 36//36 30//30 19//19
f 36//36 19//19 5//5
f 36//36 5//5 30//30
f 37//37 29//29 21//21
f 37//37 35//35 30//30
f 37//37 21//21 35//35
f 37//37 30//30 5//5
f 37//37 5//5 29//29
f 38//38 32//32 15//15
f 38//38 15//15 8//8
f 38//38 8//8 23//23
f 38//38 23//23 34//34
f 38//38 34//34 24//24
f 38//38 24//24 32//32
f 39//39 33//33 15//15
f 39//39 15//15 24//24
f 39//39 34//34 33//33
f 39//39 24//24 34//34
f 40//40 35//35 11//11
f 40//40 11//11 19//19
f 40//40 30//30 35//35
f 41//41 40//40 19//19
f 41//41 19//19 30//30
f 41//41 30//30 40//40

