# https://github.com/mikedh/trimesh
v 0.01228056 0.03309422 0.01712357
v 0.01182451 -0.00152805 0.01529019
v 0.01217627 0.00572321 -0.01507172
v 0.01216069 0.03829193 -0.01144252
v 0.00276855 0.00025049 -0.00614818
v 0.01238251 0.04098645 -0.00334699
v 0.01209208 0.00486312 0.01573437
v 0.00362366 -0.00222466 0.01212461
v 0.01175395 -0.00156059 -0.00640990
v 0.00742701 0.01610548 -0.01256632
v 0.01221801 0.01957067 0.01702935
v 0.01223189 0.03406082 -0.01196288
v 0.00873661 0.03491902 -0.00449862
v 0.01213084 0.00364983 -0.01520882
v 0.00912451 -0.00181129 0.01449354
v 0.01236806 0.03998496 0.00925181
v 0.01220889 0.04037451 -0.01037554
v 0.01216729 0.02343448 -0.01399506
v 0.00866251 0.03095562 0.00613692
v 0.00637961 0.02183267 -0.01001177
v 0.00829361 0.00348900 -0.01294000
v 0.00697970 -0.00195235 0.01371820
v 0.00986113 0.03770279 -0.00333330
v 0.00810144 0.02115281 -0.01243739
v 0.00881565 0.01616713 -0.01353590
v 0.00773956 0.02972333 -0.00565196
v 0.00993007 0.03397477 0.01232826
v 0.00660184 0.02146435 -0.01071977
v 0.00875486 0.03372846 -0.00878200
v 0.01161833 0.00357604 -0.01487037
v 0.00760914 0.01542075 -0.01277053
v 0.01186377 0.04046641 -0.00342775
v 0.01058057 0.03266726 -0.01185409
v 0.00772618 0.02967799 -0.00627776
v 0.01089837 0.03403627 0.01513466
v 0.01081121 0.03759848 0.01122476
v 0.00988067 0.03591179 0.00820601
v 0.00764198 0.02185470 -0.01193474
v 0.01188056 0.04089660 -0.00931033
v 0.00744783 0.00338339 -0.01193526
v 0.01187583 0.03947294 0.00913475
v 0.01213766 0.04126989 -0.00946994
v 0.00982626 0.03284849 -0.01079734
v 0.00986451 0.03209157 0.01315044
v 0.01191235 0.03293267 0.01684969
v 0.01092496 0.03598619 0.01418275
v 0.00990003 0.03771492 -0.00612806
v 0.01186135 0.03869658 0.01220642
v 0.01090786 0.03677502 0.01318050
v 0.01218617 0.03618971 0.01632521
v 0.00895529 0.03477218 -0.00815335
v 0.01216176 0.03820866 0.01441550
v 0.01175630 0.03595352 0.01589808
v 0.01184675 0.03778877 0.01421658
v 0.01223029 0.03904348 0.01235917
vn 0.41166809 0.13504179 0.90127304
vn 0.50803759 -0.57113782 0.64474754
vn 0.78691210 0.02846072 -0.61640842
vn 0.26379671 0.39235718 -0.88117373
vn -0.79934689 -0.51768581 -0.30503436
vn 0.43656178 0.89769686 0.05961672
vn 0.86296172 -0.06070841 0.50160897
vn -0.68393325 -0.60727223 0.40429661
vn 0.55740650 -0.79389633 -0.24295393
vn -0.73116449 0.06165721 -0.67940921
vn 0.50490087 -0.01709729 0.86300799
vn 0.98516298 0.02887892 -0.16917422
vn -0.96107598 0.27627375 0.00240290
vn 0.43595640 -0.38302532 -0.81439156
vn -0.15348771 -0.73426418 0.66128484
vn 0.35645001 0.91974844 0.16433564
vn 0.26707665 0.57612872 -0.77249321
vn 0.51702668 0.11514267 -0.84818959
vn -0.97956491 0.18202242 0.08555949
vn -0.96259110 0.17376535 -0.20790378
vn -0.55839689 -0.35519944 -0.74968412
vn -0.25042090 -0.66899895 0.69980695
vn -0.88126140 0.47143509 0.03357529
vn -0.54570764 0.12918412 -0.82795811
vn -0.43086641 0.06141524 -0.90032345
vn -0.98423764 0.17390769 0.03213062
vn -0.95683648 0.20500026 0.20600691
vn -0.85858647 0.13887464 -0.49350087
vn -0.91374386 0.25697894 -0.31469667
vn -0.34723086 -0.65955382 -0.66664795
vn -0.65988303 0.00430161 -0.75135603
vn -0.78412774 0.61873332 0.04809120
vn -0.57807004 0.20446330 -0.78995556
vn -0.98159606 0.18865478 -0.02964019
vn -0.87910724 0.15864868 0.44944528
vn -0.87860702 0.45287663 0.15150068
vn -0.95161623 0.29489857 0.08637930
vn -0.70469502 0.16168043 -0.69084323
vn -0.85810910 0.46961826 -0.20762337
vn -0.76362898 -0.04490654 -0.64409175
vn -0.77736639 0.62208824 0.09331517
vn 0.16356516 0.91445057 -0.37017104
vn -0.78981940 0.24305104 -0.56312655
vn -0.93573000 0.16269080 0.31295538
vn -0.71362524 0.10624654 0.69242377
vn -0.89140161 0.29733809 0.34204273
vn -0.89850233 0.43413220 -0.06498297
vn -0.75629056 0.62186489 0.20324529
vn -0.89055225 0.38161249 0.24756532
vn 0.28171637 0.47347170 0.83454205
vn -0.93061149 0.32073409 -0.17632896
vn 0.22512016 0.79929290 0.55718200
vn -0.79857995 0.29203903 0.52629200
vn -0.82512018 0.45286422 0.33777313
vn 0.30796365 0.89287689 0.32852588
f 9//9 8//8 5//5
f 11//11 7//7 3//3
f 11//11 1//1 8//8
f 11//11 2//2 7//7
f 12//12 6//6 3//3
f 14//14 7//7 2//2
f 14//14 3//3 7//7
f 14//14 2//2 9//9
f 14//14 9//9 5//5
f 15//15 9//9 2//2
f 15//15 8//8 9//9
f 15//15 2//2 11//11
f 16//16 1//1 11//11
f 16//16 11//11 3//3
f 16//16 3//3 6//6
f 17//17 12//12 4//4
f 17//17 6//6 12//12
f 18//18 4//4 12//12
f 18//18 12//12 3//3
f 18//18 3//3 14//14
f 19//19 5//5 8//8
f 22//22 15//15 11//11
f 22//22 11//11 8//8
f 22//22 8//8 15//15
f 25//25 18//18 14//14
f 25//25 10//10 24//24
f 25//25 14//14 21//21
f 26//26 19//19 13//13
f 26//26 5//5 19//19
f 27//27 19//19 8//8
f 28//28 10//10 5//5
f 28//28 5//5 20//20
f 29//29 28//28 20//20
f 29//29 17//17 4//4
f 30//30 21//21 14//14
f 30//30 14//14 5//5
f 30//30 5//5 21//21
f 31//31 5//5 10//10
f 31//31 25//25 21//21
f 31//31 10//10 25//25
f 33//33 4//4 18//18
f 33//33 25//25 24//24
f 33//33 18//18 25//25
f 34//34 26//26 13//13
f 34//34 20//20 5//5
f 34//34 5//5 26//26
f 34//34 29//29 20//20
f 34//34 13//13 29//29
f 37//37 13//13 19//19
f 37//37 19//19 27//27
f 37//37 27//27 36//36
f 37//37 36//36 23//23
f 37//37 23//23 13//13
f 38//38 24//24 10//10
f 38//38 10//10 28//28
f 38//38 33//33 24//24
f 38//38 28//28 33//33
f 39//39 17//17 29//29
f 40//40 31//31 21//21
f 40//40 21//21 5//5
f 40//40 5//5 31//31
f 41//41 32//32 23//23
f 41//41 23//23 36//36
f 42//42 16//16 6//6
f 42//42 6//6 17//17
f 42//42 17//17 39//39
f 42//42 39//39 23//23
f 42//42 23//23 32//32
f 42//42 41//41 16//16
f 42//42 32//32 41//41
f 43//43 29//29 4//4
f 43//43 4//4 33//33
f 43//43 33//33 28//28
f 43//43 28//28 29//29
f 44//44 27//27 8//8
f 44//44 8//8 35//35
f 45//45 35//35 8//8
f 45//45 8//8 1//1
f 46//46 44//44 35//35
f 46//46 27//27 44//44
f 47//47 13//13 23//23
f 47//47 23//23 39//39
f 48//48 41//41 36//36
f 48//48 16//16 41//41
f 49//49 36//36 27//27
f 49//49 27//27 46//46
f 50//50 45//45 1//1
f 50//50 1//1 16//16
f 51//51 47//47 39//39
f 51//51 39//39 29//29
f 51//51 29//29 13//13
f 51//51 13//13 47//47
f 52//52 48//48 36//36
f 52//52 36//36 49//49
f 52//52 50//50 16//16
f 53//53 46//46 35//35
f 53//53 35//35 45//45
f 53//53 45//45 50//50
f 53//53 50//50 52//52
f 54//54 52//52 49//49
f 54//54 49//49 46//46
f 54//54 53//53 52//52
f 54//54 46//46 53//53
f 55//55 52//52 16//16
f 55//55 16//16 48//48
f 55//55 48//48 52//52

