# https://github.com/mikedh/trimesh
v 0.02548315 0.02689809 0.01705658
v 0.02763947 0.00054222 0.01039788
v 0.03044626 0.03618218 -0.00816596
v 0.02502368 0.03642558 -0.01453395
v 0.02404475 0.01027068 -0.01594848
v 0.02524851 0.04169944 -0.00711382
v 0.02948695 0.02718269 0.01170949
v 0.02506949 0.00085865 0.01350776
v 0.02862956 0.00042895 -0.01151652
v 0.02843228 0.03963785 -0.00986358
v 0.02427554 0.02716724 0.00126583
v 0.02848844 0.02410102 0.01411797
v 0.03008900 0.03548138 0.00126775
v 0.02495794 0.00060284 -0.01604939
v 0.02853704 0.00046417 0.00115127
v 0.02779497 0.03717595 -0.01332768
v 0.02514246 0.04000990 -0.01184448
v 0.02452297 0.01013122 0.01576540
v 0.02416967 0.01974460 -0.01571130
v 0.02854740 0.02726058 0.01431891
v 0.02945856 0.02507861 0.01169577
v 0.02580729 0.01046724 0.01507151
v 0.02876274 0.03992063 -0.00741772
v 0.03042674 0.02424662 -0.00625249
v 0.02931033 0.03733204 -0.01089800
v 0.02748140 0.02020005 -0.01450120
v 0.02682813 0.04065023 -0.00991575
v 0.02510757 0.04100822 -0.00998064
v 0.02513549 0.03816156 -0.01389375
v 0.02482466 0.00423672 0.01406901
v 0.02510697 0.02078609 -0.01562501
v 0.02944137 0.02304663 0.01063461
v 0.02570342 0.00082692 0.01308665
v 0.02733688 0.01063384 0.01303133
v 0.02485048 0.00847935 0.01527751
v 0.02503913 0.01039649 0.01553361
v 0.02773405 0.04069454 -0.00712152
v 0.02932080 0.03828995 -0.00987355
v 0.03032644 0.02628687 -0.00985946
v 0.03042833 0.03524017 -0.00302394
v 0.02838138 0.03731575 -0.01254121
v 0.02729184 0.00073528 -0.01391001
v 0.02702294 0.03969856 -0.01150729
v 0.02597959 0.03632218 -0.01426640
v 0.02571502 0.02066789 -0.01546145
v 0.03040288 0.02731999 -0.00209134
v 0.02649490 0.00073686 0.01210146
v 0.02773870 0.04059379 -0.00807300
v 0.03039018 0.02528970 -0.00904087
v 0.03034486 0.03422470 -0.00980390
v 0.03038368 0.03434329 -0.00199262
v 0.02926994 0.03536074 -0.01185096
v 0.02589853 0.00088536 -0.01554124
v 0.02936605 0.02537180 -0.01189815
v 0.02687488 0.03797245 -0.01324735
v 0.02697135 0.03441447 -0.01427445
v 0.02939137 0.01883733 0.00748335
v 0.03041813 0.02420648 -0.00703228
v 0.02744979 0.02595774 -0.01452222
v 0.03039698 0.02532635 -0.00412020
vn -0.30606239 0.35022458 0.88525056
vn 0.63815418 -0.72864851 0.24865756
vn 0.97157409 0.22133847 -0.08398253
vn -0.55537532 0.21846121 -0.80239202
vn -0.68402357 -0.01661324 -0.72927070
vn -0.46189785 0.87531996 0.14305711
vn 0.96399570 0.12210815 0.23622424
vn -0.39743953 -0.62453072 0.67231183
vn 0.69331485 -0.69248046 -0.19946260
vn 0.67556835 0.66209318 -0.32440720
vn -0.99767644 0.05667362 0.03781299
vn 0.82585498 -0.07379267 0.55903327
vn 0.75182168 0.55947653 0.34892717
vn -0.37550770 -0.59301891 -0.71226578
vn 0.66923725 -0.74205585 0.03840077
vn 0.57687051 0.33472519 -0.74510366
vn -0.55277645 0.67590391 -0.48743420
vn -0.50940231 -0.14085559 0.84892225
vn -0.68436709 0.04338753 -0.72784560
vn 0.73326599 0.35072057 0.58250843
vn 0.97600634 -0.04322667 0.21340826
vn 0.66409201 -0.12541657 0.73705664
vn 0.76320840 0.64552298 0.02851355
vn 0.99907106 -0.04157130 0.01135137
vn 0.86364012 0.31274272 -0.39537037
vn 0.70563325 -0.01068254 -0.70849672
vn 0.35532581 0.87614694 -0.32574547
vn -0.58760708 0.76025504 -0.27700214
vn -0.48101639 0.49427984 -0.72409300
vn -0.99261983 -0.08169954 0.08961616
vn 0.14681652 0.05037651 -0.98788011
vn 0.99327018 -0.06421463 0.09638893
vn 0.46881249 -0.68569784 0.55680636
vn 0.81749402 -0.11743991 0.56383632
vn 0.44429020 -0.18810304 0.87591293
vn 0.48909103 -0.12413173 0.86335467
vn 0.47693852 0.86458941 0.15816070
vn 0.85792954 0.43648858 -0.27098823
vn 0.96588061 -0.01315822 -0.25865324
vn 0.98850408 0.14483208 0.04339751
vn 0.74396998 0.37585750 -0.55248513
vn 0.68138417 -0.51903957 -0.51605575
vn 0.42035773 0.72450929 -0.54624689
vn 0.31337188 0.23344490 -0.92048984
vn 0.35668461 0.02486096 -0.93389401
vn 0.99891246 -0.02106405 0.04159572
vn 0.58562167 -0.64417924 0.49201663
vn 0.49306716 0.85766332 -0.14593974
vn 0.99637104 -0.03454502 -0.07779071
vn 0.96056738 0.05773202 -0.27198774
vn 0.99780437 0.01759172 0.06385118
vn 0.84040168 0.10041865 -0.53257967
vn 0.60372212 -0.35649662 -0.71304261
vn 0.86420119 -0.00938106 -0.50305895
vn 0.38443248 0.57880726 -0.71916189
vn 0.44397418 0.08778087 -0.89172947
vn 0.99546537 -0.06670142 0.06782051
vn 0.99885870 -0.04233467 -0.02211516
vn 0.60975611 0.02814289 -0.79208930
vn 0.99786618 -0.04996091 0.04203567
f 11//11 1//1 6//6
f 13//13 6//6 1//1
f 14//14 8//8 5//5
f 14//14 2//2 8//8
f 15//15 14//14 9//9
f 15//15 2//2 14//14
f 18//18 1//1 11//11
f 18//18 11//11 5//5
f 19//19 5//5 11//11
f 20//20 1//1 12//12
f 20//20 13//13 1//1
f 20//20 7//7 13//13
f 21//21 12//12 2//2
f 21//21 20//20 12//12
f 21//21 7//7 20//20
f 22//22 12//12 1//1
f 23//23 13//13 3//3
f 24//24 15//15 9//9
f 28//28 11//11 6//6
f 28//28 27//27 17//17
f 28//28 6//6 27//27
f 28//28 19//19 11//11
f 28//28 17//17 4//4
f 28//28 4//4 19//19
f 29//29 4//4 17//17
f 30//30 18//18 5//5
f 30//30 5//5 8//8
f 30//30 8//8 18//18
f 31//31 14//14 5//5
f 31//31 5//5 19//19
f 31//31 19//19 4//4
f 32//32 21//21 2//2
f 32//32 2//2 15//15
f 33//33 8//8 2//2
f 34//34 2//2 12//12
f 34//34 12//12 22//22
f 35//35 18//18 8//8
f 35//35 33//33 22//22
f 35//35 8//8 33//33
f 36//36 22//22 1//1
f 36//36 1//1 18//18
f 36//36 35//35 22//22
f 36//36 18//18 35//35
f 37//37 6//6 13//13
f 37//37 13//13 23//23
f 38//38 23//23 3//3
f 38//38 10//10 23//23
f 38//38 3//3 25//25
f 40//40 24//24 3//3
f 40//40 3//3 13//13
f 41//41 38//38 25//25
f 41//41 10//10 38//38
f 42//42 9//9 14//14
f 43//43 27//27 10//10
f 43//43 17//17 27//27
f 43//43 29//29 17//17
f 43//43 41//41 16//16
f 43//43 10//10 41//41
f 44//44 29//29 16//16
f 44//44 4//4 29//29
f 45//45 14//14 31//31
f 46//46 21//21 32//32
f 46//46 24//24 40//40
f 46//46 7//7 21//21
f 47//47 33//33 2//2
f 47//47 22//22 33//33
f 47//47 34//34 22//22
f 47//47 2//2 34//34
f 48//48 27//27 6//6
f 48//48 6//6 37//37
f 48//48 10//10 27//27
f 48//48 37//37 23//23
f 48//48 23//23 10//10
f 49//49 9//9 39//39
f 50//50 25//25 3//3
f 50//50 49//49 39//39
f 50//50 3//3 49//49
f 51//51 40//40 13//13
f 51//51 13//13 7//7
f 51//51 46//46 40//40
f 51//51 7//7 46//46
f 52//52 16//16 41//41
f 52//52 41//41 25//25
f 52//52 25//25 50//50
f 53//53 42//42 14//14
f 53//53 26//26 42//42
f 54//54 39//39 9//9
f 54//54 9//9 42//42
f 54//54 42//42 26//26
f 54//54 52//52 50//50
f 54//54 50//50 39//39
f 55//55 43//43 16//16
f 55//55 16//16 29//29
f 55//55 29//29 43//43
f 56//56 45//45 31//31
f 56//56 31//31 4//4
f 56//56 4//4 44//44
f 56//56 44//44 16//16
f 57//57 46//46 32//32
f 57//57 32//32 15//15
f 58//58 24//24 9//9
f 58//58 9//9 49//49
f 58//58 49//49 3//3
f 58//58 3//3 24//24
f 59//59 16//16 52//52
f 59//59 56//56 16//16
f 59//59 45//45 56//56
f 59//59 26//26 53//53
f 59//59 53//53 14//14
f 59//59 14//14 45//45
f 59//59 54//54 26//26
f 59//59 52//52 54//54
f 60//60 57//57 15//15
f 60//60 15//15 24//24
f 60//60 24//24 46//46
f 60//60 46//46 57//57

