# https://github.com/mikedh/trimesh
v -0.00015501 0.08454785 0.02733216
v 0.00024204 0.04592275 0.02740484
v 0.00017888 0.06770082 -0.02873414
v -0.02930725 0.07738844 -0.02769947
v -0.03634425 0.03437686 -0.00918081
v 0.00009199 0.08299269 -0.02370395
v -0.01277572 0.05117162 0.02616172
v -0.03503713 0.08276820 -0.01039987
v -0.03305060 0.01403593 -0.02722513
v 0.00010249 0.07720260 -0.02798587
v 0.00016142 0.08032011 -0.02647627
v -0.01205396 0.04586576 0.02672223
v -0.02944030 0.08600838 -0.02025483
v -0.01295271 0.08050548 0.02616791
v -0.01821473 0.02411021 -0.01789812
v -0.01827493 0.03590078 -0.02839907
v -0.03642752 0.08060740 -0.02043348
v -0.01675494 0.07995740 -0.02777445
v 0.00024204 0.04592275 0.00727019
v -0.02072516 0.02386776 0.01067140
v -0.03147834 0.02429230 -0.00260641
v -0.01413594 0.08581896 0.01516051
v -0.00873867 0.08467402 0.02661644
v -0.03129180 0.07254154 -0.00074657
v -0.02804757 0.02928119 -0.02795137
v -0.03508645 0.06084268 -0.02441472
v -0.03232852 0.08126219 -0.02470742
v -0.03235729 0.08576436 -0.01752704
v -0.03812934 0.01413145 -0.02351534
v -0.03818450 0.06105041 -0.01481690
v -0.00322446 0.07865015 -0.02760170
v -0.01501886 0.08422411 -0.02356582
v -0.01457576 0.06636321 0.02442052
v -0.03482648 0.01400674 -0.00846628
v -0.00169847 0.08426525 -0.02113724
v -0.01013454 0.08604144 0.01549075
v -0.02867095 0.08416975 -0.00202312
v -0.03126341 0.08092664 -0.00244262
v -0.02962369 0.02921892 -0.02777198
v -0.03534009 0.01398504 -0.02614560
v -0.03343509 0.08020576 -0.02447137
v -0.02631422 0.08011655 -0.02753545
v -0.03662091 0.08202725 -0.01887023
v -0.03369627 0.08419875 -0.02034505
v -0.03618439 0.07080538 -0.02195240
v -0.03633126 0.07266667 -0.01024532
v -0.03849486 0.01405020 -0.01513081
v -0.03804165 0.05910371 -0.01904328
v -0.00819414 0.08293242 -0.02451616
v -0.03138442 0.06792330 -0.00070836
v -0.01459580 0.07891357 0.02450454
v -0.03640299 0.01411319 -0.01072957
v -0.02351272 0.08586644 -0.02053963
v -0.00335246 0.08416581 -0.02207791
v -0.03237532 0.08576511 -0.01347799
v -0.01675896 0.08421512 0.01611042
v -0.03130717 0.08317273 -0.00397444
v -0.03216105 0.07892529 -0.02597960
v -0.02929004 0.08289352 -0.02451278
v -0.03504091 0.08301175 -0.02047371
v -0.03477574 0.08069086 -0.02296185
v -0.03642415 0.08068913 -0.01193146
v -0.03637364 0.04406290 -0.00913663
v -0.03815773 0.06081255 -0.01756672
vn 0.56541308 0.55155163 0.61326898
vn 0.64809600 -0.35506466 0.67372150
vn 0.69896451 -0.08920611 -0.70957092
vn -0.27470052 0.14492061 -0.95054597
vn -0.88640405 -0.01752094 0.46258068
vn 0.69418876 0.62374313 -0.35923039
vn -0.73555976 -0.02154326 0.67711722
vn -0.78218425 0.54368290 0.30429707
vn 0.10265766 -0.70197587 -0.70476328
vn 0.65550396 0.17672994 -0.73422142
vn 0.69454115 0.42873317 -0.57775467
vn -0.40735045 -0.23915130 0.88140358
vn -0.14032912 0.93503487 -0.32560335
vn -0.53105552 0.26288901 0.80552431
vn 0.71939278 -0.65412143 -0.23366470
vn 0.40509606 -0.26645328 -0.87458552
vn -0.89427894 0.20318078 -0.39872641
vn -0.00036558 0.40852745 -0.91274596
vn 0.93577340 -0.34778675 -0.05807340
vn -0.04322463 -0.79242537 0.60843543
vn -0.81874977 -0.05207700 0.57178387
vn -0.23939185 0.95548682 0.17244271
vn -0.22692734 0.66427438 0.71221032
vn -0.85981838 0.05914550 0.50716286
vn -0.06495276 -0.01738194 -0.99773694
vn -0.73634612 0.03968940 -0.67543997
vn -0.42480612 0.55263257 -0.71703347
vn -0.39408264 0.91495599 -0.08691616
vn -0.72917732 -0.59756165 -0.33349740
vn -0.98695328 0.03077385 0.15803861
vn 0.05649529 0.41567495 -0.90775691
vn 0.02928182 0.83063437 -0.55604777
vn -0.78043421 -0.01142872 0.62513345
vn -0.28957487 -0.82364062 0.48760899
vn 0.29557811 0.94574241 -0.13492541
vn 0.03715599 0.99823965 0.04622798
vn -0.48051416 0.82273992 0.30365304
vn -0.83906190 0.21410865 0.50013260
vn -0.13895444 -0.00127393 -0.99029795
vn -0.41773626 -0.67097271 -0.61261084
vn -0.65272631 0.26892263 -0.70825771
vn -0.09442946 0.43517031 -0.89538253
vn -0.88485342 0.44295830 -0.14429959
vn -0.50069633 0.77420816 -0.38717554
vn -0.86152545 0.04951029 -0.50529459
vn -0.92273917 0.04971446 0.38220532
vn -0.74267698 -0.65456769 0.14132247
vn -0.96748014 0.03257091 -0.25084120
vn 0.04889587 0.72641373 -0.68551607
vn -0.85670754 0.00770592 0.51574492
vn -0.79088702 0.11720950 0.60063272
vn -0.70567371 -0.58770033 0.39576879
vn 0.02384464 0.96756760 -0.25148434
vn 0.07913747 0.93108341 -0.35611928
vn -0.40681339 0.90931176 0.08749276
vn -0.56618495 0.72963561 0.38349248
vn -0.70428358 0.58366528 0.40412806
vn -0.53237830 0.22647718 -0.81564786
vn -0.19040516 0.71672751 -0.67085584
vn -0.65661015 0.63067241 -0.41366100
vn -0.72418822 0.31753442 -0.61214648
vn -0.94000819 0.24108755 0.24137396
vn -0.90744107 0.00142078 0.42017698
vn -0.99638340 0.04394976 -0.07272238
f 11//11 6//6 1//1
f 11//11 1//1 2//2
f 11//11 3//3 10//10
f 12//12 2//2 1//1
f 14//14 7//7 12//12
f 16//16 4//4 3//3
f 16//16 15//15 9//9
f 16//16 3//3 15//15
f 18//18 10//10 3//3
f 18//18 3//3 4//4
f 19//19 11//11 2//2
f 19//19 3//3 11//11
f 19//19 15//15 3//3
f 19//19 2//2 15//15
f 20//20 2//2 12//12
f 20//20 15//15 2//2
f 20//20 9//9 15//15
f 21//21 12//12 7//7
f 23//23 14//14 12//12
f 23//23 12//12 1//1
f 25//25 16//16 9//9
f 25//25 4//4 16//16
f 31//31 18//18 11//11
f 31//31 11//11 10//10
f 31//31 10//10 18//18
f 33//33 21//21 7//7
f 33//33 5//5 21//21
f 34//34 20//20 12//12
f 34//34 12//12 21//21
f 34//34 9//9 20//20
f 35//35 1//1 6//6
f 36//36 23//23 1//1
f 36//36 22//22 23//23
f 36//36 1//1 35//35
f 39//39 25//25 9//9
f 39//39 9//9 4//4
f 39//39 4//4 25//25
f 40//40 4//4 9//9
f 40//40 29//29 26//26
f 40//40 9//9 34//34
f 42//42 18//18 4//4
f 42//42 32//32 18//18
f 44//44 28//28 13//13
f 44//44 43//43 28//28
f 45//45 29//29 17//17
f 45//45 26//26 29//29
f 47//47 40//40 34//34
f 47//47 29//29 40//40
f 48//48 17//17 29//29
f 48//48 43//43 17//17
f 49//49 32//32 6//6
f 49//49 6//6 11//11
f 49//49 11//11 18//18
f 49//49 18//18 32//32
f 50//50 5//5 33//33
f 50//50 24//24 46//46
f 51//51 33//33 7//7
f 51//51 7//7 14//14
f 51//51 50//50 33//33
f 51//51 24//24 50//50
f 51//51 38//38 24//24
f 51//51 14//14 38//38
f 52//52 34//34 21//21
f 52//52 21//21 5//5
f 52//52 47//47 34//34
f 52//52 5//5 47//47
f 53//53 32//32 13//13
f 53//53 36//36 35//35
f 53//53 13//13 36//36
f 54//54 35//35 6//6
f 54//54 6//6 32//32
f 54//54 53//53 35//35
f 54//54 32//32 53//53
f 55//55 22//22 36//36
f 55//55 37//37 22//22
f 55//55 43//43 8//8
f 55//55 28//28 43//43
f 55//55 36//36 13//13
f 55//55 13//13 28//28
f 56//56 23//23 22//22
f 56//56 22//22 37//37
f 56//56 14//14 23//23
f 57//57 8//8 38//38
f 57//57 55//55 8//8
f 57//57 37//37 55//55
f 57//57 38//38 14//14
f 57//57 56//56 37//37
f 57//57 14//14 56//56
f 58//58 40//40 26//26
f 58//58 4//4 40//40
f 58//58 26//26 41//41
f 58//58 41//41 27//27
f 58//58 42//42 4//4
f 58//58 27//27 42//42
f 59//59 42//42 27//27
f 59//59 13//13 32//32
f 59//59 32//32 42//42
f 59//59 44//44 13//13
f 59//59 27//27 44//44
f 60//60 43//43 44//44
f 60//60 44//44 27//27
f 61//61 41//41 26//26
f 61//61 26//26 45//45
f 61//61 45//45 17//17
f 61//61 17//17 43//43
f 61//61 43//43 60//60
f 61//61 60//60 27//27
f 61//61 27//27 41//41
f 62//62 43//43 30//30
f 62//62 30//30 46//46
f 62//62 8//8 43//43
f 62//62 38//38 8//8
f 62//62 46//46 24//24
f 62//62 24//24 38//38
f 63//63 46//46 30//30
f 63//63 50//50 46//46
f 63//63 5//5 50//50
f 63//63 47//47 5//5
f 63//63 30//30 47//47
f 64//64 47//47 30//30
f 64//64 30//30 43//43
f 64//64 43//43 48//48
f 64//64 48//48 29//29
f 64//64 29//29 47//47

