# https://github.com/mikedh/trimesh
v -0.02549185 0.08591315 -0.00841864
v -0.01976313 0.01411082 -0.00950202
v -0.01808691 0.06784369 -0.02921863
v -0.02638203 0.07902130 -0.02822328
v -0.03791315 0.01414784 -0.01358429
v -0.02663966 0.08608685 -0.02057547
v -0.01808446 0.06782843 -0.00950202
v -0.03637583 0.01418066 -0.01068858
v -0.01994977 0.01409392 -0.02831489
v -0.02657122 0.08667647 -0.01772724
v -0.02613606 0.08159110 -0.02639255
v -0.03651883 0.07935861 -0.02043893
v -0.01808446 0.02418287 -0.00950202
v -0.03523931 0.01400768 -0.02619581
v -0.03103577 0.01410902 -0.02774871
v -0.02667622 0.08438691 -0.02333775
v -0.03105860 0.08639212 -0.01782670
v -0.03564139 0.07953836 -0.00993414
v -0.03070024 0.08028003 -0.02617083
v -0.01804237 0.02937413 -0.02786775
v -0.01808210 0.02418541 -0.02787356
v -0.03813608 0.01408209 -0.02351133
v -0.02872287 0.07883307 -0.02759832
v -0.02886058 0.08635695 -0.02009043
v -0.03028552 0.08658965 -0.01840562
v -0.03638923 0.07941065 -0.01163948
v -0.03784543 0.03779022 -0.01196333
v -0.02777487 0.08137637 -0.02626594
v -0.03082687 0.08453239 -0.02211471
v -0.03524622 0.05928121 -0.02435800
v -0.03626699 0.07422011 -0.01045049
v -0.03811548 0.06442154 -0.01593568
v -0.02915485 0.08301632 -0.02430700
v -0.03488313 0.07922291 -0.02317792
v -0.03221674 0.07895518 -0.02585606
v -0.03634309 0.05766185 -0.02319878
v -0.03791626 0.04909076 -0.01230125
v -0.03787579 0.05427036 -0.02055294
v -0.03805677 0.06431360 -0.01480189
v -0.03785963 0.06089901 -0.01920636
vn 0.30278224 0.69802912 0.64890544
vn 0.50558454 -0.61992222 0.60006725
vn 0.68394471 0.17526540 -0.70816783
vn 0.08040905 0.35486939 -0.93145161
vn -0.72527557 -0.66225210 0.18814227
vn 0.48170458 0.81268789 -0.32787053
vn 0.77959108 0.13855954 0.61076919
vn -0.42653675 -0.61661625 0.66170295
vn 0.50324145 -0.62178935 -0.60010503
vn 0.48790803 0.87078968 -0.06058945
vn 0.35374927 0.66004922 -0.66271901
vn -0.89740096 0.35866509 -0.25696472
vn 0.74255487 -0.06489310 0.66663419
vn -0.39753059 -0.66111489 -0.63631480
vn -0.15430477 -0.64416985 -0.74915636
vn 0.34936705 0.75144456 -0.55970863
vn -0.52311787 0.85224040 -0.00583064
vn -0.61254213 0.34179067 0.71272104
vn -0.41748800 0.49399681 -0.76267354
vn 0.99310506 -0.00507399 -0.11711789
vn 0.83963718 -0.07449575 -0.53801468
vn -0.72660203 -0.61307544 -0.31014188
vn -0.32950194 0.22402856 -0.91719119
vn -0.11685831 0.92151165 -0.37035175
vn -0.24987287 0.95470688 -0.16154973
vn -0.89879306 0.38690428 0.20609734
vn -0.89429919 -0.00321588 0.44745795
vn -0.19258775 0.62567311 -0.75593857
vn -0.44626947 0.72624475 -0.52288825
vn -0.68660458 0.04088771 -0.72588039
vn -0.82780342 0.02381677 0.56051250
vn -0.99809734 0.05385222 -0.03002736
vn -0.22319714 0.69362666 -0.68488327
vn -0.74126650 0.32746217 -0.58591169
vn -0.57750686 0.24792152 -0.77783080
vn -0.82695506 0.04421521 -0.56052685
vn -0.94700547 0.00669426 0.32114768
vn -0.96067613 0.02913393 -0.27613872
vn -0.98543485 0.04416359 0.16421853
vn -0.98339022 0.04225760 -0.17651621
f 7//7 3//3 1//1
f 8//8 5//5 2//2
f 8//8 2//2 1//1
f 10//10 1//1 3//3
f 10//10 3//3 6//6
f 11//11 3//3 4//4
f 13//13 7//7 1//1
f 13//13 1//1 2//2
f 14//14 9//9 2//2
f 14//14 2//2 5//5
f 15//15 4//4 3//3
f 15//15 3//3 9//9
f 15//15 9//9 14//14
f 16//16 6//6 3//3
f 16//16 3//3 11//11
f 18//18 8//8 1//1
f 18//18 1//1 17//17
f 20//20 3//3 7//7
f 20//20 7//7 13//13
f 21//21 13//13 2//2
f 21//21 2//2 9//9
f 21//21 20//20 13//13
f 21//21 9//9 3//3
f 21//21 3//3 20//20
f 22//22 14//14 5//5
f 23//23 15//15 14//14
f 23//23 4//4 15//15
f 23//23 19//19 4//4
f 24//24 10//10 6//6
f 24//24 6//6 16//16
f 25//25 17//17 1//1
f 25//25 1//1 10//10
f 25//25 10//10 24//24
f 26//26 18//18 17//17
f 26//26 17//17 12//12
f 27//27 5//5 8//8
f 28//28 11//11 4//4
f 28//28 4//4 19//19
f 29//29 12//12 17//17
f 29//29 17//17 25//25
f 29//29 25//25 24//24
f 29//29 24//24 16//16
f 30//30 14//14 22//22
f 31//31 27//27 8//8
f 31//31 8//8 18//18
f 31//31 18//18 26//26
f 32//32 22//22 5//5
f 32//32 26//26 12//12
f 33//33 16//16 11//11
f 33//33 11//11 28//28
f 33//33 29//29 16//16
f 33//33 28//28 19//19
f 33//33 19//19 29//29
f 34//34 29//29 19//19
f 34//34 12//12 29//29
f 35//35 23//23 14//14
f 35//35 14//14 30//30
f 35//35 19//19 23//23
f 35//35 34//34 19//19
f 35//35 30//30 34//34
f 36//36 30//30 22//22
f 36//36 34//34 30//30
f 36//36 12//12 34//34
f 37//37 32//32 5//5
f 37//37 5//5 27//27
f 37//37 27//27 31//31
f 38//38 22//22 32//32
f 38//38 36//36 22//22
f 38//38 12//12 36//36
f 39//39 37//37 31//31
f 39//39 31//31 26//26
f 39//39 26//26 32//32
f 39//39 32//32 37//37
f 40//40 38//38 32//32
f 40//40 32//32 12//12
f 40//40 12//12 38//38

