# https://github.com/mikedh/trimesh
v 0.03225817 0.04617464 0.00827279
v 0.03545383 -0.00566985 -0.01164292
v 0.02996059 0.04608032 -0.02597000
v -0.01823748 0.04618381 -0.02841556
v -0.02155963 0.00058820 0.01000870
v 0.02379234 -0.01957368 -0.02797164
v 0.01857253 0.04612806 -0.02778509
v 0.03590791 0.04241257 -0.02285158
v 0.02787033 -0.01937987 0.00865843
v -0.02349812 0.04606478 0.00803397
v -0.01985228 0.00076786 -0.02814057
v 0.03542685 0.04602674 -0.00787341
v 0.02972809 -0.01935705 -0.02600691
v 0.03187062 -0.00578350 0.00171705
v -0.00129770 -0.01946269 0.00896341
v -0.03703903 0.04593071 -0.01029683
v 0.03378604 0.04612837 0.00353113
v 0.03569690 0.04278302 -0.00994839
v 0.03539645 -0.00415341 -0.02037020
v 0.03288996 -0.01937388 -0.02341130
v 0.03529198 -0.00227536 -0.00833290
v 0.03011705 -0.00404570 0.00626363
v -0.00130674 -0.01948038 -0.02755550
v -0.01984862 0.02409483 -0.02792027
v -0.03641678 0.02418540 -0.00956415
v 0.03369078 -0.01763724 -0.01483153
v 0.03229137 -0.00247643 -0.02457905
v 0.03534112 0.00746322 -0.02199099
v 0.03029609 -0.01913790 0.00006860
v 0.03535859 0.00216214 -0.00845538
v 0.02854124 -0.01255978 0.00835849
v 0.01560703 -0.01952729 -0.02796868
v -0.03683644 0.03434179 -0.01018223
v -0.03143013 0.02438978 -0.00247113
v 0.03383895 -0.01771198 -0.01958675
v 0.03368365 -0.00578984 -0.02327555
v 0.03583806 0.03611780 -0.02275820
v 0.03015881 -0.01743670 0.00171251
v 0.03205519 -0.01915771 -0.00829466
v -0.03505161 0.02431217 -0.00733380
v 0.03366408 -0.01617075 -0.02194665
v 0.03539144 -0.00577199 -0.01785843
v 0.02891293 -0.01930329 0.00512986
v -0.03618737 0.03433045 -0.00880126
v -0.03626571 0.04588198 -0.00913486
v -0.02495868 0.04603643 0.00611251
vn 0.49109204 0.58903412 0.64176898
vn 0.98955614 -0.10771809 0.09578859
vn 0.32106490 0.68188594 -0.65722819
vn -0.27637630 0.63823895 -0.71851735
vn -0.60940915 -0.39160550 0.68939511
vn 0.12365801 -0.67655276 -0.72593736
vn 0.06201735 0.69444533 -0.71686786
vn 0.83036576 0.31612931 -0.45886269
vn 0.45170683 -0.61784599 0.64360490
vn -0.35919650 0.62664913 0.69158422
vn -0.59855019 -0.38119941 -0.70457411
vn 0.72025452 0.69178293 0.05167011
vn 0.37488549 -0.63322389 -0.67711770
vn 0.94139866 -0.08955027 0.32519119
vn -0.28880265 -0.73187155 0.61721720
vn -0.80637080 0.58565064 -0.08233751
vn 0.72024903 0.67227673 0.17112957
vn 0.99771226 0.02283338 0.06363091
vn 0.97234083 -0.05427240 -0.22717356
vn 0.64197592 -0.66550084 -0.38075654
vn 0.97930319 -0.06958533 0.19006090
vn 0.91018924 -0.06008293 0.40981166
vn -0.31477641 -0.72913545 -0.60768191
vn -0.56737043 0.01194301 -0.82337608
vn -0.98118529 -0.18822557 -0.04297157
vn 0.91924549 -0.38445209 0.08476038
vn 0.59896660 -0.01867589 -0.80055620
vn 0.89790106 -0.02850114 -0.43927369
vn 0.80072263 -0.56853311 0.18871503
vn 0.99426481 -0.00853736 0.10660486
vn 0.85217507 -0.06044404 0.51975395
vn -0.00666845 -0.66673542 -0.74526466
vn -0.98881265 -0.02498448 -0.14705550
vn -0.79779440 -0.00929571 0.60285793
vn 0.94421513 -0.32750984 -0.03457013
vn 0.72279454 -0.03463369 -0.69019458
vn 0.89510215 -0.01676903 -0.44554568
vn 0.95339451 -0.15643301 0.25800703
vn 0.67769979 -0.72372885 0.13015201
vn -0.83091195 -0.04370440 0.55468482
vn 0.96864671 -0.11985689 -0.21761863
vn 0.99632799 -0.08029339 -0.02972375
vn 0.69628381 -0.69283987 0.18751472
vn -0.85607331 -0.00422718 0.51683713
vn -0.74001962 0.41848845 0.52653432
vn -0.66996503 0.54973686 0.49893511
f 7//7 1//1 3//3
f 7//7 4//4 1//1
f 7//7 6//6 4//4
f 7//7 3//3 6//6
f 9//9 1//1 5//5
f 10//10 5//5 1//1
f 10//10 1//1 4//4
f 11//11 4//4 6//6
f 12//12 8//8 3//3
f 13//13 6//6 3//3
f 13//13 3//3 8//8
f 15//15 9//9 5//5
f 15//15 6//6 9//9
f 16//16 10//10 4//4
f 17//17 12//12 3//3
f 17//17 3//3 1//1
f 18//18 2//2 8//8
f 18//18 8//8 12//12
f 20//20 9//9 6//6
f 20//20 6//6 13//13
f 21//21 17//17 1//1
f 21//21 1//1 14//14
f 22//22 14//14 1//1
f 22//22 9//9 14//14
f 23//23 6//6 15//15
f 23//23 15//15 5//5
f 23//23 5//5 11//11
f 24//24 16//16 4//4
f 24//24 4//4 11//11
f 24//24 11//11 16//16
f 25//25 11//11 5//5
f 27//27 20//20 13//13
f 27//27 13//13 8//8
f 28//28 19//19 20//20
f 29//29 2//2 21//21
f 30//30 21//21 2//2
f 30//30 2//2 18//18
f 30//30 18//18 12//12
f 30//30 12//12 17//17
f 30//30 17//17 21//21
f 31//31 22//22 1//1
f 31//31 1//1 9//9
f 31//31 9//9 22//22
f 32//32 23//23 11//11
f 32//32 11//11 6//6
f 32//32 6//6 23//23
f 33//33 25//25 16//16
f 33//33 16//16 11//11
f 33//33 11//11 25//25
f 34//34 5//5 10//10
f 35//35 26//26 20//20
f 35//35 2//2 26//26
f 36//36 20//20 27//27
f 36//36 28//28 20//20
f 37//37 19//19 28//28
f 37//37 8//8 2//2
f 37//37 2//2 19//19
f 37//37 28//28 36//36
f 37//37 36//36 27//27
f 37//37 27//27 8//8
f 38//38 29//29 21//21
f 39//39 26//26 2//2
f 39//39 2//2 29//29
f 39//39 20//20 26//26
f 39//39 9//9 20//20
f 40//40 25//25 5//5
f 40//40 5//5 34//34
f 41//41 35//35 20//20
f 41//41 20//20 19//19
f 41//41 19//19 35//35
f 42//42 35//35 19//19
f 42//42 19//19 2//2
f 42//42 2//2 35//35
f 43//43 38//38 21//21
f 43//43 29//29 38//38
f 43//43 39//39 29//29
f 43//43 9//9 39//39
f 43//43 21//21 14//14
f 43//43 14//14 9//9
f 44//44 16//16 25//25
f 44//44 25//25 40//40
f 44//44 40//40 34//34
f 45//45 16//16 44//44
f 46//46 44//44 34//34
f 46//46 34//34 10//10
f 46//46 45//45 44//44
f 46//46 10//10 16//16
f 46//46 16//16 45//45

