# https://github.com/mikedh/trimesh
v 0.00038097 0.04600565 0.02742884
v 0.00038097 0.00068142 0.02742884
v 0.00038097 0.00068142 0.00896341
v -0.02292938 0.04601434 0.00882689
v -0.01198463 0.04592388 0.02680335
v -0.02244030 0.00071374 0.00855069
v 0.00038097 0.04600565 0.00896341
v -0.02136856 0.04618486 0.01101896
v -0.00969108 0.00068142 0.00896341
v -0.01977558 0.00070240 0.01301224
v -0.01617333 0.04607569 0.01976009
v -0.01099465 0.00074646 0.02645232
vn 0.56418563 0.57336503 0.59409353
vn 0.55421746 -0.57558713 0.60128402
vn 0.58205717 -0.57831022 -0.57163514
vn -0.73523579 0.53482295 -0.41640455
vn -0.40942712 0.60088059 0.68652164
vn -0.71745973 -0.55594909 -0.41972865
vn 0.58141425 0.57612046 -0.57449342
vn -0.29669148 0.94236962 0.15464042
vn -0.00062390 -0.99925906 -0.03848305
vn -0.60038335 -0.70798948 0.37187460
vn -0.38621717 0.88935174 0.24472390
vn -0.39904396 -0.62335224 0.67245513
f 1//1 2//2 3//3
f 5//5 2//2 1//1
f 7//7 1//1 3//3
f 7//7 6//6 4//4
f 7//7 3//3 6//6
f 8//8 7//7 4//4
f 8//8 1//1 7//7
f 9//9 6//6 3//3
f 9//9 3//3 2//2
f 10//10 5//5 4//4
f 10//10 4//4 6//6
f 10//10 9//9 2//2
f 10//10 6//6 9//9
f 11//11 5//5 1//1
f 11//11 1//1 8//8
f 11//11 8//8 4//4
f 11//11 4//4 5//5
f 12//12 10//10 2//2
f 12//12 2//2 5//5
f 12//12 5//5 10//10

