# https://github.com/mikedh/trimesh
v 0.00103790 0.07902766 0.04324574
v -0.00117312 -0.04297941 0.04069804
v 0.00038097 0.00068142 0.02742884
v -0.01186795 0.08197890 0.02639009
v -0.00456172 0.07490578 0.03903601
v -0.01068400 0.00070314 0.02710278
v -0.00002402 0.08449608 0.02738848
v 0.00083691 0.00063612 0.04178384
v -0.00020861 0.07866485 0.04260773
v -0.00616200 -0.04297571 0.03566708
v -0.01167412 0.02932086 0.02667911
v 0.00122862 0.08318783 0.03999781
v -0.00045099 -0.03095549 0.04154241
v -0.00452842 0.07860322 0.03899631
v -0.00290099 -0.04313958 0.03935991
v -0.01108144 0.07929988 0.02938502
v 0.00109743 0.03107873 0.04287598
v -0.00901860 0.08445131 0.02683138
v -0.00036422 0.08152399 0.04115608
v -0.00532906 -0.04303182 0.03659331
v -0.00144959 -0.03075212 0.04074496
v -0.01094349 0.06789005 0.02952583
v -0.00795061 0.08168584 0.03233320
v 0.00040735 0.08462327 0.03574516
v 0.00100442 0.08196443 0.04161946
v -0.00145967 0.08027586 0.04092573
v -0.00775169 0.08305602 0.03113854
v -0.01123916 0.08145226 0.02782898
v -0.00879342 0.08401213 0.02820652
v -0.00010507 0.08260691 0.03964762
v -0.00210634 0.08400284 0.03484262
vn 0.43068602 0.21154005 0.87735988
vn 0.45668089 -0.73380409 0.50296533
vn 0.68969993 -0.08751290 -0.71878752
vn -0.77094247 0.39364376 -0.50069182
vn -0.73853725 0.00146808 0.67421108
vn -0.79601975 -0.11307807 -0.59461408
vn 0.56556988 0.58619084 -0.58009569
vn 0.91892226 -0.03110246 0.39321052
vn -0.55104557 0.15861091 0.81926269
vn -0.44718895 -0.82622491 -0.34259952
vn -0.83277573 -0.02070192 -0.55322329
vn 0.54115983 0.74935470 0.38159347
vn 0.45829838 -0.07787342 0.88538033
vn -0.72251858 0.23044297 0.65181511
vn -0.35289076 -0.84661768 0.39837999
vn -0.88321055 0.13101520 0.45030450
vn 0.53557583 -0.01249610 0.84439468
vn -0.33670697 0.80075374 -0.49540071
vn -0.51100297 0.56940102 0.64393978
vn -0.09540889 -0.99509806 0.02601918
vn -0.64059667 -0.00859158 0.76782946
vn -0.89157837 -0.00594089 0.45282746
vn -0.70575795 0.45725637 0.54113060
vn 0.39942982 0.90208612 0.16339050
vn 0.35670865 0.60355893 0.71307472
vn -0.61316058 0.37106990 0.69738170
vn -0.56859015 0.67719934 0.46701852
vn -0.77767379 0.38639405 0.49590635
vn -0.51948940 0.76494160 0.38078224
vn -0.45845570 0.76184302 0.45761729
vn -0.35381006 0.86360436 0.35917400
f 7//7 3//3 4//4
f 10//10 6//6 3//3
f 10//10 3//3 2//2
f 11//11 4//4 3//3
f 11//11 3//3 6//6
f 11//11 6//6 10//10
f 12//12 3//3 7//7
f 13//13 2//2 3//3
f 13//13 3//3 8//8
f 14//14 5//5 9//9
f 15//15 5//5 10//10
f 15//15 2//2 13//13
f 16//16 4//4 11//11
f 16//16 5//5 14//14
f 17//17 8//8 3//3
f 17//17 3//3 12//12
f 17//17 12//12 1//1
f 17//17 13//13 8//8
f 17//17 1//1 9//9
f 17//17 9//9 13//13
f 18//18 7//7 4//4
f 19//19 9//9 1//1
f 20//20 15//15 10//10
f 20//20 10//10 2//2
f 20//20 2//2 15//15
f 21//21 15//15 13//13
f 21//21 5//5 15//15
f 21//21 13//13 9//9
f 21//21 9//9 5//5
f 22//22 16//16 11//11
f 22//22 11//11 10//10
f 22//22 10//10 5//5
f 22//22 5//5 16//16
f 23//23 16//16 14//14
f 23//23 14//14 19//19
f 24//24 12//12 7//7
f 24//24 7//7 18//18
f 25//25 19//19 1//1
f 25//25 1//1 12//12
f 25//25 12//12 19//19
f 26//26 19//19 14//14
f 26//26 14//14 9//9
f 26//26 9//9 19//19
f 27//27 23//23 19//19
f 27//27 4//4 23//23
f 28//28 23//23 4//4
f 28//28 4//4 16//16
f 28//28 16//16 23//23
f 29//29 24//24 18//18
f 29//29 27//27 12//12
f 29//29 18//18 4//4
f 29//29 4//4 27//27
f 30//30 27//27 19//19
f 30//30 19//19 12//12
f 30//30 12//12 27//27
f 31//31 29//29 12//12
f 31//31 12//12 24//24
f 31//31 24//24 29//29

