# https://github.com/mikedh/trimesh
v -0.00358364 0.00095261 0.03825639
v -0.00389940 -0.04266444 0.03817878
v -0.00129770 -0.04296414 -0.00950202
v -0.03641678 0.02418540 -0.00956415
v -0.00965553 -0.04310579 0.03116805
v -0.00129770 0.00068142 -0.00950202
v -0.00675095 -0.04304671 0.03488960
v -0.00651871 0.00084328 0.03469178
v -0.03766761 -0.04300123 -0.00989840
v -0.01976313 0.02418287 -0.00950202
v -0.03143013 0.02438978 -0.00247113
v -0.03505161 0.02431217 -0.00733380
v -0.03713413 -0.01616281 -0.01034155
v -0.02121715 0.02408588 0.00996001
v -0.02226337 0.02426412 0.00841441
vn 0.31037450 0.37505688 0.87349871
vn 0.27809828 -0.52355628 0.80532612
vn 0.59776518 -0.57573952 -0.55785374
vn -0.72463097 0.55294623 -0.41129118
vn -0.57188645 -0.70247571 0.42364344
vn 0.74459296 0.25425098 -0.61720156
vn -0.49721281 -0.72869588 0.47093709
vn -0.78745758 0.08050199 0.61108919
vn -0.73739239 -0.55373600 -0.38681894
vn 0.36106418 0.70849005 -0.60636169
vn -0.53282571 0.74579937 0.39985005
vn -0.59515187 0.71781612 0.36129528
vn -0.67605133 0.01328800 -0.73673471
vn -0.04318001 0.83614765 0.54680216
vn -0.18876013 0.95645557 0.22262603
f 1//1 2//2 3//3
f 6//6 1//1 3//3
f 7//7 2//2 1//1
f 7//7 5//5 3//3
f 7//7 3//3 2//2
f 8//8 7//7 1//1
f 8//8 5//5 7//7
f 9//9 3//3 5//5
f 10//10 1//1 6//6
f 11//11 8//8 1//1
f 12//12 5//5 8//8
f 12//12 9//9 5//5
f 12//12 4//4 9//9
f 12//12 8//8 11//11
f 12//12 11//11 10//10
f 12//12 10//10 4//4
f 13//13 6//6 3//3
f 13//13 3//3 9//9
f 13//13 10//10 6//6
f 13//13 9//9 4//4
f 13//13 4//4 10//10
f 14//14 11//11 1//1
f 14//14 1//1 10//10
f 15//15 14//14 10//10
f 15//15 10//10 11//11
f 15//15 11//11 14//14

