# https://github.com/mikedh/trimesh
v 0.01296165 0.04622398 0.04404227
v 0.02892680 -0.04773490 0.00666392
v 0.03200733 0.04603240 0.00885410
v 0.00038097 0.04600565 0.00896341
v -0.00048050 -0.04319659 0.04126647
v 0.02911035 -0.04482048 0.00662249
v 0.02869112 0.04621632 0.01646441
v 0.01364414 -0.04341685 0.03835040
v 0.00079072 0.04597152 0.04325085
v -0.00129770 -0.04296414 0.00896341
v 0.03077293 0.02927460 0.00842871
v 0.03085638 0.04615262 0.01167811
v 0.02369158 -0.05302535 0.01560493
v 0.00794626 -0.03086660 0.04397529
v 0.01685504 0.04102318 0.03972217
v 0.02841399 -0.04745124 0.00790759
v 0.00292506 0.04608113 0.04430237
v -0.00129770 0.00068142 0.00896341
v 0.00703191 -0.04272795 0.04238019
v 0.02781156 -0.05285882 0.00678955
v 0.00943223 -0.02594394 0.04388364
v 0.01699542 0.04604566 0.03967248
v 0.00177358 -0.02917853 0.04392336
v -0.00037624 0.00057931 0.04104875
v 0.01143439 -0.04266414 0.04100554
v 0.00145868 -0.04305652 0.04238571
v 0.02688387 -0.05351716 0.00862745
v 0.00168399 -0.01973417 0.04388648
v 0.00424486 -0.03241622 0.04396860
v -0.00005484 -0.01125845 0.04220009
v 0.00818409 -0.04126827 0.04227530
v 0.01513788 0.03126382 0.04124162
v 0.00031245 -0.02940594 0.04245253
v 0.01274049 0.03132485 0.04387660
vn 0.32168503 0.62914227 0.70760070
vn 0.82031025 -0.12759972 -0.55750283
vn 0.70266537 0.54396535 -0.45865355
vn -0.57409484 0.58831451 -0.56947446
vn -0.71470167 -0.55260897 0.42874800
vn 0.81661744 -0.04204241 -0.57564606
vn 0.65334657 0.69259124 0.30570513
vn 0.67173247 -0.46554505 0.57623198
vn -0.68065250 0.59434991 0.42832272
vn -0.69144028 -0.44772299 -0.56696955
vn 0.00769323 0.02441176 -0.99967239
vn 0.66642871 0.69672569 0.26541681
vn 0.40399821 -0.85745221 0.31868663
vn 0.19991979 -0.07915561 0.97660968
vn 0.82266903 -0.02600549 0.56792551
vn 0.90195901 -0.10478926 0.41891426
vn -0.17481198 0.65849831 0.73199778
vn -0.74448775 0.01228831 -0.66752303
vn 0.13147504 -0.58156649 0.80280429
vn 0.57823024 -0.60901283 -0.54291175
vn 0.41284613 -0.03086990 0.91027750
vn 0.64911954 0.62048251 0.44005145
vn -0.39515422 -0.02209953 0.91834893
vn -0.98290642 0.01071347 0.18379386
vn 0.46456490 -0.49473650 0.73444894
vn -0.20103850 -0.58894971 0.78276546
vn 0.42918240 -0.90194144 0.04800108
vn -0.53543087 -0.00171005 0.84457732
vn -0.04210282 -0.08870024 0.99516814
vn -0.85224718 0.00053285 0.52313904
vn 0.29080950 -0.15331030 0.94441822
vn 0.75814496 -0.03553150 0.65111729
vn -0.74858393 -0.01034282 0.66295937
vn 0.51942673 -0.02387793 0.85418131
f 7//7 4//4 1//1
f 11//11 6//6 4//4
f 11//11 4//4 3//3
f 11//11 3//3 6//6
f 12//12 3//3 4//4
f 12//12 4//4 7//7
f 12//12 6//6 3//3
f 13//13 5//5 10//10
f 15//15 8//8 7//7
f 16//16 2//2 6//6
f 16//16 7//7 8//8
f 16//16 12//12 7//7
f 16//16 6//6 12//12
f 16//16 8//8 13//13
f 17//17 1//1 4//4
f 17//17 4//4 9//9
f 17//17 14//14 1//1
f 18//18 4//4 6//6
f 18//18 6//6 10//10
f 18//18 9//9 4//4
f 18//18 10//10 5//5
f 20//20 10//10 6//6
f 20//20 6//6 2//2
f 21//21 1//1 14//14
f 22//22 15//15 7//7
f 22//22 7//7 1//1
f 22//22 1//1 15//15
f 24//24 18//18 5//5
f 24//24 9//9 18//18
f 25//25 19//19 13//13
f 25//25 13//13 8//8
f 25//25 21//21 14//14
f 26//26 5//5 13//13
f 26//26 13//13 19//19
f 26//26 23//23 5//5
f 27//27 13//13 10//10
f 27//27 10//10 20//20
f 27//27 16//16 13//13
f 27//27 20//20 2//2
f 27//27 2//2 16//16
f 28//28 23//23 17//17
f 28//28 17//17 9//9
f 29//29 14//14 17//17
f 29//29 17//17 23//23
f 29//29 23//23 26//26
f 29//29 26//26 19//19
f 29//29 19//19 14//14
f 30//30 24//24 5//5
f 30//30 9//9 24//24
f 30//30 28//28 9//9
f 30//30 23//23 28//28
f 31//31 25//25 14//14
f 31//31 14//14 19//19
f 31//31 19//19 25//25
f 32//32 25//25 8//8
f 32//32 8//8 15//15
f 33//33 30//30 5//5
f 33//33 5//5 23//23
f 33//33 23//23 30//30
f 34//34 32//32 15//15
f 34//34 15//15 1//1
f 34//34 1//1 21//21
f 34//34 21//21 25//25
f 34//34 25//25 32//32

