# https://github.com/mikedh/trimesh
v 0.03052886 0.02420833 0.00832549
v 0.02891177 -0.04314187 0.00663110
v 0.03396225 0.01867082 -0.02454829
v -0.02806711 0.02411078 -0.02794238
v -0.02520780 -0.04310337 0.00626439
v 0.02864414 -0.02959573 -0.02592236
v 0.02987690 0.02428709 -0.02633193
v 0.03503412 -0.00395237 -0.00833118
v -0.00143585 -0.04300530 0.00894808
v -0.02230378 0.02418796 0.00835883
v -0.03562375 -0.01949100 -0.02606830
v -0.03771294 -0.04302501 -0.00994389
v 0.03546145 0.02419407 -0.01334730
v 0.02358538 -0.01944982 -0.02796132
v 0.03116909 0.01560594 -0.02599010
v 0.03167905 -0.00749507 0.00171639
v 0.03360511 -0.02104020 -0.02085065
v 0.02800128 -0.04308604 0.00851528
v -0.03502909 0.02422479 -0.00728124
v -0.02290896 0.00069353 0.00774860
v 0.03122375 -0.04295091 -0.00964275
v -0.02653431 -0.04315751 0.00437607
v -0.02485072 -0.01960525 -0.02797248
v 0.03206217 0.02430351 0.00343367
v 0.03538015 0.02407084 -0.02194193
v 0.01701072 0.00226547 -0.02792995
v 0.02956654 -0.02439364 -0.02588605
v -0.00992634 0.02422357 -0.02793539
v -0.03812934 0.01413145 -0.02351534
v -0.03695866 -0.04305132 -0.00893221
v -0.03009004 0.02423815 -0.00108549
v 0.03206650 -0.02949314 -0.02367850
v 0.03506941 -0.00561971 -0.01005734
v -0.03296969 0.00066366 -0.02764262
v 0.03516001 0.00563997 -0.00858069
v 0.03274426 0.02409074 -0.02466906
v 0.02353153 -0.00955813 -0.02783602
v -0.03280974 0.02405977 -0.02676851
v -0.04077328 -0.02967759 -0.01806762
v 0.03111517 -0.02961766 -0.02466358
v 0.03512975 0.00247928 -0.02184650
v 0.03366371 -0.02108063 -0.01633420
v -0.03266661 -0.00750137 -0.02749060
v -0.03534009 0.01398504 -0.02614560
v -0.03643071 0.02410894 -0.00962395
v -0.03120431 0.01562222 -0.02768110
v -0.03984666 -0.01964560 -0.02228336
v 0.03504653 -0.00585338 -0.02049035
v -0.03991000 0.00382793 -0.01855619
v -0.04005492 -0.02967836 -0.01522102
v -0.03849486 0.01405020 -0.01513081
v -0.03984767 0.00541753 -0.02093497
v -0.03965040 -0.01794535 -0.01514243
v -0.03981399 0.00543225 -0.01960498
vn 0.48502035 0.58360536 0.65127570
vn 0.67896686 -0.69872741 0.22535309
vn 0.69624687 0.02201771 -0.71746464
vn -0.07980591 0.68661920 -0.72262376
vn -0.38651627 -0.62225658 0.68073630
vn 0.21053424 -0.44587168 -0.86998493
vn 0.20531674 0.67696848 -0.70679468
vn 0.98493677 -0.03529887 0.16927360
vn -0.02900013 -0.67638020 0.73598153
vn -0.33176299 0.62262490 0.70871119
vn -0.39983939 -0.24988272 -0.88186568
vn -0.70160856 -0.70666558 -0.09148322
vn 0.73157768 0.67948802 0.05558893
vn 0.13274879 -0.07156061 -0.98856302
vn 0.36944815 -0.00436817 -0.92924108
vn 0.95048960 -0.03069988 0.30923622
vn 0.98505793 -0.10143365 -0.13918368
vn 0.41694800 -0.60223830 0.68078146
vn -0.59315907 0.69814028 0.40095194
vn -0.19408631 -0.02087289 0.98076237
vn 0.62652220 -0.74899602 -0.21558038
vn -0.19997196 -0.96755185 0.15444943
vn -0.08541496 -0.29550424 -0.95151539
vn 0.69131978 0.69572686 0.19504128
vn 0.73368446 0.62727938 -0.26120433
vn 0.03477739 0.02271220 -0.99913697
vn 0.42707435 -0.03695404 -0.90346107
vn 0.00469595 0.70612296 -0.70807366
vn -0.88888763 0.18433159 -0.41940511
vn -0.56894007 -0.70876838 0.41707862
vn -0.54759594 0.70968666 0.44326463
vn 0.84884206 -0.27991546 -0.44845790
vn 0.99665160 -0.06540188 0.04907332
vn -0.29504547 -0.00009865 -0.95548321
vn 0.98995526 -0.00281880 0.14135289
vn 0.47537203 0.64923123 -0.59373415
vn 0.10008195 0.01513562 -0.99486407
vn -0.46268364 0.67679167 -0.57260535
vn -0.83933252 -0.34815114 -0.41750654
vn 0.54753376 -0.38263922 -0.74417338
vn 0.94680015 -0.02915856 -0.32049844
vn 0.99465597 -0.10315559 0.00429248
vn -0.21472179 -0.03260809 -0.97613076
vn -0.55366349 0.05406465 -0.83098361
vn -0.72390052 0.66236108 0.19299180
vn -0.22590048 0.02711910 -0.97377283
vn -0.84797717 -0.07479315 -0.52472917
vn 0.98307540 -0.06040764 -0.17295572
vn -0.98906481 0.04535299 0.14033496
vn -0.94452874 -0.00903981 0.32830435
vn -0.98438753 0.12498140 0.12393889
vn -0.97055138 0.07230879 -0.22978567
vn -0.95451229 0.03108513 0.29654679
vn -0.99322857 0.10824580 0.04218826
f 10//10 9//9 1//1
f 15//15 7//7 3//3
f 15//15 14//14 7//7
f 16//16 8//8 1//1
f 16//16 1//1 2//2
f 16//16 2//2 8//8
f 18//18 9//9 5//5
f 18//18 2//2 1//1
f 18//18 1//1 9//9
f 20//20 10//10 5//5
f 20//20 5//5 9//9
f 20//20 9//9 10//10
f 21//21 12//12 6//6
f 21//21 8//8 2//2
f 22//22 18//18 5//5
f 22//22 2//2 18//18
f 23//23 12//12 11//11
f 23//23 6//6 12//12
f 23//23 14//14 6//6
f 23//23 4//4 14//14
f 24//24 13//13 7//7
f 24//24 1//1 8//8
f 24//24 10//10 1//1
f 25//25 7//7 13//13
f 27//27 15//15 3//3
f 27//27 6//6 14//14
f 27//27 14//14 15//15
f 28//28 19//19 7//7
f 28//28 4//4 19//19
f 28//28 7//7 26//26
f 28//28 26//26 14//14
f 28//28 14//14 4//4
f 30//30 19//19 12//12
f 30//30 5//5 19//19
f 30//30 22//22 5//5
f 30//30 2//2 22//22
f 30//30 21//21 2//2
f 30//30 12//12 21//21
f 31//31 19//19 5//5
f 31//31 5//5 10//10
f 31//31 10//10 24//24
f 31//31 24//24 7//7
f 31//31 7//7 19//19
f 32//32 17//17 21//21
f 33//33 8//8 21//21
f 34//34 4//4 23//23
f 35//35 24//24 8//8
f 35//35 13//13 24//24
f 35//35 33//33 13//13
f 35//35 8//8 33//33
f 36//36 25//25 3//3
f 36//36 3//3 7//7
f 36//36 7//7 25//25
f 37//37 26//26 7//7
f 37//37 7//7 14//14
f 37//37 14//14 26//26
f 38//38 19//19 4//4
f 39//39 11//11 12//12
f 40//40 32//32 21//21
f 40//40 21//21 6//6
f 40//40 6//6 27//27
f 40//40 27//27 3//3
f 40//40 3//3 32//32
f 41//41 32//32 3//3
f 41//41 3//3 25//25
f 42//42 33//33 21//21
f 42//42 21//21 17//17
f 43//43 34//34 23//23
f 43//43 23//23 11//11
f 43//43 11//11 34//34
f 44//44 34//34 11//11
f 44//44 38//38 34//34
f 44//44 29//29 38//38
f 45//45 38//38 29//29
f 45//45 19//19 38//38
f 45//45 12//12 19//19
f 46//46 38//38 4//4
f 46//46 4//4 34//34
f 46//46 34//34 38//38
f 47//47 11//11 39//39
f 47//47 44//44 11//11
f 47//47 29//29 44//44
f 48//48 17//17 32//32
f 48//48 32//32 41//41
f 48//48 42//42 17//17
f 48//48 33//33 42//42
f 48//48 13//13 33//33
f 48//48 41//41 25//25
f 48//48 25//25 13//13
f 50//50 39//39 12//12
f 50//50 12//12 45//45
f 50//50 49//49 39//39
f 51//51 45//45 29//29
f 52//52 47//47 39//39
f 52//52 39//39 49//49
f 52//52 29//29 47//47
f 52//52 51//51 29//29
f 53//53 50//50 45//45
f 53//53 45//45 51//51
f 53//53 51//51 49//49
f 53//53 49//49 50//50
f 54//54 52//52 49//49
f 54//54 49//49 51//51
f 54//54 51//51 52//52

