# https://github.com/mikedh/trimesh
v 0.02248497 0.04610020 0.02846259
v 0.02952632 0.00067192 0.00845617
v 0.03199216 0.04593403 0.00888756
v -0.02295254 0.04594103 0.00872660
v -0.01072180 0.00063476 0.02699944
v 0.03061929 0.02588106 0.00835869
v -0.02137861 0.04615173 0.01095071
v 0.02505436 0.01251061 0.01968999
v -0.02246948 0.00064826 0.00848495
v 0.03021600 0.04614751 0.01312970
v -0.01205396 0.04586576 0.02672223
v 0.01999343 0.00077980 0.02807146
v -0.01977318 0.00060147 0.01296351
v 0.02348408 0.04617383 0.02646282
v 0.02166213 0.02600548 0.02811532
v 0.00024204 0.04592275 0.02908273
v 0.00024204 0.00061978 0.02908273
v 0.02673043 0.04114981 0.01965029
v 0.02170992 0.01250390 0.02630433
vn 0.43502775 0.58728662 0.68252860
vn 0.68124132 -0.57951067 -0.44730039
vn 0.71260215 0.53588880 -0.45279284
vn -0.73768930 0.53168413 -0.41608471
vn -0.42903506 -0.63080629 0.64653874
vn 0.42037859 -0.01366173 -0.90724594
vn -0.34355993 0.92266336 0.17509681
vn 0.89786283 -0.06141696 0.43597052
vn -0.72241381 -0.55468716 -0.41284434
vn 0.66636641 0.69039531 0.28162053
vn -0.45167836 0.61321032 0.64804302
vn 0.42043365 -0.62024736 0.66221504
vn -0.59925419 -0.71172549 0.36652590
vn 0.58525882 0.75130652 0.30497643
vn 0.73846226 -0.04568423 0.67274545
vn -0.06357475 0.67504685 0.73503061
vn -0.05089010 -0.68310917 0.72854104
vn 0.89361884 -0.04466960 0.44659826
vn 0.88749044 -0.05963834 0.45695074
f 6//6 3//3 2//2
f 6//6 4//4 3//3
f 7//7 3//3 4//4
f 9//9 6//6 2//2
f 9//9 4//4 6//6
f 10//10 3//3 7//7
f 10//10 8//8 2//2
f 10//10 2//2 3//3
f 11//11 7//7 4//4
f 12//12 2//2 8//8
f 13//13 9//9 2//2
f 13//13 5//5 11//11
f 13//13 11//11 4//4
f 13//13 4//4 9//9
f 14//14 10//10 7//7
f 14//14 1//1 10//10
f 15//15 1//1 12//12
f 16//16 11//11 5//5
f 16//16 1//1 14//14
f 16//16 14//14 7//7
f 16//16 7//7 11//11
f 17//17 2//2 12//12
f 17//17 13//13 2//2
f 17//17 5//5 13//13
f 17//17 16//16 5//5
f 17//17 12//12 1//1
f 17//17 1//1 16//16
f 18//18 10//10 1//1
f 18//18 1//1 15//15
f 18//18 15//15 8//8
f 18//18 8//8 10//10
f 19//19 15//15 12//12
f 19//19 12//12 8//8
f 19//19 8//8 15//15

