# https://github.com/mikedh/trimesh
v 0.03472573 0.03235768 -0.00008563
v 0.04173295 0.03187274 -0.01460951
v 0.04177499 0.04146042 -0.02859192
v -0.03770277 0.03730682 -0.02073797
v -0.03798261 0.03173565 -0.00057821
v 0.04173043 0.03447350 -0.02486122
v 0.02725573 0.03198630 -0.00768704
v -0.03740892 0.03247746 0.00305088
v 0.03556780 0.03623869 -0.02620737
v -0.03743662 0.03216068 -0.01358601
v 0.00076695 0.03238367 0.00228080
v 0.01586956 0.04213778 -0.02660998
v -0.03783953 0.03229020 0.00214232
v -0.02017075 0.03552593 -0.02137180
v 0.04168100 0.03611215 -0.02643447
v -0.03866013 0.03416055 -0.01637058
v 0.04144839 0.03233143 -0.01697716
v 0.03939782 0.03454448 -0.02487715
v -0.02266034 0.03413669 -0.01962890
v -0.03721887 0.03456569 -0.01758385
v -0.03757574 0.03616808 -0.01968949
f 1 2 3
f 6 3 2
f 7 5 2
f 7 2 1
f 7 1 5
f 9 4 3
f 10 2 5
f 11 5 1
f 12 3 4
f 12 4 8
f 12 8 11
f 12 11 1
f 12 1 3
f 13 8 4
f 13 11 8
f 13 5 11
f 14 4 9
f 15 9 3
f 15 3 6
f 16 10 5
f 16 13 4
f 16 5 13
f 17 10 6
f 17 6 2
f 17 2 10
f 18 14 9
f 18 15 6
f 18 9 15
f 19 14 18
f 19 18 6
f 19 6 10
f 20 19 10
f 20 10 16
f 21 4 14
f 21 14 19
f 21 19 20
f 21 20 16
f 21 16 4

