# https://github.com/mikedh/trimesh
v -0.03832167 0.05645830 0.02628552
v -0.03777839 0.03417565 0.02352542
v -0.03729305 0.05199946 -0.02145710
v -0.05694433 0.04972007 -0.02205151
v -0.05786865 0.03488202 0.02902904
v -0.05850477 0.02546208 -0.00911690
v -0.05698646 0.05853338 -0.01704635
v -0.03819033 0.05775012 0.02475941
v -0.04086598 0.03928895 0.02849579
v -0.03756170 0.03148198 -0.01163152
v -0.05787733 0.02956966 0.02760405
v -0.04917511 0.05682146 -0.01927148
v -0.05780555 0.05849809 0.02512870
v -0.05768622 0.03510246 -0.01948617
v -0.03737411 0.05764078 -0.01800854
v -0.03807543 0.03638253 0.02635749
v -0.05744541 0.05477191 0.02863914
v -0.05827887 0.02500007 -0.00275171
v -0.03799933 0.06035581 0.00745478
v -0.05825751 0.02867890 -0.01346478
v -0.03789504 0.03916666 -0.02183735
v -0.04291606 0.05721652 -0.01900713
v -0.04049645 0.04606220 0.02846431
v -0.04296325 0.03783654 0.02827816
v -0.03801352 0.03217368 0.00165558
v -0.05626907 0.02972960 0.02649950
v -0.03855222 0.06010905 0.01809291
v -0.05668796 0.06022527 0.00954109
v -0.05245573 0.06050747 0.00273518
v -0.03757574 0.03616808 -0.01968949
v -0.05717319 0.04187645 -0.02150140
v -0.04517827 0.05083064 0.02841032
v -0.05675778 0.06021281 0.01177531
v -0.05445501 0.06042758 0.00261601
v -0.04697139 0.06033235 0.01792655
v -0.05429119 0.06029921 0.01392113
f 10 3 2
f 11 5 6
f 11 9 5
f 12 3 4
f 12 4 7
f 13 7 6
f 13 6 5
f 13 1 8
f 14 7 4
f 15 8 2
f 15 2 3
f 16 8 1
f 16 2 8
f 16 11 2
f 17 13 5
f 17 1 13
f 18 6 10
f 18 11 6
f 19 8 15
f 20 6 7
f 20 7 14
f 21 4 3
f 22 15 3
f 22 3 12
f 22 12 7
f 22 7 15
f 23 16 1
f 23 9 16
f 23 17 5
f 23 5 9
f 24 16 9
f 24 9 11
f 24 11 16
f 25 18 10
f 25 10 2
f 25 2 18
f 26 18 2
f 26 2 11
f 26 11 18
f 27 13 8
f 27 8 19
f 29 19 15
f 29 15 7
f 30 10 6
f 30 6 20
f 30 20 14
f 30 14 21
f 30 21 3
f 30 3 10
f 31 21 14
f 31 14 4
f 31 4 21
f 32 23 1
f 32 1 17
f 32 17 23
f 33 28 7
f 33 7 13
f 34 29 7
f 34 7 28
f 34 28 33
f 35 27 19
f 35 19 29
f 35 13 27
f 36 34 33
f 36 29 34
f 36 35 29
f 36 33 13
f 36 13 35

