# https://github.com/mikedh/trimesh
v 0.04202444 -0.03192653 0.02097634
v 0.04128422 -0.04485428 0.02102868
v 0.04145064 -0.03805115 -0.02643431
v 0.00135034 -0.04651276 -0.02383962
v 0.00065772 -0.05011873 0.02618057
v 0.01930252 -0.05946149 -0.01218523
v 0.04269266 -0.01756381 -0.01833244
v 0.04028485 -0.05192767 -0.01618229
v 0.00065616 -0.06234618 -0.00312131
v 0.04263308 -0.02692733 -0.02485869
v 0.00082891 -0.03294109 0.00230493
v 0.03821676 -0.05447030 0.01175419
v 0.02904139 -0.05454812 -0.02212281
v 0.03728884 -0.03636246 -0.02635503
v 0.00095924 -0.03724792 -0.01941413
v 0.04110159 -0.04656973 -0.02446679
v 0.04308260 -0.02555706 0.01754610
v 0.04019020 -0.05216196 0.01781804
v 0.03552846 -0.05445344 -0.01411270
v 0.01012007 -0.06194322 0.01389257
v 0.00090883 -0.05764489 -0.01986495
v 0.04152520 -0.03606317 -0.02647083
v 0.03707760 -0.03812409 -0.02641307
v 0.00403382 -0.04504089 -0.02405844
v 0.04285808 -0.02236406 -0.02234131
v 0.00122168 -0.03343121 -0.01341176
v 0.04068629 -0.04972236 -0.02202254
v 0.00106324 -0.04869448 -0.02366066
v 0.04278454 -0.02746400 0.01889718
v 0.04287783 -0.02050818 0.00431734
v 0.03392489 -0.05097229 0.02140582
v 0.02897323 -0.05696335 -0.00495997
v 0.03817167 -0.05446643 0.00730890
v 0.03332514 -0.05439985 -0.01880509
v 0.01184112 -0.06177761 0.00246726
v 0.02869750 -0.05670242 0.01771615
v 0.00104792 -0.05995951 0.02177875
v 0.00079054 -0.05945585 -0.01633410
v 0.00095668 -0.03596742 -0.01786834
v 0.03859646 -0.04844150 -0.02400064
v 0.00342345 -0.05567203 -0.02143771
v 0.04007458 -0.03231916 0.02108185
v 0.04305213 -0.01778533 -0.01264244
v 0.04307426 -0.02306249 0.01354820
v 0.04043646 -0.05053651 0.01915570
v 0.03782454 -0.05212183 -0.02031421
v 0.02652955 -0.05687076 -0.01877629
v 0.01154387 -0.06188191 0.00935559
v 0.00304531 -0.06212454 -0.00474038
v 0.03528764 -0.05430557 0.01747152
v 0.03108919 -0.05501208 0.01916899
v 0.00062139 -0.05601508 0.02410904
v 0.00619182 -0.06177514 0.01364221
v 0.01457433 -0.05962433 0.01955219
v 0.01734893 -0.05919388 -0.01629158
v 0.00100131 -0.06216971 -0.00474886
v 0.00255786 -0.05952344 0.02241620
v 0.00435730 -0.05676374 0.02355494
v 0.01926072 -0.05914643 0.01790404
v 0.02406958 -0.05695972 0.01959014
v 0.02201352 -0.05714690 -0.01977752
v 0.02415657 -0.05520954 0.02120262
v 0.01449507 -0.05800280 0.02115654
f 5 2 1
f 16 3 10
f 17 16 10
f 17 2 16
f 17 11 5
f 18 12 8
f 22 14 10
f 22 10 3
f 23 3 16
f 23 22 3
f 23 14 22
f 24 10 14
f 24 15 10
f 24 4 15
f 24 23 4
f 24 14 23
f 25 15 7
f 25 10 15
f 25 17 10
f 26 11 7
f 27 16 2
f 27 18 8
f 28 23 16
f 28 4 23
f 28 21 15
f 28 15 4
f 29 1 2
f 29 2 17
f 29 17 5
f 31 2 5
f 32 6 19
f 33 19 8
f 33 8 12
f 33 32 19
f 35 6 32
f 35 33 12
f 35 32 33
f 38 9 15
f 38 15 21
f 39 11 26
f 39 15 9
f 39 9 11
f 39 26 7
f 39 7 15
f 40 27 13
f 40 16 27
f 40 28 16
f 40 13 28
f 41 28 13
f 41 13 21
f 41 21 28
f 42 29 5
f 42 5 1
f 42 1 29
f 43 7 11
f 43 11 30
f 43 25 7
f 43 17 25
f 44 30 11
f 44 11 17
f 44 43 30
f 44 17 43
f 45 2 31
f 45 27 2
f 45 18 27
f 46 8 19
f 46 19 34
f 46 27 8
f 46 34 13
f 46 13 27
f 47 34 19
f 47 19 6
f 47 13 34
f 48 20 9
f 48 9 35
f 48 35 12
f 48 36 20
f 48 12 36
f 49 35 9
f 49 6 35
f 50 36 12
f 50 12 18
f 51 45 31
f 51 18 45
f 51 50 18
f 51 36 50
f 52 9 37
f 52 11 9
f 52 5 11
f 53 37 9
f 53 9 20
f 53 20 37
f 54 37 20
f 55 47 6
f 55 38 21
f 55 6 49
f 56 49 9
f 56 9 38
f 56 55 49
f 56 38 55
f 57 52 37
f 57 37 54
f 58 31 5
f 58 5 52
f 58 52 57
f 59 54 20
f 59 20 36
f 59 36 54
f 60 54 36
f 60 36 51
f 61 55 21
f 61 21 13
f 61 13 47
f 61 47 55
f 62 58 57
f 62 31 58
f 62 60 51
f 62 51 31
f 63 62 57
f 63 57 54
f 63 54 60
f 63 60 62

