# https://github.com/mikedh/trimesh
v -0.05744541 0.05477191 0.02863914
v -0.05652214 0.00016629 0.02683923
v -0.05694433 0.04972007 -0.02205151
v -0.07022920 0.04779311 -0.02126351
v -0.07590766 0.01249915 0.02536640
v -0.06612970 0.00056290 -0.01900018
v -0.07446726 0.05773178 -0.01159806
v -0.05465003 0.01261913 0.02342099
v -0.07264827 0.00057572 0.02833605
v -0.07120042 0.02967946 -0.02169556
v -0.05698646 0.05853338 -0.01704635
v -0.07421497 0.05413033 0.02646811
v -0.05626907 0.02972960 0.02649950
v -0.05856092 0.00003033 -0.01290084
v -0.05855568 0.00041008 0.02844644
v -0.07824825 0.00072558 -0.01151937
v -0.06722710 0.03002090 -0.02143370
v -0.07827701 0.04520498 -0.01536067
v -0.06835906 0.05821764 0.02687170
v -0.06669055 0.04933932 -0.02141905
v -0.07212813 0.05406213 0.02837843
v -0.05717319 0.04187645 -0.02150140
v -0.07590882 0.00071637 0.02310294
v -0.07295045 0.00037793 -0.01916705
v -0.07256522 0.05197877 -0.01870056
v -0.07410243 0.04774756 -0.01955866
v -0.07643335 0.05684853 -0.00397722
v -0.07859347 0.02660211 0.00941409
v -0.05853319 0.05865922 -0.01671984
v -0.05780555 0.05849809 0.02512870
v -0.07030428 0.05638528 0.02802595
v -0.07574629 0.02665269 0.02543982
v -0.07437998 0.00068914 0.02695937
v -0.07663403 0.00057106 -0.01723097
v -0.07556645 0.05200459 -0.01587255
v -0.07593535 0.05677561 -0.01160812
v -0.07239875 0.05773889 0.02324735
v -0.07845930 0.02688456 -0.01611372
v -0.07828755 0.05016850 -0.00596827
v -0.07848617 0.00560937 0.00899799
v -0.07425188 0.05795373 -0.00059976
v -0.06033629 0.05824600 0.02664068
v -0.07595611 0.05254369 0.02348476
v -0.07572577 0.04800631 -0.01754411
v -0.07374306 0.05603551 0.02487142
v -0.07837789 0.00341783 -0.01458956
v -0.07823597 0.04968509 -0.01150862
v -0.07827694 0.00080789 0.00439515
v -0.06035458 0.05644539 0.02822046
v -0.07584069 0.05477274 0.01659905
f 10 4 3
f 11 8 3
f 11 1 8
f 13 8 1
f 13 1 2
f 13 2 8
f 14 8 2
f 14 2 9
f 15 9 2
f 15 2 1
f 15 1 9
f 17 10 3
f 17 6 10
f 20 11 3
f 20 3 4
f 21 9 1
f 22 14 6
f 22 3 8
f 22 8 14
f 22 17 3
f 22 6 17
f 24 14 9
f 24 6 14
f 24 10 6
f 25 20 4
f 26 4 10
f 26 25 4
f 29 25 7
f 29 11 20
f 29 20 25
f 30 1 11
f 30 29 19
f 30 11 29
f 31 12 21
f 31 21 1
f 32 21 12
f 33 23 9
f 33 5 23
f 33 32 5
f 33 9 21
f 33 21 32
f 34 23 16
f 34 10 24
f 34 24 9
f 34 9 23
f 35 25 26
f 36 27 7
f 36 35 18
f 36 7 25
f 36 25 35
f 38 18 26
f 38 26 10
f 38 10 34
f 39 38 28
f 39 18 38
f 40 23 5
f 40 5 28
f 41 29 7
f 41 19 29
f 41 37 19
f 41 7 27
f 41 27 37
f 42 30 19
f 42 1 30
f 43 28 5
f 43 5 32
f 43 32 12
f 43 39 28
f 44 35 26
f 44 26 18
f 44 18 35
f 45 31 19
f 45 19 37
f 45 12 31
f 45 43 12
f 45 37 27
f 46 38 34
f 46 34 16
f 46 40 28
f 46 28 38
f 47 36 18
f 47 18 39
f 47 39 27
f 47 27 36
f 48 16 23
f 48 23 40
f 48 46 16
f 48 40 46
f 49 31 1
f 49 1 42
f 49 42 19
f 49 19 31
f 50 27 39
f 50 39 43
f 50 45 27
f 50 43 45

