# https://github.com/mikedh/trimesh
v 0.07010285 0.05706662 0.01885110
v 0.07745118 0.00051612 0.01106502
v 0.07092732 0.05791682 -0.02688000
v 0.04170282 0.04734708 -0.02877038
v 0.04122776 0.03815407 0.01904856
v 0.06741133 0.00058849 -0.02867454
v 0.04183758 0.05873037 0.01798563
v 0.07533722 0.05579169 0.00942164
v 0.07336688 0.00104803 0.01649195
v 0.07525847 0.00053223 -0.02104530
v 0.06539110 0.02162549 -0.03101103
v 0.05147329 -0.00058450 -0.01853544
v 0.06981714 0.06074944 0.01589448
v 0.04187984 0.05843999 -0.02486146
v 0.04152830 0.05703114 0.01955087
v 0.07743452 0.03599210 0.01252555
v 0.06574889 0.03909372 0.01904117
v 0.07387111 0.02729445 -0.02871153
v 0.05350663 0.00838221 -0.03166098
v 0.05885561 0.05052017 -0.02846959
v 0.04173043 0.03447350 -0.02486122
v 0.05888682 -0.00017748 0.01514968
v 0.07093411 0.00042958 -0.02680043
v 0.07315922 0.05903535 0.01328421
v 0.05132268 0.05721510 -0.02606716
v 0.06431347 0.06049207 -0.02439112
v 0.06792835 0.06047386 0.01688985
v 0.07766670 0.00069185 -0.00905320
v 0.07726332 0.02211812 0.01342730
v 0.07230849 0.05501980 0.01856547
v 0.06050382 -0.00015649 0.01707443
v 0.07522218 0.05068012 -0.01446791
v 0.06970402 0.00564429 -0.02849621
v 0.05826692 0.00590308 -0.03103919
v 0.05920415 0.02144269 -0.03104491
v 0.04900898 0.04895078 -0.02873253
v 0.04144654 0.03396068 0.01340096
v 0.04168100 0.03611215 -0.02643447
v 0.07316272 0.00066046 -0.02462821
v 0.07080781 0.05884138 -0.02558458
v 0.05346311 0.06034543 -0.00689923
v 0.06598198 0.06049219 0.01679047
v 0.07105299 0.05923625 0.01713114
v 0.07762727 0.03853123 0.00042922
v 0.07526471 0.02703181 -0.02588314
v 0.07520408 0.00066236 0.01441690
v 0.06768293 0.04128906 0.01884611
v 0.07527296 0.05437720 0.01461217
v 0.05594720 -0.00030503 0.00861635
v 0.06461377 0.01573997 -0.03088250
v 0.05473598 0.00078904 -0.02878265
v 0.05134581 -0.00034876 -0.01561089
v 0.04128536 0.03587696 0.01718090
v 0.04204491 0.04199428 -0.02875093
v 0.05319592 0.00109983 -0.02769515
v 0.07507802 0.05633202 0.01140506
v 0.06867328 0.06013429 -0.02465654
v 0.07286656 0.05549391 -0.02387046
v 0.05669244 0.06032184 0.00881531
v 0.07511554 0.05236670 -0.01222497
v 0.07730900 0.03837554 0.01141940
v 0.07754672 0.01697048 -0.00946656
v 0.07520210 0.03082373 -0.02534961
v 0.07226308 0.05699711 0.01737498
f 12 10 2
f 15 7 14
f 15 14 4
f 15 4 5
f 17 15 5
f 17 1 15
f 18 11 3
f 20 3 11
f 23 12 6
f 23 10 12
f 25 14 3
f 25 4 14
f 26 3 14
f 27 7 15
f 27 15 1
f 28 2 10
f 29 2 16
f 30 1 17
f 30 9 29
f 31 17 5
f 31 9 17
f 31 5 22
f 31 12 2
f 33 23 6
f 33 18 23
f 35 19 4
f 35 11 19
f 36 3 20
f 36 25 3
f 36 4 25
f 36 35 4
f 36 20 11
f 36 11 35
f 38 5 4
f 39 23 18
f 39 18 10
f 39 10 23
f 41 26 14
f 41 14 7
f 41 13 26
f 42 27 13
f 42 7 27
f 43 27 1
f 43 13 27
f 43 1 30
f 43 24 13
f 44 16 2
f 44 2 28
f 45 28 10
f 45 10 18
f 46 29 9
f 46 2 29
f 46 31 2
f 46 9 31
f 47 30 17
f 47 17 9
f 47 9 30
f 48 30 29
f 48 29 16
f 48 24 43
f 49 31 22
f 49 12 31
f 50 33 6
f 50 11 18
f 50 18 33
f 50 6 34
f 50 34 19
f 50 19 11
f 51 34 6
f 51 6 12
f 51 19 34
f 52 37 21
f 52 21 12
f 52 12 49
f 53 21 37
f 53 38 21
f 53 5 38
f 53 52 49
f 53 37 52
f 53 49 22
f 53 22 5
f 54 38 4
f 54 4 19
f 54 19 38
f 55 12 21
f 55 21 38
f 55 51 12
f 55 38 19
f 55 19 51
f 56 40 24
f 56 8 40
f 56 48 8
f 56 24 48
f 57 13 24
f 57 24 40
f 57 26 13
f 57 40 3
f 57 3 26
f 58 3 40
f 58 18 3
f 58 40 8
f 59 41 7
f 59 7 42
f 59 42 13
f 59 13 41
f 60 44 32
f 60 8 44
f 60 58 8
f 60 32 58
f 61 44 8
f 61 16 44
f 61 48 16
f 61 8 48
f 62 44 28
f 62 28 45
f 63 32 44
f 63 62 45
f 63 44 62
f 63 58 32
f 63 45 18
f 63 18 58
f 64 48 43
f 64 43 30
f 64 30 48

