# https://github.com/mikedh/trimesh
v 0.06774929 -0.00227779 0.01881317
v 0.07767991 -0.00399723 0.00930594
v 0.07745118 0.00051612 0.01106502
v 0.05473598 0.00078904 -0.02878265
v 0.04071790 -0.05307765 0.00482463
v 0.07525847 0.00053223 -0.02104530
v 0.05888682 -0.00017748 0.01514968
v 0.06598551 -0.02753146 0.01662770
v 0.07766670 0.00069185 -0.00905320
v 0.04548305 -0.04570116 -0.02374478
v 0.07186244 0.00052577 0.01738306
v 0.04125279 -0.04258747 0.02143309
v 0.07242514 -0.01558301 0.01459103
v 0.06541064 -0.02925336 -0.01894973
v 0.05319592 0.00109983 -0.02769515
v 0.05506792 -0.02224903 -0.03130121
v 0.06050382 -0.00015649 0.01707443
v 0.06415137 -0.02582611 0.01862734
v 0.04734206 -0.04952268 0.01508234
v 0.07512240 -0.01091064 0.01259142
v 0.07225582 -0.01523371 -0.01872782
v 0.07316272 0.00066046 -0.02462821
v 0.04354375 -0.02365823 0.01563763
v 0.06113774 -0.03167419 -0.02384399
v 0.05217570 -0.02001132 -0.03213651
v 0.04148297 -0.03383220 0.02162987
v 0.06706953 -0.01379856 0.01867877
v 0.07081850 -0.01372580 0.01663539
v 0.04055531 -0.05284648 0.01588600
v 0.04493645 -0.04839413 0.01869029
v 0.06560029 -0.03378586 0.01135158
v 0.05167453 -0.04492202 -0.01878049
v 0.07739705 -0.00200402 0.01112732
v 0.07489147 -0.00614676 -0.01880426
v 0.07740816 -0.00601277 -0.00003495
v 0.06741133 0.00058849 -0.02867454
v 0.05431898 -0.00019036 0.00161520
v 0.04284325 -0.02561772 -0.02430039
v 0.05208900 -0.04130350 -0.02410288
v 0.06808953 -0.01991910 -0.02447368
v 0.04110159 -0.04656973 -0.02446679
v 0.06162490 -0.00276186 0.01868955
v 0.04278454 -0.02746400 0.01889718
v 0.04561899 -0.04008906 0.02092320
v 0.04623944 -0.03363142 0.02102438
v 0.04269346 -0.05194931 0.01541969
v 0.04113820 -0.04892436 0.02012708
v 0.06219263 -0.03034787 0.01854330
v 0.07254714 -0.02009878 0.00289563
v 0.07008189 -0.02482276 0.01268319
v 0.05181270 -0.04745200 0.00500854
v 0.04072005 -0.05048536 -0.02076253
v 0.06068809 -0.03820974 -0.00684874
v 0.06301174 -0.03124186 -0.02225380
v 0.07503482 -0.00165808 -0.02087322
v 0.07728823 -0.00370554 -0.00693440
v 0.06625767 -0.01350184 -0.02868882
v 0.05664009 -0.00069861 0.01079521
v 0.05147329 -0.00058450 -0.01853544
v 0.04399494 -0.01635025 -0.01811313
v 0.05937275 -0.02523801 -0.02841680
v 0.04952338 -0.04507108 -0.02217356
v 0.07001067 -0.01790681 -0.02258829
v 0.05143984 -0.02207031 -0.03183046
f 9 3 2
f 11 3 9
f 15 11 9
f 15 7 11
f 17 11 7
f 17 1 11
f 22 15 9
f 22 9 6
f 25 15 4
f 27 11 1
f 28 18 8
f 28 8 13
f 28 27 18
f 28 11 27
f 28 20 11
f 28 13 20
f 29 12 26
f 33 20 2
f 33 2 3
f 33 3 11
f 33 11 20
f 35 9 2
f 36 4 15
f 36 15 22
f 36 25 4
f 37 7 15
f 38 15 25
f 41 39 10
f 41 16 39
f 42 26 1
f 42 1 17
f 42 17 26
f 43 26 17
f 43 17 7
f 43 7 23
f 44 18 27
f 45 27 1
f 45 1 26
f 45 44 27
f 45 26 12
f 45 12 44
f 46 29 5
f 46 30 29
f 46 19 30
f 47 12 29
f 47 29 30
f 47 44 12
f 48 8 18
f 48 47 30
f 48 18 44
f 48 44 47
f 48 31 8
f 48 30 19
f 48 19 31
f 49 31 14
f 49 14 21
f 49 21 35
f 49 35 2
f 49 2 20
f 50 20 13
f 50 13 8
f 50 8 31
f 50 49 20
f 50 31 49
f 51 46 5
f 51 19 46
f 51 31 19
f 52 41 10
f 52 5 29
f 52 29 26
f 52 26 38
f 52 38 41
f 52 51 5
f 52 32 51
f 53 14 31
f 53 51 32
f 53 31 51
f 54 53 32
f 54 14 53
f 54 24 40
f 54 39 24
f 54 32 39
f 55 6 9
f 55 9 34
f 55 22 6
f 56 34 9
f 56 9 35
f 56 35 21
f 56 21 34
f 57 16 25
f 57 25 36
f 57 36 22
f 57 22 40
f 58 37 23
f 58 23 7
f 58 7 37
f 59 37 15
f 59 23 37
f 60 38 26
f 60 23 59
f 60 59 15
f 60 15 38
f 60 43 23
f 60 26 43
f 61 39 16
f 61 24 39
f 61 16 57
f 61 57 40
f 61 40 24
f 62 39 32
f 62 10 39
f 62 52 10
f 62 32 52
f 63 21 14
f 63 54 40
f 63 14 54
f 63 34 21
f 63 55 34
f 63 40 22
f 63 22 55
f 64 25 16
f 64 16 41
f 64 41 38
f 64 38 25

