# https://github.com/mikedh/trimesh
v 4.50000191 32.06267929 5.00001001
v 12.93500042 32.06267929 5.00001001
v 4.50000191 19.67029762 5.00217056
v 12.93500042 25.06267929 5.00122452
v 37.36999893 19.67029762 5.00217056
v 37.66075897 19.58733749 5.00218582
v 38.11696243 19.08094788 5.00227499
v 28.93500137 32.06267929 5.00001001
v 37.36999893 32.06267929 5.00001001
v 28.93500137 25.06267929 5.00122452
v 37.36999893 0.06267987 5.00559044
v 4.50000191 0.06267987 5.00559044
v 37.36999893 12.45506191 5.00342989
v 4.50000191 12.45506191 5.00342989
v 3.75304008 19.08094788 5.00227499
v 4.20924091 19.58733749 5.00218582
v 3.22170544 17.31913757 5.00258064
v 3.18930292 15.06692123 5.00297546
v 3.66847396 13.20335770 5.00329590
v 4.16506624 12.56556988 5.00340748
v 37.70493698 12.56556988 5.00340748
v 37.40453720 12.45621872 5.00342989
v 38.20152664 13.20335770 5.00329590
v 38.68069839 15.06692123 5.00297546
v 38.64829636 17.31913757 5.00258064
v 4.46546650 12.45621872 5.00342989
v 28.93500137 32.06295776 6.60000753
v 41.87000275 32.06295776 6.60000753
v 37.36999893 32.06180573 0.00000000
v 41.87000275 32.06180573 0.00000000
v 21.51221085 8.80601883 14.54979134
v 21.95879364 8.90742207 14.54051590
v 22.54784775 5.79442835 68.83144379
v 20.30060005 22.26766205 14.54398060
v 19.97421455 22.19391632 14.53731918
v 19.32215500 25.28927803 68.83144379
v 18.12557411 21.01568794 14.43003845
v 18.02590752 20.89591026 14.41910076
v 16.76442909 23.01124573 68.83144379
v 26.43170929 6.80245638 117.19795990
v 26.23410225 6.15711594 117.74641418
v 25.10557175 8.07246113 68.83144379
v 15.47392082 6.66514683 117.30910492
v 16.61227989 8.40102577 68.83144379
v 15.81709957 5.71669817 118.16191101
v 17.51781464 6.99593973 68.83144379
v 16.43500137 4.65306902 119.33551025
v 17.53871918 3.48131824 121.02579498
v 16.78605843 4.21027470 119.91355133
v 18.94879532 5.95093966 68.83144379
v 16.58958435 4.44771814 119.59585571
v 16.47710609 4.59535408 119.40740967
v 20.72923279 5.51072121 68.83144379
v 20.53263855 2.22456264 123.81665039
v 19.91199112 2.31841302 123.53729248
v 19.01569748 2.59724545 122.80254364
v 18.63111496 2.77174926 122.39720917
v 18.27053070 2.96877050 121.97746277
v 21.05699539 2.20879626 123.86557770
v 21.56404495 2.24948406 123.74053955
v 22.31806183 2.40979338 123.28245544
v 21.65534592 5.56269455 68.83144379
v 23.10256004 2.70585895 122.54615784
v 25.29431534 4.46546841 119.57284546
v 25.04677200 4.16798353 119.97216034
v 24.07717514 6.72419930 68.83144379
v 24.11247063 3.31078005 121.32337189
v 25.98264503 5.56804132 118.31056976
v 26.63167191 10.91127968 114.92315674
v 26.61678505 9.27956963 115.61385345
v 25.58325195 9.58255577 68.83144379
v 26.59888649 7.87793446 116.41920471
v 26.53494835 7.31057215 116.81061554
v 26.66641045 15.54185295 114.13518524
v 26.65809059 13.51535034 114.28263092
v 25.96345329 12.50353622 68.83144379
v 26.63856888 11.54265690 114.71854401
v 26.63497162 11.21561623 114.82039642
v 26.12866211 15.38210487 68.83144379
v 25.99488831 18.26251411 68.83144379
v 26.66434288 16.53141022 114.17020416
v 26.53523064 23.77136803 116.80933380
v 26.61270714 22.58853912 116.03791046
v 25.63142014 21.16711998 68.83144379
v 26.62548637 20.77299309 115.14923096
v 26.62821579 20.50116730 115.04300690
v 26.63497162 19.86808968 114.82039642
v 26.64910507 18.55733109 114.46379852
v 26.22930336 24.93960953 117.75818634
v 26.38566399 24.45641708 117.34025574
v 25.25772285 22.68268013 68.83144379
v 26.51609802 23.88452339 116.89241791
v 25.39084244 26.49113083 119.41089630
v 25.47785759 26.37042809 119.26152039
v 24.35218620 24.08776665 68.83144379
v 25.69945526 26.03242493 118.86437988
v 25.08280182 26.87474251 119.91535950
v 22.92120743 25.13276672 68.83144379
v 24.62644196 27.34543419 120.60688019
v 21.44005394 28.84919548 123.78609467
v 22.10806084 28.73051643 123.43846893
v 21.14076996 25.57298470 68.83144379
v 23.06008148 28.39745903 122.59141541
v 23.58184814 28.12536049 121.99879456
v 20.88290977 28.87622261 123.86967468
v 20.24355698 28.82546806 123.71414948
v 19.69061279 28.71233177 123.38771820
v 20.21465683 25.52101135 68.83144379
v 16.78736305 26.87492943 119.91561890
v 17.31626892 27.41181946 120.71199036
v 17.61504745 27.66369629 121.13083649
v 18.53715134 28.26385117 122.29132843
v 19.42085266 28.63384819 123.17538452
v 17.79282570 24.35950661 68.83144379
v 16.43500137 26.43063736 119.33551025
v 16.15459633 26.00615311 118.83473969
v 15.25678349 22.45275497 115.95983124
v 15.26351738 23.06603241 116.32897186
v 15.68587494 22.27150154 96.48331451
v 15.44986343 24.32728958 117.23490906
v 15.51758194 24.57140541 117.43625641
v 15.63535118 24.92509842 117.74506378
v 15.87694931 25.49426460 118.28889465
v 15.20420647 16.07806396 114.14546204
v 15.21631908 18.08509064 114.36812592
v 15.49577522 18.89914322 96.48331451
v 15.22277164 18.73957825 114.50527191
v 15.24347401 20.66769028 115.10729980
v 15.23279858 11.41866302 114.75612640
v 15.21293831 13.38690758 114.30203247
v 15.87511349 12.82119179 68.83144379
v 15.20821857 14.04785633 114.21513367
v 15.74133873 15.70160198 68.83144379
v 15.25144100 9.52477837 115.49419403
v 16.23858261 9.91658688 68.83144379
v 15.26494598 7.98624611 116.34906006
v 19.54295540 22.04557610 14.52378941
v 19.12171555 21.83825684 14.50501347
v 18.84159088 21.66114426 14.48896503
v 18.46843338 21.36530113 14.46194172
v 20.75757027 22.31966972 14.54871178
v 21.20803452 22.31362724 14.54815292
v 21.52639389 22.27506638 14.54464340
v 21.97584343 22.17092896 14.53523350
v 23.23348999 21.50799370 14.47498035
v 23.09053993 21.61700630 14.48494148
v 22.68855476 21.87174034 14.50803852
v 22.40406418 22.01251030 14.52077961
v 23.45856094 21.31300545 14.45717335
v 24.39907646 19.98297691 14.33633995
v 24.27115822 20.24369812 14.35979462
v 25.05462837 20.45802689 41.17956924
v 23.99835968 20.68982315 14.40026569
v 23.68516350 21.08260727 14.43614769
v 25.41041183 16.65740585 14.20014381
v 25.22553444 17.66401482 14.22300148
v 25.59983253 17.98204041 41.17956924
v 24.90294075 18.74600792 14.26510525
v 24.44902039 19.87184715 14.32895660
v 24.99817657 12.61753464 14.25424194
v 25.12546730 13.03597927 14.23736668
v 25.55267906 12.82250881 41.17956924
v 25.35581779 14.05696774 14.20775795
v 25.46709633 15.04531574 14.19370651
v 25.46724701 16.03562546 14.19336319
v 23.84418488 10.18767357 14.42260265
v 24.00689316 10.40588760 14.40244865
v 24.98237801 10.35290718 41.17956924
v 24.29251671 10.88051701 14.35897541
v 24.39913368 11.10065651 14.33897018
v 24.56193542 11.46980953 14.31499386
v 23.47514343 9.78606319 14.45966244
v 23.69775772 10.01482296 14.43856239
v 22.39142418 9.06534100 14.52594280
v 22.70839882 9.22265339 14.51154041
v 23.03149033 9.42443562 14.49306297
v 23.10585976 9.47760963 14.48816109
v 21.18311882 8.76796055 14.55329323
v 20.72893143 8.76528072 14.55353928
v 20.27555656 8.82030296 14.54848099
v 19.96629715 8.89168167 14.54196167
v 18.46918488 9.71746922 14.46599483
v 18.84540749 9.41964149 14.49350262
v 19.11400795 9.24959755 14.50908184
v 19.53210068 9.04237938 14.52805805
v 18.12804794 10.06492138 14.43393517
v 17.92340469 10.32141876 14.41024208
v 16.81537247 10.62567997 41.17956924
v 17.62351227 10.79400921 14.36685753
v 16.27017021 13.10166645 41.17956924
v 17.24498177 11.61898804 14.30590439
v 17.47086716 11.10065651 14.33897018
v 16.43088722 16.40144539 14.19669342
v 16.38981438 15.41081524 14.19199276
v 16.43471336 14.64384365 14.19772911
v 16.59284973 13.64681244 14.21774197
v 16.88129616 12.58862019 14.25550842
v 16.52270889 18.10171127 27.35363007
v 16.31732368 18.26119804 41.17956924
v 15.90654945 18.58016968 68.83144379
v 17.47092438 19.98297691 14.33633995
v 17.27764893 19.54229355 14.30817699
v 16.89875031 18.54758072 14.25597095
v 16.58458328 17.39789772 14.21549892
v 16.28674889 21.50115013 68.83144379
v 16.88762283 20.73079872 41.17956924
v 17.18805885 20.34562492 27.35363007
v 17.62672234 20.29534912 14.36445904
v 17.91680336 20.75302505 14.40603256
v 14.93500042 25.84945297 121.06388092
v 14.93500042 25.26398277 120.27833557
v 14.93500042 5.23425341 121.06388092
v 14.93500042 24.83323860 119.72672272
v 14.93500042 5.81972408 120.27833557
v 14.93500042 6.90343618 118.85847473
v 14.93500042 23.65753937 118.19335175
v 14.93500042 23.47836304 117.98246765
v 14.93500042 22.65534973 117.18939209
v 14.93500042 21.52357483 116.50873566
v 14.93500042 21.19020081 116.33966064
v 14.93500042 8.77261162 116.95445251
v 14.93500042 8.47797394 117.15201569
v 14.93500042 7.69105482 117.88574219
v 14.93500042 19.44627380 115.62834167
v 14.93500042 11.99724770 115.51570892
v 14.93500042 10.26119995 116.16598511
v 14.93500042 17.65039635 115.17657471
v 14.93500042 16.65423203 115.04312134
v 14.93500042 13.09876537 115.24000549
v 14.93500042 14.88304138 115.00975037
v 28.93500137 20.28494453 137.79330444
v 28.93500137 21.19996643 136.87828064
v 28.93500137 23.77084732 139.46142578
v 28.93500137 19.03495789 138.12823486
v 28.93500137 19.03495789 118.14214325
v 28.93500137 12.04874992 118.14214325
v 28.93500137 11.21561527 114.82039642
v 28.93500137 7.31285954 116.80895233
v 28.93500137 15.54185295 114.13518524
v 28.93500137 19.86809158 114.82039642
v 28.93500137 20.28494453 118.47707367
v 28.93500137 23.77084732 116.80895233
v 28.93500137 21.19996643 119.39209747
v 28.93500137 21.53489685 120.64208221
v 28.93500137 9.54881001 135.62829590
v 28.93500137 9.88374043 136.87828064
v 28.93500137 7.31285954 139.46142578
v 28.93500137 10.79876137 137.79330444
v 28.93500137 11.21561527 141.44998169
v 28.93500137 12.04874992 138.12823486
v 28.93500137 15.54185295 142.13519287
v 28.93500137 19.86809158 141.44998169
v 28.93500137 7.54185295 126.58518982
v 28.93500137 4.21561575 119.90619659
v 28.93500137 6.76685286 126.79284668
v 28.93500137 2.22706246 123.80895233
v 28.93500137 6.19951344 127.36019135
v 28.93500137 1.54185295 128.13519287
v 28.93500137 5.99185371 128.13519287
v 28.93500137 2.22706246 132.46142578
v 28.93500137 6.19951344 128.91018677
v 28.93500137 4.21561575 136.36418152
v 28.93500137 6.76685286 129.47752380
v 28.93500137 7.54185295 129.68519592
v 28.93500137 10.79876137 118.47707367
v 28.93500137 9.88374043 119.39209747
v 28.93500137 9.54881001 120.64208221
v 28.93500137 8.31685352 126.79284668
v 28.93500137 22.19951439 128.91018677
v 28.93500137 22.76685333 129.47752380
v 28.93500137 21.53489685 135.62829590
v 28.93500137 23.54185295 129.68519592
v 28.93500137 8.31685352 129.47752380
v 28.93500137 8.88419247 128.91018677
v 28.93500137 9.09185314 128.13519287
v 28.93500137 8.88419247 127.36019135
v 28.93500137 21.99185371 128.13519287
v 28.93500137 22.19951439 127.36019135
v 28.93500137 22.76685333 126.79284668
v 28.93500137 26.86809158 136.36418152
v 28.93500137 24.31685448 129.47752380
v 28.93500137 28.85664368 132.46142578
v 28.93500137 24.88419342 128.91018677
v 28.93500137 29.54185295 128.13519287
v 28.93500137 25.09185219 128.13519287
v 28.93500137 28.85664368 123.80895233
v 28.93500137 24.88419342 127.36019135
v 28.93500137 26.86809158 119.90619659
v 28.93500137 24.31685448 126.79284668
v 28.93500137 23.54185295 126.58518982
v 19.48838425 4.74274635 137.04469299
v 19.23700333 4.21579075 136.36442566
v 16.81383705 29.41427994 126.24950409
v 17.09000206 29.54185295 128.13540649
v 16.56514168 28.83990097 123.75775909
v 16.46553612 28.09274864 121.93236542
v 16.43500137 27.08636475 120.21532440
v 16.60933304 29.01032639 124.31416321
v 17.47097778 1.68773723 130.15098572
v 17.09958458 1.54197121 128.19262695
v 16.81265259 1.67070889 126.24010468
v 16.70026970 1.83850992 125.26841736
v 16.56897926 2.22687507 123.80952454
v 16.43500137 3.99734163 120.21532440
v 16.44112778 3.50569558 120.98460388
v 16.45373154 3.18183565 121.56024170
v 16.53782082 2.37972379 123.36461639
v 18.89878273 3.56999421 135.39291382
v 18.73067856 3.27507401 134.88249207
v 18.18638802 2.44150043 133.07287598
v 18.02067184 2.22755408 132.46293640
v 17.69921494 1.87574792 131.17453003
v 21.11425018 9.61483955 140.81866455
v 20.65973854 7.88208485 139.85389709
v 20.48222542 7.31132460 139.46031189
v 20.07476807 6.14914370 138.51675415
v 21.69918251 13.46287346 141.97996521
v 21.74593163 14.18485832 142.06927490
v 21.78060532 15.54164696 142.13519287
v 21.48799515 11.60508060 141.57028198
v 21.42674637 11.21413326 141.44949341
v 21.15854645 9.81349850 140.90962219
v 21.54169655 19.10012817 141.67544556
v 21.67455673 17.91419792 141.93272400
v 21.77583885 16.04506111 142.12614441
v 20.60105705 23.39544487 139.72488403
v 20.83253860 22.59673309 140.22769165
v 21.23902893 20.88964462 141.07354736
v 21.42665863 19.87010193 141.44932556
v 19.33111382 26.67547607 136.62297058
v 19.48928642 26.33899307 137.04707336
v 20.06634521 24.95677567 138.49662781
v 20.48239326 23.77186775 139.46067810
v 18.07508087 28.78815460 132.66680908
v 18.19014931 28.63711929 133.08634949
v 18.74525833 27.78373528 134.92756653
v 19.23698997 26.86793900 136.36439514
v 17.10178757 29.54167557 128.20571899
v 17.20000267 29.52752304 128.76847839
v 17.60091209 29.29613495 130.74665833
v 18.02045250 28.85642433 132.46211243
v 23.93500137 7.54185295 126.58518982
v 23.93500137 8.31685352 126.79284668
v 23.93500137 8.88419247 127.36019135
v 23.93500137 9.09185314 128.13519287
v 23.93500137 8.88419247 128.91018677
v 23.93500137 8.31685352 129.47752380
v 23.93500137 7.54185295 129.68519592
v 23.93500137 6.76685286 129.47752380
v 23.93500137 6.19951344 128.91018677
v 23.93500137 5.99185371 128.13519287
v 23.93500137 6.19951344 127.36019135
v 23.93500137 6.76685286 126.79284668
v 23.93500137 23.54185295 126.58518982
v 23.93500137 24.31685448 126.79284668
v 23.93500137 24.88419342 127.36019135
v 23.93500137 25.09185219 128.13519287
v 23.93500137 24.88419342 128.91018677
v 23.93500137 24.31685448 129.47752380
v 23.93500137 23.54185295 129.68519592
v 23.93500137 22.76685333 129.47752380
v 23.93500137 22.19951439 128.91018677
v 23.93500137 21.99185371 128.13519287
v 23.93500137 22.19951439 127.36019135
v 23.93500137 22.76685333 126.79284668
v 33.94198227 19.00693321 137.10023499
v 29.92801857 19.03495789 137.12825012
v 33.94198227 12.07677269 137.10023499
v 29.92801857 12.04874992 137.12825012
v 33.94198227 10.57680893 135.60026550
v 29.92801857 10.54878616 135.62829590
v 33.94198227 10.57680893 120.67010498
v 29.92801857 10.54878616 120.64208221
v 29.92801857 19.03495789 119.14212036
v 33.94198227 19.00693321 119.17014313
v 29.92801857 12.04874992 119.14212036
v 33.94198227 12.07677269 119.17014313
v 33.94198227 20.50689697 120.67010498
v 29.92801857 20.53491974 120.64208221
v 33.94198227 20.50689697 135.60026550
v 29.92801857 20.53491974 135.62829590
v 34.93500137 19.50692177 135.60026550
v 34.93500137 11.57678509 135.60026550
v 34.93500137 19.50692177 120.67010498
v 34.93500137 11.57678509 120.67010498
v 34.93500137 11.82677555 136.03327942
v 34.93500137 11.64377117 135.85026550
v 34.93500137 12.07677269 136.10025024
v 34.93500137 19.00693321 136.10025024
v 34.93500137 19.25693130 136.03327942
v 34.93500137 19.43993568 135.85026550
v 34.93500137 19.25693130 120.23710632
v 34.93500137 19.43993568 120.42011261
v 34.93500137 19.00693321 120.17012024
v 34.93500137 12.07677269 120.17012024
v 34.93500137 11.82677555 120.23710632
v 34.93500137 11.64377117 120.42011261
v 23.93500137 20.85717392 126.58518982
v 23.93500137 20.44185257 128.13519287
v 23.93500137 20.85717392 129.68519592
v 23.93500137 21.99185371 130.81987000
v 23.93500137 23.54185295 131.23518372
v 23.93500137 25.09185219 130.81987000
v 23.93500137 26.22653198 129.68519592
v 23.93500137 26.64185333 128.13519287
v 23.93500137 26.22653198 126.58518982
v 23.93500137 25.09185219 125.45050812
v 23.93500137 23.54185295 125.03518677
v 23.93500137 21.99185371 125.45050812
v 16.99755287 25.70193481 130.35870361
v 16.80805206 26.18501091 129.75497437
v 17.30163193 23.54185295 131.23518372
v 17.27720070 22.90132713 131.16828918
v 17.24979782 22.61247826 131.09259033
v 16.78715134 20.85711479 129.68508911
v 16.83405304 20.95333862 129.84094238
v 16.90510178 21.12022209 130.07057190
v 17.08024788 21.67123222 130.60719299
v 17.13848495 21.92048454 130.77737427
v 16.63287163 20.61097908 129.14512634
v 16.56382751 20.53462982 128.88792419
v 16.11788177 20.71683884 126.85874939
v 16.16251564 20.61850166 127.10367584
v 16.31552315 20.45436287 127.85698700
v 16.37443542 20.44189262 128.11940002
v 15.91683006 21.88981628 125.51206970
v 15.98116875 21.29356956 126.00089264
v 16.01045990 21.11863136 126.20179749
v 16.07106018 20.85689354 126.58567810
v 15.86542034 23.88283539 125.05400085
v 15.86349201 23.54184914 125.03518677
v 15.86659145 23.11041069 125.06536102
v 15.87166882 22.84716797 125.11402893
v 15.90106010 22.12209702 125.37941742
v 15.90942383 21.99183464 125.45052338
v 15.88124752 24.54919243 125.20342255
v 15.89221287 24.80052376 125.30221558
v 15.96472549 25.67180443 125.88278961
v 15.94050884 25.46116638 125.70080566
v 15.90943432 25.09202766 125.45060730
v 16.23101616 26.56642532 127.45551300
v 16.09558487 26.30556870 126.73095703
v 16.07099152 26.22657394 126.58526611
v 16.05336952 26.16142273 126.47752380
v 16.54090118 26.56970978 128.80007935
v 16.47022820 26.61776543 128.52088928
v 16.37823296 26.64185333 128.13587952
v 16.29205704 26.61766243 127.74867249
v 16.74176788 26.30994034 129.53079224
v 17.30087471 23.65497780 131.23312378
v 17.29299164 23.92358971 131.21159363
v 17.22632408 24.65829659 131.02717590
v 17.19217110 24.88104630 130.93099976
v 17.15306473 25.09265900 130.81939697
v 17.05023384 25.52488708 130.51795959
v 23.93500137 10.22653198 126.58518982
v 23.93500137 9.09185314 125.45050812
v 23.93500137 7.54185295 125.03518677
v 23.93500137 5.99185371 125.45050812
v 23.93500137 4.85717487 126.58518982
v 23.93500137 4.44185352 128.13519287
v 23.93500137 4.85717487 129.68519592
v 23.93500137 5.99185371 130.81987000
v 23.93500137 7.54185295 131.23518372
v 23.93500137 9.09185314 130.81987000
v 23.93500137 10.22653198 129.68519592
v 23.93500137 10.64185333 128.13519287
v 16.99755287 9.70193577 130.35870361
v 16.80805206 10.18501091 129.75497437
v 17.30163193 7.54185295 131.23518372
v 17.27720070 6.90132666 131.16828918
v 17.24979782 6.61247873 131.09259033
v 16.78715134 4.85711336 129.68508911
v 16.83405304 4.95333862 129.84094238
v 16.90510178 5.12022161 130.07057190
v 17.08024788 5.67123318 130.60719299
v 17.13848495 5.92048454 130.77737427
v 16.63287163 4.61097908 129.14512634
v 16.56382751 4.53463125 128.88792419
v 16.11788177 4.71683884 126.85874939
v 16.16251564 4.61850214 127.10367584
v 16.31552315 4.45436239 127.85698700
v 16.37443542 4.44189358 128.11940002
v 15.91683006 5.88981724 125.51206970
v 15.98116875 5.29356956 126.00089264
v 16.01045990 5.11863089 126.20179749
v 16.07106018 4.85689402 126.58567810
v 15.86542034 7.88283539 125.05400085
v 15.86349201 7.54184914 125.03518677
v 15.86659145 7.11041021 125.06536102
v 15.87166882 6.84716845 125.11402893
v 15.90106010 6.12209654 125.37941742
v 15.90942383 5.99183416 125.45052338
v 15.88124752 8.54919338 125.20342255
v 15.89221287 8.80052376 125.30221558
v 15.96472549 9.67180538 125.88278961
v 15.94050884 9.46116638 125.70080566
v 15.90943432 9.09202671 125.45060730
v 16.23101616 10.56642532 127.45551300
v 16.09558487 10.30556965 126.73095703
v 16.07099152 10.22657490 126.58526611
v 16.05336952 10.16142273 126.47752380
v 16.54090118 10.56970978 128.80007935
v 16.47022820 10.61776543 128.52088928
v 16.37823296 10.64185333 128.13587952
v 16.29205704 10.61766338 127.74867249
v 16.74176788 10.30993938 129.53079224
v 17.30087471 7.65497780 131.23312378
v 17.29299164 7.92359018 131.21159363
v 17.22632408 8.65829659 131.02717590
v 17.19217110 8.88104725 130.93099976
v 17.15306473 9.09265900 130.81939697
v 17.05023384 9.52488613 130.51795959
v 33.94453812 19.75690842 136.89926147
v 29.92546463 19.78496742 136.92732239
v 33.94453812 20.30592155 136.35025024
v 29.92546463 20.33398056 136.37831116
v 33.94453812 10.77778530 136.35025024
v 29.92546463 10.74972630 136.37831116
v 33.94453812 11.32679749 136.89926147
v 29.92546463 11.29873848 136.92732239
v 33.94453812 11.32679749 119.37112427
v 29.92546463 11.29873848 119.34306335
v 33.94453812 10.77778530 119.92013550
v 29.92546463 10.74972630 119.89207458
v 33.94453812 20.30592155 119.92013550
v 29.92546463 20.33398056 119.89207458
v 33.94453812 19.75690842 119.37112427
v 29.92546463 19.78496742 119.34306335
v 34.44049835 19.68834686 136.78050232
v 34.43902588 19.00693321 136.96394348
v 34.80261230 19.50555420 136.46389771
v 34.80218887 19.00693321 136.59823608
v 34.44049835 20.18716812 136.28167725
v 34.80261230 19.87056160 136.09889221
v 34.43902588 20.37061119 135.60026550
v 34.80218887 20.00490570 135.60026550
v 34.43902588 12.07677269 136.96394348
v 34.80218887 12.07677269 136.59823608
v 34.43902588 20.37061119 120.67010498
v 34.80218887 20.00490570 120.67010498
v 34.44049835 10.89653873 136.28167725
v 34.43902588 10.71309566 135.60026550
v 34.80261230 11.21314430 136.09889221
v 34.80218887 11.07880116 135.60026550
v 34.44049835 11.39536095 136.78050232
v 34.80261230 11.57815266 136.46389771
v 34.44049835 20.18716812 119.98869324
v 34.80261230 19.87056160 120.17148590
v 34.44049835 19.68834686 119.48987579
v 34.80261230 19.50555420 119.80648041
v 34.43902588 19.00693321 119.30643463
v 34.80218887 19.00693321 119.67213440
v 34.43902588 10.71309566 120.67010498
v 34.80218887 11.07880116 120.67010498
v 34.43902588 12.07677269 119.30643463
v 34.80218887 12.07677269 119.67213440
v 34.44049835 11.39536095 119.48987579
v 34.80261230 11.57815266 119.80648041
v 34.44049835 10.89653873 119.98869324
v 34.80261230 11.21314430 120.17148590
v 29.42950439 20.45273590 119.82350922
v 29.42950439 19.85353088 119.22431183
v 29.06739044 20.03632164 118.90769958
v 29.43097496 20.67120743 120.64208221
v 29.06739044 20.76934052 119.64071655
v 29.06781387 21.03691292 120.64208221
v 29.06781387 19.03495789 118.64012909
v 29.43097496 19.03495789 119.00583649
v 29.43097496 12.04874992 119.00583649
v 29.06781387 12.04874992 118.64012909
v 29.43097496 20.67120743 135.62829590
v 29.06781387 21.03691292 135.62829590
v 29.42950439 11.23017597 119.22431183
v 29.42950439 10.63097191 119.82350922
v 29.06739044 10.31436634 119.64071655
v 29.06739044 11.04738426 118.90769958
v 29.06781387 10.04679394 120.64208221
v 29.43097496 10.41249943 120.64208221
v 29.42950439 19.85353088 137.04606628
v 29.42950439 20.45273590 136.44686890
v 29.06739044 20.76934052 136.62965393
v 29.43097496 19.03495789 137.26454163
v 29.06739044 20.03632164 137.36267090
v 29.06781387 19.03495789 137.63024902
v 29.43097496 10.41249943 135.62829590
v 29.06781387 10.04679394 135.62829590
v 29.43097496 12.04874992 137.26454163
v 29.06781387 12.04874992 137.63024902
v 29.42950439 10.63097191 136.44686890
v 29.42950439 11.23017597 137.04606628
v 29.06739044 11.04738426 137.36267090
v 29.06739044 10.31436634 136.62965393
v 15.62547779 3.04195833 128.46397400
v 15.52737045 3.65759063 127.92235565
v 15.32736588 3.15690327 126.65273285
v 15.37124157 3.86408901 126.95530701
v 15.21060562 3.30672503 125.75135040
v 15.32569599 3.98780322 126.64088440
v 15.21608162 4.49328327 125.79753113
v 15.04182720 3.78995204 123.98530579
v 15.18619251 4.71336746 125.53961945
v 14.95446205 4.50612307 122.31148529
v 15.12054062 5.46348476 124.91209412
v 15.10444927 5.75570774 124.74180603
v 14.94136715 4.79528379 121.77749634
v 15.07445812 6.66789436 124.40111542
v 15.07445812 22.66789436 124.40111542
v 15.06927681 22.99906921 124.33863831
v 15.10444927 21.75570869 124.74180603
v 15.06927681 6.99906969 124.33863831
v 15.06808186 7.97083044 124.32405853
v 15.08423233 8.80915165 124.51587677
v 15.25986671 10.83744049 126.15148926
v 15.12054062 21.46348572 124.91209412
v 15.30294323 11.01878643 126.47682953
v 15.18619251 20.71336746 125.53961945
v 15.44113827 11.34696007 127.40697479
v 15.37124157 19.86408997 126.95530701
v 15.32569599 19.98780251 126.64088440
v 15.21608162 20.49328423 125.79753113
v 15.09542179 9.12534142 124.64270020
v 15.14470291 9.95647335 125.15438080
v 15.16941357 10.22147083 125.38800812
v 15.06808186 23.97083092 124.32405853
v 15.08423233 24.80915260 124.51587677
v 14.96672630 26.74801064 122.65668488
v 15.09542179 25.12534142 124.64270020
v 15.14470291 25.95647240 125.15438080
v 15.07021141 27.41511154 124.34999847
v 15.16941357 26.22146988 125.38800812
v 15.11612606 27.56727409 124.86614227
v 15.25986671 26.83744049 126.15148926
v 15.32859707 27.92794800 126.66145325
v 15.30294323 27.01878548 126.47682953
v 15.44113827 27.34696007 127.40697479
v 15.62776566 28.04169464 128.47612000
v 16.45675850 24.94641113 131.99205017
v 16.52478790 24.02210236 132.22880554
v 17.33526802 26.47210503 134.71159363
v 15.50342560 27.41142082 127.78331757
v 15.58400345 27.44166183 128.24015808
v 15.72980785 28.02905846 128.99816895
v 15.68523312 27.41154861 128.77464294
v 15.75734806 27.35109329 129.13305664
v 16.14633751 27.82246208 130.83320618
v 15.96231461 27.02428436 130.07109070
v 16.02995110 26.86711693 130.35888672
v 16.63898087 27.36890793 132.61441040
v 16.22332001 26.25937653 131.13392639
v 16.75853157 27.23405457 133.00361633
v 16.27707481 26.03663635 131.33834839
v 16.42190933 25.22664452 131.86859131
v 16.53283119 23.68417168 132.25643921
v 16.53360558 23.54185295 132.25909424
v 16.50867271 22.73602867 132.17321777
v 16.48071289 22.37264061 132.07604980
v 16.36712646 21.50206757 131.67138672
v 17.49477386 4.85269356 135.14328003
v 16.30770111 21.18849182 131.45291138
v 16.12898064 20.49528313 130.76402283
v 16.05648232 20.28533554 130.46923828
v 15.85119534 19.85462379 129.57600403
v 15.75734806 11.35109234 129.13305664
v 15.78074265 19.75857353 129.24581909
v 15.52737045 19.65759087 127.92235565
v 15.50342560 11.41142082 127.78331757
v 15.58748627 19.64190483 128.25923157
v 15.58400345 11.44166279 128.24015808
v 15.68523312 11.41154957 128.77464294
v 15.96231461 11.02428436 130.07109070
v 16.02995110 10.86711693 130.35888672
v 16.22332001 10.25937653 131.13392639
v 16.53283119 7.68417215 132.25643921
v 16.53360558 7.54185295 132.25909424
v 16.27707481 10.03663635 131.33834839
v 16.42190933 9.22664452 131.86859131
v 16.45675850 8.94641018 131.99205017
v 16.52478790 8.02210236 132.22880554
v 16.50867271 6.73602915 132.17321777
v 16.48071289 6.37264013 132.07604980
v 17.32011986 4.58937216 134.66978455
v 16.36712646 5.50206661 131.67138672
v 16.75462341 3.84510970 132.99110413
v 16.30770111 5.18849230 131.45291138
v 16.24847031 3.33997416 131.23011780
v 16.12898064 4.49528360 130.76402283
v 16.05648232 4.28533554 130.46923828
v 16.01133919 3.17210603 130.28063965
v 15.85119534 3.85462403 129.57600403
v 15.78074265 3.75857306 129.24581909
v 15.58748627 3.64190435 128.25923157
v 20.37869453 17.66001892 141.20989990
v 17.71498871 15.16764069 135.71553040
v 20.48392296 15.99114609 141.38931274
v 20.45285034 14.33025074 141.33656311
v 20.24065971 18.71888542 140.97123718
v 19.92619896 20.31666756 140.41288757
v 19.50387192 21.84085274 139.62823486
v 19.26337242 22.55398941 139.16180420
v 18.70782471 23.94803429 138.02241516
v 18.10828590 25.18215752 136.67774963
v 18.10734749 5.89979362 136.67553711
v 18.71657562 7.15550518 138.04109192
v 19.32433701 8.70277405 139.28147888
v 19.79655838 10.24987602 140.17643738
v 19.84258080 10.42725086 140.26081848
v 20.18486404 12.02687740 140.87367249
v 20.40428162 13.68562126 141.25372314
v 17.94394875 25.48258781 136.28433228
v 16.92160034 22.90481758 131.25456238
v 16.89655685 22.61657143 131.18072510
v 16.79427338 21.92108727 130.87106323
v 16.74043274 21.66822815 130.70256042
v 16.57728958 21.10311127 130.16618347
v 16.51062965 20.92982292 129.93467712
v 16.32050323 20.56923294 129.22753906
v 16.25480843 20.48702240 128.96441650
v 16.07345009 20.38078690 128.17413330
v 16.01667786 20.39023018 127.90321350
v 15.86833763 20.55081749 127.12359619
v 15.82478333 20.64979553 126.86972809
v 15.71927547 21.05843163 126.18847656
v 15.69029522 21.23723030 125.98016357
v 15.62618923 21.84793854 125.47366333
v 15.61035633 22.08607483 125.33634186
v 15.58067608 22.82956314 125.06182861
v 15.57433224 23.89146996 124.99977875
v 15.57552242 23.09948158 125.01152039
v 15.59037685 24.57474327 125.15425873
v 15.60144806 24.83246040 125.25645447
v 15.64986610 25.50967979 125.66915131
v 15.67397499 25.72539330 125.85773468
v 15.76155186 26.22547913 126.47441101
v 15.80296803 26.37189102 126.73722076
v 15.93491936 26.63344383 127.48800659
v 16.16539383 26.67263031 128.58764648
v 15.99401474 26.68278694 127.79128265
v 15.56812859 27.11144257 127.80998993
v 16.23294449 26.61917877 128.87437439
v 16.42366219 26.34191513 129.62042236
v 16.48616982 26.21090508 129.84774780
v 16.66362572 25.71116447 130.45507812
v 16.84371185 24.87800217 131.02239990
v 16.71260262 25.53002930 130.61387634
v 15.73949051 27.10330200 128.72532654
v 15.80695438 27.04398918 129.05540466
v 15.99720287 26.73274994 129.91604614
v 16.05949020 26.58494568 130.17890930
v 16.23613739 26.01895142 130.88310242
v 16.28484535 25.81315994 131.06776428
v 16.41512299 25.07029915 131.54409790
v 16.44624710 24.81490135 131.65438843
v 16.50673676 23.97632408 131.86512756
v 16.51386452 23.67057610 131.88964844
v 16.87505913 24.65435982 131.11674500
v 16.93600845 23.92127609 131.29670715
v 16.94319344 23.65425682 131.31762695
v 16.66100502 23.65985107 131.55303955
v 16.65415192 23.94017982 131.53099060
v 16.59592628 24.71039772 131.34117126
v 16.56591606 24.94565964 131.24157715
v 16.43997574 25.63270950 130.80970764
v 16.39276695 25.82393646 130.64161682
v 16.22106361 26.35254478 129.99789429
v 16.16035461 26.49143600 129.75666809
v 15.97445583 26.78621483 128.96429443
v 15.90837479 26.84340477 128.65956116
v 15.74015999 26.85593605 127.81278229
v 15.68195152 26.80438995 127.49021912
v 15.55152893 26.52924728 126.69161224
v 15.51043797 26.37489510 126.41205597
v 15.42321968 25.84721947 125.75617218
v 15.39910793 25.61950684 125.55562592
v 15.35050774 24.90451050 125.11682129
v 15.33935356 24.63240433 125.00817871
v 15.32315350 23.91098595 124.84397125
v 15.32435608 23.07478905 124.85645294
v 15.32956409 22.78980064 124.90992737
v 15.35947037 22.00480270 125.20175934
v 15.37537575 21.75337791 125.34776306
v 15.43951225 21.10868835 125.88637543
v 15.46839809 20.92000389 126.10792542
v 15.57314110 20.48912048 126.83255768
v 15.61622620 20.38492966 127.10260773
v 15.76245403 20.21670723 127.93182373
v 15.81823349 20.20732307 128.21990967
v 15.99581814 20.32148552 129.05996704
v 16.05992508 20.40900993 129.33950806
v 16.24478912 20.79156685 130.09010315
v 16.30935287 20.97498322 130.33555603
v 16.46676445 21.57184029 130.90353394
v 16.51850510 21.83836937 131.08171082
v 16.61648178 22.57013893 131.40869141
v 16.64040375 22.87299347 131.48655701
v 15.50895786 27.05436707 127.46183014
v 15.37665176 26.75549126 126.60054016
v 15.33505535 26.58882904 126.29917145
v 15.24695015 26.02052498 125.59207153
v 15.22264862 25.77557755 125.37580872
v 15.17376232 25.00680923 124.90245056
v 15.16256523 24.71427917 124.78520966
v 15.14632130 23.93870544 124.60794830
v 15.14752674 23.03971672 124.62142181
v 15.15274715 22.73333168 124.67914581
v 15.18276691 21.88941193 124.99409485
v 15.19875908 21.61909294 125.15161133
v 15.26338673 20.92565727 125.73246002
v 15.29255295 20.72250748 125.97131348
v 15.39854622 20.25753784 126.75250244
v 15.44223404 20.14456367 127.04370117
v 15.59080887 19.95970345 127.93853760
v 15.64759541 19.94787788 128.24980164
v 15.82878208 20.06481934 129.15911865
v 15.89433765 20.15687180 129.46244812
v 16.08385468 20.56318474 130.27952576
v 16.15022850 20.75923920 130.54776001
v 16.31251144 21.40083122 131.17100525
v 16.36601639 21.68878174 131.36741638
v 16.46758842 22.48279762 131.72926331
v 16.49244118 22.81251335 131.81573486
v 16.92160034 6.90481806 131.25456238
v 16.89655685 6.61657190 131.18072510
v 16.79427338 5.92108727 130.87106323
v 16.74043274 5.66822767 130.70256042
v 16.57728958 5.10311222 130.16618347
v 16.51062965 4.92982388 129.93467712
v 16.32050323 4.56923342 129.22753906
v 16.25480843 4.48702288 128.96441650
v 16.07345009 4.38078785 128.17413330
v 16.01667786 4.39023018 127.90321350
v 15.86833763 4.55081654 127.12359619
v 15.82478333 4.64979649 126.86972809
v 15.71927547 5.05843210 126.18847656
v 15.69029522 5.23723125 125.98016357
v 15.62618923 5.84793949 125.47366333
v 15.61035633 6.08607578 125.33634186
v 15.58067608 6.82956266 125.06182861
v 15.57433224 7.89146948 124.99977875
v 15.57552242 7.09948301 125.01152039
v 15.59037685 8.57474232 125.15425873
v 15.60144806 8.83245945 125.25645447
v 15.64986610 9.50967979 125.66915131
v 15.67397499 9.72539330 125.85773468
v 15.76155186 10.22547913 126.47441101
v 15.80296803 10.37189198 126.73722076
v 15.93491936 10.63344383 127.48800659
v 16.16539383 10.67263031 128.58764648
v 15.99401474 10.68278694 127.79128265
v 15.56812859 11.11144161 127.80998993
v 16.23294449 10.61917973 128.87437439
v 16.42366219 10.34191418 129.62042236
v 16.48616982 10.21090603 129.84774780
v 16.66362572 9.71116447 130.45507812
v 16.84371185 8.87800121 131.02239990
v 16.71260262 9.53002834 130.61387634
v 15.73949051 11.10330105 128.72532654
v 15.80695438 11.04398918 129.05540466
v 15.99720287 10.73274994 129.91604614
v 16.05949020 10.58494568 130.17890930
v 16.23613739 10.01895142 130.88310242
v 16.28484535 9.81315994 131.06776428
v 16.41512299 9.07029915 131.54409790
v 16.44624710 8.81490135 131.65438843
v 16.50673676 7.97632360 131.86512756
v 16.51386452 7.67057562 131.88964844
v 16.87505913 8.65436077 131.11674500
v 16.93600845 7.92127514 131.29670715
v 16.94319344 7.65425730 131.31762695
v 16.66100502 7.65984964 131.55303955
v 16.65415192 7.94017935 131.53099060
v 16.59592628 8.71039867 131.34117126
v 16.56591606 8.94565964 131.24157715
v 16.43997574 9.63270950 130.80970764
v 16.39276695 9.82393646 130.64161682
v 16.22106361 10.35254574 129.99789429
v 16.16035461 10.49143600 129.75666809
v 15.97445583 10.78621578 128.96429443
v 15.90837479 10.84340477 128.65956116
v 15.74015999 10.85593700 127.81278229
v 15.68195152 10.80439091 127.49021912
v 15.55152893 10.52924633 126.69161224
v 15.51043797 10.37489510 126.41205597
v 15.42321968 9.84721851 125.75617218
v 15.39910793 9.61950779 125.55562592
v 15.35050774 8.90451145 125.11682129
v 15.33935356 8.63240433 125.00817871
v 15.32315350 7.91098499 124.84397125
v 15.32435608 7.07478905 124.85645294
v 15.32956409 6.78980064 124.90992737
v 15.35947037 6.00480366 125.20175934
v 15.37537575 5.75337839 125.34776306
v 15.43951225 5.10868788 125.88637543
v 15.46839809 4.92000389 126.10792542
v 15.57314110 4.48912001 126.83255768
v 15.61622620 4.38492918 127.10260773
v 15.76245403 4.21670818 127.93182373
v 15.81823349 4.20732307 128.21990967
v 15.99581814 4.32148552 129.05996704
v 16.05992508 4.40900946 129.33950806
v 16.24478912 4.79156733 130.09010315
v 16.30935287 4.97498369 130.33555603
v 16.46676445 5.57183933 130.90353394
v 16.51850510 5.83836985 131.08171082
v 16.61648178 6.57013893 131.40869141
v 16.64040375 6.87299395 131.48655701
v 15.50895786 11.05436611 127.46183014
v 15.37665176 10.75549030 126.60054016
v 15.33505535 10.58882904 126.29917145
v 15.24695015 10.02052402 125.59207153
v 15.22264862 9.77557850 125.37580872
v 15.17376232 9.00680923 124.90245056
v 15.16256523 8.71427917 124.78520966
v 15.14632130 7.93870544 124.60794830
v 15.14752674 7.03971577 124.62142181
v 15.15274715 6.73333168 124.67914581
v 15.18276691 5.88941288 124.99409485
v 15.19875908 5.61909389 125.15161133
v 15.26338673 4.92565823 125.73246002
v 15.29255295 4.72250843 125.97131348
v 15.39854622 4.25753736 126.75250244
v 15.44223404 4.14456320 127.04370117
v 15.59080887 3.95970321 127.93853760
v 15.64759541 3.94787741 128.24980164
v 15.82878208 4.06481886 129.15911865
v 15.89433765 4.15687275 129.46244812
v 16.08385468 4.56318426 130.27952576
v 16.15022850 4.75923920 130.54776001
v 16.31251144 5.40083170 131.17100525
v 16.36601639 5.68878174 131.36741638
v 16.46758842 6.48279858 131.72926331
v 16.49244118 6.81251287 131.81573486
v 15.86097527 26.99221039 120.27991486
v 15.86097527 26.34183121 119.40727997
v 15.68500137 26.92065048 120.32901001
v 15.68500137 26.27433586 119.46182251
v 15.37434101 26.72408104 120.46385956
v 15.37434101 26.08893204 119.61165619
v 15.13596249 26.46790886 120.63960266
v 15.13596249 25.84731102 119.80692291
v 15.04918098 26.32279968 120.73915100
v 15.04918098 25.71044159 119.91752625
v 15.68500137 4.16305637 120.32901001
v 15.86097527 4.09149551 120.27991486
v 15.86401558 3.60046506 121.05120087
v 15.13596249 4.61579752 120.63960266
v 15.37434101 4.35962534 120.46385956
v 15.37577248 3.87922478 121.22551727
v 15.05158234 4.29904652 121.48072052
v 15.04918098 4.76090813 120.73915100
v 15.87485600 3.27701497 121.62893677
v 15.95656013 2.47681785 123.44237518
v 16.12178612 1.93998492 125.35791016
v 16.23767281 1.77566242 126.33557892
v 16.53572655 1.65647733 128.29830933
v 16.92330360 1.81454051 130.26222229
v 17.67064285 2.58781958 133.17884827
v 17.16176987 2.00953150 131.28601074
v 18.23831367 3.43065429 134.97502136
v 18.41339302 3.72728705 135.48008728
v 19.02646255 4.90128136 137.10971069
v 20.23988152 8.01588440 139.86398315
v 19.63463974 6.30057144 138.55569458
v 20.70919609 9.72420883 140.80493164
v 21.09453583 11.68076420 141.53630066
v 20.75489426 9.91973686 140.89350891
v 21.31205559 13.50371742 141.93431091
v 21.39097214 16.03509903 142.07623291
v 21.36018562 14.21164227 142.02102661
v 21.28669930 17.86770630 141.88844299
v 21.14986229 19.03133774 141.63851929
v 20.83790398 20.78956413 141.05311584
v 20.41840363 22.47081566 140.22885132
v 20.17923164 23.25928879 139.73797607
v 19.62591362 24.80517769 138.53594971
v 19.02739906 26.18046188 137.11206055
v 18.86308670 26.51651001 136.69435120
v 18.25350380 27.62798500 135.01963806
v 17.67457008 28.49071693 133.19224548
v 17.55442619 28.64437675 132.77464294
v 17.05905533 29.16528511 130.85827637
v 16.64040947 29.40962410 128.87638855
v 16.53802109 29.42709541 128.31144714
v 16.23889923 29.30928802 126.34503174
v 15.38573742 3.56277537 121.79621124
v 15.46657944 2.78012538 123.58818817
v 15.63404751 2.25585508 125.48154449
v 15.75232124 2.09592366 126.44781494
v 16.05762863 1.98171008 128.38697815
v 16.45556450 2.13948822 130.32569885
v 16.70056534 2.33204389 131.33547974
v 17.22335052 2.90101123 133.20053101
v 17.80616760 3.72795296 134.96780396
v 17.98580742 4.01859999 135.46427917
v 18.61437225 5.16753721 137.06472778
v 19.23718643 6.53489304 138.48301697
v 19.85627747 8.20899677 139.76478577
v 20.33586693 9.87474823 140.68585205
v 20.38254356 10.06533146 140.77252197
v 20.72935104 11.78131962 141.40130615
v 20.95135880 13.55698109 141.79051208
v 21.00047112 14.24643135 141.87527466
v 21.03188515 16.02219391 141.92924500
v 20.92548370 17.80694771 141.74565125
v 20.78582573 18.94037819 141.50126648
v 20.46732140 20.65347481 140.92868042
v 20.03875542 22.29243660 140.12202454
v 19.79427147 23.06148911 139.64138794
v 19.22825623 24.57033920 138.46365356
v 18.61533356 25.91424942 137.06704712
v 18.44693947 26.24293137 136.65702820
v 17.82175636 27.33118439 135.01167297
v 17.22738457 28.17761803 133.21372986
v 17.10397530 28.32861710 132.80249023
v 16.59502983 28.84155083 130.91368103
v 16.16505051 29.08390999 128.95783997
v 16.05998230 29.10184669 128.39994812
v 15.75357437 28.98899078 126.45716095
v 16.02877617 28.91142654 124.39765167
v 15.53950691 28.60116577 124.53239441
v 15.98400593 28.74214363 123.83783722
v 15.49422264 28.43578529 123.97905731
v 15.88577366 27.99728203 122.00264740
v 15.39624310 27.70738411 122.16542816
v 15.06221771 3.99480844 122.03612518
v 15.14482594 3.24201488 123.77916718
v 15.31356239 2.73657131 125.61992645
v 15.43225479 2.58157206 126.55932617
v 15.73800850 2.46820140 128.44514465
v 16.13603020 2.61515188 130.33215332
v 16.38102150 2.79753470 131.31591797
v 16.90387726 3.33950758 133.13505554
v 17.48709488 4.13060760 134.86174011
v 17.66694260 4.40924263 135.34736633
v 18.29657364 5.51279068 136.91461182
v 18.92094421 6.82938957 138.30574036
v 19.54205322 8.44474506 139.56484985
v 20.02349854 10.05466843 140.47073364
v 20.07036972 10.23899174 140.55603027
v 20.41868591 11.89952278 141.17501831
v 20.64172173 13.61902809 141.55836487
v 20.69106674 14.28687763 141.64187622
v 20.72262955 16.00720787 141.69505310
v 20.61572266 17.73609543 141.51417542
v 20.47541809 18.83370399 141.27345276
v 20.15550613 20.49173737 140.70970154
v 19.72520828 22.07645607 139.91609192
v 19.47982407 22.81933403 139.44355774
v 18.91198730 24.27506638 138.28674316
v 18.29753494 25.56907082 136.91687012
v 18.12880516 25.88506699 136.51510620
v 17.50270081 26.92955589 134.90463257
v 16.90791130 27.73935127 133.14793396
v 16.78446579 27.88345146 132.74656677
v 16.27549171 28.37143326 130.90490723
v 15.84548187 28.59941101 129.00057983
v 15.74036312 28.61538887 128.45777893
v 15.43351078 28.50330925 126.56841278
v 15.21846294 28.12833214 124.69719696
v 15.17278099 27.96897888 124.15921783
v 15.07313156 27.26817513 122.39537048
v 15.27944756 25.59450722 119.14778900
v 15.67187691 25.86113930 118.94502258
v 15.02373695 25.23780632 119.41905975
v 15.27292061 24.38791466 117.58827209
v 15.23305321 24.15427208 117.39215851
v 15.12835979 23.10317421 116.60446167
v 15.11747456 21.85643387 115.87364960
v 15.11604214 21.50474548 115.69824982
v 15.10544777 19.66315079 114.96860504
v 15.09405041 17.76663971 114.51450348
v 15.08986282 16.71533012 114.38216400
v 15.08875465 14.84688091 114.34921265
v 15.11417198 9.96704960 115.51876831
v 15.01045609 11.86333942 115.06543732
v 15.10298443 11.80063343 114.85459137
v 15.00724316 13.00699520 114.78935242
v 15.09590530 12.96389580 114.57770538
v 15.00400066 14.85845947 114.56071472
v 15.00450230 16.69577217 114.59373474
v 15.00640202 17.72947311 114.72618103
v 15.01157475 19.59403038 115.17886353
v 15.01638985 21.40479660 115.90206146
v 15.01704121 21.75070763 116.07537079
v 15.02199650 22.96137047 116.78968048
v 15.07002735 23.94682503 117.57333374
v 15.08850002 24.16656113 117.77164459
v 15.01553917 10.06056881 115.72454071
v 15.11963177 8.39749146 116.33874512
v 15.01802349 8.51656818 116.53419495
v 15.12592316 8.04191971 116.56365204
v 15.02088642 8.18009281 116.75008392
v 15.21619034 7.04100084 117.30099487
v 15.06224537 7.24155474 117.48139954
v 15.42363739 6.02052736 118.18943024
v 15.15928555 6.27457333 118.38194275
v 15.86097527 4.74187565 119.40727997
v 15.68500137 4.80937099 119.46182251
v 15.37434101 4.99477434 119.61165619
v 15.13596249 5.23639679 119.80692291
v 14.97387886 23.91882324 117.97689056
v 14.96914673 23.71805000 117.77313995
v 14.95691013 22.81062889 116.98657227
v 14.95565319 21.63872719 116.28903198
v 14.95548820 21.29898453 116.11783600
v 14.95426846 19.52111435 115.40068054
v 14.95295811 17.69041443 114.94865417
v 14.95247841 16.67524719 114.81578064
v 14.95235062 14.87060642 114.78260040
v 14.95317173 13.05231762 115.01191711
v 14.95398521 11.92943478 115.28768921
v 14.95527267 10.15950966 115.94223785
v 14.95590210 8.64278030 116.74134827
v 14.95662785 8.32685471 116.94810486
v 14.96715641 7.46138096 117.67914581
v 14.99216080 6.57654810 118.61077118
v 15.04918098 5.37326479 119.91752625
v 3.28500009 28.22372818 6.60067797
v 1.48500133 2.86295915 6.60510349
v 3.72423053 28.66296005 6.60060358
v 1.64576995 3.46295905 6.60499954
v 3.88500094 29.26295853 6.60049152
v 2.08500028 3.90218949 6.60492468
v 2.68500113 4.06295919 6.60489511
v 12.93500042 32.06295776 6.60000753
v 3.72423053 29.86295891 6.60038757
v 39.78499985 3.90218949 6.60492468
v 40.22423172 3.46295905 6.60499954
v 40.38500214 2.86295915 6.60510349
v 41.87000275 0.06295927 6.60558796
v 40.22423172 2.26295924 6.60520792
v 1.64576995 29.86295891 6.60038757
v 0.00000000 32.06295776 6.60000753
v 1.48500133 29.26295853 6.60049152
v 0.00000000 0.06295927 6.60558796
v 2.08500028 30.30218887 6.60031271
v 2.68500113 30.46295929 6.60028315
v 3.28500009 30.30218887 6.60031271
v 21.70000076 1.29790330 6.60537910
v 20.29894447 1.28973186 6.60537910
v 31.96885300 21.25393295 6.60189247
v 32.51712036 19.41433525 6.60221291
v 38.58500290 28.22372818 6.60067797
v 32.85008621 17.60041428 6.60253334
v 39.18500137 28.06295967 6.60070801
v 32.95483780 16.45594978 6.60272694
v 39.78499985 30.30218887 6.60031271
v 39.18500137 30.46295929 6.60028315
v 38.58500290 30.30218887 6.60031271
v 40.22423172 29.86295891 6.60038757
v 40.38500214 29.26295853 6.60049152
v 2.08500028 1.82372892 6.60528231
v 1.64576995 2.26295924 6.60520792
v 13.47749329 4.13023233 6.60488033
v 3.88500094 2.86295915 6.60510349
v 14.59357262 3.25221658 6.60503674
v 15.39342785 2.74874187 6.60512590
v 16.64821434 2.13061285 6.60523033
v 3.72423053 2.26295924 6.60520792
v 17.97665215 1.67229581 6.60531235
v 38.14577103 2.26295924 6.60520792
v 22.70287514 1.41317391 6.60535717
v 24.06179237 1.72015560 6.60530472
v 39.18500137 4.06295919 6.60489511
v 32.95455551 14.62003899 6.60304737
v 38.58500290 3.90218949 6.60492468
v 32.75007629 12.80504894 6.60336781
v 32.34171295 10.99556255 6.60368061
v 39.78499985 28.22372818 6.60067797
v 40.22423172 28.66296005 6.60060358
v 28.93500137 26.43269730 6.60099077
v 37.98500061 29.26295853 6.60049152
v 38.14577103 29.86295891 6.60038757
v 2.68500113 28.06295967 6.60070801
v 2.08500028 28.22372818 6.60067797
v 1.64576995 28.66296005 6.60060358
v 2.68500113 1.66295934 6.60531235
v 3.28500009 1.82372892 6.60528231
v 18.91744041 1.45630813 6.60534954
v 39.78499985 1.82372892 6.60528231
v 39.18500137 1.66295934 6.60531235
v 38.58500290 1.82372892 6.60528231
v 37.98500061 2.86295915 6.60510349
v 26.33465767 2.66885662 6.60513353
v 25.38373756 2.19970012 6.60521555
v 29.25919342 4.99265814 6.60473108
v 28.61063766 4.33032322 6.60485029
v 27.51888084 3.42415833 6.60500669
v 29.22274208 26.12837029 6.60104322
v 30.12394524 25.00566483 6.60123682
v 38.14577103 28.66296005 6.60060358
v 30.88108444 23.77680969 6.60145283
v 31.28993988 22.93650246 6.60160160
v 9.24657249 18.94281197 6.60229492
v 9.78942204 20.93033409 6.60195208
v 10.37777138 22.47339630 6.60168362
v 11.06455517 23.91602707 6.60143042
v 12.93500042 26.43269730 6.60099077
v 12.47559929 25.93571663 6.60107279
v 11.87454414 25.18434525 6.60120678
v 12.48281670 5.13685322 6.60470867
v 11.89344597 5.87082195 6.60457468
v 3.72423053 3.46295905 6.60499954
v 11.05586433 7.18062353 6.60435104
v 3.28500009 3.90218949 6.60492468
v 10.33006477 8.72057629 6.60408306
v 9.76048374 10.23762417 6.60381460
v 32.12528610 10.28563118 6.60380745
v 31.44838524 8.50500107 6.60412025
v 38.14577103 3.46295905 6.60499954
v 30.93869400 7.41315889 6.60430622
v 30.14808655 6.10958147 6.60453749
v 9.26132298 12.06890011 6.60349417
v 8.97409534 13.88079262 6.60318136
v 8.89119244 15.29661465 6.60293531
v 8.96704292 17.12964439 6.60261536
v 0.00000000 32.06180573 0.00000000
v 0.00000000 0.06180257 0.00558794
v 4.50000191 32.06180573 0.00000000
v 41.87000275 0.06180722 0.00558794
v 41.87000275 32.06181335 0.00000000
v 37.36999893 0.06180722 0.00558794
v 4.50000191 0.06180722 0.00558794
v 0.00000000 0.06180722 0.00558794
v 28.93500137 25.06296921 6.65708637
v 26.57848549 25.06303978 7.07215834
v 26.55108261 24.63498688 7.20669317
v 27.04455566 24.14320564 7.20471144
v 15.15220261 25.06303596 7.03848886
v 15.44355679 24.74718857 7.20714760
v 15.88644600 25.06306839 7.22531986
v 14.69685459 24.00100327 7.20413017
v 15.06496429 25.06303215 7.01788807
v 12.93500042 25.06296921 6.65708637
v 17.09388733 22.90168762 8.92717361
v 17.67490387 23.34768105 8.93691921
v 16.45419502 25.06309509 7.38249731
v 18.10984230 23.61458397 8.94270802
v 17.01223373 25.06312370 7.54277420
v 18.76418495 23.92755890 8.94949627
v 18.87579918 25.06320953 8.04354954
v 23.22575760 23.87747955 8.94840813
v 22.15196609 25.06323814 8.20171070
v 22.55642319 24.11834335 8.95363808
v 21.99062729 25.06324196 8.22404766
v 21.85694885 24.27624130 8.95705032
v 21.42329025 25.06325150 8.27885437
v 21.36195374 24.33464050 8.95831776
v 20.62141991 25.06325340 8.28783989
v 20.65718079 24.34382248 8.95851898
v 20.52840233 25.06325150 8.28353310
v 19.94626236 24.26504135 8.95680523
v 19.43858719 24.15329170 8.95439053
v 24.29188347 23.28102112 8.93546677
v 24.44029808 25.06314468 7.66324997
v 23.66753006 23.66502190 8.94380379
v 24.32249832 25.06315041 7.69693422
v 24.08873749 25.06316185 7.76298332
v 24.86471558 22.82310486 8.92545319
v 25.97704315 25.06306839 7.22707081
v 25.63656616 25.06308365 7.32039642
v 22.92561150 8.82964230 11.51877594
v 22.56888008 8.65774155 11.52894688
v 22.08223724 8.48509502 11.53924274
v 21.58164215 8.37447453 11.54579258
v 21.21318436 8.33300400 11.54827309
v 20.70392418 8.33008289 11.54844475
v 20.19628716 8.39004135 11.54486847
v 19.84962654 8.46790314 11.54026413
v 19.36132812 8.63264942 11.53043652
v 18.89076614 8.85909653 11.51704025
v 18.58756065 9.04518604 11.50605106
v 18.16083145 9.37189102 11.48666477
v 17.77193451 9.75361538 11.46409702
v 17.53722000 10.03595257 11.44743729
v 17.19139671 10.55584335 11.41697121
v 16.77319527 11.42081738 11.37427235
v 23.37445259 9.10873508 11.50228119
v 23.79371262 9.44719410 11.48220158
v 24.04753876 9.69852543 11.46734524
v 24.40213966 10.12894917 11.44196129
v 24.73190308 10.65086174 11.41144371
v 25.02929306 11.26817894 11.38064289
v 25.49896240 12.45326805 11.33815193
v 25.63728333 12.89084816 11.32636547
v 25.88877678 13.96632195 11.30568218
v 26.01082420 15.01402283 11.29584026
v 26.01103401 16.06574249 11.29554176
v 25.94872284 16.72522736 11.30022144
v 25.74656868 17.78867531 11.31606865
v 25.39610291 18.92063141 11.34534168
v 24.90907860 20.07752609 11.38988876
v 24.70749283 20.47649956 11.41145039
v 24.39269829 20.96722984 11.43979263
v 24.03355408 21.39962196 11.46496868
v 23.77524757 21.65279961 11.47973537
v 23.35748482 21.98645401 11.49926376
v 22.90360451 22.26535797 11.51552010
v 22.58340263 22.41923523 11.52449799
v 22.10161781 22.59249687 11.53468323
v 21.59765244 22.70615578 11.54132175
v 21.24115372 22.74819183 11.54379559
v 20.73597527 22.75478172 11.54419041
v 20.22418594 22.69808388 11.54085255
v 19.85830307 22.61761475 11.53615093
v 19.37324715 22.45538330 11.52661419
v 18.89910126 22.22874641 11.51338959
v 18.58285904 22.03485489 11.50209427
v 18.15957069 21.71022606 11.48308849
v 17.76870346 21.32602119 11.46067715
v 16.56110001 22.37745667 8.91569233
v 16.23639679 21.98483467 8.90707970
v 14.24523926 23.44527626 7.20186520
v 17.19477272 20.53325272 11.41471386
v 17.52924538 21.03682709 11.44383812
v 13.63030052 22.49995041 7.19795370
v 13.06296635 21.33229256 7.19265652
v 12.54421806 20.00662422 7.18779850
v 12.08053017 18.34575081 7.18415546
v 11.84513950 16.84843636 7.18259048
v 11.78155231 15.34022427 7.18238211
v 11.85112000 14.17463684 7.18312693
v 12.09314346 12.67796135 7.18530273
v 12.51939106 11.14808559 7.18919945
v 13.02029896 9.84777832 7.19430304
v 13.62390995 8.59308434 7.20044994
v 14.25978661 7.61694384 7.20486069
v 14.70257759 7.07418680 7.20728207
v 15.44556904 6.33267879 7.21056032
v 16.27383804 5.68905830 7.21338367
v 16.86568832 5.32073641 7.21498585
v 17.79122734 4.86960936 7.21693802
v 18.76616859 4.53659725 7.21836853
v 19.45665741 4.37961340 7.21904659
v 20.46973801 4.25860548 7.21956778
v 21.49469757 4.26453257 7.21953821
v 22.23008919 4.34825945 7.21918058
v 23.22739792 4.57136154 7.21821928
v 24.19796371 4.91992855 7.21672153
v 24.89942169 5.26234150 7.21523905
v 25.77570343 5.81488037 7.21283245
v 26.58694458 6.47977829 7.20991182
v 27.07153320 6.96775579 7.20775127
v 27.73966217 7.79405832 7.20407057
v 28.34164238 8.76763439 7.19965267
v 28.76721764 9.65889740 7.19521952
v 29.36422729 11.18860149 7.18907261
v 29.54996681 11.78452396 7.18734407
v 29.89633560 13.28780365 7.18423748
v 30.06810951 14.78357506 7.18263531
v 30.06838036 16.29350662 7.18235970
v 29.98049164 17.23627090 7.18285894
v 29.69935417 18.73752785 7.18481827
v 29.22881699 20.28098869 7.18864059
v 28.62309647 21.74136543 7.19461584
v 28.29767036 22.39550781 7.19751406
v 27.72171783 23.31272507 7.20132160
v 28.64222145 25.06297302 6.68823719
v 25.21680641 22.47763443 8.91789055
v 25.70371437 21.89076805 8.90500832
v 26.12472343 21.23388290 8.89050961
v 26.37783051 20.73536110 8.87948990
v 26.91738129 19.46043777 8.85676575
v 27.31927109 18.16605186 8.84190178
v 27.55492973 16.92867661 8.83391476
v 27.62805367 16.15637207 8.83159828
v 27.62780380 14.92203712 8.83187389
v 27.48469734 13.69597244 8.83702183
v 27.19283867 12.45086384 8.84773540
v 27.03420258 11.95081043 8.85381508
v 26.50881767 10.63105297 8.87572002
v 26.15705872 9.90719795 8.89160442
v 25.71647453 9.20930576 8.90736294
v 25.23586464 8.62527466 8.92048359
v 24.88997650 8.28241348 8.92816448
v 24.31526756 7.81804276 8.93855858
v 23.69786263 7.43378305 8.94710445
v 23.20569992 7.19644594 8.95237923
v 22.52949333 6.95638752 8.95771408
v 21.83475685 6.80272579 8.96111107
v 21.32304764 6.74510002 8.96240044
v 20.61253357 6.74103117 8.96249008
v 19.90755653 6.82432938 8.96063423
v 19.42650795 6.93246794 8.95824242
v 18.74764252 7.16168165 8.95315361
v 18.09833717 7.47435427 8.94620991
v 17.68133163 7.73051786 8.94051075
v 17.09557152 8.17938423 8.93047428
v 16.56545258 8.70025158 8.91879940
v 16.24714088 9.08362007 8.91018677
v 15.78356838 9.78113461 8.89445877
v 15.28696823 10.79771233 8.87244225
v 14.84750652 11.91658592 8.85427761
v 14.48553371 13.19271278 8.84064293
v 14.28316593 14.42323589 8.83336353
v 14.22528934 15.37729740 8.83120346
v 14.27814770 16.61091995 8.83272266
v 14.47484016 17.84151840 8.83926487
v 14.86875820 19.22738838 8.85353279
v 15.32513332 20.37116432 8.87207699
v 15.78807259 21.30924988 8.89217854
v 16.38130760 12.42312908 11.33903885
v 16.06724930 13.53327942 11.31265640
v 15.89408207 14.58813953 11.29866409
v 15.84479237 15.40210533 11.29462528
v 15.88980961 16.45382500 11.29782963
v 16.05806351 17.50833702 11.31085300
v 16.39998627 18.71433067 11.33898640
v 16.80789375 19.74142838 11.37537479
v 39.18500137 30.46180725 0.00028312
v 39.78499985 30.30103683 0.00031292
v 40.22423172 29.86180687 0.00038743
v 40.38500214 29.26180649 0.00049174
v 40.22423172 28.66180801 0.00059605
v 39.78499985 28.22257614 0.00067055
v 39.18500137 28.06180763 0.00070035
v 38.58500290 28.22257614 0.00067055
v 38.14577103 28.66180801 0.00059605
v 37.98500061 29.26180649 0.00049174
v 38.14577103 29.86180687 0.00038743
v 38.58500290 30.30103683 0.00031292
v 2.68500113 4.06180716 0.00488758
v 3.28500009 3.90103745 0.00491738
v 3.72423053 3.46180701 0.00499189
v 3.88500094 2.86180711 0.00509620
v 3.72423053 2.26180720 0.00520051
v 3.28500009 1.82257688 0.00528991
v 2.68500113 1.66180730 0.00531971
v 2.08500028 1.82257688 0.00528991
v 1.64576995 2.26180720 0.00520051
v 1.48500133 2.86180711 0.00509620
v 1.64576995 3.46180701 0.00499189
v 2.08500028 3.90103745 0.00491738
v 39.18500137 4.06180716 0.00488758
v 39.78499985 3.90103745 0.00491738
v 40.22423172 3.46180701 0.00499189
v 40.38500214 2.86180711 0.00509620
v 40.22423172 2.26180720 0.00520051
v 39.78499985 1.82257688 0.00528991
v 39.18500137 1.66180730 0.00531971
v 38.58500290 1.82257688 0.00528991
v 38.14577103 2.26180720 0.00520051
v 37.98500061 2.86180711 0.00509620
v 38.14577103 3.46180701 0.00499189
v 38.58500290 3.90103745 0.00491738
v 2.68500113 30.46180725 0.00028312
v 3.28500009 30.30103683 0.00031292
v 3.72423053 29.86180687 0.00038743
v 3.88500094 29.26180649 0.00049174
v 3.72423053 28.66180801 0.00059605
v 3.28500009 28.22257614 0.00067055
v 2.68500113 28.06180763 0.00070035
v 2.08500028 28.22257614 0.00067055
v 1.64576995 28.66180801 0.00059605
v 1.48500133 29.26180649 0.00049174
v 1.64576995 29.86180687 0.00038743
v 2.08500028 30.30103683 0.00031292
v 37.36999893 12.45418930 0.00342727
v 37.40453720 12.45534611 0.00342727
v 37.70493698 12.56469727 0.00341237
v 38.20152664 13.20248508 0.00329316
v 38.68069839 15.06604862 0.00298023
v 38.64829636 17.31826591 0.00257790
v 38.11696243 19.08007622 0.00226498
v 37.66075897 19.58646584 0.00219047
v 37.36999893 19.66942406 0.00217557
v 4.50000191 19.66942406 0.00217557
v 4.20924091 19.58646584 0.00219047
v 3.75304008 19.08007622 0.00226498
v 3.22170544 17.31826591 0.00257790
v 3.18930292 15.06604862 0.00298023
v 3.66847396 13.20248508 0.00329316
v 4.16506624 12.56469727 0.00341237
v 4.46546650 12.45534611 0.00342727
v 4.50000191 12.45418930 0.00342727
f 1 2 3
f 3 2 4
f 5 6 7
f 8 9 10
f 10 9 5
f 11 12 13
f 13 12 14
f 15 16 17
f 17 16 3
f 17 3 18
f 18 3 4
f 18 4 19
f 19 4 20
f 21 22 23
f 23 22 10
f 23 10 24
f 24 10 5
f 24 5 25
f 25 5 7
f 22 13 10
f 10 13 14
f 10 14 4
f 4 14 26
f 4 26 20
f 8 27 9
f 9 27 28
f 9 28 29
f 29 28 30
f 31 32 33
f 34 35 36
f 37 38 39
f 40 41 42
f 43 44 45
f 45 44 46
f 45 46 47
f 48 49 50
f 50 49 51
f 50 51 46
f 46 51 52
f 46 52 47
f 53 54 55
f 55 56 53
f 53 56 57
f 53 57 50
f 50 57 58
f 50 58 48
f 59 54 60
f 60 54 53
f 60 53 61
f 61 53 62
f 61 62 63
f 64 65 66
f 66 65 67
f 42 41 66
f 66 41 68
f 66 68 64
f 69 70 71
f 71 70 72
f 71 72 42
f 42 72 73
f 42 73 40
f 74 75 76
f 76 75 77
f 76 77 71
f 71 77 78
f 71 78 69
f 79 80 81
f 82 83 84
f 84 83 85
f 85 86 84
f 84 86 87
f 84 87 80
f 80 87 88
f 80 88 81
f 89 90 91
f 91 90 92
f 93 94 95
f 95 94 96
f 95 96 89
f 93 95 97
f 97 95 98
f 97 98 99
f 100 101 102
f 102 101 103
f 102 103 98
f 98 103 104
f 98 104 99
f 105 100 106
f 106 100 102
f 106 102 107
f 107 102 108
f 109 110 36
f 110 111 36
f 36 111 112
f 36 112 108
f 108 112 113
f 108 113 107
f 109 114 115
f 115 114 116
f 117 118 119
f 119 118 120
f 119 120 39
f 120 121 39
f 39 121 122
f 39 122 114
f 114 122 123
f 114 123 116
f 124 125 126
f 126 125 127
f 126 127 119
f 119 127 128
f 119 128 117
f 129 130 131
f 131 130 132
f 131 132 133
f 129 131 134
f 134 131 135
f 134 135 136
f 109 36 114
f 114 36 35
f 114 35 137
f 137 138 114
f 114 138 139
f 114 139 39
f 39 139 140
f 39 140 37
f 34 36 141
f 141 36 108
f 141 108 142
f 142 108 102
f 142 102 143
f 143 102 98
f 143 98 144
f 145 146 95
f 95 146 147
f 95 147 98
f 98 147 148
f 98 148 144
f 89 91 95
f 95 91 149
f 95 149 145
f 150 151 152
f 152 151 153
f 152 153 91
f 91 153 154
f 91 154 149
f 155 156 157
f 157 156 158
f 157 158 152
f 152 158 159
f 152 159 150
f 160 161 162
f 162 161 163
f 162 163 79
f 79 163 164
f 79 164 165
f 166 167 168
f 167 169 168
f 168 169 170
f 168 170 162
f 162 170 171
f 162 171 160
f 42 172 173
f 63 62 67
f 67 62 33
f 67 33 66
f 66 33 32
f 66 32 174
f 174 175 66
f 66 175 176
f 66 176 42
f 42 176 177
f 42 177 172
f 31 33 178
f 178 33 62
f 178 62 179
f 179 62 53
f 179 53 180
f 180 53 50
f 180 50 181
f 182 183 46
f 46 183 184
f 46 184 50
f 50 184 185
f 50 185 181
f 182 46 186
f 186 46 44
f 186 44 187
f 187 44 188
f 187 188 189
f 190 191 188
f 188 191 192
f 188 192 189
f 133 193 194
f 195 196 190
f 190 196 197
f 190 197 191
f 198 193 199
f 199 193 133
f 199 133 200
f 201 202 198
f 202 203 198
f 198 203 204
f 198 204 193
f 165 155 79
f 79 155 157
f 79 157 80
f 80 157 152
f 80 152 84
f 84 152 91
f 84 91 82
f 82 91 92
f 173 166 42
f 42 166 168
f 42 168 71
f 71 168 162
f 71 162 76
f 76 162 79
f 76 79 74
f 74 79 81
f 194 195 133
f 133 195 190
f 133 190 131
f 131 190 188
f 131 188 135
f 135 188 44
f 135 44 136
f 136 44 43
f 200 205 199
f 199 205 206
f 199 206 198
f 198 206 207
f 198 207 201
f 201 207 208
f 132 124 133
f 133 124 126
f 133 126 200
f 200 126 119
f 200 119 205
f 205 119 39
f 205 39 206
f 206 39 38
f 206 38 207
f 207 38 209
f 207 209 208
f 210 211 212
f 212 211 213
f 212 213 214
f 214 213 215
f 215 213 216
f 215 216 217
f 217 218 215
f 215 218 219
f 215 219 220
f 221 222 220
f 220 222 223
f 220 223 215
f 224 225 220
f 220 225 226
f 220 226 221
f 224 227 225
f 225 227 228
f 225 228 229
f 229 228 230
f 231 232 233
f 231 233 234
f 235 236 237
f 237 236 238
f 237 239 235
f 235 239 240
f 235 240 241
f 241 240 242
f 241 242 243
f 243 242 244
f 245 246 247
f 247 246 248
f 247 248 249
f 249 248 250
f 249 250 251
f 251 250 234
f 251 234 252
f 252 234 233
f 238 253 254
f 254 253 255
f 254 255 256
f 256 255 257
f 256 257 258
f 258 257 259
f 258 259 260
f 260 259 261
f 260 261 262
f 262 261 263
f 262 263 247
f 247 263 264
f 236 265 238
f 238 265 266
f 238 266 253
f 253 266 267
f 253 267 268
f 269 270 271
f 271 270 272
f 264 273 247
f 247 273 274
f 247 274 245
f 245 274 275
f 245 275 267
f 267 275 276
f 267 276 268
f 269 271 277
f 277 271 244
f 277 244 278
f 278 244 242
f 278 242 279
f 232 271 233
f 233 271 272
f 233 272 280
f 280 272 281
f 280 281 282
f 282 281 283
f 282 283 284
f 284 283 285
f 284 285 286
f 286 285 287
f 286 287 288
f 288 287 289
f 288 289 242
f 242 289 290
f 242 290 279
f 291 292 262
f 293 294 105
f 295 106 107
f 107 113 295
f 295 113 112
f 295 112 296
f 112 111 296
f 296 111 110
f 296 110 297
f 297 110 109
f 297 109 115
f 105 294 100
f 106 295 105
f 105 295 298
f 105 298 293
f 103 101 286
f 103 286 104
f 288 97 286
f 286 97 99
f 286 99 104
f 82 92 242
f 242 92 90
f 242 90 288
f 288 90 89
f 288 89 96
f 96 94 288
f 288 94 93
f 288 93 97
f 87 86 240
f 240 86 85
f 240 85 242
f 242 85 83
f 242 83 82
f 239 74 81
f 239 81 240
f 240 81 88
f 240 88 87
f 69 78 237
f 237 78 77
f 237 77 239
f 239 77 75
f 239 75 74
f 238 73 72
f 238 72 237
f 237 72 70
f 237 70 69
f 64 68 254
f 254 68 41
f 254 41 238
f 238 41 40
f 238 40 73
f 61 63 256
f 256 63 67
f 256 67 254
f 254 67 65
f 254 65 64
f 299 300 258
f 258 300 59
f 258 59 256
f 256 59 60
f 256 60 61
f 300 301 59
f 59 301 302
f 59 302 54
f 54 302 303
f 54 303 55
f 55 303 56
f 304 49 305
f 305 49 48
f 305 48 306
f 306 48 307
f 307 48 58
f 307 58 303
f 303 58 57
f 303 57 56
f 47 52 304
f 304 52 51
f 304 51 49
f 262 292 260
f 260 292 308
f 260 308 309
f 309 310 260
f 260 310 311
f 260 311 258
f 258 311 312
f 258 312 299
f 313 314 247
f 247 314 315
f 247 315 262
f 262 315 316
f 262 316 291
f 317 249 318
f 318 249 251
f 318 251 319
f 317 320 249
f 249 320 321
f 249 321 247
f 247 321 322
f 247 322 313
f 323 324 252
f 252 324 251
f 251 324 325
f 251 325 319
f 326 327 233
f 233 327 328
f 233 328 252
f 252 328 329
f 252 329 323
f 330 331 280
f 280 331 332
f 280 332 233
f 233 332 333
f 233 333 326
f 334 335 282
f 282 335 336
f 282 336 280
f 280 336 337
f 280 337 330
f 101 100 286
f 286 100 294
f 286 294 284
f 284 294 338
f 338 339 284
f 284 339 340
f 284 340 282
f 282 340 341
f 282 341 334
f 342 253 343
f 343 253 268
f 343 268 344
f 344 268 276
f 344 276 345
f 345 276 275
f 345 275 346
f 346 275 274
f 346 274 347
f 347 274 273
f 347 273 348
f 348 273 264
f 348 264 349
f 349 264 263
f 349 263 350
f 350 263 261
f 350 261 351
f 351 261 259
f 351 259 352
f 352 259 257
f 352 257 353
f 353 257 255
f 353 255 342
f 342 255 253
f 354 290 355
f 355 290 289
f 355 289 356
f 356 289 287
f 356 287 357
f 357 287 285
f 357 285 358
f 358 285 283
f 358 283 359
f 359 283 281
f 359 281 360
f 360 281 272
f 360 272 361
f 361 272 270
f 361 270 362
f 362 270 269
f 362 269 363
f 363 269 277
f 363 277 364
f 364 277 278
f 364 278 365
f 365 278 279
f 365 279 354
f 354 279 290
f 366 367 368
f 368 367 369
f 370 371 372
f 372 371 373
f 374 375 376
f 376 375 377
f 378 379 380
f 380 379 381
f 382 383 384
f 384 383 385
f 386 387 388
f 388 387 383
f 388 383 389
f 389 383 382
f 389 382 390
f 390 382 391
f 392 393 394
f 394 393 384
f 394 384 395
f 395 384 385
f 395 385 396
f 396 385 397
f 364 398 363
f 363 398 399
f 363 399 362
f 362 399 400
f 362 400 361
f 361 400 401
f 361 401 360
f 360 401 402
f 360 402 359
f 359 402 403
f 359 403 358
f 358 403 404
f 358 404 357
f 357 404 405
f 357 405 356
f 356 405 406
f 356 406 355
f 355 406 407
f 355 407 354
f 354 407 408
f 354 408 365
f 365 408 409
f 365 409 364
f 364 409 398
f 410 411 404
f 412 402 413
f 413 402 401
f 413 401 414
f 400 415 416
f 416 417 400
f 400 417 418
f 400 418 401
f 401 418 419
f 401 419 414
f 415 400 420
f 420 400 399
f 420 399 421
f 422 423 398
f 398 423 424
f 398 424 399
f 399 424 425
f 399 425 421
f 426 427 409
f 409 427 428
f 409 428 398
f 398 428 429
f 398 429 422
f 430 431 408
f 408 431 432
f 432 433 408
f 408 433 434
f 408 434 409
f 409 434 435
f 409 435 426
f 430 408 436
f 436 408 407
f 436 407 437
f 438 439 407
f 407 439 440
f 407 440 437
f 441 442 406
f 406 442 443
f 406 443 407
f 407 443 444
f 407 444 438
f 445 446 405
f 405 446 447
f 405 447 406
f 406 447 448
f 406 448 441
f 404 411 405
f 405 411 449
f 405 449 445
f 412 450 402
f 402 450 451
f 402 451 403
f 403 451 452
f 452 453 403
f 403 453 454
f 403 454 404
f 404 454 455
f 404 455 410
f 344 456 343
f 343 456 457
f 343 457 342
f 342 457 458
f 342 458 353
f 353 458 459
f 353 459 352
f 352 459 460
f 352 460 351
f 351 460 461
f 351 461 350
f 350 461 462
f 350 462 349
f 349 462 463
f 349 463 348
f 348 463 464
f 348 464 347
f 347 464 465
f 347 465 346
f 346 465 466
f 346 466 345
f 345 466 467
f 345 467 344
f 344 467 456
f 468 469 466
f 470 464 471
f 471 464 463
f 471 463 472
f 462 473 474
f 474 475 462
f 462 475 476
f 462 476 463
f 463 476 477
f 463 477 472
f 473 462 478
f 478 462 461
f 478 461 479
f 480 481 460
f 460 481 482
f 460 482 461
f 461 482 483
f 461 483 479
f 484 485 459
f 459 485 486
f 459 486 460
f 460 486 487
f 460 487 480
f 488 489 458
f 458 489 490
f 490 491 458
f 458 491 492
f 458 492 459
f 459 492 493
f 459 493 484
f 488 458 494
f 494 458 457
f 494 457 495
f 496 497 457
f 457 497 498
f 457 498 495
f 499 500 456
f 456 500 501
f 456 501 457
f 457 501 502
f 457 502 496
f 503 504 467
f 467 504 505
f 467 505 456
f 456 505 506
f 456 506 499
f 466 469 467
f 467 469 507
f 467 507 503
f 470 508 464
f 464 508 509
f 464 509 465
f 465 509 510
f 510 511 465
f 465 511 512
f 465 512 466
f 466 512 513
f 466 513 468
f 367 366 514
f 367 514 515
f 515 514 516
f 515 516 517
f 517 516 380
f 517 380 381
f 371 370 518
f 371 518 519
f 519 518 520
f 519 520 521
f 521 520 368
f 521 368 369
f 376 377 522
f 376 522 523
f 523 522 524
f 523 524 525
f 525 524 372
f 525 372 373
f 379 378 526
f 379 526 527
f 527 526 528
f 527 528 529
f 529 528 375
f 529 375 374
f 514 366 530
f 530 366 531
f 530 531 532
f 532 531 533
f 532 533 390
f 390 533 389
f 516 514 534
f 534 514 530
f 534 530 535
f 535 530 532
f 535 532 391
f 391 532 390
f 380 516 536
f 536 516 534
f 536 534 537
f 537 534 535
f 537 535 382
f 382 535 391
f 366 368 538
f 366 538 531
f 531 538 539
f 531 539 533
f 533 539 388
f 533 388 389
f 378 380 536
f 378 536 540
f 540 536 537
f 540 537 541
f 541 537 382
f 541 382 384
f 518 370 542
f 542 370 543
f 542 543 544
f 544 543 545
f 544 545 387
f 387 545 383
f 520 518 546
f 546 518 542
f 546 542 547
f 547 542 544
f 547 544 386
f 386 544 387
f 368 520 538
f 538 520 546
f 538 546 539
f 539 546 547
f 539 547 388
f 388 547 386
f 526 378 548
f 548 378 540
f 548 540 549
f 549 540 541
f 549 541 393
f 393 541 384
f 528 526 550
f 550 526 548
f 550 548 551
f 551 548 549
f 551 549 392
f 392 549 393
f 375 528 552
f 552 528 550
f 552 550 553
f 553 550 551
f 553 551 394
f 394 551 392
f 370 372 554
f 370 554 543
f 543 554 555
f 543 555 545
f 545 555 385
f 545 385 383
f 377 375 552
f 377 552 556
f 556 552 553
f 556 553 557
f 557 553 394
f 557 394 395
f 522 377 558
f 558 377 556
f 558 556 559
f 559 556 557
f 559 557 396
f 396 557 395
f 524 522 560
f 560 522 558
f 560 558 561
f 561 558 559
f 561 559 397
f 397 559 396
f 372 524 554
f 554 524 560
f 554 560 555
f 555 560 561
f 555 561 385
f 385 561 397
f 562 563 564
f 565 379 527
f 243 244 566
f 566 244 567
f 565 527 562
f 562 527 529
f 562 529 563
f 241 243 564
f 564 243 566
f 564 566 562
f 562 566 567
f 562 567 565
f 235 241 568
f 568 241 564
f 568 564 569
f 569 564 563
f 569 563 374
f 374 563 529
f 374 376 569
f 569 376 570
f 569 570 568
f 568 570 571
f 568 571 235
f 235 571 236
f 381 379 572
f 572 379 565
f 572 565 573
f 573 565 567
f 573 567 271
f 271 567 244
f 574 575 576
f 570 376 523
f 265 236 577
f 577 236 571
f 570 523 574
f 574 523 525
f 574 525 575
f 266 265 576
f 576 265 577
f 576 577 574
f 574 577 571
f 574 571 570
f 267 266 578
f 578 266 576
f 578 576 579
f 579 576 575
f 579 575 373
f 373 575 525
f 580 581 582
f 583 367 515
f 231 234 584
f 584 234 585
f 583 515 580
f 580 515 517
f 580 517 581
f 232 231 582
f 582 231 584
f 582 584 580
f 580 584 585
f 580 585 583
f 271 232 573
f 573 232 582
f 573 582 572
f 572 582 581
f 572 581 381
f 381 581 517
f 373 371 579
f 579 371 586
f 579 586 578
f 578 586 587
f 578 587 267
f 267 587 245
f 369 367 588
f 588 367 583
f 588 583 589
f 589 583 585
f 589 585 250
f 250 585 234
f 590 591 592
f 586 371 519
f 246 245 593
f 593 245 587
f 586 519 590
f 590 519 521
f 590 521 591
f 248 246 592
f 592 246 593
f 592 593 590
f 590 593 587
f 590 587 586
f 250 248 589
f 589 248 592
f 589 592 588
f 588 592 591
f 588 591 369
f 369 591 521
f 594 595 596
f 596 595 597
f 596 597 598
f 597 599 598
f 598 599 600
f 598 600 601
f 601 600 602
f 601 602 603
f 602 604 603
f 603 604 605
f 603 605 606
f 606 605 607
f 606 607 212
f 608 609 210
f 608 210 610
f 607 611 212
f 212 611 612
f 212 612 210
f 210 612 613
f 610 614 615
f 615 614 616
f 615 616 617
f 617 616 618
f 619 620 618
f 618 620 621
f 618 621 617
f 613 622 210
f 210 622 623
f 210 623 610
f 610 623 624
f 610 624 614
f 609 625 210
f 210 625 626
f 210 626 627
f 626 628 627
f 627 628 629
f 627 629 630
f 630 629 631
f 630 631 632
f 632 631 633
f 632 633 634
f 633 635 634
f 634 635 636
f 634 636 637
f 638 639 640
f 636 641 637
f 637 641 642
f 637 642 643
f 642 644 643
f 643 644 645
f 643 645 646
f 645 647 646
f 646 647 648
f 646 648 649
f 649 648 650
f 649 650 651
f 651 650 652
f 651 652 640
f 640 652 653
f 640 653 638
f 639 654 640
f 640 654 655
f 640 655 656
f 657 658 659
f 659 658 660
f 659 660 661
f 662 663 664
f 664 663 665
f 619 618 666
f 666 618 667
f 666 667 668
f 668 667 669
f 668 669 665
f 665 669 670
f 665 670 664
f 664 671 662
f 662 671 672
f 662 672 673
f 674 675 659
f 673 676 662
f 662 676 677
f 662 677 661
f 661 677 678
f 661 678 659
f 659 678 679
f 659 679 674
f 675 680 659
f 659 680 681
f 659 681 682
f 682 681 683
f 682 683 684
f 684 683 685
f 684 685 686
f 685 687 686
f 686 687 688
f 686 688 689
f 688 690 689
f 689 690 691
f 689 691 594
f 594 691 692
f 594 692 595
f 693 694 695
f 695 694 696
f 693 697 694
f 694 697 698
f 694 698 699
f 699 700 694
f 694 700 701
f 694 701 702
f 659 703 694
f 694 703 704
f 704 705 694
f 694 705 706
f 694 706 707
f 707 708 694
f 694 708 709
f 694 709 696
f 702 710 694
f 694 710 640
f 694 640 659
f 659 640 656
f 659 656 657
f 711 414 712
f 712 414 419
f 712 419 713
f 713 419 418
f 713 418 714
f 714 418 417
f 714 417 715
f 715 417 416
f 715 416 716
f 716 416 415
f 716 415 717
f 415 420 717
f 717 420 421
f 717 421 718
f 718 421 425
f 718 425 719
f 719 425 424
f 719 424 720
f 720 424 423
f 720 423 721
f 721 423 422
f 721 422 722
f 722 422 429
f 722 429 723
f 429 428 723
f 723 428 427
f 723 427 724
f 724 427 426
f 724 426 725
f 725 426 435
f 725 435 726
f 435 434 726
f 726 434 433
f 726 433 727
f 727 433 432
f 431 728 432
f 432 728 729
f 432 729 727
f 431 430 728
f 728 430 436
f 728 436 730
f 730 436 437
f 730 437 731
f 731 437 440
f 731 440 732
f 440 439 732
f 732 439 438
f 732 438 733
f 733 438 444
f 733 444 734
f 734 444 443
f 734 443 735
f 443 442 735
f 735 442 441
f 735 441 736
f 736 441 448
f 447 737 448
f 448 737 738
f 448 738 736
f 644 642 739
f 447 446 737
f 737 446 445
f 737 445 740
f 740 445 449
f 740 449 741
f 741 449 411
f 741 411 742
f 742 411 410
f 742 410 743
f 743 410 455
f 454 744 455
f 455 744 745
f 455 745 743
f 739 746 644
f 644 746 747
f 644 747 645
f 645 747 748
f 645 748 647
f 647 748 749
f 647 749 648
f 648 749 750
f 648 750 650
f 650 750 751
f 650 751 652
f 652 751 752
f 652 752 653
f 653 752 753
f 653 753 638
f 638 753 754
f 638 754 639
f 639 754 755
f 454 453 744
f 744 453 452
f 744 452 756
f 756 452 451
f 756 451 757
f 757 451 450
f 757 450 758
f 758 450 412
f 758 412 711
f 711 412 413
f 711 413 414
f 711 759 758
f 758 759 760
f 758 760 757
f 757 760 761
f 757 761 756
f 756 761 762
f 756 762 744
f 744 762 763
f 744 763 745
f 745 763 764
f 745 764 743
f 743 764 765
f 743 765 742
f 742 765 766
f 742 766 741
f 741 766 767
f 741 767 740
f 740 767 768
f 740 768 737
f 737 768 769
f 737 769 738
f 738 769 770
f 738 770 736
f 736 770 771
f 736 771 735
f 735 771 772
f 735 772 734
f 734 772 773
f 734 773 733
f 733 773 774
f 733 774 732
f 732 774 775
f 732 775 731
f 731 775 776
f 731 776 730
f 730 776 777
f 730 777 728
f 728 777 778
f 728 778 729
f 729 778 779
f 729 779 727
f 727 779 780
f 727 780 726
f 726 780 781
f 726 781 725
f 725 781 782
f 725 782 724
f 724 782 783
f 724 783 723
f 723 783 784
f 723 784 722
f 722 784 785
f 722 785 721
f 721 785 786
f 721 786 720
f 720 786 787
f 720 787 719
f 719 787 788
f 719 788 718
f 718 788 789
f 718 789 717
f 717 789 790
f 717 790 716
f 716 790 791
f 716 791 715
f 715 791 792
f 715 792 714
f 714 792 793
f 714 793 713
f 713 793 794
f 713 794 712
f 712 794 795
f 712 795 711
f 711 795 759
f 795 755 759
f 759 755 754
f 759 754 760
f 760 754 753
f 760 753 761
f 761 753 752
f 761 752 762
f 762 752 751
f 762 751 763
f 763 751 750
f 763 750 764
f 764 750 749
f 764 749 765
f 765 749 748
f 765 748 766
f 766 748 747
f 766 747 767
f 767 747 746
f 767 746 768
f 768 746 739
f 768 739 769
f 769 739 796
f 769 796 770
f 770 796 797
f 770 797 771
f 771 797 798
f 771 798 772
f 772 798 799
f 772 799 773
f 773 799 800
f 773 800 774
f 774 800 801
f 774 801 775
f 775 801 802
f 775 802 776
f 776 802 803
f 776 803 777
f 777 803 804
f 777 804 778
f 778 804 805
f 778 805 779
f 779 805 806
f 779 806 780
f 780 806 807
f 780 807 781
f 781 807 808
f 781 808 782
f 782 808 809
f 782 809 783
f 783 809 810
f 783 810 784
f 784 810 811
f 784 811 785
f 785 811 812
f 785 812 786
f 786 812 813
f 786 813 787
f 787 813 814
f 787 814 788
f 788 814 815
f 788 815 789
f 789 815 816
f 789 816 790
f 790 816 817
f 790 817 791
f 791 817 818
f 791 818 792
f 792 818 819
f 792 819 793
f 793 819 820
f 793 820 794
f 794 820 821
f 794 821 795
f 795 821 755
f 642 641 739
f 739 641 636
f 739 636 796
f 796 636 635
f 796 635 797
f 797 635 633
f 797 633 798
f 798 633 631
f 798 631 799
f 799 631 629
f 799 629 800
f 800 629 628
f 800 628 801
f 801 628 626
f 801 626 802
f 802 626 625
f 802 625 803
f 803 625 609
f 803 609 804
f 804 609 608
f 804 608 805
f 805 608 610
f 805 610 806
f 806 610 615
f 806 615 807
f 807 615 617
f 807 617 808
f 808 617 621
f 808 621 809
f 809 621 620
f 809 620 810
f 810 620 619
f 810 619 811
f 811 619 666
f 811 666 812
f 812 666 668
f 812 668 813
f 813 668 665
f 813 665 814
f 814 665 663
f 814 663 815
f 815 663 662
f 815 662 816
f 816 662 661
f 816 661 817
f 817 661 660
f 817 660 818
f 818 660 658
f 818 658 819
f 819 658 657
f 819 657 820
f 820 657 656
f 820 656 821
f 821 656 655
f 821 655 755
f 755 655 654
f 755 654 639
f 822 472 823
f 823 472 477
f 823 477 824
f 824 477 476
f 824 476 825
f 825 476 475
f 825 475 826
f 826 475 474
f 826 474 827
f 827 474 473
f 827 473 828
f 473 478 828
f 828 478 479
f 828 479 829
f 829 479 483
f 829 483 830
f 830 483 482
f 830 482 831
f 831 482 481
f 831 481 832
f 832 481 480
f 832 480 833
f 833 480 487
f 833 487 834
f 487 486 834
f 834 486 485
f 834 485 835
f 835 485 484
f 835 484 836
f 836 484 493
f 836 493 837
f 493 492 837
f 837 492 491
f 837 491 838
f 838 491 490
f 489 839 490
f 490 839 840
f 490 840 838
f 489 488 839
f 839 488 494
f 839 494 841
f 841 494 495
f 841 495 842
f 842 495 498
f 842 498 843
f 498 497 843
f 843 497 496
f 843 496 844
f 844 496 502
f 844 502 845
f 845 502 501
f 845 501 846
f 501 500 846
f 846 500 499
f 846 499 847
f 847 499 506
f 505 848 506
f 506 848 849
f 506 849 847
f 670 669 850
f 505 504 848
f 848 504 503
f 848 503 851
f 851 503 507
f 851 507 852
f 852 507 469
f 852 469 853
f 853 469 468
f 853 468 854
f 854 468 513
f 512 855 513
f 513 855 856
f 513 856 854
f 850 857 670
f 670 857 858
f 670 858 664
f 664 858 859
f 664 859 671
f 671 859 860
f 671 860 672
f 672 860 861
f 672 861 673
f 673 861 862
f 673 862 676
f 676 862 863
f 676 863 677
f 677 863 864
f 677 864 678
f 678 864 865
f 678 865 679
f 679 865 866
f 512 511 855
f 855 511 510
f 855 510 867
f 867 510 509
f 867 509 868
f 868 509 508
f 868 508 869
f 869 508 470
f 869 470 822
f 822 470 471
f 822 471 472
f 822 870 869
f 869 870 871
f 869 871 868
f 868 871 872
f 868 872 867
f 867 872 873
f 867 873 855
f 855 873 874
f 855 874 856
f 856 874 875
f 856 875 854
f 854 875 876
f 854 876 853
f 853 876 877
f 853 877 852
f 852 877 878
f 852 878 851
f 851 878 879
f 851 879 848
f 848 879 880
f 848 880 849
f 849 880 881
f 849 881 847
f 847 881 882
f 847 882 846
f 846 882 883
f 846 883 845
f 845 883 884
f 845 884 844
f 844 884 885
f 844 885 843
f 843 885 886
f 843 886 842
f 842 886 887
f 842 887 841
f 841 887 888
f 841 888 839
f 839 888 889
f 839 889 840
f 840 889 890
f 840 890 838
f 838 890 891
f 838 891 837
f 837 891 892
f 837 892 836
f 836 892 893
f 836 893 835
f 835 893 894
f 835 894 834
f 834 894 895
f 834 895 833
f 833 895 896
f 833 896 832
f 832 896 897
f 832 897 831
f 831 897 898
f 831 898 830
f 830 898 899
f 830 899 829
f 829 899 900
f 829 900 828
f 828 900 901
f 828 901 827
f 827 901 902
f 827 902 826
f 826 902 903
f 826 903 825
f 825 903 904
f 825 904 824
f 824 904 905
f 824 905 823
f 823 905 906
f 823 906 822
f 822 906 870
f 906 866 870
f 870 866 865
f 870 865 871
f 871 865 864
f 871 864 872
f 872 864 863
f 872 863 873
f 873 863 862
f 873 862 874
f 874 862 861
f 874 861 875
f 875 861 860
f 875 860 876
f 876 860 859
f 876 859 877
f 877 859 858
f 877 858 878
f 878 858 857
f 878 857 879
f 879 857 850
f 879 850 880
f 880 850 907
f 880 907 881
f 881 907 908
f 881 908 882
f 882 908 909
f 882 909 883
f 883 909 910
f 883 910 884
f 884 910 911
f 884 911 885
f 885 911 912
f 885 912 886
f 886 912 913
f 886 913 887
f 887 913 914
f 887 914 888
f 888 914 915
f 888 915 889
f 889 915 916
f 889 916 890
f 890 916 917
f 890 917 891
f 891 917 918
f 891 918 892
f 892 918 919
f 892 919 893
f 893 919 920
f 893 920 894
f 894 920 921
f 894 921 895
f 895 921 922
f 895 922 896
f 896 922 923
f 896 923 897
f 897 923 924
f 897 924 898
f 898 924 925
f 898 925 899
f 899 925 926
f 899 926 900
f 900 926 927
f 900 927 901
f 901 927 928
f 901 928 902
f 902 928 929
f 902 929 903
f 903 929 930
f 903 930 904
f 904 930 931
f 904 931 905
f 905 931 932
f 905 932 906
f 906 932 866
f 669 667 850
f 850 667 618
f 850 618 907
f 907 618 616
f 907 616 908
f 908 616 614
f 908 614 909
f 909 614 624
f 909 624 910
f 910 624 623
f 910 623 911
f 911 623 622
f 911 622 912
f 912 622 613
f 912 613 913
f 913 613 612
f 913 612 914
f 914 612 611
f 914 611 915
f 915 611 607
f 915 607 916
f 916 607 605
f 916 605 917
f 917 605 604
f 917 604 918
f 918 604 602
f 918 602 919
f 919 602 600
f 919 600 920
f 920 600 599
f 920 599 921
f 921 599 597
f 921 597 922
f 922 597 595
f 922 595 923
f 923 595 692
f 923 692 924
f 924 692 691
f 924 691 925
f 925 691 690
f 925 690 926
f 926 690 688
f 926 688 927
f 927 688 687
f 927 687 928
f 928 687 685
f 928 685 929
f 929 685 683
f 929 683 930
f 930 683 681
f 930 681 931
f 931 681 680
f 931 680 932
f 932 680 675
f 932 675 866
f 866 675 674
f 866 674 679
f 297 115 933
f 933 115 934
f 933 934 935
f 935 934 936
f 935 936 937
f 937 936 938
f 937 938 939
f 939 938 940
f 939 940 941
f 941 940 942
f 941 942 210
f 210 942 211
f 943 944 945
f 944 304 305
f 946 947 948
f 948 947 943
f 949 950 946
f 950 949 212
f 944 305 945
f 945 305 306
f 945 306 951
f 951 306 307
f 951 307 952
f 952 307 303
f 952 303 953
f 303 302 953
f 953 302 301
f 953 301 954
f 954 301 300
f 954 300 955
f 955 300 299
f 955 299 956
f 956 299 312
f 311 957 312
f 312 957 958
f 312 958 956
f 311 310 957
f 957 310 309
f 957 309 959
f 959 309 308
f 959 308 960
f 960 308 961
f 308 292 961
f 961 292 291
f 961 291 316
f 315 962 316
f 316 962 963
f 316 963 961
f 315 314 962
f 962 314 313
f 962 313 964
f 964 313 322
f 321 965 322
f 322 965 966
f 322 966 964
f 321 320 965
f 965 320 317
f 965 317 967
f 967 317 318
f 319 968 318
f 318 968 969
f 318 969 967
f 319 325 968
f 968 325 324
f 968 324 970
f 970 324 323
f 970 323 971
f 971 323 329
f 971 329 972
f 329 328 972
f 972 328 327
f 972 327 973
f 973 327 326
f 973 326 974
f 974 326 333
f 974 333 975
f 333 332 975
f 975 332 331
f 975 331 976
f 976 331 330
f 976 330 977
f 977 330 337
f 977 337 978
f 337 336 978
f 978 336 335
f 978 335 979
f 979 335 334
f 979 334 980
f 980 334 341
f 980 341 981
f 341 340 981
f 981 340 339
f 981 339 982
f 982 339 338
f 982 338 983
f 983 338 294
f 983 294 984
f 943 945 948
f 948 945 951
f 948 951 985
f 985 951 952
f 985 952 986
f 986 952 953
f 986 953 987
f 987 953 954
f 987 954 988
f 988 954 955
f 988 955 989
f 989 955 956
f 989 956 990
f 990 956 958
f 990 958 991
f 991 958 957
f 991 957 992
f 992 957 959
f 992 959 993
f 993 959 960
f 993 960 994
f 994 960 961
f 994 961 995
f 995 961 963
f 995 963 996
f 996 963 962
f 996 962 997
f 997 962 964
f 997 964 998
f 998 964 966
f 998 966 999
f 999 966 965
f 999 965 1000
f 1000 965 967
f 1000 967 1001
f 1001 967 969
f 1001 969 1002
f 1002 969 968
f 1002 968 1003
f 1003 968 970
f 1003 970 1004
f 1004 970 971
f 1004 971 1005
f 1005 971 972
f 1005 972 1006
f 1006 972 973
f 1006 973 1007
f 1007 973 974
f 1007 974 1008
f 1008 974 975
f 1008 975 1009
f 1009 975 976
f 1009 976 1010
f 1010 976 977
f 1010 977 1011
f 1011 977 978
f 1011 978 1012
f 1012 978 979
f 1012 979 1013
f 1013 979 980
f 1013 980 1014
f 1014 980 981
f 1014 981 1015
f 1015 981 982
f 1015 982 1016
f 1016 982 983
f 1016 983 1017
f 1017 983 984
f 1017 984 1018
f 1018 984 1019
f 1018 1019 1020
f 1020 1019 1021
f 1020 1021 1022
f 1022 1021 1023
f 1022 1023 1024
f 294 293 984
f 984 293 298
f 984 298 1019
f 1019 298 295
f 1019 295 1021
f 1021 295 296
f 1021 296 1023
f 1023 296 297
f 297 933 1023
f 1023 933 935
f 1023 935 1024
f 1024 935 937
f 1024 937 939
f 946 948 949
f 949 948 985
f 949 985 1025
f 1025 985 986
f 1025 986 1026
f 1026 986 987
f 1026 987 1027
f 1027 987 988
f 1027 988 1028
f 1028 988 989
f 1028 989 1029
f 1029 989 990
f 1029 990 1030
f 1030 990 991
f 1030 991 1031
f 1031 991 992
f 1031 992 1032
f 1032 992 993
f 1032 993 1033
f 1033 993 994
f 1033 994 1034
f 1034 994 995
f 1034 995 1035
f 1035 995 996
f 1035 996 1036
f 1036 996 997
f 1036 997 1037
f 1037 997 998
f 1037 998 1038
f 1038 998 999
f 1038 999 1039
f 1039 999 1000
f 1039 1000 1040
f 1040 1000 1001
f 1040 1001 1041
f 1041 1001 1002
f 1041 1002 1042
f 1042 1002 1003
f 1042 1003 1043
f 1043 1003 1004
f 1043 1004 1044
f 1044 1004 1005
f 1044 1005 1045
f 1045 1005 1006
f 1045 1006 1046
f 1046 1006 1007
f 1046 1007 1047
f 1047 1007 1008
f 1047 1008 1048
f 1048 1008 1009
f 1048 1009 1049
f 1049 1009 1010
f 1049 1010 1050
f 1050 1010 1011
f 1050 1011 1051
f 1051 1011 1012
f 1051 1012 1052
f 1052 1012 1013
f 1052 1013 1053
f 1053 1013 1014
f 1053 1014 1054
f 1054 1014 1015
f 1054 1015 1055
f 1055 1015 1016
f 1055 1016 1056
f 1056 1016 1017
f 1056 1017 1057
f 1057 1017 1018
f 1057 1018 1058
f 1058 1018 1020
f 1058 1020 1059
f 1059 1020 1022
f 1059 1022 1060
f 1060 1022 1024
f 1060 1024 1061
f 1061 1024 939
f 1061 939 941
f 212 949 606
f 606 949 1025
f 606 1025 603
f 603 1025 1026
f 603 1026 601
f 601 1026 1027
f 601 1027 598
f 598 1027 1028
f 598 1028 596
f 596 1028 1029
f 596 1029 594
f 594 1029 1030
f 594 1030 689
f 689 1030 1031
f 689 1031 686
f 686 1031 1032
f 686 1032 684
f 684 1032 1033
f 684 1033 682
f 682 1033 1034
f 682 1034 659
f 659 1034 1035
f 659 1035 703
f 703 1035 1036
f 703 1036 704
f 704 1036 1037
f 704 1037 705
f 705 1037 1038
f 705 1038 706
f 706 1038 1039
f 706 1039 707
f 707 1039 1040
f 707 1040 708
f 708 1040 1041
f 708 1041 709
f 709 1041 1042
f 709 1042 696
f 696 1042 1043
f 696 1043 695
f 695 1043 1044
f 695 1044 693
f 693 1044 1045
f 693 1045 697
f 697 1045 1046
f 697 1046 698
f 698 1046 1047
f 698 1047 699
f 699 1047 1048
f 699 1048 700
f 700 1048 1049
f 700 1049 701
f 701 1049 1050
f 701 1050 702
f 702 1050 1051
f 702 1051 710
f 710 1051 1052
f 710 1052 640
f 640 1052 1053
f 640 1053 651
f 651 1053 1054
f 651 1054 649
f 649 1054 1055
f 649 1055 646
f 646 1055 1056
f 646 1056 643
f 643 1056 1057
f 643 1057 637
f 637 1057 1058
f 637 1058 634
f 634 1058 1059
f 634 1059 632
f 632 1059 1060
f 632 1060 630
f 630 1060 1061
f 630 1061 627
f 627 1061 941
f 627 941 210
f 940 938 1062
f 936 934 1063
f 1064 942 940
f 942 1064 211
f 122 1065 123
f 123 1065 1063
f 123 1063 116
f 116 1063 934
f 116 934 115
f 122 121 1065
f 1065 121 120
f 1065 120 1066
f 1066 120 118
f 1066 118 1067
f 1067 118 117
f 1067 117 1068
f 1068 117 1069
f 1069 117 128
f 1069 128 1070
f 1070 128 127
f 1070 127 1071
f 1071 127 125
f 1071 125 1072
f 1072 125 124
f 1072 124 1073
f 1074 1075 1076
f 1076 1075 1077
f 1076 1077 1078
f 1078 1077 1079
f 1078 1079 1073
f 1073 1079 1080
f 1073 1080 1072
f 1072 1080 1081
f 1072 1081 1071
f 1071 1081 1082
f 1071 1082 1070
f 1070 1082 1083
f 1070 1083 1069
f 1069 1083 1084
f 1069 1084 1068
f 1068 1084 1085
f 1068 1085 1067
f 1067 1085 1086
f 1067 1086 1066
f 1066 1086 1087
f 1066 1087 1065
f 1065 1087 1062
f 1065 1062 1063
f 1063 1062 938
f 1063 938 936
f 124 132 1073
f 1073 132 130
f 1073 130 1078
f 1078 130 129
f 1078 129 1076
f 1076 129 134
f 1076 134 1074
f 1074 134 136
f 1088 1089 1090
f 1090 1089 1091
f 1090 1091 1092
f 1092 1091 1093
f 1092 1093 1094
f 1094 1093 1095
f 1094 1095 1096
f 47 1095 45
f 45 1095 1093
f 45 1093 43
f 43 1093 1091
f 43 1091 136
f 136 1091 1089
f 136 1089 1074
f 1074 1089 1088
f 1074 1088 1075
f 47 1097 1095
f 1095 1097 1098
f 1095 1098 1096
f 1096 1098 1099
f 1096 1099 1100
f 940 1062 1064
f 1064 1062 1087
f 1064 1087 1101
f 1101 1087 1086
f 1101 1086 1102
f 1102 1086 1085
f 1102 1085 1103
f 1103 1085 1084
f 1103 1084 1104
f 1104 1084 1083
f 1104 1083 1105
f 1105 1083 1082
f 1105 1082 1106
f 1106 1082 1081
f 1106 1081 1107
f 1107 1081 1080
f 1107 1080 1108
f 1108 1080 1079
f 1108 1079 1109
f 1109 1079 1077
f 1109 1077 1110
f 1110 1077 1075
f 1110 1075 1111
f 1111 1075 1088
f 1111 1088 1112
f 1112 1088 1090
f 1112 1090 1113
f 1113 1090 1092
f 1113 1092 1114
f 1114 1092 1094
f 1114 1094 1115
f 1115 1094 1096
f 1115 1096 1116
f 1116 1096 1100
f 1116 1100 1117
f 211 1064 213
f 213 1064 1101
f 213 1101 216
f 216 1101 1102
f 216 1102 217
f 217 1102 1103
f 217 1103 218
f 218 1103 1104
f 218 1104 219
f 219 1104 1105
f 219 1105 220
f 220 1105 1106
f 220 1106 224
f 224 1106 1107
f 224 1107 227
f 227 1107 1108
f 227 1108 228
f 228 1108 1109
f 228 1109 230
f 230 1109 1110
f 230 1110 229
f 229 1110 1111
f 229 1111 225
f 225 1111 1112
f 225 1112 226
f 226 1112 1113
f 226 1113 221
f 221 1113 1114
f 221 1114 222
f 222 1114 1115
f 222 1115 223
f 223 1115 1116
f 223 1116 215
f 215 1116 1117
f 215 1117 214
f 47 304 1097
f 1097 304 944
f 1097 944 1098
f 1098 944 943
f 1098 943 1099
f 1099 943 947
f 1099 947 1100
f 1100 947 946
f 1100 946 1117
f 1117 946 950
f 1117 950 214
f 214 950 212
f 1118 1119 1120
f 1120 1119 1121
f 1120 1121 1122
f 1122 1121 1123
f 1122 1123 1124
f 1125 1126 1122
f 1127 1128 28
f 28 1128 1129
f 28 1129 1130
f 1130 1129 1131
f 1132 1133 1134
f 1134 1133 1135
f 1132 1136 1133
f 1133 1136 1137
f 1133 1137 1125
f 1125 1137 1138
f 1125 1138 1126
f 1139 1140 1130
f 1141 1142 1143
f 1143 1142 1144
f 1143 1144 1145
f 1145 1144 1146
f 1147 28 1148
f 1148 28 27
f 1148 27 1149
f 1147 1150 28
f 28 1150 1151
f 28 1151 1127
f 1152 1153 1135
f 1135 1153 1119
f 1154 1155 1156
f 1156 1155 1157
f 1157 1155 1158
f 1158 1155 1159
f 1158 1159 1160
f 1139 1161 1162
f 1162 1161 1163
f 1164 1165 1166
f 1166 1165 1167
f 1166 1167 1168
f 1146 1165 1145
f 1145 1165 1164
f 1145 1164 1169
f 1169 1164 1127
f 1169 1127 1170
f 1170 1127 1151
f 1171 1172 27
f 27 1172 1173
f 27 1173 1149
f 1118 1174 1119
f 1119 1174 1175
f 1119 1175 1135
f 1135 1175 1176
f 1135 1176 1134
f 1152 1135 1177
f 1177 1135 1130
f 1177 1130 1178
f 1178 1130 1140
f 1178 1140 1159
f 1159 1140 1179
f 1159 1179 1160
f 1131 1180 1130
f 1130 1180 1181
f 1130 1181 1139
f 1139 1181 1182
f 1139 1182 1161
f 1183 1184 1161
f 1161 1184 1185
f 1161 1185 1163
f 1186 1187 1183
f 1183 1187 1188
f 1183 1188 1184
f 1171 1189 1172
f 1172 1189 1190
f 1172 1190 1191
f 1191 1190 1192
f 1191 1192 1143
f 1143 1192 1193
f 1143 1193 1141
f 1194 1195 1122
f 1122 1195 1196
f 1122 1196 1197
f 1198 1125 1199
f 1199 1125 1122
f 1199 1122 1200
f 1200 1122 1197
f 1154 1201 1155
f 1155 1201 1202
f 1155 1202 1203
f 1203 1202 1204
f 1203 1204 1205
f 1205 1204 1206
f 1205 1206 1207
f 1168 1208 1166
f 1166 1208 1209
f 1166 1209 1210
f 1210 1209 1211
f 1210 1211 1183
f 1183 1211 1212
f 1183 1212 1186
f 1207 1213 1205
f 1205 1213 1214
f 1205 1214 1124
f 1124 1214 1215
f 1124 1215 1122
f 1122 1215 1216
f 1122 1216 1194
f 1217 1218 1133
f 1133 1218 1135
f 1219 1217 1
f 1 1217 1133
f 1 1133 2
f 2 1133 1125
f 1220 1221 1130
f 1130 1221 28
f 1222 1220 11
f 11 1220 1130
f 11 1130 12
f 12 1130 1135
f 12 1135 1223
f 1223 1135 1224
f 1225 1189 1171
f 1226 1227 1228
f 1229 1230 1231
f 1230 1229 1232
f 1232 1229 1233
f 1232 1233 1234
f 1235 1236 1237
f 1237 1236 1238
f 1237 1238 1239
f 1239 1238 1240
f 1239 1240 1241
f 1242 1243 1244
f 1244 1243 1245
f 1244 1245 1246
f 1246 1245 1247
f 1246 1247 1248
f 1248 1247 1249
f 1248 1249 1250
f 1250 1249 1251
f 1250 1251 1252
f 1252 1251 1241
f 1252 1241 1253
f 1253 1241 1240
f 1254 1255 1256
f 1256 1255 1257
f 1256 1257 1242
f 1242 1257 1258
f 1242 1258 1243
f 1259 1260 1254
f 1254 1260 1261
f 1254 1261 1255
f 1189 1225 1190
f 1262 174 1263
f 1263 174 32
f 1263 32 1264
f 1264 32 31
f 1264 31 1265
f 1265 31 178
f 1265 178 1266
f 1266 178 179
f 1266 179 1267
f 1267 179 180
f 1267 180 1268
f 1268 180 181
f 1268 181 1269
f 1269 181 185
f 1269 185 1270
f 1270 185 184
f 1270 184 1271
f 1271 184 183
f 1271 183 1272
f 1272 183 182
f 1272 182 1273
f 1273 182 186
f 1273 186 1274
f 1274 186 187
f 1274 187 1275
f 1275 187 189
f 1275 189 1276
f 1276 189 192
f 1276 192 1277
f 177 176 1262
f 1262 176 175
f 1262 175 174
f 1262 1278 177
f 177 1278 1279
f 177 1279 172
f 172 1279 1280
f 172 1280 173
f 173 1280 166
f 166 1280 167
f 167 1280 1281
f 167 1281 1282
f 171 170 1282
f 1282 170 169
f 1282 169 167
f 1282 1283 171
f 171 1283 1284
f 171 1284 160
f 160 1284 1285
f 160 1285 161
f 161 1285 1286
f 161 1286 163
f 163 1286 1287
f 163 1287 164
f 164 1287 1288
f 164 1288 165
f 165 1288 1289
f 165 1289 155
f 155 1289 1290
f 155 1290 156
f 156 1290 1291
f 156 1291 158
f 158 1291 1292
f 158 1292 159
f 159 1292 150
f 150 1292 1293
f 150 1293 151
f 151 1293 1294
f 151 1294 153
f 153 1294 1295
f 153 1295 154
f 154 1295 1296
f 154 1296 149
f 149 1296 145
f 145 1296 1297
f 145 1297 146
f 146 1297 1298
f 146 1298 147
f 147 1298 1299
f 147 1299 148
f 148 1299 1300
f 148 1300 144
f 144 1300 1301
f 144 1301 143
f 143 1301 1302
f 143 1302 142
f 142 1302 1303
f 142 1303 141
f 141 1303 1304
f 141 1304 34
f 34 1304 1305
f 34 1305 35
f 35 1305 1306
f 35 1306 137
f 137 1306 1307
f 137 1307 138
f 138 1307 1308
f 138 1308 139
f 139 1308 1309
f 139 1309 140
f 140 1309 1310
f 140 1310 37
f 1237 1231 1235
f 1235 1231 1230
f 1235 1230 1311
f 1311 1230 1232
f 1311 1232 1312
f 1313 1200 1197
f 1312 1314 1315
f 1315 1314 209
f 1315 209 1310
f 1310 209 38
f 1310 38 37
f 202 201 1314
f 1314 201 208
f 1314 208 209
f 1313 1197 1316
f 1316 1197 1196
f 1316 1196 1317
f 1317 1196 1195
f 1317 1195 1318
f 1318 1195 1194
f 1318 1194 1319
f 1319 1194 1216
f 1319 1216 1320
f 1320 1216 1215
f 1320 1215 1321
f 1321 1215 1214
f 1321 1214 1322
f 1322 1214 1213
f 1322 1213 1323
f 1323 1213 1207
f 1323 1207 1324
f 1324 1207 1206
f 1324 1206 1325
f 1325 1206 1204
f 1325 1204 1326
f 1326 1204 1202
f 1326 1202 1327
f 1327 1202 1201
f 1327 1201 1328
f 1328 1201 1154
f 1328 1154 1329
f 1329 1154 1156
f 1329 1156 1330
f 1330 1156 1157
f 1330 1157 1331
f 1331 1157 1158
f 1331 1158 1332
f 1332 1158 1160
f 1332 1160 1333
f 1333 1160 1179
f 1333 1179 1334
f 1334 1179 1140
f 1334 1140 1335
f 1335 1140 1139
f 1335 1139 1336
f 1336 1139 1162
f 1336 1162 1337
f 1337 1162 1163
f 1337 1163 1338
f 1338 1163 1185
f 1338 1185 1339
f 1339 1185 1184
f 1339 1184 1340
f 1340 1184 1188
f 1340 1188 1341
f 1341 1188 1187
f 1341 1187 1342
f 1342 1187 1186
f 1342 1186 1343
f 1343 1186 1212
f 1343 1212 1344
f 1344 1212 1211
f 1344 1211 1345
f 1345 1211 1209
f 1345 1209 1346
f 1346 1209 1208
f 1346 1208 1347
f 1347 1208 1168
f 1347 1168 1348
f 1348 1168 1167
f 1348 1167 1349
f 1349 1167 1165
f 1349 1165 1350
f 1350 1165 1146
f 1350 1146 1351
f 1351 1146 1144
f 1351 1144 1352
f 1352 1144 1142
f 1352 1142 1353
f 1353 1142 1141
f 1353 1141 1354
f 1354 1141 1193
f 1354 1193 1355
f 1355 1193 1192
f 1355 1192 1356
f 1356 1192 1190
f 1356 1190 1357
f 1357 1190 1225
f 1357 1225 1228
f 1228 1225 1358
f 1228 1358 1226
f 1226 1260 1227
f 1227 1260 1259
f 1227 1259 1228
f 1228 1259 1359
f 1228 1359 1357
f 1357 1359 1360
f 1357 1360 1356
f 1356 1360 1361
f 1356 1361 1355
f 1355 1361 1362
f 1355 1362 1354
f 1354 1362 1363
f 1354 1363 1353
f 1353 1363 1364
f 1353 1364 1352
f 1352 1364 1365
f 1352 1365 1351
f 1351 1365 1366
f 1351 1366 1350
f 1350 1366 1367
f 1350 1367 1349
f 1349 1367 1368
f 1349 1368 1348
f 1348 1368 1369
f 1348 1369 1347
f 1347 1369 1370
f 1347 1370 1346
f 1346 1370 1371
f 1346 1371 1345
f 1345 1371 1372
f 1345 1372 1344
f 1344 1372 1373
f 1344 1373 1343
f 1343 1373 1374
f 1343 1374 1342
f 1342 1374 1375
f 1342 1375 1341
f 1341 1375 1376
f 1341 1376 1340
f 1340 1376 1377
f 1340 1377 1339
f 1339 1377 1378
f 1339 1378 1338
f 1338 1378 1379
f 1338 1379 1337
f 1337 1379 1380
f 1337 1380 1336
f 1336 1380 1381
f 1336 1381 1335
f 1335 1381 1382
f 1335 1382 1334
f 1334 1382 1383
f 1334 1383 1333
f 1333 1383 1384
f 1333 1384 1332
f 1332 1384 1385
f 1332 1385 1331
f 1331 1385 1386
f 1331 1386 1330
f 1330 1386 1387
f 1330 1387 1329
f 1329 1387 1388
f 1329 1388 1328
f 1328 1388 1389
f 1328 1389 1327
f 1327 1389 1390
f 1327 1390 1326
f 1326 1390 1391
f 1326 1391 1325
f 1325 1391 1392
f 1325 1392 1324
f 1324 1392 1393
f 1324 1393 1323
f 1323 1393 1394
f 1323 1394 1322
f 1322 1394 1395
f 1322 1395 1321
f 1321 1395 1396
f 1321 1396 1320
f 1320 1396 1397
f 1320 1397 1319
f 1319 1397 1398
f 1319 1398 1318
f 1318 1398 1399
f 1318 1399 1317
f 1317 1399 1400
f 1317 1400 1316
f 1316 1400 1401
f 1316 1401 1313
f 1312 1315 1311
f 1311 1315 1310
f 1311 1310 1235
f 1235 1310 1309
f 1235 1309 1236
f 1236 1309 1308
f 1236 1308 1238
f 1238 1308 1307
f 1238 1307 1240
f 1240 1307 1306
f 1240 1306 1253
f 1253 1306 1305
f 1253 1305 1252
f 1252 1305 1304
f 1252 1304 1250
f 1250 1304 1303
f 1250 1303 1248
f 1248 1303 1302
f 1248 1302 1246
f 1246 1302 1301
f 1246 1301 1244
f 1244 1301 1300
f 1244 1300 1242
f 1242 1300 1299
f 1242 1299 1256
f 1256 1299 1298
f 1256 1298 1254
f 1254 1298 1297
f 1254 1297 1259
f 1259 1297 1296
f 1259 1296 1359
f 1359 1296 1295
f 1359 1295 1360
f 1360 1295 1294
f 1360 1294 1361
f 1361 1294 1293
f 1361 1293 1362
f 1362 1293 1292
f 1362 1292 1363
f 1363 1292 1291
f 1363 1291 1364
f 1364 1291 1290
f 1364 1290 1365
f 1365 1290 1289
f 1365 1289 1366
f 1366 1289 1288
f 1366 1288 1367
f 1367 1288 1287
f 1367 1287 1368
f 1368 1287 1286
f 1368 1286 1369
f 1369 1286 1285
f 1369 1285 1370
f 1370 1285 1284
f 1370 1284 1371
f 1371 1284 1283
f 1371 1283 1372
f 1372 1283 1282
f 1372 1282 1373
f 1373 1282 1281
f 1373 1281 1374
f 1374 1281 1280
f 1374 1280 1375
f 1375 1280 1279
f 1375 1279 1376
f 1376 1279 1278
f 1376 1278 1377
f 1377 1278 1262
f 1377 1262 1378
f 1378 1262 1263
f 1378 1263 1379
f 1379 1263 1264
f 1379 1264 1380
f 1380 1264 1265
f 1380 1265 1381
f 1381 1265 1266
f 1381 1266 1382
f 1382 1266 1267
f 1382 1267 1383
f 1383 1267 1268
f 1383 1268 1384
f 1384 1268 1269
f 1384 1269 1385
f 1385 1269 1270
f 1385 1270 1386
f 1386 1270 1271
f 1386 1271 1387
f 1387 1271 1272
f 1387 1272 1388
f 1388 1272 1273
f 1388 1273 1389
f 1389 1273 1274
f 1389 1274 1390
f 1390 1274 1275
f 1390 1275 1391
f 1391 1275 1276
f 1391 1276 1392
f 1392 1276 1277
f 1392 1277 1393
f 1393 1277 1402
f 1393 1402 1394
f 1394 1402 1403
f 1394 1403 1395
f 1395 1403 1404
f 1395 1404 1396
f 1396 1404 1405
f 1396 1405 1397
f 1397 1405 1406
f 1397 1406 1398
f 1398 1406 1407
f 1398 1407 1399
f 1399 1407 1408
f 1399 1408 1400
f 1400 1408 1409
f 1400 1409 1401
f 1198 1199 1234
f 1234 1199 1200
f 1234 1200 1232
f 1232 1200 1313
f 1232 1313 1312
f 1312 1313 1401
f 1312 1401 1314
f 1314 1401 1409
f 1314 1409 202
f 202 1409 1408
f 202 1408 203
f 203 1408 1407
f 203 1407 204
f 204 1407 1406
f 204 1406 193
f 193 1406 1405
f 193 1405 194
f 194 1405 1404
f 194 1404 195
f 195 1404 1403
f 195 1403 196
f 196 1403 1402
f 196 1402 197
f 197 1402 1277
f 197 1277 191
f 191 1277 192
f 1148 1410 1147
f 1147 1410 1411
f 1147 1411 1150
f 1150 1411 1412
f 1150 1412 1151
f 1151 1412 1413
f 1151 1413 1170
f 1170 1413 1414
f 1170 1414 1169
f 1169 1414 1415
f 1169 1415 1145
f 1145 1415 1416
f 1145 1416 1143
f 1143 1416 1417
f 1143 1417 1191
f 1191 1417 1418
f 1191 1418 1172
f 1172 1418 1419
f 1172 1419 1173
f 1173 1419 1420
f 1173 1420 1149
f 1149 1420 1421
f 1149 1421 1148
f 1148 1421 1410
f 1124 1422 1205
f 1205 1422 1423
f 1205 1423 1203
f 1203 1423 1424
f 1203 1424 1155
f 1155 1424 1425
f 1155 1425 1159
f 1159 1425 1426
f 1159 1426 1178
f 1178 1426 1427
f 1178 1427 1177
f 1177 1427 1428
f 1177 1428 1152
f 1152 1428 1429
f 1152 1429 1153
f 1153 1429 1430
f 1153 1430 1119
f 1119 1430 1431
f 1119 1431 1121
f 1121 1431 1432
f 1121 1432 1123
f 1123 1432 1433
f 1123 1433 1124
f 1124 1433 1422
f 1164 1434 1127
f 1127 1434 1435
f 1127 1435 1128
f 1128 1435 1436
f 1128 1436 1129
f 1129 1436 1437
f 1129 1437 1131
f 1131 1437 1438
f 1131 1438 1180
f 1180 1438 1439
f 1180 1439 1181
f 1181 1439 1440
f 1181 1440 1182
f 1182 1440 1441
f 1182 1441 1161
f 1161 1441 1442
f 1161 1442 1183
f 1183 1442 1443
f 1183 1443 1210
f 1210 1443 1444
f 1210 1444 1166
f 1166 1444 1445
f 1166 1445 1164
f 1164 1445 1434
f 1137 1446 1138
f 1138 1446 1447
f 1138 1447 1126
f 1126 1447 1448
f 1126 1448 1122
f 1122 1448 1449
f 1122 1449 1120
f 1120 1449 1450
f 1120 1450 1118
f 1118 1450 1451
f 1118 1451 1174
f 1174 1451 1452
f 1174 1452 1175
f 1175 1452 1453
f 1175 1453 1176
f 1176 1453 1454
f 1176 1454 1134
f 1134 1454 1455
f 1134 1455 1132
f 1132 1455 1456
f 1132 1456 1136
f 1136 1456 1457
f 1136 1457 1137
f 1137 1457 1446
f 1260 1226 10
f 10 1226 1358
f 10 1358 1225
f 1234 1233 4
f 4 1233 1229
f 4 1229 10
f 10 1229 1231
f 10 1231 1237
f 1239 1257 1237
f 1237 1257 1255
f 1237 1255 10
f 10 1255 1261
f 10 1261 1260
f 1239 1241 1251
f 1251 1249 1239
f 1239 1249 1247
f 1239 1247 1245
f 1245 1243 1239
f 1239 1243 1258
f 1239 1258 1257
f 27 8 1171
f 1171 8 10
f 1171 10 1225
f 2 1125 4
f 4 1125 1198
f 4 1198 1234
f 1458 13 22
f 1458 22 1459
f 1459 22 21
f 1459 21 1460
f 1460 21 23
f 1460 23 1461
f 1461 23 24
f 1461 24 1462
f 1462 24 25
f 1462 25 1463
f 1463 25 7
f 1463 7 1464
f 1464 7 6
f 1464 6 1465
f 1465 6 5
f 1465 5 1466
f 29 1466 9
f 9 1466 5
f 1458 1222 13
f 13 1222 11
f 1445 1458 1434
f 1434 1458 1459
f 1434 1459 1460
f 1466 1417 1465
f 1465 1417 1416
f 1465 1416 1464
f 1439 1220 1440
f 1440 1220 1222
f 1440 1222 1441
f 1221 1411 29
f 29 1411 1410
f 29 1410 1421
f 1434 1416 1435
f 1435 1416 1415
f 1460 1461 1434
f 1434 1461 1462
f 1434 1462 1416
f 1416 1462 1463
f 1416 1463 1464
f 1445 1444 1458
f 1458 1444 1443
f 1458 1443 1222
f 1222 1443 1442
f 1222 1442 1441
f 1439 1438 1220
f 1220 1438 1437
f 1220 1437 1221
f 1221 1437 1436
f 1221 1436 1435
f 1421 1420 29
f 29 1420 1419
f 29 1419 1466
f 1466 1419 1418
f 1466 1418 1417
f 1415 1414 1435
f 1435 1414 1413
f 1435 1413 1221
f 1221 1413 1412
f 1221 1412 1411
f 1467 1219 3
f 3 1219 1
f 1467 3 16
f 1467 16 1468
f 1468 16 15
f 1468 15 1469
f 1469 15 17
f 1469 17 1470
f 1470 17 18
f 1470 18 1471
f 1471 18 19
f 1471 19 1472
f 1472 19 20
f 1472 20 1473
f 1473 20 26
f 1473 26 1474
f 1474 26 14
f 1474 14 1475
f 1223 1475 12
f 12 1475 14
f 1457 1217 1446
f 1446 1217 1219
f 1446 1219 1447
f 1451 1467 1452
f 1452 1467 1468
f 1452 1468 1469
f 1452 1422 1453
f 1453 1422 1433
f 1425 1473 1474
f 1451 1450 1467
f 1467 1450 1449
f 1467 1449 1219
f 1219 1449 1448
f 1219 1448 1447
f 1218 1429 1223
f 1223 1429 1428
f 1223 1428 1427
f 1469 1470 1452
f 1452 1470 1471
f 1452 1471 1422
f 1422 1471 1472
f 1422 1472 1423
f 1423 1472 1473
f 1423 1473 1424
f 1424 1473 1425
f 1457 1456 1217
f 1217 1456 1455
f 1217 1455 1433
f 1433 1455 1454
f 1433 1454 1453
f 1474 1475 1425
f 1425 1475 1223
f 1425 1223 1426
f 1426 1223 1427
f 1433 1432 1217
f 1217 1432 1431
f 1217 1431 1218
f 1218 1431 1430
f 1218 1430 1429

