# https://github.com/mikedh/trimesh
v 28.31999969 40.63999939 0.00000000
v 28.31999969 40.64011383 6.59999275
v 40.63999939 40.63999939 0.00000000
v 40.63999939 40.64011383 6.59999275
v 15.91119576 21.99740601 14.20857716
v 15.77864647 20.96375847 14.19208908
v 15.88766766 22.89563751 27.16839981
v 24.35150719 17.19997978 14.25799751
v 24.47871399 17.60342216 14.24098778
v 24.95487404 17.58751869 40.80151749
v 17.45991707 25.83783722 14.42652225
v 17.37537575 25.73386002 14.41711235
v 16.13155746 27.81958580 68.06775665
v 16.94308472 25.05740166 14.35617352
v 16.82263947 24.80401611 14.33357620
v 16.54373932 25.16158104 27.16839981
v 17.00005531 32.44205093 119.59588623
v 17.92215919 33.04220581 120.75637054
v 18.69915962 30.11196709 68.06775665
v 25.81671906 11.58081150 115.66300964
v 25.61910248 10.93544579 116.21147919
v 24.50846100 12.82083225 68.06775665
v 14.85892868 11.44350243 115.77415466
v 15.97930622 13.15133667 68.06775665
v 15.20160675 10.49615383 116.62586975
v 16.88694954 11.73769093 68.06775665
v 15.82000923 9.43142414 117.80055237
v 16.92277718 8.26045036 119.48952484
v 16.17106056 8.98863792 118.37858582
v 18.32402229 10.68598461 68.06775665
v 15.97459412 9.22607327 118.06090546
v 15.86211395 9.37370968 117.87245178
v 20.11320686 10.24287987 68.06775665
v 19.91764641 7.00291824 122.28170013
v 19.29700089 7.09676838 122.00234222
v 18.39992905 7.37591839 121.26681519
v 18.01612473 7.55010462 120.86225128
v 17.65553665 7.74712658 120.44250488
v 20.44200516 6.98715162 122.33061981
v 20.94905472 7.02783918 122.20558929
v 21.70307159 7.18814898 121.74750519
v 21.04396629 10.29519558 68.06775665
v 22.48756790 7.48421431 121.01120758
v 23.49651337 8.08841610 119.78971100
v 24.67782974 9.24190903 118.04037476
v 24.43177986 8.94633865 118.43720245
v 23.47702599 11.46422768 68.06775665
v 21.94085884 10.52845097 68.06775665
v 25.36712265 10.34531307 116.77671814
v 26.01668167 15.68963432 113.38820648
v 26.00178337 14.05641842 114.07965851
v 24.98502159 14.33942413 68.06775665
v 25.98372459 12.65372276 114.88592529
v 25.91995811 12.08893490 115.27565765
v 26.05141830 20.32020950 112.60023499
v 26.04308319 18.29179382 112.74796295
v 25.35991859 17.27299500 68.06775665
v 26.02353668 16.31729507 113.18470001
v 26.01998138 15.99397182 113.28544617
v 25.52282524 20.16003609 68.06775665
v 25.39091682 23.04869270 68.06775665
v 26.04935265 21.30976486 112.63525391
v 25.92023849 28.54972458 115.27437592
v 25.99772072 27.36542892 114.50209808
v 25.03251648 25.96525383 68.06775665
v 26.01052666 25.54796982 113.61291504
v 26.01322556 25.27952194 113.50805664
v 26.01998138 24.64644432 113.28544617
v 26.03413200 23.33379936 112.92842865
v 25.61472702 29.71684647 116.22222137
v 25.77067947 29.23474884 115.80528259
v 24.66071320 27.48908043 68.06775665
v 25.90110588 28.66287804 115.35746765
v 24.77581215 31.26953888 117.87600708
v 24.86432076 31.14671135 117.72403717
v 23.75306892 28.90272713 68.06775665
v 25.08446312 30.81078148 117.32942963
v 24.46780014 31.65311050 118.38042450
v 22.31599808 29.95443344 68.06775665
v 24.01235962 32.12294769 119.07060242
v 20.82506180 33.62755203 122.25113678
v 21.49306870 33.50887299 121.90351868
v 20.52681160 30.39753723 68.06775665
v 22.44591331 33.17543793 121.05558777
v 22.96685791 32.90371704 120.46383667
v 19.59605217 30.34522247 68.06775665
v 20.26791763 33.65457916 122.33472443
v 19.62856483 33.60382462 122.17919159
v 19.07562065 33.49068832 121.85276031
v 18.80678749 33.41249847 121.64121246
v 15.53960514 30.78450966 117.29978180
v 15.82000923 31.20899200 117.80055237
v 17.16299248 29.17618942 68.06775665
v 16.17238235 31.65329742 118.38067627
v 16.70220947 32.19101334 119.17837524
v 14.64180565 27.23438263 114.42673492
v 14.64852524 27.84438896 114.79402161
v 15.06250381 27.06060028 95.33399963
v 14.83516216 29.10678101 115.70087433
v 14.90259075 29.34976196 115.90129852
v 15.02035046 29.70342827 116.21009064
v 15.26195812 30.27262115 116.75394440
v 14.58921909 20.85835075 112.61058044
v 14.60136318 22.86725807 112.83387756
v 14.87505436 23.68194771 95.33399963
v 14.60778046 23.51793289 112.97032166
v 14.62850094 25.44783211 113.57305145
v 14.61778641 16.19886589 113.22060394
v 14.59791565 18.16909409 112.76647949
v 15.24910259 17.59172440 68.06775665
v 14.59322739 18.82621193 112.68017578
v 15.11719418 20.48038101 68.06775665
v 14.63644981 14.30313301 113.95923615
v 15.60750294 14.67516422 68.06775665
v 14.64989090 12.76591969 114.81326294
v 19.01802063 26.95364189 14.52713490
v 18.59062195 26.75831223 14.50957394
v 18.17150307 26.49758339 14.48618603
v 17.80047989 26.19495964 14.45879745
v 19.45559692 27.09000206 14.53943539
v 19.78811455 27.15502930 14.54524708
v 20.24784279 27.19370842 14.54874897
v 20.70194244 27.17410278 14.54696083
v 21.02013969 27.12610245 14.54266167
v 22.65005493 26.35914040 14.47365475
v 22.57551384 26.41807747 14.47899628
v 22.17860794 26.68586922 14.50309181
v 21.89643478 26.83576202 14.51651764
v 21.46838188 27.00846672 14.53210449
v 22.93786049 26.10080528 14.45028973
v 23.81738091 24.80401611 14.33357620
v 23.72898674 24.99379349 14.35049629
v 24.46376991 25.26605034 40.80151749
v 23.46453094 25.45606804 14.39197350
v 23.15939522 25.86225128 14.42872715
v 24.83491135 21.26524353 14.19534492
v 24.67009163 22.28986931 14.21600533
v 25.00136948 22.77213097 40.80151749
v 24.36963654 23.38587189 14.25535965
v 23.92606163 24.55247307 14.31754208
v 24.87650108 20.69579697 14.19023418
v 24.73267746 18.66395950 14.20819759
v 24.86167336 19.68088722 14.19208908
v 23.27900505 14.92492390 14.41579342
v 23.56679535 15.34776688 14.37756443
v 24.39252663 15.09903240 40.80151749
v 23.26464462 14.90653610 14.41746235
v 23.60847282 15.41944027 14.37112713
v 23.81738663 15.83639336 14.33384418
v 23.93274498 16.10369110 14.31681252
v 22.31696320 14.03971004 14.49590206
v 22.70211411 14.32423782 14.47017479
v 22.95279884 14.55447865 14.44932842
v 20.69100571 13.46513844 14.54756451
v 21.14550400 13.54111958 14.54075432
v 21.58786774 13.67389107 14.52877331
v 21.90498543 13.80872726 14.51660728
v 20.36413383 13.44622231 14.54929256
v 20.18496704 13.44850159 14.54908371
v 19.90608597 13.46982670 14.54714680
v 19.45228386 13.55119514 14.53985310
v 17.98995781 14.28125477 14.47407150
v 18.04772377 14.23532009 14.47823620
v 18.30667686 14.05034351 14.49494076
v 18.71795273 13.81699753 14.51586914
v 19.14906502 13.63949013 14.53189564
v 17.68379402 14.55791664 14.44901562
v 17.35835075 14.92835712 14.41548729
v 17.16501236 15.20032692 14.39085579
v 16.17624855 15.37436771 40.80151749
v 16.90360069 15.66171360 14.34942341
v 16.01839066 18.13784027 14.22233105
v 16.07868004 17.89850235 14.23013973
v 15.63864994 17.86828804 40.80151749
v 16.46342659 16.71029663 14.28201008
v 16.82263374 15.83639336 14.33384418
v 15.76297283 19.95791245 14.19018936
v 15.85941315 18.95063210 14.20217705
v 15.28009987 23.36742210 68.06775665
v 15.68514538 23.05289841 40.80151749
v 16.57047462 24.20484352 14.29685974
v 16.17233086 23.07409477 14.24227619
v 16.07988358 22.74645042 14.23014736
v 15.65499783 26.30099297 68.06775665
v 16.24749184 25.54138565 40.80151749
v 17.22896385 25.53532028 14.39913368
v 14.32000923 30.62780762 119.52893066
v 14.32000923 30.04233742 118.74337769
v 14.32000923 10.01260853 119.52893066
v 14.32000923 29.61159325 118.19177246
v 14.32000923 10.59807968 118.74337769
v 14.32000923 11.68179131 117.32351685
v 14.32000923 28.43589401 116.65839386
v 14.32000923 28.25843811 116.44948578
v 14.32000923 27.43470001 115.65519714
v 14.32000923 26.30193138 114.97377777
v 14.32000923 25.97180176 114.80629730
v 14.32000923 13.55096626 115.41949463
v 14.32000923 13.25801373 115.61581421
v 14.32000923 12.47020626 116.34990692
v 14.32000923 24.22630692 114.09394073
v 14.32000923 16.77882195 113.97979736
v 14.32000923 15.04101181 114.63037109
v 14.32000923 22.42875099 113.64161682
v 14.32000923 21.43597412 113.50848389
v 14.32000923 17.87712097 113.70504761
v 14.32000923 19.66309738 113.47470093
v 28.32000923 25.06330109 136.25834656
v 28.32000923 25.97832298 135.34332275
v 28.32000923 28.54920197 137.92646790
v 28.32000923 23.81331253 136.59327698
v 28.32000923 23.81331253 116.60719299
v 28.32000923 16.82710457 116.60719299
v 28.32000923 15.99397087 113.28544617
v 28.32000923 12.09121513 115.27399445
v 28.32000923 20.32020950 112.60023499
v 28.32000923 24.64644623 113.28544617
v 28.32000923 25.06330109 116.94212341
v 28.32000923 28.54920197 115.27399445
v 28.32000923 25.97832298 117.85714722
v 28.32000923 26.31325150 119.10713196
v 28.32000923 14.32716560 134.09333801
v 28.32000923 14.66209507 135.34332275
v 28.32000923 12.09121513 137.92646790
v 28.32000923 15.57711697 136.25834656
v 28.32000923 15.99397087 139.91502380
v 28.32000923 16.82710457 136.59327698
v 28.32000923 20.32020950 140.60023499
v 28.32000923 24.64644623 139.91502380
v 28.32000923 12.32020855 125.05023193
v 28.32000923 8.99397087 118.37123871
v 28.32000923 11.54520798 125.25789642
v 28.32000923 7.00541782 122.27399445
v 28.32000923 10.97786903 125.82523346
v 28.32000923 6.32020855 126.60023499
v 28.32000923 10.77020931 126.60023499
v 28.32000923 7.00541782 130.92646790
v 28.32000923 10.97786903 127.37523651
v 28.32000923 8.99397087 134.82922363
v 28.32000923 11.54520798 127.94257355
v 28.32000923 12.32020855 128.15023804
v 28.32000923 15.57711697 116.94212341
v 28.32000923 14.66209507 117.85714722
v 28.32000923 14.32716560 119.10713196
v 28.32000923 13.09520912 125.25789642
v 28.32000923 26.97786903 127.37523651
v 28.32000923 27.54520798 127.94257355
v 28.32000923 26.31325150 134.09333801
v 28.32000923 28.32020950 128.15023804
v 28.32000923 13.09520912 127.94257355
v 28.32000923 13.66254807 127.37523651
v 28.32000923 13.87020874 126.60023499
v 28.32000923 13.66254807 125.82523346
v 28.32000923 26.77020836 126.60023499
v 28.32000923 26.97786903 125.82523346
v 28.32000923 27.54520798 125.25789642
v 28.32000923 31.64644623 134.82922363
v 28.32000923 29.09520912 127.94257355
v 28.32000923 33.63499832 130.92646790
v 28.32000923 29.66254807 127.37523651
v 28.32000923 34.32020950 126.60023499
v 28.32000923 29.87020874 126.60023499
v 28.32000923 33.63499832 122.27399445
v 28.32000923 29.66254807 125.82523346
v 28.32000923 31.64644623 118.37123871
v 28.32000923 29.09520912 125.25789642
v 28.32000923 28.32020950 125.05023193
v 18.87282753 9.51986980 135.50823975
v 18.62201118 8.99414730 134.82946777
v 16.19907951 34.19288635 124.71640778
v 16.47501183 34.32020950 126.60045624
v 15.95041370 33.61943817 122.22639465
v 15.85060501 32.87194061 120.39910889
v 15.82000923 31.86472130 118.68037415
v 15.99434185 33.78868103 122.77920532
v 16.85598564 6.46609259 128.61604309
v 16.48427963 6.32031918 126.65579987
v 16.19719124 6.44957447 124.70141602
v 16.08527946 6.61686516 123.73346710
v 15.95398808 7.00522947 122.27457428
v 15.82000923 8.77569675 118.68037415
v 15.82613659 8.28405094 119.44964600
v 15.83864784 7.96197367 120.02193451
v 15.92271423 7.15872192 121.82789612
v 18.28267479 8.34633350 133.85462952
v 18.11568642 8.05342960 133.34753418
v 17.57089996 7.21918583 131.53614807
v 17.40568161 7.00590944 130.92799377
v 17.08335114 6.65327644 129.63584900
v 20.49925804 14.39319420 139.28370667
v 20.04427528 12.65886307 138.31790161
v 19.86723518 12.08968449 137.92535400
v 19.45977592 10.92749882 136.98181152
v 21.08419228 18.24122810 140.44500732
v 21.13075829 18.95965958 140.53396606
v 21.16561508 20.32000160 140.60023499
v 20.87274551 16.38170433 140.03482056
v 20.81175423 15.99249077 139.91455078
v 20.54282570 14.58852005 139.37316895
v 20.92717934 23.87496758 140.14141846
v 21.05956459 22.69255447 140.39776611
v 21.16088104 20.82163429 140.59124756
v 19.98703766 28.17063332 138.19207764
v 20.21754837 27.37508965 138.69273376
v 20.62438011 25.66632271 139.53929138
v 20.81166649 24.64846230 139.91436768
v 18.71725655 31.45147705 135.09111023
v 18.87429619 31.11734772 135.51213074
v 19.45188904 29.73371696 136.96295166
v 19.86739922 28.55023003 137.92572021
v 17.46105766 33.56528091 131.13543701
v 17.57515717 33.41547394 131.55140686
v 18.13081360 32.56115341 133.39430237
v 18.62199974 31.64629364 134.82943726
v 16.48742676 34.32001114 126.67451477
v 16.58501053 34.30587769 127.23352814
v 16.98633766 34.07413864 129.21354675
v 17.40546417 33.63477707 130.92716980
v 23.32000923 12.32020855 125.05023193
v 23.32000923 13.09520912 125.25789642
v 23.32000923 13.66254807 125.82523346
v 23.32000923 13.87020874 126.60023499
v 23.32000923 13.66254807 127.37523651
v 23.32000923 13.09520912 127.94257355
v 23.32000923 12.32020855 128.15023804
v 23.32000923 11.54520798 127.94257355
v 23.32000923 10.97786903 127.37523651
v 23.32000923 10.77020931 126.60023499
v 23.32000923 10.97786903 125.82523346
v 23.32000923 11.54520798 125.25789642
v 23.32000923 28.32020950 125.05023193
v 23.32000923 29.09520912 125.25789642
v 23.32000923 29.66254807 125.82523346
v 23.32000923 29.87020874 126.60023499
v 23.32000923 29.66254807 127.37523651
v 23.32000923 29.09520912 127.94257355
v 23.32000923 28.32020950 128.15023804
v 23.32000923 27.54520798 127.94257355
v 23.32000923 26.97786903 127.37523651
v 23.32000923 26.77020836 126.60023499
v 23.32000923 26.97786903 125.82523346
v 23.32000923 27.54520798 125.25789642
v 33.32699203 23.78528976 135.56527710
v 29.31302834 23.81331253 135.59330750
v 33.32699203 16.85512733 135.56527710
v 29.31302834 16.82710457 135.59330750
v 33.32699203 15.35516453 134.06532288
v 29.31302834 15.32714176 134.09333801
v 33.32699203 15.35516453 119.13515472
v 29.31302834 15.32714176 119.10713196
v 29.31302834 23.81331253 117.60717010
v 33.32699203 23.78528976 117.63519287
v 29.31302834 16.82710457 117.60717010
v 33.32699203 16.85512733 117.63519287
v 33.32699203 25.28525352 119.13515472
v 29.31302834 25.31327629 119.10713196
v 33.32699203 25.28525352 134.06532288
v 29.31302834 25.31327629 134.09333801
v 34.32001114 24.28527641 134.06532288
v 34.32001114 16.35514069 134.06532288
v 34.32001114 24.28527641 119.13515472
v 34.32001114 16.35514069 119.13515472
v 34.32001114 16.60513115 134.49832153
v 34.32001114 16.42212677 134.31530762
v 34.32001114 16.85512733 134.56530762
v 34.32001114 23.78528976 134.56530762
v 34.32001114 24.03528595 134.49832153
v 34.32001114 24.21829033 134.31530762
v 34.32001114 24.03528595 118.70215607
v 34.32001114 24.21829033 118.88515472
v 34.32001114 23.78528976 118.63516998
v 34.32001114 16.85512733 118.63516998
v 34.32001114 16.60513115 118.70215607
v 34.32001114 16.42212677 118.88515472
v 23.32000923 25.63553047 125.05023193
v 23.32000923 25.22020912 126.60023499
v 23.32000923 25.63553047 128.15023804
v 23.32000923 26.77020836 129.28491211
v 23.32000923 28.32020950 129.70024109
v 23.32000923 29.87020874 129.28491211
v 23.32000923 31.00488663 128.15023804
v 23.32000923 31.42020798 126.60023499
v 23.32000923 31.00488663 125.05023193
v 23.32000923 29.87020874 123.91555786
v 23.32000923 28.32020950 123.50023651
v 23.32000923 26.77020836 123.91555786
v 16.38256073 30.48029137 128.82376099
v 16.19287109 30.96375275 128.21939087
v 16.68664169 28.32020950 129.70024109
v 16.66220856 27.67968178 129.63334656
v 16.63488579 27.39152908 129.55786133
v 16.17215919 25.63546944 128.15013123
v 16.21924973 25.73210335 128.30661011
v 16.29010963 25.89857674 128.53561401
v 16.46540642 26.45017624 129.07267761
v 16.52349281 26.69883919 129.24243164
v 16.01787949 25.38933372 127.61017609
v 15.94902515 25.31316566 127.35369110
v 15.50300980 25.49489212 125.32447052
v 15.54752445 25.39685822 125.56872559
v 15.70069313 25.23265266 126.32276154
v 15.75944519 25.22024918 126.58444977
v 15.30183887 26.66817284 123.97711182
v 15.36625290 26.07141685 124.46647644
v 15.39546871 25.89698601 124.66684723
v 15.45606804 25.63524818 125.05072021
v 15.25042820 28.66119003 123.51904297
v 15.24850082 28.32020569 123.50023651
v 15.25161076 27.88803291 123.53050995
v 15.25667763 27.62552261 123.57907867
v 15.28610802 26.89979553 123.84480286
v 15.29443264 26.77018929 123.91556549
v 15.26625633 29.32754898 123.66846466
v 15.27718735 29.57820320 123.76696014
v 15.34966469 30.44962502 124.34732819
v 15.32551765 30.23952103 124.16584778
v 15.29444313 29.87038231 123.91565704
v 15.61602402 31.34477997 125.92055511
v 15.48048019 31.08358955 125.19534302
v 15.45599937 31.00493050 125.05030823
v 15.43837833 30.93977737 124.94257355
v 15.92572212 31.34822464 127.26440430
v 15.85523701 31.39612007 126.98593140
v 15.76324272 31.42020798 126.60092926
v 15.67690754 31.39592552 126.21298981
v 16.12677765 31.08829498 127.99583435
v 16.68587494 28.43405724 129.69815063
v 16.67800140 28.70194435 129.67663574
v 16.61123848 29.43732643 129.49195862
v 16.57718086 29.65940285 129.39604187
v 16.53807259 29.87101555 129.28445435
v 16.43508530 30.30380249 128.98252869
v 23.32000923 15.00488758 125.05023193
v 23.32000923 13.87020874 123.91555786
v 23.32000923 12.32020855 123.50023651
v 23.32000923 10.77020931 123.91555786
v 23.32000923 9.63553047 125.05023193
v 23.32000923 9.22020912 126.60023499
v 23.32000923 9.63553047 128.15023804
v 23.32000923 10.77020931 129.28491211
v 23.32000923 12.32020855 129.70024109
v 23.32000923 13.87020874 129.28491211
v 23.32000923 15.00488758 128.15023804
v 23.32000923 15.42020893 126.60023499
v 16.38256073 14.48029137 128.82376099
v 16.19287109 14.96375275 128.21939087
v 16.68664169 12.32020855 129.70024109
v 16.66220856 11.67968178 129.63334656
v 16.63488579 11.39153004 129.55786133
v 16.17215919 9.63546848 128.15013123
v 16.21924973 9.73210335 128.30661011
v 16.29010963 9.89857674 128.53561401
v 16.46540642 10.45017719 129.07267761
v 16.52349281 10.69884014 129.24243164
v 16.01787949 9.38933468 127.61017609
v 15.94902515 9.31316566 127.35369110
v 15.50300980 9.49489117 125.32447052
v 15.54752445 9.39685726 125.56872559
v 15.70069313 9.23265171 126.32276154
v 15.75944519 9.22024918 126.58444977
v 15.30183887 10.66817284 123.97711182
v 15.36625290 10.07141685 124.46647644
v 15.39546871 9.89698601 124.66684723
v 15.45606804 9.63524818 125.05072021
v 15.25042820 12.66119099 123.51904297
v 15.24850082 12.32020473 123.50023651
v 15.25161076 11.88803291 123.53050995
v 15.25667763 11.62552357 123.57907867
v 15.28610802 10.89979553 123.84480286
v 15.29443264 10.77018929 123.91556549
v 15.26625633 13.32754803 123.66846466
v 15.27718735 13.57820320 123.76696014
v 15.34966469 14.44962406 124.34732819
v 15.32551765 14.23952198 124.16584778
v 15.29444313 13.87038231 123.91565704
v 15.61602402 15.34478092 125.92055511
v 15.48048019 15.08359051 125.19534302
v 15.45599937 15.00493050 125.05030823
v 15.43837833 14.93977833 124.94257355
v 15.92572212 15.34822464 127.26440430
v 15.85523701 15.39612103 126.98593140
v 15.76324272 15.42020893 126.60092926
v 15.67690754 15.39592648 126.21298981
v 16.12677765 15.08829498 127.99583435
v 16.68587494 12.43405819 129.69815063
v 16.67800140 12.70194530 129.67663574
v 16.61123848 13.43732738 129.49195862
v 16.57718086 13.65940189 129.39604187
v 16.53807259 13.87101555 129.28445435
v 16.43508530 14.30380344 128.98252869
v 33.32954407 24.53526497 135.36430359
v 29.31047249 24.56332397 135.39236450
v 33.32954407 25.08427620 134.81529236
v 29.31047249 25.11233521 134.84335327
v 33.32954407 15.55613995 134.81529236
v 29.31047249 15.52808189 134.84335327
v 33.32954407 16.10515404 135.36430359
v 29.31047249 16.07709503 135.39236450
v 33.32954407 16.10515404 117.83616638
v 29.31047249 16.07709503 117.80810547
v 33.32954407 15.55613995 118.38517761
v 29.31047249 15.52808189 118.35712433
v 33.32954407 25.08427620 118.38517761
v 29.31047249 25.11233521 118.35712433
v 33.32954407 24.53526497 117.83616638
v 29.31047249 24.56332397 117.80810547
v 33.82550430 24.46670151 135.24554443
v 33.82403564 23.78528976 135.42898560
v 34.18761826 24.28390884 134.92893982
v 34.18719482 23.78528976 135.06329346
v 33.82550430 24.96552277 134.74673462
v 34.18761826 24.64891815 134.56393433
v 33.82403564 25.14896584 134.06532288
v 34.18719482 24.78326035 134.06532288
v 33.82403564 16.85512733 135.42898560
v 34.18719482 16.85512733 135.06329346
v 33.82403564 25.14896584 119.13515472
v 34.18719482 24.78326035 119.13515472
v 33.82550430 15.67489433 134.74673462
v 33.82403564 15.49145126 134.06532288
v 34.18761826 15.99149990 134.56393433
v 34.18719482 15.85715675 134.06532288
v 33.82550430 16.17371559 135.24554443
v 34.18761826 16.35650826 134.92893982
v 33.82550430 24.96552277 118.45374298
v 34.18761826 24.64891815 118.63653564
v 33.82550430 24.46670151 117.95491791
v 34.18761826 24.28390884 118.27153015
v 33.82403564 23.78528976 117.77147675
v 34.18719482 23.78528976 118.13718414
v 33.82403564 15.49145126 119.13515472
v 34.18719482 15.85715675 119.13515472
v 33.82403564 16.85512733 117.77147675
v 34.18719482 16.85512733 118.13718414
v 33.82550430 16.17371559 117.95491791
v 34.18761826 16.35650826 118.27153015
v 33.82550430 15.67489433 118.45374298
v 34.18761826 15.99149990 118.63653564
v 28.81451416 25.23109055 118.28855896
v 28.81451416 24.63188553 117.68935394
v 28.45239830 24.81467819 117.37274933
v 28.81598473 25.44956207 119.10713196
v 28.45239830 25.54769516 118.10576630
v 28.45282364 25.81526756 119.10713196
v 28.45282364 23.81331253 117.10517883
v 28.81598473 23.81331253 117.47087860
v 28.81598473 16.82710457 117.47087860
v 28.45282364 16.82710457 117.10517883
v 28.81598473 25.44956207 134.09333801
v 28.45282364 25.81526756 134.09333801
v 28.81451416 16.00853157 117.68935394
v 28.81451416 15.40932751 118.28855896
v 28.45239830 15.09272194 118.10576630
v 28.45239830 15.82573986 117.37274933
v 28.45282364 14.82514858 119.10713196
v 28.81598473 15.19085503 119.10713196
v 28.81451416 24.63188553 135.51112366
v 28.81451416 25.23109055 134.91191101
v 28.45239830 25.54769516 135.09471130
v 28.81598473 23.81331253 135.72958374
v 28.45239830 24.81467819 135.82772827
v 28.45282364 23.81331253 136.09529114
v 28.81598473 15.19085503 134.09333801
v 28.45282364 14.82514858 134.09333801
v 28.81598473 16.82710457 135.72958374
v 28.45282364 16.82710457 136.09529114
v 28.81451416 15.40932751 134.91191101
v 28.81451416 16.00853157 135.51112366
v 28.45239830 15.82573986 135.82772827
v 28.45239830 15.09272194 135.09471130
v 14.71188641 7.93571377 125.11431885
v 15.01015949 7.82030725 126.92728424
v 14.91254330 8.43586349 126.38834381
v 14.75624943 8.64244461 125.42035675
v 14.71082592 8.76577759 125.10679626
v 14.59561348 8.08508015 124.21640015
v 14.60109043 9.27163887 124.26258087
v 14.42671585 8.56888103 122.44870758
v 14.57127857 9.49108410 124.00535583
v 14.33937359 9.28606987 120.77342224
v 14.50554848 10.24184036 123.37714386
v 14.48949718 10.53323650 123.20729065
v 14.32637501 9.57363892 120.24253845
v 14.45946693 11.44624996 122.86616516
v 14.45946693 27.44624901 122.86616516
v 14.45429611 27.77650261 122.80381775
v 14.48949718 26.53323746 123.20729065
v 14.45429611 11.77650452 122.80381775
v 14.45309067 12.74918556 122.78910065
v 14.46924114 13.58750725 122.98091888
v 14.64487553 15.61579609 124.61653900
v 14.50554848 26.24184036 123.37714386
v 14.68783665 15.79672050 124.94103241
v 14.57127857 25.49108505 124.00535583
v 14.82614613 16.12531662 125.87201691
v 14.75624943 24.64244461 125.42035675
v 14.71082592 24.76577759 125.10679626
v 14.60109043 25.27163887 124.26258087
v 14.48039532 13.90284729 123.10736084
v 14.52971172 14.73482800 123.61943054
v 14.55435085 14.99915123 123.85240173
v 14.45309067 28.74918556 122.78910065
v 14.46924114 29.58750725 122.98091888
v 14.35179710 31.52711487 121.12330627
v 14.48039532 29.90284729 123.10736084
v 14.52971172 30.73482895 123.61943054
v 14.45549488 32.19452286 122.81837463
v 14.55435085 30.99915123 123.85240173
v 14.50113487 32.34563065 123.33118439
v 14.64487553 31.61579704 124.61653900
v 14.71384907 32.70652771 125.12821960
v 14.68783665 31.79672050 124.94103241
v 14.82614613 32.12531662 125.87201691
v 15.01343060 32.82003403 126.94464874
v 15.84167194 29.72561646 130.45675659
v 15.90979576 28.80045700 130.69384766
v 16.72084427 31.24962425 133.17820740
v 14.88827324 32.18965912 126.24742126
v 14.96901131 32.22001648 126.70520020
v 15.11481667 32.80741501 127.46321106
v 15.07024193 32.18990326 127.23968506
v 15.14216423 32.12964630 127.59716797
v 15.53177929 32.60050201 129.29997253
v 15.34732342 31.80264091 128.53613281
v 15.41476631 31.64595795 128.82312012
v 16.02499580 32.14616394 131.08279419
v 15.60832787 31.03773117 129.59896851
v 16.14353943 32.01240921 131.46865845
v 15.66192436 30.81569862 129.80279541
v 15.80691814 30.00500107 130.33364868
v 15.91783047 28.46343803 130.72145081
v 15.91861343 28.32020950 130.72413635
v 15.89368153 27.51438522 130.63825989
v 15.86580181 27.15187073 130.54136658
v 15.75213528 26.28042221 130.13642883
v 16.87862206 9.62924862 133.60523987
v 15.69286442 25.96758842 129.91851807
v 15.51398945 25.27363968 129.22906494
v 15.44168377 25.06420517 128.93508911
v 15.23620319 24.63297844 128.04104614
v 15.14216423 16.12964821 127.59716797
v 15.16594410 24.53715515 127.71178436
v 14.91254330 24.43586159 126.38834381
v 14.88827324 16.18965912 126.24742126
v 14.97249413 24.42025948 126.72428131
v 14.96901131 16.22001839 126.70520020
v 15.07024193 16.18990517 127.23968506
v 15.34732342 15.80263996 128.53613281
v 15.41476631 15.64595890 128.82312012
v 15.60832787 15.03773212 129.59896851
v 15.91783047 12.46343708 130.72145081
v 15.91861343 12.32020855 130.72413635
v 15.66192436 14.81569862 129.80279541
v 15.80691814 14.00500011 130.33364868
v 15.84167194 13.72561550 130.45675659
v 15.90979576 12.80045795 130.69384766
v 15.89368153 11.51438427 130.63825989
v 15.86580181 11.15187073 130.54136658
v 16.70512962 9.36772728 133.13484192
v 15.75213528 10.28042221 130.13642883
v 16.13911629 8.62286663 131.45451355
v 15.69286442 9.96758747 129.91851807
v 15.63257122 8.11758995 129.69171143
v 15.51398945 9.27363873 129.22906494
v 15.44168377 9.06420517 128.93508911
v 15.39634895 7.95046139 128.74568176
v 15.23620319 8.63297939 128.04104614
v 15.16594410 8.53715420 127.71178436
v 14.97249413 8.42025948 126.72428131
v 19.76370430 22.43837357 139.67494202
v 17.09996033 19.94404411 134.18048096
v 19.86896706 20.76791000 139.85441589
v 19.83767128 19.10543251 139.80128479
v 19.62615967 23.49410057 139.43713379
v 19.31156349 25.09352493 138.87857056
v 18.88887978 26.61920929 138.09327698
v 18.64938927 27.32951736 137.62884521
v 18.09339142 28.72512627 136.48864746
v 17.49329376 29.96051216 135.14280701
v 17.49176788 10.67704773 135.13920593
v 18.10158539 11.93386078 136.50613403
v 18.70885658 13.47972202 137.74555969
v 19.18156815 15.02823162 138.64147949
v 19.22683144 15.20263004 138.72447205
v 19.56960487 16.80368805 139.33825684
v 19.78928947 18.46397591 139.71876526
v 17.33013725 30.25884056 134.75224304
v 16.30661011 27.68317413 129.71961975
v 16.28163719 27.39562225 129.64599609
v 16.17928123 26.69944191 129.33612061
v 16.12558174 26.44718170 129.16804504
v 15.96229935 25.88146782 128.63122559
v 15.89581680 25.70860481 128.40036011
v 15.70551205 25.34758949 127.69258881
v 15.63999748 25.26557350 127.43019867
v 15.45845890 25.15914345 126.63917542
v 15.40184212 25.16852760 126.36901855
v 15.25334644 25.32917213 125.58864594
v 15.20990849 25.42784500 125.33547211
v 15.10428429 25.83678627 124.65351868
v 15.07537842 26.01506615 124.44576263
v 15.01119804 26.62629509 123.93871307
v 14.99540424 26.86375809 123.80173492
v 14.96568489 27.60791779 123.52687073
v 14.95934010 28.66982460 123.46482849
v 14.96054173 27.87708664 123.47666931
v 14.97538567 29.35309792 123.61930084
v 14.98642254 29.61012268 123.72119141
v 15.03487396 30.28803444 124.13419342
v 15.05891514 30.50319862 124.32225800
v 15.14656067 31.00383377 124.93945312
v 15.18786621 31.14990807 125.20158386
v 15.31992722 31.41180038 125.95305634
v 15.55040169 31.45098686 127.05269623
v 15.37887096 31.46105576 126.25556946
v 14.95298481 31.88969612 126.27416229
v 15.61777401 31.39770889 127.33867645
v 15.80867100 31.12026978 128.08547974
v 15.87100124 30.98966599 128.31216431
v 16.04863358 30.48952103 128.92012024
v 16.22871971 29.65635681 129.48744202
v 16.09746552 30.30895805 129.07844543
v 15.12449932 31.88165665 127.19036865
v 15.19178391 31.82253838 127.51958466
v 15.38221169 31.51110649 128.38108826
v 15.44432163 31.36375809 128.64321899
v 15.62114620 30.79730606 129.34814453
v 15.66970921 30.59216690 129.53227234
v 15.80013180 29.84865570 130.00914001
v 15.83117104 29.59403038 130.11912537
v 15.89174557 28.75467873 130.33016968
v 15.89886475 28.44975471 130.35467529
v 16.25998116 29.43339348 129.58152771
v 16.32101822 28.69963074 129.76174927
v 16.32819366 28.43333244 129.78265381
v 16.04600525 28.43896103 130.01805115
v 16.03915977 28.71853447 129.99603271
v 15.98085308 29.48946571 129.80595398
v 15.95092487 29.72401428 129.70663452
v 15.82484531 30.41167068 129.27426147
v 15.77777576 30.60229301 129.10665894
v 15.60589886 31.13132858 128.46224976
v 15.54536247 31.26979065 128.22171021
v 15.35928917 31.56475639 127.42855072
v 15.29338264 31.62176132 127.12460327
v 15.12501812 31.63420296 126.27702332
v 15.06696033 31.58274651 125.95526886
v 14.93642807 31.30724525 125.15592957
v 14.89544678 31.15324974 124.87710571
v 14.80815887 30.62499428 124.22066498
v 14.78411674 30.39786339 124.02067566
v 14.73548126 29.68213463 123.58154297
v 14.72436142 29.41075897 123.47322845
v 14.70816135 28.68934059 123.30902100
v 14.70937634 27.85235214 123.32160950
v 14.71457291 27.56815529 123.37497711
v 14.74451923 26.78244781 123.66717529
v 14.76038456 26.53173447 123.81280518
v 14.82459545 25.88649559 124.35201263
v 14.85340595 25.69835854 124.57297516
v 14.95826435 25.26715279 125.29834747
v 15.00123501 25.16328430 125.56765747
v 15.14761543 24.99500275 126.39767456
v 15.20324135 24.98567772 126.68495941
v 15.38100147 25.10004997 127.52580261
v 15.44493389 25.18736458 127.80455017
v 15.62996864 25.57037354 128.55580139
v 15.69436169 25.75333977 128.80061340
v 15.85190773 26.35082626 129.36904907
v 15.90351391 26.61672592 129.54675293
v 16.00156021 27.34922600 129.87396240
v 16.02541161 27.65135002 129.95161438
v 14.89396667 31.83272171 125.92687988
v 14.76154900 31.53346062 125.06480408
v 14.72006416 31.36718369 124.76422119
v 14.63188934 30.79825592 124.05651855
v 14.60765743 30.55393410 123.84085846
v 14.55873680 29.78437805 123.36714172
v 14.54757404 29.49263573 123.25025177
v 14.53133011 28.71706009 123.07299042
v 14.53254700 27.81721878 123.08658600
v 14.53775597 27.51168633 123.14419556
v 14.56781483 26.66700363 123.45954895
v 14.58376694 26.39744949 123.61666107
v 14.64847088 25.70342255 124.19813538
v 14.67756176 25.50086403 124.43635559
v 14.78367138 25.03554344 125.21835327
v 14.82724285 24.92291832 125.50875092
v 14.97597218 24.73798943 126.40445709
v 15.03260422 24.72623253 126.71484375
v 15.21397018 24.84339333 127.62501526
v 15.27934647 24.93522835 127.92749786
v 15.46904087 25.34202194 128.74530029
v 15.53523731 25.53759384 129.01280212
v 15.69765949 26.17986870 129.63656616
v 15.75102425 26.46713829 129.83245850
v 15.85266781 27.26194954 130.19456482
v 15.87744999 27.59086800 130.28077698
v 16.30661011 11.68317318 129.71961975
v 16.28163719 11.39562225 129.64599609
v 16.17928123 10.69944286 129.33612061
v 16.12558174 10.44718075 129.16804504
v 15.96229935 9.88146782 128.63122559
v 15.89581680 9.70860481 128.40036011
v 15.70551205 9.34758854 127.69258881
v 15.63999748 9.26557350 127.43019867
v 15.45845890 9.15914345 126.63917542
v 15.40184212 9.16852665 126.36901855
v 15.25334644 9.32917213 125.58864594
v 15.20990849 9.42784500 125.33547211
v 15.10428429 9.83678722 124.65351868
v 15.07537842 10.01506710 124.44576263
v 15.01119804 10.62629509 123.93871307
v 14.99540424 10.86375809 123.80173492
v 14.96568489 11.60791779 123.52687073
v 14.95934010 12.66982460 123.46482849
v 14.96054173 11.87708664 123.47666931
v 14.97538567 13.35309792 123.61930084
v 14.98642254 13.61012268 123.72119141
v 15.03487396 14.28803444 124.13419342
v 15.05891514 14.50319958 124.32225800
v 15.14656067 15.00383472 124.93945312
v 15.18786621 15.14990807 125.20158386
v 15.31992722 15.41179943 125.95305634
v 15.55040169 15.45098591 127.05269623
v 15.37887096 15.46105576 126.25556946
v 14.95298481 15.88969612 126.27416229
v 15.61777401 15.39770889 127.33867645
v 15.80867100 15.12026882 128.08547974
v 15.87100124 14.98966599 128.31216431
v 16.04863358 14.48952007 128.92012024
v 16.22871971 13.65635681 129.48744202
v 16.09746552 14.30895710 129.07844543
v 15.12449932 15.88165665 127.19036865
v 15.19178391 15.82253838 127.51958466
v 15.38221169 15.51110554 128.38108826
v 15.44432163 15.36375713 128.64321899
v 15.62114620 14.79730701 129.34814453
v 15.66970921 14.59216690 129.53227234
v 15.80013180 13.84865475 130.00914001
v 15.83117104 13.59403038 130.11912537
v 15.89174557 12.75467873 130.33016968
v 15.89886475 12.44975567 130.35467529
v 16.25998116 13.43339348 129.58152771
v 16.32101822 12.69963074 129.76174927
v 16.32819366 12.43333244 129.78265381
v 16.04600525 12.43896008 130.01805115
v 16.03915977 12.71853447 129.99603271
v 15.98085308 13.48946571 129.80595398
v 15.95092487 13.72401428 129.70663452
v 15.82484531 14.41166973 129.27426147
v 15.77777576 14.60229206 129.10665894
v 15.60589886 15.13132858 128.46224976
v 15.54536247 15.26979160 128.22171021
v 15.35928917 15.56475735 127.42855072
v 15.29338264 15.62176037 127.12460327
v 15.12501812 15.63420200 126.27702332
v 15.06696033 15.58274555 125.95526886
v 14.93642807 15.30724525 125.15592957
v 14.89544678 15.15324974 124.87710571
v 14.80815887 14.62499428 124.22066498
v 14.78411674 14.39786243 124.02067566
v 14.73548126 13.68213463 123.58154297
v 14.72436142 13.41075993 123.47322845
v 14.70816135 12.68934059 123.30902100
v 14.70937634 11.85235214 123.32160950
v 14.71457291 11.56815624 123.37497711
v 14.74451923 10.78244781 123.66717529
v 14.76038456 10.53173351 123.81280518
v 14.82459545 9.88649464 124.35201263
v 14.85340595 9.69835949 124.57297516
v 14.95826435 9.26715279 125.29834747
v 15.00123501 9.16328430 125.56765747
v 15.14761543 8.99500275 126.39767456
v 15.20324135 8.98567867 126.68495941
v 15.38100147 9.10004997 127.52580261
v 15.44493389 9.18736458 127.80455017
v 15.62996864 9.57037449 128.55580139
v 15.69436169 9.75333881 128.80061340
v 15.85190773 10.35082626 129.36904907
v 15.90351391 10.61672497 129.54675293
v 16.00156021 11.34922504 129.87396240
v 16.02541161 11.65134907 129.95161438
v 14.89396667 15.83272171 125.92687988
v 14.76154900 15.53345966 125.06480408
v 14.72006416 15.36718464 124.76422119
v 14.63188934 14.79825592 124.05651855
v 14.60765743 14.55393314 123.84085846
v 14.55873680 13.78437805 123.36714172
v 14.54757404 13.49263477 123.25025177
v 14.53133011 12.71706104 123.07299042
v 14.53254700 11.81721878 123.08658600
v 14.53775597 11.51168728 123.14419556
v 14.56781483 10.66700363 123.45954895
v 14.58376694 10.39744949 123.61666107
v 14.64847088 9.70342255 124.19813538
v 14.67756176 9.50086403 124.43635559
v 14.78367138 9.03554344 125.21835327
v 14.82724285 8.92291832 125.50875092
v 14.97597218 8.73798847 126.40445709
v 15.03260422 8.72623253 126.71484375
v 15.21397018 8.84339237 127.62501526
v 15.27934647 8.93522835 127.92749786
v 15.46904087 9.34202099 128.74530029
v 15.53523731 9.53759480 129.01280212
v 15.69765949 10.17986870 129.63656616
v 15.75102425 10.46713734 129.83245850
v 15.85266781 11.26194859 130.19456482
v 15.87744999 11.59086800 130.28077698
v 15.24598408 31.77056694 118.74496460
v 15.24598408 31.12018585 117.87232208
v 15.07000923 31.69900513 118.79405975
v 15.07000923 31.05269051 117.92687225
v 14.75934887 31.50243759 118.92890930
v 14.75934887 30.86728859 118.07669830
v 14.52097130 31.24626541 119.10465240
v 14.52097130 30.62566566 118.27196503
v 14.43418980 31.10115433 119.20420074
v 14.43418980 30.48879814 118.38257599
v 15.07000923 8.94141197 118.79405975
v 15.24598408 8.86985111 118.74496460
v 15.24902439 8.37882042 119.51625061
v 14.52097130 9.39415264 119.10465240
v 14.75934887 9.13798046 118.92890930
v 14.76078033 8.65758038 119.69056702
v 14.43659019 9.07740211 119.94576263
v 14.43418980 9.53926373 119.20420074
v 15.25977993 8.05715084 120.09061432
v 15.34145260 7.25581217 121.90563965
v 15.50679493 6.71834040 123.82295227
v 15.62219524 6.55451250 124.79686737
v 15.92040825 6.43481493 126.76147461
v 16.30831146 6.59289598 128.72726440
v 17.05513382 7.36549425 131.64212036
v 16.54586601 6.78703356 129.74732971
v 17.62332153 8.20901012 133.44006348
v 17.79723930 8.50361633 133.94184875
v 18.41088295 9.67840672 135.57328796
v 19.62440300 12.79268265 138.32801819
v 19.01964760 11.07892704 137.02075195
v 20.09420586 14.50256443 139.26998901
v 20.47927666 16.45741844 140.00085449
v 20.13914871 14.69481087 139.35710144
v 20.69706345 18.28207207 140.39936829
v 20.77601624 20.81170845 140.54133606
v 20.74500656 18.98651314 140.48573303
v 20.67170715 22.64606094 140.35348511
v 20.53535843 23.80624199 140.10446167
v 20.22326469 25.56627083 139.51882935
v 19.80341339 27.24917030 138.69389343
v 19.56524467 28.03451538 138.20510864
v 19.01147842 29.58213043 137.00225830
v 18.41240883 30.95881653 135.57710266
v 18.24927330 31.29251289 135.16244507
v 17.63908195 32.40539551 133.48635864
v 17.05957794 33.26907349 131.65728760
v 16.94044685 33.42147827 131.24327087
v 16.44449997 33.94327545 129.32518005
v 16.02541733 34.18798065 127.34143829
v 15.92368793 34.20541000 126.78026581
v 15.62414932 34.08788681 124.81195068
v 14.77066612 8.34287357 120.25793457
v 14.85147190 7.55910587 122.05147552
v 15.01905632 7.03421068 123.94658661
v 15.13683319 6.87475967 124.90914917
v 15.44230175 6.76004505 126.85016632
v 15.84057331 6.91784382 128.79074097
v 16.08463478 7.10955811 129.79685974
v 16.60782814 7.67869759 131.66383362
v 17.19117737 8.50630856 133.43284607
v 17.36962318 8.79497147 133.92608643
v 17.99877930 9.94469070 135.52833557
v 18.62219429 11.31324863 136.94805908
v 19.24078941 12.98583221 138.22883606
v 19.72087479 14.65310383 139.15089417
v 19.76678276 14.84048843 139.23614502
v 20.11408806 16.55801964 139.86587524
v 20.33636856 18.33533669 140.25555420
v 20.38528824 19.02139473 140.33999634
v 20.41692924 20.79884720 140.39436340
v 20.31049156 22.58530235 140.21070862
v 20.17133331 23.71537209 139.96719360
v 19.85269165 25.43022156 139.39437866
v 19.42376518 27.07079315 138.58706665
v 19.18030739 27.83679199 138.10847473
v 18.61383247 29.34732628 136.92993164
v 18.00034142 30.69260406 135.53208923
v 17.83315659 31.01898384 135.12506104
v 17.20734978 32.10861588 133.47836304
v 16.61239243 32.95597076 131.67877197
v 16.49002266 33.10573959 131.27105713
v 15.98048687 33.61954498 129.38055420
v 15.55005932 33.86226654 127.42289734
v 15.44566631 33.88015747 126.86872101
v 15.13883018 33.76758194 124.92405701
v 15.41378403 33.68978119 122.86270142
v 14.92451572 33.37952042 122.99744415
v 15.36928082 33.52167511 122.30650330
v 14.87950039 33.21528625 122.44767761
v 15.27083969 32.77647400 120.46939850
v 14.78130722 32.48655701 120.63216400
v 14.44714260 8.77483845 120.49794006
v 14.52971649 8.02097225 122.24250031
v 14.69857121 7.51492643 124.08497620
v 14.81676483 7.36039495 125.02076721
v 15.12268066 7.24654102 126.90838623
v 15.52103996 7.39350748 128.79719543
v 15.76509190 7.57509184 129.77738953
v 16.28835487 8.11722469 131.59840393
v 16.87210464 8.90896320 133.32678223
v 17.05075645 9.18569469 133.80924988
v 17.68097878 10.28998852 135.37825012
v 18.30595207 11.60774517 136.77079773
v 18.92656326 13.22163296 138.02893066
v 19.40850830 14.83302402 138.93577576
v 19.45460510 15.01425362 139.01966858
v 19.80342102 16.67627525 139.63958740
v 20.02672958 18.39738274 140.02340698
v 20.07588387 19.06194496 140.10659790
v 20.10767365 20.78391457 140.16015625
v 20.00073051 22.51445198 139.97921753
v 19.86092567 23.60880470 139.73936462
v 19.54087639 25.26853561 139.17539978
v 19.11021614 26.85481071 138.38114929
v 18.86586380 27.59474182 137.91062927
v 18.29756737 29.05210114 136.75300598
v 17.68254471 30.34742546 135.38191223
v 17.51502419 30.66121101 134.98307800
v 16.88829422 31.70702553 133.37129211
v 16.29291916 32.51770782 131.61299133
v 16.17051315 32.66063309 131.21505737
v 15.66094780 33.14944839 129.37173462
v 15.23049068 33.37776566 127.46562958
v 15.12604809 33.39370728 126.92644501
v 14.81876850 33.28189468 125.03525543
v 14.60347176 32.90668869 123.16223907
v 14.55806160 32.74844360 122.62773895
v 14.45819664 32.04731750 120.86205292
v 14.66445637 30.37286186 117.61283875
v 15.05688572 30.63949394 117.41006470
v 14.40874577 30.01616096 117.88410187
v 14.65792942 29.16626930 116.05331421
v 14.61841393 28.93486786 115.85905457
v 14.51342106 27.88276291 115.07033539
v 14.50248337 26.63478851 114.33869934
v 14.50106621 26.28652573 114.16494751
v 14.49046803 24.44327927 113.43420410
v 14.47905922 22.54499626 112.97954559
v 14.47488117 21.49725723 112.84751892
v 14.47375965 19.62703133 112.81416321
v 14.49917316 14.74694252 113.98313141
v 14.39545441 16.64503860 113.52952576
v 14.48797131 16.58238983 113.31867218
v 14.39225197 17.78535080 113.25440216
v 14.48091412 17.74225044 113.04275513
v 14.38900757 19.63857841 113.02566528
v 14.38951588 21.47764015 113.05909729
v 14.39140987 22.50782967 113.19123077
v 14.39658833 24.37412834 113.64447021
v 14.40140533 26.18651962 114.36874390
v 14.40205002 26.52906227 114.54042053
v 14.40702915 27.74088669 115.25553131
v 14.45519924 28.72728348 116.04024506
v 14.47350883 28.94491768 116.23669434
v 14.40054417 14.84043598 114.18891144
v 14.50464058 13.17584610 114.80379486
v 14.40303135 13.29492378 114.99923706
v 14.51085567 12.82235527 115.02732086
v 14.40586090 12.96040535 115.21379852
v 14.60104847 11.82039165 115.76520538
v 14.44718456 12.02088165 115.94560242
v 14.80864620 10.79888248 116.65447998
v 14.54429436 11.05292892 116.84698486
v 15.24598408 9.52023125 117.87232208
v 15.07000923 9.58772659 117.92687225
v 14.75934887 9.77312946 118.07669830
v 14.52097130 10.01475239 118.27196503
v 14.35888767 28.69717789 116.44193268
v 14.35419655 28.49832726 116.24008942
v 14.34192467 27.59006310 115.45240021
v 14.34066200 26.41708183 114.75407410
v 14.34049892 26.08064651 114.58448792
v 14.33927822 24.30117989 113.86627960
v 14.33796692 22.46876907 113.41369629
v 14.33748817 21.45705223 113.28114319
v 14.33735943 19.65069580 113.24755859
v 14.33817959 17.83067322 113.47695923
v 14.33899021 16.71107292 113.75177765
v 14.34028053 14.93935013 114.40661621
v 14.34091091 13.42113590 115.20639801
v 14.34162807 13.10703373 115.41186523
v 14.35214710 12.24062538 116.14332581
v 14.37716961 11.35490322 117.07581329
v 14.43418980 10.15161991 118.38257599
v 3.31999922 1.91161597 6.60067034
v 0.00000000 0.00011548 6.60070038
v 40.63999939 0.00011548 6.60070038
v 38.35923004 2.51161671 6.60065556
v 37.91999817 2.07238650 6.60066319
v 37.31999969 1.91161597 6.60067034
v 36.71999741 2.07238650 6.60066319
v 4.51999903 3.11161566 6.60064793
v 4.35923052 2.51161671 6.60065556
v 3.92000008 2.07238650 6.60066319
v 37.91999817 36.48938751 6.60006714
v 37.31999969 36.32861710 6.60006714
v 37.31999969 4.31161547 6.60062599
v 2.71999836 2.07238650 6.60066319
v 2.28076792 2.51161671 6.60065556
v 2.11999941 3.11161566 6.60064793
v 0.00000000 40.64011383 6.59999275
v 2.11999941 37.52861404 6.60004473
v 2.28076792 38.12861633 6.60003710
v 3.92000008 38.56784821 6.60002995
v 12.31999874 40.64011383 6.59999275
v 3.31999922 38.72861481 6.60002995
v 2.71999836 38.56784821 6.60002995
v 37.91999817 4.15084696 6.60063314
v 38.35923004 3.71161652 6.60064077
v 38.52000046 3.11161566 6.60064793
v 37.91999817 38.56784821 6.60002995
v 38.35923004 38.12861633 6.60003710
v 38.52000046 37.52861404 6.60004473
v 38.35923004 36.92861557 6.60005951
v 8.44497967 17.82541847 6.60038757
v 8.26959419 19.65577698 6.60035753
v 3.92000008 36.48938751 6.60006714
v 4.35923052 36.92861557 6.60005951
v 11.07841873 29.81670952 6.60017872
v 2.71999836 4.15084696 6.60063314
v 12.38956451 9.25687027 6.60054398
v 11.44813538 10.32169342 6.60052156
v 36.28076935 2.51161671 6.60065556
v 3.31999922 4.31161547 6.60062599
v 3.92000008 4.15084696 6.60063314
v 4.35923052 3.71161652 6.60064077
v 37.31999969 38.72861481 6.60002995
v 36.71999741 38.56784821 6.60002995
v 2.28076792 36.92861557 6.60005951
v 2.71999836 36.48938751 6.60006714
v 3.31999922 36.32861710 6.60006714
v 2.28076792 3.71161652 6.60064077
v 8.83040142 15.97597218 6.60042477
v 8.29819584 21.49695778 6.60032797
v 8.53764343 23.36439323 6.60029030
v 8.98946762 25.22716904 6.60026073
v 4.35923052 38.12861633 6.60003710
v 4.51999903 37.52861404 6.60004473
v 12.31999874 31.31317902 6.60015631
v 11.74072647 30.67860985 6.60016394
v 9.61396980 27.00084686 6.60023117
v 10.28571510 28.50167274 6.60020113
v 10.89787865 11.09060478 6.60050678
v 10.17954540 12.34871197 6.60048437
v 9.45445156 14.04721737 6.60045433
v 30.11323738 11.69576454 6.60049915
v 29.99825096 11.49931145 6.60049915
v 36.71999741 4.15084696 6.60063314
v 29.18422318 10.31187534 6.60052156
v 36.28076935 3.71161652 6.60064077
v 29.71267891 29.59423256 6.60018635
v 30.44056702 28.33163452 6.60020876
v 36.71999741 36.48938751 6.60006714
v 30.82209206 27.49300957 6.60022354
v 31.48889351 25.73991394 6.60025311
v 31.99872971 23.87960434 6.60028315
v 32.29366684 22.04482460 6.60032034
v 32.36942673 21.00865364 6.60033512
v 32.34236908 19.15089035 6.60036516
v 32.10922623 17.31292725 6.60040236
v 28.83952713 30.74864578 6.60016394
v 36.28076935 36.92861557 6.60005951
v 28.31999969 31.31320000 6.60015631
v 36.11999893 37.52861404 6.60004473
v 36.28076935 38.12861633 6.60003710
v 21.45576668 6.01750040 6.60059595
v 20.45627594 5.96009207 6.60059595
v 28.24047279 9.24691486 6.60054398
v 27.50570107 8.57615662 6.60055113
v 26.36290359 7.73687553 6.60056639
v 36.11999893 3.11161566 6.60064793
v 22.83126640 6.24616337 6.60059595
v 31.66904640 15.47506046 6.60043192
v 31.45956039 14.81221676 6.60044718
v 30.83134460 13.16884995 6.60046959
v 19.05397034 6.03165197 6.60059595
v 17.68083763 6.27651739 6.60059595
v 16.75678253 6.54422379 6.60058880
v 25.13689423 7.05347300 6.60058117
v 24.17948914 6.64879274 6.60058880
v 15.45199680 7.07809353 6.60058117
v 14.22851658 7.76824808 6.60056639
v 13.45907497 8.31474495 6.60055876
v 0.00000000 40.63999939 0.00000000
v 0.00000000 0.00000000 0.00070035
v 12.31999874 40.63999939 0.00000000
v 40.63999939 0.00000000 0.00070035
v 36.28076935 36.92858887 5.00005484
v 36.71999741 36.48935699 5.00006247
v 28.31999969 30.64008713 5.00016642
v 3.04799891 36.35982132 5.00006962
v 3.31999922 36.32858658 5.00006962
v 3.04799891 4.28035498 5.00062847
v 12.31999874 30.64008713 5.00016642
v 3.31999922 4.31158781 5.00062847
v 3.92000008 36.48935699 5.00006247
v 4.35923052 36.92858887 5.00005484
v 12.31999874 37.59008789 5.00004721
v 4.51999903 37.52858734 5.00004721
v 4.51842117 37.59008789 5.00004721
v 37.59199905 4.28035498 5.00062847
v 37.31999969 36.32858658 5.00006962
v 37.59199905 36.35982132 5.00006962
v 4.35923052 3.71158862 5.00063610
v 3.92000008 4.15081882 5.00062847
v 36.11999893 37.52858734 5.00004721
v 28.31999969 37.59209061 5.00004721
v 36.12168121 37.59209061 5.00004721
v 36.12168121 3.04808831 5.00065088
v 4.51831722 3.04808831 5.00065088
v 36.11999893 3.11158776 5.00065088
v 4.51999903 3.11158776 5.00065088
v 36.28076935 3.71158862 5.00063610
v 36.71999741 4.15081882 5.00062847
v 37.31999969 4.31158781 5.00062847
v 16.50313187 25.28497505 11.40841103
v 22.69252396 30.64013290 7.55107403
v 22.10547638 28.93970490 8.95184994
v 22.77220345 28.67805862 8.94618034
v 14.64475918 30.64012146 6.88801718
v 12.31999874 30.64011574 6.61438704
v 13.98884773 28.77573776 7.20273685
v 14.72877121 29.53609657 7.20590353
v 15.54336452 30.18836594 7.20859337
v 16.04867744 30.64012527 7.16575241
v 16.30774117 30.64012718 7.22074509
v 21.40828514 29.11799812 8.95569515
v 21.07604980 30.64013672 7.75613642
v 20.91510582 29.19049263 8.95725918
v 20.17881203 30.64013672 7.78084993
v 20.20709419 29.22020149 8.95791531
v 19.96912193 30.64013672 7.77617836
v 19.49239540 29.16167450 8.95663357
v 18.04421234 30.64013290 7.56792736
v 18.97694778 29.06344414 8.95451736
v 17.59492683 30.64013100 7.48609734
v 18.29447937 28.85631752 8.95003986
v 16.49764252 30.64012718 7.26115704
v 17.63082695 28.56140709 8.94365501
v 16.98125839 28.16904640 8.93516064
v 22.26842690 30.64013290 7.62135553
v 21.81160736 30.64013481 7.68513250
v 21.70769691 30.64013481 7.69767189
v 23.20921135 28.45244217 8.94130039
v 24.21920586 30.64012718 7.24481058
v 23.76811218 30.64012909 7.34026718
v 26.12555122 29.33479309 7.20506907
v 24.96745110 30.64012527 7.08703709
v 25.33248711 30.01619530 7.20788527
v 24.52619553 30.64012527 7.17954350
v 24.45931053 30.59534836 7.21025467
v 28.31999969 30.64011574 6.61438704
v 11.77010536 24.39362717 7.18484068
v 15.66512299 23.22608948 11.32883835
v 15.38077927 22.09569931 11.30537701
v 15.23572445 21.00241661 11.29390335
v 15.21855545 19.93592072 11.29259205
v 15.32418919 18.86936569 11.30094337
v 15.97945786 16.52636909 11.35659981
v 15.56337357 17.76178169 11.32041931
v 17.35381699 14.22747135 11.47363377
v 16.98189926 14.63489246 11.45006752
v 16.75956726 14.93441105 11.43278217
v 16.45737457 15.44181156 11.40373993
v 19.85643005 13.03633404 11.54280472
v 19.34851646 13.12501907 11.53765583
v 19.00813866 13.22147465 11.53203106
v 18.52338600 13.41548824 11.52072144
v 18.06019402 13.67060947 11.50596905
v 17.76722527 13.87335968 11.49419689
v 23.28229904 14.22369480 11.47385693
v 22.99734306 13.97091675 11.48852730
v 22.56134033 13.65897179 11.50664711
v 22.09742546 13.40645218 11.52124977
v 21.74087334 13.25909615 11.52983284
v 21.24418831 13.11402988 11.53828907
v 20.73555756 13.03122616 11.54310226
v 20.36949539 13.01060772 11.54432487
v 24.03447151 15.17553234 11.41894627
v 23.98632240 15.09668732 11.42346096
v 23.65506363 14.63111019 11.45029068
v 24.39955521 15.90505695 11.38091850
v 24.84906387 17.03279686 11.33983612
v 24.98683929 17.45297432 11.32797432
v 25.26343536 18.56670761 11.30513096
v 25.40461731 19.64237976 11.29391766
v 25.42086983 20.71848679 11.29262161
v 25.37531090 21.32168388 11.29616833
v 25.19514847 22.40372467 11.31054020
v 24.86868668 23.55084610 11.33795834
v 24.39245605 24.75130653 11.38138008
v 11.38424206 22.83661842 7.18160725
v 11.18217945 21.29134941 7.18004274
v 11.15811253 19.77220154 7.17988586
v 11.30585480 18.25954437 7.18107080
v 11.63355541 16.71943855 7.18379021
v 12.17662144 15.08147144 7.18884182
v 12.80565929 13.64257908 7.19543552
v 13.35400105 12.70118332 7.19950342
v 13.76915836 12.13075066 7.20192480
v 14.47454548 11.34449196 7.20523310
v 15.27064133 10.65210247 7.20812368
v 15.84082413 10.25183964 7.20978546
v 16.74549103 9.74701691 7.21186399
v 17.70554543 9.35811806 7.21345854
v 18.38385773 9.16352081 7.21424818
v 19.39235306 8.98537731 7.21497822
v 20.41967964 8.93340492 7.21518707
v 21.15206146 8.97508907 7.21501541
v 22.16219902 9.14143753 7.21433735
v 23.15194130 9.43411922 7.21314526
v 23.85680580 9.72904110 7.21193838
v 24.76320648 10.22886753 7.20987463
v 25.61056900 10.84387112 7.20732641
v 26.15802002 11.33715725 7.20526266
v 26.86510277 12.12348557 7.20195484
v 27.48052406 13.00582695 7.19819212
v 27.56818008 13.15264988 7.19755888
v 28.14433670 14.31192970 7.19223928
v 28.70435524 15.73771286 7.18650246
v 28.88583183 16.29886055 7.18484831
v 29.26157188 17.83444023 7.18165207
v 29.45829582 19.35518265 7.18007994
v 29.48106956 20.88801384 7.17987108
v 29.41728210 21.74414635 7.18034792
v 29.16775513 23.26546478 7.18232250
v 28.72991943 24.82759476 7.18610001
v 28.13589096 26.34754372 7.19212008
v 27.81905746 27.02784729 7.19531631
v 27.26373100 27.97224426 7.19936180
v 26.60634613 28.82748413 7.20295334
v 27.22989273 30.64011765 6.70424080
v 23.26532936 26.43299294 11.47446060
v 23.51808548 26.17077446 11.45930576
v 23.86841774 25.72352028 11.43350410
v 24.17405510 25.21509552 11.40443230
v 23.82528114 28.04910660 8.93255329
v 24.38826942 27.57224274 8.92215919
v 24.73211288 27.21514130 8.91435909
v 25.20605659 26.60942650 8.90109730
v 25.61355591 25.93098068 8.88616562
v 25.87366104 25.38289261 8.87434196
v 26.40195656 24.05781937 8.85209465
v 26.77616310 22.74666595 8.83806515
v 26.98580170 21.48999596 8.83072662
v 27.03908730 20.78603745 8.82891560
v 27.02006912 19.52791214 8.82959366
v 26.85531616 18.27513695 8.83533764
v 26.53637695 16.99429131 8.84705067
v 26.37975502 16.51858711 8.85312271
v 25.88136673 15.27464104 8.87419987
v 25.42835426 14.37758541 8.89373589
v 25.36410141 14.27223682 8.89605331
v 24.91794777 13.64455318 8.90985107
v 24.41140175 13.09032822 8.92198849
v 24.02210236 12.74465084 8.92955017
v 23.42345047 12.31594658 8.93888664
v 22.78542137 11.96840286 8.94642639
v 22.29225731 11.76444912 8.95085144
v 21.60264397 11.56283665 8.95521832
v 20.89812088 11.44807243 8.95770645
v 20.38908005 11.41939926 8.95833206
v 19.67529297 11.45516014 8.95755005
v 18.97182655 11.57807255 8.95489025
v 18.49924088 11.71211815 8.95199203
v 17.82811737 11.98087120 8.94615078
v 17.19117928 12.33194447 8.93854332
v 16.78868103 12.61076069 8.93247128
v 16.22329903 13.09548092 8.92187691
v 15.71792889 13.64968681 8.90973949
v 15.41778564 14.05451202 8.90085125
v 15.01511765 14.73118401 8.88591957
v 14.47166061 15.95346260 8.86172104
v 14.00062752 17.34726524 8.84317589
v 13.72372627 18.62646484 8.83319187
v 13.60023594 19.87065506 8.82891560
v 13.62032700 21.11754608 8.82957172
v 13.78957462 22.39067841 8.83542728
v 14.11728668 23.69004059 8.84742260
v 17.09824753 26.14391518 11.45775604
v 17.48654556 26.53639030 11.48044300
v 17.90739059 26.86844635 11.49972534
v 18.38011169 27.15374947 11.51620579
v 18.86074066 27.36720467 11.52858925
v 19.35221100 27.51622581 11.53727627
v 19.72443390 27.58710861 11.54137421
v 20.23908424 27.62925911 11.54385471
v 20.74780273 27.60788918 11.54258823
v 21.10383606 27.55558777 11.53954887
v 21.60651588 27.42716408 11.53209782
v 22.08784103 27.23838043 11.52110100
v 22.40538406 27.07456017 11.51163101
v 22.85381317 26.78124619 11.49465847
v 16.83316994 25.81078911 11.43852615
v 12.31910038 25.91353989 7.19010830
v 12.88727951 27.15567970 7.19587517
v 13.49055576 28.13758087 7.20006227
v 14.59872341 24.99728584 8.86692810
v 15.07561493 26.02350235 8.88820744
v 15.51684761 26.72706604 8.90367508
v 15.87574768 27.17863274 8.91356182
v 16.40437698 27.71347809 8.92523670
v 16.09426308 24.39620399 11.36692619
v 36.12168121 37.59200287 0.00004470
v 36.28076935 38.12850189 0.00002980
v 36.71999741 38.56772995 0.00002980
v 37.31999969 38.72850037 0.00002980
v 37.91999817 38.56772995 0.00002980
v 38.35923004 38.12850189 0.00002980
v 38.52000046 37.52849960 0.00004470
v 38.35923004 36.92850113 0.00005960
v 37.91999817 36.48926926 0.00005960
v 37.59199905 36.35973358 0.00007451
v 4.51831722 3.04800081 0.00065565
v 4.35923052 2.51150131 0.00065565
v 3.92000008 2.07227087 0.00067055
v 3.31999922 1.91150045 0.00067055
v 2.71999836 2.07227087 0.00067055
v 2.28076792 2.51150131 0.00065565
v 2.11999941 3.11150026 0.00064075
v 2.28076792 3.71150112 0.00064075
v 2.71999836 4.15073156 0.00062585
v 3.04799891 4.28026724 0.00062585
v 37.59199905 4.28026724 0.00062585
v 37.91999817 4.15073156 0.00062585
v 36.12168121 3.04800081 0.00065565
v 38.35923004 3.71150112 0.00064075
v 38.52000046 3.11150026 0.00064075
v 38.35923004 2.51150131 0.00065565
v 37.91999817 2.07227087 0.00067055
v 37.31999969 1.91150045 0.00067055
v 36.71999741 2.07227087 0.00067055
v 36.28076935 2.51150131 0.00065565
v 3.04799891 36.35973358 0.00007451
v 2.71999836 36.48926926 0.00005960
v 4.51842117 37.59000015 0.00004470
v 2.28076792 36.92850113 0.00005960
v 2.11999941 37.52849960 0.00004470
v 2.28076792 38.12850189 0.00002980
v 2.71999836 38.56772995 0.00002980
v 3.31999922 38.72850037 0.00002980
v 3.92000008 38.56772995 0.00002980
v 4.35923052 38.12850189 0.00002980
v 28.31999969 37.59200287 0.00004470
v 12.31999874 37.59000015 0.00004470
f 1 2 3
f 3 2 4
f 5 6 7
f 8 9 10
f 11 12 13
f 14 15 16
f 17 18 19
f 20 21 22
f 23 24 25
f 25 24 26
f 25 26 27
f 28 29 30
f 30 29 31
f 30 31 26
f 26 31 32
f 26 32 27
f 33 34 35
f 35 36 33
f 33 36 37
f 33 37 30
f 30 37 38
f 30 38 28
f 39 34 40
f 40 34 33
f 40 33 41
f 41 33 42
f 41 42 43
f 43 42 44
f 45 46 47
f 47 46 44
f 47 44 48
f 48 44 42
f 22 21 47
f 47 21 49
f 47 49 45
f 50 51 52
f 52 51 53
f 52 53 22
f 22 53 54
f 22 54 20
f 55 56 57
f 57 56 58
f 57 58 52
f 52 58 59
f 52 59 50
f 60 61 62
f 63 64 65
f 65 64 66
f 66 67 65
f 65 67 68
f 65 68 61
f 61 68 69
f 61 69 62
f 70 71 72
f 72 71 73
f 74 75 76
f 76 75 77
f 76 77 70
f 74 76 78
f 78 76 79
f 78 79 80
f 81 82 83
f 83 82 84
f 83 84 79
f 79 84 85
f 79 85 80
f 19 18 86
f 87 81 88
f 88 81 83
f 88 83 89
f 89 83 86
f 89 86 90
f 90 86 18
f 91 92 93
f 93 92 94
f 93 94 19
f 19 94 95
f 19 95 17
f 96 97 98
f 98 97 99
f 98 99 13
f 99 100 13
f 13 100 101
f 13 101 93
f 93 101 102
f 93 102 91
f 103 104 105
f 105 104 106
f 105 106 98
f 98 106 107
f 98 107 96
f 108 109 110
f 110 109 111
f 110 111 112
f 108 110 113
f 113 110 114
f 113 114 115
f 116 117 93
f 93 117 118
f 93 118 13
f 13 118 119
f 13 119 11
f 116 93 120
f 120 93 19
f 120 19 121
f 121 19 86
f 121 86 122
f 122 86 83
f 122 83 123
f 123 83 79
f 123 79 124
f 76 125 126
f 126 127 76
f 76 127 128
f 76 128 79
f 79 128 129
f 79 129 124
f 70 72 76
f 76 72 130
f 76 130 125
f 131 132 133
f 133 132 134
f 133 134 72
f 72 134 135
f 72 135 130
f 136 137 138
f 138 137 139
f 138 139 133
f 133 139 140
f 133 140 131
f 10 141 60
f 9 142 10
f 10 142 143
f 10 143 141
f 144 145 146
f 144 146 147
f 145 148 146
f 146 148 149
f 146 149 10
f 10 149 150
f 10 150 8
f 47 151 22
f 22 151 152
f 22 152 153
f 154 155 48
f 48 155 156
f 48 156 47
f 47 156 157
f 47 157 151
f 154 48 158
f 158 48 42
f 158 42 159
f 159 42 33
f 159 33 160
f 160 33 30
f 160 30 161
f 26 162 163
f 163 164 26
f 26 164 165
f 26 165 30
f 30 165 166
f 30 166 161
f 162 26 167
f 167 26 24
f 167 24 168
f 168 24 169
f 169 24 170
f 169 170 171
f 172 173 174
f 174 173 175
f 174 175 170
f 170 175 176
f 170 176 171
f 6 177 174
f 174 177 178
f 174 178 172
f 112 179 180
f 181 182 7
f 7 182 183
f 7 183 5
f 141 136 60
f 60 136 138
f 60 138 61
f 61 138 133
f 61 133 65
f 65 133 72
f 65 72 63
f 63 72 73
f 153 147 22
f 22 147 146
f 22 146 52
f 52 146 10
f 52 10 57
f 57 10 60
f 57 60 55
f 55 60 62
f 23 115 24
f 24 115 114
f 24 114 170
f 170 114 110
f 170 110 174
f 174 110 112
f 174 112 6
f 6 112 180
f 6 180 7
f 179 184 180
f 180 184 185
f 180 185 7
f 7 185 16
f 7 16 181
f 181 16 15
f 111 103 112
f 112 103 105
f 112 105 179
f 179 105 98
f 179 98 184
f 184 98 13
f 184 13 185
f 185 13 12
f 185 12 16
f 16 12 186
f 16 186 14
f 187 188 189
f 189 188 190
f 189 190 191
f 191 190 192
f 192 190 193
f 192 193 194
f 194 195 192
f 192 195 196
f 192 196 197
f 198 199 197
f 197 199 200
f 197 200 192
f 201 202 197
f 197 202 203
f 197 203 198
f 201 204 202
f 202 204 205
f 202 205 206
f 206 205 207
f 208 209 210
f 208 210 211
f 212 213 214
f 214 213 215
f 214 216 212
f 212 216 217
f 212 217 218
f 218 217 219
f 218 219 220
f 220 219 221
f 222 223 224
f 224 223 225
f 224 225 226
f 226 225 227
f 226 227 228
f 228 227 211
f 228 211 229
f 229 211 210
f 215 230 231
f 231 230 232
f 231 232 233
f 233 232 234
f 233 234 235
f 235 234 236
f 235 236 237
f 237 236 238
f 237 238 239
f 239 238 240
f 239 240 224
f 224 240 241
f 213 242 215
f 215 242 243
f 215 243 230
f 230 243 244
f 230 244 245
f 246 247 248
f 248 247 249
f 241 250 224
f 224 250 251
f 224 251 222
f 222 251 252
f 222 252 244
f 244 252 253
f 244 253 245
f 246 248 254
f 254 248 221
f 254 221 255
f 255 221 219
f 255 219 256
f 209 248 210
f 210 248 249
f 210 249 257
f 257 249 258
f 257 258 259
f 259 258 260
f 259 260 261
f 261 260 262
f 261 262 263
f 263 262 264
f 263 264 265
f 265 264 266
f 265 266 219
f 219 266 267
f 219 267 256
f 268 269 239
f 270 271 87
f 272 88 89
f 89 90 272
f 272 90 18
f 272 18 273
f 18 17 273
f 273 17 95
f 273 95 274
f 274 95 94
f 274 94 92
f 87 271 81
f 88 272 87
f 87 272 275
f 87 275 270
f 84 82 263
f 84 263 85
f 265 78 263
f 263 78 80
f 263 80 85
f 63 73 219
f 219 73 71
f 219 71 265
f 265 71 70
f 265 70 77
f 77 75 265
f 265 75 74
f 265 74 78
f 68 67 217
f 217 67 66
f 217 66 219
f 219 66 64
f 219 64 63
f 216 55 62
f 216 62 217
f 217 62 69
f 217 69 68
f 50 59 214
f 214 59 58
f 214 58 216
f 216 58 56
f 216 56 55
f 215 54 53
f 215 53 214
f 214 53 51
f 214 51 50
f 45 49 231
f 231 49 21
f 231 21 215
f 215 21 20
f 215 20 54
f 41 43 233
f 233 43 44
f 233 44 231
f 231 44 46
f 231 46 45
f 276 277 235
f 235 277 39
f 235 39 233
f 233 39 40
f 233 40 41
f 277 278 39
f 39 278 279
f 39 279 34
f 34 279 280
f 34 280 35
f 35 280 36
f 281 29 282
f 282 29 28
f 282 28 283
f 283 28 284
f 284 28 38
f 284 38 280
f 280 38 37
f 280 37 36
f 27 32 281
f 281 32 31
f 281 31 29
f 239 269 237
f 237 269 285
f 237 285 286
f 286 287 237
f 237 287 288
f 237 288 235
f 235 288 289
f 235 289 276
f 290 291 224
f 224 291 292
f 224 292 239
f 239 292 293
f 239 293 268
f 294 226 295
f 295 226 228
f 295 228 296
f 294 297 226
f 226 297 298
f 226 298 224
f 224 298 299
f 224 299 290
f 300 301 229
f 229 301 228
f 228 301 302
f 228 302 296
f 303 304 210
f 210 304 305
f 210 305 229
f 229 305 306
f 229 306 300
f 307 308 257
f 257 308 309
f 257 309 210
f 210 309 310
f 210 310 303
f 311 312 259
f 259 312 313
f 259 313 257
f 257 313 314
f 257 314 307
f 82 81 263
f 263 81 271
f 263 271 261
f 261 271 315
f 315 316 261
f 261 316 317
f 261 317 259
f 259 317 318
f 259 318 311
f 319 230 320
f 320 230 245
f 320 245 321
f 321 245 253
f 321 253 322
f 322 253 252
f 322 252 323
f 323 252 251
f 323 251 324
f 324 251 250
f 324 250 325
f 325 250 241
f 325 241 326
f 326 241 240
f 326 240 327
f 327 240 238
f 327 238 328
f 328 238 236
f 328 236 329
f 329 236 234
f 329 234 330
f 330 234 232
f 330 232 319
f 319 232 230
f 331 267 332
f 332 267 266
f 332 266 333
f 333 266 264
f 333 264 334
f 334 264 262
f 334 262 335
f 335 262 260
f 335 260 336
f 336 260 258
f 336 258 337
f 337 258 249
f 337 249 338
f 338 249 247
f 338 247 339
f 339 247 246
f 339 246 340
f 340 246 254
f 340 254 341
f 341 254 255
f 341 255 342
f 342 255 256
f 342 256 331
f 331 256 267
f 343 344 345
f 345 344 346
f 347 348 349
f 349 348 350
f 351 352 353
f 353 352 354
f 355 356 357
f 357 356 358
f 359 360 361
f 361 360 362
f 363 364 365
f 365 364 360
f 365 360 366
f 366 360 359
f 366 359 367
f 367 359 368
f 369 370 371
f 371 370 361
f 371 361 372
f 372 361 362
f 372 362 373
f 373 362 374
f 341 375 340
f 340 375 376
f 340 376 339
f 339 376 377
f 339 377 338
f 338 377 378
f 338 378 337
f 337 378 379
f 337 379 336
f 336 379 380
f 336 380 335
f 335 380 381
f 335 381 334
f 334 381 382
f 334 382 333
f 333 382 383
f 333 383 332
f 332 383 384
f 332 384 331
f 331 384 385
f 331 385 342
f 342 385 386
f 342 386 341
f 341 386 375
f 387 388 381
f 389 379 390
f 390 379 378
f 390 378 391
f 377 392 393
f 393 394 377
f 377 394 395
f 377 395 378
f 378 395 396
f 378 396 391
f 392 377 397
f 397 377 376
f 397 376 398
f 399 400 375
f 375 400 401
f 375 401 376
f 376 401 402
f 376 402 398
f 403 404 386
f 386 404 405
f 386 405 375
f 375 405 406
f 375 406 399
f 407 408 385
f 385 408 409
f 409 410 385
f 385 410 411
f 385 411 386
f 386 411 412
f 386 412 403
f 407 385 413
f 413 385 384
f 413 384 414
f 415 416 384
f 384 416 417
f 384 417 414
f 418 419 383
f 383 419 420
f 383 420 384
f 384 420 421
f 384 421 415
f 422 423 382
f 382 423 424
f 382 424 383
f 383 424 425
f 383 425 418
f 381 388 382
f 382 388 426
f 382 426 422
f 389 427 379
f 379 427 428
f 379 428 380
f 380 428 429
f 429 430 380
f 380 430 431
f 380 431 381
f 381 431 432
f 381 432 387
f 321 433 320
f 320 433 434
f 320 434 319
f 319 434 435
f 319 435 330
f 330 435 436
f 330 436 329
f 329 436 437
f 329 437 328
f 328 437 438
f 328 438 327
f 327 438 439
f 327 439 326
f 326 439 440
f 326 440 325
f 325 440 441
f 325 441 324
f 324 441 442
f 324 442 323
f 323 442 443
f 323 443 322
f 322 443 444
f 322 444 321
f 321 444 433
f 445 446 443
f 447 441 448
f 448 441 440
f 448 440 449
f 439 450 451
f 451 452 439
f 439 452 453
f 439 453 440
f 440 453 454
f 440 454 449
f 450 439 455
f 455 439 438
f 455 438 456
f 457 458 437
f 437 458 459
f 437 459 438
f 438 459 460
f 438 460 456
f 461 462 436
f 436 462 463
f 436 463 437
f 437 463 464
f 437 464 457
f 465 466 435
f 435 466 467
f 467 468 435
f 435 468 469
f 435 469 436
f 436 469 470
f 436 470 461
f 465 435 471
f 471 435 434
f 471 434 472
f 473 474 434
f 434 474 475
f 434 475 472
f 476 477 433
f 433 477 478
f 433 478 434
f 434 478 479
f 434 479 473
f 480 481 444
f 444 481 482
f 444 482 433
f 433 482 483
f 433 483 476
f 443 446 444
f 444 446 484
f 444 484 480
f 447 485 441
f 441 485 486
f 441 486 442
f 442 486 487
f 487 488 442
f 442 488 489
f 442 489 443
f 443 489 490
f 443 490 445
f 344 343 491
f 344 491 492
f 492 491 493
f 492 493 494
f 494 493 357
f 494 357 358
f 348 347 495
f 348 495 496
f 496 495 497
f 496 497 498
f 498 497 345
f 498 345 346
f 353 354 499
f 353 499 500
f 500 499 501
f 500 501 502
f 502 501 349
f 502 349 350
f 356 355 503
f 356 503 504
f 504 503 505
f 504 505 506
f 506 505 352
f 506 352 351
f 491 343 507
f 507 343 508
f 507 508 509
f 509 508 510
f 509 510 367
f 367 510 366
f 493 491 511
f 511 491 507
f 511 507 512
f 512 507 509
f 512 509 368
f 368 509 367
f 357 493 513
f 513 493 511
f 513 511 514
f 514 511 512
f 514 512 359
f 359 512 368
f 343 345 515
f 343 515 508
f 508 515 516
f 508 516 510
f 510 516 365
f 510 365 366
f 355 357 513
f 355 513 517
f 517 513 514
f 517 514 518
f 518 514 359
f 518 359 361
f 495 347 519
f 519 347 520
f 519 520 521
f 521 520 522
f 521 522 364
f 364 522 360
f 497 495 523
f 523 495 519
f 523 519 524
f 524 519 521
f 524 521 363
f 363 521 364
f 345 497 515
f 515 497 523
f 515 523 516
f 516 523 524
f 516 524 365
f 365 524 363
f 503 355 525
f 525 355 517
f 525 517 526
f 526 517 518
f 526 518 370
f 370 518 361
f 505 503 527
f 527 503 525
f 527 525 528
f 528 525 526
f 528 526 369
f 369 526 370
f 352 505 529
f 529 505 527
f 529 527 530
f 530 527 528
f 530 528 371
f 371 528 369
f 347 349 531
f 347 531 520
f 520 531 532
f 520 532 522
f 522 532 362
f 522 362 360
f 354 352 529
f 354 529 533
f 533 529 530
f 533 530 534
f 534 530 371
f 534 371 372
f 499 354 535
f 535 354 533
f 535 533 536
f 536 533 534
f 536 534 373
f 373 534 372
f 501 499 537
f 537 499 535
f 537 535 538
f 538 535 536
f 538 536 374
f 374 536 373
f 349 501 531
f 531 501 537
f 531 537 532
f 532 537 538
f 532 538 362
f 362 538 374
f 539 540 541
f 542 356 504
f 220 221 543
f 543 221 544
f 542 504 539
f 539 504 506
f 539 506 540
f 218 220 541
f 541 220 543
f 541 543 539
f 539 543 544
f 539 544 542
f 212 218 545
f 545 218 541
f 545 541 546
f 546 541 540
f 546 540 351
f 351 540 506
f 351 353 546
f 546 353 547
f 546 547 545
f 545 547 548
f 545 548 212
f 212 548 213
f 358 356 549
f 549 356 542
f 549 542 550
f 550 542 544
f 550 544 248
f 248 544 221
f 551 552 553
f 547 353 500
f 242 213 554
f 554 213 548
f 547 500 551
f 551 500 502
f 551 502 552
f 243 242 553
f 553 242 554
f 553 554 551
f 551 554 548
f 551 548 547
f 244 243 555
f 555 243 553
f 555 553 556
f 556 553 552
f 556 552 350
f 350 552 502
f 557 558 559
f 560 344 492
f 208 211 561
f 561 211 562
f 560 492 557
f 557 492 494
f 557 494 558
f 209 208 559
f 559 208 561
f 559 561 557
f 557 561 562
f 557 562 560
f 248 209 550
f 550 209 559
f 550 559 549
f 549 559 558
f 549 558 358
f 358 558 494
f 350 348 556
f 556 348 563
f 556 563 555
f 555 563 564
f 555 564 244
f 244 564 222
f 346 344 565
f 565 344 560
f 565 560 566
f 566 560 562
f 566 562 227
f 227 562 211
f 567 568 569
f 563 348 496
f 223 222 570
f 570 222 564
f 563 496 567
f 567 496 498
f 567 498 568
f 225 223 569
f 569 223 570
f 569 570 567
f 567 570 564
f 567 564 563
f 227 225 566
f 566 225 569
f 566 569 565
f 565 569 568
f 565 568 346
f 346 568 498
f 571 572 573
f 573 574 571
f 571 574 575
f 571 575 576
f 576 575 577
f 576 577 578
f 578 577 579
f 578 579 580
f 579 581 580
f 580 581 582
f 580 582 583
f 583 582 584
f 583 584 189
f 585 586 187
f 585 187 587
f 584 588 189
f 189 588 589
f 189 589 187
f 187 589 590
f 587 591 592
f 592 591 593
f 592 593 594
f 594 593 595
f 596 597 595
f 595 597 598
f 595 598 594
f 590 599 187
f 187 599 600
f 187 600 587
f 587 600 601
f 587 601 591
f 586 602 187
f 187 602 603
f 187 603 604
f 603 605 604
f 604 605 606
f 604 606 607
f 607 606 608
f 607 608 609
f 609 608 610
f 609 610 611
f 610 612 611
f 611 612 613
f 611 613 614
f 615 616 617
f 613 618 614
f 614 618 619
f 614 619 620
f 619 621 620
f 620 621 622
f 620 622 623
f 622 624 623
f 623 624 625
f 623 625 626
f 626 625 627
f 626 627 628
f 628 627 629
f 628 629 617
f 617 629 630
f 617 630 615
f 616 631 617
f 617 631 632
f 617 632 633
f 634 635 636
f 636 635 637
f 636 637 638
f 639 640 641
f 641 640 642
f 596 595 643
f 643 595 644
f 643 644 645
f 645 644 646
f 645 646 642
f 642 646 647
f 642 647 641
f 641 648 639
f 639 648 649
f 639 649 650
f 651 652 636
f 650 653 639
f 639 653 654
f 639 654 638
f 638 654 655
f 638 655 636
f 636 655 656
f 636 656 651
f 652 657 636
f 636 657 658
f 636 658 659
f 659 658 660
f 659 660 661
f 661 660 662
f 661 662 663
f 662 664 663
f 663 664 665
f 663 665 666
f 665 667 666
f 666 667 668
f 666 668 572
f 572 668 669
f 572 669 573
f 670 671 672
f 672 671 673
f 670 674 671
f 671 674 675
f 671 675 676
f 676 677 671
f 671 677 678
f 671 678 679
f 636 680 671
f 671 680 681
f 681 682 671
f 671 682 683
f 671 683 684
f 684 685 671
f 671 685 686
f 671 686 673
f 679 687 671
f 671 687 617
f 671 617 636
f 636 617 633
f 636 633 634
f 688 391 689
f 689 391 396
f 689 396 690
f 690 396 395
f 690 395 691
f 691 395 394
f 691 394 692
f 692 394 393
f 692 393 693
f 693 393 392
f 693 392 694
f 392 397 694
f 694 397 398
f 694 398 695
f 695 398 402
f 695 402 696
f 696 402 401
f 696 401 697
f 697 401 400
f 697 400 698
f 698 400 399
f 698 399 699
f 699 399 406
f 699 406 700
f 406 405 700
f 700 405 404
f 700 404 701
f 701 404 403
f 701 403 702
f 702 403 412
f 702 412 703
f 412 411 703
f 703 411 410
f 703 410 704
f 704 410 409
f 408 705 409
f 409 705 706
f 409 706 704
f 408 407 705
f 705 407 413
f 705 413 707
f 707 413 414
f 707 414 708
f 708 414 417
f 708 417 709
f 417 416 709
f 709 416 415
f 709 415 710
f 710 415 421
f 710 421 711
f 711 421 420
f 711 420 712
f 420 419 712
f 712 419 418
f 712 418 713
f 713 418 425
f 424 714 425
f 425 714 715
f 425 715 713
f 621 619 716
f 424 423 714
f 714 423 422
f 714 422 717
f 717 422 426
f 717 426 718
f 718 426 388
f 718 388 719
f 719 388 387
f 719 387 720
f 720 387 432
f 431 721 432
f 432 721 722
f 432 722 720
f 716 723 621
f 621 723 724
f 621 724 622
f 622 724 725
f 622 725 624
f 624 725 726
f 624 726 625
f 625 726 727
f 625 727 627
f 627 727 728
f 627 728 629
f 629 728 729
f 629 729 630
f 630 729 730
f 630 730 615
f 615 730 731
f 615 731 616
f 616 731 732
f 431 430 721
f 721 430 429
f 721 429 733
f 733 429 428
f 733 428 734
f 734 428 427
f 734 427 735
f 735 427 389
f 735 389 688
f 688 389 390
f 688 390 391
f 688 736 735
f 735 736 737
f 735 737 734
f 734 737 738
f 734 738 733
f 733 738 739
f 733 739 721
f 721 739 740
f 721 740 722
f 722 740 741
f 722 741 720
f 720 741 742
f 720 742 719
f 719 742 743
f 719 743 718
f 718 743 744
f 718 744 717
f 717 744 745
f 717 745 714
f 714 745 746
f 714 746 715
f 715 746 747
f 715 747 713
f 713 747 748
f 713 748 712
f 712 748 749
f 712 749 711
f 711 749 750
f 711 750 710
f 710 750 751
f 710 751 709
f 709 751 752
f 709 752 708
f 708 752 753
f 708 753 707
f 707 753 754
f 707 754 705
f 705 754 755
f 705 755 706
f 706 755 756
f 706 756 704
f 704 756 757
f 704 757 703
f 703 757 758
f 703 758 702
f 702 758 759
f 702 759 701
f 701 759 760
f 701 760 700
f 700 760 761
f 700 761 699
f 699 761 762
f 699 762 698
f 698 762 763
f 698 763 697
f 697 763 764
f 697 764 696
f 696 764 765
f 696 765 695
f 695 765 766
f 695 766 694
f 694 766 767
f 694 767 693
f 693 767 768
f 693 768 692
f 692 768 769
f 692 769 691
f 691 769 770
f 691 770 690
f 690 770 771
f 690 771 689
f 689 771 772
f 689 772 688
f 688 772 736
f 772 732 736
f 736 732 731
f 736 731 737
f 737 731 730
f 737 730 738
f 738 730 729
f 738 729 739
f 739 729 728
f 739 728 740
f 740 728 727
f 740 727 741
f 741 727 726
f 741 726 742
f 742 726 725
f 742 725 743
f 743 725 724
f 743 724 744
f 744 724 723
f 744 723 745
f 745 723 716
f 745 716 746
f 746 716 773
f 746 773 747
f 747 773 774
f 747 774 748
f 748 774 775
f 748 775 749
f 749 775 776
f 749 776 750
f 750 776 777
f 750 777 751
f 751 777 778
f 751 778 752
f 752 778 779
f 752 779 753
f 753 779 780
f 753 780 754
f 754 780 781
f 754 781 755
f 755 781 782
f 755 782 756
f 756 782 783
f 756 783 757
f 757 783 784
f 757 784 758
f 758 784 785
f 758 785 759
f 759 785 786
f 759 786 760
f 760 786 787
f 760 787 761
f 761 787 788
f 761 788 762
f 762 788 789
f 762 789 763
f 763 789 790
f 763 790 764
f 764 790 791
f 764 791 765
f 765 791 792
f 765 792 766
f 766 792 793
f 766 793 767
f 767 793 794
f 767 794 768
f 768 794 795
f 768 795 769
f 769 795 796
f 769 796 770
f 770 796 797
f 770 797 771
f 771 797 798
f 771 798 772
f 772 798 732
f 619 618 716
f 716 618 613
f 716 613 773
f 773 613 612
f 773 612 774
f 774 612 610
f 774 610 775
f 775 610 608
f 775 608 776
f 776 608 606
f 776 606 777
f 777 606 605
f 777 605 778
f 778 605 603
f 778 603 779
f 779 603 602
f 779 602 780
f 780 602 586
f 780 586 781
f 781 586 585
f 781 585 782
f 782 585 587
f 782 587 783
f 783 587 592
f 783 592 784
f 784 592 594
f 784 594 785
f 785 594 598
f 785 598 786
f 786 598 597
f 786 597 787
f 787 597 596
f 787 596 788
f 788 596 643
f 788 643 789
f 789 643 645
f 789 645 790
f 790 645 642
f 790 642 791
f 791 642 640
f 791 640 792
f 792 640 639
f 792 639 793
f 793 639 638
f 793 638 794
f 794 638 637
f 794 637 795
f 795 637 635
f 795 635 796
f 796 635 634
f 796 634 797
f 797 634 633
f 797 633 798
f 798 633 632
f 798 632 732
f 732 632 631
f 732 631 616
f 799 449 800
f 800 449 454
f 800 454 801
f 801 454 453
f 801 453 802
f 802 453 452
f 802 452 803
f 803 452 451
f 803 451 804
f 804 451 450
f 804 450 805
f 450 455 805
f 805 455 456
f 805 456 806
f 806 456 460
f 806 460 807
f 807 460 459
f 807 459 808
f 808 459 458
f 808 458 809
f 809 458 457
f 809 457 810
f 810 457 464
f 810 464 811
f 464 463 811
f 811 463 462
f 811 462 812
f 812 462 461
f 812 461 813
f 813 461 470
f 813 470 814
f 470 469 814
f 814 469 468
f 814 468 815
f 815 468 467
f 466 816 467
f 467 816 817
f 467 817 815
f 466 465 816
f 816 465 471
f 816 471 818
f 818 471 472
f 818 472 819
f 819 472 475
f 819 475 820
f 475 474 820
f 820 474 473
f 820 473 821
f 821 473 479
f 821 479 822
f 822 479 478
f 822 478 823
f 478 477 823
f 823 477 476
f 823 476 824
f 824 476 483
f 482 825 483
f 483 825 826
f 483 826 824
f 647 646 827
f 482 481 825
f 825 481 480
f 825 480 828
f 828 480 484
f 828 484 829
f 829 484 446
f 829 446 830
f 830 446 445
f 830 445 831
f 831 445 490
f 489 832 490
f 490 832 833
f 490 833 831
f 827 834 647
f 647 834 835
f 647 835 641
f 641 835 836
f 641 836 648
f 648 836 837
f 648 837 649
f 649 837 838
f 649 838 650
f 650 838 839
f 650 839 653
f 653 839 840
f 653 840 654
f 654 840 841
f 654 841 655
f 655 841 842
f 655 842 656
f 656 842 843
f 489 488 832
f 832 488 487
f 832 487 844
f 844 487 486
f 844 486 845
f 845 486 485
f 845 485 846
f 846 485 447
f 846 447 799
f 799 447 448
f 799 448 449
f 799 847 846
f 846 847 848
f 846 848 845
f 845 848 849
f 845 849 844
f 844 849 850
f 844 850 832
f 832 850 851
f 832 851 833
f 833 851 852
f 833 852 831
f 831 852 853
f 831 853 830
f 830 853 854
f 830 854 829
f 829 854 855
f 829 855 828
f 828 855 856
f 828 856 825
f 825 856 857
f 825 857 826
f 826 857 858
f 826 858 824
f 824 858 859
f 824 859 823
f 823 859 860
f 823 860 822
f 822 860 861
f 822 861 821
f 821 861 862
f 821 862 820
f 820 862 863
f 820 863 819
f 819 863 864
f 819 864 818
f 818 864 865
f 818 865 816
f 816 865 866
f 816 866 817
f 817 866 867
f 817 867 815
f 815 867 868
f 815 868 814
f 814 868 869
f 814 869 813
f 813 869 870
f 813 870 812
f 812 870 871
f 812 871 811
f 811 871 872
f 811 872 810
f 810 872 873
f 810 873 809
f 809 873 874
f 809 874 808
f 808 874 875
f 808 875 807
f 807 875 876
f 807 876 806
f 806 876 877
f 806 877 805
f 805 877 878
f 805 878 804
f 804 878 879
f 804 879 803
f 803 879 880
f 803 880 802
f 802 880 881
f 802 881 801
f 801 881 882
f 801 882 800
f 800 882 883
f 800 883 799
f 799 883 847
f 883 843 847
f 847 843 842
f 847 842 848
f 848 842 841
f 848 841 849
f 849 841 840
f 849 840 850
f 850 840 839
f 850 839 851
f 851 839 838
f 851 838 852
f 852 838 837
f 852 837 853
f 853 837 836
f 853 836 854
f 854 836 835
f 854 835 855
f 855 835 834
f 855 834 856
f 856 834 827
f 856 827 857
f 857 827 884
f 857 884 858
f 858 884 885
f 858 885 859
f 859 885 886
f 859 886 860
f 860 886 887
f 860 887 861
f 861 887 888
f 861 888 862
f 862 888 889
f 862 889 863
f 863 889 890
f 863 890 864
f 864 890 891
f 864 891 865
f 865 891 892
f 865 892 866
f 866 892 893
f 866 893 867
f 867 893 894
f 867 894 868
f 868 894 895
f 868 895 869
f 869 895 896
f 869 896 870
f 870 896 897
f 870 897 871
f 871 897 898
f 871 898 872
f 872 898 899
f 872 899 873
f 873 899 900
f 873 900 874
f 874 900 901
f 874 901 875
f 875 901 902
f 875 902 876
f 876 902 903
f 876 903 877
f 877 903 904
f 877 904 878
f 878 904 905
f 878 905 879
f 879 905 906
f 879 906 880
f 880 906 907
f 880 907 881
f 881 907 908
f 881 908 882
f 882 908 909
f 882 909 883
f 883 909 843
f 646 644 827
f 827 644 595
f 827 595 884
f 884 595 593
f 884 593 885
f 885 593 591
f 885 591 886
f 886 591 601
f 886 601 887
f 887 601 600
f 887 600 888
f 888 600 599
f 888 599 889
f 889 599 590
f 889 590 890
f 890 590 589
f 890 589 891
f 891 589 588
f 891 588 892
f 892 588 584
f 892 584 893
f 893 584 582
f 893 582 894
f 894 582 581
f 894 581 895
f 895 581 579
f 895 579 896
f 896 579 577
f 896 577 897
f 897 577 575
f 897 575 898
f 898 575 574
f 898 574 899
f 899 574 573
f 899 573 900
f 900 573 669
f 900 669 901
f 901 669 668
f 901 668 902
f 902 668 667
f 902 667 903
f 903 667 665
f 903 665 904
f 904 665 664
f 904 664 905
f 905 664 662
f 905 662 906
f 906 662 660
f 906 660 907
f 907 660 658
f 907 658 908
f 908 658 657
f 908 657 909
f 909 657 652
f 909 652 843
f 843 652 651
f 843 651 656
f 274 92 910
f 910 92 911
f 910 911 912
f 912 911 913
f 912 913 914
f 914 913 915
f 914 915 916
f 916 915 917
f 916 917 918
f 918 917 919
f 918 919 187
f 187 919 188
f 920 921 922
f 921 281 282
f 923 924 925
f 925 924 920
f 926 927 923
f 927 926 189
f 921 282 922
f 922 282 283
f 922 283 928
f 928 283 284
f 928 284 929
f 929 284 280
f 929 280 930
f 280 279 930
f 930 279 278
f 930 278 931
f 931 278 277
f 931 277 932
f 932 277 276
f 932 276 933
f 933 276 289
f 288 934 289
f 289 934 935
f 289 935 933
f 288 287 934
f 934 287 286
f 934 286 936
f 936 286 285
f 936 285 937
f 937 285 938
f 285 269 938
f 938 269 268
f 938 268 293
f 292 939 293
f 293 939 940
f 293 940 938
f 292 291 939
f 939 291 290
f 939 290 941
f 941 290 299
f 298 942 299
f 299 942 943
f 299 943 941
f 298 297 942
f 942 297 294
f 942 294 944
f 944 294 295
f 296 945 295
f 295 945 946
f 295 946 944
f 296 302 945
f 945 302 301
f 945 301 947
f 947 301 300
f 947 300 948
f 948 300 306
f 948 306 949
f 306 305 949
f 949 305 304
f 949 304 950
f 950 304 303
f 950 303 951
f 951 303 310
f 951 310 952
f 310 309 952
f 952 309 308
f 952 308 953
f 953 308 307
f 953 307 954
f 954 307 314
f 954 314 955
f 314 313 955
f 955 313 312
f 955 312 956
f 956 312 311
f 956 311 957
f 957 311 318
f 957 318 958
f 318 317 958
f 958 317 316
f 958 316 959
f 959 316 315
f 959 315 960
f 960 315 271
f 960 271 961
f 920 922 925
f 925 922 928
f 925 928 962
f 962 928 929
f 962 929 963
f 963 929 930
f 963 930 964
f 964 930 931
f 964 931 965
f 965 931 932
f 965 932 966
f 966 932 933
f 966 933 967
f 967 933 935
f 967 935 968
f 968 935 934
f 968 934 969
f 969 934 936
f 969 936 970
f 970 936 937
f 970 937 971
f 971 937 938
f 971 938 972
f 972 938 940
f 972 940 973
f 973 940 939
f 973 939 974
f 974 939 941
f 974 941 975
f 975 941 943
f 975 943 976
f 976 943 942
f 976 942 977
f 977 942 944
f 977 944 978
f 978 944 946
f 978 946 979
f 979 946 945
f 979 945 980
f 980 945 947
f 980 947 981
f 981 947 948
f 981 948 982
f 982 948 949
f 982 949 983
f 983 949 950
f 983 950 984
f 984 950 951
f 984 951 985
f 985 951 952
f 985 952 986
f 986 952 953
f 986 953 987
f 987 953 954
f 987 954 988
f 988 954 955
f 988 955 989
f 989 955 956
f 989 956 990
f 990 956 957
f 990 957 991
f 991 957 958
f 991 958 992
f 992 958 959
f 992 959 993
f 993 959 960
f 993 960 994
f 994 960 961
f 994 961 995
f 995 961 996
f 995 996 997
f 997 996 998
f 997 998 999
f 999 998 1000
f 999 1000 1001
f 271 270 961
f 961 270 275
f 961 275 996
f 996 275 272
f 996 272 998
f 998 272 273
f 998 273 1000
f 1000 273 274
f 274 910 1000
f 1000 910 912
f 1000 912 1001
f 1001 912 914
f 1001 914 916
f 923 925 926
f 926 925 962
f 926 962 1002
f 1002 962 963
f 1002 963 1003
f 1003 963 964
f 1003 964 1004
f 1004 964 965
f 1004 965 1005
f 1005 965 966
f 1005 966 1006
f 1006 966 967
f 1006 967 1007
f 1007 967 968
f 1007 968 1008
f 1008 968 969
f 1008 969 1009
f 1009 969 970
f 1009 970 1010
f 1010 970 971
f 1010 971 1011
f 1011 971 972
f 1011 972 1012
f 1012 972 973
f 1012 973 1013
f 1013 973 974
f 1013 974 1014
f 1014 974 975
f 1014 975 1015
f 1015 975 976
f 1015 976 1016
f 1016 976 977
f 1016 977 1017
f 1017 977 978
f 1017 978 1018
f 1018 978 979
f 1018 979 1019
f 1019 979 980
f 1019 980 1020
f 1020 980 981
f 1020 981 1021
f 1021 981 982
f 1021 982 1022
f 1022 982 983
f 1022 983 1023
f 1023 983 984
f 1023 984 1024
f 1024 984 985
f 1024 985 1025
f 1025 985 986
f 1025 986 1026
f 1026 986 987
f 1026 987 1027
f 1027 987 988
f 1027 988 1028
f 1028 988 989
f 1028 989 1029
f 1029 989 990
f 1029 990 1030
f 1030 990 991
f 1030 991 1031
f 1031 991 992
f 1031 992 1032
f 1032 992 993
f 1032 993 1033
f 1033 993 994
f 1033 994 1034
f 1034 994 995
f 1034 995 1035
f 1035 995 997
f 1035 997 1036
f 1036 997 999
f 1036 999 1037
f 1037 999 1001
f 1037 1001 1038
f 1038 1001 916
f 1038 916 918
f 189 926 583
f 583 926 1002
f 583 1002 580
f 580 1002 1003
f 580 1003 578
f 578 1003 1004
f 578 1004 576
f 576 1004 1005
f 576 1005 571
f 571 1005 1006
f 571 1006 572
f 572 1006 1007
f 572 1007 666
f 666 1007 1008
f 666 1008 663
f 663 1008 1009
f 663 1009 661
f 661 1009 1010
f 661 1010 659
f 659 1010 1011
f 659 1011 636
f 636 1011 1012
f 636 1012 680
f 680 1012 1013
f 680 1013 681
f 681 1013 1014
f 681 1014 682
f 682 1014 1015
f 682 1015 683
f 683 1015 1016
f 683 1016 684
f 684 1016 1017
f 684 1017 685
f 685 1017 1018
f 685 1018 686
f 686 1018 1019
f 686 1019 673
f 673 1019 1020
f 673 1020 672
f 672 1020 1021
f 672 1021 670
f 670 1021 1022
f 670 1022 674
f 674 1022 1023
f 674 1023 675
f 675 1023 1024
f 675 1024 676
f 676 1024 1025
f 676 1025 677
f 677 1025 1026
f 677 1026 678
f 678 1026 1027
f 678 1027 679
f 679 1027 1028
f 679 1028 687
f 687 1028 1029
f 687 1029 617
f 617 1029 1030
f 617 1030 628
f 628 1030 1031
f 628 1031 626
f 626 1031 1032
f 626 1032 623
f 623 1032 1033
f 623 1033 620
f 620 1033 1034
f 620 1034 614
f 614 1034 1035
f 614 1035 611
f 611 1035 1036
f 611 1036 609
f 609 1036 1037
f 609 1037 607
f 607 1037 1038
f 607 1038 604
f 604 1038 918
f 604 918 187
f 917 915 1039
f 913 911 1040
f 1041 919 917
f 919 1041 188
f 101 1042 102
f 102 1042 1040
f 102 1040 91
f 91 1040 911
f 91 911 92
f 101 100 1042
f 1042 100 99
f 1042 99 1043
f 1043 99 97
f 1043 97 1044
f 1044 97 96
f 1044 96 1045
f 1045 96 1046
f 1046 96 107
f 1046 107 1047
f 1047 107 106
f 1047 106 1048
f 1048 106 104
f 1048 104 1049
f 1049 104 103
f 1049 103 1050
f 1051 1052 1053
f 1053 1052 1054
f 1053 1054 1055
f 1055 1054 1056
f 1055 1056 1050
f 1050 1056 1057
f 1050 1057 1049
f 1049 1057 1058
f 1049 1058 1048
f 1048 1058 1059
f 1048 1059 1047
f 1047 1059 1060
f 1047 1060 1046
f 1046 1060 1061
f 1046 1061 1045
f 1045 1061 1062
f 1045 1062 1044
f 1044 1062 1063
f 1044 1063 1043
f 1043 1063 1064
f 1043 1064 1042
f 1042 1064 1039
f 1042 1039 1040
f 1040 1039 915
f 1040 915 913
f 103 111 1050
f 1050 111 109
f 1050 109 1055
f 1055 109 108
f 1055 108 1053
f 1053 108 113
f 1053 113 1051
f 1051 113 115
f 1065 1066 1067
f 1067 1066 1068
f 1067 1068 1069
f 1069 1068 1070
f 1069 1070 1071
f 1071 1070 1072
f 1071 1072 1073
f 27 1072 25
f 25 1072 1070
f 25 1070 23
f 23 1070 1068
f 23 1068 115
f 115 1068 1066
f 115 1066 1051
f 1051 1066 1065
f 1051 1065 1052
f 27 1074 1072
f 1072 1074 1075
f 1072 1075 1073
f 1073 1075 1076
f 1073 1076 1077
f 917 1039 1041
f 1041 1039 1064
f 1041 1064 1078
f 1078 1064 1063
f 1078 1063 1079
f 1079 1063 1062
f 1079 1062 1080
f 1080 1062 1061
f 1080 1061 1081
f 1081 1061 1060
f 1081 1060 1082
f 1082 1060 1059
f 1082 1059 1083
f 1083 1059 1058
f 1083 1058 1084
f 1084 1058 1057
f 1084 1057 1085
f 1085 1057 1056
f 1085 1056 1086
f 1086 1056 1054
f 1086 1054 1087
f 1087 1054 1052
f 1087 1052 1088
f 1088 1052 1065
f 1088 1065 1089
f 1089 1065 1067
f 1089 1067 1090
f 1090 1067 1069
f 1090 1069 1091
f 1091 1069 1071
f 1091 1071 1092
f 1092 1071 1073
f 1092 1073 1093
f 1093 1073 1077
f 1093 1077 1094
f 188 1041 190
f 190 1041 1078
f 190 1078 193
f 193 1078 1079
f 193 1079 194
f 194 1079 1080
f 194 1080 195
f 195 1080 1081
f 195 1081 196
f 196 1081 1082
f 196 1082 197
f 197 1082 1083
f 197 1083 201
f 201 1083 1084
f 201 1084 204
f 204 1084 1085
f 204 1085 205
f 205 1085 1086
f 205 1086 207
f 207 1086 1087
f 207 1087 206
f 206 1087 1088
f 206 1088 202
f 202 1088 1089
f 202 1089 203
f 203 1089 1090
f 203 1090 198
f 198 1090 1091
f 198 1091 199
f 199 1091 1092
f 199 1092 200
f 200 1092 1093
f 200 1093 192
f 192 1093 1094
f 192 1094 191
f 189 191 927
f 927 191 1094
f 927 1094 923
f 923 1094 1077
f 923 1077 924
f 924 1077 1076
f 924 1076 920
f 920 1076 1075
f 920 1075 921
f 921 1075 1074
f 921 1074 281
f 281 1074 27
f 1095 1096 1097
f 1098 1099 1097
f 1097 1099 1100
f 1097 1100 1101
f 1102 1103 1097
f 1097 1103 1104
f 1097 1104 1095
f 1105 1106 1107
f 1095 1108 1096
f 1096 1108 1109
f 1096 1109 1110
f 1111 1112 1113
f 1114 1115 1116
f 1116 1115 1111
f 1116 1111 1117
f 1117 1111 1113
f 1107 1118 1105
f 1105 1118 1119
f 1105 1119 1097
f 1097 1119 1120
f 1097 1120 1098
f 1121 1122 4
f 4 1122 1123
f 4 1123 1097
f 1097 1123 1124
f 1097 1124 1105
f 1125 1126 1127
f 1128 1127 1129
f 1130 1131 1132
f 1133 1134 1101
f 1101 1134 1135
f 1101 1135 1097
f 1097 1135 1136
f 1097 1136 1102
f 1121 4 1137
f 1137 4 2
f 1137 2 1138
f 1112 1111 1139
f 1139 1111 1096
f 1139 1096 1140
f 1140 1096 1110
f 1140 1110 1141
f 1141 1110 1142
f 1141 1142 1127
f 1127 1142 1143
f 1127 1143 1125
f 1126 1144 1127
f 1127 1144 1145
f 1127 1145 1146
f 1114 1147 1115
f 1115 1147 1148
f 1115 1148 1149
f 1149 1148 1128
f 1149 1128 1150
f 1150 1128 1129
f 1146 1151 1127
f 1127 1151 1152
f 1127 1152 1129
f 1132 1153 1130
f 1130 1153 1154
f 1130 1154 1142
f 1142 1154 1155
f 1142 1155 1143
f 1156 1157 1158
f 1158 1157 1159
f 1158 1159 1160
f 1161 1162 1163
f 1163 1162 1164
f 1163 1164 1106
f 1106 1164 1165
f 1106 1165 1166
f 1166 1167 1106
f 1106 1167 1168
f 1106 1168 1107
f 1107 1168 1169
f 1107 1169 1170
f 1161 1163 1171
f 1171 1163 1172
f 1171 1172 1173
f 1173 1172 1174
f 1173 1174 2
f 2 1174 1175
f 2 1175 1138
f 1134 1176 1177
f 1159 1178 1160
f 1160 1178 1179
f 1160 1179 1180
f 1133 1181 1134
f 1134 1181 1160
f 1134 1160 1176
f 1176 1160 1182
f 1170 1183 1107
f 1107 1183 1184
f 1107 1184 1158
f 1158 1184 1185
f 1158 1185 1156
f 1177 1186 1134
f 1134 1186 1187
f 1134 1187 1188
f 1180 1189 1160
f 1160 1189 1190
f 1160 1190 1182
f 1188 1191 1134
f 1134 1191 1192
f 1134 1192 1130
f 1130 1192 1193
f 1130 1193 1131
f 1194 1195 1111
f 1111 1195 1096
f 1196 1194 1115
f 1115 1194 1111
f 1197 3 1097
f 1097 3 4
f 1195 1197 1096
f 1096 1197 1097
f 1198 1199 1200
f 1201 1202 1203
f 1203 1202 1204
f 1203 1204 1205
f 1202 1206 1204
f 1204 1206 1207
f 1204 1207 1208
f 1208 1207 1209
f 1208 1209 1210
f 1200 1199 1211
f 1211 1199 1212
f 1211 1212 1213
f 1200 1214 1204
f 1204 1214 1215
f 1204 1215 1205
f 1198 1200 1216
f 1216 1200 1217
f 1216 1217 1218
f 1219 1220 1221
f 1221 1220 1222
f 1221 1222 1223
f 1223 1222 1214
f 1223 1214 1224
f 1224 1214 1200
f 1224 1200 1225
f 1225 1200 1211
f 1226 14 186
f 1227 1228 1229
f 1230 1231 1232
f 1232 1233 1230
f 1230 1233 1234
f 1230 1234 1235
f 1235 1234 1236
f 1237 1238 1239
f 1239 1238 1240
f 1239 1240 1241
f 1241 1240 1242
f 1241 1242 1243
f 1243 1242 1244
f 1243 1244 1245
f 1245 1244 1246
f 1245 1246 1247
f 1247 1246 1248
f 1247 1248 1249
f 1249 1248 1250
f 1227 1251 1228
f 1228 1251 1252
f 1228 1252 1237
f 1237 1252 1253
f 1237 1253 1238
f 1254 1255 1229
f 1229 1255 1256
f 1229 1256 1227
f 1257 1258 1259
f 1259 1258 1260
f 1259 1260 1261
f 1171 1173 1262
f 1263 1146 1145
f 5 183 1264
f 1264 183 182
f 1264 182 181
f 1264 1265 5
f 5 1265 1266
f 5 1266 6
f 6 1266 1267
f 6 1267 177
f 177 1267 1268
f 1269 173 1270
f 1270 173 172
f 1270 172 1268
f 1268 172 178
f 1268 178 177
f 1271 168 1272
f 1272 168 169
f 1272 169 1273
f 1273 169 171
f 1273 171 1274
f 1274 171 176
f 1274 176 1269
f 1269 176 175
f 1269 175 173
f 1275 161 1276
f 1276 161 166
f 1276 166 1277
f 1277 166 165
f 1277 165 1278
f 1278 165 164
f 1278 164 1279
f 1279 164 163
f 1279 163 1280
f 1280 163 162
f 1280 162 1271
f 1271 162 167
f 1271 167 168
f 1281 152 1282
f 1282 152 151
f 1282 151 1283
f 1283 151 157
f 1283 157 1284
f 1284 157 156
f 1284 156 1285
f 1285 156 155
f 1285 155 1286
f 1286 155 154
f 1286 154 1287
f 1287 154 158
f 1287 158 1288
f 1288 158 159
f 1288 159 1275
f 1275 159 160
f 1275 160 161
f 1289 145 1290
f 1290 145 144
f 1290 144 1291
f 1291 144 147
f 1291 147 1281
f 1281 147 153
f 1281 153 152
f 150 149 1289
f 1289 149 148
f 1289 148 145
f 1289 1292 150
f 150 1292 1293
f 150 1293 8
f 8 1293 1294
f 8 1294 9
f 9 1294 1295
f 9 1295 142
f 142 1295 1296
f 142 1296 143
f 143 1296 1297
f 143 1297 141
f 141 1297 1298
f 141 1298 136
f 136 1298 1299
f 136 1299 137
f 137 1299 1300
f 137 1300 139
f 139 1300 1301
f 1263 1145 1302
f 1302 1145 1144
f 1302 1144 1303
f 1303 1144 1126
f 1303 1126 1304
f 1304 1126 1125
f 1304 1125 1305
f 1305 1125 1143
f 1305 1143 1306
f 1306 1143 1155
f 1306 1155 1307
f 1307 1155 1154
f 1307 1154 1308
f 1308 1154 1153
f 1308 1153 1309
f 1309 1153 1132
f 1309 1132 1310
f 1310 1132 1131
f 1310 1131 1311
f 1311 1131 1193
f 1311 1193 1312
f 1312 1193 1192
f 1312 1192 1313
f 1313 1192 1191
f 1313 1191 1314
f 1314 1191 1188
f 1314 1188 1315
f 1315 1188 1187
f 1315 1187 1316
f 1316 1187 1186
f 1316 1186 1317
f 1317 1186 1177
f 1317 1177 1318
f 1318 1177 1176
f 1318 1176 1319
f 1319 1176 1182
f 1319 1182 1320
f 1320 1182 1190
f 1320 1190 1321
f 1321 1190 1189
f 1321 1189 1322
f 1322 1189 1180
f 1322 1180 1323
f 1323 1180 1179
f 1323 1179 1324
f 1324 1179 1178
f 1324 1178 1325
f 1325 1178 1159
f 1325 1159 1326
f 1326 1159 1157
f 1326 1157 1327
f 1327 1157 1156
f 1327 1156 1328
f 1328 1156 1185
f 1328 1185 1329
f 1329 1185 1184
f 1329 1184 1330
f 1330 1184 1183
f 1330 1183 1331
f 1331 1183 1170
f 1331 1170 1332
f 1332 1170 1169
f 1332 1169 1333
f 1333 1169 1168
f 1333 1168 1334
f 1334 1168 1167
f 1334 1167 1335
f 1335 1167 1166
f 1335 1166 1336
f 1336 1166 1165
f 1336 1165 1337
f 1337 1165 1164
f 1337 1164 1338
f 1338 1164 1162
f 1338 1162 1339
f 1339 1162 1161
f 1339 1161 1340
f 1340 1161 1171
f 1340 1171 1341
f 1341 1171 1262
f 1341 1262 1257
f 1257 1262 1342
f 1257 1342 1258
f 1343 135 1344
f 1344 135 134
f 1344 134 1345
f 1345 134 132
f 1345 132 1346
f 1346 132 131
f 1346 131 1301
f 1301 131 140
f 1301 140 139
f 1260 1255 1261
f 1261 1255 1254
f 1261 1254 1259
f 1259 1254 1347
f 1259 1347 1257
f 1257 1347 1348
f 1257 1348 1341
f 1341 1348 1349
f 1341 1349 1340
f 1340 1349 1350
f 1340 1350 1339
f 1339 1350 1351
f 1339 1351 1338
f 1338 1351 1352
f 1338 1352 1337
f 1337 1352 1353
f 1337 1353 1336
f 1336 1353 1354
f 1336 1354 1335
f 1335 1354 1355
f 1335 1355 1334
f 1334 1355 1356
f 1334 1356 1333
f 1333 1356 1357
f 1333 1357 1332
f 1332 1357 1358
f 1332 1358 1331
f 1331 1358 1359
f 1331 1359 1330
f 1330 1359 1360
f 1330 1360 1329
f 1329 1360 1361
f 1329 1361 1328
f 1328 1361 1362
f 1328 1362 1327
f 1327 1362 1363
f 1327 1363 1326
f 1326 1363 1364
f 1326 1364 1325
f 1325 1364 1365
f 1325 1365 1324
f 1324 1365 1366
f 1324 1366 1323
f 1323 1366 1367
f 1323 1367 1322
f 1322 1367 1368
f 1322 1368 1321
f 1321 1368 1369
f 1321 1369 1320
f 1320 1369 1370
f 1320 1370 1319
f 1319 1370 1371
f 1319 1371 1318
f 1318 1371 1372
f 1318 1372 1317
f 1317 1372 1373
f 1317 1373 1316
f 1316 1373 1374
f 1316 1374 1315
f 1315 1374 1375
f 1315 1375 1314
f 1314 1375 1376
f 1314 1376 1313
f 1313 1376 1377
f 1313 1377 1312
f 1312 1377 1378
f 1312 1378 1311
f 1311 1378 1379
f 1311 1379 1310
f 1310 1379 1380
f 1310 1380 1309
f 1309 1380 1381
f 1309 1381 1308
f 1308 1381 1382
f 1308 1382 1307
f 1307 1382 1383
f 1307 1383 1306
f 1306 1383 1384
f 1306 1384 1305
f 1305 1384 1385
f 1305 1385 1304
f 1304 1385 1386
f 1304 1386 1303
f 1303 1386 1387
f 1303 1387 1302
f 1302 1387 1388
f 1302 1388 1263
f 1263 1388 1389
f 12 11 1390
f 1390 11 119
f 1390 119 1391
f 1391 119 118
f 1391 118 1392
f 1392 118 117
f 1392 117 1393
f 1393 117 116
f 1393 116 1394
f 1394 116 120
f 1394 120 1395
f 1395 120 121
f 1395 121 1396
f 1396 121 122
f 1396 122 1397
f 1397 122 123
f 1397 123 1398
f 1398 123 124
f 1398 124 1399
f 1399 124 129
f 1399 129 1400
f 1400 129 128
f 1400 128 1401
f 1401 128 127
f 1401 127 1402
f 1402 127 126
f 1402 126 1403
f 1403 126 125
f 1403 125 1343
f 1343 125 130
f 1343 130 135
f 12 1390 186
f 186 1390 1404
f 186 1404 1226
f 1146 1405 1151
f 1151 1405 1406
f 1151 1406 1152
f 1152 1406 1407
f 1152 1407 1129
f 1129 1407 1232
f 1129 1232 1150
f 1150 1232 1231
f 1150 1231 1149
f 1405 1408 1406
f 1406 1408 1409
f 1406 1409 1407
f 1407 1409 1410
f 1407 1410 1232
f 1232 1410 1411
f 1232 1411 1233
f 1233 1411 1412
f 1233 1412 1234
f 1234 1412 1250
f 1234 1250 1236
f 1236 1250 1248
f 1408 1413 1409
f 1409 1413 1226
f 1409 1226 1410
f 1410 1226 1404
f 1410 1404 1411
f 1411 1404 1390
f 1411 1390 1412
f 1412 1390 1391
f 1412 1391 1250
f 1250 1391 1392
f 1250 1392 1249
f 1249 1392 1393
f 1249 1393 1247
f 1247 1393 1394
f 1247 1394 1245
f 1245 1394 1395
f 1245 1395 1243
f 1243 1395 1396
f 1243 1396 1241
f 1241 1396 1397
f 1241 1397 1239
f 1239 1397 1398
f 1239 1398 1237
f 1237 1398 1399
f 1237 1399 1228
f 1228 1399 1400
f 1228 1400 1229
f 1229 1400 1401
f 1229 1401 1254
f 1254 1401 1402
f 1254 1402 1347
f 1347 1402 1403
f 1347 1403 1348
f 1348 1403 1343
f 1348 1343 1349
f 1349 1343 1344
f 1349 1344 1350
f 1350 1344 1345
f 1350 1345 1351
f 1351 1345 1346
f 1351 1346 1352
f 1352 1346 1301
f 1352 1301 1353
f 1353 1301 1300
f 1353 1300 1354
f 1354 1300 1299
f 1354 1299 1355
f 1355 1299 1298
f 1355 1298 1356
f 1356 1298 1297
f 1356 1297 1357
f 1357 1297 1296
f 1357 1296 1358
f 1358 1296 1295
f 1358 1295 1359
f 1359 1295 1294
f 1359 1294 1360
f 1360 1294 1293
f 1360 1293 1361
f 1361 1293 1292
f 1361 1292 1362
f 1362 1292 1289
f 1362 1289 1363
f 1363 1289 1290
f 1363 1290 1364
f 1364 1290 1291
f 1364 1291 1365
f 1365 1291 1281
f 1365 1281 1366
f 1366 1281 1282
f 1366 1282 1367
f 1367 1282 1283
f 1367 1283 1368
f 1368 1283 1284
f 1368 1284 1369
f 1369 1284 1285
f 1369 1285 1370
f 1370 1285 1286
f 1370 1286 1371
f 1371 1286 1287
f 1371 1287 1372
f 1372 1287 1288
f 1372 1288 1373
f 1373 1288 1275
f 1373 1275 1374
f 1374 1275 1276
f 1374 1276 1375
f 1375 1276 1277
f 1375 1277 1376
f 1376 1277 1278
f 1376 1278 1377
f 1377 1278 1279
f 1377 1279 1378
f 1378 1279 1280
f 1378 1280 1379
f 1379 1280 1271
f 1379 1271 1380
f 1380 1271 1272
f 1380 1272 1381
f 1381 1272 1273
f 1381 1273 1382
f 1382 1273 1274
f 1382 1274 1383
f 1383 1274 1269
f 1383 1269 1384
f 1384 1269 1270
f 1384 1270 1385
f 1385 1270 1268
f 1385 1268 1386
f 1386 1268 1267
f 1386 1267 1387
f 1387 1267 1266
f 1387 1266 1388
f 1388 1266 1265
f 1388 1265 1389
f 1389 1265 1264
f 1146 1263 1405
f 1405 1263 1389
f 1405 1389 1408
f 1408 1389 1264
f 1408 1264 1413
f 1413 1264 181
f 1413 181 1226
f 1226 181 15
f 1226 15 14
f 1218 1414 1415
f 1105 1213 1106
f 1106 1213 1212
f 1106 1212 1163
f 1163 1212 1199
f 1163 1199 1172
f 1172 1199 1198
f 1172 1198 1174
f 1174 1198 1216
f 1174 1216 1175
f 1216 1218 1175
f 1175 1218 1415
f 1175 1415 1138
f 1138 1415 1416
f 1138 1416 1137
f 1137 1416 1417
f 1137 1417 1121
f 1121 1417 1418
f 1121 1418 1122
f 1122 1418 1419
f 1122 1419 1123
f 1123 1419 1420
f 1123 1420 1124
f 1124 1420 1421
f 1124 1421 1105
f 1105 1421 1422
f 1105 1422 1213
f 1213 1422 1423
f 1220 1424 1425
f 1130 1203 1134
f 1134 1203 1205
f 1134 1205 1135
f 1135 1205 1215
f 1135 1215 1136
f 1136 1215 1214
f 1136 1214 1102
f 1102 1214 1222
f 1102 1222 1103
f 1222 1220 1103
f 1103 1220 1425
f 1103 1425 1104
f 1104 1425 1426
f 1104 1426 1095
f 1095 1426 1427
f 1095 1427 1108
f 1108 1427 1428
f 1108 1428 1109
f 1109 1428 1429
f 1109 1429 1110
f 1110 1429 1430
f 1110 1430 1142
f 1142 1430 1431
f 1142 1431 1130
f 1130 1431 1432
f 1130 1432 1203
f 1203 1432 1433
f 1211 1434 1435
f 1436 1219 1133
f 1133 1219 1181
f 1181 1219 1221
f 1181 1221 1160
f 1160 1221 1223
f 1160 1223 1158
f 1158 1223 1224
f 1158 1224 1107
f 1107 1224 1225
f 1107 1225 1118
f 1225 1211 1118
f 1118 1211 1435
f 1118 1435 1119
f 1119 1435 1437
f 1119 1437 1120
f 1120 1437 1438
f 1120 1438 1098
f 1098 1438 1439
f 1098 1439 1099
f 1099 1439 1440
f 1099 1440 1100
f 1100 1440 1441
f 1100 1441 1101
f 1101 1441 1442
f 1101 1442 1133
f 1133 1442 1443
f 1133 1443 1436
f 1201 1444 1445
f 1446 1210 1147
f 1147 1210 1148
f 1148 1210 1209
f 1148 1209 1128
f 1128 1209 1207
f 1128 1207 1127
f 1127 1207 1206
f 1127 1206 1141
f 1141 1206 1202
f 1141 1202 1140
f 1202 1201 1140
f 1140 1201 1445
f 1140 1445 1139
f 1139 1445 1447
f 1139 1447 1112
f 1112 1447 1448
f 1112 1448 1113
f 1113 1448 1449
f 1113 1449 1117
f 1117 1449 1450
f 1117 1450 1116
f 1116 1450 1451
f 1116 1451 1114
f 1114 1451 1452
f 1114 1452 1147
f 1147 1452 1453
f 1147 1453 1446
f 1342 1262 1200
f 1204 1231 1230
f 1255 1260 1200
f 1200 1260 1258
f 1200 1258 1342
f 1204 1230 1200
f 1200 1230 1235
f 1200 1235 1236
f 1238 1253 1200
f 1200 1253 1252
f 1200 1252 1251
f 1251 1227 1200
f 1200 1227 1256
f 1200 1256 1255
f 1236 1248 1200
f 1200 1248 1246
f 1200 1246 1244
f 1244 1242 1200
f 1200 1242 1240
f 1200 1240 1238
f 1 1454 2
f 2 1454 1217
f 2 1217 1173
f 1173 1217 1200
f 1173 1200 1262
f 1455 1196 1208
f 1208 1196 1115
f 1208 1115 1204
f 1204 1115 1149
f 1204 1149 1231
f 1436 1424 1219
f 1219 1424 1220
f 1423 1434 1213
f 1213 1434 1211
f 1454 1414 1217
f 1217 1414 1218
f 1446 1455 1210
f 1210 1455 1208
f 1433 1444 1203
f 1203 1444 1201
f 1418 1417 3
f 3 1417 1
f 1414 1454 1415
f 1415 1454 1
f 1415 1 1416
f 1416 1 1417
f 1455 1446 1196
f 1196 1446 1453
f 1453 1452 1196
f 1196 1452 1451
f 1196 1451 1194
f 1194 1451 1450
f 1426 1197 1427
f 1427 1197 1195
f 1427 1195 1428
f 1421 1420 3
f 3 1420 1419
f 3 1419 1418
f 1425 1424 1436
f 1450 1449 1194
f 1194 1449 1448
f 1194 1448 1447
f 1440 1197 1441
f 1441 1197 1426
f 1441 1426 1442
f 1442 1426 1425
f 1442 1425 1443
f 1443 1425 1436
f 1431 1430 1195
f 1195 1430 1429
f 1195 1429 1428
f 1444 1433 1445
f 1445 1433 1432
f 1445 1432 1447
f 1447 1432 1431
f 1447 1431 1194
f 1194 1431 1195
f 1435 1434 1423
f 1440 1439 1197
f 1197 1439 1438
f 1197 1438 3
f 3 1438 1437
f 3 1437 1421
f 1421 1437 1435
f 1421 1435 1422
f 1422 1435 1423

