# https://github.com/mikedh/trimesh
v -0.06680710 0.06568519 0.02326935
v -0.06703691 0.04318263 0.02367297
v -0.06709356 0.04329168 -0.02323577
v -0.07309271 0.06821965 -0.02226670
v -0.07947930 0.06796435 0.01731932
v -0.06723098 0.07423435 -0.02076449
v -0.07235246 0.06558049 0.02215104
v -0.07838229 0.03582268 -0.01047205
v -0.06731854 0.06836706 -0.02261701
v -0.07307328 0.07424638 0.02056647
v -0.07918947 0.07345611 -0.01524335
v -0.07713597 0.04326325 0.01902274
v -0.07031708 0.03662168 -0.02326875
v -0.06756140 0.07943071 -0.01001632
v -0.07703354 0.07064161 0.01938828
v -0.07737850 0.07268465 -0.01880833
v -0.08035446 0.07299870 -0.00996263
v -0.07179661 0.04293027 0.02196974
v -0.07946041 0.04342150 0.01647357
v -0.07468470 0.07418184 0.02008877
v -0.07535940 0.04624110 -0.02227622
v -0.07941564 0.06260891 -0.01531954
v -0.07977787 0.04669088 -0.00018127
v -0.07825484 0.07417047 0.01649846
v -0.07614651 0.03758606 -0.02068696
v -0.07974477 0.04339990 0.00675721
v -0.07857668 0.03696534 -0.00974654
v -0.07475776 0.03615432 -0.02173927
f 1 2 3
f 6 1 3
f 7 2 1
f 9 6 3
f 9 4 6
f 10 7 1
f 13 3 2
f 13 2 8
f 13 9 3
f 13 4 9
f 14 10 1
f 14 1 6
f 15 12 7
f 15 5 12
f 16 6 4
f 16 14 6
f 16 11 14
f 17 14 11
f 18 2 7
f 18 7 12
f 18 12 8
f 18 8 2
f 19 12 5
f 19 8 12
f 19 5 17
f 20 15 7
f 20 7 10
f 20 10 14
f 21 16 4
f 21 4 13
f 22 17 11
f 22 11 16
f 22 16 21
f 24 20 14
f 24 14 17
f 24 17 5
f 24 5 15
f 24 15 20
f 25 22 21
f 25 8 22
f 26 19 17
f 26 17 23
f 26 8 19
f 27 22 8
f 27 26 23
f 27 8 26
f 27 23 17
f 27 17 22
f 28 25 21
f 28 21 13
f 28 13 8
f 28 8 25

