# https://github.com/mikedh/trimesh
v -0.02550147 0.02412507 0.00295321
v -0.02855925 -0.06221601 0.00282318
v -0.02534928 0.00110969 -0.02268736
v -0.07025865 0.04323311 -0.02312167
v -0.07959182 0.04322629 0.00297102
v -0.06900877 -0.06216338 -0.02195447
v -0.03644264 0.04301510 -0.01980898
v -0.02452382 -0.02498877 0.00319434
v -0.03594086 -0.06236739 -0.02212030
v -0.07711712 0.03701581 -0.01834771
v -0.07333777 -0.06258721 0.00298596
v -0.02521248 0.02094803 -0.01696732
v -0.04814168 0.04293966 -0.02242694
v -0.05115597 0.04320386 0.00296819
v -0.02620278 -0.01993852 -0.02098252
v -0.07063604 -0.02388350 -0.02253883
v -0.07895924 0.04321366 -0.00974872
v -0.07334387 -0.05273962 -0.01253813
v -0.07670952 -0.00480586 0.00331158
v -0.07358128 -0.05916354 0.00317220
v -0.03354274 0.04300521 -0.00988552
v -0.02531885 0.01815044 -0.01987054
v -0.02613201 -0.01741382 -0.02208598
v -0.07242864 0.03741427 -0.02306395
v -0.07023140 -0.06194584 -0.02117417
v -0.07642516 0.00167090 -0.01586894
v -0.07308139 -0.04039475 -0.01799227
v -0.07642007 -0.00436454 -0.00954344
v -0.07653575 0.02070319 -0.01790039
f 11 9 2
f 11 6 9
f 12 8 3
f 12 1 8
f 13 7 3
f 13 3 4
f 13 4 7
f 14 8 1
f 14 7 4
f 14 4 5
f 15 8 2
f 15 2 9
f 16 9 6
f 16 4 3
f 16 3 9
f 17 5 4
f 17 4 10
f 19 14 5
f 19 8 14
f 20 11 2
f 20 2 8
f 20 8 19
f 20 19 5
f 20 18 11
f 21 12 7
f 21 1 12
f 21 14 1
f 21 7 14
f 22 12 3
f 22 3 7
f 22 7 12
f 23 3 8
f 23 8 15
f 23 15 9
f 23 9 3
f 24 16 10
f 24 10 4
f 24 4 16
f 25 16 6
f 25 10 16
f 25 6 11
f 25 11 18
f 26 17 10
f 27 25 18
f 27 18 26
f 28 20 5
f 28 5 17
f 28 17 26
f 28 26 18
f 28 18 20
f 29 27 26
f 29 26 10
f 29 10 25
f 29 25 27

