# https://github.com/mikedh/trimesh
v 0.12526316 0.02541828 0.00303869
v 0.12826210 0.00738731 0.00265560
v 0.12465556 0.02551018 -0.01984505
v 0.02581112 0.01058681 -0.02243702
v 0.02579573 0.00472801 0.00296819
v 0.12615166 0.00862592 -0.01905831
v 0.02575509 0.02472734 0.00275592
v 0.12809049 0.01716739 -0.01287566
v 0.08030319 0.00472801 0.00296819
v 0.07068155 0.00472719 -0.02252579
v 0.07101885 0.02714330 0.00284930
v 0.02594247 0.02377899 -0.01449916
v 0.12776871 0.01705067 -0.00390332
v 0.12827939 0.01391720 -0.01602053
v 0.12786956 0.01080647 0.00276199
v 0.04191897 0.01091954 -0.02230757
v 0.08131171 0.00629650 -0.02217782
v 0.02590673 0.00484788 -0.02268211
v 0.06095979 0.00446066 -0.02269960
v 0.12819718 0.00829752 -0.01520839
v 0.12317440 0.02741044 0.00263485
v 0.02583619 0.01931773 -0.02043090
v 0.09038810 0.02658012 -0.01535998
v 0.06160735 0.02664946 -0.00645904
v 0.06094642 0.00758627 -0.02240771
v 0.04204000 0.02369947 -0.01721387
v 0.11244575 0.02659429 -0.01838666
v 0.06153015 0.02692066 -0.00013528
v 0.06774215 0.02672123 -0.00914859
v 0.02938193 0.02136674 -0.01917877
v 0.12385569 0.02625584 -0.01882087
v 0.07773706 0.02662260 -0.01216955
f 7 5 1
f 7 4 5
f 8 3 1
f 9 1 5
f 10 2 9
f 11 7 1
f 13 8 1
f 13 2 8
f 14 6 3
f 14 3 8
f 14 8 2
f 15 9 2
f 15 1 9
f 15 13 1
f 15 2 13
f 16 4 3
f 17 10 3
f 17 3 6
f 17 6 10
f 18 5 4
f 19 10 9
f 19 9 5
f 19 5 18
f 19 18 4
f 19 4 16
f 19 3 10
f 20 10 6
f 20 2 10
f 20 14 2
f 20 6 14
f 21 11 1
f 21 1 3
f 22 3 4
f 22 4 7
f 22 7 12
f 24 12 7
f 25 19 16
f 25 16 3
f 25 3 19
f 26 12 23
f 27 26 23
f 28 24 7
f 28 7 11
f 29 12 24
f 29 24 28
f 29 28 11
f 29 27 23
f 29 11 21
f 29 21 27
f 30 22 12
f 30 12 26
f 30 26 27
f 30 27 3
f 30 3 22
f 31 27 21
f 31 21 3
f 31 3 27
f 32 29 23
f 32 23 12
f 32 12 29

