####
#
# OBJ File Generated by Meshlab
#
####
# Object d12_4cm_mmscale.obj
#
# Vertices: 20
# Faces: 36
#
####
vn -0.5773503 0.7946544 -0.1875925
v -0.0129595 0.0178771 -0.0041970
vn 0.0000000 0.7946545 -0.6070620
v 0.0000597 0.0178771 -0.0136560
vn -0.9341723 0.1875926 -0.3035311
v -0.0208000 0.0045381 -0.0067445
vn 0.0000000 0.1875926 -0.9822469
v 0.0000597 0.0045381 -0.0219000
vn -0.5773503 -0.1875925 -0.7946544
v -0.0128323 -0.0038396 -0.0177111
vn 0.5773503 0.7946544 -0.1875925
v 0.0130790 0.0178771 -0.0041970
vn 0.9341724 0.1875925 -0.3035311
v 0.0209194 0.0045381 -0.0067445
vn 0.5773504 -0.1875926 -0.7946544
v 0.0129517 -0.0038396 -0.0177111
vn 0.5773503 -0.7946544 0.1875925
v 0.0122435 -0.0186000 0.0039920
vn 0.0000000 -0.7946546 0.6070619
v 0.0000597 -0.0186000 0.0128440
vn 0.3568222 -0.7946545 -0.4911234
v 0.0075897 -0.0186000 -0.0103310
vn -0.5773503 -0.7946544 0.1875925
v -0.0121241 -0.0186000 0.0039920
vn -0.3568222 -0.7946545 -0.4911234
v -0.0074703 -0.0186000 -0.0103310
vn 0.3568221 0.7946546 0.4911233
v 0.0081061 0.0178771 0.0111080
vn -0.3568221 0.7946546 0.4911233
v -0.0079866 0.0178771 0.0111080
vn 0.5773504 0.1875926 0.7946544
v 0.0129517 0.0045381 0.0177775
vn -0.5773503 0.1875925 0.7946544
v -0.0128323 0.0045381 0.0177775
vn 0.0000000 -0.1875926 0.9822469
v 0.0000597 -0.0038396 0.0219664
vn -0.9341724 -0.1875925 0.3035311
v -0.0208000 -0.0038396 0.0068109
vn 0.9341724 -0.1875925 0.3035311
v 0.0209194 -0.0038396 0.0068109
# 20 vertices, 0 vertices normals

f 1//1 2//2 3//3
f 3//3 2//2 4//4
f 3//3 4//4 5//5
f 2//2 6//6 4//4
f 4//4 6//6 7//7
f 4//4 7//7 8//8
f 9//9 10//10 11//11
f 11//11 10//10 12//12
f 11//11 12//12 13//13
f 14//14 15//15 16//16
f 16//16 15//15 17//17
f 16//16 17//17 18//18
f 15//15 1//1 17//17
f 17//17 1//1 3//3
f 17//17 3//3 19//19
f 6//6 14//14 7//7
f 7//7 14//14 16//16
f 7//7 16//16 20//20
f 11//11 13//13 8//8
f 8//8 13//13 5//5
f 8//8 5//5 4//4
f 2//2 1//1 6//6
f 6//6 1//1 15//15
f 6//6 15//15 14//14
f 9//9 11//11 20//20
f 20//20 11//11 8//8
f 20//20 8//8 7//7
f 10//10 9//9 18//18
f 18//18 9//9 20//20
f 18//18 20//20 16//16
f 12//12 10//10 19//19
f 19//19 10//10 18//18
f 19//19 18//18 17//17
f 13//13 12//12 5//5
f 5//5 12//12 19//19
f 5//5 19//19 3//3
# 36 faces, 0 coords texture

# End of File
