####
#
# OBJ File Generated by Meshlab
#
####
# Object d20_33mmedge.obj
#
# Vertices: 12
# Faces: 20
#
####
vn 0.8506509 -0.4472136 0.2763932
v 0.0266988 -0.0140497 0.0086486
vn 0.5257311 0.4472136 0.7236068
v 0.0165005 0.0140237 0.0226853
vn 0.0000000 -0.4472136 0.8944272
v -0.0000006 -0.0140497 0.0280468
vn 0.0000000 -1.0000000 0.0000000
v -0.0000006 -0.0314000 -0.0000266
vn -0.8506508 -0.4472136 0.2763931
v -0.0267000 -0.0140497 0.0086486
vn -0.8506508 0.4472136 -0.2763932
v -0.0267000 0.0140237 -0.0087018
vn -0.5257311 -0.4472136 -0.7236068
v -0.0165017 -0.0140497 -0.0227385
vn 0.5257311 -0.4472136 -0.7236068
v 0.0165005 -0.0140497 -0.0227385
vn 0.8506508 0.4472136 -0.2763932
v 0.0266988 0.0140237 -0.0087018
vn 0.0000000 0.4472136 -0.8944272
v -0.0000006 0.0140237 -0.0281000
vn -0.5257311 0.4472136 0.7236068
v -0.0165017 0.0140237 0.0226853
vn 0.0000000 1.0000000 0.0000000
v -0.0000006 0.0313740 -0.0000266
# 12 vertices, 0 vertices normals

f 1//1 2//2 3//3
f 4//4 3//3 5//5
f 5//5 6//6 7//7
f 8//8 9//9 1//1
f 7//7 10//10 8//8
f 3//3 2//2 11//11
f 2//2 9//9 12//12
f 9//9 10//10 12//12
f 10//10 6//6 12//12
f 6//6 11//11 12//12
f 2//2 12//12 11//11
f 9//9 2//2 1//1
f 10//10 9//9 8//8
f 7//7 6//6 10//10
f 11//11 6//6 5//5
f 5//5 3//3 11//11
f 1//1 3//3 4//4
f 8//8 1//1 4//4
f 7//7 8//8 4//4
f 5//5 7//7 4//4
# 20 faces, 0 coords texture

# End of File
