####
#
# OBJ File Generated by Meshlab
#
####
# Object d4_4cm_mmscale.obj
#
# Vertices: 4
# Faces: 4
#
####
vn 0.8164963 -0.3333335 -0.4714049
v 0.0204248 -0.0083000 -0.0117000
vn 0.0000000 -0.3333336 0.9428090
v 0.0000124 -0.0083000 0.0236553
vn -0.8164963 -0.3333335 -0.4714049
v -0.0204000 -0.0083000 -0.0117000
vn 0.0000000 1.0000000 0.0000000
v 0.0000124 0.0250333 0.0000851
# 4 vertices, 0 vertices normals

f 1//1 2//2 3//3
f 4//4 2//2 1//1
f 4//4 3//3 2//2
f 4//4 1//1 3//3
# 4 faces, 0 coords texture

# End of File
