####
#
# OBJ File Generated by Meshlab
#
####
# Object d6_4cm_mmscale.obj
#
# Vertices: 8
# Faces: 12
#
####
vn 0.5773503 0.5773503 -0.5773503
v 0.0200000 0.0200000 -0.0200000
vn -0.5773503 0.5773503 -0.5773503
v -0.0200000 0.0200000 -0.0200000
vn 0.5773503 0.5773503 0.5773503
v 0.0200000 0.0200000 0.0200000
vn -0.5773503 0.5773503 0.5773503
v -0.0200000 0.0200000 0.0200000
vn -0.5773503 -0.5773503 0.5773503
v -0.0200000 -0.0200000 0.0200000
vn -0.5773503 -0.5773503 -0.5773503
v -0.0200000 -0.0200000 -0.0200000
vn 0.5773503 -0.5773503 0.5773503
v 0.0200000 -0.0200000 0.0200000
vn 0.5773503 -0.5773503 -0.5773503
v 0.0200000 -0.0200000 -0.0200000
# 8 vertices, 0 vertices normals

f 1//1 2//2 3//3
f 3//3 2//2 4//4
f 5//5 6//6 7//7
f 7//7 6//6 8//8
f 3//3 4//4 7//7
f 7//7 4//4 5//5
f 6//6 2//2 8//8
f 8//8 2//2 1//1
f 6//6 5//5 2//2
f 2//2 5//5 4//4
f 8//8 1//1 7//7
f 7//7 1//1 3//3
# 12 faces, 0 coords texture

# End of File
