####
#
# OBJ File Generated by Meshlab
#
####
# Object d8_5cm_mmscale.obj
#
# Vertices: 6
# Faces: 8
#
####
vn 0.0000000 -1.0000000 0.0000000
v 0.0000000 -0.0250000 0.0000000
vn 0.0000000 0.0000000 -1.0000000
v 0.0000000 0.0000000 -0.0250000
vn 1.0000000 0.0000000 0.0000000
v 0.0250000 0.0000000 0.0000000
vn 0.0000000 0.0000000 1.0000000
v 0.0000000 0.0000000 0.0250000
vn 0.0000000 1.0000000 0.0000000
v 0.0000000 0.0250000 0.0000000
vn -1.0000000 0.0000000 0.0000000
v -0.0250000 0.0000000 0.0000000
# 6 vertices, 0 vertices normals

f 1//1 2//2 3//3
f 4//4 3//3 5//5
f 1//1 4//4 6//6
f 6//6 4//4 5//5
f 6//6 2//2 1//1
f 2//2 5//5 3//3
f 2//2 6//6 5//5
f 4//4 1//1 3//3
# 8 faces, 0 coords texture

# End of File
