# https://github.com/mikedh/trimesh
v 0.06537758 -0.03124393 0.01505235
v 0.06964225 -0.03678621 0.01076838
v 0.06582353 -0.02723197 -0.01500725
v 0.02412167 -0.02437213 -0.01547956
v 0.01630539 -0.04234040 0.01267935
v 0.02450923 -0.02344256 0.01502676
v 0.06968821 -0.02983259 0.00993459
v 0.06536251 -0.03848599 0.01407278
v 0.03838012 -0.04222490 -0.01073635
v 0.06534209 -0.02461603 -0.01026741
v 0.01633519 -0.03697188 0.01609738
v 0.06879265 -0.03097557 0.01308872
v 0.06976393 -0.03565212 -0.01324527
v 0.02471893 -0.04300735 -0.00777943
v 0.06646869 -0.04107980 0.00889320
v 0.02468669 -0.02339291 -0.01507889
v 0.06620171 -0.02649987 0.01148244
v 0.02460283 -0.02982103 0.01635289
v 0.03931171 -0.03590065 0.01624473
v 0.03608197 -0.03940341 0.01507965
v 0.01634629 -0.03702797 0.01004156
v 0.06964791 -0.03086300 0.01080978
v 0.06875946 -0.03576076 0.01313844
v 0.06974854 -0.03001078 0.00056352
v 0.03835777 -0.03689461 -0.01666385
v 0.01633048 -0.04306442 0.01000155
v 0.06605867 -0.04009843 0.01258664
v 0.05410364 -0.04222955 0.00270359
v 0.06865975 -0.03937365 0.00395312
v 0.06547194 -0.02671614 -0.01443707
v 0.06042494 -0.02996980 -0.01706422
v 0.06039128 -0.02454114 -0.00148164
v 0.06743247 -0.02671216 0.01087830
v 0.06436708 -0.02819834 0.01391276
v 0.02429348 -0.02467847 0.01551665
v 0.06230475 -0.03675915 0.01517153
v 0.04036782 -0.03381810 0.01628334
v 0.01625225 -0.03968465 0.01527577
v 0.06804833 -0.03466618 0.01405849
v 0.06853037 -0.02810203 -0.01268042
v 0.06527118 -0.03997866 -0.01347849
v 0.03104946 -0.03283013 -0.01675491
v 0.04461274 -0.04015472 -0.01430311
v 0.02468825 -0.02762796 -0.01602471
v 0.06446303 -0.04098614 0.01085910
v 0.03720220 -0.04106230 0.01325287
v 0.06897561 -0.03832679 0.01166175
v 0.04359768 -0.04214955 -0.00961757
v 0.06958038 -0.03745800 -0.01182831
v 0.06702919 -0.02535063 -0.01025569
v 0.06500248 -0.02836148 -0.01599758
v 0.06520357 -0.02570578 0.00683930
v 0.06862154 -0.02929315 0.01228408
v 0.06530690 -0.02763540 0.01328628
v 0.06331621 -0.03026574 0.01500672
v 0.03716067 -0.03666649 0.01613025
v 0.06544978 -0.03272267 0.01509568
v 0.06762980 -0.03109470 0.01418193
v 0.06696823 -0.03763941 0.01402385
v 0.06942258 -0.03080555 -0.01367695
v 0.06446799 -0.04114739 -0.00970168
v 0.06607739 -0.03660307 -0.01602217
v 0.03838312 -0.03473312 -0.01714120
v 0.04457683 -0.03935026 -0.01516421
vn 0.21733106 0.20342729 0.95466463
vn 0.97102553 -0.17049367 0.16745547
vn 0.40409899 0.60671605 -0.68454338
vn -0.65368091 0.33722230 -0.67748239
vn -0.63763538 -0.67000616 0.38014847
vn -0.37280270 0.78961993 0.48735872
vn 0.94409743 0.30750299 0.11883579
vn 0.16626832 -0.50219079 0.84862198
vn -0.01918116 -0.92855237 -0.37070552
vn 0.22782641 0.95493788 -0.19023347
vn -0.71418746 0.10460075 0.69209461
vn 0.80551815 0.18511211 0.56291564
vn 0.87172183 -0.18361813 -0.45429664
vn -0.46820104 -0.77134238 -0.43106694
vn 0.39811953 -0.91117884 0.10608470
vn -0.37796540 0.80096567 -0.46432334
vn 0.25342012 0.87544872 0.41154317
vn -0.04730518 0.09030287 0.99479024
vn 0.02372511 -0.13012326 0.99121393
vn 0.02714581 -0.56119135 0.82724082
vn -0.96766208 0.22983293 -0.10395631
vn 0.96706371 0.09581536 0.23581177
vn 0.80815998 -0.14344148 0.57122849
vn 0.96747671 0.25294548 -0.00271960
vn -0.10277436 -0.47369954 -0.87466918
vn -0.69636485 -0.71703599 -0.03058412
vn 0.31708238 -0.78164284 0.53711567
vn 0.05304440 -0.99829343 0.02442388
vn 0.76694477 -0.64155192 -0.01438243
vn 0.23852036 0.82443634 -0.51323752
vn 0.06933140 0.17510165 -0.98210619
vn 0.07730272 0.99566949 0.05163868
vn 0.56458865 0.77137648 0.29362897
vn 0.16939459 0.51945059 0.83754197
vn -0.23801192 0.32334627 0.91585890
vn 0.08416919 -0.25062519 0.96441825
vn 0.03144450 0.03859573 0.99876004
vn -0.66340028 -0.37892970 0.64522272
vn 0.56942386 -0.07161511 0.81891864
vn 0.80442744 0.50589836 -0.31138937
vn 0.30842754 -0.80777153 -0.50237198
vn -0.21697929 -0.22298809 -0.95036640
vn -0.01920064 -0.80203989 -0.59696176
vn -0.55383266 -0.07996257 -0.82877945
vn 0.09090618 -0.95999436 0.26485259
vn 0.03783805 -0.80745017 0.58872108
vn 0.78706997 -0.50372545 0.35606394
vn 0.04452772 -0.99432377 -0.09663091
vn 0.82272669 -0.51755505 -0.23506927
vn 0.62462986 0.76553502 -0.15425197
vn 0.28321572 0.33835903 -0.89738622
vn 0.18975919 0.97723603 0.09487460
vn 0.72477539 0.46010216 0.51284172
vn 0.27855394 0.64283627 0.71356095
vn 0.08178535 0.28754860 0.95426776
vn 0.01526375 -0.26292760 0.96469482
vn 0.21364159 -0.01978127 0.97671182
vn 0.49907089 0.24346790 0.83165595
vn 0.43023289 -0.35618057 0.82947879
vn 0.84952850 0.18743525 -0.49312205
vn 0.28892556 -0.94786606 -0.13443193
vn 0.35492472 -0.32978515 -0.87479723
vn -0.03282024 -0.07113641 -0.99692650
vn -0.01875319 -0.62823469 -0.77779785
f 16//16 6//6 10//10
f 16//16 11//11 6//6
f 19//19 18//18 11//11
f 21//21 16//16 4//4
f 21//21 11//11 16//16
f 22//22 2//2 7//7
f 23//23 22//22 12//12
f 23//23 2//2 22//22
f 24//24 7//7 2//2
f 24//24 2//2 13//13
f 26//26 21//21 4//4
f 27//27 8//8 20//20
f 28//28 26//26 14//14
f 30//30 16//16 10//10
f 30//30 3//3 16//16
f 31//31 4//4 16//16
f 32//32 10//10 6//6
f 35//35 6//6 11//11
f 35//35 11//11 18//18
f 36//36 20//20 8//8
f 37//37 18//18 19//19
f 37//37 19//19 36//36
f 38//38 5//5 20//20
f 38//38 11//11 21//21
f 38//38 26//26 5//5
f 38//38 21//21 26//26
f 39//39 23//23 12//12
f 42//42 25//25 14//14
f 43//43 9//9 14//14
f 43//43 41//41 9//9
f 44//44 26//26 4//4
f 44//44 14//14 26//26
f 44//44 42//42 14//14
f 44//44 4//4 31//31
f 45//45 15//15 27//27
f 45//45 28//28 15//15
f 45//45 26//26 28//28
f 45//45 27//27 5//5
f 45//45 5//5 26//26
f 46//46 27//27 20//20
f 46//46 20//20 5//5
f 46//46 5//5 27//27
f 47//47 27//27 15//15
f 47//47 2//2 23//23
f 47//47 29//29 2//2
f 47//47 15//15 29//29
f 48//48 28//28 14//14
f 48//48 14//14 9//9
f 49//49 13//13 2//2
f 49//49 2//2 29//29
f 50//50 30//30 10//10
f 50//50 3//3 30//30
f 50//50 40//40 3//3
f 50//50 10//10 33//33
f 50//50 33//33 7//7
f 50//50 7//7 24//24
f 50//50 24//24 40//40
f 51//51 31//31 16//16
f 51//51 16//16 3//3
f 52//52 10//10 32//32
f 52//52 33//33 10//10
f 52//52 17//17 33//33
f 52//52 32//32 6//6
f 52//52 6//6 17//17
f 53//53 7//7 33//33
f 53//53 22//22 7//7
f 53//53 12//12 22//22
f 54//54 17//17 6//6
f 54//54 6//6 34//34
f 54//54 53//53 33//33
f 54//54 33//33 17//17
f 55//55 34//34 6//6
f 55//55 1//1 34//34
f 55//55 6//6 35//35
f 55//55 35//35 18//18
f 55//55 37//37 1//1
f 55//55 18//18 37//37
f 56//56 36//36 19//19
f 56//56 20//20 36//36
f 56//56 38//38 20//20
f 56//56 19//19 11//11
f 56//56 11//11 38//38
f 57//57 37//37 36//36
f 57//57 1//1 37//37
f 58//58 39//39 12//12
f 58//58 57//57 39//39
f 58//58 1//1 57//57
f 58//58 12//12 53//53
f 58//58 53//53 54//54
f 58//58 54//54 34//34
f 58//58 34//34 1//1
f 59//59 23//23 39//39
f 59//59 47//47 23//23
f 59//59 8//8 27//27
f 59//59 27//27 47//47
f 59//59 39//39 57//57
f 59//59 57//57 36//36
f 59//59 36//36 8//8
f 60//60 40//40 24//24
f 60//60 24//24 13//13
f 60//60 3//3 40//40
f 60//60 51//51 3//3
f 61//61 15//15 28//28
f 61//61 28//28 48//48
f 61//61 48//48 9//9
f 61//61 9//9 41//41
f 61//61 29//29 15//15
f 61//61 49//49 29//29
f 61//61 41//41 49//49
f 62//62 49//49 41//41
f 62//62 13//13 49//49
f 62//62 31//31 51//51
f 62//62 60//60 13//13
f 62//62 51//51 60//60
f 63//63 25//25 42//42
f 63//63 62//62 25//25
f 63//63 31//31 62//62
f 63//63 44//44 31//31
f 63//63 42//42 44//44
f 64//64 43//43 14//14
f 64//64 14//14 25//25
f 64//64 25//25 62//62
f 64//64 62//62 41//41
f 64//64 41//41 43//43

