# https://github.com/mikedh/trimesh
v 0.01378320 0.00365462 0.01627305
v 0.02412663 0.00404700 0.00249507
v 0.02085675 0.00423546 0.01380924
v 0.00667580 0.00363735 -0.01668707
v 0.00067075 -0.01802254 -0.01066096
v 0.02089700 0.00409166 -0.01475496
v 0.00673884 0.00355629 0.01633999
v 0.01849346 -0.01591430 0.00976480
v 0.02182363 0.00410971 -0.01391195
v 0.01345884 -0.01539537 -0.01633530
v 0.00236320 0.00046829 0.00663447
v 0.02203762 0.00399076 0.01185491
v 0.01258515 -0.01551367 0.01616206
v 0.01853170 -0.01597197 -0.00963288
v 0.00712709 -0.01546648 -0.01608209
v 0.01182004 0.00350500 -0.01726967
v 0.01625516 -0.01560512 -0.01374264
v 0.00244615 0.00047960 -0.00779393
v 0.01717359 -0.01593822 0.01243983
v 0.01772796 0.00383539 0.01526472
v -0.00164451 -0.01799062 0.00566504
v 0.02412579 0.00397273 -0.00260231
v 0.00291061 -0.01805969 0.01385799
v 0.00351596 -0.01630524 -0.01312134
v 0.00349636 0.00043879 -0.01281058
v 0.01423130 -0.01554975 0.01539714
v 0.01986166 0.00402624 0.01450522
v -0.00176784 -0.01773424 -0.00157792
v 0.00343668 0.00058299 0.01259223
v 0.02302945 0.00403972 -0.00885852
v 0.00658384 -0.01748095 0.01619978
v 0.00438449 0.00041618 -0.01459498
v -0.00070417 -0.01776811 -0.00782912
v 0.00451639 0.00048941 0.01465722
v 0.00493694 -0.01776699 0.01537462
v 0.00518608 0.00053074 0.01541707
vn 0.08625910 0.60012891 0.79523874
vn 0.81796949 0.57142949 0.06628913
vn 0.56822729 0.62153005 0.53927557
vn -0.42034899 0.63960984 -0.64358837
vn -0.55221291 -0.68601378 -0.47375732
vn 0.40417052 0.61344794 -0.67847463
vn -0.36340033 0.65224274 0.66522147
vn 0.69579140 -0.69758723 0.17101574
vn 0.70613784 0.57007362 -0.41998264
vn 0.25469859 -0.58346103 -0.77116914
vn -0.84760267 0.52741403 0.05834521
vn 0.83550331 0.45178829 0.31276439
vn 0.23440437 -0.38691871 0.89182313
vn 0.67241254 -0.71286405 -0.19921404
vn -0.26038384 -0.48180186 -0.83670020
vn 0.05365631 0.56383671 -0.82414147
vn 0.54192124 -0.68466412 -0.48739759
vn -0.85935660 0.50510872 -0.07982116
vn 0.59670751 -0.67559009 0.43303369
vn 0.22288081 0.51992080 0.82462507
vn -0.78787989 -0.59117748 0.17249484
vn 0.84431775 0.53247578 -0.05997568
vn -0.52250378 -0.69047908 0.50022838
vn -0.62847488 -0.06326025 -0.77525316
vn -0.89579213 0.33073101 -0.29694017
vn 0.46264398 -0.52782823 0.71229061
vn 0.36199288 0.50059309 0.78636360
vn -0.85529679 -0.51446605 -0.06157983
vn -0.88110096 0.37585879 0.28703881
vn 0.79807204 0.58148415 -0.15797847
vn -0.07629411 -0.65185737 0.75449399
vn -0.79689875 0.12664885 -0.59068812
vn -0.82631106 -0.51644927 -0.22470020
vn -0.81978801 0.17595327 0.54496612
vn -0.29758795 -0.70643088 0.64218130
vn -0.65706629 0.07393971 0.75019785
f 6//6 4//4 3//3
f 7//7 1//1 3//3
f 7//7 3//3 4//4
f 9//9 6//6 3//3
f 9//9 3//3 2//2
f 11//11 7//7 4//4
f 12//12 8//8 2//2
f 12//12 2//2 3//3
f 13//13 1//1 7//7
f 15//15 10//10 5//5
f 16//16 4//4 6//6
f 16//16 6//6 10//10
f 16//16 15//15 4//4
f 16//16 10//10 15//15
f 17//17 10//10 6//6
f 17//17 6//6 9//9
f 17//17 9//9 14//14
f 17//17 14//14 5//5
f 17//17 5//5 10//10
f 18//18 11//11 4//4
f 19//19 12//12 3//3
f 19//19 8//8 12//12
f 20//20 1//1 13//13
f 22//22 2//2 8//8
f 22//22 8//8 14//14
f 23//23 14//14 8//8
f 23//23 5//5 14//14
f 23//23 21//21 5//5
f 24//24 15//15 5//5
f 24//24 5//5 4//4
f 24//24 4//4 15//15
f 25//25 18//18 4//4
f 26//26 19//19 3//3
f 27//27 3//3 1//1
f 27//27 1//1 20//20
f 27//27 26//26 3//3
f 27//27 20//20 13//13
f 27//27 13//13 26//26
f 28//28 5//5 21//21
f 28//28 21//21 11//11
f 28//28 11//11 18//18
f 29//29 7//7 11//11
f 29//29 11//11 21//21
f 30//30 22//22 14//14
f 30//30 14//14 9//9
f 30//30 9//9 2//2
f 30//30 2//2 22//22
f 31//31 8//8 19//19
f 31//31 19//19 26//26
f 31//31 26//26 13//13
f 31//31 13//13 7//7
f 32//32 25//25 4//4
f 32//32 4//4 5//5
f 32//32 5//5 25//25
f 33//33 25//25 5//5
f 33//33 5//5 28//28
f 33//33 28//28 18//18
f 33//33 18//18 25//25
f 34//34 7//7 29//29
f 34//34 29//29 21//21
f 34//34 21//21 23//23
f 35//35 23//23 8//8
f 35//35 8//8 31//31
f 35//35 31//31 7//7
f 36//36 34//34 23//23
f 36//36 7//7 34//34
f 36//36 35//35 7//7
f 36//36 23//23 35//35

