# https://github.com/mikedh/trimesh
v 0.07410828 0.05526114 0.02155548
v 0.07783386 0.04175724 0.01537292
v 0.07082506 0.05297667 -0.02468497
v 0.00347222 0.01690772 -0.02475390
v 0.00472228 0.00325455 0.02302699
v 0.01990925 0.00420690 -0.02140500
v 0.06978166 0.06139135 -0.00665656
v 0.06857783 0.04268425 0.02272880
v 0.07255882 0.03788523 -0.02099611
v 0.04635753 0.02897948 -0.02596934
v 0.00023325 0.00337780 -0.01828111
v 0.02754677 0.00938670 0.01795830
v 0.00716777 0.02612107 -0.02281175
v 0.07770392 0.05829737 -0.01394493
v 0.07641279 0.04570738 0.02034812
v 0.00450733 0.02414628 0.02405748
v 0.01078395 0.00785903 -0.02466748
v 0.05894825 0.04575825 -0.02599483
v 0.07089191 0.04009433 -0.02447225
v 0.02155508 0.00388243 -0.01736802
v 0.01770474 0.00820448 0.02292560
v 0.06999372 0.06014936 -0.01906578
v 0.07613786 0.06151700 0.01535472
v 0.07771494 0.04279694 -0.01662869
v 0.07421945 0.04537923 0.02141691
v 0.07350316 0.03913617 0.01885487
v 0.06474627 0.04936854 0.02302899
v -0.00946438 0.01910593 0.00797915
v 0.01709462 0.00405363 -0.02294500
v 0.03759273 0.02874163 -0.02617646
v 0.00416041 0.00358765 -0.02308686
v 0.05583801 0.04469304 -0.02592763
v 0.06955238 0.03775849 -0.02319042
v 0.07007634 0.04281477 -0.02593480
v 0.00150201 0.00334551 -0.02083026
v 0.07095206 0.03485776 -0.01646523
v 0.02466337 0.00913255 0.02064033
v 0.00488047 0.00633816 0.02327430
v 0.07070173 0.06157367 -0.01400622
v 0.07503661 0.05767590 -0.02019690
v 0.07774696 0.05790027 0.01754865
v 0.06846379 0.05866879 0.01900420
v 0.07953672 0.04700350 0.00676856
v 0.07469050 0.04165359 -0.02212064
v 0.06873605 0.04676532 0.02307084
v 0.07622386 0.04207106 0.01916891
v 0.06674887 0.03735840 0.02125716
v -0.00629262 0.01760033 -0.01547637
v -0.00093157 0.00353448 0.01232310
v -0.00457571 0.01902067 0.02109459
v 0.01771806 0.00835730 -0.02445657
v 0.00533309 0.01096972 -0.02441949
v 0.06856031 0.05706027 -0.02198324
v 0.06943069 0.05601274 -0.02293713
v 0.06866605 0.04791443 -0.02611989
v 0.06119873 0.03705221 -0.02576690
v -0.00336035 0.01739384 -0.02086953
v 0.06801434 0.03200143 0.00658769
v 0.07648059 0.03917577 -0.00363130
v 0.07646436 0.04059023 -0.01825172
v 0.07093423 0.03659728 0.01803402
v 0.06862383 0.05974284 -0.01817471
v 0.07548077 0.06151407 -0.01270901
v 0.07017000 0.06151565 0.01383905
vn 0.31637505 0.33765240 0.88650871
vn 0.87959497 -0.42789371 0.20789339
vn 0.29835254 0.30552454 -0.90423477
vn -0.31564032 0.08528937 -0.94503805
vn -0.21298707 -0.71941670 0.66111732
vn 0.33371039 -0.85552650 -0.39586839
vn -0.35101408 0.93630085 -0.01139451
vn 0.23134704 -0.21662603 0.94844700
vn 0.59286004 -0.66418602 -0.45538326
vn 0.11173977 -0.19728360 -0.97395760
vn -0.59221045 -0.78498513 -0.18189318
vn 0.42718783 -0.87329989 0.23421754
vn -0.43292497 0.66580190 -0.60768725
vn 0.91223620 0.34457012 -0.22157742
vn 0.73466055 -0.10785054 0.66980754
vn -0.35996365 0.51500248 0.77794512
vn -0.02049771 -0.20859300 -0.97778771
vn -0.09566846 0.24291388 -0.96531880
vn 0.45914670 -0.44283845 -0.77011585
vn 0.32144075 -0.94300871 -0.08608375
vn 0.19158306 -0.44252189 0.87605383
vn -0.08278957 0.86869005 -0.48838866
vn 0.46455134 0.83134639 0.30504957
vn 0.95521844 -0.17850452 -0.23599551
vn 0.37711998 -0.16623323 0.91112405
vn 0.54753559 -0.63019852 0.55050394
vn -0.06339782 0.24913793 0.96639071
vn -0.95681341 0.27566852 0.09227662
vn 0.13287650 -0.78506313 -0.60499563
vn -0.02390677 -0.00020474 -0.99971417
vn -0.23385129 -0.69788834 -0.67695305
vn -0.15061357 0.30239384 -0.94120854
vn 0.43038252 -0.64054841 -0.63597848
vn 0.36230243 -0.12287263 -0.92392601
vn -0.48229993 -0.76409330 -0.42842526
vn 0.59564131 -0.78464684 -0.17187430
vn 0.35543148 -0.75971102 0.54452515
vn -0.12885858 -0.06269525 0.98967913
vn -0.19019159 0.97199850 -0.13800754
vn 0.62131197 0.47750044 -0.62126062
vn 0.81267368 0.36019015 0.45806610
vn -0.21089784 0.73316226 0.64652548
vn 0.99621514 -0.08306406 0.02560773
vn 0.74824348 -0.22783739 -0.62307448
vn 0.14503836 0.00004079 0.98942603
vn 0.68142622 -0.41663936 0.60172249
vn 0.33674525 -0.47251867 0.81444996
vn -0.93412565 0.23509428 -0.26858879
vn -0.58591076 -0.79762142 0.14320842
vn -0.75578022 0.22855049 0.61364561
vn 0.10372783 -0.25804751 -0.96054777
vn -0.16928352 -0.11960422 -0.97828315
vn -0.19555795 0.66720613 -0.71874409
vn -0.01555144 0.56841399 -0.82259570
vn 0.14098013 0.13787910 -0.98036420
vn 0.20802976 -0.34737951 -0.91435830
vn -0.74451331 0.19420826 -0.63873554
vn 0.58058428 -0.81064023 0.07605466
vn 0.80548920 -0.59250801 -0.01101846
vn 0.82894113 -0.47956876 -0.28787222
vn 0.53028461 -0.74069035 0.41252399
vn -0.43943489 0.87111152 -0.21922978
vn 0.46110466 0.87289164 -0.15950760
vn -0.23941022 0.95320354 0.18462329
f 20//20 12//12 5//5
f 25//25 15//15 1//1
f 29//29 6//6 20//20
f 30//30 17//17 4//4
f 30//30 10//10 17//17
f 31//31 17//17 29//29
f 32//32 4//4 13//13
f 32//32 30//30 4//4
f 32//32 18//18 30//30
f 33//33 19//19 9//9
f 33//33 9//9 6//6
f 33//33 29//29 19//19
f 33//33 6//6 29//29
f 34//34 10//10 30//30
f 35//35 20//20 5//5
f 35//35 5//5 11//11
f 35//35 31//31 29//29
f 35//35 29//29 20//20
f 36//36 20//20 6//6
f 36//36 6//6 9//9
f 37//37 21//21 5//5
f 37//37 5//5 12//12
f 38//38 5//5 21//21
f 39//39 28//28 7//7
f 39//39 13//13 28//28
f 40//40 14//14 24//24
f 41//41 23//23 1//1
f 41//41 1//1 15//15
f 41//41 15//15 2//2
f 41//41 14//14 23//23
f 42//42 1//1 23//23
f 42//42 27//27 1//1
f 42//42 16//16 27//27
f 43//43 24//24 14//14
f 43//43 2//2 24//24
f 43//43 41//41 2//2
f 43//43 14//14 41//41
f 44//44 9//9 19//19
f 44//44 19//19 34//34
f 44//44 40//40 24//24
f 44//44 34//34 3//3
f 44//44 3//3 40//40
f 45//45 25//25 1//1
f 45//45 8//8 25//25
f 45//45 1//1 27//27
f 45//45 27//27 16//16
f 45//45 16//16 38//38
f 45//45 38//38 21//21
f 45//45 21//21 8//8
f 46//46 26//26 2//2
f 46//46 2//2 15//15
f 46//46 15//15 25//25
f 46//46 25//25 8//8
f 47//47 8//8 21//21
f 47//47 37//37 26//26
f 47//47 21//21 37//37
f 47//47 46//46 8//8
f 47//47 26//26 46//46
f 48//48 28//28 13//13
f 48//48 11//11 28//28
f 48//48 35//35 11//11
f 49//49 28//28 11//11
f 49//49 11//11 5//5
f 50//50 16//16 28//28
f 50//50 38//38 16//16
f 50//50 5//5 38//38
f 50//50 49//49 5//5
f 50//50 28//28 49//49
f 51//51 29//29 17//17
f 51//51 17//17 10//10
f 52//52 31//31 4//4
f 52//52 4//4 17//17
f 52//52 17//17 31//31
f 53//53 13//13 22//22
f 54//54 3//3 18//18
f 54//54 18//18 32//32
f 54//54 32//32 13//13
f 54//54 13//13 53//53
f 54//54 40//40 3//3
f 54//54 53//53 22//22
f 54//54 22//22 40//40
f 55//55 18//18 3//3
f 55//55 3//3 34//34
f 55//55 34//34 30//30
f 55//55 30//30 18//18
f 56//56 10//10 34//34
f 56//56 51//51 10//10
f 56//56 29//29 51//51
f 56//56 34//34 19//19
f 56//56 19//19 29//29
f 57//57 4//4 31//31
f 57//57 31//31 35//35
f 57//57 35//35 48//48
f 57//57 48//48 13//13
f 57//57 13//13 4//4
f 58//58 12//12 20//20
f 58//58 20//20 36//36
f 59//59 24//24 2//2
f 59//59 58//58 36//36
f 59//59 2//2 58//58
f 60//60 36//36 9//9
f 60//60 59//59 36//36
f 60//60 24//24 59//59
f 60//60 44//44 24//24
f 60//60 9//9 44//44
f 61//61 37//37 12//12
f 61//61 26//26 37//37
f 61//61 12//12 58//58
f 61//61 58//58 2//2
f 61//61 2//2 26//26
f 62//62 39//39 22//22
f 62//62 22//22 13//13
f 62//62 13//13 39//39
f 63//63 39//39 23//23
f 63//63 23//23 14//14
f 63//63 14//14 40//40
f 63//63 40//40 22//22
f 63//63 22//22 39//39
f 64//64 39//39 7//7
f 64//64 23//23 39//39
f 64//64 42//42 23//23
f 64//64 7//7 28//28
f 64//64 28//28 16//16
f 64//64 16//16 42//42

