# https://github.com/mikedh/trimesh
v -0.05617099 0.00352320 0.02447069
v -0.04843607 -0.02316021 0.01405449
v -0.04935602 0.00331016 -0.00476055
v -0.06794692 0.00327918 -0.02154042
v -0.07101535 -0.02222017 0.01561996
v -0.05596531 -0.02266385 -0.02162978
v -0.05643176 0.00353007 -0.02155545
v -0.05380991 0.00341571 0.02240914
v -0.05715831 -0.02237017 0.02471727
v -0.07146500 0.00309676 0.01991960
v -0.04653395 -0.02308217 -0.00975111
v -0.07024021 -0.02216972 -0.01665183
v -0.04928498 0.00347323 -0.00114839
v -0.07056024 0.00327364 0.02256586
v -0.06504413 -0.02189969 -0.02182829
v -0.06534610 -0.02219430 0.02498910
v -0.05186270 -0.02260180 0.02185546
v -0.07177095 -0.02224083 -0.01227450
v -0.05400645 0.00344434 -0.01928923
v -0.04682402 -0.02293927 -0.00234286
v -0.07311606 0.00316270 -0.00558574
v -0.07143733 -0.00697539 0.02108126
v -0.06866391 -0.01743150 -0.02020819
v -0.06777105 -0.02189822 -0.02031854
v -0.06822511 0.00329162 0.02455869
v -0.07174979 -0.02223460 0.00814084
v -0.07310275 -0.00255538 -0.01509657
v -0.05236816 -0.02272933 -0.01775859
v -0.07158048 0.00003608 0.02098864
v -0.06993351 -0.01288361 0.02225309
v -0.06805412 -0.00419145 -0.02146201
v -0.06630920 -0.02027721 -0.02152303
v -0.06873762 -0.02188969 -0.01925874
v -0.07311958 -0.00715124 -0.00536679
v -0.07305699 -0.00853963 -0.01354862
v -0.06998828 -0.01451538 -0.01914588
v -0.07293182 0.00309348 -0.01520829
v -0.06996801 -0.00676648 0.02358737
v -0.07152164 -0.01288333 -0.01636135
v -0.07303441 -0.01439609 -0.01068688
v -0.06987115 -0.02046087 -0.01789867
v -0.07173606 0.00311777 -0.01787823
v -0.07013955 -0.00297925 0.02327891
v -0.06880605 -0.01471320 0.02315654
v -0.06754696 -0.01302139 0.02442823
v -0.07153404 -0.02054136 -0.01368774
v -0.07300209 -0.01312355 -0.00708730
v -0.07144533 -0.00420732 -0.01795584
v -0.07299511 -0.01452428 -0.00848514
vn 0.26611067 0.64947117 0.71230072
vn 0.72769941 -0.65682245 0.19757997
vn 0.74324354 0.65733245 -0.12451143
vn -0.30307970 0.63092871 -0.71419301
vn -0.69306064 -0.69633922 0.18649032
vn 0.30123363 -0.62993149 -0.71585237
vn 0.27728805 0.64262781 -0.71424144
vn 0.65166839 0.64877459 0.39296291
vn 0.17970772 -0.63944062 0.74754319
vn -0.77395372 0.62202403 0.11866657
vn 0.75212402 -0.62128153 -0.21981517
vn -0.62804196 -0.71738426 -0.30153460
vn 0.69013211 0.72200778 0.04921823
vn -0.60637926 0.67218792 0.42481478
vn -0.16866960 -0.61420129 -0.77091332
vn -0.31439776 -0.63324636 0.70721503
vn 0.57586438 -0.61207863 0.54197783
vn -0.69114657 -0.71182773 -0.12497078
vn 0.62085204 0.66110373 -0.42128921
vn 0.88606569 -0.45945545 0.06154903
vn -0.72272285 0.69094753 0.01622311
vn -0.95002474 -0.05714636 0.30689948
vn -0.66183678 -0.08749106 -0.74452494
vn -0.46359016 -0.66817682 -0.58191400
vn -0.26406867 0.63801502 0.72332881
vn -0.70892407 -0.70382681 0.04532635
vn -0.96698195 -0.01962093 -0.25408841
vn 0.59977226 -0.61672074 -0.50983210
vn -0.95384530 0.02736227 0.29904923
vn -0.84063628 -0.17127835 0.51380382
vn -0.46642669 -0.01481690 -0.88443576
vn -0.42356904 -0.08992618 -0.90138923
vn -0.64136441 -0.57381286 -0.50930393
vn -0.99937038 -0.01396500 0.03261635
vn -0.98021345 -0.06154976 -0.18813088
vn -0.80128100 -0.07441763 -0.59364195
vn -0.73628750 0.65598798 -0.16601352
vn -0.66572499 -0.04688751 0.74472263
vn -0.91511158 -0.10153393 -0.39020719
vn -0.99206605 -0.09224430 -0.08541629
vn -0.86357943 -0.13627404 -0.48544820
vn -0.63092674 0.64343261 -0.43350423
vn -0.73800870 0.02230299 0.67442251
vn -0.76042559 -0.19566676 0.61924748
vn -0.38812144 -0.03615760 0.92089868
vn -0.93870033 -0.12452421 -0.32145827
vn -0.99848805 -0.03721515 0.04045546
vn -0.80925845 -0.04019263 -0.58607620
vn -0.99652740 -0.08079353 0.02013840
f 13//13 7//7 1//1
f 13//13 1//1 8//8
f 13//13 8//8 2//2
f 13//13 11//11 3//3
f 14//14 7//7 4//4
f 14//14 1//1 7//7
f 15//15 7//7 6//6
f 15//15 4//4 7//7
f 16//16 5//5 2//2
f 16//16 2//2 9//9
f 16//16 9//9 1//1
f 17//17 8//8 1//1
f 17//17 1//1 9//9
f 17//17 9//9 2//2
f 17//17 2//2 8//8
f 18//18 11//11 2//2
f 18//18 6//6 11//11
f 18//18 12//12 6//6
f 19//19 3//3 11//11
f 19//19 13//13 3//3
f 19//19 7//7 13//13
f 19//19 6//6 7//7
f 20//20 13//13 2//2
f 20//20 2//2 11//11
f 20//20 11//11 13//13
f 21//21 14//14 4//4
f 21//21 10//10 14//14
f 24//24 15//15 6//6
f 24//24 6//6 12//12
f 25//25 16//16 1//1
f 25//25 1//1 14//14
f 26//26 18//18 2//2
f 26//26 2//2 5//5
f 26//26 5//5 22//22
f 28//28 19//19 11//11
f 28//28 11//11 6//6
f 28//28 6//6 19//19
f 29//29 14//14 10//10
f 29//29 10//10 21//21
f 30//30 22//22 5//5
f 30//30 5//5 16//16
f 31//31 4//4 15//15
f 32//32 24//24 23//23
f 32//32 15//15 24//24
f 32//32 31//31 15//15
f 32//32 23//23 31//31
f 33//33 24//24 12//12
f 33//33 23//23 24//24
f 34//34 26//26 22//22
f 34//34 21//21 27//27
f 34//34 29//29 21//21
f 34//34 22//22 29//29
f 36//36 23//23 33//33
f 36//36 31//31 23//23
f 37//37 27//27 21//21
f 37//37 21//21 4//4
f 38//38 29//29 22//22
f 38//38 14//14 29//29
f 38//38 22//22 30//30
f 39//39 35//35 27//27
f 39//39 27//27 36//36
f 40//40 34//34 27//27
f 40//40 27//27 35//35
f 40//40 35//35 18//18
f 40//40 18//18 26//26
f 41//41 36//36 33//33
f 41//41 33//33 12//12
f 41//41 39//39 36//36
f 41//41 12//12 39//39
f 42//42 4//4 31//31
f 42//42 37//37 4//4
f 42//42 27//27 37//37
f 43//43 38//38 25//25
f 43//43 25//25 14//14
f 43//43 14//14 38//38
f 44//44 38//38 30//30
f 44//44 30//30 16//16
f 44//44 16//16 38//38
f 45//45 38//38 16//16
f 45//45 16//16 25//25
f 45//45 25//25 38//38
f 46//46 39//39 12//12
f 46//46 12//12 18//18
f 46//46 18//18 35//35
f 46//46 35//35 39//39
f 47//47 26//26 34//34
f 48//48 36//36 27//27
f 48//48 27//27 42//42
f 48//48 42//42 31//31
f 48//48 31//31 36//36
f 49//49 40//40 26//26
f 49//49 26//26 47//47
f 49//49 47//47 34//34
f 49//49 34//34 40//40

