# https://github.com/mikedh/trimesh
v -0.00770766 0.03720199 0.02434697
v 0.01204653 0.02407271 0.02148229
v -0.00694421 0.04646417 -0.01540292
v -0.04459401 0.03767780 -0.02462005
v -0.07056024 0.00327364 0.02256586
v 0.01216846 0.01676134 -0.02497564
v -0.04441428 0.04935231 0.01688981
v -0.00411682 0.04500411 0.01525495
v -0.06005673 0.00494457 0.02604699
v 0.01077057 0.03012700 -0.01371693
v -0.01239691 0.04255280 -0.02429686
v -0.06794692 0.00327918 -0.02154042
v -0.03405336 0.05085400 -0.01523251
v -0.00555748 0.04372602 0.02028285
v 0.00458746 0.01819334 0.02416194
v -0.06025068 0.03248235 0.02449751
v -0.00255558 0.03849260 -0.02299678
v 0.01218449 0.02193385 -0.02327245
v 0.01080114 0.02989816 0.01537075
v 0.00032572 0.04209641 -0.00947788
v -0.03413205 0.04296720 -0.02454674
v -0.04477036 0.03349255 -0.02463171
v -0.04935602 0.00331016 -0.00476055
v -0.05850416 0.04353068 -0.01096023
v -0.01955071 0.04931334 -0.01941575
v -0.02397382 0.05243367 0.01387672
v -0.00379563 0.03811033 0.02303553
v -0.02827756 0.04833535 0.02308812
v 0.00702756 0.02386270 0.02331364
v -0.04508028 0.03339933 0.02611153
v 0.01212767 0.01674088 -0.01874877
v -0.06505750 0.01501643 0.02603588
v -0.00132947 0.04066959 -0.01925759
v -0.01112632 0.04527745 -0.02173547
v -0.00354814 0.03571014 -0.02432481
v 0.00149445 0.03918748 0.01771216
v -0.00550051 0.04642186 0.00395678
v 0.00589398 0.03656826 -0.00674115
v -0.01948663 0.04417401 -0.02439315
v -0.06118032 0.02129212 -0.02312421
v -0.05380991 0.00341571 0.02240914
v -0.07171012 0.00309066 0.01844001
v -0.05400645 0.00344434 -0.01928923
v -0.04544389 0.04940547 -0.01160259
v -0.05958813 0.03919013 0.01832241
v -0.04429534 0.04476921 -0.02210734
v -0.01822882 0.05099180 -0.01260529
v -0.01824690 0.05121153 0.01777744
v 0.00176682 0.03533400 0.02133504
v -0.01833478 0.04717430 0.02279873
v -0.04563564 0.04525203 0.02324998
v -0.02821471 0.05085880 0.01954839
v 0.00081086 0.03393240 0.02276694
v -0.00747430 0.03170445 0.02467214
v -0.02099548 0.04480481 0.02449731
v -0.06980271 0.01641309 0.02140364
v -0.06822511 0.00329162 0.02455869
v -0.05200421 0.03428775 0.02603677
v -0.06280383 0.00492412 0.02608023
v 0.01161409 0.02492427 -0.02174515
v 0.00301506 0.03916120 -0.01235084
v -0.00828888 0.04234707 -0.02304711
v -0.00411929 0.04201773 -0.02071572
v -0.01393029 0.04797623 -0.01910197
vn 0.15635931 0.20384100 0.96643707
vn 0.83853067 -0.09207556 0.53701807
vn 0.46509617 0.85824151 -0.21704163
vn -0.19314263 0.18653875 -0.96327526
vn -0.67540258 -0.58777226 0.44537076
vn 0.63689086 -0.45698018 -0.62091799
vn -0.31726031 0.91455367 0.25087342
vn 0.55749725 0.81080152 0.17831914
vn 0.06651971 -0.49927820 0.86388449
vn 0.87583768 0.46470466 -0.13022266
vn 0.13767016 0.36433141 -0.92103721
vn -0.62376562 -0.52842537 -0.57591933
vn -0.09998788 0.94685550 -0.30572386
vn 0.44285157 0.67587380 0.58913250
vn 0.37095875 -0.59850873 0.71005415
vn -0.55197485 0.37679051 0.74387679
vn 0.44474601 0.48812395 -0.75095672
vn 0.81571953 0.24146731 -0.52563789
vn 0.85561757 0.49253967 0.15913279
vn 0.63413567 0.77032190 -0.06690379
vn -0.04218746 0.37942455 -0.92426037
vn -0.04682017 -0.02449359 -0.99860299
vn 0.12447221 -0.99220105 -0.00661416
vn -0.71646358 0.64398826 -0.26825186
vn 0.08351587 0.85938637 -0.50446027
vn 0.02424909 0.99579094 0.08838769
vn 0.34811590 0.39328250 0.85096662
vn -0.02888595 0.61030214 0.79164190
vn 0.27541950 0.11513602 0.95440442
vn 0.01484072 0.05213048 0.99853000
vn 0.76676066 -0.64142743 0.02547419
vn -0.37860552 0.09350648 0.92082268
vn 0.62210180 0.67934635 -0.38920160
vn 0.30252091 0.73012343 -0.61269966
vn 0.19463861 0.21490871 -0.95704235
vn 0.67006414 0.66707720 0.32561027
vn 0.49089943 0.87115533 0.01030212
vn 0.74613663 0.66576607 -0.00597171
vn 0.03351414 0.41500607 -0.90920117
vn -0.54317152 0.18023674 -0.82004842
vn 0.14017903 -0.94002806 0.31096156
vn -0.77570363 -0.62854364 0.05671650
vn 0.09961665 -0.94554738 -0.30986557
vn -0.29922564 0.93565871 -0.18710103
vn -0.71437524 0.63393333 0.29630482
vn -0.31272275 0.62795599 -0.71265402
vn 0.18524924 0.97442093 -0.12722643
vn 0.24243601 0.91246589 0.32959184
vn 0.53938103 0.51811509 0.66379579
vn 0.20879553 0.61293397 0.76204749
vn -0.25640770 0.61562460 0.74515867
vn -0.05652914 0.90820072 0.41469978
vn 0.37170266 0.33856006 0.86441554
vn 0.06866336 0.03715855 0.99694763
vn 0.08236870 0.29710955 0.95128403
vn -0.90543626 0.24214325 0.34864282
vn -0.35148200 -0.64713770 0.67651549
vn -0.12561561 0.19786047 0.97214811
vn -0.06546341 -0.35662023 0.93195309
vn 0.81696895 0.42075878 -0.39436505
vn 0.69647011 0.69555717 -0.17643584
vn 0.33983232 0.55537314 -0.75899583
vn 0.49488528 0.70072143 -0.51388524
vn 0.28762929 0.86821395 -0.40431909
f 18//18 10//10 2//2
f 18//18 2//2 6//6
f 19//19 2//2 10//10
f 21//21 6//6 4//4
f 22//22 4//4 6//6
f 22//22 6//6 12//12
f 29//29 15//15 2//2
f 29//29 1//1 15//15
f 30//30 9//9 15//15
f 31//31 6//6 2//2
f 31//31 2//2 15//15
f 31//31 23//23 6//6
f 35//35 6//6 11//11
f 35//35 11//11 17//17
f 35//35 18//18 6//6
f 35//35 17//17 18//18
f 36//36 2//2 19//19
f 36//36 8//8 14//14
f 37//37 20//20 3//3
f 37//37 8//8 20//20
f 38//38 19//19 10//10
f 38//38 36//36 19//19
f 38//38 20//20 8//8
f 38//38 8//8 36//36
f 39//39 11//11 6//6
f 39//39 6//6 21//21
f 39//39 34//34 11//11
f 39//39 25//25 34//34
f 40//40 22//22 12//12
f 40//40 4//4 22//22
f 40//40 12//12 24//24
f 41//41 15//15 9//9
f 41//41 31//31 15//15
f 41//41 23//23 31//31
f 42//42 12//12 23//23
f 42//42 23//23 41//41
f 43//43 23//23 12//12
f 43//43 12//12 6//6
f 43//43 6//6 23//23
f 44//44 24//24 7//7
f 44//44 26//26 13//13
f 44//44 7//7 26//26
f 45//45 7//7 24//24
f 46//46 21//21 4//4
f 46//46 40//40 24//24
f 46//46 4//4 40//40
f 46//46 24//24 44//44
f 46//46 44//44 13//13
f 46//46 13//13 25//25
f 46//46 39//39 21//21
f 46//46 25//25 39//39
f 47//47 25//25 13//13
f 47//47 13//13 26//26
f 47//47 37//37 3//3
f 48//48 14//14 8//8
f 48//48 8//8 37//37
f 48//48 47//47 26//26
f 48//48 37//37 47//47
f 49//49 14//14 27//27
f 49//49 36//36 14//14
f 49//49 2//2 36//36
f 50//50 27//27 14//14
f 50//50 48//48 28//28
f 50//50 14//14 48//48
f 51//51 45//45 16//16
f 51//51 7//7 45//45
f 52//52 26//26 7//7
f 52//52 51//51 28//28
f 52//52 7//7 51//51
f 52//52 48//48 26//26
f 52//52 28//28 48//48
f 53//53 27//27 1//1
f 53//53 1//1 29//29
f 53//53 29//29 2//2
f 53//53 49//49 27//27
f 53//53 2//2 49//49
f 54//54 30//30 15//15
f 54//54 15//15 1//1
f 55//55 28//28 51//51
f 55//55 50//50 28//28
f 55//55 1//1 27//27
f 55//55 27//27 50//50
f 55//55 54//54 1//1
f 55//55 30//30 54//54
f 56//56 32//32 16//16
f 56//56 5//5 32//32
f 56//56 42//42 5//5
f 56//56 16//16 45//45
f 56//56 45//45 24//24
f 56//56 24//24 12//12
f 56//56 12//12 42//42
f 57//57 32//32 5//5
f 57//57 41//41 9//9
f 57//57 42//42 41//41
f 57//57 5//5 42//42
f 58//58 32//32 30//30
f 58//58 16//16 32//32
f 58//58 51//51 16//16
f 58//58 55//55 51//51
f 58//58 30//30 55//55
f 59//59 9//9 30//30
f 59//59 30//30 32//32
f 59//59 57//57 9//9
f 59//59 32//32 57//57
f 60//60 18//18 17//17
f 60//60 17//17 33//33
f 60//60 33//33 10//10
f 60//60 10//10 18//18
f 61//61 10//10 33//33
f 61//61 38//38 10//10
f 61//61 20//20 38//38
f 61//61 33//33 3//3
f 61//61 3//3 20//20
f 62//62 17//17 11//11
f 62//62 11//11 34//34
f 63//63 34//34 3//3
f 63//63 3//3 33//33
f 63//63 62//62 34//34
f 63//63 33//33 17//17
f 63//63 17//17 62//62
f 64//64 34//34 25//25
f 64//64 3//3 34//34
f 64//64 47//47 3//3
f 64//64 25//25 47//47

