# https://github.com/mikedh/trimesh
v 0.01321724 -0.01941143 0.02310837
v 0.01657081 -0.03856110 0.02259790
v 0.01982509 -0.01785768 -0.01112135
v -0.06130285 -0.03570949 -0.00975728
v -0.06136814 -0.04936229 0.01559420
v 0.01659568 -0.04724863 -0.01123852
v -0.04181052 -0.02409639 0.00219596
v 0.01556889 -0.01946296 0.02201563
v -0.03875619 -0.03709884 0.02465374
v 0.01659749 -0.04676176 0.01409754
v -0.02232518 -0.02255454 -0.01265860
v -0.06130120 -0.04958876 -0.00978274
v 0.00531202 -0.01937271 0.02313878
v -0.06130285 -0.03570949 0.01571862
v 0.01666964 -0.03539880 0.02325216
v -0.04174819 -0.04399468 0.02299450
v 0.01661432 -0.04765882 0.00523148
v -0.02088502 -0.02254318 -0.01268342
v -0.03429043 -0.02316078 -0.00974276
v -0.03285392 -0.03589479 0.02460410
v -0.04194865 -0.02663864 0.01810630
v 0.01606670 -0.02556186 0.02286674
v -0.03598353 -0.03848558 0.02460605
v 0.00450001 -0.04474912 0.02014723
v -0.03150425 -0.04906998 0.01255037
v -0.01938891 -0.04910839 0.00661255
v 0.00739210 -0.04752658 -0.01124282
v -0.02526877 -0.02226316 -0.01117653
v -0.03867340 -0.03580658 0.02459370
v -0.04184337 -0.02515361 0.01382306
v 0.01451686 -0.02089601 0.02283618
v -0.02858450 -0.04361414 0.02295357
v -0.03292627 -0.03697712 0.02459333
v -0.03297298 -0.04742009 0.01923461
v 0.00603371 -0.04750710 0.01246569
v 0.01660119 -0.04761307 0.00080308
v -0.03308318 -0.04904394 -0.00973683
v 0.00463476 -0.01922509 -0.01125586
v -0.04183544 -0.03057634 0.02316478
v 0.00450041 -0.04250191 0.02169748
v -0.04174766 -0.04651066 0.02082367
v 0.00457633 -0.04629584 0.01798831
v -0.00598208 -0.04740285 0.01660496
v -0.02089224 -0.04904659 0.00810671
v -0.01957320 -0.04900016 0.00231290
v -0.02660584 -0.02235349 -0.00960272
v -0.04199315 -0.02793854 0.02102520
v -0.00004203 -0.04349518 0.02138213
v -0.04029572 -0.04747022 0.01934852
v -0.02234086 -0.04594439 0.02053566
v -0.01494788 -0.04739780 0.01780927
v -0.04792798 -0.04898417 0.01543420
v -0.01942935 -0.04483110 0.02158049
v -0.00149113 -0.04596040 0.01902304
vn 0.13395872 0.67754684 0.72317725
vn 0.65843116 -0.33332474 0.67480591
vn 0.60950275 0.58844263 -0.53126422
vn -0.70143108 0.40415694 -0.58707036
vn -0.64525194 -0.60774090 0.46292648
vn 0.55827790 -0.58784158 -0.58546398
vn -0.32331039 0.94612402 -0.01788120
vn 0.62769759 0.64412601 0.43714691
vn -0.17610275 -0.03792039 0.98364113
vn 0.66032830 -0.69509534 0.28426923
vn -0.08559346 0.52315663 -0.84792741
vn -0.58479419 -0.58925701 -0.55748716
vn -0.04631446 0.73677678 0.67454796
vn -0.77817357 0.40978340 0.47594481
vn 0.67506353 -0.06487991 0.73490124
vn -0.14851866 -0.38853786 0.90938470
vn 0.67516024 -0.73699051 0.03168031
vn -0.01160156 0.19856254 -0.98001955
vn -0.24105120 0.85478747 -0.45960059
vn 0.01065719 0.03657683 0.99927402
vn -0.30862009 0.88713658 0.34313601
vn 0.72962325 0.08588725 0.67843444
vn -0.00366789 -0.15637163 0.98769148
vn 0.11103129 -0.70009208 0.70536738
vn 0.02417944 -0.99247760 0.12001485
vn 0.03322888 -0.99906642 0.02760676
vn 0.01685880 -0.65679848 -0.75387767
vn -0.13226183 0.95383442 -0.26964180
vn -0.14645924 0.10965190 0.98312062
vn -0.30655922 0.93375429 0.18472782
vn 0.39488699 0.15034019 0.90634546
vn 0.02934529 -0.47223090 0.88098628
vn 0.02230619 -0.02787440 0.99936252
vn 0.02879587 -0.88020820 0.47371333
vn 0.04543563 -0.99169271 0.12033771
vn 0.67342634 -0.73906507 -0.01672683
vn 0.02129198 -0.97379669 -0.22642141
vn -0.08491454 0.94404678 -0.31869296
vn -0.27549252 0.35908317 0.89171921
vn 0.07479392 -0.47270135 0.87804288
vn -0.02947262 -0.74592306 0.66537971
vn 0.08816511 -0.88313776 0.46075440
vn 0.04557544 -0.96486572 0.25876057
vn 0.03835711 -0.99569712 0.08435628
vn 0.03255939 -0.99902966 -0.02965840
vn -0.10322136 0.99461049 -0.00976362
vn -0.30204320 0.75111969 0.58701714
vn 0.05133565 -0.55349761 0.83126713
vn 0.00778513 -0.87855284 0.47758171
vn 0.03717228 -0.77107718 0.63565572
vn 0.03719372 -0.92251232 0.38417138
vn 0.03006377 -0.97603864 0.21551043
vn 0.04377673 -0.65915951 0.75072787
vn 0.04429164 -0.81921872 0.57176825
f 8//8 3//3 1//1
f 10//10 3//3 2//2
f 12//12 5//5 4//4
f 12//12 4//4 11//11
f 13//13 1//1 3//3
f 14//14 7//7 4//4
f 14//14 4//4 5//5
f 14//14 5//5 9//9
f 15//15 2//2 3//3
f 16//16 9//9 5//5
f 17//17 6//6 3//3
f 17//17 3//3 10//10
f 18//18 11//11 3//3
f 18//18 3//3 6//6
f 19//19 7//7 13//13
f 19//19 11//11 4//4
f 19//19 4//4 7//7
f 20//20 1//1 13//13
f 20//20 15//15 1//1
f 22//22 1//1 15//15
f 22//22 15//15 3//3
f 22//22 3//3 8//8
f 23//23 2//2 15//15
f 23//23 9//9 16//16
f 24//24 10//10 2//2
f 26//26 25//25 5//5
f 26//26 5//5 12//12
f 27//27 12//12 11//11
f 27//27 11//11 18//18
f 27//27 18//18 6//6
f 28//28 11//11 19//19
f 29//29 20//20 13//13
f 29//29 9//9 20//20
f 30//30 21//21 13//13
f 30//30 13//13 7//7
f 30//30 7//7 14//14
f 30//30 14//14 21//21
f 31//31 22//22 8//8
f 31//31 8//8 1//1
f 31//31 1//1 22//22
f 32//32 23//23 16//16
f 32//32 2//2 23//23
f 33//33 23//23 15//15
f 33//33 15//15 20//20
f 33//33 20//20 9//9
f 33//33 9//9 23//23
f 35//35 17//17 10//10
f 35//35 26//26 17//17
f 36//36 6//6 17//17
f 36//36 17//17 26//26
f 37//37 26//26 12//12
f 37//37 12//12 27//27
f 37//37 27//27 6//6
f 38//38 3//3 11//11
f 38//38 11//11 28//28
f 38//38 13//13 3//3
f 39//39 29//29 13//13
f 39//39 14//14 9//9
f 39//39 9//9 29//29
f 40//40 24//24 2//2
f 40//40 2//2 32//32
f 41//41 16//16 5//5
f 41//41 32//32 16//16
f 42//42 10//10 24//24
f 43//43 10//10 42//42
f 43//43 35//35 10//10
f 43//43 25//25 35//35
f 44//44 35//35 25//25
f 44//44 25//25 26//26
f 44//44 26//26 35//35
f 45//45 36//36 26//26
f 45//45 6//6 36//36
f 45//45 37//37 6//6
f 45//45 26//26 37//37
f 46//46 38//38 28//28
f 46//46 28//28 19//19
f 46//46 19//19 13//13
f 46//46 13//13 38//38
f 47//47 39//39 13//13
f 47//47 13//13 21//21
f 47//47 21//21 14//14
f 47//47 14//14 39//39
f 48//48 40//40 32//32
f 48//48 24//24 40//40
f 49//49 41//41 5//5
f 49//49 5//5 34//34
f 49//49 34//34 41//41
f 50//50 41//41 34//34
f 51//51 34//34 5//5
f 51//51 43//43 42//42
f 52//52 5//5 25//25
f 52//52 25//25 43//43
f 52//52 51//51 5//5
f 52//52 43//43 51//51
f 53//53 48//48 32//32
f 53//53 24//24 48//48
f 53//53 50//50 24//24
f 53//53 32//32 41//41
f 53//53 41//41 50//50
f 54//54 42//42 24//24
f 54//54 24//24 50//50
f 54//54 50//50 34//34
f 54//54 51//51 42//42
f 54//54 34//34 51//51

