# https://github.com/mikedh/trimesh
v -0.05715831 -0.02237017 0.02471727
v -0.03432538 -0.02398099 0.00222070
v -0.03429043 -0.02316078 -0.00974276
v -0.06125213 -0.02225381 -0.02285825
v -0.06148321 -0.03554095 0.02501982
v -0.03424442 -0.02371233 -0.00090484
v -0.04182128 -0.03570949 0.01571862
v -0.06131665 -0.02223600 0.02532951
v -0.05342849 -0.02275300 0.02307276
v -0.04171387 -0.03575052 -0.02356733
v -0.05231115 -0.03554407 0.02473762
v -0.04182786 -0.02564627 0.01560035
v -0.04174751 -0.02807255 -0.02059284
v -0.04632726 -0.03582289 -0.02315465
v -0.05257201 -0.03154849 0.02460531
v -0.03437696 -0.02398915 0.00240499
v -0.04169778 -0.03310248 -0.02312335
v -0.05596531 -0.02266385 -0.02162978
v -0.06103429 -0.03569684 -0.02203019
v -0.05569721 -0.02384855 0.02445478
v -0.04182283 -0.02934942 -0.02155987
v -0.03470459 -0.02341150 -0.01110368
vn 0.19028360 0.71715493 0.67043341
vn 0.90983696 0.39765777 0.11859593
vn 0.85887750 0.50037612 -0.10933061
vn -0.54931839 0.58707282 -0.59463839
vn -0.57658214 -0.57585168 0.57961010
vn 0.89553922 0.44324445 0.03929191
vn 0.61742783 -0.67091913 0.41067066
vn -0.53328313 0.58707498 0.60905835
vn 0.39879890 0.71581244 0.57321200
vn 0.46211319 -0.58290904 -0.66833259
vn 0.29040765 -0.62212937 0.72706151
vn 0.68995284 0.42908279 0.58296916
vn 0.41895179 0.59390287 -0.68684698
vn -0.03915032 -0.86023191 -0.50839778
vn 0.39299760 0.09057682 0.91506761
vn 0.80866920 0.50893293 0.29502780
vn 0.49584648 0.20547701 -0.84375083
vn 0.20379004 0.80601695 -0.55570342
vn -0.59433355 -0.60027504 -0.53519857
vn 0.37910976 0.19221120 0.90516885
vn 0.45895821 0.41394090 -0.78613631
vn 0.77064652 0.48777973 -0.41009131
f 1//1 3//3 4//4
f 6//6 3//3 1//1
f 8//8 1//1 4//4
f 8//8 4//4 5//5
f 9//9 6//6 1//1
f 10//10 6//6 2//2
f 10//10 2//2 7//7
f 10//10 3//3 6//6
f 11//11 8//8 5//5
f 11//11 5//5 7//7
f 12//12 11//11 7//7
f 14//14 10//10 7//7
f 14//14 7//7 5//5
f 15//15 1//1 8//8
f 15//15 8//8 11//11
f 15//15 12//12 9//9
f 15//15 11//11 12//12
f 16//16 12//12 7//7
f 16//16 7//7 2//2
f 16//16 9//9 12//12
f 16//16 2//2 6//6
f 16//16 6//6 9//9
f 17//17 10//10 4//4
f 18//18 4//4 3//3
f 19//19 14//14 5//5
f 19//19 5//5 4//4
f 19//19 4//4 10//10
f 19//19 10//10 14//14
f 20//20 15//15 9//9
f 20//20 9//9 1//1
f 20//20 1//1 15//15
f 21//21 17//17 4//4
f 21//21 18//18 13//13
f 21//21 4//4 18//18
f 22//22 3//3 10//10
f 22//22 10//10 17//17
f 22//22 17//17 21//21
f 22//22 21//21 13//13
f 22//22 18//18 3//3
f 22//22 13//13 18//18

