# https://github.com/mikedh/trimesh
v 0.02182419 -0.03334319 -0.01266810
v 0.02815438 -0.04216061 -0.01664090
v -0.00001221 -0.02080017 -0.02059086
v -0.04617330 -0.03543235 -0.02021013
v -0.04636014 -0.04515669 -0.01163692
v 0.02184393 -0.03320187 -0.02238614
v 0.02177190 -0.04309731 -0.01260972
v -0.04635598 -0.04310944 -0.01792587
v -0.03151059 -0.02711394 -0.01146023
v -0.03263775 -0.03361629 -0.02097534
v 0.02812728 -0.03732558 -0.02153554
v 0.01514311 -0.02557225 -0.01351204
v -0.02960321 -0.04473177 -0.01441931
v -0.05360651 -0.03541669 -0.01161571
v -0.03277138 -0.02826608 -0.01548484
v -0.00020497 -0.02600014 -0.01161909
v -0.03264357 -0.03815399 -0.02086339
v 0.00667646 -0.02391426 -0.02111050
v 0.02802557 -0.03986151 -0.02004074
v -0.02660753 -0.04477532 -0.01160478
v 0.02182886 -0.04273615 -0.01561288
v -0.02026009 -0.04362144 -0.01735994
v -0.04630585 -0.04494320 -0.01447728
v -0.05255939 -0.03956798 -0.01544622
v -0.05316645 -0.03958567 -0.01158337
v -0.00250412 -0.02078690 -0.01826251
v -0.03267255 -0.03009534 -0.01920398
v -0.05278378 -0.03539384 -0.01551705
v 0.01042827 -0.02294494 -0.01257394
v -0.03985049 -0.03638052 -0.02093768
v -0.01483137 -0.03937335 -0.02088624
v 0.00762018 -0.02383984 -0.02041292
v 0.02824517 -0.04060248 -0.01924876
v -0.02660947 -0.04476263 -0.01265363
v -0.00337706 -0.04380410 -0.01154283
v -0.03178542 -0.04462048 -0.01522712
v 0.01642409 -0.04262107 -0.01656672
v -0.04638161 -0.04389003 -0.01705786
v -0.04628115 -0.03835157 -0.01986840
v -0.03150876 -0.02726361 -0.01246901
v -0.00078351 -0.02079425 -0.02018198
v -0.00375765 -0.02077163 -0.01557125
v 0.02183186 -0.03524437 -0.02201773
v -0.04094810 -0.04025365 -0.01977969
v 0.02488466 -0.03886736 -0.02095388
v -0.02014928 -0.04101789 -0.01980358
v 0.02808057 -0.03808178 -0.02117007
v -0.00034621 -0.04167337 -0.01895270
v 0.02819046 -0.04182062 -0.01754981
v -0.00020468 -0.04382408 -0.01161828
v -0.04210814 -0.04464886 -0.01537871
v -0.04628786 -0.04120752 -0.01895154
v -0.00305925 -0.02078303 -0.01721085
v -0.03980429 -0.03735321 -0.02080797
v -0.04197104 -0.04209851 -0.01875895
v -0.00972915 -0.04089184 -0.01982803
v -0.00661709 -0.04278177 -0.01792680
v -0.04416651 -0.03934578 -0.01979685
v 0.02495608 -0.04151815 -0.01822995
vn 0.53531807 0.35733638 0.76533998
vn 0.77817707 -0.56900382 0.26584790
vn 0.05984489 0.77512455 -0.62896783
vn -0.36452663 0.38705602 -0.84694036
vn -0.26111819 -0.75331894 0.60359578
vn 0.34042710 0.42538117 -0.83854651
vn 0.25989280 -0.69158493 0.67391841
vn -0.29353326 -0.59834504 -0.74553433
vn -0.21786796 0.73084879 0.64683351
vn -0.05743724 0.15558365 -0.98615145
vn 0.78759079 0.18645567 -0.58731170
vn 0.56442205 0.77154597 0.29350394
vn 0.02536821 -0.99049551 -0.13518546
vn -0.73685368 0.42694987 0.52417599
vn -0.29497070 0.90609140 -0.30329963
vn 0.01484575 0.15621488 0.98761152
vn -0.02332939 -0.24513849 -0.96920734
vn 0.18175875 0.49065391 -0.85218689
vn 0.38852457 -0.57222944 -0.72222028
vn 0.01824401 -0.72882073 0.68446147
vn 0.04552075 -0.97623078 -0.21189931
vn 0.01831579 -0.85228361 -0.52275919
vn -0.31592073 -0.92628932 -0.20538304
vn -0.79658783 -0.38717370 -0.46426754
vn -0.72575379 -0.37272335 0.57823761
vn -0.13848298 0.98372641 -0.11447628
vn -0.26147611 0.79342554 -0.54964184
vn -0.74519586 0.48048787 -0.46240085
vn 0.31573615 0.75901609 0.56939025
vn -0.07673919 0.01808303 -0.99688721
vn -0.00511682 -0.37155321 -0.92839756
vn 0.39704480 0.81802496 -0.41616174
vn 0.75153294 -0.50357478 -0.42615805
vn 0.02917989 -0.99869983 -0.04179940
vn 0.01536205 -0.24474530 0.96946570
vn 0.01251081 -0.95965297 -0.28090864
vn 0.03296328 -0.94330659 -0.33028184
vn -0.30834445 -0.80808001 -0.50192668
vn -0.33999282 -0.18851391 -0.92134000
vn -0.28567665 0.94398187 -0.16518805
vn -0.14451974 0.95664741 -0.25286316
vn -0.08639415 0.94196734 0.32439725
vn 0.00073412 -0.20256849 -0.97926782
vn -0.05059094 -0.39079458 -0.91908659
vn 0.01658198 -0.51314948 -0.85813906
vn -0.00465953 -0.60320047 -0.79757601
vn 0.52361508 -0.42155339 -0.74035126
vn 0.01708644 -0.70419099 -0.70980498
vn 0.70753624 -0.63415762 -0.31182780
vn 0.04780612 -0.68003053 0.73162358
vn 0.00354732 -0.93577773 -0.35257262
vn -0.30336942 -0.37659213 -0.87529730
vn -0.13937240 0.98747965 -0.07388686
vn -0.06577651 -0.21589760 -0.97419797
vn -0.02747325 -0.53925893 -0.84169177
vn 0.00773491 -0.62729281 -0.77874508
vn 0.02219860 -0.78067577 -0.62454188
vn -0.09433911 -0.30136149 -0.94883159
vn 0.02942857 -0.81950579 -0.57231479
f 7//7 2//2 1//1
f 10//10 4//4 3//3
f 11//11 1//1 2//2
f 12//12 11//11 6//6
f 12//12 1//1 11//11
f 16//16 7//7 1//1
f 18//18 10//10 3//3
f 18//18 6//6 10//10
f 21//21 2//2 7//7
f 21//21 7//7 13//13
f 23//23 13//13 5//5
f 25//25 9//9 14//14
f 25//25 14//14 24//24
f 25//25 24//24 23//23
f 25//25 23//23 5//5
f 27//27 3//3 4//4
f 28//28 14//14 9//9
f 28//28 24//24 14//14
f 28//28 4//4 24//24
f 28//28 27//27 4//4
f 28//28 15//15 27//27
f 29//29 16//16 1//1
f 29//29 1//1 12//12
f 29//29 9//9 16//16
f 30//30 10//10 6//6
f 30//30 6//6 17//17
f 30//30 4//4 10//10
f 31//31 17//17 6//6
f 32//32 12//12 6//6
f 32//32 6//6 18//18
f 32//32 29//29 12//12
f 32//32 18//18 3//3
f 32//32 3//3 29//29
f 33//33 11//11 2//2
f 34//34 13//13 7//7
f 34//34 7//7 20//20
f 34//34 20//20 5//5
f 34//34 5//5 13//13
f 35//35 16//16 9//9
f 35//35 9//9 25//25
f 35//35 25//25 5//5
f 35//35 5//5 20//20
f 36//36 22//22 21//21
f 36//36 21//21 13//13
f 36//36 13//13 23//23
f 37//37 2//2 21//21
f 37//37 21//21 22//22
f 38//38 8//8 22//22
f 38//38 24//24 8//8
f 38//38 23//23 24//24
f 39//39 24//24 4//4
f 39//39 4//4 30//30
f 40//40 26//26 15//15
f 40//40 9//9 26//26
f 40//40 28//28 9//9
f 40//40 15//15 28//28
f 41//41 15//15 26//26
f 41//41 27//27 15//15
f 41//41 3//3 27//27
f 42//42 29//29 3//3
f 42//42 9//9 29//29
f 42//42 41//41 26//26
f 42//42 3//3 41//41
f 43//43 31//31 6//6
f 43//43 6//6 11//11
f 43//43 11//11 31//31
f 44//44 17//17 31//31
f 45//45 31//31 11//11
f 46//46 22//22 8//8
f 47//47 33//33 19//19
f 47//47 11//11 33//33
f 47//47 45//45 11//11
f 47//47 19//19 45//45
f 48//48 19//19 33//33
f 49//49 33//33 2//2
f 49//49 37//37 22//22
f 49//49 2//2 37//37
f 50//50 35//35 20//20
f 50//50 20//20 7//7
f 50//50 7//7 16//16
f 50//50 16//16 35//35
f 51//51 36//36 23//23
f 51//51 23//23 38//38
f 51//51 38//38 22//22
f 51//51 22//22 36//36
f 52//52 8//8 24//24
f 52//52 24//24 39//39
f 53//53 42//42 26//26
f 53//53 26//26 9//9
f 53//53 9//9 42//42
f 54//54 39//39 30//30
f 54//54 30//30 17//17
f 54//54 17//17 44//44
f 55//55 44//44 31//31
f 55//55 31//31 46//46
f 55//55 46//46 8//8
f 55//55 52//52 44//44
f 55//55 8//8 52//52
f 56//56 46//46 31//31
f 56//56 31//31 45//45
f 56//56 45//45 19//19
f 56//56 19//19 48//48
f 56//56 48//48 22//22
f 56//56 22//22 46//46
f 57//57 48//48 33//33
f 57//57 22//22 48//48
f 58//58 52//52 39//39
f 58//58 44//44 52//52
f 58//58 54//54 44//44
f 58//58 39//39 54//54
f 59//59 49//49 22//22
f 59//59 22//22 57//57
f 59//59 57//57 33//33
f 59//59 33//33 49//49

