# https://github.com/mikedh/trimesh
v 0.03075240 0.00877299 0.01980972
v 0.03019542 -0.00438898 0.02000002
v 0.03133776 0.01081013 -0.01957233
v 0.01442102 -0.00438898 -0.01999998
v 0.01442102 -0.00438898 0.02000002
v 0.03019542 -0.00438898 -0.01999998
v 0.03075426 0.01110819 0.01892513
v 0.02134516 -0.01305132 0.01267555
v 0.01505844 -0.00176748 0.01926782
v 0.01892799 -0.01114943 0.02000002
v 0.02574885 -0.01129012 0.01267555
v 0.01501487 -0.00174643 -0.01926775
v 0.02525817 -0.01014703 0.01965038
v 0.03031690 0.01018880 -0.01894823
vn 0.59969912 0.18916639 0.77754553
vn 0.70931082 -0.25309222 0.65789246
vn 0.42292289 0.71709899 -0.55399032
vn -0.65306434 -0.38996209 -0.64918144
vn -0.76322979 -0.09306266 0.63939004
vn 0.57400008 -0.51057460 -0.64018550
vn 0.35666694 0.81891311 0.44963320
vn -0.14667545 -0.98918203 0.00228397
vn -0.71397107 0.51147251 0.47816438
vn -0.36396559 -0.66680880 0.65030384
vn 0.60160396 -0.79843653 0.02391195
vn -0.72056016 0.50877180 -0.47110967
vn 0.39381128 -0.63495897 0.66463507
vn -0.58288116 0.80683249 -0.09628538
f 1//1 2//2 3//3
f 5//5 2//2 1//1
f 6//6 3//3 2//2
f 6//6 4//4 3//3
f 7//7 1//1 3//3
f 8//8 4//4 6//6
f 9//9 5//5 1//1
f 9//9 1//1 7//7
f 10//10 5//5 4//4
f 10//10 4//4 8//8
f 10//10 2//2 5//5
f 11//11 8//8 6//6
f 11//11 6//6 2//2
f 12//12 4//4 5//5
f 12//12 5//5 9//9
f 12//12 3//3 4//4
f 12//12 9//9 7//7
f 13//13 10//10 8//8
f 13//13 8//8 11//11
f 13//13 11//11 2//2
f 13//13 2//2 10//10
f 14//14 12//12 7//7
f 14//14 7//7 3//3
f 14//14 3//3 12//12

