# https://github.com/mikedh/trimesh
v 0.03152721 0.05443114 0.01401862
v 0.07217592 0.04537342 -0.00335545
v 0.06484166 0.05253172 -0.02627875
v 0.03945117 0.04750420 -0.02737432
v 0.01926912 0.04787254 0.00875405
v 0.06843532 0.04537196 -0.02791606
v 0.02679845 0.05515610 -0.01501003
v 0.06563053 0.05320187 0.00413480
v 0.05823553 0.04861513 0.00657504
v 0.07054084 0.04956774 -0.02201478
v 0.06511638 0.05104207 -0.02763434
v 0.03918492 0.04512905 -0.02767455
v 0.03928054 0.05306882 -0.02364133
v 0.01926592 0.05411508 0.01393666
v 0.05326630 0.05514933 0.00697002
v 0.06734228 0.04539045 0.00107433
v 0.02411580 0.04800386 0.00860478
v 0.05822162 0.05431316 0.00661867
v 0.07039111 0.04562624 -0.02484652
v 0.07086008 0.05107641 -0.00350586
v 0.06797911 0.05027890 -0.02601632
v 0.06811109 0.04690809 -0.02800538
v 0.04903332 0.05135178 -0.02721208
v 0.02675978 0.05437857 -0.01837614
v 0.02233268 0.05506570 0.00914874
v 0.05578276 0.05489971 -0.01798847
v 0.06634737 0.04832784 0.00391579
v 0.06928083 0.05229989 -0.00102270
v 0.06842182 0.05234510 -0.02197669
v 0.07017975 0.04740560 -0.02472216
v 0.03943537 0.05146302 -0.02570408
v 0.04486433 0.05254193 -0.02546089
v 0.01940397 0.04711470 -0.00595095
v 0.01953016 0.05540313 -0.00574513
v 0.02441530 0.05476965 0.01272174
v 0.05113392 0.05496919 -0.01996713
v 0.07025901 0.05088467 -0.01788260
v 0.04179897 0.04941196 -0.02716363
v 0.01963005 0.05429866 0.01340674
v 0.03171005 0.05457751 0.01346944
v 0.04643205 0.05489041 -0.01992948
v 0.02200543 0.05457783 0.01292838
f 12 6 2
f 14 5 1
f 16 12 2
f 16 5 12
f 17 9 1
f 17 1 5
f 17 16 9
f 17 5 16
f 18 1 9
f 18 15 1
f 18 8 15
f 19 10 2
f 19 2 6
f 20 2 10
f 21 11 3
f 22 12 11
f 22 6 12
f 22 11 21
f 23 12 4
f 23 11 12
f 23 3 11
f 24 4 12
f 26 15 8
f 27 16 2
f 27 2 8
f 27 9 16
f 27 18 9
f 27 8 18
f 28 8 2
f 28 2 20
f 29 21 3
f 29 10 21
f 29 3 26
f 29 26 8
f 29 8 28
f 29 28 20
f 30 19 6
f 30 6 22
f 30 10 19
f 30 22 21
f 30 21 10
f 31 24 13
f 31 4 24
f 32 3 23
f 32 31 13
f 32 23 31
f 33 24 12
f 33 12 5
f 33 5 14
f 34 7 24
f 34 25 15
f 34 33 14
f 34 24 33
f 35 14 1
f 35 15 25
f 36 7 34
f 36 34 15
f 36 15 26
f 36 26 3
f 36 3 32
f 37 29 20
f 37 20 10
f 37 10 29
f 38 31 23
f 38 23 4
f 38 4 31
f 39 34 14
f 39 25 34
f 40 35 1
f 40 1 15
f 40 15 35
f 41 24 7
f 41 7 36
f 41 13 24
f 41 36 32
f 41 32 13
f 42 35 25
f 42 25 39
f 42 39 14
f 42 14 35

