# https://github.com/mikedh/trimesh
v -0.02717939 0.01589239 0.01974439
v -0.02163473 -0.00494010 0.01987307
v -0.02586584 0.01589239 -0.01822569
v -0.04231084 0.01589239 -0.01926775
v -0.04223445 -0.00438898 0.01933048
v -0.02163473 -0.00478366 -0.01982555
v -0.02595387 0.01589239 0.01846744
v -0.04223445 0.01589239 0.01933048
v -0.02163473 -0.00404114 0.01936704
v -0.02694578 0.01589239 -0.01961970
v -0.04231084 -0.00438898 -0.01926775
v -0.02163473 -0.00392022 -0.01926775
vn 0.24054721 0.65990699 0.71180040
vn 0.57878023 -0.55774474 0.59492374
vn 0.65559321 0.72085766 -0.22485946
vn -0.58430792 0.57884771 -0.56878782
vn -0.59073878 -0.57039151 0.57068487
vn 0.58244126 -0.55075975 -0.59785105
vn 0.64912858 0.71220092 0.26721141
vn -0.58387220 0.57891554 0.56916610
vn 0.97595113 0.14439550 0.16330747
vn 0.27803859 0.65657334 -0.70114620
vn -0.59040554 -0.57158238 -0.56983760
vn 0.98001718 0.14198594 -0.13930657
f 5//5 2//2 1//1
f 7//7 1//1 2//2
f 7//7 3//3 4//4
f 7//7 4//4 1//1
f 8//8 5//5 1//1
f 8//8 1//1 4//4
f 9//9 7//7 2//2
f 9//9 3//3 7//7
f 10//10 6//6 4//4
f 10//10 4//4 3//3
f 10//10 3//3 6//6
f 11//11 4//4 6//6
f 11//11 8//8 4//4
f 11//11 5//5 8//8
f 11//11 6//6 2//2
f 11//11 2//2 5//5
f 12//12 6//6 3//3
f 12//12 3//3 9//9
f 12//12 9//9 2//2
f 12//12 2//2 6//6

