# https://github.com/mikedh/trimesh
v 0.04414961 0.05082212 0.01926782
v 0.04997680 0.01645056 0.01845672
v 0.05010142 0.03794508 -0.01806118
v 0.02973259 0.06215893 -0.01957865
v 0.03019542 -0.00438898 0.02000002
v 0.04351211 0.05223637 -0.01888891
v 0.05001015 0.03778537 0.01845672
v 0.04821405 0.01206992 0.01926782
v 0.02976496 0.06217499 0.01958187
v 0.03019542 -0.00438898 -0.01999998
v 0.04810176 0.04435797 0.01845672
v 0.05027342 0.02068067 -0.01909998
v 0.04829289 0.04217094 0.01926782
v 0.03747100 0.05867556 0.01845672
v 0.03946612 -0.00235867 0.01845672
v 0.04365082 0.05246171 0.01845672
v 0.04791629 0.04426655 -0.01889868
v 0.05026108 0.03366716 -0.01908986
v 0.04783386 0.01015976 -0.01888891
v 0.03739795 0.05841575 -0.01888891
v 0.03342921 0.06094101 -0.01898783
v 0.03338116 0.06075928 0.01926782
v 0.03800065 -0.00288045 0.01933808
v 0.05009411 0.01642642 -0.01806113
v 0.04804940 0.01007631 0.01845672
v 0.03930466 -0.00219348 -0.01888891
v 0.04395947 0.00362429 0.01926782
v 0.04586456 0.00609459 -0.01888891
v 0.04141990 -0.00009096 -0.01888891
v 0.04346018 0.00207580 0.01845672
v 0.04357258 0.00198883 -0.01798771
vn 0.48433471 0.29270269 0.82446651
vn 0.85763244 -0.10053213 0.50434105
vn 0.93836265 0.18811895 -0.28997725
vn -0.47131475 0.66824628 -0.57559475
vn -0.50767934 -0.63386134 0.58350791
vn 0.61643034 0.45342681 -0.64375288
vn 0.85926013 0.09466045 0.50270412
vn 0.51407528 -0.15470604 0.84367805
vn -0.46061884 0.68132792 0.56887833
vn -0.49011188 -0.64370136 -0.58774051
vn 0.86344706 0.37240791 0.34025215
vn 0.72777991 -0.02690066 -0.68528298
vn 0.50657861 0.14839080 0.84932814
vn 0.55542398 0.70953893 0.43365736
vn 0.58001383 -0.76542045 0.27877497
vn 0.73222902 0.58920704 0.34157829
vn 0.68580879 0.30298273 -0.66171578
vn 0.72346295 0.02780908 -0.68980288
vn 0.69450602 -0.28997776 -0.65846358
vn 0.51625392 0.61759082 -0.59334936
vn 0.40764878 0.77441997 -0.48383487
vn 0.36600548 0.69535529 0.61848283
vn 0.29107740 -0.70475248 0.64699142
vn 0.93542462 -0.19682247 -0.29366935
vn 0.86010145 -0.38514006 0.33450357
vn 0.42462264 -0.70548125 -0.56744323
vn 0.50363140 -0.30846944 0.80697089
vn 0.66411142 -0.35266210 -0.65923096
vn 0.54396435 -0.51294688 -0.66406948
vn 0.75351878 -0.57939237 0.31066691
vn 0.78069768 -0.58368641 -0.22320685
f 9//9 4//4 5//5
f 10//10 5//5 4//4
f 11//11 7//7 3//3
f 12//12 7//7 2//2
f 13//13 5//5 8//8
f 13//13 9//9 5//5
f 13//13 1//1 9//9
f 13//13 11//11 1//1
f 13//13 7//7 11//11
f 13//13 8//8 2//2
f 13//13 2//2 7//7
f 16//16 1//1 11//11
f 16//16 14//14 1//1
f 17//17 11//11 3//3
f 17//17 16//16 11//11
f 17//17 6//6 16//16
f 17//17 4//4 6//6
f 18//18 3//3 7//7
f 18//18 7//7 12//12
f 18//18 17//17 3//3
f 18//18 4//4 17//17
f 18//18 12//12 10//10
f 18//18 10//10 4//4
f 19//19 10//10 12//12
f 20//20 6//6 4//4
f 20//20 16//16 6//6
f 20//20 14//14 16//16
f 21//21 4//4 9//9
f 21//21 20//20 4//4
f 21//21 14//14 20//20
f 22//22 9//9 1//1
f 22//22 1//1 14//14
f 22//22 21//21 9//9
f 22//22 14//14 21//21
f 23//23 5//5 10//10
f 24//24 19//19 12//12
f 24//24 12//12 2//2
f 25//25 2//2 8//8
f 25//25 24//24 2//2
f 25//25 19//19 24//24
f 26//26 23//23 10//10
f 26//26 15//15 23//23
f 27//27 8//8 5//5
f 27//27 5//5 23//23
f 27//27 25//25 8//8
f 27//27 23//23 15//15
f 28//28 10//10 19//19
f 28//28 19//19 25//25
f 29//29 26//26 10//10
f 29//29 10//10 28//28
f 30//30 25//25 27//27
f 30//30 27//27 15//15
f 31//31 15//15 26//26
f 31//31 26//26 29//29
f 31//31 30//30 15//15
f 31//31 29//29 28//28
f 31//31 28//28 25//25
f 31//31 25//25 30//30

