# https://github.com/mikedh/trimesh
v -0.02648984 0.05240317 0.01926782
v -0.02230645 -0.00505822 0.01990891
v -0.02230645 -0.00504631 -0.01990522
v -0.04176716 0.05240317 -0.01966672
v -0.04272833 -0.02196183 0.01871110
v -0.02648984 0.05240317 -0.01926775
v -0.02230810 -0.00343861 -0.01857555
v -0.04174948 0.05240317 0.01967623
v -0.02809891 -0.02196183 -0.01998430
v -0.02230812 -0.00345515 0.01861052
v -0.02230645 -0.00429912 -0.01957865
v -0.04174948 -0.02196183 0.01967623
v -0.04274709 0.05240317 -0.01867972
v -0.02230645 -0.00429912 0.01957872
v -0.02810302 -0.02196183 0.01998476
v -0.04272833 0.05240317 0.01871110
v -0.04274709 -0.02196183 -0.01867972
v -0.04176716 -0.02196183 -0.01966672
vn 0.56108856 0.60113122 0.56905262
vn 0.73198034 -0.11184383 0.67208314
vn 0.73201236 -0.11157020 -0.67209374
vn -0.29202277 0.62991364 -0.71967459
vn -0.71655981 -0.62972210 0.29998686
vn 0.56091195 0.60107706 -0.56928390
vn 0.99868327 0.04622286 -0.02225268
vn -0.28772609 0.63074000 0.72068076
vn 0.46018935 -0.65151531 -0.60311986
vn 0.99866861 0.04632572 0.02269235
vn 0.99574999 0.04238181 -0.08176637
vn -0.30189235 -0.63272859 0.71310275
vn -0.71769868 0.63051794 -0.29556002
vn 0.99571578 0.04231761 0.08221504
vn 0.46019369 -0.65163504 0.60298719
vn -0.71655981 0.62972210 0.29998686
vn -0.71769868 -0.63051794 -0.29556002
vn -0.30617872 -0.63189121 -0.71201691
f 6//6 3//3 4//4
f 7//7 6//6 1//1
f 8//8 2//2 1//1
f 8//8 6//6 4//4
f 8//8 1//1 6//6
f 9//9 3//3 2//2
f 9//9 4//4 3//3
f 10//10 7//7 1//1
f 11//11 3//3 6//6
f 11//11 6//6 7//7
f 11//11 2//2 3//3
f 14//14 10//10 1//1
f 14//14 1//1 2//2
f 14//14 2//2 11//11
f 14//14 11//11 7//7
f 14//14 7//7 10//10
f 15//15 2//2 8//8
f 15//15 8//8 12//12
f 15//15 9//9 2//2
f 15//15 12//12 5//5
f 16//16 13//13 5//5
f 16//16 8//8 4//4
f 16//16 4//4 13//13
f 16//16 12//12 8//8
f 16//16 5//5 12//12
f 17//17 5//5 13//13
f 18//18 4//4 9//9
f 18//18 5//5 17//17
f 18//18 15//15 5//5
f 18//18 9//9 15//15
f 18//18 17//17 13//13
f 18//18 13//13 4//4

