# https://github.com/mikedh/trimesh
v 0.04369899 0.05149564 0.01926782
v 0.05037641 0.01842186 0.01845672
v 0.05027294 0.03634452 -0.01845669
v 0.02873960 0.06284504 -0.01938951
v 0.03199271 0.01472159 0.01854248
v 0.04457353 0.05119617 -0.01845669
v 0.05043839 0.03644779 0.01773729
v 0.03296076 0.01488778 0.01956284
v 0.02875401 0.06282168 0.01941033
v 0.04923294 0.01550307 -0.01926775
v 0.04912559 0.03917794 0.01926782
v 0.05037641 0.01842186 -0.01845669
v 0.04748272 0.04586579 0.01845672
v 0.03666153 0.05928574 0.01845672
v 0.04923294 0.01550307 0.01926782
v 0.03198015 0.01471086 -0.01850161
v 0.04618606 0.04740016 -0.01926775
v 0.05046228 0.03502094 0.01846693
v 0.04617459 0.04735408 0.01926782
v 0.04917322 0.03912913 -0.01926775
v 0.04465254 0.05136023 0.01770503
v 0.04898855 0.04181960 0.01845672
v 0.03655707 0.05929674 -0.01845669
v 0.03140974 0.06242743 -0.01845846
v 0.03535884 0.05948289 0.01926782
v 0.03295918 0.01495205 -0.01954683
v 0.04745575 0.04589832 -0.01845669
v 0.05046826 0.03645192 0.01217510
v 0.04618368 0.04856249 0.01845672
v 0.04344524 0.05273572 0.01845672
v 0.03529791 0.05953685 -0.01925941
v 0.03130538 0.06242945 0.01847838
v 0.04895825 0.04192957 -0.01845669
v 0.02999896 0.06245514 -0.01926775
v 0.04473250 0.05003644 -0.01919451
v 0.03004140 0.06247680 0.01926782
vn 0.41523534 0.29959135 0.85896719
vn 0.90394339 -0.12738170 0.40824042
vn 0.90356712 0.07972959 -0.42096277
vn -0.53625509 0.61437688 -0.57876725
vn -0.67242704 -0.67811616 0.29664853
vn 0.73835112 0.58277516 -0.33942707
vn 0.97576661 0.15982073 0.14945522
vn -0.26305137 -0.59687949 0.75798341
vn -0.53783356 0.61285606 0.57891495
vn 0.48453776 -0.63134391 -0.60549816
vn 0.51002583 0.11148961 0.85290311
vn 0.90251784 -0.12321428 -0.41264971
vn 0.87065002 0.35728355 0.33810797
vn 0.58736085 0.73522543 0.33830576
vn 0.48450743 -0.63177227 0.60507549
vn -0.66727463 -0.68088382 -0.30189700
vn 0.47399086 0.24727708 -0.84509568
vn 0.87293236 0.02820394 0.48702529
vn 0.43387050 0.21192468 0.87569648
vn 0.50728445 0.11424815 -0.85417202
vn 0.81734543 0.56193553 0.12718063
vn 0.88703680 0.29162323 0.35794078
vn 0.60313526 0.72533101 -0.33184754
vn 0.36741331 0.88616978 -0.28233061
vn 0.29149091 0.43283439 0.85304598
vn -0.26581718 -0.56905439 -0.77815058
vn 0.87051457 0.37752039 -0.31572573
vn 0.99128317 0.13174852 0.00001004
vn 0.83297637 0.45348920 0.31701404
vn 0.68955211 0.63682372 0.34492526
vn 0.30210518 0.43525600 -0.84810652
vn 0.36592921 0.89307657 0.26174425
vn 0.89208901 0.28904992 -0.34731446
vn 0.27411358 0.61561748 -0.73883480
vn 0.45144481 0.30269020 -0.83939039
vn 0.27108311 0.65529832 0.70505181
f 9//9 5//5 8//8
f 11//11 9//9 8//8
f 12//12 2//2 10//10
f 15//15 8//8 5//5
f 15//15 10//10 2//2
f 15//15 11//11 8//8
f 16//16 9//9 4//4
f 16//16 5//5 9//9
f 16//16 15//15 5//5
f 16//16 10//10 15//15
f 18//18 2//2 12//12
f 18//18 15//15 2//2
f 18//18 11//11 15//15
f 19//19 1//1 9//9
f 19//19 9//9 11//11
f 20//20 12//12 10//10
f 20//20 3//3 12//12
f 22//22 18//18 7//7
f 22//22 11//11 18//18
f 22//22 19//19 11//11
f 22//22 13//13 19//19
f 24//24 14//14 23//23
f 25//25 9//9 1//1
f 25//25 1//1 14//14
f 26//26 16//16 4//4
f 26//26 10//10 16//16
f 26//26 20//20 10//10
f 26//26 4//4 17//17
f 26//26 17//17 20//20
f 27//27 17//17 6//6
f 28//28 18//18 12//12
f 28//28 12//12 3//3
f 28//28 7//7 18//18
f 28//28 22//22 7//7
f 29//29 19//19 13//13
f 29//29 13//13 27//27
f 29//29 27//27 6//6
f 29//29 6//6 21//21
f 29//29 1//1 19//19
f 30//30 14//14 1//1
f 30//30 29//29 21//21
f 30//30 1//1 29//29
f 30//30 23//23 14//14
f 30//30 21//21 6//6
f 30//30 6//6 23//23
f 31//31 17//17 4//4
f 31//31 24//24 23//23
f 31//31 23//23 6//6
f 32//32 14//14 24//24
f 32//32 25//25 14//14
f 32//32 24//24 4//4
f 32//32 4//4 9//9
f 33//33 27//27 13//13
f 33//33 13//13 22//22
f 33//33 3//3 20//20
f 33//33 20//20 17//17
f 33//33 17//17 27//27
f 33//33 28//28 3//3
f 33//33 22//22 28//28
f 34//34 31//31 4//4
f 34//34 4//4 24//24
f 34//34 24//24 31//31
f 35//35 31//31 6//6
f 35//35 6//6 17//17
f 35//35 17//17 31//31
f 36//36 32//32 9//9
f 36//36 9//9 25//25
f 36//36 25//25 32//32

