# https://github.com/mikedh/trimesh
v 0.02479854 0.06357497 0.01982569
v 0.02488673 0.05669346 0.02000002
v 0.01201586 0.05669346 -0.01999998
v -0.04193184 0.06773828 -0.01957865
v -0.04193184 0.06773828 0.01957872
v 0.01180760 0.06801925 -0.01770021
v 0.02529680 0.06509479 0.01217831
v -0.04272833 0.05240317 0.01871110
v 0.01187508 0.06709001 -0.01943177
v -0.04285284 0.06865928 -0.01845669
v 0.02488673 0.05669346 0.01217718
v 0.00477082 0.06834185 0.01867187
v -0.04174948 0.05240317 0.01967623
v -0.04176716 0.05240317 -0.01966672
v -0.04284825 0.06865469 0.01846642
v 0.01045074 0.06798939 -0.01845669
v 0.01754804 0.06712983 0.01217856
v 0.01606625 0.06663806 0.01926782
v 0.00496392 0.05360321 -0.01864042
v -0.04274709 0.05240317 -0.01867972
v 0.01181276 0.06785012 0.01845672
v 0.01744246 0.06686327 0.01863022
v 0.00495832 0.05361053 0.01867957
v -0.02648984 0.05240317 -0.01926775
v 0.00491304 0.05445184 0.01959704
v 0.00491493 0.05443685 -0.01958133
v -0.02648984 0.05240317 0.01926782
vn 0.63601649 0.40410002 0.65740870
vn 0.60465131 -0.52461134 0.59931606
vn 0.53945577 -0.42687926 -0.72578342
vn -0.33611615 0.34626661 -0.87585694
vn -0.33748300 0.34239219 0.87685393
vn 0.40131884 0.88754644 -0.22628415
vn 0.82363829 0.56065295 -0.08537111
vn -0.71460693 -0.63187190 0.30012471
vn 0.50206249 0.41789741 -0.75716247
vn -0.65837145 0.66226449 -0.35770487
vn 0.76699189 -0.62717899 -0.13553580
vn 0.03002180 0.84261765 0.53767479
vn -0.29355508 -0.63084995 0.71822959
vn -0.29822601 -0.63017265 -0.71689865
vn -0.65990178 0.66097301 0.35727344
vn 0.05645418 0.91909782 -0.38996425
vn 0.20095983 0.97952372 0.01218340
vn 0.08283723 0.55109220 0.83032245
vn 0.15554760 -0.92424747 -0.34867113
vn -0.71590091 -0.63248183 -0.29572390
vn 0.10011810 0.92477933 0.36709611
vn 0.23063982 0.89787166 0.37500900
vn 0.08179887 -0.93308960 0.35021815
vn 0.02422002 -0.86504187 -0.50111471
vn 0.03656773 -0.54135073 0.84000130
vn 0.07452442 -0.52279624 -0.84919386
vn 0.02442570 -0.86759546 0.49667042
f 5//5 2//2 1//1
f 7//7 1//1 2//2
f 9//9 3//3 4//4
f 9//9 7//7 3//3
f 9//9 6//6 7//7
f 11//11 7//7 2//2
f 11//11 3//3 7//7
f 12//12 6//6 10//10
f 13//13 2//2 5//5
f 13//13 5//5 8//8
f 14//14 4//4 3//3
f 15//15 8//8 5//5
f 15//15 12//12 10//10
f 15//15 5//5 12//12
f 16//16 9//9 4//4
f 16//16 4//4 10//10
f 16//16 10//10 6//6
f 16//16 6//6 9//9
f 17//17 7//7 6//6
f 18//18 12//12 5//5
f 18//18 5//5 1//1
f 19//19 11//11 2//2
f 19//19 3//3 11//11
f 20//20 10//10 4//4
f 20//20 4//4 14//14
f 20//20 15//15 10//10
f 20//20 8//8 15//15
f 21//21 17//17 6//6
f 21//21 6//6 12//12
f 21//21 12//12 18//18
f 22//22 18//18 1//1
f 22//22 1//1 7//7
f 22//22 7//7 17//17
f 22//22 21//21 18//18
f 22//22 17//17 21//21
f 23//23 19//19 2//2
f 24//24 20//20 14//14
f 25//25 23//23 2//2
f 25//25 2//2 13//13
f 26//26 24//24 14//14
f 26//26 14//14 3//3
f 26//26 3//3 19//19
f 26//26 19//19 24//24
f 27//27 13//13 8//8
f 27//27 8//8 20//20
f 27//27 20//20 24//24
f 27//27 25//25 13//13
f 27//27 23//23 25//25
f 27//27 24//24 19//19
f 27//27 19//19 23//23

