# https://github.com/mikedh/trimesh
v 0.02179280 -0.01133752 0.01976346
v 0.06140416 -0.07969042 0.01845672
v 0.02461523 -0.01131877 -0.01888891
v 0.01058577 -0.01195115 -0.01999998
v 0.04061805 -0.07833307 0.01845672
v 0.06014066 -0.07897738 -0.01940817
v 0.02313584 -0.01120381 -0.01957865
v 0.02461523 -0.01131877 0.01888892
v 0.06012777 -0.07897012 0.01941420
v 0.01208537 -0.02823937 0.01926782
v 0.06140416 -0.07969042 -0.01845669
v 0.04143070 -0.07965127 -0.01852993
v 0.01058577 -0.01195115 0.02000002
v 0.04144021 -0.07963475 0.01856087
v 0.04156533 -0.07861409 -0.01937852
v 0.01223912 -0.02957999 -0.01845669
v 0.04158341 -0.07860357 0.01939575
v 0.01223912 -0.02957999 0.01845672
v 0.01208537 -0.02823937 -0.01926775
v 0.01369032 -0.03242788 0.01774502
v 0.04046490 -0.07699209 0.01926782
v 0.04046490 -0.07699209 -0.01926775
v 0.04061805 -0.07833307 -0.01845669
vn 0.06061095 0.70417647 0.70743325
vn 0.79059592 -0.47167840 0.39048377
vn 0.54804051 0.72820158 -0.41155079
vn -0.61391549 0.52922649 -0.58568515
vn -0.83403216 -0.49765337 0.23818371
vn 0.36238729 -0.23797749 -0.90113382
vn 0.11971357 0.71111072 -0.69281325
vn 0.48900571 0.73013990 0.47725166
vn 0.36163672 -0.23731476 0.90161000
vn -0.73232036 -0.14993346 0.66424908
vn 0.79086155 -0.47165082 -0.38997885
vn -0.43713759 -0.81773125 -0.37446807
vn -0.61536707 0.52982028 0.58362131
vn -0.43407901 -0.81735614 0.37881968
vn -0.28244031 -0.36828543 -0.88577272
vn -0.90371175 -0.35574348 -0.23822605
vn -0.27753928 -0.36500396 0.88867545
vn -0.90636681 -0.34381801 0.24553691
vn -0.73212429 -0.14992292 -0.66446756
vn -0.86617025 -0.48691088 0.11254731
vn -0.63564430 -0.37162215 0.67664858
vn -0.63697807 -0.37225326 -0.67504552
vn -0.83538118 -0.49467010 -0.23966596
f 7//7 6//6 4//4
f 7//7 3//3 6//6
f 8//8 2//2 3//3
f 8//8 7//7 1//1
f 8//8 3//3 7//7
f 9//9 8//8 1//1
f 9//9 2//2 8//8
f 11//11 6//6 3//3
f 11//11 3//3 2//2
f 12//12 6//6 11//11
f 12//12 11//11 2//2
f 13//13 7//7 4//4
f 13//13 1//1 7//7
f 13//13 4//4 10//10
f 13//13 9//9 1//1
f 14//14 2//2 9//9
f 14//14 12//12 2//2
f 14//14 5//5 12//12
f 15//15 4//4 6//6
f 15//15 6//6 12//12
f 17//17 14//14 9//9
f 17//17 9//9 13//13
f 17//17 13//13 10//10
f 18//18 14//14 10//10
f 18//18 5//5 14//14
f 18//18 10//10 16//16
f 19//19 16//16 10//10
f 19//19 10//10 4//4
f 19//19 4//4 15//15
f 19//19 12//12 16//16
f 20//20 18//18 16//16
f 20//20 5//5 18//18
f 21//21 17//17 10//10
f 21//21 10//10 14//14
f 21//21 14//14 17//17
f 22//22 19//19 15//15
f 22//22 15//15 12//12
f 22//22 12//12 19//19
f 23//23 20//20 16//16
f 23//23 16//16 12//12
f 23//23 12//12 5//5
f 23//23 5//5 20//20

