# https://github.com/mikedh/trimesh
v 0.02680080 0.05502254 -0.00099042
v 0.03912889 0.03451276 -0.00086863
v 0.03943537 0.05146302 -0.02570408
v -0.00226845 0.04878967 -0.02334928
v -0.00304446 0.02432432 -0.00091813
v 0.00777215 0.05467411 -0.01250895
v 0.03887833 0.05526487 -0.01332314
v -0.00242915 0.05445169 -0.00104281
v 0.03885673 0.03032984 -0.02374703
v -0.00258985 0.05294541 -0.01744263
v 0.00251910 0.05513258 -0.00604404
v 0.03930191 0.03457104 -0.02748290
v 0.03770115 0.02894271 -0.00146747
v -0.00197646 0.03012614 -0.02307629
v -0.00258730 0.05081164 -0.02155084
v -0.00487201 0.03571356 -0.00829841
v 0.03899812 0.05440934 -0.02025238
v 0.02679845 0.05515610 -0.01501003
v 0.02681791 0.05523419 -0.00384362
v 0.00748912 0.05500713 -0.00121328
v 0.00264072 0.05502064 -0.00792777
v 0.03918492 0.04512905 -0.02767455
v 0.03772845 0.02868867 -0.01762934
v 0.00267179 0.02829045 -0.02277310
v 0.02691244 0.05091227 -0.02482049
v -0.00481395 0.03536615 -0.00595542
v -0.00189511 0.02816165 -0.02127675
v 0.03928054 0.05306882 -0.02364133
v 0.01268450 0.04865248 -0.02493260
v 0.00259577 0.03374248 -0.02517676
v 0.03400892 0.02873297 -0.02183019
v 0.02935705 0.05228860 -0.02359192
v 0.01253122 0.05226948 -0.02136025
v 0.03418406 0.03607841 -0.02741875
v 0.00521166 0.04495802 -0.02511235
v 0.00989418 0.03212136 -0.02494700
v 0.03445280 0.04299116 -0.02754658
v 0.03666676 0.04511666 -0.02749111
v 0.00260806 0.04048203 -0.02515357
v 0.00759639 0.04683583 -0.02488302
f 7 1 2
f 7 2 3
f 8 5 2
f 8 2 1
f 12 3 2
f 12 2 9
f 13 9 2
f 13 2 5
f 16 8 10
f 16 10 15
f 16 15 4
f 16 4 14
f 18 11 7
f 18 7 17
f 18 17 10
f 18 10 6
f 19 1 7
f 19 7 11
f 20 11 8
f 20 8 1
f 20 19 11
f 20 1 19
f 21 10 8
f 21 8 11
f 21 6 10
f 21 18 6
f 21 11 18
f 22 3 12
f 23 13 5
f 23 9 13
f 24 12 9
f 25 15 3
f 25 3 4
f 25 4 15
f 26 16 5
f 26 5 8
f 26 8 16
f 27 16 14
f 27 5 16
f 27 24 5
f 27 14 24
f 28 17 7
f 28 7 3
f 28 10 17
f 29 4 3
f 29 3 22
f 30 14 4
f 30 24 14
f 31 24 9
f 31 9 23
f 31 23 5
f 31 5 24
f 32 28 3
f 32 3 15
f 33 15 10
f 33 10 28
f 33 32 15
f 33 28 32
f 34 22 12
f 34 12 30
f 36 30 12
f 36 12 24
f 36 24 30
f 37 34 30
f 37 22 34
f 38 35 29
f 38 29 22
f 38 37 35
f 38 22 37
f 39 30 4
f 39 4 35
f 39 37 30
f 39 35 37
f 40 35 4
f 40 4 29
f 40 29 35

