# https://github.com/mikedh/trimesh
v -0.00831213 -0.00281975 0.03905572
v 0.00273728 -0.00274997 0.02805760
v -0.00103757 0.01928851 0.03124839
v -0.01605743 0.00343233 -0.02728260
v -0.05670860 -0.00357575 -0.00512538
v 0.00276919 0.01202321 -0.02604422
v -0.05713395 -0.00359297 -0.00245338
v 0.00257288 -0.00281749 -0.02639213
v 0.00277278 0.01687319 -0.02198165
v -0.03909891 0.01552473 0.02134775
v -0.03331749 -0.00329985 -0.02475247
v 0.00278564 0.00912237 -0.02761384
v -0.03344357 0.01855109 -0.01524971
v -0.03091396 -0.00233621 0.03110285
v -0.02829003 0.00830791 0.03108948
v -0.01775897 -0.00267559 -0.02750367
v -0.00800468 0.00868418 -0.02709150
v -0.00328989 0.01155015 -0.02583639
v -0.02022039 0.00563318 -0.02554925
v -0.05565605 -0.00313532 -0.00832241
v -0.04473921 0.01835267 -0.00352324
v -0.04510320 -0.00261628 0.01735735
v -0.02512022 -0.00272629 0.03423669
v -0.02055194 0.00121435 0.03558139
v -0.03759514 0.01717747 0.02150220
v -0.03699065 0.00677831 0.02645511
v -0.02867448 -0.00277569 -0.02583074
v -0.00704101 -0.00282396 -0.02751171
v -0.01261033 0.01155876 -0.02416299
v -0.03570911 -0.00061640 -0.02277249
v -0.01423041 0.00869384 -0.02569155
v -0.04496084 0.01792900 0.01462327
v -0.03787158 0.01866434 -0.01361968
v -0.03089530 0.00577393 0.03115632
v -0.02678664 0.00597069 0.03256379
v -0.02037894 -0.00252305 0.03594942
v -0.02867703 0.01718074 0.02450460
v -0.03694559 0.00223964 0.02653970
v -0.01772661 -0.00126445 -0.02744464
v -0.02857072 -0.00151195 -0.02565626
v 0.00246009 0.00723186 -0.02750927
v -0.03601302 -0.00288431 -0.02336579
v -0.03875395 0.01229544 0.02321369
v -0.04308142 0.00814939 0.01886521
v -0.04219996 0.01837152 -0.00910333
v -0.03424187 0.00892536 0.02774602
v -0.02528460 0.00160257 0.03381637
v -0.01434792 -0.00272748 0.03763183
v -0.03467280 0.01683737 0.02276550
v -0.03858770 0.00518902 0.02487354
v -0.01451331 -0.00155271 0.03754781
v -0.03853027 0.00213357 0.02484322
v -0.04163348 0.01248076 0.02000989
vn 0.17941953 -0.51283331 0.83953000
vn 0.75064113 -0.59147314 0.29444426
vn 0.49480879 0.68530090 0.53434721
vn -0.13528002 0.18820992 -0.97276736
vn -0.84066240 -0.50290975 -0.20091916
vn 0.64881199 0.43142324 -0.62683091
vn -0.87148219 -0.48418019 0.07802775
vn 0.60733452 -0.61078602 -0.50802089
vn 0.61334019 0.69819491 -0.36923931
vn -0.58340589 0.39040092 0.71219709
vn -0.28114223 -0.56054606 -0.77893977
vn 0.64289692 0.18340808 -0.74366997
vn -0.15676883 0.82431833 -0.54398789
vn -0.46634341 -0.59032006 0.65882172
vn -0.28866202 0.46317860 0.83793784
vn -0.06494411 -0.56082064 -0.82538626
vn -0.11013650 0.36244187 -0.92547601
vn -0.09295943 0.57955868 -0.80961119
vn -0.25081647 0.36426045 -0.89688652
vn -0.77946026 -0.36170316 -0.51148071
vn -0.54890211 0.82847398 -0.11107360
vn -0.63042781 -0.61277985 0.47650985
vn -0.29796600 -0.65645348 0.69302604
vn -0.24189310 0.22576746 0.94367197
vn -0.34176986 0.74561829 0.57205482
vn -0.65413593 0.13089638 0.74496465
vn -0.17839995 -0.23591008 -0.95525907
vn 0.02701052 -0.67832329 -0.73426694
vn -0.14543299 0.58398039 -0.79863393
vn -0.45205847 0.32578132 -0.83036719
vn -0.20413256 0.44025834 -0.87435833
vn -0.62520645 0.70615777 0.33235237
vn -0.33961102 0.78894521 -0.51208379
vn -0.47167259 0.20174133 0.85838535
vn -0.25717645 0.30779318 0.91603691
vn -0.28649028 -0.34049415 0.89553730
vn -0.23109471 0.66585226 0.70939129
vn -0.67261714 -0.07339283 0.73634209
vn -0.09913669 0.05887887 -0.99333036
vn -0.25352790 0.25722530 -0.93250134
vn 0.18056268 -0.08949569 -0.97948335
vn -0.52731263 -0.26149790 -0.80843072
vn -0.62332708 0.28265607 0.72908772
vn -0.80256306 0.08231107 0.59086159
vn -0.51132681 0.78574038 -0.34807606
vn -0.49360172 0.35122644 0.79561129
vn -0.35369625 0.10385711 0.92957660
vn -0.20147439 -0.61536278 0.76206083
vn -0.26143799 0.58614260 0.76686833
vn -0.74749355 0.04414117 0.66280083
vn -0.21554612 0.16566586 0.96233814
vn -0.73355354 -0.04268088 0.67829017
vn -0.75589140 0.15146992 0.63693410
f 1//1 2//2 3//3
f 7//7 2//2 1//1
f 9//9 3//3 2//2
f 11//11 7//7 5//5
f 11//11 8//8 2//2
f 11//11 2//2 7//7
f 12//12 2//2 8//8
f 12//12 9//9 2//2
f 12//12 6//6 9//9
f 13//13 3//3 9//9
f 17//17 12//12 4//4
f 17//17 6//6 12//12
f 18//18 13//13 9//9
f 18//18 9//9 6//6
f 18//18 6//6 17//17
f 19//19 17//17 4//4
f 20//20 11//11 5//5
f 21//21 5//5 7//7
f 21//21 20//20 5//5
f 23//23 7//7 1//1
f 23//23 22//22 7//7
f 23//23 14//14 22//22
f 24//24 1//1 3//3
f 27//27 16//16 11//11
f 28//28 8//8 11//11
f 28//28 11//11 16//16
f 28//28 16//16 12//12
f 29//29 18//18 17//17
f 29//29 17//17 13//13
f 29//29 13//13 18//18
f 30//30 19//19 11//11
f 30//30 13//13 19//19
f 31//31 19//19 13//13
f 31//31 13//13 17//17
f 31//31 17//17 19//19
f 32//32 21//21 7//7
f 32//32 10//10 25//25
f 32//32 25//25 3//3
f 32//32 3//3 21//21
f 32//32 7//7 22//22
f 33//33 21//21 3//3
f 33//33 3//3 13//13
f 33//33 30//30 20//20
f 33//33 13//13 30//30
f 34//34 14//14 23//23
f 35//35 24//24 3//3
f 35//35 3//3 15//15
f 35//35 34//34 24//24
f 35//35 15//15 34//34
f 36//36 24//24 23//23
f 37//37 15//15 3//3
f 37//37 3//3 25//25
f 38//38 22//22 14//14
f 38//38 34//34 26//26
f 38//38 14//14 34//34
f 39//39 27//27 4//4
f 39//39 16//16 27//27
f 39//39 4//4 12//12
f 39//39 12//12 16//16
f 40//40 19//19 4//4
f 40//40 4//4 27//27
f 40//40 27//27 11//11
f 40//40 11//11 19//19
f 41//41 28//28 12//12
f 41//41 12//12 8//8
f 41//41 8//8 28//28
f 42//42 30//30 11//11
f 42//42 11//11 20//20
f 42//42 20//20 30//30
f 43//43 10//10 32//32
f 43//43 25//25 10//10
f 44//44 32//32 22//22
f 45//45 33//33 20//20
f 45//45 20//20 21//21
f 45//45 21//21 33//33
f 46//46 34//34 15//15
f 46//46 15//15 25//25
f 46//46 25//25 43//43
f 46//46 43//43 26//26
f 46//46 26//26 34//34
f 47//47 34//34 23//23
f 47//47 23//23 24//24
f 47//47 24//24 34//34
f 48//48 36//36 23//23
f 48//48 23//23 1//1
f 49//49 37//37 25//25
f 49//49 25//25 15//15
f 49//49 15//15 37//37
f 50//50 38//38 26//26
f 50//50 44//44 22//22
f 51//51 48//48 1//1
f 51//51 1//1 24//24
f 51//51 24//24 36//36
f 51//51 36//36 48//48
f 52//52 50//50 22//22
f 52//52 22//22 38//38
f 52//52 38//38 50//50
f 53//53 32//32 44//44
f 53//53 44//44 50//50
f 53//53 43//43 32//32
f 53//53 50//50 26//26
f 53//53 26//26 43//43

