# https://github.com/mikedh/trimesh
v -0.00818976 -0.01971989 0.03317164
v 0.00237786 -0.07412776 0.01063727
v 0.00257288 -0.00281749 -0.02639213
v -0.02721290 -0.00277349 -0.02608850
v -0.04929654 -0.03226982 0.01287731
v 0.00349825 -0.06566648 -0.01848055
v -0.01562007 -0.00258145 0.00743555
v 0.00273728 -0.00274997 0.00739633
v -0.02013097 -0.05025204 0.03302832
v -0.00969615 -0.01950989 -0.02877337
v -0.03861365 -0.05107352 -0.01986013
v -0.01775897 -0.00267559 -0.02750367
v -0.03733789 -0.02031237 0.02462041
v 0.00246449 -0.04242511 0.02609172
v 0.00370329 -0.06991791 -0.01424481
v 0.00194906 -0.01798420 -0.02736633
v -0.05232350 -0.01969841 -0.01601133
v -0.03482943 -0.05274729 -0.02086051
v -0.03564661 -0.06308372 0.01312299
v -0.01297955 -0.01843561 -0.02878563
v -0.00243212 -0.01412223 -0.02877757
v -0.03181822 -0.01990117 0.02788723
v -0.03891394 -0.03242278 0.02453571
v -0.01380079 -0.05076004 0.03263501
v 0.00282131 -0.04639849 0.02220729
v 0.00239454 -0.00953571 -0.02747776
v -0.04304683 -0.05083954 -0.00791885
v -0.03812314 -0.01983155 -0.02267490
v -0.04632265 -0.02095697 0.01435850
v -0.03123210 -0.05237622 -0.02100929
v -0.03598908 -0.05368289 -0.01961785
v -0.02066482 -0.06624885 0.01847170
v -0.00131563 -0.07703969 0.00132115
v -0.01275945 -0.01426263 -0.02871781
v -0.00704101 -0.00282396 -0.02751171
v -0.00275662 -0.01978533 -0.02868211
v -0.00974528 -0.01963246 0.03295964
v -0.02763522 -0.00289486 0.00213465
v -0.04648639 -0.02703437 0.01708146
v -0.03888506 -0.03141255 0.02468285
v -0.04134820 -0.05109977 0.01716780
v 0.00214244 -0.05860759 0.02036348
v -0.01036183 -0.03466259 0.03424041
v 0.00265997 -0.07748432 0.00515423
v -0.04281236 -0.04830106 -0.01615609
v -0.05202144 -0.02318266 -0.01376215
v -0.05136780 -0.01904623 -0.01731044
v -0.03912357 -0.04821413 -0.02078299
v -0.02872847 -0.02023645 -0.02602524
v -0.04938067 -0.02728133 0.01149203
v -0.03711903 -0.05795676 -0.00799106
v -0.03416787 -0.06139823 0.01689507
v -0.00240613 -0.06996678 0.01509142
v -0.03321628 -0.05798148 -0.01554062
v -0.04471811 -0.02095456 0.01750767
v -0.04616205 -0.03394704 0.01715118
v -0.04178270 -0.02374054 0.02164897
v -0.02184536 -0.03895809 0.03406210
v -0.02105116 -0.04825586 0.03299628
v -0.04140121 -0.05582516 0.01294112
v 0.00222874 -0.07293825 0.01184932
v -0.01428863 -0.04823077 0.03398598
v 0.00297278 -0.07731523 -0.00143882
v -0.00802178 -0.07410785 0.01077323
vn 0.33708437 0.43493371 0.83498910
vn 0.65316557 -0.58400975 0.48198273
vn 0.60969234 0.61934676 -0.49465628
vn -0.32925839 0.70846021 -0.62423797
vn -0.94552306 -0.13429764 0.29656414
vn 0.58986039 -0.41424880 -0.69315413
vn -0.07384688 0.94585188 0.31608681
vn 0.65537198 0.70953160 0.25894493
vn -0.25668022 -0.41128099 0.87462175
vn -0.01061805 -0.11685553 -0.99309216
vn -0.60357363 -0.50841862 -0.61417374
vn -0.06733874 0.71464674 -0.69623669
vn -0.52936515 0.48704779 0.69466322
vn 0.82854232 -0.06447117 0.55620239
vn 0.60496664 -0.64408581 -0.46815471
vn 0.63321631 -0.07493308 -0.77033898
vn -0.92439371 0.29492544 -0.24189926
vn -0.20716293 -0.42490751 -0.88121344
vn -0.58954054 -0.78481006 0.19108930
vn -0.08659059 -0.06557086 -0.99408376
vn 0.13106998 0.03761094 -0.99065942
vn -0.35864872 0.49256251 0.79293964
vn -0.61549462 -0.14176908 0.77528569
vn 0.20872233 -0.51218955 0.83312475
vn 0.99477669 -0.03172438 0.09702006
vn 0.69424563 0.06644793 -0.71666427
vn -0.86872452 -0.48334389 -0.10814984
vn -0.35911762 -0.00309108 -0.93328719
vn -0.78772830 0.53087942 0.31249185
vn -0.01641578 -0.22357942 -0.97454747
vn -0.45841098 -0.67586105 -0.57712323
vn -0.20918786 -0.76955559 0.60334453
vn -0.27046777 -0.95383302 -0.13057472
vn -0.07137091 0.04774868 -0.99630631
vn 0.03677784 0.69640360 -0.71670734
vn 0.14899482 -0.11828648 -0.98173767
vn -0.12579416 0.53191934 0.83739934
vn -0.33368808 0.92167088 0.19792690
vn -0.80747121 0.09592439 0.58205562
vn -0.59613581 -0.01661086 0.80271177
vn -0.73540727 -0.32941504 0.59216710
vn 0.77744225 -0.29035640 0.55792178
vn 0.25428436 -0.01430098 0.96702376
vn 0.58354832 -0.78492098 0.20825565
vn -0.82614576 -0.42777951 -0.36672588
vn -0.97437934 -0.19855696 -0.10564111
vn -0.71488191 0.39575008 -0.57647700
vn -0.48973152 -0.22279434 -0.84292688
vn -0.24320212 -0.04210926 -0.96906116
vn -0.94877990 0.16768699 0.26776441
vn -0.61443335 -0.76340168 -0.19922232
vn -0.49473189 -0.61112181 0.61787580
vn 0.06193111 -0.67291777 0.73712021
vn -0.41275409 -0.80151882 -0.43266805
vn -0.70221089 0.51042600 0.49635186
vn -0.76892788 -0.13626888 0.62464446
vn -0.67982371 0.14966589 0.71794139
vn -0.28432110 -0.01309789 0.95863964
vn -0.46237574 -0.18434206 0.86731002
vn -0.83955605 -0.49520469 0.22342326
vn 0.60027509 -0.51156802 0.61479100
vn 0.18122986 -0.24716875 0.95187360
vn 0.56231942 -0.79156934 -0.23919627
vn -0.19304036 -0.89882180 0.39351595
f 8//8 7//7 1//1
f 8//8 3//3 7//7
f 12//12 7//7 3//3
f 12//12 4//4 7//7
f 14//14 8//8 1//1
f 15//15 6//6 3//3
f 15//15 3//3 8//8
f 20//20 10//10 18//18
f 21//21 10//10 20//20
f 25//25 15//15 8//8
f 25//25 8//8 14//14
f 26//26 3//3 6//6
f 26//26 6//6 16//16
f 26//26 21//21 3//3
f 26//26 16//16 21//21
f 30//30 18//18 10//10
f 30//30 10//10 6//6
f 30//30 6//6 18//18
f 31//31 18//18 6//6
f 31//31 6//6 15//15
f 31//31 11//11 18//18
f 32//32 24//24 9//9
f 34//34 20//20 4//4
f 34//34 4//4 12//12
f 34//34 21//21 20//20
f 34//34 12//12 21//21
f 35//35 21//21 12//12
f 35//35 12//12 3//3
f 35//35 3//3 21//21
f 36//36 21//21 16//16
f 36//36 16//16 6//6
f 36//36 6//6 10//10
f 36//36 10//10 21//21
f 37//37 1//1 7//7
f 37//37 7//7 22//22
f 38//38 22//22 7//7
f 38//38 13//13 22//22
f 38//38 7//7 4//4
f 38//38 17//17 29//29
f 40//40 22//22 13//13
f 42//42 25//25 14//14
f 42//42 2//2 25//25
f 43//43 14//14 1//1
f 44//44 25//25 2//2
f 46//46 27//27 5//5
f 46//46 5//5 17//17
f 46//46 45//45 27//27
f 46//46 17//17 45//45
f 47//47 4//4 28//28
f 47//47 38//38 4//4
f 47//47 17//17 38//38
f 48//48 18//18 11//11
f 48//48 47//47 28//28
f 48//48 17//17 47//47
f 48//48 45//45 17//17
f 48//48 11//11 45//45
f 48//48 20//20 18//18
f 49//49 28//28 4//4
f 49//49 4//4 20//20
f 49//49 48//48 28//28
f 49//49 20//20 48//48
f 50//50 29//29 17//17
f 50//50 17//17 5//5
f 50//50 39//39 29//29
f 50//50 5//5 39//39
f 51//51 19//19 27//27
f 51//51 27//27 45//45
f 51//51 45//45 11//11
f 51//51 11//11 31//31
f 51//51 33//33 19//19
f 52//52 32//32 9//9
f 52//52 19//19 32//32
f 52//52 9//9 41//41
f 53//53 24//24 32//32
f 54//54 31//31 15//15
f 54//54 51//51 31//31
f 54//54 33//33 51//51
f 55//55 38//38 29//29
f 55//55 13//13 38//38
f 55//55 29//29 39//39
f 56//56 39//39 5//5
f 56//56 40//40 39//39
f 56//56 23//23 40//40
f 56//56 41//41 23//23
f 56//56 5//5 41//41
f 57//57 40//40 13//13
f 57//57 39//39 40//40
f 57//57 55//55 39//39
f 57//57 13//13 55//55
f 58//58 40//40 23//23
f 58//58 22//22 40//40
f 58//58 37//37 22//22
f 58//58 43//43 1//1
f 58//58 1//1 37//37
f 59//59 41//41 9//9
f 59//59 23//23 41//41
f 59//59 58//58 23//23
f 59//59 9//9 58//58
f 60//60 27//27 19//19
f 60//60 52//52 41//41
f 60//60 19//19 52//52
f 60//60 41//41 5//5
f 60//60 5//5 27//27
f 61//61 42//42 24//24
f 61//61 2//2 42//42
f 61//61 53//53 2//2
f 61//61 24//24 53//53
f 62//62 42//42 14//14
f 62//62 24//24 42//42
f 62//62 14//14 43//43
f 62//62 9//9 24//24
f 62//62 58//58 9//9
f 62//62 43//43 58//58
f 63//63 15//15 25//25
f 63//63 25//25 44//44
f 63//63 44//44 33//33
f 63//63 54//54 15//15
f 63//63 33//33 54//54
f 64//64 44//44 2//2
f 64//64 32//32 19//19
f 64//64 19//19 33//33
f 64//64 33//33 44//44
f 64//64 53//53 32//32
f 64//64 2//2 53//53

