# https://github.com/mikedh/trimesh
v -0.00058447 0.03654455 0.02334929
v 0.05817928 0.05962744 -0.01595429
v 0.01879729 0.07631830 0.00178107
v 0.03314477 0.06608045 -0.03256726
v 0.00292655 0.03723687 -0.02058819
v 0.04569095 0.07824279 -0.01448135
v 0.03199757 0.05874891 0.00850865
v 0.04696522 0.04070493 -0.00593759
v -0.04949088 0.03874284 -0.01246487
v 0.04908360 0.06715155 -0.02909849
v 0.02074978 0.07482046 -0.01729998
v -0.00923739 0.05722313 0.02008252
v 0.03254583 0.07546198 0.00236410
v 0.00257673 0.03658919 0.02255803
v 0.05080247 0.06270836 -0.00554894
v -0.04836279 0.03666439 -0.01854917
v 0.05657962 0.07069187 -0.01966819
v 0.04654524 0.07493719 -0.02145644
v 0.04545963 0.04180586 -0.02001180
v 0.02228666 0.07818728 -0.00214452
v -0.04535154 0.03659933 0.01684647
v -0.03914327 0.05468015 0.01124304
v 0.01973879 0.05620161 0.01506540
v -0.00748960 0.06558640 0.01552544
v 0.04559328 0.04048273 -0.00333169
v 0.04476205 0.07113853 -0.00261627
v 0.03260800 0.04719078 -0.02924645
v -0.04055997 0.04005252 -0.02295808
v 0.05368712 0.06374117 -0.02589901
v 0.05646485 0.06792365 -0.01115266
v 0.04364858 0.06653762 -0.03199570
v 0.05397246 0.07174340 -0.02134703
v 0.04135273 0.07638988 -0.01864992
v 0.04872237 0.04318925 -0.01590579
v 0.04699620 0.04163296 -0.01715018
v 0.03000811 0.07815713 -0.01071030
v 0.03882939 0.07801391 -0.00460172
v 0.02780466 0.07793416 -0.00138560
v -0.02565725 0.03851232 0.02313737
v -0.04812700 0.03661387 0.01298586
v -0.01064376 0.06992914 0.00285860
v 0.02728713 0.03929258 0.01376293
v -0.00703525 0.04303766 0.02306285
v 0.01686548 0.07385341 0.00550930
v 0.02933961 0.07400992 0.00400442
v -0.02502948 0.05343298 0.01998383
v 0.05651099 0.05829350 -0.01302712
v 0.03487927 0.07277543 0.00223018
v 0.04454449 0.06640394 -0.00089413
v 0.03713415 0.04154489 -0.02434708
v 0.00831650 0.06701225 -0.01976512
v 0.03281420 0.05640253 -0.03228404
v -0.04240184 0.03689880 -0.02268008
v -0.04509307 0.03984281 -0.01862729
v 0.05802570 0.06165757 -0.01922893
v 0.05700293 0.06789339 -0.02135995
v 0.05816534 0.06807017 -0.01533401
v 0.05656660 0.06155186 -0.01137139
v 0.04627127 0.06776550 -0.03033741
v 0.03305158 0.07058282 -0.02819639
v 0.04801925 0.05989485 -0.03035024
v 0.04705734 0.07651198 -0.01864895
v 0.05645375 0.05509975 -0.01725945
v 0.02716478 0.07799270 -0.00979365
vn 0.12012211 -0.62481277 0.77147890
vn 0.97289443 -0.20636800 0.10434882
vn -0.08509320 0.90008122 0.42733236
vn -0.10618285 0.37912124 -0.91923462
vn 0.04471523 -0.94803053 -0.31502169
vn 0.31183963 0.95013451 0.00067568
vn 0.48002705 0.19144839 0.85610837
vn 0.60983164 -0.77519796 0.16484384
vn -0.96866460 0.20224033 -0.14417956
vn 0.52617639 0.34778072 -0.77600708
vn -0.26306005 0.86582442 -0.42561425
vn 0.02571293 0.35946290 0.93280506
vn 0.27047503 0.65049288 0.70971985
vn 0.22916267 -0.65521820 0.71984275
vn 0.66591480 0.01286099 0.74591694
vn -0.77322055 -0.39922706 -0.49269436
vn 0.75404907 0.61884122 -0.22010346
vn 0.16415398 0.81786843 -0.55149315
vn 0.42993637 -0.78081770 -0.45329729
vn -0.12808449 0.98507698 0.11496831
vn -0.55150867 -0.49368877 0.67239095
vn -0.63712939 0.71121887 0.29704184
vn 0.29338150 0.26571654 0.91832566
vn -0.10244361 0.72141030 0.68488867
vn 0.56348630 -0.70993834 0.42245797
vn 0.55073167 0.44854881 0.70391661
vn 0.10855365 -0.46709615 -0.87751769
vn -0.37273802 0.43760068 -0.81827380
vn 0.72640686 -0.06429334 -0.68425100
vn 0.77597601 0.36243089 0.51624131
vn 0.18406699 0.34136073 -0.92173326
vn 0.50678364 0.70423238 -0.49721936
vn -0.05857897 0.90642279 -0.41828965
vn 0.78005485 -0.60253143 -0.16873149
vn 0.50089921 -0.83408914 -0.23107420
vn -0.06595378 0.98193082 -0.17737520
vn 0.29931262 0.88013953 0.36846487
vn 0.04129363 0.94217178 0.33257658
vn -0.16098374 -0.37036990 0.91482806
vn -0.83095989 -0.46997684 0.29770361
vn -0.37196901 0.92806693 -0.01818881
vn 0.43176631 -0.58737395 0.68452151
vn 0.05714510 0.15608978 0.98608844
vn 0.01287644 0.76990905 0.63802370
vn 0.17125417 0.53530433 0.82711624
vn -0.26033081 0.44826200 0.85515440
vn 0.86934240 -0.28000851 0.40723338
vn 0.43918225 0.31878904 0.83993601
vn 0.56139011 0.17906233 0.80794667
vn 0.21106733 -0.79671707 -0.56629717
vn -0.36653048 0.73734664 -0.56742872
vn 0.03075371 -0.17879520 -0.98340555
vn -0.33163971 -0.57646280 -0.74679699
vn -0.56006184 0.70798682 -0.43021552
vn 0.92270338 -0.14762445 -0.35612568
vn 0.83943767 0.23682624 -0.48913978
vn 0.91917507 0.36101219 0.15744010
vn 0.84027082 -0.09214215 0.53427968
vn 0.30032388 0.56281362 -0.77009506
vn -0.13292169 0.77061264 -0.62328804
vn 0.48168623 -0.23547957 -0.84411359
vn 0.25444283 0.89210345 -0.37337687
vn 0.87084703 -0.44268160 -0.21367838
vn -0.15338121 0.97281956 -0.17348287
f 16//16 14//14 1//1
f 16//16 5//5 14//14
f 21//21 16//16 1//1
f 23//23 7//7 13//13
f 23//23 1//1 14//14
f 24//24 12//12 23//23
f 25//25 14//14 5//5
f 25//25 5//5 8//8
f 35//35 8//8 5//5
f 35//35 5//5 19//19
f 35//35 34//34 8//8
f 36//36 20//20 6//6
f 36//36 33//33 11//11
f 36//36 6//6 33//33
f 37//37 6//6 20//20
f 37//37 13//13 26//26
f 37//37 30//30 6//6
f 37//37 26//26 30//30
f 38//38 20//20 3//3
f 38//38 3//3 13//13
f 38//38 37//37 20//20
f 38//38 13//13 37//37
f 39//39 21//21 1//1
f 40//40 9//9 16//16
f 40//40 16//16 21//21
f 40//40 22//22 9//9
f 40//40 21//21 22//22
f 41//41 20//20 11//11
f 41//41 11//11 28//28
f 41//41 22//22 24//24
f 41//41 24//24 3//3
f 41//41 3//3 20//20
f 42//42 23//23 14//14
f 42//42 7//7 23//23
f 42//42 14//14 25//25
f 42//42 25//25 15//15
f 43//43 23//23 12//12
f 43//43 1//1 23//23
f 43//43 39//39 1//1
f 43//43 12//12 39//39
f 44//44 24//24 13//13
f 44//44 13//13 3//3
f 44//44 3//3 24//24
f 45//45 24//24 23//23
f 45//45 23//23 13//13
f 45//45 13//13 24//24
f 46//46 24//24 22//22
f 46//46 12//12 24//24
f 46//46 39//39 12//12
f 46//46 22//22 21//21
f 46//46 21//21 39//39
f 47//47 25//25 8//8
f 47//47 8//8 2//2
f 48//48 26//26 13//13
f 48//48 13//13 7//7
f 49//49 30//30 26//26
f 49//49 15//15 30//30
f 49//49 42//42 15//15
f 49//49 7//7 42//42
f 49//49 48//48 7//7
f 49//49 26//26 48//48
f 50//50 19//19 5//5
f 51//51 28//28 11//11
f 52//52 4//4 31//31
f 53//53 5//5 16//16
f 53//53 16//16 28//28
f 53//53 50//50 5//5
f 53//53 27//27 50//50
f 53//53 52//52 27//27
f 53//53 28//28 4//4
f 53//53 4//4 52//52
f 54//54 28//28 16//16
f 54//54 16//16 9//9
f 54//54 41//41 28//28
f 54//54 9//9 22//22
f 54//54 22//22 41//41
f 56//56 29//29 10//10
f 56//56 55//55 29//29
f 56//56 32//32 17//17
f 56//56 10//10 32//32
f 57//57 17//17 6//6
f 57//57 6//6 30//30
f 57//57 2//2 55//55
f 57//57 56//56 17//17
f 57//57 55//55 56//56
f 58//58 30//30 15//15
f 58//58 15//15 25//25
f 58//58 25//25 47//47
f 58//58 47//47 2//2
f 58//58 57//57 30//30
f 58//58 2//2 57//57
f 59//59 10//10 31//31
f 59//59 32//32 10//10
f 59//59 18//18 32//32
f 60//60 31//31 4//4
f 60//60 59//59 31//31
f 60//60 18//18 59//59
f 60//60 33//33 18//18
f 60//60 11//11 33//33
f 60//60 51//51 11//11
f 60//60 4//4 28//28
f 60//60 28//28 51//51
f 61//61 52//52 31//31
f 61//61 27//27 52//52
f 61//61 50//50 27//27
f 61//61 19//19 50//50
f 61//61 31//31 10//10
f 61//61 10//10 29//29
f 62//62 32//32 18//18
f 62//62 6//6 17//17
f 62//62 17//17 32//32
f 62//62 33//33 6//6
f 62//62 18//18 33//33
f 63//63 2//2 8//8
f 63//63 8//8 34//34
f 63//63 55//55 2//2
f 63//63 19//19 61//61
f 63//63 61//61 29//29
f 63//63 29//29 55//55
f 63//63 35//35 19//19
f 63//63 34//34 35//35
f 64//64 36//36 11//11
f 64//64 11//11 20//20
f 64//64 20//20 36//36

