# https://github.com/mikedh/trimesh
v 0.01028144 -0.00187045 0.04210605
v 0.04088565 -0.02243967 0.00516619
v 0.04559328 0.04048273 -0.00333169
v 0.01734583 0.04089183 -0.02625599
v 0.00241698 -0.02151638 -0.02538850
v 0.03510637 -0.02080152 -0.01595393
v 0.00234265 0.04734955 0.01754676
v 0.02962737 0.00308954 0.03167840
v 0.00323999 -0.02138452 0.03593402
v 0.04625346 0.04095302 -0.01755820
v 0.03423344 0.04100293 -0.02493000
v 0.03937859 -0.02180696 -0.01214126
v 0.00305020 0.04051553 -0.02185544
v 0.03498820 0.02659490 0.02297600
v 0.00204890 0.04422107 0.02020220
v 0.02376777 -0.02175546 0.02628742
v 0.00254610 0.04757234 0.01678948
v 0.01785736 -0.01595447 -0.02410376
v 0.00717220 -0.01349680 -0.02728652
v 0.04470007 0.04112189 -0.02020076
v 0.04082195 -0.02198507 -0.00926821
v 0.03066559 -0.02087775 -0.01747801
v 0.03115258 0.00255919 0.02871148
v 0.03057988 0.03191175 0.02204877
v 0.02404865 0.02054631 0.03091368
v 0.00202916 -0.01676299 -0.02756228
v 0.00301431 0.00072371 0.04213815
v 0.01450866 -0.00661283 0.04048146
v 0.03414969 -0.02193673 0.01593773
v 0.00593912 0.04684964 0.01624458
v 0.02343837 0.04088201 -0.02632426
v 0.00977260 0.04081818 -0.02446826
v 0.02726222 -0.01625636 -0.02090734
v 0.03883443 0.04107359 -0.02333739
v 0.03513637 0.02805539 0.02249750
v 0.03062473 0.03064155 0.02365327
v 0.01462353 -0.00046489 0.04043570
v 0.03001317 0.01472469 0.02949173
v 0.00215041 -0.01967278 -0.02648591
v 0.00320084 -0.00514498 0.04215618
v 0.00504050 0.02335171 0.03431455
v 0.02011317 -0.00327818 0.03747466
v 0.01106511 -0.02131146 0.03470227
v 0.03928339 -0.02208611 0.00793250
v 0.02944285 0.00262911 0.03174274
v 0.02960572 0.03936219 0.01222644
v 0.00278564 0.00912237 -0.02761384
v 0.03372865 -0.01817041 -0.01750777
v 0.03042465 0.02537607 0.02618118
v 0.01647531 0.02022113 0.03407464
v 0.03342257 0.02502353 0.02460541
v 0.02584649 0.00313923 0.03406393
v 0.00862210 -0.00558431 0.04214772
v 0.00360697 0.02175269 0.03446740
v 0.00575580 0.00933369 -0.02743846
v 0.01483344 0.02166908 0.03390421
v 0.01935575 0.02179266 0.03236861
v 0.02040723 0.00001234 0.03728441
v 0.01047419 -0.00414666 0.04198259
v 0.00505135 -0.00971435 0.04057169
v 0.00842968 -0.02109588 0.03584430
v 0.00865595 0.02315124 0.03408011
v 0.00697841 0.00107467 0.04188427
v 0.02929043 0.02664490 0.02607453
vn 0.19373875 0.09684541 0.97626137
vn 0.69768589 -0.69331944 0.18039556
vn 0.77802544 0.58896478 0.21862505
vn -0.07052174 0.65989477 -0.74804116
vn -0.49980354 -0.73108489 -0.46444731
vn 0.41575156 -0.57870072 -0.70160966
vn -0.53769468 0.72866305 0.42418698
vn 0.72245993 -0.02944302 0.69078560
vn -0.58328644 -0.66342393 0.46866366
vn 0.80924125 0.55213475 -0.20068836
vn 0.19430096 0.60534618 -0.77188285
vn 0.54185445 -0.69821032 -0.46786334
vn -0.68766974 0.55915161 -0.46309805
vn 0.80271938 0.08390970 0.59042421
vn -0.63620598 0.48858606 0.59709765
vn 0.38631536 -0.79448789 0.46856102
vn -0.37010205 0.92669789 0.06523409
vn 0.27073714 -0.29065812 -0.91772505
vn 0.16555335 -0.12102594 -0.97874655
vn 0.58093802 0.56808668 -0.58291385
vn 0.69390896 -0.69759610 -0.17846581
vn 0.22370661 -0.71979446 -0.65715393
vn 0.89000942 -0.06315461 0.45154705
vn 0.40946184 0.72751696 0.55050892
vn 0.39378508 0.28557063 0.87371776
vn -0.61517841 -0.18378376 -0.76666750
vn -0.65799900 0.12200249 0.74306979
vn 0.40762547 -0.23780138 0.88164164
vn 0.54255062 -0.72303969 0.42761248
vn 0.28452625 0.88065852 0.37879465
vn 0.05635868 0.63704316 -0.76876505
vn -0.22247815 0.68693939 -0.69182205
vn 0.33908199 -0.25971670 -0.90419613
vn 0.32095407 0.59921600 -0.73343620
vn 0.71401302 0.34225620 0.61077500
vn 0.38042390 0.58701749 0.71462446
vn 0.37811829 0.12648195 0.91707627
vn 0.55396044 0.17267042 0.81444015
vn -0.60428251 -0.38083613 -0.69986176
vn -0.64411443 -0.13528245 0.75287134
vn -0.14570806 0.45802266 0.87691756
vn 0.56014282 -0.16140515 0.81251978
vn 0.26137304 -0.80028516 0.53965526
vn 0.80804558 -0.29547663 0.50966253
vn 0.67162266 -0.20621712 0.71161612
vn 0.37575178 0.79070419 0.48331923
vn -0.64204584 0.03509168 -0.76586273
vn 0.47581639 -0.21386862 -0.85314652
vn 0.42055219 0.32388930 0.84748544
vn 0.27561916 0.32022767 0.90635993
vn 0.55231911 0.22391073 0.80299912
vn 0.49751071 0.08732150 0.86305159
vn 0.08492229 -0.20399874 0.97528084
vn -0.66966150 0.29422652 0.68189752
vn 0.06234363 -0.00095552 -0.99805429
vn 0.18040578 0.44304225 0.87816133
vn 0.31730802 0.39523848 0.86203374
vn 0.48558456 0.04024360 0.87326290
vn 0.23375163 -0.08333468 0.96871849
vn -0.03098957 -0.36017931 0.93236823
vn 0.13646308 -0.70249306 0.69848502
vn 0.11357559 0.46121731 0.87998817
vn 0.09331817 0.24358277 0.96538032
vn 0.35086563 0.39383940 0.84957862
f 9//9 5//5 2//2
f 10//10 3//3 2//2
f 14//14 2//2 3//3
f 15//15 7//7 13//13
f 16//16 9//9 2//2
f 17//17 3//3 10//10
f 17//17 13//13 7//7
f 19//19 11//11 18//18
f 20//20 12//12 6//6
f 20//20 10//10 12//12
f 20//20 17//17 10//10
f 21//21 2//2 5//5
f 21//21 5//5 12//12
f 21//21 12//12 10//10
f 21//21 10//10 2//2
f 22//22 12//12 5//5
f 22//22 6//6 12//12
f 22//22 5//5 18//18
f 23//23 14//14 8//8
f 23//23 8//8 2//2
f 23//23 2//2 14//14
f 26//26 15//15 13//13
f 26//26 19//19 18//18
f 27//27 26//26 9//9
f 27//27 15//15 26//26
f 29//29 16//16 2//2
f 30//30 17//17 7//7
f 30//30 3//3 17//17
f 31//31 17//17 11//11
f 31//31 4//4 17//17
f 31//31 11//11 19//19
f 32//32 17//17 4//4
f 32//32 13//13 17//17
f 33//33 18//18 11//11
f 33//33 22//22 18//18
f 33//33 6//6 22//22
f 34//34 11//11 17//17
f 34//34 17//17 20//20
f 34//34 33//33 11//11
f 35//35 14//14 3//3
f 36//36 7//7 15//15
f 36//36 35//35 3//3
f 36//36 3//3 24//24
f 36//36 30//30 7//7
f 36//36 24//24 30//30
f 37//37 1//1 28//28
f 38//38 8//8 14//14
f 38//38 25//25 37//37
f 39//39 5//5 9//9
f 39//39 9//9 26//26
f 39//39 26//26 18//18
f 39//39 18//18 5//5
f 40//40 27//27 9//9
f 42//42 28//28 16//16
f 42//42 37//37 28//28
f 43//43 9//9 16//16
f 43//43 16//16 28//28
f 44//44 29//29 2//2
f 44//44 2//2 8//8
f 44//44 8//8 29//29
f 45//45 29//29 8//8
f 45//45 16//16 29//29
f 45//45 42//42 16//16
f 45//45 8//8 42//42
f 46//46 30//30 24//24
f 46//46 24//24 3//3
f 46//46 3//3 30//30
f 47//47 4//4 31//31
f 47//47 32//32 4//4
f 47//47 26//26 13//13
f 47//47 13//13 32//32
f 47//47 19//19 26//26
f 48//48 20//20 6//6
f 48//48 6//6 33//33
f 48//48 34//34 20//20
f 48//48 33//33 34//34
f 49//49 35//35 36//36
f 49//49 25//25 38//38
f 50//50 37//37 25//25
f 50//50 1//1 37//37
f 51//51 38//38 14//14
f 51//51 14//14 35//35
f 51//51 49//49 38//38
f 51//51 35//35 49//49
f 52//52 38//38 37//37
f 52//52 8//8 38//38
f 52//52 42//42 8//8
f 53//53 1//1 27//27
f 53//53 27//27 40//40
f 54//54 41//41 15//15
f 54//54 15//15 27//27
f 54//54 27//27 41//41
f 55//55 47//47 31//31
f 55//55 31//31 19//19
f 55//55 19//19 47//47
f 56//56 36//36 15//15
f 57//57 56//56 50//50
f 57//57 36//36 56//56
f 57//57 50//50 25//25
f 57//57 25//25 49//49
f 58//58 52//52 37//37
f 58//58 37//37 42//42
f 58//58 42//42 52//52
f 59//59 53//53 28//28
f 59//59 28//28 1//1
f 59//59 1//1 53//53
f 60//60 53//53 40//40
f 60//60 40//40 9//9
f 60//60 9//9 53//53
f 61//61 43//43 28//28
f 61//61 28//28 53//53
f 61//61 53//53 9//9
f 61//61 9//9 43//43
f 62//62 56//56 15//15
f 62//62 15//15 41//41
f 63//63 27//27 1//1
f 63//63 1//1 50//50
f 63//63 50//50 56//56
f 63//63 56//56 62//62
f 63//63 62//62 41//41
f 63//63 41//41 27//27
f 64//64 57//57 49//49
f 64//64 49//49 36//36
f 64//64 36//36 57//57

