# https://github.com/mikedh/trimesh
v 0.00902135 0.02801507 0.02744406
v 0.01217045 0.02842297 0.02609747
v -0.02566388 0.03692487 0.02319147
v -0.04240184 0.03689880 -0.02268008
v -0.00192008 0.01705867 -0.02054170
v 0.00292655 0.03723687 -0.02058819
v 0.00231610 0.03594952 0.02295977
v 0.00273728 0.01791130 0.02328961
v -0.04952914 0.03711354 0.00074357
v 0.00275343 0.01761543 -0.02098984
v 0.00740946 0.03500888 0.02265541
v -0.02573490 0.01742268 0.02515485
v -0.03134102 0.03720932 -0.02262242
v -0.03928415 0.03140763 -0.02260247
v 0.01220477 0.03196252 0.02289239
v -0.00795821 0.01777894 0.02562342
v 0.00001845 0.02823805 0.02702975
v -0.04678359 0.03677897 0.01561278
v -0.03176551 0.01724446 0.02357050
v -0.04972147 0.03705205 -0.01449873
v -0.03427186 0.03100844 -0.02258720
v 0.01242200 0.03010963 0.02431397
v 0.01047849 0.03330946 0.02239339
v -0.04149441 0.01865271 -0.01002315
v -0.03612556 0.03679067 0.02161513
v -0.04556036 0.03447216 -0.02104181
v -0.04243801 0.03437613 -0.02272982
v -0.03641855 0.01894293 -0.01453971
v -0.04641284 0.01800794 0.00748673
v -0.03920718 0.01742610 0.02050715
v -0.04836279 0.03666439 -0.01854917
v -0.03935317 0.02816838 -0.02115173
v -0.04781923 0.02964578 0.01420889
v -0.04951329 0.03249105 -0.00225094
v -0.04535154 0.03659933 0.01684647
v -0.03657503 0.01742986 0.02187595
v -0.04548957 0.03682472 -0.02095410
v -0.04478478 0.02747308 -0.01547335
v -0.03885430 0.01894225 -0.01312290
v -0.04812700 0.03661387 0.01298586
v -0.04496084 0.01792900 0.01462327
v -0.04933510 0.03432493 -0.01286731
v -0.04782700 0.02643627 0.01204851
v -0.04673875 0.02785431 0.01518805
v -0.04638591 0.03462573 -0.02000533
v -0.04461127 0.01883146 -0.00442262
v -0.04035152 0.02728384 -0.01965417
v -0.04783443 0.03501723 0.01432632
v -0.04640569 0.01798085 0.00885171
v -0.04776754 0.02482753 0.00081725
v -0.04942249 0.03588558 -0.01446719
v -0.04520132 0.02933209 0.01659266
v -0.04809331 0.03616968 -0.01860007
v -0.04507764 0.03186574 -0.01931812
v -0.04641318 0.02741239 -0.01238062
v -0.04611446 0.01979524 0.00006164
v -0.04605407 0.02001033 0.01273098
v -0.04782410 0.02999572 -0.01259616
vn 0.26330217 0.02304877 0.96443804
vn 0.79787472 -0.08103597 0.59735175
vn -0.07480662 0.73688654 0.67186471
vn -0.19595822 0.64521033 -0.73844703
vn -0.00978705 -0.81657126 -0.57716167
vn 0.53143797 0.60270865 -0.59524446
vn 0.09496387 0.86464794 0.49332119
vn 0.37935760 -0.83475329 0.39909242
vn -0.72884282 0.68231843 0.05683041
vn 0.54615094 -0.56622983 -0.61733535
vn 0.31202107 0.85457844 0.41513679
vn -0.10423217 -0.64765237 0.75477285
vn 0.01746229 0.69942533 -0.71449232
vn -0.14202161 -0.24874662 -0.95809967
vn 0.84164132 0.49048010 0.22598487
vn 0.02372902 -0.74110345 0.67097139
vn -0.05070225 0.12875387 0.99037958
vn -0.55612519 0.66609018 0.49703988
vn -0.21044527 -0.69119694 0.69134621
vn -0.78864469 0.59231628 -0.16492722
vn 0.00775885 -0.07487174 -0.99716299
vn 0.95878132 0.17015022 0.22756820
vn 0.53471624 0.82102505 0.19999102
vn -0.43434299 -0.84532944 -0.31106960
vn -0.24657231 0.67856594 0.69191788
vn -0.61615268 -0.25194743 -0.74624283
vn -0.28804513 -0.15485751 -0.94501278
vn -0.20414109 -0.83749565 -0.50688011
vn -0.64467991 -0.76336576 -0.04074969
vn -0.42041337 -0.68769584 0.59188430
vn -0.77403102 0.42033613 -0.47349078
vn -0.31743782 -0.50830917 -0.80053421
vn -0.90257502 -0.07295631 0.42430615
vn -0.99151224 -0.12993314 0.00456696
vn -0.48304720 0.49246875 0.72397509
vn -0.33244446 -0.58273539 0.74155252
vn -0.43171181 0.66556295 -0.60881103
vn -0.68909608 -0.52340470 -0.50119270
vn -0.35401246 -0.82000374 -0.44974330
vn -0.79024021 0.58315995 0.18826810
vn -0.62658821 -0.69469482 0.35325107
vn -0.95250143 -0.26330826 -0.15300253
vn -0.97030080 -0.16584949 0.17609745
vn -0.72877469 -0.11498691 0.67502998
vn -0.75705228 -0.41247233 -0.50669361
vn -0.62275352 -0.75286089 -0.21302240
vn -0.52467677 -0.56553439 -0.63630585
vn -0.89740338 0.03861112 0.43951832
vn -0.66629276 -0.74353274 0.05668356
vn -0.96645439 -0.24981391 -0.05965670
vn -0.92501362 -0.28309216 -0.25339420
vn -0.62794425 -0.04673535 0.77685380
vn -0.79186131 -0.40203730 -0.45969738
vn -0.65110969 -0.50873296 -0.56324679
vn -0.78534307 -0.48990674 -0.37845429
vn -0.89332151 -0.42351269 -0.15037848
vn -0.93691812 -0.24589828 0.24843203
vn -0.86864506 -0.40112699 -0.29077979
f 7//7 3//3 1//1
f 7//7 6//6 3//3
f 8//8 2//2 1//1
f 9//9 3//3 6//6
f 10//10 8//8 5//5
f 10//10 2//2 8//8
f 11//11 7//7 1//1
f 11//11 1//1 2//2
f 11//11 6//6 7//7
f 13//13 9//9 6//6
f 13//13 6//6 10//10
f 14//14 10//10 5//5
f 15//15 10//10 6//6
f 15//15 11//11 2//2
f 16//16 8//8 1//1
f 16//16 1//1 12//12
f 17//17 12//12 1//1
f 17//17 1//1 3//3
f 17//17 3//3 12//12
f 18//18 3//3 9//9
f 19//19 5//5 8//8
f 19//19 16//16 12//12
f 19//19 8//8 16//16
f 20//20 13//13 4//4
f 20//20 9//9 13//13
f 21//21 13//13 10//10
f 21//21 10//10 14//14
f 22//22 15//15 2//2
f 22//22 2//2 10//10
f 22//22 10//10 15//15
f 23//23 15//15 6//6
f 23//23 6//6 11//11
f 23//23 11//11 15//15
f 25//25 19//19 12//12
f 25//25 12//12 3//3
f 25//25 3//3 18//18
f 27//27 21//21 14//14
f 27//27 4//4 13//13
f 27//27 13//13 21//21
f 27//27 26//26 4//4
f 28//28 5//5 24//24
f 29//29 24//24 5//5
f 30//30 29//29 5//5
f 30//30 5//5 19//19
f 32//32 27//27 14//14
f 32//32 26//26 27//27
f 32//32 14//14 5//5
f 32//32 5//5 28//28
f 34//34 9//9 20//20
f 35//35 25//25 18//18
f 36//36 30//30 19//19
f 36//36 19//19 25//25
f 36//36 35//35 30//30
f 36//36 25//25 35//35
f 37//37 31//31 20//20
f 37//37 20//20 4//4
f 37//37 4//4 26//26
f 37//37 26//26 31//31
f 39//39 32//32 28//28
f 39//39 28//28 24//24
f 39//39 24//24 38//38
f 40//40 18//18 9//9
f 40//40 9//9 33//33
f 42//42 34//34 20//20
f 43//43 33//33 9//9
f 43//43 9//9 34//34
f 43//43 41//41 33//33
f 44//44 41//41 30//30
f 44//44 33//33 41//41
f 44//44 35//35 18//18
f 44//44 18//18 33//33
f 45//45 31//31 26//26
f 46//46 24//24 29//29
f 47//47 26//26 32//32
f 47//47 39//39 38//38
f 47//47 32//32 39//39
f 48//48 40//40 33//33
f 48//48 33//33 18//18
f 48//48 18//18 40//40
f 49//49 29//29 30//30
f 49//49 30//30 41//41
f 49//49 43//43 34//34
f 49//49 34//34 29//29
f 50//50 42//42 29//29
f 50//50 29//29 34//34
f 50//50 34//34 42//42
f 51//51 42//42 20//20
f 51//51 20//20 31//31
f 52//52 44//44 30//30
f 52//52 30//30 35//35
f 52//52 35//35 44//44
f 53//53 45//45 38//38
f 53//53 31//31 45//45
f 54//54 45//45 26//26
f 54//54 38//38 45//45
f 54//54 47//47 38//38
f 54//54 26//26 47//47
f 55//55 38//38 24//24
f 55//55 24//24 46//46
f 56//56 46//46 29//29
f 56//56 29//29 42//42
f 57//57 49//49 41//41
f 57//57 41//41 43//43
f 57//57 43//43 49//49
f 58//58 51//51 31//31
f 58//58 42//42 51//51
f 58//58 31//31 53//53
f 58//58 53//53 38//38
f 58//58 38//38 55//55
f 58//58 55//55 46//46
f 58//58 56//56 42//42
f 58//58 46//46 56//56

