# https://github.com/mikedh/trimesh
v 0.00285426 0.00028390 0.04229967
v 0.00283984 -0.04455758 0.02384367
v 0.00273728 -0.00274997 0.00739633
v -0.01562007 -0.00258145 0.00743555
v -0.02228086 -0.01787641 0.03074593
v -0.02282302 -0.03913416 0.00623155
v -0.00196693 0.03402614 0.02412529
v 0.00360697 0.02175269 0.03446740
v -0.00915535 -0.04542235 0.03075089
v 0.00273728 -0.03930452 0.00739633
v -0.02214568 -0.02673440 0.00657663
v -0.02301464 -0.00291483 0.01969752
v 0.00290171 -0.03387406 0.03258440
v 0.00295351 0.03082232 0.02574761
v -0.02247903 -0.00269264 0.03527401
v -0.00583587 -0.04807152 0.02507828
v -0.02264692 -0.03930462 0.01684316
v -0.00839986 0.03398509 0.02421338
v 0.00295282 -0.00390434 0.04251514
v 0.00282792 -0.03677282 0.03140825
v 0.00127281 0.00027415 0.04218849
v -0.00933497 -0.03898169 0.03328751
v -0.00871331 -0.04717552 0.02942215
v 0.00276155 -0.04541556 0.02297701
v -0.00245707 -0.04691654 0.02257849
v -0.02037894 -0.00252305 0.03594942
v -0.02214505 -0.00682759 0.03427085
v 0.00151935 -0.00369873 0.04235563
v -0.02042993 -0.00508965 0.03553303
vn 0.57414326 0.16023772 0.80292178
vn 0.84813698 -0.39119746 0.35725091
vn 0.65421055 0.16632915 -0.73779616
vn -0.43545550 0.28711812 -0.85319499
vn -0.85780067 -0.18022444 0.48134932
vn -0.61169041 -0.46600792 -0.63927416
vn 0.23671783 0.95806973 -0.16145300
vn 0.58826313 0.38493749 0.71117482
vn -0.26584799 -0.52743811 0.80692868
vn 0.61496962 -0.42798128 -0.66230234
vn -0.63928892 0.07820322 -0.76497969
vn -0.95204661 0.22875039 -0.20317605
vn 0.76187894 -0.22483312 0.60744592
vn 0.76050409 0.64922403 0.01190308
vn -0.77958697 0.13925560 0.61061612
vn 0.04158987 -0.99891671 0.02087312
vn -0.84940430 -0.49791176 0.17491775
vn -0.45041893 0.89147882 -0.04887031
vn 0.61964439 -0.08771846 0.77996557
vn 0.75125381 -0.32607143 0.57384243
vn -0.18918998 0.19890685 0.96158370
vn -0.23598996 -0.32731167 0.91497312
vn -0.16981615 -0.84444155 0.50801667
vn 0.73082731 -0.67846275 0.07469772
vn 0.17198726 -0.94495986 -0.27833657
vn -0.30836621 0.11009787 0.94487498
vn -0.57875369 -0.23673603 0.78038466
vn -0.19303131 -0.07474279 0.97834167
vn -0.29635669 -0.15628658 0.94220338
f 7//7 3//3 4//4
f 10//10 6//6 3//3
f 10//10 8//8 2//2
f 10//10 3//3 8//8
f 11//11 4//4 3//3
f 11//11 3//3 6//6
f 12//12 4//4 11//11
f 12//12 11//11 6//6
f 13//13 2//2 8//8
f 14//14 8//8 3//3
f 14//14 3//3 7//7
f 14//14 7//7 8//8
f 17//17 9//9 5//5
f 17//17 5//5 15//15
f 17//17 15//15 12//12
f 17//17 12//12 6//6
f 18//18 7//7 4//4
f 18//18 4//4 12//12
f 18//18 12//12 15//15
f 18//18 15//15 8//8
f 18//18 8//8 7//7
f 19//19 13//13 8//8
f 19//19 8//8 1//1
f 20//20 13//13 9//9
f 20//20 2//2 13//13
f 21//21 1//1 8//8
f 21//21 19//19 1//1
f 22//22 5//5 9//9
f 22//22 9//9 13//13
f 22//22 13//13 19//19
f 23//23 9//9 17//17
f 23//23 17//17 6//6
f 23//23 6//6 16//16
f 23//23 20//20 9//9
f 23//23 2//2 20//20
f 24//24 10//10 2//2
f 24//24 23//23 16//16
f 24//24 2//2 23//23
f 25//25 16//16 6//6
f 25//25 6//6 10//10
f 25//25 24//24 16//16
f 25//25 10//10 24//24
f 26//26 21//21 8//8
f 26//26 8//8 15//15
f 27//27 22//22 15//15
f 27//27 15//15 5//5
f 27//27 5//5 22//22
f 28//28 19//19 21//21
f 28//28 21//21 26//26
f 28//28 22//22 19//19
f 29//29 26//26 15//15
f 29//29 15//15 22//22
f 29//29 28//28 26//26
f 29//29 22//22 28//28

