# https://github.com/mikedh/trimesh
v -0.02247903 -0.00269264 0.03527401
v -0.02244965 -0.01978058 0.03001044
v -0.02721290 -0.00277349 -0.02608850
v -0.02867448 -0.00277569 -0.02583074
v -0.05805025 -0.00616449 -0.00408418
v -0.02731996 -0.02028486 -0.02631809
v -0.04911549 0.00146555 -0.00800645
v -0.02301464 -0.00291483 0.01969752
v -0.04348864 -0.02056632 0.01884457
v -0.05143343 -0.01511514 -0.01959795
v -0.04510320 -0.00261628 0.01735735
v -0.02214505 -0.00682759 0.03427085
v -0.02335591 -0.01905505 0.01372762
v -0.04575051 -0.01466728 -0.02271470
v -0.05413358 -0.00264209 -0.01066135
v -0.05661645 -0.01699266 -0.01376681
v -0.05746683 -0.00381368 -0.00241549
v -0.03262907 -0.00251956 0.02986174
v -0.03295594 -0.01824740 0.02792460
v -0.05134281 -0.01836032 -0.01843439
v -0.03456359 -0.00326739 -0.02420615
v -0.04652556 -0.02056936 0.01331731
v -0.05438524 -0.01448132 -0.01705435
v -0.05772546 -0.00572394 -0.00866887
v -0.05363414 -0.00080726 -0.00795317
v -0.03733789 -0.02031237 0.02462041
v -0.02390104 -0.01632057 0.03100992
v -0.03181822 -0.01990117 0.02788723
v -0.02826624 -0.00272861 0.03277293
v -0.04565202 -0.01577135 -0.02252320
v -0.05227538 -0.00113365 -0.01041865
v -0.05313544 -0.01334388 -0.01810300
v -0.05769048 -0.00912898 -0.00664192
v -0.05342819 -0.01884079 -0.01562540
v -0.05449271 -0.01641166 -0.01629708
v -0.05634114 -0.01445312 -0.01399313
v -0.05087796 0.00059791 -0.00794325
v -0.03553373 -0.01827374 0.02622787
v -0.02236947 -0.01643195 0.03128569
v -0.02327178 -0.00677683 0.03398245
v -0.03147064 -0.01496028 0.02930455
v -0.02694971 -0.01945869 0.02918524
v -0.02872847 -0.02023645 -0.02602524
v -0.05072951 0.00009829 -0.00933778
v -0.05350939 -0.00133342 -0.00931890
v -0.04878024 -0.01353798 -0.02072747
v -0.05777293 -0.00997152 -0.00945669
v -0.05277772 -0.01868546 -0.01666863
v -0.05649525 -0.01699706 -0.01391676
v -0.02481941 -0.00357367 0.03430409
v -0.03999254 -0.01929803 -0.02244896
v -0.05169089 -0.01439856 -0.01929281
v -0.02512022 -0.00272629 0.03423669
vn 0.45734769 0.48682399 0.74420125
vn 0.56825270 -0.65123819 0.50296887
vn 0.51881894 0.53541311 -0.66645308
vn -0.16488535 0.59839746 -0.78404930
vn -0.98183228 -0.03798537 0.18590990
vn 0.48121895 -0.57522133 -0.66147467
vn -0.20882035 0.97077981 -0.11823965
vn 0.80266752 0.59359190 -0.05808186
vn -0.55010945 -0.69741763 0.45933456
vn -0.55394521 -0.08208756 -0.82849643
vn -0.64265941 0.57098970 0.51084210
vn 0.64251386 -0.18116191 0.74455108
vn 0.96551049 -0.24858115 -0.07743970
vn -0.37793394 0.03811052 -0.92504785
vn -0.61184502 0.57378806 -0.54443818
vn -0.86077394 -0.46810657 -0.19986114
vn -0.84335070 0.46565943 0.26818069
vn -0.47225067 0.61405454 0.63238938
vn -0.45182243 -0.21756273 0.86517221
vn -0.43702541 -0.64805075 -0.62372992
vn -0.30264181 0.57005399 -0.76383662
vn -0.59523870 -0.75077548 0.28640369
vn -0.75187138 0.01761951 -0.65907434
vn -0.88612113 0.34293247 -0.31174777
vn -0.56687590 0.81420681 -0.12537540
vn -0.43010995 -0.71749297 0.54791356
vn -0.21104402 -0.30647384 0.92818867
vn -0.22692593 -0.72345219 0.65201347
vn -0.39673083 0.54250605 0.74046731
vn -0.34727065 -0.33535056 -0.87575287
vn -0.41969375 0.75380797 -0.50559934
vn -0.62125186 0.25924290 -0.73948579
vn -0.93958346 -0.28560507 0.18871319
vn -0.42000574 -0.87776668 -0.23047959
vn -0.68329475 -0.28606346 -0.67177078
vn -0.87682701 0.10443433 -0.46932703
vn -0.44460380 0.89234646 -0.07775128
vn -0.57679785 -0.11279807 0.80906170
vn 0.62905343 -0.26689160 0.73011003
vn -0.26894445 -0.25020339 0.93008986
vn -0.42424270 -0.17002589 0.88944327
vn -0.20197691 -0.38677952 0.89978160
vn -0.17794362 -0.71097579 -0.68033043
vn -0.35815809 0.83052150 -0.42656397
vn -0.57148400 0.73455644 -0.36583176
vn -0.47018397 0.29286136 -0.83256186
vn -0.98912174 -0.05843967 -0.13499253
vn -0.44713132 -0.76598065 -0.46189525
vn -0.71966811 -0.36992261 -0.58756708
vn -0.36007904 -0.14682869 0.92129497
vn -0.24971986 -0.78116738 -0.57220409
vn -0.51993431 0.20105511 -0.83020790
vn -0.32559907 0.58662718 0.74152127
f 6//6 4//4 3//3
f 7//7 1//1 3//3
f 7//7 3//3 4//4
f 8//8 3//3 1//1
f 9//9 6//6 2//2
f 12//12 8//8 1//1
f 13//13 6//6 3//3
f 13//13 3//3 8//8
f 13//13 2//2 6//6
f 13//13 12//12 2//2
f 13//13 8//8 12//12
f 14//14 4//4 6//6
f 17//17 11//11 7//7
f 17//17 9//9 11//11
f 18//18 1//1 7//7
f 18//18 7//7 11//11
f 18//18 11//11 9//9
f 21//21 7//7 4//4
f 21//21 4//4 14//14
f 22//22 17//17 5//5
f 22//22 9//9 17//17
f 22//22 6//6 9//9
f 24//24 5//5 17//17
f 25//25 24//24 17//17
f 25//25 15//15 24//24
f 26//26 9//9 2//2
f 26//26 18//18 9//9
f 28//28 27//27 12//12
f 28//28 26//26 2//2
f 28//28 19//19 26//26
f 30//30 20//20 10//10
f 30//30 10//10 14//14
f 31//31 21//21 15//15
f 32//32 15//15 21//21
f 32//32 10//10 23//23
f 32//32 24//24 15//15
f 32//32 23//23 24//24
f 33//33 22//22 5//5
f 33//33 16//16 22//22
f 34//34 22//22 16//16
f 35//35 23//23 10//10
f 35//35 10//10 20//20
f 36//36 24//24 23//23
f 36//36 23//23 16//16
f 37//37 25//25 17//17
f 37//37 17//17 7//7
f 38//38 26//26 19//19
f 38//38 18//18 26//26
f 38//38 29//29 18//18
f 39//39 27//27 2//2
f 39//39 2//2 12//12
f 39//39 12//12 27//27
f 40//40 28//28 12//12
f 40//40 12//12 1//1
f 41//41 19//19 28//28
f 41//41 38//38 19//19
f 41//41 29//29 38//38
f 41//41 40//40 1//1
f 41//41 28//28 40//40
f 42//42 28//28 2//2
f 42//42 2//2 27//27
f 42//42 27//27 28//28
f 43//43 30//30 14//14
f 43//43 14//14 6//6
f 43//43 6//6 22//22
f 43//43 22//22 34//34
f 44//44 7//7 21//21
f 44//44 21//21 31//31
f 44//44 37//37 7//7
f 44//44 31//31 25//25
f 44//44 25//25 37//37
f 45//45 31//31 15//15
f 45//45 15//15 25//25
f 45//45 25//25 31//31
f 46//46 32//32 21//21
f 46//46 21//21 14//14
f 47//47 16//16 33//33
f 47//47 36//36 16//16
f 47//47 24//24 36//36
f 47//47 33//33 5//5
f 47//47 5//5 24//24
f 48//48 34//34 16//16
f 48//48 43//43 34//34
f 49//49 35//35 20//20
f 49//49 16//16 23//23
f 49//49 23//23 35//35
f 49//49 48//48 16//16
f 49//49 20//20 48//48
f 50//50 41//41 1//1
f 50//50 29//29 41//41
f 51//51 20//20 30//30
f 51//51 30//30 43//43
f 51//51 48//48 20//20
f 51//51 43//43 48//48
f 52//52 46//46 14//14
f 52//52 14//14 10//10
f 52//52 10//10 32//32
f 52//52 32//32 46//46
f 53//53 50//50 1//1
f 53//53 29//29 50//50
f 53//53 1//1 18//18
f 53//53 18//18 29//29

