# https://github.com/mikedh/trimesh
v 0.02818651 0.07201547 -0.01001239
v 0.03293452 0.04016190 -0.01008628
v 0.03314477 0.06608045 -0.03256726
v 0.02569683 0.06311061 -0.03188381
v 0.01376165 0.04337590 -0.01164940
v 0.03232046 0.04322568 -0.02737716
v 0.01949591 0.07310065 -0.02054205
v 0.03260323 0.07121174 -0.01083794
v 0.01150587 0.06795832 -0.01052302
v 0.03257337 0.04150846 -0.02573627
v 0.03107764 0.05490537 -0.03207886
v 0.01263595 0.04131866 -0.02555067
v 0.02247263 0.07190806 -0.02425048
v 0.03305158 0.07058282 -0.02819639
v 0.01953377 0.07410322 -0.01503865
v 0.03281420 0.05640253 -0.03228404
v 0.02371921 0.04852560 -0.03042027
v 0.01355729 0.05993956 -0.02720899
v 0.01722459 0.04271331 -0.02724056
v 0.02570226 0.06607313 -0.03039413
v 0.02713575 0.06864145 -0.02902067
v 0.02667422 0.07498915 -0.02042733
v 0.01242595 0.07034966 -0.01417885
v 0.03266400 0.05036123 -0.03043376
v 0.02370025 0.05642499 -0.03200313
v 0.01287317 0.04549412 -0.02740556
v 0.01329706 0.06629407 -0.02258042
v 0.03017892 0.06583711 -0.03209907
v 0.01789448 0.05853155 -0.03033850
v 0.02842092 0.07012586 -0.02790469
v 0.02452269 0.06743767 -0.02882343
v 0.02402442 0.07329637 -0.02327767
v 0.02223798 0.07518231 -0.01743986
v 0.03292495 0.07206602 -0.02542654
v 0.02572612 0.07544708 -0.01896265
v 0.03248401 0.04585646 -0.02867646
v 0.02942055 0.04879336 -0.03043578
v 0.02534771 0.05483919 -0.03202118
v 0.02393730 0.05908921 -0.03202550
v 0.01425590 0.05008344 -0.02896116
v 0.01438910 0.04406037 -0.02729061
v 0.01966569 0.07193216 -0.02261757
v 0.01326407 0.06995881 -0.01897514
v 0.01508958 0.05857338 -0.02883768
v 0.01490844 0.06098378 -0.02733724
v 0.01512693 0.07176580 -0.01739241
v 0.02381831 0.07466074 -0.02054403
v 0.03090976 0.07344082 -0.02245871
v 0.01743178 0.04690207 -0.02897375
v 0.01779859 0.05474876 -0.03034524
v 0.02083725 0.07299802 -0.02186063
v 0.01451634 0.07164856 -0.01562419
v 0.01795736 0.07298174 -0.01891343
v 0.01904890 0.05157473 -0.03031461
vn 0.09687894 0.57902673 0.80953228
vn 0.53647988 -0.61858556 0.57405683
vn 0.58971557 0.30994153 -0.74576927
vn -0.26732895 0.26659320 -0.92599314
vn -0.59730023 -0.52109004 0.60967008
vn 0.48514526 -0.49899634 -0.71807850
vn -0.40576355 0.82856463 -0.38579347
vn 0.68715049 0.45077495 0.56975973
vn -0.71968313 0.29879920 0.62671782
vn 0.62625269 -0.69881634 -0.34563461
vn 0.05375699 -0.22062596 -0.97387595
vn -0.64647589 -0.68135717 -0.34325113
vn -0.32863858 0.66545934 -0.67019441
vn 0.65033614 0.59757282 -0.46900920
vn -0.28478280 0.90860223 0.30551717
vn 0.66720273 -0.10573529 -0.73733342
vn -0.05822198 -0.34018787 -0.93855336
vn -0.79646402 0.25835108 -0.54671729
vn -0.06908835 -0.58459118 -0.80838107
vn -0.34964464 0.49524182 -0.79528873
vn -0.23898866 0.63393644 -0.73553315
vn 0.10597265 0.94703958 -0.30312674
vn -0.78058863 0.61964757 0.08196512
vn 0.72627238 -0.23486754 -0.64603844
vn -0.16296988 -0.05397952 -0.98515330
vn -0.74843263 -0.16568442 -0.64218165
vn -0.80277254 0.35678055 -0.47776971
vn -0.19938489 0.43322023 -0.87895728
vn -0.38545249 0.20482987 -0.89970612
vn -0.14888043 0.71710340 -0.68087982
vn -0.39151451 0.54406067 -0.74210132
vn -0.17678698 0.81511152 -0.55166980
vn -0.17803382 0.98290403 0.04694277
vn 0.70492204 0.66667756 -0.24212797
vn 0.09889575 0.99504521 -0.01023002
vn 0.64877180 -0.33746225 -0.68206626
vn 0.06875366 -0.36413892 -0.92880341
vn -0.06924901 -0.14592134 -0.98686957
vn -0.18386504 0.06097538 -0.98105843
vn -0.53910619 -0.06850419 -0.83944725
vn -0.22086620 -0.37443375 -0.90056509
vn -0.43964273 0.66525722 -0.60344602
vn -0.77270598 0.53471457 -0.34206111
vn -0.54112116 0.22733365 -0.80963405
vn -0.45056288 0.49418495 -0.74348795
vn -0.51382518 0.83719233 -0.18733042
vn -0.20107693 0.90688896 -0.37029782
vn 0.41111592 0.90720360 -0.08924863
vn -0.17583434 -0.29297258 -0.93981347
vn -0.30253062 -0.03505287 -0.95249489
vn -0.33416415 0.81317205 -0.47653492
vn -0.50850783 0.86081167 -0.02056850
vn -0.45166985 0.85435362 -0.25704908
vn -0.20170435 -0.16454873 -0.96552528
f 8//8 1//1 2//2
f 9//9 5//5 2//2
f 9//9 2//2 1//1
f 10//10 3//3 2//2
f 12//12 5//5 9//9
f 12//12 10//10 2//2
f 12//12 2//2 5//5
f 14//14 8//8 2//2
f 14//14 2//2 3//3
f 15//15 9//9 1//1
f 16//16 3//3 10//10
f 19//19 6//6 10//10
f 19//19 10//10 12//12
f 19//19 17//17 6//6
f 23//23 9//9 15//15
f 24//24 16//16 10//10
f 26//26 12//12 9//9
f 26//26 9//9 18//18
f 27//27 18//18 9//9
f 27//27 9//9 23//23
f 28//28 3//3 4//4
f 28//28 4//4 20//20
f 28//28 21//21 3//3
f 28//28 20//20 21//21
f 29//29 20//20 4//4
f 30//30 14//14 3//3
f 30//30 3//3 21//21
f 30//30 21//21 13//13
f 31//31 21//21 20//20
f 31//31 13//13 21//21
f 32//32 22//22 14//14
f 32//32 30//30 13//13
f 32//32 14//14 30//30
f 33//33 15//15 1//1
f 34//34 8//8 14//14
f 34//34 14//14 22//22
f 35//35 1//1 8//8
f 35//35 33//33 1//1
f 36//36 24//24 10//10
f 36//36 10//10 6//6
f 37//37 17//17 11//11
f 37//37 11//11 16//16
f 37//37 16//16 24//24
f 37//37 24//24 36//36
f 37//37 36//36 6//6
f 37//37 6//6 17//17
f 38//38 16//16 11//11
f 38//38 11//11 17//17
f 38//38 25//25 3//3
f 38//38 3//3 16//16
f 39//39 4//4 3//3
f 39//39 3//3 25//25
f 39//39 29//29 4//4
f 39//39 25//25 29//29
f 40//40 26//26 18//18
f 41//41 19//19 12//12
f 41//41 12//12 26//26
f 42//42 13//13 31//31
f 43//43 27//27 23//23
f 43//43 42//42 27//27
f 43//43 7//7 42//42
f 44//44 18//18 20//20
f 44//44 20//20 29//29
f 44//44 40//40 18//18
f 44//44 29//29 40//40
f 45//45 31//31 20//20
f 45//45 20//20 18//18
f 45//45 42//42 31//31
f 45//45 18//18 27//27
f 45//45 27//27 42//42
f 46//46 43//43 23//23
f 47//47 7//7 33//33
f 47//47 33//33 35//35
f 47//47 35//35 22//22
f 47//47 22//22 32//32
f 48//48 34//34 22//22
f 48//48 22//22 35//35
f 48//48 35//35 8//8
f 48//48 8//8 34//34
f 49//49 26//26 40//40
f 49//49 41//41 26//26
f 49//49 17//17 19//19
f 49//49 19//19 41//41
f 50//50 40//40 29//29
f 50//50 29//29 25//25
f 50//50 25//25 40//40
f 51//51 42//42 7//7
f 51//51 32//32 13//13
f 51//51 13//13 42//42
f 51//51 47//47 32//32
f 51//51 7//7 47//47
f 52//52 46//46 23//23
f 52//52 23//23 15//15
f 52//52 15//15 33//33
f 53//53 33//33 7//7
f 53//53 7//7 43//43
f 53//53 43//43 46//46
f 53//53 52//52 33//33
f 53//53 46//46 52//52
f 54//54 38//38 17//17
f 54//54 17//17 49//49
f 54//54 25//25 38//38
f 54//54 49//49 40//40
f 54//54 40//40 25//25

