# https://github.com/mikedh/trimesh
v 0.01106511 -0.02131146 0.03470227
v 0.05048560 -0.04440858 -0.00632117
v 0.04229059 -0.02207146 -0.00634986
v 0.00241698 -0.02151638 -0.02538850
v 0.00283249 -0.04301922 0.02547139
v 0.04153110 -0.04470721 -0.02186867
v 0.02782142 -0.02116651 -0.01809873
v 0.03414969 -0.02193673 0.01593773
v 0.02358978 -0.03953013 0.02458532
v 0.00282539 -0.02174524 0.03571336
v 0.05105950 -0.04509781 -0.01258241
v 0.00297153 -0.04440477 -0.01681930
v 0.00398235 -0.02122913 -0.02487845
v 0.03636099 -0.02156456 -0.01493809
v 0.04088565 -0.02243967 0.00516619
v 0.04402496 -0.04439192 0.00305253
v 0.02376777 -0.02175546 0.02628742
v 0.00224824 -0.02243710 -0.02477199
v 0.01194640 -0.03639544 0.03114680
v 0.02359440 -0.04494729 -0.02204218
v 0.04964826 -0.04498780 -0.01424967
v 0.03937859 -0.02180696 -0.01214126
v 0.04067174 -0.03019307 0.00957827
v 0.04206280 -0.02260695 0.00062913
v 0.03738761 -0.02218178 0.01107864
v 0.02433454 -0.04209672 0.02074916
v 0.02509691 -0.03725302 0.02479507
v 0.00282792 -0.03677282 0.03140825
v 0.01165830 -0.03373502 0.03234117
v 0.01531729 -0.04059050 0.02697873
v 0.04202489 -0.02417519 0.00358861
v 0.03909202 -0.03582701 0.01238630
v 0.03909977 -0.02712574 0.01077344
v 0.03622092 -0.04287912 0.01201381
v 0.00290171 -0.03387406 0.03258440
v 0.01307517 -0.03116550 0.03248030
v 0.01447846 -0.03548977 0.03071011
v 0.01572740 -0.03955764 0.02802377
v 0.02145531 -0.04071630 0.02494673
v 0.04269259 -0.04212232 0.00566826
v 0.03899540 -0.03172511 0.01244421
v 0.03175024 -0.03686671 0.01978978
v 0.03192325 -0.04259766 0.01551528
v 0.00567719 -0.02794169 0.03419802
v 0.01605938 -0.03091078 0.03090197
v 0.01499770 -0.03795080 0.02935911
v 0.01190751 -0.04209622 0.02559131
v 0.03754713 -0.03863826 0.01379332
v 0.03294779 -0.03014216 0.01851835
v 0.02680407 -0.03872958 0.02292778
v 0.02386775 -0.04075018 0.02344958
v 0.03897879 -0.04320154 0.00927230
v 0.03450199 -0.03014663 0.01694806
v 0.03161581 -0.03149625 0.01986588
v 0.03455301 -0.03854317 0.01677548
v 0.03757343 -0.03017903 0.01372375
v 0.03135972 -0.03973888 0.01850699
vn 0.22916762 0.61914477 0.75109384
vn 0.85288657 -0.46335619 0.24059414
vn 0.62544415 0.77506402 -0.08997434
vn -0.54133577 0.48403606 -0.68750613
vn -0.61251650 -0.71571939 0.33551346
vn 0.39650984 -0.49984661 -0.77002163
vn 0.19132992 0.80700601 -0.55868968
vn 0.52589217 0.72544419 0.44403620
vn 0.44240004 -0.45656964 0.77189790
vn -0.54411153 0.49052347 0.68068302
vn 0.82724062 -0.49749940 -0.26108869
vn -0.63853057 -0.67293777 -0.37340792
vn 0.08227712 0.82213605 -0.56331412
vn 0.35073525 0.78587150 -0.50930419
vn 0.64269862 0.71571995 0.27328270
vn 0.51063833 -0.75873075 0.40444548
vn 0.46731129 0.65551169 0.59323232
vn -0.96163039 -0.04877067 -0.26997855
vn 0.14085157 -0.50968507 0.84875318
vn -0.04854689 -0.75717265 -0.65140830
vn 0.63847440 -0.45600326 -0.62000925
vn 0.50440333 0.78777387 -0.35353870
vn 0.85982457 0.14341545 0.49003440
vn 0.75891555 0.64023456 0.11894072
vn 0.58461220 0.73811852 0.33676345
vn 0.17338690 -0.92053177 0.35008319
vn 0.52956892 -0.21647075 0.82018119
vn -0.64968433 -0.41326812 0.63805935
vn 0.18554414 -0.29703980 0.93666468
vn 0.13051765 -0.77407407 0.61949534
vn 0.91307889 0.28327772 0.29332690
vn 0.79047318 -0.04306335 0.61098093
vn 0.82038610 0.22464701 0.52583303
vn 0.42489484 -0.73377750 0.53012729
vn -0.59961278 -0.25261506 0.75937484
vn 0.35928886 -0.16764215 0.91804555
vn 0.37323207 -0.31411092 0.87294453
vn 0.19467867 -0.63906740 0.74410555
vn 0.29286453 -0.70521458 0.64568007
vn 0.80122316 -0.17311455 0.57277640
vn 0.78866570 0.07140445 0.61066179
vn 0.64367336 -0.14901155 0.75065316
vn 0.29256433 -0.84515031 0.44735563
vn 0.05285687 -0.22428325 0.97308950
vn 0.49756676 -0.10779077 0.86070231
vn 0.28563304 -0.48509126 0.82649878
vn 0.09399249 -0.88263981 0.46055659
vn 0.71147135 -0.24200764 0.65972783
vn 0.70179303 0.06268927 0.70961722
vn 0.54400210 -0.42883326 0.72122379
vn 0.39793707 -0.68943220 0.60525146
vn 0.51583859 -0.65449558 0.55276223
vn 0.71298520 0.06909794 0.69776613
vn 0.67329406 0.02208265 0.73904496
vn 0.64132141 -0.31494179 0.69965600
vn 0.72764373 0.11274641 0.67662608
vn 0.53158371 -0.52509413 0.66460132
f 8//8 7//7 1//1
f 11//11 3//3 2//2
f 13//13 1//1 7//7
f 13//13 10//10 1//1
f 13//13 4//4 10//10
f 13//13 7//7 6//6
f 13//13 6//6 4//4
f 14//14 6//6 7//7
f 14//14 8//8 3//3
f 14//14 7//7 8//8
f 16//16 11//11 2//2
f 16//16 5//5 11//11
f 17//17 8//8 1//1
f 18//18 10//10 4//4
f 18//18 12//12 5//5
f 18//18 4//4 12//12
f 20//20 12//12 4//4
f 20//20 4//4 6//6
f 20//20 6//6 11//11
f 20//20 11//11 5//5
f 20//20 5//5 12//12
f 21//21 11//11 6//6
f 21//21 6//6 14//14
f 22//22 14//14 3//3
f 22//22 3//3 11//11
f 22//22 21//21 14//14
f 22//22 11//11 21//21
f 24//24 2//2 3//3
f 24//24 3//3 15//15
f 25//25 15//15 3//3
f 25//25 3//3 8//8
f 26//26 5//5 16//16
f 27//27 17//17 1//1
f 28//28 18//18 5//5
f 28//28 10//10 18//18
f 29//29 28//28 19//19
f 31//31 23//23 2//2
f 31//31 15//15 23//23
f 31//31 24//24 15//15
f 31//31 2//2 24//24
f 33//33 23//23 15//15
f 33//33 15//15 25//25
f 33//33 25//25 8//8
f 35//35 10//10 28//28
f 35//35 28//28 29//29
f 36//36 1//1 29//29
f 37//37 29//29 19//19
f 37//37 9//9 27//27
f 37//37 36//36 29//29
f 37//37 27//27 36//36
f 38//38 19//19 28//28
f 38//38 28//28 5//5
f 38//38 5//5 30//30
f 39//39 38//38 30//30
f 40//40 16//16 2//2
f 40//40 2//2 32//32
f 41//41 32//32 2//2
f 41//41 2//2 23//23
f 41//41 33//33 8//8
f 41//41 23//23 33//33
f 42//42 17//17 27//27
f 42//42 32//32 41//41
f 43//43 26//26 16//16
f 43//43 16//16 34//34
f 43//43 39//39 26//26
f 44//44 35//35 29//29
f 44//44 10//10 35//35
f 44//44 29//29 1//1
f 44//44 1//1 10//10
f 45//45 36//36 27//27
f 45//45 27//27 1//1
f 45//45 1//1 36//36
f 46//46 37//37 19//19
f 46//46 19//19 38//38
f 46//46 38//38 39//39
f 46//46 39//39 9//9
f 46//46 9//9 37//37
f 47//47 39//39 30//30
f 47//47 30//30 5//5
f 47//47 5//5 26//26
f 47//47 26//26 39//39
f 48//48 16//16 40//40
f 48//48 40//40 32//32
f 48//48 32//32 42//42
f 49//49 8//8 17//17
f 49//49 42//42 41//41
f 50//50 42//42 27//27
f 50//50 27//27 9//9
f 51//51 9//9 39//39
f 51//51 39//39 43//43
f 51//51 50//50 9//9
f 51//51 43//43 34//34
f 51//51 34//34 50//50
f 52//52 34//34 16//16
f 52//52 16//16 48//48
f 53//53 49//49 41//41
f 53//53 8//8 49//49
f 54//54 49//49 17//17
f 54//54 17//17 42//42
f 54//54 42//42 49//49
f 55//55 48//48 42//42
f 55//55 42//42 50//50
f 55//55 52//52 48//48
f 55//55 34//34 52//52
f 56//56 53//53 41//41
f 56//56 41//41 8//8
f 56//56 8//8 53//53
f 57//57 55//55 50//50
f 57//57 50//50 34//34
f 57//57 34//34 55//55

