# https://github.com/mikedh/trimesh
v 0.00889134 -0.04344494 0.02455770
v 0.06123188 -0.07086547 -0.01245001
v 0.05157440 -0.04520508 -0.00770787
v 0.03490391 -0.05376284 -0.02900126
v 0.00297278 -0.07731523 -0.00143882
v 0.05678856 -0.06161248 -0.02622329
v 0.00297153 -0.04440477 -0.01681930
v 0.03517661 -0.04327559 0.01263517
v 0.04363132 -0.07901325 -0.00083090
v 0.05972860 -0.05791518 -0.01710932
v 0.04105984 -0.04512483 -0.02259868
v 0.02233337 -0.08218728 -0.02017383
v 0.00276107 -0.04380928 0.02462982
v 0.05797567 -0.06235848 -0.00665354
v 0.03240641 -0.04323139 0.01453356
v 0.06143675 -0.06923837 -0.02020113
v 0.04844132 -0.05775910 -0.02912797
v 0.05371733 -0.04733736 -0.01236892
v 0.03298052 -0.04559249 -0.02430141
v 0.00364093 -0.06397976 -0.01954572
v 0.03838688 -0.08605876 -0.01757564
v 0.00225803 -0.05832251 0.02033419
v 0.04528146 -0.04454113 0.00128030
v 0.05819413 -0.05439297 -0.01155092
v 0.05239741 -0.07543116 -0.00229917
v 0.06155964 -0.06225717 -0.01380333
v 0.06106727 -0.06241961 -0.02004912
v 0.04961629 -0.05672363 -0.02755498
v 0.04088026 -0.06776390 -0.02899804
v 0.05814172 -0.05664034 -0.01845112
v 0.05541871 -0.05209235 -0.01654590
v 0.05205839 -0.04573710 -0.01215686
v 0.02852295 -0.04823866 -0.02564207
v 0.03961369 -0.04852132 -0.02592981
v 0.00829322 -0.05716131 -0.02089171
v 0.00416210 -0.06983867 -0.01512459
v 0.00265997 -0.07748432 0.00515423
v 0.05547921 -0.07713832 -0.01935631
v 0.02118374 -0.06650010 0.01534982
v 0.05158921 -0.05565148 -0.00175129
v 0.05343011 -0.04693835 -0.01043733
v 0.05668489 -0.05216424 -0.01433776
v 0.05964073 -0.06770186 -0.00767958
v 0.05255186 -0.07849998 -0.00617825
v 0.05514509 -0.07217705 -0.00364970
v 0.05972969 -0.06224315 -0.00944066
v 0.05966600 -0.06396256 -0.02319201
v 0.02234833 -0.07084982 -0.02582191
v 0.03792948 -0.07467763 -0.02561310
v 0.05162460 -0.06605401 -0.02888425
v 0.05964717 -0.06135243 -0.02168070
v 0.02893220 -0.05253500 -0.02717785
v 0.02403587 -0.04550475 -0.02269146
v 0.04205493 -0.05466512 -0.02867337
v 0.03733131 -0.04562664 -0.02436554
v 0.00357469 -0.05869994 -0.01923082
v 0.01849133 -0.07657767 -0.02270870
v 0.02009053 -0.08078664 -0.01983778
v 0.00378756 -0.06673710 -0.01800254
v 0.01402277 -0.07862321 0.00248347
v 0.02553787 -0.08373119 -0.01730299
v 0.00241894 -0.07184692 0.01256157
v 0.06102059 -0.07198098 -0.01878274
v 0.04634530 -0.07788181 -0.00074376
vn 0.12010040 0.58260219 0.80383492
vn 0.90876640 -0.35740614 0.21541700
vn 0.55351691 0.80201165 0.22449130
vn -0.08508121 0.22218740 -0.97128469
vn -0.78794409 -0.60127619 -0.13270662
vn 0.63013786 0.23109202 -0.74129802
vn -0.65056989 0.62271693 -0.43472111
vn 0.45910196 0.69049787 0.55896161
vn 0.18633781 -0.81021143 0.55572985
vn 0.86182649 0.46464712 -0.20336703
vn 0.25304060 0.86787499 -0.42750844
vn -0.27488094 -0.77598392 -0.56770541
vn -0.56419235 0.48359318 0.66919700
vn 0.76115611 0.18044660 0.62296100
vn 0.35584404 0.64484957 0.67642002
vn 0.86896423 -0.22334773 -0.44160724
vn 0.25585657 0.29806729 -0.91961585
vn 0.72359239 0.64683663 -0.24086599
vn -0.03142622 0.80416650 -0.59357277
vn -0.77469848 -0.11558627 -0.62167683
vn 0.12634209 -0.95091913 -0.28247209
vn -0.66849564 -0.27462424 0.69115491
vn 0.56365874 0.72275638 0.39989003
vn 0.87566387 0.41717786 0.24325998
vn 0.57530097 -0.42968758 0.69598662
vn 0.97370030 0.18249393 0.13639533
vn 0.92492806 0.24626646 -0.28958748
vn 0.48409044 0.59138808 -0.64491595
vn -0.02057239 -0.24548119 -0.96918304
vn 0.70666289 0.56537981 -0.42540948
vn 0.62806984 0.61893725 -0.47164070
vn 0.47213803 0.84847016 -0.23913191
vn -0.16902816 0.46130746 -0.87099076
vn 0.18602116 0.53446022 -0.82446855
vn -0.32920364 0.09534221 -0.93943325
vn -0.74211689 -0.52874119 -0.41194087
vn -0.66100684 -0.69463978 0.28380547
vn 0.52344056 -0.74842126 -0.40727827
vn 0.23410235 -0.44617382 0.86378528
vn 0.73795754 0.24285180 0.62963614
vn 0.78355751 0.61478729 0.08985659
vn 0.79891713 0.56181660 -0.21469404
vn 0.83320290 -0.06859928 0.54869578
vn 0.54432369 -0.77768392 0.31451461
vn 0.70417913 -0.23157366 0.67119699
vn 0.86789364 0.20881516 0.45072925
vn 0.77917118 0.02541444 -0.62629576
vn -0.22689027 -0.20763059 -0.95153053
vn 0.02722029 -0.50444158 -0.86301666
vn 0.30268170 -0.24595924 -0.92080825
vn 0.77125956 0.43203082 -0.46744846
vn -0.26984343 0.17779798 -0.94634687
vn -0.13065336 0.76541177 -0.63013849
vn 0.11350017 0.38806607 -0.91461600
vn 0.06439503 0.77360737 -0.63038474
vn -0.73183654 0.05335240 -0.67938855
vn -0.37734904 -0.47284214 -0.79625876
vn -0.53278137 -0.68548478 -0.49624049
vn -0.81549164 -0.36045971 -0.45281584
vn 0.02146779 -0.88947008 0.45648890
vn -0.21786217 -0.96994458 -0.10836781
vn -0.65283539 -0.51579539 0.55476218
vn 0.81116511 -0.50443791 -0.29589451
vn 0.35101988 -0.62955109 0.69314534
f 11//11 8//8 3//3
f 11//11 7//7 8//8
f 13//13 1//1 7//7
f 15//15 8//8 7//7
f 15//15 7//7 1//1
f 19//19 7//7 11//11
f 20//20 5//5 7//7
f 22//22 13//13 7//7
f 22//22 1//1 13//13
f 23//23 3//3 8//8
f 24//24 23//23 14//14
f 24//24 3//3 23//23
f 26//26 2//2 16//16
f 26//26 10//10 24//24
f 27//27 26//26 16//16
f 27//27 10//10 26//26
f 28//28 17//17 11//11
f 28//28 11//11 6//6
f 28//28 6//6 17//17
f 29//29 4//4 17//17
f 31//31 6//6 11//11
f 31//31 30//30 6//6
f 32//32 11//11 3//3
f 32//32 31//31 11//11
f 32//32 18//18 31//31
f 33//33 19//19 4//4
f 34//34 11//11 17//17
f 37//37 7//7 5//5
f 39//39 1//1 22//22
f 39//39 25//25 15//15
f 39//39 15//15 1//1
f 40//40 23//23 8//8
f 40//40 8//8 14//14
f 40//40 14//14 23//23
f 41//41 24//24 18//18
f 41//41 3//3 24//24
f 41//41 32//32 3//3
f 41//41 18//18 32//32
f 42//42 24//24 10//10
f 42//42 18//18 24//24
f 42//42 10//10 30//30
f 42//42 31//31 18//18
f 42//42 30//30 31//31
f 43//43 14//14 8//8
f 43//43 2//2 26//26
f 44//44 9//9 21//21
f 44//44 21//21 38//38
f 44//44 2//2 25//25
f 45//45 8//8 15//15
f 45//45 15//15 25//25
f 45//45 43//43 8//8
f 45//45 25//25 2//2
f 45//45 2//2 43//43
f 46//46 26//26 24//24
f 46//46 24//24 14//14
f 46//46 43//43 26//26
f 46//46 14//14 43//43
f 47//47 27//27 16//16
f 47//47 16//16 6//6
f 48//48 4//4 29//29
f 48//48 20//20 35//35
f 49//49 21//21 12//12
f 49//49 48//48 29//29
f 50//50 29//29 17//17
f 50//50 17//17 6//6
f 50//50 6//6 16//16
f 50//50 49//49 29//29
f 50//50 38//38 21//21
f 50//50 21//21 49//49
f 51//51 6//6 30//30
f 51//51 47//47 6//6
f 51//51 27//27 47//47
f 51//51 30//30 10//10
f 51//51 10//10 27//27
f 52//52 33//33 4//4
f 52//52 7//7 33//33
f 52//52 35//35 7//7
f 52//52 48//48 35//35
f 52//52 4//4 48//48
f 53//53 33//33 7//7
f 53//53 7//7 19//19
f 53//53 19//19 33//33
f 54//54 34//34 17//17
f 54//54 17//17 4//4
f 54//54 4//4 34//34
f 55//55 34//34 4//4
f 55//55 4//4 19//19
f 55//55 19//19 11//11
f 55//55 11//11 34//34
f 56//56 35//35 20//20
f 56//56 20//20 7//7
f 56//56 7//7 35//35
f 57//57 20//20 48//48
f 57//57 49//49 12//12
f 57//57 48//48 49//49
f 58//58 12//12 5//5
f 58//58 5//5 36//36
f 58//58 57//57 12//12
f 58//58 36//36 57//57
f 59//59 36//36 5//5
f 59//59 5//5 20//20
f 59//59 57//57 36//36
f 59//59 20//20 57//57
f 60//60 37//37 21//21
f 60//60 21//21 9//9
f 60//60 9//9 37//37
f 61//61 37//37 5//5
f 61//61 5//5 12//12
f 61//61 12//12 21//21
f 61//61 21//21 37//37
f 62//62 22//22 7//7
f 62//62 7//7 37//37
f 62//62 39//39 22//22
f 62//62 37//37 9//9
f 62//62 9//9 39//39
f 63//63 16//16 2//2
f 63//63 44//44 38//38
f 63//63 2//2 44//44
f 63//63 50//50 16//16
f 63//63 38//38 50//50
f 64//64 39//39 9//9
f 64//64 25//25 39//39
f 64//64 44//44 25//25
f 64//64 9//9 44//44

