# OBJ generated by ONSHAPE BY PTC INC, 1.210 Units = meters
g Part 1
v 0.02 -0.005 -0.0838111 
v 0.02 -0.005 -0.0888405 
v 0.02 -0.01 -0.0888405 
v 0.02 -0.01 -0.0838111 
v 0.116322 -0.005 -0.0208828 
v 0.116322 -0.01 -0.0208828 
v 0.116631 -0.01 -0.02 
v 0.113455 -0.005 -0.0276874 
v 0.113455 -0.01 -0.0276874 
v 0.1096 -0.005 -0.0346128 
v 0.1096 -0.01 -0.0346128 
v 0.104797 -0.005 -0.0414095 
v 0.104797 -0.01 -0.0414095 
v 0.0991555 -0.005 -0.047875 
v 0.0991555 -0.01 -0.047875 
v 0.0927214 -0.005 -0.0539578 
v 0.0927214 -0.01 -0.0539578 
v 0.0855458 -0.005 -0.0596091 
v 0.0855458 -0.01 -0.0596091 
v 0.0776863 -0.005 -0.0647838 
v 0.0776863 -0.01 -0.0647838 
v 0.0692055 -0.005 -0.0694405 
v 0.0692055 -0.01 -0.0694405 
v 0.0601714 -0.005 -0.0735419 
v 0.0601714 -0.01 -0.0735419 
v 0.0506561 -0.005 -0.0770553 
v 0.0506561 -0.01 -0.0770553 
v 0.0407358 -0.005 -0.0799526 
v 0.0407358 -0.01 -0.0799526 
v 0.0304898 -0.005 -0.0822105 
v 0.0304898 -0.01 -0.0822105 
v 0.116631 -0.005 -0.02 
v 0.121875 -0.01 -0.02 
v 0.121875 -0.005 -0.02 
v 0.0217986 -0.01 -0.0886209 
v 0.0324886 -0.01 -0.086907 
v 0.0429292 -0.01 -0.0845259 
v 0.0530403 -0.01 -0.081496 
v 0.0627442 -0.01 -0.0778405 
v 0.0719664 -0.01 -0.0735875 
v 0.0806362 -0.01 -0.0687696 
v 0.0886871 -0.01 -0.0634238 
v 0.0960571 -0.01 -0.0575911 
v 0.10269 -0.01 -0.0513164 
v 0.108534 -0.01 -0.0446477 
v 0.113545 -0.01 -0.0376363 
v 0.117685 -0.01 -0.030336 
v 0.120837 -0.01 -0.0230337 
v 0.0373105 -0.01 0.0858973 
v 0.0373105 0 0.0858973 
v 0.0267247 0 0.087919 
v 0.0476098 -0.01 0.0832163 
v 0.0476098 0 0.0832163 
v 0.0575437 -0.01 0.0798964 
v 0.0575437 0 0.0798964 
v 0.0670358 -0.01 0.0759632 
v 0.0670358 0 0.0759632 
v 0.0760134 -0.01 0.0714469 
v 0.0760134 0 0.0714469 
v 0.0844075 -0.01 0.0663822 
v 0.0844075 0 0.0663822 
v 0.0921536 -0.01 0.0608079 
v 0.0921536 0 0.0608079 
v 0.0991923 -0.01 0.0547668 
v 0.0991923 0 0.0547668 
v 0.10547 -0.01 0.0483053 
v 0.10547 0 0.0483053 
v 0.110937 -0.01 0.041473 
v 0.110937 0 0.041473 
v 0.115553 -0.01 0.0343224 
v 0.115553 0 0.0343224 
v 0.11926 -0.01 0.0269606 
v 0.11926 0 0.0269606 
v 0.117685 0 -0.030336 
v 0.120837 0 -0.0230337 
v 0.113545 0 -0.0376363 
v 0.108534 0 -0.0446477 
v 0.10269 0 -0.0513164 
v 0.0960571 0 -0.0575911 
v 0.0886871 0 -0.0634238 
v 0.0806362 0 -0.0687696 
v 0.0719664 0 -0.0735875 
v 0.0627442 0 -0.0778405 
v 0.0530403 0 -0.081496 
v 0.0429292 0 -0.0845259 
v 0.0324886 0 -0.086907 
v 0.0217986 0 -0.0886209 
v 0.121967 0 0.0197068 
v 0.121875 -0.005 0.02 
v 0.121875 -0.01 0.02 
v 0.121967 -0.005 0.0197068 
v 0.12378 -0.005 0.0125441 
v 0.12378 0 0.0125441 
v 0.124771 -0.005 0.00544427 
v 0.124771 0 0.00544427 
v 0.12498 -0.005 -0.00162723 
v 0.12498 0 -0.00162723 
v 0.124414 -0.005 -0.00870727 
v 0.124414 0 -0.00870727 
v 0.123051 -0.005 -0.0158321 
v 0.123051 0 -0.0158321 
v 0.0109413 0 -0.0896546 
v 0.0109413 -0.005 -0.0896546 
v 0 -0.005 -0.09 
v 0 0 0.09 
v 0 -0.005 0.09 
v 0.00502061 -0.005 0.0899274 
v 0.00502061 0 0.0899274 
v 0.0159338 -0.005 0.0892658 
v 0.0267247 -0.01 0.087919 
v 0.02 -0.005 0.0888405 
v 0.0159338 0 0.0892658 
v 0.02 -0.01 0.0888405 
v 0 0 -0.09 
v 0.116631 -0.01 0.02 
v 0.116631 -0.005 0.02 
v 0.02 -0.005 0.0838111 
v 0.02 -0.01 0.0838111 
v 0.0213879 -0.005 0.083639 
v 0.0213879 -0.01 0.083639 
v 0.0318505 -0.005 0.0819513 
v 0.0318505 -0.01 0.0819513 
v 0.0420583 -0.005 0.0796083 
v 0.0420583 -0.01 0.0796083 
v 0.0519299 -0.005 0.0766287 
v 0.0519299 -0.01 0.0766287 
v 0.0613863 -0.005 0.0730364 
v 0.0613863 -0.01 0.0730364 
v 0.0703518 -0.005 0.0688601 
v 0.0703518 -0.01 0.0688601 
v 0.0787548 -0.005 0.0641333 
v 0.0787548 -0.01 0.0641333 
v 0.086528 -0.005 0.0588936 
v 0.086528 -0.01 0.0588936 
v 0.0936094 -0.005 0.0531829 
v 0.0936094 -0.01 0.0531829 
v 0.0999423 -0.005 0.0470471 
v 0.0999423 -0.01 0.0470471 
v 0.105476 -0.005 0.040535 
v 0.105476 -0.01 0.040535 
v 0.110166 -0.005 0.0336989 
v 0.110166 -0.01 0.0336989 
v 0.113884 -0.005 0.0267896 
v 0.113884 -0.01 0.0267896 
v 0 0 0.0825 
v 0 -0.005 0.0825 
v 0 -0.005 -0.0825 
v 0 0 -0.0825 
v -0.01 0 -0.0825 
v -0.01 -0.005 -0.0825 
v -0.01 0 -0.0725 
v -0.01 -0.005 -0.0725 
v 0 -0.005 -0.0725 
v 0 0 -0.0725 
v -6.12323e-18 0 -0.065 
v 0 -0.005 -0.065 
v 0.01 -0.005 0.0825 
v 0.01 0 0.0825 
v 0.01 0 0.0725 
v 0.01 -0.005 0.0725 
v 0.00978327 0 -0.0646882 
v 0.052908 0 0.0551572 
v 0.0194727 0 -0.0637557 
v 0.0289752 0 -0.0622116 
v 0.0381998 0 -0.0600706 
v 0.060956 0 0.0515281 
v 0.0470579 0 -0.0573533 
v 0.0684191 0 0.0474047 
v 0.0554645 0 -0.0540857 
v 0.0752259 0 0.0428264 
v 0.0706057 0 -0.0460301 
v 0.063339 0 -0.0502991 
v 0.0813109 0 0.0378373 
v 0.0771951 0 -0.0413193 
v 0.0866158 0 0.0324851 
v 0.0830438 0 -0.0362122 
v 0.0908148 0 0.0272123 
v 0.0880355 0 -0.0308305 
v 0.0940373 0 0.0221094 
v 0.091911 0 -0.02561 
v 0.0964492 0 0.0171674 
v 0.0948662 0 -0.020559 
v 0.098175 0 0.0123615 
v 0.0970535 0 -0.0156624 
v 0.0993034 0 0.00765874 
v 0.0985859 0 -0.0108923 
v 0 0 0.0725 
v 0.00675172 0 0.0648517 
v 0.0998919 0 0.00302159 
v 0.099542 0 -0.00621406 
v 0.0164803 0 0.0641112 
v 0.0999701 0 -0.00158932 
v 0.0260507 0 0.0627557 
v 0.0353712 0 0.060798 
v 0.0443523 0 0.0582571 
v 1.83697e-17 0 0.065 
v 0 -0.005 0.065 
v 0 -0.005 0.0725 
v 0.02 -0.005 0.079787 
v 0.027772 -0.005 0.0786443 
v 0.0302985 -0.005 -0.0781882 
v 0.02 -0.005 -0.079787 
v 0.0403465 -0.005 -0.0759426 
v 0.0378897 -0.005 0.0765572 
v 0.0500607 -0.005 -0.0730689 
v 0.047694 -0.005 0.0738368 
v 0.0593608 -0.005 -0.0695908 
v 0.0571038 -0.005 0.0705057 
v 0.0681699 -0.005 -0.0655371 
v 0.0660413 -0.005 0.0665913 
v 0.0764151 -0.005 -0.0609413 
v 0.0744325 -0.005 0.0621262 
v 0.0840283 -0.005 -0.0558413 
v 0.082208 -0.005 0.0571471 
v 0.0909464 -0.005 -0.0502795 
v 0.0893036 -0.005 0.0516954 
v 0.0971122 -0.005 -0.0443018 
v 0.0956604 -0.005 0.0458161 
v 0.102475 -0.005 -0.0379577 
v 0.112408 -0.005 -0.02 
v 0.110433 -0.005 -0.0247926 
v 0.101226 -0.005 0.0395578 
v 0.106984 -0.005 -0.0313099 
v 0.105954 -0.005 0.0329723 
v 0.00978327 -0.005 -0.0646882 
v 0.0993034 -0.005 0.00765874 
v 0.112408 -0.005 0.02 
v 0.0951486 -0.005 0.02 
v 0.0964492 -0.005 0.0171674 
v 0.109655 -0.005 0.0264216 
v 0.0194727 -0.005 -0.0637557 
v 0.0985859 -0.005 -0.0108923 
v 0.0970535 -0.005 -0.0156624 
v 0.099542 -0.005 -0.00621406 
v 0.098175 -0.005 0.0123615 
v 0.00675172 -0.005 0.0648517 
v 0.0164803 -0.005 0.0641112 
v 0.02 -0.005 -0.0636867 
v 0.0999701 -0.005 -0.00158932 
v 0.0998919 -0.005 0.00302159 
v 0.02 -0.005 0.0636867 
v 0.0951486 -0.005 -0.02 
v 0.109655 -0.015 0.0264216 
v 0.112408 -0.015 0.02 
v 0.105954 -0.015 0.0329723 
v 0.101226 -0.015 0.0395578 
v 0.0956604 -0.015 0.0458161 
v 0.0893036 -0.015 0.0516954 
v 0.082208 -0.015 0.0571471 
v 0.0744325 -0.015 0.0621262 
v 0.0660413 -0.015 0.0665913 
v 0.0571038 -0.015 0.0705057 
v 0.047694 -0.015 0.0738368 
v 0.0378897 -0.015 0.0765572 
v 0.027772 -0.015 0.0786443 
v 0.02 -0.015 0.079787 
v 0.0261812 -0.015 0.067789 
v 0.02 -0.015 0.0687184 
v 0.0357705 -0.015 0.0658128 
v 0.0450329 -0.015 0.0632351 
v 0.0538839 -0.015 0.0600797 
v 0.0622424 -0.015 0.0563752 
v 0.0700323 -0.015 0.0521557 
v 0.0771822 -0.015 0.0474595 
v 0.0836268 -0.015 0.0423297 
v 0.0893073 -0.015 0.0368131 
v 0.0978148 -0.015 0.0254494 
v 0.0941017 -0.015 0.0310546 
v 0.100623 -0.015 0.02 
v 0.0951486 -0.02 0.02 
v 0.100623 -0.02 0.02 
v 0.02 -0.02 0.0636867 
v 0.02 -0.02 0.0687184 
v 0.0978148 -0.02 0.0254494 
v 0.0941017 -0.02 0.0310546 
v 0.0893073 -0.02 0.0368131 
v 0.0836268 -0.02 0.0423297 
v 0.0771822 -0.02 0.0474595 
v 0.0700323 -0.02 0.0521557 
v 0.0622424 -0.02 0.0563752 
v 0.0538839 -0.02 0.0600797 
v 0.0450329 -0.02 0.0632351 
v 0.0357705 -0.02 0.0658128 
v 0.0261812 -0.02 0.067789 
v 0.0260507 -0.02 0.0627557 
v 0.0353712 -0.02 0.060798 
v 0.0443523 -0.02 0.0582571 
v 0.052908 -0.02 0.0551572 
v 0.060956 -0.02 0.0515281 
v 0.0684191 -0.02 0.0474047 
v 0.0752259 -0.02 0.0428264 
v 0.0813109 -0.02 0.0378373 
v 0.0940373 -0.02 0.0221094 
v 0.0908148 -0.02 0.0272123 
v 0.0866158 -0.02 0.0324851 
v 0.0381998 -0.02 -0.0600706 
v 0.0470579 -0.02 -0.0573533 
v 0.0554645 -0.02 -0.0540857 
v 0.063339 -0.02 -0.0502991 
v 0.0706057 -0.02 -0.0460301 
v 0.0771951 -0.02 -0.0413193 
v 0.0830438 -0.02 -0.0362122 
v 0.0880355 -0.02 -0.0308305 
v 0.091911 -0.02 -0.02561 
v 0.0948662 -0.02 -0.020559 
v 0.0951486 -0.02 -0.02 
v 0.0289752 -0.02 -0.0622116 
v 0.02 -0.02 -0.0636867 
v 0.0302985 -0.015 -0.0781882 
v 0.02 -0.015 -0.079787 
v 0.0403465 -0.015 -0.0759426 
v 0.0500607 -0.015 -0.0730689 
v 0.0593608 -0.015 -0.0695908 
v 0.0681699 -0.015 -0.0655371 
v 0.0764151 -0.015 -0.0609413 
v 0.0840283 -0.015 -0.0558413 
v 0.0909464 -0.015 -0.0502795 
v 0.0971122 -0.015 -0.0443018 
v 0.102475 -0.015 -0.0379577 
v 0.106984 -0.015 -0.0313099 
v 0.110433 -0.015 -0.0247926 
v 0.112408 -0.015 -0.02 
v 0.02 -0.015 -0.0687184 
v 0.02 -0.02 -0.0687184 
v 0.100623 -0.015 -0.02 
v 0.100623 -0.02 -0.02 
v 0.0297507 -0.015 -0.0671314 
v 0.0392295 -0.015 -0.0649309 
v 0.0483498 -0.015 -0.0621371 
v 0.0570283 -0.015 -0.0587755 
v 0.0651858 -0.015 -0.0548769 
v 0.0727476 -0.015 -0.0504768 
v 0.0796446 -0.015 -0.0456155 
v 0.0858139 -0.015 -0.0403373 
v 0.091199 -0.015 -0.0346906 
v 0.0989388 -0.015 -0.0234389 
v 0.0955749 -0.015 -0.0289861 
v 0.0297507 -0.02 -0.0671314 
v 0.0392295 -0.02 -0.0649309 
v 0.0483498 -0.02 -0.0621371 
v 0.0570283 -0.02 -0.0587755 
v 0.0651858 -0.02 -0.0548769 
v 0.0727476 -0.02 -0.0504768 
v 0.0796446 -0.02 -0.0456155 
v 0.0858139 -0.02 -0.0403373 
v 0.091199 -0.02 -0.0346906 
v 0.0955749 -0.02 -0.0289861 
v 0.0989388 -0.02 -0.0234389 
vn -1 0 2.08167e-16 
vn -0.941543 0 0.336893 
vn -0.946259 0 0.323408 
vn -0.89927 0 0.437393 
vn -0.846308 0 0.532694 
vn -0.785619 0 0.618711 
vn -0.720554 0 0.693399 
vn -0.65299 0 0.757366 
vn -0.58433 0 0.811516 
vn -0.515543 0 0.856864 
vn -0.447241 0 0.894414 
vn -0.379762 0 0.925084 
vn -0.313241 0 0.949674 
vn -0.24767 0 0.968844 
vn -0.182941 0 0.983124 
vn -0.118881 0 0.992908 
vn -0.946259 0 0.323408 
vn -1.38778e-16 0 1 
vn 0 -1 0 
vn 0.219673 0 0.975574 
vn 0.155657 0 0.987811 
vn 0.284345 0 0.958722 
vn 0.349782 0 0.936831 
vn 0.416011 0 0.90936 
vn 0.482949 0 0.875648 
vn 0.550356 0 0.83493 
vn 0.61778 0 0.786351 
vn 0.684489 0 0.729023 
vn 0.749414 0 0.662102 
vn 0.811093 0 0.584917 
vn 0.867668 0 0.497145 
vn 0.916633 0 0.39973 
vn 0.895411 0 -0.44524 
vn 0.938561 0 -0.345113 
vn 0.842501 0 -0.538695 
vn 0.783332 0 -0.621604 
vn 0.719958 0 -0.694018 
vn 0.654058 0 -0.756445 
vn 0.58691 0 -0.809652 
vn 0.519422 0 -0.854518 
vn 0.452187 0 -0.891923 
vn 0.385555 0 -0.922685 
vn 0.319686 0 -0.947523 
vn 0.254609 0 -0.967044 
vn 0.190255 0 -0.981735 
vn 0.12649 0 -0.991968 
vn 0.954702 0 0.297563 
vn 0.953372 0 0.301797 
vn 0.981423 0 0.191859 
vn 0.996476 0 0.0838741 
vn 0.999685 0 -0.0251077 
vn 0.99101 0 -0.133791 
vn 0.970554 0 -0.240884 
vn 0.938561 0 -0.345113 
vn 0.953372 0 -0.301797 
vn 0.970554 0 -0.240884 
vn 0.0631385 0 -0.998005 
vn 0.115917 0 -0.993259 
vn -4.40873e-17 0 -1 
vn 1.32262e-16 0 1 
vn 0.02893 0 0.999581 
vn 0.0921401 0 0.995746 
vn 0.155657 0 0.987811 
vn 0.115917 0 0.993259 
vn 0.0921401 0 0.995746 
vn -4.40873e-17 0 -1 
vn 0.953372 0 -0.301797 
vn -1 0 2.08167e-16 
vn -0.127259 0 -0.99187 
vn -0.118881 0 -0.992908 
vn -0.191395 0 -0.981513 
vn -0.256226 0 -0.966617 
vn -0.321918 0 -0.946768 
vn -0.388566 0 -0.921421 
vn -0.456165 0 -0.889895 
vn -0.524555 0 -0.851377 
vn -0.593367 0 -0.804932 
vn -0.661947 0 -0.74955 
vn -0.729273 0 -0.684223 
vn -0.79388 0 -0.608074 
vn -0.853831 0 -0.52055 
vn -0.905427 0 -0.424502 
vn -0.946259 0 -0.323408 
vn -0.118881 0 -0.992908 
vn 0 -1 0 
vn -1 0 0 
vn 0 0 -1 
vn 0 0 1 
vn -1 0 0 
vn 0 0 -1 
vn 0 1 0 
vn -1 0 0 
vn 0 0 1 
vn 0 -1 0 
vn 0.896508 0 0.443027 
vn 0.939411 0 0.342794 
vn 0.842949 0 0.537994 
vn 0.78031 0 0.625393 
vn 0.713402 0 0.700755 
vn 0.644226 0 0.764835 
vn 0.574238 0 0.818688 
vn 0.504412 0 0.863463 
vn 0.435335 0 0.900268 
vn 0.367304 0 0.930101 
vn 0.300405 0 0.953812 
vn 0.234584 0 0.972096 
vn 0.169687 0 0.985498 
vn 0.12132 0 0.992613 
vn 0.939411 0 0.342794 
vn 0 -1 0 
vn 6.93889e-17 0 -1 
vn -1 0 2.08167e-16 
vn 0.863 0 0.505203 
vn 0.912871 0 0.408248 
vn 0.802871 0 0.596153 
vn 0.733198 0 0.680015 
vn 0.659801 0 0.751441 
vn 0.585792 0 0.810461 
vn 0.512461 0 0.85871 
vn 0.440522 0 0.897742 
vn 0.370278 0 0.928921 
vn 0.301757 0 0.953385 
vn 0.23481 0 0.972041 
vn 0.169177 0 0.985586 
vn 0.128284 0 0.991738 
vn 0.912871 0 0.408248 
vn 0 -1 0 
vn -0.259472 0 0.965751 
vn -0.193078 0 0.981183 
vn -0.327536 0 0.944839 
vn -0.397559 0 0.917576 
vn -0.469693 0 0.88283 
vn -0.543852 0 0.839181 
vn -0.619579 0 0.784935 
vn -0.695851 0 0.718186 
vn -0.769902 0 0.638162 
vn -0.834801 0 0.550553 
vn -0.889776 0 0.456398 
vn -0.815683 0 -0.578499 
vn -0.873814 0 -0.48626 
vn -0.747855 0 -0.663862 
vn -0.672205 0 -0.740365 
vn -0.59595 0 -0.803022 
vn -0.520631 0 -0.853782 
vn -0.447072 0 -0.894498 
vn -0.375598 0 -0.926783 
vn -0.306207 0 -0.951965 
vn -0.238698 0 -0.971094 
vn -0.172749 0 -0.984966 
vn -0.934174 0 0.356818 
vn -0.895318 0 0.445428 
vn -0.967467 0 0.252997 
vn -0.98926 0 0.146168 
vn -0.999293 0 0.0376017 
vn -0.997447 0 -0.0714117 
vn -0.983744 0 -0.179576 
vn -0.958347 0 -0.285606 
vn -0.921558 0 -0.388241 
vn -0.873814 0 -0.48626 
vn -0.895318 0 -0.445428 
vn -0.921558 0 -0.388241 
vn -0.107972 0 -0.994154 
vn -0.131528 0 -0.991312 
vn -0.0439441 0 -0.999034 
vn -1.19403e-16 0 -1 
vn 3.9801e-17 0 1 
vn -0.0637677 0 0.997965 
vn -0.127981 0 0.991777 
vn -0.193078 0 0.981183 
vn -0.131528 0 0.991312 
vn -0.127981 0 0.991777 
vn -1.19403e-16 0 -1 
vn -0.895318 0 -0.445428 
vn 0.18566 0 -0.982614 
vn 0.12132 0 -0.992613 
vn 0.250767 0 -0.968047 
vn 0.316844 0 -0.948478 
vn 0.384022 0 -0.923324 
vn 0.452327 0 -0.891852 
vn 0.521626 0 -0.853174 
vn 0.59156 0 -0.806261 
vn 0.661455 0 -0.749985 
vn 0.730226 0 -0.683205 
vn 0.796286 0 -0.60492 
vn 0.857409 0 -0.514635 
vn 0.90834 0 -0.418233 
vn 0.939411 0 -0.342794 
vn 0.12132 0 -0.992613 
vn -1 0 2.08167e-16 
vn -1.38778e-16 0 1 
vn 0 -1 0 
vn 0.193252 0 -0.981149 
vn 0.128284 0 -0.991738 
vn 0.259334 0 -0.965788 
vn 0.326836 0 -0.945081 
vn 0.395983 0 -0.918258 
vn 0.466868 0 -0.884327 
vn 0.539374 0 -0.842066 
vn 0.613065 0 -0.790032 
vn 0.687034 0 -0.726625 
vn 0.759737 0 -0.650231 
vn 0.82601 0 -0.563656 
vn 0.882464 0 -0.47038 
vn 0.912871 0 -0.408248 
vn 0.128284 0 -0.991738 
vn 0 -1 0 
usemtl 0.615686_0.811765_0.929412_0.000000_0.000000
o mesh0
f 1//1 2//1 3//1 
f 3//1 4//1 1//1 
o mesh1
f 5//2 6//2 7//3 
f 8//4 9//4 6//2 
f 10//5 11//5 9//4 
f 12//6 13//6 11//5 
f 14//7 15//7 13//6 
f 16//8 17//8 15//7 
f 18//9 19//9 17//8 
f 20//10 21//10 19//9 
f 22//11 23//11 21//10 
f 24//12 25//12 23//11 
f 26//13 27//13 25//12 
f 28//14 29//14 27//13 
f 30//15 31//15 29//14 
f 1//16 4//16 31//15 
f 31//15 30//15 1//16 
f 29//14 28//14 30//15 
f 27//13 26//13 28//14 
f 25//12 24//12 26//13 
f 23//11 22//11 24//12 
f 21//10 20//10 22//11 
f 19//9 18//9 20//10 
f 17//8 16//8 18//9 
f 15//7 14//7 16//8 
f 13//6 12//6 14//7 
f 11//5 10//5 12//6 
f 9//4 8//4 10//5 
f 6//2 5//2 8//4 
f 7//3 32//17 5//2 
o mesh2
f 7//18 33//18 34//18 
f 34//18 32//18 7//18 
o mesh3
f 35//19 36//19 31//19 
f 4//19 3//19 35//19 
f 36//19 37//19 29//19 
f 29//19 31//19 36//19 
f 37//19 38//19 27//19 
f 27//19 29//19 37//19 
f 38//19 39//19 25//19 
f 25//19 27//19 38//19 
f 39//19 40//19 23//19 
f 23//19 25//19 39//19 
f 40//19 41//19 21//19 
f 21//19 23//19 40//19 
f 41//19 42//19 19//19 
f 19//19 21//19 41//19 
f 42//19 43//19 17//19 
f 17//19 19//19 42//19 
f 43//19 44//19 15//19 
f 15//19 17//19 43//19 
f 45//19 13//19 15//19 
f 15//19 44//19 45//19 
f 46//19 11//19 13//19 
f 13//19 45//19 46//19 
f 47//19 9//19 11//19 
f 48//19 6//19 9//19 
f 48//19 33//19 7//19 
f 11//19 46//19 47//19 
f 7//19 6//19 48//19 
f 9//19 47//19 48//19 
f 31//19 4//19 35//19 
o mesh4
f 49//20 50//20 51//21 
f 52//22 53//22 50//20 
f 54//23 55//23 53//22 
f 56//24 57//24 55//23 
f 58//25 59//25 57//24 
f 60//26 61//26 59//25 
f 62//27 63//27 61//26 
f 64//28 65//28 63//27 
f 66//29 67//29 65//28 
f 68//30 69//30 67//29 
f 70//31 71//31 69//30 
f 72//32 73//32 71//31 
f 47//33 74//33 75//34 
f 46//35 76//35 74//33 
f 45//36 77//36 76//35 
f 44//37 78//37 77//36 
f 43//38 79//38 78//37 
f 42//39 80//39 79//38 
f 41//40 81//40 80//39 
f 40//41 82//41 81//40 
f 39//42 83//42 82//41 
f 38//43 84//43 83//42 
f 37//44 85//44 84//43 
f 36//45 86//45 85//44 
f 35//46 87//46 86//45 
f 88//47 73//32 89//48 
f 72//32 90//48 89//48 
f 89//48 73//32 72//32 
f 88//47 91//47 92//49 
f 93//49 92//49 94//50 
f 95//50 94//50 96//51 
f 97//51 96//51 98//52 
f 99//52 98//52 100//53 
f 48//54 75//34 34//55 
f 101//56 100//53 34//55 
f 34//55 75//34 101//56 
f 102//57 87//46 2//58 
f 35//46 3//58 2//58 
f 2//58 87//46 35//46 
f 102//57 103//57 104//59 
f 105//60 106//60 107//61 
f 108//61 107//61 109//62 
f 110//63 51//21 111//64 
f 112//65 109//62 111//64 
f 111//64 51//21 112//65 
f 111//64 113//64 110//63 
f 109//62 112//65 108//61 
f 107//61 108//61 105//60 
f 104//59 114//66 102//57 
f 2//58 103//57 102//57 
f 34//55 33//67 48//54 
f 100//53 101//56 99//52 
f 98//52 99//52 97//51 
f 96//51 97//51 95//50 
f 94//50 95//50 93//49 
f 92//49 93//49 88//47 
f 89//48 91//47 88//47 
f 86//45 36//45 35//46 
f 85//44 37//44 36//45 
f 84//43 38//43 37//44 
f 83//42 39//42 38//43 
f 82//41 40//41 39//42 
f 81//40 41//40 40//41 
f 80//39 42//39 41//40 
f 79//38 43//38 42//39 
f 78//37 44//37 43//38 
f 77//36 45//36 44//37 
f 76//35 46//35 45//36 
f 74//33 47//33 46//35 
f 75//34 48//54 47//33 
f 71//31 70//31 72//32 
f 69//30 68//30 70//31 
f 67//29 66//29 68//30 
f 65//28 64//28 66//29 
f 63//27 62//27 64//28 
f 61//26 60//26 62//27 
f 59//25 58//25 60//26 
f 57//24 56//24 58//25 
f 55//23 54//23 56//24 
f 53//22 52//22 54//23 
f 50//20 49//20 52//22 
f 51//21 110//63 49//20 
o mesh5
f 89//66 90//66 115//66 
f 115//66 116//66 89//66 
o mesh6
f 117//68 118//68 113//68 
f 113//68 111//68 117//68 
o mesh7
f 119//69 120//69 118//70 
f 121//71 122//71 120//69 
f 123//72 124//72 122//71 
f 125//73 126//73 124//72 
f 127//74 128//74 126//73 
f 129//75 130//75 128//74 
f 131//76 132//76 130//75 
f 133//77 134//77 132//76 
f 135//78 136//78 134//77 
f 137//79 138//79 136//78 
f 139//80 140//80 138//79 
f 141//81 142//81 140//80 
f 143//82 144//82 142//81 
f 116//83 115//83 144//82 
f 144//82 143//82 116//83 
f 142//81 141//81 143//82 
f 140//80 139//80 141//81 
f 138//79 137//79 139//80 
f 136//78 135//78 137//79 
f 134//77 133//77 135//78 
f 132//76 131//76 133//77 
f 130//75 129//75 131//76 
f 128//74 127//74 129//75 
f 126//73 125//73 127//74 
f 124//72 123//72 125//73 
f 122//71 121//71 123//72 
f 120//69 119//69 121//71 
f 118//70 117//84 119//69 
o mesh8
f 110//85 120//85 122//85 
f 122//85 49//85 110//85 
f 49//85 122//85 124//85 
f 113//85 118//85 120//85 
f 52//85 124//85 126//85 
f 110//85 113//85 120//85 
f 54//85 126//85 128//85 
f 124//85 52//85 49//85 
f 56//85 128//85 130//85 
f 126//85 54//85 52//85 
f 58//85 130//85 132//85 
f 128//85 56//85 54//85 
f 60//85 132//85 134//85 
f 130//85 58//85 56//85 
f 62//85 134//85 136//85 
f 132//85 60//85 58//85 
f 64//85 136//85 138//85 
f 134//85 62//85 60//85 
f 66//85 138//85 140//85 
f 136//85 64//85 62//85 
f 68//85 140//85 142//85 
f 138//85 66//85 64//85 
f 70//85 142//85 144//85 
f 140//85 68//85 66//85 
f 72//85 144//85 115//85 
f 142//85 70//85 68//85 
f 144//85 72//85 70//85 
f 115//85 90//85 72//85 
o mesh9
f 105//86 145//86 146//86 
f 146//86 106//86 105//86 
o mesh10
f 114//86 104//86 147//86 
f 147//86 148//86 114//86 
o mesh11
f 149//87 148//87 147//87 
f 147//87 150//87 149//87 
o mesh12
f 151//86 149//86 150//86 
f 150//86 152//86 151//86 
o mesh13
f 152//88 153//88 154//88 
f 154//88 151//88 152//88 
o mesh14
f 155//89 154//89 153//89 
f 153//89 156//89 155//89 
o mesh15
f 157//90 146//90 145//90 
f 145//90 158//90 157//90 
o mesh16
f 158//89 159//89 160//89 
f 160//89 157//89 158//89 
o mesh17
f 161//91 87//91 154//91 
f 162//91 53//91 55//91 
f 86//91 87//91 163//91 
f 154//91 155//91 161//91 
f 162//91 50//91 53//91 
f 159//91 51//91 50//91 
f 85//91 86//91 164//91 
f 161//91 163//91 87//91 
f 50//91 162//91 159//91 
f 51//91 159//91 158//91 
f 84//91 85//91 165//91 
f 163//91 164//91 86//91 
f 158//91 112//91 51//91 
f 57//91 59//91 166//91 
f 83//91 84//91 167//91 
f 164//91 165//91 85//91 
f 166//91 162//91 57//91 
f 59//91 61//91 168//91 
f 82//91 83//91 169//91 
f 165//91 167//91 84//91 
f 168//91 166//91 59//91 
f 61//91 63//91 170//91 
f 80//91 81//91 171//91 
f 81//91 82//91 172//91 
f 167//91 169//91 83//91 
f 170//91 168//91 61//91 
f 63//91 65//91 173//91 
f 174//91 79//91 80//91 
f 169//91 172//91 82//91 
f 173//91 170//91 63//91 
f 65//91 67//91 175//91 
f 79//91 174//91 176//91 
f 172//91 171//91 81//91 
f 175//91 173//91 65//91 
f 67//91 69//91 177//91 
f 78//91 176//91 178//91 
f 171//91 174//91 80//91 
f 177//91 175//91 67//91 
f 71//91 179//91 177//91 
f 77//91 178//91 180//91 
f 176//91 78//91 79//91 
f 177//91 69//91 71//91 
f 73//91 181//91 179//91 
f 76//91 180//91 182//91 
f 178//91 77//91 78//91 
f 179//91 71//91 73//91 
f 88//91 183//91 181//91 
f 74//91 182//91 184//91 
f 180//91 76//91 77//91 
f 181//91 73//91 88//91 
f 93//91 185//91 183//91 
f 75//91 184//91 186//91 
f 182//91 74//91 76//91 
f 187//91 159//91 188//91 
f 183//91 88//91 93//91 
f 95//91 189//91 185//91 
f 101//91 186//91 190//91 
f 184//91 75//91 74//91 
f 159//91 191//91 188//91 
f 185//91 93//91 95//91 
f 97//91 192//91 189//91 
f 99//91 190//91 192//91 
f 186//91 101//91 75//91 
f 159//91 193//91 191//91 
f 108//91 112//91 158//91 
f 189//91 95//91 97//91 
f 190//91 99//91 101//91 
f 159//91 194//91 193//91 
f 145//91 105//91 108//91 
f 192//91 97//91 99//91 
f 159//91 195//91 194//91 
f 148//91 87//91 102//91 
f 55//91 57//91 162//91 
f 159//91 162//91 195//91 
f 151//91 154//91 148//91 
f 102//91 114//91 148//91 
f 188//91 196//91 187//91 
f 148//91 154//91 87//91 
f 148//91 149//91 151//91 
f 158//91 145//91 108//91 
o mesh18
f 196//92 197//92 198//92 
f 198//92 187//92 196//92 
o mesh19
f 159//93 187//93 198//93 
f 198//93 160//93 159//93 
o mesh20
f 119//94 199//94 200//94 
f 30//94 201//94 202//94 
f 28//94 203//94 201//94 
f 121//94 200//94 204//94 
f 200//94 121//94 119//94 
f 201//94 30//94 28//94 
f 26//94 205//94 203//94 
f 123//94 204//94 206//94 
f 119//94 117//94 199//94 
f 203//94 28//94 26//94 
f 24//94 207//94 205//94 
f 125//94 206//94 208//94 
f 204//94 123//94 121//94 
f 205//94 26//94 24//94 
f 22//94 209//94 207//94 
f 127//94 208//94 210//94 
f 206//94 125//94 123//94 
f 207//94 24//94 22//94 
f 20//94 211//94 209//94 
f 129//94 210//94 212//94 
f 208//94 127//94 125//94 
f 209//94 22//94 20//94 
f 18//94 213//94 211//94 
f 131//94 212//94 214//94 
f 210//94 129//94 127//94 
f 211//94 20//94 18//94 
f 16//94 215//94 213//94 
f 133//94 214//94 216//94 
f 212//94 131//94 129//94 
f 213//94 18//94 16//94 
f 14//94 217//94 215//94 
f 135//94 216//94 218//94 
f 214//94 133//94 131//94 
f 215//94 16//94 14//94 
f 12//94 219//94 217//94 
f 5//94 220//94 221//94 
f 137//94 218//94 222//94 
f 216//94 135//94 133//94 
f 217//94 14//94 12//94 
f 10//94 223//94 219//94 
f 8//94 221//94 223//94 
f 221//94 8//94 5//94 
f 139//94 222//94 224//94 
f 218//94 137//94 135//94 
f 147//94 104//94 103//94 
f 225//94 156//94 153//94 
f 32//94 34//94 100//94 
f 219//94 12//94 10//94 
f 5//94 32//94 220//94 
f 226//94 92//94 227//94 
f 227//94 228//94 229//94 
f 141//94 224//94 230//94 
f 222//94 139//94 137//94 
f 103//94 202//94 147//94 
f 150//94 147//94 153//94 
f 147//94 231//94 225//94 
f 98//94 220//94 32//94 
f 223//94 10//94 8//94 
f 220//94 232//94 233//94 
f 98//94 234//94 232//94 
f 94//94 92//94 226//94 
f 229//94 235//94 227//94 
f 143//94 230//94 227//94 
f 224//94 141//94 139//94 
f 116//94 92//94 91//94 
f 160//94 236//94 237//94 
f 198//94 197//94 236//94 
f 202//94 238//94 231//94 
f 153//94 147//94 225//94 
f 202//94 1//94 30//94 
f 103//94 2//94 1//94 
f 232//94 220//94 98//94 
f 98//94 96//94 239//94 
f 96//94 94//94 240//94 
f 227//94 235//94 226//94 
f 117//94 111//94 109//94 
f 230//94 143//94 141//94 
f 91//94 89//94 116//94 
f 236//94 160//94 198//94 
f 199//94 157//94 160//94 
f 146//94 157//94 107//94 
f 153//94 152//94 150//94 
f 1//94 202//94 103//94 
f 239//94 234//94 98//94 
f 226//94 240//94 94//94 
f 107//94 199//94 117//94 
f 116//94 227//94 92//94 
f 160//94 241//94 199//94 
f 107//94 106//94 146//94 
f 100//94 98//94 32//94 
f 240//94 239//94 96//94 
f 227//94 116//94 143//94 
f 157//94 199//94 107//94 
f 233//94 242//94 220//94 
f 237//94 241//94 160//94 
f 109//94 107//94 117//94 
f 202//94 231//94 147//94 
o mesh21
f 230//95 243//95 244//96 
f 224//97 245//97 243//95 
f 222//98 246//98 245//97 
f 218//99 247//99 246//98 
f 216//100 248//100 247//99 
f 214//101 249//101 248//100 
f 212//102 250//102 249//101 
f 210//103 251//103 250//102 
f 208//104 252//104 251//103 
f 206//105 253//105 252//104 
f 204//106 254//106 253//105 
f 200//107 255//107 254//106 
f 199//108 256//108 255//107 
f 255//107 200//107 199//108 
f 254//106 204//106 200//107 
f 253//105 206//105 204//106 
f 252//104 208//104 206//105 
f 251//103 210//103 208//104 
f 250//102 212//102 210//103 
f 249//101 214//101 212//102 
f 248//100 216//100 214//101 
f 247//99 218//99 216//100 
f 246//98 222//98 218//99 
f 245//97 224//97 222//98 
f 243//95 230//95 224//97 
f 244//96 227//109 230//95 
o mesh22
f 254//110 255//110 257//110 
f 255//110 256//110 258//110 
f 253//110 254//110 259//110 
f 258//110 257//110 255//110 
f 252//110 253//110 260//110 
f 257//110 259//110 254//110 
f 251//110 252//110 261//110 
f 259//110 260//110 253//110 
f 250//110 251//110 262//110 
f 260//110 261//110 252//110 
f 249//110 250//110 263//110 
f 261//110 262//110 251//110 
f 248//110 249//110 264//110 
f 262//110 263//110 250//110 
f 247//110 248//110 265//110 
f 263//110 264//110 249//110 
f 246//110 247//110 266//110 
f 264//110 265//110 248//110 
f 243//110 245//110 267//110 
f 245//110 246//110 268//110 
f 265//110 266//110 247//110 
f 269//110 244//110 243//110 
f 266//110 268//110 246//110 
f 268//110 267//110 245//110 
f 267//110 269//110 243//110 
o mesh23
f 270//111 228//111 269//111 
f 227//111 244//111 269//111 
f 269//111 228//111 227//111 
f 269//111 271//111 270//111 
o mesh24
f 199//112 241//112 258//112 
f 272//112 273//112 258//112 
f 258//112 241//112 272//112 
f 258//112 256//112 199//112 
o mesh25
f 267//113 274//113 271//114 
f 268//115 275//115 274//113 
f 266//116 276//116 275//115 
f 265//117 277//117 276//116 
f 264//118 278//118 277//117 
f 263//119 279//119 278//118 
f 262//120 280//120 279//119 
f 261//121 281//121 280//120 
f 260//122 282//122 281//121 
f 259//123 283//123 282//122 
f 257//124 284//124 283//123 
f 258//125 273//125 284//124 
f 284//124 257//124 258//125 
f 283//123 259//123 257//124 
f 282//122 260//122 259//123 
f 281//121 261//121 260//122 
f 280//120 262//120 261//121 
f 279//119 263//119 262//120 
f 278//118 264//118 263//119 
f 277//117 265//117 264//118 
f 276//116 266//116 265//117 
f 275//115 268//115 266//116 
f 274//113 267//113 268//115 
f 271//114 269//126 267//113 
o mesh26
f 283//127 284//127 285//127 
f 284//127 273//127 272//127 
f 282//127 283//127 286//127 
f 272//127 285//127 284//127 
f 281//127 282//127 287//127 
f 285//127 286//127 283//127 
f 280//127 281//127 288//127 
f 286//127 287//127 282//127 
f 279//127 280//127 289//127 
f 287//127 288//127 281//127 
f 278//127 279//127 290//127 
f 288//127 289//127 280//127 
f 277//127 278//127 291//127 
f 289//127 290//127 279//127 
f 276//127 277//127 292//127 
f 290//127 291//127 278//127 
f 274//127 293//127 270//127 
f 274//127 275//127 294//127 
f 275//127 276//127 295//127 
f 291//127 292//127 277//127 
f 294//127 293//127 274//127 
f 292//127 295//127 276//127 
f 295//127 294//127 275//127 
f 270//127 271//127 274//127 
o mesh27
f 296//128 165//128 164//129 
f 297//130 167//130 165//128 
f 298//131 169//131 167//130 
f 299//132 172//132 169//131 
f 300//133 171//133 172//132 
f 301//134 174//134 171//133 
f 302//135 176//135 174//134 
f 303//136 178//136 176//135 
f 304//137 180//137 178//136 
f 305//138 182//138 180//137 
f 294//139 177//139 179//140 
f 295//141 175//141 177//139 
f 292//142 173//142 175//141 
f 291//143 170//143 173//142 
f 290//144 168//144 170//143 
f 289//145 166//145 168//144 
f 288//146 162//146 166//145 
f 287//147 195//147 162//146 
f 286//148 194//148 195//147 
f 285//149 193//149 194//148 
f 184//150 182//138 242//151 
f 305//138 306//151 242//151 
f 242//151 182//138 305//138 
f 184//150 233//150 232//152 
f 186//152 232//152 234//153 
f 190//153 234//153 239//154 
f 192//154 239//154 240//155 
f 189//155 240//155 226//156 
f 185//156 226//156 235//157 
f 183//157 235//157 229//158 
f 293//159 179//140 228//160 
f 181//161 229//158 228//160 
f 228//160 179//140 181//161 
f 191//162 193//149 241//163 
f 285//149 272//163 241//163 
f 241//163 193//149 285//149 
f 191//162 237//162 236//164 
f 188//164 236//164 197//165 
f 155//166 156//166 225//167 
f 161//167 225//167 231//168 
f 307//169 164//129 238//170 
f 163//171 231//168 238//170 
f 238//170 164//129 163//171 
f 238//170 308//170 307//169 
f 231//168 163//171 161//167 
f 225//167 161//167 155//166 
f 197//165 196//172 188//164 
f 236//164 188//164 191//162 
f 241//163 237//162 191//162 
f 228//160 270//173 293//159 
f 229//158 181//161 183//157 
f 235//157 183//157 185//156 
f 226//156 185//156 189//155 
f 240//155 189//155 192//154 
f 239//154 192//154 190//153 
f 234//153 190//153 186//152 
f 232//152 186//152 184//150 
f 242//151 233//150 184//150 
f 194//148 286//148 285//149 
f 195//147 287//147 286//148 
f 162//146 288//146 287//147 
f 166//145 289//145 288//146 
f 168//144 290//144 289//145 
f 170//143 291//143 290//144 
f 173//142 292//142 291//143 
f 175//141 295//141 292//142 
f 177//139 294//139 295//141 
f 179//140 293//159 294//139 
f 180//137 304//137 305//138 
f 178//136 303//136 304//137 
f 176//135 302//135 303//136 
f 174//134 301//134 302//135 
f 171//133 300//133 301//134 
f 172//132 299//132 300//133 
f 169//131 298//131 299//132 
f 167//130 297//130 298//131 
f 165//128 296//128 297//130 
f 164//129 307//169 296//128 
o mesh28
f 201//174 309//174 310//175 
f 203//176 311//176 309//174 
f 205//177 312//177 311//176 
f 207//178 313//178 312//177 
f 209//179 314//179 313//178 
f 211//180 315//180 314//179 
f 213//181 316//181 315//180 
f 215//182 317//182 316//181 
f 217//183 318//183 317//182 
f 219//184 319//184 318//183 
f 223//185 320//185 319//184 
f 221//186 321//186 320//185 
f 220//187 322//187 321//186 
f 321//186 221//186 220//187 
f 320//185 223//185 221//186 
f 319//184 219//184 223//185 
f 318//183 217//183 219//184 
f 317//182 215//182 217//183 
f 316//181 213//181 215//182 
f 315//180 211//180 213//181 
f 314//179 209//179 211//180 
f 313//178 207//178 209//179 
f 312//177 205//177 207//178 
f 311//176 203//176 205//177 
f 309//174 201//174 203//176 
f 310//175 202//188 201//174 
o mesh29
f 308//189 238//189 323//189 
f 202//189 310//189 323//189 
f 323//189 238//189 202//189 
f 323//189 324//189 308//189 
o mesh30
f 220//190 242//190 325//190 
f 306//190 326//190 325//190 
f 325//190 242//190 306//190 
f 325//190 322//190 220//190 
o mesh31
f 309//191 327//191 323//191 
f 311//191 328//191 327//191 
f 327//191 309//191 311//191 
f 312//191 329//191 328//191 
f 328//191 311//191 312//191 
f 313//191 330//191 329//191 
f 329//191 312//191 313//191 
f 314//191 331//191 330//191 
f 330//191 313//191 314//191 
f 315//191 332//191 331//191 
f 331//191 314//191 315//191 
f 316//191 333//191 332//191 
f 332//191 315//191 316//191 
f 317//191 334//191 333//191 
f 333//191 316//191 317//191 
f 318//191 335//191 334//191 
f 321//191 325//191 336//191 
f 334//191 317//191 318//191 
f 319//191 337//191 335//191 
f 320//191 336//191 337//191 
f 336//191 320//191 321//191 
f 335//191 318//191 319//191 
f 321//191 322//191 325//191 
f 337//191 319//191 320//191 
f 323//191 310//191 309//191 
o mesh32
f 327//192 338//192 324//193 
f 328//194 339//194 338//192 
f 329//195 340//195 339//194 
f 330//196 341//196 340//195 
f 331//197 342//197 341//196 
f 332//198 343//198 342//197 
f 333//199 344//199 343//198 
f 334//200 345//200 344//199 
f 335//201 346//201 345//200 
f 337//202 347//202 346//201 
f 336//203 348//203 347//202 
f 325//204 326//204 348//203 
f 348//203 336//203 325//204 
f 347//202 337//202 336//203 
f 346//201 335//201 337//202 
f 345//200 334//200 335//201 
f 344//199 333//199 334//200 
f 343//198 332//198 333//199 
f 342//197 331//197 332//198 
f 341//196 330//196 331//197 
f 340//195 329//195 330//196 
f 339//194 328//194 329//195 
f 338//192 327//192 328//194 
f 324//193 323//205 327//192 
o mesh33
f 338//206 307//206 308//206 
f 339//206 296//206 307//206 
f 307//206 338//206 339//206 
f 340//206 297//206 296//206 
f 296//206 339//206 340//206 
f 341//206 298//206 297//206 
f 297//206 340//206 341//206 
f 342//206 299//206 298//206 
f 298//206 341//206 342//206 
f 343//206 300//206 299//206 
f 299//206 342//206 343//206 
f 344//206 301//206 300//206 
f 300//206 343//206 344//206 
f 345//206 302//206 301//206 
f 301//206 344//206 345//206 
f 346//206 303//206 302//206 
f 302//206 345//206 346//206 
f 347//206 304//206 303//206 
f 348//206 305//206 304//206 
f 348//206 326//206 306//206 
f 303//206 346//206 347//206 
f 306//206 305//206 348//206 
f 304//206 347//206 348//206 
f 308//206 324//206 338//206 
