# OBJ generated by ONSHAPE BY PTC INC, 1.210 Units = meters
g Part 1
v 0.119672 0.00628047 0.005 
v 0.118481 -0.0134826 0.005 
v 0.119608 -0.00686787 0.005 
v -0.12 0 0.005 
v -0.119641 -0.00657413 0.005 
v -0.119997 0.000584231 0.005 
v -0.116468 0.0204709 0.005 
v -0.118413 0.0137775 0.005 
v 0.118612 0.0128901 0.005 
v 0.116572 -0.0201719 0.005 
v -0.118547 -0.0131863 0.005 
v -0.113657 0.0272684 0.005 
v 0.116776 0.0195715 0.005 
v 0.113802 -0.0269644 0.005 
v -0.116675 -0.0198716 0.005 
v -0.109867 0.0341863 0.005 
v 0.114087 0.0263539 0.005 
v 0.110058 -0.0338768 0.005 
v -0.113945 -0.026659 0.005 
v -0.105116 0.0410016 0.005 
v 0.110435 0.0332554 0.005 
v 0.105345 -0.0407054 0.005 
v -0.110247 -0.033566 0.005 
v -0.0995249 0.047489 0.005 
v 0.105799 0.0401103 0.005 
v 0.0997905 -0.0472085 0.005 
v -0.105573 -0.0404078 0.005 
v -0.0931379 0.0535967 0.005 
v 0.100318 0.0466445 0.005 
v 0.0934379 -0.0533341 0.005 
v -0.100055 -0.0469265 0.005 
v -0.0860063 0.0592758 0.005 
v 0.0940341 0.0528057 0.005 
v 0.0863381 -0.0590332 0.005 
v -0.0937371 -0.05307 0.005 
v -0.0781869 0.0644809 0.005 
v 0.0869986 0.0585447 0.005 
v 0.078548 -0.0642603 0.005 
v -0.0866695 -0.0587891 0.005 
v -0.0697423 0.0691705 0.005 
v 0.0792674 0.0638156 0.005 
v 0.0701298 -0.0689736 0.005 
v -0.0789088 -0.0640382 0.005 
v -0.0607401 0.073307 0.005 
v 0.0709025 0.0685762 0.005 
v 0.0611509 -0.0731354 0.005 
v -0.0705172 -0.0687752 0.005 
v -0.0512522 0.0768573 0.005 
v 0.0619706 0.0727884 0.005 
v 0.051683 -0.0767124 0.005 
v -0.0615617 -0.0729623 0.005 
v -0.0413545 0.0797931 0.005 
v 0.0525431 0.0764187 0.005 
v 0.0418018 -0.079676 0.005 
v -0.052114 -0.076566 0.005 
v -0.0311261 0.0820908 0.005 
v 0.0426956 0.0794379 0.005 
v 0.0315864 -0.0820025 0.005 
v -0.0422496 -0.0795574 0.005 
v -0.0206489 0.0837321 0.005 
v 0.0325066 0.0818219 0.005 
v 0.0211185 -0.0836734 0.005 
v -0.0320474 -0.0819128 0.005 
v -0.0100065 0.084704 0.005 
v 0.0220578 0.0835517 0.005 
v 0.0104816 -0.0846751 0.005 
v -0.0215889 -0.0836131 0.005 
v 0.00071587 0.0849985 0.005 
v 0.0114325 0.0846134 0.005 
v -0.00023902 -0.0849998 0.005 
v -0.0109578 -0.0846449 0.005 
v -0.119573 0.00716023 0.005 
v 0.119999 -0.000292841 0.005 
v -0.119997 0.000584231 0 
v -0.12 0 0 
v -0.119573 0.00716023 0 
v -0.118413 0.0137775 0 
v -0.116468 0.0204709 0 
v -0.113657 0.0272684 0 
v -0.109867 0.0341863 0 
v -0.105116 0.0410016 0 
v -0.0995249 0.047489 0 
v -0.0931379 0.0535967 0 
v -0.0860063 0.0592758 0 
v -0.0781869 0.0644809 0 
v -0.0697423 0.0691705 0 
v -0.0607401 0.073307 0 
v -0.0512522 0.0768573 0 
v -0.0413545 0.0797931 0 
v -0.0311261 0.0820908 0 
v -0.0206489 0.0837321 0 
v -0.0100065 0.084704 0 
v 0.00071587 0.0849985 0 
v 0.0114325 0.0846134 0 
v 0.0220578 0.0835517 0 
v 0.0325066 0.0818219 0 
v 0.0426956 0.0794379 0 
v 0.0525431 0.0764187 0 
v 0.0619706 0.0727884 0 
v 0.0709025 0.0685762 0 
v 0.0792674 0.0638156 0 
v 0.0869986 0.0585447 0 
v 0.0940341 0.0528057 0 
v 0.100318 0.0466445 0 
v 0.105799 0.0401103 0 
v 0.110435 0.0332554 0 
v 0.114087 0.0263539 0 
v 0.116776 0.0195715 0 
v 0.118612 0.0128901 0 
v 0.119672 0.00628047 0 
v 0.119999 -0.000292841 0 
v 0.119608 -0.00686787 0 
v 0.118481 -0.0134826 0 
v 0.116572 -0.0201719 0 
v 0.113802 -0.0269644 0 
v 0.110058 -0.0338768 0 
v 0.105345 -0.0407054 0 
v 0.0997905 -0.0472085 0 
v 0.0934379 -0.0533341 0 
v 0.0863381 -0.0590332 0 
v 0.078548 -0.0642603 0 
v 0.0701298 -0.0689736 0 
v 0.0611509 -0.0731354 0 
v 0.051683 -0.0767124 0 
v 0.0418018 -0.079676 0 
v 0.0315864 -0.0820025 0 
v 0.0211185 -0.0836734 0 
v 0.0104816 -0.0846751 0 
v -0.00023902 -0.0849998 0 
v -0.0109578 -0.0846449 0 
v -0.0215889 -0.0836131 0 
v -0.0320474 -0.0819128 0 
v -0.0422496 -0.0795574 0 
v -0.052114 -0.076566 0 
v -0.0615617 -0.0729623 0 
v -0.0705172 -0.0687752 0 
v -0.0789088 -0.0640382 0 
v -0.0866695 -0.0587891 0 
v -0.0937371 -0.05307 0 
v -0.100055 -0.0469265 0 
v -0.105573 -0.0404078 0 
v -0.110247 -0.033566 0 
v -0.113945 -0.026659 0 
v -0.116675 -0.0198716 0 
v -0.118547 -0.0131863 0 
v -0.119641 -0.00657413 0 
vn 0 0 1 
vn -0.999953 0.00970326 0 
vn -1 0 0 
vn -0.992953 0.118507 0 
vn -0.97415 0.225903 0 
vn -0.943767 0.330613 0 
vn -0.902164 0.431393 0 
vn -0.849838 0.527044 0 
vn -0.789489 0.613765 0 
vn -0.724633 0.689135 0 
vn -0.657178 0.753735 0 
vn -0.588553 0.808458 0 
vn -0.519753 0.854317 0 
vn -0.451409 0.892317 0 
vn -0.383874 0.923385 0 
vn -0.317294 0.948327 0 
vn -0.251666 0.967814 0 
vn -0.18689 0.982381 0 
vn -0.122795 0.992432 0 
vn -0.0591688 0.998248 0 
vn 0.00422566 0.999991 0 
vn 0.0676368 0.99771 0 
vn 0.131312 0.991341 0 
vn 0.195487 0.980706 0 
vn 0.260368 0.96551 0 
vn 0.326118 0.945329 0 
vn 0.392828 0.919612 0 
vn 0.460484 0.887668 0 
vn 0.528914 0.848675 0 
vn 0.597735 0.801694 0 
vn 0.66627 0.745711 0 
vn 0.733471 0.679721 0 
vn 0.797846 0.602861 0 
vn 0.857425 0.514609 0 
vn 0.908353 0.418205 0 
vn 0.948482 0.31683 0 
vn 0.977337 0.211689 0 
vn 0.994574 0.104031 0 
vn 0.999988 -0.00486376 0 
vn 0.993515 -0.1137 0 
vn 0.975232 -0.221186 0 
vn 0.945356 -0.326041 0 
vn 0.904242 -0.427021 0 
vn 0.852379 -0.522925 0 
vn 0.792281 -0.610156 0 
vn 0.727582 -0.686021 0 
vn 0.660209 -0.751082 0 
vn 0.591612 -0.806223 0 
vn 0.522803 -0.852453 0 
vn 0.45443 -0.890783 0 
vn 0.386854 -0.922141 0 
vn 0.320231 -0.94734 0 
vn 0.254563 -0.967056 0 
vn 0.189752 -0.981832 0 
vn 0.125631 -0.992077 0 
vn 0.0619887 -0.998077 0 
vn -0.00141088 -0.999999 0 
vn -0.064816 -0.997897 0 
vn -0.128474 -0.991713 0 
vn -0.192622 -0.981273 0 
vn -0.257468 -0.966287 0 
vn -0.323177 -0.946338 0 
vn -0.389844 -0.920881 0 
vn -0.45746 -0.88923 0 
vn -0.525862 -0.85057 0 
vn -0.594677 -0.803965 0 
vn -0.663244 -0.748403 0 
vn -0.730533 -0.682878 0 
vn -0.795072 -0.606515 0 
vn -0.854912 -0.518773 0 
vn -0.906308 -0.422618 0 
vn -0.94693 -0.321439 0 
vn -0.976296 -0.21644 0 
vn -0.994056 -0.108867 0 
vn -1 0 0 
vn 0 0 -1 
usemtl 0.615686_0.811765_0.929412_0.000000_0.000000
o mesh0
f 1//1 2//1 3//1 
f 1//1 4//1 5//1 
f 6//1 7//1 8//1 
f 6//1 1//1 9//1 
f 1//1 10//1 2//1 
f 5//1 11//1 1//1 
f 6//1 12//1 7//1 
f 9//1 13//1 6//1 
f 1//1 14//1 10//1 
f 11//1 15//1 1//1 
f 6//1 16//1 12//1 
f 13//1 17//1 6//1 
f 1//1 18//1 14//1 
f 15//1 19//1 1//1 
f 6//1 20//1 16//1 
f 17//1 21//1 6//1 
f 1//1 22//1 18//1 
f 19//1 23//1 1//1 
f 6//1 24//1 20//1 
f 21//1 25//1 6//1 
f 1//1 26//1 22//1 
f 23//1 27//1 1//1 
f 6//1 28//1 24//1 
f 25//1 29//1 6//1 
f 1//1 30//1 26//1 
f 27//1 31//1 1//1 
f 6//1 32//1 28//1 
f 29//1 33//1 6//1 
f 1//1 34//1 30//1 
f 31//1 35//1 1//1 
f 6//1 36//1 32//1 
f 33//1 37//1 6//1 
f 1//1 38//1 34//1 
f 35//1 39//1 1//1 
f 6//1 40//1 36//1 
f 37//1 41//1 6//1 
f 1//1 42//1 38//1 
f 39//1 43//1 1//1 
f 6//1 44//1 40//1 
f 41//1 45//1 6//1 
f 1//1 46//1 42//1 
f 43//1 47//1 1//1 
f 6//1 48//1 44//1 
f 45//1 49//1 6//1 
f 1//1 50//1 46//1 
f 47//1 51//1 1//1 
f 6//1 52//1 48//1 
f 49//1 53//1 6//1 
f 1//1 54//1 50//1 
f 51//1 55//1 1//1 
f 6//1 56//1 52//1 
f 53//1 57//1 6//1 
f 1//1 58//1 54//1 
f 55//1 59//1 1//1 
f 6//1 60//1 56//1 
f 57//1 61//1 6//1 
f 1//1 62//1 58//1 
f 59//1 63//1 1//1 
f 6//1 64//1 60//1 
f 61//1 65//1 6//1 
f 1//1 66//1 62//1 
f 63//1 67//1 1//1 
f 6//1 68//1 64//1 
f 65//1 69//1 6//1 
f 1//1 70//1 66//1 
f 67//1 71//1 1//1 
f 69//1 68//1 6//1 
f 71//1 70//1 1//1 
f 8//1 72//1 6//1 
f 6//1 4//1 1//1 
f 3//1 73//1 1//1 
o mesh1
f 6//2 74//2 75//3 
f 72//4 76//4 74//2 
f 8//5 77//5 76//4 
f 7//6 78//6 77//5 
f 12//7 79//7 78//6 
f 16//8 80//8 79//7 
f 20//9 81//9 80//8 
f 24//10 82//10 81//9 
f 28//11 83//11 82//10 
f 32//12 84//12 83//11 
f 36//13 85//13 84//12 
f 40//14 86//14 85//13 
f 44//15 87//15 86//14 
f 48//16 88//16 87//15 
f 52//17 89//17 88//16 
f 56//18 90//18 89//17 
f 60//19 91//19 90//18 
f 64//20 92//20 91//19 
f 68//21 93//21 92//20 
f 69//22 94//22 93//21 
f 65//23 95//23 94//22 
f 61//24 96//24 95//23 
f 57//25 97//25 96//24 
f 53//26 98//26 97//25 
f 49//27 99//27 98//26 
f 45//28 100//28 99//27 
f 41//29 101//29 100//28 
f 37//30 102//30 101//29 
f 33//31 103//31 102//30 
f 29//32 104//32 103//31 
f 25//33 105//33 104//32 
f 21//34 106//34 105//33 
f 17//35 107//35 106//34 
f 13//36 108//36 107//35 
f 9//37 109//37 108//36 
f 1//38 110//38 109//37 
f 73//39 111//39 110//38 
f 3//40 112//40 111//39 
f 2//41 113//41 112//40 
f 10//42 114//42 113//41 
f 14//43 115//43 114//42 
f 18//44 116//44 115//43 
f 22//45 117//45 116//44 
f 26//46 118//46 117//45 
f 30//47 119//47 118//46 
f 34//48 120//48 119//47 
f 38//49 121//49 120//48 
f 42//50 122//50 121//49 
f 46//51 123//51 122//50 
f 50//52 124//52 123//51 
f 54//53 125//53 124//52 
f 58//54 126//54 125//53 
f 62//55 127//55 126//54 
f 66//56 128//56 127//55 
f 70//57 129//57 128//56 
f 71//58 130//58 129//57 
f 67//59 131//59 130//58 
f 63//60 132//60 131//59 
f 59//61 133//61 132//60 
f 55//62 134//62 133//61 
f 51//63 135//63 134//62 
f 47//64 136//64 135//63 
f 43//65 137//65 136//64 
f 39//66 138//66 137//65 
f 35//67 139//67 138//66 
f 31//68 140//68 139//67 
f 27//69 141//69 140//68 
f 23//70 142//70 141//69 
f 19//71 143//71 142//70 
f 15//72 144//72 143//71 
f 11//73 145//73 144//72 
f 5//74 146//74 145//73 
f 4//75 75//3 146//74 
f 146//74 5//74 4//75 
f 145//73 11//73 5//74 
f 144//72 15//72 11//73 
f 143//71 19//71 15//72 
f 142//70 23//70 19//71 
f 141//69 27//69 23//70 
f 140//68 31//68 27//69 
f 139//67 35//67 31//68 
f 138//66 39//66 35//67 
f 137//65 43//65 39//66 
f 136//64 47//64 43//65 
f 135//63 51//63 47//64 
f 134//62 55//62 51//63 
f 133//61 59//61 55//62 
f 132//60 63//60 59//61 
f 131//59 67//59 63//60 
f 130//58 71//58 67//59 
f 129//57 70//57 71//58 
f 128//56 66//56 70//57 
f 127//55 62//55 66//56 
f 126//54 58//54 62//55 
f 125//53 54//53 58//54 
f 124//52 50//52 54//53 
f 123//51 46//51 50//52 
f 122//50 42//50 46//51 
f 121//49 38//49 42//50 
f 120//48 34//48 38//49 
f 119//47 30//47 34//48 
f 118//46 26//46 30//47 
f 117//45 22//45 26//46 
f 116//44 18//44 22//45 
f 115//43 14//43 18//44 
f 114//42 10//42 14//43 
f 113//41 2//41 10//42 
f 112//40 3//40 2//41 
f 111//39 73//39 3//40 
f 110//38 1//38 73//39 
f 109//37 9//37 1//38 
f 108//36 13//36 9//37 
f 107//35 17//35 13//36 
f 106//34 21//34 17//35 
f 105//33 25//33 21//34 
f 104//32 29//32 25//33 
f 103//31 33//31 29//32 
f 102//30 37//30 33//31 
f 101//29 41//29 37//30 
f 100//28 45//28 41//29 
f 99//27 49//27 45//28 
f 98//26 53//26 49//27 
f 97//25 57//25 53//26 
f 96//24 61//24 57//25 
f 95//23 65//23 61//24 
f 94//22 69//22 65//23 
f 93//21 68//21 69//22 
f 92//20 64//20 68//21 
f 91//19 60//19 64//20 
f 90//18 56//18 60//19 
f 89//17 52//17 56//18 
f 88//16 48//16 52//17 
f 87//15 44//15 48//16 
f 86//14 40//14 44//15 
f 85//13 36//13 40//14 
f 84//12 32//12 36//13 
f 83//11 28//11 32//12 
f 82//10 24//10 28//11 
f 81//9 20//9 24//10 
f 80//8 16//8 20//9 
f 79//7 12//7 16//8 
f 78//6 7//6 12//7 
f 77//5 8//5 7//6 
f 76//4 72//4 8//5 
f 74//2 6//2 72//4 
f 75//3 4//75 6//2 
o mesh2
f 74//76 108//76 109//76 
f 74//76 76//76 77//76 
f 110//76 145//76 146//76 
f 110//76 111//76 112//76 
f 74//76 107//76 108//76 
f 77//76 78//76 74//76 
f 110//76 144//76 145//76 
f 112//76 113//76 110//76 
f 74//76 106//76 107//76 
f 78//76 79//76 74//76 
f 110//76 143//76 144//76 
f 113//76 114//76 110//76 
f 74//76 105//76 106//76 
f 79//76 80//76 74//76 
f 110//76 142//76 143//76 
f 114//76 115//76 110//76 
f 74//76 104//76 105//76 
f 80//76 81//76 74//76 
f 110//76 141//76 142//76 
f 115//76 116//76 110//76 
f 74//76 103//76 104//76 
f 81//76 82//76 74//76 
f 110//76 140//76 141//76 
f 116//76 117//76 110//76 
f 74//76 102//76 103//76 
f 82//76 83//76 74//76 
f 110//76 139//76 140//76 
f 117//76 118//76 110//76 
f 74//76 101//76 102//76 
f 83//76 84//76 74//76 
f 110//76 138//76 139//76 
f 118//76 119//76 110//76 
f 74//76 100//76 101//76 
f 84//76 85//76 74//76 
f 110//76 137//76 138//76 
f 119//76 120//76 110//76 
f 74//76 99//76 100//76 
f 85//76 86//76 74//76 
f 110//76 136//76 137//76 
f 120//76 121//76 110//76 
f 74//76 98//76 99//76 
f 86//76 87//76 74//76 
f 110//76 135//76 136//76 
f 121//76 122//76 110//76 
f 74//76 97//76 98//76 
f 87//76 88//76 74//76 
f 110//76 134//76 135//76 
f 122//76 123//76 110//76 
f 74//76 96//76 97//76 
f 88//76 89//76 74//76 
f 110//76 133//76 134//76 
f 123//76 124//76 110//76 
f 74//76 95//76 96//76 
f 89//76 90//76 74//76 
f 110//76 132//76 133//76 
f 124//76 125//76 110//76 
f 74//76 94//76 95//76 
f 90//76 91//76 74//76 
f 110//76 131//76 132//76 
f 125//76 126//76 110//76 
f 74//76 93//76 94//76 
f 91//76 92//76 74//76 
f 110//76 130//76 131//76 
f 126//76 127//76 110//76 
f 92//76 93//76 74//76 
f 110//76 129//76 130//76 
f 127//76 128//76 110//76 
f 110//76 75//76 74//76 
f 128//76 129//76 110//76 
f 146//76 75//76 110//76 
f 109//76 110//76 74//76 
