####
#
# OBJ File Generated by Meshlab
#
####
# Object quarter_ellipse_bottom.obj
#
# Vertices: 30
# Faces: 56
#
####
vn -0.9929739 2.9785056 -3.0715122
v -0.0502108 0.0740651 0.0000000
vn -0.7857380 3.0398917 -3.0739675
v -0.0404446 0.0769449 0.0000000
vn 1.5707964 -1.5707959 -1.5707986
v -0.0200000 0.0200000 0.0000000
vn -0.5814137 3.0855949 -3.0758278
v -0.0303467 0.0791937 0.0000000
vn 1.3308389 1.5523599 -1.4174341
v -0.0200000 0.0807931 0.0000000
vn -1.6341449 2.6800885 -3.0602846
v -0.0767358 0.0619003 0.0000000
vn -1.4173775 2.8010826 -3.0646954
v -0.0684311 0.0665118 0.0000000
vn -1.2035050 2.8996513 -3.0684295
v -0.0595652 0.0705778 0.0000000
vn -2.2853012 2.1501544 -3.0432553
v -0.0976280 0.0451917 0.0000000
vn -2.0708313 2.3580387 -3.0494931
v -0.0913944 0.0511963 0.0000000
vn -1.8526642 2.5335422 -3.0552037
v -0.0844112 0.0567811 0.0000000
vn -1.4521884 -0.9720060 -1.1797004
v -0.1134666 0.0200000 0.0000000
vn -2.8366079 1.3409386 -3.0406017
v -0.1111974 0.0255031 0.0000000
vn -2.6800892 1.6302030 -3.0328178
v -0.1076488 0.0321228 0.0000000
vn -2.4912229 1.9069040 -3.0366848
v -0.1030610 0.0388164 0.0000000
vn 1.5707966 -1.5707964 1.5707986
v -0.0200000 0.0200000 0.0100000
vn 1.3308387 1.5523601 1.4174341
v -0.0200000 0.0807931 0.0100000
vn -0.5814137 3.0855947 3.0758278
v -0.0303467 0.0791937 0.0100000
vn -0.7857380 3.0398917 3.0739675
v -0.0404446 0.0769449 0.0100000
vn -0.9929738 2.9785054 3.0715122
v -0.0502108 0.0740651 0.0100000
vn -1.2035050 2.8996515 3.0684295
v -0.0595652 0.0705778 0.0100000
vn -1.4173775 2.8010826 3.0646954
v -0.0684311 0.0665118 0.0100000
vn -1.6341447 2.6800880 3.0602846
v -0.0767358 0.0619003 0.0100000
vn -1.8526642 2.5335422 3.0552037
v -0.0844112 0.0567811 0.0100000
vn -2.0708318 2.3580389 3.0494931
v -0.0913944 0.0511963 0.0100000
vn -2.2853010 2.1501541 3.0432553
v -0.0976280 0.0451917 0.0100000
vn -2.4912229 1.9069041 3.0366848
v -0.1030610 0.0388164 0.0100000
vn -2.6800892 1.6302029 3.0328178
v -0.1076488 0.0321228 0.0100000
vn -2.8366077 1.3409384 3.0406017
v -0.1111974 0.0255031 0.0100000
vn -1.4521884 -0.9720054 1.1797004
v -0.1134666 0.0200000 0.0100000
# 30 vertices, 0 vertices normals

f 1//1 2//2 3//3
f 2//2 4//4 3//3
f 3//3 4//4 5//5
f 6//6 7//7 3//3
f 7//7 8//8 3//3
f 3//3 8//8 1//1
f 9//9 10//10 3//3
f 10//10 11//11 3//3
f 3//3 11//11 6//6
f 3//3 12//12 13//13
f 13//13 14//14 3//3
f 14//14 15//15 3//3
f 3//3 15//15 9//9
f 16//16 17//17 18//18
f 18//18 19//19 16//16
f 19//19 20//20 16//16
f 16//16 20//20 21//21
f 21//21 22//22 16//16
f 22//22 23//23 16//16
f 16//16 23//23 24//24
f 24//24 25//25 16//16
f 25//25 26//26 16//16
f 16//16 26//26 27//27
f 27//27 28//28 16//16
f 28//28 29//29 16//16
f 16//16 29//29 30//30
f 16//16 30//30 3//3
f 30//30 12//12 3//3
f 17//17 16//16 5//5
f 16//16 3//3 5//5
f 17//17 5//5 4//4
f 17//17 4//4 18//18
f 4//4 2//2 18//18
f 18//18 2//2 19//19
f 2//2 1//1 19//19
f 19//19 1//1 20//20
f 1//1 8//8 20//20
f 20//20 8//8 21//21
f 8//8 7//7 21//21
f 21//21 7//7 22//22
f 7//7 6//6 22//22
f 22//22 6//6 23//23
f 6//6 11//11 23//23
f 23//23 11//11 24//24
f 11//11 10//10 24//24
f 24//24 10//10 25//25
f 10//10 9//9 25//25
f 25//25 9//9 26//26
f 9//9 15//15 26//26
f 26//26 15//15 27//27
f 15//15 14//14 27//27
f 27//27 14//14 28//28
f 14//14 13//13 28//28
f 28//28 13//13 29//29
f 13//13 12//12 29//29
f 29//29 12//12 30//30
# 56 faces, 0 coords texture

# End of File
