####
#
# OBJ File Generated by Meshlab
#
####
# Object quarter_ellipse_top.obj
#
# Vertices: 28
# Faces: 52
#
####
vn -0.6075571 3.0805008 -3.0748343
v -0.0297507 0.0671314 0.0000000
vn 1.3184495 1.5503942 -1.4094479
v -0.0200000 0.0687184 0.0000000
vn 1.5707964 -1.5707957 -1.5707992
v -0.0200000 0.0200000 0.0000000
vn -0.8152821 3.0320172 -3.0724502
v -0.0392295 0.0649309 0.0000000
vn -1.4673526 2.7749300 -3.0604320
v -0.0651858 0.0548769 0.0000000
vn -1.2447045 2.8820071 -3.0653086
v -0.0570283 0.0587755 0.0000000
vn -1.0274351 2.9666634 -3.0692933
v -0.0483498 0.0621371 0.0000000
vn -1.4106934 -0.8798949 -1.1153741
v -0.1006231 0.0200000 0.0000000
vn -2.7538238 1.5053966 -3.0518913
v -0.0989388 0.0234389 0.0000000
vn -2.1579041 2.2776542 -3.0401969
v -0.0858139 0.0403373 0.0000000
vn -1.9261255 2.4774947 -3.0478511
v -0.0796446 0.0456155 0.0000000
vn -1.6949700 2.6415958 -3.0546184
v -0.0727476 0.0504768 0.0000000
vn -2.5894694 1.7705495 -3.0323668
v -0.0955749 0.0289861 0.0000000
vn -2.3830767 2.0401340 -3.0342507
v -0.0911990 0.0346906 0.0000000
vn 1.3184493 1.5503941 1.4094479
v -0.0200000 0.0687184 0.0050000
vn -0.6075571 3.0805011 3.0748343
v -0.0297507 0.0671314 0.0050000
vn 1.5707966 -1.5707964 1.5707994
v -0.0200000 0.0200000 0.0050000
vn -0.8152821 3.0320175 3.0724502
v -0.0392295 0.0649309 0.0050000
vn -1.0274351 2.9666634 3.0692933
v -0.0483498 0.0621371 0.0050000
vn -1.2447045 2.8820071 3.0653086
v -0.0570283 0.0587755 0.0050000
vn -1.4673526 2.7749305 3.0604320
v -0.0651858 0.0548769 0.0050000
vn -1.6949700 2.6415958 3.0546184
v -0.0727476 0.0504768 0.0050000
vn -1.9261256 2.4774945 3.0478511
v -0.0796446 0.0456155 0.0050000
vn -2.1579041 2.2776542 3.0401969
v -0.0858139 0.0403373 0.0050000
vn -2.3830767 2.0401342 3.0342507
v -0.0911990 0.0346906 0.0050000
vn -2.5894692 1.7705495 3.0323668
v -0.0955749 0.0289861 0.0050000
vn -2.7538238 1.5053966 3.0518913
v -0.0989388 0.0234389 0.0050000
vn -1.4106935 -0.8798941 1.1153741
v -0.1006231 0.0200000 0.0050000
# 28 vertices, 0 vertices normals

f 1//1 2//2 3//3
f 1//1 3//3 4//4
f 5//5 6//6 3//3
f 6//6 7//7 3//3
f 3//3 7//7 4//4
f 3//3 8//8 9//9
f 10//10 11//11 3//3
f 11//11 12//12 3//3
f 3//3 12//12 5//5
f 9//9 13//13 3//3
f 13//13 14//14 3//3
f 3//3 14//14 10//10
f 15//15 16//16 17//17
f 16//16 18//18 17//17
f 17//17 18//18 19//19
f 19//19 20//20 17//17
f 20//20 21//21 17//17
f 17//17 21//21 22//22
f 22//22 23//23 17//17
f 23//23 24//24 17//17
f 17//17 24//24 25//25
f 25//25 26//26 17//17
f 26//26 27//27 17//17
f 17//17 27//27 28//28
f 17//17 28//28 3//3
f 28//28 8//8 3//3
f 15//15 17//17 2//2
f 17//17 3//3 2//2
f 15//15 2//2 1//1
f 15//15 1//1 16//16
f 1//1 4//4 16//16
f 16//16 4//4 18//18
f 4//4 7//7 18//18
f 18//18 7//7 19//19
f 7//7 6//6 19//19
f 19//19 6//6 20//20
f 6//6 5//5 20//20
f 20//20 5//5 21//21
f 5//5 12//12 21//21
f 21//21 12//12 22//22
f 12//12 11//11 22//22
f 22//22 11//11 23//23
f 11//11 10//10 23//23
f 23//23 10//10 24//24
f 10//10 14//14 24//24
f 24//24 14//14 25//25
f 14//14 13//13 25//25
f 25//25 13//13 26//26
f 13//13 9//9 26//26
f 26//26 9//9 27//27
f 9//9 8//8 27//27
f 27//27 8//8 28//28
# 52 faces, 0 coords texture

# End of File
