# https://github.com/mikedh/trimesh
v -0.05231881 0.01989384 0.01850109
v -0.03165939 0.02106527 0.00608245
v -0.06742891 0.02148664 -0.01457223
v -0.06426183 0.01297085 -0.01909900
v -0.05999923 0.01169826 0.01842314
v -0.03674587 0.02221411 -0.01640221
v -0.06050369 0.02132438 0.01686062
v -0.05681352 0.01220708 0.01722693
v -0.07081533 0.01170633 -0.00624889
v -0.05795027 0.01185022 -0.01924731
v -0.06172252 0.02121244 -0.01795229
v -0.05066754 0.02102972 0.01774833
v -0.06400940 0.01160513 0.01861327
v -0.04416945 0.02237051 -0.01812423
v -0.03189918 0.02127606 0.00647618
v -0.07097925 0.01177794 -0.01349618
v -0.06704436 0.01987180 0.00958123
v -0.03177774 0.01948328 0.00137781
v -0.05153818 0.01277500 0.00397600
v -0.06374902 0.01875043 -0.01784148
v -0.05497481 0.02086865 0.01831364
v -0.06850904 0.01152023 0.01331109
v -0.05898543 0.01418734 -0.01923518
v -0.05211768 0.01980434 0.01837646
v -0.03548078 0.02185470 -0.01552670
v -0.07072379 0.01528890 -0.01285282
v -0.06715560 0.01287239 -0.01685351
v -0.06450988 0.01182728 -0.01914481
v -0.06583065 0.02100655 0.01183238
v -0.03156575 0.02051031 0.00455112
v -0.05511432 0.01243969 0.01566335
v -0.05377719 0.01293272 -0.01520583
v -0.06497247 0.01631475 -0.01784813
v -0.06636249 0.02135894 -0.01526248
v -0.05261652 0.02081165 0.01829288
v -0.06290776 0.01381592 0.01837746
v -0.06814338 0.01520931 0.01091881
v -0.06101832 0.01422734 -0.01916896
v -0.03536931 0.02061263 -0.01270321
v -0.07092555 0.01399853 -0.01319292
v -0.06833802 0.02113279 -0.01278796
v -0.06732240 0.01200553 -0.01684622
v -0.06265545 0.02118578 0.01585361
v -0.05150907 0.01299732 0.00718412
v -0.05603490 0.01244804 -0.01826703
v -0.06838610 0.01907262 -0.01437702
v -0.06951458 0.01158824 0.00615706
v -0.06812176 0.01639868 0.00863693
v -0.06707669 0.01630742 0.01396202
v -0.06917334 0.01862326 -0.01001708
v -0.06375263 0.01266015 0.01845402
v -0.07051889 0.01383421 -0.00732436
v -0.07045847 0.01513252 -0.00980662
v -0.06554014 0.01959748 0.01405081
v -0.06747061 0.01157890 0.01554589
v -0.06138204 0.02003729 0.01694376
v -0.06925257 0.01286338 0.00601873
v -0.06471422 0.02089841 0.01405961
v -0.06506738 0.01736918 0.01577580
v -0.06480217 0.01990796 0.01476123
v -0.06599617 0.01509569 0.01583923
v -0.06688389 0.01394277 0.01529849
vn 0.24266364 -0.02825915 0.96969881
vn 0.95092740 -0.02025870 0.30875017
vn -0.50541189 0.74670548 -0.43242312
vn -0.33038306 0.13478113 -0.93417401
vn 0.13702797 -0.72626798 0.67361573
vn 0.42556449 0.49176082 -0.75964871
vn -0.20074299 0.78225774 0.58972458
vn 0.35190646 -0.78096988 0.51599215
vn -0.76943613 -0.63561085 0.06298321
vn 0.13788838 -0.70444452 -0.69623610
vn -0.16978878 0.66753891 -0.72495764
vn 0.35716307 0.61683440 0.70139138
vn -0.31549046 -0.56863937 0.75968088
vn 0.13253535 0.65270301 -0.74593107
vn 0.65973058 0.43381975 0.61364158
vn -0.72999464 -0.59341672 -0.33906404
vn -0.87748637 0.45661886 0.14668638
vn 0.87692968 -0.47632383 -0.06410885
vn 0.24425754 -0.96966219 0.00966956
vn -0.42745562 0.26946832 -0.86294178
vn -0.05271319 0.62087896 0.78213211
vn -0.76294808 -0.60341124 0.23195926
vn -0.00099844 0.08125362 -0.99669296
vn 0.46348549 -0.28277678 0.83977288
vn 0.82210651 0.16275663 -0.54557417
vn -0.93664440 0.27680962 -0.21464784
vn -0.64045771 0.14324928 -0.75451545
vn -0.29921116 -0.59682066 -0.74449835
vn -0.57194715 0.79572680 0.19923684
vn 0.95498284 -0.27571635 0.10949099
vn 0.32308909 -0.92677011 0.19160012
vn 0.33098005 -0.94002200 -0.08252781
vn -0.54174725 0.21006317 -0.81386939
vn -0.44870733 0.43906378 -0.77838598
vn 0.07607136 0.60182829 0.79499425
vn -0.22608450 0.23284223 0.94587013
vn -0.95498755 0.24002866 0.17431302
vn -0.04672478 0.10962676 -0.99287399
vn 0.62367252 -0.73451925 -0.26742113
vn -0.92012690 0.13585550 -0.36730067
vn -0.71702741 0.69099885 -0.09160942
vn -0.64259652 -0.19708676 -0.74042321
vn -0.36376804 0.77948677 0.50997371
vn 0.31600223 -0.94625243 0.06891251
vn 0.38659043 -0.90015527 -0.20066969
vn -0.71682282 0.22388897 -0.66033232
vn -0.77467654 -0.62649068 0.08594004
vn -0.96149773 0.25074185 0.11247507
vn -0.85143670 0.30107699 0.42942776
vn -0.92343436 0.37682665 0.07259927
vn -0.39385546 0.24120030 0.88696127
vn -0.97263343 0.21113629 0.09698292
vn -0.96122276 0.25781239 0.09789576
vn -0.77859362 0.39560251 0.48712485
vn -0.66032005 -0.55943787 0.50100569
vn -0.39238986 0.31066615 0.86574635
vn -0.96938142 0.21890051 0.11127543
vn -0.55697132 0.72617701 0.40305074
vn -0.62617542 0.31415061 0.71359213
vn -0.65636387 0.40110415 0.63898508
vn -0.67377715 0.26927678 0.68812380
vn -0.75124075 0.25665092 0.60808522
f 13//13 5//5 1//1
f 13//13 10//10 5//5
f 14//14 7//7 6//6
f 14//14 3//3 7//7
f 14//14 11//11 3//3
f 14//14 6//6 10//10
f 15//15 8//8 2//2
f 15//15 6//6 7//7
f 15//15 7//7 12//12
f 19//19 5//5 10//10
f 20//20 11//11 4//4
f 21//21 12//12 7//7
f 21//21 13//13 1//1
f 22//22 10//10 13//13
f 23//23 14//14 10//10
f 23//23 11//11 14//14
f 24//24 8//8 15//15
f 24//24 1//1 5//5
f 24//24 5//5 8//8
f 24//24 15//15 12//12
f 24//24 12//12 1//1
f 25//25 15//15 2//2
f 25//25 6//6 15//15
f 25//25 10//10 6//6
f 28//28 9//9 16//16
f 28//28 10//10 22//22
f 28//28 23//23 10//10
f 30//30 25//25 2//2
f 30//30 18//18 25//25
f 31//31 8//8 5//5
f 31//31 5//5 19//19
f 31//31 18//18 30//30
f 31//31 30//30 2//2
f 31//31 2//2 8//8
f 32//32 19//19 10//10
f 32//32 18//18 19//19
f 33//33 20//20 4//4
f 33//33 3//3 20//20
f 33//33 28//28 27//27
f 33//33 4//4 28//28
f 34//34 20//20 3//3
f 34//34 3//3 11//11
f 34//34 11//11 20//20
f 35//35 21//21 1//1
f 35//35 1//1 12//12
f 35//35 12//12 21//21
f 36//36 21//21 7//7
f 36//36 13//13 21//21
f 38//38 4//4 11//11
f 38//38 11//11 23//23
f 38//38 28//28 4//4
f 38//38 23//23 28//28
f 39//39 25//25 18//18
f 39//39 10//10 25//25
f 40//40 16//16 9//9
f 40//40 9//9 26//26
f 41//41 3//3 26//26
f 41//41 29//29 3//3
f 41//41 17//17 29//29
f 42//42 28//28 16//16
f 42//42 27//27 28//28
f 42//42 40//40 27//27
f 42//42 16//16 40//40
f 43//43 7//7 3//3
f 43//43 3//3 29//29
f 44//44 31//31 19//19
f 44//44 19//19 18//18
f 44//44 18//18 31//31
f 45//45 32//32 10//10
f 45//45 18//18 32//32
f 45//45 39//39 18//18
f 45//45 10//10 39//39
f 46//46 33//33 27//27
f 46//46 3//3 33//33
f 46//46 27//27 40//40
f 46//46 40//40 26//26
f 46//46 26//26 3//3
f 47//47 22//22 37//37
f 47//47 28//28 22//22
f 47//47 9//9 28//28
f 48//48 37//37 17//17
f 49//49 29//29 17//17
f 49//49 17//17 37//37
f 49//49 37//37 22//22
f 50//50 41//41 26//26
f 50//50 26//26 17//17
f 50//50 17//17 41//41
f 51//51 36//36 7//7
f 51//51 13//13 36//36
f 52//52 26//26 9//9
f 52//52 9//9 47//47
f 53//53 48//48 17//17
f 53//53 17//17 26//26
f 53//53 52//52 48//48
f 53//53 26//26 52//52
f 54//54 29//29 49//49
f 55//55 49//49 22//22
f 55//55 22//22 13//13
f 56//56 51//51 7//7
f 56//56 7//7 43//43
f 56//56 43//43 51//51
f 57//57 52//52 47//47
f 57//57 47//47 37//37
f 57//57 37//37 48//48
f 57//57 48//48 52//52
f 58//58 43//43 29//29
f 58//58 29//29 54//54
f 59//59 51//51 43//43
f 60//60 58//58 54//54
f 60//60 43//43 58//58
f 60//60 59//59 43//43
f 60//60 54//54 49//49
f 60//60 49//49 59//59
f 61//61 59//59 49//49
f 61//61 55//55 13//13
f 61//61 13//13 51//51
f 61//61 51//51 59//59
f 62//62 61//61 49//49
f 62//62 49//49 55//55
f 62//62 55//55 61//61

