# https://github.com/mikedh/trimesh
v -0.02256233 0.03507248 0.01707505
v -0.01219415 0.02428310 0.01659104
v -0.01115903 0.03413864 -0.01501681
v -0.04972566 0.02895820 -0.01906343
v -0.06010659 0.02394172 0.01508153
v -0.01224770 0.02434665 -0.01866631
v -0.03497269 0.04263369 -0.01380903
v -0.01360922 0.03665150 0.01047672
v -0.04694773 0.02372620 0.01778739
v -0.01050152 0.03346319 0.00982652
v -0.05800272 0.02390891 -0.01791323
v -0.04333855 0.03984821 0.01197846
v -0.02815101 0.03711294 -0.01898939
v -0.01442279 0.03307293 0.01486322
v -0.02024651 0.04118946 -0.01459476
v -0.02235979 0.03321625 0.01716942
v -0.01082014 0.03349431 -0.01516200
v -0.01231846 0.03671730 -0.01256223
v -0.05002644 0.02685827 -0.01919823
v -0.05145649 0.03659405 -0.01511266
v -0.06378993 0.02386475 -0.00872900
v -0.02706349 0.04117373 0.01294876
v -0.03383538 0.03830382 0.01705150
v -0.01257875 0.02892738 0.01595867
v -0.01239627 0.03431122 0.01162835
v -0.02704265 0.03922252 -0.01789908
v -0.01550433 0.03537605 -0.01793170
v -0.01109530 0.03412652 0.00970253
v -0.01577304 0.03891371 0.00863829
v -0.01209932 0.03646851 -0.01220407
v -0.01486173 0.03134832 -0.01910146
v -0.03545659 0.03729114 -0.01905344
v -0.04931966 0.03447235 -0.01782988
v -0.04601453 0.03997802 0.00275533
v -0.06235178 0.02389667 0.01091001
v -0.06310020 0.02624796 -0.01419643
v -0.02580401 0.04256289 0.00743738
v -0.01786143 0.03781897 0.01377395
v -0.03742093 0.04112406 0.01321067
v -0.02634729 0.03790429 0.01724591
v -0.05179551 0.03298662 0.01473906
v -0.01324997 0.03199066 0.01472208
v -0.02730270 0.04254645 -0.01424520
v -0.02097134 0.03828479 -0.01787680
v -0.01305046 0.03342345 -0.01762934
v -0.01439565 0.03750590 -0.01478670
v -0.01562756 0.03879983 -0.01371910
v -0.01369433 0.02691811 -0.01904334
v -0.04367867 0.03498557 -0.01893966
v -0.04229085 0.03892462 -0.01705284
v -0.04704149 0.03880501 -0.01432594
v -0.06370911 0.02418312 -0.01453316
v -0.05657697 0.02982500 -0.01640804
v -0.06319009 0.02602156 -0.01013503
v -0.02022113 0.04104873 0.00825022
v -0.01551767 0.03765162 0.01197211
v -0.02829356 0.03999848 0.01506443
v -0.02949549 0.04247456 0.00978463
v -0.03529175 0.04250605 0.00964260
v -0.02136542 0.03986601 0.01296562
v -0.05452699 0.02640076 0.01699542
v -0.05469907 0.03423030 0.00940231
v -0.04333418 0.03798809 0.01473998
v -0.03384185 0.04259614 -0.01468961
vn 0.21718049 0.22698283 0.94937423
vn 0.56768473 -0.56396978 0.59972672
vn 0.75089655 0.54402679 -0.37441852
vn -0.16522726 0.14737932 -0.97518167
vn -0.65825449 -0.40628336 0.63374668
vn 0.56252274 -0.59754277 -0.57141123
vn -0.17352164 0.97192764 -0.15889272
vn 0.68777067 0.67683638 0.26241957
vn -0.04122555 -0.66983015 0.74136902
vn 0.93310089 0.29888778 0.19997206
vn -0.31059165 -0.56872724 -0.76163124
vn -0.36480421 0.87279961 0.32425102
vn 0.03116226 0.25509394 -0.96641399
vn 0.45339057 0.46354330 0.76129140
vn 0.30578010 0.88225705 -0.35793998
vn 0.06719632 0.02220163 0.99749273
vn 0.92133332 0.21582221 -0.32336619
vn 0.68993287 0.70811814 -0.15020431
vn -0.07520084 -0.12717971 -0.98902485
vn -0.51861382 0.75448498 -0.40223391
vn -0.81015713 -0.58548323 0.02923721
vn 0.12940074 0.89725423 0.42212593
vn -0.06598247 0.47711641 0.87635965
vn 0.61114137 0.22596230 0.75858241
vn 0.67843406 0.52333855 0.51560061
vn 0.05689459 0.60236333 -0.79619183
vn 0.35381208 0.49137142 -0.79584617
vn 0.72713618 0.68088759 0.08755037
vn 0.53871726 0.83145268 0.13590496
vn 0.82934601 0.55820286 -0.02438771
vn 0.25369187 0.13936181 -0.95719315
vn -0.03822789 0.35237121 -0.93507923
vn -0.31084332 0.42406531 -0.85061451
vn -0.39615460 0.91741846 0.03748204
vn -0.87503770 -0.40449930 0.26587469
vn -0.76989725 0.49083587 -0.40784602
vn 0.14611887 0.98275316 0.11333801
vn 0.39771346 0.64868074 0.64887387
vn -0.16282457 0.86718323 0.47061810
vn 0.12549338 0.44804812 0.88515778
vn -0.43581518 0.58704456 0.68223443
vn 0.61939312 0.43977263 0.65034775
vn 0.09338770 0.93449745 -0.34350146
vn 0.18345923 0.53035826 -0.82768522
vn 0.57442432 0.35121062 -0.73938339
vn 0.54070488 0.70409748 -0.46030965
vn 0.50862658 0.83959965 -0.19071296
vn 0.19325487 -0.00658453 -0.98112650
vn -0.12662516 0.27778953 -0.95225997
vn -0.21511843 0.70011521 -0.68085443
vn -0.35256876 0.89861523 -0.26112436
vn -0.77584152 -0.44012598 -0.45206091
vn -0.45480996 0.41569014 -0.78762276
vn -0.86965249 0.49281791 0.02889729
vn 0.33160265 0.93064294 0.15473654
vn 0.53570758 0.71450486 0.45000021
vn 0.06855516 0.80672797 0.58693285
vn 0.03959270 0.97504596 0.21844403
vn -0.10943221 0.98047771 0.16336478
vn 0.27866523 0.84327027 0.45960955
vn -0.29836841 0.12187731 0.94663732
vn -0.63404115 0.73549375 0.23883207
vn -0.30992101 0.62614958 0.71546186
vn -0.05609482 0.89839375 -0.43559389
f 9//9 6//6 2//2
f 10//10 2//2 6//6
f 11//11 6//6 9//9
f 16//16 9//9 2//2
f 16//16 2//2 1//1
f 17//17 10//10 6//6
f 19//19 11//11 4//4
f 19//19 6//6 11//11
f 21//21 11//11 9//9
f 24//24 14//14 1//1
f 24//24 1//1 2//2
f 24//24 2//2 10//10
f 25//25 10//10 8//8
f 28//28 18//18 8//8
f 28//28 8//8 10//10
f 29//29 8//8 18//18
f 30//30 17//17 3//3
f 30//30 3//3 18//18
f 30//30 10//10 17//17
f 30//30 28//28 10//10
f 30//30 18//18 28//28
f 32//32 31//31 19//19
f 32//32 13//13 31//31
f 32//32 26//26 13//13
f 33//33 4//4 11//11
f 35//35 21//21 9//9
f 35//35 9//9 5//5
f 40//40 16//16 1//1
f 40//40 1//1 14//14
f 40//40 14//14 38//38
f 40//40 23//23 9//9
f 40//40 9//9 16//16
f 42//42 24//24 10//10
f 42//42 10//10 25//25
f 42//42 14//14 24//24
f 43//43 15//15 26//26
f 43//43 37//37 15//15
f 43//43 7//7 37//37
f 44//44 13//13 26//26
f 44//44 26//26 15//15
f 44//44 15//15 27//27
f 44//44 31//31 13//13
f 44//44 27//27 31//31
f 45//45 3//3 17//17
f 45//45 31//31 27//27
f 45//45 17//17 6//6
f 45//45 6//6 31//31
f 46//46 18//18 3//3
f 46//46 45//45 27//27
f 46//46 3//3 45//45
f 46//46 27//27 15//15
f 47//47 29//29 18//18
f 47//47 15//15 29//29
f 47//47 46//46 15//15
f 47//47 18//18 46//46
f 48//48 31//31 6//6
f 48//48 6//6 19//19
f 48//48 19//19 31//31
f 49//49 32//32 19//19
f 49//49 19//19 4//4
f 49//49 4//4 33//33
f 50//50 33//33 20//20
f 50//50 49//49 33//33
f 50//50 32//32 49//49
f 51//51 34//34 7//7
f 51//51 20//20 34//34
f 51//51 50//50 20//20
f 52//52 36//36 11//11
f 52//52 11//11 21//21
f 53//53 33//33 11//11
f 53//53 11//11 36//36
f 53//53 36//36 20//20
f 53//53 20//20 33//33
f 54//54 21//21 35//35
f 54//54 52//52 21//21
f 54//54 36//36 52//52
f 55//55 29//29 15//15
f 55//55 15//15 37//37
f 55//55 37//37 22//22
f 56//56 8//8 29//29
f 56//56 29//29 55//55
f 56//56 25//25 8//8
f 56//56 42//42 25//25
f 56//56 38//38 14//14
f 56//56 14//14 42//42
f 57//57 39//39 23//23
f 57//57 22//22 39//39
f 57//57 23//23 40//40
f 58//58 39//39 22//22
f 58//58 22//22 37//37
f 59//59 34//34 12//12
f 59//59 12//12 39//39
f 59//59 7//7 34//34
f 59//59 39//39 58//58
f 59//59 58//58 37//37
f 59//59 37//37 7//7
f 60//60 40//40 38//38
f 60//60 57//57 40//40
f 60//60 22//22 57//57
f 60//60 55//55 22//22
f 60//60 56//56 55//55
f 60//60 38//38 56//56
f 61//61 41//41 5//5
f 61//61 5//5 9//9
f 61//61 9//9 23//23
f 62//62 35//35 5//5
f 62//62 5//5 41//41
f 62//62 54//54 35//35
f 62//62 34//34 20//20
f 62//62 20//20 36//36
f 62//62 36//36 54//54
f 62//62 41//41 12//12
f 62//62 12//12 34//34
f 63//63 39//39 12//12
f 63//63 12//12 41//41
f 63//63 23//23 39//39
f 63//63 61//61 23//23
f 63//63 41//41 61//61
f 64//64 43//43 26//26
f 64//64 7//7 43//43
f 64//64 26//26 32//32
f 64//64 32//32 50//50
f 64//64 51//51 7//7
f 64//64 50//50 51//51

