# https://github.com/mikedh/trimesh
v 0.03786893 0.03004918 0.01748946
v 0.03824968 0.02076463 0.01516616
v 0.03792032 0.03231736 -0.01805128
v 0.00444910 0.02177051 -0.01688256
v 0.00502697 -0.00111162 0.01267050
v 0.03078127 0.03664419 -0.00963209
v 0.03812089 0.03591028 0.01136951
v 0.01471890 0.00985424 0.01742968
v 0.01620614 -0.00127443 0.00178929
v 0.02612959 0.03285281 -0.01701233
v 0.03807585 0.02499849 0.01752768
v 0.03804200 0.02037060 -0.01673999
v 0.03770408 0.03510477 -0.01099772
v 0.00449660 0.02603977 0.01324837
v 0.01529064 -0.00120370 0.01280463
v 0.00506917 0.00990149 -0.01747847
v 0.03200684 0.03323278 -0.01757354
v 0.00432474 0.02754593 -0.01275419
v 0.02763210 0.02986131 0.01766586
v 0.03769496 0.01545842 0.00153230
v 0.03783550 0.03428262 -0.01517274
v 0.03290386 0.03661107 -0.00952118
v 0.03443786 0.03524186 0.01126729
v 0.00500965 0.01833379 0.01734764
v 0.00502697 -0.00111162 0.00169975
v 0.01462951 0.01013880 -0.01771078
v 0.02373840 0.02749927 -0.01874573
v 0.02610822 0.03386668 -0.01484435
v 0.00428681 0.02643138 -0.01469254
v 0.00447210 0.02757255 -0.00706285
v 0.03772294 0.03255768 0.01641335
v 0.03797268 0.01894640 0.01323619
v 0.03786750 0.03312090 -0.01714743
v 0.03000765 0.03398311 0.01089149
v 0.02967316 0.03164646 0.01653613
v 0.00476545 0.02142771 0.01630078
v 0.01757526 0.01066418 -0.01654911
v 0.03786851 0.02695310 -0.01897896
v 0.01618474 0.01747610 -0.01877868
v 0.03305711 0.03021484 -0.01879878
v 0.02584813 0.03196546 -0.01776878
v 0.02275658 0.03400322 -0.01228632
v 0.02403434 0.03295196 -0.01586490
v 0.03406360 0.03298297 -0.01786054
v 0.02966862 0.03252677 0.01454902
v 0.00465175 0.02397765 0.01518047
v 0.03800773 0.02250275 -0.01769654
v 0.00628819 0.01220547 -0.01772959
v 0.01916162 0.02379914 -0.01863765
v 0.00647348 0.01003944 -0.01768371
v 0.02289021 0.01885669 -0.01876930
v 0.02605246 0.02888084 -0.01876978
v 0.03553156 0.03014155 -0.01887099
v 0.01655065 0.02048602 -0.01862204
v 0.02037111 0.02502710 -0.01865861
v 0.01836062 0.01744780 -0.01880431
v 0.03785274 0.02812824 -0.01896579
vn 0.63708822 0.17697508 0.75019892
vn 0.81810731 -0.33244914 0.46923129
vn 0.67070164 0.38362272 -0.63481723
vn -0.73122294 0.12603335 -0.67039437
vn -0.60431011 -0.64904192 0.46211890
vn -0.13035755 0.98193960 -0.13711865
vn 0.59876386 0.76357848 0.24172247
vn 0.02105317 -0.23257895 0.97234963
vn 0.29142385 -0.93377237 -0.20770486
vn -0.16986524 0.79073632 -0.58811723
vn 0.68321072 -0.09529362 0.72397668
vn 0.75509453 -0.43235753 -0.49284806
vn 0.67765114 0.72994827 -0.08924380
vn -0.74472100 0.58702160 0.31748429
vn 0.25357775 -0.81847014 0.51556275
vn -0.61861743 -0.43396116 -0.65497343
vn -0.05319503 0.74010680 -0.67038214
vn -0.76420367 0.62365143 -0.16447386
vn -0.11531957 0.38301358 0.91651623
vn 0.85286193 -0.52204856 -0.00958253
vn 0.67370859 0.68371312 -0.28045161
vn 0.11395795 0.98267628 -0.14615372
vn -0.21192543 0.94051035 0.26557089
vn -0.64468291 0.01646218 0.76427282
vn -0.64820962 -0.73594034 -0.19548940
vn 0.12085361 -0.58447147 -0.80236370
vn -0.10072612 0.14632721 -0.98409481
vn -0.16232972 0.91186641 -0.37702614
vn -0.75261826 0.42819857 -0.50021169
vn -0.71036251 0.70288366 0.03660139
vn 0.54524671 0.55150316 0.63130840
vn 0.82533932 -0.50117326 0.26007762
vn 0.65881199 0.62256949 -0.42234346
vn -0.28262809 0.95059523 0.12841368
vn -0.15594274 0.76271654 0.62765065
vn -0.74344777 0.20388947 0.63695722
vn 0.35428790 -0.77851469 -0.51806848
vn 0.65803587 -0.05768071 -0.75077409
vn -0.06368091 -0.02242966 -0.99771822
vn -0.03378683 0.22993331 -0.97261972
vn -0.16827216 0.50360055 -0.84739068
vn -0.29345662 0.93935062 -0.17749261
vn -0.26208626 0.84443952 -0.46715383
vn 0.01234047 0.64179916 -0.76677347
vn -0.24387237 0.88941964 0.38659925
vn -0.73533473 0.33659894 0.58820404
vn 0.74533855 -0.20536254 -0.63426861
vn -0.17278255 0.01391305 -0.98486172
vn -0.10587662 0.08552870 -0.99069419
vn -0.05309460 -0.49732360 -0.86593891
vn 0.06882229 -0.15587072 -0.98537699
vn -0.07998947 0.17451909 -0.98139939
vn 0.02680186 0.18967667 -0.98148073
vn -0.11299889 0.07597003 -0.99068653
vn -0.10421739 0.10354737 -0.98914947
vn 0.01819348 -0.09136414 -0.99565134
vn 0.64223723 0.05736478 -0.76435635
f 11//11 7//7 1//1
f 11//11 2//2 7//7
f 12//12 7//7 2//2
f 12//12 3//3 7//7
f 15//15 8//8 5//5
f 15//15 11//11 8//8
f 15//15 2//2 11//11
f 15//15 5//5 9//9
f 19//19 11//11 1//1
f 19//19 8//8 11//11
f 20//20 12//12 2//2
f 20//20 9//9 12//12
f 20//20 15//15 9//9
f 21//21 13//13 7//7
f 21//21 7//7 3//3
f 21//21 17//17 6//6
f 22//22 6//6 7//7
f 22//22 7//7 13//13
f 22//22 21//21 6//6
f 22//22 13//13 21//21
f 23//23 7//7 6//6
f 24//24 5//5 8//8
f 24//24 8//8 19//19
f 25//25 16//16 9//9
f 25//25 9//9 5//5
f 25//25 4//4 16//16
f 26//26 9//9 16//16
f 28//28 17//17 10//10
f 28//28 6//6 17//17
f 29//29 5//5 14//14
f 29//29 14//14 18//18
f 29//29 25//25 5//5
f 29//29 4//4 25//25
f 30//30 18//18 14//14
f 30//30 14//14 6//6
f 31//31 19//19 1//1
f 31//31 1//1 7//7
f 32//32 20//20 2//2
f 32//32 2//2 15//15
f 32//32 15//15 20//20
f 33//33 21//21 3//3
f 34//34 23//23 6//6
f 34//34 6//6 14//14
f 34//34 14//14 23//23
f 35//35 7//7 23//23
f 35//35 31//31 7//7
f 35//35 19//19 31//31
f 35//35 14//14 19//19
f 36//36 14//14 5//5
f 36//36 5//5 24//24
f 36//36 24//24 19//19
f 37//37 26//26 12//12
f 37//37 12//12 9//9
f 37//37 9//9 26//26
f 41//41 10//10 17//17
f 41//41 29//29 10//10
f 41//41 4//4 29//29
f 42//42 6//6 28//28
f 42//42 30//30 6//6
f 42//42 18//18 30//30
f 43//43 29//29 18//18
f 43//43 10//10 29//29
f 43//43 18//18 42//42
f 43//43 42//42 28//28
f 43//43 28//28 10//10
f 44//44 33//33 3//3
f 44//44 17//17 21//21
f 44//44 21//21 33//33
f 44//44 41//41 17//17
f 44//44 40//40 41//41
f 45//45 35//35 23//23
f 45//45 23//23 14//14
f 45//45 14//14 35//35
f 46//46 36//36 19//19
f 46//46 19//19 14//14
f 46//46 14//14 36//36
f 47//47 38//38 3//3
f 47//47 3//3 12//12
f 47//47 12//12 26//26
f 47//47 26//26 38//38
f 48//48 16//16 4//4
f 48//48 4//4 39//39
f 50//50 26//26 16//16
f 50//50 48//48 39//39
f 50//50 16//16 48//48
f 51//51 38//38 26//26
f 52//52 39//39 27//27
f 52//52 41//41 40//40
f 52//52 27//27 4//4
f 52//52 4//4 41//41
f 53//53 52//52 40//40
f 53//53 44//44 3//3
f 53//53 40//40 44//44
f 54//54 49//49 39//39
f 54//54 39//39 4//4
f 54//54 4//4 49//49
f 55//55 49//49 4//4
f 55//55 4//4 27//27
f 55//55 27//27 39//39
f 55//55 39//39 49//49
f 56//56 50//50 39//39
f 56//56 26//26 50//50
f 56//56 51//51 26//26
f 56//56 39//39 38//38
f 56//56 38//38 51//51
f 57//57 53//53 3//3
f 57//57 3//3 38//38
f 57//57 52//52 53//53
f 57//57 38//38 39//39
f 57//57 39//39 52//52

