# https://github.com/mikedh/trimesh
v 0.01330791 0.01809998 0.02160079
v 0.01904564 0.00766427 0.01564282
v 0.00164737 0.01985411 0.02108024
v -0.00632485 -0.00315518 0.01718806
v 0.00462265 -0.02215569 0.02656017
v 0.01816000 0.00505583 0.01505842
v 0.01306027 0.02030278 0.02073898
v 0.01672277 0.00796186 0.01938836
v 0.00140978 0.00865014 0.02489060
v 0.00677848 -0.03410358 0.01571259
v 0.01852574 0.00795532 0.01678263
v 0.00907613 -0.01072051 0.02472021
v 0.00533773 -0.00787106 0.02620651
v 0.00098274 0.01767189 0.02181611
v -0.00144847 -0.01104899 0.02609220
v 0.00131431 -0.03452498 0.01557319
v 0.01191160 -0.02438419 0.01527868
v 0.01544587 0.00801305 0.02044303
v 0.00996805 -0.02416368 0.02144727
v 0.00822207 0.00391357 0.02445482
v 0.00616523 -0.01267916 0.02627700
v -0.00193758 -0.00314283 0.02412324
v 0.00385175 -0.00633472 0.02639804
v -0.00453935 -0.02686356 0.01840189
v 0.00514205 -0.03076563 0.02233899
v 0.01028382 -0.02963878 0.01535691
v 0.00928901 -0.00474926 0.02457884
v 0.00882650 -0.02133121 0.02334042
v 0.00369606 0.00857285 0.02469516
v 0.00575299 -0.01965640 0.02626338
v -0.00128043 -0.00996567 0.02626226
v -0.00490253 -0.02710097 0.01695628
v 0.00022007 -0.02225303 0.02624764
v 0.00516151 -0.03208464 0.02068038
v 0.00010646 -0.03051250 0.02211068
v 0.00885361 -0.02664125 0.02176997
v 0.01002454 -0.02666355 0.01951803
v 0.01321259 0.01651759 0.02176163
v 0.00990154 -0.01062967 0.02389292
v 0.00751173 -0.02089886 0.02464153
v -0.00029991 -0.01491757 0.02657502
v -0.00306018 -0.02741605 0.02113513
v -0.00053493 -0.02796860 0.02340615
v 0.00646897 -0.03349117 0.01780108
v 0.00137769 -0.03190485 0.02081051
v -0.00121298 -0.03293334 0.01696153
v 0.00996057 -0.02945248 0.01672196
v -0.00178744 -0.02425020 0.02356603
v -0.00204620 -0.02815565 0.02190258
v 0.00145665 -0.03359571 0.01800341
v -0.00386549 -0.02984318 0.01711752
v -0.00083236 -0.03202493 0.01926961
v 0.00838712 -0.03089464 0.01791941
v -0.00062669 -0.02396687 0.02497730
v -0.00306107 -0.02955318 0.01969776
vn 0.51355858 0.28445693 0.80953186
vn 0.83218061 0.21257342 -0.51214057
vn -0.45538166 0.89018073 -0.01434599
vn -0.88800443 0.15794513 -0.43185816
vn 0.24230598 -0.23723891 0.94074732
vn 0.42345078 0.00036352 -0.90591904
vn 0.38910706 0.92119123 0.00155216
vn 0.75661137 0.00586648 0.65383853
vn -0.35998566 0.20564618 0.91001097
vn 0.41245681 -0.79036555 -0.45299191
vn 0.88534418 0.06244431 0.46072378
vn 0.59788839 -0.05228810 0.79987214
vn 0.23800488 0.06157128 0.96931040
vn -0.63069467 0.38395523 0.67439055
vn -0.74098156 -0.03553097 0.67058473
vn -0.23331150 -0.81312656 -0.53328317
vn 0.77543206 -0.20287248 -0.59795308
vn 0.60050197 0.00610566 0.79959997
vn 0.82385804 -0.21683755 0.52367873
vn 0.26352998 0.08986899 0.96045589
vn 0.29861199 0.00276390 0.95437060
vn -0.78136317 0.13984835 0.60820558
vn 0.06661811 0.07549142 0.99491863
vn -0.91989851 -0.17171202 0.35256449
vn 0.29407370 -0.59755277 0.74595666
vn 0.72114896 -0.38879813 -0.57339357
vn 0.46317401 0.02722469 0.88584912
vn 0.70382423 -0.15299685 0.69370268
vn 0.12364245 0.15891296 0.97951989
vn 0.47584034 -0.08128192 0.87576779
vn -0.51825630 0.06472639 0.85277248
vn -0.86104725 -0.16962020 -0.47940237
vn -0.39163812 -0.21379495 0.89493648
vn 0.21497515 -0.79824194 0.56266818
vn -0.32685948 -0.61388629 0.71854472
vn 0.69502018 -0.37158366 0.61552623
vn 0.87409212 -0.32699742 0.35921532
vn 0.47599086 0.05656125 0.87762949
vn 0.72176685 -0.10258666 0.68449149
vn 0.63832872 -0.16612221 0.75162481
vn -0.30510475 -0.03359118 0.95172618
vn -0.80944746 -0.22611470 0.54191046
vn -0.38624989 -0.42450970 0.81890325
vn 0.43156777 -0.80285201 0.41131243
vn -0.15340723 -0.80026261 0.57969472
vn -0.64223610 -0.76457156 -0.05443458
vn 0.84157596 -0.44020975 0.31299407
vn -0.78439684 -0.13261101 0.60591742
vn -0.66124113 -0.38716172 0.64254648
vn -0.15710616 -0.89340882 0.42087805
vn -0.82889994 -0.46876884 -0.30525507
vn -0.48936537 -0.74376571 0.45533955
vn 0.73727183 -0.53851483 0.40796080
vn -0.65870629 -0.22442675 0.71814947
vn -0.75484994 -0.48615720 0.44028712
f 6//6 3//3 2//2
f 6//6 4//4 3//3
f 7//7 2//2 3//3
f 7//7 3//3 1//1
f 9//9 1//1 3//3
f 11//11 7//7 1//1
f 11//11 2//2 7//7
f 11//11 1//1 8//8
f 14//14 9//9 3//3
f 14//14 3//3 4//4
f 16//16 4//4 6//6
f 17//17 6//6 2//2
f 17//17 16//16 6//6
f 18//18 12//12 8//8
f 18//18 8//8 1//1
f 19//19 11//11 8//8
f 19//19 17//17 2//2
f 19//19 2//2 11//11
f 21//21 20//20 13//13
f 22//22 14//14 4//4
f 22//22 9//9 14//14
f 23//23 13//13 20//20
f 23//23 21//21 13//13
f 23//23 5//5 21//21
f 24//24 15//15 4//4
f 26//26 10//10 16//16
f 26//26 16//16 17//17
f 27//27 12//12 18//18
f 27//27 21//21 12//12
f 28//28 19//19 8//8
f 29//29 20//20 1//1
f 29//29 1//1 9//9
f 29//29 23//23 20//20
f 29//29 9//9 23//23
f 30//30 21//21 5//5
f 30//30 12//12 21//21
f 31//31 9//9 22//22
f 31//31 23//23 9//9
f 31//31 22//22 4//4
f 31//31 4//4 15//15
f 32//32 24//24 4//4
f 32//32 4//4 16//16
f 36//36 5//5 25//25
f 36//36 19//19 28//28
f 37//37 17//17 19//19
f 37//37 19//19 36//36
f 38//38 27//27 18//18
f 38//38 18//18 1//1
f 38//38 1//1 20//20
f 38//38 20//20 21//21
f 38//38 21//21 27//27
f 39//39 28//28 8//8
f 39//39 8//8 12//12
f 39//39 12//12 28//28
f 40//40 28//28 12//12
f 40//40 12//12 30//30
f 40//40 30//30 5//5
f 40//40 36//36 28//28
f 40//40 5//5 36//36
f 41//41 5//5 23//23
f 41//41 23//23 31//31
f 41//41 33//33 5//5
f 41//41 31//31 15//15
f 41//41 15//15 33//33
f 42//42 15//15 24//24
f 43//43 25//25 5//5
f 43//43 5//5 33//33
f 43//43 35//35 25//25
f 44//44 16//16 10//10
f 44//44 36//36 25//25
f 44//44 25//25 34//34
f 45//45 34//34 25//25
f 45//45 25//25 35//35
f 47//47 37//37 36//36
f 47//47 26//26 17//17
f 47//47 17//17 37//37
f 47//47 44//44 10//10
f 47//47 10//10 26//26
f 48//48 15//15 42//42
f 49//49 35//35 43//43
f 50//50 44//44 34//34
f 50//50 16//16 44//44
f 50//50 34//34 45//45
f 50//50 46//46 16//16
f 51//51 32//32 16//16
f 51//51 16//16 46//46
f 51//51 24//24 32//32
f 52//52 45//45 35//35
f 52//52 50//50 45//45
f 52//52 46//46 50//50
f 53//53 47//47 36//36
f 53//53 36//36 44//44
f 53//53 44//44 47//47
f 54//54 48//48 42//42
f 54//54 42//42 49//49
f 54//54 33//33 15//15
f 54//54 15//15 48//48
f 54//54 49//49 43//43
f 54//54 43//43 33//33
f 55//55 42//42 24//24
f 55//55 24//24 51//51
f 55//55 49//49 42//42
f 55//55 51//51 46//46
f 55//55 46//46 52//52
f 55//55 52//52 35//35
f 55//55 35//35 49//49

