# https://github.com/mikedh/trimesh
v 0.05833210 0.03503621 0.02015351
v 0.07740172 0.00715582 0.01106121
v 0.06959377 0.02290703 -0.01800186
v 0.04377110 0.03169350 -0.02377233
v 0.03268691 0.01652186 0.01403352
v 0.06421954 0.00791597 -0.02178617
v 0.05664767 0.03623182 -0.01098139
v 0.07093524 0.02661036 0.01354601
v 0.07059473 0.00722165 0.02217673
v 0.03368207 0.03811539 0.01379616
v 0.07740448 0.00710888 -0.01613362
v 0.06991153 0.01449142 -0.02220746
v 0.03269374 0.01899432 -0.02084006
v 0.05361137 0.03461254 -0.02123930
v 0.06313622 0.03396649 0.01859851
v 0.06668783 0.03016075 -0.00511749
v 0.04243694 0.02641049 0.02191130
v 0.07400617 0.01293370 0.01811267
v 0.05301981 0.00905724 0.00905765
v 0.04973880 0.03922273 0.01454716
v 0.06148224 0.00759875 0.02177829
v 0.07455409 0.00695548 0.01939021
v 0.07553779 0.01620348 0.00946940
v 0.07409085 0.01990829 -0.00846224
v 0.07181815 0.00755771 -0.02261278
v 0.07562564 0.01432347 -0.01684524
v 0.04213650 0.03801566 -0.01896422
v 0.03353208 0.03557750 0.02000492
v 0.06236408 0.03035109 -0.01909642
v 0.05419293 0.03005888 -0.02362205
v 0.06366716 0.03283160 0.01896509
v 0.06813574 0.03020713 0.01317703
v 0.06522921 0.03175938 -0.00361023
v 0.04803707 0.03297418 0.02162400
v 0.03281614 0.01507119 -0.01282236
v 0.05829091 0.03615034 0.01910066
v 0.07441597 0.00728589 -0.02073366
v 0.05309276 0.00896039 -0.00686963
v 0.03267031 0.01516207 0.00780206
v 0.03296157 0.01790499 0.01628575
v 0.05517861 0.01345181 0.02199599
v 0.07321432 0.00703216 0.02096967
v 0.07610277 0.00724556 0.01675104
v 0.07699133 0.01158792 -0.00969023
v 0.07403924 0.02034849 0.01237099
v 0.07104679 0.02593776 0.00232780
v 0.06948759 0.02426595 -0.01544112
v 0.03294080 0.02021979 -0.02150370
v 0.07259445 0.01864058 -0.01791499
v 0.04224253 0.03555909 -0.02256239
v 0.04765082 0.03925524 -0.01087784
v 0.04121188 0.03921271 0.01828448
v 0.05769066 0.03341412 -0.01937695
v 0.06404249 0.02458180 -0.02210107
v 0.05438474 0.02893869 -0.02364385
v 0.06129559 0.03495996 0.01905731
v 0.05982592 0.03404595 0.02003558
v 0.07262072 0.01752887 0.01753115
v 0.06815239 0.03019085 0.01518330
v 0.06243329 0.03311099 -0.00818231
v 0.04217828 0.03272386 0.02186353
v 0.05397991 0.02820956 0.02158931
v 0.03293483 0.01651881 -0.01711684
v 0.05381813 0.03762940 0.00381691
vn 0.17364904 0.44384421 0.87911792
vn 0.81348471 -0.57315136 0.09869218
vn 0.70695346 0.52914155 -0.46928245
vn -0.11080473 0.12179134 -0.98635145
vn -0.80798453 -0.53743600 0.24150268
vn -0.15050000 -0.79450198 -0.58831654
vn 0.41563705 0.89850721 -0.14117588
vn 0.84659318 0.48063181 0.22863300
vn 0.18803606 -0.57869470 0.79357097
vn -0.72125491 0.69100264 0.04802813
vn 0.76379590 -0.59841770 -0.24189268
vn 0.44896053 0.22224668 -0.86547146
vn -0.76626804 -0.36761655 -0.52696429
vn 0.29356830 0.73975374 -0.60546020
vn 0.56925301 0.72050687 0.39600614
vn 0.71739071 0.68355367 -0.13455464
vn -0.19610065 -0.11511135 0.97380384
vn 0.78578747 0.26891208 0.55697787
vn -0.24478464 -0.96901302 0.03307928
vn 0.17078347 0.97785711 0.12094824
vn -0.15071665 -0.74111989 0.65423680
vn 0.61927558 -0.63582904 0.46067253
vn 0.96125994 0.26696687 0.06861497
vn 0.87609891 0.47351130 -0.09076202
vn 0.26342681 -0.57313714 -0.77596400
vn 0.85938465 0.33206900 -0.38882928
vn -0.37188405 0.85617979 -0.35868987
vn -0.68098138 0.36117030 0.63704032
vn 0.57454052 0.66591498 -0.47587859
vn 0.18900305 0.27857095 -0.94163479
vn 0.54529148 0.37046603 0.75193891
vn 0.69600977 0.71773980 -0.02049353
vn 0.60675399 0.79105267 -0.07800810
vn 0.04357371 0.27983748 0.95905804
vn -0.75818836 -0.64328600 -0.10645908
vn 0.27056054 0.87504036 0.40137433
vn 0.54994859 -0.60232850 -0.57858183
vn -0.21134806 -0.97653170 -0.04144668
vn -0.79327547 -0.60624809 0.05636738
vn -0.73450045 -0.35133356 0.58058060
vn -0.16374278 -0.18519350 0.96896423
vn 0.47142527 -0.58137193 0.66314772
vn 0.84321318 -0.43935492 0.30977216
vn 0.97528442 0.21941147 -0.02605584
vn 0.91452474 0.35348950 0.19669689
vn 0.81677253 0.57453585 -0.05283166
vn 0.75444062 0.61688663 -0.22421024
vn -0.70154213 0.01823314 -0.71239469
vn 0.74863063 0.45058710 -0.48633676
vn -0.34627826 0.58218628 -0.73562932
vn 0.10934968 0.98736908 -0.11465140
vn -0.06838204 0.86830195 0.49129992
vn 0.47386564 0.78601089 -0.39703681
vn 0.43675582 0.34623940 -0.83027865
vn 0.04680007 0.00025962 -0.99890424
vn 0.44088057 0.75650352 0.48303907
vn 0.27172703 0.26373343 0.92553179
vn 0.74491730 0.31198205 0.58971638
vn 0.74638045 0.60123469 0.28536480
vn 0.56514215 0.81422522 -0.13285951
vn -0.06448950 0.22588975 0.97201591
vn 0.10023251 0.11100280 0.98875266
vn -0.68379985 -0.65928156 -0.31267491
vn 0.33787568 0.94097412 -0.02019238
f 22//22 11//11 2//2
f 28//28 13//13 5//5
f 28//28 10//10 13//13
f 30//30 12//12 25//25
f 33//33 7//7 15//15
f 33//33 32//32 16//16
f 33//33 15//15 32//32
f 37//37 21//21 6//6
f 37//37 22//22 21//21
f 37//37 11//11 22//22
f 37//37 6//6 25//25
f 37//37 26//26 11//11
f 37//37 25//25 12//12
f 37//37 12//12 26//26
f 38//38 21//21 19//19
f 38//38 6//6 21//21
f 38//38 35//35 6//6
f 39//39 21//21 5//5
f 39//39 19//19 21//21
f 39//39 5//5 13//13
f 39//39 13//13 35//35
f 39//39 38//38 19//19
f 39//39 35//35 38//38
f 40//40 5//5 21//21
f 40//40 28//28 5//5
f 40//40 17//17 28//28
f 41//41 21//21 9//9
f 41//41 9//9 17//17
f 41//41 40//40 21//21
f 41//41 17//17 40//40
f 42//42 9//9 21//21
f 42//42 21//21 22//22
f 42//42 22//22 18//18
f 42//42 31//31 9//9
f 43//43 22//22 2//2
f 43//43 18//18 22//22
f 44//44 23//23 2//2
f 44//44 2//2 11//11
f 44//44 11//11 26//26
f 44//44 26//26 24//24
f 44//44 24//24 23//23
f 45//45 18//18 43//43
f 45//45 43//43 2//2
f 45//45 2//2 23//23
f 45//45 24//24 8//8
f 45//45 23//23 24//24
f 46//46 24//24 16//16
f 46//46 8//8 24//24
f 46//46 32//32 8//8
f 46//46 16//16 32//32
f 47//47 16//16 24//24
f 47//47 29//29 16//16
f 47//47 3//3 29//29
f 48//48 4//4 25//25
f 48//48 13//13 10//10
f 48//48 10//10 27//27
f 48//48 25//25 6//6
f 48//48 6//6 13//13
f 49//49 26//26 12//12
f 49//49 3//3 47//47
f 49//49 47//47 24//24
f 49//49 24//24 26//26
f 50//50 27//27 14//14
f 50//50 48//48 27//27
f 50//50 4//4 48//48
f 50//50 30//30 4//4
f 50//50 14//14 30//30
f 51//51 7//7 14//14
f 51//51 14//14 27//27
f 51//51 27//27 10//10
f 52//52 10//10 28//28
f 52//52 51//51 10//10
f 52//52 20//20 51//51
f 52//52 36//36 20//20
f 52//52 1//1 36//36
f 52//52 34//34 1//1
f 53//53 29//29 14//14
f 53//53 14//14 7//7
f 54//54 29//29 3//3
f 54//54 12//12 30//30
f 54//54 30//30 14//14
f 54//54 14//14 29//29
f 54//54 49//49 12//12
f 54//54 3//3 49//49
f 55//55 30//30 25//25
f 55//55 25//25 4//4
f 55//55 4//4 30//30
f 56//56 31//31 15//15
f 56//56 36//36 1//1
f 56//56 15//15 7//7
f 56//56 7//7 36//36
f 57//57 1//1 9//9
f 57//57 9//9 31//31
f 57//57 56//56 1//1
f 57//57 31//31 56//56
f 58//58 45//45 8//8
f 58//58 18//18 45//45
f 58//58 42//42 18//18
f 58//58 31//31 42//42
f 59//59 15//15 31//31
f 59//59 32//32 15//15
f 59//59 8//8 32//32
f 59//59 58//58 8//8
f 59//59 31//31 58//58
f 60//60 7//7 33//33
f 60//60 53//53 7//7
f 60//60 29//29 53//53
f 60//60 33//33 16//16
f 60//60 16//16 29//29
f 61//61 17//17 9//9
f 61//61 9//9 34//34
f 61//61 28//28 17//17
f 61//61 52//52 28//28
f 61//61 34//34 52//52
f 62//62 34//34 9//9
f 62//62 9//9 1//1
f 62//62 1//1 34//34
f 63//63 35//35 13//13
f 63//63 13//13 6//6
f 63//63 6//6 35//35
f 64//64 36//36 7//7
f 64//64 20//20 36//36
f 64//64 51//51 20//20
f 64//64 7//7 51//51

