# https://github.com/mikedh/trimesh
v 0.00038014 0.00701908 0.02002481
v 0.00041764 -0.02677760 0.01451505
v 0.00058167 -0.01945544 -0.01660038
v -0.00651367 0.02528015 -0.01788392
v -0.01107834 0.00900885 0.00775916
v -0.00065977 0.02020826 -0.01622495
v 0.00073579 -0.02351540 -0.01535298
v -0.00071981 -0.02393312 0.01823307
v -0.00646326 0.02733555 0.01338556
v -0.00114778 0.01466055 -0.01762182
v 0.00060606 -0.02795706 0.00819844
v -0.01143726 0.00903603 -0.01360552
v 0.00019902 -0.02401402 0.01825252
v -0.00345523 0.02700833 -0.01349766
v -0.00750802 0.00892005 0.01527200
v -0.00307296 0.02023458 -0.01758895
v -0.00578300 -0.02333710 0.00282305
v -0.00918270 0.00896645 -0.01541734
v -0.00579951 -0.02023670 -0.01189843
v -0.00652030 0.02744963 -0.01699874
v 0.00024717 -0.02595350 0.01587756
v 0.00022155 -0.00248057 0.02085593
v -0.00065953 0.02180652 0.01423337
v -0.00621941 0.02167229 0.01654671
v -0.00436499 -0.02271188 0.01359582
v -0.00149086 0.01689733 -0.01748075
v -0.00230204 -0.02664594 0.01010263
v -0.00262814 -0.02526793 -0.01106653
v -0.00579741 0.01251166 -0.01746914
v -0.00253249 -0.02034378 -0.01501506
v -0.00582615 -0.02233379 -0.00995746
v -0.00465581 0.02721976 -0.01541521
v -0.00559841 0.02512565 -0.01741918
v -0.00166922 -0.00236076 0.02051662
v -0.00359439 0.02676355 0.00998229
v -0.00056026 0.02092860 0.01508421
v -0.00095266 0.02436411 -0.00701964
v -0.00657996 0.02490009 0.01552943
v -0.00955314 0.00904589 0.01230507
v -0.00576238 -0.01943696 0.01135465
v -0.00017280 -0.02775249 0.01119482
v -0.00353514 -0.02557479 0.01005919
v -0.00140487 -0.02671571 0.01339467
v 0.00052306 -0.02691805 -0.01011468
v -0.00365450 -0.02547837 -0.00413752
v -0.00029008 -0.02314422 -0.01510737
v -0.00047429 -0.01943454 -0.01618603
v -0.00472531 -0.02324170 -0.01107247
v -0.00098313 0.02341251 -0.01438886
v -0.00107528 0.02233491 -0.01535380
v -0.00118576 0.00469119 0.01999225
v -0.00565051 0.02694006 0.01314380
v -0.00263462 0.02602700 0.00764616
v -0.00390873 0.02136395 0.01602004
v -0.00564358 -0.02153511 0.00894814
v 0.00046793 -0.02792243 0.01126226
v -0.00447823 -0.02364045 0.01125928
v -0.00068873 -0.02650779 0.01458388
v -0.00323921 -0.02497304 0.01349551
v 0.00041132 -0.02586489 -0.01214044
v -0.00554875 -0.02365314 -0.00267974
v -0.00273243 -0.02654562 0.00810169
v -0.00044071 -0.02660101 -0.01011098
v -0.00151518 -0.02541345 -0.01177984
vn 0.63162304 0.14041142 0.76245457
vn 0.60760418 -0.71404866 0.34778106
vn 0.53539272 -0.13779597 -0.83328681
vn -0.29661625 0.26852314 -0.91646829
vn -0.98902797 0.02061289 0.14628323
vn 0.84812075 0.19352628 -0.49319243
vn 0.51220964 -0.49096312 -0.70469603
vn -0.41823992 -0.42816859 0.80109115
vn -0.35916330 0.83209732 0.42262960
vn 0.52248247 0.01513771 -0.85251564
vn 0.55580190 -0.83105752 -0.02067961
vn -0.92221396 -0.00786829 -0.38659992
vn 0.58269898 -0.39388649 0.71085535
vn 0.54635644 0.82672044 -0.13426825
vn -0.76665562 -0.03370678 0.64117315
vn 0.34738700 0.16723995 -0.92268796
vn -0.90009282 -0.43461437 0.03071273
vn -0.54831376 -0.08950622 -0.83146897
vn -0.82115836 -0.27145742 -0.50200580
vn -0.31317288 0.75862846 -0.57131918
vn 0.33811695 -0.75653095 0.55976589
vn 0.58817073 -0.01992966 0.80849119
vn 0.84197337 0.45426941 0.29106727
vn -0.40401025 0.21220791 0.88979971
vn -0.87107564 -0.28066118 0.40305896
vn 0.45374435 0.13442020 -0.88093545
vn -0.57550902 -0.81063162 0.10800811
vn -0.55056473 -0.75341899 -0.35949729
vn -0.26431722 -0.05497919 -0.96286743
vn -0.55159085 -0.27669093 -0.78688605
vn -0.87978830 -0.43709236 -0.18687649
vn 0.46120003 0.81613394 -0.34816652
vn 0.49920754 0.31765757 -0.80615476
vn -0.47790282 -0.04474462 0.87727237
vn 0.53583203 0.83271634 0.13952613
vn 0.78353428 0.32978591 0.52660733
vn 0.91128013 0.41172147 -0.00734569
vn -0.41393478 0.49875196 0.76151460
vn -0.90202747 -0.02209078 0.43111302
vn -0.95425060 -0.18040991 0.23844928
vn -0.35813400 -0.92624341 0.11752951
vn -0.76378561 -0.63385118 0.12191893
vn -0.49351774 -0.81437429 0.30534365
vn 0.51235573 -0.83305360 -0.20859845
vn -0.58463541 -0.80872903 -0.06448866
vn -0.43486358 -0.48154792 -0.76092395
vn -0.39195093 -0.18129314 -0.90194638
vn -0.69609926 -0.58365293 -0.41808501
vn 0.87847675 0.39116792 -0.27434698
vn 0.70513192 0.39703329 -0.58749769
vn -0.24186651 0.09676852 0.96547214
vn 0.52445680 0.72504191 0.44638469
vn 0.76545293 0.64177498 0.04697541
vn 0.28657742 0.33909950 0.89603845
vn -0.95619225 -0.26581730 0.12262765
vn 0.53164355 -0.83251779 0.15578595
vn -0.89140782 -0.42291682 0.16289097
vn -0.37224916 -0.81577163 0.44265925
vn -0.74969600 -0.56935835 0.33732326
vn 0.25458259 -0.82291229 -0.50794002
vn -0.84272447 -0.53741193 -0.03168416
vn -0.57891193 -0.81535213 0.00786696
vn -0.36082913 -0.90467530 -0.22663833
vn -0.37930138 -0.76556796 -0.51965004
f 7//7 6//6 1//1
f 7//7 3//3 6//6
f 10//10 6//6 3//3
f 10//10 3//3 4//4
f 11//11 7//7 1//1
f 11//11 1//1 2//2
f 12//12 5//5 9//9
f 13//13 2//2 1//1
f 16//16 10//10 4//4
f 17//17 5//5 12//12
f 18//18 12//12 4//4
f 20//20 12//12 9//9
f 20//20 4//4 12//12
f 21//21 13//13 8//8
f 21//21 2//2 13//13
f 22//22 13//13 1//1
f 22//22 8//8 13//13
f 25//25 8//8 15//15
f 26//26 16//16 6//6
f 26//26 6//6 10//10
f 26//26 10//10 16//16
f 29//29 18//18 4//4
f 29//29 4//4 3//3
f 30//30 19//19 12//12
f 30//30 12//12 18//18
f 31//31 17//17 12//12
f 31//31 12//12 19//19
f 32//32 20//20 9//9
f 32//32 9//9 14//14
f 33//33 20//20 6//6
f 33//33 4//4 20//20
f 33//33 16//16 4//4
f 33//33 6//6 16//16
f 34//34 15//15 8//8
f 34//34 8//8 22//22
f 34//34 24//24 15//15
f 35//35 14//14 9//9
f 36//36 1//1 6//6
f 37//37 36//36 6//6
f 37//37 23//23 36//36
f 38//38 9//9 5//5
f 38//38 36//36 9//9
f 38//38 24//24 1//1
f 39//39 25//25 15//15
f 39//39 38//38 5//5
f 39//39 15//15 24//24
f 39//39 24//24 38//38
f 40//40 39//39 5//5
f 40//40 25//25 39//39
f 43//43 42//42 27//27
f 43//43 27//27 41//41
f 44//44 7//7 11//11
f 46//46 3//3 7//7
f 47//47 29//29 3//3
f 47//47 46//46 30//30
f 47//47 3//3 46//46
f 47//47 30//30 18//18
f 47//47 18//18 29//29
f 48//48 31//31 19//19
f 48//48 45//45 31//31
f 48//48 28//28 45//45
f 48//48 46//46 28//28
f 48//48 19//19 30//30
f 48//48 30//30 46//46
f 49//49 32//32 14//14
f 49//49 37//37 6//6
f 49//49 14//14 37//37
f 50//50 6//6 20//20
f 50//50 20//20 32//32
f 50//50 49//49 6//6
f 50//50 32//32 49//49
f 51//51 34//34 22//22
f 51//51 22//22 1//1
f 51//51 1//1 24//24
f 51//51 24//24 34//34
f 52//52 35//35 9//9
f 52//52 23//23 35//35
f 52//52 36//36 23//23
f 52//52 9//9 36//36
f 53//53 35//35 23//23
f 53//53 23//23 37//37
f 53//53 37//37 14//14
f 53//53 14//14 35//35
f 54//54 38//38 1//1
f 54//54 1//1 36//36
f 54//54 36//36 38//38
f 55//55 40//40 5//5
f 55//55 5//5 17//17
f 55//55 25//25 40//40
f 56//56 41//41 11//11
f 56//56 11//11 2//2
f 56//56 43//43 41//41
f 57//57 17//17 42//42
f 57//57 55//55 17//17
f 57//57 25//25 55//55
f 58//58 21//21 8//8
f 58//58 8//8 43//43
f 58//58 2//2 21//21
f 58//58 56//56 2//2
f 58//58 43//43 56//56
f 59//59 43//43 8//8
f 59//59 8//8 25//25
f 59//59 42//42 43//43
f 59//59 57//57 42//42
f 59//59 25//25 57//57
f 60//60 7//7 44//44
f 61//61 17//17 31//31
f 61//61 31//31 45//45
f 62//62 27//27 42//42
f 62//62 61//61 45//45
f 62//62 42//42 17//17
f 62//62 17//17 61//61
f 62//62 41//41 27//27
f 62//62 11//11 41//41
f 63//63 45//45 28//28
f 63//63 62//62 45//45
f 63//63 44//44 11//11
f 63//63 11//11 62//62
f 64//64 46//46 7//7
f 64//64 28//28 46//46
f 64//64 7//7 60//60
f 64//64 63//63 28//28
f 64//64 60//60 44//44
f 64//64 44//44 63//63

