# https://github.com/mikedh/trimesh
v 0.01399107 -0.00152415 0.01277126
v 0.01956083 0.00385705 0.00106692
v 0.00266729 0.00366044 0.00100119
v 0.00270949 0.00370280 -0.01817703
v 0.00810377 -0.02909675 -0.01217624
v 0.01756587 0.00444457 -0.01422915
v 0.01093653 -0.02494121 0.01045982
v 0.00281808 -0.02994859 0.01175863
v 0.01889983 0.00433814 -0.00490842
v 0.00411381 0.00384075 -0.01838227
v 0.01357886 -0.02258651 -0.00984831
v 0.01524174 -0.00092258 0.01133575
v 0.00266729 -0.00731031 0.01197194
v 0.00325010 -0.02594297 -0.01616523
v 0.00773265 -0.03048989 0.00653726
v 0.00743147 -0.02937307 0.01193069
v 0.01328185 -0.02397182 -0.00206874
v 0.00930862 -0.02474694 -0.01908658
v 0.01092245 -0.02408237 0.01149695
v 0.00292428 -0.02902672 -0.01165598
v 0.00980112 -0.02824277 0.00680309
v 0.00481119 -0.03026335 0.01167551
v 0.01334792 -0.02373709 -0.00738369
v 0.01105275 -0.02696791 -0.01338917
v 0.01218114 -0.02494468 -0.01348827
v 0.01166892 -0.00773886 -0.01960727
v 0.00319646 -0.02402183 -0.01711831
v 0.01210647 -0.01797509 0.01136606
v 0.00852830 -0.02816895 0.01171520
v 0.00743367 -0.02904499 -0.01303038
v 0.01226527 -0.02737543 -0.00288788
v 0.00600018 -0.03027055 0.01043432
v 0.00298224 -0.03035000 0.01045001
v 0.00971624 -0.02380627 -0.01903172
v 0.01108870 -0.02597113 -0.01537167
v 0.01216483 -0.02707838 -0.00715424
v 0.01430120 0.00418049 -0.01769185
v 0.00926579 -0.01700319 -0.01973161
v 0.00979406 -0.02706512 0.01018761
v 0.01011457 -0.02717739 -0.01547439
v 0.00445805 -0.02652041 -0.01626628
v 0.01025725 -0.02921779 -0.00717594
v 0.00436000 -0.03012794 0.00368812
v 0.00438268 -0.03029718 0.01157243
v 0.01130220 -0.00932021 -0.01983933
v 0.00992245 0.00377926 -0.01850701
v 0.00820212 -0.01683057 -0.01950030
v 0.00930817 -0.02694070 -0.01641395
v 0.00657041 -0.02894069 -0.01295154
v 0.00324863 -0.02771413 -0.01381135
v 0.01038779 -0.02898575 -0.00185977
v 0.00313590 -0.03014486 0.00612336
v 0.00965419 -0.00910752 -0.01962587
v 0.00557587 -0.02178441 -0.01826486
vn 0.27053800 0.42228036 0.86515229
vn 0.76402859 0.60346923 0.22822183
vn -0.67312045 0.70496271 0.22346461
vn -0.64497658 0.55454874 -0.52581452
vn 0.24332690 -0.95396039 -0.17536130
vn 0.71847142 0.61491594 -0.32508030
vn 0.89235478 -0.37519993 0.25085447
vn -0.64034982 -0.44669193 0.62483472
vn 0.74711194 0.66126964 -0.06742552
vn -0.11552856 0.71582490 -0.68865656
vn 0.95987291 -0.24864196 -0.12969648
vn 0.67967734 0.44464451 0.58337808
vn -0.70604132 0.19256722 0.68148626
vn -0.73127593 -0.42041578 -0.53710901
vn 0.36511168 -0.92852680 0.06731600
vn 0.37917870 -0.56251265 0.73471289
vn 0.96080507 -0.26496832 0.08151934
vn 0.24701950 -0.44080007 -0.86294650
vn 0.70452967 -0.22784556 0.67210441
vn -0.68859315 -0.69631782 -0.20243755
vn 0.78530427 -0.59662156 0.16534787
vn 0.07149423 -0.77370811 0.62949530
vn 0.95936373 -0.28050494 -0.03063038
vn 0.75135698 -0.62784146 -0.20316936
vn 0.90786596 -0.32001036 -0.27087408
vn 0.47848608 0.01979890 -0.87787190
vn -0.76321848 -0.18176001 -0.62004907
vn 0.91026229 -0.16813917 0.37835406
vn 0.64329271 -0.43674163 0.62883323
vn 0.05484549 -0.93980311 -0.33728637
vn 0.84517856 -0.53246107 0.04645874
vn 0.22495590 -0.95787724 0.17851058
vn -0.56786455 -0.82169634 0.04842499
vn 0.65752668 -0.17473590 -0.73288883
vn 0.82418619 -0.40699094 -0.39379626
vn 0.85355974 -0.51286095 -0.09170290
vn 0.37900180 0.63960558 -0.66877675
vn 0.00085096 -0.05732625 -0.99835514
vn 0.81778133 -0.52253725 0.24122297
vn 0.53302273 -0.74603558 -0.39914619
vn -0.25330732 -0.69563669 -0.67225367
vn 0.46852289 -0.87854856 -0.09294473
vn -0.07852421 -0.99508492 -0.06033202
vn -0.05396275 -0.93370437 0.35395504
vn 0.38688505 -0.03827959 -0.92133307
vn 0.04324444 0.54951924 -0.83436115
vn -0.27996189 -0.03828085 -0.95924758
vn 0.18423503 -0.79803438 -0.57375829
vn -0.15162221 -0.85401683 -0.49766048
vn -0.45405446 -0.72731537 -0.51463279
vn 0.61715136 -0.78563852 0.04354669
vn -0.19916481 -0.97846299 -0.05425446
vn -0.14190145 0.02822488 -0.98947831
vn -0.34256770 -0.08257061 -0.93585761
f 1//1 2//2 3//3
f 9//9 6//6 3//3
f 9//9 3//3 2//2
f 10//10 4//4 3//3
f 10//10 3//3 6//6
f 11//11 9//9 2//2
f 11//11 6//6 9//9
f 12//12 2//2 1//1
f 13//13 3//3 4//4
f 13//13 4//4 8//8
f 13//13 8//8 1//1
f 13//13 1//1 3//3
f 16//16 1//1 8//8
f 17//17 2//2 7//7
f 19//19 7//7 2//2
f 19//19 12//12 1//1
f 19//19 1//1 16//16
f 20//20 8//8 4//4
f 21//21 16//16 15//15
f 22//22 16//16 8//8
f 23//23 11//11 2//2
f 23//23 2//2 17//17
f 25//25 6//6 11//11
f 27//27 18//18 14//14
f 27//27 20//20 4//4
f 27//27 14//14 20//20
f 28//28 19//19 2//2
f 28//28 2//2 12//12
f 28//28 12//12 19//19
f 29//29 19//19 16//16
f 29//29 7//7 19//19
f 29//29 16//16 21//21
f 30//30 5//5 15//15
f 30//30 15//15 20//20
f 31//31 17//17 7//7
f 31//31 21//21 15//15
f 31//31 23//23 17//17
f 32//32 22//22 15//15
f 32//32 15//15 16//16
f 32//32 16//16 22//22
f 33//33 8//8 20//20
f 35//35 25//25 24//24
f 35//35 18//18 34//34
f 35//35 34//34 6//6
f 35//35 6//6 25//25
f 36//36 25//25 11//11
f 36//36 11//11 23//23
f 36//36 23//23 31//31
f 36//36 24//24 25//25
f 37//37 10//10 6//6
f 37//37 6//6 26//26
f 39//39 29//29 21//21
f 39//39 7//7 29//29
f 39//39 31//31 7//7
f 39//39 21//21 31//31
f 40//40 5//5 30//30
f 40//40 35//35 24//24
f 40//40 18//18 35//35
f 41//41 14//14 18//18
f 42//42 15//15 5//5
f 42//42 36//36 31//31
f 42//42 24//24 36//36
f 42//42 40//40 24//24
f 42//42 5//5 40//40
f 43//43 20//20 15//15
f 43//43 15//15 33//33
f 44//44 33//33 15//15
f 44//44 15//15 22//22
f 44//44 22//22 8//8
f 44//44 8//8 33//33
f 45//45 26//26 6//6
f 45//45 6//6 34//34
f 45//45 34//34 18//18
f 45//45 18//18 38//38
f 46//46 37//37 26//26
f 46//46 10//10 37//37
f 46//46 45//45 10//10
f 46//46 26//26 45//45
f 47//47 4//4 38//38
f 47//47 38//38 18//18
f 48//48 40//40 30//30
f 48//48 18//18 40//40
f 48//48 41//41 18//18
f 48//48 30//30 41//41
f 49//49 41//41 30//30
f 49//49 30//30 20//20
f 49//49 20//20 41//41
f 50//50 41//41 20//20
f 50//50 20//20 14//14
f 50//50 14//14 41//41
f 51//51 42//42 31//31
f 51//51 31//31 15//15
f 51//51 15//15 42//42
f 52//52 43//43 33//33
f 52//52 33//33 20//20
f 52//52 20//20 43//43
f 53//53 45//45 38//38
f 53//53 38//38 4//4
f 53//53 4//4 10//10
f 53//53 10//10 45//45
f 54//54 27//27 4//4
f 54//54 4//4 47//47
f 54//54 47//47 18//18
f 54//54 18//18 27//27

