# https://github.com/mikedh/trimesh
v 0.00110419 0.01807963 0.02168626
v 0.00328280 0.02529219 0.01403458
v -0.02927062 0.02324133 0.00954336
v -0.02133806 0.02356216 -0.02124483
v -0.00616831 0.01079326 -0.02099331
v -0.01499207 0.02312425 0.02022946
v 0.00112583 0.01815230 0.01431612
v -0.00650592 0.02268875 -0.02305950
v -0.00557395 0.01074018 0.02117069
v -0.03075817 0.02139182 -0.01555679
v 0.00079894 0.02194702 0.02037769
v -0.01788296 0.02331255 0.01914553
v -0.00914829 0.01710118 -0.02197790
v -0.01540275 0.02339547 -0.02226287
v -0.00634502 0.01696479 -0.02230439
v -0.03089751 0.02294440 -0.01908616
v -0.03109095 0.02048574 0.00241404
v -0.01405979 0.01183101 -0.01689237
v -0.01058037 0.01142907 0.01618749
v -0.03103131 0.02258793 -0.01845514
v -0.01118784 0.01129482 -0.01903144
v -0.00666529 0.01085051 0.02020662
v -0.01389937 0.01181837 0.00517397
v -0.01234593 0.01158402 0.01223150
vn 0.65700861 -0.21306245 0.72314873
vn 0.77302100 0.62402540 0.11415268
vn -0.78597238 0.36702456 0.49753432
vn -0.17973218 0.60859821 -0.77285481
vn 0.42830547 -0.67594944 -0.59970558
vn -0.20261089 0.52106802 0.82911817
vn 0.87723122 -0.47807060 -0.04374800
vn 0.47197943 0.49790780 -0.72754604
vn 0.14116679 -0.75020013 0.64596571
vn -0.75662494 -0.64257530 -0.12089532
vn 0.42777411 0.54336328 0.72233349
vn -0.49588910 0.47111004 0.72948566
vn -0.14840995 -0.20324197 -0.96781568
vn -0.08927967 0.60582414 -0.79057337
vn 0.55706705 -0.13039800 -0.82016624
vn -0.68931251 0.33067401 -0.64459520
vn -0.93751888 -0.32351275 0.12805412
vn -0.37811322 -0.90866763 -0.17706927
vn -0.42351113 -0.86579505 0.26652814
vn -0.92285406 -0.28732874 -0.25648114
vn -0.28137096 -0.87701745 -0.38944932
vn -0.38897997 -0.86116077 0.32725635
vn -0.32287268 -0.94613304 0.02419722
vn -0.33241322 -0.93895068 0.08873028
f 3//3 2//2 4//4
f 7//7 5//5 2//2
f 7//7 2//2 1//1
f 9//9 1//1 6//6
f 9//9 7//7 1//1
f 9//9 5//5 7//7
f 11//11 6//6 1//1
f 11//11 1//1 2//2
f 11//11 2//2 6//6
f 12//12 6//6 2//2
f 12//12 2//2 3//3
f 12//12 9//9 6//6
f 12//12 3//3 9//9
f 13//13 5//5 4//4
f 14//14 4//4 2//2
f 14//14 2//2 8//8
f 14//14 13//13 4//4
f 15//15 8//8 2//2
f 15//15 2//2 5//5
f 15//15 5//5 13//13
f 15//15 14//14 8//8
f 15//15 13//13 14//14
f 16//16 3//3 4//4
f 16//16 4//4 5//5
f 17//17 3//3 16//16
f 18//18 17//17 10//10
f 19//19 3//3 17//17
f 20//20 17//17 16//16
f 20//20 10//10 17//17
f 20//20 18//18 10//10
f 21//21 16//16 5//5
f 21//21 5//5 9//9
f 21//21 20//20 16//16
f 21//21 18//18 20//20
f 22//22 9//9 3//3
f 22//22 3//3 19//19
f 22//22 21//21 9//9
f 23//23 17//17 18//18
f 23//23 18//18 21//21
f 24//24 19//19 17//17
f 24//24 17//17 23//23
f 24//24 22//22 19//19
f 24//24 23//23 21//21
f 24//24 21//21 22//22

