# https://github.com/mikedh/trimesh
v -0.06205062 0.00429757 0.01880230
v -0.05473063 -0.04218155 0.01226411
v -0.05536701 0.00516067 -0.01254237
v -0.06656127 0.00442659 -0.01876565
v -0.07390179 -0.03060346 0.01127165
v -0.05837467 -0.04502945 -0.01550930
v -0.07303065 0.00437725 -0.01311703
v -0.05439346 0.00518210 0.01003166
v -0.06604053 -0.03780614 0.02221612
v -0.05606353 -0.04068519 -0.01334137
v -0.05808629 0.00504735 -0.01788788
v -0.07260301 -0.00194620 0.01454367
v -0.07258749 -0.03515635 -0.01438960
v -0.05767387 0.00491262 0.01678274
v -0.05464011 0.00479715 0.00146166
v -0.06629943 -0.04646983 0.01238629
v -0.05490842 -0.04261865 0.00695966
v -0.06135276 -0.03343614 -0.01880036
v -0.05706855 -0.04052137 -0.01534423
v -0.06937379 0.00460484 -0.01646706
v -0.07524146 -0.00547653 -0.00929306
v -0.07030833 0.00410177 0.01458021
v -0.06810640 -0.00074188 0.01889596
v -0.07269525 -0.03057413 0.01537872
v -0.05464370 -0.04103214 0.01219613
v -0.06130828 -0.03914903 0.02238578
v -0.06751612 -0.04515026 -0.01116104
v -0.07138592 -0.04119377 0.01139628
v -0.05720394 -0.04614203 -0.01233683
v -0.06000167 0.00444953 -0.01886815
v -0.06825479 -0.03645313 -0.01762397
v -0.05712021 -0.04383387 -0.01427892
v -0.05986177 -0.04135683 -0.01739368
v -0.05674411 0.00519903 -0.01590564
v -0.07397847 -0.01342175 -0.01535665
v -0.07389286 0.00302867 -0.01055763
v -0.07386933 -0.00903844 0.01254043
v -0.07509591 -0.02703946 -0.01205717
v -0.07142522 0.00415085 0.00773759
v -0.06606079 0.00420445 0.01899242
v -0.07051538 -0.01406523 0.01871464
v -0.07142028 0.00013743 0.01571120
v -0.05960200 -0.03619825 0.02037190
v -0.05912972 -0.04569392 0.01655601
v -0.06201861 -0.03501361 0.02278007
v -0.07016643 -0.04336550 0.01145489
v -0.07140253 -0.04080925 -0.01145023
v -0.07130371 -0.03874024 0.01443075
v -0.05622948 -0.04361954 -0.01225001
v -0.05875124 -0.04769262 -0.01256208
v -0.05730370 -0.04701742 0.00059343
v -0.06411959 -0.03325887 -0.01880404
v -0.06242950 -0.04323243 -0.01642965
v -0.05612365 -0.04155628 -0.01336333
v -0.05799594 -0.04692715 -0.01325210
v -0.05915284 -0.04386728 -0.01643824
v -0.07408208 -0.00923897 -0.01514319
v -0.07048279 -0.03607135 -0.01630863
v -0.06993296 -0.01720242 -0.01758185
v -0.07379279 -0.00417943 0.00884202
v -0.07512872 -0.01389654 -0.00565621
v -0.07377759 -0.02338824 0.01343788
v -0.07394616 -0.03300726 -0.00435726
v -0.07399198 -0.02454201 -0.01413172
vn 0.15238890 0.60061367 0.78488269
vn 0.90491267 -0.33572719 0.26157277
vn 0.73826727 0.65493283 -0.16132089
vn -0.24664681 0.59604977 -0.76412697
vn -0.98057342 -0.12737700 0.14916726
vn 0.39665589 -0.55210807 -0.73337629
vn -0.64954194 0.68894696 -0.32163233
vn 0.71602493 0.67924754 0.16103129
vn -0.44975965 -0.31725339 0.83490511
vn 0.96532653 -0.03615496 -0.25852952
vn 0.46153436 0.64876404 -0.60505475
vn -0.91073021 0.18316874 0.37016173
vn -0.84978460 -0.24943522 -0.46437938
vn 0.50745406 0.67137552 0.54013450
vn 0.98802367 0.14845880 -0.04206200
vn -0.36576287 -0.88589587 0.28531741
vn 0.96564339 -0.25875359 -0.02407124
vn 0.28392184 -0.06997739 -0.95629052
vn 0.76604300 -0.07918715 -0.63789303
vn -0.44650494 0.74267537 -0.49906576
vn -0.99290260 0.08719419 -0.08088018
vn -0.58653844 0.75916295 0.28221315
vn -0.47481812 0.13481016 0.86969763
vn -0.87163298 -0.10413777 0.47896897
vn 0.96760172 -0.02978249 0.25071880
vn 0.31975034 -0.36664356 0.87368885
vn -0.52385612 -0.78799765 -0.32347251
vn -0.90735148 -0.38472382 0.16941332
vn 0.85121144 -0.49308992 -0.17972596
vn 0.15964100 0.43365761 -0.88682345
vn -0.38103304 -0.28291142 -0.88021301
vn 0.83852671 -0.27071082 -0.47285157
vn 0.25861485 -0.20593346 -0.94377422
vn 0.62096416 0.69867098 -0.35533416
vn -0.75099505 -0.00228144 -0.66030389
vn -0.93395867 0.35368974 -0.05123257
vn -0.96319744 0.04043122 0.26573672
vn -0.96230228 -0.10782264 -0.24969702
vn -0.61216197 0.78643352 0.08234099
vn -0.24067728 0.66832375 0.70385923
vn -0.66731363 0.04137086 0.74362691
vn -0.79024818 0.25987068 0.55495500
vn 0.80614040 -0.01513281 0.59153078
vn 0.34602917 -0.77368633 0.53072900
vn 0.25208934 0.03043653 0.96722520
vn -0.74448446 -0.62518412 0.23428127
vn -0.80760962 -0.50786341 -0.29973564
vn -0.84448665 -0.32968158 0.42208098
vn 0.95189908 -0.24587156 -0.18285329
vn 0.16073610 -0.94043622 -0.29957240
vn 0.52705685 -0.84924894 0.03142140
vn -0.11440395 -0.08629297 -0.98967937
vn -0.26514274 -0.54657311 -0.79432812
vn 0.94820877 -0.12147140 -0.29350441
vn 0.58187256 -0.68753860 -0.43441340
vn 0.25417488 -0.42196111 -0.87025511
vn -0.80416341 0.05380057 -0.59196850
vn -0.60386074 -0.29690840 -0.73972807
vn -0.38517708 -0.01919252 -0.92264308
vn -0.98170182 0.16186513 0.10030563
vn -0.99906747 -0.00442796 0.04294857
vn -0.95403482 -0.00191660 0.29968966
vn -0.97261726 -0.23240711 -0.00161523
vn -0.78535721 -0.07160401 -0.61488773
f 14//14 8//8 7//7
f 15//15 3//3 8//8
f 17//17 10//10 3//3
f 17//17 3//3 15//15
f 20//20 11//11 4//4
f 20//20 7//7 8//8
f 25//25 8//8 14//14
f 25//25 15//15 8//8
f 25//25 17//17 15//15
f 25//25 2//2 17//17
f 30//30 4//4 11//11
f 30//30 11//11 18//18
f 32//32 6//6 19//19
f 33//33 18//18 11//11
f 33//33 11//11 19//19
f 34//34 19//19 11//11
f 34//34 3//3 10//10
f 34//34 10//10 19//19
f 34//34 11//11 20//20
f 34//34 20//20 8//8
f 34//34 8//8 3//3
f 39//39 22//22 14//14
f 39//39 14//14 7//7
f 39//39 7//7 36//36
f 39//39 36//36 12//12
f 39//39 12//12 22//22
f 40//40 1//1 14//14
f 40//40 14//14 22//22
f 40//40 23//23 9//9
f 41//41 9//9 23//23
f 41//41 24//24 9//9
f 42//42 22//22 12//12
f 42//42 41//41 23//23
f 42//42 12//12 41//41
f 42//42 40//40 22//22
f 42//42 23//23 40//40
f 43//43 25//25 14//14
f 43//43 14//14 26//26
f 43//43 26//26 2//2
f 43//43 2//2 25//25
f 44//44 2//2 26//26
f 44//44 26//26 9//9
f 44//44 9//9 16//16
f 45//45 26//26 14//14
f 45//45 14//14 1//1
f 45//45 1//1 40//40
f 45//45 40//40 9//9
f 45//45 9//9 26//26
f 46//46 27//27 16//16
f 46//46 16//16 9//9
f 47//47 46//46 28//28
f 47//47 27//27 46//46
f 47//47 38//38 13//13
f 48//48 24//24 5//5
f 48//48 5//5 28//28
f 48//48 9//9 24//24
f 48//48 46//46 9//9
f 48//48 28//28 46//46
f 49//49 17//17 29//29
f 49//49 29//29 32//32
f 50//50 16//16 27//27
f 51//51 29//29 17//17
f 51//51 17//17 2//2
f 51//51 2//2 44//44
f 51//51 44//44 16//16
f 51//51 16//16 50//50
f 52//52 30//30 18//18
f 52//52 4//4 30//30
f 52//52 33//33 31//31
f 52//52 18//18 33//33
f 53//53 50//50 27//27
f 53//53 6//6 50//50
f 53//53 31//31 33//33
f 54//54 32//32 19//19
f 54//54 19//19 10//10
f 54//54 49//49 32//32
f 54//54 10//10 17//17
f 54//54 17//17 49//49
f 55//55 32//32 29//29
f 55//55 6//6 32//32
f 55//55 50//50 6//6
f 55//55 51//51 50//50
f 55//55 29//29 51//51
f 56//56 33//33 19//19
f 56//56 19//19 6//6
f 56//56 53//53 33//33
f 56//56 6//6 53//53
f 57//57 7//7 20//20
f 57//57 20//20 4//4
f 57//57 4//4 35//35
f 57//57 36//36 7//7
f 57//57 21//21 36//36
f 57//57 38//38 21//21
f 57//57 35//35 38//38
f 58//58 35//35 31//31
f 58//58 13//13 35//35
f 58//58 47//47 13//13
f 58//58 27//27 47//47
f 58//58 53//53 27//27
f 58//58 31//31 53//53
f 59//59 35//35 4//4
f 59//59 31//31 35//35
f 59//59 52//52 31//31
f 59//59 4//4 52//52
f 60//60 36//36 21//21
f 60//60 12//12 36//36
f 60//60 37//37 12//12
f 60//60 21//21 37//37
f 61//61 37//37 21//21
f 61//61 38//38 5//5
f 61//61 21//21 38//38
f 62//62 5//5 24//24
f 62//62 24//24 41//41
f 62//62 41//41 12//12
f 62//62 12//12 37//37
f 62//62 61//61 5//5
f 62//62 37//37 61//61
f 63//63 28//28 5//5
f 63//63 5//5 38//38
f 63//63 47//47 28//28
f 63//63 38//38 47//47
f 64//64 38//38 35//35
f 64//64 35//35 13//13
f 64//64 13//13 38//38

