# OBJ generated by ONSHAPE BY PTC INC, 1.217 Units = meters
mtllib Part Studio 4 - Part 1.mtl
g Part 1
v 0 -0.0762 0 
v 0.127 -0.0762 3.46945e-18 
v 0 -0.0762 0.0508 
v 0 0 0.0508 
v 0 0 0 
v 0.127 0 3.46945e-18 
vn 0 -1 0 
vn -1 0 0 
vn 0 0 -1 
vn 0.371391 0 0.928477 
vn 0 1 0 
usemtl 0.615686_0.811765_0.929412_0.000000_0.000000
o mesh0
f 1//1 2//1 3//1 
o mesh1
f 3//2 4//2 5//2 
f 5//2 1//2 3//2 
o mesh2
f 1//3 5//3 6//3 
f 6//3 2//3 1//3 
o mesh3
f 2//4 6//4 4//4 
f 4//4 3//4 2//4 
o mesh4
f 4//5 6//5 5//5 
