# https://github.com/mikedh/trimesh
v -0.00126267 0.05168833 0.02000000
v -0.00098841 0.03803894 0.02000000
v -0.00098841 0.03803894 -0.02000000
v -0.02406626 0.05143162 -0.02000000
v -0.04196234 0.00052816 0.02000000
v -0.00126267 0.05168833 -0.02000000
v -0.02406626 0.05143162 0.02000000
v -0.01557731 0.00087652 -0.02000000
v -0.01557731 0.00087652 0.02000000
v -0.04196234 0.00052816 -0.02000000
f 1 2 3
f 5 2 1
f 6 1 3
f 6 3 4
f 7 5 1
f 7 4 5
f 7 6 4
f 7 1 6
f 8 3 2
f 8 4 3
f 9 8 2
f 9 2 5
f 10 5 4
f 10 4 8
f 10 9 5
f 10 8 9

