# https://github.com/mikedh/trimesh
v -0.01557731 0.00087652 0.02000000
v -0.01302957 -0.01302957 0.02000000
v -0.01302957 -0.01139760 -0.02000000
v -0.04217807 -0.00008548 -0.02000000
v -0.04690498 -0.01353064 0.02000000
v -0.01557731 0.00087652 -0.02000000
v -0.01302957 -0.01139760 0.02000000
v -0.04217807 -0.00008548 0.02000000
v -0.04690498 -0.01353064 -0.02000000
v -0.01302957 -0.01302957 -0.02000000
f 5 2 1
f 6 1 3
f 6 3 4
f 6 4 1
f 7 1 2
f 7 2 3
f 7 3 1
f 8 5 1
f 8 1 4
f 8 4 5
f 9 2 5
f 9 5 4
f 9 4 3
f 10 9 3
f 10 3 2
f 10 2 9

