# https://github.com/mikedh/trimesh
v 0.01861744 0.05109108 0.02000000
v 0.04131483 -0.01322991 0.02000000
v 0.02006543 0.04698770 -0.02000000
v -0.00126267 0.05168833 -0.02000000
v 0.00658192 -0.01139760 0.01235895
v 0.01861744 0.05109108 -0.02000000
v 0.01246537 -0.01302957 0.02000000
v -0.00126267 0.05168833 0.02000000
v 0.04131483 -0.01322991 -0.02000000
v 0.00061939 0.03265517 0.02000000
v 0.00658192 -0.01302957 -0.02000000
v 0.00061939 0.03265517 -0.02000000
f 1 2 3
f 6 1 3
f 6 3 4
f 7 2 1
f 8 6 4
f 8 1 6
f 8 7 1
f 9 3 2
f 9 4 3
f 10 8 4
f 10 5 7
f 10 7 8
f 11 7 5
f 11 4 9
f 11 5 10
f 11 9 2
f 11 2 7
f 12 11 10
f 12 10 4
f 12 4 11

