# https://github.com/mikedh/trimesh
v -0.04833024 -0.04636909 0.02000000
v -0.04833024 -0.06500000 0.02000000
v -0.04833024 -0.06500000 0.00059206
v -0.05798394 -0.04504358 0.00059206
v -0.05617483 -0.06500000 0.02000000
v -0.04833024 -0.04636909 0.00059206
v -0.05617483 -0.04636909 0.02000000
v -0.05617483 -0.06500000 0.00059206
v -0.05819968 -0.04565722 0.01235895
v -0.06065421 -0.05263887 0.00059206
f 1 2 3
f 5 2 1
f 5 3 2
f 6 1 3
f 6 3 4
f 6 4 1
f 7 5 1
f 8 4 3
f 8 3 5
f 9 7 1
f 9 1 4
f 9 5 7
f 10 8 5
f 10 5 9
f 10 9 4
f 10 4 8

