# OBJ generated by ONSHAPE BY PTC INC, 1.201 Units = meters
mtllib smaller_a.mtl
g Part 1
v 0.00412598 0.0212435 0.02 
v 0.00412598 0.0212435 -0.02 
v 0.014247 -0.0113976 -0.02 
v -0.000338542 0.0357726 0.02 
v -0.000338542 0.0357726 -0.02 
v 0.014247 -0.0113976 0.02 
v -0.0193251 -0.0113976 -0.02 
v -0.0193251 -0.0113976 0.02 
v -0.00742735 0.0277277 0.02 
v -0.00742735 0.0277277 -0.02 
v -0.00268012 0.0444054 -0.02 
v -0.0178734 -0.00668825 0.02 
v -0.0178734 -0.00668825 -0.02 
v -0.00268012 0.0444054 0.02 
v -0.00174208 0.0406673 0.02 
v -0.00174208 0.0406673 -0.02 
v -0.0194944 0.0644358 0.02 
v -0.065 -0.065 0.02 
v 0.0595833 -0.065 0.02 
v 0.0207921 -0.0343056 0.02 
v 0.0139084 0.0644358 0.02 
v -0.0262088 -0.0343056 0.02 
v -0.0355469 -0.065 0.02 
v 0.0301302 -0.065 0.02 
v -0.0194944 0.0644358 -0.02 
v 0.0139084 0.0644358 -0.02 
v -0.065 -0.065 -0.02 
v -0.0262088 -0.0343056 -0.02 
v 0.0207921 -0.0343056 -0.02 
v 0.0595833 -0.065 -0.02 
v 0.0301302 -0.065 -0.02 
v -0.0355469 -0.065 -0.02 
vn -0.95537 -0.295411 0 
vn -0.955007 -0.296582 0 
vn -0.958098 -0.286442 0 
vn 0 1 0 
vn 0.958777 -0.28416 0 
vn 0.968409 -0.249365 0 
vn 0.955726 -0.294258 0 
vn 0.95553 -0.294894 0 
vn 0.968409 -0.249365 0 
vn -0.965127 -0.261783 0 
vn -0.958098 -0.286442 0 
vn -0.975982 -0.217853 0 
vn 0 0 1 
vn 0 0 -1 
vn 0 -1 0 
vn 0.956706 -0.291057 0 
vn -0.956706 -0.291057 0 
vn 0 -1 0 
vn 0.943009 0.332766 0 
vn 0 1 0 
vn -0.943396 0.331669 0 
usemtl 0.615686_0.811765_0.929412_0.000000_0.000000
o mesh0
f 1//1 2//1 3//2 
f 4//3 5//3 2//1 
f 2//1 1//1 4//3 
f 3//2 6//2 1//1 
o mesh1
f 6//4 3//4 7//4 
f 7//4 8//4 6//4 
o mesh2
f 9//5 10//5 11//6 
f 12//7 13//7 10//5 
f 8//8 7//8 13//7 
f 13//7 12//7 8//8 
f 10//5 9//5 12//7 
f 11//6 14//9 9//5 
o mesh3
f 15//10 16//10 5//11 
f 14//12 11//12 16//10 
f 16//10 15//10 14//12 
f 5//11 4//11 15//10 
o mesh4
f 17//13 18//13 12//13 
f 12//13 9//13 17//13 
f 19//13 6//13 20//13 
f 20//13 6//13 8//13 
f 21//13 14//13 15//13 
f 18//13 8//13 12//13 
f 8//13 22//13 20//13 
f 18//13 23//13 22//13 
f 21//13 1//13 6//13 
f 15//13 4//13 21//13 
f 9//13 14//13 17//13 
f 22//13 8//13 18//13 
f 4//13 1//13 21//13 
f 20//13 24//13 19//13 
f 14//13 21//13 17//13 
f 6//13 19//13 21//13 
o mesh5
f 25//14 10//14 13//14 
f 26//14 5//14 16//14 
f 27//14 7//14 28//14 
f 29//14 28//14 7//14 
f 25//14 11//14 10//14 
f 26//14 2//14 5//14 
f 26//14 30//14 3//14 
f 7//14 3//14 29//14 
f 30//14 31//14 29//14 
f 13//14 27//14 25//14 
f 3//14 2//14 26//14 
f 29//14 3//14 30//14 
f 25//14 26//14 11//14 
f 28//14 32//14 27//14 
f 16//14 11//14 26//14 
f 13//14 7//14 27//14 
o mesh6
f 18//15 27//15 32//15 
f 32//15 23//15 18//15 
o mesh7
f 23//16 32//16 28//16 
f 28//16 22//16 23//16 
o mesh8
f 22//15 28//15 29//15 
f 29//15 20//15 22//15 
o mesh9
f 20//17 29//17 31//17 
f 31//17 24//17 20//17 
o mesh10
f 24//18 31//18 30//18 
f 30//18 19//18 24//18 
o mesh11
f 19//19 30//19 26//19 
f 26//19 21//19 19//19 
o mesh12
f 21//20 26//20 25//20 
f 25//20 17//20 21//20 
o mesh13
f 17//21 25//21 27//21 
f 27//21 18//21 17//21 
