# https://github.com/mikedh/trimesh
v -0.02479646 -0.03430560 0.02000000
v -0.02671784 -0.03597881 0.02000000
v -0.03554690 -0.06500000 -0.02000000
v -0.05307488 -0.03108027 -0.02000000
v -0.05307488 -0.03108027 0.02000000
v -0.02479646 -0.03430560 -0.02000000
v -0.03554690 -0.06500000 0.02000000
v -0.03264105 -0.03067990 -0.02000000
v -0.06500000 -0.06500000 0.02000000
v -0.03264105 -0.03067990 0.02000000
v -0.06500000 -0.06500000 -0.02000000
f 5 2 1
f 6 1 3
f 6 3 4
f 7 1 2
f 7 3 1
f 7 2 5
f 8 1 6
f 8 6 4
f 8 4 5
f 9 7 5
f 9 5 4
f 9 3 7
f 10 8 5
f 10 5 1
f 10 1 8
f 11 9 4
f 11 4 3
f 11 3 9

