# https://github.com/mikedh/trimesh
v 0.04772220 -0.03138742 0.02000000
v 0.05958330 -0.06500000 0.02000000
v 0.05958330 -0.06500000 -0.02000000
v 0.01638766 -0.03067990 -0.02000000
v 0.01638766 -0.03430560 0.02000000
v 0.04772220 -0.03138742 -0.02000000
v 0.01638766 -0.03067990 0.02000000
v 0.03013020 -0.06500000 -0.02000000
v 0.03013020 -0.06500000 0.02000000
v 0.01638766 -0.03430560 -0.02000000
f 1 2 3
f 5 2 1
f 6 1 3
f 6 3 4
f 7 5 1
f 7 6 4
f 7 1 6
f 8 3 2
f 8 4 3
f 9 8 2
f 9 2 5
f 10 4 8
f 10 7 4
f 10 5 7
f 10 9 5
f 10 8 9

