####
#
# OBJ File Generated by Meshlab
#
####
# Object round_belt_1000.obj
#
# Vertices: 500
# Faces: 1000
#
####
vn -0.1316780 3.1579168 -5.0342135
v -0.0040412 0.0852169 0.0004409
vn -0.0246361 5.2279897 -2.8151848
v 0.0017400 0.0864790 0.0016502
vn 0.1323710 2.8618188 -5.3770089
v 0.0119445 0.0849950 0.0003662
vn 0.5421264 4.3679571 -4.0927229
v 0.0222467 0.0851567 0.0011078
vn 1.0218253 5.2114577 -2.8873007
v 0.0373561 0.0832051 0.0016781
vn 0.6333101 3.0042500 -5.1647301
v 0.0374145 0.0820127 0.0004509
vn 0.1742410 5.9808111 -0.2206436
v 0.0107233 0.0867060 0.0027080
vn 0.3401071 5.1220374 2.8885911
v 0.0142474 0.0861920 0.0042672
vn 0.6569926 5.8331265 1.5484422
v 0.0235946 0.0855935 0.0036193
vn 0.5980332 4.3622618 4.0814004
v 0.0260328 0.0845272 0.0050433
vn 0.8898340 5.7309852 -0.4355077
v 0.0299642 0.0848460 0.0027594
vn 0.9339814 4.9955759 3.1370537
v 0.0385620 0.0828814 0.0045154
vn -1.4240900 -5.1599212 3.2686541
v 0.0435158 0.0770026 0.0050521
vn -1.5476964 -3.8871007 4.2139335
v 0.0628924 0.0711640 0.0053400
vn -0.4953215 -2.5742755 5.5761580
v 0.0391148 0.0788457 0.0057101
vn -0.5024084 -1.3060110 6.0237398
v 0.0634829 0.0721782 0.0058687
vn 0.1840483 -5.8016872 2.2813451
v -0.0064001 0.0810094 0.0042515
vn -0.0028073 -6.2352486 0.1881809
v 0.0030500 0.0809517 0.0031141
vn -0.1454806 -5.1688447 3.2548492
v 0.0080105 0.0812091 0.0044264
vn -0.5831074 -6.1165028 -0.6869181
v 0.0179529 0.0802739 0.0027839
vn 0.1296254 2.3840075 5.5105948
v 0.0081114 0.0847993 0.0057741
vn -0.0054017 4.3111548 4.0841341
v 0.0017579 0.0859986 0.0050819
vn -0.1437653 -2.4505715 -5.6525350
v 0.0146694 0.0824846 0.0001590
vn -0.4343315 -3.6526482 -5.0765872
v 0.0280245 0.0803837 0.0005539
vn -0.3757727 -4.8823938 -3.5860593
v 0.0161281 0.0809784 0.0012135
vn -0.7499190 -5.3856893 2.8926370
v 0.0279055 0.0795645 0.0045120
vn -0.4532876 -3.7429848 5.0223551
v 0.0206087 0.0815701 0.0055844
vn 0.2396868 1.8503445 5.8079157
v 0.0258610 0.0832208 0.0058304
vn 0.5480902 5.8440995 -1.3444819
v 0.0210386 0.0858908 0.0022285
vn -0.0273905 0.4254617 -6.1093416
v 0.0090422 0.0838388 0.0000169
vn -0.1367467 -0.6872447 -6.0841966
v 0.0348835 0.0804146 0.0000637
vn -1.1472770 -5.7979555 -1.9094069
v 0.0375006 0.0777280 0.0018300
vn -1.0731448 -6.1797991 0.2054720
v 0.0327340 0.0784426 0.0027594
vn 0.2110797 0.8131844 6.0692534
v 0.0468247 0.0787121 0.0059211
vn -0.0392714 -0.6938753 6.0617990
v 0.0159533 0.0828335 0.0059604
vn -0.0745936 -3.5859597 5.1059804
v 0.0080506 0.0825831 0.0057108
vn 0.2304052 5.0478473 -3.2913857
v 0.0119807 0.0862454 0.0014695
vn 0.2935618 2.0472376 -5.7216401
v 0.0288158 0.0828863 0.0002089
vn -1.1301256 -5.2166543 -3.3120446
v 0.0422840 0.0769677 0.0013369
vn -1.7055509 -5.8717704 -0.0407203
v 0.0512880 0.0740999 0.0027594
vn -1.6569374 -5.0765471 -3.1387575
v 0.0558405 0.0732353 0.0011531
vn -2.2434578 -5.6053252 0.7933166
v 0.0620664 0.0704100 0.0030705
vn -1.7658648 -5.8751636 1.2489523
v 0.0514202 0.0745423 0.0045444
vn -2.4309685 -5.1667166 -2.3604879
v 0.0722178 0.0663904 0.0015566
vn -2.7301111 -5.2453203 1.4683403
v 0.0758137 0.0642762 0.0040298
vn 0.1764215 0.3946614 -6.0841970
v 0.0737850 0.0681922 0.0000336
vn 0.1420431 0.6200097 -5.9234619
v 0.0511530 0.0774001 0.0000686
vn 1.4128026 3.0885708 -4.8394690
v 0.0690103 0.0725623 0.0006589
vn 1.1600933 3.7993565 -4.3394184
v 0.0543629 0.0782541 0.0008315
vn -1.3630700 -5.8440709 1.4598551
v 0.0421927 0.0765781 0.0036230
vn 1.6399022 2.5646007 -5.1354818
v 0.0884924 0.0618214 0.0004387
vn 0.7146521 0.8838573 -5.8603344
v 0.0940688 0.0567925 0.0000891
vn 1.6771187 3.1450634 -4.6014662
v 0.0786882 0.0678859 0.0006163
vn 1.9830365 4.9680462 -2.4311268
v 0.0662437 0.0747808 0.0017590
vn 1.8244985 5.3852463 -1.0175670
v 0.0586507 0.0778558 0.0023986
vn 1.5659115 5.5968242 -0.8818863
v 0.0506238 0.0803792 0.0028088
vn -0.4139652 -0.6895795 6.0369864
v 0.0823360 0.0632732 0.0059536
vn -1.8392103 -3.3151741 4.7650800
v 0.0813148 0.0625056 0.0054534
vn -1.7410142 -2.1871705 5.1791606
v 0.0959936 0.0526458 0.0055447
vn -3.4432530 -4.6706328 -2.0700145
v 0.0925145 0.0536311 0.0022828
vn -3.8007085 -4.2887974 1.7417150
v 0.0967551 0.0501899 0.0038260
vn -3.2645328 -4.9675670 0.8963234
v 0.0854850 0.0586250 0.0035940
vn -0.7464806 -2.8428943 -5.4117146
v 0.0473515 0.0764412 0.0005704
vn -4.3354869 -2.9752240 3.4240561
v 0.1104693 0.0356341 0.0047440
vn -3.7119646 -3.6707923 3.4875040
v 0.1019899 0.0455162 0.0044496
vn -4.7978272 -3.9606597 -0.0223119
v 0.1061974 0.0403594 0.0033393
vn -3.0065176 -4.4928827 -2.8005846
v 0.0857190 0.0589767 0.0013652
vn 1.1433566 1.2580848 5.5359688
v 0.0985860 0.0534872 0.0058127
vn 0.9422586 0.8344446 5.7646236
v 0.1076779 0.0438124 0.0058670
vn 2.6275687 3.4348917 -4.1461778
v 0.0947538 0.0580903 0.0008876
vn 2.9037213 4.5460253 -2.4891784
v 0.0876149 0.0638281 0.0017761
vn 2.1096714 2.2595642 -5.1482720
v 0.1015853 0.0514639 0.0003793
vn 0.4892560 0.4651231 -6.0765748
v 0.1052633 0.0462922 0.0000542
vn -1.9629300 -2.2103887 -5.1576571
v 0.0963034 0.0523977 0.0004038
vn -1.2699046 -0.8965024 -5.6807423
v 0.1109172 0.0375598 0.0002208
vn -1.9285963 -1.4891366 5.6116524
v 0.1073584 0.0413064 0.0055921
vn 2.4763722 2.0586452 -4.7365289
v 0.1087493 0.0441777 0.0004324
vn 3.0707731 5.2041216 0.2278637
v 0.0855162 0.0654275 0.0032650
vn 2.4981627 5.1044130 -1.1949738
v 0.0756148 0.0708674 0.0026130
vn 2.4592087 4.6043410 2.6929362
v 0.0774705 0.0696568 0.0041834
vn 2.2496006 5.2836556 1.4455247
v 0.0684362 0.0740565 0.0038586
vn 1.7581875 4.8278279 2.9373872
v 0.0629573 0.0758946 0.0045564
vn 1.4974895 5.1250000 2.7342701
v 0.0505205 0.0801232 0.0042308
vn 0.9569426 2.9390779 5.1227694
v 0.0575957 0.0766928 0.0055348
vn -5.0309544 -2.4190385 2.6010768
v 0.1161660 0.0250990 0.0043755
vn -5.4207592 -3.0637627 -0.0178438
v 0.1132491 0.0301772 0.0033393
vn -1.0412337 -2.6337984 -5.5234013
v 0.0636593 0.0715153 0.0002921
vn 2.2484126 1.1596212 -5.1284523
v 0.1177233 0.0302593 0.0002941
vn 3.6983778 3.9268355 -2.1270554
v 0.1027627 0.0520675 0.0017169
vn 3.6355546 4.5194964 -0.7437586
v 0.0961041 0.0582290 0.0026864
vn 0.8027102 3.3565423 4.8942022
v 0.0443963 0.0806896 0.0054569
vn -4.2207274 -4.0699377 -2.1379836
v 0.0995814 0.0479497 0.0016504
vn -2.8865530 -1.1743023 5.2464495
v 0.1188777 0.0213412 0.0055431
vn -0.5411913 -0.4128815 6.0262113
v 0.1147387 0.0324425 0.0059656
vn -2.9369960 -1.6248865 5.2662449
v 0.1143720 0.0308100 0.0054678
vn 1.6134136 3.6231487 4.5087404
v 0.0701422 0.0723120 0.0052655
vn 4.1808295 3.8855081 -0.8414986
v 0.1064837 0.0486315 0.0025050
vn 3.5684381 2.5827582 -3.8687534
v 0.1130489 0.0399583 0.0010838
vn -4.1858106 -3.6019928 -2.6426439
v 0.1064361 0.0405565 0.0016504
vn -1.3976324 -2.4272280 -5.4661498
v 0.0835351 0.0617223 0.0002927
vn 2.5377467 4.1457133 3.3894424
v 0.0857803 0.0648191 0.0045444
vn 3.2768791 4.6431351 1.8321712
v 0.0932263 0.0601889 0.0040021
vn -5.4818192 -1.4879498 2.4845881
v 0.1191006 0.0171495 0.0042700
vn -5.6489773 -2.3186238 -0.8639336
v 0.1170768 0.0223607 0.0024699
vn 0.6244587 1.1928912 5.8808527
v 0.0720943 0.0700166 0.0059011
vn 3.4662437 3.6946201 2.5593545
v 0.1010172 0.0535991 0.0044094
vn 2.3034508 0.7046455 -5.2456679
v 0.1226535 0.0180559 0.0002600
vn -1.5980705 -0.5943320 -5.6945925
v 0.1188760 0.0226274 0.0002064
vn -5.7316165 -0.3903013 2.4080729
v 0.1206922 0.0064330 0.0036747
vn -5.8781471 -1.2135189 -1.1547676
v 0.1194388 0.0144164 0.0024699
vn -4.8373895 -2.6992517 -2.6412189
v 0.1135187 0.0303291 0.0016504
vn 3.5670080 3.0616860 3.1417055
v 0.1094223 0.0447343 0.0046927
vn 4.6941166 3.4332819 -0.3276613
v 0.1138399 0.0400195 0.0026922
vn 4.7828007 2.5749416 -1.3786125
v 0.1188058 0.0319041 0.0023336
vn -1.0535192 -0.1318288 -5.9921417
v 0.1227520 0.0089329 0.0001883
vn 1.1029505 2.0424621 5.5323706
v 0.0821820 0.0650104 0.0058010
vn 2.2852135 3.0540118 4.6109300
v 0.0935493 0.0589526 0.0051737
vn 1.3459252 5.7462907 -0.1123744
v 0.0410973 0.0828061 0.0030000
vn -4.1128240 -0.6747169 -4.6211996
v 0.1208893 0.0119025 0.0008870
vn -5.5692391 0.3895233 -2.1238313
v 0.1208435 -0.0002979 0.0015228
vn -2.9120109 0.5126356 -5.2501369
v 0.1211404 -0.0060824 0.0004853
vn -5.8526788 2.1845961 -0.1578284
v 0.1175724 -0.0147256 0.0030489
vn -4.5480938 -1.4967313 -3.8774405
v 0.1181491 0.0212726 0.0010751
vn 4.0259943 -3.3994789 2.0248680
v 0.1105024 -0.0381849 0.0039705
vn 1.9049716 -1.9339290 5.1837587
v 0.1031092 -0.0440338 0.0056149
vn 3.6886015 -3.9258680 1.9958389
v 0.1039768 -0.0450947 0.0041298
vn 3.5600867 -4.3059788 0.9771100
v 0.0973678 -0.0512342 0.0035060
vn 3.0480030 -4.7677808 0.9162635
v 0.0873720 -0.0583948 0.0034135
vn 3.1993251 -4.3017888 -2.3746650
v 0.0923805 -0.0547032 0.0018121
vn 0.3102827 -0.9158263 -5.9917612
v 0.0604772 -0.0686336 0.0001079
vn 1.2813696 -3.1935635 -4.9408393
v 0.0642152 -0.0685062 0.0005529
vn 1.0041087 -3.5697908 -4.7153497
v 0.0497917 -0.0736659 0.0008320
vn -2.4187193 -0.4123610 5.2852964
v 0.1219077 0.0098876 0.0057066
vn -5.4314451 0.7415135 2.4829102
v 0.1208148 -0.0016308 0.0040784
vn -1.9164431 0.1243350 5.4921732
v 0.1226255 -0.0007467 0.0058322
vn 1.9248843 -0.4891667 5.5882325
v 0.1224298 -0.0109221 0.0058919
vn 1.7805820 -0.8661979 5.4453731
v 0.1186269 -0.0221397 0.0058055
vn 4.5392089 -1.6395732 2.7905293
v 0.1227310 -0.0162675 0.0045732
vn 4.4504323 -2.3691375 2.4248343
v 0.1190301 -0.0253591 0.0042650
vn 4.1385517 -2.7774158 2.7255979
v 0.1150619 -0.0317468 0.0043623
vn 3.8067179 -3.7235432 -2.0480986
v 0.1058506 -0.0432984 0.0018693
vn 3.2404695 -3.6105599 -3.0366795
v 0.1000672 -0.0482873 0.0014129
vn -0.2389547 1.0897713 -5.9483128
v 0.0400845 -0.0734671 0.0000574
vn -0.9686167 2.4968319 -5.3685451
v 0.0627832 -0.0657694 0.0003487
vn -1.4370726 4.8646150 -3.5991855
v 0.0491641 -0.0697094 0.0008596
vn 2.1710584 -0.0170441 5.4944134
v 0.1246425 0.0033292 0.0057156
vn 4.1731863 -0.5066501 4.1437302
v 0.1251933 -0.0050163 0.0049426
vn 4.1225438 -3.1537795 -2.2006106
v 0.1124048 -0.0357080 0.0017951
vn 1.5420542 -1.9772618 -5.3797469
v 0.0925476 -0.0526287 0.0003078
vn 2.1867409 -3.4195666 -4.2734685
v 0.0886266 -0.0564940 0.0008256
vn 1.3140001 -2.4281356 -5.2688785
v 0.0771704 -0.0624253 0.0003788
vn -0.2369887 0.3703374 -5.9978848
v 0.0819689 -0.0577822 0.0000543
vn -1.2981094 5.9254127 -1.1649281
v 0.0358312 -0.0720842 0.0021056
vn -0.6564170 4.6435637 -4.1269493
v 0.0310461 -0.0735499 0.0010159
vn -0.4704042 5.7347612 -1.6083529
v 0.0185127 -0.0743556 0.0024145
vn -0.0670673 5.9793053 -0.5272549
v 0.0053365 -0.0749801 0.0027105
vn -0.1174579 5.8910112 2.1101503
v 0.0059679 -0.0754047 0.0045120
vn 4.8295593 -2.2597702 -1.8968296
v 0.1201520 -0.0231936 0.0021209
vn 4.4232631 -2.6447778 -1.9590228
v 0.1164477 -0.0300971 0.0019620
vn 1.9355550 -1.7881231 -5.2636328
v 0.1056796 -0.0413993 0.0004066
vn -0.7708057 6.0887375 1.3168340
v 0.0229015 -0.0740927 0.0041639
vn -2.2051172 5.0499878 -2.4941993
v 0.0639731 -0.0639933 0.0016245
vn 1.2861297 0.2855203 5.7861605
v 0.1224156 0.0167455 0.0058670
vn -0.8451291 0.9866470 -5.7070980
v 0.0968639 -0.0469302 0.0001209
vn -1.7222229 5.6489058 -0.2853603
v 0.0499253 -0.0685078 0.0028793
vn -0.2778497 4.0868258 4.7024240
v 0.0141825 -0.0755313 0.0051906
vn -1.9008754 3.4187937 -4.6144152
v 0.0803030 -0.0569528 0.0007047
vn -0.9172006 5.4781370 2.4530010
v 0.0328112 -0.0728448 0.0044760
vn 4.3675828 0.3851921 3.7680378
v 0.1258004 0.0071405 0.0048289
vn 5.5720401 -1.0836945 1.0586336
v 0.1256961 -0.0066203 0.0036133
vn 5.2373881 -1.6443198 -1.5472580
v 0.1238898 -0.0136589 0.0020684
vn 2.3136206 -1.5573072 -5.2013297
v 0.1136958 -0.0317269 0.0004722
vn 0.0917764 5.7331033 1.8468516
v -0.0038059 -0.0749969 0.0038631
vn -2.5560377 5.5935369 -0.7855009
v 0.0742139 -0.0591166 0.0024610
vn -1.8902657 5.3734517 1.8102746
v 0.0615222 -0.0647572 0.0039142
vn -1.3835436 4.7096143 3.5824456
v 0.0495304 -0.0693384 0.0048604
vn -2.1919038 0.9518917 5.4221997
v 0.1164842 -0.0216710 0.0056687
vn -4.4051728 2.5540192 3.5698018
v 0.1131207 -0.0261432 0.0050618
vn -1.6597437 1.1156418 -0.5318503
v 0.1099634 -0.0325507 0.0057171
vn 1.9692507 -1.5293676 5.3179331
v 0.1112627 -0.0345287 0.0056717
vn -0.8674267 0.9190694 5.8107147
v 0.1038741 -0.0401457 0.0058547
vn 2.4174330 -5.2958059 -0.4594745
v 0.0727872 -0.0663151 0.0027130
vn 1.9697877 -4.8573256 2.4379795
v 0.0662590 -0.0688020 0.0042657
vn 1.9334950 -5.1256590 -2.0359468
v 0.0629770 -0.0701646 0.0018693
vn 1.0569037 -4.9903293 -2.8217759
v 0.0381090 -0.0771276 0.0016151
vn 0.4457802 -2.1680367 -5.5629406
v 0.0365037 -0.0756440 0.0001600
vn 0.5530320 -4.1054659 -4.1029363
v 0.0279225 -0.0783091 0.0008814
vn 0.0661438 -0.5523908 -5.9986219
v 0.0197408 -0.0773136 0.0000480
vn -1.3645228 0.4668730 5.8630047
v 0.1203341 -0.0131318 0.0059203
vn 0.0367948 0.2730964 6.1546440
v -0.0131330 -0.0770173 0.0059680
vn 0.0131994 1.1320091 6.0899925
v 0.0056721 -0.0772231 0.0058626
vn 0.2207251 3.5722208 4.9610424
v -0.0067080 -0.0761648 0.0055464
vn 1.2898461 5.9323997 0.4874064
v -0.0346884 -0.0708576 0.0031891
vn 0.6348812 5.2707462 3.1562643
v -0.0204327 -0.0740475 0.0047040
vn 0.7684783 6.0949678 0.6485305
v -0.0203550 -0.0734717 0.0029527
vn 0.4763542 5.4903798 -2.6210315
v -0.0085457 -0.0749442 0.0017419
vn -0.2994964 3.1544278 -4.9624438
v 0.0189458 -0.0757597 0.0003874
vn 2.0407040 -4.2844968 -3.7519655
v 0.0745074 -0.0646996 0.0010955
vn 2.6775141 -4.8435559 -1.7980808
v 0.0817267 -0.0615540 0.0020433
vn -0.2054722 -2.3116746 5.6195636
v -0.0107052 -0.0784852 0.0057913
vn -0.1673869 -0.6785161 6.0514798
v -0.0329785 -0.0745797 0.0059520
vn -0.0529499 0.0574933 -5.9884787
v -0.0182077 -0.0765758 0.0000256
vn -0.0557383 -0.7477917 -6.0265856
v -0.0006442 -0.0783690 0.0001102
vn -0.2914125 -2.8563089 -5.3744497
v -0.0150439 -0.0784802 0.0004352
vn 0.8458580 -5.8073163 -0.2818382
v 0.0305878 -0.0787823 0.0028565
vn 1.1712689 -5.6211600 1.2531645
v 0.0381638 -0.0774077 0.0037201
vn 1.7056251 -5.7404814 0.6283981
v 0.0515679 -0.0741885 0.0032426
vn 2.3984578 -4.6158352 2.5833216
v 0.0779820 -0.0633931 0.0042657
vn 0.8543677 -1.9658189 5.3453841
v 0.0700653 -0.0654551 0.0057289
vn 1.8988122 -3.1993809 4.5300288
v 0.0836756 -0.0594348 0.0051554
vn -0.0316117 -0.0706421 5.7203641
v 0.0910647 -0.0524576 0.0059259
vn -0.2525856 0.5725387 5.6893148
v 0.0796763 -0.0590708 0.0059238
vn -4.8943415 2.6269236 2.3903441
v 0.1144957 -0.0223290 0.0040462
vn -4.9371471 1.9203806 -2.7153792
v 0.1161928 -0.0188521 0.0017678
vn 1.2347181 -3.6925955 4.4966483
v 0.0571119 -0.0714586 0.0052314
vn 1.8794267 -5.4519243 1.3287606
v 0.0585370 -0.0719016 0.0038080
vn 1.1984049 -4.7690606 3.3397195
v 0.0466634 -0.0750189 0.0046489
vn 0.5169911 -5.5877309 -2.0746448
v 0.0186908 -0.0800107 0.0018819
vn 0.1544994 -5.3173652 -2.7012196
v 0.0073576 -0.0804948 0.0015192
vn 0.2987651 -3.6390855 -4.7758169
v 0.0163577 -0.0792683 0.0006408
vn -0.0568965 -3.6705070 -4.7606239
v 0.0021648 -0.0797977 0.0006301
vn -0.0730524 5.4794765 -3.0457344
v 0.0047177 -0.0757292 0.0010311
vn 0.4155005 2.4888334 5.5772777
v -0.0257921 -0.0744318 0.0057524
vn 1.4777290 -5.4459715 -2.1432877
v 0.0503410 -0.0743514 0.0019604
vn 0.0739275 -1.9922314 -5.8067627
v 0.0095726 -0.0787848 0.0001895
vn 0.0970759 2.7535501 -5.3795853
v -0.0048096 -0.0763888 0.0003990
vn 0.4464221 3.1962717 -5.2698121
v -0.0199101 -0.0748806 0.0005425
vn 0.5331718 2.7223108 -5.4560585
v -0.0330156 -0.0730188 0.0003019
vn 0.8759273 5.2318368 -3.0397677
v -0.0252439 -0.0730032 0.0016244
vn 1.4014471 5.1610508 -3.1453350
v -0.0394524 -0.0701956 0.0015404
vn 1.6905358 5.0960021 2.9621830
v -0.0484381 -0.0675413 0.0044383
vn 1.1291590 5.0035672 3.3923182
v -0.0348134 -0.0714283 0.0047753
vn -4.5612364 1.0101902 4.1034470
v 0.1197698 -0.0097672 0.0048981
vn -2.8975067 3.2120361 4.2452908
v 0.0967516 -0.0452974 0.0051753
vn -2.6514866 3.7290754 3.4438896
v 0.0878624 -0.0517544 0.0047208
vn 0.4467202 -5.7210035 1.4977777
v 0.0177328 -0.0802105 0.0037835
vn -0.2607673 -5.3644834 -2.4644432
v -0.0036939 -0.0805472 0.0017814
vn -0.1121118 -0.5956544 -5.9852767
v -0.0391318 -0.0730199 0.0000566
vn 0.8530357 2.7788897 -5.3669152
v -0.0471945 -0.0689591 0.0005056
vn 2.3042476 5.2032957 2.3489399
v -0.0609486 -0.0625550 0.0040502
vn 1.8921392 5.8644772 0.1505900
v -0.0483168 -0.0671653 0.0029021
vn 0.7568469 2.7595396 5.4802260
v -0.0431929 -0.0705041 0.0056738
vn 2.4780045 5.7255387 0.1295506
v -0.0608736 -0.0623812 0.0029021
vn 2.4112556 -3.3201523 4.1977873
v 0.0931306 -0.0533675 0.0050544
vn 1.2321177 3.1423399 5.1565642
v -0.0559958 -0.0658231 0.0053952
vn 0.0249140 0.1880588 6.0063162
v -0.0550531 -0.0678532 0.0059712
vn -0.6757554 -2.1565609 5.6335526
v -0.0469540 -0.0717284 0.0058009
vn -1.2591572 -3.0551119 4.9510074
v -0.0573899 -0.0686750 0.0055302
vn -1.6599569 -5.5555434 1.6772909
v -0.0477869 -0.0733867 0.0039051
vn -1.5711879 -4.5037365 3.6924713
v -0.0533029 -0.0710661 0.0048097
vn -2.0809410 -5.2250757 1.2432035
v -0.0589758 -0.0695638 0.0036267
vn 4.6442680 2.1006095 2.4360104
v 0.1212239 0.0264898 0.0043997
vn 4.7930980 1.9151535 -2.2602170
v 0.1226307 0.0233038 0.0019202
vn 0.4275638 -0.0052259 -6.0503874
v 0.1222642 -0.0093519 0.0000384
vn -0.9002770 0.4628394 -5.6888232
v 0.1171667 -0.0219295 0.0000724
vn -4.9401402 3.5372477 -0.3678677
v 0.1101315 -0.0294003 0.0027260
vn -3.5884316 2.0777700 -4.6116896
v 0.1139774 -0.0255529 0.0005521
vn -4.0459862 3.5802088 -2.2744167
v 0.1061611 -0.0351658 0.0015516
vn -2.2431009 4.2328935 3.2948215
v 0.0786754 -0.0572392 0.0046236
vn -0.9958960 2.3150418 5.3617935
v 0.0652144 -0.0648039 0.0055565
vn 0.1568680 -5.8597174 0.9131190
v 0.0073637 -0.0808064 0.0033791
vn -0.1355374 -5.7598424 1.2442521
v -0.0017470 -0.0808024 0.0035749
vn 2.8556914 5.1029472 2.2572565
v -0.0741952 -0.0560950 0.0041619
vn -0.7590804 -1.5744379 5.7448440
v -0.0692707 -0.0624519 0.0058853
vn 2.8892806 -1.1779141 -4.8400717
v 0.1209531 -0.0180379 0.0003951
vn -3.6653430 4.7779856 0.8145255
v 0.0941211 -0.0464388 0.0035552
vn -3.1719341 5.0078278 -1.2027373
v 0.0853846 -0.0529796 0.0020146
vn -0.3969321 1.6720169 5.7204714
v 0.0479467 -0.0711036 0.0057974
vn 0.3346594 -2.4112108 5.5755277
v 0.0296843 -0.0771310 0.0057283
vn 0.1725193 -1.3470865 5.8666878
v 0.0167596 -0.0780429 0.0058765
vn 0.5592390 -4.7004170 3.5166888
v 0.0254008 -0.0788817 0.0048317
vn 0.1829824 -4.0612245 4.3119335
v 0.0125080 -0.0796460 0.0052531
vn 0.0451401 -4.2629466 4.1666903
v 0.0034627 -0.0799425 0.0052314
vn -0.4776790 -5.9448719 0.3824736
v -0.0121504 -0.0802291 0.0030672
vn -0.6909587 -5.2115507 2.5164583
v -0.0198275 -0.0791988 0.0041787
vn -0.8618492 -5.6586289 -1.3352774
v -0.0236455 -0.0788563 0.0021340
vn -1.0568004 -4.9931574 -2.5779655
v -0.0352964 -0.0763403 0.0014860
vn -1.4469521 -5.3886371 -1.8370869
v -0.0419376 -0.0750470 0.0021401
vn -0.9228654 -3.1479549 -4.9766192
v -0.0437527 -0.0731416 0.0004675
vn -1.5416589 -4.1374669 -3.8189237
v -0.0554827 -0.0702290 0.0011123
vn 1.9229742 5.1017537 -2.9833310
v -0.0527288 -0.0660206 0.0015424
vn 4.0678291 2.6324990 2.9715574
v 0.1158257 0.0363005 0.0046854
vn 2.2207952 1.1984744 5.4150410
v 0.1160418 0.0333752 0.0057470
vn 5.4086375 1.5793434 0.4552529
v 0.1243132 0.0190084 0.0032634
vn 4.4731607 0.8842213 3.5638130
v 0.1249959 0.0141282 0.0046469
vn 5.6940665 0.7504480 0.0483659
v 0.1260567 0.0112715 0.0030979
vn 5.6485739 -0.1101881 0.7638118
v 0.1265899 0.0030877 0.0033013
vn 5.0740600 0.0760349 -3.1011472
v 0.1261188 0.0039148 0.0015566
vn -1.0452583 0.7061816 -5.7063994
v 0.1094804 -0.0337722 0.0001423
vn -0.3807376 -4.7204180 3.7171974
v -0.0107814 -0.0795657 0.0050002
vn -1.0307971 -5.3217897 2.1723413
v -0.0282928 -0.0778426 0.0041640
vn -0.5264550 -1.1024544 -5.6866283
v -0.0591798 -0.0669454 0.0001562
vn -4.0275674 3.3591478 2.6104696
v 0.1063713 -0.0350614 0.0046472
vn 1.0906247 2.4634774 -5.4748993
v -0.0613488 -0.0634987 0.0006181
vn 2.5241923 4.9682302 -2.8926466
v -0.0687984 -0.0591167 0.0015160
vn 3.3231239 5.2518630 0.9035554
v -0.0757790 -0.0548539 0.0029046
vn 3.5596621 5.0704784 -0.3129779
v -0.0823502 -0.0505678 0.0027594
vn -1.2319543 -1.7161616 5.5886254
v -0.0835079 -0.0544409 0.0058165
vn 0.5767521 0.7666176 6.0539060
v -0.0840691 -0.0522848 0.0058861
vn 5.1008382 -0.5377097 -2.5871055
v 0.1258426 -0.0039648 0.0017793
vn 3.5810061 -0.7724217 -4.5524869
v 0.1239261 -0.0095250 0.0005850
vn -1.0962784 -5.4538560 1.5629301
v -0.0383812 -0.0759328 0.0038720
vn -1.8514780 -5.5830417 -0.9360471
v -0.0512543 -0.0724056 0.0026636
vn 1.7583101 3.4750848 4.8187847
v -0.0691012 -0.0597000 0.0052531
vn 3.4533024 3.7447205 3.4240336
v -0.0940551 -0.0417116 0.0047745
vn 3.7000535 4.5556221 2.2284243
v -0.0848864 -0.0491144 0.0042483
vn 4.1907520 4.4543767 0.4810613
v -0.0936906 -0.0413263 0.0032617
vn 0.6756710 1.3207450 5.9272733
v -0.0696195 -0.0607192 0.0058733
vn 3.3408294 1.1702518 4.5966964
v 0.1221520 0.0218030 0.0053544
vn -3.3460014 3.6422763 -3.3392692
v 0.0970358 -0.0446988 0.0012180
vn -2.3468208 -3.6398218 -3.8201778
v -0.0815127 -0.0573324 0.0010229
vn -2.4736991 -3.1706080 -4.3361406
v -0.0901099 -0.0508017 0.0008133
vn -0.8503435 -1.1784725 -5.8628383
v -0.0846511 -0.0530649 0.0000637
vn 2.0989766 3.1391709 4.8514843
v -0.0821529 -0.0519645 0.0052779
vn 1.0809410 0.9218739 5.8346696
v -0.0971196 -0.0406005 0.0057958
vn 3.4681478 2.2992563 3.8334498
v -0.1056719 -0.0280363 0.0050819
vn -0.2524094 2.2074745 5.7349396
v 0.0240079 -0.0754697 0.0056902
vn -0.0188927 -1.5605264 5.8684015
v 0.0015273 -0.0787307 0.0058854
vn -0.5994211 -3.1797655 5.0841298
v -0.0298477 -0.0761968 0.0056248
vn -1.9318497 -4.5592852 -3.0088131
v -0.0620315 -0.0679359 0.0016039
vn -2.6346357 -5.3168297 0.1203350
v -0.0683450 -0.0655032 0.0030950
vn -2.6845615 -4.9890666 -2.1160851
v -0.0741276 -0.0624131 0.0020476
vn -1.7954738 -3.5401905 -4.4903851
v -0.0718432 -0.0626645 0.0007871
vn -0.9495867 -0.9987369 -5.8554559
v -0.0974700 -0.0423681 0.0000512
vn 0.4854828 0.3704872 -5.9101562
v -0.1040119 -0.0334610 0.0000732
vn 1.6188093 1.7737564 -5.5254421
v -0.0919511 -0.0454275 0.0002032
vn 4.9422960 3.8108916 0.1536563
v -0.1024988 -0.0314681 0.0034762
vn 0.2682397 0.1401655 -5.6804056
v -0.1116912 -0.0216577 0.0001327
vn -0.3992371 -0.1667197 -5.8568578
v -0.1166348 -0.0079757 0.0000956
vn 3.8169754 0.7071194 -4.3668461
v -0.1143736 -0.0074973 0.0008640
vn 4.8234382 1.9476663 2.8706737
v -0.1115503 -0.0160826 0.0045782
vn 5.1613302 3.0977936 -0.7143576
v -0.1060368 -0.0264095 0.0026225
vn 3.2377763 4.2326150 -3.2241826
v -0.0885223 -0.0462561 0.0017589
vn 1.8049034 2.9985313 -4.9174976
v -0.0753202 -0.0563306 0.0006467
vn -0.3828452 -4.9744358 -3.1876431
v -0.0134031 -0.0796994 0.0013511
vn 4.4757204 0.8276408 -3.5869827
v 0.1250958 0.0130144 0.0012203
vn 3.6419444 3.3720725 -3.6304965
v -0.0989756 -0.0369675 0.0010762
vn -0.6914831 -3.8534186 -4.4496322
v -0.0260274 -0.0777460 0.0009586
vn 0.5572228 -2.0096798 5.5889130
v 0.0503148 -0.0726622 0.0057147
vn -4.3721066 4.2991462 0.5089634
v 0.1002630 -0.0409415 0.0035260
vn 2.1560390 -0.0274877 -5.4285359
v 0.1246901 0.0039920 0.0002904
vn 5.8468666 1.7889551 0.2081508
v -0.1128615 -0.0106464 0.0028129
vn 4.5365238 0.7579237 4.0767856
v -0.1147629 -0.0070278 0.0052544
vn 0.7434076 -3.9683566 4.4208698
v 0.0354725 -0.0769703 0.0052314
vn -0.0640762 -0.1827917 5.9192858
v -0.1073709 -0.0294979 0.0058827
vn 0.3941456 0.1310378 5.7069969
v -0.1145320 -0.0136529 0.0059101
vn 0.9416334 0.0868659 5.9706559
v -0.1168628 0.0002927 0.0058838
vn 4.8521934 -0.2697799 3.7248323
v -0.1151134 0.0056714 0.0048237
vn 3.3629529 -0.3153385 5.2277260
v -0.1156298 0.0109309 0.0056253
vn 1.1383985 0.1151813 -5.7743411
v -0.1166327 0.0030916 0.0001835
vn 4.9504995 -0.3144050 -3.6626639
v -0.1149702 0.0056623 0.0013975
vn 5.1730499 -0.8529781 -3.4442732
v -0.1149835 0.0116684 0.0006987
vn 5.2828178 -2.1287606 1.6099674
v -0.1110865 0.0219788 0.0036549
vn 5.1484628 -1.3463836 3.3092425
v -0.1135217 0.0148757 0.0040785
vn 5.8920579 -0.9416893 -0.8822037
v -0.1139556 0.0111119 0.0027818
vn 6.1907563 0.2690502 0.3597519
v -0.1145389 0.0001143 0.0030489
vn 4.4186873 2.1082914 -3.0514665
v -0.1098289 -0.0200198 0.0015919
vn 3.5441830 2.2800844 -4.2375574
v -0.1067578 -0.0268472 0.0007686
vn -0.8062890 0.2494047 5.9156547
v -0.1159960 0.0165312 0.0059648
vn 2.6869807 -0.9809820 5.2166462
v -0.1131029 0.0214734 0.0057259
vn -2.6559989 -0.1257642 5.2167916
v -0.1187545 0.0004092 0.0056746
vn -1.7009603 -1.6451993 5.4048996
v -0.0980841 -0.0429641 0.0056515
vn -3.1789048 -1.4126738 4.5000792
v -0.1148836 -0.0189018 0.0053414
vn -2.9422042 0.5172940 5.0168791
v -0.1179948 0.0121396 0.0056540
vn -2.0182590 -3.6520014 4.1043758
v -0.0756119 -0.0606870 0.0051525
vn -3.5828171 -2.9183202 3.2514579
v -0.1041152 -0.0379926 0.0045705
vn -2.9906814 -1.6353908 4.6627069
v -0.1100765 -0.0284158 0.0054093
vn -4.0610557 -0.9851878 3.6309204
v -0.1183389 -0.0090371 0.0049403
vn -3.9176178 1.3766623 4.0895257
v -0.1159328 0.0230979 0.0050583
vn -1.3043016 0.5514466 5.8607101
v -0.1119337 0.0287912 0.0059077
vn -2.7257414 -4.1065655 3.2722292
v -0.0829346 -0.0567233 0.0046195
vn -2.9846292 -3.5431376 3.3961408
v -0.0928510 -0.0492314 0.0047523
vn -3.2452757 1.7953485 4.5360842
v -0.1117378 0.0311697 0.0054835
vn -1.1287034 -4.3046207 4.0322552
v -0.0435646 -0.0740117 0.0049569
vn -2.0401652 -4.3721514 3.3449261
v -0.0661856 -0.0660730 0.0045515
vn -3.6736631 -3.6963940 2.6385415
v -0.0988013 -0.0439543 0.0045416
vn -5.1526914 0.4074267 2.4786580
v -0.1198939 0.0085286 0.0042399
vn -4.6067934 -2.9855857 1.9372287
v -0.1097392 -0.0308616 0.0040892
vn -5.6462717 -0.9014502 0.5854717
v -0.1199067 -0.0041888 0.0034410
vn -5.3228736 -0.1442698 2.4123609
v -0.1201382 0.0005038 0.0042356
vn -5.3826327 1.2610724 1.3532358
v -0.1188300 0.0159099 0.0035728
vn -5.2190490 -1.9526504 0.9185909
v -0.1165913 -0.0175715 0.0035721
vn -5.0242290 2.7202048 0.7755328
v -0.1126105 0.0323291 0.0032554
vn -4.5102577 2.9432499 2.2566957
v -0.1089555 0.0379871 0.0041548
vn -3.4083252 -4.6795487 -0.2510379
v -0.0853202 -0.0556644 0.0030243
vn -5.1973162 2.1297941 0.2876775
v -0.1162825 0.0246813 0.0032163
vn -4.3179855 3.7374020 0.2465489
v -0.1034716 0.0454690 0.0033330
vn -3.5443475 2.7664239 3.9740043
v -0.1056096 0.0414688 0.0051447
vn -2.9486611 -4.9871492 0.2391180
v -0.0770388 -0.0609988 0.0030000
vn -3.6011269 -4.3791876 -0.8203496
v -0.0920810 -0.0505718 0.0026277
vn -4.9931865 -2.4102550 -0.0858715
v -0.1142984 -0.0231864 0.0026810
vn -4.1634140 -3.7814355 -1.2153847
v -0.1009189 -0.0422548 0.0022625
vn -4.3056502 -3.4442935 -1.2167907
v -0.1061138 -0.0362585 0.0023375
vn -4.9914122 -1.3396370 -1.6616899
v -0.1182767 -0.0120877 0.0019371
vn -4.3589821 3.1623287 -1.8530068
v -0.1078360 0.0398237 0.0021231
vn -4.2815094 -2.6437423 -2.5589333
v -0.1098003 -0.0306240 0.0016209
vn -5.3389697 -0.1941636 -1.8353205
v -0.1203234 0.0005413 0.0020900
vn -5.1690760 0.6464335 -1.9359401
v -0.1199483 0.0097746 0.0020736
vn -4.5496030 2.3561532 -2.9748869
v -0.1129903 0.0306950 0.0014089
vn -2.8912890 2.6073027 -4.1339469
v -0.1021115 0.0455038 0.0008553
vn -2.9912138 -3.0266342 -4.2166090
v -0.0990671 -0.0429915 0.0009187
vn -4.4902167 1.4098638 -3.0556016
v -0.1175785 0.0193656 0.0013475
vn -3.9620459 4.1329212 -0.4672856
v -0.0983296 0.0508863 0.0029919
vn -3.6983418 -1.4818448 -4.0460663
v -0.1143432 -0.0210710 0.0009483
vn -3.9758513 -0.6170956 -4.0603542
v -0.1185170 -0.0069750 0.0007726
vn -3.0267324 0.1140865 -4.9517245
v -0.1190809 0.0041256 0.0005874
vn -2.2681160 3.0633535 -4.2837553
v -0.0872843 0.0590366 0.0007937
vn -3.6110816 4.4837875 -1.0544221
v -0.0906250 0.0576297 0.0025603
vn -2.8080201 4.5090451 -2.3106668
v -0.0804534 0.0645900 0.0019935
vn -2.5657942 -1.9285858 -4.9219446
v -0.1062017 -0.0339909 0.0005518
vn -2.2125711 1.4692705 -5.1560783
v -0.1081663 0.0365892 0.0003855
vn -2.4659181 2.6898811 -4.3892465
v -0.0950738 0.0522867 0.0005850
vn -2.6705437 0.4900689 -5.3046741
v -0.1172014 0.0163519 0.0004552
vn -2.7636013 1.1347004 -4.9852796
v -0.1129672 0.0284127 0.0003898
vn -0.9365121 1.5401585 -5.4322524
v -0.0786166 0.0634805 0.0001960
vn -2.1413920 4.0389585 -3.6258428
v -0.0731956 0.0683695 0.0012637
vn -1.2362628 2.8457782 -5.0936847
v -0.0612559 0.0730786 0.0005227
vn -0.0363244 0.0099729 -6.0020933
v -0.0942514 0.0505187 0.0000447
vn 0.7662138 -0.2467179 -5.5561380
v -0.1138871 0.0221710 0.0000256
vn 0.3555316 -0.6193802 -5.9078827
v -0.0661422 0.0686868 0.0001084
vn -0.6516179 1.7651134 -5.8014169
v -0.0519682 0.0758594 0.0001521
vn -0.2504632 1.5717880 -5.8863983
v -0.0351597 0.0802652 0.0000765
vn 0.1234892 -0.3729568 -6.1590090
v -0.0468316 0.0764400 0.0000368
vn -3.5586026 3.3866818 3.2870443
v -0.0999850 0.0485588 0.0047133
vn -1.2849408 4.2087984 -3.9132488
v -0.0495514 0.0780189 0.0008923
vn -2.2160678 5.0114994 -2.2038643
v -0.0619721 0.0739623 0.0017764
vn -2.6854341 5.1300473 0.3279177
v -0.0725015 0.0694002 0.0030975
vn -3.1129591 4.7648458 1.5876520
v -0.0818258 0.0638056 0.0039304
vn -3.2423527 3.9697652 2.8400693
v -0.0908149 0.0570623 0.0045273
vn -2.2112687 2.2559938 5.1506691
v -0.0973905 0.0499714 0.0054606
vn -1.4371837 1.2188005 5.7209959
v -0.1047337 0.0410576 0.0057579
vn 0.8323538 -0.5844206 5.8221722
v -0.1059619 0.0366671 0.0059246
vn -0.9156690 3.6098166 -4.7352328
v -0.0381745 0.0807558 0.0005834
vn 0.6074442 0.8087852 -6.1248007
v -0.0803544 -0.0546864 0.0000765
vn -0.3339822 -0.6260810 -5.8946733
v -0.0711227 -0.0613369 0.0000828
vn 0.0775631 -0.3364494 6.1443639
v 0.0372386 -0.0745559 0.0059664
vn 0.1271494 -1.2314990 -5.9206939
v -0.0199115 0.0817297 0.0000558
vn 0.8751427 -4.3663750 -4.2994223
v -0.0349955 0.0780136 0.0005853
vn 0.7521566 -4.4331737 -4.1416068
v -0.0233101 0.0797866 0.0009079
vn 0.6945206 -6.0059223 -0.7569311
v -0.0207310 0.0793930 0.0024388
vn 1.3018923 -5.7281008 -1.3816229
v -0.0365210 0.0764621 0.0024924
vn 1.7985871 -5.6351142 -1.6692128
v -0.0457811 0.0739850 0.0024610
vn 1.2315899 -3.1758528 -5.0423884
v -0.0518986 0.0734733 0.0003657
vn 1.8943975 -4.5565834 -3.3086567
v -0.0600767 0.0692440 0.0012791
vn -0.2878244 1.7891881 -5.8309574
v -0.0161550 0.0835901 0.0001518
vn -0.7173368 4.7283812 -3.2252228
v -0.0230377 0.0843731 0.0013804
vn -1.1211579 5.2198901 -2.4637871
v -0.0342073 0.0825335 0.0015989
vn -1.5864769 5.5799174 -0.1500744
v -0.0453992 0.0801028 0.0029539
vn -1.8791169 5.4918733 -0.5912520
v -0.0532251 0.0776054 0.0025728
vn -2.0874860 4.6090937 2.6112151
v -0.0672497 0.0715910 0.0043791
vn -1.9331908 3.0748959 4.6958928
v -0.0813375 0.0630513 0.0052479
vn -1.6061088 2.1484272 5.3638887
v -0.0883756 0.0573810 0.0056588
vn -2.1450944 5.4606175 1.0299554
v -0.0588071 0.0755138 0.0035194
vn 0.3132893 -3.8545210 -4.9453564
v -0.0070867 0.0820170 0.0005056
vn 0.0790600 -5.6430688 -2.5585535
v -0.0026223 0.0811453 0.0016453
vn 1.1867542 -2.1704469 -5.5273280
v -0.0760059 0.0623592 0.0004901
vn 2.0464046 -2.5152149 -5.2849650
v -0.0914788 0.0512459 0.0004709
vn 0.7272348 -5.2184048 2.8245196
v -0.0213965 0.0796106 0.0044748
vn 1.4572978 -5.2747235 2.5912106
v -0.0403886 0.0757892 0.0045096
vn -0.3829825 5.2359304 2.5751305
v -0.0086246 0.0861094 0.0043269
vn -0.2114763 2.6165886 5.4169760
v -0.0101147 0.0844072 0.0057851
vn -0.5623432 3.0645123 5.0090156
v -0.0325873 0.0816317 0.0056159
vn -0.0076114 0.0265087 6.1238389
v -0.0301122 0.0805203 0.0059616
vn -0.3110704 1.0520234 5.8998289
v -0.0478989 0.0766410 0.0058942
vn 0.6405069 -2.9073777 5.3265843
v -0.0385834 0.0772963 0.0055569
vn 1.4417238 -4.5514951 4.0769935
v -0.0515241 0.0727533 0.0049569
vn 0.6319379 -1.5679730 5.8396006
v -0.0599931 0.0707908 0.0057846
vn 2.1126518 -4.2894568 4.0596781
v -0.0659453 0.0669644 0.0050162
vn 3.4031808 -3.9807653 -3.0683470
v -0.0909121 0.0502120 0.0015369
vn 3.5978692 -3.1281776 -4.0782466
v -0.0998310 0.0423936 0.0006504
vn -0.3772756 5.5677137 -1.6948357
v -0.0099276 0.0862028 0.0020118
vn -0.7637690 5.6942005 1.0199282
v -0.0202376 0.0852270 0.0037468
vn -1.3628014 4.2101202 3.7157531
v -0.0486850 0.0783706 0.0049198
vn -0.7862855 1.6170390 5.7014751
v -0.0628202 0.0716113 0.0058167
vn -0.0664447 0.0992667 5.9537587
v -0.0783769 0.0624412 0.0059434
vn 3.3433867 -4.0686960 3.3494120
v -0.0854451 0.0553707 0.0049991
vn 2.4427016 -2.2283521 4.9619837
v -0.0951404 0.0475885 0.0055127
vn 4.0412283 -4.3007464 1.1206594
v -0.0920532 0.0487035 0.0033812
vn -0.4429131 4.1214571 -4.3404355
v -0.0143647 0.0850154 0.0007862
vn 5.1944532 -2.8088005 -1.7074924
v -0.1065380 0.0314378 0.0031686
vn 3.9670227 -2.7255373 3.4801826
v -0.1041758 0.0359966 0.0047444
vn -0.3844698 0.3490510 6.0305080
v -0.0946024 0.0507371 0.0059427
vn -1.8985437 3.4371486 4.3119164
v -0.0749462 0.0669419 0.0051094
vn 0.4688820 -6.1883621 0.4674781
v -0.0070123 0.0806549 0.0029021
vn 0.3411599 -3.2714756 5.1312342
v -0.0116517 0.0816649 0.0055404
vn 2.2861588 -5.5508623 0.6276758
v -0.0594899 0.0689408 0.0035763
vn 2.8917892 -4.4854870 -2.7858243
v -0.0765374 0.0607996 0.0014653
vn -0.0005611 -0.1040001 6.1260319
v -0.0078096 0.0835065 0.0059824
vn 0.4746519 -2.8697548 5.4359865
v -0.0234682 0.0807797 0.0057755
vn 2.0394053 -1.1730912 -4.9527802
v -0.1081345 0.0323089 0.0001958
vn 3.5341065 -5.0810795 0.7064356
v -0.0819942 0.0567667 0.0025514
vn 2.8472452 -5.0061607 1.5996747
v -0.0747509 0.0615361 0.0037331
vn 4.4288454 -3.8474925 -1.7417308
v -0.1010068 0.0395079 0.0021832
vn -0.5603932 4.0327978 4.3982430
v -0.0201213 0.0844127 0.0051269
vn -0.1408482 5.8606744 0.8502022
v -0.0008513 0.0867632 0.0034845
vn 1.6422738 -3.1206782 4.9112339
v -0.0741919 0.0634312 0.0056087
vn 4.8563309 -1.8471205 -2.8960679
v -0.1112160 0.0222116 0.0020229
vn -0.9955104 5.5086451 1.0040689
v -0.0291520 0.0838857 0.0034244
vn -1.1967299 5.1857047 2.0753224
v -0.0365899 0.0821536 0.0041845
vn -1.3977876 3.6939070 4.3340626
v -0.0595854 0.0742801 0.0051907
# 500 vertices, 0 vertices normals

f 1//1 2//2 3//3
f 4//4 5//5 6//6
f 7//7 8//8 9//9
f 9//9 8//8 10//10
f 11//11 9//9 12//12
f 12//12 9//9 10//10
f 13//13 14//14 15//15
f 15//15 14//14 16//16
f 17//17 18//18 19//19
f 19//19 18//18 20//20
f 21//21 8//8 22//22
f 23//23 24//24 25//25
f 20//20 26//26 19//19
f 19//19 26//26 27//27
f 21//21 28//28 10//10
f 21//21 10//10 8//8
f 29//29 7//7 9//9
f 23//23 30//30 31//31
f 31//31 24//24 23//23
f 24//24 32//32 25//25
f 25//25 32//32 33//33
f 25//25 33//33 20//20
f 20//20 33//33 26//26
f 15//15 27//27 26//26
f 34//34 35//35 15//15
f 15//15 35//35 27//27
f 27//27 36//36 19//19
f 36//36 27//27 35//35
f 28//28 21//21 35//35
f 37//37 2//2 7//7
f 37//37 7//7 29//29
f 11//11 5//5 4//4
f 11//11 4//4 29//29
f 29//29 4//4 37//37
f 38//38 4//4 6//6
f 30//30 1//1 3//3
f 38//38 30//30 3//3
f 32//32 39//39 40//40
f 40//40 39//39 41//41
f 40//40 41//41 42//42
f 43//43 14//14 13//13
f 15//15 16//16 34//34
f 42//42 44//44 45//45
f 46//46 47//47 48//48
f 48//48 47//47 49//49
f 49//49 6//6 5//5
f 50//50 32//32 40//40
f 43//43 50//50 40//40
f 43//43 40//40 42//42
f 51//51 52//52 46//46
f 51//51 46//46 53//53
f 54//54 49//49 55//55
f 55//55 49//49 56//56
f 57//57 16//16 58//58
f 57//57 58//58 59//59
f 60//60 61//61 62//62
f 62//62 45//45 44//44
f 44//44 42//42 41//41
f 41//41 39//39 63//63
f 64//64 65//65 66//66
f 66//66 65//65 61//61
f 60//60 62//62 67//67
f 67//67 62//62 44//44
f 68//68 57//57 59//59
f 68//68 59//59 69//69
f 70//70 51//51 71//71
f 51//51 70//70 52//52
f 52//52 72//72 73//73
f 74//74 73//73 75//75
f 16//16 14//14 58//58
f 69//69 59//59 76//76
f 73//73 72//72 77//77
f 78//78 71//71 79//79
f 78//78 79//79 80//80
f 80//80 79//79 81//81
f 82//82 83//83 84//84
f 85//85 64//64 86//86
f 86//86 64//64 66//66
f 41//41 63//63 87//87
f 47//47 63//63 31//31
f 88//88 75//75 77//77
f 89//89 77//77 72//72
f 90//90 89//89 70//70
f 90//90 70//70 71//71
f 90//90 71//71 78//78
f 84//84 91//91 34//34
f 66//66 61//61 92//92
f 92//92 61//61 60//60
f 87//87 44//44 41//41
f 87//87 63//63 47//47
f 93//93 94//94 95//95
f 82//82 84//84 96//96
f 82//82 96//96 81//81
f 81//81 96//96 80//80
f 89//89 97//97 77//77
f 77//77 97//97 98//98
f 99//99 66//66 92//92
f 100//100 67//67 44//44
f 78//78 80//80 101//101
f 101//101 102//102 78//78
f 78//78 102//102 90//90
f 103//103 85//85 104//104
f 104//104 85//85 86//86
f 86//86 66//66 99//99
f 92//92 60//60 74//74
f 74//74 60//60 67//67
f 100//100 44//44 87//87
f 46//46 87//87 47//47
f 84//84 34//34 105//105
f 84//84 105//105 96//96
f 90//90 102//102 106//106
f 106//106 97//97 89//89
f 88//88 107//107 108//108
f 109//109 103//103 110//110
f 110//110 103//103 104//104
f 111//111 86//86 99//99
f 97//97 112//112 113//113
f 98//98 113//113 114//114
f 108//108 107//107 115//115
f 104//104 86//86 111//111
f 74//74 67//67 100//100
f 46//46 100//100 87//87
f 96//96 105//105 116//116
f 96//96 116//116 80//80
f 80//80 116//116 101//101
f 101//101 117//117 102//102
f 102//102 117//117 106//106
f 97//97 113//113 98//98
f 98//98 114//114 88//88
f 99//99 92//92 74//74
f 49//49 47//47 6//6
f 13//13 50//50 43//43
f 14//14 43//43 42//42
f 14//14 42//42 45//45
f 58//58 45//45 62//62
f 59//59 61//61 65//65
f 101//101 116//116 117//117
f 75//75 99//99 74//74
f 53//53 46//46 48//48
f 48//48 49//49 54//54
f 56//56 49//49 5//5
f 56//56 5//5 118//118
f 58//58 14//14 45//45
f 58//58 62//62 59//59
f 59//59 62//62 61//61
f 76//76 59//59 65//65
f 76//76 65//65 64//64
f 95//95 64//64 85//85
f 95//95 85//85 93//93
f 93//93 85//85 103//103
f 77//77 98//98 88//88
f 75//75 88//88 108//108
f 119//119 115//115 120//120
f 120//120 121//121 122//122
f 110//110 104//104 123//123
f 123//123 104//104 111//111
f 111//111 99//99 75//75
f 74//74 100//100 52//52
f 52//52 100//100 46//46
f 73//73 77//77 75//75
f 124//124 125//125 126//126
f 127//127 128//128 129//129
f 130//130 131//131 132//132
f 133//133 134//134 135//135
f 136//136 137//137 138//138
f 139//139 137//137 140//140
f 141//141 126//126 142//142
f 130//130 143//143 144//144
f 144//144 143//143 145//145
f 133//133 135//135 146//146
f 147//147 136//136 138//138
f 148//148 140//140 124//124
f 148//148 124//124 141//141
f 149//149 142//142 129//129
f 149//149 129//129 150//150
f 149//149 151//151 152//152
f 152//152 151//151 130//130
f 152//152 130//130 144//144
f 153//153 154//154 155//155
f 146//146 136//136 147//147
f 155//155 156//156 157//157
f 138//138 139//139 158//158
f 139//139 140//140 159//159
f 159//159 140//140 148//148
f 160//160 141//141 142//142
f 161//161 155//155 157//157
f 158//158 139//139 159//159
f 148//148 141//141 160//160
f 144//144 145//145 162//162
f 153//153 155//155 161//161
f 163//163 133//133 146//146
f 164//164 149//149 152//152
f 165//165 145//145 153//153
f 161//161 157//157 166//166
f 93//93 133//133 163//163
f 160//160 142//142 149//149
f 167//167 152//152 144//144
f 162//162 145//145 165//165
f 168//168 153//153 161//161
f 169//169 146//146 147//147
f 147//147 138//138 170//170
f 171//171 138//138 158//158
f 172//172 159//159 148//148
f 172//172 148//148 160//160
f 160//160 149//149 164//164
f 164//164 152//152 167//167
f 167//167 144//144 162//162
f 165//165 153//153 168//168
f 168//168 161//161 166//166
f 156//156 173//173 157//157
f 94//94 93//93 163//163
f 174//174 167//167 162//162
f 175//175 162//162 165//165
f 176//176 165//165 168//168
f 177//177 178//178 179//179
f 180//180 181//181 125//125
f 182//182 183//183 184//184
f 132//132 185//185 186//186
f 186//186 185//185 187//187
f 186//186 187//187 188//188
f 131//131 130//130 151//151
f 137//137 139//139 138//138
f 189//189 136//136 135//135
f 154//154 153//153 145//145
f 151//151 149//149 150//150
f 126//126 141//141 124//124
f 136//136 146//146 135//135
f 190//190 191//191 192//192
f 193//193 194//194 195//195
f 195//195 194//194 173//173
f 195//195 173//173 196//196
f 196//196 173//173 156//156
f 197//197 155//155 154//154
f 143//143 154//154 145//145
f 198//198 151//151 150//150
f 198//198 150//150 199//199
f 199//199 150//150 129//129
f 127//127 142//142 126//126
f 124//124 140//140 180//180
f 200//200 190//190 201//201
f 202//202 203//203 204//204
f 205//205 185//185 206//206
f 206//206 185//185 207//207
f 183//183 208//208 209//209
f 210//210 211//211 212//212
f 213//213 122//122 214//214
f 119//119 123//123 108//108
f 72//72 70//70 89//89
f 84//84 83//83 91//91
f 91//91 83//83 12//12
f 90//90 106//106 89//89
f 108//108 115//115 119//119
f 115//115 121//121 120//120
f 121//121 214//214 122//122
f 183//183 215//215 216//216
f 216//216 217//217 207//207
f 218//218 219//219 220//220
f 220//220 219//219 221//221
f 203//203 221//221 204//204
f 196//196 156//156 222//222
f 222//222 156//156 155//155
f 222//222 155//155 197//197
f 137//137 136//136 189//189
f 201//201 190//190 223//223
f 182//182 208//208 183//183
f 184//184 183//183 216//216
f 184//184 216//216 207//207
f 184//184 207//207 224//224
f 132//132 224//224 185//185
f 220//220 225//225 188//188
f 226//226 202//202 227//227
f 227//227 228//228 229//229
f 229//229 228//228 230//230
f 231//231 232//232 193//193
f 197//197 154//154 143//143
f 198//198 131//131 151//151
f 127//127 129//129 142//142
f 180//180 140//140 137//137
f 233//233 189//189 135//135
f 233//233 135//135 134//134
f 109//109 134//134 133//133
f 64//64 95//95 76//76
f 234//234 235//235 211//211
f 218//218 205//205 236//236
f 219//219 237//237 221//221
f 221//221 237//237 204//204
f 228//228 238//238 239//239
f 240//240 231//231 241//241
f 241//241 231//231 193//193
f 186//186 143//143 130//130
f 125//125 124//124 180//180
f 177//177 189//189 233//233
f 242//242 232//232 231//231
f 243//243 240//240 241//241
f 229//229 193//193 195//195
f 229//229 195//195 196//196
f 188//188 197//197 143//143
f 131//131 198//198 184//184
f 184//184 198//198 182//182
f 182//182 198//198 199//199
f 128//128 199//199 129//129
f 128//128 127//127 244//244
f 177//177 137//137 189//189
f 109//109 133//133 103//103
f 103//103 133//133 93//93
f 245//245 246//246 242//242
f 242//242 246//246 201//201
f 242//242 201//201 223//223
f 247//247 201//201 246//246
f 247//247 246//246 248//248
f 249//249 250//250 251//251
f 68//68 69//69 112//112
f 114//114 252//252 253//253
f 121//121 254//254 255//255
f 256//256 257//257 258//258
f 212//212 259//259 260//260
f 261//261 262//262 237//237
f 263//263 240//240 243//243
f 241//241 193//193 230//230
f 230//230 193//193 229//229
f 226//226 222//222 197//197
f 188//188 143//143 186//186
f 132//132 186//186 130//130
f 132//132 131//131 184//184
f 208//208 199//199 128//128
f 244//244 127//127 126//126
f 181//181 180//180 137//137
f 181//181 137//137 177//177
f 246//246 264//264 248//248
f 254//254 265//265 255//255
f 266//266 267//267 235//235
f 260//260 176//176 268//268
f 269//269 270//270 271//271
f 271//271 270//270 272//272
f 272//272 273//273 261//261
f 261//261 273//273 262//262
f 274//274 275//275 276//276
f 277//277 278//278 279//279
f 279//279 278//278 280//280
f 243//243 241//241 281//281
f 281//281 241//241 230//230
f 227//227 229//229 196//196
f 227//227 196//196 226//226
f 226//226 196//196 222//222
f 210//210 128//128 244//244
f 244//244 126//126 125//125
f 282//282 283//283 252//252
f 284//284 285//285 286//286
f 286//286 287//287 288//288
f 257//257 255//255 289//289
f 257//257 289//289 258//258
f 235//235 267//267 259//259
f 259//259 175//175 260//260
f 273//273 290//290 262//262
f 262//262 290//290 274//274
f 275//275 291//291 276//276
f 276//276 291//291 277//277
f 279//279 280//280 292//292
f 178//178 213//213 256//256
f 178//178 256//256 293//293
f 210//210 209//209 208//208
f 224//224 207//207 185//185
f 185//185 205//205 187//187
f 187//187 205//205 218//218
f 187//187 218//218 220//220
f 225//225 220//220 221//221
f 225//225 221//221 203//203
f 227//227 202//202 228//228
f 281//281 294//294 295//295
f 296//296 295//295 297//297
f 203//203 226//226 197//197
f 203//203 197//197 188//188
f 224//224 132//132 184//184
f 182//182 199//199 208//208
f 208//208 128//128 210//210
f 179//179 181//181 177//177
f 213//213 177//177 233//233
f 298//298 264//264 299//299
f 285//285 169//169 286//286
f 286//286 169//169 287//287
f 288//288 287//287 300//300
f 300//300 171//171 301//301
f 301//301 171//171 265//265
f 267//267 174//174 259//259
f 259//259 174//174 175//175
f 260//260 175//175 176//176
f 274//274 290//290 275//275
f 291//291 302//302 278//278
f 278//278 303//303 280//280
f 157//157 173//173 192//192
f 232//232 194//194 193//193
f 245//245 231//231 240//240
f 245//245 240//240 304//304
f 304//304 240//240 263//263
f 305//305 306//306 307//307
f 308//308 299//299 264//264
f 308//308 264//264 246//246
f 283//283 94//94 309//309
f 309//309 163//163 285//285
f 287//287 170//170 300//300
f 300//300 170//170 171//171
f 289//289 160//160 164//164
f 310//310 164//164 267//267
f 267//267 167//167 174//174
f 311//311 312//312 313//313
f 242//242 231//231 245//245
f 304//304 263//263 314//314
f 314//314 263//263 306//306
f 314//314 306//306 305//305
f 315//315 305//305 316//316
f 192//192 173//173 194//194
f 315//315 314//314 305//305
f 309//309 94//94 163//163
f 163//163 146//146 285//285
f 285//285 146//146 169//169
f 287//287 169//169 147//147
f 267//267 164//164 167//167
f 174//174 162//162 175//175
f 175//175 165//165 176//176
f 317//317 191//191 270//270
f 318//318 191//191 190//190
f 318//318 190//190 200//200
f 200//200 319//319 290//290
f 290//290 319//319 275//275
f 275//275 319//319 291//291
f 303//303 249//249 251//251
f 303//303 251//251 320//320
f 320//320 251//251 321//321
f 320//320 321//321 322//322
f 320//320 322//322 323//323
f 323//323 322//322 311//311
f 324//324 325//325 326//326
f 296//296 306//306 263//263
f 157//157 192//192 166//166
f 166//166 192//192 191//191
f 327//327 316//316 305//305
f 307//307 306//306 297//297
f 297//297 306//306 296//296
f 296//296 263//263 243//243
f 296//296 243//243 295//295
f 295//295 243//243 281//281
f 225//225 203//203 188//188
f 220//220 188//188 187//187
f 211//211 244//244 125//125
f 178//178 177//177 213//213
f 213//213 233//233 122//122
f 246//246 245//245 308//308
f 308//308 304//304 299//299
f 327//327 305//305 307//307
f 281//281 230//230 239//239
f 202//202 226//226 203//203
f 211//211 125//125 181//181
f 122//122 233//233 134//134
f 120//120 109//109 110//110
f 120//120 110//110 119//119
f 119//119 110//110 123//123
f 123//123 111//111 108//108
f 108//108 111//111 75//75
f 73//73 74//74 52//52
f 56//56 118//118 83//83
f 328//328 329//329 330//330
f 331//331 316//316 332//332
f 332//332 316//316 327//327
f 307//307 297//297 333//333
f 239//239 230//230 228//228
f 210//210 244//244 211//211
f 181//181 179//179 293//293
f 293//293 179//179 178//178
f 122//122 134//134 120//120
f 120//120 134//134 109//109
f 72//72 52//52 70//70
f 71//71 51//51 53//53
f 71//71 53//53 79//79
f 79//79 53//53 48//48
f 79//79 48//48 54//54
f 79//79 54//54 81//81
f 81//81 54//54 55//55
f 81//81 55//55 82//82
f 82//82 55//55 83//83
f 83//83 55//55 56//56
f 333//333 297//297 334//334
f 334//334 297//297 295//295
f 294//294 281//281 239//239
f 238//238 228//228 202//202
f 238//238 202//202 204//204
f 206//206 207//207 217//217
f 217//217 216//216 215//215
f 215//215 183//183 209//209
f 209//209 210//210 212//212
f 234//234 211//211 181//181
f 234//234 181//181 293//293
f 256//256 213//213 214//214
f 107//107 88//88 253//253
f 112//112 97//97 106//106
f 335//335 204//204 237//237
f 212//212 211//211 235//235
f 336//336 107//107 253//253
f 253//253 88//88 114//114
f 106//106 117//117 68//68
f 68//68 117//117 116//116
f 327//327 307//307 337//337
f 337//337 307//307 333//333
f 334//334 295//295 294//294
f 238//238 204//204 338//338
f 237//237 219//219 261//261
f 261//261 219//219 218//218
f 261//261 218//218 236//236
f 271//271 205//205 206//206
f 339//339 217//217 215//215
f 339//339 215//215 209//209
f 266//266 234//234 340//340
f 341//341 121//121 115//115
f 336//336 341//341 107//107
f 282//282 113//113 112//112
f 342//342 343//343 331//331
f 334//334 294//294 292//292
f 292//292 294//294 239//239
f 292//292 239//239 238//238
f 279//279 238//238 338//338
f 338//338 204//204 335//335
f 236//236 205//205 271//271
f 271//271 206//206 344//344
f 344//344 206//206 217//217
f 339//339 209//209 268//268
f 235//235 234//234 266//266
f 340//340 293//293 258//258
f 258//258 293//293 256//256
f 256//256 214//214 257//257
f 254//254 121//121 341//341
f 288//288 341//341 336//336
f 299//299 314//314 315//315
f 345//345 316//316 346//346
f 346//346 316//316 331//331
f 346//346 331//331 343//343
f 347//347 348//348 349//349
f 329//329 350//350 330//330
f 351//351 350//350 352//352
f 346//346 343//343 347//347
f 353//353 354//354 355//355
f 351//351 355//355 356//356
f 351//351 356//356 330//330
f 357//357 358//358 328//328
f 328//328 358//358 325//325
f 359//359 347//347 349//349
f 359//359 349//349 360//360
f 346//346 347//347 361//361
f 298//298 299//299 362//362
f 362//362 299//299 315//315
f 362//362 315//315 345//345
f 363//363 345//345 346//346
f 361//361 347//347 364//364
f 364//364 347//347 359//359
f 319//319 201//201 247//247
f 365//365 264//264 298//298
f 362//362 345//345 366//366
f 363//363 367//367 345//345
f 368//368 363//363 346//346
f 368//368 346//346 361//361
f 369//369 364//364 359//359
f 369//369 359//359 370//370
f 371//371 365//365 298//298
f 372//372 298//298 362//362
f 373//373 369//369 370//370
f 374//374 319//319 247//247
f 374//374 247//247 250//250
f 250//250 247//247 248//248
f 248//248 264//264 375//375
f 375//375 264//264 365//365
f 371//371 298//298 372//372
f 372//372 362//362 376//376
f 367//367 366//366 345//345
f 377//377 361//361 364//364
f 378//378 367//367 363//363
f 379//379 368//368 380//380
f 380//380 368//368 361//361
f 380//380 361//361 377//377
f 377//377 364//364 381//381
f 381//381 364//364 369//369
f 366//366 376//376 362//362
f 378//378 366//366 367//367
f 382//382 363//363 368//368
f 369//369 373//373 383//383
f 383//383 373//373 384//384
f 249//249 374//374 250//250
f 251//251 250//250 248//248
f 251//251 248//248 375//375
f 321//321 375//375 365//365
f 385//385 371//371 372//372
f 386//386 381//381 369//369
f 387//387 384//384 388//388
f 389//389 321//321 365//365
f 389//389 365//365 371//371
f 390//390 385//385 372//372
f 390//390 372//372 376//376
f 391//391 378//378 363//363
f 391//391 363//363 382//382
f 386//386 369//369 383//383
f 389//389 371//371 385//385
f 392//392 390//390 376//376
f 393//393 366//366 378//378
f 394//394 382//382 368//368
f 321//321 251//251 375//375
f 392//392 376//376 366//366
f 394//394 368//368 379//379
f 383//383 384//384 395//395
f 395//395 384//384 387//387
f 322//322 321//321 389//389
f 392//392 366//366 393//393
f 396//396 393//393 378//378
f 396//396 378//378 391//391
f 397//397 379//379 380//380
f 397//397 380//380 398//398
f 398//398 380//380 377//377
f 398//398 377//377 381//381
f 399//399 386//386 383//383
f 400//400 395//395 387//387
f 322//322 389//389 311//311
f 311//311 389//389 385//385
f 312//312 390//390 401//401
f 401//401 390//390 392//392
f 402//402 381//381 386//386
f 402//402 386//386 399//399
f 400//400 387//387 403//403
f 311//311 385//385 312//312
f 312//312 385//385 390//390
f 404//404 391//391 382//382
f 404//404 382//382 394//394
f 405//405 394//394 379//379
f 406//406 397//397 398//398
f 402//402 398//398 381//381
f 399//399 383//383 395//395
f 407//407 408//408 409//409
f 401//401 392//392 410//410
f 410//410 392//392 393//393
f 405//405 379//379 397//397
f 405//405 397//397 406//406
f 411//411 399//399 395//395
f 412//412 400//400 403//403
f 412//412 403//403 408//408
f 410//410 393//393 396//396
f 404//404 396//396 391//391
f 413//413 406//406 398//398
f 413//413 398//398 402//402
f 413//413 402//402 399//399
f 411//411 395//395 400//400
f 407//407 412//412 408//408
f 410//410 396//396 404//404
f 405//405 404//404 394//394
f 414//414 413//413 399//399
f 411//411 414//414 399//399
f 415//415 407//407 409//409
f 415//415 409//409 416//416
f 329//329 405//405 406//406
f 415//415 416//416 417//417
f 410//410 404//404 328//328
f 328//328 404//404 329//329
f 329//329 404//404 405//405
f 418//418 412//412 407//407
f 324//324 312//312 401//401
f 324//324 401//401 410//410
f 415//415 418//418 407//407
f 325//325 324//324 410//410
f 325//325 410//410 328//328
f 350//350 406//406 413//413
f 419//419 413//413 414//414
f 419//419 414//414 411//411
f 418//418 411//411 400//400
f 418//418 400//400 412//412
f 420//420 415//415 417//417
f 420//420 417//417 421//421
f 422//422 423//423 421//421
f 370//370 359//359 360//360
f 348//348 343//343 356//356
f 356//356 343//343 342//342
f 342//342 331//331 357//357
f 357//357 331//331 332//332
f 332//332 327//327 337//337
f 274//274 335//335 237//237
f 344//344 217//217 339//339
f 268//268 209//209 260//260
f 260//260 209//209 212//212
f 259//259 212//212 235//235
f 257//257 214//214 255//255
f 255//255 214//214 121//121
f 114//114 113//113 282//282
f 68//68 112//112 106//106
f 424//424 403//403 387//387
f 424//424 387//387 388//388
f 388//388 384//384 373//373
f 343//343 348//348 347//347
f 316//316 345//345 315//315
f 314//314 299//299 304//304
f 304//304 308//308 245//245
f 232//232 242//242 223//223
f 232//232 223//223 194//194
f 194//194 223//223 192//192
f 192//192 223//223 190//190
f 200//200 201//201 319//319
f 421//421 417//417 425//425
f 425//425 417//417 426//426
f 426//426 417//417 416//416
f 427//427 416//416 409//409
f 428//428 409//409 408//408
f 429//429 408//408 403//403
f 429//429 403//403 424//424
f 430//430 424//424 431//431
f 431//431 373//373 432//432
f 432//432 373//373 370//370
f 432//432 370//370 360//360
f 433//433 422//422 421//421
f 424//424 388//388 431//431
f 431//431 388//388 373//373
f 434//434 334//334 435//435
f 435//435 334//334 292//292
f 277//277 279//279 338//338
f 276//276 338//338 335//335
f 276//276 335//335 274//274
f 274//274 237//237 262//262
f 271//271 344//344 269//269
f 301//301 254//254 341//341
f 284//284 253//253 252//252
f 427//427 409//409 428//428
f 354//354 348//348 355//355
f 355//355 348//348 356//356
f 357//357 332//332 358//358
f 358//358 332//332 337//337
f 266//266 340//340 310//310
f 265//265 254//254 301//301
f 288//288 336//336 286//286
f 286//286 336//336 284//284
f 433//433 421//421 425//425
f 426//426 416//416 427//427
f 428//428 408//408 429//429
f 429//429 424//424 430//430
f 354//354 360//360 349//349
f 354//354 349//349 348//348
f 337//337 333//333 326//326
f 326//326 333//333 334//334
f 326//326 334//334 434//434
f 292//292 238//238 279//279
f 277//277 338//338 276//276
f 261//261 236//236 272//272
f 272//272 236//236 271//271
f 269//269 344//344 339//339
f 269//269 339//339 436//436
f 436//436 339//339 268//268
f 310//310 340//340 258//258
f 301//301 341//341 300//300
f 300//300 341//341 288//288
f 336//336 253//253 284//284
f 252//252 114//114 282//282
f 283//283 282//282 112//112
f 283//283 112//112 69//69
f 423//423 437//437 438//438
f 438//438 437//437 439//439
f 439//439 440//440 441//441
f 441//441 442//442 443//443
f 443//443 442//442 444//444
f 445//445 422//422 446//446
f 446//446 422//422 433//433
f 447//447 433//433 425//425
f 447//447 425//425 448//448
f 448//448 425//425 449//449
f 426//426 427//427 450//450
f 428//428 429//429 451//451
f 451//451 429//429 452//452
f 452//452 429//429 430//430
f 360//360 354//354 353//353
f 449//449 425//425 426//426
f 449//449 426//426 453//453
f 430//430 431//431 432//432
f 434//434 435//435 313//313
f 323//323 435//435 292//292
f 323//323 292//292 320//320
f 320//320 292//292 280//280
f 278//278 277//277 291//291
f 270//270 269//269 436//436
f 267//267 266//266 310//310
f 310//310 258//258 289//289
f 285//285 284//284 309//309
f 309//309 284//284 252//252
f 309//309 252//252 283//283
f 283//283 69//69 94//94
f 57//57 68//68 116//116
f 454//454 455//455 439//439
f 422//422 437//437 423//423
f 439//439 441//441 438//438
f 438//438 441//441 443//443
f 418//418 415//415 456//456
f 456//456 415//415 420//420
f 457//457 418//418 456//456
f 441//441 440//440 458//458
f 456//456 420//420 444//444
f 459//459 441//441 458//458
f 22//22 460//460 461//461
f 461//461 462//462 463//463
f 463//463 464//464 465//465
f 466//466 467//467 468//468
f 457//457 469//469 470//470
f 460//460 471//471 472//472
f 464//464 473//473 474//474
f 474//474 475//475 467//467
f 476//476 477//477 478//478
f 1//1 445//445 479//479
f 480//480 481//481 353//353
f 479//479 445//445 446//446
f 446//446 433//433 447//447
f 482//482 432//432 477//477
f 477//477 432//432 481//481
f 330//330 342//342 357//357
f 358//358 337//337 325//325
f 325//325 337//337 326//326
f 313//313 435//435 311//311
f 311//311 435//435 323//323
f 303//303 278//278 249//249
f 249//249 278//278 302//302
f 200//200 290//290 273//273
f 200//200 273//273 318//318
f 317//317 436//436 268//268
f 164//164 310//310 289//289
f 160//160 289//289 172//172
f 158//158 172//172 265//265
f 158//158 265//265 171//171
f 453//453 426//426 450//450
f 450//450 427//427 483//483
f 483//483 427//427 428//428
f 483//483 428//428 451//451
f 452//452 430//430 482//482
f 482//482 430//430 432//432
f 481//481 432//432 360//360
f 481//481 360//360 353//353
f 356//356 342//342 330//330
f 326//326 434//434 313//313
f 320//320 280//280 303//303
f 318//318 273//273 272//272
f 318//318 272//272 270//270
f 270//270 436//436 317//317
f 289//289 255//255 172//172
f 172//172 255//255 265//265
f 76//76 94//94 69//69
f 454//454 437//437 30//30
f 454//454 30//30 23//23
f 23//23 25//25 454//454
f 455//455 454//454 25//25
f 439//439 437//437 454//454
f 440//440 439//439 455//455
f 443//443 423//423 438//438
f 443//443 420//420 423//423
f 440//440 455//455 484//484
f 455//455 18//18 484//484
f 455//455 25//25 18//18
f 18//18 25//25 20//20
f 484//484 18//18 17//17
f 484//484 17//17 440//440
f 17//17 458//458 440//440
f 443//443 444//444 420//420
f 17//17 19//19 485//485
f 485//485 19//19 36//36
f 35//35 34//34 28//28
f 17//17 485//485 458//458
f 441//441 459//459 442//442
f 486//486 444//444 442//442
f 487//487 457//457 456//456
f 487//487 456//456 444//444
f 488//488 485//485 36//36
f 488//488 36//36 35//35
f 35//35 21//21 488//488
f 459//459 486//486 442//442
f 487//487 469//469 457//457
f 487//487 444//444 486//486
f 459//459 458//458 465//465
f 465//465 458//458 489//489
f 489//489 458//458 485//485
f 489//489 485//485 488//488
f 490//490 418//418 470//470
f 491//491 487//487 492//492
f 466//466 486//486 459//459
f 465//465 489//489 463//463
f 463//463 489//489 488//488
f 490//490 411//411 418//418
f 469//469 487//487 491//491
f 492//492 486//486 468//468
f 466//466 459//459 465//465
f 463//463 488//488 461//461
f 22//22 461//461 21//21
f 466//466 465//465 467//467
f 466//466 468//468 486//486
f 470//470 418//418 457//457
f 492//492 487//487 486//486
f 461//461 488//488 21//21
f 493//493 470//470 469//469
f 469//469 491//491 478//478
f 467//467 465//465 464//464
f 494//494 461//461 460//460
f 8//8 495//495 22//22
f 22//22 495//495 460//460
f 461//461 494//494 462//462
f 470//470 493//493 490//490
f 478//478 491//491 476//476
f 476//476 491//491 492//492
f 464//464 463//463 462//462
f 29//29 9//9 11//11
f 490//490 493//493 480//480
f 496//496 492//492 468//468
f 467//467 464//464 474//474
f 472//472 494//494 460//460
f 352//352 419//419 497//497
f 496//496 468//468 467//467
f 473//473 464//464 462//462
f 462//462 494//494 498//498
f 498//498 494//494 472//472
f 495//495 471//471 460//460
f 498//498 499//499 462//462
f 462//462 499//499 473//473
f 467//467 475//475 496//496
f 496//496 476//476 492//492
f 490//490 480//480 497//497
f 419//419 352//352 350//350
f 419//419 490//490 497//497
f 493//493 469//469 478//478
f 495//495 8//8 7//7
f 495//495 7//7 2//2
f 495//495 2//2 471//471
f 473//473 500//500 474//474
f 496//496 475//475 476//476
f 478//478 481//481 493//493
f 493//493 481//481 480//480
f 481//481 478//478 477//477
f 477//477 476//476 475//475
f 448//448 473//473 499//499
f 498//498 472//472 446//446
f 446//446 472//472 471//471
f 37//37 4//4 3//3
f 3//3 4//4 38//38
f 1//1 479//479 471//471
f 500//500 450//450 474//474
f 475//475 482//482 477//477
f 357//357 328//328 330//330
f 355//355 497//497 353//353
f 353//353 497//497 480//480
f 475//475 483//483 451//451
f 483//483 474//474 450//450
f 453//453 473//473 449//449
f 449//449 473//473 448//448
f 448//448 499//499 447//447
f 447//447 499//499 498//498
f 447//447 498//498 446//446
f 479//479 446//446 471//471
f 500//500 453//453 450//450
f 475//475 451//451 452//452
f 475//475 452//452 482//482
f 330//330 350//350 351//351
f 351//351 352//352 355//355
f 355//355 352//352 497//497
f 483//483 475//475 474//474
f 500//500 473//473 453//453
f 471//471 2//2 1//1
f 2//2 37//37 3//3
f 30//30 445//445 1//1
f 324//324 326//326 313//313
f 312//312 324//324 313//313
f 191//191 318//318 270//270
f 317//317 268//268 168//168
f 168//168 268//268 176//176
f 170//170 287//287 147//147
f 95//95 94//94 76//76
f 445//445 30//30 437//437
f 445//445 437//437 422//422
f 421//421 423//423 420//420
f 411//411 490//490 419//419
f 413//413 419//419 350//350
f 406//406 350//350 329//329
f 374//374 249//249 302//302
f 374//374 302//302 319//319
f 319//319 302//302 291//291
f 191//191 317//317 166//166
f 166//166 317//317 168//168
f 159//159 172//172 158//158
f 138//138 171//171 170//170
f 234//234 293//293 340//340
f 341//341 115//115 107//107
f 57//57 116//116 16//16
f 16//16 116//116 105//105
f 16//16 105//105 34//34
f 12//12 83//83 118//118
f 38//38 6//6 47//47
f 38//38 47//47 31//31
f 24//24 31//31 63//63
f 24//24 63//63 39//39
f 24//24 39//39 32//32
f 33//33 32//32 50//50
f 33//33 50//50 26//26
f 26//26 50//50 13//13
f 26//26 13//13 15//15
f 28//28 34//34 91//91
f 28//28 91//91 10//10
f 10//10 91//91 12//12
f 12//12 118//118 11//11
f 11//11 118//118 5//5
f 38//38 31//31 30//30
# 1000 faces, 0 coords texture

# End of File
