# vtk DataFile Version 5.1
vtk output
ASCII
DATASET UNSTRUCTURED_GRID
POINTS 504 double
-0.004041200038 0.085216902196 0.00044090001029 0.0017399999779 0.086479000747 0.0016501999926 0.011944499798 0.084995001554 0.00036619999446 
0.02224669978 0.085156701505 0.0011078000534 0.037356100976 0.083205096424 0.0016780999722 0.037414498627 0.082012698054 0.00045089999912 
0.010723300278 0.086705997586 0.0027079998981 0.014247399755 0.086191996932 0.0042671998963 0.023594599217 0.085593499243 0.0036192999687 
0.026032799855 0.084527201951 0.0050432998687 0.02996419929 0.084845997393 0.0027594000567 0.038561999798 0.082881398499 0.0045154001564 
0.04351580143 0.077002599835 0.0050520999357 0.062892399728 0.071163997054 0.0053400001489 0.039114799351 0.078845702112 0.0057100998238 
0.063482902944 0.072178199887 0.0058686998673 -0.0064000999555 0.081009402871 0.004251500126 0.0030499999411 0.080951698124 0.00311410008 
0.0080105001107 0.081209100783 0.0044264001772 0.01795290038 0.080273896456 0.002783899894 0.0081113995984 0.084799297154 0.0057740998454 
0.0017578999978 0.085998602211 0.0050818999298 0.014669399709 0.082484602928 0.0001590000029 0.028024500236 0.080383703113 0.00055390002672 
0.016128100455 0.080978401005 0.0012135000434 0.027905499563 0.079564496875 0.0045119998977 0.020608700812 0.081570096314 0.0055844001472 
0.025861000642 0.083220802248 0.0058304001577 0.021038599312 0.085890799761 0.0022285000887 0.0090421997011 0.083838798106 1.6899999537e-05 
0.034883499146 0.08041460067 6.3699997554e-05 0.037500601262 0.077728003263 0.0018299999647 0.032733999193 0.07844260335 0.0027594000567 
0.04682470113 0.0787120983 0.0059210998006 0.015953300521 0.082833498716 0.0059604002163 0.0080506000668 0.082583099604 0.0057108001783 
0.011980700307 0.086245402694 0.0014695000136 0.028815800324 0.082886300981 0.00020890000451 0.042284000665 0.076967701316 0.0013369000517 
0.051288001239 0.074099898338 0.0027594000567 0.055840499699 0.073235303164 0.0011531000491 0.062066398561 0.070409998298 0.0030704999808 
0.051420200616 0.074542298913 0.0045444001444 0.072217799723 0.066390402615 0.0015565999784 0.075813703239 0.064276203513 0.0040298001841 
0.073784999549 0.068192198873 3.3600001188e-05 0.051153000444 0.077400103211 6.8599998485e-05 0.069010302424 0.072562299669 0.00065890001133 
0.054362900555 0.078254103661 0.00083149998682 0.04219270125 0.076578103006 0.0036230001133 0.088492400944 0.061821401119 0.00043869999354 
0.094068802893 0.05679250136 8.9100001787e-05 0.078688196838 0.067885898054 0.00061629997799 0.066243700683 0.074780799448 0.0017590000061 
0.058650698513 0.077855803072 0.0023986001033 0.050623800606 0.080379202962 0.0028087999672 0.082336001098 0.063273198903 0.0059536001645 
0.08131480217 0.062505602837 0.0054533998482 0.095993600786 0.052645798773 0.0055447001942 0.092514500022 0.053631100804 0.0022827999201 
0.096755102277 0.050189901143 0.0038260000292 0.085484996438 0.05862500146 0.0035939998925 0.047351498157 0.076441198587 0.00057039997773 
0.11046929657 0.035634100437 0.0047439998016 0.10198990256 0.045516200364 0.0044495998882 0.10619740188 0.040359400213 0.0033392999321 
0.085718996823 0.058976698667 0.0013652000343 0.098586000502 0.05348720029 0.0058126999065 0.1076778993 0.043812401593 0.0058670002036 
0.094753801823 0.058090299368 0.00088760000654 0.087614901364 0.063828103244 0.0017761000199 0.10158529878 0.051463898271 0.0003793000069 
0.10526330024 0.046292200685 5.4200001614e-05 0.096303403378 0.052397698164 0.00040379998973 0.11091720313 0.03755979985 0.00022079999326 
0.1073584035 0.041306398809 0.0055920998566 0.10874930024 0.044177699834 0.00043240000377 0.08551619947 0.065427497029 0.0032649999484 
0.075614802539 0.070867396891 0.0026130001061 0.077470496297 0.069656796753 0.0041833999567 0.068436197937 0.074056498706 0.0038586000446 
0.062957301736 0.075894601643 0.0045563997701 0.050520498306 0.080123201013 0.0042308000848 0.057595700026 0.076692797244 0.0055347997695 
0.11616600305 0.025098999962 0.0043755001388 0.11324910074 0.030177200213 0.0033392999321 0.06365930289 0.07151529938 0.0002921000123 
0.11772330105 0.030259300023 0.00029409999843 0.10276269913 0.052067499608 0.0017169000348 0.096104100347 0.058228999376 0.0026863999665 
0.044396299869 0.0806896016 0.0054569002241 0.09958139807 0.047949701548 0.0016503999941 0.11887770146 0.021341200918 0.005543100182 
0.11473870277 0.032442498952 0.0059655997902 0.1143720001 0.030810000375 0.0054677999578 0.070142202079 0.072311997414 0.0052654999308 
0.10648369789 0.048631500453 0.0025049999822 0.11304890364 0.039958298206 0.0010837999871 0.10643610358 0.040556501597 0.0016503999941 
0.083535097539 0.061722300947 0.00029269998777 0.0857803002 0.064819097519 0.0045444001444 0.09322629869 0.060188900679 0.0040020998567 
0.11910060048 0.017149500549 0.0042699999176 0.11707679927 0.022360699251 0.0024699000642 0.072094298899 0.070016600192 0.005901100114 
0.10101719946 0.05359910056 0.0044093998149 0.12265349925 0.018055899069 0.00026000000071 0.11887600273 0.022627400234 0.00020640000002 
0.12069220096 0.0064329998568 0.0036746999249 0.11943879724 0.014416400343 0.0024699000642 0.1135187 0.030329100788 0.0016503999941 
0.10942229629 0.044734299183 0.0046927002259 0.11383990198 0.040019501001 0.0026922000106 0.11880580336 0.031904101372 0.0023336000741 
0.12275200337 0.0089328996837 0.00018829999317 0.082181997597 0.065010398626 0.0058010001667 0.09354930371 0.058952599764 0.0051736999303 
0.041097298265 0.082806102931 0.0030000000261 0.12088929862 0.011902499944 0.00088700000197 0.1208434999 -0.00029789999826 0.0015227999538 
0.12114039809 -0.0060824002139 0.00048529999913 0.11757239699 -0.014725600369 0.0030489000492 0.11814910173 0.021272599697 0.0010751000373 
0.1105023995 -0.038184899837 0.0039705000818 0.10310920328 -0.04403379932 0.0056149000302 0.10397680104 -0.045094698668 0.0041298000142 
0.097367800772 -0.051234200597 0.0035059999209 0.087371997535 -0.058394800872 0.0034135000315 0.09238050133 -0.054703198373 0.0018120999448 
0.060477200896 -0.068633601069 0.00010789999942 0.064215198159 -0.068506203592 0.0005529000191 0.049791701138 -0.073665902019 0.00083199999062 
0.12190770358 0.0098876003176 0.0057065999135 0.12081480026 -0.0016307999613 0.0040783998556 0.12262549996 -0.00074669998139 0.0058321999386 
0.12242980301 -0.010922100395 0.0058919000439 0.11862690002 -0.02213970013 0.0058054998517 0.12273100019 -0.016267500818 0.004573199898 
0.11903010309 -0.025359099731 0.0042650001124 0.11506190151 -0.031746800989 0.0043623000383 0.10585059971 -0.043298400939 0.0018693000311 
0.10006719828 -0.04828729853 0.0014129000483 0.040084499866 -0.073467098176 5.7400000514e-05 0.062783196568 -0.065769396722 0.00034870000673 
0.049164101481 -0.069709397852 0.00085960002616 0.12464249879 0.0033291999716 0.0057156002149 0.12519329786 -0.0050162998959 0.0049426001497 
0.11240480095 -0.035707999021 0.0017951000482 0.092547602952 -0.05262869969 0.00030779998633 0.088626600802 -0.056494001299 0.0008256000001 
0.077170401812 -0.062425300479 0.00037880000309 0.081968903542 -0.057782199234 5.4299998737e-05 0.035831201822 -0.072084203362 0.0021055999678 
0.031046099961 -0.073549896479 0.0010159000522 0.018512699753 -0.074355602264 0.002414500108 0.005336499773 -0.074980102479 0.0027105000336 
0.005967900157 -0.075404703617 0.0045119998977 0.12015199661 -0.023193599656 0.0021208999678 0.11644770205 -0.030097100884 0.0019620000385 
0.10567960143 -0.041399300098 0.00040660001105 0.022901499644 -0.074092701077 0.0041638999246 0.063973098993 -0.063993297517 0.0016245000297 
0.12241560221 0.016745500267 0.0058670002036 0.096863903105 -0.046930201352 0.00012089999655 0.049925301224 -0.068507798016 0.0028792999219 
0.01418249961 -0.075531296432 0.0051906001754 0.080302998424 -0.056952800602 0.00070470001083 0.032811198384 -0.072844803333 0.0044760000892 
0.12580040097 0.0071405000053 0.0048289000988 0.12569609284 -0.0066203000024 0.003613299923 0.12388979644 -0.013658899814 0.0020683999173 
0.1136958003 -0.031726900488 0.00047219998669 -0.0038058999926 -0.074996903539 0.0038630999625 0.074213899672 -0.059116598219 0.0024610001128 
0.061522200704 -0.064757198095 0.0039141997695 0.049530401826 -0.069338403642 0.0048604002222 0.11648420244 -0.021671000868 0.005668700207 
0.11312069744 -0.026143200696 0.005061800126 0.10996340215 -0.032550700009 0.0057171001099 0.11126270145 -0.034528698772 0.005671699997 
0.10387410223 -0.040145698935 0.0058547002263 0.072787202895 -0.066315099597 0.0027129999362 0.066258996725 -0.068801999092 0.0042657000013 
0.062977001071 -0.070164598525 0.0018693000311 0.038109000772 -0.077127598226 0.0016150999581 0.036503698677 -0.075644001365 0.00015999999596 
0.027922499925 -0.078309096396 0.00088140001753 0.019740799442 -0.077313601971 4.8000001698e-05 0.1203341037 -0.013131800108 0.0059202997945 
-0.013132999651 -0.077017299831 0.0059679998085 0.0056721000001 -0.077223099768 0.0058626001701 -0.0067079998553 -0.076164796948 0.0055463998578 
-0.034688398242 -0.070857599378 0.0031890999526 -0.020432699472 -0.074047498405 0.0047039999627 -0.020354999229 -0.073471702635 0.0029527000152 
-0.0085457004607 -0.074944198132 0.0017418999923 0.018945800141 -0.075759701431 0.00038740001037 0.074507400393 -0.064699597657 0.0010954999598 
0.081726700068 -0.061553999782 0.0020433000755 -0.010705200024 -0.078485198319 0.0057912999764 -0.032978501171 -0.074579700828 0.0059520001523 
-0.018207700923 -0.076575800776 2.5600000299e-05 -0.00064420001581 -0.078368999064 0.00011020000238 -0.015043900348 -0.078480198979 0.00043519999599 
0.030587799847 -0.078782297671 0.0028564999811 0.038163799793 -0.077407702804 0.0037201000378 0.051567900926 -0.074188500643 0.0032426000107 
0.077982001007 -0.063393101096 0.0042657000013 0.070065297186 -0.06545510143 0.0057288999669 0.083675600588 -0.05943480134 0.0051553999074 
0.091064698994 -0.052457600832 0.0059258998372 0.079676300287 -0.0590707995 0.0059238001704 0.11449570209 -0.022329000756 0.0040461998433 
0.11619280279 -0.018852099776 0.0017677999567 0.0571119003 -0.071458600461 0.0052314000204 0.058536998928 -0.071901597083 0.0038079998922 
0.046663399786 -0.075018897653 0.0046489001252 0.018690800294 -0.080010697246 0.0018819000106 0.007357600145 -0.08049479872 0.0015192000428 
0.016357699409 -0.079268299043 0.00064079998992 0.0021647999529 -0.079797700047 0.00063010002486 0.0047177001834 -0.075729198754 0.0010311000515 
-0.025792099535 -0.074431799352 0.0057524000295 0.050340998918 -0.074351400137 0.0019604000263 0.0095726000145 -0.078784801066 0.00018950000231 
-0.0048095998354 -0.076388798654 0.00039900001138 -0.019910100847 -0.074880599976 0.00054249999812 -0.033015601337 -0.073018796742 0.00030189999961 
-0.025243900716 -0.073003202677 0.001624400029 -0.039452400059 -0.07019560039 0.0015403999714 -0.048438098282 -0.06754130125 0.0044383001514 
-0.034813400358 -0.07142829895 0.0047753001563 0.11976979673 -0.0097671998665 0.0048981001601 0.096751600504 -0.045297399163 0.0051752999425 
0.087862402201 -0.051754400134 0.0047208000906 0.017732800916 -0.080210499465 0.0037835000549 -0.0036939000711 -0.080547198653 0.0017813999439 
-0.039131801575 -0.073019899428 5.6600001699e-05 -0.047194499522 -0.068959102035 0.00050560000818 -0.06094859913 -0.062555000186 0.0040501998737 
-0.048316799104 -0.06716530025 0.0029021000955 -0.043192900717 -0.070504099131 0.0056738001294 -0.060873601586 -0.062381200492 0.0029021000955 
0.093130603433 -0.053367499262 0.0050543998368 -0.055995799601 -0.065823100507 0.0053952001035 -0.05505309999 -0.067853197455 0.0059711998329 
-0.046953998506 -0.071728400886 0.0058009000495 -0.057389900088 -0.068674996495 0.0055301999673 -0.047786898911 -0.073386698961 0.0039051000495 
-0.053302899003 -0.071066096425 0.0048096999526 -0.058975800872 -0.069563798606 0.0036267000251 0.12122389674 0.026489799842 0.0043997000903 
0.12263070047 0.023303799331 0.001920199953 0.12226419896 -0.0093518998474 3.8400001358e-05 0.11716669798 -0.021929500625 7.2399998317e-05 
0.11013150215 -0.029400300235 0.0027260000352 0.11397740245 -0.025552900508 0.00055210001301 0.10616110265 -0.035165801644 0.0015516000567 
0.07867539674 -0.05723920092 0.0046235998161 0.065214402974 -0.064803898335 0.0055565000512 0.0073636998422 -0.080806396902 0.0033791000023 
-0.0017470000312 -0.08080240339 0.0035749000963 -0.074195198715 -0.056095000356 0.0041618999094 -0.069270700216 -0.062451899052 0.0058853002265 
0.12095309794 -0.018037900329 0.00039510001079 0.094121098518 -0.046438798308 0.0035552000627 0.085384599864 -0.052979599684 0.0020145999733 
0.047946698964 -0.071103602648 0.0057974001393 0.029684299603 -0.077131003141 0.0057283001952 0.01675960049 -0.078042902052 0.0058765001595 
0.02540080063 -0.078881703317 0.0048317001201 0.012508000247 -0.079645998776 0.0052530998364 0.0034626999404 -0.079942502081 0.0052314000204 
-0.012150400318 -0.080229103565 0.0030672000721 -0.019827499986 -0.079198800027 0.0041787000373 -0.023645499721 -0.078856296837 0.0021339999512 
-0.035296399146 -0.076340302825 0.0014860000229 -0.041937600821 -0.075047001243 0.002140100114 -0.04375270009 -0.073141597211 0.00046750000911 
-0.055482700467 -0.070229001343 0.0011122999713 -0.05272879824 -0.066020600498 0.0015423999866 0.11582569778 0.036300498992 0.0046854000539 
0.11604180187 0.033375199884 0.0057470002212 0.12431319803 0.019008399919 0.0032633999363 0.12499590218 0.014128199778 0.0046469001099 
0.12605670094 0.011271500029 0.0030978999566 0.12658989429 0.0030877001118 0.0033013001084 0.12611879408 0.0039148000069 0.0015565999784 
0.10948040336 -0.033772200346 0.0001423000067 -0.010781399906 -0.079565696418 0.0050002001226 -0.028292799369 -0.077842600644 0.0041640000418 
-0.059179801494 -0.066945396364 0.00015619999613 0.10637129843 -0.035061400384 0.0046471999958 -0.061348799616 -0.063498698175 0.0006180999917 
-0.068798400462 -0.059116698802 0.0015160000185 -0.075778998435 -0.054853901267 0.0029045999981 -0.082350201905 -0.050567798316 0.0027594000567 
-0.08350790292 -0.054440900683 0.0058165001683 -0.084069103003 -0.052284799516 0.0058861002326 0.12584260106 -0.003964799922 0.0017793000443 
0.12392610312 -0.0095250001177 0.00058499997249 -0.038381200284 -0.07593280077 0.0038719999138 -0.051254298538 -0.072405599058 0.0026636000257 
-0.069101199508 -0.059700001031 0.0052530998364 -0.094055101275 -0.041711598635 0.0047745001502 -0.084886401892 -0.049114398658 0.0042483001016 
-0.093690596521 -0.04132629931 0.0032617000397 -0.069619499147 -0.060719199479 0.0058733001351 0.12215200067 0.021802999079 0.0053543997929 
0.097035802901 -0.044698800892 0.0012179999612 -0.081512697041 -0.057332400233 0.001022899989 -0.09010989964 -0.050801701844 0.00081330002286 
-0.084651097655 -0.053064901382 6.3699997554e-05 -0.08215290308 -0.051964499056 0.0052779000252 -0.097119599581 -0.040600501001 0.0057958001271 
-0.10567189753 -0.028036300093 0.0050818999298 0.024007899687 -0.075469702482 0.0056901997887 0.0015272999881 -0.0787307024 0.005885399878 
-0.029847700149 -0.076196797192 0.0056247999892 -0.062031500041 -0.0679358989 0.0016038999893 -0.06834500283 -0.065503202379 0.003095000051 
-0.074127599597 -0.062413100153 0.0020475999918 -0.071843199432 -0.062664501369 0.00078709999798 -0.097470000386 -0.042368099093 5.1200000598e-05 
-0.10401190072 -0.03346100077 7.3199997132e-05 -0.091951102018 -0.045427501202 0.00020320000476 -0.10249879956 -0.031468100846 0.0034761999268 
-0.11169119924 -0.021657699719 0.00013270000636 -0.11663480103 -0.0079757003114 9.560000035e-05 -0.11437360197 -0.0074972999282 0.00086400000146 
-0.11155030131 -0.016082599759 0.0045782001689 -0.10603679717 -0.026409499347 0.002622500062 -0.088522300124 -0.046256098896 0.0017589000054 
-0.075320199132 -0.056330598891 0.00064669997664 -0.013403099962 -0.079699397087 0.0013511000434 0.12509579957 0.013014400378 0.0012202999787 
-0.098975598812 -0.036967501044 0.0010762000456 -0.026027400047 -0.077745996416 0.0009586000233 0.050314798951 -0.072662197053 0.0057147000916 
0.10026299953 -0.040941499174 0.0035260000732 0.12469010055 0.0039920001291 0.00029039999936 -0.11286149919 -0.010646400042 0.0028129001148 
-0.11476290226 -0.0070278001949 0.0052543999627 0.035472501069 -0.076970301569 0.0052314000204 -0.10737089813 -0.029497899115 0.0058826999739 
-0.11453200132 -0.013652900234 0.0059100999497 -0.1168628037 0.00029269998777 0.0058837998658 -0.11511339992 0.0056714001112 0.0048237000592 
-0.11562979966 0.010930900462 0.0056253001094 -0.11663269997 0.0030916000251 0.00018350000028 -0.11497019976 0.0056623001583 0.0013975000475 
-0.11498349905 0.011668399908 0.00069870002335 -0.11108650267 0.021978799254 0.0036549000069 -0.11352170259 0.014875699766 0.0040784999728 
-0.11395560205 0.01111190021 0.0027817999944 -0.11453890055 0.00011429999722 0.0030489000492 -0.10982889682 -0.020019799471 0.0015919000143 
-0.1067577973 -0.026847200468 0.00076859997353 -0.11599600315 0.016531199217 0.0059647997841 -0.113102898 0.021473400295 0.0057259001769 
-0.11875449866 0.00040920000174 0.0056746001355 -0.098084099591 -0.042964100838 0.0056515000761 -0.11488360167 -0.018901800737 0.0053413999267 
-0.11799480021 0.01213959977 0.0056540002115 -0.075611896813 -0.060687001795 0.0051524997689 -0.10411520302 -0.037992600352 0.0045704999939 
-0.11007650197 -0.028415799141 0.0054092998616 -0.11833889782 -0.0090370997787 0.0049402997829 -0.11593279988 0.023097900674 0.0050583002158 
-0.11193370074 0.02879120037 0.0059076999314 -0.082934603095 -0.056723300368 0.0046195001341 -0.092850998044 -0.049231398851 0.004752300214 
-0.11173780262 0.031169699505 0.0054835001938 -0.043564599007 -0.074011698365 0.0049569001421 -0.066185601056 -0.066073000431 0.004551500082 
-0.09880129993 -0.043954301625 0.004541600123 -0.11989390105 0.0085286004469 0.0042399000376 -0.10973919928 -0.030861599371 0.0040891999379 
-0.11990670115 -0.0041888002306 0.0034409998916 -0.12013819814 0.00050379999448 0.0042356001213 -0.11883000284 0.015909900889 0.0035727999639 
-0.11659129709 -0.017571499571 0.003572100075 -0.11261049658 0.032329101115 0.0032554001082 -0.10895550251 0.037987101823 0.0041547999717 
-0.085320197046 -0.055664401501 0.0030243000947 -0.11628250033 0.024681299925 0.0032162999269 -0.10347159952 0.045469000936 0.0033330000006 
-0.10560960323 0.041468799114 0.0051446999423 -0.077038802207 -0.060998801142 0.0030000000261 -0.092081002891 -0.050571799278 0.0026277001016 
-0.11429840326 -0.023186400533 0.0026809999254 -0.1009188965 -0.04225480184 0.0022625001147 -0.10611379892 -0.036258500069 0.0023374999873 
-0.11827670038 -0.012087699957 0.0019370999653 -0.10783600062 0.039823699743 0.0021230999846 -0.10980030149 -0.030624000356 0.0016209000023 
-0.12032339722 0.00054129998898 0.0020900000818 -0.11994829774 0.0097746001557 0.0020735999569 -0.11299029738 0.030695000663 0.0014089000179 
-0.10211150348 0.045503798872 0.00085529999342 -0.099067099392 -0.042991500348 0.00091870001052 -0.11757849902 0.019365599379 0.001347500016 
-0.098329603672 0.050886299461 0.0029919000808 -0.1143432036 -0.021071000025 0.00094830000307 -0.1185169965 -0.0069749997929 0.00077260000398 
-0.11908090115 0.004125600215 0.00058739999076 -0.087284296751 0.059036601335 0.00079369999003 -0.09062500298 0.05762970075 0.002560300054 
-0.080453403294 0.064589999616 0.0019934999291 -0.10620170087 -0.033990900964 0.00055180001073 -0.10816629976 0.03658920154 0.0003854999959 
-0.095073796809 0.052286699414 0.00058499997249 -0.11720140278 0.016351899132 0.00045520000276 -0.11296720058 0.028412699699 0.00038979999954 
-0.078616596758 0.063480496407 0.00019599999359 -0.07319559902 0.068369500339 0.00126369996 -0.061255898327 0.073078602552 0.00052270002197 
-0.094251401722 0.05051869899 4.4699998398e-05 -0.11388710141 0.022171000019 2.5600000299e-05 -0.066142201424 0.068686798215 0.00010840000323 
-0.05196819827 0.07585939765 0.00015209999401 -0.035159699619 0.080265201628 7.6500000432e-05 -0.046831600368 0.076439999044 3.6800000089e-05 
-0.099985003471 0.048558801413 0.0047133001499 -0.049551401287 0.078018896282 0.00089229998412 -0.061972100288 0.073962301016 0.0017764000222 
-0.072501502931 0.069400198758 0.0030974999536 -0.08182580024 0.063805602491 0.0039304001257 -0.090814903378 0.057062301785 0.0045273001306 
-0.097390502691 0.049971401691 0.005460599903 -0.10473369807 0.041057601571 0.0057578999549 -0.10596189648 0.036667101085 0.0059246001765 
-0.038174498826 0.080755800009 0.00058340001851 -0.080354399979 -0.054686401039 7.6500000432e-05 -0.071122698486 -0.061336901039 8.2799997472e-05 
0.037238601595 -0.074555903673 0.0059663997963 -0.019911499694 0.081729702652 5.5799999245e-05 -0.034995499998 0.078013598919 0.00058529997477 
-0.02331010066 0.079786598682 0.00090789998649 -0.02073100023 0.079392999411 0.0024387999438 -0.036520998925 0.076462097466 0.0024923998863 
-0.045781098306 0.073985002935 0.0024610001128 -0.051898598671 0.07347329706 0.00036569999065 -0.060076698661 0.069243997335 0.0012790999608 
-0.016155000776 0.083590097725 0.00015180000628 -0.023037699983 0.084373101592 0.0013804000337 -0.034207299352 0.082533501089 0.0015988999512 
-0.045399200171 0.080102801323 0.0029539000243 -0.05322510004 0.077605396509 0.0025728000328 -0.067249700427 0.071590997279 0.0043791001663 
-0.081337496638 0.063051298261 0.0052478997968 -0.088375598192 0.05738100037 0.0056587997824 -0.058807101101 0.075513802469 0.0035194000229 
-0.0070866998285 0.082016997039 0.00050560000818 -0.0026223000605 0.081145301461 0.0016452999553 -0.076005898416 0.062359198928 0.00049010000657 
-0.091478802264 0.051245901734 0.00047090000589 -0.021396499127 0.079610601068 0.0044748000801 -0.040388599038 0.075789198279 0.0045095998794 
-0.0086246002465 0.086109399796 0.0043269000016 -0.010114699602 0.084407202899 0.005785100162 -0.032587300986 0.081631697714 0.005615899805 
-0.030112199485 0.080520302057 0.0059616002254 -0.047898899764 0.076641000807 0.005894199945 -0.038583401591 0.077296301723 0.0055569000542 
-0.051524098963 0.072753302753 0.0049569001421 -0.059993099421 0.070790797472 0.0057846000418 -0.06594529748 0.066964402795 0.0050161997788 
-0.090912103653 0.050211999565 0.0015368999448 -0.09983099997 0.042393598706 0.00065040000482 -0.0099275996909 0.086202800274 0.002011799952 
-0.020237600431 0.085226997733 0.0037467998918 -0.048684999347 0.078370600939 0.0049197999761 -0.062820203602 0.071611300111 0.005816699937 
-0.078376896679 0.062441200018 0.005943399854 -0.085445098579 0.055370699614 0.0049991002306 -0.095140397549 0.047588501126 0.0055126999505 
-0.092053197324 0.048703499138 0.0033811999019 -0.014364699833 0.085015401244 0.00078619999113 -0.10653799772 0.031437799335 0.0031685999129 
-0.10417579859 0.035996600986 0.0047443998046 -0.094602398574 0.050737101585 0.0059426999651 -0.074946202338 0.066941902041 0.0051094000228 
-0.0070123001933 0.080654896796 0.0029021000955 -0.011651700363 0.081664897501 0.0055403998122 -0.059489898384 0.068940803409 0.0035763001069 
-0.076537400484 0.060799598694 0.0014652999816 -0.0078095998615 0.083506502211 0.0059823999181 -0.023468200117 0.080779701471 0.0057755000889 
-0.10813450068 0.032308898866 0.00019580000662 -0.081994198263 0.0567667 0.0025514001027 -0.074750900269 0.061536099762 0.0037330999039 
-0.10100679845 0.039507899433 0.002183200093 -0.020121300593 0.084412701428 0.0051269000396 -0.00085130002117 0.086763203144 0.0034845001064 
-0.074191898108 0.063431203365 0.0056087002158 -0.11121600121 0.022211600095 0.0020228999201 -0.029152000323 0.083885699511 0.003424399998 
-0.036589898169 0.082153603435 0.0041844998486 -0.059585399926 0.074280098081 0.0051906998269 0.026848707016 0.082787434667 0.0032135752591 
0.05068518645 -0.071967496317 0.0035659057343 0.08225865763 0.064137269169 0.0035726426886 0.084841848247 0.06251260325 0.0029882014437 

CELLS 1964 7852
OFFSETS vtktypeint64
0 4 8 12 16 20 24 28 32 
36 40 44 48 52 56 60 64 68 
72 76 80 84 88 92 96 100 104 
108 112 116 120 124 128 132 136 140 
144 148 152 156 160 164 168 172 176 
180 184 188 192 196 200 204 208 212 
216 220 224 228 232 236 240 244 248 
252 256 260 264 268 272 276 280 284 
288 292 296 300 304 308 312 316 320 
324 328 332 336 340 344 348 352 356 
360 364 368 372 376 380 384 388 392 
396 400 404 408 412 416 420 424 428 
432 436 440 444 448 452 456 460 464 
468 472 476 480 484 488 492 496 500 
504 508 512 516 520 524 528 532 536 
540 544 548 552 556 560 564 568 572 
576 580 584 588 592 596 600 604 608 
612 616 620 624 628 632 636 640 644 
648 652 656 660 664 668 672 676 680 
684 688 692 696 700 704 708 712 716 
720 724 728 732 736 740 744 748 752 
756 760 764 768 772 776 780 784 788 
792 796 800 804 808 812 816 820 824 
828 832 836 840 844 848 852 856 860 
864 868 872 876 880 884 888 892 896 
900 904 908 912 916 920 924 928 932 
936 940 944 948 952 956 960 964 968 
972 976 980 984 988 992 996 1000 1004 
1008 1012 1016 1020 1024 1028 1032 1036 1040 
1044 1048 1052 1056 1060 1064 1068 1072 1076 
1080 1084 1088 1092 1096 1100 1104 1108 1112 
1116 1120 1124 1128 1132 1136 1140 1144 1148 
1152 1156 1160 1164 1168 1172 1176 1180 1184 
1188 1192 1196 1200 1204 1208 1212 1216 1220 
1224 1228 1232 1236 1240 1244 1248 1252 1256 
1260 1264 1268 1272 1276 1280 1284 1288 1292 
1296 1300 1304 1308 1312 1316 1320 1324 1328 
1332 1336 1340 1344 1348 1352 1356 1360 1364 
1368 1372 1376 1380 1384 1388 1392 1396 1400 
1404 1408 1412 1416 1420 1424 1428 1432 1436 
1440 1444 1448 1452 1456 1460 1464 1468 1472 
1476 1480 1484 1488 1492 1496 1500 1504 1508 
1512 1516 1520 1524 1528 1532 1536 1540 1544 
1548 1552 1556 1560 1564 1568 1572 1576 1580 
1584 1588 1592 1596 1600 1604 1608 1612 1616 
1620 1624 1628 1632 1636 1640 1644 1648 1652 
1656 1660 1664 1668 1672 1676 1680 1684 1688 
1692 1696 1700 1704 1708 1712 1716 1720 1724 
1728 1732 1736 1740 1744 1748 1752 1756 1760 
1764 1768 1772 1776 1780 1784 1788 1792 1796 
1800 1804 1808 1812 1816 1820 1824 1828 1832 
1836 1840 1844 1848 1852 1856 1860 1864 1868 
1872 1876 1880 1884 1888 1892 1896 1900 1904 
1908 1912 1916 1920 1924 1928 1932 1936 1940 
1944 1948 1952 1956 1960 1964 1968 1972 1976 
1980 1984 1988 1992 1996 2000 2004 2008 2012 
2016 2020 2024 2028 2032 2036 2040 2044 2048 
2052 2056 2060 2064 2068 2072 2076 2080 2084 
2088 2092 2096 2100 2104 2108 2112 2116 2120 
2124 2128 2132 2136 2140 2144 2148 2152 2156 
2160 2164 2168 2172 2176 2180 2184 2188 2192 
2196 2200 2204 2208 2212 2216 2220 2224 2228 
2232 2236 2240 2244 2248 2252 2256 2260 2264 
2268 2272 2276 2280 2284 2288 2292 2296 2300 
2304 2308 2312 2316 2320 2324 2328 2332 2336 
2340 2344 2348 2352 2356 2360 2364 2368 2372 
2376 2380 2384 2388 2392 2396 2400 2404 2408 
2412 2416 2420 2424 2428 2432 2436 2440 2444 
2448 2452 2456 2460 2464 2468 2472 2476 2480 
2484 2488 2492 2496 2500 2504 2508 2512 2516 
2520 2524 2528 2532 2536 2540 2544 2548 2552 
2556 2560 2564 2568 2572 2576 2580 2584 2588 
2592 2596 2600 2604 2608 2612 2616 2620 2624 
2628 2632 2636 2640 2644 2648 2652 2656 2660 
2664 2668 2672 2676 2680 2684 2688 2692 2696 
2700 2704 2708 2712 2716 2720 2724 2728 2732 
2736 2740 2744 2748 2752 2756 2760 2764 2768 
2772 2776 2780 2784 2788 2792 2796 2800 2804 
2808 2812 2816 2820 2824 2828 2832 2836 2840 
2844 2848 2852 2856 2860 2864 2868 2872 2876 
2880 2884 2888 2892 2896 2900 2904 2908 2912 
2916 2920 2924 2928 2932 2936 2940 2944 2948 
2952 2956 2960 2964 2968 2972 2976 2980 2984 
2988 2992 2996 3000 3004 3008 3012 3016 3020 
3024 3028 3032 3036 3040 3044 3048 3052 3056 
3060 3064 3068 3072 3076 3080 3084 3088 3092 
3096 3100 3104 3108 3112 3116 3120 3124 3128 
3132 3136 3140 3144 3148 3152 3156 3160 3164 
3168 3172 3176 3180 3184 3188 3192 3196 3200 
3204 3208 3212 3216 3220 3224 3228 3232 3236 
3240 3244 3248 3252 3256 3260 3264 3268 3272 
3276 3280 3284 3288 3292 3296 3300 3304 3308 
3312 3316 3320 3324 3328 3332 3336 3340 3344 
3348 3352 3356 3360 3364 3368 3372 3376 3380 
3384 3388 3392 3396 3400 3404 3408 3412 3416 
3420 3424 3428 3432 3436 3440 3444 3448 3452 
3456 3460 3464 3468 3472 3476 3480 3484 3488 
3492 3496 3500 3504 3508 3512 3516 3520 3524 
3528 3532 3536 3540 3544 3548 3552 3556 3560 
3564 3568 3572 3576 3580 3584 3588 3592 3596 
3600 3604 3608 3612 3616 3620 3624 3628 3632 
3636 3640 3644 3648 3652 3656 3660 3664 3668 
3672 3676 3680 3684 3688 3692 3696 3700 3704 
3708 3712 3716 3720 3724 3728 3732 3736 3740 
3744 3748 3752 3756 3760 3764 3768 3772 3776 
3780 3784 3788 3792 3796 3800 3804 3808 3812 
3816 3820 3824 3828 3832 3836 3840 3844 3848 
3852 3856 3860 3864 3868 3872 3876 3880 3884 
3888 3892 3896 3900 3904 3908 3912 3916 3920 
3924 3928 3932 3936 3940 3944 3948 3952 3956 
3960 3964 3968 3972 3976 3980 3984 3988 3992 
3996 4000 4004 4008 4012 4016 4020 4024 4028 
4032 4036 4040 4044 4048 4052 4056 4060 4064 
4068 4072 4076 4080 4084 4088 4092 4096 4100 
4104 4108 4112 4116 4120 4124 4128 4132 4136 
4140 4144 4148 4152 4156 4160 4164 4168 4172 
4176 4180 4184 4188 4192 4196 4200 4204 4208 
4212 4216 4220 4224 4228 4232 4236 4240 4244 
4248 4252 4256 4260 4264 4268 4272 4276 4280 
4284 4288 4292 4296 4300 4304 4308 4312 4316 
4320 4324 4328 4332 4336 4340 4344 4348 4352 
4356 4360 4364 4368 4372 4376 4380 4384 4388 
4392 4396 4400 4404 4408 4412 4416 4420 4424 
4428 4432 4436 4440 4444 4448 4452 4456 4460 
4464 4468 4472 4476 4480 4484 4488 4492 4496 
4500 4504 4508 4512 4516 4520 4524 4528 4532 
4536 4540 4544 4548 4552 4556 4560 4564 4568 
4572 4576 4580 4584 4588 4592 4596 4600 4604 
4608 4612 4616 4620 4624 4628 4632 4636 4640 
4644 4648 4652 4656 4660 4664 4668 4672 4676 
4680 4684 4688 4692 4696 4700 4704 4708 4712 
4716 4720 4724 4728 4732 4736 4740 4744 4748 
4752 4756 4760 4764 4768 4772 4776 4780 4784 
4788 4792 4796 4800 4804 4808 4812 4816 4820 
4824 4828 4832 4836 4840 4844 4848 4852 4856 
4860 4864 4868 4872 4876 4880 4884 4888 4892 
4896 4900 4904 4908 4912 4916 4920 4924 4928 
4932 4936 4940 4944 4948 4952 4956 4960 4964 
4968 4972 4976 4980 4984 4988 4992 4996 5000 
5004 5008 5012 5016 5020 5024 5028 5032 5036 
5040 5044 5048 5052 5056 5060 5064 5068 5072 
5076 5080 5084 5088 5092 5096 5100 5104 5108 
5112 5116 5120 5124 5128 5132 5136 5140 5144 
5148 5152 5156 5160 5164 5168 5172 5176 5180 
5184 5188 5192 5196 5200 5204 5208 5212 5216 
5220 5224 5228 5232 5236 5240 5244 5248 5252 
5256 5260 5264 5268 5272 5276 5280 5284 5288 
5292 5296 5300 5304 5308 5312 5316 5320 5324 
5328 5332 5336 5340 5344 5348 5352 5356 5360 
5364 5368 5372 5376 5380 5384 5388 5392 5396 
5400 5404 5408 5412 5416 5420 5424 5428 5432 
5436 5440 5444 5448 5452 5456 5460 5464 5468 
5472 5476 5480 5484 5488 5492 5496 5500 5504 
5508 5512 5516 5520 5524 5528 5532 5536 5540 
5544 5548 5552 5556 5560 5564 5568 5572 5576 
5580 5584 5588 5592 5596 5600 5604 5608 5612 
5616 5620 5624 5628 5632 5636 5640 5644 5648 
5652 5656 5660 5664 5668 5672 5676 5680 5684 
5688 5692 5696 5700 5704 5708 5712 5716 5720 
5724 5728 5732 5736 5740 5744 5748 5752 5756 
5760 5764 5768 5772 5776 5780 5784 5788 5792 
5796 5800 5804 5808 5812 5816 5820 5824 5828 
5832 5836 5840 5844 5848 5852 5856 5860 5864 
5868 5872 5876 5880 5884 5888 5892 5896 5900 
5904 5908 5912 5916 5920 5924 5928 5932 5936 
5940 5944 5948 5952 5956 5960 5964 5968 5972 
5976 5980 5984 5988 5992 5996 6000 6004 6008 
6012 6016 6020 6024 6028 6032 6036 6040 6044 
6048 6052 6056 6060 6064 6068 6072 6076 6080 
6084 6088 6092 6096 6100 6104 6108 6112 6116 
6120 6124 6128 6132 6136 6140 6144 6148 6152 
6156 6160 6164 6168 6172 6176 6180 6184 6188 
6192 6196 6200 6204 6208 6212 6216 6220 6224 
6228 6232 6236 6240 6244 6248 6252 6256 6260 
6264 6268 6272 6276 6280 6284 6288 6292 6296 
6300 6304 6308 6312 6316 6320 6324 6328 6332 
6336 6340 6344 6348 6352 6356 6360 6364 6368 
6372 6376 6380 6384 6388 6392 6396 6400 6404 
6408 6412 6416 6420 6424 6428 6432 6436 6440 
6444 6448 6452 6456 6460 6464 6468 6472 6476 
6480 6484 6488 6492 6496 6500 6504 6508 6512 
6516 6520 6524 6528 6532 6536 6540 6544 6548 
6552 6556 6560 6564 6568 6572 6576 6580 6584 
6588 6592 6596 6600 6604 6608 6612 6616 6620 
6624 6628 6632 6636 6640 6644 6648 6652 6656 
6660 6664 6668 6672 6676 6680 6684 6688 6692 
6696 6700 6704 6708 6712 6716 6720 6724 6728 
6732 6736 6740 6744 6748 6752 6756 6760 6764 
6768 6772 6776 6780 6784 6788 6792 6796 6800 
6804 6808 6812 6816 6820 6824 6828 6832 6836 
6840 6844 6848 6852 6856 6860 6864 6868 6872 
6876 6880 6884 6888 6892 6896 6900 6904 6908 
6912 6916 6920 6924 6928 6932 6936 6940 6944 
6948 6952 6956 6960 6964 6968 6972 6976 6980 
6984 6988 6992 6996 7000 7004 7008 7012 7016 
7020 7024 7028 7032 7036 7040 7044 7048 7052 
7056 7060 7064 7068 7072 7076 7080 7084 7088 
7092 7096 7100 7104 7108 7112 7116 7120 7124 
7128 7132 7136 7140 7144 7148 7152 7156 7160 
7164 7168 7172 7176 7180 7184 7188 7192 7196 
7200 7204 7208 7212 7216 7220 7224 7228 7232 
7236 7240 7244 7248 7252 7256 7260 7264 7268 
7272 7276 7280 7284 7288 7292 7296 7300 7304 
7308 7312 7316 7320 7324 7328 7332 7336 7340 
7344 7348 7352 7356 7360 7364 7368 7372 7376 
7380 7384 7388 7392 7396 7400 7404 7408 7412 
7416 7420 7424 7428 7432 7436 7440 7444 7448 
7452 7456 7460 7464 7468 7472 7476 7480 7484 
7488 7492 7496 7500 7504 7508 7512 7516 7520 
7524 7528 7532 7536 7540 7544 7548 7552 7556 
7560 7564 7568 7572 7576 7580 7584 7588 7592 
7596 7600 7604 7608 7612 7616 7620 7624 7628 
7632 7636 7640 7644 7648 7652 7656 7660 7664 
7668 7672 7676 7680 7684 7688 7692 7696 7700 
7704 7708 7712 7716 7720 7724 7728 7732 7736 
7740 7744 7748 7752 7756 7760 7764 7768 7772 
7776 7780 7784 7788 7792 7796 7800 7804 7808 
7812 7816 7820 7824 7828 7832 7836 7840 7844 
7848 7852 
CONNECTIVITY vtktypeint64
449 473 467 419 416 442 443 419 487 
16 35 484 399 469 394 410 375 323 
306 325 315 331 366 356 298 304 305 
371 230 302 249 240 360 405 379 347 
479 489 382 383 414 417 455 456 294 
322 320 263 77 70 99 52 467 415 
495 426 330 315 344 362 348 363 358 
353 155 260 224 156 454 438 439 453 
82 46 62 55 225 201 203 195 34 
8 7 9 47 13 86 41 13 42 
15 83 347 405 379 376 466 499 472 
465 41 95 47 13 109 284 118 335 
478 444 471 445 394 469 492 410 1 
0 494 470 455 414 415 419 429 431 
480 476 489 410 382 383 498 437 461 
440 174 214 164 129 401 496 398 385 
462 437 461 446 412 351 397 405 349 
404 405 328 498 497 461 446 238 302 
279 278 418 398 413 412 295 333 294 
262 201 225 203 202 439 440 457 438 
236 203 225 202 421 436 437 422 275 
201 237 226 492 469 477 468 275 226 
227 228 267 175 259 214 424 420 448 
416 364 295 388 370 220 261 272 317 
238 278 241 246 210 233 124 243 462 
440 461 437 145 340 287 286 319 293 
320 374 25 27 14 11 21 34 7 
20 123 139 147 179 232 121 188 176 
169 299 300 120 3 2 22 28 112 
281 74 97 496 354 352 353 36 7 
28 6 214 182 259 208 249 230 246 
302 171 179 147 139 113 281 74 87 
153 154 160 152 175 338 214 267 225 
195 203 334 289 317 272 261 62 49 
38 39 338 268 216 343 80 81 54 
53 172 261 191 236 192 229 241 230 
224 260 219 271 433 333 295 310 390 
395 403 327 120 232 300 169 110 103 
122 107 491 455 495 415 425 466 499 
473 190 165 156 191 474 486 450 408 
436 445 421 438 258 174 173 259 138 
212 177 176 427 490 450 406 467 491 
495 415 427 486 450 490 464 457 458 
440 181 207 173 208 251 94 113 84 
416 442 419 420 434 262 294 333 137 
121 188 170 45 104 47 43 214 174 
259 182 422 432 437 421 191 172 190 
317 243 265 210 233 86 46 48 47 
73 60 71 105 36 7 22 28 137 
136 188 121 225 236 273 334 251 282 
113 94 289 261 191 199 332 325 306 
336 134 299 286 146 193 228 222 192 
429 402 481 417 92 308 251 93 120 
232 119 121 27 20 7 34 310 434 
321 322 89 105 71 88 237 203 275 
337 69 59 51 89 14 27 90 11 
95 104 78 79 42 39 49 12 11 
27 90 9 178 139 255 177 90 11 
82 117 64 105 96 88 278 291 279 
238 173 143 150 161 325 323 306 336 
309 140 159 339 113 97 74 281 162 
106 102 283 214 174 182 215 146 232 
134 133 179 136 178 180 7 2 6 
36 196 154 219 217 136 180 176 178 
300 120 253 232 140 123 159 180 268 
216 343 205 300 340 253 299 91 72 
71 96 7 35 21 6 78 95 47 
104 207 127 198 209 435 267 167 316 
375 361 371 304 275 194 226 228 291 
333 294 293 411 417 406 456 311 384 
310 312 348 376 360 363 421 432 420 
422 101 70 50 61 410 418 398 413 
312 323 311 325 237 226 201 227 347 
376 348 354 307 321 364 303 323 325 
400 311 433 434 310 312 312 384 310 
433 298 263 364 307 347 354 348 353 
220 261 317 202 310 333 321 434 333 
434 310 433 195 228 226 194 294 303 
307 263 334 275 274 203 398 369 382 
385 312 433 296 384 234 233 210 265 
244 263 245 307 192 231 200 222 202 
236 203 220 324 391 336 392 400 325 
389 311 296 333 295 433 172 202 317 
261 229 228 192 227 334 275 203 337 
459 470 494 0 237 337 276 278 242 
293 280 291 280 302 238 240 278 277 
276 237 29 2 22 37 364 262 388 
295 482 414 474 408 333 291 294 434 
360 346 378 379 360 349 379 405 294 
322 307 303 325 311 332 389 325 312 
332 311 296 433 332 333 325 333 332 
433 433 312 332 325 296 312 332 433 
295 262 294 242 383 410 382 394 92 
93 251 94 329 328 367 342 242 291 
319 293 280 293 238 291 344 392 377 
409 322 434 319 291 263 322 307 294 
262 434 321 333 290 228 318 222 294 
434 321 262 275 226 237 227 280 302 
279 238 34 487 21 35 303 322 307 
321 370 295 388 310 361 314 306 323 
471 457 493 445 318 277 276 290 248 
302 246 230 313 384 370 297 294 293 
280 242 397 401 380 412 237 227 238 
229 193 275 222 228 248 250 249 302 
99 51 45 50 115 77 100 502 362 
327 390 403 345 393 367 341 310 384 
370 433 424 416 448 425 491 490 474 
486 421 432 446 445 469 410 399 417 
452 448 472 499 203 237 275 201 33 
55 62 90 199 195 191 289 195 194 
226 201 112 97 74 75 263 298 364 
297 300 170 253 264 278 302 279 277 
235 154 219 269 263 322 320 321 240 
229 238 280 238 291 279 280 214 206 
215 216 195 201 226 225 47 53 86 
80 63 281 74 112 63 75 74 65 
203 236 225 334 108 340 119 114 234 
127 210 209 442 422 419 420 421 438 
437 436 24 19 3 28 191 195 189 
193 90 55 62 117 220 261 202 236 
289 199 317 261 13 115 15 57 49 
39 62 12 238 229 278 237 200 373 
241 301 237 291 278 238 485 442 465 
441 393 404 378 367 90 12 62 33 
237 229 278 277 443 486 485 491 385 
369 352 496 237 275 227 276 290 227 
318 228 449 419 426 415 342 328 367 
404 417 402 399 469 397 351 354 350 
327 341 403 356 12 39 62 42 245 
291 244 279 467 473 495 466 496 398 
369 479 412 398 496 418 304 332 371 
325 325 323 336 324 429 480 423 476 
327 328 403 341 362 345 381 367 304 
325 371 375 350 349 355 347 479 398 
382 489 418 410 398 489 418 351 412 
349 396 404 405 349 357 324 409 327 
330 345 344 315 403 395 409 327 334 
195 273 225 360 345 367 346 404 393 
403 328 362 395 327 366 327 395 409 
357 324 400 409 323 296 313 305 298 
17 16 21 454 400 391 336 324 324 
323 336 400 391 400 336 314 323 314 
336 400 482 449 467 426 347 349 346 
360 357 356 327 331 362 327 403 356 
329 328 327 341 329 341 327 356 393 
341 403 328 350 329 355 349 324 392 
409 391 324 391 409 400 294 434 320 
322 240 239 244 230 349 351 405 350 
82 39 62 46 439 438 457 445 436 
444 421 445 348 353 358 359 412 351 
405 349 354 351 363 353 489 469 417 
410 363 380 358 353 3 28 22 24 
117 55 62 46 422 424 420 442 403 
393 381 341 417 456 468 469 422 432 
420 424 269 271 235 270 443 466 485 
425 31 49 38 14 113 85 87 94 
36 2 22 7 29 453 22 454 24 
18 22 29 462 493 460 488 478 0 
470 453 0 453 478 444 453 454 483 
439 463 464 465 458 423 480 430 492 
330 345 381 362 428 456 481 411 411 
456 468 417 474 466 495 473 31 14 
38 117 78 80 47 95 455 456 406 
414 414 456 406 417 443 466 473 485 
428 407 451 475 451 428 481 429 416 
419 415 414 411 402 399 417 419 455 
443 486 442 440 422 441 443 442 485 
441 21 18 35 17 416 419 425 415 
387 386 430 492 405 351 397 350 363 
353 348 354 232 170 188 121 237 229 
192 227 490 486 468 456 296 294 295 
333 428 411 481 402 406 456 407 411 
475 490 474 491 386 402 423 399 467 
426 495 482 473 419 425 443 425 416 
485 443 231 277 276 200 455 456 490 
406 486 456 490 455 278 302 248 238 
486 419 491 443 394 410 382 398 443 
419 425 416 490 406 408 414 474 473 
495 482 414 455 490 406 486 455 490 
414 499 466 485 465 447 424 446 432 
454 483 17 16 35 17 16 487 422 
442 441 424 440 442 422 437 422 424 
447 432 423 480 492 476 449 425 499 
473 452 425 499 449 299 169 286 146 
439 444 483 453 422 432 440 437 131 
185 184 142 408 490 427 406 37 25 
23 32 223 129 183 131 462 438 488 
457 462 446 461 497 497 445 488 438 
498 446 461 437 391 400 375 389 8 
10 27 500 422 424 472 447 498 461 
463 464 411 402 428 407 457 493 488 
484 487 34 21 20 300 232 253 135 
43 79 78 104 105 68 96 111 29 
37 22 30 439 16 483 484 438 436 
439 453 444 453 439 436 336 314 365 
391 418 489 398 496 438 445 439 436 
457 438 488 445 347 346 355 342 368 
401 358 380 329 341 367 328 380 397 
363 376 489 410 492 469 375 325 371 
400 399 469 492 394 431 429 480 430 
65 76 68 111 491 475 495 474 464 
440 458 432 404 328 367 393 498 440 
464 432 352 369 479 496 399 469 386 
492 354 351 353 496 496 412 418 351 
401 496 385 368 353 496 401 359 350 
397 376 354 354 350 355 347 350 405 
376 397 367 345 381 393 317 199 191 
261 496 489 398 479 471 478 493 444 
370 310 388 384 397 379 405 376 393 
328 367 341 403 341 381 330 363 368 
358 380 412 351 380 397 353 351 380 
412 239 291 250 319 37 31 32 30 
368 369 359 352 347 349 360 405 425 
449 426 415 295 262 388 333 454 0 
494 1 489 410 383 479 163 266 148 
265 463 447 472 498 489 398 382 410 
421 437 497 446 17 454 21 494 336 
391 365 392 103 84 87 110 359 358 
401 353 203 275 274 201 421 438 497 
437 244 250 247 239 436 445 471 444 
26 8 34 27 470 478 471 445 294 
263 320 374 493 457 488 445 89 70 
69 101 258 209 266 234 446 445 497 
421 421 445 497 438 484 488 487 460 
1 454 17 494 470 453 459 483 470 
0 459 453 499 416 452 485 143 161 
164 174 488 493 460 484 304 325 306 
332 461 462 463 464 439 445 471 436 
457 445 471 439 466 416 499 485 201 
275 274 226 172 195 193 194 476 417 
481 477 494 454 16 0 459 0 16 
453 454 453 16 0 483 453 16 454 
463 424 472 422 471 445 493 497 467 
466 465 485 446 432 498 447 446 437 
498 421 446 421 498 432 437 432 498 
421 440 432 498 437 88 105 91 64 
425 473 449 419 425 419 449 415 429 
480 430 423 380 385 368 401 359 368 
358 369 482 455 495 491 240 280 244 
239 382 383 372 479 408 406 427 407 
485 473 467 466 408 486 427 414 490 
414 427 486 408 414 427 490 482 426 
495 415 239 242 244 291 440 422 458 
432 399 469 423 386 469 417 477 468 
450 490 451 406 394 383 387 386 374 
293 320 242 374 263 247 239 474 482 
495 491 475 406 451 490 416 425 452 
448 443 466 425 473 417 402 481 411 
498 461 472 463 423 492 430 386 239 
319 250 374 248 278 246 373 417 411 
477 468 386 492 387 399 482 473 467 
449 475 490 450 474 463 447 458 441 
486 455 491 419 428 402 429 423 464 
447 458 463 475 407 451 406 415 419 
491 455 475 490 451 450 448 442 452 
420 416 420 452 442 448 420 452 416 
485 442 452 465 416 443 452 485 416 
442 452 443 441 422 458 440 499 416 
425 452 277 237 231 276 476 475 481 
474 386 469 423 492 474 408 450 427 
426 408 482 427 482 408 474 427 498 
432 464 447 399 402 423 469 222 191 
189 193 415 408 482 426 480 394 387 
492 468 456 481 428 415 414 482 408 
415 455 482 414 491 443 467 485 491 
419 467 443 485 443 467 473 419 473 
467 443 449 419 467 426 491 415 467 
419 426 419 467 415 330 341 381 345 
407 456 428 411 468 456 428 407 428 
402 481 429 482 415 495 455 476 477 
481 475 482 473 495 467 474 490 450 
486 428 477 481 468 451 477 481 428 
474 475 481 451 451 475 481 477 474 
427 450 482 461 440 464 498 427 408 
450 486 477 468 475 490 428 468 475 
477 263 321 307 322 262 242 239 294 
407 468 475 428 407 456 475 468 407 
406 475 456 490 456 475 406 468 456 
475 490 482 455 474 414 491 455 474 
482 414 486 474 408 427 428 451 450 
450 406 451 427 475 477 451 428 450 
474 451 475 491 486 474 455 414 455 
474 486 427 407 451 428 427 406 451 
407 366 395 327 357 464 432 458 447 
380 353 363 351 417 411 481 477 411 
468 481 477 476 429 481 417 422 447 
472 463 142 216 184 131 492 469 476 
477 360 346 367 342 423 386 430 387 
394 399 387 492 386 399 387 394 423 
469 476 492 430 383 372 387 469 417 
476 477 429 402 476 423 469 402 476 
417 423 402 476 469 429 417 476 402 
447 432 458 422 468 411 481 456 17 
21 1 494 461 497 493 462 493 445 
488 497 298 262 297 313 385 369 368 
352 494 454 21 16 457 440 464 462 
496 385 368 352 463 466 465 464 464 
447 463 498 371 304 305 332 462 440 
464 461 448 447 472 424 457 440 462 
438 447 422 458 441 437 446 462 497 
437 438 462 440 497 438 462 437 422 
447 463 441 441 424 463 422 488 462 
487 460 461 493 460 462 458 441 465 
463 354 350 347 376 466 416 425 499 
441 424 465 463 441 442 465 424 321 
333 388 262 304 332 306 305 452 485 
465 499 420 424 465 442 295 333 388 
310 305 332 306 296 344 365 377 392 
342 404 378 329 472 448 465 499 466 
416 485 425 448 452 465 499 448 442 
465 452 420 442 465 448 463 424 465 
472 448 424 465 420 472 424 465 448 
462 497 488 438 493 497 488 462 464 
462 488 457 471 439 493 457 436 439 
493 471 436 444 493 439 471 444 493 
436 493 478 484 444 470 453 484 478 
483 453 484 470 483 444 484 453 478 
453 484 444 483 439 484 444 439 16 
484 457 493 444 484 439 493 439 484 
457 493 478 460 484 484 478 460 470 
471 478 460 493 493 459 460 471 477 
492 480 476 471 470 460 478 459 470 
460 471 483 470 460 459 484 470 460 
483 191 199 189 195 298 262 313 303 
37 46 62 30 21 16 487 494 483 
484 487 460 483 16 487 484 17 16 
487 21 17 35 21 487 21 459 487 
460 21 494 487 459 460 459 487 483 
16 459 487 0 494 0 487 459 16 
0 487 494 16 483 487 453 459 453 
487 483 16 453 487 459 362 315 366 
330 192 231 222 193 362 330 366 356 
348 347 360 376 329 341 355 342 358 
348 346 363 350 405 347 376 350 349 
347 405 356 403 362 330 387 492 430 
480 365 314 361 391 429 431 476 481 
383 394 480 410 492 410 480 394 479 
410 480 489 492 489 480 410 479 489 
480 492 368 382 369 385 382 368 369 
372 382 479 372 398 369 398 372 479 
382 398 372 369 336 323 306 314 304 
315 326 314 352 369 359 479 372 479 
431 369 480 369 431 479 372 430 431 
383 480 479 359 369 372 383 431 479 
430 387 431 383 480 387 431 430 480 
369 359 431 352 479 359 480 480 479 
431 410 383 410 431 479 480 410 431 
383 387 394 431 383 480 394 431 387 
480 383 431 394 380 351 363 397 367 
360 378 379 376 397 348 354 363 397 
348 376 363 351 348 397 354 351 348 
363 354 397 348 351 304 314 371 298 
306 314 326 336 303 294 374 263 496 
412 351 353 353 496 359 352 358 359 
401 368 362 315 344 366 360 348 346 
347 398 412 496 401 352 496 359 368 
401 412 496 353 380 401 358 412 353 
412 358 401 380 412 358 353 345 341 
381 393 362 377 395 366 297 384 371 
298 377 362 395 390 391 314 361 400 
361 400 375 391 37 25 10 500 342 
346 367 345 360 363 346 348 344 314 
361 365 345 341 367 342 225 195 273 
236 357 331 366 395 342 341 330 345 
329 328 342 404 327 331 366 357 315 
331 326 357 366 327 362 356 222 189 
200 318 342 341 367 329 356 330 366 
315 403 341 330 356 362 403 381 330 
390 403 381 362 344 395 377 331 364 
298 262 297 313 262 297 295 321 262 
388 364 362 395 390 327 362 345 344 
330 294 319 293 320 307 263 364 321 
366 327 356 331 392 324 365 336 330 
331 315 356 405 349 379 396 311 384 
298 389 346 347 355 349 298 384 371 
389 342 360 378 367 298 314 371 361 
400 325 371 389 364 263 320 321 329 
342 355 378 357 395 315 331 409 395 
315 357 250 319 320 374 315 331 344 
366 315 395 344 331 409 395 344 315 
306 304 326 314 303 321 364 262 303 
262 364 307 294 434 303 321 321 434 
303 322 294 291 293 319 370 384 371 
297 400 314 361 323 375 325 306 304 
400 389 371 375 364 374 320 263 295 
305 313 262 191 317 189 199 262 294 
303 321 294 322 303 434 307 303 239 
263 433 296 313 295 296 433 313 384 
290 275 222 274 190 165 269 271 313 
433 370 384 389 325 371 332 304 361 
371 314 298 361 371 297 364 298 307 
262 313 384 298 296 391 365 375 361 
237 227 192 276 190 316 269 165 298 
313 305 304 366 365 377 344 289 195 
191 236 298 313 297 384 296 384 298 
312 240 229 192 230 321 310 388 333 
295 310 370 433 364 295 370 262 297 
262 370 295 364 262 370 297 295 313 
370 297 295 433 370 313 323 400 375 
361 323 325 375 400 313 314 304 298 
262 294 239 303 409 392 377 395 193 
274 222 275 225 195 191 172 409 395 
377 344 366 331 377 395 319 302 249 
250 193 172 191 195 305 295 313 296 
371 332 305 389 371 389 305 298 298 
389 305 311 332 311 305 389 332 312 
305 311 296 312 305 332 298 312 305 
296 298 384 305 312 311 384 305 298 
311 312 305 384 263 303 239 374 374 
294 239 242 303 294 239 374 321 322 
320 319 388 364 320 321 280 242 239 
240 322 434 320 319 374 242 239 293 
319 293 239 242 374 293 239 319 242 
291 239 319 304 314 306 361 361 375 
306 304 361 323 306 375 347 376 379 
360 367 404 378 342 349 360 379 346 
378 342 355 346 238 229 241 278 277 
200 241 301 231 237 192 276 294 242 
320 293 374 242 320 294 344 331 377 
366 336 357 326 331 324 357 326 336 
365 324 326 336 336 314 326 365 357 
409 326 315 357 324 326 409 344 365 
326 314 344 314 326 315 315 409 326 
344 392 365 326 344 392 324 326 365 
409 392 326 344 409 324 326 392 346 
360 378 342 378 404 355 329 378 396 
355 404 349 404 355 396 349 328 355 
404 329 328 355 349 329 404 355 328 
378 379 355 396 346 379 355 378 379 
349 355 396 346 349 355 379 277 231 
229 241 278 277 248 302 289 236 191 
261 442 485 452 443 231 237 229 192 
230 238 248 302 273 275 274 334 230 
280 244 240 172 236 191 225 225 236 
191 195 249 246 245 247 189 191 190 
317 279 280 249 302 302 319 249 279 
238 302 230 240 192 230 241 231 237 
275 276 337 271 165 156 190 227 275 
228 290 190 271 260 156 202 261 172 
236 202 236 172 225 190 271 269 317 
155 260 190 221 435 268 269 316 208 
161 181 182 230 238 241 246 240 302 
249 280 189 274 318 222 240 280 249 
230 247 263 245 244 273 195 289 236 
249 302 246 248 200 246 245 241 273 
236 289 261 248 373 246 249 301 241 
277 373 248 277 373 301 8 11 27 
10 278 277 373 248 268 216 205 435 
189 199 200 318 270 217 235 316 244 
239 247 263 200 277 241 231 227 276 
231 192 246 373 200 318 291 250 249 
247 280 242 244 239 239 291 244 250 
268 435 167 316 83 81 95 15 125 
140 124 180 231 229 241 192 289 274 
318 199 192 194 193 228 279 291 244 
280 275 228 193 194 307 303 244 239 
226 275 193 194 274 275 193 226 226 
201 193 274 226 194 193 201 248 238 
246 278 263 307 244 239 374 239 247 
250 317 261 191 172 200 231 241 222 
222 274 318 290 189 199 318 274 271 
190 260 272 273 195 199 289 248 230 
246 238 246 278 241 373 318 277 290 
301 249 319 291 279 246 373 241 200 
247 291 250 244 275 227 276 290 275 
228 290 222 222 193 189 274 289 199 
272 317 193 195 189 194 201 274 189 
193 274 201 189 203 195 334 189 203 
201 195 189 203 201 194 189 195 193 
194 189 201 289 273 189 199 289 274 
189 273 199 274 189 289 334 273 189 
274 274 203 189 334 273 195 189 199 
273 334 189 195 280 291 244 242 222 
228 200 192 318 228 200 222 192 227 
200 231 246 249 245 230 318 373 200 
301 249 319 250 291 131 267 501 144 
227 228 200 318 401 496 368 359 231 
227 200 276 277 318 276 200 245 291 
247 244 209 127 210 243 249 291 247 
245 278 277 241 373 278 229 241 277 
230 229 241 240 238 240 241 229 230 
240 241 238 241 246 245 230 241 230 
245 244 244 230 245 280 249 280 245 
230 244 280 245 279 249 279 245 280 
191 172 156 190 172 317 156 190 99 
52 44 502 182 161 130 174 163 257 
159 288 153 268 167 316 160 316 235 
217 187 224 219 196 160 152 167 153 
316 269 235 270 196 153 186 187 269 
268 270 316 185 435 184 152 186 270 
204 268 98 72 91 64 187 217 186 
270 208 338 259 214 153 316 167 160 
190 317 272 271 144 161 164 143 182 
161 259 208 186 268 204 153 214 338 
259 267 272 220 260 261 196 160 186 
153 196 154 221 224 169 170 300 299 
17 35 16 18 225 202 221 172 172 
195 221 225 174 175 164 214 143 174 
164 129 435 216 267 338 224 165 196 
154 187 153 186 185 260 235 218 219 
269 165 160 154 316 165 160 269 214 
338 206 216 142 435 184 205 160 154 
196 187 32 25 14 11 175 267 167 
152 435 152 167 267 156 154 160 165 
24 32 23 19 269 316 235 160 160 
217 235 154 160 154 235 269 51 66 
50 99 46 37 62 5 34 9 7 
27 27 9 7 20 142 152 164 144 
435 152 268 167 435 185 268 152 182 
130 181 183 129 131 223 215 435 205 
268 185 268 338 216 435 187 160 186 
196 224 154 155 165 224 156 165 155 
266 163 148 151 156 224 165 271 266 
163 151 166 256 288 255 257 236 260 
220 261 184 186 204 185 235 271 219 
260 110 63 74 98 102 92 122 103 
252 106 335 283 281 75 93 282 259 
161 173 208 254 212 256 138 299 133 
119 120 257 178 255 292 171 254 288 
256 118 106 122 109 84 94 87 85 
176 121 188 136 180 292 178 179 233 
126 124 243 180 140 124 339 243 126 
124 125 233 126 243 265 174 214 259 
175 177 139 158 138 125 339 124 140 
258 209 166 266 64 68 96 105 135 
134 145 146 180 123 124 125 79 115 
77 100 234 209 210 211 124 180 179 
123 83 81 15 13 108 132 109 102 
285 168 287 286 173 161 150 197 210 
127 128 243 282 93 251 308 181 130 
197 183 208 267 259 338 115 44 52 
502 196 202 221 225 129 144 142 131 
173 258 166 266 170 137 135 188 171 
256 255 158 182 174 259 161 258 234 
211 209 259 258 211 208 68 111 105 
67 208 207 211 209 89 116 69 59 
93 75 63 94 180 339 124 233 180 
233 124 210 299 286 287 340 78 53 
47 80 140 123 180 125 233 292 180 
339 180 292 179 123 178 136 177 176 
146 169 135 232 198 207 197 181 309 
339 141 140 281 75 112 63 232 121 
176 212 13 14 15 12 68 75 282 
93 208 258 173 259 254 138 157 212 
138 136 177 139 176 136 177 138 179 
136 177 178 179 139 177 136 178 139 
177 179 170 169 135 137 284 106 109 
162 282 111 75 68 100 70 77 101 
188 137 135 136 137 169 135 146 308 
283 284 162 146 232 135 134 188 232 
135 170 111 282 75 281 132 168 285 
284 146 133 134 299 188 134 135 232 
75 281 93 63 145 168 287 108 162 
92 93 308 75 68 65 64 284 145 
132 168 338 223 216 501 460 21 20 
487 2 35 7 6 134 146 286 145 
256 212 213 255 103 92 122 252 162 
92 102 132 3 37 22 2 15 81 
86 41 15 42 33 83 13 12 15 
42 147 139 158 171 64 68 65 72 
260 236 220 218 264 170 253 121 90 
12 33 14 68 67 105 64 162 283 
284 106 117 11 10 4 91 105 71 
60 25 26 19 18 73 98 74 72 
146 168 286 145 285 283 335 284 96 
64 91 72 25 26 14 27 95 104 
79 115 85 63 98 65 111 97 112 
75 167 165 160 316 309 125 141 339 
86 41 40 43 21 17 1 29 6 
7 28 8 56 57 502 503 23 3 
22 24 117 55 5 4 91 60 71 
73 27 8 34 9 83 15 95 104 
15 33 104 83 11 14 117 90 494 
1 6 21 29 454 22 17 15 14 
33 12 15 13 95 104 260 155 190 
156 127 126 128 243 56 61 57 503 
99 44 45 43 70 99 50 503 19 
26 3 28 107 87 74 110 117 14 
38 49 15 12 33 42 66 50 99 
503 34 27 14 26 90 14 33 27 
90 55 82 33 66 61 99 44 10 
31 11 32 33 83 82 90 39 49 
38 31 14 34 33 27 64 72 96 
68 494 21 6 7 42 39 82 46 
34 35 18 26 21 34 35 7 77 
70 89 101 101 116 89 105 67 58 
60 64 35 16 18 484 99 66 73 
51 79 52 77 115 67 115 116 56 
70 50 61 503 130 131 183 129 176 
138 157 136 60 64 91 105 99 70 
50 52 56 58 116 67 116 115 100 
56 95 41 47 43 68 72 96 111 
91 60 73 59 15 81 80 53 95 
81 80 15 15 13 80 95 75 68 
64 58 174 214 129 215 335 106 118 
109 92 94 251 84 98 64 91 65 
64 67 105 60 256 212 255 177 58 
68 64 67 99 52 45 44 61 60 
59 58 256 254 158 171 77 100 502 
503 61 58 59 116 89 101 69 116 
100 56 502 503 5 62 117 38 62 
117 38 90 42 83 82 33 13 115 
57 44 99 77 502 503 79 115 44 
52 79 104 44 115 15 115 56 57 
197 258 173 207 13 104 115 44 117 
55 82 90 58 56 61 57 116 56 
61 58 61 44 66 43 118 107 122 
106 80 95 78 79 56 116 61 100 
100 116 61 101 101 70 61 100 105 
67 73 60 60 58 73 59 212 138 
157 176 98 72 73 91 269 271 219 
235 224 165 219 196 81 83 41 13 
113 94 87 84 112 111 76 97 15 
81 41 13 77 52 78 70 80 13 
47 95 77 79 78 52 14 25 49 
12 32 25 49 14 31 5 37 4 
90 14 49 12 117 14 49 90 37 
38 5 31 24 28 22 7 17 454 
22 24 454 453 22 24 18 26 19 
34 54 41 40 86 5 38 117 31 
90 117 38 49 110 103 107 87 2 
35 18 7 7 18 34 35 7 18 
2 34 108 168 287 340 258 208 173 
211 233 124 141 309 212 176 157 254 
132 134 108 145 132 133 108 134 4 
31 5 11 286 168 287 145 145 168 
108 132 282 94 251 93 284 283 335 
106 63 75 65 64 137 170 157 264 
117 46 5 55 109 284 335 106 112 
97 76 96 94 63 85 84 102 162 
109 106 65 75 74 97 63 94 85 
93 282 93 85 94 111 68 65 75 
308 283 102 106 308 92 102 162 162 
283 102 308 110 94 113 282 96 88 
71 91 175 152 164 267 112 97 113 
281 65 76 98 68 178 179 171 139 
65 68 98 72 65 97 98 75 259 
174 173 161 75 76 65 111 28 2 
22 36 65 72 98 64 91 88 71 
105 47 43 86 45 57 44 99 61 
175 164 214 501 177 138 158 256 66 
59 51 101 162 132 109 284 102 132 
109 162 111 281 75 112 121 170 253 
232 300 299 253 120 102 92 103 84 
84 92 103 251 180 123 159 292 129 
131 142 185 308 283 252 251 308 106 
252 283 62 5 117 46 110 85 113 
94 110 282 113 281 251 281 113 282 
76 97 74 87 96 111 76 112 92 
251 252 103 92 308 252 251 108 340 
287 145 109 108 118 132 76 98 74 
97 135 232 253 170 85 63 110 98 
72 111 76 96 73 69 71 51 254 
212 213 256 25 10 500 27 206 184 
205 216 3 24 23 19 224 202 221 
196 103 84 110 85 63 93 110 281 
85 93 110 63 29 18 22 2 85 
282 110 93 281 93 110 282 45 52 
47 78 85 94 110 282 104 13 115 
15 11 14 31 117 11 32 31 14 
49 14 31 32 196 217 219 187 30 
37 22 23 435 185 184 205 2 35 
6 18 5 46 48 55 62 39 40 
46 142 185 184 152 436 453 29 444 
37 25 500 23 34 8 28 7 34 
26 28 8 88 64 91 96 83 81 
54 82 81 83 54 41 17 24 22 
29 47 53 48 86 338 214 206 501 
338 175 214 501 11 8 27 9 223 
206 131 501 131 267 216 501 62 46 
40 86 37 3 22 23 28 34 19 
26 36 2 3 28 4 37 3 5 
10 8 3 37 30 37 23 32 30 
31 23 38 30 32 23 31 180 339 
159 140 142 153 187 185 61 116 59 
101 103 252 122 107 101 61 50 66 
70 61 100 503 198 127 151 209 43 
104 47 95 164 175 144 501 105 116 
89 67 58 116 89 59 58 67 89 
116 15 13 86 80 66 44 99 43 
466 472 473 463 41 44 43 13 104 
13 43 44 79 104 43 44 80 13 
86 47 86 53 48 54 43 99 86 
45 95 13 43 104 41 13 43 95 
18 17 24 19 65 64 91 60 89 
88 71 69 78 104 47 45 54 81 
86 53 13 15 86 41 51 69 50 
101 69 70 50 101 309 339 159 257 
253 254 213 120 257 339 159 180 257 
292 159 123 40 46 48 86 41 81 
86 54 121 232 119 133 101 66 50 
51 101 61 66 59 66 59 73 51 
80 53 86 15 2 34 22 7 15 
53 86 81 70 100 77 503 99 57 
61 503 61 50 66 503 70 77 99 
503 61 66 99 503 61 56 100 503 
57 99 502 503 73 105 71 89 69 
101 51 116 59 116 51 101 69 116 
51 59 335 340 114 106 73 72 71 
91 89 69 71 73 335 106 114 118 
51 72 71 73 98 97 76 75 170 
169 300 135 72 68 76 111 60 67 
73 58 89 67 73 105 294 291 319 
434 89 69 73 51 50 52 45 99 
89 59 73 58 51 59 73 89 37 
62 38 30 89 58 73 67 34 2 
22 18 34 18 22 24 12 42 62 
33 24 7 22 34 268 184 204 185 
26 500 25 23 249 291 245 279 8 
3 37 500 47 41 86 43 45 46 
86 47 78 79 45 52 44 52 45 
79 78 43 45 79 44 79 45 43 
86 54 48 40 206 215 223 131 113 
110 87 85 117 11 5 31 221 154 
155 224 211 208 173 207 78 104 45 
43 83 41 40 54 62 30 23 38 
37 3 23 500 26 500 8 27 28 
8 3 10 37 62 5 38 4 11 
5 117 31 4 37 10 28 26 3 
8 10 37 3 4 37 31 10 32 
37 38 31 30 31 10 11 4 82 
55 62 33 82 42 62 39 33 42 
62 82 206 215 183 223 41 42 40 
39 40 62 38 39 41 13 40 42 
83 13 40 41 83 42 40 13 5 
55 48 4 54 83 48 40 82 83 
48 54 54 55 48 82 40 39 48 
46 46 39 48 42 42 83 48 82 
46 42 48 82 82 55 48 46 40 
42 48 39 83 42 48 40 62 90 
38 12 49 12 38 90 62 12 38 
49 444 453 29 0 223 215 183 129 
113 281 87 110 25 10 27 11 268 
205 204 184 34 18 24 19 118 106 
114 107 28 34 24 19 28 7 24 
34 25 37 10 32 178 179 147 171 
501 131 215 206 19 32 23 25 3 
19 23 26 25 26 23 19 26 500 
23 3 216 223 131 501 338 206 223 
501 175 267 144 501 175 338 267 501 
338 216 267 501 131 267 144 216 98 
68 76 72 0 453 29 454 251 252 
87 113 135 170 253 300 84 85 87 
110 113 84 87 251 343 268 204 270 
1 0 29 454 1 2 29 0 281 
63 74 110 17 1 29 454 18 17 
29 24 316 270 187 160 6 18 29 
2 18 21 29 17 36 1 29 6 
36 2 29 1 6 2 29 36 6 
29 21 1 29 35 18 6 29 35 
21 18 29 35 6 21 210 243 148 
265 109 102 122 103 268 185 204 153 
98 63 74 65 65 97 74 98 87 
252 107 106 71 72 76 96 288 179 
147 178 288 256 255 171 76 72 74 
98 87 281 74 110 109 106 122 102 
87 97 74 113 251 252 107 87 251 
103 107 252 96 88 76 71 87 84 
107 251 103 84 107 87 103 251 107 
84 109 132 118 284 285 284 118 132 
335 284 118 285 308 92 122 102 102 
106 122 308 92 308 122 252 252 106 
122 107 252 308 122 106 111 75 76 
97 76 75 65 98 118 108 119 114 
182 207 181 208 120 299 253 340 118 
285 114 335 171 139 255 178 234 209 
266 127 287 340 114 335 335 285 114 
287 120 133 119 232 158 256 255 177 
118 108 114 132 118 132 114 285 108 
340 114 168 137 170 264 121 287 168 
114 340 285 168 114 287 138 212 256 
177 135 169 300 232 121 232 253 120 
158 139 255 171 285 132 114 168 108 
168 114 132 112 75 74 63 180 292 
159 257 268 152 153 167 128 126 148 
243 288 123 159 147 146 299 120 133 
197 166 150 173 120 114 119 340 176 
136 157 254 146 232 120 169 173 161 
166 143 288 123 147 179 120 121 213 
253 129 143 142 144 177 292 255 178 
288 178 257 292 197 151 166 198 169 
299 120 146 292 123 257 288 257 288 
255 178 500 26 25 27 271 165 219 
224 146 133 120 232 180 292 257 339 
178 171 147 288 171 178 255 288 147 
123 159 140 141 140 159 309 115 57 
44 502 158 177 255 139 179 292 288 
123 197 149 151 198 118 109 119 108 
178 292 288 179 158 138 157 256 254 
171 157 158 120 340 119 299 145 340 
119 108 299 340 119 286 108 133 119 
134 108 134 119 145 134 299 119 286 
134 133 119 299 286 145 119 134 340 
145 119 286 149 234 148 266 224 202 
196 187 243 126 148 265 197 161 150 
143 256 138 157 254 254 264 157 171 
137 136 157 138 160 154 187 217 256 
254 157 158 181 207 197 173 500 8 
10 37 206 338 223 216 500 26 8 
3 264 136 157 137 163 309 159 257 
176 212 213 254 176 121 213 212 264 
254 213 253 253 121 213 264 254 136 
213 176 176 136 213 121 157 264 213 
136 254 264 213 157 157 136 213 254 
137 136 213 264 137 121 213 136 264 
121 213 137 143 174 130 161 270 217 
204 235 186 153 204 185 142 153 196 
187 284 145 162 132 210 265 148 234 
316 217 187 270 131 215 129 144 211 
207 173 258 260 217 218 235 115 100 
56 502 154 217 196 187 220 219 260 
218 219 235 218 217 131 501 215 144 
294 319 320 434 198 258 197 207 260 
224 156 271 160 153 196 154 307 262 
298 303 142 205 184 216 175 267 164 
144 142 152 184 435 163 265 148 126 
130 182 181 161 235 217 219 154 221 
172 155 195 156 317 155 190 219 220 
260 224 221 220 260 272 184 216 223 
131 216 131 142 144 185 152 142 153 
144 153 142 152 186 217 204 270 144 
267 142 216 216 435 142 205 435 216 
142 267 267 152 142 435 160 217 187 
316 187 270 186 160 185 205 268 184 
129 144 164 143 219 217 186 187 343 
270 204 205 269 165 219 271 196 165 
219 154 269 154 219 165 160 316 186 
153 270 316 186 160 142 267 164 152 
142 144 164 267 316 268 186 153 270 
268 186 316 224 220 221 202 115 56 
57 502 172 202 221 317 44 57 99 
502 156 165 155 154 221 317 155 172 
202 220 221 317 272 317 221 220 190 
272 221 260 172 317 155 156 206 184 
216 223 268 205 343 204 152 185 268 
153 99 77 52 502 52 77 115 502 
501 164 215 144 129 214 164 215 164 
501 215 214 129 215 164 144 167 152 
164 175 272 317 155 221 272 190 155 
317 221 190 155 272 224 220 260 221 
155 260 221 224 151 149 150 148 174 
215 183 182 129 215 183 174 174 182 
183 130 143 130 183 129 143 174 183 
130 129 174 183 143 237 277 231 229 
257 123 159 288 258 207 198 211 151 
149 148 266 211 207 198 209 466 472 
463 465 397 379 396 405 159 163 148 
141 233 126 141 124 181 208 173 161 
197 166 173 258 128 127 149 198 24 
31 23 32 124 126 141 125 141 309 
159 163 140 339 141 125 10 25 32 
11 198 209 151 166 171 288 159 147 
163 126 148 141 485 458 441 465 173 
161 197 181 130 161 197 143 181 161 
197 130 128 234 148 149 151 143 150 
166 129 130 150 143 127 234 149 266 
309 124 141 125 210 234 148 128 128 
210 149 127 234 210 149 128 234 127 
149 210 149 197 151 150 166 143 150 
173 141 126 148 128 266 234 148 265 
233 339 309 265 197 151 150 166 124 
125 309 339 215 501 206 214 124 339 
309 233 149 266 151 127 149 127 151 
198 309 257 163 288 128 243 148 210 
309 266 163 265 129 143 150 151 197 
143 150 130 233 126 163 141 233 265 
163 126 309 233 163 141 309 265 163 
233 211 258 166 198 211 209 166 258 
198 209 166 211 266 209 151 127 166 
209 151 266 466 499 473 472 276 318 
227 200 198 166 197 258 318 277 301 
200 276 318 290 227 385 496 398 369 
228 227 200 192 
CELL_TYPES 1963
10
10
10
10
10
10
10
10
10
10
10
10
10
10
10
10
10
10
10
10
10
10
10
10
10
10
10
10
10
10
10
10
10
10
10
10
10
10
10
10
10
10
10
10
10
10
10
10
10
10
10
10
10
10
10
10
10
10
10
10
10
10
10
10
10
10
10
10
10
10
10
10
10
10
10
10
10
10
10
10
10
10
10
10
10
10
10
10
10
10
10
10
10
10
10
10
10
10
10
10
10
10
10
10
10
10
10
10
10
10
10
10
10
10
10
10
10
10
10
10
10
10
10
10
10
10
10
10
10
10
10
10
10
10
10
10
10
10
10
10
10
10
10
10
10
10
10
10
10
10
10
10
10
10
10
10
10
10
10
10
10
10
10
10
10
10
10
10
10
10
10
10
10
10
10
10
10
10
10
10
10
10
10
10
10
10
10
10
10
10
10
10
10
10
10
10
10
10
10
10
10
10
10
10
10
10
10
10
10
10
10
10
10
10
10
10
10
10
10
10
10
10
10
10
10
10
10
10
10
10
10
10
10
10
10
10
10
10
10
10
10
10
10
10
10
10
10
10
10
10
10
10
10
10
10
10
10
10
10
10
10
10
10
10
10
10
10
10
10
10
10
10
10
10
10
10
10
10
10
10
10
10
10
10
10
10
10
10
10
10
10
10
10
10
10
10
10
10
10
10
10
10
10
10
10
10
10
10
10
10
10
10
10
10
10
10
10
10
10
10
10
10
10
10
10
10
10
10
10
10
10
10
10
10
10
10
10
10
10
10
10
10
10
10
10
10
10
10
10
10
10
10
10
10
10
10
10
10
10
10
10
10
10
10
10
10
10
10
10
10
10
10
10
10
10
10
10
10
10
10
10
10
10
10
10
10
10
10
10
10
10
10
10
10
10
10
10
10
10
10
10
10
10
10
10
10
10
10
10
10
10
10
10
10
10
10
10
10
10
10
10
10
10
10
10
10
10
10
10
10
10
10
10
10
10
10
10
10
10
10
10
10
10
10
10
10
10
10
10
10
10
10
10
10
10
10
10
10
10
10
10
10
10
10
10
10
10
10
10
10
10
10
10
10
10
10
10
10
10
10
10
10
10
10
10
10
10
10
10
10
10
10
10
10
10
10
10
10
10
10
10
10
10
10
10
10
10
10
10
10
10
10
10
10
10
10
10
10
10
10
10
10
10
10
10
10
10
10
10
10
10
10
10
10
10
10
10
10
10
10
10
10
10
10
10
10
10
10
10
10
10
10
10
10
10
10
10
10
10
10
10
10
10
10
10
10
10
10
10
10
10
10
10
10
10
10
10
10
10
10
10
10
10
10
10
10
10
10
10
10
10
10
10
10
10
10
10
10
10
10
10
10
10
10
10
10
10
10
10
10
10
10
10
10
10
10
10
10
10
10
10
10
10
10
10
10
10
10
10
10
10
10
10
10
10
10
10
10
10
10
10
10
10
10
10
10
10
10
10
10
10
10
10
10
10
10
10
10
10
10
10
10
10
10
10
10
10
10
10
10
10
10
10
10
10
10
10
10
10
10
10
10
10
10
10
10
10
10
10
10
10
10
10
10
10
10
10
10
10
10
10
10
10
10
10
10
10
10
10
10
10
10
10
10
10
10
10
10
10
10
10
10
10
10
10
10
10
10
10
10
10
10
10
10
10
10
10
10
10
10
10
10
10
10
10
10
10
10
10
10
10
10
10
10
10
10
10
10
10
10
10
10
10
10
10
10
10
10
10
10
10
10
10
10
10
10
10
10
10
10
10
10
10
10
10
10
10
10
10
10
10
10
10
10
10
10
10
10
10
10
10
10
10
10
10
10
10
10
10
10
10
10
10
10
10
10
10
10
10
10
10
10
10
10
10
10
10
10
10
10
10
10
10
10
10
10
10
10
10
10
10
10
10
10
10
10
10
10
10
10
10
10
10
10
10
10
10
10
10
10
10
10
10
10
10
10
10
10
10
10
10
10
10
10
10
10
10
10
10
10
10
10
10
10
10
10
10
10
10
10
10
10
10
10
10
10
10
10
10
10
10
10
10
10
10
10
10
10
10
10
10
10
10
10
10
10
10
10
10
10
10
10
10
10
10
10
10
10
10
10
10
10
10
10
10
10
10
10
10
10
10
10
10
10
10
10
10
10
10
10
10
10
10
10
10
10
10
10
10
10
10
10
10
10
10
10
10
10
10
10
10
10
10
10
10
10
10
10
10
10
10
10
10
10
10
10
10
10
10
10
10
10
10
10
10
10
10
10
10
10
10
10
10
10
10
10
10
10
10
10
10
10
10
10
10
10
10
10
10
10
10
10
10
10
10
10
10
10
10
10
10
10
10
10
10
10
10
10
10
10
10
10
10
10
10
10
10
10
10
10
10
10
10
10
10
10
10
10
10
10
10
10
10
10
10
10
10
10
10
10
10
10
10
10
10
10
10
10
10
10
10
10
10
10
10
10
10
10
10
10
10
10
10
10
10
10
10
10
10
10
10
10
10
10
10
10
10
10
10
10
10
10
10
10
10
10
10
10
10
10
10
10
10
10
10
10
10
10
10
10
10
10
10
10
10
10
10
10
10
10
10
10
10
10
10
10
10
10
10
10
10
10
10
10
10
10
10
10
10
10
10
10
10
10
10
10
10
10
10
10
10
10
10
10
10
10
10
10
10
10
10
10
10
10
10
10
10
10
10
10
10
10
10
10
10
10
10
10
10
10
10
10
10
10
10
10
10
10
10
10
10
10
10
10
10
10
10
10
10
10
10
10
10
10
10
10
10
10
10
10
10
10
10
10
10
10
10
10
10
10
10
10
10
10
10
10
10
10
10
10
10
10
10
10
10
10
10
10
10
10
10
10
10
10
10
10
10
10
10
10
10
10
10
10
10
10
10
10
10
10
10
10
10
10
10
10
10
10
10
10
10
10
10
10
10
10
10
10
10
10
10
10
10
10
10
10
10
10
10
10
10
10
10
10
10
10
10
10
10
10
10
10
10
10
10
10
10
10
10
10
10
10
10
10
10
10
10
10
10
10
10
10
10
10
10
10
10
10
10
10
10
10
10
10
10
10
10
10
10
10
10
10
10
10
10
10
10
10
10
10
10
10
10
10
10
10
10
10
10
10
10
10
10
10
10
10
10
10
10
10
10
10
10
10
10
10
10
10
10
10
10
10
10
10
10
10
10
10
10
10
10
10
10
10
10
10
10
10
10
10
10
10
10
10
10
10
10
10
10
10
10
10
10
10
10
10
10
10
10
10
10
10
10
10
10
10
10
10
10
10
10
10
10
10
10
10
10
10
10
10
10
10
10
10
10
10
10
10
10
10
10
10
10
10
10
10
10
10
10
10
10
10
10
10
10
10
10
10
10
10
10
10
10
10
10
10
10
10
10
10
10
10
10
10
10
10
10
10
10
10
10
10
10
10
10
10
10
10
10
10
10
10
10
10
10
10
10
10
10
10
10
10
10
10
10
10
10
10
10
10
10
10
10
10
10
10
10
10
10
10
10
10
10
10
10
10
10
10
10
10
10
10
10
10
10
10
10
10
10
10
10
10
10
10
10
10
10
10
10
10
10
10
10
10
10
10
10
10
10
10
10
10
10
10
10
10
10
10
10
10
10
10
10
10
10
10
10
10
10
10
10
10
10
10
10
10
10
10
10
10
10
10
10
10
10
10
10
10
10
10
10
10
10
10
10
10
10
10
10
10
10
10
10
10
10
10
10
10
10
10
10
10
10
10
10
10
10
10
10
10
10
10
10
10
10
10
10
10
10
10
10
10
10
10
10
10
10
10
10
10
10
10
10
10
10
10
10
10
10
10
10
10
10
10
10
10
10
10
10
10
10
10
10
10
10
10
10
10
10
10
10
10
10
10
10
10
10
10
10
10
10
10
10
10
10
10
10
10
10
10
10
10
10
10
10
10
10
10
10
10
10
10
10
10
10
10
10
10
10
10
10
10
10
10
10
10
10
10
10
10
10
10
10
10
10
10
10
10
10
10
10
10
10
10
10
10
10
10
10
10
10
10
10
10
10
10
10
10
10
10
10
10
10
10
10
10
10
10
10
10
10
10
10
10
10
10
10
10
10
10
10
10
10
10
10
10
10
10
10
10
10
10
10
10
10
10
10
10
10
10
10
10
10
10
10
10
10
10
10
10
10
10
10
10
10
10
10
10
10
10
10
10
10
10
10
10
10
10
10
10
10
10
10
10
10
10
10
10
10
10
10
10
10
10
10
10
10
10
10
10
10
10
10
10
10
10
10
10
10
10
10
10
10
10
10
10
10
10
10
10
10
10
10
10
10
10
10
10
10
10
10
10
10
10
10
10
10
10
10
10
10
10
10
10
10
10
10
10
10
10
10
10
10
10
10
10
10
10
10
10
10
10
10
10
10
10
10
10
10
10
10
10
10
10
10
10
10
10
10
10
10
10
10

