# OBJ generated by ONSHAPE BY PTC INC, 1.202 Units = meters
mtllib A.mtl
g A
v 0.241927 0.0628581 0.0375 
v 0.224609 0.108952 0.0375 
v 0.224609 0.108952 0.0025 
v 0.241927 0.0628581 0.0025 
v 0.193815 0.0628581 0.0025 
v 0.193815 0.0628581 0.0375 
v 0.224663 0.108972 0.0379853 
v 0.224632 0.10896 0.0378463 
v 0.241944 0.062846 0.037745 
v 0.224792 0.109021 0.0384544 
v 0.224741 0.109002 0.0383275 
v 0.241996 0.06281 0.0379877 
v 0.242083 0.0627504 0.0382257 
v 0.22487 0.109051 0.0386463 
v 0.242202 0.0626678 0.0384567 
v 0.242353 0.0625629 0.0386785 
v 0.225013 0.109105 0.0388824 
v 0.225122 0.109146 0.0390617 
v 0.242535 0.0624367 0.0388889 
v 0.242984 0.0621258 0.0392678 
v 0.225297 0.109213 0.0392651 
v 0.225652 0.109347 0.0395736 
v 0.225341 0.109229 0.0393171 
v 0.243531 0.061747 0.0395787 
v 0.225994 0.109477 0.039783 
v 0.225708 0.109368 0.0396199 
v 0.226054 0.1095 0.0398042 
v 0.244156 0.0613148 0.0398097 
v 0.226491 0.109666 0.0399475 
v 0.226434 0.109644 0.039939 
v 0.244833 0.0608458 0.039952 
v 0.226947 0.109838 0.04 
v 0.226829 0.109794 0.0399968 
v 0.245537 0.0603581 0.04 
v 0.220697 0.129019 0.04 
v 0.218293 0.128332 0.0375 
v 0.221208 0.118693 0.0375 
v 0.223588 0.119459 0.04 
v 0.223368 0.112311 0.0375 
v 0.225722 0.113152 0.04 
v 0.217473 0.140519 0.04 
v 0.217507 0.139081 0.039946 
v 0.218004 0.138634 0.04 
v 0.217473 0.140534 0.04 
v 0.217543 0.137533 0.0398878 
v 0.217562 0.136698 0.0397879 
v 0.21752 0.138499 0.0399241 
v 0.217606 0.134799 0.0395608 
v 0.217638 0.133427 0.0392529 
v 0.217653 0.132765 0.0391045 
v 0.217668 0.132157 0.0388813 
v 0.217681 0.131584 0.0386711 
v 0.21769 0.131188 0.0384552 
v 0.217703 0.130622 0.0380161 
v 0.217704 0.130601 0.0379876 
v 0.2177 0.130745 0.0381438 
v 0.217693 0.13106 0.038385 
v 0.217708 0.130416 0.0376234 
v 0.217708 0.130404 0.0375 
v 0.217706 0.130508 0.0378581 
v 0.217707 0.130454 0.03775 
v 0.217518 0.138574 0.0399269 
v 0.217547 0.138505 0.0399282 
v 0.220228 0.128885 0.039952 
v 0.221253 0.118708 0.0379877 
v 0.218476 0.128385 0.0384567 
v 0.21834 0.128346 0.0379877 
v 0.218699 0.128448 0.0388889 
v 0.221389 0.118751 0.0384567 
v 0.218998 0.128533 0.0392678 
v 0.221609 0.118822 0.0388889 
v 0.219362 0.128637 0.0395787 
v 0.221905 0.118917 0.0392678 
v 0.219777 0.128756 0.0398097 
v 0.222265 0.119033 0.0395787 
v 0.222677 0.119166 0.0398097 
v 0.223123 0.119309 0.039952 
v 0.223413 0.112327 0.0379877 
v 0.223547 0.112375 0.0384567 
v 0.223765 0.112453 0.0388889 
v 0.224057 0.112557 0.0392678 
v 0.224414 0.112685 0.0395787 
v 0.224821 0.11283 0.0398097 
v 0.225263 0.112988 0.039952 
v 0.1909 0.0608458 0.039952 
v 0.191579 0.0613148 0.0398097 
v 0.192205 0.061747 0.0395787 
v 0.192754 0.0621258 0.0392678 
v 0.193205 0.0624367 0.0388889 
v 0.193387 0.0625629 0.0386785 
v 0.193539 0.0626678 0.0384567 
v 0.193746 0.06281 0.0379877 
v 0.193659 0.0627504 0.0382257 
v 0.193798 0.062846 0.037745 
v 0.190193 0.0603581 0.04 
v 0.208949 0.109815 0.04 
v 0.209406 0.109647 0.0399468 
v 0.209015 0.109791 0.039999 
v 0.209844 0.109486 0.0398037 
v 0.209776 0.109511 0.0398395 
v 0.209464 0.109625 0.039939 
v 0.21025 0.109336 0.0395753 
v 0.210193 0.109357 0.0396198 
v 0.2106 0.109208 0.0392593 
v 0.210457 0.10926 0.0394158 
v 0.210896 0.109099 0.0388857 
v 0.210781 0.109141 0.0390617 
v 0.211109 0.109021 0.0384525 
v 0.210967 0.109073 0.0387762 
v 0.21125 0.108969 0.0379877 
v 0.21125 0.108969 0.0379927 
v 0.211163 0.109 0.0383275 
v 0.211296 0.108952 0.0375 
v 0.215042 0.129979 0.04 
v 0.215446 0.121735 0.0375 
v 0.217474 0.129401 0.0375 
v 0.213045 0.12243 0.04 
v 0.214982 0.120158 0.0375 
v 0.212587 0.120874 0.04 
v 0.213067 0.114094 0.0375 
v 0.210694 0.114882 0.04 
v 0.217157 0.139162 0.04 
v 0.213513 0.122294 0.039952 
v 0.215516 0.129866 0.039952 
v 0.215972 0.129758 0.0398097 
v 0.216393 0.129658 0.0395787 
v 0.213964 0.122164 0.0398097 
v 0.216761 0.12957 0.0392678 
v 0.214379 0.122044 0.0395787 
v 0.217064 0.129498 0.0388889 
v 0.214743 0.121938 0.0392678 
v 0.217289 0.129445 0.0384567 
v 0.215041 0.121852 0.0388889 
v 0.217427 0.129412 0.0379877 
v 0.215263 0.121788 0.0384567 
v 0.213054 0.120734 0.039952 
v 0.213503 0.1206 0.0398097 
v 0.213918 0.120476 0.0395787 
v 0.214281 0.120368 0.0392678 
v 0.214578 0.120279 0.0388889 
v 0.2154 0.121748 0.0379877 
v 0.2148 0.120212 0.0384567 
v 0.211157 0.114728 0.039952 
v 0.211602 0.11458 0.0398097 
v 0.212012 0.114444 0.0395787 
v 0.212372 0.114325 0.0392678 
v 0.212667 0.114227 0.0388889 
v 0.214936 0.120172 0.0379877 
v 0.212886 0.114154 0.0384567 
v 0.213021 0.114109 0.0379877 
v 0.211296 0.108952 0.0025 
v 0.214982 0.120158 0.0025 
v 0.215446 0.121735 0.0025 
v 0.217474 0.129401 0.0025 
v 0.217708 0.130404 0.0025 
v 0.213067 0.114094 0.0025 
v 0.221208 0.118693 0.0025 
v 0.223368 0.112311 0.0025 
v 0.218293 0.128332 0.0025 
v 0.213045 0.12243 0 
v 0.215042 0.129979 -4.33681e-19 
v 0.212587 0.120874 4.33681e-19 
v 0.210694 0.114882 0 
v 0.211273 0.10896 0.00215371 
v 0.211241 0.108972 0.00201466 
v 0.211163 0.109 0.00167252 
v 0.211034 0.109048 0.00135374 
v 0.211112 0.109019 0.00154558 
v 0.210781 0.109141 0.000938327 
v 0.210891 0.109101 0.00111764 
v 0.210561 0.109222 0.000682987 
v 0.210249 0.109337 0.00042636 
v 0.210606 0.109206 0.00073488 
v 0.210193 0.109357 0.000380183 
v 0.209905 0.109463 0.000217052 
v 0.209845 0.109485 0.000195798 
v 0.209464 0.109625 6.10054e-05 
v 0.209406 0.109647 5.32474e-05 
v 0.209015 0.109791 9.96128e-07 
v 0.217157 0.139162 4.33681e-19 
v 0.217473 0.140534 0 
v 0.217473 0.140519 2.54597e-09 
v 0.217518 0.138573 6.05877e-05 
v 0.217512 0.13886 3.43427e-05 
v 0.217507 0.139081 2.97643e-05 
v 0.21752 0.138499 6.73943e-05 
v 0.217595 0.135291 0.000360836 
v 0.217603 0.134946 0.000433847 
v 0.217562 0.136719 0.000230204 
v 0.217638 0.133443 0.000752068 
v 0.217653 0.132765 0.000895527 
v 0.217668 0.132119 0.00111254 
v 0.217671 0.132007 0.00115016 
v 0.21769 0.1312 0.00154625 
v 0.217703 0.130622 0.00198387 
v 0.217704 0.1306 0.00201237 
v 0.217693 0.13106 0.001615 
v 0.217697 0.130878 0.00174355 
v 0.217708 0.130418 0.00236843 
v 0.217705 0.130537 0.00209555 
v 0.217707 0.130454 0.00224997 
v 0.208949 0.109815 0 
v 0.2154 0.121748 0.00201227 
v 0.217427 0.129412 0.00201227 
v 0.217289 0.129445 0.00154329 
v 0.217064 0.129498 0.00111107 
v 0.215263 0.121788 0.00154329 
v 0.216761 0.12957 0.000732233 
v 0.215041 0.121852 0.00111107 
v 0.216393 0.129658 0.000421326 
v 0.214743 0.121938 0.000732233 
v 0.215972 0.129758 0.000190301 
v 0.214379 0.122044 0.000421326 
v 0.215516 0.129866 4.80368e-05 
v 0.213964 0.122164 0.000190301 
v 0.213513 0.122294 4.80368e-05 
v 0.214936 0.120172 0.00201227 
v 0.2148 0.120212 0.00154329 
v 0.214578 0.120279 0.00111107 
v 0.214281 0.120368 0.000732233 
v 0.213918 0.120476 0.000421326 
v 0.213503 0.1206 0.000190301 
v 0.213054 0.120734 4.80368e-05 
v 0.213021 0.114109 0.00201227 
v 0.212886 0.114154 0.00154329 
v 0.212667 0.114227 0.00111107 
v 0.212372 0.114325 0.000732233 
v 0.212012 0.114444 0.000421326 
v 0.211602 0.11458 0.000190301 
v 0.211157 0.114728 4.80368e-05 
v 0.218004 0.138634 0 
v 0.220697 0.129019 0 
v 0.223588 0.119459 0 
v 0.225722 0.113152 0 
v 0.226829 0.109794 3.18235e-06 
v 0.226947 0.109838 0 
v 0.226434 0.109644 6.09814e-05 
v 0.226123 0.109526 0.000160513 
v 0.226491 0.109666 5.25452e-05 
v 0.226055 0.1095 0.000196321 
v 0.225708 0.109368 0.000380129 
v 0.22565 0.109347 0.000424659 
v 0.225445 0.109269 0.000584127 
v 0.225302 0.109215 0.000740709 
v 0.225122 0.109146 0.000938274 
v 0.224937 0.109076 0.00122374 
v 0.225008 0.109103 0.00111432 
v 0.224741 0.109002 0.00167249 
v 0.224655 0.108969 0.00200724 
v 0.224796 0.109022 0.00154747 
v 0.224655 0.108969 0.00201232 
v 0.217542 0.138505 6.33368e-05 
v 0.220228 0.128885 4.80368e-05 
v 0.219777 0.128756 0.000190301 
v 0.223123 0.119309 4.80368e-05 
v 0.219362 0.128637 0.000421326 
v 0.222677 0.119166 0.000190301 
v 0.218998 0.128533 0.000732233 
v 0.222265 0.119033 0.000421326 
v 0.218699 0.128448 0.00111107 
v 0.221905 0.118917 0.000732233 
v 0.218476 0.128385 0.00154329 
v 0.221609 0.118822 0.00111107 
v 0.21834 0.128346 0.00201227 
v 0.221389 0.118751 0.00154329 
v 0.221253 0.118708 0.00201227 
v 0.225263 0.112988 4.80368e-05 
v 0.224821 0.11283 0.000190301 
v 0.224414 0.112685 0.000421326 
v 0.224057 0.112557 0.000732233 
v 0.223765 0.112453 0.00111107 
v 0.223547 0.112375 0.00154329 
v 0.223413 0.112327 0.00201227 
v 0.193798 0.062846 0.00225496 
v 0.193746 0.06281 0.00201227 
v 0.193659 0.0627504 0.00177429 
v 0.193539 0.0626678 0.00154329 
v 0.193387 0.0625629 0.00132151 
v 0.193205 0.0624367 0.00111107 
v 0.192754 0.0621258 0.000732233 
v 0.192205 0.061747 0.000421326 
v 0.191579 0.0613148 0.000190301 
v 0.1909 0.0608458 4.80368e-05 
v 0.190193 0.0603581 0 
v 0.245537 0.0603581 0 
v 0.244833 0.0608458 4.80368e-05 
v 0.244156 0.0613148 0.000190301 
v 0.243531 0.061747 0.000421326 
v 0.242984 0.0621258 0.000732233 
v 0.242535 0.0624367 0.00111107 
v 0.242353 0.0625629 0.00132151 
v 0.242202 0.0626678 0.00154329 
v 0.242083 0.0627504 0.00177429 
v 0.241996 0.06281 0.00201227 
v 0.241944 0.062846 0.00225496 
v 0.223522 0.146849 0.04 
v 0.21238 0.146849 0.04 
v 0.155559 0.0025 0.04 
v 0.28006 0.0025 0.04 
v 0.249004 0.0497982 0.04 
v 0.185982 0.0497982 0.04 
v 0.167688 0.0025 0.04 
v 0.267526 0.0025 0.04 
v 0.168022 0.00201227 0.039952 
v 0.168343 0.00154329 0.0398097 
v 0.154843 0.00201227 0.039952 
v 0.16864 0.00111107 0.0395787 
v 0.154154 0.00154329 0.0398097 
v 0.168899 0.000732233 0.0392678 
v 0.153519 0.00111107 0.0395787 
v 0.169112 0.000421326 0.0388889 
v 0.152963 0.000732233 0.0392678 
v 0.169271 0.000190301 0.0384567 
v 0.152507 0.000421326 0.0388889 
v 0.152321 0.000295197 0.0386785 
v 0.169327 0.000107649 0.0382257 
v 0.152167 0.000190301 0.0384567 
v 0.152046 0.000107649 0.0382257 
v 0.151959 4.80368e-05 0.0379877 
v 0.169368 4.80368e-05 0.0379877 
v 0.169393 1.20382e-05 0.037745 
v 0.151906 1.20382e-05 0.037745 
v 0.151888 -9.71445e-17 0.0375 
v 0.169401 0 0.0375 
v 0.212048 0.147337 0.039952 
v 0.211728 0.147806 0.0398097 
v 0.211434 0.148238 0.0395787 
v 0.211176 0.148617 0.0392678 
v 0.210964 0.148928 0.0388889 
v 0.210807 0.149159 0.0384567 
v 0.21075 0.149241 0.0382257 
v 0.210685 0.149337 0.037745 
v 0.21071 0.149301 0.0379877 
v 0.210677 0.149349 0.0375 
v 0.187695 0.0472982 0.0375 
v 0.187687 0.0473102 0.037745 
v 0.187662 0.0473462 0.0379877 
v 0.187622 0.0474058 0.0382257 
v 0.187565 0.0474885 0.0384567 
v 0.187407 0.0477195 0.0388889 
v 0.187193 0.0480304 0.0392678 
v 0.186934 0.0484093 0.0395787 
v 0.186638 0.0488415 0.0398097 
v 0.186316 0.0493105 0.039952 
v 0.151888 -9.71445e-17 0.0025 
v 0.169401 0 0.0025 
v 0.223855 0.147337 0.039952 
v 0.224175 0.147806 0.0398097 
v 0.22447 0.148238 0.0395787 
v 0.224728 0.148617 0.0392678 
v 0.22494 0.148928 0.0388889 
v 0.225098 0.149159 0.0384567 
v 0.225154 0.149241 0.0382257 
v 0.225195 0.149301 0.0379877 
v 0.22522 0.149337 0.037745 
v 0.225228 0.149349 0.0375 
v 0.210677 0.149349 0.0025 
v 0.247306 0.0473102 0.037745 
v 0.247298 0.0472982 0.0375 
v 0.247331 0.0473462 0.0379877 
v 0.247372 0.0474058 0.0382257 
v 0.247428 0.0474885 0.0384567 
v 0.247586 0.0477195 0.0388889 
v 0.247798 0.0480304 0.0392678 
v 0.248056 0.0484093 0.0395787 
v 0.248351 0.0488415 0.0398097 
v 0.248671 0.0493105 0.039952 
v 0.187695 0.0472982 0.0025 
v 0.169393 1.20382e-05 0.00225496 
v 0.151906 1.20382e-05 0.00225496 
v 0.151959 4.80368e-05 0.00201227 
v 0.169368 4.80368e-05 0.00201227 
v 0.169327 0.000107649 0.00177429 
v 0.152046 0.000107649 0.00177429 
v 0.152167 0.000190301 0.00154329 
v 0.169271 0.000190301 0.00154329 
v 0.152321 0.000295197 0.00132151 
v 0.152507 0.000421326 0.00111107 
v 0.169112 0.000421326 0.00111107 
v 0.152963 0.000732233 0.000732233 
v 0.168899 0.000732233 0.000732233 
v 0.153519 0.00111107 0.000421326 
v 0.16864 0.00111107 0.000421326 
v 0.154154 0.00154329 0.000190301 
v 0.168343 0.00154329 0.000190301 
v 0.154843 0.00201227 4.80368e-05 
v 0.168022 0.00201227 4.80368e-05 
v 0.155559 0.0025 0 
v 0.167688 0.0025 0 
v 0.280775 0.00201227 0.039952 
v 0.281462 0.00154329 0.0398097 
v 0.282096 0.00111107 0.0395787 
v 0.282651 0.000732233 0.0392678 
v 0.283106 0.000421326 0.0388889 
v 0.283291 0.000295197 0.0386785 
v 0.283445 0.000190301 0.0384567 
v 0.283566 0.000107649 0.0382257 
v 0.283654 4.80368e-05 0.0379877 
v 0.283706 1.20382e-05 0.037745 
v 0.283724 0 0.0375 
v 0.225228 0.149349 0.0025 
v 0.210685 0.149337 0.00225496 
v 0.21071 0.149301 0.00201227 
v 0.21075 0.149241 0.00177429 
v 0.210807 0.149159 0.00154329 
v 0.210964 0.148928 0.00111107 
v 0.211176 0.148617 0.000732233 
v 0.211434 0.148238 0.000421326 
v 0.211728 0.147806 0.000190301 
v 0.212048 0.147337 4.80368e-05 
v 0.21238 0.146849 0 
v 0.265853 4.80368e-05 0.0379877 
v 0.26582 0 0.0375 
v 0.265829 1.20382e-05 0.037745 
v 0.26595 0.000190301 0.0384567 
v 0.265894 0.000107649 0.0382257 
v 0.266108 0.000421326 0.0388889 
v 0.26632 0.000732233 0.0392678 
v 0.266578 0.00111107 0.0395787 
v 0.266873 0.00154329 0.0398097 
v 0.267193 0.00201227 0.039952 
v 0.247298 0.0472982 0.0025 
v 0.186316 0.0493105 4.80368e-05 
v 0.186638 0.0488415 0.000190301 
v 0.186934 0.0484093 0.000421326 
v 0.187193 0.0480304 0.000732233 
v 0.187407 0.0477195 0.00111107 
v 0.187565 0.0474885 0.00154329 
v 0.187622 0.0474058 0.00177429 
v 0.187662 0.0473462 0.00201227 
v 0.187687 0.0473102 0.00225496 
v 0.185982 0.0497982 0 
v 0.26582 0 0.0025 
v 0.249004 0.0497982 0 
v 0.248671 0.0493105 4.80368e-05 
v 0.248351 0.0488415 0.000190301 
v 0.248056 0.0484093 0.000421326 
v 0.247798 0.0480304 0.000732233 
v 0.247586 0.0477195 0.00111107 
v 0.247428 0.0474885 0.00154329 
v 0.247372 0.0474058 0.00177429 
v 0.247331 0.0473462 0.00201227 
v 0.247306 0.0473102 0.00225496 
v 0.283724 0 0.0025 
v 0.267526 0.0025 0 
v 0.267193 0.00201227 4.80368e-05 
v 0.266873 0.00154329 0.000190301 
v 0.266578 0.00111107 0.000421326 
v 0.26632 0.000732233 0.000732233 
v 0.266108 0.000421326 0.00111107 
v 0.26595 0.000190301 0.00154329 
v 0.265894 0.000107649 0.00177429 
v 0.265853 4.80368e-05 0.00201227 
v 0.265829 1.20382e-05 0.00225496 
v 0.223522 0.146849 0 
v 0.28006 0.0025 0 
v 0.22522 0.149337 0.00225496 
v 0.225195 0.149301 0.00201227 
v 0.225154 0.149241 0.00177429 
v 0.225098 0.149159 0.00154329 
v 0.22494 0.148928 0.00111107 
v 0.224728 0.148617 0.000732233 
v 0.22447 0.148238 0.000421326 
v 0.224175 0.147806 0.000190301 
v 0.223855 0.147337 4.80368e-05 
v 0.283706 1.20382e-05 0.00225496 
v 0.283654 4.80368e-05 0.00201227 
v 0.283566 0.000107649 0.00177429 
v 0.283445 0.000190301 0.00154329 
v 0.283291 0.000295197 0.00132151 
v 0.283106 0.000421326 0.00111107 
v 0.282651 0.000732233 0.000732233 
v 0.282096 0.00111107 0.000421326 
v 0.281462 0.00154329 0.000190301 
v 0.280775 0.00201227 4.80368e-05 
vn -0.936112 -0.351703 0 
vn 0 1 0 
vn -0.918156 -0.344957 0.194924 
vn -0.927087 -0.348313 0.138518 
vn -0.936112 -0.351703 0 
vn -0.931604 -0.350009 0.0980171 
vn -0.864866 -0.324936 0.382653 
vn -0.883342 -0.331877 0.331004 
vn -0.918125 -0.344945 0.19509 
vn -0.895803 -0.336559 0.290285 
vn -0.831906 -0.312552 0.458523 
vn -0.864854 -0.324931 0.382683 
vn -0.825577 -0.310174 0.471397 
vn -0.778314 -0.292418 0.555625 
vn -0.730984 -0.274635 0.62469 
vn -0.778348 -0.29243 0.55557 
vn -0.661931 -0.248692 0.707107 
vn -0.661888 -0.248676 0.707152 
vn -0.519939 -0.195344 0.831567 
vn -0.642935 -0.241555 0.726833 
vn -0.520076 -0.195396 0.83147 
vn -0.381478 -0.143324 0.913199 
vn -0.496213 -0.18643 0.847948 
vn -0.358379 -0.134645 0.923816 
vn -0.358234 -0.134591 0.92388 
vn -0.182727 -0.0686518 0.980764 
vn -0.205498 -0.0772067 0.975607 
vn -0.182626 -0.0686138 0.980785 
vn 9.32712e-14 3.50426e-14 1 
vn -0.0472181 -0.0177401 0.998727 
vn -0.18789 -0.0525128 0.980785 
vn -0.187593 -0.0535646 0.980785 
vn 0 0 1 
vn -0.961569 -0.274563 0 
vn -0.951953 -0.306243 0 
vn -0.933662 -0.300359 0.19509 
vn -0.888374 -0.253663 0.382683 
vn -0.943093 -0.269287 0.19509 
vn -0.799515 -0.228291 0.55557 
vn -0.87949 -0.282932 0.382683 
vn -0.679932 -0.194145 0.707107 
vn -0.79152 -0.254632 0.55557 
vn -0.534219 -0.152539 0.83147 
vn -0.673133 -0.216546 0.707107 
vn -0.367977 -0.105071 0.92388 
vn -0.528877 -0.170139 0.83147 
vn -0.364297 -0.117194 0.92388 
vn -0.185717 -0.059745 0.980785 
vn 0 0 1 
vn -0.941665 -0.336551 0 
vn -0.923571 -0.330084 0.19509 
vn -0.869985 -0.310933 0.382683 
vn -0.782966 -0.279832 0.55557 
vn -0.665858 -0.237978 0.707107 
vn -0.523161 -0.186978 0.83147 
vn -0.36036 -0.128793 0.92388 
vn -0.18371 -0.0656579 0.980785 
vn 0 0 1 
vn -0.00137448 -0.000384151 0.999999 
vn -0.139615 -0.0390205 0.989437 
vn 0 0 1 
vn -0.285282 -0.0797327 0.955121 
vn -0.368559 -0.103008 0.92388 
vn -0.195041 -0.0545114 0.979279 
vn -0.545208 -0.152379 0.824335 
vn -0.681009 -0.190333 0.707107 
vn -0.738577 -0.206423 0.641789 
vn -0.800782 -0.223808 0.55557 
vn -0.850889 -0.237813 0.468437 
vn -0.889781 -0.248682 0.382683 
vn -0.942344 -0.263373 0.206452 
vn -0.944587 -0.264 0.19509 
vn -0.930607 -0.260093 0.25753 
vn -0.900728 -0.251742 0.353998 
vn -0.961918 -0.268844 0.0493703 
vn -0.963092 -0.269172 0 
vn -0.953159 -0.266396 0.143249 
vn -0.958263 -0.267822 0.100014 
vn -0.933881 -0.357583 0 
vn -0.924879 -0.354136 0.138518 
vn -0.915937 -0.350712 0.19509 
vn -0.881238 -0.337426 0.331004 
vn -0.829924 -0.317778 0.458523 
vn -0.862794 -0.330363 0.382683 
vn -0.729242 -0.279227 0.62469 
vn -0.776494 -0.297319 0.55557 
vn -0.641403 -0.245593 0.726833 
vn -0.660354 -0.252849 0.707107 
vn -0.5187 -0.19861 0.831567 
vn -0.495031 -0.189547 0.847948 
vn -0.380569 -0.14572 0.913199 
vn -0.357381 -0.136841 0.92388 
vn -0.205008 -0.0784975 0.975607 
vn -0.182191 -0.069761 0.980785 
vn -0.0471056 -0.0180367 0.998727 
vn -5.71837e-17 -2.18956e-17 1 
vn -0.18789 -0.0525128 0.980785 
vn 0 0.19509 0.980785 
vn 0 0.382683 0.92388 
vn 0 0.55557 0.83147 
vn 0 0.707107 0.707107 
vn 0 0.83147 0.55557 
vn 0 0.881921 0.471397 
vn 0 0.92388 0.382683 
vn 0 0.95694 0.290285 
vn 0 0.980785 0.19509 
vn 0 0.995185 0.0980171 
vn 0 1 -6.12323e-17 
vn 0 1.22465e-16 1 
vn 0.182413 -0.069178 0.980785 
vn 0.182551 -0.0692303 0.980756 
vn 0.0263925 -0.010009 0.999602 
vn 0.357817 -0.135697 0.92388 
vn 0.357661 -0.135639 0.923948 
vn 0.329667 -0.125022 0.935783 
vn 0.205298 -0.0778566 0.975598 
vn 0.519469 -0.197002 0.83147 
vn 0.519419 -0.196983 0.831505 
vn 0.495667 -0.187975 0.847927 
vn 0.661159 -0.250736 0.707107 
vn 0.661122 -0.250722 0.707146 
vn 0.600698 -0.227807 0.766333 
vn 0.777441 -0.294835 0.55557 
vn 0.77746 -0.294842 0.555539 
vn 0.730147 -0.276899 0.624669 
vn 0.824614 -0.312724 0.471397 
vn 0.863908 -0.327626 0.382523 
vn 0.804009 -0.30491 0.51049 
vn 0.863846 -0.327603 0.382683 
vn 0.894759 -0.339326 0.290285 
vn 0.91705 -0.34778 0.195109 
vn 0.916679 -0.347639 0.197096 
vn 0.882316 -0.334607 0.330993 
vn 0.917054 -0.347781 0.19509 
vn 0.930518 -0.352887 0.0980171 
vn 0.93502 -0.354595 0 
vn 0.187394 -0.0542552 0.980785 
vn 0.189804 -0.0451086 0.980785 
vn 0 0 1 
vn 0.372313 -0.0884837 0.92388 
vn 0.540515 -0.128458 0.83147 
vn 0.367587 -0.106425 0.92388 
vn 0.687945 -0.163497 0.707107 
vn 0.533654 -0.154506 0.83147 
vn 0.808938 -0.192252 0.55557 
vn 0.679212 -0.196649 0.707107 
vn 0.898844 -0.213619 0.382683 
vn 0.798669 -0.231234 0.55557 
vn 0.954208 -0.226776 0.19509 
vn 0.887434 -0.256934 0.382683 
vn 0.960551 -0.278103 0 
vn 0.972902 -0.231219 0 
vn 0.186917 -0.0558766 0.980785 
vn 0 0 1 
vn 0.366651 -0.109606 0.92388 
vn 0.532295 -0.159123 0.83147 
vn 0.677483 -0.202525 0.707107 
vn 0.796636 -0.238145 0.55557 
vn 0.942095 -0.272759 0.19509 
vn 0.885174 -0.264612 0.382683 
vn 0.958106 -0.286414 0 
vn 0.185156 -0.0614601 0.980785 
vn 0 0 1 
vn 0.363197 -0.120558 0.92388 
vn 0.527281 -0.175024 0.83147 
vn 0.671101 -0.222763 0.707107 
vn 0.789131 -0.261941 0.55557 
vn 0.939696 -0.280911 0.19509 
vn 0.876836 -0.291054 0.382683 
vn 0.94908 -0.315034 0 
vn 0 0 1 
vn 0.0265881 -0.00947711 0.999602 
vn 0.206818 -0.0737229 0.975598 
vn 0.332107 -0.118388 0.935783 
vn 0.183764 -0.0655046 0.980785 
vn 0.360465 -0.128498 0.92388 
vn 0.52326 -0.186541 0.831505 
vn 0.605138 -0.215736 0.766333 
vn 0.499332 -0.17801 0.847927 
vn 0.666045 -0.237454 0.707107 
vn 0.735541 -0.262237 0.624669 
vn 0.809945 -0.288771 0.51049 
vn 0.783182 -0.279226 0.55557 
vn 0.930844 -0.308981 0.19509 
vn 0.888828 -0.316903 0.330993 
vn 0.923444 -0.329248 0.197096 
vn 0.870223 -0.310267 0.382683 
vn 0.923822 -0.329383 0.19509 
vn 0.969669 -0.223024 0.100014 
vn 0.964504 -0.221836 0.143249 
vn 0.973367 -0.223874 0.0493703 
vn 0.974555 -0.224148 0 
vn 0.955829 -0.219841 0.19509 
vn 0.95356 -0.219319 0.206452 
vn 0.941684 -0.216587 0.25753 
vn 0.911449 -0.209633 0.353998 
vn 0.900372 -0.207085 0.382683 
vn 0.861017 -0.198034 0.468437 
vn 0.810313 -0.186372 0.55557 
vn 0.747368 -0.171895 0.641789 
vn 0.689115 -0.158496 0.707107 
vn 0.551698 -0.12689 0.824335 
vn 0.288678 -0.0663959 0.955121 
vn 0.197705 -0.0454721 0.979206 
vn 0.372946 -0.0857776 0.92388 
vn 0.190126 -0.043729 0.980785 
vn 0 0 1 
vn 0.141318 -0.0325032 0.989431 
vn 0.00139084 -0.000319894 0.999999 
vn 0 0 1 
vn 0.94192 -0.335838 6.12323e-17 
vn 0.93502 -0.354595 0 
vn 0.958106 -0.286414 0 
vn 0.960551 -0.278103 0 
vn 0.972902 -0.231219 0 
vn 0.974555 -0.224148 0 
vn 0.94192 -0.335838 0 
vn 0.94908 -0.315034 0 
vn 0.958106 -0.286414 0 
vn 0.94192 -0.335838 0 
vn -0.951953 -0.306243 0 
vn -0.941665 -0.336551 0 
vn -0.933881 -0.357583 0 
vn -0.963092 -0.269172 0 
vn -0.961569 -0.274563 0 
vn -0.951953 -0.306243 0 
vn -0.963092 -0.269172 0 
vn 0.960551 -0.278103 0 
vn 0.942095 -0.272759 -0.19509 
vn 0.954208 -0.226776 -0.19509 
vn 0.898844 -0.213619 -0.382683 
vn 0.808938 -0.192252 -0.55557 
vn 0.887434 -0.256934 -0.382683 
vn 0.687945 -0.163497 -0.707107 
vn 0.798669 -0.231234 -0.55557 
vn 0.540515 -0.128458 -0.83147 
vn 0.679212 -0.196649 -0.707107 
vn 0.372313 -0.0884837 -0.92388 
vn 0.533654 -0.154506 -0.83147 
vn 0.189804 -0.0451086 -0.980785 
vn 0.367587 -0.106425 -0.92388 
vn 0.187394 -0.0542552 -0.980785 
vn 0 0 -1 
vn 0.958106 -0.286414 0 
vn 0.939696 -0.280911 -0.19509 
vn 0.885174 -0.264612 -0.382683 
vn 0.796636 -0.238145 -0.55557 
vn 0.677483 -0.202525 -0.707107 
vn 0.532295 -0.159123 -0.83147 
vn 0.366651 -0.109606 -0.92388 
vn 0.186917 -0.0558766 -0.980785 
vn 0 0 -1 
vn 0.94908 -0.315034 0 
vn 0.930844 -0.308981 -0.19509 
vn 0.876836 -0.291054 -0.382683 
vn 0.789131 -0.261941 -0.55557 
vn 0.671101 -0.222763 -0.707107 
vn 0.527281 -0.175024 -0.83147 
vn 0.363197 -0.120558 -0.92388 
vn 0.185156 -0.0614601 -0.980785 
vn 0 0 -1 
vn 0.94192 -0.335838 0 
vn 0.93284 -0.3326 -0.138515 
vn 0.923822 -0.329383 -0.19509 
vn 0.888828 -0.316903 -0.330993 
vn 0.83708 -0.298448 -0.458503 
vn 0.870223 -0.310267 -0.382683 
vn 0.735541 -0.262237 -0.624669 
vn 0.783182 -0.279226 -0.55557 
vn 0.646959 -0.230649 -0.726805 
vn 0.523173 -0.18651 -0.831567 
vn 0.666045 -0.237455 -0.707107 
vn 0.499332 -0.17801 -0.847927 
vn 0.383895 -0.136852 -0.913179 
vn 0.360465 -0.128498 -0.92388 
vn 0.206818 -0.0737229 -0.975598 
vn 0.183764 -0.0655046 -0.980785 
vn 0.0265881 -0.00947711 -0.999602 
vn 0 0 -1 
vn 0.00139084 -0.000319894 -0.999999 
vn 0.190126 -0.043729 -0.980785 
vn 0.16098 -0.0370254 -0.986263 
vn 0.139859 -0.0321675 -0.989649 
vn 0.197011 -0.0453125 -0.979354 
vn 0.504361 -0.116003 -0.855666 
vn 0.541434 -0.12453 -0.83147 
vn 0.372946 -0.0857776 -0.92388 
vn 0.689115 -0.158496 -0.707107 
vn 0.747368 -0.171895 -0.641789 
vn 0.810313 -0.186372 -0.55557 
vn 0.820288 -0.188666 -0.539937 
vn 0.900372 -0.207085 -0.382683 
vn 0.95356 -0.219319 -0.206452 
vn 0.955829 -0.219841 -0.19509 
vn 0.911449 -0.209633 -0.353998 
vn 0.928872 -0.213641 -0.30258 
vn 0.972902 -0.231219 0 
vn 0.973205 -0.223837 -0.0526272 
vn 0.961717 -0.221195 -0.161779 
vn 0.969669 -0.223024 -0.100014 
vn 0.974555 -0.224148 0 
vn 5.76779e-17 -2.05586e-17 -1 
vn -0.18789 -0.0525128 -0.980785 
vn -0.187593 -0.0535646 -0.980785 
vn 0 0 -1 
vn -0.367977 -0.105071 -0.92388 
vn -0.185717 -0.059745 -0.980785 
vn -0.534219 -0.152539 -0.83147 
vn -0.364297 -0.117194 -0.92388 
vn -0.679932 -0.194145 -0.707107 
vn -0.528877 -0.170139 -0.83147 
vn -0.799515 -0.228291 -0.55557 
vn -0.673133 -0.216546 -0.707107 
vn -0.888374 -0.253663 -0.382683 
vn -0.79152 -0.254632 -0.55557 
vn -0.943093 -0.269287 -0.19509 
vn -0.87949 -0.282932 -0.382683 
vn -0.961569 -0.274563 0 
vn -0.933662 -0.300359 -0.19509 
vn 0 0 -1 
vn -0.18371 -0.0656579 -0.980785 
vn -0.36036 -0.128793 -0.92388 
vn -0.523161 -0.186978 -0.83147 
vn -0.665858 -0.237978 -0.707107 
vn -0.782966 -0.279832 -0.55557 
vn -0.869985 -0.310933 -0.382683 
vn -0.951953 -0.306243 0 
vn -0.923571 -0.330084 -0.19509 
vn -0.958263 -0.267822 -0.100014 
vn -0.950405 -0.265626 -0.161779 
vn -0.961758 -0.268799 -0.0526272 
vn -0.963092 -0.269172 -6.12323e-17 
vn -0.942344 -0.263373 -0.206452 
vn -0.917946 -0.256554 -0.30258 
vn -0.900728 -0.251742 -0.353998 
vn -0.944587 -0.264 -0.19509 
vn -0.889781 -0.248682 -0.382683 
vn -0.81064 -0.226563 -0.539937 
vn -0.800782 -0.223808 -0.55557 
vn -0.738577 -0.206423 -0.641789 
vn -0.681009 -0.190333 -0.707107 
vn -0.535065 -0.149544 -0.83147 
vn -0.498428 -0.139304 -0.855666 
vn -0.368559 -0.103008 -0.92388 
vn -0.159086 -0.0444626 -0.986263 
vn -0.138276 -0.0386462 -0.98964 
vn -0.00137448 -0.000384151 -0.999999 
vn -0.18789 -0.0525128 -0.980785 
vn -0.0471056 -0.0180367 -0.998727 
vn 0 0 -1 
vn -0.205008 -0.0784975 -0.975607 
vn -0.329235 -0.126064 -0.935795 
vn -0.182191 -0.069761 -0.980785 
vn -0.357381 -0.136841 -0.92388 
vn -0.495031 -0.189547 -0.847948 
vn -0.518837 -0.198662 -0.83147 
vn -0.599948 -0.22972 -0.766349 
vn -0.660354 -0.252849 -0.707107 
vn -0.729242 -0.279227 -0.62469 
vn -0.803022 -0.307477 -0.510504 
vn -0.776494 -0.297319 -0.55557 
vn -0.881238 -0.337426 -0.331004 
vn -0.915561 -0.350568 -0.197104 
vn -0.862794 -0.330363 -0.382683 
vn -0.933881 -0.357583 -6.12323e-17 
vn -0.941665 -0.336551 0 
vn -0.915937 -0.350712 -0.19509 
vn 0 0 -1 
vn -0.195331 -0.0545926 -0.979217 
vn 0.926007 -0.351176 -0.138515 
vn 0.93502 -0.354595 1.22465e-16 
vn 0.930518 -0.352887 -0.0980171 
vn 0.917085 -0.347793 -0.194924 
vn 0.882316 -0.334607 -0.330993 
vn 0.917054 -0.347781 -0.19509 
vn 0.894759 -0.339326 -0.290285 
vn 0.863858 -0.327607 -0.382653 
vn 0.777407 -0.294822 -0.555625 
vn 0.830946 -0.315126 -0.458503 
vn 0.863846 -0.327603 -0.382683 
vn 0.824614 -0.312724 -0.471397 
vn 0.661116 -0.25072 -0.707152 
vn 0.730147 -0.276899 -0.624669 
vn 0.777441 -0.294835 -0.55557 
vn 0.661159 -0.250736 -0.707107 
vn 0.519333 -0.19695 -0.831567 
vn 0.642213 -0.243551 -0.726805 
vn 0.519469 -0.197002 -0.83147 
vn 0.357961 -0.135752 -0.923815 
vn 0.381075 -0.144518 -0.913179 
vn 0.357817 -0.135697 -0.92388 
vn 0.495667 -0.187975 -0.847927 
vn 0.182551 -0.0692303 -0.980756 
vn 0.205298 -0.0778566 -0.975598 
vn 0.182413 -0.069178 -0.980785 
vn 3.42208e-14 -1.29778e-14 -1 
vn 0.0263925 -0.010009 -0.999602 
vn -0.0472181 -0.0177401 -0.998727 
vn -1.08247e-13 -3.60822e-14 -1 
vn -0.182626 -0.0686138 -0.980785 
vn -0.182727 -0.0686518 -0.980764 
vn -0.330022 -0.123991 -0.935795 
vn -0.205498 -0.0772067 -0.975607 
vn -0.358234 -0.134591 -0.92388 
vn -0.358079 -0.134532 -0.923948 
vn -0.496213 -0.18643 -0.847948 
vn -0.520076 -0.195396 -0.83147 
vn -0.520026 -0.195377 -0.831505 
vn -0.601381 -0.225943 -0.766349 
vn -0.661931 -0.248692 -0.707107 
vn -0.661894 -0.248678 -0.707146 
vn -0.730984 -0.274635 -0.62469 
vn -0.778348 -0.29243 -0.55557 
vn -0.778368 -0.292438 -0.555539 
vn -0.804939 -0.302421 -0.510504 
vn -0.825577 -0.310174 -0.471397 
vn -0.864917 -0.324955 -0.382523 
vn -0.864854 -0.324931 -0.382683 
vn -0.917748 -0.344803 -0.197104 
vn -0.883342 -0.331877 -0.331004 
vn -0.895803 -0.336559 -0.290285 
vn -0.918121 -0.344944 -0.195109 
vn -0.918125 -0.344945 -0.19509 
vn -0.931604 -0.350009 -0.0980171 
vn -0.936112 -0.351703 1.22465e-16 
vn -2.26207e-14 -8.49873e-15 -1 
vn 0 0.995185 -0.0980171 
vn 0 1 6.12323e-17 
vn 0 0.980785 -0.19509 
vn 0 0.95694 -0.290285 
vn 0 0.92388 -0.382683 
vn 0 0.881921 -0.471397 
vn 0 0.83147 -0.55557 
vn 0 0.707107 -0.707107 
vn 0 0.55557 -0.83147 
vn 0 0.382683 -0.92388 
vn 0 0.19509 -0.980785 
vn 0 1.22465e-16 -1 
vn 0 0 1 
vn 0 -0.19509 0.980785 
vn 0 -0.382683 0.92388 
vn 0 -0.55557 0.83147 
vn 0 -0.707107 0.707107 
vn 0 -0.83147 0.55557 
vn 0 -0.92388 0.382683 
vn 0 -0.881921 0.471397 
vn 0 -0.95694 0.290285 
vn 0 -0.92388 0.382683 
vn 0 -0.980785 0.19509 
vn 0 -0.995185 0.0980171 
vn 0 -1 -1.83697e-16 
vn -0.181532 0.0714576 0.980785 
vn -7.34048e-14 2.88947e-14 1 
vn -0.356089 0.140169 0.92388 
vn -0.516961 0.203494 0.83147 
vn -0.657966 0.258999 0.707107 
vn -0.773686 0.304551 0.55557 
vn -0.859674 0.338398 0.382683 
vn -0.820632 0.32303 0.471397 
vn -0.890438 0.350508 0.290285 
vn -0.912625 0.359242 0.19509 
vn -0.926024 0.364516 0.0980171 
vn -0.930505 0.36628 0 
vn -0.912625 0.359242 0.19509 
vn -4.44089e-14 5.55112e-15 1 
vn 0.932666 -0.360742 0 
vn 0.928175 -0.359005 0.0980171 
vn 0.914745 -0.35381 0.19509 
vn 0.932666 -0.360742 0 
vn 0.892505 -0.345209 0.290285 
vn 0.861671 -0.333282 0.382683 
vn 0.775483 -0.299946 0.55557 
vn 0.659494 -0.255083 0.707107 
vn 0.518161 -0.200418 0.83147 
vn 0.356916 -0.13805 0.92388 
vn 0.181954 -0.0703773 0.980785 
vn 5.32801e-14 -2.0608e-14 1 
vn 0 -1 0 
vn 0 0.19509 0.980785 
vn 0 1.22465e-16 1 
vn 0 0.382683 0.92388 
vn 0 0.19509 0.980785 
vn 0 0.55557 0.83147 
vn 0 0.382683 0.92388 
vn 0 0.707107 0.707107 
vn 0 0.55557 0.83147 
vn 0 0.83147 0.55557 
vn 0 0.707107 0.707107 
vn 0 0.92388 0.382683 
vn 0 0.83147 0.55557 
vn 0 0.95694 0.290285 
vn 0 0.92388 0.382683 
vn 0 0.980785 0.19509 
vn 0 0.995185 0.0980171 
vn 0 1 -6.12323e-17 
vn -0.930505 0.36628 0 
vn 0 -0.995185 0.0980171 
vn 0 -0.980785 0.19509 
vn 0 -1 0 
vn 0 -0.95694 0.290285 
vn 0 -0.92388 0.382683 
vn 0 -0.83147 0.55557 
vn 0 -0.707107 0.707107 
vn 0 -0.55557 0.83147 
vn 0 -0.382683 0.92388 
vn 0 -0.19509 0.980785 
vn 0 0 1 
vn 0 -1 -1.83697e-16 
vn 0.932666 -0.360742 0 
vn 0 -0.995185 -0.0980171 
vn 0 -0.980785 -0.19509 
vn 0 -1 1.73472e-16 
vn 0 -0.95694 -0.290285 
vn 0 -0.92388 -0.382683 
vn 0 -0.881921 -0.471397 
vn 0 -0.83147 -0.55557 
vn 0 -0.707107 -0.707107 
vn 0 -0.55557 -0.83147 
vn 0 -0.382683 -0.92388 
vn 0 -0.19509 -0.980785 
vn 0 0 -1 
vn 0 -1 1.83697e-16 
vn 0.181654 0.071149 0.980785 
vn 6.47702e-14 2.53688e-14 1 
vn 0.356326 0.139564 0.92388 
vn 0.181654 0.071149 0.980785 
vn 0.517306 0.202615 0.83147 
vn 0.356326 0.139564 0.92388 
vn 0.658405 0.25788 0.707107 
vn 0.517306 0.202615 0.83147 
vn 0.774203 0.303235 0.55557 
vn 0.658405 0.25788 0.707107 
vn 0.860248 0.336937 0.382683 
vn 0.774203 0.303235 0.55557 
vn 0.82118 0.321635 0.471397 
vn 0.891032 0.348994 0.290285 
vn 0.860248 0.336937 0.382683 
vn 0.913235 0.35769 0.19509 
vn 0.926642 0.362942 0.0980171 
vn 0.931126 0.364698 0 
vn 0 1 0 
vn -0.926024 0.364516 -0.0980171 
vn -0.912625 0.359242 -0.19509 
vn -0.930505 0.36628 1.22465e-16 
vn -0.890438 0.350508 -0.290285 
vn -0.859674 0.338398 -0.382683 
vn -0.773686 0.304551 -0.55557 
vn -0.820632 0.32303 -0.471397 
vn -0.657966 0.258999 -0.707107 
vn -0.516961 0.203494 -0.83147 
vn -0.356089 0.140169 -0.92388 
vn -0.181532 0.0714576 -0.980785 
vn 7.33835e-14 -2.88864e-14 -1 
vn -0.913256 -0.357634 0.19509 
vn -0.926664 -0.362885 0.0980171 
vn -0.931148 -0.364641 0 
vn -0.860269 -0.336884 0.382683 
vn -0.891053 -0.34894 0.290285 
vn -0.774221 -0.303188 0.55557 
vn -0.658421 -0.25784 0.707107 
vn -0.517318 -0.202584 0.83147 
vn -0.356335 -0.139542 0.92388 
vn -0.181658 -0.0711379 0.980785 
vn -4.24421e-14 -1.66205e-14 1 
vn -0.931148 -0.364641 0 
vn 0 -1 0 
vn 0.181954 -0.0703773 -0.980785 
vn -2.31379e-15 8.94943e-16 -1 
vn 0.356916 -0.13805 -0.92388 
vn 0.518161 -0.200418 -0.83147 
vn 0.659494 -0.255083 -0.707107 
vn 0.775483 -0.299946 -0.55557 
vn 0.861671 -0.333282 -0.382683 
vn 0.892505 -0.345209 -0.290285 
vn 0.914745 -0.35381 -0.19509 
vn 0.928175 -0.359005 -0.0980171 
vn 0.932666 -0.360742 1.22465e-16 
vn -9.15934e-14 7.21645e-14 -1 
vn 0 -0.19509 0.980785 
vn 0 0 1 
vn 0 -0.382683 0.92388 
vn 0 -0.55557 0.83147 
vn 0 -0.707107 0.707107 
vn 0 -0.83147 0.55557 
vn 0 -0.92388 0.382683 
vn 0 -0.881921 0.471397 
vn 0 -0.95694 0.290285 
vn 0 -0.980785 0.19509 
vn 0 -0.995185 0.0980171 
vn 0 -1 -1.83697e-16 
vn 0 -0.980785 0.19509 
vn 0 0 1 
vn -0.931148 -0.364641 0 
vn 0 0 -1 
vn 0 -0.19509 -0.980785 
vn 0 -0.382683 -0.92388 
vn 0 -0.55557 -0.83147 
vn 0 -0.707107 -0.707107 
vn 0 -0.83147 -0.55557 
vn 0 -0.92388 -0.382683 
vn 0 -0.95694 -0.290285 
vn 0 -0.980785 -0.19509 
vn 0 -0.995185 -0.0980171 
vn 0 -1 1.83697e-16 
vn 0 0 -1 
vn -0.181658 -0.0711379 -0.980785 
vn -0.356335 -0.139542 -0.92388 
vn -0.517318 -0.202584 -0.83147 
vn -0.658421 -0.25784 -0.707107 
vn -0.774221 -0.303188 -0.55557 
vn -0.860269 -0.336884 -0.382683 
vn -0.913256 -0.357634 -0.19509 
vn -0.891053 -0.34894 -0.290285 
vn -0.931148 -0.364641 1.22465e-16 
vn -0.926664 -0.362885 -0.0980171 
vn 0 0 -1 
vn 0.931126 0.364698 0 
vn 0 0.995185 -0.0980171 
vn 0 0.980785 -0.19509 
vn 0 1 0 
vn 0 0.95694 -0.290285 
vn 0 0.92388 -0.382683 
vn 0 0.83147 -0.55557 
vn 0 0.707107 -0.707107 
vn 0 0.55557 -0.83147 
vn 0 0.382683 -0.92388 
vn 0 0.19509 -0.980785 
vn 0 1.22465e-16 -1 
vn 0 1 6.12323e-17 
vn 0.926642 0.362942 -0.0980171 
vn 0.913235 0.35769 -0.19509 
vn 0.931126 0.364698 1.73472e-16 
vn 0.891032 0.348994 -0.290285 
vn 0.860248 0.336937 -0.382683 
vn 0.82118 0.321635 -0.471397 
vn 0.774203 0.303235 -0.55557 
vn 0.658405 0.25788 -0.707107 
vn 0.517306 0.202615 -0.83147 
vn 0.356326 0.139564 -0.92388 
vn 0.181654 0.071149 -0.980785 
vn -5.93734e-14 -2.3255e-14 -1 
vn 0.931126 0.364698 1.22465e-16 
vn 0 -0.995185 -0.0980171 
vn 0 -0.980785 -0.19509 
vn 0 -1 1.83697e-16 
vn 0 -0.95694 -0.290285 
vn 0 -0.92388 -0.382683 
vn 0 -0.83147 -0.55557 
vn 0 -0.881921 -0.471397 
vn 0 -0.707107 -0.707107 
vn 0 -0.55557 -0.83147 
vn 0 -0.382683 -0.92388 
vn 0 -0.19509 -0.980785 
vn 0 0 -1 
usemtl 0.647059_0.647059_0.647059_0.000000_0.000000
o mesh0
f 1//1 2//1 3//1 
f 3//1 4//1 1//1 
o mesh1
f 4//2 5//2 6//2 
f 6//2 1//2 4//2 
o mesh2
f 7//3 8//4 1//5 
f 1//5 9//6 7//3 
f 8//4 2//5 1//5 
f 10//7 11//8 12//9 
f 12//9 13//10 10//7 
f 11//8 7//3 12//9 
f 14//11 10//7 15//12 
f 16//13 17//14 14//11 
f 15//12 16//13 14//11 
f 18//15 17//14 19//16 
f 20//17 21//18 18//15 
f 22//19 23//20 20//17 
f 20//17 24//21 22//19 
f 24//21 25//22 26//23 
f 27//24 25//22 24//21 
f 24//21 28//25 27//24 
f 29//26 30//27 28//25 
f 28//25 31//28 29//26 
f 32//29 33//30 31//28 
f 31//28 34//29 32//29 
f 33//30 29//26 31//28 
f 30//27 27//24 28//25 
f 26//23 22//19 24//21 
f 23//20 21//18 20//17 
f 19//16 20//17 18//15 
f 16//13 19//16 17//14 
f 13//10 15//12 10//7 
f 9//6 12//9 7//3 
o mesh3
f 63//31 64//32 35//33 
f 36//34 37//35 65//36 
f 66//37 67//38 65//36 
f 68//39 66//37 69//40 
f 70//41 68//39 71//42 
f 72//43 70//41 73//44 
f 74//45 72//43 75//46 
f 64//32 74//45 76//47 
f 64//32 77//48 38//49 
f 37//35 39//50 78//51 
f 69//40 65//36 78//51 
f 71//42 69//40 79//52 
f 73//44 71//42 80//53 
f 75//46 73//44 81//54 
f 76//47 75//46 82//55 
f 77//48 76//47 83//56 
f 77//48 84//57 40//58 
f 63//31 41//59 42//60 
f 43//61 44//61 41//59 
f 41//59 63//31 43//61 
f 64//32 45//62 46//63 
f 63//31 47//64 45//62 
f 45//62 64//32 63//31 
f 74//45 46//63 48//65 
f 72//43 48//65 49//66 
f 70//41 50//67 51//68 
f 70//41 49//66 50//67 
f 68//39 52//69 53//70 
f 68//39 51//68 52//69 
f 66//37 54//71 55//72 
f 66//37 56//73 54//71 
f 66//37 57//74 56//73 
f 66//37 53//70 57//74 
f 67//38 58//75 59//76 
f 67//38 55//72 60//77 
f 60//77 61//78 67//38 
f 61//78 58//75 67//38 
f 39//50 2//79 8//80 
f 8//80 78//51 39//50 
f 78//51 7//81 11//82 
f 11//82 79//52 78//51 
f 80//53 79//52 14//83 
f 79//52 10//84 14//83 
f 81//54 80//53 18//85 
f 80//53 17//86 18//85 
f 82//55 81//54 23//87 
f 81//54 21//88 23//87 
f 23//87 22//89 82//55 
f 82//55 26//90 25//91 
f 25//91 83//56 82//55 
f 83//56 27//92 30//93 
f 30//93 84//57 83//56 
f 84//57 29//94 33//95 
f 33//95 40//58 84//57 
f 33//95 32//96 40//58 
f 30//93 29//94 84//57 
f 25//91 27//92 83//56 
f 22//89 26//90 82//55 
f 18//85 21//88 81//54 
f 14//83 17//86 80//53 
f 11//82 10//84 79//52 
f 8//80 7//81 78//51 
f 59//76 36//34 67//38 
f 55//72 67//38 66//37 
f 53//70 66//37 68//39 
f 51//68 68//39 70//41 
f 49//66 70//41 72//43 
f 48//65 72//43 74//45 
f 46//63 74//45 64//32 
f 47//64 63//31 62//97 
f 42//60 62//97 63//31 
f 40//58 38//49 77//48 
f 83//56 84//57 77//48 
f 82//55 83//56 76//47 
f 81//54 82//55 75//46 
f 80//53 81//54 73//44 
f 79//52 80//53 71//42 
f 78//51 79//52 69//40 
f 78//51 65//36 37//35 
f 38//49 35//33 64//32 
f 76//47 77//48 64//32 
f 75//46 76//47 74//45 
f 73//44 75//46 72//43 
f 71//42 73//44 70//41 
f 69//40 71//42 68//39 
f 65//36 69//40 66//37 
f 65//36 67//38 36//34 
f 35//33 43//61 63//31 
o mesh4
f 34//96 31//98 85//98 
f 31//98 28//99 86//99 
f 28//99 24//100 87//100 
f 24//100 20//101 88//101 
f 20//101 19//102 89//102 
f 90//103 19//102 16//103 
f 16//103 91//104 90//103 
f 16//103 15//104 91//104 
f 13//105 12//106 92//106 
f 93//105 15//104 13//105 
f 92//106 93//105 13//105 
f 9//107 1//108 6//108 
f 94//107 12//106 9//107 
f 6//108 94//107 9//107 
f 94//107 92//106 12//106 
f 93//105 91//104 15//104 
f 90//103 89//102 19//102 
f 89//102 88//101 20//101 
f 88//101 87//100 24//100 
f 87//100 86//99 28//99 
f 86//99 85//98 31//98 
f 85//98 95//109 34//96 
o mesh5
f 96//109 95//109 85//110 
f 85//110 97//111 98//112 
f 97//111 85//110 86//113 
f 86//113 99//114 100//115 
f 100//115 101//116 86//113 
f 99//114 86//113 87//117 
f 87//117 102//118 103//119 
f 102//118 87//117 88//120 
f 88//120 104//121 105//122 
f 104//121 88//120 89//123 
f 89//123 106//124 107//125 
f 106//124 89//123 90//126 
f 90//126 108//127 109//128 
f 90//126 109//128 106//124 
f 108//127 91//129 93//130 
f 93//130 110//131 111//132 
f 111//132 112//133 93//130 
f 93//130 112//133 108//127 
f 110//131 92//134 94//135 
f 94//135 113//136 110//131 
f 94//135 6//136 113//136 
f 93//130 92//134 110//131 
f 90//126 91//129 108//127 
f 89//123 107//125 104//121 
f 88//120 105//122 102//118 
f 87//117 103//119 99//114 
f 86//113 101//116 97//111 
f 85//110 98//112 96//109 
o mesh6
f 123//137 124//138 114//139 
f 125//140 124//138 123//137 
f 126//141 125//140 127//142 
f 128//143 126//141 129//144 
f 130//145 128//143 131//146 
f 132//147 130//145 133//148 
f 134//149 132//147 135//150 
f 115//151 116//152 134//149 
f 136//153 123//137 117//154 
f 127//142 123//137 136//153 
f 129//144 127//142 137//155 
f 131//146 129//144 138//156 
f 133//148 131//146 139//157 
f 135//150 133//148 140//158 
f 141//159 135//150 142//160 
f 118//161 115//151 141//159 
f 143//162 136//153 119//163 
f 137//155 136//153 143//162 
f 138//156 137//155 144//164 
f 139//157 138//156 145//165 
f 140//158 139//157 146//166 
f 142//160 140//158 147//167 
f 148//168 142//160 149//169 
f 120//170 118//161 148//168 
f 143//162 121//171 98//172 
f 121//171 96//171 98//172 
f 144//164 143//162 101//173 
f 101//173 100//174 144//164 
f 143//162 97//175 101//173 
f 145//165 144//164 99//176 
f 145//165 102//177 105//178 
f 105//178 146//166 145//165 
f 145//165 103//179 102//177 
f 146//166 104//180 107//181 
f 107//181 147//167 146//166 
f 149//169 147//167 109//182 
f 147//167 106//183 109//182 
f 150//184 149//169 112//185 
f 112//185 111//186 150//184 
f 149//169 108//187 112//185 
f 120//170 150//184 110//188 
f 134//149 61//189 60//190 
f 134//149 58//191 61//189 
f 116//152 59//192 58//191 
f 58//191 134//149 116//152 
f 132//147 134//149 55//193 
f 55//193 54//194 132//147 
f 54//194 56//195 132//147 
f 56//195 57//196 132//147 
f 130//145 132//147 53//197 
f 53//197 52//198 130//145 
f 128//143 130//145 51//199 
f 51//199 50//200 128//143 
f 126//141 128//143 49//201 
f 125//140 126//141 48//202 
f 124//138 45//203 47//204 
f 124//138 125//140 46//205 
f 46//205 45//203 124//138 
f 114//139 124//138 62//206 
f 62//206 122//207 114//139 
f 122//207 42//208 41//209 
f 41//209 44//210 122//207 
f 62//206 42//208 122//207 
f 47//204 62//206 124//138 
f 48//202 46//205 125//140 
f 49//201 48//202 126//141 
f 50//200 49//201 128//143 
f 52//198 51//199 130//145 
f 57//196 53//197 132//147 
f 60//190 55//193 134//149 
f 110//188 113//211 120//170 
f 111//186 110//188 150//184 
f 109//182 108//187 149//169 
f 107//181 106//183 147//167 
f 105//178 104//180 146//166 
f 99//176 103//179 145//165 
f 100//174 99//176 144//164 
f 98//172 97//175 143//162 
f 148//168 150//184 120//170 
f 149//169 150//184 148//168 
f 147//167 149//169 142//160 
f 146//166 147//167 140//158 
f 145//165 146//166 139//157 
f 144//164 145//165 138//156 
f 143//162 144//164 137//155 
f 119//163 121//171 143//162 
f 141//159 148//168 118//161 
f 142//160 148//168 141//159 
f 140//158 142//160 135//150 
f 139//157 140//158 133//148 
f 138//156 139//157 131//146 
f 137//155 138//156 129//144 
f 136//153 137//155 127//142 
f 117//154 119//163 136//153 
f 134//149 141//159 115//151 
f 135//150 141//159 134//149 
f 133//148 135//150 132//147 
f 131//146 133//148 130//145 
f 129//144 131//146 128//143 
f 127//142 129//144 126//141 
f 123//137 127//142 125//140 
f 114//139 117//154 123//137 
o mesh7
f 6//212 5//212 151//212 
f 151//212 113//212 6//212 
o mesh8
f 152//213 153//214 115//214 
f 116//215 115//214 153//214 
f 153//214 154//215 116//215 
f 59//216 116//215 154//215 
f 154//215 155//216 59//216 
f 151//217 156//218 120//218 
f 118//219 120//218 156//218 
f 156//218 152//213 118//219 
f 120//218 113//220 151//217 
f 115//214 118//219 152//213 
o mesh9
f 157//221 158//222 39//222 
f 2//223 39//222 158//222 
f 158//222 3//223 2//223 
f 155//224 159//225 36//225 
f 37//226 36//225 159//225 
f 159//225 157//221 37//226 
f 36//225 59//227 155//224 
f 39//222 37//226 157//221 
o mesh10
f 153//228 203//229 204//230 
f 205//231 204//230 203//229 
f 206//232 205//231 207//233 
f 208//234 206//232 209//235 
f 210//236 208//234 211//237 
f 212//238 210//236 213//239 
f 214//240 212//238 215//241 
f 216//242 160//243 161//243 
f 152//244 217//245 203//229 
f 207//233 203//229 217//245 
f 209//235 207//233 218//246 
f 211//237 209//235 219//247 
f 213//239 211//237 220//248 
f 215//241 213//239 221//249 
f 216//242 215//241 222//250 
f 223//251 162//252 160//243 
f 156//253 224//254 217//245 
f 218//246 217//245 224//254 
f 219//247 218//246 225//255 
f 220//248 219//247 226//256 
f 221//249 220//248 227//257 
f 222//250 221//249 228//258 
f 223//251 222//250 229//259 
f 230//260 163//261 162//252 
f 156//253 151//262 164//263 
f 164//263 224//254 156//253 
f 224//254 165//264 166//265 
f 166//265 225//255 224//254 
f 226//256 225//255 167//266 
f 225//255 168//267 167//266 
f 227//257 226//256 169//268 
f 226//256 170//269 169//268 
f 227//257 171//270 172//271 
f 227//257 173//272 171//270 
f 172//271 228//258 227//257 
f 228//258 174//273 175//274 
f 175//274 229//259 228//258 
f 229//259 176//275 177//276 
f 177//276 230//260 229//259 
f 230//260 178//277 179//278 
f 179//278 163//261 230//260 
f 180//279 181//279 182//280 
f 161//243 180//279 183//281 
f 180//279 184//282 183//281 
f 180//279 185//283 184//282 
f 214//240 183//281 186//284 
f 186//284 212//238 214//240 
f 212//238 187//285 188//286 
f 212//238 189//287 187//285 
f 210//236 188//286 190//288 
f 208//234 191//289 192//290 
f 208//234 190//288 191//289 
f 206//232 193//291 194//292 
f 206//232 192//290 193//291 
f 205//231 195//293 196//294 
f 205//231 197//295 198//296 
f 205//231 194//292 197//295 
f 198//296 195//293 205//231 
f 154//297 204//230 199//298 
f 204//230 196//294 200//299 
f 200//299 201//300 204//230 
f 201//300 199//298 204//230 
f 199//298 155//301 154//297 
f 196//294 204//230 205//231 
f 194//292 205//231 206//232 
f 192//290 206//232 208//234 
f 190//288 208//234 210//236 
f 188//286 210//236 212//238 
f 186//284 189//287 212//238 
f 183//281 214//240 161//243 
f 182//280 185//283 180//279 
f 179//278 202//302 163//261 
f 177//276 178//277 230//260 
f 175//274 176//275 229//259 
f 172//271 174//273 228//258 
f 169//268 173//272 227//257 
f 167//266 170//269 226//256 
f 166//265 168//267 225//255 
f 164//263 165//264 224//254 
f 162//252 223//251 230//260 
f 229//259 230//260 223//251 
f 228//258 229//259 222//250 
f 227//257 228//258 221//249 
f 226//256 227//257 220//248 
f 225//255 226//256 219//247 
f 224//254 225//255 218//246 
f 217//245 152//244 156//253 
f 160//243 216//242 223//251 
f 222//250 223//251 216//242 
f 221//249 222//250 215//241 
f 220//248 221//249 213//239 
f 219//247 220//248 211//237 
f 218//246 219//247 209//235 
f 217//245 218//246 207//233 
f 203//229 153//228 152//244 
f 161//243 214//240 216//242 
f 215//241 216//242 214//240 
f 213//239 215//241 212//238 
f 211//237 213//239 210//236 
f 209//235 211//237 208//234 
f 207//233 209//235 206//232 
f 203//229 207//233 205//231 
f 204//230 154//297 153//228 
o mesh11
f 252//303 231//302 232//302 
f 253//304 232//302 233//305 
f 254//306 253//304 255//307 
f 256//308 254//306 257//309 
f 258//310 256//308 259//311 
f 260//312 258//310 261//313 
f 262//314 260//312 263//315 
f 264//316 262//314 265//317 
f 159//318 264//316 266//319 
f 255//307 233//305 234//320 
f 257//309 255//307 267//321 
f 259//311 257//309 268//322 
f 261//313 259//311 269//323 
f 263//315 261//313 270//324 
f 265//317 263//315 271//325 
f 266//319 265//317 272//326 
f 157//327 266//319 273//328 
f 264//316 201//329 200//330 
f 264//316 199//331 201//329 
f 264//316 159//318 155//332 
f 155//332 199//331 264//316 
f 262//314 195//333 198//334 
f 198//334 197//335 262//314 
f 262//314 264//316 196//336 
f 196//336 195//333 262//314 
f 260//312 262//314 194//337 
f 194//337 193//338 260//312 
f 258//310 260//312 192//339 
f 192//339 191//340 258//310 
f 256//308 258//310 190//341 
f 254//306 256//308 188//342 
f 188//342 187//343 254//306 
f 252//303 253//304 189//344 
f 253//304 254//306 189//344 
f 231//302 184//345 185//346 
f 185//346 182//347 231//302 
f 231//302 252//303 183//348 
f 183//348 184//345 231//302 
f 267//321 234//320 235//349 
f 234//320 236//350 235//349 
f 268//322 267//321 237//351 
f 237//351 238//352 268//322 
f 267//321 239//353 237//351 
f 268//322 240//354 241//355 
f 241//355 269//323 268//322 
f 269//323 242//356 243//357 
f 243//357 270//324 269//323 
f 270//324 244//358 245//359 
f 245//359 271//325 270//324 
f 272//326 271//325 246//360 
f 271//325 247//361 246//360 
f 273//328 272//326 248//362 
f 248//362 249//363 273//328 
f 272//326 250//364 248//362 
f 3//365 158//366 273//328 
f 273//328 251//367 3//365 
f 249//363 251//367 273//328 
f 246//360 250//364 272//326 
f 245//359 247//361 271//325 
f 243//357 244//358 270//324 
f 241//355 242//356 269//323 
f 238//352 240//354 268//322 
f 235//349 239//353 267//321 
f 182//347 181//368 231//302 
f 183//348 252//303 186//369 
f 189//344 186//369 252//303 
f 187//343 189//344 254//306 
f 190//341 188//342 256//308 
f 191//340 190//341 258//310 
f 193//338 192//339 260//312 
f 197//335 194//337 262//314 
f 200//330 196//336 264//316 
f 273//328 158//366 157//327 
f 272//326 273//328 266//319 
f 271//325 272//326 265//317 
f 270//324 271//325 263//315 
f 269//323 270//324 261//313 
f 268//322 269//323 259//311 
f 267//321 268//322 257//309 
f 234//320 267//321 255//307 
f 266//319 157//327 159//318 
f 265//317 266//319 264//316 
f 263//315 265//317 262//314 
f 261//313 263//315 260//312 
f 259//311 261//313 258//310 
f 257//309 259//311 256//308 
f 255//307 257//309 254//306 
f 233//305 255//307 253//304 
f 232//302 253//304 252//303 
o mesh12
f 164//370 151//371 5//371 
f 274//372 165//373 164//370 
f 5//371 274//372 164//370 
f 166//374 165//373 275//375 
f 276//376 168//377 166//374 
f 275//375 276//376 166//374 
f 170//378 167//379 277//380 
f 277//380 278//381 170//378 
f 167//379 168//377 277//380 
f 173//382 169//383 279//384 
f 279//384 280//385 173//382 
f 172//386 171//387 280//385 
f 280//385 281//388 172//386 
f 176//389 175//390 281//388 
f 281//388 282//391 176//389 
f 175//390 174//392 281//388 
f 178//393 177//394 282//391 
f 282//391 283//395 178//393 
f 202//396 179//397 283//395 
f 283//395 284//396 202//396 
f 179//397 178//393 283//395 
f 177//394 176//389 282//391 
f 174//392 172//386 281//388 
f 171//387 173//382 280//385 
f 169//383 170//378 279//384 
f 278//381 279//384 170//378 
f 276//376 277//380 168//377 
f 274//372 275//375 165//373 
o mesh13
f 235//398 285//399 286//400 
f 286//400 239//401 235//398 
f 286//400 238//402 237//403 
f 238//402 286//400 287//404 
f 287//404 240//405 238//402 
f 241//406 287//404 288//407 
f 288//407 242//408 241//406 
f 243//409 288//407 289//410 
f 289//410 244//411 243//409 
f 245//412 289//410 290//413 
f 290//413 247//414 245//412 
f 246//415 290//413 291//416 
f 291//416 250//417 246//415 
f 246//415 247//414 290//413 
f 292//418 249//419 248//420 
f 249//419 292//418 293//421 
f 293//421 251//422 249//419 
f 248//420 250//417 292//418 
f 251//422 294//423 295//424 
f 295//424 3//425 251//422 
f 295//424 4//425 3//425 
f 293//421 294//423 251//422 
f 291//416 292//418 250//417 
f 245//412 244//411 289//410 
f 243//409 242//408 288//407 
f 241//406 240//405 287//404 
f 237//403 239//401 286//400 
f 235//398 236//426 285//399 
o mesh14
f 295//427 274//427 5//428 
f 5//428 4//428 295//427 
f 294//429 275//429 274//427 
f 293//430 276//430 275//429 
f 275//429 294//429 293//430 
f 292//431 277//431 276//430 
f 291//432 279//433 278//432 
f 278//432 292//431 291//432 
f 291//432 290//433 279//433 
f 289//434 280//434 279//433 
f 288//435 281//435 280//434 
f 287//436 282//436 281//435 
f 286//437 283//437 282//436 
f 285//438 284//438 283//437 
f 283//437 286//437 285//438 
f 282//436 287//436 286//437 
f 281//435 288//435 287//436 
f 280//434 289//434 288//435 
f 279//433 290//433 289//434 
f 278//432 277//431 292//431 
f 293//430 292//431 276//430 
f 295//427 294//429 274//427 
o mesh15
f 296//439 35//439 38//439 
f 297//439 298//439 95//439 
f 38//439 40//439 296//439 
f 297//439 117//439 114//439 
f 95//439 96//439 297//439 
f 296//439 32//439 34//439 
f 296//439 43//439 35//439 
f 297//439 119//439 117//439 
f 96//439 121//439 297//439 
f 299//439 34//439 300//439 
f 300//439 34//439 95//439 
f 40//439 32//439 296//439 
f 121//439 119//439 297//439 
f 95//439 301//439 300//439 
f 298//439 302//439 301//439 
f 296//439 44//439 43//439 
f 114//439 122//439 297//439 
f 301//439 95//439 298//439 
f 296//439 297//439 44//439 
f 300//439 303//439 299//439 
f 122//439 44//439 297//439 
f 34//439 299//439 296//439 
o mesh16
f 304//440 302//439 298//439 
f 305//441 304//440 306//440 
f 307//442 305//441 308//441 
f 309//443 307//442 310//442 
f 311//444 309//443 312//443 
f 313//445 311//444 314//444 
f 314//444 315//446 313//445 
f 316//447 313//445 317//448 
f 317//448 318//447 316//447 
f 319//449 320//449 316//447 
f 321//450 320//449 319//449 
f 319//449 322//450 321//450 
f 323//451 324//451 321//450 
f 322//450 323//451 321//450 
f 318//447 319//449 316//447 
f 315//446 317//448 313//445 
f 312//443 314//444 311//444 
f 310//442 312//443 309//443 
f 308//441 310//442 307//442 
f 306//440 308//441 305//441 
f 298//439 306//440 304//440 
o mesh17
f 325//452 306//452 298//453 
f 326//454 308//454 306//452 
f 327//455 310//455 308//454 
f 328//456 312//456 310//455 
f 329//457 314//457 312//456 
f 330//458 315//459 314//457 
f 330//458 317//458 315//459 
f 331//460 318//460 317//458 
f 331//460 319//461 318//460 
f 317//458 330//458 331//460 
f 332//462 322//462 319//461 
f 332//462 323//463 322//462 
f 319//461 333//464 332//462 
f 332//462 334//463 323//463 
f 331//460 333//464 319//461 
f 314//457 329//457 330//458 
f 312//456 328//456 329//457 
f 310//455 327//455 328//456 
f 308//454 326//454 327//455 
f 306//452 325//452 326//454 
f 298//453 297//465 325//452 
o mesh18
f 335//466 336//467 320//468 
f 320//468 321//467 335//466 
f 321//467 324//469 335//466 
f 337//468 338//470 313//471 
f 313//471 316//470 337//468 
f 316//470 320//468 337//468 
f 339//471 340//472 311//472 
f 340//472 341//473 309//473 
f 341//473 342//474 307//474 
f 342//474 343//475 305//475 
f 343//475 344//476 304//476 
f 302//477 304//476 344//476 
f 344//476 301//477 302//477 
f 304//476 305//475 343//475 
f 305//475 307//474 342//474 
f 307//474 309//473 341//473 
f 309//473 311//472 340//472 
f 311//472 313//471 339//471 
f 338//470 339//471 313//471 
f 336//467 337//468 320//468 
o mesh19
f 324//478 323//478 345//478 
f 345//478 346//478 324//478 
o mesh20
f 325//479 297//480 296//480 
f 326//481 325//479 347//482 
f 327//483 326//481 348//484 
f 328//485 327//483 349//486 
f 329//487 328//485 350//488 
f 330//489 329//487 351//490 
f 331//491 330//489 352//492 
f 352//492 353//491 331//491 
f 354//493 333//493 331//491 
f 332//494 333//493 354//493 
f 354//493 355//494 332//494 
f 356//495 334//495 332//494 
f 355//494 356//495 332//494 
f 353//491 354//493 331//491 
f 351//490 352//492 330//489 
f 350//488 351//490 329//487 
f 349//486 350//488 328//485 
f 348//484 349//486 327//483 
f 347//482 348//484 326//481 
f 296//480 347//482 325//479 
o mesh21
f 357//496 345//496 323//496 
f 323//496 334//496 357//496 
o mesh22
f 358//497 337//498 336//497 
f 336//497 359//499 358//497 
f 358//497 360//498 337//498 
f 361//500 339//501 338//500 
f 338//500 360//498 361//500 
f 361//500 362//501 339//501 
f 363//502 340//502 339//501 
f 364//503 341//503 340//502 
f 365//504 342//504 341//503 
f 366//505 343//505 342//504 
f 367//506 344//506 343//505 
f 300//507 301//507 344//506 
f 344//506 367//506 300//507 
f 343//505 366//505 367//506 
f 342//504 365//504 366//505 
f 341//503 364//503 365//504 
f 340//502 363//502 364//503 
f 339//501 362//501 363//502 
f 338//500 337//498 360//498 
f 336//497 335//508 359//499 
o mesh23
f 368//509 335//509 324//509 
f 324//509 346//509 368//509 
o mesh24
f 369//510 370//510 371//511 
f 369//510 345//512 370//510 
f 371//511 372//511 369//510 
f 373//513 374//513 375//514 
f 373//513 371//511 374//513 
f 375//514 376//514 373//513 
f 376//514 377//515 378//516 
f 376//514 375//514 377//515 
f 379//516 378//516 380//517 
f 381//517 380//517 382//518 
f 383//518 382//518 384//519 
f 385//519 384//519 386//520 
f 387//520 386//520 388//521 
f 388//521 389//521 387//520 
f 386//520 387//520 385//519 
f 384//519 385//519 383//518 
f 382//518 383//518 381//517 
f 380//517 381//517 379//516 
f 378//516 379//516 376//514 
f 373//513 372//511 371//511 
f 369//510 346//522 345//512 
o mesh25
f 347//523 296//524 299//524 
f 348//525 347//523 390//526 
f 349//527 348//525 391//528 
f 350//529 349//527 392//530 
f 351//531 350//529 393//532 
f 352//533 351//531 394//534 
f 394//534 395//535 352//533 
f 353//536 352//533 396//537 
f 396//537 397//536 353//536 
f 398//538 354//538 353//536 
f 355//539 354//538 398//538 
f 398//538 399//539 355//539 
f 400//540 356//540 355//539 
f 399//539 400//540 355//539 
f 397//536 398//538 353//536 
f 395//535 396//537 352//533 
f 393//532 394//534 351//531 
f 392//530 393//532 350//529 
f 391//528 392//530 349//527 
f 390//526 391//528 348//525 
f 299//524 390//526 347//523 
o mesh26
f 401//541 357//541 334//541 
f 334//541 356//541 401//541 
o mesh27
f 402//542 403//543 371//543 
f 371//543 370//542 402//542 
f 345//544 357//544 402//542 
f 404//545 405//546 375//546 
f 375//546 374//545 404//545 
f 371//543 403//543 404//545 
f 405//546 406//547 378//547 
f 378//547 377//548 405//546 
f 406//547 407//549 380//549 
f 407//549 408//550 382//550 
f 408//550 409//551 384//551 
f 409//551 410//552 386//552 
f 410//552 411//553 388//553 
f 388//553 386//552 410//552 
f 386//552 384//551 409//551 
f 384//551 382//550 408//550 
f 382//550 380//549 407//549 
f 380//549 378//547 406//547 
f 377//548 375//546 405//546 
f 374//545 371//543 404//545 
f 370//542 345//544 402//542 
o mesh28
f 412//554 360//554 358//555 
f 358//555 413//556 414//555 
f 358//555 414//555 412//554 
f 415//557 362//557 361//558 
f 361//558 412//554 416//558 
f 361//558 416//558 415//557 
f 417//559 363//559 362//557 
f 418//560 364//560 363//559 
f 419//561 365//561 364//560 
f 365//561 419//561 420//562 
f 366//562 420//562 421//563 
f 367//563 421//563 303//564 
f 303//564 300//564 367//563 
f 421//563 367//563 366//562 
f 420//562 366//562 365//561 
f 364//560 418//560 419//561 
f 363//559 417//559 418//560 
f 362//557 415//557 417//559 
f 361//558 360//554 412//554 
f 358//555 359//565 413//556 
o mesh29
f 368//566 422//566 359//566 
f 359//566 335//566 368//566 
o mesh30
f 423//567 387//567 389//568 
f 387//567 423//567 424//569 
f 385//569 424//569 425//570 
f 426//571 381//571 383//570 
f 381//571 426//571 427//572 
f 428//573 376//573 379//572 
f 429//574 373//574 376//573 
f 429//574 372//575 373//574 
f 376//573 428//573 429//574 
f 372//575 430//575 431//576 
f 431//576 346//577 369//576 
f 431//576 369//576 372//575 
f 431//576 368//577 346//577 
f 429//574 430//575 372//575 
f 379//572 427//572 428//573 
f 427//572 379//572 381//571 
f 383//570 425//570 426//571 
f 425//570 383//570 385//569 
f 424//569 385//569 387//567 
f 389//568 432//578 423//567 
o mesh31
f 421//579 390//579 299//580 
f 420//581 391//581 390//579 
f 419//582 392//582 391//581 
f 418//583 393//583 392//582 
f 417//584 394//584 393//583 
f 415//585 395//586 394//584 
f 415//585 396//585 395//586 
f 416//587 397//587 396//585 
f 416//587 398//588 397//587 
f 396//585 415//585 416//587 
f 414//589 399//589 398//588 
f 414//589 400//590 399//589 
f 398//588 412//591 414//589 
f 414//589 413//590 400//590 
f 416//587 412//591 398//588 
f 394//584 417//584 415//585 
f 393//583 418//583 417//584 
f 392//582 419//582 418//583 
f 391//581 420//581 419//582 
f 390//579 421//579 420//581 
f 299//580 303//592 421//579 
o mesh32
f 433//593 413//593 359//593 
f 359//593 422//593 433//593 
o mesh33
f 434//594 435//595 423//595 
f 435//595 436//596 424//596 
f 436//596 437//597 425//597 
f 437//597 438//598 426//598 
f 438//598 439//599 427//599 
f 439//599 440//600 428//600 
f 429//601 440//600 441//601 
f 441//601 430//602 429//601 
f 441//601 442//602 430//602 
f 431//603 442//602 443//603 
f 443//603 368//604 431//603 
f 443//603 422//604 368//604 
f 431//603 430//602 442//602 
f 429//601 428//600 440//600 
f 428//600 427//599 439//599 
f 427//599 426//598 438//598 
f 426//598 425//597 437//597 
f 425//597 424//596 436//596 
f 424//596 423//595 435//595 
f 423//595 432//605 434//594 
o mesh34
f 433//604 444//604 400//604 
f 400//604 413//604 433//604 
o mesh35
f 435//606 434//605 445//605 
f 436//607 435//606 446//606 
f 447//607 448//608 437//608 
f 448//608 449//609 438//609 
f 449//609 450//610 439//610 
f 450//610 451//611 440//611 
f 442//612 441//613 451//611 
f 451//611 452//613 442//612 
f 452//613 453//612 442//612 
f 422//614 443//615 453//612 
f 453//612 454//615 422//614 
f 454//615 433//614 422//614 
f 443//615 442//612 453//612 
f 441//613 440//611 451//611 
f 440//611 439//610 450//610 
f 439//610 438//609 449//609 
f 438//609 437//608 448//608 
f 437//608 436//607 447//607 
f 446//606 447//607 436//607 
f 445//605 446//606 435//606 
o mesh36
f 455//616 234//616 233//616 
f 455//616 236//616 234//616 
f 411//616 202//616 284//616 
f 233//616 232//616 455//616 
f 455//616 456//616 285//616 
f 411//616 163//616 202//616 
f 411//616 180//616 161//616 
f 285//616 236//616 455//616 
f 434//616 432//616 284//616 
f 456//616 445//616 434//616 
f 411//616 162//616 163//616 
f 161//616 160//616 411//616 
f 232//616 231//616 455//616 
f 388//616 284//616 432//616 
f 434//616 285//616 456//616 
f 160//616 162//616 411//616 
f 231//616 181//616 455//616 
f 284//616 285//616 434//616 
f 411//616 181//616 180//616 
f 432//616 389//616 388//616 
f 181//616 411//616 455//616 
f 284//616 388//616 411//616 
o mesh37
f 400//617 444//617 401//617 
f 401//617 356//617 400//617 
o mesh38
f 402//618 457//618 458//619 
f 402//618 401//620 457//618 
f 458//619 403//619 402//618 
f 404//621 459//621 460//622 
f 404//621 458//619 459//621 
f 460//622 405//622 404//621 
f 405//622 460//622 461//623 
f 406//623 461//623 462//624 
f 407//624 462//624 463//625 
f 408//625 463//625 464//626 
f 409//626 464//626 465//627 
f 410//627 465//627 455//628 
f 455//628 411//628 410//627 
f 465//627 410//627 409//626 
f 464//626 409//626 408//625 
f 463//625 408//625 407//624 
f 462//624 407//624 406//623 
f 461//623 406//623 405//622 
f 404//621 403//619 458//619 
f 402//618 357//629 401//620 
o mesh39
f 457//630 466//630 467//631 
f 457//630 444//632 466//630 
f 467//631 458//631 457//630 
f 459//633 468//633 469//634 
f 459//633 467//631 468//633 
f 469//634 460//634 459//633 
f 460//634 470//635 471//636 
f 460//634 469//634 470//635 
f 461//636 471//636 472//637 
f 462//637 472//637 473//638 
f 463//638 473//638 474//639 
f 464//639 474//639 475//640 
f 465//640 475//640 456//641 
f 456//641 455//641 465//640 
f 475//640 465//640 464//639 
f 474//639 464//639 463//638 
f 473//638 463//638 462//637 
f 472//637 462//637 461//636 
f 471//636 461//636 460//634 
f 459//633 458//631 467//631 
f 457//630 401//642 444//632 
o mesh40
f 454//643 453//644 467//644 
f 467//644 466//643 454//643 
f 444//645 433//645 454//643 
f 452//646 451//647 469//647 
f 469//647 468//646 452//646 
f 467//644 453//644 452//646 
f 451//647 450//648 471//648 
f 471//648 470//649 451//647 
f 450//648 449//650 472//650 
f 449//650 448//651 473//651 
f 448//651 447//652 474//652 
f 447//652 446//653 475//653 
f 446//653 445//654 456//654 
f 456//654 475//653 446//653 
f 475//653 474//652 447//652 
f 474//652 473//651 448//651 
f 473//651 472//650 449//650 
f 472//650 471//648 450//648 
f 470//649 469//647 451//647 
f 468//646 467//644 452//646 
f 466//643 444//645 454//643 
