# https://github.com/mikedh/trimesh
v 0.02910409 0.04139516 0.00413954
v 0.04393364 -0.01968739 0.00254000
v 0.03787383 0.03182101 0.00000000
v -0.03010750 0.04155655 0.00075474
v -0.03154913 -0.04655835 0.00790783
v 0.01666448 -0.04695654 0.00000000
v 0.01666448 0.04697054 0.00000000
v 0.04393364 0.01970139 0.00254000
v -0.02476837 0.05099197 0.00904975
v 0.04393364 -0.01968739 0.00000000
v -0.04681285 -0.01963025 0.00000000
v 0.01687088 -0.04757015 0.00412185
v 0.02918651 0.04151566 0.00000000
v 0.03863572 0.03248076 0.00378328
v -0.01858482 0.04747535 0.00031523
v 0.01685655 0.04756770 0.00413894
v 0.04393364 0.01970139 0.00000000
v -0.02678413 -0.04395001 0.00099979
v -0.04713964 0.01977567 0.00438707
v -0.01727555 -0.04889016 0.00625042
v -0.01948692 0.05241829 0.00798983
v -0.02678558 0.04649025 0.00427550
v -0.04678188 0.01962528 0.00000000
v -0.03012904 -0.04139365 0.00060371
v -0.04714542 -0.01975943 0.00438467
v -0.03063003 0.04810002 0.00910566
v -0.02106106 0.04924524 0.00425839
v -0.01860237 0.04980878 0.00369962
v -0.02697522 0.04379344 0.00098364
v -0.02127428 0.04670058 0.00087678
v -0.02416504 0.04974449 0.00692253
f 7 3 6
f 9 5 2
f 10 6 3
f 10 8 2
f 11 7 6
f 12 2 5
f 12 10 2
f 12 6 10
f 13 3 7
f 14 2 8
f 14 9 2
f 14 1 9
f 14 13 1
f 14 3 13
f 16 13 7
f 16 1 13
f 17 10 3
f 17 8 10
f 17 14 8
f 17 3 14
f 20 12 5
f 20 6 12
f 20 18 6
f 20 5 18
f 21 16 7
f 21 9 1
f 21 1 16
f 23 4 15
f 23 11 19
f 23 15 7
f 23 7 11
f 24 11 6
f 24 6 18
f 24 18 5
f 24 5 11
f 25 19 11
f 25 11 5
f 26 5 9
f 26 23 19
f 26 4 23
f 26 25 5
f 26 19 25
f 27 9 21
f 28 21 7
f 28 7 15
f 28 27 21
f 28 15 27
f 29 15 4
f 29 26 22
f 29 4 26
f 30 27 15
f 30 29 22
f 30 15 29
f 31 30 22
f 31 9 27
f 31 27 30
f 31 26 9
f 31 22 26

