# https://github.com/mikedh/trimesh
v -0.09163560 -0.03263183 0.08890000
v -0.04045136 -0.09141972 0.08890000
v -0.04696354 -0.00453786 0.00254000
v -0.05089008 -0.00442736 0.00036286
v -0.06163062 -0.04434366 0.03735158
v -0.03012904 -0.04139365 0.00060371
v -0.07849583 -0.00444049 0.03893039
v -0.04257957 -0.08668491 0.08760942
v -0.08012337 -0.05978133 0.08890000
v -0.03181401 -0.03180701 0.00254000
v -0.05256816 -0.02706308 0.01068100
v -0.04761753 -0.06737341 0.05237510
v -0.07392096 -0.00475414 0.03622044
v -0.07371914 -0.00426164 0.03089964
v -0.08528727 -0.03027583 0.06391437
v -0.03787383 -0.01968739 0.00254000
v -0.03970561 -0.08961126 0.08478511
v -0.04982377 -0.03540696 0.01371764
v -0.04073932 -0.03228898 0.00162713
v -0.05022997 -0.05562467 0.03739378
v -0.05955990 -0.08030720 0.08890000
v -0.08845155 -0.02017704 0.07032260
v -0.07718056 -0.00429528 0.03670183
v -0.05895726 -0.00432124 0.01010005
v -0.09187024 -0.03940479 0.08890000
v -0.07949294 -0.04749812 0.07016268
v -0.06738396 -0.03275187 0.03436882
v -0.04696354 -0.00453786 0.00000000
v -0.03954039 -0.07146779 0.05163059
v -0.05065984 -0.07942847 0.07633199
v -0.04955949 -0.01574017 0.00145480
v -0.03541301 -0.04353266 0.00748735
v -0.04988674 -0.04393658 0.02238785
v -0.05901859 -0.06470628 0.06134673
v -0.09171528 -0.01952417 0.07148776
v -0.07352486 -0.00707211 0.03100248
v -0.08555124 -0.04202365 0.07603671
v -0.07343292 -0.03857843 0.04928715
v -0.06154485 -0.03557350 0.02846746
v -0.03181401 -0.03180701 0.00000000
v -0.03076213 -0.04537527 0.00586748
v -0.04205446 -0.08246608 0.07325098
v -0.04491696 -0.07939124 0.07034766
v -0.05104740 -0.08595169 0.08890000
v -0.05269666 -0.02106541 0.00748623
v -0.05866812 -0.00972916 0.01045893
v -0.03217728 -0.04068951 0.00154980
v -0.05612113 -0.05273233 0.04040736
v -0.04402429 -0.04668365 0.01944473
v -0.05055157 -0.06740021 0.05541279
v -0.07382191 -0.06513920 0.08518007
v -0.08620934 -0.01869830 0.05779178
v -0.09238051 -0.03076116 0.08142772
v -0.06763489 -0.00731307 0.02216794
v -0.08263258 -0.05359936 0.08499715
v -0.07937926 -0.03033183 0.05214560
v -0.07343533 -0.04160980 0.05231559
v -0.06744286 -0.02431582 0.02837206
v -0.03787383 -0.01968739 0.00000000
v -0.03962170 -0.08335580 0.07276792
v -0.04145472 -0.05555418 0.02836440
v -0.04200432 -0.07055764 0.05219016
v -0.05358725 -0.08249834 0.08538626
v -0.04526850 -0.08912476 0.08890000
f 8 1 2
f 9 2 1
f 13 8 3
f 13 1 8
f 16 8 2
f 16 3 8
f 16 2 10
f 17 10 2
f 17 6 10
f 19 4 6
f 19 18 11
f 21 2 9
f 22 13 7
f 22 1 13
f 23 13 3
f 23 7 13
f 23 3 14
f 24 14 3
f 24 3 4
f 25 9 1
f 28 4 3
f 28 3 16
f 31 4 19
f 32 18 19
f 33 5 18
f 33 18 32
f 35 22 7
f 35 1 22
f 36 23 14
f 36 7 23
f 39 18 5
f 39 5 27
f 39 11 18
f 40 6 4
f 40 4 28
f 40 10 6
f 41 6 17
f 41 32 6
f 44 2 21
f 44 30 43
f 45 31 19
f 45 19 11
f 46 24 4
f 46 4 31
f 46 31 45
f 47 32 19
f 47 19 6
f 47 6 32
f 48 33 20
f 48 5 33
f 48 34 5
f 48 20 34
f 49 33 32
f 49 20 33
f 50 34 20
f 50 20 12
f 50 30 21
f 50 21 34
f 50 43 30
f 50 12 43
f 51 34 21
f 51 21 9
f 51 9 26
f 51 5 34
f 52 35 7
f 52 15 35
f 52 7 36
f 53 35 15
f 53 25 1
f 53 1 35
f 53 37 25
f 53 15 37
f 54 36 14
f 54 14 24
f 54 24 46
f 55 37 26
f 55 26 9
f 55 9 25
f 55 25 37
f 56 27 38
f 56 15 52
f 56 37 15
f 57 26 37
f 57 56 38
f 57 37 56
f 57 51 26
f 57 5 51
f 57 38 27
f 57 27 5
f 58 39 27
f 58 11 39
f 58 45 11
f 58 46 45
f 58 54 46
f 58 36 54
f 58 27 56
f 58 56 52
f 58 52 36
f 59 40 28
f 59 28 16
f 59 16 10
f 59 10 40
f 60 41 17
f 60 29 41
f 60 42 29
f 60 17 2
f 60 2 42
f 61 41 29
f 61 12 20
f 61 20 49
f 61 49 32
f 61 32 41
f 62 43 12
f 62 29 42
f 62 42 43
f 62 61 29
f 62 12 61
f 63 44 21
f 63 21 30
f 63 30 44
f 64 42 2
f 64 2 44
f 64 44 43
f 64 43 42

