# https://github.com/mikedh/trimesh
v -0.09506321 0.02023107 0.08851697
v -0.07734256 -0.01971106 0.04691895
v -0.09163560 -0.03263183 0.08890000
v -0.07415479 0.02270828 0.03792073
v -0.09180195 0.00729912 0.06665141
v -0.07576187 0.02327700 0.04610936
v -0.09463620 0.01901676 0.07857241
v -0.07798787 -0.01029206 0.03924165
v -0.08460761 -0.03232111 0.07062289
v -0.07425552 -0.01060150 0.03786051
v -0.08882484 0.01895996 0.06381217
v -0.07974484 0.02251476 0.04727556
v -0.09815939 -0.01897677 0.08890000
v -0.08559602 -0.03271631 0.07328077
v -0.08101505 -0.01913098 0.04817998
v -0.09469539 0.01296712 0.07573291
v -0.07978626 0.01283102 0.04293703
v -0.09812642 0.01906687 0.08890000
v -0.09148473 -0.03045515 0.07872997
v -0.09161659 -0.01053104 0.06679156
v -0.08856072 0.01293630 0.06088035
v -0.08248062 0.01568197 0.04898726
v -0.07995604 -0.01014665 0.04263978
v -0.07658480 0.01905191 0.03987004
v -0.09768417 0.01310650 0.08457094
v -0.08914153 -0.03289763 0.08223162
v -0.09511509 -0.03075927 0.08890000
v -0.08895415 -0.03062564 0.07268270
v -0.09467840 -0.01879926 0.07859125
v -0.08535924 -0.01580601 0.05488809
v -0.09766770 -0.01313647 0.08461676
v -0.09461651 -0.02757361 0.08468945
v -0.09144702 -0.02741226 0.07594244
v -0.08297277 -0.01887243 0.05177515
v -0.09460361 -0.01313209 0.07553859
v -0.09472159 -0.03063645 0.08768206
f 6 1 3
f 10 4 6
f 10 8 4
f 10 2 8
f 10 9 2
f 10 6 9
f 12 6 4
f 12 11 7
f 12 1 6
f 14 9 6
f 14 6 3
f 15 8 2
f 15 2 9
f 16 7 11
f 18 12 7
f 18 1 12
f 18 13 3
f 18 3 1
f 21 16 11
f 21 5 16
f 21 17 5
f 22 11 12
f 22 21 11
f 22 17 21
f 23 17 8
f 23 5 17
f 23 20 5
f 23 8 15
f 24 12 4
f 24 4 8
f 24 8 17
f 24 22 12
f 24 17 22
f 25 13 18
f 25 16 5
f 25 18 7
f 25 7 16
f 26 14 3
f 27 3 13
f 27 26 3
f 28 15 9
f 28 9 14
f 28 14 26
f 28 27 19
f 28 26 27
f 30 23 15
f 30 20 23
f 30 29 20
f 31 13 25
f 31 25 5
f 32 27 13
f 32 13 29
f 33 28 19
f 33 32 29
f 33 19 32
f 33 30 28
f 33 29 30
f 34 30 15
f 34 15 28
f 34 28 30
f 35 29 13
f 35 13 31
f 35 20 29
f 35 31 5
f 35 5 20
f 36 32 19
f 36 19 27
f 36 27 32

