# https://github.com/mikedh/trimesh
v 0.05313156 -0.04706650 0.03475384
v 0.05426114 -0.04518453 0.03381340
v 0.01666448 -0.01968739 0.00254000
v 0.01666448 -0.01968739 0.00000000
v 0.02697932 -0.04378664 0.00097798
v 0.05467823 -0.02359434 0.01529060
v 0.04989724 -0.04391221 0.02247933
v 0.01729131 -0.04889410 0.00625476
v 0.04393364 -0.01968739 0.00254000
v 0.04975076 -0.03827152 0.01646148
v 0.05121362 -0.04819623 0.03382847
v 0.01666448 -0.04695654 0.00000000
v 0.04575900 -0.02205871 0.00000000
v 0.03201453 -0.04073181 0.00142966
v 0.03516112 -0.04372928 0.00751783
v 0.05128810 -0.02187662 0.00609374
v 0.04393364 -0.01968739 0.00000000
v 0.04086293 -0.03221145 0.00162142
v 0.04983053 -0.02684748 0.00737301
v 0.04368753 -0.03234545 0.00465678
v 0.04407634 -0.02699548 0.00113467
f 1 2 3
f 6 3 2
f 7 2 1
f 9 4 3
f 9 3 6
f 10 6 2
f 10 2 7
f 11 1 3
f 11 3 8
f 11 7 1
f 12 8 3
f 12 3 4
f 12 11 8
f 13 5 12
f 13 12 4
f 14 5 13
f 15 7 11
f 15 5 14
f 15 10 7
f 15 12 5
f 15 11 12
f 16 9 6
f 16 6 10
f 17 13 4
f 17 4 9
f 17 16 13
f 17 9 16
f 18 14 13
f 18 15 14
f 18 10 15
f 19 16 10
f 19 13 16
f 20 19 10
f 20 10 18
f 21 18 13
f 21 13 19
f 21 20 18
f 21 19 20

