# https://github.com/mikedh/trimesh
v 0.01622790 0.09864107 0.08890000
v 0.01716871 0.09514713 0.08800265
v 0.01650271 0.05539195 0.01101925
v -0.01961659 0.04679350 0.00000000
v -0.03253332 0.09130197 0.08840328
v -0.00727074 0.07063754 0.03382000
v 0.01744937 0.06549510 0.03289356
v 0.00732281 0.07062802 0.03381847
v -0.00982788 0.05235752 0.00394172
v -0.01909849 0.09813389 0.08890000
v 0.01599734 0.07950920 0.05208224
v -0.03231958 0.04157266 0.00699555
v 0.00445953 0.08876093 0.06706238
v 0.01008041 0.05002199 0.00043567
v -0.02454612 0.06734804 0.03415015
v -0.00443156 0.05853375 0.01272681
v -0.03072241 0.09512176 0.08890000
v 0.01573666 0.06429026 0.02505715
v 0.01722811 0.05850616 0.02118129
v 0.00726589 0.09170802 0.07314038
v -0.00713796 0.09172672 0.07312045
v -0.01288279 0.04960733 0.00072336
v 0.01060467 0.04697054 0.00000000
v -0.01012299 0.06152250 0.01879848
v -0.01601735 0.07951262 0.05204555
v -0.03002169 0.04932442 0.01025640
v 0.00702737 0.05830014 0.01286389
v 0.01300074 0.07338606 0.04007391
v 0.00995244 0.05231760 0.00394169
v -0.00442701 0.08872169 0.06705063
v 0.00736075 0.09782315 0.08518549
v -0.02133946 0.05523243 0.01313667
v -0.02174965 0.07330065 0.04312555
v -0.01883961 0.08543589 0.06422881
v -0.03038192 0.07053621 0.04311809
v 0.01599461 0.05632273 0.01232143
v -0.00727336 0.09782666 0.08517113
v -0.01858482 0.04747535 0.00031523
v -0.02393673 0.05223372 0.01021242
v -0.02453420 0.08251974 0.06117768
v -0.02744014 0.07333155 0.04619261
v -0.03292981 0.08932603 0.08483393
v -0.03308587 0.04278358 0.00907941
v -0.01839246 0.05221941 0.00714948
v -0.03015802 0.06145491 0.02815601
v -0.03055878 0.08543758 0.07024662
f 5 2 1
f 7 1 2
f 11 7 3
f 11 1 7
f 12 2 5
f 13 8 6
f 16 6 8
f 16 14 9
f 17 5 1
f 17 1 10
f 18 11 3
f 19 7 2
f 19 2 12
f 19 3 7
f 20 1 11
f 20 11 13
f 22 14 4
f 22 9 14
f 23 12 4
f 23 4 14
f 23 19 12
f 23 14 3
f 23 3 19
f 24 9 22
f 24 16 9
f 24 6 16
f 25 6 24
f 25 21 6
f 26 4 12
f 27 16 8
f 27 14 16
f 27 8 18
f 28 18 8
f 28 11 18
f 28 13 11
f 28 8 13
f 29 3 14
f 29 27 18
f 29 14 27
f 30 13 6
f 30 6 21
f 31 20 13
f 31 1 20
f 32 24 22
f 32 15 24
f 33 25 24
f 33 24 15
f 34 10 21
f 34 21 25
f 36 29 18
f 36 18 3
f 36 3 29
f 37 30 21
f 37 21 10
f 37 10 1
f 37 1 31
f 37 31 13
f 37 13 30
f 38 22 4
f 39 4 26
f 39 38 4
f 39 32 38
f 40 17 10
f 40 10 34
f 40 34 25
f 40 25 33
f 41 33 15
f 41 15 35
f 41 40 33
f 42 5 17
f 43 26 12
f 43 42 35
f 43 12 5
f 43 5 42
f 44 38 32
f 44 32 22
f 44 22 38
f 45 39 26
f 45 35 15
f 45 15 32
f 45 32 39
f 45 43 35
f 45 26 43
f 46 41 35
f 46 17 40
f 46 40 41
f 46 42 17
f 46 35 42

