# https://github.com/mikedh/trimesh
v 0.08011671 0.05979049 0.08890000
v 0.09802553 0.01960649 0.08890000
v 0.05058236 0.01853513 0.00363860
v 0.01008041 0.05002199 0.00043567
v 0.01622790 0.09864107 0.08890000
v 0.03787383 0.01970139 0.00254000
v 0.05022482 0.05563231 0.03739848
v 0.07937562 0.03034447 0.05214759
v 0.09550691 0.01326179 0.07826355
v 0.04768398 0.01882569 0.00061404
v 0.01071529 0.05690952 0.01615219
v 0.05104134 0.08595519 0.08890000
v 0.09186526 0.03941671 0.08890000
v 0.06760829 0.04729826 0.04934975
v 0.09428042 0.01387539 0.08267514
v 0.09144334 0.02742501 0.07594401
v 0.08297024 0.01888582 0.05177648
v 0.03787383 0.01970139 0.00000000
v 0.09329809 0.01321078 0.07209780
v 0.03218235 0.04071510 0.00156871
v 0.01716871 0.09514713 0.08800265
v 0.01018843 0.05367175 0.00609357
v 0.01060467 0.04697054 0.00000000
v 0.08554650 0.04203530 0.07603894
v 0.06228244 0.06759909 0.07034111
v 0.06154033 0.03558462 0.02847087
v 0.09731667 0.01349360 0.08371242
v 0.09511111 0.03077203 0.08890000
v 0.06814737 0.02156812 0.02788154
v 0.08528335 0.03028836 0.06391610
v 0.09003165 0.01372477 0.07094454
v 0.09168250 0.02185070 0.07274019
v 0.09467562 0.01881261 0.07859223
v 0.09506343 0.02026157 0.08850934
v 0.03326302 0.07635218 0.05520383
v 0.02136505 0.04669764 0.00084446
v 0.08596762 0.05100531 0.08890000
v 0.07374494 0.05350650 0.06718722
v 0.09152216 0.03927340 0.08783375
v 0.06515338 0.07377106 0.08532260
v 0.05898143 0.05878039 0.05238636
v 0.04761263 0.06737952 0.05238001
v 0.07342803 0.03858947 0.04929012
v 0.04976832 0.03544279 0.01368609
v 0.07652127 0.02442602 0.04296104
v 0.05862666 0.02400356 0.01614909
v 0.08240656 0.02170664 0.05207036
v 0.09461293 0.02758649 0.08469072
v 0.01612983 0.07096384 0.03669974
v 0.03080884 0.09512010 0.08890000
v 0.01837490 0.05224247 0.00713688
v 0.04144990 0.05556133 0.02836947
v 0.07948756 0.04750863 0.07016547
v 0.09471802 0.03064934 0.08768332
v 0.05955990 0.08030720 0.08890000
v 0.07070338 0.05921402 0.07021029
v 0.05885483 0.05003414 0.04041157
v 0.04491234 0.07939637 0.07035257
v 0.05040795 0.06158304 0.04630975
v 0.06163239 0.04434590 0.03735640
v 0.07343045 0.04162084 0.05231856
v 0.05256478 0.02707542 0.01068402
v 0.04073503 0.03229956 0.00163135
v 0.04401930 0.04669206 0.01944945
f 5 2 1
f 12 5 1
f 13 1 2
f 19 10 3
f 19 18 10
f 19 6 18
f 19 3 17
f 21 11 6
f 21 5 11
f 21 6 15
f 22 11 5
f 22 4 11
f 23 11 4
f 23 6 11
f 23 18 6
f 23 10 18
f 27 15 9
f 28 13 2
f 29 17 3
f 30 24 16
f 30 8 24
f 31 15 6
f 31 6 19
f 31 19 9
f 31 9 15
f 32 19 17
f 32 30 16
f 33 9 19
f 33 27 9
f 33 2 27
f 33 19 32
f 33 32 16
f 34 21 15
f 34 2 5
f 34 5 21
f 34 27 2
f 34 15 27
f 36 20 10
f 36 10 23
f 36 23 4
f 37 1 13
f 37 13 24
f 39 24 13
f 39 16 24
f 45 17 29
f 45 29 26
f 45 43 8
f 45 26 43
f 46 29 3
f 46 26 29
f 47 8 30
f 47 45 8
f 47 17 45
f 47 32 17
f 47 30 32
f 48 28 2
f 48 2 33
f 48 33 16
f 49 22 5
f 50 5 12
f 50 49 5
f 50 35 49
f 51 36 4
f 51 4 22
f 51 22 49
f 51 49 35
f 52 20 36
f 52 35 42
f 52 51 35
f 52 36 51
f 53 37 24
f 53 38 1
f 53 1 37
f 54 16 39
f 54 48 16
f 54 28 48
f 54 39 13
f 54 13 28
f 55 40 25
f 55 12 1
f 55 1 40
f 55 42 12
f 55 25 42
f 56 25 40
f 56 41 25
f 56 38 14
f 56 14 41
f 56 40 1
f 56 1 38
f 57 41 14
f 57 7 41
f 58 42 35
f 58 12 42
f 58 50 12
f 58 35 50
f 59 41 7
f 59 52 42
f 59 7 52
f 59 42 25
f 59 25 41
f 60 57 14
f 60 26 44
f 60 44 57
f 61 14 38
f 61 38 53
f 61 53 24
f 61 24 8
f 61 8 43
f 61 60 14
f 61 43 26
f 61 26 60
f 62 3 10
f 62 46 3
f 62 44 26
f 62 26 46
f 63 10 20
f 63 20 44
f 63 62 10
f 63 44 62
f 64 44 20
f 64 57 44
f 64 7 57
f 64 52 7
f 64 20 52

