# https://github.com/mikedh/trimesh
v -0.03161340 0.09483205 0.08890000
v -0.03096968 0.09284841 0.08467000
v -0.06495130 0.06504719 0.07020838
v -0.03010750 0.04155655 0.00075474
v -0.04696354 -0.00453786 0.00254000
v -0.03900983 0.07036452 0.04919928
v -0.03181401 0.01970139 0.00254000
v -0.09802301 0.01961700 0.08890000
v -0.03045078 0.05907825 0.02470149
v -0.03916880 0.08539785 0.07639639
v -0.03334540 0.09043101 0.08729829
v -0.04696354 -0.00453786 0.00000000
v -0.02592167 0.05644997 0.02247121
v -0.08016936 0.05971661 0.08890000
v -0.03061988 0.07710793 0.05480656
v -0.05035389 0.05548409 0.03736264
v -0.03360470 0.09216527 0.08500263
v -0.05085223 0.07941227 0.07641649
v -0.09506321 0.02023107 0.08851697
v -0.03181401 0.01970139 0.00000000
v -0.07849583 -0.00444049 0.03893039
v -0.03316550 0.07636126 0.05523084
v -0.03573918 0.05245757 0.01920322
v -0.07359214 0.04155804 0.05232382
v -0.04478570 0.07940015 0.07036344
v -0.05096050 0.08600286 0.08890000
v -0.05328320 0.06151063 0.04927850
v -0.07392096 -0.00475414 0.03622044
v -0.03299761 0.05828915 0.02525116
v -0.03516303 0.04373007 0.00752043
v -0.07378758 0.05323051 0.06708562
v -0.05865591 0.01835344 0.01335688
v -0.08235763 0.02157322 0.05191499
v -0.04745185 0.06745221 0.05228253
v -0.03936460 0.09188292 0.08890000
v -0.05974035 0.08014405 0.08890000
v -0.05089008 -0.00442736 0.00036286
v -0.04142959 0.05550294 0.02835683
v -0.04974606 0.03828175 0.01646554
v -0.08559584 0.04194854 0.07604371
v -0.07390001 0.06508218 0.08518052
v -0.05889544 0.04991092 0.04027483
v -0.09229092 0.01913863 0.07245455
v -0.07362539 0.00704945 0.03107827
v -0.06751710 0.03249315 0.03428945
v -0.05934314 0.07360005 0.07638943
v -0.05349869 0.08257401 0.08538393
v -0.05895726 -0.00432124 0.01010005
v -0.04962698 0.01564636 0.00151914
v -0.04989227 0.04392137 0.02248376
v -0.04161369 0.06149155 0.03727587
v -0.04085861 0.03222177 0.00162583
v -0.07948503 0.04746321 0.07014231
v -0.08539922 0.03021372 0.06411651
v -0.09190496 0.03933739 0.08890000
v -0.07082420 0.05907333 0.07020147
v -0.06517667 0.07374249 0.08533010
v -0.06768749 0.04719498 0.04936574
v -0.05598534 0.05283159 0.04040663
v -0.08592099 0.01898602 0.05769266
v -0.09553634 0.01914949 0.08128500
v -0.07056175 0.02120927 0.03133811
v -0.05255194 0.02702912 0.01057308
v -0.06197438 0.04400190 0.03729206
f 7 2 1
f 11 7 1
f 11 5 7
f 12 7 5
f 13 2 7
f 13 4 9
f 14 8 1
f 15 13 9
f 15 2 13
f 17 1 2
f 17 2 15
f 19 11 1
f 19 1 8
f 20 12 4
f 20 7 12
f 20 13 7
f 20 4 13
f 22 15 9
f 22 9 6
f 22 6 10
f 22 17 15
f 22 10 17
f 25 10 6
f 26 25 18
f 26 14 1
f 28 5 11
f 28 11 19
f 28 19 8
f 28 8 21
f 28 12 5
f 29 9 4
f 29 4 23
f 29 6 9
f 30 23 4
f 34 25 6
f 34 18 25
f 35 17 10
f 35 10 25
f 35 25 26
f 35 26 1
f 35 1 17
f 36 14 26
f 37 12 28
f 37 4 12
f 38 23 30
f 38 29 23
f 41 14 36
f 46 34 27
f 46 18 34
f 46 27 3
f 47 36 26
f 47 26 18
f 47 46 36
f 47 18 46
f 48 37 28
f 48 28 21
f 48 21 44
f 48 44 32
f 49 4 37
f 49 48 32
f 49 37 48
f 50 38 30
f 50 16 38
f 50 30 39
f 51 38 16
f 51 16 27
f 51 27 34
f 51 34 6
f 51 6 29
f 51 29 38
f 52 39 30
f 52 30 4
f 52 4 49
f 53 31 24
f 53 24 40
f 53 40 14
f 53 14 31
f 54 40 24
f 54 45 33
f 54 24 45
f 55 8 14
f 55 14 40
f 55 54 43
f 55 40 54
f 56 31 14
f 56 14 41
f 56 41 3
f 56 3 42
f 57 41 36
f 57 3 41
f 57 46 3
f 57 36 46
f 58 24 31
f 58 56 42
f 58 31 56
f 59 27 16
f 59 50 42
f 59 16 50
f 59 42 3
f 59 3 27
f 60 21 43
f 60 44 21
f 60 33 44
f 60 54 33
f 60 43 54
f 61 43 21
f 61 21 8
f 61 55 43
f 61 8 55
f 62 44 33
f 62 32 44
f 62 45 32
f 62 33 45
f 63 45 39
f 63 32 45
f 63 39 52
f 63 52 49
f 63 49 32
f 64 39 45
f 64 50 39
f 64 42 50
f 64 58 42
f 64 45 24
f 64 24 58

