# https://github.com/mikedh/trimesh
v 0.09815654 0.01899022 0.08890000
v 0.09812896 -0.01905334 0.08890000
v 0.07373209 -0.00438843 0.03105104
v 0.04393364 0.01970139 0.00000000
v 0.07068977 -0.07067710 0.08890000
v 0.07035593 0.02142200 0.03115402
v 0.09174551 -0.00724857 0.06654949
v 0.08621901 0.02874544 0.07125996
v 0.07365800 -0.03556093 0.04635461
v 0.05867134 0.00973690 0.01046510
v 0.09768616 -0.01309278 0.08456993
v 0.08535689 0.01581951 0.05488918
v 0.09506343 0.02026157 0.08850934
v 0.04393364 0.01970139 0.00254000
v 0.05117068 0.02181954 0.00616835
v 0.08601950 -0.05097100 0.08890000
v 0.08540321 -0.03020133 0.06411450
v 0.04393364 -0.02271730 0.00000000
v 0.07352365 0.00708560 0.03100337
v 0.09766612 0.01315026 0.08461730
v 0.09463845 -0.01900286 0.07857154
v 0.08974680 0.02788053 0.07234347
v 0.05473638 0.02345635 0.01528444
v 0.04955744 0.01575363 0.00145656
v 0.06438773 0.02129031 0.02232981
v 0.07379335 -0.05322121 0.06708239
v 0.08560073 -0.04193711 0.07604137
v 0.07959996 -0.02123043 0.04620751
v 0.05552978 -0.01270061 0.00740118
v 0.05460698 -0.05748026 0.04509222
v 0.06763571 0.00731587 0.02216408
v 0.07963833 0.01308635 0.04279733
v 0.09460203 0.01314588 0.07553912
v 0.09469644 -0.01295387 0.07573242
v 0.08535617 0.02845078 0.06253940
v 0.04768398 0.01882569 0.00061404
v 0.05849512 0.01833217 0.01329120
v 0.08017611 -0.05970776 0.08890000
v 0.07949048 -0.04745281 0.07013951
v 0.09475265 -0.03055190 0.08768348
v 0.07638826 -0.02978983 0.04626748
v 0.08247882 -0.01567519 0.04898050
v 0.06730758 -0.01877943 0.02531032
v 0.05874771 -0.00707346 0.01018569
v 0.04965215 -0.01563999 0.00152884
v 0.07082318 -0.05907190 0.07019760
v 0.05367372 -0.04469703 0.02776182
v 0.06451172 0.01266035 0.01916946
v 0.07083793 0.01287498 0.02811940
v 0.09161639 0.01054503 0.06679165
v 0.08849576 0.02474306 0.06677818
v 0.07667776 0.01882974 0.04005691
v 0.05269323 0.02107772 0.00748924
v 0.05544100 0.01268732 0.00746194
v 0.07359712 -0.04154727 0.05232066
v 0.08573533 -0.05075991 0.08795780
v 0.09139144 -0.02762956 0.07590792
v 0.09438234 -0.02458798 0.08175294
v 0.09191016 -0.03932571 0.08890000
v 0.08855687 -0.01292606 0.06088081
v 0.08530320 -0.02153477 0.05801537
v 0.07056526 -0.02119672 0.03133567
v 0.06767252 -0.00700614 0.02216107
v 0.05865398 -0.01834498 0.01335031
f 5 2 1
f 11 1 2
f 13 8 5
f 13 5 1
f 14 5 8
f 16 2 5
f 18 14 4
f 20 11 7
f 20 1 11
f 21 11 2
f 22 13 1
f 22 8 13
f 23 14 8
f 23 15 4
f 23 4 14
f 27 9 17
f 30 5 14
f 30 14 18
f 31 19 3
f 32 7 3
f 32 3 19
f 33 1 20
f 33 20 7
f 34 7 11
f 34 11 21
f 35 6 25
f 35 25 15
f 35 15 23
f 35 23 8
f 35 8 22
f 36 4 15
f 36 18 4
f 38 16 5
f 39 38 26
f 41 28 17
f 41 17 9
f 42 3 7
f 44 24 10
f 44 10 31
f 45 44 29
f 45 24 44
f 45 36 24
f 45 18 36
f 46 30 26
f 46 5 30
f 46 38 5
f 46 26 38
f 47 30 18
f 47 26 30
f 48 31 10
f 48 37 25
f 48 10 37
f 49 32 19
f 49 19 31
f 49 31 48
f 49 48 25
f 49 25 6
f 50 32 12
f 50 7 32
f 50 33 7
f 51 22 1
f 51 1 33
f 51 33 50
f 51 50 12
f 51 35 22
f 51 12 35
f 52 6 35
f 52 49 6
f 52 32 49
f 52 35 12
f 52 12 32
f 53 15 25
f 53 25 37
f 53 36 15
f 53 37 24
f 53 24 36
f 54 37 10
f 54 10 24
f 54 24 37
f 55 39 26
f 55 9 27
f 55 27 39
f 55 47 9
f 55 26 47
f 56 39 27
f 56 27 16
f 56 16 38
f 56 38 39
f 57 27 17
f 58 21 2
f 58 2 40
f 58 57 21
f 58 40 57
f 59 40 2
f 59 2 16
f 59 16 27
f 59 57 40
f 59 27 57
f 60 42 7
f 60 7 34
f 60 34 21
f 61 17 28
f 61 28 42
f 61 57 17
f 61 42 60
f 61 60 21
f 61 21 57
f 62 28 41
f 62 41 9
f 62 42 28
f 62 43 3
f 62 3 42
f 63 44 31
f 63 31 3
f 63 3 43
f 63 29 44
f 64 45 29
f 64 43 62
f 64 62 9
f 64 9 47
f 64 47 18
f 64 18 45
f 64 63 43
f 64 29 63

