# https://github.com/mikedh/trimesh
v 0.02606492 -0.09356460 0.08890000
v 0.02527515 -0.09671940 0.08890000
v -0.00437601 -0.05057237 0.00003452
v -0.02207060 -0.04571130 0.00000000
v -0.04153658 -0.08772457 0.08867411
v -0.00454486 -0.04695654 0.00254000
v 0.02603405 -0.09342483 0.08280600
v -0.03946256 -0.09186659 0.08890000
v -0.00454486 -0.04695654 0.00000000
v -0.04211902 -0.04854754 0.02451289
v 0.01022656 -0.08013517 0.05167529
v -0.02168833 -0.07327694 0.04312351
v -0.03232830 -0.04156068 0.00700136
v 0.00151886 -0.05618682 0.01354933
v -0.04260369 -0.05238169 0.03006305
v 0.01904160 -0.09779769 0.08821143
v 0.00143896 -0.05995173 0.01492193
v -0.03898356 -0.07034138 0.04926934
v -0.01837796 -0.05223733 0.00713087
v -0.04005439 -0.04583153 0.01454214
v -0.04205939 -0.08563901 0.08512980
v 0.02478531 -0.09493458 0.08511036
v -0.01902154 -0.09813527 0.08890000
v -0.00732026 -0.07060552 0.03384017
v -0.03040441 -0.08235846 0.06423978
v -0.01267949 -0.04964677 0.00075683
v -0.03312579 -0.05828481 0.02519784
v -0.02766438 -0.04502144 0.00301665
v -0.03876668 -0.05276924 0.02205379
v -0.03919709 -0.08539555 0.07631621
v 0.01910088 -0.09813347 0.08890000
v -0.00432154 -0.05281395 0.00356422
v -0.01599918 -0.07950573 0.05207648
v 0.00151090 -0.07088017 0.03369491
v -0.02736288 -0.07333860 0.04617641
v -0.03081269 -0.09511895 0.08890000
v -0.02136421 -0.04669344 0.00083810
v -0.01573902 -0.06428614 0.02505122
v -0.02971795 -0.04939396 0.01020753
v -0.03902435 -0.04749707 0.01564278
v -0.03326211 -0.07634958 0.05519846
v 0.00727427 -0.09782378 0.08516554
v 0.00140729 -0.06208395 0.01848826
v -0.00995412 -0.05231325 0.00393543
v -0.02467488 -0.08247431 0.06117639
v -0.02457232 -0.06728262 0.03412634
v -0.02400055 -0.05220740 0.01018520
v -0.01300243 -0.07338245 0.04006803
v -0.01009292 -0.06152237 0.01885085
v -0.03586157 -0.05246695 0.01926388
v -0.02675928 -0.04648715 0.00423051
v 0.00713924 -0.09172366 0.07311482
v -0.01903006 -0.09165784 0.07616569
v -0.02137177 -0.05516278 0.01312917
v -0.02119616 -0.04918773 0.00424368
v -0.00730415 -0.09168605 0.07314257
v -0.00731016 -0.09782907 0.08518193
f 7 1 2
f 7 6 1
f 8 2 1
f 8 1 5
f 9 3 4
f 9 6 7
f 10 5 1
f 13 9 4
f 13 6 9
f 13 10 1
f 13 1 6
f 14 9 7
f 14 3 9
f 17 7 11
f 17 14 7
f 17 3 14
f 20 10 13
f 20 15 10
f 21 5 10
f 21 10 15
f 21 15 18
f 21 8 5
f 22 7 2
f 22 16 11
f 22 11 7
f 23 2 8
f 26 4 3
f 28 20 13
f 28 13 4
f 29 18 15
f 29 15 20
f 29 27 18
f 30 21 18
f 30 8 21
f 31 2 23
f 31 22 2
f 31 16 22
f 32 3 17
f 36 23 8
f 36 30 25
f 36 8 30
f 37 26 19
f 37 4 26
f 38 19 26
f 40 29 20
f 40 20 28
f 40 39 29
f 40 28 39
f 41 30 18
f 41 25 30
f 41 35 25
f 41 18 27
f 42 16 31
f 43 32 17
f 43 34 24
f 43 17 11
f 43 11 34
f 44 26 3
f 44 3 32
f 44 38 26
f 45 12 33
f 45 35 12
f 45 25 35
f 45 36 25
f 46 38 12
f 46 12 35
f 46 41 27
f 46 35 41
f 47 39 37
f 47 27 39
f 48 33 12
f 48 12 38
f 49 48 38
f 49 24 48
f 49 43 24
f 49 32 43
f 49 44 32
f 49 38 44
f 50 39 27
f 50 27 29
f 50 29 39
f 51 39 28
f 51 28 4
f 51 4 37
f 51 37 39
f 52 11 16
f 52 16 42
f 52 34 11
f 53 45 33
f 53 23 36
f 53 36 45
f 54 19 38
f 54 38 46
f 54 47 19
f 54 46 27
f 54 27 47
f 55 47 37
f 55 37 19
f 55 19 47
f 56 48 24
f 56 33 48
f 56 24 34
f 56 34 52
f 56 53 33
f 57 23 53
f 57 53 56
f 57 42 31
f 57 31 23
f 57 56 52
f 57 52 42

