# https://github.com/mikedh/trimesh
v -0.07121212 0.08030303 0.02000000
v -0.07121212 0.07500000 0.02000000
v -0.07121212 0.08030303 -0.02000000
v -0.10000000 0.08030303 -0.02000000
v -0.10000000 0.05606061 0.02000000
v -0.10000000 0.08030303 0.02000000
v -0.07500000 0.05606061 -0.02000000
v -0.07121212 0.07500000 -0.02000000
v -0.07500000 0.05606061 0.02000000
v -0.10000000 0.05606061 -0.02000000
f 1 3 4
f 5 2 1
f 6 5 1
f 6 1 4
f 6 4 5
f 7 4 3
f 8 7 3
f 8 2 7
f 8 1 2
f 8 3 1
f 9 7 2
f 9 2 5
f 9 5 7
f 10 7 5
f 10 5 4
f 10 4 7

