# OBJ generated by ONSHAPE BY PTC INC, 1.200 Units = meters
mtllib frame.mtl
g Part 1
v -0.075 -0.1 0.02 
v -0.075 -0.1 -0.02 
v -0.075 0.075 -0.02 
v -0.075 0.075 0.02 
v 0.075 0.075 -0.02 
v 0.075 0.075 0.02 
v 0.075 -0.1 -0.02 
v 0.075 -0.1 0.02 
v 0.1 -0.1 -0.02 
v 0.1 -0.1 0.02 
v 0.1 0.1 -0.02 
v 0.1 0.1 0.02 
v -0.1 0.1 0.02 
v -0.1 -0.1 0.02 
v -0.1 -0.1 -0.02 
v -0.1 0.1 -0.02 
vn 1 0 0 
vn 1.85037e-16 -1 0 
vn -1 0 0 
vn 1 0 0 
vn 0 0 1 
vn 0 0 -1 
vn 0 1 0 
vn -1 0 0 
vn 0 -1 0 
usemtl 0.615686_0.811765_0.929412_0.000000_0.000000
o mesh0
f 1//1 2//1 3//1 
f 3//1 4//1 1//1 
o mesh1
f 4//2 3//2 5//2 
f 5//2 6//2 4//2 
o mesh2
f 6//3 5//3 7//3 
f 7//3 8//3 6//3 
o mesh3
f 8//2 7//2 9//2 
f 9//2 10//2 8//2 
o mesh4
f 10//4 9//4 11//4 
f 11//4 12//4 10//4 
o mesh5
f 10//5 12//5 6//5 
f 12//5 13//5 4//5 
f 4//5 6//5 12//5 
f 14//5 1//5 4//5 
f 4//5 13//5 14//5 
f 6//5 8//5 10//5 
o mesh6
f 15//6 16//6 3//6 
f 16//6 11//6 5//6 
f 5//6 3//6 16//6 
f 9//6 7//6 5//6 
f 5//6 11//6 9//6 
f 3//6 2//6 15//6 
o mesh7
f 12//7 11//7 16//7 
f 16//7 13//7 12//7 
o mesh8
f 13//8 16//8 15//8 
f 15//8 14//8 13//8 
o mesh9
f 14//9 15//9 2//9 
f 2//9 1//9 14//9 