# OBJ generated by ONSHAPE BY PTC INC, 1.202 Units = meters
mtllib I.mtl
g I
v 0.304167 0.131445 0.0025 
v 0.304167 0.0172852 0.0025 
v 0.304167 0.0172852 0.0375 
v 0.304167 0.131445 0.0375 
v 0.287809 0.0172852 0.0025 
v 0.287809 0.0172852 0.0375 
v 0.306667 0.0147852 0.04 
v 0.306667 0.133945 0.04 
v 0.306179 0.133458 0.039952 
v 0.306179 0.0152729 0.039952 
v 0.30571 0.132989 0.0398097 
v 0.305278 0.132556 0.0395787 
v 0.305278 0.0161741 0.0395787 
v 0.304899 0.132178 0.0392678 
v 0.304588 0.131867 0.0388889 
v 0.304588 0.0168638 0.0388889 
v 0.304462 0.01699 0.0386785 
v 0.304462 0.131741 0.0386785 
v 0.304357 0.0170949 0.0384567 
v 0.304274 0.0171775 0.0382257 
v 0.304357 0.131636 0.0384567 
v 0.304274 0.131553 0.0382257 
v 0.304215 0.0172371 0.0379877 
v 0.304179 0.0172731 0.037745 
v 0.304215 0.131493 0.0379877 
v 0.304179 0.131457 0.037745 
v 0.304899 0.0165529 0.0392678 
v 0.30571 0.0157419 0.0398097 
v 0.290309 0.133945 0.04 
v 0.289822 0.133458 0.039952 
v 0.289353 0.132989 0.0398097 
v 0.28892 0.132556 0.0395787 
v 0.288541 0.132178 0.0392678 
v 0.288231 0.131867 0.0388889 
v 0.288104 0.131741 0.0386785 
v 0.288 0.131636 0.0384567 
v 0.287917 0.131553 0.0382257 
v 0.287857 0.131493 0.0379877 
v 0.287821 0.131457 0.037745 
v 0.287809 0.131445 0.0375 
v 0.287821 0.0172731 0.037745 
v 0.287857 0.0172371 0.0379877 
v 0.287917 0.0171775 0.0382257 
v 0.288 0.0170949 0.0384567 
v 0.288104 0.01699 0.0386785 
v 0.288231 0.0168638 0.0388889 
v 0.288541 0.0165529 0.0392678 
v 0.28892 0.0161741 0.0395787 
v 0.289353 0.0157419 0.0398097 
v 0.289822 0.0152729 0.039952 
v 0.290309 0.0147852 0.04 
v 0.287821 1.20382e-05 0.037745 
v 0.287857 4.80368e-05 0.0379877 
v 0.287809 4.16334e-17 0.0375 
v 0.287917 0.000107649 0.0382257 
v 0.288 0.000190301 0.0384567 
v 0.288104 0.000295197 0.0386785 
v 0.288231 0.000421326 0.0388889 
v 0.288541 0.000732233 0.0392678 
v 0.28892 0.00111107 0.0395787 
v 0.289353 0.00154329 0.0398097 
v 0.289822 0.00201227 0.039952 
v 0.290309 0.0025 0.04 
v 0.287809 4.16334e-17 0.0025 
v 0.337797 1.20382e-05 0.037745 
v 0.337761 4.80368e-05 0.0379877 
v 0.337809 3.64292e-17 0.0375 
v 0.337702 0.000107649 0.0382257 
v 0.337619 0.000190301 0.0384567 
v 0.337514 0.000295197 0.0386785 
v 0.337388 0.000421326 0.0388889 
v 0.337077 0.000732233 0.0392678 
v 0.336698 0.00111107 0.0395787 
v 0.336266 0.00154329 0.0398097 
v 0.335797 0.00201227 0.039952 
v 0.335309 0.0025 0.04 
v 0.290309 0.0147852 0 
v 0.289822 0.0152729 4.80368e-05 
v 0.306179 0.0152729 4.80368e-05 
v 0.289353 0.0157419 0.000190301 
v 0.30571 0.0157419 0.000190301 
v 0.28892 0.0161741 0.000421326 
v 0.305278 0.0161741 0.000421326 
v 0.288541 0.0165529 0.000732233 
v 0.304899 0.0165529 0.000732233 
v 0.288231 0.0168638 0.00111107 
v 0.304588 0.0168638 0.00111107 
v 0.304357 0.0170949 0.00154329 
v 0.304462 0.01699 0.00132151 
v 0.288104 0.01699 0.00132151 
v 0.288 0.0170949 0.00154329 
v 0.304215 0.0172371 0.00201227 
v 0.304274 0.0171775 0.00177429 
v 0.287917 0.0171775 0.00177429 
v 0.287857 0.0172371 0.00201227 
v 0.304179 0.0172731 0.00225496 
v 0.287821 0.0172731 0.00225496 
v 0.306667 0.0147852 0 
v 0.304179 0.131457 0.00225496 
v 0.304215 0.131493 0.00201227 
v 0.304274 0.131553 0.00177429 
v 0.304462 0.131741 0.00132151 
v 0.304357 0.131636 0.00154329 
v 0.304899 0.132178 0.000732233 
v 0.30571 0.132989 0.000190301 
v 0.306667 0.133945 0 
v 0.306179 0.133458 4.80368e-05 
v 0.305278 0.132556 0.000421326 
v 0.304588 0.131867 0.00111107 
v 0.287809 0.131445 0.0025 
v 0.289822 0.146718 0.039952 
v 0.289353 0.147187 0.0398097 
v 0.28892 0.147619 0.0395787 
v 0.288541 0.147998 0.0392678 
v 0.288231 0.148309 0.0388889 
v 0.288104 0.148435 0.0386785 
v 0.287917 0.148623 0.0382257 
v 0.288 0.14854 0.0384567 
v 0.287821 0.148718 0.037745 
v 0.287857 0.148682 0.0379877 
v 0.287809 0.14873 0.0375 
v 0.290309 0.14623 0.04 
v 0.287821 0.131457 0.00225496 
v 0.287857 0.131493 0.00201227 
v 0.287917 0.131553 0.00177429 
v 0.288 0.131636 0.00154329 
v 0.288104 0.131741 0.00132151 
v 0.288231 0.131867 0.00111107 
v 0.288541 0.132178 0.000732233 
v 0.28892 0.132556 0.000421326 
v 0.289353 0.132989 0.000190301 
v 0.289822 0.133458 4.80368e-05 
v 0.290309 0.133945 0 
v 0.287809 0.14873 0.0025 
v 0.335797 0.146718 0.039952 
v 0.336266 0.147187 0.0398097 
v 0.336698 0.147619 0.0395787 
v 0.337077 0.147998 0.0392678 
v 0.337388 0.148309 0.0388889 
v 0.337514 0.148435 0.0386785 
v 0.337619 0.14854 0.0384567 
v 0.337702 0.148623 0.0382257 
v 0.337761 0.148682 0.0379877 
v 0.337797 0.148718 0.037745 
v 0.337809 0.14873 0.0375 
v 0.335309 0.14623 0.04 
v 0.287821 0.148718 0.00225496 
v 0.287857 0.148682 0.00201227 
v 0.287917 0.148623 0.00177429 
v 0.288 0.14854 0.00154329 
v 0.288104 0.148435 0.00132151 
v 0.288231 0.148309 0.00111107 
v 0.288541 0.147998 0.000732233 
v 0.28892 0.147619 0.000421326 
v 0.289353 0.147187 0.000190301 
v 0.289822 0.146718 4.80368e-05 
v 0.290309 0.14623 0 
v 0.337809 0.14873 0.0025 
v 0.335797 0.133458 0.039952 
v 0.336266 0.132989 0.0398097 
v 0.336698 0.132556 0.0395787 
v 0.337077 0.132178 0.0392678 
v 0.337388 0.131867 0.0388889 
v 0.337514 0.131741 0.0386785 
v 0.337619 0.131636 0.0384567 
v 0.337702 0.131553 0.0382257 
v 0.337761 0.131493 0.0379877 
v 0.337797 0.131457 0.037745 
v 0.337809 0.131445 0.0375 
v 0.335309 0.133945 0.04 
v 0.289822 0.00201227 4.80368e-05 
v 0.289353 0.00154329 0.000190301 
v 0.288541 0.000732233 0.000732233 
v 0.288104 0.000295197 0.00132151 
v 0.288231 0.000421326 0.00111107 
v 0.288 0.000190301 0.00154329 
v 0.287917 0.000107649 0.00177429 
v 0.287857 4.80368e-05 0.00201227 
v 0.287821 1.20382e-05 0.00225496 
v 0.28892 0.00111107 0.000421326 
v 0.290309 0.0025 0 
v 0.337809 3.64292e-17 0.0025 
v 0.337797 0.0172731 0.037745 
v 0.337761 0.0172371 0.0379877 
v 0.337809 0.0172852 0.0375 
v 0.337702 0.0171775 0.0382257 
v 0.337619 0.0170949 0.0384567 
v 0.337514 0.01699 0.0386785 
v 0.337388 0.0168638 0.0388889 
v 0.337077 0.0165529 0.0392678 
v 0.336698 0.0161741 0.0395787 
v 0.336266 0.0157419 0.0398097 
v 0.335797 0.0152729 0.039952 
v 0.335309 0.0147852 0.04 
v 0.318952 0.0147852 0.04 
v 0.318952 0.133945 0.04 
v 0.31944 0.133458 0.039952 
v 0.319909 0.132989 0.0398097 
v 0.320341 0.132556 0.0395787 
v 0.32072 0.132178 0.0392678 
v 0.32103 0.131867 0.0388889 
v 0.321262 0.131636 0.0384567 
v 0.321157 0.131741 0.0386785 
v 0.321404 0.131493 0.0379877 
v 0.321344 0.131553 0.0382257 
v 0.321452 0.131445 0.0375 
v 0.32144 0.131457 0.037745 
v 0.337809 0.131445 0.0025 
v 0.337797 0.148718 0.00225496 
v 0.337761 0.148682 0.00201227 
v 0.337702 0.148623 0.00177429 
v 0.337619 0.14854 0.00154329 
v 0.337514 0.148435 0.00132151 
v 0.337388 0.148309 0.00111107 
v 0.337077 0.147998 0.000732233 
v 0.336698 0.147619 0.000421326 
v 0.336266 0.147187 0.000190301 
v 0.335797 0.146718 4.80368e-05 
v 0.335309 0.14623 0 
v 0.321452 0.0172852 0.0375 
v 0.32144 0.0172731 0.037745 
v 0.321404 0.0172371 0.0379877 
v 0.321344 0.0171775 0.0382257 
v 0.321262 0.0170949 0.0384567 
v 0.321157 0.01699 0.0386785 
v 0.32103 0.0168638 0.0388889 
v 0.32072 0.0165529 0.0392678 
v 0.320341 0.0161741 0.0395787 
v 0.319909 0.0157419 0.0398097 
v 0.31944 0.0152729 0.039952 
v 0.337809 0.0172852 0.0025 
v 0.335797 0.00201227 4.80368e-05 
v 0.336698 0.00111107 0.000421326 
v 0.337388 0.000421326 0.00111107 
v 0.337514 0.000295197 0.00132151 
v 0.337619 0.000190301 0.00154329 
v 0.337702 0.000107649 0.00177429 
v 0.337761 4.80368e-05 0.00201227 
v 0.337797 1.20382e-05 0.00225496 
v 0.337077 0.000732233 0.000732233 
v 0.336266 0.00154329 0.000190301 
v 0.335309 0.0025 0 
v 0.321452 0.0172852 0.0025 
v 0.321452 0.131445 0.0025 
v 0.337797 0.131457 0.00225496 
v 0.337761 0.131493 0.00201227 
v 0.337702 0.131553 0.00177429 
v 0.337619 0.131636 0.00154329 
v 0.337514 0.131741 0.00132151 
v 0.337388 0.131867 0.00111107 
v 0.337077 0.132178 0.000732233 
v 0.336698 0.132556 0.000421326 
v 0.336266 0.132989 0.000190301 
v 0.335797 0.133458 4.80368e-05 
v 0.335309 0.133945 0 
v 0.32144 0.131457 0.00225496 
v 0.321404 0.131493 0.00201227 
v 0.321344 0.131553 0.00177429 
v 0.321262 0.131636 0.00154329 
v 0.321157 0.131741 0.00132151 
v 0.32103 0.131867 0.00111107 
v 0.32072 0.132178 0.000732233 
v 0.320341 0.132556 0.000421326 
v 0.319909 0.132989 0.000190301 
v 0.31944 0.133458 4.80368e-05 
v 0.318952 0.133945 0 
v 0.318952 0.0147852 0 
v 0.335309 0.0147852 0 
v 0.335797 0.0152729 4.80368e-05 
v 0.336266 0.0157419 0.000190301 
v 0.336698 0.0161741 0.000421326 
v 0.337077 0.0165529 0.000732233 
v 0.337514 0.01699 0.00132151 
v 0.337388 0.0168638 0.00111107 
v 0.337619 0.0170949 0.00154329 
v 0.337702 0.0171775 0.00177429 
v 0.337761 0.0172371 0.00201227 
v 0.337797 0.0172731 0.00225496 
v 0.31944 0.0152729 4.80368e-05 
v 0.319909 0.0157419 0.000190301 
v 0.320341 0.0161741 0.000421326 
v 0.32072 0.0165529 0.000732233 
v 0.32103 0.0168638 0.00111107 
v 0.321262 0.0170949 0.00154329 
v 0.321157 0.01699 0.00132151 
v 0.321404 0.0172371 0.00201227 
v 0.321344 0.0171775 0.00177429 
v 0.32144 0.0172731 0.00225496 
vn -1 0 0 
vn 1.38778e-16 1 0 
vn 0 0 1 
vn -0.19509 0 0.980785 
vn -0.382683 0 0.92388 
vn -0.55557 0 0.83147 
vn -0.707107 0 0.707107 
vn -0.83147 0 0.55557 
vn -0.881921 0 0.471397 
vn -0.92388 0 0.382683 
vn -0.95694 0 0.290285 
vn -0.980785 0 0.19509 
vn -0.995185 0 0.0980171 
vn -1 0 -1.83697e-16 
vn -0.707107 0 0.707107 
vn -0.382683 0 0.92388 
vn 0 0 1 
vn 0 -0.19509 0.980785 
vn 0 -0.382683 0.92388 
vn 0 -0.55557 0.83147 
vn 0 -0.707107 0.707107 
vn 0 -0.83147 0.55557 
vn 0 -0.92388 0.382683 
vn 0 -0.881921 0.471397 
vn 0 -0.980785 0.19509 
vn 0 -0.95694 0.290285 
vn 0 -1 1.83697e-16 
vn 0 -0.995185 0.0980171 
vn 0 1.22465e-16 1 
vn 1.38778e-16 1 1.22465e-16 
vn 0 0.995185 0.0980171 
vn 0 0.980785 0.19509 
vn 0 1 0 
vn 0 0.995185 0.0980171 
vn 0 0.95694 0.290285 
vn 0 0.92388 0.382683 
vn 0 0.881921 0.471397 
vn 0 0.83147 0.55557 
vn 0 0.707107 0.707107 
vn 0 0.55557 0.83147 
vn 0 0.382683 0.92388 
vn 0 0.19509 0.980785 
vn 2.23172e-32 1.60812e-16 1 
vn -0.995185 0 0.0980171 
vn -0.980785 0 0.19509 
vn -1 0 0 
vn -0.95694 0 0.290285 
vn -0.92388 0 0.382683 
vn -0.881921 0 0.471397 
vn -0.83147 0 0.55557 
vn -0.707107 0 0.707107 
vn -0.55557 0 0.83147 
vn -0.382683 0 0.92388 
vn -0.19509 0 0.980785 
vn 1.22465e-16 0 1 
vn -0.382683 0 0.92388 
vn -0.707107 0 0.707107 
vn -1 0 1.83697e-16 
vn 0 -0.995185 0.0980171 
vn 0 -0.980785 0.19509 
vn 0 -1 0 
vn 0 -0.95694 0.290285 
vn 0 -0.92388 0.382683 
vn 0 -0.881921 0.471397 
vn 0 -0.83147 0.55557 
vn 0 -0.707107 0.707107 
vn 0 -0.55557 0.83147 
vn 0 -0.382683 0.92388 
vn 0 -0.19509 0.980785 
vn 0 0 1 
vn 0 -0.707107 0.707107 
vn 0 -1 -1.83697e-16 
vn 0 8.67777e-15 -1 
vn 0 0.19509 -0.980785 
vn 0 0.382683 -0.92388 
vn 0 0.55557 -0.83147 
vn 0 0.707107 -0.707107 
vn 0 0.83147 -0.55557 
vn 0 0.92388 -0.382683 
vn 0 0.881921 -0.471397 
vn 0 0.980785 -0.19509 
vn 0 0.95694 -0.290285 
vn 1.38778e-16 1 1.22465e-16 
vn 0 0.995185 -0.0980171 
vn 1.25809e-30 9.06548e-15 -1 
vn -0.995185 0 -0.0980171 
vn -0.980785 0 -0.19509 
vn -1 0 1.73472e-16 
vn -0.95694 0 -0.290285 
vn -0.92388 0 -0.382683 
vn -0.881921 0 -0.471397 
vn -0.83147 0 -0.55557 
vn -0.92388 0 -0.382683 
vn -0.707107 0 -0.707107 
vn -0.55557 0 -0.83147 
vn -0.382683 0 -0.92388 
vn -0.19509 0 -0.980785 
vn 0 0 -1 
vn -0.55557 0 -0.83147 
vn -0.83147 0 -0.55557 
vn -1 0 1.83697e-16 
vn 0 -1 0 
vn -0.19509 0 0.980785 
vn 1.22465e-16 0 1 
vn -0.382683 0 0.92388 
vn -0.55557 0 0.83147 
vn -0.707107 0 0.707107 
vn -0.83147 0 0.55557 
vn -0.881921 0 0.471397 
vn -0.92388 0 0.382683 
vn -0.95694 0 0.290285 
vn -0.980785 0 0.19509 
vn -0.92388 0 0.382683 
vn -0.995185 0 0.0980171 
vn -0.980785 0 0.19509 
vn -1 0 1.83697e-16 
vn 0 0 1 
vn 0 -1 1.83697e-16 
vn 0 -0.995185 -0.0980171 
vn 0 -0.980785 -0.19509 
vn 0 -1 1.73472e-16 
vn 0 -0.995185 -0.0980171 
vn 0 -0.95694 -0.290285 
vn 0 -0.92388 -0.382683 
vn 0 -0.881921 -0.471397 
vn 0 -0.83147 -0.55557 
vn 0 -0.707107 -0.707107 
vn 0 -0.55557 -0.83147 
vn 0 -0.382683 -0.92388 
vn 0 -0.19509 -0.980785 
vn 0 0 -1 
vn -1 0 0 
vn 0 0.19509 0.980785 
vn 0 1.22465e-16 1 
vn 0 0.382683 0.92388 
vn 0 0.55557 0.83147 
vn 0 0.707107 0.707107 
vn 0 0.83147 0.55557 
vn 0 0.881921 0.471397 
vn 0 0.92388 0.382683 
vn 0 0.95694 0.290285 
vn 0 0.980785 0.19509 
vn 0 0.995185 0.0980171 
vn 0 1 -6.12323e-17 
vn 0 0 1 
vn -0.995185 0 -0.0980171 
vn -0.980785 0 -0.19509 
vn -1 0 1.73472e-16 
vn -0.95694 0 -0.290285 
vn -0.92388 0 -0.382683 
vn -0.881921 0 -0.471397 
vn -0.83147 0 -0.55557 
vn -0.707107 0 -0.707107 
vn -0.55557 0 -0.83147 
vn -0.382683 0 -0.92388 
vn -0.19509 0 -0.980785 
vn 0 0 -1 
vn -1 0 1.83697e-16 
vn 0 1 0 
vn 0.19509 0 0.980785 
vn 0 0 1 
vn 0.382683 0 0.92388 
vn 0.55557 0 0.83147 
vn 0.707107 0 0.707107 
vn 0.83147 0 0.55557 
vn 0.881921 0 0.471397 
vn 0.92388 0 0.382683 
vn 0.95694 0 0.290285 
vn 0.980785 0 0.19509 
vn 0.995185 0 0.0980171 
vn 1 0 6.12323e-17 
vn 0 0 1 
vn -0.19509 0 -0.980785 
vn 0 0 -1 
vn -0.382683 0 -0.92388 
vn -0.55557 0 -0.83147 
vn -0.707107 0 -0.707107 
vn -0.83147 0 -0.55557 
vn -0.881921 0 -0.471397 
vn -0.92388 0 -0.382683 
vn -0.83147 0 -0.55557 
vn -0.95694 0 -0.290285 
vn -0.92388 0 -0.382683 
vn -0.980785 0 -0.19509 
vn -0.995185 0 -0.0980171 
vn -1 0 1.83697e-16 
vn -0.55557 0 -0.83147 
vn 0 0 -1 
vn 0 -1 0 
vn 0.995185 0 0.0980171 
vn 0.980785 0 0.19509 
vn 1 0 6.12323e-17 
vn 0.95694 0 0.290285 
vn 0.92388 0 0.382683 
vn 0.881921 0 0.471397 
vn 0.83147 0 0.55557 
vn 0.707107 0 0.707107 
vn 0.55557 0 0.83147 
vn 0.382683 0 0.92388 
vn 0.19509 0 0.980785 
vn 0 0 1 
vn 0.707107 0 0.707107 
vn 0 -0.19509 0.980785 
vn 0 -0.382683 0.92388 
vn 0 -0.55557 0.83147 
vn 0 -0.707107 0.707107 
vn 0 -0.83147 0.55557 
vn 0 -0.92388 0.382683 
vn 0 -0.881921 0.471397 
vn 0 -0.83147 0.55557 
vn 0 -0.92388 0.382683 
vn 0 -0.881921 0.471397 
vn 0 -0.980785 0.19509 
vn 0 -0.95694 0.290285 
vn 0 -1 1.83697e-16 
vn 0 -0.995185 0.0980171 
vn 1 0 0 
vn 0 0.995185 -0.0980171 
vn 0 0.980785 -0.19509 
vn 0 1 6.12323e-17 
vn 0 0.95694 -0.290285 
vn 0 0.92388 -0.382683 
vn 0 0.881921 -0.471397 
vn 0 0.83147 -0.55557 
vn 0 0.707107 -0.707107 
vn 0 0.55557 -0.83147 
vn 0 0.382683 -0.92388 
vn 0 0.19509 -0.980785 
vn 0 1.22465e-16 -1 
vn 0 0.382683 -0.92388 
vn 0 1 0 
vn 0 0.995185 0.0980171 
vn 0 0.980785 0.19509 
vn 1.38778e-16 1 1.22465e-16 
vn 0 0.95694 0.290285 
vn 0 0.92388 0.382683 
vn 0 0.881921 0.471397 
vn 0 0.83147 0.55557 
vn 0 0.707107 0.707107 
vn 0 0.55557 0.83147 
vn 0 0.382683 0.92388 
vn 0 0.19509 0.980785 
vn 5.31321e-32 3.82857e-16 1 
vn 1 0 0 
vn 0 -0.19509 -0.980785 
vn 0 0 -1 
vn 0 -0.382683 -0.92388 
vn 0 -0.55557 -0.83147 
vn 0 -0.707107 -0.707107 
vn 0 -0.83147 -0.55557 
vn 0 -0.881921 -0.471397 
vn 0 -0.92388 -0.382683 
vn 0 -0.95694 -0.290285 
vn 0 -0.980785 -0.19509 
vn 0 -0.995185 -0.0980171 
vn 0 -1 1.83697e-16 
vn 0 -0.707107 -0.707107 
vn 0 -0.382683 -0.92388 
vn 0 0 -1 
vn 1.22465e-16 0 1 
vn 0.19509 0 0.980785 
vn 0.382683 0 0.92388 
vn 0.55557 0 0.83147 
vn 0.707107 0 0.707107 
vn 0.83147 0 0.55557 
vn 0.881921 0 0.471397 
vn 0.92388 0 0.382683 
vn 0.95694 0 0.290285 
vn 0.980785 0 0.19509 
vn 0.995185 0 0.0980171 
vn 1 0 -6.12323e-17 
vn 0.83147 0 0.55557 
vn 0.55557 0 0.83147 
vn 1 0 0 
vn 0 -1 0 
vn 0.995185 0 -0.0980171 
vn 0.980785 0 -0.19509 
vn 1 0 0 
vn 0.95694 0 -0.290285 
vn 0.92388 0 -0.382683 
vn 0.881921 0 -0.471397 
vn 0.83147 0 -0.55557 
vn 0.707107 0 -0.707107 
vn 0.55557 0 -0.83147 
vn 0.382683 0 -0.92388 
vn 0.19509 0 -0.980785 
vn 1.22465e-16 0 -1 
vn 1 0 6.12323e-17 
vn 0 -1 1.73472e-16 
vn 0 -0.995185 -0.0980171 
vn 0 -0.980785 -0.19509 
vn 0 -1 1.83697e-16 
vn 0 -0.95694 -0.290285 
vn 0 -0.92388 -0.382683 
vn 0 -0.881921 -0.471397 
vn 0 -0.83147 -0.55557 
vn 0 -0.707107 -0.707107 
vn 0 -0.55557 -0.83147 
vn 0 -0.382683 -0.92388 
vn 0 -0.19509 -0.980785 
vn 0 0 -1 
vn 1.38778e-16 1 0 
vn 0.19509 0 -0.980785 
vn 1.22465e-16 0 -1 
vn 0.382683 0 -0.92388 
vn 0.55557 0 -0.83147 
vn 0.707107 0 -0.707107 
vn 0.83147 0 -0.55557 
vn 0.881921 0 -0.471397 
vn 0.92388 0 -0.382683 
vn 0.95694 0 -0.290285 
vn 0.980785 0 -0.19509 
vn 0.995185 0 -0.0980171 
vn 1 0 6.12323e-17 
vn 0 0 -1 
vn 0 0.19509 -0.980785 
vn 0 0.382683 -0.92388 
vn 0 0.55557 -0.83147 
vn 0 0.707107 -0.707107 
vn 0 0.83147 -0.55557 
vn 0 0.92388 -0.382683 
vn 0 0.881921 -0.471397 
vn 0 0.83147 -0.55557 
vn 0 0.92388 -0.382683 
vn 0 0.881921 -0.471397 
vn 0 0.980785 -0.19509 
vn 0 0.95694 -0.290285 
vn 1.38778e-16 1 1.22465e-16 
vn 0 0.995185 -0.0980171 
vn 0.995185 0 -0.0980171 
vn 0.980785 0 -0.19509 
vn 1 0 0 
vn 0.95694 0 -0.290285 
vn 0.92388 0 -0.382683 
vn 0.980785 0 -0.19509 
vn 0.881921 0 -0.471397 
vn 0.83147 0 -0.55557 
vn 0.707107 0 -0.707107 
vn 0.55557 0 -0.83147 
vn 0.382683 0 -0.92388 
vn 0.19509 0 -0.980785 
vn 1.22465e-16 0 -1 
vn 0.707107 0 -0.707107 
usemtl 0.231373_0.380392_0.705882_0.000000_0.000000
o mesh0
f 1//1 2//1 3//1 
f 3//1 4//1 1//1 
o mesh1
f 2//2 5//2 6//2 
f 6//2 3//2 2//2 
o mesh2
f 7//3 8//3 9//4 
f 10//4 9//4 11//5 
f 11//5 12//6 13//6 
f 13//6 12//6 14//7 
f 14//7 15//8 16//8 
f 17//9 15//8 18//9 
f 18//9 19//10 17//9 
f 17//9 16//8 15//8 
f 20//11 21//10 22//11 
f 22//11 23//12 20//11 
f 20//11 19//10 21//10 
f 24//13 25//12 26//13 
f 26//13 3//14 24//13 
f 26//13 4//14 3//14 
f 24//13 23//12 25//12 
f 22//11 25//12 23//12 
f 18//9 21//10 19//10 
f 16//8 27//15 14//7 
f 14//7 27//15 13//6 
f 13//6 28//16 11//5 
f 11//5 28//16 10//4 
f 9//4 10//4 7//3 
o mesh3
f 29//17 30//18 9//18 
f 30//18 31//19 11//19 
f 31//19 32//20 12//20 
f 32//20 33//21 14//21 
f 33//21 34//22 15//22 
f 21//23 18//24 34//22 
f 34//22 35//24 21//23 
f 35//24 36//23 21//23 
f 25//25 22//26 36//23 
f 36//23 37//26 25//25 
f 37//26 38//25 25//25 
f 4//27 26//28 38//25 
f 38//25 39//28 4//27 
f 39//28 40//27 4//27 
f 26//28 25//25 38//25 
f 22//26 21//23 36//23 
f 18//24 15//22 34//22 
f 15//22 14//21 33//21 
f 14//21 12//20 32//20 
f 12//20 11//19 31//19 
f 11//19 9//18 30//18 
f 9//18 8//29 29//17 
o mesh4
f 3//30 41//31 42//32 
f 3//30 6//33 41//31 
f 42//32 23//32 24//34 
f 23//32 43//35 44//36 
f 23//32 42//32 43//35 
f 44//36 19//36 20//35 
f 19//36 45//37 46//38 
f 19//36 44//36 45//37 
f 46//38 16//38 17//37 
f 16//38 46//38 47//39 
f 48//40 13//40 27//39 
f 13//40 48//40 49//41 
f 50//42 10//42 28//41 
f 10//42 50//42 51//43 
f 51//43 7//43 10//42 
f 28//41 49//41 50//42 
f 49//41 28//41 13//40 
f 27//39 47//39 48//40 
f 47//39 27//39 16//38 
f 46//38 17//37 19//36 
f 44//36 20//35 23//32 
f 42//32 24//34 3//30 
o mesh5
f 41//44 52//44 53//45 
f 41//44 54//46 52//44 
f 53//45 42//45 41//44 
f 55//47 56//48 44//48 
f 43//47 53//45 55//47 
f 44//48 43//47 55//47 
f 57//49 58//50 46//50 
f 46//50 45//49 57//49 
f 44//48 56//48 57//49 
f 46//50 58//50 59//51 
f 59//51 60//52 48//52 
f 48//52 60//52 61//53 
f 61//53 62//54 50//54 
f 50//54 62//54 63//55 
f 63//55 51//55 50//54 
f 50//54 49//56 61//53 
f 61//53 49//56 48//52 
f 48//52 47//57 59//51 
f 59//51 47//57 46//50 
f 45//49 44//48 57//49 
f 43//47 42//45 53//45 
f 41//44 6//58 54//46 
o mesh6
f 5//58 64//58 54//58 
f 54//58 6//58 5//58 
o mesh7
f 52//59 65//59 66//60 
f 52//59 67//61 65//59 
f 66//60 53//60 52//59 
f 55//62 68//62 69//63 
f 55//62 66//60 68//62 
f 69//63 56//63 55//62 
f 57//64 70//64 71//65 
f 57//64 69//63 70//64 
f 71//65 58//65 57//64 
f 58//65 71//65 72//66 
f 72//66 73//67 60//67 
f 60//67 73//67 74//68 
f 61//68 74//68 75//69 
f 62//69 75//69 76//70 
f 76//70 63//70 62//69 
f 75//69 62//69 61//68 
f 74//68 61//68 60//67 
f 60//67 59//71 72//66 
f 72//66 59//71 58//65 
f 57//64 56//63 69//63 
f 55//62 53//60 66//60 
f 52//59 54//72 67//61 
o mesh8
f 77//73 78//74 79//74 
f 78//74 80//75 81//75 
f 80//75 82//76 83//76 
f 82//76 84//77 85//77 
f 84//77 86//78 87//78 
f 88//79 89//80 86//78 
f 86//78 90//80 88//79 
f 90//80 91//79 88//79 
f 92//81 93//82 91//79 
f 91//79 94//82 92//81 
f 94//82 95//81 92//81 
f 2//83 96//84 95//81 
f 95//81 97//84 2//83 
f 97//84 5//83 2//83 
f 96//84 92//81 95//81 
f 93//82 88//79 91//79 
f 89//80 87//78 86//78 
f 87//78 85//77 84//77 
f 85//77 83//76 82//76 
f 83//76 81//75 80//75 
f 81//75 79//74 78//74 
f 79//74 98//85 77//73 
o mesh9
f 99//86 92//87 96//86 
f 96//86 1//88 99//86 
f 99//86 100//87 92//87 
f 101//89 88//90 93//89 
f 93//89 100//87 101//89 
f 93//89 92//87 100//87 
f 102//91 87//92 89//91 
f 89//91 103//93 102//91 
f 89//91 88//90 103//93 
f 104//94 85//94 87//92 
f 83//95 85//94 104//94 
f 105//96 81//96 83//95 
f 79//97 81//96 105//96 
f 106//98 98//98 79//97 
f 79//97 107//97 106//98 
f 105//96 107//97 79//97 
f 83//95 108//99 105//96 
f 104//94 108//99 83//95 
f 87//92 109//100 104//94 
f 102//91 109//100 87//92 
f 101//89 103//93 88//90 
f 96//86 2//101 1//88 
o mesh10
f 110//102 1//102 4//102 
f 4//102 40//102 110//102 
o mesh11
f 111//103 30//103 29//104 
f 112//105 31//105 30//103 
f 113//106 32//106 31//105 
f 114//107 33//107 32//106 
f 115//108 34//108 33//107 
f 35//109 34//108 115//108 
f 116//109 36//110 35//109 
f 115//108 116//109 35//109 
f 117//111 37//111 36//110 
f 117//111 38//112 37//111 
f 36//110 118//113 117//111 
f 119//114 39//114 38//112 
f 38//112 120//115 119//114 
f 121//116 40//116 39//114 
f 119//114 121//116 39//114 
f 117//111 120//115 38//112 
f 116//109 118//113 36//110 
f 33//107 114//107 115//108 
f 32//106 113//106 114//107 
f 31//105 112//105 113//106 
f 30//103 111//103 112//105 
f 29//104 122//117 111//103 
o mesh12
f 1//118 123//119 124//120 
f 1//118 110//121 123//119 
f 124//120 100//120 99//122 
f 100//120 125//123 126//124 
f 100//120 124//120 125//123 
f 126//124 103//124 101//123 
f 103//124 127//125 128//126 
f 103//124 126//124 127//125 
f 128//126 109//126 102//125 
f 129//127 104//127 109//126 
f 104//127 129//127 130//128 
f 108//128 130//128 131//129 
f 105//129 131//129 132//130 
f 133//131 106//131 107//130 
f 107//130 132//130 133//131 
f 132//130 107//130 105//129 
f 131//129 105//129 108//128 
f 130//128 108//128 104//127 
f 109//126 128//126 129//127 
f 128//126 102//125 103//124 
f 126//124 101//123 100//120 
f 124//120 99//122 1//118 
o mesh13
f 134//132 110//132 40//132 
f 40//132 121//132 134//132 
o mesh14
f 135//133 111//133 122//134 
f 136//135 112//135 111//133 
f 137//136 113//136 112//135 
f 138//137 114//137 113//136 
f 139//138 115//138 114//137 
f 140//139 116//139 115//138 
f 140//139 118//140 116//139 
f 115//138 139//138 140//139 
f 117//141 118//140 141//140 
f 141//140 142//141 117//141 
f 143//142 120//142 117//141 
f 119//143 120//142 143//142 
f 144//143 121//144 119//143 
f 143//142 144//143 119//143 
f 144//143 145//144 121//144 
f 142//141 143//142 117//141 
f 140//139 141//140 118//140 
f 114//137 138//137 139//138 
f 113//136 137//136 138//137 
f 112//135 136//135 137//136 
f 111//133 135//133 136//135 
f 122//134 146//145 135//133 
o mesh15
f 123//146 147//146 148//147 
f 123//146 134//148 147//146 
f 148//147 124//147 123//146 
f 149//149 150//150 126//150 
f 126//150 125//149 149//149 
f 124//147 148//147 149//149 
f 127//151 151//151 152//152 
f 152//152 128//152 127//151 
f 126//150 150//150 151//151 
f 152//152 153//153 129//153 
f 129//153 153//153 154//154 
f 130//154 154//154 155//155 
f 131//155 155//155 156//156 
f 156//156 157//157 133//157 
f 133//157 132//156 156//156 
f 156//156 132//156 131//155 
f 155//155 131//155 130//154 
f 154//154 130//154 129//153 
f 129//153 128//152 152//152 
f 127//151 126//150 151//151 
f 125//149 124//147 149//149 
f 123//146 110//158 134//148 
o mesh16
f 158//159 134//159 121//159 
f 121//159 145//159 158//159 
o mesh17
f 159//160 135//160 146//161 
f 160//162 136//162 135//160 
f 161//163 137//163 136//162 
f 162//164 138//164 137//163 
f 163//165 139//165 138//164 
f 164//166 140//166 139//165 
f 139//165 163//165 164//166 
f 165//167 141//167 140//166 
f 142//168 141//167 165//167 
f 165//167 166//168 142//168 
f 167//169 143//169 142//168 
f 144//170 143//169 167//169 
f 167//169 168//170 144//170 
f 169//171 145//171 144//170 
f 168//170 169//171 144//170 
f 166//168 167//169 142//168 
f 164//166 165//167 140//166 
f 138//164 162//164 163//165 
f 137//163 161//163 162//164 
f 136//162 160//162 161//163 
f 135//160 159//160 160//162 
f 146//161 170//172 159//160 
o mesh18
f 171//173 78//173 77//174 
f 80//175 78//173 171//173 
f 82//176 80//175 172//175 
f 173//177 84//177 82//176 
f 86//178 84//177 173//177 
f 174//179 90//179 86//178 
f 174//179 91//180 90//179 
f 86//178 175//181 174//179 
f 94//182 91//180 176//183 
f 176//183 177//182 94//182 
f 178//184 95//184 94//182 
f 179//185 97//185 95//184 
f 95//184 178//184 179//185 
f 64//186 5//186 97//185 
f 179//185 64//186 97//185 
f 177//182 178//184 94//182 
f 174//179 176//183 91//180 
f 173//177 175//181 86//178 
f 82//176 180//187 173//177 
f 172//175 180//187 82//176 
f 171//173 172//175 80//175 
f 77//174 181//188 171//173 
o mesh19
f 64//189 182//189 67//189 
f 67//189 54//189 64//189 
o mesh20
f 183//190 184//191 66//191 
f 66//191 65//190 183//190 
f 67//192 185//192 183//190 
f 68//193 186//193 187//194 
f 187//194 69//194 68//193 
f 66//191 184//191 186//193 
f 188//195 189//196 71//196 
f 70//195 187//194 188//195 
f 71//196 70//195 188//195 
f 71//196 189//196 190//197 
f 190//197 191//198 73//198 
f 191//198 192//199 74//199 
f 74//199 192//199 193//200 
f 75//200 193//200 194//201 
f 194//201 76//201 75//200 
f 193//200 75//200 74//199 
f 74//199 73//198 191//198 
f 73//198 72//202 190//197 
f 190//197 72//202 71//196 
f 70//195 69//194 187//194 
f 68//193 66//191 186//193 
f 65//190 67//192 183//190 
o mesh21
f 8//201 7//201 195//201 
f 76//201 194//201 195//201 
f 195//201 7//201 76//201 
f 122//201 29//201 8//201 
f 146//201 122//201 196//201 
f 8//201 196//201 122//201 
f 63//201 76//201 7//201 
f 195//201 196//201 8//201 
f 196//201 170//201 146//201 
f 7//201 51//201 63//201 
o mesh22
f 170//201 196//201 197//203 
f 159//203 197//203 198//204 
f 160//204 198//204 199//205 
f 200//206 162//206 161//205 
f 162//206 200//206 201//207 
f 202//208 164//209 163//210 
f 202//208 165//211 164//209 
f 163//210 201//207 203//212 
f 204//213 166//214 165//211 
f 204//213 167//213 166//214 
f 165//211 202//208 205//214 
f 206//215 168//216 167//213 
f 206//215 169//215 168//216 
f 167//213 204//213 207//216 
f 167//213 207//216 206//215 
f 165//211 205//214 204//213 
f 163//210 203//212 202//208 
f 201//207 163//210 162//206 
f 161//205 199//205 200//206 
f 199//205 161//205 160//204 
f 198//204 160//204 159//203 
f 197//203 159//203 170//201 
o mesh23
f 208//217 158//217 145//217 
f 145//217 169//217 208//217 
o mesh24
f 209//218 210//219 148//219 
f 148//219 147//218 209//218 
f 134//220 158//220 209//218 
f 211//221 212//222 150//222 
f 150//222 149//221 211//221 
f 148//219 210//219 211//221 
f 213//223 214//224 152//224 
f 152//224 151//223 213//223 
f 150//222 212//222 213//223 
f 152//224 214//224 215//225 
f 153//225 215//225 216//226 
f 154//226 216//226 217//227 
f 217//227 218//228 156//228 
f 156//228 218//228 219//229 
f 219//229 157//229 156//228 
f 156//228 155//230 217//227 
f 217//227 155//230 154//226 
f 216//226 154//226 153//225 
f 215//225 153//225 152//224 
f 151//223 150//222 213//223 
f 149//221 148//219 211//221 
f 147//218 134//220 209//218 
o mesh25
f 220//231 221//232 184//233 
f 184//233 183//232 220//231 
f 183//232 185//234 220//231 
f 222//233 223//235 187//236 
f 187//236 186//235 222//233 
f 186//235 184//233 222//233 
f 224//236 225//237 189//238 
f 189//238 188//237 224//236 
f 188//237 187//236 224//236 
f 190//239 189//238 226//238 
f 227//239 228//240 191//240 
f 228//240 229//241 192//241 
f 193//242 192//241 229//241 
f 194//243 193//242 230//242 
f 230//242 195//243 194//243 
f 229//241 230//242 193//242 
f 192//241 191//240 228//240 
f 191//240 190//239 227//239 
f 226//238 227//239 190//239 
f 225//237 226//238 189//238 
f 223//235 224//236 187//236 
f 221//232 222//233 184//233 
o mesh26
f 185//244 67//244 182//244 
f 182//244 231//244 185//244 
o mesh27
f 232//245 171//245 181//246 
f 172//247 171//245 232//245 
f 233//248 180//248 172//247 
f 173//249 180//248 233//248 
f 234//250 175//250 173//249 
f 235//251 174//251 175//250 
f 175//250 234//250 235//251 
f 236//252 176//252 174//251 
f 177//253 176//252 236//252 
f 236//252 237//253 177//253 
f 238//254 178//254 177//253 
f 239//255 179//255 178//254 
f 239//255 64//256 179//255 
f 178//254 238//254 239//255 
f 239//255 182//256 64//256 
f 237//253 238//254 177//253 
f 235//251 236//252 174//251 
f 173//249 240//257 234//250 
f 233//248 240//257 173//249 
f 172//247 241//258 233//248 
f 232//245 241//258 172//247 
f 181//246 242//259 232//245 
o mesh28
f 196//260 195//260 230//261 
f 197//261 230//261 229//262 
f 198//262 229//262 228//263 
f 228//263 227//264 200//264 
f 200//264 227//264 226//265 
f 203//266 226//265 225//266 
f 225//266 202//267 203//266 
f 225//266 224//267 202//267 
f 205//268 224//267 223//268 
f 223//268 204//269 205//268 
f 223//268 222//269 204//269 
f 207//270 222//269 221//270 
f 221//270 206//271 207//270 
f 207//270 204//269 222//269 
f 221//270 220//271 206//271 
f 205//268 202//267 224//267 
f 203//266 201//272 226//265 
f 226//265 201//272 200//264 
f 200//264 199//273 228//263 
f 228//263 199//273 198//262 
f 229//262 198//262 197//261 
f 230//261 197//261 196//260 
o mesh29
f 243//274 244//274 206//274 
f 206//274 220//274 243//274 
o mesh30
f 244//275 208//275 169//275 
f 169//275 206//275 244//275 
o mesh31
f 209//276 245//276 246//277 
f 209//276 208//278 245//276 
f 246//277 210//277 209//276 
f 247//279 248//280 212//280 
f 212//280 211//279 247//279 
f 210//277 246//277 247//279 
f 249//281 250//282 214//282 
f 214//282 213//281 249//281 
f 212//280 248//280 249//281 
f 214//282 250//282 251//283 
f 215//283 251//283 252//284 
f 216//284 252//284 253//285 
f 217//285 253//285 254//286 
f 218//286 254//286 255//287 
f 255//287 219//287 218//286 
f 254//286 218//286 217//285 
f 253//285 217//285 216//284 
f 252//284 216//284 215//283 
f 251//283 215//283 214//282 
f 213//281 212//280 249//281 
f 211//279 210//277 247//279 
f 209//276 158//288 208//278 
o mesh32
f 244//289 256//290 246//291 
f 246//291 245//290 244//289 
f 245//290 208//292 244//289 
f 257//291 258//293 248//294 
f 248//294 247//293 257//291 
f 247//293 246//291 257//291 
f 259//294 260//295 250//296 
f 250//296 249//295 259//294 
f 249//295 248//294 259//294 
f 251//297 250//296 261//296 
f 262//297 263//298 252//298 
f 263//298 264//299 253//299 
f 264//299 265//300 254//300 
f 265//300 266//301 255//301 
f 255//301 254//300 265//300 
f 254//300 253//299 264//299 
f 253//299 252//298 263//298 
f 252//298 251//297 262//297 
f 261//296 262//297 251//297 
f 260//295 261//296 250//296 
f 258//293 259//294 248//294 
f 256//290 257//291 246//291 
o mesh33
f 242//301 98//301 267//301 
f 266//301 267//301 98//301 
f 98//301 106//301 266//301 
f 219//301 255//301 266//301 
f 157//301 219//301 106//301 
f 266//301 106//301 219//301 
f 267//301 268//301 242//301 
f 181//301 77//301 98//301 
f 98//301 242//301 181//301 
f 106//301 133//301 157//301 
o mesh34
f 231//302 243//302 220//302 
f 220//302 185//302 231//302 
o mesh35
f 269//303 232//303 242//304 
f 241//305 232//303 269//303 
f 233//306 241//305 270//305 
f 240//307 233//306 271//306 
f 234//308 240//307 272//307 
f 273//309 235//309 234//308 
f 234//308 274//308 273//309 
f 275//310 236//310 235//309 
f 237//311 236//310 275//310 
f 275//310 276//311 237//311 
f 277//312 238//312 237//311 
f 278//313 239//313 238//312 
f 278//313 182//314 239//313 
f 238//312 277//312 278//313 
f 278//313 231//314 182//314 
f 276//311 277//312 237//311 
f 273//309 275//310 235//309 
f 272//307 274//308 234//308 
f 271//306 272//307 240//307 
f 270//305 271//306 233//306 
f 269//303 270//305 241//305 
f 242//304 268//315 269//303 
o mesh36
f 268//315 267//315 279//316 
f 280//317 270//317 269//316 
f 270//317 280//317 281//318 
f 282//319 272//319 271//318 
f 272//319 282//319 283//320 
f 284//321 273//322 274//323 
f 284//321 275//324 273//322 
f 274//323 283//320 285//325 
f 286//326 276//327 275//324 
f 286//326 277//326 276//327 
f 275//324 284//321 287//327 
f 243//328 278//329 277//326 
f 243//328 231//328 278//329 
f 277//326 286//326 288//329 
f 277//326 288//329 243//328 
f 275//324 287//327 286//326 
f 274//323 285//325 284//321 
f 283//320 274//323 272//319 
f 271//318 281//318 282//319 
f 281//318 271//318 270//317 
f 269//316 279//316 280//317 
f 279//316 269//316 268//315 
o mesh37
f 288//330 257//331 256//330 
f 256//330 243//332 288//330 
f 256//330 244//332 243//332 
f 287//333 259//334 258//333 
f 258//333 286//335 287//333 
f 287//333 284//334 259//334 
f 285//336 261//337 260//336 
f 260//336 284//334 285//336 
f 285//336 283//337 261//337 
f 262//338 261//337 283//337 
f 281//339 263//339 262//338 
f 280//340 264//340 263//339 
f 279//341 265//341 264//340 
f 266//342 265//341 279//341 
f 279//341 267//342 266//342 
f 264//340 280//340 279//341 
f 263//339 281//339 280//340 
f 262//338 282//343 281//339 
f 283//337 282//343 262//338 
f 260//336 259//334 284//334 
f 258//333 257//331 286//335 
f 288//330 286//335 257//331 
