# https://github.com/mikedh/trimesh
v -0.04383607 -0.04597593 0.00000000
v -0.04491865 -0.07285532 0.00000000
v -0.04383607 -0.04886375 0.00000000
v -0.06375839 -0.05359199 0.00000000
v -0.08859720 -0.09651270 0.00000000
v -0.05980550 -0.04676151 0.00000000
v -0.07450276 -0.08887880 0.00000000
v -0.08385318 -0.08831517 0.00000000
v -0.08585266 -0.09502619 0.00000000
v -0.08708156 -0.09389371 0.00000000
v -0.07219159 -0.06816431 0.00000000
v -0.04836079 -0.07471967 0.00000000
f 1 2 3
f 5 2 1
f 6 3 4
f 4 5 1
f 4 6 4
f 7 4 3
f 1 6 1
f 1 1 3
f 1 3 6
f 8 5 4
f 6 4 1
f 6 1 6
f 6 6 4
f 2 7 3
f 2 3 2
f 9 2 5
f 10 4 7
f 11 8 4
f 11 4 4
f 12 2 2
f 12 7 2
f 9 9 5
f 9 7 9
f 9 10 7
f 11 4 10
f 11 11 4
f 11 8 11
f 10 10 5
f 10 5 8
f 10 8 10
f 12 7 12
f 12 12 2
f 12 2 9
f 5 9 5
f 5 5 10
f 5 10 9
f 8 11 10
f 8 10 8
f 8 8 11
f 7 12 9
f 7 9 7
f 7 7 12

