# OBJ generated by ONSHAPE BY PTC INC, 1.200 Units = meters
mtllib Q - Part 1.mtl
g Part 1
v 0.0100909 0.0754352 0.0508 
v 0.0100909 0.0754352 0 
v 0.00363181 0.0762 0 
v 0.0162174 0.0740543 0.0508 
v 0.0162174 0.0740543 0 
v 0.0218717 0.0721219 0.0508 
v 0.0218717 0.0721219 0 
v 0.0270256 0.0697186 0.0508 
v 0.0270256 0.0697186 0 
v 0.0307082 0.067568 0.0508 
v 0.0307082 0.067568 0 
v 0.00363181 0.0762 0.0508 
v -0.00606379 0.0762 0 
v -0.00606379 0.0762 0.0508 
v -0.0279062 0.070345 0.0508 
v -0.0279062 0.070345 0 
v -0.0328579 0.0675184 0 
v -0.0227214 0.0726246 0.0508 
v -0.0227214 0.0726246 0 
v -0.0173402 0.0743517 0.0508 
v -0.0173402 0.0743517 0 
v -0.0116449 0.0755602 0.0508 
v -0.0116449 0.0755602 0 
v -0.0328579 0.0675184 0.0508 
v -0.0511052 0.048065 0.0508 
v -0.0511052 0.048065 0 
v -0.05419 0.0420357 0 
v -0.047587 0.053512 0.0508 
v -0.047587 0.053512 0 
v -0.0437042 0.0583139 0.0508 
v -0.0437042 0.0583139 0 
v -0.0395859 0.0624101 0.0508 
v -0.0395859 0.0624101 0 
v -0.0352366 0.0659011 0.0508 
v -0.0352366 0.0659011 0 
v -0.05419 0.0420357 0.0508 
v -0.0614104 0.0124309 0.0508 
v -0.0614104 0.0124309 -6.93889e-18 
v -0.0617306 0.00370417 0 
v -0.0604556 0.0206912 0 
v -0.0589079 0.0283582 0.0508 
v -0.0589079 0.0283582 0 
v -0.0568005 0.0354815 0.0508 
v -0.0568005 0.0354815 0 
v -0.0604556 0.0206912 0.0508 
v -0.0617306 0.00370417 0.0508 
v -0.0617306 -0.00714375 0 
v -0.0617306 -0.00714375 0.0508 
v -0.0565828 -0.0382195 0.0508 
v -0.0565828 -0.0382195 0 
v -0.0539419 -0.0446154 0 
v -0.0586829 -0.0314327 0.0508 
v -0.0586829 -0.0314327 0 
v -0.0602521 -0.0241765 0.0508 
v -0.0602521 -0.0241765 0 
v -0.0612728 -0.0164063 0.0508 
v -0.0612728 -0.0164063 0 
v -0.0617137 -0.00833376 0.0508 
v -0.0617137 -0.00833376 0 
v -0.0539419 -0.0446154 0.0508 
v -0.0372201 -0.0662465 0.0508 
v -0.0372201 -0.0662465 0 
v -0.0325934 -0.0695358 0 
v -0.0414627 -0.0625086 0.0508 
v -0.0414627 -0.0625086 0 
v -0.045311 -0.0583384 0.0508 
v -0.045311 -0.0583384 0 
v -0.0488411 -0.0536382 0.0508 
v -0.0488411 -0.0536382 0 
v -0.0520973 -0.0482688 0.0508 
v -0.0520973 -0.0482688 0 
v -0.0325934 -0.0695358 0.0508 
v -0.0229247 -0.0744157 6.93889e-18 
v -0.0174571 -0.0762 0 
v -0.0174571 -0.0762 0.0508 
v -0.0281262 -0.0720918 0.0508 
v -0.0281262 -0.0720918 0 
v -0.0229247 -0.0744157 0.0508 
v -0.00772975 -0.0779628 0.0508 
v -0.00772975 -0.0779628 0 
v -0.00107487 -0.0782836 0 
v -0.014067 -0.0770056 0.0508 
v -0.014067 -0.0770056 -6.93889e-18 
v -0.00107487 -0.0782836 0.0508 
v 0.0086116 -0.0775958 0.0508 
v 0.0086116 -0.0775958 0 
v 0.0146348 -0.0763984 0 
v 0.00226526 -0.0782051 0.0508 
v 0.00226526 -0.0782051 0 
v 0.0146348 -0.0763984 0.0508 
v 0.0463517 -0.101633 0 
v 0.0463517 -0.101633 0.0508 
v 0.0599116 -0.0891315 0 
v 0.0599116 -0.0891315 0.0508 
v 0.0330233 -0.068031 0 
v 0.0330233 -0.068031 0.0508 
v 0.0494298 -0.0494569 0.0508 
v 0.0494298 -0.0494569 0 
v 0.0524536 -0.0433751 0 
v 0.0459679 -0.054957 0.0508 
v 0.0459679 -0.054957 0 
v 0.0421373 -0.0598107 0.0508 
v 0.0421373 -0.0598107 0 
v 0.0380629 -0.0639601 0.0508 
v 0.0380629 -0.0639601 0 
v 0.0340435 -0.0672866 0.0508 
v 0.0340435 -0.0672866 0 
v 0.0524536 -0.0433751 0.0508 
v 0.0590634 -0.0148968 0.0508 
v 0.0590634 -0.0148968 -6.93889e-18 
v 0.0593824 -0.00582083 0 
v 0.0581134 -0.02337 0 
v 0.056586 -0.0310771 0.0508 
v 0.056586 -0.0310771 0 
v 0.0545261 -0.0380837 0.0508 
v 0.0545261 -0.0380837 0 
v 0.0581134 -0.02337 0.0508 
v 0.0593824 -0.00582083 0.0508 
v 0.0593824 0.00380339 0 
v 0.0593824 0.00380339 0.0508 
v 0.0545016 0.0358156 0.0508 
v 0.0545016 0.0358156 0 
v 0.051941 0.0422837 0 
v 0.0565284 0.0289326 0.0508 
v 0.0565284 0.0289326 0 
v 0.0580321 0.0215419 0.0508 
v 0.0580321 0.0215419 0 
v 0.0589915 0.0135958 0.0508 
v 0.0589915 0.0135958 0 
v 0.0593738 0.0052937 0.0508 
v 0.0593738 0.0052937 0 
v 0.051941 0.0422837 0.0508 
v 0.0352115 0.0643564 0.0508 
v 0.0352115 0.0643564 0 
v 0.0393428 0.0607061 0.0508 
v 0.0393428 0.0607061 0 
v 0.0430946 0.0566297 0.0508 
v 0.0430946 0.0566297 0 
v 0.0465399 0.0520306 0.0508 
v 0.0465399 0.0520306 0 
v 0.0497211 0.0467713 0.0508 
v 0.0497211 0.0467713 0 
v -0.0415691 -0.0143601 0.0508 
v -0.0418868 -0.00582083 0.0508 
v -0.0418868 0.00525859 0.0508 
v -0.0415419 0.0128709 0.0508 
v -0.0392649 0.0267741 0.0508 
v -0.0375401 0.0323349 0.0508 
v -0.0406507 0.0202018 0.0508 
v -0.0406248 -0.0222023 0.0508 
v -0.00127331 0.0592997 0.0508 
v 0.000257929 0.0592774 0.0508 
v -0.0391198 -0.0291665 0.0508 
v -0.00107487 -0.0614164 0.0508 
v -0.00240629 -0.0613983 0.0508 
v 0.0395387 -0.00727604 0.0508 
v 0.0395387 0.0039026 0.0508 
v 0.00469368 0.0589416 0.0508 
v -0.00601712 0.0590566 0.0508 
v -0.0355525 0.0370871 0.0508 
v -0.0326877 -0.0441763 0.0508 
v -0.0350077 -0.0400797 0.0508 
v -0.0310885 -0.0465336 0.0508 
v 0.0381912 -0.0234059 0.0508 
v 0.0367816 -0.0299848 0.0508 
v 0.0391253 -0.0159942 0.0508 
v 0.0306371 0.042406 0.0508 
v 0.0328033 0.0385509 0.0508 
v 0.0289553 0.0448799 0.0508 
v 0.00860429 0.0582644 0.0508 
v -0.0333283 0.0412227 0.0508 
v -0.0284117 -0.0498512 0.0508 
v 0.00400241 -0.0611562 0.0508 
v 0.0392216 0.0127325 0.0508 
v 0.0264337 0.0479702 0.0508 
v 0.0121225 0.0572932 0.0508 
v -0.00984633 0.0584659 0.0508 
v -0.0132777 0.0575857 0.0508 
v -0.0307909 0.0449792 0.0508 
v -0.0371099 -0.0353379 0.0508 
v -0.00662419 -0.0610848 0.0508 
v 0.0283653 -0.0478361 0.0508 
v 0.0259586 -0.0506497 0.0508 
v 0.0350818 -0.0354202 0.0508 
v 0.0367867 0.0278315 0.0508 
v -0.0254332 0.0507841 0.0508 
v -0.0227195 0.0529297 0.0508 
v -0.0280322 0.0482666 0.0508 
v -0.0258818 -0.0524058 0.0508 
v -0.0103962 -0.0604333 0.0508 
v 0.0115418 -0.0596309 0.0508 
v 0.00800745 -0.0605377 0.0508 
v 0.0286908 -0.04741 0.0508 
v 0.0310668 -0.0438878 0.0508 
v 0.0331664 -0.0399844 0.0508 
v 0.03828 0.0207761 0.0508 
v 0.0240037 0.0503976 0.0508 
v 0.0153492 0.0560445 0.0508 
v -0.0198388 0.0547615 0.0508 
v -0.0138378 -0.0594814 0.0508 
v 0.0147241 -0.0584719 0.0508 
v 0.0234462 -0.0530543 0.0508 
v 0.0348043 0.0339981 0.0508 
v 0.0212335 0.052647 0.0508 
v -0.01672 0.0563126 0.0508 
v 0.0183643 0.0545082 0.0508 
v -0.023007 -0.0547634 0.0508 
v 0.0178949 -0.0569327 0.0508 
v 0.0207779 -0.0551332 0.0508 
v -0.0170392 -0.0582371 0.0508 
v -0.0200744 -0.056681 0.0508 
v 0.0392216 0.0127325 0 
v 0.0395387 0.0039026 0 
v 0.0395387 -0.00727604 0 
v 0.0391253 -0.0159942 0 
v 0.0381912 -0.0234059 0 
v 0.03828 0.0207761 0 
v 0.0367816 -0.0299848 0 
v 0.0367867 0.0278315 0 
v 0.0350818 -0.0354202 0 
v -0.00240629 -0.0613983 0 
v 0.000257929 0.0592774 0 
v -0.00127331 0.0592997 0 
v 0.0259586 -0.0506497 0 
v -0.00662419 -0.0610848 0 
v 0.00469368 0.0589416 0 
v 0.0306371 0.042406 0 
v 0.0289553 0.0448799 0 
v 0.0328033 0.0385509 0 
v 0.0331664 -0.0399844 0 
v 0.0286908 -0.04741 0 
v 0.0283653 -0.0478361 0 
v -0.00107487 -0.0614164 0 
v -0.0415419 0.0128709 0 
v -0.0418868 0.00525859 0 
v -0.0406507 0.0202018 0 
v 0.00860429 0.0582644 0 
v 0.0264337 0.0479702 0 
v 0.0310668 -0.0438878 0 
v 0.0234462 -0.0530543 0 
v -0.0103962 -0.0604333 0 
v -0.0392649 0.0267741 0 
v -0.0375401 0.0323349 0 
v 0.0121225 0.0572932 0 
v 0.0348043 0.0339981 0 
v 0.00400241 -0.0611562 0 
v 0.00800745 -0.0605377 0 
v -0.0138378 -0.0594814 0 
v -0.00984633 0.0584659 6.93889e-18 
v -0.00601712 0.0590566 0 
v 0.0153492 0.0560445 0 
v 0.0240037 0.0503976 0 
v 0.0115418 -0.0596309 0 
v -0.0170392 -0.0582371 0 
v -0.0415691 -0.0143601 0 
v -0.0355525 0.0370871 0 
v -0.0254332 0.0507841 0 
v -0.0227195 0.0529297 0 
v 0.0212335 0.052647 0 
v 0.0207779 -0.0551332 0 
v -0.0326877 -0.0441763 0 
v -0.0310885 -0.0465336 0 
v -0.0350077 -0.0400797 0 
v -0.0418868 -0.00582083 0 
v -0.0333283 0.0412227 0 
v -0.0198388 0.0547615 0 
v 0.0183643 0.0545082 0 
v 0.0147241 -0.0584719 0 
v -0.0284117 -0.0498512 0 
v -0.0406248 -0.0222023 0 
v -0.0307909 0.0449792 0 
v -0.0280322 0.0482666 0 
v -0.0132777 0.0575857 0 
v -0.0200744 -0.056681 0 
v -0.0391198 -0.0291665 0 
v -0.0371099 -0.0353379 0 
v 0.0178949 -0.0569327 0 
v -0.023007 -0.0547634 0 
v -0.0258818 -0.0524058 0 
v -0.01672 0.0563126 0 
vn 0.168245 0.985745 0 
vn 0.0684206 0.997657 0 
vn 0.272261 0.962223 0 
vn 0.374341 0.927291 0 
vn 0.469853 0.882745 0 
vn 0.537791 0.843078 0 
vn 0.0684206 0.997657 0 
vn 0 1 0 
vn -0.44978 0.893139 0 
vn -0.539941 0.841703 0 
vn -0.354151 0.935188 0 
vn -0.256811 0.966462 0 
vn -0.158874 0.987299 0 
vn -0.0699621 0.99755 0 
vn -0.539941 0.841703 0 
vn -0.866665 0.498891 0 
vn -0.9108 0.412848 0 
vn -0.810101 0.58629 0 
vn -0.742013 0.670386 0 
vn -0.665943 0.746003 0 
vn -0.584246 0.811577 0 
vn -0.539941 0.841703 0 
vn -0.9108 0.412848 0 
vn -0.997182 0.0750246 0 
vn -1 0 0 
vn -0.987735 0.156138 0 
vn -0.970588 0.240747 0 
vn -0.94493 0.327274 0 
vn -0.9108 0.412848 0 
vn -0.987735 0.156138 0 
vn -1 0 0 
vn -0.940967 -0.338499 0 
vn -0.905259 -0.424861 0 
vn -0.967385 -0.253312 0 
vn -0.985357 -0.170502 0 
vn -0.995813 -0.0914175 0 
vn -0.999816 -0.0191706 0 
vn -0.999957 -0.00931637 0 
vn -0.905259 -0.424861 0 
vn -0.621075 -0.783751 0 
vn -0.536547 -0.84387 0 
vn -0.699159 -0.714966 0 
vn -0.768262 -0.640135 0 
vn -0.828224 -0.560397 0 
vn -0.878991 -0.476838 0 
vn -0.905259 -0.424861 0 
vn -0.536547 -0.84387 0 
vn -0.359491 -0.933149 0 
vn -0.260744 -0.965408 0 
vn -0.455262 -0.890357 0 
vn -0.536547 -0.84387 0 
vn -0.359491 -0.933149 0 
vn -0.0980938 -0.995177 0 
vn 0 -1 0 
vn -0.201771 -0.979433 0 
vn -0.260744 -0.965408 0 
vn 0 -1 0 
vn 0.145017 -0.989429 0 
vn 0.245576 -0.969377 0 
vn 0.0474433 -0.998874 0 
vn 0 -1 0 
vn 0.245576 -0.969377 0 
vn -0.622603 -0.782538 0 
vn 0.677833 -0.735216 0 
vn 0.617351 0.786688 0 
vn 0.872403 -0.488788 0 
vn 0.915428 -0.402481 0 
vn 0.816955 -0.576701 0 
vn 0.749905 -0.661545 0 
vn 0.674629 -0.738157 0 
vn 0.598962 -0.800778 0 
vn 0.57981 -0.814752 0 
vn 0.915428 -0.402481 0 
vn 0.99738 -0.0723386 0 
vn 1 0 0 
vn 0.988298 -0.152535 0 
vn 0.971256 -0.238035 0 
vn 0.944891 -0.327385 0 
vn 0.915428 -0.402481 0 
vn 0.988298 -0.152535 0 
vn 1 0 0 
vn 0.945697 0.325049 0 
vn 0.911459 0.411391 0 
vn 0.9706 0.2407 0 
vn 0.987234 0.159278 0 
vn 0.996633 0.0819922 0 
vn 0.999933 0.0116106 0 
vn 1 0 0 
vn 0.911459 0.411391 0 
vn 0.622212 0.782849 0 
vn 0.537791 0.843078 0 
vn 0.700129 0.714017 0 
vn 0.769073 0.639161 0 
vn 0.828887 0.559416 0 
vn 0.879516 0.47587 0 
vn 0.911459 0.411391 0 
vn 0.537791 0.843078 0 
vn 0 0 1 
vn 0 0 -1 
vn -0.997207 -0.0746926 0 
vn -1 0 0 
vn -0.986953 -0.161011 0 
vn -0.966644 -0.256124 0 
vn -0.933576 -0.35838 0 
vn -0.894308 -0.447452 0 
vn -0.846395 -0.532556 0 
vn -0.80617 -0.591684 0 
vn -1 0 0 
vn -0.856237 0.516583 0 
vn -0.798753 0.601658 0 
vn -0.902186 0.431348 0 
vn -0.939035 0.343821 0 
vn -0.966916 0.255094 0 
vn -0.986028 0.16658 0 
vn -0.996272 0.0862725 0 
vn -0.999935 0.0113917 0 
vn -0.798753 0.601658 0 
vn -0.105273 0.994443 0 
vn 0 1 0 
vn -0.201597 0.979468 0 
vn -0.296267 0.955105 0 
vn -0.388269 0.921546 0 
vn -0.484387 0.874854 0 
vn -0.573171 0.819436 0 
vn -0.653948 0.756539 0 
vn -0.726415 0.687257 0 
vn -0.790568 0.612374 0 
vn -0.798753 0.601658 0 
vn 0 1 0 
vn 0.743634 0.668586 0 
vn 0.809397 0.587262 0 
vn 0.674767 0.738031 0 
vn 0.590836 0.806792 0 
vn 0.501888 0.864933 0 
vn 0.409496 0.912312 0 
vn 0.3148 0.949158 0 
vn 0.218882 0.975751 0 
vn 0.122774 0.992435 0 
vn 0.0274497 0.999623 0 
vn 0 1 0 
vn 0.809397 0.587262 0 
vn 0.997023 0.0771017 0 
vn 1 0 0 
vn 0.986319 0.164849 0 
vn 0.965568 0.26015 0 
vn 0.932535 0.361078 0 
vn 0.892905 0.450244 0 
vn 0.84465 0.535319 0 
vn 0.809397 0.587262 0 
vn 1 0 0 
vn 0.85603 -0.516925 0 
vn 0.798448 -0.602063 0 
vn 0.902518 -0.430651 0 
vn 0.939685 -0.34204 0 
vn 0.967686 -0.25216 0 
vn 0.986647 -0.16287 0 
vn 0.996708 -0.0810721 0 
vn 0.999931 -0.0117179 0 
vn 0.798448 -0.602063 0 
vn 0.104918 -0.994481 0 
vn 0 -1 0 
vn 0.201387 -0.979512 0 
vn 0.296153 -0.95514 0 
vn 0.397426 -0.917634 0 
vn 0.492125 -0.870525 0 
vn 0.579375 -0.815061 0 
vn 0.658786 -0.752331 0 
vn 0.730045 -0.683399 0 
vn 0.798448 -0.602063 0 
vn 0.201387 -0.979512 0 
vn 0 -1 0 
vn -0.740137 -0.672456 0 
vn -0.80617 -0.591684 0 
vn -0.670838 -0.741604 0 
vn -0.587523 -0.809207 0 
vn -0.499363 -0.866393 0 
vn -0.407812 -0.913066 0 
vn -0.313992 -0.949426 0 
vn -0.218976 -0.97573 0 
vn -0.123786 -0.992309 0 
vn -0.0293883 -0.999568 0 
vn 0 -1 0 
vn -0.80617 -0.591684 0 
usemtl 0.615686_0.811765_0.929412_0.000000_0.000000
o mesh0
f 1//1 2//1 3//2 
f 4//3 5//3 2//1 
f 6//4 7//4 5//3 
f 8//5 9//5 7//4 
f 10//6 11//6 9//5 
f 9//5 8//5 10//6 
f 7//4 6//4 8//5 
f 5//3 4//3 6//4 
f 2//1 1//1 4//3 
f 3//2 12//7 1//1 
o mesh1
f 12//8 3//8 13//8 
f 13//8 14//8 12//8 
o mesh2
f 15//9 16//9 17//10 
f 18//11 19//11 16//9 
f 20//12 21//12 19//11 
f 22//13 23//13 21//12 
f 14//14 13//14 23//13 
f 23//13 22//13 14//14 
f 21//12 20//12 22//13 
f 19//11 18//11 20//12 
f 16//9 15//9 18//11 
f 17//10 24//15 15//9 
o mesh3
f 25//16 26//16 27//17 
f 28//18 29//18 26//16 
f 30//19 31//19 29//18 
f 32//20 33//20 31//19 
f 34//21 35//21 33//20 
f 24//22 17//22 35//21 
f 35//21 34//21 24//22 
f 33//20 32//20 34//21 
f 31//19 30//19 32//20 
f 29//18 28//18 30//19 
f 26//16 25//16 28//18 
f 27//17 36//23 25//16 
o mesh4
f 37//24 38//24 39//25 
f 40//26 38//24 37//24 
f 41//27 42//27 40//26 
f 43//28 44//28 42//27 
f 36//29 27//29 44//28 
f 44//28 43//28 36//29 
f 42//27 41//27 43//28 
f 40//26 45//30 41//27 
f 37//24 45//30 40//26 
f 39//25 46//31 37//24 
o mesh5
f 46//31 39//31 47//31 
f 47//31 48//31 46//31 
o mesh6
f 49//32 50//32 51//33 
f 52//34 53//34 50//32 
f 54//35 55//35 53//34 
f 56//36 57//36 55//35 
f 58//37 59//37 57//36 
f 48//38 47//38 59//37 
f 59//37 58//37 48//38 
f 57//36 56//36 58//37 
f 55//35 54//35 56//36 
f 53//34 52//34 54//35 
f 50//32 49//32 52//34 
f 51//33 60//39 49//32 
o mesh7
f 61//40 62//40 63//41 
f 64//42 65//42 62//40 
f 66//43 67//43 65//42 
f 68//44 69//44 67//43 
f 70//45 71//45 69//44 
f 60//46 51//46 71//45 
f 71//45 70//45 60//46 
f 69//44 68//44 70//45 
f 67//43 66//43 68//44 
f 65//42 64//42 66//43 
f 62//40 61//40 64//42 
f 63//41 72//47 61//40 
o mesh8
f 73//48 74//49 75//49 
f 76//50 77//50 73//48 
f 72//51 63//51 77//50 
f 77//50 76//50 72//51 
f 73//48 78//52 76//50 
f 75//49 78//52 73//48 
o mesh9
f 79//53 80//53 81//54 
f 82//55 83//55 80//53 
f 74//56 83//55 82//55 
f 82//55 75//56 74//56 
f 80//53 79//53 82//55 
f 81//54 84//57 79//53 
o mesh10
f 85//58 86//58 87//59 
f 88//60 89//60 86//58 
f 84//61 81//61 89//60 
f 89//60 88//60 84//61 
f 86//58 85//58 88//60 
f 87//59 90//62 85//58 
o mesh11
f 90//63 87//63 91//63 
f 91//63 92//63 90//63 
o mesh12
f 92//64 91//64 93//64 
f 93//64 94//64 92//64 
o mesh13
f 94//65 93//65 95//65 
f 95//65 96//65 94//65 
o mesh14
f 97//66 98//66 99//67 
f 100//68 101//68 98//66 
f 102//69 103//69 101//68 
f 104//70 105//70 103//69 
f 106//71 107//71 105//70 
f 96//72 95//72 107//71 
f 107//71 106//71 96//72 
f 105//70 104//70 106//71 
f 103//69 102//69 104//70 
f 101//68 100//68 102//69 
f 98//66 97//66 100//68 
f 99//67 108//73 97//66 
o mesh15
f 109//74 110//74 111//75 
f 112//76 110//74 109//74 
f 113//77 114//77 112//76 
f 115//78 116//78 114//77 
f 108//79 99//79 116//78 
f 116//78 115//78 108//79 
f 114//77 113//77 115//78 
f 112//76 117//80 113//77 
f 109//74 117//80 112//76 
f 111//75 118//81 109//74 
o mesh16
f 118//81 111//81 119//81 
f 119//81 120//81 118//81 
o mesh17
f 121//82 122//82 123//83 
f 124//84 125//84 122//82 
f 126//85 127//85 125//84 
f 128//86 129//86 127//85 
f 130//87 131//87 129//86 
f 120//88 119//88 131//87 
f 131//87 130//87 120//88 
f 129//86 128//86 130//87 
f 127//85 126//85 128//86 
f 125//84 124//84 126//85 
f 122//82 121//82 124//84 
f 123//83 132//89 121//82 
o mesh18
f 133//90 134//90 11//91 
f 135//92 136//92 134//90 
f 137//93 138//93 136//92 
f 139//94 140//94 138//93 
f 141//95 142//95 140//94 
f 132//96 123//96 142//95 
f 142//95 141//95 132//96 
f 140//94 139//94 141//95 
f 138//93 137//93 139//94 
f 136//92 135//92 137//93 
f 134//90 133//90 135//92 
f 11//91 10//97 133//90 
o mesh19
f 143//98 144//98 58//98 
f 144//98 145//98 46//98 
f 144//98 48//98 58//98 
f 37//98 46//98 145//98 
f 58//98 56//98 143//98 
f 45//98 37//98 146//98 
f 46//98 48//98 144//98 
f 145//98 146//98 37//98 
f 143//98 56//98 54//98 
f 43//98 147//98 148//98 
f 41//98 45//98 149//98 
f 54//98 150//98 143//98 
f 12//98 14//98 151//98 
f 148//98 36//98 43//98 
f 146//98 149//98 45//98 
f 151//98 152//98 12//98 
f 149//98 147//98 41//98 
f 52//98 153//98 150//98 
f 96//98 154//98 155//98 
f 109//98 118//98 156//98 
f 157//98 156//98 118//98 
f 1//98 12//98 158//98 
f 14//98 159//98 151//98 
f 36//98 148//98 160//98 
f 150//98 54//98 52//98 
f 68//98 161//98 162//98 
f 68//98 66//98 163//98 
f 155//98 61//98 96//98 
f 113//98 164//98 165//98 
f 117//98 109//98 166//98 
f 118//98 120//98 157//98 
f 139//98 167//98 168//98 
f 139//98 137//98 169//98 
f 4//98 1//98 170//98 
f 152//98 158//98 12//98 
f 25//98 160//98 171//98 
f 43//98 41//98 147//98 
f 163//98 161//98 68//98 
f 66//98 64//98 172//98 
f 96//98 173//98 154//98 
f 165//98 115//98 113//98 
f 156//98 166//98 109//98 
f 174//98 157//98 130//98 
f 169//98 167//98 139//98 
f 137//98 135//98 175//98 
f 6//98 4//98 176//98 
f 158//98 170//98 1//98 
f 22//98 177//98 159//98 
f 20//98 178//98 177//98 
f 28//98 171//98 179//98 
f 160//98 25//98 36//98 
f 49//98 60//98 180//98 
f 162//98 180//98 60//98 
f 172//98 163//98 66//98 
f 155//98 181//98 61//98 
f 102//98 182//98 183//98 
f 115//98 165//98 184//98 
f 166//98 164//98 117//98 
f 157//98 120//98 130//98 
f 174//98 128//98 126//98 
f 124//98 121//98 185//98 
f 132//98 141//98 168//98 
f 175//98 169//98 137//98 
f 170//98 176//98 4//98 
f 177//98 22//98 20//98 
f 34//98 186//98 187//98 
f 32//98 188//98 186//98 
f 171//98 28//98 25//98 
f 153//98 52//98 49//98 
f 162//98 70//98 68//98 
f 64//98 61//98 189//98 
f 181//98 190//98 61//98 
f 96//98 191//98 192//98 
f 102//98 193//98 182//98 
f 100//98 194//98 193//98 
f 108//98 184//98 195//98 
f 113//98 117//98 164//98 
f 126//98 196//98 174//98 
f 196//98 126//98 124//98 
f 168//98 141//98 139//98 
f 135//98 133//98 197//98 
f 8//98 6//98 198//98 
f 159//98 14//98 22//98 
f 24//98 187//98 199//98 
f 186//98 34//98 32//98 
f 180//98 153//98 49//98 
f 189//98 172//98 64//98 
f 190//98 200//98 61//98 
f 96//98 201//98 191//98 
f 104//98 183//98 202//98 
f 193//98 102//98 100//98 
f 97//98 195//98 194//98 
f 184//98 108//98 115//98 
f 185//98 196//98 124//98 
f 121//98 132//98 203//98 
f 197//98 175//98 135//98 
f 133//98 10//98 204//98 
f 176//98 198//98 6//98 
f 18//98 205//98 178//98 
f 187//98 24//98 34//98 
f 30//98 179//98 188//98 
f 60//98 70//98 162//98 
f 192//98 173//98 96//98 
f 183//98 104//98 102//98 
f 195//98 97//98 108//98 
f 203//98 185//98 121//98 
f 204//98 197//98 133//98 
f 10//98 8//98 206//98 
f 178//98 20//98 18//98 
f 188//98 32//98 30//98 
f 61//98 207//98 189//98 
f 96//98 208//98 201//98 
f 202//98 209//98 96//98 
f 194//98 100//98 97//98 
f 61//98 85//98 90//98 
f 61//98 82//98 79//98 
f 75//98 72//98 76//98 
f 168//98 203//98 132//98 
f 198//98 206//98 8//98 
f 15//98 199//98 205//98 
f 179//98 30//98 28//98 
f 200//98 210//98 61//98 
f 202//98 106//98 104//98 
f 61//98 88//98 85//98 
f 61//98 75//98 82//98 
f 75//98 61//98 72//98 
f 206//98 204//98 10//98 
f 199//98 15//98 24//98 
f 210//98 211//98 61//98 
f 96//98 106//98 202//98 
f 61//98 84//98 88//98 
f 76//98 78//98 75//98 
f 205//98 18//98 15//98 
f 209//98 208//98 96//98 
f 92//98 94//98 96//98 
f 79//98 84//98 61//98 
f 211//98 207//98 61//98 
f 90//98 96//98 61//98 
f 96//98 90//98 92//98 
f 130//98 128//98 174//98 
o mesh20
f 212//99 129//99 131//99 
f 131//99 213//99 212//99 
f 213//99 119//99 111//99 
f 111//99 214//99 213//99 
f 110//99 215//99 214//99 
f 214//99 111//99 110//99 
f 112//99 216//99 215//99 
f 212//99 217//99 127//99 
f 215//99 110//99 112//99 
f 114//99 116//99 218//99 
f 131//99 119//99 213//99 
f 216//99 112//99 114//99 
f 125//99 217//99 219//99 
f 218//99 216//99 114//99 
f 116//99 99//99 220//99 
f 95//99 62//99 221//99 
f 3//99 222//99 223//99 
f 219//99 122//99 125//99 
f 220//99 218//99 116//99 
f 103//99 105//99 224//99 
f 62//99 225//99 221//99 
f 3//99 226//99 222//99 
f 140//99 227//99 228//99 
f 140//99 142//99 229//99 
f 127//99 129//99 212//99 
f 99//99 98//99 230//99 
f 101//99 103//99 231//99 
f 224//99 232//99 103//99 
f 221//99 233//99 95//99 
f 38//99 234//99 235//99 
f 40//99 236//99 234//99 
f 223//99 13//99 3//99 
f 2//99 237//99 226//99 
f 138//99 228//99 238//99 
f 229//99 227//99 140//99 
f 230//99 220//99 99//99 
f 98//99 101//99 239//99 
f 232//99 231//99 103//99 
f 105//99 107//99 240//99 
f 62//99 241//99 225//99 
f 234//99 38//99 40//99 
f 42//99 242//99 236//99 
f 44//99 27//99 243//99 
f 226//99 3//99 2//99 
f 5//99 244//99 237//99 
f 228//99 138//99 140//99 
f 123//99 245//99 229//99 
f 239//99 230//99 98//99 
f 240//99 224//99 105//99 
f 95//99 246//99 247//99 
f 62//99 248//99 241//99 
f 236//99 40//99 42//99 
f 242//99 42//99 44//99 
f 21//99 23//99 249//99 
f 23//99 13//99 250//99 
f 237//99 2//99 5//99 
f 7//99 251//99 244//99 
f 136//99 238//99 252//99 
f 229//99 142//99 123//99 
f 231//99 239//99 101//99 
f 240//99 107//99 95//99 
f 247//99 253//99 95//99 
f 62//99 254//99 248//99 
f 255//99 57//99 59//99 
f 243//99 242//99 44//99 
f 27//99 26//99 256//99 
f 33//99 35//99 257//99 
f 35//99 17//99 258//99 
f 250//99 249//99 23//99 
f 244//99 5//99 7//99 
f 134//99 252//99 259//99 
f 238//99 136//99 138//99 
f 122//99 219//99 245//99 
f 95//99 260//99 240//99 
f 233//99 246//99 95//99 
f 69//99 261//99 262//99 
f 69//99 71//99 263//99 
f 59//99 264//99 255//99 
f 264//99 47//99 39//99 
f 256//99 243//99 27//99 
f 26//99 29//99 265//99 
f 258//99 257//99 35//99 
f 17//99 16//99 266//99 
f 223//99 250//99 13//99 
f 9//99 267//99 251//99 
f 252//99 134//99 136//99 
f 125//99 127//99 217//99 
f 253//99 268//99 95//99 
f 67//99 262//99 269//99 
f 263//99 261//99 69//99 
f 255//99 270//99 55//99 
f 39//99 235//99 264//99 
f 265//99 256//99 26//99 
f 29//99 31//99 271//99 
f 31//99 33//99 272//99 
f 266//99 258//99 17//99 
f 19//99 21//99 273//99 
f 251//99 7//99 9//99 
f 245//99 123//99 122//99 
f 62//99 274//99 254//99 
f 262//99 67//99 69//99 
f 263//99 71//99 51//99 
f 50//99 275//99 276//99 
f 53//99 55//99 270//99 
f 59//99 47//99 264//99 
f 74//99 73//99 77//99 
f 62//99 81//99 80//99 
f 62//99 95//99 87//99 
f 271//99 265//99 29//99 
f 257//99 272//99 33//99 
f 249//99 273//99 21//99 
f 11//99 259//99 267//99 
f 95//99 277//99 260//99 
f 62//99 278//99 274//99 
f 65//99 269//99 279//99 
f 51//99 276//99 263//99 
f 276//99 51//99 50//99 
f 55//99 57//99 255//99 
f 77//99 63//99 74//99 
f 80//99 83//99 62//99 
f 87//99 86//99 62//99 
f 272//99 271//99 31//99 
f 16//99 19//99 280//99 
f 267//99 9//99 11//99 
f 268//99 277//99 95//99 
f 269//99 65//99 67//99 
f 270//99 275//99 53//99 
f 83//99 74//99 62//99 
f 86//99 89//99 62//99 
f 280//99 266//99 16//99 
f 259//99 11//99 134//99 
f 50//99 53//99 275//99 
f 89//99 81//99 62//99 
f 91//99 87//99 95//99 
f 273//99 280//99 19//99 
f 279//99 62//99 65//99 
f 95//99 93//99 91//99 
f 279//99 278//99 62//99 
f 235//99 39//99 38//99 
f 63//99 62//99 74//99 
o mesh21
f 174//100 212//100 213//101 
f 196//102 217//102 212//100 
f 185//103 219//103 217//102 
f 203//104 245//104 219//103 
f 168//105 229//105 245//104 
f 167//106 227//106 229//105 
f 169//107 228//107 227//106 
f 227//106 167//106 169//107 
f 229//105 168//105 167//106 
f 245//104 203//104 168//105 
f 219//103 185//103 203//104 
f 217//102 196//102 185//103 
f 212//100 174//100 196//102 
f 213//101 157//108 174//100 
o mesh22
f 157//108 213//108 214//108 
f 214//108 156//108 157//108 
o mesh23
f 194//109 239//109 231//110 
f 195//111 230//111 239//109 
f 184//112 220//112 230//111 
f 165//113 218//113 220//112 
f 164//114 216//114 218//113 
f 166//115 215//115 216//114 
f 156//116 214//116 215//115 
f 215//115 166//115 156//116 
f 216//114 164//114 166//115 
f 218//113 165//113 164//114 
f 220//112 184//112 165//113 
f 230//111 195//111 184//112 
f 239//109 194//109 195//111 
f 231//110 193//117 194//109 
o mesh24
f 173//118 246//118 233//119 
f 192//120 247//120 246//118 
f 191//121 253//121 247//120 
f 201//122 268//122 253//121 
f 208//123 277//123 268//122 
f 209//124 260//124 277//123 
f 202//125 240//125 260//124 
f 183//126 224//126 240//125 
f 182//127 232//127 224//126 
f 193//128 231//128 232//127 
f 232//127 182//127 193//128 
f 224//126 183//126 182//127 
f 240//125 202//125 183//126 
f 260//124 209//124 202//125 
f 277//123 208//123 209//124 
f 268//122 201//122 208//123 
f 253//121 191//121 201//122 
f 247//120 192//120 191//121 
f 246//118 173//118 192//120 
f 233//119 154//129 173//118 
o mesh25
f 172//130 269//130 262//131 
f 189//132 279//132 269//130 
f 207//133 278//133 279//132 
f 211//134 274//134 278//133 
f 210//135 254//135 274//134 
f 200//136 248//136 254//135 
f 190//137 241//137 248//136 
f 181//138 225//138 241//137 
f 155//139 221//139 225//138 
f 154//140 233//140 221//139 
f 221//139 155//139 154//140 
f 225//138 181//138 155//139 
f 241//137 190//137 181//138 
f 248//136 200//136 190//137 
f 254//135 210//135 200//136 
f 274//134 211//134 210//135 
f 278//133 207//133 211//134 
f 279//132 189//132 207//133 
f 269//130 172//130 189//132 
f 262//131 163//141 172//130 
o mesh26
f 143//142 255//142 264//143 
f 150//144 270//144 255//142 
f 153//145 275//145 270//144 
f 180//146 276//146 275//145 
f 162//147 263//147 276//146 
f 161//148 261//148 263//147 
f 163//149 262//149 261//148 
f 261//148 161//148 163//149 
f 263//147 162//147 161//148 
f 276//146 180//146 162//147 
f 275//145 153//145 180//146 
f 270//144 150//144 153//145 
f 255//142 143//142 150//144 
f 264//143 144//150 143//142 
o mesh27
f 144//150 264//150 235//150 
f 235//150 145//150 144//150 
o mesh28
f 171//151 265//151 271//152 
f 160//153 256//153 265//151 
f 148//154 243//154 256//153 
f 147//155 242//155 243//154 
f 149//156 236//156 242//155 
f 146//157 234//157 236//156 
f 145//158 235//158 234//157 
f 234//157 146//157 145//158 
f 236//156 149//156 146//157 
f 242//155 147//155 149//156 
f 243//154 148//154 147//155 
f 256//153 160//153 148//154 
f 265//151 171//151 160//153 
f 271//152 179//159 171//151 
o mesh29
f 159//160 250//160 223//161 
f 249//162 250//160 159//160 
f 178//163 273//163 249//162 
f 205//164 280//164 273//163 
f 199//165 266//165 280//164 
f 187//166 258//166 266//165 
f 186//167 257//167 258//166 
f 188//168 272//168 257//167 
f 179//169 271//169 272//168 
f 272//168 188//168 179//169 
f 257//167 186//167 188//168 
f 258//166 187//166 186//167 
f 266//165 199//165 187//166 
f 280//164 205//164 199//165 
f 273//163 178//163 205//164 
f 249//162 177//170 178//163 
f 159//160 177//170 249//162 
f 223//161 151//171 159//160 
o mesh30
f 175//172 238//172 228//173 
f 197//174 252//174 238//172 
f 204//175 259//175 252//174 
f 206//176 267//176 259//175 
f 198//177 251//177 267//176 
f 176//178 244//178 251//177 
f 170//179 237//179 244//178 
f 158//180 226//180 237//179 
f 152//181 222//181 226//180 
f 151//182 223//182 222//181 
f 222//181 152//181 151//182 
f 226//180 158//180 152//181 
f 237//179 170//179 158//180 
f 244//178 176//178 170//179 
f 251//177 198//177 176//178 
f 267//176 206//176 198//177 
f 259//175 204//175 206//176 
f 252//174 197//174 204//175 
f 238//172 175//172 197//174 
f 228//173 169//183 175//172 
