# https://github.com/mikedh/trimesh
v -0.01976459 -0.00793431 0.07500000
v -0.02117392 -0.01334270 0.07500000
v -0.03212158 -0.00968507 0.07500000
v -0.05672897 -0.06971229 0.07500000
v -0.03837129 -0.05525232 0.07500000
v -0.05225947 -0.05880942 0.07500000
v -0.02864160 -0.04157155 0.07500000
v -0.04673705 -0.06701529 0.07500000
v -0.04046253 -0.03003198 0.07500000
v -0.05571546 -0.06723995 0.07500000
v -0.02647385 -0.03368136 0.07500000
v -0.03233948 -0.04677107 0.07500000
f 1 2 2
f 4 2 1
f 1 1 2
f 1 2 3
f 1 3 1
f 3 4 1
f 3 1 3
f 5 2 4
f 4 3 2
f 6 3 4
f 7 2 5
f 8 4 4
f 8 4 2
f 9 3 3
f 9 3 6
f 6 4 3
f 6 9 6
f 10 4 4
f 10 6 6
f 10 4 6
f 11 2 2
f 11 8 2
f 8 8 5
f 8 5 4
f 8 4 8
f 12 8 11
f 9 6 3
f 9 3 9
f 9 9 6
f 10 10 6
f 10 6 4
f 10 4 10
f 11 11 2
f 11 2 7
f 11 7 11
f 12 12 7
f 12 7 5
f 12 5 12
f 5 12 5
f 5 5 8
f 5 8 12
f 7 12 11
f 7 11 7
f 7 7 12

