# https://github.com/mikedh/trimesh
v 0.01305968 -0.05907808 0.05080000
v 0.01200677 -0.07692085 0.05080000
v 0.01305968 -0.05907808 0.00000000
v -0.03882787 -0.06256363 0.00000000
v -0.03882787 -0.06256363 0.05080000
v 0.01200677 -0.07692085 0.00000000
v -0.02593124 -0.05235588 0.05080000
v -0.01897898 -0.07570335 0.05080000
v -0.02593124 -0.05235588 0.00000000
v -0.03442016 -0.06823708 0.05080000
v -0.01897898 -0.07570335 0.00000000
v -0.03727905 -0.06619456 0.05080000
v -0.03442016 -0.06823708 0.00000000
v -0.03727905 -0.06619456 0.00000000
f 1 2 3
f 5 2 1
f 6 3 2
f 6 4 3
f 7 1 3
f 7 5 1
f 7 4 5
f 8 2 5
f 8 6 2
f 9 7 3
f 9 3 4
f 9 4 7
f 10 8 5
f 11 6 8
f 12 10 5
f 12 5 4
f 13 4 6
f 13 6 11
f 13 10 12
f 13 11 8
f 13 8 10
f 14 13 12
f 14 12 4
f 14 4 13

