# https://github.com/mikedh/trimesh
v 0.05680740 -0.02995993 0.05080000
v 0.05548305 -0.03482871 0.05080000
v 0.05548305 -0.03482871 0.00000000
v 0.03645690 -0.03102309 0.00000000
v 0.03169961 -0.04271134 0.05080000
v 0.05680740 -0.02995993 0.00000000
v 0.03645690 -0.03102309 0.05080000
v 0.03364714 -0.06757581 0.05080000
v 0.04735209 -0.05275786 0.05080000
v 0.02853312 -0.05448031 0.00000000
v 0.04201893 -0.05993125 0.00000000
v 0.05274460 -0.04263214 0.05080000
v 0.02853312 -0.05448031 0.05080000
v 0.03169961 -0.04271134 0.00000000
v 0.04201893 -0.05993125 0.05080000
v 0.04735209 -0.05275786 0.00000000
v 0.03364714 -0.06757581 0.00000000
v 0.03934928 -0.06265004 0.00000000
v 0.05274460 -0.04263214 0.00000000
v 0.03934928 -0.06265004 0.05080000
v 0.03524344 -0.06629352 0.05080000
v 0.03524344 -0.06629352 0.00000000
f 1 2 3
f 5 2 1
f 6 1 3
f 6 3 4
f 6 4 1
f 7 5 1
f 7 1 4
f 7 4 5
f 8 2 5
f 9 2 8
f 10 4 3
f 11 10 3
f 12 3 2
f 12 2 9
f 13 8 5
f 14 5 4
f 14 4 10
f 14 13 5
f 14 10 13
f 15 11 9
f 15 9 8
f 16 11 3
f 16 9 11
f 16 12 9
f 17 10 11
f 17 13 10
f 17 8 13
f 18 11 15
f 18 17 11
f 19 16 3
f 19 3 12
f 19 12 16
f 20 18 15
f 20 15 8
f 21 8 17
f 21 20 8
f 21 18 20
f 22 21 17
f 22 17 18
f 22 18 21

