# https://github.com/mikedh/trimesh
v -0.00340665 0.00022911 0.00000000
v -0.00340665 -0.04597593 0.00000000
v -0.00340665 -0.00265871 0.00000000
v -0.03523040 -0.00429649 0.00000000
v -0.05980550 -0.04676151 0.00000000
v -0.02939699 -0.04597593 0.00000000
v -0.02939699 0.00022911 0.00000000
v -0.03325396 -0.00088125 0.00000000
v -0.05209681 -0.03344113 0.00000000
v -0.04043523 -0.01329026 0.00000000
v -0.05855357 -0.04459821 0.00000000
f 1 2 3
f 5 2 1
f 6 4 3
f 6 2 5
f 7 3 4
f 8 5 1
f 8 1 7
f 2 6 3
f 2 3 2
f 2 2 6
f 5 6 5
f 5 4 6
f 1 7 1
f 1 1 3
f 1 3 7
f 9 5 8
f 8 8 7
f 8 7 4
f 8 4 8
f 10 9 8
f 11 5 5
f 11 5 9
f 9 4 5
f 9 11 9
f 9 9 10
f 4 10 8
f 4 8 4
f 4 4 10
f 11 9 5
f 11 5 11
f 11 11 9
f 10 9 10
f 10 10 4
f 10 4 9

