# https://github.com/mikedh/trimesh
v 0.03026986 0.06782398 0.05080000
v 0.03188102 0.04019225 0.05080000
v 0.03188102 0.04019225 0.00000000
v 0.00158873 0.07620000 0.00000000
v 0.00162565 0.05917386 0.05080000
v 0.03026986 0.06782398 0.00000000
v 0.00158873 0.07620000 0.05080000
v 0.00162565 0.05917386 0.00000000
v 0.01436760 0.07447124 0.05080000
v 0.01436760 0.07447124 0.00000000
v 0.02187170 0.07212190 0.05080000
v 0.02708730 0.06968257 0.05080000
v 0.02187170 0.07212190 0.00000000
v 0.02708730 0.06968257 0.00000000
f 1 2 3
f 5 2 1
f 5 3 2
f 6 1 3
f 6 3 4
f 7 5 1
f 7 4 5
f 8 5 4
f 8 4 3
f 8 3 5
f 9 7 1
f 9 4 7
f 10 6 4
f 10 4 9
f 11 9 1
f 11 10 9
f 12 11 1
f 12 1 6
f 13 6 10
f 13 10 11
f 13 11 12
f 14 13 12
f 14 12 6
f 14 6 13

