# https://github.com/mikedh/trimesh
v 0.01949153 0.09165881 0.00000000
v 0.03302613 0.04897041 0.00000000
v 0.03136220 0.05421848 0.00000000
v 0.01715613 0.09099659 0.00000000
v -0.00472597 0.04841425 0.00000000
v 0.02501088 0.07425066 0.00000000
v 0.01872290 0.09408310 0.00000000
v -0.00347404 0.05057756 0.00000000
f 5 2 1
f 1 3 4
f 3 1 2
f 3 2 3
f 4 5 1
f 2 3 2
f 2 2 5
f 2 4 3
f 6 1 1
f 6 3 3
f 6 1 3
f 7 1 4
f 7 4 4
f 8 4 4
f 8 5 4
f 5 2 5
f 5 4 2
f 5 5 8
f 6 6 3
f 6 3 1
f 6 1 6
f 7 1 1
f 7 1 7
f 7 4 1
f 7 7 7
f 7 1 7
f 8 5 8
f 8 8 4
f 8 4 5
f 7 7 7
f 7 7 4
f 7 4 7

