# https://github.com/mikedh/trimesh
v 0.04875221 -0.00062999 0.00000000
v 0.07591447 -0.08630033 0.00000000
v 0.07442125 -0.08159069 0.00000000
v -0.00340665 0.00022911 0.00000000
v -0.00330276 -0.07417530 0.00000000
v 0.03749685 -0.08042011 0.00000000
v 0.06255059 -0.04415036 0.00000000
v 0.05768071 -0.08350946 0.00000000
v -0.00004916 -0.07467330 0.00000000
f 5 2 1
f 1 3 4
f 1 4 1
f 3 1 2
f 3 2 3
f 4 5 1
f 4 1 4
f 4 4 5
f 6 4 3
f 7 1 1
f 7 3 1
f 7 3 3
f 2 6 3
f 2 3 2
f 8 2 5
f 8 2 2
f 5 5 4
f 5 4 6
f 7 7 1
f 7 1 3
f 7 3 7
f 9 8 5
f 9 5 5
f 8 8 6
f 8 6 2
f 8 2 8
f 6 9 6
f 6 6 8
f 6 8 9
f 9 9 5
f 9 5 6
f 9 6 9

