# https://github.com/mikedh/trimesh
v -0.03999973 -0.02509472 0.05080000
v -0.02535567 -0.06256363 0.05080000
v -0.02727840 -0.05099557 0.00000000
v -0.06012058 -0.02478465 0.00000000
v -0.05480970 -0.04251370 0.05080000
v -0.03999973 -0.02509472 0.00000000
v -0.02727840 -0.05099557 0.05080000
v -0.06012058 -0.02478465 0.05080000
v -0.03861553 -0.06501707 0.00000000
v -0.05764923 -0.03477318 0.05080000
v -0.02535567 -0.06256363 0.00000000
v -0.03861553 -0.06501707 0.05080000
v -0.04939777 -0.05272026 0.00000000
v -0.05480970 -0.04251370 0.00000000
v -0.04939777 -0.05272026 0.05080000
v -0.04013248 -0.06368058 0.05080000
v -0.05764923 -0.03477318 0.00000000
v -0.04013248 -0.06368058 0.00000000
f 5 2 1
f 6 1 3
f 6 3 4
f 6 4 1
f 7 1 2
f 7 3 1
f 8 5 1
f 8 1 4
f 9 4 3
f 10 8 4
f 10 5 8
f 11 9 3
f 11 7 2
f 11 3 7
f 12 2 5
f 12 11 2
f 12 9 11
f 13 4 9
f 14 5 10
f 14 13 5
f 14 4 13
f 15 12 5
f 15 5 13
f 16 9 12
f 16 15 13
f 16 12 15
f 17 14 10
f 17 10 4
f 17 4 14
f 18 16 13
f 18 13 9
f 18 9 16

