# https://github.com/mikedh/trimesh
v -0.02510072 0.07157848 0.05080000
v -0.02683033 0.04943078 0.05080000
v -0.02683033 0.04943078 0.00000000
v -0.04479006 0.05697101 0.00000000
v -0.06138108 0.01268455 0.05080000
v -0.02510072 0.07157848 0.00000000
v -0.05197559 0.04636381 0.05080000
v -0.04150120 0.01320567 0.05080000
v -0.06138108 0.01268455 -0.00000000
v -0.03419333 0.06661043 0.05080000
v -0.04150120 0.01320567 0.00000000
v -0.05450275 0.04125047 0.00000000
v -0.03419333 0.06661043 0.00000000
v -0.02926625 0.06956863 0.05080000
v -0.04717266 0.05402442 0.05080000
v -0.05197559 0.04636381 0.00000000
v -0.05998274 0.02303364 0.00000000
v -0.02926625 0.06956863 0.00000000
v -0.04717266 0.05402442 0.00000000
v -0.05737322 0.03354564 0.05080000
v -0.05998274 0.02303364 0.05080000
v -0.05450275 0.04125047 0.05080000
v -0.05737322 0.03354564 0.00000000
f 1 2 3
f 5 2 1
f 6 1 3
f 7 5 1
f 8 3 2
f 8 2 5
f 9 8 5
f 9 6 3
f 10 7 1
f 11 9 3
f 11 3 8
f 11 8 9
f 13 4 10
f 13 9 4
f 14 10 1
f 14 1 6
f 14 13 10
f 15 10 4
f 15 7 10
f 16 12 7
f 16 9 12
f 16 7 15
f 17 9 5
f 18 14 6
f 18 13 14
f 18 6 9
f 18 9 13
f 19 16 15
f 19 15 4
f 19 4 9
f 19 9 16
f 20 5 7
f 21 20 17
f 21 17 5
f 21 5 20
f 22 20 7
f 22 7 12
f 22 12 20
f 23 20 12
f 23 17 20
f 23 12 9
f 23 9 17

