# https://github.com/mikedh/trimesh
v 0.05937678 -0.08871180 0.05080000
v 0.05889728 -0.09006665 0.05080000
v 0.05937678 -0.08871180 0.00000000
v 0.03364714 -0.06757581 0.00000000
v 0.03364714 -0.06757581 0.05080000
v 0.03545828 -0.09296598 0.00000000
v 0.03524344 -0.06629352 0.05080000
v 0.04770029 -0.10038967 0.00000000
v 0.03545828 -0.09296598 0.05080000
v 0.03524344 -0.06629352 0.00000000
v 0.05889728 -0.09006665 0.00000000
v 0.04770029 -0.10038967 0.05080000
v 0.04434650 -0.10003763 0.05080000
v 0.04434650 -0.10003763 0.00000000
f 1 2 3
f 5 2 1
f 6 4 3
f 6 5 4
f 7 1 3
f 7 5 1
f 7 4 5
f 8 6 3
f 9 2 5
f 9 5 6
f 10 7 3
f 10 3 4
f 10 4 7
f 11 8 3
f 11 3 2
f 11 2 8
f 12 8 2
f 12 2 9
f 13 9 6
f 13 12 9
f 13 8 12
f 14 13 6
f 14 6 8
f 14 8 13

