# https://github.com/mikedh/trimesh
v 0.00158873 0.07620000 0.05080000
v 0.00162565 0.05917386 0.05080000
v 0.00162565 0.05917386 0.00000000
v -0.02410797 0.07201497 0.00000000
v -0.02548379 0.05073510 0.05080000
v 0.00158873 0.07620000 0.00000000
v -0.02410797 0.07201497 0.05080000
v -0.02548379 0.05073510 0.00000000
v -0.01662642 0.07450316 0.05080000
v -0.01662642 0.07450316 0.00000000
f 1 2 3
f 5 2 1
f 5 3 2
f 6 1 3
f 6 3 4
f 7 5 1
f 7 4 5
f 8 5 4
f 8 4 3
f 8 3 5
f 9 1 6
f 9 7 1
f 9 4 7
f 10 9 6
f 10 6 4
f 10 4 9

