# https://github.com/mikedh/trimesh
v 0.03194226 0.06668791 0.05080000
v 0.05680740 -0.02995993 0.05080000
v 0.05516824 0.03355170 0.00000000
v 0.03026986 0.06782398 0.00000000
v 0.03669694 -0.03025553 0.05080000
v 0.04692954 0.05138642 0.00000000
v 0.05516824 0.03355170 0.05080000
v 0.03026986 0.06782398 0.05080000
v 0.03669694 -0.03025553 0.00000000
v 0.03194226 0.06668791 0.00000000
v 0.05814160 0.02063500 0.05080000
v 0.04692954 0.05138642 0.05080000
v 0.05233945 0.04127721 0.05080000
v 0.05680740 -0.02995993 0.00000000
v 0.05233945 0.04127721 0.00000000
v 0.05793684 -0.02426090 0.00000000
v 0.05793684 -0.02426090 0.05080000
v 0.05814160 0.02063500 0.00000000
f 5 2 1
f 6 3 4
f 7 1 2
f 8 5 1
f 8 1 4
f 8 4 5
f 9 2 5
f 9 5 4
f 9 4 3
f 10 6 4
f 10 4 1
f 10 1 6
f 11 7 2
f 11 3 7
f 12 6 1
f 12 1 7
f 13 7 3
f 13 12 7
f 13 6 12
f 14 9 3
f 14 2 9
f 15 13 3
f 15 3 6
f 15 6 13
f 16 2 14
f 16 14 3
f 17 16 11
f 17 11 2
f 17 2 16
f 18 16 3
f 18 3 11
f 18 11 16

