# https://github.com/mikedh/trimesh
v -0.01207010 -0.02542670 0.07500000
v -0.01207010 -0.04597593 0.07500000
v -0.01207010 -0.04597593 0.00000000
v -0.06058585 -0.02127562 0.00000000
v -0.06978738 -0.04599046 0.07500000
v -0.02129582 -0.01979872 0.00000000
v -0.06058585 -0.02127562 0.07500000
v -0.06978738 -0.04599046 0.00000000
v -0.01207010 -0.02542670 0.00000000
v -0.02129582 -0.01979872 0.07500000
f 1 2 3
f 5 2 1
f 5 3 2
f 6 3 4
f 7 5 1
f 7 4 5
f 8 5 4
f 8 4 3
f 8 3 5
f 9 6 1
f 9 1 3
f 9 3 6
f 10 7 1
f 10 1 6
f 10 6 4
f 10 4 7

