# https://github.com/mikedh/trimesh
v 0.06293915 -0.02398261 0.07500000
v 0.07989078 -0.06924668 0.07500000
v 0.06839194 -0.03854259 0.00000000
v 0.02266669 -0.01995772 0.00000000
v 0.02258368 -0.04597593 0.07500000
v 0.06163546 -0.02050153 0.00000000
v 0.02266669 -0.01995772 0.07500000
v 0.03888492 -0.06845112 0.00000000
v 0.05723747 -0.01998560 0.07500000
v 0.07989078 -0.06924668 0.00000000
v 0.03888492 -0.06845112 0.07500000
v 0.02258368 -0.04597593 0.00000000
v 0.06163546 -0.02050153 0.01299517
v 0.02835931 -0.05722060 0.07500000
v 0.02835931 -0.05722060 0.00000000
f 1 2 3
f 5 2 1
f 6 1 3
f 6 3 4
f 7 5 1
f 8 4 3
f 9 6 4
f 9 4 7
f 9 7 1
f 10 8 3
f 10 3 2
f 10 2 8
f 11 8 2
f 11 2 5
f 12 4 8
f 12 7 4
f 12 5 7
f 13 9 1
f 13 1 6
f 13 6 9
f 14 11 5
f 14 8 11
f 15 12 8
f 15 8 14
f 15 14 5
f 15 5 12

