# https://github.com/mikedh/trimesh
v 0.02911113 -0.04678690 0.05080000
v 0.03414552 -0.09192152 0.05080000
v 0.03392200 -0.05448031 0.00000000
v 0.01305968 -0.05907808 0.00000000
v 0.01200677 -0.07692085 0.05080000
v 0.03414552 -0.09192152 0.00000000
v 0.02911113 -0.04678690 0.00000000
v 0.03392200 -0.05448031 0.05080000
v 0.01305968 -0.05907808 0.05080000
v 0.01200677 -0.07692085 0.00000000
f 5 2 1
f 6 4 3
f 6 2 5
f 7 3 4
f 7 4 1
f 8 1 2
f 8 7 1
f 8 3 7
f 8 6 3
f 8 2 6
f 9 5 1
f 9 1 4
f 9 4 5
f 10 6 5
f 10 5 4
f 10 4 6

