# https://github.com/mikedh/trimesh
v 0.05022574 -0.02434682 0.04000000
v 0.10337700 -0.10303400 0.04000000
v 0.10337700 -0.10303400 0.00000000
v 0.00955684 -0.02341045 0.00000000
v 0.05671870 -0.10303400 0.04000000
v 0.05022574 -0.02434682 0.00000000
v 0.00955684 -0.02341045 0.04000000
v 0.05671870 -0.10303400 0.00000000
v 0.01187602 -0.03098108 0.00000000
v 0.01187602 -0.03098108 0.04000000
f 5 2 1
f 5 3 2
f 6 3 4
f 6 1 2
f 6 2 3
f 7 5 1
f 7 6 4
f 7 1 6
f 8 4 3
f 8 3 5
f 9 7 4
f 9 4 8
f 10 5 7
f 10 7 9
f 10 9 8
f 10 8 5

