# https://github.com/mikedh/trimesh
v 0.00054298 0.06999680 0.07500000
v -0.00086253 0.06460312 0.07500000
v -0.01156821 0.04045278 0.07500000
v -0.00018674 0.06821671 0.07500000
v -0.00616245 0.04426445 0.07500000
v -0.00954120 0.04539746 0.07500000
v -0.00386482 0.05308169 0.07500000
v -0.00705074 0.04085559 0.07500000
v -0.00608522 0.05382799 0.07500000
f 1 2 1
f 1 1 1
f 3 2 1
f 4 3 1
f 5 1 1
f 1 4 1
f 1 1 1
f 1 1 4
f 6 1 5
f 2 5 1
f 2 1 2
f 5 2 3
f 4 4 1
f 4 1 6
f 6 6 3
f 6 3 4
f 3 6 5
f 3 3 6
f 7 2 2
f 7 5 5
f 7 2 5
f 8 5 5
f 8 3 5
f 8 3 3
f 9 4 6
f 9 4 4
f 9 6 6
f 7 7 5
f 7 5 2
f 7 2 7
f 8 8 5
f 8 5 3
f 8 3 8
f 9 9 6
f 9 6 4
f 9 4 9

