# https://github.com/mikedh/trimesh
v -0.04770707 -0.06837922 0.07500000
v -0.04907100 -0.07029701 0.07500000
v -0.05815794 -0.07319814 0.07500000
v -0.06771545 -0.09651270 0.07500000
v -0.06716645 -0.09574076 0.07500000
v -0.05672897 -0.06971229 0.07500000
v -0.06649890 -0.09354504 0.07500000
v -0.05276887 -0.07549654 0.07500000
v -0.06060043 -0.07915633 0.07500000
f 1 2 2
f 4 2 1
f 1 1 2
f 1 2 3
f 3 4 1
f 5 3 2
f 6 1 3
f 6 1 1
f 6 3 3
f 7 3 5
f 8 5 2
f 8 2 2
f 5 2 4
f 5 4 5
f 5 5 8
f 6 6 3
f 6 3 1
f 6 1 6
f 9 3 3
f 9 3 7
f 7 7 4
f 7 4 3
f 7 9 7
f 4 7 5
f 4 5 4
f 4 4 7
f 8 5 8
f 8 8 2
f 8 2 5
f 9 7 3
f 9 3 9
f 9 9 7

