# https://github.com/mikedh/trimesh
v 0.03412187 0.04551441 0.00000000
v 0.04848843 0.00020197 0.00000000
v 0.04516057 0.01069812 0.00000000
v -0.00867886 0.04158378 0.00000000
v -0.03325396 -0.00088125 0.00000000
v 0.03302613 0.04897041 0.00000000
v -0.00472597 0.04841425 0.00000000
v 0.03124713 0.00022911 0.00000000
v -0.03200203 0.00128206 0.00000000
f 5 2 1
f 6 3 4
f 3 1 2
f 3 2 3
f 3 3 1
f 7 5 1
f 8 2 5
f 8 4 3
f 1 6 1
f 1 1 3
f 1 3 6
f 4 7 4
f 4 5 7
f 7 7 6
f 7 6 4
f 7 4 7
f 6 7 1
f 6 1 6
f 6 6 7
f 2 8 3
f 2 3 2
f 2 2 8
f 5 8 5
f 5 4 8
f 9 4 4
f 9 5 5
f 9 4 5
f 9 9 5
f 9 5 4
f 9 4 9

