# OBJ generated by ONSHAPE BY PTC INC, 1.200 Units = meters
mtllib letter_r.mtl
g Part 1
v 0.000555556 0.00725291 0.04 
v 0.000555556 0.00725291 0 
v -0.0129861 0.00725291 0 
v -0.0129861 0.00725291 0.04 
v -0.0129861 0.0608119 0 
v -0.0129861 0.0608119 0.04 
v -0.000225694 0.0608119 0 
v -0.000225694 0.0608119 0.04 
v 0.0276105 0.0560427 0.04 
v 0.0276105 0.0560427 0 
v 0.0297873 0.0548441 0 
v 0.0249253 0.057212 0.04 
v 0.0249253 0.057212 0 
v 0.0215231 0.0583404 0.04 
v 0.0215231 0.0583404 0 
v 0.0161946 0.059553 0.04 
v 0.0161946 0.059553 0 
v 0.0100304 0.0603712 0.04 
v 0.0100304 0.0603712 0 
v 0.00221131 0.0607898 0.04 
v 0.00221131 0.0607898 0 
v 0.0297873 0.0548441 0.04 
v 0.0392944 0.038592 6.93889e-18 
v 0.0394878 0.0347703 0 
v 0.0394878 0.0347703 0.04 
v 0.0388599 0.0414212 0.04 
v 0.0388599 0.0414212 0 
v 0.038253 0.0437998 0.04 
v 0.038253 0.0437998 0 
v 0.0375118 0.0458455 0.04 
v 0.0375118 0.0458455 -6.93889e-18 
v 0.0365889 0.0477606 0 
v 0.0355036 0.0495081 0.04 
v 0.0355036 0.0495081 0 
v 0.0343012 0.051048 0.04 
v 0.0343012 0.051048 0 
v 0.0329677 0.0524296 0.04 
v 0.0329677 0.0524296 0 
v 0.0314765 0.0536875 0.04 
v 0.0314765 0.0536875 0 
v 0.0365889 0.0477606 0.04 
v 0.0392944 0.038592 0.04 
v 0.0318281 0.0153166 0.04 
v 0.0318281 0.0153166 -1.38778e-17 
v 0.0300043 0.0138935 0 
v 0.0334403 0.0168772 0 
v 0.034812 0.0185228 0.04 
v 0.034812 0.0185228 0 
v 0.0359903 0.0202806 0.04 
v 0.0359903 0.0202806 0 
v 0.037004 0.0221882 0.04 
v 0.037004 0.0221882 0 
v 0.0378658 0.0242941 0.04 
v 0.0378658 0.0242941 0 
v 0.0385734 0.0266612 0.04 
v 0.0385734 0.0266612 0 
v 0.0391077 0.0293742 0.04 
v 0.0391077 0.0293742 0 
v 0.0394276 0.0325494 0.04 
v 0.0394276 0.0325494 0 
v 0.0334403 0.0168772 0.04 
v 0.0300043 0.0138935 0.04 
v 0.00873699 0.00756643 6.93889e-18 
v 0.015132 0.00836346 0.04 
v 0.015132 0.00836346 0 
v 0.0200587 0.00945083 0.04 
v 0.0200587 0.00945083 0 
v 0.0237403 0.0106451 0.04 
v 0.0237403 0.0106451 0 
v 0.0266167 0.0118964 0.04 
v 0.0266167 0.0118964 0 
v 0.0289238 0.0131796 0.04 
v 0.0289238 0.0131796 0 
v 0.00873699 0.00756643 0.04 
v 0.00272569 0.0952737 0.04 
v -0.0550434 0.0952737 0.04 
v 0.0337889 0.0925186 0.04 
v 0.014152 0.0949564 0.04 
v 0.08 0.0209355 0.04 
v 0.080794 0.0242585 0.04 
v 0.0816147 0.0295915 0.04 
v 0.0819358 0.0358553 0.04 
v 0.08 0.0532868 0.04 
v 0.0488836 0.0881235 0.04 
v 0.0418479 0.0905363 0.04 
v 0.0245944 0.094014 0.04 
v 0.0450434 -0.0166186 0.04 
v 0.0783351 0.0158931 0.04 
v 0.0812001 0.046962 0.04 
v 0.00936632 -0.0269485 0.04 
v 0.0567187 -0.103034 0.04 
v 0.0642179 -0.0452128 0.04 
v 0.072322 0.00473555 0.04 
v 0.0761602 0.0110614 0.04 
v 0.0789829 0.0569417 0.04 
v 0.0772063 0.0617588 0.04 
v 0.0750921 0.0661052 0.04 
v 0.0726223 0.0700957 0.04 
v 0.0550005 0.0853264 0.04 
v 0.08 -0.0686667 0.04 
v 0.0487822 -0.0148725 0.04 
v 0.0734806 0.00644562 0.04 
v 0.0625564 0.0805602 0.04 
v 0.0596924 0.0825793 0.04 
v 0.0939166 -0.0892265 0.04 
v 0.0547401 -0.0115622 0.04 
v 0.0687553 0.000197422 0.04 
v 0.0818325 0.0401525 0.04 
v 0.0663677 0.077344 0.04 
v 0.103377 -0.103034 0.04 
v -0.0129861 -0.0269485 0.04 
v 0.064696 -0.00399753 0.04 
v 0.0697441 0.0738199 0.04 
v 0.0600685 -0.00790172 0.04 
v -0.0550434 -0.103034 0.04 
v -0.0129861 -0.103034 0.04 
v 0.0816147 0.0295915 -6.93889e-18 
v 0.080794 0.0242585 0 
v 0.0818325 0.0401525 0 
v 0.0819358 0.0358553 0 
v 0.08 0.0209355 0 
v 0.0783351 0.0158931 0 
v 0.00272569 0.0952737 0 
v 0.08 0.0532868 0 
v 0.0812001 0.046962 0 
v 0.014152 0.0949564 0 
v 0.0789829 0.0569417 0 
v 0.0761602 0.0110614 0 
v 0.0734806 0.00644562 0 
v 0.072322 0.00473555 0 
v 0.0245944 0.094014 0 
v 0.0337889 0.0925186 0 
v 0.0418479 0.0905363 0 
v 0.0750921 0.0661052 0 
v 0.0772063 0.0617588 0 
v 0.0450434 -0.0166186 0 
v 0.0488836 0.0881235 0 
v 0.0726223 0.0700957 0 
v 0.0687553 0.000197422 6.93889e-18 
v 0.00936632 -0.0269485 0 
v 0.0642179 -0.0452128 0 
v 0.0487822 -0.0148725 0 
v 0.0567187 -0.103034 0 
v 0.064696 -0.00399753 0 
v 0.0547401 -0.0115622 0 
v 0.08 -0.0686667 0 
v 0.0550005 0.0853264 0 
v 0.0596924 0.0825793 0 
v 0.0600685 -0.00790172 0 
v 0.0939166 -0.0892265 0 
v 0.0625564 0.0805602 0 
v 0.103377 -0.103034 0 
v -0.0550434 0.0952737 0 
v 0.0663677 0.077344 0 
v -0.0550434 -0.103034 0 
v -0.0129861 -0.0269485 0 
v 0.0697441 0.0738199 6.93889e-18 
v -0.0129861 -0.103034 0 
vn 0 1 0 
vn 1 0 0 
vn 0 -1 0 
vn -0.442038 -0.896997 0 
vn -0.523991 -0.851724 0 
vn -0.358482 -0.933537 0 
vn -0.273941 -0.961746 0 
vn -0.174811 -0.984602 0 
vn -0.0926502 -0.995699 0 
vn -0.0184958 -0.999829 0 
vn 0 -1 0 
vn -0.523991 -0.851724 0 
vn -0.994457 -0.105142 0 
vn -1 0 0 
vn -0.979615 -0.200885 0 
vn -0.955441 -0.295183 0 
vn -0.922098 -0.386957 0 
vn -0.876542 -0.481325 0 
vn -0.81951 -0.573065 0 
vn -0.754529 -0.656267 0 
vn -0.682874 -0.730536 0 
vn -0.60568 -0.795709 0 
vn -0.523991 -0.851724 0 
vn -0.876542 -0.481325 0 
vn -0.994457 -0.105142 0 
vn -0.656108 0.754667 0 
vn -0.573588 0.819144 0 
vn -0.733417 0.679779 0 
vn -0.800777 0.598963 0 
vn -0.858075 0.513525 0 
vn -0.905379 0.424604 0 
vn -0.942823 0.333295 0 
vn -0.970611 0.240654 0 
vn -0.989034 0.14769 0 
vn -0.998466 0.0553634 0 
vn -1 0 0 
vn -0.733417 0.679779 0 
vn -0.573588 0.819144 0 
vn -0.0813066 0.996689 0 
vn 0 1 0 
vn -0.170663 0.985329 0 
vn -0.264402 0.964412 0 
vn -0.355618 0.934631 0 
vn -0.444195 0.89593 0 
vn -0.529038 0.848598 0 
vn -0.573588 0.819144 0 
vn -0.0813066 0.996689 0 
vn 0 0 1 
vn 0 0 -1 
vn 0.826845 0.56243 0 
vn 0.829043 0.559185 0 
vn 0.821798 0.56978 0 
vn 0.830147 0.557544 0 
vn 0.830887 0.556441 0 
vn 0.829043 0.559185 0 
vn 0.753321 -0.657653 0 
vn 0.817148 -0.576428 0 
vn 0.682576 -0.730815 0 
vn 0.606421 -0.795144 0 
vn 0.526073 -0.850439 0 
vn 0.445957 -0.895054 0 
vn 0.400701 -0.916209 0 
vn 0.753321 -0.657653 0 
vn 0.931991 -0.362481 0 
vn 0.96451 -0.264045 0 
vn 0.889394 -0.45714 0 
vn 0.838411 -0.545038 0 
vn 0.817148 -0.576428 0 
vn 0.96451 -0.264045 0 
vn 0.994567 -0.104096 0 
vn 1 0 0 
vn 0.979625 -0.200837 0 
vn 0.96451 -0.264045 0 
vn 1 0 0 
vn 0.990373 0.138421 0 
vn 0.971631 0.236504 0 
vn 0.998802 0.0489318 0 
vn 1 0 0 
vn 0.971631 0.236504 0 
vn 0.684256 0.729242 0 
vn 0.604699 0.796454 0 
vn 0.758192 0.652031 0 
vn 0.822116 0.56932 0 
vn 0.87596 0.482385 0 
vn 0.919815 0.392351 0 
vn 0.953844 0.300304 0 
vn 0.971631 0.236504 0 
vn 0.758192 0.652031 0 
vn 0.604699 0.796454 0 
vn 0.0577431 0.998331 0 
vn 0 1 0 
vn 0.124594 0.992208 0 
vn 0.199135 0.979972 0 
vn 0.281182 0.959654 0 
vn 0.369905 0.92907 0 
vn 0.463547 0.886072 0 
vn 0.547684 0.836685 0 
vn 0.604699 0.796454 0 
vn 0 1 0 
vn -1 0 0 
vn 0 -1 0 
vn 1 0 0 
vn -0.849003 -0.528387 0 
vn 0 -1 0 
usemtl 0.615686_0.811765_0.929412_0.000000_0.000000
o mesh0
f 1//1 2//1 3//1 
f 3//1 4//1 1//1 
o mesh1
f 4//2 3//2 5//2 
f 5//2 6//2 4//2 
o mesh2
f 6//3 5//3 7//3 
f 7//3 8//3 6//3 
o mesh3
f 9//4 10//4 11//5 
f 12//6 13//6 10//4 
f 14//7 15//7 13//6 
f 16//8 17//8 15//7 
f 18//9 19//9 17//8 
f 20//10 21//10 19//9 
f 8//11 7//11 21//10 
f 21//10 20//10 8//11 
f 19//9 18//9 20//10 
f 17//8 16//8 18//9 
f 15//7 14//7 16//8 
f 13//6 12//6 14//7 
f 10//4 9//4 12//6 
f 11//5 22//12 9//4 
o mesh4
f 23//13 24//14 25//14 
f 26//15 27//15 23//13 
f 28//16 29//16 27//15 
f 30//17 31//17 29//16 
f 32//18 31//17 30//17 
f 33//19 34//19 32//18 
f 35//20 36//20 34//19 
f 37//21 38//21 36//20 
f 39//22 40//22 38//21 
f 22//23 11//23 40//22 
f 40//22 39//22 22//23 
f 38//21 37//21 39//22 
f 36//20 35//20 37//21 
f 34//19 33//19 35//20 
f 32//18 41//24 33//19 
f 30//17 41//24 32//18 
f 29//16 28//16 30//17 
f 27//15 26//15 28//16 
f 23//13 42//25 26//15 
f 25//14 42//25 23//13 
o mesh5
f 43//26 44//26 45//27 
f 46//28 44//26 43//26 
f 47//29 48//29 46//28 
f 49//30 50//30 48//29 
f 51//31 52//31 50//30 
f 53//32 54//32 52//31 
f 55//33 56//33 54//32 
f 57//34 58//34 56//33 
f 59//35 60//35 58//34 
f 25//36 24//36 60//35 
f 60//35 59//35 25//36 
f 58//34 57//34 59//35 
f 56//33 55//33 57//34 
f 54//32 53//32 55//33 
f 52//31 51//31 53//32 
f 50//30 49//30 51//31 
f 48//29 47//29 49//30 
f 46//28 61//37 47//29 
f 43//26 61//37 46//28 
f 45//27 62//38 43//26 
o mesh6
f 63//39 2//40 1//40 
f 64//41 65//41 63//39 
f 66//42 67//42 65//41 
f 68//43 69//43 67//42 
f 70//44 71//44 69//43 
f 72//45 73//45 71//44 
f 62//46 45//46 73//45 
f 73//45 72//45 62//46 
f 71//44 70//44 72//45 
f 69//43 68//43 70//44 
f 67//42 66//42 68//43 
f 65//41 64//41 66//42 
f 63//39 74//47 64//41 
f 1//40 74//47 63//39 
o mesh7
f 75//48 76//48 6//48 
f 75//48 20//48 18//48 
f 6//48 8//48 75//48 
f 77//48 14//48 12//48 
f 78//48 18//48 16//48 
f 8//48 20//48 75//48 
f 79//48 57//48 55//48 
f 59//48 57//48 80//48 
f 81//48 82//48 25//48 
f 83//48 28//48 26//48 
f 84//48 85//48 9//48 
f 12//48 85//48 77//48 
f 86//48 16//48 14//48 
f 18//48 78//48 75//48 
f 87//48 74//48 1//48 
f 55//48 88//48 79//48 
f 25//48 59//48 81//48 
f 89//48 26//48 42//48 
f 26//48 89//48 83//48 
f 12//48 9//48 85//48 
f 16//48 86//48 78//48 
f 90//48 91//48 92//48 
f 87//48 64//48 74//48 
f 53//48 51//48 93//48 
f 55//48 53//48 94//48 
f 80//48 81//48 59//48 
f 83//48 95//48 28//48 
f 96//48 30//48 28//48 
f 97//48 98//48 41//48 
f 39//48 99//48 84//48 
f 14//48 77//48 86//48 
f 91//48 100//48 92//48 
f 87//48 66//48 64//48 
f 101//48 62//48 72//48 
f 93//48 102//48 53//48 
f 79//48 80//48 57//48 
f 28//48 95//48 96//48 
f 30//48 96//48 97//48 
f 35//48 103//48 104//48 
f 37//48 104//48 99//48 
f 9//48 22//48 84//48 
f 91//48 105//48 100//48 
f 87//48 68//48 66//48 
f 72//48 87//48 101//48 
f 106//48 43//48 62//48 
f 51//48 49//48 107//48 
f 94//48 88//48 55//48 
f 108//48 42//48 25//48 
f 41//48 30//48 97//48 
f 35//48 109//48 103//48 
f 84//48 22//48 39//48 
f 91//48 110//48 105//48 
f 4//48 111//48 90//48 
f 87//48 70//48 68//48 
f 62//48 101//48 106//48 
f 49//48 47//48 112//48 
f 102//48 94//48 53//48 
f 42//48 108//48 89//48 
f 98//48 113//48 33//48 
f 33//48 113//48 109//48 
f 99//48 39//48 37//48 
f 76//48 111//48 4//48 
f 90//48 87//48 4//48 
f 72//48 70//48 87//48 
f 61//48 43//48 106//48 
f 47//48 61//48 114//48 
f 107//48 93//48 51//48 
f 33//48 41//48 98//48 
f 104//48 37//48 35//48 
f 92//48 87//48 90//48 
f 115//48 116//48 111//48 
f 106//48 114//48 61//48 
f 112//48 107//48 49//48 
f 109//48 35//48 33//48 
f 111//48 76//48 115//48 
f 114//48 112//48 47//48 
f 4//48 6//48 76//48 
f 25//48 82//48 108//48 
f 1//48 4//48 87//48 
o mesh8
f 117//49 60//49 24//49 
f 60//49 117//49 118//49 
f 119//49 120//49 24//49 
f 118//49 58//49 60//49 
f 121//49 122//49 56//49 
f 123//49 7//49 5//49 
f 124//49 125//49 27//49 
f 24//49 120//49 117//49 
f 58//49 118//49 121//49 
f 123//49 21//49 7//49 
f 123//49 126//49 19//49 
f 29//49 127//49 124//49 
f 125//49 119//49 23//49 
f 56//49 58//49 121//49 
f 56//49 122//49 128//49 
f 54//49 129//49 130//49 
f 19//49 21//49 123//49 
f 126//49 131//49 17//49 
f 132//49 133//49 13//49 
f 134//49 31//49 32//49 
f 135//49 127//49 29//49 
f 23//49 27//49 125//49 
f 128//49 54//49 56//49 
f 54//49 128//49 129//49 
f 136//49 3//49 2//49 
f 17//49 19//49 126//49 
f 131//49 132//49 15//49 
f 133//49 10//49 13//49 
f 137//49 11//49 10//49 
f 32//49 138//49 134//49 
f 27//49 29//49 124//49 
f 130//49 52//49 54//49 
f 52//49 130//49 139//49 
f 2//49 63//49 136//49 
f 140//49 136//49 141//49 
f 15//49 17//49 131//49 
f 10//49 133//49 137//49 
f 29//49 31//49 135//49 
f 139//49 50//49 52//49 
f 142//49 136//49 73//49 
f 63//49 65//49 136//49 
f 141//49 143//49 140//49 
f 13//49 15//49 132//49 
f 40//49 11//49 137//49 
f 24//49 23//49 119//49 
f 50//49 139//49 144//49 
f 145//49 142//49 45//49 
f 136//49 71//49 73//49 
f 65//49 67//49 136//49 
f 141//49 146//49 143//49 
f 137//49 147//49 40//49 
f 38//49 40//49 147//49 
f 36//49 38//49 148//49 
f 144//49 48//49 50//49 
f 48//49 144//49 149//49 
f 73//49 45//49 142//49 
f 67//49 69//49 136//49 
f 3//49 136//49 140//49 
f 146//49 150//49 143//49 
f 147//49 148//49 38//49 
f 148//49 151//49 36//49 
f 138//49 32//49 34//49 
f 149//49 46//49 48//49 
f 46//49 149//49 145//49 
f 69//49 71//49 136//49 
f 150//49 152//49 143//49 
f 153//49 5//49 3//49 
f 151//49 154//49 36//49 
f 34//49 36//49 154//49 
f 134//49 135//49 31//49 
f 45//49 44//49 145//49 
f 155//49 153//49 156//49 
f 3//49 156//49 153//49 
f 154//49 157//49 34//49 
f 145//49 44//49 46//49 
f 140//49 156//49 3//49 
f 34//49 157//49 138//49 
f 5//49 153//49 123//49 
f 156//49 158//49 155//49 
o mesh9
f 105//50 150//50 146//51 
f 110//52 152//52 150//50 
f 150//50 105//50 110//52 
f 146//51 100//51 105//50 
o mesh10
f 92//53 141//53 136//54 
f 100//55 146//55 141//53 
f 141//53 92//53 100//55 
f 136//54 87//54 92//53 
o mesh11
f 139//56 130//57 93//57 
f 112//58 144//58 139//56 
f 114//59 149//59 144//58 
f 106//60 145//60 149//59 
f 101//61 142//61 145//60 
f 87//62 136//62 142//61 
f 142//61 101//61 87//62 
f 145//60 106//60 101//61 
f 149//59 114//59 106//60 
f 144//58 112//58 114//59 
f 139//56 107//63 112//58 
f 93//57 107//63 139//56 
o mesh12
f 88//64 122//64 121//65 
f 94//66 128//66 122//64 
f 102//67 129//67 128//66 
f 93//68 130//68 129//67 
f 129//67 102//67 93//68 
f 128//66 94//66 102//67 
f 122//64 88//64 94//66 
f 121//65 79//69 88//64 
o mesh13
f 81//70 117//70 120//71 
f 118//72 117//70 81//70 
f 79//73 121//73 118//72 
f 118//72 80//72 79//73 
f 81//70 80//72 118//72 
f 120//71 82//74 81//70 
o mesh14
f 89//75 125//75 124//76 
f 108//77 119//77 125//75 
f 82//78 120//78 119//77 
f 119//77 108//77 82//78 
f 125//75 89//75 108//77 
f 124//76 83//79 89//75 
o mesh15
f 109//80 154//80 151//81 
f 157//82 154//80 109//80 
f 98//83 138//83 157//82 
f 97//84 134//84 138//83 
f 96//85 135//85 134//84 
f 95//86 127//86 135//85 
f 83//87 124//87 127//86 
f 127//86 95//86 83//87 
f 135//85 96//85 95//86 
f 134//84 97//84 96//85 
f 138//83 98//83 97//84 
f 157//82 113//88 98//83 
f 109//80 113//88 157//82 
f 151//81 103//89 109//80 
o mesh16
f 78//90 126//90 123//91 
f 86//92 131//92 126//90 
f 77//93 132//93 131//92 
f 85//94 133//94 132//93 
f 84//95 137//95 133//94 
f 99//96 147//96 137//95 
f 104//97 148//97 147//96 
f 103//98 151//98 148//97 
f 148//97 104//97 103//98 
f 147//96 99//96 104//97 
f 137//95 84//95 99//96 
f 133//94 85//94 84//95 
f 132//93 77//93 85//94 
f 131//92 86//92 77//93 
f 126//90 78//90 86//92 
f 123//91 75//99 78//90 
o mesh17
f 75//99 123//99 153//99 
f 153//99 76//99 75//99 
o mesh18
f 76//100 153//100 155//100 
f 155//100 115//100 76//100 
o mesh19
f 115//101 155//101 158//101 
f 158//101 116//101 115//101 
o mesh20
f 116//102 158//102 156//102 
f 156//102 111//102 116//102 
o mesh21
f 111//101 156//101 140//101 
f 140//101 90//101 111//101 
o mesh22
f 90//103 140//103 143//103 
f 143//103 91//103 90//103 
o mesh23
f 91//104 143//104 152//104 
f 152//104 110//104 91//104 
