# https://github.com/mikedh/trimesh
v -0.00705074 0.04085559 0.07500000
v -0.00916474 0.03274302 0.07500000
v -0.01198369 0.03943927 0.07500000
v -0.03170611 -0.00867157 0.07500000
v -0.01976459 -0.00793431 0.07500000
v -0.02622311 0.00470365 0.07500000
v -0.01817163 -0.00182127 0.07500000
v -0.01442617 0.03348108 0.07500000
v -0.02967910 -0.00372688 0.07500000
f 1 2 2
f 4 2 1
f 1 1 2
f 1 2 3
f 1 3 1
f 3 4 1
f 3 1 3
f 5 2 4
f 4 3 2
f 4 5 4
f 6 3 4
f 7 2 2
f 7 2 5
f 5 4 2
f 5 5 4
f 5 7 5
f 8 3 3
f 8 4 3
f 9 4 4
f 9 4 8
f 7 5 2
f 7 2 7
f 7 7 5
f 8 8 3
f 8 3 6
f 8 6 8
f 9 9 6
f 9 6 4
f 9 4 9
f 6 9 8
f 6 8 6
f 6 6 9

