# OBJ generated by ONSHAPE BY PTC INC, 1.200 Units = meters
mtllib lollipop.mtl
g Part 1
v -0.0404145 -0.07 0.025 
v -0.0404145 -0.07 -0.025 
v -0.01 -0.07 -0.025 
v -0.01 -0.07 0.025 
v -0.01 -0.11 -0.025 
v -0.01 -0.11 0.025 
v 0.01 -0.11 -0.025 
v 0.01 -0.11 0.025 
v 0.01 -0.07 -0.025 
v 0.01 -0.07 0.025 
v 0.0404145 -0.07 -0.025 
v 0.0404145 -0.07 0.025 
v 0.080829 -4.16334e-17 -0.025 
v 0.080829 -4.16334e-17 0.025 
v 0.0404145 0.07 -0.025 
v 0.0404145 0.07 0.025 
v -0.0404145 0.07 -0.025 
v -0.0404145 0.07 0.025 
v -0.080829 2.38524e-18 -0.025 
v -0.080829 2.38524e-18 0.025 
v 0.034641 0.06 0.025 
v 0.069282 6.93889e-18 0.025 
v -0.034641 0.06 0.025 
v 0.034641 -0.06 0.025 
v -0.069282 -6.93889e-18 0.025 
v -0.034641 -0.06 0.025 
v -0.034641 0.06 -0.025 
v 0.034641 0.06 -0.025 
v -0.034641 -0.06 -0.025 
v -0.069282 -6.93889e-18 -0.025 
v 0.069282 6.93889e-18 -0.025 
v 0.034641 -0.06 -0.025 
vn 0 -1 0 
vn -1 0 0 
vn 1 0 0 
vn 0 -1 0 
vn 0.866025 -0.5 0 
vn 0.866025 0.5 0 
vn 0 1 0 
vn -0.866025 0.5 0 
vn -0.866025 -0.5 0 
vn 0 0 1 
vn 0 0 -1 
vn -0.866025 0.5 0 
vn 0 1 0 
vn 0.866025 0.5 0 
vn 0.866025 -0.5 0 
vn 2.00309e-16 -1 0 
vn -0.866025 -0.5 0 
usemtl 0.615686_0.811765_0.929412_0.000000_0.000000
o mesh0
f 1//1 2//1 3//1 
f 3//1 4//1 1//1 
o mesh1
f 4//2 3//2 5//2 
f 5//2 6//2 4//2 
o mesh2
f 6//1 5//1 7//1 
f 7//1 8//1 6//1 
o mesh3
f 8//3 7//3 9//3 
f 9//3 10//3 8//3 
o mesh4
f 10//4 9//4 11//4 
f 11//4 12//4 10//4 
o mesh5
f 12//5 11//5 13//5 
f 13//5 14//5 12//5 
o mesh6
f 14//6 13//6 15//6 
f 15//6 16//6 14//6 
o mesh7
f 16//7 15//7 17//7 
f 17//7 18//7 16//7 
o mesh8
f 18//8 17//8 19//8 
f 19//8 20//8 18//8 
o mesh9
f 20//9 19//9 2//9 
f 2//9 1//9 20//9 
o mesh10
f 16//10 21//10 22//10 
f 16//10 18//10 23//10 
f 24//10 4//10 10//10 
f 12//10 14//10 22//10 
f 23//10 21//10 16//10 
f 20//10 25//10 23//10 
f 1//10 26//10 25//10 
f 26//10 1//10 4//10 
f 22//10 24//10 12//10 
f 8//10 10//10 4//10 
f 23//10 18//10 20//10 
f 4//10 24//10 26//10 
f 4//10 6//10 8//10 
f 25//10 20//10 1//10 
f 22//10 14//10 16//10 
f 10//10 12//10 24//10 
o mesh11
f 19//11 17//11 27//11 
f 17//11 15//11 28//11 
f 29//11 9//11 3//11 
f 2//11 19//11 30//11 
f 28//11 27//11 17//11 
f 15//11 13//11 31//11 
f 11//11 32//11 31//11 
f 32//11 11//11 9//11 
f 30//11 29//11 2//11 
f 5//11 3//11 9//11 
f 31//11 28//11 15//11 
f 9//11 29//11 32//11 
f 9//11 7//11 5//11 
f 31//11 13//11 11//11 
f 27//11 30//11 19//11 
f 3//11 2//11 29//11 
o mesh12
f 22//12 31//12 32//12 
f 32//12 24//12 22//12 
o mesh13
f 24//13 32//13 29//13 
f 29//13 26//13 24//13 
o mesh14
f 26//14 29//14 30//14 
f 30//14 25//14 26//14 
o mesh15
f 25//15 30//15 27//15 
f 27//15 23//15 25//15 
o mesh16
f 23//16 27//16 28//16 
f 28//16 21//16 23//16 
o mesh17
f 21//17 28//17 31//17 
f 31//17 22//17 21//17 
