# https://github.com/mikedh/trimesh
v 0.07018563 -0.01843487 0.02500000
v 0.06782374 -0.02252578 0.02500000
v 0.06782374 -0.02252578 -0.02500000
v 0.05811629 -0.01933959 -0.02500000
v 0.03235282 -0.06000000 0.02500000
v 0.07018563 -0.01843487 -0.02500000
v 0.05811629 -0.01933959 0.02500000
v 0.04583599 -0.06060969 0.02500000
v 0.03235282 -0.06227273 -0.02500000
v 0.03235282 -0.06000000 -0.02500000
v 0.03235282 -0.06227273 0.02500000
v 0.04583599 -0.06060969 -0.02500000
f 1 2 3
f 5 2 1
f 6 1 3
f 6 3 4
f 6 4 1
f 7 5 1
f 7 1 4
f 7 4 5
f 8 3 2
f 8 2 5
f 9 4 3
f 10 9 5
f 10 5 4
f 10 4 9
f 11 9 8
f 11 8 5
f 11 5 9
f 12 9 3
f 12 3 8
f 12 8 9

