# https://github.com/mikedh/trimesh
v 0.11940001 0.06050930 0.03763656
v 0.12144770 0.04820309 0.03708920
v 0.12193587 0.06519106 -0.01229602
v 0.04157446 0.07026063 -0.01841300
v 0.03818918 -0.04291116 0.03841518
v 0.10996353 0.07182041 0.00296648
v 0.12544770 0.06226063 0.01500550
v 0.03944770 0.06969571 0.03600651
v 0.09544770 -0.00012325 -0.01437601
v 0.12144770 0.05666134 0.03721889
v 0.11867020 0.06897939 0.00893425
v 0.06513228 0.06889572 0.03738856
v 0.03575394 -0.03573937 -0.01029602
v 0.03868248 0.07237084 0.01371230
v 0.04516616 -0.04173937 0.03787244
v 0.12459376 0.05026063 0.01370398
v 0.07434581 -0.02063207 -0.01902099
v 0.12544770 0.06026063 0.01673253
v 0.12144770 0.06247011 0.02711500
v 0.11944770 0.06966522 0.00370398
v 0.11534411 0.06568902 0.02653863
v 0.11000945 0.02626063 0.01370398
v 0.03744770 -0.04201436 0.02001833
v 0.11814567 0.04417251 -0.01429602
v 0.12544770 0.05554340 0.00360510
v 0.03744770 -0.03373936 -0.01555079
v 0.07544770 -0.01929258 -0.01229602
v 0.12387321 0.05226063 0.02207193
v 0.12243766 0.06626064 0.00370398
v 0.11735692 0.06826063 0.01374210
v 0.06144770 -0.03209054 -0.01809254
v 0.12397375 0.06202810 -0.00006349
v 0.12231823 0.06026063 -0.01229602
v 0.03869707 0.01120920 -0.01703784
f 5 2 1
f 6 3 4
f 10 7 1
f 10 1 2
f 12 8 5
f 12 5 1
f 13 5 8
f 14 6 4
f 14 13 8
f 14 4 13
f 14 12 6
f 14 8 12
f 15 2 5
f 18 10 2
f 18 7 10
f 19 1 7
f 20 3 6
f 20 6 11
f 20 19 7
f 20 11 19
f 21 6 12
f 21 12 1
f 21 19 11
f 21 1 19
f 22 15 9
f 22 2 15
f 22 16 2
f 22 9 16
f 23 15 5
f 23 5 13
f 24 16 9
f 24 9 17
f 24 17 4
f 24 4 3
f 25 18 16
f 25 7 18
f 25 16 24
f 27 17 9
f 27 9 15
f 28 18 2
f 28 2 16
f 28 16 18
f 29 20 7
f 29 7 3
f 29 3 20
f 30 21 11
f 30 11 6
f 30 6 21
f 31 15 23
f 31 27 15
f 31 17 27
f 31 23 13
f 31 13 26
f 31 4 17
f 32 25 3
f 32 3 7
f 32 7 25
f 33 25 24
f 33 24 3
f 33 3 25
f 34 26 13
f 34 13 4
f 34 31 26
f 34 4 31

