# https://github.com/mikedh/trimesh
v 0.11940001 0.06050930 0.03763656
v 0.12077715 0.06244114 0.02741604
v 0.06513228 0.06889572 0.03738856
v 0.04157446 0.07026063 -0.01841300
v 0.08744770 0.05850954 -0.01629602
v 0.11148974 0.07422445 -0.01439742
v 0.12193587 0.06519106 -0.01229602
v 0.03744770 0.06826063 0.00813328
v 0.03881376 0.07530776 -0.01375266
v 0.11226269 0.06521202 0.03651897
v 0.12344770 0.06528474 0.00370398
v 0.11877287 0.06985571 -0.01320114
v 0.06696343 0.06848484 0.03721971
v 0.08587475 0.07626063 -0.01429602
v 0.03868248 0.07237084 0.01371230
v 0.11754532 0.06226063 0.03703087
v 0.10357831 0.06931294 0.02583459
v 0.11944770 0.06966522 0.00370398
v 0.12135708 0.06689857 -0.01238664
v 0.08944770 0.07635203 -0.01399339
v 0.06889980 0.06889546 0.03715608
v 0.11669401 0.06450183 0.03040228
v 0.11286761 0.07226063 -0.00249294
f 6 5 4
f 7 1 5
f 8 5 1
f 8 4 5
f 9 4 8
f 10 3 1
f 11 2 1
f 11 1 7
f 12 7 5
f 12 5 6
f 13 8 1
f 13 1 3
f 13 3 8
f 14 6 4
f 14 4 9
f 15 9 8
f 15 8 3
f 16 10 1
f 16 1 2
f 18 2 11
f 18 16 2
f 18 17 10
f 18 12 6
f 18 11 12
f 19 12 11
f 19 11 7
f 19 7 12
f 20 14 9
f 20 9 15
f 20 15 3
f 20 17 6
f 20 6 14
f 21 3 10
f 21 10 17
f 21 20 3
f 21 17 20
f 22 18 10
f 22 10 16
f 22 16 18
f 23 18 6
f 23 6 17
f 23 17 18

