# https://github.com/mikedh/trimesh
v 0.11944770 0.05108111 -0.01229602
v 0.11814567 0.04417251 -0.01429602
v 0.10826187 0.04873380 -0.03232214
v 0.06144770 0.04551063 -0.06629601
v 0.03856214 -0.02660919 -0.01729419
v 0.07827748 0.04826063 -0.05851609
v 0.07379942 -0.02373937 -0.02029602
v 0.03869707 0.04882913 -0.01361785
v 0.08544770 -0.01276507 -0.01999049
v 0.09206624 0.01050939 -0.01429602
v 0.06426396 -0.02693425 -0.07250748
v 0.04049475 -0.01665221 -0.06075109
v 0.04744770 0.04826063 -0.05640243
v 0.03869707 0.01120920 -0.01361785
v 0.07675315 -0.02703266 -0.06179295
v 0.06344770 0.00960189 -0.07229601
v 0.03944730 -0.02667160 -0.05644513
v 0.04114205 0.04826063 -0.04908724
v 0.05239460 0.01749288 -0.06429602
v 0.05744770 -0.02724406 -0.07182250
v 0.08344770 -0.02330532 -0.03429602
v 0.09003228 -0.00173937 -0.04829602
v 0.07144770 -0.01444117 -0.06843039
v 0.06581654 0.02155341 -0.06989296
v 0.04214934 -0.01780316 -0.06221769
v 0.06263526 0.00426063 -0.07229601
v 0.08144770 -0.02573936 -0.05246879
v 0.09037104 -0.01173937 -0.02629602
v 0.07015709 -0.02596975 -0.06837602
v 0.06229077 0.04426063 -0.06629601
v 0.06458949 0.00997796 -0.07168389
v 0.08288929 -0.02373937 -0.03629602
v 0.08975054 -0.01050362 -0.04429602
v 0.08625924 -0.01907136 -0.04229602
f 1 2 3
f 6 1 3
f 10 5 7
f 10 7 9
f 10 9 2
f 10 2 1
f 13 6 4
f 13 1 6
f 14 8 5
f 14 5 10
f 14 10 1
f 14 1 8
f 15 7 5
f 17 5 8
f 18 13 12
f 18 8 1
f 18 1 13
f 18 17 8
f 18 12 17
f 19 13 4
f 19 4 16
f 20 15 5
f 20 11 15
f 20 5 17
f 21 9 7
f 22 15 3
f 22 3 2
f 23 6 3
f 23 3 15
f 24 16 4
f 24 6 23
f 25 12 13
f 25 13 19
f 25 19 16
f 25 20 17
f 25 17 12
f 26 16 11
f 26 11 20
f 26 25 16
f 26 20 25
f 27 7 15
f 28 2 9
f 28 9 21
f 29 23 15
f 29 15 11
f 29 11 23
f 30 24 4
f 30 4 6
f 30 6 24
f 31 24 23
f 31 16 24
f 31 23 11
f 31 11 16
f 32 27 21
f 32 21 7
f 32 7 27
f 33 22 2
f 33 27 15
f 33 15 22
f 34 28 21
f 34 21 27
f 34 27 33
f 34 33 2
f 34 2 28

