# https://github.com/mikedh/trimesh
v 0.03869707 0.04882913 -0.00677786
v 0.03744770 -0.02575681 -0.01229602
v 0.04055847 -0.01284041 -0.05952585
v 0.03983436 0.06332347 -0.04612843
v -0.01458799 0.00803395 -0.00593288
v 0.04098528 0.08026063 -0.04029602
v 0.03869707 0.00778921 -0.00677786
v -0.01134356 -0.02631252 -0.00936299
v 0.00289488 0.01626063 -0.03429602
v 0.04075609 0.07826063 -0.04176412
v -0.00376858 0.04945941 -0.00709724
v -0.00970985 0.03836590 -0.00486858
v 0.03944730 -0.02667160 -0.05644513
v -0.01296981 -0.02327372 -0.00802574
v 0.03744770 -0.01454485 -0.05829602
v 0.03784825 0.07802148 -0.04053517
v 0.01944770 0.07778999 -0.02342561
v -0.01450130 0.00962176 -0.00493114
v 0.00744770 0.04226063 -0.02727705
v -0.01281412 0.00599881 -0.01172430
v -0.01255230 -0.02014425 -0.01429602
v 0.03944770 -0.01973937 -0.06012298
v 0.03820163 0.07661150 -0.02427027
v 0.03741486 0.08026063 -0.03829601
v 0.01963248 0.07744645 -0.02448971
v -0.00358169 0.04826063 -0.00829602
v 0.01568078 -0.02573936 -0.03687798
v -0.01261180 -0.01951555 -0.01429602
v -0.00232192 0.04426063 -0.01229602
v -0.00575733 -0.02491783 -0.01723338
v 0.03744770 -0.02398158 -0.05629601
v -0.01055230 -0.02573936 -0.01104170
f 7 2 3
f 7 6 1
f 7 3 6
f 10 6 3
f 10 3 4
f 12 7 1
f 12 1 11
f 13 3 2
f 13 2 8
f 14 8 2
f 14 2 7
f 15 9 4
f 15 4 3
f 16 10 4
f 16 4 9
f 16 6 10
f 17 11 1
f 18 12 5
f 18 7 12
f 18 14 7
f 18 5 14
f 19 9 12
f 20 12 9
f 20 5 12
f 21 8 14
f 22 15 3
f 22 3 13
f 22 21 9
f 22 9 15
f 23 17 1
f 23 1 6
f 24 6 16
f 24 23 6
f 24 17 23
f 25 16 9
f 25 9 19
f 25 11 17
f 25 24 16
f 25 17 24
f 26 12 11
f 26 25 19
f 26 11 25
f 27 13 8
f 27 21 22
f 28 20 9
f 28 9 21
f 28 5 20
f 28 21 14
f 28 14 5
f 29 26 19
f 29 19 12
f 29 12 26
f 30 27 8
f 30 21 27
f 31 27 22
f 31 22 13
f 31 13 27
f 32 30 8
f 32 8 21
f 32 21 30

