# https://github.com/mikedh/trimesh
v 0.06212392 -0.02604854 -0.01703508
v 0.08270565 -0.02346636 -0.03459837
v -0.01055230 -0.02573936 -0.01104170
v 0.05890456 -0.03696199 -0.07429602
v 0.02744770 -0.06483856 -0.01029602
v 0.05744770 -0.02724406 -0.07182250
v 0.03744770 -0.02575681 -0.01229602
v 0.03463627 -0.06173936 -0.01029602
v 0.05944770 -0.06173936 -0.07673051
v 0.03511574 -0.02514772 -0.05270344
v 0.07675315 -0.02703266 -0.06179295
v 0.06144770 -0.03209054 -0.01809254
v -0.01055230 -0.03429147 -0.00864404
v 0.06344770 -0.06054765 -0.06429602
v 0.07015709 -0.02596975 -0.06837602
v 0.04944770 -0.03076974 -0.06829602
v -0.00255230 -0.05713214 -0.00782256
v -0.01134356 -0.02631252 -0.00936299
v 0.00119354 -0.04373937 -0.02048808
v 0.04194421 -0.06424741 -0.03629602
v 0.06944770 -0.05451079 -0.06429602
v 0.06426396 -0.02693425 -0.07250748
v 0.06570878 -0.05900666 -0.07200597
v 0.05584111 -0.05109887 -0.07514541
v 0.01344770 -0.06429661 -0.00893603
v -0.01022181 -0.03373936 -0.00968977
v 0.00144770 -0.04874133 -0.01835961
v 0.07607792 -0.03373936 -0.06229602
v 0.06566460 -0.04407817 -0.07259865
v 0.06211536 -0.03833951 -0.07486806
v 0.06636157 -0.05973937 -0.07069772
v 0.00326574 -0.02713673 -0.02429602
v 0.05560256 -0.05268870 -0.07475226
v 0.04073764 -0.06433871 -0.03629602
v 0.01344770 -0.06415336 -0.01229602
v 0.07654038 -0.03773937 -0.05029602
v 0.06530111 -0.06022045 -0.07152385
v 0.06856770 -0.05573936 -0.06829602
f 7 1 2
f 7 2 3
f 8 1 7
f 10 3 2
f 12 8 2
f 12 2 1
f 12 1 8
f 15 10 2
f 15 2 11
f 16 10 6
f 16 6 4
f 16 3 10
f 17 8 7
f 17 7 13
f 18 13 7
f 18 7 3
f 20 14 8
f 20 8 5
f 20 9 14
f 21 2 8
f 21 8 14
f 22 6 10
f 22 10 15
f 22 4 6
f 24 16 4
f 24 4 9
f 25 5 8
f 25 8 17
f 26 18 3
f 26 13 18
f 26 3 19
f 26 17 13
f 27 19 9
f 27 9 17
f 27 26 19
f 27 17 26
f 28 11 2
f 29 23 9
f 29 15 11
f 29 28 23
f 29 11 28
f 30 9 4
f 30 4 22
f 30 29 9
f 30 22 15
f 30 15 29
f 31 21 14
f 32 24 3
f 32 3 16
f 32 16 24
f 33 19 3
f 33 3 24
f 33 24 9
f 33 9 19
f 34 20 5
f 34 5 25
f 34 9 20
f 35 25 17
f 35 17 9
f 35 34 25
f 35 9 34
f 36 28 2
f 36 2 21
f 37 31 14
f 37 14 9
f 37 9 23
f 37 23 31
f 38 21 31
f 38 36 21
f 38 28 36
f 38 31 23
f 38 23 28

