# https://github.com/mikedh/trimesh
v 0.03869707 0.04540914 0.03768206
v 0.04372860 -0.03173937 0.03370398
v 0.03869707 0.04540914 -0.00677786
v -0.00971428 0.04352782 -0.00455069
v -0.05234746 -0.00088509 0.03949914
v 0.01744770 -0.06602313 -0.00899917
v -0.03900505 0.04602916 0.03707177
v 0.01557237 -0.06805016 0.03768654
v 0.03855665 -0.02980256 -0.01020839
v -0.01206733 -0.02610224 -0.00829602
v -0.01215910 0.04426063 -0.00055151
v -0.03983695 0.04560478 0.03892719
v -0.04691925 -0.00373937 0.02770398
v 0.01744770 -0.06750414 -0.00229602
v 0.03869707 0.00778921 -0.01019785
v -0.01331853 0.00670713 -0.00930595
v -0.02496806 0.04426063 0.01570398
v -0.04855230 0.00826063 0.03417009
v -0.01055230 -0.06573937 0.00677098
v 0.01344770 -0.06429661 -0.00893603
v -0.01731556 0.00226063 -0.00669843
v -0.02951553 0.04055286 0.01970398
v -0.05149806 0.00426063 0.03936086
v -0.00655230 -0.06173936 -0.00350267
v -0.04855230 -0.01053681 0.03770398
v -0.00055230 -0.07202032 0.02170398
v -0.04055230 0.00026063 0.02034209
v -0.01543161 -0.00773937 -0.00829602
v -0.00925563 -0.05925418 -0.00065846
v -0.01975807 -0.00973937 -0.00429602
v -0.00412019 -0.05854263 -0.00662260
v -0.00692577 -0.06405678 -0.00032526
v -0.00855230 -0.07193338 0.03756151
v -0.00255230 -0.07173936 0.02165349
v 0.00547948 -0.07164164 0.03170398
v -0.03033441 -0.04052931 0.03803965
v 0.00468289 -0.07056991 0.03759339
v -0.01655230 -0.06112492 0.03770398
f 1 2 3
f 7 1 3
f 8 2 1
f 8 1 5
f 9 2 6
f 11 7 3
f 11 3 4
f 12 5 1
f 12 1 7
f 14 6 2
f 14 2 8
f 15 3 2
f 15 2 9
f 16 15 9
f 16 4 3
f 16 3 15
f 17 11 4
f 17 7 11
f 18 12 7
f 18 13 5
f 20 16 9
f 20 9 6
f 20 10 16
f 21 4 16
f 22 17 4
f 22 18 7
f 22 7 17
f 23 18 5
f 23 5 12
f 23 12 18
f 24 20 6
f 25 5 13
f 25 13 19
f 26 6 14
f 27 4 21
f 27 22 4
f 27 13 18
f 27 18 22
f 28 21 16
f 28 16 10
f 29 24 19
f 29 19 13
f 29 13 24
f 30 24 13
f 30 10 24
f 30 28 10
f 30 21 28
f 30 27 21
f 30 13 27
f 31 24 10
f 31 10 20
f 31 20 24
f 32 24 6
f 32 6 19
f 32 19 24
f 33 8 5
f 34 19 6
f 34 6 26
f 34 33 19
f 34 26 33
f 35 26 14
f 35 14 8
f 35 33 26
f 36 5 25
f 36 25 19
f 37 35 8
f 37 8 33
f 37 33 35
f 38 33 5
f 38 5 36
f 38 36 19
f 38 19 33

