# https://github.com/mikedh/trimesh
v 0.02144770 -0.03529678 0.09505677
v 0.05144770 -0.03573937 0.07256496
v 0.05047785 -0.02973937 0.07370398
v 0.02756304 -0.03173937 -0.01229602
v 0.01744770 -0.06845456 0.00169716
v 0.03855665 -0.02980256 -0.01020839
v 0.04744770 -0.03373936 0.08884228
v 0.01744770 -0.06602313 -0.00899917
v 0.04841450 -0.02906491 0.03770398
v 0.04744770 -0.03258090 0.08770398
v 0.01958725 -0.06395869 0.08370398
v 0.01747633 -0.06077114 0.08970398
v 0.03388986 -0.06235864 -0.01029602
v 0.05033512 -0.02973937 0.07352679
v 0.04587496 -0.04373937 0.07570398
v 0.01744770 -0.06494849 0.08370398
v 0.03344770 -0.05374658 0.08188041
v 0.01764674 -0.06151530 0.08970398
v 0.02744770 -0.06483856 -0.01029602
v 0.04902538 -0.03773937 0.04770398
v 0.04584699 -0.03999478 0.08370398
v 0.02944770 -0.06423192 0.01189451
v 0.01962716 -0.06686868 0.03139504
v 0.02244967 -0.06676984 -0.00129405
f 7 2 3
f 8 1 4
f 9 3 2
f 9 6 4
f 9 4 1
f 10 7 3
f 10 3 1
f 10 1 7
f 12 1 8
f 13 4 6
f 13 6 9
f 14 9 1
f 14 1 3
f 14 3 9
f 15 13 2
f 16 12 8
f 16 8 5
f 18 7 1
f 18 1 12
f 18 17 7
f 18 11 17
f 18 16 11
f 18 12 16
f 19 8 4
f 19 4 13
f 19 5 8
f 20 13 9
f 20 9 2
f 20 2 13
f 21 15 2
f 21 2 7
f 21 17 15
f 21 7 17
f 22 11 16
f 22 17 11
f 22 13 15
f 22 15 17
f 22 19 13
f 23 22 16
f 23 16 5
f 23 5 22
f 24 22 5
f 24 5 19
f 24 19 22

