# https://github.com/mikedh/trimesh
v 0.12193587 0.06519106 -0.01229602
v 0.12231823 0.06026063 -0.01229602
v 0.08655084 0.06626064 -0.05829602
v 0.06744770 0.07047424 -0.06629601
v 0.01046907 0.06460223 -0.00429602
v 0.09919044 0.07626063 -0.03854015
v 0.11344770 0.07169290 -0.02629602
v 0.03944770 0.06923576 -0.00629602
v 0.06144770 0.04588600 -0.06435003
v 0.08344770 0.07363684 -0.05829602
v 0.10826187 0.04873380 -0.03232214
v 0.11148974 0.07422445 -0.01439742
v 0.01389774 0.06461029 -0.02230969
v 0.06744770 0.06090614 -0.06629601
v 0.03744770 0.08026063 -0.03807264
v 0.09344770 0.07370203 -0.04829602
v 0.11476787 0.06150284 -0.02497585
v 0.07827748 0.04826063 -0.05851609
v 0.11666496 0.04799042 -0.01332444
v 0.03744770 0.07480600 -0.00629602
v 0.11877287 0.06985571 -0.01320114
v 0.10366911 0.07626063 -0.02647714
v 0.04114205 0.04826063 -0.04908724
v 0.06593163 0.06226063 -0.06629601
v 0.07042547 0.06426063 -0.06559379
v 0.05744770 0.08193397 -0.05429602
v 0.05744770 0.07663583 -0.05829602
v 0.01387219 0.07690404 -0.01833723
v 0.10454213 0.06826063 -0.03761317
v 0.11038545 0.05294467 -0.03029601
v 0.08686331 0.06021363 -0.05829602
v 0.11576478 0.04802052 -0.01593105
v 0.10344770 0.07647645 -0.01829602
v 0.11553249 0.07162850 -0.01984572
v 0.11251492 0.07226063 -0.02662595
v 0.03869707 0.04882913 -0.01361785
v 0.04744770 0.04826063 -0.05640243
v 0.07744770 0.08021008 -0.04977620
v 0.06944770 0.08051626 -0.05429602
v 0.05023135 0.08070286 -0.05029602
v 0.01080939 0.07626063 -0.00629602
v 0.01744770 0.07312011 -0.02429602
v 0.08879626 0.07626063 -0.04829602
f 7 1 2
f 8 5 2
f 8 2 1
f 10 3 4
f 16 3 10
f 16 10 6
f 16 6 7
f 17 7 2
f 18 11 9
f 18 9 14
f 19 2 5
f 20 8 1
f 20 5 8
f 21 1 7
f 21 20 1
f 21 12 20
f 23 5 13
f 24 14 9
f 24 4 14
f 25 14 4
f 25 4 3
f 27 26 4
f 29 16 7
f 29 3 16
f 29 7 17
f 30 17 2
f 30 2 11
f 30 29 17
f 31 11 18
f 31 30 11
f 31 3 29
f 31 29 30
f 31 25 3
f 31 18 14
f 31 14 25
f 32 11 2
f 32 2 19
f 32 19 9
f 32 9 11
f 33 20 12
f 33 26 15
f 33 12 22
f 34 21 7
f 34 12 21
f 35 7 6
f 35 6 22
f 35 34 7
f 35 22 12
f 35 12 34
f 36 19 5
f 36 5 23
f 36 23 9
f 36 9 19
f 37 24 9
f 37 9 23
f 37 23 13
f 37 27 4
f 37 4 24
f 38 22 6
f 38 33 22
f 38 26 33
f 39 10 4
f 39 4 26
f 39 38 10
f 39 26 38
f 40 15 26
f 40 26 27
f 40 28 15
f 41 28 13
f 41 13 5
f 41 5 20
f 41 15 28
f 41 33 15
f 41 20 33
f 42 13 28
f 42 37 13
f 42 27 37
f 42 40 27
f 42 28 40
f 43 38 6
f 43 6 10
f 43 10 38

