# https://github.com/mikedh/trimesh
v -0.07302045 0.00352482 0.02500000
v -0.04338873 -0.08000000 0.02500000
v -0.04338873 -0.05620618 -0.02500000
v -0.09160937 0.00132785 -0.02500000
v -0.09141821 -0.00165894 0.02500000
v -0.04628176 -0.07983761 -0.02500000
v -0.07302045 0.00352482 -0.02500000
v -0.04338873 -0.05620618 0.02500000
v -0.09160937 0.00132785 0.02500000
v -0.04338873 -0.08000000 -0.02500000
v -0.09141821 -0.00165894 -0.02500000
v -0.04628176 -0.07983761 0.02500000
f 5 2 1
f 6 4 3
f 7 3 4
f 7 4 1
f 8 1 2
f 8 7 1
f 8 3 7
f 9 5 1
f 9 1 4
f 10 6 3
f 10 2 6
f 10 8 2
f 10 3 8
f 11 4 6
f 11 9 4
f 11 5 9
f 12 6 2
f 12 2 5
f 12 11 6
f 12 5 11

