# OBJ generated by ONSHAPE BY PTC INC, 1.202 Units = meters
mtllib plus.mtl
g +
v 0.82946 0.0804688 0.0025 
v 0.787565 0.0804688 0.0025 
v 0.787565 0.0804688 0.0375 
v 0.82946 0.0804688 0.0375 
v 0.787565 0.123991 0.0025 
v 0.787565 0.123991 0.0375 
v 0.787553 0.0804567 0.037745 
v 0.829412 0.0804207 0.0379877 
v 0.829448 0.0804567 0.037745 
v 0.787517 0.0804207 0.0379877 
v 0.787457 0.0803611 0.0382257 
v 0.829269 0.0802784 0.0384567 
v 0.829352 0.0803611 0.0382257 
v 0.787375 0.0802784 0.0384567 
v 0.78727 0.0801736 0.0386785 
v 0.829038 0.0800474 0.0388889 
v 0.829164 0.0801736 0.0386785 
v 0.787144 0.0800474 0.0388889 
v 0.786833 0.0797365 0.0392678 
v 0.828727 0.0797365 0.0392678 
v 0.828349 0.0793577 0.0395787 
v 0.786454 0.0793577 0.0395787 
v 0.786022 0.0789255 0.0398097 
v 0.827916 0.0789255 0.0398097 
v 0.827447 0.0784565 0.039952 
v 0.785553 0.0784565 0.039952 
v 0.785065 0.0779688 0.04 
v 0.82696 0.0779688 0.04 
v 0.829412 0.0664868 0.0379877 
v 0.829448 0.0664508 0.037745 
v 0.82946 0.0664388 0.0375 
v 0.829352 0.0665465 0.0382257 
v 0.829269 0.0666291 0.0384567 
v 0.829164 0.066734 0.0386785 
v 0.829038 0.0668601 0.0388889 
v 0.828727 0.067171 0.0392678 
v 0.827916 0.0679821 0.0398097 
v 0.82696 0.0689388 0.04 
v 0.827447 0.0684511 0.039952 
v 0.828349 0.0675499 0.0395787 
v 0.785065 0.121491 0.04 
v 0.786022 0.122448 0.0398097 
v 0.785553 0.121979 0.039952 
v 0.786454 0.12288 0.0395787 
v 0.786833 0.123259 0.0392678 
v 0.78727 0.123696 0.0386785 
v 0.787144 0.12357 0.0388889 
v 0.787375 0.123801 0.0384567 
v 0.787457 0.123883 0.0382257 
v 0.787517 0.123943 0.0379877 
v 0.787553 0.123979 0.037745 
v 0.775417 0.121979 0.039952 
v 0.775905 0.121491 0.04 
v 0.774948 0.122448 0.0398097 
v 0.774516 0.12288 0.0395787 
v 0.774137 0.123259 0.0392678 
v 0.773826 0.12357 0.0388889 
v 0.7737 0.123696 0.0386785 
v 0.773595 0.123801 0.0384567 
v 0.773513 0.123883 0.0382257 
v 0.773453 0.123943 0.0379877 
v 0.773417 0.123979 0.037745 
v 0.773405 0.123991 0.0375 
v 0.773405 0.123991 0.0025 
v 0.775417 0.0784565 0.039952 
v 0.774948 0.0789255 0.0398097 
v 0.774516 0.0793577 0.0395787 
v 0.774137 0.0797365 0.0392678 
v 0.773826 0.0800474 0.0388889 
v 0.773595 0.0802784 0.0384567 
v 0.7737 0.0801736 0.0386785 
v 0.773453 0.0804207 0.0379877 
v 0.773513 0.0803611 0.0382257 
v 0.773405 0.0804688 0.0375 
v 0.773417 0.0804567 0.037745 
v 0.775905 0.0779688 0.04 
v 0.787553 0.0804567 0.00225496 
v 0.787517 0.123943 0.00201227 
v 0.787553 0.123979 0.00225496 
v 0.787517 0.0804207 0.00201227 
v 0.787457 0.0803611 0.00177429 
v 0.787375 0.123801 0.00154329 
v 0.787457 0.123883 0.00177429 
v 0.787375 0.0802784 0.00154329 
v 0.78727 0.0801736 0.00132151 
v 0.787144 0.12357 0.00111107 
v 0.78727 0.123696 0.00132151 
v 0.786833 0.123259 0.000732233 
v 0.787144 0.0800474 0.00111107 
v 0.786833 0.0797365 0.000732233 
v 0.786454 0.0793577 0.000421326 
v 0.786454 0.12288 0.000421326 
v 0.786022 0.122448 0.000190301 
v 0.786022 0.0789255 0.000190301 
v 0.785553 0.0784565 4.80368e-05 
v 0.785553 0.121979 4.80368e-05 
v 0.785065 0.0779688 0 
v 0.785065 0.121491 0 
v 0.773417 0.123979 0.00225496 
v 0.773453 0.123943 0.00201227 
v 0.773595 0.123801 0.00154329 
v 0.773513 0.123883 0.00177429 
v 0.7737 0.123696 0.00132151 
v 0.773826 0.12357 0.00111107 
v 0.774137 0.123259 0.000732233 
v 0.774948 0.122448 0.000190301 
v 0.775905 0.121491 0 
v 0.775417 0.121979 4.80368e-05 
v 0.774516 0.12288 0.000421326 
v 0.773405 0.0804688 0.0025 
v 0.734206 0.0779688 0.04 
v 0.733718 0.0784565 0.039952 
v 0.732817 0.0793577 0.0395787 
v 0.733249 0.0789255 0.0398097 
v 0.732127 0.0800474 0.0388889 
v 0.732438 0.0797365 0.0392678 
v 0.732001 0.0801736 0.0386785 
v 0.731896 0.0802784 0.0384567 
v 0.731813 0.0803611 0.0382257 
v 0.731754 0.0804207 0.0379877 
v 0.731718 0.0804567 0.037745 
v 0.731706 0.0804688 0.0375 
v 0.773453 0.0804207 0.00201227 
v 0.773417 0.0804567 0.00225496 
v 0.773595 0.0802784 0.00154329 
v 0.773513 0.0803611 0.00177429 
v 0.773826 0.0800474 0.00111107 
v 0.7737 0.0801736 0.00132151 
v 0.774137 0.0797365 0.000732233 
v 0.774516 0.0793577 0.000421326 
v 0.774948 0.0789255 0.000190301 
v 0.775905 0.0779688 0 
v 0.775417 0.0784565 4.80368e-05 
v 0.731706 0.0804688 0.0025 
v 0.733718 0.0684511 0.039952 
v 0.734206 0.0689388 0.04 
v 0.733249 0.0679821 0.0398097 
v 0.732817 0.0675499 0.0395787 
v 0.732438 0.067171 0.0392678 
v 0.732127 0.0668601 0.0388889 
v 0.732001 0.066734 0.0386785 
v 0.731896 0.0666291 0.0384567 
v 0.731813 0.0665465 0.0382257 
v 0.731754 0.0664868 0.0379877 
v 0.731718 0.0664508 0.037745 
v 0.731706 0.0664388 0.0375 
v 0.731754 0.0804207 0.00201227 
v 0.731718 0.0804567 0.00225496 
v 0.731896 0.0802784 0.00154329 
v 0.731813 0.0803611 0.00177429 
v 0.732127 0.0800474 0.00111107 
v 0.732001 0.0801736 0.00132151 
v 0.732438 0.0797365 0.000732233 
v 0.732817 0.0793577 0.000421326 
v 0.733249 0.0789255 0.000190301 
v 0.733718 0.0784565 4.80368e-05 
v 0.734206 0.0779688 0 
v 0.731706 0.0664388 0.0025 
v 0.775417 0.0684511 0.039952 
v 0.774948 0.0679821 0.0398097 
v 0.774516 0.0675499 0.0395787 
v 0.774137 0.067171 0.0392678 
v 0.773826 0.0668601 0.0388889 
v 0.773595 0.0666291 0.0384567 
v 0.7737 0.066734 0.0386785 
v 0.773453 0.0664868 0.0379877 
v 0.773513 0.0665465 0.0382257 
v 0.773405 0.0664388 0.0375 
v 0.773417 0.0664508 0.037745 
v 0.775905 0.0689388 0.04 
v 0.731754 0.0664868 0.00201227 
v 0.731718 0.0664508 0.00225496 
v 0.731813 0.0665465 0.00177429 
v 0.731896 0.0666291 0.00154329 
v 0.732127 0.0668601 0.00111107 
v 0.732001 0.066734 0.00132151 
v 0.732438 0.067171 0.000732233 
v 0.733249 0.0679821 0.000190301 
v 0.734206 0.0689388 0 
v 0.733718 0.0684511 4.80368e-05 
v 0.732817 0.0675499 0.000421326 
v 0.773405 0.0664388 0.0025 
v 0.775905 0.0255794 0.04 
v 0.775417 0.0250917 0.039952 
v 0.774516 0.0241905 0.0395787 
v 0.774948 0.0246227 0.0398097 
v 0.774137 0.0238117 0.0392678 
v 0.7737 0.0233746 0.0386785 
v 0.773826 0.0235008 0.0388889 
v 0.773595 0.0232697 0.0384567 
v 0.773513 0.0231871 0.0382257 
v 0.773453 0.0231275 0.0379877 
v 0.773417 0.0230915 0.037745 
v 0.773405 0.0230794 0.0375 
v 0.785065 0.0689388 0.04 
v 0.785065 0.0255794 0.04 
v 0.787553 0.0230915 0.037745 
v 0.787517 0.0231275 0.0379877 
v 0.787565 0.0230794 0.0375 
v 0.787457 0.0231871 0.0382257 
v 0.787375 0.0232697 0.0384567 
v 0.78727 0.0233746 0.0386785 
v 0.787144 0.0235008 0.0388889 
v 0.786833 0.0238117 0.0392678 
v 0.786454 0.0241905 0.0395787 
v 0.786022 0.0246227 0.0398097 
v 0.785553 0.0250917 0.039952 
v 0.773405 0.0230794 0.0025 
v 0.773453 0.0664868 0.00201227 
v 0.773417 0.0664508 0.00225496 
v 0.773595 0.0666291 0.00154329 
v 0.773513 0.0665465 0.00177429 
v 0.773826 0.0668601 0.00111107 
v 0.7737 0.066734 0.00132151 
v 0.774137 0.067171 0.000732233 
v 0.774948 0.0679821 0.000190301 
v 0.774516 0.0675499 0.000421326 
v 0.775905 0.0689388 0 
v 0.775417 0.0684511 4.80368e-05 
v 0.787565 0.0664388 0.0375 
v 0.787553 0.0664508 0.037745 
v 0.787517 0.0664868 0.0379877 
v 0.787457 0.0665465 0.0382257 
v 0.787375 0.0666291 0.0384567 
v 0.78727 0.066734 0.0386785 
v 0.787144 0.0668601 0.0388889 
v 0.786833 0.067171 0.0392678 
v 0.786454 0.0675499 0.0395787 
v 0.786022 0.0679821 0.0398097 
v 0.785553 0.0684511 0.039952 
v 0.787565 0.0230794 0.0025 
v 0.773453 0.0231275 0.00201227 
v 0.773417 0.0230915 0.00225496 
v 0.773595 0.0232697 0.00154329 
v 0.773513 0.0231871 0.00177429 
v 0.773826 0.0235008 0.00111107 
v 0.7737 0.0233746 0.00132151 
v 0.774137 0.0238117 0.000732233 
v 0.774516 0.0241905 0.000421326 
v 0.774948 0.0246227 0.000190301 
v 0.775417 0.0250917 4.80368e-05 
v 0.775905 0.0255794 0 
v 0.787565 0.0664388 0.0025 
v 0.785553 0.0250917 4.80368e-05 
v 0.786454 0.0241905 0.000421326 
v 0.787144 0.0235008 0.00111107 
v 0.78727 0.0233746 0.00132151 
v 0.787375 0.0232697 0.00154329 
v 0.787457 0.0231871 0.00177429 
v 0.787517 0.0231275 0.00201227 
v 0.787553 0.0230915 0.00225496 
v 0.786833 0.0238117 0.000732233 
v 0.786022 0.0246227 0.000190301 
v 0.785065 0.0255794 0 
v 0.82946 0.0664388 0.0025 
v 0.785553 0.0684511 4.80368e-05 
v 0.786022 0.0679821 0.000190301 
v 0.786454 0.0675499 0.000421326 
v 0.786833 0.067171 0.000732233 
v 0.787144 0.0668601 0.00111107 
v 0.787375 0.0666291 0.00154329 
v 0.78727 0.066734 0.00132151 
v 0.787517 0.0664868 0.00201227 
v 0.787457 0.0665465 0.00177429 
v 0.787553 0.0664508 0.00225496 
v 0.785065 0.0689388 0 
v 0.82696 0.0689388 0 
v 0.82696 0.0779688 0 
v 0.827447 0.0684511 4.80368e-05 
v 0.827916 0.0679821 0.000190301 
v 0.828349 0.0675499 0.000421326 
v 0.828727 0.067171 0.000732233 
v 0.829038 0.0668601 0.00111107 
v 0.829164 0.066734 0.00132151 
v 0.829269 0.0666291 0.00154329 
v 0.829352 0.0665465 0.00177429 
v 0.829412 0.0664868 0.00201227 
v 0.829448 0.0664508 0.00225496 
v 0.827447 0.0784565 4.80368e-05 
v 0.828349 0.0793577 0.000421326 
v 0.829038 0.0800474 0.00111107 
v 0.829164 0.0801736 0.00132151 
v 0.829269 0.0802784 0.00154329 
v 0.829352 0.0803611 0.00177429 
v 0.829412 0.0804207 0.00201227 
v 0.829448 0.0804567 0.00225496 
v 0.828727 0.0797365 0.000732233 
v 0.827916 0.0789255 0.000190301 
vn 0 1 0 
vn 1 0 0 
vn 0 0.995185 0.0980171 
vn 0 0.980785 0.19509 
vn 0 1 -6.12323e-17 
vn 0 0.95694 0.290285 
vn 0 0.92388 0.382683 
vn 0 0.881921 0.471397 
vn 0 0.83147 0.55557 
vn 0 0.707107 0.707107 
vn 0 0.55557 0.83147 
vn 0 0.382683 0.92388 
vn 0 0.19509 0.980785 
vn 0 1.22465e-16 1 
vn 0.995185 0 0.0980171 
vn 0.980785 0 0.19509 
vn 1 0 -6.12323e-17 
vn 0.95694 0 0.290285 
vn 0.92388 0 0.382683 
vn 0.881921 0 0.471397 
vn 0.83147 0 0.55557 
vn 0.707107 0 0.707107 
vn 0.55557 0 0.83147 
vn 0.382683 0 0.92388 
vn 0.19509 0 0.980785 
vn 1.22465e-16 0 1 
vn 0.55557 0 0.83147 
vn 0.19509 0 0.980785 
vn 0.382683 0 0.92388 
vn 0.55557 0 0.83147 
vn 0.707107 0 0.707107 
vn 0.83147 0 0.55557 
vn 0.92388 0 0.382683 
vn 0.881921 0 0.471397 
vn 0.83147 0 0.55557 
vn 0.92388 0 0.382683 
vn 0.881921 0 0.471397 
vn 0.980785 0 0.19509 
vn 0.95694 0 0.290285 
vn 1 0 -6.12323e-17 
vn 0.995185 0 0.0980171 
vn 0 0.19509 0.980785 
vn 0 1.22465e-16 1 
vn 0 0.382683 0.92388 
vn 0 0.55557 0.83147 
vn 0 0.707107 0.707107 
vn 0 0.83147 0.55557 
vn 0 0.881921 0.471397 
vn 0 0.92388 0.382683 
vn 0 0.95694 0.290285 
vn 0 0.980785 0.19509 
vn 0 0.995185 0.0980171 
vn 0 1 -6.12323e-17 
vn 0 0.707107 0.707107 
vn 0 0.382683 0.92388 
vn 0 0 1 
vn 0 1 0 
vn -0.19509 0 0.980785 
vn -0.382683 0 0.92388 
vn -0.55557 0 0.83147 
vn -0.707107 0 0.707107 
vn -0.83147 0 0.55557 
vn -0.92388 0 0.382683 
vn -0.881921 0 0.471397 
vn -0.980785 0 0.19509 
vn -0.95694 0 0.290285 
vn -1 0 -1.83697e-16 
vn -0.995185 0 0.0980171 
vn 0 0 1 
vn 1 0 0 
vn 0.995185 0 -0.0980171 
vn 0.980785 0 -0.19509 
vn 1 0 6.12323e-17 
vn 0.95694 0 -0.290285 
vn 0.92388 0 -0.382683 
vn 0.881921 0 -0.471397 
vn 0.83147 0 -0.55557 
vn 0.707107 0 -0.707107 
vn 0.55557 0 -0.83147 
vn 0.382683 0 -0.92388 
vn 0.19509 0 -0.980785 
vn 1.22465e-16 0 -1 
vn 0 0.995185 -0.0980171 
vn 0 0.980785 -0.19509 
vn 0 1 0 
vn 0 0.95694 -0.290285 
vn 0 0.92388 -0.382683 
vn 0 0.881921 -0.471397 
vn 0 0.83147 -0.55557 
vn 0 0.707107 -0.707107 
vn 0 0.55557 -0.83147 
vn 0 0.382683 -0.92388 
vn 0 0.19509 -0.980785 
vn 0 1.22465e-16 -1 
vn 0 0.55557 -0.83147 
vn 0 1 6.12323e-17 
vn -1 0 0 
vn 0 1.22465e-16 1 
vn 0 0.19509 0.980785 
vn 0 0.382683 0.92388 
vn 0 0.55557 0.83147 
vn 0 0.707107 0.707107 
vn 0 0.83147 0.55557 
vn 0 0.92388 0.382683 
vn 0 0.881921 0.471397 
vn 0 0.980785 0.19509 
vn 0 0.95694 0.290285 
vn 0 1 -6.12323e-17 
vn 0 0.995185 0.0980171 
vn -1 0 1.83697e-16 
vn -0.995185 0 -0.0980171 
vn -0.980785 0 -0.19509 
vn -1 0 1.73472e-16 
vn -0.995185 0 -0.0980171 
vn -0.95694 0 -0.290285 
vn -0.92388 0 -0.382683 
vn -0.881921 0 -0.471397 
vn -0.83147 0 -0.55557 
vn -0.707107 0 -0.707107 
vn -0.55557 0 -0.83147 
vn -0.382683 0 -0.92388 
vn -0.19509 0 -0.980785 
vn 0 0 -1 
vn 0 1 0 
vn -0.19509 0 0.980785 
vn 0 0 1 
vn -0.382683 0 0.92388 
vn -0.55557 0 0.83147 
vn -0.707107 0 0.707107 
vn -0.83147 0 0.55557 
vn -0.881921 0 0.471397 
vn -0.92388 0 0.382683 
vn -0.95694 0 0.290285 
vn -0.980785 0 0.19509 
vn -0.995185 0 0.0980171 
vn -1 0 -1.83697e-16 
vn -0.980785 0 0.19509 
vn -0.707107 0 0.707107 
vn -0.382683 0 0.92388 
vn 0 0 1 
vn 0 1 0 
vn 0 0.995185 -0.0980171 
vn 0 0.980785 -0.19509 
vn 0 1 6.12323e-17 
vn 0 0.95694 -0.290285 
vn 0 0.92388 -0.382683 
vn 0 0.881921 -0.471397 
vn 0 0.83147 -0.55557 
vn 0 0.707107 -0.707107 
vn 0 0.55557 -0.83147 
vn 0 0.382683 -0.92388 
vn 0 0.19509 -0.980785 
vn 0 1.22465e-16 -1 
vn -1 0 0 
vn 0 0 1 
vn 0 -0.19509 0.980785 
vn 0 -0.382683 0.92388 
vn 0 -0.55557 0.83147 
vn 0 -0.707107 0.707107 
vn 0 -0.83147 0.55557 
vn 0 -0.92388 0.382683 
vn 0 -0.881921 0.471397 
vn 0 -0.980785 0.19509 
vn 0 -0.95694 0.290285 
vn 0 -1 -1.83697e-16 
vn 0 -0.995185 0.0980171 
vn 0 0 1 
vn -0.995185 0 -0.0980171 
vn -0.980785 0 -0.19509 
vn -1 0 1.83697e-16 
vn -0.95694 0 -0.290285 
vn -0.92388 0 -0.382683 
vn -0.881921 0 -0.471397 
vn -0.83147 0 -0.55557 
vn -0.707107 0 -0.707107 
vn -0.55557 0 -0.83147 
vn -0.382683 0 -0.92388 
vn -0.19509 0 -0.980785 
vn 0 0 -1 
vn -0.55557 0 -0.83147 
vn 0 -1 0 
vn 0 0 1 
vn -0.19509 0 0.980785 
vn -0.382683 0 0.92388 
vn -0.55557 0 0.83147 
vn -0.707107 0 0.707107 
vn -0.83147 0 0.55557 
vn -0.92388 0 0.382683 
vn -0.881921 0 0.471397 
vn -0.83147 0 0.55557 
vn -0.92388 0 0.382683 
vn -0.881921 0 0.471397 
vn -0.980785 0 0.19509 
vn -0.95694 0 0.290285 
vn -1 0 -1.83697e-16 
vn -0.995185 0 0.0980171 
vn 0 0 1 
vn 0 -0.995185 0.0980171 
vn 0 -0.980785 0.19509 
vn 0 -1 0 
vn 0 -0.95694 0.290285 
vn 0 -0.92388 0.382683 
vn 0 -0.881921 0.471397 
vn 0 -0.83147 0.55557 
vn 0 -0.707107 0.707107 
vn 0 -0.55557 0.83147 
vn 0 -0.382683 0.92388 
vn 0 -0.19509 0.980785 
vn 0 0 1 
vn 0 -0.55557 0.83147 
vn 0 -1 -1.83697e-16 
vn -1 0 0 
vn 0 -0.995185 -0.0980171 
vn 0 -0.980785 -0.19509 
vn 0 -1 1.73472e-16 
vn 0 -0.995185 -0.0980171 
vn 0 -0.95694 -0.290285 
vn 0 -0.92388 -0.382683 
vn 0 -0.881921 -0.471397 
vn 0 -0.83147 -0.55557 
vn 0 -0.707107 -0.707107 
vn 0 -0.55557 -0.83147 
vn 0 -0.382683 -0.92388 
vn 0 -0.19509 -0.980785 
vn 0 0 -1 
vn 1 0 0 
vn 0.995185 0 0.0980171 
vn 0.980785 0 0.19509 
vn 1 0 -6.12323e-17 
vn 0.95694 0 0.290285 
vn 0.92388 0 0.382683 
vn 0.881921 0 0.471397 
vn 0.83147 0 0.55557 
vn 0.707107 0 0.707107 
vn 0.55557 0 0.83147 
vn 0.382683 0 0.92388 
vn 0.19509 0 0.980785 
vn 1.22465e-16 0 1 
vn 0 -1 0 
vn -1 0 1.73472e-16 
vn -0.995185 0 -0.0980171 
vn -0.980785 0 -0.19509 
vn -1 0 1.83697e-16 
vn -0.95694 0 -0.290285 
vn -0.92388 0 -0.382683 
vn -0.881921 0 -0.471397 
vn -0.83147 0 -0.55557 
vn -0.707107 0 -0.707107 
vn -0.55557 0 -0.83147 
vn -0.382683 0 -0.92388 
vn -0.19509 0 -0.980785 
vn 0 0 -1 
vn 0 -1 -1.83697e-16 
vn 0 -0.995185 0.0980171 
vn 0 -0.980785 0.19509 
vn 0 -1 0 
vn 0 -0.995185 0.0980171 
vn 0 -0.95694 0.290285 
vn 0 -0.92388 0.382683 
vn 0 -0.881921 0.471397 
vn 0 -0.83147 0.55557 
vn 0 -0.707107 0.707107 
vn 0 -0.55557 0.83147 
vn 0 -0.382683 0.92388 
vn 0 -0.19509 0.980785 
vn 0 0 1 
vn 1 0 0 
vn 0 -0.19509 -0.980785 
vn 0 0 -1 
vn 0 -0.382683 -0.92388 
vn 0 -0.55557 -0.83147 
vn 0 -0.707107 -0.707107 
vn 0 -0.83147 -0.55557 
vn 0 -0.881921 -0.471397 
vn 0 -0.92388 -0.382683 
vn 0 -0.95694 -0.290285 
vn 0 -0.980785 -0.19509 
vn 0 -0.995185 -0.0980171 
vn 0 -1 1.83697e-16 
vn 0 -0.707107 -0.707107 
vn 0 -0.382683 -0.92388 
vn 0 0 -1 
vn 0 -1 0 
vn 0.19509 0 -0.980785 
vn 1.22465e-16 0 -1 
vn 0.382683 0 -0.92388 
vn 0.55557 0 -0.83147 
vn 0.707107 0 -0.707107 
vn 0.83147 0 -0.55557 
vn 0.92388 0 -0.382683 
vn 0.881921 0 -0.471397 
vn 0.980785 0 -0.19509 
vn 0.95694 0 -0.290285 
vn 1 0 6.12323e-17 
vn 0.995185 0 -0.0980171 
vn 0 0 -1 
vn 1 0 0 
vn 0 -0.19509 -0.980785 
vn 0 -0.382683 -0.92388 
vn 0 -0.55557 -0.83147 
vn 0 -0.707107 -0.707107 
vn 0 -0.83147 -0.55557 
vn 0 -0.92388 -0.382683 
vn 0 -0.881921 -0.471397 
vn 0 -0.980785 -0.19509 
vn 0 -0.95694 -0.290285 
vn 0 -1 1.83697e-16 
vn 0 -0.995185 -0.0980171 
vn 0 0 -1 
vn 0.19509 0 -0.980785 
vn 0.382683 0 -0.92388 
vn 0.55557 0 -0.83147 
vn 0.707107 0 -0.707107 
vn 0.83147 0 -0.55557 
vn 0.881921 0 -0.471397 
vn 0.92388 0 -0.382683 
vn 0.95694 0 -0.290285 
vn 0.980785 0 -0.19509 
vn 0.995185 0 -0.0980171 
vn 1 0 6.12323e-17 
vn 0.707107 0 -0.707107 
vn 0.382683 0 -0.92388 
vn 0 0 -1 
vn 0 0.19509 -0.980785 
vn 0 0.382683 -0.92388 
vn 0 0.55557 -0.83147 
vn 0 0.707107 -0.707107 
vn 0 0.83147 -0.55557 
vn 0 0.92388 -0.382683 
vn 0 0.881921 -0.471397 
vn 0 0.980785 -0.19509 
vn 0 0.95694 -0.290285 
vn 0 1 6.12323e-17 
vn 0 0.995185 -0.0980171 
vn 0 0 -1 
usemtl 0.498039_0.498039_0.498039_0.000000_0.000000
o mesh0
f 1//1 2//1 3//1 
f 3//1 4//1 1//1 
o mesh1
f 2//2 5//2 6//2 
f 6//2 3//2 2//2 
o mesh2
f 3//1 7//3 8//4 
f 8//4 9//3 3//1 
f 9//3 4//5 3//1 
f 10//4 11//6 12//7 
f 12//7 13//6 10//4 
f 13//6 8//4 10//4 
f 14//7 15//8 16//9 
f 16//9 17//8 14//7 
f 17//8 12//7 14//7 
f 18//9 19//10 20//10 
f 21//11 20//10 19//10 
f 22//11 23//12 24//12 
f 25//13 24//12 23//12 
f 26//13 27//14 28//14 
f 28//14 25//13 26//13 
f 23//12 26//13 25//13 
f 24//12 21//11 22//11 
f 19//10 22//11 21//11 
f 20//10 16//9 18//9 
f 15//8 18//9 16//9 
f 11//6 14//7 12//7 
f 7//3 10//4 8//4 
o mesh3
f 9//15 8//16 29//16 
f 29//16 30//15 9//15 
f 31//17 4//17 9//15 
f 32//18 13//18 12//19 
f 12//19 33//19 32//18 
f 29//16 8//16 13//18 
f 34//20 17//20 16//21 
f 34//20 12//19 17//20 
f 16//21 35//21 34//20 
f 16//21 20//22 36//22 
f 36//22 20//22 21//23 
f 21//23 24//24 37//24 
f 37//24 24//24 25//25 
f 25//25 28//26 38//26 
f 38//26 39//25 25//25 
f 25//25 39//25 37//24 
f 37//24 40//27 21//23 
f 21//23 40//27 36//22 
f 36//22 35//21 16//21 
f 34//20 33//19 12//19 
f 32//18 29//16 13//18 
f 30//15 31//17 9//15 
o mesh4
f 41//26 27//26 26//28 
f 23//29 42//29 43//28 
f 42//29 23//29 22//30 
f 44//30 22//30 19//31 
f 45//31 19//31 18//32 
f 14//33 46//34 47//35 
f 14//33 48//36 46//34 
f 47//35 18//32 15//37 
f 10//38 49//39 48//36 
f 10//38 50//38 49//39 
f 48//36 14//33 11//39 
f 3//40 51//41 50//38 
f 3//40 6//40 51//41 
f 50//38 10//38 7//41 
f 50//38 7//41 3//40 
f 48//36 11//39 10//38 
f 47//35 15//37 14//33 
f 18//32 47//35 45//31 
f 19//31 45//31 44//30 
f 22//30 44//30 42//29 
f 43//28 26//28 23//29 
f 26//28 43//28 41//26 
o mesh5
f 43//42 52//42 53//43 
f 54//44 52//42 43//42 
f 44//45 55//45 54//44 
f 56//46 55//45 44//45 
f 47//47 57//47 56//46 
f 58//48 57//47 47//47 
f 47//47 46//48 58//48 
f 48//49 59//49 58//48 
f 49//50 60//50 59//49 
f 49//50 61//51 60//50 
f 59//49 48//49 49//50 
f 62//52 61//51 50//51 
f 50//51 51//52 62//52 
f 6//53 63//53 62//52 
f 51//52 6//53 62//52 
f 49//50 50//51 61//51 
f 46//48 48//49 58//48 
f 56//46 45//54 47//47 
f 44//45 45//54 56//46 
f 54//44 42//55 44//45 
f 43//42 42//55 54//44 
f 53//43 41//56 43//42 
o mesh6
f 5//57 64//57 63//57 
f 63//57 6//57 5//57 
o mesh7
f 53//56 52//58 65//58 
f 66//59 65//58 52//58 
f 54//59 55//60 67//60 
f 68//61 67//60 55//60 
f 56//61 57//62 69//62 
f 70//63 71//64 57//62 
f 57//62 58//64 70//63 
f 58//64 59//63 70//63 
f 72//65 73//66 59//63 
f 59//63 60//66 72//65 
f 60//66 61//65 72//65 
f 74//67 75//68 61//65 
f 61//65 62//68 74//67 
f 62//68 63//67 74//67 
f 75//68 72//65 61//65 
f 73//66 70//63 59//63 
f 71//64 69//62 57//62 
f 69//62 68//61 56//61 
f 55//60 56//61 68//61 
f 67//60 66//59 54//59 
f 52//58 54//59 66//59 
f 65//58 76//69 53//56 
o mesh8
f 2//70 77//71 78//72 
f 78//72 79//71 2//70 
f 79//71 5//73 2//70 
f 80//72 81//74 82//75 
f 82//75 83//74 80//72 
f 83//74 78//72 80//72 
f 84//75 85//76 86//77 
f 86//77 87//76 84//75 
f 87//76 82//75 84//75 
f 88//78 86//77 89//77 
f 90//78 91//79 92//79 
f 93//80 92//79 91//79 
f 94//80 95//81 96//81 
f 95//81 97//82 98//82 
f 98//82 96//81 95//81 
f 96//81 93//80 94//80 
f 91//79 94//80 93//80 
f 92//79 88//78 90//78 
f 89//77 90//78 88//78 
f 85//76 89//77 86//77 
f 81//74 84//75 82//75 
f 77//71 80//72 78//72 
o mesh9
f 99//83 79//83 78//84 
f 99//83 5//85 79//83 
f 78//84 100//84 99//83 
f 83//86 82//87 101//87 
f 101//87 102//86 83//86 
f 100//84 78//84 83//86 
f 103//88 87//88 86//89 
f 86//89 104//89 103//88 
f 101//87 82//87 87//88 
f 86//89 88//90 105//90 
f 105//90 88//90 92//91 
f 92//91 93//92 106//92 
f 106//92 93//92 96//93 
f 96//93 98//94 107//94 
f 107//94 108//93 96//93 
f 96//93 108//93 106//92 
f 106//92 109//95 92//91 
f 92//91 109//95 105//90 
f 105//90 104//89 86//89 
f 103//88 101//87 87//88 
f 102//86 100//84 83//86 
f 99//83 64//96 5//85 
o mesh10
f 64//97 110//97 74//97 
f 74//97 63//97 64//97 
o mesh11
f 111//98 76//98 65//99 
f 112//99 65//99 66//100 
f 67//101 113//101 114//100 
f 113//101 67//101 68//102 
f 69//103 115//103 116//102 
f 70//104 117//105 115//103 
f 70//104 118//104 117//105 
f 115//103 69//103 71//105 
f 72//106 119//107 118//104 
f 72//106 120//106 119//107 
f 118//104 70//104 73//107 
f 74//108 121//109 120//106 
f 74//108 122//108 121//109 
f 120//106 72//106 75//109 
f 120//106 75//109 74//108 
f 118//104 73//107 72//106 
f 115//103 71//105 70//104 
f 116//102 68//102 69//103 
f 68//102 116//102 113//101 
f 114//100 66//100 67//101 
f 66//100 114//100 112//99 
f 65//99 112//99 111//98 
o mesh12
f 110//110 99//111 100//112 
f 110//110 64//113 99//111 
f 100//112 123//112 124//114 
f 123//112 102//115 101//116 
f 123//112 100//112 102//115 
f 101//116 125//116 126//115 
f 125//116 103//117 104//118 
f 125//116 101//116 103//117 
f 104//118 127//118 128//117 
f 105//119 129//119 127//118 
f 109//120 130//120 129//119 
f 106//121 131//121 130//120 
f 131//121 106//121 108//122 
f 107//123 132//123 133//122 
f 133//122 108//122 107//123 
f 108//122 133//122 131//121 
f 130//120 109//120 106//121 
f 129//119 105//119 109//120 
f 127//118 104//118 105//119 
f 104//118 128//117 125//116 
f 101//116 126//115 123//112 
f 100//112 124//114 110//110 
o mesh13
f 110//124 134//124 122//124 
f 122//124 74//124 110//124 
o mesh14
f 112//125 135//125 136//126 
f 137//127 135//125 112//125 
f 113//128 138//128 137//127 
f 139//129 138//128 113//128 
f 115//130 140//130 139//129 
f 117//131 141//131 140//130 
f 117//131 142//132 141//131 
f 140//130 115//130 117//131 
f 143//133 142//132 118//132 
f 119//133 144//134 143//133 
f 118//132 119//133 143//133 
f 121//135 145//135 144//134 
f 121//135 146//136 145//135 
f 144//134 120//137 121//135 
f 121//135 122//136 146//136 
f 119//133 120//137 144//134 
f 117//131 118//132 142//132 
f 139//129 116//138 115//130 
f 113//128 116//138 139//129 
f 137//127 114//139 113//128 
f 112//125 114//139 137//127 
f 136//126 111//140 112//125 
o mesh15
f 110//141 124//142 147//143 
f 147//143 148//142 110//141 
f 148//142 134//144 110//141 
f 123//143 126//145 149//146 
f 149//146 150//145 123//143 
f 150//145 147//143 123//143 
f 125//146 128//147 151//148 
f 151//148 152//147 125//146 
f 152//147 149//146 125//146 
f 127//148 129//149 153//149 
f 129//149 130//150 154//150 
f 155//151 154//150 130//150 
f 131//151 133//152 156//152 
f 133//152 132//153 157//153 
f 157//153 156//152 133//152 
f 156//152 155//151 131//151 
f 130//150 131//151 155//151 
f 154//150 153//149 129//149 
f 153//149 151//148 127//148 
f 128//147 127//148 151//148 
f 126//145 125//146 149//146 
f 124//142 123//143 147//143 
o mesh16
f 134//154 158//154 146//154 
f 146//154 122//154 134//154 
o mesh17
f 136//155 135//156 159//156 
f 160//157 159//156 135//156 
f 137//157 138//158 161//158 
f 162//159 161//158 138//158 
f 139//159 140//160 163//160 
f 164//161 165//162 140//160 
f 140//160 141//162 164//161 
f 141//162 142//161 164//161 
f 166//163 167//164 142//161 
f 142//161 143//164 166//163 
f 143//164 144//163 166//163 
f 168//165 169//166 144//163 
f 144//163 145//166 168//165 
f 145//166 146//165 168//165 
f 169//166 166//163 144//163 
f 167//164 164//161 142//161 
f 165//162 163//160 140//160 
f 163//160 162//159 139//159 
f 138//158 139//159 162//159 
f 161//158 160//157 137//157 
f 135//156 137//157 160//157 
f 159//156 170//167 136//155 
o mesh18
f 148//168 147//169 171//169 
f 171//169 172//168 148//168 
f 158//170 134//170 148//168 
f 173//171 150//171 149//172 
f 173//171 147//169 150//171 
f 149//172 174//172 173//171 
f 152//173 151//174 175//174 
f 176//173 149//172 152//173 
f 175//174 176//173 152//173 
f 151//174 153//175 177//175 
f 177//175 153//175 154//176 
f 154//176 155//177 178//177 
f 178//177 155//177 156//178 
f 156//178 157//179 179//179 
f 179//179 180//178 156//178 
f 156//178 180//178 178//177 
f 178//177 181//180 154//176 
f 154//176 181//180 177//175 
f 177//175 175//174 151//174 
f 176//173 174//172 149//172 
f 173//171 171//169 147//169 
f 172//168 158//170 148//168 
o mesh19
f 158//181 182//181 168//181 
f 168//181 146//181 158//181 
o mesh20
f 183//182 170//182 159//183 
f 184//183 159//183 160//184 
f 161//185 185//185 186//184 
f 162//186 187//186 185//185 
f 187//186 162//186 163//187 
f 164//188 188//189 189//190 
f 164//188 190//191 188//189 
f 189//190 163//187 165//192 
f 166//193 191//194 190//191 
f 166//193 192//193 191//194 
f 190//191 164//188 167//194 
f 168//195 193//196 192//193 
f 168//195 194//195 193//196 
f 192//193 166//193 169//196 
f 192//193 169//196 168//195 
f 190//191 167//194 166//193 
f 189//190 165//192 164//188 
f 163//187 189//190 187//186 
f 185//185 161//185 162//186 
f 186//184 160//184 161//185 
f 160//184 186//184 184//183 
f 159//183 184//183 183//182 
o mesh21
f 136//197 170//197 76//197 
f 28//197 27//197 195//197 
f 170//197 27//197 76//197 
f 53//197 76//197 27//197 
f 27//197 170//197 195//197 
f 196//197 195//197 170//197 
f 27//197 41//197 53//197 
f 170//197 183//197 196//197 
f 195//197 38//197 28//197 
f 76//197 111//197 136//197 
o mesh22
f 193//198 197//198 198//199 
f 193//198 199//200 197//198 
f 198//199 192//199 193//198 
f 200//201 201//202 190//202 
f 190//202 191//201 200//201 
f 192//199 198//199 200//201 
f 188//203 202//203 203//204 
f 188//203 201//202 202//203 
f 203//204 189//204 188//203 
f 203//204 204//205 187//205 
f 187//205 204//205 205//206 
f 205//206 206//207 186//207 
f 186//207 206//207 207//208 
f 207//208 196//209 183//209 
f 183//209 184//208 207//208 
f 207//208 184//208 186//207 
f 186//207 185//210 205//206 
f 205//206 185//210 187//205 
f 187//205 189//204 203//204 
f 188//203 190//202 201//202 
f 191//201 192//199 200//201 
f 193//198 194//211 199//200 
o mesh23
f 168//212 182//212 208//212 
f 208//212 194//212 168//212 
o mesh24
f 182//211 172//213 171//214 
f 182//211 158//215 172//213 
f 171//214 209//214 210//216 
f 209//214 173//217 174//218 
f 209//214 171//214 173//217 
f 174//218 211//218 212//217 
f 211//218 176//219 175//220 
f 211//218 174//218 176//219 
f 175//220 213//220 214//219 
f 177//221 215//221 213//220 
f 215//221 177//221 181//222 
f 178//223 216//223 217//222 
f 216//223 178//223 180//224 
f 179//225 218//225 219//224 
f 219//224 180//224 179//225 
f 180//224 219//224 216//223 
f 217//222 181//222 178//223 
f 181//222 217//222 215//221 
f 213//220 175//220 177//221 
f 175//220 214//219 211//218 
f 174//218 212//217 209//214 
f 171//214 210//216 182//211 
o mesh25
f 220//226 221//227 198//228 
f 198//228 197//227 220//226 
f 197//227 199//229 220//226 
f 222//228 223//230 201//231 
f 201//231 200//230 222//228 
f 200//230 198//228 222//228 
f 224//231 225//232 203//233 
f 203//233 202//232 224//231 
f 202//232 201//231 224//231 
f 226//233 227//234 204//234 
f 205//235 204//234 227//234 
f 228//235 229//236 206//236 
f 207//237 206//236 229//236 
f 230//237 195//238 196//238 
f 196//238 207//237 230//237 
f 229//236 230//237 207//237 
f 206//236 205//235 228//235 
f 227//234 228//235 205//235 
f 204//234 203//233 226//233 
f 225//232 226//233 203//233 
f 223//230 224//231 201//231 
f 221//227 222//228 198//228 
o mesh26
f 208//239 231//239 199//239 
f 199//239 194//239 208//239 
o mesh27
f 182//240 210//241 232//242 
f 232//242 233//241 182//240 
f 233//241 208//243 182//240 
f 209//242 212//244 234//245 
f 234//245 235//244 209//242 
f 235//244 232//242 209//242 
f 211//245 214//246 236//247 
f 236//247 237//246 211//245 
f 237//246 234//245 211//245 
f 238//248 236//247 213//247 
f 239//249 238//248 215//248 
f 217//249 216//250 240//250 
f 241//251 240//250 216//250 
f 219//251 218//252 242//252 
f 242//252 241//251 219//251 
f 216//250 219//251 241//251 
f 240//250 239//249 217//249 
f 215//248 217//249 239//249 
f 213//247 215//248 238//248 
f 214//246 213//247 236//247 
f 212//244 211//245 234//245 
f 210//241 209//242 232//242 
o mesh28
f 220//253 30//254 29//255 
f 220//253 31//256 30//254 
f 29//255 222//255 221//257 
f 222//255 32//258 33//259 
f 222//255 29//255 32//258 
f 33//259 224//259 223//258 
f 224//259 34//260 35//261 
f 224//259 33//259 34//260 
f 35//261 226//261 225//260 
f 36//262 227//262 226//261 
f 227//262 36//262 40//263 
f 37//264 229//264 228//263 
f 229//264 37//264 39//265 
f 38//266 195//266 230//265 
f 230//265 39//265 38//266 
f 39//265 230//265 229//264 
f 228//263 40//263 37//264 
f 40//263 228//263 227//262 
f 226//261 35//261 36//262 
f 35//261 225//260 224//259 
f 33//259 223//258 222//255 
f 29//255 221//257 220//253 
o mesh29
f 220//267 199//267 231//267 
f 231//267 243//267 220//267 
o mesh30
f 244//268 241//268 242//269 
f 240//270 241//268 244//268 
f 245//271 239//271 240//270 
f 238//272 239//271 245//271 
f 246//273 236//273 238//272 
f 237//274 236//273 246//273 
f 246//273 247//274 237//274 
f 248//275 234//275 237//274 
f 249//276 235//276 234//275 
f 249//276 232//277 235//276 
f 234//275 248//275 249//276 
f 233//278 232//277 250//277 
f 250//277 251//278 233//278 
f 231//279 208//279 233//278 
f 251//278 231//279 233//278 
f 249//276 250//277 232//277 
f 247//274 248//275 237//274 
f 238//272 252//280 246//273 
f 245//271 252//280 238//272 
f 240//270 253//281 245//271 
f 244//268 253//281 240//270 
f 242//269 254//282 244//268 
o mesh31
f 243//283 255//283 31//283 
f 31//283 220//283 243//283 
o mesh32
f 256//284 244//284 254//285 
f 244//284 256//284 257//286 
f 258//287 245//287 253//286 
f 245//287 258//287 259//288 
f 260//289 246//289 252//288 
f 261//290 247//291 246//289 
f 261//290 248//290 247//291 
f 246//289 260//289 262//291 
f 263//292 249//293 248//290 
f 263//292 250//292 249//293 
f 248//290 261//290 264//293 
f 243//294 251//295 250//292 
f 243//294 231//294 251//295 
f 250//292 263//292 265//295 
f 250//292 265//295 243//294 
f 248//290 264//293 263//292 
f 246//289 262//291 261//290 
f 252//288 259//288 260//289 
f 259//288 252//288 245//287 
f 253//286 257//286 258//287 
f 257//286 253//286 244//284 
f 254//285 266//296 256//284 
o mesh33
f 242//296 218//296 266//296 
f 98//296 97//296 132//296 
f 218//296 97//296 266//296 
f 267//296 266//296 97//296 
f 97//296 218//296 132//296 
f 157//296 132//296 218//296 
f 97//296 268//296 267//296 
f 218//296 179//296 157//296 
f 132//296 107//296 98//296 
f 266//296 254//296 242//296 
o mesh34
f 255//297 1//297 4//297 
f 4//297 31//297 255//297 
o mesh35
f 267//296 269//298 256//298 
f 257//299 256//298 269//298 
f 270//299 271//300 258//300 
f 259//301 258//300 271//300 
f 272//301 273//302 260//302 
f 261//303 262//304 273//302 
f 273//302 274//304 261//303 
f 274//304 275//303 261//303 
f 263//305 264//306 275//303 
f 275//303 276//306 263//305 
f 276//306 277//305 263//305 
f 243//307 265//308 277//305 
f 277//305 278//308 243//307 
f 278//308 255//307 243//307 
f 265//308 263//305 277//305 
f 264//306 261//303 275//303 
f 262//304 260//302 273//302 
f 260//302 259//301 272//301 
f 271//300 272//301 259//301 
f 258//300 257//299 270//299 
f 269//298 270//299 257//299 
f 256//298 266//309 267//296 
o mesh36
f 279//310 269//310 267//309 
f 270//311 269//310 279//310 
f 280//312 271//312 270//311 
f 272//313 271//312 280//312 
f 281//314 273//314 272//313 
f 282//315 274//315 273//314 
f 273//314 281//314 282//315 
f 283//316 275//316 274//315 
f 276//317 275//316 283//316 
f 283//316 284//317 276//317 
f 285//318 277//318 276//317 
f 286//319 278//319 277//318 
f 286//319 255//320 278//319 
f 277//318 285//318 286//319 
f 286//319 1//320 255//320 
f 284//317 285//318 276//317 
f 282//315 283//316 274//315 
f 272//313 287//321 281//314 
f 280//312 287//321 272//313 
f 270//311 288//322 280//312 
f 279//310 288//322 270//311 
f 267//309 268//323 279//310 
o mesh37
f 95//324 279//324 268//323 
f 279//324 95//324 94//325 
f 91//326 280//326 288//325 
f 280//326 91//326 90//327 
f 89//328 281//328 287//327 
f 84//329 282//330 281//328 
f 84//329 283//329 282//330 
f 281//328 89//328 85//330 
f 80//331 284//332 283//329 
f 80//331 285//331 284//332 
f 283//329 84//329 81//332 
f 2//333 286//334 285//331 
f 2//333 1//333 286//334 
f 285//331 80//331 77//334 
f 285//331 77//334 2//333 
f 283//329 81//332 80//331 
f 281//328 85//330 84//329 
f 287//327 90//327 89//328 
f 90//327 287//327 280//326 
f 288//325 94//325 91//326 
f 94//325 288//325 279//324 
f 268//323 97//335 95//324 
