# https://github.com/mikedh/trimesh
v 0.00344603 -0.01117304 0.02392905
v 0.02592374 -0.02265160 0.00281628
v 0.02537174 0.02467567 0.00342441
v -0.02557278 0.01398530 -0.02129540
v -0.02755428 -0.02966595 -0.01529660
v 0.02594296 0.00788158 -0.02266897
v -0.02526603 0.02403487 0.00205649
v -0.02721922 -0.02616657 0.01231466
v 0.02578843 0.01420071 -0.02183231
v -0.02564360 -0.01391709 -0.02255694
v 0.02481624 -0.01478009 -0.02264845
v -0.02560202 -0.01081863 0.02278335
v -0.02735502 -0.02224663 -0.02011908
v -0.02755492 -0.03036363 -0.00701147
v 0.00275062 -0.02031088 0.01701146
v -0.01218434 0.01351829 -0.02226619
v 0.02569339 -0.01723066 -0.02004239
v -0.02635683 -0.02326126 0.01760826
v -0.02649646 -0.01923479 0.01957977
v -0.01878187 -0.01621054 -0.02217995
v 0.00299884 -0.01549036 0.02234573
v 0.00301779 0.01343191 -0.02223467
v -0.02518829 0.00436424 -0.02238790
v 0.02582719 -0.02107398 -0.00892932
v -0.02593546 -0.01364798 0.02227369
f 1 2 3
f 6 3 2
f 9 3 6
f 9 7 3
f 9 4 7
f 11 10 6
f 12 1 3
f 12 3 7
f 13 7 4
f 13 8 7
f 13 4 10
f 13 11 5
f 14 5 2
f 14 2 8
f 14 13 5
f 14 8 13
f 15 8 2
f 16 4 9
f 17 11 6
f 17 5 11
f 18 8 15
f 19 7 8
f 19 8 18
f 20 13 10
f 20 10 11
f 20 11 13
f 21 15 2
f 21 2 1
f 21 18 15
f 21 19 18
f 22 16 9
f 22 9 6
f 22 6 16
f 23 10 4
f 23 4 16
f 23 16 6
f 23 6 10
f 24 17 6
f 24 6 2
f 24 2 5
f 24 5 17
f 25 12 7
f 25 7 19
f 25 19 21
f 25 21 1
f 25 1 12

