# https://github.com/mikedh/trimesh
v 0.02578832 0.01402886 0.02345005
v 0.02563420 0.01892581 0.02196948
v -0.02548928 0.01423228 0.02186560
v -0.02557278 0.01398530 -0.02129540
v 0.02578843 0.01420071 -0.02183231
v -0.02530876 0.02387737 -0.00037656
v -0.02182986 0.01315426 0.02247545
v 0.02594247 0.02377899 -0.01449916
v -0.02591365 0.02091248 0.01697388
v -0.01521771 0.01811370 0.02168295
v 0.02586575 0.02082279 0.02021761
v 0.01960844 0.02076513 -0.01952779
v -0.02521248 0.02094803 -0.01696732
v -0.02526834 0.01848385 0.01976112
v 0.02585647 0.02387210 0.01200425
v -0.01199970 0.02008067 0.02023691
v 0.02551005 0.02133294 -0.01896066
v -0.02531885 0.01815044 -0.01987054
v -0.00924094 0.02336838 -0.01217280
v -0.02547084 0.02380530 0.00895642
v -0.00298831 0.02348579 0.01195371
v 0.00693085 0.02336835 -0.01458340
v -0.02236598 0.02351979 -0.00603710
f 7 3 4
f 7 5 1
f 7 4 5
f 8 1 5
f 9 4 3
f 10 7 1
f 10 1 2
f 10 3 7
f 11 2 1
f 11 1 8
f 12 5 4
f 13 9 6
f 13 4 9
f 14 9 3
f 14 3 10
f 15 11 8
f 15 8 6
f 16 10 2
f 16 2 11
f 16 14 10
f 16 9 14
f 17 8 5
f 17 5 12
f 17 12 13
f 18 13 12
f 18 12 4
f 18 4 13
f 19 6 8
f 20 15 6
f 20 6 9
f 21 16 11
f 21 11 15
f 21 15 20
f 21 20 9
f 21 9 16
f 22 17 13
f 22 8 17
f 22 19 8
f 22 13 19
f 23 19 13
f 23 13 6
f 23 6 19

