# https://github.com/mikedh/trimesh
v -0.02543108 -0.00184515 0.02322207
v -0.02874229 -0.06296799 0.01211848
v -0.02620278 -0.01993852 -0.02098252
v -0.03569389 -0.02093616 -0.02279762
v -0.03551225 -0.01738140 0.02204387
v -0.03527981 -0.06255955 -0.02196497
v -0.03512437 -0.00168464 0.00296819
v -0.02593546 -0.01364798 0.02227369
v -0.02860227 -0.06328066 -0.00948223
v -0.03213155 -0.02018300 -0.02244657
v -0.03575817 -0.02704943 -0.02274914
v -0.03174883 -0.06164452 0.01794962
v -0.02550540 -0.00168464 0.00296819
v -0.03507390 -0.00178538 0.02274161
v -0.03166720 -0.06300176 -0.02018711
v -0.02984803 -0.06268584 0.01526626
f 7 4 5
f 8 3 1
f 8 1 5
f 9 2 6
f 9 8 2
f 9 3 8
f 10 3 6
f 10 4 7
f 11 6 5
f 11 5 4
f 11 10 6
f 11 4 10
f 12 5 6
f 12 8 5
f 13 1 3
f 13 10 7
f 13 3 10
f 14 7 5
f 14 5 1
f 14 13 7
f 14 1 13
f 15 9 6
f 15 6 3
f 15 3 9
f 16 12 6
f 16 6 2
f 16 2 8
f 16 8 12

