# https://github.com/mikedh/trimesh
v 0.12246476 0.02297720 0.02172608
v 0.12816991 -0.00805241 0.01734162
v 0.12356005 0.00794647 -0.02045018
v 0.02590673 0.00484788 -0.02268211
v -0.03507390 -0.00178538 0.02274161
v 0.02567237 -0.01820559 -0.01810803
v 0.07055714 0.01987963 -0.02083706
v 0.12819718 0.00829752 -0.01520839
v 0.12442912 -0.01007732 0.02167137
v 0.12418350 -0.01387979 -0.01361422
v 0.10279178 -0.00865894 -0.02218406
v -0.03512437 -0.00168464 0.00296819
v 0.12317440 0.02741044 0.00263485
v 0.12479416 0.02520444 0.01723159
v 0.12474955 0.02265805 0.02015634
v -0.02560202 -0.01081863 0.02278335
v 0.07342640 -0.02038397 0.00783955
v 0.12459366 -0.01424956 0.01558884
v 0.12828482 -0.00997797 -0.01291359
v 0.02565563 -0.01362830 -0.02296523
v 0.10586207 -0.01322300 -0.01864722
v 0.12387337 -0.00964055 -0.01957721
v 0.11226727 0.00766212 -0.02238571
v -0.02897480 0.02442034 0.00351170
v 0.08030598 0.02000535 -0.02071826
v 0.12795894 0.00728013 0.00924182
v 0.12526316 0.02541828 0.00303869
v 0.12774966 0.00080491 0.01767041
v 0.12300906 0.02669197 0.01713099
v 0.00332842 -0.02250615 0.00273098
v -0.02550540 -0.01130360 0.00296819
v 0.07654048 -0.02033379 -0.00233824
v 0.00302949 -0.01855867 0.02029178
v 0.12601182 -0.01169478 0.01915936
v 0.09577393 -0.01717101 -0.01206772
v 0.06109448 -0.01281577 -0.02228737
v 0.11852038 -0.01167777 -0.01905825
v 0.12599717 -0.01107982 -0.01717572
v 0.11800193 -0.00686742 -0.02193309
v 0.09643845 0.00776471 -0.02247839
v -0.03527275 0.01423395 0.02240272
v 0.07101885 0.02714330 0.00284930
v 0.12793287 0.00423607 0.01509058
v 0.11708470 -0.01713921 0.00356428
v 0.02894627 -0.02012160 -0.01230226
v 0.07844621 -0.02041107 0.00013735
v 0.00299884 -0.01549036 0.02234573
v 0.00314084 -0.02087363 0.01535220
v 0.12198168 -0.01441611 0.01784355
v 0.07383042 -0.01395546 -0.02028447
v 0.12791289 -0.00776047 -0.01535361
v 0.11815592 0.00127895 -0.02211393
v 0.12488785 -0.00801501 -0.01960973
v 0.06162640 0.02348347 0.01974560
v 0.07412121 0.02666079 0.01152038
v 0.05078981 -0.02031651 -0.00885717
v 0.03523986 -0.02012002 -0.01173661
v 0.11534832 -0.01715721 0.00839352
v 0.10246444 -0.01207224 0.02169884
v 0.12588476 0.00395144 -0.01908632
v 0.02586575 0.02082279 0.02021761
v 0.02563420 0.01892581 0.02196948
v 0.10612777 0.02660915 0.01742641
v 0.07913034 -0.02027306 0.00218464
f 13 8 3
f 15 1 9
f 16 9 1
f 16 1 5
f 19 8 2
f 19 18 10
f 20 12 4
f 23 11 20
f 24 7 4
f 24 4 12
f 25 13 3
f 25 23 7
f 25 3 23
f 26 2 8
f 27 8 13
f 27 13 14
f 27 26 8
f 27 14 26
f 28 15 9
f 28 9 2
f 29 15 14
f 29 1 15
f 29 14 13
f 31 16 5
f 31 5 12
f 31 30 16
f 31 6 30
f 31 20 6
f 31 12 20
f 34 2 9
f 34 19 2
f 34 18 19
f 35 21 10
f 35 6 21
f 36 20 11
f 36 6 20
f 37 36 11
f 37 21 36
f 37 10 21
f 38 19 10
f 38 37 22
f 38 10 37
f 39 11 23
f 39 37 11
f 39 22 37
f 40 4 7
f 40 7 23
f 40 23 20
f 40 20 4
f 41 24 12
f 41 12 5
f 41 5 1
f 42 7 24
f 42 25 7
f 42 13 25
f 43 28 2
f 43 2 26
f 43 26 14
f 43 14 15
f 43 15 28
f 44 10 18
f 44 35 10
f 44 32 35
f 45 30 6
f 46 17 30
f 46 30 32
f 46 32 44
f 47 9 16
f 47 16 33
f 48 30 17
f 48 33 16
f 48 16 30
f 49 34 9
f 49 18 34
f 49 33 48
f 49 48 17
f 50 36 21
f 50 21 6
f 50 6 36
f 51 8 19
f 51 19 38
f 52 39 23
f 52 23 3
f 53 22 39
f 53 51 38
f 53 38 22
f 53 52 3
f 53 39 52
f 55 42 24
f 56 32 30
f 56 35 32
f 57 45 6
f 57 6 35
f 57 35 56
f 57 56 30
f 57 30 45
f 58 46 44
f 58 49 17
f 58 44 18
f 58 18 49
f 59 47 33
f 59 9 47
f 59 49 9
f 59 33 49
f 60 53 3
f 60 3 8
f 60 8 51
f 60 51 53
f 61 54 24
f 61 24 41
f 62 41 1
f 62 1 54
f 62 61 41
f 62 54 61
f 63 54 1
f 63 1 29
f 63 42 55
f 63 29 13
f 63 13 42
f 63 55 24
f 63 24 54
f 64 58 17
f 64 17 46
f 64 46 58

