# https://github.com/mikedh/trimesh
v -0.04792705 -0.06258464 0.02254741
v -0.02918284 -0.07591177 0.01685343
v -0.02919688 -0.06292573 -0.01585601
v -0.06621700 -0.06183726 -0.02309025
v -0.06822313 -0.08411740 -0.00093185
v -0.03594086 -0.06236739 -0.02212030
v -0.02926905 -0.06287337 0.01404724
v -0.04807680 -0.08360154 0.01525931
v -0.07333777 -0.06258721 0.00298596
v -0.06487431 -0.08235535 -0.02026195
v -0.03521242 -0.07224439 0.02165530
v -0.02867614 -0.07788699 -0.01603560
v -0.07023140 -0.06194584 -0.02117417
v -0.07032352 -0.08053116 0.00338976
v -0.03708806 -0.07884479 -0.02241088
v -0.03583588 -0.08453351 -0.00898919
v -0.03062978 -0.07248667 0.01897938
v -0.03398471 -0.08109775 0.01978245
v -0.03327084 -0.07549696 -0.02227169
v -0.06495280 -0.07777189 -0.02218625
v -0.06549609 -0.08493176 0.00239526
v -0.06967147 -0.08360848 -0.01272607
v -0.03349896 -0.08170235 -0.01787967
v -0.02947322 -0.07254804 0.01688659
v -0.03180523 -0.07986895 0.01858898
v -0.03616750 -0.08440824 0.01253842
v -0.03567857 -0.08156288 0.01952755
v -0.03166720 -0.06300176 -0.02018711
v -0.05762148 -0.07988725 -0.02219864
v -0.06951622 -0.08475241 -0.00964949
v -0.06930393 -0.08048300 -0.01747342
v -0.04159356 -0.08413288 -0.01226097
v -0.04812376 -0.08116343 -0.02046046
v -0.03058662 -0.08132261 -0.01532223
v -0.03107325 -0.07865949 -0.01893606
v -0.03093136 -0.08095576 0.01687135
v -0.04803117 -0.08444974 0.01231407
v -0.02960803 -0.06671384 -0.01720982
v -0.06694474 -0.08478067 -0.01290160
v -0.06820948 -0.07986357 -0.01968080
v -0.02940120 -0.08029495 -0.01540250
v -0.06805869 -0.08248857 -0.01705268
v -0.02951035 -0.08012270 0.00949384
v -0.02919563 -0.07779935 0.01492853
f 6 4 1
f 7 6 1
f 7 3 6
f 11 7 1
f 12 7 2
f 12 3 7
f 13 9 1
f 13 1 4
f 14 8 1
f 14 1 9
f 17 7 11
f 18 17 11
f 19 15 4
f 19 4 6
f 20 13 4
f 21 14 5
f 21 8 14
f 24 17 2
f 24 2 7
f 24 7 17
f 25 2 17
f 25 17 18
f 26 21 16
f 27 18 11
f 27 11 1
f 27 1 8
f 27 26 18
f 27 8 26
f 28 19 6
f 28 6 3
f 28 12 19
f 29 15 10
f 29 10 20
f 29 20 4
f 29 4 15
f 30 14 9
f 30 9 22
f 30 5 14
f 30 21 5
f 31 22 9
f 31 9 13
f 32 23 16
f 32 10 23
f 33 23 10
f 33 10 15
f 33 15 23
f 34 16 23
f 34 26 16
f 35 19 12
f 35 23 15
f 35 15 19
f 36 25 18
f 36 18 26
f 36 26 34
f 36 2 25
f 37 26 8
f 37 8 21
f 37 21 26
f 38 28 3
f 38 3 12
f 38 12 28
f 39 16 21
f 39 21 30
f 39 32 16
f 39 10 32
f 39 30 22
f 40 31 13
f 40 13 20
f 40 20 10
f 41 34 23
f 41 23 35
f 41 35 12
f 42 39 22
f 42 10 39
f 42 40 10
f 42 22 31
f 42 31 40
f 43 36 34
f 43 34 41
f 43 41 12
f 44 2 36
f 44 36 43
f 44 43 12
f 44 12 2

