# OBJ generated by ONSHAPE BY PTC INC, 1.201 Units = meters
mtllib small_d.mtl
g Part 1
v 0.0225805 0.00636729 0.02 
v 0.0225805 0.00636729 -0.02 
v 0.022895 -2.17014e-05 -0.02 
v 0.0219134 0.0107839 0.02 
v 0.0219134 0.0107839 -0.02 
v 0.0210316 0.0142878 0.02 
v 0.0210316 0.0142878 -0.02 
v 0.0200087 0.0171452 0.02 
v 0.0200087 0.0171452 -0.02 
v 0.0188809 0.0195323 0.02 
v 0.0188809 0.0195323 -0.02 
v 0.0176625 0.0215681 0.02 
v 0.0176625 0.0215681 -0.02 
v 0.016354 0.023335 -0.02 
v 0.0148595 0.0249766 0.02 
v 0.0148595 0.0249766 -0.02 
v 0.0132152 0.0264411 0.02 
v 0.0132152 0.0264411 -0.02 
v 0.0114398 0.0277184 0.02 
v 0.0114398 0.0277184 -0.02 
v 0.00949531 0.0288366 0.02 
v 0.00949531 0.0288366 -0.02 
v 0.00733051 0.029809 0.02 
v 0.00733051 0.029809 -0.02 
v 0.00487743 0.0306342 0.02 
v 0.00487743 0.0306342 -0.02 
v 0.00204376 0.031294 0.02 
v 0.00204376 0.031294 -0.02 
v -0.00129889 0.0317481 0.02 
v -0.00129889 0.0317481 -0.02 
v -0.00531684 0.0319227 0.02 
v -0.00531684 0.0319227 -0.02 
v 0.016354 0.023335 0.02 
v 0.022895 -2.17014e-05 0.02 
v -0.00222493 -0.0323705 -0.02 
v -0.00748698 -0.0326389 -0.02 
v -0.00748698 -0.0326389 0.02 
v 0.00151347 -0.0317924 0.02 
v 0.00151347 -0.0317924 -0.02 
v 0.00459941 -0.0310024 0.02 
v 0.00459941 -0.0310024 -0.02 
v 0.00720786 -0.0300553 0.02 
v 0.00720786 -0.0300553 -0.02 
v 0.00946067 -0.0289777 0.02 
v 0.00946067 -0.0289777 -0.02 
v 0.0114432 -0.0277776 0.02 
v 0.0114432 -0.0277776 -0.02 
v 0.0133674 -0.026324 0.02 
v 0.0133674 -0.026324 -0.02 
v 0.0150633 -0.0247343 0.02 
v 0.0150633 -0.0247343 -0.02 
v 0.0159864 -0.0237122 0.02 
v 0.0159864 -0.0237122 -0.02 
v 0.0174114 -0.0218488 0.02 
v 0.0174114 -0.0218488 -0.02 
v 0.0186987 -0.0197605 0.02 
v 0.0186987 -0.0197605 -0.02 
v 0.0198606 -0.0173801 0.02 
v 0.0198606 -0.0173801 -0.02 
v 0.0208927 -0.0146189 0.02 
v 0.0208927 -0.0146189 -0.02 
v 0.0217731 -0.0113529 0.02 
v 0.0217731 -0.0113529 -0.02 
v 0.0224543 -0.00740477 0.02 
v 0.0224543 -0.00740477 -0.02 
v 0.0228488 -0.00251417 0.02 
v 0.0228488 -0.00251417 -0.02 
v -0.00222493 -0.0323705 0.02 
v -0.0164931 -0.0326389 -0.02 
v -0.0164931 -0.0326389 0.02 
v -0.0164931 0.0319227 -0.02 
v -0.0164931 0.0319227 0.02 
v 0.0422917 0.0183319 0.02 
v 0.0407574 0.0225704 0.02 
v 0.000979484 0.0488357 0.02 
v -0.00640191 0.0491536 0.02 
v -0.0375217 0.0491536 0.02 
v 0.0435063 0.0135677 0.02 
v 0.0389159 0.026412 0.02 
v 0.0444303 -0.00661111 0.02 
v 0.0447483 0.000520833 0.02 
v 0.0367494 0.0299555 0.02 
v 0.0132099 0.0465724 0.02 
v 0.00777849 0.0478902 0.02 
v 0.00455416 -0.0489414 0.02 
v 0.0105564 -0.0476816 0.02 
v 0.0434849 -0.013178 0.02 
v 0.0342099 0.033277 0.02 
v 0.0178474 0.0449533 0.02 
v 0.0156688 -0.0460922 0.02 
v 0.0422151 -0.0182654 0.02 
v 0.0447386 0.00174444 0.02 
v 0.0443538 0.00810557 0.02 
v 0.0313151 0.036339 0.02 
v 0.0201112 -0.0442251 0.02 
v 0.0308051 -0.0369792 0.02 
v 0.0406533 -0.0226459 0.02 
v 0.0219031 0.043074 0.02 
v -0.0094401 -0.05 0.02 
v -0.00235115 -0.0497473 0.02 
v 0.0275788 -0.0396932 0.02 
v 0.0313228 -0.0364871 0.02 
v 0.0388367 -0.0264996 0.02 
v 0.0293678 0.0380816 0.02 
v 0.0258764 0.0407073 0.02 
v 0.0340077 -0.0336221 0.02 
v 0.0365523 -0.0302796 0.02 
v 0.0240421 -0.0420963 0.02 
v -0.0375217 -0.05 0.02 
v 0.0447386 0.00174444 -0.02 
v 0.0447483 0.000520833 -0.02 
v 0.0444303 -0.00661111 -0.02 
v 0.0434849 -0.013178 -0.02 
v 0.0443538 0.00810557 -0.02 
v -0.00640191 0.0491536 -0.02 
v 0.000979484 0.0488357 -0.02 
v 0.0422917 0.0183319 -0.02 
v 0.0422151 -0.0182654 -0.02 
v 0.00777849 0.0478902 -0.02 
v 0.0407574 0.0225704 -0.02 
v 0.0435063 0.0135677 -0.02 
v 0.0406533 -0.0226459 -0.02 
v 0.0388367 -0.0264996 -0.02 
v 0.0308051 -0.0369792 -0.02 
v 0.0275788 -0.0396932 -0.02 
v 0.0132099 0.0465724 -0.02 
v 0.0389159 0.026412 -0.02 
v 0.0365523 -0.0302796 -0.02 
v 0.0340077 -0.0336221 -0.02 
v 0.0313228 -0.0364871 -0.02 
v 0.00455416 -0.0489414 -0.02 
v -0.00235115 -0.0497473 -0.02 
v 0.0178474 0.0449533 -0.02 
v 0.0367494 0.0299555 -0.02 
v 0.0240421 -0.0420963 -0.02 
v 0.0105564 -0.0476816 -0.02 
v 0.0219031 0.043074 -0.02 
v 0.0342099 0.033277 -0.02 
v 0.0156688 -0.0460922 -0.02 
v 0.0258764 0.0407073 -0.02 
v -0.0094401 -0.05 -0.02 
v -0.0375217 -0.05 -0.02 
v 0.0293678 0.0380816 -0.02 
v 0.0201112 -0.0442251 -0.02 
v 0.0313151 0.036339 -0.02 
v -0.0375217 0.0491536 -0.02 
vn -0.99461 -0.103682 0 
vn -1 0 0 
vn -0.980106 -0.198477 0 
vn -0.956373 -0.292149 0 
vn -0.923518 -0.383555 0 
vn -0.881782 -0.471657 0 
vn -0.831524 -0.555489 0 
vn -0.773207 -0.634154 0 
vn -0.703312 -0.710881 0 
vn -0.625058 -0.780578 0 
vn -0.54183 -0.840488 0 
vn -0.454803 -0.890592 0 
vn -0.365075 -0.930978 0 
vn -0.273703 -0.961814 0 
vn -0.181703 -0.983353 0 
vn -0.0900459 -0.995938 0 
vn 0 -1 0 
vn -0.773207 -0.634154 0 
vn -1 0 0 
vn -0.106493 0.994313 0 
vn 0 1 0 
vn -0.201916 0.979403 0 
vn -0.296 0.955188 0 
vn -0.387613 0.921822 0 
vn -0.475764 0.879573 0 
vn -0.559516 0.828819 0 
vn -0.644777 0.764371 0 
vn -0.721148 0.692781 0 
vn -0.762295 0.64723 0 
vn -0.823839 0.566824 0 
vn -0.875876 0.482536 0 
vn -0.918539 0.39533 0 
vn -0.951949 0.306256 0 
vn -0.976321 0.216325 0 
vn -0.991965 0.126511 0 
vn -0.999288 0.0377415 0 
vn -1 0 0 
vn -0.106493 0.994313 0 
vn 0 1 0 
vn 1 0 0 
vn 0 -1 0 
vn 0 0 1 
vn 0 0 -1 
vn 0.603489 -0.797371 0 
vn 0.682521 -0.730866 0 
vn 0.519787 -0.854296 0 
vn 0.432615 -0.901579 0 
vn 0.343052 -0.939316 0 
vn 0.252136 -0.967692 0 
vn 0.160868 -0.986976 0 
vn 0.0736018 -0.997288 0 
vn 0 -1 0 
vn 0.682521 -0.730866 0 
vn 0.995744 -0.0921633 0 
vn 1 0 0 
vn 0.980661 -0.195715 0 
vn 0.956954 -0.290239 0 
vn 0.924082 -0.382195 0 
vn 0.882299 -0.470689 0 
vn 0.826485 -0.562958 0 
vn 0.762502 -0.646986 0 
vn 0.695287 -0.718732 0 
vn 0.682521 -0.730866 0 
vn 0.762502 -0.646986 0 
vn 0.995744 -0.0921633 0 
vn 0.761513 0.64815 0 
vn 0.690253 0.723568 0 
vn 0.825154 0.564908 0 
vn 0.878666 0.477438 0 
vn 0.922116 0.386914 0 
vn 0.955675 0.294423 0 
vn 0.97959 0.201007 0 
vn 0.994188 0.10766 0 
vn 0.999875 0.0158091 0 
vn 1 0 0 
vn 0.690253 0.723568 0 
vn 0.0890653 0.996026 0 
vn 0 1 0 
vn 0.189257 0.981927 0 
vn 0.284043 0.958812 0 
vn 0.376158 0.926555 0 
vn 0.464889 0.885369 0 
vn 0.557939 0.829882 0 
vn 0.642728 0.766094 0 
vn 0.690253 0.723568 0 
vn 0 1 0 
vn -1 0 0 
vn 0 -1 0 
usemtl 0.615686_0.811765_0.929412_0.000000_0.000000
o mesh0
f 1//1 2//1 3//2 
f 4//3 5//3 2//1 
f 6//4 7//4 5//3 
f 8//5 9//5 7//4 
f 10//6 11//6 9//5 
f 12//7 13//7 11//6 
f 14//8 13//7 12//7 
f 15//9 16//9 14//8 
f 17//10 18//10 16//9 
f 19//11 20//11 18//10 
f 21//12 22//12 20//11 
f 23//13 24//13 22//12 
f 25//14 26//14 24//13 
f 27//15 28//15 26//14 
f 29//16 30//16 28//15 
f 31//17 32//17 30//16 
f 30//16 29//16 31//17 
f 28//15 27//15 29//16 
f 26//14 25//14 27//15 
f 24//13 23//13 25//14 
f 22//12 21//12 23//13 
f 20//11 19//11 21//12 
f 18//10 17//10 19//11 
f 16//9 15//9 17//10 
f 14//8 33//18 15//9 
f 12//7 33//18 14//8 
f 11//6 10//6 12//7 
f 9//5 8//5 10//6 
f 7//4 6//4 8//5 
f 5//3 4//3 6//4 
f 2//1 1//1 4//3 
f 3//2 34//19 1//1 
o mesh1
f 35//20 36//21 37//21 
f 38//22 39//22 35//20 
f 40//23 41//23 39//22 
f 42//24 43//24 41//23 
f 44//25 45//25 43//24 
f 46//26 47//26 45//25 
f 48//27 49//27 47//26 
f 50//28 51//28 49//27 
f 52//29 53//29 51//28 
f 54//30 55//30 53//29 
f 56//31 57//31 55//30 
f 58//32 59//32 57//31 
f 60//33 61//33 59//32 
f 62//34 63//34 61//33 
f 64//35 65//35 63//34 
f 66//36 67//36 65//35 
f 34//37 3//37 67//36 
f 67//36 66//36 34//37 
f 65//35 64//35 66//36 
f 63//34 62//34 64//35 
f 61//33 60//33 62//34 
f 59//32 58//32 60//33 
f 57//31 56//31 58//32 
f 55//30 54//30 56//31 
f 53//29 52//29 54//30 
f 51//28 50//28 52//29 
f 49//27 48//27 50//28 
f 47//26 46//26 48//27 
f 45//25 44//25 46//26 
f 43//24 42//24 44//25 
f 41//23 40//23 42//24 
f 39//22 38//22 40//23 
f 35//20 68//38 38//22 
f 37//21 68//38 35//20 
o mesh2
f 37//39 36//39 69//39 
f 69//39 70//39 37//39 
o mesh3
f 70//40 69//40 71//40 
f 71//40 72//40 70//40 
o mesh4
f 72//41 71//41 32//41 
f 32//41 31//41 72//41 
o mesh5
f 73//42 74//42 6//42 
f 75//42 76//42 31//42 
f 76//42 77//42 72//42 
f 78//42 4//42 1//42 
f 4//42 78//42 73//42 
f 75//42 29//42 27//42 
f 72//42 31//42 76//42 
f 6//42 4//42 73//42 
f 74//42 79//42 8//42 
f 31//42 29//42 75//42 
f 80//42 66//42 64//42 
f 81//42 34//42 66//42 
f 8//42 6//42 74//42 
f 79//42 82//42 10//42 
f 83//42 84//42 25//42 
f 27//42 84//42 75//42 
f 85//42 38//42 68//42 
f 85//42 86//42 40//42 
f 87//42 64//42 62//42 
f 66//42 80//42 81//42 
f 10//42 8//42 79//42 
f 82//42 88//42 12//42 
f 89//42 83//42 23//42 
f 27//42 25//42 84//42 
f 40//42 38//42 85//42 
f 86//42 90//42 42//42 
f 91//42 62//42 60//42 
f 64//42 87//42 80//42 
f 92//42 93//42 1//42 
f 12//42 10//42 82//42 
f 88//42 94//42 33//42 
f 89//42 21//42 19//42 
f 25//42 23//42 83//42 
f 42//42 40//42 86//42 
f 90//42 95//42 44//42 
f 96//42 52//42 50//42 
f 97//42 60//42 58//42 
f 62//42 91//42 87//42 
f 34//42 81//42 92//42 
f 33//42 12//42 88//42 
f 98//42 19//42 17//42 
f 23//42 21//42 89//42 
f 99//42 37//42 70//42 
f 100//42 68//42 37//42 
f 44//42 42//42 90//42 
f 50//42 101//42 96//42 
f 54//42 52//42 102//42 
f 103//42 58//42 56//42 
f 60//42 97//42 91//42 
f 1//42 93//42 78//42 
f 33//42 94//42 104//42 
f 105//42 17//42 15//42 
f 19//42 98//42 89//42 
f 37//42 99//42 100//42 
f 95//42 46//42 44//42 
f 101//42 50//42 48//42 
f 102//42 106//42 54//42 
f 107//42 56//42 54//42 
f 58//42 103//42 97//42 
f 104//42 15//42 33//42 
f 17//42 105//42 98//42 
f 68//42 100//42 85//42 
f 108//42 48//42 46//42 
f 96//42 102//42 52//42 
f 56//42 107//42 103//42 
f 15//42 104//42 105//42 
f 77//42 109//42 70//42 
f 46//42 95//42 108//42 
f 54//42 106//42 107//42 
f 70//42 72//42 77//42 
f 48//42 108//42 101//42 
f 70//42 109//42 99//42 
f 1//42 34//42 92//42 
o mesh6
f 110//43 3//43 2//43 
f 111//43 112//43 67//43 
f 112//43 113//43 65//43 
f 2//43 114//43 110//43 
f 65//43 67//43 112//43 
f 115//43 32//43 71//43 
f 116//43 30//43 32//43 
f 117//43 5//43 7//43 
f 67//43 3//43 111//43 
f 113//43 118//43 63//43 
f 32//43 115//43 116//43 
f 116//43 119//43 28//43 
f 7//43 120//43 117//43 
f 121//43 114//43 2//43 
f 63//43 65//43 113//43 
f 118//43 122//43 61//43 
f 28//43 30//43 116//43 
f 120//43 7//43 9//43 
f 2//43 5//43 121//43 
f 61//43 63//43 118//43 
f 122//43 123//43 59//43 
f 124//43 125//43 51//43 
f 119//43 26//43 28//43 
f 126//43 24//43 26//43 
f 127//43 9//43 11//43 
f 117//43 121//43 5//43 
f 59//43 61//43 122//43 
f 123//43 128//43 57//43 
f 55//43 129//43 130//43 
f 53//43 130//43 124//43 
f 131//43 39//43 41//43 
f 131//43 132//43 35//43 
f 26//43 119//43 126//43 
f 133//43 22//43 24//43 
f 134//43 11//43 13//43 
f 9//43 127//43 120//43 
f 57//43 59//43 123//43 
f 128//43 129//43 55//43 
f 51//43 53//43 124//43 
f 125//43 135//43 49//43 
f 136//43 41//43 43//43 
f 35//43 39//43 131//43 
f 24//43 126//43 133//43 
f 133//43 137//43 20//43 
f 138//43 13//43 14//43 
f 11//43 134//43 127//43 
f 55//43 57//43 128//43 
f 49//43 51//43 125//43 
f 139//43 43//43 45//43 
f 41//43 136//43 131//43 
f 20//43 22//43 133//43 
f 137//43 140//43 18//43 
f 13//43 138//43 134//43 
f 130//43 53//43 55//43 
f 43//43 139//43 136//43 
f 132//43 141//43 36//43 
f 141//43 142//43 69//43 
f 18//43 20//43 137//43 
f 140//43 143//43 16//43 
f 14//43 16//43 143//43 
f 110//43 111//43 3//43 
f 45//43 144//43 139//43 
f 69//43 36//43 141//43 
f 16//43 18//43 140//43 
f 14//43 145//43 138//43 
f 135//43 144//43 47//43 
f 36//43 35//43 132//43 
f 143//43 145//43 14//43 
f 45//43 47//43 144//43 
f 47//43 49//43 135//43 
f 146//43 71//43 69//43 
f 69//43 142//43 146//43 
f 71//43 146//43 115//43 
o mesh7
f 101//44 125//44 124//45 
f 108//46 135//46 125//44 
f 95//47 144//47 135//46 
f 90//48 139//48 144//47 
f 86//49 136//49 139//48 
f 85//50 131//50 136//49 
f 100//51 132//51 131//50 
f 99//52 141//52 132//51 
f 132//51 100//51 99//52 
f 131//50 85//50 100//51 
f 136//49 86//49 85//50 
f 139//48 90//48 86//49 
f 144//47 95//47 90//48 
f 135//46 108//46 95//47 
f 125//44 101//44 108//46 
f 124//45 96//53 101//44 
o mesh8
f 112//54 111//55 81//55 
f 87//56 113//56 112//54 
f 91//57 118//57 113//56 
f 97//58 122//58 118//57 
f 103//59 123//59 122//58 
f 107//60 128//60 123//59 
f 129//61 128//60 107//60 
f 102//62 130//62 129//61 
f 96//63 124//63 130//62 
f 130//62 102//62 96//63 
f 129//61 106//64 102//62 
f 107//60 106//64 129//61 
f 123//59 103//59 107//60 
f 122//58 97//58 103//59 
f 118//57 91//57 97//58 
f 113//56 87//56 91//57 
f 112//54 80//65 87//56 
f 81//55 80//65 112//54 
o mesh9
f 88//66 138//66 145//67 
f 82//68 134//68 138//66 
f 79//69 127//69 134//68 
f 74//70 120//70 127//69 
f 73//71 117//71 120//70 
f 78//72 121//72 117//71 
f 93//73 114//73 121//72 
f 92//74 110//74 114//73 
f 81//75 111//75 110//74 
f 110//74 92//74 81//75 
f 114//73 93//73 92//74 
f 121//72 78//72 93//73 
f 117//71 73//71 78//72 
f 120//70 74//70 73//71 
f 127//69 79//69 74//70 
f 134//68 82//68 79//69 
f 138//66 88//66 82//68 
f 145//67 94//76 88//66 
o mesh10
f 75//77 116//77 115//78 
f 84//79 119//79 116//77 
f 83//80 126//80 119//79 
f 89//81 133//81 126//80 
f 98//82 137//82 133//81 
f 105//83 140//83 137//82 
f 143//84 140//83 105//83 
f 94//85 145//85 143//84 
f 143//84 104//84 94//85 
f 105//83 104//84 143//84 
f 137//82 98//82 105//83 
f 133//81 89//81 98//82 
f 126//80 83//80 89//81 
f 119//79 84//79 83//80 
f 116//77 75//77 84//79 
f 115//78 76//86 75//77 
o mesh11
f 76//86 115//86 146//86 
f 146//86 77//86 76//86 
o mesh12
f 77//87 146//87 142//87 
f 142//87 109//87 77//87 
o mesh13
f 109//88 142//88 141//88 
f 141//88 99//88 109//88 
