# Created by Open3D 
# object name: true_geom_aligned_assist
# number of vertices: 12
# number of triangles: 20
v -0.0200259 0.0110854 -0.0128766
vn -0.342997 -0.0681429 -0.936861
v 0.178029 -0.0394507 -0.0684088
vn -0.136059 0.268167 -0.953716
v -0.00688336 0.0410384 0.00673811
vn -0.129156 0.826199 -0.548373
v 0.191172 -0.00949774 -0.0487941
vn 0.465143 0.812267 -0.351943
v 0.00243605 0.0371472 0.0435167
vn 0.0994788 0.910439 0.401503
v 0.200491 -0.013389 -0.0120154
vn 0.408508 0.648059 0.642761
v -0.00138719 0.00330297 0.0606807
vn 0.121259 0.122609 0.985019
v 0.196668 -0.0472332 0.0051484
vn 0.351298 -0.319922 0.879909
v -0.0145299 -0.02665 0.0410659
vn -0.0891379 -0.781409 0.61762
v 0.183525 -0.0771861 -0.0144663
vn 0.0562144 -0.975448 0.212935
v -0.0238492 -0.0227588 0.00428728
vn -0.615952 -0.749298 -0.243219
v 0.174206 -0.0732949 -0.0512449
vn -0.185881 -0.694659 -0.694908
f 11//11 9//9 7//7
f 11//11 7//7 5//5
f 11//11 5//5 3//3
f 11//11 3//3 1//1
f 4//4 6//6 8//8
f 4//4 8//8 10//10
f 4//4 10//10 12//12
f 4//4 12//12 2//2
f 3//3 4//4 2//2
f 2//2 1//1 3//3
f 5//5 6//6 4//4
f 4//4 3//3 5//5
f 7//7 8//8 6//6
f 6//6 5//5 7//7
f 9//9 10//10 8//8
f 8//8 7//7 9//9
f 11//11 12//12 10//10
f 10//10 9//9 11//11
f 1//1 2//2 12//12
f 12//12 11//11 1//1
