# Blender 5.2.0 LTS
# www.blender.org
mtllib ramp2.mtl
o new_ramp.013
v -2.549196 48.145546 19.356451
v -2.601095 48.145515 19.326235
v -3.031840 47.180557 19.574926
v -3.172209 46.866108 19.655968
v -3.224182 46.749664 19.685976
v -3.364414 46.435524 19.766939
v -2.632522 48.185242 41.998230
v -2.540029 48.145424 19.290981
v 0.057213 48.141426 17.791460
v -2.623760 48.185242 42.003288
v -0.037421 48.186489 43.496513
v -0.063647 0.050209 43.481369
v 0.030878 0.005201 17.806665
v -15.225204 0.029052 26.614765
v -18.325573 0.041294 32.643425
v -18.446249 8.433455 32.868164
v -18.445889 0.041784 32.868378
v -18.447420 12.625452 32.867493
v -3.594648 46.021896 41.442749
v -3.546008 46.131275 41.470825
v -18.518995 0.034234 28.516436
v -18.502851 12.522128 28.507116
v -1.073533 48.143169 18.444296
v -0.055983 14.116743 43.485794
v 0.049656 34.329620 17.795820
v -17.333174 0.042290 33.510811
v -18.030815 0.041964 33.108025
v -16.730917 0.042563 33.858513
v -3.588099 45.934422 19.896080
v -7.553161 37.121185 39.157295
v -2.950604 47.362545 19.528025
v -3.059518 47.118549 19.590904
v -4.986161 42.802460 20.703253
vn 0.0005 1.0000 -0.0018
vn -0.0006 -1.0000 0.0018
vn -0.9999 0.0013 0.0168
vn 1.0000 -0.0005 0.0037
vn -0.5000 -0.0000 0.8660
vn -0.5000 -0.0000 -0.8660
vn -0.5003 0.0002 0.8659
vn -0.9133 0.4072 -0.0019
vn -0.4950 0.0012 0.8689
vn -0.0006 -1.0000 0.0017
vn -0.5001 -0.0001 -0.8660
vn -0.9133 0.4072 -0.0020
vn -0.9139 0.4059 0.0020
vn -0.0005 -1.0000 0.0017
vn -0.0008 -1.0000 0.0018
vn 0.3398 0.2273 0.9126
vn 0.5165 -0.4926 -0.7004
vn -0.9999 -0.0001 0.0127
vn 0.0011 1.0000 -0.0019
vn -0.5004 -0.0006 0.8658
vn -0.9135 0.4068 -0.0020
vn -0.5000 0.0001 -0.8660
vn -0.9135 0.4067 -0.0018
vn -0.9133 0.4073 -0.0017
vn -0.9135 0.4068 -0.0018
vn -0.8360 0.0007 0.5488
vn -0.7039 0.2215 -0.6749
vt 0.000000 0.000000
vt 0.169153 0.172720
vt 0.570708 0.611800
vt 0.599156 0.611791
vt 0.358324 0.396789
vt 0.526004 0.616483
vt 0.241324 0.298123
vt 0.529076 0.638076
vt 0.500011 0.611822
vt 0.500086 0.616485
vt 0.517370 0.616485
vt 0.379050 0.467277
vt 0.175617 0.216494
vt 0.500087 0.617791
vt 0.500103 0.638067
vt 0.294422 0.369186
vt 0.435954 0.464602
vt 0.579868 0.617925
vt 0.500086 0.616972
vt 0.599249 0.638098
vt 0.593932 0.632915
s 0
usemtl 
f 2/1/1 1/1/1 8/1/1
f 11/1/1 23/2/1 10/1/1
f 17/1/2 15/1/2 27/1/2
f 17/1/3 22/1/3 21/1/3
f 25/3/4 9/4/4 11/1/4
f 10/1/5 19/1/5 11/1/5
f 19/1/5 30/1/5 11/1/5
f 30/5/5 18/6/5 11/1/5
f 18/6/5 28/7/5 11/1/5
f 28/7/5 24/1/5 11/1/5
f 7/1/1 1/1/1 2/1/1
f 4/1/6 23/1/6 9/1/6
f 25/3/4 24/8/4 13/9/4
f 8/1/1 1/1/1 23/2/1
f 1/1/1 10/1/1 23/2/1
f 20/1/7 10/1/7 7/1/7
f 32/1/8 7/1/8 3/1/8
f 17/10/9 16/11/9 18/6/9
f 16/11/5 28/7/5 18/6/5
f 4/1/6 9/4/6 25/3/6
f 16/11/5 27/12/5 26/13/5
f 21/1/10 28/7/10 26/14/10
f 14/1/2 12/1/2 21/1/2
f 13/1/4 24/8/4 12/15/4
f 8/1/11 3/1/11 31/1/11
f 14/16/6 21/1/6 4/1/6
f 21/1/6 33/1/6 5/1/6
f 7/1/12 31/1/12 3/1/12
f 22/1/13 18/1/13 30/17/13
f 5/1/8 20/18/8 32/1/8
f 29/1/8 20/18/8 6/1/8
f 26/14/14 15/1/14 21/1/14
f 15/1/15 17/1/15 21/1/15
f 15/1/2 26/14/2 27/19/2
f 32/1/16 4/1/16 5/1/16
f 29/1/17 5/1/17 33/1/17
f 11/1/1 9/1/1 23/2/1
f 17/1/18 18/1/18 22/1/18
f 28/7/5 12/1/5 24/1/5
f 7/1/19 10/1/19 1/1/19
f 4/1/6 8/1/6 23/1/6
f 25/3/4 11/20/4 24/8/4
f 20/1/20 19/1/20 10/1/20
f 32/1/21 20/18/21 7/1/21
f 13/9/6 14/16/6 25/3/6
f 14/16/6 4/1/6 25/3/6
f 16/11/5 17/10/5 27/12/5
f 26/13/5 28/7/5 16/11/5
f 21/1/14 12/1/14 28/7/14
f 14/1/2 13/1/2 12/1/2
f 31/1/6 2/1/6 8/1/6
f 8/1/22 4/1/22 3/1/22
f 21/1/6 22/1/6 33/1/6
f 5/1/11 4/1/11 21/1/11
f 7/1/12 2/1/12 31/1/12
f 20/18/23 33/1/23 19/21/23
f 33/1/24 22/1/24 30/17/24
f 19/21/25 33/1/25 30/17/25
f 5/1/8 6/1/8 20/18/8
f 29/1/8 33/1/8 20/18/8
f 32/1/26 3/1/26 4/1/26
f 29/1/27 6/1/27 5/1/27
