# Blender 5.2.0 LTS
# www.blender.org
mtllib ramp12.mtl
o new_ramp.007
v -128.313995 7.153494 42.946503
v -129.087219 7.152201 42.946503
v -130.038361 7.155210 42.946510
v -131.631622 7.124259 42.946503
v -114.033386 9.527191 47.179749
v -114.033394 24.268736 57.263313
v -123.526497 31.894421 58.274117
v -124.073547 31.884829 58.272064
v -125.530525 31.761593 58.266975
v -124.082863 31.889355 60.812042
v -126.981094 31.493641 58.262070
v -125.539841 31.766058 60.806953
v -126.990547 31.498093 60.802071
v -128.486298 31.067039 60.797264
v -128.476929 31.062603 58.257378
v -164.125885 6.814266 43.437271
v -164.133759 8.037474 45.774773
v -164.133759 8.392220 46.452637
v -164.133759 17.592783 56.350342
v -123.535797 31.898830 60.814117
v -114.033379 31.893631 60.849060
v -114.033386 31.889242 58.309082
v -114.033379 17.742447 60.873856
v -164.133759 11.478589 60.700455
v -164.133759 0.171053 60.720306
v -114.033386 0.143693 60.904778
v -114.033379 0.114143 44.030632
v -114.033379 0.112615 43.155975
v -114.033386 0.112249 42.946503
v -164.127686 0.139916 42.946510
v -114.033386 6.900683 42.946510
v -164.133759 0.142809 44.595940
v -164.124176 6.620898 42.946503
v -153.775208 6.575390 42.946503
v -164.133728 5.058257 45.315033
v -164.133759 20.491053 60.684624
v -164.133759 20.486588 58.144608
v -164.133759 20.484241 58.143257
v -164.133759 0.161593 55.312447
v -164.133759 0.158199 53.372459
v -114.033386 0.114427 44.195984
v -114.033386 0.115410 44.756752
vn -0.0036 0.0012 1.0000
vn -0.2769 0.9609 -0.0027
vn -0.0175 0.9998 -0.0018
vn -0.0173 0.9998 -0.0018
vn -1.0000 0.0006 -0.0037
vn -0.1816 0.9834 -0.0024
vn 0.0002 -1.0000 0.0014
vn -1.0000 0.0005 -0.0037
vn -0.0000 -0.0000 -1.0000
vn -0.0006 -1.0000 0.0018
vn -0.0006 -1.0000 0.0017
vn -1.0000 -0.0000 -0.0000
vn -1.0000 0.0070 -0.0070
vn -1.0000 0.0055 -0.0056
vn -0.9999 -0.0111 -0.0056
vn -0.2120 0.7219 -0.6587
vn -0.2042 0.7160 -0.6675
vn -0.1157 0.6404 -0.7593
vn -0.0453 0.5696 -0.8206
vn -0.0060 0.5256 -0.8507
vn -0.0083 0.5282 -0.8491
vn 0.0003 0.0006 -1.0000
vn -0.0002 0.0008 -1.0000
vn -0.0000 0.0002 -1.0000
vn 1.0000 -0.0000 -0.0000
vn 0.0093 0.5253 -0.8509
vn -1.0000 -0.0030 0.0023
vn -0.0037 0.0018 1.0000
vn -0.0843 0.9964 -0.0021
vn 0.0006 1.0000 -0.0017
vn -0.2844 0.9587 -0.0027
vn 0.0005 0.5266 -0.8501
vn -0.0007 0.0023 -1.0000
vn -0.0000 -0.0004 -1.0000
vn -0.0050 0.0065 1.0000
vn -0.0037 0.0016 1.0000
vn -0.0039 0.0031 1.0000
vn 0.9556 -0.1695 0.2410
vn -0.0005 -1.0000 0.0017
vn 0.0034 0.5237 -0.8519
vn -0.2844 0.9587 -0.0017
vn 0.9356 -0.0086 0.3530
vt 0.000000 0.000000
vt 0.513637 0.175960
vt 0.513543 0.165438
vt 0.514213 0.125029
vt 0.500231 0.125029
vt 0.500288 0.175964
vt 0.500231 0.081333
vt 0.497314 0.080752
vt 0.079531 0.012897
vt 0.434281 0.590584
vt 0.113779 0.018451
vt 0.500326 0.679268
vt 0.516555 0.671543
vt 0.510418 0.671076
vt 0.542191 0.684119
vt 0.542196 0.684120
vt 0.514731 0.140335
vt 0.514734 0.139549
vt 0.193161 0.030980
vt 0.470033 0.117481
vt 0.494396 0.123570
vt 0.514737 0.141302
vt 0.355299 0.057667
vt 0.117730 0.019092
s 0
usemtl 
f 12/1/1 13/1/1 10/1/1
f 14/1/2 13/1/2 15/1/2
f 15/1/2 13/1/2 11/1/2
f 8/1/3 20/1/3 7/1/3
f 10/1/4 20/1/4 8/1/4
f 17/1/5 16/1/5 35/1/5
f 13/1/6 9/1/6 11/1/6
f 40/1/7 32/1/7 30/1/7
f 16/1/8 33/1/8 30/1/8
f 33/2/9 34/3/9 30/1/9
f 34/3/9 31/1/9 30/1/9
f 31/4/9 29/5/9 30/6/9
f 29/7/10 28/8/10 30/6/10
f 27/9/11 30/6/11 28/8/11
f 26/1/10 39/10/10 42/11/10
f 42/11/11 39/10/11 40/12/11
f 19/1/12 40/1/12 39/1/12
f 19/1/12 35/1/12 32/1/12
f 18/1/12 17/13/12 35/14/12
f 19/1/12 38/1/12 35/1/12
f 38/1/12 18/1/12 35/14/12
f 17/1/13 38/1/13 16/1/13
f 38/1/14 33/1/14 16/1/14
f 38/15/15 37/16/15 33/1/15
f 37/16/16 15/1/16 33/1/16
f 15/1/17 11/1/17 33/1/17
f 11/1/18 9/1/18 33/1/18
f 9/1/19 8/1/19 33/1/19
f 8/1/20 7/1/20 33/1/20
f 7/1/21 3/1/21 33/1/21
f 3/1/22 4/1/22 33/1/22
f 4/1/23 2/1/23 33/1/23
f 2/1/9 31/1/9 33/1/9
f 31/1/9 34/3/9 33/2/9
f 2/17/24 1/18/24 31/1/24
f 42/11/10 30/6/10 41/19/10
f 22/1/25 5/1/25 31/1/25
f 5/1/25 29/5/25 31/4/25
f 5/1/25 27/20/25 28/21/25
f 35/1/8 30/1/8 32/1/8
f 38/1/12 24/1/12 36/1/12
f 38/1/12 19/1/12 25/1/12
f 7/1/26 31/1/26 1/18/26
f 38/1/12 17/1/12 18/1/12
f 36/1/27 37/16/27 38/15/27
f 24/1/28 26/1/28 23/1/28
f 9/1/29 10/1/29 8/1/29
f 22/1/30 20/1/30 21/1/30
f 15/1/31 36/1/31 14/1/31
f 1/18/32 3/1/32 7/1/32
f 1/18/33 2/17/33 3/22/33
f 2/1/34 4/1/34 3/1/34
f 6/1/25 5/1/25 22/1/25
f 21/1/25 6/1/25 22/1/25
f 6/1/25 26/1/25 5/1/25
f 6/1/25 23/1/25 26/1/25
f 23/1/28 21/1/28 24/1/28
f 21/1/28 13/1/28 24/1/28
f 13/1/28 36/1/28 24/1/28
f 13/1/35 14/1/35 36/1/35
f 21/1/36 20/1/36 13/1/36
f 20/1/37 10/1/37 13/1/37
f 42/11/38 27/23/38 26/1/38
f 13/1/6 12/1/6 9/1/6
f 27/9/39 41/19/39 30/6/39
f 26/1/11 25/1/11 39/10/11
f 39/1/12 25/1/12 19/1/12
f 19/1/12 32/1/12 40/1/12
f 42/11/10 40/1/10 30/6/10
f 5/1/25 26/1/25 27/20/25
f 28/21/25 29/5/25 5/1/25
f 35/1/8 16/1/8 30/1/8
f 38/1/12 25/1/12 24/1/12
f 7/1/40 22/1/40 31/1/40
f 24/1/28 25/1/28 26/1/28
f 9/1/29 12/1/29 10/1/29
f 22/1/30 7/1/30 20/1/30
f 15/1/41 37/16/41 36/1/41
f 6/1/25 21/1/25 23/1/25
f 42/11/42 41/24/42 27/23/42
