# Blender 5.2.0 LTS
# www.blender.org
mtllib ramp9.mtl
o new_ramp.005
v -45.382153 35.772617 42.946503
v -38.536118 34.829521 42.946503
v -36.248158 34.518921 42.946503
v -36.248154 0.069245 42.946503
v -36.248154 34.964512 46.876350
v -36.248154 35.311401 48.651024
v -36.671440 41.054478 58.577744
v -36.248154 39.992905 57.761864
v -36.248158 40.872513 58.579628
v -36.248154 40.872589 59.072014
v -36.248154 40.872921 61.119743
v -62.565048 52.185524 61.003036
v -67.644997 52.188324 60.984322
v -69.053299 52.116203 60.979248
v -70.484703 51.900700 60.974312
v -72.053680 51.506241 58.429222
v -70.475372 51.896309 58.434357
v -72.062988 51.510708 60.969215
v -73.864143 50.890232 60.963684
v -73.854828 50.885765 58.423691
v -76.565605 49.652214 58.415833
v -111.272629 31.974159 60.859131
v -113.375954 31.893276 60.851486
v -113.976814 31.889215 58.309296
v -113.976822 31.790421 58.306549
v -113.976822 30.244202 58.263710
v -113.976822 31.893604 60.849274
v -113.976822 19.061731 60.871750
v -113.976814 17.733677 60.874084
v -36.248158 5.280071 61.182106
v -36.248154 5.167572 61.182320
v -36.248158 0.101214 61.191193
v -113.976822 0.143661 60.904999
v -36.248158 0.100341 60.693611
v -113.976814 0.139150 58.330772
v -113.976822 0.137083 57.151001
v -99.747543 0.104337 42.946495
v -113.976822 0.114640 44.346115
v -113.976822 0.112217 42.946495
v -113.976822 6.900548 42.946503
v -113.323700 6.898976 42.946503
v -113.976822 10.230749 48.078125
v -100.079773 12.816360 42.946503
v -88.328430 22.642172 42.946503
v -113.976822 16.076143 53.435944
v -73.886848 35.192421 42.946503
v -72.622452 35.983067 42.946495
v -71.361282 36.683060 42.946503
v -70.231262 37.221748 42.946503
v -70.102333 37.284740 42.946503
v -62.506203 38.155018 42.946495
v -62.683640 38.155445 42.946495
v -67.586243 38.163525 42.946503
v -68.844315 37.780853 42.946503
v -68.912888 37.753040 42.946503
v -58.933964 37.659309 42.946503
v -74.816788 34.554981 42.946503
v -75.155617 34.318466 42.946503
v -75.927025 33.718502 42.946503
v -98.864029 35.634148 60.898445
v -76.575027 49.656742 60.955879
v -80.763847 47.222717 60.944733
v -36.248158 21.197578 61.154221
v -44.436718 44.392387 58.543358
v -62.555634 52.181057 58.462990
v -67.635582 52.183857 58.444267
v -69.043976 52.111736 58.439262
v -113.976822 31.893347 60.698906
v -104.192780 0.106795 42.946503
v -113.976822 0.134731 55.804321
v -36.248154 30.223473 61.138405
v -108.660057 0.109269 42.946495
v -67.594017 38.161129 42.946503
v -113.976814 16.112959 60.876938
v -113.976830 31.707523 60.849609
v -36.248158 27.349689 61.143433
vn -0.1489 0.9889 -0.0023
vn -0.3257 0.9455 -0.0029
vn -0.0511 0.9987 -0.0019
vn -0.1488 0.9889 -0.0023
vn 0.0006 1.0000 -0.0018
vn -0.0006 -1.0000 0.0018
vn -0.0005 -1.0000 0.0017
vn -1.0000 -0.0000 -0.0000
vn -0.0000 -0.0000 -1.0000
vn 1.0000 -0.0000 -0.0000
vn -0.0037 0.0018 1.0000
vn -0.0006 -1.0000 0.0017
vn -1.0000 -0.0001 -0.0001
vn -0.3469 0.4912 -0.7990
vn 0.0024 0.0003 -1.0000
vn -0.0002 0.0001 -1.0000
vn -0.0002 -0.0002 -1.0000
vn 0.2171 0.8065 -0.5499
vn -0.0038 0.0017 1.0000
vn 0.0021 0.7417 -0.6707
vn -0.3170 0.6717 -0.6696
vn -0.3179 0.6670 -0.6738
vn -0.3308 0.5960 -0.7317
vn -0.3392 0.5425 -0.7686
vn -0.3450 0.5034 -0.7922
vn -0.3462 0.4959 -0.7964
vn 0.0001 -0.0000 -1.0000
vn -0.0000 0.0001 -1.0000
vn 0.3949 0.9187 -0.0001
vn 0.0018 0.7418 -0.6706
vn 0.1024 0.7381 -0.6669
vn -0.0002 0.0002 -1.0000
vn -0.0003 -0.0000 -1.0000
vn 0.3713 0.8602 -0.3496
vn -0.2297 0.7042 -0.6719
vn -0.0037 0.0017 1.0000
vn -1.0000 -0.0000 -0.0001
vn -0.0035 0.0016 1.0000
vn -0.4290 0.9033 -0.0024
vn -0.3260 0.6673 -0.6697
vn 0.0001 0.0001 -1.0000
vn -0.0001 -0.0000 -1.0000
vn -0.2957 0.6809 -0.6700
vn -0.1758 0.7201 -0.6713
vn -0.1081 0.7337 -0.6708
vn -0.0356 0.7410 -0.6705
vn -0.2399 0.9708 -0.0026
vn 0.3949 0.9187 -0.0003
vn -0.0037 0.0016 1.0000
vn -0.0037 0.0019 1.0000
vn -0.2786 0.6866 -0.6716
vn -0.4142 0.9102 -0.0031
vn -0.0038 0.0023 1.0000
vn 0.4848 0.1986 0.8518
vn -0.8621 -0.2170 -0.4580
vn -0.0006 -0.0000 -1.0000
vt 0.000000 0.000000
vt 0.514213 0.124971
vt 0.500231 0.124971
vt 0.514210 0.124307
vt 0.233007 0.058212
vt 0.493387 0.062179
vt 0.510644 0.062791
vt 0.500208 0.062782
vt 0.479182 0.654845
vt 0.451380 0.616240
vt 0.421672 0.576369
vt 0.570685 0.085498
vt 0.571172 0.085154
vt 0.572485 0.084208
vt 0.204329 0.051047
vt 0.276740 0.069137
vt 0.271830 0.031410
vt 0.571098 0.045938
vt 0.500143 0.045938
vt 0.510875 0.062791
vt 0.289642 0.375096
vt 0.500296 0.686927
vt 0.512733 0.654683
vt 0.533188 0.686899
vt 0.536526 0.686896
vt 0.578588 0.072817
vt 0.578605 0.077802
vt 0.576665 0.080491
vt 0.575556 0.081640
vt 0.578587 0.072637
vt 0.578600 0.077810
vt 0.584185 0.062854
vt 0.486099 0.053472
vt 0.577817 0.079081
vt 0.108389 0.139636
vt 0.239214 0.308176
vt 0.565307 0.686871
vt 0.565691 0.686871
vt 0.548947 0.666464
vt 0.576795 0.080360
vt 0.577759 0.079151
vt 0.276081 0.030448
vt 0.562251 0.062835
s 0
usemtl 
f 15/1/1 14/1/1 17/1/1
f 20/1/2 19/1/2 18/1/2
f 20/1/2 18/1/2 16/1/2
f 67/1/3 13/1/3 66/1/3
f 17/1/4 14/1/4 67/1/4
f 14/1/3 13/1/3 67/1/3
f 13/1/5 12/1/5 65/1/5 66/1/5
f 69/1/6 32/1/6 39/1/6 72/1/6
f 32/1/7 38/1/7 39/1/7
f 38/1/8 42/1/8 39/1/8
f 42/1/8 40/2/8 39/3/8
f 40/2/9 41/4/9 39/3/9
f 41/4/9 43/1/9 39/3/9
f 43/1/9 72/5/9 39/3/9
f 4/1/6 34/1/6 32/1/6 69/1/6 37/1/6
f 34/6/10 31/7/10 32/8/10
f 31/7/11 33/1/11 32/1/11
f 33/1/6 35/1/6 36/1/6 32/1/6
f 36/9/12 70/10/12 32/1/12
f 70/10/6 38/1/6 32/1/6
f 35/11/8 42/1/8 38/1/8 70/10/8 36/9/8
f 35/11/8 45/1/8 42/1/8
f 45/1/8 26/1/8 42/1/8
f 26/1/8 40/2/8 42/1/8
f 26/1/8 25/1/8 40/2/8
f 25/1/13 24/1/13 40/2/13
f 24/1/14 58/1/14 40/2/14
f 58/12/15 57/13/15 40/2/15
f 57/13/16 46/14/16 40/2/16
f 46/14/17 59/1/17 40/2/17
f 59/1/9 41/4/9 40/2/9
f 59/1/9 47/1/9 41/4/9
f 47/1/9 44/1/9 41/4/9
f 44/1/9 43/1/9 41/4/9
f 37/15/9 69/16/9 72/5/9 43/1/9
f 44/1/9 52/1/9 43/1/9
f 52/1/9 56/1/9 43/1/9
f 56/1/9 1/1/9 43/1/9
f 76/1/11 60/1/11 33/1/11 63/17/11
f 1/1/9 2/1/9 4/1/9
f 2/1/9 3/18/9 4/19/9
f 3/18/10 5/1/10 4/19/10
f 5/1/10 6/1/10 4/19/10
f 65/1/18 64/1/18 3/1/18 56/1/18
f 31/7/10 34/6/10 4/1/10
f 8/1/10 71/1/10 30/1/10 31/1/10
f 30/20/11 33/1/11 31/7/11
f 60/1/11 22/1/11 33/1/11
f 22/1/11 23/1/11 33/1/11
f 23/1/19 74/21/19 33/22/19
f 28/23/8 35/1/8 33/22/8 74/24/8 29/25/8
f 30/20/11 63/17/11 33/1/11
f 8/1/10 31/1/10 4/19/10 6/1/10
f 28/23/8 26/1/8 35/1/8
f 26/1/8 45/1/8 35/11/8
f 28/23/8 68/1/8 26/1/8
f 68/1/8 25/1/8 26/1/8
f 68/1/8 24/1/8 25/1/8
f 66/1/20 65/1/20 52/26/20 53/27/20
f 21/1/21 49/1/21 24/1/21
f 49/28/22 48/29/22 24/1/22
f 48/29/23 47/1/23 24/1/23
f 47/1/24 46/1/24 24/1/24
f 46/14/25 57/13/25 24/1/25
f 57/13/26 58/12/26 24/1/26
f 47/1/9 59/1/9 46/14/9
f 48/29/9 73/1/9 47/1/9
f 73/1/9 44/1/9 47/1/9
f 73/1/9 52/1/9 44/1/9
f 51/30/27 56/1/27 52/1/27
f 73/31/28 53/27/28 52/26/28
f 65/1/29 12/1/29 11/1/29 10/1/29
f 65/1/30 51/30/30 52/26/30
f 51/30/31 65/1/31 56/1/31
f 3/1/32 1/1/32 56/1/32
f 3/18/33 2/1/33 1/1/33
f 64/1/34 7/1/34 3/1/34
f 7/1/34 9/1/34 3/1/34
f 9/1/10 8/1/10 3/1/10
f 8/1/10 6/1/10 3/1/10
f 6/1/10 5/1/10 3/18/10
f 9/1/10 10/1/10 11/1/10 8/1/10
f 11/32/10 71/33/10 8/1/10
f 54/34/35 20/1/35 16/1/35 53/27/35 73/31/35
f 12/1/11 60/1/11 11/1/11
f 60/1/11 76/1/11 11/1/11
f 23/1/11 22/1/11 60/1/11
f 12/1/11 23/1/11 60/1/11
f 27/1/36 28/35/36 29/36/36 74/21/36 23/1/36
f 12/1/36 62/1/36 23/1/36
f 62/1/36 27/1/36 23/1/36
f 75/37/37 68/1/37 28/23/37
f 75/37/8 27/38/8 68/39/8
f 62/1/11 19/1/11 27/1/11
f 19/1/38 61/1/38 27/38/38
f 61/1/39 21/1/39 24/1/39 68/39/39 27/38/39
f 4/1/9 37/15/9 43/1/9 1/1/9
f 50/40/40 49/28/40 21/1/40
f 50/40/41 55/41/41 49/28/41
f 55/41/42 48/29/42 49/28/42
f 55/41/9 73/1/9 48/29/9
f 55/41/43 50/1/43 21/1/43 20/1/43
f 16/1/44 17/1/44 53/27/44
f 17/1/45 67/1/45 53/27/45
f 67/1/46 66/1/46 53/27/46
f 18/1/47 15/1/47 17/1/47 16/1/47
f 10/1/48 64/1/48 65/1/48
f 10/1/29 7/1/29 64/1/29
f 10/1/29 9/1/29 7/1/29
f 13/1/49 14/1/49 12/1/49
f 14/1/11 62/1/11 12/1/11
f 14/1/11 19/1/11 62/1/11
f 14/1/50 18/1/50 19/1/50
f 54/34/51 55/41/51 20/1/51
f 20/1/52 21/1/52 61/1/52 19/1/52
f 15/1/53 18/1/53 14/1/53
f 27/1/54 75/1/54 28/35/54
f 11/32/55 76/42/55 63/17/55 30/20/55 71/43/55
f 55/41/56 54/34/56 73/31/56
