# Blender 5.2.0 LTS
# www.blender.org
mtllib ramp13.mtl
o new_ramp.001
v -184.288483 0.075304 -0.314306
v -184.297913 0.079769 2.225753
v -164.190338 0.064329 -0.240285
v -184.176056 2.199272 -0.317567
v -184.185394 2.203667 2.222382
v -183.851532 4.304264 2.219896
v -183.299927 6.358389 2.218368
v -175.064667 1.250414 9.877708
v -174.882019 2.399965 9.876386
v -174.580078 3.524084 9.875494
v -181.570038 10.238249 2.218002
v -180.410614 12.021412 2.219136
v -181.560608 10.233784 -0.322057
v -180.401215 12.016945 -0.320915
v -179.071045 13.673635 2.221058
v -179.061829 13.669168 -0.318863
v -177.566376 15.176764 2.224026
v -173.633331 5.647371 9.875225
v -172.998871 6.623226 9.875895
v -172.265869 7.527393 9.877048
v -175.912659 16.514393 2.227780
v -174.128174 17.671759 2.232277
v -175.903320 16.509926 -0.312202
v -174.118988 17.667351 -0.307656
v -172.232666 18.636393 2.237610
v -170.246521 19.397486 2.243575
v -172.223267 18.631926 -0.302441
v -170.237183 19.393095 -0.296381
v -183.290466 6.353994 -0.321649
v -168.182465 19.942434 -0.289772
v -182.527313 8.339197 -0.322204
v -168.191681 19.946838 2.250161
v -166.090942 20.278448 2.257320
v -169.560822 9.715462 9.883162
v -168.523438 10.243303 9.886053
v -167.436554 10.659822 9.889292
v -170.537323 9.081987 9.880596
v -171.442444 8.350021 9.878620
v -174.162445 4.610537 9.875170
v -164.190338 0.121277 9.919763
v -164.190308 0.082121 9.919826
v -175.126160 0.088106 9.879455
v -164.190308 0.082033 9.868880
v -166.312012 10.960527 9.892900
v -164.190308 1.843899 9.916748
v -164.190308 11.192389 9.900273
v -165.162384 11.141951 9.896842
v -164.190308 20.377007 2.264129
v -164.190308 20.372063 -0.275817
v -166.081451 20.274010 -0.282631
v -183.842163 4.299810 -0.320041
v -182.536530 8.343649 2.217664
v -177.557007 15.172312 -0.315911
v -164.190308 20.376484 1.995571
v -164.190308 11.545431 -0.260401
v -164.190308 0.070114 3.063436
v -164.190308 0.248056 9.919548
v -164.190308 0.070175 3.097867
v -164.190308 11.215946 -0.259809
v -164.190308 0.082067 9.888676
v -164.190338 0.081957 9.827559
vn -0.9876 0.1570 -0.0039
vn -0.7768 0.6298 -0.0040
vn -0.7768 0.6297 -0.0039
vn -0.4535 0.8912 -0.0032
vn -0.3578 0.9338 -0.0030
vn -0.4535 0.8913 -0.0032
vn -0.3579 0.9338 -0.0029
vn -0.8907 0.4545 -0.0041
vn -0.8908 0.4544 -0.0040
vn 0.0034 -0.0015 -1.0000
vn -0.6289 0.7775 -0.0037
vn -0.8384 0.5451 -0.0041
vn -0.0036 0.0011 1.0000
vn -0.0037 0.0017 1.0000
vn -0.0037 0.0018 1.0000
vn 1.0000 -0.0000 -0.0000
vn 1.0000 -0.0000 0.0001
vn -0.4540 0.4530 0.7672
vn -0.1677 0.6181 0.7680
vn -0.5380 0.3493 0.7671
vn -0.0035 0.0014 1.0000
vn -0.0034 0.0012 1.0000
vn -0.1024 0.6319 0.7682
vn 1.0000 -0.0000 -0.0002
vn -0.0359 0.6389 0.7685
vn 0.0037 -0.0018 -1.0000
vn 1.0000 0.0001 0.0001
vn -0.0006 -1.0000 0.0018
vn -0.9334 0.3588 -0.0041
vn -0.9658 0.2593 -0.0040
vn -0.6194 0.1669 0.7671
vn -0.5714 0.2916 0.7671
vn -0.0033 0.0015 1.0000
vn -0.0034 0.0014 1.0000
vn -0.6403 0.0351 0.7673
vn -0.0045 0.0022 1.0000
vn -0.0036 0.0017 1.0000
vn -0.3502 0.5370 0.7675
vn -0.6333 0.1016 0.7672
vn -0.5987 0.2305 0.7671
vn -0.0037 0.0015 1.0000
vn -0.0038 0.0017 1.0000
vn -0.0033 0.0017 1.0000
vn -0.5441 0.8390 -0.0034
vn 0.0034 -0.0017 -1.0000
vn 0.0037 -0.0017 -1.0000
vn 0.0037 -0.0020 -1.0000
vn 0.0040 -0.0024 -1.0000
vn -0.7067 0.7075 -0.0038
vn -0.2313 0.5975 0.7678
vn -0.1559 0.9878 -0.0023
vn -0.4988 0.4034 0.7672
vn -0.2583 0.9661 -0.0026
vn -0.2923 0.5703 0.7676
vn -0.0033 0.0016 1.0000
vn -0.4043 0.4977 0.7673
vn -0.9986 0.0529 -0.0038
vn 0.0044 -0.0019 -1.0000
vn -0.0518 0.9987 -0.0019
vn 0.0040 -0.0019 -1.0000
vn 0.0038 -0.0019 -1.0000
vn -0.4268 0.8972 0.1134
vn -0.5381 0.3493 0.7671
vn 1.0000 -0.0006 0.0002
vn -0.0359 0.6389 0.7684
vn -0.9334 0.3589 -0.0040
vn -0.9658 0.2594 -0.0040
vn -0.6194 0.1670 0.7671
vn -0.5715 0.2914 0.7671
vn -0.6403 0.0350 0.7673
vn -0.3503 0.5369 0.7675
vn -0.6333 0.1015 0.7672
vn -0.5987 0.2304 0.7671
vn 1.0000 -0.0002 0.0002
vn -0.0005 -1.0000 0.0018
vn -0.0006 -1.0000 0.0017
vn -0.5442 0.8390 -0.0035
vn -0.4987 0.4034 0.7672
vn -0.2924 0.5703 0.7676
vn -0.4042 0.4978 0.7674
vt 0.000000 0.000000
vt 0.290033 0.065838
vt 0.523053 0.114934
vt 0.541969 0.122971
vt 0.541970 0.122698
vt 0.018539 0.004229
vt 0.297607 0.068795
vt 0.306400 0.070828
vt 0.001256 0.000289
vt 0.000004 0.000001
vt 0.484665 0.109725
vt 0.496758 0.114177
vt 0.498508 0.114561
vt 0.541960 0.125280
s 0
usemtl 
f 6/1/1 4/1/1 5/1/1
f 12/1/2 15/1/2 14/1/2
f 14/1/3 15/1/3 16/1/3
f 24/1/4 22/1/4 25/1/4
f 27/1/5 25/1/5 26/1/5
f 24/1/6 25/1/6 27/1/6
f 27/1/7 26/1/7 28/1/7
f 51/1/1 4/1/1 6/1/1
f 13/1/8 31/1/8 11/1/8
f 11/1/9 31/1/9 52/1/9
f 53/1/10 23/1/10 16/1/10
f 53/1/11 21/1/11 23/1/11
f 17/1/11 21/1/11 53/1/11
f 13/1/12 12/1/12 14/1/12
f 47/1/13 44/1/13 46/1/13
f 44/1/14 36/1/14 46/1/14
f 36/1/15 45/1/15 46/1/15
f 45/2/16 3/1/16 46/3/16
f 3/1/16 54/1/16 46/3/16
f 54/4/17 48/5/17 46/3/17
f 15/1/18 38/1/18 17/1/18
f 26/1/19 44/1/19 32/1/19
f 11/1/20 19/1/20 12/1/20
f 35/1/21 34/1/21 36/1/21
f 34/1/22 37/1/22 36/1/22
f 37/1/15 19/1/15 36/1/15
f 19/1/15 57/6/15 36/1/15
f 33/1/23 44/1/23 47/1/23
f 43/1/16 57/6/16 40/1/16
f 43/1/24 61/1/24 45/2/24
f 56/1/16 3/1/16 45/2/16
f 47/1/25 48/1/25 33/1/25
f 1/1/26 59/1/26 3/1/26
f 54/4/27 59/7/27 55/8/27
f 2/1/28 3/1/28 56/1/28
f 7/1/29 31/1/29 29/1/29
f 7/1/30 51/1/30 6/1/30
f 9/1/31 7/1/31 6/1/31
f 11/1/32 39/1/32 18/1/32
f 38/1/33 20/1/33 37/1/33
f 20/1/34 19/1/34 37/1/34
f 2/1/35 8/1/35 5/1/35
f 18/1/36 39/1/36 19/1/36
f 39/1/37 42/1/37 19/1/37
f 37/1/38 22/1/38 21/1/38
f 5/1/39 9/1/39 6/1/39
f 7/1/40 39/1/40 52/1/40
f 2/1/28 41/1/28 42/1/28
f 41/1/41 40/1/41 42/1/41
f 39/1/42 10/1/42 42/1/42
f 10/1/43 8/1/43 42/1/43
f 60/1/27 40/1/27 41/1/27
f 2/1/28 58/9/28 43/10/28
f 24/1/44 21/1/44 22/1/44
f 4/1/45 51/1/45 1/1/45
f 51/1/46 28/1/46 1/1/46
f 28/1/26 49/1/26 1/1/26
f 49/1/46 55/1/46 1/1/46
f 28/1/26 30/1/26 49/1/26
f 30/1/47 50/1/47 49/1/47
f 51/1/46 31/1/46 28/1/46
f 31/1/26 16/1/26 28/1/26
f 16/1/46 23/1/46 28/1/46
f 23/1/26 24/1/26 28/1/26
f 24/1/48 27/1/48 28/1/48
f 53/1/49 15/1/49 17/1/49
f 35/1/50 26/1/50 25/1/50
f 30/1/51 33/1/51 50/1/51
f 42/1/14 57/6/14 19/1/14
f 15/1/52 19/1/52 20/1/52
f 30/1/53 26/1/53 32/1/53
f 25/1/54 34/1/54 35/1/54
f 10/1/55 9/1/55 8/1/55
f 38/1/56 21/1/56 17/1/56
f 5/1/57 1/1/57 2/1/57
f 29/1/58 31/1/58 51/1/58
f 33/1/59 48/5/59 54/11/59
f 13/1/60 14/1/60 31/1/60
f 14/1/61 16/1/61 31/1/61
f 58/9/62 61/12/62 43/13/62
f 13/1/12 11/1/12 12/1/12
f 36/1/15 57/6/15 45/1/15
f 15/1/18 20/1/18 38/1/18
f 26/1/19 36/1/19 44/1/19
f 11/1/63 18/1/63 19/1/63
f 33/1/23 32/1/23 44/1/23
f 43/1/24 45/2/24 57/6/24
f 45/2/16 61/1/16 58/9/16
f 58/9/64 56/1/64 45/2/64
f 47/1/65 46/3/65 48/1/65
f 1/1/26 55/1/26 59/1/26
f 55/8/16 49/14/16 54/4/16
f 54/4/16 3/1/16 59/7/16
f 2/1/28 1/1/28 3/1/28
f 7/1/66 52/1/66 31/1/66
f 7/1/67 29/1/67 51/1/67
f 9/1/68 10/1/68 7/1/68
f 11/1/69 52/1/69 39/1/69
f 2/1/70 42/1/70 8/1/70
f 37/1/71 34/1/71 22/1/71
f 5/1/72 8/1/72 9/1/72
f 7/1/73 10/1/73 39/1/73
f 60/1/74 43/1/74 40/1/74
f 60/1/75 41/1/75 2/1/75
f 2/1/76 56/1/76 58/9/76
f 43/10/28 60/1/28 2/1/28
f 24/1/77 23/1/77 21/1/77
f 53/1/49 16/1/49 15/1/49
f 35/1/50 36/1/50 26/1/50
f 30/1/51 32/1/51 33/1/51
f 42/1/15 40/1/15 57/6/15
f 15/1/78 12/1/78 19/1/78
f 30/1/53 28/1/53 26/1/53
f 25/1/79 22/1/79 34/1/79
f 38/1/80 37/1/80 21/1/80
f 5/1/57 4/1/57 1/1/57
f 49/1/59 50/1/59 54/11/59
f 50/1/59 33/1/59 54/11/59
