# Blender 5.2.0 LTS
# www.blender.org
mtllib ramp11.mtl
o new_ramp.008
v -164.123993 6.598613 42.889954
v -164.125244 4.188824 42.889946
v -126.549919 7.095316 17.758417
v -128.244720 7.117241 17.758415
v -128.406281 7.118705 17.758415
v -148.791321 6.461548 17.758411
v -164.040924 5.531492 20.190437
v -164.031403 6.479961 17.758415
v -164.032684 4.240999 17.758411
v -129.945679 7.112256 17.758415
v -129.875488 7.113567 17.758413
v -114.033386 6.503746 18.599983
v -114.033386 6.920358 17.758419
v -114.033386 0.068144 17.758417
v -164.034973 0.095762 17.758415
v -114.033386 0.112150 42.889946
v -164.127472 0.139817 42.889946
v -114.033386 6.872090 42.889946
v -130.036316 7.121578 42.889938
v -128.222382 7.122514 42.889946
v -126.799408 7.095768 42.889938
vn -1.0000 0.0006 -0.0037
vn -0.0006 -1.0000 0.0018
vn -0.0169 0.9999 -0.0026
vn -0.0000 -0.0000 -1.0000
vn -0.0000 -0.0000 1.0000
vn -0.0018 1.0000 -0.0002
vn -0.0002 0.0011 -1.0000
vn 1.0000 -0.0000 -0.0000
vn -1.0000 0.0005 -0.0037
vn 0.0007 -0.0063 1.0000
vn -0.0000 -0.0004 1.0000
vn 0.0159 0.9999 0.0009
vn -0.0186 0.9998 -0.0004
vn 0.0003 0.0004 -1.0000
vn -0.0000 -0.0002 -1.0000
vn 0.0091 1.0000 -0.0002
vn 0.0023 -0.0077 -1.0000
vn 0.0129 0.9999 -0.0002
vt 0.000000 0.000000
vt 0.514254 0.125029
vt 0.500140 0.125029
vt 0.500197 0.175870
vt 0.500231 0.624971
vt 0.514670 0.610544
vt 0.513591 0.574040
vt 0.513347 0.175866
vt 0.514154 0.624971
vt 0.514615 0.611991
vt 0.514652 0.141137
vt 0.514649 0.141208
vt 0.514659 0.139479
vt 0.514662 0.139643
s 0
usemtl 
f 8/1/1 9/1/1 7/1/1
f 17/1/2 15/1/2 14/1/2 16/1/2
f 10/1/3 8/1/3 1/1/3 19/1/3
f 7/1/1 9/1/1 15/1/1
f 9/1/4 6/1/4 15/1/4
f 6/1/4 13/1/4 15/1/4
f 13/2/4 14/3/4 15/4/4
f 21/1/5 2/1/5 17/1/5
f 16/5/5 21/1/5 17/1/5
f 5/1/6 11/1/6 19/1/6 20/6/6
f 8/1/1 7/1/1 1/1/1
f 2/1/5 21/1/5 1/7/5
f 21/1/5 19/1/5 1/1/5
f 8/8/4 6/1/4 9/1/4
f 8/8/4 5/1/4 6/1/4
f 5/1/4 13/1/4 6/1/4
f 5/1/7 3/1/7 13/1/7
f 18/9/8 16/5/8 14/3/8 12/1/8
f 18/1/8 12/1/8 13/1/8
f 12/1/8 14/3/8 13/2/8
f 1/1/9 7/1/9 15/1/9 17/1/9 2/1/9
f 18/9/5 21/1/5 16/5/5
f 18/1/10 20/1/10 21/10/10
f 20/6/11 19/1/11 21/1/11
f 20/1/12 18/1/12 13/1/12 3/1/12
f 11/11/13 10/12/13 19/1/13
f 11/1/14 5/1/14 10/12/14
f 5/1/15 8/8/15 10/1/15
f 20/6/16 4/13/16 5/14/16
f 4/13/17 3/1/17 5/1/17
f 4/13/18 20/6/18 3/1/18
