# Blender 5.2.0 LTS
# www.blender.org
mtllib ramp10.mtl
o new_ramp.006
v -124.486290 31.771690 2.394316
v -114.033394 31.791342 2.428762
v -126.813515 31.381721 -0.157570
v -124.582054 31.764599 -0.150024
v -126.818756 31.387321 2.381889
v -164.031189 6.502018 17.701864
v -164.138519 20.378223 2.267015
v -114.033379 0.036942 -0.055571
v -164.133881 0.064316 -0.240081
v -114.033737 7.145162 17.701483
v -114.033394 0.068046 17.701868
v -164.077545 0.095711 17.700636
v -164.133759 20.374998 -0.275628
v -114.033371 31.786896 -0.111280
vn -0.1691 0.9856 -0.0025
vn -0.9999 0.0072 0.0135
vn -1.0000 -0.0000 -0.0019
vn -1.0000 -0.0006 0.0031
vn 0.0037 -0.0017 -1.0000
vn 1.0000 -0.0000 -0.0000
vn -0.2829 0.9591 -0.0027
vn 1.0000 -0.0000 0.0001
vn -0.0021 1.0000 -0.0018
vn -0.0068 0.5258 0.8506
vn -0.0000 0.0001 1.0000
vn -0.2160 0.7254 0.6536
vn -0.1085 0.6338 0.7659
vn -0.0000 -0.0002 1.0000
vn -0.1626 0.9867 0.0034
vn -0.0038 0.5267 0.8500
vn 0.0037 -0.0018 -1.0000
vn -0.2829 0.9592 -0.0017
vn -0.0006 -1.0000 0.0018
vn -0.0019 1.0000 -0.0027
vt 0.000000 0.000000
vt 0.541836 0.627140
vt 0.500084 0.574001
vt 0.541966 0.624720
vt 0.565479 0.122752
vt 0.000101 0.000120
vt 0.565471 0.125113
vt 0.500140 0.107001
vt 0.514210 0.106980
vt 0.000000 0.000000
vt 0.500076 0.125057
vt 0.533455 0.125085
s 0
usemtl 
f 5/1/1 4/1/1 3/1/1
f 6/1/2 7/2/2 12/3/2
f 7/2/3 13/1/3 9/1/3
f 12/3/4 7/2/4 9/1/4
f 3/1/5 14/1/5 13/4/5
f 2/5/6 10/6/6 14/7/6
f 3/1/5 4/1/5 14/1/5
f 3/1/7 7/2/7 5/1/7
f 11/8/8 14/7/8 10/6/8
f 2/1/9 14/1/9 4/1/9
f 6/1/10 10/9/10 1/1/10
f 10/9/11 12/3/11 11/8/11
f 6/1/12 5/1/12 7/2/12
f 1/1/13 5/1/13 6/1/13
f 12/3/14 10/9/14 6/1/14
f 5/1/15 1/1/15 4/1/15
f 10/9/16 2/10/16 1/1/16
f 14/7/17 8/1/17 9/1/17
f 3/1/18 13/4/18 7/2/18
f 11/1/6 8/11/6 14/12/6
f 8/1/19 11/1/19 9/1/19
f 11/1/19 12/3/19 9/1/19
f 14/7/17 9/1/17 13/1/17
f 4/1/20 1/1/20 2/1/20
