# Blender 5.2.0 LTS
# www.blender.org
mtllib ramp7.mtl
o new_ramp
v -62.340557 52.078644 0.043458
v -62.349869 52.083111 2.583446
v -57.173119 49.857754 2.606439
v -39.054211 42.069145 2.686804
v -67.420601 52.081444 0.024809
v -67.429909 52.085854 2.564807
v -111.048126 31.867283 -0.100441
v -71.838585 51.403770 0.009709
v -70.260277 51.793839 0.014848
v -76.350517 49.549801 -0.003693
v -73.639641 50.783356 0.004107
v -68.828903 52.009323 0.019734
v -76.359833 49.554272 2.536299
v -73.649055 50.787762 2.544171
v -71.847893 51.408237 2.549698
v -70.269630 51.798290 2.554782
v -68.838211 52.013733 2.559734
v -36.248158 40.862881 2.699262
v -36.248158 40.862503 0.159178
v -36.248154 34.680077 16.194115
v -36.248161 34.900993 14.704977
v -36.248154 -0.005531 0.230889
v -113.976822 31.791311 2.428968
v -113.976822 27.302593 2.804780
v -113.976814 13.657469 9.155090
v -113.976822 24.272322 3.474365
v -113.976822 0.036912 -0.055361
v -113.976822 0.067376 17.337185
v -113.976822 17.661613 -0.086246
v -113.976822 31.786861 -0.111062
v -59.675270 37.936413 17.701859
v -62.413128 38.303345 17.701859
v -58.959106 37.818645 17.701862
v -36.248154 34.569565 17.701857
v -36.440887 34.601448 17.701859
v -54.751034 37.198738 17.701859
v -64.931160 38.300690 17.701860
v -67.493141 38.298275 17.701860
v -113.976830 6.948429 17.701862
v -36.248154 0.025031 17.701859
v -113.976822 0.068013 17.701862
v -68.200668 38.078766 17.701860
v -70.009254 37.414371 17.701859
v -71.268272 36.804672 17.701860
v -72.531799 36.095196 17.701857
v -73.793869 35.306156 17.701859
v -75.062523 34.432255 17.701857
v -68.751305 37.917980 17.701860
v -36.248154 21.221903 0.193656
v -36.248154 10.183711 0.213012
v -113.976822 0.065392 16.208334
v -77.088882 0.047615 17.701862
v -113.976814 0.066754 16.984465
v -113.976822 0.066163 16.647583
v -36.248154 25.958309 0.185345
v -113.976814 0.057358 11.622893
v -36.248158 10.403354 0.212627
v -36.248154 11.302933 0.211048
v -102.093491 0.061439 17.701860
v -103.395668 0.062160 17.701857
v -36.248158 40.862873 2.656646
v -111.516914 0.066653 17.701859
v -113.976822 0.057603 11.762581
vn 0.3949 0.9187 -0.0002
vn 0.0006 1.0000 -0.0018
vn 0.0005 1.0000 -0.0017
vn -0.4142 0.9102 -0.0031
vn -0.2399 0.9708 -0.0026
vn -0.0511 0.9987 -0.0019
vn -0.3257 0.9455 -0.0028
vn -1.0000 -0.0000 -0.0000
vn 1.0000 -0.0000 -0.0000
vn 0.0037 -0.0018 -1.0000
vn -0.0006 -1.0000 0.0018
vn -0.0021 0.7391 0.6736
vn 0.0035 -0.0014 -1.0000
vn 0.0037 -0.0017 -1.0000
vn 0.0036 -0.0014 -1.0000
vn -0.4270 0.9043 -0.0032
vn -0.0006 -1.0000 0.0017
vn -0.0000 -0.0000 1.0000
vn -0.3469 0.4912 0.7990
vn -0.0001 -0.0001 1.0000
vn -0.3454 0.5014 0.7933
vn -0.3394 0.5429 0.7681
vn -0.3322 0.5916 0.7347
vn -0.3202 0.6612 0.6784
vn -0.3185 0.6705 0.6701
vn -0.1488 0.9889 -0.0023
vn -0.1796 0.7178 0.6727
vn -0.1124 0.7315 0.6725
vn 0.0037 -0.0013 -1.0000
vn 0.3949 0.9187 -0.0001
vn 0.3671 0.8578 0.3598
vn 0.1236 0.7476 0.6525
vn -0.0003 -0.0005 1.0000
vn 0.0001 0.0001 1.0000
vn -0.0007 0.0001 1.0000
vn -0.3091 0.6751 0.6698
vn -0.0403 0.7388 0.6727
vn -0.0240 0.0023 0.9997
vn -0.2139 0.7075 0.6736
vn 0.0985 0.7353 0.6706
vn 0.1055 0.7354 0.6694
vn 0.3950 0.9187 -0.0002
vn -0.3257 0.9455 -0.0029
vn -0.0005 -1.0000 0.0018
vn -0.0007 0.7393 0.6734
vn -0.4269 0.9043 -0.0016
vn -0.1489 0.9889 -0.0023
vn 1.0000 -0.0000 0.0001
vn 1.0000 -0.0000 -0.0002
vn -0.2751 0.6872 0.6724
vn -0.2430 0.6993 0.6723
vt 0.000000 0.000000
vt 0.514312 0.642999
vt 0.159816 0.205465
vt 0.327143 0.420587
vt 0.500140 0.642999
vt 0.571202 0.107001
vt 0.062605 0.013396
vt 0.228724 0.048942
vt 0.500052 0.107001
vt 0.053954 0.011545
s 0
usemtl 
f 1/1/1 2/1/1 3/1/1
f 5/1/2 2/1/2 1/1/2
f 5/1/3 6/1/3 2/1/3
f 10/1/4 13/1/4 14/1/4
f 10/1/4 14/1/4 11/1/4
f 15/1/5 16/1/5 8/1/5
f 8/1/5 16/1/5 9/1/5
f 17/1/6 6/1/6 12/1/6
f 12/1/6 6/1/6 5/1/6
f 14/1/7 8/1/7 11/1/7
f 25/1/8 63/1/8 51/1/8
f 25/1/8 26/1/8 27/1/8
f 26/1/8 29/1/8 27/1/8
f 21/1/9 50/1/9 18/1/9
f 50/1/10 22/1/10 27/1/10
f 22/1/11 52/1/11 27/1/11
f 52/1/11 56/1/11 27/1/11
f 59/1/11 63/1/11 52/1/11
f 60/1/11 51/1/11 63/1/11
f 39/2/8 53/3/8 28/4/8
f 39/2/8 25/1/8 54/1/8
f 25/1/8 51/1/8 54/1/8
f 39/2/8 23/1/8 25/1/8
f 23/1/8 26/1/8 25/1/8
f 23/1/8 24/1/8 26/1/8
f 24/1/8 30/1/8 26/1/8
f 7/1/10 29/1/10 30/1/10
f 24/1/8 23/1/8 30/1/8
f 6/1/12 32/1/12 2/1/12
f 10/1/13 11/1/13 30/1/13
f 11/1/14 7/1/14 30/1/14
f 7/1/10 9/1/10 29/1/10
f 11/1/15 8/1/15 9/1/15
f 10/1/16 23/1/16 13/1/16
f 12/1/14 1/1/14 9/1/14
f 1/1/10 19/1/10 9/1/10
f 19/1/10 55/1/10 9/1/10
f 55/1/10 49/1/10 9/1/10
f 49/1/10 58/1/10 9/1/10
f 7/1/10 11/1/10 9/1/10
f 50/1/9 40/1/9 22/1/9
f 40/1/17 52/1/17 22/1/17
f 60/1/11 28/1/11 53/1/11
f 28/1/11 62/1/11 41/1/11
f 62/1/18 39/2/18 41/5/18
f 47/1/19 23/1/19 39/2/19
f 58/1/10 29/1/10 9/1/10
f 34/6/18 48/1/18 39/2/18
f 48/1/18 45/1/18 39/2/18
f 45/1/18 46/1/18 39/2/18
f 46/1/20 47/1/20 39/2/20
f 47/1/21 46/1/21 23/1/21
f 46/1/22 45/1/22 23/1/22
f 45/1/23 44/1/23 23/1/23
f 44/1/24 43/1/24 23/1/24
f 43/1/25 13/1/25 23/1/25
f 59/7/18 52/8/18 39/2/18
f 12/1/26 16/1/26 17/1/26
f 15/1/27 38/1/27 16/1/27
f 38/1/28 17/1/28 16/1/28
f 5/1/29 1/1/29 12/1/29
f 3/1/30 4/1/30 1/1/30
f 4/1/1 19/1/1 1/1/1
f 4/1/30 61/1/30 19/1/30
f 55/1/9 19/1/9 61/1/9
f 21/1/9 20/1/9 40/1/9
f 20/1/9 34/1/9 40/9/9
f 20/1/9 18/1/9 34/1/9
f 18/1/31 4/1/31 34/1/31
f 4/1/31 3/1/31 34/1/31
f 3/1/31 2/1/31 34/1/31
f 2/1/32 35/1/32 34/1/32
f 35/1/33 31/1/33 34/1/33
f 31/1/34 33/1/34 34/1/34
f 33/1/18 36/1/18 34/1/18
f 36/1/18 48/1/18 34/6/18
f 36/1/18 42/1/18 48/1/18
f 42/1/35 38/1/35 48/1/35
f 43/1/36 14/1/36 13/1/36
f 43/1/18 44/1/18 48/1/18
f 44/1/18 45/1/18 48/1/18
f 38/1/37 6/1/37 17/1/37
f 42/1/18 37/1/18 38/1/18
f 37/1/38 32/1/38 38/1/38
f 15/1/39 48/1/39 38/1/39
f 32/1/40 31/1/40 2/1/40
f 31/1/41 35/1/41 2/1/41
f 18/1/42 61/1/42 4/1/42
f 20/1/9 21/1/9 18/1/9
f 32/1/18 33/1/18 31/1/18
f 32/1/18 37/1/18 33/1/18
f 37/1/18 42/1/18 33/1/18
f 42/1/18 36/1/18 33/1/18
f 14/1/43 15/1/43 8/1/43
f 25/1/8 27/1/8 56/1/8
f 26/1/8 30/1/8 29/1/8
f 21/1/9 40/1/9 50/1/9
f 27/1/10 58/1/10 57/1/10
f 57/1/10 50/1/10 27/1/10
f 52/1/44 63/1/44 56/1/44
f 59/1/11 60/1/11 63/1/11
f 60/1/11 53/1/11 54/1/11
f 28/4/8 41/5/8 39/2/8
f 39/2/8 54/1/8 53/3/8
f 6/1/45 38/1/45 32/1/45
f 10/1/46 30/1/46 23/1/46
f 58/1/10 27/1/10 29/1/10
f 52/8/18 40/9/18 34/6/18
f 34/6/18 39/2/18 52/8/18
f 39/2/18 62/1/18 60/10/18
f 60/10/18 59/7/18 39/2/18
f 12/1/47 9/1/47 16/1/47
f 61/1/48 18/1/48 55/1/48
f 18/1/49 50/1/49 57/1/49
f 58/1/9 18/1/9 57/1/9
f 58/1/9 49/1/9 18/1/9
f 18/1/9 49/1/9 55/1/9
f 43/1/50 48/1/50 14/1/50
f 15/1/51 14/1/51 48/1/51
f 28/1/44 60/1/44 62/1/44
f 60/1/11 54/1/11 51/1/11
f 25/1/8 56/1/8 63/1/8
