# https://github.com/mikedh/trimesh
v -0.04979448 -0.01036999 0.01701629
v -0.04922992 -0.01877039 0.01323605
v -0.04975939 -0.01034966 -0.01569579
v -0.06361359 -0.00960126 -0.01573307
v -0.06945348 -0.01045663 0.01603087
v -0.04937520 -0.01764725 -0.01457209
v -0.04923897 -0.01677806 -0.01578629
v -0.04963535 -0.01607927 0.01678015
v -0.06765094 -0.00965891 0.01841865
v -0.06351620 -0.01310892 -0.01104782
v -0.04929256 -0.01979966 -0.00017720
v -0.06338003 -0.01196010 -0.01343990
v -0.04963530 -0.01245870 -0.01648688
v -0.05953702 -0.00989251 0.01806641
v -0.06882732 -0.00975429 0.01756129
v -0.06749098 -0.01103476 0.01727825
v -0.06360487 -0.01024008 -0.01526911
v -0.05776055 -0.01741358 -0.00009382
v -0.05008451 -0.01725843 -0.01469306
v -0.05341715 -0.01359223 -0.01644384
v -0.06513379 -0.01416407 0.01165753
v -0.05029075 -0.01737594 0.01589025
v -0.06853420 -0.01045284 0.01714106
v -0.05804507 -0.01750503 0.00434886
v -0.04966699 -0.01512568 -0.01651208
v -0.06839079 -0.01104507 0.01641620
v -0.06516381 -0.01412794 0.00518453
v -0.04954460 -0.01748120 0.01597120
v -0.06732167 -0.01037572 0.01806055
v -0.06299905 -0.01401379 0.01397716
v -0.05481854 -0.01846965 0.00338418
v -0.06674718 -0.01189075 0.01609762
v -0.06853955 -0.01130223 0.01543148
v -0.06081260 -0.01623600 0.00304562
v -0.04937606 -0.01969853 0.00366704
v -0.06086482 -0.01633837 0.00482497
vn 0.59779107 0.56939842 0.56429715
vn 0.59677436 -0.76794429 0.23264119
vn 0.58849375 0.66712226 -0.45675266
vn -0.56478409 0.44187495 -0.69696876
vn -0.98810667 -0.05006025 0.14539322
vn 0.43258828 -0.83884022 -0.33047612
vn 0.57179302 -0.52097500 -0.63374899
vn 0.61341689 -0.23985086 0.75245683
vn -0.32374503 0.44527675 0.83481601
vn -0.68902923 -0.68026586 -0.24995416
vn 0.57830445 -0.81341255 -0.06264173
vn -0.65638402 -0.62536942 -0.42198709
vn 0.63990404 0.16792120 -0.74988352
vn 0.06720182 0.65325442 0.75415023
vn -0.71886607 0.40544530 0.56466423
vn -0.34753042 -0.76005004 0.54913253
vn -0.71582713 -0.46694594 -0.51918494
vn -0.35415250 -0.92928078 -0.10494399
vn -0.34982395 -0.77417837 -0.52751403
vn -0.14711831 -0.22423110 -0.96336733
vn -0.46039771 -0.87557774 0.14627906
vn -0.21723846 -0.80209772 0.55627934
vn -0.52627045 -0.64176622 0.55783110
vn -0.32213568 -0.94566997 0.04401028
vn 0.37475782 -0.19127736 -0.90717669
vn -0.47301153 -0.79192303 0.38615801
vn -0.63921703 -0.76532396 -0.07537118
vn 0.55240008 -0.60110272 0.57752028
vn -0.26842932 -0.59356552 0.75869999
vn -0.29493522 -0.88943175 0.34917672
vn -0.25898658 -0.96552093 0.02636817
vn -0.33190789 -0.86655460 0.37272011
vn -0.56988392 -0.80832982 0.14776743
vn -0.44687645 -0.89076997 -0.08264570
vn 0.40724845 -0.91147450 0.05799079
vn -0.41479484 -0.90989469 -0.00607459
f 1//1 3//3 4//4
f 7//7 1//1 2//2
f 7//7 3//3 1//1
f 8//8 2//2 1//1
f 11//11 7//7 2//2
f 11//11 6//6 7//7
f 12//12 6//6 10//10
f 13//13 4//4 3//3
f 13//13 3//3 7//7
f 14//14 1//1 4//4
f 14//14 4//4 9//9
f 14//14 9//9 8//8
f 14//14 8//8 1//1
f 15//15 9//9 4//4
f 15//15 4//4 5//5
f 17//17 10//10 5//5
f 17//17 5//5 4//4
f 17//17 12//12 10//10
f 17//17 4//4 7//7
f 17//17 7//7 12//12
f 18//18 10//10 6//6
f 18//18 6//6 11//11
f 19//19 12//12 7//7
f 19//19 7//7 6//6
f 19//19 6//6 12//12
f 20//20 7//7 4//4
f 20//20 4//4 13//13
f 23//23 15//15 5//5
f 24//24 2//2 21//21
f 25//25 20//20 13//13
f 25//25 13//13 7//7
f 25//25 7//7 20//20
f 26//26 23//23 5//5
f 26//26 16//16 23//23
f 27//27 5//5 10//10
f 28//28 22//22 2//2
f 28//28 2//2 8//8
f 29//29 16//16 22//22
f 29//29 23//23 16//16
f 29//29 9//9 15//15
f 29//29 15//15 23//23
f 29//29 22//22 28//28
f 29//29 28//28 8//8
f 29//29 8//8 9//9
f 30//30 21//21 2//2
f 30//30 2//2 22//22
f 31//31 24//24 18//18
f 31//31 18//18 11//11
f 31//31 2//2 24//24
f 32//32 26//26 21//21
f 32//32 16//16 26//26
f 32//32 21//21 30//30
f 32//32 30//30 22//22
f 32//32 22//22 16//16
f 33//33 26//26 5//5
f 33//33 21//21 26//26
f 33//33 27//27 21//21
f 33//33 5//5 27//27
f 34//34 27//27 10//10
f 34//34 10//10 18//18
f 35//35 31//31 11//11
f 35//35 11//11 2//2
f 35//35 2//2 31//31
f 36//36 34//34 18//18
f 36//36 18//18 24//24
f 36//36 24//24 21//21
f 36//36 21//21 27//27
f 36//36 27//27 34//34

