# https://github.com/mikedh/trimesh
v 0.01579314 -0.01128874 0.01846023
v 0.02280323 -0.04175310 0.01518753
v 0.01989203 -0.01103785 -0.01419514
v 0.00927142 -0.01093380 -0.01944975
v -0.00293512 -0.03106274 0.01744146
v 0.02266643 -0.04049638 -0.01967380
v 0.01991547 -0.01096408 0.01419032
v 0.01733507 -0.03186253 0.01845609
v -0.00394933 -0.01577416 0.00203157
v 0.01676120 -0.01104257 -0.01836430
v 0.01794363 -0.04538464 0.00133853
v 0.01354367 -0.01094070 -0.01948599
v 0.00152467 -0.01107416 0.00324720
v 0.02260220 -0.03877176 0.01728355
v -0.00325510 -0.02364195 0.01840966
v -0.00340180 -0.03032460 -0.01941972
v 0.02231953 -0.03361867 -0.01954371
v 0.02282977 -0.04546971 0.00835185
v 0.00732154 -0.01116015 0.01758938
v -0.00332388 -0.01684295 -0.01382054
v 0.02168272 -0.03016547 0.01699761
v 0.00674012 -0.03395385 0.01819339
v 0.00948076 -0.01114184 0.01853735
v -0.00362842 -0.01945662 0.01645331
v -0.00144447 -0.03525855 -0.00327585
v -0.00004619 -0.03419412 -0.01754139
v 0.01651404 -0.03565584 -0.02070606
v 0.01891356 -0.01109037 -0.01620206
v 0.02128859 -0.03781726 -0.02067947
v 0.02117208 -0.02104491 -0.00981872
v 0.02321991 -0.04303647 -0.01701879
v 0.00581603 -0.03629352 0.01556884
v 0.00534742 -0.01113330 -0.01714259
v 0.00163015 -0.01123432 -0.00054019
v 0.00913896 -0.03399214 0.01822817
v 0.02039089 -0.04045362 0.01605061
v -0.00305233 -0.02898573 0.01831059
v -0.00350296 -0.02036414 0.01758025
v 0.00538463 -0.01122720 0.01548526
v -0.00275485 -0.03396088 -0.00559204
v 0.00228523 -0.03331239 -0.01942119
v -0.00272986 -0.03300049 -0.01721921
v -0.00318050 -0.02595688 -0.01951184
v 0.02269413 -0.04546649 0.00648447
v 0.01435344 -0.03798192 -0.01951406
v 0.01810487 -0.04144100 0.01388256
v -0.00255528 -0.03411571 0.01274114
v 0.00354292 -0.03446912 0.01705084
v -0.00343879 -0.01561590 -0.00183955
v 0.00420777 -0.01147727 -0.01519786
v 0.02273699 -0.04078702 0.01614190
v 0.00433538 -0.01137049 0.01316465
v -0.00257484 -0.03188115 -0.01866960
v 0.01660312 -0.03630701 -0.02070410
v 0.00143557 -0.03670047 -0.00318564
v -0.00323786 -0.02132513 -0.01825369
v 0.01806905 -0.04540733 0.00190361
v 0.00958866 -0.03768990 -0.01785089
v 0.02166458 -0.04039482 -0.01967703
v 0.00111706 -0.03435844 -0.01810858
v 0.02053138 -0.04397902 0.01018464
v 0.02163757 -0.04154714 0.01508378
v -0.00130256 -0.03531827 0.00488313
v -0.00271763 -0.03298524 0.01552747
vn 0.26686840 0.61861161 0.73898642
vn 0.62764391 -0.61667823 0.47515375
vn 0.68789333 0.71114106 -0.14519353
vn -0.11600098 0.71441557 -0.69003925
vn -0.73809271 -0.38449342 0.55442219
vn 0.59646668 -0.37071117 -0.71189939
vn 0.67385638 0.68823273 0.26879971
vn 0.10140303 -0.04716000 0.99372700
vn -0.90525721 0.42310978 0.03856802
vn 0.37459060 0.70428158 -0.60305003
vn -0.21446833 -0.97427954 -0.06915711
vn 0.10253231 0.70265505 -0.70410440
vn -0.39182546 0.91825296 0.05730900
vn 0.65621806 -0.20801295 0.72533336
vn -0.65300862 0.01200328 0.75725535
vn -0.71725550 -0.20588057 -0.66570094
vn 0.83036448 0.13618908 -0.54032154
vn 0.54834936 -0.80284839 0.23398171
vn -0.28065877 0.83621199 0.47114770
vn -0.85107594 0.46458572 -0.24460142
vn 0.81804428 0.10982114 0.56457318
vn -0.10502501 -0.35356988 0.92949346
vn -0.06865157 0.69518820 0.71554198
vn -0.87640181 0.39383816 0.27714864
vn -0.57372641 -0.81825083 -0.03610524
vn -0.39786293 -0.83825039 -0.37288252
vn -0.01796271 0.01961288 -0.99964628
vn 0.57816451 0.70442271 -0.41172132
vn 0.26016544 -0.11421108 -0.95878557
vn 0.99406381 0.10855254 -0.00731391
vn 0.57771089 -0.72985300 -0.36546508
vn -0.29905495 -0.83645983 0.45923969
vn -0.37590691 0.83879014 -0.39385924
vn -0.45747063 0.88701149 -0.06269960
vn -0.01341882 -0.14764443 0.98894947
vn -0.16561420 -0.65473861 0.73748850
vn -0.68516827 -0.14520084 0.71376548
vn -0.75596855 0.24068244 0.60875571
vn -0.38670788 0.88779794 0.24954327
vn -0.87284434 -0.48740229 -0.02411970
vn -0.21190563 -0.46351318 -0.86037871
vn -0.71736324 -0.64533256 -0.26255641
vn -0.63668107 0.06969704 -0.76797105
vn 0.38931114 -0.92012162 -0.04257980
vn -0.21806113 -0.59404435 -0.77431302
vn -0.25428718 -0.83081166 0.49506568
vn -0.75756189 -0.63538685 0.14961129
vn -0.26240667 -0.67566036 0.68893092
vn -0.69916065 0.71130382 -0.07225831
vn -0.52202803 0.84154153 -0.13890497
vn 0.64546034 -0.44020444 0.62418026
vn -0.56751480 0.79981599 0.19550278
vn -0.44780338 -0.60466171 -0.65867773
vn -0.08967753 -0.21028253 -0.97351898
vn -0.44225997 -0.89140464 -0.09901461
vn -0.78100649 0.24765860 -0.57331848
vn -0.22214678 -0.97238654 0.07152074
vn -0.30557005 -0.82888369 -0.46859234
vn -0.14198017 -0.59042214 -0.79450823
vn -0.31372291 -0.74162403 -0.59293485
vn -0.27312780 -0.88220207 0.38356318
vn -0.19793863 -0.80561895 0.55838912
vn -0.56169865 -0.82701665 0.02319687
vn -0.74828347 -0.57278544 0.33464711
f 12//12 7//7 3//3
f 12//12 4//4 7//7
f 12//12 3//3 10//10
f 13//13 7//7 4//4
f 14//14 1//1 8//8
f 20//20 16//16 9//9
f 21//21 14//14 7//7
f 21//21 7//7 1//1
f 21//21 1//1 14//14
f 23//23 15//15 8//8
f 23//23 8//8 1//1
f 23//23 1//1 7//7
f 23//23 7//7 13//13
f 23//23 13//13 19//19
f 24//24 9//9 16//16
f 24//24 13//13 9//9
f 27//27 4//4 12//12
f 28//28 17//17 10//10
f 28//28 10//10 3//3
f 28//28 3//3 17//17
f 29//29 12//12 10//10
f 29//29 10//10 17//17
f 29//29 27//27 12//12
f 29//29 17//17 6//6
f 30//30 17//17 3//3
f 30//30 3//3 7//7
f 30//30 7//7 14//14
f 31//31 6//6 17//17
f 31//31 2//2 18//18
f 31//31 11//11 26//26
f 31//31 30//30 14//14
f 31//31 17//17 30//30
f 33//33 13//13 4//4
f 34//34 9//9 13//13
f 34//34 13//13 33//33
f 35//35 22//22 14//14
f 35//35 14//14 8//8
f 37//37 5//5 22//22
f 37//37 24//24 16//16
f 37//37 16//16 5//5
f 37//37 8//8 15//15
f 37//37 35//35 8//8
f 37//37 22//22 35//35
f 38//38 23//23 19//19
f 38//38 19//19 24//24
f 38//38 15//15 23//23
f 38//38 37//37 15//15
f 38//38 24//24 37//37
f 39//39 24//24 19//19
f 39//39 19//19 13//13
f 42//42 26//26 11//11
f 42//42 25//25 40//40
f 42//42 40//40 16//16
f 43//43 4//4 27//27
f 44//44 31//31 18//18
f 44//44 11//11 31//31
f 47//47 40//40 25//25
f 48//48 22//22 5//5
f 48//48 36//36 22//22
f 48//48 46//46 36//36
f 48//48 32//32 46//46
f 49//49 34//34 20//20
f 49//49 20//20 9//9
f 49//49 9//9 34//34
f 50//50 34//34 33//33
f 50//50 33//33 20//20
f 50//50 20//20 34//34
f 51//51 36//36 2//2
f 51//51 14//14 22//22
f 51//51 22//22 36//36
f 51//51 31//31 14//14
f 51//51 2//2 31//31
f 52//52 39//39 13//13
f 52//52 13//13 24//24
f 52//52 24//24 39//39
f 53//53 16//16 41//41
f 53//53 42//42 16//16
f 54//54 41//41 16//16
f 54//54 27//27 29//29
f 54//54 45//45 41//41
f 54//54 43//43 27//27
f 54//54 16//16 43//43
f 55//55 42//42 11//11
f 55//55 11//11 25//25
f 55//55 25//25 42//42
f 56//56 33//33 4//4
f 56//56 4//4 43//43
f 56//56 20//20 33//33
f 56//56 43//43 16//16
f 56//56 16//16 20//20
f 57//57 44//44 18//18
f 57//57 11//11 44//44
f 57//57 47//47 11//11
f 57//57 18//18 47//47
f 58//58 31//31 26//26
f 59//59 6//6 31//31
f 59//59 58//58 45//45
f 59//59 31//31 58//58
f 59//59 45//45 54//54
f 59//59 54//54 29//29
f 59//59 29//29 6//6
f 60//60 41//41 45//45
f 60//60 53//53 41//41
f 60//60 26//26 42//42
f 60//60 42//42 53//53
f 60//60 58//58 26//26
f 60//60 45//45 58//58
f 61//61 46//46 32//32
f 61//61 18//18 2//2
f 61//61 2//2 46//46
f 61//61 47//47 18//18
f 61//61 32//32 47//47
f 62//62 46//46 2//2
f 62//62 2//2 36//36
f 62//62 36//36 46//46
f 63//63 47//47 25//25
f 63//63 25//25 11//11
f 63//63 11//11 47//47
f 64//64 5//5 16//16
f 64//64 16//16 40//40
f 64//64 40//40 47//47
f 64//64 48//48 5//5
f 64//64 47//47 32//32
f 64//64 32//32 48//48

