# https://github.com/mikedh/trimesh
v 0.01822288 0.03120541 0.01875266
v 0.01979072 -0.00255231 0.01443935
v 0.02217688 0.03135505 -0.01541078
v -0.00330275 0.03045215 -0.01759166
v -0.00362099 0.02271143 0.01890192
v 0.01341893 -0.00252893 -0.01923696
v -0.00342216 0.03049047 0.01961017
v 0.02471702 0.03079806 0.01255098
v 0.01566840 -0.00287698 0.01870926
v 0.01976728 -0.00262608 -0.01394611
v 0.01364452 0.03061724 -0.01807946
v 0.00150541 -0.00282255 -0.00029116
v -0.00375494 0.02060370 0.01616644
v 0.02462703 0.03120613 -0.00212973
v 0.01148201 0.00492454 0.01981011
v 0.01772686 -0.00131067 0.01729429
v 0.01663646 -0.00263081 -0.01811527
v 0.01016652 0.02039692 -0.01906394
v 0.00162618 0.03051305 -0.01805075
v 0.01419481 0.01451149 -0.01907652
v 0.00408303 -0.00306551 -0.01494883
v 0.00525988 -0.00281544 0.01573428
v -0.00353577 0.01924656 -0.01401753
v 0.02343879 0.03102614 -0.01298465
v 0.01441678 0.00733933 0.01979115
v 0.01878882 -0.00267861 -0.01595304
v 0.00914667 -0.00252204 -0.01920072
v 0.00699062 0.01678983 -0.01909731
v 0.01846168 0.03073375 -0.01700702
v 0.01322956 0.01921845 -0.01900722
v 0.01466295 0.00125540 -0.01909316
v 0.00139992 -0.00266240 0.00349623
v 0.00390164 -0.00296029 0.01235128
v 0.00935602 -0.00273007 0.01878638
v -0.00326529 0.02174056 -0.01689206
v 0.01263171 0.00496366 0.01984547
v 0.01121437 0.03061447 0.01995605
v 0.00040105 0.02928411 -0.01800674
v 0.00043956 0.00136038 0.00199846
v 0.00719680 -0.00274838 0.01783841
v -0.00327375 0.02042413 -0.01576805
v 0.00522268 -0.00272154 -0.01689356
v 0.00652022 0.03048750 0.01995207
v 0.01429830 0.01559529 0.01969227
vn 0.34752466 0.64906870 0.67671001
vn 0.70934233 -0.65695479 0.25542878
vn 0.53294315 0.63773385 -0.55611792
vn -0.61017258 0.57218051 -0.54799534
vn -0.75644740 -0.10802739 0.64507163
vn 0.10147146 -0.63868320 -0.76274984
vn -0.58845647 0.56423619 0.57909974
vn 0.78058642 0.54763783 0.30129329
vn 0.28080551 -0.68007649 0.67723278
vn 0.71162036 -0.68138874 -0.17118954
vn 0.07063064 0.62337474 -0.77872668
vn -0.65226755 -0.75698303 -0.03903493
vn -0.97586444 -0.17319649 0.13300965
vn 0.76660585 0.64141020 -0.03014009
vn -0.07821009 -0.07374020 0.99420600
vn 0.69359340 -0.15649065 0.70316347
vn 0.39435312 -0.66032019 -0.63911100
vn 0.00110500 0.05505784 -0.99848256
vn -0.05373760 0.67290263 -0.73777661
vn 0.20366281 0.01658795 -0.97890056
vn -0.56927202 -0.78186904 -0.25418530
vn -0.52061901 -0.77330566 0.36187596
vn -0.97494893 -0.16829745 -0.14543227
vn 0.84573321 0.48238275 -0.22812764
vn 0.25566151 -0.02793027 0.96636282
vn 0.58718386 -0.69137801 -0.42096502
vn -0.15454431 -0.62834423 -0.76243005
vn -0.07995509 0.00884371 -0.99675924
vn 0.24857093 0.45301886 -0.85614625
vn 0.12596928 0.05209731 -0.99066524
vn 0.27658546 -0.00694007 -0.96096426
vn -0.72076736 -0.68935692 0.07267350
vn -0.55451341 -0.80923280 0.19405451
vn -0.13561192 -0.69141820 0.70961277
vn -0.78468824 -0.10055669 -0.61168024
vn 0.04271388 -0.07225209 0.99647135
vn 0.04056985 0.54582139 0.83691881
vn -0.09230728 0.04461546 -0.99473053
vn -0.97363105 -0.22811819 -0.00216104
vn -0.36249832 -0.73804147 0.56911314
vn -0.90260538 -0.27763498 -0.32897166
vn -0.47035433 -0.65963174 -0.58621905
vn -0.02292082 0.42005805 0.90720773
vn 0.16568198 0.01440020 0.98607409
f 7//7 1//1 3//3
f 7//7 3//3 4//4
f 10//10 2//2 9//9
f 10//10 8//8 2//2
f 13//13 7//7 4//4
f 13//13 5//5 7//7
f 14//14 3//3 1//1
f 14//14 1//1 8//8
f 14//14 8//8 10//10
f 15//15 7//7 5//5
f 16//16 8//8 1//1
f 16//16 1//1 9//9
f 16//16 9//9 2//2
f 16//16 2//2 8//8
f 19//19 4//4 3//3
f 19//19 3//3 11//11
f 19//19 11//11 18//18
f 20//20 6//6 18//18
f 21//21 6//6 17//17
f 23//23 13//13 4//4
f 23//23 21//21 12//12
f 24//24 14//14 10//10
f 24//24 3//3 14//14
f 25//25 9//9 1//1
f 26//26 17//17 3//3
f 26//26 21//21 17//17
f 26//26 10//10 9//9
f 26//26 9//9 21//21
f 26//26 24//24 10//10
f 26//26 3//3 24//24
f 27//27 6//6 21//21
f 28//28 19//19 18//18
f 28//28 27//27 4//4
f 28//28 18//18 6//6
f 28//28 6//6 27//27
f 29//29 11//11 3//3
f 30//30 20//20 18//18
f 30//30 18//18 11//11
f 30//30 29//29 20//20
f 30//30 11//11 29//29
f 31//31 17//17 6//6
f 31//31 6//6 20//20
f 31//31 3//3 17//17
f 31//31 29//29 3//3
f 31//31 20//20 29//29
f 33//33 22//22 5//5
f 33//33 5//5 13//13
f 33//33 13//13 32//32
f 33//33 32//32 12//12
f 33//33 12//12 21//21
f 33//33 21//21 9//9
f 34//34 15//15 5//5
f 35//35 23//23 4//4
f 35//35 4//4 27//27
f 36//36 9//9 25//25
f 36//36 34//34 9//9
f 36//36 15//15 34//34
f 37//37 1//1 7//7
f 37//37 36//36 25//25
f 38//38 28//28 4//4
f 38//38 4//4 19//19
f 38//38 19//19 28//28
f 39//39 23//23 12//12
f 39//39 12//12 32//32
f 39//39 32//32 13//13
f 39//39 13//13 23//23
f 40//40 34//34 5//5
f 40//40 5//5 22//22
f 40//40 9//9 34//34
f 40//40 33//33 9//9
f 40//40 22//22 33//33
f 41//41 35//35 21//21
f 41//41 21//21 23//23
f 41//41 23//23 35//35
f 42//42 35//35 27//27
f 42//42 27//27 21//21
f 42//42 21//21 35//35
f 43//43 7//7 15//15
f 43//43 15//15 36//36
f 43//43 37//37 7//7
f 43//43 36//36 37//37
f 44//44 37//37 25//25
f 44//44 25//25 1//1
f 44//44 1//1 37//37

