# https://github.com/mikedh/trimesh
v 0.05450258 0.03910944 -0.00688545
v 0.05016920 0.05331067 -0.02041680
v 0.03061471 0.02669071 -0.01407609
v 0.04365619 0.01104837 -0.01878028
v 0.02849255 0.01376497 -0.02195490
v 0.04067783 0.04868394 -0.01441200
v 0.05799388 0.05335117 -0.01796436
v 0.03610364 -0.00994378 -0.01341364
v 0.03787489 0.01094588 -0.02191772
v 0.04018773 0.04759659 -0.01406493
v 0.02831884 0.01855668 -0.02118575
v 0.05764043 0.04883731 -0.01548473
v 0.05875619 0.05327833 -0.01556447
v 0.04235341 0.00699072 -0.01796932
v 0.05304941 0.03490156 -0.00678666
v 0.02836027 -0.00772277 -0.02204743
v 0.03290734 0.01593621 -0.02204047
v 0.03990411 0.00663519 -0.02090866
v 0.05404844 0.05345395 -0.02023449
v 0.04463366 0.04875973 -0.01896823
v 0.02836356 0.01820574 -0.02134614
v 0.05755460 0.04913863 -0.01621048
v 0.05355967 0.03615910 -0.00673468
v 0.02774632 0.00340581 -0.02075846
v 0.02823898 -0.00658450 -0.02211667
v 0.04141236 0.00806758 -0.02012827
v 0.02931298 -0.00657836 -0.02198924
v 0.03793402 0.01297527 -0.02199424
v 0.04241290 0.04879699 -0.01677559
v 0.05864265 0.05316604 -0.01587777
v 0.03602528 -0.00954198 -0.01697871
v 0.04112535 0.04885297 -0.01503511
v 0.03441600 -0.01005386 -0.01840815
v 0.03297729 -0.00743833 -0.02079884
v 0.03338974 -0.00972697 -0.01953072
v 0.02846734 -0.00774931 -0.02203341
vn 0.55636216 0.03619769 0.83015112
vn -0.22731619 0.79737790 -0.55903116
vn -0.81826237 0.23174476 0.52606184
vn 0.85019445 -0.29682399 -0.43481596
vn -0.56595169 0.03800856 -0.82356180
vn -0.64022050 0.70112770 0.31390710
vn 0.66518334 0.55721069 -0.49703861
vn 0.16379346 -0.73186302 0.66147428
vn 0.20043651 -0.06548502 -0.97751569
vn -0.69185179 0.41608354 0.59009795
vn -0.90633455 0.23565919 -0.35074553
vn 0.95647646 -0.27867645 -0.08655759
vn 0.72089223 0.60644704 0.33546442
vn 0.91234824 -0.35547843 -0.20311519
vn 0.40951952 -0.22529254 0.88404583
vn -0.75906835 -0.49775562 -0.41958859
vn -0.01472872 0.03611177 -0.99923921
vn 0.47127013 -0.20858027 -0.85697067
vn 0.23836549 0.66344106 -0.70924456
vn -0.55922962 0.41511914 -0.71759204
vn -0.64600086 0.12064574 -0.75374233
vn 0.90327141 -0.27340771 -0.33067956
vn 0.54374418 -0.17708059 0.82035647
vn -0.98917486 -0.04687189 0.13905442
vn -0.75992312 -0.10594614 -0.64132072
vn 0.68197247 -0.26158382 -0.68299886
vn 0.21039878 -0.11083714 -0.97131225
vn 0.11125748 -0.01471723 -0.99368263
vn -0.64660928 0.51986878 -0.55824088
vn 0.94050106 -0.17715133 -0.28995719
vn 0.72087089 -0.62063177 -0.30848236
vn -0.65829921 0.66535807 -0.35205226
vn 0.20456712 -0.91348233 -0.35171343
vn 0.40542096 -0.29340570 -0.86576379
vn 0.12348186 -0.86398522 -0.48814114
vn 0.01924352 -0.57870969 -0.81530656
f 10//10 6//6 3//3
f 10//10 3//3 1//1
f 10//10 1//1 6//6
f 11//11 3//3 6//6
f 13//13 6//6 1//1
f 13//13 1//1 12//12
f 13//13 2//2 6//6
f 14//14 4//4 12//12
f 15//15 3//3 8//8
f 17//17 5//5 2//2
f 19//19 18//18 9//9
f 19//19 7//7 18//18
f 19//19 13//13 7//7
f 19//19 2//2 13//13
f 20//20 2//2 11//11
f 21//21 11//11 2//2
f 21//21 2//2 5//5
f 22//22 12//12 4//4
f 22//22 4//4 7//7
f 22//22 13//13 12//12
f 23//23 1//1 3//3
f 23//23 3//3 15//15
f 23//23 12//12 1//1
f 23//23 14//14 12//12
f 23//23 15//15 8//8
f 23//23 8//8 14//14
f 24//24 16//16 8//8
f 24//24 8//8 3//3
f 24//24 3//3 11//11
f 24//24 21//21 5//5
f 24//24 11//11 21//21
f 25//25 5//5 17//17
f 25//25 24//24 5//5
f 25//25 16//16 24//24
f 25//25 9//9 16//16
f 26//26 18//18 7//7
f 26//26 7//7 4//4
f 27//27 9//9 18//18
f 28//28 17//17 2//2
f 28//28 2//2 19//19
f 28//28 19//19 9//9
f 28//28 25//25 17//17
f 28//28 9//9 25//25
f 29//29 20//20 11//11
f 29//29 2//2 20//20
f 30//30 22//22 7//7
f 30//30 7//7 13//13
f 30//30 13//13 22//22
f 31//31 26//26 4//4
f 31//31 4//4 14//14
f 31//31 14//14 8//8
f 32//32 29//29 11//11
f 32//32 11//11 6//6
f 32//32 6//6 2//2
f 32//32 2//2 29//29
f 33//33 18//18 26//26
f 33//33 26//26 31//31
f 33//33 31//31 8//8
f 33//33 8//8 16//16
f 34//34 27//27 18//18
f 35//35 34//34 18//18
f 35//35 18//18 33//33
f 35//35 33//33 16//16
f 36//36 27//27 34//34
f 36//36 16//16 9//9
f 36//36 9//9 27//27
f 36//36 35//35 16//16
f 36//36 34//34 35//35

