# https://github.com/mikedh/trimesh
v -0.01234210 0.03266714 0.01675551
v -0.01267476 0.02262131 0.01465376
v -0.01248612 0.02984110 -0.01566438
v -0.04030521 0.01917796 -0.01565592
v -0.04004505 0.01039463 0.01098264
v -0.01747682 0.03636834 -0.00391950
v -0.01223550 0.02153282 -0.00934401
v -0.03505584 0.01725545 0.01746622
v -0.01206276 0.03789413 -0.00701817
v -0.01207340 0.03545965 0.01362008
v -0.04075719 0.01153199 -0.01224528
v -0.03432256 0.01401031 0.01544426
v -0.01591422 0.02498668 0.01732334
v -0.04000667 0.02666892 0.00565483
v -0.01209088 0.03652081 -0.01196692
v -0.01205328 0.03484611 -0.01370008
v -0.01219929 0.03772438 0.00958119
v -0.03695505 0.01191066 0.00290495
v -0.02778116 0.01820854 -0.01578002
v -0.03554437 0.01414969 0.01589464
v -0.02815646 0.01621481 0.01485009
v -0.01271514 0.02435375 0.01655946
v -0.01778804 0.02905540 0.01741579
v -0.03888427 0.02668192 -0.01081536
v -0.03989138 0.02549249 0.01062722
v -0.04064940 0.01637915 -0.01591695
v -0.01240391 0.02350423 -0.01476027
v -0.02190741 0.02847935 -0.01567814
v -0.01403674 0.03742042 0.00846848
v -0.01851711 0.02066506 0.01589966
v -0.01572963 0.02690162 0.01747700
v -0.01808400 0.02330143 0.01714781
v -0.03881533 0.02771374 -0.00493532
v -0.03989692 0.02568311 -0.01189423
v -0.03783989 0.02777266 -0.00809064
v -0.01405443 0.03623534 -0.01106944
v -0.03178500 0.02354561 0.01746703
v -0.03022191 0.02777977 0.01464082
v -0.04070539 0.01378927 -0.01473501
v -0.01379751 0.02494937 -0.01570903
v -0.01285221 0.02165932 -0.01281790
v -0.01235209 0.03290304 -0.01469779
v -0.01424428 0.03740948 -0.00388431
v -0.02270923 0.03215040 0.01236769
v -0.02784123 0.01721583 0.01636756
v -0.03194989 0.01842234 0.01746985
v -0.03879468 0.02776268 -0.00294258
v -0.03971037 0.02675231 -0.00902563
v -0.04002717 0.02399331 -0.01352523
v -0.01305542 0.03632145 -0.01170969
v -0.02496254 0.03010747 -0.01356499
v -0.01942719 0.03513172 -0.00681620
v -0.02511531 0.02741497 0.01732204
v -0.03119032 0.02576334 0.01630633
v -0.03234575 0.01706253 -0.01586912
v -0.03544605 0.01431401 -0.01399144
v -0.01481622 0.02426084 -0.01568488
v -0.01259946 0.02695615 -0.01567482
v -0.02478199 0.01861706 -0.01511905
v -0.01763009 0.02933379 -0.01560544
v -0.01300802 0.03748156 0.00943428
v -0.02274683 0.03099605 0.01440820
v -0.03425720 0.01488919 0.01637548
v -0.02027772 0.02020519 0.01631058
vn 0.56248690 0.40492862 0.72086150
vn 0.76874151 -0.58368571 0.26143353
vn 0.59738275 0.11186594 -0.79411577
vn -0.63126686 0.21399423 -0.74545866
vn -0.54248700 -0.77392978 0.32671172
vn -0.34734075 0.93576043 -0.06088366
vn 0.80980553 -0.58536351 -0.03955460
vn -0.37557929 -0.10926104 0.92032724
vn 0.55759536 0.82086523 -0.12356251
vn 0.58647218 0.65580412 0.47536442
vn -0.54420062 -0.79039329 -0.28129012
vn 0.25430515 -0.83112995 0.49452188
vn 0.13571172 -0.17625447 0.97494445
vn -0.81474447 0.57206857 0.09449334
vn 0.53075098 0.73572929 -0.42072058
vn 0.59714187 0.49431198 -0.63172561
vn 0.51607134 0.81931056 0.24980107
vn 0.33138859 -0.94201378 -0.05283598
vn 0.15150184 -0.44487301 -0.88268635
vn -0.21496722 -0.59822486 0.77195603
vn 0.36008674 -0.87772613 0.31612399
vn 0.70624299 -0.27832707 0.65096458
vn -0.02292706 0.15868865 0.98706244
vn -0.39934514 0.85525484 -0.33024629
vn -0.79509228 0.46784135 0.38594397
vn -0.66173888 -0.11476081 -0.74089919
vn 0.73799378 -0.36965571 -0.56455277
vn -0.11977529 0.32339732 -0.93865225
vn -0.30553599 0.94002858 0.15163782
vn 0.35376185 -0.77153391 0.52876079
vn 0.12497459 -0.01620630 0.99202757
vn 0.13948466 -0.30415593 0.94235514
vn -0.54256061 0.83900334 -0.04124770
vn -0.75631996 0.54229095 -0.36592437
vn -0.38241654 0.91011521 -0.15952399
vn -0.31918082 0.89852905 -0.30127919
vn -0.29031221 0.26579823 0.91927696
vn -0.35214336 0.76303041 0.54201444
vn -0.62262590 -0.47820373 -0.61940147
vn 0.18515512 -0.17020165 -0.96785793
vn 0.60065790 -0.73231261 -0.32082446
vn 0.43576074 0.32370084 -0.83983948
vn -0.26930113 0.96283595 -0.02058741
vn -0.34739062 0.84444693 0.40771208
vn 0.24039756 -0.60115874 0.76211363
vn 0.07151591 -0.18813336 0.97953627
vn -0.54418775 0.83894260 0.00591664
vn -0.76142683 0.63742011 -0.11800338
vn -0.73503625 0.39929999 -0.54797922
vn -0.29456280 0.85745983 -0.42189502
vn -0.25967331 0.65619506 -0.70850393
vn -0.35319672 0.91824373 -0.17911039
vn -0.17456992 0.43647012 0.88262063
vn -0.37026006 0.59042631 0.71715010
vn 0.09941247 -0.37122154 -0.92320731
vn 0.23134852 -0.77159733 -0.59254993
vn 0.14892253 -0.28782852 -0.94603215
vn 0.58305101 -0.04557243 -0.81115638
vn 0.27988359 -0.73281611 -0.62019813
vn -0.04138052 0.28994335 -0.95614879
vn -0.33523782 0.87110117 0.35888487
vn -0.29998893 0.77223564 0.56005246
vn 0.11532976 -0.56403625 0.81765650
vn 0.25465043 -0.61190743 0.74881404
f 7//7 2//2 5//5
f 10//10 1//1 2//2
f 10//10 2//2 7//7
f 16//16 10//10 7//7
f 16//16 9//9 10//10
f 16//16 15//15 9//9
f 17//17 10//10 9//9
f 18//18 11//11 7//7
f 18//18 7//7 5//5
f 18//18 5//5 11//11
f 20//20 8//8 5//5
f 20//20 5//5 12//12
f 21//21 12//12 5//5
f 21//21 5//5 2//2
f 22//22 2//2 1//1
f 25//25 5//5 8//8
f 25//25 14//14 11//11
f 25//25 11//11 5//5
f 26//26 11//11 14//14
f 27//27 16//16 7//7
f 27//27 3//3 16//16
f 28//28 26//26 4//4
f 28//28 3//3 26//26
f 29//29 17//17 9//9
f 29//29 14//14 25//25
f 30//30 21//21 2//2
f 30//30 12//12 21//21
f 30//30 2//2 22//22
f 31//31 22//22 1//1
f 31//31 13//13 22//22
f 31//31 1//1 23//23
f 32//32 22//22 13//13
f 35//35 33//33 6//6
f 36//36 9//9 15//15
f 36//36 24//24 35//35
f 37//37 25//25 8//8
f 37//37 31//31 23//23
f 39//39 11//11 26//26
f 41//41 27//27 7//7
f 41//41 7//7 11//11
f 42//42 28//28 16//16
f 42//42 16//16 3//3
f 43//43 29//29 9//9
f 43//43 9//9 6//6
f 43//43 6//6 29//29
f 44//44 25//25 38//38
f 46//46 13//13 31//31
f 46//46 32//32 13//13
f 46//46 45//45 32//32
f 46//46 8//8 45//45
f 46//46 37//37 8//8
f 46//46 31//31 37//37
f 47//47 29//29 6//6
f 47//47 6//6 33//33
f 47//47 33//33 14//14
f 47//47 14//14 29//29
f 48//48 24//24 34//34
f 48//48 35//35 24//24
f 48//48 33//33 35//35
f 48//48 34//34 14//14
f 48//48 14//14 33//33
f 49//49 4//4 26//26
f 49//49 26//26 14//14
f 49//49 14//14 34//34
f 49//49 28//28 4//4
f 50//50 34//34 24//24
f 50//50 15//15 34//34
f 50//50 36//36 15//15
f 50//50 24//24 36//36
f 51//51 34//34 15//15
f 51//51 15//15 16//16
f 51//51 49//49 34//34
f 51//51 16//16 28//28
f 51//51 28//28 49//49
f 52//52 35//35 6//6
f 52//52 6//6 9//9
f 52//52 36//36 35//35
f 52//52 9//9 36//36
f 53//53 37//37 23//23
f 53//53 23//23 1//1
f 54//54 38//38 25//25
f 54//54 25//25 37//37
f 54//54 53//53 38//38
f 54//54 37//37 53//53
f 55//55 39//39 26//26
f 55//55 40//40 19//19
f 55//55 26//26 3//3
f 55//55 3//3 40//40
f 56//56 11//11 39//39
f 56//56 55//55 19//19
f 56//56 39//39 55//55
f 57//57 40//40 27//27
f 57//57 27//27 19//19
f 57//57 19//19 40//40
f 58//58 40//40 3//3
f 58//58 3//3 27//27
f 58//58 27//27 40//40
f 59//59 19//19 27//27
f 59//59 27//27 41//41
f 59//59 56//56 19//19
f 59//59 41//41 11//11
f 59//59 11//11 56//56
f 60//60 42//42 3//3
f 60//60 3//3 28//28
f 60//60 28//28 42//42
f 61//61 29//29 25//25
f 61//61 25//25 44//44
f 61//61 44//44 17//17
f 61//61 17//17 29//29
f 62//62 44//44 38//38
f 62//62 10//10 17//17
f 62//62 17//17 44//44
f 62//62 38//38 53//53
f 62//62 53//53 1//1
f 62//62 1//1 10//10
f 63//63 20//20 12//12
f 63//63 12//12 45//45
f 63//63 45//45 8//8
f 63//63 8//8 20//20
f 64//64 45//45 12//12
f 64//64 12//12 30//30
f 64//64 30//30 22//22
f 64//64 22//22 32//32
f 64//64 32//32 45//45

