# https://github.com/mikedh/trimesh
v -0.04848605 0.02343357 -0.00047603
v -0.04572937 -0.00823919 -0.00303802
v -0.04846825 0.01481701 -0.01995805
v -0.06442837 0.00854830 -0.01997051
v -0.07222735 0.00335762 -0.00666896
v -0.04864644 -0.00615492 -0.02045210
v -0.04815571 0.02268289 -0.01472705
v -0.06256372 -0.00406329 0.00034728
v -0.04822387 0.01800744 -0.01897464
v -0.06447981 -0.00529961 -0.02049472
v -0.06409325 0.01715168 -0.00753017
v -0.04813861 0.02377869 -0.00304498
v -0.06411310 0.01744390 -0.00051586
v -0.05461600 0.01349804 -0.01987934
v -0.06431369 0.01062143 -0.01927969
v -0.06061979 0.01084710 -0.01994233
v -0.07291279 0.00083194 -0.00964011
v -0.05600734 -0.00809434 -0.02052625
v -0.04816754 0.02378461 -0.01020266
v -0.05532380 0.02095474 -0.00036887
v -0.06390609 -0.00172086 -0.00001654
v -0.04979057 0.01471206 -0.01990596
v -0.04839035 0.02142876 -0.01672105
v -0.06403330 0.01490061 -0.01453070
v -0.06541212 -0.00638247 -0.01094899
v -0.05048103 0.02221458 -0.01353691
v -0.05189387 0.02236305 -0.00049174
v -0.06528720 0.00339945 -0.00106380
v -0.04946593 0.01785211 -0.01874155
v -0.05667002 0.01634349 -0.01756624
v -0.06387983 0.01620248 -0.01209966
v -0.06006671 -0.00839995 -0.00126424
v -0.05977758 -0.00853488 -0.01065927
v -0.04910605 0.02129943 -0.01648110
v -0.05637990 0.01968289 -0.01245572
v -0.05975627 -0.00703391 -0.02009203
v -0.05562365 -0.00950021 -0.00612717
v -0.04918429 0.02232622 -0.01449487
v -0.05894031 0.01611134 -0.01638117
vn 0.42824970 0.64531339 0.63259215
vn 0.69329823 -0.56749136 0.44417466
vn 0.57161363 0.12369341 -0.81114598
vn -0.48031354 0.15432114 -0.86341409
vn -0.93332224 0.10232664 0.34414947
vn 0.58673818 -0.45148599 -0.67223412
vn 0.51620922 0.78319716 -0.34659809
vn -0.34044721 -0.33236906 0.87956040
vn 0.58074220 0.36903608 -0.72563825
vn -0.48385362 -0.48498285 -0.72847602
vn -0.65849970 0.74571691 -0.10141224
vn 0.55055423 0.83124983 0.07690092
vn -0.54796542 0.56211076 0.61948801
vn -0.10891722 0.27576913 -0.95503321
vn -0.56633474 0.44615512 -0.69297227
vn -0.10557749 0.24282848 -0.96430686
vn -0.97823219 -0.19918994 -0.05818205
vn -0.01132229 -0.70370648 -0.71040058
vn 0.50244414 0.85935519 -0.09517643
vn -0.23620880 0.59787962 0.76599306
vn -0.50885711 -0.11724844 0.85282897
vn -0.06543732 0.25197166 -0.96551967
vn 0.39991295 0.66132053 -0.63460601
vn -0.64731928 0.64077417 -0.41277866
vn -0.55979847 -0.82858062 -0.00893491
vn -0.38295452 0.87541525 -0.29494741
vn -0.28862913 0.79006495 0.54082400
vn -0.60235488 0.00941401 0.79817290
vn -0.22297374 0.52252367 -0.82295305
vn -0.35289599 0.67516245 -0.64778090
vn -0.64870988 0.71549960 -0.25929869
vn -0.24166122 -0.76371114 0.59861937
vn -0.26084641 -0.96270258 -0.07185329
vn -0.35769292 0.75531040 -0.54914659
vn -0.41816033 0.88344700 -0.21133701
vn -0.30255950 -0.91851262 -0.25454335
vn -0.01531091 -0.99892295 0.04380085
vn -0.38420569 0.81780581 -0.42846195
vn -0.38349706 0.70815874 -0.59282476
f 8//8 2//2 1//1
f 9//9 6//6 3//3
f 9//9 2//2 6//6
f 9//9 7//7 2//2
f 10//10 3//3 6//6
f 12//12 1//1 2//2
f 13//13 11//11 5//5
f 16//16 10//10 4//4
f 16//16 3//3 10//10
f 16//16 14//14 3//3
f 16//16 4//4 15//15
f 16//16 15//15 9//9
f 16//16 9//9 14//14
f 17//17 4//4 10//10
f 17//17 15//15 4//4
f 17//17 8//8 5//5
f 18//18 10//10 6//6
f 18//18 6//6 2//2
f 19//19 12//12 2//2
f 19//19 2//2 7//7
f 19//19 11//11 13//13
f 20//20 13//13 8//8
f 20//20 8//8 1//1
f 21//21 5//5 8//8
f 21//21 8//8 13//13
f 22//22 14//14 9//9
f 22//22 9//9 3//3
f 22//22 3//3 14//14
f 23//23 7//7 9//9
f 24//24 15//15 17//17
f 24//24 17//17 5//5
f 25//25 17//17 10//10
f 26//26 19//19 7//7
f 26//26 11//11 19//19
f 27//27 20//20 1//1
f 27//27 1//1 12//12
f 27//27 12//12 19//19
f 27//27 19//19 13//13
f 27//27 13//13 20//20
f 28//28 21//21 13//13
f 28//28 13//13 5//5
f 28//28 5//5 21//21
f 29//29 23//23 9//9
f 29//29 9//9 15//15
f 29//29 15//15 23//23
f 30//30 23//23 15//15
f 30//30 15//15 24//24
f 31//31 24//24 5//5
f 31//31 5//5 11//11
f 31//31 26//26 24//24
f 32//32 8//8 17//17
f 32//32 17//17 25//25
f 32//32 2//2 8//8
f 33//33 25//25 10//10
f 33//33 32//32 25//25
f 34//34 7//7 23//23
f 34//34 24//24 26//26
f 34//34 23//23 30//30
f 35//35 31//31 11//11
f 35//35 11//11 26//26
f 35//35 26//26 31//31
f 36//36 33//33 10//10
f 36//36 10//10 18//18
f 36//36 18//18 33//33
f 37//37 33//33 18//18
f 37//37 18//18 2//2
f 37//37 2//2 32//32
f 37//37 32//32 33//33
f 38//38 34//34 26//26
f 38//38 26//26 7//7
f 38//38 7//7 34//34
f 39//39 34//34 30//30
f 39//39 30//30 24//24
f 39//39 24//24 34//34

