# https://github.com/mikedh/trimesh
v -0.01075907 -0.02179490 0.01857007
v -0.01029839 -0.03038846 0.01654326
v -0.01074183 -0.01947808 -0.01809328
v -0.04256809 -0.01315073 -0.01940243
v -0.04256814 -0.01728853 0.01861703
v -0.01044366 -0.03170965 -0.01629163
v -0.03965850 0.00139910 0.00738075
v -0.01017292 -0.01511600 0.01072892
v -0.01076444 -0.02621451 0.01862846
v -0.01090577 -0.02847755 -0.01925931
v -0.04195907 -0.02112936 -0.00306938
v -0.04184705 0.00127049 -0.00190568
v -0.04307269 -0.00739572 0.01741693
v -0.01283288 -0.01730696 0.01732474
v -0.01007881 -0.03003410 -0.01850918
v -0.03107668 -0.02156830 0.01856368
v -0.01043909 -0.02921569 0.01760187
v -0.01068447 -0.02410983 -0.01935143
v -0.04227083 -0.01908051 -0.01721410
v -0.01269946 -0.03216534 0.00976006
v -0.04321296 -0.00652274 -0.01585336
v -0.01241609 -0.01287134 -0.01016336
v -0.04280436 -0.00989109 0.01850085
v -0.04229386 0.00027061 0.01134864
v -0.04080703 0.00143592 0.01002422
v -0.01100693 -0.01851709 0.01774066
v -0.01084050 -0.01451277 -0.01263260
v -0.01027543 -0.03143928 0.01464668
v -0.04113349 -0.01996646 0.01683093
v -0.02897123 -0.02375423 0.01725905
v -0.01555717 -0.02604472 0.01830178
v -0.03344056 -0.02050230 -0.01942832
v -0.03650310 -0.01216218 -0.01923381
v -0.04245275 -0.01996665 0.01590287
v -0.03094842 -0.02488395 -0.01526742
v -0.03855166 -0.02117165 -0.01712401
v -0.04308224 -0.00777161 -0.01697093
v -0.03953361 0.00139262 0.00299513
v -0.01276323 -0.01313345 0.00219781
v -0.04275540 0.00078772 -0.00214471
v -0.04161650 0.00088662 0.01128142
v -0.01113239 -0.01760957 0.01661373
v -0.02837686 -0.01382768 0.01841893
v -0.01495043 -0.01673044 0.01767379
v -0.03215457 -0.00947931 -0.01595668
v -0.01034894 -0.03241498 -0.00429038
v -0.04246443 -0.01889074 0.01769252
v -0.01741557 -0.02968229 0.01419803
v -0.01286170 -0.03000307 0.01623998
v -0.04226338 -0.01719831 -0.01925101
v -0.02154169 -0.02541928 -0.01921302
v -0.01826909 -0.01953758 -0.01912429
v -0.04220472 -0.02119316 0.00487133
v -0.03354138 -0.02501052 0.00357846
v -0.01365838 -0.02983379 -0.01737449
v -0.02713484 -0.02606124 -0.01596419
v -0.04270608 -0.00985320 -0.01807798
v -0.03439916 -0.01133807 0.01832283
v -0.01494028 -0.01542428 -0.01561319
v -0.03455191 -0.00824095 -0.01504890
v -0.03189782 -0.01133710 -0.01788768
v -0.01039537 -0.03264088 0.01108106
v -0.01256366 -0.03222333 0.00033243
v -0.04074823 -0.02117843 0.01426619
vn 0.65949100 0.09696590 0.74543225
vn 0.60312838 -0.61130980 0.51238314
vn 0.69797002 0.35393889 -0.62254728
vn -0.65335235 0.08455721 -0.75231695
vn -0.67070637 -0.17122844 0.72168815
vn 0.42267269 -0.86135918 -0.28179452
vn 0.28323175 0.95694723 0.06349624
vn 0.82822469 0.53368913 0.17093795
vn 0.53447247 -0.12663986 0.83564437
vn 0.22003012 -0.22954308 -0.94810164
vn -0.71144166 -0.70099708 -0.04953650
vn -0.07629260 0.96876993 -0.23593276
vn -0.64556742 0.38550714 0.65926243
vn 0.33084733 0.71814318 0.61221762
vn 0.60697527 -0.49727505 -0.61991818
vn -0.11779781 -0.36908841 0.92189881
vn 0.57672737 -0.40370486 0.71021682
vn 0.60941335 0.09197610 -0.78749970
vn -0.78246210 -0.55184375 -0.28848144
vn -0.28340090 -0.95544168 0.08255376
vn -0.62576888 0.60053224 -0.49776935
vn 0.51772229 0.84078291 -0.15826474
vn -0.57668285 0.15929898 0.80128692
vn -0.80230213 0.50751311 0.31423197
vn -0.00125822 0.96688731 0.25520061
vn 0.64166571 0.38426373 0.66378197
vn 0.75842824 0.57101050 -0.31421907
vn 0.59953132 -0.73604873 0.31431587
vn -0.29472070 -0.81545186 0.49817465
vn -0.22257055 -0.68437723 0.69432713
vn -0.07858350 -0.32857340 0.94120357
vn -0.13184330 -0.33472148 -0.93304816
vn 0.06887322 0.34130216 -0.93742697
vn -0.78087734 -0.58316127 0.22394979
vn -0.35438940 -0.91272487 -0.20332601
vn -0.37818742 -0.81394239 -0.44098987
vn -0.64198506 0.42317331 -0.63935868
vn 0.24216802 0.96881492 -0.05246239
vn 0.50609050 0.86158406 0.03931056
vn -0.78217358 0.60158242 -0.16218223
vn -0.22488572 0.83704094 0.49878741
vn 0.56911220 0.68943967 0.44808956
vn 0.07707750 0.21065120 0.97451790
vn 0.21054536 0.50887378 0.83469643
vn 0.24089702 0.78277763 -0.57378377
vn 0.59045635 -0.80623954 -0.03659388
vn -0.70840394 -0.48451284 0.51323597
vn -0.30387836 -0.89232122 0.33379752
vn -0.22413593 -0.78238934 0.58105938
vn -0.65132607 -0.26494920 -0.71103887
vn -0.16740940 -0.48085235 -0.86067132
vn 0.10412135 0.23913952 -0.96538647
vn -0.79377899 -0.60811021 0.01081141
vn -0.36264055 -0.93180266 0.01535036
vn -0.26089593 -0.75561165 -0.60081973
vn -0.30617922 -0.87551282 -0.37380689
vn -0.34063049 0.37446533 -0.86240744
vn 0.11706303 0.37297414 0.92042737
vn 0.27332313 0.71542626 -0.64300835
vn 0.23130058 0.83107319 -0.50578394
vn 0.19824784 0.60885441 -0.76811074
vn 0.53081624 -0.83585573 0.13992611
vn -0.23284320 -0.97214931 -0.02664117
vn -0.40793010 -0.89527683 0.17908776
f 9//9 1//1 5//5
f 16//16 9//9 5//5
f 17//17 1//1 9//9
f 17//17 8//8 1//1
f 17//17 2//2 8//8
f 18//18 15//15 10//10
f 18//18 3//3 15//15
f 23//23 13//13 5//5
f 23//23 5//5 1//1
f 25//25 8//8 7//7
f 26//26 1//1 8//8
f 27//27 15//15 3//3
f 27//27 8//8 15//15
f 27//27 22//22 8//8
f 27//27 12//12 22//22
f 28//28 15//15 8//8
f 28//28 8//8 2//2
f 30//30 17//17 16//16
f 31//31 17//17 9//9
f 31//31 9//9 16//16
f 31//31 16//16 17//17
f 32//32 18//18 10//10
f 32//32 4//4 18//18
f 33//33 18//18 4//4
f 34//34 21//21 19//19
f 34//34 5//5 13//13
f 34//34 13//13 21//21
f 36//36 35//35 11//11
f 36//36 11//11 19//19
f 37//37 4//4 19//19
f 37//37 19//19 21//21
f 38//38 22//22 12//12
f 38//38 7//7 22//22
f 38//38 25//25 7//7
f 38//38 12//12 25//25
f 39//39 22//22 7//7
f 39//39 7//7 8//8
f 39//39 8//8 22//22
f 40//40 21//21 13//13
f 40//40 13//13 24//24
f 40//40 12//12 21//21
f 40//40 25//25 12//12
f 41//41 24//24 13//13
f 41//41 14//14 25//25
f 41//41 40//40 24//24
f 41//41 25//25 40//40
f 42//42 25//25 14//14
f 42//42 8//8 25//25
f 42//42 26//26 8//8
f 42//42 14//14 26//26
f 43//43 23//23 1//1
f 43//43 1//1 26//26
f 44//44 26//26 14//14
f 44//44 43//43 26//26
f 44//44 14//14 41//41
f 45//45 12//12 27//27
f 46//46 6//6 15//15
f 47//47 16//16 5//5
f 47//47 34//34 29//29
f 47//47 5//5 34//34
f 47//47 30//30 16//16
f 48//48 29//29 34//34
f 49//49 2//2 17//17
f 49//49 17//17 30//30
f 49//49 29//29 48//48
f 49//49 47//47 29//29
f 49//49 30//30 47//47
f 49//49 48//48 28//28
f 49//49 28//28 2//2
f 50//50 19//19 4//4
f 50//50 4//4 32//32
f 50//50 36//36 19//19
f 50//50 32//32 36//36
f 51//51 32//32 10//10
f 51//51 10//10 15//15
f 51//51 36//36 32//32
f 52//52 33//33 3//3
f 52//52 3//3 18//18
f 52//52 18//18 33//33
f 53//53 34//34 19//19
f 53//53 19//19 11//11
f 54//54 11//11 35//35
f 54//54 53//53 11//11
f 55//55 15//15 6//6
f 55//55 51//51 15//15
f 55//55 36//36 51//51
f 56//56 6//6 35//35
f 56//56 35//35 36//36
f 56//56 55//55 6//6
f 56//56 36//36 55//55
f 57//57 37//37 33//33
f 57//57 33//33 4//4
f 57//57 4//4 37//37
f 58//58 13//13 23//23
f 58//58 23//23 43//43
f 58//58 43//43 44//44
f 58//58 44//44 41//41
f 58//58 41//41 13//13
f 59//59 45//45 27//27
f 59//59 27//27 3//3
f 60//60 45//45 21//21
f 60//60 21//21 12//12
f 60//60 12//12 45//45
f 61//61 3//3 33//33
f 61//61 33//33 37//37
f 61//61 37//37 21//21
f 61//61 21//21 45//45
f 61//61 59//59 3//3
f 61//61 45//45 59//59
f 62//62 48//48 20//20
f 62//62 28//28 48//48
f 62//62 46//46 15//15
f 62//62 15//15 28//28
f 63//63 35//35 6//6
f 63//63 6//6 46//46
f 63//63 54//54 35//35
f 63//63 20//20 54//54
f 63//63 62//62 20//20
f 63//63 46//46 62//62
f 64//64 48//48 34//34
f 64//64 20//20 48//48
f 64//64 54//54 20//20
f 64//64 34//34 53//53
f 64//64 53//53 54//54

