# https://github.com/mikedh/trimesh
v 0.05819321 0.06086582 0.01741994
v 0.06112254 0.05459765 0.01426378
v 0.05717539 0.06314323 -0.01537148
v 0.00106381 0.03690937 -0.01750291
v 0.00094440 0.03694769 0.01969892
v 0.05301153 0.04718393 -0.01290459
v 0.06136260 0.06254299 0.01236914
v 0.02266646 0.03216013 0.01713597
v 0.00168298 0.04529106 0.00884162
v 0.06099660 0.05423082 -0.01155981
v 0.04267509 0.04733511 -0.01777376
v 0.06092597 0.06030472 0.01471031
v 0.05686530 0.05126874 0.01743637
v 0.02329044 0.03761549 -0.01679172
v 0.02884990 0.05271519 0.01645344
v 0.00161852 0.04410218 -0.01139647
v 0.04687781 0.06493434 -0.00226170
v 0.05893106 0.04942423 0.00822967
v 0.06083497 0.06330308 -0.01037645
v 0.03434034 0.05032106 -0.01780197
v 0.05671438 0.05240575 -0.01666722
v 0.05996038 0.06265076 0.01541325
v 0.06003428 0.05691675 0.01635843
v 0.06135968 0.06236883 0.01315474
v 0.02313120 0.04415927 0.01996917
v 0.02453952 0.03181552 0.01311180
v 0.01904873 0.03715910 -0.01782322
v 0.00276387 0.04172244 0.01667994
v 0.03358100 0.05523574 -0.01570067
v 0.00153264 0.04538935 0.00170354
v 0.05583268 0.06629557 0.01017506
v 0.06090947 0.05223460 0.00679333
v 0.05973406 0.05142087 -0.01249487
v 0.06002421 0.05045001 0.01227101
v 0.05975901 0.06147027 -0.01460996
v 0.06094617 0.06231015 -0.01154974
v 0.04359314 0.04538483 -0.01648046
v 0.05676968 0.06143535 -0.01646566
v 0.05856198 0.05232182 0.01647408
v 0.05782221 0.05308347 0.01743329
v 0.05996396 0.05886575 0.01623813
v 0.01678972 0.03708011 0.01989330
v 0.02135784 0.04796721 0.01876332
v 0.03124976 0.03857376 -0.01273106
v 0.05697159 0.04831685 0.00666937
v 0.04272511 0.05046457 -0.01788201
v 0.00599275 0.03697027 -0.01796200
v 0.00144849 0.04405639 0.01208725
v 0.00284618 0.04295209 -0.01447487
v 0.01220289 0.04273650 -0.01777074
v 0.05447304 0.06606487 -0.01348365
v 0.00145902 0.04307386 -0.01361090
v 0.01031832 0.04907803 -0.00445548
v 0.02866861 0.05632252 0.00870023
v 0.05726035 0.06509960 0.01449097
v 0.05885044 0.06506964 0.00647970
v 0.05550398 0.04831219 -0.01265968
v 0.05968049 0.05428296 -0.01492650
v 0.05690388 0.04842815 0.01353428
v 0.06089833 0.05222545 0.01126584
v 0.06010036 0.05062644 0.00676816
v 0.06004751 0.06431488 -0.01238772
v 0.05574480 0.05135899 -0.01658112
v 0.03509003 0.04356999 -0.01785588
vn 0.25706226 0.30488613 0.91704059
vn 0.92503748 -0.18638299 0.33100914
vn 0.28569377 0.55975451 -0.77785215
vn -0.64490204 -0.40368250 -0.64895438
vn -0.67951889 -0.32659081 0.65695701
vn 0.39577329 -0.85429055 -0.33697354
vn 0.88900340 0.45274755 0.06850263
vn 0.08748593 -0.83530898 0.54277539
vn -0.72425090 0.67867937 0.12188090
vn 0.96846788 -0.17339444 -0.17889753
vn 0.12529677 -0.20573614 -0.97055312
vn 0.88495884 0.08178893 0.45843040
vn 0.38850894 -0.41471622 0.82284340
vn 0.23190685 -0.84305516 -0.48525995
vn -0.30984861 0.79081264 0.52783445
vn -0.74419498 0.64608262 -0.16956144
vn -0.30654939 0.95177597 -0.01224664
vn 0.59958515 -0.80030128 -0.00393811
vn 0.92088576 0.38716780 -0.04550295
vn -0.06744230 0.20449993 -0.97654048
vn 0.42111465 -0.27094545 -0.86559287
vn 0.62427040 0.50519115 0.59587614
vn 0.70896666 -0.04505658 0.70380124
vn 0.89225569 0.39409022 0.22039211
vn 0.00224268 0.09129065 0.99582177
vn 0.17876504 -0.98295902 0.04283245
vn 0.06825299 -0.66412158 -0.74450255
vn -0.46045835 0.65609043 0.59793265
vn -0.23156703 0.57443399 -0.78511292
vn -0.81198115 0.58351453 -0.01404992
vn 0.03475487 0.98496298 0.16923362
vn 0.96174355 -0.27370909 -0.01151887
vn 0.75934959 -0.58425465 -0.28641702
vn 0.76349096 -0.60706140 0.22035879
vn 0.73318582 0.19851597 -0.65040753
vn 0.96674601 0.13756609 -0.21558694
vn 0.29728565 -0.69343563 -0.65632939
vn 0.21249478 0.28338864 -0.93516675
vn 0.69644492 -0.40023260 0.59563272
vn 0.40895207 -0.13859581 0.90196974
vn 0.71862028 0.09033647 0.68951013
vn 0.03019587 -0.25665353 0.96603166
vn -0.21132647 0.55035804 0.80774201
vn 0.31002466 -0.90646880 -0.28670372
vn 0.47914812 -0.87759154 -0.01581681
vn 0.03097297 0.04550064 -0.99848403
vn -0.04848139 -0.59412264 -0.80291210
vn -0.78189317 0.56262176 0.26851411
vn -0.33406105 0.60204892 -0.72521743
vn -0.15233316 0.32864449 -0.93208766
vn -0.01424924 0.88379744 -0.46765269
vn -0.77008895 0.50855145 -0.38514728
vn -0.40054897 0.91147087 -0.09370899
vn -0.36007028 0.90132464 0.24075568
vn 0.14012278 0.85371709 0.50153039
vn 0.53532313 0.84439654 0.02058210
vn 0.49267270 -0.81916761 -0.29366313
vn 0.75696680 -0.16535057 -0.63218704
vn 0.51363397 -0.80434272 0.29868534
vn 0.95781632 -0.28150874 0.05779900
vn 0.80578506 -0.59158546 -0.02714928
vn 0.65231733 0.68108346 -0.33257694
vn 0.36330700 -0.51032173 -0.77947402
vn 0.14124200 -0.34407118 -0.92825951
f 8//8 5//5 4//4
f 10//10 7//7 2//2
f 23//23 2//2 12//12
f 24//24 12//12 2//2
f 24//24 2//2 7//7
f 24//24 22//22 12//12
f 26//26 8//8 4//4
f 27//27 14//14 26//26
f 30//30 4//4 5//5
f 30//30 9//9 17//17
f 32//32 10//10 2//2
f 33//33 10//10 32//32
f 36//36 19//19 7//7
f 36//36 7//7 10//10
f 36//36 10//10 35//35
f 38//38 3//3 35//35
f 39//39 2//2 23//23
f 39//39 34//34 2//2
f 39//39 13//13 34//34
f 40//40 23//23 1//1
f 40//40 39//39 23//23
f 40//40 13//13 39//39
f 40//40 25//25 13//13
f 40//40 1//1 25//25
f 41//41 22//22 1//1
f 41//41 1//1 23//23
f 41//41 23//23 12//12
f 41//41 12//12 22//22
f 42//42 25//25 5//5
f 42//42 5//5 8//8
f 42//42 8//8 13//13
f 42//42 13//13 25//25
f 43//43 5//5 25//25
f 43//43 28//28 5//5
f 43//43 15//15 28//28
f 43//43 25//25 1//1
f 44//44 26//26 14//14
f 44//44 6//6 26//26
f 44//44 37//37 6//6
f 44//44 14//14 37//37
f 46//46 20//20 38//38
f 46//46 38//38 21//21
f 46//46 21//21 11//11
f 47//47 20//20 46//46
f 47//47 27//27 26//26
f 47//47 26//26 4//4
f 48//48 28//28 15//15
f 48//48 5//5 28//28
f 48//48 30//30 5//5
f 48//48 9//9 30//30
f 50//50 49//49 29//29
f 50//50 4//4 49//49
f 50//50 47//47 4//4
f 50//50 20//20 47//47
f 50//50 38//38 20//20
f 50//50 29//29 38//38
f 51//51 38//38 29//29
f 51//51 3//3 38//38
f 51//51 17//17 31//31
f 52//52 30//30 16//16
f 52//52 4//4 30//30
f 52//52 49//49 4//4
f 52//52 16//16 51//51
f 52//52 51//51 29//29
f 52//52 29//29 49//49
f 53//53 30//30 17//17
f 53//53 16//16 30//30
f 53//53 51//51 16//16
f 53//53 17//17 51//51
f 54//54 31//31 17//17
f 54//54 17//17 9//9
f 54//54 9//9 48//48
f 55//55 1//1 22//22
f 55//55 22//22 24//24
f 55//55 24//24 7//7
f 55//55 43//43 1//1
f 55//55 15//15 43//43
f 55//55 48//48 15//15
f 55//55 54//54 48//48
f 55//55 31//31 54//54
f 56//56 55//55 7//7
f 56//56 31//31 55//55
f 57//57 33//33 18//18
f 57//57 18//18 45//45
f 57//57 45//45 26//26
f 57//57 26//26 6//6
f 58//58 33//33 21//21
f 58//58 10//10 33//33
f 58//58 35//35 10//10
f 58//58 38//38 35//35
f 58//58 21//21 38//38
f 59//59 18//18 34//34
f 59//59 45//45 18//18
f 59//59 26//26 45//45
f 59//59 8//8 26//26
f 59//59 34//34 13//13
f 59//59 13//13 8//8
f 60//60 34//34 32//32
f 60//60 32//32 2//2
f 60//60 2//2 34//34
f 61//61 33//33 32//32
f 61//61 32//32 34//34
f 61//61 34//34 18//18
f 61//61 18//18 33//33
f 62//62 35//35 3//3
f 62//62 36//36 35//35
f 62//62 19//19 36//36
f 62//62 3//3 51//51
f 62//62 51//51 31//31
f 62//62 31//31 56//56
f 62//62 56//56 7//7
f 62//62 7//7 19//19
f 63//63 11//11 21//21
f 63//63 6//6 37//37
f 63//63 57//57 6//6
f 63//63 21//21 33//33
f 63//63 33//33 57//57
f 64//64 63//63 37//37
f 64//64 11//11 63//63
f 64//64 46//46 11//11
f 64//64 47//47 46//46
f 64//64 27//27 47//47
f 64//64 37//37 14//14
f 64//64 14//14 27//27

