# https://github.com/mikedh/trimesh
v -0.03948104 0.01845030 0.02126140
v -0.03961282 0.01275852 0.02110132
v -0.04560472 -0.00609153 0.00294347
v -0.06169049 0.01638118 0.00515036
v -0.06212016 -0.00379491 0.02177612
v -0.04801682 0.02162214 0.00518521
v -0.03890970 0.01022893 0.01477087
v -0.06194444 0.00947041 0.02139018
v -0.04819225 -0.00428813 0.02041823
v -0.06067869 -0.00466129 0.00616041
v -0.05099866 0.02068543 0.00517147
v -0.03924398 0.02022704 0.02033365
v -0.03943576 0.02375462 0.01478557
v -0.06309719 0.01521298 0.01052824
v -0.05445106 -0.00900477 0.01881523
v -0.05675771 -0.00480369 0.02119597
v -0.04245123 0.01788890 0.02116963
v -0.03905775 0.02210012 0.01852927
v -0.06298562 0.01493532 0.01263023
v -0.06180065 -0.00396177 0.00712657
v -0.05403959 0.01938073 0.00814256
v -0.05664328 -0.00885364 0.01841365
v -0.05443919 -0.00774238 0.02018673
v -0.03922122 0.02288953 0.01674134
v -0.05617467 0.01531127 0.01813233
v -0.05079406 0.02046181 0.00919391
v -0.06154803 0.01616602 0.00822306
v -0.05428001 -0.00849690 0.01938931
v -0.05651217 -0.00735712 0.02013504
v -0.04121643 0.02071565 0.01906257
v -0.06154541 0.01427767 0.01618032
v -0.04971463 0.02044924 0.01133998
v -0.06040737 0.01411492 0.01714433
v -0.05508113 0.01720055 0.01539995
v -0.05950232 0.01498520 0.01655569
v -0.05830320 0.01510969 0.01714258
v -0.04022081 0.02262362 0.01667795
vn 0.55456574 0.18984249 0.81019545
vn 0.68703345 -0.15703395 0.70945428
vn 0.47089488 -0.59301327 -0.65314109
vn -0.61793528 0.49906323 -0.60752933
vn -0.66031756 -0.36111156 0.65846728
vn 0.15386606 0.71639837 -0.68051349
vn 0.97479105 -0.19180402 -0.11398957
vn -0.63337255 0.24523058 0.73396265
vn 0.53567002 -0.50096176 0.67977566
vn -0.46999521 -0.58461388 -0.66131016
vn -0.24924792 0.71919791 -0.64855982
vn 0.56374486 0.47650349 0.67463780
vn 0.54435531 0.83085991 -0.11553832
vn -0.86347517 0.50437989 -0.00340003
vn 0.13828387 -0.94549950 0.29480207
vn 0.07762380 -0.19012002 0.97868735
vn -0.16223222 0.41402373 0.89569250
vn 0.57047340 0.68292633 0.45625840
vn -0.81428254 0.54634589 0.19608701
vn -0.85651735 -0.39480060 -0.33243122
vn -0.36604309 0.92492428 0.10260377
vn -0.32540322 -0.92712064 0.18590336
vn 0.08363154 -0.55890982 0.82500035
vn 0.72004466 0.65888854 0.21771903
vn -0.31140546 0.72395192 0.61556499
vn -0.33941115 0.93234362 0.12464127
vn -0.40610483 0.90893051 0.09446798
vn 0.18284899 -0.74304022 0.64378372
vn -0.18299260 -0.66429259 0.72472689
vn -0.28615663 0.68697097 0.66797102
vn -0.55004823 0.71047608 0.43894269
vn -0.35878128 0.91368020 0.19095678
vn -0.37026543 0.71369160 0.59459887
vn -0.35689698 0.88039557 0.31229503
vn -0.35852644 0.82292046 0.44075016
vn -0.33677982 0.76703157 0.54611530
vn -0.31214633 0.85719803 0.40960495
f 5//5 2//2 1//1
f 8//8 5//5 1//1
f 9//9 7//7 2//2
f 9//9 3//3 7//7
f 10//10 4//4 3//3
f 11//11 6//6 3//3
f 11//11 3//3 4//4
f 12//12 1//1 2//2
f 12//12 2//2 7//7
f 13//13 7//7 3//3
f 13//13 3//3 6//6
f 13//13 6//6 11//11
f 15//15 3//3 9//9
f 16//16 9//9 2//2
f 16//16 2//2 5//5
f 17//17 12//12 8//8
f 17//17 8//8 1//1
f 17//17 1//1 12//12
f 18//18 12//12 7//7
f 19//19 14//14 5//5
f 19//19 5//5 8//8
f 20//20 5//5 14//14
f 20//20 14//14 4//4
f 20//20 4//4 10//10
f 21//21 11//11 4//4
f 21//21 14//14 19//19
f 22//22 10//10 3//3
f 22//22 3//3 15//15
f 22//22 20//20 10//10
f 22//22 5//5 20//20
f 23//23 9//9 16//16
f 23//23 16//16 5//5
f 24//24 18//18 7//7
f 24//24 7//7 13//13
f 24//24 13//13 18//18
f 26//26 13//13 11//11
f 26//26 11//11 21//21
f 26//26 21//21 19//19
f 27//27 21//21 4//4
f 27//27 4//4 14//14
f 27//27 14//14 21//21
f 28//28 23//23 15//15
f 28//28 15//15 9//9
f 28//28 9//9 23//23
f 29//29 22//22 15//15
f 29//29 15//15 23//23
f 29//29 23//23 5//5
f 29//29 5//5 22//22
f 30//30 12//12 18//18
f 30//30 18//18 25//25
f 30//30 25//25 8//8
f 30//30 8//8 12//12
f 31//31 19//19 8//8
f 32//32 26//26 19//19
f 32//32 19//19 13//13
f 32//32 13//13 26//26
f 33//33 31//31 8//8
f 33//33 8//8 25//25
f 34//34 13//13 19//19
f 35//35 13//13 34//34
f 35//35 34//34 19//19
f 35//35 19//19 31//31
f 35//35 31//31 33//33
f 36//36 25//25 18//18
f 36//36 18//18 35//35
f 36//36 35//35 33//33
f 36//36 33//33 25//25
f 37//37 35//35 18//18
f 37//37 18//18 13//13
f 37//37 13//13 35//35

