# https://github.com/mikedh/trimesh
v -0.04150007 0.04155365 0.02316719
v -0.00680227 -0.06011410 0.01773028
v -0.01581333 0.00607473 0.02333451
v -0.03729653 0.04158227 0.01653783
v -0.02661646 -0.03031358 0.01208172
v -0.03339236 0.03278219 0.01547283
v -0.03867122 0.04154993 0.02072136
v -0.02989837 -0.00243520 0.02423386
v -0.04387719 0.01821183 0.01774590
v -0.01537296 -0.00094130 0.02108429
v -0.02740652 -0.02653160 0.01229006
v -0.01315366 -0.06079059 0.01422133
v -0.04085931 0.04311648 0.02221916
v -0.03791258 0.04246368 0.01696969
v -0.00703745 -0.05265899 0.02074728
v -0.02039167 0.00615454 0.02425842
v -0.04648989 0.03107957 0.02249466
v -0.04313310 0.01628229 0.01739376
v -0.01562238 -0.05648971 0.01609150
v -0.01602441 0.00614452 0.02338195
v -0.03835185 0.02364368 0.02419353
v -0.04632303 0.04330828 0.02243945
v -0.03406238 -0.00866579 0.01746860
v -0.01586082 -0.05770543 0.01414698
v -0.03235988 -0.00329649 0.02309443
v -0.01095931 -0.05929338 0.01785883
v -0.03661106 0.02337251 0.02422647
v -0.04556714 0.03134367 0.02306900
v -0.04498253 0.04267426 0.02308915
v -0.03339336 -0.00751735 0.02010801
v -0.01476844 -0.05826849 0.01571281
v -0.01107516 -0.06045914 0.01671463
v -0.00698651 -0.05668405 0.01981604
v -0.01189191 -0.05677082 0.01870606
v -0.03181138 -0.00121691 0.02404710
v -0.04601839 0.04176392 0.02303078
v -0.04225504 0.04234211 0.02308058
v -0.03311560 -0.00340037 0.02224705
v -0.03297471 -0.01083669 0.01808545
v -0.01553808 -0.05755909 0.01510507
v -0.00795965 -0.06042758 0.01782396
v -0.01263912 -0.06032924 0.01575781
v -0.01369978 -0.05824694 0.01670207
v -0.00807598 -0.05660402 0.01976445
v -0.03817342 0.02140918 0.02411513
v -0.03441564 0.00242443 0.02327395
v -0.04621763 0.04293599 0.02276321
v -0.04125540 0.04282487 0.02255013
v -0.01230729 -0.06085410 0.01528118
v -0.00746298 -0.06019523 0.01794119
v -0.01263045 -0.05931066 0.01671441
v -0.01115385 -0.05749273 0.01863406
v -0.00905334 -0.05862078 0.01864663
vn 0.21699836 0.21698346 0.95175096
vn 0.82923219 -0.54700645 -0.11470797
vn 0.90153815 0.29564647 0.31594640
vn 0.37808399 0.53677525 -0.75427106
vn -0.57199740 -0.25079138 -0.78097545
vn 0.39543890 0.26148297 -0.88048551
vn 0.72856982 0.56619090 0.38550471
vn -0.08046083 -0.08296521 0.99329896
vn -0.89226876 -0.18399422 -0.41231369
vn 0.76815534 0.15948014 -0.62008343
vn -0.19786820 0.01358548 -0.98013448
vn -0.19357330 -0.76315156 -0.61654609
vn 0.34983702 0.82430005 0.44513311
vn 0.24135207 0.78244580 -0.57404508
vn 0.73379078 -0.02476501 0.67892399
vn 0.11762064 0.04046866 0.99223368
vn -0.95783165 -0.08996852 0.27288129
vn -0.63076586 -0.12947314 -0.76509551
vn -0.73653424 -0.36130123 0.57182055
vn 0.23385211 0.09896177 0.96722270
vn -0.10354848 -0.00446821 0.99461437
vn -0.69586395 0.71781109 -0.02281645
vn -0.91252790 -0.33994510 0.22744267
vn -0.74032443 -0.47136193 -0.47930957
vn -0.60052621 -0.26958170 0.75279079
vn -0.33312828 -0.52852822 0.78082231
vn 0.02697311 0.04238553 0.99873716
vn -0.35996833 -0.05968927 0.93105316
vn -0.03008582 0.43070329 0.90199197
vn -0.79196269 -0.31795384 0.52124893
vn -0.67997056 -0.54808271 0.48707842
vn -0.27439420 -0.78727403 0.55218423
vn 0.61378835 -0.26188919 0.74476702
vn -0.39903586 -0.30853929 0.86346621
vn -0.34171513 -0.14777277 0.92811313
vn -0.47327152 0.04460344 0.87978668
vn 0.10507318 0.40205169 0.90956806
vn -0.70534719 -0.28465072 0.64919897
vn -0.86927675 -0.34391920 0.35507394
vn -0.80483355 -0.46355878 0.37061599
vn 0.07474491 -0.90096304 0.42740941
vn -0.52380989 -0.66774704 0.52890178
vn -0.55108450 -0.45620863 0.69869848
vn -0.15159478 -0.31027451 0.93848215
vn -0.19264215 -0.05618145 0.97965945
vn -0.59544675 -0.23067559 0.76956607
vn -0.58297733 0.32493566 0.74468399
vn 0.26017843 0.52321551 0.81151261
vn -0.16547821 -0.97316223 0.15991321
vn 0.19680497 -0.64061429 0.74221367
vn -0.50206264 -0.55131876 0.66631879
vn -0.26105645 -0.38077411 0.88705164
vn -0.15914152 -0.44317132 0.88219792
f 6//6 4//4 3//3
f 10//10 6//6 3//3
f 10//10 2//2 6//6
f 11//11 6//6 5//5
f 11//11 4//4 6//6
f 12//12 6//6 2//2
f 12//12 5//5 6//6
f 13//13 3//3 7//7
f 14//14 7//7 3//3
f 14//14 3//3 4//4
f 14//14 13//13 7//7
f 14//14 4//4 9//9
f 15//15 10//10 3//3
f 15//15 2//2 10//10
f 16//16 8//8 15//15
f 18//18 9//9 4//4
f 18//18 4//4 11//11
f 18//18 11//11 5//5
f 18//18 5//5 9//9
f 20//20 3//3 1//1
f 20//20 1//1 16//16
f 20//20 16//16 15//15
f 20//20 15//15 3//3
f 22//22 13//13 14//14
f 22//22 14//14 9//9
f 22//22 9//9 17//17
f 23//23 9//9 5//5
f 24//24 5//5 12//12
f 24//24 23//23 5//5
f 27//27 16//16 1//1
f 27//27 21//21 8//8
f 27//27 8//8 16//16
f 29//29 13//13 22//22
f 29//29 27//27 1//1
f 29//29 21//21 27//27
f 30//30 17//17 9//9
f 30//30 9//9 23//23
f 30//30 19//19 25//25
f 31//31 24//24 12//12
f 33//33 2//2 15//15
f 34//34 25//25 19//19
f 35//35 8//8 21//21
f 35//35 25//25 34//34
f 35//35 15//15 8//8
f 35//35 28//28 17//17
f 36//36 17//17 28//28
f 36//36 28//28 21//21
f 36//36 21//21 29//29
f 37//37 29//29 1//1
f 38//38 30//30 25//25
f 38//38 25//25 17//17
f 38//38 17//17 30//30
f 39//39 30//30 23//23
f 39//39 19//19 30//30
f 39//39 24//24 19//19
f 39//39 23//23 24//24
f 40//40 31//31 19//19
f 40//40 19//19 24//24
f 40//40 24//24 31//31
f 41//41 12//12 2//2
f 41//41 26//26 32//32
f 42//42 31//31 12//12
f 43//43 26//26 34//34
f 43//43 34//34 19//19
f 43//43 19//19 31//31
f 44//44 33//33 15//15
f 44//44 35//35 34//34
f 44//44 15//15 35//35
f 44//44 41//41 33//33
f 45//45 35//35 21//21
f 45//45 21//21 28//28
f 45//45 28//28 35//35
f 46//46 35//35 17//17
f 46//46 17//17 25//25
f 46//46 25//25 35//35
f 47//47 22//22 17//17
f 47//47 17//17 36//36
f 47//47 36//36 29//29
f 47//47 29//29 22//22
f 48//48 37//37 1//1
f 48//48 13//13 29//29
f 48//48 29//29 37//37
f 48//48 1//1 3//3
f 48//48 3//3 13//13
f 49//49 41//41 32//32
f 49//49 12//12 41//41
f 49//49 42//42 12//12
f 49//49 32//32 42//42
f 50//50 41//41 2//2
f 50//50 2//2 33//33
f 50//50 33//33 41//41
f 51//51 42//42 32//32
f 51//51 32//32 26//26
f 51//51 26//26 43//43
f 51//51 43//43 31//31
f 51//51 31//31 42//42
f 52//52 44//44 34//34
f 52//52 34//34 26//26
f 53//53 26//26 41//41
f 53//53 41//41 44//44
f 53//53 52//52 26//26
f 53//53 44//44 52//52

