# https://github.com/mikedh/trimesh
v -0.01714976 -0.03749363 0.01888884
v -0.00627532 -0.05115911 0.01922964
v -0.00618681 -0.05126943 -0.01926782
v -0.03666723 -0.03569122 -0.01957873
v -0.03110258 -0.04864565 0.01888884
v -0.01713922 -0.03750130 -0.01888899
v -0.03680497 -0.03574230 0.01945040
v -0.03087245 -0.04861937 -0.01909035
v -0.03790363 -0.03527559 -0.01817665
v -0.00724043 -0.04992186 0.01888884
v -0.03795154 -0.03528924 0.01798764
v -0.03259854 -0.04616086 -0.01888899
v -0.00725360 -0.04991226 -0.01888899
v -0.03487933 -0.04169046 0.01888884
v -0.03487264 -0.04171680 -0.01888899
v -0.03261556 -0.04607616 0.01886205
v -0.03718073 -0.03731441 -0.01798779
v -0.03717724 -0.03730612 0.01792728
vn 0.38426824 0.69724434 0.60513490
vn 0.73094426 -0.40164694 0.55172477
vn 0.73222611 -0.40356415 -0.54861726
vn -0.37064294 0.47001645 -0.80106701
vn -0.43048877 -0.67746761 0.59642020
vn 0.38744488 0.69948991 -0.60050007
vn -0.40414571 0.44989334 0.79640582
vn -0.40145093 -0.68341171 -0.60974223
vn -0.76576367 0.56257006 -0.31164231
vn 0.78356845 0.62088505 0.02285269
vn -0.77397673 0.56298699 0.28983730
vn -0.74992338 -0.43574860 -0.49773294
vn 0.78325637 0.62154700 -0.01374002
vn -0.75335342 -0.38579604 0.53255989
vn -0.76493014 -0.38560539 -0.51593639
vn -0.73212961 -0.40655085 0.54653696
vn -0.89804683 -0.38085399 -0.22014118
vn -0.89578753 -0.38545576 0.22133360
f 5//5 3//3 2//2
f 6//6 3//3 4//4
f 7//7 5//5 2//2
f 7//7 2//2 1//1
f 8//8 4//4 3//3
f 8//8 3//3 5//5
f 9//9 6//6 4//4
f 9//9 1//1 6//6
f 10//10 6//6 1//1
f 10//10 1//1 2//2
f 10//10 2//2 3//3
f 11//11 7//7 1//1
f 11//11 1//1 9//9
f 12//12 8//8 5//5
f 12//12 4//4 8//8
f 13//13 10//10 3//3
f 13//13 3//3 6//6
f 13//13 6//6 10//10
f 14//14 7//7 11//11
f 15//15 9//9 4//4
f 15//15 4//4 12//12
f 16//16 5//5 7//7
f 16//16 7//7 14//14
f 16//16 12//12 5//5
f 17//17 15//15 12//12
f 17//17 11//11 9//9
f 17//17 9//9 15//15
f 18//18 14//14 11//11
f 18//18 11//11 17//17
f 18//18 16//16 14//14
f 18//18 17//17 12//12
f 18//18 12//12 16//16

