# https://github.com/mikedh/trimesh
v 0.01079235 -0.06008331 0.01947139
v 0.01319251 -0.05975409 0.01806093
v -0.01215780 -0.04996535 0.01999994
v -0.01215780 -0.04996535 -0.02000006
v 0.01076620 -0.06023245 -0.01957873
v -0.00455198 -0.05213896 0.01888884
v 0.01267384 -0.05960592 -0.01800273
v -0.01215780 -0.05923183 0.01999994
v 0.01316763 -0.05988209 -0.01848416
v -0.00453225 -0.05215120 -0.01891650
v -0.01215780 -0.05923183 -0.02000006
f 5 2 1
f 6 4 3
f 6 1 2
f 6 3 1
f 8 5 1
f 8 1 3
f 8 3 4
f 9 5 4
f 9 7 2
f 9 2 5
f 10 6 2
f 10 2 7
f 10 4 6
f 10 9 4
f 10 7 9
f 11 8 4
f 11 4 5
f 11 5 8

