# https://github.com/mikedh/trimesh
v 0.01599114 0.07504254 0.01888884
v 0.01539416 0.06035183 0.01926774
v 0.01538228 0.06040241 -0.01931869
v -0.00637483 0.06820654 -0.01905125
v -0.00827052 0.04811619 0.01926774
v 0.01597290 0.07537817 -0.01820655
v -0.00639956 0.06835823 0.01888884
v -0.00844277 0.04835952 -0.01948359
v 0.01564162 0.07281539 -0.02000006
v 0.00481400 0.07272376 0.01888884
v 0.01577385 0.07430634 -0.01959547
v -0.00185599 0.07041056 0.01888884
v 0.00259180 0.07242198 0.01794587
v 0.00486444 0.07265281 -0.01901865
v 0.01372240 0.07471297 0.01888884
v 0.00262150 0.07242741 -0.01798779
v 0.01370965 0.07504625 -0.01810757
v -0.00187344 0.07032943 -0.01895734
vn 0.55268964 0.61439579 0.56307368
vn 0.66587984 -0.41812818 0.61787771
vn 0.67830304 -0.44460739 -0.58500364
vn -0.65835237 0.46693241 -0.59037808
vn -0.46347499 -0.68815845 0.55823730
vn 0.60472290 0.74877238 -0.27138559
vn -0.64750357 0.46761150 0.60172969
vn -0.47510839 -0.68233675 -0.55559749
vn 0.57242713 0.08272162 -0.81577222
vn -0.15040674 0.62572037 0.76540959
vn 0.55719564 0.43997796 -0.70423889
vn -0.29022454 0.65288733 0.69964837
vn -0.30906152 0.93252275 0.18676804
vn -0.18613004 0.67278125 -0.71604539
vn -0.12499015 0.70855034 0.69450262
vn -0.31761384 0.92577892 -0.20507276
vn -0.17702902 0.93706144 -0.30095943
vn -0.32203392 0.72227342 -0.61205821
f 1//1 2//2 3//3
f 5//5 3//3 2//2
f 6//6 1//1 3//3
f 7//7 5//5 2//2
f 8//8 3//3 5//5
f 8//8 7//7 4//4
f 8//8 5//5 7//7
f 9//9 8//8 4//4
f 9//9 3//3 8//8
f 11//11 6//6 3//3
f 11//11 3//3 9//9
f 12//12 7//7 2//2
f 12//12 2//2 10//10
f 13//13 12//12 10//10
f 13//13 7//7 12//12
f 14//14 11//11 9//9
f 15//15 13//13 10//10
f 15//15 1//1 6//6
f 15//15 10//10 2//2
f 15//15 2//2 1//1
f 16//16 7//7 13//13
f 17//17 6//6 11//11
f 17//17 11//11 14//14
f 17//17 14//14 16//16
f 17//17 16//16 13//13
f 17//17 15//15 6//6
f 17//17 13//13 15//15
f 18//18 4//4 7//7
f 18//18 7//7 16//16
f 18//18 16//16 14//14
f 18//18 14//14 9//9
f 18//18 9//9 4//4

