# https://github.com/mikedh/trimesh
v 0.06825886 0.06748332 0.01912684
v 0.06895186 0.06772232 0.01815224
v 0.03805260 0.07566199 0.01845664
v 0.03809630 0.07473515 -0.01957873
v 0.06165286 0.05317732 -0.01845473
v 0.05677440 0.07225918 -0.01845677
v 0.05677982 0.07227899 0.01838917
v 0.06168336 0.05308969 0.01828703
v 0.04234915 0.07538891 -0.01763346
v 0.06807586 0.06742032 -0.01926259
v 0.06396874 0.06948978 0.01896715
v 0.06526678 0.06928725 0.01834284
v 0.06882120 0.06756422 0.01828377
v 0.03839229 0.06078211 0.01926642
v 0.04667779 0.07404862 -0.01926782
v 0.03805006 0.07563037 -0.01851605
v 0.05102192 0.07372190 -0.01845677
v 0.05102538 0.07373897 0.01839901
v 0.05927804 0.05478439 -0.01926782
v 0.06525244 0.06925591 -0.01845630
v 0.06884533 0.06768608 -0.01837125
v 0.03810229 0.07481012 0.01951702
v 0.06689986 0.06815080 0.01904512
v 0.06178116 0.05417601 0.01902469
v 0.04140300 0.05973851 -0.01845677
v 0.05389570 0.07248508 -0.01926782
v 0.03839247 0.06078317 -0.01926782
v 0.04088211 0.07541012 -0.01845677
v 0.04232751 0.07522839 0.01840730
v 0.05533023 0.07235552 0.01895869
v 0.06169443 0.05421608 -0.01914355
v 0.06825205 0.06791875 -0.01845469
v 0.06827888 0.06795908 0.01831084
v 0.05794308 0.05510852 0.01900615
v 0.06751869 0.06601669 0.01914138
v 0.04140027 0.05972196 0.01840152
v 0.06682426 0.06800153 -0.01923248
v 0.04812321 0.07392642 0.01906439
v 0.06876557 0.06759269 -0.01845439
v 0.06090585 0.05350933 0.01844519
vn 0.54968819 0.20206226 0.81056384
vn 0.90643036 0.33714635 0.25439408
vn -0.61279048 0.74374430 0.26708097
vn -0.59789680 0.33657559 -0.72748628
vn 0.34304191 -0.85819009 -0.38187960
vn 0.28420528 0.89352112 -0.34763109
vn 0.28490937 0.91724685 0.27836105
vn 0.33568514 -0.86168243 0.38055076
vn 0.13505354 0.98465343 -0.11053581
vn 0.50323540 0.18693759 -0.84368742
vn 0.22721799 0.63264506 0.74035952
vn 0.36596503 0.89998749 0.23683774
vn 0.82777581 -0.34312143 0.44390865
vn -0.64551096 -0.47681707 0.59662475
vn 0.11145020 0.62919525 -0.76921531
vn -0.62113386 0.73235052 -0.27902589
vn 0.20441692 0.93020912 -0.30483555
vn 0.20453090 0.93533218 0.28865347
vn -0.08233289 -0.35140710 -0.93259549
vn 0.33711500 0.87983342 -0.33503230
vn 0.89750252 0.33657921 -0.28496257
vn -0.59044637 0.34949211 0.72748083
vn 0.32754024 0.74480927 0.58135750
vn 0.34336317 -0.38045425 0.85869453
vn -0.31388905 -0.94870707 -0.03779626
vn 0.13835405 0.51404843 -0.84652960
vn -0.64834710 -0.47981544 -0.59112028
vn 0.09279115 0.90984663 -0.40443653
vn 0.12347760 0.93297717 0.33809301
vn 0.15956127 0.58789767 0.79304258
vn 0.34270628 -0.36986006 -0.86357162
vn 0.37280813 0.81394457 -0.44554274
vn 0.37996869 0.82822190 0.41191296
vn -0.12339903 -0.46718162 0.87550786
vn 0.36493231 -0.17991682 0.91348473
vn -0.31663067 -0.94774088 0.03914389
vn 0.22234671 0.53342645 -0.81609936
vn 0.12122837 0.62416429 0.77183069
vn 0.81159546 -0.27609513 -0.51486336
vn -0.14902371 -0.57275175 0.80606908
f 8//8 5//5 2//2
f 12//12 6//6 7//7
f 12//12 7//7 11//11
f 13//13 8//8 2//2
f 13//13 2//2 1//1
f 16//16 3//3 9//9
f 16//16 14//14 3//3
f 17//17 7//7 6//6
f 18//18 17//17 9//9
f 18//18 7//7 17//17
f 19//19 4//4 10//10
f 20//20 12//12 2//2
f 20//20 6//6 12//12
f 21//21 2//2 5//5
f 21//21 20//20 2//2
f 22//22 3//3 14//14
f 23//23 12//12 11//11
f 23//23 11//11 1//1
f 24//24 13//13 1//1
f 24//24 8//8 13//13
f 24//24 22//22 14//14
f 25//25 5//5 8//8
f 26//26 10//10 4//4
f 26//26 4//4 15//15
f 26//26 17//17 6//6
f 26//26 15//15 17//17
f 27//27 16//16 4//4
f 27//27 14//14 16//16
f 27//27 4//4 19//19
f 27//27 19//19 5//5
f 27//27 5//5 25//25
f 28//28 15//15 4//4
f 28//28 4//4 16//16
f 28//28 16//16 9//9
f 28//28 17//17 15//15
f 28//28 9//9 17//17
f 29//29 18//18 9//9
f 29//29 9//9 3//3
f 29//29 3//3 22//22
f 30//30 11//11 7//7
f 30//30 7//7 18//18
f 30//30 22//22 1//1
f 30//30 1//1 11//11
f 31//31 19//19 10//10
f 31//31 5//5 19//19
f 32//32 21//21 10//10
f 32//32 20//20 21//21
f 33//33 23//23 1//1
f 33//33 1//1 2//2
f 33//33 2//2 12//12
f 33//33 12//12 23//23
f 34//34 24//24 14//14
f 35//35 24//24 1//1
f 35//35 1//1 22//22
f 35//35 22//22 24//24
f 36//36 25//25 8//8
f 36//36 8//8 14//14
f 36//36 27//27 25//25
f 36//36 14//14 27//27
f 37//37 10//10 26//26
f 37//37 32//32 10//10
f 37//37 20//20 32//32
f 37//37 26//26 6//6
f 37//37 6//6 20//20
f 38//38 29//29 22//22
f 38//38 18//18 29//29
f 38//38 30//30 18//18
f 38//38 22//22 30//30
f 39//39 21//21 5//5
f 39//39 5//5 31//31
f 39//39 31//31 10//10
f 39//39 10//10 21//21
f 40//40 34//34 14//14
f 40//40 14//14 8//8
f 40//40 8//8 24//24
f 40//40 24//24 34//34

