# https://github.com/mikedh/trimesh
v -0.00710688 0.06738751 0.01944763
v -0.00921341 0.04678939 0.01888884
v -0.00705401 0.06724404 -0.01957873
v -0.02419714 0.05484363 -0.01905902
v -0.04060442 0.02150378 0.01914009
v -0.01486836 0.06327891 -0.01888899
v -0.00657305 0.06868858 0.01798764
v -0.02295320 0.02223074 0.01925160
v -0.00747229 0.06576133 -0.01997534
v -0.00657332 0.06860266 -0.01819642
v -0.01503444 0.06322061 0.01884362
v -0.02296159 0.02224353 -0.01926782
v -0.01073367 0.06591640 -0.01895964
v -0.00845258 0.06773088 -0.01798779
v -0.00938307 0.04677065 -0.01906089
v -0.03031881 0.04790494 0.01791144
v -0.02829569 0.05012012 0.01888884
v -0.01083806 0.06595612 0.01888884
v -0.04050519 0.02150100 -0.01926782
v -0.03259915 0.04353695 0.01888324
v -0.00839115 0.06774018 0.01792145
v -0.03724014 0.03474909 -0.01798779
v -0.03955758 0.02806147 -0.01798779
v -0.03955934 0.02804062 0.01794479
v -0.03489520 0.03914080 -0.01888899
v -0.03700601 0.03446425 0.01881990
v -0.03261155 0.04347634 -0.01888899
v -0.03970922 0.02578611 -0.01898271
v -0.03979644 0.02579055 0.01888884
v -0.03034255 0.04785264 -0.01798779
v -0.02834377 0.05009601 -0.01888899
f 7 1 2
f 8 2 1
f 8 1 5
f 9 6 3
f 9 4 6
f 10 7 2
f 11 6 4
f 12 2 8
f 13 10 3
f 13 3 6
f 14 7 10
f 14 6 11
f 14 13 6
f 14 10 13
f 15 9 3
f 15 3 10
f 15 10 2
f 15 12 9
f 15 2 12
f 17 1 11
f 17 11 4
f 17 4 16
f 18 11 1
f 18 1 7
f 19 12 8
f 19 8 5
f 19 9 12
f 20 5 1
f 20 1 17
f 20 17 16
f 21 14 11
f 21 11 18
f 21 18 7
f 21 7 14
f 22 20 16
f 23 19 5
f 24 23 5
f 24 22 23
f 26 5 20
f 26 20 22
f 26 22 24
f 27 19 25
f 27 4 9
f 27 9 19
f 28 23 22
f 28 22 25
f 28 25 19
f 28 19 23
f 29 26 24
f 29 24 5
f 29 5 26
f 30 16 4
f 30 22 16
f 30 27 25
f 30 25 22
f 31 30 4
f 31 4 27
f 31 27 30

