# https://github.com/mikedh/trimesh
v -0.01215780 -0.04996535 0.01999994
v -0.01146776 -0.06720386 0.01926774
v -0.01215780 -0.04996535 -0.02000006
v -0.02976974 -0.04938478 -0.01957873
v -0.03140984 -0.04885826 0.01798764
v -0.01139595 -0.06716177 -0.01928668
v -0.02993811 -0.04944385 0.01942559
v -0.03126869 -0.04886940 -0.01821617
v -0.01507560 -0.06579906 -0.00031158
v -0.01722810 -0.06371163 0.01888325
v -0.01726931 -0.06368249 -0.01888899
v -0.02832290 -0.05265103 0.01888884
v -0.01319133 -0.06647949 0.01888884
v -0.02820149 -0.05273868 -0.01888899
v -0.01502901 -0.06578984 -0.01798779
v -0.03028246 -0.05056436 -0.01798779
v -0.01322651 -0.06630906 -0.01909359
v -0.03033191 -0.05042787 0.01790523
f 5 1 3
f 6 4 3
f 6 1 2
f 6 3 1
f 7 2 1
f 7 1 5
f 8 5 3
f 8 3 4
f 10 2 7
f 11 4 6
f 11 9 10
f 12 10 7
f 12 7 5
f 12 11 10
f 13 10 9
f 13 9 2
f 13 2 10
f 14 8 4
f 14 4 11
f 14 11 12
f 15 9 11
f 15 6 2
f 15 2 9
f 16 14 12
f 16 5 8
f 16 8 14
f 17 15 11
f 17 11 6
f 17 6 15
f 18 16 12
f 18 12 5
f 18 5 16

