# https://github.com/mikedh/trimesh
v 0.03810229 0.07481012 0.01951702
v 0.03839229 0.06078211 0.01926642
v 0.03809630 0.07473515 -0.01957873
v 0.01481687 0.07444607 -0.01936690
v 0.01442065 0.06024565 0.01934568
v 0.02791442 0.07555039 -0.01926782
v 0.03839247 0.06078317 -0.01926782
v 0.01478478 0.07455333 0.01926774
v 0.03805006 0.07563037 -0.01851605
v 0.01437405 0.06039346 -0.01946495
v 0.01637495 0.07536573 -0.01845677
v 0.03805260 0.07566199 0.01845664
v 0.02930095 0.07552849 -0.01926782
v 0.02064552 0.07537837 0.01907492
v 0.01635478 0.07533319 0.01844100
v 0.03656047 0.07538869 0.01908441
vn 0.63360354 0.31477472 0.70672726
vn 0.59150136 -0.56954321 0.57074222
vn 0.62807438 0.32166227 -0.70855906
vn -0.64652329 0.44310488 -0.62101989
vn -0.58000028 -0.57779835 0.57423754
vn -0.01554595 0.78363866 -0.62102236
vn 0.59190074 -0.57180818 -0.56805715
vn -0.64536422 0.45689177 0.61217231
vn 0.62530642 0.73999829 -0.24777897
vn -0.58288328 -0.57243781 -0.57668192
vn -0.21465378 0.93408102 -0.28533559
vn 0.63148797 0.74368625 0.21943950
vn 0.01282772 0.75292226 -0.65798443
vn -0.02058879 0.80247463 0.59633093
vn -0.19946555 0.94883747 0.24478755
vn 0.01553482 0.78388839 0.62070738
f 5//5 2//2 1//1
f 6//6 3//3 4//4
f 7//7 1//1 2//2
f 7//7 3//3 1//1
f 7//7 2//2 5//5
f 8//8 5//5 1//1
f 9//9 1//1 3//3
f 10//10 7//7 5//5
f 10//10 4//4 3//3
f 10//10 3//3 7//7
f 10//10 8//8 4//4
f 10//10 5//5 8//8
f 11//11 6//6 4//4
f 11//11 4//4 8//8
f 12//12 9//9 6//6
f 12//12 1//1 9//9
f 13//13 9//9 3//3
f 13//13 3//3 6//6
f 13//13 6//6 9//9
f 14//14 8//8 1//1
f 15//15 12//12 6//6
f 15//15 6//6 11//11
f 15//15 14//14 12//12
f 15//15 11//11 8//8
f 15//15 8//8 14//14
f 16//16 14//14 1//1
f 16//16 1//1 12//12
f 16//16 12//12 14//14

