# https://github.com/mikedh/trimesh
v -0.05183377 0.04043750 0.02301888
v -0.05008970 -0.06324679 0.02260707
v -0.05007692 -0.00220875 0.00114922
v -0.07679506 -0.00207878 0.00108019
v -0.07730002 -0.00379665 0.01976998
v -0.05007692 -0.06325216 0.00114922
v -0.07389571 0.04008602 0.02099556
v -0.05008117 -0.00219776 0.02261521
v -0.07318090 -0.06316448 0.00123814
v -0.07855719 0.02017395 0.01539144
v -0.06552461 -0.04902534 0.02348421
v -0.07649411 -0.03664209 0.01303017
v -0.06739415 -0.06332353 0.02201027
v -0.06956655 0.00357014 0.02312473
v -0.05444609 0.00968384 0.02315308
v -0.07231193 -0.06304134 0.01811712
v -0.07009753 0.04050791 0.02276484
v -0.06785923 0.04059202 0.02341910
v -0.07449089 -0.05272219 0.01537718
v -0.07084558 -0.06275550 0.01963357
v -0.05212997 0.04052718 0.02303066
v -0.06048286 0.04041917 0.02339022
v -0.07425343 -0.05304858 0.01632993
vn 0.63251405 0.74795146 0.20123268
vn 0.57858993 -0.58367639 0.56969778
vn 0.66550620 0.17503145 -0.72557942
vn -0.63604504 0.14533041 -0.75784284
vn -0.80896962 -0.03085581 0.58704009
vn 0.57639322 -0.57745808 -0.57819807
vn -0.65944630 0.75174924 0.00191084
vn 0.78511275 0.01318395 0.61921252
vn -0.54883825 -0.60340263 -0.57851694
vn -0.97639412 0.20572810 -0.06580625
vn -0.19002405 -0.03426864 0.98118119
vn -0.99552428 -0.07251913 0.06060022
vn -0.24780646 -0.68174348 0.68834424
vn -0.26375563 -0.00334994 0.96458372
vn 0.05815621 -0.00176841 0.99830593
vn -0.67562937 -0.66171053 0.32506020
vn -0.27955199 0.76705791 0.57747109
vn -0.10654443 0.72363783 0.68190657
vn -0.98538661 -0.13130398 0.10850113
vn -0.61019503 -0.31877714 0.72528833
vn 0.23868278 0.94467054 0.22500689
vn 0.02359713 0.39408197 0.91877232
vn -0.93848471 -0.11104758 0.32697842
f 6//6 4//4 3//3
f 7//7 3//3 4//4
f 8//8 1//1 2//2
f 8//8 3//3 1//1
f 8//8 6//6 3//3
f 8//8 2//2 6//6
f 9//9 4//4 6//6
f 10//10 7//7 4//4
f 10//10 5//5 7//7
f 12//12 4//4 9//9
f 12//12 10//10 4//4
f 12//12 5//5 10//10
f 13//13 9//9 6//6
f 13//13 6//6 2//2
f 13//13 2//2 11//11
f 13//13 11//11 5//5
f 14//14 5//5 11//11
f 15//15 11//11 2//2
f 15//15 2//2 1//1
f 16//16 9//9 13//13
f 17//17 7//7 5//5
f 17//17 5//5 14//14
f 18//18 14//14 11//11
f 18//18 17//17 14//14
f 19//19 12//12 9//9
f 19//19 9//9 16//16
f 20//20 16//16 13//13
f 20//20 13//13 5//5
f 20//20 5//5 16//16
f 21//21 7//7 17//17
f 21//21 1//1 3//3
f 21//21 3//3 7//7
f 21//21 17//17 18//18
f 22//22 18//18 11//11
f 22//22 11//11 15//15
f 22//22 21//21 18//18
f 22//22 15//15 1//1
f 22//22 1//1 21//21
f 23//23 19//19 16//16
f 23//23 16//16 5//5
f 23//23 5//5 12//12
f 23//23 12//12 19//19

