# https://github.com/mikedh/trimesh
v -0.03456109 -0.06559550 0.02112437
v -0.02804348 -0.07492014 0.01279914
v -0.03158233 -0.06313184 -0.02004196
v -0.06392257 -0.06314724 -0.02352675
v -0.06684924 -0.08624982 0.01858690
v -0.07084558 -0.06275550 0.01963357
v -0.02800299 -0.06554482 0.00895378
v -0.03417743 -0.08121752 0.01966645
v -0.06417762 -0.08225774 -0.02103642
v -0.03313674 -0.06331181 0.02004070
v -0.07043308 -0.06285582 -0.02032614
v -0.06045397 -0.06332562 0.02270316
v -0.02760871 -0.07696892 -0.01525181
v -0.03810929 -0.07723599 -0.02289876
v -0.03616844 -0.08530743 -0.00456859
v -0.03024768 -0.06343441 0.01624278
v -0.03000851 -0.07687890 0.01810028
v -0.06400422 -0.07517276 -0.02297472
v -0.06999279 -0.08269553 -0.01288244
v -0.06539028 -0.08095381 0.02150483
v -0.02921436 -0.06330059 -0.01634880
v -0.04043114 -0.06365266 -0.02306293
v -0.03307192 -0.07766267 -0.02104256
v -0.03999192 -0.08542340 0.00883487
v -0.06421141 -0.08534357 -0.00671804
v -0.02824444 -0.06761924 0.01263349
v -0.03144917 -0.06789296 0.01933089
v -0.03029132 -0.08059471 0.01689822
v -0.03477164 -0.07685788 0.02144549
v -0.06982552 -0.06306123 -0.02156619
v -0.04594570 -0.07860941 -0.02281197
v -0.04197661 -0.07835214 -0.02288990
v -0.07219472 -0.07316678 0.01336387
v -0.06739415 -0.06332353 0.02201027
v -0.06997275 -0.08107978 0.01864685
v -0.02794242 -0.07183323 -0.01623390
v -0.03602307 -0.07292819 -0.02308282
v -0.03259126 -0.06326637 -0.02131650
v -0.02974569 -0.08059429 -0.01643164
v -0.03469410 -0.08332814 0.01617680
v -0.04025032 -0.08522131 -0.00861829
v -0.06939852 -0.08327985 -0.01447358
v -0.03012482 -0.07350152 0.01812127
v -0.02806401 -0.07675528 0.01090390
v -0.03162526 -0.07832063 0.01927991
v -0.03641147 -0.07881085 0.02097437
v -0.06863203 -0.07969993 -0.01944651
v -0.06218649 -0.07690873 -0.02286792
v -0.03640958 -0.07953231 -0.02143514
v -0.07249158 -0.06309218 -0.01279717
v -0.06840827 -0.08425933 0.01907118
v -0.07249411 -0.06670620 0.01715282
v -0.07011470 -0.08211387 0.01518358
v -0.06712462 -0.07886721 0.02114461
v -0.02809355 -0.06766906 -0.01278182
v -0.03641185 -0.06776034 -0.02284972
v -0.03010650 -0.07895479 -0.01748577
v -0.02943022 -0.08128678 -0.00916763
v -0.03689361 -0.08515556 0.00289298
v -0.03338561 -0.08317413 0.01476865
v -0.06600057 -0.08552236 -0.00301482
v -0.06536517 -0.08328488 -0.01801186
v -0.03433698 -0.08333058 -0.01484445
v -0.06694755 -0.07878388 -0.02074595
vn 0.26967952 0.15695097 0.95007334
vn 0.97869660 -0.05892414 0.19667462
vn 0.55000904 0.72284839 -0.41830642
vn -0.11131415 0.62848210 -0.76981778
vn -0.33412851 -0.83317486 0.44065609
vn -0.60114540 0.65410205 0.45910208
vn 0.92999220 0.36366282 0.05351503
vn 0.31056329 -0.61405160 0.72559705
vn -0.21331662 -0.66926756 -0.71174219
vn 0.38637626 0.70358116 0.59639495
vn -0.69875267 0.65279596 -0.29257844
vn -0.01065861 0.62005061 0.78448941
vn 0.93231253 -0.19066360 -0.30731211
vn 0.15034877 -0.24713954 -0.95724464
vn 0.27574037 -0.96058067 -0.03538392
vn 0.64484746 0.70703886 0.29028916
vn 0.81683667 -0.09292088 0.56933608
vn -0.24836368 -0.12638981 -0.96038591
vn -0.90765416 -0.40778471 -0.09937583
vn -0.15915577 -0.27204898 0.94903045
vn 0.69021149 0.68887420 -0.22149591
vn 0.06519363 0.57590782 -0.81491102
vn 0.52824208 -0.29937893 -0.79456439
vn 0.12712802 -0.98775225 0.09046520
vn -0.07490988 -0.98996328 -0.11983825
vn 0.96445116 0.11378900 0.23850792
vn 0.71191690 0.07773378 0.69794827
vn 0.75170367 -0.54503267 0.37132328
vn 0.28841485 -0.13222451 0.94833198
vn -0.55444289 0.51425224 -0.65432233
vn 0.00072156 -0.32267629 -0.94650911
vn 0.03786380 -0.37230046 -0.92733958
vn -0.98841787 -0.13963856 0.05942383
vn -0.26830511 0.52583644 0.80716070
vn -0.84351126 -0.23365475 0.48362611
vn 0.91657920 0.02597217 -0.39900879
vn 0.27487818 -0.04605825 -0.96037525
vn 0.41364552 0.61614935 -0.67026664
vn 0.65634323 -0.62856179 -0.41728124
vn 0.25655252 -0.90837853 0.33019577
vn 0.04609129 -0.98764975 -0.14974501
vn -0.65309884 -0.70516645 -0.27604745
vn 0.84467085 0.03754923 0.53396743
vn 0.96733157 -0.24387419 0.06924609
vn 0.59107505 -0.21850684 0.77645672
vn 0.07529616 -0.35299658 0.93258989
vn -0.75145010 -0.31925398 -0.57740770
vn -0.07063666 -0.19991544 -0.97726367
vn 0.22231586 -0.63953027 -0.73591895
vn -0.80352822 0.58538256 -0.10802619
vn -0.67363041 -0.49951964 0.54470378
vn -0.95439609 0.07143018 0.28987208
vn -0.90989259 -0.41170152 0.05096397
vn -0.45741064 -0.10342615 0.88322055
vn 0.98880798 0.14018882 -0.05104772
vn 0.20541066 0.08186175 -0.97524618
vn 0.71666359 -0.22784648 -0.65915043
vn 0.74274424 -0.66895315 -0.02885620
vn 0.25154679 -0.96657515 0.04956499
vn 0.44460546 -0.88367329 0.14644968
vn -0.21842947 -0.97429197 -0.05516988
vn -0.17650004 -0.93128284 -0.31868482
vn 0.26459889 -0.91130225 -0.31546099
vn -0.47749368 -0.21418093 -0.85213046
f 10//10 3//3 6//6
f 11//11 6//6 3//3
f 11//11 3//3 4//4
f 12//12 10//10 6//6
f 12//12 1//1 10//10
f 13//13 7//7 2//2
f 16//16 3//3 10//10
f 20//20 5//5 8//8
f 21//21 16//16 7//7
f 21//21 3//3 16//16
f 24//24 5//5 15//15
f 26//26 2//2 7//7
f 26//26 7//7 16//16
f 27//27 16//16 10//10
f 27//27 10//10 1//1
f 28//28 2//2 17//17
f 29//29 1//1 12//12
f 29//29 12//12 20//20
f 29//29 27//27 1//1
f 30//30 11//11 4//4
f 30//30 4//4 18//18
f 32//32 18//18 4//4
f 32//32 9//9 31//31
f 34//34 20//20 12//12
f 34//34 12//12 6//6
f 36//36 3//3 21//21
f 36//36 13//13 23//23
f 37//37 4//4 22//22
f 37//37 32//32 4//4
f 37//37 14//14 32//32
f 37//37 23//23 14//14
f 38//38 22//22 4//4
f 38//38 4//4 3//3
f 38//38 23//23 37//37
f 38//38 36//36 23//23
f 38//38 3//3 36//36
f 40//40 8//8 5//5
f 40//40 5//5 24//24
f 40//40 28//28 8//8
f 41//41 15//15 5//5
f 42//42 5//5 19//19
f 43//43 17//17 2//2
f 43//43 2//2 26//26
f 43//43 26//26 16//16
f 43//43 27//27 17//17
f 43//43 16//16 27//27
f 44//44 13//13 2//2
f 44//44 2//2 28//28
f 45//45 28//28 17//17
f 45//45 8//8 28//28
f 45//45 29//29 8//8
f 45//45 17//17 27//27
f 45//45 27//27 29//29
f 46//46 29//29 20//20
f 46//46 20//20 8//8
f 46//46 8//8 29//29
f 47//47 9//9 42//42
f 47//47 11//11 30//30
f 47//47 42//42 19//19
f 48//48 31//31 9//9
f 48//48 9//9 18//18
f 48//48 32//32 31//31
f 48//48 18//18 32//32
f 49//49 32//32 14//14
f 49//49 14//14 23//23
f 49//49 23//23 39//39
f 49//49 9//9 32//32
f 50//50 6//6 11//11
f 50//50 19//19 33//33
f 50//50 47//47 19//19
f 50//50 11//11 47//47
f 51//51 5//5 20//20
f 51//51 19//19 5//5
f 52//52 35//35 6//6
f 52//52 33//33 35//35
f 52//52 50//50 33//33
f 52//52 6//6 50//50
f 53//53 35//35 33//33
f 53//53 33//33 19//19
f 53//53 51//51 35//35
f 53//53 19//19 51//51
f 54//54 34//34 6//6
f 54//54 6//6 35//35
f 54//54 20//20 34//34
f 54//54 51//51 20//20
f 54//54 35//35 51//51
f 55//55 36//36 21//21
f 55//55 21//21 7//7
f 55//55 7//7 13//13
f 55//55 13//13 36//36
f 56//56 38//38 37//37
f 56//56 37//37 22//22
f 56//56 22//22 38//38
f 57//57 39//39 23//23
f 57//57 23//23 13//13
f 57//57 13//13 39//39
f 58//58 39//39 13//13
f 58//58 44//44 28//28
f 58//58 13//13 44//44
f 59//59 24//24 15//15
f 60//60 28//28 40//40
f 60//60 58//58 28//28
f 60//60 15//15 58//58
f 60//60 59//59 15//15
f 60//60 40//40 24//24
f 60//60 24//24 59//59
f 61//61 41//41 5//5
f 61//61 25//25 41//41
f 61//61 42//42 25//25
f 61//61 5//5 42//42
f 62//62 41//41 25//25
f 62//62 42//42 9//9
f 62//62 25//25 42//42
f 63//63 15//15 41//41
f 63//63 58//58 15//15
f 63//63 39//39 58//58
f 63//63 49//49 39//39
f 63//63 9//9 49//49
f 63//63 62//62 9//9
f 63//63 41//41 62//62
f 64//64 47//47 30//30
f 64//64 30//30 18//18
f 64//64 18//18 9//9
f 64//64 9//9 47//47

