# https://github.com/mikedh/trimesh
v 0.12047048 0.02003175 0.02320791
v 0.12722107 -0.01060710 0.01916147
v 0.12470038 0.02551842 -0.01977182
v 0.05356724 0.01902566 -0.02082866
v 0.05357201 -0.00827541 0.02351508
v 0.12021575 -0.01179363 -0.01884671
v 0.06184856 0.02608718 0.01284606
v 0.12682166 0.02003753 0.00920214
v 0.11670663 -0.00760314 0.02327855
v 0.12888005 -0.00812001 -0.01067272
v 0.11349435 -0.00359930 -0.02317771
v 0.05378649 -0.01447600 -0.02128099
v 0.12220947 0.02804218 0.01319838
v 0.05999781 0.02601177 -0.01074795
v 0.05376628 0.02024097 0.02157399
v 0.12475018 0.02269426 0.02011475
v 0.06351806 -0.01605481 0.02017323
v 0.12555453 -0.00894324 0.02168415
v 0.05362098 0.01194353 0.02353345
v 0.12540833 -0.00954998 -0.01897405
v 0.12887215 -0.00244930 0.00924191
v 0.12856703 0.01360921 -0.01070083
v 0.12266207 0.02370916 -0.02087404
v 0.05342112 -0.01828233 -0.01425025
v 0.09847023 -0.00829040 -0.02324050
v 0.12477813 0.02636286 0.01500954
v 0.05800575 0.02370785 -0.01817936
v 0.11509814 0.02797473 -0.01434886
v 0.11674673 0.02594477 0.02008211
v 0.05396076 0.02447129 0.01478214
v 0.05770761 -0.01491074 0.02125219
v 0.12041023 -0.00609147 0.02313650
v 0.12537170 0.00366169 0.02113564
v 0.12297977 -0.01420768 0.01835784
v 0.05790129 0.01587342 0.02338626
v 0.05345801 0.02272673 -0.01898857
v 0.12658797 0.01825742 -0.02007636
v 0.12030937 -0.00914717 -0.02060202
v 0.12872625 -0.00623153 0.00722957
v 0.12658259 0.01186205 0.01675743
v 0.12670747 0.02394151 -0.00548285
v 0.12864688 0.01158942 -0.01274729
v 0.12860461 0.01375318 -0.00727869
v 0.10258798 -0.00030431 -0.02311432
v 0.06585336 -0.01603272 -0.01829757
v 0.08607089 -0.01303524 -0.02080381
v 0.09654746 -0.00633503 -0.02318634
v 0.12583964 0.02592922 -0.01683066
v 0.12472127 0.02462657 0.01799032
v 0.07420027 0.02584657 -0.01451714
v 0.11305853 0.02586777 -0.01999202
v 0.10648640 0.02810392 -0.00877763
v 0.11070510 0.02813953 0.01282859
v 0.11854891 0.02424484 0.02149380
v 0.12335259 0.02594302 0.01794994
v 0.05607766 0.02605962 0.00714705
v 0.05409693 0.02220468 0.01953876
v 0.12365939 -0.01105789 0.02150685
v 0.07387932 -0.00972840 0.02315029
v 0.05348534 -0.01854527 0.01299214
v 0.12668925 -0.00078107 0.02012074
v 0.12010073 -0.01613608 -0.00899281
v 0.06589078 0.01776194 0.02309086
v 0.05402694 0.02376202 -0.01644421
vn 0.25460147 0.20500175 0.94506739
vn 0.82792160 -0.43949974 0.34840466
vn 0.46789022 0.62678754 -0.62306992
vn -0.65601758 0.16992205 -0.73536891
vn -0.67286551 -0.17541317 0.71866698
vn 0.19107750 -0.76722128 -0.61225885
vn -0.07114005 0.96641169 0.24695655
vn 0.98162749 0.16672027 0.09279990
vn 0.03537155 -0.21158707 0.97671888
vn 0.91371972 -0.37875642 -0.14717288
vn 0.13249350 -0.10189946 -0.98593203
vn -0.59139672 -0.41263066 -0.69281011
vn 0.25479067 0.95743601 0.13563925
vn -0.14026145 0.98159394 -0.12961507
vn -0.67138647 0.40104053 0.62322284
vn 0.72940491 0.33652619 0.59558257
vn 0.01736368 -0.82228987 0.56880390
vn 0.53995867 -0.19369384 0.81910154
vn -0.69707184 0.05461438 0.71491826
vn 0.63252710 -0.44704094 -0.63250602
vn 0.99548917 0.00878914 0.09446728
vn 0.99044231 0.12864174 -0.04975281
vn 0.14645889 0.24590695 -0.95816469
vn -0.65061260 -0.73462014 -0.19244868
vn 0.02968646 -0.29943439 -0.95365495
vn 0.75348382 0.62865503 0.19249671
vn -0.07537866 0.88387476 -0.46160965
vn 0.04741876 0.98296633 -0.17756312
vn 0.03038321 0.82267771 0.56769556
vn -0.69480591 0.68534226 0.21806131
vn -0.23743839 -0.64065787 0.73019210
vn 0.15125763 -0.08420995 0.98490092
vn 0.62671832 0.05281686 0.77745387
vn 0.32869586 -0.88224769 0.33704308
vn -0.06058232 0.19287655 0.97935102
vn -0.67005121 0.54359624 -0.50550420
vn 0.73235307 0.08074182 -0.67612110
vn 0.20810675 -0.34049990 -0.91692497
vn 0.98941669 -0.13933317 0.04050776
vn 0.97636543 0.08667170 0.19798629
vn 0.94143893 0.33689742 0.01388777
vn 0.98868610 0.04137433 -0.14418032
vn 0.99417570 0.10685775 0.01400336
vn -0.00509067 0.05760472 -0.99832649
vn 0.04735184 -0.87808976 -0.47614721
vn 0.05127067 -0.70790682 -0.70444251
vn -0.03052250 0.01403481 -0.99943554
vn 0.69602370 0.69394627 -0.18436265
vn 0.82409812 0.44653117 0.34852862
vn -0.05001222 0.95760318 -0.28371626
vn -0.01811626 0.69831446 -0.71556182
vn -0.02460757 0.99905950 -0.03570118
vn -0.02064333 0.98744522 0.15660710
vn 0.13138779 0.56592451 0.81392057
vn 0.37337189 0.77907219 0.50362680
vn -0.35158972 0.93595881 0.01912530
vn -0.52944509 0.70641071 0.46975718
vn 0.25369499 -0.52717480 0.81100282
vn 0.00983279 -0.28167302 0.95946007
vn -0.66131415 -0.72938753 0.17509262
vn 0.87967769 0.04556632 0.47338237
vn 0.33559754 -0.93045331 -0.14707458
vn -0.01989266 0.31503697 0.94887090
vn -0.53411738 0.83000343 -0.16066401
f 19//19 9//9 1//1
f 19//19 5//5 9//9
f 24//24 4//4 12//12
f 32//32 18//18 1//1
f 32//32 1//1 9//9
f 33//33 16//16 1//1
f 33//33 1//1 18//18
f 35//35 19//19 1//1
f 35//35 15//15 19//19
f 36//36 19//19 15//15
f 36//36 4//4 24//24
f 36//36 15//15 30//30
f 37//37 10//10 20//20
f 37//37 23//23 3//3
f 37//37 20//20 11//11
f 37//37 11//11 23//23
f 38//38 20//20 6//6
f 38//38 11//11 20//20
f 38//38 25//25 11//11
f 38//38 6//6 25//25
f 39//39 21//21 2//2
f 39//39 2//2 10//10
f 39//39 10//10 21//21
f 40//40 21//21 8//8
f 40//40 8//8 16//16
f 41//41 26//26 8//8
f 42//42 21//21 10//10
f 42//42 10//10 37//37
f 43//43 8//8 21//21
f 43//43 42//42 22//22
f 43//43 21//21 42//42
f 43//43 41//41 8//8
f 43//43 22//22 41//41
f 44//44 23//23 11//11
f 44//44 4//4 23//23
f 44//44 11//11 25//25
f 45//45 24//24 12//12
f 46//46 25//25 6//6
f 46//46 12//12 25//25
f 46//46 45//45 12//12
f 46//46 6//6 45//45
f 47//47 25//25 12//12
f 47//47 12//12 4//4
f 47//47 44//44 25//25
f 47//47 4//4 44//44
f 48//48 13//13 26//26
f 48//48 28//28 13//13
f 48//48 3//3 28//28
f 48//48 26//26 41//41
f 48//48 37//37 3//3
f 48//48 41//41 22//22
f 48//48 42//42 37//37
f 48//48 22//22 42//42
f 49//49 16//16 8//8
f 49//49 8//8 26//26
f 50//50 27//27 14//14
f 50//50 14//14 28//28
f 51//51 28//28 3//3
f 51//51 50//50 28//28
f 51//51 27//27 50//50
f 51//51 36//36 27//27
f 51//51 3//3 23//23
f 51//51 23//23 4//4
f 51//51 4//4 36//36
f 52//52 28//28 14//14
f 52//52 13//13 28//28
f 53//53 29//29 13//13
f 53//53 7//7 29//29
f 53//53 13//13 52//52
f 54//54 29//29 15//15
f 54//54 1//1 16//16
f 55//55 26//26 13//13
f 55//55 13//13 29//29
f 55//55 49//49 26//26
f 55//55 29//29 54//54
f 55//55 54//54 16//16
f 55//55 16//16 49//49
f 56//56 30//30 7//7
f 56//56 52//52 14//14
f 56//56 53//53 52//52
f 56//56 7//7 53//53
f 57//57 29//29 7//7
f 57//57 7//7 30//30
f 57//57 30//30 15//15
f 57//57 15//15 29//29
f 58//58 31//31 17//17
f 58//58 9//9 31//31
f 58//58 17//17 34//34
f 58//58 32//32 9//9
f 58//58 18//18 32//32
f 58//58 34//34 2//2
f 58//58 2//2 18//18
f 59//59 31//31 9//9
f 59//59 9//9 5//5
f 59//59 5//5 31//31
f 60//60 17//17 31//31
f 60//60 34//34 17//17
f 60//60 31//31 5//5
f 60//60 36//36 24//24
f 60//60 5//5 19//19
f 60//60 19//19 36//36
f 61//61 33//33 18//18
f 61//61 18//18 2//2
f 61//61 16//16 33//33
f 61//61 40//40 16//16
f 61//61 2//2 21//21
f 61//61 21//21 40//40
f 62//62 6//6 20//20
f 62//62 20//20 10//10
f 62//62 10//10 2//2
f 62//62 2//2 34//34
f 62//62 45//45 6//6
f 62//62 24//24 45//45
f 62//62 60//60 24//24
f 62//62 34//34 60//60
f 63//63 35//35 1//1
f 63//63 15//15 35//35
f 63//63 54//54 15//15
f 63//63 1//1 54//54
f 64//64 14//14 27//27
f 64//64 27//27 36//36
f 64//64 56//56 14//14
f 64//64 36//36 30//30
f 64//64 30//30 56//56

