# https://github.com/mikedh/trimesh
v -0.03007656 -0.03078774 0.01377303
v -0.03044373 -0.04300298 0.01326333
v -0.02726101 -0.03001130 -0.01436840
v -0.03593581 -0.03058949 -0.02241843
v -0.03065902 -0.04219026 0.01404264
v -0.03356578 -0.04267743 -0.02190147
v -0.02917414 -0.02965509 0.01267392
v -0.02984688 -0.04276948 -0.01450543
v -0.02922343 -0.03004222 -0.01847233
v -0.03593510 -0.04291993 -0.02227344
v -0.02971730 -0.04298825 0.00702909
v -0.03335695 -0.03070929 -0.02133091
v -0.03192915 -0.04263947 -0.01964332
v -0.02791228 -0.03148543 -0.00553415
v -0.02782309 -0.03362076 -0.01249590
v -0.02786087 -0.03050460 -0.00534253
vn -0.24982502 0.36491702 0.89689633
vn 0.14392952 -0.85251989 0.50248793
vn 0.78887108 0.59041616 -0.17056135
vn -0.52194749 0.54351458 -0.65739084
vn -0.12963586 -0.33273121 0.93406878
vn 0.42006226 -0.59847719 -0.68218235
vn 0.38699989 0.80416798 0.45115957
vn 0.67314660 -0.72488836 -0.14632335
vn 0.59256200 0.64073229 -0.48819301
vn -0.56333108 -0.58413824 -0.58432919
vn 0.68209910 -0.72951421 0.05049599
vn 0.42651568 0.40545558 -0.80851107
vn 0.63454057 -0.67862296 -0.36990424
vn 0.99484690 -0.07768952 0.06514592
vn 0.98376337 -0.17787290 -0.02389290
vn 0.99754700 -0.00354520 0.06991001
f 5//5 1//1 4//4
f 7//7 4//4 1//1
f 7//7 5//5 2//2
f 7//7 1//1 5//5
f 9//9 7//7 3//3
f 9//9 4//4 7//7
f 10//10 5//5 4//4
f 10//10 4//4 6//6
f 10//10 2//2 5//5
f 10//10 6//6 8//8
f 11//11 7//7 2//2
f 11//11 10//10 8//8
f 11//11 2//2 10//10
f 12//12 9//9 6//6
f 12//12 6//6 4//4
f 12//12 4//4 9//9
f 13//13 8//8 6//6
f 13//13 6//6 9//9
f 13//13 9//9 3//3
f 13//13 3//3 8//8
f 14//14 11//11 3//3
f 14//14 7//7 11//11
f 15//15 11//11 8//8
f 15//15 8//8 3//3
f 15//15 3//3 11//11
f 16//16 14//14 3//3
f 16//16 3//3 7//7
f 16//16 7//7 14//14

