# https://github.com/mikedh/trimesh
v -0.04106801 0.07242898 0.02134004
v -0.02768220 -0.00223495 0.02317426
v -0.02789135 0.01560165 -0.02095490
v -0.07517824 0.07187138 -0.02068981
v -0.07740483 -0.00210187 0.01520282
v -0.03775672 0.07535121 -0.01833558
v -0.06798103 0.00986830 0.02321156
v -0.02768537 -0.00223192 -0.02286870
v -0.07162976 0.07875317 0.00917404
v -0.03622507 0.07416109 0.01507495
v -0.05211591 -0.00219788 0.02262464
v -0.06028080 0.05472475 0.02346965
v -0.02759241 0.01537943 0.02137964
v -0.07146443 -0.00216477 -0.02310365
v -0.04101642 0.07256046 -0.02125482
v -0.06631638 0.07884725 -0.01437904
v -0.08022182 0.07187699 0.01507030
v -0.03598590 0.07468353 -0.01284720
v -0.04106546 0.07849434 0.01466549
v -0.06416974 0.00987208 0.02379996
v -0.05825092 0.05268697 0.02347945
v -0.03752884 0.07379942 0.01814250
v -0.08046460 0.06697150 -0.01061226
v -0.03801133 0.07082416 -0.01930533
v -0.06810016 0.04667041 -0.02314209
v -0.07864044 0.07476395 -0.01409765
v -0.05997273 0.07673399 -0.01961881
v -0.07707593 0.04456527 0.01904541
v -0.07437247 0.07205089 0.02149210
v -0.03626202 0.07255935 -0.01628573
v -0.02860327 0.02239950 -0.01626308
v -0.03943046 0.07903198 -0.00485913
v -0.03784053 0.07060136 0.01919872
v -0.04047225 0.07733101 0.01774570
v -0.07627709 -0.00202010 -0.01485069
v -0.08050865 0.05067998 0.01118406
v -0.07608386 0.05314430 -0.02198849
v -0.07011601 0.07380351 -0.02083044
v -0.04216770 0.02247980 -0.02305884
v -0.06989579 0.07876047 -0.01246090
v -0.07570465 0.07661423 0.01694494
v -0.08048316 0.07249596 -0.01060520
v -0.04254699 0.07886275 -0.01649854
v -0.08016790 0.05493560 0.01617617
v -0.07272330 0.02011246 0.02159851
v -0.07188815 0.07360822 0.02134459
v -0.06797817 0.04849263 0.02325125
v -0.02827298 0.01883744 -0.01982390
v -0.06423041 0.07895418 0.01295331
v -0.03931781 0.07877354 -0.00890907
v -0.03750255 0.07673753 0.01439766
v -0.04060798 0.07540379 0.01986941
v -0.07447853 -0.00214599 -0.02020433
v -0.07845272 0.01416895 0.00758662
v -0.07239481 0.03834408 -0.02309638
v -0.07669132 0.06979472 -0.02076024
v -0.04236660 0.07406793 -0.02084950
v -0.06973424 0.07688677 -0.01783872
v -0.06245197 0.04641138 -0.02316655
v -0.05434569 -0.00216758 -0.02321268
v -0.07544157 0.07671861 -0.01291754
v -0.07879084 0.07468232 -0.00536369
v -0.07632084 0.07589884 0.01748008
v -0.08050638 0.05283577 0.01513668
vn 0.29012483 0.24483169 0.92514055
vn 0.57975344 -0.57360865 0.57867008
vn 0.85648437 0.09527019 -0.50730476
vn -0.34954928 0.43458585 -0.83003039
vn -0.65193042 -0.65424120 0.38334734
vn 0.64437169 0.52957506 -0.55166601
vn -0.32288259 -0.16789580 0.93142785
vn 0.58507517 -0.56923451 -0.57763233
vn -0.24226591 0.96891838 0.05004407
vn 0.92119296 0.32423839 0.21511160
vn -0.05714882 -0.74424954 0.66545221
vn -0.00819781 0.05799084 0.99828346
vn 0.84203477 0.09428412 0.53111953
vn -0.28065003 -0.64085905 -0.71451749
vn 0.28933991 0.22709442 -0.92989813
vn -0.06909283 0.97113483 -0.22830533
vn -0.90020634 0.30926800 0.30656459
vn 0.89744278 0.42884182 -0.10339802
vn 0.20857891 0.96037495 0.18486428
vn -0.08925184 -0.09799663 0.99117646
vn 0.04025018 0.02916273 0.99876397
vn 0.74323834 0.34922247 0.57064914
vn -0.98364985 -0.01588505 -0.17938963
vn 0.59797669 0.13402496 -0.79022857
vn -0.04309400 0.04457446 -0.99807616
vn -0.72073457 0.61405586 -0.32167852
vn -0.02767101 0.70025160 -0.71335967
vn -0.67301498 -0.03023951 0.73901043
vn -0.41694432 0.24513998 0.87525072
vn 0.93400499 0.20042157 -0.29574631
vn 0.99112565 0.13091160 -0.02306716
vn 0.42833316 0.90361659 -0.00278644
vn 0.65285666 0.16102393 0.74016854
vn 0.30919414 0.80625181 0.50433819
vn -0.73585065 -0.66320838 -0.13666915
vn -0.99931693 -0.03678037 -0.00358966
vn -0.61833257 0.01743840 -0.78572307
vn -0.13220104 0.43112406 -0.89255528
vn 0.03941643 0.01885629 -0.99904494
vn -0.20376499 0.96880434 -0.14106022
vn -0.39905480 0.85378665 0.33437049
vn -0.94927462 0.28514557 -0.13255075
vn 0.19441590 0.89984074 -0.39049853
vn -0.84960602 0.00338623 0.52740700
vn -0.53666702 -0.04215430 0.84274048
vn -0.08809680 0.50759287 0.85708135
vn -0.15208185 0.01333507 0.98827794
vn 0.98820685 0.13950211 -0.06313786
vn -0.03252666 0.97439987 0.22245655
vn 0.49896523 0.86363525 -0.07188777
vn 0.70070637 0.68710292 0.19209414
vn 0.31551531 0.55586749 0.76906529
vn -0.62873821 -0.67123310 -0.39259954
vn -0.99781562 -0.06241875 -0.02163084
vn -0.16350303 0.00232076 -0.98654010
vn -0.60634422 0.16533076 -0.77782545
vn 0.11297789 0.48796694 -0.86551965
vn -0.22629617 0.82024786 -0.52534131
vn 0.01209378 0.03594096 -0.99928074
vn 0.00167366 -0.66247558 -0.74908164
vn -0.41163928 0.89296800 -0.18210232
vn -0.68437045 0.72906611 0.00998463
vn -0.60347906 0.63255276 0.48547917
vn -0.97909015 -0.02819872 0.20146294
f 11//11 7//7 5//5
f 11//11 8//8 2//2
f 13//13 8//8 3//3
f 13//13 2//2 8//8
f 13//13 1//1 2//2
f 14//14 11//11 5//5
f 14//14 8//8 11//11
f 15//15 3//3 8//8
f 18//18 10//10 13//13
f 20//20 11//11 2//2
f 20//20 7//7 11//11
f 21//21 2//2 1//1
f 21//21 1//1 12//12
f 21//21 20//20 2//2
f 21//21 12//12 20//20
f 22//22 13//13 10//10
f 24//24 15//15 6//6
f 24//24 6//6 3//3
f 24//24 3//3 15//15
f 30//30 18//18 3//3
f 30//30 3//3 6//6
f 30//30 6//6 18//18
f 31//31 18//18 13//13
f 31//31 13//13 3//3
f 33//33 22//22 1//1
f 33//33 1//1 13//13
f 33//33 13//13 22//22
f 38//38 25//25 4//4
f 38//38 15//15 25//25
f 39//39 15//15 8//8
f 42//42 23//23 36//36
f 43//43 27//27 16//16
f 43//43 16//16 32//32
f 44//44 5//5 28//28
f 44//44 29//29 17//17
f 44//44 28//28 29//29
f 45//45 28//28 5//5
f 45//45 5//5 7//7
f 45//45 29//29 28//28
f 45//45 7//7 29//29
f 46//46 29//29 12//12
f 46//46 12//12 1//1
f 46//46 34//34 41//41
f 47//47 20//20 12//12
f 47//47 12//12 29//29
f 47//47 29//29 7//7
f 47//47 7//7 20//20
f 48//48 31//31 3//3
f 48//48 3//3 18//18
f 48//48 18//18 31//31
f 49//49 32//32 16//16
f 49//49 19//19 32//32
f 49//49 9//9 41//41
f 49//49 41//41 34//34
f 49//49 34//34 19//19
f 49//49 40//40 9//9
f 49//49 16//16 40//40
f 50//50 32//32 18//18
f 50//50 18//18 6//6
f 50//50 43//43 32//32
f 50//50 6//6 43//43
f 51//51 32//32 19//19
f 51//51 10//10 18//18
f 51//51 18//18 32//32
f 51//51 19//19 34//34
f 51//51 34//34 22//22
f 51//51 22//22 10//10
f 52//52 1//1 22//22
f 52//52 22//22 34//34
f 52//52 46//46 1//1
f 52//52 34//34 46//46
f 53//53 14//14 5//5
f 53//53 5//5 35//35
f 53//53 37//37 14//14
f 53//53 35//35 23//23
f 53//53 23//23 37//37
f 54//54 35//35 5//5
f 54//54 5//5 36//36
f 54//54 36//36 23//23
f 54//54 23//23 35//35
f 55//55 37//37 25//25
f 55//55 25//25 14//14
f 55//55 14//14 37//37
f 56//56 4//4 25//25
f 56//56 25//25 37//37
f 56//56 26//26 4//4
f 56//56 42//42 26//26
f 56//56 37//37 23//23
f 56//56 23//23 42//42
f 57//57 38//38 27//27
f 57//57 15//15 38//38
f 57//57 27//27 43//43
f 57//57 43//43 6//6
f 57//57 6//6 15//15
f 58//58 16//16 27//27
f 58//58 27//27 38//38
f 58//58 40//40 16//16
f 58//58 38//38 4//4
f 58//58 4//4 26//26
f 59//59 25//25 15//15
f 59//59 15//15 39//39
f 60//60 39//39 8//8
f 60//60 8//8 14//14
f 60//60 59//59 39//39
f 60//60 14//14 25//25
f 60//60 25//25 59//59
f 61//61 9//9 40//40
f 61//61 41//41 9//9
f 61//61 26//26 41//41
f 61//61 58//58 26//26
f 61//61 40//40 58//58
f 62//62 41//41 26//26
f 62//62 17//17 41//41
f 62//62 42//42 17//17
f 62//62 26//26 42//42
f 63//63 41//41 17//17
f 63//63 17//17 29//29
f 63//63 46//46 41//41
f 63//63 29//29 46//46
f 64//64 42//42 36//36
f 64//64 17//17 42//42
f 64//64 44//44 17//17
f 64//64 36//36 5//5
f 64//64 5//5 44//44

