# https://github.com/mikedh/trimesh
v -0.02564975 -0.00222992 0.02324285
v -0.02947407 -0.06337920 0.01456693
v -0.02565955 -0.00220875 0.00114922
v -0.05007692 -0.00220875 0.00114922
v -0.05008970 -0.06324679 0.02260707
v -0.02844594 -0.06337565 0.00117064
v -0.05008117 -0.00219776 0.02261521
v -0.03654159 -0.06345381 0.02151887
v -0.05007692 -0.06325216 0.00114922
v -0.02671570 -0.02352007 0.01766488
v -0.03142738 -0.06373526 0.01837746
v -0.03313674 -0.06331181 0.02004070
vn 0.58806743 0.55666706 0.58676953
vn 0.76110796 -0.62296505 0.18063560
vn 0.59148925 0.56524580 -0.57501100
vn -0.57727723 0.57722528 -0.57754825
vn -0.56603306 -0.57303209 0.59265572
vn 0.57912913 -0.58644705 -0.56629436
vn -0.58380117 0.57901340 0.56913942
vn 0.15677356 -0.67047988 0.72517500
vn -0.58050803 -0.57158050 -0.57991909
vn 0.99489995 -0.06927137 0.07331831
vn 0.54794709 -0.72485135 0.41754581
vn 0.45314387 -0.49608946 0.74064559
f 6//6 3//3 1//1
f 7//7 1//1 3//3
f 7//7 3//3 4//4
f 7//7 5//5 1//1
f 7//7 4//4 5//5
f 8//8 1//1 5//5
f 9//9 4//4 3//3
f 9//9 3//3 6//6
f 9//9 5//5 4//4
f 10//10 6//6 1//1
f 10//10 1//1 2//2
f 10//10 2//2 6//6
f 11//11 2//2 1//1
f 11//11 6//6 2//2
f 11//11 9//9 6//6
f 11//11 8//8 5//5
f 11//11 5//5 9//9
f 12//12 11//11 1//1
f 12//12 1//1 8//8
f 12//12 8//8 11//11

