# https://github.com/mikedh/trimesh
v 0.10660876 0.02317011 0.02172566
v 0.10646860 -0.00973338 0.02213313
v 0.10669430 0.02731385 0.01514067
v 0.05396076 0.02447129 0.01478214
v 0.06795810 0.01809858 0.02333813
v 0.10249365 -0.01581686 0.01527475
v 0.07612753 0.02371935 0.02024976
v 0.10662956 -0.00212298 0.02347345
v 0.10643522 -0.01475110 0.01716250
v 0.09252390 0.02632262 0.01491718
v 0.07982755 -0.00769905 0.02305773
v 0.10678789 0.02618977 0.01829437
v 0.07411287 0.02198709 0.02175888
v 0.09835698 0.01601258 0.02342129
v 0.05378413 0.02362667 0.01722040
v 0.08780491 -0.01591361 0.01718201
v 0.08428821 -0.00426163 0.02344230
v 0.09638872 -0.00945733 0.02317595
v 0.10660828 0.00990677 0.02350619
v 0.05787498 0.02335079 0.01904825
v 0.09439173 -0.01644166 0.01538873
v 0.05369882 0.02422978 0.01538811
v 0.08015584 -0.00628008 0.02332409
v 0.10219683 -0.00783205 0.02320578
v 0.08835893 -0.01131786 0.02209621
v 0.08007861 0.00394455 0.02352606
v 0.06772985 0.02139105 0.02180612
v 0.05811190 0.02380662 0.01817766
v 0.09435079 -0.01491654 0.01953483
v 0.10013630 -0.00933685 0.02292792
v 0.08012364 0.00999334 0.02352550
v 0.10228615 -0.01395918 0.02015496
v 0.10240730 -0.01275135 0.02121379
v 0.09450215 -0.01264798 0.02131242
vn 0.61941166 0.38173777 0.68600690
vn 0.70863231 -0.29713941 0.63995971
vn 0.54564049 0.69041356 -0.47497955
vn -0.62390355 0.51687508 -0.58616083
vn -0.22932469 0.09331827 0.96886629
vn 0.23209500 -0.77794515 -0.58389490
vn -0.03967388 0.80087457 0.59751644
vn 0.70615408 -0.04277784 0.70676479
vn 0.73772201 -0.64938832 -0.18455634
vn -0.00560557 0.24720786 -0.96894626
vn -0.54012414 -0.57494743 0.61457413
vn 0.66535107 0.64913033 0.36869739
vn -0.03422177 0.55451552 0.83146943
vn 0.02386717 0.11687787 0.99285947
vn -0.87143109 0.20980585 0.44338398
vn -0.40380706 -0.89344281 -0.19672264
vn -0.00516311 -0.03169077 0.99948439
vn 0.00947783 -0.28470828 0.95856735
vn 0.68747144 0.03035731 0.72557663
vn -0.27858407 0.51689617 0.80944998
vn -0.02495037 -0.82950785 -0.55793746
vn -0.94352875 0.32249819 -0.07581828
vn -0.10936073 -0.10525117 0.98841409
vn 0.07703559 -0.17854787 0.98091089
vn -0.10965863 -0.55711366 0.82316423
vn -0.01804864 -0.01085444 0.99977819
vn -0.08871076 0.54599961 0.83307552
vn -0.07565804 0.92894079 0.36241533
vn -0.00064664 -0.80954681 0.58705498
vn 0.07850522 -0.34310691 0.93600993
vn -0.00545836 0.00839686 0.99994985
vn 0.15479944 -0.78789975 0.59602946
vn 0.14869191 -0.56886957 0.80887460
vn -0.00775504 -0.56594236 0.82440833
f 9//9 6//6 3//3
f 9//9 8//8 2//2
f 10//10 6//6 4//4
f 10//10 4//4 3//3
f 10//10 3//3 6//6
f 12//12 7//7 1//1
f 12//12 9//9 3//3
f 12//12 8//8 9//9
f 13//13 5//5 1//1
f 13//13 1//1 7//7
f 14//14 1//1 5//5
f 15//15 11//11 5//5
f 16//16 11//11 15//15
f 18//18 8//8 17//17
f 19//19 12//12 1//1
f 19//19 8//8 12//12
f 19//19 1//1 14//14
f 20//20 15//15 5//5
f 21//21 16//16 4//4
f 21//21 4//4 6//6
f 22//22 16//16 15//15
f 22//22 15//15 4//4
f 22//22 4//4 16//16
f 23//23 5//5 11//11
f 23//23 18//18 17//17
f 23//23 11//11 18//18
f 24//24 2//2 8//8
f 24//24 8//8 18//18
f 25//25 18//18 11//11
f 25//25 11//11 16//16
f 26//26 17//17 8//8
f 26//26 8//8 19//19
f 26//26 23//23 17//17
f 26//26 5//5 23//23
f 27//27 20//20 5//5
f 27//27 5//5 13//13
f 27//27 13//13 7//7
f 27//27 7//7 20//20
f 28//28 20//20 7//7
f 28//28 7//7 12//12
f 28//28 12//12 3//3
f 28//28 3//3 4//4
f 28//28 4//4 15//15
f 28//28 15//15 20//20
f 29//29 21//21 6//6
f 29//29 6//6 9//9
f 29//29 16//16 21//21
f 29//29 25//25 16//16
f 30//30 24//24 18//18
f 30//30 2//2 24//24
f 31//31 26//26 19//19
f 31//31 19//19 14//14
f 31//31 14//14 5//5
f 31//31 5//5 26//26
f 32//32 29//29 9//9
f 32//32 9//9 2//2
f 33//33 29//29 32//32
f 33//33 30//30 18//18
f 33//33 32//32 2//2
f 33//33 2//2 30//30
f 34//34 33//33 18//18
f 34//34 18//18 25//25
f 34//34 25//25 29//29
f 34//34 29//29 33//33

