# https://github.com/mikedh/trimesh
v -0.03654159 -0.06345381 0.02151887
v -0.03610319 -0.07348947 0.02184448
v -0.02901080 -0.06211280 -0.01164207
v -0.06025082 -0.06325216 -0.01105947
v -0.06045397 -0.06332562 0.02270316
v -0.03583346 -0.07342607 -0.01105947
v -0.06025082 -0.07342607 -0.01105947
v -0.06019928 -0.07307482 0.02251770
vn 0.50792701 0.59717752 0.62079720
vn 0.53460098 -0.58250925 0.61227834
vn 0.72963834 0.42598851 -0.53494082
vn -0.58980336 0.56766153 -0.57436259
vn -0.57713138 0.55859156 0.59573051
vn 0.39042893 -0.70538767 -0.59160247
vn -0.57978537 -0.58002219 -0.57220904
vn -0.56705517 -0.57927812 0.58556408
f 1//1 2//2 3//3
f 5//5 2//2 1//1
f 5//5 1//1 3//3
f 5//5 3//3 4//4
f 6//6 3//3 2//2
f 7//7 5//5 4//4
f 7//7 6//6 2//2
f 7//7 4//4 3//3
f 7//7 3//3 6//6
f 8//8 7//7 2//2
f 8//8 2//2 5//5
f 8//8 5//5 7//7

