# https://github.com/mikedh/trimesh
v -0.01141609 -0.00220875 0.00114922
v -0.01144363 -0.02390054 0.00108182
v -0.01129849 -0.01524860 -0.02312480
v -0.07146443 -0.00216477 -0.02310365
v -0.07830927 0.02018961 0.00115455
v -0.06982552 -0.06306123 -0.02156619
v -0.07318090 -0.06316448 0.00123814
v -0.01166767 0.00767256 -0.02276246
v -0.03006016 -0.06309856 -0.01767762
v -0.06541635 -0.06229438 -0.02324257
v -0.07650213 -0.00188955 -0.01291384
v -0.02844594 -0.06337565 0.00117064
v -0.07647091 -0.00617629 0.00122851
v -0.01141609 0.00796516 -0.01105947
v -0.01357313 -0.00227560 -0.02316808
v -0.07767809 0.02019950 -0.01098963
v -0.01184084 -0.02197810 -0.01421812
v -0.06792108 -0.05886155 -0.02298308
v -0.04043114 -0.06365266 -0.02306293
v -0.07447853 -0.00214599 -0.02020433
v -0.07431114 -0.04277833 -0.00887770
v -0.06432039 0.02017384 0.00114922
v -0.01154137 -0.00431203 -0.02311550
v -0.01155681 -0.01824390 -0.02148871
v -0.07023843 -0.06075243 -0.02167983
v -0.03259126 -0.06326637 -0.02131650
v -0.07220992 -0.06328623 -0.01457021
v -0.06432039 0.02017384 -0.01105947
v -0.07170675 -0.00786764 -0.02271313
v -0.07043308 -0.06285582 -0.02032614
v -0.07417188 -0.03471695 -0.01495421
v -0.07427483 -0.04074396 -0.01083077
v -0.07408480 -0.01001068 -0.02024076
v -0.07200846 -0.05080609 -0.01859195
v -0.07212568 -0.04279002 -0.01985790
vn 0.67240248 0.24294799 0.69917894
vn 0.74495051 -0.17329680 0.64421810
vn 0.71426897 -0.06691830 -0.69666475
vn -0.35236237 0.17153303 -0.92000934
vn -0.60930977 0.56085685 0.56051869
vn -0.48296453 -0.67973464 -0.55200188
vn -0.57243095 -0.58929194 0.57013842
vn 0.60776916 0.52074884 -0.59953089
vn 0.60889313 -0.76193467 -0.22069146
vn -0.10068918 -0.47364474 -0.87494134
vn -0.98659468 -0.04730257 -0.15618386
vn 0.46455280 -0.66672982 0.58280532
vn -0.10703396 -0.00540440 0.99424068
vn 0.73863290 0.64502722 0.19586046
vn 0.02212429 0.02189127 -0.99951553
vn -0.62726448 0.65756288 -0.41731323
vn 0.95170606 -0.29326839 -0.09082520
vn -0.29945437 -0.05314413 -0.95262940
vn 0.06085320 -0.70807513 -0.70351012
vn -0.84338912 0.03897395 -0.53588789
vn -0.99614934 -0.06857242 -0.05462889
vn 0.09239758 0.72534782 0.68215338
vn 0.56817692 0.01742964 -0.82272182
vn 0.92070671 -0.27275159 -0.27911598
vn -0.74698955 -0.10370677 -0.65669743
vn 0.36504015 -0.70895337 -0.60343252
vn -0.69230734 -0.70954541 -0.13136154
vn 0.07038406 0.92619611 -0.37041444
vn -0.64154122 -0.03104530 -0.76646008
vn -0.88123862 -0.34702266 -0.32092641
vn -0.97605559 -0.06260224 -0.20831815
vn -0.99231388 -0.06670178 -0.10423064
vn -0.86438854 -0.04387936 -0.50090624
vn -0.95256771 -0.06836075 -0.29654945
vn -0.94045727 -0.06053577 -0.33447802
f 1//1 2//2 3//3
f 12//12 2//2 1//1
f 12//12 1//1 7//7
f 13//13 7//7 1//1
f 13//13 5//5 7//7
f 14//14 1//1 3//3
f 14//14 3//3 8//8
f 15//15 4//4 8//8
f 15//15 10//10 4//4
f 15//15 3//3 10//10
f 16//16 8//8 4//4
f 16//16 11//11 5//5
f 17//17 12//12 9//9
f 17//17 2//2 12//12
f 18//18 10//10 6//6
f 18//18 4//4 10//10
f 19//19 6//6 10//10
f 19//19 12//12 7//7
f 19//19 10//10 3//3
f 20//20 16//16 4//4
f 20//20 11//11 16//16
f 21//21 7//7 5//5
f 21//21 5//5 11//11
f 22//22 1//1 14//14
f 22//22 13//13 1//1
f 22//22 5//5 13//13
f 22//22 16//16 5//5
f 23//23 15//15 8//8
f 23//23 8//8 3//3
f 23//23 3//3 15//15
f 24//24 17//17 9//9
f 24//24 3//3 2//2
f 24//24 2//2 17//17
f 25//25 18//18 6//6
f 25//25 4//4 18//18
f 26//26 9//9 12//12
f 26//26 12//12 19//19
f 26//26 19//19 3//3
f 26//26 24//24 9//9
f 26//26 3//3 24//24
f 27//27 19//19 7//7
f 27//27 6//6 19//19
f 27//27 7//7 21//21
f 28//28 22//22 14//14
f 28//28 14//14 8//8
f 28//28 8//8 16//16
f 28//28 16//16 22//22
f 29//29 20//20 4//4
f 29//29 4//4 25//25
f 30//30 27//27 25//25
f 30//30 25//25 6//6
f 30//30 6//6 27//27
f 32//32 31//31 27//27
f 32//32 27//27 21//21
f 32//32 21//21 11//11
f 32//32 11//11 31//31
f 33//33 31//31 11//11
f 33//33 11//11 20//20
f 33//33 29//29 25//25
f 33//33 20//20 29//29
f 34//34 25//25 27//27
f 34//34 27//27 31//31
f 35//35 33//33 25//25
f 35//35 25//25 34//34
f 35//35 34//34 31//31
f 35//35 31//31 33//33

