# https://github.com/mikedh/trimesh
v 0.05376070 0.01374892 0.02337622
v 0.05363398 -0.01488571 0.02119918
v 0.05356724 0.01902566 -0.02082866
v -0.02789135 0.01560165 -0.02095490
v -0.02768220 -0.00223495 0.02317426
v -0.00168120 -0.01723639 -0.02294717
v -0.02906344 0.02494189 0.00745405
v 0.05399453 0.02429123 -0.01457888
v 0.05389375 -0.00981481 0.02327286
v 0.05378649 -0.01447600 -0.02128099
v -0.01561625 0.00174586 -0.02313488
v -0.02610028 -0.02607327 0.00121206
v -0.02852630 0.01887542 0.01997952
v 0.05396076 0.02447129 0.01478214
v -0.02860327 0.02239950 -0.01626308
v -0.02618866 -0.01575727 0.02149809
v -0.02364093 -0.00425285 0.02327411
v 0.03942053 0.01913843 -0.02097716
v 0.01281611 -0.01037875 -0.02309574
v -0.02768537 -0.00223192 -0.02286870
v 0.05330394 -0.02012436 -0.00504878
v -0.01325237 0.01554860 0.02309720
v -0.02870074 0.02269291 0.01487499
v -0.02844216 0.02444059 -0.00664540
v 0.00623485 -0.01364122 0.02325554
v -0.02671570 -0.02352007 0.01766488
v -0.02120862 -0.00774931 0.02324719
v -0.02827298 0.01883744 -0.01982390
v 0.05345801 0.02272673 -0.01898857
v 0.01064404 -0.01400374 -0.02293206
v -0.00530454 -0.01651935 -0.02320186
v 0.00881906 -0.00651677 -0.02306581
v -0.02132635 0.00171047 -0.02297571
v 0.05344680 -0.01818518 0.01496029
v 0.04921699 -0.02017365 -0.01043447
v -0.02759241 0.01537943 0.02137964
v 0.05376628 0.02024097 0.02157399
v -0.01714810 0.01312309 0.02323609
v 0.04176080 0.02384162 -0.01653839
v -0.00503810 -0.01365116 0.02306349
v -0.02687253 -0.02602535 0.01096538
v -0.01549211 0.01689922 -0.02083918
v 0.04614445 0.02256178 -0.01898730
v 0.01268898 -0.01198199 -0.02300670
v -0.02147057 -0.00207123 -0.02312525
v -0.01177624 -0.02037466 -0.01829922
v 0.05353691 -0.01646027 0.01978275
v 0.03489871 -0.02203757 -0.00632529
v 0.05342112 -0.01828233 -0.01425025
v -0.01708563 0.01845350 0.02110694
v -0.02843034 0.02090384 0.01819133
v -0.02326348 0.00591423 0.02326592
v 0.00492937 0.02391027 -0.01256288
v -0.01084735 -0.01714957 0.02119700
v -0.01914961 -0.00974828 0.02309986
v -0.01129849 -0.01524860 -0.02312480
v 0.05128051 -0.02034053 -0.00844345
v -0.01175317 -0.02261909 -0.01084885
v 0.03465449 -0.02210736 -0.00085604
v 0.04515006 -0.01820277 -0.01568014
v 0.02133522 0.02187142 0.01814721
v -0.01502631 0.01958573 0.02016764
v -0.02134076 0.00974317 0.02321929
v 0.03135219 -0.02221036 0.00641176
vn 0.66663472 0.09929693 0.73874100
vn 0.67159465 -0.41466532 0.61401409
vn 0.64173455 0.18655927 -0.74389005
vn -0.52967775 0.16189242 -0.83260574
vn -0.70440063 -0.04303260 0.70849697
vn 0.03391220 -0.58117136 -0.81307430
vn -0.69386844 0.71399471 0.09358501
vn 0.68119438 0.71783411 -0.14383465
vn 0.67535114 -0.14898925 0.72229014
vn 0.63115553 -0.39270213 -0.66890039
vn -0.00724859 0.07534702 -0.99713103
vn -0.59879783 -0.77767628 -0.19147000
vn -0.69636637 0.35596529 0.62318744
vn 0.64942988 0.72922217 0.21558259
vn -0.66649795 0.64694542 -0.37046201
vn -0.50297602 -0.27644428 0.81889785
vn -0.02331477 -0.01679775 0.99958704
vn -0.00235312 0.31628595 -0.94866098
vn 0.02833374 -0.01145403 -0.99953289
vn -0.69754553 -0.15514791 -0.69954225
vn 0.70860519 -0.70560209 0.00209143
vn -0.02894220 0.31453232 0.94880544
vn -0.67231222 0.67217799 0.31011776
vn -0.56157169 0.82083879 -0.10421572
vn 0.00907746 -0.28716292 0.95783874
vn -0.59108016 -0.61164572 0.52584576
vn -0.05811038 -0.08559468 0.99463397
vn -0.64845696 0.37566269 -0.66210355
vn 0.55914320 0.60668521 -0.56505924
vn 0.03284167 -0.09452906 -0.99498024
vn -0.05671352 -0.38883840 -0.91955874
vn 0.01689995 0.03364933 -0.99929081
vn -0.04489911 0.08689665 -0.99520503
vn 0.69513433 -0.69993496 0.16394910
vn 0.09458294 -0.95515422 -0.28059666
vn -0.43402598 0.18267087 0.88218638
vn 0.61845083 0.46913357 0.63042229
vn -0.06623033 0.12475525 0.98997458
vn -0.01431685 0.94556754 -0.32511083
vn -0.01905833 -0.26953345 0.96280242
vn -0.63264478 -0.76282159 0.13365555
vn -0.01417103 0.27808786 -0.96045111
vn -0.01684207 0.71878948 -0.69502376
vn 0.03307219 -0.06451315 -0.99736868
vn -0.03051315 0.00597484 -0.99951651
vn -0.22546369 -0.81369661 -0.53578350
vn 0.65548130 -0.63234502 0.41289714
vn 0.06453057 -0.98715670 -0.14614187
vn 0.67828222 -0.68355792 -0.26959562
vn -0.04704787 0.59499321 0.80235253
vn -0.56549718 0.64420775 0.51498478
vn -0.10322408 0.05292029 0.99324933
vn -0.02023748 0.97873841 -0.20411165
vn -0.01713040 -0.45152784 0.89209257
vn -0.04890746 -0.14823977 0.98774138
vn -0.21291935 -0.38622049 -0.89749601
vn 0.21947738 -0.96581469 -0.13795530
vn 0.01923633 -0.96287996 -0.26924365
vn 0.09036412 -0.99583618 0.01202580
vn 0.05828219 -0.89664175 -0.43890404
vn -0.01593287 0.84931429 0.52764702
vn -0.02356168 0.71324041 0.70052335
vn -0.10403495 0.08777457 0.99069287
vn 0.08919274 -0.98793224 0.12662762
f 10//10 3//3 8//8
f 10//10 9//9 2//2
f 10//10 8//8 9//9
f 13//13 7//7 5//5
f 14//14 8//8 7//7
f 14//14 9//9 8//8
f 14//14 1//1 9//9
f 18//18 11//11 4//4
f 18//18 3//3 11//11
f 19//19 3//3 10//10
f 20//20 7//7 15//15
f 23//23 14//14 7//7
f 23//23 7//7 13//13
f 24//24 15//15 7//7
f 24//24 7//7 8//8
f 25//25 2//2 9//9
f 25//25 9//9 1//1
f 25//25 1//1 17//17
f 26//26 2//2 25//25
f 26//26 16//16 5//5
f 27//27 17//17 5//5
f 27//27 5//5 16//16
f 27//27 25//25 17//17
f 28//28 20//20 15//15
f 28//28 4//4 20//20
f 29//29 8//8 3//3
f 29//29 3//3 18//18
f 31//31 11//11 19//19
f 31//31 30//30 10//10
f 31//31 10//10 6//6
f 32//32 19//19 11//11
f 32//32 11//11 3//3
f 32//32 3//3 19//19
f 33//33 20//20 4//4
f 33//33 4//4 11//11
f 34//34 21//21 10//10
f 34//34 10//10 2//2
f 36//36 22//22 13//13
f 36//36 13//13 5//5
f 37//37 22//22 1//1
f 37//37 1//1 14//14
f 38//38 1//1 22//22
f 38//38 22//22 36//36
f 39//39 24//24 8//8
f 39//39 8//8 29//29
f 40//40 25//25 27//27
f 41//41 20//20 12//12
f 41//41 7//7 20//20
f 41//41 26//26 5//5
f 41//41 5//5 7//7
f 42//42 28//28 18//18
f 42//42 18//18 4//4
f 42//42 4//4 28//28
f 43//43 28//28 15//15
f 43//43 39//39 29//29
f 43//43 15//15 39//39
f 43//43 29//29 18//18
f 43//43 18//18 28//28
f 44//44 19//19 10//10
f 44//44 10//10 30//30
f 44//44 31//31 19//19
f 44//44 30//30 31//31
f 45//45 11//11 31//31
f 45//45 33//33 11//11
f 45//45 20//20 33//33
f 46//46 31//31 6//6
f 46//46 12//12 20//20
f 47//47 34//34 2//2
f 47//47 2//2 26//26
f 47//47 41//41 34//34
f 47//47 26//26 41//41
f 48//48 46//46 35//35
f 49//49 10//10 21//21
f 50//50 13//13 22//22
f 50//50 22//22 37//37
f 51//51 14//14 23//23
f 51//51 23//23 13//13
f 51//51 13//13 50//50
f 52//52 17//17 1//1
f 52//52 1//1 38//38
f 52//52 5//5 17//17
f 52//52 36//36 5//5
f 53//53 39//39 15//15
f 53//53 15//15 24//24
f 53//53 24//24 39//39
f 54//54 26//26 25//25
f 54//54 25//25 40//40
f 54//54 40//40 16//16
f 54//54 16//16 26//26
f 55//55 40//40 27//27
f 55//55 27//27 16//16
f 55//55 16//16 40//40
f 56//56 45//45 31//31
f 56//56 20//20 45//45
f 56//56 46//46 20//20
f 56//56 31//31 46//46
f 57//57 48//48 35//35
f 57//57 49//49 21//21
f 57//57 35//35 49//49
f 58//58 48//48 12//12
f 58//58 12//12 46//46
f 58//58 46//46 48//48
f 59//59 41//41 12//12
f 59//59 12//12 48//48
f 59//59 57//57 21//21
f 59//59 48//48 57//57
f 60//60 49//49 35//35
f 60//60 35//35 46//46
f 60//60 46//46 6//6
f 60//60 6//6 10//10
f 60//60 10//10 49//49
f 61//61 51//51 37//37
f 61//61 37//37 14//14
f 61//61 14//14 51//51
f 62//62 51//51 50//50
f 62//62 50//50 37//37
f 62//62 37//37 51//51
f 63//63 52//52 38//38
f 63//63 38//38 36//36
f 63//63 36//36 52//52
f 64//64 34//34 41//41
f 64//64 41//41 59//59
f 64//64 59//59 21//21
f 64//64 21//21 34//34

