# https://github.com/mikedh/trimesh
v 0.02353144 -0.04743598 0.00828359
v 0.02868763 -0.04601208 0.00521425
v -0.00852497 -0.04407498 -0.00039106
v -0.00852745 -0.04406150 -0.01443498
v 0.00782723 -0.05302741 -0.01316328
v 0.02892046 -0.04382699 -0.00744259
v 0.01896612 -0.04758020 0.00895664
v 0.02068831 -0.05221291 0.00184035
v -0.01013475 -0.05500533 -0.00018828
v 0.01896667 -0.04407498 -0.00039106
v 0.02736772 -0.04376731 -0.01159875
v 0.02645596 -0.04876282 0.00502191
v 0.01872601 -0.05157363 0.00628146
v -0.00789756 -0.05255952 -0.01059048
v 0.01854149 -0.05260095 0.00408510
v -0.00484499 -0.04400652 -0.01460452
v 0.02303362 -0.04990405 -0.01065365
v 0.02346483 -0.04830766 0.00797120
v 0.02815394 -0.04682888 -0.00480094
v 0.01882606 -0.04934072 0.00819650
v -0.00838320 -0.04929975 -0.01358352
v -0.00192029 -0.05289924 -0.01318620
v 0.01952926 -0.05205295 -0.00726917
v 0.02198662 -0.05086058 0.00531164
v 0.02230890 -0.04385612 -0.01482959
v 0.02536687 -0.04978731 -0.00493063
v 0.02838610 -0.04677619 0.00488162
v 0.02604512 -0.04778512 -0.01033953
v 0.02233385 -0.04909541 0.00782241
v -0.00234273 -0.04859615 -0.01458844
v 0.02066656 -0.05213976 -0.00265460
v 0.01971922 -0.05081331 -0.01189157
v 0.01971919 -0.05214377 0.00407175
v 0.02544639 -0.04977386 0.00311777
v 0.02070811 -0.05112713 0.00583005
v 0.02426277 -0.04983669 -0.00858223
v 0.02829785 -0.04491212 -0.00940690
v 0.02409311 -0.04707013 -0.01338480
v 0.02606403 -0.04892918 -0.00731695
v 0.02211884 -0.05004634 0.00685841
v -0.00472910 -0.04528858 -0.01460729
v -0.00115026 -0.04965013 -0.01443113
v 0.01491732 -0.05213138 -0.01146118
v 0.02298306 -0.05095074 0.00302711
v 0.02509982 -0.04869733 -0.01029040
v 0.02591291 -0.04590887 -0.01241053
v 0.02844617 -0.04384006 -0.00966137
v 0.02183996 -0.04906044 -0.01328784
v 0.02717451 -0.04678995 -0.00942382
v 0.01776996 -0.04810485 -0.01459366
v 0.02717821 -0.04482414 -0.01145775
v 0.02544232 -0.04402860 -0.01349799
v 0.00813941 -0.04948396 -0.01445330
v 0.02108326 -0.04703797 -0.01463001
v 0.02519849 -0.04484933 -0.01353814
v 0.02219448 -0.04623606 -0.01452042
vn 0.28679967 0.29878984 0.91020360
vn 0.77081474 0.36609666 0.52136156
vn -0.60190167 0.64415305 0.47199706
vn -0.57983601 0.54690649 -0.60389030
vn 0.06758683 -0.80678457 -0.58696736
vn 0.81275675 0.58164366 -0.03342331
vn -0.03128445 0.34064565 0.93967113
vn 0.32461936 -0.94424450 0.05499633
vn -0.67889995 -0.60931811 0.40966608
vn 0.01792350 0.98304975 0.18246081
vn 0.63836985 0.60405919 -0.47707068
vn 0.61117304 -0.71166528 0.34641023
vn 0.09592310 -0.79963385 0.59277690
vn -0.55095010 -0.72851412 -0.40708864
vn 0.16165903 -0.96162877 0.22166749
vn -0.02741600 0.70414552 -0.70952621
vn 0.43720168 -0.83425987 -0.33595412
vn 0.38067757 -0.49482989 0.78117089
vn 0.86626335 -0.49579331 -0.06145571
vn -0.01530962 -0.51620357 0.85632908
vn -0.66807290 -0.30608792 -0.67822472
vn -0.09536396 -0.75743020 -0.64591424
vn 0.25052279 -0.95929622 -0.13034220
vn 0.38364151 -0.86731330 0.31715427
vn 0.16395481 0.61984345 -0.76740662
vn 0.57440393 -0.81655592 -0.05741560
vn 0.78522632 -0.55040623 0.28367693
vn 0.69334247 -0.59876315 -0.40094752
vn 0.24778907 -0.58052483 0.77562329
vn -0.06865526 -0.14836327 -0.98654691
vn 0.28053059 -0.95866712 -0.04753877
vn 0.27357951 -0.86013777 -0.43048492
vn 0.36400595 -0.90216236 0.23152268
vn 0.55757813 -0.82575333 0.08507680
vn 0.31128618 -0.85836080 0.40782060
vn 0.47345871 -0.85872335 -0.19603838
vn 0.88670667 -0.34747688 -0.30497721
vn 0.50996754 -0.46843691 -0.72145684
vn 0.67346890 -0.72155227 -0.16062992
vn 0.33603694 -0.76942957 0.54319179
vn -0.03638945 -0.02173495 -0.99910130
vn -0.04182976 -0.26327510 -0.96381352
vn 0.19421244 -0.94010520 -0.28014950
vn 0.41290266 -0.89338074 0.17715037
vn 0.58144508 -0.71896726 -0.38079876
vn 0.68908148 -0.40132248 -0.60341278
vn 0.78627756 0.54069435 -0.29902714
vn 0.35044337 -0.64713720 -0.67705457
vn 0.79340465 -0.52856045 -0.30188228
vn 0.07399816 -0.30512986 -0.94943143
vn 0.77630546 -0.31745831 -0.54458246
vn 0.50765634 0.45525227 -0.73145773
vn 0.01241673 -0.23808144 -0.97116582
vn 0.16484172 -0.29138111 -0.94229733
vn 0.54324605 -0.20129672 -0.81508488
vn 0.30834849 -0.23238533 -0.92245231
f 7//7 1//1 2//2
f 7//7 2//2 3//3
f 9//9 3//3 4//4
f 9//9 7//7 3//3
f 10//10 6//6 3//3
f 10//10 3//3 2//2
f 10//10 2//2 6//6
f 11//11 3//3 6//6
f 15//15 9//9 5//5
f 15//15 13//13 9//9
f 16//16 4//4 3//3
f 16//16 3//3 11//11
f 18//18 12//12 2//2
f 18//18 2//2 1//1
f 18//18 1//1 7//7
f 19//19 6//6 2//2
f 20//20 7//7 9//9
f 20//20 9//9 13//13
f 21//21 14//14 9//9
f 21//21 9//9 4//4
f 22//22 5//5 9//9
f 22//22 9//9 14//14
f 22//22 14//14 21//21
f 25//25 16//16 11//11
f 27//27 19//19 2//2
f 27//27 2//2 12//12
f 27//27 26//26 19//19
f 27//27 12//12 26//26
f 29//29 18//18 7//7
f 29//29 7//7 20//20
f 29//29 20//20 13//13
f 30//30 21//21 4//4
f 31//31 15//15 5//5
f 31//31 5//5 23//23
f 31//31 8//8 15//15
f 31//31 26//26 8//8
f 32//32 17//17 23//23
f 33//33 24//24 15//15
f 33//33 15//15 8//8
f 34//34 12//12 24//24
f 34//34 26//26 12//12
f 34//34 8//8 26//26
f 35//35 13//13 15//15
f 35//35 15//15 24//24
f 36//36 23//23 17//17
f 36//36 31//31 23//23
f 36//36 26//26 31//31
f 37//37 6//6 19//19
f 39//39 19//19 26//26
f 39//39 26//26 36//36
f 40//40 24//24 12//12
f 40//40 12//12 18//18
f 40//40 18//18 29//29
f 40//40 35//35 24//24
f 40//40 29//29 13//13
f 40//40 13//13 35//35
f 41//41 30//30 4//4
f 41//41 4//4 16//16
f 41//41 16//16 25//25
f 41//41 25//25 30//30
f 42//42 22//22 21//21
f 42//42 21//21 30//30
f 42//42 5//5 22//22
f 43//43 32//32 23//23
f 43//43 23//23 5//5
f 43//43 5//5 32//32
f 44//44 33//33 8//8
f 44//44 24//24 33//33
f 44//44 34//34 24//24
f 44//44 8//8 34//34
f 45//45 36//36 17//17
f 45//45 39//39 36//36
f 45//45 28//28 39//39
f 45//45 38//38 28//28
f 46//46 28//28 38//38
f 47//47 11//11 6//6
f 47//47 6//6 37//37
f 48//48 17//17 32//32
f 48//48 32//32 5//5
f 48//48 45//45 17//17
f 48//48 38//38 45//45
f 49//49 37//37 19//19
f 49//49 19//19 39//39
f 49//49 39//39 28//28
f 50//50 30//30 25//25
f 50//50 48//48 5//5
f 51//51 28//28 46//46
f 51//51 49//49 28//28
f 51//51 37//37 49//49
f 51//51 47//47 37//37
f 51//51 11//11 47//47
f 52//52 25//25 11//11
f 53//53 42//42 30//30
f 53//53 30//30 50//50
f 53//53 50//50 5//5
f 53//53 5//5 42//42
f 54//54 50//50 25//25
f 54//54 38//38 48//48
f 54//54 48//48 50//50
f 55//55 46//46 38//38
f 55//55 25//25 52//52
f 55//55 51//51 46//46
f 55//55 52//52 11//11
f 55//55 11//11 51//51
f 56//56 54//54 25//25
f 56//56 25//25 55//55
f 56//56 55//55 38//38
f 56//56 38//38 54//54

