# https://github.com/mikedh/trimesh
v 0.00239758 0.03470978 0.01844491
v 0.00267879 -0.05577349 0.01735450
v 0.00266027 0.03455865 -0.02068637
v -0.01767589 0.03448707 -0.01886605
v -0.01792442 -0.03203740 0.02126403
v 0.00270346 -0.04225002 -0.02026746
v 0.00254056 -0.04879055 0.01819985
v -0.01782874 0.03455379 0.02169082
v -0.01780422 -0.03204625 -0.01882662
v -0.01132702 -0.04874659 0.02015476
v -0.01455953 0.02607948 0.02188773
v -0.01771805 0.02960796 -0.01888276
v -0.01841941 -0.05790092 0.00174791
v -0.00449862 0.01423029 0.01994694
v -0.01776503 0.02603685 0.02191615
v -0.00784927 -0.04550484 0.02004382
v -0.00579706 -0.04220231 -0.01936425
v 0.00266339 -0.05594658 0.00145823
v -0.01578442 -0.05375557 0.01561253
v -0.01018758 -0.05426151 0.01670343
v -0.01616684 -0.04996326 0.02005317
v -0.01446016 -0.04994729 0.02001800
vn 0.61702248 0.59483861 0.51521867
vn 0.59665093 -0.60758370 0.52426112
vn 0.55416552 0.57248169 -0.60428908
vn -0.59767984 0.58337045 -0.54996156
vn -0.66340050 -0.03050409 0.74764248
vn 0.59135259 -0.36796368 -0.71756870
vn 0.69556014 -0.04576780 0.71700865
vn -0.54204034 0.58708355 0.60126963
vn -0.71083114 -0.13563731 -0.69016057
vn 0.06152302 -0.14627035 0.98732968
vn 0.10231689 0.02217889 0.99450458
vn -0.73609689 0.00591054 -0.67685038
vn -0.63188642 -0.75759101 -0.16363194
vn 0.20039956 -0.00291848 0.97970990
vn -0.59926352 0.00458991 0.80053867
vn 0.12691446 -0.05294544 0.99049962
vn -0.20757377 -0.47280182 -0.85637116
vn 0.67834331 -0.70559861 -0.20489254
vn -0.51761478 -0.74343550 0.42353109
vn -0.13770642 -0.84799273 0.51180590
vn -0.57448531 -0.35101317 0.73942977
vn 0.02660752 -0.26590313 0.96363249
f 1//1 2//2 3//3
f 1//1 3//3 4//4
f 6//6 3//3 2//2
f 7//7 2//2 1//1
f 8//8 1//1 4//4
f 9//9 3//3 6//6
f 10//10 2//2 7//7
f 11//11 1//1 8//8
f 12//12 4//4 3//3
f 12//12 3//3 9//9
f 12//12 8//8 4//4
f 13//13 12//12 9//9
f 13//13 5//5 8//8
f 13//13 8//8 12//12
f 14//14 11//11 7//7
f 14//14 7//7 1//1
f 14//14 1//1 11//11
f 15//15 11//11 8//8
f 15//15 8//8 5//5
f 15//15 5//5 11//11
f 16//16 10//10 7//7
f 16//16 7//7 11//11
f 16//16 11//11 5//5
f 16//16 5//5 10//10
f 17//17 13//13 9//9
f 17//17 9//9 6//6
f 17//17 6//6 13//13
f 18//18 13//13 6//6
f 18//18 6//6 2//2
f 18//18 2//2 13//13
f 20//20 19//19 13//13
f 20//20 13//13 2//2
f 21//21 10//10 5//5
f 21//21 5//5 13//13
f 21//21 13//13 19//19
f 21//21 19//19 20//20
f 21//21 20//20 2//2
f 22//22 21//21 2//2
f 22//22 2//2 10//10
f 22//22 10//10 21//21

