# https://github.com/mikedh/trimesh
v 0.02315406 0.03455386 0.00145823
v 0.02315406 -0.04228614 0.00145823
v 0.02309547 -0.04213450 -0.01986022
v 0.00266027 0.03455865 -0.02068637
v 0.00266339 0.03455386 0.00145823
v 0.02289401 0.03457990 -0.01922154
v 0.00266339 -0.04228614 0.00145823
v 0.00270346 -0.04225002 -0.02026746
vn 0.58060601 0.57684327 0.57458551
vn 0.57836696 -0.57836103 0.57531746
vn 0.58432228 -0.57491141 -0.57275156
vn -0.55909606 0.57476131 -0.59754584
vn -0.57741782 0.57708655 0.57754634
vn 0.59123073 0.58530168 -0.55485869
vn -0.57768464 -0.57788899 0.57647616
vn -0.57073414 -0.57817777 -0.58307205
f 1//1 2//2 3//3
f 5//5 2//2 1//1
f 6//6 1//1 3//3
f 6//6 3//3 4//4
f 6//6 5//5 1//1
f 6//6 4//4 5//5
f 7//7 2//2 5//5
f 7//7 5//5 4//4
f 8//8 3//3 2//2
f 8//8 2//2 7//7
f 8//8 7//7 4//4
f 8//8 4//4 3//3

