# https://github.com/mikedh/trimesh
v 0.03314394 -0.00647653 0.01439527
v 0.03803091 -0.04303881 0.00916279
v 0.03660605 0.05979084 -0.00842698
v 0.02123586 0.06876678 -0.01956299
v 0.02315406 -0.04740880 0.00145823
v 0.03240498 -0.04221988 -0.01726596
v 0.02144650 0.06870497 -0.00878710
v 0.03825671 -0.00660971 0.01069674
v 0.03308809 -0.03550243 0.01406206
v 0.04002638 -0.03326089 -0.00991270
v 0.03515401 0.04629767 -0.01550144
v 0.02309547 -0.04213450 -0.01986022
v 0.02543747 -0.05281465 -0.00976541
v 0.03319809 0.06941157 -0.00887902
v 0.02315406 0.03455386 0.00145823
v 0.02144650 0.03455386 -0.00878710
v 0.03454860 -0.04668379 0.01139135
v 0.03579244 -0.03350592 0.01307764
v 0.03417527 -0.04799998 -0.00894252
v 0.03999023 -0.01516286 0.00753196
v 0.02947403 0.02427539 -0.01874519
v 0.03369657 -0.03530156 -0.01711301
v 0.03659116 0.05310465 -0.01282566
v 0.02926223 -0.04215322 -0.01870853
v 0.03859832 0.03113862 0.00149312
v 0.02131902 0.03455550 -0.01943333
v 0.03565604 -0.00664763 0.01305796
v 0.03814811 -0.03991732 0.01063039
v 0.03434311 -0.03527472 0.01359330
v 0.03822381 -0.04336093 -0.00158383
v 0.03641117 -0.04175634 -0.01259614
v 0.03475282 -0.04892707 0.00156204
v 0.02742899 0.06009103 -0.01866287
v 0.03661155 -0.03529145 -0.01415901
v 0.03367640 0.02567361 -0.01706920
v 0.03461028 0.06307874 -0.01283508
v 0.03088198 -0.03849741 -0.01862674
v 0.03570364 0.06315446 -0.00865055
v 0.04017176 -0.00989157 0.00321474
v 0.03844660 0.03109926 -0.00350145
v 0.03979972 -0.02999951 0.00786009
v 0.03704114 -0.04505343 0.00946581
v 0.04001234 -0.03368973 0.00474420
v 0.03651877 -0.04475244 -0.00651168
v 0.03988769 -0.03455521 -0.00861320
v 0.03654991 0.00694793 -0.01417461
v 0.03492623 -0.04002779 -0.01566105
v 0.03222395 0.05479856 -0.01701704
v 0.03627212 0.05798616 -0.01138738
v 0.03080752 0.06820282 -0.01609594
v 0.03128352 -0.02362341 -0.01861071
v 0.04012347 -0.01014474 0.00586805
v 0.04002155 -0.02956467 -0.00967099
v 0.03339738 0.05985502 -0.01565501
v 0.03628807 0.05960840 -0.00987444
v 0.02558884 0.06818774 -0.01879260
v 0.04004663 -0.01166630 -0.00010478
v 0.03476764 0.05803110 -0.01453378
v 0.03058635 0.06484428 -0.01688500
v 0.02905013 0.06807551 -0.01722843
vn -0.17697770 0.08907120 0.98017611
vn 0.91329423 -0.30272480 0.27249099
vn 0.96039672 0.22215716 0.16817947
vn -0.52900350 0.57171906 -0.62713046
vn -0.79292727 -0.47552694 0.38097306
vn 0.51790520 -0.42310432 -0.74347626
vn -0.60730941 0.62487732 0.49061555
vn 0.81754206 0.08017415 0.57026054
vn -0.24616084 -0.10410690 0.96362160
vn 0.94194547 -0.09382868 -0.32238937
vn 0.71294049 0.02898559 -0.70062522
vn -0.57345569 -0.31885934 -0.75463719
vn -0.32618025 -0.90934666 -0.25825393
vn 0.51193492 0.76816267 0.38451105
vn -0.67631986 0.17012678 0.71669263
vn -0.99629912 -0.00571520 0.08576363
vn 0.10050395 -0.65558877 0.74839984
vn 0.54367457 -0.03437564 0.83859184
vn 0.65272950 -0.68947936 -0.31394651
vn 0.96098720 0.00409463 0.27656253
vn 0.24838732 0.01004783 -0.96860868
vn 0.60643957 -0.02595746 -0.79470576
vn 0.92862952 0.07590361 -0.36316094
vn 0.25906708 -0.39557727 -0.88113726
vn 0.79175234 0.20818719 0.57427026
vn -0.84467356 -0.00935289 -0.53520006
vn 0.56802978 0.10093823 0.81679474
vn 0.80281200 -0.14861998 0.57741233
vn 0.40837272 -0.10328288 0.90695335
vn 0.92199333 -0.38216700 -0.06226302
vn 0.82368014 -0.38568593 -0.41568906
vn 0.54757429 -0.83282768 0.08099662
vn 0.28208632 0.04025830 -0.95854399
vn 0.75924697 -0.04092370 -0.64951465
vn 0.55184469 0.00963825 -0.83389120
vn 0.87184302 0.27834348 -0.40300702
vn 0.35702277 -0.05750335 -0.93232403
vn 0.91028916 0.32913332 0.25108744
vn 0.99969990 0.02159615 -0.01156398
vn 0.99679554 0.04333386 -0.06723713
vn 0.95462853 -0.02353080 0.29686809
vn 0.79311733 -0.50738100 0.33694127
vn 0.99233893 -0.09886873 0.07408388
vn 0.87503749 -0.44467099 -0.19125139
vn 0.96822300 -0.22736491 -0.10416052
vn 0.76723377 0.00508991 -0.64134736
vn 0.72174439 -0.20429505 -0.66132334
vn 0.48345009 0.05255651 -0.87379278
vn 0.94267472 0.16651043 -0.28920346
vn 0.53273851 0.64564854 -0.54710844
vn 0.34481280 0.00098655 -0.93867096
vn 0.98952399 0.03682766 0.13959226
vn 0.98146492 0.01642436 -0.19093675
vn 0.66885850 0.14404780 -0.72930003
vn 0.94307335 0.22589782 -0.24409594
vn 0.27259245 0.53460103 -0.79993443
vn 0.99792601 0.02994804 -0.05698065
vn 0.79767756 0.13986270 -0.58664209
vn 0.50346116 0.11568118 -0.85623871
vn 0.39020084 0.52376849 -0.75723832
f 9//9 1//1 5//5
f 13//13 5//5 12//12
f 14//14 7//7 1//1
f 14//14 4//4 7//7
f 15//15 7//7 5//5
f 15//15 5//5 1//1
f 15//15 1//1 7//7
f 16//16 7//7 4//4
f 16//16 5//5 7//7
f 17//17 9//9 5//5
f 17//17 5//5 13//13
f 18//18 1//1 9//9
f 19//19 13//13 6//6
f 21//21 12//12 4//4
f 23//23 10//10 11//11
f 24//24 13//13 12//12
f 24//24 6//6 13//13
f 25//25 8//8 20//20
f 25//25 14//14 1//1
f 26//26 12//12 5//5
f 26//26 5//5 16//16
f 26//26 16//16 4//4
f 26//26 4//4 12//12
f 27//27 18//18 8//8
f 27//27 1//1 18//18
f 27//27 25//25 1//1
f 27//27 8//8 25//25
f 28//28 8//8 18//18
f 29//29 18//18 9//9
f 29//29 9//9 17//17
f 29//29 28//28 18//18
f 29//29 17//17 28//28
f 31//31 19//19 6//6
f 32//32 17//17 13//13
f 32//32 13//13 19//19
f 32//32 19//19 30//30
f 33//33 21//21 4//4
f 35//35 34//34 22//22
f 37//37 22//22 6//6
f 37//37 6//6 24//24
f 37//37 24//24 12//12
f 38//38 25//25 3//3
f 38//38 14//14 25//25
f 38//38 36//36 14//14
f 40//40 23//23 3//3
f 40//40 3//3 25//25
f 40//40 25//25 39//39
f 41//41 20//20 8//8
f 41//41 8//8 28//28
f 42//42 28//28 17//17
f 42//42 2//2 28//28
f 42//42 17//17 32//32
f 42//42 32//32 30//30
f 42//42 30//30 2//2
f 43//43 2//2 30//30
f 43//43 10//10 39//39
f 43//43 20//20 41//41
f 43//43 41//41 28//28
f 43//43 28//28 2//2
f 44//44 31//31 30//30
f 44//44 30//30 19//19
f 44//44 19//19 31//31
f 45//45 31//31 10//10
f 45//45 30//30 31//31
f 45//45 43//43 30//30
f 45//45 10//10 43//43
f 46//46 11//11 10//10
f 46//46 10//10 34//34
f 46//46 35//35 11//11
f 46//46 34//34 35//35
f 47//47 34//34 10//10
f 47//47 10//10 31//31
f 47//47 31//31 6//6
f 47//47 6//6 22//22
f 47//47 22//22 34//34
f 48//48 11//11 35//35
f 48//48 35//35 21//21
f 48//48 21//21 33//33
f 49//49 3//3 23//23
f 49//49 23//23 36//36
f 50//50 4//4 14//14
f 50//50 14//14 36//36
f 51//51 35//35 22//22
f 51//51 22//22 37//37
f 51//51 21//21 35//35
f 51//51 37//37 12//12
f 51//51 12//12 21//21
f 52//52 39//39 25//25
f 52//52 25//25 20//20
f 52//52 43//43 39//39
f 52//52 20//20 43//43
f 53//53 10//10 23//23
f 53//53 23//23 40//40
f 53//53 39//39 10//10
f 54//54 11//11 48//48
f 55//55 38//38 3//3
f 55//55 3//3 49//49
f 55//55 49//49 36//36
f 55//55 36//36 38//38
f 56//56 33//33 4//4
f 56//56 4//4 50//50
f 56//56 48//48 33//33
f 57//57 53//53 40//40
f 57//57 40//40 39//39
f 57//57 39//39 53//53
f 58//58 23//23 11//11
f 58//58 11//11 54//54
f 58//58 36//36 23//23
f 58//58 54//54 50//50
f 58//58 50//50 36//36
f 59//59 54//54 48//48
f 59//59 50//50 54//54
f 59//59 48//48 56//56
f 60//60 59//59 56//56
f 60//60 56//56 50//50
f 60//60 50//50 59//59

