# https://github.com/mikedh/trimesh
v 0.00553713 -0.05556185 0.01676649
v 0.02273819 -0.05474288 0.00646265
v -0.01919349 -0.05489238 0.00951038
v -0.00525577 -0.05527135 -0.01721953
v -0.00287890 -0.10052142 -0.00399455
v -0.01198159 -0.05482746 -0.01442999
v -0.01055719 -0.05503093 0.01583163
v -0.01333270 -0.09724295 0.02043955
v 0.01393083 -0.05480202 -0.01462659
v -0.00779294 -0.07376729 -0.01369430
v 0.01379200 -0.05506299 0.01358235
v 0.00952529 -0.09783744 0.00215715
v -0.01636479 -0.09143961 0.02070391
v -0.00666469 -0.06773383 -0.01533162
v 0.00526083 -0.09741831 -0.00846321
v -0.00557631 -0.05515049 0.01697751
v 0.00551545 -0.06931917 0.01652142
v 0.00057595 -0.09994333 0.00784678
v -0.01236688 -0.09140793 0.02079500
v -0.02264603 -0.05512560 -0.00342429
v -0.01836409 -0.09803097 0.01165208
v -0.00956028 -0.06949321 -0.01362304
v 0.00392274 -0.07413757 -0.01532550
v 0.00002988 -0.09617016 -0.00878337
v 0.00537939 -0.10004234 -0.00623325
v 0.02260063 -0.05508480 -0.00512280
v 0.01021226 -0.05545528 0.01520826
v 0.00624637 -0.09487429 0.00807461
v 0.00829298 -0.07269066 0.01480679
v -0.01673811 -0.09634178 0.02052431
v -0.01222268 -0.09604308 0.02026239
v -0.02080722 -0.05488027 -0.00670984
v -0.01363748 -0.09857137 0.01924856
v -0.00572191 -0.09604443 -0.00534304
v -0.00179522 -0.07533235 -0.01539824
v 0.00396445 -0.05545246 -0.01742240
v 0.00842795 -0.07444687 -0.01351985
v 0.00020547 -0.09892265 -0.00685765
v 0.00547559 -0.09999721 0.00125316
v 0.02093155 -0.05502828 -0.00838223
v 0.01092204 -0.09632768 -0.00348828
v 0.00782661 -0.09716366 0.00523695
v 0.01151105 -0.06758293 0.01320772
v 0.01092329 -0.07557929 0.01173068
v -0.01975169 -0.09541557 0.01757847
v 0.00483082 -0.09742444 0.00798269
v 0.00682895 -0.07581173 0.01494312
v -0.02271663 -0.05510958 0.00633980
v -0.01832081 -0.09674452 0.01770741
v -0.01578275 -0.09707898 0.02012656
v -0.01416895 -0.09939988 0.00769306
v -0.00445761 -0.09588849 -0.00677661
v -0.01293670 -0.07394808 -0.00875848
v -0.00506594 -0.07273748 -0.01519287
v 0.00081624 -0.07562262 -0.01530825
v 0.00447198 -0.09754659 -0.00845153
v 0.01076689 -0.05508626 -0.01583896
v -0.00233231 -0.05932592 -0.01711025
v 0.00541633 -0.07254952 -0.01530890
v -0.00012233 -0.10033182 -0.00557737
v 0.00839587 -0.09865630 0.00230646
v 0.01168934 -0.07261617 -0.01192996
v 0.01098395 -0.09601960 -0.00058813
v 0.00808533 -0.09873928 -0.00577599
vn 0.15980546 0.58179310 0.79748292
vn 0.78027312 0.52568600 0.33886293
vn -0.42128114 0.75817922 0.49768109
vn -0.16344946 0.57094031 -0.80455667
vn -0.29568695 -0.88089749 -0.36957927
vn -0.42059013 0.62588790 -0.65678632
vn -0.27257087 0.72272118 0.63512142
vn 0.18050115 -0.43832915 0.88050377
vn 0.42306723 0.60485323 -0.67466043
vn -0.51788331 -0.26996053 -0.81173776
vn 0.41138147 0.62276021 0.66553363
vn 0.75487838 -0.59621026 0.27329831
vn -0.40621475 0.07773283 0.91046537
vn -0.36433901 -0.12521846 -0.92280953
vn 0.30186200 -0.42445236 -0.85365070
vn -0.04825988 0.70177949 0.71075772
vn 0.35407979 -0.06376575 0.93303881
vn 0.22250882 -0.91982353 0.32313233
vn 0.14332341 -0.01624941 0.98954250
vn -0.81607108 0.52311371 -0.24572349
vn -0.72512150 -0.66561295 -0.17651689
vn -0.57258005 -0.18745670 -0.79813036
vn 0.15966886 -0.19697196 -0.96731996
vn -0.22045879 -0.43043920 -0.87528282
vn 0.22504207 -0.88030129 -0.41764304
vn 0.83570644 0.50888719 -0.20646689
vn 0.31673510 0.41378526 0.85349905
vn 0.62648361 -0.31947667 0.71095214
vn 0.53250067 -0.16517048 0.83015766
vn -0.42887335 -0.39239172 0.81369306
vn 0.41400126 -0.22955175 0.88085694
vn -0.64772670 0.58472044 -0.48841799
vn -0.01950166 -0.88069922 0.47327430
vn -0.66951613 -0.44269998 -0.59646029
vn -0.12832399 -0.22877490 -0.96498445
vn 0.08707117 0.53072668 -0.84305860
vn 0.45829273 -0.22566690 -0.85967565
vn -0.22135792 -0.60709580 -0.76317453
vn 0.24798689 -0.96497788 0.08555812
vn 0.67401978 0.55066464 -0.49240815
vn 0.84320150 -0.46483328 -0.27007640
vn 0.66152667 -0.51192404 0.54801117
vn 0.62510042 -0.15287937 0.76542626
vn 0.68536797 -0.26016798 0.68013482
vn -0.89589936 -0.29007505 0.33648299
vn 0.52557158 -0.56710050 0.63416996
vn 0.51487289 -0.22573671 0.82701200
vn -0.75046383 0.60955620 0.25543156
vn -0.56588406 -0.77200292 0.28945936
vn -0.30721814 -0.74798610 0.58833138
vn -0.43323791 -0.85971908 -0.27053285
vn -0.52891359 -0.43844983 -0.72664445
vn -0.72789065 -0.27839049 -0.62663701
vn -0.29619859 -0.19617403 -0.93476315
vn 0.04969731 -0.21445587 -0.97546853
vn 0.00032454 -0.50379155 -0.86382520
vn 0.22102053 0.54413897 -0.80935944
vn -0.04739896 -0.09114396 -0.99470906
vn 0.27924634 -0.16740569 -0.94551405
vn -0.13514196 -0.87228619 -0.46995048
vn 0.50480062 -0.83261496 0.22787863
vn 0.62303169 -0.22919655 -0.74786393
vn 0.90532734 -0.40918455 0.11379987
vn 0.61766086 -0.65556140 -0.43443562
f 6//6 3//3 2//2
f 7//7 2//2 3//3
f 9//9 6//6 2//2
f 9//9 4//4 6//6
f 11//11 2//2 7//7
f 13//13 7//7 3//3
f 14//14 6//6 4//4
f 16//16 11//11 7//7
f 16//16 1//1 11//11
f 16//16 7//7 13//13
f 19//19 16//16 13//13
f 19//19 1//1 16//16
f 19//19 17//17 1//1
f 22//22 6//6 14//14
f 27//27 17//17 11//11
f 27//27 11//11 1//1
f 27//27 1//1 17//17
f 29//29 11//11 17//17
f 30//30 19//19 13//13
f 30//30 8//8 19//19
f 31//31 19//19 8//8
f 31//31 17//17 19//19
f 31//31 29//29 17//17
f 32//32 3//3 6//6
f 32//32 6//6 22//22
f 32//32 21//21 20//20
f 39//39 18//18 5//5
f 39//39 5//5 25//25
f 40//40 9//9 2//2
f 40//40 2//2 26//26
f 41//41 26//26 2//2
f 41//41 40//40 26//26
f 42//42 12//12 2//2
f 43//43 29//29 2//2
f 43//43 2//2 11//11
f 43//43 11//11 29//29
f 44//44 2//2 29//29
f 44//44 42//42 2//2
f 44//44 28//28 42//42
f 45//45 20//20 21//21
f 45//45 30//30 13//13
f 46//46 31//31 8//8
f 46//46 28//28 31//31
f 46//46 42//42 28//28
f 46//46 33//33 18//18
f 46//46 8//8 33//33
f 47//47 31//31 28//28
f 47//47 29//29 31//31
f 47//47 44//44 29//29
f 47//47 28//28 44//44
f 48//48 32//32 20//20
f 48//48 3//3 32//32
f 48//48 20//20 45//45
f 48//48 45//45 13//13
f 48//48 13//13 3//3
f 49//49 21//21 33//33
f 49//49 45//45 21//21
f 49//49 30//30 45//45
f 50//50 33//33 8//8
f 50//50 8//8 30//30
f 50//50 49//49 33//33
f 50//50 30//30 49//49
f 51//51 33//33 21//21
f 51//51 5//5 18//18
f 51//51 18//18 33//33
f 51//51 34//34 5//5
f 51//51 21//21 34//34
f 52//52 5//5 34//34
f 52//52 38//38 5//5
f 52//52 24//24 38//38
f 52//52 10//10 24//24
f 53//53 22//22 10//10
f 53//53 52//52 34//34
f 53//53 10//10 52//52
f 53//53 32//32 22//22
f 53//53 34//34 21//21
f 53//53 21//21 32//32
f 54//54 14//14 4//4
f 54//54 4//4 35//35
f 54//54 22//22 14//14
f 54//54 10//10 22//22
f 54//54 35//35 24//24
f 54//54 24//24 10//10
f 55//55 23//23 15//15
f 55//55 36//36 23//23
f 55//55 35//35 36//36
f 56//56 24//24 35//35
f 56//56 38//38 24//24
f 56//56 15//15 25//25
f 56//56 55//55 15//15
f 56//56 35//35 55//55
f 57//57 36//36 4//4
f 57//57 4//4 9//9
f 58//58 36//36 35//35
f 58//58 35//35 4//4
f 58//58 4//4 36//36
f 59//59 37//37 15//15
f 59//59 15//15 23//23
f 59//59 23//23 36//36
f 59//59 36//36 57//57
f 59//59 57//57 9//9
f 59//59 9//9 37//37
f 60//60 25//25 5//5
f 60//60 5//5 38//38
f 60//60 56//56 25//25
f 60//60 38//38 56//56
f 61//61 39//39 25//25
f 61//61 18//18 39//39
f 61//61 46//46 18//18
f 61//61 12//12 42//42
f 61//61 42//42 46//46
f 62//62 37//37 9//9
f 62//62 9//9 40//40
f 62//62 15//15 37//37
f 63//63 41//41 2//2
f 63//63 2//2 12//12
f 63//63 12//12 41//41
f 64//64 41//41 12//12
f 64//64 25//25 15//15
f 64//64 15//15 62//62
f 64//64 62//62 40//40
f 64//64 40//40 41//41
f 64//64 61//61 25//25
f 64//64 12//12 61//61

