# https://github.com/mikedh/trimesh
v 0.01930645 0.06996514 0.01641153
v 0.03834077 0.03113770 0.00789994
v 0.03147388 0.06770717 -0.01575829
v -0.01496030 0.06981102 -0.02034440
v -0.03108941 0.03428792 0.01826469
v 0.02131902 0.03455550 -0.01943333
v 0.02258197 0.07534521 -0.01503468
v 0.03478495 0.06916394 0.00753971
v 0.02283042 0.03462213 0.01665034
v -0.02575812 0.07386130 0.01437042
v 0.03723776 0.03119482 -0.01069409
v 0.01594437 0.07086792 -0.02055740
v -0.01781277 0.03454746 -0.01885284
v 0.02431717 0.07550383 0.01077928
v 0.02852848 0.07361883 -0.01156999
v 0.03538654 0.03112075 0.01284026
v -0.01782874 0.03455379 0.02169082
v -0.03571300 0.05757866 -0.01127749
v -0.02249683 0.07543199 -0.01416469
v 0.03223449 0.06322210 -0.01602985
v 0.03660605 0.05979084 -0.00842698
v 0.00426392 0.03471831 -0.02060738
v 0.02535336 0.07253714 -0.01713659
v 0.03783004 0.03104958 -0.00868462
v 0.02886233 0.07052495 0.01316812
v -0.00450033 0.07354499 0.01711835
v 0.03315936 0.06926404 -0.00992606
v 0.03026815 0.07365968 0.00763978
v 0.03653618 0.05496643 0.01039993
v 0.02959073 0.05151188 0.01481258
v 0.00937074 0.06359762 0.01840452
v -0.02554382 0.06818595 0.01849346
v -0.02807261 0.03455386 0.00145823
v -0.03085097 0.05658590 -0.01605030
v -0.03469910 0.06463843 -0.00976953
v 0.00939956 0.07273724 -0.02032885
v 0.00281278 0.07539169 -0.01645126
v -0.01764146 0.07536724 0.01465731
v 0.02450617 0.06837411 -0.01927790
v 0.03367115 0.06318382 -0.01450600
v 0.00597454 0.03642116 -0.02066007
v -0.00222642 0.03810499 -0.02062298
v -0.00057937 0.03466655 -0.02053365
v 0.03151863 0.07021176 -0.01301565
v 0.02668259 0.07361921 -0.01456257
v 0.03782720 0.03110182 0.00972649
v 0.03833649 0.04122668 0.00153596
v 0.02280165 0.07271392 0.01469339
v 0.03647481 0.06484678 0.00180808
v 0.03317615 0.07071028 -0.00014322
v 0.03319514 0.07057885 0.00897232
v 0.02858127 0.07351103 0.01049855
v 0.02583675 0.07520071 -0.01202122
v 0.02094928 0.06350630 0.01651641
v 0.03121215 0.03441858 0.01494555
v 0.03204941 0.06494737 0.01321656
v -0.01769431 0.06814621 0.02036158
v -0.03112690 0.04664952 0.01784264
v -0.01534482 0.06821152 -0.02037731
v -0.02583886 0.07153023 -0.01690096
v -0.02554131 0.07507895 -0.01340004
v 0.00631338 0.07233736 -0.02043482
v 0.02104204 0.07282300 -0.01856597
v -0.00430946 0.07538666 0.01423933
vn 0.17187274 0.24577119 0.95396870
vn 0.76723523 -0.63311004 0.10257572
vn 0.67766719 0.33900116 -0.65256830
vn -0.12208898 0.35190798 -0.92803828
vn -0.63059932 -0.59516243 0.49812266
vn 0.18845717 -0.52202402 -0.83185024
vn 0.16512537 0.92293616 -0.34773906
vn 0.86686388 0.43806299 0.23800802
vn 0.14541675 -0.26278792 0.95383252
vn -0.57054530 0.70987799 0.41297857
vn 0.59103055 -0.63478239 -0.49772904
vn 0.10724802 0.25313079 -0.96146901
vn -0.33397568 -0.67048358 -0.66250435
vn 0.21049795 0.92008102 0.33036576
vn 0.59998942 0.77475390 -0.19942188
vn 0.43146950 -0.66423540 0.61043050
vn -0.06791333 -0.57887444 0.81258363
vn -0.93683816 -0.05525535 -0.34537096
vn -0.11944405 0.90934126 -0.39853681
vn 0.57527505 0.04783923 -0.81655987
vn 0.96424637 0.14789716 -0.21989852
vn 0.00907194 -0.57752915 -0.81631965
vn 0.41734965 0.57163345 -0.70643788
vn 0.70675692 -0.69196139 -0.14725518
vn 0.45831010 0.41333288 0.78683402
vn 0.04986831 0.63612005 0.76997691
vn 0.84262939 0.50180304 -0.19536995
vn 0.53105727 0.83667563 0.13398533
vn 0.87533428 0.08843924 0.47536134
vn 0.30186126 0.03998266 0.95251308
vn 0.11680625 0.07336319 0.99044139
vn -0.56400574 0.30726796 0.76647500
vn -0.56531313 -0.80615686 -0.17473461
vn -0.55840023 -0.07146023 -0.82648812
vn -0.91396327 0.35884967 -0.18946785
vn 0.02421944 0.56213322 -0.82669200
vn -0.01895550 0.94150945 -0.33645302
vn -0.09561654 0.89860320 0.42821697
vn 0.31393439 0.16612863 -0.93479756
vn 0.84675364 0.16028471 -0.50726431
vn 0.03902039 -0.04180380 -0.99836359
vn -0.05410755 -0.03152612 -0.99803731
vn -0.03799500 -0.61415016 -0.78827404
vn 0.73651929 0.57010319 -0.36403527
vn 0.51033561 0.72795489 -0.45786377
vn 0.67622827 -0.65385574 0.33939358
vn 0.99908077 0.04270389 0.00374065
vn 0.23631759 0.54265542 0.80602673
vn 0.96630535 0.25739842 0.00017989
vn 0.75432666 0.65328622 -0.06487231
vn 0.71892140 0.55765932 0.41493144
vn 0.47274924 0.73275815 0.48946261
vn 0.32508787 0.93248809 -0.15742884
vn 0.21633948 0.05170878 0.97494791
vn 0.29804972 -0.13026257 0.94562045
vn 0.56951131 0.18577414 0.80071520
vn -0.08680775 0.31435209 0.94532914
vn -0.74655907 0.06977097 0.66165064
vn -0.16002676 0.02751106 -0.98672923
vn -0.46988668 0.41557766 -0.77878220
vn -0.47189355 0.83311646 -0.28850208
vn -0.04188434 0.41028277 -0.91099602
vn 0.20084734 0.58915641 -0.78265898
vn 0.02133192 0.95285740 0.30266767
f 17//17 16//16 9//9
f 17//17 5//5 16//16
f 20//20 11//11 6//6
f 22//22 6//6 11//11
f 24//24 13//13 11//11
f 24//24 16//16 5//5
f 24//24 11//11 21//21
f 31//31 17//17 9//9
f 33//33 18//18 13//13
f 33//33 5//5 18//18
f 33//33 24//24 5//5
f 33//33 13//13 24//24
f 34//34 13//13 18//18
f 37//37 19//19 14//14
f 37//37 14//14 7//7
f 37//37 36//36 19//19
f 37//37 7//7 36//36
f 38//38 14//14 19//19
f 39//39 3//3 20//20
f 39//39 23//23 3//3
f 39//39 20//20 6//6
f 39//39 6//6 12//12
f 40//40 21//21 11//11
f 40//40 11//11 20//20
f 40//40 20//20 3//3
f 40//40 27//27 21//21
f 40//40 3//3 27//27
f 41//41 12//12 6//6
f 41//41 6//6 22//22
f 42//42 41//41 22//22
f 42//42 12//12 41//41
f 43//43 22//22 11//11
f 43//43 11//11 13//13
f 43//43 42//42 22//22
f 43//43 13//13 42//42
f 44//44 27//27 3//3
f 44//44 15//15 27//27
f 45//45 23//23 7//7
f 45//45 15//15 44//44
f 45//45 44//44 3//3
f 45//45 3//3 23//23
f 46//46 24//24 2//2
f 46//46 16//16 24//24
f 46//46 29//29 16//16
f 46//46 2//2 29//29
f 47//47 24//24 21//21
f 47//47 2//2 24//24
f 47//47 29//29 2//2
f 48//48 1//1 25//25
f 48//48 26//26 1//1
f 48//48 14//14 26//26
f 49//49 27//27 8//8
f 49//49 21//21 27//27
f 49//49 8//8 29//29
f 49//49 47//47 21//21
f 49//49 29//29 47//47
f 50//50 27//27 15//15
f 50//50 15//15 28//28
f 50//50 28//28 8//8
f 50//50 8//8 27//27
f 51//51 8//8 28//28
f 52//52 28//28 14//14
f 52//52 51//51 28//28
f 52//52 25//25 51//51
f 52//52 48//48 25//25
f 52//52 14//14 48//48
f 53//53 28//28 15//15
f 53//53 7//7 14//14
f 53//53 14//14 28//28
f 53//53 45//45 7//7
f 53//53 15//15 45//45
f 54//54 31//31 9//9
f 54//54 1//1 31//31
f 55//55 9//9 16//16
f 55//55 54//54 9//9
f 55//55 30//30 54//54
f 56//56 54//54 30//30
f 56//56 25//25 1//1
f 56//56 1//1 54//54
f 56//56 51//51 25//25
f 56//56 29//29 8//8
f 56//56 8//8 51//51
f 56//56 16//16 29//29
f 56//56 55//55 16//16
f 56//56 30//30 55//55
f 57//57 31//31 1//1
f 57//57 1//1 26//26
f 57//57 26//26 38//38
f 57//57 38//38 10//10
f 57//57 10//10 32//32
f 57//57 32//32 17//17
f 57//57 17//17 31//31
f 58//58 5//5 17//17
f 58//58 17//17 32//32
f 58//58 32//32 10//10
f 58//58 10//10 35//35
f 58//58 35//35 18//18
f 58//58 18//18 5//5
f 59//59 13//13 34//34
f 59//59 42//42 13//13
f 59//59 4//4 12//12
f 59//59 12//12 42//42
f 60//60 19//19 4//4
f 60//60 59//59 34//34
f 60//60 4//4 59//59
f 60//60 34//34 18//18
f 60//60 18//18 35//35
f 61//61 35//35 10//10
f 61//61 60//60 35//35
f 61//61 19//19 60//60
f 61//61 38//38 19//19
f 61//61 10//10 38//38
f 62//62 36//36 12//12
f 62//62 12//12 4//4
f 62//62 4//4 19//19
f 62//62 19//19 36//36
f 63//63 12//12 36//36
f 63//63 39//39 12//12
f 63//63 23//23 39//39
f 63//63 36//36 7//7
f 63//63 7//7 23//23
f 64//64 38//38 26//26
f 64//64 26//26 14//14
f 64//64 14//14 38//38

