# https://github.com/mikedh/trimesh
v 0.02283042 0.03462213 0.01665034
v 0.03704114 -0.04505343 0.00946581
v 0.03848767 0.03478577 0.00096854
v 0.00266339 0.03455386 0.00145823
v 0.00267879 -0.05577349 0.01735450
v 0.00266339 -0.05594658 0.00145823
v 0.00264302 0.03456581 0.01839609
v 0.03701931 0.03447762 0.01075056
v 0.02965712 -0.04212888 0.01480676
v 0.03475282 -0.04892707 0.00156204
v -0.00587439 -0.02008791 0.00145823
v 0.00939522 -0.00970351 0.01844397
v 0.03853956 -0.00304638 0.00922546
v 0.03421886 0.03447226 0.01352619
v 0.03084132 -0.04772493 0.01335639
v 0.02290178 -0.05554581 0.00146378
v 0.03956902 -0.00309757 0.00153274
v -0.00587439 -0.03204080 0.00145823
v -0.00080930 -0.01141468 0.01895670
v 0.00764716 0.01742123 0.01840151
v 0.02437326 -0.02681465 0.01652576
v 0.03834077 0.03113770 0.00789994
v 0.03667667 0.01727962 0.01182293
v 0.02778128 -0.04518641 0.01479384
v 0.03672199 -0.04164129 0.01169481
v 0.03087498 -0.05076150 0.00937626
v 0.00718919 -0.05579876 0.01628939
v -0.00587439 -0.03204080 0.01170356
v 0.00238385 -0.04711881 0.01843292
v 0.02449054 -0.02027613 0.01655133
v 0.03774898 0.03448923 0.00952760
v 0.03859832 0.03113862 0.00149312
v 0.03239119 -0.04651674 0.01314450
v 0.03122392 -0.03371292 0.01473164
v 0.03532204 -0.04760674 0.00924751
v 0.02239871 -0.05398657 0.00919147
v 0.03058759 -0.05049380 0.01030949
v -0.00587439 -0.02008791 0.01170356
v 0.02278961 -0.03530077 0.01656645
v 0.00419423 -0.04728553 0.01819455
v -0.00083671 -0.01489039 0.01866423
v 0.03121215 0.03441858 0.01494555
v 0.03823402 0.02599433 0.00899463
v 0.03394353 -0.04347865 0.01319041
v 0.03492635 -0.04730671 0.01064160
v 0.03647913 -0.04496203 0.01036870
v 0.03351875 -0.04775850 0.01148278
vn 0.10720056 0.69555604 0.71042933
vn 0.93859738 -0.30501183 0.16125368
vn 0.57780109 0.59140992 -0.56247685
vn -0.53226360 0.61461536 -0.58218847
vn -0.42789217 -0.67016803 0.60645124
vn -0.45688583 -0.66332119 -0.59267220
vn -0.50781769 0.61437212 0.60387755
vn 0.58388490 0.67014058 0.45824668
vn 0.25382924 -0.09891280 0.96217824
vn 0.61406209 -0.48066771 -0.62600823
vn -0.72530484 0.05585144 -0.68615851
vn 0.08662316 -0.00249654 0.99623802
vn 0.93139064 -0.00643501 0.36396438
vn 0.42387468 0.66086194 0.61934784
vn 0.34421873 -0.47949478 0.80721634
vn 0.21652164 -0.76498718 -0.60655831
vn 0.79077055 -0.01888012 -0.61182145
vn -0.73326895 -0.12744189 -0.66788863
vn -0.47036728 0.02498937 0.88211686
vn 0.06924521 0.01147138 0.99753371
vn 0.17848422 -0.01467245 0.98383337
vn 0.98696310 0.05713700 0.15046328
vn 0.72777818 0.00679038 0.68577898
vn 0.20851671 -0.18171118 0.96099003
vn 0.79354650 -0.09875454 0.60044274
vn 0.46950866 -0.85192020 0.23193445
vn 0.16086718 -0.80601076 0.56962128
vn -0.93317783 -0.13954698 0.33121863
vn -0.33729693 -0.09655536 0.93643358
vn 0.18787835 -0.00353490 0.98218595
vn 0.70245139 0.66015388 0.26600544
vn 0.99943316 0.03045546 0.01434675
vn 0.44683428 -0.32646071 0.83292409
vn 0.35253335 -0.01869548 0.93561248
vn 0.70804006 -0.67928094 0.19301988
vn 0.28624713 -0.90906494 0.30275982
vn 0.39696175 -0.78503587 0.47554185
vn -0.95885204 0.05115487 0.27925963
vn 0.15615870 -0.04794150 0.98656782
vn 0.13350785 -0.09552196 0.98643358
vn -0.66756439 -0.05908129 0.74220427
vn 0.25139486 0.61835826 0.74460304
vn 0.93996527 0.01475724 0.34095089
vn 0.47581755 -0.17918335 0.86109871
vn 0.64081026 -0.56357404 0.52129311
vn 0.72222048 -0.34559617 0.59913343
vn 0.51463935 -0.60742566 0.60512842
f 7//7 1//1 3//3
f 7//7 3//3 4//4
f 11//11 4//4 3//3
f 11//11 7//7 4//4
f 14//14 8//8 3//3
f 14//14 3//3 1//1
f 16//16 6//6 3//3
f 16//16 3//3 10//10
f 17//17 10//10 3//3
f 17//17 2//2 10//10
f 17//17 13//13 2//2
f 18//18 11//11 3//3
f 18//18 3//3 6//6
f 20//20 12//12 1//1
f 20//20 1//1 7//7
f 20//20 19//19 12//12
f 20//20 7//7 19//19
f 22//22 13//13 17//17
f 23//23 8//8 14//14
f 24//24 5//5 15//15
f 25//25 2//2 13//13
f 25//25 13//13 23//23
f 25//25 23//23 14//14
f 26//26 16//16 10//10
f 27//27 5//5 6//6
f 27//27 6//6 16//16
f 27//27 15//15 5//5
f 28//28 18//18 6//6
f 28//28 6//6 5//5
f 28//28 11//11 18//18
f 29//29 12//12 19//19
f 29//29 28//28 5//5
f 30//30 1//1 12//12
f 30//30 12//12 21//21
f 31//31 22//22 3//3
f 31//31 3//3 8//8
f 32//32 22//22 17//17
f 32//32 17//17 3//3
f 32//32 3//3 22//22
f 33//33 24//24 15//15
f 33//33 9//9 24//24
f 34//34 25//25 14//14
f 34//34 30//30 21//21
f 34//34 21//21 9//9
f 35//35 26//26 10//10
f 35//35 10//10 2//2
f 36//36 27//27 16//16
f 36//36 16//16 26//26
f 37//37 15//15 27//27
f 37//37 36//36 26//26
f 37//37 27//27 36//36
f 38//38 28//28 19//19
f 38//38 19//19 7//7
f 38//38 7//7 11//11
f 38//38 11//11 28//28
f 39//39 21//21 12//12
f 39//39 12//12 29//29
f 39//39 9//9 21//21
f 39//39 24//24 9//9
f 40//40 29//29 5//5
f 40//40 5//5 24//24
f 40//40 39//39 29//29
f 40//40 24//24 39//39
f 41//41 29//29 19//19
f 41//41 19//19 28//28
f 41//41 28//28 29//29
f 42//42 14//14 1//1
f 42//42 1//1 30//30
f 42//42 34//34 14//14
f 42//42 30//30 34//34
f 43//43 13//13 22//22
f 43//43 22//22 31//31
f 43//43 23//23 13//13
f 43//43 31//31 8//8
f 43//43 8//8 23//23
f 44//44 33//33 25//25
f 44//44 9//9 33//33
f 44//44 34//34 9//9
f 44//44 25//25 34//34
f 45//45 25//25 33//33
f 45//45 35//35 2//2
f 45//45 37//37 26//26
f 45//45 26//26 35//35
f 46//46 45//45 2//2
f 46//46 2//2 25//25
f 46//46 25//25 45//45
f 47//47 45//45 33//33
f 47//47 33//33 15//15
f 47//47 15//15 37//37
f 47//47 37//37 45//45

