# https://github.com/mikedh/trimesh
v -0.01781566 0.00213014 0.02120630
v -0.01792442 -0.03203740 0.02126403
v -0.01780422 -0.03204625 -0.01882662
v -0.01782729 0.01235569 -0.01902304
v -0.03830823 0.00190777 -0.00684801
v -0.03246667 0.01243338 0.01673615
v -0.03674528 -0.03217632 0.01098066
v -0.03223626 -0.00078019 -0.01703950
v -0.02760971 -0.03216889 0.02035029
v -0.01782728 0.01235564 0.01341112
v -0.03656234 0.01220045 -0.01106538
v -0.03826274 -0.01159845 0.00621963
v -0.03650187 -0.03191324 -0.01136973
v -0.02704747 0.00202650 0.01989228
v -0.02601313 0.01249567 -0.01730202
v -0.03731948 0.01230951 -0.00697718
v -0.03670073 -0.01157674 0.01107709
v -0.03623553 0.00858321 -0.01273250
v -0.03815832 -0.02677979 -0.00522951
v -0.03245488 -0.03207667 -0.01578076
v -0.03237352 0.00340871 -0.01682541
v -0.03807172 0.00205255 -0.00830353
v -0.03470727 -0.03188304 -0.01419842
v -0.03239615 0.01223136 -0.01530221
v -0.03827853 -0.02691494 0.00312869
v -0.02778696 -0.03206049 -0.01720459
v -0.03374744 0.00863273 -0.01540874
v -0.03622412 -0.00256589 -0.01274200
v -0.03804856 -0.02000940 -0.00680647
v -0.03496115 0.01005335 -0.01397414
vn 0.62400624 0.18838656 0.75837110
vn 0.55301707 -0.56884479 0.60875918
vn 0.53555405 -0.57154503 -0.62170583
vn 0.53268961 0.56866758 -0.62678462
vn -0.99768513 0.05434725 -0.04087481
vn -0.48985556 0.66198633 0.56728797
vn -0.68093188 -0.65816435 0.32117200
vn -0.45836978 0.00253960 -0.88875795
vn -0.32186796 -0.64260123 0.69531624
vn 0.65405620 0.69591807 0.29649373
vn -0.66716445 0.68482304 -0.29310237
vn -0.98489122 0.04125473 0.16818836
vn -0.70470317 -0.65978439 -0.26091762
vn -0.28467477 0.08627131 0.95473428
vn -0.15853708 0.73911763 -0.65465344
vn -0.71196857 0.70213789 -0.01015571
vn -0.89394254 0.02816658 0.44729563
vn -0.85343161 0.06648808 -0.51694663
vn -0.98785460 -0.12656042 -0.09014298
vn -0.32782597 -0.68589610 -0.64967428
vn -0.44966466 0.05284563 -0.89163279
vn -0.96585535 0.02768215 -0.25759879
vn -0.59387482 -0.59578414 -0.54069765
vn -0.33920172 0.71570503 -0.61049856
vn -0.98991523 -0.13420200 0.04536146
vn -0.15690936 -0.69658114 -0.70011011
vn -0.56894826 0.11964083 -0.81362396
vn -0.84312622 -0.00487941 -0.53769357
vn -0.97998638 -0.01783774 -0.19826375
vn -0.70388213 0.22506486 -0.67371786
f 1//1 2//2 3//3
f 1//1 3//3 4//4
f 8//8 4//4 3//3
f 9//9 2//2 1//1
f 9//9 6//6 7//7
f 9//9 7//7 3//3
f 9//9 3//3 2//2
f 10//10 6//6 1//1
f 10//10 1//1 4//4
f 14//14 9//9 1//1
f 14//14 1//1 6//6
f 14//14 6//6 9//9
f 15//15 10//10 4//4
f 15//15 6//6 10//10
f 16//16 15//15 11//11
f 16//16 6//6 15//15
f 16//16 12//12 6//6
f 16//16 5//5 12//12
f 17//17 12//12 7//7
f 17//17 7//7 6//6
f 17//17 6//6 12//12
f 20//20 3//3 7//7
f 20//20 7//7 13//13
f 21//21 15//15 4//4
f 21//21 4//4 8//8
f 22//22 16//16 11//11
f 22//22 5//5 16//16
f 22//22 11//11 18//18
f 23//23 20//20 13//13
f 23//23 8//8 20//20
f 24//24 11//11 15//15
f 24//24 15//15 21//21
f 25//25 12//12 5//5
f 25//25 5//5 19//19
f 25//25 7//7 12//12
f 25//25 19//19 13//13
f 25//25 13//13 7//7
f 26//26 20//20 8//8
f 26//26 8//8 3//3
f 26//26 3//3 20//20
f 27//27 21//21 8//8
f 27//27 8//8 18//18
f 27//27 24//24 21//21
f 28//28 22//22 18//18
f 28//28 13//13 22//22
f 28//28 23//23 13//13
f 28//28 18//18 8//8
f 28//28 8//8 23//23
f 29//29 19//19 5//5
f 29//29 5//5 22//22
f 29//29 22//22 13//13
f 29//29 13//13 19//19
f 30//30 27//27 18//18
f 30//30 18//18 11//11
f 30//30 11//11 24//24
f 30//30 24//24 27//27

