# https://github.com/mikedh/trimesh
v -0.01618387 -0.03218381 0.02103512
v -0.00587439 -0.04228614 -0.00878710
v -0.00577927 -0.03181947 -0.01923802
v -0.02778696 -0.03206049 -0.01720459
v -0.02567363 -0.05390007 0.00774543
v -0.01522342 -0.05440691 -0.01311237
v -0.03650187 -0.03191324 -0.01136973
v -0.00587439 -0.03204080 -0.00878710
v -0.01587104 -0.05263113 0.01761848
v -0.00579706 -0.04220231 -0.01936425
v -0.03470727 -0.03188304 -0.01419842
v -0.03303877 -0.03224520 0.01730711
v -0.03305528 -0.04741824 -0.01274208
v -0.01616684 -0.04996326 0.02005317
v -0.01554565 -0.05435107 0.01436930
v -0.01770153 -0.03377466 -0.01888385
v -0.03674528 -0.03217632 0.01098066
v -0.02559920 -0.05372782 -0.00488402
v -0.03454490 -0.04512958 -0.01263103
v -0.02439416 -0.04823633 -0.01691093
v -0.02918227 -0.03692670 0.01986870
v -0.02664806 -0.04912340 0.01683414
v -0.01608988 -0.03222005 -0.01893182
v -0.02866328 -0.05028082 -0.01265363
v -0.03198005 -0.05047765 -0.00515148
v -0.03455757 -0.03368868 -0.01425359
v -0.03634017 -0.04520786 -0.00537041
v -0.01591720 -0.04975010 -0.01738815
v -0.02733349 -0.04531281 -0.01710283
v -0.02580089 -0.04361344 0.01985414
v -0.02893110 -0.03229282 0.01998177
v -0.02088140 -0.05110247 0.01841908
v -0.03280196 -0.04186981 0.01719058
v -0.02703540 -0.05204039 -0.00987052
v -0.02745724 -0.04909570 -0.01551175
v -0.03044375 -0.05041428 -0.00975264
v -0.03245488 -0.03207667 -0.01578076
v -0.03623846 -0.04208832 -0.00842735
v -0.03490729 -0.04745751 -0.00818768
v -0.03303503 -0.04761787 0.01087779
v -0.00897935 -0.04237291 -0.01908643
v -0.03172999 -0.04535494 -0.01530830
v -0.03179291 -0.03241102 0.01860897
v -0.02395211 -0.04956547 0.01835560
v -0.01921871 -0.05231565 0.01726314
v -0.02690750 -0.05209848 0.01096455
v -0.03628206 -0.03682728 0.01252364
v -0.03019341 -0.04330028 0.01836442
v -0.02568315 -0.05198162 -0.01129672
v -0.02556136 -0.05049148 -0.01435821
v -0.02086410 -0.04943196 -0.01690111
v -0.02874632 -0.05205509 -0.00655141
v -0.03630922 -0.03530544 -0.01117143
v -0.03479624 -0.04593979 -0.01128137
v -0.03326539 -0.04894940 -0.00833581
v -0.03138971 -0.05083754 0.00625885
v -0.03315949 -0.04577305 0.01369202
v -0.01757682 -0.03529322 -0.01885115
v -0.03346823 -0.04616895 -0.01390547
v -0.03187297 -0.04039205 0.01824762
v -0.02359906 -0.05047410 0.01722569
v -0.01889653 -0.04967457 0.01972921
v -0.02244131 -0.05380098 0.01103365
v -0.02396812 -0.05201090 0.01404503
vn 0.44000642 0.57476936 0.68995256
vn 0.95232757 -0.28147925 0.11765045
vn 0.57187541 0.58215446 -0.57797465
vn -0.17260036 0.64694400 -0.74274664
vn -0.30540259 -0.94311497 0.13139034
vn 0.29449601 -0.89149521 -0.34425048
vn -0.74191619 0.63139794 -0.22560365
vn 0.74492751 0.65307966 0.13627161
vn 0.49856853 -0.66112611 0.56066182
vn 0.68189924 -0.29062134 -0.67123219
vn -0.55100232 0.65439637 -0.51784345
vn -0.57138594 0.67595269 0.46540957
vn -0.60859737 -0.68203950 -0.40550137
vn 0.47550101 -0.32949712 0.81567790
vn 0.45738952 -0.84261179 0.28425375
vn -0.11209121 0.03307486 -0.99314733
vn -0.74306383 0.64588519 0.17518125
vn -0.27427137 -0.95791542 -0.08469516
vn -0.87532386 -0.20198456 -0.43932946
vn -0.17145991 -0.37109112 -0.91262965
vn -0.28600528 -0.05485006 0.95665691
vn -0.50002881 -0.65609687 0.56525046
vn -0.06417466 0.54350573 -0.83694871
vn -0.41133358 -0.81350617 -0.41111118
vn -0.59012964 -0.80542129 -0.05516843
vn -0.71802316 -0.05936768 -0.69348268
vn -0.94914972 -0.31409961 -0.02135993
vn 0.04372700 -0.47935965 -0.87652854
vn -0.25862180 -0.17711415 -0.94960273
vn -0.20866953 -0.18006652 0.96126639
vn -0.19614086 0.65085628 0.73342679
vn -0.26965764 -0.69191394 0.66973118
vn -0.72578158 -0.27432832 0.63086057
vn -0.34505714 -0.89869797 -0.27069822
vn -0.34370019 -0.62023446 -0.70510949
vn -0.48971360 -0.83089344 -0.26419061
vn -0.34881891 0.56805137 -0.74541466
vn -0.97632152 -0.10998988 -0.18627538
vn -0.80798379 -0.57028094 -0.14812777
vn -0.77979779 -0.56684535 0.26570991
vn -0.08259292 -0.11078134 -0.99040694
vn -0.46760323 -0.22387889 -0.85511722
vn -0.49447049 0.52166256 0.69524608
vn -0.36642354 -0.56095015 0.74234003
vn -0.21389970 -0.85107301 0.47950147
vn -0.46339067 -0.81259533 0.35349387
vn -0.94124764 -0.10522998 0.32090424
vn -0.46057083 -0.35381474 0.81405752
vn -0.28669655 -0.88805758 -0.35938673
vn -0.26596579 -0.82307446 -0.50180737
vn -0.14476824 -0.54697788 -0.82453463
vn -0.43898196 -0.88761083 -0.13943403
vn -0.94194507 -0.07767142 -0.32665980
vn -0.87781086 -0.37696361 -0.29554447
vn -0.61560551 -0.76329887 -0.19597115
vn -0.64911962 -0.74986231 0.12786801
vn -0.77647945 -0.48104852 0.40702823
vn -0.09960255 -0.04439809 -0.99403629
vn -0.67136847 -0.39424997 -0.62755983
vn -0.55598536 -0.11688207 0.82293308
vn -0.39695128 -0.79252211 0.46296693
vn -0.17062663 -0.36286562 0.91608684
vn -0.24854546 -0.92508681 0.28712289
vn -0.36391076 -0.84230787 0.39760081
f 8//8 1//1 2//2
f 8//8 2//2 3//3
f 8//8 3//3 1//1
f 10//10 3//3 2//2
f 10//10 2//2 6//6
f 11//11 3//3 4//4
f 11//11 7//7 1//1
f 11//11 1//1 3//3
f 14//14 9//9 2//2
f 14//14 2//2 1//1
f 15//15 6//6 2//2
f 15//15 2//2 9//9
f 15//15 5//5 6//6
f 17//17 12//12 1//1
f 17//17 1//1 7//7
f 18//18 6//6 5//5
f 23//23 16//16 4//4
f 23//23 4//4 3//3
f 23//23 3//3 10//10
f 23//23 10//10 16//16
f 25//25 18//18 5//5
f 26//26 19//19 7//7
f 26//26 7//7 11//11
f 27//27 17//17 7//7
f 28//28 10//10 6//6
f 29//29 4//4 16//16
f 30//30 14//14 1//1
f 30//30 1//1 21//21
f 31//31 21//21 1//1
f 31//31 1//1 12//12
f 32//32 9//9 14//14
f 34//34 6//6 18//18
f 35//35 24//24 13//13
f 35//35 29//29 20//20
f 36//36 13//13 24//24
f 36//36 24//24 34//34
f 37//37 26//26 11//11
f 37//37 11//11 4//4
f 37//37 4//4 29//29
f 38//38 27//27 7//7
f 41//41 28//28 20//20
f 41//41 10//10 28//28
f 41//41 20//20 29//29
f 42//42 37//37 29//29
f 42//42 26//26 37//37
f 42//42 29//29 35//35
f 43//43 31//31 12//12
f 43//43 21//21 31//31
f 45//45 15//15 9//9
f 45//45 9//9 32//32
f 46//46 22//22 40//40
f 47//47 33//33 12//12
f 47//47 12//12 17//17
f 47//47 17//17 27//27
f 47//47 27//27 40//40
f 48//48 30//30 21//21
f 48//48 44//44 30//30
f 48//48 33//33 22//22
f 48//48 22//22 44//44
f 49//49 34//34 24//24
f 49//49 6//6 34//34
f 50//50 35//35 6//6
f 50//50 24//24 35//35
f 50//50 49//49 24//24
f 50//50 6//6 49//49
f 51//51 28//28 6//6
f 51//51 6//6 35//35
f 51//51 35//35 20//20
f 51//51 20//20 28//28
f 52//52 36//36 34//34
f 52//52 34//34 18//18
f 52//52 18//18 25//25
f 52//52 25//25 36//36
f 53//53 38//38 7//7
f 53//53 7//7 19//19
f 53//53 19//19 38//38
f 54//54 38//38 19//19
f 54//54 27//27 38//38
f 54//54 39//39 27//27
f 54//54 13//13 39//39
f 55//55 36//36 25//25
f 55//55 25//25 39//39
f 55//55 39//39 13//13
f 55//55 13//13 36//36
f 56//56 25//25 5//5
f 56//56 46//46 40//40
f 56//56 5//5 46//46
f 56//56 39//39 25//25
f 56//56 40//40 27//27
f 56//56 27//27 39//39
f 57//57 40//40 22//22
f 57//57 22//22 33//33
f 57//57 47//47 40//40
f 57//57 33//33 47//47
f 58//58 41//41 29//29
f 58//58 29//29 16//16
f 58//58 16//16 10//10
f 58//58 10//10 41//41
f 59//59 19//19 26//26
f 59//59 26//26 42//42
f 59//59 54//54 19//19
f 59//59 13//13 54//54
f 59//59 42//42 35//35
f 59//59 35//35 13//13
f 60//60 21//21 43//43
f 60//60 48//48 21//21
f 60//60 33//33 48//48
f 60//60 43//43 12//12
f 60//60 12//12 33//33
f 61//61 44//44 22//22
f 61//61 32//32 44//44
f 62//62 44//44 32//32
f 62//62 32//32 14//14
f 62//62 14//14 30//30
f 62//62 30//30 44//44
f 63//63 5//5 15//15
f 63//63 15//15 45//45
f 64//64 45//45 32//32
f 64//64 32//32 61//61
f 64//64 61//61 22//22
f 64//64 22//22 46//46
f 64//64 63//63 45//45
f 64//64 46//46 5//5
f 64//64 5//5 63//63

