# https://github.com/mikedh/trimesh
v -0.01769431 0.06814621 0.02036158
v -0.01781566 0.00213014 0.02120630
v -0.01782729 0.01235569 -0.01902304
v -0.02568948 0.07001576 -0.01734532
v -0.03799608 0.00054120 0.00769000
v -0.01765781 0.05682305 -0.01794629
v -0.03179291 -0.03241102 0.01860897
v -0.03376561 0.07005291 0.00931480
v -0.03813428 -0.01155534 -0.00672794
v -0.01838836 0.07260106 0.01796192
v -0.02582488 0.05986525 0.01996869
v -0.02806987 -0.03204154 0.02023085
v -0.03456757 0.05301863 0.01359007
v -0.03239615 0.01223136 -0.01530221
v -0.03574737 -0.03209346 0.01292550
v -0.03634070 0.05800777 -0.00998729
v -0.02579850 0.07424410 -0.01455255
v -0.02813978 0.06960798 0.01692697
v -0.01782728 0.00211031 0.01341112
v -0.02744823 0.03954734 0.01986556
v -0.02765329 0.01252249 -0.01697063
v -0.03826274 -0.01159845 0.00621963
v -0.03624110 0.03598545 0.01071635
v -0.03303877 -0.03224520 0.01730711
v -0.02807261 -0.01155014 -0.00707955
v -0.03656234 0.01220045 -0.01106538
v -0.03213312 0.05823576 -0.01520815
v -0.03819362 0.05321194 -0.00214574
v -0.02588584 0.07269069 -0.01638275
v -0.02834137 0.07360849 0.01254062
v -0.03158356 0.07222222 -0.00980562
v -0.03038391 0.05135901 0.01821221
v -0.03179972 0.07074350 0.01286400
v -0.02088984 0.06822125 0.02002934
v -0.03501966 -0.03213786 0.01422358
v -0.03797713 0.04308356 -0.00814026
v -0.03628143 0.05475679 -0.01114130
v -0.03799806 0.04797217 0.00407900
v -0.03627069 0.06293268 -0.00345717
v -0.03121885 0.06776031 -0.01425926
v -0.02566116 0.07581192 -0.00881919
v -0.02575812 0.07386130 0.01437042
v -0.03177296 0.07190323 -0.00376091
v -0.02966049 0.07258852 -0.01283383
v -0.02979536 0.06474442 0.01684645
v -0.03338852 0.06979129 0.01081714
v -0.02690437 0.06657303 0.01823198
v -0.02679742 0.07080937 0.01700211
v -0.03812225 0.05331460 -0.00524321
v -0.03797252 0.00538829 0.00755794
v -0.03622561 0.06151165 0.00376916
v -0.03455956 0.06630205 -0.00830939
v -0.02818219 0.07114287 -0.01560308
v -0.02649386 0.06987422 -0.01705472
v -0.03453182 0.05973863 -0.01259308
v -0.02574371 0.07573833 -0.01015067
v -0.02721308 0.07516162 -0.01001881
v -0.02688438 0.07230778 -0.01606407
v -0.03155889 0.05459526 0.01669782
v -0.02870269 0.06337829 0.01804988
v -0.02247374 0.06669984 0.01988336
v -0.02729026 0.07344209 0.01406544
v -0.03627397 0.06132393 -0.00672243
v -0.03794311 0.05122739 0.00262861
vn 0.64197642 0.23078265 0.73116732
vn 0.68890565 -0.10905517 0.71660029
vn 0.60276480 -0.20352183 -0.77152671
vn 0.02809792 0.24060968 -0.97021518
vn -0.96050983 0.00684998 0.27816173
vn 0.70523191 0.14423172 -0.69415067
vn -0.36095559 -0.74809659 0.55683261
vn -0.84305191 0.51849251 0.14293002
vn -0.68550099 -0.40109874 -0.60762505
vn 0.54683633 0.70069387 0.45825552
vn -0.28011328 0.06847836 0.95752142
vn 0.39937090 -0.72191787 0.56509953
vn -0.86309917 0.07819527 0.49894421
vn -0.50843522 -0.09711745 -0.85560612
vn -0.53988987 -0.82830986 -0.14973876
vn -0.92321610 0.18360258 -0.33758278
vn 0.24221788 0.84724564 -0.47276349
vn -0.52282261 0.35288394 0.77597000
vn 0.98543675 -0.16689192 -0.03258081
vn -0.30190074 0.01011172 0.95328574
vn -0.25671461 -0.14194520 -0.95600689
vn -0.99029744 -0.04507714 0.13144974
vn -0.92425733 0.01807137 0.38134213
vn -0.67055644 -0.55712194 0.48986652
vn 0.36831498 -0.60421476 -0.70658942
vn -0.82864799 -0.02526159 -0.55919976
vn -0.54356282 0.04693820 -0.83805505
vn -0.99431067 0.10270235 0.02825811
vn 0.16445770 0.60454117 -0.77941237
vn -0.42395680 0.87885077 0.21881947
vn -0.75927812 0.61798735 -0.20393229
vn -0.58636569 0.03824042 0.80914335
vn -0.71330526 0.50568831 0.48525760
vn -0.17573484 0.29185708 0.94017908
vn -0.67248032 -0.63579313 0.37886318
vn -0.96201769 0.00867888 -0.27284913
vn -0.85655984 0.05694925 -0.51289573
vn -0.98200652 0.04587184 0.18319107
vn -0.95795524 0.28429455 -0.03870883
vn -0.72876271 0.25727006 -0.63459990
vn 0.13064619 0.99106313 -0.02693399
vn -0.13121121 0.91198114 0.38868241
vn -0.57256572 0.81942296 0.02673015
vn -0.65315593 0.61812260 -0.43739202
vn -0.69626212 0.16526983 0.69850192
vn -0.86158572 0.33752579 0.37913900
vn -0.38447816 0.20793361 0.89941101
vn -0.36171533 0.52310312 0.77170276
vn -0.98693074 0.09814300 -0.12781103
vn -0.97040682 0.01188130 0.24118340
vn -0.97469117 0.18364857 0.12747680
vn -0.90921188 0.34573619 -0.23194879
vn -0.61704348 0.33586714 -0.71165343
vn -0.43194330 0.15685786 -0.88815573
vn -0.79672771 0.17201909 -0.57933962
vn 0.28612017 0.93418620 -0.21314643
vn -0.46908221 0.87285479 -0.13448570
vn -0.50701378 0.48710188 -0.71110392
vn -0.71079883 0.09477536 0.69698110
vn -0.54114462 0.14167993 0.82890850
vn -0.27667797 0.17918444 0.94410923
vn -0.40637046 0.76299964 0.50268738
vn -0.95789078 0.23561316 -0.16410878
vn -0.98291968 0.10288781 0.15258767
f 6//6 3//3 4//4
f 6//6 1//1 2//2
f 6//6 2//2 3//3
f 10//10 1//1 6//6
f 11//11 2//2 1//1
f 12//12 2//2 11//11
f 15//15 12//12 7//7
f 17//17 10//10 6//6
f 19//19 12//12 3//3
f 19//19 3//3 2//2
f 19//19 2//2 12//12
f 20//20 12//12 11//11
f 20//20 7//7 12//12
f 21//21 4//4 3//3
f 21//21 3//3 9//9
f 21//21 9//9 14//14
f 22//22 15//15 5//5
f 22//22 9//9 15//15
f 23//23 15//15 13//13
f 23//23 5//5 15//15
f 25//25 15//15 9//9
f 25//25 9//9 3//3
f 25//25 3//3 12//12
f 25//25 12//12 15//15
f 26//26 14//14 9//9
f 27//27 21//21 14//14
f 27//27 4//4 21//21
f 28//28 9//9 22//22
f 29//29 17//17 6//6
f 29//29 6//6 4//4
f 32//32 20//20 11//11
f 32//32 7//7 20//20
f 32//32 24//24 7//7
f 32//32 13//13 24//24
f 33//33 30//30 8//8
f 34//34 11//11 1//1
f 34//34 1//1 10//10
f 35//35 15//15 7//7
f 35//35 7//7 24//24
f 35//35 24//24 13//13
f 35//35 13//13 15//15
f 36//36 26//26 9//9
f 37//37 26//26 36//36
f 37//37 27//27 14//14
f 37//37 14//14 26//26
f 38//38 23//23 13//13
f 38//38 28//28 22//22
f 42//42 41//41 30//30
f 42//42 10//10 41//41
f 43//43 31//31 8//8
f 43//43 8//8 30//30
f 44//44 40//40 31//31
f 45//45 33//33 13//13
f 45//45 18//18 33//33
f 46//46 33//33 8//8
f 46//46 13//13 33//33
f 46//46 38//38 13//13
f 46//46 8//8 38//38
f 48//48 34//34 10//10
f 48//48 18//18 34//34
f 48//48 10//10 42//42
f 48//48 33//33 18//18
f 49//49 37//37 36//36
f 49//49 16//16 37//37
f 49//49 28//28 39//39
f 49//49 36//36 9//9
f 49//49 9//9 28//28
f 50//50 5//5 23//23
f 50//50 23//23 38//38
f 50//50 38//38 22//22
f 50//50 22//22 5//5
f 51//51 39//39 28//28
f 51//51 8//8 39//39
f 52//52 40//40 16//16
f 52//52 31//31 40//40
f 52//52 39//39 8//8
f 52//52 8//8 31//31
f 53//53 40//40 44//44
f 54//54 4//4 27//27
f 54//54 27//27 40//40
f 54//54 40//40 53//53
f 54//54 29//29 4//4
f 55//55 37//37 16//16
f 55//55 16//16 40//40
f 55//55 40//40 27//27
f 55//55 27//27 37//37
f 56//56 41//41 10//10
f 56//56 10//10 17//17
f 57//57 30//30 41//41
f 57//57 43//43 30//30
f 57//57 31//31 43//43
f 57//57 41//41 56//56
f 57//57 44//44 31//31
f 57//57 56//56 17//17
f 57//57 17//17 44//44
f 58//58 44//44 17//17
f 58//58 17//17 29//29
f 58//58 53//53 44//44
f 58//58 54//54 53//53
f 58//58 29//29 54//54
f 59//59 45//45 13//13
f 59//59 13//13 32//32
f 60//60 32//32 11//11
f 60//60 11//11 47//47
f 60//60 47//47 18//18
f 60//60 18//18 45//45
f 60//60 59//59 32//32
f 60//60 45//45 59//59
f 61//61 34//34 18//18
f 61//61 18//18 47//47
f 61//61 47//47 11//11
f 61//61 11//11 34//34
f 62//62 48//48 42//42
f 62//62 42//42 30//30
f 62//62 30//30 33//33
f 62//62 33//33 48//48
f 63//63 49//49 39//39
f 63//63 16//16 49//49
f 63//63 52//52 16//16
f 63//63 39//39 52//52
f 64//64 38//38 8//8
f 64//64 8//8 51//51
f 64//64 51//51 28//28
f 64//64 28//28 38//38

