# Blender v2.92.0 OBJ File: 'cube_v2.blend'
# www.blender.org
mtllib cube_v2.mtl
o Cube
v 0.032500 0.032500 0.032500
v 0.032500 0.032500 -0.032500
v 0.032500 -0.032500 0.032500
v 0.032500 -0.032500 -0.032500
v -0.032500 0.032500 0.032500
v -0.032500 0.032500 -0.032500
v -0.032500 -0.032500 0.032500
v -0.032500 -0.032500 -0.032500
vt 0.666633 0.749950
vt 0.666633 0.999900
vt 0.333366 0.999900
vt 0.333366 0.749950
vt 0.333366 0.500000
vt 0.000100 0.749950
vt 0.000100 0.500000
vt 0.333366 0.250050
vt 0.333366 0.000100
vt 0.666633 0.000100
vt 0.666633 0.250050
vt 0.666633 0.500000
vt 0.999900 0.500000
vt 0.999900 0.749950
vn 0.0000 0.0000 1.0000
vn 0.0000 -1.0000 0.0000
vn -1.0000 0.0000 0.0000
vn 0.0000 0.0000 -1.0000
vn 1.0000 0.0000 0.0000
vn 0.0000 1.0000 0.0000
usemtl Material
s off
f 1/1/1 5/2/1 7/3/1 3/4/1
f 4/5/2 3/4/2 7/6/2 8/7/2
f 8/8/3 7/9/3 5/10/3 6/11/3
f 6/11/4 2/12/4 4/5/4 8/8/4
f 2/12/5 1/1/5 3/4/5 4/5/5
f 6/13/6 5/14/6 1/1/6 2/12/6
