# File generated by ImageToStl.com - Free Image and 3D model conversion tools

o obj1
v -0.0635466 0.01197495 0.03310794
v -0.0635466 0.01597519 0.03322755
v -0.0635466 0.01597519 -0.03027246
v -0.0635466 -0.02598915 0.0166387
v -0.0635466 -0.02389226 0.01813339
v -0.0635466 -0.02200196 0.01976002
v -0.0635466 0.00800328 0.03274997
v -0.0635466 -0.03332792 0.0130705
v -0.0635466 -0.03072769 0.01409614
v -0.0635466 -0.02827428 0.01528902
v -0.0635466 -0.00345909 0.03027987
v -0.0635466 0.00025861 0.03133087
v -0.0635466 0.00408851 0.03215621
v -0.0635466 -0.03605226 0.01222106
v -0.0635466 -0.04752481 -0.03027246
v -0.0635466 -0.03887688 0.01155524
v -0.0635466 -0.04752481 0.01070906
v -0.0635466 -0.04463908 0.0108017
v -0.0635466 -0.04177709 0.01107886
v -0.0635466 -0.01367867 0.02585557
v -0.0635466 -0.01045269 0.02753241
v -0.0635466 -0.00703804 0.02901069
v -0.0635466 -0.01947399 0.02195545
v -0.0635466 -0.01669295 0.02399215
v -0.03991405 -0.04752481 0.01813339
v -0.04201093 -0.04752481 0.0166387
v -4.66E-05 -0.04752481 -0.03027246
v -0.04429607 -0.04752481 0.01528902
v -4.66E-05 -0.04752481 0.03322755
v -0.00404684 -0.04752481 0.03310794
v -0.00801851 -0.04752481 0.03274997
v -0.01193328 -0.04752481 0.03215621
v -0.04674948 -0.04752481 0.01409614
v -0.04934971 -0.04752481 0.0130705
v -0.05207404 -0.04752481 0.01222106
v -0.05489866 -0.04752481 0.01155524
v -0.01576318 -0.04752481 0.03133087
v -0.01948088 -0.04752481 0.03027987
v -0.02305983 -0.04752481 0.02901069
v -0.05779888 -0.04752481 0.01107886
v -0.06066087 -0.04752481 0.0108017
v -0.02647448 -0.04752481 0.02753241
v -0.02970046 -0.04752481 0.02585557
v -0.03271474 -0.04752481 0.02399215
v -0.03549578 -0.04752481 0.02195545
v -0.03802375 -0.04752481 0.01976002
v -4.66E-05 -0.04352457 0.03310794
v -4.66E-05 -0.00556048 0.0166387
v -4.66E-05 -0.00765736 0.01813339
v -4.66E-05 -0.00954766 0.01976002
v -4.66E-05 -0.0395529 0.03274997
v -4.66E-05 0.0017783 0.0130705
v -4.66E-05 -0.00082194 0.01409614
v -4.66E-05 -0.00327534 0.01528902
v -4.66E-05 -0.02809053 0.03027987
v -4.66E-05 -0.03180823 0.03133087
v -4.66E-05 -0.03563813 0.03215621
v -4.66E-05 0.00450264 0.01222106
v -4.66E-05 0.01597519 -0.03027246
v -4.66E-05 0.00732725 0.01155524
v -4.66E-05 0.01597519 0.01070906
v -4.66E-05 0.01308946 0.0108017
v -4.66E-05 0.01022747 0.01107886
v -4.66E-05 -0.01787095 0.02585557
v -4.66E-05 -0.02109693 0.02753241
v -4.66E-05 -0.02451158 0.02901069
v -4.66E-05 -0.01207563 0.02195545
v -4.66E-05 -0.01485668 0.02399215
v -0.02367915 0.01597519 0.01813339
v -0.02158227 0.01597519 0.0166387
v -0.01929713 0.01597519 0.01528902
v -0.05954636 0.01597519 0.03310794
v -0.05557469 0.01597519 0.03274997
v -0.05165992 0.01597519 0.03215621
v -0.01684372 0.01597519 0.01409614
v -0.01424349 0.01597519 0.0130705
v -0.01151915 0.01597519 0.01222106
v -0.00869454 0.01597519 0.01155524
v -0.04783002 0.01597519 0.03133087
v -0.04411232 0.01597519 0.03027987
v -0.04053337 0.01597519 0.02901069
v -0.00579432 0.01597519 0.01107886
v -0.00293233 0.01597519 0.0108017
v -0.03711872 0.01597519 0.02753241
v -0.03389274 0.01597519 0.02585557
v -0.03087847 0.01597519 0.02399215
v -0.02809742 0.01597519 0.02195545
v -0.02556945 0.01597519 0.01976002
vn -1 0 0
vn 0 -1 0
vn 1 0 0
vn 0 1 -0
vn 0 -0 -1
vn 0.03207 0.03207 0.99897
vn 0.09595 0.09595 0.99075
vn 0.34447 0.34447 0.87331
vn 0.16 0.16 0.97407
vn 0.22362 0.22362 0.94868
vn 0.28529 0.28529 0.91499
vn 0.40064 0.40064 0.824
vn 0.4533 0.4533 0.76748
vn 0.54632 0.54632 0.63488
vn 0.50201 0.50201 0.70426
vn 0.20614 0.20614 0.95656
vn -0.02987 0.02987 0.99911
vn 0.02987 -0.02987 0.99911
vn -0.1483 -0.1483 0.97776
vn -0.20614 -0.20614 0.95656
vn -0.2625 -0.2625 0.92854
vn -0.31699 -0.31699 0.89389
vn -0.36922 -0.36922 0.85285
vn -0.41881 -0.41881 0.80573
vn -0.46541 -0.46541 0.75285
vn -0.54834 -0.54834 0.63139
vn -0.50869 -0.50869 0.6946
vn -0.08941 -0.08941 0.99197
vn 0 0 1
vn 0.08941 0.08941 0.99197
vn 0.1483 0.1483 0.97776
vn 0.2625 0.2625 0.92854
vn 0.31699 0.31699 0.89389
vn 0.36922 0.36922 0.85285
vn 0.41881 0.41881 0.80573
vn 0.46541 0.46541 0.75285
vn 0.54834 0.54834 0.63139
vn 0.50869 0.50869 0.6946
vn -0.03207 -0.03207 0.99897
vn -0.22362 -0.22362 0.94868
vn -0.09595 -0.09595 0.99075
vn -0.16 -0.16 0.97407
vn -0.4533 -0.4533 0.76748
vn -0.28529 -0.28529 0.91499
vn -0.34447 -0.34447 0.87331
vn -0.40064 -0.40064 0.824
vn -0.54632 -0.54632 0.63488
vn -0.50201 -0.50201 0.70426
f 1//1 2//1 3//1
f 4//1 5//1 3//1
f 3//1 5//1 6//1
f 1//1 3//1 7//1
f 8//1 9//1 3//1
f 3//1 9//1 10//1
f 3//1 10//1 4//1
f 11//1 12//1 3//1
f 3//1 12//1 13//1
f 3//1 13//1 7//1
f 8//1 3//1 14//1
f 14//1 3//1 15//1
f 14//1 15//1 16//1
f 17//1 18//1 15//1
f 15//1 18//1 19//1
f 15//1 19//1 16//1
f 20//1 21//1 3//1
f 3//1 21//1 22//1
f 3//1 22//1 11//1
f 6//1 23//1 3//1
f 3//1 23//1 24//1
f 3//1 24//1 20//1
f 25//2 26//2 27//2
f 27//2 26//2 28//2
f 29//2 30//2 27//2
f 27//2 30//2 31//2
f 27//2 31//2 32//2
f 28//2 33//2 27//2
f 27//2 33//2 34//2
f 27//2 34//2 15//2
f 15//2 34//2 35//2
f 15//2 35//2 36//2
f 32//2 37//2 27//2
f 27//2 37//2 38//2
f 27//2 38//2 39//2
f 36//2 40//2 15//2
f 15//2 40//2 41//2
f 15//2 41//2 17//2
f 39//2 42//2 27//2
f 27//2 42//2 43//2
f 27//2 43//2 44//2
f 44//2 45//2 27//2
f 27//2 45//2 46//2
f 27//2 46//2 25//2
f 47//3 29//3 27//3
f 48//3 49//3 27//3
f 27//3 49//3 50//3
f 47//3 27//3 51//3
f 52//3 53//3 27//3
f 27//3 53//3 54//3
f 27//3 54//3 48//3
f 55//3 56//3 27//3
f 27//3 56//3 57//3
f 27//3 57//3 51//3
f 52//3 27//3 58//3
f 58//3 27//3 59//3
f 58//3 59//3 60//3
f 61//3 62//3 59//3
f 59//3 62//3 63//3
f 59//3 63//3 60//3
f 64//3 65//3 27//3
f 27//3 65//3 66//3
f 27//3 66//3 55//3
f 50//3 67//3 27//3
f 27//3 67//3 68//3
f 27//3 68//3 64//3
f 69//4 70//4 3//4
f 3//4 70//4 71//4
f 2//4 72//4 3//4
f 3//4 72//4 73//4
f 3//4 73//4 74//4
f 71//4 75//4 3//4
f 3//4 75//4 76//4
f 3//4 76//4 59//4
f 59//4 76//4 77//4
f 59//4 77//4 78//4
f 74//4 79//4 3//4
f 3//4 79//4 80//4
f 3//4 80//4 81//4
f 78//4 82//4 59//4
f 59//4 82//4 83//4
f 59//4 83//4 61//4
f 81//4 84//4 3//4
f 3//4 84//4 85//4
f 3//4 85//4 86//4
f 86//4 87//4 3//4
f 3//4 87//4 88//4
f 3//4 88//4 69//4
f 15//5 3//5 27//5
f 27//5 3//5 59//5
f 61//6 83//6 62//6
f 62//7 83//7 82//7
f 62//7 82//7 63//7
f 75//8 53//8 52//8
f 63//9 82//9 60//9
f 60//9 82//9 78//9
f 60//10 78//10 58//10
f 58//10 78//10 77//10
f 58//11 77//11 52//11
f 52//11 77//11 76//11
f 52//8 76//8 75//8
f 53//12 75//12 54//12
f 54//12 75//12 71//12
f 54//13 71//13 70//13
f 88//14 50//14 69//14
f 69//14 50//14 49//14
f 69//15 49//15 70//15
f 70//15 49//15 48//15
f 70//13 48//13 54//13
f 79//16 74//16 56//16
f 30//17 29//17 47//17
f 72//18 2//18 1//18
f 7//19 13//19 32//19
f 32//20 13//20 37//20
f 37//20 13//20 12//20
f 37//21 12//21 38//21
f 12//21 11//21 38//21
f 38//22 11//22 22//22
f 38//22 22//22 39//22
f 39//23 22//23 42//23
f 22//23 21//23 42//23
f 42//24 21//24 20//24
f 42//24 20//24 43//24
f 43//25 20//25 44//25
f 23//26 6//26 46//26
f 20//25 24//25 44//25
f 44//27 24//27 23//27
f 44//27 23//27 45//27
f 45//26 23//26 46//26
f 32//19 31//19 7//19
f 7//28 31//28 30//28
f 7//28 30//28 1//28
f 1//29 30//29 47//29
f 1//29 47//29 72//29
f 72//30 47//30 51//30
f 72//30 51//30 73//30
f 73//31 51//31 74//31
f 74//31 51//31 57//31
f 74//16 57//16 56//16
f 79//32 56//32 80//32
f 80//32 56//32 55//32
f 80//33 55//33 81//33
f 81//33 55//33 66//33
f 81//34 66//34 84//34
f 84//34 66//34 65//34
f 84//35 65//35 85//35
f 85//35 65//35 64//35
f 85//36 64//36 86//36
f 67//37 50//37 88//37
f 64//36 68//36 86//36
f 86//38 68//38 67//38
f 86//38 67//38 87//38
f 87//37 67//37 88//37
f 18//39 17//39 41//39
f 35//40 14//40 16//40
f 18//41 41//41 19//41
f 19//41 41//41 40//41
f 19//42 40//42 16//42
f 16//42 40//42 36//42
f 16//40 36//40 35//40
f 26//43 4//43 10//43
f 14//44 35//44 8//44
f 8//44 35//44 34//44
f 8//45 34//45 9//45
f 9//45 34//45 33//45
f 9//46 33//46 10//46
f 10//46 33//46 28//46
f 10//43 28//43 26//43
f 46//47 6//47 5//47
f 4//48 26//48 5//48
f 5//48 26//48 25//48
f 5//47 25//47 46//47
# Vertices: 88, normals: 48, texture coordinates: 0, faces: 172

