# File generated by ImageToStl.com - Free Image and 3D model conversion tools

o obj1
v 0 0.06338039 0.00400024
v 0 0.0635 0
v 0 0 0
v 0 0.04691115 0.04196434
v 0 0.04840584 0.03986745
v 0 0.05003247 0.03797715
v 0 0.06302243 0.00797191
v 0 0.04334296 0.04930311
v 0 0.0443686 0.04670288
v 0 0.04556147 0.04424947
v 0 0.06055232 0.01943428
v 0 0.06160333 0.01571658
v 0 0.06242866 0.01188668
v 0 0.04249351 0.05202745
v 0 0 0.0635
v 0 0.04182769 0.05485207
v 0 0.04098151 0.0635
v 0 0.04107415 0.06061427
v 0 0.04135132 0.05775228
v 0 0.05612803 0.02965386
v 0 0.05780486 0.02642788
v 0 0.05928314 0.02301323
v 0 0.05222791 0.03544918
v 0 0.05426461 0.03266814
v 0.02363255 0.04840584 0.0635
v 0.02153567 0.04691115 0.0635
v 0.0635 0 0.0635
v 0.01925053 0.04556147 0.0635
v 0.0635 0.0635 0.0635
v 0.05949976 0.06338039 0.0635
v 0.05552809 0.06302243 0.0635
v 0.05161332 0.06242866 0.0635
v 0.01679713 0.0443686 0.0635
v 0.01419689 0.04334296 0.0635
v 0.01147255 0.04249351 0.0635
v 0.00864794 0.04182769 0.0635
v 0.04778342 0.06160333 0.0635
v 0.04406573 0.06055232 0.0635
v 0.04048678 0.05928314 0.0635
v 0.00574772 0.04135132 0.0635
v 0.00288573 0.04107415 0.0635
v 0.03707212 0.05780486 0.0635
v 0.03384614 0.05612803 0.0635
v 0.03083187 0.05426461 0.0635
v 0.02805082 0.05222791 0.0635
v 0.02552285 0.05003247 0.0635
v 0.0635 0.06338039 0.05949976
v 0.0635 0.04691115 0.02153567
v 0.0635 0.04840584 0.02363255
v 0.0635 0.05003247 0.02552285
v 0.0635 0.06302243 0.05552809
v 0.0635 0.04334296 0.01419689
v 0.0635 0.0443686 0.01679713
v 0.0635 0.04556147 0.01925053
v 0.0635 0.06055232 0.04406573
v 0.0635 0.06160333 0.04778342
v 0.0635 0.06242866 0.05161332
v 0.0635 0.04249351 0.01147255
v 0.0635 0 0
v 0.0635 0.04182769 0.00864794
v 0.0635 0.04098151 0
v 0.0635 0.04107415 0.00288573
v 0.0635 0.04135132 0.00574772
v 0.0635 0.05612803 0.03384614
v 0.0635 0.05780486 0.03707212
v 0.0635 0.05928314 0.04048678
v 0.0635 0.05222791 0.02805082
v 0.0635 0.05426461 0.03083187
v 0.03986745 0.04840584 0
v 0.04196434 0.04691115 0
v 0.04424947 0.04556147 0
v 0.00400024 0.06338039 0
v 0.00797191 0.06302243 0
v 0.01188668 0.06242866 0
v 0.04670288 0.0443686 0
v 0.04930311 0.04334296 0
v 0.05202745 0.04249351 0
v 0.05485207 0.04182769 0
v 0.01571658 0.06160333 0
v 0.01943428 0.06055232 0
v 0.02301323 0.05928314 0
v 0.05775228 0.04135132 0
v 0.06061427 0.04107415 0
v 0.02642788 0.05780486 0
v 0.02965386 0.05612803 0
v 0.03266814 0.05426461 0
v 0.03544918 0.05222791 0
v 0.03797715 0.05003247 0
vn -1 0 -0
vn 0 0 1
vn 1 0 -0
vn 0 -0 -1
vn 0 -1 0
vn 0.03207 0.99897 -0.03207
vn 0.09595 0.99075 -0.09595
vn 0.34447 0.87331 -0.34447
vn 0.16 0.97407 -0.16
vn 0.22362 0.94868 -0.22362
vn 0.28529 0.91499 -0.28529
vn 0.40064 0.824 -0.40064
vn 0.4533 0.76748 -0.4533
vn 0.54632 0.63488 -0.54632
vn 0.50201 0.70426 -0.50201
vn 0.20614 0.95656 -0.20614
vn -0.02987 0.99911 -0.02987
vn 0.02987 0.99911 0.02987
vn -0.1483 0.97776 0.1483
vn -0.20614 0.95656 0.20614
vn -0.2625 0.92854 0.2625
vn -0.31699 0.89389 0.31699
vn -0.36922 0.85285 0.36922
vn -0.41881 0.80573 0.41881
vn -0.46541 0.75285 0.46541
vn -0.54834 0.63139 0.54834
vn -0.50869 0.6946 0.50869
vn -0.08941 0.99197 0.08941
vn 0 1 0
vn 0.08941 0.99197 -0.08941
vn 0.1483 0.97776 -0.1483
vn 0.2625 0.92854 -0.2625
vn 0.31699 0.89389 -0.31699
vn 0.36922 0.85285 -0.36922
vn 0.41881 0.80573 -0.41881
vn 0.46541 0.75285 -0.46541
vn 0.54834 0.63139 -0.54834
vn 0.50869 0.6946 -0.50869
vn -0.03207 0.99897 0.03207
vn -0.22362 0.94868 0.22362
vn -0.09595 0.99075 0.09595
vn -0.16 0.97407 0.16
vn -0.4533 0.76748 0.4533
vn -0.28529 0.91499 0.28529
vn -0.34447 0.87331 0.34447
vn -0.40064 0.824 0.40064
vn -0.54632 0.63488 0.54632
vn -0.50201 0.70426 0.50201
f 1//1 2//1 3//1
f 4//1 5//1 3//1
f 3//1 5//1 6//1
f 1//1 3//1 7//1
f 8//1 9//1 3//1
f 3//1 9//1 10//1
f 3//1 10//1 4//1
f 11//1 12//1 3//1
f 3//1 12//1 13//1
f 3//1 13//1 7//1
f 8//1 3//1 14//1
f 14//1 3//1 15//1
f 14//1 15//1 16//1
f 17//1 18//1 15//1
f 15//1 18//1 19//1
f 15//1 19//1 16//1
f 20//1 21//1 3//1
f 3//1 21//1 22//1
f 3//1 22//1 11//1
f 6//1 23//1 3//1
f 3//1 23//1 24//1
f 3//1 24//1 20//1
f 25//2 26//2 27//2
f 27//2 26//2 28//2
f 29//2 30//2 27//2
f 27//2 30//2 31//2
f 27//2 31//2 32//2
f 28//2 33//2 27//2
f 27//2 33//2 34//2
f 27//2 34//2 15//2
f 15//2 34//2 35//2
f 15//2 35//2 36//2
f 32//2 37//2 27//2
f 27//2 37//2 38//2
f 27//2 38//2 39//2
f 36//2 40//2 15//2
f 15//2 40//2 41//2
f 15//2 41//2 17//2
f 39//2 42//2 27//2
f 27//2 42//2 43//2
f 27//2 43//2 44//2
f 44//2 45//2 27//2
f 27//2 45//2 46//2
f 27//2 46//2 25//2
f 47//3 29//3 27//3
f 48//3 49//3 27//3
f 27//3 49//3 50//3
f 47//3 27//3 51//3
f 52//3 53//3 27//3
f 27//3 53//3 54//3
f 27//3 54//3 48//3
f 55//3 56//3 27//3
f 27//3 56//3 57//3
f 27//3 57//3 51//3
f 52//3 27//3 58//3
f 58//3 27//3 59//3
f 58//3 59//3 60//3
f 61//3 62//3 59//3
f 59//3 62//3 63//3
f 59//3 63//3 60//3
f 64//3 65//3 27//3
f 27//3 65//3 66//3
f 27//3 66//3 55//3
f 50//3 67//3 27//3
f 27//3 67//3 68//3
f 27//3 68//3 64//3
f 69//4 70//4 3//4
f 3//4 70//4 71//4
f 2//4 72//4 3//4
f 3//4 72//4 73//4
f 3//4 73//4 74//4
f 71//4 75//4 3//4
f 3//4 75//4 76//4
f 3//4 76//4 59//4
f 59//4 76//4 77//4
f 59//4 77//4 78//4
f 74//4 79//4 3//4
f 3//4 79//4 80//4
f 3//4 80//4 81//4
f 78//4 82//4 59//4
f 59//4 82//4 83//4
f 59//4 83//4 61//4
f 81//4 84//4 3//4
f 3//4 84//4 85//4
f 3//4 85//4 86//4
f 86//4 87//4 3//4
f 3//4 87//4 88//4
f 3//4 88//4 69//4
f 15//5 3//5 27//5
f 27//5 3//5 59//5
f 61//6 83//6 62//6
f 62//7 83//7 82//7
f 62//7 82//7 63//7
f 75//8 53//8 52//8
f 63//9 82//9 60//9
f 60//9 82//9 78//9
f 60//10 78//10 58//10
f 58//10 78//10 77//10
f 58//11 77//11 52//11
f 52//11 77//11 76//11
f 52//8 76//8 75//8
f 53//12 75//12 54//12
f 54//12 75//12 71//12
f 54//13 71//13 70//13
f 88//14 50//14 69//14
f 69//14 50//14 49//14
f 69//15 49//15 70//15
f 70//15 49//15 48//15
f 70//13 48//13 54//13
f 79//16 74//16 56//16
f 30//17 29//17 47//17
f 72//18 2//18 1//18
f 7//19 13//19 32//19
f 32//20 13//20 37//20
f 37//20 13//20 12//20
f 37//21 12//21 38//21
f 12//21 11//21 38//21
f 38//22 11//22 22//22
f 38//22 22//22 39//22
f 39//23 22//23 42//23
f 22//23 21//23 42//23
f 42//24 21//24 20//24
f 42//24 20//24 43//24
f 43//25 20//25 44//25
f 23//26 6//26 46//26
f 20//25 24//25 44//25
f 44//27 24//27 23//27
f 44//27 23//27 45//27
f 45//26 23//26 46//26
f 32//19 31//19 7//19
f 7//28 31//28 30//28
f 7//28 30//28 1//28
f 1//29 30//29 47//29
f 1//29 47//29 72//29
f 72//30 47//30 51//30
f 72//30 51//30 73//30
f 73//31 51//31 74//31
f 74//31 51//31 57//31
f 74//16 57//16 56//16
f 79//32 56//32 80//32
f 80//32 56//32 55//32
f 80//33 55//33 81//33
f 81//33 55//33 66//33
f 81//34 66//34 84//34
f 84//34 66//34 65//34
f 84//35 65//35 85//35
f 85//35 65//35 64//35
f 85//36 64//36 86//36
f 67//37 50//37 88//37
f 64//36 68//36 86//36
f 86//38 68//38 67//38
f 86//38 67//38 87//38
f 87//37 67//37 88//37
f 18//39 17//39 41//39
f 35//40 14//40 16//40
f 18//41 41//41 19//41
f 19//41 41//41 40//41
f 19//42 40//42 16//42
f 16//42 40//42 36//42
f 16//40 36//40 35//40
f 26//43 4//43 10//43
f 14//44 35//44 8//44
f 8//44 35//44 34//44
f 8//45 34//45 9//45
f 9//45 34//45 33//45
f 9//46 33//46 10//46
f 10//46 33//46 28//46
f 10//43 28//43 26//43
f 46//47 6//47 5//47
f 4//48 26//48 5//48
f 5//48 26//48 25//48
f 5//47 25//47 46//47
# Vertices: 88, normals: 48, texture coordinates: 0, faces: 172

