# https://github.com/mikedh/trimesh
v -0.03049719 -0.00119695 0.01576705
v -0.03068666 -0.00463720 0.01463887
v -0.03039222 -0.00103155 -0.01559152
v -0.04935561 0.01361087 -0.01490688
v -0.05156259 -0.01397161 0.00941558
v -0.03808823 0.01367564 -0.01253844
v -0.03034066 -0.00529190 -0.01235291
v -0.04648039 -0.01395777 0.01554101
v -0.03164344 0.00733160 0.00905242
v -0.04066443 0.01367037 -0.01496342
v -0.03028452 -0.00250594 -0.01496220
v -0.03852302 -0.01391288 0.01467412
v -0.05250458 0.01373663 0.00946184
v -0.03156126 0.00725888 -0.01149978
v -0.04644504 0.01026762 -0.01597735
v -0.04898651 -0.01406012 -0.01498935
v -0.03706087 -0.01369911 0.01317901
v -0.04140667 0.01372011 0.01489671
v -0.03908487 0.01398299 0.01360381
v -0.03159402 0.00380057 -0.01524909
v -0.03939740 -0.01404990 -0.01415337
v -0.05023135 0.01145028 -0.01487162
v -0.04326134 -0.00112149 -0.01605431
v -0.03689266 -0.01413728 -0.00848760
v -0.03054792 -0.00648122 -0.00431328
v -0.04648122 -0.00969858 0.01562494
v -0.05201320 0.01369355 -0.01335183
v -0.03824011 0.01348270 0.01211544
v -0.04041599 0.01372033 0.01462562
v -0.03164105 0.00618486 0.01220219
v -0.03161132 0.00531652 -0.01405403
v -0.04334113 0.01038249 -0.01596867
v -0.04157162 -0.01410327 -0.01516196
v -0.04725176 0.00928523 -0.01595730
v -0.05098720 -0.01410332 -0.01334436
v -0.03796974 -0.01393835 -0.01244357
v -0.03107075 -0.00621096 0.01320966
v -0.04123081 -0.00212333 0.01579573
v -0.05133094 0.01364658 -0.01402870
v -0.05177639 -0.01398020 -0.00756897
v -0.03156101 0.00268225 0.01484805
v -0.03160569 0.00619361 -0.01319918
v -0.04170286 0.00929261 -0.01590222
v -0.03810471 0.00293322 -0.01598591
v -0.03807712 -0.00101408 -0.01593683
v -0.04729953 0.00420523 -0.01591494
v -0.04532382 0.00085636 -0.01602850
v -0.05096943 -0.00836255 -0.01376447
v -0.04124164 0.00304919 0.01580569
v -0.05179999 -0.01398118 0.00085569
v -0.05168381 -0.01173405 -0.01237204
v -0.03175093 0.00449509 0.01386675
v -0.05170318 -0.01067927 0.00936822
v -0.05169044 -0.00328983 -0.01318735
vn 0.71368981 0.02653432 0.69995913
vn 0.81341260 -0.29892350 0.49900370
vn 0.71848798 0.01221348 -0.69543213
vn -0.17365339 0.70437675 -0.68825715
vn -0.70777018 -0.65183210 0.27235324
vn 0.43889173 0.86356023 -0.24826957
vn 0.89273335 -0.38080393 -0.24086413
vn -0.30988658 -0.63195005 0.71035868
vn 0.87928399 0.47121672 0.06938632
vn 0.17915914 0.75165370 -0.63475879
vn 0.83583432 -0.22970584 -0.49861430
vn 0.23587571 -0.74579777 0.62301552
vn -0.69352925 0.61201823 0.38006692
vn 0.86704605 0.47689421 -0.14423268
vn -0.06094395 0.14886714 -0.98697741
vn -0.26641350 -0.64818470 -0.71335856
vn 0.54034746 -0.81104519 0.22412123
vn -0.10697261 0.64959761 0.75271496
vn 0.39205240 0.84027098 0.37448578
vn 0.59705832 0.26635337 -0.75668834
vn 0.34151771 -0.80352112 -0.48756483
vn -0.46259169 0.04039571 -0.88565067
vn -0.01319204 -0.03736085 -0.99921476
vn 0.45145500 -0.88998091 -0.06420556
vn 0.92308275 -0.38460114 -0.00044125
vn -0.40639023 -0.00190200 0.91369763
vn -0.71295780 0.62535433 -0.31721150
vn 0.63661818 0.76736582 0.07659632
vn 0.26246913 0.64312981 0.71937056
vn 0.85123471 0.42999499 0.30083847
vn 0.77849971 0.41225712 -0.47326765
vn 0.03958541 0.15622390 -0.98692811
vn 0.08586541 -0.71627170 -0.69251858
vn -0.19109446 0.03266825 -0.98102787
vn -0.62075191 -0.67898799 -0.39197242
vn 0.50442368 -0.81507486 -0.28497318
vn 0.85239616 -0.48721114 0.18985809
vn -0.00985287 -0.00964172 0.99990497
vn -0.44286082 0.64716796 -0.62052231
vn -0.75795779 -0.65193851 -0.02182127
vn 0.61972856 0.35087743 0.70201250
vn 0.81806599 0.43319453 -0.37829955
vn 0.11777474 0.11501277 -0.98635753
vn 0.04736883 0.02303382 -0.99861186
vn 0.03497293 -0.04022038 -0.99857860
vn -0.21963521 -0.01317679 -0.97549308
vn -0.06417045 -0.02223896 -0.99769113
vn -0.68944707 -0.03495649 -0.72349207
vn -0.08867314 0.06113933 0.99418261
vn -0.73086954 -0.68246999 0.00802697
vn -0.96262374 -0.08447354 -0.25733199
vn 0.72473607 0.40841289 0.55493832
vn -0.96587613 -0.03455088 0.25668959
vn -0.87954034 -0.02234836 -0.47529922
f 7//7 1//1 2//2
f 9//9 1//1 3//3
f 11//11 3//3 1//1
f 11//11 1//1 7//7
f 12//12 2//2 1//1
f 12//12 1//1 8//8
f 13//13 5//5 8//8
f 14//14 9//9 3//3
f 14//14 6//6 9//9
f 17//17 2//2 12//12
f 19//19 6//6 10//10
f 19//19 13//13 18//18
f 21//21 11//11 7//7
f 24//24 8//8 5//5
f 24//24 12//12 8//8
f 24//24 17//17 12//12
f 25//25 7//7 2//2
f 25//25 24//24 7//7
f 25//25 17//17 24//24
f 26//26 18//18 13//13
f 26//26 13//13 8//8
f 27//27 19//19 10//10
f 27//27 10//10 4//4
f 27//27 13//13 19//19
f 28//28 19//19 9//9
f 28//28 9//9 6//6
f 28//28 6//6 19//19
f 29//29 19//19 18//18
f 29//29 18//18 1//1
f 30//30 1//1 9//9
f 30//30 9//9 19//19
f 31//31 20//20 10//10
f 31//31 10//10 6//6
f 31//31 3//3 20//20
f 32//32 15//15 4//4
f 32//32 4//4 10//10
f 32//32 23//23 15//15
f 33//33 3//3 11//11
f 33//33 11//11 21//21
f 33//33 16//16 23//23
f 33//33 21//21 24//24
f 34//34 22//22 4//4
f 34//34 4//4 15//15
f 35//35 24//24 5//5
f 35//35 33//33 24//24
f 35//35 16//16 33//33
f 36//36 24//24 21//21
f 36//36 21//21 7//7
f 36//36 7//7 24//24
f 37//37 25//25 2//2
f 37//37 2//2 17//17
f 37//37 17//17 25//25
f 38//38 26//26 8//8
f 38//38 8//8 1//1
f 39//39 27//27 4//4
f 39//39 4//4 22//22
f 40//40 13//13 27//27
f 41//41 29//29 1//1
f 41//41 19//19 29//29
f 42//42 31//31 6//6
f 42//42 6//6 14//14
f 42//42 14//14 3//3
f 42//42 3//3 31//31
f 43//43 20//20 3//3
f 43//43 32//32 10//10
f 43//43 10//10 20//20
f 44//44 23//23 32//32
f 44//44 43//43 3//3
f 44//44 32//32 43//43
f 45//45 33//33 23//23
f 45//45 3//3 33//33
f 45//45 44//44 3//3
f 45//45 23//23 44//44
f 46//46 16//16 22//22
f 46//46 22//22 34//34
f 47//47 34//34 15//15
f 47//47 15//15 23//23
f 47//47 46//46 34//34
f 47//47 23//23 16//16
f 47//47 16//16 46//46
f 48//48 22//22 16//16
f 48//48 16//16 35//35
f 48//48 39//39 22//22
f 48//48 27//27 39//39
f 49//49 38//38 1//1
f 49//49 1//1 18//18
f 49//49 18//18 26//26
f 49//49 26//26 38//38
f 50//50 13//13 40//40
f 50//50 40//40 35//35
f 50//50 35//35 5//5
f 51//51 40//40 27//27
f 51//51 35//35 40//40
f 52//52 30//30 19//19
f 52//52 19//19 41//41
f 52//52 41//41 1//1
f 52//52 1//1 30//30
f 53//53 50//50 5//5
f 53//53 5//5 13//13
f 53//53 13//13 50//50
f 54//54 48//48 35//35
f 54//54 35//35 51//51
f 54//54 51//51 27//27
f 54//54 27//27 48//48

