# https://github.com/mikedh/trimesh
v -0.04402332 0.05422447 0.01989280
v -0.04261385 -0.00097037 0.02073892
v -0.03926121 0.02226513 0.01472857
v -0.05490178 0.05436649 0.01463967
v -0.05256374 0.04892168 0.01979159
v -0.05319008 -0.00084985 0.01463956
v -0.04023711 0.05680450 0.01456347
v -0.04985829 0.02562392 0.02108686
v -0.05070370 0.05684864 0.01882542
v -0.04257113 -0.00097156 0.01473325
v -0.05301480 0.01616884 0.01872612
v -0.04285158 0.05861109 0.01449291
v -0.04030540 0.03612936 0.01881308
v -0.04270382 0.01372495 0.02094362
v -0.05071223 0.05491078 0.01984526
v -0.05210425 -0.00095966 0.01821325
v -0.05430714 0.05420810 0.01724932
v -0.05421247 0.04259776 0.01741995
v -0.05144672 0.01105179 0.01987108
v -0.05001738 0.05914903 0.01467594
v -0.04300646 0.05742637 0.01803310
v -0.03931321 0.02227925 0.01648190
v -0.04791923 0.00125629 0.02107923
v -0.04695512 0.02982123 0.02103323
v -0.04212390 0.04791741 0.01983365
v -0.04128242 0.03172461 0.01997633
v -0.05145671 0.05402671 0.01983712
v -0.04396816 0.05664179 0.01891523
v -0.05310018 -0.00083432 0.01561021
v -0.05335192 0.04057401 0.01879412
v -0.05238881 0.04487653 0.01984568
v -0.05022090 -0.00094514 0.02023503
v -0.05240650 0.05596917 0.01866980
v -0.04078531 0.05700093 0.01642671
v -0.04992008 0.05869002 0.01633166
v -0.04050259 0.02271895 0.01890401
v -0.03943855 0.04896897 0.01558999
v -0.04265738 0.00556264 0.02097130
v -0.04886648 0.02978942 0.02100371
v -0.04066343 0.05330799 0.01843116
v -0.04492727 0.05495473 0.01983041
v -0.04989094 0.05755469 0.01837693
v -0.04225903 0.05750361 0.01729684
v -0.04584366 0.05845680 0.01653191
v -0.03964331 0.02478513 0.01751691
v -0.04122025 0.02790143 0.01988071
v -0.03941289 0.04897216 0.01470108
v -0.04685485 0.00125830 0.02105654
v -0.03961717 0.04365523 0.01743446
v -0.04140248 0.05497047 0.01875084
v -0.04071811 0.05593911 0.01731039
v -0.04221390 0.05591540 0.01898935
v -0.04277075 0.05838324 0.01545493
v -0.03957604 0.04789058 0.01654338
vn 0.17821690 0.13934448 0.97407487
vn 0.53753293 -0.62345432 0.56777025
vn 0.74006713 -0.05013380 -0.67066180
vn -0.78238496 0.30490048 -0.54305567
vn -0.54363495 0.03386490 0.83863831
vn -0.59962354 -0.57083636 -0.56088988
vn 0.73234358 0.40043319 -0.55075053
vn -0.26362992 -0.00335771 0.96461805
vn -0.25996676 0.64047848 0.72263725
vn 0.53503330 -0.61449168 -0.57977525
vn -0.84970795 -0.02935247 0.52643597
vn 0.24703158 0.76850621 -0.59023182
vn 0.80975732 0.01458506 0.58658363
vn 0.28163937 0.00624806 0.95949999
vn -0.14979767 0.28422132 0.94698411
vn -0.61712396 -0.69261264 0.37342436
vn -0.85926456 0.28817088 0.42263691
vn -0.94274921 -0.01581877 0.33312714
vn -0.58580211 -0.03366304 0.80975471
vn -0.28367114 0.80913777 -0.51461320
vn 0.25734845 0.77413741 0.57834510
vn 0.97662947 -0.05854432 0.20680290
vn -0.13125569 -0.11133550 0.98507683
vn 0.05547370 0.02926595 0.99803115
vn 0.38619498 0.04149751 0.92148326
vn 0.56990572 0.01285720 0.82160950
vn -0.36915586 0.13730680 0.91916854
vn 0.09522040 0.57443454 0.81299325
vn -0.77456690 -0.61043801 0.16556436
vn -0.79905502 -0.01053522 0.60116560
vn -0.56579770 -0.01349879 0.82443359
vn -0.35827165 -0.66753806 0.65271308
vn -0.61537783 0.52893755 0.58441012
vn 0.72756879 0.60902089 0.31581199
vn -0.26985435 0.89677021 0.35068763
vn 0.82256024 -0.02576997 0.56809379
vn 0.98881093 0.07212152 0.13058116
vn 0.42819268 -0.01378792 0.90358227
vn -0.04537491 0.03623820 0.99831253
vn 0.80663514 0.11434542 0.57988350
vn 0.04783717 0.29197968 0.95522745
vn -0.15657738 0.75399250 0.63794893
vn 0.43310832 0.78535215 0.44231118
vn 0.07048691 0.93185370 0.35592174
vn 0.91046794 -0.01145286 0.41342105
vn 0.73358516 -0.00779684 0.67955281
vn 0.78096454 0.03765956 -0.62343896
vn 0.02851103 -0.05028481 0.99832788
vn 0.93383056 0.02172416 0.35705538
vn 0.61377579 0.23121865 0.75486238
vn 0.84310324 0.32397535 0.42920496
vn 0.42404560 0.41650543 0.80418192
vn 0.30877744 0.91922001 0.24431755
vn 0.96367097 0.05592937 0.26117077
f 10//10 3//3 2//2
f 10//10 7//7 3//3
f 12//12 6//6 4//4
f 12//12 10//10 6//6
f 12//12 7//7 10//10
f 16//16 10//10 2//2
f 16//16 6//6 10//10
f 18//18 17//17 4//4
f 20//20 12//12 4//4
f 22//22 2//2 3//3
f 24//24 8//8 23//23
f 24//24 1//1 15//15
f 25//25 24//24 14//14
f 25//25 1//1 24//24
f 26//26 25//25 14//14
f 27//27 5//5 8//8
f 29//29 16//16 11//11
f 29//29 6//6 16//16
f 29//29 11//11 18//18
f 29//29 18//18 4//4
f 29//29 4//4 6//6
f 30//30 18//18 11//11
f 30//30 11//11 5//5
f 30//30 5//5 17//17
f 30//30 17//17 18//18
f 31//31 19//19 8//8
f 31//31 8//8 5//5
f 31//31 5//5 11//11
f 31//31 11//11 19//19
f 32//32 19//19 11//11
f 32//32 11//11 16//16
f 32//32 16//16 2//2
f 32//32 2//2 23//23
f 32//32 23//23 8//8
f 32//32 8//8 19//19
f 33//33 17//17 5//5
f 33//33 5//5 27//27
f 33//33 27//27 15//15
f 33//33 15//15 9//9
f 33//33 20//20 4//4
f 33//33 4//4 17//17
f 34//34 7//7 12//12
f 35//35 33//33 9//9
f 35//35 20//20 33//33
f 37//37 22//22 3//3
f 38//38 24//24 23//23
f 38//38 14//14 24//24
f 38//38 26//26 14//14
f 38//38 2//2 36//36
f 39//39 24//24 15//15
f 39//39 8//8 24//24
f 39//39 27//27 8//8
f 39//39 15//15 27//27
f 40//40 26//26 13//13
f 40//40 25//25 26//26
f 41//41 15//15 1//1
f 41//41 28//28 9//9
f 41//41 9//9 15//15
f 42//42 28//28 21//21
f 42//42 9//9 28//28
f 42//42 35//35 9//9
f 44//44 12//12 20//20
f 44//44 20//20 35//35
f 44//44 42//42 21//21
f 44//44 35//35 42//42
f 45//45 13//13 36//36
f 45//45 36//36 2//2
f 45//45 2//2 22//22
f 46//46 36//36 13//13
f 46//46 13//13 26//26
f 46//46 38//38 36//36
f 46//46 26//26 38//38
f 47//47 37//37 3//3
f 47//47 3//3 7//7
f 47//47 7//7 37//37
f 48//48 38//38 23//23
f 48//48 23//23 2//2
f 48//48 2//2 38//38
f 49//49 40//40 13//13
f 49//49 13//13 45//45
f 49//49 45//45 22//22
f 49//49 22//22 37//37
f 50//50 25//25 40//40
f 51//51 40//40 37//37
f 51//51 37//37 7//7
f 51//51 7//7 34//34
f 51//51 50//50 40//40
f 52//52 41//41 1//1
f 52//52 28//28 41//41
f 52//52 1//1 25//25
f 52//52 25//25 50//50
f 52//52 21//21 28//28
f 52//52 50//50 51//51
f 52//52 43//43 21//21
f 52//52 51//51 34//34
f 52//52 34//34 43//43
f 53//53 43//43 34//34
f 53//53 34//34 12//12
f 53//53 21//21 43//43
f 53//53 44//44 21//21
f 53//53 12//12 44//44
f 54//54 49//49 37//37
f 54//54 37//37 40//40
f 54//54 40//40 49//49

