# https://github.com/mikedh/trimesh
v 0.03233121 0.00771064 0.01486407
v 0.03202862 -0.00060891 0.01585169
v 0.02684492 -0.00040556 -0.01596718
v -0.01468219 0.00258260 -0.01568335
v -0.01691837 -0.00065036 0.01591557
v 0.02606034 0.01021451 -0.01037311
v 0.03205894 -0.00062793 0.00967984
v -0.00838085 0.00328371 0.01598181
v -0.01235181 -0.00594689 -0.01128292
v 0.03205894 0.00789094 0.00967984
v 0.02578868 0.00729397 -0.01521195
v 0.02987482 0.00035804 0.01604751
v -0.01699829 0.00789233 0.00929920
v -0.01688716 -0.00040262 -0.01520683
v 0.02687339 -0.00590741 -0.00618442
v 0.02582708 0.00543378 -0.01592673
v -0.01096486 0.00886048 -0.01318522
v 0.02606607 0.00916614 -0.01313821
v -0.01262469 -0.00047267 0.01603831
v 0.02987357 0.00140251 0.01597172
v -0.01699591 0.00674558 0.01244898
v 0.02595710 0.00894747 0.01046017
v -0.01616355 -0.00593696 0.01250641
v -0.01476604 0.00066338 -0.01571725
v -0.01238812 -0.00309446 -0.01466119
v 0.02680226 -0.00496561 -0.01228375
v 0.02712441 -0.00588974 0.01233822
v 0.00016982 0.00533312 -0.01568035
v -0.01049638 0.00874867 -0.00636218
v -0.01691612 0.00781961 -0.01125299
v 0.00533734 -0.00221095 0.01587250
v 0.00642499 0.00332583 0.01587403
v -0.00945401 0.00480349 0.01491233
v 0.01725549 0.00877223 0.01126427
v -0.01691587 0.00324298 0.01509483
v -0.01710578 0.00505582 0.01411353
v 0.02585908 0.01004007 -0.00545589
v -0.01590278 -0.00592050 -0.00406649
v -0.01569552 -0.00473118 -0.01210613
v 0.02687265 -0.00143015 -0.01574438
v 0.02677970 -0.00380957 -0.01411568
v -0.00404016 0.00701316 -0.01461672
v -0.01238401 0.00874027 -0.00850374
v -0.01694028 0.00482896 -0.01465847
v 0.01921410 -0.00141816 0.01586184
v -0.00832360 -0.00234471 0.01583879
v -0.00916312 0.00662148 0.01334786
v 0.02014959 0.00878604 0.01139039
v -0.01696055 0.00675434 -0.01295240
v 0.01300006 0.00885428 0.00958414
v -0.01339825 -0.00470298 -0.01309839
v -0.01345225 -0.00577341 -0.01053650
v 0.02688399 -0.00303053 -0.01491946
v -0.01029055 0.00835835 -0.01356049
v 0.02696409 -0.00510408 0.01385132
v -0.01604152 -0.00407648 0.01488565
v -0.01149498 0.00580540 0.01391072
v -0.01563938 -0.00194522 -0.01471542
v 0.02681358 -0.00322740 0.01512306
v 0.00000641 -0.00580062 0.01310449
v -0.01593831 -0.00523836 0.01405126
v 0.00113321 -0.00413097 0.01480439
v -0.00835605 -0.00585135 0.01300257
vn 0.62863539 0.55697396 0.54276842
vn 0.69435723 -0.32392071 0.64260673
vn 0.61673337 -0.03531000 -0.78637978
vn -0.14105811 0.16088724 -0.97684078
vn -0.68752952 -0.09626067 0.71974790
vn 0.41737911 0.88996596 -0.18372609
vn 0.93531147 -0.34717935 -0.06825649
vn -0.03384617 0.29908003 0.95362759
vn -0.08428027 -0.95235303 -0.29312205
vn 0.81876633 0.56888720 -0.07738903
vn 0.52690639 0.47010035 -0.70807861
vn 0.04490623 -0.03314408 0.99844124
vn -0.67726960 0.72359490 0.13310263
vn -0.72359374 -0.22270164 -0.65331162
vn 0.45981114 -0.88395194 -0.08486863
vn 0.49805782 0.20329259 -0.84297718
vn -0.12197227 0.86553402 -0.48577116
vn 0.56366350 0.67627649 -0.47427161
vn -0.02149900 -0.05249526 0.99838972
vn 0.06904837 0.11352310 0.99113310
vn -0.64159036 0.65534092 0.39861020
vn 0.05282129 0.98891928 0.13873924
vn -0.61708333 -0.76851517 0.16909344
vn -0.10640667 -0.11394734 -0.98777205
vn -0.06383626 -0.51018921 -0.85768986
vn 0.54112161 -0.77826675 -0.31857224
vn 0.35812100 -0.91280688 0.19629810
vn -0.02084415 0.28228721 -0.95910346
vn -0.03940580 0.99863049 0.03441393
vn -0.72375726 0.67096654 -0.16118106
vn 0.00410225 -0.29632138 0.95507948
vn 0.00685264 0.16046482 0.98701777
vn -0.05393613 0.59892259 0.79898850
vn -0.02651863 0.96565204 0.25848193
vn -0.59395728 0.25555902 0.76282655
vn -0.71392947 0.41278131 0.56561144
vn 0.08769171 0.99509654 0.04574984
vn -0.63308654 -0.77361722 -0.02679238
vn -0.63259977 -0.69213446 -0.34751607
vn 0.60584505 -0.25547759 -0.75344739
vn 0.49872849 -0.69185517 -0.52211716
vn -0.04212265 0.48442400 -0.87381867
vn -0.11633011 0.99319846 0.00491140
vn -0.71314530 0.28598757 -0.64002726
vn 0.01444494 -0.23785721 0.97119272
vn -0.00373453 -0.30618339 0.95196522
vn -0.04567158 0.78005818 0.62403794
vn -0.01289841 0.97120809 0.23788331
vn -0.77382292 0.47635553 -0.41747275
vn -0.02870079 0.99545106 0.09084852
vn -0.14695157 -0.75381998 -0.64043788
vn -0.27602941 -0.94931344 -0.15037210
vn 0.59430288 -0.48198461 -0.64381280
vn -0.05701181 0.49878496 -0.86484867
vn 0.20425758 -0.74966538 0.62950827
vn -0.48099279 -0.45662755 0.74842315
vn -0.05999486 0.66554548 0.74394209
vn -0.29252976 -0.53277200 -0.79409089
vn 0.06115218 -0.45370692 0.88905030
vn 0.00426153 -0.91326265 0.40734896
vn -0.48187045 -0.67000022 0.56471283
vn 0.00444924 -0.55689403 0.83057164
vn -0.00015758 -0.94455323 0.32835829
f 7//7 1//1 2//2
f 10//10 6//6 1//1
f 10//10 7//7 3//3
f 10//10 1//1 7//7
f 16//16 11//11 3//3
f 18//18 10//10 3//3
f 18//18 3//3 11//11
f 18//18 6//6 10//10
f 18//18 17//17 6//6
f 18//18 11//11 17//17
f 19//19 12//12 8//8
f 19//19 8//8 5//5
f 20//20 12//12 2//2
f 20//20 2//2 1//1
f 20//20 8//8 12//12
f 23//23 5//5 14//14
f 23//23 9//9 15//15
f 24//24 14//14 4//4
f 24//24 16//16 3//3
f 24//24 4//4 16//16
f 25//25 14//14 24//24
f 26//26 15//15 9//9
f 26//26 7//7 15//15
f 27//27 15//15 7//7
f 27//27 7//7 2//2
f 27//27 23//23 15//15
f 28//28 16//16 4//4
f 28//28 11//11 16//16
f 31//31 12//12 19//19
f 32//32 20//20 1//1
f 32//32 1//1 8//8
f 32//32 8//8 20//20
f 33//33 8//8 1//1
f 34//34 21//21 1//1
f 34//34 13//13 21//21
f 35//35 5//5 8//8
f 36//36 14//14 5//5
f 36//36 5//5 35//35
f 36//36 35//35 8//8
f 36//36 8//8 33//33
f 36//36 21//21 13//13
f 37//37 22//22 1//1
f 37//37 1//1 6//6
f 37//37 29//29 13//13
f 37//37 6//6 29//29
f 38//38 23//23 14//14
f 38//38 9//9 23//23
f 39//39 38//38 14//14
f 40//40 25//25 24//24
f 40//40 24//24 3//3
f 40//40 3//3 7//7
f 41//41 26//26 9//9
f 42//42 11//11 28//28
f 43//43 13//13 29//29
f 43//43 30//30 13//13
f 43//43 17//17 30//30
f 43//43 29//29 6//6
f 43//43 6//6 17//17
f 44//44 4//4 14//14
f 44//44 14//14 36//36
f 44//44 28//28 4//4
f 45//45 2//2 12//12
f 45//45 12//12 31//31
f 46//46 31//31 19//19
f 46//46 19//19 5//5
f 47//47 33//33 1//1
f 47//47 1//1 21//21
f 47//47 21//21 36//36
f 48//48 34//34 1//1
f 48//48 1//1 22//22
f 48//48 22//22 34//34
f 49//49 36//36 13//13
f 49//49 13//13 30//30
f 49//49 44//44 36//36
f 49//49 30//30 17//17
f 49//49 17//17 44//44
f 50//50 34//34 22//22
f 50//50 22//22 37//37
f 50//50 37//37 13//13
f 50//50 13//13 34//34
f 51//51 9//9 39//39
f 51//51 41//41 9//9
f 52//52 39//39 9//9
f 52//52 9//9 38//38
f 52//52 38//38 39//39
f 53//53 25//25 40//40
f 53//53 40//40 7//7
f 53//53 7//7 26//26
f 53//53 26//26 41//41
f 53//53 51//51 25//25
f 53//53 41//41 51//51
f 54//54 17//17 11//11
f 54//54 11//11 42//42
f 54//54 44//44 17//17
f 54//54 42//42 28//28
f 54//54 28//28 44//44
f 55//55 27//27 2//2
f 56//56 46//46 5//5
f 57//57 47//47 36//36
f 57//57 36//36 33//33
f 57//57 33//33 47//47
f 58//58 51//51 39//39
f 58//58 39//39 14//14
f 58//58 14//14 25//25
f 58//58 25//25 51//51
f 59//59 45//45 31//31
f 59//59 55//55 2//2
f 59//59 2//2 45//45
f 60//60 27//27 55//55
f 61//61 56//56 5//5
f 61//61 5//5 23//23
f 61//61 60//60 55//55
f 62//62 55//55 59//59
f 62//62 61//61 55//55
f 62//62 56//56 61//61
f 62//62 59//59 31//31
f 62//62 31//31 46//46
f 62//62 46//46 56//56
f 63//63 23//23 27//27
f 63//63 27//27 60//60
f 63//63 61//61 23//23
f 63//63 60//60 61//61

