# https://github.com/mikedh/trimesh
v -0.04708820 -0.02381314 0.01607073
v -0.03667170 -0.06606690 0.01290977
v -0.03767233 -0.02827949 -0.00907713
v -0.04959349 -0.02817468 -0.01454356
v -0.05119570 -0.06508320 0.00877208
v -0.03908458 -0.06787418 -0.01249276
v -0.04708468 -0.02382208 0.00987885
v -0.03766785 -0.02781367 0.01362480
v -0.04761277 -0.06504711 0.01606361
v -0.05235878 -0.02381650 0.00987455
v -0.03433495 -0.06093399 -0.00154217
v -0.03962046 -0.02830939 -0.01355777
v -0.05022774 -0.06680532 -0.01276850
v -0.03935624 -0.06011719 0.01613783
v -0.04699704 -0.07051760 0.01285943
v -0.04941016 -0.02379566 0.01538063
v -0.05022370 -0.06204214 0.01411218
v -0.03649771 -0.06707688 -0.00902936
v -0.03653163 -0.03033648 0.00965285
v -0.04092439 -0.06413345 -0.01444093
v -0.03857673 -0.02805291 -0.01199778
v -0.05228838 -0.02917029 -0.01222763
v -0.03913001 -0.02802744 0.01511991
v -0.04786651 -0.04312789 0.01620632
v -0.04118729 -0.06689287 0.01615557
v -0.03676486 -0.06123661 0.01361103
v -0.04531739 -0.06964159 -0.01126990
v -0.05001674 -0.06776414 0.01186714
v -0.05116372 -0.05357566 0.01271332
v -0.04853480 -0.05442934 0.01602894
v -0.03558334 -0.06597494 0.00127880
v -0.03850959 -0.06404624 -0.01354944
v -0.03997013 -0.07063479 0.00716412
v -0.03654994 -0.03355118 -0.00700851
v -0.03654156 -0.03050515 -0.00069076
v -0.04132102 -0.02824376 -0.01432325
v -0.04852341 -0.06424191 -0.01438676
v -0.05234461 -0.02817997 -0.01140309
v -0.05123821 -0.06421017 -0.01190544
v -0.04392745 -0.04408694 0.01622474
v -0.03929076 -0.06415764 0.01606223
v -0.04757931 -0.06873202 0.01519388
v -0.04677285 -0.06609080 0.01608362
v -0.03755480 -0.04733333 0.01413381
v -0.03670825 -0.03141946 0.01045689
v -0.03432275 -0.06013792 -0.00074600
v -0.04864434 -0.06942163 -0.00581279
v -0.05040366 -0.06757448 -0.01184961
v -0.05008183 -0.06616753 0.01347400
v -0.05125880 -0.06422856 0.00962446
v -0.05129351 -0.02381018 0.01335885
v -0.04917070 -0.06200021 0.01521713
v -0.04863506 -0.04735017 0.01601561
v -0.03566596 -0.06599114 -0.00161664
v -0.03438312 -0.06097046 -0.00093818
v -0.03848733 -0.06716626 -0.01258641
v -0.03771557 -0.03991064 -0.01197341
v -0.03847199 -0.06837624 -0.01004580
v -0.04580616 -0.07047007 0.00472305
v -0.03937966 -0.06977485 0.01336921
v -0.03811065 -0.06968443 0.00399108
v -0.03769372 -0.03143894 -0.01100252
v -0.04028212 -0.04409173 -0.01439756
v -0.05118376 -0.05984377 -0.01294636
vn 0.07491447 0.70542562 0.70481382
vn 0.86698572 -0.30358141 0.39518867
vn 0.78640330 0.60372347 -0.13072041
vn -0.27868478 0.57812032 -0.76688440
vn -0.97126650 -0.23393085 0.04379194
vn 0.33112400 -0.70234079 -0.63013833
vn 0.17924264 0.98187160 -0.06164600
vn 0.76951559 0.53127247 0.35439430
vn -0.38178607 -0.10199605 0.91860558
vn -0.72245768 0.69016791 0.04151086
vn 0.99136674 -0.08717281 -0.09794327
vn 0.51870961 0.54497589 -0.65874245
vn -0.54296984 -0.43553331 -0.71797945
vn 0.38658890 0.00383038 0.92224419
vn -0.31094777 -0.90547440 0.28883835
vn -0.40069461 0.65746790 0.63810641
vn -0.86137235 -0.07159487 0.50290342
vn 0.86074852 -0.44059579 -0.25492612
vn 0.97488660 0.20258247 0.09250111
vn 0.14581932 -0.20798767 -0.96720104
vn 0.64651421 0.66540886 -0.37316274
vn -0.88040570 0.13191880 -0.45550327
vn 0.46352954 0.32103160 0.82588079
vn -0.16148719 0.00836916 0.98683932
vn 0.21023912 -0.35043535 0.91268537
vn 0.88446538 -0.00881885 0.46652248
vn -0.05498040 -0.87724063 -0.47689206
vn -0.83819953 -0.51384179 0.18272431
vn -0.94812799 -0.02442666 0.31694898
vn -0.45761183 -0.01030266 0.88909238
vn 0.92117455 -0.38771947 0.03333265
vn 0.65761536 -0.10220504 -0.74638875
vn 0.26360838 -0.96433554 0.02382416
vn 0.98482120 0.08741345 -0.14995364
vn 0.96826773 0.24899790 -0.02139281
vn 0.17509832 0.61138779 -0.77171597
vn -0.25366514 -0.22228739 -0.94140444
vn -0.78714499 0.57111618 -0.23287138
vn -0.95285415 -0.13766323 -0.27040303
vn 0.04629103 0.01131641 0.99886389
vn 0.45053708 -0.12291526 0.88425572
vn -0.39753326 -0.56113025 0.72601663
vn -0.12622952 -0.16445484 0.97827435
vn 0.73324256 0.01944571 0.67968906
vn 0.96683557 0.02661404 0.25400921
vn 0.99873907 0.00113759 0.05018941
vn -0.47143120 -0.88070153 -0.04601560
vn -0.69260162 -0.63672361 -0.33894843
vn -0.85403590 -0.23420222 0.46451265
vn -0.98594900 -0.10667627 0.12854858
vn -0.65702384 0.65368761 0.37551590
vn -0.64891505 -0.06729249 0.75787927
vn -0.50844626 -0.00400615 0.86108440
vn 0.92455144 -0.37925818 -0.03698455
vn 0.98575052 -0.14369272 0.08745463
vn 0.62984903 -0.39244102 -0.67028370
vn 0.86844727 0.02500567 -0.49515054
vn 0.43388730 -0.87772115 -0.20334057
vn -0.11039656 -0.99318911 -0.03725580
vn 0.45960403 -0.76646540 0.44865903
vn 0.62475322 -0.78074647 -0.01087966
vn 0.92238088 0.08437963 -0.37695304
vn 0.31933347 0.01063617 -0.94758272
vn -0.81519394 -0.03857151 -0.57790231
f 8//8 7//7 1//1
f 8//8 3//3 7//7
f 10//10 7//7 4//4
f 16//16 1//1 7//7
f 16//16 7//7 10//10
f 21//21 7//7 3//3
f 23//23 8//8 1//1
f 23//23 1//1 14//14
f 24//24 1//1 16//16
f 30//30 9//9 24//24
f 35//35 3//3 8//8
f 35//35 8//8 19//19
f 35//35 34//34 3//3
f 36//36 21//21 12//12
f 36//36 4//4 7//7
f 36//36 7//7 21//21
f 37//37 4//4 20//20
f 37//37 20//20 6//6
f 37//37 27//27 13//13
f 37//37 6//6 27//27
f 38//38 10//10 4//4
f 38//38 4//4 22//22
f 39//39 38//38 22//22
f 40//40 14//14 1//1
f 40//40 1//1 24//24
f 40//40 25//25 14//14
f 40//40 24//24 25//25
f 41//41 14//14 25//25
f 41//41 26//26 14//14
f 41//41 2//2 26//26
f 42//42 28//28 15//15
f 43//43 25//25 24//24
f 43//43 24//24 9//9
f 43//43 42//42 25//25
f 43//43 9//9 42//42
f 44//44 23//23 14//14
f 44//44 14//14 26//26
f 44//44 26//26 8//8
f 44//44 8//8 23//23
f 45//45 26//26 19//19
f 45//45 19//19 8//8
f 45//45 8//8 26//26
f 46//46 26//26 2//2
f 46//46 19//19 26//26
f 46//46 35//35 19//19
f 46//46 11//11 34//34
f 46//46 34//34 35//35
f 47//47 15//15 28//28
f 48//48 28//28 5//5
f 48//48 47//47 28//28
f 48//48 13//13 27//27
f 48//48 27//27 47//47
f 48//48 39//39 13//13
f 48//48 5//5 39//39
f 49//49 28//28 42//42
f 49//49 42//42 9//9
f 50//50 29//29 10//10
f 50//50 5//5 28//28
f 50//50 28//28 49//49
f 50//50 49//49 17//17
f 50//50 17//17 29//29
f 50//50 10//10 38//38
f 50//50 39//39 5//5
f 50//50 38//38 39//39
f 51//51 29//29 17//17
f 51//51 16//16 10//10
f 51//51 10//10 29//29
f 52//52 30//30 17//17
f 52//52 9//9 30//30
f 52//52 49//49 9//9
f 52//52 17//17 49//49
f 53//53 30//30 24//24
f 53//53 24//24 16//16
f 53//53 16//16 51//51
f 53//53 51//51 17//17
f 53//53 17//17 30//30
f 54//54 31//31 18//18
f 54//54 18//18 11//11
f 54//54 11//11 31//31
f 55//55 31//31 11//11
f 55//55 2//2 31//31
f 55//55 46//46 2//2
f 55//55 11//11 46//46
f 56//56 32//32 18//18
f 56//56 18//18 6//6
f 56//56 6//6 20//20
f 56//56 20//20 32//32
f 57//57 18//18 32//32
f 57//57 34//34 11//11
f 57//57 11//11 18//18
f 57//57 32//32 12//12
f 57//57 12//12 21//21
f 58//58 6//6 18//18
f 58//58 33//33 27//27
f 58//58 27//27 6//6
f 59//59 33//33 15//15
f 59//59 27//27 33//33
f 59//59 47//47 27//27
f 59//59 15//15 47//47
f 60//60 15//15 33//33
f 60//60 42//42 15//15
f 60//60 25//25 42//42
f 60//60 41//41 25//25
f 60//60 2//2 41//41
f 61//61 18//18 31//31
f 61//61 60//60 33//33
f 61//61 31//31 2//2
f 61//61 2//2 60//60
f 61//61 58//58 18//18
f 61//61 33//33 58//58
f 62//62 21//21 3//3
f 62//62 3//3 34//34
f 62//62 57//57 21//21
f 62//62 34//34 57//57
f 63//63 20//20 4//4
f 63//63 4//4 36//36
f 63//63 32//32 20//20
f 63//63 36//36 12//12
f 63//63 12//12 32//32
f 64//64 22//22 4//4
f 64//64 4//4 37//37
f 64//64 37//37 13//13
f 64//64 39//39 22//22
f 64//64 13//13 39//39

