# https://github.com/mikedh/trimesh
v 0.05213644 0.06766045 0.01400252
v 0.05649645 0.04490110 0.01089799
v 0.05525579 0.06507484 -0.01114099
v 0.04502754 0.06593582 -0.01565448
v 0.04173530 0.04487082 0.01071577
v 0.05650595 0.04492531 -0.00713926
v 0.05096161 0.07037259 -0.01079498
v 0.05637883 0.06303640 0.00951472
v 0.05183253 0.04503909 0.01520148
v 0.04169515 0.06663047 0.01243113
v 0.05297244 0.05879366 -0.01475150
v 0.04210611 0.05872946 -0.01401881
v 0.05542696 0.04484539 0.01322329
v 0.05276427 0.06767793 -0.01452486
v 0.05535850 0.06877163 0.00838082
v 0.05644212 0.06308159 0.00691883
v 0.04435524 0.07025887 -0.00598728
v 0.04615623 0.06293998 0.01517946
v 0.05454369 0.05873914 -0.01340025
v 0.05012737 0.04492572 -0.00713893
v 0.04691612 0.05882381 -0.01560571
v 0.04160907 0.05872857 -0.01223047
v 0.05642966 0.04490714 -0.00180191
v 0.04382675 0.04496388 0.01425999
v 0.05448307 0.05119496 0.01411432
v 0.05526757 0.06765952 0.01163366
v 0.04369588 0.06868670 -0.01341670
v 0.05433526 0.06843678 -0.01112406
v 0.05525503 0.06690974 -0.00913593
v 0.05206570 0.07027227 0.00863947
v 0.05000115 0.05986815 0.01514516
v 0.04398765 0.06744950 0.01409275
v 0.05533082 0.05988020 -0.01201557
v 0.05433404 0.06576028 -0.01368849
v 0.04142910 0.04490132 0.00876219
v 0.04319972 0.05880892 -0.01495417
v 0.04986744 0.06290481 -0.01549192
v 0.05452964 0.04486821 0.01426704
v 0.04528462 0.04502136 0.01511047
v 0.04178349 0.05143070 0.01238019
v 0.05345984 0.06604910 0.01395362
v 0.04605271 0.06669891 -0.01545021
v 0.05306218 0.06914552 -0.01268327
v 0.04544493 0.07025286 -0.01104456
v 0.04246678 0.06667465 -0.01359589
v 0.05186457 0.07025278 -0.01026597
v 0.04431200 0.07038115 0.00667738
v 0.05348331 0.06950340 0.01165467
v 0.04895828 0.06206614 0.01517615
v 0.04367640 0.06702176 0.01408318
v 0.05413759 0.06774170 -0.01262914
v 0.04165773 0.06521805 -0.01223342
v 0.04501200 0.05899405 -0.01544884
v 0.04988268 0.05997400 -0.01556018
v 0.05211589 0.05019050 0.01508500
v 0.05341340 0.06831377 0.01327790
v 0.05433514 0.06602863 0.01310947
v 0.04907296 0.06669362 -0.01549349
v 0.04423949 0.06754492 -0.01438316
v 0.04369386 0.06924476 -0.01118388
v 0.04411267 0.06908045 -0.01291662
v 0.04359184 0.06663165 -0.01459081
v 0.05450120 0.06926767 0.00366579
v 0.05334412 0.06935572 -0.01111751
vn 0.12153207 0.45573813 0.88177816
vn 0.75408856 -0.63523601 0.16681022
vn 0.97178645 0.12479753 -0.20014163
vn -0.26844095 0.20933159 -0.94027642
vn -0.68340770 -0.69453616 0.22488536
vn 0.62542680 -0.66455429 -0.40891186
vn 0.08108487 0.96055878 -0.26599262
vn 0.97831335 0.07731083 0.19216145
vn 0.11363732 -0.59979811 0.79204090
vn -0.84712931 0.36153557 0.38944059
vn 0.39272254 -0.20609110 -0.89626752
vn -0.78804269 -0.26799306 -0.55422779
vn 0.62693145 -0.66853144 0.40002835
vn 0.37674658 0.46051878 -0.80373159
vn 0.79295395 0.60676372 0.05533362
vn 0.99505945 0.09906736 -0.00650723
vn -0.47805662 0.87816953 -0.01673776
vn -0.15234592 0.08815651 0.98438770
vn 0.76418415 -0.10336602 -0.63666165
vn -0.25413349 -0.83833433 -0.48229837
vn -0.02012573 -0.29154393 -0.95634570
vn -0.97379745 -0.14709023 -0.17344447
vn 0.08097746 -0.99671347 -0.00221381
vn -0.49999459 -0.66090482 0.55965188
vn 0.62474947 0.03922036 0.77983964
vn 0.84621842 0.35421870 0.39804962
vn -0.49189260 0.70176243 -0.51533598
vn 0.82563975 0.53143920 -0.18945021
vn 0.95850168 0.26812837 -0.09685921
vn 0.16389925 0.98013349 0.11169319
vn 0.14976852 0.03545829 0.98808507
vn -0.29017098 0.61525244 0.73298379
vn 0.94644408 0.00693790 -0.32279324
vn 0.78271987 0.14591670 -0.60502720
vn -0.72913522 -0.68390638 -0.02517738
vn -0.45164917 -0.28506518 -0.84542940
vn 0.19376003 0.02922808 -0.98061347
vn 0.42474773 -0.64295554 0.63733629
vn -0.20435443 -0.62164642 0.75617128
vn -0.89556565 -0.01968892 0.44449355
vn 0.46714746 0.13871807 0.87322995
vn -0.06389090 0.51113853 -0.85712039
vn 0.41683202 0.77549383 -0.47419446
vn -0.19106600 0.94785063 -0.25509404
vn -0.82607935 0.32817742 -0.45814024
vn 0.31897431 0.94252867 -0.09947410
vn -0.43718263 0.89304285 0.10651677
vn 0.32611503 0.86776507 0.37501036
vn 0.08541688 0.08004346 0.99312487
vn -0.49912213 0.20999984 0.84070040
vn 0.82828144 0.39844398 -0.39394448
vn -0.96317008 0.19674781 -0.18328584
vn -0.16720763 -0.27746339 -0.94607382
vn 0.14198930 -0.10848565 -0.98390543
vn 0.24069072 0.02261928 0.97033826
vn 0.38875186 0.57778795 0.71765805
vn 0.74400489 0.11651441 0.65793702
vn 0.07608903 0.37276362 -0.92480146
vn -0.30353205 0.51875034 -0.79922862
vn -0.71082173 0.69528484 -0.10635536
vn -0.26226972 0.86516647 -0.42743604
vn -0.54790392 0.28160931 -0.78771663
vn 0.53901538 0.84195433 -0.02398601
vn 0.56964076 0.81055391 -0.13605796
f 16//16 6//6 3//3
f 16//16 15//15 8//8
f 16//16 8//8 2//2
f 16//16 2//2 6//6
f 19//19 6//6 11//11
f 20//20 13//13 5//5
f 20//20 6//6 13//13
f 21//21 11//11 6//6
f 21//21 6//6 20//20
f 23//23 13//13 6//6
f 23//23 6//6 2//2
f 23//23 2//2 13//13
f 26//26 13//13 2//2
f 26//26 2//2 8//8
f 26//26 25//25 13//13
f 26//26 8//8 15//15
f 29//29 16//16 3//3
f 29//29 15//15 16//16
f 29//29 28//28 15//15
f 29//29 3//3 28//28
f 32//32 18//18 1//1
f 33//33 3//3 6//6
f 33//33 6//6 19//19
f 34//34 19//19 11//11
f 34//34 11//11 14//14
f 34//34 33//33 19//19
f 34//34 3//3 33//33
f 35//35 20//20 5//5
f 35//35 12//12 20//20
f 35//35 22//22 12//12
f 36//36 20//20 12//12
f 37//37 14//14 11//11
f 38//38 13//13 25//25
f 38//38 24//24 5//5
f 38//38 5//5 13//13
f 39//39 9//9 18//18
f 39//39 38//38 9//9
f 39//39 24//24 38//38
f 40//40 24//24 10//10
f 40//40 5//5 24//24
f 40//40 35//35 5//5
f 40//40 10//10 35//35
f 43//43 14//14 27//27
f 46//46 7//7 30//30
f 46//46 43//43 7//7
f 47//47 30//30 7//7
f 47//47 10//10 32//32
f 47//47 44//44 17//17
f 47//47 7//7 44//44
f 48//48 26//26 15//15
f 48//48 15//15 30//30
f 48//48 47//47 32//32
f 48//48 30//30 47//47
f 49//49 18//18 9//9
f 49//49 9//9 31//31
f 49//49 1//1 18//18
f 49//49 41//41 1//1
f 49//49 31//31 41//41
f 50//50 32//32 10//10
f 50//50 10//10 24//24
f 50//50 24//24 39//39
f 50//50 39//39 18//18
f 50//50 18//18 32//32
f 51//51 28//28 3//3
f 51//51 3//3 34//34
f 51//51 43//43 28//28
f 51//51 34//34 14//14
f 51//51 14//14 43//43
f 52//52 35//35 10//10
f 52//52 22//22 35//35
f 52//52 45//45 12//12
f 52//52 12//12 22//22
f 53//53 36//36 4//4
f 53//53 4//4 21//21
f 53//53 21//21 20//20
f 53//53 20//20 36//36
f 54//54 37//37 11//11
f 54//54 11//11 21//21
f 54//54 21//21 4//4
f 55//55 38//38 25//25
f 55//55 9//9 38//38
f 55//55 25//25 41//41
f 55//55 41//41 31//31
f 55//55 31//31 9//9
f 56//56 1//1 41//41
f 56//56 26//26 48//48
f 56//56 48//48 32//32
f 56//56 32//32 1//1
f 57//57 41//41 25//25
f 57//57 25//25 26//26
f 57//57 56//56 41//41
f 57//57 26//26 56//56
f 58//58 42//42 27//27
f 58//58 27//27 14//14
f 58//58 14//14 37//37
f 58//58 4//4 42//42
f 58//58 54//54 4//4
f 58//58 37//37 54//54
f 59//59 42//42 4//4
f 59//59 27//27 42//42
f 60//60 17//17 44//44
f 60//60 27//27 45//45
f 60//60 47//47 17//17
f 60//60 10//10 47//47
f 60//60 52//52 10//10
f 60//60 45//45 52//52
f 61//61 43//43 27//27
f 61//61 60//60 44//44
f 61//61 27//27 60//60
f 61//61 44//44 7//7
f 61//61 7//7 43//43
f 62//62 36//36 12//12
f 62//62 12//12 45//45
f 62//62 4//4 36//36
f 62//62 59//59 4//4
f 62//62 45//45 27//27
f 62//62 27//27 59//59
f 63//63 46//46 30//30
f 63//63 30//30 15//15
f 63//63 15//15 28//28
f 64//64 28//28 43//43
f 64//64 43//43 46//46
f 64//64 63//63 28//28
f 64//64 46//46 63//63

