# https://github.com/mikedh/trimesh
v 0.05754727 0.05241423 -0.01221010
v 0.05843538 0.01805356 -0.01542639
v 0.05622544 0.05241142 -0.01850066
v 0.05175057 0.05247472 -0.02048005
v 0.05180912 0.02475484 -0.01223934
v 0.05584576 0.01830925 -0.01917465
v 0.05700177 0.05255101 -0.01695615
v 0.05892787 0.02475412 -0.01220918
v 0.05180912 0.05244116 -0.01223934
v 0.05663362 0.01831569 -0.01882079
v 0.05465419 0.05246594 -0.01985191
v 0.05177328 0.02476918 -0.02061561
v 0.05715138 0.04273487 -0.01752788
v 0.05816382 0.03873661 -0.01301140
v 0.05794065 0.03425024 -0.01608535
v 0.05785367 0.01805779 -0.01639518
v 0.05539865 0.02478440 -0.01970389
v 0.05824397 0.01854692 -0.01601745
v 0.05803422 0.03627453 -0.01510359
v 0.05708530 0.01823671 -0.01815591
vn 0.59749365 0.57545924 0.55843352
vn 0.51080089 -0.80970119 0.28890558
vn 0.63508633 0.57074293 -0.52049770
vn -0.52177979 0.56574278 -0.63849899
vn -0.67970137 -0.30564931 0.66677174
vn -0.25577804 -0.76303118 -0.59360005
vn 0.68816769 0.69467454 -0.20940990
vn 0.73085544 -0.16268861 0.66285952
vn -0.57774972 0.57370355 0.58057686
vn 0.51788010 -0.57858146 -0.63011403
vn 0.33695826 0.64438401 -0.68646076
vn -0.63257171 -0.23790636 -0.73705739
vn 0.88221810 0.02443174 -0.47020667
vn 0.99367458 0.04937866 -0.10085916
vn 0.95722159 0.02578783 -0.28820446
vn -0.03836114 -0.99915413 0.01481374
vn 0.43551576 -0.01139756 -0.90010895
vn 0.91303664 -0.06388604 -0.40284322
vn 0.98790058 0.04401423 -0.14871177
vn 0.61679589 -0.65555751 -0.43566867
f 6//6 2//2 5//5
f 8//8 5//5 2//2
f 8//8 1//1 5//5
f 9//9 5//5 1//1
f 9//9 4//4 5//5
f 9//9 7//7 4//4
f 9//9 1//1 7//7
f 11//11 3//3 10//10
f 11//11 7//7 3//3
f 11//11 4//4 7//7
f 12//12 6//6 5//5
f 12//12 5//5 4//4
f 12//12 4//4 11//11
f 13//13 3//3 7//7
f 13//13 10//10 3//3
f 14//14 7//7 1//1
f 14//14 1//1 8//8
f 15//15 8//8 2//2
f 15//15 13//13 7//7
f 16//16 2//2 6//6
f 17//17 11//11 10//10
f 17//17 10//10 6//6
f 17//17 12//12 11//11
f 17//17 6//6 12//12
f 18//18 15//15 2//2
f 18//18 13//13 15//15
f 19//19 14//14 8//8
f 19//19 7//7 14//14
f 19//19 15//15 7//7
f 19//19 8//8 15//15
f 20//20 2//2 16//16
f 20//20 18//18 2//2
f 20//20 10//10 13//13
f 20//20 13//13 18//18
f 20//20 16//16 6//6
f 20//20 6//6 10//10

