# https://github.com/mikedh/trimesh
v 0.04875013 0.05631724 0.00713539
v 0.04875013 0.04247408 0.00713539
v 0.04869158 0.05635080 -0.01707819
v 0.04182249 0.05635728 -0.01665271
v 0.03948571 0.05629935 0.00711410
v 0.04555872 0.04223136 -0.01746537
v 0.04852005 0.04248918 -0.01738470
v 0.04037557 0.04246671 -0.01103656
v 0.04841001 0.05000665 -0.01729319
v 0.04023184 0.05627693 -0.01392902
v 0.04107637 0.04242188 -0.01486623
v 0.04005187 0.04244968 0.00706364
v 0.04035657 0.04576717 -0.01298555
v 0.04287663 0.04256236 -0.01645948
v 0.04072888 0.05627782 -0.01571735
v 0.04456267 0.04350198 -0.01720456
v 0.04041469 0.05521588 -0.01494975
vn 0.57714542 0.57703629 0.57786874
vn 0.57821827 -0.57391471 0.57990131
vn 0.56509403 0.58222337 -0.58453801
vn -0.31747857 0.63893485 -0.70069224
vn -0.59865523 0.56459006 0.56819889
vn -0.08760694 -0.68664098 -0.72169882
vn 0.59964926 -0.55059723 -0.58074388
vn -0.72938893 -0.68192695 -0.05447408
vn 0.15726495 0.02527949 -0.98723284
vn -0.74179455 0.66413670 -0.09307683
vn -0.65492248 -0.65562825 -0.37580331
vn -0.57237333 -0.58669010 0.57287303
vn -0.98699500 -0.04770402 -0.15350960
vn -0.45556735 -0.51338270 -0.72725277
vn -0.66326089 0.60305274 -0.44318437
vn -0.33068272 -0.04542464 -0.94264815
vn -0.95499453 -0.00914674 -0.29648236
f 1//1 2//2 3//3
f 1//1 3//3 4//4
f 5//5 2//2 1//1
f 5//5 1//1 4//4
f 6//6 4//4 3//3
f 7//7 3//3 2//2
f 7//7 2//2 6//6
f 9//9 7//7 6//6
f 9//9 6//6 3//3
f 9//9 3//3 7//7
f 10//10 5//5 4//4
f 12//12 6//6 2//2
f 12//12 2//2 5//5
f 12//12 5//5 8//8
f 12//12 11//11 6//6
f 12//12 8//8 11//11
f 13//13 8//8 5//5
f 13//13 5//5 10//10
f 13//13 11//11 8//8
f 14//14 6//6 11//11
f 15//15 10//10 4//4
f 15//15 14//14 11//11
f 15//15 4//4 14//14
f 16//16 14//14 4//4
f 16//16 4//4 6//6
f 16//16 6//6 14//14
f 17//17 13//13 10//10
f 17//17 10//10 15//15
f 17//17 15//15 11//11
f 17//17 11//11 13//13

