# https://github.com/mikedh/trimesh
v 0.05181031 0.02328836 0.01492923
v 0.05841377 -0.05325121 0.01258994
v 0.05648630 0.02313379 -0.00744414
v 0.04610010 0.02306398 -0.01595665
v 0.03953549 -0.00817565 0.01506978
v 0.05771665 -0.05044879 -0.01293954
v 0.04159890 0.02331908 -0.00624636
v 0.05647423 0.02315037 0.01062574
v 0.05417154 -0.05203130 0.01583493
v 0.05852706 -0.03337751 -0.00932221
v 0.05369468 0.00936140 -0.01487573
v 0.04987507 0.02319009 -0.01595839
v 0.04262230 0.02335504 0.01224358
v 0.04373244 -0.05026622 -0.01236285
v 0.05524883 0.00806066 0.01416517
v 0.03947333 -0.00553047 0.01582851
v 0.05665567 0.00929982 -0.01040402
v 0.05864754 -0.05055824 -0.01138354
v 0.05859137 -0.02795881 0.00970105
v 0.05480845 -0.05042047 -0.01501774
v 0.03851478 -0.00532799 -0.01590730
v 0.04412684 -0.05341629 0.00962627
v 0.05450742 0.02311749 0.01399480
v 0.05735295 -0.02376367 0.01324223
v 0.04934053 -0.02786244 0.01594721
v 0.04526240 0.02327064 0.01483822
v 0.03851534 0.00245334 0.01341749
v 0.05750677 0.00181724 -0.00715198
v 0.05538133 0.00281371 -0.01332774
v 0.05745894 -0.00881963 -0.01017591
v 0.05885234 -0.05322659 0.00954034
v 0.05204395 -0.01755654 -0.01572090
v 0.05450384 -0.00678775 -0.01473512
v 0.04272835 0.02302027 -0.01379255
v 0.04654248 -0.05027068 -0.01468680
v 0.05096824 -0.03002790 -0.01590597
v 0.04272741 -0.04591766 0.00229864
v 0.04386773 -0.05122505 0.01058230
v 0.05122464 -0.05771149 0.01249724
v 0.05631999 0.01454242 0.01226992
v 0.05843082 -0.04611558 0.01233261
v 0.05649850 -0.04930583 0.01493531
v 0.05025922 -0.05337520 0.01601115
v 0.05197185 -0.02907102 0.01582551
v 0.04171308 0.02312010 0.01044352
v 0.03842131 0.00123269 -0.01573130
v 0.03839171 -0.00557618 0.00962656
v 0.05850906 -0.02802895 -0.00521543
v 0.05536109 -0.00778782 -0.01384635
v 0.05021173 -0.03001819 -0.01587174
v 0.04281262 -0.04472510 -0.00727612
v 0.04372013 -0.05125821 0.00931015
v 0.05575440 -0.05571077 0.01391789
v 0.05504175 -0.05765653 0.00948416
v 0.05120448 -0.05812014 0.00967173
v 0.05540474 0.02309467 0.01295105
v 0.05639216 0.02208144 0.01123677
v 0.04581670 -0.05315872 0.01380593
v 0.03860370 0.00484864 0.00417948
v 0.03860553 0.00291997 -0.01475222
v 0.04276267 -0.04604429 0.00410686
v 0.05381286 -0.05662015 0.01413280
v 0.05659605 -0.05314797 0.01486300
v 0.05631677 -0.05722189 0.00956135
vn 0.13072424 0.68325419 0.71838353
vn 0.88544978 -0.27325522 0.37591258
vn 0.70882508 0.67266147 -0.21235244
vn -0.18313692 0.65786936 -0.73052636
vn -0.95659771 -0.11421566 0.26809626
vn 0.61384312 -0.52103092 -0.59306274
vn -0.65434169 0.75479704 -0.04602593
vn 0.71819129 0.68329711 0.13155355
vn 0.20303568 -0.13435928 0.96990933
vn 0.99265101 0.02363958 -0.11868082
vn 0.60911694 0.06810658 -0.79015065
vn 0.29256849 0.64901851 -0.70226680
vn -0.54639414 0.74127585 0.38982502
vn -0.73377540 -0.55322492 -0.39435499
vn 0.58736269 0.03067951 0.80874213
vn -0.63227066 -0.02303931 0.77440493
vn 0.92741606 0.07561398 -0.36630859
vn 0.82392822 -0.47863462 -0.30339939
vn 0.98990601 0.02795477 0.13894110
vn 0.24062658 -0.54831649 -0.80090441
vn -0.71433428 -0.04570562 -0.69831048
vn -0.82329610 -0.55588039 0.11480645
vn 0.44886547 0.62965828 0.63407432
vn 0.84694105 0.02977200 0.53085261
vn 0.02438109 0.00858549 0.99966587
vn -0.25358115 0.65829266 0.70876468
vn -0.90734162 0.10799236 0.40628665
vn 0.99617338 0.04163624 -0.07684413
vn 0.81778970 0.04060756 -0.57408278
vn 0.96646587 0.03771991 -0.25400971
vn 0.95849878 -0.28190671 0.04252881
vn 0.24442216 0.00514488 -0.96965527
vn 0.55393063 0.01969014 -0.83232996
vn -0.60699190 0.68086520 -0.40985780
vn -0.27652990 -0.57376170 -0.77092718
vn 0.07740743 -0.01993401 -0.99680024
vn -0.98916284 -0.14670095 -0.00597608
vn -0.94285228 -0.16879018 0.28729681
vn -0.21221110 -0.89267603 0.39761281
vn 0.88912016 0.03748551 0.45613615
vn 0.93776246 0.01417914 0.34698777
vn 0.58532861 0.01386924 0.81067753
vn -0.18569855 -0.33282898 0.92452200
vn 0.11223957 0.01327876 0.99359245
vn -0.76592556 0.62573770 0.14768334
vn -0.75137919 0.06202908 -0.65694879
vn -0.99559363 -0.06119362 0.07105401
vn 0.99955108 0.02409958 -0.01780001
vn 0.75482587 0.02845037 -0.65530793
vn -0.06211252 -0.03832574 -0.99733303
vn -0.99163155 -0.12470158 -0.03341233
vn -0.98578281 -0.15549440 0.06366902
vn 0.51429014 -0.61591154 0.59679027
vn 0.23269427 -0.97235830 -0.01930571
vn -0.20504023 -0.97792854 -0.04017793
vn 0.62860156 0.65092814 0.42562030
vn 0.93609293 0.07703499 0.34321370
vn -0.65545388 -0.43212511 0.61939333
vn -0.99420183 0.10734917 0.00623442
vn -0.98217675 0.16551894 -0.08906353
vn -0.99019957 -0.13656683 0.02922870
vn 0.17549023 -0.72460276 0.66644881
vn 0.55042242 -0.22948388 0.80272804
vn 0.58231537 -0.81158733 0.04727381
f 8//8 3//3 1//1
f 12//12 7//7 1//1
f 12//12 1//1 3//3
f 12//12 4//4 7//7
f 12//12 3//3 11//11
f 13//13 1//1 7//7
f 15//15 1//1 9//9
f 17//17 11//11 3//3
f 23//23 8//8 1//1
f 23//23 1//1 15//15
f 25//25 1//1 16//16
f 26//26 16//16 1//1
f 26//26 1//1 13//13
f 27//27 26//26 13//13
f 27//27 16//16 26//26
f 28//28 17//17 3//3
f 28//28 3//3 8//8
f 28//28 8//8 19//19
f 29//29 11//11 17//17
f 29//29 18//18 6//6
f 29//29 17//17 18//18
f 30//30 18//18 17//17
f 30//30 10//10 18//18
f 30//30 28//28 10//10
f 30//30 17//17 28//28
f 31//31 18//18 10//10
f 32//32 12//12 11//11
f 33//33 6//6 20//20
f 33//33 32//32 11//11
f 33//33 20//20 32//32
f 34//34 7//7 4//4
f 35//35 14//14 21//21
f 36//36 21//21 4//4
f 36//36 4//4 12//12
f 36//36 12//12 32//32
f 36//36 32//32 20//20
f 36//36 20//20 35//35
f 37//37 14//14 22//22
f 38//38 16//16 5//5
f 40//40 15//15 24//24
f 41//41 24//24 2//2
f 41//41 31//31 19//19
f 41//41 2//2 31//31
f 42//42 24//24 15//15
f 42//42 15//15 9//9
f 42//42 2//2 24//24
f 43//43 25//25 16//16
f 43//43 9//9 25//25
f 44//44 25//25 9//9
f 44//44 9//9 1//1
f 44//44 1//1 25//25
f 45//45 27//27 13//13
f 45//45 13//13 7//7
f 46//46 34//34 4//4
f 46//46 4//4 21//21
f 47//47 5//5 16//16
f 47//47 16//16 27//27
f 47//47 21//21 37//37
f 47//47 38//38 5//5
f 47//47 46//46 21//21
f 47//47 27//27 46//46
f 48//48 28//28 19//19
f 48//48 10//10 28//28
f 48//48 31//31 10//10
f 48//48 19//19 31//31
f 49//49 29//29 6//6
f 49//49 6//6 33//33
f 49//49 33//33 11//11
f 49//49 11//11 29//29
f 50//50 36//36 35//35
f 50//50 35//35 21//21
f 50//50 21//21 36//36
f 51//51 37//37 21//21
f 51//51 21//21 14//14
f 51//51 14//14 37//37
f 52//52 37//37 22//22
f 52//52 22//22 38//38
f 52//52 38//38 47//47
f 54//54 20//20 6//6
f 54//54 6//6 18//18
f 55//55 39//39 22//22
f 55//55 22//22 14//14
f 55//55 14//14 35//35
f 55//55 54//54 39//39
f 55//55 35//35 20//20
f 55//55 20//20 54//54
f 56//56 23//23 15//15
f 56//56 15//15 40//40
f 56//56 8//8 23//23
f 57//57 19//19 8//8
f 57//57 56//56 40//40
f 57//57 8//8 56//56
f 57//57 41//41 19//19
f 57//57 40//40 24//24
f 57//57 24//24 41//41
f 58//58 43//43 16//16
f 58//58 16//16 38//38
f 58//58 38//38 22//22
f 58//58 22//22 39//39
f 58//58 39//39 43//43
f 59//59 45//45 7//7
f 59//59 27//27 45//45
f 59//59 46//46 27//27
f 60//60 7//7 34//34
f 60//60 34//34 46//46
f 60//60 59//59 7//7
f 60//60 46//46 59//59
f 61//61 52//52 47//47
f 61//61 47//47 37//37
f 61//61 37//37 52//52
f 62//62 43//43 39//39
f 62//62 39//39 54//54
f 62//62 9//9 43//43
f 63//63 42//42 9//9
f 63//63 62//62 53//53
f 63//63 9//9 62//62
f 63//63 53//53 2//2
f 63//63 2//2 42//42
f 64//64 54//54 18//18
f 64//64 18//18 31//31
f 64//64 31//31 2//2
f 64//64 2//2 53//53
f 64//64 62//62 54//54
f 64//64 53//53 62//62

