# https://github.com/mikedh/trimesh
v 0.05745219 -0.07004914 0.01451091
v 0.05957915 -0.06985677 0.01121626
v 0.06018250 -0.06686416 0.00920055
v 0.04755078 -0.06684656 -0.01504724
v 0.05034569 -0.07404229 -0.01278791
v 0.04460245 -0.06676483 0.00910895
v 0.05886026 -0.06993017 0.01290308
v 0.05953654 -0.07073318 -0.01295841
v 0.04860504 -0.07435574 0.01048221
v 0.04486232 -0.07055969 -0.01174554
v 0.05793729 -0.06989731 0.01405529
v 0.05969853 -0.07210590 0.00256639
v 0.05506526 -0.07166023 -0.01498911
v 0.05937884 -0.06707808 -0.01247409
v 0.04669258 -0.06990467 0.01309891
v 0.05769658 -0.07313120 0.01107828
v 0.04474075 -0.06684210 -0.01272329
v 0.04667305 -0.07130377 -0.01426956
v 0.04606895 -0.07152220 0.01113079
v 0.04682634 -0.07307056 -0.01166032
v 0.05847579 -0.07153772 0.01265340
v 0.05699932 -0.07405139 -0.01082034
v 0.05581675 -0.06699635 -0.01537818
v 0.04860626 -0.07321879 0.01288525
v 0.04930948 -0.07340081 -0.01397201
v 0.04915784 -0.07184724 -0.01492944
v 0.04488848 -0.06994615 -0.01259025
v 0.04487581 -0.06982435 -0.00035398
v 0.04842106 -0.07404403 -0.01072493
v 0.04598619 -0.07246178 0.00268660
v 0.04589407 -0.07170749 -0.01317076
v 0.05766427 -0.07148066 0.01367526
v 0.05935687 -0.07070581 0.01125770
v 0.05952378 -0.07108049 -0.01174105
v 0.05665885 -0.07343332 -0.01335619
v 0.05697832 -0.07410366 0.00808181
v 0.05523501 -0.07405385 -0.01250613
v 0.05799381 -0.06745055 -0.01414419
v 0.05770292 -0.07135676 -0.01443666
v 0.05223295 -0.07428737 0.01213680
v 0.04691129 -0.07210389 0.01192550
v 0.04822562 -0.07098971 -0.01497705
v 0.04766740 -0.07223822 -0.01425512
v 0.05508196 -0.07318109 -0.01438557
v 0.05612649 -0.07075562 -0.01512328
v 0.04472843 -0.06783410 0.00894972
v 0.04490742 -0.07096331 -0.00893264
v 0.04766460 -0.07327090 -0.01315993
v 0.04677983 -0.07309542 0.00370552
v 0.05785603 -0.07217055 0.01284329
v 0.05706247 -0.07161827 0.01397595
v 0.05855251 -0.07239653 0.01093411
v 0.05743208 -0.07332752 -0.01261761
v 0.05956178 -0.07224559 0.00217794
v 0.05039057 -0.07423973 0.01195516
v 0.05605006 -0.07423242 0.00912372
v 0.04799235 -0.07315198 0.01191777
v 0.04693074 -0.07141845 0.01281437
v 0.04756157 -0.06791096 -0.01502798
v 0.05670686 -0.07246420 -0.01434394
v 0.04576014 -0.07212960 -0.01173668
v 0.05224527 -0.07361470 0.01284029
v 0.05872851 -0.07133238 -0.01333806
vn 0.28603280 0.24742543 0.92572452
vn 0.95977633 -0.10949520 0.25853472
vn 0.70838249 0.66012024 0.24987100
vn -0.26850841 0.63728382 -0.72233826
vn -0.06509657 -0.96555750 -0.25191497
vn -0.70262597 0.64088538 0.30916449
vn 0.83776306 0.02191531 0.54559396
vn 0.87865330 -0.23192219 -0.41734935
vn -0.38951448 -0.90864354 0.15048386
vn -0.95012167 -0.28768243 -0.12044765
vn 0.65094508 0.25575596 0.71474429
vn 0.89274773 -0.45015527 0.01901936
vn 0.06543955 -0.27778616 -0.95841145
vn 0.70290710 0.65981998 -0.26562982
vn -0.51873088 0.23585209 0.82176156
vn 0.48208179 -0.83017430 0.28001389
vn -0.71892272 0.60822482 -0.33647093
vn -0.56169602 -0.30011272 -0.77099283
vn -0.86721571 -0.42743155 0.25541963
vn -0.58207132 -0.80444531 -0.11857788
vn 0.78660288 -0.42617124 0.44680420
vn 0.41350581 -0.90663399 -0.08383163
vn 0.18356431 0.63675892 -0.74889400
vn -0.34848768 -0.57312124 0.74167943
vn -0.16852710 -0.76270085 -0.62440854
vn -0.11550259 -0.33158392 -0.93632860
vn -0.90257278 -0.15106758 -0.40316370
vn -0.96819286 -0.24831026 0.03073444
vn -0.27835771 -0.95828644 -0.06483899
vn -0.81014709 -0.58549888 0.02920187
vn -0.73295468 -0.50277252 -0.45825455
vn 0.59666367 -0.44714357 0.66637459
vn 0.91751140 -0.32623451 0.22747280
vn 0.90830202 -0.41184146 -0.07330792
vn 0.38227365 -0.79319681 -0.47403130
vn 0.42068204 -0.90514750 0.06111164
vn 0.08396052 -0.96874015 -0.23343769
vn 0.58398142 0.36569025 -0.72473191
vn 0.53316499 -0.29783482 -0.79185195
vn 0.05496649 -0.91527283 0.39906682
vn -0.69983310 -0.61522355 0.36295126
vn -0.22239872 -0.17467966 -0.95917977
vn -0.39418870 -0.53605204 -0.74650083
vn 0.10681640 -0.67427828 -0.73071133
vn 0.19723409 -0.15408513 -0.96817172
vn -0.97040429 -0.19478175 0.14274305
vn -0.93622233 -0.35140037 -0.00235236
vn -0.43958104 -0.80751723 -0.39329941
vn -0.60703577 -0.79457437 0.01261508
vn 0.50983750 -0.70594788 0.49163331
vn 0.21724152 -0.54356331 0.81076818
vn 0.77126630 -0.60828399 0.18745365
vn 0.60149486 -0.73577188 -0.31119717
vn 0.69043319 -0.72314510 -0.01905731
vn -0.10908185 -0.90718140 0.40635337
vn 0.18544406 -0.97345263 0.13416582
vn -0.64258764 -0.69127099 0.33049286
vn -0.61536812 -0.35218950 0.70518412
vn -0.33583430 -0.02878051 -0.94148128
vn 0.39028458 -0.52007721 -0.75973524
vn -0.75685412 -0.63889663 -0.13777856
vn 0.01090966 -0.61013786 0.79222016
vn 0.64029127 -0.55411141 -0.53196583
f 6//6 1//1 3//3
f 6//6 3//3 4//4
f 7//7 2//2 3//3
f 11//11 7//7 3//3
f 11//11 3//3 1//1
f 12//12 8//8 3//3
f 12//12 3//3 2//2
f 14//14 3//3 8//8
f 15//15 1//1 6//6
f 17//17 10//10 6//6
f 17//17 6//6 4//4
f 18//18 17//17 4//4
f 19//19 15//15 6//6
f 21//21 7//7 11//11
f 23//23 4//4 3//3
f 23//23 3//3 14//14
f 24//24 1//1 15//15
f 27//27 10//10 17//17
f 27//27 17//17 18//18
f 29//29 5//5 9//9
f 29//29 9//9 20//20
f 30//30 19//19 28//28
f 30//30 9//9 19//19
f 31//31 27//27 18//18
f 31//31 10//10 27//27
f 32//32 21//21 11//11
f 32//32 11//11 1//1
f 33//33 2//2 7//7
f 33//33 7//7 21//21
f 33//33 12//12 2//2
f 34//34 8//8 12//12
f 37//37 22//22 9//9
f 37//37 9//9 5//5
f 37//37 35//35 22//22
f 38//38 23//23 14//14
f 38//38 14//14 8//8
f 39//39 38//38 8//8
f 39//39 23//23 38//38
f 41//41 19//19 9//9
f 43//43 26//26 25//25
f 43//43 42//42 26//26
f 43//43 18//18 42//42
f 43//43 31//31 18//18
f 44//44 26//26 13//13
f 44//44 25//25 26//26
f 44//44 35//35 37//37
f 44//44 37//37 5//5
f 44//44 5//5 25//25
f 45//45 13//13 26//26
f 45//45 23//23 39//39
f 45//45 42//42 23//23
f 45//45 26//26 42//42
f 46//46 28//28 19//19
f 46//46 19//19 6//6
f 47//47 6//6 10//10
f 47//47 30//30 28//28
f 47//47 46//46 6//6
f 47//47 28//28 46//46
f 48//48 25//25 5//5
f 48//48 5//5 29//29
f 48//48 29//29 20//20
f 48//48 43//43 25//25
f 48//48 31//31 43//43
f 49//49 30//30 20//20
f 49//49 20//20 9//9
f 49//49 9//9 30//30
f 50//50 21//21 32//32
f 50//50 40//40 16//16
f 51//51 32//32 1//1
f 51//51 1//1 24//24
f 51//51 50//50 32//32
f 51//51 40//40 50//50
f 52//52 33//33 21//21
f 52//52 12//12 33//33
f 52//52 36//36 12//12
f 52//52 16//16 36//36
f 52//52 50//50 16//16
f 52//52 21//21 50//50
f 53//53 34//34 22//22
f 53//53 8//8 34//34
f 53//53 22//22 35//35
f 54//54 34//34 12//12
f 54//54 22//22 34//34
f 54//54 36//36 22//22
f 54//54 12//12 36//36
f 55//55 40//40 24//24
f 55//55 24//24 9//9
f 55//55 9//9 40//40
f 56//56 36//36 16//16
f 56//56 16//16 40//40
f 56//56 22//22 36//36
f 56//56 40//40 9//9
f 56//56 9//9 22//22
f 57//57 41//41 9//9
f 57//57 9//9 24//24
f 57//57 24//24 41//41
f 58//58 41//41 24//24
f 58//58 24//24 15//15
f 58//58 15//15 19//19
f 58//58 19//19 41//41
f 59//59 42//42 18//18
f 59//59 18//18 4//4
f 59//59 4//4 23//23
f 59//59 23//23 42//42
f 60//60 35//35 44//44
f 60//60 45//45 39//39
f 60//60 44//44 13//13
f 60//60 13//13 45//45
f 61//61 20//20 30//30
f 61//61 30//30 47//47
f 61//61 48//48 20//20
f 61//61 31//31 48//48
f 61//61 47//47 10//10
f 61//61 10//10 31//31
f 62//62 51//51 24//24
f 62//62 24//24 40//40
f 62//62 40//40 51//51
f 63//63 39//39 8//8
f 63//63 8//8 53//53
f 63//63 53//53 35//35
f 63//63 60//60 39//39
f 63//63 35//35 60//60

