# https://github.com/mikedh/trimesh
v -0.04578523 0.04731725 0.01524932
v -0.03922805 0.02689707 0.00943082
v -0.04020395 0.06143644 0.00926572
v -0.04766350 0.05961224 -0.01491194
v -0.05339776 0.02706145 -0.01334938
v -0.03909843 0.04377423 -0.01284800
v -0.05404223 0.06126340 0.01011623
v -0.04173925 0.03452555 0.01495358
v -0.03829074 0.05100097 0.00506427
v -0.04151941 0.06146291 -0.01244980
v -0.04670382 0.03191113 -0.01610141
v -0.04985778 0.06218663 0.01307918
v -0.05495114 0.05861114 -0.01021455
v -0.03937972 0.05360410 0.00940333
v -0.04126767 0.06198756 0.01111669
v -0.05388914 0.02710453 0.00946428
v -0.03947279 0.02704354 -0.01253600
v -0.04580453 0.06007133 -0.01500761
v -0.03958354 0.05875612 -0.00746885
v -0.05131202 0.04157743 -0.01497233
v -0.04875913 0.06420570 -0.01057108
v -0.04224213 0.06311581 -0.01149299
v -0.05074017 0.02697877 -0.01490444
v -0.04577913 0.02710108 0.01562898
v -0.05522359 0.04978057 -0.00449508
v -0.03839393 0.05158286 0.00106355
v -0.04204899 0.02703827 -0.01496098
v -0.04156314 0.05988119 -0.01313153
v -0.04905845 0.03345185 -0.01602893
v -0.04060200 0.06096771 -0.01032422
v -0.03845563 0.05356238 0.00118317
v -0.05324797 0.05981486 -0.01289596
v -0.05226598 0.06326269 0.01017895
v -0.04664858 0.06321931 -0.01302930
v -0.04181434 0.06300155 0.00914307
v -0.05271549 0.02701448 -0.01402626
v -0.04180055 0.02708823 0.01462806
v -0.05146215 0.04424753 0.01486125
v -0.05506567 0.05633777 -0.00996347
v -0.05525158 0.05805378 0.00715306
v -0.04042005 0.04245954 -0.01419904
v -0.04330329 0.06159711 -0.01363751
v -0.04701788 0.03201444 -0.01612809
v -0.04168588 0.06241320 -0.01131352
v -0.04066107 0.06170071 -0.00924674
v -0.03950751 0.05887179 -0.00234927
v -0.03859038 0.05313768 0.00488584
v -0.05148068 0.05955505 -0.01378514
v -0.05328938 0.06215118 -0.00849717
v -0.05341681 0.04580000 -0.01388872
v -0.05325186 0.06049574 0.01279469
v -0.04952697 0.06141099 -0.01368246
v -0.04601779 0.06425188 -0.01062329
v -0.04988692 0.06332196 0.01103391
v -0.05329471 0.04444047 -0.01401426
v -0.04995414 0.04731927 0.01542350
v -0.05131019 0.03972557 0.01461987
v -0.05420122 0.03880811 -0.01159880
v -0.05517893 0.05980674 -0.00330005
v -0.04280910 0.04389123 -0.01480329
v -0.04590425 0.06323643 -0.01298486
v -0.04318394 0.06232810 -0.01314878
v -0.04866210 0.03185956 -0.01590444
v -0.05409738 0.06062143 -0.01047020
vn 0.22359300 0.10521721 0.96898685
vn 0.71836116 -0.67320703 0.17535547
vn 0.88615159 0.41448613 0.20721151
vn -0.17573063 0.22273413 -0.95890993
vn -0.71820706 -0.62407755 -0.30774311
vn 0.90531577 0.03471989 -0.42331771
vn -0.87595027 0.43021991 0.21822453
vn 0.59821312 0.01279103 0.80123496
vn 0.99442698 0.03657001 0.09888181
vn 0.75777164 0.37688050 -0.53267554
vn 0.12069013 -0.07765786 -0.98964799
vn -0.04712560 0.57803063 0.81465316
vn -0.94718639 0.17265664 -0.27023624
vn 0.92153174 0.06928812 0.38207122
vn 0.54581831 0.53503208 0.64484343
vn -0.69331752 -0.65477447 0.30096713
vn 0.70408168 -0.63847395 -0.31083758
vn 0.11232664 0.27499978 -0.95486012
vn 0.97440966 0.19461171 -0.11248153
vn -0.35144985 0.02839604 -0.93577597
vn -0.26116277 0.92726846 -0.26826705
vn 0.51421786 0.80488457 -0.29621076
vn -0.18955809 -0.70821738 -0.68007049
vn -0.11784556 -0.64795061 0.75251075
vn -0.99910859 -0.03432277 -0.02457568
vn 0.99906628 0.01011054 -0.04200403
vn 0.31195629 -0.65431974 -0.68887514
vn 0.70093842 0.16155057 -0.69468463
vn -0.24036263 -0.01321661 -0.97059318
vn 0.92341305 0.27769774 -0.26493830
vn 0.99336101 0.11378566 -0.01693305
vn -0.63907390 0.38020187 -0.66860383
vn -0.43917791 0.86718691 0.23475440
vn -0.09582072 0.74607432 -0.65893209
vn 0.38712830 0.90698705 0.16584986
vn -0.43217817 -0.67837212 -0.59416605
vn 0.48743522 -0.62420604 0.61055198
vn -0.61325895 -0.03258095 0.78920970
vn -0.97825016 0.00576702 -0.20734844
vn -0.98392896 0.10401603 0.14513600
vn 0.51683196 0.01796892 -0.85589827
vn 0.34986851 0.37949445 -0.85649051
vn -0.00505577 -0.08451053 -0.99640976
vn 0.80858139 0.52794883 -0.25974251
vn 0.84829387 0.52142723 -0.09225590
vn 0.96559252 0.25975875 -0.01250926
vn 0.98636069 0.15015799 0.06741778
vn -0.35511741 0.22575186 -0.90715364
vn -0.64150940 0.75336657 -0.14458390
vn -0.70791252 0.02674343 -0.70579364
vn -0.64185125 0.30602231 0.70311970
vn -0.31002429 0.56962880 -0.76118853
vn 0.10770442 0.97938174 -0.17091274
vn -0.02104607 0.95167615 0.30638140
vn -0.61225499 0.01231320 -0.79056449
vn -0.19570979 0.07018068 0.97814741
vn -0.60288029 -0.07989119 0.79382161
vn -0.98137545 -0.03792878 -0.18831789
vn -0.94298711 0.33251690 -0.01441634
vn 0.24920131 0.03079402 -0.96796200
vn 0.09904018 0.76950243 -0.63091763
vn 0.34601624 0.62041887 -0.70381332
vn -0.14602260 -0.12757827 -0.98102048
vn -0.76987104 0.55980466 -0.30645932
f 14//14 8//8 2//2
f 14//14 9//9 3//3
f 14//14 2//2 9//9
f 15//15 1//1 8//8
f 15//15 12//12 1//1
f 15//15 14//14 3//3
f 15//15 8//8 14//14
f 17//17 9//9 2//2
f 23//23 2//2 16//16
f 24//24 16//16 2//2
f 24//24 8//8 1//1
f 25//25 5//5 16//16
f 26//26 17//17 6//6
f 26//26 9//9 17//17
f 27//27 17//17 2//2
f 27//27 2//2 23//23
f 28//28 10//10 6//6
f 29//29 4//4 18//18
f 29//29 20//20 4//4
f 30//30 19//19 6//6
f 30//30 6//6 10//10
f 31//31 9//9 26//26
f 31//31 26//26 6//6
f 31//31 6//6 19//19
f 35//35 15//15 3//3
f 36//36 23//23 16//16
f 36//36 16//16 5//5
f 36//36 29//29 23//23
f 37//37 24//24 2//2
f 37//37 2//2 8//8
f 37//37 8//8 24//24
f 40//40 25//25 16//16
f 41//41 6//6 17//17
f 41//41 17//17 27//27
f 41//41 28//28 6//6
f 41//41 18//18 28//28
f 41//41 27//27 11//11
f 42//42 28//28 18//18
f 42//42 10//10 28//28
f 43//43 29//29 18//18
f 43//43 18//18 11//11
f 43//43 27//27 23//23
f 43//43 11//11 27//27
f 44//44 10//10 22//22
f 45//45 19//19 30//30
f 45//45 30//30 10//10
f 45//45 10//10 44//44
f 45//45 44//44 22//22
f 45//45 35//35 3//3
f 45//45 22//22 35//35
f 46//46 31//31 19//19
f 46//46 3//3 31//31
f 46//46 45//45 3//3
f 46//46 19//19 45//45
f 47//47 31//31 3//3
f 47//47 3//3 9//9
f 47//47 9//9 31//31
f 48//48 4//4 20//20
f 49//49 33//33 21//21
f 49//49 7//7 33//33
f 50//50 13//13 32//32
f 50//50 39//39 13//13
f 50//50 5//5 39//39
f 50//50 48//48 20//20
f 50//50 32//32 48//48
f 51//51 33//33 7//7
f 51//51 12//12 33//33
f 51//51 16//16 38//38
f 51//51 40//40 16//16
f 51//51 7//7 40//40
f 52//52 34//34 18//18
f 52//52 18//18 4//4
f 52//52 4//4 48//48
f 52//52 48//48 32//32
f 52//52 32//32 21//21
f 52//52 21//21 34//34
f 53//53 34//34 21//21
f 53//53 35//35 22//22
f 54//54 33//33 12//12
f 54//54 12//12 15//15
f 54//54 15//15 35//35
f 54//54 35//35 53//53
f 54//54 53//53 21//21
f 54//54 21//21 33//33
f 55//55 20//20 29//29
f 55//55 29//29 36//36
f 55//55 50//50 20//20
f 55//55 36//36 5//5
f 55//55 5//5 50//50
f 56//56 38//38 24//24
f 56//56 24//24 1//1
f 56//56 1//1 12//12
f 56//56 51//51 38//38
f 56//56 12//12 51//51
f 57//57 38//38 16//16
f 57//57 16//16 24//24
f 57//57 24//24 38//38
f 58//58 39//39 5//5
f 58//58 5//5 25//25
f 58//58 25//25 39//39
f 59//59 40//40 7//7
f 59//59 13//13 39//39
f 59//59 39//39 25//25
f 59//59 25//25 40//40
f 59//59 7//7 49//49
f 60//60 41//41 11//11
f 60//60 11//11 18//18
f 60//60 18//18 41//41
f 61//61 18//18 34//34
f 61//61 53//53 22//22
f 61//61 34//34 53//53
f 62//62 22//22 10//10
f 62//62 10//10 42//42
f 62//62 61//61 22//22
f 62//62 42//42 18//18
f 62//62 18//18 61//61
f 63//63 43//43 23//23
f 63//63 23//23 29//29
f 63//63 29//29 43//43
f 64//64 32//32 13//13
f 64//64 59//59 49//49
f 64//64 13//13 59//59
f 64//64 49//49 21//21
f 64//64 21//21 32//32

