# https://github.com/mikedh/trimesh
v 0.05990606 0.04242448 0.02000000
v 0.05999563 0.03515152 0.02000000
v 0.05999838 0.03757851 -0.02000000
v 0.05030303 0.04242424 -0.02000000
v 0.05030303 0.03515152 0.02000000
v 0.05990606 0.04242448 -0.02000000
v 0.05999838 0.03757851 0.02000000
v 0.05030303 0.04242424 0.02000000
v 0.05030303 0.03515152 -0.02000000
v 0.05999563 0.03515152 -0.02000000
f 5 2 1
f 6 3 4
f 6 4 1
f 7 1 2
f 7 2 3
f 7 6 1
f 7 3 6
f 8 5 1
f 8 1 4
f 8 4 5
f 9 2 5
f 9 5 4
f 9 4 3
f 10 9 3
f 10 3 2
f 10 2 9

