# OBJ generated by ONSHAPE BY PTC INC, 1.201 Units = meters
mtllib block.mtl
g Part 1
v -0.05 0.0799 0.02 
v -0.05 0.0799 -0.02 
v -0.05 0.08 -0.02 
v -0.05 0.08 0.02 
v -0.06 0.08 -0.02 
v -0.06 0.08 0.02 
v -0.06 -0.08 -0.02 
v -0.06 -0.08 0.02 
v 0.06 -0.08 -0.02 
v 0.06 -0.08 0.02 
v 0.06 -0.05 -0.02 
v 0.06 -0.05 0.02 
v 0.0599 -0.05 -0.02 
v 0.0599 -0.05 0.02 
v 0.0599 -0.049 -0.02 
v 0.0599 -0.049 0.02 
v 0.06 -0.049 -0.02 
v 0.06 -0.049 0.02 
v 0.06 0.039 -0.02 
v 0.06 0.039 0.02 
v 0.0599 0.039 -0.02 
v 0.0599 0.039 0.02 
v 0.0599 0.04 -0.02 
v 0.0599 0.04 0.02 
v 0.06 0.04 -0.02 
v 0.06 0.04 0.02 
v 0.06 0.08 -0.02 
v 0.06 0.08 0.02 
v -0.049 0.0799 0.02 
v -0.049 0.08 0.02 
v -0.049 0.0799 -0.02 
v -0.049 0.08 -0.02 
vn 1 0 0 
vn 0 1 0 
vn -1 8.67362e-17 0 
vn 0 -1 0 
vn 1 -2.31296e-16 0 
vn 0 1 0 
vn 0 -1 0 
vn 1 0 0 
vn 0 1 0 
vn 0 -1 0 
vn 1 -1.73472e-16 0 
vn 0 0 1 
vn 0 0 -1 
vn 0 1 0 
vn -1 0 0 
usemtl 0.615686_0.811765_0.929412_0.000000_0.000000
o mesh0
f 1//1 2//1 3//1 
f 3//1 4//1 1//1 
o mesh1
f 4//2 3//2 5//2 
f 5//2 6//2 4//2 
o mesh2
f 6//3 5//3 7//3 
f 7//3 8//3 6//3 
o mesh3
f 8//4 7//4 9//4 
f 9//4 10//4 8//4 
o mesh4
f 10//5 9//5 11//5 
f 11//5 12//5 10//5 
o mesh5
f 12//6 11//6 13//6 
f 13//6 14//6 12//6 
o mesh6
f 14//5 13//5 15//5 
f 15//5 16//5 14//5 
o mesh7
f 16//7 15//7 17//7 
f 17//7 18//7 16//7 
o mesh8
f 18//8 17//8 19//8 
f 19//8 20//8 18//8 
o mesh9
f 20//9 19//9 21//9 
f 21//9 22//9 20//9 
o mesh10
f 22//8 21//8 23//8 
f 23//8 24//8 22//8 
o mesh11
f 24//10 23//10 25//10 
f 25//10 26//10 24//10 
o mesh12
f 26//11 25//11 27//11 
f 27//11 28//11 26//11 
o mesh13
f 16//12 29//12 1//12 
f 24//12 30//12 29//12 
f 1//12 6//12 16//12 
f 29//12 16//12 22//12 
f 28//12 30//12 24//12 
f 29//12 22//12 24//12 
f 1//12 4//12 6//12 
f 20//12 22//12 16//12 
f 16//12 18//12 20//12 
f 8//12 14//12 16//12 
f 16//12 6//12 8//12 
f 10//12 12//12 14//12 
f 14//12 8//12 10//12 
f 24//12 26//12 28//12 
o mesh14
f 23//13 21//13 31//13 
f 31//13 32//13 23//13 
f 9//13 7//13 13//13 
f 7//13 2//13 15//13 
f 21//13 17//13 31//13 
f 27//13 25//13 23//13 
f 15//13 13//13 7//13 
f 31//13 17//13 15//13 
f 23//13 32//13 27//13 
f 15//13 2//13 31//13 
f 13//13 11//13 9//13 
f 5//13 3//13 2//13 
f 2//13 7//13 5//13 
f 21//13 19//13 17//13 
o mesh15
f 28//14 27//14 32//14 
f 32//14 30//14 28//14 
o mesh16
f 30//15 32//15 31//15 
f 31//15 29//15 30//15 
o mesh17
f 29//14 31//14 2//14 
f 2//14 1//14 29//14 
