# https://github.com/mikedh/trimesh
v -0.00544195 -0.03144344 0.01971866
v 0.00780474 -0.07929849 0.01278918
v 0.00596749 -0.04506498 0.01962005
v 0.00712153 -0.04058339 -0.01233611
v -0.01006488 -0.08794429 -0.00620869
v 0.00772912 -0.06163980 0.01272059
v 0.00597430 -0.04051985 0.01013449
v -0.00887292 -0.08563662 0.01881948
v -0.00995687 -0.03399847 -0.00482451
v 0.00518691 -0.09031064 -0.01957501
v 0.00781435 -0.06606236 -0.00638358
v 0.00425549 -0.08459203 0.01856981
v -0.00528501 -0.08828241 0.01907155
v -0.01023941 -0.03137697 0.01951368
v -0.00827770 -0.04049075 -0.00766779
v 0.00773865 -0.06151947 0.01031109
v 0.00611891 -0.08525033 -0.01963641
v 0.00597223 -0.08073016 0.01671735
v 0.00607104 -0.08737840 0.01257148
v 0.00463142 -0.07495992 0.01925960
v -0.00978149 -0.08962100 0.01272330
v -0.01153630 -0.03162833 0.00716068
v -0.01149549 -0.07328794 -0.00612740
v 0.00785404 -0.08066644 -0.00645086
v 0.00605241 -0.08548611 -0.01983413
v 0.00593473 -0.08616501 0.01509888
v -0.00039506 -0.08929939 0.01863863
v -0.00755817 -0.08964778 0.01701033
v -0.00941400 -0.09012778 -0.00619299
v -0.00983279 -0.08500242 0.01581859
v 0.00424481 -0.09073303 -0.01946648
v -0.01106855 -0.03372687 -0.00173511
v 0.00639491 -0.08505838 -0.01795028
v 0.00616744 -0.08800281 -0.01642402
v 0.00406140 -0.08771382 0.01754726
v -0.00748408 -0.08712790 0.01873772
v -0.00884444 -0.08940405 0.01542583
v -0.00528802 -0.08978688 0.01759567
v -0.00979037 -0.08935465 -0.00471667
v -0.00984498 -0.05392124 0.01885211
v -0.01139577 -0.07018345 0.00547757
v 0.00485910 -0.08964579 0.00980724
v -0.01041470 -0.03713302 -0.00448255
v 0.00110976 -0.08979540 0.01793207
v 0.00442720 -0.08879066 0.01550365
v -0.00829970 -0.09109544 0.00563688
v -0.01137107 -0.07358005 0.00395314
v -0.00166117 -0.09099935 0.01596333
v 0.00460310 -0.08774771 0.01663166
v 0.00384021 -0.08934843 0.01573788
v -0.00397259 -0.09108622 -0.00317047
v -0.00668784 -0.09087597 0.01270487
v -0.00022852 -0.09090918 0.01147940
v -0.00273059 -0.09118638 -0.00319660
v -0.00824045 -0.09097367 0.00857113
v -0.00519491 -0.09086383 0.01419246
v 0.00001712 -0.09101173 -0.00021642
v -0.00223116 -0.09102449 0.01563486
vn 0.26872279 0.72336588 0.63602663
vn 0.97767607 -0.08825156 0.19068602
vn 0.68100235 0.20461648 0.70311301
vn 0.56264160 0.49990629 -0.65842853
vn -0.90682278 -0.15690163 -0.39122158
vn 0.99307660 0.02449205 0.11488696
vn 0.87170679 0.47944746 0.10127886
vn -0.63181255 -0.17090855 0.75604443
vn -0.43086216 0.71643545 -0.54870579
vn 0.54769773 -0.52966693 -0.64767287
vn 0.99884689 0.00896581 -0.04716459
vn 0.53469058 -0.15891311 0.82997145
vn -0.12982499 -0.38460789 0.91390494
vn -0.55248779 0.59140349 0.58736628
vn -0.55208919 0.16558160 -0.81717823
vn 0.99979256 0.02006538 0.00349664
vn 0.97019926 -0.04207658 -0.23862722
vn 0.87009256 -0.08588385 0.48534823
vn 0.90780160 -0.40189166 0.11991389
vn 0.47533380 -0.04033343 0.87888053
vn -0.80883010 -0.56730125 0.15480039
vn -0.61843256 0.78164607 -0.08105913
vn -0.90901381 -0.02468032 -0.41603458
vn 0.99431264 -0.09967861 -0.03750399
vn 0.45828472 -0.02616571 -0.88842021
vn 0.90516651 -0.26999860 0.32829003
vn 0.07870059 -0.50485866 0.85960686
vn -0.43671786 -0.74688718 0.50143499
vn -0.65549685 -0.68194446 -0.32446207
vn -0.97592756 -0.08606296 0.20039602
vn -0.14695038 -0.70853468 -0.69020590
vn -0.83847313 0.49542755 -0.22696775
vn 0.98869436 -0.07240396 -0.13130548
vn 0.96331984 -0.26202744 -0.05793530
vn 0.61403001 -0.41303441 0.67258436
vn -0.39042184 -0.43136524 0.81332332
vn -0.70365313 -0.62495735 0.33808369
vn -0.14335910 -0.81544311 0.56080362
vn -0.94990919 -0.31169282 -0.02280592
vn -0.94236300 -0.02634142 0.33355374
vn -0.99756726 -0.01654211 0.06771946
vn 0.60808199 -0.79189857 0.05597272
vn -0.89518332 0.05484981 -0.44231021
vn 0.29793078 -0.72888127 0.61641654
vn 0.76985285 -0.57720568 0.27232371
vn -0.37207911 -0.92818979 0.00456609
vn -0.99798348 -0.05196819 0.03644552
vn 0.06469250 -0.95964333 0.27367783
vn 0.80629180 -0.40898190 0.42734920
vn 0.53311319 -0.79629824 0.28583114
vn -0.10658363 -0.99233766 -0.06249722
vn -0.21720286 -0.96722419 0.13153053
vn 0.18184075 -0.98277854 0.03286761
vn -0.01232102 -0.99961245 -0.02496297
vn -0.33638259 -0.93977869 0.06052072
vn -0.15968183 -0.96879243 0.18958622
vn 0.08612081 -0.99625481 0.00771695
vn -0.07212096 -0.98333940 0.16685978
f 6//6 3//3 2//2
f 6//6 4//4 3//3
f 7//7 1//1 3//3
f 7//7 3//3 4//4
f 7//7 4//4 1//1
f 9//9 1//1 4//4
f 13//13 3//3 1//1
f 14//14 13//13 1//1
f 14//14 8//8 13//13
f 15//15 9//9 4//4
f 16//16 11//11 4//4
f 16//16 4//4 6//6
f 16//16 6//6 2//2
f 16//16 2//2 11//11
f 18//18 2//2 3//3
f 20//20 3//3 13//13
f 20//20 18//18 3//3
f 20//20 12//12 18//18
f 22//22 14//14 1//1
f 22//22 1//1 9//9
f 23//23 5//5 21//21
f 24//24 4//4 11//11
f 24//24 11//11 2//2
f 24//24 2//2 19//19
f 25//25 15//15 4//4
f 25//25 4//4 17//17
f 26//26 18//18 12//12
f 26//26 19//19 2//2
f 26//26 2//2 18//18
f 27//27 20//20 13//13
f 27//27 12//12 20//20
f 30//30 21//21 8//8
f 31//31 23//23 15//15
f 31//31 5//5 23//23
f 31//31 29//29 5//5
f 31//31 25//25 10//10
f 31//31 15//15 25//25
f 32//32 23//23 22//22
f 32//32 22//22 9//9
f 33//33 17//17 4//4
f 33//33 4//4 24//24
f 34//34 24//24 19//19
f 34//34 19//19 10//10
f 34//34 33//33 24//24
f 34//34 10//10 25//25
f 34//34 25//25 17//17
f 34//34 17//17 33//33
f 36//36 28//28 13//13
f 36//36 13//13 8//8
f 36//36 8//8 28//28
f 37//37 28//28 8//8
f 37//37 8//8 21//21
f 37//37 21//21 28//28
f 38//38 27//27 13//13
f 38//38 13//13 28//28
f 39//39 29//29 21//21
f 39//39 21//21 5//5
f 39//39 5//5 29//29
f 40//40 30//30 8//8
f 40//40 8//8 14//14
f 40//40 14//14 30//30
f 41//41 30//30 14//14
f 41//41 14//14 22//22
f 41//41 22//22 23//23
f 42//42 31//31 10//10
f 42//42 10//10 19//19
f 43//43 32//32 9//9
f 43//43 23//23 32//32
f 43//43 9//9 15//15
f 43//43 15//15 23//23
f 44//44 35//35 12//12
f 44//44 12//12 27//27
f 45//45 19//19 26//26
f 45//45 42//42 19//19
f 46//46 21//21 29//29
f 47//47 41//41 23//23
f 47//47 23//23 21//21
f 47//47 21//21 30//30
f 47//47 30//30 41//41
f 48//48 44//44 27//27
f 48//48 27//27 38//38
f 48//48 38//38 28//28
f 49//49 45//45 26//26
f 49//49 26//26 12//12
f 49//49 12//12 35//35
f 50//50 42//42 45//45
f 50//50 48//48 42//42
f 50//50 44//44 48//48
f 50//50 35//35 44//44
f 50//50 49//49 35//35
f 50//50 45//45 49//49
f 51//51 46//46 29//29
f 51//51 29//29 31//31
f 52//52 28//28 21//21
f 53//53 31//31 42//42
f 53//53 42//42 48//48
f 54//54 46//46 51//51
f 54//54 51//51 31//31
f 55//55 52//52 21//21
f 55//55 21//21 46//46
f 56//56 28//28 52//52
f 57//57 53//53 48//48
f 57//57 31//31 53//53
f 57//57 54//54 31//31
f 57//57 48//48 54//54
f 58//58 54//54 48//48
f 58//58 46//46 54//54
f 58//58 55//55 46//46
f 58//58 52//52 55//55
f 58//58 56//56 52//52
f 58//58 48//48 28//28
f 58//58 28//28 56//56

