# https://github.com/mikedh/trimesh
v 0.05074169 0.05632149 0.01901295
v 0.05411756 0.05544452 0.01802595
v 0.04865996 0.06235832 -0.02005532
v 0.03881192 0.04975549 -0.02402725
v 0.01996907 0.02643927 0.01161253
v 0.04332682 0.02895479 -0.01635312
v 0.05267085 0.06126653 0.00434670
v 0.03728906 0.03409351 0.02096236
v 0.03283416 0.05465762 0.01132453
v 0.05419694 0.05272215 -0.02015154
v 0.02197199 0.02566676 -0.02174520
v 0.05397643 0.05791403 0.01385703
v 0.04157248 0.03753485 0.02051138
v 0.03685322 0.02661667 0.01454058
v 0.03198230 0.05215876 -0.01579678
v 0.04204315 0.06253543 -0.00991873
v 0.03686661 0.05731601 0.01256199
v 0.03182512 0.04914690 0.01677327
v 0.05383331 0.04942595 0.01273465
v 0.05377445 0.06120303 -0.01638600
v 0.03613741 0.02693316 -0.02514950
v 0.05384909 0.05675315 -0.02323547
v 0.05004507 0.05754023 0.01709545
v 0.05298219 0.05593940 0.01840902
v 0.04336797 0.05010266 0.02036501
v 0.04356208 0.03781582 0.01995644
v 0.01952468 0.02590358 -0.00054420
v 0.03993641 0.05492147 -0.02278428
v 0.05219430 0.06256138 -0.01111283
v 0.04173923 0.06205608 -0.01585032
v 0.04927558 0.06234571 0.00131384
v 0.02085251 0.02869809 0.01177001
v 0.03793806 0.04999707 0.02034438
v 0.03768777 0.05549584 0.01823110
v 0.05375269 0.04957825 0.00461269
v 0.04245074 0.03123624 0.00914162
v 0.05401117 0.06023390 0.00351417
v 0.04088111 0.02806312 -0.02021186
v 0.02473401 0.02578091 -0.02485487
v 0.05401544 0.05586819 -0.02250634
v 0.05272768 0.06216483 -0.01683949
v 0.03755478 0.03243799 -0.02559987
v 0.05168963 0.05739981 0.01650957
v 0.05302097 0.05063387 0.01725231
v 0.02108965 0.03336017 -0.01591831
v 0.04624919 0.05332028 -0.02397731
v 0.04650569 0.06255503 -0.01973707
v 0.03906895 0.05494694 -0.02200079
v 0.05102544 0.06206170 0.00209957
v 0.04463410 0.05648007 0.01896266
v 0.03741032 0.05384271 0.01903472
v 0.04328750 0.02944411 -0.00674707
v 0.05361813 0.06144337 -0.01496533
v 0.04342060 0.03002530 -0.01809626
v 0.04176871 0.02817792 -0.00691938
v 0.03162816 0.04187645 -0.02399130
v 0.04471297 0.03925378 -0.02313079
v 0.05143339 0.06190657 -0.01839320
v 0.03688081 0.02988062 -0.02557878
v 0.03027573 0.03907340 -0.02418637
v 0.05297580 0.05040975 0.01702660
v 0.05356838 0.05076743 0.01569114
v 0.05382766 0.05387235 0.01773663
v 0.01913820 0.02587271 -0.01744038
vn 0.19514068 0.49776419 0.84507451
vn 0.78131167 0.20696318 0.58882791
vn 0.10511664 0.81748264 -0.56627964
vn -0.17503721 0.20046148 -0.96393836
vn -0.74729418 -0.50470565 0.43223097
vn 0.69578174 -0.71158554 -0.09764112
vn 0.39173375 0.89860510 0.19761970
vn -0.02125964 -0.33426155 0.94224055
vn -0.75540371 0.63110522 0.17627090
vn 0.93455773 -0.24944148 -0.25373372
vn -0.63600137 -0.58228077 -0.50641028
vn 0.72551300 0.64701706 0.23452039
vn 0.21632747 -0.11278432 0.96978458
vn 0.29525272 -0.85738063 0.42157358
vn -0.77082317 0.57250630 -0.27940683
vn -0.36323119 0.93161131 0.01278527
vn -0.40113054 0.88472205 0.23740510
vn -0.72712883 0.31839873 0.60819891
vn 0.93563392 -0.33315737 0.11659908
vn 0.89021013 0.43658988 -0.13005843
vn 0.27968435 -0.70509781 -0.65162393
vn 0.63387824 0.23721849 -0.73615608
vn 0.06986908 0.91292077 0.40211190
vn 0.37429036 0.46240593 0.80379567
vn 0.07554270 0.08633404 0.99339807
vn 0.58923770 -0.39671650 0.70385719
vn -0.78142014 -0.62287041 0.03761670
vn -0.34940301 0.46742379 -0.81205452
vn 0.35683919 0.93403873 0.01540944
vn -0.48544575 0.84123614 -0.23804240
vn -0.03833630 0.98721073 0.15474267
vn -0.87538855 0.33781574 0.34579678
vn -0.26203219 0.15219520 0.95298255
vn -0.38913344 0.69463058 0.60503184
vn 0.93815974 -0.34568705 -0.01888804
vn 0.76948532 -0.61556998 0.17019383
vn 0.89269922 0.44760131 0.05235619
vn 0.56281889 -0.76311635 -0.31762925
vn -0.39747273 -0.55616087 -0.72986335
vn 0.92879508 -0.14931131 -0.33918408
vn 0.46144087 0.85796835 -0.22574905
vn 0.06973432 0.00660029 -0.99754376
vn 0.25142545 0.87674805 0.40999768
vn 0.77384183 -0.34715623 0.52976539
vn -0.88849275 0.38195936 -0.25433774
vn -0.01941248 0.20571905 -0.97841853
vn -0.15512872 0.84313939 -0.51483108
vn -0.59862601 0.56140019 -0.57138142
vn 0.18234224 0.97010961 0.16012073
vn -0.07757351 0.67995774 0.72913636
vn -0.38460072 0.37017686 0.84560711
vn 0.76330097 -0.64325732 0.05993043
vn 0.76202437 0.64753086 0.00475924
vn 0.79893111 -0.47464526 -0.36935207
vn 0.46687617 -0.88382285 0.02972896
vn -0.49462158 0.32281362 -0.80693299
vn 0.69660142 -0.37271632 -0.61304894
vn 0.43980187 0.74328858 -0.50407975
vn 0.22477031 -0.14017420 -0.96427667
vn -0.46618720 0.26433179 -0.84427377
vn 0.81787944 -0.49077183 0.30036018
vn 0.92136123 -0.30669090 0.23881829
vn 0.80973195 -0.25145369 0.53019357
vn -0.82943326 -0.50049826 -0.24807652
f 14//14 8//8 5//5
f 17//17 16//16 9//9
f 19//19 10//10 2//2
f 23//23 12//12 7//7
f 24//24 2//2 12//12
f 24//24 1//1 13//13
f 25//25 13//13 1//1
f 25//25 8//8 13//13
f 26//26 13//13 8//8
f 26//26 8//8 14//14
f 26//26 24//24 13//13
f 26//26 2//2 24//24
f 27//27 14//14 5//5
f 27//27 11//11 14//14
f 28//28 3//3 22//22
f 30//30 15//15 9//9
f 30//30 9//9 16//16
f 31//31 16//16 17//17
f 31//31 29//29 16//16
f 32//32 18//18 9//9
f 32//32 5//5 18//18
f 33//33 18//18 5//5
f 33//33 5//5 8//8
f 33//33 8//8 25//25
f 34//34 17//17 9//9
f 34//34 9//9 18//18
f 35//35 19//19 6//6
f 35//35 6//6 10//10
f 35//35 10//10 19//19
f 36//36 26//26 14//14
f 36//36 19//19 26//26
f 37//37 7//7 12//12
f 37//37 12//12 2//2
f 37//37 2//2 10//10
f 37//37 29//29 7//7
f 38//38 14//14 21//21
f 39//39 21//21 14//14
f 39//39 14//14 11//11
f 40//40 22//22 20//20
f 40//40 37//37 10//10
f 40//40 20//20 37//37
f 41//41 20//20 22//22
f 41//41 3//3 29//29
f 43//43 23//23 1//1
f 43//43 1//1 24//24
f 43//43 24//24 12//12
f 43//43 12//12 23//23
f 45//45 9//9 15//15
f 45//45 32//32 9//9
f 45//45 27//27 5//5
f 45//45 5//5 32//32
f 46//46 28//28 22//22
f 46//46 4//4 28//28
f 46//46 42//42 4//4
f 46//46 22//22 42//42
f 47//47 29//29 3//3
f 47//47 16//16 29//29
f 47//47 30//30 16//16
f 47//47 3//3 28//28
f 48//48 15//15 30//30
f 48//48 47//47 28//28
f 48//48 30//30 47//47
f 49//49 7//7 29//29
f 49//49 29//29 31//31
f 49//49 31//31 23//23
f 49//49 23//23 7//7
f 50//50 31//31 17//17
f 50//50 23//23 31//31
f 50//50 17//17 34//34
f 50//50 1//1 23//23
f 50//50 33//33 25//25
f 50//50 25//25 1//1
f 51//51 34//34 18//18
f 51//51 18//18 33//33
f 51//51 50//50 34//34
f 51//51 33//33 50//50
f 52//52 36//36 14//14
f 52//52 6//6 19//19
f 52//52 19//19 36//36
f 53//53 37//37 20//20
f 53//53 29//29 37//37
f 53//53 41//41 29//29
f 53//53 20//20 41//41
f 54//54 38//38 10//10
f 54//54 10//10 6//6
f 54//54 6//6 38//38
f 55//55 38//38 6//6
f 55//55 14//14 38//38
f 55//55 52//52 14//14
f 55//55 6//6 52//52
f 56//56 28//28 4//4
f 56//56 48//48 28//28
f 56//56 45//45 15//15
f 56//56 15//15 48//48
f 57//57 40//40 10//10
f 57//57 10//10 38//38
f 57//57 38//38 21//21
f 57//57 21//21 22//22
f 57//57 22//22 40//40
f 58//58 41//41 22//22
f 58//58 22//22 3//3
f 58//58 3//3 41//41
f 59//59 42//42 22//22
f 59//59 22//22 21//21
f 59//59 21//21 39//39
f 59//59 39//39 42//42
f 60//60 42//42 39//39
f 60//60 4//4 42//42
f 60//60 56//56 4//4
f 60//60 39//39 11//11
f 60//60 11//11 45//45
f 60//60 45//45 56//56
f 61//61 44//44 26//26
f 61//61 26//26 19//19
f 61//61 19//19 44//44
f 62//62 44//44 19//19
f 62//62 19//19 2//2
f 63//63 2//2 26//26
f 63//63 26//26 44//44
f 63//63 62//62 2//2
f 63//63 44//44 62//62
f 64//64 45//45 11//11
f 64//64 11//11 27//27
f 64//64 27//27 45//45

