# https://github.com/mikedh/trimesh
v 0.01482161 -0.01380346 0.01909581
v 0.01570980 -0.01337864 0.01867896
v -0.01050673 -0.01290658 0.01311041
v -0.01008243 -0.01674416 -0.02388475
v -0.00628164 -0.05235088 -0.02019829
v 0.01562487 -0.01325548 -0.02454170
v 0.00779519 -0.01375492 0.02010064
v 0.00597430 -0.04051985 0.01013449
v -0.01555173 -0.03098057 -0.01398823
v 0.01690775 -0.01300313 -0.01848364
v -0.01006540 -0.01382853 -0.01884278
v -0.00632867 -0.04534284 -0.02474227
v 0.01258382 -0.02068444 0.01889759
v -0.01142472 -0.03199413 0.01183960
v 0.01704174 -0.01315363 0.00561898
v 0.00606999 -0.04034365 -0.02210912
v -0.00559639 -0.01399888 -0.02317803
v -0.01544652 -0.03052498 -0.01552401
v 0.00528616 -0.01371774 -0.02545380
v 0.01341025 -0.02178099 0.01408615
v 0.01426098 -0.01638733 0.01894004
v 0.00834556 -0.02263151 0.01975186
v 0.00665975 -0.02346424 0.01975470
v -0.01116008 -0.05249980 -0.00475346
v -0.00531817 -0.05256988 -0.00762470
v 0.01536632 -0.02156909 -0.01835426
v 0.00533589 -0.04045615 -0.02478499
v -0.01063027 -0.03148854 -0.02483710
v -0.01186504 -0.05269549 -0.01766328
v 0.01355699 -0.01887230 0.01859871
v 0.01506040 -0.02195028 0.00261718
v 0.01523692 -0.01469950 0.01869315
v 0.01144269 -0.02136909 0.01916187
v -0.00613817 -0.04098317 0.01012815
v -0.00835237 -0.05248615 -0.00422664
v 0.01651021 -0.01636872 -0.01069828
v 0.01213375 -0.03082120 -0.00837413
v 0.01073183 -0.01659989 -0.02553130
v 0.00667238 -0.01809458 -0.02550760
v -0.00999853 -0.01850506 -0.02410957
v -0.00742008 -0.04573438 -0.02458775
v -0.01155327 -0.05250552 -0.01085282
v 0.01653994 -0.01648731 0.00251124
v 0.01480856 -0.01746557 0.01573143
v 0.01350041 -0.02733957 -0.01303952
v 0.01059412 -0.01374274 -0.02558091
v -0.00998653 -0.03737861 -0.02469221
v 0.01334220 -0.02795570 -0.00871326
vn 0.27929211 0.18443729 0.94232627
vn 0.70453211 0.51407782 0.48924278
vn -0.61592734 0.62056223 0.48532055
vn -0.61754247 0.39124201 -0.68232762
vn 0.20391257 -0.85438990 -0.47795142
vn 0.61513611 0.52553102 -0.58772843
vn -0.08088769 0.58350262 0.80807294
vn 0.53235228 -0.67023536 0.51709342
vn -0.99962915 0.01629157 0.02182092
vn 0.76717979 0.63286339 -0.10449450
vn -0.60663681 0.78067224 -0.15014205
vn 0.05088845 -0.29998590 -0.95258534
vn 0.63172633 -0.33759566 0.69781875
vn -0.74415186 -0.18839650 0.64089373
vn 0.78789772 0.61254971 0.06324584
vn 0.80915181 -0.57362224 -0.12740043
vn -0.18248490 0.84556595 -0.50171454
vn -0.97310928 0.06759747 -0.22020198
vn -0.06300152 0.67720742 -0.73308998
vn 0.90687952 -0.38131027 0.17936558
vn 0.46306232 -0.18631065 0.86652272
vn 0.19895912 -0.26455608 0.94362352
vn -0.06604505 -0.25316221 0.96516680
vn -0.59989468 -0.74863975 0.28224971
vn 0.39778774 -0.91441931 0.07484812
vn 0.93787659 -0.29253324 -0.18657923
vn 0.53593970 -0.43094838 -0.72598356
vn -0.55145482 -0.01404037 -0.83408660
vn -0.62904346 -0.71812058 -0.29766956
vn 0.84905772 -0.36076998 0.38593523
vn 0.94194677 -0.32698734 0.07625986
vn 0.78515189 -0.28336244 0.55067434
vn 0.34470371 -0.30623230 0.88735626
vn -0.27813604 -0.58805060 0.75949775
vn 0.07040041 -0.92740299 0.36737919
vn 0.98526780 -0.17080225 -0.00859983
vn 0.89175438 -0.45245672 0.00755282
vn 0.13194597 -0.04489860 -0.99023956
vn -0.01571772 -0.01325280 -0.99978864
vn -0.35814991 0.08240715 -0.93002027
vn -0.31138287 -0.33703720 -0.88850809
vn -0.92393630 -0.37832172 0.05669563
vn 0.97620546 -0.21356430 0.03759238
vn 0.92705036 -0.33740699 0.16350580
vn 0.92047418 -0.38537212 -0.06492772
vn 0.05727643 0.51424779 -0.85572696
vn -0.54784436 -0.09438632 -0.83123870
vn 0.93645374 -0.35046239 0.01518273
f 7//7 1//1 2//2
f 7//7 2//2 3//3
f 11//11 10//10 6//6
f 11//11 3//3 10//10
f 14//14 3//3 9//9
f 15//15 10//10 3//3
f 15//15 3//3 2//2
f 17//17 4//4 11//11
f 18//18 9//9 3//3
f 18//18 3//3 11//11
f 18//18 11//11 4//4
f 19//19 4//4 17//17
f 19//19 17//17 11//11
f 19//19 11//11 6//6
f 21//21 2//2 1//1
f 22//22 1//1 7//7
f 23//23 7//7 3//3
f 23//23 3//3 14//14
f 23//23 22//22 7//7
f 23//23 8//8 22//22
f 24//24 14//14 9//9
f 25//25 16//16 8//8
f 25//25 5//5 16//16
f 26//26 6//6 10//10
f 27//27 26//26 16//16
f 27//27 6//6 26//26
f 27//27 16//16 5//5
f 27//27 5//5 12//12
f 28//28 18//18 4//4
f 29//29 25//25 24//24
f 29//29 5//5 25//25
f 29//29 9//9 18//18
f 29//29 18//18 28//28
f 30//30 13//13 8//8
f 30//30 8//8 20//20
f 31//31 20//20 8//8
f 32//32 21//21 13//13
f 32//32 2//2 21//21
f 32//32 13//13 30//30
f 33//33 21//21 1//1
f 33//33 13//13 21//21
f 33//33 1//1 22//22
f 33//33 22//22 8//8
f 33//33 8//8 13//13
f 34//34 23//23 14//14
f 34//34 8//8 23//23
f 34//34 14//14 24//24
f 35//35 25//25 8//8
f 35//35 24//24 25//25
f 35//35 34//34 24//24
f 35//35 8//8 34//34
f 36//36 26//26 10//10
f 36//36 10//10 15//15
f 37//37 8//8 16//16
f 37//37 31//31 8//8
f 38//38 6//6 27//27
f 38//38 27//27 12//12
f 39//39 28//28 19//19
f 39//39 12//12 28//28
f 39//39 38//38 12//12
f 40//40 28//28 4//4
f 40//40 4//4 19//19
f 40//40 19//19 28//28
f 41//41 12//12 5//5
f 41//41 5//5 29//29
f 42//42 29//29 24//24
f 42//42 24//24 9//9
f 42//42 9//9 29//29
f 43//43 15//15 2//2
f 43//43 2//2 31//31
f 43//43 36//36 15//15
f 43//43 31//31 26//26
f 43//43 26//26 36//36
f 44//44 31//31 2//2
f 44//44 20//20 31//31
f 44//44 2//2 32//32
f 44//44 32//32 30//30
f 44//44 30//30 20//20
f 45//45 37//37 16//16
f 45//45 16//16 26//26
f 46//46 19//19 6//6
f 46//46 6//6 38//38
f 46//46 39//39 19//19
f 46//46 38//38 39//39
f 47//47 41//41 29//29
f 47//47 29//29 28//28
f 47//47 28//28 12//12
f 47//47 12//12 41//41
f 48//48 45//45 26//26
f 48//48 26//26 31//31
f 48//48 31//31 37//37
f 48//48 37//37 45//45

