# https://github.com/mikedh/trimesh
v 0.00779519 -0.01375492 0.02010064
v 0.00596749 -0.04506498 0.01962005
v 0.00663493 -0.03170920 0.01016582
v -0.01746947 -0.01364432 0.01162488
v -0.01775560 -0.01843981 0.01776394
v -0.00426895 -0.04453807 0.01005562
v 0.00766183 -0.01302974 0.01382624
v 0.00600596 -0.04506959 0.01013336
v -0.00543263 -0.02560220 0.02042374
v -0.01580947 -0.01319452 0.01746169
v -0.01688397 -0.01393527 0.01154648
v -0.01765116 -0.02123067 0.01618710
v -0.00560612 -0.04490548 0.01949674
v 0.00309749 -0.03146675 0.02041865
v -0.01722092 -0.01299647 0.01592447
v -0.01004399 -0.01384798 0.01995620
v 0.00640157 -0.02255087 0.02042625
v -0.00380185 -0.02977135 0.02038869
v 0.00276139 -0.01378344 0.02045561
v -0.01004401 -0.03156083 0.01950584
v 0.00488134 -0.02995394 0.02032963
v 0.00731235 -0.01745279 0.02040144
v -0.00563469 -0.01404570 0.02039294
v -0.00750356 -0.01839223 0.02030296
v 0.00629091 -0.03002403 0.02017101
v -0.00603952 -0.01652383 0.02042549
vn 0.63017043 0.54361577 0.55440700
vn 0.55458570 -0.61063610 0.56529484
vn 0.67620204 0.02276564 -0.73636440
vn -0.61841066 0.50360183 -0.60328555
vn -0.80582040 0.00425687 0.59214471
vn -0.39264590 -0.64020997 -0.66027297
vn 0.61312599 0.64159542 -0.46090328
vn 0.55292788 -0.59930139 -0.57888566
vn -0.07983891 -0.01970028 0.99661309
vn -0.33883739 0.71601402 0.61033855
vn -0.01716129 0.18729419 -0.98215395
vn -0.95020611 -0.31145082 -0.01033145
vn -0.46625138 -0.69314150 0.54969493
vn 0.02833871 -0.03555311 0.99896591
vn -0.64448510 0.73772189 0.20101085
vn -0.15287874 0.57269511 0.80538711
vn 0.11799152 -0.01978743 0.99281743
vn -0.04821651 -0.03674793 0.99816069
vn 0.01348832 0.64532597 0.76378823
vn -0.30370362 -0.09314116 0.94820295
vn 0.09176840 -0.03413834 0.99519502
vn 0.45138511 -0.01678462 0.89217138
vn -0.04272019 0.42136802 0.90588298
vn -0.12797006 -0.01053470 0.99172208
vn 0.20165580 -0.03935911 0.97866532
vn -0.05400418 0.01115646 0.99847838
f 8//8 1//1 2//2
f 8//8 7//7 1//1
f 8//8 3//3 7//7
f 8//8 6//6 3//3
f 11//11 6//6 4//4
f 11//11 3//3 6//6
f 11//11 7//7 3//3
f 11//11 4//4 7//7
f 12//12 5//5 4//4
f 12//12 4//4 6//6
f 13//13 8//8 2//2
f 13//13 6//6 8//8
f 13//13 12//12 6//6
f 13//13 5//5 12//12
f 14//14 13//13 2//2
f 15//15 4//4 5//5
f 15//15 5//5 10//10
f 15//15 7//7 4//4
f 15//15 10//10 1//1
f 15//15 1//1 7//7
f 16//16 10//10 5//5
f 18//18 14//14 9//9
f 18//18 9//9 13//13
f 18//18 13//13 14//14
f 19//19 1//1 10//10
f 19//19 10//10 16//16
f 19//19 9//9 14//14
f 19//19 14//14 17//17
f 20//20 13//13 9//9
f 20//20 16//16 5//5
f 20//20 5//5 13//13
f 21//21 17//17 14//14
f 21//21 14//14 2//2
f 22//22 2//2 1//1
f 22//22 19//19 17//17
f 22//22 1//1 19//19
f 23//23 19//19 16//16
f 24//24 20//20 9//9
f 24//24 16//16 20//20
f 25//25 21//21 2//2
f 25//25 17//17 21//21
f 25//25 22//22 17//17
f 25//25 2//2 22//22
f 26//26 9//9 19//19
f 26//26 19//19 23//23
f 26//26 24//24 9//9
f 26//26 23//23 16//16
f 26//26 16//16 24//24

