# https://github.com/mikedh/trimesh
v 0.03793020 0.04859240 0.02061386
v 0.03630540 0.02836301 0.02046603
v 0.03617299 0.02080839 0.01145863
v 0.02978906 0.04400583 0.01157206
v 0.02105004 0.02879432 0.01914453
v 0.03654140 0.04399365 0.01268240
v 0.03003592 0.03724344 0.02059918
v 0.03177806 0.04792069 0.01845486
v 0.01945557 -0.00608157 0.01859454
v 0.03783929 0.05293875 0.01967169
v 0.02261821 0.03311662 0.01810493
v 0.03450664 0.01999231 0.01949830
v 0.01912145 -0.00447039 0.01931808
v 0.01682050 0.00878873 0.01068770
v 0.03688695 0.05356887 0.01786128
v 0.03359772 0.04542903 0.02019537
v 0.03173825 0.04844783 0.01734782
v 0.02154773 0.03033983 0.01887083
v 0.02453164 -0.00160500 0.01274353
v 0.03581561 0.02091704 0.01423187
v 0.02892265 0.02794698 0.02047041
v 0.03512561 0.02545318 0.02045917
v 0.02124168 -0.00446239 0.01828019
v 0.02856274 0.00859348 0.01010968
v 0.02085251 0.02869809 0.01177001
v 0.01906752 -0.00574766 0.01666509
v 0.03584804 0.05164210 0.01945746
v 0.03518720 0.05261644 0.01723335
v 0.03310526 0.04905214 0.01911075
v 0.03573686 0.02543553 0.02009386
v 0.02132015 -0.00271663 0.01881308
v 0.02402519 -0.00094746 0.01727867
v 0.02431691 -0.00236385 0.01007813
v 0.03650281 0.04854110 0.02031856
v 0.02038426 -0.00567166 0.01824025
v 0.02426097 0.00016616 0.01805633
v 0.01981838 -0.00365395 0.01056333
vn 0.68042166 0.11105270 0.72435742
vn 0.69143235 -0.08908708 0.71692733
vn 0.78971093 -0.19528150 -0.58156838
vn -0.44332665 0.45940513 -0.76968071
vn -0.74640230 0.18437947 0.63944337
vn 0.65647566 0.18328153 -0.73174285
vn -0.16535780 0.08435662 0.98261933
vn -0.73878078 0.49568172 0.45662084
vn -0.23231699 -0.84511930 0.48145839
vn 0.54267223 0.66904253 0.50782767
vn -0.85340790 0.46737468 0.23077234
vn 0.72691856 -0.32495006 0.60497675
vn -0.49326995 -0.28583594 0.82157323
vn -0.83033050 0.04175850 -0.55570450
vn 0.21676308 0.95270388 -0.21300019
vn -0.27839778 0.18034664 0.94338209
vn -0.80040632 0.59682888 0.05608034
vn -0.81668852 0.36453522 0.44736331
vn 0.83820755 -0.53232395 0.11848759
vn 0.93774199 -0.31547897 0.14530306
vn -0.05947385 -0.01134831 0.99816536
vn 0.25171959 -0.11949236 0.96039514
vn 0.66485684 -0.46504538 0.58454956
vn 0.18584874 -0.05679408 -0.98093561
vn -0.75012344 0.27029385 -0.60353629
vn -0.55174848 -0.81822118 -0.16151691
vn -0.45997184 0.47585495 0.74965857
vn -0.48429119 0.83255446 -0.26891471
vn -0.56309814 0.44571314 0.69588812
vn 0.79905542 -0.22992563 0.55555796
vn 0.42463520 -0.27422227 0.86283665
vn 0.81522541 -0.50084645 0.29079264
vn 0.50739957 -0.54796399 -0.66504221
vn -0.22753212 0.18671986 0.95570122
vn 0.56121188 -0.75654497 0.33567981
vn 0.72194903 -0.41887126 0.55075990
vn -0.41423491 -0.60867322 -0.67670256
f 1//1 2//2 3//3
f 6//6 3//3 4//4
f 10//10 1//1 3//3
f 10//10 3//3 6//6
f 13//13 7//7 5//5
f 14//14 13//13 5//5
f 15//15 10//10 6//6
f 15//15 6//6 4//4
f 16//16 7//7 1//1
f 16//16 5//5 7//7
f 17//17 11//11 8//8
f 17//17 4//4 11//11
f 18//18 8//8 11//11
f 20//20 3//3 2//2
f 20//20 19//19 3//3
f 20//20 12//12 19//19
f 21//21 7//7 13//13
f 22//22 13//13 12//12
f 22//22 21//21 13//13
f 22//22 7//7 21//21
f 22//22 2//2 1//1
f 22//22 1//1 7//7
f 23//23 13//13 9//9
f 24//24 14//14 4//4
f 24//24 4//4 3//3
f 25//25 11//11 4//4
f 25//25 4//4 14//14
f 25//25 18//18 11//11
f 25//25 14//14 5//5
f 25//25 5//5 18//18
f 26//26 9//9 13//13
f 26//26 13//13 14//14
f 27//27 10//10 15//15
f 28//28 15//15 4//4
f 28//28 4//4 17//17
f 28//28 17//17 8//8
f 28//28 27//27 15//15
f 29//29 18//18 5//5
f 29//29 8//8 18//18
f 29//29 5//5 16//16
f 29//29 16//16 27//27
f 29//29 28//28 8//8
f 29//29 27//27 28//28
f 30//30 20//20 2//2
f 30//30 12//12 20//20
f 30//30 22//22 12//12
f 30//30 2//2 22//22
f 31//31 23//23 12//12
f 31//31 12//12 13//13
f 31//31 13//13 23//23
f 32//32 19//19 12//12
f 33//33 9//9 26//26
f 33//33 14//14 24//24
f 33//33 24//24 3//3
f 33//33 3//3 19//19
f 34//34 27//27 16//16
f 34//34 16//16 1//1
f 34//34 1//1 10//10
f 34//34 10//10 27//27
f 35//35 32//32 23//23
f 35//35 19//19 32//32
f 35//35 33//33 19//19
f 35//35 23//23 9//9
f 35//35 9//9 33//33
f 36//36 32//32 12//12
f 36//36 12//12 23//23
f 36//36 23//23 32//32
f 37//37 33//33 26//26
f 37//37 26//26 14//14
f 37//37 14//14 33//33

