# https://github.com/mikedh/trimesh
v -0.04322745 0.05544049 0.01955033
v -0.02050800 0.00703512 0.01161833
v -0.02651562 0.03335009 -0.02427646
v -0.04974983 0.05605110 -0.02401920
v -0.05898172 0.05035136 0.01245756
v -0.03005321 0.00730048 -0.02476961
v -0.03836390 0.05468756 -0.02045192
v -0.02523068 0.03041487 0.01753036
v -0.03056744 0.00726248 0.01885462
v -0.05641773 0.06237043 0.01041902
v -0.02063661 0.00698381 -0.02428131
v -0.04162709 0.04871763 -0.02546487
v -0.05781623 0.05154830 -0.01725437
v -0.03678493 0.05335555 0.00942018
v -0.05680805 0.05370256 0.01895653
v -0.02379945 0.02020696 0.01962751
v -0.03978125 0.01853998 0.00725080
v -0.04249986 0.05607495 -0.02464029
v -0.02145469 0.02464749 -0.01776403
v -0.04725234 0.04357367 -0.02457940
v -0.03558308 0.03982800 -0.02557448
v -0.05783550 0.05603984 -0.01794731
v -0.03422997 0.04541350 0.01879650
v -0.05331413 0.06276275 0.00813059
v -0.05791912 0.05118952 0.01745300
v -0.05712036 0.05616980 0.01893078
v -0.03314511 0.02529144 0.02042670
v -0.02490662 0.00714254 0.01999051
v -0.02380445 0.02618786 0.01425141
v -0.03964094 0.01840933 0.01400827
v -0.03108451 0.00748949 0.01865681
v -0.03853913 0.01931306 -0.01903800
v -0.05912011 0.05008322 0.00207374
v -0.04705465 0.05621331 -0.02441431
v -0.04125523 0.05540350 -0.02399361
v -0.02232865 0.01693305 -0.02458679
v -0.03719176 0.05349658 -0.01999137
v -0.04235635 0.04153307 -0.02543391
v -0.03838949 0.02269800 -0.02395371
v -0.02531832 0.02876655 -0.02498009
v -0.03564835 0.04109510 -0.02544186
v -0.05685420 0.05112944 -0.01820028
v -0.04348686 0.05627170 0.01867724
v -0.02656827 0.03276925 0.01905070
v -0.03943662 0.05592687 -0.00498005
v -0.04079020 0.05595467 -0.02237287
v -0.05724327 0.06207080 0.00858038
v -0.05066681 0.05631698 -0.02288120
v -0.05807967 0.05595653 0.01867532
v -0.03273951 0.03387412 0.02045129
v -0.02325731 0.01732968 0.01956859
v -0.03882034 0.02027476 0.01946435
v -0.02180673 0.02494388 -0.00971478
v -0.05893137 0.05102501 0.01411863
v -0.03056418 0.00768924 -0.02372644
v -0.05910429 0.05435502 -0.00162628
v -0.04398851 0.04447365 -0.02538125
v -0.03691315 0.04892535 -0.02409020
v -0.02533025 0.03199393 -0.01811931
v -0.04105874 0.03999329 -0.02548844
v -0.04972618 0.04899505 -0.02363954
v -0.04242832 0.05636220 0.01212052
v -0.05521782 0.06270457 0.01007876
v -0.04477747 0.05620690 0.01913521
vn 0.34128143 0.45509864 0.82244283
vn 0.75318820 -0.64128128 0.14651228
vn 0.72824487 0.38976860 -0.56368417
vn -0.34056972 0.51976278 -0.78349150
vn -0.95662418 -0.27869562 0.08484646
vn -0.33277128 -0.68533854 -0.64774560
vn 0.66119770 0.71476722 -0.22787152
vn 0.92425152 0.31392821 0.21727449
vn -0.28091659 -0.76678336 0.57717341
vn -0.43220112 0.84226978 0.32215496
vn 0.60184545 -0.57356786 -0.55569952
vn 0.02361512 0.07988503 -0.99652431
vn -0.90366709 -0.24302982 -0.35259368
vn 0.72555339 0.67862685 0.11418352
vn -0.32849082 -0.12274131 0.93649792
vn 0.66376351 0.12473204 0.73746859
vn -0.82177099 -0.56955254 -0.01738808
vn 0.21502618 0.67033708 -0.71021964
vn 0.95817651 0.25986203 -0.11987286
vn -0.47373958 -0.16960128 -0.86417950
vn 0.07819106 0.04397572 -0.99596802
vn -0.74516381 0.48928086 -0.45313921
vn 0.63676442 0.42938260 0.64043865
vn 0.14940778 0.98877268 0.00243114
vn -0.78841816 -0.29622704 0.53911627
vn -0.18149187 0.45992685 0.86921113
vn -0.04203559 -0.02962100 0.99867693
vn 0.32901518 -0.63855761 0.69569619
vn 0.97184458 0.20500044 0.11615905
vn -0.82613480 -0.54638628 0.13770740
vn -0.61294121 -0.67912251 0.40385107
vn -0.84492777 -0.51858849 -0.13100782
vn -0.96079554 -0.27634800 -0.02244341
vn -0.08205773 0.65382679 -0.75218154
vn 0.62753782 0.54920653 -0.55187722
vn 0.60783009 0.09167995 -0.78875685
vn 0.78935098 0.57268417 -0.22126425
vn -0.12364262 -0.05173717 -0.99097718
vn -0.66185148 -0.32134980 -0.67726430
vn 0.57476909 0.16299364 -0.80191868
vn 0.18780950 0.13234950 -0.97324776
vn -0.69303082 -0.21402493 -0.68840512
vn 0.43883281 0.80427710 0.40070452
vn 0.69749241 0.33666233 0.63258423
vn 0.57262768 0.81980766 -0.00359591
vn 0.48201305 0.84378954 -0.23597166
vn -0.70051196 0.71272230 -0.03619272
vn -0.21940916 0.91309122 -0.34369178
vn -0.71745991 0.28856211 0.63402144
vn 0.10044541 0.07074870 0.99242397
vn 0.71765404 0.06477671 0.69338060
vn -0.55154053 -0.33401784 0.76435275
vn 0.95749751 0.28610138 0.03666758
vn -0.96644984 -0.19101699 0.17171843
vn -0.75961818 -0.64217657 -0.10290520
vn -0.99252314 0.11581649 -0.03852736
vn -0.14540730 -0.02089194 -0.98915127
vn 0.65087839 0.44241510 -0.61694911
vn 0.88189346 0.47034709 -0.03221094
vn -0.06105101 -0.03146196 -0.99763867
vn -0.55017043 -0.08892322 -0.83030426
vn 0.49165857 0.86704219 0.08068267
vn -0.03960038 0.97107672 0.23546085
vn 0.05823030 0.69451851 0.71711454
f 11//11 9//9 6//6
f 11//11 2//2 9//9
f 19//19 2//2 11//11
f 19//19 14//14 8//8
f 28//28 9//9 2//2
f 31//31 6//6 9//9
f 31//31 30//30 17//17
f 33//33 32//32 17//17
f 33//33 13//13 32//32
f 33//33 30//30 5//5
f 33//33 17//17 30//30
f 34//34 18//18 12//12
f 34//34 24//24 18//18
f 36//36 19//19 11//11
f 36//36 11//11 6//6
f 37//37 35//35 7//7
f 39//39 20//20 6//6
f 39//39 6//6 13//13
f 40//40 18//18 3//3
f 40//40 3//3 19//19
f 40//40 19//19 36//36
f 40//40 36//36 6//6
f 40//40 6//6 21//21
f 41//41 21//21 12//12
f 41//41 12//12 18//18
f 41//41 40//40 21//21
f 41//41 18//18 40//40
f 42//42 13//13 22//22
f 42//42 39//39 13//13
f 42//42 20//20 39//39
f 43//43 23//23 14//14
f 43//43 1//1 23//23
f 44//44 8//8 14//14
f 44//44 14//14 23//23
f 44//44 16//16 8//8
f 44//44 23//23 1//1
f 45//45 37//37 7//7
f 45//45 14//14 37//37
f 46//46 18//18 24//24
f 46//46 35//35 18//18
f 46//46 7//7 35//35
f 46//46 45//45 7//7
f 46//46 24//24 45//45
f 47//47 24//24 22//22
f 48//48 4//4 22//22
f 48//48 22//22 24//24
f 48//48 34//34 4//4
f 48//48 24//24 34//34
f 49//49 25//25 15//15
f 49//49 15//15 26//26
f 49//49 26//26 10//10
f 49//49 10//10 47//47
f 50//50 1//1 26//26
f 50//50 26//26 15//15
f 50//50 15//15 27//27
f 50//50 44//44 1//1
f 50//50 16//16 44//44
f 50//50 28//28 16//16
f 50//50 27//27 28//28
f 51//51 28//28 2//2
f 51//51 16//16 28//28
f 51//51 2//2 29//29
f 51//51 29//29 8//8
f 51//51 8//8 16//16
f 52//52 28//28 27//27
f 52//52 27//27 15//15
f 52//52 9//9 28//28
f 52//52 31//31 9//9
f 52//52 15//15 25//25
f 52//52 25//25 30//30
f 52//52 30//30 31//31
f 53//53 19//19 8//8
f 53//53 8//8 29//29
f 53//53 29//29 2//2
f 53//53 2//2 19//19
f 54//54 30//30 25//25
f 54//54 5//5 30//30
f 54//54 25//25 49//49
f 55//55 31//31 17//17
f 55//55 6//6 31//31
f 55//55 17//17 32//32
f 55//55 32//32 13//13
f 55//55 13//13 6//6
f 56//56 22//22 13//13
f 56//56 13//13 33//33
f 56//56 47//47 22//22
f 56//56 33//33 5//5
f 56//56 5//5 54//54
f 56//56 54//54 49//49
f 56//56 49//49 47//47
f 57//57 34//34 12//12
f 57//57 4//4 34//34
f 57//57 20//20 4//4
f 57//57 38//38 6//6
f 57//57 6//6 20//20
f 58//58 3//3 18//18
f 58//58 18//18 35//35
f 58//58 37//37 3//3
f 58//58 35//35 37//37
f 59//59 19//19 3//3
f 59//59 3//3 37//37
f 59//59 37//37 14//14
f 59//59 14//14 19//19
f 60//60 21//21 6//6
f 60//60 6//6 38//38
f 60//60 12//12 21//21
f 60//60 57//57 12//12
f 60//60 38//38 57//57
f 61//61 42//42 22//22
f 61//61 22//22 4//4
f 61//61 4//4 20//20
f 61//61 20//20 42//42
f 62//62 43//43 14//14
f 62//62 24//24 43//43
f 62//62 45//45 24//24
f 62//62 14//14 45//45
f 63//63 43//43 24//24
f 63//63 10//10 26//26
f 63//63 47//47 10//10
f 63//63 24//24 47//47
f 64//64 26//26 1//1
f 64//64 1//1 43//43
f 64//64 63//63 26//26
f 64//64 43//43 63//63

