# https://github.com/mikedh/trimesh
v -0.02325731 0.01732968 0.01956859
v -0.00107677 -0.01382185 0.02016835
v -0.00026667 0.00308961 -0.01150486
v -0.03005321 0.00730048 -0.02476961
v -0.02281225 -0.02390322 0.01363945
v -0.02096735 0.02443583 -0.01758197
v -0.00003337 0.00413758 0.00588436
v -0.01958222 -0.02094862 0.02058266
v -0.03108451 0.00748949 0.01865681
v -0.01001967 -0.03160361 -0.02487261
v -0.00115413 -0.00505414 0.01922389
v -0.00028765 -0.01471646 -0.02352062
v -0.02111154 0.02427664 -0.00945808
v -0.01753705 0.02235602 -0.01592190
v -0.02486955 0.01756505 0.01967868
v -0.02970995 -0.01317350 0.01224760
v -0.03085110 0.00760070 -0.02229930
v -0.01004401 -0.03156083 0.01950584
v -0.00404642 0.00517260 0.01143597
v -0.00027818 -0.00113434 -0.01710070
v -0.02132343 0.00836355 -0.02443174
v -0.01776581 0.02212959 -0.01187494
v -0.02001455 0.02402200 -0.01722602
v -0.02914132 0.00723668 0.01915609
v -0.01785349 -0.02947545 -0.01440888
v -0.01023941 -0.03137697 0.01951368
v -0.02093322 0.01554825 -0.02366960
v -0.01864196 0.02259040 -0.01703008
v -0.02648919 -0.01963588 0.00280946
v -0.01619679 -0.03023284 -0.01514459
v -0.01063027 -0.03148854 -0.02483710
v -0.02603606 -0.01456444 -0.01346633
v -0.02626458 -0.02000656 0.00552560
v -0.03046545 0.00611571 -0.02219098
v -0.02466008 -0.01726778 -0.01408919
v -0.02773547 -0.01759551 0.00576456
v -0.02763960 -0.01723058 0.01001580
v -0.02611357 -0.01274914 -0.01537314
v -0.02479387 -0.01843304 -0.01190832
v -0.03060302 0.00483277 -0.01949452
v -0.02472433 -0.02146155 0.01148258
v -0.02326066 -0.02329266 0.01344655
v -0.02955269 0.00548042 -0.02417279
v -0.02617940 -0.01875671 -0.00297393
vn 0.30495380 0.63448246 0.71023600
vn 0.72184960 -0.16076686 0.67311750
vn 0.90868701 0.38601658 -0.15899405
vn -0.64239219 0.10241415 -0.75950221
vn -0.70535046 -0.65024081 0.28225453
vn -0.18329602 0.89172237 -0.41380404
vn 0.89057624 0.43015029 0.14779951
vn -0.40511897 -0.28868982 0.86748879
vn -0.81620801 0.15370923 0.55693622
vn 0.33237737 -0.71798177 -0.61157785
vn 0.71036028 0.21001858 0.67177412
vn 0.76755760 -0.11928568 -0.62978271
vn -0.17905012 0.97705858 0.11531518
vn 0.67317491 0.70227896 -0.23160269
vn -0.36662190 0.65995155 0.65578376
vn -0.91809350 -0.28795028 0.27237651
vn -0.96392202 0.17913498 -0.19688829
vn 0.21208330 -0.79224429 0.57216226
vn 0.64405540 0.64270713 0.41487369
vn 0.86629320 0.27460250 -0.41728835
vn 0.07846603 0.07337475 -0.99421287
vn 0.62268549 0.77520208 0.10641671
vn 0.54591924 0.75698622 -0.35908781
vn -0.20428786 0.00498623 0.97889816
vn -0.67810968 -0.71016414 -0.18929912
vn -0.48256312 -0.53612693 0.69260432
vn 0.11286939 0.43759415 -0.89206046
vn 0.61772461 0.49974280 -0.60718484
vn -0.85026852 -0.52232657 -0.06494927
vn -0.36020854 -0.93133717 -0.05348722
vn -0.36056866 -0.65426924 -0.66477214
vn -0.91888164 -0.32962728 -0.21680033
vn -0.80840444 -0.58825201 0.02101979
vn -0.93047437 -0.28220610 -0.23361757
vn -0.83190185 -0.40732477 -0.37686316
vn -0.91460426 -0.40259567 -0.03762662
vn -0.85270362 -0.51223317 0.10253639
vn -0.85594930 -0.35299337 -0.37781805
vn -0.87666132 -0.43384305 -0.20795466
vn -0.97010967 -0.21367053 -0.11503099
vn -0.82758340 -0.55296731 0.09660676
vn -0.81944761 -0.52366782 0.23297562
vn -0.78734108 -0.37730408 -0.48758144
vn -0.90188660 -0.41127506 -0.13211125
f 11//11 1//1 2//2
f 11//11 2//2 7//7
f 12//12 7//7 2//2
f 13//13 1//1 7//7
f 14//14 7//7 3//3
f 15//15 8//8 2//2
f 15//15 2//2 1//1
f 15//15 13//13 9//9
f 15//15 1//1 13//13
f 16//16 5//5 8//8
f 16//16 8//8 9//9
f 17//17 6//6 4//4
f 17//17 16//16 9//9
f 17//17 13//13 6//6
f 17//17 9//9 13//13
f 18//18 2//2 8//8
f 18//18 12//12 2//2
f 18//18 10//10 12//12
f 19//19 11//11 7//7
f 19//19 7//7 1//1
f 19//19 1//1 11//11
f 20//20 3//3 7//7
f 20//20 7//7 12//12
f 20//20 14//14 3//3
f 21//21 12//12 10//10
f 21//21 10//10 4//4
f 22//22 14//14 13//13
f 22//22 13//13 7//7
f 22//22 7//7 14//14
f 23//23 6//6 13//13
f 23//23 13//13 14//14
f 24//24 15//15 9//9
f 24//24 9//9 8//8
f 24//24 8//8 15//15
f 25//25 18//18 5//5
f 26//26 18//18 8//8
f 26//26 8//8 5//5
f 26//26 5//5 18//18
f 27//27 21//21 4//4
f 27//27 4//4 6//6
f 27//27 12//12 21//21
f 27//27 6//6 23//23
f 27//27 20//20 12//12
f 28//28 23//23 14//14
f 28//28 14//14 20//20
f 28//28 27//27 23//23
f 28//28 20//20 27//27
f 30//30 18//18 25//25
f 31//31 4//4 10//10
f 31//31 30//30 25//25
f 31//31 10//10 18//18
f 31//31 18//18 30//30
f 33//33 29//29 25//25
f 33//33 25//25 5//5
f 34//34 17//17 4//4
f 35//35 31//31 25//25
f 36//36 29//29 33//33
f 37//37 36//36 33//33
f 37//37 16//16 36//36
f 38//38 34//34 4//4
f 38//38 32//32 34//34
f 38//38 35//35 32//32
f 38//38 31//31 35//35
f 39//39 35//35 25//25
f 39//39 32//32 35//35
f 40//40 36//36 16//16
f 40//40 16//16 17//17
f 40//40 17//17 34//34
f 40//40 34//34 32//32
f 40//40 32//32 36//36
f 41//41 37//37 33//33
f 42//42 5//5 16//16
f 42//42 16//16 37//37
f 42//42 37//37 41//41
f 42//42 41//41 33//33
f 42//42 33//33 5//5
f 43//43 38//38 4//4
f 43//43 4//4 31//31
f 43//43 31//31 38//38
f 44//44 39//39 25//25
f 44//44 25//25 29//29
f 44//44 29//29 36//36
f 44//44 36//36 32//32
f 44//44 32//32 39//39

