# https://github.com/mikedh/trimesh
v 0.00721856 -0.05252838 -0.00628037
v 0.00770735 -0.08214190 -0.00647095
v 0.00533589 -0.04045615 -0.02478499
v -0.00557225 -0.04050271 -0.02502446
v -0.01112907 -0.05249999 -0.00624314
v -0.00396746 -0.09116508 -0.02626266
v 0.00663732 -0.04043705 -0.01816027
v 0.00385382 -0.09015567 -0.00619318
v 0.00528177 -0.08245572 -0.02561558
v -0.01133895 -0.08195197 -0.02520198
v 0.00771461 -0.06310612 -0.00889169
v -0.00827770 -0.04049075 -0.00766779
v 0.00518691 -0.09031064 -0.01957501
v 0.00602099 -0.07830843 -0.02245499
v -0.01104486 -0.04508408 -0.01802532
v -0.01040852 -0.07046345 -0.02557430
v -0.00941400 -0.09012778 -0.00619299
v 0.00712153 -0.04058339 -0.01233611
v 0.00765702 -0.06450709 -0.00641033
v 0.00335399 -0.09128576 -0.02068406
v 0.00766292 -0.07886146 -0.01353352
v -0.01166533 -0.05125822 -0.01753177
v -0.00935507 -0.09080793 -0.02603452
v -0.00970751 -0.05112501 -0.02496096
v -0.01143628 -0.07777602 -0.00938075
v 0.00772051 -0.06301341 -0.00789456
v 0.00392433 -0.09108767 -0.01950217
v 0.00333788 -0.08991350 -0.02451295
v -0.00549485 -0.09107059 -0.00955900
v 0.00600377 -0.08344701 -0.02217572
v 0.00758642 -0.08202344 -0.01062952
v -0.01155327 -0.05250552 -0.01085282
v -0.00996687 -0.08801600 -0.02581938
v -0.00992829 -0.09000367 -0.01252454
v -0.01019603 -0.04514567 -0.02138238
v -0.01128046 -0.05447686 -0.02076567
v -0.01137695 -0.07328230 -0.00760821
v 0.00140367 -0.09103329 -0.01090102
v -0.00022498 -0.09160954 -0.02567682
v 0.00453905 -0.08771574 -0.02440283
v 0.00232033 -0.09119198 -0.02343055
v -0.00800713 -0.09102808 -0.01530692
v -0.00242696 -0.09106115 -0.00795435
v 0.00598769 -0.08498180 -0.02090155
v -0.01125812 -0.08373656 -0.02251035
v -0.01006488 -0.08794429 -0.00620869
v -0.01021532 -0.04753085 -0.02274080
v -0.01140393 -0.07487920 -0.00797041
v 0.00287049 -0.09094901 -0.01388152
v 0.00245898 -0.08924397 -0.02516790
v 0.00515729 -0.08323732 -0.02549628
v 0.00482560 -0.08976054 -0.02190283
v -0.00658468 -0.09103842 -0.01077748
v -0.00829915 -0.09104421 -0.02408236
v -0.00971923 -0.09031621 -0.02395843
v -0.01131708 -0.08347052 -0.01841577
v -0.01131864 -0.08056073 -0.01229139
vn 0.66298770 0.13560487 0.73624631
vn 0.75887432 -0.14439664 0.63502706
vn 0.51918321 0.59717775 -0.61141436
vn -0.31488301 0.68735969 -0.65451153
vn -0.67497957 0.10792344 0.72990075
vn -0.02335231 -0.58794710 -0.80856223
vn 0.70613396 0.70155273 -0.09590935
vn 0.43857990 -0.61336937 0.65683004
vn 0.65578978 -0.06047897 -0.75251715
vn -0.84180618 -0.04711003 -0.53772018
vn 0.99938814 0.01310988 -0.03242656
vn -0.42563426 0.69554975 0.57883160
vn 0.81041079 -0.57825092 -0.09412881
vn 0.97890499 -0.00219608 -0.20430417
vn -0.92054617 0.38044119 -0.08865238
vn -0.47584814 0.03904231 -0.87866048
vn -0.49825916 -0.58496792 0.63996121
vn 0.67172315 0.66936468 0.31739398
vn 0.76549743 0.00525272 0.64341751
vn 0.32798338 -0.94023288 -0.09159167
vn 0.99431732 -0.04019082 -0.09857874
vn -0.99559854 0.06080160 -0.07132118
vn -0.51941769 -0.58858207 -0.61949690
vn -0.62807294 0.08579135 -0.77341078
vn -0.99496545 -0.05540851 0.08350842
vn 0.99925583 0.02053618 0.03265039
vn 0.39430315 -0.91893328 0.00930861
vn 0.60245668 -0.51488502 -0.60986832
vn -0.07502182 -0.99303844 0.09080957
vn 0.97382797 -0.10651894 -0.20078046
vn 0.98770716 -0.14707492 -0.05294839
vn -0.99568223 0.06798865 0.06320162
vn -0.71213315 -0.10175620 -0.69463088
vn -0.83185026 -0.55419830 0.02982244
vn -0.86177597 0.37874490 -0.33748257
vn -0.97262066 0.04790304 -0.22740788
vn -0.95107398 -0.01402734 0.30864466
vn 0.11752273 -0.99053464 0.07091917
vn 0.17877027 -0.74820437 -0.63892989
vn 0.79178593 -0.27828551 -0.54372072
vn 0.44488464 -0.85545997 -0.26507717
vn -0.22628055 -0.97375040 0.02464276
vn 0.00690400 -0.96953433 0.24485816
vn 0.97417619 -0.16302340 -0.15621820
vn -0.98753080 -0.15242857 -0.03935041
vn -0.69979618 -0.13444702 0.70157630
vn -0.88073703 0.19509157 -0.43155713
vn -0.98450979 -0.03290495 0.17221423
vn 0.21112127 -0.97521875 0.06615285
vn 0.40256490 -0.24506148 -0.88197867
vn 0.71693104 -0.21903858 -0.66183985
vn 0.82345071 -0.48919436 -0.28743314
vn -0.12849819 -0.99033985 0.05210762
vn -0.14480588 -0.98931119 -0.01716487
vn -0.91495207 -0.40143009 -0.04143190
vn -0.99331301 -0.11503483 0.00981074
vn -0.99345058 -0.10179834 0.05189463
f 6//6 4//4 3//3
f 7//7 3//3 4//4
f 8//8 2//2 1//1
f 8//8 1//1 5//5
f 9//9 6//6 3//3
f 12//12 5//5 1//1
f 12//12 7//7 4//4
f 13//13 2//2 8//8
f 14//14 9//9 3//3
f 14//14 3//3 7//7
f 15//15 12//12 4//4
f 15//15 5//5 12//12
f 16//16 4//4 6//6
f 17//17 8//8 5//5
f 18//18 12//12 1//1
f 18//18 7//7 12//12
f 19//19 1//1 2//2
f 21//21 11//11 2//2
f 21//21 14//14 7//7
f 21//21 18//18 11//11
f 21//21 7//7 18//18
f 23//23 16//16 6//6
f 24//24 4//4 16//16
f 24//24 16//16 10//10
f 25//25 22//22 10//10
f 26//26 19//19 2//2
f 26//26 2//2 11//11
f 26//26 11//11 18//18
f 26//26 18//18 1//1
f 26//26 1//1 19//19
f 27//27 20//20 13//13
f 27//27 13//13 8//8
f 30//30 9//9 14//14
f 30//30 14//14 21//21
f 31//31 21//21 2//2
f 31//31 2//2 13//13
f 32//32 5//5 15//15
f 32//32 15//15 22//22
f 32//32 22//22 25//25
f 33//33 23//23 10//10
f 33//33 10//10 16//16
f 33//33 16//16 23//23
f 34//34 23//23 17//17
f 35//35 15//15 4//4
f 36//36 24//24 10//10
f 36//36 10//10 22//22
f 36//36 22//22 15//15
f 37//37 5//5 32//32
f 39//39 6//6 9//9
f 39//39 20//20 38//38
f 39//39 23//23 6//6
f 41//41 13//13 20//20
f 41//41 39//39 28//28
f 41//41 20//20 39//39
f 42//42 17//17 23//23
f 43//43 8//8 17//17
f 43//43 17//17 29//29
f 43//43 38//38 8//8
f 43//43 39//39 38//38
f 43//43 29//29 39//39
f 44//44 30//30 21//21
f 44//44 21//21 31//31
f 44//44 31//31 13//13
f 46//46 34//34 17//17
f 46//46 17//17 5//5
f 46//46 5//5 37//37
f 47//47 35//35 4//4
f 47//47 4//4 24//24
f 47//47 24//24 36//36
f 47//47 36//36 15//15
f 47//47 15//15 35//35
f 48//48 37//37 32//32
f 48//48 32//32 25//25
f 48//48 46//46 37//37
f 48//48 25//25 46//46
f 49//49 27//27 8//8
f 49//49 8//8 38//38
f 49//49 38//38 20//20
f 49//49 20//20 27//27
f 50//50 28//28 39//39
f 51//51 40//40 28//28
f 51//51 28//28 50//50
f 51//51 50//50 39//39
f 51//51 39//39 9//9
f 52//52 28//28 40//40
f 52//52 41//41 28//28
f 52//52 13//13 41//41
f 52//52 44//44 13//13
f 52//52 30//30 44//44
f 52//52 40//40 51//51
f 52//52 51//51 9//9
f 52//52 9//9 30//30
f 53//53 29//29 17//17
f 53//53 17//17 42//42
f 53//53 42//42 39//39
f 53//53 39//39 29//29
f 54//54 42//42 23//23
f 54//54 23//23 39//39
f 54//54 39//39 42//42
f 55//55 45//45 10//10
f 55//55 10//10 23//23
f 55//55 23//23 34//34
f 55//55 34//34 45//45
f 56//56 25//25 10//10
f 56//56 10//10 45//45
f 56//56 45//45 34//34
f 56//56 34//34 46//46
f 57//57 56//56 46//46
f 57//57 46//46 25//25
f 57//57 25//25 56//56

