# https://github.com/mikedh/trimesh
v 0.01969384 0.00702570 0.01981066
v 0.02927504 0.00895111 0.00915866
v 0.01682050 0.00878873 0.01068770
v 0.01973502 0.00860413 -0.02545286
v 0.01562487 -0.01325548 -0.02454170
v 0.02870632 0.00915678 -0.01761949
v 0.01482161 -0.01380346 0.01909581
v -0.00435276 0.00485840 0.00732884
v 0.02654228 0.00876999 -0.02537103
v 0.02263174 -0.00853072 -0.01570295
v 0.01889312 -0.00565055 0.01910920
v -0.00372571 0.00518464 0.01150862
v -0.00211235 -0.01321563 -0.02112239
v 0.01059412 -0.01374274 -0.02558091
v 0.02722066 0.00893312 -0.02233774
v 0.02389451 -0.00552669 -0.01693510
v 0.01812131 -0.01256188 -0.00543061
v 0.02431691 -0.00236385 0.01007813
v 0.02861926 0.00846001 0.00995347
v 0.00945252 0.00662753 0.01949958
v 0.00017090 0.00265626 -0.01261082
v -0.00107677 -0.01382185 0.02016835
v 0.01685291 -0.00724891 -0.02565161
v 0.00861819 -0.00516872 -0.02545819
v 0.02389962 -0.00563746 -0.01229217
v 0.02565831 0.00374084 -0.02408917
v 0.02251503 -0.00868637 -0.00823828
v 0.01807328 -0.01235392 -0.01346003
v 0.01570980 -0.01337864 0.01867896
v 0.00046395 -0.00042302 -0.01715871
v -0.00023139 0.00368695 -0.00893833
v -0.00465142 -0.00456474 0.01781577
v 0.00062153 -0.01441196 -0.02387848
v 0.01902113 -0.00234944 -0.02564492
v 0.00566780 -0.01308351 -0.02556950
v 0.02517724 -0.00091241 -0.01905624
v 0.01637010 -0.01325507 0.01272833
v 0.01102895 0.00573677 -0.02165184
v -0.00435568 -0.00538459 0.01850084
v -0.00108694 -0.01376490 -0.01910456
v 0.00602203 -0.00378966 -0.02389982
v 0.00528616 -0.01371774 -0.02545380
v 0.00183287 0.00099682 -0.01697992
v 0.00311863 0.00403188 -0.01431135
v -0.00179812 -0.00527898 0.01927792
v 0.01189960 0.00469885 -0.02374816
v 0.01335113 0.00575143 -0.02408245
vn 0.32273901 0.53580155 0.78022832
vn 0.81139042 0.52539356 0.25613900
vn -0.07890921 0.99342354 0.08296393
vn -0.14440491 0.70591878 -0.69341611
vn 0.41269705 -0.73104462 -0.54337364
vn 0.80075208 0.58860654 -0.11107853
vn 0.25059307 -0.72041669 0.64668610
vn -0.79043753 0.60947056 -0.06127105
vn 0.55931405 0.50887810 -0.65437823
vn 0.79850444 -0.58687196 -0.13405951
vn 0.57670688 -0.21979095 0.78682978
vn -0.65730748 0.70184349 0.27452250
vn -0.85297495 -0.33201437 -0.40274084
vn 0.08381185 -0.70230645 -0.70692378
vn 0.02018113 0.99828370 -0.05497614
vn 0.88964013 -0.40987978 -0.20134298
vn 0.50724262 -0.86177770 0.00664190
vn 0.87796958 -0.42986145 0.21068592
vn 0.77906803 -0.04698055 0.62517664
vn -0.17764302 0.67101394 0.71984946
vn -0.76239962 0.56168719 -0.32133210
vn -0.45110105 -0.63018613 0.63195988
vn 0.21714034 -0.13333985 -0.96699046
vn -0.23160697 0.14371056 -0.96213590
vn 0.92857973 -0.37112345 0.00265706
vn 0.79047660 -0.32572352 -0.51870119
vn 0.81176725 -0.58338677 0.02634023
vn 0.54765617 -0.83591903 -0.03622286
vn 0.65055561 -0.61979768 0.43889433
vn -0.76891845 0.42552535 -0.47717145
vn -0.60146974 0.76898441 -0.21655747
vn -0.89733036 0.13980842 0.41863090
vn -0.46506910 -0.59821434 -0.65257209
vn 0.03924528 -0.01120447 -0.99916679
vn -0.17375729 0.00080036 -0.98478818
vn 0.92384068 -0.33487957 -0.18540247
vn 0.53974041 -0.84125505 0.03114840
vn -0.49693008 0.77548528 -0.38946510
vn -0.79007526 -0.00808533 0.61295654
vn -0.41483682 -0.90988065 -0.00525521
vn -0.51435850 0.31626916 -0.79712556
vn -0.15384054 -0.50842605 -0.84725205
vn -0.58881039 0.64323425 -0.48944053
vn -0.49048629 0.80852093 -0.32514167
vn -0.22969558 0.15052068 0.96155263
vn -0.52071040 0.46621703 -0.71519393
vn -0.43332485 0.55011269 -0.71386666
f 1//1 2//2 3//3
f 6//6 3//3 2//2
f 6//6 4//4 3//3
f 11//11 1//1 7//7
f 12//12 3//3 4//4
f 12//12 4//4 8//8
f 14//14 5//5 7//7
f 15//15 9//9 4//4
f 15//15 4//4 6//6
f 15//15 6//6 9//9
f 16//16 6//6 2//2
f 16//16 10//10 5//5
f 18//18 2//2 11//11
f 19//19 11//11 2//2
f 19//19 2//2 1//1
f 19//19 1//1 11//11
f 20//20 1//1 3//3
f 20//20 3//3 12//12
f 22//22 7//7 1//1
f 22//22 1//1 20//20
f 23//23 9//9 5//5
f 23//23 5//5 14//14
f 25//25 16//16 2//2
f 25//25 10//10 16//16
f 26//26 9//9 6//6
f 26//26 16//16 5//5
f 26//26 5//5 9//9
f 27//27 17//17 10//10
f 27//27 10//10 25//25
f 27//27 25//25 2//2
f 27//27 2//2 18//18
f 28//28 17//17 5//5
f 28//28 5//5 10//10
f 28//28 10//10 17//17
f 29//29 18//18 11//11
f 29//29 11//11 7//7
f 29//29 27//27 18//18
f 30//30 13//13 8//8
f 30//30 8//8 21//21
f 31//31 21//21 8//8
f 31//31 8//8 4//4
f 32//32 12//12 8//8
f 32//32 8//8 13//13
f 32//32 20//20 12//12
f 33//33 14//14 7//7
f 33//33 7//7 22//22
f 34//34 4//4 9//9
f 34//34 9//9 23//23
f 35//35 23//23 14//14
f 35//35 33//33 24//24
f 35//35 34//34 23//23
f 35//35 24//24 4//4
f 35//35 4//4 34//34
f 36//36 26//26 6//6
f 36//36 6//6 16//16
f 36//36 16//16 26//26
f 37//37 29//29 7//7
f 37//37 17//17 27//27
f 37//37 27//27 29//29
f 37//37 7//7 5//5
f 37//37 5//5 17//17
f 39//39 32//32 13//13
f 39//39 13//13 22//22
f 39//39 20//20 32//32
f 40//40 33//33 22//22
f 40//40 22//22 13//13
f 40//40 13//13 33//33
f 41//41 24//24 33//33
f 41//41 33//33 13//13
f 41//41 13//13 30//30
f 42//42 35//35 14//14
f 42//42 14//14 33//33
f 42//42 33//33 35//35
f 43//43 38//38 30//30
f 43//43 30//30 21//21
f 44//44 31//31 4//4
f 44//44 4//4 38//38
f 44//44 21//21 31//31
f 44//44 43//43 21//21
f 44//44 38//38 43//43
f 45//45 39//39 22//22
f 45//45 22//22 20//20
f 45//45 20//20 39//39
f 46//46 41//41 30//30
f 46//46 30//30 38//38
f 47//47 46//46 38//38
f 47//47 38//38 4//4
f 47//47 4//4 24//24
f 47//47 24//24 41//41
f 47//47 41//41 46//46

