# https://github.com/mikedh/trimesh
v 0.01590902 -0.02379788 0.02000000
v 0.01532941 -0.04619771 0.02000000
v 0.01581092 -0.02821625 -0.02000000
v 0.00562550 -0.03062984 -0.02000000
v 0.00562550 -0.03062984 0.02000000
v 0.01079376 -0.04760781 -0.02000000
v 0.01590902 -0.02379788 -0.02000000
v 0.01532941 -0.04619771 -0.02000000
v 0.00520158 -0.04880551 0.02000000
v 0.00520158 -0.04880551 -0.02000000
v 0.01079376 -0.04760781 0.02000000
f 1 2 3
f 5 2 1
f 5 1 4
f 6 4 3
f 7 1 3
f 7 3 4
f 7 4 1
f 8 6 3
f 8 3 2
f 8 2 6
f 9 5 4
f 9 2 5
f 10 9 4
f 10 4 6
f 10 6 9
f 11 9 6
f 11 6 2
f 11 2 9

