# https://github.com/mikedh/trimesh
v 0.04349079 0.01362855 0.02000000
v 0.04392424 -0.01012629 0.02000000
v 0.04420183 0.00908504 -0.02000000
v 0.02109296 0.01404396 -0.02000000
v 0.02109296 0.01404396 0.02000000
v 0.02196959 -0.01021410 -0.02000000
v 0.04349079 0.01362855 -0.02000000
v 0.04420183 0.00908504 0.02000000
v 0.04392424 -0.01012629 -0.02000000
v 0.02196959 -0.01021410 0.02000000
v 0.04437852 -0.00697076 0.02000000
v 0.04437852 -0.00697076 -0.02000000
f 5 2 1
f 5 1 4
f 6 4 3
f 6 5 4
f 7 1 3
f 7 3 4
f 7 4 1
f 8 1 2
f 8 3 1
f 9 6 3
f 9 2 6
f 10 6 2
f 10 2 5
f 10 5 6
f 11 8 2
f 11 3 8
f 11 2 9
f 12 11 9
f 12 9 3
f 12 3 11

