# https://github.com/mikedh/trimesh
v 0.03394283 0.03355950 0.02000000
v 0.04349079 0.01362855 0.02000000
v 0.03958303 0.02502029 -0.02000000
v 0.02325017 0.04227161 -0.02000000
v 0.02332255 0.01384891 0.02000000
v 0.03394283 0.03355950 -0.02000000
v 0.03958303 0.02502029 0.02000000
v 0.02325017 0.04227161 0.02000000
v 0.04349079 0.01362855 -0.02000000
v 0.02953267 0.03793406 0.02000000
v 0.04277152 0.01644983 0.02000000
v 0.02332255 0.01384891 -0.02000000
v 0.02953267 0.03793406 -0.02000000
v 0.02546796 0.04095059 0.02000000
v 0.04277152 0.01644983 -0.02000000
v 0.02546796 0.04095059 -0.02000000
f 5 2 1
f 6 1 3
f 6 3 4
f 7 1 2
f 7 3 1
f 8 5 1
f 8 4 5
f 9 2 5
f 9 4 3
f 10 1 6
f 10 8 1
f 11 7 2
f 12 9 5
f 12 5 4
f 12 4 9
f 13 10 6
f 13 6 4
f 14 8 10
f 15 9 3
f 15 3 7
f 15 7 11
f 15 11 2
f 15 2 9
f 16 13 4
f 16 4 8
f 16 8 14
f 16 14 10
f 16 10 13

