# https://github.com/mikedh/trimesh
v 0.04392424 -0.01012629 0.02000000
v 0.04282644 -0.01581608 0.02000000
v 0.04392424 -0.01012629 -0.02000000
v 0.02192616 -0.01046581 -0.02000000
v 0.01748179 -0.02173460 0.02000000
v 0.02192616 -0.01046581 0.02000000
v 0.01573530 -0.04606425 -0.02000000
v 0.03661542 -0.03017516 -0.02000000
v 0.01573530 -0.04606425 0.02000000
v 0.01748179 -0.02173460 -0.02000000
v 0.03979050 -0.02447624 -0.02000000
v 0.03661542 -0.03017516 0.02000000
v 0.02680017 -0.04022226 -0.02000000
v 0.04282644 -0.01581608 -0.02000000
v 0.03979050 -0.02447624 0.02000000
v 0.02237792 -0.04299755 0.02000000
v 0.01956566 -0.04445438 0.02000000
v 0.02237792 -0.04299755 -0.02000000
v 0.02680017 -0.04022226 0.02000000
v 0.01956566 -0.04445438 -0.02000000
f 1 2 3
f 1 3 4
f 5 2 1
f 6 5 1
f 6 1 4
f 6 4 5
f 7 4 3
f 8 7 3
f 9 2 5
f 9 5 7
f 10 7 5
f 10 5 4
f 10 4 7
f 11 8 3
f 12 2 9
f 12 8 11
f 13 7 8
f 13 8 12
f 14 11 3
f 14 3 2
f 14 2 11
f 15 12 11
f 15 11 2
f 15 2 12
f 16 12 9
f 17 16 9
f 17 9 7
f 18 7 13
f 18 13 16
f 19 16 13
f 19 13 12
f 19 12 16
f 20 17 7
f 20 7 18
f 20 18 16
f 20 16 17

