# https://github.com/mikedh/trimesh
v 0.02028474 0.04382390 0.02000000
v 0.01971166 0.04408945 0.02000000
v 0.01130394 0.04389545 0.02000000
v 0.01099057 0.04711087 -0.02000000
v 0.02028474 0.04382390 -0.02000000
v 0.01099057 0.04711087 0.02000000
v 0.01676544 0.04533105 -0.02000000
v 0.01130394 0.04389545 -0.02000000
v 0.01971166 0.04408945 -0.02000000
v 0.01676544 0.04533105 0.02000000
v 0.01240937 0.04676663 0.02000000
v 0.01240937 0.04676663 -0.02000000
f 1 2 3
f 5 2 1
f 6 3 2
f 7 5 4
f 8 4 5
f 8 6 4
f 8 3 6
f 8 5 1
f 8 1 3
f 9 7 2
f 9 2 5
f 9 5 7
f 10 6 2
f 10 2 7
f 11 4 6
f 11 10 7
f 11 6 10
f 12 11 7
f 12 7 4
f 12 4 11

