# https://github.com/mikedh/trimesh
v 0.00562550 -0.03062984 0.02000000
v 0.00520158 -0.04880551 0.02000000
v 0.00562550 -0.03062984 -0.02000000
v -0.01649310 -0.03122091 -0.02000000
v -0.01649310 -0.03122091 0.02000000
v -0.01573795 -0.05000000 -0.02000000
v 0.00520158 -0.04880551 -0.02000000
v -0.01573795 -0.05000000 0.02000000
v 0.00211202 -0.04922642 0.02000000
v 0.00211202 -0.04922642 -0.02000000
f 5 2 1
f 5 1 3
f 5 3 4
f 6 4 3
f 6 5 4
f 7 6 3
f 7 1 2
f 7 3 1
f 8 2 5
f 8 5 6
f 9 7 2
f 9 8 6
f 9 2 8
f 10 9 6
f 10 6 7
f 10 7 9

