# https://github.com/mikedh/trimesh
v 0.02258966 0.04266505 0.02000000
v 0.02332255 0.02586753 0.02000000
v 0.02332255 0.02586753 -0.02000000
v 0.00527187 0.04823878 -0.02000000
v 0.00578469 0.03032900 0.02000000
v 0.02258966 0.04266505 -0.02000000
v 0.00527187 0.04823878 0.02000000
v 0.01222771 0.02715154 0.02000000
v 0.00578469 0.03032900 -0.02000000
v 0.01099057 0.04711087 0.02000000
v 0.01222771 0.02715154 -0.02000000
v 0.01099057 0.04711087 -0.02000000
f 1 2 3
f 5 2 1
f 6 1 3
f 6 3 4
f 7 5 1
f 8 2 5
f 9 4 3
f 9 7 4
f 9 5 7
f 10 1 6
f 10 7 1
f 10 4 7
f 11 9 3
f 11 8 5
f 11 5 9
f 11 3 2
f 11 2 8
f 12 10 6
f 12 6 4
f 12 4 10

