{
	"asset":{
		"generator":"Khronos glTF Blender I/O v3.6.27",
		"version":"2.0"
	},
	"scene":0,
	"scenes":[
		{
			"name":"Scene",
			"nodes":[
				0
			]
		}
	],
	"nodes":[
		{
			"mesh":0,
			"name":"foot",
			"rotation":[
				0.7071068286895752,
				0,
				0,
				0.7071068286895752
			]
		}
	],
	"materials":[
		{
			"doubleSided":true,
			"name":"Default OBJ.021",
			"pbrMetallicRoughness":{
				"baseColorFactor":[
					0.800000011920929,
					0.800000011920929,
					0.800000011920929,
					1
				],
				"metallicFactor":0,
				"roughnessFactor":0.5
			}
		}
	],
	"meshes":[
		{
			"name":"foot",
			"primitives":[
				{
					"attributes":{
						"POSITION":0,
						"NORMAL":1,
						"TEXCOORD_0":2
					},
					"indices":3,
					"material":0
				}
			]
		}
	],
	"accessors":[
		{
			"bufferView":0,
			"componentType":5126,
			"count":1540,
			"max":[
				0.08883299678564072,
				0.01411799993366003,
				0.012000000104308128
			],
			"min":[
				-0.05870699882507324,
				-0.1130170002579689,
				-0.015685999765992165
			],
			"type":"VEC3"
		},
		{
			"bufferView":1,
			"componentType":5126,
			"count":1540,
			"type":"VEC3"
		},
		{
			"bufferView":2,
			"componentType":5126,
			"count":1540,
			"type":"VEC2"
		},
		{
			"bufferView":3,
			"componentType":5123,
			"count":3984,
			"type":"SCALAR"
		}
	],
	"bufferViews":[
		{
			"buffer":0,
			"byteLength":18480,
			"byteOffset":0,
			"target":34962
		},
		{
			"buffer":0,
			"byteLength":18480,
			"byteOffset":18480,
			"target":34962
		},
		{
			"buffer":0,
			"byteLength":12320,
			"byteOffset":36960,
			"target":34962
		},
		{
			"buffer":0,
			"byteLength":7968,
			"byteOffset":49280,
			"target":34963
		}
	],
	"buffers":[
		{
			"byteLength":57248,
			"uri":"data:application/octet-stream;base64,"
		}
	]
}
