{
	"asset":{
		"generator":"Khronos glTF Blender I/O v3.6.27",
		"version":"2.0"
	},
	"scene":0,
	"scenes":[
		{
			"name":"Scene",
			"nodes":[
				0
			]
		}
	],
	"nodes":[
		{
			"mesh":0,
			"name":"foot-crank",
			"rotation":[
				0.7071068286895752,
				0,
				0,
				0.7071068286895752
			]
		}
	],
	"materials":[
		{
			"doubleSided":true,
			"name":"Default OBJ.004",
			"pbrMetallicRoughness":{
				"baseColorFactor":[
					0.800000011920929,
					0.800000011920929,
					0.800000011920929,
					1
				],
				"metallicFactor":0,
				"roughnessFactor":0.5
			}
		}
	],
	"meshes":[
		{
			"name":"foot-crank",
			"primitives":[
				{
					"attributes":{
						"POSITION":0,
						"NORMAL":1,
						"TEXCOORD_0":2
					},
					"indices":3,
					"material":0
				}
			]
		}
	],
	"accessors":[
		{
			"bufferView":0,
			"componentType":5126,
			"count":1188,
			"max":[
				0.060940999537706375,
				0.021900000050663948,
				0.015814999118447304
			],
			"min":[
				-0.02143000066280365,
				-0.02176699973642826,
				-0.009960000403225422
			],
			"type":"VEC3"
		},
		{
			"bufferView":1,
			"componentType":5126,
			"count":1188,
			"type":"VEC3"
		},
		{
			"bufferView":2,
			"componentType":5126,
			"count":1188,
			"type":"VEC2"
		},
		{
			"bufferView":3,
			"componentType":5123,
			"count":1995,
			"type":"SCALAR"
		}
	],
	"bufferViews":[
		{
			"buffer":0,
			"byteLength":14256,
			"byteOffset":0,
			"target":34962
		},
		{
			"buffer":0,
			"byteLength":14256,
			"byteOffset":14256,
			"target":34962
		},
		{
			"buffer":0,
			"byteLength":9504,
			"byteOffset":28512,
			"target":34962
		},
		{
			"buffer":0,
			"byteLength":3990,
			"byteOffset":38016,
			"target":34963
		}
	],
	"buffers":[
		{
			"byteLength":42008,
			"uri":"data:application/octet-stream;base64,"
		}
	]
}
