{
	"asset":{
		"generator":"Khronos glTF Blender I/O v3.6.27",
		"version":"2.0"
	},
	"scene":0,
	"scenes":[
		{
			"name":"Scene",
			"nodes":[
				0
			]
		}
	],
	"nodes":[
		{
			"mesh":0,
			"name":"heel-spring",
			"rotation":[
				0.7071068286895752,
				0,
				0,
				0.7071068286895752
			]
		}
	],
	"materials":[
		{
			"doubleSided":true,
			"name":"Default OBJ.022",
			"pbrMetallicRoughness":{
				"baseColorFactor":[
					0.800000011920929,
					0.800000011920929,
					0.800000011920929,
					1
				],
				"metallicFactor":0,
				"roughnessFactor":0.5
			}
		}
	],
	"meshes":[
		{
			"name":"heel-spring",
			"primitives":[
				{
					"attributes":{
						"POSITION":0,
						"NORMAL":1,
						"TEXCOORD_0":2
					},
					"indices":3,
					"material":0
				}
			]
		}
	],
	"accessors":[
		{
			"bufferView":0,
			"componentType":5126,
			"count":1167,
			"max":[
				0.12477099895477295,
				0.016026999801397324,
				0.02499699965119362
			],
			"min":[
				9.999999974752427e-07,
				-0.013399000279605389,
				-0.02500299923121929
			],
			"type":"VEC3"
		},
		{
			"bufferView":1,
			"componentType":5126,
			"count":1167,
			"type":"VEC3"
		},
		{
			"bufferView":2,
			"componentType":5126,
			"count":1167,
			"type":"VEC2"
		},
		{
			"bufferView":3,
			"componentType":5123,
			"count":3492,
			"type":"SCALAR"
		}
	],
	"bufferViews":[
		{
			"buffer":0,
			"byteLength":14004,
			"byteOffset":0,
			"target":34962
		},
		{
			"buffer":0,
			"byteLength":14004,
			"byteOffset":14004,
			"target":34962
		},
		{
			"buffer":0,
			"byteLength":9336,
			"byteOffset":28008,
			"target":34962
		},
		{
			"buffer":0,
			"byteLength":6984,
			"byteOffset":37344,
			"target":34963
		}
	],
	"buffers":[
		{
			"byteLength":44328,
			"uri":"data:application/octet-stream;base64,"
		}
	]
}
