{
	"asset":{
		"generator":"Khronos glTF Blender I/O v3.6.27",
		"version":"2.0"
	},
	"scene":0,
	"scenes":[
		{
			"name":"Scene",
			"nodes":[
				0
			]
		}
	],
	"nodes":[
		{
			"mesh":0,
			"name":"hip-yaw",
			"rotation":[
				0.7071068286895752,
				0,
				0,
				0.7071068286895752
			]
		}
	],
	"materials":[
		{
			"doubleSided":true,
			"name":"Default OBJ.023",
			"pbrMetallicRoughness":{
				"baseColorFactor":[
					0.800000011920929,
					0.800000011920929,
					0.800000011920929,
					1
				],
				"metallicFactor":0,
				"roughnessFactor":0.5
			}
		}
	],
	"meshes":[
		{
			"name":"hip-yaw",
			"primitives":[
				{
					"attributes":{
						"POSITION":0,
						"NORMAL":1,
						"TEXCOORD_0":2
					},
					"indices":3,
					"material":0
				}
			]
		}
	],
	"accessors":[
		{
			"bufferView":0,
			"componentType":5126,
			"count":1880,
			"max":[
				0.04865799844264984,
				0.035041000694036484,
				0.13853999972343445
			],
			"min":[
				-0.04865799844264984,
				-0.03511299937963486,
				0.020333999767899513
			],
			"type":"VEC3"
		},
		{
			"bufferView":1,
			"componentType":5126,
			"count":1880,
			"type":"VEC3"
		},
		{
			"bufferView":2,
			"componentType":5126,
			"count":1880,
			"type":"VEC2"
		},
		{
			"bufferView":3,
			"componentType":5123,
			"count":4794,
			"type":"SCALAR"
		}
	],
	"bufferViews":[
		{
			"buffer":0,
			"byteLength":22560,
			"byteOffset":0,
			"target":34962
		},
		{
			"buffer":0,
			"byteLength":22560,
			"byteOffset":22560,
			"target":34962
		},
		{
			"buffer":0,
			"byteLength":15040,
			"byteOffset":45120,
			"target":34962
		},
		{
			"buffer":0,
			"byteLength":9588,
			"byteOffset":60160,
			"target":34963
		}
	],
	"buffers":[
		{
			"byteLength":69748,
			"uri":"data:application/octet-stream;base64,"
		}
	]
}
