{
	"asset":{
		"generator":"Khronos glTF Blender I/O v3.6.27",
		"version":"2.0"
	},
	"scene":0,
	"scenes":[
		{
			"name":"Scene",
			"nodes":[
				0
			]
		}
	],
	"nodes":[
		{
			"mesh":0,
			"name":"hip-roll",
			"rotation":[
				0.7071068286895752,
				0,
				0,
				0.7071068286895752
			]
		}
	],
	"materials":[
		{
			"doubleSided":true,
			"name":"Default OBJ.013",
			"pbrMetallicRoughness":{
				"baseColorFactor":[
					0.800000011920929,
					0.800000011920929,
					0.800000011920929,
					1
				],
				"metallicFactor":0,
				"roughnessFactor":0.5
			}
		}
	],
	"meshes":[
		{
			"name":"hip-roll",
			"primitives":[
				{
					"attributes":{
						"POSITION":0,
						"NORMAL":1,
						"TEXCOORD_0":2
					},
					"indices":3,
					"material":0
				}
			]
		}
	],
	"accessors":[
		{
			"bufferView":0,
			"componentType":5126,
			"count":4904,
			"max":[
				0.034758999943733215,
				0.0467509999871254,
				0.11677800118923187
			],
			"min":[
				-0.08602999895811081,
				-0.06547299772500992,
				0.020336000248789787
			],
			"type":"VEC3"
		},
		{
			"bufferView":1,
			"componentType":5126,
			"count":4904,
			"type":"VEC3"
		},
		{
			"bufferView":2,
			"componentType":5126,
			"count":4904,
			"type":"VEC2"
		},
		{
			"bufferView":3,
			"componentType":5123,
			"count":9150,
			"type":"SCALAR"
		}
	],
	"bufferViews":[
		{
			"buffer":0,
			"byteLength":58848,
			"byteOffset":0,
			"target":34962
		},
		{
			"buffer":0,
			"byteLength":58848,
			"byteOffset":58848,
			"target":34962
		},
		{
			"buffer":0,
			"byteLength":39232,
			"byteOffset":117696,
			"target":34962
		},
		{
			"buffer":0,
			"byteLength":18300,
			"byteOffset":156928,
			"target":34963
		}
	],
	"buffers":[
		{
			"byteLength":175228,
			"uri":"data:application/octet-stream;base64,"
		}
	]
}
