{
	"asset":{
		"generator":"Khronos glTF Blender I/O v3.6.27",
		"version":"2.0"
	},
	"scene":0,
	"scenes":[
		{
			"name":"Scene",
			"nodes":[
				0
			]
		}
	],
	"nodes":[
		{
			"mesh":0,
			"name":"hip-pitch",
			"rotation":[
				0.7071068286895752,
				0,
				0,
				0.7071068286895752
			]
		}
	],
	"materials":[
		{
			"doubleSided":true,
			"name":"Default OBJ.019",
			"pbrMetallicRoughness":{
				"baseColorFactor":[
					0.800000011920929,
					0.800000011920929,
					0.800000011920929,
					1
				],
				"metallicFactor":0,
				"roughnessFactor":0.5
			}
		}
	],
	"meshes":[
		{
			"name":"hip-pitch",
			"primitives":[
				{
					"attributes":{
						"POSITION":0,
						"NORMAL":1,
						"TEXCOORD_0":2
					},
					"indices":3,
					"material":0
				}
			]
		}
	],
	"accessors":[
		{
			"bufferView":0,
			"componentType":5126,
			"count":9089,
			"max":[
				0.18921400606632233,
				0.07426100224256516,
				0.12999999523162842
			],
			"min":[
				-0.0663679987192154,
				-0.07426100224256516,
				-0.05285999923944473
			],
			"type":"VEC3"
		},
		{
			"bufferView":1,
			"componentType":5126,
			"count":9089,
			"type":"VEC3"
		},
		{
			"bufferView":2,
			"componentType":5126,
			"count":9089,
			"type":"VEC2"
		},
		{
			"bufferView":3,
			"componentType":5123,
			"count":18753,
			"type":"SCALAR"
		}
	],
	"bufferViews":[
		{
			"buffer":0,
			"byteLength":109068,
			"byteOffset":0,
			"target":34962
		},
		{
			"buffer":0,
			"byteLength":109068,
			"byteOffset":109068,
			"target":34962
		},
		{
			"buffer":0,
			"byteLength":72712,
			"byteOffset":218136,
			"target":34962
		},
		{
			"buffer":0,
			"byteLength":37506,
			"byteOffset":290848,
			"target":34963
		}
	],
	"buffers":[
		{
			"byteLength":328356,
			"uri":"data:application/octet-stream;base64,"
		}
	]
}
