{
	"asset":{
		"generator":"Khronos glTF Blender I/O v3.6.27",
		"version":"2.0"
	},
	"scene":0,
	"scenes":[
		{
			"name":"Scene",
			"nodes":[
				0
			]
		}
	],
	"nodes":[
		{
			"mesh":0,
			"name":"knee",
			"rotation":[
				0.7071068286895752,
				0,
				0,
				0.7071068286895752
			]
		}
	],
	"materials":[
		{
			"doubleSided":true,
			"name":"Default OBJ.026",
			"pbrMetallicRoughness":{
				"baseColorFactor":[
					0.800000011920929,
					0.800000011920929,
					0.800000011920929,
					1
				],
				"metallicFactor":0,
				"roughnessFactor":0.5
			}
		}
	],
	"meshes":[
		{
			"name":"knee",
			"primitives":[
				{
					"attributes":{
						"POSITION":0,
						"NORMAL":1,
						"TEXCOORD_0":2
					},
					"indices":3,
					"material":0
				}
			]
		}
	],
	"accessors":[
		{
			"bufferView":0,
			"componentType":5126,
			"count":1891,
			"max":[
				0.08439899981021881,
				0.04887399822473526,
				0.029500000178813934
			],
			"min":[
				-0.04875599965453148,
				-0.09597600251436234,
				-0.027300000190734863
			],
			"type":"VEC3"
		},
		{
			"bufferView":1,
			"componentType":5126,
			"count":1891,
			"type":"VEC3"
		},
		{
			"bufferView":2,
			"componentType":5126,
			"count":1891,
			"type":"VEC2"
		},
		{
			"bufferView":3,
			"componentType":5123,
			"count":4566,
			"type":"SCALAR"
		}
	],
	"bufferViews":[
		{
			"buffer":0,
			"byteLength":22692,
			"byteOffset":0,
			"target":34962
		},
		{
			"buffer":0,
			"byteLength":22692,
			"byteOffset":22692,
			"target":34962
		},
		{
			"buffer":0,
			"byteLength":15128,
			"byteOffset":45384,
			"target":34962
		},
		{
			"buffer":0,
			"byteLength":9132,
			"byteOffset":60512,
			"target":34963
		}
	],
	"buffers":[
		{
			"byteLength":69644,
			"uri":"data:application/octet-stream;base64,"
		}
	]
}
