{
	"asset":{
		"generator":"Khronos glTF Blender I/O v3.6.27",
		"version":"2.0"
	},
	"scene":0,
	"scenes":[
		{
			"name":"Scene",
			"nodes":[
				0
			]
		}
	],
	"nodes":[
		{
			"mesh":0,
			"name":"knee-spring",
			"rotation":[
				0.7071068286895752,
				0,
				0,
				0.7071068286895752
			]
		}
	],
	"materials":[
		{
			"doubleSided":true,
			"name":"Default OBJ.014",
			"pbrMetallicRoughness":{
				"baseColorFactor":[
					0.800000011920929,
					0.800000011920929,
					0.800000011920929,
					1
				],
				"metallicFactor":0,
				"roughnessFactor":0.5
			}
		}
	],
	"meshes":[
		{
			"name":"knee-spring",
			"primitives":[
				{
					"attributes":{
						"POSITION":0,
						"NORMAL":1,
						"TEXCOORD_0":2
					},
					"indices":3,
					"material":0
				}
			]
		}
	],
	"accessors":[
		{
			"bufferView":0,
			"componentType":5126,
			"count":2132,
			"max":[
				0.13961200416088104,
				0.012543000280857086,
				0.03779999911785126
			],
			"min":[
				-3.000000106112566e-06,
				-0.014298999682068825,
				-0.03780300170183182
			],
			"type":"VEC3"
		},
		{
			"bufferView":1,
			"componentType":5126,
			"count":2132,
			"type":"VEC3"
		},
		{
			"bufferView":2,
			"componentType":5126,
			"count":2132,
			"type":"VEC2"
		},
		{
			"bufferView":3,
			"componentType":5123,
			"count":6066,
			"type":"SCALAR"
		}
	],
	"bufferViews":[
		{
			"buffer":0,
			"byteLength":25584,
			"byteOffset":0,
			"target":34962
		},
		{
			"buffer":0,
			"byteLength":25584,
			"byteOffset":25584,
			"target":34962
		},
		{
			"buffer":0,
			"byteLength":17056,
			"byteOffset":51168,
			"target":34962
		},
		{
			"buffer":0,
			"byteLength":12132,
			"byteOffset":68224,
			"target":34963
		}
	],
	"buffers":[
		{
			"byteLength":80356,
			"uri":"data:application/octet-stream;base64,"
		}
	]
}
