{
	"asset":{
		"generator":"Khronos glTF Blender I/O v3.6.27",
		"version":"2.0"
	},
	"scene":0,
	"scenes":[
		{
			"name":"Scene",
			"nodes":[
				0
			]
		}
	],
	"nodes":[
		{
			"mesh":0,
			"name":"left_tarsus",
			"rotation":[
				0.7071068286895752,
				0,
				0,
				0.7071068286895752
			]
		}
	],
	"materials":[
		{
			"doubleSided":true,
			"name":"Default OBJ.007",
			"pbrMetallicRoughness":{
				"baseColorFactor":[
					0.800000011920929,
					0.800000011920929,
					0.800000011920929,
					1
				],
				"metallicFactor":0,
				"roughnessFactor":0.5
			}
		}
	],
	"meshes":[
		{
			"name":"left_tarsus",
			"primitives":[
				{
					"attributes":{
						"POSITION":0,
						"NORMAL":1
					},
					"indices":2,
					"material":0
				}
			]
		}
	],
	"accessors":[
		{
			"bufferView":0,
			"componentType":5126,
			"count":22928,
			"max":[
				0.42003199458122253,
				0.030539000406861305,
				0.06404399871826172
			],
			"min":[
				-0.1307699978351593,
				-0.02761399932205677,
				-0.034168001264333725
			],
			"type":"VEC3"
		},
		{
			"bufferView":1,
			"componentType":5126,
			"count":22928,
			"type":"VEC3"
		},
		{
			"bufferView":2,
			"componentType":5123,
			"count":26544,
			"type":"SCALAR"
		}
	],
	"bufferViews":[
		{
			"buffer":0,
			"byteLength":275136,
			"byteOffset":0,
			"target":34962
		},
		{
			"buffer":0,
			"byteLength":275136,
			"byteOffset":275136,
			"target":34962
		},
		{
			"buffer":0,
			"byteLength":53088,
			"byteOffset":550272,
			"target":34963
		}
	],
	"buffers":[
		{
			"byteLength":603360,
			"uri":"data:application/octet-stream;base64,"
		}
	]
}
