{
	"asset":{
		"generator":"Khronos glTF Blender I/O v3.6.27",
		"version":"2.0"
	},
	"scene":0,
	"scenes":[
		{
			"name":"Scene",
			"nodes":[
				0
			]
		}
	],
	"nodes":[
		{
			"mesh":0,
			"name":"left_hip",
			"rotation":[
				0.7071068286895752,
				0,
				0,
				0.7071068286895752
			]
		}
	],
	"materials":[
		{
			"doubleSided":true,
			"name":"Default OBJ.016",
			"pbrMetallicRoughness":{
				"baseColorFactor":[
					0.800000011920929,
					0.800000011920929,
					0.800000011920929,
					1
				],
				"metallicFactor":0,
				"roughnessFactor":0.5
			}
		}
	],
	"meshes":[
		{
			"name":"left_hip",
			"primitives":[
				{
					"attributes":{
						"POSITION":0,
						"NORMAL":1
					},
					"indices":2,
					"material":0
				}
			]
		}
	],
	"accessors":[
		{
			"bufferView":0,
			"componentType":5126,
			"count":25125,
			"max":[
				0.04843199998140335,
				0.035006001591682434,
				0.04846600070595741
			],
			"min":[
				-0.06866200268268585,
				-0.03500000014901161,
				-0.04846600070595741
			],
			"type":"VEC3"
		},
		{
			"bufferView":1,
			"componentType":5126,
			"count":25125,
			"type":"VEC3"
		},
		{
			"bufferView":2,
			"componentType":5123,
			"count":27789,
			"type":"SCALAR"
		}
	],
	"bufferViews":[
		{
			"buffer":0,
			"byteLength":301500,
			"byteOffset":0,
			"target":34962
		},
		{
			"buffer":0,
			"byteLength":301500,
			"byteOffset":301500,
			"target":34962
		},
		{
			"buffer":0,
			"byteLength":55578,
			"byteOffset":603000,
			"target":34963
		}
	],
	"buffers":[
		{
			"byteLength":658580,
			"uri":"data:application/octet-stream;base64,"
		}
	]
}
