{
	"asset":{
		"generator":"Khronos glTF Blender I/O v3.6.27",
		"version":"2.0"
	},
	"scene":0,
	"scenes":[
		{
			"name":"Scene",
			"nodes":[
				0
			]
		}
	],
	"nodes":[
		{
			"mesh":0,
			"name":"left_knee",
			"rotation":[
				0.7071068286895752,
				0,
				0,
				0.7071068286895752
			]
		}
	],
	"materials":[
		{
			"doubleSided":true,
			"name":"Default OBJ",
			"pbrMetallicRoughness":{
				"baseColorFactor":[
					0.800000011920929,
					0.800000011920929,
					0.800000011920929,
					1
				],
				"metallicFactor":0,
				"roughnessFactor":0.5
			}
		}
	],
	"meshes":[
		{
			"name":"left_knee",
			"primitives":[
				{
					"attributes":{
						"POSITION":0,
						"NORMAL":1
					},
					"indices":2,
					"material":0
				}
			]
		}
	],
	"accessors":[
		{
			"bufferView":0,
			"componentType":5126,
			"count":13187,
			"max":[
				0.20048199594020844,
				0.03810799866914749,
				0.04848499968647957
			],
			"min":[
				-0.04847799986600876,
				-0.037856001406908035,
				-0.0967549979686737
			],
			"type":"VEC3"
		},
		{
			"bufferView":1,
			"componentType":5126,
			"count":13187,
			"type":"VEC3"
		},
		{
			"bufferView":2,
			"componentType":5123,
			"count":17016,
			"type":"SCALAR"
		}
	],
	"bufferViews":[
		{
			"buffer":0,
			"byteLength":158244,
			"byteOffset":0,
			"target":34962
		},
		{
			"buffer":0,
			"byteLength":158244,
			"byteOffset":158244,
			"target":34962
		},
		{
			"buffer":0,
			"byteLength":34032,
			"byteOffset":316488,
			"target":34963
		}
	],
	"buffers":[
		{
			"byteLength":350520,
			"uri":"data:application/octet-stream;base64,"
		}
	]
}
