{
	"asset":{
		"generator":"Khronos glTF Blender I/O v3.6.27",
		"version":"2.0"
	},
	"scene":0,
	"scenes":[
		{
			"name":"Scene",
			"nodes":[
				0
			]
		}
	],
	"nodes":[
		{
			"mesh":0,
			"name":"left_abduction",
			"rotation":[
				0.7071068286895752,
				0,
				0,
				0.7071068286895752
			]
		}
	],
	"materials":[
		{
			"doubleSided":true,
			"name":"Default OBJ.008",
			"pbrMetallicRoughness":{
				"baseColorFactor":[
					0.800000011920929,
					0.800000011920929,
					0.800000011920929,
					1
				],
				"metallicFactor":0,
				"roughnessFactor":0.5
			}
		}
	],
	"meshes":[
		{
			"name":"left_abduction",
			"primitives":[
				{
					"attributes":{
						"POSITION":0,
						"NORMAL":1
					},
					"indices":2,
					"material":0
				}
			]
		}
	],
	"accessors":[
		{
			"bufferView":0,
			"componentType":5126,
			"count":49623,
			"max":[
				0.04650000110268593,
				0.08568000048398972,
				0.04800000041723251
			],
			"min":[
				-0.04800000041723251,
				-0.020999999716877937,
				-0.06549999862909317
			],
			"type":"VEC3"
		},
		{
			"bufferView":1,
			"componentType":5126,
			"count":49623,
			"type":"VEC3"
		},
		{
			"bufferView":2,
			"componentType":5123,
			"count":57942,
			"type":"SCALAR"
		}
	],
	"bufferViews":[
		{
			"buffer":0,
			"byteLength":595476,
			"byteOffset":0,
			"target":34962
		},
		{
			"buffer":0,
			"byteLength":595476,
			"byteOffset":595476,
			"target":34962
		},
		{
			"buffer":0,
			"byteLength":115884,
			"byteOffset":1190952,
			"target":34963
		}
	],
	"buffers":[
		{
			"byteLength":1306836,
			"uri":"data:application/octet-stream;base64,"
		}
	]
}
