{
	"asset":{
		"generator":"Khronos glTF Blender I/O v3.6.27",
		"version":"2.0"
	},
	"scene":0,
	"scenes":[
		{
			"name":"Scene",
			"nodes":[
				0
			]
		}
	],
	"nodes":[
		{
			"mesh":0,
			"name":"left_shin",
			"rotation":[
				0.7071068286895752,
				0,
				0,
				0.7071068286895752
			]
		}
	],
	"materials":[
		{
			"doubleSided":true,
			"name":"Default OBJ.025",
			"pbrMetallicRoughness":{
				"baseColorFactor":[
					0.800000011920929,
					0.800000011920929,
					0.800000011920929,
					1
				],
				"metallicFactor":0,
				"roughnessFactor":0.5
			}
		}
	],
	"meshes":[
		{
			"name":"left_shin",
			"primitives":[
				{
					"attributes":{
						"POSITION":0,
						"NORMAL":1
					},
					"indices":2,
					"material":0
				}
			]
		}
	],
	"accessors":[
		{
			"bufferView":0,
			"componentType":5126,
			"count":47922,
			"max":[
				0.45723700523376465,
				0.037849001586437225,
				0.026504000648856163
			],
			"min":[
				-0.02450300008058548,
				-0.0403750017285347,
				-0.042493999004364014
			],
			"type":"VEC3"
		},
		{
			"bufferView":1,
			"componentType":5126,
			"count":47922,
			"type":"VEC3"
		},
		{
			"bufferView":2,
			"componentType":5123,
			"count":55344,
			"type":"SCALAR"
		}
	],
	"bufferViews":[
		{
			"buffer":0,
			"byteLength":575064,
			"byteOffset":0,
			"target":34962
		},
		{
			"buffer":0,
			"byteLength":575064,
			"byteOffset":575064,
			"target":34962
		},
		{
			"buffer":0,
			"byteLength":110688,
			"byteOffset":1150128,
			"target":34963
		}
	],
	"buffers":[
		{
			"byteLength":1260816,
			"uri":"data:application/octet-stream;base64,"
		}
	]
}
