{
	"asset":{
		"generator":"Khronos glTF Blender I/O v3.6.27",
		"version":"2.0"
	},
	"scene":0,
	"scenes":[
		{
			"name":"Scene",
			"nodes":[
				0
			]
		}
	],
	"nodes":[
		{
			"mesh":0,
			"name":"pelvis",
			"rotation":[
				0.7071068286895752,
				0,
				0,
				0.7071068286895752
			]
		}
	],
	"materials":[
		{
			"doubleSided":true,
			"name":"Default OBJ.002",
			"pbrMetallicRoughness":{
				"baseColorFactor":[
					0.800000011920929,
					0.800000011920929,
					0.800000011920929,
					1
				],
				"metallicFactor":0,
				"roughnessFactor":0.5
			}
		}
	],
	"meshes":[
		{
			"name":"pelvis",
			"primitives":[
				{
					"attributes":{
						"POSITION":0,
						"NORMAL":1,
						"TEXCOORD_0":2
					},
					"indices":3,
					"material":0
				}
			]
		}
	],
	"accessors":[
		{
			"bufferView":0,
			"componentType":5126,
			"count":23396,
			"max":[
				0.16352100670337677,
				0.2372100055217743,
				0.10661999881267548
			],
			"min":[
				-0.12062700092792511,
				-0.2372100055217743,
				-0.16059400141239166
			],
			"type":"VEC3"
		},
		{
			"bufferView":1,
			"componentType":5126,
			"count":23396,
			"type":"VEC3"
		},
		{
			"bufferView":2,
			"componentType":5126,
			"count":23396,
			"type":"VEC2"
		},
		{
			"bufferView":3,
			"componentType":5123,
			"count":52410,
			"type":"SCALAR"
		}
	],
	"bufferViews":[
		{
			"buffer":0,
			"byteLength":280752,
			"byteOffset":0,
			"target":34962
		},
		{
			"buffer":0,
			"byteLength":280752,
			"byteOffset":280752,
			"target":34962
		},
		{
			"buffer":0,
			"byteLength":187168,
			"byteOffset":561504,
			"target":34962
		},
		{
			"buffer":0,
			"byteLength":104820,
			"byteOffset":748672,
			"target":34963
		}
	],
	"buffers":[
		{
			"byteLength":853492,
			"uri":"data:application/octet-stream;base64,"
		}
	]
}
