{
	"asset":{
		"generator":"Khronos glTF Blender I/O v3.6.27",
		"version":"2.0"
	},
	"scene":0,
	"scenes":[
		{
			"name":"Scene",
			"nodes":[
				0
			]
		}
	],
	"nodes":[
		{
			"mesh":0,
			"name":"plantar-rod",
			"rotation":[
				0.7071068286895752,
				0,
				0,
				0.7071068286895752
			]
		}
	],
	"materials":[
		{
			"doubleSided":true,
			"name":"Default OBJ.011",
			"pbrMetallicRoughness":{
				"baseColorFactor":[
					0.800000011920929,
					0.800000011920929,
					0.800000011920929,
					1
				],
				"metallicFactor":0,
				"roughnessFactor":0.5
			}
		}
	],
	"meshes":[
		{
			"name":"plantar-rod",
			"primitives":[
				{
					"attributes":{
						"POSITION":0,
						"NORMAL":1,
						"TEXCOORD_0":2
					},
					"indices":3,
					"material":0
				}
			]
		}
	],
	"accessors":[
		{
			"bufferView":0,
			"componentType":5126,
			"count":1336,
			"max":[
				0.35964399576187134,
				0.009526999667286873,
				0.00634900014847517
			],
			"min":[
				-0.009522000327706337,
				-0.00956599973142147,
				-0.00634900014847517
			],
			"type":"VEC3"
		},
		{
			"bufferView":1,
			"componentType":5126,
			"count":1336,
			"type":"VEC3"
		},
		{
			"bufferView":2,
			"componentType":5126,
			"count":1336,
			"type":"VEC2"
		},
		{
			"bufferView":3,
			"componentType":5123,
			"count":5634,
			"type":"SCALAR"
		}
	],
	"bufferViews":[
		{
			"buffer":0,
			"byteLength":16032,
			"byteOffset":0,
			"target":34962
		},
		{
			"buffer":0,
			"byteLength":16032,
			"byteOffset":16032,
			"target":34962
		},
		{
			"buffer":0,
			"byteLength":10688,
			"byteOffset":32064,
			"target":34962
		},
		{
			"buffer":0,
			"byteLength":11268,
			"byteOffset":42752,
			"target":34963
		}
	],
	"buffers":[
		{
			"byteLength":54020,
			"uri":"data:application/octet-stream;base64,"
		}
	]
}
