{
	"asset":{
		"generator":"Khronos glTF Blender I/O v3.6.27",
		"version":"2.0"
	},
	"scene":0,
	"scenes":[
		{
			"name":"Scene",
			"nodes":[
				0
			]
		}
	],
	"nodes":[
		{
			"mesh":0,
			"name":"right_thigh",
			"rotation":[
				0.7071068286895752,
				0,
				0,
				0.7071068286895752
			]
		}
	],
	"materials":[
		{
			"doubleSided":true,
			"name":"Default OBJ.024",
			"pbrMetallicRoughness":{
				"baseColorFactor":[
					0.800000011920929,
					0.800000011920929,
					0.800000011920929,
					1
				],
				"metallicFactor":0,
				"roughnessFactor":0.5
			}
		}
	],
	"meshes":[
		{
			"name":"right_thigh",
			"primitives":[
				{
					"attributes":{
						"POSITION":0,
						"NORMAL":1
					},
					"indices":2,
					"material":0
				}
			]
		}
	],
	"accessors":[
		{
			"bufferView":0,
			"componentType":5126,
			"count":64492,
			"max":[
				0.18596699833869934,
				0.10624899715185165,
				0.06599999964237213
			],
			"min":[
				-0.0660099983215332,
				-0.05293799936771393,
				-0.06599999964237213
			],
			"type":"VEC3"
		},
		{
			"bufferView":1,
			"componentType":5126,
			"count":64492,
			"type":"VEC3"
		},
		{
			"bufferView":2,
			"componentType":5123,
			"count":80058,
			"type":"SCALAR"
		}
	],
	"bufferViews":[
		{
			"buffer":0,
			"byteLength":773904,
			"byteOffset":0,
			"target":34962
		},
		{
			"buffer":0,
			"byteLength":773904,
			"byteOffset":773904,
			"target":34962
		},
		{
			"buffer":0,
			"byteLength":160116,
			"byteOffset":1547808,
			"target":34963
		}
	],
	"buffers":[
		{
			"byteLength":1707924,
			"uri":"data:application/octet-stream;base64,"
		}
	]
}
