{
	"asset":{
		"generator":"Khronos glTF Blender I/O v3.6.27",
		"version":"2.0"
	},
	"scene":0,
	"scenes":[
		{
			"name":"Scene",
			"nodes":[
				0
			]
		}
	],
	"nodes":[
		{
			"mesh":0,
			"name":"shin",
			"rotation":[
				0.7071068286895752,
				0,
				0,
				0.7071068286895752
			]
		}
	],
	"materials":[
		{
			"doubleSided":true,
			"name":"Default OBJ.018",
			"pbrMetallicRoughness":{
				"baseColorFactor":[
					0.800000011920929,
					0.800000011920929,
					0.800000011920929,
					1
				],
				"metallicFactor":0,
				"roughnessFactor":0.5
			}
		}
	],
	"meshes":[
		{
			"name":"shin",
			"primitives":[
				{
					"attributes":{
						"POSITION":0,
						"NORMAL":1,
						"TEXCOORD_0":2
					},
					"indices":3,
					"material":0
				}
			]
		}
	],
	"accessors":[
		{
			"bufferView":0,
			"componentType":5126,
			"count":8234,
			"max":[
				0.4571880102157593,
				0.050905000418424606,
				0.049302998930215836
			],
			"min":[
				-0.11843899637460709,
				-0.06884600222110748,
				-0.04936699941754341
			],
			"type":"VEC3"
		},
		{
			"bufferView":1,
			"componentType":5126,
			"count":8234,
			"type":"VEC3"
		},
		{
			"bufferView":2,
			"componentType":5126,
			"count":8234,
			"type":"VEC2"
		},
		{
			"bufferView":3,
			"componentType":5123,
			"count":23214,
			"type":"SCALAR"
		}
	],
	"bufferViews":[
		{
			"buffer":0,
			"byteLength":98808,
			"byteOffset":0,
			"target":34962
		},
		{
			"buffer":0,
			"byteLength":98808,
			"byteOffset":98808,
			"target":34962
		},
		{
			"buffer":0,
			"byteLength":65872,
			"byteOffset":197616,
			"target":34962
		},
		{
			"buffer":0,
			"byteLength":46428,
			"byteOffset":263488,
			"target":34963
		}
	],
	"buffers":[
		{
			"byteLength":309916,
			"uri":"data:application/octet-stream;base64,"
		}
	]
}
