{
	"asset":{
		"generator":"Khronos glTF Blender I/O v3.6.27",
		"version":"2.0"
	},
	"scene":0,
	"scenes":[
		{
			"name":"Scene",
			"nodes":[
				0
			]
		}
	],
	"nodes":[
		{
			"mesh":0,
			"name":"tarsus",
			"rotation":[
				0.7071068286895752,
				0,
				0,
				0.7071068286895752
			]
		}
	],
	"materials":[
		{
			"doubleSided":true,
			"name":"Default OBJ.031",
			"pbrMetallicRoughness":{
				"baseColorFactor":[
					0.800000011920929,
					0.800000011920929,
					0.800000011920929,
					1
				],
				"metallicFactor":0,
				"roughnessFactor":0.5
			}
		}
	],
	"meshes":[
		{
			"name":"tarsus",
			"primitives":[
				{
					"attributes":{
						"POSITION":0,
						"NORMAL":1,
						"TEXCOORD_0":2
					},
					"indices":3,
					"material":0
				}
			]
		}
	],
	"accessors":[
		{
			"bufferView":0,
			"componentType":5126,
			"count":9106,
			"max":[
				0.4200330078601837,
				0.10290499776601791,
				0.040327999740839005
			],
			"min":[
				-0.02907700091600418,
				-0.02959199994802475,
				-0.04035700112581253
			],
			"type":"VEC3"
		},
		{
			"bufferView":1,
			"componentType":5126,
			"count":9106,
			"type":"VEC3"
		},
		{
			"bufferView":2,
			"componentType":5126,
			"count":9106,
			"type":"VEC2"
		},
		{
			"bufferView":3,
			"componentType":5123,
			"count":26040,
			"type":"SCALAR"
		}
	],
	"bufferViews":[
		{
			"buffer":0,
			"byteLength":109272,
			"byteOffset":0,
			"target":34962
		},
		{
			"buffer":0,
			"byteLength":109272,
			"byteOffset":109272,
			"target":34962
		},
		{
			"buffer":0,
			"byteLength":72848,
			"byteOffset":218544,
			"target":34962
		},
		{
			"buffer":0,
			"byteLength":52080,
			"byteOffset":291392,
			"target":34963
		}
	],
	"buffers":[
		{
			"byteLength":343472,
			"uri":"data:application/octet-stream;base64,"
		}
	]
}
