v 0.06293915 -0.02398261 0.07500000
v 0.07989078 -0.06924668 0.07500000
v 0.06839194 -0.03854259 0.00000000
v 0.02266669 -0.01995772 0.00000000
v 0.02258368 -0.04597593 0.07500000
v 0.06163546 -0.02050153 0.00000000
v 0.02266669 -0.01995772 0.07500000
v 0.03888492 -0.06845112 0.00000000
v 0.05723747 -0.01998560 0.07500000
v 0.07989078 -0.06924668 0.00000000
v 0.03888492 -0.06845112 0.07500000
v 0.02258368 -0.04597593 0.00000000
v 0.06163546 -0.02050153 0.01299517
v 0.02835931 -0.05722060 0.07500000
v 0.02835931 -0.05722060 0.00000000
v 0.03567519 0.04881729 0.07500000
v 0.05713115 -0.00847416 0.07500000
v 0.03697887 0.04533621 0.00000000
v 0.00236898 0.04932197 0.00000000
v 0.02237393 -0.01908610 0.07500000
v 0.03567519 0.04881729 0.00000000
v 0.00236898 0.04932197 0.07500000
v 0.05434965 -0.01998560 0.00000000
v 0.00579977 0.03025959 0.07500000
v 0.05713115 -0.00847416 0.00000000
v 0.05434965 -0.01998560 0.07500000
v 0.02237393 -0.01908610 0.00000000
v 0.00579977 0.03025959 0.00000000
v -0.03228480 -0.04597593 0.07500000
v -0.03543847 -0.06225385 0.07500000
v -0.03543847 -0.06225385 0.00000000
v -0.07013894 -0.04693473 0.00000000
v -0.08859720 -0.09651270 0.07500000
v -0.03228480 -0.04597593 0.00000000
v -0.07013894 -0.04693473 0.07500000
v -0.04683370 -0.09651270 0.07500000
v -0.08859720 -0.09651270 0.00000000
v -0.04683370 -0.09651270 0.00000000
v 0.01872290 0.09408310 0.07500000
v 0.03567519 0.04881729 0.07500000
v 0.03377824 0.05388251 0.00000000
v -0.01763690 0.09408310 0.00000000
v -0.03440783 0.04903723 0.07500000
v 0.01872290 0.09408310 0.00000000
v -0.01763690 0.09408310 0.07500000
v -0.03440783 0.04903723 0.00000000
v 0.03567519 0.04881729 0.00000000
v 0.00236898 0.04932197 0.07500000
v 0.00318490 0.03804476 0.07500000
v 0.00318490 0.03804476 0.00000000
v -0.03475939 0.04809296 0.00000000
v -0.06023429 -0.02033135 0.07500000
v 0.00236898 0.04932197 0.00000000
v -0.03475939 0.04809296 0.07500000
v -0.02100856 -0.01893442 0.07500000
v -0.06023429 -0.02033135 0.00000000
v -0.02100856 -0.01893442 0.00000000
v -0.01207010 -0.02542670 0.07500000
v -0.01207010 -0.04597593 0.07500000
v -0.01207010 -0.04597593 0.00000000
v -0.06058585 -0.02127562 0.00000000
v -0.06978738 -0.04599046 0.07500000
v -0.02129582 -0.01979872 0.00000000
v -0.06058585 -0.02127562 0.07500000
v -0.06978738 -0.04599046 0.00000000
v -0.01207010 -0.02542670 0.00000000
v -0.02129582 -0.01979872 0.07500000
v 0.08024599 -0.07019516 0.07500000
v 0.08951880 -0.09651270 0.07500000
v 0.08889942 -0.09330143 0.00000000
v 0.03888492 -0.06845112 0.00000000
v 0.04833850 -0.09651270 0.07500000
v 0.08024599 -0.07019516 0.00000000
v 0.08889942 -0.09330143 0.07500000
v 0.03888492 -0.06845112 0.07500000
v 0.04833850 -0.09651270 0.00000000
v 0.08951880 -0.09651270 0.00000000
v 0.05748635 -0.00942263 0.07500000
v 0.06258394 -0.02303414 0.07500000
v 0.05973851 -0.01543632 0.00000000
v 0.05434965 -0.00843434 0.00000000
v 0.05434965 -0.01998560 0.07500000
v 0.05748635 -0.00942263 0.00000000
v 0.05434965 -0.00843434 0.07500000
v 0.05434965 -0.01998560 0.00000000
v 0.06258394 -0.02303414 0.01299517
v 0.05723747 -0.02287341 0.07500000
v 0.06163546 -0.02050153 0.00000000
v 0.02835931 -0.04597593 0.07500000
v 0.02835931 -0.05722060 0.07500000
v 0.02835931 -0.04597593 0.00000000
v -0.03228480 -0.04597593 0.00000000
v -0.03228480 -0.05722060 0.07500000
v 0.02835931 -0.05722060 0.00000000
v -0.03228480 -0.04597593 0.07500000
v -0.03228480 -0.05722060 0.00000000
v 0.02353831 -0.02255277 0.07500000
v 0.02258368 -0.04597593 0.07500000
v 0.02258368 -0.04597593 0.00000000
v -0.01207010 -0.02542670 0.00000000
v -0.01207010 -0.02542670 0.07500000
v -0.01207010 -0.04597593 0.00000000
v 0.02353831 -0.02255277 0.00000000
v -0.01207010 -0.04597593 0.07500000
f 1 2 3
f 5 2 1
f 6 1 3
f 6 3 4
f 7 5 1
f 8 4 3
f 9 6 4
f 9 4 7
f 9 7 1
f 10 8 3
f 10 3 2
f 10 2 8
f 11 8 2
f 11 2 5
f 12 4 8
f 12 7 4
f 12 5 7
f 13 9 1
f 13 1 6
f 13 6 9
f 14 11 5
f 14 8 11
f 15 12 8
f 15 8 14
f 15 14 5
f 15 5 12
f 16 17 18
f 20 17 16
f 21 16 18
f 21 18 19
f 22 20 16
f 22 21 19
f 22 16 21
f 23 19 18
f 24 22 19
f 24 20 22
f 25 23 18
f 25 18 17
f 25 17 23
f 26 23 17
f 26 17 20
f 26 20 23
f 27 23 20
f 27 19 23
f 27 20 24
f 28 27 24
f 28 24 19
f 28 19 27
f 29 30 31
f 33 30 29
f 34 29 31
f 34 31 32
f 35 33 29
f 35 32 33
f 35 34 32
f 35 29 34
f 36 31 30
f 36 30 33
f 37 33 32
f 37 32 31
f 37 36 33
f 38 37 31
f 38 31 36
f 38 36 37
f 39 40 41
f 43 40 39
f 44 39 41
f 44 41 42
f 44 42 39
f 45 43 39
f 45 39 42
f 45 42 43
f 46 40 43
f 46 43 42
f 46 42 41
f 47 46 41
f 47 41 40
f 47 40 46
f 48 49 50
f 52 49 48
f 53 48 50
f 53 50 51
f 54 52 48
f 54 51 52
f 54 53 51
f 54 48 53
f 55 50 49
f 55 49 52
f 56 52 51
f 56 51 50
f 56 55 52
f 57 56 50
f 57 50 55
f 57 55 56
f 58 59 60
f 62 59 58
f 62 60 59
f 63 60 61
f 64 62 58
f 64 61 62
f 65 62 61
f 65 61 60
f 65 60 62
f 66 63 58
f 66 58 60
f 66 60 63
f 67 64 58
f 67 58 63
f 67 63 61
f 67 61 64
f 72 69 68
f 73 68 70
f 73 70 71
f 73 71 68
f 74 68 69
f 74 69 70
f 74 70 68
f 75 72 68
f 75 68 71
f 75 71 72
f 76 69 72
f 76 72 71
f 76 71 70
f 77 76 70
f 77 70 69
f 77 69 76
f 82 79 78
f 83 80 81
f 83 78 79
f 84 82 78
f 84 83 81
f 84 78 83
f 85 81 80
f 85 84 81
f 85 82 84
f 86 83 79
f 87 79 82
f 87 82 85
f 87 86 79
f 87 85 86
f 88 86 85
f 88 85 80
f 88 80 83
f 88 83 86
f 89 90 91
f 89 91 92
f 93 90 89
f 94 91 90
f 94 92 91
f 94 90 93
f 95 93 89
f 95 89 92
f 95 92 93
f 96 94 93
f 96 93 92
f 96 92 94
f 97 98 99
f 101 98 97
f 101 97 100
f 102 99 98
f 102 100 99
f 103 97 99
f 103 99 100
f 103 100 97
f 104 102 98
f 104 98 101
f 104 101 100
f 104 100 102
