# https://github.com/mikedh/trimesh
v 0.03614792 0.09193834 0.04000000
v 0.03659879 0.07574340 0.04000000
v 0.03614792 0.09193834 0.00000000
v -0.01748512 0.09527370 0.00000000
v -0.01748512 0.07574340 0.04000000
v 0.02707010 0.09361135 0.04000000
v 0.03659879 0.07574340 0.00000000
v 0.02707010 0.09361135 0.00000000
v -0.01748512 0.09527370 0.04000000
v -0.01748512 0.07574340 0.00000000
f 1 2 3
f 5 2 1
f 6 5 1
f 7 3 2
f 7 2 5
f 7 4 3
f 8 3 4
f 8 6 1
f 8 1 3
f 9 4 5
f 9 5 6
f 9 8 4
f 9 6 8
f 10 7 5
f 10 5 4
f 10 4 7

