# https://github.com/mikedh/trimesh
v 0.12323852 0.02226544 0.02169725
v 0.12767665 -0.01004105 0.01769472
v 0.12569200 0.00823665 -0.01927185
v 0.08017778 0.00812036 -0.02213694
v 0.08021648 -0.01238172 0.02173471
v 0.12369800 -0.01401500 -0.01452400
v 0.12155645 0.02814390 -0.01267610
v 0.12603266 0.02585988 -0.01297191
v 0.12394500 -0.00960163 0.02188820
v 0.08019629 0.00812810 0.02353984
v 0.12748727 -0.00988144 -0.01524809
v 0.08011967 -0.01783843 -0.00920465
v 0.11218886 0.00801146 -0.02234687
v 0.12768479 0.00768392 0.01232897
v 0.12293918 0.02660713 0.01761311
v 0.12766648 0.00102584 0.01769162
v 0.09617873 0.02781977 0.00335786
v 0.09627339 0.02038042 0.02297174
v 0.12825818 0.00817104 -0.01488239
v 0.09622099 -0.00968229 -0.02282709
v 0.07989338 -0.01467274 0.01988554
v 0.09631239 0.00799554 -0.02243770
v 0.12385659 0.02756381 -0.01246158
v 0.12501127 0.02477014 0.01791302
v 0.12471028 0.02250681 0.02018145
v 0.10928683 0.02794025 0.00297819
v 0.10904454 0.02256478 0.02202946
v 0.10913439 0.02682287 0.01722685
v 0.08019439 -0.00468439 -0.02249725
v 0.10892604 -0.01138089 -0.01998102
v 0.10561335 -0.01199867 0.02123451
v 0.08668858 -0.00484776 -0.02265091
v 0.12517388 -0.00919671 -0.01922350
v 0.12382873 -0.01415528 0.01789732
v 0.12558553 -0.01135455 -0.01702760
v 0.11814351 0.00159560 -0.02212295
v 0.12121506 -0.01123731 -0.01898723
v 0.12540727 -0.01230681 0.01958569
v 0.11764176 -0.01689038 0.00009170
v 0.10521400 -0.01388300 0.01960700
v 0.11786789 -0.00662418 -0.02199980
v 0.10175050 -0.01664764 -0.00906398
v 0.08015375 -0.01721810 0.01479883
v 0.10865092 -0.00869473 -0.02216842
v 0.11700854 -0.01651908 0.00897625
f 10 5 9
f 11 2 6
f 13 8 3
f 13 7 8
f 16 9 2
f 17 7 4
f 17 4 10
f 18 10 9
f 18 9 1
f 18 17 10
f 19 11 3
f 19 3 8
f 19 8 14
f 19 2 11
f 19 16 2
f 19 14 16
f 21 10 4
f 21 5 10
f 22 4 7
f 22 7 13
f 22 13 20
f 23 15 8
f 23 8 7
f 23 7 15
f 24 14 8
f 24 8 15
f 24 15 1
f 24 16 14
f 25 1 9
f 25 9 16
f 25 24 1
f 25 16 24
f 26 15 7
f 26 7 17
f 27 18 1
f 27 1 15
f 28 17 18
f 28 26 17
f 28 15 26
f 28 27 15
f 28 18 27
f 29 20 12
f 29 21 4
f 29 12 21
f 30 6 12
f 30 12 20
f 31 9 5
f 31 5 21
f 32 22 20
f 32 20 29
f 32 29 4
f 32 4 22
f 33 3 11
f 34 6 2
f 35 33 11
f 35 11 6
f 36 13 3
f 36 3 33
f 36 20 13
f 37 30 20
f 37 33 35
f 37 35 6
f 37 6 30
f 38 34 2
f 38 2 9
f 38 9 31
f 39 6 34
f 40 31 21
f 40 21 34
f 40 38 31
f 40 34 38
f 41 36 33
f 41 20 36
f 41 33 37
f 42 39 12
f 42 12 6
f 42 6 39
f 43 34 21
f 43 21 12
f 43 12 39
f 44 41 37
f 44 37 20
f 44 20 41
f 45 43 39
f 45 39 34
f 45 34 43

