# https://github.com/mikedh/trimesh
v -0.01759091 0.08000000 0.00303030
v -0.01759091 -0.08000000 -0.00666667
v -0.01759091 0.08000000 -0.01151515
v -0.02672250 0.08000000 -0.01163529
v -0.02334617 -0.06666667 0.00425330
v -0.01759091 -0.08000000 -0.01151515
v -0.02001515 -0.08000000 0.00303030
v -0.02366039 0.08000000 0.00277461
v -0.02672250 -0.08000000 -0.01163529
v -0.02366039 -0.08000000 0.00277461
f 1 3 4
f 6 4 3
f 6 1 2
f 6 3 1
f 7 2 1
f 7 1 5
f 7 6 2
f 8 5 1
f 8 1 4
f 8 4 5
f 9 5 4
f 9 4 6
f 9 6 7
f 10 9 7
f 10 7 5
f 10 5 9

