# https://github.com/mikedh/trimesh
v 0.02496786 0.08000000 0.00272049
v 0.03150000 -0.08000000 -0.02000000
v 0.03150000 0.08000000 -0.02000000
v -0.01759091 0.08000000 -0.02000000
v -0.02334617 -0.06666667 0.00425330
v 0.02496786 -0.08000000 0.00272049
v -0.01759091 0.08000000 0.00303030
v -0.01759091 -0.06666667 -0.02000000
v -0.01031818 -0.08000000 -0.02000000
v -0.01031818 -0.08000000 0.00303030
f 1 2 3
f 1 3 4
f 3 2 4
f 6 2 1
f 6 1 5
f 7 5 1
f 7 1 4
f 7 4 5
f 8 5 4
f 8 4 2
f 9 5 8
f 9 8 2
f 9 2 6
f 10 9 6
f 10 6 5
f 10 5 9

