# OBJ generated by ONSHAPE BY PTC INC, 1.200 Units = meters
mtllib trapezoid.mtl
g Part 1
v -0.0285 -0.08 -0.02 
v -0.0285 0.08 -0.02 
v 0.0315 0.08 -0.02 
v 0.0315 -0.08 -0.02 
v 0.02 0.08 0.02 
v 0.02 -0.08 0.02 
v -0.02 0.08 0.02 
v -0.02 -0.08 0.02 
vn 1.73472e-16 0 -1 
vn 0.961069 0 0.276307 
vn -1.73472e-16 0 1 
vn -0.978159 0 0.207859 
vn 0 -1 0 
vn 0 1 0 
usemtl 0.615686_0.811765_0.929412_0.000000_0.000000
o mesh0
f 1//1 2//1 3//1 
f 3//1 4//1 1//1 
o mesh1
f 4//2 3//2 5//2 
f 5//2 6//2 4//2 
o mesh2
f 6//3 5//3 7//3 
f 7//3 8//3 6//3 
o mesh3
f 8//4 7//4 2//4 
f 2//4 1//4 8//4 
o mesh4
f 1//5 4//5 6//5 
f 6//5 8//5 1//5 
o mesh5
f 2//6 7//6 5//6 
f 5//6 3//6 2//6 
