# https://github.com/mikedh/trimesh
v 0.00639337 -0.01108590 0.02432029
v 0.00701614 -0.02017880 0.01765367
v -0.02257138 -0.00721383 0.02268106
v -0.09921352 -0.01573501 0.01459828
v -0.09858660 -0.01149367 0.02137395
v 0.00647194 -0.02118652 0.01436294
v 0.00600461 -0.01755256 0.02210345
v -0.09907482 -0.00754535 0.02339220
v -0.00634428 -0.02047932 0.01656333
v -0.06392526 -0.01810635 0.01387986
v 0.00564375 -0.00845983 0.02379286
v -0.10050035 -0.01257940 0.01992400
v -0.09856756 -0.01476397 0.01757873
v -0.00637636 -0.02091333 0.01459505
v -0.01261294 -0.01698928 0.02154582
v -0.08945221 -0.01373062 0.01949829
f 7 2 1
f 8 3 4
f 8 7 1
f 8 5 7
f 9 6 2
f 9 2 7
f 10 4 3
f 10 3 6
f 11 1 2
f 11 2 6
f 11 6 3
f 11 8 1
f 11 3 8
f 12 8 4
f 12 5 8
f 13 10 9
f 13 4 10
f 13 12 4
f 13 5 12
f 14 10 6
f 14 6 9
f 14 9 10
f 15 13 9
f 15 9 7
f 15 7 5
f 16 15 5
f 16 5 13
f 16 13 15

