# https://github.com/mikedh/trimesh
v -0.02219286 0.01686214 0.02145956
v -0.02239367 -0.01972544 0.01506279
v -0.02258820 0.00493603 -0.02367907
v -0.11864966 0.02299705 -0.02258636
v -0.12540739 -0.00926937 0.01929888
v -0.02252017 0.02424488 -0.00957409
v -0.02143409 -0.01846372 -0.01762824
v -0.02239173 -0.00830401 0.02288407
v -0.12385373 0.02684235 0.01765617
v -0.11225937 0.02513487 -0.02032669
v -0.02229638 0.02114521 0.01908352
v -0.11653253 -0.01677838 -0.00937254
v -0.11878146 -0.00947234 -0.02260975
v -0.09898406 -0.00972380 0.02258322
v -0.12778319 -0.00768185 -0.01882891
v -0.11580133 0.02269932 -0.02249452
v -0.07441052 0.02715817 -0.00971979
v -0.12308595 0.02732613 -0.01569269
v -0.11538162 0.02305085 0.02133054
v -0.07818872 -0.02023143 -0.00563072
v -0.04527331 -0.01283743 -0.02242505
v -0.12420559 -0.01409323 -0.01844235
v -0.11526729 -0.01373577 0.01655969
v -0.12802155 0.01411912 0.01697128
v -0.12408339 -0.00761109 -0.02250538
v -0.11856852 0.02700794 -0.01849813
v -0.07107239 0.02707897 0.00845774
v -0.12515871 0.00811822 -0.02088065
v -0.10916097 0.02680460 0.01743467
v -0.12048189 -0.00681926 0.02124917
v -0.02237779 -0.02047049 -0.01249160
v -0.02192865 -0.01558707 -0.02051203
v -0.12523788 -0.01388542 0.01392754
v -0.10233090 -0.01382527 -0.02034615
v -0.12376937 -0.01087583 0.01938952
v -0.12514922 0.02539199 -0.01599576
v -0.12362905 0.02364098 0.02090291
v -0.12543664 -0.01197663 -0.02040035
v -0.11577059 0.02659966 -0.01904108
v -0.02281059 0.02368350 0.01448820
v -0.12335300 0.00488091 -0.02241989
v -0.02278613 -0.02021943 0.01212049
v -0.06653579 -0.01676527 -0.01826612
v -0.02279400 -0.00707767 -0.02276030
v -0.11792416 -0.01703356 0.00682306
v -0.12756560 -0.01025185 0.01476687
v -0.11788587 -0.00900290 0.02123130
v -0.12789636 0.01733227 0.00612209
v -0.12736303 0.00081995 -0.01855049
v -0.12498359 0.02520416 0.01948268
v -0.12365208 0.01174567 0.02091730
v -0.03857985 0.02345476 0.01726712
v -0.08734969 0.02665322 0.01420024
v -0.07826330 -0.02024623 0.00150247
v -0.07612810 -0.01973404 -0.00791170
v -0.12560504 -0.01399326 -0.01598651
v -0.09274291 -0.01670303 0.01404041
v -0.12779434 -0.01035165 -0.01667137
v -0.12802997 0.01778571 0.01210874
v -0.12767395 0.00784367 -0.01011493
v -0.07708240 0.02677444 0.01143185
v -0.07585357 -0.02017488 0.00447676
v -0.05101955 -0.01962979 0.01102176
f 7 3 6
f 8 7 1
f 8 2 7
f 10 6 3
f 11 7 6
f 11 1 7
f 13 4 3
f 14 2 8
f 16 10 3
f 16 3 4
f 16 4 10
f 19 1 11
f 19 14 8
f 19 8 1
f 21 13 3
f 22 20 12
f 23 2 14
f 25 4 13
f 26 17 6
f 26 18 17
f 26 4 18
f 27 6 17
f 27 18 9
f 27 17 18
f 28 25 15
f 29 19 11
f 29 27 9
f 31 7 2
f 32 3 7
f 34 13 21
f 34 21 32
f 35 23 14
f 35 33 23
f 35 5 33
f 35 30 5
f 36 18 4
f 36 4 28
f 36 9 18
f 37 30 14
f 37 14 19
f 38 15 25
f 38 25 13
f 38 34 22
f 38 13 34
f 39 26 6
f 39 6 10
f 39 10 4
f 39 4 26
f 40 11 6
f 40 6 27
f 41 28 4
f 41 4 25
f 41 25 28
f 42 31 2
f 43 7 31
f 43 22 34
f 43 34 32
f 43 32 7
f 44 32 21
f 44 21 3
f 44 3 32
f 45 12 20
f 46 33 5
f 46 5 24
f 47 35 14
f 47 14 30
f 47 30 35
f 49 36 28
f 49 28 15
f 50 24 37
f 50 9 36
f 50 29 9
f 50 37 19
f 50 19 29
f 51 37 24
f 51 24 5
f 51 5 30
f 51 30 37
f 52 40 29
f 52 29 11
f 52 11 40
f 53 27 29
f 53 29 40
f 54 20 31
f 54 31 42
f 54 45 20
f 55 43 31
f 55 31 20
f 55 20 22
f 55 22 43
f 56 45 33
f 56 22 12
f 56 12 45
f 56 33 46
f 56 38 22
f 57 2 23
f 57 23 33
f 57 33 45
f 58 46 24
f 58 56 46
f 58 15 38
f 58 38 56
f 59 48 15
f 59 24 50
f 59 50 36
f 59 36 48
f 59 58 24
f 59 15 58
f 60 48 36
f 60 36 49
f 60 49 15
f 60 15 48
f 61 53 40
f 61 40 27
f 61 27 53
f 62 54 42
f 62 42 2
f 62 57 45
f 62 45 54
f 63 62 2
f 63 2 57
f 63 57 62

