# https://github.com/mikedh/trimesh
v 0.07680217 -0.00213351 0.00265887
v 0.07515029 -0.04930582 -0.01036789
v 0.06939399 -0.00165697 -0.02317877
v 0.03203671 -0.00151180 -0.02276234
v 0.02856790 -0.06195719 0.00239378
v 0.05771221 -0.06240251 -0.02266314
v 0.03206182 -0.00149319 0.00254616
v 0.07772172 -0.00794262 -0.01853404
v 0.05771522 -0.06242001 0.00254616
v 0.06617363 -0.04328324 -0.02330641
v 0.03365498 -0.06277046 -0.02053804
v 0.05517349 -0.00132938 -0.02282646
v 0.07676208 -0.02753019 -0.01073637
v 0.07520221 -0.02098339 0.00259944
v 0.07588018 -0.00768983 -0.02029797
v 0.07361151 -0.04938280 -0.01774247
v 0.07682379 -0.02633914 -0.01565526
v 0.07167924 -0.04898467 -0.02001770
v 0.07682565 -0.01905782 -0.01834210
v 0.07548696 -0.02297350 -0.01944260
f 7 4 5
f 8 3 1
f 9 7 5
f 9 1 7
f 9 6 2
f 10 6 4
f 10 4 3
f 11 5 4
f 11 4 6
f 11 9 5
f 11 6 9
f 12 7 1
f 12 1 3
f 12 3 4
f 12 4 7
f 13 8 1
f 13 1 2
f 14 9 2
f 14 2 1
f 14 1 9
f 15 10 3
f 15 3 8
f 16 2 6
f 17 13 2
f 17 8 13
f 17 2 16
f 18 16 6
f 18 6 10
f 18 10 15
f 19 17 16
f 19 8 17
f 20 19 16
f 20 16 18
f 20 18 15
f 20 15 8
f 20 8 19

