# https://github.com/mikedh/trimesh
v -0.02565633 0.02430296 -0.00953171
v -0.02245164 0.00492015 -0.01028053
v -0.02258820 0.00493603 -0.02367907
v -0.12111956 0.02262909 -0.02245331
v -0.12765029 0.00808057 -0.01025348
v -0.02240484 0.02072594 -0.02036461
v -0.09941183 0.00492015 -0.01028053
v -0.11249176 0.02833016 -0.01033815
v -0.12080395 0.00786509 -0.02314822
v -0.02262472 0.01680591 -0.02275790
v -0.02245329 0.02408373 -0.01026243
v -0.09937032 0.00482631 -0.02353272
v -0.09329955 0.02730442 -0.00985960
v -0.12514922 0.02539199 -0.01599576
v -0.11856852 0.02700794 -0.01849813
v -0.11864966 0.02299705 -0.02258636
v -0.12515871 0.00811822 -0.02088065
v -0.12653248 0.02078908 -0.01025836
v -0.12139250 0.02771644 -0.01545308
v -0.12335187 0.02456438 -0.02071328
v -0.02601920 0.02368412 -0.01255501
v -0.10278403 0.02686311 -0.01559666
v -0.06109033 0.01965648 -0.02249320
v -0.07392584 0.02350350 -0.02056409
v -0.12473856 0.02232389 -0.02044788
v -0.12126491 0.02699023 -0.01826081
v -0.12468296 0.02482587 -0.01848412
f 6 2 3
f 7 2 1
f 7 1 5
f 10 6 3
f 11 1 2
f 11 2 6
f 11 8 1
f 12 3 2
f 12 2 7
f 12 7 5
f 13 5 1
f 13 1 8
f 16 10 3
f 16 3 12
f 16 12 9
f 16 9 4
f 17 12 5
f 17 9 12
f 17 4 9
f 18 13 8
f 18 5 13
f 19 8 15
f 19 18 8
f 19 14 18
f 20 16 4
f 20 15 16
f 21 15 11
f 21 11 6
f 21 6 15
f 22 15 8
f 22 8 11
f 22 11 15
f 23 16 6
f 23 6 10
f 23 10 16
f 24 16 15
f 24 15 6
f 24 6 16
f 25 17 5
f 25 20 4
f 25 4 17
f 25 18 14
f 25 5 18
f 26 19 15
f 26 15 20
f 26 14 19
f 27 25 14
f 27 20 25
f 27 26 20
f 27 14 26

