# https://github.com/mikedh/trimesh
v 0.03355059 0.02304074 0.01997556
v 0.03337067 -0.02390348 0.02205778
v 0.03195054 -0.01068226 -0.02261703
v -0.02262472 0.01680591 -0.02275790
v -0.02245625 -0.01114872 0.02324334
v 0.03352079 0.03027705 -0.01618989
v 0.03250534 0.01427015 0.02184447
v -0.02229638 0.02114521 0.01908352
v -0.02237779 -0.02047049 -0.01249160
v 0.01557510 0.01630129 -0.02271939
v 0.03380249 0.02682081 -0.01819015
v -0.02261477 0.02423903 0.01167698
v -0.02219286 0.01686214 0.02145956
v 0.03324211 -0.02669953 -0.02028925
v -0.02278613 -0.02021943 0.01212049
v -0.02279400 -0.00707767 -0.02276030
v 0.03280865 0.01998273 -0.02069898
v -0.02252017 0.02424488 -0.00957409
v 0.03261292 0.03374248 0.01203202
v 0.03218548 -0.02713930 0.02146767
v 0.00614182 -0.01604725 -0.02241151
v 0.03181943 0.00176561 -0.02264011
v -0.02240484 0.02072594 -0.02036461
v 0.03269261 0.03370294 0.00260211
v -0.01567229 -0.02026154 0.01504155
v -0.02192865 -0.01558707 -0.02051203
v 0.02531121 0.01099257 -0.02267946
v -0.00288366 -0.01565040 -0.02239720
v -0.02143409 -0.01846372 -0.01762824
v -0.01879836 -0.02026484 -0.01553700
f 7 5 2
f 7 2 1
f 11 6 1
f 11 1 2
f 11 10 4
f 11 4 6
f 12 5 8
f 13 7 1
f 13 1 8
f 13 8 5
f 13 5 7
f 14 11 2
f 15 5 12
f 16 10 3
f 16 4 10
f 16 9 15
f 16 15 12
f 16 12 4
f 17 10 11
f 17 14 3
f 17 11 14
f 18 4 12
f 19 12 8
f 19 8 1
f 19 1 6
f 19 18 12
f 20 2 5
f 20 14 2
f 20 15 9
f 20 9 14
f 21 16 3
f 21 3 14
f 22 17 3
f 23 18 6
f 23 6 4
f 23 4 18
f 24 19 6
f 24 6 18
f 24 18 19
f 25 20 5
f 25 5 15
f 25 15 20
f 26 9 16
f 27 10 17
f 27 17 22
f 27 22 3
f 27 3 10
f 28 21 14
f 28 14 26
f 28 26 16
f 28 16 21
f 29 26 14
f 29 9 26
f 30 29 14
f 30 14 9
f 30 9 29

