# https://github.com/mikedh/trimesh
v 0.05781079 -0.06242811 0.02418628
v 0.07054403 -0.08071391 0.01467767
v 0.05771221 -0.06240251 -0.02266314
v 0.03365498 -0.06277046 -0.02053804
v 0.03321363 -0.08186909 0.01750389
v 0.03347113 -0.06241215 0.02154784
v 0.07103118 -0.07208846 0.01497279
v 0.06585476 -0.08048090 0.02118212
v 0.05883333 -0.08497466 -0.01755055
v 0.03378718 -0.07879368 0.02150215
v 0.03336176 -0.08191654 -0.01836333
v 0.06609856 -0.07198423 0.02210271
v 0.05780441 -0.08472929 0.01215847
v 0.05838048 -0.08044714 -0.02022819
v 0.03549662 -0.08119518 0.01926808
v 0.03628019 -0.08444946 -0.01049494
v 0.03353759 -0.08023990 -0.01987043
v 0.07041564 -0.07187751 0.01763271
v 0.06907207 -0.08355777 0.01481910
v 0.03841899 -0.08455349 -0.01289024
v 0.03345103 -0.08405688 0.00846786
v 0.06990126 -0.08026958 0.01701131
v 0.06704279 -0.08211150 0.01898595
v 0.03382338 -0.08397063 -0.00359260
v 0.03555158 -0.08406322 0.01175090
f 6 1 3
f 6 3 4
f 7 3 1
f 10 6 5
f 10 1 6
f 10 8 1
f 11 6 4
f 11 5 6
f 12 1 8
f 14 7 2
f 14 2 9
f 14 3 7
f 15 10 5
f 15 8 10
f 15 5 13
f 17 11 4
f 17 4 3
f 17 3 14
f 17 14 9
f 17 9 11
f 18 7 1
f 18 1 12
f 18 2 7
f 19 13 9
f 19 9 2
f 20 16 11
f 20 11 9
f 20 9 13
f 21 5 11
f 21 20 13
f 21 16 20
f 22 2 18
f 22 19 2
f 22 18 12
f 22 12 8
f 23 15 13
f 23 13 19
f 23 8 15
f 23 22 8
f 23 19 22
f 24 21 11
f 24 11 16
f 24 16 21
f 25 21 13
f 25 13 5
f 25 5 21

