# https://github.com/mikedh/trimesh
v 0.07493182 0.07115643 0.02108084
v 0.07312778 -0.02017029 0.01948260
v 0.07961678 0.05646235 -0.01731842
v 0.04049570 0.07633024 -0.01964695
v 0.03355059 0.02304074 0.01997556
v 0.03203671 -0.00151180 -0.02276234
v 0.07632576 0.07538808 -0.01785304
v 0.07965064 0.06273108 0.01461110
v 0.05778979 -0.02082319 0.02349971
v 0.03773980 0.07421169 0.01877654
v 0.07684458 -0.00872175 -0.01984929
v 0.06725982 0.07143900 -0.02275115
v 0.07639537 0.03760857 0.02016524
v 0.07943215 0.07350606 0.01449424
v 0.03206182 -0.00149319 0.00254616
v 0.03549607 0.07198559 -0.01319097
v 0.04243528 0.07185458 0.02160806
v 0.07660707 -0.02075709 -0.01039783
v 0.04832294 0.06576654 -0.02284040
v 0.07457806 0.07547112 -0.01970193
v 0.06939399 -0.00165697 -0.02317877
v 0.07731911 0.07308993 0.01877292
v 0.07653508 0.00504193 0.01512359
v 0.07369653 0.00257015 0.02202889
v 0.06976993 0.07843343 0.01429703
v 0.07972175 0.07282757 -0.01588445
v 0.03589024 0.07402671 0.01456402
v 0.03844591 0.07161696 -0.01989196
v 0.04009112 0.05948094 0.02125389
v 0.05771522 -0.02073324 0.00254616
v 0.07014558 -0.00782516 -0.02245915
v 0.07135774 -0.02056048 0.02171858
v 0.07986328 0.03737404 -0.01315405
v 0.06080910 0.07174167 -0.02263682
v 0.07644208 0.07158942 -0.02016161
v 0.07637826 0.01784716 0.01772932
v 0.07661051 -0.00107606 0.01192264
v 0.07192221 0.07824556 0.01193495
v 0.04023266 0.07817111 0.01696849
v 0.07267591 0.07535038 0.01922763
v 0.07825964 0.07494541 0.01470664
v 0.03582822 0.06919171 0.01667758
v 0.03963967 0.07810815 -0.01568319
v 0.03877052 0.07642045 -0.01782931
v 0.03661471 0.02363798 0.02166004
v 0.07607759 -0.02085378 -0.00864272
v 0.07962089 0.04046463 -0.01573322
v 0.06973285 0.06916179 -0.02261118
v 0.07937268 0.06770050 -0.01753370
v 0.07984290 0.03727410 -0.01070511
v 0.07016526 0.07811986 -0.01605926
v 0.04038688 0.07687461 0.01914646
v 0.03767521 0.07609480 0.01703600
v 0.06715298 0.07382740 0.02110883
v 0.07271789 0.07785569 -0.01344783
v 0.03583395 0.07376404 0.00560085
v 0.05106140 0.07800895 -0.01808186
v 0.06400790 0.07814944 0.01725043
v 0.06392086 0.07391175 0.02106515
v 0.04245277 0.07802085 -0.01796439
f 15 9 5
f 15 6 9
f 16 6 15
f 17 9 1
f 20 12 4
f 21 19 12
f 21 6 19
f 22 13 8
f 22 1 13
f 22 8 14
f 24 2 23
f 24 13 1
f 24 1 9
f 26 14 8
f 26 20 7
f 27 16 15
f 27 15 5
f 28 6 16
f 28 19 6
f 28 4 19
f 29 17 10
f 29 10 5
f 30 9 6
f 30 6 18
f 31 18 6
f 31 11 18
f 31 21 11
f 31 6 21
f 32 24 9
f 32 2 24
f 33 18 11
f 33 26 8
f 33 3 26
f 34 19 4
f 34 4 12
f 34 12 19
f 35 11 21
f 35 12 20
f 35 20 26
f 36 23 8
f 36 8 13
f 36 24 23
f 36 13 24
f 37 8 23
f 37 23 2
f 37 2 18
f 40 1 22
f 41 26 7
f 41 14 26
f 41 38 25
f 41 25 40
f 41 40 22
f 41 22 14
f 42 27 5
f 42 5 10
f 42 10 27
f 43 39 25
f 44 28 16
f 44 4 28
f 44 43 4
f 44 16 43
f 45 29 5
f 45 5 9
f 45 9 17
f 45 17 29
f 46 30 18
f 46 9 30
f 46 32 9
f 46 18 2
f 46 2 32
f 47 33 11
f 47 11 3
f 47 3 33
f 48 35 21
f 48 21 12
f 48 12 35
f 49 35 26
f 49 26 3
f 49 3 11
f 49 11 35
f 50 33 8
f 50 8 37
f 50 37 18
f 50 18 33
f 51 7 20
f 51 43 25
f 51 25 38
f 52 10 17
f 53 27 10
f 53 52 39
f 53 10 52
f 53 43 27
f 53 39 43
f 54 17 1
f 54 1 40
f 55 41 7
f 55 38 41
f 55 51 38
f 55 7 51
f 56 43 16
f 56 16 27
f 56 27 43
f 57 51 20
f 57 20 4
f 58 40 25
f 58 25 39
f 58 39 52
f 58 54 40
f 58 52 54
f 59 54 52
f 59 52 17
f 59 17 54
f 60 57 4
f 60 4 43
f 60 43 51
f 60 51 57

