# https://github.com/mikedh/trimesh
v 0.06096481 0.02421332 0.02331583
v 0.05781079 -0.06242811 0.02418628
v 0.06092190 -0.00149319 0.00254616
v 0.02996871 0.02592285 0.00251480
v 0.03262762 0.01730673 0.02149654
v 0.02856790 -0.06195719 0.00239378
v 0.06092190 0.02416020 0.00254616
v 0.06096333 -0.00147768 0.02378704
v 0.03661471 0.02363798 0.02166004
v 0.05771522 -0.06242001 0.00254616
v 0.03347113 -0.06241215 0.02154784
v 0.03355059 0.02304074 0.01997556
f 6 5 4
f 7 1 3
f 7 4 1
f 7 6 4
f 7 3 6
f 8 2 3
f 8 3 1
f 8 5 2
f 9 1 4
f 9 8 1
f 9 5 8
f 10 6 3
f 10 3 2
f 11 2 5
f 11 5 6
f 11 10 2
f 11 6 10
f 12 9 4
f 12 4 5
f 12 5 9

