# https://github.com/mikedh/trimesh
v 0.03603670 0.03060772 0.01615529
v 0.03587209 0.02160276 0.01068100
v 0.03678195 0.02969175 -0.01732100
v 0.02300309 0.03027205 -0.01652142
v 0.02204289 0.00208401 0.01724611
v 0.03637566 0.03048665 -0.01737235
v 0.03573194 0.02449758 0.01380423
v 0.02297217 0.03044820 0.01615031
v 0.03641209 0.02405280 -0.01165279
v 0.02158600 0.01286195 -0.01597462
v 0.02254791 0.00204632 0.01641769
v 0.03586104 0.02887150 0.01558380
v 0.03426229 0.03054349 -0.01700630
v 0.02198611 0.00902498 -0.01448689
v 0.02195459 0.00203006 0.01191630
v 0.02195827 0.00696152 -0.00795710
v 0.02231348 0.00223545 0.01269782
vn 0.59671105 0.54399019 0.58992423
vn 0.92810354 -0.34413410 0.14211103
vn 0.75447518 0.01674352 -0.65611498
vn -0.57384741 0.58440258 -0.57373581
vn -0.33185267 -0.62762202 0.70424740
vn 0.41101700 0.64946930 -0.63973014
vn 0.86964258 -0.24809641 0.42681372
vn -0.56620840 0.59530182 0.57010858
vn 0.89575932 -0.39417294 -0.20553085
vn -0.61694293 -0.20320435 -0.76032192
vn 0.51966655 -0.83354146 0.18749750
vn 0.68041231 -0.29083004 0.67264923
vn -0.01686277 0.98357972 -0.17968467
vn -0.27729581 -0.78219165 -0.55792764
vn -0.36864577 -0.91273910 -0.17608984
vn -0.31424512 -0.91629671 -0.24829487
vn 0.71209638 -0.69532244 -0.09718770
f 1//1 2//2 3//3
f 6//6 1//1 3//3
f 7//7 2//2 1//1
f 8//8 5//5 1//1
f 9//9 3//3 2//2
f 10//10 6//6 3//3
f 10//10 4//4 6//6
f 10//10 8//8 4//4
f 10//10 5//5 8//8
f 11//11 7//7 5//5
f 11//11 2//2 7//7
f 11//11 9//9 2//2
f 12//12 7//7 1//1
f 12//12 1//1 5//5
f 12//12 5//5 7//7
f 13//13 6//6 4//4
f 13//13 4//4 8//8
f 13//13 8//8 1//1
f 13//13 1//1 6//6
f 14//14 10//10 3//3
f 14//14 3//3 9//9
f 15//15 11//11 5//5
f 15//15 5//5 10//10
f 16//16 14//14 9//9
f 16//16 15//15 10//10
f 16//16 10//10 14//14
f 17//17 9//9 11//11
f 17//17 11//11 15//15
f 17//17 16//16 9//9
f 17//17 15//15 16//16

