# https://github.com/mikedh/trimesh
v 0.01175519 0.00444792 0.01969463
v 0.01960524 -0.00917537 0.01331928
v 0.02020192 0.01365983 -0.01241355
v 0.00659760 0.00781999 -0.01844315
v 0.00688212 -0.02147085 0.01452868
v 0.00334243 0.01461851 0.01695000
v 0.01963408 0.01314785 0.01444053
v 0.01563016 -0.02135626 0.01425425
v 0.00656759 0.01272276 -0.01660477
v 0.00701828 -0.00365614 0.01975014
v 0.00682302 -0.00876585 -0.01708170
v 0.01578013 -0.00354835 0.01812044
v 0.01158747 0.01079961 0.01787207
v 0.01975003 -0.00986636 -0.01380950
v 0.00996570 0.01250617 -0.01613331
v 0.00255600 0.00964879 0.01813461
v 0.01022599 -0.00487850 0.01970529
v 0.01633257 0.00791405 0.01801992
v 0.01885101 -0.00168359 0.01469944
v 0.01496211 0.01252233 0.01619232
v 0.00684766 0.00459598 0.01997154
v 0.01510914 -0.00886422 -0.01653832
v 0.01493328 0.01295455 -0.01449121
v 0.00684069 -0.00505166 -0.01823240
v 0.00694914 -0.01034491 0.01789750
v 0.01305384 -0.00340466 0.01978030
v 0.00357287 0.00797017 0.01875487
v 0.01329613 0.00408696 -0.01801735
v 0.01015595 -0.00522384 -0.01807236
v 0.01195839 -0.00481226 0.01962324
v 0.01319414 0.00311377 0.01956837
v 0.00370385 0.01125423 0.01790277
v 0.00338436 0.01328063 0.01731851
v 0.01583021 0.00611878 -0.01652403
v 0.01598529 -0.00722455 -0.01638832
v 0.00982420 0.00753565 -0.01785596
v 0.01348003 -0.00343552 -0.01791838
v 0.01846194 0.01329501 -0.01320196
vn 0.11590034 0.15336553 0.98134914
vn 0.91869438 -0.15741646 0.36224398
vn 0.66684137 0.63860149 -0.38407124
vn -0.57608445 0.15418742 -0.80271598
vn -0.52341146 -0.77218505 0.36023700
vn -0.53865799 0.70986858 0.45379970
vn 0.68905596 0.60535486 0.39843115
vn 0.47142883 -0.79678640 0.37800303
vn -0.52970686 0.63993470 -0.55668144
vn -0.39165003 -0.15056269 0.90771203
vn -0.57608102 -0.54589517 -0.60838237
vn 0.62515329 -0.08848863 0.77546961
vn 0.12682111 0.39337912 0.91058732
vn 0.69910915 -0.52341175 -0.48712065
vn 0.18921151 0.55364472 -0.81097258
vn -0.81142542 0.12774524 0.57032442
vn -0.00513396 -0.18852481 0.98205501
vn 0.47635528 0.17059894 0.86254371
vn 0.77336862 -0.03385968 0.63305173
vn 0.20609475 0.55703329 0.80451157
vn -0.13119055 0.09668017 0.98663164
vn 0.20999585 -0.59102167 -0.77884218
vn 0.21954756 0.57433728 -0.78862891
vn -0.62037887 -0.12425336 -0.77439728
vn -0.45070964 -0.25306280 0.85604909
vn 0.27799344 -0.09404774 0.95596792
vn -0.40861351 0.05858052 0.91082563
vn 0.28658758 0.09309773 -0.95351999
vn 0.06888226 -0.16986565 -0.98305691
vn 0.10749611 -0.23273001 0.96658229
vn 0.26706097 0.05598012 0.96205232
vn -0.10613902 0.25885409 0.96006722
vn -0.14188330 0.25843388 0.95555275
vn 0.47800076 0.15289722 -0.86494955
vn 0.48115775 -0.08103933 -0.87288020
vn 0.22076526 0.28461549 -0.93287551
vn 0.28586922 -0.05692830 -0.95657617
vn 0.28350178 0.44648322 -0.84869280
f 7//7 2//2 3//3
f 7//7 3//3 6//6
f 9//9 6//6 3//3
f 11//11 8//8 5//5
f 12//12 8//8 2//2
f 14//14 3//3 2//2
f 14//14 2//2 8//8
f 15//15 4//4 9//9
f 16//16 9//9 4//4
f 16//16 6//6 9//9
f 16//16 11//11 5//5
f 17//17 5//5 8//8
f 18//18 13//13 1//1
f 19//19 12//12 2//2
f 19//19 2//2 7//7
f 19//19 18//18 12//12
f 19//19 7//7 18//18
f 20//20 7//7 6//6
f 20//20 6//6 13//13
f 20//20 18//18 7//7
f 20//20 13//13 18//18
f 21//21 13//13 6//6
f 21//21 1//1 13//13
f 22//22 14//14 8//8
f 22//22 8//8 11//11
f 23//23 15//15 9//9
f 23//23 9//9 3//3
f 24//24 16//16 4//4
f 24//24 11//11 16//16
f 25//25 16//16 5//5
f 25//25 10//10 16//16
f 25//25 17//17 10//10
f 25//25 5//5 17//17
f 26//26 8//8 12//12
f 26//26 1//1 21//21
f 26//26 21//21 10//10
f 26//26 10//10 17//17
f 26//26 12//12 18//18
f 27//27 16//16 10//10
f 27//27 10//10 21//21
f 28//28 15//15 23//23
f 29//29 22//22 11//11
f 29//29 11//11 24//24
f 29//29 24//24 4//4
f 30//30 26//26 17//17
f 30//30 17//17 8//8
f 30//30 8//8 26//26
f 31//31 26//26 18//18
f 31//31 18//18 1//1
f 31//31 1//1 26//26
f 32//32 27//27 21//21
f 32//32 21//21 6//6
f 33//33 6//6 16//16
f 33//33 16//16 27//27
f 33//33 32//32 6//6
f 33//33 27//27 32//32
f 34//34 3//3 14//14
f 34//34 28//28 23//23
f 35//35 14//14 22//22
f 35//35 34//34 14//14
f 36//36 28//28 4//4
f 36//36 4//4 15//15
f 36//36 15//15 28//28
f 37//37 22//22 29//29
f 37//37 35//35 22//22
f 37//37 28//28 34//34
f 37//37 34//34 35//35
f 37//37 29//29 4//4
f 37//37 4//4 28//28
f 38//38 34//34 23//23
f 38//38 23//23 3//3
f 38//38 3//3 34//34

