# https://github.com/mikedh/trimesh
v 0.10768595 0.00429792 0.01207345
v 0.11066171 0.00155000 0.00916844
v 0.10233282 0.01658693 -0.00806103
v 0.06873608 0.02820285 -0.01438184
v 0.08412516 -0.01875767 -0.01067390
v 0.06808971 0.03005921 0.00792094
v 0.10925144 0.01129246 0.00427770
v 0.09096820 -0.01691434 0.00827634
v 0.10558490 -0.00116057 -0.01447635
v 0.06807785 0.03095643 -0.01262589
v 0.06970607 0.00979788 -0.00249330
v 0.11062459 0.00669151 0.00791544
v 0.10641065 0.00824982 0.01060692
v 0.09938969 0.01831221 0.00118664
v 0.10634204 -0.00170457 0.01202406
v 0.10064417 -0.01091280 -0.00485476
v 0.10868376 0.00912611 -0.00966409
v 0.08124038 -0.01464684 -0.01384162
v 0.09611523 0.01674537 -0.01359766
v 0.06907517 0.01605646 0.01089149
v 0.06916706 0.01891725 -0.01544669
v 0.10904993 0.00590450 0.01058460
v 0.10115312 0.01678707 0.00398663
v 0.10545602 0.00693514 0.01197487
v 0.10786274 0.01292188 0.00137908
v 0.06809792 0.03153642 -0.00002411
v 0.09627529 0.01978659 -0.00951796
v 0.10588505 -0.00752893 0.00465306
v 0.10916471 0.00049714 0.01057493
v 0.09358641 -0.01626573 -0.00122105
v 0.10045426 -0.00934191 -0.01115236
v 0.11052231 0.00909481 0.00028422
v 0.11060673 0.00002551 -0.00105090
v 0.09965367 -0.00663767 -0.01374773
v 0.06917565 0.01450194 0.00940548
v 0.08221146 0.02377313 -0.01375538
v 0.10560368 0.01303742 -0.01091987
v 0.08836840 -0.00948170 0.01263960
v 0.06904155 0.02184667 -0.01565016
v 0.06959796 0.01469331 -0.01368545
v 0.11053591 0.00429567 0.00915347
v 0.10908338 0.00842614 0.00871573
v 0.09754659 0.01653279 0.00688781
v 0.06837517 0.02834866 0.00916091
v 0.10256496 0.01650767 0.00122505
v 0.08348476 0.02523371 -0.00013103
v 0.09917813 0.01840405 -0.00971235
v 0.08347696 0.02512669 -0.00994404
v 0.10245294 -0.00918541 0.00781089
v 0.10757971 0.00291347 0.01208783
v 0.10874115 -0.00254677 0.00789408
v 0.09390303 -0.01599067 0.00494890
v 0.10697897 -0.00440251 -0.00477127
v 0.09069921 -0.01655736 -0.00789976
v 0.11058108 0.00932087 0.00293841
v 0.10879721 0.00477608 -0.00989254
v 0.11054730 0.00737240 -0.00289773
v 0.09896006 -0.00202327 -0.01542245
v 0.09954885 -0.00912380 -0.01216190
v 0.08187798 -0.00672314 0.00943535
v 0.07338219 0.02772978 -0.01357758
v 0.10463485 0.00739626 -0.01559197
v 0.10859119 0.01206263 -0.00466030
v 0.09269335 -0.01191790 0.01196773
vn 0.39389316 0.11245932 0.91225056
vn 0.91262106 -0.18151616 0.36629862
vn 0.57116603 0.81023336 -0.13149622
vn -0.43269726 0.31671830 -0.84407499
vn -0.28182994 -0.90576848 -0.31647330
vn -0.52369264 0.72582114 0.44601534
vn 0.70565916 0.66024249 0.25714782
vn -0.06353569 -0.87883446 0.47287758
vn 0.61951653 -0.31293305 -0.71991123
vn -0.52500584 0.74822693 -0.40561721
vn -0.95095449 -0.30906387 0.01284869
vn 0.92414154 0.25432967 0.28509442
vn 0.38464283 0.59125318 0.70885088
vn 0.43509691 0.89349250 0.11118377
vn 0.41298913 -0.34049301 0.84469195
vn 0.62046565 -0.76994096 -0.14904123
vn 0.87401152 0.26803049 -0.40529436
vn -0.53222545 -0.54679851 -0.64633386
vn 0.31692138 0.55447842 -0.76948978
vn -0.69522742 -0.06758212 0.71560568
vn -0.71910924 -0.12627757 -0.68332706
vn 0.63709482 0.30770093 0.70670385
vn 0.45419987 0.81059839 0.36963865
vn 0.20593251 0.32278278 0.92379818
vn 0.64336978 0.76289867 0.06372553
vn -0.52866413 0.84654070 0.06231433
vn 0.40081378 0.89707649 -0.18601636
vn 0.72071051 -0.68417379 0.11172547
vn 0.69659687 -0.29375211 0.65457047
vn 0.43861726 -0.89687648 -0.05681085
vn 0.58963389 -0.70199045 -0.39942620
vn 0.95908367 0.27540073 -0.06567300
vn 0.94915027 -0.29442546 -0.11147832
vn 0.25468490 -0.43077509 -0.86577620
vn -0.92878122 -0.31223940 0.19967977
vn 0.27407421 0.58722557 -0.76160978
vn 0.62846421 0.60383567 -0.49032156
vn -0.26256182 -0.31401184 0.91239128
vn -0.60505714 0.04331122 -0.79500315
vn -0.92262773 -0.25574148 -0.28871156
vn 0.88601351 0.08956963 0.45492565
vn 0.60405467 0.57812251 0.54853652
vn 0.35896195 0.70928603 0.60667919
vn -0.50720787 0.34237916 0.79089613
vn 0.52935270 0.84368548 0.08933382
vn 0.38365575 0.91955106 0.08505356
vn 0.46817076 0.82214507 -0.32387284
vn 0.38164444 0.91551817 -0.12717705
vn 0.55314216 -0.70619620 0.44195099
vn 0.36110193 -0.04181131 0.93158854
vn 0.79096675 -0.54413596 0.27979932
vn 0.48045605 -0.87059893 0.10592212
vn 0.78516231 -0.58278751 -0.20947285
vn 0.43773190 -0.86105146 -0.25880720
vn 0.94997419 0.30930033 0.04338601
vn 0.91260741 -0.05890865 -0.40457075
vn 0.98179793 0.12024771 -0.14701464
vn 0.08076691 -0.16662865 -0.98270626
vn 0.39041902 -0.61890780 -0.68156153
vn -0.69948278 -0.49853875 0.51203804
vn 0.24239213 0.58329787 -0.77524812
vn 0.45818327 0.16651394 -0.87312153
vn 0.79461675 0.59152864 -0.13666784
vn 0.15669447 -0.46886349 0.86926053
f 21//21 11//11 10//10
f 23//23 14//14 6//6
f 24//24 22//22 13//13
f 24//24 1//1 22//22
f 26//26 10//10 6//6
f 29//29 2//2 1//1
f 30//30 8//8 5//5
f 30//30 16//16 28//28
f 34//34 5//5 18//18
f 35//35 18//18 5//5
f 35//35 11//11 18//18
f 35//35 10//10 11//11
f 35//35 20//20 6//6
f 35//35 6//6 10//10
f 38//38 24//24 20//20
f 38//38 1//1 24//24
f 39//39 21//21 10//10
f 39//39 10//10 4//4
f 39//39 18//18 21//21
f 40//40 21//21 18//18
f 40//40 18//18 11//11
f 40//40 11//11 21//21
f 41//41 2//2 12//12
f 41//41 12//12 22//22
f 41//41 22//22 1//1
f 41//41 1//1 2//2
f 42//42 22//22 12//12
f 42//42 12//12 7//7
f 42//42 13//13 22//22
f 42//42 7//7 23//23
f 43//43 23//23 6//6
f 43//43 6//6 13//13
f 43//43 42//42 23//23
f 43//43 13//13 42//42
f 44//44 24//24 13//13
f 44//44 13//13 6//6
f 44//44 6//6 20//20
f 44//44 20//20 24//24
f 45//45 25//25 3//3
f 45//45 14//14 23//23
f 45//45 23//23 7//7
f 45//45 7//7 25//25
f 46//46 26//26 6//6
f 46//46 6//6 14//14
f 46//46 14//14 27//27
f 47//47 27//27 14//14
f 47//47 3//3 37//37
f 47//47 37//37 19//19
f 47//47 19//19 36//36
f 47//47 36//36 10//10
f 47//47 10//10 27//27
f 47//47 45//45 3//3
f 47//47 14//14 45//45
f 48//48 27//27 10//10
f 48//48 10//10 26//26
f 48//48 46//46 27//27
f 48//48 26//26 46//46
f 50//50 29//29 1//1
f 50//50 15//15 29//29
f 50//50 38//38 15//15
f 50//50 1//1 38//38
f 51//51 2//2 29//29
f 51//51 33//33 2//2
f 51//51 28//28 33//33
f 51//51 29//29 15//15
f 51//51 49//49 28//28
f 51//51 15//15 49//49
f 52//52 30//30 28//28
f 52//52 8//8 30//30
f 52//52 49//49 8//8
f 52//52 28//28 49//49
f 53//53 28//28 16//16
f 53//53 16//16 31//31
f 53//53 33//33 28//28
f 53//53 31//31 9//9
f 53//53 9//9 33//33
f 54//54 30//30 5//5
f 54//54 5//5 31//31
f 54//54 31//31 16//16
f 54//54 16//16 30//30
f 55//55 7//7 12//12
f 55//55 12//12 2//2
f 55//55 2//2 33//33
f 56//56 33//33 9//9
f 57//57 55//55 33//33
f 57//57 32//32 55//55
f 57//57 56//56 17//17
f 57//57 33//33 56//56
f 58//58 34//34 18//18
f 58//58 9//9 34//34
f 58//58 18//18 39//39
f 59//59 31//31 5//5
f 59//59 5//5 34//34
f 59//59 34//34 9//9
f 59//59 9//9 31//31
f 60//60 35//35 5//5
f 60//60 5//5 8//8
f 60//60 8//8 38//38
f 60//60 38//38 20//20
f 60//60 20//20 35//35
f 61//61 36//36 4//4
f 61//61 4//4 10//10
f 61//61 10//10 36//36
f 62//62 37//37 17//17
f 62//62 19//19 37//37
f 62//62 9//9 58//58
f 62//62 58//58 39//39
f 62//62 36//36 19//19
f 62//62 39//39 4//4
f 62//62 4//4 36//36
f 62//62 56//56 9//9
f 62//62 17//17 56//56
f 63//63 37//37 3//3
f 63//63 3//3 25//25
f 63//63 17//17 37//37
f 63//63 57//57 17//17
f 63//63 32//32 57//57
f 63//63 55//55 32//32
f 63//63 25//25 7//7
f 63//63 7//7 55//55
f 64//64 38//38 8//8
f 64//64 15//15 38//38
f 64//64 49//49 15//15
f 64//64 8//8 49//49

