# https://github.com/mikedh/trimesh
v 0.01727139 0.00962311 0.02226109
v 0.02140964 -0.01128901 0.01622659
v 0.02300309 0.03027205 -0.01652142
v -0.02071788 0.03405250 -0.01661741
v -0.02489781 0.02590597 0.01996610
v 0.00557052 -0.01069238 -0.02187124
v 0.02297217 0.03044820 0.01615031
v 0.00493000 -0.01329127 0.02157481
v 0.02150351 -0.01185348 -0.01764617
v -0.00271825 0.01254420 -0.02305678
v -0.03462097 0.02778756 -0.00268937
v 0.02052743 -0.00199403 0.01824811
v 0.00556016 0.04314722 0.01585046
v 0.01566625 -0.00409726 0.02308450
v 0.01370734 0.00561380 -0.02284892
v -0.01919411 0.01873448 -0.01699768
v 0.00591446 0.04695406 -0.01488156
v -0.03462233 0.02765797 0.00252341
v -0.00708062 -0.00030382 -0.01621437
v 0.02163015 0.01689483 0.01756760
v 0.01134621 0.01355215 0.02194911
v 0.01557997 -0.01067635 0.02047900
v -0.00053979 0.01001000 0.02259248
v 0.01666872 -0.00412134 0.02239803
v 0.01610821 -0.01070137 -0.02111709
v 0.01699487 0.00775621 -0.02097723
v 0.00554958 -0.00609241 -0.02328900
v -0.01090872 0.01565224 -0.02092723
v -0.03244931 0.04758978 -0.00903994
v 0.00510306 0.01205644 -0.02291862
v 0.00625362 0.05439688 0.00449479
v -0.00555483 -0.00028426 -0.01982522
v -0.02496677 0.03602473 0.01809800
v 0.00153163 0.01426871 0.02192874
v 0.01737384 -0.01046933 0.01967478
v 0.01978542 -0.01131050 -0.01896504
v 0.01154357 -0.00630848 -0.02293616
v -0.01767709 0.02347086 -0.01848582
v -0.01131548 0.01874758 -0.02071161
v -0.00160445 0.00006370 -0.02302327
v -0.02041287 0.04010659 -0.01462232
v 0.00603198 0.05255778 0.01009640
v 0.00608730 0.05411507 -0.00713104
v -0.03184449 0.04941981 0.00394011
v 0.01372620 -0.00411830 -0.02287035
v -0.01718370 0.01971629 -0.01837102
v 0.00577897 0.04866227 0.01369641
v 0.00595442 0.05210483 -0.01131922
v 0.01705006 -0.00866980 -0.02078013
v -0.02512386 0.03978062 0.01647802
v 0.00627496 0.05048473 -0.01264632
v -0.00039348 0.04959557 0.01200378
v -0.00029083 0.04845375 0.01303750
v -0.02535109 0.04551933 0.01023600
vn 0.40876475 0.06670532 0.91019876
vn 0.72591052 -0.61469127 0.30855885
vn 0.76661923 0.29763385 -0.56895435
vn -0.31759633 0.15271018 -0.93584837
vn -0.56527588 -0.13310003 0.81409309
vn -0.28828356 -0.76276634 -0.57886103
vn 0.77633454 0.30918095 0.54928300
vn -0.27285787 -0.75972593 0.59022461
vn 0.66749579 -0.64080411 -0.37923538
vn -0.10086016 0.09031211 -0.99079309
vn -0.91756425 -0.29607384 -0.26536037
vn 0.79814842 -0.03857638 0.60122455
vn 0.09975122 0.30625161 0.94670991
vn 0.27460508 -0.13405695 0.95216636
vn 0.26230576 0.05292075 -0.96353260
vn -0.65640745 -0.26826434 -0.70509823
vn 0.10739614 0.42077100 -0.90078734
vn -0.93763374 -0.28415783 0.20024311
vn -0.71577634 -0.67654173 -0.17307659
vn 0.79971673 -0.01802976 0.60010672
vn 0.04711135 0.17182932 0.98399960
vn 0.29736650 -0.60330927 0.73999398
vn -0.06563530 0.03106743 0.99735993
vn 0.63282318 -0.12866525 0.76353132
vn 0.24337860 -0.58309440 -0.77509211
vn 0.53012716 0.01917680 -0.84770127
vn -0.08192234 -0.17572407 -0.98102486
vn -0.35233656 -0.05834608 -0.93405283
vn -0.67602479 0.54041380 -0.50094252
vn 0.06548475 0.13389202 -0.98882995
vn 0.37401935 0.91920609 0.12316531
vn -0.66603426 -0.50977725 -0.54454157
vn -0.47012759 0.22624198 0.85310880
vn 0.00659004 0.16773304 0.98581043
vn 0.46510002 -0.50762727 0.72525618
vn 0.45483073 -0.40391248 -0.79371514
vn 0.09756751 -0.17626534 -0.97949533
vn -0.43922454 0.00205898 -0.89837496
vn -0.22592662 0.09686505 -0.96931642
vn -0.33872797 -0.21613942 -0.91572218
vn -0.15263519 0.36715199 -0.91755213
vn 0.29313368 0.81957354 0.49231277
vn 0.35462341 0.91231209 -0.20476544
vn -0.66772840 0.68934176 0.28097460
vn 0.29102528 -0.04210259 -0.95578850
vn -0.47686240 -0.12160062 -0.87052601
vn 0.18731608 0.55573036 0.80998546
vn 0.26867765 0.77770702 -0.56831691
vn 0.50715304 -0.04347682 -0.86075871
vn -0.42124391 0.45551856 0.78425532
vn 0.23823747 0.60252360 -0.76171400
vn -0.13768473 0.71147631 0.68908952
vn -0.11167393 0.64053524 0.75976545
vn -0.18578438 0.73033008 0.65734476
f 9//9 8//8 6//6
f 9//9 2//2 8//8
f 9//9 7//7 2//2
f 9//9 3//3 7//7
f 13//13 1//1 7//7
f 17//17 10//10 4//4
f 18//18 8//8 5//5
f 19//19 6//6 8//8
f 19//19 18//18 11//11
f 19//19 8//8 18//18
f 20//20 7//7 1//1
f 20//20 1//1 12//12
f 20//20 12//12 2//2
f 20//20 2//2 7//7
f 21//21 1//1 13//13
f 22//22 14//14 8//8
f 22//22 8//8 2//2
f 23//23 5//5 8//8
f 23//23 8//8 14//14
f 23//23 14//14 1//1
f 23//23 1//1 21//21
f 24//24 12//12 1//1
f 24//24 1//1 14//14
f 24//24 2//2 12//12
f 25//25 9//9 6//6
f 26//26 15//15 3//3
f 29//29 16//16 11//11
f 29//29 11//11 18//18
f 30//30 10//10 17//17
f 30//30 27//27 10//10
f 30//30 15//15 27//27
f 30//30 17//17 3//3
f 30//30 3//3 15//15
f 31//31 7//7 3//3
f 32//32 6//6 19//19
f 32//32 19//19 11//11
f 32//32 11//11 16//16
f 33//33 21//21 13//13
f 34//34 23//23 21//21
f 34//34 5//5 23//23
f 34//34 33//33 5//5
f 34//34 21//21 33//33
f 35//35 22//22 2//2
f 35//35 2//2 24//24
f 35//35 24//24 14//14
f 35//35 14//14 22//22
f 36//36 26//26 3//3
f 36//36 3//3 9//9
f 36//36 9//9 25//25
f 37//37 25//25 6//6
f 37//37 6//6 27//27
f 38//38 29//29 4//4
f 38//38 16//16 29//29
f 39//39 4//4 10//10
f 39//39 10//10 28//28
f 39//39 38//38 4//4
f 39//39 28//28 38//38
f 40//40 28//28 10//10
f 40//40 10//10 27//27
f 40//40 27//27 6//6
f 40//40 6//6 32//32
f 40//40 32//32 16//16
f 41//41 29//29 17//17
f 41//41 17//17 4//4
f 41//41 4//4 29//29
f 42//42 7//7 31//31
f 43//43 31//31 3//3
f 44//44 29//29 18//18
f 44//44 18//18 5//5
f 44//44 5//5 33//33
f 44//44 42//42 31//31
f 44//44 43//43 29//29
f 44//44 31//31 43//43
f 45//45 15//15 26//26
f 45//45 25//25 37//37
f 45//45 37//37 27//27
f 45//45 27//27 15//15
f 46//46 38//38 28//28
f 46//46 16//16 38//38
f 46//46 40//40 16//16
f 46//46 28//28 40//40
f 47//47 13//13 7//7
f 47//47 7//7 42//42
f 47//47 33//33 13//13
f 48//48 43//43 3//3
f 48//48 29//29 43//43
f 49//49 36//36 25//25
f 49//49 25//25 45//45
f 49//49 45//45 26//26
f 49//49 26//26 36//36
f 50//50 44//44 33//33
f 50//50 33//33 47//47
f 51//51 48//48 3//3
f 51//51 3//3 17//17
f 51//51 17//17 29//29
f 51//51 29//29 48//48
f 52//52 47//47 42//42
f 52//52 42//42 44//44
f 53//53 52//52 50//50
f 53//53 50//50 47//47
f 53//53 47//47 52//52
f 54//54 52//52 44//44
f 54//54 44//44 50//50
f 54//54 50//50 52//52

