# https://github.com/mikedh/trimesh
v 0.01638419 -0.01110943 0.01998308
v 0.03612499 -0.02590185 0.01196804
v 0.02362579 -0.01263448 -0.00851024
v 0.03143497 -0.02679593 -0.01802969
v 0.00549606 -0.02640330 0.01772296
v 0.03644971 -0.02297733 -0.01372398
v 0.02273589 -0.01182078 0.01440934
v 0.02295429 -0.02650468 0.01677786
v 0.00558475 -0.01115901 -0.00814224
v 0.03599534 -0.02703255 -0.01726786
v 0.01921197 -0.01092574 0.01812378
v 0.03538187 -0.02196463 0.00825599
v 0.00493000 -0.01329127 0.02157481
v 0.03080161 -0.02291457 -0.01682426
v 0.00558475 -0.02640711 -0.00814224
v 0.01643096 -0.02636266 0.01735247
v 0.03208262 -0.02128683 -0.01445859
v 0.03532307 -0.02596327 -0.01694174
vn 0.13149133 0.65515711 0.74396182
vn 0.76013776 -0.41500471 0.49996168
vn 0.29342425 0.88227709 -0.36808878
vn -0.04384163 -0.51939073 -0.85341149
vn -0.57441725 -0.65219929 0.49465231
vn 0.83530019 0.45781948 -0.30442554
vn 0.52527082 0.82336894 0.21483517
vn 0.19044897 -0.71216784 0.67568200
vn -0.60871225 0.62773817 -0.48519500
vn 0.61423684 -0.46504693 -0.63752996
vn 0.36845728 0.80353216 0.46752037
vn 0.82395499 0.54250425 0.16366832
vn -0.58752130 0.40700532 0.69940360
vn 0.09947121 0.49877960 -0.86100197
vn -0.66095768 -0.59379599 -0.45884775
vn 0.04738564 -0.63339641 0.77237529
vn 0.34506511 0.71306679 -0.61029978
vn 0.38723223 0.51061195 -0.76767613
f 8//8 2//2 1//1
f 10//10 6//6 2//2
f 10//10 2//2 8//8
f 10//10 8//8 5//5
f 11//11 1//1 2//2
f 11//11 2//2 7//7
f 11//11 7//7 3//3
f 11//11 9//9 1//1
f 11//11 3//3 9//9
f 12//12 6//6 3//3
f 12//12 3//3 7//7
f 12//12 7//7 2//2
f 12//12 2//2 6//6
f 13//13 8//8 1//1
f 13//13 1//1 9//9
f 14//14 9//9 3//3
f 14//14 4//4 9//9
f 14//14 10//10 4//4
f 15//15 9//9 4//4
f 15//15 13//13 9//9
f 15//15 5//5 13//13
f 15//15 10//10 5//5
f 15//15 4//4 10//10
f 16//16 13//13 5//5
f 16//16 5//5 8//8
f 16//16 8//8 13//13
f 17//17 14//14 3//3
f 17//17 3//3 6//6
f 17//17 6//6 14//14
f 18//18 14//14 6//6
f 18//18 6//6 10//10
f 18//18 10//10 14//14

