# https://github.com/mikedh/trimesh
v 0.00562960 -0.00457981 0.02415974
v 0.04487365 -0.04492279 0.01402333
v 0.04405230 -0.02709486 0.01387031
v -0.00022397 -0.00021509 -0.02375225
v -0.02021405 -0.04773751 0.00845033
v 0.03599534 -0.02703255 -0.01726786
v 0.00558475 -0.00026751 0.01581907
v 0.04507106 -0.02871682 0.01493611
v -0.02065878 -0.03650246 0.01790564
v 0.02251434 -0.01010182 -0.01411753
v -0.02049315 -0.04099568 -0.01681104
v 0.04022134 -0.04137529 0.01560824
v 0.04473657 -0.04774107 0.01114135
v 0.01466156 -0.05059929 0.01329181
v -0.00526492 0.00018208 0.01551428
v 0.00568846 -0.00019296 -0.02423561
v -0.02061556 -0.04574210 0.01191549
v 0.03105748 -0.04734554 0.01533441
v 0.03587398 -0.04874383 -0.01468008
v -0.00173867 -0.00018072 0.02235881
v -0.01913418 -0.01362591 -0.01130284
v 0.02270679 -0.01240290 -0.01691808
v -0.00304309 0.00009209 0.02083727
v -0.00370806 -0.00009467 -0.02145833
v -0.01616265 -0.02847898 -0.01892864
v -0.02029204 -0.04798141 -0.00974219
v 0.00593998 -0.04663557 0.01554276
v -0.00037689 -0.05230679 0.00947512
v 0.03795931 -0.04302329 0.01552997
v 0.02665658 -0.05244723 0.01184654
v 0.03584376 -0.04485554 -0.01684519
v -0.00027509 -0.00008648 0.02313474
v -0.02035838 -0.02625107 -0.01885860
v -0.01999757 -0.02333264 0.01763672
v -0.00708062 -0.00030382 -0.01621437
v 0.01006173 -0.05041575 -0.01462487
v -0.02037371 -0.04424663 0.01370828
v 0.02902927 -0.05029538 0.01363787
v -0.00864111 -0.04977901 0.01031605
v -0.00280599 -0.05006778 0.01160038
v -0.00474086 -0.05201601 0.00666534
v 0.02136671 -0.05217815 0.01181222
v 0.03557913 -0.05222902 -0.00747674
v 0.03375619 -0.03921230 -0.01890712
v -0.01908608 -0.01776719 -0.01688427
v -0.02014246 -0.02456321 -0.01883992
v -0.01967901 -0.02030380 0.01416476
v -0.01922972 -0.01363096 -0.00763004
v -0.02037739 -0.04446357 -0.01479857
v 0.02272789 -0.04702757 -0.01641190
v 0.04460580 -0.04672150 0.01259056
v 0.00808480 -0.05445914 -0.00553432
v 0.03548962 -0.05011683 -0.01289442
v 0.02733316 -0.05448333 0.00679128
v 0.03371473 -0.03520265 -0.01885527
v 0.02100296 -0.03896180 -0.01874271
v -0.00555483 -0.00028426 -0.01982522
v -0.01903984 -0.01556817 -0.01470108
v -0.00714983 -0.00031567 -0.00214329
v 0.00141000 -0.05221065 -0.01124051
v -0.00447312 -0.04468418 -0.01651313
v 0.01860556 -0.05062258 -0.01437624
v 0.00586303 -0.05450080 -0.00354508
v 0.03529916 -0.05221928 0.00818270
vn 0.26629886 0.37388243 0.88842380
vn 0.73057843 -0.27831351 0.62353569
vn 0.74997341 0.65024272 0.12134365
vn -0.16958079 0.62525783 -0.76177096
vn -0.67390917 -0.71732876 0.17687816
vn 0.73997986 0.28625367 -0.60867778
vn 0.35866749 0.92061695 0.15434400
vn 0.83787433 0.23474297 0.49281066
vn -0.69485730 -0.17976720 0.69631680
vn 0.63505356 0.74525348 -0.20323443
vn -0.69276032 -0.22959468 -0.68364422
vn 0.18236464 -0.12985117 0.97461880
vn 0.80266701 -0.57965950 0.14042978
vn -0.04054955 -0.67010381 0.74115897
vn -0.46404130 0.87378922 0.14545813
vn 0.21024974 0.66277840 -0.71869315
vn -0.75397219 -0.53606532 0.37968397
vn 0.09146681 -0.38822288 0.91701517
vn 0.55709031 -0.54484153 -0.62673606
vn -0.45329135 0.59052128 0.66769123
vn -0.89635760 0.42614471 -0.12224458
vn 0.64363276 0.60120704 -0.47358946
vn -0.42981555 0.83455359 0.34464314
vn -0.36193812 0.79217476 -0.49138573
vn -0.06611322 -0.13975279 -0.98797682
vn -0.71348063 -0.66613778 -0.21726907
vn -0.04794812 -0.44410324 0.89469173
vn -0.12127244 -0.90597744 0.40558336
vn 0.10790957 -0.20788258 0.97218329
vn 0.06307909 -0.81836028 0.57123329
vn 0.59693759 -0.27496760 -0.75369645
vn -0.02726374 0.69208476 0.72130117
vn -0.74205690 -0.02503291 -0.66986932
vn -0.80107331 0.16641604 0.57496718
vn -0.49840219 0.85766204 -0.12653494
vn -0.03020548 -0.66524494 -0.74601394
vn -0.58507163 -0.48787882 0.64781590
vn 0.10621715 -0.63760310 0.76300734
vn -0.20068055 -0.82436273 0.52929520
vn -0.13172210 -0.70131002 0.70058086
vn -0.21808866 -0.96820295 0.12255770
vn -0.04654842 -0.82591486 0.56186999
vn 0.42949903 -0.87370417 -0.22841105
vn 0.32918441 -0.13757556 -0.93418980
vn -0.81332973 0.31243691 -0.49079317
vn -0.77698686 0.13939920 -0.61388865
vn -0.91325579 0.36764074 0.17551112
vn -0.91283389 0.40760450 0.02434880
vn -0.70055954 -0.47719440 -0.53056748
vn 0.01129625 -0.40890471 -0.91250717
vn 0.53083362 -0.61932971 0.57848629
vn -0.01780196 -0.97929247 -0.20166644
vn 0.43877715 -0.79755211 -0.41398702
vn 0.10440434 -0.98164102 0.15962659
vn 0.37271065 0.02921796 -0.92748751
vn -0.02245963 -0.21295476 -0.97680389
vn -0.50678547 0.77259141 -0.38245391
vn -0.87806037 0.37481314 -0.29753167
vn -0.53086646 0.84723529 0.01931732
vn -0.13711171 -0.87909848 -0.45649342
vn -0.06437666 -0.38295841 -0.92151967
vn 0.03364605 -0.76584798 -0.64214080
vn -0.12126571 -0.99217999 -0.02955482
vn 0.30612207 -0.92091787 0.24124583
f 7//7 1//1 3//3
f 8//8 3//3 1//1
f 8//8 6//6 3//3
f 10//10 3//3 6//6
f 10//10 7//7 3//3
f 12//12 8//8 1//1
f 12//12 2//2 8//8
f 13//13 8//8 2//2
f 13//13 6//6 8//8
f 16//16 7//7 10//10
f 17//17 9//9 11//11
f 18//18 1//1 9//9
f 22//22 16//16 10//10
f 22//22 10//10 6//6
f 22//22 6//6 16//16
f 23//23 16//16 15//15
f 23//23 7//7 16//16
f 24//24 16//16 4//4
f 24//24 15//15 16//16
f 25//25 16//16 11//11
f 25//25 4//4 16//16
f 26//26 5//5 17//17
f 27//27 18//18 9//9
f 29//29 12//12 1//1
f 29//29 1//1 18//18
f 29//29 18//18 2//2
f 29//29 2//2 12//12
f 31//31 6//6 13//13
f 31//31 13//13 19//19
f 32//32 9//9 1//1
f 32//32 1//1 7//7
f 32//32 23//23 20//20
f 32//32 7//7 23//23
f 33//33 11//11 9//9
f 33//33 25//25 11//11
f 33//33 4//4 25//25
f 34//34 20//20 23//23
f 34//34 32//32 20//20
f 34//34 9//9 32//32
f 34//34 33//33 9//9
f 35//35 15//15 24//24
f 37//37 27//27 9//9
f 37//37 9//9 17//17
f 38//38 27//27 14//14
f 38//38 18//18 27//27
f 38//38 14//14 30//30
f 38//38 2//2 18//18
f 39//39 17//17 5//5
f 39//39 5//5 28//28
f 40//40 28//28 14//14
f 40//40 14//14 27//27
f 40//40 27//27 37//37
f 40//40 39//39 28//28
f 40//40 37//37 17//17
f 40//40 17//17 39//39
f 41//41 28//28 5//5
f 41//41 5//5 26//26
f 42//42 30//30 14//14
f 42//42 14//14 28//28
f 42//42 28//28 30//30
f 44//44 6//6 31//31
f 46//46 24//24 4//4
f 46//46 4//4 33//33
f 46//46 45//45 24//24
f 46//46 33//33 21//21
f 47//47 34//34 23//23
f 47//47 23//23 15//15
f 48//48 21//21 33//33
f 48//48 33//33 34//34
f 48//48 34//34 47//47
f 48//48 47//47 15//15
f 48//48 35//35 21//21
f 49//49 26//26 17//17
f 49//49 17//17 11//11
f 50//50 31//31 19//19
f 50//50 44//44 31//31
f 51//51 38//38 30//30
f 51//51 30//30 13//13
f 51//51 13//13 2//2
f 51//51 2//2 38//38
f 53//53 19//19 13//13
f 53//53 13//13 43//43
f 54//54 52//52 43//43
f 54//54 30//30 28//28
f 55//55 44//44 16//16
f 55//55 16//16 6//6
f 55//55 6//6 44//44
f 56//56 11//11 16//16
f 56//56 16//16 44//44
f 56//56 44//44 50//50
f 57//57 35//35 24//24
f 57//57 24//24 45//45
f 57//57 21//21 35//35
f 58//58 46//46 21//21
f 58//58 45//45 46//46
f 58//58 57//57 45//45
f 58//58 21//21 57//57
f 59//59 48//48 15//15
f 59//59 15//15 35//35
f 59//59 35//35 48//48
f 60//60 49//49 36//36
f 60//60 26//26 49//49
f 61//61 49//49 11//11
f 61//61 36//36 49//49
f 61//61 50//50 36//36
f 61//61 56//56 50//50
f 61//61 11//11 56//56
f 62//62 50//50 19//19
f 62//62 36//36 50//50
f 62//62 19//19 53//53
f 62//62 60//60 36//36
f 62//62 52//52 60//60
f 62//62 53//53 43//43
f 62//62 43//43 52//52
f 63//63 41//41 26//26
f 63//63 60//60 52//52
f 63//63 26//26 60//60
f 63//63 28//28 41//41
f 63//63 54//54 28//28
f 63//63 52//52 54//54
f 64//64 54//54 43//43
f 64//64 43//43 13//13
f 64//64 13//13 30//30
f 64//64 30//30 54//54

