# https://github.com/mikedh/trimesh
v 0.00294366 0.00148313 0.01959359
v 0.00307295 -0.04540990 0.00828503
v 0.00252044 0.00629529 -0.01839398
v -0.00873992 0.01044914 -0.01710671
v -0.02443238 -0.02376742 0.01315431
v -0.01807144 -0.03604137 -0.01349034
v 0.00333308 0.01157967 0.01636548
v -0.01781802 -0.03273323 0.01434234
v 0.00324839 -0.03966748 -0.01338813
v -0.02139920 -0.02789650 -0.01481111
v 0.00266359 0.00960990 -0.01698272
v -0.01077740 0.01041920 0.01572716
v 0.00316773 -0.03966622 0.01285482
v -0.02140424 -0.02796004 0.01495426
v -0.01792335 -0.04148762 0.00668089
v -0.00255778 -0.00334723 -0.01857333
v -0.02822194 -0.02008079 -0.00796817
v -0.00358761 0.00674193 -0.01849801
v 0.00293669 -0.00816451 -0.01861035
v -0.00051964 0.01016778 0.01694056
v -0.01082107 0.01042773 -0.01647310
v 0.00309063 -0.00508138 0.01958266
v 0.00318897 -0.04524546 -0.00921003
v -0.01788321 -0.03860995 0.01089844
v -0.00018661 0.00118685 0.01941042
v -0.02797501 -0.01999756 -0.00664168
v -0.01780577 -0.04007132 -0.01047331
v 0.00293948 0.00497883 0.01875874
v -0.00515373 -0.04503080 -0.00129190
v 0.00316838 -0.04263099 -0.01194797
v -0.00182498 -0.04490453 0.00782029
v -0.01794404 -0.03995582 0.00941226
v -0.01757890 -0.04173062 -0.00736622
v -0.00346662 -0.04505761 -0.00606089
v -0.00517296 -0.03900925 -0.01321376
v -0.01769323 -0.03885970 -0.01164708
v -0.00338666 -0.04329927 -0.01018557
v -0.00510785 -0.04488297 0.00532626
v -0.00030731 -0.04493593 -0.00903179
v -0.00347243 -0.04206934 -0.01144585
vn 0.58144003 0.09873012 0.80757654
vn 0.57351530 -0.73354821 0.36467414
vn 0.61005059 0.15552970 -0.77694839
vn -0.13336312 0.70700526 -0.69451986
vn -0.84580816 -0.02443174 0.53292743
vn -0.42311872 -0.39374229 -0.81604997
vn 0.58239647 0.68194572 0.44245269
vn -0.21423033 -0.35879151 0.90850097
vn 0.66348834 -0.23584090 -0.71004387
vn -0.53577371 -0.20793680 -0.81835739
vn 0.62133578 0.63216299 -0.46293823
vn -0.49865013 0.67591422 0.54266749
vn 0.63304490 -0.34964248 0.69065497
vn -0.51513693 -0.25403825 0.81859545
vn -0.60670619 -0.76777178 0.20599538
vn -0.08934493 -0.02259021 -0.99574453
vn -0.95937009 0.04284545 -0.27887865
vn -0.06596591 0.17531096 -0.98230065
vn 0.66705057 -0.05336119 -0.74309899
vn -0.07059677 0.41436160 0.90737013
vn -0.50439860 0.68207846 -0.52948185
vn 0.63459985 -0.05976451 0.77052660
vn 0.60006096 -0.73620493 -0.31293632
vn -0.46785403 -0.56654051 0.67833949
vn -0.14842376 0.09928692 0.98392708
vn -0.95790441 0.22474313 0.17863276
vn -0.56413169 -0.66788766 -0.48547040
vn 0.47368419 0.22845072 0.85054897
vn -0.15593920 -0.98769813 -0.01163474
vn 0.60284615 -0.48315944 -0.63492793
vn -0.14596522 -0.88441911 0.44327980
vn -0.57112642 -0.66714490 0.47825965
vn -0.58245519 -0.79093048 -0.18754979
vn -0.13843061 -0.98331379 -0.11802946
vn -0.07225852 -0.40618362 -0.91093006
vn -0.43084270 -0.56599286 -0.70287030
vn -0.14112797 -0.72842531 -0.67043230
vn -0.17977551 -0.97551681 0.12667959
vn -0.12413840 -0.89054731 -0.43762444
vn -0.12212896 -0.63691544 -0.76119855
f 10//10 9//9 6//6
f 11//11 4//4 7//7
f 13//13 9//9 7//7
f 14//14 12//12 5//5
f 17//17 15//15 5//5
f 18//18 11//11 3//3
f 18//18 4//4 11//11
f 18//18 16//16 10//10
f 18//18 10//10 4//4
f 19//19 3//3 11//11
f 19//19 9//9 10//10
f 19//19 10//10 16//16
f 19//19 18//18 3//3
f 19//19 16//16 18//18
f 19//19 11//11 7//7
f 19//19 7//7 9//9
f 20//20 7//7 12//12
f 21//21 12//12 7//7
f 21//21 7//7 4//4
f 21//21 17//17 12//12
f 21//21 4//4 10//10
f 21//21 10//10 17//17
f 22//22 13//13 7//7
f 22//22 7//7 1//1
f 22//22 8//8 13//13
f 22//22 14//14 8//8
f 23//23 13//13 2//2
f 23//23 9//9 13//13
f 24//24 13//13 8//8
f 24//24 2//2 13//13
f 24//24 8//8 14//14
f 25//25 12//12 14//14
f 25//25 22//22 1//1
f 25//25 14//14 22//22
f 26//26 17//17 5//5
f 26//26 5//5 12//12
f 26//26 12//12 17//17
f 27//27 17//17 10//10
f 27//27 10//10 6//6
f 28//28 1//1 7//7
f 28//28 7//7 20//20
f 28//28 25//25 1//1
f 28//28 20//20 12//12
f 28//28 12//12 25//25
f 30//30 9//9 23//23
f 31//31 2//2 24//24
f 32//32 24//24 14//14
f 32//32 14//14 5//5
f 32//32 5//5 15//15
f 32//32 31//31 24//24
f 32//32 15//15 31//31
f 33//33 15//15 17//17
f 33//33 17//17 27//27
f 33//33 29//29 15//15
f 34//34 23//23 2//2
f 34//34 2//2 29//29
f 34//34 29//29 33//33
f 35//35 30//30 6//6
f 35//35 6//6 9//9
f 35//35 9//9 30//30
f 36//36 27//27 6//6
f 38//38 29//29 2//2
f 38//38 2//2 31//31
f 38//38 31//31 15//15
f 38//38 15//15 29//29
f 39//39 33//33 27//27
f 39//39 34//34 33//33
f 39//39 23//23 34//34
f 39//39 27//27 37//37
f 39//39 30//30 23//23
f 40//40 36//36 6//6
f 40//40 6//6 30//30
f 40//40 39//39 37//37
f 40//40 30//30 39//39
f 40//40 37//37 27//27
f 40//40 27//27 36//36

