# https://github.com/mikedh/trimesh
v -0.02060175 0.02584684 0.01969404
v -0.01971253 0.01693340 0.01506573
v -0.02041287 0.04010659 -0.01462232
v -0.08172212 0.05920915 -0.01439474
v -0.10334591 0.06044997 0.01809526
v -0.01948742 0.01834983 -0.01604551
v -0.02054766 0.04285867 0.01324112
v -0.04829746 0.03141319 0.01952885
v -0.02071788 0.03405250 -0.01661741
v -0.09530042 0.05447414 -0.00434854
v -0.07361672 0.06157363 0.01978891
v -0.02053614 0.04751378 -0.00591736
v -0.02036058 0.02031161 0.01859595
v -0.01997371 0.02025821 -0.01746123
v -0.07325174 0.05922970 -0.01419385
v -0.10347674 0.07125586 -0.00240712
v -0.09993666 0.05480378 0.01277553
v -0.02534581 0.03780426 0.01745064
v -0.02948433 0.02779689 0.02015156
v -0.10188975 0.06852959 0.02002718
v -0.07416473 0.06918557 0.01075734
v -0.03229184 0.02189922 0.01705058
v -0.04246208 0.03822628 -0.01660526
v -0.08014761 0.04971815 -0.01447666
v -0.08082483 0.06690732 -0.01044389
v -0.10171988 0.05824524 0.01776846
v -0.10743172 0.06286763 -0.00071878
v -0.09536936 0.05238342 0.00327954
v -0.06501437 0.05697483 0.01972820
v -0.03618015 0.02658943 0.01971071
v -0.09358066 0.05605737 0.01979869
v -0.07438022 0.06515869 0.01772762
v -0.02558794 0.04717847 0.00634862
v -0.09839941 0.07354798 0.01316134
v -0.02666268 0.01946632 0.01650551
v -0.04725454 0.02859839 0.01711069
v -0.04171643 0.03312681 -0.01661799
v -0.04716038 0.03040787 -0.01268826
v -0.02091606 0.04525925 -0.01026894
v -0.06893092 0.06071204 -0.01212481
v -0.07698876 0.07126100 -0.00097200
v -0.09075423 0.07236539 -0.00649428
v -0.10750563 0.06229536 0.01288429
v -0.10323562 0.06026273 -0.00425230
v -0.10374226 0.05883208 -0.00084750
v -0.02915313 0.03018686 0.01997414
v -0.04550157 0.02860369 0.01868601
v -0.10191164 0.06188342 0.01963262
v -0.06577250 0.04032839 0.01996331
v -0.07223238 0.06658397 0.01434000
v -0.09243806 0.06827499 0.01958403
v -0.05893904 0.06213628 0.01036589
v -0.10768365 0.06945912 0.00911204
v -0.08875223 0.07131132 0.01603704
v -0.02858879 0.02119315 0.01772116
v -0.03460864 0.02207038 0.00989233
v -0.10154633 0.05640392 0.01464663
v -0.07979963 0.04789793 -0.01293184
v -0.07569170 0.06272140 -0.01239655
v -0.07624361 0.07117429 0.00485569
v -0.08064382 0.07104078 -0.00419386
v -0.08498802 0.06747964 -0.01018617
v -0.10445991 0.06644513 -0.00532961
v -0.10068813 0.07347484 -0.00083964
vn 0.64303562 0.01353554 0.76571665
vn 0.54746945 -0.79188512 0.27054604
vn 0.70783792 0.33348496 -0.62269837
vn -0.16710359 0.19021108 -0.96741725
vn -0.69106688 -0.34998282 0.63240699
vn 0.50233374 -0.75587998 -0.41988839
vn 0.75256061 0.48066868 0.45012237
vn -0.18365498 -0.40596401 0.89524526
vn 0.54913838 0.14089475 -0.82376921
vn -0.52257686 -0.79035227 -0.31977604
vn 0.14378509 0.30239662 0.94227498
vn 0.76643148 0.63138877 -0.11802967
vn 0.54813383 -0.39436829 0.73757912
vn 0.43761756 -0.29457419 -0.84953924
vn 0.09418892 0.36857939 -0.92481224
vn -0.60837324 0.64398287 -0.46386212
vn -0.55507098 -0.82357310 0.11671999
vn 0.28112695 0.33652525 0.89873155
vn 0.01357407 -0.07894139 0.99678684
vn -0.41354611 0.42672098 0.80429399
vn 0.33137677 0.89366773 0.30256803
vn -0.34288086 -0.83942025 0.42167090
vn -0.01124359 0.07325553 -0.99724982
vn -0.33508375 -0.33591982 -0.88027084
vn 0.14854464 0.65749501 -0.73867097
vn -0.51913700 -0.61143993 0.59719175
vn -0.92956870 -0.21377788 -0.30033489
vn -0.50127896 -0.85849745 -0.10817366
vn 0.16978678 0.30216002 0.93801480
vn -0.12756561 -0.36627154 0.92172239
vn -0.20099224 -0.33452933 0.92070204
vn 0.26666912 0.66804156 0.69469998
vn 0.43200692 0.87542690 0.21678969
vn -0.15119420 0.94858783 0.27806733
vn -0.27034386 -0.87134012 0.40948822
vn -0.43337474 -0.86419276 0.25565054
vn -0.07229045 -0.05250208 -0.99600081
vn -0.42185265 -0.84196565 -0.33635425
vn 0.63304483 0.59340248 -0.49711944
vn 0.21983288 0.61274054 -0.75909323
vn 0.26181319 0.94715325 -0.18534988
vn -0.05345363 0.82421597 -0.56374706
vn -0.92010368 -0.27884995 0.27504895
vn -0.61211770 -0.48839406 -0.62191894
vn -0.64906254 -0.72993408 -0.21427568
vn 0.08159253 0.11197920 0.99035515
vn -0.30514214 -0.67299868 0.67376632
vn -0.40953139 -0.16970119 0.89637355
vn -0.24266729 -0.45010621 0.85937011
vn 0.34583985 0.80946383 0.47451354
vn 0.07970617 0.48045753 0.87338851
vn 0.41177582 0.87384879 0.25851299
vn -0.85037572 0.51204694 0.12111588
vn 0.16706479 0.85273381 0.49490849
vn -0.19653737 -0.63355722 0.74831698
vn -0.39023507 -0.92070965 -0.00321288
vn -0.60895074 -0.75225591 0.25157511
vn -0.45917994 -0.75621615 -0.46614473
vn 0.15060169 0.55781471 -0.81618740
vn 0.27006297 0.95920711 0.08359257
vn 0.23945547 0.87712803 -0.41630217
vn -0.09004164 0.49650602 -0.86335061
vn -0.65106545 0.20161513 -0.73175482
vn -0.26224320 0.93663353 -0.23226307
f 7//7 1//1 2//2
f 7//7 2//2 6//6
f 12//12 7//7 6//6
f 12//12 6//6 3//3
f 13//13 2//2 1//1
f 14//14 9//9 3//3
f 14//14 3//3 6//6
f 15//15 3//3 9//9
f 18//18 1//1 7//7
f 19//19 13//13 1//1
f 20//20 19//19 11//11
f 23//23 9//9 14//14
f 23//23 15//15 9//9
f 23//23 4//4 15//15
f 24//24 4//4 23//23
f 24//24 14//14 6//6
f 25//25 15//15 4//4
f 29//29 1//1 18//18
f 29//29 11//11 19//19
f 29//29 18//18 7//7
f 29//29 7//7 11//11
f 30//30 13//13 19//19
f 32//32 11//11 7//7
f 33//33 7//7 12//12
f 35//35 2//2 13//13
f 37//37 24//24 23//23
f 37//37 23//23 14//14
f 37//37 14//14 24//24
f 39//39 12//12 3//3
f 40//40 39//39 3//3
f 40//40 25//25 39//39
f 43//43 26//26 5//5
f 43//43 5//5 20//20
f 45//45 28//28 17//17
f 45//45 27//27 44//44
f 45//45 44//44 10//10
f 45//45 10//10 28//28
f 45//45 43//43 27//27
f 45//45 17//17 43//43
f 46//46 29//29 19//19
f 46//46 19//19 1//1
f 46//46 1//1 29//29
f 47//47 30//30 8//8
f 47//47 36//36 22//22
f 47//47 26//26 36//36
f 48//48 31//31 20//20
f 48//48 20//20 5//5
f 48//48 5//5 26//26
f 48//48 26//26 31//31
f 49//49 19//19 20//20
f 49//49 20//20 31//31
f 49//49 30//30 19//19
f 49//49 8//8 30//30
f 49//49 47//47 8//8
f 49//49 31//31 26//26
f 49//49 26//26 47//47
f 50//50 32//32 7//7
f 50//50 7//7 21//21
f 51//51 20//20 11//11
f 51//51 11//11 32//32
f 52//52 21//21 7//7
f 52//52 7//7 33//33
f 52//52 33//33 12//12
f 52//52 12//12 21//21
f 53//53 20//20 34//34
f 53//53 43//43 20//20
f 53//53 16//16 27//27
f 53//53 27//27 43//43
f 54//54 50//50 21//21
f 54//54 32//32 50//50
f 54//54 51//51 32//32
f 54//54 34//34 20//20
f 54//54 20//20 51//51
f 55//55 22//22 35//35
f 55//55 47//47 22//22
f 55//55 30//30 47//47
f 55//55 35//35 13//13
f 55//55 13//13 30//30
f 56//56 35//35 22//22
f 56//56 6//6 2//2
f 56//56 2//2 35//35
f 56//56 38//38 6//6
f 56//56 22//22 36//36
f 56//56 28//28 38//38
f 56//56 36//36 17//17
f 56//56 17//17 28//28
f 57//57 36//36 26//26
f 57//57 17//17 36//36
f 57//57 43//43 17//17
f 57//57 26//26 43//43
f 58//58 24//24 6//6
f 58//58 6//6 38//38
f 58//58 44//44 24//24
f 58//58 10//10 44//44
f 58//58 38//38 28//28
f 58//58 28//28 10//10
f 59//59 40//40 3//3
f 59//59 3//3 15//15
f 59//59 15//15 25//25
f 59//59 25//25 40//40
f 60//60 21//21 12//12
f 60//60 12//12 41//41
f 60//60 54//54 21//21
f 60//60 41//41 34//34
f 60//60 34//34 54//54
f 61//61 39//39 25//25
f 61//61 42//42 41//41
f 61//61 25//25 42//42
f 61//61 41//41 12//12
f 61//61 12//12 39//39
f 62//62 42//42 25//25
f 62//62 25//25 4//4
f 63//63 16//16 42//42
f 63//63 4//4 24//24
f 63//63 24//24 44//44
f 63//63 44//44 27//27
f 63//63 27//27 16//16
f 63//63 62//62 4//4
f 63//63 42//42 62//62
f 64//64 42//42 16//16
f 64//64 34//34 41//41
f 64//64 41//41 42//42
f 64//64 53//53 34//34
f 64//64 16//16 53//53

