# https://github.com/mikedh/trimesh
v 0.08254684 -0.01361289 0.01329602
v 0.08321952 -0.02006472 0.01244675
v 0.08278993 -0.01264037 -0.01335262
v 0.01390898 -0.03776731 -0.01445402
v 0.00529213 -0.04252508 0.01156062
v 0.04776216 -0.04614459 -0.00419396
v 0.07129494 -0.00798464 -0.00249373
v 0.08369353 -0.01671221 0.01338541
v 0.08219778 -0.02523569 -0.00594025
v 0.05030441 -0.04043922 -0.01315488
v 0.01411199 -0.04987023 -0.00271361
v 0.03083194 -0.04806156 0.00958143
v 0.07406980 -0.00709667 -0.00752177
v 0.02862343 -0.02693830 0.01321545
v 0.05760909 -0.04151084 0.00615537
v 0.08312677 -0.02126528 -0.01085438
v 0.07439073 -0.02318208 -0.01345800
v 0.05130886 -0.04263879 -0.01043601
v 0.00529659 -0.04621526 0.00880819
v 0.01413849 -0.04559302 -0.01193009
v 0.02947586 -0.04990624 -0.00114381
v 0.03444054 -0.04419183 0.01215517
v 0.07409996 -0.00780397 0.00148188
v 0.05647744 -0.01851727 -0.01210320
v 0.01390813 -0.03786201 0.01392148
v 0.02767253 -0.02751675 0.01350729
v 0.03791189 -0.02386597 -0.00963798
v 0.08238962 -0.02528325 0.00740134
v 0.05459888 -0.04265399 -0.00457803
v 0.04811573 -0.04607204 0.00466003
v 0.08273605 -0.02412079 0.00936339
v 0.06686941 -0.02952563 -0.01331363
v 0.07973108 -0.02155190 -0.01240836
v 0.08238333 -0.02370553 -0.00854790
v 0.00494238 -0.04414921 0.01053640
v 0.01924707 -0.04976013 0.00526405
v 0.02784606 -0.04369498 -0.01320825
v 0.01421850 -0.04262951 -0.01337025
v 0.01415908 -0.04820750 -0.00919215
v 0.01283322 -0.04352942 0.01214784
v 0.05518814 -0.03671860 0.01245480
v 0.07457916 -0.00908908 0.00521107
v 0.07371530 -0.01072981 -0.01063609
v 0.03815048 -0.02672282 -0.01331187
v 0.08065614 -0.01358288 0.01293494
v 0.04271185 -0.02088825 0.00148137
v 0.05562675 -0.01541747 -0.00740494
v 0.08071960 -0.02705602 0.00056963
v 0.05609303 -0.04100300 -0.00746872
v 0.04982176 -0.04293018 0.00927709
v 0.04161657 -0.04813654 -0.00283175
v 0.02940669 -0.04986014 0.00528270
v 0.05462197 -0.03927204 -0.01220312
v 0.01571042 -0.04985759 0.00368768
v 0.01404306 -0.04837194 0.00830291
v 0.03785470 -0.04612864 -0.01054314
v 0.01753017 -0.04400248 -0.01314629
v 0.02792225 -0.04991347 -0.00431702
v 0.03114040 -0.04674845 0.01075628
v 0.00542649 -0.04384328 0.01084390
v 0.01250577 -0.04234376 0.01279551
v 0.07070955 -0.02751674 0.01248366
v 0.05294907 -0.02189256 -0.01330330
v 0.03813948 -0.02544875 -0.01211561
vn 0.49344666 0.56950433 0.65740034
vn 0.71360205 -0.34532931 0.60952422
vn 0.62313907 0.42853516 -0.65425936
vn -0.59382555 0.34697671 -0.72593277
vn -0.77077975 0.21561990 0.59950532
vn 0.33636418 -0.92415280 -0.18110978
vn -0.31689771 0.94657214 0.05980820
vn 0.73748428 0.02911914 0.67473625
vn 0.77518594 -0.60639394 -0.17712466
vn 0.16277082 -0.43130124 -0.88740346
vn -0.29072343 -0.94783765 -0.13070452
vn 0.09056983 -0.82139494 0.56312295
vn 0.04440350 0.95218449 -0.30227972
vn -0.36565120 0.85435453 0.36929330
vn 0.45952056 -0.83250293 0.30948300
vn 0.80997689 -0.31912572 -0.49203273
vn 0.15918874 -0.18195832 -0.97033505
vn 0.34501019 -0.80757829 -0.47831503
vn -0.77914762 -0.59244354 0.20479171
vn -0.51290844 -0.50836274 -0.69173134
vn 0.07988293 -0.99669598 -0.01469156
vn 0.10116933 -0.42265724 0.90062513
vn 0.07892172 0.97926197 0.18659409
vn -0.20044901 0.57211678 -0.79530031
vn -0.30913068 0.28232799 0.90814598
vn -0.37485793 0.64096708 0.66980798
vn -0.40903046 0.86250731 -0.29795171
vn 0.77558539 -0.61444373 0.14465891
vn 0.47429897 -0.86875699 -0.14248434
vn 0.31720388 -0.92012832 0.22966403
vn 0.77811765 -0.50092460 0.37895575
vn 0.23384678 -0.34611674 -0.90858070
vn 0.34664040 -0.35582248 -0.86788870
vn 0.67614688 -0.62491417 -0.39026616
vn -0.86864730 -0.27503940 0.41207426
vn -0.02466613 -0.96944678 0.24405846
vn 0.02897705 -0.43797831 -0.89851841
vn -0.53778415 -0.26830371 -0.79925048
vn -0.42025819 -0.77094715 -0.47856405
vn -0.07363605 -0.55706777 0.82719600
vn 0.21143713 -0.41435428 0.88521459
vn -0.04595763 0.90679936 0.41904990
vn -0.15891638 0.59395719 -0.78864468
vn -0.18970354 0.51204390 -0.83774914
vn -0.13592600 0.71694701 0.68374784
vn -0.42177227 0.90561588 -0.04436252
vn -0.41264103 0.90418382 -0.11035850
vn 0.62710200 -0.77873169 -0.01788949
vn 0.49328884 -0.82113560 -0.28705828
vn 0.27291399 -0.72467208 0.63274665
vn 0.21384541 -0.96834363 -0.12876631
vn 0.07831917 -0.97714623 0.19761414
vn 0.39283506 -0.62606587 -0.67358900
vn -0.13603281 -0.98334964 0.12049299
vn -0.12412086 -0.84209594 0.52485087
vn 0.13096979 -0.79071461 -0.59801114
vn -0.01405225 -0.42698442 -0.90414979
vn 0.05501146 -0.97247871 -0.22640428
vn 0.05998951 -0.60210944 0.79615669
vn -0.15977500 -0.53782604 0.82777721
vn -0.08825518 -0.35075395 0.93229968
vn 0.26363252 -0.44661819 0.85500298
vn -0.12457099 0.38899565 -0.91277843
vn -0.29907432 0.72398801 -0.62160752
f 8//8 3//3 1//1
f 13//13 1//1 3//3
f 16//16 3//3 8//8
f 17//17 4//4 3//3
f 23//23 13//13 7//7
f 23//23 1//1 13//13
f 23//23 7//7 14//14
f 25//25 8//8 1//1
f 26//26 14//14 4//4
f 26//26 4//4 5//5
f 26//26 5//5 25//25
f 26//26 25//25 1//1
f 27//27 4//4 14//14
f 29//29 15//15 6//6
f 29//29 6//6 18//18
f 30//30 6//6 15//15
f 31//31 16//16 8//8
f 31//31 8//8 2//2
f 31//31 15//15 28//28
f 31//31 28//28 9//9
f 31//31 9//9 16//16
f 32//32 10//10 4//4
f 32//32 4//4 17//17
f 33//33 17//17 3//3
f 33//33 3//3 16//16
f 33//33 32//32 17//17
f 33//33 16//16 32//32
f 34//34 16//16 9//9
f 34//34 9//9 18//18
f 35//35 5//5 4//4
f 35//35 4//4 19//19
f 37//37 4//4 10//10
f 38//38 20//20 19//19
f 38//38 19//19 4//4
f 39//39 11//11 19//19
f 39//39 19//19 20//20
f 41//41 25//25 22//22
f 41//41 8//8 25//25
f 42//42 23//23 14//14
f 42//42 1//1 23//23
f 43//43 24//24 13//13
f 43//43 13//13 3//3
f 43//43 3//3 24//24
f 45//45 26//26 1//1
f 45//45 14//14 26//26
f 45//45 42//42 14//14
f 45//45 1//1 42//42
f 46//46 27//27 14//14
f 46//46 14//14 7//7
f 47//47 7//7 13//13
f 47//47 13//13 27//27
f 47//47 46//46 7//7
f 47//47 27//27 46//46
f 48//48 28//28 15//15
f 48//48 9//9 28//28
f 48//48 29//29 9//9
f 48//48 15//15 29//29
f 49//49 29//29 18//18
f 49//49 18//18 9//9
f 49//49 9//9 29//29
f 50//50 30//30 15//15
f 50//50 12//12 30//30
f 50//50 15//15 31//31
f 50//50 31//31 41//41
f 50//50 41//41 22//22
f 51//51 6//6 30//30
f 52//52 30//30 12//12
f 52//52 51//51 30//30
f 52//52 21//21 51//51
f 52//52 12//12 36//36
f 53//53 18//18 10//10
f 53//53 10//10 32//32
f 53//53 32//32 16//16
f 53//53 34//34 18//18
f 53//53 16//16 34//34
f 54//54 19//19 11//11
f 54//54 52//52 36//36
f 54//54 21//21 52//52
f 55//55 36//36 12//12
f 55//55 54//54 36//36
f 55//55 19//19 54//54
f 55//55 40//40 35//35
f 55//55 35//35 19//19
f 56//56 37//37 10//10
f 56//56 10//10 18//18
f 56//56 18//18 6//6
f 56//56 6//6 51//51
f 56//56 39//39 20//20
f 56//56 20//20 37//37
f 57//57 37//37 20//20
f 57//57 20//20 38//38
f 57//57 38//38 4//4
f 57//57 4//4 37//37
f 58//58 11//11 39//39
f 58//58 54//54 11//11
f 58//58 21//21 54//54
f 58//58 39//39 56//56
f 58//58 56//56 51//51
f 58//58 51//51 21//21
f 59//59 50//50 22//22
f 59//59 12//12 50//50
f 59//59 55//55 12//12
f 59//59 40//40 55//55
f 60//60 5//5 35//35
f 60//60 35//35 40//40
f 61//61 25//25 5//5
f 61//61 60//60 40//40
f 61//61 5//5 60//60
f 61//61 22//22 25//25
f 61//61 59//59 22//22
f 61//61 40//40 59//59
f 62//62 2//2 8//8
f 62//62 8//8 41//41
f 62//62 41//41 31//31
f 62//62 31//31 2//2
f 63//63 44//44 24//24
f 63//63 24//24 3//3
f 63//63 3//3 4//4
f 63//63 4//4 44//44
f 64//64 13//13 24//24
f 64//64 24//24 44//44
f 64//64 27//27 13//13
f 64//64 44//44 4//4
f 64//64 4//4 27//27

