# https://github.com/mikedh/trimesh
v 0.02785090 0.00053693 0.02448076
v 0.02929794 -0.03649163 0.01403373
v 0.02784580 0.00050196 0.01425078
v -0.05340657 0.00061860 0.01127280
v -0.00342238 -0.06182037 0.02205983
v -0.00951603 -0.05346513 0.01217512
v -0.03149260 0.00154090 0.01719950
v 0.01187333 -0.06109599 0.02060428
v 0.02846400 -0.03807478 0.01374344
v -0.05331387 -0.02424325 0.01159793
v -0.02165320 -0.01024682 0.02020979
v 0.02575518 -0.03426927 0.02049138
v 0.01861052 -0.04246869 0.02213288
v 0.01475659 -0.06363710 0.01408882
v -0.01781866 -0.05346513 0.01217512
v -0.00726561 -0.02240428 0.02224287
v -0.02774483 0.00020548 0.01801967
v -0.01775995 -0.05375570 0.02136423
v -0.04200974 -0.00613564 0.01585003
v 0.02803882 -0.03795495 0.01502729
v 0.02811516 -0.00775332 0.02256821
v 0.02266947 -0.03641256 0.02212441
v 0.01428494 -0.06333983 0.01579133
v 0.01538959 -0.06267837 0.01351007
v -0.00510322 -0.01616513 0.02222389
v -0.01539239 -0.00429531 0.02014434
v -0.03185335 -0.00593361 0.01795951
v -0.00716626 -0.03254761 0.02228092
v -0.04065104 -0.03686281 0.01631090
v -0.03989129 -0.00196547 0.01581994
v -0.04770557 -0.00812855 0.01382131
v -0.03383051 -0.01221099 0.01796798
v 0.01357583 -0.05890374 0.02006895
v 0.02865683 -0.03623472 0.01531896
v -0.05271999 -0.02496040 0.01177827
v -0.03791649 0.00009779 0.01594423
v -0.04202755 -0.02017957 0.01588662
v -0.04771385 -0.02383105 0.01385297
v -0.03378741 -0.02223414 0.01796782
vn 0.55298830 0.56722092 0.61029859
vn 0.91844497 -0.19483140 -0.34423765
vn 0.57947216 0.58656052 -0.56582574
vn -0.80446573 0.57140362 -0.16227381
vn -0.21933991 -0.80229241 0.55517285
vn 0.01661510 -0.06432827 -0.99779046
vn -0.13107893 0.79893611 0.58695776
vn 0.32195595 -0.54297425 0.77557935
vn 0.65343758 -0.31095807 -0.69016259
vn -0.96227777 -0.19892644 -0.18560648
vn -0.14425565 0.06858113 0.98716105
vn 0.70581679 -0.20685047 0.67752161
vn 0.15652689 -0.12010586 0.98034377
vn 0.39237825 -0.86982257 -0.29907859
vn -0.35983791 -0.62209324 -0.69535364
vn -0.09607488 0.01689234 0.99523076
vn -0.13793182 0.18577209 0.97286358
vn -0.44727099 -0.58665403 0.67511904
vn -0.27781593 0.07013262 0.95807084
vn 0.78114897 -0.39626111 0.48247634
vn 0.91780652 -0.06214817 0.39213366
vn 0.39022069 -0.18666192 0.90160143
vn 0.46177104 -0.79923489 0.38469611
vn 0.58935352 -0.49133016 -0.64129331
vn -0.09549492 0.04495415 0.99441432
vn -0.11513906 0.13883442 0.98359951
vn -0.19130248 0.08817078 0.97756293
vn -0.07032604 -0.00464669 0.99751324
vn -0.64959394 -0.57098498 0.50199987
vn -0.24860748 0.15616608 0.95593225
vn -0.36266310 0.01800529 0.93174636
vn -0.21221906 0.02696766 0.97684995
vn 0.69783672 -0.36989306 0.61335392
vn 0.82714589 -0.24318305 0.50664750
vn -0.77089418 -0.63438006 0.05730701
vn -0.24735130 0.26114023 0.93307187
vn -0.30097446 0.00149758 0.95363103
vn -0.35740429 -0.00856353 0.93391051
vn -0.22082933 -0.00186041 0.97531069
f 1//1 2//2 3//3
f 7//7 1//1 3//3
f 7//7 3//3 4//4
f 9//9 3//3 2//2
f 9//9 6//6 4//4
f 9//9 4//4 3//3
f 10//10 4//4 6//6
f 13//13 1//1 5//5
f 13//13 5//5 8//8
f 15//15 10//10 6//6
f 15//15 14//14 5//5
f 17//17 1//1 7//7
f 18//18 16//16 11//11
f 18//18 15//15 5//5
f 21//21 2//2 1//1
f 21//21 1//1 12//12
f 22//22 12//12 1//1
f 22//22 1//1 13//13
f 22//22 13//13 8//8
f 22//22 8//8 12//12
f 23//23 8//8 5//5
f 23//23 5//5 14//14
f 23//23 14//14 2//2
f 23//23 2//2 20//20
f 24//24 6//6 9//9
f 24//24 9//9 2//2
f 24//24 2//2 14//14
f 24//24 15//15 6//6
f 24//24 14//14 15//15
f 25//25 16//16 1//1
f 25//25 1//1 11//11
f 25//25 11//11 16//16
f 26//26 17//17 11//11
f 26//26 11//11 1//1
f 26//26 1//1 17//17
f 27//27 17//17 7//7
f 27//27 11//11 17//17
f 27//27 7//7 19//19
f 28//28 18//18 5//5
f 28//28 5//5 1//1
f 28//28 1//1 16//16
f 28//28 16//16 18//18
f 29//29 15//15 18//18
f 30//30 19//19 7//7
f 30//30 4//4 19//19
f 31//31 19//19 4//4
f 31//31 4//4 10//10
f 32//32 18//18 11//11
f 32//32 27//27 19//19
f 32//32 11//11 27//27
f 32//32 19//19 29//29
f 33//33 20//20 12//12
f 33//33 12//12 8//8
f 33//33 23//23 20//20
f 33//33 8//8 23//23
f 34//34 20//20 2//2
f 34//34 12//12 20//20
f 34//34 21//21 12//12
f 34//34 2//2 21//21
f 35//35 29//29 10//10
f 35//35 10//10 15//15
f 35//35 15//15 29//29
f 36//36 30//30 7//7
f 36//36 7//7 4//4
f 36//36 4//4 30//30
f 37//37 29//29 19//19
f 37//37 19//19 31//31
f 38//38 31//31 10//10
f 38//38 10//10 29//29
f 38//38 37//37 31//31
f 38//38 29//29 37//37
f 39//39 32//32 29//29
f 39//39 29//29 18//18
f 39//39 18//18 32//32

