# https://github.com/mikedh/trimesh
v 0.00577267 0.08022092 0.01456194
v 0.00570945 0.00279586 0.02060122
v 0.00482639 0.00062383 -0.02189653
v -0.01530244 0.04967048 -0.02445226
v -0.09139277 -0.00051925 -0.00266336
v 0.00616214 0.07182351 -0.02127460
v -0.07933826 -0.00031344 0.00812074
v -0.04819023 0.00021411 -0.02742559
v -0.00331371 0.05427215 -0.02509712
v 0.00606652 0.08868682 -0.00624600
v -0.00459899 0.03337892 0.02004504
v -0.08698344 -0.00052815 0.00479805
v 0.00511123 0.00050289 0.02021799
v -0.08763157 -0.00022854 -0.00961253
v -0.09138914 -0.00055119 -0.00433993
v 0.00559814 0.06843654 -0.02269571
v -0.03848086 0.01077140 -0.02722291
v -0.00763369 0.07680489 0.00688683
v 0.00605092 0.08839339 -0.00037167
v -0.01170132 0.06898997 -0.01504519
v -0.02386347 0.00011609 0.01846480
v 0.00518852 0.04159474 0.02053180
v -0.01671828 0.05785408 0.01393695
v -0.03288131 0.03046432 -0.02454506
v -0.08956450 -0.00044580 -0.00812862
v -0.08872287 -0.00058054 0.00254902
v 0.00470052 0.02331082 -0.02287032
v -0.00724217 0.05385590 -0.02475947
v -0.00826112 0.05884964 -0.02261570
v -0.04382407 0.00792447 -0.02694061
v -0.03680716 0.00055917 -0.02712361
v -0.01797950 0.06124235 0.01193512
v -0.01772439 0.06908812 -0.00194095
v 0.00588262 0.08647766 0.00926391
v 0.00584055 0.08420740 -0.01299270
v -0.03207701 0.04686378 -0.01704841
v -0.03596805 0.00018263 0.01646152
v -0.00477829 0.02757053 0.02006067
v 0.00118579 0.04150622 0.02011373
v -0.00263104 0.03744525 0.02000656
v -0.08818951 0.00092591 0.00201961
v 0.00356688 0.06775996 -0.02243478
v -0.01409084 0.06511221 -0.01649673
v -0.04762207 0.00376658 -0.02661552
v -0.03673114 0.00891852 -0.02719187
v -0.01808581 0.00045480 -0.02484838
v -0.00624049 0.07320869 0.01179204
v -0.09039447 0.00066456 -0.00286186
v -0.01144294 0.07307051 -0.00930923
v -0.00347168 0.08118541 0.00366978
v -0.00210496 0.07742919 -0.01445150
v -0.02192446 0.06260662 -0.01164529
v -0.08640688 0.00076176 0.00413657
v 0.00058469 0.00486745 -0.02291203
v 0.00441748 0.07950564 0.01426485
v 0.00254770 0.08333403 0.01031731
v -0.09044892 0.00046471 -0.00407121
v -0.01779198 0.06893379 -0.00042884
v -0.00407512 0.08094436 -0.00215479
v 0.00253448 0.08525017 0.00730193
v -0.00543126 0.07697269 -0.01140064
v -0.00151924 0.00058136 -0.02285551
v -0.00362437 0.04623051 -0.02489632
v 0.00434790 0.08572953 0.00874383
vn 0.49944808 0.39862095 0.76918980
vn 0.68996656 -0.13861947 0.71044408
vn 0.61162055 -0.60038129 -0.51523064
vn -0.27200202 0.30024951 -0.91425660
vn -0.91790588 -0.34967310 0.18755672
vn 0.57288175 0.39046469 -0.72065513
vn -0.28439013 -0.54219649 0.79066125
vn -0.21209430 -0.58241761 -0.78473291
vn 0.06485520 0.09587346 -0.99327845
vn 0.39086982 0.89472299 -0.21608227
vn -0.13058103 0.05412299 0.98995924
vn -0.57343786 -0.44656368 0.68684052
vn 0.48592309 -0.67761397 0.55201273
vn -0.51899189 -0.31840743 -0.79326170
vn -0.90099932 -0.36544812 -0.23376888
vn 0.46146209 0.22043580 -0.85933742
vn -0.04826865 0.07677195 -0.99587961
vn -0.63426513 0.67755658 0.37232354
vn 0.45032126 0.88939397 0.07867103
vn -0.51183934 0.60483029 -0.61008262
vn -0.08848945 -0.68839533 0.71991769
vn 0.58435805 0.07314954 0.80819231
vn -0.29937845 0.25328276 0.91990238
vn -0.33972690 0.30147638 -0.89089709
vn -0.75899612 -0.36987744 -0.53583166
vn -0.71962517 -0.51681380 0.46372742
vn 0.57518604 -0.02536177 -0.81762938
vn -0.14180526 0.21784816 -0.96562594
vn -0.32467740 0.42840966 -0.84323766
vn -0.25347287 0.20791016 -0.94473534
vn 0.06149003 -0.56338348 -0.82390414
vn -0.48412484 0.46537299 0.74097984
vn -0.67237441 0.73732724 -0.06527776
vn 0.45406501 0.77394625 0.44139797
vn 0.41457969 0.68389303 -0.60034491
vn -0.49720547 0.48729544 -0.71786480
vn -0.16007338 -0.44650497 0.88034642
vn -0.07013731 0.00167648 0.99753594
vn -0.13939894 0.12512028 0.98229978
vn -0.15672757 0.10252246 0.98230627
vn -0.70213522 0.57209604 0.42392482
vn -0.27448095 0.39696495 -0.87583048
vn -0.46131360 0.51635324 -0.72150474
vn -0.38414047 0.27177920 -0.88236737
vn 0.04649158 -0.00029089 -0.99891864
vn 0.08651897 -0.73346381 -0.67419975
vn -0.51112170 0.51633326 0.68713505
vn -0.71461402 0.69275992 0.09700770
vn -0.62940943 0.72193873 -0.28748607
vn -0.62887336 0.76989094 0.10856441
vn -0.43996045 0.61142851 -0.65771573
vn -0.62715601 0.66084513 -0.41226091
vn -0.58723112 0.57224838 0.57244336
vn 0.15153538 -0.05318949 -0.98701971
vn -0.41920636 0.44410395 0.79185713
vn -0.49113506 0.62920584 0.60240049
vn -0.68753731 0.70223959 -0.18480262
vn -0.67506211 0.73047325 0.10344071
vn -0.63668746 0.76906957 -0.05622351
vn -0.54920095 0.79419908 0.26005027
vn -0.56848291 0.70440133 -0.42502465
vn 0.09555068 -0.71958865 -0.68779521
vn 0.13108344 -0.03062404 -0.99089823
vn -0.51682890 0.73756623 0.43460779
f 6//6 2//2 3//3
f 13//13 3//3 2//2
f 16//16 6//6 3//3
f 19//19 2//2 6//6
f 19//19 6//6 10//10
f 21//21 13//13 2//2
f 21//21 7//7 12//12
f 21//21 3//3 13//13
f 22//22 2//2 1//1
f 23//23 12//12 7//7
f 25//25 14//14 8//8
f 25//25 8//8 15//15
f 26//26 5//5 15//15
f 26//26 21//21 12//12
f 26//26 15//15 3//3
f 26//26 3//3 21//21
f 27//27 16//16 3//3
f 27//27 9//9 16//16
f 28//28 16//16 9//9
f 28//28 4//4 16//16
f 28//28 17//17 4//4
f 28//28 9//9 17//17
f 30//30 17//17 8//8
f 30//30 4//4 17//17
f 30//30 24//24 4//4
f 32//32 12//12 23//23
f 34//34 1//1 2//2
f 34//34 2//2 19//19
f 35//35 10//10 6//6
f 36//36 14//14 25//25
f 36//36 24//24 14//14
f 36//36 4//4 24//24
f 37//37 21//21 11//11
f 37//37 11//11 7//7
f 37//37 7//7 21//21
f 38//38 21//21 2//2
f 38//38 11//11 21//21
f 38//38 22//22 11//11
f 38//38 2//2 22//22
f 39//39 22//22 1//1
f 39//39 1//1 23//23
f 40//40 23//23 7//7
f 40//40 7//7 11//11
f 40//40 39//39 23//23
f 40//40 11//11 22//22
f 40//40 22//22 39//39
f 41//41 5//5 26//26
f 41//41 26//26 12//12
f 42//42 16//16 4//4
f 42//42 4//4 29//29
f 42//42 29//29 6//6
f 42//42 6//6 16//16
f 43//43 6//6 29//29
f 43//43 29//29 4//4
f 43//43 4//4 36//36
f 44//44 30//30 8//8
f 44//44 8//8 14//14
f 44//44 14//14 24//24
f 44//44 24//24 30//30
f 45//45 17//17 9//9
f 45//45 9//9 31//31
f 45//45 31//31 8//8
f 45//45 8//8 17//17
f 46//46 8//8 31//31
f 46//46 15//15 8//8
f 46//46 3//3 15//15
f 47//47 12//12 32//32
f 48//48 15//15 5//5
f 48//48 41//41 18//18
f 48//48 5//5 41//41
f 50//50 19//19 10//10
f 51//51 35//35 6//6
f 51//51 43//43 20//20
f 51//51 6//6 43//43
f 52//52 36//36 25//25
f 52//52 43//43 36//36
f 52//52 20//20 43//43
f 53//53 41//41 12//12
f 53//53 18//18 41//41
f 53//53 47//47 18//18
f 53//53 12//12 47//47
f 54//54 27//27 3//3
f 55//55 47//47 32//32
f 55//55 32//32 23//23
f 55//55 23//23 1//1
f 56//56 18//18 47//47
f 56//56 47//47 55//55
f 56//56 55//55 1//1
f 56//56 1//1 34//34
f 57//57 48//48 33//33
f 57//57 15//15 48//48
f 57//57 33//33 49//49
f 57//57 49//49 52//52
f 57//57 52//52 25//25
f 57//57 25//25 15//15
f 58//58 48//48 18//18
f 58//58 33//33 48//48
f 58//58 50//50 33//33
f 58//58 18//18 50//50
f 59//59 49//49 33//33
f 59//59 10//10 49//49
f 59//59 50//50 10//10
f 59//59 33//33 50//50
f 60//60 34//34 19//19
f 60//60 19//19 50//50
f 60//60 50//50 18//18
f 60//60 18//18 56//56
f 61//61 51//51 20//20
f 61//61 49//49 10//10
f 61//61 10//10 35//35
f 61//61 35//35 51//51
f 61//61 52//52 49//49
f 61//61 20//20 52//52
f 62//62 54//54 3//3
f 62//62 3//3 46//46
f 62//62 46//46 31//31
f 62//62 31//31 54//54
f 63//63 54//54 31//31
f 63//63 31//31 9//9
f 63//63 9//9 27//27
f 63//63 27//27 54//54
f 64//64 60//60 56//56
f 64//64 56//56 34//34
f 64//64 34//34 60//60

