# https://github.com/mikedh/trimesh
v 0.05230545 0.08326912 0.02221400
v 0.05825032 -0.00296075 0.00286765
v 0.05245732 0.08760704 -0.01872260
v 0.00559814 0.06843654 -0.02269571
v 0.00579491 0.00050936 0.02047504
v 0.03198444 0.00051670 -0.01862252
v 0.02253335 0.09979453 0.00304376
v 0.05252350 0.10006521 0.01841080
v 0.05403662 0.00170821 0.02325585
v 0.05452981 0.02964489 -0.01676523
v 0.01499992 0.05038026 -0.02279928
v 0.00482639 0.00062383 -0.02189653
v 0.03052451 0.10071307 -0.00719463
v 0.00625063 0.08156777 0.01378703
v 0.05486668 0.05651714 0.02607109
v 0.05266004 0.09602700 -0.01482166
v 0.03397439 0.00073805 0.02437671
v 0.05459531 0.05664885 -0.01761058
v 0.01731928 0.07093604 -0.02289245
v 0.03796819 0.07115890 -0.02075671
v 0.03197949 0.00474052 -0.01884697
v 0.00471975 0.03596800 -0.02307104
v 0.00663573 0.08771600 -0.00930868
v 0.03063372 0.10257671 0.00558763
v 0.03091433 0.09331561 0.02046342
v 0.05491548 0.02568521 0.02453811
v 0.03485262 0.08970001 -0.01865313
v 0.00757322 0.03144808 0.02229463
v 0.05264399 0.09424673 -0.01659246
v 0.05241318 0.07533981 -0.01867905
v 0.03597415 0.08526910 -0.02077065
v 0.01301436 0.04433733 -0.02279329
v 0.00589806 0.08214664 -0.01447785
v 0.00514353 0.04363557 0.02012822
v 0.01273595 0.09355105 -0.00598358
v 0.03057624 0.10235559 -0.00209540
v 0.03807042 0.09578630 0.02030217
v 0.02514442 0.09769637 0.01221901
v 0.03802049 0.00273650 0.02435594
v 0.02387776 0.01294840 0.02439920
v 0.04073769 0.06885624 0.02442573
v 0.04479946 0.09420996 -0.01670020
v 0.05038724 0.06494829 -0.01866197
v 0.03792121 0.07516425 -0.02076027
v 0.00774360 0.07028245 -0.02269926
v 0.04836129 0.09132617 -0.01854913
v 0.00637885 0.08749013 0.00859784
v 0.01361123 0.09177722 -0.01038113
v 0.01202911 0.08266395 0.01581901
v 0.02475464 0.09960585 -0.00526878
v 0.02482955 0.09967856 0.00723806
v 0.03084278 0.10042203 0.01256033
v 0.02395537 0.00093420 0.02417504
v 0.05048371 0.07282214 0.02438823
v 0.04271387 0.09596670 -0.01465855
v 0.01791717 0.08043682 -0.02062395
v 0.00601294 0.07568684 -0.01863336
v 0.01262635 0.09353871 -0.00270295
v 0.01884395 0.09386300 0.01217996
v 0.01040359 0.08787315 -0.01243417
v 0.02657789 0.09405459 -0.01252829
v 0.00851911 0.08947237 -0.00891822
v 0.02252393 0.09953879 -0.00015150
v 0.02673546 0.09977668 -0.00674250
vn 0.33167694 0.19359433 0.92331557
vn 0.70245794 -0.69849662 -0.13658444
vn 0.62774044 0.11139499 -0.77041100
vn -0.69849056 0.12545243 -0.70453717
vn -0.62697467 -0.58721790 0.51193545
vn 0.20168056 -0.64556437 -0.73659459
vn -0.45299196 0.88558052 0.10269090
vn 0.58413570 0.64847491 0.48812476
vn 0.53908669 -0.52197720 0.66100329
vn 0.68022474 -0.09535495 -0.72677489
vn 0.08221199 -0.02316119 -0.99634570
vn -0.56278446 -0.56616511 -0.60227130
vn -0.12153190 0.86514457 -0.48657464
vn -0.79232735 0.24705792 0.55783489
vn 0.66792054 0.06006787 0.74180456
vn 0.65075854 0.66253433 -0.37089296
vn 0.00259739 -0.65703856 0.75385249
vn 0.76917833 0.00999272 -0.63895605
vn 0.02281174 0.07581562 -0.99686088
vn 0.12677033 -0.01762750 -0.99177546
vn 0.13246405 -0.04810612 -0.99001974
vn -0.68871028 -0.01160791 -0.72494372
vn -0.81547321 0.52033966 -0.25347599
vn -0.14276491 0.98301369 0.11533544
vn -0.25031888 0.43086928 0.86700180
vn 0.66957325 -0.04130478 0.74159664
vn -0.13744709 0.54327310 -0.82822861
vn -0.40511565 0.01842436 0.91407979
vn 0.65291323 0.43021066 -0.62339642
vn 0.27525738 -0.01064977 -0.96131158
vn 0.00965748 0.22855076 -0.97348409
vn 0.08602430 -0.03048467 -0.99582654
vn -0.80885426 0.36445222 -0.46144270
vn -0.78951740 0.08132886 0.60831562
vn -0.54008085 0.81668211 -0.20332980
vn -0.08205889 0.98455454 -0.15465673
vn -0.09250872 0.50253081 0.85959579
vn -0.42986163 0.75570032 0.49410121
vn 0.04787261 -0.07326265 0.99616304
vn -0.08914199 -0.00899708 0.99597829
vn -0.09664259 0.08796140 0.99142473
vn -0.05361363 0.63211506 -0.77301755
vn 0.15633078 -0.03380620 -0.98712604
vn 0.11761526 0.00862213 -0.99302181
vn -0.20488439 0.27747320 -0.93863252
vn 0.07442547 0.36167049 -0.92933057
vn -0.82453541 0.49452765 0.27492501
vn -0.35716734 0.72115571 -0.59360419
vn -0.34674064 0.20259471 0.91582002
vn -0.37321477 0.88404268 -0.28138813
vn -0.43489121 0.84985687 0.29767925
vn -0.25041583 0.85233361 0.45915067
vn -0.08181208 -0.61076378 0.78757501
vn 0.08363607 0.14580871 0.98577118
vn -0.08364558 0.75368760 -0.65188834
vn -0.19654258 0.44302398 -0.87470039
vn -0.51847071 0.45240045 -0.72561833
vn -0.61106124 0.79121004 0.02430721
vn -0.48145859 0.69824846 0.52976100
vn -0.38699639 0.61866574 -0.68372984
vn -0.21650677 0.65801126 -0.72121148
vn -0.59039821 0.73922945 -0.32399040
vn -0.41769286 0.90223656 -0.10724673
vn -0.28935793 0.83281394 -0.47190352
f 10//10 2//2 6//6
f 12//12 6//6 2//2
f 12//12 2//2 5//5
f 15//15 8//8 1//1
f 15//15 2//2 8//8
f 16//16 8//8 2//2
f 17//17 5//5 2//2
f 17//17 2//2 9//9
f 18//18 2//2 10//10
f 18//18 16//16 2//2
f 20//20 11//11 19//19
f 21//21 6//6 12//12
f 21//21 11//11 20//20
f 21//21 20//20 10//10
f 21//21 10//10 6//6
f 22//22 19//19 11//11
f 22//22 4//4 19//19
f 26//26 9//9 2//2
f 26//26 2//2 15//15
f 29//29 18//18 3//3
f 29//29 16//16 18//18
f 30//30 18//18 10//10
f 30//30 20//20 3//3
f 30//30 3//3 18//18
f 32//32 21//21 12//12
f 32//32 11//11 21//21
f 32//32 22//22 11//11
f 32//32 12//12 22//22
f 33//33 4//4 22//22
f 34//34 22//22 12//12
f 34//34 12//12 5//5
f 34//34 33//33 22//22
f 34//34 14//14 33//33
f 34//34 5//5 28//28
f 34//34 28//28 25//25
f 36//36 7//7 24//24
f 36//36 16//16 13//13
f 36//36 24//24 8//8
f 36//36 8//8 16//16
f 37//37 1//1 8//8
f 39//39 17//17 9//9
f 39//39 9//9 26//26
f 39//39 26//26 15//15
f 39//39 15//15 17//17
f 41//41 25//25 28//28
f 41//41 40//40 15//15
f 41//41 28//28 40//40
f 42//42 16//16 29//29
f 43//43 30//30 10//10
f 43//43 10//10 20//20
f 43//43 20//20 30//30
f 44//44 20//20 19//19
f 44//44 19//19 31//31
f 44//44 31//31 3//3
f 44//44 3//3 20//20
f 45//45 31//31 19//19
f 45//45 19//19 4//4
f 46//46 29//29 3//3
f 46//46 3//3 31//31
f 46//46 42//42 29//29
f 46//46 31//31 27//27
f 46//46 27//27 42//42
f 47//47 33//33 14//14
f 47//47 23//23 33//33
f 49//49 34//34 25//25
f 49//49 25//25 14//14
f 49//49 14//14 34//34
f 50//50 48//48 35//35
f 51//51 24//24 7//7
f 51//51 7//7 47//47
f 52//52 38//38 25//25
f 52//52 25//25 37//37
f 52//52 37//37 8//8
f 52//52 8//8 24//24
f 52//52 51//51 38//38
f 52//52 24//24 51//51
f 53//53 17//17 15//15
f 53//53 15//15 40//40
f 53//53 5//5 17//17
f 53//53 40//40 28//28
f 53//53 28//28 5//5
f 54//54 37//37 25//25
f 54//54 25//25 41//41
f 54//54 1//1 37//37
f 54//54 41//41 15//15
f 54//54 15//15 1//1
f 55//55 42//42 27//27
f 55//55 13//13 16//16
f 55//55 16//16 42//42
f 56//56 27//27 31//31
f 56//56 31//31 45//45
f 56//56 48//48 27//27
f 57//57 45//45 4//4
f 57//57 4//4 33//33
f 57//57 56//56 45//45
f 57//57 33//33 56//56
f 58//58 35//35 23//23
f 58//58 23//23 47//47
f 58//58 47//47 7//7
f 58//58 7//7 35//35
f 59//59 47//47 14//14
f 59//59 14//14 25//25
f 59//59 25//25 38//38
f 59//59 51//51 47//47
f 59//59 38//38 51//51
f 60//60 33//33 23//23
f 60//60 56//56 33//33
f 60//60 48//48 56//56
f 61//61 48//48 13//13
f 61//61 27//27 48//48
f 61//61 55//55 27//27
f 61//61 13//13 55//55
f 62//62 23//23 35//35
f 62//62 35//35 48//48
f 62//62 60//60 23//23
f 62//62 48//48 60//60
f 63//63 50//50 35//35
f 63//63 35//35 7//7
f 63//63 7//7 36//36
f 63//63 36//36 50//50
f 64//64 50//50 36//36
f 64//64 36//36 13//13
f 64//64 13//13 48//48
f 64//64 48//48 50//50

