# https://github.com/mikedh/trimesh
v 0.05482935 0.02956117 0.00387249
v 0.05825032 -0.00296075 0.00286765
v 0.05452981 0.02964489 -0.01676523
v 0.03183985 0.02956480 -0.01968418
v 0.03199712 0.00050196 0.00387249
v 0.03198444 0.00051670 -0.01862252
v 0.03199712 0.02956117 0.00387249
v 0.05393600 0.00964203 -0.01437687
v 0.03396229 0.00673198 -0.01887674
v 0.03787544 0.02964721 -0.01892631
v 0.05209058 0.01540771 -0.01653284
v 0.05457336 0.02537875 -0.01666220
v 0.04735895 0.00152552 -0.01441040
v 0.03198015 0.00681288 -0.01892958
v 0.05312268 0.00196749 -0.00911701
v 0.04315248 0.00144637 -0.01640320
v 0.05332000 0.00603572 -0.01256964
v 0.04973670 0.01129485 -0.01650541
v 0.05089018 0.00613598 -0.01451637
vn 0.55000618 0.59712542 0.58389591
vn 0.63907534 -0.64414840 0.42030413
vn 0.57924089 0.59574538 -0.55638785
vn -0.54751933 0.55908305 -0.62261443
vn -0.60106865 -0.53807044 0.59092866
vn -0.53685602 -0.57421080 -0.61811615
vn -0.57556436 0.57659038 0.57988723
vn 0.72095702 -0.23017718 -0.65363556
vn 0.10056386 -0.05867088 -0.99319919
vn 0.08608567 0.70082703 -0.70811774
vn 0.34374265 -0.11898387 -0.93149548
vn 0.68959571 -0.02820870 -0.72364496
vn 0.38021913 -0.67410183 -0.63326150
vn -0.56559623 -0.03554760 -0.82391582
vn 0.62405241 -0.57597145 -0.52802980
vn 0.24061504 -0.62025289 -0.74658607
vn 0.67854973 -0.44317378 -0.58580480
vn 0.27939897 -0.17854492 -0.94342882
vn 0.44076289 -0.35081150 -0.82623203
f 1//1 2//2 3//3
f 5//5 2//2 1//1
f 6//6 5//5 4//4
f 6//6 2//2 5//5
f 7//7 1//1 3//3
f 7//7 5//5 1//1
f 7//7 4//4 5//5
f 10//10 7//7 3//3
f 10//10 4//4 7//7
f 10//10 9//9 4//4
f 11//11 6//6 9//9
f 12//12 3//3 2//2
f 12//12 2//2 8//8
f 12//12 8//8 11//11
f 12//12 11//11 9//9
f 12//12 10//10 3//3
f 12//12 9//9 10//10
f 14//14 9//9 6//6
f 14//14 6//6 4//4
f 14//14 4//4 9//9
f 15//15 2//2 13//13
f 16//16 13//13 2//2
f 16//16 2//2 6//6
f 17//17 15//15 13//13
f 17//17 13//13 8//8
f 17//17 8//8 2//2
f 17//17 2//2 15//15
f 18//18 16//16 6//6
f 18//18 6//6 11//11
f 18//18 11//11 8//8
f 18//18 8//8 16//16
f 19//19 16//16 8//8
f 19//19 8//8 13//13
f 19//19 13//13 16//16

