# https://github.com/mikedh/trimesh
v 0.05403662 0.00170821 0.02325585
v 0.06411304 0.00163432 0.00962356
v -0.03680716 0.00055917 -0.02712361
v -0.05039774 -0.00008156 -0.02664606
v -0.01775995 -0.05375570 0.02136423
v -0.07393154 0.00020714 0.00897776
v 0.04917157 0.00165246 -0.01303928
v 0.02140819 -0.05043109 0.01368750
v -0.07229972 0.00035936 -0.01249157
v 0.02785090 0.00053693 0.02448076
v 0.06171939 0.00185908 0.00066638
v 0.05810528 0.00159283 0.01978789
v 0.02753474 -0.03358046 0.01871211
v -0.00971103 -0.05345334 -0.02128056
v -0.08533923 -0.05372005 -0.00255345
v -0.05664162 -0.05353950 0.01828784
v 0.06196517 0.00187171 0.01343386
v 0.02324958 -0.05014152 -0.00371657
v 0.02860118 -0.02790163 0.02014594
v 0.04136453 0.00104689 -0.01733467
v -0.06870504 -0.05342313 -0.02700414
v -0.00951603 -0.05346513 0.01217512
v -0.08474731 -0.04204309 -0.00211096
v -0.08425813 -0.05417989 0.00332427
v -0.07391971 -0.00410590 0.00984178
v -0.04037036 -0.05375584 0.02047973
v 0.06409449 0.00156326 0.00807728
v 0.02314667 -0.05012142 0.00946840
v 0.02153443 -0.05034741 -0.00697019
v 0.03577961 -0.01548620 0.02207387
v -0.04100442 -0.02209222 -0.02704150
v -0.06606412 -0.03530802 -0.02706864
v -0.07242815 -0.03738770 -0.02268959
v -0.08476305 -0.04201606 -0.00053459
v -0.07208445 -0.05353828 -0.02497206
v -0.07943451 -0.05371839 0.01054932
v -0.08216911 -0.04250175 0.00652825
v 0.00650917 -0.05120104 -0.01901469
v -0.00563345 -0.01590314 -0.02281820
v -0.05750679 -0.05334128 -0.02705674
v -0.05363207 -0.00658900 -0.02687898
v -0.06762231 -0.03223650 -0.02520644
v -0.06966415 -0.03761265 -0.02496761
v -0.06892484 -0.04935328 -0.02678866
v -0.06859958 -0.05380669 0.01394553
v -0.08270870 -0.05386508 0.00722056
v 0.04078702 -0.00279310 -0.01640626
v 0.01123570 -0.05047263 -0.01656555
v -0.00352140 0.00057648 -0.02309886
v -0.03902497 -0.05323853 -0.02492883
v -0.06023963 -0.01870642 -0.02671468
v -0.07189837 -0.05153430 -0.02504211
v -0.00372899 -0.00981021 -0.02280542
vn 0.39277524 0.48739579 0.77985444
vn 0.91446821 0.34794428 0.20659787
vn 0.03321245 0.68366098 -0.72904362
vn -0.18286179 0.66160289 -0.72721605
vn 0.02939921 -0.71688450 0.69657182
vn -0.56519460 0.67515397 0.47404870
vn 0.55405510 0.52164863 -0.64877243
vn 0.37554385 -0.77985520 0.50079205
vn -0.60604259 0.71024919 -0.35813190
vn -0.01898380 0.58644841 0.80976409
vn 0.78620310 0.45333929 -0.41996212
vn 0.72095592 0.36348520 0.59000091
vn 0.27126238 -0.33608358 0.90192270
vn 0.12669344 -0.73041933 -0.67114556
vn -0.79767814 -0.57842478 -0.17068789
vn -0.17212292 -0.59157347 0.78766397
vn 0.70119328 0.58207453 0.41172469
vn 0.54330663 -0.82856290 -0.13528275
vn 0.18171727 -0.26010253 0.94832774
vn 0.29627267 0.51768855 -0.80263383
vn -0.20547345 -0.62999121 -0.74892706
vn 0.07260207 -0.99718341 0.01881966
vn -0.96107907 0.13156459 -0.24293573
vn -0.70470591 -0.67736972 0.21109205
vn -0.49517317 0.14043259 0.85736936
vn -0.08335484 -0.66176875 0.74505979
vn 0.95069646 0.27970256 -0.13395040
vn 0.54534025 -0.83338627 0.08984061
vn 0.47632117 -0.80476631 -0.35421651
vn 0.15702787 -0.23310566 0.95968953
vn 0.07254703 -0.02845915 -0.99695888
vn -0.31271226 0.09263020 -0.94532041
vn -0.75312114 0.13070346 -0.64476752
vn -0.97865905 0.13612587 0.15393573
vn -0.54558671 -0.63692265 -0.54466933
vn -0.42577854 -0.59611194 0.68070786
vn -0.83920647 0.10311914 0.53394657
vn 0.25641949 -0.65792523 -0.70808434
vn 0.12950030 -0.04662767 -0.99048248
vn 0.03090780 -0.67389301 -0.73818217
vn -0.28252903 0.15798203 -0.94616015
vn -0.58523079 0.20655871 -0.78411633
vn -0.59103636 0.13825965 -0.79470768
vn -0.42268142 0.05482238 -0.90461866
vn -0.09251925 -0.95186212 0.29223055
vn -0.65769161 -0.59320988 0.46426694
vn 0.47114003 -0.28429422 -0.83498735
vn 0.45787640 -0.64451622 -0.61233001
vn 0.11687558 0.30029253 -0.94665965
vn 0.11194756 -0.33340512 -0.93611365
vn -0.38421238 0.17022210 -0.90741682
vn -0.69156062 0.05220148 -0.72042967
vn 0.12634717 -0.03412621 -0.99139891
f 9//9 3//3 4//4
f 9//9 7//7 3//3
f 10//10 5//5 1//1
f 10//10 1//1 6//6
f 11//11 7//7 9//9
f 12//12 8//8 2//2
f 12//12 1//1 8//8
f 13//13 8//8 1//1
f 13//13 5//5 8//8
f 17//17 2//2 11//11
f 17//17 12//12 2//2
f 17//17 1//1 12//12
f 17//17 11//11 9//9
f 17//17 9//9 6//6
f 17//17 6//6 1//1
f 19//19 13//13 1//1
f 19//19 5//5 13//13
f 20//20 3//3 7//7
f 22//22 14//14 8//8
f 22//22 8//8 5//5
f 22//22 5//5 14//14
f 23//23 6//6 9//9
f 24//24 14//14 5//5
f 25//25 16//16 10//10
f 25//25 10//10 6//6
f 26//26 5//5 10//10
f 26//26 10//10 16//16
f 26//26 24//24 5//5
f 27//27 18//18 11//11
f 27//27 11//11 2//2
f 28//28 2//2 8//8
f 28//28 8//8 18//18
f 28//28 27//27 2//2
f 28//28 18//18 27//27
f 29//29 18//18 8//8
f 29//29 8//8 14//14
f 29//29 7//7 11//11
f 29//29 11//11 18//18
f 30//30 19//19 1//1
f 30//30 1//1 5//5
f 30//30 5//5 19//19
f 33//33 15//15 23//23
f 33//33 23//23 9//9
f 34//34 23//23 15//15
f 34//34 15//15 24//24
f 34//34 6//6 23//23
f 35//35 21//21 14//14
f 35//35 14//14 24//24
f 35//35 24//24 15//15
f 35//35 15//15 33//33
f 36//36 16//16 25//25
f 37//37 25//25 6//6
f 37//37 36//36 25//25
f 37//37 34//34 24//24
f 37//37 6//6 34//34
f 38//38 29//29 14//14
f 38//38 14//14 20//20
f 39//39 20//20 14//14
f 39//39 14//14 31//31
f 40//40 3//3 31//31
f 40//40 32//32 3//3
f 40//40 21//21 32//32
f 40//40 14//14 21//21
f 41//41 4//4 3//3
f 41//41 3//3 32//32
f 41//41 9//9 4//4
f 42//42 33//33 9//9
f 43//43 42//42 32//32
f 43//43 33//33 42//42
f 44//44 32//32 21//21
f 44//44 21//21 35//35
f 44//44 43//43 32//32
f 45//45 26//26 16//16
f 45//45 16//16 36//36
f 45//45 36//36 24//24
f 45//45 24//24 26//26
f 46//46 37//37 24//24
f 46//46 24//24 36//36
f 46//46 36//36 37//37
f 47//47 38//38 20//20
f 47//47 20//20 7//7
f 48//48 7//7 29//29
f 48//48 29//29 38//38
f 48//48 47//47 7//7
f 48//48 38//38 47//47
f 49//49 31//31 3//3
f 49//49 3//3 20//20
f 50//50 40//40 31//31
f 50//50 31//31 14//14
f 50//50 14//14 40//40
f 51//51 41//41 32//32
f 51//51 32//32 42//42
f 51//51 42//42 9//9
f 51//51 9//9 41//41
f 52//52 35//35 33//33
f 52//52 33//33 43//43
f 52//52 44//44 35//35
f 52//52 43//43 44//44
f 53//53 39//39 31//31
f 53//53 31//31 49//49
f 53//53 49//49 20//20
f 53//53 20//20 39//39

