# https://github.com/mikedh/trimesh
v 0.00036428 -0.06400793 0.01767857
v 0.01114836 -0.05519456 0.00905776
v -0.07073948 -0.05780556 0.00788230
v -0.06150129 -0.05736503 -0.02176476
v -0.02148512 -0.09847530 -0.00574822
v -0.07408022 -0.05750768 -0.01172506
v -0.01412388 -0.05576598 0.01621275
v -0.00604012 -0.09056530 0.00876074
v -0.00132992 -0.05558736 -0.01537320
v -0.06093836 -0.09368040 0.00420152
v 0.01027179 -0.05553438 0.01111943
v -0.03206356 -0.07878520 0.01753555
v -0.07209284 -0.05764547 0.00629586
v -0.03769516 -0.08842077 -0.01866000
v -0.00242105 -0.08456785 -0.00697016
v -0.01106151 -0.05560767 -0.01683056
v -0.02261248 -0.09862820 0.01184885
v -0.00906473 -0.05591549 0.01636096
v -0.00125693 -0.08424424 0.00907773
v -0.05185055 -0.05745813 0.01446882
v -0.03392153 -0.06102553 0.01765054
v -0.06605570 -0.08344831 0.00940305
v -0.04711852 -0.09848855 -0.00769062
v -0.01028346 -0.09520155 -0.00285254
v -0.01044082 -0.08166903 -0.01492414
v 0.01114772 -0.05518155 -0.00477116
v 0.00145011 -0.05529519 -0.01417263
v -0.05420816 -0.05725411 -0.02200884
v -0.01947886 -0.08549639 -0.01672798
v -0.00931243 -0.08538337 0.01782909
v 0.00042757 -0.07991812 0.01031023
v -0.00272649 -0.08765428 -0.00330993
v -0.03509872 -0.07227590 0.01758051
v -0.04049018 -0.05763668 0.01603086
v -0.02906781 -0.05940522 0.01755254
v -0.04710019 -0.09615618 0.01247452
v -0.07206441 -0.07521691 0.00653129
v -0.06833744 -0.06919938 0.00924484
v -0.02931092 -0.09361874 -0.01412931
v -0.06725537 -0.08576366 -0.01097077
v -0.02585891 -0.10049416 -0.00182201
v -0.01356693 -0.09677609 0.00744303
v -0.01211042 -0.08883682 -0.01197898
v 0.00370670 -0.07478416 -0.00173312
v -0.00863053 -0.07834013 -0.01496631
v 0.00046473 -0.07833744 -0.00710799
v -0.05064523 -0.08490811 -0.02001170
v -0.01277040 -0.06713958 -0.01677519
v -0.04754056 -0.08206161 -0.02021075
v -0.00278659 -0.08321824 0.01456104
v 0.01036570 -0.05799519 0.00744278
v -0.00273684 -0.08761405 0.00579938
v -0.00413643 -0.08929516 -0.00444641
v -0.04381355 -0.06088014 0.01607461
v -0.03045946 -0.08000914 0.01764985
v -0.05184177 -0.07220658 0.01426683
v -0.02420967 -0.05954908 0.01755033
v -0.02404223 -0.09492000 0.01588020
v -0.06069064 -0.09212406 0.00821827
v -0.05003865 -0.09867238 0.00619984
v -0.07356767 -0.05973975 0.00506176
v -0.07044404 -0.08298986 0.00513400
v -0.05811977 -0.05763226 0.01248811
v -0.07078291 -0.07526280 0.00780652
vn 0.36519678 0.04269275 0.92995088
vn 0.80749623 0.55175195 0.20861355
vn -0.43499454 0.59824455 0.67296598
vn -0.31416377 0.56815615 -0.76059169
vn 0.24404009 -0.86974369 -0.42894096
vn -0.75990806 0.53989142 -0.36201796
vn -0.02386192 0.83622303 0.54787010
vn 0.62834382 -0.71009254 0.31773044
vn 0.24018453 0.49285637 -0.83630377
vn -0.57967285 -0.81108773 0.07820530
vn 0.66780182 0.47183992 0.57568031
vn -0.15703730 -0.09491798 0.98302078
vn -0.57290146 0.73659773 0.35945474
vn 0.03428946 -0.42075977 -0.90652383
vn 0.73120730 -0.42931839 -0.53011471
vn 0.07790964 0.69745937 -0.71237667
vn 0.16837892 -0.88090610 0.44232678
vn 0.06222711 0.71373365 0.69764752
vn 0.84959411 -0.48710296 0.20228828
vn -0.19675120 0.65138206 0.73279627
vn -0.07988261 0.13036905 0.98824222
vn -0.49133037 -0.26754676 0.82886259
vn -0.21533025 -0.89353113 -0.39399874
vn 0.51019311 -0.82282266 -0.25033149
vn 0.42193451 -0.30307318 -0.85446938
vn 0.80233322 0.50558133 -0.31725214
vn 0.45788538 0.59689757 -0.65882795
vn 0.00939737 0.61134361 -0.79130947
vn 0.21497846 -0.31061637 -0.92590590
vn 0.28825861 -0.37000461 0.88317810
vn 0.88492838 -0.38730489 0.25864392
vn 0.84018534 -0.52549623 -0.13394888
vn -0.12002958 -0.03518691 0.99214655
vn -0.09836148 0.56206538 0.82122319
vn -0.02337221 0.27804166 0.96028463
vn -0.21866401 -0.59119028 0.77632474
vn -0.91211599 -0.15847707 0.37806009
vn -0.39672272 -0.00886050 0.91789573
vn 0.11676228 -0.68761375 -0.71662675
vn -0.70577188 -0.51434280 -0.48717301
vn 0.09386585 -0.98723963 -0.12863558
vn 0.44355486 -0.85718544 0.26171017
vn 0.41454202 -0.57107114 -0.70854264
vn 0.90988573 -0.40074813 -0.10727952
vn 0.44009957 -0.20634886 -0.87391791
vn 0.78133982 -0.34553604 -0.51972389
vn -0.19691928 -0.39826367 -0.89588439
vn 0.15407746 -0.04975424 -0.98680528
vn 0.06407597 -0.08184622 -0.99458306
vn 0.67025510 -0.43770051 0.59931325
vn 0.93359680 -0.34655312 0.09109309
vn 0.80310118 -0.58831072 0.09444041
vn 0.68865483 -0.64910144 -0.32314369
vn -0.17361668 0.03729881 0.98410673
vn -0.08249166 -0.08841833 0.99266174
vn -0.23892854 -0.05691623 0.96936768
vn 0.00754891 0.16353498 0.98650865
vn 0.04379294 -0.49121249 0.86993820
vn -0.52353801 -0.60897719 0.59586469
vn -0.27460215 -0.93928569 0.20575727
vn -0.92779845 0.16810846 0.33306093
vn -0.86866093 -0.42065473 0.26168260
vn -0.26436509 0.59165602 0.76161293
vn -0.59227812 -0.10974403 0.79822483
f 13//13 7//7 6//6
f 16//16 4//4 6//6
f 16//16 6//6 7//7
f 18//18 1//1 11//11
f 18//18 11//11 2//2
f 18//18 2//2 7//7
f 20//20 13//13 3//3
f 20//20 7//7 13//13
f 27//27 16//16 7//7
f 27//27 7//7 2//2
f 27//27 2//2 26//26
f 27//27 9//9 16//16
f 28//28 4//4 16//16
f 30//30 1//1 21//21
f 31//31 2//2 11//11
f 34//34 7//7 20//20
f 34//34 20//20 21//21
f 35//35 18//18 7//7
f 35//35 34//34 21//21
f 35//35 7//7 34//34
f 39//39 23//23 14//14
f 39//39 5//5 23//23
f 39//39 14//14 29//29
f 40//40 23//23 10//10
f 40//40 6//6 4//4
f 41//41 23//23 5//5
f 41//41 5//5 24//24
f 42//42 24//24 8//8
f 42//42 41//41 24//24
f 42//42 17//17 41//41
f 42//42 30//30 17//17
f 42//42 8//8 30//30
f 43//43 25//25 15//15
f 43//43 29//29 25//25
f 43//43 24//24 5//5
f 43//43 39//39 29//29
f 43//43 5//5 39//39
f 45//45 9//9 27//27
f 45//45 29//29 9//9
f 45//45 25//25 29//29
f 45//45 15//15 25//25
f 46//46 27//27 26//26
f 46//46 45//45 27//27
f 46//46 15//15 45//45
f 46//46 26//26 44//44
f 46//46 44//44 32//32
f 46//46 32//32 15//15
f 47//47 4//4 28//28
f 47//47 40//40 4//4
f 47//47 14//14 23//23
f 47//47 23//23 40//40
f 48//48 16//16 9//9
f 48//48 9//9 29//29
f 48//48 28//28 16//16
f 49//49 29//29 14//14
f 49//49 48//48 29//29
f 49//49 28//28 48//48
f 49//49 47//47 28//28
f 49//49 14//14 47//47
f 50//50 30//30 8//8
f 50//50 8//8 19//19
f 50//50 19//19 31//31
f 50//50 1//1 30//30
f 50//50 31//31 11//11
f 50//50 11//11 1//1
f 51//51 31//31 19//19
f 51//51 2//2 31//31
f 51//51 19//19 44//44
f 51//51 44//44 26//26
f 51//51 26//26 2//2
f 52//52 19//19 8//8
f 52//52 8//8 24//24
f 52//52 44//44 19//19
f 52//52 32//32 44//44
f 53//53 15//15 32//32
f 53//53 43//43 15//15
f 53//53 24//24 43//43
f 53//53 52//52 24//24
f 53//53 32//32 52//52
f 54//54 33//33 21//21
f 54//54 21//21 20//20
f 55//55 30//30 21//21
f 55//55 21//21 33//33
f 55//55 33//33 12//12
f 55//55 12//12 36//36
f 56//56 22//22 36//36
f 56//56 36//36 12//12
f 56//56 12//12 33//33
f 56//56 38//38 22//22
f 56//56 20//20 38//38
f 56//56 54//54 20//20
f 56//56 33//33 54//54
f 57//57 1//1 18//18
f 57//57 18//18 35//35
f 57//57 35//35 21//21
f 57//57 21//21 1//1
f 58//58 36//36 17//17
f 58//58 17//17 30//30
f 58//58 55//55 36//36
f 58//58 30//30 55//55
f 59//59 36//36 22//22
f 60//60 10//10 23//23
f 60//60 23//23 41//41
f 60//60 41//41 17//17
f 60//60 17//17 36//36
f 60//60 59//59 10//10
f 60//60 36//36 59//59
f 61//61 37//37 3//3
f 61//61 3//3 13//13
f 61//61 13//13 6//6
f 61//61 6//6 37//37
f 62//62 22//22 37//37
f 62//62 59//59 22//22
f 62//62 10//10 59//59
f 62//62 40//40 10//10
f 62//62 37//37 6//6
f 62//62 6//6 40//40
f 63//63 38//38 20//20
f 63//63 20//20 3//3
f 63//63 3//3 38//38
f 64//64 37//37 22//22
f 64//64 22//22 38//38
f 64//64 38//38 3//3
f 64//64 3//3 37//37

