# https://github.com/mikedh/trimesh
v 0.08801650 0.08351602 0.00594681
v 0.09797134 0.05763263 0.00484102
v 0.08786401 0.07624615 -0.00448295
v 0.06678130 0.08328669 -0.01705944
v 0.06728329 0.05654471 0.00594815
v 0.08505489 0.05641303 -0.01281225
v 0.08606002 0.08245565 -0.00284670
v 0.09356312 0.07240916 0.00613638
v 0.06728329 0.08352826 0.00594815
v 0.09312208 0.06448440 -0.00325324
v 0.07627460 0.08080394 -0.01417994
v 0.06723311 0.05662505 -0.01587239
v 0.09283126 0.05644743 -0.00495050
v 0.07425384 0.08268192 -0.01477200
v 0.08188220 0.07232890 -0.01262446
v 0.08577311 0.08026169 -0.00468799
v 0.07933349 0.05676066 -0.01456445
v 0.09393490 0.05652965 -0.00397097
v 0.06872357 0.08322250 -0.01655452
v 0.07876766 0.07289601 -0.01425700
v 0.08394813 0.06425259 -0.01265033
v 0.06924023 0.07118844 -0.01673631
v 0.07096926 0.07732922 -0.01656551
v 0.09210950 0.06414200 -0.00437027
v 0.06704909 0.07130688 -0.01689407
v 0.07075373 0.07895041 -0.01643406
vn 0.49068344 0.69464080 0.52602654
vn 0.78721323 -0.44874939 0.42298856
vn 0.78560822 0.32300464 -0.52771936
vn -0.52164820 0.57396160 -0.63122994
vn -0.56769561 -0.58224701 0.58198806
vn 0.41404601 -0.63042595 -0.65660416
vn 0.59119565 0.72395894 -0.35548722
vn 0.76450459 0.27522729 0.58290880
vn -0.57100632 0.58264415 0.57834036
vn 0.83074599 0.23102440 -0.50644726
vn 0.54664068 0.30328011 -0.78051594
vn -0.55047913 -0.59197623 -0.58867383
vn 0.24067509 -0.94810573 -0.20777639
vn 0.35502277 0.67061724 -0.65133045
vn 0.60760022 0.21336193 -0.76504814
vn 0.69688590 0.37705829 -0.61006318
vn 0.17431450 -0.55164426 -0.81566112
vn 0.66374419 -0.63405202 -0.39676403
vn 0.22002167 0.71564252 -0.66290742
vn 0.39346977 0.09681921 -0.91422512
vn 0.57369310 0.12087595 -0.81010199
vn 0.11655889 -0.03614932 -0.99252569
vn 0.22995359 0.04646760 -0.97209162
vn 0.70657315 0.15242255 -0.69102949
vn -0.60840126 -0.04273050 -0.79247840
vn 0.31099735 0.11879436 -0.94295734
f 8//8 5//5 2//2
f 8//8 7//7 1//1
f 9//9 1//1 4//4
f 9//9 4//4 5//5
f 9//9 8//8 1//1
f 9//9 5//5 8//8
f 10//10 8//8 2//2
f 10//10 3//3 7//7
f 10//10 7//7 8//8
f 12//12 6//6 5//5
f 12//12 5//5 4//4
f 13//13 5//5 6//6
f 14//14 1//1 7//7
f 14//14 7//7 11//11
f 15//15 3//3 10//10
f 16//16 11//11 7//7
f 16//16 7//7 3//3
f 16//16 15//15 11//11
f 16//16 3//3 15//15
f 17//17 6//6 12//12
f 18//18 2//2 5//5
f 18//18 5//5 13//13
f 18//18 10//10 2//2
f 18//18 13//13 6//6
f 19//19 4//4 1//1
f 19//19 1//1 14//14
f 20//20 14//14 11//11
f 20//20 11//11 15//15
f 21//21 15//15 10//10
f 21//21 20//20 15//15
f 21//21 6//6 20//20
f 21//21 18//18 6//6
f 22//22 17//17 12//12
f 23//23 14//14 20//20
f 23//23 4//4 19//19
f 23//23 22//22 4//4
f 23//23 17//17 22//22
f 23//23 20//20 6//6
f 23//23 6//6 17//17
f 24//24 21//21 10//10
f 24//24 10//10 18//18
f 24//24 18//18 21//21
f 25//25 22//22 12//12
f 25//25 12//12 4//4
f 25//25 4//4 22//22
f 26//26 23//23 19//19
f 26//26 19//19 14//14
f 26//26 14//14 23//23

