# https://github.com/mikedh/trimesh
v 0.08164540 0.07694785 0.02220494
v 0.09800868 0.04668147 0.00951869
v 0.08770416 0.08194992 -0.00106864
v 0.05271172 0.08353217 -0.01870796
v 0.05403662 0.00170821 0.02325585
v 0.08231933 0.03438558 -0.01220707
v 0.05267377 0.08348205 0.02212278
v 0.09397919 0.06995569 0.01381655
v 0.08877857 0.03883938 0.02423691
v 0.09600673 0.06005591 -0.00095288
v 0.05379069 0.00768026 -0.01326781
v 0.07017465 -0.02043443 0.00568792
v 0.08280768 0.08263816 0.02045347
v 0.05884429 0.04003765 0.02661926
v 0.09606765 0.05787806 0.01731153
v 0.09374533 0.03681206 -0.00086186
v 0.09154153 0.07613165 0.00084407
v 0.08505489 0.05641303 -0.01281225
v 0.05452412 0.03173986 -0.01684751
v 0.05260000 0.05661862 -0.01792959
v 0.06954842 -0.01421656 0.00027170
v 0.05385086 0.00134756 -0.00770537
v 0.07062720 -0.00621694 0.01602337
v 0.08983756 0.02468662 0.01708057
v 0.06678130 0.08328669 -0.01705944
v 0.08771751 0.08227642 0.01346136
v 0.05281003 0.05651131 0.02593965
v 0.06899187 0.03832227 0.02649585
v 0.09156802 0.07005492 0.01924787
v 0.09824662 0.05637200 0.00805224
v 0.09827969 0.04653403 0.00472791
v 0.08977136 0.07604424 -0.00246530
v 0.08770066 0.04652229 -0.01079424
v 0.05382939 0.01158788 -0.01514043
v 0.07318322 0.02982207 -0.01442801
v 0.05255207 0.08110070 0.02251168
v 0.09174319 0.03472042 -0.00241407
v 0.06916228 -0.02147027 0.00606703
v 0.07921975 0.02625988 0.02433101
v 0.07022983 -0.01801434 0.01031029
v 0.08630525 0.02885895 0.02243407
v 0.09395004 0.04264933 0.01934368
v 0.06716480 0.06911257 -0.01674058
v 0.08974887 0.07993055 0.00978658
v 0.06111948 0.03605399 0.02659198
v 0.08553797 0.05842827 0.02440569
v 0.06325978 0.05031832 0.02663861
v 0.08905287 0.06586883 0.02203035
v 0.08784695 0.07850360 0.01884235
v 0.09597668 0.06418192 0.01180363
v 0.09598387 0.06421859 0.00107239
v 0.09801691 0.05408291 0.01159008
v 0.09570862 0.04462760 -0.00107852
v 0.09581218 0.03876787 0.00954076
v 0.09832929 0.05431826 0.00425496
v 0.08952613 0.07993209 0.00026030
v 0.09391905 0.06427728 -0.00252883
v 0.08763659 0.08014092 -0.00244341
v 0.08449764 0.04247333 -0.01231225
v 0.08778642 0.05421480 -0.01082827
v 0.07819409 0.02862275 -0.01226769
v 0.05268021 0.07073795 0.02451575
v 0.08402307 0.03252691 -0.01024924
v 0.08566300 0.03670365 -0.01059912
vn 0.17574701 0.20678037 0.96247331
vn 0.97329942 -0.14527395 0.17771810
vn 0.52612072 0.79404938 -0.30443812
vn -0.53790761 0.57121100 -0.61997855
vn -0.60929436 -0.37823988 0.69691820
vn 0.42974618 -0.20700805 -0.87890038
vn -0.55382874 0.64328027 0.52864376
vn 0.91586300 0.34604597 0.20358573
vn 0.47757048 -0.11719377 0.87074224
vn 0.86469793 0.10166550 -0.49189594
vn -0.63133236 -0.37434936 -0.67917745
vn 0.72939404 -0.63038465 -0.26570573
vn 0.26976297 0.75360573 0.59942167
vn -0.12464588 -0.02892087 0.99177971
vn 0.84659437 0.09844296 0.52305541
vn 0.86678426 -0.31687267 -0.38506721
vn 0.89675352 0.38069151 -0.22562600
vn 0.45985707 0.08541390 -0.88387552
vn -0.10702406 -0.06595613 -0.99206635
vn -0.67020439 -0.03348032 -0.74142103
vn 0.33816499 -0.53282605 -0.77571956
vn -0.80251193 -0.46577014 -0.37287100
vn 0.36289800 -0.38706566 0.84763507
vn 0.83929342 -0.38511615 0.38376048
vn 0.22598090 0.68053507 -0.69699688
vn 0.54528663 0.82458761 0.15072410
vn -0.70632489 0.03596100 0.70697381
vn 0.06951043 -0.04113941 0.99673259
vn 0.72736095 0.28253885 0.62539415
vn 0.98852032 0.14380028 0.04635797
vn 0.97695349 -0.14912196 -0.15272366
vn 0.71983049 0.31316340 -0.61949395
vn 0.64771507 -0.07484079 -0.75819790
vn -0.53014390 -0.24828539 -0.81074152
vn 0.23600222 -0.15931766 -0.95860359
vn -0.84721869 0.10864565 0.52001597
vn 0.75414474 -0.32932369 -0.56816514
vn -0.02531278 -0.99806239 -0.05683948
vn 0.21979216 -0.20841207 0.95302456
vn 0.36896622 -0.67780739 0.63595682
vn 0.51229753 -0.30331311 0.80346276
vn 0.83959668 -0.13541063 0.52606214
vn 0.15489634 -0.02460729 -0.98762422
vn 0.84616663 0.52997555 0.05592805
vn -0.02746580 -0.06391397 0.99757738
vn 0.25246131 0.08595041 0.96378204
vn 0.02098021 0.05610138 0.99820462
vn 0.47319341 0.15088924 0.86794034
vn 0.68709524 0.42486692 0.58939650
vn 0.95661048 0.26442914 0.12236670
vn 0.92962387 0.27600527 -0.24417321
vn 0.97545468 0.02300607 0.21899519
vn 0.85475143 -0.13194873 -0.50198558
vn 0.94359534 -0.32374840 0.06938884
vn 0.97960188 0.04695082 -0.19538621
vn 0.82866547 0.51147316 -0.22739557
vn 0.75879761 0.22515959 -0.61117047
vn 0.63627426 0.39587227 -0.66214818
vn 0.40115153 -0.08775082 -0.91179891
vn 0.68231924 0.05177053 -0.72921894
vn 0.39515297 -0.29848540 -0.86876959
vn -0.67178071 0.10298970 0.73355559
vn 0.62921099 -0.33592060 -0.70089292
vn 0.64375019 -0.22366284 -0.73182008
f 13//13 7//7 1//1
f 22//22 20//20 11//11
f 25//25 4//4 7//7
f 25//25 7//7 13//13
f 26//26 25//25 13//13
f 26//26 3//3 25//25
f 27//27 5//5 14//14
f 27//27 22//22 5//5
f 27//27 20//20 22//22
f 29//29 15//15 8//8
f 32//32 18//18 25//25
f 34//34 20//20 19//19
f 34//34 11//11 20//20
f 34//34 21//21 11//11
f 35//35 34//34 19//19
f 36//36 7//7 4//4
f 36//36 4//4 20//20
f 36//36 20//20 27//27
f 37//37 16//16 12//12
f 37//37 12//12 21//21
f 38//38 5//5 22//22
f 38//38 21//21 12//12
f 38//38 22//22 11//11
f 38//38 11//11 21//21
f 39//39 5//5 23//23
f 39//39 28//28 5//5
f 39//39 9//9 28//28
f 40//40 12//12 24//24
f 40//40 38//38 12//12
f 40//40 23//23 5//5
f 40//40 5//5 38//38
f 41//41 24//24 9//9
f 41//41 40//40 24//24
f 41//41 23//23 40//40
f 41//41 39//39 23//23
f 41//41 9//9 39//39
f 42//42 15//15 9//9
f 42//42 9//9 24//24
f 42//42 24//24 2//2
f 43//43 20//20 4//4
f 43//43 4//4 25//25
f 43//43 19//19 20//20
f 43//43 35//35 19//19
f 43//43 25//25 18//18
f 43//43 18//18 35//35
f 44//44 3//3 26//26
f 44//44 26//26 8//8
f 44//44 8//8 17//17
f 45//45 14//14 5//5
f 45//45 5//5 28//28
f 46//46 28//28 9//9
f 47//47 27//27 14//14
f 47//47 45//45 28//28
f 47//47 14//14 45//45
f 47//47 28//28 46//46
f 47//47 46//46 1//1
f 48//48 13//13 1//1
f 48//48 1//1 46//46
f 48//48 46//46 9//9
f 48//48 9//9 15//15
f 48//48 15//15 29//29
f 49//49 26//26 13//13
f 49//49 48//48 29//29
f 49//49 13//13 48//48
f 49//49 29//29 8//8
f 49//49 8//8 26//26
f 50//50 8//8 15//15
f 51//51 50//50 30//30
f 51//51 17//17 8//8
f 51//51 8//8 50//50
f 51//51 32//32 17//17
f 52//52 31//31 30//30
f 52//52 2//2 31//31
f 52//52 42//42 2//2
f 52//52 15//15 42//42
f 52//52 50//50 15//15
f 52//52 30//30 50//50
f 53//53 31//31 16//16
f 54//54 31//31 2//2
f 54//54 2//2 24//24
f 54//54 24//24 12//12
f 54//54 12//12 16//16
f 54//54 16//16 31//31
f 55//55 30//30 31//31
f 55//55 51//51 30//30
f 55//55 10//10 51//51
f 55//55 53//53 10//10
f 55//55 31//31 53//53
f 56//56 32//32 3//3
f 56//56 17//17 32//32
f 56//56 44//44 17//17
f 56//56 3//3 44//44
f 57//57 18//18 32//32
f 57//57 51//51 10//10
f 57//57 32//32 51//51
f 58//58 32//32 25//25
f 58//58 25//25 3//3
f 58//58 3//3 32//32
f 59//59 18//18 33//33
f 59//59 35//35 18//18
f 59//59 6//6 35//35
f 60//60 33//33 18//18
f 60//60 53//53 33//33
f 60//60 10//10 53//53
f 60//60 57//57 10//10
f 60//60 18//18 57//57
f 61//61 35//35 6//6
f 61//61 6//6 21//21
f 61//61 21//21 34//34
f 61//61 34//34 35//35
f 62//62 1//1 7//7
f 62//62 7//7 36//36
f 62//62 47//47 1//1
f 62//62 36//36 27//27
f 62//62 27//27 47//47
f 63//63 37//37 21//21
f 63//63 21//21 6//6
f 64//64 16//16 37//37
f 64//64 53//53 16//16
f 64//64 33//33 53//53
f 64//64 37//37 63//63
f 64//64 63//63 6//6
f 64//64 59//59 33//33
f 64//64 6//6 59//59

