# https://github.com/mikedh/trimesh
v 0.05054547 0.03296259 0.01718204
v 0.05639091 0.03151014 0.00982523
v 0.03756291 0.04674391 0.00579943
v 0.01012290 0.03752779 0.00251359
v 0.00810464 0.02352375 0.01719133
v 0.05623995 0.03171658 0.00236458
v 0.04582255 0.04251207 0.01350077
v 0.04350447 0.02910685 0.01635279
v 0.02241905 0.04453400 0.01455708
v 0.03966700 0.04570409 0.00247246
v 0.00808876 0.02352654 0.00241123
v 0.05473299 0.03218911 0.01453907
v 0.05402763 0.03523343 0.00250059
v 0.05050990 0.03194677 0.01721520
v 0.01959415 0.02414405 0.00267860
v 0.02442891 0.04568230 0.00247917
v 0.00921688 0.03535711 0.01440004
v 0.03673439 0.04674199 0.01330217
v 0.03276427 0.03716570 0.01823510
v 0.04271689 0.04456964 0.00464458
v 0.04869744 0.03772387 0.01617052
v 0.04953786 0.03957307 0.01291643
v 0.05517260 0.03171070 0.01433503
v 0.05589814 0.03251271 0.00230887
v 0.01989704 0.02413069 0.01358924
v 0.01719847 0.04355737 0.00585631
v 0.03164242 0.04682146 0.00365388
v 0.01830229 0.04357812 0.00243841
v 0.01395743 0.03774661 0.01601535
v 0.00846856 0.03150318 0.01591421
v 0.03672694 0.04313907 0.01605260
v 0.03459055 0.03707174 0.01823420
v 0.04357182 0.04388627 0.00245936
v 0.03955840 0.04583957 0.01348055
v 0.05403549 0.03261124 0.01501307
v 0.04778078 0.04049612 0.01433779
v 0.05275940 0.03637202 0.01089387
v 0.05410498 0.03170980 0.01539806
v 0.02069469 0.02425022 0.01010513
v 0.01521421 0.02371025 0.01608346
v 0.02224883 0.04570010 0.01081207
v 0.01040314 0.03742278 0.01357599
v 0.03563455 0.04681274 0.00367630
v 0.00925464 0.03644292 0.00250432
v 0.02034396 0.04453781 0.00364261
v 0.02089523 0.04119383 0.01603924
v 0.00924635 0.03443496 0.01551339
v 0.00983276 0.03387090 0.01596972
v 0.02952342 0.04671225 0.01352031
v 0.03777325 0.04011197 0.01717697
v 0.03152215 0.03463339 0.01829210
v 0.04673636 0.04156284 0.00244171
v 0.04247450 0.04465106 0.00876827
v 0.03759469 0.04596902 0.01406597
v 0.03755403 0.04680047 0.01188263
v 0.05078514 0.03770517 0.01417120
v 0.04475588 0.04189743 0.01517481
v 0.05385250 0.03525745 0.00765517
v 0.05484256 0.03331504 0.01172428
v 0.05195456 0.03353178 0.01599775
v 0.02737259 0.04688526 0.01094583
v 0.01729943 0.04353521 0.01076558
v 0.01731891 0.04163512 0.01506404
v 0.00927026 0.03641356 0.01265497
vn 0.32408876 0.17889037 0.92895894
vn 0.92546293 -0.36549093 0.09967323
vn 0.22195836 0.97391924 -0.04707226
vn -0.53228214 0.52754266 -0.66209853
vn -0.58850175 -0.55370014 0.58913652
vn 0.73289587 -0.38500376 -0.56092402
vn 0.53155099 0.80079958 0.27599562
vn 0.17759825 -0.84303675 0.50768878
vn -0.22793476 0.73207753 0.64195657
vn 0.22253895 0.66307676 -0.71470667
vn -0.58648967 -0.56853469 -0.57688663
vn 0.72434731 0.46554174 0.50851929
vn 0.60457659 0.54437713 -0.58149866
vn 0.26669228 -0.36862526 0.89050022
vn 0.10414131 -0.77960285 -0.61755484
vn -0.14972214 0.68636679 -0.71167683
vn -0.84910531 0.42734581 0.31047661
vn 0.08993349 0.91645425 0.38990200
vn -0.03397271 0.19618644 0.97997793
vn 0.48247043 0.87499466 -0.04008279
vn 0.38786566 0.43513774 0.81253639
vn 0.67215953 0.72260724 0.16137020
vn 0.84230058 -0.32490497 0.43007731
vn 0.63629834 0.33410350 -0.69534112
vn 0.15436268 -0.98514279 0.07527186
vn -0.51318333 0.85592991 -0.06345748
vn -0.02892156 0.92914679 -0.36857805
vn -0.31491819 0.60762803 -0.72911914
vn -0.30187400 0.37638791 0.87590195
vn -0.81664242 0.17020180 0.55147667
vn 0.05621452 0.46495413 0.88354829
vn 0.04439885 0.14040540 0.98909811
vn 0.37930331 0.60692067 -0.69840984
vn 0.35878518 0.84414319 0.39836599
vn 0.62015173 0.42995242 0.65616519
vn 0.55882836 0.66675926 0.49309527
vn 0.76029990 0.64019121 0.10999669
vn 0.57355802 -0.38910724 0.72085141
vn 0.16792316 -0.98579593 -0.00286278
vn 0.10497187 -0.92469176 0.36595910
vn -0.30759201 0.94377202 0.12116738
vn -0.63783802 0.69067625 0.34077702
vn 0.05024174 0.93570993 -0.34917429
vn -0.70628028 0.29312256 -0.64439687
vn -0.32369150 0.93751032 -0.12766447
vn -0.12372570 0.35168422 0.92790633
vn -0.68412209 0.38421917 0.61996177
vn -0.29406490 0.22632405 0.92860285
vn -0.06034481 0.85869016 0.50892997
vn 0.09456272 0.31641633 0.94389544
vn -0.00961466 -0.04824297 0.99878935
vn 0.44551203 0.56760010 -0.69235046
vn 0.46413967 0.88546344 0.02299716
vn 0.13900209 0.67625765 0.72343211
vn 0.21583140 0.97460545 0.05967423
vn 0.68754481 0.58858044 0.42527074
vn 0.31579608 0.58294280 0.74863244
vn 0.78596407 0.61726895 0.03520688
vn 0.80704392 0.56038436 0.18614368
vn 0.51948835 0.36560740 0.77231023
vn -0.14463831 0.98662830 0.07512893
vn -0.51517423 0.84139532 0.16324649
vn -0.38115007 0.64565519 0.66170537
vn -0.87190366 0.48023247 0.09571198
f 14//14 5//5 8//8
f 15//15 6//6 2//2
f 15//15 11//11 6//6
f 20//20 10//10 3//3
f 23//23 8//8 2//2
f 24//24 13//13 2//2
f 24//24 2//2 6//6
f 24//24 6//6 11//11
f 25//25 2//2 8//8
f 27//27 10//10 16//16
f 28//28 4//4 26//26
f 28//28 24//24 11//11
f 28//28 16//16 10//10
f 28//28 10//10 24//24
f 29//29 5//5 19//19
f 30//30 11//11 5//5
f 32//32 14//14 1//1
f 33//33 10//10 20//20
f 33//33 24//24 10//10
f 36//36 22//22 7//7
f 37//37 13//13 22//22
f 38//38 14//14 8//8
f 38//38 8//8 23//23
f 38//38 1//1 14//14
f 38//38 23//23 12//12
f 38//38 12//12 35//35
f 39//39 25//25 15//15
f 39//39 15//15 2//2
f 39//39 2//2 25//25
f 40//40 25//25 8//8
f 40//40 8//8 5//5
f 40//40 5//5 11//11
f 40//40 11//11 15//15
f 40//40 15//15 25//25
f 43//43 3//3 10//10
f 43//43 10//10 27//27
f 44//44 28//28 11//11
f 44//44 4//4 28//28
f 44//44 11//11 30//30
f 45//45 28//28 26//26
f 45//45 16//16 28//28
f 45//45 41//41 16//16
f 45//45 26//26 41//41
f 46//46 29//29 19//19
f 46//46 31//31 9//9
f 46//46 19//19 31//31
f 47//47 17//17 30//30
f 47//47 42//42 17//17
f 48//48 30//30 5//5
f 48//48 5//5 29//29
f 48//48 47//47 30//30
f 48//48 29//29 47//47
f 49//49 9//9 31//31
f 49//49 41//41 9//9
f 50//50 32//32 1//1
f 50//50 1//1 21//21
f 50//50 31//31 19//19
f 50//50 19//19 32//32
f 51//51 32//32 19//19
f 51//51 19//19 5//5
f 51//51 5//5 14//14
f 51//51 14//14 32//32
f 52//52 13//13 24//24
f 52//52 24//24 33//33
f 52//52 22//22 13//13
f 52//52 7//7 22//22
f 52//52 33//33 20//20
f 52//52 20//20 7//7
f 53//53 34//34 7//7
f 53//53 7//7 20//20
f 54//54 34//34 18//18
f 54//54 49//49 31//31
f 54//54 18//18 49//49
f 55//55 18//18 34//34
f 55//55 3//3 43//43
f 55//55 34//34 53//53
f 55//55 53//53 20//20
f 55//55 20//20 3//3
f 56//56 36//36 21//21
f 56//56 21//21 35//35
f 56//56 35//35 12//12
f 56//56 22//22 36//36
f 56//56 37//37 22//22
f 56//56 12//12 23//23
f 57//57 21//21 36//36
f 57//57 34//34 54//54
f 57//57 54//54 31//31
f 57//57 50//50 21//21
f 57//57 31//31 50//50
f 57//57 36//36 7//7
f 57//57 7//7 34//34
f 58//58 37//37 2//2
f 58//58 2//2 13//13
f 58//58 13//13 37//37
f 59//59 23//23 2//2
f 59//59 2//2 37//37
f 59//59 56//56 23//23
f 59//59 37//37 56//56
f 60//60 38//38 35//35
f 60//60 35//35 21//21
f 60//60 21//21 1//1
f 60//60 1//1 38//38
f 61//61 27//27 16//16
f 61//61 16//16 41//41
f 61//61 41//41 49//49
f 61//61 49//49 18//18
f 61//61 18//18 55//55
f 61//61 55//55 43//43
f 61//61 43//43 27//27
f 62//62 26//26 4//4
f 62//62 4//4 42//42
f 62//62 41//41 26//26
f 62//62 9//9 41//41
f 63//63 62//62 42//42
f 63//63 9//9 62//62
f 63//63 46//46 9//9
f 63//63 29//29 46//46
f 63//63 47//47 29//29
f 63//63 42//42 47//47
f 64//64 44//44 30//30
f 64//64 30//30 17//17
f 64//64 17//17 42//42
f 64//64 42//42 4//4
f 64//64 4//4 44//44

