# https://github.com/mikedh/trimesh
v -0.04425237 -0.03276940 0.01928938
v -0.04415668 -0.04320235 0.01740384
v -0.04433455 -0.03621413 -0.01464769
v -0.06905583 -0.01717937 -0.01599077
v -0.07467095 -0.01732243 0.01367609
v -0.06613292 -0.03587300 -0.01315434
v -0.04417090 -0.02884801 0.00120174
v -0.05965946 -0.03333063 0.02025550
v -0.04417680 -0.04484502 -0.01168773
v -0.06358674 -0.03345797 -0.01838223
v -0.07083457 -0.02839819 -0.01314644
v -0.06285170 -0.01775873 -0.01598747
v -0.06127282 -0.01530972 0.01200692
v -0.04413821 -0.03098592 0.01823204
v -0.04421494 -0.04142173 0.01921381
v -0.06546425 -0.02286948 0.01912769
v -0.06188984 -0.03938710 0.01313476
v -0.04414952 -0.03404817 -0.01376900
v -0.05338390 -0.04306751 -0.01267772
v -0.04415602 -0.04072799 -0.01478927
v -0.07340222 -0.01730495 -0.00957589
v -0.06714324 -0.03386568 -0.01539811
v -0.06883928 -0.02862753 -0.01578749
v -0.06343488 -0.03126563 -0.01820981
v -0.04451130 -0.02870539 0.01498117
v -0.05763091 -0.03354571 0.02049274
v -0.06974936 -0.02442610 0.01676633
v -0.07041950 -0.01772538 0.01686462
v -0.06508144 -0.01795302 0.01674773
v -0.05235123 -0.04210256 0.01795928
v -0.06708761 -0.03489043 0.01271266
v -0.04428216 -0.03133549 -0.00940857
v -0.06388412 -0.03830013 -0.00857396
v -0.06163422 -0.03304161 -0.01829931
v -0.04896989 -0.04154355 -0.01451219
v -0.07429776 -0.02236557 0.00904321
v -0.07106224 -0.01737221 -0.01412640
v -0.06962202 -0.03134528 -0.01312962
v -0.06659010 -0.03469066 -0.01523781
v -0.06948237 -0.02945926 -0.01495012
v -0.06716759 -0.03283663 -0.01600258
v -0.04443712 -0.02993438 0.01720419
v -0.05996543 -0.03002579 0.02051986
v -0.06749865 -0.02480072 0.01802934
v -0.06174609 -0.01540203 0.01299303
v -0.07283371 -0.01774112 0.01571295
v -0.06283844 -0.02306346 0.01898904
v -0.06147237 -0.03645635 0.01800472
v -0.05347782 -0.04017678 0.01921896
v -0.04989871 -0.04316799 0.01726246
v -0.06959295 -0.03044436 0.01405167
v -0.04421233 -0.03227106 -0.01164322
v -0.05224034 -0.04427039 -0.01138135
v -0.06583975 -0.03614114 0.01388443
v -0.06150668 -0.03161802 -0.01817529
v -0.05371292 -0.04217229 -0.01339820
v -0.04542162 -0.04167629 -0.01452632
v -0.04418663 -0.04272243 -0.01396004
v -0.07074142 -0.02948738 -0.01211775
v -0.07458474 -0.01754059 0.00604256
v -0.06722787 -0.03474031 0.01001376
v -0.05453473 -0.04309017 -0.01161847
v -0.06523900 -0.03375843 -0.01722444
v -0.06547182 -0.02366010 0.01907864
vn 0.66665281 0.14647816 0.73083389
vn 0.63065434 -0.70680367 0.32047413
vn 0.65278936 0.11238312 -0.74915692
vn -0.30109177 0.64695679 -0.70056453
vn -0.79369929 0.50073150 0.34541192
vn -0.64802757 -0.73848306 -0.18628750
vn 0.88123600 0.46953286 -0.05442436
vn -0.31334915 -0.23910907 0.91904253
vn 0.59909874 -0.75166187 -0.27583534
vn -0.24159086 -0.31096091 -0.91920464
vn -0.91134286 -0.19328677 -0.36344795
vn 0.28453038 0.71331891 -0.64048309
vn 0.29542546 0.95183618 0.08204690
vn 0.78225501 0.37556857 0.49701645
vn 0.61741132 -0.32577462 0.71601268
vn -0.17338985 0.18420080 0.96747404
vn -0.49354557 -0.84124857 0.22071158
vn 0.82110087 0.28493192 -0.49457776
vn -0.23956670 -0.75544234 -0.60984807
vn 0.70745888 -0.15238498 -0.69013097
vn -0.79228777 0.57476358 -0.20476064
vn -0.72897267 -0.49653097 -0.47122801
vn -0.62337237 -0.08700543 -0.77706946
vn -0.05072879 0.11148460 -0.99247054
vn 0.80804583 0.56732582 0.15875563
vn -0.03207905 -0.10966272 0.99345107
vn -0.63038167 -0.22324648 0.74349173
vn -0.25599803 0.57559002 0.77663450
vn 0.13353828 0.62809190 0.76659513
vn -0.27012401 -0.79412007 0.54443212
vn -0.79864560 -0.59163494 0.11015126
vn 0.83696629 0.52341975 -0.15974727
vn -0.59011280 -0.80491308 -0.06230416
vn 0.11193332 -0.05225744 -0.99234071
vn -0.05726467 -0.56757426 -0.82132832
vn -0.95440947 -0.28909003 0.07436070
vn -0.67429562 0.55764699 -0.48410251
vn -0.84355965 -0.48929179 -0.22136092
vn -0.60503032 -0.66915707 -0.43147089
vn -0.77911334 -0.22997941 -0.58317397
vn -0.66541016 -0.30222568 -0.68256059
vn 0.66727043 0.62415467 0.40642480
vn -0.10839427 0.05641475 0.99250595
vn -0.46707874 -0.14765290 0.87180048
vn 0.18815700 0.90470565 0.38223636
vn -0.55662731 0.42742889 0.71236969
vn 0.14118900 0.37061267 0.91799342
vn -0.48978350 -0.52878223 0.69318214
vn -0.20855246 -0.47096846 0.85714326
vn -0.13623588 -0.90456858 0.40397460
vn -0.80416393 -0.43751670 0.40236738
vn 0.86852305 0.42806424 -0.24985740
vn -0.22054968 -0.93485673 -0.27820988
vn -0.67721147 -0.65002883 0.34474216
vn 0.14169042 0.12340756 -0.98218858
vn -0.15207742 -0.63260094 -0.75940010
vn 0.02846054 -0.41637714 -0.90874643
vn 0.63879681 -0.46805535 -0.61062495
vn -0.91972324 -0.37286904 -0.12279189
vn -0.90768023 0.41674630 -0.04938743
vn -0.80066182 -0.59906828 0.00760580
vn -0.44361312 -0.86308654 -0.24143119
vn -0.48822864 -0.47190495 -0.73412432
vn -0.37806264 -0.07510769 0.92272828
f 13//13 7//7 12//12
f 13//13 12//12 4//4
f 15//15 14//14 1//1
f 15//15 2//2 14//14
f 18//18 7//7 14//14
f 18//18 3//3 12//12
f 20//20 3//3 18//18
f 20//20 2//2 9//9
f 20//20 18//18 14//14
f 20//20 14//14 2//2
f 21//21 13//13 4//4
f 21//21 5//5 13//13
f 23//23 4//4 10//10
f 24//24 10//10 4//4
f 24//24 4//4 12//12
f 25//25 14//14 7//7
f 25//25 7//7 13//13
f 26//26 15//15 1//1
f 29//29 1//1 14//14
f 29//29 28//28 16//16
f 32//32 12//12 7//7
f 34//34 20//20 10//10
f 34//34 3//3 20//20
f 34//34 10//10 24//24
f 37//37 21//21 4//4
f 37//37 11//11 21//21
f 37//37 4//4 23//23
f 39//39 38//38 22//22
f 39//39 6//6 38//38
f 40//40 37//37 23//23
f 40//40 11//11 37//37
f 40//40 38//38 11//11
f 40//40 22//22 38//38
f 41//41 40//40 23//23
f 41//41 22//22 40//40
f 42//42 14//14 25//25
f 43//43 8//8 26//26
f 43//43 26//26 1//1
f 44//44 27//27 8//8
f 45//45 13//13 5//5
f 45//45 5//5 28//28
f 45//45 28//28 29//29
f 45//45 29//29 14//14
f 45//45 14//14 42//42
f 45//45 42//42 25//25
f 45//45 25//25 13//13
f 46//46 28//28 5//5
f 46//46 5//5 27//27
f 46//46 27//27 44//44
f 46//46 44//44 16//16
f 46//46 16//16 28//28
f 47//47 29//29 16//16
f 47//47 1//1 29//29
f 47//47 43//43 1//1
f 47//47 16//16 43//43
f 48//48 17//17 30//30
f 48//48 8//8 27//27
f 49//49 26//26 8//8
f 49//49 48//48 30//30
f 49//49 8//8 48//48
f 49//49 30//30 15//15
f 49//49 15//15 26//26
f 50//50 2//2 15//15
f 50//50 15//15 30//30
f 50//50 9//9 2//2
f 50//50 30//30 17//17
f 51//51 27//27 5//5
f 51//51 5//5 36//36
f 51//51 48//48 27//27
f 52//52 18//18 12//12
f 52//52 12//12 32//32
f 52//52 32//32 7//7
f 52//52 7//7 18//18
f 53//53 17//17 33//33
f 53//53 50//50 17//17
f 53//53 19//19 9//9
f 53//53 9//9 50//50
f 54//54 33//33 17//17
f 54//54 31//31 33//33
f 54//54 17//17 48//48
f 54//54 51//51 31//31
f 54//54 48//48 51//51
f 55//55 34//34 24//24
f 55//55 24//24 12//12
f 55//55 12//12 3//3
f 55//55 3//3 34//34
f 56//56 35//35 19//19
f 56//56 19//19 10//10
f 56//56 10//10 35//35
f 57//57 35//35 10//10
f 57//57 10//10 20//20
f 58//58 9//9 19//19
f 58//58 19//19 35//35
f 58//58 35//35 57//57
f 58//58 57//57 20//20
f 58//58 20//20 9//9
f 59//59 36//36 21//21
f 59//59 21//21 11//11
f 59//59 11//11 38//38
f 59//59 51//51 36//36
f 59//59 31//31 51//51
f 60//60 36//36 5//5
f 60//60 5//5 21//21
f 60//60 21//21 36//36
f 61//61 38//38 6//6
f 61//61 59//59 38//38
f 61//61 31//31 59//59
f 61//61 33//33 31//31
f 61//61 6//6 33//33
f 62//62 39//39 19//19
f 62//62 6//6 39//39
f 62//62 19//19 53//53
f 62//62 53//53 33//33
f 62//62 33//33 6//6
f 63//63 39//39 22//22
f 63//63 10//10 19//19
f 63//63 19//19 39//39
f 63//63 22//22 41//41
f 63//63 41//41 23//23
f 63//63 23//23 10//10
f 64//64 43//43 16//16
f 64//64 8//8 43//43
f 64//64 44//44 8//8
f 64//64 16//16 44//44

