# https://github.com/mikedh/trimesh
v 0.05633851 0.03632822 -0.00396897
v 0.05891012 0.03188594 -0.00408536
v 0.05238023 0.04183981 -0.02217519
v 0.02128968 0.03920253 -0.02083581
v 0.01892231 0.03207867 -0.00405833
v 0.05594462 0.03179500 -0.02003918
v 0.02764280 0.04700394 -0.00395489
v 0.05336902 0.04246976 -0.02143688
v 0.01892212 0.03208414 -0.02094993
v 0.05863833 0.03155847 -0.01244045
v 0.02354148 0.04582469 -0.00395128
v 0.05820901 0.03360750 -0.00416069
v 0.04407081 0.04601363 -0.00398018
v 0.02809579 0.04576780 -0.01899413
v 0.05807823 0.03182235 -0.01927497
v 0.02107510 0.03538198 -0.02101833
v 0.05167401 0.03777427 -0.02197452
v 0.01926295 0.04402350 -0.00398997
v 0.04102159 0.04706457 -0.00393562
v 0.05811109 0.03352592 -0.00815821
v 0.04904723 0.04265762 -0.00402785
v 0.03264260 0.04580958 -0.01907559
v 0.02564144 0.04214941 -0.02085316
v 0.02771992 0.04685873 -0.01448970
v 0.04901337 0.03856944 -0.02203706
v 0.05085457 0.03319066 -0.02099530
v 0.01937136 0.03992850 -0.01996654
v 0.05262987 0.04288135 -0.02133071
v 0.04588270 0.04498106 -0.00401020
v 0.03153129 0.04499561 -0.01994026
v 0.03054546 0.04689219 -0.01663128
v 0.02362926 0.04565937 -0.01344476
v 0.02373943 0.04294163 -0.01977565
v 0.02799695 0.04476817 -0.01996127
v 0.02891814 0.04683789 -0.01652732
v 0.03699692 0.04688296 -0.01564550
v 0.02061316 0.04467290 -0.00403115
v 0.01971578 0.04354066 -0.01444824
v 0.02050633 0.04096631 -0.01983668
v 0.02276755 0.04468855 -0.01644865
v 0.03792257 0.04586460 -0.01800288
v 0.03994978 0.04674476 -0.01246840
v 0.02059256 0.04462433 -0.00506338
v 0.02171860 0.04462696 -0.01447771
v 0.01974113 0.04148312 -0.01912269
v 0.02582576 0.04560752 -0.01723789
v 0.04083221 0.04681638 -0.00944769
v 0.02200712 0.04372440 -0.01814103
v 0.01984740 0.04259023 -0.01735804
vn 0.53814119 0.43867341 0.71970112
vn 0.69890432 -0.45121227 0.55492363
vn 0.21371246 0.26369918 -0.94063262
vn -0.20941471 0.18986749 -0.95921625
vn -0.59001724 -0.56780200 0.57400396
vn 0.18081303 -0.71999351 -0.67001193
vn -0.10672125 0.73501361 0.66960105
vn 0.66105511 0.59678686 -0.45480940
vn -0.60482299 -0.55192171 -0.57408325
vn 0.82139962 -0.56833487 -0.04793887
vn -0.23565099 0.68167119 0.69267092
vn 0.76605292 0.38923939 0.51152285
vn 0.29006959 0.67362581 0.67977047
vn -0.18570453 0.82555159 -0.53289624
vn 0.75779400 -0.47930271 -0.44273826
vn -0.07150693 0.03441365 -0.99684626
vn 0.12817891 -0.12775559 -0.98348802
vn -0.67269787 0.44388004 0.59198656
vn 0.12345812 0.73747319 0.66399652
vn 0.91978257 0.39026652 -0.04113473
vn 0.44055875 0.55739700 0.70371626
vn 0.02816945 0.83958274 -0.54250098
vn -0.14697244 0.30373538 -0.94135218
vn -0.19204941 0.97765491 -0.08548626
vn -0.01753700 -0.05964401 -0.99806565
vn 0.04202772 -0.35916664 -0.93232666
vn -0.76929595 0.26591515 -0.58092416
vn 0.29652156 0.86118514 -0.41283788
vn 0.38717209 0.60394283 0.69667125
vn -0.01623350 0.61290770 -0.78998773
vn -0.00785110 0.97550206 -0.21985015
vn -0.35978315 0.92795238 -0.09726490
vn -0.30210533 0.58123467 -0.75557834
vn -0.14734910 0.56482099 -0.81195165
vn -0.14259301 0.96658176 -0.21304208
vn 0.07833575 0.97849143 -0.19083508
vn -0.36250394 0.82527903 0.43301895
vn -0.79245329 0.59691472 -0.12534188
vn -0.31253333 0.48110183 -0.81906285
vn -0.39638830 0.88132839 -0.25717035
vn 0.08674563 0.91307147 -0.39846668
vn 0.16857938 0.98165858 -0.08903612
vn -0.42692603 0.90334730 -0.04120469
vn -0.44836456 0.88255498 -0.14165427
vn -0.69893416 0.52459747 -0.48609519
vn -0.32910035 0.90089899 -0.28297344
vn 0.18315110 0.98140475 -0.05744904
vn -0.41940999 0.77294589 -0.47607763
vn -0.75614231 0.59504099 -0.27235093
f 5//5 2//2 1//1
f 10//10 2//2 5//5
f 10//10 9//9 6//6
f 10//10 5//5 9//9
f 11//11 5//5 1//1
f 12//12 8//8 1//1
f 12//12 1//1 2//2
f 15//15 6//6 3//3
f 15//15 3//3 8//8
f 15//15 10//10 6//6
f 16//16 9//9 4//4
f 16//16 4//4 3//3
f 16//16 3//3 9//9
f 17//17 3//3 6//6
f 18//18 9//9 5//5
f 18//18 5//5 11//11
f 19//19 11//11 1//1
f 19//19 7//7 11//11
f 19//19 1//1 13//13
f 20//20 8//8 12//12
f 20//20 15//15 8//8
f 20//20 10//10 15//15
f 20//20 12//12 2//2
f 20//20 2//2 10//10
f 21//21 1//1 8//8
f 23//23 3//3 4//4
f 24//24 11//11 7//7
f 25//25 17//17 9//9
f 25//25 9//9 3//3
f 25//25 3//3 17//17
f 26//26 17//17 6//6
f 26//26 6//6 9//9
f 26//26 9//9 17//17
f 27//27 4//4 9//9
f 27//27 9//9 18//18
f 27//27 23//23 4//4
f 28//28 19//19 13//13
f 28//28 13//13 8//8
f 28//28 8//8 3//3
f 29//29 21//21 8//8
f 29//29 8//8 13//13
f 29//29 13//13 1//1
f 29//29 1//1 21//21
f 30//30 14//14 22//22
f 30//30 28//28 3//3
f 30//30 22//22 28//28
f 31//31 22//22 14//14
f 31//31 24//24 7//7
f 31//31 7//7 19//19
f 32//32 11//11 24//24
f 34//34 14//14 30//30
f 34//34 33//33 14//14
f 34//34 23//23 33//33
f 34//34 30//30 3//3
f 34//34 3//3 23//23
f 35//35 31//31 14//14
f 35//35 24//24 31//31
f 35//35 32//32 24//24
f 36//36 22//22 31//31
f 36//36 31//31 19//19
f 37//37 18//18 11//11
f 37//37 11//11 32//32
f 38//38 27//27 18//18
f 39//39 33//33 23//23
f 39//39 23//23 27//27
f 41//41 36//36 28//28
f 41//41 28//28 22//22
f 41//41 22//22 36//36
f 42//42 28//28 36//36
f 43//43 37//37 32//32
f 43//43 32//32 18//18
f 43//43 18//18 37//37
f 44//44 38//38 18//18
f 44//44 18//18 32//32
f 44//44 40//40 38//38
f 44//44 32//32 40//40
f 45//45 39//39 27//27
f 45//45 27//27 38//38
f 45//45 33//33 39//39
f 46//46 35//35 14//14
f 46//46 40//40 32//32
f 46//46 32//32 35//35
f 47//47 42//42 36//36
f 47//47 36//36 19//19
f 47//47 19//19 28//28
f 47//47 28//28 42//42
f 48//48 38//38 40//40
f 48//48 14//14 33//33
f 48//48 33//33 45//45
f 48//48 46//46 14//14
f 48//48 40//40 46//46
f 49//49 48//48 45//45
f 49//49 45//45 38//38
f 49//49 38//38 48//48

