# https://github.com/mikedh/trimesh
v -0.00165186 0.00869834 0.01469434
v 0.00695406 0.00944338 0.01097688
v -0.00471441 0.00881465 0.01459405
v -0.00450367 0.00878620 -0.01655486
v -0.02654997 -0.03791367 -0.01029729
v 0.00502272 0.00942154 -0.01433243
v 0.00227123 0.00902294 0.01347111
v -0.03266091 -0.03470491 0.01683060
v 0.00205451 0.00923859 -0.01640867
v -0.00927982 -0.02757293 -0.01129960
v -0.00838118 -0.01573141 0.01674279
v -0.03282775 -0.02418932 0.01304154
v -0.00391168 -0.02011291 -0.00537040
v -0.00585135 -0.01725398 -0.01387347
v -0.01625900 -0.03354022 0.01394334
v -0.03260119 -0.02774532 0.01681123
v -0.00097109 0.00578431 0.01451945
v 0.00594595 0.00928251 0.01191802
v -0.01321935 0.00033154 0.01190935
v -0.03251120 -0.02886425 -0.01211486
v 0.00629902 0.00930011 -0.01258953
v -0.00126658 -0.00042170 -0.01605066
v -0.01271147 -0.02483323 -0.01500097
v -0.02831297 -0.03791576 0.00923358
v -0.01600895 -0.03480669 -0.01019730
v -0.01815286 -0.03078681 0.01671773
v -0.00828939 -0.02668301 0.01134732
v -0.03276285 -0.02526469 0.01498669
v -0.00829604 -0.01784782 0.01672166
v -0.00105875 0.00774464 0.01453258
v -0.03252990 -0.02431411 0.00098454
v -0.03253507 -0.03831149 -0.01029375
v 0.00709480 0.00926155 0.00533012
v -0.00594069 -0.01933311 -0.01301425
v -0.00416466 -0.00048549 -0.01713743
v -0.00983038 -0.02158097 -0.01500732
v -0.02423145 -0.03685022 0.01380818
v -0.01189080 -0.02862326 -0.01277317
v -0.01998162 -0.03321980 -0.01266992
v -0.01126148 -0.03051981 -0.01038273
v -0.00306276 -0.01735303 0.01113298
v -0.01436256 -0.03258709 0.01030795
v -0.03272656 -0.03633233 0.01590145
v -0.03250130 -0.02618478 0.01588605
v -0.00706980 -0.01935619 0.01587781
v -0.01314488 -0.00005760 0.00096545
v -0.03262726 -0.02649066 -0.00829948
v -0.00403700 -0.01711198 -0.01126911
v -0.00049805 0.00880580 -0.01724491
v -0.00307927 0.00079940 -0.01711312
v -0.03254320 -0.03556200 -0.01277032
v -0.00803720 -0.02354789 -0.01291648
v -0.02234302 -0.03475195 0.01592737
v -0.02047703 -0.03567233 0.01335127
v -0.02217424 -0.03681491 -0.00139271
v -0.00979242 -0.02466969 -0.01371040
v -0.02422514 -0.03620347 -0.01174217
v -0.01693350 -0.03394958 -0.01165850
v -0.00402516 -0.02045779 -0.00138162
v -0.00997957 -0.02669470 -0.01282115
v -0.01406259 -0.03184944 -0.01171379
v 0.00248808 -0.00322865 0.00994251
v -0.01221606 -0.03053744 0.01219073
v -0.01221730 -0.03158976 -0.00994970
vn 0.11636339 0.55677894 0.82246992
vn 0.77587332 0.53664138 0.33171767
vn -0.32518492 0.73256192 0.59800317
vn -0.41018035 0.70063144 -0.58383873
vn 0.13656236 -0.91792355 -0.37251452
vn 0.57031717 0.58507858 -0.57655995
vn 0.24202454 0.63012109 0.73781538
vn -0.61013237 -0.20881263 0.76428776
vn 0.34202747 0.61718583 -0.70858934
vn 0.76009745 -0.54853398 -0.34837097
vn 0.11460060 0.03428605 0.99281981
vn -0.92044091 0.37281148 0.11747392
vn 0.88940676 -0.44653992 -0.09776353
vn 0.60560244 -0.27962569 -0.74502024
vn 0.51425742 -0.72755991 0.45408797
vn -0.66342782 0.10268601 0.74116065
vn 0.29481714 -0.00058398 0.95555351
vn 0.45067748 0.54698738 0.70547474
vn -0.74567939 0.64396773 0.17107836
vn -0.78754845 0.18549248 -0.58767336
vn 0.84034465 0.46359155 -0.28089810
vn 0.50794570 -0.22710924 -0.83091068
vn 0.15911344 -0.25452316 -0.95388724
vn -0.00547966 -0.99627633 0.08604335
vn 0.46122694 -0.83401808 -0.30279292
vn 0.24491807 -0.27964889 0.92833810
vn 0.76068858 -0.57382312 0.30344671
vn -0.87708996 0.31789127 0.36008102
vn 0.25349557 -0.09001891 0.96313893
vn 0.28753504 0.01082606 0.95770893
vn -0.90912933 0.41302712 -0.05378155
vn -0.59926121 -0.73599285 -0.31496115
vn 0.93203999 0.36205373 -0.01478379
vn 0.74327815 -0.36690939 -0.55938814
vn -0.00702718 -0.04908356 -0.99876995
vn 0.36496435 -0.24302250 -0.89874417
vn 0.18772421 -0.91840890 0.34825954
vn 0.43372557 -0.50449965 -0.74656696
vn 0.12677092 -0.40820331 -0.90404601
vn 0.71040795 -0.63645200 -0.30041538
vn 0.87617679 -0.38830953 0.28553449
vn 0.60391311 -0.79457849 0.06272139
vn -0.61191738 -0.63477394 0.47182535
vn -0.60931812 0.43967235 0.65986336
vn 0.59598300 -0.31119851 0.74024304
vn -0.76565673 0.64182185 -0.04283083
vn -0.93253128 0.32740463 -0.15228799
vn 0.86542252 -0.37731656 -0.32966054
vn 0.06737513 0.50419832 -0.86095566
vn 0.24188578 -0.11828387 -0.96306812
vn -0.63462187 -0.30040112 -0.71204933
vn 0.69794753 -0.38201239 -0.60575224
vn 0.20668131 -0.58420845 0.78484605
vn 0.36012059 -0.89342185 0.26853409
vn 0.28057389 -0.95965768 0.01831448
vn 0.48199591 -0.36615126 -0.79599824
vn 0.15112336 -0.62827872 -0.76316943
vn 0.28155192 -0.59710912 -0.75112530
vn 0.88318813 -0.46901774 0.00104430
vn 0.54374017 -0.45905356 -0.70257843
vn 0.46266776 -0.57431394 -0.67535327
vn 0.93142478 -0.34745173 0.10828280
vn 0.68287053 -0.66163424 0.30972242
vn 0.67566422 -0.72142709 -0.15172609
f 6//6 3//3 2//2
f 7//7 2//2 3//3
f 7//7 3//3 1//1
f 9//9 4//4 3//3
f 9//9 3//3 6//6
f 11//11 1//1 3//3
f 16//16 11//11 3//3
f 16//16 8//8 11//11
f 18//18 2//2 7//7
f 19//19 3//3 4//4
f 21//21 6//6 2//2
f 22//22 9//9 6//6
f 22//22 6//6 14//14
f 26//26 11//11 8//8
f 28//28 8//8 16//16
f 28//28 19//19 12//12
f 28//28 3//3 19//19
f 29//29 17//17 11//11
f 29//29 7//7 17//17
f 29//29 18//18 7//7
f 29//29 11//11 26//26
f 30//30 17//17 7//7
f 30//30 7//7 1//1
f 30//30 1//1 11//11
f 30//30 11//11 17//17
f 31//31 12//12 19//19
f 32//32 5//5 24//24
f 33//33 21//21 2//2
f 33//33 13//13 21//21
f 34//34 14//14 6//6
f 34//34 6//6 21//21
f 36//36 22//22 14//14
f 36//36 23//23 35//35
f 40//40 10//10 13//13
f 42//42 15//15 25//25
f 43//43 28//28 12//12
f 43//43 8//8 28//28
f 43//43 12//12 32//32
f 43//43 32//32 24//24
f 43//43 24//24 37//37
f 44//44 28//28 16//16
f 44//44 16//16 3//3
f 44//44 3//3 28//28
f 45//45 2//2 18//18
f 45//45 18//18 29//29
f 45//45 41//41 2//2
f 45//45 27//27 41//41
f 45//45 15//15 27//27
f 45//45 29//29 26//26
f 45//45 26//26 15//15
f 46//46 31//31 19//19
f 46//46 19//19 4//4
f 46//46 4//4 31//31
f 47//47 12//12 31//31
f 47//47 31//31 4//4
f 47//47 4//4 20//20
f 48//48 34//34 21//21
f 48//48 21//21 13//13
f 48//48 13//13 10//10
f 48//48 10//10 34//34
f 49//49 35//35 4//4
f 49//49 4//4 9//9
f 50//50 9//9 22//22
f 50//50 36//36 35//35
f 50//50 22//22 36//36
f 50//50 49//49 9//9
f 50//50 35//35 49//49
f 51//51 35//35 23//23
f 51//51 20//20 4//4
f 51//51 4//4 35//35
f 51//51 23//23 39//39
f 51//51 47//47 20//20
f 51//51 32//32 12//12
f 51//51 12//12 47//47
f 52//52 36//36 14//14
f 52//52 14//14 34//34
f 52//52 34//34 10//10
f 53//53 15//15 26//26
f 53//53 43//43 37//37
f 53//53 26//26 8//8
f 53//53 8//8 43//43
f 54//54 25//25 15//15
f 54//54 53//53 37//37
f 54//54 15//15 53//53
f 55//55 37//37 24//24
f 55//55 24//24 5//5
f 55//55 5//5 25//25
f 55//55 54//54 37//37
f 55//55 25//25 54//54
f 56//56 23//23 36//36
f 56//56 36//36 52//52
f 57//57 25//25 5//5
f 57//57 51//51 39//39
f 57//57 5//5 32//32
f 57//57 32//32 51//51
f 58//58 57//57 39//39
f 58//58 25//25 57//57
f 58//58 39//39 23//23
f 58//58 23//23 38//38
f 59//59 40//40 13//13
f 59//59 27//27 40//40
f 59//59 41//41 27//27
f 60//60 40//40 38//38
f 60//60 10//10 40//40
f 60//60 38//38 23//23
f 60//60 23//23 56//56
f 60//60 56//56 52//52
f 60//60 52//52 10//10
f 61//61 40//40 25//25
f 61//61 38//38 40//40
f 61//61 58//58 38//38
f 61//61 25//25 58//58
f 62//62 33//33 2//2
f 62//62 2//2 41//41
f 62//62 41//41 59//59
f 62//62 59//59 13//13
f 62//62 13//13 33//33
f 63//63 27//27 15//15
f 63//63 15//15 42//42
f 64//64 42//42 25//25
f 64//64 25//25 40//40
f 64//64 63//63 42//42
f 64//64 40//40 27//27
f 64//64 27//27 63//63

