# https://github.com/mikedh/trimesh
v 0.02883947 0.02782217 -0.00367361
v 0.00493630 0.02806776 -0.01957635
v 0.00320669 0.02087107 -0.00373956
v 0.00863412 0.02514293 -0.02072352
v 0.02875801 0.02863154 -0.01533891
v 0.00355725 0.02081803 -0.02009329
v 0.00103460 0.02917443 -0.00391303
v 0.01859862 0.02891984 -0.01995089
v 0.00759958 0.02398345 -0.02063890
v 0.01485962 0.02174881 -0.01586973
v 0.01448341 0.02109263 -0.00365129
v 0.00388368 0.02796884 -0.01894330
v 0.02871967 0.02784179 -0.00375421
v 0.00756286 0.02083763 -0.02078333
v 0.02870726 0.02848615 -0.01497673
v 0.00401597 0.02694553 -0.01931253
v 0.01056061 0.02497361 -0.02069589
v 0.01085158 0.02151202 -0.01954941
vn 0.81777358 0.11200368 0.56453658
vn -0.25053064 0.69058267 -0.67847622
vn -0.49561171 -0.63571788 0.59180386
vn -0.07069826 0.15022308 -0.98612108
vn 0.82250342 0.26422032 -0.50366234
vn -0.59217954 -0.56787941 -0.57169604
vn -0.67072193 0.52977447 0.51910606
vn 0.27144416 0.54311790 -0.79456970
vn -0.17685236 0.07818829 -0.98112682
vn 0.33701960 -0.92162825 -0.19240364
vn 0.17756531 -0.72734035 0.66290767
vn -0.67249988 0.60918037 -0.42028941
vn 0.07099626 0.99140337 0.10990400
vn 0.02950682 -0.68175952 -0.73098106
vn 0.69567871 -0.70825456 -0.12002756
vn -0.59835211 0.15837998 -0.78542379
vn 0.06702763 0.02736632 -0.99737575
vn 0.36368885 -0.77263295 -0.52035444
f 7//7 6//6 3//3
f 8//8 4//4 2//2
f 8//8 7//7 5//5
f 8//8 2//2 7//7
f 9//9 6//6 2//2
f 9//9 2//2 4//4
f 11//11 7//7 3//3
f 11//11 1//1 7//7
f 11//11 10//10 1//1
f 12//12 7//7 2//2
f 12//12 6//6 7//7
f 13//13 7//7 1//1
f 13//13 1//1 5//5
f 13//13 5//5 7//7
f 14//14 8//8 5//5
f 14//14 6//6 9//9
f 14//14 9//9 4//4
f 14//14 10//10 11//11
f 14//14 11//11 3//3
f 14//14 3//3 6//6
f 15//15 10//10 5//5
f 15//15 5//5 1//1
f 15//15 1//1 10//10
f 16//16 12//12 2//2
f 16//16 2//2 6//6
f 16//16 6//6 12//12
f 17//17 14//14 4//4
f 17//17 4//4 8//8
f 17//17 8//8 14//14
f 18//18 14//14 5//5
f 18//18 5//5 10//10
f 18//18 10//10 14//14

