# https://github.com/mikedh/trimesh
v -0.00151173 0.02677103 0.01524984
v -0.00182007 0.00899242 0.01732724
v -0.00128447 0.03287945 0.01019688
v -0.00106840 0.02683508 -0.01794324
v -0.01163884 0.00863291 0.00327559
v -0.00133707 0.03175657 0.01250180
v -0.01140225 0.00900025 0.01327302
v -0.00179467 0.00898685 -0.01986162
v -0.00519815 0.02542252 -0.00771877
v -0.00955457 0.00876537 0.01535419
v -0.00653968 0.02184653 0.01418509
v -0.00917998 0.00868874 -0.01464692
v -0.00109837 0.03035515 -0.01498957
v -0.00764991 0.01127665 0.01623424
v -0.00210804 0.02905376 0.01426143
v -0.00408416 0.02859933 0.01186081
v -0.01026293 0.01231576 0.01410348
v -0.00669705 0.01124410 -0.01763276
v -0.01007493 0.00976615 -0.01122435
v -0.00799744 0.00869761 -0.01664490
v -0.00404753 0.02895368 -0.00062271
v -0.00510261 0.02292995 -0.01463449
v -0.00760873 0.00890097 0.01642486
v -0.00290584 0.01607793 0.01635424
v -0.00219448 0.02672456 0.01507201
v -0.00147678 0.02948435 0.01443911
v -0.00190310 0.03126963 0.01215928
v -0.00431489 0.02753703 0.01308288
v -0.00835484 0.01447214 0.01496368
v -0.00887558 0.01954740 0.01107655
v -0.00158010 0.02081866 -0.01898135
v -0.01033507 0.00869848 -0.01128699
v -0.00695416 0.00891065 -0.01764327
v -0.00657607 0.01471973 -0.01666174
v -0.00400013 0.02769303 -0.00883158
v -0.00122588 0.03285426 0.00192447
v -0.00287849 0.03114508 0.00558345
v -0.00168796 0.02655993 -0.01753037
v -0.00645588 0.02059082 -0.01343499
v -0.00180386 0.03232318 0.00996235
v -0.00314368 0.02805959 0.01390920
v -0.00764334 0.02027144 0.01346781
v -0.01129070 0.01106505 0.01145119
v -0.00656888 0.02518103 0.00786521
v -0.01009215 0.01578518 0.00796073
v -0.00760162 0.02184667 0.01200202
v -0.00225207 0.02116691 -0.01865183
v -0.00466189 0.01362079 -0.01853405
v -0.00882246 0.01223803 -0.01334206
v -0.01013816 0.01089282 -0.00772483
v -0.00782668 0.00987274 -0.01650113
v -0.00169346 0.03098211 -0.00891644
v -0.00633873 0.02538638 0.00577753
v -0.00271923 0.02886853 -0.01246721
v -0.00176509 0.03222477 0.00205780
v -0.00407154 0.02300153 -0.01650322
v -0.00518161 0.02410318 -0.01250534
v -0.00638531 0.01937225 -0.01431132
v -0.00280317 0.03101145 0.00996527
v -0.00555374 0.02390205 0.01399449
v -0.01119347 0.00982110 0.01331013
v -0.01009222 0.01585430 0.01032772
v -0.01131220 0.01092041 0.00575688
v -0.00762115 0.02179767 0.00332546
vn 0.57839319 0.16790634 0.79829116
vn 0.52746026 -0.53363542 0.66107406
vn 0.32523380 0.91922684 0.22191212
vn 0.40706105 0.41199551 -0.81520611
vn -0.77414210 -0.63120898 -0.04774134
vn 0.35430485 0.76477167 0.53813787
vn -0.80585013 -0.50720972 0.30552229
vn 0.45094301 -0.54358995 -0.70792681
vn -0.91379574 0.39568635 -0.09170418
vn -0.47866900 -0.63869831 0.60244541
vn -0.66150221 0.32079742 0.67786713
vn -0.72395242 -0.60456839 -0.33224985
vn 0.25945099 0.83684298 -0.48205706
vn -0.37451006 0.13501483 0.91734029
vn -0.56085161 0.43647438 0.70351659
vn -0.81623721 0.53219134 0.22478701
vn -0.80242557 0.23020519 0.55056223
vn -0.64578560 0.13030018 -0.75231830
vn -0.95007621 0.25673463 -0.17732039
vn -0.60579502 -0.63678180 -0.47699195
vn -0.84545184 0.52982846 -0.06702975
vn -0.85698831 0.36291657 -0.36587238
vn -0.23809603 -0.59160370 0.77026965
vn -0.13284039 0.11802879 0.98408467
vn -0.37183855 0.25042044 0.89388237
vn 0.41101200 0.47383156 0.77881499
vn -0.73928799 0.59184287 0.32120910
vn -0.75935231 0.46124658 0.45895061
vn -0.56311099 0.21642899 0.79753652
vn -0.92399708 0.34902323 0.15624398
vn 0.27655407 0.10480988 -0.95526579
vn -0.79750010 -0.58005251 -0.16592974
vn -0.46024746 -0.49794024 -0.73500190
vn -0.79239386 0.23210569 -0.56412670
vn -0.86305316 0.49318144 -0.10913893
vn 0.33634959 0.93914098 -0.06987975
vn -0.79734909 0.60344702 -0.00928000
vn -0.69887426 0.36307040 -0.61624236
vn -0.91321296 0.30948766 -0.26506506
vn -0.76345598 0.63500358 0.11792127
vn -0.61904261 0.39894626 0.67648217
vn -0.83188765 0.33303110 0.44390677
vn -0.97506462 0.19749905 0.10120827
vn -0.89407341 0.44696090 0.02930340
vn -0.95476536 0.29415668 -0.04353112
vn -0.86882706 0.41423724 0.27119559
vn -0.50488957 0.18562447 -0.84298878
vn -0.44148544 0.10410817 -0.89120822
vn -0.91091434 0.24599155 -0.33124497
vn -0.95911601 0.26706266 -0.09366967
vn -0.82556950 0.19189004 -0.53067242
vn -0.64881359 0.75134757 -0.12048969
vn -0.90311791 0.42497252 -0.06145236
vn -0.83313656 0.51944889 -0.18988501
vn -0.77577109 0.62796882 -0.06192237
vn -0.75848744 0.29915999 -0.57896468
vn -0.89265060 0.40979547 -0.18773007
vn -0.86440447 0.25575229 -0.43289223
vn -0.80922938 0.57535644 0.11879721
vn -0.63386230 0.36795958 0.68031194
vn -0.92627975 0.23218998 0.29680571
vn -0.95752882 0.27956011 0.07060238
vn -0.97614963 0.21386734 -0.03731835
vn -0.93371569 0.35027182 -0.07405857
f 3//3 2//2 4//4
f 6//6 1//1 2//2
f 6//6 2//2 3//3
f 8//8 4//4 2//2
f 10//10 7//7 5//5
f 10//10 5//5 2//2
f 13//13 3//3 4//4
f 17//17 7//7 10//10
f 17//17 10//10 14//14
f 20//20 8//8 2//2
f 20//20 2//2 5//5
f 20//20 5//5 12//12
f 23//23 14//14 10//10
f 23//23 10//10 2//2
f 23//23 2//2 14//14
f 24//24 14//14 2//2
f 24//24 2//2 1//1
f 24//24 1//1 14//14
f 25//25 14//14 1//1
f 25//25 11//11 14//14
f 25//25 15//15 11//11
f 26//26 1//1 6//6
f 26//26 6//6 15//15
f 26//26 25//25 1//1
f 26//26 15//15 25//25
f 27//27 6//6 3//3
f 28//28 15//15 6//6
f 28//28 27//27 16//16
f 28//28 6//6 27//27
f 29//29 17//17 14//14
f 29//29 14//14 11//11
f 29//29 11//11 17//17
f 31//31 4//4 8//8
f 32//32 12//12 5//5
f 33//33 20//20 18//18
f 33//33 8//8 20//20
f 36//36 3//3 13//13
f 37//37 3//3 36//36
f 38//38 13//13 4//4
f 40//40 27//27 3//3
f 40//40 16//16 27//27
f 40//40 3//3 37//37
f 41//41 15//15 28//28
f 42//42 30//30 17//17
f 42//42 17//17 11//11
f 43//43 5//5 7//7
f 43//43 17//17 30//30
f 44//44 37//37 21//21
f 46//46 28//28 16//16
f 46//46 44//44 30//30
f 46//46 16//16 44//44
f 46//46 30//30 42//42
f 46//46 42//42 11//11
f 46//46 11//11 28//28
f 47//47 4//4 31//31
f 47//47 38//38 4//4
f 48//48 31//31 8//8
f 48//48 47//47 31//31
f 48//48 18//18 47//47
f 48//48 33//33 18//18
f 48//48 8//8 33//33
f 49//49 32//32 19//19
f 49//49 12//12 32//32
f 49//49 19//19 39//39
f 49//49 34//34 12//12
f 50//50 32//32 5//5
f 50//50 19//19 32//32
f 50//50 45//45 39//39
f 50//50 39//39 19//19
f 51//51 20//20 12//12
f 51//51 12//12 34//34
f 51//51 34//34 18//18
f 51//51 18//18 20//20
f 52//52 35//35 21//21
f 52//52 36//36 13//13
f 53//53 35//35 9//9
f 53//53 21//21 35//35
f 53//53 44//44 21//21
f 54//54 13//13 22//22
f 54//54 52//52 13//13
f 54//54 35//35 52//52
f 55//55 37//37 36//36
f 55//55 21//21 37//37
f 55//55 52//52 21//21
f 55//55 36//36 52//52
f 56//56 22//22 13//13
f 56//56 13//13 38//38
f 56//56 34//34 22//22
f 56//56 18//18 34//34
f 56//56 47//47 18//18
f 56//56 38//38 47//47
f 57//57 39//39 9//9
f 57//57 9//9 35//35
f 57//57 35//35 54//54
f 57//57 54//54 22//22
f 57//57 22//22 39//39
f 58//58 39//39 22//22
f 58//58 22//22 34//34
f 58//58 49//49 39//39
f 58//58 34//34 49//49
f 59//59 40//40 37//37
f 59//59 16//16 40//40
f 59//59 44//44 16//16
f 59//59 37//37 44//44
f 60//60 41//41 28//28
f 60//60 28//28 11//11
f 60//60 11//11 15//15
f 60//60 15//15 41//41
f 61//61 43//43 7//7
f 61//61 7//7 17//17
f 61//61 17//17 43//43
f 62//62 43//43 30//30
f 62//62 30//30 45//45
f 63//63 5//5 43//43
f 63//63 62//62 45//45
f 63//63 43//43 62//62
f 63//63 50//50 5//5
f 63//63 45//45 50//50
f 64//64 9//9 39//39
f 64//64 39//39 45//45
f 64//64 53//53 9//9
f 64//64 44//44 53//53
f 64//64 45//45 30//30
f 64//64 30//30 44//44

