# https://github.com/mikedh/trimesh
v 0.04553963 0.06269367 0.04501023
v 0.05850739 0.03215575 -0.01595818
v 0.05008510 0.06284846 -0.05885715
v -0.05907677 0.05584682 -0.05963973
v -0.06218396 0.03351341 0.02907022
v 0.04910105 0.03206727 -0.06210605
v -0.04051556 0.06247412 0.01976896
v 0.05583793 0.05910052 -0.01577837
v 0.00419109 0.02607464 0.03024775
v 0.05727769 0.03206670 -0.05696740
v -0.01676198 0.05794779 -0.06212340
v -0.04558143 0.03265890 -0.02943777
v -0.01278582 0.06383466 0.01847222
v -0.04821901 0.06159894 -0.05792698
v -0.05394675 0.05906294 0.05153671
v 0.05724449 0.05313875 -0.01597190
v 0.05241321 0.06236442 -0.01573283
v 0.04533973 0.05241542 0.04484007
v 0.05589410 0.05046258 -0.05965201
v -0.02389265 0.02575914 0.00835344
v -0.03142853 0.04151194 -0.06099290
v 0.04641927 0.05782447 -0.06207033
v -0.06191801 0.04798601 -0.05615442
v 0.05035033 0.06375836 -0.04405561
v -0.04846082 0.05835710 -0.06072749
v -0.04042843 0.06109331 -0.05972180
v -0.03111666 0.06255076 -0.05513059
v -0.03110661 0.06163919 0.05348202
v -0.05601516 0.04893760 0.05441570
v -0.05797374 0.05985994 -0.05596921
v 0.05728283 0.05278631 -0.05775586
v 0.05252617 0.03220493 -0.06097059
v 0.00836454 0.03219589 -0.06025421
v -0.06278396 0.03349251 -0.00141294
v -0.01678180 0.05357815 -0.06205110
v 0.03702734 0.06281016 -0.05935892
v 0.04921259 0.05282756 -0.06197614
v 0.05476260 0.05702950 -0.05946199
v -0.05988412 0.04815229 -0.05841296
v -0.06032500 0.05619878 0.03029082
v 0.03614564 0.06381541 0.02894422
v 0.04525512 0.06365768 0.02740054
v 0.05346297 0.06124969 -0.05383402
v -0.05464282 0.05840749 -0.05959762
v -0.05233738 0.04816885 -0.06071289
v -0.04447224 0.05860340 -0.06084445
v 0.02586082 0.06360286 -0.05738633
v -0.04055739 0.06243657 0.02491622
v -0.03129830 0.04932254 0.05642967
v -0.05308032 0.05405298 0.05381311
v -0.06160188 0.05406449 -0.05503157
v 0.05575845 0.04803459 -0.05980731
v 0.05694112 0.05556544 -0.02931883
v 0.02308525 0.03192893 -0.06080202
v 0.04293169 0.03201994 -0.06208862
v -0.02188212 0.06052928 -0.06056070
v 0.05366178 0.05308975 -0.06069490
v -0.05928318 0.05471586 -0.05941797
v -0.05486780 0.06098095 0.02615073
v -0.05918936 0.04897025 0.05117895
v -0.06161278 0.05051122 0.03011361
v 0.01625744 0.06345660 0.04618644
v 0.05240481 0.06231019 -0.04887733
v 0.05684683 0.05540289 -0.05398547
vn 0.56348615 0.56837383 0.59952861
vn 0.76930113 -0.62884345 0.11283476
vn 0.32942077 0.79034506 -0.51656233
vn -0.57806479 0.29651279 -0.76021132
vn -0.71378594 -0.65564587 0.24624808
vn 0.13060393 -0.65213803 -0.74676542
vn -0.07510596 0.99717467 0.00132981
vn 0.87067153 0.48780267 0.06308443
vn 0.11819025 -0.91089161 0.39535748
vn 0.71026489 -0.62089228 -0.33168747
vn -0.01401947 0.25478517 -0.96689605
vn -0.25111178 -0.94333641 -0.21693153
vn -0.02669777 0.99954640 0.01393673
vn -0.13671202 0.90847391 -0.39494934
vn -0.46219835 0.72277361 0.51378108
vn 0.98687049 0.13601810 0.08709597
vn 0.52485839 0.85060847 0.03144664
vn 0.62270862 -0.36677834 0.69116396
vn 0.65224860 0.04103010 -0.75689384
vn -0.08510042 -0.99635804 0.00534594
vn -0.14929365 -0.57695370 -0.80301671
vn 0.11011018 0.26662102 -0.95749098
vn -0.81821020 -0.43912472 -0.37108159
vn 0.29607583 0.95501563 -0.01685974
vn -0.10304009 0.35167179 -0.93043522
vn -0.03799780 0.74053241 -0.67094554
vn -0.03295481 0.99547713 -0.08910260
vn -0.02696266 0.75855276 0.65105355
vn -0.41264606 -0.28065162 0.86657827
vn -0.54407801 0.80155121 -0.24798140
vn 0.92140184 0.16668835 -0.35104649
vn 0.37326334 -0.61962513 -0.69046302
vn -0.07053082 -0.77559320 -0.62728031
vn -0.78059830 -0.62320825 -0.04772609
vn -0.02171883 -0.03415426 -0.99918055
vn 0.00788678 0.76423252 -0.64489259
vn 0.17775168 0.04615777 -0.98299227
vn 0.66564030 0.39668424 -0.63211123
vn -0.48563985 -0.50430054 -0.71402724
vn -0.85270039 0.51695757 0.07521239
vn 0.01376256 0.99962280 0.02376650
vn 0.21866967 0.97520722 0.03397726
vn 0.72175465 0.68205056 -0.11780182
vn -0.24016213 0.58144394 -0.77733203
vn -0.17707714 -0.32174861 -0.93011909
vn -0.04629034 0.34318611 -0.93812606
vn -0.01018870 0.97168971 -0.23604087
vn -0.07416111 0.99679554 0.02997980
vn 0.01156081 -0.29952855 0.95401729
vn -0.21125800 0.28838046 0.93392011
vn -0.94323995 0.28273797 -0.17423440
vn 0.62641368 -0.01488049 -0.77934875
vn 0.97510673 0.22173176 -0.00137247
vn -0.02336661 -0.92543205 -0.37819244
vn -0.00080973 -0.68062352 -0.73263290
vn -0.01669537 0.58932829 -0.80772113
vn 0.38574694 0.09684268 -0.91750793
vn -0.63932157 -0.03636126 -0.76807929
vn -0.38878262 0.92056259 0.03758453
vn -0.86304973 -0.08635792 0.49768211
vn -0.98955060 0.12753725 0.06725965
vn 0.01848807 0.96512972 0.26111839
vn 0.59218304 0.80516384 -0.03210039
vn 0.92998939 0.35994117 -0.07457937
f 10//10 2//2 9//9
f 16//16 8//8 1//1
f 16//16 1//1 2//2
f 17//17 1//1 8//8
f 18//18 9//9 2//2
f 18//18 2//2 1//1
f 20//20 10//10 9//9
f 20//20 6//6 10//10
f 20//20 9//9 5//5
f 22//22 6//6 11//11
f 26//26 25//25 14//14
f 27//27 14//14 7//7
f 27//27 7//7 13//13
f 29//29 5//5 9//9
f 31//31 16//16 2//2
f 31//31 2//2 10//10
f 32//32 10//10 6//6
f 33//33 20//20 12//12
f 33//33 12//12 21//21
f 34//34 20//20 5//5
f 34//34 12//12 20//20
f 34//34 23//23 12//12
f 36//36 22//22 11//11
f 36//36 3//3 22//22
f 37//37 6//6 22//22
f 38//38 22//22 3//3
f 38//38 31//31 19//19
f 39//39 21//21 12//12
f 39//39 12//12 23//23
f 41//41 24//24 13//13
f 42//42 1//1 17//17
f 42//42 17//17 24//24
f 42//42 24//24 41//41
f 43//43 38//38 3//3
f 44//44 25//25 4//4
f 44//44 14//14 25//25
f 44//44 30//30 14//14
f 44//44 4//4 30//30
f 45//45 4//4 25//25
f 45//45 39//39 4//4
f 45//45 21//21 39//39
f 45//45 35//35 21//21
f 45//45 25//25 11//11
f 45//45 11//11 35//35
f 46//46 26//26 11//11
f 46//46 11//11 25//25
f 46//46 25//25 26//26
f 47//47 27//27 13//13
f 47//47 13//13 24//24
f 47//47 24//24 3//3
f 47//47 3//3 36//36
f 47//47 14//14 27//27
f 47//47 36//36 26//26
f 47//47 26//26 14//14
f 48//48 28//28 13//13
f 48//48 13//13 7//7
f 49//49 18//18 1//1
f 49//49 1//1 28//28
f 49//49 29//29 9//9
f 49//49 9//9 18//18
f 50//50 28//28 15//15
f 50//50 15//15 29//29
f 50//50 49//49 28//28
f 50//50 29//29 49//49
f 51//51 30//30 4//4
f 51//51 4//4 23//23
f 51//51 40//40 30//30
f 51//51 23//23 34//34
f 52//52 31//31 10//10
f 52//52 19//19 31//31
f 52//52 10//10 32//32
f 53//53 8//8 16//16
f 53//53 16//16 31//31
f 54//54 20//20 33//33
f 55//55 33//33 21//21
f 55//55 54//54 33//33
f 55//55 6//6 20//20
f 55//55 20//20 54//54
f 55//55 21//21 35//35
f 55//55 35//35 11//11
f 55//55 11//11 6//6
f 56//56 36//36 11//11
f 56//56 11//11 26//26
f 56//56 26//26 36//36
f 57//57 32//32 6//6
f 57//57 6//6 37//37
f 57//57 52//52 32//32
f 57//57 19//19 52//52
f 57//57 38//38 19//19
f 57//57 37//37 22//22
f 57//57 22//22 38//38
f 58//58 39//39 23//23
f 58//58 23//23 4//4
f 58//58 4//4 39//39
f 59//59 40//40 15//15
f 59//59 30//30 40//40
f 59//59 15//15 28//28
f 59//59 28//28 48//48
f 59//59 14//14 30//30
f 59//59 48//48 7//7
f 59//59 7//7 14//14
f 60//60 29//29 15//15
f 60//60 15//15 40//40
f 60//60 5//5 29//29
f 61//61 34//34 5//5
f 61//61 60//60 40//40
f 61//61 5//5 60//60
f 61//61 51//51 34//34
f 61//61 40//40 51//51
f 62//62 28//28 1//1
f 62//62 42//42 41//41
f 62//62 1//1 42//42
f 62//62 41//41 13//13
f 62//62 13//13 28//28
f 63//63 24//24 17//17
f 63//63 17//17 8//8
f 63//63 8//8 43//43
f 63//63 43//43 3//3
f 63//63 3//3 24//24
f 64//64 43//43 8//8
f 64//64 31//31 38//38
f 64//64 38//38 43//43
f 64//64 53//53 31//31
f 64//64 8//8 53//53

