# https://github.com/mikedh/trimesh
v -0.04589598 0.04802291 -0.00141320
v -0.04589598 -0.05246515 -0.00009099
v -0.04568010 0.03228924 -0.06098004
v -0.05721172 0.04815880 -0.05967594
v -0.06276807 -0.00222219 -0.00008963
v -0.05779999 -0.06586305 -0.04502138
v -0.04592386 0.04807194 -0.06107964
v -0.04589598 -0.00222112 -0.00009099
v -0.06202086 0.04788512 -0.00144188
v -0.04586655 -0.07022161 -0.04504405
v -0.05467918 -0.02605804 -0.05955401
v -0.06191801 0.04798601 -0.05615442
v -0.05967018 -0.06024130 -0.01460147
v -0.05093598 0.04814295 -0.06090229
v -0.06178033 -0.03658554 -0.00003441
v -0.05988412 0.04815229 -0.05841296
v -0.04581810 -0.06969355 -0.03056835
v -0.05919774 -0.05229680 -0.05277891
v -0.04589498 -0.02602165 -0.06086663
v -0.05382925 -0.05246515 -0.00009099
v -0.05801277 -0.02596857 -0.05839282
v -0.05588427 -0.06803888 -0.03192467
v -0.05347453 -0.06954912 -0.04510199
v -0.06028395 -0.05360258 -0.03703113
v -0.04589598 -0.05246515 -0.05297944
v -0.05108848 -0.06958995 -0.03055598
v -0.06028045 0.04038499 -0.05836413
v -0.05899086 -0.01927233 -0.05760311
v -0.05765778 -0.06579765 -0.03584544
v -0.05536250 -0.06864846 -0.04505705
v -0.05893647 -0.06144971 -0.04504366
v -0.06032418 -0.05627422 -0.01461401
v -0.06167977 -0.02070572 -0.03835208
v -0.05469195 -0.06838852 -0.03057930
v -0.06058170 0.04219652 -0.05812419
v -0.06078242 0.01649776 -0.05663218
v -0.05634645 -0.06751327 -0.03046823
v -0.06027898 -0.05100907 -0.04360816
v -0.06026753 -0.05619235 -0.02117651
v -0.05345035 -0.06945183 -0.04246137
v -0.06150343 0.01783589 -0.05413869
v -0.06165602 0.04546957 -0.05665783
v -0.06028149 -0.05230296 -0.04104444
v -0.06034249 -0.04572595 -0.04890196
vn 0.57536060 0.58591041 0.57067431
vn 0.60855333 -0.40012227 0.68524814
vn 0.78394549 0.00222706 -0.62082567
vn -0.22303952 0.68161638 -0.69688771
vn -0.71433181 0.00277260 0.69980167
vn -0.81162333 -0.48258823 -0.32920537
vn 0.56631675 0.57470072 -0.59076596
vn 0.70310000 0.00975634 0.71102405
vn -0.57761289 0.58431138 0.57003821
vn 0.57466965 -0.69889911 -0.42578730
vn -0.23228217 -0.11025112 -0.96637968
vn -0.74561959 0.61343179 -0.26029380
vn -0.67978829 -0.64744518 0.34453248
vn -0.07819078 0.68983690 -0.71972999
vn -0.71194654 -0.08522588 0.69704280
vn -0.43872700 0.68036356 -0.58704689
vn 0.65128997 -0.73084519 0.20417316
vn -0.65274816 -0.28637870 -0.70136088
vn 0.62339317 -0.10035462 -0.77544175
vn -0.29613671 -0.49580394 0.81638319
vn -0.61566460 -0.08825037 -0.78305107
vn -0.55702088 -0.82890396 0.05143896
vn -0.21890091 -0.83916517 -0.49787971
vn -0.99481180 -0.09915665 -0.02274755
vn 0.68147390 -0.25418348 -0.68628280
vn -0.14317284 -0.95856711 0.24627348
vn -0.54811550 -0.01494997 -0.83626904
vn -0.85852115 -0.03435876 -0.51162576
vn -0.87258747 -0.48803165 0.02040144
vn -0.52366027 -0.73008145 -0.43904556
vn -0.97076480 -0.20544754 -0.12412497
vn -0.99077299 -0.12892619 0.04179615
vn -0.99887082 -0.02592813 -0.03980971
vn -0.35541672 -0.91082277 0.20995436
vn -0.70140656 0.00385410 -0.71275100
vn -0.90882581 -0.03093000 -0.41602763
vn -0.66750083 -0.72889822 0.15215132
vn -0.99487326 -0.08234995 -0.05870001
vn -0.99270666 -0.11981852 -0.01330423
vn -0.31216830 -0.94923510 0.03877732
vn -0.98692763 -0.02565168 -0.15910956
vn -0.85624271 0.00984874 -0.51647984
vn -0.99563940 -0.08579474 -0.03662590
vn -0.99051816 -0.05321873 -0.12665521
f 7//7 1//1 3//3
f 8//8 1//1 5//5
f 8//8 2//2 3//3
f 8//8 3//3 1//1
f 9//9 5//5 1//1
f 12//12 5//5 9//9
f 14//14 4//4 1//1
f 14//14 1//1 7//7
f 14//14 11//11 4//4
f 15//15 8//8 5//5
f 15//15 2//2 8//8
f 16//16 9//9 1//1
f 16//16 1//1 4//4
f 16//16 12//12 9//9
f 17//17 10//10 3//3
f 17//17 3//3 2//2
f 19//19 18//18 11//11
f 19//19 11//11 14//14
f 19//19 14//14 7//7
f 19//19 7//7 3//3
f 20//20 15//15 13//13
f 20//20 2//2 15//15
f 20//20 17//17 2//2
f 21//21 4//4 11//11
f 21//21 11//11 18//18
f 23//23 18//18 10//10
f 25//25 10//10 18//18
f 25//25 18//18 19//19
f 25//25 19//19 3//3
f 25//25 3//3 10//10
f 26//26 20//20 13//13
f 26//26 17//17 20//20
f 26//26 23//23 10//10
f 26//26 10//10 17//17
f 27//27 16//16 4//4
f 27//27 4//4 21//21
f 28//28 21//21 18//18
f 29//29 13//13 6//6
f 30//30 6//6 18//18
f 30//30 18//18 23//23
f 30//30 23//23 22//22
f 31//31 18//18 6//6
f 31//31 6//6 13//13
f 32//32 13//13 15//15
f 33//33 15//15 5//5
f 33//33 5//5 12//12
f 34//34 26//26 13//13
f 35//35 16//16 27//27
f 35//35 27//27 21//21
f 35//35 21//21 28//28
f 36//36 28//28 18//18
f 36//36 35//35 28//28
f 37//37 13//13 29//29
f 37//37 34//34 13//13
f 37//37 22//22 34//34
f 37//37 29//29 6//6
f 37//37 30//30 22//22
f 37//37 6//6 30//30
f 38//38 18//18 31//31
f 39//39 31//31 13//13
f 39//39 13//13 32//32
f 39//39 24//24 31//31
f 39//39 32//32 15//15
f 39//39 15//15 24//24
f 40//40 34//34 22//22
f 40//40 22//22 23//23
f 40//40 23//23 26//26
f 40//40 26//26 34//34
f 41//41 36//36 18//18
f 41//41 12//12 36//36
f 41//41 33//33 12//12
f 42//42 36//36 12//12
f 42//42 35//35 36//36
f 42//42 12//12 16//16
f 42//42 16//16 35//35
f 43//43 38//38 31//31
f 43//43 31//31 24//24
f 43//43 24//24 15//15
f 43//43 15//15 33//33
f 43//43 33//33 38//38
f 44//44 41//41 18//18
f 44//44 18//18 38//38
f 44//44 38//38 33//33
f 44//44 33//33 41//41

