# https://github.com/mikedh/trimesh
v 0.01626857 -0.01807670 0.05718166
v 0.03101478 -0.06208929 0.05663789
v -0.00094080 -0.05378736 0.01577555
v -0.05964080 -0.06027151 0.01564805
v -0.05508628 -0.06325667 0.05586294
v -0.00095991 -0.06939287 0.01575624
v -0.04747172 -0.01792600 0.04444031
v 0.03079714 -0.05438746 0.03030920
v -0.02460846 -0.05638346 0.05797364
v -0.01541385 -0.05334970 0.01538871
v -0.05213856 -0.06936816 0.01581692
v -0.03929253 -0.07093909 0.05203275
v 0.01614092 -0.01802819 0.04732123
v -0.04710722 -0.01806213 0.05593518
v 0.03082607 -0.05113583 0.05766478
v 0.03076614 -0.06660673 0.03028862
v -0.04974738 -0.06704798 0.05676316
v -0.00371673 -0.06963365 0.01565448
v -0.05619182 -0.06737201 0.04995491
v -0.04624421 -0.01786562 0.04477587
v -0.02194425 -0.02874056 0.05793870
v -0.05993064 -0.05369198 0.03031918
v 0.03090839 -0.05118928 0.04694007
v 0.03078200 -0.05862893 0.05811493
v 0.02808309 -0.06550712 0.05104505
v -0.03948086 -0.06839810 0.05534199
v -0.05444658 -0.05764404 0.05659918
v -0.04201200 -0.07091654 0.03962243
v -0.01695493 -0.06947692 0.04857851
v -0.05416133 -0.06836425 0.01577874
v -0.05410498 -0.06825104 0.05304032
v -0.01549789 -0.01812246 0.05699569
v -0.05892835 -0.05367916 0.05112248
v 0.03082186 -0.05654997 0.05807623
v 0.02416739 -0.05996036 0.05788187
v -0.01929742 -0.06007466 0.05784226
v 0.03092833 -0.06458676 0.05356388
v -0.04703037 -0.06816699 0.05556314
v -0.04346598 -0.06738292 0.05653665
v -0.05286978 -0.06499021 0.05641112
v -0.02583525 -0.03149858 0.05790608
v -0.02592768 -0.05373795 0.05794123
v -0.03937359 -0.07090192 0.04361815
v 0.02681415 -0.06692185 0.03016118
v 0.03063831 -0.06554642 0.04740343
v -0.05778956 -0.06508549 0.01590104
v -0.05318735 -0.06935129 0.04380967
v -0.05640518 -0.06619865 0.05167410
v -0.03395375 -0.01954494 0.05663748
v -0.05809595 -0.05376067 0.05324870
v -0.05893485 -0.05886933 0.04867841
v -0.01829030 -0.02872552 0.05791347
v 0.02910151 -0.06429139 0.05479883
v -0.04935944 -0.07072736 0.05194494
v 0.01269984 -0.06314721 0.05679009
v -0.05437124 -0.06027671 0.05644024
v -0.05162659 -0.06636983 0.05654909
v -0.05638599 -0.06701660 0.03182505
v -0.05749735 -0.06504430 0.04871609
v -0.05902340 -0.06264496 0.01579232
v -0.05507450 -0.06838084 0.04496282
v -0.05637202 -0.06367585 0.05398046
v -0.03643492 -0.02082877 0.05666293
v -0.05594661 -0.05383062 0.05576894
vn 0.44173503 0.67635672 0.58941645
vn 0.69375502 -0.40032831 0.59869960
vn 0.20053652 0.31103691 -0.92900008
vn -0.70915193 0.12794155 -0.69335020
vn -0.59914723 -0.23260687 0.76610485
vn 0.22068950 -0.65627704 -0.72152380
vn -0.50835498 0.78979914 -0.34320916
vn 0.80143777 0.23419490 -0.55031831
vn -0.02013559 -0.02762713 0.99941548
vn -0.00041292 0.34466822 -0.93872448
vn -0.18085629 -0.73301500 -0.65572861
vn 0.02066446 -0.94680270 0.32115048
vn 0.47702361 0.80858753 -0.34443385
vn -0.48168394 0.65538482 0.58176569
vn 0.76988714 0.19212759 0.60857275
vn 0.69287444 -0.58938370 -0.41539363
vn -0.13980764 -0.46880915 0.87216501
vn 0.05585780 -0.71603954 -0.69582130
vn -0.72928879 -0.67222773 0.12746665
vn -0.00954751 0.99557503 -0.09348372
vn -0.01831496 0.05302039 0.99842546
vn -0.98408195 0.16968741 -0.05280996
vn 0.97475181 0.22189669 -0.02491528
vn 0.59669987 -0.13366733 0.79125363
vn 0.11135415 -0.98033882 0.16289890
vn 0.03130453 -0.74454867 0.66683379
vn -0.31713152 -0.01476688 0.94826660
vn -0.02433379 -0.99930460 -0.02825204
vn 0.07678975 -0.99458730 0.06999590
vn -0.40665215 -0.61003685 -0.68006549
vn -0.53621574 -0.73504525 0.41494718
vn -0.00981665 0.69615372 0.71782563
vn -0.97147297 0.09646387 0.21664485
vn 0.67077836 0.02160273 0.74134319
vn 0.01921925 -0.30879735 0.95093366
vn -0.00493316 -0.09479742 0.99548436
vn 0.70674715 -0.66020033 0.25425183
vn -0.02792921 -0.78130907 0.62351912
vn 0.00869388 -0.56884809 0.82239666
vn -0.33531330 -0.20145058 0.92031661
vn -0.04146751 0.02686220 0.99877869
vn -0.03531620 -0.00149685 0.99937507
vn 0.02235623 -0.99972813 -0.00662237
vn 0.07756975 -0.99641780 0.03368228
vn 0.53187098 -0.84414903 0.06727311
vn -0.63657223 -0.47975502 -0.60383021
vn -0.39536908 -0.91851854 0.00264124
vn -0.83957491 -0.42426505 0.33928327
vn -0.03444706 0.13390751 0.99039496
vn -0.86670792 0.05687952 0.49556241
vn -0.97845446 -0.14055372 0.15123331
vn 0.00751602 0.03236409 0.99944789
vn 0.11927527 -0.81698983 0.56418174
vn -0.19740040 -0.93695857 0.28834306
vn 0.03400312 -0.50059941 0.86501099
vn -0.31644933 -0.06989450 0.94603096
vn -0.32611417 -0.40098854 0.85607111
vn -0.71278967 -0.70127033 -0.01228031
vn -0.93522293 -0.33572657 0.11245328
vn -0.72042387 -0.29634797 -0.62703056
vn -0.56277298 -0.82645255 0.01621013
vn -0.83781599 -0.27768257 0.47006037
vn -0.04490869 0.08461483 0.99540120
vn -0.59290610 0.06383920 0.80273714
f 8//8 6//6 3//3
f 10//10 4//4 7//7
f 13//13 10//10 7//7
f 13//13 3//3 10//10
f 13//13 8//8 3//3
f 16//16 8//8 2//2
f 16//16 6//6 8//8
f 18//18 10//10 3//3
f 18//18 3//3 6//6
f 18//18 6//6 16//16
f 20//20 13//13 7//7
f 20//20 1//1 13//13
f 20//20 14//14 1//1
f 20//20 7//7 14//14
f 22//22 14//14 7//7
f 22//22 7//7 4//4
f 23//23 15//15 2//2
f 23//23 2//2 8//8
f 23//23 8//8 13//13
f 23//23 13//13 1//1
f 23//23 1//1 15//15
f 24//24 21//21 9//9
f 28//28 11//11 18//18
f 29//29 12//12 18//18
f 29//29 25//25 12//12
f 30//30 18//18 11//11
f 30//30 4//4 10//10
f 30//30 10//10 18//18
f 32//32 21//21 1//1
f 32//32 1//1 14//14
f 33//33 14//14 22//22
f 34//34 24//24 2//2
f 34//34 2//2 15//15
f 34//34 15//15 1//1
f 35//35 24//24 17//17
f 35//35 2//2 24//24
f 36//36 24//24 9//9
f 36//36 9//9 17//17
f 36//36 17//17 24//24
f 37//37 16//16 2//2
f 37//37 12//12 25//25
f 38//38 12//12 26//26
f 39//39 38//38 26//26
f 39//39 17//17 38//38
f 39//39 35//35 17//17
f 41//41 21//21 14//14
f 41//41 14//14 27//27
f 41//41 9//9 21//21
f 42//42 27//27 17//17
f 42//42 17//17 9//9
f 42//42 41//41 27//27
f 42//42 9//9 41//41
f 43//43 28//28 18//18
f 43//43 18//18 12//12
f 43//43 12//12 28//28
f 44//44 29//29 18//18
f 44//44 18//18 16//16
f 44//44 16//16 29//29
f 45//45 29//29 16//16
f 45//45 25//25 29//29
f 45//45 37//37 25//25
f 45//45 16//16 37//37
f 47//47 30//30 11//11
f 48//48 19//19 31//31
f 49//49 32//32 14//14
f 49//49 21//21 32//32
f 50//50 14//14 33//33
f 51//51 33//33 22//22
f 51//51 22//22 4//4
f 52//52 34//34 1//1
f 52//52 1//1 21//21
f 52//52 21//21 24//24
f 52//52 24//24 34//34
f 53//53 26//26 12//12
f 53//53 12//12 37//37
f 53//53 37//37 2//2
f 53//53 39//39 26//26
f 53//53 2//2 39//39
f 54//54 12//12 38//38
f 54//54 28//28 12//12
f 54//54 47//47 11//11
f 54//54 11//11 28//28
f 54//54 38//38 17//17
f 54//54 17//17 31//31
f 55//55 39//39 2//2
f 55//55 2//2 35//35
f 55//55 35//35 39//39
f 56//56 40//40 27//27
f 56//56 27//27 5//5
f 56//56 5//5 40//40
f 57//57 17//17 27//27
f 57//57 27//27 40//40
f 57//57 31//31 17//17
f 57//57 40//40 5//5
f 57//57 5//5 31//31
f 58//58 46//46 30//30
f 58//58 19//19 46//46
f 59//59 46//46 19//19
f 59//59 51//51 4//4
f 59//59 19//19 48//48
f 60//60 4//4 30//30
f 60//60 30//30 46//46
f 60//60 59//59 4//4
f 60//60 46//46 59//59
f 61//61 30//30 47//47
f 61//61 58//58 30//30
f 61//61 19//19 58//58
f 61//61 31//31 19//19
f 61//61 54//54 31//31
f 61//61 47//47 54//54
f 62//62 48//48 31//31
f 62//62 31//31 5//5
f 62//62 5//5 50//50
f 62//62 50//50 33//33
f 62//62 33//33 51//51
f 62//62 59//59 48//48
f 62//62 51//51 59//59
f 63//63 49//49 14//14
f 63//63 14//14 21//21
f 63//63 21//21 49//49
f 64//64 50//50 5//5
f 64//64 5//5 27//27
f 64//64 27//27 14//14
f 64//64 14//14 50//50

