# https://github.com/mikedh/trimesh
v 0.01490715 -0.03546360 -0.01464808
v 0.05948888 -0.03529325 -0.05291995
v 0.03068605 0.03200615 -0.05134455
v -0.04592386 0.04807194 -0.06107964
v -0.05473402 -0.06675186 -0.05743067
v 0.03076860 0.03209733 -0.06132882
v -0.03122900 0.04141238 -0.03040258
v 0.05933619 -0.01812069 -0.05283636
v 0.04652889 -0.06608026 -0.04501467
v 0.00836445 0.04142045 -0.05107009
v 0.00308498 -0.04970494 -0.06214462
v 0.01564537 0.02473433 -0.03304636
v -0.06141374 -0.03658169 -0.01462705
v 0.05256243 -0.01807517 -0.06119903
v 0.00830903 0.04142058 -0.06067198
v -0.03124300 0.04803757 -0.05083188
v -0.05102248 -0.06032169 -0.06075473
v 0.04673364 -0.06153010 -0.06077833
v -0.00052203 0.01680562 -0.02396051
v 0.01649915 0.03192473 -0.04087913
v 0.01549377 0.00524832 -0.02680927
v -0.00099293 -0.06872523 -0.03183891
v -0.06241789 0.01631642 -0.04495212
v 0.05729149 -0.02730421 -0.05821286
v 0.05834278 -0.01819591 -0.05649987
v 0.00552428 -0.04467983 -0.06210804
v -0.03135416 0.04798907 -0.06102940
v -0.04580428 0.04797329 -0.05160045
v -0.06077737 0.01636061 -0.05661777
v -0.00090427 -0.04705862 -0.06211140
v 0.04662829 -0.06565700 -0.05653294
v -0.04883592 -0.06344035 -0.06083289
v -0.02808596 -0.00202029 -0.01409651
v 0.01930110 0.02810101 -0.03857589
v 0.01620739 -0.06782383 -0.03182019
v -0.02487153 -0.03675610 -0.01463421
v -0.05347453 -0.06954912 -0.04510199
v -0.05382925 -0.00222112 -0.01463531
v -0.05905336 -0.05897868 -0.05020983
v 0.05508592 -0.03536134 -0.05985263
v 0.05498158 -0.01807119 -0.05954696
v 0.05868063 -0.03508272 -0.05614335
v -0.05674113 -0.06026612 -0.05811788
v -0.05660189 0.01476653 -0.05941819
v -0.05381841 0.03215944 -0.05999030
v 0.01093917 -0.06823087 -0.05022374
v 0.01878165 -0.06305050 -0.06088516
v -0.05215466 -0.04051920 -0.06078509
v -0.05284899 -0.06613743 -0.05952901
v 0.00956386 -0.06825790 -0.03184261
v -0.06157666 -0.02602292 -0.01464240
v -0.03762478 0.04148389 -0.03214465
v -0.06134475 -0.03659057 -0.03050555
v -0.05779999 -0.06586305 -0.04502138
v -0.05895885 -0.05097573 -0.05536823
v 0.05154994 -0.03530325 -0.06080207
v 0.05720987 -0.02602191 -0.05829324
v 0.04648275 -0.06454480 -0.05825121
v -0.05752072 -0.06487163 -0.05485921
v -0.05755340 -0.02986172 -0.05863149
v -0.06173392 0.01666057 -0.05028762
v -0.03130819 -0.06996367 -0.04502530
v -0.04970113 -0.06296652 -0.06076256
v -0.05414008 -0.06268982 -0.05934911
vn 0.32179142 -0.11046015 0.94034506
vn 0.95552480 -0.14035749 0.25936870
vn 0.65200365 0.68530709 0.32441552
vn -0.42155115 0.67756487 -0.60266116
vn -0.47924030 -0.75170326 -0.45306837
vn 0.51225695 0.57757140 -0.63561316
vn 0.02204480 0.72191094 0.69163475
vn 0.93351543 0.22438618 0.27964224
vn 0.60359028 -0.69711676 0.38691988
vn 0.28568982 0.92664175 0.24436939
vn 0.00266628 -0.04110378 -0.99915132
vn 0.43539547 0.46616729 0.77014209
vn -0.65561014 -0.27168512 0.70453002
vn 0.32956649 0.07912210 -0.94081115
vn 0.21014443 0.75271453 -0.62390717
vn 0.07658475 0.98476941 0.15608970
vn -0.22363542 -0.03525867 -0.97403492
vn 0.46211819 -0.37243412 -0.80482272
vn 0.22929186 0.35413316 0.90665040
vn 0.34419936 0.73894096 0.57921762
vn 0.47378964 0.25456519 0.84304208
vn 0.00609572 -0.85448111 0.51944669
vn -0.94551917 0.28289770 0.16112848
vn 0.73938721 -0.00697470 -0.67324432
vn 0.84976756 0.21380570 -0.48185291
vn 0.00929336 0.00392855 -0.99994910
vn 0.06258715 0.73085547 -0.67965663
vn -0.51252428 0.83384157 0.20500512
vn -0.85768890 0.12565272 -0.49857912
vn -0.01447038 -0.00305335 -0.99989064
vn 0.53612700 -0.80037712 -0.26826163
vn -0.04968480 -0.22286329 -0.97358275
vn 0.04549125 0.18647186 0.98140654
vn 0.49265167 0.57612596 0.65220641
vn 0.17153743 -0.81156181 0.55851798
vn 0.00208624 -0.25332399 0.96737925
vn -0.33142963 -0.91576399 0.22700376
vn -0.47414891 0.27564716 0.83618266
vn -0.98906352 -0.12729830 -0.07448830
vn 0.52494888 -0.09222612 -0.84612234
vn 0.61423780 0.15856180 -0.77302657
vn 0.87804977 -0.15305075 -0.45343584
vn -0.72653626 -0.11377568 -0.67764309
vn -0.40695359 0.01500339 -0.91332561
vn -0.68707022 0.27743640 -0.67153820
vn 0.03382646 -0.98768027 -0.15278567
vn 0.01492694 -0.45702406 -0.88932907
vn -0.22174569 -0.01107717 -0.97504161
vn -0.28000511 -0.62129026 -0.73184394
vn 0.04444628 -0.85569544 0.51556750
vn -0.71295435 0.03670555 0.70024909
vn -0.38386485 0.69833937 0.60412739
vn -0.99807867 -0.05568573 -0.02716746
vn -0.81423103 -0.54876784 0.18942465
vn -0.94334236 -0.04720324 -0.32844642
vn 0.21831057 -0.03830103 -0.97512744
vn 0.69252530 0.01964911 -0.72112594
vn 0.49513844 -0.65338282 -0.57265069
vn -0.85141047 -0.44592833 -0.27613064
vn -0.62322609 -0.02143182 -0.78174799
vn -0.97264159 0.19428277 -0.12736774
vn -0.00336148 -0.99791614 -0.06443656
vn -0.17470803 -0.11519671 -0.97785828
vn -0.45326868 -0.09862491 -0.88590103
f 8//8 1//1 2//2
f 8//8 6//6 3//3
f 9//9 2//2 1//1
f 10//10 3//3 6//6
f 12//12 8//8 3//3
f 15//15 10//10 6//6
f 16//16 7//7 10//10
f 16//16 10//10 15//15
f 18//18 11//11 14//14
f 19//19 12//12 7//7
f 20//20 10//10 7//7
f 20//20 7//7 12//12
f 20//20 3//3 10//10
f 21//21 1//1 8//8
f 21//21 8//8 12//12
f 21//21 19//19 1//1
f 21//21 12//12 19//19
f 25//25 6//6 8//8
f 26//26 14//14 11//11
f 26//26 6//6 14//14
f 26//26 4//4 6//6
f 27//27 15//15 6//6
f 27//27 6//6 4//4
f 27//27 16//16 15//15
f 27//27 4//4 16//16
f 28//28 16//16 4//4
f 28//28 7//7 16//16
f 28//28 4//4 23//23
f 30//30 26//26 11//11
f 30//30 4//4 26//26
f 31//31 2//2 9//9
f 32//32 30//30 11//11
f 33//33 1//1 19//19
f 33//33 19//19 7//7
f 34//34 20//20 12//12
f 34//34 12//12 3//3
f 34//34 3//3 20//20
f 35//35 9//9 1//1
f 36//36 22//22 1//1
f 36//36 13//13 22//22
f 36//36 33//33 13//13
f 36//36 1//1 33//33
f 37//37 22//22 13//13
f 38//38 33//33 7//7
f 41//41 14//14 6//6
f 41//41 6//6 25//25
f 42//42 25//25 8//8
f 42//42 8//8 2//2
f 42//42 24//24 25//25
f 42//42 40//40 24//24
f 42//42 18//18 40//40
f 42//42 2//2 31//31
f 45//45 23//23 4//4
f 45//45 44//44 29//29
f 46//46 31//31 9//9
f 47//47 32//32 11//11
f 47//47 11//11 18//18
f 48//48 32//32 17//17
f 48//48 4//4 30//30
f 48//48 30//30 32//32
f 48//48 45//45 4//4
f 48//48 44//44 45//45
f 49//49 5//5 43//43
f 49//49 32//32 47//47
f 49//49 46//46 5//5
f 49//49 31//31 46//46
f 50//50 35//35 1//1
f 50//50 1//1 22//22
f 50//50 22//22 46//46
f 50//50 46//46 9//9
f 50//50 9//9 35//35
f 51//51 38//38 23//23
f 51//51 23//23 13//13
f 51//51 13//13 33//33
f 51//51 33//33 38//38
f 52//52 28//28 23//23
f 52//52 23//23 38//38
f 52//52 38//38 7//7
f 52//52 7//7 28//28
f 53//53 39//39 13//13
f 53//53 13//13 23//23
f 53//53 23//23 39//39
f 54//54 37//37 13//13
f 54//54 13//13 39//39
f 55//55 39//39 23//23
f 55//55 29//29 43//43
f 56//56 40//40 18//18
f 56//56 18//18 14//14
f 56//56 14//14 40//40
f 57//57 40//40 14//14
f 57//57 24//24 40//40
f 57//57 14//14 41//41
f 57//57 41//41 25//25
f 57//57 25//25 24//24
f 58//58 42//42 31//31
f 58//58 18//18 42//42
f 58//58 47//47 18//18
f 58//58 49//49 47//47
f 58//58 31//31 49//49
f 59//59 43//43 5//5
f 59//59 55//55 43//43
f 59//59 39//39 55//55
f 59//59 54//54 39//39
f 59//59 5//5 37//37
f 59//59 37//37 54//54
f 60//60 43//43 29//29
f 60//60 29//29 44//44
f 60//60 44//44 48//48
f 61//61 45//45 29//29
f 61//61 23//23 45//45
f 61//61 55//55 23//23
f 61//61 29//29 55//55
f 62//62 46//46 22//22
f 62//62 22//22 37//37
f 62//62 37//37 5//5
f 62//62 5//5 46//46
f 63//63 49//49 17//17
f 63//63 17//17 32//32
f 63//63 32//32 49//49
f 64//64 49//49 43//43
f 64//64 17//17 49//49
f 64//64 43//43 60//60
f 64//64 60//60 48//48
f 64//64 48//48 17//17

