# https://github.com/mikedh/trimesh
v 0.05094918 0.05904019 0.05679913
v 0.05709176 0.00835354 0.05269312
v 0.05471043 0.05935771 0.04476367
v -0.00333553 0.03375625 0.02856324
v -0.04722882 -0.00882864 0.05591792
v 0.05800058 0.01638621 0.04488288
v -0.03132550 0.06194212 0.04485185
v 0.05720549 0.04106021 0.05274391
v 0.01626857 -0.01807670 0.05718166
v 0.00911774 0.03382903 0.02901404
v 0.00558460 0.06515286 0.05216058
v 0.05116109 0.06268448 0.04483522
v -0.04728339 -0.00878970 0.04530680
v 0.05506067 0.00828349 0.05540199
v 0.05362181 0.05998378 0.05406046
v 0.05721540 0.04528603 0.04482803
v 0.05734330 0.03332846 0.05279927
v 0.00303262 0.05585293 0.05801865
v -0.01085804 -0.02229627 0.03589651
v -0.01149819 0.06250261 0.04478972
v 0.05362066 0.06107910 0.04482841
v -0.04586997 0.04923459 0.04750068
v 0.05565631 0.04772628 0.05385719
v 0.05269900 0.00832835 0.05668548
v 0.05569059 0.05658194 0.04862966
v 0.04974347 0.06349625 0.04964479
v 0.05799094 0.03340174 0.04491291
v -0.01551253 -0.02607567 0.05747881
v -0.00217930 0.06156224 0.05668260
v 0.01614092 -0.01802819 0.04732123
v -0.00824509 -0.00674351 0.02640589
v -0.00465327 0.06496613 0.05097011
v 0.05359157 0.06103453 0.04747176
v -0.04730299 0.01634647 0.04559117
v 0.05458303 0.05312831 0.05421369
v 0.00959740 0.05730478 0.05807277
v 0.05566389 0.05569924 0.04962807
v 0.05564304 0.05707137 0.04642342
v 0.05714459 0.04528115 0.04747055
v 0.04994332 0.06372007 0.04641992
v 0.04987321 0.06232332 0.05324386
v -0.04452054 0.04414269 0.05688172
v -0.03134790 -0.02604195 0.04768200
v -0.01019727 -0.01167180 0.02781532
v -0.00758561 -0.02434528 0.04690944
v 0.00342780 0.01462633 0.02774035
v -0.01250736 -0.00689235 0.02610424
v -0.01924922 0.06386351 0.05319033
v 0.05247693 0.06097014 0.05342727
v -0.04715881 0.01635007 0.05492492
v -0.01529343 0.05892824 0.05654469
v 0.05561908 0.05574605 0.04510477
v 0.00421516 0.06492639 0.05377723
v 0.05117915 0.06096723 0.05454713
v -0.03135102 -0.02603584 0.05704589
v -0.03096107 0.06248097 0.05231281
v -0.01099825 -0.00955254 0.02646613
v -0.01054139 -0.02360216 0.03767569
v 0.00348282 0.02228575 0.02775565
v -0.01295030 -0.00966033 0.02625886
v -0.00739668 0.06510894 0.05285881
v -0.04722731 0.00430070 0.05542753
v -0.04582827 0.04947471 0.05452629
v 0.00704410 0.05716711 0.05799061
vn 0.31402547 0.36399964 0.87686502
vn 0.85787045 -0.51109283 0.05331427
vn 0.74104909 0.34977275 -0.57315379
vn -0.12049013 0.25813341 -0.95856626
vn -0.74726647 -0.28410941 0.60072845
vn 0.80346187 -0.20794344 -0.55786070
vn -0.37768001 0.74302888 -0.55250872
vn 0.89724740 0.05370732 0.43824950
vn 0.30790445 -0.68030425 0.66511727
vn 0.14609943 0.20199421 -0.96842826
vn 0.02111603 0.99972295 -0.01039868
vn 0.31330002 0.70634227 -0.63476271
vn -0.82939209 -0.31766657 -0.45956144
vn 0.62976514 -0.37179227 0.68203107
vn 0.74304775 0.49853521 0.44647808
vn 0.81426573 0.08119286 -0.57478609
vn 0.89580832 0.01279986 0.44425626
vn -0.03202642 0.08288381 0.99604447
vn 0.05187797 -0.70100667 -0.71126530
vn -0.01748450 0.76016829 -0.64949093
vn 0.60005910 0.58021209 -0.55071137
vn -0.80071630 0.36782889 -0.47281635
vn 0.76730315 0.08715719 0.63533416
vn 0.30509019 -0.21629613 0.92743515
vn 0.96042671 0.26116345 0.09682036
vn 0.29829137 0.93952523 0.16826942
vn 0.83376110 0.01811914 -0.55182798
vn 0.07219810 -0.74424020 0.66399846
vn -0.04198020 0.46655422 0.88349580
vn 0.43054543 -0.82596366 -0.36388825
vn 0.23243729 -0.18197491 -0.95543605
vn -0.01809638 0.97392268 -0.22615733
vn 0.74112077 0.66793322 0.06786177
vn -0.85639781 0.04278607 -0.51454071
vn 0.75115257 0.10827414 0.65118855
vn 0.00860038 0.16736197 0.98585800
vn 0.96296235 0.16642859 0.21214392
vn 0.96068225 0.27240144 -0.05373139
vn 0.99391614 0.09898565 0.04829649
vn 0.25467752 0.94880176 -0.18685445
vn 0.20914173 0.86594620 0.45430928
vn -0.45878837 0.11321025 0.88130396
vn -0.39699697 -0.85601657 -0.33110277
vn 0.23104054 -0.53973285 -0.80951141
vn 0.19144961 -0.97842318 -0.07768609
vn 0.21833608 -0.03996510 -0.97505495
vn -0.20003024 0.01808598 -0.97962278
vn -0.12863653 0.87462707 0.46741859
vn 0.50090821 0.81338994 0.29578334
vn -0.94289884 0.02833918 0.33187147
vn -0.09457818 0.32192661 0.94202878
vn 0.89802903 0.15766686 -0.41071282
vn 0.01588446 0.86757127 0.49705913
vn 0.29266353 0.75879361 0.58187655
vn -0.32759785 -0.71027013 0.62305376
vn -0.35250828 0.81627221 0.45764353
vn 0.19960022 -0.33151769 -0.92209315
vn 0.12088241 -0.89680766 -0.42558603
vn 0.10315316 0.03632076 -0.99400213
vn -0.20544276 -0.30471905 -0.93002128
vn -0.06300379 0.95032932 0.30480273
vn -0.93028695 0.01453619 0.36654452
vn -0.75326741 0.44398850 0.48524471
vn -0.04191234 0.17198958 0.98420676
f 12//12 10//10 4//4
f 14//14 9//9 2//2
f 16//16 10//10 3//3
f 17//17 2//2 6//6
f 17//17 14//14 2//2
f 17//17 8//8 14//14
f 20//20 12//12 4//4
f 20//20 4//4 7//7
f 21//21 3//3 10//10
f 21//21 10//10 12//12
f 22//22 7//7 4//4
f 23//23 14//14 8//8
f 23//23 1//1 14//14
f 23//23 8//8 15//15
f 24//24 14//14 1//1
f 24//24 9//9 14//14
f 25//25 3//3 15//15
f 27//27 6//6 10//10
f 27//27 10//10 16//16
f 27//27 17//17 6//6
f 27//27 8//8 17//17
f 30//30 6//6 2//2
f 30//30 2//2 9//9
f 32//32 20//20 7//7
f 33//33 15//15 3//3
f 33//33 3//3 21//21
f 34//34 13//13 5//5
f 35//35 23//23 15//15
f 35//35 15//15 1//1
f 35//35 1//1 23//23
f 36//36 9//9 24//24
f 36//36 28//28 9//9
f 36//36 18//18 28//28
f 36//36 24//24 1//1
f 36//36 1//1 29//29
f 37//37 25//25 15//15
f 37//37 15//15 8//8
f 37//37 8//8 25//25
f 38//38 25//25 16//16
f 38//38 3//3 25//25
f 39//39 25//25 8//8
f 39//39 16//16 25//25
f 39//39 27//27 16//16
f 39//39 8//8 27//27
f 40//40 11//11 26//26
f 40//40 32//32 11//11
f 40//40 12//12 20//20
f 40//40 20//20 32//32
f 40//40 21//21 12//12
f 40//40 33//33 21//21
f 40//40 26//26 33//33
f 42//42 28//28 18//18
f 44//44 30//30 19//19
f 44//44 6//6 30//30
f 45//45 30//30 9//9
f 45//45 9//9 28//28
f 46//46 10//10 6//6
f 46//46 6//6 31//31
f 47//47 22//22 4//4
f 47//47 34//34 22//22
f 49//49 33//33 26//26
f 49//49 15//15 33//33
f 49//49 26//26 41//41
f 51//51 42//42 18//18
f 51//51 29//29 48//48
f 52//52 38//38 16//16
f 52//52 16//16 3//3
f 52//52 3//3 38//38
f 53//53 41//41 26//26
f 53//53 26//26 11//11
f 53//53 29//29 1//1
f 53//53 1//1 41//41
f 54//54 41//41 1//1
f 54//54 1//1 15//15
f 54//54 49//49 41//41
f 54//54 15//15 49//49
f 55//55 42//42 5//5
f 55//55 28//28 42//42
f 55//55 43//43 28//28
f 55//55 5//5 13//13
f 55//55 13//13 43//43
f 56//56 7//7 22//22
f 56//56 48//48 7//7
f 56//56 51//51 48//48
f 56//56 42//42 51//51
f 57//57 31//31 6//6
f 57//57 6//6 44//44
f 58//58 19//19 30//30
f 58//58 30//30 45//45
f 58//58 43//43 19//19
f 58//58 45//45 28//28
f 58//58 28//28 43//43
f 59//59 4//4 10//10
f 59//59 10//10 46//46
f 59//59 47//47 4//4
f 59//59 46//46 31//31
f 59//59 31//31 47//47
f 60//60 13//13 34//34
f 60//60 34//34 47//47
f 60//60 47//47 31//31
f 60//60 31//31 57//57
f 60//60 43//43 13//13
f 60//60 19//19 43//43
f 60//60 57//57 44//44
f 60//60 44//44 19//19
f 61//61 32//32 7//7
f 61//61 7//7 48//48
f 61//61 48//48 29//29
f 61//61 29//29 53//53
f 61//61 53//53 11//11
f 61//61 11//11 32//32
f 62//62 50//50 34//34
f 62//62 34//34 5//5
f 62//62 5//5 42//42
f 62//62 42//42 50//50
f 63//63 22//22 34//34
f 63//63 34//34 50//50
f 63//63 50//50 42//42
f 63//63 56//56 22//22
f 63//63 42//42 56//56
f 64//64 36//36 29//29
f 64//64 29//29 51//51
f 64//64 51//51 18//18
f 64//64 18//18 36//36

