# https://github.com/mikedh/trimesh
v 0.01961158 -0.04587432 0.03197409
v 0.03076614 -0.06660673 0.03028862
v 0.03092553 -0.03299684 -0.04561507
v -0.03145535 -0.04453125 -0.06099527
v -0.03135779 -0.07072465 0.01577368
v 0.03077864 -0.06677043 -0.04636471
v -0.03185966 -0.03648521 0.01285917
v 0.03095686 -0.03531375 0.01427614
v -0.00101171 -0.06882342 0.03027191
v -0.00093651 -0.04455294 -0.06207126
v -0.03128466 -0.06840718 -0.05713566
v 0.01624795 -0.02602092 -0.04504617
v 0.03079714 -0.05438746 0.03030920
v 0.01422074 -0.02987609 0.01301543
v 0.03333907 -0.04214905 -0.03044275
v -0.03141740 -0.04776155 0.01595462
v -0.00641354 -0.07084364 0.00770477
v 0.03168151 -0.03537179 -0.04608067
v -0.00092417 -0.06282937 -0.06088149
v -0.03149184 -0.06520337 -0.05975668
v -0.03135165 -0.03659861 -0.04504617
v 0.02569282 -0.02610269 -0.04395629
v 0.03112024 -0.04561220 0.02396636
v 0.01537197 -0.04597528 0.03153772
v 0.02408536 -0.02996620 0.01095163
v 0.00886111 -0.02882381 0.00724013
v 0.02004915 -0.06823132 0.01846868
v -0.00905933 -0.07084999 0.01169331
v -0.02224645 -0.07079656 -0.03578361
v -0.00102849 -0.06690635 -0.05777833
v -0.03146138 -0.04976763 -0.06088945
v -0.03138035 -0.06948599 -0.05269475
v 0.02552928 -0.02595027 -0.03948455
v 0.02447732 -0.04612716 0.02931517
v 0.03113433 -0.04460048 0.02264642
v -0.00093004 -0.05707094 0.03032039
v 0.01719565 -0.02976947 0.01299250
v 0.01611582 -0.02600964 -0.03354399
v 0.01417150 -0.02873420 0.01100493
v 0.03070099 -0.06692478 0.02624408
v 0.02795186 -0.06689772 0.03023167
v -0.00647595 -0.07077813 0.00390553
v -0.02986404 -0.07090570 -0.02646734
v -0.00083931 -0.06463199 -0.05983111
v -0.00485073 -0.06293451 -0.06078940
v -0.01822550 -0.06815575 -0.05636704
v -0.00898388 -0.06949461 -0.04486785
v 0.02410688 -0.02835191 0.00849969
v 0.02220745 -0.04600807 0.03057460
v 0.01334047 -0.04741393 0.03183813
v 0.02199941 -0.02589577 -0.03549541
v 0.01135452 -0.02869746 0.00939666
v 0.03072862 -0.06690019 -0.00399950
v -0.02334017 -0.07087994 0.00785367
v -0.02606293 -0.07087107 -0.03565696
v -0.03128821 -0.06715115 -0.05851800
v -0.03005861 -0.06946143 -0.05269006
v -0.00092212 -0.06814204 -0.05144725
v -0.02208562 -0.07086506 0.01044416
v -0.02721038 -0.07083574 -0.03439770
vn 0.12322097 0.42139469 0.89846709
vn 0.60248930 -0.53923607 0.58841406
vn 0.73494337 0.47254254 -0.48637618
vn -0.63886303 0.36605455 -0.67665212
vn -0.66516671 -0.60878921 0.43235280
vn 0.66675375 -0.59593527 -0.44754954
vn -0.69637785 0.58874336 0.41041338
vn 0.77220872 0.53749029 0.33881834
vn -0.14417880 -0.64614472 0.74947280
vn 0.14181149 0.28809742 -0.94704244
vn -0.60080593 -0.70790996 -0.37134314
vn -0.03793692 0.91068023 -0.41136640
vn 0.73046396 0.11508951 0.67318408
vn -0.07344343 0.81489140 0.57494179
vn 0.99702079 0.07497117 -0.01813476
vn -0.77304947 0.08397539 0.62876280
vn 0.05538024 -0.99841542 0.00998400
vn 0.81411322 0.19237875 -0.54791431
vn 0.18266491 -0.26615613 -0.94646418
vn -0.66203394 -0.25399044 -0.70512404
vn -0.72459946 0.66933643 -0.16414739
vn 0.41928746 0.81433045 -0.40132773
vn 0.84547293 0.33842878 0.41308776
vn -0.12234826 0.56326799 0.81716588
vn 0.26555402 0.78336232 0.56198269
vn -0.14647126 0.98621609 0.07696743
vn 0.09588235 -0.99503060 0.02684552
vn 0.02968988 -0.99822560 0.05161557
vn 0.03638174 -0.99815575 -0.04859501
vn 0.11229673 -0.85065231 -0.51359527
vn -0.70734091 -0.03262003 -0.70611951
vn -0.67433493 -0.72928768 -0.11580972
vn 0.44782749 0.89408452 0.00796370
vn 0.44964930 0.55074218 0.70320591
vn 0.99579004 0.06809809 0.06135830
vn -0.27802775 0.10760149 0.95452736
vn 0.07650983 0.83522021 0.54456722
vn -0.10550897 0.99420264 0.02071133
vn -0.04863875 0.95253592 0.30051555
vn 0.65613619 -0.75408398 0.02902839
vn 0.06686489 -0.85059272 0.52155643
vn 0.06444317 -0.99772619 -0.01973636
vn -0.27354123 -0.96179287 -0.01138690
vn 0.15991959 -0.57293223 -0.80384973
vn -0.02114287 -0.15865073 -0.98710837
vn 0.04504274 -0.96224496 -0.26843211
vn 0.05592204 -0.99407147 -0.09324509
vn 0.33894540 0.91263237 0.22851296
vn 0.41923717 0.55436741 0.71896938
vn -0.14318150 0.22075169 0.96476305
vn 0.02365522 0.99932148 0.02823135
vn -0.10335217 0.98194537 0.15843490
vn 0.67993595 -0.73327044 -0.00124948
vn -0.00649838 -0.99997020 0.00416749
vn -0.02413325 -0.99862944 -0.04644167
vn -0.54766382 -0.55822935 -0.62325303
vn 0.02754039 -0.98606435 -0.16406897
vn 0.06249004 -0.98484365 -0.16179611
vn -0.00267677 -0.99989465 0.01426609
vn -0.08863509 -0.99523298 -0.04068347
f 9//9 2//2 1//1
f 12//12 10//10 4//4
f 13//13 1//1 2//2
f 15//15 2//2 6//6
f 16//16 7//7 5//5
f 16//16 5//5 9//9
f 18//18 10//10 3//3
f 18//18 6//6 10//10
f 18//18 15//15 6//6
f 18//18 3//3 8//8
f 18//18 8//8 15//15
f 19//19 10//10 6//6
f 20//20 7//7 4//4
f 20//20 5//5 7//7
f 21//21 12//12 4//4
f 21//21 4//4 7//7
f 21//21 7//7 12//12
f 22//22 3//3 10//10
f 22//22 10//10 12//12
f 23//23 13//13 2//2
f 23//23 2//2 15//15
f 24//24 14//14 7//7
f 24//24 1//1 14//14
f 25//25 1//1 8//8
f 27//27 17//17 6//6
f 28//28 9//9 5//5
f 28//28 17//17 27//27
f 31//31 20//20 4//4
f 31//31 4//4 10//10
f 32//32 20//20 11//11
f 32//32 5//5 20//20
f 33//33 8//8 3//3
f 33//33 3//3 22//22
f 33//33 22//22 12//12
f 34//34 23//23 8//8
f 34//34 13//13 23//23
f 35//35 23//23 15//15
f 35//35 15//15 8//8
f 35//35 8//8 23//23
f 36//36 7//7 16//16
f 36//36 16//16 9//9
f 37//37 14//14 1//1
f 37//37 1//1 25//25
f 38//38 12//12 7//7
f 38//38 7//7 26//26
f 39//39 7//7 14//14
f 39//39 14//14 37//37
f 41//41 2//2 9//9
f 41//41 9//9 28//28
f 41//41 40//40 2//2
f 41//41 28//28 27//27
f 41//41 27//27 40//40
f 42//42 29//29 6//6
f 42//42 6//6 17//17
f 42//42 17//17 29//29
f 43//43 5//5 32//32
f 43//43 17//17 28//28
f 44//44 19//19 6//6
f 44//44 6//6 30//30
f 44//44 20//20 19//19
f 45//45 31//31 10//10
f 45//45 10//10 19//19
f 45//45 19//19 20//20
f 45//45 20//20 31//31
f 46//46 11//11 30//30
f 47//47 6//6 29//29
f 48//48 25//25 8//8
f 48//48 8//8 33//33
f 48//48 39//39 37//37
f 48//48 37//37 25//25
f 49//49 34//34 8//8
f 49//49 8//8 1//1
f 49//49 1//1 13//13
f 49//49 13//13 34//34
f 50//50 24//24 7//7
f 50//50 7//7 36//36
f 50//50 1//1 24//24
f 50//50 36//36 9//9
f 50//50 9//9 1//1
f 51//51 33//33 12//12
f 51//51 12//12 38//38
f 51//51 48//48 33//33
f 51//51 38//38 48//48
f 52//52 26//26 7//7
f 52//52 7//7 39//39
f 52//52 38//38 26//26
f 52//52 48//48 38//38
f 52//52 39//39 48//48
f 53//53 40//40 27//27
f 53//53 27//27 6//6
f 53//53 6//6 2//2
f 53//53 2//2 40//40
f 54//54 43//43 28//28
f 54//54 5//5 43//43
f 55//55 32//32 29//29
f 55//55 29//29 17//17
f 55//55 17//17 43//43
f 56//56 44//44 30//30
f 56//56 30//30 11//11
f 56//56 11//11 20//20
f 56//56 20//20 44//44
f 57//57 32//32 11//11
f 57//57 11//11 46//46
f 57//57 47//47 29//29
f 57//57 29//29 32//32
f 58//58 30//30 6//6
f 58//58 6//6 47//47
f 58//58 47//47 57//57
f 58//58 57//57 46//46
f 58//58 46//46 30//30
f 59//59 54//54 28//28
f 59//59 28//28 5//5
f 59//59 5//5 54//54
f 60//60 55//55 43//43
f 60//60 43//43 32//32
f 60//60 32//32 55//55

