# https://github.com/mikedh/trimesh
v 0.04663182 0.00830778 0.05767365
v 0.05862351 -0.05698473 0.05415916
v 0.05863843 -0.00234294 0.04616585
v 0.02376801 0.02563629 0.04735859
v 0.01623520 -0.05115065 0.05775250
v 0.03078718 0.02553854 0.04772353
v 0.05724870 -0.00228576 0.05338474
v 0.05154127 -0.05610486 0.05779489
v 0.02419025 0.02552891 0.05698331
v 0.03078507 -0.06561883 0.04618149
v 0.03085813 0.02556147 0.05704586
v 0.05837254 -0.00227292 0.05106470
v 0.03078200 -0.05862893 0.05811493
v 0.05170115 -0.00897739 0.05798907
v 0.04789023 -0.00360629 0.05802435
v 0.01626246 -0.00886799 0.05711671
v 0.05869398 -0.06081172 0.04626265
v 0.05267487 -0.06274049 0.05426814
v 0.01626726 -0.05137191 0.04668033
v 0.05829321 -0.01963151 0.05370935
v 0.03099332 -0.06406110 0.05462061
v 0.05364919 -0.00220944 0.05666444
v 0.05538447 -0.05844192 0.05632461
v 0.04716472 -0.01020984 0.04480982
v 0.05753144 -0.06194147 0.05188313
v 0.01622092 -0.00887131 0.04684274
v 0.03101478 -0.06208929 0.05663789
v 0.05376603 -0.06417273 0.05112197
v 0.05697002 -0.00894085 0.05462902
v 0.05720087 -0.03269155 0.05546028
v 0.05525297 -0.06456925 0.04594539
v 0.04742477 -0.02203612 0.04487400
v 0.05848682 -0.05974079 0.05203421
v 0.05476551 -0.06081013 0.05560643
v 0.03972083 -0.06152100 0.05704380
v 0.03326475 -0.06420430 0.05455349
v 0.05509681 -0.06156104 0.05444494
v 0.05473857 -0.01434187 0.05664015
v 0.05752427 -0.05235513 0.05523801
v 0.05283901 -0.05985136 0.05653449
v 0.05600616 -0.05942997 0.05546078
v 0.05299046 -0.06183417 0.05530069
v 0.04388132 -0.05860651 0.05778040
v 0.05057151 -0.06412420 0.05214233
vn 0.46790743 0.42466996 0.77506004
vn 0.87277607 -0.13496725 0.46909037
vn 0.74391817 0.31413089 -0.58983688
vn -0.50894347 0.64868132 -0.56585254
vn -0.71458204 -0.30764730 0.62827195
vn 0.31757610 0.74705729 -0.58399557
vn 0.78535473 0.30821646 0.53686177
vn 0.17346596 -0.10694545 0.97901595
vn -0.49598240 0.63308905 0.59430608
vn -0.28745446 -0.77384408 -0.56438930
vn 0.29634339 0.72583120 0.62076539
vn 0.90960630 0.36231346 0.20333555
vn -0.07974093 -0.22576949 0.97091170
vn 0.24255948 0.02584512 0.96979221
vn 0.01597898 0.02163809 0.99963817
vn -0.74015879 0.08698916 0.66678172
vn 0.76201779 -0.28375222 -0.58207694
vn 0.19291777 -0.81416228 0.54765182
vn -0.73162344 -0.30588179 -0.60923188
vn 0.91061524 0.02303251 0.41261288
vn -0.30811761 -0.85298086 0.42129229
vn 0.51699339 0.18578376 0.83558496
vn 0.43240831 -0.20117679 0.87894878
vn 0.02684310 0.02883240 -0.99922377
vn 0.69342278 -0.63981340 0.33136635
vn -0.74575906 0.08608819 -0.66063019
vn -0.18678846 -0.58067883 0.79241540
vn 0.24819451 -0.92674583 0.28203129
vn 0.73765176 0.06113928 0.67240751
vn 0.63192479 0.00830000 0.77498527
vn 0.33613012 -0.73382257 -0.59035665
vn 0.03017664 -0.00708264 -0.99951949
vn 0.93228719 -0.28225947 0.22620829
vn 0.38789336 -0.54211015 0.74542292
vn 0.04659624 -0.54201746 0.83907441
vn 0.00207968 -0.88933683 0.45724795
vn 0.40963724 -0.73367315 0.54214485
vn 0.51809041 0.02094419 0.85506939
vn 0.59040924 -0.00552311 0.80708514
vn 0.15861408 -0.38414138 0.90954768
vn 0.60695383 -0.38565090 0.69489599
vn 0.18732359 -0.67361269 0.71495162
vn 0.05168308 -0.22075142 0.97395979
vn 0.06418846 -0.94326633 0.32577367
f 6//6 3//3 4//4
f 11//11 3//3 6//6
f 11//11 6//6 4//4
f 11//11 4//4 9//9
f 12//12 2//2 3//3
f 12//12 3//3 11//11
f 12//12 11//11 1//1
f 12//12 1//1 7//7
f 14//14 13//13 8//8
f 15//15 9//9 5//5
f 15//15 11//11 9//9
f 15//15 1//1 11//11
f 15//15 14//14 1//1
f 15//15 5//5 13//13
f 15//15 13//13 14//14
f 16//16 9//9 4//4
f 16//16 5//5 9//9
f 17//17 3//3 2//2
f 19//19 10//10 5//5
f 20//20 12//12 7//7
f 20//20 2//2 12//12
f 21//21 5//5 10//10
f 22//22 7//7 1//1
f 22//22 1//1 14//14
f 23//23 14//14 8//8
f 24//24 3//3 17//17
f 24//24 4//4 3//3
f 26//26 16//16 4//4
f 26//26 24//24 19//19
f 26//26 4//4 24//24
f 26//26 19//19 5//5
f 26//26 5//5 16//16
f 27//27 13//13 5//5
f 27//27 5//5 21//21
f 29//29 20//20 7//7
f 29//29 7//7 22//22
f 30//30 2//2 20//20
f 30//30 20//20 29//29
f 31//31 28//28 10//10
f 31//31 17//17 25//25
f 31//31 25//25 28//28
f 32//32 10//10 19//19
f 32//32 19//19 24//24
f 32//32 31//31 10//10
f 32//32 24//24 17//17
f 32//32 17//17 31//31
f 33//33 25//25 17//17
f 33//33 17//17 2//2
f 33//33 2//2 25//25
f 35//35 13//13 27//27
f 36//36 21//21 10//10
f 36//36 18//18 35//35
f 36//36 35//35 27//27
f 36//36 27//27 21//21
f 37//37 28//28 25//25
f 37//37 18//18 28//28
f 37//37 25//25 34//34
f 38//38 22//22 14//14
f 38//38 14//14 23//23
f 38//38 23//23 30//30
f 38//38 30//30 29//29
f 38//38 29//29 22//22
f 39//39 30//30 23//23
f 39//39 23//23 2//2
f 39//39 2//2 30//30
f 40//40 34//34 23//23
f 40//40 23//23 8//8
f 41//41 34//34 25//25
f 41//41 25//25 2//2
f 41//41 2//2 23//23
f 41//41 23//23 34//34
f 42//42 35//35 18//18
f 42//42 40//40 35//35
f 42//42 34//34 40//40
f 42//42 37//37 34//34
f 42//42 18//18 37//37
f 43//43 8//8 13//13
f 43//43 13//13 35//35
f 43//43 40//40 8//8
f 43//43 35//35 40//40
f 44//44 36//36 10//10
f 44//44 10//10 28//28
f 44//44 28//28 18//18
f 44//44 18//18 36//36

