# https://github.com/mikedh/trimesh
v 0.05292883 0.03348793 0.05616291
v 0.05869398 -0.06081172 0.04626265
v 0.05727769 0.03206670 -0.05696740
v 0.03076860 0.03209733 -0.06132882
v 0.03064815 -0.06563996 0.04608795
v 0.04533560 0.06385482 -0.01595670
v 0.05712094 0.05188225 0.04079822
v 0.04668998 -0.00223604 0.05783896
v 0.04779187 -0.06445983 -0.05815161
v 0.04910105 0.03206727 -0.06210605
v 0.01597180 0.02509740 -0.03360155
v 0.05734330 0.03332846 0.05279927
v 0.05978261 -0.00360492 -0.02132332
v 0.05583793 0.05910052 -0.01577837
v 0.05525297 -0.06456925 0.04594539
v 0.05364919 -0.00220944 0.05666444
v 0.05241321 0.06236442 -0.01573283
v 0.04293169 0.03201994 -0.06208862
v 0.05639565 -0.05891747 -0.05941264
v 0.04553963 0.06269367 0.04501023
v 0.01624795 0.02554532 -0.04636838
v 0.05717203 0.05819124 -0.00410030
v 0.05985703 -0.04453167 0.02500169
v 0.05849994 0.03744238 0.02093830
v 0.03077980 -0.06679067 -0.04504281
v 0.05269900 0.00832835 0.05668548
v 0.05392919 0.03349675 0.05559556
v 0.05724870 -0.00228576 0.05338474
v 0.05252617 0.03220493 -0.06097059
v 0.04673364 -0.06153010 -0.06077833
v 0.05984044 -0.05244686 -0.05149907
v 0.05521551 -0.06413768 -0.05554023
v 0.04526698 0.06388388 0.02611835
v 0.05362066 0.06107910 0.04482841
v 0.04663182 0.00830778 0.05767365
v 0.02092421 0.01973037 -0.00576909
v 0.05849088 0.02679415 -0.03839740
v 0.05713861 0.05781647 -0.00925686
v 0.05256346 0.06352044 -0.00502787
v 0.05837254 -0.00227292 0.05106470
v 0.05713639 0.04799422 0.04477047
v 0.05985147 -0.01547077 0.00517638
v 0.05714113 0.05431569 0.03423514
v 0.03063498 -0.06701975 0.02497893
v 0.01624795 -0.02602092 -0.04504617
v 0.05597650 0.03329147 0.05399111
v 0.05458734 0.03202169 -0.05950159
v 0.05417906 -0.05484805 -0.06071608
v 0.04889833 0.01232606 -0.06201504
v 0.03079367 -0.02602391 -0.06083731
v 0.05259676 -0.06198015 -0.05940453
v 0.04648275 -0.06454480 -0.05825121
v 0.05847328 -0.04848137 -0.05710276
v 0.05984117 -0.05724112 -0.03979026
v 0.04662829 -0.06565700 -0.05653294
v 0.05700964 -0.06335196 -0.03847594
v 0.05853766 -0.06074249 -0.05517002
v 0.05116109 0.06268448 0.04483522
v 0.03068960 -0.05279759 0.04667178
v 0.01548895 -0.01506251 -0.02584875
v 0.05981125 -0.02474592 -0.05025200
v 0.05850786 0.02813937 -0.03313786
v 0.05440143 0.06151202 -0.01327920
v 0.05573616 0.06060881 0.01298537
vn 0.02026280 0.20018499 0.97954856
vn 0.73865460 -0.35031017 0.57590986
vn 0.82161741 0.34234224 -0.45579229
vn -0.41410525 0.45334944 -0.78929787
vn -0.53253260 -0.62449948 0.57132253
vn -0.29784829 0.92372305 -0.24087781
vn 0.97629972 0.17998533 0.12018373
vn -0.20583763 -0.04372246 0.97760893
vn 0.15486321 -0.75998119 -0.63122578
vn 0.12952005 0.44333843 -0.88694734
vn -0.95216828 0.30019588 0.05707886
vn 0.87811745 0.11523424 0.46436066
vn 0.99975108 0.02145059 -0.00613516
vn 0.82241572 0.51573283 -0.24010838
vn 0.34266062 -0.74680865 0.56996539
vn 0.42481702 -0.05531708 0.90358758
vn 0.40088761 0.85532817 -0.32818112
vn -0.03004282 0.45631781 -0.88930956
vn 0.59005571 -0.26585424 -0.76233574
vn -0.48082765 0.68507026 0.54725087
vn -0.88627488 0.31294754 -0.34143912
vn 0.93811581 0.34605802 -0.01351192
vn 0.99957124 -0.01730508 0.02361934
vn 0.99889390 0.04426728 0.01585507
vn -0.57136922 -0.76557286 -0.29569479
vn 0.19168011 0.01760778 0.98129950
vn 0.54936540 0.17159438 0.81777321
vn 0.79632281 -0.02354932 0.60441328
vn 0.39569534 0.44803996 -0.80167661
vn -0.19179208 -0.37566387 -0.90669314
vn 0.99134912 -0.04195235 -0.12436608
vn 0.46324871 -0.83103449 -0.30786735
vn -0.41033648 0.91127795 0.03459012
vn 0.66272105 0.56667329 0.48957348
vn -0.39174732 0.07796687 0.91676344
vn -0.95790612 0.14710535 0.24652764
vn 0.99799019 0.05322970 -0.03438283
vn 0.94701624 0.31796709 -0.04535608
vn 0.40649852 0.91345377 -0.01900434
vn 0.97022955 0.00174896 0.24218083
vn 0.96300059 0.15145332 0.22291649
vn 0.99986842 0.01207894 0.01082783
vn 0.97218887 0.22921405 0.04805962
vn -0.54971862 -0.83504463 0.02258122
vn -0.92523802 -0.16596268 -0.34116126
vn 0.63352005 0.15163165 0.75872274
vn 0.58796492 0.40167577 -0.70210671
vn 0.27619227 -0.04873814 -0.95986584
vn 0.06460214 -0.01009639 -0.99786002
vn -0.44396629 -0.09705686 -0.89077152
vn 0.28012370 -0.53760625 -0.79530512
vn -0.18673012 -0.71446851 -0.67428970
vn 0.87775680 0.00006031 -0.47910646
vn 0.98478127 -0.17370087 -0.00581943
vn -0.00564556 -0.94585397 -0.32454336
vn 0.67409149 -0.73863251 -0.00476201
vn 0.86774878 -0.40511076 -0.28791898
vn 0.24795488 0.81156924 0.52903096
vn -0.80894651 0.00025496 0.58788219
vn -0.99463067 -0.05012216 0.09054059
vn 0.99266495 0.01306004 -0.12019041
vn 0.99874545 0.04829026 -0.01325035
vn 0.68052224 0.72210246 -0.12432830
vn 0.80396786 0.59391986 0.02991443
f 15//15 8//8 5//5
f 15//15 2//2 8//8
f 16//16 8//8 2//2
f 17//17 14//14 3//3
f 18//18 4//4 6//6
f 18//18 6//6 10//10
f 21//21 6//6 4//4
f 26//26 16//16 1//1
f 26//26 8//8 16//16
f 27//27 1//1 16//16
f 28//28 16//16 2//2
f 28//28 12//12 16//16
f 29//29 10//10 6//6
f 29//29 6//6 17//17
f 33//33 11//11 20//20
f 33//33 21//21 11//11
f 33//33 6//6 21//21
f 34//34 1//1 27//27
f 35//35 1//1 20//20
f 35//35 26//26 1//1
f 35//35 8//8 26//26
f 36//36 20//20 11//11
f 38//38 3//3 14//14
f 38//38 37//37 3//3
f 39//39 17//17 6//6
f 39//39 6//6 33//33
f 40//40 2//2 23//23
f 40//40 28//28 2//2
f 40//40 12//12 28//28
f 40//40 24//24 12//12
f 40//40 23//23 24//24
f 41//41 24//24 7//7
f 41//41 12//12 24//24
f 41//41 34//34 12//12
f 41//41 7//7 34//34
f 42//42 24//24 23//23
f 42//42 13//13 24//24
f 42//42 23//23 31//31
f 43//43 24//24 22//22
f 43//43 7//7 24//24
f 43//43 34//34 7//7
f 44//44 15//15 5//5
f 45//45 25//25 44//44
f 45//45 44//44 5//5
f 46//46 27//27 16//16
f 46//46 16//16 12//12
f 46//46 34//34 27//27
f 46//46 12//12 34//34
f 47//47 29//29 17//17
f 47//47 17//17 3//3
f 47//47 3//3 19//19
f 47//47 19//19 29//29
f 48//48 29//29 19//19
f 48//48 10//10 29//29
f 48//48 19//19 30//30
f 49//49 18//18 10//10
f 49//49 48//48 30//30
f 49//49 10//10 48//48
f 50//50 4//4 18//18
f 50//50 49//49 30//30
f 50//50 18//18 49//49
f 50//50 30//30 25//25
f 50//50 25//25 45//45
f 50//50 45//45 21//21
f 50//50 21//21 4//4
f 51//51 30//30 19//19
f 51//51 9//9 30//30
f 51//51 32//32 9//9
f 51//51 19//19 32//32
f 52//52 30//30 9//9
f 52//52 25//25 30//30
f 53//53 19//19 3//3
f 54//54 31//31 23//23
f 54//54 23//23 2//2
f 55//55 9//9 32//32
f 55//55 52//52 9//9
f 55//55 25//25 52//52
f 55//55 32//32 15//15
f 55//55 44//44 25//25
f 55//55 15//15 44//44
f 56//56 2//2 15//15
f 56//56 15//15 32//32
f 57//57 32//32 19//19
f 57//57 31//31 54//54
f 57//57 56//56 32//32
f 57//57 54//54 2//2
f 57//57 2//2 56//56
f 57//57 53//53 31//31
f 57//57 19//19 53//53
f 58//58 33//33 20//20
f 58//58 20//20 1//1
f 58//58 1//1 34//34
f 58//58 39//39 33//33
f 58//58 34//34 39//39
f 59//59 35//35 20//20
f 59//59 5//5 8//8
f 59//59 8//8 35//35
f 59//59 20//20 36//36
f 60//60 36//36 11//11
f 60//60 59//59 36//36
f 60//60 5//5 59//59
f 60//60 45//45 5//5
f 60//60 11//11 21//21
f 60//60 21//21 45//45
f 61//61 3//3 37//37
f 61//61 53//53 3//3
f 61//61 31//31 53//53
f 61//61 37//37 13//13
f 61//61 42//42 31//31
f 61//61 13//13 42//42
f 62//62 24//24 13//13
f 62//62 13//13 37//37
f 62//62 22//22 24//24
f 62//62 38//38 22//22
f 62//62 37//37 38//38
f 63//63 38//38 14//14
f 63//63 22//22 38//38
f 63//63 14//14 17//17
f 63//63 17//17 39//39
f 64//64 39//39 34//34
f 64//64 63//63 39//39
f 64//64 22//22 63//63
f 64//64 43//43 22//22
f 64//64 34//34 43//43

