# https://github.com/mikedh/trimesh
v -0.04589543 -0.03659845 0.05667419
v -0.03135779 -0.07072465 0.01577368
v -0.03135165 -0.03659861 -0.04504617
v -0.04589598 -0.03659861 -0.04504617
v -0.05902340 -0.06264496 0.01579232
v -0.04586655 -0.07022161 -0.04504405
v -0.03238932 -0.03636698 0.01389783
v -0.05594661 -0.05383062 0.05576894
v -0.03130819 -0.06996367 -0.04502530
v -0.05925565 -0.06017479 -0.03045286
v -0.05084547 -0.06970260 0.01585150
v -0.06174870 -0.03652582 0.01438277
v -0.03134815 -0.04781889 0.01592169
v -0.04586296 -0.05386339 0.05679975
v -0.05634645 -0.06751327 -0.03046823
v -0.05416133 -0.06836425 0.01577874
v -0.05113136 -0.05378051 0.05673398
v -0.06141374 -0.03658169 -0.01462705
v -0.05686477 -0.03651790 0.05543564
v -0.06029140 -0.05774018 0.01204605
v -0.04587652 -0.04325106 0.05674371
v -0.05782688 -0.06490203 -0.03070920
v -0.05108848 -0.06958995 -0.03055598
v -0.05892835 -0.05367916 0.05112248
v -0.05469195 -0.06838852 -0.03057930
v -0.05778956 -0.06508549 0.01590104
v -0.05113163 -0.05245833 0.05674067
v -0.05894802 -0.06234238 -0.02799736
v -0.06165019 -0.04308210 -0.00004842
v -0.05901505 -0.06145158 -0.03044291
v -0.05809595 -0.05376067 0.05324870
v -0.06027832 -0.05100914 0.03815560
v -0.05891564 -0.06012842 0.02765302
v -0.06032418 -0.05627422 -0.01461401
v -0.06172310 -0.03658497 -0.00135414
v -0.06029882 -0.04043592 0.05265175
v -0.06163482 -0.04308704 0.00645607
v -0.06169665 -0.03922912 -0.00135300
v -0.05886881 -0.05099565 0.05244859
v -0.06025913 -0.04570476 0.04736951
v -0.06030927 -0.03664620 0.05240889
v -0.06166634 -0.04173790 0.00911124
vn 0.43521165 0.59609020 0.67473498
vn 0.66922649 -0.70925064 0.22158391
vn 0.57763704 0.57672706 -0.57768620
vn -0.36549296 0.62789997 -0.68713647
vn -0.93731978 -0.34557865 0.04479995
vn -0.33333576 -0.63499781 -0.69689673
vn 0.68689787 0.71960200 0.10170679
vn -0.40348316 -0.52474135 0.74956511
vn 0.58347327 -0.56770121 -0.58075320
vn -0.92678465 -0.04215523 -0.37321998
vn -0.20517063 -0.96322897 0.17347902
vn -0.72595756 0.68753171 0.01690463
vn 0.98350303 0.05090713 0.17358066
vn 0.46382801 -0.45427623 0.76058969
vn -0.70684708 -0.68446551 -0.17853337
vn -0.51207413 -0.84765340 0.13879411
vn -0.09072034 -0.54563359 0.83309892
vn -0.72936135 0.67161406 -0.13025583
vn -0.31137050 0.65458274 0.68889030
vn -0.98547697 -0.16921280 0.01421863
vn 0.56934856 0.00875787 0.82204958
vn -0.87413400 -0.38296125 -0.29871463
vn -0.23211546 -0.97241595 -0.02301384
vn -0.87646535 -0.42811585 0.22028462
vn -0.40915862 -0.90961441 -0.07204754
vn -0.78280441 -0.61551609 0.09141774
vn -0.10567837 0.00569249 0.99438407
vn -0.95756035 -0.28677014 -0.02900123
vn -0.99852307 -0.05305459 -0.01169993
vn -0.91729542 -0.21709530 -0.33382441
vn -0.72081558 -0.52213980 0.45584529
vn -0.99018024 -0.13167841 0.04694555
vn -0.91937642 -0.37990367 0.10207935
vn -0.99176197 -0.12534629 -0.02639117
vn -0.77397102 0.63312971 -0.01075326
vn -0.89361631 -0.02680865 0.44803034
vn -0.99812791 -0.06065307 0.00786694
vn -0.99979986 -0.01410778 -0.01418465
vn -0.92072662 -0.13464629 0.36624153
vn -0.99414784 -0.08563371 0.06585548
vn -0.71491607 0.62130860 0.32073453
vn -0.99894014 -0.04345788 0.01516628
f 6//6 4//4 3//3
f 7//7 3//3 4//4
f 9//9 6//6 3//3
f 9//9 2//2 6//6
f 10//10 4//4 6//6
f 11//11 6//6 2//2
f 13//13 7//7 1//1
f 13//13 3//3 7//7
f 13//13 9//9 3//3
f 13//13 2//2 9//9
f 14//14 2//2 13//13
f 16//16 11//11 8//8
f 17//17 11//11 2//2
f 17//17 8//8 11//11
f 17//17 2//2 14//14
f 18//18 12//12 7//7
f 18//18 7//7 4//4
f 18//18 4//4 10//10
f 19//19 1//1 7//7
f 19//19 7//7 12//12
f 21//21 14//14 13//13
f 21//21 13//13 1//1
f 22//22 6//6 15//15
f 23//23 6//6 11//11
f 25//25 16//16 15//15
f 25//25 11//11 16//16
f 25//25 23//23 11//11
f 25//25 15//15 6//6
f 25//25 6//6 23//23
f 26//26 15//15 16//16
f 26//26 22//22 15//15
f 26//26 5//5 22//22
f 26//26 16//16 24//24
f 27//27 1//1 19//19
f 27//27 21//21 1//1
f 27//27 17//17 14//14
f 27//27 14//14 21//21
f 27//27 19//19 8//8
f 27//27 8//8 17//17
f 28//28 5//5 20//20
f 28//28 22//22 5//5
f 30//30 10//10 6//6
f 30//30 6//6 22//22
f 30//30 28//28 10//10
f 30//30 22//22 28//28
f 31//31 24//24 16//16
f 31//31 16//16 8//8
f 33//33 26//26 24//24
f 33//33 5//5 26//26
f 33//33 24//24 32//32
f 33//33 32//32 20//20
f 33//33 20//20 5//5
f 34//34 28//28 20//20
f 34//34 10//10 28//28
f 34//34 20//20 29//29
f 34//34 29//29 18//18
f 34//34 18//18 10//10
f 35//35 12//12 18//18
f 36//36 31//31 8//8
f 36//36 8//8 19//19
f 37//37 29//29 20//20
f 37//37 20//20 32//32
f 38//38 35//35 18//18
f 38//38 18//18 29//29
f 38//38 29//29 12//12
f 38//38 12//12 35//35
f 39//39 36//36 24//24
f 39//39 24//24 31//31
f 39//39 31//31 36//36
f 40//40 32//32 24//24
f 40//40 24//24 36//36
f 40//40 36//36 12//12
f 41//41 36//36 19//19
f 41//41 19//19 12//12
f 41//41 12//12 36//36
f 42//42 37//37 32//32
f 42//42 12//12 29//29
f 42//42 29//29 37//37
f 42//42 40//40 12//12
f 42//42 32//32 40//40

