# https://github.com/mikedh/trimesh
v -0.04582827 0.04947471 0.05452629
v -0.03134748 -0.01810217 0.05659327
v -0.02200950 0.03296018 0.00962530
v -0.04558143 0.03265890 -0.02943777
v -0.06158008 -0.03637881 0.03690253
v -0.02487153 -0.03675610 -0.01463421
v -0.04726568 0.04953051 0.02894731
v -0.03139912 -0.00885956 0.05610285
v -0.05686477 -0.03651790 0.05543564
v -0.02506295 -0.02427519 0.01132900
v -0.02236050 0.02270866 -0.03100331
v -0.06178033 -0.03658554 -0.00003441
v -0.04462676 0.04963140 0.03565338
v -0.06154922 0.04630283 0.04329169
v -0.02211759 0.03360664 0.01037288
v -0.05630594 0.04355070 0.05545299
v -0.04721637 -0.03659725 0.05664595
v -0.02119757 -0.00085714 -0.02861249
v -0.02483438 -0.03681194 -0.00319798
v -0.03573191 0.03263414 -0.02761669
v -0.06030927 -0.03664620 0.05240889
v -0.06184028 0.04921271 0.02902780
v -0.04464221 0.04952678 0.04747098
v -0.05393347 0.04307396 0.05547501
v -0.05903670 0.04897266 0.05188922
v -0.03649592 -0.00232533 -0.03075937
v -0.02447196 -0.03722354 -0.00902429
v -0.03874555 0.03259220 -0.02986207
v -0.02400295 0.03385992 0.00645392
v -0.06290168 -0.01262352 0.04986897
v -0.06046338 0.01691722 0.05410550
v -0.06278396 0.03349251 -0.00141294
v -0.05584315 0.04643569 0.05540971
v -0.06024486 0.04889712 0.04720771
v -0.04589598 -0.03659861 -0.01463531
v -0.06289669 -0.02585381 0.04211700
v -0.06301822 0.01489444 0.04616387
v -0.06044171 -0.01400110 0.05406940
v -0.05825706 0.03299555 0.05519270
v -0.06276240 -0.00222221 -0.00141182
v -0.05666658 0.04899430 0.05410212
v -0.06153791 0.04909987 0.03286188
v -0.06155907 0.04403678 0.04704417
v -0.06157702 -0.03390266 0.04481375
v -0.06153767 -0.02860136 0.05140448
v -0.06294891 -0.02696729 0.03944228
v -0.06290062 0.00822620 0.05123386
v -0.05937311 -0.03253947 0.05391927
v -0.05949475 0.03559255 0.05371623
v -0.05845162 0.00475932 0.05505262
v -0.06304989 0.01761271 0.01185310
v -0.06148502 0.04498477 0.04605975
v -0.06158448 -0.03511303 0.04216160
v -0.06288791 -0.02327498 0.04468482
v -0.06173199 -0.01377027 0.05280416
v -0.06153571 -0.02993461 0.05010121
v -0.06303469 -0.01928869 0.02105089
v -0.06180176 0.01692587 0.05279993
v -0.06300192 0.02016811 0.02108764
v -0.06171093 -0.02597596 0.05160601
v -0.06293290 -0.02716361 0.03434731
v -0.06299998 0.00182434 0.01050318
v -0.06151841 0.02767428 0.05186636
v -0.06011215 0.04509378 0.05095803
vn 0.38429255 0.67682408 0.62787610
vn 0.65651294 -0.20889628 0.72481246
vn 0.99543891 0.08847285 0.03569222
vn -0.42379300 0.50030582 -0.75504542
vn -0.75802801 -0.65199653 0.01714816
vn 0.54210524 -0.68890371 -0.48117937
vn 0.16443190 0.97364266 -0.15805735
vn 0.67093831 0.07846146 0.73735038
vn -0.28517557 -0.63927493 0.71414456
vn 0.98773660 -0.09793627 0.12159315
vn 0.65766862 0.31665588 -0.68352106
vn -0.70101111 -0.65406050 -0.28423279
vn 0.29906538 0.95376602 -0.02983765
vn -0.97724902 0.19866940 0.07426178
vn 0.85703808 0.51251633 0.05303529
vn -0.37598152 0.07145404 0.92386807
vn 0.20715093 -0.68825492 0.69526517
vn 0.75406111 -0.16979241 -0.63447803
vn 0.75543224 -0.64521803 0.11408692
vn 0.37582910 0.85923806 -0.34707700
vn -0.64579243 -0.68045630 0.34631108
vn -0.67325409 0.73295471 -0.09750037
vn 0.38580783 0.92056328 0.06095552
vn 0.03683991 0.03525561 0.99869909
vn -0.60938086 0.69478284 0.38201017
vn -0.24605320 -0.21131586 -0.94594050
vn 0.67925728 -0.73383591 -0.00971615
vn 0.07683526 0.63012382 -0.77268384
vn 0.49204604 0.84891026 -0.19298202
vn -0.98176678 -0.02163881 0.18885378
vn -0.57984098 0.01208303 0.81464007
vn -0.88321663 0.34463366 -0.31805035
vn -0.30757122 0.19575078 0.93117215
vn -0.68485353 0.71656546 0.13232377
vn -0.31404755 -0.72647826 -0.61123111
vn -0.99436054 -0.08218915 0.06702277
vn -0.99883450 0.02742542 0.03971768
vn -0.56307167 -0.01719907 0.82622907
vn -0.45152858 0.03559804 0.89154625
vn -0.95266802 -0.02428670 -0.30304092
vn -0.34525800 0.71955211 0.60252940
vn -0.88435595 0.45928596 0.08349225
vn -0.97548148 0.12868693 0.17853729
vn -0.98300361 -0.15901963 0.09174238
vn -0.96228235 -0.09998740 0.25301226
vn -0.99620189 -0.08267938 0.02731144
vn -0.94932079 0.00525356 0.31426490
vn -0.67057324 -0.06203038 0.73924541
vn -0.76423583 0.09578387 0.63778449
vn -0.36653005 -0.00220755 0.93040360
vn -0.99995446 0.00564450 -0.00769526
vn -0.96313492 0.22918510 0.14087340
vn -0.97297202 -0.22161984 0.06488526
vn -0.99537488 -0.05454342 0.07908142
vn -0.83332974 -0.02763414 0.55208504
vn -0.98487028 -0.12694425 0.11796481
vn -0.99964649 -0.02236592 -0.01437543
vn -0.83259774 0.03867821 0.55252601
vn -0.99983628 0.01787791 0.00279014
vn -0.92268970 -0.06828837 0.37944751
vn -0.99736838 -0.07244646 -0.00279616
vn -0.99989217 -0.00341957 -0.01428124
vn -0.91044310 0.07044289 0.40759190
vn -0.90124051 0.13039459 0.41323456
f 8//8 1//1 2//2
f 10//10 3//3 2//2
f 15//15 8//8 2//2
f 15//15 2//2 3//3
f 15//15 1//1 8//8
f 15//15 3//3 11//11
f 17//17 16//16 9//9
f 17//17 2//2 16//16
f 18//18 3//3 10//10
f 18//18 11//11 3//3
f 19//19 10//10 2//2
f 19//19 2//2 17//17
f 20//20 7//7 13//13
f 21//21 5//5 12//12
f 21//21 17//17 9//9
f 22//22 13//13 7//7
f 22//22 1//1 13//13
f 22//22 7//7 4//4
f 23//23 15//15 13//13
f 23//23 13//13 1//1
f 23//23 1//1 15//15
f 24//24 2//2 1//1
f 25//25 1//1 22//22
f 26//26 11//11 18//18
f 26//26 12//12 4//4
f 26//26 18//18 6//6
f 27//27 6//6 18//18
f 27//27 18//18 10//10
f 27//27 10//10 19//19
f 27//27 21//21 12//12
f 27//27 19//19 17//17
f 27//27 17//17 21//21
f 28//28 20//20 11//11
f 28//28 4//4 7//7
f 28//28 7//7 20//20
f 28//28 26//26 4//4
f 28//28 11//11 26//26
f 29//29 15//15 11//11
f 29//29 11//11 20//20
f 29//29 20//20 13//13
f 29//29 13//13 15//15
f 32//32 22//22 4//4
f 33//33 24//24 1//1
f 33//33 16//16 2//2
f 33//33 2//2 24//24
f 33//33 25//25 16//16
f 34//34 25//25 22//22
f 35//35 26//26 6//6
f 35//35 12//12 26//26
f 35//35 27//27 12//12
f 35//35 6//6 27//27
f 37//37 22//22 32//32
f 39//39 9//9 16//16
f 39//39 31//31 38//38
f 40//40 32//32 4//4
f 40//40 4//4 12//12
f 41//41 33//33 1//1
f 41//41 1//1 25//25
f 41//41 25//25 33//33
f 42//42 34//34 22//22
f 42//42 22//22 14//14
f 42//42 14//14 34//34
f 43//43 25//25 34//34
f 43//43 14//14 22//22
f 43//43 22//22 37//37
f 46//46 12//12 5//5
f 46//46 44//44 36//36
f 46//46 30//30 37//37
f 47//47 37//37 30//30
f 47//47 43//43 37//37
f 48//48 21//21 9//9
f 48//48 9//9 38//38
f 49//49 39//39 16//16
f 49//49 16//16 25//25
f 50//50 39//39 38//38
f 50//50 38//38 9//9
f 50//50 9//9 39//39
f 51//51 32//32 40//40
f 52//52 43//43 34//34
f 52//52 34//34 14//14
f 52//52 14//14 43//43
f 53//53 5//5 21//21
f 53//53 21//21 44//44
f 53//53 46//46 5//5
f 53//53 44//44 46//46
f 54//54 36//36 45//45
f 54//54 46//46 36//36
f 54//54 30//30 46//46
f 55//55 47//47 30//30
f 55//55 48//48 38//38
f 55//55 21//21 48//48
f 56//56 44//44 21//21
f 56//56 21//21 45//45
f 56//56 45//45 36//36
f 56//56 36//36 44//44
f 57//57 40//40 12//12
f 57//57 46//46 37//37
f 57//57 37//37 51//51
f 58//58 31//31 39//39
f 58//58 39//39 49//49
f 58//58 47//47 55//55
f 58//58 55//55 38//38
f 58//58 38//38 31//31
f 59//59 51//51 37//37
f 59//59 37//37 32//32
f 59//59 32//32 51//51
f 60//60 54//54 45//45
f 60//60 30//30 54//54
f 60//60 55//55 30//30
f 60//60 45//45 21//21
f 60//60 21//21 55//55
f 61//61 57//57 12//12
f 61//61 12//12 46//46
f 61//61 46//46 57//57
f 62//62 57//57 51//51
f 62//62 51//51 40//40
f 62//62 40//40 57//57
f 63//63 43//43 47//47
f 63//63 47//47 58//58
f 63//63 58//58 49//49
f 64//64 25//25 43//43
f 64//64 43//43 63//63
f 64//64 63//63 49//49
f 64//64 49//49 25//25

