# https://github.com/mikedh/trimesh
v 0.01617560 0.06692237 0.04121526
v 0.02255798 0.04676350 0.02952044
v 0.02799925 0.08200691 0.01792085
v 0.01320771 0.07909780 0.00308342
v 0.00078977 0.04976312 0.02960414
v 0.02811439 0.07513860 0.00312437
v 0.01309754 0.08280668 0.02746068
v 0.02584791 0.07034577 0.03334691
v 0.00284622 0.04655515 0.04291038
v 0.02229029 0.08485666 0.00357724
v 0.01897748 0.07099124 0.00263453
v 0.01025554 0.07961542 0.02882404
v 0.01704294 0.04701749 0.04131359
v 0.02127951 0.07989893 0.03270052
v 0.02800824 0.07690602 0.02323784
v 0.02225235 0.04650847 0.03061979
v 0.02799407 0.08011435 0.00362238
v 0.01937885 0.08592416 0.02091695
v 0.01541197 0.07535085 0.00285630
v 0.02454743 0.07099131 0.00289987
v 0.01444449 0.08447137 0.01114324
v 0.01326520 0.07946841 0.00339109
v 0.00609652 0.06773065 0.03465764
v 0.01280565 0.07580447 0.03704356
v 0.01906594 0.06071220 0.04112195
v 0.02391857 0.07427936 0.03506464
v 0.02693671 0.07151060 0.02855874
v 0.01504874 0.04679731 0.04240747
v 0.02483710 0.06523201 0.03458985
v 0.02602267 0.08396877 0.00876650
v 0.02798612 0.08216605 0.01182039
v 0.02420668 0.08275505 0.02569504
v 0.01774788 0.08489890 0.02510992
v 0.02637891 0.07227300 0.00296660
v 0.01138160 0.08151709 0.02481567
v 0.01687721 0.08584444 0.02090204
v 0.01617839 0.08401220 0.00379218
v 0.00600713 0.06782901 0.03366387
v 0.00172302 0.04685083 0.04226000
v 0.01113076 0.07680448 0.03516943
v 0.01560741 0.08179983 0.03105854
v 0.01850222 0.07389785 0.03796531
v 0.01183331 0.06564757 0.04106321
v 0.02690464 0.07633603 0.02917366
v 0.02395667 0.07106028 0.03588445
v 0.02074556 0.04664005 0.03575326
v 0.01886136 0.05889505 0.04118113
v 0.01826760 0.06373496 0.04126821
v 0.02581695 0.06838315 0.03257139
v 0.02624331 0.08284105 0.00470757
v 0.02352988 0.08598173 0.01472182
v 0.02524089 0.08490837 0.01581838
v 0.02041984 0.08488792 0.02391135
v 0.02697683 0.07308185 0.00313504
v 0.01116938 0.08099442 0.02848933
v 0.01514428 0.08487541 0.02191737
v 0.01443500 0.08294720 0.00497660
v 0.01606838 0.08476616 0.02416845
v 0.01885328 0.08487993 0.00371760
v 0.00821832 0.07390043 0.03294895
v 0.00298717 0.05500579 0.03773064
v 0.01017469 0.07187507 0.03805477
v 0.01635656 0.07877510 0.03502494
v 0.01290251 0.07873616 0.03422115
vn 0.11068432 0.26585076 0.95763895
vn 0.58618350 -0.76746961 -0.25957524
vn 0.89387041 0.43124098 0.12258432
vn -0.64098510 0.13009808 -0.75644735
vn -0.80191589 -0.49449508 -0.33526934
vn 0.73332813 -0.08497786 -0.67454327
vn -0.46476118 0.84282769 0.27136421
vn 0.90927289 0.01633395 0.41587981
vn -0.31083993 -0.63799677 0.70451306
vn 0.17461280 0.70642691 -0.68590917
vn -0.16925490 -0.39410012 -0.90334815
vn -0.87564035 0.46850107 0.11730611
vn 0.54755541 -0.57440770 0.60847257
vn 0.38521122 0.68979968 0.61301608
vn 0.99399480 0.01843061 0.10786401
vn 0.56885198 -0.82154382 0.03838201
vn 0.73402081 0.26168045 -0.62668716
vn 0.10673171 0.98310929 0.14867572
vn -0.34275102 -0.17954968 -0.92210826
vn 0.20863866 -0.46084682 -0.86260658
vn -0.61952853 0.77869037 -0.09912475
vn -0.89221588 0.37650329 -0.24939145
vn -0.88914515 0.33785403 0.30866738
vn -0.22610964 0.53715783 0.81261054
vn 0.53978144 -0.00183784 0.84180319
vn 0.63577835 0.35562116 0.68506896
vn 0.98648591 -0.10431436 0.12634895
vn 0.19375823 -0.63937629 0.74408045
vn 0.89025184 -0.11078063 0.44179102
vn 0.60710931 0.78474463 -0.12487653
vn 0.91415585 0.40455982 -0.02550343
vn 0.55252979 0.73813701 0.38712347
vn -0.01171873 0.92856195 0.37099241
vn 0.46196617 -0.34327399 -0.81777150
vn -0.82525702 0.56390595 -0.03099881
vn -0.24291469 0.96666274 0.08096673
vn -0.37556429 0.65923511 -0.65142961
vn -0.95169977 0.30643816 0.01905786
vn -0.76567650 -0.48947148 0.41732141
vn -0.60333742 0.58412648 0.54293665
vn -0.10638227 0.84921135 0.51722615
vn 0.23957392 0.42660477 0.87213113
vn -0.24036206 0.25891368 0.93551579
vn 0.88290274 0.28786650 0.37096581
vn 0.69036034 0.12622385 0.71236939
vn 0.61286722 -0.72433562 0.31580322
vn 0.58260320 -0.05747350 0.81072209
vn 0.34263947 0.12210245 0.93149836
vn 0.96895005 -0.13761963 0.20541819
vn 0.62513822 0.68311183 -0.37757176
vn 0.26271214 0.96481873 0.01035101
vn 0.57218973 0.81273517 0.10982017
vn 0.26018450 0.90750939 0.32974342
vn 0.76785736 -0.43829599 -0.46721698
vn -0.68362219 0.68707285 0.24615362
vn -0.52608289 0.84603247 0.08640516
vn -0.77334640 0.56240336 -0.29263936
vn -0.29183855 0.92194764 0.25464251
vn -0.12395406 0.74551516 -0.65486070
vn -0.87641990 0.41340829 0.24694482
vn -0.94826392 0.26287357 0.17802532
vn -0.54542450 0.40852079 0.73186261
vn 0.03342640 0.68443085 0.72831112
vn -0.34664605 0.73787100 0.57912253
f 11//11 10//10 6//6
f 11//11 2//2 5//5
f 15//15 6//6 3//3
f 15//15 2//2 6//6
f 16//16 5//5 2//2
f 17//17 6//6 10//10
f 19//19 11//11 5//5
f 19//19 5//5 4//4
f 19//19 4//4 10//10
f 19//19 10//10 11//11
f 20//20 2//2 11//11
f 22//22 4//4 5//5
f 22//22 5//5 12//12
f 27//27 2//2 15//15
f 28//28 1//1 9//9
f 29//29 16//16 2//2
f 31//31 3//3 6//6
f 31//31 6//6 17//17
f 34//34 20//20 11//11
f 34//34 11//11 6//6
f 34//34 2//2 20//20
f 35//35 22//22 12//12
f 36//36 33//33 18//18
f 38//38 12//12 5//5
f 39//39 16//16 9//9
f 39//39 5//5 16//16
f 41//41 33//33 7//7
f 41//41 14//14 33//33
f 42//42 24//24 1//1
f 42//42 26//26 14//14
f 43//43 9//9 1//1
f 43//43 1//1 24//24
f 43//43 39//39 9//9
f 44//44 26//26 8//8
f 44//44 15//15 3//3
f 44//44 3//3 32//32
f 44//44 32//32 14//14
f 44//44 14//14 26//26
f 44//44 27//27 15//15
f 44//44 8//8 27//27
f 45//45 8//8 26//26
f 45//45 29//29 8//8
f 45//45 25//25 29//29
f 46//46 13//13 28//28
f 46//46 29//29 13//13
f 46//46 16//16 29//29
f 46//46 28//28 9//9
f 46//46 9//9 16//16
f 47//47 28//28 13//13
f 47//47 25//25 28//28
f 47//47 29//29 25//25
f 47//47 13//13 29//29
f 48//48 28//28 25//25
f 48//48 1//1 28//28
f 48//48 25//25 45//45
f 48//48 45//45 26//26
f 48//48 42//42 1//1
f 48//48 26//26 42//42
f 49//49 27//27 8//8
f 49//49 8//8 29//29
f 49//49 29//29 2//2
f 49//49 2//2 27//27
f 50//50 17//17 10//10
f 50//50 10//10 30//30
f 50//50 31//31 17//17
f 50//50 30//30 31//31
f 51//51 30//30 10//10
f 51//51 36//36 18//18
f 52//52 31//31 30//30
f 52//52 3//3 31//31
f 52//52 30//30 51//51
f 52//52 51//51 32//32
f 52//52 32//32 3//3
f 53//53 18//18 33//33
f 53//53 51//51 18//18
f 53//53 32//32 51//51
f 53//53 33//33 14//14
f 53//53 14//14 32//32
f 54//54 34//34 6//6
f 54//54 6//6 2//2
f 54//54 2//2 34//34
f 55//55 35//35 12//12
f 55//55 7//7 35//35
f 55//55 12//12 40//40
f 56//56 35//35 7//7
f 56//56 21//21 35//35
f 56//56 36//36 21//21
f 56//56 7//7 36//36
f 57//57 35//35 21//21
f 57//57 22//22 35//35
f 57//57 21//21 37//37
f 57//57 37//37 4//4
f 57//57 4//4 22//22
f 58//58 36//36 7//7
f 58//58 7//7 33//33
f 58//58 33//33 36//36
f 59//59 10//10 4//4
f 59//59 4//4 37//37
f 59//59 51//51 10//10
f 59//59 36//36 51//51
f 59//59 37//37 21//21
f 59//59 21//21 36//36
f 60//60 38//38 23//23
f 60//60 12//12 38//38
f 60//60 40//40 12//12
f 61//61 38//38 5//5
f 61//61 23//23 38//38
f 61//61 39//39 23//23
f 61//61 5//5 39//39
f 62//62 24//24 40//40
f 62//62 43//43 24//24
f 62//62 39//39 43//43
f 62//62 23//23 39//39
f 62//62 60//60 23//23
f 62//62 40//40 60//60
f 63//63 14//14 41//41
f 63//63 42//42 14//14
f 63//63 24//24 42//42
f 64//64 41//41 7//7
f 64//64 63//63 41//41
f 64//64 40//40 24//24
f 64//64 24//24 63//63
f 64//64 55//55 40//40
f 64//64 7//7 55//55

