# https://github.com/mikedh/trimesh
v 0.00642702 -0.03955741 0.04275085
v 0.01291270 -0.04189626 0.02524226
v -0.02781454 -0.02727099 -0.02367839
v -0.03795806 -0.02712811 -0.02281221
v -0.02437488 -0.05035692 0.02422775
v -0.03486152 -0.03123349 0.04029095
v 0.00774623 -0.03754186 0.02605633
v -0.00097507 -0.05131496 0.03153921
v -0.00366601 -0.05478607 -0.01356110
v -0.04075522 -0.02725428 0.00544615
v 0.00952702 -0.03943429 0.04149292
v 0.01104858 -0.04008070 0.00475620
v -0.01505417 -0.04514995 0.04043209
v -0.02711042 -0.04502821 -0.01944160
v -0.01305611 -0.05251686 0.02948523
v 0.01179502 -0.05005706 0.00517981
v -0.03982585 -0.02693317 -0.01351473
v -0.03851839 -0.03931203 0.02101999
v -0.03137627 -0.02744154 0.00538012
v 0.00407524 -0.04708042 0.03623963
v -0.00384233 -0.04761374 -0.01367511
v -0.02940258 -0.03987473 0.03867727
v -0.00737972 -0.04303905 0.04226045
v -0.01609542 -0.05232379 -0.01335538
v -0.02045312 -0.04786977 -0.02293201
v -0.00385096 -0.05460508 0.00092234
v -0.00718605 -0.05250585 0.03056241
v -0.03888332 -0.02704210 -0.02064788
v -0.04201512 -0.03117368 0.02003755
v -0.02735163 -0.04711806 -0.00814021
v 0.00613435 -0.04200040 0.04133027
v 0.00810472 -0.04711818 0.03267899
v -0.00406329 -0.04622190 0.03937725
v -0.03064922 -0.03723799 0.03995779
v -0.02326166 -0.04803738 0.03142965
v -0.03132268 -0.04512312 0.02615565
v -0.03547957 -0.03388501 0.03851006
v -0.00039966 -0.03981688 0.04248294
v -0.00991838 -0.05463278 -0.01030301
v -0.03233426 -0.03891570 -0.02267659
v -0.02228103 -0.04924463 -0.01541360
v -0.01198783 -0.05355963 -0.01334782
v -0.02129826 -0.03770899 -0.02353108
v 0.00746872 -0.05165128 0.00489518
v -0.01112842 -0.05143615 0.03202813
v -0.00399951 -0.05246303 0.02843181
v -0.00802013 -0.05460483 0.00094065
v -0.04055574 -0.03515418 0.01524093
v -0.03784561 -0.03100510 0.03678253
v -0.04197242 -0.03112462 0.01409867
v 0.00625783 -0.04040804 0.04236681
v 0.00618656 -0.04811314 0.03329428
v 0.00920352 -0.04606783 0.03409627
v -0.00077879 -0.04833256 0.03615577
v -0.00895111 -0.04467803 0.04128401
v -0.02331133 -0.04318942 0.03928847
v -0.02032532 -0.04346458 0.04015654
v -0.01718428 -0.04916207 0.03309698
v -0.02333508 -0.05044094 0.02628976
v -0.02915501 -0.04617562 0.02801058
v -0.02827388 -0.04833501 0.01829049
v -0.03452968 -0.03583956 0.03740815
v -0.03475014 -0.03224810 0.04011410
v -0.01715619 -0.05240409 -0.00717060
vn 0.23984598 0.26449062 0.93408705
vn 0.97769299 0.18777530 0.09411089
vn 0.18133673 0.68173563 -0.70876901
vn -0.57928756 0.47453081 -0.66275669
vn -0.40858839 -0.90758464 0.09667295
vn -0.33627571 0.55369289 0.76180235
vn 0.43321730 0.90056535 0.03612237
vn 0.22292778 -0.91651697 0.33211420
vn 0.43225258 -0.69186391 -0.57834422
vn -0.61079538 0.79149197 0.02166690
vn 0.71598123 0.29812418 0.63126290
vn 0.78927730 0.52653032 -0.31592274
vn -0.15945447 -0.61934677 0.76875474
vn -0.60420514 -0.74512355 -0.28235978
vn -0.16126441 -0.94779187 0.27510792
vn 0.83048077 -0.51033006 -0.22330455
vn -0.79101928 0.60425463 -0.09573316
vn -0.80917704 -0.57888455 0.10062405
vn 0.11799417 0.99101525 0.06297743
vn 0.26935973 -0.77296494 0.57443063
vn 0.64194390 0.15663107 -0.75058294
vn -0.50127709 -0.64513364 0.57664882
vn -0.00476196 -0.29063583 0.95682189
vn -0.33780961 -0.92436103 -0.17731707
vn -0.04858915 -0.56455687 -0.82396276
vn 0.12109076 -0.99179930 0.04088009
vn 0.02766750 -0.94236779 0.33343283
vn -0.82747585 0.51012082 -0.23464966
vn -0.96619417 0.20782654 0.15256788
vn -0.61171440 -0.78530592 -0.09539446
vn 0.28616563 -0.63905654 0.71394395
vn 0.52380240 -0.83211749 0.18224032
vn 0.07531300 -0.73311255 0.67592451
vn -0.36748297 -0.38947110 0.84455227
vn -0.38520418 -0.81056487 0.44113755
vn -0.64994016 -0.72818132 0.21755400
vn -0.71219067 -0.45992411 0.53033411
vn -0.04233322 0.05086677 0.99780783
vn -0.16862596 -0.98233955 -0.08108199
vn -0.57539815 -0.43226311 -0.69430942
vn -0.46408276 -0.86780205 -0.17761419
vn -0.21276466 -0.93739110 -0.27573378
vn 0.32155521 0.13193035 -0.93765486
vn 0.30493076 -0.95161877 0.03793342
vn -0.10213142 -0.84504871 0.52484460
vn 0.16281459 -0.97928160 0.12041163
vn -0.09150078 -0.99503980 0.03903077
vn -0.89203918 -0.44698474 -0.06686357
vn -0.79518435 0.43871457 0.41858259
vn -0.99768555 -0.04892113 -0.04722565
vn 0.21779993 -0.48871034 0.84482270
vn 0.39004486 -0.85633656 0.33845636
vn 0.69022050 -0.63026438 0.35547499
vn 0.13528221 -0.79797549 0.58731069
vn -0.02159762 -0.63721604 0.77038255
vn -0.34578693 -0.66027524 0.66668434
vn -0.21811496 -0.47676900 0.85153813
vn -0.25958149 -0.82888404 0.49554889
vn -0.35970592 -0.90111055 0.24209798
vn -0.56041805 -0.76104126 0.32672282
vn -0.55789643 -0.82989387 -0.00526710
vn -0.68415808 -0.60292386 0.41037853
vn -0.50501666 -0.26817400 0.82039068
vn -0.37356296 -0.92657831 -0.04362738
f 11//11 2//2 7//7
f 11//11 6//6 1//1
f 12//12 7//7 2//2
f 12//12 3//3 7//7
f 16//16 12//12 2//2
f 19//19 7//7 3//3
f 19//19 17//17 10//10
f 19//19 3//3 17//17
f 19//19 10//10 6//6
f 19//19 11//11 7//7
f 19//19 6//6 11//11
f 21//21 3//3 12//12
f 21//21 16//16 9//9
f 21//21 12//12 16//16
f 28//28 17//17 3//3
f 28//28 3//3 4//4
f 34//34 23//23 6//6
f 37//37 22//22 34//34
f 38//38 23//23 1//1
f 38//38 1//1 6//6
f 38//38 6//6 23//23
f 39//39 15//15 5//5
f 40//40 25//25 14//14
f 40//40 4//4 3//3
f 40//40 28//28 4//4
f 40//40 30//30 18//18
f 40//40 14//14 30//30
f 41//41 25//25 24//24
f 41//41 14//14 25//25
f 41//41 30//30 14//14
f 42//42 25//25 9//9
f 42//42 24//24 25//25
f 42//42 39//39 24//24
f 42//42 9//9 39//39
f 43//43 21//21 9//9
f 43//43 9//9 25//25
f 43//43 3//3 21//21
f 43//43 40//40 3//3
f 43//43 25//25 40//40
f 44//44 16//16 8//8
f 44//44 26//26 9//9
f 44//44 9//9 16//16
f 45//45 13//13 15//15
f 45//45 15//15 27//27
f 45//45 33//33 13//13
f 45//45 27//27 33//33
f 46//46 27//27 26//26
f 46//46 8//8 27//27
f 46//46 44//44 8//8
f 46//46 26//26 44//44
f 47//47 27//27 15//15
f 47//47 26//26 27//27
f 47//47 15//15 39//39
f 47//47 39//39 9//9
f 47//47 9//9 26//26
f 48//48 18//18 29//29
f 48//48 40//40 18//18
f 48//48 28//28 40//40
f 49//49 6//6 10//10
f 49//49 10//10 29//29
f 49//49 29//29 18//18
f 49//49 18//18 37//37
f 50//50 29//29 10//10
f 50//50 10//10 17//17
f 50//50 48//48 29//29
f 50//50 17//17 28//28
f 50//50 28//28 48//48
f 51//51 31//31 11//11
f 51//51 11//11 1//1
f 51//51 1//1 23//23
f 51//51 23//23 31//31
f 52//52 20//20 8//8
f 52//52 8//8 16//16
f 52//52 16//16 32//32
f 53//53 32//32 16//16
f 53//53 16//16 2//2
f 53//53 2//2 11//11
f 53//53 52//52 32//32
f 53//53 11//11 31//31
f 53//53 31//31 20//20
f 53//53 20//20 52//52
f 54//54 8//8 20//20
f 54//54 20//20 31//31
f 54//54 31//31 33//33
f 54//54 33//33 27//27
f 54//54 27//27 8//8
f 55//55 23//23 13//13
f 55//55 13//13 33//33
f 55//55 33//33 31//31
f 55//55 31//31 23//23
f 56//56 34//34 22//22
f 56//56 22//22 35//35
f 57//57 13//13 23//23
f 57//57 23//23 34//34
f 57//57 56//56 13//13
f 57//57 34//34 56//56
f 58//58 35//35 15//15
f 58//58 15//15 13//13
f 58//58 56//56 35//35
f 58//58 13//13 56//56
f 59//59 5//5 15//15
f 59//59 15//15 35//35
f 60//60 35//35 22//22
f 60//60 59//59 35//35
f 60//60 36//36 5//5
f 60//60 5//5 59//59
f 61//61 5//5 36//36
f 61//61 36//36 18//18
f 61//61 18//18 30//30
f 62//62 22//22 37//37
f 62//62 60//60 22//22
f 62//62 36//36 60//60
f 62//62 37//37 18//18
f 62//62 18//18 36//36
f 63//63 37//37 34//34
f 63//63 34//34 6//6
f 63//63 49//49 37//37
f 63//63 6//6 49//49
f 64//64 39//39 5//5
f 64//64 24//24 39//39
f 64//64 5//5 61//61
f 64//64 41//41 24//24
f 64//64 61//61 30//30
f 64//64 30//30 41//41

