# https://github.com/mikedh/trimesh
v 0.03523302 -0.02565068 0.00311327
v 0.04468681 -0.02704703 -0.02721256
v 0.03521975 -0.01493047 -0.04641519
v -0.00727899 -0.02568083 -0.05406194
v -0.02479900 -0.04781255 -0.01184984
v 0.01653004 -0.02911831 -0.05109493
v -0.02699937 -0.02706856 0.00320675
v 0.04147071 -0.01533478 -0.01716201
v 0.02367179 -0.04320452 0.00384008
v 0.04072373 -0.02700633 -0.03825587
v 0.02897757 -0.01505631 -0.05254467
v -0.00731864 -0.03699090 -0.04900125
v -0.02638241 -0.02631495 -0.02535752
v 0.04035280 -0.01508794 -0.03182270
v 0.02450088 -0.02128571 0.00328421
v 0.02837407 -0.04045172 0.00414294
v -0.02593899 -0.04255311 0.00274361
v 0.04468610 -0.02694896 -0.03190040
v 0.01566959 -0.02461312 -0.05368274
v 0.02181010 -0.02414791 -0.05216573
v 0.00902850 -0.01541917 -0.03790761
v 0.00393045 -0.04524756 -0.03036697
v -0.02575230 -0.04529585 -0.02508304
v 0.03079608 -0.01541272 -0.01718875
v 0.02392965 -0.02195095 0.00337535
v -0.00583186 -0.04511843 0.00292152
v 0.01961132 -0.04436389 0.00389507
v 0.04347132 -0.02694396 -0.03434352
v 0.03737365 -0.03630297 -0.02482293
v 0.03743346 -0.01493667 -0.04110004
v 0.01992368 -0.01830254 -0.05377940
v -0.00751255 -0.03180280 -0.05393597
v 0.03677769 -0.02674452 -0.04163133
v 0.01984500 -0.02074065 -0.05380928
v 0.01791450 -0.02684571 -0.05226057
v -0.00729851 -0.01929771 -0.03753084
v 0.00441892 -0.03539102 -0.04744089
v -0.02610121 -0.04655693 -0.00682106
v -0.01662115 -0.04780002 -0.02365587
v -0.01141702 -0.04791332 -0.00923242
v 0.00205371 -0.04666585 -0.02517232
v 0.01483143 -0.03151554 -0.04869882
v -0.00732341 -0.01981885 -0.05244774
v 0.00188790 -0.03173922 -0.05248088
v 0.02564088 -0.01992480 -0.05242748
v 0.02888481 -0.01636281 -0.05224993
v 0.01900114 -0.02761281 -0.05113473
v -0.00612221 -0.03688991 -0.04906458
v -0.02556101 -0.04632256 -0.01973578
v -0.01250391 -0.04507383 0.00136324
v -0.02324236 -0.04638011 -0.02499272
v -0.00739034 -0.04538699 -0.03302842
v 0.00889950 -0.04526738 0.00336506
v -0.00897411 -0.04795593 -0.02387527
v -0.02220092 -0.04774832 -0.00961010
v 0.01263146 -0.03153950 -0.04995610
v 0.01461766 -0.01843506 -0.05368119
v 0.00915180 -0.01564861 -0.05254915
v 0.00602125 -0.02946483 -0.05354722
v 0.02416038 -0.02362549 -0.05109879
v 0.00041650 -0.03948326 -0.04202771
v -0.00360482 -0.03464331 -0.05093281
v -0.02481847 -0.04779491 -0.01422400
v -0.01934587 -0.04358271 0.00255153
vn 0.64123067 0.18463848 0.74480323
vn 0.97349225 -0.21112793 0.08796502
vn 0.58142801 0.64877285 -0.49095342
vn -0.45827226 0.09897832 -0.88328355
vn -0.36754284 -0.92902268 0.04276812
vn 0.28878033 -0.66640843 -0.68739052
vn -0.64329664 0.47352655 0.60161619
vn 0.65607783 0.71649209 0.23706742
vn 0.29362821 -0.77815626 0.55520744
vn 0.66077579 -0.46931972 -0.58575964
vn 0.36256385 0.57945008 -0.72992127
vn -0.21102524 -0.76152914 -0.61281458
vn -0.83883060 0.50177610 -0.21114915
vn 0.59059730 0.80022926 -0.10405747
vn 0.04484253 0.66312631 0.74716306
vn 0.49119768 -0.50804077 0.70754464
vn -0.60516344 -0.43694643 0.66547353
vn 0.94822631 -0.21868816 -0.23030926
vn 0.13315254 -0.22928617 -0.96420862
vn 0.35022855 -0.42506777 -0.83466003
vn -0.13272265 0.99024485 0.04242447
vn 0.20750302 -0.92166880 -0.32782483
vn -0.79070414 -0.50858261 -0.34077954
vn -0.04812358 0.98737648 0.15090333
vn 0.00741861 0.09347212 0.99559426
vn -0.03880896 -0.69045821 0.72233048
vn 0.14685667 -0.73323095 0.66393184
vn 0.82041305 -0.33391026 -0.46414046
vn 0.56571475 -0.81275330 -0.13927990
vn 0.56533697 0.79653694 -0.21429658
vn 0.03685607 0.18150362 -0.98269938
vn -0.38469501 -0.31841104 -0.86638569
vn 0.48665336 -0.58238747 -0.65114772
vn 0.14642962 -0.13378326 -0.98013285
vn 0.28471469 -0.47207234 -0.83431724
vn -0.28644261 0.95805539 0.00897255
vn 0.21689811 -0.82638970 -0.51964919
vn -0.71942092 -0.66856974 0.18827650
vn -0.08432435 -0.97811671 -0.19020278
vn 0.02100779 -0.99399284 0.10741003
vn 0.16571061 -0.97881143 -0.12028377
vn 0.31049402 -0.80909466 -0.49895822
vn -0.46974461 0.64125600 -0.60673779
vn 0.15153835 -0.65210937 -0.74282535
vn 0.36968518 -0.33214241 -0.86776396
vn 0.49152914 -0.27156660 -0.82743621
vn 0.38385127 -0.59416696 -0.70684073
vn 0.09470456 -0.79535152 -0.59870444
vn -0.78075740 -0.61846289 -0.08900304
vn -0.09909160 -0.92006890 0.37901724
vn -0.27254643 -0.90338683 -0.33107503
vn -0.01679385 -0.91994677 -0.39168343
vn 0.02107706 -0.74931454 0.66187875
vn 0.03801019 -0.99123788 -0.12650173
vn -0.06405149 -0.98256599 0.17453219
vn 0.23947249 -0.75858908 -0.60596661
vn -0.02940880 0.22617098 -0.97364357
vn -0.12151676 0.79920843 -0.58864213
vn 0.12555111 -0.41867757 -0.89941426
vn 0.45189803 -0.46524164 -0.76114282
vn 0.19259737 -0.85385188 -0.48357338
vn 0.13331642 -0.69425820 -0.70727101
vn -0.46166081 -0.88565876 -0.04977806
vn -0.11929852 -0.85933840 0.49729807
f 8//8 1//1 2//2
f 11//11 3//3 10//10
f 15//15 1//1 8//8
f 16//16 2//2 1//1
f 18//18 14//14 8//8
f 18//18 8//8 2//2
f 21//21 3//3 11//11
f 23//23 7//7 13//13
f 24//24 15//15 8//8
f 24//24 7//7 15//15
f 24//24 21//21 7//7
f 25//25 16//16 1//1
f 25//25 1//1 15//15
f 25//25 15//15 7//7
f 25//25 7//7 16//16
f 27//27 16//16 7//7
f 27//27 7//7 17//17
f 27//27 9//9 16//16
f 27//27 17//17 26//26
f 28//28 10//10 3//3
f 28//28 3//3 18//18
f 29//29 16//16 9//9
f 29//29 28//28 18//18
f 29//29 10//10 28//28
f 29//29 18//18 2//2
f 29//29 2//2 16//16
f 30//30 18//18 3//3
f 30//30 14//14 18//18
f 30//30 3//3 21//21
f 30//30 21//21 24//24
f 30//30 24//24 8//8
f 30//30 8//8 14//14
f 32//32 12//12 23//23
f 32//32 23//23 13//13
f 32//32 13//13 4//4
f 33//33 10//10 29//29
f 34//34 20//20 19//19
f 34//34 31//31 11//11
f 34//34 19//19 32//32
f 34//34 32//32 4//4
f 34//34 4//4 31//31
f 35//35 19//19 20//20
f 36//36 13//13 7//7
f 36//36 7//7 21//21
f 38//38 17//17 7//7
f 38//38 7//7 23//23
f 41//41 9//9 27//27
f 41//41 29//29 9//9
f 41//41 22//22 29//29
f 42//42 29//29 22//22
f 42//42 33//33 29//29
f 42//42 6//6 33//33
f 43//43 4//4 13//13
f 43//43 13//13 36//36
f 45//45 34//34 11//11
f 45//45 20//20 34//34
f 46//46 11//11 10//10
f 46//46 10//10 33//33
f 46//46 45//45 11//11
f 46//46 33//33 45//45
f 47//47 33//33 6//6
f 47//47 6//6 35//35
f 47//47 35//35 20//20
f 47//47 20//20 33//33
f 48//48 12//12 32//32
f 49//49 38//38 23//23
f 50//50 17//17 38//38
f 51//51 23//23 12//12
f 52//52 48//48 22//22
f 52//52 12//12 48//48
f 52//52 51//51 12//12
f 52//52 39//39 51//51
f 53//53 40//40 27//27
f 53//53 27//27 26//26
f 53//53 26//26 40//40
f 54//54 40//40 5//5
f 54//54 39//39 52//52
f 54//54 52//52 22//22
f 54//54 22//22 41//41
f 54//54 41//41 27//27
f 54//54 27//27 40//40
f 55//55 38//38 5//5
f 55//55 5//5 40//40
f 55//55 40//40 26//26
f 55//55 50//50 38//38
f 55//55 26//26 50//50
f 56//56 6//6 42//42
f 56//56 37//37 48//48
f 56//56 42//42 22//22
f 56//56 22//22 37//37
f 57//57 31//31 4//4
f 58//58 43//43 36//36
f 58//58 36//36 21//21
f 58//58 21//21 11//11
f 58//58 11//11 31//31
f 58//58 31//31 57//57
f 58//58 57//57 4//4
f 58//58 4//4 43//43
f 59//59 35//35 6//6
f 59//59 56//56 44//44
f 59//59 6//6 56//56
f 59//59 19//19 35//35
f 59//59 44//44 32//32
f 59//59 32//32 19//19
f 60//60 45//45 33//33
f 60//60 33//33 20//20
f 60//60 20//20 45//45
f 61//61 48//48 37//37
f 61//61 37//37 22//22
f 61//61 22//22 48//48
f 62//62 48//48 32//32
f 62//62 32//32 44//44
f 62//62 56//56 48//48
f 62//62 44//44 56//56
f 63//63 5//5 38//38
f 63//63 38//38 49//49
f 63//63 49//49 23//23
f 63//63 23//23 51//51
f 63//63 51//51 39//39
f 63//63 54//54 5//5
f 63//63 39//39 54//54
f 64//64 50//50 26//26
f 64//64 26//26 17//17
f 64//64 17//17 50//50

