# https://github.com/mikedh/trimesh
v -0.02941965 0.02053675 0.04092151
v -0.03567446 -0.01959971 0.03801586
v -0.03499630 -0.01478410 -0.02285310
v -0.04277882 0.00716588 -0.02261258
v -0.04846210 0.00102877 0.03482717
v -0.02949398 0.02597016 0.00583183
v -0.02928070 0.01736215 0.00577346
v -0.04362181 -0.00703067 0.04157856
v -0.04839576 -0.01847687 0.01237061
v -0.03207699 0.00772795 -0.02315103
v -0.04119182 0.02021239 0.01835737
v -0.02987323 0.01454153 0.04047573
v -0.03557841 -0.01948938 0.03277230
v -0.02920391 0.02755498 0.01922576
v -0.04156379 0.01120511 0.04041771
v -0.04737405 -0.01434744 0.03501032
v -0.05062912 -0.00123907 0.01221077
v -0.04476813 -0.01462816 -0.02250936
v -0.03590450 0.02106986 -0.00273500
v -0.03869206 -0.01933589 0.04094650
v -0.03672459 -0.01900782 0.00621353
v -0.02932808 0.02652377 0.00806924
v -0.02922381 0.02433568 0.03496570
v -0.03901320 0.01232858 0.04154785
v -0.04658936 -0.00105188 0.03956465
v -0.04529490 0.00983466 0.03586260
v -0.04740166 0.01102668 0.01334427
v -0.05062189 -0.01154789 0.01921743
v -0.03266606 0.00588547 -0.02345431
v -0.04743199 -0.00217049 -0.01510994
v -0.04430412 0.01616960 0.01145097
v -0.04340297 -0.01832751 0.03957473
v -0.03386270 0.01466208 0.04161944
v -0.04651963 -0.01853381 0.00593238
v -0.03612897 0.02410719 0.01247991
v -0.03212194 0.02623230 0.01136440
v -0.03213902 0.02424287 0.03089634
v -0.03510028 0.02010522 0.03855923
v -0.04462829 0.00299768 0.04049727
v -0.04743212 -0.00718890 0.03800276
v -0.04632438 0.00586124 0.03779680
v -0.04416806 0.01525353 0.02357101
v -0.04950426 0.00491801 0.01718057
v -0.05062337 -0.00221833 0.01815536
v -0.04836440 -0.01844027 0.02337144
v -0.04739041 -0.01134498 -0.01418188
v -0.04521165 -0.00007307 -0.02247668
v -0.04628757 0.00266211 -0.01617433
v -0.04018016 0.01695901 -0.00259928
v -0.04522485 0.00699252 -0.01300904
v -0.04306832 -0.01233888 0.04158705
v -0.03497414 0.01271507 0.04166724
v -0.03584691 0.01462572 0.04147611
v -0.04531917 -0.01453490 -0.02123882
v -0.03630341 0.02423604 0.01704865
v -0.04121133 0.02012596 0.01242622
v -0.02929266 0.02757721 0.01229469
v -0.03121154 0.02533021 0.00600438
v -0.02947622 0.02240291 0.03908402
v -0.03403492 0.01903841 0.04066602
v -0.03318019 0.02212567 0.03684309
v -0.04007222 0.01598931 0.03784722
v -0.04239054 0.00895520 0.04057150
v -0.04392340 -0.00660995 0.04141898
vn 0.58337822 0.35184536 0.73203463
vn 0.62470675 -0.72586190 0.28786450
vn 0.52395304 -0.58064236 -0.62315943
vn -0.49320672 0.47925109 -0.72599279
vn -0.96205745 0.13650058 0.23624787
vn 0.53731176 0.78576674 -0.30637672
vn 0.99708604 -0.06464081 -0.04050927
vn -0.28045716 -0.01259985 0.95978384
vn -0.65120072 -0.75695758 -0.05434003
vn 0.61162735 0.37957362 -0.69414398
vn -0.71663304 0.69201651 0.08689206
vn 0.84384576 -0.13129502 0.52027487
vn 0.66483588 -0.74692823 -0.00956344
vn 0.51458546 0.85369512 0.08004029
vn -0.62403458 0.38572466 0.67955672
vn -0.90352913 -0.29084642 0.31471173
vn -0.99244514 0.10090109 -0.06979697
vn -0.46153012 -0.56353691 -0.68513947
vn -0.33808781 0.85530309 -0.39262356
vn 0.13201086 -0.68797845 0.71362370
vn 0.39235046 -0.91719523 -0.06938317
vn 0.71555086 0.67223522 -0.18996520
vn 0.56469523 0.78193944 0.26398867
vn -0.30959418 0.25089228 0.91717202
vn -0.75742946 0.05717310 0.65040899
vn -0.84573395 0.45342286 0.28132151
vn -0.91342607 0.40586916 -0.03038171
vn -0.98931473 -0.14000159 0.04069300
vn 0.30861725 0.00481234 -0.95117413
vn -0.97844502 0.07661519 -0.19176929
vn -0.82166195 0.56380952 -0.08360898
vn -0.53855280 -0.65565336 0.52922542
vn 0.06473797 0.05192386 0.99655050
vn -0.27909950 -0.95396849 -0.10976153
vn -0.54968679 0.82906819 -0.10242251
vn -0.43163671 0.89384039 -0.12140474
vn -0.44834453 0.87334965 0.19038795
vn -0.54014307 0.72595319 0.42571989
vn -0.53079852 0.14370048 0.83522638
vn -0.87857824 -0.09118615 0.46881273
vn -0.84611226 0.29214962 0.44580562
vn -0.82964533 0.54319715 0.12893987
vn -0.96191762 0.27173053 0.02961438
vn -0.99518331 0.07611647 0.06177745
vn -0.66360754 -0.74359256 0.08182382
vn -0.97367436 -0.15689399 -0.16535570
vn -0.65959828 0.09655435 -0.74539075
vn -0.94071638 0.27435681 -0.19945183
vn -0.72262723 0.65788197 -0.21213484
vn -0.87360270 0.45518790 -0.17211130
vn -0.36476131 -0.12282465 0.92296441
vn 0.03076061 0.00073594 0.99952651
vn -0.10953592 0.18780886 0.97607874
vn -0.83084128 -0.48836725 -0.26683364
vn -0.54176723 0.83860154 0.05688352
vn -0.70379823 0.70450832 -0.09130207
vn 0.51024281 0.85578234 -0.08537482
vn -0.37653505 0.89840475 -0.22603154
vn 0.44982537 0.73040080 0.51397647
vn -0.33462107 0.50572672 0.79515358
vn -0.46548889 0.82063385 0.33148178
vn -0.67603158 0.61428324 0.40698574
vn -0.56175687 0.22450463 0.79625806
vn -0.54669430 -0.01264828 0.83723674
f 10//10 7//7 3//3
f 10//10 6//6 7//7
f 12//12 7//7 1//1
f 13//13 3//3 7//7
f 13//13 12//12 2//2
f 13//13 7//7 12//12
f 19//19 10//10 4//4
f 19//19 6//6 10//10
f 20//20 2//2 12//12
f 20//20 9//9 2//2
f 20//20 12//12 1//1
f 21//21 3//3 13//13
f 21//21 18//18 3//3
f 21//21 13//13 2//2
f 22//22 14//14 7//7
f 22//22 7//7 6//6
f 23//23 1//1 7//7
f 23//23 7//7 14//14
f 29//29 10//10 3//3
f 29//29 3//3 18//18
f 29//29 4//4 10//10
f 33//33 20//20 1//1
f 34//34 18//18 21//21
f 34//34 21//21 2//2
f 34//34 2//2 9//9
f 36//36 19//19 35//35
f 37//37 23//23 14//14
f 39//39 8//8 24//24
f 40//40 25//25 5//5
f 40//40 16//16 32//32
f 40//40 28//28 16//16
f 40//40 5//5 28//28
f 41//41 26//26 5//5
f 41//41 5//5 25//25
f 41//41 25//25 39//39
f 41//41 15//15 26//26
f 42//42 27//27 26//26
f 42//42 31//31 27//27
f 42//42 11//11 31//31
f 43//43 27//27 17//17
f 43//43 5//5 26//26
f 43//43 26//26 27//27
f 44//44 28//28 5//5
f 44//44 17//17 28//28
f 44//44 43//43 17//17
f 44//44 5//5 43//43
f 45//45 28//28 9//9
f 45//45 16//16 28//28
f 45//45 32//32 16//16
f 45//45 9//9 20//20
f 45//45 20//20 32//32
f 46//46 9//9 28//28
f 46//46 28//28 17//17
f 46//46 17//17 30//30
f 47//47 29//29 18//18
f 47//47 4//4 29//29
f 48//48 47//47 30//30
f 48//48 4//4 47//47
f 48//48 30//30 17//17
f 48//48 17//17 27//27
f 49//49 19//19 4//4
f 49//49 4//4 31//31
f 50//50 31//31 4//4
f 50//50 27//27 31//31
f 50//50 48//48 27//27
f 50//50 4//4 48//48
f 51//51 32//32 20//20
f 51//51 40//40 32//32
f 51//51 25//25 40//40
f 52//52 33//33 24//24
f 52//52 24//24 8//8
f 52//52 8//8 51//51
f 52//52 51//51 20//20
f 52//52 20//20 33//33
f 53//53 33//33 1//1
f 53//53 24//24 33//33
f 54//54 34//34 9//9
f 54//54 18//18 34//34
f 54//54 9//9 46//46
f 54//54 46//46 30//30
f 54//54 47//47 18//18
f 54//54 30//30 47//47
f 55//55 36//36 35//35
f 55//55 37//37 14//14
f 56//56 31//31 11//11
f 56//56 55//55 35//35
f 56//56 11//11 55//55
f 56//56 35//35 19//19
f 56//56 49//49 31//31
f 56//56 19//19 49//49
f 57//57 22//22 6//6
f 57//57 14//14 22//22
f 57//57 55//55 14//14
f 57//57 36//36 55//55
f 58//58 6//6 19//19
f 58//58 19//19 36//36
f 58//58 57//57 6//6
f 58//58 36//36 57//57
f 59//59 1//1 23//23
f 60//60 59//59 38//38
f 60//60 1//1 59//59
f 60//60 53//53 1//1
f 60//60 24//24 53//53
f 60//60 15//15 24//24
f 61//61 23//23 37//37
f 61//61 11//11 38//38
f 61//61 55//55 11//11
f 61//61 37//37 55//55
f 61//61 59//59 23//23
f 61//61 38//38 59//59
f 62//62 26//26 15//15
f 62//62 60//60 38//38
f 62//62 15//15 60//60
f 62//62 42//42 26//26
f 62//62 38//38 11//11
f 62//62 11//11 42//42
f 63//63 39//39 24//24
f 63//63 24//24 15//15
f 63//63 41//41 39//39
f 63//63 15//15 41//41
f 64//64 39//39 25//25
f 64//64 8//8 39//39
f 64//64 51//51 8//8
f 64//64 25//25 51//51

