# https://github.com/mikedh/trimesh
v 0.02827892 0.00812006 -0.03669874
v 0.03413383 -0.01963384 -0.03658877
v 0.02810132 -0.00427831 -0.04618001
v -0.01727230 0.00923491 -0.04826690
v -0.01507674 -0.04220012 -0.02827511
v 0.00850710 0.01691624 -0.04538879
v 0.03417961 -0.00214595 -0.03652235
v -0.02316422 0.01392689 -0.03772297
v 0.00751433 -0.03719228 -0.04622191
v 0.02364723 0.00783156 -0.04419965
v 0.00866282 0.01345387 -0.04735793
v 0.03295878 -0.01240529 -0.04236980
v 0.01852525 -0.04208277 -0.02825485
v -0.03003749 -0.01955178 -0.04355421
v 0.00034629 0.02450577 -0.03794020
v 0.01171549 0.02336958 -0.03755240
v 0.02998611 0.00054463 -0.04334597
v -0.00707561 0.01529159 -0.04730827
v 0.00661807 -0.03253267 -0.04743539
v 0.02506356 0.00193558 -0.04626331
v 0.01357861 0.01312110 -0.04617474
v 0.03528699 -0.01243666 -0.03662098
v 0.02631674 -0.02275791 -0.04623100
v -0.00155452 -0.04511041 -0.03343870
v 0.01871338 -0.03183673 -0.02840095
v -0.03118061 -0.00352245 -0.04244161
v -0.01582095 -0.03308524 -0.02850832
v 0.02572544 0.00780006 -0.04225226
v 0.00552145 0.02307582 -0.03973836
v 0.03095488 -0.00532846 -0.04438691
v 0.03066699 0.00267153 -0.04052451
v -0.00925464 0.01070780 -0.04846936
v 0.00228518 0.01555258 -0.04721972
v -0.01688638 0.01386467 -0.04545672
v -0.02597998 -0.01554241 -0.04839225
v 0.01067458 0.01170935 -0.04731873
v 0.02911042 -0.00225257 -0.04508118
v 0.02499019 0.00479980 -0.04507752
v 0.00742685 0.01633259 -0.04609367
v 0.01462972 0.01416823 -0.04510040
v 0.03492678 -0.00741553 -0.03744751
v 0.03401829 -0.01646866 -0.03952079
v 0.02725526 -0.02078342 -0.04627803
v 0.01681163 -0.03314444 -0.04612686
v 0.02662836 -0.03268662 -0.03834295
v 0.00238186 -0.04634745 -0.02820365
v -0.02137059 -0.03057668 -0.04626157
v 0.02993174 0.00584146 -0.03659349
v 0.03526233 -0.00736633 -0.03651291
v -0.03367357 -0.01247359 -0.03754597
v -0.00136689 0.02385973 -0.03731195
v 0.02791420 0.00775627 -0.03852164
v 0.01560439 0.01600917 -0.04247801
v 0.00941684 0.02315527 -0.03878047
v -0.00376279 0.01906823 -0.04450582
v 0.03277891 -0.00228166 -0.04057421
v 0.02873162 0.00357505 -0.04227664
v -0.01331469 0.01055654 -0.04832678
v -0.01418933 0.01316606 -0.04724519
v -0.01198074 0.01896408 -0.04054391
v -0.02494131 0.00873506 -0.04233908
v -0.02178272 -0.01766439 -0.04849384
v -0.02446121 -0.00104084 -0.04847052
v -0.03010223 -0.01649095 -0.04447305
vn 0.63295118 0.59419253 0.49629432
vn 0.92282218 -0.30432936 0.23618396
vn 0.34529041 0.06817802 -0.93601618
vn -0.30623987 0.29508645 -0.90506416
vn -0.48399025 -0.69358280 0.53356943
vn 0.21949573 0.63145358 -0.74369886
vn 0.84610211 0.30027569 0.44039269
vn -0.62608088 0.66411496 0.40862458
vn 0.10412740 -0.64337338 -0.75843799
vn 0.49502566 0.51265956 -0.70151962
vn 0.14323622 0.27182481 -0.95162737
vn 0.80104574 -0.04915878 -0.59658120
vn 0.45043602 -0.72194219 0.52526838
vn -0.83863085 -0.39894564 -0.37086476
vn -0.06128527 0.99491533 0.07992243
vn 0.38715383 0.86606673 0.31629153
vn 0.69635188 0.34741309 -0.62801131
vn -0.09681327 0.49733445 -0.86214015
vn 0.02998941 -0.14936076 -0.98832788
vn 0.32962389 0.20778519 -0.92096330
vn 0.29048520 0.40115447 -0.86873094
vn 0.94110545 -0.04029902 0.33570302
vn 0.46655514 -0.28741618 -0.83649163
vn -0.09351528 -0.92921208 -0.35751895
vn 0.20098863 0.06172735 0.97764682
vn -0.90828821 0.26818293 -0.32107700
vn -0.22766023 0.05706649 0.97206699
vn 0.63312469 0.58048726 -0.51204264
vn 0.08640132 0.79854314 -0.59570434
vn 0.70743988 0.09274798 -0.70066156
vn 0.80112583 0.46173327 -0.38078838
vn 0.00037794 0.12566185 -0.99207306
vn 0.04643075 0.44004098 -0.89677652
vn -0.44249449 0.66541868 -0.60117935
vn -0.40878303 -0.08068295 -0.90905814
vn 0.14970930 0.13087857 -0.98002955
vn 0.57159965 0.23340848 -0.78663481
vn 0.49556939 0.40561087 -0.76804349
vn 0.14159868 0.57271571 -0.80743206
vn 0.39252841 0.56646157 -0.72459833
vn 0.92163529 0.09061281 -0.37732972
vn 0.88017652 -0.21492322 -0.42319889
vn 0.47938383 -0.18626300 -0.85761135
vn 0.31794005 -0.51427273 -0.79651597
vn 0.72681181 -0.62989927 -0.27380926
vn 0.08767624 -0.83424137 0.54438425
vn -0.48291850 -0.55562162 -0.67681189
vn 0.71717937 0.48674677 0.49872971
vn 0.91212260 0.10748776 0.39557393
vn -0.93016485 -0.01665461 0.36676418
vn -0.25474033 0.74676595 0.61436795
vn 0.71429339 0.61746961 -0.32941802
vn 0.49330860 0.64165042 -0.58730858
vn 0.18308568 0.81476313 -0.55012787
vn -0.11171941 0.73475059 -0.66907424
vn 0.86847606 0.24620299 -0.43027134
vn 0.68540166 0.48592373 -0.54231236
vn -0.07616054 0.21264418 -0.97415708
vn -0.22736711 0.53776311 -0.81185900
vn -0.37276480 0.87851473 -0.29876122
vn -0.74186651 0.48911380 -0.45869573
vn -0.04156489 -0.08972386 -0.99509898
vn -0.41314719 0.16983791 -0.89468681
vn -0.79031240 -0.10060271 -0.60438846
f 22//22 13//13 2//2
f 25//25 1//1 16//16
f 27//27 5//5 25//25
f 33//33 32//32 18//18
f 33//33 11//11 32//32
f 36//36 20//20 3//3
f 36//36 21//21 20//20
f 36//36 11//11 21//21
f 36//36 32//32 11//11
f 37//37 20//20 17//17
f 37//37 3//3 20//20
f 37//37 30//30 3//3
f 37//37 17//17 30//30
f 38//38 17//17 20//20
f 38//38 28//28 17//17
f 38//38 10//10 28//28
f 38//38 21//21 10//10
f 38//38 20//20 21//21
f 39//39 21//21 11//11
f 39//39 6//6 21//21
f 39//39 11//11 33//33
f 39//39 29//29 6//6
f 40//40 10//10 21//21
f 40//40 21//21 6//6
f 40//40 6//6 16//16
f 41//41 22//22 12//12
f 42//42 22//22 2//2
f 42//42 12//12 22//22
f 43//43 23//23 19//19
f 43//43 3//3 30//30
f 43//43 30//30 12//12
f 43//43 42//42 23//23
f 43//43 12//12 42//42
f 43//43 36//36 3//3
f 43//43 19//19 32//32
f 43//43 32//32 36//36
f 44//44 9//9 19//19
f 44//44 19//19 23//23
f 44//44 13//13 9//9
f 45//45 2//2 13//13
f 45//45 44//44 23//23
f 45//45 13//13 44//44
f 45//45 42//42 2//2
f 45//45 23//23 42//42
f 46//46 5//5 24//24
f 46//46 25//25 5//5
f 46//46 13//13 25//25
f 46//46 24//24 9//9
f 46//46 9//9 13//13
f 47//47 9//9 24//24
f 47//47 14//14 35//35
f 47//47 19//19 9//9
f 47//47 24//24 5//5
f 47//47 5//5 14//14
f 48//48 25//25 7//7
f 48//48 1//1 25//25
f 48//48 7//7 31//31
f 49//49 7//7 25//25
f 49//49 22//22 41//41
f 49//49 25//25 13//13
f 49//49 13//13 22//22
f 50//50 14//14 5//5
f 50//50 5//5 27//27
f 50//50 27//27 8//8
f 50//50 8//8 26//26
f 51//51 8//8 27//27
f 51//51 16//16 15//15
f 51//51 27//27 25//25
f 51//51 25//25 16//16
f 52//52 28//28 16//16
f 52//52 16//16 1//1
f 52//52 31//31 28//28
f 52//52 48//48 31//31
f 52//52 1//1 48//48
f 53//53 28//28 10//10
f 53//53 16//16 28//28
f 53//53 40//40 16//16
f 53//53 10//10 40//40
f 54//54 16//16 6//6
f 54//54 6//6 29//29
f 54//54 29//29 15//15
f 54//54 15//15 16//16
f 55//55 15//15 29//29
f 55//55 33//33 18//18
f 55//55 39//39 33//33
f 55//55 29//29 39//39
f 56//56 30//30 17//17
f 56//56 49//49 41//41
f 56//56 7//7 49//49
f 56//56 41//41 12//12
f 56//56 12//12 30//30
f 56//56 31//31 7//7
f 56//56 17//17 31//31
f 57//57 31//31 17//17
f 57//57 17//17 28//28
f 57//57 28//28 31//31
f 58//58 32//32 4//4
f 58//58 18//18 32//32
f 59//59 4//4 34//34
f 59//59 58//58 4//4
f 59//59 18//18 58//58
f 59//59 55//55 18//18
f 59//59 34//34 55//55
f 60//60 34//34 8//8
f 60//60 55//55 34//34
f 60//60 15//15 55//55
f 60//60 51//51 15//15
f 60//60 8//8 51//51
f 61//61 26//26 8//8
f 61//61 8//8 34//34
f 61//61 34//34 4//4
f 62//62 32//32 19//19
f 62//62 47//47 35//35
f 62//62 19//19 47//47
f 63//63 4//4 32//32
f 63//63 62//62 35//35
f 63//63 32//32 62//62
f 63//63 35//35 26//26
f 63//63 61//61 4//4
f 63//63 26//26 61//61
f 64//64 35//35 14//14
f 64//64 26//26 35//35
f 64//64 50//50 26//26
f 64//64 14//14 50//50

