# https://github.com/mikedh/trimesh
v 0.02041686 0.03281497 0.06003367
v 0.04692478 -0.00161351 0.02338517
v 0.04138330 0.03395467 0.02298611
v 0.01967241 0.04963230 0.00322230
v 0.00237654 0.03543507 0.03515929
v 0.04541199 0.00877214 0.00358100
v 0.01263692 0.05528464 0.03266327
v 0.03598291 0.01805567 0.05799038
v 0.04834034 0.00900909 0.01553051
v 0.03610533 0.03513478 0.00350441
v 0.03282529 -0.00610097 0.00326284
v 0.02649942 0.04041862 0.05008695
v 0.03098104 0.04696631 0.01987879
v 0.00193153 0.04637878 0.05765087
v 0.00213855 0.05743992 0.03294920
v 0.04416844 -0.00536112 0.00346876
v 0.04283880 0.01022511 0.04503681
v 0.04542345 0.02221135 0.01179290
v 0.02041857 0.03352566 0.00389438
v 0.03076074 -0.00589616 0.05803611
v 0.03585338 0.02975560 0.05012592
v 0.02161646 0.05228366 0.01870931
v 0.02837911 0.04324608 0.00326090
v 0.03726799 0.03962563 0.01614257
v 0.03354789 0.04442837 0.02342172
v 0.01509923 0.04675837 0.05124612
v 0.00210347 0.03620374 0.03406936
v 0.04692405 -0.00563397 0.01694077
v 0.04560791 -0.00014696 0.00336134
v 0.04830087 0.00654994 0.02034587
v 0.04676717 0.01419763 0.01053639
v 0.04275157 0.02221489 0.00362451
v 0.04686522 0.01824463 0.02069452
v 0.03471987 0.01948335 0.05918826
v 0.00229470 0.03593531 0.05905411
v 0.02790969 -0.00624454 0.04701701
v 0.03778583 -0.00522883 0.05477141
v 0.04002926 0.02237397 0.04786350
v 0.02441440 0.05105510 0.02002949
v 0.00734616 0.05680603 0.03287248
v 0.02284291 0.04712148 0.00321923
v 0.03621492 0.04021964 0.01471621
v 0.04264354 0.03148339 0.01713396
v 0.03346180 0.04446638 0.01979806
v 0.03879953 0.03800015 0.01843718
v 0.03579305 0.03139008 0.04774551
v 0.02159001 0.05231760 0.02847336
v 0.01643679 0.03939874 0.05890358
v 0.00195890 0.05649065 0.03671794
v 0.04545952 -0.00550313 0.00910331
v 0.04672589 0.00899081 0.00794305
v 0.04676509 0.00131769 0.00790578
v 0.04266313 0.00267509 0.04501519
v 0.04836934 0.00643380 0.01549803
v 0.04693461 -0.00552200 0.01930985
v 0.04674279 0.01837487 0.01324554
v 0.04129244 0.02577491 0.00359189
v 0.04419368 0.01684845 0.00368024
v 0.04832528 0.00892854 0.01934449
v 0.02132168 0.02843945 0.06026090
v 0.03866385 0.02352731 0.04995725
v 0.02936494 0.03526173 0.05367950
v 0.00781498 0.03768848 0.06024027
v 0.00196932 0.04377003 0.05919950
vn 0.23063585 0.23607648 0.94396769
vn 0.96825650 -0.16081020 0.19136202
vn 0.87705556 0.46325093 0.12716966
vn -0.21064141 0.59986723 -0.77187402
vn -0.89267231 -0.44817724 -0.04767933
vn 0.65352667 0.06732723 -0.75390313
vn 0.32721832 0.92590930 0.18873296
vn 0.80042543 0.09704198 0.59152514
vn 0.99282861 0.07521915 -0.09291628
vn 0.53105236 0.37012634 -0.76222692
vn -0.35837310 -0.67915613 -0.64055888
vn 0.56528880 0.70884760 0.42188110
vn 0.61381950 0.78583589 -0.07541594
vn -0.57092740 0.60475869 0.55525564
vn -0.64703399 0.74417537 -0.16598204
vn 0.44592119 -0.62526085 -0.64047105
vn 0.94483503 0.05855083 0.32227095
vn 0.92940762 0.31401090 -0.19390364
vn -0.60279784 -0.12331241 -0.78830756
vn -0.14477870 -0.70786078 0.69135536
vn 0.78206475 0.45835386 0.42223983
vn 0.31877217 0.93798113 -0.13629274
vn 0.41228561 0.47003315 -0.78044181
vn 0.76856794 0.61231339 -0.18540668
vn 0.70940269 0.68945742 0.14627466
vn 0.35019307 0.80452766 0.47968746
vn -0.94726301 -0.21192141 -0.24037911
vn 0.68555893 -0.72664256 -0.04471632
vn 0.65133954 -0.09441340 -0.75288971
vn 0.99226945 -0.02959666 0.12052129
vn 0.96013661 0.14069042 -0.24154480
vn 0.60549718 0.20289798 -0.76954894
vn 0.97007096 0.22120952 0.10014329
vn 0.49921686 0.16232173 0.85113699
vn -0.76712549 -0.24808624 0.59158406
vn -0.49117771 -0.86991687 0.04459930
vn 0.60201141 -0.61825807 0.50531102
vn 0.91263432 0.26022864 0.31524540
vn 0.48747983 0.86974313 -0.07687848
vn 0.19528463 0.97490228 0.10690868
vn 0.03548379 0.04473938 -0.99836831
vn 0.69740349 0.66636431 -0.26379344
vn 0.90057125 0.42230301 -0.10310961
vn 0.72592575 0.68163750 -0.09166311
vn 0.81760962 0.57317755 -0.05460767
vn 0.78983787 0.53761507 0.29517144
vn 0.46458188 0.87094670 0.16004848
vn 0.28969203 0.49459792 0.81942139
vn -0.62522235 0.73392134 0.26543639
vn 0.63398770 -0.76064759 -0.13955229
vn 0.96487782 0.06955178 -0.25332457
vn 0.97640083 -0.09600372 -0.19345467
vn 0.94455056 -0.11920632 0.30596420
vn 0.99507783 -0.04520811 -0.08818351
vn 0.72806238 -0.68028546 0.08447993
vn 0.96689865 0.21802409 -0.13256130
vn 0.57360952 0.27173513 -0.77274325
vn 0.66643103 0.13951701 -0.73239654
vn 0.99244960 0.08372794 0.08962939
vn 0.03773479 -0.00016505 0.99928778
vn 0.84674012 0.31674346 0.42743976
vn 0.58872834 0.55677333 0.58600547
vn -0.04307983 0.06326957 0.99706624
vn -0.62748484 0.25541692 0.73554400
f 19//19 4//4 11//11
f 23//23 4//4 13//13
f 27//27 15//15 4//4
f 27//27 4//4 19//19
f 27//27 19//19 11//11
f 27//27 11//11 5//5
f 29//29 16//16 11//11
f 32//32 6//6 29//29
f 35//35 27//27 5//5
f 36//36 5//5 11//11
f 36//36 28//28 20//20
f 36//36 11//11 28//28
f 36//36 35//35 5//5
f 36//36 20//20 35//35
f 37//37 17//17 8//8
f 37//37 34//34 20//20
f 37//37 8//8 34//34
f 37//37 20//20 28//28
f 38//38 8//8 17//17
f 38//38 17//17 33//33
f 38//38 33//33 3//3
f 39//39 13//13 4//4
f 39//39 4//4 22//22
f 40//40 7//7 22//22
f 40//40 26//26 7//7
f 40//40 22//22 4//4
f 40//40 4//4 15//15
f 41//41 11//11 4//4
f 41//41 4//4 23//23
f 41//41 29//29 11//11
f 41//41 23//23 29//29
f 42//42 23//23 13//13
f 42//42 13//13 24//24
f 42//42 24//24 10//10
f 42//42 10//10 23//23
f 43//43 10//10 24//24
f 43//43 3//3 33//33
f 44//44 24//24 13//13
f 44//44 13//13 25//25
f 45//45 25//25 3//3
f 45//45 44//44 25//25
f 45//45 24//24 44//44
f 45//45 43//43 24//24
f 45//45 3//3 43//43
f 46//46 3//3 25//25
f 46//46 38//38 3//3
f 46//46 21//21 38//38
f 46//46 25//25 12//12
f 47//47 25//25 13//13
f 47//47 12//12 25//25
f 47//47 26//26 12//12
f 47//47 7//7 26//26
f 47//47 13//13 39//39
f 47//47 39//39 22//22
f 47//47 22//22 7//7
f 48//48 26//26 14//14
f 48//48 12//12 26//26
f 48//48 1//1 34//34
f 49//49 27//27 14//14
f 49//49 15//15 27//27
f 49//49 40//40 15//15
f 49//49 14//14 26//26
f 49//49 26//26 40//40
f 50//50 28//28 11//11
f 50//50 11//11 16//16
f 50//50 29//29 28//28
f 50//50 16//16 29//29
f 51//51 29//29 6//6
f 51//51 31//31 9//9
f 51//51 6//6 31//31
f 52//52 28//28 29//29
f 52//52 29//29 51//51
f 53//53 30//30 17//17
f 53//53 2//2 30//30
f 53//53 17//17 37//37
f 54//54 28//28 52//52
f 54//54 52//52 51//51
f 54//54 51//51 9//9
f 55//55 30//30 2//2
f 55//55 54//54 30//30
f 55//55 28//28 54//54
f 55//55 37//37 28//28
f 55//55 53//53 37//37
f 55//55 2//2 53//53
f 56//56 9//9 31//31
f 56//56 33//33 9//9
f 56//56 43//43 33//33
f 56//56 18//18 43//43
f 57//57 32//32 29//29
f 57//57 10//10 43//43
f 57//57 43//43 18//18
f 57//57 18//18 32//32
f 57//57 29//29 23//23
f 57//57 23//23 10//10
f 58//58 31//31 6//6
f 58//58 6//6 32//32
f 58//58 56//56 31//31
f 58//58 32//32 18//18
f 58//58 18//18 56//56
f 59//59 9//9 33//33
f 59//59 54//54 9//9
f 59//59 30//30 54//54
f 59//59 33//33 17//17
f 59//59 17//17 30//30
f 60//60 34//34 1//1
f 60//60 20//20 34//34
f 61//61 34//34 8//8
f 61//61 21//21 34//34
f 61//61 38//38 21//21
f 61//61 8//8 38//38
f 62//62 34//34 21//21
f 62//62 48//48 34//34
f 62//62 12//12 48//48
f 62//62 46//46 12//12
f 62//62 21//21 46//46
f 63//63 1//1 48//48
f 63//63 60//60 1//1
f 63//63 35//35 20//20
f 63//63 20//20 60//60
f 64//64 14//14 27//27
f 64//64 27//27 35//35
f 64//64 35//35 63//63
f 64//64 63//63 48//48
f 64//64 48//48 14//14

