# https://github.com/mikedh/trimesh
v 0.02631553 0.00746055 0.04212025
v 0.04026437 -0.01639324 0.03260585
v 0.04334398 0.00151350 -0.00344989
v 0.03513155 -0.00500540 -0.02223387
v 0.02637305 -0.04261670 0.00505258
v 0.02925521 0.00820386 -0.00730011
v 0.03482093 0.00704503 0.03137257
v 0.02410505 -0.03199393 0.04136569
v 0.04328163 -0.02564690 -0.01677831
v 0.04280364 0.00192124 -0.01365364
v 0.02836331 -0.04019014 -0.02196416
v 0.03376026 -0.00309064 0.04150753
v 0.04642958 -0.00754226 0.00040136
v 0.02299258 0.00792512 0.04219378
v 0.03276689 -0.03059700 0.03428891
v 0.03353295 0.00271955 -0.01389222
v 0.04398233 -0.00518215 -0.02196535
v 0.03965633 0.00722402 -0.00737302
v 0.02900749 -0.02737517 -0.02278846
v 0.03318300 -0.03869332 -0.01664075
v 0.03185724 0.00703559 0.03832145
v 0.03792173 -0.00221644 0.03331711
v 0.03405312 -0.02060567 0.04015162
v 0.03043920 -0.01452537 0.04332916
v 0.03697294 0.00394294 0.02835215
v 0.04640784 -0.01732638 0.00070439
v 0.04540677 -0.00238731 -0.00732324
v 0.03376453 0.00719640 0.03448164
v 0.02080234 0.00811731 0.03753614
v 0.02408938 -0.03815602 0.03437074
v 0.04125093 -0.02761607 -0.02161736
v 0.04013396 0.00587500 -0.00124044
v 0.04328405 0.00169362 -0.01046431
v 0.02821197 -0.04228744 -0.01558618
v 0.03601851 -0.03575682 0.00261499
v 0.02922309 0.00721711 0.04106961
v 0.03803178 -0.00936815 0.03632103
v 0.03378316 0.00287038 0.03841765
v 0.04022336 -0.01353952 0.03244634
v 0.03511732 -0.02370338 0.03815687
v 0.03245046 -0.00219465 0.04206028
v 0.03396248 -0.01651852 0.04123373
v 0.02805364 -0.02676940 0.04202228
v 0.02401083 -0.03011001 0.04222753
v 0.04530427 -0.00353570 -0.00140559
v 0.03589205 0.00600817 0.02927332
v 0.03799878 0.00090899 0.02943950
v 0.04645690 -0.01054687 0.00144424
v 0.04661553 -0.00947098 -0.01159347
v 0.04228231 -0.02652227 0.00199178
v 0.04455771 -0.00131549 -0.01364947
v 0.02392827 -0.03808400 0.02672841
v 0.02820462 0.00820005 -0.00199626
v 0.02973329 -0.03145197 0.03820081
v 0.04437646 -0.01638804 -0.02189580
v 0.03111073 -0.03871513 -0.02184086
v 0.04010126 -0.03162345 -0.01660992
v 0.03905253 0.00686516 0.00068010
v 0.04122571 0.00479495 -0.00541246
v 0.03015511 -0.04192660 0.00163159
v 0.03485380 -0.00019006 0.03845768
v 0.03269454 0.00281916 0.04041888
v 0.03899211 -0.00738123 0.03336343
v 0.03915128 -0.01362975 0.03509382
vn 0.17383205 0.64244916 0.74635213
vn 0.92563853 -0.19211774 0.32601239
vn 0.87206685 0.48313454 0.07797714
vn -0.33911059 0.38663991 -0.85762089
vn -0.52411295 -0.85085860 0.03667779
vn -0.54169779 0.76328144 -0.35208658
vn 0.63863268 0.75145589 0.16571766
vn -0.43869532 -0.54848095 0.71183921
vn 0.93251617 -0.34188390 -0.11631415
vn 0.55752890 0.71402271 -0.42347738
vn -0.41742279 -0.61095902 -0.67267175
vn 0.66290115 0.12578017 0.73806600
vn 0.97954767 0.17114404 0.10581148
vn -0.40267184 0.62099241 0.67247588
vn 0.75620284 -0.58591724 0.29130441
vn -0.02714063 0.75010914 -0.66075689
vn 0.56885369 0.35329078 -0.74269180
vn 0.44601428 0.86558803 -0.22765900
vn -0.61034051 0.02433466 -0.79176530
vn 0.64935228 -0.74732556 -0.14087629
vn 0.56491330 0.73236266 0.38015508
vn 0.91108987 0.25131379 0.32673633
vn 0.62568527 -0.20918507 0.75150485
vn 0.19409591 -0.03970506 0.98017870
vn 0.90558451 0.38591070 0.17603870
vn 0.97506517 -0.20697726 0.08005207
vn 0.94618409 0.32356678 -0.00634161
vn 0.57128413 0.78875224 0.22694566
vn -0.74156067 0.65960979 0.12248553
vn -0.37297865 -0.85226965 0.36677427
vn 0.61365315 -0.32921455 -0.71766816
vn 0.79321851 0.60202850 0.09146623
vn 0.85942505 0.50906483 -0.04734534
vn -0.34320328 -0.92148455 -0.18187284
vn 0.76659304 -0.63312828 0.10716195
vn 0.37509862 0.71684451 0.58773716
vn 0.85740986 0.10575679 0.50365052
vn 0.83991951 0.34087056 0.42230615
vn 0.95418746 0.08528758 0.28679666
vn 0.76405200 -0.35244810 0.54037476
vn 0.34457949 0.14150667 0.92803062
vn 0.62722209 -0.10694680 0.77146279
vn 0.38026954 -0.28128974 0.88106252
vn -0.52339071 -0.28876767 0.80167038
vn 0.92778400 0.35356001 0.11921476
vn 0.85745109 0.48343889 0.17625117
vn 0.91962057 0.31979298 0.22810188
vn 0.99274848 0.01953640 0.11861187
vn 0.99409856 0.03304979 -0.10332363
vn 0.87552149 -0.46958574 0.11380401
vn 0.91946705 0.35983159 -0.15843477
vn -0.95899598 -0.28281317 -0.01853148
vn -0.63934283 0.75933082 -0.12106792
vn 0.58001745 -0.58535572 0.56651429
vn 0.69405313 -0.09069962 -0.71418753
vn 0.42476721 -0.53401283 -0.73102881
vn 0.79233673 -0.59556731 -0.13229546
vn 0.69750052 0.71083878 0.09056074
vn 0.82726363 0.56059286 0.03702074
vn 0.48927754 -0.86964585 0.06575401
vn 0.85201837 0.25280667 0.45842499
vn 0.68125501 0.31462392 0.66098669
vn 0.93286772 0.17458926 0.31508160
vn 0.85965872 -0.00323636 0.51085851
f 16//16 4//4 6//6
f 17//17 16//16 10//10
f 17//17 4//4 16//16
f 18//18 16//16 6//6
f 18//18 10//10 16//16
f 19//19 6//6 4//4
f 19//19 4//4 17//17
f 24//24 1//1 14//14
f 28//28 6//6 14//14
f 28//28 18//18 6//6
f 28//28 7//7 18//18
f 29//29 19//19 11//11
f 33//33 10//10 18//18
f 33//33 3//3 27//27
f 34//34 5//5 11//11
f 36//36 21//21 28//28
f 36//36 28//28 14//14
f 36//36 14//14 1//1
f 38//38 28//28 21//21
f 38//38 22//22 28//28
f 40//40 15//15 2//2
f 41//41 24//24 12//12
f 41//41 1//1 24//24
f 41//41 36//36 1//1
f 42//42 12//12 24//24
f 42//42 23//23 40//40
f 43//43 42//42 24//24
f 43//43 23//23 42//42
f 43//43 40//40 23//23
f 44//44 24//24 14//14
f 44//44 43//43 24//24
f 44//44 8//8 43//43
f 44//44 14//14 29//29
f 44//44 30//30 8//8
f 44//44 29//29 30//30
f 45//45 27//27 3//3
f 45//45 13//13 27//27
f 46//46 32//32 7//7
f 46//46 3//3 32//32
f 46//46 45//45 3//3
f 46//46 25//25 45//45
f 47//47 22//22 13//13
f 47//47 45//45 25//25
f 47//47 13//13 45//45
f 47//47 25//25 46//46
f 47//47 46//46 7//7
f 47//47 28//28 22//22
f 47//47 7//7 28//28
f 48//48 2//2 26//26
f 48//48 39//39 2//2
f 48//48 13//13 39//39
f 49//49 48//48 26//26
f 49//49 13//13 48//48
f 49//49 27//27 13//13
f 49//49 26//26 9//9
f 50//50 26//26 2//2
f 50//50 2//2 15//15
f 50//50 15//15 35//35
f 50//50 9//9 26//26
f 51//51 17//17 10//10
f 51//51 33//33 27//27
f 51//51 10//10 33//33
f 51//51 49//49 17//17
f 51//51 27//27 49//49
f 52//52 29//29 11//11
f 52//52 11//11 5//5
f 52//52 30//30 29//29
f 52//52 5//5 30//30
f 53//53 6//6 19//19
f 53//53 19//19 29//29
f 53//53 29//29 14//14
f 53//53 14//14 6//6
f 54//54 30//30 15//15
f 54//54 8//8 30//30
f 54//54 15//15 40//40
f 54//54 43//43 8//8
f 54//54 40//40 43//43
f 55//55 9//9 31//31
f 55//55 49//49 9//9
f 55//55 17//17 49//49
f 55//55 31//31 19//19
f 55//55 19//19 17//17
f 56//56 11//11 19//19
f 56//56 19//19 31//31
f 56//56 34//34 11//11
f 56//56 20//20 34//34
f 57//57 31//31 9//9
f 57//57 56//56 31//31
f 57//57 20//20 56//56
f 57//57 50//50 35//35
f 57//57 9//9 50//50
f 58//58 32//32 18//18
f 58//58 18//18 7//7
f 58//58 7//7 32//32
f 59//59 32//32 3//3
f 59//59 18//18 32//32
f 59//59 33//33 18//18
f 59//59 3//3 33//33
f 60//60 34//34 20//20
f 60//60 57//57 35//35
f 60//60 20//20 57//57
f 60//60 5//5 34//34
f 60//60 30//30 5//5
f 60//60 35//35 15//15
f 60//60 15//15 30//30
f 61//61 37//37 22//22
f 61//61 12//12 37//37
f 61//61 22//22 38//38
f 62//62 61//61 38//38
f 62//62 12//12 61//61
f 62//62 41//41 12//12
f 62//62 36//36 41//41
f 62//62 38//38 21//21
f 62//62 21//21 36//36
f 63//63 39//39 13//13
f 63//63 13//13 22//22
f 63//63 22//22 37//37
f 64//64 2//2 39//39
f 64//64 37//37 12//12
f 64//64 12//12 42//42
f 64//64 42//42 40//40
f 64//64 40//40 2//2
f 64//64 63//63 37//37
f 64//64 39//39 63//63

