# https://github.com/mikedh/trimesh
v 0.01484490 0.02489223 0.04745802
v 0.02690992 0.02070613 0.03474051
v 0.01187477 0.04434570 0.03094636
v -0.01647830 0.03431766 0.01076656
v -0.01728572 0.02126282 0.03970179
v 0.02785530 0.02252606 0.01037229
v 0.01626131 0.03572292 0.03957418
v 0.01693327 0.02090922 0.04772786
v -0.01609214 0.03239939 0.04086015
v 0.02235332 0.03705121 0.02192103
v -0.01672609 0.02543362 0.01065187
v 0.02808355 0.02063431 0.01355098
v 0.02257568 0.02052754 0.04485345
v -0.00142775 0.04204694 0.03809993
v -0.01623511 0.03355618 0.03691984
v -0.01450568 0.02836561 0.04656403
v 0.02435650 0.03247730 0.02214198
v 0.02435488 0.02555043 0.03661704
v 0.02128110 0.03717601 0.02585611
v 0.00869820 0.03671421 0.00963241
v 0.02875458 0.02103675 0.01063305
v 0.01922930 0.02184008 0.01067959
v 0.02024662 0.02352683 0.04550098
v 0.02460347 0.02058233 0.04186247
v 0.00662682 0.04430239 0.03092844
v 0.01222818 0.03548200 0.04310909
v -0.01725842 0.02171319 0.04122975
v -0.01614571 0.03566534 0.02508242
v 0.01351503 0.02404039 0.04773209
v -0.01628734 0.03054035 0.04447658
v 0.02334795 0.03525523 0.02327711
v 0.02067191 0.03885824 0.02316075
v 0.02222846 0.02757548 0.03857621
v 0.01959180 0.03680130 0.01474741
v 0.00767040 0.03680592 0.00961717
v 0.02651323 0.02264493 0.03267669
v 0.02335746 0.03516843 0.01930146
v 0.01995629 0.02076049 0.04679824
v 0.02536058 0.02157803 0.03880700
v 0.02128137 0.02475765 0.04361557
v -0.01412161 0.03659339 0.01734227
v 0.01433518 0.03474746 0.04200486
v 0.01560062 0.02653167 0.04650495
v 0.00538274 0.03315419 0.04531162
v -0.01699699 0.02271733 0.04524684
v -0.01628366 0.03569405 0.01624687
v -0.00568147 0.03363356 0.04454562
v 0.02221216 0.03618570 0.02493877
v 0.02128254 0.03821603 0.02316250
v 0.02653102 0.02166806 0.03465173
v 0.01956585 0.03895960 0.02571271
v 0.02428629 0.02239525 0.04068466
v 0.01851715 0.03479755 0.01156480
v 0.02051137 0.03809679 0.01760815
v -0.00381771 0.03678830 0.01074372
v 0.01198236 0.03991355 0.01760164
v 0.02242438 0.03609523 0.01759846
v 0.02241140 0.03709252 0.02034771
v 0.01685014 0.02297057 0.04740485
v 0.02170624 0.02072110 0.04572938
v 0.02567050 0.02070355 0.03887927
v 0.02131328 0.02644037 0.04162444
v 0.01374615 0.02780587 0.04640110
v 0.01649289 0.02758541 0.04543918
vn 0.18739636 0.28288673 0.94066875
vn 0.84027354 -0.51437304 0.17134981
vn 0.29859881 0.94349996 0.14368914
vn -0.63783143 0.45096725 -0.62433934
vn -0.71111799 -0.70148998 0.04714882
vn 0.52393128 0.22925354 -0.82032849
vn 0.61446843 0.61881751 0.48938066
vn 0.11668893 -0.60012494 0.79134932
vn -0.72043907 0.64249150 0.26109810
vn 0.81085439 0.57971626 0.08027587
vn -0.61850287 -0.49358819 -0.61141221
vn 0.28203338 -0.95853520 -0.04083437
vn 0.64266030 -0.55057205 0.53278340
vn -0.19135538 0.88741848 0.41937043
vn -0.83279204 0.53808729 0.13007494
vn -0.31074150 0.20084681 0.92903191
vn 0.94789316 0.31240673 0.06245477
vn 0.84675536 0.44028657 0.29858516
vn 0.75386289 0.59084436 0.28739118
vn 0.10603513 0.52963996 -0.84156881
vn 0.69742839 -0.45478529 -0.55386278
vn -0.07312723 -0.77553766 -0.62705163
vn 0.54223048 0.40663038 0.73528079
vn 0.76341848 -0.51061952 0.39555015
vn -0.09377994 0.99525795 -0.02582527
vn 0.28645073 0.61616815 0.73367758
vn -0.93136384 -0.33864441 0.13372119
vn -0.79646523 0.60342616 0.03898718
vn 0.01069676 0.10862924 0.99402478
vn -0.73012225 0.45764587 0.50742661
vn 0.88415708 0.44707687 0.13560430
vn 0.60946546 0.79153303 0.04502578
vn 0.78006509 0.50106054 0.37474897
vn 0.44582483 0.72493002 -0.52508732
vn -0.00262305 0.54990890 -0.83522052
vn 0.94568726 0.30766134 0.10497674
vn 0.89266112 0.43891326 -0.10252449
vn 0.34305113 -0.52905943 0.77615207
vn 0.88172213 0.36388348 0.30025804
vn 0.69573872 0.46612604 0.54651089
vn -0.28757220 0.94740778 -0.14043051
vn 0.54177344 0.51998167 0.66037914
vn 0.34459271 0.40783986 0.84553091
vn 0.02803501 0.46037575 0.88728136
vn -0.65540338 -0.47847066 0.58439049
vn -0.76198941 0.64180378 -0.08637159
vn -0.10181529 0.55825179 0.82340062
vn 0.81747963 0.50259315 0.28129555
vn 0.74877696 0.64648718 0.14624432
vn 0.89901811 0.37795796 0.22116558
vn 0.67391450 0.68433915 0.27842264
vn 0.82116515 0.42157351 0.38466034
vn 0.38879259 0.53743856 -0.74833155
vn 0.47203160 0.81152449 -0.34440407
vn -0.12075498 0.77257736 -0.62333174
vn 0.09419967 0.92870059 -0.35866647
vn 0.74990731 0.56623774 -0.34207287
vn 0.77200304 0.62939470 -0.08873344
vn 0.30521497 0.25320631 0.91800348
vn 0.58886047 -0.28950034 0.75460778
vn 0.91200125 -0.28665309 0.29340027
vn 0.76199177 0.49127418 0.42192206
vn 0.18146930 0.40343910 0.89683097
vn 0.46492688 0.46217366 0.75514138
f 11//11 5//5 4//4
f 13//13 8//8 5//5
f 13//13 5//5 12//12
f 15//15 9//9 14//14
f 19//19 3//3 7//7
f 21//21 2//2 12//12
f 21//21 11//11 6//6
f 22//22 12//12 5//5
f 22//22 5//5 11//11
f 22//22 21//21 12//12
f 22//22 11//11 21//21
f 24//24 13//13 12//12
f 24//24 12//12 2//2
f 25//25 14//14 3//3
f 26//26 7//7 3//3
f 26//26 3//3 14//14
f 27//27 15//15 4//4
f 27//27 4//4 5//5
f 28//28 15//15 14//14
f 29//29 16//16 8//8
f 29//29 8//8 1//1
f 30//30 14//14 9//9
f 30//30 9//9 15//15
f 30//30 15//15 27//27
f 31//31 17//17 21//21
f 33//33 19//19 7//7
f 33//33 18//18 19//19
f 35//35 11//11 4//4
f 35//35 20//20 6//6
f 35//35 6//6 11//11
f 36//36 21//21 17//17
f 36//36 2//2 21//21
f 36//36 31//31 2//2
f 36//36 17//17 31//31
f 37//37 31//31 21//21
f 38//38 8//8 13//13
f 39//39 2//2 18//18
f 40//40 13//13 24//24
f 40//40 7//7 23//23
f 41//41 14//14 25//25
f 42//42 26//26 23//23
f 42//42 23//23 7//7
f 42//42 7//7 26//26
f 44//44 29//29 1//1
f 44//44 16//16 29//29
f 44//44 26//26 14//14
f 45//45 27//27 5//5
f 45//45 5//5 8//8
f 45//45 8//8 16//16
f 45//45 30//30 27//27
f 45//45 16//16 30//30
f 46//46 4//4 15//15
f 46//46 15//15 28//28
f 46//46 41//41 4//4
f 46//46 28//28 14//14
f 46//46 14//14 41//41
f 47//47 30//30 16//16
f 47//47 14//14 30//30
f 47//47 44//44 14//14
f 47//47 16//16 44//44
f 48//48 31//31 19//19
f 48//48 19//19 18//18
f 48//48 18//18 31//31
f 49//49 31//31 10//10
f 49//49 19//19 31//31
f 49//49 32//32 19//19
f 50//50 31//31 18//18
f 50//50 18//18 2//2
f 50//50 2//2 31//31
f 51//51 32//32 3//3
f 51//51 3//3 19//19
f 51//51 19//19 32//32
f 52//52 18//18 33//33
f 52//52 39//39 18//18
f 52//52 24//24 39//39
f 52//52 40//40 24//24
f 53//53 34//34 6//6
f 53//53 6//6 20//20
f 53//53 20//20 34//34
f 54//54 3//3 32//32
f 54//54 34//34 20//20
f 55//55 35//35 4//4
f 55//55 41//41 25//25
f 55//55 4//4 41//41
f 56//56 25//25 3//3
f 56//56 20//20 35//35
f 56//56 54//54 20//20
f 56//56 3//3 54//54
f 56//56 55//55 25//25
f 56//56 35//35 55//55
f 57//57 37//37 21//21
f 57//57 21//21 6//6
f 57//57 6//6 34//34
f 57//57 34//34 54//54
f 58//58 10//10 31//31
f 58//58 31//31 37//37
f 58//58 37//37 57//57
f 58//58 57//57 54//54
f 58//58 54//54 32//32
f 58//58 49//49 10//10
f 58//58 32//32 49//49
f 59//59 1//1 8//8
f 59//59 8//8 38//38
f 59//59 43//43 1//1
f 59//59 38//38 23//23
f 59//59 23//23 43//43
f 60//60 38//38 13//13
f 60//60 23//23 38//38
f 60//60 40//40 23//23
f 60//60 13//13 40//40
f 61//61 39//39 24//24
f 61//61 24//24 2//2
f 61//61 2//2 39//39
f 62//62 33//33 7//7
f 62//62 7//7 40//40
f 62//62 52//52 33//33
f 62//62 40//40 52//52
f 63//63 43//43 26//26
f 63//63 1//1 43//43
f 63//63 44//44 1//1
f 63//63 26//26 44//44
f 64//64 43//43 23//23
f 64//64 23//23 26//26
f 64//64 26//26 43//43

