# https://github.com/mikedh/trimesh
v 0.02524756 0.07922280 -0.01037596
v 0.02799963 0.07127221 -0.01082228
v 0.02119129 0.06279364 -0.02945186
v 0.00496370 0.04239145 -0.03449996
v 0.00460246 0.03725543 -0.01693920
v 0.01415228 0.07264364 -0.02242231
v 0.02679590 0.07031796 -0.01962879
v 0.01315044 0.07560203 -0.01055557
v 0.02119574 0.02900500 -0.02787395
v 0.01233460 0.06064268 -0.03161358
v 0.02821200 0.07556140 -0.01057340
v 0.02118844 0.07484083 -0.02125594
v 0.02686207 0.06921546 -0.01081162
v 0.01670254 0.08033109 -0.01036059
v 0.00801255 0.05852054 -0.02818723
v 0.02793739 0.07089147 -0.01588990
v 0.02021954 0.02804197 -0.03276208
v 0.02578576 0.07500301 -0.01711428
v 0.02382530 0.07098880 -0.02314886
v 0.01543223 0.06764515 -0.02847844
v 0.02705998 0.07745722 -0.01038932
v 0.02097818 0.03100661 -0.02337275
v 0.01431524 0.07813319 -0.01138755
v 0.01875158 0.07790225 -0.01723919
v 0.00476502 0.04486951 -0.01699048
v 0.01007991 0.06142743 -0.02965054
v 0.02781792 0.06994081 -0.01369447
v 0.02786177 0.07240356 -0.01549041
v 0.02456641 0.06248355 -0.02617853
v 0.01604680 0.05570539 -0.03266820
v 0.00477276 0.03390513 -0.03301830
v 0.02421940 0.07792735 -0.01513295
v 0.02470561 0.07094171 -0.02236087
v 0.02297159 0.07367665 -0.02150218
v 0.01712767 0.06063239 -0.03157048
v 0.01909314 0.06878032 -0.02736892
v 0.01420963 0.07834715 -0.01038685
v 0.02795265 0.07526387 -0.01232814
v 0.01361273 0.03541659 -0.01693414
v 0.01536884 0.07802985 -0.01437086
v 0.01123245 0.06663039 -0.02589303
v 0.01558001 0.07281371 -0.02342573
v 0.00598729 0.05211752 -0.02682955
v 0.00980026 0.05723860 -0.03158962
v 0.00720264 0.05317586 -0.03129004
v 0.01388050 0.06552284 -0.02948321
v 0.02673906 0.07224875 -0.01836935
v 0.02250783 0.06106718 -0.02888722
v 0.02684742 0.06767458 -0.01987071
v 0.01889710 0.05672656 -0.03162750
v 0.01287050 0.04295850 -0.03401380
v 0.01157787 0.05765727 -0.03255231
v 0.01777598 0.02883484 -0.03352921
v 0.02679391 0.07700473 -0.01235401
v 0.02121604 0.07786721 -0.01725609
v 0.02479441 0.06508809 -0.02536949
v 0.02294887 0.07187389 -0.02323784
v 0.02490416 0.07587700 -0.01714676
v 0.02209817 0.07680187 -0.01822611
v 0.01719826 0.06582107 -0.02947720
v 0.01516072 0.07938489 -0.01039377
v 0.01333328 0.07523050 -0.01454146
v 0.01456401 0.07718602 -0.01443412
v 0.01780093 0.07886111 -0.01515289
vn 0.37310279 0.76285433 0.52806020
vn 0.75352960 -0.12751627 0.64492847
vn 0.47208095 0.29081886 -0.83220428
vn -0.67402037 0.06720320 -0.73564955
vn -0.67369305 -0.44595279 0.58929091
vn -0.61926546 0.65632669 -0.43098210
vn 0.88412645 0.20291560 -0.42088677
vn -0.70475631 0.17519977 0.68747625
vn 0.56795252 -0.80876330 0.15274769
vn -0.26168675 0.39330665 -0.88137956
vn 0.79808870 0.21634927 0.56235880
vn 0.17813644 0.73958175 -0.64906567
vn 0.29446384 -0.22632245 0.92847682
vn -0.18992255 0.83069177 0.52333603
vn -0.91048107 0.34769973 -0.22389534
vn 0.98755654 -0.00944753 -0.15698031
vn 0.42778264 -0.77061129 -0.47239840
vn 0.70121452 0.54288023 -0.46214636
vn 0.57520759 0.43717609 -0.69138505
vn -0.17999778 0.61001799 -0.77167276
vn 0.63044894 0.48650767 0.60485074
vn 0.52480223 -0.69406728 0.49280142
vn -0.77144639 0.59348835 -0.22943855
vn -0.11579533 0.84739000 -0.51819073
vn -0.91812483 0.08331435 0.38743453
vn -0.68514190 0.45035989 -0.57250027
vn 0.98876675 -0.14946502 0.00071658
vn 0.94165553 0.21448242 -0.25938804
vn 0.87443132 0.02903930 -0.48427944
vn 0.17817404 0.11712988 -0.97700287
vn -0.69301881 -0.54774039 -0.46872743
vn 0.43655674 0.80600341 -0.39972078
vn 0.68919797 0.42185223 -0.58910683
vn 0.47092397 0.63541362 -0.61194782
vn 0.18821439 0.27189115 -0.94374284
vn 0.23482013 0.56897804 -0.78811388
vn -0.66656797 0.42334043 0.61357153
vn 0.89338765 0.36653479 -0.25982832
vn 0.07548189 -0.59445009 0.80058202
vn -0.54536048 0.75907545 -0.35550865
vn -0.76268811 0.52011386 -0.38443259
vn -0.25920287 0.73221650 -0.62981971
vn -0.97132921 0.22901526 -0.06380892
vn -0.56892272 0.35219596 -0.74315876
vn -0.81923131 0.31856174 -0.47684219
vn -0.31928164 0.52538942 -0.78868574
vn 0.81222979 0.38273643 -0.44022220
vn 0.66738478 0.11063425 -0.73644933
vn 0.96003239 -0.02413828 -0.27884611
vn 0.42450881 0.09865368 -0.90003318
vn 0.12784877 0.04264948 -0.99087623
vn -0.23216287 0.27759476 -0.93222398
vn -0.09593513 -0.71499248 -0.69251874
vn 0.72256722 0.61473000 -0.31623352
vn 0.16193335 0.86777417 -0.46983570
vn 0.79322780 0.20433219 -0.57361835
vn 0.44415925 0.56079957 -0.69873199
vn 0.56216021 0.64929314 -0.51224440
vn 0.36278705 0.74295174 -0.56250179
vn 0.13540726 0.43396856 -0.89069420
vn -0.52675720 0.66273690 0.53226559
vn -0.87948187 0.44737355 -0.16238397
vn -0.74405049 0.60678926 -0.27963486
vn -0.16521205 0.90983270 -0.38066971
f 13//13 8//8 5//5
f 13//13 2//2 11//11
f 16//16 11//11 2//2
f 17//17 16//16 9//9
f 17//17 9//9 5//5
f 21//21 13//13 11//11
f 21//21 1//1 14//14
f 22//22 9//9 2//2
f 22//22 2//2 13//13
f 22//22 5//5 9//9
f 25//25 4//4 5//5
f 25//25 5//5 8//8
f 27//27 16//16 2//2
f 27//27 2//2 9//9
f 27//27 9//9 16//16
f 28//28 16//16 7//7
f 28//28 11//11 16//16
f 31//31 17//17 5//5
f 31//31 5//5 4//4
f 34//34 18//18 33//33
f 37//37 8//8 13//13
f 37//37 13//13 21//21
f 37//37 21//21 14//14
f 38//38 21//21 11//11
f 38//38 11//11 28//28
f 39//39 22//22 13//13
f 39//39 13//13 5//5
f 39//39 5//5 22//22
f 41//41 26//26 15//15
f 42//42 6//6 40//40
f 42//42 24//24 12//12
f 42//42 36//36 20//20
f 42//42 12//12 36//36
f 43//43 4//4 25//25
f 43//43 25//25 8//8
f 43//43 8//8 15//15
f 44//44 26//26 10//10
f 45//45 15//15 26//26
f 45//45 43//43 15//15
f 45//45 4//4 43//43
f 45//45 44//44 4//4
f 45//45 26//26 44//44
f 46//46 10//10 26//26
f 46//46 26//26 41//41
f 46//46 41//41 6//6
f 46//46 42//42 20//20
f 46//46 6//6 42//42
f 47//47 28//28 7//7
f 47//47 38//38 28//28
f 47//47 18//18 38//38
f 47//47 33//33 18//18
f 47//47 7//7 33//33
f 48//48 29//29 17//17
f 49//49 7//7 16//16
f 49//49 16//16 17//17
f 49//49 17//17 29//29
f 50//50 17//17 30//30
f 50//50 48//48 17//17
f 50//50 3//3 48//48
f 50//50 35//35 3//3
f 50//50 30//30 35//35
f 51//51 4//4 30//30
f 52//52 30//30 4//4
f 52//52 35//35 30//30
f 52//52 10//10 35//35
f 52//52 44//44 10//10
f 52//52 4//4 44//44
f 53//53 31//31 4//4
f 53//53 17//17 31//31
f 53//53 4//4 51//51
f 53//53 51//51 30//30
f 53//53 30//30 17//17
f 54//54 18//18 32//32
f 54//54 38//38 18//18
f 54//54 21//21 38//38
f 54//54 32//32 1//1
f 54//54 1//1 21//21
f 55//55 12//12 24//24
f 55//55 14//14 1//1
f 55//55 1//1 32//32
f 56//56 33//33 7//7
f 56//56 29//29 48//48
f 56//56 48//48 3//3
f 56//56 3//3 19//19
f 56//56 19//19 33//33
f 56//56 49//49 29//29
f 56//56 7//7 49//49
f 57//57 34//34 33//33
f 57//57 33//33 19//19
f 57//57 19//19 3//3
f 57//57 3//3 36//36
f 57//57 36//36 12//12
f 57//57 12//12 34//34
f 58//58 34//34 32//32
f 58//58 32//32 18//18
f 58//58 18//18 34//34
f 59//59 34//34 12//12
f 59//59 32//32 34//34
f 59//59 55//55 32//32
f 59//59 12//12 55//55
f 60//60 20//20 36//36
f 60//60 46//46 20//20
f 60//60 35//35 10//10
f 60//60 10//10 46//46
f 60//60 36//36 3//3
f 60//60 3//3 35//35
f 61//61 37//37 14//14
f 61//61 23//23 37//37
f 61//61 40//40 23//23
f 61//61 14//14 40//40
f 62//62 15//15 8//8
f 62//62 8//8 37//37
f 62//62 41//41 15//15
f 62//62 37//37 23//23
f 63//63 40//40 6//6
f 63//63 23//23 40//40
f 63//63 62//62 23//23
f 63//63 6//6 41//41
f 63//63 41//41 62//62
f 64//64 40//40 14//14
f 64//64 42//42 40//40
f 64//64 24//24 42//42
f 64//64 55//55 24//24
f 64//64 14//14 55//55

