# https://github.com/mikedh/trimesh
v 0.00912326 -0.02649029 0.05887363
v 0.00905227 -0.03208472 0.05744924
v 0.00958343 -0.02983620 0.00335722
v -0.00744131 -0.03516116 -0.01047224
v -0.05181893 -0.00990487 0.03323777
v 0.00889950 -0.04526738 0.00336506
v 0.00968545 -0.02610439 0.05758490
v -0.03587383 -0.02303316 0.05751956
v -0.03849626 -0.01065502 0.01942759
v 0.00249050 -0.03297107 -0.01048160
v -0.03426061 -0.01807793 0.05902803
v 0.00970292 -0.02881142 0.00650443
v 0.00842379 -0.04487820 0.04315790
v -0.02351880 -0.04295148 0.00283210
v -0.03636202 -0.01014373 0.03316648
v 0.00119808 -0.03326675 -0.01050522
v -0.02724425 -0.01928584 0.05912663
v -0.04412874 -0.01749977 0.05145828
v 0.00848666 -0.04249064 0.04714553
v -0.00312818 -0.04533089 0.00296231
v -0.02824532 -0.04235446 0.04145920
v -0.04934283 -0.00990506 0.01949433
v 0.00955400 -0.02620519 0.04848989
v -0.01597915 -0.03000518 0.06016075
v -0.03749852 -0.01802690 0.05768936
v -0.01525268 -0.04410696 0.00280067
v 0.00760624 -0.04659330 0.03588960
v -0.03885033 -0.03494316 0.04674537
v -0.00442278 -0.04098842 0.05124300
v -0.05083392 -0.00953832 0.02985463
v -0.00509250 -0.03439402 0.05940600
v -0.01432645 -0.02589073 0.06048043
v -0.02375694 -0.02400705 0.06030979
v -0.03995080 -0.02024690 0.05475585
v -0.03417700 -0.02053649 0.05876673
v -0.00457322 -0.04666094 0.02959346
v 0.00142001 -0.04645398 0.04219594
v -0.04977582 -0.01764842 0.03818915
v -0.03467304 -0.03823853 0.04204334
v -0.03529353 -0.02776488 0.05475662
v 0.00009360 -0.03368591 0.05874549
v -0.02742483 -0.04117026 0.04562100
v 0.00199660 -0.04123762 0.05082631
v -0.02320118 -0.02577417 0.05993657
v -0.02167473 -0.02466472 0.06034728
v -0.03736713 -0.01891715 0.05770746
v -0.03647421 -0.02514462 0.05610120
v -0.02467573 -0.04371576 0.04108783
v 0.00574282 -0.04646146 0.04094385
v -0.04699161 -0.01758226 0.04637810
v -0.05085527 -0.01613677 0.03363163
v -0.04306416 -0.03044222 0.04236166
v -0.03500750 -0.03825267 0.04560296
v -0.01619662 -0.03149561 0.05917695
v -0.02322262 -0.04387307 0.04208036
v -0.00236948 -0.03435185 0.05891503
v 0.00703168 -0.04222176 0.04832874
v 0.00345274 -0.04366139 0.04737392
v -0.03399986 -0.02522564 0.05727429
v -0.04229896 -0.01999498 0.05254768
v -0.01528145 -0.04515126 0.03206739
v 0.00721394 -0.04639610 0.03843450
v -0.04384624 -0.02261881 0.04850932
v -0.04244731 -0.02405432 0.01950935
vn 0.53355423 0.34739768 0.77112563
vn 0.69498683 -0.36578311 0.61902829
vn 0.80555655 0.49580563 -0.32443092
vn -0.18844714 -0.13475575 -0.97279420
vn -0.77012108 0.61922268 0.15322141
vn 0.65405563 -0.68286700 -0.32542880
vn 0.79369052 0.55533069 0.24832074
vn -0.46087017 -0.30228599 0.83439911
vn 0.15018955 0.94749332 -0.28231101
vn 0.42878763 0.18743750 -0.88374677
vn -0.12641227 0.55538794 0.82192711
vn 0.79816309 0.58548812 -0.14191311
vn 0.73025411 -0.63034666 0.26342365
vn -0.51458693 -0.69406383 -0.50346370
vn 0.16563675 0.98170971 0.09386435
vn 0.01530869 -0.03396789 -0.99930567
vn 0.12156028 0.69765429 0.70604645
vn -0.73744416 0.25574177 0.62511780
vn 0.74916801 -0.55001588 0.36909326
vn -0.03171041 -0.93999053 -0.33972378
vn -0.41574120 -0.90207596 0.11583704
vn -0.68934754 0.53599001 -0.48735479
vn 0.70479113 0.70888154 -0.02750319
vn -0.11807051 -0.31162297 0.94284170
vn -0.45772424 0.47016799 0.75460624
vn -0.11604081 -0.93503108 -0.33503942
vn 0.50335597 -0.86388023 0.01853928
vn -0.64778054 -0.66186804 0.37724140
vn -0.06967639 -0.82096142 0.56671646
vn -0.33971433 0.93964493 -0.04076252
vn 0.00354941 -0.48185658 0.87624291
vn 0.04116058 0.11988103 0.99193465
vn -0.09277816 -0.00621130 0.99566743
vn -0.67347464 -0.25914786 0.69229640
vn -0.27917015 -0.18311748 0.94261976
vn -0.06461719 -0.99788689 -0.00681036
vn -0.01256590 -0.96200575 0.27273986
vn -0.93987263 -0.26470224 0.21580585
vn -0.61704829 -0.78325871 -0.07587624
vn -0.36197670 -0.58952792 0.72210089
vn 0.19250886 -0.42613775 0.88393832
vn -0.25878253 -0.81505913 0.51837266
vn 0.10824573 -0.75836787 0.64277604
vn -0.21639114 -0.30647219 0.92695721
vn -0.03014993 -0.04141729 0.99868693
vn -0.54466122 -0.14619701 0.82581511
vn -0.54949341 -0.43358948 0.71418286
vn -0.27163451 -0.95523766 0.11719940
vn 0.16460887 -0.96110367 0.22177390
vn -0.90052038 -0.06589956 0.42979100
vn -0.94349601 -0.32747714 -0.05073472
vn -0.82755052 -0.55285082 0.09755056
vn -0.49403194 -0.79810600 0.34490470
vn -0.21964427 -0.60618714 0.76439097
vn -0.16200571 -0.94606446 0.28056405
vn 0.17158385 -0.57090251 0.80288811
vn 0.27075310 -0.74841543 0.60544786
vn 0.08496571 -0.84849103 0.52234452
vn -0.30356050 -0.45546762 0.83689920
vn -0.72475807 -0.30042723 0.62005582
vn -0.15138774 -0.98842378 -0.01000958
vn 0.37160616 -0.91814724 0.13753004
vn -0.80890609 -0.36815119 0.45840553
vn -0.81263634 -0.49037167 -0.31489333
f 7//7 1//1 2//2
f 10//10 3//3 6//6
f 10//10 9//9 3//3
f 12//12 7//7 6//6
f 12//12 6//6 3//3
f 12//12 3//3 9//9
f 13//13 6//6 7//7
f 15//15 12//12 9//9
f 15//15 5//5 11//11
f 16//16 10//10 6//6
f 16//16 6//6 4//4
f 17//17 1//1 7//7
f 17//17 15//15 11//11
f 17//17 7//7 15//15
f 19//19 13//13 7//7
f 19//19 7//7 2//2
f 20//20 4//4 6//6
f 22//22 4//4 14//14
f 22//22 16//16 4//4
f 22//22 9//9 10//10
f 22//22 10//10 16//16
f 22//22 15//15 9//9
f 23//23 15//15 7//7
f 23//23 7//7 12//12
f 23//23 12//12 15//15
f 25//25 11//11 5//5
f 25//25 5//5 18//18
f 26//26 14//14 4//4
f 26//26 4//4 20//20
f 27//27 6//6 13//13
f 30//30 22//22 5//5
f 30//30 5//5 15//15
f 30//30 15//15 22//22
f 32//32 1//1 17//17
f 32//32 31//31 1//1
f 32//32 24//24 31//31
f 33//33 32//32 17//17
f 33//33 17//17 11//11
f 35//35 33//33 11//11
f 36//36 14//14 26//26
f 36//36 26//26 20//20
f 36//36 20//20 6//6
f 36//36 6//6 27//27
f 37//37 36//36 27//27
f 41//41 2//2 1//1
f 41//41 1//1 31//31
f 42//42 29//29 31//31
f 43//43 31//31 29//29
f 44//44 24//24 33//33
f 44//44 35//35 8//8
f 44//44 33//33 35//35
f 45//45 33//33 24//24
f 45//45 24//24 32//32
f 45//45 32//32 33//33
f 46//46 25//25 18//18
f 46//46 34//34 8//8
f 46//46 8//8 35//35
f 46//46 35//35 11//11
f 46//46 11//11 25//25
f 47//47 8//8 34//34
f 47//47 28//28 40//40
f 48//48 21//21 14//14
f 49//49 37//37 27//27
f 50//50 18//18 5//5
f 50//50 5//5 38//38
f 51//51 38//38 5//5
f 51//51 5//5 22//22
f 52//52 39//39 28//28
f 52//52 14//14 39//39
f 52//52 38//38 51//51
f 52//52 50//50 38//38
f 53//53 28//28 39//39
f 53//53 21//21 42//42
f 53//53 40//40 28//28
f 53//53 39//39 14//14
f 53//53 14//14 21//21
f 54//54 42//42 31//31
f 54//54 31//31 24//24
f 54//54 53//53 42//42
f 54//54 40//40 53//53
f 55//55 37//37 29//29
f 55//55 29//29 42//42
f 55//55 42//42 21//21
f 55//55 21//21 48//48
f 55//55 48//48 36//36
f 55//55 36//36 37//37
f 56//56 41//41 31//31
f 56//56 31//31 43//43
f 56//56 2//2 41//41
f 57//57 19//19 2//2
f 57//57 56//56 43//43
f 57//57 2//2 56//56
f 57//57 13//13 19//19
f 58//58 43//43 29//29
f 58//58 29//29 37//37
f 58//58 57//57 43//43
f 58//58 13//13 57//57
f 58//58 49//49 13//13
f 58//58 37//37 49//49
f 59//59 44//44 8//8
f 59//59 24//24 44//44
f 59//59 8//8 47//47
f 59//59 54//54 24//24
f 59//59 47//47 40//40
f 59//59 40//40 54//54
f 60//60 46//46 18//18
f 60//60 34//34 46//46
f 60//60 47//47 34//34
f 60//60 28//28 47//47
f 61//61 48//48 14//14
f 61//61 14//14 36//36
f 61//61 36//36 48//48
f 62//62 49//49 27//27
f 62//62 27//27 13//13
f 62//62 13//13 49//49
f 63//63 18//18 50//50
f 63//63 60//60 18//18
f 63//63 28//28 60//60
f 63//63 52//52 28//28
f 63//63 50//50 52//52
f 64//64 51//51 22//22
f 64//64 22//22 14//14
f 64//64 52//52 51//51
f 64//64 14//14 52//52

