<?xml version="1.0" encoding="UTF-8" standalone="no"?>
<!DOCTYPE svg PUBLIC "-//W3C//DTD SVG 1.1//EN"
 "http://www.w3.org/Graphics/SVG/1.1/DTD/svg11.dtd">
<!-- Generated by graphviz version 2.43.0 (0)
 -->
<!-- Title: _82 Pages: 1 -->
<svg width="948pt" height="626pt"
 viewBox="0.00 0.00 948.00 626.00" xmlns="http://www.w3.org/2000/svg" xmlns:xlink="http://www.w3.org/1999/xlink">
<g id="graph0" class="graph" transform="scale(1 1) rotate(0) translate(4 622)">
<title>_82</title>
<polygon fill="white" stroke="transparent" points="-4,4 -4,-622 944,-622 944,4 -4,4"/>
<g id="clust1" class="cluster">
<title>cluster82diagram</title>
<polygon fill="none" stroke="black" points="8,-8 8,-610 932,-610 932,-8 8,-8"/>
<text text-anchor="start" x="436" y="-591.8" font-family="Times,serif" font-weight="bold" font-size="14.00">Diagram</text>
<text text-anchor="start" x="388" y="-577.8" font-family="Times,serif" font-size="14.00">name=franka_c3_plant</text>
</g>
<g id="clust2" class="cluster">
<title>cluster82subsystems</title>
<polygon fill="none" stroke="white" points="16,-16 16,-558 924,-558 924,-16 16,-16"/>
</g>
<!-- s3 -->
<g id="node1" class="node">
<title>s3</title>
<polygon fill="none" stroke="black" points="32.5,-511 32.5,-545 663.5,-545 663.5,-511 32.5,-511"/>
<text text-anchor="start" x="286.5" y="-531.8" font-family="Times,serif" font-weight="bold" font-size="14.00">MultibodyPlant</text>
<text text-anchor="start" x="304" y="-517.8" font-family="Times,serif" font-size="14.00">name=plant</text>
<polygon fill="none" stroke="black" points="32.5,-490 32.5,-511 299.5,-511 299.5,-490 32.5,-490"/>
<text text-anchor="start" x="107.5" y="-496.8" font-family="Times,serif" font-size="14.00">geometry_query</text>
<polygon fill="none" stroke="black" points="299.5,-490 299.5,-511 663.5,-511 663.5,-490 299.5,-490"/>
<text text-anchor="start" x="427" y="-496.8" font-family="Times,serif" font-size="14.00">geometry_pose</text>
<polygon fill="none" stroke="black" points="32.5,-469 32.5,-490 299.5,-490 299.5,-469 32.5,-469"/>
<text text-anchor="start" x="55.5" y="-475.8" font-family="Times,serif" font-size="14.00" fill="grey">WorldModelInstance_actuation</text>
<polygon fill="none" stroke="black" points="299.5,-469 299.5,-490 663.5,-490 663.5,-469 299.5,-469"/>
<text text-anchor="start" x="463" y="-475.8" font-family="Times,serif" font-size="14.00">state</text>
<polygon fill="none" stroke="black" points="32.5,-448 32.5,-469 299.5,-469 299.5,-448 32.5,-448"/>
<text text-anchor="start" x="50" y="-454.8" font-family="Times,serif" font-size="14.00" fill="grey">DefaultModelInstance_actuation</text>
<polygon fill="none" stroke="black" points="299.5,-448 299.5,-469 663.5,-469 663.5,-448 299.5,-448"/>
<text text-anchor="start" x="440.5" y="-454.8" font-family="Times,serif" font-size="14.00">body_poses</text>
<polygon fill="none" stroke="black" points="32.5,-427 32.5,-448 299.5,-448 299.5,-427 32.5,-427"/>
<text text-anchor="start" x="58" y="-433.8" font-family="Times,serif" font-size="14.00">end_effector_simple_actuation</text>
<polygon fill="none" stroke="black" points="299.5,-427 299.5,-448 663.5,-448 663.5,-427 299.5,-427"/>
<text text-anchor="start" x="420" y="-433.8" font-family="Times,serif" font-size="14.00">spatial_velocities</text>
<polygon fill="none" stroke="black" points="32.5,-406 32.5,-427 299.5,-427 299.5,-406 32.5,-406"/>
<text text-anchor="start" x="114.5" y="-412.8" font-family="Times,serif" font-size="14.00" fill="grey">jack_actuation</text>
<polygon fill="none" stroke="black" points="299.5,-406 299.5,-427 663.5,-427 663.5,-406 299.5,-406"/>
<text text-anchor="start" x="406.5" y="-412.8" font-family="Times,serif" font-size="14.00">spatial_accelerations</text>
<polygon fill="none" stroke="black" points="32.5,-385 32.5,-406 299.5,-406 299.5,-385 32.5,-385"/>
<text text-anchor="start" x="103.5" y="-391.8" font-family="Times,serif" font-size="14.00" fill="grey">ground_actuation</text>
<polygon fill="none" stroke="black" points="299.5,-385 299.5,-406 663.5,-406 663.5,-385 299.5,-385"/>
<text text-anchor="start" x="392.5" y="-391.8" font-family="Times,serif" font-size="14.00">generalized_acceleration</text>
<polygon fill="none" stroke="black" points="32.5,-364 32.5,-385 299.5,-385 299.5,-364 32.5,-364"/>
<text text-anchor="start" x="132.5" y="-370.8" font-family="Times,serif" font-size="14.00">actuation</text>
<polygon fill="none" stroke="black" points="299.5,-364 299.5,-385 663.5,-385 663.5,-364 299.5,-364"/>
<text text-anchor="start" x="386.5" y="-370.8" font-family="Times,serif" font-size="14.00" fill="grey">WorldModelInstance_state</text>
<polygon fill="none" stroke="black" points="32.5,-343 32.5,-364 299.5,-364 299.5,-343 32.5,-343"/>
<text text-anchor="start" x="41" y="-349.8" font-family="Times,serif" font-size="14.00" fill="grey">WorldModelInstance_desired_state</text>
<polygon fill="none" stroke="black" points="299.5,-343 299.5,-364 663.5,-364 663.5,-343 299.5,-343"/>
<text text-anchor="start" x="316" y="-349.8" font-family="Times,serif" font-size="14.00" fill="grey">WorldModelInstance_generalized_acceleration</text>
<polygon fill="none" stroke="black" points="32.5,-322 32.5,-343 299.5,-343 299.5,-322 32.5,-322"/>
<text text-anchor="start" x="35.5" y="-328.8" font-family="Times,serif" font-size="14.00" fill="grey">DefaultModelInstance_desired_state</text>
<polygon fill="none" stroke="black" points="299.5,-322 299.5,-343 663.5,-343 663.5,-322 299.5,-322"/>
<text text-anchor="start" x="381" y="-328.8" font-family="Times,serif" font-size="14.00" fill="grey">DefaultModelInstance_state</text>
<polygon fill="none" stroke="black" points="32.5,-301 32.5,-322 299.5,-322 299.5,-301 32.5,-301"/>
<text text-anchor="start" x="43.5" y="-307.8" font-family="Times,serif" font-size="14.00" fill="grey">end_effector_simple_desired_state</text>
<polygon fill="none" stroke="black" points="299.5,-301 299.5,-322 663.5,-322 663.5,-301 299.5,-301"/>
<text text-anchor="start" x="310.5" y="-307.8" font-family="Times,serif" font-size="14.00" fill="grey">DefaultModelInstance_generalized_acceleration</text>
<polygon fill="none" stroke="black" points="32.5,-280 32.5,-301 299.5,-301 299.5,-280 32.5,-280"/>
<text text-anchor="start" x="100" y="-286.8" font-family="Times,serif" font-size="14.00" fill="grey">jack_desired_state</text>
<polygon fill="none" stroke="black" points="299.5,-280 299.5,-301 663.5,-301 663.5,-280 299.5,-280"/>
<text text-anchor="start" x="389" y="-286.8" font-family="Times,serif" font-size="14.00">end_effector_simple_state</text>
<polygon fill="none" stroke="black" points="32.5,-259 32.5,-280 299.5,-280 299.5,-259 32.5,-259"/>
<text text-anchor="start" x="89" y="-265.8" font-family="Times,serif" font-size="14.00" fill="grey">ground_desired_state</text>
<polygon fill="none" stroke="black" points="299.5,-259 299.5,-280 663.5,-280 663.5,-259 299.5,-259"/>
<text text-anchor="start" x="318.5" y="-265.8" font-family="Times,serif" font-size="14.00">end_effector_simple_generalized_acceleration</text>
<polygon fill="none" stroke="black" points="32.5,-238 32.5,-259 299.5,-259 299.5,-238 32.5,-238"/>
<text text-anchor="start" x="73" y="-244.8" font-family="Times,serif" font-size="14.00">applied_generalized_force</text>
<polygon fill="none" stroke="black" points="299.5,-238 299.5,-259 663.5,-259 663.5,-238 299.5,-238"/>
<text text-anchor="start" x="445.5" y="-244.8" font-family="Times,serif" font-size="14.00">jack_state</text>
<polygon fill="none" stroke="black" points="32.5,-217 32.5,-238 299.5,-238 299.5,-217 32.5,-217"/>
<text text-anchor="start" x="90.5" y="-223.8" font-family="Times,serif" font-size="14.00">applied_spatial_force</text>
<polygon fill="none" stroke="black" points="299.5,-217 299.5,-238 663.5,-238 663.5,-217 299.5,-217"/>
<text text-anchor="start" x="375" y="-223.8" font-family="Times,serif" font-size="14.00">jack_generalized_acceleration</text>
<polyline fill="none" stroke="grey" points="32.5,-217 32.5,-28 299.5,-28 "/>
<polygon fill="none" stroke="black" points="299.5,-196 299.5,-217 663.5,-217 663.5,-196 299.5,-196"/>
<text text-anchor="start" x="434.5" y="-202.8" font-family="Times,serif" font-size="14.00" fill="grey">ground_state</text>
<polygon fill="none" stroke="black" points="299.5,-175 299.5,-196 663.5,-196 663.5,-175 299.5,-175"/>
<text text-anchor="start" x="364" y="-181.8" font-family="Times,serif" font-size="14.00" fill="grey">ground_generalized_acceleration</text>
<polygon fill="none" stroke="black" points="299.5,-154 299.5,-175 663.5,-175 663.5,-154 299.5,-154"/>
<text text-anchor="start" x="308" y="-160.8" font-family="Times,serif" font-size="14.00" fill="grey">WorldModelInstance_generalized_contact_forces</text>
<polygon fill="none" stroke="black" points="299.5,-133 299.5,-154 663.5,-154 663.5,-133 299.5,-133"/>
<text text-anchor="start" x="302.5" y="-139.8" font-family="Times,serif" font-size="14.00" fill="grey">DefaultModelInstance_generalized_contact_forces</text>
<polygon fill="none" stroke="black" points="299.5,-112 299.5,-133 663.5,-133 663.5,-112 299.5,-112"/>
<text text-anchor="start" x="310.5" y="-118.8" font-family="Times,serif" font-size="14.00">end_effector_simple_generalized_contact_forces</text>
<polygon fill="none" stroke="black" points="299.5,-91 299.5,-112 663.5,-112 663.5,-91 299.5,-91"/>
<text text-anchor="start" x="367" y="-97.8" font-family="Times,serif" font-size="14.00">jack_generalized_contact_forces</text>
<polygon fill="none" stroke="black" points="299.5,-70 299.5,-91 663.5,-91 663.5,-70 299.5,-70"/>
<text text-anchor="start" x="356" y="-76.8" font-family="Times,serif" font-size="14.00" fill="grey">ground_generalized_contact_forces</text>
<polygon fill="none" stroke="black" points="299.5,-49 299.5,-70 663.5,-70 663.5,-49 299.5,-49"/>
<text text-anchor="start" x="427" y="-55.8" font-family="Times,serif" font-size="14.00">reaction_forces</text>
<polygon fill="none" stroke="black" points="299.5,-28 299.5,-49 663.5,-49 663.5,-28 299.5,-28"/>
<text text-anchor="start" x="427" y="-34.8" font-family="Times,serif" font-size="14.00">contact_results</text>
</g>
<!-- s4 -->
<g id="node2" class="node">
<title>s4</title>
<polygon fill="none" stroke="black" points="715.5,-512 715.5,-546 908.5,-546 908.5,-512 715.5,-512"/>
<text text-anchor="start" x="764" y="-532.8" font-family="Times,serif" font-weight="bold" font-size="14.00">SceneGraph</text>
<text text-anchor="start" x="741.5" y="-518.8" font-family="Times,serif" font-size="14.00">name=scene_graph</text>
<polygon fill="none" stroke="black" points="715.5,-491 715.5,-512 860.5,-512 860.5,-491 715.5,-491"/>
<text text-anchor="start" x="749.5" y="-497.8" font-family="Times,serif" font-size="14.00">plant_pose</text>
<polygon fill="none" stroke="black" points="860.5,-470 860.5,-512 908.5,-512 908.5,-470 860.5,-470"/>
<text text-anchor="start" x="863.5" y="-487.3" font-family="Times,serif" font-size="14.00">query</text>
<polygon fill="none" stroke="black" points="715.5,-470 715.5,-491 860.5,-491 860.5,-470 715.5,-470"/>
<text text-anchor="start" x="718.5" y="-476.8" font-family="Times,serif" font-size="14.00">plant_configuration</text>
</g>
<!-- s3&#45;&gt;s4 -->
<g id="edge2" class="edge">
<title>s3:e&#45;&gt;s4:w</title>
<path fill="none" stroke="black" d="M664.5,-501C682.9,-501 689.88,-501 704.35,-501"/>
<polygon fill="black" stroke="black" points="704.5,-504.5 714.5,-501 704.5,-497.5 704.5,-504.5"/>
</g>
<!-- s4&#45;&gt;s3 -->
<g id="edge1" class="edge">
<title>s4:e&#45;&gt;s3:w</title>
<path fill="none" stroke="black" d="M909.5,-491C929.11,-491 894.95,-342.36 707,-466 673.24,-488.21 704.76,-527.29 671,-549.5 641.37,-569 57.84,-574.32 32.5,-549.5 20.11,-537.36 13.05,-513.35 22,-504.44"/>
<polygon fill="black" stroke="black" points="23.29,-507.69 31.5,-501 20.91,-501.11 23.29,-507.69"/>
</g>
</g>
</svg>
