# https://github.com/mikedh/trimesh
v 0.04211581 -0.03753717 0.01738803
v 0.05971066 -0.04017947 0.00963837
v 0.05552751 -0.02754935 -0.01514731
v -0.02146945 -0.04075812 -0.01668919
v -0.02129253 -0.05080271 0.01039578
v 0.05322636 -0.04844450 -0.00984371
v -0.02136352 -0.03712619 0.01155606
v 0.05913791 -0.02759515 0.01060315
v 0.05413679 -0.04838574 0.01034978
v 0.05954329 -0.04323436 -0.00983550
v 0.04790561 -0.04372561 -0.01533045
v -0.02667346 -0.05085412 -0.01111415
v -0.02146812 -0.03718998 -0.01094290
v -0.02143357 -0.04601615 0.01737577
v 0.05875467 -0.04395914 0.01052454
v -0.02126204 -0.03892601 0.01618831
v 0.04390040 -0.02791364 0.01088059
v 0.05230359 -0.04963165 0.00653124
v 0.05601423 -0.04851018 -0.00569429
v 0.05975240 -0.02765591 -0.00904054
v 0.01970025 -0.04329361 -0.01654858
v 0.05544529 -0.04385536 -0.01432479
v 0.01861078 -0.04843654 -0.01285411
v -0.02136967 -0.03829014 -0.01389912
v -0.02660755 -0.04551101 0.00133863
v 0.03434519 -0.04480311 0.01692642
v 0.04180889 -0.04291100 0.01725829
v 0.05955908 -0.04397543 0.00339052
v 0.00395474 -0.04150874 0.01818212
v -0.02136637 -0.03805815 0.01452254
v 0.00089987 -0.03774364 0.01690377
v 0.04218750 -0.03231949 0.01416130
v -0.01808204 -0.03604884 0.00661732
v 0.04471642 -0.02791520 -0.00732788
v 0.01841351 -0.04956043 0.01334825
v 0.00913038 -0.05054799 -0.00782111
v 0.05758596 -0.04677546 -0.00955107
v 0.05330986 -0.04956608 -0.00076489
v 0.05587571 -0.04842026 0.00445373
v 0.05975405 -0.02763997 0.00549025
v 0.05961448 -0.04419888 -0.00270023
v 0.05853103 -0.02868083 -0.01273685
v 0.01968668 -0.04147979 -0.01649334
v 0.05224237 -0.04109854 -0.01538848
v -0.02145371 -0.04512773 -0.01664310
v 0.04899959 -0.04652894 -0.01341749
v 0.03555602 -0.04961513 -0.00868829
v -0.02660755 -0.04551101 -0.01130648
v -0.02129010 -0.04059317 0.01702373
v -0.02664721 -0.05156376 0.00134147
v 0.05778185 -0.04605732 0.01053983
v 0.04182426 -0.04488400 0.01626265
v 0.05965896 -0.04297028 0.00641618
v 0.00917363 -0.04226979 0.01815971
v 0.04215187 -0.03559380 0.01622285
v -0.01797375 -0.03618052 -0.00071386
v -0.00048840 -0.05059090 0.01064230
v -0.00249366 -0.04704860 0.01692219
v 0.05512868 -0.04835577 -0.00872800
v 0.05792483 -0.04305666 -0.01333581
v 0.05615268 -0.04740989 -0.01040793
v 0.05324356 -0.04958795 0.00540959
v 0.05965276 -0.03715828 0.00959819
v 0.05858236 -0.04594691 -0.00873828
vn 0.14391805 0.21131320 0.96676488
vn 0.93013240 -0.05019344 0.36377786
vn 0.25880133 0.65660806 -0.70844035
vn -0.43710185 0.36233269 -0.82319924
vn -0.27596025 -0.88809088 0.36761465
vn 0.12633196 -0.91972114 -0.37168974
vn -0.57288115 0.80356243 0.16153825
vn 0.58092926 0.62807136 0.51773311
vn 0.30891550 -0.80378725 0.50842626
vn 0.94688942 -0.21009081 -0.24343843
vn 0.05804592 -0.33875570 -0.93908213
vn -0.65006558 -0.64398405 -0.40336000
vn -0.53005236 0.83202448 -0.16364524
vn -0.51840251 -0.34392925 0.78292497
vn 0.76272192 -0.23622780 0.60203961
vn -0.56026735 0.56070616 0.60967951
vn -0.05133468 0.89865192 0.43564834
vn 0.11169523 -0.98314898 0.14471442
vn 0.47748990 -0.87652661 -0.06086459
vn 0.73705894 0.66262252 -0.13294931
vn 0.02276886 -0.27448863 -0.96132074
vn 0.30975570 -0.40720127 -0.85920809
vn 0.02949843 -0.79032123 -0.61198218
vn -0.49334529 0.74527512 -0.44852583
vn -0.96522580 0.23713696 0.11002367
vn 0.04061602 -0.50047381 0.86479842
vn 0.18659570 -0.22294834 0.95680514
vn 0.92653202 -0.37490795 0.03134385
vn -0.01545726 0.10392896 0.99446460
vn -0.60158115 0.72531833 0.33468409
vn -0.04350183 0.51237137 0.85766145
vn -0.00235882 0.56554884 0.82471143
vn -0.20556913 0.97798729 0.03580761
vn -0.09664731 0.99373449 -0.05613430
vn 0.03768378 -0.88239073 0.46900589
vn 0.02582712 -0.99329601 -0.11267653
vn 0.64577215 -0.69767419 -0.31020808
vn 0.18730964 -0.98161998 -0.03656925
vn 0.58031207 -0.81252142 0.05519820
vn 0.73647763 0.67572730 0.03151682
vn 0.95102994 -0.30903596 0.00623144
vn 0.78340843 0.31002343 -0.53866196
vn 0.01193445 0.05244542 -0.99855248
vn 0.14178990 -0.08932096 -0.98585871
vn -0.30484130 -0.30135677 -0.90346880
vn 0.08120029 -0.71160085 -0.69787588
vn 0.03606372 -0.97084628 -0.23697450
vn -0.92326188 0.21211428 -0.32030460
vn -0.57381429 0.22315235 0.78799759
vn -0.71076551 -0.69176023 0.12759381
vn 0.64369259 -0.53505098 0.54715655
vn 0.14283189 -0.60050291 0.78676255
vn 0.97551550 -0.20924929 0.06770707
vn 0.01477643 -0.11431143 0.99333507
vn 0.01230298 0.52196090 0.85288068
vn -0.17295668 0.98449408 -0.02928146
vn 0.01384653 -0.98289667 0.18363660
vn -0.00112737 -0.60168174 0.79873513
vn 0.29579655 -0.93249742 -0.20725098
vn 0.67438985 -0.27213292 -0.68639785
vn 0.40156039 -0.78301650 -0.47500991
vn 0.25563937 -0.96462060 0.06446409
vn 0.98396863 0.02288555 0.17686717
vn 0.81618892 -0.55270305 -0.16838941
f 15//15 8//8 1//1
f 15//15 2//2 8//8
f 17//17 8//8 3//3
f 20//20 3//3 8//8
f 24//24 13//13 3//3
f 24//24 3//3 4//4
f 25//25 7//7 13//13
f 27//27 15//15 1//1
f 30//30 17//17 7//7
f 30//30 16//16 17//17
f 30//30 25//25 16//16
f 30//30 7//7 25//25
f 31//31 17//17 16//16
f 31//31 29//29 1//1
f 32//32 8//8 17//17
f 32//32 17//17 31//31
f 33//33 13//13 7//7
f 33//33 7//7 17//17
f 34//34 17//17 3//3
f 34//34 3//3 13//13
f 34//34 33//33 17//17
f 35//35 18//18 9//9
f 40//40 20//20 8//8
f 40//40 2//2 20//20
f 41//41 20//20 2//2
f 41//41 10//10 20//20
f 42//42 20//20 10//10
f 42//42 3//3 20//20
f 43//43 21//21 4//4
f 43//43 4//4 3//3
f 43//43 3//3 21//21
f 44//44 21//21 3//3
f 44//44 11//11 21//21
f 44//44 22//22 11//11
f 44//44 3//3 22//22
f 45//45 4//4 21//21
f 45//45 23//23 12//12
f 46//46 11//11 22//22
f 46//46 6//6 23//23
f 46//46 23//23 45//45
f 46//46 45//45 21//21
f 46//46 21//21 11//11
f 47//47 23//23 6//6
f 47//47 12//12 23//23
f 47//47 36//36 12//12
f 47//47 38//38 36//36
f 47//47 6//6 38//38
f 48//48 24//24 4//4
f 48//48 13//13 24//24
f 48//48 25//25 13//13
f 48//48 12//12 25//25
f 48//48 45//45 12//12
f 48//48 4//4 45//45
f 49//49 25//25 14//14
f 49//49 16//16 25//25
f 49//49 14//14 29//29
f 49//49 31//31 16//16
f 49//49 29//29 31//31
f 50//50 25//25 12//12
f 50//50 5//5 14//14
f 50//50 14//14 25//25
f 50//50 12//12 36//36
f 50//50 38//38 18//18
f 50//50 36//36 38//38
f 51//51 15//15 27//27
f 51//51 9//9 39//39
f 51//51 28//28 15//15
f 52//52 27//27 26//26
f 52//52 51//51 27//27
f 52//52 9//9 51//51
f 52//52 35//35 9//9
f 52//52 26//26 35//35
f 53//53 2//2 15//15
f 53//53 15//15 28//28
f 53//53 41//41 2//2
f 53//53 28//28 41//41
f 54//54 27//27 1//1
f 54//54 1//1 29//29
f 54//54 26//26 27//27
f 54//54 29//29 14//14
f 55//55 1//1 8//8
f 55//55 8//8 32//32
f 55//55 32//32 31//31
f 55//55 31//31 1//1
f 56//56 34//34 13//13
f 56//56 13//13 33//33
f 56//56 33//33 34//34
f 57//57 35//35 5//5
f 57//57 18//18 35//35
f 57//57 50//50 18//18
f 57//57 5//5 50//50
f 58//58 35//35 26//26
f 58//58 14//14 5//5
f 58//58 5//5 35//35
f 58//58 54//54 14//14
f 58//58 26//26 54//54
f 59//59 38//38 6//6
f 59//59 19//19 38//38
f 60//60 42//42 10//10
f 60//60 22//22 3//3
f 60//60 3//3 42//42
f 61//61 60//60 37//37
f 61//61 22//22 60//60
f 61//61 46//46 22//22
f 61//61 6//6 46//46
f 61//61 59//59 6//6
f 61//61 37//37 19//19
f 61//61 19//19 59//59
f 62//62 39//39 9//9
f 62//62 9//9 18//18
f 62//62 18//18 38//38
f 62//62 38//38 19//19
f 62//62 19//19 39//39
f 63//63 40//40 8//8
f 63//63 8//8 2//2
f 63//63 2//2 40//40
f 64//64 10//10 41//41
f 64//64 60//60 10//10
f 64//64 37//37 60//60
f 64//64 41//41 28//28
f 64//64 28//28 51//51
f 64//64 19//19 37//37
f 64//64 51//51 39//39
f 64//64 39//39 19//19

