# https://github.com/mikedh/trimesh
v 0.04861330 0.03499745 0.01576676
v 0.07049836 -0.01075493 0.01049578
v 0.06464147 0.02653246 -0.00287457
v 0.04450690 0.04027768 -0.01762687
v 0.04619449 0.00586535 0.01537422
v 0.06815652 -0.01080978 -0.01462591
v 0.04724779 0.04596724 0.00307766
v 0.06769111 0.01407996 0.01221547
v 0.06362022 0.02133640 -0.01562689
v 0.05605758 -0.01105789 -0.01185663
v 0.05428087 0.03966142 -0.01196498
v 0.04430524 0.04432699 0.01187629
v 0.05732012 0.03564743 0.01026360
v 0.06998477 0.00922173 -0.00910866
v 0.06440171 0.00606104 0.01616799
v 0.06275473 -0.00224362 -0.01660714
v 0.04539295 0.02912174 -0.01654596
v 0.07111286 -0.01081568 -0.00914791
v 0.05623244 -0.01077026 0.01332272
v 0.04434709 0.04619145 -0.01104392
v 0.05445427 0.03489802 -0.01647398
v 0.06354163 0.02751914 -0.01125236
v 0.04478088 0.03543834 0.01596705
v 0.04606419 0.00618987 0.01256628
v 0.06348986 0.02646190 0.00932178
v 0.05020442 0.04275135 0.00914949
v 0.05162236 0.03895389 0.01270603
v 0.05437736 0.04081568 -0.00000345
v 0.06881167 0.01514180 0.00535496
v 0.06874246 0.01205356 -0.01298190
v 0.06912648 0.00607911 0.01207632
v 0.06094068 0.02254856 0.01468938
v 0.06512931 0.01113496 -0.01651849
v 0.05902677 -0.01088557 -0.01440489
v 0.04490563 0.03259553 -0.01766679
v 0.05526085 -0.01107341 0.01077321
v 0.07114410 -0.00552786 0.00209137
v 0.05970759 -0.01078943 0.01566677
v 0.04915923 0.04279194 -0.01367038
v 0.04438278 0.04728924 0.00530297
v 0.04438777 0.04409891 -0.01482067
v 0.05831459 0.03377107 -0.01370270
v 0.04469037 0.03943806 0.01488852
v 0.05936573 0.03468553 0.00314919
v 0.05037506 0.04172212 0.01105922
v 0.05343435 0.04179548 -0.00684776
v 0.05433405 0.03968646 0.00833251
v 0.06773086 0.01931257 -0.00814354
v 0.06766815 0.01726169 0.00930412
v 0.06565104 0.02129676 -0.01282731
v 0.07031026 -0.01079497 -0.01200225
v 0.07001055 0.00600966 -0.01129933
v 0.06615917 0.00602294 0.01511467
v 0.06886294 0.01323537 0.00939972
v 0.06398496 0.01318923 0.01578006
v 0.05458090 0.03482574 0.01357922
v 0.06260240 0.02467620 0.01273068
v 0.06554309 0.00301068 -0.01644734
v 0.06688246 0.00803192 -0.01559430
v 0.06693944 0.01418202 -0.01456035
v 0.05479009 0.03198790 -0.01758418
v 0.06490222 -0.01064710 -0.01553698
v 0.06197466 -0.00957080 -0.01543335
v 0.07111450 -0.01079974 0.00538288
vn 0.19627555 0.24260213 0.95006322
vn 0.67244824 -0.61100091 0.41772150
vn 0.88283781 0.46960512 0.00827229
vn -0.54664235 0.31560347 -0.77561369
vn -0.72918949 -0.22626248 0.64582348
vn 0.43359235 -0.64765644 -0.62652918
vn 0.50029622 0.86485276 0.04163404
vn 0.80877295 0.23694713 0.53827723
vn 0.60086868 0.25888325 -0.75626469
vn -0.57373302 -0.74933253 -0.33065265
vn 0.66641237 0.65853600 -0.34960677
vn -0.51790868 0.65473835 0.55053455
vn 0.72149492 0.56534871 0.39978232
vn 0.98600784 0.14667117 -0.07922189
vn 0.27386896 -0.01700683 0.96161664
vn -0.00400473 -0.09523041 -0.99544720
vn -0.92006625 -0.23947847 -0.31004541
vn 0.74462784 -0.65916837 -0.10500683
vn -0.46849103 -0.75717607 0.45519287
vn -0.48949213 0.84228977 -0.22571087
vn 0.47809597 0.45925805 -0.74866968
vn 0.83019921 0.47649563 -0.28934613
vn -0.65265821 0.08466988 0.75290655
vn -0.96498237 -0.25938783 -0.03907666
vn 0.84964552 0.45600132 0.26488729
vn 0.52921989 0.80081320 0.28040064
vn 0.44232306 0.53059325 0.72306370
vn 0.69439797 0.71834722 0.04229343
vn 0.96741626 0.24780218 0.05196023
vn 0.88438882 0.17441361 -0.43293914
vn 0.89313803 0.07166049 0.44403742
vn 0.42985309 0.25757579 0.86537913
vn 0.37787812 0.06617136 -0.92348767
vn -0.28100310 -0.71814145 -0.63663971
vn -0.69748593 -0.07665379 -0.71248690
vn -0.52886766 -0.84187337 0.10746269
vn 0.99775262 0.05285438 0.04118407
vn 0.00644068 -0.66926741 0.74299371
vn 0.46288888 0.72661732 -0.50770184
vn -0.45854632 0.87369156 0.16247562
vn -0.53531689 0.62794340 -0.56490965
vn 0.71799045 0.51867123 -0.46418733
vn -0.51289141 0.35608971 0.78111620
vn 0.81137565 0.58133757 0.06096046
vn 0.48010915 0.69510866 0.53508799
vn 0.64812993 0.75538283 -0.09656279
vn 0.67249884 0.70194410 0.23456299
vn 0.93980619 0.32400867 -0.10854817
vn 0.90278824 0.36038076 0.23473198
vn 0.84226508 0.34196546 -0.41671232
vn 0.67928057 -0.64352577 -0.35277824
vn 0.95220808 0.06103213 -0.29929059
vn 0.61259450 0.01791622 0.79019427
vn 0.96486298 0.18411235 0.18746220
vn 0.40672050 0.14517786 0.90194336
vn 0.47771574 0.41077282 0.77656511
vn 0.68849716 0.37424175 0.62122039
vn 0.32431630 -0.01408762 -0.94584379
vn 0.65464777 0.03969161 -0.75489130
vn 0.71114751 0.19966802 -0.67409340
vn 0.30422492 0.19331679 -0.93277855
vn 0.06981198 -0.63814264 -0.76674654
vn -0.17191540 -0.22794581 -0.95837665
vn 0.73825120 -0.67166978 0.06200713
f 18//18 10//10 6//6
f 23//23 15//15 1//1
f 24//24 12//12 4//4
f 24//24 23//23 12//12
f 24//24 5//5 23//23
f 24//24 17//17 10//10
f 34//34 6//6 10//10
f 35//35 34//34 10//10
f 35//35 10//10 17//17
f 35//35 24//24 4//4
f 35//35 17//17 24//24
f 36//36 10//10 18//18
f 36//36 19//19 5//5
f 36//36 24//24 10//10
f 36//36 5//5 24//24
f 37//37 18//18 14//14
f 37//37 14//14 29//29
f 37//37 31//31 2//2
f 38//38 5//5 19//19
f 38//38 23//23 5//5
f 38//38 15//15 23//23
f 38//38 2//2 15//15
f 38//38 36//36 2//2
f 38//38 19//19 36//36
f 39//39 21//21 4//4
f 39//39 11//11 21//21
f 40//40 20//20 12//12
f 40//40 7//7 20//20
f 40//40 26//26 7//7
f 40//40 12//12 26//26
f 41//41 4//4 12//12
f 41//41 12//12 20//20
f 41//41 39//39 4//4
f 41//41 20//20 39//39
f 42//42 21//21 11//11
f 42//42 11//11 22//22
f 42//42 22//22 9//9
f 42//42 9//9 21//21
f 43//43 23//23 1//1
f 43//43 12//12 23//23
f 43//43 27//27 12//12
f 43//43 1//1 27//27
f 44//44 25//25 3//3
f 44//44 13//13 25//25
f 44//44 3//3 22//22
f 45//45 26//26 12//12
f 45//45 12//12 27//27
f 45//45 27//27 13//13
f 46//46 7//7 28//28
f 46//46 11//11 39//39
f 46//46 39//39 20//20
f 46//46 20//20 7//7
f 46//46 28//28 44//44
f 46//46 44//44 22//22
f 46//46 22//22 11//11
f 47//47 44//44 28//28
f 47//47 13//13 44//44
f 47//47 45//45 13//13
f 47//47 26//26 45//45
f 47//47 28//28 7//7
f 47//47 7//7 26//26
f 48//48 29//29 14//14
f 48//48 3//3 29//29
f 48//48 14//14 30//30
f 48//48 22//22 3//3
f 49//49 25//25 8//8
f 49//49 29//29 3//3
f 49//49 3//3 25//25
f 50//50 9//9 22//22
f 50//50 48//48 30//30
f 50//50 22//22 48//48
f 51//51 18//18 6//6
f 52//52 30//30 14//14
f 52//52 14//14 18//18
f 52//52 51//51 30//30
f 52//52 18//18 51//51
f 53//53 15//15 2//2
f 53//53 2//2 31//31
f 53//53 31//31 8//8
f 54//54 8//8 31//31
f 54//54 49//49 8//8
f 54//54 29//29 49//49
f 54//54 37//37 29//29
f 54//54 31//31 37//37
f 55//55 32//32 1//1
f 55//55 1//1 15//15
f 55//55 15//15 53//53
f 55//55 53//53 8//8
f 56//56 27//27 1//1
f 56//56 1//1 32//32
f 56//56 13//13 27//27
f 57//57 25//25 13//13
f 57//57 56//56 32//32
f 57//57 13//13 56//56
f 57//57 8//8 25//25
f 57//57 55//55 8//8
f 57//57 32//32 55//55
f 59//59 58//58 33//33
f 59//59 6//6 58//58
f 59//59 51//51 6//6
f 59//59 30//30 51//51
f 60//60 33//33 9//9
f 60//60 59//59 33//33
f 60//60 30//30 59//59
f 60//60 50//50 30//30
f 60//60 9//9 50//50
f 61//61 21//21 9//9
f 61//61 9//9 33//33
f 61//61 4//4 21//21
f 61//61 35//35 4//4
f 61//61 16//16 35//35
f 61//61 58//58 16//16
f 61//61 33//33 58//58
f 62//62 6//6 34//34
f 62//62 58//58 6//6
f 62//62 16//16 58//58
f 63//63 35//35 16//16
f 63//63 34//34 35//35
f 63//63 62//62 34//34
f 63//63 16//16 62//62
f 64//64 36//36 18//18
f 64//64 2//2 36//36
f 64//64 37//37 2//2
f 64//64 18//18 37//37

