# https://github.com/mikedh/trimesh
v -0.04351177 -0.04084353 0.01716925
v -0.03827406 -0.05044418 -0.01088690
v -0.04368979 -0.03744033 -0.01079738
v -0.05650964 -0.03752527 -0.01641890
v -0.06675741 -0.05003587 0.01055746
v -0.03828522 -0.04572324 -0.01633316
v -0.06328756 -0.02979951 0.01717750
v -0.04351420 -0.05105306 0.01054130
v -0.06600272 -0.05077082 -0.01155666
v -0.05679956 -0.03015690 -0.01419239
v -0.04348370 -0.03917636 0.01633383
v -0.05898831 -0.04643728 0.01694519
v -0.04340194 -0.04879157 0.01542167
v -0.06241855 -0.05202316 0.00769102
v -0.04797924 -0.04911674 -0.01420411
v -0.06030796 -0.04799318 -0.01529797
v -0.06987500 -0.02995263 -0.00262229
v -0.04369112 -0.04100848 -0.01654367
v -0.04352391 -0.03767018 0.01272480
v -0.06265673 -0.02978241 0.01733888
v -0.06590732 -0.04431399 0.01494391
v -0.04351211 -0.04979434 0.01362828
v -0.04365524 -0.04626651 0.01752129
v -0.06223021 -0.05008360 0.01407691
v -0.06533970 -0.05201929 -0.00809217
v -0.03831992 -0.04871794 -0.01356731
v -0.06353266 -0.05204289 -0.01002266
v -0.06521819 -0.04538083 -0.01537236
v -0.05634022 -0.04824049 -0.01510573
v -0.06871406 -0.04654098 -0.00977487
v -0.05614139 -0.04539045 -0.01637967
v -0.05665421 -0.03444651 -0.01559216
v -0.04359133 -0.03854050 -0.01375360
v -0.05430231 -0.03041592 -0.00813350
v -0.06314358 -0.04019348 0.01706727
v -0.05891811 -0.03022152 0.01639358
v -0.06958284 -0.02994792 -0.00694086
v -0.06970350 -0.03002339 0.01271721
v -0.06390666 -0.05084559 0.01250394
v -0.04993775 -0.04976184 0.01476183
v -0.06504702 -0.04924256 0.01401197
v -0.06499435 -0.05080408 0.01137909
v -0.03826968 -0.04700847 -0.01545451
v -0.03829978 -0.05009432 -0.01159246
v -0.06445496 -0.04998706 -0.01317029
v -0.04887629 -0.05202918 -0.00574162
v -0.06729281 -0.05093579 -0.00704476
v -0.06772253 -0.04740658 -0.01223520
v -0.04367537 -0.04537809 -0.01649757
v -0.05444827 -0.03038235 -0.00961430
v -0.06194541 -0.04348233 0.01708254
v -0.05557150 -0.03052395 0.01236472
v -0.06880422 -0.04564463 -0.00979217
v -0.06858881 -0.04538275 0.01228797
v -0.06616475 -0.02989934 0.01627325
v -0.05841740 -0.05192887 0.00872300
v -0.04353216 -0.04810982 0.01627837
v -0.05528130 -0.05076640 0.01265659
v -0.06005282 -0.04811397 0.01614777
v -0.06494045 -0.04975791 0.01354204
v -0.06315367 -0.05192417 0.00588570
v -0.03828084 -0.04885003 -0.01340549
v -0.04783475 -0.05081662 -0.01161720
v -0.05644706 -0.04967483 -0.01367065
vn 0.65288549 0.14578130 0.74329560
vn 0.75407953 -0.64692720 -0.11335455
vn 0.67998870 0.72476490 -0.11104597
vn -0.11477615 0.16165588 -0.98014989
vn -0.71623878 -0.66659242 0.20653466
vn 0.72643202 0.01161607 -0.68714016
vn -0.21606753 0.69290425 0.68789426
vn 0.47020982 -0.85488446 0.21926077
vn -0.52742546 -0.70664553 -0.47167201
vn 0.01043955 0.78391766 -0.62077703
vn 0.72070404 0.46163061 0.51718745
vn -0.09470431 -0.25722273 0.96170035
vn 0.65108456 -0.59283281 0.47396007
vn -0.13746540 -0.98534467 0.10099086
vn 0.03505274 -0.72896515 -0.68365277
vn -0.08149198 -0.49172040 -0.86693143
vn -0.74372438 0.66836252 -0.01286809
vn 0.29157151 0.36559055 -0.88392850
vn 0.75640684 0.63523193 0.15597781
vn -0.03891163 0.69025349 0.72252060
vn -0.56481959 -0.16919819 0.80768237
vn 0.51881651 -0.77650116 0.35759666
vn 0.56784185 -0.21492480 0.79458351
vn -0.10184852 -0.77215632 0.62721727
vn -0.30652288 -0.94812254 -0.08430519
vn 0.15282401 -0.74128333 -0.65356243
vn -0.08027965 -0.95453989 -0.28706930
vn -0.48561628 -0.08506518 -0.87002341
vn 0.00419241 -0.61021639 -0.79222370
vn -0.96139329 -0.22484339 -0.15864552
vn -0.04351194 -0.17970833 -0.98275716
vn -0.14530808 0.28740580 -0.94672249
vn 0.59634771 0.69549516 -0.40081903
vn 0.34590596 0.93826744 0.00181124
vn -0.30774722 -0.06783275 0.94904708
vn 0.27258271 0.82811763 0.48981615
vn -0.67929178 0.65525067 -0.33046821
vn -0.74934926 0.58565047 0.30901329
vn -0.20857297 -0.89716680 0.38934439
vn 0.02046894 -0.82560172 0.56388192
vn -0.49200506 -0.49058756 0.71920433
vn -0.39323672 -0.88819550 0.23764183
vn 0.70937883 -0.45172118 -0.54104496
vn 0.60985676 -0.67985746 -0.40726965
vn -0.25674269 -0.65284050 -0.71265873
vn 0.07134054 -0.99547893 -0.06270748
vn -0.76409870 -0.64339091 -0.04691816
vn -0.81310796 -0.26260960 -0.51951097
vn 0.00566661 -0.21450707 -0.97670600
vn 0.34633120 0.93491027 -0.07744348
vn -0.23663929 -0.14798032 0.96026229
vn 0.34834329 0.92767217 0.13446674
vn -0.97569977 -0.04428124 -0.21459063
vn -0.88908459 -0.23156423 0.39485010
vn -0.42794925 0.62859538 0.64940533
vn 0.01428394 -0.98843986 0.15093911
vn 0.59983880 -0.49727952 0.62682253
vn 0.01247900 -0.93737211 0.34810601
vn -0.14352246 -0.50895046 0.84874657
vn -0.44788646 -0.70220863 0.55344445
vn -0.30551040 -0.95047284 0.05713830
vn 0.70832847 -0.56231023 -0.42670597
vn 0.04848619 -0.91721318 -0.39543529
vn 0.00306237 -0.78270729 -0.62238245
f 11//11 1//1 2//2
f 11//11 2//2 6//6
f 19//19 11//11 6//6
f 19//19 6//6 3//3
f 20//20 1//1 11//11
f 20//20 17//17 7//7
f 22//22 8//8 2//2
f 22//22 2//2 13//13
f 23//23 13//13 2//2
f 23//23 2//2 1//1
f 23//23 1//1 20//20
f 27//27 25//25 9//9
f 27//27 14//14 25//25
f 29//29 16//16 6//6
f 31//31 4//4 18//18
f 31//31 28//28 4//4
f 31//31 16//16 28//28
f 32//32 18//18 4//4
f 32//32 10//10 18//18
f 32//32 28//28 10//10
f 32//32 4//4 28//28
f 33//33 18//18 10//10
f 33//33 10//10 3//3
f 33//33 3//3 6//6
f 33//33 6//6 18//18
f 34//34 19//19 3//3
f 35//35 20//20 7//7
f 36//36 20//20 11//11
f 36//36 11//11 19//19
f 37//37 20//20 10//10
f 37//37 17//17 20//20
f 37//37 10//10 28//28
f 40//40 22//22 13//13
f 40//40 24//24 39//39
f 40//40 8//8 22//22
f 42//42 5//5 25//25
f 42//42 14//14 39//39
f 43//43 26//26 15//15
f 43//43 6//6 2//2
f 43//43 29//29 6//6
f 43//43 15//15 29//29
f 45//45 27//27 9//9
f 45//45 28//28 16//16
f 45//45 9//9 28//28
f 46//46 27//27 2//2
f 46//46 2//2 8//8
f 46//46 14//14 27//27
f 47//47 25//25 5//5
f 47//47 9//9 25//25
f 48//48 28//28 9//9
f 48//48 47//47 30//30
f 48//48 9//9 47//47
f 48//48 37//37 28//28
f 49//49 31//31 18//18
f 49//49 18//18 6//6
f 49//49 6//6 16//16
f 49//49 16//16 31//31
f 50//50 34//34 3//3
f 50//50 3//3 10//10
f 50//50 10//10 20//20
f 50//50 20//20 34//34
f 51//51 23//23 20//20
f 51//51 20//20 35//35
f 51//51 12//12 23//23
f 51//51 35//35 21//21
f 51//51 21//21 41//41
f 52//52 34//34 20//20
f 52//52 20//20 36//36
f 52//52 36//36 19//19
f 52//52 19//19 34//34
f 53//53 17//17 37//37
f 53//53 48//48 30//30
f 53//53 37//37 48//48
f 54//54 41//41 21//21
f 54//54 5//5 41//41
f 54//54 47//47 5//5
f 54//54 30//30 47//47
f 54//54 53//53 30//30
f 54//54 38//38 17//17
f 54//54 17//17 53//53
f 55//55 7//7 17//17
f 55//55 17//17 38//38
f 55//55 35//35 7//7
f 55//55 21//21 35//35
f 55//55 54//54 21//21
f 55//55 38//38 54//54
f 56//56 39//39 14//14
f 56//56 46//46 8//8
f 56//56 14//14 46//46
f 57//57 40//40 13//13
f 57//57 13//13 23//23
f 58//58 40//40 39//39
f 58//58 8//8 40//40
f 58//58 56//56 8//8
f 58//58 39//39 56//56
f 59//59 41//41 24//24
f 59//59 51//51 41//41
f 59//59 12//12 51//51
f 59//59 24//24 40//40
f 59//59 40//40 57//57
f 59//59 57//57 23//23
f 59//59 23//23 12//12
f 60//60 39//39 24//24
f 60//60 24//24 41//41
f 60//60 42//42 39//39
f 60//60 41//41 5//5
f 60//60 5//5 42//42
f 61//61 42//42 25//25
f 61//61 25//25 14//14
f 61//61 14//14 42//42
f 62//62 44//44 15//15
f 62//62 15//15 26//26
f 62//62 26//26 43//43
f 62//62 43//43 2//2
f 62//62 2//2 44//44
f 63//63 15//15 44//44
f 63//63 44//44 2//2
f 63//63 2//2 27//27
f 64//64 45//45 16//16
f 64//64 16//16 29//29
f 64//64 29//29 15//15
f 64//64 15//15 63//63
f 64//64 63//63 27//27
f 64//64 27//27 45//45

