# https://github.com/mikedh/trimesh
v -0.06277689 0.00173293 0.01579078
v -0.05802092 -0.02086221 0.01117234
v -0.05720361 0.00183602 -0.00931401
v -0.06443533 0.00178175 -0.01870422
v -0.07377572 -0.01612466 0.00926762
v -0.05999887 -0.02061488 -0.01484679
v -0.06103059 0.00207068 0.01477510
v -0.06622897 -0.02019089 0.01687220
v -0.07260666 0.00149305 0.00839866
v -0.05791514 -0.02064231 -0.01110175
v -0.06111228 -0.00228583 -0.01681760
v -0.07065338 -0.02016314 -0.01580158
v -0.05819421 0.00190096 0.01207108
v -0.06185952 -0.02061291 0.01608828
v -0.07154912 0.00164610 -0.01380496
v -0.07164776 0.00164980 0.01231252
v -0.06206133 -0.02042436 -0.01682551
v -0.05827348 -0.00697018 -0.01207953
v -0.07264491 -0.02041478 0.01241191
v -0.05810223 0.00099869 0.01173987
v -0.06387874 -0.01420184 0.01672683
v -0.05905155 -0.02074393 0.01302783
v -0.06856497 0.00156294 -0.01776361
v -0.07280265 -0.01192528 -0.01113356
v -0.06820950 0.00161551 0.01572882
v -0.07364759 -0.00684345 0.01027972
v -0.06218933 -0.00235203 -0.01772882
v -0.06757931 -0.02022117 -0.01772059
v -0.07281641 -0.02034402 -0.00292759
v -0.06910617 -0.02029072 0.01596795
v -0.06451579 -0.02036802 0.01677400
v -0.07152120 -0.00270278 -0.01486243
v -0.07005744 -0.01011145 0.01691885
v -0.07256715 -0.00064770 0.01120350
v -0.07273664 -0.01403627 0.01319093
v -0.07382304 -0.00467176 0.00752718
v -0.06441804 -0.02022046 -0.01771420
v -0.06604115 -0.00566967 -0.01881500
v -0.06883794 -0.01395412 -0.01762635
v -0.07186048 -0.02031099 -0.01322685
v -0.07382421 -0.01570305 0.00758571
v -0.06566744 -0.00990861 0.01689048
v -0.06377949 -0.01734298 0.01668619
v -0.06963339 0.00057171 -0.01680788
v -0.07263205 -0.00255934 -0.01216919
v -0.06901357 -0.01679178 0.01677577
v -0.06966377 0.00140777 0.01499242
v -0.07202350 -0.00704533 0.01477468
v -0.07367119 -0.01285392 0.01020786
v -0.07173717 -0.01584265 0.01490174
v -0.07372942 -0.00473286 0.00837395
v -0.06632033 -0.00040842 -0.01870517
v -0.06590309 -0.00544349 -0.01880276
v -0.06819380 -0.01930664 -0.01760414
v -0.07154606 -0.01185325 -0.01513557
v -0.07372234 -0.00889834 0.00456355
v -0.07270631 -0.00044439 -0.01113599
v -0.07266276 -0.00686743 0.01340424
v -0.07064707 0.00138320 0.01387708
v -0.07004959 -0.01389211 0.01676341
v -0.07193846 -0.02009041 0.01373790
v -0.06550008 -0.00034257 -0.01884028
v -0.07009821 -0.01790384 -0.01643423
v -0.07264662 -0.00871230 -0.01215333
vn 0.18132565 0.56864996 0.80234546
vn 0.71176016 -0.67394932 0.19796409
vn 0.73506409 0.65338607 -0.18101778
vn 0.21150440 0.66310692 -0.71802166
vn -0.98776510 -0.10851264 0.11200498
vn 0.56336643 -0.69068672 -0.45339841
vn 0.41106013 0.70309484 0.58024755
vn -0.08148125 -0.55184584 0.82995601
vn -0.71362081 0.69821189 0.05696921
vn 0.72560975 -0.65957753 -0.19608154
vn 0.75892551 0.12260404 -0.63953133
vn -0.58581149 -0.63294582 -0.50616646
vn 0.70800344 0.62554892 0.32774942
vn 0.37592142 -0.64693533 0.66344387
vn -0.64555686 0.71087694 -0.27912420
vn -0.61568630 0.73360383 0.28767309
vn 0.37122908 -0.66177079 -0.65134353
vn 0.89776411 0.00624123 -0.44043234
vn -0.68077818 -0.69544406 0.22999701
vn 0.98847247 0.02467156 0.14937700
vn 0.23687196 0.01474238 0.97142902
vn 0.60259600 -0.64475493 0.47028623
vn -0.42071901 0.63375358 -0.64911625
vn -0.98695073 -0.03564029 -0.15702873
vn -0.19261853 0.67954945 0.70789169
vn -0.97851366 0.05132881 0.19969069
vn 0.51983988 0.02772876 -0.85381357
vn -0.17833920 -0.67381603 -0.71705446
vn -0.69424005 -0.71820808 -0.04698843
vn -0.33646441 -0.70663254 0.62246458
vn 0.06878728 -0.62928366 0.77412556
vn -0.84637358 0.04977314 -0.53025880
vn -0.39813588 0.03507252 0.91665574
vn -0.94242018 0.18477862 0.27874912
vn -0.92256316 -0.03125375 0.38457824
vn -0.99465827 0.09836906 0.03128018
vn 0.12879680 -0.60520643 -0.78558040
vn -0.10974170 -0.02818325 -0.99356050
vn -0.49838349 -0.02349367 -0.86663830
vn -0.69614172 -0.68775166 -0.20587462
vn -0.99684460 -0.07786769 -0.01540985
vn 0.08568147 0.04475410 0.99531691
vn 0.22262831 -0.00901305 0.97486173
vn -0.74510634 0.12325326 -0.65545799
vn -0.96764629 0.03981122 -0.24915000
vn -0.29995270 -0.12118316 0.94622567
vn -0.51671755 0.57698414 0.63252848
vn -0.79093127 0.09484269 0.60451021
vn -0.97870845 -0.01025628 0.20499896
vn -0.77644079 -0.10082397 0.62207253
vn -0.98201284 0.12369310 0.14265623
vn -0.26574671 0.07102645 -0.96142287
vn 0.19558811 -0.03255994 -0.98014547
vn -0.42601737 -0.11501812 -0.89737396
vn -0.83987430 -0.01401352 -0.54260003
vn -0.99878597 0.00217556 -0.04921224
vn -0.96740828 0.21900267 -0.12711821
vn -0.92489848 0.07488504 0.37276672
vn -0.69928811 0.44290606 0.56109745
vn -0.45630172 -0.06678626 0.88731524
vn -0.66351029 -0.48218277 0.57206107
vn -0.02069979 0.04416103 -0.99880995
vn -0.63912768 -0.04762148 -0.76762491
vn -0.96857015 -0.00512209 -0.24868781
f 7//7 3//3 4//4
f 10//10 3//3 2//2
f 10//10 2//2 6//6
f 11//11 4//4 3//3
f 13//13 3//3 7//7
f 14//14 7//7 1//1
f 14//14 13//13 7//7
f 15//15 7//7 4//4
f 16//16 15//15 9//9
f 16//16 7//7 15//15
f 17//17 11//11 6//6
f 18//18 10//10 6//6
f 18//18 6//6 11//11
f 18//18 11//11 3//3
f 18//18 3//3 10//10
f 19//19 2//2 14//14
f 20//20 13//13 2//2
f 20//20 2//2 3//3
f 20//20 3//3 13//13
f 21//21 14//14 1//1
f 22//22 14//14 2//2
f 22//22 2//2 13//13
f 22//22 13//13 14//14
f 23//23 15//15 4//4
f 25//25 1//1 7//7
f 25//25 7//7 16//16
f 27//27 4//4 11//11
f 27//27 11//11 17//17
f 28//28 17//17 6//6
f 29//29 19//19 5//5
f 29//29 2//2 19//19
f 30//30 19//19 14//14
f 31//31 30//30 14//14
f 31//31 8//8 30//30
f 33//33 1//1 25//25
f 34//34 16//16 9//9
f 36//36 5//5 26//26
f 37//37 27//27 17//17
f 37//37 4//4 27//27
f 37//37 17//17 28//28
f 38//38 37//37 28//28
f 40//40 28//28 6//6
f 40//40 12//12 28//28
f 40//40 6//6 2//2
f 40//40 2//2 29//29
f 40//40 29//29 24//24
f 41//41 29//29 5//5
f 41//41 24//24 29//29
f 41//41 5//5 36//36
f 42//42 31//31 21//21
f 42//42 8//8 31//31
f 42//42 33//33 8//8
f 42//42 21//21 1//1
f 42//42 1//1 33//33
f 43//43 31//31 14//14
f 43//43 14//14 21//21
f 43//43 21//21 31//31
f 44//44 32//32 15//15
f 44//44 15//15 23//23
f 44//44 23//23 39//39
f 45//45 15//15 32//32
f 46//46 30//30 8//8
f 46//46 8//8 33//33
f 47//47 33//33 25//25
f 47//47 25//25 16//16
f 48//48 33//33 47//47
f 49//49 35//35 26//26
f 49//49 26//26 5//5
f 49//49 5//5 19//19
f 49//49 19//19 35//35
f 50//50 35//35 19//19
f 50//50 48//48 35//35
f 50//50 33//33 48//48
f 51//51 34//34 9//9
f 51//51 9//9 36//36
f 51//51 36//36 26//26
f 51//51 26//26 34//34
f 52//52 23//23 4//4
f 52//52 39//39 23//23
f 52//52 38//38 39//39
f 53//53 4//4 37//37
f 53//53 37//37 38//38
f 54//54 28//28 12//12
f 54//54 39//39 38//38
f 54//54 38//38 28//28
f 55//55 12//12 40//40
f 55//55 32//32 44//44
f 55//55 44//44 39//39
f 55//55 45//45 32//32
f 56//56 41//41 36//36
f 56//56 24//24 41//41
f 57//57 36//36 9//9
f 57//57 9//9 15//15
f 57//57 15//15 45//45
f 57//57 56//56 36//36
f 57//57 45//45 24//24
f 57//57 24//24 56//56
f 58//58 48//48 16//16
f 58//58 16//16 34//34
f 58//58 34//34 26//26
f 58//58 26//26 35//35
f 58//58 35//35 48//48
f 59//59 48//48 47//47
f 59//59 47//47 16//16
f 59//59 16//16 48//48
f 60//60 46//46 33//33
f 60//60 33//33 50//50
f 60//60 30//30 46//46
f 61//61 50//50 19//19
f 61//61 19//19 30//30
f 61//61 60//60 50//50
f 61//61 30//30 60//60
f 62//62 52//52 4//4
f 62//62 38//38 52//52
f 62//62 53//53 38//38
f 62//62 4//4 53//53
f 63//63 54//54 12//12
f 63//63 39//39 54//54
f 63//63 55//55 39//39
f 63//63 12//12 55//55
f 64//64 55//55 40//40
f 64//64 40//40 24//24
f 64//64 24//24 45//45
f 64//64 45//45 55//55

