# https://github.com/mikedh/trimesh
v -0.05746021 -0.02901449 -0.00181443
v -0.05870346 -0.05166791 -0.00187747
v -0.05858788 -0.04463113 -0.01968541
v -0.06868239 -0.02926082 -0.01995639
v -0.07202933 -0.02918861 -0.01024660
v -0.05950395 -0.02946418 -0.01784723
v -0.05869377 -0.05164102 -0.01007323
v -0.06497457 -0.02919566 -0.00182159
v -0.07136555 -0.02916029 -0.01622729
v -0.06156641 -0.02927367 -0.01982595
v -0.07144284 -0.04487280 -0.01029768
v -0.06477332 -0.05130807 -0.00181633
v -0.05940630 -0.03486263 -0.01945088
v -0.07054061 -0.02920678 -0.01837014
v -0.07123481 -0.04357539 -0.01445448
v -0.06489498 -0.05152033 -0.01021027
v -0.07109969 -0.03753518 -0.01590941
v -0.06766468 -0.04462152 -0.01867810
v -0.07028418 -0.04490585 -0.01603266
v -0.06483408 -0.04473863 -0.01955112
v -0.06836363 -0.03754020 -0.01958290
v -0.07125071 -0.04488531 -0.01309791
v -0.06999823 -0.04277636 -0.01694520
v -0.06667882 -0.04339127 -0.01955646
v -0.06914314 -0.03823791 -0.01879259
v -0.06913224 -0.04362073 -0.01758853
vn 0.60626008 0.57425601 0.55016247
vn 0.54898689 -0.60555944 0.57611731
vn 0.60978414 -0.35176198 -0.71023011
vn -0.27429378 0.60808895 -0.74497702
vn -0.75623244 0.61446217 0.22483044
vn 0.70507028 0.64032867 -0.30472133
vn 0.62216508 -0.74608101 -0.23722088
vn -0.34196144 0.60981751 0.71497201
vn -0.71950660 0.66876848 -0.18724044
vn 0.24859658 0.66258631 -0.70652610
vn -0.92140678 -0.32428198 0.21412789
vn -0.42004668 -0.61890102 0.66371856
vn 0.72281543 0.09009540 -0.68514281
vn -0.62549683 0.63031163 -0.45984884
vn -0.95641068 -0.12676543 -0.26307630
vn -0.33676506 -0.91039585 -0.24035119
vn -0.92442153 -0.06362325 -0.37602781
vn -0.45947386 -0.51162989 -0.72602935
vn -0.72896007 -0.48633986 -0.48175799
vn -0.09467742 -0.48967305 -0.86675053
vn -0.44138844 -0.08129031 -0.89362639
vn -0.89010200 -0.43330018 -0.14131304
vn -0.78640714 -0.13366455 -0.60307345
vn -0.27917227 -0.17619073 -0.94393838
vn -0.71431202 -0.11733791 -0.68992039
vn -0.67836339 -0.19419249 -0.70859889
f 6//6 1//1 3//3
f 7//7 1//1 2//2
f 7//7 3//3 1//1
f 8//8 1//1 5//5
f 9//9 5//5 1//1
f 10//10 3//3 4//4
f 10//10 1//1 6//6
f 10//10 9//9 1//1
f 12//12 2//2 1//1
f 12//12 1//1 8//8
f 12//12 8//8 5//5
f 12//12 5//5 11//11
f 13//13 10//10 6//6
f 13//13 6//6 3//3
f 13//13 3//3 10//10
f 14//14 10//10 4//4
f 14//14 9//9 10//10
f 15//15 11//11 5//5
f 15//15 5//5 9//9
f 16//16 7//7 2//2
f 16//16 2//2 12//12
f 16//16 12//12 11//11
f 17//17 15//15 9//9
f 17//17 9//9 14//14
f 19//19 18//18 16//16
f 19//19 15//15 17//17
f 20//20 3//3 7//7
f 20//20 7//7 16//16
f 20//20 16//16 18//18
f 21//21 14//14 4//4
f 22//22 19//19 16//16
f 22//22 16//16 11//11
f 22//22 11//11 15//15
f 22//22 15//15 19//19
f 23//23 19//19 17//17
f 23//23 17//17 14//14
f 24//24 20//20 18//18
f 24//24 18//18 21//21
f 24//24 21//21 4//4
f 24//24 4//4 3//3
f 24//24 3//3 20//20
f 25//25 23//23 14//14
f 25//25 14//14 21//21
f 25//25 21//21 18//18
f 26//26 18//18 19//19
f 26//26 19//19 23//23
f 26//26 25//25 18//18
f 26//26 23//23 25//25

