# https://github.com/mikedh/trimesh
v 0.06589626 -0.00521750 0.02159682
v 0.07065252 -0.03676302 0.01892675
v 0.07042063 -0.00519568 0.01651501
v 0.05521777 -0.01021696 0.01407194
v 0.04447129 -0.01740170 0.02321308
v 0.07076786 -0.03837696 0.01626791
v 0.04676155 -0.00321994 0.01903682
v 0.06950449 -0.01900691 0.01992398
v 0.06522976 -0.03449883 0.02269165
v 0.07080484 -0.01676234 0.01634635
v 0.05387720 -0.04282403 0.01647927
v 0.06977921 -0.00517894 0.01792706
v 0.05100597 -0.00486401 0.01755363
v 0.04723722 -0.00567948 0.02154385
v 0.07051561 -0.03155534 0.01915509
v 0.04929797 -0.01746779 0.02485461
v 0.06807187 -0.02939134 0.02167195
v 0.06329567 -0.04327766 0.01617240
v 0.04416351 -0.00597197 0.01921508
v 0.06670972 -0.00960781 0.02169916
v 0.04706455 -0.00346910 0.02048048
v 0.07052258 -0.02201113 0.01824608
v 0.05382208 -0.03732882 0.02300166
v 0.04727209 -0.01700653 0.02467952
v 0.06811497 -0.03558525 0.02165623
v 0.06141766 -0.04313503 0.01621156
v 0.06979504 -0.04047514 0.01628320
v 0.04618469 -0.00481006 0.01851797
v 0.04348818 -0.01758982 0.02151046
v 0.04508018 -0.00662803 0.02076926
v 0.06848422 -0.01693554 0.02084395
v 0.06518241 -0.03063702 0.02264455
v 0.04626330 -0.00366968 0.01914923
v 0.07061160 -0.01681466 0.01733898
v 0.04817032 -0.01863541 0.02494105
v 0.05378116 -0.04212598 0.01892884
v 0.06633137 -0.04001405 0.02079077
v 0.06716936 -0.04223283 0.01626318
v 0.06968432 -0.03928560 0.01889952
v 0.04527669 -0.01769394 0.01977719
v 0.04300273 -0.01531981 0.02195084
v 0.05383745 -0.03930182 0.02200602
v 0.04445997 -0.00639268 0.01992412
v 0.04618656 -0.01488795 0.02368392
v 0.04726844 -0.01795079 0.02472482
v 0.06439588 -0.04188257 0.01899642
v 0.06719486 -0.03762215 0.02162659
v 0.07053477 -0.03835699 0.01728663
v 0.06957502 -0.03824668 0.01991831
v 0.06867154 -0.04099590 0.01827789
v 0.04432379 -0.01823549 0.02074338
v 0.04342515 -0.01631769 0.02219635
v 0.04335436 -0.01383532 0.02118973
v 0.06329756 -0.04288898 0.01702656
v 0.06715159 -0.04162218 0.01840448
v 0.06227550 -0.03636039 0.02261627
v 0.06867700 -0.03840639 0.02062442
v 0.06898267 -0.04129820 0.01644097
v 0.04344377 -0.01743167 0.02153672
v 0.06865480 -0.03990555 0.01985001
v 0.06625613 -0.04092215 0.01979079
v 0.06621782 -0.03837272 0.02163096
v 0.06820196 -0.03913796 0.02066268
v 0.06427148 -0.03535280 0.02263770
vn 0.30980571 0.63290475 0.70954352
vn 0.91555669 -0.10795369 0.38742992
vn 0.71236837 0.57021729 -0.40912534
vn -0.13671371 0.17683647 -0.97469904
vn -0.65405675 -0.13014338 0.74516607
vn 0.79158452 -0.22062424 -0.56984111
vn -0.34290642 0.86965904 -0.35511735
vn 0.80327433 0.04128990 0.59417632
vn 0.19802781 -0.08701527 0.97632645
vn 0.81659477 0.02322541 -0.57674393
vn -0.47095129 -0.73245130 -0.49165026
vn 0.62200331 0.66533948 0.41283806
vn -0.07044108 0.54777665 -0.83365388
vn -0.22286081 0.34160583 0.91303807
vn 0.88580520 0.01176491 0.46390811
vn 0.04822820 0.11981779 0.99162379
vn 0.53403934 0.01480473 0.84533000
vn 0.08312705 -0.85753414 -0.50766631
vn -0.89063612 0.36078162 -0.27677412
vn 0.45973302 0.07813821 0.88461289
vn -0.27371949 0.77255455 0.57291981
vn 0.94177086 0.03192493 0.33473638
vn -0.29443995 -0.31547870 0.90209661
vn -0.25878627 0.16151938 0.95233458
vn 0.52194081 -0.07700347 0.84949883
vn -0.04043337 -0.23084227 -0.97215070
vn 0.68100670 -0.47909148 -0.55380613
vn -0.38520753 0.31016233 -0.86914584
vn -0.95153109 -0.28382922 -0.11844641
vn -0.59182468 0.32692336 0.73679350
vn 0.65949163 0.05619755 0.74960831
vn 0.23144451 0.01835229 0.97267499
vn -0.71533609 0.68842332 -0.11986500
vn 0.96813781 0.02998331 0.24861654
vn -0.14661850 -0.06897634 0.98678533
vn -0.51096138 -0.75825568 0.40492813
vn 0.17562420 -0.60018108 0.78034531
vn 0.29351190 -0.77305137 -0.56235428
vn 0.81217881 -0.45061568 0.37055512
vn -0.63473121 -0.10515193 -0.76554514
vn -0.96675552 0.03970824 0.25260052
vn -0.41862860 -0.55914561 0.71561602
vn -0.74418292 0.35580301 0.56532823
vn -0.42576811 0.21943227 0.87782173
vn -0.37962815 -0.07350801 0.92221421
vn 0.08952373 -0.83013155 0.55033363
vn 0.31730768 -0.24850748 0.91518297
vn 0.90597086 -0.35486192 0.23084588
vn 0.73961942 -0.26297485 0.61952186
vn 0.56133751 -0.74299903 0.36448956
vn -0.70532536 -0.13561763 -0.69579020
vn -0.82059020 -0.23914338 0.51907819
vn -0.83456702 -0.05362974 -0.54828983
vn 0.04684833 -0.90479422 0.42326428
vn 0.29457977 -0.85976845 0.41715821
vn 0.07672030 -0.22683161 0.97090752
vn 0.56495915 -0.25960718 0.78321471
vn 0.56197039 -0.76950990 -0.30338719
vn -0.96387101 -0.24255834 -0.11008239
vn 0.53713107 -0.59121578 0.60162622
vn 0.20281124 -0.76334298 0.61333115
vn 0.16448049 -0.35547964 0.92009803
vn 0.43465190 -0.42079672 0.79624609
vn 0.09829794 -0.18798246 0.97724107
f 10//10 2//2 6//6
f 10//10 6//6 4//4
f 10//10 4//4 3//3
f 12//12 7//7 1//1
f 12//12 3//3 7//7
f 13//13 7//7 3//3
f 13//13 3//3 4//4
f 13//13 4//4 7//7
f 16//16 1//1 14//14
f 17//17 15//15 8//8
f 19//19 4//4 11//11
f 20//20 12//12 1//1
f 20//20 1//1 16//16
f 21//21 14//14 1//1
f 21//21 1//1 7//7
f 22//22 12//12 8//8
f 22//22 8//8 15//15
f 22//22 3//3 12//12
f 24//24 16//16 14//14
f 25//25 17//17 9//9
f 25//25 2//2 15//15
f 25//25 15//15 17//17
f 26//26 18//18 11//11
f 26//26 11//11 4//4
f 26//26 4//4 18//18
f 27//27 4//4 6//6
f 28//28 19//19 7//7
f 28//28 7//7 4//4
f 28//28 4//4 19//19
f 30//30 14//14 21//21
f 31//31 8//8 12//12
f 31//31 12//12 20//20
f 31//31 20//20 17//17
f 31//31 17//17 8//8
f 32//32 9//9 17//17
f 32//32 17//17 20//20
f 32//32 20//20 16//16
f 32//32 16//16 9//9
f 33//33 21//21 7//7
f 33//33 7//7 19//19
f 33//33 19//19 21//21
f 34//34 10//10 3//3
f 34//34 3//3 22//22
f 34//34 22//22 15//15
f 34//34 15//15 2//2
f 34//34 2//2 10//10
f 35//35 23//23 9//9
f 35//35 9//9 16//16
f 35//35 16//16 24//24
f 36//36 11//11 18//18
f 36//36 29//29 11//11
f 38//38 18//18 4//4
f 38//38 4//4 27//27
f 40//40 19//19 11//11
f 42//42 23//23 5//5
f 42//42 5//5 29//29
f 42//42 29//29 36//36
f 43//43 30//30 21//21
f 43//43 21//21 19//19
f 43//43 41//41 30//30
f 43//43 19//19 41//41
f 44//44 24//24 14//14
f 44//44 14//14 30//30
f 44//44 30//30 41//41
f 44//44 41//41 5//5
f 44//44 5//5 24//24
f 45//45 35//35 24//24
f 45//45 24//24 5//5
f 45//45 5//5 23//23
f 45//45 23//23 35//35
f 46//46 42//42 36//36
f 46//46 37//37 42//42
f 47//47 25//25 9//9
f 48//48 39//39 27//27
f 48//48 27//27 6//6
f 48//48 6//6 2//2
f 48//48 2//2 39//39
f 49//49 39//39 2//2
f 49//49 2//2 25//25
f 50//50 27//27 39//39
f 51//51 29//29 19//19
f 51//51 19//19 40//40
f 51//51 40//40 11//11
f 51//51 11//11 29//29
f 52//52 29//29 5//5
f 52//52 5//5 41//41
f 53//53 41//41 19//19
f 54//54 46//46 36//36
f 54//54 36//36 18//18
f 54//54 18//18 46//46
f 55//55 46//46 18//18
f 55//55 18//18 38//38
f 55//55 38//38 50//50
f 57//57 49//49 25//25
f 57//57 25//25 47//47
f 58//58 50//50 38//38
f 58//58 38//38 27//27
f 58//58 27//27 50//50
f 59//59 52//52 41//41
f 59//59 29//29 52//52
f 59//59 41//41 53//53
f 59//59 53//53 19//19
f 59//59 19//19 29//29
f 60//60 55//55 50//50
f 60//60 50//50 39//39
f 60//60 39//39 49//49
f 61//61 37//37 46//46
f 61//61 46//46 55//55
f 61//61 60//60 37//37
f 61//61 55//55 60//60
f 62//62 47//47 9//9
f 62//62 56//56 23//23
f 62//62 42//42 37//37
f 62//62 23//23 42//42
f 63//63 57//57 47//47
f 63//63 37//37 60//60
f 63//63 60//60 49//49
f 63//63 49//49 57//57
f 63//63 62//62 37//37
f 63//63 47//47 62//62
f 64//64 62//62 9//9
f 64//64 56//56 62//62
f 64//64 9//9 23//23
f 64//64 23//23 56//56

