# https://github.com/mikedh/trimesh
v -0.04508975 0.04404431 0.01418940
v -0.03711630 0.03193568 0.00423146
v -0.03420186 0.05180041 -0.01755992
v -0.05224709 0.03849954 -0.01969294
v -0.06737877 0.01357988 0.01130506
v -0.05792034 0.00957805 -0.01873628
v -0.04887912 0.04829652 -0.01037788
v -0.04110540 0.05149904 0.00752632
v -0.05850790 0.01366301 0.01478332
v -0.03375860 0.03683541 -0.01463286
v -0.03379754 0.04439925 -0.01984079
v -0.06730818 0.01763359 -0.01305234
v -0.04691102 0.04751012 -0.01655467
v -0.06197639 0.03403919 0.00733696
v -0.03842654 0.03174196 0.00745208
v -0.04075255 0.05183949 0.00637020
v -0.06336920 0.02059690 0.01393424
v -0.05367916 0.00938497 -0.01012626
v -0.03368566 0.04920462 -0.01921339
v -0.06021064 0.00949925 -0.01957802
v -0.03389667 0.04067893 -0.01897847
v -0.06014197 0.03713196 -0.01304949
v -0.04187970 0.05145832 -0.01340814
v -0.04954968 0.04630385 0.00813099
v -0.06736317 0.02082477 0.00453642
v -0.04144060 0.03408334 0.01125172
v -0.06299159 0.01358716 0.01503400
v -0.06511325 0.02259859 0.01101689
v -0.06026491 0.03210394 0.01167767
v -0.05392523 0.01383105 0.01106362
v -0.05614061 0.00970944 -0.01700029
v -0.03367335 0.04714508 -0.01976388
v -0.04065335 0.04884862 -0.01856549
v -0.06205220 0.01595331 -0.01970103
v -0.06761146 0.01354380 -0.01422710
v -0.06014675 0.00949762 -0.01036621
v -0.05393558 0.00935318 -0.01111231
v -0.05595126 0.03927048 -0.01670592
v -0.05281950 0.04408917 -0.01521225
v -0.05280444 0.04531688 -0.00734890
v -0.04789826 0.04832237 -0.01473484
v -0.04090393 0.05173292 -0.01343450
v -0.04477703 0.05033562 -0.01121259
v -0.04364706 0.05029878 0.00636217
v -0.04487525 0.04768971 0.01122367
v -0.06518740 0.02593991 -0.01115399
v -0.04492114 0.04470100 0.01393789
v -0.04265183 0.03437971 0.01211551
v -0.06031076 0.02699944 0.01377610
v -0.06498094 0.01355714 0.01437098
v -0.06720413 0.02070043 0.00818743
v -0.06203097 0.03089812 0.01080770
v -0.05617568 0.04022954 0.00885361
v -0.03862873 0.03127948 0.00775823
v -0.05014790 0.04051984 -0.01968247
v -0.04066025 0.05081467 -0.01608491
v -0.04209322 0.04504149 -0.01961826
v -0.06035599 0.01581121 -0.01970834
v -0.06230355 0.02808678 -0.01671821
v -0.06390339 0.01366049 -0.01914436
v -0.06729926 0.01871480 -0.01216025
v -0.05683980 0.04018163 -0.01474480
v -0.05797574 0.04017929 -0.00951600
v -0.05274425 0.04522900 -0.01214773
vn 0.16190835 0.23789537 0.95770114
vn 0.93616638 -0.27481238 0.21925023
vn 0.57202733 0.74910220 -0.33411169
vn -0.30115826 0.24750006 -0.92089490
vn -0.79677948 -0.49669439 0.34414697
vn 0.32331857 -0.76152315 -0.56173623
vn -0.53051663 0.84715052 -0.02980085
vn 0.34058745 0.78587015 0.51614755
vn 0.20954637 -0.63117587 0.74679806
vn 0.93904210 -0.32041125 -0.12464579
vn 0.66947689 -0.04771495 -0.74129885
vn -0.92688794 0.18571959 -0.32617016
vn -0.40765743 0.63708300 -0.65417174
vn -0.82820356 0.51767576 0.21468738
vn 0.88697077 0.00096066 0.46182457
vn 0.40618893 0.86758841 0.28688133
vn -0.53134124 0.20326404 0.82241122
vn 0.45577627 -0.88970226 0.02641737
vn 0.69454572 0.36115729 -0.62223118
vn -0.16402645 -0.71908624 -0.67528535
vn 0.77299674 -0.23724339 -0.58838050
vn -0.82014066 0.50048271 -0.27728389
vn -0.33597302 0.92385294 -0.18335176
vn -0.57986794 0.76055483 0.29207794
vn -0.97898295 0.20331284 0.01600877
vn 0.68051224 -0.10620598 0.72499889
vn -0.12958775 -0.57650785 0.80675009
vn -0.80285398 0.27981067 0.52643278
vn -0.54633722 0.42549234 0.72143739
vn 0.53913052 -0.73252335 0.41562944
vn 0.50803293 -0.78117136 -0.36286890
vn 0.66930166 0.11904509 -0.73339182
vn -0.23077919 0.55313067 -0.80049199
vn -0.26498306 0.07660869 -0.96120502
vn -0.88200895 -0.38168396 -0.27636492
vn -0.23524921 -0.97063021 0.05034689
vn 0.43151469 -0.89159386 -0.13731515
vn -0.59893657 0.45284390 -0.66045998
vn -0.59230901 0.64569958 -0.48191503
vn -0.65045196 0.75863111 0.03729725
vn -0.49160027 0.79883315 -0.34669119
vn -0.17689347 0.97359244 -0.14431374
vn -0.41872489 0.90714848 -0.04184625
vn -0.50091796 0.85618481 0.12660477
vn -0.28865232 0.73305578 0.61588072
vn -0.92466102 0.34193532 -0.16757757
vn 0.17747353 0.44688351 0.87681143
vn 0.47026336 -0.14461781 0.87059638
vn -0.38995961 0.23607349 0.89005663
vn -0.49910360 -0.52120351 0.69227343
vn -0.94780182 0.22570679 0.22522910
vn -0.74075225 0.39055220 0.54658493
vn -0.65400470 0.64203901 0.40007969
vn 0.79593573 -0.33420661 0.50476950
vn -0.25821883 0.30288234 -0.91737959
vn -0.28882494 0.83455473 -0.46914663
vn -0.10039986 0.20900492 -0.97274704
vn 0.00317763 -0.01339650 -0.99990521
vn -0.72045011 0.28738351 -0.63115953
vn -0.60378343 -0.15122361 -0.78267298
vn -0.96288646 0.21401490 -0.16446059
vn -0.70098406 0.59882834 -0.38733186
vn -0.75559845 0.65454864 -0.02523998
vn -0.65577118 0.74263563 -0.13585460
f 15//15 2//2 8//8
f 16//16 8//8 2//2
f 16//16 2//2 3//3
f 18//18 10//10 2//2
f 19//19 3//3 2//2
f 19//19 2//2 10//10
f 21//21 20//20 11//11
f 21//21 6//6 20//20
f 26//26 15//15 8//8
f 27//27 9//9 1//1
f 27//27 18//18 9//9
f 30//30 9//9 18//18
f 30//30 18//18 2//2
f 31//31 21//21 10//10
f 31//31 6//6 21//21
f 32//32 19//19 10//10
f 32//32 21//21 11//11
f 32//32 10//10 21//21
f 33//33 3//3 19//19
f 34//34 4//4 11//11
f 35//35 5//5 25//25
f 36//36 35//35 20//20
f 36//36 5//5 35//35
f 36//36 18//18 27//27
f 37//37 20//20 6//6
f 37//37 36//36 20//20
f 37//37 18//18 36//36
f 37//37 6//6 31//31
f 37//37 31//31 10//10
f 37//37 10//10 18//18
f 40//40 24//24 7//7
f 41//41 13//13 39//39
f 42//42 23//23 16//16
f 42//42 16//16 3//3
f 43//43 7//7 16//16
f 43//43 16//16 23//23
f 43//43 41//41 7//7
f 43//43 23//23 41//41
f 44//44 16//16 7//7
f 44//44 7//7 24//24
f 44//44 24//24 8//8
f 44//44 8//8 16//16
f 45//45 8//8 24//24
f 46//46 25//25 14//14
f 46//46 14//14 22//22
f 47//47 26//26 8//8
f 47//47 1//1 26//26
f 47//47 8//8 45//45
f 47//47 29//29 1//1
f 48//48 26//26 1//1
f 48//48 1//1 9//9
f 48//48 9//9 26//26
f 49//49 27//27 1//1
f 49//49 17//17 27//27
f 49//49 1//1 29//29
f 50//50 27//27 17//17
f 50//50 36//36 27//27
f 50//50 5//5 36//36
f 50//50 28//28 5//5
f 50//50 17//17 28//28
f 51//51 25//25 5//5
f 51//51 5//5 28//28
f 51//51 14//14 25//25
f 52//52 28//28 17//17
f 52//52 49//49 29//29
f 52//52 17//17 49//49
f 52//52 51//51 28//28
f 52//52 14//14 51//51
f 53//53 52//52 29//29
f 53//53 14//14 52//52
f 53//53 24//24 40//40
f 53//53 45//45 24//24
f 53//53 47//47 45//45
f 53//53 29//29 47//47
f 54//54 26//26 9//9
f 54//54 9//9 30//30
f 54//54 15//15 26//26
f 54//54 30//30 2//2
f 54//54 2//2 15//15
f 55//55 32//32 11//11
f 55//55 11//11 4//4
f 55//55 13//13 33//33
f 55//55 39//39 13//13
f 55//55 4//4 38//38
f 55//55 38//38 39//39
f 56//56 3//3 33//33
f 56//56 42//42 3//3
f 56//56 23//23 42//42
f 56//56 41//41 23//23
f 56//56 33//33 13//13
f 56//56 13//13 41//41
f 57//57 33//33 19//19
f 57//57 19//19 32//32
f 57//57 55//55 33//33
f 57//57 32//32 55//55
f 58//58 34//34 11//11
f 58//58 11//11 20//20
f 58//58 20//20 34//34
f 59//59 22//22 38//38
f 59//59 38//38 4//4
f 59//59 4//4 34//34
f 59//59 46//46 22//22
f 59//59 35//35 12//12
f 60//60 34//34 20//20
f 60//60 20//20 35//35
f 60//60 59//59 34//34
f 60//60 35//35 59//59
f 61//61 35//35 25//25
f 61//61 12//12 35//35
f 61//61 25//25 46//46
f 61//61 59//59 12//12
f 61//61 46//46 59//59
f 62//62 39//39 38//38
f 62//62 38//38 22//22
f 63//63 22//22 14//14
f 63//63 53//53 40//40
f 63//63 14//14 53//53
f 64//64 40//40 7//7
f 64//64 63//63 40//40
f 64//64 39//39 62//62
f 64//64 62//62 22//22
f 64//64 22//22 63//63
f 64//64 41//41 39//39
f 64//64 7//7 41//41

