# https://github.com/mikedh/trimesh
v 0.07266714 -0.02458096 -0.00140148
v 0.07285082 -0.03508830 -0.00142531
v 0.06811113 -0.02450829 -0.01788892
v 0.04709720 -0.03513655 -0.01816327
v 0.04709410 -0.03509363 -0.00140299
v 0.06792551 -0.03511824 -0.01752653
v 0.07254216 -0.02456297 -0.00985489
v 0.05843409 -0.02397883 -0.00136293
v 0.04930185 -0.03547823 -0.01841470
v 0.07267305 -0.03512963 -0.00981310
v 0.05775192 -0.02504116 -0.01511298
v 0.04717375 -0.02998121 -0.00368836
v 0.06386986 -0.03508777 -0.01822924
v 0.06024994 -0.02468473 -0.01703913
v 0.04710690 -0.03018006 -0.00140915
v 0.04719645 -0.03086384 -0.01480444
v 0.04724429 -0.02997667 -0.01067266
v 0.06385086 -0.03092718 -0.01819435
v 0.04725132 -0.03186001 -0.01595789
v 0.04720518 -0.03367950 -0.01737894
vn 0.58809080 0.56675536 0.57700742
vn 0.59083526 -0.56853374 0.57243609
vn 0.39755980 0.60734524 -0.68780664
vn -0.66169541 -0.40451285 -0.63129117
vn -0.57990164 -0.57006746 0.58201132
vn 0.43826665 -0.63057396 -0.64054573
vn 0.73587979 0.64825251 -0.19557507
vn -0.17248849 0.74552470 0.64377065
vn -0.10138002 -0.65593315 -0.74797981
vn 0.73327221 -0.64859580 -0.20404744
vn -0.36793211 0.90402897 -0.21761797
vn -0.79122307 0.61145415 0.00947985
vn 0.06927074 -0.61232637 -0.78756459
vn -0.17216383 0.77465381 -0.60849905
vn -0.68358484 0.38722970 0.61867999
vn -0.80833639 0.51971140 -0.27657248
vn -0.81006903 0.58336320 -0.05895374
vn 0.02644505 0.02375253 -0.99936804
vn -0.73499195 0.45648372 -0.50140747
vn -0.71486048 0.39461395 -0.57728184
f 7//7 1//1 2//2
f 8//8 5//5 2//2
f 8//8 2//2 1//1
f 8//8 7//7 3//3
f 8//8 1//1 7//7
f 9//9 5//5 4//4
f 9//9 2//2 5//5
f 9//9 4//4 3//3
f 10//10 6//6 3//3
f 10//10 3//3 7//7
f 10//10 7//7 2//2
f 10//10 9//9 6//6
f 10//10 2//2 9//9
f 13//13 3//3 6//6
f 13//13 6//6 9//9
f 14//14 11//11 8//8
f 14//14 8//8 3//3
f 14//14 3//3 4//4
f 15//15 4//4 5//5
f 15//15 5//5 8//8
f 15//15 8//8 12//12
f 16//16 4//4 15//15
f 16//16 11//11 14//14
f 17//17 12//12 8//8
f 17//17 8//8 11//11
f 17//17 11//11 16//16
f 17//17 16//16 15//15
f 17//17 15//15 12//12
f 18//18 13//13 9//9
f 18//18 9//9 3//3
f 18//18 3//3 13//13
f 19//19 16//16 14//14
f 20//20 19//19 14//14
f 20//20 14//14 4//4
f 20//20 4//4 16//16
f 20//20 16//16 19//19

