# https://github.com/mikedh/trimesh
v 0.00783639 0.05762839 0.01373928
v 0.00799187 0.04162894 0.01269184
v 0.00370886 0.05652605 -0.01759014
v -0.03051589 0.05496000 -0.01689698
v -0.05031803 0.03873274 0.01197550
v -0.00969528 0.06226185 -0.01187638
v 0.00796540 0.05903951 0.01264163
v -0.01859141 0.04133378 0.01544047
v -0.03138166 0.03704619 -0.01289680
v -0.01185644 0.05925354 -0.01648432
v -0.03041748 0.05677064 0.01038396
v 0.00389447 0.04853504 -0.01756618
v 0.00356854 0.06121707 -0.01107900
v -0.02877164 0.03660039 0.01017628
v 0.00384867 0.05033183 0.01494537
v -0.05194466 0.03917503 0.00867604
v -0.01823345 0.05471437 -0.01852275
v -0.02333047 0.05899414 -0.01473656
v -0.00444273 0.06213380 0.00913810
v -0.03258011 0.05214940 0.01479604
v 0.00425775 0.04216765 -0.00910476
v 0.00375766 0.05930942 -0.01544479
v -0.04433673 0.03892182 0.01496837
v -0.02303153 0.03814762 0.01357641
v -0.03117466 0.03542838 -0.00906867
v 0.00473168 0.04226468 0.01379305
v 0.00785478 0.04718808 0.01368275
v -0.03131698 0.04194425 -0.01763791
v -0.04720975 0.04499327 0.00863406
v -0.01093031 0.05565143 -0.01848166
v -0.01807525 0.05743723 -0.01747330
v -0.01292511 0.06114467 -0.01393674
v -0.01807019 0.06121887 0.00552488
v -0.03048087 0.05685083 -0.01399975
v 0.00256161 0.06233386 0.00552955
v -0.01598351 0.05858106 0.01367395
v -0.00898071 0.05634029 0.01487735
v 0.00421197 0.04438873 -0.01376790
v 0.00369745 0.06020444 -0.01391432
v 0.00236644 0.05859783 -0.01651509
v -0.04738465 0.03890044 0.01389070
v -0.03864038 0.04686864 0.01486036
v -0.01993209 0.03684335 0.00241335
v 0.00402902 0.04320692 -0.01207834
v -0.03140968 0.03607678 -0.01086438
v -0.05134103 0.03882490 0.01039764
v 0.00791843 0.04201500 0.01321466
v -0.03112593 0.04269826 -0.01788934
v -0.03134507 0.03919643 -0.01582477
v -0.03467012 0.05218128 0.01385055
v 0.00171730 0.05303054 -0.01867681
v -0.02658305 0.05527149 -0.01748222
v -0.00999260 0.05909256 -0.01670386
v -0.01912549 0.05908966 -0.01572578
v -0.01597663 0.06125735 -0.01280330
v -0.00672508 0.06223249 -0.01269901
v -0.01086371 0.06230939 0.00018959
v -0.02519835 0.05796820 -0.01561258
v -0.02223266 0.05997746 -0.01207795
v -0.03449354 0.05499979 0.00867644
v -0.05106214 0.04064880 0.00843181
v 0.00380622 0.06135996 0.01029906
v -0.02966262 0.05507481 0.01377989
v -0.01611533 0.06116426 0.00956932
vn 0.62485255 0.27491109 0.73074153
vn 0.72057460 -0.66243850 0.20481086
vn 0.64751330 0.27343173 -0.71130979
vn -0.51217962 0.42012129 -0.74911290
vn -0.68236060 -0.38936914 0.61868868
vn -0.07972658 0.98306109 -0.16502901
vn 0.72078420 0.57547259 0.38639544
vn 0.03669833 -0.28550707 0.95767371
vn -0.20714148 -0.83151860 -0.51543110
vn -0.04419654 0.70573274 -0.70709827
vn -0.37308570 0.88660880 0.27337136
vn 0.64573425 -0.28645107 -0.70779450
vn 0.53338861 0.82865905 -0.16976682
vn 0.00900171 -0.97514716 0.22137519
vn 0.14037684 -0.00301024 0.99009357
vn -0.95832858 -0.27583620 -0.07430160
vn -0.05207084 0.16893142 -0.98425139
vn -0.22543283 0.88360000 -0.41040356
vn -0.01743806 0.94474674 0.32733700
vn -0.18608757 0.32957639 0.92560835
vn 0.60343579 -0.76985809 -0.20780705
vn 0.65762391 0.57826884 -0.48284153
vn -0.20752743 -0.50305811 0.83896657
vn 0.07316926 -0.80968669 0.58228319
vn -0.07270374 -0.97989972 -0.18577059
vn 0.11233000 -0.38493686 0.91608165
vn 0.74234697 -0.03702581 0.66899183
vn -0.40336998 -0.33677035 -0.85081043
vn -0.69190932 0.69420937 0.19833014
vn 0.00117855 0.27151927 -0.96243228
vn -0.08561669 0.53611618 -0.83979118
vn -0.08037589 0.86493730 -0.49540205
vn -0.22720507 0.97215871 0.05731754
vn -0.53676079 0.79845405 -0.27268843
vn 0.26623814 0.96328661 0.03458560
vn -0.09519098 0.63321658 0.76809859
vn 0.00904605 0.28227028 0.95929227
vn 0.68487441 -0.53063924 -0.49936863
vn 0.60638297 0.72172800 -0.33377896
vn 0.11506780 0.63858539 -0.76089953
vn -0.43739663 -0.41339186 0.79861841
vn -0.29878616 0.29929210 0.90617386
vn 0.14028214 -0.98981796 0.02411073
vn 0.53495312 -0.75184690 -0.38542366
vn -0.16169197 -0.90812579 -0.38621658
vn -0.82978784 -0.39865926 0.39054184
vn 0.63509442 -0.37325442 0.67626638
vn -0.39739428 -0.09329360 -0.91289325
vn -0.28646862 -0.64818340 -0.70554519
vn -0.46999534 0.62428923 0.62399306
vn 0.18948569 0.02509434 -0.98156276
vn -0.14931390 0.36014372 -0.92087017
vn 0.00898741 0.63492809 -0.77251896
vn -0.12725350 0.77187482 -0.62290914
vn -0.16430875 0.95516509 -0.24629714
vn 0.03257008 0.93996703 -0.33970749
vn -0.08150467 0.99658224 0.01344706
vn -0.23341567 0.76916665 -0.59489477
vn -0.27253483 0.95553738 -0.11257480
vn -0.53494380 0.82906022 0.16277062
vn -0.82227849 0.56901819 0.00874007
vn 0.20784732 0.90344774 0.37494222
vn -0.24697087 0.66270684 0.70698305
vn -0.14930744 0.93676141 0.31652070
f 7//7 1//1 2//2
f 12//12 7//7 2//2
f 12//12 3//3 7//7
f 22//22 7//7 3//3
f 24//24 14//14 2//2
f 24//24 23//23 14//14
f 24//24 8//8 23//23
f 25//25 14//14 5//5
f 26//26 15//15 8//8
f 26//26 8//8 24//24
f 27//27 2//2 1//1
f 27//27 1//1 15//15
f 31//31 30//30 17//17
f 35//35 7//7 13//13
f 36//36 1//1 7//7
f 37//37 15//15 1//1
f 37//37 36//36 20//20
f 37//37 1//1 36//36
f 37//37 20//20 8//8
f 37//37 8//8 15//15
f 38//38 12//12 2//2
f 38//38 2//2 21//21
f 39//39 13//13 7//7
f 39//39 7//7 22//22
f 40//40 22//22 3//3
f 41//41 5//5 14//14
f 41//41 14//14 23//23
f 42//42 23//23 8//8
f 42//42 8//8 20//20
f 42//42 41//41 23//23
f 42//42 5//5 41//41
f 43//43 2//2 14//14
f 43//43 14//14 25//25
f 43//43 25//25 21//21
f 43//43 21//21 2//2
f 44//44 21//21 25//25
f 44//44 38//38 21//21
f 44//44 9//9 38//38
f 45//45 25//25 16//16
f 45//45 16//16 9//9
f 45//45 44//44 25//25
f 45//45 9//9 44//44
f 46//46 25//25 5//5
f 46//46 16//16 25//25
f 46//46 5//5 29//29
f 47//47 26//26 24//24
f 47//47 24//24 2//2
f 47//47 2//2 27//27
f 47//47 27//27 15//15
f 47//47 15//15 26//26
f 48//48 28//28 16//16
f 48//48 16//16 4//4
f 48//48 12//12 28//28
f 49//49 9//9 16//16
f 49//49 16//16 28//28
f 49//49 38//38 9//9
f 49//49 28//28 12//12
f 49//49 12//12 38//38
f 50//50 42//42 20//20
f 50//50 29//29 5//5
f 50//50 5//5 42//42
f 51//51 30//30 3//3
f 51//51 3//3 12//12
f 51//51 12//12 48//48
f 51//51 48//48 17//17
f 51//51 17//17 30//30
f 52//52 31//31 17//17
f 52//52 48//48 4//4
f 52//52 17//17 48//48
f 53//53 31//31 10//10
f 53//53 30//30 31//31
f 53//53 40//40 3//3
f 53//53 3//3 30//30
f 54//54 10//10 31//31
f 54//54 32//32 10//10
f 54//54 18//18 32//32
f 55//55 32//32 18//18
f 55//55 6//6 32//32
f 56//56 32//32 6//6
f 56//56 22//22 40//40
f 56//56 40//40 53//53
f 56//56 53//53 10//10
f 56//56 10//10 32//32
f 56//56 39//39 22//22
f 56//56 13//13 39//39
f 56//56 35//35 13//13
f 56//56 6//6 35//35
f 57//57 55//55 33//33
f 57//57 6//6 55//55
f 57//57 35//35 6//6
f 57//57 19//19 35//35
f 58//58 34//34 18//18
f 58//58 4//4 34//34
f 58//58 18//18 54//54
f 58//58 54//54 31//31
f 58//58 52//52 4//4
f 58//58 31//31 52//52
f 59//59 18//18 34//34
f 59//59 55//55 18//18
f 59//59 33//33 55//55
f 59//59 34//34 11//11
f 59//59 11//11 33//33
f 60//60 34//34 29//29
f 60//60 11//11 34//34
f 60//60 50//50 11//11
f 60//60 29//29 50//50
f 61//61 34//34 4//4
f 61//61 4//4 16//16
f 61//61 29//29 34//34
f 61//61 46//46 29//29
f 61//61 16//16 46//46
f 62//62 35//35 19//19
f 62//62 7//7 35//35
f 62//62 36//36 7//7
f 62//62 19//19 36//36
f 63//63 20//20 36//36
f 63//63 50//50 20//20
f 63//63 11//11 50//50
f 64//64 33//33 11//11
f 64//64 63//63 36//36
f 64//64 11//11 63//63
f 64//64 36//36 19//19
f 64//64 57//57 33//33
f 64//64 19//19 57//57

