# https://github.com/mikedh/trimesh
v -0.03965191 -0.03053489 0.02047250
v -0.03966418 -0.03808375 0.01444281
v -0.03893354 -0.03152720 -0.02072688
v -0.04689204 -0.03859442 -0.02257024
v -0.05682370 -0.03890236 0.01793642
v -0.04054651 -0.03634009 -0.02304062
v -0.03890572 -0.02725420 0.01560094
v -0.04712485 -0.03816548 0.02284805
v -0.04824432 -0.03883404 -0.02216716
v -0.03942258 -0.03252035 -0.02143613
v -0.03903391 -0.02835894 0.01830781
v -0.05355937 -0.03672739 -0.01554378
v -0.04972193 -0.03867904 0.02212441
v -0.05083138 -0.03665842 -0.01907711
v -0.04811443 -0.03778586 -0.02163033
v -0.03937161 -0.02960398 0.01979055
v -0.05397059 -0.03535242 0.01558549
v -0.03904035 -0.02850920 -0.01558090
v -0.05555779 -0.03894627 -0.01702365
v -0.05541657 -0.03891980 0.01927565
v -0.04652731 -0.03577931 0.02214944
v -0.05083913 -0.03800570 -0.02045670
v -0.04313098 -0.02943327 0.01562760
v -0.05082029 -0.03509011 0.01872849
v -0.03897920 -0.02709072 0.00091714
v -0.05074296 -0.03526017 -0.01690931
v -0.05717043 -0.03887425 -0.00813391
v -0.04953490 -0.03736793 0.02164256
v -0.04043112 -0.03204531 -0.02043382
v -0.05126969 -0.03882763 -0.02088711
v -0.05244750 -0.03671923 -0.01792590
v -0.05062616 -0.03401599 0.01684552
v -0.04020248 -0.02780321 0.01542193
v -0.04190188 -0.03055946 0.01939494
v -0.05615074 -0.03793308 0.01794127
v -0.05374227 -0.03543158 0.00558526
v -0.03912461 -0.03051538 -0.01957198
v -0.05489408 -0.03826995 -0.01678764
v -0.05216363 -0.03534246 0.01790472
v -0.04591797 -0.03069510 0.00998751
v -0.04801517 -0.03603384 0.02161430
v -0.05643743 -0.03822122 -0.00797417
v -0.04172787 -0.03078497 -0.01790411
v -0.04627591 -0.03095090 0.01404594
v -0.05063446 -0.03662988 0.02057203
v -0.05514869 -0.03808187 0.01888647
vn 0.51615417 0.20875270 0.83066671
vn 0.70170030 -0.69397780 0.16128080
vn 0.62922399 0.42650055 -0.64974953
vn -0.03673473 -0.49717779 -0.86687070
vn -0.85740713 -0.39873296 0.32536908
vn 0.48454892 -0.34658993 -0.80317356
vn 0.53681454 0.82326107 0.18458429
vn 0.09741432 -0.47457761 0.87480657
vn -0.22603484 -0.54232910 -0.80918935
vn 0.29934640 0.41100513 -0.86108450
vn 0.54159672 0.70104632 0.46390413
vn -0.58830613 0.79382332 -0.15407931
vn -0.26154641 -0.56190807 0.78476289
vn -0.41861394 0.68537911 -0.59583374
vn -0.33737065 0.53786181 -0.77258379
vn 0.53267526 0.51733982 0.66978846
vn -0.59997500 0.78544177 0.15202377
vn 0.45873440 0.86584652 -0.19968112
vn -0.84421856 -0.34817201 -0.40751843
vn -0.48881292 -0.49493203 0.71840394
vn -0.20569932 0.46536793 0.86088354
vn -0.42322375 0.60970561 -0.67017962
vn -0.46324942 0.85316806 0.23980042
vn -0.42655619 0.72435439 0.54162767
vn 0.48007502 0.87600232 -0.04634561
vn -0.48217884 0.84031137 -0.24775061
vn -0.94381795 -0.31891994 -0.08658949
vn -0.39485146 0.41865977 0.81781191
vn -0.37111928 0.66285535 -0.65030245
vn -0.50026317 -0.39854472 -0.76869947
vn -0.53784707 0.70689970 -0.45936188
vn -0.45071305 0.82110708 0.35020124
vn -0.43274637 0.88560964 0.16860055
vn -0.39378973 0.72920399 0.55963487
vn -0.68945473 0.62330809 0.36897045
vn -0.58348895 0.81149575 -0.03186364
vn 0.28766983 0.80014422 -0.52632243
vn -0.63988280 0.72536883 -0.25375196
vn -0.46351280 0.76786540 0.44219748
vn -0.48455729 0.87471102 -0.00921224
vn -0.38622579 0.57183610 0.72376316
vn -0.62385668 0.77944188 -0.05721192
vn -0.41790700 0.80769111 -0.41591924
vn -0.47902715 0.87602737 0.05575865
vn -0.42655177 0.58363937 0.69095489
vn -0.47914912 0.57145187 0.66622735
f 6//6 3//3 2//2
f 6//6 2//2 4//4
f 7//7 2//2 3//3
f 8//8 2//2 1//1
f 9//9 4//4 2//2
f 10//10 6//6 4//4
f 10//10 3//3 6//6
f 11//11 2//2 7//7
f 13//13 2//2 8//8
f 13//13 9//9 2//2
f 15//15 10//10 4//4
f 15//15 4//4 9//9
f 16//16 1//1 2//2
f 16//16 2//2 11//11
f 20//20 9//9 13//13
f 20//20 19//19 9//9
f 20//20 5//5 19//19
f 21//21 13//13 8//8
f 21//21 8//8 1//1
f 21//21 1//1 16//16
f 22//22 10//10 15//15
f 25//25 7//7 3//3
f 25//25 3//3 18//18
f 25//25 18//18 12//12
f 26//26 12//12 18//18
f 27//27 12//12 19//19
f 27//27 19//19 5//5
f 28//28 20//20 13//13
f 28//28 13//13 21//21
f 29//29 22//22 14//14
f 29//29 3//3 10//10
f 29//29 10//10 22//22
f 30//30 22//22 15//15
f 30//30 15//15 9//9
f 30//30 9//9 19//19
f 31//31 14//14 22//22
f 31//31 12//12 26//26
f 31//31 30//30 19//19
f 31//31 22//22 30//30
f 32//32 23//23 17//17
f 32//32 11//11 23//23
f 33//33 23//23 11//11
f 33//33 11//11 7//7
f 33//33 7//7 25//25
f 33//33 17//17 23//23
f 34//34 16//16 11//11
f 35//35 5//5 20//20
f 35//35 27//27 5//5
f 35//35 17//17 27//27
f 36//36 25//25 12//12
f 36//36 27//27 17//17
f 37//37 18//18 3//3
f 37//37 3//3 29//29
f 37//37 29//29 14//14
f 37//37 14//14 31//31
f 38//38 31//31 19//19
f 38//38 19//19 12//12
f 38//38 12//12 31//31
f 39//39 11//11 32//32
f 39//39 34//34 11//11
f 39//39 24//24 34//34
f 39//39 32//32 17//17
f 39//39 35//35 24//24
f 39//39 17//17 35//35
f 40//40 33//33 25//25
f 40//40 36//36 17//17
f 40//40 25//25 36//36
f 41//41 34//34 24//24
f 41//41 21//21 16//16
f 41//41 16//16 34//34
f 41//41 28//28 21//21
f 42//42 36//36 12//12
f 42//42 12//12 27//27
f 42//42 27//27 36//36
f 43//43 37//37 31//31
f 43//43 31//31 26//26
f 43//43 26//26 18//18
f 43//43 18//18 37//37
f 44//44 40//40 17//17
f 44//44 17//17 33//33
f 44//44 33//33 40//40
f 45//45 41//41 24//24
f 45//45 20//20 28//28
f 45//45 28//28 41//41
f 46//46 45//45 24//24
f 46//46 24//24 35//35
f 46//46 35//35 20//20
f 46//46 20//20 45//45

