# https://github.com/mikedh/trimesh
v 0.02225987 0.01276020 0.02227249
v 0.02686588 0.01289461 0.02127577
v -0.00388696 0.03182990 0.01551886
v -0.00369490 0.02486792 -0.02352305
v 0.00721318 0.01192399 -0.02333585
v 0.02613923 0.01485762 -0.01661242
v -0.00387493 0.02892525 0.02056300
v 0.02665249 0.01118215 -0.02065004
v 0.02629990 0.01613884 0.01129796
v -0.00401766 0.03024548 -0.01862226
v -0.00370957 0.02624118 0.02203207
v 0.02654124 0.01500418 0.01982918
v 0.01487167 0.01189175 0.02339168
v 0.02063919 0.01143219 -0.02202678
v 0.02788099 0.01439126 0.00206984
v 0.00789434 0.02537939 -0.01102020
v -0.00397654 0.03197643 0.00390733
v -0.00388079 0.02898892 -0.02096015
v 0.01172018 0.02000038 0.02151227
v -0.00291912 0.01223699 0.02209644
v -0.00220325 0.02997733 0.01901630
v 0.00931961 0.02521903 0.01559684
v 0.00670307 0.01875966 -0.02294793
v 0.02674768 0.01390963 0.02057335
v 0.01825471 0.01922181 -0.01683880
v -0.00391506 0.03033236 0.01938768
v -0.00263023 0.02967133 -0.01846612
v -0.00388323 0.02755876 -0.02212572
v 0.02619430 0.01354292 -0.01906666
v -0.00197078 0.02599943 0.02172543
v -0.00291945 0.01260157 -0.02296163
v -0.00248916 0.02866138 0.02023241
v 0.02517438 0.01615403 0.01690131
v 0.00041616 0.02960925 0.01690232
v -0.00260556 0.03131224 0.01534219
v 0.01240137 0.02370329 0.01121297
v 0.00910711 0.02382390 -0.01769579
v -0.00274817 0.02857530 -0.02074895
v -0.00228160 0.02462704 -0.02324544
v -0.00247691 0.02720437 -0.02177340
v 0.01220315 0.02363460 0.00413251
v 0.00764830 0.02377131 -0.01921922
v 0.02619595 0.01203864 -0.02027060
vn 0.20394550 -0.12090315 0.97148786
vn 0.67273181 -0.36250101 0.64499994
vn -0.50577325 0.85030783 0.14549923
vn -0.58743328 0.20211138 -0.78362819
vn 0.00935817 -0.68172594 -0.73154779
vn 0.75366774 0.62934568 -0.18949658
vn -0.59663567 0.44637490 0.66691478
vn 0.65844609 -0.43489720 -0.61425823
vn 0.67443533 0.73753222 0.03439797
vn -0.52991037 0.81365023 -0.23909893
vn -0.60715921 0.23201510 0.75995177
vn 0.69538839 0.60476112 0.38819967
vn 0.07962858 -0.61562522 0.78400567
vn 0.14431865 -0.57595651 -0.80464044
vn 0.97624624 0.21619068 -0.01431350
vn 0.45536347 0.88727188 -0.07343519
vn -0.52229547 0.85246688 -0.02253145
vn -0.45646390 0.68749665 -0.56479117
vn 0.22748029 0.46307183 0.85663131
vn -0.58437995 -0.58705020 0.56024293
vn 0.32813736 0.78382844 0.52719906
vn 0.46274920 0.87896606 0.11524689
vn 0.12390383 0.11625956 -0.98546007
vn 0.75140370 0.44171320 0.49018561
vn 0.46752317 0.84580697 -0.25696820
vn -0.55351557 0.66815527 0.49718111
vn 0.41405656 0.87630959 -0.24624920
vn -0.57921503 0.43715164 -0.68804680
vn 0.70900714 0.54949738 -0.44199718
vn 0.21948640 0.47289700 0.85334293
vn -0.58743342 -0.58505105 -0.55913974
vn 0.29363514 0.60663265 0.73876602
vn 0.49478641 0.86285109 0.10331702
vn 0.42805786 0.87146806 0.23939486
vn 0.41040089 0.90657267 0.09847386
vn 0.46934323 0.88301110 0.00288746
vn 0.44929872 0.84593081 -0.28728336
vn 0.38787866 0.72642786 -0.56732064
vn 0.26151621 0.40978497 -0.87389104
vn 0.34108108 0.57814235 -0.74122541
vn 0.47119325 0.88157028 -0.02847406
vn 0.42788991 0.77553326 -0.46417496
vn 0.38632644 0.54922862 -0.74101269
f 13//13 8//8 2//2
f 13//13 2//2 1//1
f 13//13 1//1 11//11
f 14//14 8//8 5//5
f 14//14 4//4 8//8
f 15//15 8//8 6//6
f 15//15 6//6 9//9
f 15//15 2//2 8//8
f 15//15 9//9 12//12
f 16//16 9//9 6//6
f 19//19 11//11 1//1
f 19//19 1//1 2//2
f 20//20 13//13 11//11
f 20//20 5//5 8//8
f 20//20 8//8 13//13
f 20//20 11//11 7//7
f 23//23 14//14 5//5
f 23//23 5//5 4//4
f 23//23 4//4 14//14
f 24//24 15//15 12//12
f 24//24 2//2 15//15
f 24//24 12//12 7//7
f 24//24 19//19 2//2
f 24//24 7//7 19//19
f 25//25 16//16 6//6
f 26//26 17//17 10//10
f 26//26 10//10 7//7
f 26//26 3//3 17//17
f 26//26 21//21 3//3
f 26//26 7//7 21//21
f 27//27 17//17 16//16
f 27//27 10//10 17//17
f 28//28 10//10 18//18
f 28//28 20//20 7//7
f 28//28 7//7 10//10
f 29//29 6//6 8//8
f 29//29 25//25 6//6
f 30//30 19//19 7//7
f 30//30 7//7 11//11
f 30//30 11//11 19//19
f 31//31 4//4 5//5
f 31//31 5//5 20//20
f 31//31 28//28 4//4
f 31//31 20//20 28//28
f 32//32 21//21 7//7
f 32//32 7//7 12//12
f 32//32 12//12 21//21
f 33//33 22//22 12//12
f 33//33 12//12 9//9
f 33//33 9//9 22//22
f 34//34 21//21 12//12
f 34//34 12//12 22//22
f 34//34 3//3 21//21
f 35//35 17//17 3//3
f 35//35 34//34 22//22
f 35//35 3//3 34//34
f 36//36 22//22 9//9
f 36//36 35//35 22//22
f 36//36 17//17 35//35
f 37//37 27//27 16//16
f 37//37 16//16 25//25
f 37//37 25//25 29//29
f 38//38 18//18 10//10
f 38//38 10//10 27//27
f 38//38 27//27 37//37
f 39//39 28//28 8//8
f 39//39 8//8 4//4
f 39//39 4//4 28//28
f 40//40 28//28 18//18
f 40//40 38//38 29//29
f 40//40 18//18 38//38
f 41//41 36//36 9//9
f 41//41 9//9 16//16
f 41//41 16//16 17//17
f 41//41 17//17 36//36
f 42//42 38//38 37//37
f 42//42 37//37 29//29
f 42//42 29//29 38//38
f 43//43 40//40 29//29
f 43//43 29//29 8//8
f 43//43 8//8 28//28
f 43//43 28//28 40//40

