# https://github.com/mikedh/trimesh
v -0.04619027 0.04765155 0.01956882
v -0.04426582 0.04802362 0.01867576
v -0.05376037 0.05589911 0.01363320
v -0.06004551 0.04843713 -0.02513675
v -0.04442815 0.04776178 -0.02421700
v -0.06381434 0.04825659 -0.00221518
v -0.04934094 0.05262712 0.01614691
v -0.05405662 0.05558827 -0.02099836
v -0.05306652 0.04782032 0.01933614
v -0.06245030 0.04816988 -0.02224317
v -0.04648602 0.04877786 0.01897706
v -0.04666547 0.05395395 0.00397186
v -0.05253007 0.05136730 -0.02492981
v -0.05987687 0.05585541 -0.00206733
v -0.06269530 0.05318312 -0.00206565
v -0.05315868 0.05172714 0.01743727
v -0.04763896 0.04766343 -0.02539418
v -0.05969683 0.05425620 -0.02107530
v -0.04492307 0.05005794 0.01735536
v -0.04657900 0.05250966 -0.01975905
v -0.05097031 0.05548566 -0.00055523
v -0.05091768 0.05268322 -0.02330629
v -0.06208276 0.05215659 -0.01715169
v -0.04930726 0.05145146 0.01727265
v -0.05296978 0.04914965 0.01884900
v -0.04937530 0.05020434 -0.02459041
v -0.06040812 0.05069526 -0.02365985
v -0.05717473 0.05160876 -0.02478604
v -0.05833882 0.05556262 -0.02013641
v -0.06087028 0.05428335 -0.01121442
v -0.04500832 0.05251684 0.01367906
v -0.05247445 0.05538292 -0.01877466
v -0.05099685 0.05556807 0.01255840
v -0.04520352 0.05112853 -0.02103934
v -0.06202363 0.05053932 -0.02126866
v -0.04816991 0.05086715 -0.02364003
v -0.06220041 0.04895824 -0.02260299
v -0.05862293 0.05284993 -0.02323711
v -0.05968733 0.05009692 -0.02486754
v -0.06071354 0.05318972 -0.02089156
v -0.04482696 0.05107401 0.01616762
v -0.04993874 0.05413569 -0.01970555
v -0.04659080 0.05393401 0.01123450
v -0.04462951 0.04881510 -0.02354945
v -0.04525762 0.05239763 -0.00500503
v -0.05819638 0.05433269 -0.02210672
v -0.04805329 0.05390990 0.01376255
v -0.05616605 0.05553699 -0.02104163
v -0.05236014 0.05556477 0.01343273
vn 0.21205499 -0.48783296 0.84678904
vn 0.75814655 -0.30988593 0.57374604
vn -0.34463943 0.81965522 0.45759041
vn -0.38995113 -0.47149472 -0.79096829
vn 0.70735744 -0.39904598 -0.58344474
vn -0.81818392 -0.55359748 0.15525755
vn 0.19423268 0.73354482 0.65129537
vn 0.13498352 0.91090626 -0.38990926
vn -0.44587942 -0.47710765 0.75733733
vn -0.76791192 -0.58505145 -0.26081811
vn 0.15698489 0.55463031 0.81715419
vn 0.53150101 0.84692737 -0.01485633
vn 0.08679307 0.44026957 -0.89366082
vn -0.40372489 0.91264499 0.06391668
vn -0.87147850 0.46154377 0.16583898
vn -0.45711547 0.49517253 0.73881636
vn 0.20645569 -0.51946811 -0.82917365
vn -0.60658271 0.69765825 -0.38122223
vn 0.43212154 0.63281608 0.64250664
vn 0.52188287 0.82679665 -0.20987038
vn 0.23625844 0.97149773 -0.01934176
vn 0.30029939 0.71532619 -0.63097443
vn -0.89447607 0.43725786 -0.09337092
vn 0.12838007 0.64923498 0.74967493
vn -0.39092171 0.38701580 0.83510418
vn 0.28442558 0.50725441 -0.81350787
vn -0.66385911 0.47293589 -0.57932956
vn -0.10231261 0.45317549 -0.88553041
vn -0.33728649 0.91474987 -0.22241964
vn -0.69685207 0.71371817 -0.07073589
vn 0.77216251 0.60584602 0.19161333
vn 0.30035478 0.95066688 -0.07758537
vn 0.26531032 0.94368489 0.19765947
vn 0.74949567 0.60576634 -0.26702694
vn -0.89732559 0.36044301 -0.25473048
vn 0.36722463 0.64070136 -0.67427578
vn -0.85907861 0.21237809 -0.46570322
vn -0.38627915 0.60520517 -0.69607121
vn -0.41782019 0.35422213 -0.83663192
vn -0.76004235 0.56913237 -0.31372594
vn 0.70582096 0.58789358 0.39521881
vn 0.41800990 0.88711032 -0.19571155
vn 0.50266720 0.86114353 0.07587819
vn 0.76073550 0.48412566 -0.43232378
vn 0.82921119 0.55802916 -0.03181588
vn -0.26270938 0.71712272 -0.64553759
vn 0.34308866 0.84502309 0.41015382
vn -0.05051574 0.89840712 -0.43624855
vn 0.27061205 0.83659071 0.47632457
f 5//5 2//2 1//1
f 10//10 9//9 6//6
f 11//11 1//1 2//2
f 14//14 3//3 8//8
f 15//15 6//6 9//9
f 15//15 3//3 14//14
f 16//16 15//15 9//9
f 16//16 3//3 15//15
f 17//17 10//10 4//4
f 17//17 5//5 1//1
f 17//17 1//1 9//9
f 17//17 9//9 10//10
f 17//17 4//4 13//13
f 19//19 11//11 2//2
f 21//21 8//8 3//3
f 22//22 13//13 8//8
f 23//23 10//10 6//6
f 23//23 6//6 15//15
f 24//24 7//7 3//3
f 24//24 3//3 16//16
f 24//24 16//16 11//11
f 24//24 19//19 7//7
f 24//24 11//11 19//19
f 25//25 16//16 9//9
f 25//25 9//9 1//1
f 25//25 1//1 11//11
f 25//25 11//11 16//16
f 26//26 17//17 13//13
f 26//26 5//5 17//17
f 28//28 8//8 13//13
f 28//28 13//13 4//4
f 29//29 14//14 8//8
f 30//30 15//15 14//14
f 30//30 29//29 18//18
f 30//30 14//14 29//29
f 30//30 23//23 15//15
f 31//31 2//2 5//5
f 32//32 21//21 12//12
f 32//32 8//8 21//21
f 33//33 21//21 3//3
f 33//33 12//12 21//21
f 34//34 22//22 8//8
f 34//34 8//8 20//20
f 35//35 10//10 23//23
f 36//36 5//5 26//26
f 36//36 22//22 34//34
f 36//36 26//26 13//13
f 36//36 13//13 22//22
f 37//37 4//4 10//10
f 37//37 10//10 35//35
f 39//39 28//28 4//4
f 39//39 38//38 28//28
f 39//39 27//27 18//18
f 39//39 18//18 38//38
f 39//39 37//37 27//27
f 39//39 4//4 37//37
f 40//40 30//30 18//18
f 40//40 23//23 30//30
f 40//40 35//35 23//23
f 40//40 18//18 27//27
f 40//40 37//37 35//35
f 40//40 27//27 37//37
f 41//41 19//19 2//2
f 41//41 2//2 31//31
f 41//41 7//7 19//19
f 42//42 20//20 8//8
f 42//42 8//8 32//32
f 42//42 32//32 12//12
f 42//42 12//12 20//20
f 43//43 31//31 12//12
f 43//43 12//12 33//33
f 44//44 31//31 5//5
f 44//44 36//36 34//34
f 44//44 5//5 36//36
f 45//45 34//34 20//20
f 45//45 20//20 12//12
f 45//45 12//12 31//31
f 45//45 44//44 34//34
f 45//45 31//31 44//44
f 46//46 38//38 18//18
f 46//46 18//18 29//29
f 46//46 28//28 38//38
f 47//47 41//41 31//31
f 47//47 3//3 7//7
f 47//47 7//7 41//41
f 47//47 43//43 33//33
f 47//47 31//31 43//43
f 48//48 46//46 29//29
f 48//48 29//29 8//8
f 48//48 8//8 28//28
f 48//48 28//28 46//46
f 49//49 47//47 33//33
f 49//49 33//33 3//3
f 49//49 3//3 47//47

