# https://github.com/mikedh/trimesh
v -0.00337324 -0.01434558 0.02352219
v -0.00343539 -0.02269454 0.02343465
v -0.00376768 -0.03135593 -0.01828142
v -0.04854422 -0.04183921 -0.02334074
v -0.05984069 -0.05381790 0.01901505
v -0.00327586 -0.00790205 -0.00980162
v -0.04540261 -0.03971201 0.02328665
v -0.04227589 -0.05438066 0.01105530
v -0.01169334 -0.01508537 -0.01959620
v -0.00246249 -0.00763501 0.01820651
v -0.04331220 -0.05078021 0.02037645
v -0.04221709 -0.03543162 0.02339708
v -0.00442504 -0.03166988 0.01423824
v -0.05501852 -0.06046801 -0.01787422
v -0.02300101 -0.02740915 -0.02337879
v -0.05769997 -0.03942006 -0.00820356
v -0.00301697 -0.01152204 0.02210781
v -0.04540911 -0.04391898 0.02321215
v -0.05260334 -0.05874235 0.01495152
v -0.05660919 -0.04186916 0.02008336
v -0.04071173 -0.05606600 -0.01317394
v -0.00422333 -0.03036479 0.01785853
v -0.03987208 -0.04486666 -0.02308226
v -0.00958908 -0.03145122 -0.02071193
v -0.03147941 -0.03020984 -0.02331250
v -0.03716524 -0.02773482 -0.01648103
v -0.06072006 -0.05578591 -0.00659495
v -0.05915292 -0.04750869 -0.01773708
v -0.02805809 -0.02018970 0.01113637
v -0.01435620 -0.01669313 0.02338485
v -0.05841518 -0.05256692 0.02041002
v -0.03997311 -0.04349358 0.02321505
v -0.06013120 -0.05896055 0.01141189
v -0.05282610 -0.04132878 0.02173873
v -0.06044399 -0.04336322 0.01527451
v -0.03906543 -0.05288020 0.00962869
v -0.00580566 -0.03481346 -0.00859680
v -0.04209039 -0.05597594 -0.01604687
v -0.05267095 -0.06047366 -0.00390920
v -0.05122860 -0.05892977 0.00941503
v -0.01023599 -0.03087694 0.02189148
v -0.02092313 -0.04065299 0.01787225
v -0.05295442 -0.05399256 -0.02168355
v -0.00542204 -0.03117763 -0.01938816
v -0.02330983 -0.03307695 -0.02302811
v -0.02699601 -0.02828320 -0.02323605
v -0.01295159 -0.01411690 -0.01670739
v -0.04626641 -0.03510555 -0.02025593
v -0.05913526 -0.05679140 -0.01633446
v -0.00853605 -0.00963566 0.00814973
v -0.02800251 -0.02018193 0.00256381
v -0.01039199 -0.01513408 0.02342813
v -0.04629420 -0.03339887 0.02044668
v -0.05323106 -0.04679987 0.02189604
v -0.05460536 -0.05786458 0.01740895
v -0.05904109 -0.04453564 0.01947835
v -0.04370879 -0.03696486 0.02331689
v -0.06230963 -0.05189073 0.01167677
v -0.05901072 -0.04193395 -0.01248054
v -0.04378945 -0.05590154 0.00516790
v -0.00431092 -0.03339179 -0.01541359
v -0.01372346 -0.03930243 -0.00555800
v -0.05249768 -0.06078498 -0.01681434
v -0.05596838 -0.06055838 0.00070892
vn 0.55407155 0.17433467 0.81400991
vn 0.68981440 -0.16843201 0.70412126
vn 0.80545023 -0.26894635 -0.52812667
vn -0.33441161 0.21292049 -0.91805977
vn -0.70669385 -0.36713055 0.60481316
vn 0.50122957 0.80776387 -0.31030057
vn -0.13094735 0.04391763 0.99041609
vn 0.45633728 -0.86999594 0.18671728
vn 0.09096544 0.58553496 -0.80552722
vn 0.50479158 0.80535055 0.31079888
vn 0.25059870 -0.62071278 0.74291045
vn -0.18984347 0.24407271 0.95099315
vn 0.79765092 -0.59207424 0.11489603
vn -0.29344667 -0.77861831 -0.55465537
vn 0.03479013 0.15797661 -0.98682979
vn -0.70320998 0.70634668 -0.08105611
vn 0.57174475 0.47206010 0.67101953
vn -0.04323872 -0.16209137 0.98582798
vn 0.21277702 -0.92767406 0.30683348
vn -0.57744638 0.50817204 0.63899676
vn 0.46396346 -0.88207016 -0.08179329
vn 0.79654692 -0.50756245 0.32847125
vn 0.15742155 -0.30826887 -0.93818376
vn 0.27914258 -0.20754203 -0.93755305
vn -0.19837305 0.35542839 -0.91341053
vn -0.49029752 0.82765086 -0.27313439
vn -0.95783316 -0.27151264 -0.09400278
vn -0.82030762 0.16768758 -0.54678723
vn -0.50550795 0.85542221 0.11275878
vn -0.28192479 0.51053179 0.81232734
vn -0.36115403 -0.25360180 0.89735940
vn 0.09874610 -0.25129886 0.96285933
vn -0.61952494 -0.76231852 0.18724134
vn -0.34098394 0.24710357 0.90701145
vn -0.86218412 0.47019951 0.18854963
vn 0.48834155 -0.86216671 0.13487434
vn 0.64148067 -0.76676847 0.02384668
vn 0.40835864 -0.75839540 -0.50801539
vn 0.22846718 -0.97244327 0.04644181
vn 0.33465584 -0.93688449 0.10125674
vn 0.34236269 -0.52848130 0.77684960
vn 0.45324226 -0.78899851 0.41479248
vn -0.18067972 -0.31066711 -0.93318850
vn 0.45213328 -0.22152904 -0.86400254
vn 0.13738018 -0.14998861 -0.97909657
vn -0.13092522 0.34826941 -0.92820634
vn -0.41450725 0.85883811 -0.30096650
vn -0.49797623 0.66165792 -0.56056086
vn -0.83014151 -0.37227463 -0.41506225
vn -0.41102930 0.91141093 0.01962219
vn -0.50333896 0.86287050 -0.04587368
vn -0.16250882 0.42585737 0.89007662
vn -0.51306091 0.70720761 0.48644208
vn -0.21201576 -0.04229466 0.97635059
vn -0.03774712 -0.78047391 0.62404778
vn -0.72225368 0.24206126 0.64788576
vn -0.19126948 0.13126188 0.97272108
vn -0.99345985 -0.04580583 0.10459139
vn -0.83912318 0.47382297 -0.26714057
vn 0.44328481 -0.89150760 0.09334223
vn 0.76852513 -0.61664249 -0.17064926
vn 0.51244723 -0.85500137 0.07981536
vn 0.20498032 -0.90088836 -0.38260061
vn -0.13760728 -0.98979327 0.03706109
f 9//9 6//6 3//3
f 10//10 2//2 3//3
f 10//10 3//3 6//6
f 12//12 2//2 1//1
f 17//17 1//1 2//2
f 17//17 2//2 10//10
f 18//18 12//12 7//7
f 22//22 13//13 3//3
f 22//22 3//3 2//2
f 23//23 4//4 15//15
f 24//24 15//15 9//9
f 25//25 15//15 4//4
f 32//32 2//2 12//12
f 32//32 12//12 18//18
f 32//32 31//31 11//11
f 32//32 18//18 31//31
f 40//40 8//8 19//19
f 40//40 39//39 21//21
f 40//40 19//19 39//39
f 41//41 22//22 2//2
f 41//41 32//32 11//11
f 41//41 2//2 32//32
f 42//42 11//11 19//19
f 42//42 19//19 8//8
f 42//42 13//13 22//22
f 42//42 36//36 13//13
f 42//42 8//8 36//36
f 42//42 41//41 11//11
f 42//42 22//22 41//41
f 43//43 4//4 23//23
f 43//43 28//28 4//4
f 44//44 24//24 9//9
f 44//44 9//9 3//3
f 44//44 3//3 38//38
f 44//44 23//23 24//24
f 45//45 24//24 23//23
f 45//45 23//23 15//15
f 45//45 15//15 24//24
f 46//46 25//25 9//9
f 46//46 9//9 15//15
f 46//46 15//15 25//25
f 47//47 6//6 9//9
f 47//47 9//9 26//26
f 48//48 26//26 9//9
f 48//48 9//9 25//25
f 48//48 25//25 4//4
f 48//48 16//16 26//26
f 48//48 4//4 28//28
f 49//49 27//27 28//28
f 49//49 33//33 27//27
f 49//49 14//14 33//33
f 49//49 43//43 14//14
f 49//49 28//28 43//43
f 50//50 29//29 10//10
f 50//50 10//10 6//6
f 51//51 26//26 16//16
f 51//51 16//16 29//29
f 51//51 47//47 26//26
f 51//51 6//6 47//47
f 51//51 50//50 6//6
f 51//51 29//29 50//50
f 52//52 30//30 12//12
f 52//52 12//12 1//1
f 52//52 1//1 17//17
f 52//52 17//17 10//10
f 52//52 10//10 30//30
f 53//53 12//12 30//30
f 53//53 34//34 12//12
f 53//53 20//20 34//34
f 53//53 35//35 20//20
f 53//53 29//29 16//16
f 53//53 16//16 35//35
f 53//53 30//30 10//10
f 53//53 10//10 29//29
f 54//54 31//31 18//18
f 54//54 18//18 7//7
f 54//54 34//34 31//31
f 54//54 7//7 34//34
f 55//55 19//19 11//11
f 55//55 11//11 31//31
f 55//55 31//31 5//5
f 55//55 33//33 19//19
f 55//55 5//5 33//33
f 56//56 5//5 31//31
f 56//56 20//20 35//35
f 56//56 34//34 20//20
f 56//56 31//31 34//34
f 57//57 34//34 7//7
f 57//57 7//7 12//12
f 57//57 12//12 34//34
f 58//58 28//28 27//27
f 58//58 27//27 33//33
f 58//58 33//33 5//5
f 58//58 56//56 35//35
f 58//58 5//5 56//56
f 59//59 35//35 16//16
f 59//59 58//58 35//35
f 59//59 28//28 58//58
f 59//59 48//48 28//28
f 59//59 16//16 48//48
f 60//60 36//36 8//8
f 60//60 21//21 36//36
f 60//60 40//40 21//21
f 60//60 8//8 40//40
f 61//61 37//37 21//21
f 61//61 3//3 13//13
f 61//61 13//13 37//37
f 61//61 38//38 3//3
f 61//61 21//21 38//38
f 62//62 36//36 21//21
f 62//62 21//21 37//37
f 62//62 37//37 13//13
f 62//62 13//13 36//36
f 63//63 38//38 21//21
f 63//63 14//14 43//43
f 63//63 43//43 23//23
f 63//63 44//44 38//38
f 63//63 23//23 44//44
f 63//63 21//21 39//39
f 64//64 33//33 14//14
f 64//64 63//63 39//39
f 64//64 14//14 63//63
f 64//64 39//39 19//19
f 64//64 19//19 33//33

