# https://github.com/mikedh/trimesh
v 0.03598161 0.00553787 0.02328440
v 0.03621252 -0.00561406 0.02222858
v 0.03576047 0.00522009 -0.02186936
v 0.01479320 0.01181533 -0.02277226
v 0.01438659 -0.02059388 0.01413060
v 0.03566592 0.01321103 0.01444666
v 0.03616909 -0.00261710 -0.02165493
v 0.02234879 -0.00306531 0.02414139
v 0.03471190 0.01186544 -0.01647092
v 0.03629317 -0.00265986 0.02326453
v 0.03582068 0.01036163 -0.01886921
v 0.03588572 -0.01084683 -0.01649605
v 0.02223894 -0.00889193 0.02250636
v 0.01487158 0.01342224 0.01444281
v 0.02638866 0.01508254 0.00256964
v 0.03611525 -0.00662636 -0.02033521
v 0.03570270 0.01320763 0.01687735
v 0.03578406 0.01168285 -0.01131156
v 0.02339697 0.01086835 -0.02177420
v 0.02646797 0.01382796 -0.01829190
v 0.03586289 -0.00907411 0.01815193
v 0.01433280 -0.02188286 -0.01777184
v 0.02220183 -0.00593267 0.02349590
v 0.02680870 0.00844522 0.02365712
v 0.01413406 -0.02177260 0.00521335
v 0.01487158 0.01342224 0.00232375
v 0.02654124 0.01500418 0.01982918
v 0.02964669 0.01448534 0.01682568
v 0.03417123 0.00658302 -0.02162700
v 0.02933803 0.01324023 -0.01665180
v 0.03438279 -0.00767750 0.02062150
v 0.01567048 -0.02143030 -0.01755783
v 0.01453542 -0.01780063 -0.02027959
v 0.01412246 -0.02311004 -0.00999173
v 0.02674768 0.01390963 0.02057335
v 0.03550974 0.00911446 0.02164292
v 0.03432517 0.00906489 -0.02010167
v 0.01477867 -0.00606928 -0.02194600
v 0.01574267 -0.01745962 -0.02013586
v 0.01423536 -0.02311284 -0.01557092
v 0.03580194 -0.01060758 0.00220867
v 0.03541982 0.01215209 0.01898233
v 0.02950450 0.01327877 0.02047736
v 0.03123002 0.00818484 0.02316944
v 0.02489255 -0.00701386 -0.02152958
v 0.01554946 -0.02255376 -0.01543093
v 0.03394400 -0.01050903 0.01403882
v 0.03408120 0.01318011 0.01809299
v 0.03103140 0.01074183 0.02189160
v 0.03411919 -0.01203038 -0.00712897
v 0.01531028 -0.02248038 -0.01019523
v 0.03416414 -0.01222406 -0.01272634
vn 0.69963091 0.15068325 0.69843478
vn 0.70926742 -0.38357334 0.59144840
vn 0.65396342 0.14645060 -0.74221565
vn -0.57539235 0.51620135 -0.63439721
vn -0.49790613 -0.75249552 0.43109162
vn 0.66693131 0.74494655 -0.01603955
vn 0.70519822 -0.08945565 -0.70334427
vn -0.38137109 -0.03474271 0.92376893
vn 0.45453493 0.86949809 -0.19331600
vn 0.70697202 -0.10710983 0.69908372
vn 0.73741732 0.50890301 -0.44410970
vn 0.78454375 -0.54866103 -0.28889823
vn -0.12093503 -0.45202484 0.88376935
vn -0.72811945 0.59853191 0.33406829
vn 0.05100402 0.99808488 -0.03500226
vn 0.74522109 -0.31027548 -0.59023272
vn 0.73891240 0.65765791 0.14661017
vn 0.82945037 0.55744335 -0.03562305
vn 0.16380211 0.51735727 -0.83994662
vn 0.10657398 0.91854736 -0.38067406
vn 0.74963309 -0.60176497 0.27555244
vn -0.51626255 -0.62507484 -0.58545232
vn -0.29351513 -0.23402779 0.92686561
vn -0.17419427 0.29389659 0.93983038
vn -0.52578764 -0.84529790 0.09496745
vn -0.73305266 0.67986854 -0.02031153
vn -0.07902717 0.85483950 0.51283929
vn 0.19295002 0.98107524 0.01617631
vn 0.20807252 0.42409930 -0.88138846
vn 0.24413732 0.96713130 -0.07109165
vn 0.28358220 -0.73634175 0.61431422
vn 0.37369907 -0.71954111 -0.58532863
vn -0.56572060 -0.31152167 -0.76348834
vn -0.51831835 -0.85415834 0.04194776
vn -0.13396312 0.52221383 0.84222716
vn 0.64637339 0.43662231 0.62574946
vn 0.22949850 0.51023608 -0.82884835
vn -0.60960550 -0.06920671 -0.78967814
vn 0.24609049 -0.48592132 -0.83864172
vn -0.50013819 -0.83746214 -0.22027019
vn 0.82613821 -0.56193361 0.04154839
vn 0.65757904 0.57372615 0.48829100
vn 0.23657976 0.64530924 0.72636492
vn 0.15390022 0.36857582 0.91676965
vn 0.04019705 -0.13740802 -0.98969856
vn 0.43983700 -0.87803447 -0.18867666
vn 0.46832153 -0.87934643 0.08616727
vn 0.31141896 0.83525605 0.45317277
vn 0.18663990 0.51684533 0.83548576
vn 0.50354891 -0.86313376 0.03792890
vn 0.47625558 -0.87823283 0.04344785
vn 0.55192221 -0.83378592 -0.01352445
f 7//7 4//4 3//3
f 10//10 1//1 8//8
f 11//11 7//7 3//3
f 11//11 10//10 7//7
f 13//13 5//5 2//2
f 13//13 2//2 10//10
f 14//14 5//5 8//8
f 15//15 6//6 9//9
f 16//16 10//10 2//2
f 16//16 7//7 10//10
f 16//16 2//2 12//12
f 17//17 1//1 10//10
f 18//18 11//11 9//9
f 18//18 9//9 6//6
f 18//18 6//6 17//17
f 18//18 17//17 10//10
f 18//18 10//10 11//11
f 19//19 3//3 4//4
f 20//20 9//9 11//11
f 20//20 19//19 4//4
f 20//20 11//11 19//19
f 23//23 8//8 5//5
f 23//23 5//5 13//13
f 23//23 13//13 10//10
f 23//23 10//10 8//8
f 24//24 14//14 8//8
f 24//24 8//8 1//1
f 25//25 14//14 4//4
f 25//25 5//5 14//14
f 25//25 21//21 5//5
f 26//26 4//4 14//14
f 26//26 14//14 15//15
f 26//26 20//20 4//4
f 26//26 15//15 20//20
f 27//27 15//15 14//14
f 28//28 17//17 6//6
f 28//28 6//6 15//15
f 28//28 27//27 17//17
f 28//28 15//15 27//27
f 29//29 11//11 3//3
f 29//29 3//3 19//19
f 30//30 20//20 15//15
f 30//30 15//15 9//9
f 30//30 9//9 20//20
f 31//31 21//21 2//2
f 31//31 2//2 5//5
f 31//31 5//5 21//21
f 32//32 22//22 16//16
f 32//32 16//16 12//12
f 33//33 22//22 4//4
f 33//33 7//7 16//16
f 34//34 25//25 4//4
f 35//35 27//27 14//14
f 35//35 14//14 24//24
f 36//36 1//1 17//17
f 37//37 29//29 19//19
f 37//37 19//19 11//11
f 37//37 11//11 29//29
f 38//38 33//33 4//4
f 38//38 4//4 7//7
f 39//39 33//33 16//16
f 39//39 16//16 22//22
f 39//39 22//22 33//33
f 40//40 34//34 4//4
f 40//40 4//4 22//22
f 40//40 22//22 32//32
f 41//41 25//25 34//34
f 41//41 12//12 2//2
f 41//41 2//2 21//21
f 42//42 36//36 17//17
f 43//43 27//27 35//35
f 43//43 42//42 27//27
f 43//43 36//36 42//42
f 44//44 24//24 1//1
f 44//44 1//1 36//36
f 45//45 38//38 7//7
f 45//45 7//7 33//33
f 45//45 33//33 38//38
f 46//46 40//40 32//32
f 46//46 32//32 12//12
f 46//46 34//34 40//40
f 47//47 41//41 21//21
f 47//47 21//21 25//25
f 47//47 25//25 41//41
f 48//48 42//42 17//17
f 48//48 17//17 27//27
f 48//48 27//27 42//42
f 49//49 44//44 36//36
f 49//49 36//36 43//43
f 49//49 43//43 35//35
f 49//49 35//35 24//24
f 49//49 24//24 44//44
f 51//51 50//50 41//41
f 51//51 41//41 34//34
f 51//51 34//34 46//46
f 51//51 46//46 50//50
f 52//52 50//50 46//46
f 52//52 46//46 12//12
f 52//52 12//12 41//41
f 52//52 41//41 50//50

