# https://github.com/mikedh/trimesh
v 0.06920313 0.00926718 0.02706523
v 0.09027100 -0.00111078 0.01977078
v 0.08922768 0.01030001 -0.01472460
v 0.03576047 0.00522009 -0.02186936
v 0.03586289 -0.00907411 0.01815193
v 0.04223518 0.01332082 0.01258622
v 0.08845795 0.01321856 0.01688878
v 0.08257013 -0.00565261 0.02307004
v 0.03604905 0.01100467 -0.01818099
v 0.03570945 0.00804722 0.02230462
v 0.08829383 0.00663146 0.02302661
v 0.09171694 0.00809548 0.00046228
v 0.06584409 0.01189146 0.02475973
v 0.04833938 -0.00310528 0.02481946
v 0.08815468 -0.00928055 -0.01394092
v 0.08568073 0.00917054 -0.01875399
v 0.07232012 0.01323399 -0.00971556
v 0.03582252 0.01248749 0.01851158
v 0.03577074 -0.01081701 -0.00086240
v 0.08803261 0.01212842 0.01939355
v 0.09021017 0.00957876 0.01953436
v 0.08895140 0.00008874 0.02202104
v 0.08277173 0.00299796 0.02484990
v 0.09038948 0.01061429 -0.00505232
v 0.06271659 0.01083538 0.02639448
v 0.06589042 0.00025536 0.02617937
v 0.04848186 -0.00610541 0.02361199
v 0.03629317 -0.00265986 0.02326453
v 0.08650853 -0.00895055 0.01649597
v 0.09187852 -0.00117839 -0.01502671
v 0.03582238 0.00793968 -0.02066581
v 0.08549727 0.00021216 -0.02024057
v 0.08550355 0.01312956 -0.00641910
v 0.08408291 0.01139745 -0.01671495
v 0.03584096 0.01180268 -0.00960669
v 0.08176259 0.01478840 0.01651113
v 0.03588572 -0.01084683 -0.01649605
v 0.08792634 0.00926443 0.02170491
v 0.06822286 0.01048587 0.02667021
v 0.09030768 0.00675987 0.02091558
v 0.08933755 0.01215984 0.01809972
v 0.08734515 -0.00522313 0.02085943
v 0.08263326 0.00378072 0.02482560
v 0.08801208 0.00322314 0.02318047
v 0.09186633 0.00785632 -0.01349533
v 0.05887368 0.00264866 0.02653030
v 0.08125140 -0.00002194 0.02476954
v 0.03599598 0.00406829 0.02354203
v 0.03621297 -0.00664038 0.02170799
v 0.09031256 -0.00684094 -0.00235159
v 0.08289025 -0.01056990 0.00349460
v 0.08356351 -0.00906712 0.01953614
v 0.09198832 0.00453672 -0.00080794
v 0.08739341 0.00531995 -0.02008454
v 0.08646195 -0.00376941 -0.01858231
v 0.08709411 0.01292812 -0.00497233
v 0.07747930 0.01157639 -0.01637993
v 0.08652034 0.01023207 -0.01733891
v 0.08805535 0.01151659 -0.01240116
v 0.04371930 0.01180712 -0.01433972
v 0.06824634 0.01312959 -0.00935421
v 0.08418542 0.01473383 0.01313818
v 0.08413923 0.01457028 0.01713989
v 0.04072745 -0.00436932 -0.02165702
vn 0.11402172 0.18581499 0.97594664
vn 0.91034364 -0.25591804 0.32523902
vn 0.58796655 0.70533541 -0.39597637
vn -0.65556391 0.11942955 -0.74563566
vn -0.66130557 -0.70416942 0.25849635
vn -0.07735850 0.99696379 0.00888094
vn 0.52030015 0.83927061 0.15783724
vn 0.20843755 -0.48797741 0.84760359
vn -0.59228144 0.70598129 -0.38832090
vn -0.73128814 0.32048309 0.60208657
vn 0.49645179 0.21477226 0.84107580
vn 0.96330916 0.26673724 0.02977767
vn 0.00073222 0.90327023 0.42907151
vn -0.08969609 -0.23711686 0.96733149
vn 0.48714877 -0.78104166 -0.39071728
vn 0.24204741 0.53693927 -0.80815177
vn -0.00083492 0.98944956 -0.14487538
vn -0.66352370 0.69004119 0.28910112
vn -0.69628768 -0.71710471 0.03072947
vn 0.37475822 0.69921278 0.60881669
vn 0.85788493 0.34384433 0.38184359
vn 0.63506856 -0.20412640 0.74499687
vn 0.23651870 -0.05459790 0.97009173
vn 0.74567689 0.66525037 -0.03752227
vn -0.09085683 0.55147453 0.82922909
vn 0.03105894 -0.25973811 0.96517949
vn -0.04200967 -0.63992471 0.76728844
vn -0.65195355 -0.16310903 0.74050794
vn 0.55780286 -0.80461259 0.20360390
vn 0.89521183 -0.19424132 -0.40108116
vn -0.66450137 0.40146528 -0.63028847
vn 0.27122901 -0.18141457 -0.94526376
vn 0.13672126 0.98255030 -0.12610390
vn 0.11648759 0.87662150 -0.46686763
vn -0.71330231 0.69910328 -0.04954218
vn 0.00050907 0.98974644 0.14283457
vn -0.61162293 -0.68992578 -0.38719479
vn 0.40354298 0.50875397 0.76047516
vn 0.07180304 0.60317677 0.79436900
vn 0.88841027 0.11514862 0.44437371
vn 0.72960610 0.61576020 0.29751355
vn 0.61923398 -0.50305076 0.60290067
vn 0.22576583 0.10282437 0.96873987
vn 0.50690801 -0.07600193 0.85864310
vn 0.89418494 0.34601729 -0.28408683
vn -0.06820086 -0.07702899 0.99469351
vn 0.18208737 -0.18923772 0.96490066
vn -0.68607800 0.05330966 0.72557223
vn -0.63281848 -0.47770911 0.60937244
vn 0.86555564 -0.49937775 0.03788544
vn 0.14569636 -0.98900467 0.02534437
vn 0.21230392 -0.86859824 0.44773222
vn 0.99897235 -0.02547010 0.03749017
vn 0.45088994 0.17059101 -0.87612611
vn 0.34598372 -0.42779350 -0.83503771
vn 0.38988997 0.91749802 -0.07863325
vn 0.00714434 0.94910831 -0.31486883
vn 0.41458714 0.70070585 -0.58062795
vn 0.40515532 0.89744032 -0.17449942
vn -0.03538485 0.99297099 -0.11294479
vn -0.03404777 0.99683860 -0.07178824
vn 0.16754033 0.98556319 -0.02440144
vn 0.17455579 0.93667516 0.30359500
vn -0.14173799 -0.34325848 -0.92848476
f 19//19 10//10 4//4
f 19//19 5//5 10//10
f 25//25 18//18 10//10
f 25//25 13//13 18//18
f 27//27 26//26 14//14
f 27//27 8//8 26//26
f 31//31 16//16 4//4
f 31//31 9//9 16//16
f 34//34 16//16 9//9
f 34//34 17//17 33//33
f 35//35 18//18 6//6
f 35//35 9//9 31//31
f 35//35 31//31 4//4
f 35//35 4//4 10//10
f 35//35 10//10 18//18
f 36//36 6//6 18//18
f 36//36 18//18 13//13
f 37//37 19//19 4//4
f 38//38 1//1 11//11
f 38//38 21//21 20//20
f 38//38 11//11 21//21
f 39//39 38//38 20//20
f 39//39 1//1 38//38
f 39//39 25//25 1//1
f 39//39 13//13 25//25
f 40//40 21//21 11//11
f 40//40 12//12 21//21
f 40//40 22//22 2//2
f 41//41 7//7 20//20
f 41//41 20//20 21//21
f 41//41 21//21 12//12
f 41//41 24//24 7//7
f 41//41 12//12 24//24
f 42//42 22//22 8//8
f 42//42 2//2 22//22
f 42//42 29//29 2//2
f 43//43 23//23 11//11
f 43//43 11//11 1//1
f 43//43 1//1 23//23
f 44//44 11//11 23//23
f 44//44 40//40 11//11
f 44//44 22//22 40//40
f 44//44 8//8 22//22
f 45//45 24//24 12//12
f 45//45 3//3 24//24
f 46//46 1//1 25//25
f 46//46 26//26 1//1
f 46//46 14//14 26//26
f 46//46 28//28 14//14
f 47//47 23//23 1//1
f 47//47 1//1 26//26
f 47//47 26//26 8//8
f 47//47 44//44 23//23
f 47//47 8//8 44//44
f 48//48 10//10 5//5
f 48//48 28//28 46//46
f 48//48 46//46 25//25
f 48//48 25//25 10//10
f 49//49 27//27 14//14
f 49//49 14//14 28//28
f 49//49 5//5 27//27
f 49//49 48//48 5//5
f 49//49 28//28 48//48
f 50//50 29//29 15//15
f 50//50 2//2 29//29
f 50//50 30//30 2//2
f 50//50 15//15 30//30
f 51//51 15//15 29//29
f 51//51 37//37 15//15
f 51//51 19//19 37//37
f 51//51 5//5 19//19
f 52//52 27//27 5//5
f 52//52 51//51 29//29
f 52//52 5//5 51//51
f 52//52 8//8 27//27
f 52//52 42//42 8//8
f 52//52 29//29 42//42
f 53//53 2//2 30//30
f 53//53 40//40 2//2
f 53//53 12//12 40//40
f 53//53 45//45 12//12
f 53//53 30//30 45//45
f 54//54 32//32 4//4
f 54//54 4//4 16//16
f 54//54 45//45 30//30
f 54//54 3//3 45//45
f 55//55 30//30 15//15
f 55//55 54//54 30//30
f 55//55 32//32 54//54
f 56//56 7//7 24//24
f 57//57 34//34 9//9
f 57//57 9//9 17//17
f 57//57 17//17 34//34
f 58//58 34//34 3//3
f 58//58 16//16 34//34
f 58//58 54//54 16//16
f 58//58 3//3 54//54
f 59//59 34//34 33//33
f 59//59 3//3 34//34
f 59//59 33//33 56//56
f 59//59 56//56 24//24
f 59//59 24//24 3//3
f 60//60 17//17 9//9
f 60//60 9//9 35//35
f 61//61 35//35 6//6
f 61//61 60//60 35//35
f 61//61 17//17 60//60
f 62//62 33//33 17//17
f 62//62 17//17 61//61
f 62//62 61//61 6//6
f 62//62 6//6 36//36
f 62//62 56//56 33//33
f 62//62 7//7 56//56
f 63//63 20//20 7//7
f 63//63 62//62 36//36
f 63//63 7//7 62//62
f 63//63 39//39 20//20
f 63//63 36//36 13//13
f 63//63 13//13 39//39
f 64//64 37//37 4//4
f 64//64 4//4 32//32
f 64//64 32//32 55//55
f 64//64 55//55 15//15
f 64//64 15//15 37//37

