# https://github.com/mikedh/trimesh
v 0.00730649 0.01190229 0.02337142
v 0.01375855 -0.02097913 0.01401917
v 0.01479320 0.01181533 -0.02277226
v -0.00316530 0.01224263 -0.02278788
v -0.00405490 -0.02789821 0.02073676
v 0.01487158 0.01190736 0.01444281
v 0.00690850 -0.01642698 0.02320328
v -0.00291912 0.01223699 0.02209644
v -0.00331285 -0.03352947 -0.00979554
v 0.00134896 0.01227835 -0.02347312
v 0.01433280 -0.02188286 -0.01777184
v 0.01129963 -0.02055756 0.01841045
v -0.00337324 -0.01434558 0.02352219
v -0.00411791 -0.03071951 0.01708083
v 0.01476604 -0.00755670 -0.02174428
v 0.01238571 -0.02408601 -0.01006459
v 0.00691426 -0.02380469 -0.01930295
v 0.00677359 -0.02006567 0.02178731
v 0.00741027 -0.00945216 0.02344806
v -0.00343539 -0.02269454 0.02343465
v -0.00147914 -0.03019999 0.01116385
v -0.00395537 -0.03237933 0.00072934
v 0.00172192 -0.02573619 0.01911481
v 0.01078284 -0.02125037 0.01786048
v 0.00581252 0.01067334 -0.02335434
v 0.01424670 -0.02291468 -0.01647868
v 0.01223909 -0.02261385 0.00817136
v -0.00300792 -0.01017470 -0.01832322
v 0.01264404 -0.02165561 -0.01860599
v 0.00292483 -0.00996197 -0.02086333
v 0.00900378 -0.02142179 0.01908304
v 0.00538934 -0.01785554 0.02314459
v -0.00119984 -0.02459428 0.02187441
v 0.00923075 -0.02409585 0.01120632
v 0.01047303 -0.00907117 -0.02187601
v 0.00570242 0.01192317 -0.02341474
v 0.01380579 -0.02256041 -0.00526736
v 0.00652342 -0.02650253 -0.01685598
v 0.00082883 -0.02067315 0.02321353
v 0.01170376 -0.00932520 -0.02177690
v -0.00217759 -0.02231218 0.02329774
vn 0.30542398 0.60956755 0.73153510
vn 0.85102593 -0.45915296 0.25482040
vn 0.60265381 0.55512011 -0.57328008
vn -0.61123769 0.54859751 -0.57046408
vn -0.52498809 -0.57716275 0.62551631
vn 0.73558460 0.62433534 0.26290813
vn 0.39634738 -0.14388119 0.90675629
vn -0.59293333 0.61109837 0.52439380
vn -0.45093102 -0.84232348 -0.29521581
vn -0.05766029 0.65639898 -0.75220720
vn 0.77943146 -0.37361684 -0.50288870
vn 0.69416839 -0.40918420 0.59219805
vn -0.65502719 0.01528144 0.75545077
vn -0.47242876 -0.81855846 0.32676157
vn 0.72307123 -0.09290958 -0.68449675
vn 0.57418239 -0.81778021 0.03937147
vn -0.04995617 -0.45037771 -0.89143945
vn 0.40567712 -0.46766643 0.78531152
vn 0.43508655 -0.01403755 0.90027920
vn -0.50931136 -0.22442095 0.83080513
vn 0.46120652 -0.87983215 0.11482135
vn -0.76472093 -0.64280478 0.04476505
vn 0.42719109 -0.71817673 0.54929951
vn 0.49434113 -0.76145205 0.41930613
vn 0.03464056 -0.05709740 -0.99776747
vn 0.78839303 -0.57550739 -0.21731928
vn 0.55044840 -0.83109344 0.07931107
vn -0.79031476 -0.14695515 -0.59481658
vn 0.30307655 -0.38371508 -0.87230003
vn -0.25172567 -0.16752893 -0.95318846
vn 0.42491245 -0.67310132 0.60529664
vn 0.21040333 -0.28327639 0.93567351
vn 0.26583322 -0.49133022 0.82941384
vn 0.50148993 -0.85705357 0.11818219
vn -0.01821314 -0.12408863 -0.99210397
vn 0.05279104 0.30608850 -0.95053823
vn 0.71892125 -0.69270125 0.05759521
vn 0.22070285 -0.79178548 -0.56953139
vn 0.21087540 -0.33231782 0.91929126
vn 0.08366542 -0.15666939 -0.98410101
vn 0.22069895 -0.37906035 0.89866858
f 8//8 4//4 5//5
f 8//8 1//1 6//6
f 10//10 6//6 3//3
f 10//10 8//8 6//6
f 10//10 4//4 8//8
f 11//11 6//6 2//2
f 12//12 2//2 6//6
f 13//13 1//1 8//8
f 13//13 8//8 5//5
f 14//14 5//5 4//4
f 15//15 3//3 6//6
f 15//15 6//6 11//11
f 18//18 12//12 7//7
f 19//19 12//12 6//6
f 19//19 6//6 1//1
f 19//19 7//7 12//12
f 19//19 1//1 13//13
f 20//20 13//13 5//5
f 20//20 19//19 13//13
f 20//20 7//7 19//19
f 21//21 14//14 9//9
f 22//22 14//14 4//4
f 22//22 4//4 9//9
f 22//22 9//9 14//14
f 23//23 14//14 12//12
f 23//23 5//5 14//14
f 24//24 14//14 2//2
f 24//24 2//2 12//12
f 24//24 12//12 14//14
f 25//25 3//3 15//15
f 26//26 11//11 2//2
f 26//26 16//16 9//9
f 27//27 16//16 2//2
f 27//27 9//9 16//16
f 28//28 17//17 9//9
f 28//28 9//9 4//4
f 29//29 17//17 15//15
f 29//29 15//15 11//11
f 29//29 11//11 17//17
f 30//30 4//4 10//10
f 30//30 28//28 4//4
f 30//30 17//17 28//28
f 31//31 18//18 5//5
f 31//31 12//12 18//18
f 31//31 23//23 12//12
f 31//31 5//5 23//23
f 32//32 18//18 7//7
f 32//32 7//7 20//20
f 33//33 20//20 5//5
f 33//33 5//5 18//18
f 34//34 2//2 14//14
f 34//34 14//14 21//21
f 34//34 27//27 2//2
f 34//34 21//21 9//9
f 34//34 9//9 27//27
f 35//35 25//25 15//15
f 35//35 10//10 25//25
f 35//35 30//30 10//10
f 35//35 17//17 30//30
f 36//36 25//25 10//10
f 36//36 10//10 3//3
f 36//36 3//3 25//25
f 37//37 26//26 2//2
f 37//37 2//2 16//16
f 37//37 16//16 26//26
f 38//38 17//17 11//11
f 38//38 11//11 26//26
f 38//38 26//26 9//9
f 38//38 9//9 17//17
f 39//39 32//32 20//20
f 39//39 18//18 32//32
f 40//40 35//35 15//15
f 40//40 15//15 17//17
f 40//40 17//17 35//35
f 41//41 33//33 18//18
f 41//41 18//18 39//39
f 41//41 39//39 20//20
f 41//41 20//20 33//33

