# https://github.com/mikedh/trimesh
v 0.02695404 0.00966387 0.02325611
v 0.02662317 -0.00986737 0.02090450
v 0.02773887 0.01534584 0.01458257
v 0.00729717 0.01190736 0.01444281
v 0.00697888 -0.01499330 0.02353713
v 0.01548073 -0.01995067 0.01417607
v 0.01487177 0.01338813 0.02322528
v 0.02694246 -0.00302315 0.02384503
v 0.02661054 -0.01312220 0.01430121
v 0.02295206 -0.01533660 0.01413923
v 0.00857751 -0.02358353 0.01526516
v 0.02669979 0.01219219 0.02180358
v 0.01487158 0.01342224 0.01444281
v 0.00730649 0.01190229 0.02337142
v 0.00678687 -0.01925719 0.02228266
v 0.00890377 0.01185739 0.02346547
v 0.02623140 -0.01230213 0.01805649
v 0.01838193 -0.01819118 0.01414101
v 0.00680778 -0.02071532 0.02123721
v 0.00742022 0.01038208 0.02342421
v 0.01826656 -0.01799999 0.01562223
v 0.01389251 -0.01947632 0.01782531
v 0.01998690 -0.01518488 0.01895459
vn 0.65308680 0.18882498 0.73336400
vn 0.75278916 -0.38861502 0.53130674
vn 0.58477979 0.67390803 -0.45153135
vn -0.62372158 0.51543513 -0.58762064
vn -0.59580075 -0.13445621 0.79179732
vn 0.31642187 -0.69197115 -0.64888607
vn -0.06435808 0.73518941 0.67479965
vn 0.68288457 -0.10249393 0.72330053
vn 0.70655119 -0.45750990 -0.53987972
vn 0.30646824 -0.47627069 -0.82416227
vn -0.33441146 -0.85901346 -0.38764010
vn 0.57131243 0.60626008 0.55321861
vn -0.11923568 0.70609765 -0.69800355
vn -0.63403749 0.52916856 0.56389457
vn -0.58297846 -0.39231079 0.71149727
vn -0.03257056 0.16499945 0.98575572
vn 0.69963877 -0.62857489 0.33970456
vn 0.38888179 -0.64567422 -0.65717255
vn -0.58011079 -0.68600001 0.43917588
vn -0.17327034 0.01085314 0.98481450
vn 0.49073595 -0.83045392 0.26367501
vn 0.42406018 -0.77515273 0.46830675
vn 0.40732903 -0.72134301 0.56013152
f 8//8 3//3 1//1
f 9//9 8//8 2//2
f 9//9 3//3 8//8
f 10//10 3//3 9//9
f 11//11 4//4 6//6
f 12//12 7//7 1//1
f 12//12 1//1 3//3
f 12//12 3//3 7//7
f 13//13 7//7 3//3
f 13//13 10//10 4//4
f 13//13 3//3 10//10
f 14//14 13//13 4//4
f 14//14 7//7 13//13
f 15//15 8//8 5//5
f 15//15 2//2 8//8
f 15//15 14//14 4//4
f 15//15 5//5 14//14
f 16//16 8//8 1//1
f 16//16 1//1 7//7
f 16//16 7//7 14//14
f 16//16 5//5 8//8
f 17//17 9//9 2//2
f 18//18 6//6 4//4
f 18//18 4//4 10//10
f 18//18 10//10 9//9
f 19//19 15//15 4//4
f 19//19 4//4 11//11
f 19//19 2//2 15//15
f 20//20 16//16 14//14
f 20//20 14//14 5//5
f 20//20 5//5 16//16
f 21//21 11//11 6//6
f 21//21 6//6 18//18
f 21//21 18//18 9//9
f 21//21 9//9 17//17
f 22//22 19//19 11//11
f 22//22 21//21 17//17
f 22//22 11//11 21//21
f 23//23 22//22 17//17
f 23//23 17//17 2//2
f 23//23 2//2 19//19
f 23//23 19//19 22//22

