# https://github.com/mikedh/trimesh
v -0.00370957 0.02624118 0.02203207
v -0.00251792 0.00860247 0.01971986
v -0.00398354 0.02626204 -0.02293900
v -0.06004551 0.04843713 -0.02513675
v -0.06116737 0.04095141 0.01562041
v -0.00246066 0.00710410 -0.01794238
v -0.04352870 0.05244922 0.00391471
v -0.04975598 0.03685484 0.02011277
v -0.03943922 0.03228845 -0.02611316
v -0.05378242 0.03039120 0.00076202
v -0.00391506 0.03033236 0.01938768
v -0.04492491 0.05157813 -0.01982997
v -0.05724002 0.05746967 0.01193447
v -0.05378163 0.03323221 0.01624473
v -0.00291912 0.01223699 0.02209644
v -0.04005294 0.04291409 -0.02602763
v -0.00300878 0.01395643 -0.02341859
v -0.00702307 0.00760190 0.01248018
v -0.05657268 0.03177267 -0.01804122
v -0.00576640 0.03116411 -0.01861342
v -0.06374607 0.04947864 0.01103065
v -0.05295369 0.04493589 0.02036355
v -0.04366953 0.05248360 0.01109336
v -0.05987687 0.05585541 -0.00206733
v -0.05352296 0.05622982 -0.00230321
v -0.05795111 0.03753342 0.01745480
v -0.00262443 0.00986802 0.02103027
v -0.05458331 0.04663913 -0.02637462
v -0.03455157 0.04373690 -0.02345619
v -0.04946514 0.03151984 -0.02342562
v -0.00419433 0.03009225 -0.01943534
v -0.01395410 0.02426786 -0.02483084
v -0.00244583 0.00710211 0.01684201
v -0.05822757 0.03328973 0.01100732
v -0.02666639 0.01676440 0.00078574
v -0.02276234 0.04041241 -0.01687394
v -0.00564006 0.03274306 0.00403632
v -0.06358470 0.03990050 0.00392015
v -0.04176095 0.04722931 0.01871102
v -0.01984045 0.02856283 0.02195062
v -0.06108836 0.04803047 0.01584260
v -0.06119577 0.05551277 0.00807605
v -0.05794276 0.05726289 0.01011987
v -0.05654696 0.05733751 0.01198823
v -0.05398600 0.04127315 0.02000415
v -0.05402690 0.03574675 0.01868254
v -0.03226404 0.03307428 -0.02636062
v -0.05182564 0.04802716 -0.02629017
v -0.03744960 0.04391863 -0.02462565
v -0.00575923 0.01178446 -0.02187779
v -0.04790956 0.02745218 -0.01903555
v -0.05806247 0.03735820 -0.02329284
v -0.00540605 0.02891812 -0.02171790
v -0.03458559 0.04520295 -0.02194794
v -0.00689107 0.00753810 -0.01263685
v -0.01158260 0.01213343 0.01775676
v -0.03264383 0.01978766 0.00528100
v -0.05954163 0.03448911 0.01229344
v -0.05656379 0.03189233 -0.00247012
v -0.04374021 0.05101050 -0.01956736
v -0.00406363 0.03143820 0.01690006
v -0.03455762 0.04794969 0.00693690
v -0.06385942 0.04273801 0.01319718
v -0.06245030 0.04816988 -0.02224317
vn 0.66356701 0.19278271 0.72285106
vn 0.54231520 -0.67739348 0.49702344
vn 0.71851523 0.23213593 -0.65562853
vn -0.47070851 0.43884998 -0.76540460
vn -0.67521142 -0.21096441 0.70681224
vn 0.54685583 -0.75481742 -0.36221453
vn 0.40985106 0.91183778 -0.02395775
vn -0.16513815 -0.19829163 0.96613137
vn -0.12121642 -0.27428951 -0.95397686
vn -0.46997771 -0.88231830 0.02520653
vn 0.74334497 0.50138450 0.44277741
vn 0.23730515 0.89825296 -0.36990254
vn -0.23318212 0.86751217 0.43937312
vn -0.43499778 -0.73744258 0.51667724
vn 0.53552111 -0.18920177 0.82305518
vn 0.16733073 0.30366329 -0.93797070
vn 0.63773217 -0.23107893 -0.73477902
vn -0.31766434 -0.93773868 0.14048320
vn -0.66698694 -0.70031331 -0.25434168
vn 0.48828303 0.86064821 -0.14444492
vn -0.92201710 0.29197724 0.25423169
vn -0.18227737 0.24899911 0.95119630
vn 0.38713887 0.89237740 0.23191826
vn -0.48628653 0.85828922 -0.16390554
vn 0.14123972 0.98093379 -0.13349244
vn -0.57470882 -0.36668400 0.73160960
vn 0.54646368 -0.48434538 0.68321812
vn -0.15375362 0.01909771 -0.98792464
vn 0.34212013 0.63591168 -0.69178765
vn -0.32615659 -0.56141618 -0.76054832
vn 0.79314376 0.55054543 -0.26042793
vn 0.10520336 0.02425715 -0.99415484
vn 0.54147676 -0.79578431 0.27116463
vn -0.54039204 -0.82810060 0.14908334
vn -0.43569773 -0.90008875 0.00278043
vn 0.46245459 0.88103418 -0.09957173
vn 0.61175599 0.79078222 -0.02044714
vn -0.94545664 -0.32497817 -0.02238138
vn 0.20465499 0.60798180 0.76712090
vn -0.03195820 0.02115673 0.99926526
vn -0.59913129 0.28336201 0.74883087
vn -0.74652459 0.65400833 0.12236887
vn -0.29967484 0.95399579 -0.00932820
vn 0.19761084 0.88866701 0.41378849
vn -0.32355032 -0.07775011 0.94301119
vn -0.37359542 -0.45370587 0.80905960
vn 0.06185645 -0.00502618 -0.99807240
vn 0.04146278 0.53389390 -0.84453427
vn 0.28971486 0.58310101 -0.75898519
vn -0.15664740 -0.62035152 -0.76852169
vn -0.41650002 -0.85399994 -0.31178814
vn -0.64470552 -0.41502178 -0.64195928
vn 0.42802496 0.60500332 -0.67139081
vn 0.38785553 0.76318652 -0.51683114
vn -0.29154924 -0.95244082 -0.08863142
vn -0.41780008 -0.80955260 0.41239263
vn -0.44787493 -0.89282572 0.04764755
vn -0.69234699 -0.66195461 0.28717893
vn -0.54777655 -0.83656632 0.00988093
vn 0.45433698 0.88227211 -0.12318209
vn 0.78646065 0.60340980 0.13181901
vn 0.46115808 0.88731795 0.00027146
vn -0.91551185 -0.15024318 0.37318232
vn -0.87702707 0.28690624 -0.38536779
f 11//11 2//2 6//6
f 17//17 11//11 6//6
f 24//24 12//12 4//4
f 25//25 7//7 12//12
f 25//25 12//12 24//24
f 27//27 1//1 15//15
f 27//27 11//11 1//1
f 27//27 2//2 11//11
f 27//27 14//14 2//2
f 31//31 17//17 3//3
f 31//31 11//11 17//17
f 31//31 12//12 20//20
f 32//32 3//3 17//17
f 33//33 6//6 2//2
f 35//35 10//10 19//19
f 37//37 31//31 20//20
f 37//37 36//36 7//7
f 37//37 20//20 36//36
f 39//39 22//22 1//1
f 39//39 1//1 11//11
f 39//39 13//13 22//22
f 39//39 11//11 23//23
f 40//40 15//15 1//1
f 40//40 1//1 22//22
f 40//40 22//22 8//8
f 40//40 8//8 15//15
f 41//41 22//22 13//13
f 41//41 13//13 21//21
f 42//42 21//21 13//13
f 43//43 25//25 24//24
f 43//43 13//13 25//25
f 43//43 42//42 13//13
f 43//43 24//24 42//42
f 44//44 25//25 13//13
f 44//44 23//23 7//7
f 44//44 7//7 25//25
f 44//44 39//39 23//23
f 44//44 13//13 39//39
f 45//45 8//8 22//22
f 45//45 22//22 41//41
f 45//45 41//41 5//5
f 45//45 5//5 26//26
f 46//46 26//26 14//14
f 46//46 14//14 27//27
f 46//46 45//45 26//26
f 46//46 8//8 45//45
f 46//46 27//27 15//15
f 46//46 15//15 8//8
f 47//47 9//9 28//28
f 47//47 16//16 3//3
f 47//47 3//3 32//32
f 47//47 32//32 17//17
f 47//47 17//17 9//9
f 48//48 28//28 4//4
f 48//48 4//4 12//12
f 48//48 47//47 28//28
f 48//48 16//16 47//47
f 49//49 3//3 16//16
f 49//49 16//16 48//48
f 49//49 48//48 12//12
f 50//50 17//17 6//6
f 50//50 6//6 30//30
f 50//50 30//30 9//9
f 50//50 9//9 17//17
f 51//51 30//30 6//6
f 51//51 19//19 30//30
f 51//51 35//35 19//19
f 52//52 30//30 19//19
f 52//52 4//4 28//28
f 52//52 28//28 9//9
f 52//52 9//9 30//30
f 52//52 19//19 38//38
f 53//53 31//31 3//3
f 53//53 49//49 29//29
f 53//53 3//3 49//49
f 54//54 12//12 31//31
f 54//54 49//49 12//12
f 54//54 29//29 49//49
f 54//54 53//53 29//29
f 54//54 31//31 53//53
f 55//55 33//33 18//18
f 55//55 6//6 33//33
f 55//55 18//18 35//35
f 55//55 51//51 6//6
f 55//55 35//35 51//51
f 56//56 33//33 2//2
f 56//56 2//2 14//14
f 56//56 18//18 33//33
f 57//57 34//34 10//10
f 57//57 18//18 34//34
f 57//57 35//35 18//18
f 57//57 10//10 35//35
f 58//58 14//14 26//26
f 58//58 38//38 19//19
f 58//58 19//19 34//34
f 58//58 56//56 14//14
f 58//58 34//34 18//18
f 58//58 18//18 56//56
f 59//59 34//34 19//19
f 59//59 19//19 10//10
f 59//59 10//10 34//34
f 60//60 36//36 20//20
f 60//60 20//20 12//12
f 60//60 12//12 7//7
f 60//60 7//7 36//36
f 61//61 11//11 31//31
f 61//61 31//31 37//37
f 61//61 23//23 11//11
f 62//62 37//37 7//7
f 62//62 7//7 23//23
f 62//62 61//61 37//37
f 62//62 23//23 61//61
f 63//63 21//21 38//38
f 63//63 41//41 21//21
f 63//63 5//5 41//41
f 63//63 38//38 58//58
f 63//63 58//58 26//26
f 63//63 26//26 5//5
f 64//64 38//38 21//21
f 64//64 52//52 38//38
f 64//64 4//4 52//52
f 64//64 21//21 42//42
f 64//64 42//42 24//24
f 64//64 24//24 4//4

