# https://github.com/mikedh/trimesh
v 0.01487158 -0.00930099 -0.00979531
v 0.01539549 -0.02234700 -0.00965130
v 0.01484671 -0.00925095 -0.02152294
v -0.02258842 -0.02315256 -0.02192455
v -0.02300047 -0.03202422 -0.00979531
v -0.00697764 -0.03092330 -0.02015349
v -0.00327586 -0.00790205 -0.00980162
v 0.01440053 -0.02034266 -0.01870860
v -0.02303727 -0.03197901 -0.02322765
v -0.00398450 -0.03393781 -0.00982256
v -0.00567789 -0.01234687 -0.02026615
v -0.02212826 -0.01844856 -0.00950888
v 0.01453542 -0.01780063 -0.02027959
v 0.00018555 -0.01210382 -0.02175244
v -0.00397420 -0.03392136 -0.01129426
v -0.00265590 -0.00886094 -0.01651992
v -0.00698233 -0.00960272 -0.00967359
v 0.00692436 -0.01815864 -0.02165200
v -0.00398504 -0.02934457 -0.02005137
v -0.00227772 -0.02525951 -0.02145537
v -0.01748304 -0.01995277 -0.02187395
v 0.00719719 -0.01249579 -0.02179638
v -0.00312595 -0.03210405 -0.01636360
v -0.00284951 -0.03325898 -0.01128495
v -0.00103391 -0.01105352 -0.02065595
v -0.00816928 -0.01112918 -0.01663155
v 0.00189175 -0.02764153 -0.01874235
v -0.01298454 -0.03131228 -0.02155500
v 0.00220013 -0.02217387 -0.02154692
v -0.00565660 -0.01391123 -0.02172778
v 0.00630922 -0.02713524 -0.01542089
v -0.01124434 -0.01262774 -0.01519937
v -0.00690747 -0.01115142 -0.01772491
v -0.02219799 -0.02005610 -0.01799711
v -0.00565851 -0.00941195 -0.01510226
v 0.00316555 -0.02879345 -0.01610372
v 0.00182132 -0.03014783 -0.01385758
v -0.00702953 -0.00970958 -0.01124393
v -0.00834450 -0.01242181 -0.01883317
v -0.02195106 -0.02127840 -0.02031671
v -0.02052583 -0.01849926 -0.01657492
v 0.00160311 -0.02871939 -0.01756395
v -0.00175720 -0.03182910 -0.01522786
v -0.02189175 -0.01873777 -0.01267068
vn 0.58722439 0.56543144 0.57918460
vn 0.72130734 -0.42135189 0.54970748
vn 0.58468016 0.54438780 -0.60149068
vn -0.71467405 0.28596124 -0.63833155
vn -0.61984705 -0.53490869 0.57416229
vn 0.23547821 -0.67907426 -0.69527561
vn -0.13899195 0.79397700 0.59184606
vn 0.72787686 -0.50209475 -0.46700764
vn -0.57938886 -0.51948109 -0.62805091
vn 0.16599325 -0.75584623 0.63335828
vn -0.29125520 0.72686265 -0.62196551
vn -0.67046850 0.44092598 0.59670451
vn 0.70902190 -0.23432290 -0.66511707
vn -0.07948246 0.38396041 -0.91992225
vn 0.22345231 -0.96846851 -0.11017175
vn -0.17928884 0.92615660 -0.33179731
vn -0.33128591 0.65709692 0.67710655
vn 0.13578178 -0.14608378 -0.97990961
vn 0.29564576 -0.50705321 -0.80962376
vn 0.20545558 -0.33948145 -0.91789997
vn -0.25722212 0.46855581 -0.84515811
vn 0.00555028 0.06973802 -0.99754990
vn 0.29700985 -0.85963647 -0.41570456
vn 0.50993283 -0.85819075 -0.05896723
vn -0.18081756 0.74241341 -0.64507933
vn -0.43925033 0.84166996 -0.31408729
vn 0.37195692 -0.65440747 -0.65833040
vn 0.17126199 -0.66896529 -0.72329439
vn 0.17688357 -0.26315596 -0.94839925
vn -0.17886947 0.41978059 -0.88982581
vn 0.51861845 -0.81509712 -0.25816968
vn -0.50414151 0.85124315 -0.14569292
vn -0.32761853 0.82080931 -0.46790830
vn -0.80152652 0.55193123 -0.23005902
vn -0.37506925 0.89996168 -0.22224318
vn 0.46825252 -0.80398758 -0.36652907
vn 0.50104221 -0.85111637 -0.15670871
vn -0.46337064 0.88327606 -0.07149165
vn -0.38446261 0.75939448 -0.52488906
vn -0.56417369 0.66675123 -0.48698137
vn -0.52996858 0.81963111 -0.21757333
vn 0.40785793 -0.74056383 -0.53405722
vn 0.44464289 -0.85604796 -0.26358032
vn -0.64300542 0.75593398 -0.12291396
f 1//1 2//2 3//3
f 7//7 1//1 3//3
f 9//9 5//5 4//4
f 10//10 5//5 9//9
f 12//12 4//4 5//5
f 12//12 10//10 2//2
f 12//12 5//5 10//10
f 13//13 3//3 2//2
f 13//13 2//2 8//8
f 15//15 10//10 9//9
f 16//16 7//7 3//3
f 17//17 12//12 2//2
f 17//17 2//2 1//1
f 17//17 1//1 7//7
f 18//18 9//9 3//3
f 18//18 3//3 13//13
f 19//19 13//13 8//8
f 19//19 6//6 13//13
f 20//20 13//13 6//6
f 21//21 9//9 4//4
f 22//22 14//14 3//3
f 22//22 3//3 9//9
f 22//22 9//9 14//14
f 23//23 15//15 9//9
f 24//24 2//2 10//10
f 24//24 10//10 15//15
f 25//25 11//11 16//16
f 25//25 16//16 3//3
f 25//25 3//3 14//14
f 27//27 19//19 8//8
f 27//27 6//6 19//19
f 27//27 23//23 6//6
f 28//28 20//20 6//6
f 28//28 9//9 20//20
f 28//28 23//23 9//9
f 28//28 6//6 23//23
f 29//29 18//18 13//13
f 29//29 13//13 20//20
f 29//29 20//20 9//9
f 29//29 9//9 18//18
f 30//30 14//14 9//9
f 30//30 9//9 21//21
f 30//30 21//21 11//11
f 30//30 25//25 14//14
f 30//30 11//11 25//25
f 31//31 8//8 2//2
f 33//33 26//26 16//16
f 33//33 16//16 11//11
f 34//34 4//4 12//12
f 35//35 7//7 16//16
f 35//35 16//16 26//26
f 35//35 26//26 32//32
f 36//36 8//8 31//31
f 37//37 31//31 2//2
f 37//37 2//2 24//24
f 37//37 24//24 15//15
f 37//37 36//36 31//31
f 38//38 32//32 12//12
f 38//38 12//12 17//17
f 38//38 35//35 32//32
f 38//38 17//17 7//7
f 38//38 7//7 35//35
f 39//39 33//33 11//11
f 39//39 11//11 21//21
f 39//39 26//26 33//33
f 39//39 34//34 26//26
f 40//40 21//21 4//4
f 40//40 4//4 34//34
f 40//40 39//39 21//21
f 40//40 34//34 39//39
f 41//41 32//32 26//26
f 41//41 26//26 34//34
f 42//42 27//27 8//8
f 42//42 8//8 36//36
f 42//42 36//36 23//23
f 42//42 23//23 27//27
f 43//43 37//37 15//15
f 43//43 15//15 23//23
f 43//43 23//23 36//36
f 43//43 36//36 37//37
f 44//44 41//41 34//34
f 44//44 34//34 12//12
f 44//44 12//12 32//32
f 44//44 32//32 41//41

