####
#
# OBJ File Generated by Meshlab
#
####
# Object round_belt_large.obj
#
# Vertices: 200
# Faces: 400
#
####
vn -0.5032057 0.2818827 0.8169004
v 1021.5597534 269.7519836 110.1871185
vn -0.0310050 -0.9965600 0.0768561
v 591.6967163 506.9300842 65.7795868
vn -0.8174809 0.5721302 0.0662735
v 39.7191010 442.1045532 63.3738213
vn 0.7146077 0.6724859 0.1926098
v 1071.3778076 474.3171692 85.1224136
vn 0.3964429 0.3936611 0.8293757
v 1057.0932617 459.6277466 114.5968399
vn -0.0120969 -0.0548314 0.9984224
v 1009.4380493 451.0773010 127.9332504
vn 0.1514853 -0.0881879 -0.9845177
v 1072.0887451 249.5113373 -0.4174491
vn 0.4282075 -0.4256599 0.7971525
v 1050.6110840 183.2038422 120.4788437
vn -0.2194903 0.4789546 -0.8499568
v 961.5886230 185.5220184 5.3444510
vn 0.5656688 -0.5772698 -0.5888789
v 1052.4927979 157.0644836 20.1279945
vn 0.5139084 -0.7995484 0.3108386
v 998.0535889 103.3124847 88.1882858
vn 0.0170566 -0.0490977 0.9986484
v 838.4641724 97.0850830 127.2688293
vn -0.0606817 0.4265163 0.9024420
v 708.0687866 99.3867722 121.2992859
vn -0.6165820 0.3412819 0.7094740
v 39.6559868 407.9667358 108.6859055
vn -0.7585952 0.3673400 -0.5381398
v 24.0649548 396.5986633 26.0360222
vn -0.6094210 0.7116495 -0.3495156
v 95.2660141 494.1062317 39.8682747
vn -0.5968056 0.6812527 0.4239313
v 95.4519577 490.1584167 97.8715363
vn 0.2913742 -0.3505191 0.8900772
v 160.9875336 428.1879578 120.1653595
vn -0.3551807 0.4113911 -0.8394070
v 106.6976089 464.1855469 5.8148608
vn -0.4543149 0.8633562 0.2195770
v 161.0795746 545.7992554 68.6824265
vn 0.0121181 -0.0046967 -0.9999155
v 149.2251129 469.5190430 -0.1199451
vn -0.2319928 0.3648521 0.9016997
v 145.1328430 487.7245178 125.1293411
vn 0.1838857 -0.4266034 0.8855482
v 274.7920837 495.8087463 122.1499405
vn 0.1577174 -0.3828595 -0.9102439
v 258.7098999 492.4638977 3.5326300
vn -0.3567109 0.7931550 -0.4936219
v 227.4652863 568.6260376 32.5681458
vn -0.2445188 0.7442771 0.6215000
v 283.1162109 579.0429688 106.0726013
vn -0.0612615 0.1924326 0.9793961
v 250.4976196 530.9543457 126.9340286
vn -0.2001348 0.4778134 -0.8553599
v 243.6209717 550.8905029 8.9095984
vn -0.0553625 0.3467790 -0.9363116
v 393.3475037 580.3177490 2.9722486
vn -0.1705397 0.7980844 -0.5779079
v 372.2290344 601.3482666 18.9738579
vn -0.2826577 0.9589590 0.0224112
v 301.0378418 601.4163818 69.8770294
vn -0.1511331 0.9848028 0.0855694
v 414.7232666 625.4806519 66.8201675
vn -0.0927004 0.7010338 0.7070773
v 455.0393066 612.7062988 109.3493958
vn 0.0410659 -0.1625477 -0.9858457
v 366.3737488 545.6685791 0.1404234
vn -0.0044754 0.0853142 0.9963441
v 453.7276917 573.3786011 128.4226227
vn 0.0548691 -0.5560458 0.8293386
v 435.5690002 531.2990112 118.0869293
vn -0.0032866 0.9804102 0.1969396
v 564.0684204 636.4295654 74.5919113
vn -0.0492074 0.8510815 -0.5227227
v 517.7859497 627.2844238 30.5375462
vn 0.0025281 -0.0259913 0.9996590
v 584.8922119 571.0848999 127.4901581
vn 0.0026198 -0.0215297 -0.9997648
v 592.5693359 577.3839111 -0.8016139
vn -0.0347193 -0.3833028 -0.9229700
v 640.9165649 548.8425903 3.5985742
vn 0.1425915 0.9203221 0.3642458
v 754.4365234 618.3728638 84.0245132
vn 0.0733353 0.9305556 -0.3587314
v 658.6756592 629.3363037 37.7947922
vn 0.1966381 0.6224661 0.7575417
v 872.0223389 564.3654785 115.8918762
vn 0.1959228 0.9571858 -0.2130952
v 750.7345581 621.1950073 52.6659622
vn 0.1426871 0.6870418 -0.7124704
v 772.0900879 591.1277466 11.9295149
vn 0.0777902 0.2186138 -0.9727059
v 886.7074585 542.8875122 2.4522915
vn 0.3150783 0.9124300 0.2611458
v 882.3632812 587.1418457 75.7327957
vn 0.2630822 0.5333191 0.8039643
v 934.4663086 539.7034912 115.8046494
vn 0.0190839 0.6051533 0.7958802
v 589.8029175 608.9736328 117.7966919
vn 0.0829425 0.4803510 0.8731457
v 742.5553589 592.3259277 119.4956055
vn 0.4790393 0.8230062 0.3052575
v 985.4293823 538.9263916 84.4494858
vn 0.0186449 0.4902284 -0.8713946
v 587.4605713 601.9779663 5.7567611
vn 0.3362901 0.8387392 -0.4282822
v 903.8176270 576.6406250 38.7659149
vn 0.2050595 0.3431572 -0.9166209
v 993.5191650 493.0498047 2.9607410
vn 0.0252817 0.0418644 0.9988034
v 849.0155029 533.1184082 127.6731186
vn 0.5285295 0.7905253 -0.3093970
v 1025.0048828 514.0861206 41.3351402
vn 0.7703548 0.3861093 0.5074180
v 1109.7373047 406.8277893 102.1201782
vn 0.8692114 0.3896153 -0.3044201
v 1126.0018311 399.4982300 40.9515762
vn 0.5944631 0.5694597 -0.5677406
v 1052.8250732 480.7022400 21.4704037
vn -0.0263665 -0.8534266 -0.5205458
v 617.2903442 517.8389893 26.8533440
vn -0.1760006 -0.9717616 -0.1571723
v 704.4878540 498.6301880 59.9126282
vn -0.3402270 -0.9154536 -0.2149196
v 859.4525146 462.4471741 45.1432838
vn 0.0708952 -0.9645255 0.2542921
v 511.4555969 508.4695435 79.6374741
vn -0.4587218 -0.8885581 0.0062332
v 890.2681274 446.3658752 67.6507187
vn -0.6538991 -0.6130666 0.4433571
v 988.1970215 380.4161377 81.8525925
vn 0.5489392 0.0644676 0.8333725
v 1109.0621338 339.5963135 121.1540985
vn 0.2450112 0.1042212 -0.9639022
v 1092.4610596 368.4458618 1.8101498
vn -0.0934551 -0.0012375 0.9956228
v 1084.7075195 330.1711121 127.2599564
vn 0.7719662 -0.1416391 -0.6196826
v 1128.0187988 276.6314392 18.8627739
vn 0.8692297 -0.3682797 0.3298633
v 1131.3176270 240.8716125 82.7848206
vn 0.9759782 0.0922194 0.1973885
v 1145.4334717 337.1268616 74.0866547
vn 0.1457528 -0.0654448 0.9871541
v 1086.7463379 261.2942810 128.0937653
vn -0.8542109 0.4964775 0.1543825
v 1004.9405518 278.7038574 70.3618774
vn -0.5431640 0.1920831 -0.8173598
v 1044.2478027 290.5736084 7.6386175
vn 0.6977729 -0.6755767 0.2381366
v 1071.8673096 158.0892029 80.6910400
vn -0.3141576 -0.9078668 0.2776380
v 825.1669312 473.3669739 82.2156296
vn -0.4319067 -0.7180418 0.5457771
v 946.0264282 424.7601624 94.3182144
vn -0.4119618 0.4728739 -0.7788953
v 989.0079956 229.1130524 17.0318909
vn -0.4949661 -0.7188929 -0.4880591
v 952.3366699 426.7374573 22.9069500
vn -0.3405179 -0.2339966 -0.9106554
v 1030.4200439 384.4707336 5.8060646
vn -0.9002868 -0.3832104 -0.2064789
v 1009.7351685 351.3256226 51.2843781
vn -0.4332619 0.7432970 -0.5096996
v 934.9051514 201.6898193 29.8805447
vn -0.0190301 -0.8085979 0.5880538
v 603.4530029 520.7898560 100.2475204
vn -0.1639760 -0.8421195 0.5137575
v 755.3187256 501.0292664 100.2471008
vn -0.2555135 -0.5816560 0.7722624
v 910.3740234 471.3222961 118.2599716
vn -0.3807009 -0.4676509 0.7977278
v 980.2691040 424.1464233 116.2525406
vn -0.0322876 -0.4558245 0.8894839
v 633.1026611 537.6711426 118.2806778
vn -0.1168088 -0.4615907 0.8793690
v 805.5327759 517.4866943 121.9745712
vn -0.6318853 0.0291090 0.7745150
v 1042.0410156 332.1830444 116.5242920
vn -0.1260614 -0.7281218 -0.6737561
v 729.0592651 513.0565796 18.6227112
vn -0.1006016 -0.3912939 -0.9147505
v 798.3327026 518.5289917 4.9243464
vn -0.2493503 -0.7167124 -0.6512663
v 842.5659790 480.5785522 24.0091591
vn -0.1440550 -0.2628080 -0.9540336
v 946.9505005 471.6785583 1.0838530
vn -0.4173365 0.5192716 0.7457797
v 977.4616699 221.0440521 110.4449539
vn 0.2311107 -0.4866020 0.8425001
v 930.9389038 101.1211243 119.3374710
vn 0.0160719 -0.0253939 -0.9995484
v 981.2478638 156.0027618 -0.2059424
vn -0.3563898 0.7014339 0.6172332
v 920.7442627 183.8295135 108.4007492
vn -0.1292602 0.3209230 0.9382432
v 894.1745605 134.9818115 125.3946304
vn -0.5954213 0.7487486 -0.2912886
v 957.7142334 225.5948334 47.6201286
vn -0.2785885 0.8689846 -0.4089673
v 819.0384521 156.3619232 39.3069458
vn -0.0135585 0.0055155 0.9998929
v 986.0989990 157.2619019 127.0784378
vn 0.4397102 -0.8406479 -0.3161741
v 974.2752075 94.0361176 32.9151001
vn 0.2602970 -0.5873140 -0.7663600
v 931.9318848 92.1644287 13.3632545
vn -0.0857916 0.3542291 -0.9312151
v 795.5398560 109.4477081 3.8882592
vn -0.1685102 0.6317350 0.7566473
v 799.3843994 132.5479584 112.7430191
vn -0.2085856 0.6534283 -0.7276837
v 837.0675049 143.3842621 14.2552328
vn -0.0925096 0.8480045 -0.5218530
v 649.7348633 119.8564301 29.8123074
vn 0.0586213 -0.4605225 -0.8857103
v 732.2464600 46.8025932 5.8987455
vn 0.0002933 0.0129053 -0.9999167
v 585.1988525 61.0110664 -1.1873879
vn 0.0001228 0.6020408 -0.7984653
v 594.4525146 100.2419739 11.3044128
vn 0.0061919 -0.0769146 0.9970185
v 598.8865967 57.8366661 127.6301422
vn 0.1669855 -0.7227656 -0.6706160
v 796.9489136 40.6078110 20.2130508
vn 0.0815428 -0.2545411 -0.9636180
v 850.1642456 85.1467056 0.4979731
vn 0.2777112 -0.9235722 -0.2643688
v 854.4763184 40.2172813 46.6624031
vn 0.0136182 0.3550876 0.9347339
v 536.9699097 90.2317429 121.6915283
vn 0.1272278 -0.9721012 -0.1970592
v 707.8740234 8.4564838 48.5717697
vn 0.0546895 -0.7632574 -0.6437757
v 641.2665405 18.1310406 19.5927696
vn -0.0334369 -0.5819086 -0.8125665
v 490.3773499 27.0205956 11.3558788
vn 0.2827963 0.8323622 -0.4766546
v 296.2982178 167.7679596 38.0082970
vn -0.0060943 -0.0251783 0.9996644
v 415.0870361 70.0271912 127.1852493
vn 0.1713436 -0.9113867 0.3741869
v 763.2774658 21.3505192 89.4950943
vn -0.0352102 -0.1598123 -0.9865193
v 358.2358398 73.0163879 -0.4339014
vn -0.1967453 -0.5152306 -0.8341635
v 264.8739319 83.8085632 5.5386643
vn 0.1232848 0.7547663 -0.6443048
v 424.1111450 119.5130768 18.1671448
vn 0.0402502 0.3621941 -0.9312333
v 483.8166504 95.0835037 6.0946846
vn 0.0525697 -0.6101072 0.7905729
v 642.0647583 25.3608074 115.0176926
vn 0.0352418 -0.9095095 0.4141867
v 617.6748657 5.9932704 92.5651855
vn 0.1284186 -0.5270705 0.8400627
v 796.0683594 52.9587936 117.7618484
vn -0.0386306 -0.9738942 -0.2236914
v 538.5128784 -1.2885906 51.8763733
vn -0.1328668 -0.7481071 -0.6501402
v 380.2637634 31.5136356 21.7213497
vn 0.1086569 0.3984006 -0.9107528
v 325.1961975 119.6162872 4.2846880
vn 0.3245294 -0.8823305 0.3408426
v 885.2910156 51.0859184 85.0710602
vn -0.0972017 -0.8861253 0.4531376
v 451.7776794 12.7899351 97.2361450
vn -0.1830840 -0.9775068 -0.1046940
v 373.4399109 18.0663414 53.5718269
vn 0.2437412 0.3950497 -0.8857347
v 198.0512695 173.6135101 4.4828000
vn 0.1618116 0.2439898 0.9561831
v 200.6294861 151.5592194 126.0818100
vn -0.2618632 -0.8502011 -0.4567119
v 311.2654724 39.9094734 32.1426773
vn -0.0415238 -0.0830152 -0.9956828
v 209.5499115 128.5179596 -0.2114258
vn -0.0337906 -0.5199212 0.8535456
v 494.9991150 32.4548378 119.7293701
vn -0.0084449 0.0011500 -0.9999637
v 112.4481888 202.1701355 -2.8664777
vn -0.2013157 -0.8937422 0.4008702
v 375.3227539 22.7761135 91.2143936
vn -0.3480228 -0.9095612 0.2271093
v 237.0897827 55.7654457 77.2393036
vn -0.3036937 -0.6292751 0.7153901
v 205.7572784 93.2698364 112.3977814
vn -0.3832917 -0.4543435 -0.8041514
v 107.7192383 156.1156616 11.1150398
vn -0.0375278 0.9972077 -0.0645637
v 592.9005737 126.1537018 54.0271378
vn 0.0863775 0.9556643 0.2815045
v 491.8334045 128.4533386 81.3523026
vn 0.4577700 0.8087399 0.3693054
v 209.6712494 210.9893188 76.8915710
vn 0.7666612 0.6248040 0.1478196
v 152.0912476 255.2829895 81.6067963
vn 0.0715054 0.9401501 -0.3331739
v 476.2604980 128.7648773 44.4876556
vn 0.2189093 0.9717886 -0.0877826
v 377.2308044 148.7119598 57.1636772
vn 0.5002868 0.7995402 -0.3323380
v 215.3004761 200.3894958 33.6402702
vn 0.6317981 0.3151181 -0.7081890
v 120.4509964 274.0663452 18.7356052
vn -0.0307113 0.9680676 0.2488010
v 607.8746948 126.6598663 77.5898514
vn -0.2001007 0.9786446 -0.0470583
v 762.1774902 146.3722382 63.1886482
vn -0.3983276 0.9162594 0.0424726
v 874.5074463 181.6061859 64.1422195
vn -0.1178746 0.9517856 0.2832133
v 695.3015747 133.7420807 79.4783020
vn -0.2300111 0.8995747 0.3712954
v 784.3535156 147.9507904 86.2452240
vn -0.5545557 0.7690929 0.3177487
v 932.0952759 206.3532104 85.0066681
vn -0.5558896 -0.6876340 0.4670613
v 99.9670639 139.8069611 94.6545639
vn -0.7684214 -0.5975730 -0.2289870
v 51.5593414 175.1217957 52.8921661
vn 0.9908543 -0.0615600 -0.1200760
v 126.9681396 310.9141846 48.4545822
vn 0.3507592 0.9275305 0.1290553
v 283.7174988 174.7021484 76.9871140
vn 0.2234413 0.8335468 0.5052462
v 376.7678833 139.3678131 93.0041504
vn -0.6395513 -0.2462983 -0.7282248
v 30.8413162 261.0779419 11.7465792
vn -0.4574321 -0.8117608 -0.3630430
v 166.7156677 93.1349182 35.8083878
vn -0.1528310 -0.2400359 0.9586582
v 172.0686340 139.4282684 126.2896881
vn 0.0381654 0.0546522 0.9977758
v 50.0189362 326.8014221 127.0866089
vn -0.7298039 -0.0206486 0.6833448
v 18.2036991 317.7032471 112.5601578
vn -0.9519538 0.2481858 0.1794094
v 7.2761025 368.7053223 81.3803177
vn -0.4656810 -0.2901352 0.8360399
v 61.9614677 216.7358093 120.2193146
vn -0.8799899 0.0511711 -0.4722281
v 3.5421052 323.9506226 34.6953545
vn -0.8315362 -0.3998688 0.3855547
v 17.4221306 236.9115906 83.8355789
vn 0.7459066 -0.5652638 0.3522786
v 141.8579712 369.2401733 81.4072800
vn -0.9824919 -0.1813092 -0.0428570
v -0.7746016 289.6173401 61.3354034
vn 0.5009132 -0.2378237 0.8321815
v 103.3832321 353.2882690 117.7736816
vn 0.7084568 0.1579994 0.6878410
v 109.2661209 294.4757385 111.2606201
vn 0.5076280 0.4926690 0.7068176
v 147.8311615 230.8897705 112.4242630
vn 0.2186452 0.5729138 0.7899140
v 245.7099915 157.0009613 117.9727249
vn 0.2461874 0.7502959 0.6135535
v 251.5807037 175.1401825 103.0144119
vn 0.1065872 0.5540521 0.8256304
v 381.3875732 114.2557678 119.9737244
vn -0.0056509 0.7747154 0.6322849
v 552.3287964 108.3254395 107.8267517
vn 0.4929741 -0.8297083 0.2618408
v 214.5280914 428.4425354 77.7176666
vn -0.1512271 0.0411859 -0.9876407
v 48.6665993 332.6475830 -0.5003095
vn 0.3274099 -0.7880068 -0.5213905
v 256.6745911 457.4947510 30.4919910
vn 0.3174125 -0.8063887 0.4989856
v 263.5332336 459.9185181 94.3441010
vn -0.1521624 -0.5663785 0.8099765
v 326.7295532 58.5407219 117.9476013
vn -0.1117877 0.7700141 0.6281575
v 697.4272461 121.2068634 103.8700867
vn 0.2138418 -0.9223338 -0.3218260
v 366.9100342 487.2391052 47.2792282
vn 0.4119358 -0.6784794 0.6082555
v 201.8637848 441.3063660 109.7890625
vn 0.1525540 -0.5898409 -0.7929786
v 380.1658936 514.9880981 10.5856543
vn 0.3654104 -0.4798042 -0.7976611
v 161.2638702 428.0910950 7.7614012
vn 0.0051878 -0.8000737 0.5998793
v 436.4570312 511.0599976 101.8122330
vn 0.0795572 -0.9796267 -0.1843967
v 498.3978882 505.7500305 51.4200745
vn 0.0533339 -0.6141302 -0.7874006
v 480.5127869 524.9694214 14.1454639
vn 0.5129661 -0.8034554 -0.3022007
v 204.0835724 422.8625183 46.4085884
vn 0.1588006 -0.9486921 0.2734334
v 388.0650940 490.3400269 73.0382156
vn 0.5223064 -0.2285635 -0.8215563
v 117.8162460 360.8992920 14.5967875
vn 0.7157404 -0.5496505 -0.4308133
v 162.1747894 395.3066101 34.3472595
vn 0.3615924 -0.9323030 -0.0078794
v 290.3134766 461.3951416 65.6467819
# 200 vertices, 0 vertices normals

f 105//105 111//111 108//108
f 53//53 38//38 43//43
f 38//38 37//37 43//43
f 59//59 60//60 4//4
f 58//58 4//4 5//5
f 59//59 4//4 58//58
f 5//5 6//6 69//69
f 10//10 7//7 70//70
f 10//10 70//70 71//71
f 10//10 71//71 76//76
f 11//11 10//10 76//76
f 76//76 8//8 11//11
f 11//11 8//8 96//96
f 96//96 8//8 102//102
f 83//83 79//79 9//9
f 105//105 9//9 97//97
f 104//104 97//97 10//10
f 106//106 13//13 99//99
f 15//15 3//3 16//16
f 16//16 3//3 17//17
f 17//17 14//14 22//22
f 22//22 168//168 18//18
f 18//18 168//168 176//176
f 192//192 21//21 24//24
f 28//28 19//19 25//25
f 25//25 19//19 16//16
f 25//25 16//16 20//20
f 27//27 22//22 18//18
f 27//27 18//18 23//23
f 31//31 20//20 26//26
f 34//34 24//24 21//21
f 29//29 21//21 28//28
f 30//30 28//28 25//25
f 27//27 23//23 35//35
f 35//35 23//23 36//36
f 32//32 31//31 26//26
f 32//32 26//26 33//33
f 29//29 30//30 38//38
f 32//32 30//30 31//31
f 39//39 35//35 36//36
f 42//42 43//43 37//37
f 37//37 33//33 50//50
f 45//45 43//43 42//42
f 41//41 40//40 47//47
f 41//41 47//47 92//92
f 44//44 51//51 56//56
f 56//56 51//51 39//39
f 44//44 42//42 51//51
f 42//42 37//37 50//50
f 46//46 43//43 45//45
f 46//46 45//45 54//54
f 48//48 42//42 44//44
f 53//53 43//43 46//46
f 47//47 46//46 54//54
f 92//92 47//47 94//94
f 54//54 48//48 52//52
f 49//49 44//44 56//56
f 48//48 54//54 45//45
f 51//51 42//42 50//50
f 57//57 54//54 52//52
f 52//52 48//48 49//49
f 55//55 47//47 54//54
f 6//6 49//49 56//56
f 57//57 52//52 4//4
f 4//4 52//52 5//5
f 5//5 52//52 49//49
f 53//53 46//46 47//47
f 40//40 53//53 47//47
f 5//5 49//49 6//6
f 54//54 57//57 55//55
f 48//48 45//45 42//42
f 48//48 44//44 49//49
f 6//6 56//56 89//89
f 69//69 6//6 87//87
f 81//81 94//94 55//55
f 68//68 60//60 59//59
f 72//72 59//59 58//58
f 58//58 5//5 67//67
f 5//5 69//69 67//67
f 55//55 60//60 68//68
f 58//58 67//67 72//72
f 59//59 70//70 68//68
f 4//4 60//60 57//57
f 61//61 91//91 62//62
f 62//62 91//91 93//93
f 62//62 93//93 63//63
f 62//62 2//2 61//61
f 85//85 2//2 62//62
f 85//85 62//62 77//77
f 66//66 82//82 90//90
f 70//70 59//59 72//72
f 81//81 55//55 68//68
f 81//81 68//68 75//75
f 75//75 68//68 7//7
f 69//69 73//73 67//67
f 67//67 73//73 71//71
f 67//67 71//71 72//72
f 70//70 7//7 68//68
f 74//74 82//82 75//75
f 1//1 73//73 90//90
f 87//87 6//6 86//86
f 89//89 56//56 88//88
f 88//88 56//56 39//39
f 50//50 39//39 51//51
f 95//95 1//1 74//74
f 97//97 75//75 7//7
f 97//97 79//79 75//75
f 1//1 102//102 73//73
f 76//76 71//71 8//8
f 93//93 91//91 92//92
f 63//63 93//93 80//80
f 82//82 80//80 81//81
f 85//85 77//77 86//86
f 86//86 77//77 78//78
f 87//87 78//78 66//66
f 88//88 84//84 89//89
f 89//89 84//84 85//85
f 89//89 85//85 86//86
f 86//86 78//78 87//87
f 69//69 87//87 66//66
f 69//69 66//66 90//90
f 61//61 41//41 91//91
f 93//93 92//92 94//94
f 93//93 94//94 80//80
f 80//80 94//94 81//81
f 79//79 97//97 9//9
f 97//97 7//7 10//10
f 89//89 86//86 6//6
f 11//11 103//103 10//10
f 100//100 75//75 79//79
f 95//95 159//159 98//98
f 99//99 95//95 98//98
f 102//102 1//1 95//95
f 102//102 95//95 99//99
f 10//10 103//103 104//104
f 74//74 75//75 100//100
f 69//69 90//90 73//73
f 11//11 133//133 103//103
f 104//104 114//114 97//97
f 97//97 114//114 105//105
f 9//9 105//105 107//107
f 9//9 107//107 101//101
f 9//9 101//101 83//83
f 158//158 106//106 98//98
f 1//1 90//90 74//74
f 60//60 55//55 57//57
f 12//12 102//102 99//99
f 106//106 99//99 98//98
f 105//105 108//108 107//107
f 13//13 12//12 99//99
f 12//12 13//13 112//112
f 112//112 13//13 116//116
f 113//113 117//117 118//118
f 109//109 118//118 119//119
f 109//109 119//119 110//110
f 125//125 111//111 126//126
f 111//111 105//105 110//110
f 110//110 105//105 114//114
f 113//113 114//114 104//104
f 113//113 104//104 115//115
f 110//110 114//114 109//109
f 133//133 96//96 129//129
f 126//126 111//111 110//110
f 113//113 109//109 114//114
f 181//181 121//121 116//116
f 116//116 121//121 112//112
f 133//133 129//129 122//122
f 118//118 130//130 119//119
f 117//117 128//128 130//130
f 123//123 124//124 139//139
f 126//126 110//110 123//123
f 118//118 109//109 113//113
f 117//117 113//113 115//115
f 122//122 129//129 127//127
f 130//130 131//131 119//119
f 119//119 131//131 123//123
f 132//132 120//120 125//125
f 132//132 125//125 126//126
f 167//167 121//121 137//137
f 130//130 135//135 131//131
f 132//132 126//126 123//123
f 117//117 115//115 122//122
f 122//122 115//115 133//133
f 152//152 120//120 136//136
f 136//136 120//120 132//132
f 130//130 134//134 135//135
f 131//131 138//138 124//124
f 136//136 132//132 139//139
f 139//139 132//132 123//123
f 123//123 110//110 119//119
f 130//130 118//118 117//117
f 127//127 112//112 140//140
f 128//128 140//140 134//134
f 138//138 166//166 124//124
f 124//124 145//145 139//139
f 128//128 117//117 122//122
f 135//135 143//143 138//138
f 124//124 166//166 145//145
f 139//139 145//145 141//141
f 128//128 122//122 127//127
f 129//129 96//96 12//12
f 12//12 96//96 102//102
f 142//142 143//143 135//135
f 138//138 143//143 166//166
f 124//124 123//123 131//131
f 137//137 121//121 181//181
f 138//138 131//131 135//135
f 112//112 129//129 12//12
f 153//153 136//136 141//141
f 141//141 136//136 139//139
f 134//134 130//130 128//128
f 127//127 129//129 112//112
f 142//142 135//135 134//134
f 128//128 127//127 140//140
f 121//121 167//167 187//187
f 156//156 101//101 155//155
f 157//157 155//155 146//146
f 157//157 146//146 154//154
f 147//147 146//146 150//150
f 147//147 150//150 151//151
f 163//163 120//120 152//152
f 163//163 152//152 148//148
f 148//148 152//152 149//149
f 149//149 153//153 162//162
f 181//181 116//116 182//182
f 137//137 178//178 168//168
f 168//168 177//177 176//176
f 187//187 167//167 144//144
f 184//184 153//153 141//141
f 101//101 107//107 108//108
f 150//150 111//111 125//125
f 150//150 125//125 151//151
f 151//151 125//125 120//120
f 100//100 156//156 159//159
f 120//120 163//163 151//151
f 146//146 147//147 154//154
f 155//155 157//157 158//158
f 155//155 158//158 156//156
f 74//74 159//159 95//95
f 187//187 142//142 134//134
f 148//148 180//180 163//163
f 163//163 164//164 151//151
f 151//151 164//164 147//147
f 156//156 158//158 98//98
f 156//156 98//98 159//159
f 188//188 158//158 157//157
f 177//177 149//149 162//162
f 167//167 137//137 168//168
f 187//187 134//134 140//140
f 121//121 140//140 112//112
f 143//143 142//142 187//187
f 144//144 167//167 160//160
f 150//150 108//108 111//111
f 152//152 136//136 153//153
f 174//174 177//177 162//162
f 152//152 153//153 149//149
f 108//108 146//146 155//155
f 108//108 155//155 101//101
f 101//101 156//156 83//83
f 83//83 156//156 100//100
f 100//100 159//159 74//74
f 172//172 15//15 184//184
f 160//160 167//167 171//171
f 161//161 160//160 173//173
f 173//173 175//175 161//161
f 165//165 172//172 184//184
f 14//14 169//169 168//168
f 169//169 14//14 170//170
f 170//170 14//14 3//3
f 171//171 168//168 169//169
f 170//170 3//3 15//15
f 175//175 169//169 170//170
f 172//172 175//175 170//170
f 172//172 170//170 15//15
f 171//171 169//169 173//173
f 173//173 169//169 175//175
f 160//160 171//171 173//173
f 21//21 192//192 198//198
f 168//168 22//22 14//14
f 15//15 19//19 184//184
f 165//165 175//175 172//172
f 174//174 162//162 199//199
f 188//188 182//182 13//13
f 116//116 13//13 182//182
f 137//137 181//181 179//179
f 137//137 179//179 178//178
f 168//168 178//178 177//177
f 14//14 17//17 3//3
f 15//15 16//16 19//19
f 198//198 199//199 162//162
f 149//149 177//177 178//178
f 188//188 13//13 106//106
f 183//183 174//174 196//196
f 196//196 174//174 199//199
f 162//162 153//153 198//198
f 184//184 141//141 165//165
f 144//144 143//143 187//187
f 200//200 186//186 183//183
f 165//165 141//141 145//145
f 161//161 145//145 166//166
f 161//161 166//166 160//160
f 160//160 166//166 143//143
f 187//187 140//140 121//121
f 174//174 190//190 18//18
f 174//174 18//18 176//176
f 174//174 176//176 177//177
f 149//149 178//178 148//148
f 148//148 178//178 179//179
f 148//148 179//179 180//180
f 163//163 180//180 164//164
f 147//147 182//182 154//154
f 154//154 182//182 157//157
f 158//158 188//188 106//106
f 190//190 23//23 18//18
f 22//22 27//27 26//26
f 22//22 26//26 20//20
f 20//20 31//31 25//25
f 146//146 108//108 150//150
f 190//190 174//174 183//183
f 190//190 183//183 186//186
f 36//36 186//186 197//197
f 29//29 34//34 21//21
f 34//34 191//191 24//24
f 185//185 191//191 189//189
f 193//193 36//36 197//197
f 27//27 35//35 33//33
f 27//27 33//33 26//26
f 25//25 31//31 30//30
f 28//28 30//30 29//29
f 185//185 189//189 200//200
f 182//182 188//188 157//157
f 182//182 147//147 181//181
f 181//181 147//147 164//164
f 181//181 164//164 179//179
f 179//179 164//164 180//180
f 192//192 24//24 185//185
f 185//185 24//24 191//191
f 64//64 197//197 194//194
f 194//194 197//197 189//189
f 194//194 189//189 195//195
f 195//195 189//189 191//191
f 36//36 23//23 186//186
f 186//186 23//23 190//190
f 17//17 20//20 16//16
f 32//32 38//38 30//30
f 29//29 40//40 34//34
f 35//35 39//39 50//50
f 35//35 50//50 33//33
f 33//33 37//37 32//32
f 32//32 37//37 38//38
f 38//38 53//53 29//29
f 40//40 41//41 195//195
f 73//73 8//8 71//71
f 41//41 92//92 91//91
f 41//41 61//61 195//195
f 82//82 81//81 75//75
f 96//96 133//133 11//11
f 133//133 115//115 103//103
f 103//103 115//115 104//104
f 79//79 83//83 100//100
f 195//195 61//61 194//194
f 194//194 61//61 2//2
f 65//65 63//63 80//80
f 65//65 80//80 66//66
f 66//66 80//80 82//82
f 63//63 65//65 77//77
f 63//63 77//77 62//62
f 194//194 2//2 64//64
f 65//65 66//66 78//78
f 82//82 74//74 90//90
f 65//65 78//78 77//77
f 2//2 85//85 84//84
f 2//2 84//84 64//64
f 161//161 175//175 165//165
f 184//184 21//21 198//198
f 198//198 192//192 199//199
f 199//199 192//192 196//196
f 143//143 144//144 160//160
f 145//145 161//161 165//165
f 153//153 184//184 198//198
f 183//183 196//196 200//200
f 186//186 200//200 197//197
f 193//193 84//84 36//36
f 36//36 84//84 88//88
f 28//28 21//21 19//19
f 20//20 17//17 22//22
f 184//184 19//19 21//21
f 196//196 192//192 185//185
f 196//196 185//185 200//200
f 200//200 189//189 197//197
f 197//197 64//64 193//193
f 193//193 64//64 84//84
f 36//36 88//88 39//39
f 53//53 40//40 29//29
f 40//40 195//195 34//34
f 34//34 195//195 191//191
f 168//168 171//171 167//167
f 102//102 8//8 73//73
f 72//72 71//71 70//70
f 55//55 94//94 47//47
# 400 faces, 0 coords texture

# End of File
