# https://github.com/mikedh/trimesh
v 0.00156399 0.06396240 0.02000000
v 0.00156399 0.03145056 0.02000000
v 0.00156399 0.06396240 -0.02000000
v -0.01731385 0.06396240 -0.02000000
v -0.01731385 0.04375400 0.02000000
v -0.01221990 0.03145056 -0.02000000
v -0.01731385 0.06396240 0.02000000
v 0.00156399 0.03145056 -0.02000000
v -0.01731385 0.04375400 -0.02000000
v -0.01221990 0.03145056 0.02000000
f 1 2 3
f 1 3 4
f 5 2 1
f 6 4 3
f 7 5 1
f 7 1 4
f 7 4 5
f 8 6 3
f 8 3 2
f 8 2 6
f 9 6 5
f 9 5 4
f 9 4 6
f 10 6 2
f 10 2 5
f 10 5 6

