# OBJ generated by ONSHAPE BY PTC INC, 1.201 Units = meters
mtllib smaller_i.mtl
g Part 1
v -0.039338 -0.0542668 0.02 
v -0.039338 -0.0542668 -0.02 
v -0.039338 -0.0744751 -0.02 
v -0.039338 -0.0744751 0.02 
v 0.0397593 -0.0744751 -0.02 
v 0.0397593 -0.0744751 0.02 
v 0.0397593 -0.0542668 -0.02 
v 0.0397593 -0.0542668 0.02 
v 0.0115648 -0.0542668 -0.02 
v 0.0115648 -0.0542668 0.02 
v 0.0115648 0.043754 -0.02 
v 0.0115648 0.043754 0.02 
v 0.0386481 0.043754 -0.02 
v 0.0386481 0.043754 0.02 
v 0.0386481 0.0639624 -0.02 
v 0.0386481 0.0639624 0.02 
v -0.0377755 0.0639624 -0.02 
v -0.0377755 0.0639624 0.02 
v -0.0377755 0.043754 -0.02 
v -0.0377755 0.043754 0.02 
v -0.0122199 -0.0542668 0.02 
v -0.0122199 0.043754 0.02 
v -0.0122199 -0.0542668 -0.02 
v -0.0122199 0.043754 -0.02 
vn -1 0 0 
vn 0 -1 0 
vn 1 0 0 
vn 0 1 0 
vn 0 -1 0 
vn 1 0 0 
vn 0 1 0 
vn -1 0 0 
vn 0 0 1 
vn 0 0 -1 
vn 0 -1 0 
vn -1 0 0 
vn 0 1 0 
usemtl 0.615686_0.811765_0.929412_0.000000_0.000000
o mesh0
f 1//1 2//1 3//1 
f 3//1 4//1 1//1 
o mesh1
f 4//2 3//2 5//2 
f 5//2 6//2 4//2 
o mesh2
f 6//3 5//3 7//3 
f 7//3 8//3 6//3 
o mesh3
f 8//4 7//4 9//4 
f 9//4 10//4 8//4 
o mesh4
f 10//3 9//3 11//3 
f 11//3 12//3 10//3 
o mesh5
f 12//5 11//5 13//5 
f 13//5 14//5 12//5 
o mesh6
f 14//6 13//6 15//6 
f 15//6 16//6 14//6 
o mesh7
f 16//7 15//7 17//7 
f 17//7 18//7 16//7 
o mesh8
f 18//8 17//8 19//8 
f 19//8 20//8 18//8 
o mesh9
f 4//9 10//9 21//9 
f 22//9 21//9 10//9 
f 10//9 12//9 22//9 
f 18//9 20//9 22//9 
f 16//9 18//9 12//9 
f 22//9 12//9 18//9 
f 21//9 1//9 4//9 
f 6//9 8//9 10//9 
f 10//9 4//9 6//9 
f 12//9 14//9 16//9 
o mesh10
f 5//10 23//10 9//10 
f 11//10 9//10 23//10 
f 23//10 24//10 11//10 
f 15//10 13//10 11//10 
f 17//10 15//10 24//10 
f 11//10 24//10 15//10 
f 9//10 7//10 5//10 
f 3//10 2//10 23//10 
f 23//10 5//10 3//10 
f 24//10 19//10 17//10 
o mesh11
f 20//11 19//11 24//11 
f 24//11 22//11 20//11 
o mesh12
f 22//12 24//12 23//12 
f 23//12 21//12 22//12 
o mesh13
f 21//13 23//13 2//13 
f 2//13 1//13 21//13 
