# https://github.com/mikedh/trimesh
v 0.01156480 -0.03776819 0.02000000
v 0.01414922 -0.05454849 0.02000000
v 0.01414922 -0.05426680 -0.02000000
v -0.01221990 -0.03776819 -0.02000000
v -0.01731385 -0.05454849 0.02000000
v 0.01156480 -0.03776819 -0.02000000
v 0.01414922 -0.05426680 0.02000000
v -0.01221990 -0.03776819 0.02000000
v -0.01731385 -0.05454849 -0.02000000
v -0.01731385 -0.05426680 0.02000000
v 0.01414922 -0.05454849 -0.02000000
v -0.01731385 -0.05426680 -0.02000000
f 5 2 1
f 6 1 3
f 6 3 4
f 6 4 1
f 7 1 2
f 7 2 3
f 7 3 1
f 8 5 1
f 8 1 4
f 9 2 5
f 9 4 3
f 10 8 4
f 10 5 8
f 10 9 5
f 11 9 3
f 11 3 2
f 11 2 9
f 12 10 4
f 12 4 9
f 12 9 10

