# https://github.com/mikedh/trimesh
v 0.03587870 0.11394966 0.01910995
v 0.05281162 0.02466668 -0.00260354
v 0.04229415 0.10623107 -0.02771008
v -0.03185701 0.11295236 -0.02588496
v -0.04538633 0.02416718 0.02123128
v -0.00550972 0.01396980 -0.02593282
v -0.02238860 0.12931095 -0.00205492
v 0.06031464 0.11119019 -0.00020396
v 0.02132655 0.02646580 0.01927501
v 0.02896111 0.01326173 -0.02650662
v 0.02599548 0.03660060 -0.03004274
v -0.04331721 0.05247414 -0.02297979
v -0.02915824 0.12159038 -0.02205357
v -0.03258274 0.11608233 0.02099694
v 0.05811931 0.09069872 0.01059252
v 0.05434240 0.09938184 -0.01622234
v 0.04779173 0.11943198 -0.00263023
v 0.00278679 0.11131857 0.02130986
v 0.03406787 0.01400104 -0.00771806
v 0.03063541 0.07499846 -0.03034852
v 0.02194966 0.01289897 -0.02669967
v 0.03845951 0.03360208 -0.02579704
v -0.05170479 0.02395854 0.01271735
v -0.04024883 0.05228822 -0.02455797
v 0.00784458 0.11392801 -0.02582296
v -0.01832449 0.12294969 0.01655377
v -0.04296401 0.12203093 -0.00067985
v 0.05650105 0.10997563 0.01023205
v 0.05694434 0.05554664 -0.00272244
v 0.03661890 0.09909030 0.01936296
v 0.04869137 0.10904511 -0.02026439
v 0.04101283 0.11467110 -0.01866234
v -0.02421195 0.02443496 0.02136320
v -0.04239082 0.05087581 0.02163673
v -0.00785437 0.11866838 0.02091795
v 0.03245664 0.01301647 -0.02421650
v 0.01926123 0.02439888 0.01930638
v -0.00152713 0.01474452 0.00465836
v -0.03094986 0.10458782 -0.02610691
v 0.03204374 0.10617593 -0.02771619
v 0.02558596 0.03363646 -0.02975649
v 0.03449234 0.03157540 -0.02753081
v 0.04665729 0.10238974 -0.02568557
v 0.03998300 0.03325330 -0.02429671
v -0.00531619 0.04106710 -0.02793880
v -0.03740902 0.11216897 -0.02393019
v 0.02517308 0.11709493 0.01835997
v -0.03286957 0.12912583 -0.00465006
v -0.03790863 0.11047223 0.01822692
v -0.05341704 0.05279585 -0.00476948
v 0.05791697 0.10633592 0.01014671
v 0.05312698 0.11286943 0.01045072
v 0.05504584 0.03911554 -0.00238717
v 0.06057528 0.10505175 0.00070761
v 0.00271164 0.11484556 0.02132204
v 0.06026150 0.11212461 -0.00221653
v -0.02870150 0.12508483 -0.01469247
v 0.01056545 0.12554354 -0.00221045
v 0.04106973 0.11276531 -0.02286127
v -0.04911856 0.02419801 0.01824810
v -0.02765369 0.12094502 0.02013833
v 0.01225746 0.01528590 0.00239720
v 0.02735202 0.03382240 -0.02967441
v 0.03696489 0.07428084 -0.02983182
vn 0.26139616 0.50865867 0.82032823
vn 0.84707476 -0.50501211 0.16561131
vn 0.31268325 0.33203704 -0.88993291
vn -0.20277924 0.25249771 -0.94611072
vn -0.31474758 -0.54579276 0.77655922
vn -0.21805195 -0.73354594 -0.64371088
vn 0.03935227 0.99920157 0.00690142
vn 0.89926228 0.38266540 0.21188334
vn 0.32545398 -0.22650113 0.91802884
vn 0.21287967 -0.64392717 -0.73487417
vn 0.03972609 -0.04785110 -0.99806418
vn -0.69008178 -0.19277903 -0.69758397
vn -0.22901574 0.71584806 -0.65963122
vn -0.41749244 0.35033564 0.83843008
vn 0.77678850 -0.06799566 0.62608004
vn 0.85168180 0.03399992 -0.52295518
vn 0.34300533 0.93792063 -0.05149989
vn 0.03530544 -0.00524654 0.99936280
vn 0.27061292 -0.93958381 0.20964472
vn 0.01363111 0.02574129 -0.99957570
vn -0.00793232 -0.76942706 -0.63868543
vn 0.57256666 -0.13780139 -0.80819441
vn -0.81210331 -0.58163665 0.04676559
vn -0.33191707 -0.14249637 -0.93248370
vn 0.04250247 0.50667767 -0.86108726
vn 0.04215823 0.89312342 0.44783172
vn -0.83084216 0.55399219 0.05285795
vn 0.65080243 0.42498426 0.62916180
vn 0.97919498 -0.11085748 -0.16996414
vn 0.23072694 -0.00641794 0.97299737
vn 0.65759285 0.49462297 -0.56826030
vn 0.20799054 0.89895167 -0.38552021
vn 0.01794278 -0.49302474 0.86983025
vn -0.38524435 0.04819601 0.92155517
vn 0.04358723 0.49052155 0.87033830
vn 0.45606087 -0.77595889 -0.43577092
vn 0.18057180 -0.54155416 0.82104380
vn -0.03168614 -0.96139163 0.27335347
vn -0.12465127 0.00826683 -0.99216618
vn -0.00550112 0.15729362 -0.98753656
vn -0.00009089 -0.11558710 -0.99329734
vn 0.36784409 -0.12935685 -0.92084610
vn 0.64400389 0.10639835 -0.75758721
vn 0.74678219 -0.17898346 -0.64053203
vn -0.08972697 -0.03968470 -0.99517546
vn -0.67222809 0.29662694 -0.67832282
vn 0.13903174 0.78544468 0.60311428
vn -0.33388683 0.93794416 -0.09370346
vn -0.76669695 0.21422226 0.60521451
vn -0.98746153 -0.03297760 -0.15437683
vn 0.75558530 0.12409564 0.64318825
vn 0.44976386 0.71887972 0.53002304
vn 0.98440757 -0.14620356 -0.09780729
vn 0.99965452 -0.00724024 0.02526693
vn 0.04644867 0.14191218 0.98878888
vn 0.83982682 0.52077373 -0.15325024
vn -0.00286862 0.91393529 -0.40584978
vn 0.13043630 0.99048739 -0.04383029
vn 0.28226307 0.74855792 -0.59999051
vn -0.66459504 -0.54432391 0.51188368
vn -0.20831570 0.65539049 0.72599440
vn 0.10803248 -0.92007280 0.37655679
vn 0.16243047 -0.10363903 -0.98126209
vn 0.31225957 -0.02229751 -0.94973511
f 15//15 9//9 2//2
f 23//23 12//12 6//6
f 24//24 6//6 12//12
f 25//25 4//4 13//13
f 30//30 9//9 15//15
f 30//30 18//18 9//9
f 33//33 9//9 18//18
f 34//34 5//5 33//33
f 36//36 2//2 19//19
f 36//36 10//10 22//22
f 36//36 21//21 10//10
f 37//37 19//19 2//2
f 37//37 2//2 9//9
f 37//37 9//9 33//33
f 38//38 6//6 21//21
f 38//38 36//36 19//19
f 38//38 21//21 36//36
f 38//38 23//23 6//6
f 38//38 33//33 5//5
f 38//38 37//37 33//33
f 39//39 4//4 20//20
f 39//39 24//24 4//4
f 40//40 20//20 4//4
f 40//40 3//3 20//20
f 40//40 25//25 3//3
f 40//40 4//4 25//25
f 41//41 10//10 21//21
f 41//41 21//21 6//6
f 41//41 6//6 11//11
f 42//42 22//22 10//10
f 43//43 31//31 16//16
f 43//43 3//3 31//31
f 44//44 36//36 22//22
f 44//44 2//2 36//36
f 44//44 43//43 16//16
f 44//44 22//22 43//43
f 45//45 11//11 6//6
f 45//45 6//6 24//24
f 45//45 24//24 39//39
f 45//45 39//39 20//20
f 45//45 20//20 11//11
f 46//46 24//24 12//12
f 46//46 4//4 24//24
f 46//46 27//27 13//13
f 46//46 13//13 4//4
f 47//47 35//35 1//1
f 47//47 26//26 35//35
f 48//48 13//13 27//27
f 49//49 27//27 23//23
f 49//49 14//14 27//27
f 49//49 34//34 14//14
f 50//50 12//12 23//23
f 50//50 23//23 27//27
f 50//50 46//46 12//12
f 50//50 27//27 46//46
f 51//51 8//8 28//28
f 51//51 28//28 1//1
f 51//51 30//30 15//15
f 51//51 1//1 30//30
f 52//52 1//1 28//28
f 52//52 47//47 1//1
f 52//52 17//17 47//47
f 53//53 29//29 15//15
f 53//53 15//15 2//2
f 53//53 16//16 29//29
f 53//53 44//44 16//16
f 53//53 2//2 44//44
f 54//54 15//15 29//29
f 54//54 51//51 15//15
f 54//54 8//8 51//51
f 55//55 30//30 1//1
f 55//55 18//18 30//30
f 55//55 1//1 35//35
f 55//55 35//35 14//14
f 55//55 14//14 34//34
f 55//55 34//34 33//33
f 55//55 33//33 18//18
f 56//56 16//16 31//31
f 56//56 8//8 54//54
f 56//56 54//54 29//29
f 56//56 29//29 16//16
f 56//56 17//17 52//52
f 56//56 52//52 28//28
f 56//56 28//28 8//8
f 57//57 48//48 7//7
f 57//57 13//13 48//48
f 58//58 17//17 32//32
f 58//58 47//47 17//17
f 58//58 7//7 26//26
f 58//58 26//26 47//47
f 58//58 57//57 7//7
f 58//58 32//32 57//57
f 59//59 25//25 13//13
f 59//59 57//57 32//32
f 59//59 13//13 57//57
f 59//59 3//3 25//25
f 59//59 31//31 3//3
f 59//59 56//56 31//31
f 59//59 32//32 17//17
f 59//59 17//17 56//56
f 60//60 5//5 34//34
f 60//60 38//38 5//5
f 60//60 23//23 38//38
f 60//60 49//49 23//23
f 60//60 34//34 49//49
f 61//61 35//35 26//26
f 61//61 14//14 35//35
f 61//61 26//26 7//7
f 61//61 7//7 48//48
f 61//61 48//48 27//27
f 61//61 27//27 14//14
f 62//62 38//38 19//19
f 62//62 19//19 37//37
f 62//62 37//37 38//38
f 63//63 41//41 11//11
f 63//63 10//10 41//41
f 63//63 42//42 10//10
f 64//64 20//20 3//3
f 64//64 3//3 43//43
f 64//64 43//43 22//22
f 64//64 22//22 42//42
f 64//64 42//42 63//63
f 64//64 63//63 11//11
f 64//64 11//11 20//20

