# https://github.com/mikedh/trimesh
v 0.05956495 -0.00153997 0.01083036
v 0.04657630 -0.09240064 0.01083739
v 0.03629441 -0.06782451 -0.02630616
v 0.00046088 -0.02321297 -0.02677615
v 0.00137568 -0.03687494 0.02131530
v 0.00156259 -0.09716784 -0.01400325
v 0.04205467 -0.01152505 -0.02294909
v 0.05691291 -0.03624981 -0.00245515
v 0.03236919 -0.06585025 0.02107784
v -0.00290559 -0.02232208 0.00244546
v 0.03732842 -0.09299074 -0.01501700
v 0.01621684 -0.09305761 -0.02785370
v 0.03027030 -0.03304711 -0.02993036
v 0.04940558 -0.00189357 -0.00364138
v 0.05914135 -0.02414244 0.00242774
v 0.06141796 -0.00135234 -0.00185539
v 0.05291010 -0.05720284 0.01065834
v 0.03241604 -0.03695252 0.01972037
v 0.00086025 -0.09284953 0.02057890
v 0.04711537 -0.00165072 0.01220042
v 0.00063526 -0.06924110 -0.02461678
v 0.04698899 -0.09264845 -0.00437991
v 0.01498338 -0.09382848 -0.02720330
v 0.03309877 -0.07095929 -0.02775590
v 0.03708903 -0.03676939 -0.02776943
v 0.03082315 -0.02408045 -0.02782607
v 0.02175277 -0.06558372 -0.02983410
v 0.04059247 -0.01204232 -0.02386841
v 0.04431718 -0.03788037 -0.02021701
v 0.05916984 -0.02453282 0.00134230
v 0.06113417 -0.00128912 0.00452258
v 0.05487779 -0.04291484 0.01041072
v 0.00137927 -0.09652558 0.00744310
v 0.01584241 -0.09342147 0.01810052
v -0.00324653 -0.02884266 0.00152452
v 0.04759193 -0.00143399 0.01205796
v 0.00137852 -0.09270676 -0.02390762
v 0.01693023 -0.09553726 -0.01492950
v 0.04022618 -0.07090916 -0.02025249
v 0.03462836 -0.07248991 -0.02585703
v 0.02908365 -0.08427279 -0.02423958
v 0.02988270 -0.06750124 -0.02988159
v 0.02701106 -0.03332477 -0.02975166
v 0.03551567 -0.02551196 -0.02767927
v 0.03732615 -0.02905498 -0.02760920
v 0.04535308 -0.01093143 -0.02021278
v 0.05901931 -0.02237459 -0.00146407
v 0.05689471 -0.03866411 0.00185350
v 0.06109519 -0.00610313 -0.00124862
v 0.05472552 -0.04691335 0.00878787
v 0.05680506 -0.02629578 0.01063548
v 0.00516254 -0.09619521 0.00822296
v 0.00280898 -0.09365302 0.02009641
v 0.02785886 -0.06948806 -0.02994522
v 0.03235432 -0.02392773 -0.02770228
v 0.04856432 -0.08408615 0.00249521
v 0.05263423 -0.06126573 0.00692417
v 0.05474821 -0.04898256 0.00672463
vn 0.58111030 0.57304038 0.57787156
vn 0.60488913 -0.63947512 0.47453209
vn 0.65694784 -0.13826441 -0.74114944
vn -0.63357450 0.46138563 -0.62105285
vn -0.57740787 0.22376004 0.78519526
vn -0.62207863 -0.77602492 -0.10393988
vn 0.35080251 0.56399456 -0.74756119
vn 0.93050049 -0.13645806 -0.33992356
vn 0.23986473 -0.07154292 0.96816658
vn -0.79241358 0.57841303 0.19369841
vn 0.46330964 -0.73636842 -0.49305753
vn 0.10733837 -0.47994528 -0.87070718
vn 0.10790063 0.08674622 -0.99036990
vn -0.14312791 0.96269152 -0.22965070
vn 0.98187814 -0.11713426 0.14897946
vn 0.71110826 0.63061338 -0.31088874
vn 0.81853411 -0.13066133 0.55940104
vn 0.13593216 0.09574387 0.98608091
vn -0.60786290 -0.42785342 0.66891266
vn -0.19758859 0.69625079 0.69006781
vn -0.84521721 -0.04003997 -0.53292088
vn 0.69751206 -0.67816312 -0.23145560
vn -0.04250442 -0.78584060 -0.61696671
vn 0.48724501 -0.23986230 -0.83967754
vn 0.52812307 -0.01984613 -0.84893590
vn 0.00723937 0.26936866 -0.96300993
vn -0.10649354 -0.02089788 -0.99409376
vn 0.13143995 0.59759382 -0.79095206
vn 0.76917314 -0.06541598 -0.63568343
vn 0.99041180 -0.13396770 -0.03372114
vn 0.74213508 0.65968918 0.11851462
vn 0.90737374 -0.11580125 0.40405812
vn -0.61622222 -0.78365120 0.07849193
vn 0.14871742 -0.70221357 0.69626089
vn -0.99896376 0.01244304 0.04377871
vn -0.10134270 0.86453662 0.49224597
vn -0.68114532 -0.43925006 -0.58574776
vn 0.10800383 -0.98974914 -0.09344418
vn 0.80389998 -0.15098051 -0.57528229
vn 0.61801017 -0.30006501 -0.72665289
vn 0.48378290 -0.36384162 -0.79597323
vn 0.26904370 -0.08437611 -0.95942491
vn -0.07330451 0.06109503 -0.99543651
vn 0.21545038 0.17429935 -0.96083343
vn 0.47961427 0.04731164 -0.87620304
vn 0.64095610 0.24605540 -0.72707085
vn 0.95635823 -0.12081858 -0.26604852
vn 0.98652580 -0.16351747 0.00537359
vn 0.98187266 -0.10027570 -0.16084423
vn 0.97034325 -0.13416414 0.20108197
vn 0.79704179 -0.09537396 0.59634570
vn 0.06817635 -0.98976227 0.12538992
vn -0.01450896 -0.73561781 0.67724141
vn 0.08470402 -0.10352575 -0.99101345
vn 0.08102707 0.24094632 -0.96715019
vn 0.98198309 -0.18735753 0.02462462
vn 0.98165956 -0.17672553 0.07150237
vn 0.98089168 -0.15789312 0.11367182
f 14//14 4//4 10//10
f 16//16 7//7 14//14
f 17//17 9//9 2//2
f 17//17 1//1 9//9
f 18//18 9//9 1//1
f 18//18 5//5 9//9
f 19//19 9//9 5//5
f 20//20 10//10 5//5
f 20//20 18//18 1//1
f 20//20 5//5 18//18
f 22//22 2//2 6//6
f 22//22 11//11 3//3
f 23//23 12//12 11//11
f 26//26 13//13 4//4
f 27//27 12//12 4//4
f 28//28 14//14 7//7
f 28//28 4//4 14//14
f 28//28 26//26 4//4
f 29//29 16//16 8//8
f 29//29 3//3 25//25
f 31//31 1//1 15//15
f 33//33 19//19 6//6
f 34//34 2//2 9//9
f 34//34 9//9 19//19
f 35//35 6//6 19//19
f 35//35 10//10 4//4
f 35//35 4//4 21//21
f 35//35 19//19 5//5
f 35//35 5//5 10//10
f 36//36 14//14 10//10
f 36//36 10//10 20//20
f 36//36 16//16 14//14
f 36//36 31//31 16//16
f 36//36 20//20 1//1
f 36//36 1//1 31//31
f 37//37 21//21 4//4
f 37//37 4//4 12//12
f 37//37 12//12 23//23
f 37//37 23//23 6//6
f 37//37 35//35 21//21
f 37//37 6//6 35//35
f 38//38 22//22 6//6
f 38//38 11//11 22//22
f 38//38 23//23 11//11
f 38//38 6//6 23//23
f 39//39 22//22 3//3
f 39//39 8//8 22//22
f 39//39 29//29 8//8
f 39//39 3//3 29//29
f 40//40 24//24 3//3
f 40//40 3//3 11//11
f 40//40 11//11 24//24
f 41//41 24//24 11//11
f 41//41 11//11 12//12
f 41//41 12//12 24//24
f 42//42 13//13 25//25
f 42//42 24//24 12//12
f 42//42 25//25 3//3
f 42//42 3//3 24//24
f 43//43 27//27 4//4
f 43//43 4//4 13//13
f 43//43 13//13 27//27
f 45//45 28//28 7//7
f 45//45 44//44 28//28
f 45//45 25//25 13//13
f 45//45 13//13 44//44
f 46//46 29//29 25//25
f 46//46 7//7 16//16
f 46//46 16//16 29//29
f 46//46 45//45 7//7
f 46//46 25//25 45//45
f 47//47 30//30 8//8
f 48//48 22//22 8//8
f 48//48 8//8 30//30
f 48//48 30//30 15//15
f 49//49 16//16 31//31
f 49//49 30//30 47//47
f 49//49 47//47 8//8
f 49//49 8//8 16//16
f 49//49 31//31 15//15
f 49//49 15//15 30//30
f 50//50 32//32 17//17
f 50//50 17//17 15//15
f 50//50 15//15 32//32
f 51//51 32//32 15//15
f 51//51 15//15 1//1
f 51//51 1//1 17//17
f 51//51 17//17 32//32
f 52//52 33//33 6//6
f 52//52 6//6 2//2
f 52//52 2//2 34//34
f 53//53 34//34 19//19
f 53//53 19//19 33//33
f 53//53 52//52 34//34
f 53//53 33//33 52//52
f 54//54 27//27 13//13
f 54//54 13//13 42//42
f 54//54 42//42 12//12
f 54//54 12//12 27//27
f 55//55 44//44 13//13
f 55//55 13//13 26//26
f 55//55 26//26 28//28
f 55//55 28//28 44//44
f 56//56 2//2 22//22
f 56//56 22//22 48//48
f 57//57 17//17 2//2
f 57//57 56//56 48//48
f 57//57 2//2 56//56
f 58//58 48//48 15//15
f 58//58 15//15 17//17
f 58//58 57//57 48//48
f 58//58 17//17 57//57

