# https://github.com/mikedh/trimesh
v 0.07038916 0.10293886 0.02469525
v 0.06844352 0.02304869 0.01633931
v 0.07681915 0.08911343 0.00252490
v 0.06608403 0.08887769 0.00131339
v 0.03828450 0.02288635 0.02476788
v 0.05942688 0.03308584 0.00183145
v 0.05252093 0.11485785 0.01670726
v 0.07316528 0.07494833 0.01956064
v 0.06154258 0.02326948 0.02457114
v 0.07143927 0.03362707 0.00361743
v 0.07528910 0.06859976 0.00253673
v 0.03835662 0.02291712 0.01788531
v 0.07207478 0.11027718 0.01590316
v 0.05276950 0.11247291 0.02464276
v 0.07288788 0.10285106 0.02164802
v 0.04893531 0.02287330 0.02492437
v 0.06768533 0.06290311 0.02483948
v 0.06018895 0.05769856 0.00109878
v 0.07300221 0.04590096 0.00311795
v 0.07299661 0.04611000 0.01184157
v 0.03914821 0.06404794 0.01559805
v 0.06627851 0.11176664 0.02183385
v 0.07542785 0.08918661 0.01414785
v 0.07310592 0.08907825 0.02128401
v 0.07339184 0.10849888 0.01576486
v 0.07014976 0.09729925 0.02482702
v 0.06709516 0.02331341 0.01994894
v 0.07537168 0.06845975 0.00615870
v 0.07311694 0.04182842 0.00498848
v 0.03816173 0.04067822 0.02303548
v 0.04110385 0.07648855 0.01576473
v 0.06895368 0.11177251 0.01656295
v 0.05247113 0.11407775 0.02373543
v 0.05825460 0.11243419 0.02445057
v 0.07103400 0.10576839 0.02351864
v 0.07108334 0.07914247 0.02282152
v 0.07312256 0.10610209 0.01949006
v 0.06500762 0.02930875 0.02303914
v 0.06904071 0.03345166 0.01882117
v 0.07297644 0.04394101 0.01037619
v 0.06384807 0.08454012 0.00121698
v 0.06797675 0.11133909 0.02011762
v 0.05863644 0.11360419 0.02056505
v 0.05639934 0.11337389 0.02361499
v 0.06435149 0.10851743 0.02447347
v 0.07305544 0.10787426 0.01733245
v 0.06178268 0.07262729 0.00126648
v 0.06813598 0.11037412 0.02242428
vn 0.43492788 0.08966331 0.89599008
vn 0.62224136 -0.77824236 -0.08458435
vn 0.73910602 0.21349942 -0.63885858
vn -0.10830973 0.27374298 -0.95568498
vn -0.58368384 -0.57599165 0.57231703
vn -0.17438386 -0.40207057 -0.89884900
vn -0.46691595 0.78898632 -0.39936209
vn 0.89879186 -0.07527444 0.43186451
vn 0.24267917 -0.64448217 0.72508590
vn 0.65883100 -0.41791984 -0.62552755
vn 0.73205427 -0.06445248 -0.67819055
vn -0.66382920 -0.63896380 -0.38865931
vn 0.56782752 0.77544129 -0.27615704
vn -0.38662294 0.24799209 0.88826946
vn 0.89167421 0.08382070 0.44484962
vn 0.00606305 -0.70737718 0.70681028
vn 0.43814598 -0.04890717 0.89757239
vn -0.24739080 0.00024522 -0.96891575
vn 0.64486177 -0.08926693 -0.75906832
vn 0.96897776 -0.09742985 0.22713328
vn -0.93775147 0.10639841 -0.33060787
vn 0.31931460 0.85610116 0.40636066
vn 0.97970876 0.00844071 0.20024862
vn 0.86047352 -0.02632704 0.50881451
vn 0.88099882 0.46258689 -0.09926963
vn 0.40673738 -0.00665953 0.91352086
vn 0.61150177 -0.65185515 0.44849799
vn 0.99529988 -0.07098566 0.06587252
vn 0.98234741 -0.14462363 -0.11864897
vn -0.88462750 0.06172623 0.46219483
vn -0.94904813 0.19770540 -0.24539808
vn 0.29576806 0.89374407 -0.33725774
vn -0.48668095 0.73800029 0.46743686
vn 0.15283218 0.52795669 0.83540652
vn 0.61547786 0.35449930 0.70392986
vn 0.73679596 -0.06113777 0.67334529
vn 0.89622893 0.30468612 0.32239740
vn 0.63283395 -0.10517381 0.76711124
vn 0.88758856 -0.10916601 0.44751461
vn 0.98294494 -0.13199341 0.12805074
vn -0.28931075 0.10083296 -0.95190966
vn 0.48303422 0.83442837 0.26534362
vn 0.18194875 0.97575001 0.12168226
vn 0.18170962 0.90436660 0.38613814
vn 0.17885074 0.26953047 0.94623767
vn 0.76644140 0.51093720 0.38924383
vn -0.40040203 0.06104360 -0.91430405
vn 0.48154082 0.61852939 0.62091854
f 7//7 3//3 4//4
f 10//10 2//2 6//6
f 11//11 4//4 3//3
f 12//12 6//6 2//2
f 13//13 3//3 7//7
f 16//16 2//2 9//9
f 16//16 12//12 2//2
f 16//16 5//5 12//12
f 16//16 14//14 5//5
f 17//17 16//16 9//9
f 18//18 11//11 6//6
f 18//18 4//4 11//11
f 19//19 10//10 6//6
f 19//19 6//6 11//11
f 21//21 18//18 6//6
f 21//21 6//6 12//12
f 23//23 8//8 20//20
f 24//24 15//15 1//1
f 24//24 23//23 15//15
f 24//24 8//8 23//23
f 25//25 3//3 13//13
f 25//25 23//23 3//3
f 26//26 1//1 14//14
f 26//26 14//14 16//16
f 26//26 16//16 17//17
f 26//26 24//24 1//1
f 27//27 9//9 2//2
f 28//28 11//11 3//3
f 28//28 23//23 20//20
f 28//28 3//3 23//23
f 29//29 2//2 10//10
f 29//29 10//10 19//19
f 29//29 19//19 11//11
f 29//29 11//11 28//28
f 30//30 21//21 12//12
f 30//30 12//12 5//5
f 30//30 5//5 14//14
f 31//31 21//21 30//30
f 32//32 13//13 7//7
f 33//33 7//7 31//31
f 33//33 31//31 30//30
f 33//33 30//30 14//14
f 34//34 14//14 1//1
f 34//34 33//33 14//14
f 35//35 1//1 15//15
f 36//36 8//8 24//24
f 36//36 27//27 8//8
f 36//36 17//17 27//27
f 36//36 26//26 17//17
f 36//36 24//24 26//26
f 37//37 15//15 23//23
f 37//37 23//23 25//25
f 37//37 35//35 15//15
f 38//38 27//27 17//17
f 38//38 17//17 9//9
f 38//38 9//9 27//27
f 39//39 20//20 8//8
f 39//39 8//8 27//27
f 39//39 27//27 2//2
f 39//39 2//2 20//20
f 40//40 20//20 2//2
f 40//40 2//2 29//29
f 40//40 29//29 28//28
f 40//40 28//28 20//20
f 41//41 31//31 7//7
f 41//41 7//7 4//4
f 41//41 4//4 18//18
f 41//41 21//21 31//31
f 42//42 32//32 22//22
f 42//42 13//13 32//32
f 43//43 32//32 7//7
f 43//43 22//22 32//32
f 43//43 7//7 33//33
f 44//44 34//34 22//22
f 44//44 33//33 34//34
f 44//44 43//43 33//33
f 44//44 22//22 43//43
f 45//45 34//34 1//1
f 45//45 1//1 35//35
f 46//46 37//37 25//25
f 46//46 25//25 13//13
f 46//46 13//13 35//35
f 46//46 35//35 37//37
f 47//47 41//41 18//18
f 47//47 18//18 21//21
f 47//47 21//21 41//41
f 48//48 35//35 13//13
f 48//48 13//13 42//42
f 48//48 42//42 22//22
f 48//48 45//45 35//35
f 48//48 22//22 34//34
f 48//48 34//34 45//45

