# https://github.com/mikedh/trimesh
v -0.03969088 0.02875654 0.01704473
v -0.03145858 -0.05462932 0.01016940
v -0.03339202 -0.00259231 -0.00993362
v -0.05832317 0.02277251 -0.02510332
v -0.08059483 -0.05338482 0.00278019
v -0.06008896 -0.05060328 -0.02472331
v -0.04247792 0.02617873 -0.01747373
v -0.03490346 -0.00158475 0.02197096
v -0.06998103 0.02694516 0.00072091
v -0.03489425 -0.05323554 -0.01276783
v -0.07340061 -0.04590073 -0.01984087
v -0.06342887 -0.05292430 0.02417978
v -0.05983431 0.02599260 -0.02288734
v -0.06875142 -0.05245914 -0.02338711
v -0.04247183 0.01896763 -0.02064055
v -0.07962823 -0.04378057 -0.00569669
v -0.06866828 -0.05359425 0.02280531
v -0.03430007 -0.02343041 0.02026834
v -0.06118622 -0.00153698 0.02249579
v -0.05009971 0.02605031 -0.02275781
v -0.06344975 0.02043162 -0.02136579
v -0.05661943 -0.05213986 -0.02311252
v -0.07551489 -0.05222491 -0.01570917
v -0.07068480 -0.04507539 -0.02267897
v -0.06765074 -0.04866270 -0.02478071
v -0.05423302 -0.01564486 -0.02484052
v -0.07598337 -0.01044999 -0.00101458
v -0.05977619 -0.05312706 0.02407304
v -0.06129686 -0.02436158 0.02426782
v -0.04124450 -0.00150178 0.02225862
v -0.06462805 0.02726021 0.01350104
v -0.05575748 0.02327568 -0.02505755
v -0.04657958 0.02595828 -0.02142053
v -0.07389294 -0.01274990 -0.01166392
v -0.06982976 0.02653324 -0.00560635
v -0.06515493 -0.05076030 -0.02491792
v -0.07221540 -0.05221096 -0.02100695
v -0.07770374 -0.04566177 -0.01176844
v -0.06661414 -0.01029986 -0.02260891
v -0.05508569 -0.05064549 -0.02311696
v -0.04652517 0.02068578 -0.02290117
v -0.08000054 -0.04135737 0.00083075
v -0.04147892 -0.05333301 0.01651932
v -0.03709261 -0.01591290 0.02215822
v -0.05685738 -0.04508075 0.02417000
v -0.06480566 -0.01228286 0.02192990
v -0.06518242 -0.04724772 0.02403818
v -0.06008450 -0.02440261 0.02423611
v -0.04511691 0.02402683 -0.02121939
v -0.06949169 -0.01311842 -0.01971309
v -0.06742536 0.02612074 -0.01135936
v -0.07204966 0.01689895 -0.00081424
v -0.07596938 -0.01033832 -0.00237425
v -0.05861007 -0.04879947 -0.02475042
v -0.07384593 -0.05084080 -0.01936587
v -0.07038863 -0.05023647 -0.02305125
v -0.07998646 -0.05239331 -0.00540140
v -0.06217641 0.01888778 -0.02278934
v -0.04822910 0.02493041 -0.02271025
v -0.06946158 0.00852970 0.00876093
v -0.06748339 -0.00400978 0.01710127
v -0.05466194 -0.05271846 0.02255248
v -0.03695278 -0.01192332 0.02222522
v -0.06452263 -0.00181480 0.02054682
vn 0.49183549 0.70252739 0.51434727
vn 0.70577619 -0.65579775 0.26797254
vn 0.95011907 0.09029194 -0.29853162
vn -0.28253153 0.23730212 -0.92944265
vn -0.76639169 -0.61936728 0.17037591
vn 0.10325697 -0.37209804 -0.92243214
vn 0.62396985 0.71622122 -0.31255206
vn 0.69985362 0.12787340 0.70274697
vn -0.68643094 0.71826895 0.11358822
vn 0.63012578 -0.61739955 -0.47091325
vn -0.80981419 0.05415772 -0.58418141
vn -0.08006097 -0.45802936 0.88532443
vn -0.36774681 0.74784147 -0.55271640
vn -0.26106844 -0.74829490 -0.60983441
vn 0.71324023 0.10994237 -0.69224349
vn -0.97604940 0.07423525 -0.20449132
vn -0.49204555 -0.61258209 0.61857445
vn 0.72215226 -0.08168004 0.68689482
vn -0.25358270 0.15767518 0.95437642
vn 0.13315549 0.79386842 -0.59333174
vn -0.77153875 0.20874688 -0.60095981
vn 0.18869633 -0.75037755 -0.63350393
vn -0.68140489 -0.64775406 -0.34073751
vn -0.63807631 0.05381416 -0.76809026
vn -0.31570138 -0.05895870 -0.94702508
vn 0.24643861 -0.02748294 -0.96876865
vn -0.98556350 0.13727304 0.09909946
vn 0.10450990 -0.63876733 0.76226897
vn -0.18311152 0.04764783 0.98193679
vn 0.03255284 0.11274133 0.99309099
vn -0.49185826 0.68045645 0.54318917
vn 0.07352324 0.30850751 -0.94837622
vn 0.35939456 0.74195543 -0.56598382
vn -0.92005619 0.12751755 -0.37045361
vn -0.68410799 0.70338358 -0.19299685
vn -0.04008330 -0.37253587 -0.92715174
vn -0.55356181 -0.65712353 -0.51162289
vn -0.91708310 0.03885019 -0.39679875
vn -0.63995907 0.08294630 -0.76391904
vn 0.38863776 -0.22105542 -0.89448040
vn 0.39696399 0.08671314 -0.91372885
vn -0.98106024 0.10342301 0.16378184
vn 0.35044675 -0.57772333 0.73717219
vn 0.29371121 -0.05356410 0.95439227
vn 0.12898251 -0.04868466 0.99045107
vn -0.60536136 0.08654961 0.79123118
vn -0.25554860 0.02060816 0.96657654
vn 0.04619050 0.02692755 0.99856965
vn 0.58759947 0.29078802 -0.75509548
vn -0.81581020 0.10820870 -0.56810614
vn -0.67360012 0.64754166 -0.35630418
vn -0.98268784 0.15326023 0.10409567
vn -0.98288287 0.13600904 -0.12426908
vn 0.21977966 -0.09670016 -0.97074506
vn -0.82225030 -0.13198495 -0.55361035
vn -0.59615087 -0.11278239 -0.79491149
vn -0.81123095 -0.54362695 -0.21534645
vn -0.62886137 0.11417539 -0.76908865
vn 0.34040522 0.31508661 -0.88591462
vn -0.91142298 0.13277365 0.38946028
vn -0.84999842 0.11767169 0.51347449
vn 0.30441805 -0.47239010 0.82715007
vn 0.16527918 -0.01009002 0.98619521
vn -0.65678963 0.14796183 0.73941509
f 7//7 1//1 3//3
f 8//8 2//2 3//3
f 8//8 3//3 1//1
f 10//10 3//3 2//2
f 13//13 9//9 1//1
f 14//14 10//10 2//2
f 14//14 2//2 5//5
f 15//15 7//7 3//3
f 15//15 3//3 10//10
f 17//17 5//5 2//2
f 18//18 2//2 8//8
f 20//20 13//13 1//1
f 20//20 1//1 7//7
f 21//21 13//13 4//4
f 22//22 10//10 14//14
f 28//28 17//17 2//2
f 28//28 12//12 17//17
f 30//30 8//8 1//1
f 30//30 1//1 19//19
f 30//30 19//19 29//29
f 31//31 19//19 1//1
f 31//31 1//1 9//9
f 32//32 4//4 13//13
f 32//32 13//13 20//20
f 33//33 20//20 7//7
f 35//35 9//9 13//13
f 36//36 22//22 14//14
f 36//36 6//6 22//22
f 36//36 14//14 25//25
f 36//36 25//25 4//4
f 36//36 32//32 26//26
f 36//36 4//4 32//32
f 37//37 14//14 5//5
f 37//37 5//5 23//23
f 38//38 34//34 11//11
f 38//38 16//16 34//34
f 39//39 25//25 24//24
f 39//39 4//4 25//25
f 39//39 24//24 11//11
f 40//40 22//22 6//6
f 40//40 26//26 10//10
f 40//40 10//10 22//22
f 41//41 15//15 10//10
f 41//41 10//10 26//26
f 41//41 26//26 32//32
f 43//43 28//28 2//2
f 43//43 2//2 18//18
f 44//44 18//18 8//8
f 45//45 29//29 12//12
f 45//45 12//12 28//28
f 45//45 28//28 44//44
f 46//46 29//29 19//19
f 47//47 17//17 12//12
f 47//47 12//12 29//29
f 47//47 46//46 17//17
f 47//47 29//29 46//46
f 48//48 30//30 29//29
f 48//48 8//8 30//30
f 48//48 45//45 8//8
f 48//48 29//29 45//45
f 49//49 33//33 7//7
f 49//49 7//7 15//15
f 49//49 15//15 41//41
f 50//50 34//34 21//21
f 50//50 11//11 34//34
f 50//50 39//39 11//11
f 50//50 21//21 39//39
f 51//51 35//35 13//13
f 51//51 13//13 21//21
f 51//51 21//21 34//34
f 51//51 34//34 35//35
f 52//52 9//9 35//35
f 52//52 42//42 9//9
f 52//52 27//27 42//42
f 53//53 35//35 34//34
f 53//53 34//34 16//16
f 53//53 52//52 35//35
f 53//53 27//27 52//52
f 53//53 42//42 27//27
f 53//53 16//16 42//42
f 54//54 36//36 26//26
f 54//54 6//6 36//36
f 54//54 40//40 6//6
f 54//54 26//26 40//40
f 55//55 37//37 23//23
f 55//55 38//38 11//11
f 55//55 23//23 38//38
f 56//56 25//25 14//14
f 56//56 14//14 37//37
f 56//56 24//24 25//25
f 56//56 37//37 55//55
f 56//56 55//55 11//11
f 56//56 11//11 24//24
f 57//57 38//38 23//23
f 57//57 23//23 5//5
f 57//57 16//16 38//38
f 57//57 42//42 16//16
f 57//57 5//5 42//42
f 58//58 39//39 21//21
f 58//58 21//21 4//4
f 58//58 4//4 39//39
f 59//59 41//41 32//32
f 59//59 32//32 20//20
f 59//59 20//20 33//33
f 59//59 49//49 41//41
f 59//59 33//33 49//49
f 60//60 31//31 9//9
f 60//60 9//9 42//42
f 61//61 42//42 5//5
f 61//61 60//60 42//42
f 61//61 31//31 60//60
f 61//61 5//5 17//17
f 61//61 17//17 46//46
f 62//62 43//43 18//18
f 62//62 28//28 43//43
f 62//62 44//44 28//28
f 62//62 18//18 44//44
f 63//63 45//45 44//44
f 63//63 44//44 8//8
f 63//63 8//8 45//45
f 64//64 46//46 19//19
f 64//64 19//19 31//31
f 64//64 61//61 46//46
f 64//64 31//31 61//61

