# https://github.com/mikedh/trimesh
v 0.00874803 -0.06527074 -0.01990696
v 0.02910232 -0.11973625 -0.01995454
v 0.00922690 -0.07760086 -0.03407761
v -0.01647966 -0.07145402 -0.03451473
v -0.03961082 -0.11546921 -0.01945489
v -0.01012109 -0.06462748 -0.02862354
v 0.02672405 -0.09788351 -0.02245606
v -0.00171312 -0.06362413 -0.01921730
v 0.00893791 -0.11910344 -0.03456794
v 0.00950714 -0.06582196 -0.02137300
v -0.01156464 -0.06846256 -0.03246422
v -0.03613175 -0.06183996 -0.02143062
v 0.02929227 -0.10853216 -0.01955230
v 0.00865974 -0.12925338 -0.01951894
v 0.02259725 -0.11596266 -0.03275238
v -0.02422539 -0.10800702 -0.03459313
v 0.01761669 -0.11952548 -0.03466427
v 0.02498191 -0.09734977 -0.02554452
v -0.01019695 -0.06677618 -0.03059734
v -0.03836849 -0.06376462 -0.02554626
v -0.02384975 -0.11812884 -0.02883798
v 0.02740037 -0.12404555 -0.01941686
v 0.02829784 -0.11587051 -0.02349228
v 0.01894548 -0.10714050 -0.03433854
v 0.01238024 -0.12655062 -0.02712056
v -0.01783854 -0.06851030 -0.03291643
v -0.03825617 -0.06949415 -0.02938610
v -0.01974994 -0.06436715 -0.02822716
v -0.02591297 -0.12309911 -0.01937683
v -0.02032376 -0.11532042 -0.03238428
v -0.04010480 -0.10919934 -0.02718366
v 0.02120225 -0.11950649 -0.03324585
v 0.02631352 -0.11257638 -0.02719853
v 0.01956588 -0.11777890 -0.03459808
v 0.02270325 -0.11272726 -0.03249400
v 0.00960160 -0.12448386 -0.02910098
v 0.02008130 -0.12932053 -0.01962125
v -0.02451015 -0.10289799 -0.03448846
v -0.03840751 -0.06584823 -0.02757240
v -0.02519809 -0.12227108 -0.02162285
v -0.02239698 -0.10979925 -0.03454413
v -0.02360966 -0.11653570 -0.03064331
v -0.03975707 -0.11428402 -0.02119249
v -0.04043618 -0.10240724 -0.02892695
v 0.02625721 -0.11802152 -0.02714127
v 0.01758403 -0.12460952 -0.02925703
v 0.02837093 -0.11296080 -0.02331792
v 0.02494242 -0.12437109 -0.02301446
v -0.02806318 -0.11102230 -0.03256820
v -0.02715748 -0.12016345 -0.02315792
v -0.03968586 -0.07696912 -0.02826966
v 0.02861953 -0.11989227 -0.02157712
v 0.01966589 -0.12080098 -0.03301449
v 0.01413943 -0.12637555 -0.02717387
v 0.02346148 -0.12748731 -0.01963549
v 0.02430608 -0.11934148 -0.02900232
v -0.04018752 -0.10558737 -0.02890083
v -0.02567628 -0.11277310 -0.03237302
v 0.02103663 -0.12449843 -0.02711585
v 0.01971450 -0.12657295 -0.02497917
v 0.02682101 -0.12332065 -0.02122538
v 0.01922858 -0.12260050 -0.03098746
v 0.02007070 -0.12848711 -0.02124021
vn 0.39663661 0.73728593 0.54689017
vn 0.90550822 -0.16479552 0.39102085
vn 0.42258404 0.37043763 -0.82716304
vn -0.05139542 0.25406878 -0.96581963
vn -0.69187011 -0.54382382 0.47494359
vn 0.12398234 0.86289317 -0.48994260
vn 0.93690146 0.34434315 0.06036104
vn 0.09099097 0.77403631 0.62656878
vn -0.06157617 -0.42118309 -0.90488297
vn 0.63452363 0.74094006 -0.21997181
vn 0.11774195 0.57858251 -0.80708061
vn -0.42920885 0.75689437 0.49283941
vn 0.82777700 0.10671562 0.55081486
vn -0.09329935 -0.84341693 0.52909651
vn 0.69162192 -0.05285507 -0.72032316
vn -0.19435325 -0.10364666 -0.97544051
vn 0.08795070 -0.40203226 -0.91139165
vn 0.79446224 0.28463225 -0.53648320
vn 0.20726514 0.65315974 -0.72830180
vn -0.73692054 0.64927285 -0.18812996
vn -0.28999670 -0.75231693 -0.59154133
vn 0.69504337 -0.50829668 0.50847734
vn 0.92960518 -0.04034703 -0.36634181
vn 0.39427105 0.12294257 -0.91073347
vn -0.04436823 -0.85167535 -0.52218824
vn -0.06027752 0.58383974 -0.80962817
vn -0.60192981 0.22066215 -0.76745600
vn -0.02115694 0.85591719 -0.51667992
vn -0.30350028 -0.80854171 0.50413081
vn -0.15907014 -0.53359577 -0.83064568
vn -0.81153231 -0.37603237 -0.44723033
vn 0.57135328 -0.41093628 -0.71041312
vn 0.85500781 0.06349049 -0.51471410
vn 0.30977027 -0.10095422 -0.94543674
vn 0.68914764 0.08628514 -0.71946536
vn -0.10633411 -0.74470950 -0.65886328
vn 0.22775425 -0.85540958 0.46519077
vn -0.20223384 0.01532208 -0.97921740
vn -0.66463102 0.45346554 -0.59383046
vn -0.29338802 -0.83858312 -0.45902268
vn -0.12251003 -0.23793497 -0.96352387
vn -0.27731617 -0.63702886 -0.71922873
vn -0.84923675 -0.45025423 -0.27580442
vn -0.84765764 0.00130237 -0.53054201
vn 0.83114999 -0.22627360 -0.50792712
vn 0.16880914 -0.78578521 -0.59501688
vn 0.93116433 0.04091746 -0.36229649
vn 0.63167870 -0.62480513 -0.45891238
vn -0.35543579 -0.39005467 -0.84942495
vn -0.42384706 -0.75222540 -0.50449045
vn -0.96545098 0.05427467 -0.25486989
vn 0.89029034 -0.27679420 -0.36161870
vn 0.31101938 -0.66869755 -0.67535956
vn 0.09121131 -0.86169286 -0.49916521
vn 0.50102275 -0.75718687 0.41909933
vn 0.74086675 -0.43298502 -0.51345928
vn -0.75569833 -0.16083070 -0.63486496
vn -0.26804438 -0.47782563 -0.83656134
vn 0.46309558 -0.72263193 -0.51317207
vn 0.30951740 -0.82392050 -0.47471464
vn 0.74780686 -0.48560640 -0.45273759
vn 0.34947813 -0.74111240 -0.57325165
vn 0.29697299 -0.84305214 -0.44840845
f 8//8 1//1 6//6
f 10//10 6//6 1//1
f 10//10 3//3 6//6
f 10//10 1//1 7//7
f 11//11 3//3 4//4
f 12//12 8//8 6//6
f 12//12 5//5 8//8
f 13//13 7//7 1//1
f 13//13 1//1 8//8
f 17//17 16//16 4//4
f 18//18 10//10 7//7
f 18//18 3//3 10//10
f 19//19 11//11 6//6
f 19//19 6//6 3//3
f 19//19 3//3 11//11
f 20//20 5//5 12//12
f 22//22 2//2 13//13
f 22//22 13//13 8//8
f 24//24 3//3 18//18
f 26//26 11//11 4//4
f 26//26 6//6 11//11
f 27//27 26//26 4//4
f 28//28 20//20 12//12
f 28//28 12//12 6//6
f 28//28 26//26 20//20
f 28//28 6//6 26//26
f 29//29 14//14 22//22
f 29//29 22//22 8//8
f 29//29 8//8 5//5
f 33//33 18//18 7//7
f 34//34 3//3 24//24
f 34//34 17//17 4//4
f 34//34 4//4 3//3
f 34//34 24//24 15//15
f 34//34 32//32 17//17
f 34//34 15//15 32//32
f 35//35 24//24 18//18
f 35//35 15//15 24//24
f 35//35 33//33 15//15
f 35//35 18//18 33//33
f 36//36 9//9 17//17
f 36//36 17//17 25//25
f 36//36 25//25 21//21
f 37//37 22//22 14//14
f 37//37 14//14 25//25
f 38//38 27//27 4//4
f 38//38 4//4 16//16
f 39//39 20//20 26//26
f 39//39 26//26 27//27
f 40//40 29//29 5//5
f 40//40 21//21 25//25
f 40//40 25//25 14//14
f 40//40 14//14 29//29
f 41//41 9//9 30//30
f 41//41 17//17 9//9
f 41//41 16//16 17//17
f 42//42 30//30 9//9
f 42//42 21//21 31//31
f 42//42 36//36 21//21
f 42//42 9//9 36//36
f 43//43 31//31 21//21
f 43//43 40//40 5//5
f 44//44 38//38 16//16
f 44//44 27//27 38//38
f 44//44 31//31 43//43
f 44//44 43//43 5//5
f 45//45 32//32 15//15
f 45//45 33//33 23//23
f 45//45 15//15 33//33
f 46//46 25//25 17//17
f 47//47 33//33 7//7
f 47//47 7//7 13//13
f 47//47 23//23 33//33
f 47//47 13//13 2//2
f 47//47 2//2 23//23
f 49//49 16//16 41//41
f 49//49 42//42 31//31
f 50//50 43//43 21//21
f 50//50 21//21 40//40
f 50//50 40//40 43//43
f 51//51 39//39 27//27
f 51//51 27//27 44//44
f 51//51 20//20 39//39
f 51//51 44//44 5//5
f 51//51 5//5 20//20
f 52//52 2//2 22//22
f 52//52 45//45 23//23
f 52//52 23//23 2//2
f 53//53 46//46 17//17
f 53//53 17//17 32//32
f 54//54 37//37 25//25
f 54//54 25//25 46//46
f 55//55 48//48 22//22
f 55//55 22//22 37//37
f 56//56 48//48 32//32
f 56//56 32//32 45//45
f 57//57 44//44 16//16
f 57//57 16//16 49//49
f 57//57 49//49 31//31
f 57//57 31//31 44//44
f 58//58 49//49 41//41
f 58//58 41//41 30//30
f 58//58 30//30 42//42
f 58//58 42//42 49//49
f 59//59 48//48 55//55
f 59//59 53//53 32//32
f 59//59 32//32 48//48
f 60//60 54//54 46//46
f 60//60 46//46 59//59
f 60//60 59//59 55//55
f 61//61 56//56 45//45
f 61//61 45//45 52//52
f 61//61 52//52 22//22
f 61//61 22//22 48//48
f 61//61 48//48 56//56
f 62//62 59//59 46//46
f 62//62 46//46 53//53
f 62//62 53//53 59//59
f 63//63 37//37 54//54
f 63//63 54//54 60//60
f 63//63 60//60 55//55
f 63//63 55//55 37//37

