# https://github.com/mikedh/trimesh
v -0.02085602 -0.07872085 0.02287718
v -0.02001691 -0.12263968 0.02062433
v -0.02078542 -0.11701240 -0.02178437
v -0.06658975 -0.07782505 -0.02319743
v -0.07174541 -0.10299706 0.02064846
v -0.02033443 -0.07860145 -0.01257814
v -0.06173822 -0.11104714 0.02436817
v -0.07002318 -0.07881301 0.01951175
v -0.07626080 -0.11609640 -0.01338491
v -0.05604132 -0.07785884 -0.02334878
v -0.02004173 -0.11729955 0.02247151
v -0.01991164 -0.13197267 -0.00296455
v -0.07855903 -0.07801328 -0.00349749
v -0.06650662 -0.07896016 0.02299499
v -0.06889721 -0.10875499 -0.02462171
v -0.07666324 -0.11972679 0.00233730
v -0.02509808 -0.11679062 -0.02366028
v -0.04550529 -0.11144896 0.02435817
v -0.08166376 -0.10398277 0.00107672
v -0.07401056 -0.07781888 -0.01375515
v -0.07190481 -0.09526400 0.02055276
v -0.06832812 -0.11105028 0.02207014
v -0.06907516 -0.10535568 -0.02475066
v -0.06328359 -0.12573632 -0.00281559
v -0.02551924 -0.11993555 -0.02105107
v -0.04543040 -0.11028447 0.02445343
v -0.07843317 -0.07875073 0.00296987
v -0.08174230 -0.11301144 0.00067804
v -0.08199564 -0.10561434 -0.00729572
v -0.07199539 -0.07778617 -0.01771275
v -0.06847564 -0.08300094 0.02224455
v -0.06114777 -0.11760268 0.02043834
v -0.06421370 -0.10936695 -0.02458487
v -0.06212288 -0.10179256 -0.02451297
v -0.07467184 -0.12145748 -0.00297346
v -0.02552425 -0.11813313 -0.02277137
v -0.02103919 -0.11796988 -0.02107625
v -0.06718894 -0.11955118 -0.01533218
v -0.05816998 -0.10178034 0.02459139
v -0.08208384 -0.10406061 -0.00582720
v -0.07350184 -0.09337592 0.01729667
v -0.07355963 -0.10728466 0.01712835
v -0.07176123 -0.11115136 0.01870622
v -0.08191724 -0.11103514 -0.00760029
v -0.07410959 -0.10252105 -0.02075686
v -0.07753265 -0.10246671 -0.01556534
v -0.06951069 -0.08293971 0.02104035
v -0.06114173 -0.11565233 0.02253473
v -0.06914935 -0.12349432 0.00251599
v -0.01995262 -0.13203944 0.00266720
v -0.03384071 -0.11847340 -0.02335183
v -0.07997174 -0.11583313 -0.00531778
v -0.03641474 -0.12962842 -0.00365365
v -0.07063502 -0.11226675 -0.02237415
v -0.07284744 -0.11925975 -0.01110389
v -0.06144302 -0.10770684 0.02440318
v -0.07351403 -0.07903977 0.01282832
v -0.07796043 -0.11635284 0.00459004
v -0.06793631 -0.11431434 0.02102461
v -0.07205287 -0.10256083 -0.02265286
v -0.07579997 -0.10425734 -0.01903296
v -0.04688690 -0.11997727 0.02023976
v -0.06330681 -0.12581456 -0.00029443
v -0.07439136 -0.12149907 0.00137276
vn 0.57533032 0.58327871 0.57339425
vn 0.61073613 -0.53145512 0.58698964
vn 0.74570834 -0.18786930 -0.63923720
vn -0.26995739 0.66869007 -0.69280343
vn -0.68008155 -0.03670797 0.73221692
vn 0.65611640 0.63823935 -0.40269319
vn -0.16800343 -0.19019078 0.96726538
vn -0.55532938 0.72143893 0.41368485
vn -0.65490585 -0.56976749 -0.49645074
vn 0.07081024 0.71512265 -0.69540313
vn 0.68414760 -0.13604889 0.71654223
vn 0.61310037 -0.75907492 -0.21889082
vn -0.68678407 0.71936144 -0.10414782
vn -0.25385066 0.65050188 0.71582620
vn -0.32014546 -0.21659886 -0.92227535
vn -0.66222003 -0.70584026 0.25150380
vn 0.24900624 -0.20281386 -0.94702821
vn 0.01125955 -0.20088096 0.97955095
vn -0.96749480 0.04476467 0.24889743
vn -0.58828979 0.76154979 -0.27195042
vn -0.71407556 0.02979363 0.69943437
vn -0.49064942 -0.19145473 0.85006366
vn -0.31222060 -0.00470438 -0.94999798
vn -0.23372307 -0.95099233 -0.20245273
vn 0.15961378 -0.75545943 -0.63545613
vn 0.03279446 -0.03418154 0.99887744
vn -0.75787187 0.61352306 0.22185509
vn -0.93447895 -0.28598822 0.21203732
vn -0.96114331 0.05072436 -0.27134955
vn -0.55069255 0.73378615 -0.39786380
vn -0.56682156 0.08028029 0.81991974
vn -0.22009822 -0.81483812 0.53627942
vn 0.00068256 -0.10324459 -0.99465576
vn 0.02454521 0.03169240 -0.99919624
vn -0.51966282 -0.84210888 -0.14423313
vn 0.17719063 -0.63016320 -0.75597475
vn 0.50658979 -0.62712674 -0.59167461
vn -0.24368272 -0.81722267 -0.52226989
vn -0.03625455 0.02604806 0.99900306
vn -0.99425306 0.08477106 -0.06538137
vn -0.88798542 0.08156517 0.45258040
vn -0.85775023 -0.09991205 0.50426395
vn -0.75426388 -0.30379751 0.58205934
vn -0.93619103 -0.21386502 -0.27894105
vn -0.71607482 0.05646587 -0.69573592
vn -0.87981592 0.11035397 -0.46232668
vn -0.76312579 0.13205092 0.63261488
vn -0.16576396 -0.55259672 0.81679812
vn -0.32954808 -0.90858384 0.25665828
vn 0.60146351 -0.77848314 0.17945933
vn -0.03548389 -0.56587798 -0.82372508
vn -0.79638974 -0.58177071 -0.16524597
vn -0.12854975 -0.95925322 -0.25161127
vn -0.46225229 -0.47829762 -0.74669552
vn -0.40728184 -0.83121318 -0.37842589
vn -0.13263845 0.00460257 0.99115380
vn -0.86818489 0.22504895 0.44227589
vn -0.76062231 -0.47950529 0.43763955
vn -0.47941569 -0.56001667 0.67567886
vn -0.62064333 0.03025860 -0.78350895
vn -0.79622560 -0.04132267 -0.60358697
vn -0.10936395 -0.79844412 0.59205280
vn -0.22604636 -0.96267943 0.14883333
vn -0.46964609 -0.86102590 0.19510754
f 10//10 1//1 6//6
f 11//11 6//6 1//1
f 12//12 3//3 6//6
f 12//12 11//11 2//2
f 12//12 6//6 11//11
f 13//13 8//8 1//1
f 14//14 1//1 8//8
f 17//17 10//10 6//6
f 17//17 6//6 3//3
f 18//18 7//7 2//2
f 18//18 2//2 11//11
f 20//20 13//13 1//1
f 22//22 7//7 14//14
f 23//23 4//4 10//10
f 26//26 18//18 11//11
f 26//26 11//11 1//1
f 26//26 7//7 18//18
f 27//27 8//8 13//13
f 29//29 13//13 20//20
f 30//30 10//10 4//4
f 30//30 20//20 1//1
f 30//30 1//1 10//10
f 31//31 14//14 8//8
f 31//31 21//21 5//5
f 31//31 22//22 14//14
f 31//31 5//5 22//22
f 33//33 23//23 17//17
f 33//33 15//15 23//23
f 34//34 23//23 10//10
f 34//34 10//10 17//17
f 34//34 17//17 23//23
f 36//36 17//17 3//3
f 37//37 3//3 12//12
f 37//37 12//12 25//25
f 37//37 36//36 3//3
f 37//37 25//25 36//36
f 39//39 26//26 1//1
f 39//39 1//1 14//14
f 39//39 7//7 26//26
f 40//40 27//27 13//13
f 40//40 19//19 27//27
f 40//40 13//13 29//29
f 40//40 28//28 19//19
f 41//41 21//21 8//8
f 41//41 27//27 19//19
f 41//41 19//19 21//21
f 42//42 21//21 19//19
f 42//42 19//19 28//28
f 42//42 5//5 21//21
f 43//43 42//42 28//28
f 43//43 22//22 5//5
f 43//43 5//5 42//42
f 44//44 40//40 29//29
f 44//44 28//28 40//40
f 45//45 30//30 4//4
f 46//46 29//29 20//20
f 46//46 20//20 30//30
f 47//47 31//31 8//8
f 47//47 8//8 21//21
f 47//47 21//21 31//31
f 48//48 2//2 7//7
f 50//50 12//12 2//2
f 51//51 33//33 17//17
f 51//51 15//15 33//33
f 51//51 17//17 36//36
f 51//51 36//36 25//25
f 51//51 25//25 12//12
f 51//51 12//12 38//38
f 52//52 35//35 16//16
f 52//52 16//16 28//28
f 52//52 28//28 44//44
f 52//52 44//44 9//9
f 52//52 9//9 35//35
f 53//53 38//38 12//12
f 53//53 24//24 38//38
f 53//53 12//12 50//50
f 54//54 38//38 9//9
f 54//54 51//51 38//38
f 54//54 15//15 51//51
f 55//55 35//35 9//9
f 55//55 9//9 38//38
f 55//55 38//38 24//24
f 55//55 24//24 35//35
f 56//56 39//39 14//14
f 56//56 14//14 7//7
f 56//56 7//7 39//39
f 57//57 41//41 8//8
f 57//57 8//8 27//27
f 57//57 27//27 41//41
f 58//58 43//43 28//28
f 58//58 28//28 16//16
f 59//59 22//22 43//43
f 59//59 32//32 48//48
f 59//59 48//48 7//7
f 59//59 7//7 22//22
f 59//59 49//49 32//32
f 59//59 58//58 16//16
f 59//59 43//43 58//58
f 60//60 45//45 4//4
f 60//60 4//4 23//23
f 60//60 23//23 15//15
f 61//61 46//46 30//30
f 61//61 30//30 45//45
f 61//61 44//44 29//29
f 61//61 29//29 46//46
f 61//61 15//15 54//54
f 61//61 60//60 15//15
f 61//61 45//45 60//60
f 61//61 54//54 9//9
f 61//61 9//9 44//44
f 62//62 48//48 32//32
f 62//62 2//2 48//48
f 62//62 50//50 2//2
f 62//62 32//32 50//50
f 63//63 35//35 24//24
f 63//63 53//53 50//50
f 63//63 24//24 53//53
f 63//63 50//50 32//32
f 63//63 32//32 49//49
f 64//64 16//16 35//35
f 64//64 63//63 49//49
f 64//64 35//35 63//63
f 64//64 59//59 16//16
f 64//64 49//49 59//59

