# https://github.com/mikedh/trimesh
v 0.03717184 -0.11462697 0.02153766
v 0.04149349 -0.12441580 0.01489002
v 0.03606786 -0.11529249 -0.01028479
v -0.01656344 -0.12181480 -0.01211797
v -0.00103684 -0.12994899 0.02183007
v 0.02892979 -0.14143212 -0.00370032
v -0.00136760 -0.11489527 0.00859150
v 0.04422868 -0.11480425 -0.00214907
v 0.02278519 -0.13296064 0.02112527
v 0.02861537 -0.13747708 -0.01039579
v -0.00093157 -0.13928197 -0.00175882
v -0.00317455 -0.11662568 -0.01163027
v -0.00190006 -0.11500533 0.02280974
v 0.04278685 -0.11481705 0.01653699
v 0.02566641 -0.11473956 -0.01156639
v 0.03992453 -0.13431834 -0.00187607
v 0.03449169 -0.13024030 0.01919328
v -0.01702204 -0.12447534 -0.00558286
v 0.01977609 -0.14147201 -0.00562198
v -0.00097255 -0.13934874 0.00387294
v 0.04009877 -0.11445958 0.01998273
v 0.01277916 -0.12677799 0.02354597
v 0.04383437 -0.12289248 0.00279178
v 0.03373041 -0.13385249 -0.01014830
v 0.03505051 -0.12045617 0.02135363
v 0.03766655 -0.13562015 0.00638490
v -0.01657364 -0.12319737 -0.01019795
v -0.00178828 -0.11784972 0.02439817
v 0.02307809 -0.14116129 -0.00602611
v 0.01414342 -0.13766802 -0.00981078
v -0.00110472 -0.13317362 0.01793142
v 0.02896796 -0.14136616 0.00217751
v 0.00934519 -0.14159000 0.00081686
v 0.04417733 -0.11450600 0.00903232
v 0.03986151 -0.12381995 0.01773095
v 0.00507175 -0.12861523 0.02335914
v 0.04166268 -0.13071329 -0.00077392
v 0.03752127 -0.12491755 -0.00997065
v 0.03473380 -0.14040497 -0.00309581
v 0.03298143 -0.13166217 0.01936525
v 0.03830954 -0.12243085 0.01943777
v 0.03767004 -0.13169900 0.01385254
v -0.00106166 -0.12460886 0.02367724
v 0.01307191 -0.12366078 0.02361464
v 0.01591772 -0.13922393 -0.00806524
v -0.00155005 -0.13145458 -0.01007933
v 0.00908878 -0.13335887 0.01969994
v -0.00106356 -0.13497307 0.01425553
v 0.00946594 -0.14110041 -0.00203358
v 0.03108898 -0.14152463 0.00070142
v 0.04156022 -0.12247450 0.01602305
v 0.00734152 -0.13132486 0.02176222
v 0.01086548 -0.12843646 0.02336512
v 0.04376801 -0.11874123 -0.00244777
v 0.04140301 -0.13058493 0.00444474
v 0.03742767 -0.11957678 -0.00956897
v 0.04162022 -0.12655403 -0.00348247
v 0.04008700 -0.13276837 -0.00302249
v 0.03763776 -0.13778364 -0.00224111
v 0.03114044 -0.13509257 0.01618435
v 0.03726514 -0.11677135 0.02126470
v 0.03987532 -0.11648216 0.01978620
v 0.03606188 -0.13341913 0.01387393
v 0.03767844 -0.12968577 0.01593359
vn 0.22066783 0.59869849 0.76997781
vn 0.88126654 -0.33084847 0.33750345
vn 0.32779074 0.59790903 -0.73147661
vn -0.72724360 0.22317567 -0.64908348
vn -0.51562041 -0.48247398 0.70806387
vn 0.12231146 -0.95487462 -0.27065543
vn -0.20786415 0.97795600 -0.01986366
vn 0.74062040 0.60697758 -0.28820068
vn 0.08621216 -0.61279993 0.78552130
vn 0.16869570 -0.50620113 -0.84575539
vn -0.41609524 -0.86191519 -0.28977052
vn -0.15864924 0.73520801 -0.65901412
vn -0.43886795 0.74334902 0.50480407
vn 0.80174784 0.48423429 0.35031064
vn 0.03676901 0.68294093 -0.72954762
vn 0.85262014 -0.48869474 -0.18497659
vn 0.51664899 -0.40255965 0.75565836
vn -0.98580280 -0.14475932 0.08507396
vn -0.03424907 -0.93194046 -0.36099027
vn -0.43744142 -0.87595489 0.20334217
vn 0.50985563 0.61934497 0.59704191
vn 0.07502761 -0.11860304 0.99010311
vn 0.98333643 -0.18146806 0.01089958
vn 0.43030748 -0.30975500 -0.84787223
vn 0.25228706 -0.15955247 0.95440780
vn 0.67014227 -0.69302599 0.26575236
vn -0.77726363 -0.53241974 -0.33524688
vn -0.48332215 0.15320901 0.86193196
vn 0.05206873 -0.88045655 -0.47125907
vn -0.11568853 -0.56860945 -0.81443198
vn -0.47960931 -0.73257665 0.48301797
vn 0.06163849 -0.95702710 0.28337224
vn -0.09342473 -0.98919481 0.11298427
vn 0.76015592 0.64369004 0.08846533
vn 0.69887320 -0.31181235 0.64369971
vn -0.05204539 -0.33807666 0.93967838
vn 0.93478351 -0.32147566 -0.15110657
vn 0.52690277 -0.10126863 -0.84387092
vn 0.50671141 -0.82785134 -0.24063605
vn 0.37159165 -0.51233488 0.77423034
vn 0.51882326 -0.23274704 0.82258814
vn 0.73528685 -0.54846666 0.39816777
vn -0.50366914 -0.18823586 0.84313976
vn 0.07059321 -0.00093185 0.99750475
vn -0.11889413 -0.80994748 -0.57432505
vn -0.25169458 -0.58606434 -0.77018078
vn -0.06002992 -0.83757799 0.54300969
vn -0.44030359 -0.81832230 0.36943384
vn -0.14839577 -0.95070349 -0.27228951
vn 0.25513881 -0.95462998 0.15357667
vn 0.87195474 -0.21234349 0.44114076
vn -0.06859396 -0.64746970 0.75899793
vn 0.02374551 -0.26612771 0.96364526
vn 0.92126980 -0.10948070 -0.37319691
vn 0.89589982 -0.41734244 0.15227871
vn 0.67342267 0.07597363 -0.73534340
vn 0.86255154 -0.20667728 -0.46183260
vn 0.81014818 -0.33739404 -0.47940086
vn 0.75113497 -0.63144883 -0.19253217
vn 0.25736526 -0.83568670 0.48517096
vn 0.37504265 -0.14078395 0.91625482
vn 0.64491755 -0.16282125 0.74670650
vn 0.56999243 -0.70687897 0.41884454
vn 0.70260685 -0.48415105 0.52147999
f 12//12 4//4 7//7
f 13//13 7//7 4//4
f 15//15 8//8 3//3
f 15//15 12//12 7//7
f 15//15 4//4 12//12
f 15//15 10//10 4//4
f 18//18 13//13 4//4
f 20//20 18//18 11//11
f 21//21 13//13 1//1
f 21//21 7//7 13//13
f 21//21 15//15 7//7
f 24//24 10//10 15//15
f 25//25 22//22 9//9
f 25//25 1//1 22//22
f 27//27 18//18 4//4
f 27//27 4//4 11//11
f 27//27 11//11 18//18
f 28//28 13//13 18//18
f 28//28 1//1 13//13
f 29//29 19//19 10//10
f 29//29 10//10 6//6
f 29//29 6//6 19//19
f 30//30 4//4 10//10
f 30//30 10//10 19//19
f 31//31 5//5 18//18
f 33//33 20//20 11//11
f 34//34 8//8 15//15
f 34//34 15//15 21//21
f 34//34 21//21 14//14
f 34//34 23//23 8//8
f 34//34 14//14 2//2
f 34//34 2//2 23//23
f 36//36 22//22 28//28
f 38//38 24//24 15//15
f 38//38 15//15 3//3
f 39//39 6//6 10//10
f 39//39 10//10 24//24
f 40//40 25//25 9//9
f 40//40 17//17 25//25
f 41//41 25//25 17//17
f 41//41 17//17 35//35
f 43//43 28//28 18//18
f 43//43 18//18 5//5
f 43//43 36//36 28//28
f 43//43 5//5 36//36
f 44//44 28//28 22//22
f 44//44 22//22 1//1
f 44//44 1//1 28//28
f 45//45 30//30 19//19
f 45//45 19//19 11//11
f 45//45 11//11 30//30
f 46//46 30//30 11//11
f 46//46 11//11 4//4
f 46//46 4//4 30//30
f 47//47 5//5 31//31
f 47//47 33//33 32//32
f 47//47 32//32 9//9
f 48//48 31//31 18//18
f 48//48 18//18 20//20
f 48//48 47//47 31//31
f 48//48 20//20 33//33
f 48//48 33//33 47//47
f 49//49 33//33 11//11
f 49//49 11//11 19//19
f 49//49 19//19 33//33
f 50//50 33//33 19//19
f 50//50 19//19 6//6
f 50//50 32//32 33//33
f 50//50 6//6 39//39
f 50//50 39//39 26//26
f 51//51 35//35 2//2
f 51//51 2//2 14//14
f 52//52 36//36 5//5
f 52//52 9//9 36//36
f 52//52 47//47 9//9
f 52//52 5//5 47//47
f 53//53 36//36 9//9
f 53//53 9//9 22//22
f 53//53 22//22 36//36
f 54//54 8//8 23//23
f 54//54 23//23 37//37
f 54//54 38//38 8//8
f 55//55 37//37 23//23
f 55//55 23//23 2//2
f 55//55 16//16 37//37
f 55//55 42//42 26//26
f 55//55 2//2 42//42
f 56//56 38//38 3//3
f 56//56 3//3 8//8
f 56//56 8//8 38//38
f 57//57 54//54 37//37
f 57//57 38//38 54//54
f 58//58 24//24 38//38
f 58//58 38//38 57//57
f 58//58 57//57 37//37
f 58//58 37//37 16//16
f 59//59 39//39 24//24
f 59//59 26//26 39//39
f 59//59 55//55 26//26
f 59//59 16//16 55//55
f 59//59 58//58 16//16
f 59//59 24//24 58//58
f 60//60 40//40 9//9
f 60//60 9//9 32//32
f 60//60 32//32 50//50
f 61//61 21//21 1//1
f 61//61 1//1 25//25
f 61//61 25//25 41//41
f 62//62 41//41 35//35
f 62//62 61//61 41//41
f 62//62 21//21 61//61
f 62//62 35//35 51//51
f 62//62 51//51 14//14
f 62//62 14//14 21//21
f 63//63 42//42 17//17
f 63//63 17//17 40//40
f 63//63 40//40 60//60
f 63//63 26//26 42//42
f 63//63 60//60 50//50
f 63//63 50//50 26//26
f 64//64 35//35 17//17
f 64//64 17//17 42//42
f 64//64 42//42 2//2
f 64//64 2//2 35//35

