# https://github.com/mikedh/trimesh
v 0.04460452 -0.07694685 0.02570772
v 0.04719812 -0.10387854 0.01745817
v 0.05169290 -0.08119195 0.01131386
v 0.00263478 -0.07532408 0.01109318
v 0.01653846 -0.10465977 0.02442056
v 0.01560272 -0.10064152 0.01328767
v 0.05209388 -0.07668345 0.01692075
v 0.04062820 -0.10370948 0.02562685
v 0.02451398 -0.07784675 0.02536279
v 0.04988102 -0.08902905 0.01107908
v -0.00014396 -0.08858637 0.01517127
v 0.01729756 -0.10379222 0.01560155
v 0.05139755 -0.07665340 0.01846819
v 0.04624321 -0.10389956 0.02062619
v 0.02122612 -0.10435452 0.02565397
v 0.00274253 -0.08962999 0.01271721
v 0.00052159 -0.07724065 0.01633725
v 0.01609590 -0.10297265 0.01498194
v 0.04923910 -0.09095076 0.01924826
v 0.04527387 -0.09499582 0.02376657
v 0.04721119 -0.10156523 0.01921455
v 0.04244456 -0.09957940 0.02545521
v 0.04740531 -0.09306364 0.02184147
v 0.04432591 -0.08725101 0.02539001
v 0.04355513 -0.10354209 0.02407192
vn 0.31714542 0.59520565 0.73834207
vn 0.60969590 -0.71743480 -0.33698399
vn 0.69532781 0.24124308 -0.67699410
vn -0.44940733 0.67329366 -0.58711898
vn -0.42213164 -0.70981072 0.56389150
vn -0.18498330 -0.43004432 -0.88365325
vn 0.76501998 0.63836619 -0.08504727
vn 0.16188886 -0.65013272 0.74237419
vn -0.14089205 0.58790171 0.79656827
vn 0.60526916 -0.23645542 -0.76009084
vn -0.95189845 -0.29889187 0.06747582
vn -0.16679268 -0.87516145 -0.45417248
vn 0.65196294 0.63649715 0.41208701
vn 0.60179245 -0.72440723 0.33627371
vn -0.08168252 -0.62551103 0.77592778
vn -0.45798320 -0.36909534 -0.80871504
vn -0.76543859 0.50183188 0.40282567
vn -0.37895401 -0.76149631 -0.52584906
vn 0.93035122 -0.14510707 0.33673514
vn 0.67323419 -0.09704088 0.73303396
vn 0.93931527 -0.18784809 0.28705388
vn 0.39939010 -0.07501413 0.91370697
vn 0.78789599 -0.10368722 0.60701636
vn 0.51647703 -0.04475097 0.85513088
vn 0.50925508 -0.60295619 0.61408720
f 7//7 3//3 4//4
f 7//7 2//2 3//3
f 9//9 1//1 4//4
f 10//10 3//3 2//2
f 10//10 2//2 6//6
f 10//10 6//6 4//4
f 10//10 4//4 3//3
f 12//12 6//6 2//2
f 12//12 2//2 5//5
f 13//13 7//7 4//4
f 13//13 4//4 1//1
f 14//14 8//8 5//5
f 14//14 5//5 2//2
f 15//15 8//8 1//1
f 15//15 1//1 9//9
f 15//15 9//9 5//5
f 15//15 5//5 8//8
f 16//16 11//11 4//4
f 16//16 4//4 6//6
f 17//17 9//9 4//4
f 17//17 4//4 11//11
f 17//17 11//11 5//5
f 17//17 5//5 9//9
f 18//18 12//12 5//5
f 18//18 5//5 11//11
f 18//18 11//11 16//16
f 18//18 16//16 6//6
f 18//18 6//6 12//12
f 19//19 2//2 7//7
f 19//19 7//7 13//13
f 21//21 19//19 14//14
f 21//21 14//14 2//2
f 21//21 2//2 19//19
f 22//22 1//1 8//8
f 23//23 14//14 19//19
f 23//23 19//19 13//13
f 23//23 13//13 1//1
f 24//24 22//22 20//20
f 24//24 1//1 22//22
f 24//24 23//23 1//1
f 24//24 20//20 23//23
f 25//25 22//22 8//8
f 25//25 8//8 14//14
f 25//25 20//20 22//22
f 25//25 23//23 20//20
f 25//25 14//14 23//23

