# https://github.com/mikedh/trimesh
v 0.04706244 -0.00846260 0.02745995
v 0.04807383 -0.06184670 0.01829629
v 0.05509820 -0.00833228 0.01856206
v -0.01380008 -0.01456174 0.01706793
v -0.00277890 -0.07445013 0.02790916
v -0.00416401 -0.07374961 0.01654681
v -0.01432542 -0.00850572 0.02883111
v 0.04936583 -0.03501723 0.02383291
v 0.05383617 -0.01850801 0.01829016
v 0.00636210 -0.07474568 0.02077049
v 0.05374984 -0.00806755 0.02217169
v -0.00268967 -0.06422448 0.02920242
v -0.02259775 -0.07269482 0.02218918
v 0.04058447 -0.06211010 0.02708326
v 0.04942160 -0.05168617 0.01983168
v 0.05059808 -0.00819513 0.02525329
v -0.00336634 -0.04184761 0.02912934
v -0.00932506 -0.06010066 0.02931108
v -0.02062246 -0.03282486 0.02431317
v -0.02140775 -0.05849609 0.01713485
v 0.04556300 -0.06191096 0.02295526
v 0.04608939 -0.03305369 0.02670786
v 0.04985687 -0.05160944 0.01850065
v 0.05146235 -0.02862523 0.02191110
v 0.05006168 -0.02066559 0.02480826
v -0.02242593 -0.06031500 0.02354830
v -0.02049312 -0.03536879 0.02280111
v 0.04737750 -0.06181665 0.01984373
v 0.04749224 -0.05782252 0.02120862
v 0.04757454 -0.03674126 0.02525177
v 0.05331431 -0.01239485 0.02205150
v -0.02250776 -0.06595339 0.02299588
vn 0.22736677 0.59452669 0.77126025
vn 0.70652325 -0.53687724 -0.46107236
vn 0.71868550 0.51972962 -0.46192236
vn -0.48654370 0.46718238 -0.73825189
vn -0.05766365 -0.74953039 0.65945363
vn -0.06421622 -0.67462260 -0.73536428
vn -0.51312050 0.73276848 0.44694263
vn 0.76313343 -0.10703125 0.63731600
vn 0.66679779 -0.06903746 -0.74203406
vn 0.19959545 -0.96732716 -0.15633239
vn 0.65170007 0.65339563 0.38517680
vn 0.00635722 -0.07532353 0.99713888
vn -0.76139514 -0.64706333 0.03983070
vn 0.34652704 -0.50326042 0.79161099
vn 0.89336579 -0.14069977 0.42673310
vn 0.45318786 0.65419791 0.60551288
vn 0.01653599 0.00877644 0.99982475
vn -0.20178284 -0.07325287 0.97668711
vn -0.96179003 0.13031154 0.24078796
vn -0.66463753 -0.02211384 -0.74683863
vn 0.61727386 -0.60196426 0.50656886
vn 0.44825377 -0.05905662 0.89195340
vn 0.91334288 -0.13170670 -0.38530266
vn 0.88480654 -0.10775999 0.45332677
vn 0.66018647 -0.06758804 0.74805459
vn -0.87347841 -0.00685149 0.48681467
vn -0.92278727 0.13256141 -0.36178879
vn 0.70155372 -0.61743508 0.35580373
vn 0.84373738 -0.15847616 0.51282798
vn 0.62828066 -0.10172176 0.77130804
vn 0.88113427 -0.10376629 0.46134039
vn -0.84824410 -0.04731718 0.52748747
f 7//7 3//3 4//4
f 9//9 2//2 6//6
f 9//9 6//6 4//4
f 9//9 4//4 3//3
f 10//10 6//6 2//2
f 11//11 3//3 7//7
f 13//13 10//10 5//5
f 13//13 6//6 10//10
f 14//14 5//5 10//10
f 14//14 12//12 5//5
f 14//14 1//1 12//12
f 16//16 11//11 7//7
f 16//16 7//7 1//1
f 17//17 12//12 1//1
f 17//17 1//1 7//7
f 18//18 17//17 7//7
f 18//18 12//12 17//17
f 18//18 13//13 5//5
f 18//18 5//5 12//12
f 19//19 7//7 4//4
f 20//20 4//4 6//6
f 20//20 6//6 13//13
f 21//21 14//14 10//10
f 21//21 10//10 2//2
f 22//22 1//1 14//14
f 22//22 16//16 1//1
f 23//23 9//9 3//3
f 23//23 3//3 15//15
f 23//23 15//15 2//2
f 23//23 2//2 9//9
f 24//24 15//15 3//3
f 24//24 8//8 15//15
f 25//25 8//8 11//11
f 25//25 11//11 16//16
f 25//25 16//16 22//22
f 26//26 18//18 7//7
f 26//26 7//7 19//19
f 26//26 20//20 13//13
f 26//26 19//19 20//20
f 27//27 20//20 19//19
f 27//27 19//19 4//4
f 27//27 4//4 20//20
f 28//28 21//21 2//2
f 28//28 2//2 15//15
f 29//29 15//15 8//8
f 29//29 8//8 21//21
f 29//29 28//28 15//15
f 29//29 21//21 28//28
f 30//30 21//21 8//8
f 30//30 14//14 21//21
f 30//30 22//22 14//14
f 30//30 25//25 22//22
f 30//30 8//8 25//25
f 31//31 24//24 3//3
f 31//31 3//3 11//11
f 31//31 11//11 8//8
f 31//31 8//8 24//24
f 32//32 26//26 13//13
f 32//32 13//13 18//18
f 32//32 18//18 26//26

