# https://github.com/mikedh/trimesh
v 0.02025865 -0.01475541 0.04000000
v 0.05419490 -0.06500000 0.04000000
v 0.05419490 -0.06500000 0.00000000
v -0.00678815 -0.01324482 0.00000000
v 0.02386720 -0.06500000 0.04000000
v 0.02025865 -0.01475541 0.00000000
v -0.00678815 -0.01324482 0.04000000
v 0.02386720 -0.06500000 0.00000000
v -0.00528068 -0.01816570 0.00000000
v -0.00528068 -0.01816570 0.04000000
f 1 2 3
f 5 2 1
f 5 3 2
f 6 1 3
f 6 3 4
f 7 5 1
f 7 6 4
f 7 1 6
f 8 4 3
f 8 3 5
f 9 7 4
f 9 4 8
f 9 8 5
f 10 9 5
f 10 5 7
f 10 7 9

