# https://github.com/mikedh/trimesh
v -0.00277243 0.00750249 0.04000000
v -0.00288209 0.00042636 0.04000000
v -0.00277243 0.00750249 0.00000000
v -0.02436538 0.01019149 0.00000000
v -0.02436538 0.01019149 0.04000000
v -0.02436538 0.00042636 0.00000000
v -0.02144100 0.01019149 0.04000000
v -0.00288209 0.00042636 0.00000000
v -0.02436538 0.00042636 0.04000000
v -0.02144100 0.01019149 0.00000000
f 1 2 3
f 5 2 1
f 6 4 3
f 7 5 1
f 7 1 3
f 8 6 3
f 8 3 2
f 9 2 5
f 9 5 4
f 9 4 6
f 9 8 2
f 9 6 8
f 10 7 3
f 10 3 4
f 10 4 5
f 10 5 7

