# OBJ generated by ONSHAPE BY PTC INC, 1.201 Units = meters
mtllib smaller_r.mtl
g Part 1
v -0.0487782 -0.065 0.04 
v -0.0487782 -0.065 0 
v -0.021441 -0.065 0 
v -0.021441 -0.065 0.04 
v -0.021441 -0.0155447 0 
v -0.021441 -0.0155447 0.04 
v -0.00691189 -0.0155447 0 
v -0.00691189 -0.0155447 0.04 
v 0.0238672 -0.065 0 
v 0.0238672 -0.065 0.04 
v 0.0541949 -0.065 0 
v 0.0541949 -0.065 0.04 
v 0.0403147 -0.0446099 0.04 
v 0.0403147 -0.0446099 0 
v 0.0162782 -0.0088303 0 
v 0.0162782 -0.0088303 0.04 
v 0.0316888 0.00209767 0.04 
v 0.0316888 0.00209767 -6.93889e-18 
v 0.0340093 0.00504991 0 
v 0.02905 -0.000628868 0 
v 0.0260417 -0.00316644 0.04 
v 0.0260417 -0.00316644 0 
v 0.0225717 -0.0055494 0.04 
v 0.0225717 -0.0055494 0 
v 0.0185099 -0.00779373 0.04 
v 0.0185099 -0.00779373 0 
v 0.02905 -0.000628868 0.04 
v 0.0340093 0.00504991 0.04 
v 0.040049 0.0212012 0.04 
v 0.040049 0.0212012 0 
v 0.0402582 0.0252778 0 
v 0.0395152 0.0177351 0.04 
v 0.0395152 0.0177351 0 
v 0.038594 0.0142119 0.04 
v 0.038594 0.0142119 0 
v 0.0373589 0.0109541 0.04 
v 0.0373589 0.0109541 0 
v 0.0358102 0.00788071 0.04 
v 0.0358102 0.00788071 0 
v 0.0402582 0.0252778 0.04 
v 0.0297773 0.0525793 0.04 
v 0.0297773 0.0525793 0 
v 0.0276617 0.0543359 0 
v 0.0320186 0.0503151 0.04 
v 0.0320186 0.0503151 0 
v 0.0339348 0.0479168 0.04 
v 0.0339348 0.0479168 0 
v 0.0355783 0.0453531 0.04 
v 0.0355783 0.0453531 0 
v 0.0369868 0.042568 0.04 
v 0.0369868 0.042568 -6.93889e-18 
v 0.0381755 0.0394897 0 
v 0.0391374 0.0360243 0.04 
v 0.0391374 0.0360243 0 
v 0.0398409 0.0320458 0.04 
v 0.0398409 0.0320458 0 
v 0.0402206 0.02738 6.93889e-18 
v 0.0402206 0.02738 0.04 
v 0.0381755 0.0394897 0.04 
v 0.0276617 0.0543359 0.04 
v -0.00212898 0.0635842 0.04 
v -0.00212898 0.0635842 0 
v -0.0112283 0.0638997 0 
v 0.00599542 0.0626493 0.04 
v 0.00599542 0.0626493 0 
v 0.0129065 0.0611835 0.04 
v 0.0129065 0.0611835 0 
v 0.017894 0.0595924 0.04 
v 0.017894 0.0595924 0 
v 0.0218297 0.0579003 0.04 
v 0.0218297 0.0579003 0 
v 0.0250351 0.0561348 0.04 
v 0.0250351 0.0561348 0 
v -0.0112283 0.0638997 0.04 
v -0.0487782 0.0638997 0 
v -0.0487782 0.0638997 0.04 
v 0.00305692 0.0392145 0.04 
v 0.00482533 0.0384589 0.04 
v 0.000803991 0.0399454 0.04 
v 0.0126276 0.0231223 0.04 
v 0.0124192 0.0210594 0.04 
v 0.0126671 0.0245725 0.04 
v -0.0131467 0.0414996 0.04 
v -0.00795325 0.0413318 0.04 
v -0.021441 0.0414996 0.04 
v 0.0120715 0.0192968 0.04 
v 0.0116112 0.0177587 0.04 
v 0.0122686 0.028848 0.04 
v 0.0118769 0.0304012 0.04 
v 0.00748619 0.0368485 0.04 
v -0.00273883 0.0407275 0.04 
v 0.000728786 0.00831344 0.04 
v -0.00219935 0.00758789 0.04 
v 0.00614176 0.0107573 0.04 
v 0.00472577 0.00992189 0.04 
v 0.0125474 0.026999 0.04 
v 0.0113974 0.0317362 0.04 
v 0.0084526 0.036029 0.04 
v 0.00636176 0.0376204 0.04 
v 0.00296554 0.00910214 0.04 
v 0.00650282 0.0110026 0.04 
v 0.00768498 0.0119248 0.04 
v 0.0110508 0.0163903 0.04 
v 0.0103916 0.0151507 0.04 
v 0.0108001 0.0329847 0.04 
v 0.0100965 0.0341246 0.04 
v 0.00931695 0.0351286 0.04 
v -0.021441 0.0066862 0.04 
v -0.00616468 0.00699701 0.04 
v -0.0126389 0.0066862 0.04 
v 0.00962539 0.0140084 0.04 
v 0.00873335 0.0129389 0.04 
v 0.0126671 0.0245725 0 
v 0.0126276 0.0231223 0 
v 0.0125474 0.026999 0 
v 0.0124192 0.0210594 6.93889e-18 
v 0.0120715 0.0192968 0 
v 0.0116112 0.0177587 0 
v 0.0122686 0.028848 0 
v 0.0118769 0.0304012 0 
v 0.00305692 0.0392145 0 
v 0.00482533 0.0384589 0 
v 0.0113974 0.0317362 0 
v 0.0110508 0.0163903 6.93889e-18 
v -0.0131467 0.0414996 0 
v -0.021441 0.0414996 0 
v -0.00795325 0.0413318 0 
v 0.0103916 0.0151507 6.93889e-18 
v 0.00614176 0.0107573 0 
v -0.00616468 0.00699701 0 
v -0.00219935 0.00758789 0 
v 0.000803991 0.0399454 0 
v -0.00273883 0.0407275 0 
v 0.00636176 0.0376204 0 
v 0.0084526 0.036029 0 
v 0.00748619 0.0368485 0 
v 0.00650282 0.0110026 0 
v 0.00472577 0.00992189 0 
v 0.000728786 0.00831344 0 
v 0.00296554 0.00910214 0 
v 0.0108001 0.0329847 0 
v 0.0100965 0.0341246 0 
v 0.00962539 0.0140084 0 
v -0.021441 0.0066862 0 
v -0.0126389 0.0066862 0 
v 0.00931695 0.0351286 0 
v 0.00873335 0.0129389 0 
v 0.00768498 0.0119248 0 
vn 0 -1 0 
vn 1 0 0 
vn -0.849003 -0.528387 0 
vn 0 -1 0 
vn 0.828834 0.559494 0 
vn 0.830887 0.556441 0 
vn 0.821798 0.56978 0 
vn 0.753262 -0.65772 0 
vn 0.817148 -0.576428 0 
vn 0.682512 -0.730874 0 
vn 0.606353 -0.795196 0 
vn 0.525868 -0.850566 0 
vn 0.442119 -0.896957 0 
vn 0.400701 -0.916209 0 
vn 0.682512 -0.730874 0 
vn 0.817148 -0.576428 0 
vn 0.994553 -0.104233 0 
vn 1 0 0 
vn 0.979597 -0.200972 0 
vn 0.952389 -0.304886 0 
vn 0.915087 -0.403256 0 
vn 0.868816 -0.495136 0 
vn 0.817148 -0.576428 0 
vn 1 0 0 
vn 0.672334 0.740248 0 
vn 0.604699 0.796454 0 
vn 0.747454 0.664314 0 
vn 0.81293 0.582362 0 
vn 0.868321 0.496003 0 
vn 0.913706 0.406375 0 
vn 0.949235 0.314569 0 
vn 0.97513 0.221631 0 
vn 0.991701 0.128565 0 
vn 0.99934 0.0363205 0 
vn 1 0 0 
vn 0.949235 0.314569 0 
vn 0.604699 0.796454 0 
vn 0.0727739 0.997348 0 
vn 0 1 0 
vn 0.159955 0.987124 0 
vn 0.259167 0.965832 0 
vn 0.351374 0.936235 0 
vn 0.440325 0.897838 0 
vn 0.525509 0.850788 0 
vn 0.604699 0.796454 0 
vn 0 1 0 
vn -1 0 0 
vn 0 0 1 
vn 0 0 -1 
vn 0 1 0 
vn 1 0 0 
vn 0 -1 0 
vn -0.435641 -0.900121 0 
vn -0.523991 -0.851724 0 
vn -0.352298 -0.935888 0 
vn -0.267706 -0.963501 0 
vn -0.168469 -0.985707 0 
vn -0.0683912 -0.997659 0 
vn 0 -1 0 
vn -0.523991 -0.851724 0 
vn -0.994743 -0.102407 0 
vn -1 0 0 
vn -0.980163 -0.198191 0 
vn -0.956251 -0.292546 0 
vn -0.923165 -0.384405 0 
vn -0.877899 -0.478846 0 
vn -0.821088 -0.570802 0 
vn -0.756295 -0.654231 0 
vn -0.684797 -0.728734 0 
vn -0.607732 -0.794142 0 
vn -0.523991 -0.851724 0 
vn -1 0 0 
vn -0.655873 0.754871 0 
vn -0.573588 0.819144 0 
vn -0.733204 0.680008 0 
vn -0.800594 0.599208 0 
vn -0.857921 0.513782 0 
vn -0.905255 0.42487 0 
vn -0.942727 0.333566 0 
vn -0.970543 0.240927 0 
vn -0.988993 0.147963 0 
vn -0.998451 0.0556333 0 
vn -1 0 0 
vn -0.988993 0.147963 0 
vn -0.857921 0.513782 0 
vn -0.573588 0.819144 0 
vn -0.103333 0.994647 0 
vn 0 1 0 
vn -0.19613 0.980578 0 
vn -0.288546 0.957466 0 
vn -0.379189 0.925319 0 
vn -0.466885 0.884318 0 
vn -0.550286 0.834976 0 
vn -0.573588 0.819144 0 
vn 0 1 0 
usemtl 0.615686_0.811765_0.929412_0.000000_0.000000
o mesh0
f 1//1 2//1 3//1 
f 3//1 4//1 1//1 
o mesh1
f 4//2 3//2 5//2 
f 5//2 6//2 4//2 
o mesh2
f 6//1 5//1 7//1 
f 7//1 8//1 6//1 
o mesh3
f 8//3 7//3 9//3 
f 9//3 10//3 8//3 
o mesh4
f 10//4 9//4 11//4 
f 11//4 12//4 10//4 
o mesh5
f 13//5 14//5 15//6 
f 12//7 11//7 14//5 
f 14//5 13//5 12//7 
f 15//6 16//6 13//5 
o mesh6
f 17//8 18//8 19//9 
f 20//10 18//8 17//8 
f 21//11 22//11 20//10 
f 23//12 24//12 22//11 
f 25//13 26//13 24//12 
f 16//14 15//14 26//13 
f 26//13 25//13 16//14 
f 24//12 23//12 25//13 
f 22//11 21//11 23//12 
f 20//10 27//15 21//11 
f 17//8 27//15 20//10 
f 19//9 28//16 17//8 
o mesh7
f 29//17 30//17 31//18 
f 32//19 33//19 30//17 
f 34//20 35//20 33//19 
f 36//21 37//21 35//20 
f 38//22 39//22 37//21 
f 28//23 19//23 39//22 
f 39//22 38//22 28//23 
f 37//21 36//21 38//22 
f 35//20 34//20 36//21 
f 33//19 32//19 34//20 
f 30//17 29//17 32//19 
f 31//18 40//24 29//17 
o mesh8
f 41//25 42//25 43//26 
f 44//27 45//27 42//25 
f 46//28 47//28 45//27 
f 48//29 49//29 47//28 
f 50//30 51//30 49//29 
f 52//31 51//30 50//30 
f 53//32 54//32 52//31 
f 55//33 56//33 54//32 
f 57//34 56//33 55//33 
f 40//35 31//35 57//34 
f 57//34 58//34 40//35 
f 55//33 58//34 57//34 
f 54//32 53//32 55//33 
f 52//31 59//36 53//32 
f 50//30 59//36 52//31 
f 49//29 48//29 50//30 
f 47//28 46//28 48//29 
f 45//27 44//27 46//28 
f 42//25 41//25 44//27 
f 43//26 60//37 41//25 
o mesh9
f 61//38 62//38 63//39 
f 64//40 65//40 62//38 
f 66//41 67//41 65//40 
f 68//42 69//42 67//41 
f 70//43 71//43 69//42 
f 72//44 73//44 71//43 
f 60//45 43//45 73//44 
f 73//44 72//44 60//45 
f 71//43 70//43 72//44 
f 69//42 68//42 70//43 
f 67//41 66//41 68//42 
f 65//40 64//40 66//41 
f 62//38 61//38 64//40 
f 63//39 74//46 61//38 
o mesh10
f 74//46 63//46 75//46 
f 75//46 76//46 74//46 
o mesh11
f 76//47 75//47 2//47 
f 2//47 1//47 76//47 
o mesh12
f 66//48 77//48 78//48 
f 64//48 79//48 77//48 
f 80//48 81//48 32//48 
f 29//48 40//48 82//48 
f 77//48 66//48 64//48 
f 74//48 83//48 84//48 
f 74//48 76//48 85//48 
f 36//48 86//48 87//48 
f 34//48 32//48 81//48 
f 82//48 80//48 29//48 
f 55//48 53//48 88//48 
f 53//48 59//48 89//48 
f 72//48 70//48 90//48 
f 78//48 68//48 66//48 
f 64//48 61//48 91//48 
f 85//48 83//48 74//48 
f 16//48 92//48 93//48 
f 94//48 95//48 16//48 
f 87//48 38//48 36//48 
f 32//48 29//48 80//48 
f 58//48 96//48 82//48 
f 89//48 88//48 53//48 
f 59//48 50//48 97//48 
f 98//48 60//48 72//48 
f 70//48 68//48 99//48 
f 91//48 79//48 64//48 
f 84//48 61//48 74//48 
f 16//48 100//48 92//48 
f 25//48 101//48 94//48 
f 23//48 102//48 101//48 
f 87//48 103//48 28//48 
f 81//48 86//48 34//48 
f 82//48 40//48 58//48 
f 97//48 89//48 59//48 
f 99//48 90//48 70//48 
f 84//48 91//48 61//48 
f 10//48 13//48 16//48 
f 16//48 95//48 100//48 
f 101//48 25//48 23//48 
f 103//48 104//48 17//48 
f 36//48 34//48 86//48 
f 88//48 96//48 55//48 
f 48//48 105//48 97//48 
f 46//48 44//48 106//48 
f 107//48 41//48 60//48 
f 78//48 99//48 68//48 
f 10//48 12//48 13//48 
f 108//48 6//48 8//48 
f 16//48 109//48 110//48 
f 16//48 25//48 94//48 
f 104//48 111//48 27//48 
f 28//48 38//48 87//48 
f 97//48 50//48 48//48 
f 105//48 48//48 46//48 
f 106//48 44//48 41//48 
f 90//48 98//48 72//48 
f 76//48 6//48 108//48 
f 8//48 16//48 108//48 
f 93//48 109//48 16//48 
f 112//48 102//48 23//48 
f 111//48 112//48 21//48 
f 17//48 28//48 103//48 
f 106//48 105//48 46//48 
f 60//48 98//48 107//48 
f 16//48 8//48 10//48 
f 1//48 4//48 6//48 
f 23//48 21//48 112//48 
f 27//48 17//48 104//48 
f 41//48 107//48 106//48 
f 6//48 76//48 1//48 
f 21//48 27//48 111//48 
f 108//48 85//48 76//48 
f 58//48 55//48 96//48 
f 110//48 108//48 16//48 
o mesh13
f 57//49 31//49 113//49 
f 30//49 114//49 113//49 
f 114//49 30//49 33//49 
f 115//49 56//49 57//49 
f 33//49 116//49 114//49 
f 113//49 31//49 30//49 
f 35//49 117//49 116//49 
f 37//49 39//49 118//49 
f 116//49 33//49 35//49 
f 117//49 35//49 37//49 
f 54//49 119//49 120//49 
f 56//49 115//49 119//49 
f 118//49 117//49 37//49 
f 118//49 39//49 19//49 
f 65//49 67//49 121//49 
f 67//49 69//49 122//49 
f 52//49 120//49 123//49 
f 119//49 54//49 56//49 
f 19//49 124//49 118//49 
f 124//49 19//49 18//49 
f 63//49 125//49 126//49 
f 63//49 62//49 127//49 
f 122//49 121//49 67//49 
f 120//49 52//49 54//49 
f 18//49 128//49 124//49 
f 129//49 26//49 15//49 
f 15//49 130//49 131//49 
f 127//49 125//49 63//49 
f 65//49 132//49 133//49 
f 69//49 134//49 122//49 
f 73//49 135//49 136//49 
f 49//49 51//49 123//49 
f 113//49 115//49 57//49 
f 24//49 26//49 137//49 
f 15//49 138//49 129//49 
f 131//49 139//49 15//49 
f 62//49 133//49 127//49 
f 121//49 132//49 65//49 
f 71//49 136//49 134//49 
f 136//49 71//49 73//49 
f 123//49 51//49 52//49 
f 128//49 18//49 20//49 
f 129//49 137//49 26//49 
f 139//49 140//49 15//49 
f 9//49 7//49 15//49 
f 133//49 62//49 65//49 
f 73//49 43//49 135//49 
f 47//49 141//49 142//49 
f 20//49 143//49 128//49 
f 143//49 20//49 22//49 
f 140//49 138//49 15//49 
f 15//49 144//49 145//49 
f 144//49 15//49 7//49 
f 15//49 14//49 9//49 
f 134//49 69//49 71//49 
f 146//49 135//49 43//49 
f 142//49 45//49 47//49 
f 22//49 147//49 143//49 
f 147//49 22//49 24//49 
f 145//49 130//49 15//49 
f 14//49 11//49 9//49 
f 75//49 126//49 144//49 
f 43//49 42//49 146//49 
f 142//49 146//49 42//49 
f 123//49 141//49 49//49 
f 137//49 148//49 24//49 
f 2//49 75//49 5//49 
f 144//49 5//49 75//49 
f 42//49 45//49 142//49 
f 24//49 148//49 147//49 
f 7//49 5//49 144//49 
f 47//49 49//49 141//49 
f 126//49 75//49 63//49 
f 5//49 3//49 2//49 
o mesh14
f 110//50 145//50 144//50 
f 144//50 108//50 110//50 
o mesh15
f 108//51 144//51 126//51 
f 126//51 85//51 108//51 
o mesh16
f 85//52 126//52 125//52 
f 125//52 83//52 85//52 
o mesh17
f 78//53 122//53 134//54 
f 77//55 121//55 122//53 
f 79//56 132//56 121//55 
f 91//57 133//57 132//56 
f 84//58 127//58 133//57 
f 83//59 125//59 127//58 
f 127//58 84//58 83//59 
f 133//57 91//57 84//58 
f 132//56 79//56 91//57 
f 121//55 77//55 79//56 
f 122//53 78//53 77//55 
f 134//54 99//60 78//53 
o mesh18
f 96//61 115//61 113//62 
f 88//63 119//63 115//61 
f 89//64 120//64 119//63 
f 97//65 123//65 120//64 
f 105//66 141//66 123//65 
f 106//67 142//67 141//66 
f 107//68 146//68 142//67 
f 98//69 135//69 146//68 
f 90//70 136//70 135//69 
f 99//71 134//71 136//70 
f 136//70 90//70 99//71 
f 135//69 98//69 90//70 
f 146//68 107//68 98//69 
f 142//67 106//67 107//68 
f 141//66 105//66 106//67 
f 123//65 97//65 105//66 
f 120//64 89//64 97//65 
f 119//63 88//63 89//64 
f 115//61 96//61 88//63 
f 113//62 82//72 96//61 
o mesh19
f 102//73 148//73 137//74 
f 112//75 147//75 148//73 
f 111//76 143//76 147//75 
f 128//77 143//76 111//76 
f 103//78 124//78 128//77 
f 87//79 118//79 124//78 
f 86//80 117//80 118//79 
f 116//81 117//80 86//80 
f 80//82 114//82 116//81 
f 82//83 113//83 114//82 
f 114//82 80//82 82//83 
f 116//81 81//84 80//82 
f 86//80 81//84 116//81 
f 118//79 87//79 86//80 
f 124//78 103//78 87//79 
f 128//77 104//85 103//78 
f 111//76 104//85 128//77 
f 147//75 112//75 111//76 
f 148//73 102//73 112//75 
f 137//74 101//86 102//73 
o mesh20
f 109//87 130//87 145//88 
f 93//89 131//89 130//87 
f 92//90 139//90 131//89 
f 100//91 140//91 139//90 
f 95//92 138//92 140//91 
f 94//93 129//93 138//92 
f 101//94 137//94 129//93 
f 129//93 94//93 101//94 
f 138//92 95//92 94//93 
f 140//91 100//91 95//92 
f 139//90 92//90 100//91 
f 131//89 93//89 92//90 
f 130//87 109//87 93//89 
f 145//88 110//95 109//87 
