# https://github.com/mikedh/trimesh
v 0.03072279 0.05162415 0.04000000
v 0.03990784 0.02028460 0.04000000
v 0.03776786 0.04054533 0.00000000
v 0.02034794 0.05853736 0.00000000
v 0.02055421 0.00042636 0.04000000
v 0.03398164 0.04784373 0.00000000
v 0.03776786 0.04054533 0.04000000
v 0.02034794 0.05853736 0.04000000
v 0.03113584 0.00152632 -0.00000000
v 0.02686944 0.05487850 0.00000000
v 0.04004324 0.02955946 0.04000000
v 0.03398164 0.04784373 0.04000000
v 0.03990784 0.02028460 0.00000000
v 0.03113584 0.00152632 0.04000000
v 0.02055421 0.00042636 0.00000000
v 0.02686944 0.05487850 0.04000000
v 0.02337602 0.05704860 0.04000000
v 0.04004324 0.02955946 0.00000000
v 0.03809602 0.01289838 0.04000000
v 0.02337602 0.05704860 0.00000000
v 0.03430932 0.00552150 0.04000000
v 0.03809602 0.01289838 0.00000000
v 0.03430932 0.00552150 0.00000000
f 5 2 1
f 7 1 2
f 7 3 6
f 8 5 1
f 8 4 5
f 9 4 3
f 10 1 6
f 10 6 3
f 11 7 2
f 12 7 6
f 12 6 1
f 12 1 7
f 13 9 3
f 13 11 2
f 14 2 5
f 14 5 9
f 15 9 5
f 15 5 4
f 15 4 9
f 16 8 1
f 16 1 10
f 17 4 8
f 17 16 10
f 17 8 16
f 18 13 3
f 18 11 13
f 18 3 7
f 18 7 11
f 19 13 2
f 19 2 14
f 20 17 10
f 20 4 17
f 20 10 3
f 20 3 4
f 21 19 14
f 21 14 9
f 22 9 13
f 22 13 19
f 22 19 21
f 23 22 21
f 23 21 9
f 23 9 22

