# https://github.com/mikedh/trimesh
v -0.01655327 0.04339293 0.04000000
v -0.02144100 0.01019149 0.04000000
v -0.01655327 0.04149960 0.00000000
v -0.02436538 0.04339293 0.00000000
v -0.02436538 0.04339293 0.04000000
v -0.02436538 0.01019149 0.00000000
v -0.01655327 0.04339293 0.00000000
v -0.01655327 0.04149960 0.04000000
v -0.02144100 0.01019149 0.00000000
v -0.02436538 0.01019149 0.04000000
f 5 2 1
f 5 1 4
f 6 4 3
f 7 1 3
f 7 3 4
f 7 4 1
f 8 1 2
f 8 2 3
f 8 3 1
f 9 6 3
f 9 3 2
f 9 2 6
f 10 6 2
f 10 2 5
f 10 5 4
f 10 4 6

