# https://github.com/mikedh/trimesh
v 0.01963926 0.05884205 0.04000000
v 0.02055421 0.03362780 0.04000000
v 0.02055421 0.03362780 0.00000000
v -0.02436538 0.06389970 0.00000000
v -0.02436538 0.04339293 0.04000000
v 0.01963926 0.05884205 0.00000000
v -0.02436538 0.06389970 0.04000000
v 0.00986308 0.03442523 0.00000000
v 0.00469102 0.06279940 0.04000000
v 0.00986308 0.03442523 0.04000000
v -0.02436538 0.04339293 0.00000000
v 0.00469102 0.06279940 0.00000000
v 0.01402619 0.06082630 0.00000000
v 0.01402619 0.06082630 0.04000000
f 1 2 3
f 5 2 1
f 6 1 3
f 6 3 4
f 7 5 1
f 8 3 2
f 8 4 3
f 9 7 1
f 10 8 2
f 10 2 5
f 10 5 8
f 11 8 5
f 11 4 8
f 11 7 4
f 11 5 7
f 12 6 4
f 12 4 7
f 12 7 9
f 13 1 6
f 13 6 12
f 14 9 1
f 14 1 13
f 14 13 12
f 14 12 9

