# https://github.com/mikedh/trimesh
v 0.03019125 0.00055033 0.04000000
v 0.02921526 -0.00045811 0.04000000
v 0.01965132 -0.01385137 0.00000000
v -0.02045933 0.00042636 0.00000000
v -0.02045933 0.00042636 0.04000000
v 0.03019125 0.00055033 0.00000000
v 0.01965132 -0.01385137 0.04000000
v -0.02144100 -0.01715087 0.00000000
v -0.02144100 -0.01715087 0.04000000
v -0.00615681 -0.01675795 0.00000000
v -0.00615681 -0.01675795 0.04000000
f 5 2 1
f 6 1 3
f 6 5 1
f 6 4 5
f 7 1 2
f 7 3 1
f 7 2 5
f 8 5 4
f 8 4 6
f 9 7 5
f 9 5 8
f 10 3 7
f 10 9 8
f 10 8 6
f 10 6 3
f 11 10 7
f 11 7 9
f 11 9 10

