# https://github.com/mikedh/trimesh
v -0.02135099 0.03923494 0.01812032
v -0.00869014 0.03139614 0.01097193
v -0.02756620 0.04801623 -0.01367335
v -0.06049268 0.03643507 -0.01785662
v -0.06432799 0.03095043 0.01625254
v -0.00885903 0.02182119 -0.01842993
v -0.00828119 0.03940423 0.01087083
v -0.01446049 0.02182887 0.01830867
v -0.04344004 0.04918498 0.01312311
v -0.03164180 0.04194874 -0.01889378
v -0.06528927 0.03108782 -0.01461012
v -0.00814098 0.03932579 -0.01383171
v -0.00869014 0.02176706 -0.01310079
v -0.05436939 0.03152995 0.02054501
v -0.01466788 0.02759755 0.01815527
v -0.04673885 0.04928769 -0.01177251
v -0.02618296 0.04792472 0.01315913
v -0.06199625 0.03103031 -0.01836349
v -0.06140246 0.04007835 -0.00604650
v -0.02164079 0.02240261 -0.00208766
v -0.02847582 0.04621524 -0.01658278
v -0.00840398 0.03350805 -0.01793791
v -0.06214312 0.03106729 0.01811493
v -0.05173818 0.04387805 0.01906522
v -0.01531127 0.03455318 0.01678373
v -0.04753417 0.04087795 0.02033352
v -0.03426385 0.05051379 -0.00946370
v -0.04423554 0.04619516 -0.01779135
v -0.02617612 0.04793440 -0.01052463
v -0.02714749 0.04690598 0.01632403
v -0.04346620 0.04103274 -0.01911194
v -0.01733215 0.02197267 -0.01772924
v -0.06501821 0.03429806 -0.01208085
v -0.05928432 0.04200419 -0.01362481
v -0.01944274 0.02240134 0.01582431
v -0.04649184 0.02698737 0.00262463
v -0.02622833 0.04683194 -0.01462363
v -0.03032112 0.03885080 -0.01903900
v -0.00825142 0.03560895 -0.01707661
v -0.01557501 0.02184465 0.01805586
v -0.05896113 0.03121518 0.01934683
v -0.05921094 0.04028162 0.01752675
v -0.04758435 0.03637230 0.02033871
v -0.05526146 0.04011586 0.02031408
v -0.04205382 0.05048830 -0.00959016
v -0.03064636 0.04916416 0.01295226
v -0.03404172 0.04636361 -0.01762264
v -0.02951456 0.04925234 0.00977779
v -0.02955529 0.04923015 -0.01179964
v -0.02305855 0.04448442 0.01611686
v -0.02526632 0.04670841 0.01489231
v -0.04431520 0.04781977 0.01634978
v -0.02837494 0.04497542 0.01788473
v -0.03630256 0.04204486 -0.01895664
v -0.05620440 0.04010714 -0.01789534
v -0.06536875 0.03099650 0.01210032
v -0.06388395 0.03653747 -0.01295569
v -0.05514468 0.04435216 -0.01450660
v -0.01936613 0.02216881 -0.01567743
v -0.02848901 0.04693283 -0.01568284
v -0.03051026 0.04092939 -0.01895418
v -0.05921462 0.03922297 0.01812985
v -0.05710521 0.04322214 0.01446619
v -0.05104909 0.03156695 0.02039519
vn 0.27275786 0.25789742 0.92687220
vn 0.94030420 -0.15894191 0.30094100
vn 0.27921171 0.88119919 -0.38148239
vn -0.47889744 0.34350998 -0.80787260
vn -0.80308945 -0.41833515 0.42431478
vn 0.55130140 -0.58845093 -0.59143239
vn 0.80572803 0.47073539 0.35945866
vn 0.41993517 -0.63580297 0.64761798
vn -0.17482404 0.96376701 0.20146888
vn 0.07954575 0.22621813 -0.97082328
vn -0.82073225 -0.45664048 -0.34333372
vn 0.77855076 0.55408305 -0.29470440
vn 0.69104448 -0.72279092 0.00555038
vn -0.12404340 -0.33919943 0.93250039
vn 0.42229319 0.07404905 0.90342969
vn -0.28270984 0.92475729 -0.25475301
vn 0.36024220 0.90970055 0.20656830
vn -0.45852382 -0.44964190 -0.76653641
vn -0.76717202 0.64086497 0.02718771
vn -0.14387945 -0.98959327 0.00196755
vn 0.21607367 0.61220162 -0.76060591
vn 0.67848381 0.10070091 -0.72768059
vn -0.48590468 -0.46134893 0.74232998
vn -0.23375461 0.68192925 0.69305936
vn 0.45269099 0.25469094 0.85451939
vn 0.02855648 0.21016018 0.97724983
vn 0.08213363 0.98008646 -0.18078880
vn -0.10811268 0.61951614 -0.77750331
vn 0.39868532 0.91484938 -0.06403613
vn 0.24598549 0.73036395 0.63722809
vn -0.03965367 0.10711939 -0.99345509
vn -0.09503052 -0.85895845 -0.50314966
vn -0.94955282 0.29938074 -0.09338424
vn -0.62073874 0.72373490 -0.30148170
vn -0.17307387 -0.98386273 0.04538234
vn -0.19135149 -0.98149013 0.00785747
vn 0.33083379 0.76550728 -0.55185832
vn 0.02509892 0.01024761 -0.99963245
vn 0.75725701 0.29616275 -0.58210776
vn -0.11750160 -0.94474242 0.30603125
vn -0.27690086 -0.44452801 0.85189246
vn -0.69103511 0.57757357 0.43460240
vn 0.04636870 -0.00763137 0.99889524
vn -0.28571588 0.31534699 0.90494348
vn -0.08896415 0.98005859 -0.17768100
vn 0.10457397 0.95488850 0.27794287
vn 0.05367443 0.63653832 -0.76937509
vn 0.22242031 0.97402529 0.04247280
vn 0.21366423 0.94488377 -0.24807713
vn 0.40128104 0.56295396 0.72253468
vn 0.42543992 0.80576887 0.41199200
vn -0.13158596 0.80615599 0.57688617
vn 0.13561684 0.40736853 0.90313839
vn 0.01081123 0.17869310 -0.98384546
vn -0.30263869 0.41231053 -0.85930777
vn -0.90947513 -0.39834994 0.11904753
vn -0.83223183 0.49180229 -0.25597009
vn -0.45058475 0.79744960 -0.40130727
vn -0.15214716 -0.98753588 -0.04030044
vn 0.19290112 0.80355136 -0.56311133
vn 0.06110873 0.10309143 -0.99279297
vn -0.61112003 0.30719975 0.72949341
vn -0.56878588 0.80118453 0.18597302
vn 0.04637465 -0.03164881 0.99842263
f 8//8 2//2 7//7
f 13//13 7//7 2//2
f 13//13 12//12 7//7
f 13//13 2//2 8//8
f 15//15 8//8 7//7
f 18//18 11//11 4//4
f 25//25 15//15 7//7
f 25//25 7//7 1//1
f 25//25 1//1 15//15
f 26//26 8//8 15//15
f 26//26 15//15 1//1
f 29//29 17//17 7//7
f 29//29 7//7 12//12
f 31//31 6//6 18//18
f 32//32 18//18 6//6
f 32//32 11//11 18//18
f 32//32 6//6 13//13
f 36//36 35//35 5//5
f 36//36 20//20 35//35
f 37//37 3//3 12//12
f 37//37 12//12 21//21
f 38//38 22//22 6//6
f 38//38 6//6 31//31
f 39//39 21//21 12//12
f 39//39 12//12 13//13
f 39//39 13//13 6//6
f 39//39 6//6 22//22
f 40//40 23//23 5//5
f 40//40 5//5 35//35
f 40//40 35//35 20//20
f 40//40 32//32 13//13
f 40//40 13//13 8//8
f 41//41 8//8 14//14
f 41//41 40//40 8//8
f 41//41 23//23 40//40
f 43//43 26//26 14//14
f 43//43 8//8 26//26
f 44//44 26//26 24//24
f 44//44 14//14 26//26
f 44//44 41//41 14//14
f 44//44 24//24 42//42
f 44//44 23//23 41//41
f 45//45 16//16 9//9
f 45//45 9//9 27//27
f 45//45 28//28 16//16
f 46//46 27//27 9//9
f 46//46 30//30 17//17
f 47//47 21//21 39//39
f 47//47 39//39 22//22
f 47//47 22//22 10//10
f 47//47 45//45 27//27
f 47//47 28//28 45//45
f 48//48 17//17 29//29
f 48//48 46//46 17//17
f 48//48 27//27 46//46
f 49//49 48//48 29//29
f 49//49 27//27 48//48
f 49//49 47//47 27//27
f 49//49 3//3 47//47
f 49//49 29//29 12//12
f 49//49 12//12 3//3
f 50//50 1//1 7//7
f 50//50 7//7 30//30
f 51//51 30//30 7//7
f 51//51 7//7 17//17
f 51//51 17//17 30//30
f 52//52 46//46 9//9
f 52//52 30//30 46//46
f 53//53 26//26 1//1
f 53//53 50//50 30//30
f 53//53 1//1 50//50
f 53//53 24//24 26//26
f 53//53 52//52 24//24
f 53//53 30//30 52//52
f 54//54 31//31 28//28
f 54//54 47//47 10//10
f 54//54 28//28 47//47
f 55//55 31//31 18//18
f 55//55 18//18 4//4
f 55//55 28//28 31//31
f 55//55 4//4 34//34
f 56//56 33//33 11//11
f 56//56 42//42 19//19
f 56//56 5//5 42//42
f 56//56 36//36 5//5
f 56//56 11//11 36//36
f 57//57 4//4 11//11
f 57//57 11//11 33//33
f 57//57 34//34 4//4
f 57//57 19//19 34//34
f 57//57 56//56 19//19
f 57//57 33//33 56//56
f 58//58 34//34 16//16
f 58//58 16//16 28//28
f 58//58 55//55 34//34
f 58//58 28//28 55//55
f 59//59 20//20 36//36
f 59//59 40//40 20//20
f 59//59 32//32 40//40
f 59//59 36//36 11//11
f 59//59 11//11 32//32
f 60//60 37//37 21//21
f 60//60 3//3 37//37
f 60//60 47//47 3//3
f 60//60 21//21 47//47
f 61//61 10//10 22//22
f 61//61 22//22 38//38
f 61//61 54//54 10//10
f 61//61 38//38 31//31
f 61//61 31//31 54//54
f 62//62 42//42 5//5
f 62//62 5//5 23//23
f 62//62 44//44 42//42
f 62//62 23//23 44//44
f 63//63 34//34 19//19
f 63//63 19//19 42//42
f 63//63 16//16 34//34
f 63//63 9//9 16//16
f 63//63 42//42 24//24
f 63//63 52//52 9//9
f 63//63 24//24 52//52
f 64//64 43//43 14//14
f 64//64 14//14 8//8
f 64//64 8//8 43//43

