# https://github.com/mikedh/trimesh
v 0.07000829 0.00194835 0.01546108
v 0.07121584 -0.01947061 0.01157719
v 0.07130602 0.00222898 -0.01322024
v 0.06120654 0.00234826 -0.01973132
v 0.05799672 -0.02003365 0.01225465
v 0.06908851 -0.01986325 -0.01845673
v 0.05704404 0.00232282 0.00876310
v 0.07138715 0.00209327 0.01338645
v 0.06832238 -0.01964808 0.01551498
v 0.07115019 -0.01962956 -0.01400848
v 0.06855707 0.00221485 -0.01858061
v 0.05666233 -0.02004522 -0.01431617
v 0.05935462 0.00245021 -0.01744202
v 0.06142626 0.00214958 0.01564934
v 0.07041998 -0.01949650 0.01382540
v 0.05522332 -0.02030439 -0.00043170
v 0.07113158 -0.00503180 -0.01527890
v 0.06610761 -0.01983035 -0.01965528
v 0.05759742 -0.01978144 -0.01586689
v 0.06034409 0.00217038 0.01465380
v 0.06310907 -0.01969996 0.01530257
v 0.07023059 -0.00029760 0.01542913
v 0.07108285 -0.00376888 0.01371390
v 0.05826544 0.00202569 -0.01418704
v 0.07047191 0.00220463 -0.01633711
v 0.06519665 0.00226510 -0.01944433
v 0.06130250 -0.01946730 -0.01831461
v 0.05826668 0.00219921 0.01106275
v 0.05896842 -0.01982513 0.01308286
v 0.05503940 -0.02002040 -0.00149596
v 0.07107924 -0.00142143 -0.01492614
v 0.06334211 -0.01943725 -0.01915745
v 0.05679368 0.00164343 0.00188150
vn 0.36452608 0.59507980 0.71624072
vn 0.74919969 -0.65161658 0.11872515
vn 0.72741645 0.68140362 -0.08095936
vn -0.30309861 0.61107218 -0.73124690
vn -0.63866543 -0.65335073 0.40649637
vn 0.52995780 -0.63492267 -0.56215472
vn -0.70553153 0.67968070 0.20064744
vn 0.73009241 0.64761079 0.21809478
vn 0.24902076 -0.64395171 0.72340505
vn 0.76043210 -0.63258367 -0.14690445
vn 0.41174827 0.64150795 -0.64724873
vn -0.71531397 -0.64657533 -0.26507784
vn -0.62671786 0.69263218 -0.35705095
vn -0.27131385 0.62272072 0.73389897
vn 0.64212163 -0.63672855 0.42691517
vn -0.68722268 -0.71624874 0.12129606
vn 0.95018409 -0.00183935 -0.31168384
vn 0.07778173 -0.64305749 -0.76185764
vn -0.57614242 -0.56590809 -0.58975244
vn -0.56622807 0.66922841 0.48116433
vn -0.18006364 -0.63671889 0.74977739
vn 0.55446109 -0.00177556 0.83220775
vn 0.91541748 -0.03188239 0.40124100
vn -0.83693893 0.52715520 -0.14710752
vn 0.65748745 0.66253838 -0.35882189
vn 0.12758696 0.68034281 -0.72170301
vn -0.38254239 -0.53935258 -0.75017339
vn -0.80907738 0.36597937 0.45984008
vn -0.47088880 -0.46424431 0.75016062
vn -0.94019709 -0.33922368 -0.03093094
vn 0.96700313 0.04145550 -0.25136901
vn -0.27267397 -0.45060555 -0.85006090
vn -0.90950066 0.41410198 -0.03644322
f 9//9 6//6 2//2
f 10//10 2//2 6//6
f 10//10 8//8 2//2
f 10//10 3//3 8//8
f 13//13 11//11 4//4
f 13//13 8//8 3//3
f 13//13 7//7 8//8
f 14//14 8//8 7//7
f 14//14 1//1 8//8
f 14//14 9//9 1//1
f 15//15 9//9 2//2
f 16//16 9//9 5//5
f 16//16 6//6 9//9
f 16//16 12//12 6//6
f 16//16 5//5 7//7
f 17//17 10//10 6//6
f 17//17 3//3 10//10
f 18//18 11//11 6//6
f 18//18 6//6 12//12
f 19//19 13//13 4//4
f 19//19 12//12 13//13
f 19//19 18//18 12//12
f 20//20 14//14 7//7
f 20//20 5//5 14//14
f 21//21 5//5 9//9
f 21//21 9//9 14//14
f 22//22 8//8 1//1
f 22//22 1//1 9//9
f 22//22 9//9 15//15
f 23//23 15//15 2//2
f 23//23 2//2 8//8
f 23//23 22//22 15//15
f 23//23 8//8 22//22
f 24//24 13//13 12//12
f 24//24 7//7 13//13
f 25//25 13//13 3//3
f 25//25 11//11 13//13
f 25//25 17//17 6//6
f 25//25 6//6 11//11
f 26//26 18//18 4//4
f 26//26 4//4 11//11
f 26//26 11//11 18//18
f 27//27 19//19 4//4
f 27//27 18//18 19//19
f 28//28 20//20 7//7
f 28//28 7//7 5//5
f 28//28 5//5 20//20
f 29//29 21//21 14//14
f 29//29 14//14 5//5
f 29//29 5//5 21//21
f 30//30 24//24 12//12
f 30//30 12//12 16//16
f 30//30 16//16 7//7
f 31//31 25//25 3//3
f 31//31 3//3 17//17
f 31//31 17//17 25//25
f 32//32 27//27 4//4
f 32//32 4//4 18//18
f 32//32 18//18 27//27
f 33//33 30//30 7//7
f 33//33 7//7 24//24
f 33//33 24//24 30//30

