# https://github.com/mikedh/trimesh
v -0.04474814 -0.03541299 -0.00983679
v -0.04478583 -0.04703287 -0.00978384
v -0.04477524 -0.03564569 -0.01977172
v -0.06963257 -0.03536601 -0.01934270
v -0.07602362 -0.03540945 -0.00983630
v -0.04476922 -0.04329457 -0.01839974
v -0.06757935 -0.04691211 -0.00976027
v -0.07544951 -0.03537679 -0.01523917
v -0.04479674 -0.04106534 -0.01948469
v -0.04453649 -0.04607091 -0.01506922
v -0.06751645 -0.04385267 -0.01699359
v -0.07596880 -0.04020619 -0.01215579
v -0.06865610 -0.03878552 -0.01925236
v -0.06756087 -0.04514737 -0.01581368
v -0.06751594 -0.04200575 -0.01815367
v -0.07605738 -0.04024997 -0.00991996
v -0.07597389 -0.03904460 -0.01218688
v -0.07209078 -0.03993695 -0.01819361
v -0.06756099 -0.04612930 -0.01312596
v -0.04709107 -0.04599557 -0.01516853
v -0.05788345 -0.04077303 -0.01921348
v -0.06031180 -0.04304955 -0.01800073
v -0.07602224 -0.03784055 -0.01101142
v -0.07364879 -0.03541498 -0.01707715
v -0.06958279 -0.03763209 -0.01913254
v -0.07488435 -0.04010478 -0.01502618
v -0.07352064 -0.03760697 -0.01701598
vn 0.57428701 0.58594980 0.57171431
vn 0.55220133 -0.63653025 0.53842635
vn 0.56835013 0.55476400 -0.60763068
vn -0.18431678 0.64788767 -0.73910006
vn -0.59779462 0.57792736 0.55555518
vn 0.61596363 -0.46720372 -0.63427872
vn -0.25653760 -0.78488062 0.56404864
vn -0.70005486 0.61829567 -0.35725854
vn 0.63084748 -0.19283069 -0.75156356
vn 0.66655758 -0.67800284 -0.30985986
vn -0.17923398 -0.61055622 -0.77142484
vn -0.88049445 -0.44285028 -0.16915422
vn -0.12261489 -0.19074601 -0.97395151
vn -0.27295851 -0.81287366 -0.51451925
vn -0.12476764 -0.45099009 -0.88376522
vn -0.72618569 -0.35408039 0.58930589
vn -0.99398478 0.00718839 -0.10928215
vn -0.49675452 -0.35269799 -0.79299374
vn -0.30799974 -0.91296494 -0.26764003
vn -0.01314018 -0.88727541 -0.46105280
vn -0.03032008 -0.30066423 -0.95324798
vn -0.03629494 -0.55539373 -0.83079509
vn -0.99861234 0.01918543 -0.04904407
vn -0.48794910 0.63433703 -0.59960171
vn -0.25734244 -0.09821275 -0.96131635
vn -0.76286221 -0.45526357 -0.45910384
vn -0.71909832 -0.08849479 -0.68925052
f 1//1 3//3 4//4
f 7//7 2//2 1//1
f 7//7 1//1 5//5
f 8//8 5//5 1//1
f 8//8 1//1 4//4
f 10//10 1//1 2//2
f 10//10 2//2 7//7
f 10//10 3//3 1//1
f 10//10 9//9 3//3
f 10//10 6//6 9//9
f 13//13 4//4 3//3
f 13//13 3//3 9//9
f 14//14 11//11 6//6
f 16//16 12//12 7//7
f 16//16 7//7 5//5
f 17//17 5//5 8//8
f 17//17 8//8 12//12
f 17//17 12//12 16//16
f 18//18 11//11 14//14
f 18//18 15//15 11//11
f 18//18 13//13 15//15
f 19//19 10//10 7//7
f 19//19 7//7 12//12
f 20//20 14//14 6//6
f 20//20 6//6 10//10
f 20//20 19//19 14//14
f 20//20 10//10 19//19
f 21//21 9//9 6//6
f 21//21 15//15 13//13
f 21//21 13//13 9//9
f 22//22 6//6 11//11
f 22//22 11//11 15//15
f 22//22 21//21 6//6
f 22//22 15//15 21//21
f 23//23 17//17 16//16
f 23//23 16//16 5//5
f 23//23 5//5 17//17
f 24//24 8//8 4//4
f 24//24 4//4 18//18
f 25//25 18//18 4//4
f 25//25 4//4 13//13
f 25//25 13//13 18//18
f 26//26 12//12 8//8
f 26//26 18//18 14//14
f 26//26 19//19 12//12
f 26//26 14//14 19//19
f 27//27 24//24 18//18
f 27//27 8//8 24//24
f 27//27 26//26 8//8
f 27//27 18//18 26//26

