# https://github.com/mikedh/trimesh
v -0.05361865 0.02571677 0.01993089
v -0.04848751 0.02612117 0.01582938
v -0.07087511 0.02502261 0.01447401
v -0.06783615 0.02508354 -0.01799721
v -0.06001488 -0.01748747 -0.00879043
v -0.07232043 0.02511273 -0.01276069
v -0.06594799 0.02523200 0.01946075
v -0.05852313 -0.01718262 0.01668317
v -0.05197344 0.02569166 -0.01595681
v -0.07703964 -0.01673969 -0.00212620
v -0.05132372 0.02596524 0.01869695
v -0.05864274 -0.01729519 -0.00303712
v -0.06647197 -0.01688506 0.02099833
v -0.06662912 -0.01674826 -0.01634765
v -0.05335596 0.02602330 -0.01662852
v -0.07570814 0.00829713 -0.00905289
v -0.06213910 -0.01689328 0.01977756
v -0.04811318 0.02518276 0.01263192
v -0.06168514 0.01818318 0.02088687
v -0.07343015 0.00712406 0.01735668
v -0.07581113 -0.01685281 0.00868105
v -0.06375513 -0.01708334 -0.01548015
v -0.05692436 0.02566818 -0.01757066
v -0.07340361 0.01680330 0.01373105
v -0.07581621 -0.01665806 -0.01327880
v -0.06724509 0.01441449 0.02071986
v -0.07131125 0.02027118 0.01722607
v -0.07706740 -0.01681584 -0.01020289
v -0.07468816 -0.01669857 0.01655490
v -0.06263488 -0.01698570 -0.01426699
v -0.06870879 0.00266285 -0.01744215
v -0.07205998 0.02252856 0.01345809
v -0.07445128 0.01749809 -0.00936130
v -0.07703412 -0.01074901 -0.00547636
v -0.07466561 -0.00593655 0.01571024
v -0.07198246 -0.01671103 -0.01631595
v -0.07575903 0.00841421 -0.01267104
v -0.06469754 0.01794086 0.02066873
v -0.07252112 -0.01669670 0.01881597
v -0.07016790 0.02500366 0.01661882
v -0.07329863 0.01073816 0.01690711
v -0.06898788 0.01701981 0.01959817
v -0.06147248 -0.01698028 -0.01224481
v -0.07201724 0.02029767 0.01554214
v -0.07338545 0.02253483 -0.01242340
v -0.07571410 -0.00960106 0.00757425
v -0.07114835 0.01196501 -0.01761293
v -0.06831634 -0.01670292 0.02087756
v -0.06894470 0.02391024 0.01825387
v -0.06798303 0.02512052 0.01848121
v -0.07200094 0.01564846 0.01774171
v -0.07333328 0.01583238 0.01473262
v -0.07037504 0.01324267 0.01944745
v -0.07085610 0.02257760 0.01687516
v -0.07452766 0.01652801 -0.01311847
v -0.06982387 0.02131000 -0.01745573
v -0.07692737 -0.01433782 -0.00214583
v -0.07063495 0.00388927 -0.01733636
v -0.07309958 -0.01302335 -0.01610657
v -0.07453673 0.01315091 -0.01395284
v -0.07115771 0.01567410 0.01847697
v -0.07241722 0.00495159 0.01840109
v -0.07430125 0.01795466 -0.01234568
v -0.06983046 0.02369471 -0.01642547
vn 0.19864128 0.60087030 0.77427161
vn 0.72732789 0.59232155 0.34662564
vn -0.60567294 0.78372190 0.13762367
vn -0.24640203 0.63082754 -0.73575991
vn 0.59276482 -0.77725104 -0.21097557
vn -0.62742649 0.74080673 -0.23987785
vn -0.19495314 0.71743400 0.66879125
vn 0.62703612 -0.70589201 0.32945739
vn 0.75437397 0.43467789 -0.49190959
vn -0.78562628 -0.61652464 0.05185273
vn 0.44928939 0.63702302 0.62637107
vn 0.68957419 -0.72029705 -0.07523029
vn 0.04127813 -0.67334327 0.73817677
vn 0.07931582 -0.57099279 -0.81711458
vn 0.28536467 0.66827719 -0.68700262
vn -0.99392732 0.10320400 0.03817617
vn 0.32685345 -0.64650237 0.68934862
vn 0.98270298 0.18394867 -0.02139485
vn 0.01615225 0.06501282 0.99775370
vn -0.85190921 0.06328621 0.51985147
vn -0.72141375 -0.68598044 0.09483165
vn 0.33659120 -0.69982088 -0.63004532
vn 0.09325082 0.58246270 -0.80749086
vn -0.97286853 0.17261150 0.15405222
vn -0.63942253 -0.61814257 -0.45720739
vn -0.23283691 0.06266282 0.97049490
vn -0.78461275 0.20875947 0.58378277
vn -0.74525463 -0.64891955 -0.15329368
vn -0.70281137 -0.62130113 0.34646945
vn 0.64707821 -0.59878168 -0.47196429
vn -0.00058087 -0.04329677 -0.99906209
vn -0.93775404 0.30846049 0.15959162
vn -0.98293971 0.18251227 0.02277737
vn -0.99859514 0.04808485 0.02226202
vn -0.96568258 0.04231967 0.25625417
vn -0.24213778 -0.65170030 -0.71878787
vn -0.94059375 0.06909012 -0.33243038
vn -0.11192522 0.11500839 0.98703891
vn -0.45882204 -0.63941059 0.61695740
vn -0.57517236 0.73074240 0.36768505
vn -0.91021093 0.09642454 0.40276342
vn -0.45073931 0.15300941 0.87944425
vn 0.78684346 -0.44933511 -0.42305476
vn -0.91535998 0.23176695 0.32924183
vn -0.91935238 0.28479875 -0.27144222
vn -0.99336819 0.04788888 0.10452896
vn -0.41715207 0.02066307 -0.90860178
vn -0.23760124 -0.56390777 0.79091952
vn -0.56385468 0.24644858 0.78824552
vn -0.36194000 0.74328246 0.56261054
vn -0.78552970 0.15123596 0.60005898
vn -0.95266150 0.13750725 0.27116014
vn -0.52407251 0.07310044 0.84853069
vn -0.81120221 0.26743066 0.52003060
vn -0.92103828 0.17443129 -0.34822724
vn -0.60154971 0.15755674 -0.78314355
vn -0.99443354 0.05070604 0.09236246
vn -0.09836445 -0.04108425 -0.99430203
vn -0.53474640 -0.03475760 -0.84429746
vn -0.80633040 0.09282608 -0.58413577
vn -0.60479892 0.14440359 0.78317678
vn -0.61232646 0.02432682 0.79023067
vn -0.98139082 0.18718479 -0.04282418
vn -0.72513992 0.29221161 -0.62352583
f 11//11 7//7 1//1
f 11//11 3//3 7//7
f 11//11 6//6 3//3
f 11//11 2//2 6//6
f 11//11 8//8 2//2
f 12//12 8//8 5//5
f 12//12 5//5 9//9
f 15//15 6//6 2//2
f 15//15 2//2 9//9
f 15//15 4//4 6//6
f 17//17 11//11 1//1
f 17//17 8//8 11//11
f 17//17 13//13 8//8
f 17//17 1//1 13//13
f 18//18 2//2 8//8
f 18//18 8//8 12//12
f 18//18 12//12 9//9
f 18//18 9//9 2//2
f 19//19 13//13 1//1
f 19//19 1//1 7//7
f 21//21 5//5 8//8
f 21//21 8//8 13//13
f 22//22 15//15 9//9
f 22//22 14//14 15//15
f 23//23 15//15 14//14
f 23//23 4//4 15//15
f 26//26 13//13 19//19
f 28//28 21//21 10//10
f 28//28 5//5 21//21
f 28//28 22//22 5//5
f 29//29 21//21 13//13
f 30//30 22//22 9//9
f 30//30 5//5 22//22
f 31//31 23//23 14//14
f 31//31 4//4 23//23
f 32//32 3//3 6//6
f 33//33 16//16 24//24
f 33//33 24//24 32//32
f 34//34 24//24 16//16
f 34//34 28//28 10//10
f 35//35 29//29 20//20
f 35//35 21//21 29//29
f 36//36 14//14 22//22
f 36//36 28//28 25//25
f 36//36 22//22 28//28
f 36//36 31//31 14//14
f 37//37 16//16 33//33
f 37//37 25//25 28//28
f 37//37 34//34 16//16
f 37//37 28//28 34//34
f 38//38 26//26 19//19
f 38//38 19//19 7//7
f 38//38 7//7 26//26
f 39//39 29//29 13//13
f 39//39 20//20 29//29
f 40//40 3//3 32//32
f 41//41 35//35 20//20
f 42//42 26//26 7//7
f 43//43 30//30 9//9
f 43//43 9//9 5//5
f 43//43 5//5 30//30
f 44//44 32//32 24//24
f 45//45 33//33 32//32
f 45//45 32//32 6//6
f 46//46 10//10 21//21
f 46//46 21//21 35//35
f 46//46 35//35 24//24
f 46//46 24//24 34//34
f 47//47 4//4 31//31
f 48//48 39//39 13//13
f 48//48 13//13 26//26
f 49//49 42//42 7//7
f 50//50 7//7 3//3
f 50//50 3//3 40//40
f 50//50 49//49 7//7
f 50//50 40//40 49//49
f 51//51 41//41 20//20
f 52//52 24//24 35//35
f 52//52 35//35 41//41
f 52//52 44//44 24//24
f 52//52 41//41 51//51
f 52//52 51//51 27//27
f 52//52 27//27 44//44
f 53//53 26//26 42//42
f 53//53 48//48 26//26
f 53//53 39//39 48//48
f 53//53 51//51 20//20
f 54//54 40//40 32//32
f 54//54 32//32 44//44
f 54//54 44//44 27//27
f 54//54 49//49 40//40
f 54//54 27//27 49//49
f 55//55 37//37 33//33
f 56//56 45//45 6//6
f 56//56 55//55 45//45
f 56//56 4//4 47//47
f 57//57 46//46 34//34
f 57//57 34//34 10//10
f 57//57 10//10 46//46
f 58//58 47//47 31//31
f 58//58 31//31 36//36
f 58//58 36//36 47//47
f 59//59 47//47 36//36
f 59//59 36//36 25//25
f 60//60 25//25 37//37
f 60//60 37//37 55//55
f 60//60 56//56 47//47
f 60//60 55//55 56//56
f 60//60 59//59 25//25
f 60//60 47//47 59//59
f 61//61 49//49 27//27
f 61//61 27//27 51//51
f 61//61 51//51 53//53
f 61//61 53//53 42//42
f 61//61 42//42 49//49
f 62//62 53//53 20//20
f 62//62 20//20 39//39
f 62//62 39//39 53//53
f 63//63 55//55 33//33
f 63//63 33//33 45//45
f 63//63 45//45 55//55
f 64//64 56//56 6//6
f 64//64 6//6 4//4
f 64//64 4//4 56//56

