# https://github.com/mikedh/trimesh
v -0.00292542 0.02247924 0.01832529
v 0.00359507 -0.01767807 0.01468148
v 0.00327218 0.01211196 -0.00801426
v -0.00822136 0.02739172 -0.01658824
v -0.01715120 -0.01783051 0.00028149
v -0.00255320 0.03324924 0.01110758
v -0.01184798 -0.01722737 0.01607759
v -0.00043223 -0.01696421 -0.01552226
v -0.00296214 0.02524115 -0.01286404
v -0.01546112 0.01607903 0.01428957
v 0.00289451 0.01223839 0.01323189
v -0.01280295 -0.01727488 0.01511832
v 0.00015232 -0.01712529 0.01739838
v 0.00329895 -0.01741808 -0.00537775
v -0.01418193 -0.01737590 -0.01453760
v -0.00313103 0.01566619 -0.01819319
v -0.00951258 0.02958929 0.01646517
v -0.01515565 0.01609614 -0.01135170
v -0.00251236 0.02944021 0.01642012
v 0.00005422 0.01211073 0.01894768
v -0.00221388 0.03293211 0.01335307
v -0.00959027 -0.01713345 0.01750853
v 0.00078786 -0.01732695 -0.01336226
v -0.01079833 0.01573481 -0.01805259
v 0.00087556 0.00494515 -0.01358187
v -0.00956004 0.03300349 0.01112363
v -0.01554656 -0.01755789 -0.01249903
v -0.00928882 0.02705540 0.01741558
v 0.00185336 0.01224262 0.01667319
v 0.00193470 -0.01734220 0.01647843
v -0.01176848 0.01558823 0.01732244
v 0.00196610 -0.01712937 -0.01010411
v -0.00216781 -0.01708767 -0.01657569
v -0.01394274 0.01615597 -0.01485455
v -0.00034195 0.00499909 -0.01540143
v -0.00967630 0.03297862 0.01237471
v -0.00893988 0.02144256 0.01839201
v -0.00874891 -0.00827083 -0.01753537
v -0.01264012 0.01595270 -0.01669491
v -0.00946113 0.03190993 0.01432420
v -0.00984701 0.01568966 0.01829261
v -0.01109879 -0.01670800 -0.01632346
v -0.00577532 -0.01082276 -0.01754307
v -0.00635007 0.00251851 0.01834121
v -0.01311914 -0.01690513 -0.01529959
v -0.00984691 -0.00217007 -0.01748920
v -0.00636118 -0.01062442 -0.01751383
vn 0.24180483 0.17377982 0.95463658
vn 0.70798852 -0.64195578 0.29435529
vn 0.96029016 0.15759976 -0.23022844
vn -0.16789997 0.71777537 -0.67572784
vn -0.73724230 -0.67446789 0.03958342
vn 0.51797415 0.85167867 -0.07966317
vn -0.44802585 -0.66978295 0.59216859
vn 0.61191725 -0.50127194 -0.61178732
vn 0.74871291 0.52859414 -0.40002152
vn -0.90298790 0.13403862 0.40822359
vn 0.97974851 0.13306416 0.14962211
vn -0.63289380 -0.66065571 0.40370715
vn 0.17084109 -0.58658313 0.79166505
vn 0.72802115 -0.67678821 -0.10928368
vn -0.50493580 -0.65396133 -0.56335994
vn 0.48915938 0.14261029 -0.86045651
vn -0.46876295 0.47960496 0.74178189
vn -0.95819070 0.22483109 -0.17697898
vn 0.49315392 0.42459489 0.75928808
vn 0.42415840 0.05841241 0.90370219
vn 0.56327969 0.74444167 0.35850048
vn -0.21356764 -0.62510702 0.75075300
vn 0.64692224 -0.68927280 -0.32618190
vn -0.32963966 0.07695451 -0.94096530
vn 0.87615586 0.02889837 -0.48116089
vn -0.53032337 0.84157722 -0.10249342
vn -0.69669446 -0.66006196 -0.28095380
vn -0.34447720 0.24493825 0.90627850
vn 0.87816038 0.12081350 0.46285898
vn 0.42851668 -0.62161117 0.65572327
vn -0.55334163 0.03421360 0.83225144
vn 0.91519909 -0.27410284 -0.29542895
vn 0.22146225 -0.64678185 -0.72981348
vn -0.87560577 0.19239235 -0.44305725
vn 0.78080357 0.02281039 -0.62436004
vn -0.56696483 0.79843542 0.20261231
vn -0.26965788 0.10031275 0.95771707
vn -0.16638162 -0.05129388 -0.98472641
vn -0.70536659 0.12827132 -0.69714018
vn -0.49860629 0.66617121 0.55462392
vn -0.27662901 0.00466167 0.96096548
vn -0.21114132 -0.52019945 -0.82753361
vn 0.04403533 -0.08399507 -0.99549270
vn -0.07361203 -0.02805153 0.99689236
vn -0.46175117 -0.24732730 -0.85183042
vn -0.31189930 -0.04655085 -0.94897410
vn -0.08947671 -0.10635416 -0.99029425
f 9//9 6//6 3//3
f 9//9 4//4 6//6
f 11//11 2//2 3//3
f 12//12 5//5 2//2
f 12//12 2//2 7//7
f 12//12 10//10 5//5
f 12//12 7//7 10//10
f 14//14 3//3 2//2
f 14//14 2//2 5//5
f 16//16 4//4 9//9
f 16//16 9//9 3//3
f 18//18 5//5 10//10
f 20//20 19//19 1//1
f 21//21 11//11 3//3
f 21//21 3//3 6//6
f 21//21 17//17 19//19
f 22//22 7//7 2//2
f 22//22 13//13 20//20
f 23//23 14//14 5//5
f 24//24 4//4 16//16
f 25//25 16//16 3//3
f 25//25 23//23 8//8
f 25//25 3//3 23//23
f 26//26 6//6 4//4
f 26//26 4//4 18//18
f 27//27 5//5 18//18
f 27//27 23//23 5//5
f 27//27 15//15 23//23
f 28//28 19//19 17//17
f 28//28 1//1 19//19
f 28//28 17//17 10//10
f 29//29 20//20 2//2
f 29//29 2//2 11//11
f 29//29 19//19 20//20
f 29//29 21//21 19//19
f 29//29 11//11 21//21
f 30//30 20//20 13//13
f 30//30 2//2 20//20
f 30//30 22//22 2//2
f 30//30 13//13 22//22
f 31//31 10//10 7//7
f 31//31 7//7 22//22
f 31//31 28//28 10//10
f 32//32 23//23 3//3
f 32//32 3//3 14//14
f 32//32 14//14 23//23
f 33//33 23//23 15//15
f 33//33 8//8 23//23
f 33//33 16//16 8//8
f 34//34 18//18 4//4
f 34//34 27//27 18//18
f 34//34 15//15 27//27
f 35//35 25//25 8//8
f 35//35 8//8 16//16
f 35//35 16//16 25//25
f 36//36 26//26 18//18
f 36//36 18//18 10//10
f 36//36 21//21 6//6
f 36//36 6//6 26//26
f 37//37 20//20 1//1
f 37//37 1//1 28//28
f 37//37 28//28 31//31
f 39//39 34//34 4//4
f 39//39 4//4 24//24
f 39//39 24//24 15//15
f 39//39 15//15 34//34
f 40//40 36//36 10//10
f 40//40 10//10 17//17
f 40//40 17//17 21//21
f 40//40 21//21 36//36
f 41//41 37//37 31//31
f 41//41 31//31 22//22
f 41//41 20//20 37//37
f 42//42 33//33 15//15
f 43//43 38//38 24//24
f 43//43 24//24 16//16
f 43//43 16//16 33//33
f 43//43 33//33 42//42
f 44//44 41//41 22//22
f 44//44 22//22 20//20
f 44//44 20//20 41//41
f 45//45 42//42 15//15
f 45//45 15//15 24//24
f 45//45 24//24 42//42
f 46//46 42//42 24//24
f 46//46 24//24 38//38
f 46//46 38//38 42//42
f 47//47 43//43 42//42
f 47//47 42//42 38//38
f 47//47 38//38 43//43

