# https://github.com/mikedh/trimesh
v 0.04335462 -0.03582810 0.01799914
v 0.04374795 -0.04446589 0.01738957
v 0.02772780 -0.03595463 -0.01758727
v -0.06219814 -0.02487785 -0.01623099
v -0.06188992 -0.03758202 0.02087519
v 0.02785484 -0.02732746 -0.00408104
v 0.04400265 -0.03603058 0.00042472
v 0.04337895 -0.04144199 0.01855532
v -0.06304392 -0.04528833 -0.00881019
v -0.00304328 -0.02504951 -0.01598207
v -0.05853203 -0.02486973 0.02096253
v 0.04335141 -0.04712034 0.00059568
v 0.02788501 -0.02980742 -0.01331509
v -0.06086704 -0.03981931 0.02097592
v 0.04342916 -0.03938538 0.01858888
v -0.06725532 -0.02490650 -0.00204123
v -0.06095804 -0.04094141 -0.01480541
v -0.00064433 -0.02518829 0.01716236
v -0.00221582 -0.02492281 -0.01530776
v 0.04368351 -0.04652117 0.01453003
v -0.00476930 -0.04524736 -0.01297172
v 0.02761427 -0.03279526 -0.01664530
v 0.02783061 -0.02853557 -0.00983808
v -0.06726403 -0.04019929 0.01018413
v -0.06175796 -0.03365949 0.02086889
v -0.05547965 -0.02500895 0.02090979
v -0.04959023 -0.03580825 0.02099144
v -0.06721742 -0.03318201 -0.01131109
v -0.06395532 -0.02479716 -0.01523323
v -0.03608887 -0.04012612 -0.01627927
v 0.02777358 -0.02848641 0.00996400
v -0.00718994 -0.02501839 0.01842655
v -0.03001831 -0.04643347 0.00880468
v -0.05974616 -0.04181204 0.01975303
v -0.00960438 -0.04636169 -0.00989910
v -0.06005271 -0.04415422 -0.01260154
v 0.02772389 -0.03482143 -0.01729839
v -0.06602640 -0.03997905 0.01533508
v -0.06490385 -0.02486538 0.01663987
v -0.00967415 -0.03092065 0.01973196
v -0.06727124 -0.03952162 -0.00873948
v -0.06728309 -0.02498265 -0.01011793
v -0.06339114 -0.03985011 -0.01476732
v -0.06092469 -0.03442679 -0.01613727
v -0.00442755 -0.04143649 -0.01615622
v 0.02760749 -0.02962008 0.01318251
v 0.02772102 -0.02734401 0.00396185
v -0.04440781 -0.04505044 0.01436451
v -0.02514368 -0.04638833 -0.00642859
v -0.03227523 -0.04324028 -0.01477464
v -0.06125755 -0.04509296 -0.00990456
v -0.02029456 -0.04506179 -0.01313990
v -0.06276185 -0.04006235 0.01964274
v -0.06391021 -0.04388340 0.01466979
v -0.06167425 -0.02491222 0.01959827
v -0.06711085 -0.03466665 0.01003243
v -0.06487883 -0.03886031 0.01767826
v -0.06603189 -0.02482487 -0.01319384
v -0.06387943 -0.04520615 -0.00519306
v -0.06364151 -0.03434868 -0.01514406
v -0.06586857 -0.03982009 -0.01215413
v -0.06389513 -0.04379783 -0.01189105
v 0.02058028 -0.03590019 -0.01751371
v -0.00474276 -0.04330539 -0.01504445
vn 0.65522063 0.49782348 0.56820570
vn 0.65519825 -0.45433668 0.60356726
vn 0.35968518 -0.23519847 -0.90294421
vn -0.19863530 0.61777538 -0.76085320
vn -0.45177087 -0.03464575 0.89146102
vn 0.30424102 0.94838158 -0.08949734
vn 0.86368709 0.41784809 -0.28186448
vn 0.52684074 -0.14377769 0.83771523
vn -0.35191013 -0.92037334 -0.17050566
vn 0.03195301 0.69804330 -0.71534226
vn -0.11488982 0.68380742 0.72056071
vn 0.66086966 -0.68062264 -0.31623427
vn 0.40814014 0.76697383 -0.49514925
vn -0.24286115 -0.33332584 0.91099525
vn 0.66110842 0.06598672 0.74738304
vn -0.72202419 0.69145740 0.02382719
vn -0.12524688 -0.41714000 -0.90017079
vn 0.11516646 0.91910074 0.37681630
vn 0.09420480 0.97799181 -0.18616521
vn 0.63500523 -0.73256603 0.24518436
vn 0.04976679 -0.85893117 -0.50966707
vn 0.40250653 0.46952742 -0.78583236
vn 0.34952347 0.90032868 -0.25930990
vn -0.94674875 -0.30342661 0.10769912
vn -0.43805828 0.04044823 0.89803613
vn 0.03300978 0.32422790 0.94540289
vn 0.01888631 -0.02072676 0.99960678
vn -0.92571938 -0.03636884 -0.37645842
vn -0.44508608 0.67121140 -0.59276778
vn -0.02640070 -0.26881758 -0.96282922
vn 0.24620591 0.93935749 0.23872611
vn 0.04666874 0.77403676 0.63141834
vn -0.02369280 -0.99538697 0.09297008
vn -0.14485695 -0.73383555 0.66370313
vn -0.00227097 -0.98019745 -0.19800960
vn -0.09469160 -0.78693257 -0.60972996
vn 0.41882045 0.25736817 -0.87083354
vn -0.89185813 -0.25332961 0.37471747
vn -0.65471420 0.67231386 0.34546112
vn 0.04625098 0.16190102 0.98572253
vn -0.94884037 -0.28001804 -0.14591724
vn -0.77548168 0.61798962 -0.12929423
vn -0.44757270 -0.28384153 -0.84800511
vn -0.16621742 -0.08982336 -0.98198958
vn 0.01026814 -0.38168574 -0.92423512
vn 0.21558632 0.89591554 0.38840427
vn 0.27366859 0.95976820 0.06285300
vn -0.03695907 -0.95454559 0.29576467
vn -0.01924297 -0.99830859 -0.05486049
vn -0.02324034 -0.61501837 -0.78817022
vn -0.06758062 -0.95032679 -0.30382866
vn -0.01601797 -0.85062678 -0.52552594
vn -0.59620805 -0.40941225 0.69059219
vn -0.48220467 -0.82116064 0.30524393
vn -0.39754011 0.69232263 0.60220531
vn -0.98824082 0.06150242 0.13999116
vn -0.80898488 -0.14253946 0.57028586
vn -0.61818033 0.66072543 -0.42578749
vn -0.50920242 -0.86055678 -0.01244689
vn -0.55682172 -0.06344522 -0.82820546
vn -0.81645389 -0.26380257 -0.51362560
vn -0.53605184 -0.68773234 -0.48956373
vn -0.01087887 -0.04871524 -0.99875346
vn 0.03859767 -0.63373458 -0.77258702
f 7//7 1//1 2//2
f 7//7 6//6 1//1
f 10//10 3//3 4//4
f 12//12 3//3 7//7
f 14//14 2//2 8//8
f 15//15 8//8 2//2
f 15//15 2//2 1//1
f 19//19 10//10 4//4
f 19//19 13//13 10//10
f 20//20 12//12 7//7
f 20//20 7//7 2//2
f 21//21 3//3 12//12
f 22//22 13//13 7//7
f 22//22 10//10 13//13
f 23//23 6//6 7//7
f 23//23 7//7 13//13
f 23//23 19//19 6//6
f 23//23 13//13 19//19
f 25//25 14//14 11//11
f 25//25 5//5 14//14
f 27//27 14//14 8//8
f 27//27 8//8 15//15
f 27//27 15//15 26//26
f 27//27 26//26 11//11
f 27//27 11//11 14//14
f 29//29 19//19 4//4
f 29//29 11//11 19//19
f 32//32 19//19 11//11
f 32//32 18//18 19//19
f 32//32 11//11 26//26
f 32//32 26//26 1//1
f 32//32 1//1 18//18
f 33//33 12//12 20//20
f 34//34 20//20 2//2
f 34//34 2//2 14//14
f 35//35 21//21 12//12
f 37//37 22//22 7//7
f 37//37 7//7 3//3
f 37//37 3//3 10//10
f 37//37 10//10 22//22
f 39//39 11//11 29//29
f 40//40 26//26 15//15
f 40//40 15//15 1//1
f 40//40 1//1 26//26
f 42//42 28//28 41//41
f 42//42 41//41 24//24
f 42//42 24//24 16//16
f 44//44 30//30 17//17
f 44//44 17//17 43//43
f 45//45 30//30 3//3
f 46//46 31//31 18//18
f 46//46 18//18 1//1
f 46//46 1//1 31//31
f 47//47 31//31 1//1
f 47//47 1//1 6//6
f 47//47 18//18 31//31
f 47//47 19//19 18//18
f 47//47 6//6 19//19
f 48//48 33//33 20//20
f 48//48 20//20 34//34
f 49//49 33//33 9//9
f 49//49 9//9 35//35
f 49//49 35//35 12//12
f 49//49 12//12 33//33
f 50//50 36//36 17//17
f 50//50 17//17 30//30
f 50//50 30//30 45//45
f 51//51 35//35 9//9
f 51//51 9//9 36//36
f 52//52 21//21 35//35
f 52//52 51//51 36//36
f 52//52 35//35 51//51
f 52//52 36//36 50//50
f 53//53 14//14 5//5
f 53//53 34//34 14//14
f 54//54 38//38 24//24
f 54//54 53//53 38//38
f 54//54 34//34 53//53
f 54//54 48//48 34//34
f 54//54 33//33 48//48
f 55//55 39//39 25//25
f 55//55 25//25 11//11
f 55//55 11//11 39//39
f 56//56 39//39 16//16
f 56//56 16//16 24//24
f 56//56 24//24 38//38
f 56//56 38//38 39//39
f 57//57 39//39 38//38
f 57//57 5//5 25//25
f 57//57 25//25 39//39
f 57//57 53//53 5//5
f 57//57 38//38 53//53
f 58//58 39//39 29//29
f 58//58 16//16 39//39
f 58//58 42//42 16//16
f 58//58 28//28 42//42
f 59//59 24//24 41//41
f 59//59 54//54 24//24
f 59//59 9//9 33//33
f 59//59 33//33 54//54
f 60//60 29//29 4//4
f 60//60 44//44 43//43
f 60//60 4//4 44//44
f 60//60 58//58 29//29
f 60//60 28//28 58//58
f 61//61 41//41 28//28
f 61//61 60//60 43//43
f 61//61 28//28 60//60
f 62//62 36//36 9//9
f 62//62 61//61 43//43
f 62//62 41//41 61//61
f 62//62 59//59 41//41
f 62//62 9//9 59//59
f 62//62 43//43 17//17
f 62//62 17//17 36//36
f 63//63 44//44 4//4
f 63//63 4//4 3//3
f 63//63 3//3 30//30
f 63//63 30//30 44//44
f 64//64 45//45 3//3
f 64//64 3//3 21//21
f 64//64 50//50 45//45
f 64//64 52//52 50//50
f 64//64 21//21 52//52

