# https://github.com/mikedh/trimesh
v 0.05005977 0.04685357 0.01534801
v 0.06781504 0.01030164 0.01344285
v 0.06264088 0.03362092 -0.01739776
v 0.02452110 0.04726909 -0.01932327
v 0.02368244 0.03540064 0.01615613
v 0.05763443 0.01055663 -0.01967493
v 0.03975979 0.05358788 -0.01401375
v 0.06144607 0.03973892 0.01054867
v 0.06051195 0.01516820 0.01668436
v 0.06744082 0.01052935 -0.01522872
v 0.05517175 0.03665741 -0.02034563
v 0.02412354 0.03408018 -0.01648730
v 0.05347193 0.01053120 0.00881949
v 0.02488119 0.04978102 0.01396404
v 0.06752098 0.02441580 0.00717354
v 0.05229985 0.04870854 0.00929192
v 0.03017877 0.04171412 0.01779465
v 0.06066728 0.03523498 0.01544061
v 0.06513768 0.01358595 -0.01938423
v 0.05322156 0.00985180 0.00193790
v 0.02806853 0.04292923 -0.02054728
v 0.05132545 0.04757262 -0.01591086
v 0.02420171 0.03750889 -0.01949742
v 0.05785415 0.01035796 0.01570573
v 0.02484117 0.05227132 -0.01235043
v 0.06384102 0.03491175 -0.00962955
v 0.06762192 0.01861712 -0.01443835
v 0.05463421 0.04628162 0.01248049
v 0.04329215 0.05214223 0.01218736
v 0.02432495 0.04461127 0.01772000
v 0.04824072 0.04262328 0.01648730
v 0.06620573 0.01027969 0.01557908
v 0.06628283 0.02570556 0.01253349
v 0.06528593 0.01050958 -0.01825279
v 0.06328069 0.02557239 -0.01910634
v 0.05680108 0.02607412 -0.02049045
v 0.05469333 0.01023407 -0.01413064
v 0.02403859 0.03410550 0.01377237
v 0.04470380 0.04470444 -0.02028063
v 0.05835819 0.03943512 -0.01804391
v 0.04902966 0.04991702 -0.01397094
v 0.05595052 0.04510058 -0.01406870
v 0.02918257 0.04181417 -0.02055981
v 0.05677197 0.01037875 0.01471020
v 0.02955354 0.05239778 -0.01605255
v 0.02417269 0.04712889 0.01660734
v 0.06386609 0.03516570 0.00339769
v 0.06640616 0.02551962 -0.01477389
v 0.06623584 0.01603190 -0.01878278
v 0.05809504 0.04421368 0.01024112
v 0.06027987 0.04062699 0.01270623
v 0.04905705 0.04983679 0.01253579
v 0.04554254 0.05219059 0.00719642
v 0.03307034 0.05357366 0.00673794
v 0.02410195 0.03837134 0.01794446
v 0.06035407 0.02114708 0.01658503
v 0.04466421 0.04603074 0.01653335
v 0.06391117 0.03386733 0.01151891
v 0.06749385 0.02217224 0.01133479
v 0.06654430 0.01864859 0.01429362
v 0.06281853 0.01048476 -0.01928121
v 0.05658202 0.03306404 -0.02038656
v 0.06065474 0.03617370 -0.01808002
v 0.05578251 0.01065859 -0.01738562
vn 0.29628405 0.49154033 0.81890407
vn 0.74676198 -0.61418900 0.25518311
vn 0.77675150 0.35997897 -0.51679033
vn -0.66546800 0.34211928 -0.66340541
vn -0.81211268 -0.38195118 0.44111936
vn -0.13264313 -0.69638297 -0.70530600
vn 0.14136781 0.90896005 -0.39218206
vn 0.85500571 0.50453040 0.12005960
vn 0.06954544 -0.07753500 0.99456109
vn 0.72512503 -0.65861731 -0.20103964
vn 0.20786863 0.18652033 -0.96020873
vn -0.83653205 -0.47164834 -0.27885834
vn -0.44688820 -0.87939854 0.16416194
vn -0.57711985 0.72810423 0.36986065
vn 0.98077744 0.19060351 0.04178412
vn 0.53233431 0.84214654 0.08607778
vn 0.03930727 0.05759749 0.99756577
vn 0.49542243 0.24021961 0.83477611
vn 0.44525392 -0.12936511 -0.88600994
vn -0.33402081 -0.94251581 0.00969828
vn -0.11670609 0.07816134 -0.99008610
vn 0.42100356 0.68566451 -0.59381831
vn -0.73141822 -0.16810654 -0.66088394
vn -0.13276852 -0.74474572 0.65400790
vn -0.69634611 0.70449689 -0.13706290
vn 0.88851988 0.44791643 -0.09951533
vn 0.97967467 0.08288045 -0.18267013
vn 0.55516092 0.69776518 0.45268101
vn 0.13558449 0.87163686 0.47102657
vn -0.56415727 0.18411782 0.80487714
vn 0.12928314 0.11210095 0.98525086
vn 0.40365258 -0.61124728 0.68076527
vn 0.86351184 0.24809817 0.43908382
vn 0.44896334 -0.73160669 -0.51301419
vn 0.50253356 0.14370199 -0.85253138
vn 0.06333891 -0.01209962 -0.99791873
vn -0.33566987 -0.93353282 -0.12586589
vn -0.80079169 -0.58672254 0.12037165
vn 0.12694215 0.36093077 -0.92391270
vn 0.57500666 0.48940510 -0.65562946
vn 0.42831999 0.85826604 -0.28270371
vn 0.66941960 0.69321256 -0.26708381
vn -0.05038763 -0.04893231 -0.99753031
vn -0.34401085 -0.89339576 0.28896464
vn -0.12221634 0.83502637 -0.53646447
vn -0.66369152 0.44421960 0.60181601
vn 0.91719182 0.39834863 0.00880551
vn 0.93150492 0.23443363 -0.27809973
vn 0.72659422 0.03735648 -0.68605053
vn 0.70334260 0.69648499 0.14218944
vn 0.69602974 0.50934459 0.50607379
vn 0.38422752 0.82558500 0.41325369
vn 0.29982142 0.95261479 0.05130480
vn -0.11288249 0.98106023 0.15741145
vn -0.61987159 -0.08560132 0.78002028
vn 0.17403561 0.04752609 0.98359183
vn 0.08428496 0.34136936 0.93614262
vn 0.88862274 0.34510174 0.30208345
vn 0.96350717 0.13232858 0.23268665
vn 0.73473336 0.11818916 0.66798069
vn 0.12217612 -0.72137145 -0.68168631
vn 0.17944076 0.07544242 -0.98087178
vn 0.64294160 0.40286377 -0.65140378
vn -0.46748580 -0.82761195 -0.31066943
f 20//20 10//10 2//2
f 23//23 12//12 5//5
f 23//23 5//5 4//4
f 23//23 4//4 21//21
f 23//23 6//6 12//12
f 27//27 15//15 2//2
f 27//27 2//2 10//10
f 31//31 18//18 1//1
f 32//32 9//9 24//24
f 32//32 24//24 20//20
f 32//32 20//20 2//2
f 34//34 10//10 20//20
f 36//36 19//19 6//6
f 37//37 20//20 12//12
f 38//38 20//20 13//13
f 38//38 5//5 12//12
f 38//38 12//12 20//20
f 39//39 21//21 4//4
f 39//39 11//11 21//21
f 39//39 7//7 22//22
f 40//40 39//39 22//22
f 40//40 11//11 39//39
f 41//41 22//22 7//7
f 42//42 40//40 22//22
f 42//42 26//26 3//3
f 42//42 41//41 16//16
f 42//42 22//22 41//41
f 43//43 23//23 21//21
f 43//43 6//6 23//23
f 43//43 36//36 6//6
f 43//43 21//21 11//11
f 44//44 24//24 5//5
f 44//44 13//13 20//20
f 44//44 20//20 24//24
f 44//44 38//38 13//13
f 44//44 5//5 38//38
f 45//45 25//25 7//7
f 45//45 4//4 25//25
f 45//45 39//39 4//4
f 45//45 7//7 39//39
f 46//46 25//25 4//4
f 46//46 4//4 5//5
f 46//46 14//14 25//25
f 46//46 29//29 14//14
f 47//47 26//26 8//8
f 47//47 15//15 26//26
f 48//48 26//26 15//15
f 48//48 15//15 27//27
f 48//48 3//3 26//26
f 49//49 27//27 10//10
f 49//49 48//48 27//27
f 49//49 19//19 35//35
f 49//49 35//35 3//3
f 49//49 3//3 48//48
f 49//49 34//34 19//19
f 49//49 10//10 34//34
f 50//50 16//16 28//28
f 50//50 42//42 16//16
f 50//50 8//8 26//26
f 50//50 26//26 42//42
f 51//51 50//50 28//28
f 51//51 8//8 50//50
f 51//51 28//28 1//1
f 51//51 1//1 18//18
f 52//52 28//28 16//16
f 52//52 29//29 1//1
f 52//52 1//1 28//28
f 53//53 41//41 7//7
f 53//53 16//16 41//41
f 53//53 52//52 16//16
f 53//53 29//29 52//52
f 54//54 25//25 14//14
f 54//54 14//14 29//29
f 54//54 7//7 25//25
f 54//54 53//53 7//7
f 54//54 29//29 53//53
f 55//55 5//5 24//24
f 55//55 24//24 9//9
f 55//55 9//9 17//17
f 55//55 17//17 30//30
f 55//55 46//46 5//5
f 55//55 30//30 46//46
f 56//56 31//31 17//17
f 56//56 17//17 9//9
f 56//56 18//18 31//31
f 56//56 32//32 18//18
f 56//56 9//9 32//32
f 57//57 30//30 17//17
f 57//57 17//17 31//31
f 57//57 31//31 1//1
f 57//57 46//46 30//30
f 57//57 1//1 29//29
f 57//57 29//29 46//46
f 58//58 33//33 15//15
f 58//58 8//8 51//51
f 58//58 51//51 18//18
f 58//58 18//18 33//33
f 58//58 47//47 8//8
f 58//58 15//15 47//47
f 59//59 2//2 15//15
f 59//59 15//15 33//33
f 60//60 32//32 2//2
f 60//60 59//59 33//33
f 60//60 2//2 59//59
f 60//60 33//33 18//18
f 60//60 18//18 32//32
f 61//61 6//6 19//19
f 61//61 19//19 34//34
f 61//61 37//37 6//6
f 61//61 34//34 20//20
f 61//61 20//20 37//37
f 62//62 35//35 19//19
f 62//62 11//11 35//35
f 62//62 19//19 36//36
f 62//62 43//43 11//11
f 62//62 36//36 43//43
f 63//63 35//35 11//11
f 63//63 3//3 35//35
f 63//63 11//11 40//40
f 63//63 42//42 3//3
f 63//63 40//40 42//42
f 64//64 37//37 12//12
f 64//64 12//12 6//6
f 64//64 6//6 37//37

