# https://github.com/mikedh/trimesh
v 0.06698941 -0.02464225 0.01586977
v 0.06980006 -0.03863042 0.01289018
v 0.06775555 -0.02485742 -0.01810194
v 0.04228212 -0.03563138 -0.01800584
v 0.04229544 -0.03550095 0.01773702
v 0.06630156 -0.04592027 -0.00826601
v 0.04240915 -0.02700421 -0.00449961
v 0.06988288 -0.02446478 0.01193197
v 0.05849720 -0.04412972 0.01703837
v 0.07094169 -0.03476473 -0.00920268
v 0.06500153 -0.03533729 -0.01777018
v 0.05781386 -0.02444289 -0.01640712
v 0.04216181 -0.02929684 0.01276394
v 0.06908701 -0.02449067 0.01418018
v 0.06611311 -0.03752253 0.01666066
v 0.06377781 -0.04799234 0.01094331
v 0.06879751 -0.04439012 -0.00816853
v 0.07115488 -0.03537918 0.00242788
v 0.07099345 -0.02851456 -0.01263386
v 0.06311452 -0.02445133 -0.01913162
v 0.05886576 -0.02488398 0.01439227
v 0.04243933 -0.02948417 -0.01373366
v 0.04216859 -0.03247202 -0.01706387
v 0.06601515 -0.03065353 0.01684655
v 0.06797320 -0.03852503 0.01571419
v 0.05790573 -0.04679710 0.00017711
v 0.05823783 -0.04619792 0.01411146
v 0.06806600 -0.04507772 -0.00836957
v 0.06863358 -0.04388273 0.01049783
v 0.07103973 -0.03755573 -0.00099950
v 0.06981723 -0.02462373 -0.01365369
v 0.07091933 -0.02853864 -0.00613044
v 0.06756742 -0.03522683 -0.01666079
v 0.06595476 -0.02679849 -0.01897099
v 0.04227534 -0.02702076 0.00354328
v 0.06177611 -0.02469413 0.01565736
v 0.04238493 -0.02821232 -0.01025665
v 0.04227821 -0.03449819 -0.01771696
v 0.05996954 -0.02446147 -0.01795982
v 0.06755172 -0.02958811 0.01572963
v 0.06376911 -0.04098040 0.01670603
v 0.05846648 -0.04483899 0.01610474
v 0.06675272 -0.04593174 0.01048165
v 0.06802144 -0.04182414 0.01455598
v 0.06986486 -0.04126278 -0.00819669
v 0.07109560 -0.03756419 0.00140644
v 0.06856257 -0.02599760 -0.01706841
v 0.06582102 -0.02494332 -0.01891263
v 0.06816377 -0.02771876 -0.01777381
v 0.05574628 -0.02525902 0.01139359
v 0.04232789 -0.02816317 0.00954543
v 0.04224557 -0.03061848 0.01492239
v 0.06706063 -0.04058543 0.01558737
v 0.05817568 -0.04482233 0.01606135
v 0.06848407 -0.04291121 0.01289235
v 0.06854788 -0.03968545 0.01477170
v 0.06454741 -0.04280743 0.01562841
v 0.07091025 -0.03265157 -0.01131989
v 0.06968700 -0.04222861 0.00959467
v 0.06962913 -0.02621009 -0.01478852
v 0.06861070 -0.02903285 -0.01700997
v 0.04228787 -0.03363433 0.01694764
v 0.05830227 -0.04414264 0.01697100
v 0.06852839 -0.04197282 0.01366548
vn 0.25782253 0.65331155 0.71183675
vn 0.93886274 -0.09970894 0.32953737
vn 0.52373303 0.60099448 -0.60374610
vn -0.64871713 -0.38623803 -0.65573339
vn -0.68438248 -0.26174408 0.68052235
vn 0.14967508 -0.89795816 -0.41384599
vn -0.72429740 0.68779954 -0.04821898
vn 0.70736659 0.69065414 0.15043057
vn 0.03741818 -0.48332791 0.87463936
vn 0.98777094 -0.11600646 -0.10416849
vn 0.18231306 -0.40695425 -0.89506993
vn -0.20517796 0.95019242 -0.23459832
vn -0.78171786 0.56143225 0.27149773
vn 0.60306560 0.66737578 0.43694559
vn 0.27262896 -0.07602742 0.95911067
vn 0.21086414 -0.93815587 0.27459039
vn 0.80845586 -0.52570774 -0.26463277
vn 0.99831700 -0.00149443 0.05797357
vn 0.96997588 0.06069131 -0.23550658
vn -0.00620653 0.67935763 -0.73378109
vn -0.18980757 0.94867551 0.25295824
vn -0.72923601 0.59491660 -0.33806668
vn -0.75766520 0.32338903 -0.56688886
vn 0.28740150 0.06145628 0.95583655
vn 0.62370111 -0.10883705 0.77404872
vn -0.31257668 -0.94377571 -0.10762538
vn -0.28089540 -0.89905296 0.33585942
vn 0.52764370 -0.75184470 -0.39537536
vn 0.79649948 -0.58181263 0.16456804
vn 0.98849521 -0.14831902 -0.02964276
vn 0.65582933 0.73469739 -0.17351550
vn 0.99234517 0.12250323 0.01562104
vn 0.61878161 -0.34564494 -0.70543525
vn 0.23821327 -0.06792579 -0.96883462
vn -0.73775004 0.67370023 0.04304495
vn -0.07739243 0.79185227 0.60578906
vn -0.77719254 0.60757061 -0.16379778
vn -0.51686313 0.22006071 -0.82730030
vn -0.18875075 0.87342912 -0.44888165
vn 0.61430081 0.03431510 0.78832543
vn 0.22472647 -0.21842846 0.94962468
vn -0.01633179 -0.80578694 0.59198031
vn 0.63414011 -0.74193199 0.21772287
vn 0.59918116 -0.43997044 0.66888561
vn 0.93559323 -0.27609410 -0.22008486
vn 0.98801907 -0.15334465 0.01742795
vn 0.86680176 0.11696537 -0.48474097
vn 0.23494954 0.43913286 -0.86715688
vn 0.66857116 -0.06691571 -0.74063141
vn -0.14155747 0.98966626 0.02285107
vn -0.65342650 0.73542517 0.17939797
vn -0.72878465 0.47225104 0.49583453
vn 0.40700512 -0.29975140 0.86284177
vn -0.26355705 -0.77759874 0.57085715
vn 0.74271088 -0.52358409 0.41742096
vn 0.79383791 -0.17306601 0.58298331
vn 0.34094222 -0.52812004 0.77771951
vn 0.95461753 -0.13742910 -0.26423213
vn 0.93373516 -0.33915303 0.11451584
vn 0.90068705 0.16741700 -0.40091694
vn 0.81775065 -0.10880627 -0.56519472
vn -0.72169615 0.30966590 0.61908133
vn -0.25485920 -0.67383177 0.69353986
vn 0.84124953 -0.33316248 0.42579572
f 11//11 6//6 4//4
f 14//14 2//2 8//8
f 14//14 8//8 12//12
f 18//18 8//8 2//2
f 20//20 12//12 8//8
f 23//23 4//4 5//5
f 23//23 5//5 13//13
f 24//24 1//1 5//5
f 24//24 5//5 9//9
f 24//24 9//9 15//15
f 25//25 2//2 14//14
f 25//25 24//24 15//15
f 26//26 4//4 6//6
f 26//26 6//6 16//16
f 26//26 5//5 4//4
f 27//27 26//26 16//16
f 27//27 5//5 26//26
f 28//28 6//6 11//11
f 28//28 16//16 6//6
f 31//31 8//8 19//19
f 31//31 20//20 8//8
f 31//31 3//3 20//20
f 32//32 19//19 8//8
f 32//32 8//8 18//18
f 32//32 18//18 19//19
f 33//33 28//28 11//11
f 33//33 17//17 28//28
f 34//34 11//11 4//4
f 34//34 4//4 20//20
f 34//34 33//33 11//11
f 35//35 12//12 7//7
f 35//35 23//23 13//13
f 36//36 14//14 12//12
f 36//36 12//12 21//21
f 36//36 1//1 14//14
f 36//36 5//5 1//1
f 36//36 21//21 13//13
f 37//37 7//7 12//12
f 37//37 12//12 22//22
f 37//37 22//22 23//23
f 37//37 35//35 7//7
f 37//37 23//23 35//35
f 38//38 23//23 20//20
f 38//38 20//20 4//4
f 38//38 4//4 23//23
f 39//39 23//23 22//22
f 39//39 22//22 12//12
f 39//39 12//12 20//20
f 39//39 20//20 23//23
f 40//40 25//25 14//14
f 40//40 14//14 1//1
f 40//40 1//1 24//24
f 40//40 24//24 25//25
f 41//41 15//15 9//9
f 42//42 27//27 16//16
f 42//42 16//16 9//9
f 43//43 28//28 17//17
f 43//43 17//17 29//29
f 43//43 16//16 28//28
f 45//45 10//10 30//30
f 45//45 17//17 33//33
f 46//46 30//30 10//10
f 46//46 18//18 2//2
f 46//46 45//45 30//30
f 46//46 19//19 18//18
f 46//46 10//10 19//19
f 47//47 3//3 31//31
f 48//48 34//34 20//20
f 48//48 20//20 3//3
f 48//48 3//3 34//34
f 49//49 34//34 3//3
f 49//49 33//33 34//34
f 49//49 3//3 47//47
f 50//50 35//35 21//21
f 50//50 21//21 12//12
f 50//50 12//12 35//35
f 51//51 35//35 13//13
f 51//51 13//13 21//21
f 51//51 21//21 35//35
f 52//52 36//36 13//13
f 53//53 25//25 15//15
f 53//53 15//15 41//41
f 53//53 44//44 25//25
f 54//54 42//42 9//9
f 54//54 5//5 27//27
f 54//54 27//27 42//42
f 55//55 43//43 29//29
f 55//55 44//44 16//16
f 55//55 16//16 43//43
f 56//56 2//2 25//25
f 56//56 25//25 44//44
f 57//57 41//41 9//9
f 57//57 9//9 16//16
f 57//57 16//16 44//44
f 57//57 53//53 41//41
f 57//57 44//44 53//53
f 58//58 45//45 33//33
f 58//58 19//19 10//10
f 58//58 10//10 45//45
f 59//59 46//46 2//2
f 59//59 29//29 17//17
f 59//59 17//17 45//45
f 59//59 45//45 46//46
f 59//59 55//55 29//29
f 59//59 2//2 55//55
f 60//60 47//47 31//31
f 60//60 31//31 19//19
f 60//60 19//19 47//47
f 61//61 49//49 47//47
f 61//61 47//47 19//19
f 61//61 33//33 49//49
f 61//61 58//58 33//33
f 61//61 19//19 58//58
f 62//62 5//5 36//36
f 62//62 36//36 52//52
f 62//62 52//52 13//13
f 62//62 13//13 5//5
f 63//63 54//54 9//9
f 63//63 9//9 5//5
f 63//63 5//5 54//54
f 64//64 55//55 2//2
f 64//64 44//44 55//55
f 64//64 56//56 44//44
f 64//64 2//2 56//56

