# https://github.com/mikedh/trimesh
v 0.05789762 -0.03798438 -0.00132372
v 0.06613758 -0.03689460 -0.01014352
v 0.00502427 -0.03700476 -0.00056201
v 0.00503009 -0.03700356 -0.01958891
v 0.05880662 -0.04765707 -0.01569750
v 0.06510936 -0.03671945 -0.01434110
v 0.03752243 -0.03700476 -0.00056201
v 0.06136410 -0.04717187 -0.00172085
v 0.00506589 -0.04832594 -0.00055825
v 0.06021721 -0.03698789 -0.01970770
v 0.06378037 -0.04567526 -0.01432182
v 0.03752794 -0.04874234 -0.00059204
v 0.00500071 -0.04657471 -0.01532782
v 0.01841193 -0.04270391 -0.01954305
v 0.06396174 -0.04465536 -0.01537339
v 0.06328169 -0.04672832 -0.01030710
v 0.00530245 -0.04766757 -0.01217631
v 0.05991800 -0.04767700 -0.00167384
v 0.05788694 -0.04262911 -0.01955304
v 0.01108216 -0.03919527 -0.01979825
v 0.05570933 -0.04655568 -0.01747375
v 0.06401320 -0.04604072 -0.01010605
v 0.06231165 -0.03698305 -0.01882731
v 0.06075908 -0.04635991 -0.01641630
v 0.06099439 -0.04745590 -0.01433797
v 0.01708842 -0.04758951 -0.01458304
v 0.06108595 -0.04752780 -0.00801702
v 0.01107383 -0.03832586 -0.01974643
v 0.05900114 -0.04159238 -0.01960099
v 0.00534245 -0.04276384 -0.01851231
v 0.01600484 -0.04456615 -0.01837096
v 0.06306879 -0.04652403 -0.01423535
v 0.06407702 -0.03691249 -0.01677666
v 0.05978211 -0.04468518 -0.01842355
v 0.00994330 -0.04760726 -0.01342591
v 0.06192251 -0.04271557 -0.01851936
v 0.00502724 -0.04463274 -0.01740054
v 0.00633036 -0.04325913 -0.01844301
v 0.01480021 -0.04648424 -0.01634910
v 0.06088799 -0.04536716 -0.01740072
v 0.06379762 -0.04167870 -0.01658127
v 0.05876036 -0.04655452 -0.01741728
v 0.05988916 -0.03926247 -0.01961570
v 0.01358691 -0.04546231 -0.01729936
v 0.06273273 -0.04352213 -0.01751530
vn 0.26964482 0.59294120 0.75875714
vn 0.80153559 0.57433270 0.16638106
vn -0.57862388 0.57549440 0.57792784
vn -0.58935672 0.53273596 -0.60733109
vn 0.14283345 -0.93659219 -0.31999013
vn 0.71150734 0.66526973 -0.22621557
vn 0.01679371 0.69492079 0.71889016
vn 0.57227079 -0.47397069 0.66922188
vn -0.57555154 -0.59225883 0.56388821
vn 0.16302998 0.62577234 -0.76277795
vn 0.83785139 -0.49263944 -0.23518384
vn 0.01811589 -0.73135103 0.68176057
vn -0.68876545 -0.62257078 -0.37149398
vn -0.01520334 -0.30893696 -0.95096099
vn 0.82915800 -0.38053242 -0.40950225
vn 0.53974076 -0.84183119 -0.00039265
vn -0.54142263 -0.83011564 -0.13330251
vn 0.15704551 -0.73640477 0.65806134
vn 0.06329225 -0.26978679 -0.96083775
vn -0.04342789 -0.08417649 -0.99550406
vn -0.00280626 -0.69053946 -0.72328928
vn 0.87411000 -0.48032130 0.07227135
vn 0.46281820 0.59727654 -0.65502676
vn 0.41397239 -0.72473830 -0.55080056
vn 0.29236731 -0.93167653 -0.21563905
vn -0.01627747 -0.95310659 -0.30219674
vn 0.23349920 -0.97231860 0.00864141
vn -0.00493912 0.08208176 -0.99661336
vn 0.15593872 -0.13953962 -0.97786083
vn -0.51425236 -0.26659804 -0.81515029
vn -0.03971932 -0.60586910 -0.79457222
vn 0.57119690 -0.76378789 -0.30060298
vn 0.67356112 0.58689140 -0.44930380
vn 0.22542886 -0.46363194 -0.85687062
vn -0.03756835 -0.97225224 -0.23089867
vn 0.50230133 -0.24277942 -0.82991055
vn -0.70142517 -0.44533670 -0.55648716
vn -0.09593645 -0.42888741 -0.89824929
vn -0.03964550 -0.79678024 -0.60296724
vn 0.43670994 -0.58686404 -0.68181744
vn 0.84922988 -0.10170465 -0.51813587
vn 0.15545256 -0.69295946 -0.70401825
vn 0.24881542 -0.08077076 -0.96517717
vn -0.05750929 -0.70746410 -0.70440559
vn 0.65017328 -0.34813353 -0.67533529
f 6//6 4//4 3//3
f 7//7 1//1 2//2
f 7//7 6//6 3//3
f 7//7 2//2 6//6
f 8//8 2//2 1//1
f 9//9 7//7 3//3
f 10//10 4//4 6//6
f 12//12 8//8 1//1
f 12//12 1//1 7//7
f 12//12 7//7 9//9
f 13//13 9//9 3//3
f 13//13 3//3 4//4
f 15//15 6//6 2//2
f 17//17 12//12 9//9
f 17//17 9//9 13//13
f 18//18 12//12 5//5
f 18//18 8//8 12//12
f 20//20 19//19 14//14
f 21//21 14//14 19//19
f 22//22 15//15 2//2
f 22//22 11//11 15//15
f 22//22 2//2 8//8
f 22//22 8//8 16//16
f 23//23 10//10 6//6
f 25//25 5//5 24//24
f 26//26 5//5 12//12
f 26//26 12//12 17//17
f 26//26 21//21 5//5
f 27//27 16//16 8//8
f 27//27 8//8 18//18
f 27//27 25//25 16//16
f 27//27 18//18 5//5
f 27//27 5//5 25//25
f 28//28 20//20 4//4
f 28//28 4//4 10//10
f 28//28 10//10 20//20
f 29//29 20//20 10//10
f 29//29 19//19 20//20
f 30//30 20//20 14//14
f 30//30 4//4 20//20
f 31//31 14//14 21//21
f 32//32 22//22 16//16
f 32//32 11//11 22//22
f 32//32 16//16 25//25
f 32//32 25//25 24//24
f 32//32 15//15 11//11
f 33//33 23//23 6//6
f 34//34 21//21 19//19
f 35//35 26//26 17//17
f 35//35 17//17 13//13
f 35//35 13//13 26//26
f 36//36 10//10 23//23
f 36//36 34//34 19//19
f 36//36 19//19 29//29
f 37//37 13//13 4//4
f 37//37 4//4 30//30
f 38//38 30//30 14//14
f 38//38 14//14 31//31
f 38//38 37//37 30//30
f 38//38 31//31 37//37
f 39//39 26//26 13//13
f 39//39 13//13 37//37
f 39//39 31//31 21//21
f 39//39 21//21 26//26
f 40//40 32//32 24//24
f 40//40 15//15 32//32
f 40//40 34//34 36//36
f 41//41 33//33 6//6
f 41//41 6//6 15//15
f 41//41 36//36 23//23
f 41//41 23//23 33//33
f 42//42 5//5 21//21
f 42//42 21//21 34//34
f 42//42 34//34 40//40
f 42//42 40//40 24//24
f 42//42 24//24 5//5
f 43//43 36//36 29//29
f 43//43 29//29 10//10
f 43//43 10//10 36//36
f 44//44 39//39 37//37
f 44//44 37//37 31//31
f 44//44 31//31 39//39
f 45//45 40//40 36//36
f 45//45 15//15 40//40
f 45//45 41//41 15//15
f 45//45 36//36 41//41

