# https://github.com/mikedh/trimesh
v 0.01682052 0.04453470 0.01773719
v 0.02029194 0.03361738 0.00928789
v 0.01731169 0.05125446 -0.01541022
v 0.00846707 0.04302128 -0.01964120
v 0.00007388 0.01752237 0.01860610
v 0.02168248 0.03347116 -0.01317678
v 0.00137940 0.03907066 0.01266890
v 0.01730292 0.04994950 0.01284431
v 0.01653241 0.03727182 0.01768514
v 0.01669728 0.03743232 -0.01948023
v 0.00515080 0.01039805 -0.00845363
v -0.00085991 0.03863193 -0.00724682
v 0.00923616 0.04321264 0.01783770
v 0.01713110 0.04913545 0.01479798
v 0.02182807 0.03281001 -0.00250547
v 0.00377650 0.01769506 0.01787529
v 0.01701667 0.04719252 -0.01930608
v 0.00146249 0.01042860 -0.01702319
v 0.00873661 0.04669197 -0.01411441
v 0.00009202 0.03260245 0.01640722
v 0.01045677 0.04603580 0.01639236
v 0.01727074 0.05131390 -0.00880679
v 0.02137008 0.03210813 -0.00942179
v 0.00592166 0.01772901 0.01274662
v 0.01613293 0.04889653 -0.01796094
v 0.01726056 0.04903091 -0.01817963
v 0.00343364 0.01051539 -0.01503751
v -0.00033159 0.01514059 -0.01824690
v 0.00006501 0.01026997 -0.00853478
v 0.01161859 0.04651779 -0.01809409
v 0.00258264 0.04062936 -0.01476726
v -0.00083532 0.03863237 -0.00614771
v 0.00688796 0.04302571 0.01658156
v 0.00010173 0.02796986 0.01784001
v 0.01620327 0.04962448 0.01277016
v 0.01032327 0.04432714 0.01777609
v 0.01531658 0.05101598 -0.01295926
v 0.02149100 0.03212161 -0.00641137
v 0.00471579 0.01051852 -0.01194997
v 0.00488051 0.01773325 0.01618791
v 0.00711830 0.01772863 0.00830512
v 0.01583323 0.04728606 -0.01918297
v 0.01732955 0.04993086 -0.01729754
v -0.00011173 0.01031644 -0.01783596
v 0.00378357 0.03094762 -0.01930959
v 0.01632833 0.05093985 -0.01532452
v 0.00848040 0.04509957 -0.01721152
v 0.00041622 0.03398018 -0.01791798
v 0.00078527 0.03576436 0.01544973
v 0.00484348 0.04270814 0.01051468
v 0.01521279 0.04847615 0.01476726
v 0.01666826 0.04705231 0.01662452
v 0.00948436 0.04529161 0.01666606
v 0.01544142 0.05110415 -0.01032524
v 0.01620777 0.04968099 -0.01712611
v 0.00605597 0.04391038 -0.01517388
v 0.00609833 0.04284846 -0.01708243
v 0.00144564 0.03936629 -0.01426662
v 0.00592596 0.03957158 -0.01935394
v 0.00367773 0.04146429 0.01173792
v 0.01350239 0.04618743 0.01701614
v 0.00944556 0.04621687 0.01167370
v 0.01419966 0.04861699 -0.01716732
v 0.00255217 0.03937398 -0.01591340
vn 0.56089011 0.18249377 0.80752604
vn 0.92277733 -0.26762546 0.27723386
vn 0.45170634 0.84393671 -0.28936521
vn -0.33897851 0.35552335 -0.87103198
vn -0.52940034 -0.50691024 0.68027736
vn 0.91735261 -0.19921269 -0.34464256
vn -0.82629530 0.51740079 0.22255898
vn 0.49519154 0.83820825 0.22845625
vn 0.57640821 -0.15268302 0.80277112
vn 0.44289900 -0.11814160 -0.88875364
vn 0.45331021 -0.88818698 0.07505823
vn -0.91040249 0.41050084 -0.05153999
vn -0.25343107 0.25112702 0.93418837
vn 0.48477114 0.71507215 0.50365541
vn 0.97389758 -0.21573429 0.07058490
vn 0.35950550 -0.63249192 0.68608292
vn 0.46141195 0.25405306 -0.85003297
vn 0.38060596 -0.77359610 -0.50664403
vn -0.58704668 0.79172747 -0.16894913
vn -0.83981445 0.20623973 0.50217214
vn -0.38622405 0.79379275 0.46981279
vn 0.54733597 0.83622708 0.03387635
vn 0.87467221 -0.47964111 -0.06994947
vn 0.72519440 -0.65463712 0.21340882
vn -0.27929989 0.66541358 -0.69225454
vn 0.48009647 0.53720540 -0.69348233
vn 0.47050411 -0.81718835 -0.33291003
vn -0.69974569 -0.07108439 -0.71084666
vn -0.64329264 -0.75876121 0.10225458
vn -0.39746866 0.69435607 -0.59990692
vn -0.71790914 0.60910135 -0.33704897
vn -0.90618907 0.42163831 0.03228773
vn -0.60703429 0.56207315 0.56176787
vn -0.73324069 0.07819516 0.67545807
vn -0.35548999 0.91475563 0.19196096
vn -0.18483256 0.36311972 0.91322560
vn -0.38011590 0.92069067 -0.08854707
vn 0.88638117 -0.46282565 -0.01099297
vn 0.51386904 -0.84365528 -0.15551327
vn 0.62789231 -0.70217344 0.33571373
vn 0.74302031 -0.63990070 0.19608137
vn -0.16632839 0.45981320 -0.87229966
vn 0.48826546 0.66998748 -0.55920803
vn -0.45632966 -0.64474967 -0.61323821
vn -0.16918627 -0.00638018 -0.98556344
vn -0.37871122 0.85707821 -0.34927747
vn -0.55167887 0.70262010 -0.44941675
vn -0.76664316 0.17020103 -0.61910410
vn -0.81583298 0.35624073 0.45553166
vn -0.64690610 0.75764581 0.08651779
vn -0.31652652 0.87234044 0.37260316
vn 0.38324339 0.49783422 0.77800102
vn -0.50525083 0.70222420 0.50160020
vn -0.34360532 0.93897583 0.01611737
vn -0.32196166 0.74892127 -0.57918703
vn -0.66870496 0.69625203 -0.26089613
vn -0.65363248 0.57960310 -0.48664651
vn -0.81227314 0.48946259 -0.31723605
vn -0.36497112 0.18513981 -0.91242497
vn -0.67614902 0.72432176 0.13483501
vn -0.09243341 0.56857299 0.81742328
vn -0.54938200 0.82994883 0.09676956
vn -0.41839449 0.74831198 -0.51475745
vn -0.69133762 0.48176424 -0.53847518
f 9//9 2//2 1//1
f 9//9 1//1 5//5
f 13//13 5//5 1//1
f 14//14 1//1 2//2
f 14//14 2//2 8//8
f 15//15 6//6 3//3
f 15//15 8//8 2//2
f 15//15 2//2 11//11
f 16//16 9//9 5//5
f 16//16 2//2 9//9
f 16//16 5//5 11//11
f 17//17 10//10 4//4
f 17//17 6//6 10//10
f 18//18 10//10 6//6
f 22//22 15//15 3//3
f 22//22 8//8 15//15
f 26//26 6//6 17//17
f 27//27 18//18 6//6
f 28//28 5//5 12//12
f 29//29 11//11 5//5
f 31//31 12//12 19//19
f 32//32 12//12 5//5
f 32//32 19//19 12//12
f 33//33 20//20 13//13
f 34//34 5//5 13//13
f 34//34 13//13 20//20
f 34//34 32//32 5//5
f 34//34 20//20 32//32
f 35//35 14//14 8//8
f 36//36 13//13 1//1
f 36//36 33//33 13//13
f 38//38 15//15 11//11
f 38//38 11//11 23//23
f 38//38 23//23 6//6
f 38//38 6//6 15//15
f 39//39 23//23 11//11
f 39//39 6//6 23//23
f 39//39 27//27 6//6
f 39//39 11//11 27//27
f 40//40 16//16 11//11
f 40//40 11//11 24//24
f 40//40 24//24 2//2
f 40//40 2//2 16//16
f 41//41 24//24 11//11
f 41//41 11//11 2//2
f 41//41 2//2 24//24
f 42//42 17//17 4//4
f 42//42 30//30 25//25
f 42//42 4//4 30//30
f 42//42 26//26 17//17
f 42//42 25//25 26//26
f 43//43 3//3 6//6
f 43//43 6//6 26//26
f 43//43 26//26 25//25
f 44//44 27//27 11//11
f 44//44 18//18 27//27
f 44//44 11//11 29//29
f 44//44 28//28 10//10
f 44//44 10//10 18//18
f 44//44 29//29 5//5
f 44//44 5//5 28//28
f 45//45 4//4 10//10
f 45//45 10//10 28//28
f 46//46 37//37 3//3
f 46//46 19//19 37//37
f 47//47 30//30 4//4
f 47//47 19//19 46//46
f 48//48 28//28 12//12
f 48//48 45//45 28//28
f 49//49 32//32 20//20
f 49//49 7//7 32//32
f 49//49 33//33 7//7
f 49//49 20//20 33//33
f 50//50 19//19 32//32
f 51//51 35//35 21//21
f 51//51 21//21 14//14
f 51//51 14//14 35//35
f 52//52 1//1 14//14
f 53//53 36//36 21//21
f 53//53 33//33 36//36
f 54//54 22//22 3//3
f 54//54 3//3 37//37
f 54//54 8//8 22//22
f 54//54 35//35 8//8
f 54//54 37//37 19//19
f 55//55 25//25 30//30
f 55//55 43//43 25//25
f 55//55 46//46 3//3
f 55//55 3//3 43//43
f 56//56 31//31 19//19
f 56//56 19//19 47//47
f 57//57 47//47 4//4
f 57//57 56//56 47//47
f 57//57 31//31 56//56
f 58//58 48//48 12//12
f 58//58 12//12 31//31
f 58//58 31//31 48//48
f 59//59 48//48 4//4
f 59//59 4//4 45//45
f 59//59 45//45 48//48
f 60//60 50//50 32//32
f 60//60 32//32 7//7
f 60//60 7//7 33//33
f 60//60 53//53 50//50
f 60//60 33//33 53//53
f 61//61 36//36 1//1
f 61//61 1//1 52//52
f 61//61 21//21 36//36
f 61//61 52//52 14//14
f 61//61 14//14 21//21
f 62//62 53//53 21//21
f 62//62 50//50 53//53
f 62//62 21//21 35//35
f 62//62 35//35 54//54
f 62//62 54//54 19//19
f 62//62 19//19 50//50
f 63//63 55//55 30//30
f 63//63 46//46 55//55
f 63//63 47//47 46//46
f 63//63 30//30 47//47
f 64//64 48//48 31//31
f 64//64 31//31 57//57
f 64//64 57//57 4//4
f 64//64 4//4 48//48

