# https://github.com/mikedh/trimesh
v -0.05988551 0.02016239 -0.00227298
v -0.04946652 0.00057011 -0.00388646
v -0.05343686 0.00876341 -0.01736752
v -0.06209037 0.01070769 -0.01951326
v -0.07025230 -0.01478346 -0.00215461
v -0.06093603 0.01936259 -0.01549607
v -0.05374784 0.01148877 -0.00222930
v -0.05526139 -0.02031583 -0.01910189
v -0.05983062 0.02027404 -0.01157843
v -0.05994787 0.01674535 -0.01750640
v -0.07024466 0.01568028 -0.00234847
v -0.05409613 0.01085790 -0.01469510
v -0.05480199 -0.01334734 -0.00214215
v -0.07135437 0.00094651 -0.00213308
v -0.05313313 0.00090542 -0.01843113
v -0.07492343 -0.01468687 -0.02110235
v -0.06007408 0.01939722 -0.01457171
v -0.05858990 0.00945146 -0.01945946
v -0.06436885 0.01717792 -0.01745748
v -0.06646707 0.02037454 -0.00950838
v -0.05356545 -0.01901235 -0.01626118
v -0.06632868 -0.01862897 -0.00209350
v -0.06814530 0.01861468 -0.00233324
v -0.05313302 0.00288698 -0.01830834
v -0.07616751 -0.01363412 -0.01916496
v -0.05384029 0.00992736 -0.01637147
v -0.05686307 0.01120439 -0.01843614
v -0.05950060 0.01072269 -0.01943807
v -0.05655135 -0.01115474 -0.01940020
v -0.06085161 0.01745638 -0.01738947
v -0.06264412 0.02160768 -0.00846415
v -0.06614254 0.01933232 -0.01344549
v -0.06083497 -0.01872284 -0.00220470
v -0.06555768 -0.01942640 -0.01470458
v -0.06814537 0.01944142 -0.00741398
v -0.07131761 -0.00661709 -0.00224245
v -0.07624482 -0.01310191 -0.01962649
v -0.06817682 -0.01749865 -0.00223907
v -0.05460324 0.00714549 -0.01835737
v -0.07385900 -0.01542794 -0.02121137
v -0.06139175 0.01934437 -0.01576371
v -0.06430821 0.02139804 -0.00455431
v -0.06464285 0.02140377 -0.00830300
v -0.05923441 -0.01766885 -0.00225421
v -0.05418655 -0.01952218 -0.01676495
v -0.06540616 -0.01946688 -0.01345908
v -0.06786983 0.01964804 -0.00461869
v -0.06701814 0.01945116 -0.01221753
v -0.07017440 0.01573675 -0.01119863
v -0.07397327 -0.01581637 -0.01982828
v -0.05604985 0.01030568 -0.01829720
v -0.05689380 -0.01295610 -0.01946142
v -0.06436180 0.01936304 -0.01462359
v -0.06628555 0.02036099 -0.00247634
v -0.06281430 0.02146988 -0.00452184
v -0.06901817 0.01748464 -0.01150810
v -0.06694041 0.01681572 -0.01540900
v -0.06347166 0.01826147 -0.01640628
v -0.06807715 0.01839490 -0.01219993
v -0.06793004 0.01767846 -0.01322021
vn 0.42634995 0.61698386 0.66148065
vn 0.89544005 0.03391755 0.44388819
vn 0.79573201 0.30943700 -0.52063357
vn -0.09090807 0.18390500 -0.97873116
vn -0.60646736 -0.27314241 0.74671987
vn 0.34032058 0.81766616 -0.46433172
vn 0.66301924 0.33576750 0.66907822
vn 0.40793245 -0.69557237 -0.59141372
vn 0.55835178 0.81369483 -0.16169110
vn 0.43124974 0.48546160 -0.76049372
vn -0.70311314 0.26571349 0.65956671
vn 0.87481753 0.47360366 -0.10195032
vn 0.56894413 -0.32440601 0.75568731
vn -0.62817769 0.03676474 0.77720084
vn 0.70189932 0.00376622 -0.71226622
vn -0.59432954 -0.32325046 -0.73639768
vn 0.56330840 0.74757865 -0.35186617
vn 0.20730622 0.11449189 -0.97155326
vn -0.31624306 0.49445223 -0.80963407
vn -0.48284659 0.86407232 -0.14226103
vn 0.86282711 -0.50146321 -0.06374964
vn -0.20725054 -0.69985239 0.68355968
vn -0.50293958 0.43268483 0.74822163
vn 0.72554035 0.07326162 -0.68426891
vn -0.92209990 -0.38270125 0.05719732
vn 0.84802464 0.48777059 -0.20720534
vn 0.41810333 0.31968321 -0.85028951
vn 0.14300006 0.20495231 -0.96826935
vn 0.19231392 0.00734220 -0.98130599
vn 0.17350519 0.53813357 -0.82480798
vn 0.12962336 0.98584586 -0.10632838
vn -0.42723794 0.78718009 -0.44476427
vn 0.16274168 -0.69829081 0.69706893
vn -0.24963386 -0.96240723 -0.10702927
vn -0.71427194 0.69902840 -0.03427666
vn -0.68242356 -0.03943007 0.72989270
vn -0.92991072 0.04423641 -0.36511532
vn -0.50686341 -0.58720983 0.63108962
vn 0.40587232 0.15041859 -0.90146653
vn -0.25381288 -0.54763686 -0.79729097
vn 0.06812560 0.82888154 -0.55526056
vn -0.19917546 0.96397521 0.17629785
vn -0.27147512 0.95564375 -0.11422036
vn 0.43127443 -0.54447442 0.71940946
vn 0.49786237 -0.86070743 0.10637569
vn -0.22805021 -0.97303948 0.03445693
vn -0.67152209 0.73647986 0.08158120
vn -0.53040623 0.78453654 -0.32120343
vn -0.89920398 0.36877229 -0.23545529
vn -0.50852103 -0.85543865 -0.09813800
vn 0.41868521 0.23826222 -0.87631832
vn 0.14548026 -0.00594336 -0.98934330
vn -0.24619748 0.85389951 -0.45852200
vn -0.30192745 0.68093986 0.66720366
vn 0.12242783 0.96801361 0.21900018
vn -0.80189391 0.53623199 -0.26347943
vn -0.66211054 0.44329536 -0.60423411
vn -0.22144722 0.76936182 -0.59920240
vn -0.71515390 0.60805901 -0.34470151
vn -0.71216603 0.49574322 -0.49704950
f 9//9 1//1 7//7
f 12//12 7//7 2//2
f 12//12 2//2 3//3
f 12//12 9//9 7//7
f 13//13 2//2 7//7
f 14//14 7//7 1//1
f 14//14 13//13 7//7
f 17//17 6//6 9//9
f 17//17 10//10 6//6
f 17//17 3//3 10//10
f 19//19 4//4 16//16
f 21//21 2//2 13//13
f 21//21 15//15 2//2
f 21//21 8//8 15//15
f 22//22 14//14 5//5
f 22//22 13//13 14//14
f 23//23 14//14 1//1
f 23//23 11//11 14//14
f 24//24 3//3 2//2
f 24//24 2//2 15//15
f 24//24 15//15 18//18
f 26//26 12//12 3//3
f 26//26 3//3 17//17
f 26//26 17//17 9//9
f 26//26 9//9 12//12
f 27//27 10//10 3//3
f 28//28 27//27 18//18
f 28//28 10//10 27//27
f 29//29 18//18 15//15
f 29//29 15//15 8//8
f 30//30 4//4 19//19
f 30//30 28//28 4//4
f 30//30 10//10 28//28
f 30//30 6//6 10//10
f 31//31 9//9 6//6
f 31//31 1//1 9//9
f 33//33 13//13 22//22
f 33//33 22//22 8//8
f 36//36 25//25 5//5
f 36//36 5//5 14//14
f 36//36 14//14 25//25
f 37//37 25//25 14//14
f 37//37 14//14 11//11
f 37//37 19//19 16//16
f 37//37 16//16 25//25
f 38//38 22//22 5//5
f 38//38 5//5 25//25
f 39//39 24//24 18//18
f 39//39 3//3 24//24
f 40//40 28//28 18//18
f 40//40 16//16 4//4
f 40//40 4//4 28//28
f 40//40 8//8 34//34
f 41//41 30//30 19//19
f 41//41 6//6 30//30
f 41//41 31//31 6//6
f 43//43 42//42 31//31
f 44//44 33//33 21//21
f 44//44 21//21 13//13
f 44//44 13//13 33//33
f 45//45 33//33 8//8
f 45//45 8//8 21//21
f 45//45 21//21 33//33
f 46//46 34//34 8//8
f 46//46 8//8 22//22
f 47//47 35//35 11//11
f 47//47 11//11 23//23
f 47//47 43//43 20//20
f 47//47 20//20 35//35
f 48//48 35//35 20//20
f 48//48 43//43 32//32
f 48//48 20//20 43//43
f 49//49 37//37 11//11
f 49//49 11//11 35//35
f 50//50 38//38 25//25
f 50//50 25//25 16//16
f 50//50 16//16 40//40
f 50//50 22//22 38//38
f 50//50 46//46 22//22
f 50//50 40//40 34//34
f 50//50 34//34 46//46
f 51//51 27//27 3//3
f 51//51 3//3 39//39
f 51//51 39//39 18//18
f 51//51 18//18 27//27
f 52//52 40//40 18//18
f 52//52 18//18 29//29
f 52//52 29//29 8//8
f 52//52 8//8 40//40
f 53//53 19//19 32//32
f 53//53 32//32 43//43
f 53//53 43//43 31//31
f 53//53 31//31 41//41
f 54//54 23//23 1//1
f 54//54 47//47 23//23
f 54//54 42//42 43//43
f 54//54 43//43 47//47
f 55//55 1//1 31//31
f 55//55 31//31 42//42
f 55//55 54//54 1//1
f 55//55 42//42 54//54
f 56//56 49//49 35//35
f 57//57 19//19 37//37
f 57//57 37//37 49//49
f 57//57 32//32 19//19
f 58//58 53//53 41//41
f 58//58 41//41 19//19
f 58//58 19//19 53//53
f 59//59 56//56 35//35
f 59//59 35//35 48//48
f 59//59 48//48 32//32
f 60//60 57//57 49//49
f 60//60 49//49 56//56
f 60//60 56//56 59//59
f 60//60 59//59 32//32
f 60//60 32//32 57//57

