# https://github.com/mikedh/trimesh
v 0.01807255 -0.00004903 0.01137291
v 0.01810282 -0.00895520 0.01123896
v 0.01807255 -0.00004903 -0.00712319
v 0.00284047 -0.00004903 -0.00712319
v 0.00284047 -0.00004903 0.01137291
v 0.01811313 -0.00952785 -0.00718383
v 0.00282493 -0.00939084 -0.00721287
v 0.00288611 -0.00865964 0.01123405
vn 0.57538717 0.57430454 0.58232629
vn 0.57647472 -0.57486556 0.58069483
vn 0.57660924 0.58033656 -0.57509239
vn -0.57733066 0.58029946 -0.57440564
vn -0.57738793 0.57209557 0.58252025
vn 0.57490918 -0.58725917 -0.56974213
vn -0.57853449 -0.58235776 -0.57110182
vn -0.58267816 -0.56458574 0.58457601
f 1//1 3//3 4//4
f 5//5 2//2 1//1
f 5//5 1//1 4//4
f 6//6 1//1 2//2
f 6//6 3//3 1//1
f 7//7 4//4 3//3
f 7//7 3//3 6//6
f 7//7 5//5 4//4
f 7//7 6//6 2//2
f 8//8 7//7 2//2
f 8//8 2//2 5//5
f 8//8 5//5 7//7

