# https://github.com/mikedh/trimesh
v 0.06779748 0.01285752 0.01730460
v 0.07246830 -0.01570355 0.01257838
v 0.06886790 0.01581901 -0.01371765
v 0.04765779 0.00477840 -0.01483698
v 0.04750350 -0.00293987 0.01670571
v 0.06904081 -0.01663750 -0.01423843
v 0.05828154 0.01815363 -0.00918984
v 0.07364400 0.01205874 0.00981055
v 0.06804188 -0.01497046 0.01625786
v 0.06913279 -0.01475552 -0.01510531
v 0.04772563 -0.00854816 -0.00975754
v 0.06871986 0.01852592 0.00980016
v 0.06537242 0.01771694 -0.01379563
v 0.04792294 0.00555327 0.01392575
v 0.07156501 0.01289527 0.01531116
v 0.06509708 0.00476334 0.01740409
v 0.06441668 -0.02034905 0.00882041
v 0.07364979 -0.01370686 -0.01138594
v 0.04714780 0.00681201 -0.00656003
v 0.04772331 -0.00261268 -0.01503403
v 0.07277246 0.01595221 -0.00537394
v 0.06025294 0.01796884 -0.01159897
v 0.05981056 -0.00006998 -0.01497826
v 0.06705844 0.01965852 -0.00937119
v 0.06051021 0.01741188 0.01257098
v 0.06232303 0.01481781 0.01621014
v 0.07251609 0.00145784 0.01441994
v 0.06904508 0.00810976 0.01730356
v 0.06815252 0.01634013 0.01559889
v 0.07142483 0.01642856 0.01243330
v 0.06403476 0.00570730 0.01742514
v 0.06516588 -0.01485871 0.01633599
v 0.06972064 -0.02023531 0.00348635
v 0.06879675 -0.01921046 0.01256367
v 0.06133921 -0.01813345 -0.00966361
v 0.04758229 -0.00860032 0.00967962
v 0.07199674 -0.01364276 -0.01401317
v 0.07361438 -0.00410265 0.00867181
v 0.04773255 0.00395288 0.01520391
v 0.05782993 0.01793428 -0.01008179
v 0.06122760 -0.01342513 -0.01502170
v 0.04766879 -0.00465617 -0.01393701
v 0.07399481 0.01094235 -0.00641668
v 0.06239959 0.01797896 -0.01263738
v 0.05288809 0.00489540 -0.01488109
v 0.06634563 0.01756008 -0.01386686
v 0.06991135 0.01881010 -0.00549326
v 0.06201222 0.01847693 0.01083154
v 0.06434527 0.01306678 0.01721428
v 0.06031738 0.01627062 0.01436673
v 0.07233084 0.01396332 0.01362006
v 0.07049330 -0.01474434 0.01521968
v 0.07042407 0.01272930 0.01644665
v 0.06796051 0.00470113 0.01727454
v 0.07145756 0.01484330 0.01468670
v 0.06876455 0.01758573 0.01372444
v 0.07237830 0.01560836 0.01065271
v 0.06891368 0.01093469 0.01733618
v 0.07237917 -0.01765879 0.00358919
v 0.07050782 -0.01840056 -0.01099893
v 0.06301482 -0.01823423 0.01424571
v 0.07148242 -0.01837079 0.00955544
v 0.06958918 -0.02034987 0.00862534
v 0.06545782 -0.01941029 -0.00737138
vn 0.12036762 0.25090778 0.96049827
vn 0.85488149 -0.34325499 0.38904197
vn 0.55081094 0.35138343 -0.75705812
vn -0.68842950 0.24693154 -0.68197481
vn -0.70056401 -0.14599867 0.69849442
vn 0.17355105 -0.66930168 -0.72243705
vn -0.35707562 0.93403779 -0.00839046
vn 0.98059465 0.14245847 0.13468375
vn 0.21036738 -0.33989187 0.91663465
vn 0.19564423 -0.22810144 -0.95377831
vn -0.82153239 -0.51853079 -0.23708723
vn 0.28675099 0.95024003 0.12172818
vn -0.05540590 0.62519179 -0.77850203
vn -0.81333016 0.49728329 0.30199898
vn 0.78658905 0.12118622 0.60546806
vn 0.01493420 -0.03419535 0.99930358
vn -0.27316762 -0.95419491 0.12203083
vn 0.92568809 -0.24144041 -0.29121828
vn -0.92141970 0.38661173 -0.03895003
vn -0.67115551 -0.09545950 -0.73514472
vn 0.85610193 0.49026411 -0.16349491
vn -0.29401806 0.79675475 -0.52795383
vn 0.02499073 0.03212601 -0.99917135
vn 0.23941142 0.94370630 -0.22825554
vn -0.41639336 0.84564503 0.33391774
vn -0.20489221 0.49988442 0.84150742
vn 0.84378439 -0.02361719 0.53616241
vn 0.33320006 -0.02296831 0.94257635
vn 0.16341322 0.65633010 0.73656427
vn 0.67907132 0.68539947 0.26284921
vn -0.02307426 -0.00082527 0.99973341
vn -0.06048976 -0.30486742 0.95047191
vn 0.36386846 -0.93032741 -0.04572368
vn 0.29204490 -0.80626341 0.51444056
vn -0.37799745 -0.86447673 -0.33135768
vn -0.84490454 -0.50480866 0.17693088
vn 0.65614319 -0.18670177 -0.73117615
vn 0.99379588 -0.03315515 0.10616257
vn -0.76279163 0.25773144 0.59306276
vn -0.50107035 0.81461975 -0.29210129
vn -0.23023963 -0.42692978 -0.87448309
vn -0.80136838 -0.34216744 -0.49064260
vn 0.96072217 0.13565121 -0.24209846
vn -0.22897555 0.76114590 -0.60681720
vn 0.00013488 0.05559867 -0.99845319
vn 0.22152336 0.55554301 -0.80143582
vn 0.53090228 0.84196920 -0.09607619
vn -0.22385710 0.95208197 0.20839367
vn -0.08111081 0.25390311 0.96382273
vn -0.37245385 0.70525012 0.60324158
vn 0.90670682 0.24094741 0.34616049
vn 0.56728280 -0.29195330 0.77003473
vn 0.52008166 0.20838734 0.82830537
vn 0.08415582 -0.04261025 0.99554114
vn 0.67115185 0.46523046 0.57716186
vn 0.24955912 0.86689849 0.43151738
vn 0.85167672 0.51365140 0.10396634
vn 0.25889609 0.04963605 0.96462898
vn 0.87459760 -0.48482968 0.00438405
vn 0.43935141 -0.83309854 -0.33603147
vn -0.27963593 -0.75442604 0.59383928
vn 0.76308817 -0.61826629 0.18826375
vn 0.36924816 -0.91901368 0.13809290
vn -0.08036211 -0.98004422 -0.18181107
f 23//23 10//10 20//20
f 31//31 5//5 16//16
f 32//32 16//16 5//5
f 32//32 9//9 16//16
f 36//36 35//35 17//17
f 36//36 11//11 35//35
f 36//36 19//19 11//11
f 36//36 5//5 19//19
f 37//37 10//10 3//3
f 37//37 6//6 10//10
f 38//38 2//2 18//18
f 38//38 27//27 2//2
f 38//38 8//8 27//27
f 39//39 19//19 5//5
f 39//39 14//14 19//19
f 40//40 19//19 14//14
f 40//40 4//4 19//19
f 40//40 22//22 4//4
f 40//40 24//24 22//22
f 40//40 7//7 24//24
f 40//40 25//25 7//7
f 40//40 14//14 25//25
f 41//41 20//20 10//10
f 41//41 10//10 6//6
f 41//41 6//6 35//35
f 41//41 35//35 11//11
f 42//42 11//11 19//19
f 42//42 19//19 4//4
f 42//42 4//4 20//20
f 42//42 41//41 11//11
f 42//42 20//20 41//41
f 43//43 3//3 21//21
f 43//43 37//37 3//3
f 43//43 18//18 37//37
f 43//43 21//21 8//8
f 43//43 38//38 18//18
f 43//43 8//8 38//38
f 44//44 13//13 4//4
f 44//44 4//4 22//22
f 44//44 24//24 13//13
f 44//44 22//22 24//24
f 45//45 23//23 20//20
f 45//45 20//20 4//4
f 46//46 3//3 10//10
f 46//46 10//10 23//23
f 46//46 24//24 3//3
f 46//46 13//13 24//24
f 46//46 23//23 45//45
f 46//46 45//45 4//4
f 46//46 4//4 13//13
f 47//47 24//24 12//12
f 47//47 21//21 3//3
f 47//47 3//3 24//24
f 47//47 12//12 30//30
f 48//48 24//24 7//7
f 48//48 7//7 25//25
f 48//48 12//12 24//24
f 49//49 29//29 26//26
f 49//49 1//1 29//29
f 49//49 31//31 1//1
f 49//49 5//5 31//31
f 49//49 39//39 5//5
f 49//49 26//26 39//39
f 50//50 25//25 14//14
f 50//50 39//39 26//26
f 50//50 14//14 39//39
f 50//50 26//26 29//29
f 51//51 27//27 8//8
f 51//51 15//15 27//27
f 52//52 2//2 27//27
f 52//52 34//34 2//2
f 52//52 9//9 34//34
f 52//52 28//28 9//9
f 52//52 27//27 28//28
f 53//53 29//29 1//1
f 53//53 28//28 27//27
f 53//53 27//27 15//15
f 54//54 28//28 16//16
f 54//54 16//16 9//9
f 54//54 9//9 28//28
f 55//55 51//51 30//30
f 55//55 15//15 51//51
f 55//55 53//53 15//15
f 55//55 29//29 53//53
f 56//56 30//30 12//12
f 56//56 55//55 30//30
f 56//56 29//29 55//55
f 56//56 12//12 48//48
f 56//56 48//48 25//25
f 56//56 50//50 29//29
f 56//56 25//25 50//50
f 57//57 8//8 21//21
f 57//57 47//47 30//30
f 57//57 21//21 47//47
f 57//57 51//51 8//8
f 57//57 30//30 51//51
f 58//58 1//1 31//31
f 58//58 53//53 1//1
f 58//58 28//28 53//53
f 58//58 31//31 16//16
f 58//58 16//16 28//28
f 59//59 18//18 2//2
f 60//60 59//59 33//33
f 60//60 18//18 59//59
f 60//60 37//37 18//18
f 60//60 6//6 37//37
f 60//60 35//35 6//6
f 61//61 17//17 34//34
f 61//61 36//36 17//17
f 61//61 32//32 5//5
f 61//61 5//5 36//36
f 61//61 34//34 9//9
f 61//61 9//9 32//32
f 62//62 2//2 34//34
f 62//62 59//59 2//2
f 63//63 34//34 17//17
f 63//63 17//17 33//33
f 63//63 62//62 34//34
f 63//63 33//33 59//59
f 63//63 59//59 62//62
f 64//64 33//33 17//17
f 64//64 17//17 35//35
f 64//64 60//60 33//33
f 64//64 35//35 60//60

