# https://github.com/mikedh/trimesh
v -0.02940332 0.00137367 0.01548772
v -0.00651154 -0.00723695 0.01018428
v -0.00646196 0.00782354 0.00580356
v -0.03495453 0.00331928 -0.01466562
v -0.03525475 -0.00739787 -0.00501761
v -0.00629884 -0.00092437 -0.01682802
v -0.03493129 0.00721566 0.00909883
v -0.00649700 0.00736266 0.00916627
v -0.03499426 -0.00662924 0.00923715
v -0.00651951 0.00771866 -0.01225364
v -0.03503005 -0.00538795 -0.01357299
v -0.03530451 0.00712958 -0.01302535
v -0.00655718 0.00137366 0.01032315
v -0.01493307 -0.00841269 -0.00964654
v -0.02938040 -0.00177321 0.01548528
v -0.03490526 -0.00172669 0.01514950
v -0.03505264 -0.00299317 -0.01470573
v -0.03496751 0.00786761 -0.01110646
v -0.01402638 0.00433695 -0.01661739
v -0.03504305 -0.00729279 -0.01177592
v -0.00653995 -0.00768400 -0.01172409
v -0.00865740 -0.00718967 0.01018096
v -0.03486335 0.00131331 0.01548593
v -0.01182883 -0.00120924 -0.01668083
v -0.03493851 0.00780890 -0.00283467
v -0.02274987 0.00788767 -0.01132128
v -0.01378725 0.00672262 -0.01501288
v -0.00657306 0.00510532 -0.01598323
v -0.03506439 0.00641935 -0.01369528
v -0.01508012 0.00315949 -0.01668536
v -0.00779122 -0.00836091 -0.00971486
v -0.01483958 -0.00819202 -0.01106824
v -0.02817011 -0.00463731 -0.01438916
v -0.02170143 0.00785403 0.00489487
v -0.00681729 0.00323903 -0.01684372
v -0.00667440 0.00689053 -0.01407808
v -0.00790277 0.00580261 -0.01558581
v -0.01592808 0.00570029 -0.01564628
v -0.01397310 -0.00030643 -0.01675984
v -0.00795992 -0.00820345 -0.01105251
v -0.00664267 -0.00424834 -0.01479850
v -0.00764546 0.00408178 -0.01664040
v -0.00998403 0.00670152 -0.01484902
v -0.01496872 0.00140865 -0.01670158
vn 0.06751642 0.37138962 0.92601905
vn 0.61666353 -0.58714554 0.52439127
vn 0.69191653 0.71988205 0.05496683
vn -0.62032975 0.10965605 -0.77663798
vn -0.71874860 -0.69506890 0.01672337
vn 0.65811492 -0.19759006 -0.72652799
vn -0.63858071 0.70495566 0.30862953
vn 0.62863186 0.59980358 0.49503298
vn -0.65258988 -0.70343649 0.28160888
vn 0.66044871 0.73345942 -0.16076313
vn -0.67004024 -0.42867777 -0.60603750
vn -0.68369387 0.60051547 -0.41466114
vn 0.73756519 0.05855265 0.67273262
vn -0.01862426 -0.99876739 -0.04600914
vn 0.04575570 -0.39688715 0.91672625
vn -0.64934358 -0.35836276 0.67076751
vn -0.67703013 -0.17351444 -0.71520832
vn -0.50534455 0.85509170 -0.11595287
vn -0.03011982 0.33044237 -0.94334545
vn -0.62791218 -0.70430180 -0.33118767
vn 0.66446378 -0.63918528 -0.38720803
vn -0.02246056 -0.91740083 0.39733014
vn -0.61824086 0.28726237 0.73161368
vn -0.01672975 -0.34160557 -0.93969450
vn -0.59650303 0.80230141 0.02228424
vn -0.00212199 0.98951214 -0.14443412
vn -0.00886384 0.79169804 -0.61084830
vn 0.67790772 0.42080968 -0.60279377
vn -0.51104405 0.38985547 -0.76605920
vn -0.07069103 0.06737000 -0.99522061
vn 0.23705290 -0.97121886 -0.02323463
vn -0.01467168 -0.90229930 -0.43086044
vn -0.02907118 -0.54606534 -0.83723803
vn -0.00700060 0.99778700 0.06612189
vn 0.46712054 0.15381451 -0.87071206
vn 0.57213428 0.68926801 -0.44449069
vn 0.08083057 0.65404814 -0.75212196
vn -0.05479348 0.56282238 -0.82475975
vn -0.05244305 -0.10667328 -0.99291014
vn 0.09052838 -0.93274382 -0.34898936
vn 0.46447473 -0.54043751 -0.70156291
vn 0.05610443 0.38687693 -0.92042302
vn 0.03928113 0.81845108 -0.57323191
vn -0.07590965 -0.00283691 -0.99711066
f 6//6 3//3 2//2
f 8//8 2//2 3//3
f 8//8 7//7 1//1
f 8//8 3//3 7//7
f 10//10 3//3 6//6
f 13//13 8//8 1//1
f 13//13 2//2 8//8
f 14//14 9//9 5//5
f 15//15 13//13 1//1
f 15//15 2//2 13//13
f 16//16 5//5 9//9
f 16//16 12//12 5//5
f 16//16 7//7 12//12
f 16//16 9//9 15//15
f 17//17 12//12 4//4
f 17//17 5//5 12//12
f 20//20 14//14 5//5
f 20//20 17//17 11//11
f 20//20 5//5 17//17
f 21//21 6//6 2//2
f 22//22 15//15 9//9
f 22//22 2//2 15//15
f 22//22 14//14 2//2
f 22//22 9//9 14//14
f 23//23 1//1 7//7
f 23//23 7//7 16//16
f 23//23 16//16 15//15
f 23//23 15//15 1//1
f 25//25 18//18 12//12
f 25//25 12//12 7//7
f 26//26 3//3 10//10
f 26//26 10//10 18//18
f 27//27 18//18 10//10
f 27//27 12//12 18//18
f 28//28 10//10 6//6
f 29//29 19//19 4//4
f 29//29 4//4 12//12
f 29//29 12//12 27//27
f 30//30 17//17 4//4
f 30//30 4//4 19//19
f 31//31 21//21 2//2
f 31//31 2//2 14//14
f 32//32 14//14 20//20
f 32//32 20//20 21//21
f 33//33 21//21 20//20
f 33//33 20//20 11//11
f 33//33 11//11 17//17
f 33//33 17//17 24//24
f 34//34 25//25 7//7
f 34//34 7//7 3//3
f 34//34 18//18 25//25
f 34//34 26//26 18//18
f 34//34 3//3 26//26
f 35//35 28//28 6//6
f 35//35 30//30 19//19
f 36//36 10//10 28//28
f 37//37 19//19 27//27
f 37//37 36//36 28//28
f 38//38 29//29 27//27
f 38//38 27//27 19//19
f 38//38 19//19 29//29
f 39//39 24//24 17//17
f 39//39 6//6 24//24
f 39//39 35//35 6//6
f 39//39 30//30 35//35
f 40//40 31//31 14//14
f 40//40 14//14 32//32
f 40//40 32//32 21//21
f 40//40 21//21 31//31
f 41//41 33//33 24//24
f 41//41 24//24 6//6
f 41//41 6//6 21//21
f 41//41 21//21 33//33
f 42//42 35//35 19//19
f 42//42 28//28 35//35
f 42//42 37//37 28//28
f 42//42 19//19 37//37
f 43//43 27//27 10//10
f 43//43 10//10 36//36
f 43//43 37//37 27//27
f 43//43 36//36 37//37
f 44//44 39//39 17//17
f 44//44 17//17 30//30
f 44//44 30//30 39//39

