# https://github.com/mikedh/trimesh
v 0.04018564 -0.00281726 0.01613171
v 0.04043571 -0.00659760 0.01417121
v 0.03591028 0.00411739 -0.01564684
v 0.00621419 0.00321590 -0.01653314
v 0.00647429 0.00135053 0.00954572
v 0.03595727 -0.00845764 -0.01015571
v 0.03602349 0.00583825 -0.01449212
v 0.02180806 -0.00439002 0.01589113
v 0.03595495 -0.00252216 -0.01543220
v 0.00645875 -0.00799128 -0.00795206
v 0.04036215 -0.00367920 0.01588944
v 0.03615458 0.00564379 0.01352758
v 0.02497509 0.00584457 -0.01538336
v 0.03590043 -0.00456565 -0.01433518
v 0.03473823 0.00038220 -0.01648294
v 0.02182079 -0.00638143 0.01431390
v 0.02932933 -0.00837282 0.00942359
v 0.03598530 0.00703700 -0.01285589
v 0.04034305 -0.00556378 0.01510410
v 0.03358386 -0.00448944 0.01579583
v 0.01517754 0.00131384 0.01697286
v 0.00656952 0.00780040 0.00611414
v 0.02588118 0.00566094 -0.01548456
v 0.00649153 -0.00770713 -0.01141351
v 0.00673263 -0.00094751 -0.01651744
v 0.03013586 0.00301920 -0.01633021
v 0.00881515 -0.00839275 -0.00914974
v 0.03548531 -0.00827357 0.01029646
v 0.02173261 -0.00731885 0.01238108
v 0.03584138 0.00104025 0.01603641
v 0.00653447 0.00733952 0.00947685
v 0.00651197 0.00769553 -0.01194306
v 0.01933475 0.00895764 -0.00375025
v 0.00645841 0.00508219 -0.01567265
v 0.03257709 -0.00046715 -0.01648613
v 0.00656924 -0.00341519 -0.01522572
v 0.03473741 0.00111922 -0.01647002
v 0.00969337 -0.00824841 -0.01073535
v 0.00886170 -0.00837774 -0.01000029
v 0.04026658 -0.00703038 0.01364650
v 0.03268433 -0.00822767 0.01038445
v 0.03596419 0.00404339 0.01480574
v 0.01192618 0.00559379 0.01488131
v 0.00635707 0.00686739 -0.01376750
v 0.03313116 0.00773440 -0.00489573
v 0.01754355 0.00886214 -0.00566370
v 0.01619120 0.00765357 0.01044669
v 0.02474394 -0.00363523 -0.01533873
v 0.02630159 -0.00705301 0.01330430
v 0.03027017 0.00310205 0.01578773
v 0.02164376 0.00384198 0.01588223
v 0.02798618 0.00771558 -0.01166361
v 0.03127059 0.00773539 -0.00161132
v 0.02050947 0.00890723 -0.00679406
v 0.01189989 0.00679334 0.01339683
v 0.01194490 0.00777342 0.01047607
v 0.00754954 -0.00138115 -0.01633463
v 0.02703331 0.00478254 0.01483582
v 0.01525332 0.00392141 0.01591331
v 0.03335606 0.00765607 -0.00875004
v 0.01847052 0.00889322 -0.00670268
v 0.01198753 0.00611927 0.01434110
v 0.03238619 0.00766793 -0.00984357
vn 0.69615736 0.13266902 0.70552382
vn 0.74571342 -0.51906120 0.41771638
vn 0.64651224 0.26740211 -0.71450544
vn -0.67157522 0.15524110 -0.72449080
vn -0.84297760 -0.32435805 0.42916269
vn 0.54445459 -0.76895714 -0.33507331
vn 0.65304598 0.51419637 -0.55599734
vn -0.14069891 -0.45254121 0.88057383
vn 0.66235826 -0.27052582 -0.69863962
vn -0.73103413 -0.67673379 0.08729533
vn 0.75816973 -0.12995515 0.63897599
vn 0.49595639 0.77510992 0.39144843
vn 0.00538989 0.70877111 -0.70541793
vn 0.60461945 -0.49095493 -0.62721494
vn 0.30943417 -0.08315758 -0.94727784
vn -0.24468508 -0.75959964 0.60260900
vn -0.02743548 -0.99124125 0.12918237
vn 0.60727977 0.74367947 -0.27955703
vn 0.58990293 -0.42582229 0.68606844
vn 0.00595329 -0.38068256 0.92468662
vn -0.32389400 -0.14785946 0.93446790
vn -0.67768643 0.73393279 0.04564835
vn 0.03640314 0.51625457 -0.85566116
vn -0.65309215 -0.65377885 -0.38215685
vn -0.51249477 -0.21080749 -0.83241175
vn 0.02715569 0.23207708 -0.97231826
vn -0.09492468 -0.99523417 0.02232168
vn 0.08660447 -0.98410809 0.15501914
vn -0.24134911 -0.91475825 0.32398759
vn 0.14618142 0.24764262 0.95775995
vn -0.73137182 0.57852128 0.36112102
vn -0.60764993 0.77546675 -0.17150187
vn 0.01738722 0.99889319 0.04370436
vn -0.51286999 0.51383790 -0.68770269
vn 0.03090967 -0.21198232 -0.97678457
vn -0.63928949 -0.43602894 -0.63339380
vn 0.26808402 0.07884842 -0.96016347
vn -0.01385617 -0.90515555 -0.42485461
vn -0.10030921 -0.98648556 -0.12955424
vn 0.61591831 -0.75374397 0.22916078
vn -0.01070873 -0.96191433 0.27314127
vn 0.29005974 0.50128597 0.81521637
vn -0.39077468 0.38159193 0.83766506
vn -0.66619447 0.63188153 -0.39611950
vn 0.21778225 0.97539769 0.03420878
vn -0.07416217 0.99718791 -0.01078178
vn 0.04728885 0.97584724 0.21327430
vn 0.00759532 -0.54309211 -0.83963878
vn -0.01437984 -0.90100032 0.43358003
vn 0.05571375 0.39708332 0.91608996
vn 0.03576878 0.48629735 0.87306098
vn 0.03139180 0.95307309 -0.30110837
vn 0.11157403 0.99021788 0.08378414
vn 0.03355927 0.99419399 -0.10223540
vn -0.12658243 0.86719549 0.48161070
vn -0.04239195 0.97696848 0.20913039
vn -0.01431826 -0.43126525 -0.90211156
vn 0.04537114 0.64231023 0.76510067
vn -0.02502582 0.44744874 0.89395936
vn 0.14766867 0.98846083 -0.03375119
vn -0.03151681 0.99494615 -0.09533540
vn -0.16450308 0.75238276 0.63785493
vn 0.08498561 0.99196386 -0.09372908
f 7//7 2//2 3//3
f 9//9 3//3 2//2
f 10//10 5//5 4//4
f 11//11 2//2 7//7
f 14//14 9//9 2//2
f 14//14 2//2 6//6
f 15//15 3//3 9//9
f 16//16 5//5 10//10
f 18//18 11//11 7//7
f 18//18 1//1 11//11
f 18//18 12//12 1//1
f 18//18 7//7 13//13
f 19//19 2//2 11//11
f 19//19 16//16 2//2
f 19//19 8//8 16//16
f 20//20 11//11 1//1
f 20//20 1//1 8//8
f 20//20 19//19 11//11
f 20//20 8//8 19//19
f 21//21 8//8 1//1
f 21//21 16//16 8//8
f 21//21 5//5 16//16
f 23//23 13//13 7//7
f 23//23 7//7 3//3
f 24//24 14//14 6//6
f 24//24 10//10 4//4
f 26//26 23//23 3//3
f 26//26 4//4 23//23
f 27//27 6//6 17//17
f 28//28 17//17 6//6
f 29//29 16//16 10//10
f 29//29 27//27 17//17
f 29//29 10//10 27//27
f 30//30 21//21 1//1
f 31//31 4//4 5//5
f 34//34 23//23 4//4
f 34//34 13//13 23//23
f 35//35 15//15 9//9
f 35//35 25//25 4//4
f 35//35 4//4 15//15
f 36//36 24//24 4//4
f 36//36 4//4 25//25
f 37//37 15//15 4//4
f 37//37 4//4 26//26
f 37//37 26//26 3//3
f 37//37 3//3 15//15
f 38//38 24//24 6//6
f 39//39 27//27 10//10
f 39//39 10//10 24//24
f 39//39 24//24 38//38
f 39//39 38//38 6//6
f 39//39 6//6 27//27
f 40//40 28//28 6//6
f 40//40 6//6 2//2
f 40//40 2//2 16//16
f 41//41 29//29 17//17
f 41//41 17//17 28//28
f 41//41 28//28 40//40
f 42//42 30//30 1//1
f 42//42 1//1 12//12
f 43//43 31//31 5//5
f 43//43 5//5 21//21
f 44//44 31//31 22//22
f 44//44 22//22 32//32
f 44//44 4//4 31//31
f 44//44 34//34 4//4
f 44//44 13//13 34//34
f 44//44 18//18 13//13
f 45//45 12//12 18//18
f 46//46 32//32 22//22
f 46//46 22//22 33//33
f 48//48 35//35 9//9
f 48//48 25//25 35//35
f 48//48 9//9 14//14
f 48//48 14//14 24//24
f 48//48 24//24 36//36
f 49//49 40//40 16//16
f 49//49 16//16 29//29
f 49//49 41//41 40//40
f 49//49 29//29 41//41
f 50//50 21//21 30//30
f 50//50 30//30 42//42
f 51//51 50//50 42//42
f 51//51 21//21 50//50
f 52//52 44//44 32//32
f 52//52 18//18 44//44
f 53//53 45//45 33//33
f 53//53 12//12 45//45
f 53//53 47//47 12//12
f 53//53 33//33 47//47
f 54//54 33//33 45//45
f 54//54 18//18 52//52
f 54//54 52//52 32//32
f 55//55 12//12 47//47
f 56//56 47//47 33//33
f 56//56 33//33 22//22
f 56//56 22//22 31//31
f 56//56 55//55 47//47
f 56//56 31//31 55//55
f 57//57 48//48 36//36
f 57//57 36//36 25//25
f 57//57 25//25 48//48
f 58//58 51//51 42//42
f 58//58 42//42 12//12
f 58//58 12//12 43//43
f 58//58 43//43 51//51
f 59//59 51//51 43//43
f 59//59 43//43 21//21
f 59//59 21//21 51//51
f 60//60 54//54 45//45
f 60//60 45//45 18//18
f 61//61 46//46 33//33
f 61//61 33//33 54//54
f 61//61 54//54 32//32
f 61//61 32//32 46//46
f 62//62 43//43 12//12
f 62//62 12//12 55//55
f 62//62 55//55 31//31
f 62//62 31//31 43//43
f 63//63 60//60 18//18
f 63//63 18//18 54//54
f 63//63 54//54 60//60

