# https://github.com/mikedh/trimesh
v -0.06118358 0.01626426 0.02051389
v -0.05185693 -0.00808901 0.01316515
v -0.05382306 0.01218169 0.00444048
v -0.06734973 0.02040178 0.00424463
v -0.07038414 -0.01712254 0.01583768
v -0.05977497 0.02076478 0.00444656
v -0.05350640 0.00753571 0.01761021
v -0.07300931 0.01302984 0.01767852
v -0.06091018 -0.01802991 0.00446508
v -0.06101183 0.02131882 0.00423617
v -0.05975467 0.02004001 0.01272573
v -0.06279384 -0.01340242 0.01951644
v -0.07139282 -0.00592417 0.00442733
v -0.05214477 -0.00900232 0.00459883
v -0.05930963 -0.01697592 0.00441557
v -0.06009260 0.01886179 0.01674499
v -0.06112059 0.02101735 0.00859713
v -0.05421059 0.01190778 0.01180586
v -0.05528141 -0.00422383 0.01971418
v -0.05916115 -0.01887140 0.01184687
v -0.06766488 -0.01206807 0.01958996
v -0.07125314 0.01340221 0.00561609
v -0.07133050 -0.01576010 0.01441470
v -0.06559767 0.02134395 0.00423259
v -0.06825203 -0.01680572 0.00443071
v -0.06011235 0.01625202 0.01987950
v -0.06571127 0.02161711 0.01660849
v -0.05411595 0.01035630 0.01484676
v -0.05239609 -0.00741759 0.01604929
v -0.05543897 0.00541103 0.01937408
v -0.06066809 -0.00376610 0.02072322
v -0.06308569 -0.01765583 0.01677395
v -0.05934116 -0.01878567 0.01045713
v -0.05803870 -0.01778120 0.01032331
v -0.07140102 -0.01396600 0.01648972
v -0.06660117 0.01319601 0.02050725
v -0.07135280 0.00379716 0.00450726
v -0.07031987 0.01637321 0.00432131
v -0.07300327 0.01238319 0.01791838
v -0.07032751 -0.01409054 0.00451517
v -0.07020626 -0.01813938 0.01302046
v -0.06231874 0.01906128 0.01861441
v -0.06630069 0.02171586 0.01526300
v -0.05406216 0.00934670 0.01649282
v -0.05730524 -0.01605926 0.01349398
v -0.06143321 -0.01507979 0.01836119
v -0.05749044 0.00165201 0.02074028
v -0.06015412 0.01343063 0.02056320
v -0.06670805 -0.01331767 0.01964212
v -0.05487720 -0.01265442 0.00452763
v -0.06778148 -0.01635549 0.01847497
v -0.07252150 0.01446822 0.01799531
v -0.06466409 0.01832225 0.01947244
v -0.06656996 0.00177888 0.02064533
v -0.07294713 0.01368867 0.01739896
v -0.06955942 -0.01321568 0.01842503
v -0.07020596 -0.01822098 0.01389618
v -0.06910771 -0.01584780 0.00454779
v -0.06655373 -0.01999138 0.01145552
v -0.05644492 -0.01510217 0.01278897
v -0.05845154 -0.01820583 0.01168457
v -0.05361221 -0.00698998 0.01736074
v -0.05715111 -0.01279120 0.01642929
v -0.06218481 -0.01672056 0.01750973
vn 0.21301729 0.34249362 0.91505287
vn 0.96087119 -0.25309998 0.11254758
vn 0.72709103 0.26965701 -0.63136656
vn -0.48848231 0.54970236 -0.67765209
vn -0.62919415 -0.61835364 0.47090709
vn 0.56984966 0.64635645 -0.50743936
vn 0.86087078 0.20808546 0.46432957
vn -0.97686710 0.10408587 0.18680688
vn 0.16441496 -0.67718031 -0.71721305
vn 0.19995764 0.72707887 -0.65679012
vn 0.61758817 0.76993840 0.16056059
vn 0.15871367 -0.30916625 0.93767062
vn -0.69703444 -0.04547845 -0.71559395
vn 0.74622884 -0.21365298 -0.63047198
vn 0.39903965 -0.49919698 -0.76913570
vn 0.62790726 0.68788724 0.36406540
vn 0.33364787 0.93918415 0.08131567
vn 0.90046157 0.41833647 0.11901073
vn 0.50955932 -0.13252754 0.85016807
vn 0.44116907 -0.87660044 0.19220174
vn -0.33158780 -0.10305143 0.93777926
vn -0.95122793 0.11179124 -0.28752068
vn -0.96168873 -0.27081688 0.04257930
vn -0.17338043 0.71692589 -0.67524550
vn -0.35076945 -0.55712043 -0.75271350
vn 0.60115253 0.44619958 0.66296423
vn -0.12987196 0.88295051 0.45114485
vn 0.87426953 0.43645852 0.21250117
vn 0.85494410 -0.25184983 0.45347795
vn 0.53826704 0.09515708 0.83738505
vn 0.05558580 -0.08728846 0.99463106
vn 0.14164737 -0.82766232 0.54305718
vn 0.38339845 -0.91041848 -0.15538279
vn 0.72522872 -0.68282140 -0.08830758
vn -0.88321753 -0.19410741 0.42690644
vn -0.21534186 0.11991284 0.96914849
vn -0.76139056 0.01355532 -0.64815173
vn -0.65204579 0.30734222 -0.69309238
vn -0.84601239 0.00489577 0.53314075
vn -0.67873491 -0.23032416 -0.69733041
vn -0.74440938 -0.65308823 -0.13903394
vn 0.30053591 0.71966529 0.62590737
vn -0.38767674 0.91665451 0.09721756
vn 0.83447303 0.45899668 0.30492099
vn 0.68864321 -0.60084476 0.40590159
vn 0.37768706 -0.49244913 0.78412138
vn 0.25510436 0.01495044 0.96679794
vn 0.27536966 0.10617484 0.95545720
vn -0.12970694 -0.22509176 0.96566547
vn 0.54054998 -0.42386790 -0.72673360
vn -0.25039649 -0.59035273 0.76732344
vn -0.72241354 0.42671622 0.54408818
vn -0.15064425 0.49393983 0.85634675
vn -0.22624022 -0.01877415 0.97389060
vn -0.96214860 0.26830960 0.04774960
vn -0.57526056 -0.18190231 0.79748783
vn -0.60487242 -0.77187422 0.19580487
vn -0.68493182 -0.51330094 -0.51709820
vn -0.17372319 -0.98469161 0.01423712
vn 0.81964766 -0.55183005 0.15382233
vn 0.73434444 -0.66300944 0.14545350
vn 0.60554716 -0.32235130 0.72760036
vn 0.59179983 -0.50619318 0.62732880
vn 0.32247909 -0.63708576 0.70009212
f 7//7 2//2 3//3
f 10//10 6//6 3//3
f 11//11 3//3 6//6
f 14//14 3//3 2//2
f 15//15 10//10 3//3
f 17//17 11//11 6//6
f 17//17 6//6 10//10
f 18//18 7//7 3//3
f 18//18 3//3 11//11
f 18//18 11//11 16//16
f 24//24 10//10 15//15
f 25//25 13//13 4//4
f 25//25 24//24 15//15
f 25//25 4//4 24//24
f 25//25 15//15 9//9
f 26//26 7//7 16//16
f 27//27 17//17 10//10
f 27//27 16//16 11//11
f 27//27 11//11 17//17
f 28//28 18//18 16//16
f 28//28 7//7 18//18
f 29//29 2//2 7//7
f 29//29 7//7 19//19
f 30//30 19//19 7//7
f 30//30 7//7 26//26
f 31//31 12//12 19//19
f 33//33 9//9 15//15
f 34//34 14//14 2//2
f 34//34 20//20 33//33
f 34//34 33//33 15//15
f 35//35 23//23 5//5
f 37//37 13//13 8//8
f 37//37 8//8 22//22
f 38//38 37//37 22//22
f 38//38 4//4 13//13
f 38//38 13//13 37//37
f 39//39 8//8 13//13
f 39//39 13//13 23//23
f 39//39 23//23 35//35
f 40//40 23//23 13//13
f 40//40 13//13 25//25
f 41//41 23//23 40//40
f 42//42 26//26 16//16
f 42//42 1//1 26//26
f 42//42 16//16 27//27
f 43//43 27//27 10//10
f 43//43 10//10 24//24
f 43//43 24//24 4//4
f 44//44 28//28 16//16
f 44//44 16//16 7//7
f 44//44 7//7 28//28
f 45//45 2//2 29//29
f 46//46 19//19 12//12
f 47//47 19//19 30//30
f 47//47 31//31 19//19
f 48//48 30//30 26//26
f 48//48 26//26 1//1
f 48//48 47//47 30//30
f 48//48 1//1 36//36
f 48//48 36//36 47//47
f 49//49 12//12 31//31
f 50//50 34//34 15//15
f 50//50 14//14 34//34
f 50//50 15//15 3//3
f 50//50 3//3 14//14
f 51//51 35//35 5//5
f 51//51 49//49 21//21
f 51//51 12//12 49//49
f 51//51 46//46 12//12
f 52//52 39//39 36//36
f 52//52 8//8 39//39
f 52//52 27//27 43//43
f 52//52 43//43 4//4
f 52//52 4//4 38//38
f 53//53 36//36 1//1
f 53//53 52//52 36//36
f 53//53 27//27 52//52
f 53//53 42//42 27//27
f 53//53 1//1 42//42
f 54//54 47//47 36//36
f 54//54 31//31 47//47
f 54//54 49//49 31//31
f 54//54 21//21 49//49
f 54//54 39//39 21//21
f 54//54 36//36 39//39
f 55//55 38//38 22//22
f 55//55 22//22 8//8
f 55//55 52//52 38//38
f 55//55 8//8 52//52
f 56//56 39//39 35//35
f 56//56 21//21 39//39
f 56//56 51//51 21//21
f 56//56 35//35 51//51
f 57//57 5//5 23//23
f 57//57 23//23 41//41
f 57//57 51//51 5//5
f 58//58 41//41 40//40
f 58//58 40//40 25//25
f 58//58 25//25 41//41
f 59//59 41//41 25//25
f 59//59 25//25 9//9
f 59//59 9//9 33//33
f 59//59 57//57 41//41
f 59//59 33//33 20//20
f 59//59 20//20 32//32
f 59//59 32//32 51//51
f 59//59 51//51 57//57
f 60//60 34//34 2//2
f 60//60 2//2 45//45
f 61//61 45//45 20//20
f 61//61 20//20 34//34
f 61//61 60//60 45//45
f 61//61 34//34 60//60
f 62//62 29//29 19//19
f 62//62 19//19 46//46
f 63//63 46//46 45//45
f 63//63 45//45 29//29
f 63//63 62//62 46//46
f 63//63 29//29 62//62
f 64//64 32//32 20//20
f 64//64 20//20 45//45
f 64//64 45//45 46//46
f 64//64 51//51 32//32
f 64//64 46//46 51//51

