# https://github.com/mikedh/trimesh
v 0.07483716 0.01589303 -0.01013392
v 0.07597890 -0.01382931 -0.01538846
v 0.07466540 0.01414066 -0.01653380
v 0.06737413 0.01100861 -0.01959928
v 0.06428798 -0.01861210 -0.01224559
v 0.07103051 -0.01218085 -0.02071123
v 0.07090543 0.01876240 -0.01511030
v 0.07601126 0.01082790 -0.01004752
v 0.07477924 -0.01376292 -0.01815842
v 0.07187715 0.01413771 -0.01854740
v 0.06039963 -0.00892413 -0.01825897
v 0.07456168 0.01676133 -0.01414165
v 0.07571604 0.00972705 -0.01580858
v 0.07114610 -0.01936613 -0.01215933
v 0.06086914 0.01093139 -0.01123911
v 0.06989576 0.01076862 -0.01961331
v 0.07277435 -0.00221821 -0.01958750
v 0.07187940 0.01662624 -0.01754530
v 0.06415006 -0.01655357 -0.01853253
v 0.06517720 -0.00226411 -0.02079898
v 0.07116731 0.01913395 -0.01011476
v 0.07559423 0.01405172 -0.01308201
v 0.07625181 0.00010667 -0.01108713
v 0.07554250 -0.01271874 -0.01713752
v 0.06752252 -0.01946947 -0.01213136
v 0.07076763 -0.01859188 -0.01711228
v 0.07144362 0.01099288 -0.01004817
v 0.06021508 0.00849996 -0.01642264
v 0.07289870 -0.01348280 -0.01961375
v 0.07086504 -0.00658280 -0.02071096
v 0.07358424 0.01414717 -0.01761415
v 0.07388044 0.00099730 -0.01854183
v 0.07465656 0.01558886 -0.01564338
v 0.07282365 0.01867785 -0.01390302
v 0.07109710 0.01669241 -0.01776419
v 0.06416735 -0.01720068 -0.01797172
v 0.06442928 -0.01264421 -0.02070957
v 0.07559521 0.01403367 -0.01122868
v 0.07599088 -0.00972231 -0.01222091
v 0.07571449 -0.01376603 -0.01614592
v 0.07113226 -0.01931061 -0.01324432
v 0.07096321 -0.01572650 -0.01965828
v 0.06382758 0.00011283 -0.01113617
v 0.06203558 0.00523823 -0.01960161
v 0.06996855 -0.00220935 -0.02056474
v 0.07273466 0.01556182 -0.01770849
v 0.07558439 0.01186739 -0.01516848
v 0.07090015 0.01775230 -0.01694449
v 0.07352089 0.01743939 -0.01478060
v 0.07398927 0.01745985 -0.01052116
v 0.06441410 -0.01812126 -0.01618494
v 0.06535303 -0.01339017 -0.02072365
v 0.07570185 0.01296414 -0.01013302
v 0.07013283 -0.01937938 -0.01425213
v 0.06765222 -0.01725969 -0.01875993
v 0.06231980 -0.00876564 -0.01983068
v 0.06435981 -0.00875309 -0.02069210
v 0.06444564 0.01089002 -0.01865976
v 0.06720184 -0.00147233 -0.02069327
v 0.07171204 0.01738828 -0.01671225
v 0.07301310 0.01842664 -0.01140448
v 0.07197605 0.01875093 -0.01025324
v 0.07434080 0.01690714 -0.01097057
v 0.06640280 -0.01935399 -0.01441433
vn 0.65087901 0.30994576 0.69302968
vn 0.92231171 -0.38623629 0.01275335
vn 0.80757158 0.21813105 -0.54794797
vn -0.14569710 0.28188069 -0.94832253
vn -0.58275210 -0.57839468 0.57084113
vn 0.25144402 -0.10577840 -0.96207424
vn -0.20622443 0.92938483 -0.30612957
vn 0.72431365 0.02556494 0.68899649
vn 0.72555745 -0.33215800 -0.60269183
vn 0.27285826 0.22456299 -0.93547840
vn -0.95236937 -0.15945715 -0.25993459
vn 0.82657397 0.53024161 -0.18873078
vn 0.91926830 0.06152138 -0.38879418
vn 0.36840706 -0.71500390 0.59417646
vn -0.74723005 0.38565663 0.54121735
vn 0.16303338 0.15123292 -0.97496088
vn 0.51759272 0.04845731 -0.85425386
vn 0.41902466 0.54981881 -0.72257706
vn -0.52055950 -0.50841419 -0.68595394
vn -0.13082266 0.03835199 -0.99066370
vn -0.12162142 0.77790245 0.61650305
vn 0.97165087 0.22171405 -0.08208205
vn 0.78683454 -0.05700600 0.61452561
vn 0.89760174 -0.05689744 -0.43711988
vn -0.07580477 -0.74808144 0.65926307
vn 0.32499648 -0.82828621 -0.45642002
vn -0.04937767 -0.02267367 0.99852278
vn -0.89564522 0.32250487 -0.30628460
vn 0.51139233 -0.20561151 -0.83438708
vn 0.25574804 0.01927368 -0.96655133
vn 0.60544278 0.19237314 -0.77228985
vn 0.68191910 0.04956325 -0.72974642
vn 0.80927545 0.41415429 -0.41659269
vn 0.46705341 0.85994115 -0.20582109
vn -0.00538680 0.50801478 -0.86133151
vn -0.57653458 -0.68258346 -0.44909654
vn -0.38148626 -0.19813308 -0.90289064
vn 0.96549659 0.25339728 0.06005131
vn 0.77544444 -0.14034024 0.61562207
vn 0.83711466 -0.42519181 -0.34416708
vn 0.46584594 -0.87913867 -0.10051250
vn 0.27456925 -0.49329819 -0.82538998
vn -0.16123418 -0.05662579 0.98529034
vn -0.53425221 0.14153224 -0.83339259
vn 0.12447974 0.06417173 -0.99014483
vn 0.50165245 0.41291567 -0.76016148
vn 0.96412155 0.14165305 -0.22450846
vn -0.09772305 0.78425918 -0.61268895
vn 0.60862644 0.64177574 -0.46658093
vn 0.66225958 0.60179598 0.44637859
vn -0.60033831 -0.75628524 -0.26005104
vn -0.13204989 -0.28857427 -0.94830782
vn 0.76803877 0.15770149 0.62068243
vn 0.10471116 -0.98264184 -0.15313583
vn -0.06820471 -0.69528070 -0.71549484
vn -0.53192667 -0.05122654 -0.84523953
vn -0.27032906 0.00291680 -0.96276357
vn -0.48739017 0.50382744 -0.71316810
vn 0.04142405 0.06182715 -0.99722688
vn 0.48949105 0.69669866 -0.52441347
vn 0.55563118 0.82444106 0.10756826
vn 0.44266882 0.68949530 0.57327179
vn 0.86981210 0.49084106 0.05001961
vn -0.20046592 -0.96217029 -0.18450406
f 15//15 11//11 5//5
f 16//16 4//4 10//10
f 20//20 4//4 16//16
f 21//21 7//7 15//15
f 21//21 8//8 1//1
f 22//22 8//8 13//13
f 23//23 13//13 8//8
f 23//23 2//2 13//13
f 23//23 8//8 14//14
f 24//24 13//13 2//2
f 24//24 9//9 13//13
f 25//25 14//14 8//8
f 27//27 21//21 15//15
f 27//27 8//8 21//21
f 27//27 25//25 8//8
f 27//27 5//5 25//25
f 28//28 15//15 7//7
f 28//28 11//11 15//15
f 29//29 17//17 9//9
f 29//29 6//6 17//17
f 30//30 17//17 6//6
f 30//30 16//16 10//10
f 30//30 10//10 17//17
f 30//30 6//6 20//20
f 31//31 17//17 10//10
f 32//32 13//13 9//9
f 32//32 9//9 17//17
f 32//32 17//17 31//31
f 32//32 31//31 3//3
f 32//32 3//3 13//13
f 33//33 12//12 22//22
f 34//34 7//7 21//21
f 35//35 10//10 4//4
f 36//36 11//11 19//19
f 37//37 19//19 11//11
f 38//38 22//22 12//12
f 38//38 12//12 1//1
f 38//38 8//8 22//22
f 39//39 23//23 14//14
f 39//39 14//14 2//2
f 39//39 2//2 23//23
f 40//40 24//24 2//2
f 40//40 9//9 24//24
f 40//40 26//26 9//9
f 40//40 2//2 26//26
f 41//41 26//26 2//2
f 41//41 2//2 14//14
f 42//42 6//6 29//29
f 42//42 29//29 9//9
f 42//42 9//9 26//26
f 43//43 27//27 15//15
f 43//43 15//15 5//5
f 43//43 5//5 27//27
f 44//44 11//11 28//28
f 44//44 4//4 20//20
f 45//45 16//16 30//30
f 46//46 31//31 10//10
f 46//46 18//18 33//33
f 46//46 33//33 3//3
f 46//46 3//3 31//31
f 46//46 35//35 18//18
f 46//46 10//10 35//35
f 47//47 33//33 22//22
f 47//47 22//22 13//13
f 47//47 13//13 3//3
f 47//47 3//3 33//33
f 48//48 7//7 34//34
f 48//48 18//18 35//35
f 48//48 28//28 7//7
f 49//49 33//33 18//18
f 49//49 18//18 34//34
f 49//49 34//34 12//12
f 49//49 12//12 33//33
f 50//50 12//12 34//34
f 51//51 5//5 11//11
f 51//51 11//11 36//36
f 52//52 37//37 20//20
f 52//52 20//20 6//6
f 52//52 6//6 42//42
f 52//52 19//19 37//37
f 53//53 38//38 1//1
f 53//53 1//1 8//8
f 53//53 8//8 38//38
f 54//54 41//41 14//14
f 54//54 14//14 25//25
f 54//54 26//26 41//41
f 55//55 36//36 19//19
f 55//55 52//52 42//42
f 55//55 19//19 52//52
f 55//55 42//42 26//26
f 55//55 26//26 36//36
f 56//56 37//37 11//11
f 56//56 11//11 44//44
f 57//57 44//44 20//20
f 57//57 20//20 37//37
f 57//57 56//56 44//44
f 57//57 37//37 56//56
f 58//58 44//44 28//28
f 58//58 4//4 44//44
f 58//58 28//28 48//48
f 58//58 48//48 35//35
f 58//58 35//35 4//4
f 59//59 45//45 30//30
f 59//59 30//30 20//20
f 59//59 20//20 16//16
f 59//59 16//16 45//45
f 60//60 48//48 34//34
f 60//60 34//34 18//18
f 60//60 18//18 48//48
f 61//61 50//50 34//34
f 61//61 34//34 21//21
f 62//62 21//21 1//1
f 62//62 1//1 50//50
f 62//62 61//61 21//21
f 62//62 50//50 61//61
f 63//63 50//50 1//1
f 63//63 1//1 12//12
f 63//63 12//12 50//50
f 64//64 25//25 5//5
f 64//64 5//5 51//51
f 64//64 54//54 25//25
f 64//64 26//26 54//54
f 64//64 51//51 36//36
f 64//64 36//36 26//26

