# https://github.com/mikedh/trimesh
v -0.04505324 0.00175611 0.01603021
v -0.04275811 -0.00368355 0.01515193
v -0.04278179 0.00735295 -0.00125106
v -0.04841207 0.00820696 -0.01428666
v -0.04973277 -0.01285787 0.00203658
v -0.04863864 0.01036530 0.00745197
v -0.04298234 0.00629707 0.01232623
v -0.05067564 -0.00711761 0.01528582
v -0.04287904 -0.00765625 -0.01127234
v -0.04882159 0.01014648 -0.01175445
v -0.04281922 0.00355806 0.01503222
v -0.04969851 -0.01177619 0.00961149
v -0.05047485 -0.00488910 0.01628506
v -0.04279052 0.00295582 -0.01416204
v -0.04956456 -0.01320106 -0.01402449
v -0.04689446 0.00962397 -0.00647785
v -0.05076340 0.00730217 0.01524154
v -0.05039944 -0.00759795 0.01496548
v -0.04285589 -0.00656724 0.01227630
v -0.04502935 -0.00187482 0.01599489
v -0.04321596 0.00730567 -0.01170785
v -0.04803168 -0.01322653 -0.01014660
v -0.04288536 -0.00385871 -0.01414941
v -0.04938384 0.00098603 -0.01544244
v -0.05042590 0.00746629 0.01500092
v -0.05062772 0.00380917 0.01632446
v -0.04965028 -0.00965286 -0.01478365
v -0.04411654 -0.00553852 0.01400200
v -0.04338720 0.00649522 -0.01303755
v -0.04928237 -0.01326467 -0.01353430
v -0.04299628 -0.00740219 -0.00236763
v -0.04286604 -0.00575141 -0.01306941
v -0.04859811 0.00891091 -0.01377648
v -0.04576702 0.00663001 -0.01413952
v -0.04865627 0.00903066 0.01157464
v -0.04952585 -0.00523639 -0.01527879
v -0.04809265 -0.01321075 -0.01056409
v -0.04741772 0.00806307 -0.01405763
v -0.04437404 0.00597475 -0.01380487
vn 0.21361838 0.10829581 0.97089608
vn 0.74010140 -0.25677798 0.62154243
vn 0.85653060 0.51603641 0.00785773
vn -0.27050809 0.38754270 -0.88126955
vn -0.39204473 -0.91498799 0.09538290
vn -0.18697731 0.97767783 0.09584128
vn 0.76123776 0.57178587 0.30590520
vn -0.63706957 -0.40406856 0.65640762
vn 0.88870133 -0.41374779 -0.19754170
vn -0.44240147 0.85285275 -0.27735018
vn 0.74203770 0.27699857 0.61045216
vn -0.31905028 -0.90194292 0.29104276
vn -0.50615797 -0.19943020 0.83906597
vn 0.75417703 0.10013961 -0.64899081
vn -0.36931832 -0.68467678 -0.62834837
vn 0.40638709 0.91338987 -0.02384254
vn -0.59260146 0.52253831 0.61300671
vn -0.15194077 -0.70876721 0.68888537
vn 0.78895012 -0.52884698 0.31285551
vn 0.19894257 -0.07727009 0.97696018
vn 0.77508153 0.59152203 -0.22214929
vn 0.40314207 -0.91508278 -0.00999923
vn 0.74144212 -0.10332747 -0.66301359
vn -0.60966791 0.06909494 -0.78963975
vn 0.07045805 0.82228906 0.56469139
vn -0.58774694 0.13261165 0.79810256
vn -0.59788564 -0.14348134 -0.78863544
vn 0.33242695 -0.67059506 0.66317010
vn 0.68156150 0.47060503 -0.56036133
vn 0.28335309 -0.93115960 -0.22946204
vn 0.75837262 -0.65115098 0.02955270
vn 0.87618299 -0.26912265 -0.39984543
vn -0.41903806 0.67684566 -0.60521654
vn 0.28008280 0.31609799 -0.90644122
vn 0.09921688 0.92164401 0.37513775
vn -0.60494851 -0.04391725 -0.79505256
vn 0.49628432 -0.85596560 -0.14499922
vn 0.34912132 0.57827324 -0.73736989
vn 0.39722166 0.35475206 -0.84638403
f 7//7 3//3 6//6
f 11//11 1//1 2//2
f 11//11 2//2 3//3
f 11//11 3//3 7//7
f 12//12 8//8 5//5
f 13//13 8//8 2//2
f 14//14 3//3 2//2
f 15//15 5//5 8//8
f 16//16 10//10 6//6
f 16//16 6//6 3//3
f 17//17 1//1 11//11
f 17//17 6//6 10//10
f 18//18 2//2 8//8
f 18//18 8//8 12//12
f 19//19 9//9 2//2
f 19//19 18//18 12//12
f 19//19 12//12 5//5
f 20//20 13//13 2//2
f 20//20 2//2 1//1
f 20//20 1//1 13//13
f 21//21 3//3 14//14
f 21//21 16//16 3//3
f 21//21 10//10 16//16
f 22//22 19//19 5//5
f 24//24 14//14 23//23
f 24//24 17//17 10//10
f 25//25 17//17 11//11
f 25//25 11//11 7//7
f 26//26 13//13 1//1
f 26//26 1//1 17//17
f 26//26 17//17 8//8
f 26//26 8//8 13//13
f 27//27 15//15 8//8
f 27//27 8//8 17//17
f 27//27 17//17 24//24
f 27//27 23//23 15//15
f 28//28 19//19 2//2
f 28//28 2//2 18//18
f 28//28 18//18 19//19
f 29//29 21//21 14//14
f 30//30 15//15 9//9
f 30//30 22//22 5//5
f 30//30 5//5 15//15
f 31//31 22//22 9//9
f 31//31 9//9 19//19
f 31//31 19//19 22//22
f 32//32 23//23 14//14
f 32//32 9//9 15//15
f 32//32 15//15 23//23
f 32//32 14//14 2//2
f 32//32 2//2 9//9
f 33//33 24//24 10//10
f 33//33 4//4 24//24
f 33//33 10//10 21//21
f 34//34 24//24 4//4
f 34//34 14//14 24//24
f 35//35 25//25 7//7
f 35//35 7//7 6//6
f 35//35 6//6 17//17
f 35//35 17//17 25//25
f 36//36 27//27 24//24
f 36//36 24//24 23//23
f 36//36 23//23 27//27
f 37//37 30//30 9//9
f 37//37 9//9 22//22
f 37//37 22//22 30//30
f 38//38 4//4 33//33
f 38//38 34//34 4//4
f 38//38 29//29 34//34
f 38//38 33//33 21//21
f 38//38 21//21 29//29
f 39//39 34//34 29//29
f 39//39 29//29 14//14
f 39//39 14//14 34//34

