# https://github.com/mikedh/trimesh
v 0.00992875 0.05971745 0.02000000
v 0.00791073 -0.03492892 0.01926780
v 0.00992875 0.05971745 -0.02000000
v -0.01035262 0.05971745 -0.02000000
v -0.01035262 0.05971745 0.02000000
v 0.00791073 -0.03492892 -0.01926777
v -0.00709927 -0.03492892 0.01980970
v -0.00842146 -0.03492892 0.01852178
v -0.01035262 0.05850165 0.01974437
v -0.00798188 -0.03492892 -0.01918054
vn 0.58401751 0.57097701 0.57698250
vn 0.58039728 -0.58694849 0.56447362
vn 0.58360710 0.56970811 -0.57864965
vn -0.58344572 0.56949672 -0.57902036
vn -0.57784420 0.57572260 0.57848039
vn 0.56962520 -0.58490813 -0.57741633
vn -0.27405082 -0.63499660 0.72227105
vn -0.71106415 -0.63824676 0.29500651
vn -0.99868811 -0.01552323 0.04879631
vn -0.56762073 -0.58706249 -0.57720389
f 1//1 2//2 3//3
f 1//1 3//3 4//4
f 5//5 1//1 4//4
f 6//6 3//3 2//2
f 6//6 4//4 3//3
f 7//7 2//2 1//1
f 7//7 1//1 5//5
f 8//8 7//7 5//5
f 8//8 6//6 2//2
f 8//8 2//2 7//7
f 9//9 8//8 5//5
f 9//9 5//5 4//4
f 9//9 4//4 8//8
f 10//10 8//8 4//4
f 10//10 4//4 6//6
f 10//10 6//6 8//8

