# https://github.com/mikedh/trimesh
v 0.02393829 0.05971745 0.01953805
v 0.02483318 0.05724765 0.01839143
v 0.02421418 0.05971745 -0.01931170
v 0.00992875 0.05971745 -0.02000000
v 0.00834773 0.05521048 0.01867850
v 0.02419167 0.05788896 0.01933020
v 0.00992875 0.05971745 0.02000000
v 0.02490418 0.05717645 -0.01817951
v 0.00992875 0.05850165 0.01974437
v 0.00848659 0.05521048 -0.01836132
v 0.02426773 0.05781310 -0.01926777
v 0.00992875 0.05826801 -0.01961972
vn 0.48055669 0.60912388 0.63089885
vn 0.79389360 -0.53120772 0.29589069
vn 0.51747877 0.61728099 -0.59260434
vn -0.47094183 0.55572712 -0.68511398
vn -0.67478973 -0.57267557 0.46551209
vn 0.44686922 -0.33949544 0.82767792
vn -0.46160169 0.57850039 0.67250366
vn 0.77985233 -0.56666956 -0.26592473
vn -0.08846728 -0.23924768 0.96691990
vn -0.67363023 -0.59345628 -0.44049059
vn 0.44677595 -0.36558480 -0.81654088
vn -0.12104221 -0.29366915 -0.94821264
f 1//1 2//2 3//3
f 6//6 5//5 2//2
f 6//6 2//2 1//1
f 7//7 4//4 5//5
f 7//7 1//1 3//3
f 7//7 3//3 4//4
f 7//7 6//6 1//1
f 8//8 3//3 2//2
f 8//8 2//2 5//5
f 9//9 7//7 5//5
f 9//9 5//5 6//6
f 9//9 6//6 7//7
f 10//10 8//8 5//5
f 10//10 5//5 4//4
f 11//11 4//4 3//3
f 11//11 3//3 8//8
f 11//11 8//8 10//10
f 12//12 11//11 10//10
f 12//12 10//10 4//4
f 12//12 4//4 11//11

