# https://github.com/mikedh/trimesh
v 0.00791073 -0.03492892 0.01926780
v 0.00992875 -0.06197073 0.02000000
v 0.00992875 -0.06197073 -0.02000000
v 0.00091481 -0.03492892 -0.02000000
v 0.00091481 -0.06197073 0.02000000
v 0.00791073 -0.03492892 -0.01926777
v 0.00091481 -0.03492892 0.02000000
v 0.00091481 -0.06197073 -0.02000000
vn 0.58156668 0.61016148 0.53803640
vn 0.60101513 -0.55566864 0.57446773
vn 0.60101515 -0.55566858 -0.57446777
vn -0.55227896 0.57881569 -0.59996696
vn -0.57735027 -0.57735027 0.57735027
vn 0.58156776 0.61016203 -0.53803460
vn -0.55228000 0.57881561 0.59996607
vn -0.57735027 -0.57735027 -0.57735027
f 5//5 3//3 2//2
f 6//6 3//3 4//4
f 6//6 1//1 2//2
f 6//6 2//2 3//3
f 7//7 5//5 2//2
f 7//7 2//2 1//1
f 7//7 6//6 4//4
f 7//7 1//1 6//6
f 8//8 4//4 3//3
f 8//8 3//3 5//5
f 8//8 7//7 4//4
f 8//8 5//5 7//7

