# https://github.com/mikedh/trimesh
v -0.01035262 -0.05850279 0.01974545
v -0.01035262 -0.07355594 0.01933077
v -0.00853527 -0.05521028 -0.01822571
v -0.02426827 -0.05781200 -0.01926777
v -0.02448636 -0.07385140 0.01900124
v -0.01035262 -0.07363267 -0.01926777
v -0.02487522 -0.05720437 0.01827317
v -0.00842146 -0.05521028 0.01852178
v -0.01035262 -0.05826892 -0.01962044
v -0.02457827 -0.07394358 -0.01888893
v -0.02492784 -0.05715206 -0.01808462
v -0.02426827 -0.05781200 0.01926780
vn 0.23208743 0.10818116 0.96666037
vn 0.54515268 -0.60196638 0.58347668
vn 0.61623875 0.64607900 -0.45036844
vn -0.43681926 0.36502009 -0.82216134
vn -0.57185099 -0.59525568 0.56449722
vn 0.54555163 -0.60005606 -0.58506935
vn -0.71545572 0.62916665 0.30376377
vn 0.61129704 0.63594395 0.47105331
vn 0.26602649 0.13644460 -0.95426033
vn -0.57351147 -0.59688550 -0.56108137
vn -0.71787229 0.63488307 -0.28562715
vn -0.42724249 0.35001822 0.83363727
f 5//5 2//2 1//1
f 8//8 1//1 2//2
f 8//8 6//6 3//3
f 8//8 2//2 6//6
f 9//9 6//6 4//4
f 9//9 4//4 3//3
f 9//9 3//3 6//6
f 10//10 4//4 6//6
f 10//10 5//5 7//7
f 10//10 6//6 2//2
f 10//10 2//2 5//5
f 11//11 3//3 4//4
f 11//11 10//10 7//7
f 11//11 4//4 10//10
f 11//11 8//8 3//3
f 11//11 7//7 8//8
f 12//12 7//7 5//5
f 12//12 5//5 1//1
f 12//12 8//8 7//7
f 12//12 1//1 8//8

