# https://github.com/mikedh/trimesh
v 0.02419173 -0.05788796 0.01933015
v 0.02436632 -0.07373123 0.01914769
v 0.02490343 -0.05717659 -0.01818255
v 0.01443571 -0.05826892 -0.01962044
v 0.01443571 -0.07355594 0.01933077
v 0.02456325 -0.07392810 -0.01890779
v 0.01443571 -0.05727199 0.01846090
v 0.02483209 -0.05724775 0.01839446
v 0.01443571 -0.05850279 0.01974545
v 0.02426773 -0.05781200 -0.01926777
v 0.01443571 -0.07363267 -0.01926777
v 0.01443353 -0.05721734 -0.01830943
f 6 2 5
f 8 1 2
f 8 7 1
f 8 3 7
f 8 6 3
f 8 2 6
f 9 5 2
f 9 2 1
f 9 1 7
f 10 6 4
f 10 3 6
f 11 6 5
f 11 4 6
f 12 7 3
f 12 4 11
f 12 11 5
f 12 9 7
f 12 5 9
f 12 10 4
f 12 3 10

