# https://github.com/mikedh/trimesh

o mesh37
v -0.00864227 0.05708010 -0.01750000
v -0.00864227 -0.05707970 -0.01750000
v -0.00864227 -0.05707970 0.01750000
v -0.00864227 0.05708010 0.01750000
v -0.02500027 -0.05707970 -0.01750000
v -0.02500027 -0.05707970 0.01750000
v -0.00614227 -0.05957970 0.02000000
v -0.00614227 0.05958010 0.02000000
v -0.00663027 0.05909310 0.01995200
v -0.00663027 -0.05909200 0.01995200
v -0.00709927 0.05862410 0.01980970
v -0.00753127 0.05819110 0.01957870
v -0.00753127 -0.05819080 0.01957870
v -0.00791027 0.05781310 0.01926780
v -0.00822127 0.05750210 0.01888890
v -0.00822127 -0.05750110 0.01888890
v -0.00834727 -0.05737490 0.01867850
v -0.00834727 0.05737610 0.01867850
v -0.00845227 -0.05727000 0.01845670
v -0.00853527 -0.05718740 0.01822570
v -0.00845227 0.05727110 0.01845670
v -0.00853527 0.05718810 0.01822570
v -0.00859427 -0.05712780 0.01798770
v -0.00863027 -0.05709180 0.01774500
v -0.00859427 0.05712810 0.01798770
v -0.00863027 0.05709210 0.01774500
v -0.00791027 -0.05781200 0.01926780
v -0.00709927 -0.05862300 0.01980970
v -0.02250027 0.05958010 0.02000000
v -0.02298727 0.05909310 0.01995200
v -0.02345627 0.05862410 0.01980970
v -0.02388927 0.05819110 0.01957870
v -0.02426827 0.05781310 0.01926780
v -0.02457827 0.05750210 0.01888890
v -0.02470527 0.05737610 0.01867850
v -0.02480927 0.05727110 0.01845670
v -0.02489227 0.05718810 0.01822570
v -0.02495227 0.05712810 0.01798770
v -0.02498827 0.05709210 0.01774500
v -0.02500027 0.05708010 0.01750000
v -0.02498827 -0.05709180 0.01774500
v -0.02495227 -0.05712780 0.01798770
v -0.02489227 -0.05718740 0.01822570
v -0.02480927 -0.05727000 0.01845670
v -0.02470527 -0.05737490 0.01867850
v -0.02457827 -0.05750110 0.01888890
v -0.02426827 -0.05781200 0.01926780
v -0.02388927 -0.05819080 0.01957870
v -0.02345627 -0.05862300 0.01980970
v -0.02298727 -0.05909200 0.01995200
v -0.02250027 -0.05957970 0.02000000
v -0.02498827 -0.07435286 0.01774500
v -0.02495227 -0.07431686 0.01798770
v -0.02500027 -0.07436490 0.01750000
v -0.02489227 -0.07425725 0.01822570
v -0.02480927 -0.07417460 0.01845670
v -0.02470527 -0.07406970 0.01867850
v -0.02457827 -0.07394358 0.01888890
v -0.02426827 -0.07363267 0.01926780
v -0.02388927 -0.07325383 0.01957870
v -0.02345627 -0.07282161 0.01980970
v -0.02298727 -0.07235263 0.01995200
v -0.02250027 -0.07186490 0.02000000
v -0.02500027 -0.07436490 -0.01750000
v 0.02498773 -0.07435286 0.01774500
v 0.02495173 -0.07431686 0.01798770
v 0.02499973 -0.07436490 0.01750000
v 0.02489273 -0.07425725 0.01822570
v 0.02480973 -0.07417460 0.01845670
v 0.02470473 -0.07406970 0.01867850
v 0.02457873 -0.07394358 0.01888890
v 0.02426773 -0.07363267 0.01926780
v 0.02388873 -0.07325383 0.01957870
v 0.02345673 -0.07282161 0.01980970
v 0.02298773 -0.07235263 0.01995200
v 0.02249973 -0.07186490 0.02000000
v -0.02250027 -0.05957970 -0.02000000
v -0.02298727 -0.05909200 -0.01995197
v -0.00663027 -0.05909200 -0.01995197
v -0.02345627 -0.05862300 -0.01980970
v -0.00709927 -0.05862300 -0.01980970
v -0.02388927 -0.05819080 -0.01957868
v -0.00753127 -0.05819080 -0.01957868
v -0.02426827 -0.05781200 -0.01926777
v -0.00791027 -0.05781200 -0.01926777
v -0.02457827 -0.05750110 -0.01888893
v -0.00822127 -0.05750110 -0.01888893
v -0.00845227 -0.05727000 -0.01845671
v -0.00834727 -0.05737490 -0.01867849
v -0.02470527 -0.05737490 -0.01867849
v -0.02480927 -0.05727000 -0.01845671
v -0.00859427 -0.05712780 -0.01798773
v -0.00853527 -0.05718740 -0.01822571
v -0.02489227 -0.05718740 -0.01822571
v -0.02495227 -0.05712780 -0.01798773
v -0.00863027 -0.05709180 -0.01774504
v -0.02498827 -0.05709180 -0.01774504
v -0.00614227 -0.05957970 -0.02000000
v -0.00863027 0.05709210 -0.01774504
v -0.00859427 0.05712810 -0.01798773
v -0.00853527 0.05718810 -0.01822571
v -0.00834727 0.05737610 -0.01867849
v -0.00845227 0.05727110 -0.01845671
v -0.00791027 0.05781310 -0.01926777
v -0.00709927 0.05862410 -0.01980970
v -0.00614227 0.05958010 -0.02000000
v -0.00663027 0.05909310 -0.01995197
v -0.00753127 0.05819110 -0.01957868
v -0.00822127 0.05750210 -0.01888893
v -0.02500027 0.05708010 -0.01750000
v -0.02298727 0.07235310 0.01995200
v -0.02345627 0.07282210 0.01980970
v -0.02388927 0.07325410 0.01957870
v -0.02426827 0.07363310 0.01926780
v -0.02457827 0.07394410 0.01888890
v -0.02470527 0.07407010 0.01867850
v -0.02489227 0.07425810 0.01822570
v -0.02480927 0.07417510 0.01845670
v -0.02498827 0.07435310 0.01774500
v -0.02495227 0.07431710 0.01798770
v -0.02500027 0.07436510 0.01750000
v -0.02250027 0.07186510 0.02000000
v -0.02498827 0.05709210 -0.01774504
v -0.02495227 0.05712810 -0.01798773
v -0.02489227 0.05718810 -0.01822571
v -0.02480927 0.05727110 -0.01845671
v -0.02470527 0.05737610 -0.01867849
v -0.02457827 0.05750210 -0.01888893
v -0.02426827 0.05781310 -0.01926777
v -0.02388927 0.05819110 -0.01957868
v -0.02345627 0.05862410 -0.01980970
v -0.02298727 0.05909310 -0.01995197
v -0.02250027 0.05958010 -0.02000000
v -0.02500027 0.07436510 -0.01750000
v 0.02298773 0.07235310 0.01995200
v 0.02345673 0.07282210 0.01980970
v 0.02388873 0.07325410 0.01957870
v 0.02426773 0.07363310 0.01926780
v 0.02457873 0.07394410 0.01888890
v 0.02470473 0.07407010 0.01867850
v 0.02480973 0.07417510 0.01845670
v 0.02489273 0.07425810 0.01822570
v 0.02495173 0.07431710 0.01798770
v 0.02498773 0.07435310 0.01774500
v 0.02499973 0.07436510 0.01750000
v 0.02249973 0.07186510 0.02000000
v -0.02498827 0.07435310 -0.01774504
v -0.02495227 0.07431710 -0.01798773
v -0.02489227 0.07425810 -0.01822571
v -0.02480927 0.07417510 -0.01845671
v -0.02470527 0.07407010 -0.01867849
v -0.02457827 0.07394410 -0.01888893
v -0.02426827 0.07363310 -0.01926777
v -0.02388927 0.07325410 -0.01957868
v -0.02345627 0.07282210 -0.01980970
v -0.02298727 0.07235310 -0.01995197
v -0.02250027 0.07186510 -0.02000000
v 0.02499973 0.07436510 -0.01750000
v 0.02298773 0.05909310 0.01995200
v 0.02345673 0.05862410 0.01980970
v 0.02388873 0.05819110 0.01957870
v 0.02426773 0.05781310 0.01926780
v 0.02457873 0.05750210 0.01888890
v 0.02470473 0.05737610 0.01867850
v 0.02480973 0.05727110 0.01845670
v 0.02489273 0.05718810 0.01822570
v 0.02495173 0.05712810 0.01798770
v 0.02498773 0.05709210 0.01774500
v 0.02499973 0.05708010 0.01750000
v 0.02249973 0.05958010 0.02000000
v -0.02298727 -0.07235263 -0.01995197
v -0.02345627 -0.07282161 -0.01980970
v -0.02426827 -0.07363267 -0.01926777
v -0.02470527 -0.07406970 -0.01867849
v -0.02457827 -0.07394358 -0.01888893
v -0.02480927 -0.07417460 -0.01845671
v -0.02489227 -0.07425725 -0.01822571
v -0.02495227 -0.07431686 -0.01798773
v -0.02498827 -0.07435286 -0.01774504
v -0.02388927 -0.07325383 -0.01957868
v -0.02250027 -0.07186490 -0.02000000
v 0.02499973 -0.07436490 -0.01750000
v 0.02498773 -0.05709180 0.01774500
v 0.02495173 -0.05712780 0.01798770
v 0.02499973 -0.05707970 0.01750000
v 0.02489273 -0.05718740 0.01822570
v 0.02480973 -0.05727000 0.01845670
v 0.02470473 -0.05737490 0.01867850
v 0.02457873 -0.05750110 0.01888890
v 0.02426773 -0.05781200 0.01926780
v 0.02388873 -0.05819080 0.01957870
v 0.02345673 -0.05862300 0.01980970
v 0.02298773 -0.05909200 0.01995200
v 0.02249973 -0.05957970 0.02000000
v 0.00614273 -0.05957970 0.02000000
v 0.00614273 0.05958010 0.02000000
v 0.00663073 0.05909310 0.01995200
v 0.00709973 0.05862410 0.01980970
v 0.00753173 0.05819110 0.01957870
v 0.00791073 0.05781310 0.01926780
v 0.00822073 0.05750210 0.01888890
v 0.00845273 0.05727110 0.01845670
v 0.00834773 0.05737610 0.01867850
v 0.00859473 0.05712810 0.01798770
v 0.00853473 0.05718810 0.01822570
v 0.00864273 0.05708010 0.01750000
v 0.00863073 0.05709210 0.01774500
v 0.02499973 0.05708010 -0.01750000
v 0.02498773 0.07435310 -0.01774504
v 0.02495173 0.07431710 -0.01798773
v 0.02489273 0.07425810 -0.01822571
v 0.02480973 0.07417510 -0.01845671
v 0.02470473 0.07407010 -0.01867849
v 0.02457873 0.07394410 -0.01888893
v 0.02426773 0.07363310 -0.01926777
v 0.02388873 0.07325410 -0.01957868
v 0.02345673 0.07282210 -0.01980970
v 0.02298773 0.07235310 -0.01995197
v 0.02249973 0.07186510 -0.02000000
v 0.00864273 -0.05707970 0.01750000
v 0.00863073 -0.05709180 0.01774500
v 0.00859473 -0.05712780 0.01798770
v 0.00853473 -0.05718740 0.01822570
v 0.00845273 -0.05727000 0.01845670
v 0.00834773 -0.05737490 0.01867850
v 0.00822073 -0.05750110 0.01888890
v 0.00791073 -0.05781200 0.01926780
v 0.00753173 -0.05819080 0.01957870
v 0.00709973 -0.05862300 0.01980970
v 0.00663073 -0.05909200 0.01995200
v 0.02499973 -0.05707970 -0.01750000
v 0.02298773 -0.07235263 -0.01995197
v 0.02388873 -0.07325383 -0.01957868
v 0.02457873 -0.07394358 -0.01888893
v 0.02470473 -0.07406970 -0.01867849
v 0.02480973 -0.07417460 -0.01845671
v 0.02489273 -0.07425725 -0.01822571
v 0.02495173 -0.07431686 -0.01798773
v 0.02498773 -0.07435286 -0.01774504
v 0.02426773 -0.07363267 -0.01926777
v 0.02345673 -0.07282161 -0.01980970
v 0.02249973 -0.07186490 -0.02000000
v 0.00864273 -0.05707970 -0.01750000
v 0.00864273 0.05708010 -0.01750000
v 0.02498773 0.05709210 -0.01774504
v 0.02495173 0.05712810 -0.01798773
v 0.02489273 0.05718810 -0.01822571
v 0.02480973 0.05727110 -0.01845671
v 0.02470473 0.05737610 -0.01867849
v 0.02457873 0.05750210 -0.01888893
v 0.02426773 0.05781310 -0.01926777
v 0.02388873 0.05819110 -0.01957868
v 0.02345673 0.05862410 -0.01980970
v 0.02298773 0.05909310 -0.01995197
v 0.02249973 0.05958010 -0.02000000
v 0.00863073 0.05709210 -0.01774504
v 0.00859473 0.05712810 -0.01798773
v 0.00853473 0.05718810 -0.01822571
v 0.00845273 0.05727110 -0.01845671
v 0.00834773 0.05737610 -0.01867849
v 0.00822073 0.05750210 -0.01888893
v 0.00791073 0.05781310 -0.01926777
v 0.00753173 0.05819110 -0.01957868
v 0.00709973 0.05862410 -0.01980970
v 0.00663073 0.05909310 -0.01995197
v 0.00614273 0.05958010 -0.02000000
v 0.00614273 -0.05957970 -0.02000000
v 0.02249973 -0.05957970 -0.02000000
v 0.02298773 -0.05909200 -0.01995197
v 0.02345673 -0.05862300 -0.01980970
v 0.02388873 -0.05819080 -0.01957868
v 0.02426773 -0.05781200 -0.01926777
v 0.02470473 -0.05737490 -0.01867849
v 0.02457873 -0.05750110 -0.01888893
v 0.02480973 -0.05727000 -0.01845671
v 0.02489273 -0.05718740 -0.01822571
v 0.02495173 -0.05712780 -0.01798773
v 0.02498773 -0.05709180 -0.01774504
v 0.00663073 -0.05909200 -0.01995197
v 0.00709973 -0.05862300 -0.01980970
v 0.00753173 -0.05819080 -0.01957868
v 0.00791073 -0.05781200 -0.01926777
v 0.00822073 -0.05750110 -0.01888893
v 0.00845273 -0.05727000 -0.01845671
v 0.00834773 -0.05737490 -0.01867849
v 0.00859473 -0.05712780 -0.01798773
v 0.00853473 -0.05718740 -0.01822571
v 0.00863073 -0.05709180 -0.01774504
vn -0.70692817 -0.70639611 -0.03545540
vn -0.70697211 0.70634477 -0.03560204
vn -0.70697195 0.70634464 0.03560783
vn -0.70692801 -0.70639599 0.03546118
vn -0.70665056 0.70673669 -0.03417965
vn -0.70665042 0.70673656 0.03418513
vn -0.01228186 0.01227980 0.99984917
vn -0.01229305 -0.01228618 0.99984895
vn -0.07418159 -0.07428831 0.99447390
vn -0.07419264 0.07422461 0.99447783
vn -0.17500120 -0.17504054 0.96888358
vn -0.27970775 -0.27915454 0.91860564
vn -0.27955109 0.27944033 0.91856643
vn -0.38782361 -0.38844830 0.83588323
vn -0.48841878 -0.48841878 0.72311423
vn -0.48831620 0.48844375 0.72316665
vn -0.55781557 0.55721063 0.61510821
vn -0.55772972 -0.55744923 0.61496986
vn -0.60536047 0.60449595 0.51780629
vn -0.64659821 0.64709831 0.40394867
vn -0.60514608 -0.60433359 0.51824621
vn -0.64645350 -0.64664966 0.40489761
vn -0.67997054 0.67857231 0.27781231
vn -0.70016430 0.69976972 0.14174727
vn -0.68009430 -0.67820702 0.27840076
vn -0.70022030 -0.69974172 0.14160882
vn -0.38789590 0.38801059 0.83605296
vn -0.17507167 0.17507955 0.96886380
vn -0.03685659 -0.03685659 0.99864067
vn -0.12318207 -0.12318207 0.98470927
vn -0.22297217 -0.22297217 0.94898199
vn -0.32549744 -0.32613114 0.88751896
vn -0.43047254 -0.42968268 0.79376709
vn -0.51278467 -0.51526290 0.68669938
vn -0.57183517 -0.57036170 0.58965419
vn -0.61464186 -0.61580659 0.49294790
vn -0.65233637 -0.65268392 0.38530632
vn -0.68186404 -0.68248616 0.26319968
vn -0.70052379 -0.70097407 0.13379752
vn -0.70669685 -0.70669685 0.03404591
vn -0.70056179 0.70090841 0.13394244
vn -0.68207131 0.68244696 0.26276391
vn -0.65245193 0.65310952 0.38438840
vn -0.61462096 0.61629065 0.49236868
vn -0.57172816 0.57046394 0.58965906
vn -0.51282415 0.51500900 0.68686034
vn -0.43035820 0.42969876 0.79382038
vn -0.32562172 0.32571353 0.88762672
vn -0.22292283 0.22331705 0.94891249
vn -0.12317078 0.12317571 0.98471148
vn -0.03686767 0.03679292 0.99864261
vn -0.70079340 -0.70075270 0.13354500
vn -0.68231884 -0.68208126 0.26307062
vn -0.70667828 -0.70671274 0.03410159
vn -0.65268227 -0.65300404 0.38417650
vn -0.61491309 -0.61575112 0.49267885
vn -0.57201078 -0.57044797 0.58940035
vn -0.51315105 -0.51453761 0.68696947
vn -0.43035341 -0.42968975 0.79382785
vn -0.32562257 -0.32568994 0.88763506
vn -0.22292507 -0.22330896 0.94891386
vn -0.12316941 -0.12318081 0.98471102
vn -0.03686815 -0.03679019 0.99864269
vn -0.70667841 -0.70671287 -0.03409613
vn 0.70079340 -0.70075270 0.13354500
vn 0.68222416 -0.68259710 0.26197593
vn 0.70667828 -0.70671274 0.03410159
vn 0.65372475 -0.65277690 0.38278750
vn 0.61482185 -0.61525878 0.49340726
vn 0.57086010 -0.57104086 0.58994159
vn 0.51441310 -0.51422778 0.68625721
vn 0.42969833 -0.42975099 0.79414950
vn 0.32566848 -0.32577933 0.88758541
vn 0.22335623 -0.22324718 0.94882701
vn 0.12316035 -0.12316470 0.98471416
vn 0.03677722 -0.03680600 0.99864546
vn -0.03689059 0.03681578 -0.99864092
vn -0.12315625 0.12316119 -0.98471511
vn -0.07420783 0.07423982 -0.99447556
vn -0.22292897 0.22332320 -0.94890960
vn -0.17505457 0.17506245 -0.96886998
vn -0.32563288 0.32572469 -0.88761853
vn -0.27956740 0.27945664 -0.91855651
vn -0.43033143 0.42967195 -0.79384941
vn -0.38788785 0.38800254 -0.83606043
vn -0.51284110 0.51502460 -0.68683598
vn -0.48830446 0.48843201 -0.72318250
vn -0.60535042 0.60448677 -0.51782875
vn -0.55783564 0.55723104 -0.61507151
vn -0.57173176 0.57046711 -0.58965250
vn -0.61461552 0.61628501 -0.49238252
vn -0.67996679 0.67856861 -0.27783053
vn -0.64659500 0.64709520 -0.40395879
vn -0.65244787 0.65310541 -0.38440227
vn -0.68206828 0.68244412 -0.26277914
vn -0.70016443 0.69976978 -0.14174635
vn -0.70056190 0.70090867 -0.13394053
vn -0.01228951 0.01228745 -0.99984898
vn -0.70022041 -0.69974179 -0.14160792
vn -0.68009055 -0.67820328 -0.27841903
vn -0.64645028 -0.64664654 -0.40490775
vn -0.55774980 -0.55746960 -0.61493317
vn -0.60513603 -0.60432439 -0.51826867
vn -0.38781556 -0.38844025 -0.83589070
vn -0.17498410 -0.17502344 -0.96888976
vn -0.01230071 -0.01229383 -0.99984877
vn -0.07419677 -0.07430356 -0.99447163
vn -0.27972407 -0.27917084 -0.91859572
vn -0.48840704 -0.48840704 -0.72313009
vn -0.70669698 -0.70669698 -0.03404045
vn -0.12316594 0.12317299 0.98471243
vn -0.22291049 0.22340343 0.94889505
vn -0.32565281 0.32560932 0.88765355
vn -0.43033733 0.42962101 0.79387377
vn -0.51311960 0.51469148 0.68687768
vn -0.57207911 0.57033554 0.58944284
vn -0.65236423 0.65363385 0.38364527
vn -0.61492521 0.61532633 0.49319417
vn -0.70077862 0.70077862 0.13348652
vn -0.68263359 0.68202308 0.26240406
vn -0.70669685 0.70669685 0.03404591
vn -0.03687242 0.03676569 0.99864343
vn -0.70052390 -0.70097432 -0.13379563
vn -0.68186100 -0.68248331 -0.26321493
vn -0.65233231 -0.65267977 -0.38532023
vn -0.61463642 -0.61580094 -0.49296173
vn -0.57183877 -0.57036487 -0.58964764
vn -0.51280163 -0.51527846 -0.68667503
vn -0.43044577 -0.42965586 -0.79379612
vn -0.32550861 -0.32614230 -0.88751076
vn -0.22297831 -0.22297831 -0.94897911
vn -0.12316756 -0.12316756 -0.98471290
vn -0.03687949 -0.03687949 -0.99863898
vn -0.70669698 0.70669698 -0.03404045
vn 0.12315689 0.12315689 0.98471557
vn 0.22334163 0.22334163 0.94880822
vn 0.32569875 0.32569875 0.88760388
vn 0.42968223 0.42968223 0.79419542
vn 0.51438157 0.51438157 0.68616558
vn 0.57092856 0.57092856 0.58998403
vn 0.61483382 0.61483382 0.49392180
vn 0.65340588 0.65340588 0.38225842
vn 0.68253910 0.68253910 0.26130588
vn 0.70077862 0.70077862 0.13348652
vn 0.70669685 0.70669685 0.03404591
vn 0.03678149 0.03678149 0.99864621
vn -0.70077881 0.70077881 -0.13348454
vn -0.68263067 0.68202013 -0.26241934
vn -0.65236009 0.65362983 -0.38365916
vn -0.61491970 0.61532082 -0.49320793
vn -0.57208240 0.57033874 -0.58943655
vn -0.51313613 0.51470782 -0.68685310
vn -0.43031056 0.42959419 -0.79390280
vn -0.32566397 0.32562048 -0.88764536
vn -0.22291663 0.22340959 -0.94889216
vn -0.12315141 0.12315847 -0.98471606
vn -0.03689534 0.03678854 -0.99864175
vn 0.70669698 0.70669698 -0.03404045
vn 0.12317299 -0.12316594 0.98471243
vn 0.22340343 -0.22291049 0.94889505
vn 0.32554321 -0.32622039 0.88746937
vn 0.42981746 -0.42974392 0.79408886
vn 0.51404736 -0.51495140 0.68598860
vn 0.57068367 -0.57095434 0.59019598
vn 0.61455058 -0.61531422 0.49367601
vn 0.65338045 -0.65245840 0.38391669
vn 0.68176895 -0.68300159 0.26210670
vn 0.70052377 -0.70097408 0.13379754
vn 0.70669685 -0.70669685 0.03404591
vn 0.03676569 -0.03687242 0.99864343
vn -0.12315489 -0.12316629 -0.98471465
vn -0.22293121 -0.22331511 -0.94891097
vn -0.43032664 -0.42966294 -0.79385688
vn -0.57201408 -0.57045117 -0.58939406
vn -0.51316757 -0.51455396 -0.68694488
vn -0.61490758 -0.61574562 -0.49269261
vn -0.65267814 -0.65299996 -0.38419045
vn -0.68231589 -0.68207831 -0.26308594
vn -0.70079358 -0.70075290 -0.13354301
vn -0.32563374 -0.32570110 -0.88762687
vn -0.03689106 -0.03681306 -0.99864100
vn 0.70667841 -0.70671287 -0.03409613
vn 0.70056178 0.70090842 0.13394246
vn 0.68197634 0.68296251 0.26166866
vn 0.70665042 0.70673656 0.03418513
vn 0.65349478 0.65288277 0.38299955
vn 0.61452987 0.61579848 0.49309763
vn 0.57057637 0.57105629 0.59020109
vn 0.51408701 0.51469765 0.68614931
vn 0.42970312 0.42976001 0.79414203
vn 0.32566763 0.32580293 0.88757706
vn 0.22335399 0.22325527 0.94882563
vn 0.12316171 0.12315960 0.98471463
vn 0.03677675 0.03680873 0.99864538
vn 0.01228186 0.01227980 0.99984917
vn 0.01229305 -0.01228618 0.99984895
vn 0.07418159 -0.07428831 0.99447390
vn 0.17500120 -0.17504054 0.96888358
vn 0.27970775 -0.27915454 0.91860564
vn 0.38791554 -0.38864155 0.83575073
vn 0.48886021 -0.48787276 0.72318453
vn 0.60526377 -0.60490733 0.51743878
vn 0.55645760 -0.55759942 0.61598525
vn 0.67918115 -0.67851322 0.27987992
vn 0.64750661 -0.64582002 0.40453887
vn 0.70692802 -0.70639598 0.03546120
vn 0.70022031 -0.69974171 0.14160879
vn 0.70669698 -0.70669698 -0.03404045
vn 0.70077881 0.70077881 -0.13348454
vn 0.68253618 0.68253618 -0.26132111
vn 0.65340185 0.65340185 -0.38227221
vn 0.61482829 0.61482829 -0.49393556
vn 0.57093177 0.57093177 -0.58997782
vn 0.51439794 0.51439794 -0.68614104
vn 0.42965542 0.42965542 -0.79422443
vn 0.32570992 0.32570992 -0.88759568
vn 0.22334778 0.22334778 -0.94880532
vn 0.12314235 0.12314235 -0.98471921
vn 0.03680435 0.03680435 -0.99864452
vn 0.70697196 0.70634462 0.03560785
vn 0.70016432 0.69976971 0.14174725
vn 0.67905816 0.67887928 0.27929007
vn 0.64765024 0.64626755 0.40359313
vn 0.60547861 0.60507015 0.51699687
vn 0.55654325 0.55736063 0.61612397
vn 0.48875798 0.48789808 0.72323655
vn 0.38798789 0.38820390 0.83592053
vn 0.27955109 0.27944033 0.91856643
vn 0.17507167 0.17507955 0.96886380
vn 0.07419264 0.07422461 0.99447783
vn 0.70665056 0.70673669 -0.03417965
vn 0.12314582 -0.12315017 -0.98471780
vn 0.32567965 -0.32579050 -0.88757722
vn 0.51442946 -0.51424416 -0.68623267
vn 0.57086331 -0.57104407 -0.58993538
vn 0.61481633 -0.61525326 -0.49342103
vn 0.65372072 -0.65277281 -0.38280135
vn 0.68222123 -0.68259418 -0.26199119
vn 0.70079358 -0.70075290 -0.13354301
vn 0.42967152 -0.42972419 -0.79417851
vn 0.22336239 -0.22325334 -0.94882411
vn 0.03680008 -0.03682887 -0.99864377
vn 0.70697212 0.70634475 -0.03560206
vn 0.70692819 -0.70639610 -0.03545543
vn 0.70052389 -0.70097433 -0.13379565
vn 0.68176592 -0.68299878 -0.26212190
vn 0.65337650 -0.65245423 -0.38393049
vn 0.61454513 -0.61530856 -0.49368985
vn 0.57068719 -0.57095751 -0.59018951
vn 0.51406417 -0.51496701 -0.68596429
vn 0.42979066 -0.42971712 -0.79411787
vn 0.32555437 -0.32623155 -0.88746117
vn 0.22340959 -0.22291663 -0.94889216
vn 0.12315847 -0.12315141 -0.98471606
vn 0.03678854 -0.03689534 -0.99864175
vn 0.70022043 -0.69974178 -0.14160789
vn 0.67917730 -0.67850950 -0.27989829
vn 0.64750338 -0.64581687 -0.40454907
vn 0.60525373 -0.60489814 -0.51746126
vn 0.55647785 -0.55761978 -0.61594852
vn 0.48884850 -0.48786101 -0.72320037
vn 0.38790748 -0.38863349 -0.83575821
vn 0.27972407 -0.27917084 -0.91859572
vn 0.17498410 -0.17502344 -0.96888976
vn 0.07419677 -0.07430356 -0.99447163
vn 0.01230071 -0.01229383 -0.99984877
vn 0.01228951 0.01228745 -0.99984898
vn 0.03679961 0.03683160 -0.99864369
vn 0.12314718 0.12314507 -0.98471827
vn 0.22336015 0.22326142 -0.94882273
vn 0.32567880 0.32581410 -0.88756887
vn 0.42967631 0.42973320 -0.79417104
vn 0.57057988 0.57105947 -0.59019461
vn 0.51410381 0.51471328 -0.68612499
vn 0.61452442 0.61579283 -0.49311148
vn 0.65349083 0.65287865 -0.38301332
vn 0.68197332 0.68295971 -0.26168383
vn 0.70056188 0.70090868 -0.13394055
vn 0.07420783 0.07423982 -0.99447556
vn 0.17505457 0.17506245 -0.96886998
vn 0.27956740 0.27945664 -0.91855651
vn 0.38797984 0.38819584 -0.83592801
vn 0.48874627 0.48788634 -0.72325238
vn 0.60546858 0.60506098 -0.51701935
vn 0.55656350 0.55738102 -0.61608723
vn 0.67905430 0.67887559 -0.27930840
vn 0.64764703 0.64626441 -0.40360331
vn 0.70016444 0.69976977 -0.14174633
f 1//1 2//2 3//3
f 3//3 4//4 1//1
f 2//2 5//5 6//6
f 6//6 3//3 2//2
f 7//7 8//8 9//9
f 10//10 9//9 11//11
f 11//11 12//12 13//13
f 13//13 12//12 14//14
f 14//14 15//15 16//16
f 17//17 15//15 18//18
f 18//18 19//19 17//17
f 17//17 16//16 15//15
f 20//20 21//21 22//22
f 22//22 23//23 20//20
f 20//20 19//19 21//21
f 24//24 25//25 26//26
f 26//26 3//3 24//24
f 26//26 4//4 3//3
f 24//24 23//23 25//25
f 22//22 25//25 23//23
f 18//18 21//21 19//19
f 16//16 27//27 14//14
f 14//14 27//27 13//13
f 13//13 28//28 11//11
f 11//11 28//28 10//10
f 9//9 10//10 7//7
f 29//29 30//30 9//9
f 30//30 31//31 11//11
f 31//31 32//32 12//12
f 32//32 33//33 14//14
f 33//33 34//34 15//15
f 21//21 18//18 34//34
f 34//34 35//35 21//21
f 35//35 36//36 21//21
f 25//25 22//22 36//36
f 36//36 37//37 25//25
f 37//37 38//38 25//25
f 4//4 26//26 38//38
f 38//38 39//39 4//4
f 39//39 40//40 4//4
f 26//26 25//25 38//38
f 22//22 21//21 36//36
f 18//18 15//15 34//34
f 15//15 14//14 33//33
f 14//14 12//12 32//32
f 12//12 11//11 31//31
f 11//11 9//9 30//30
f 9//9 8//8 29//29
f 3//3 41//41 42//42
f 3//3 6//6 41//41
f 42//42 23//23 24//24
f 23//23 43//43 44//44
f 23//23 42//42 43//43
f 44//44 19//19 20//20
f 19//19 45//45 46//46
f 19//19 44//44 45//45
f 46//46 16//16 17//17
f 16//16 46//46 47//47
f 48//48 13//13 27//27
f 13//13 48//48 49//49
f 50//50 10//10 28//28
f 10//10 50//50 51//51
f 51//51 7//7 10//10
f 28//28 49//49 50//50
f 49//49 28//28 13//13
f 27//27 47//47 48//48
f 47//47 27//27 16//16
f 46//46 17//17 19//19
f 44//44 20//20 23//23
f 42//42 24//24 3//3
f 41//41 52//52 53//53
f 41//41 54//54 52//52
f 53//53 42//42 41//41
f 55//55 56//56 44//44
f 43//43 53//53 55//55
f 44//44 43//43 55//55
f 57//57 58//58 46//46
f 46//46 45//45 57//57
f 44//44 56//56 57//57
f 46//46 58//58 59//59
f 59//59 60//60 48//48
f 48//48 60//60 61//61
f 61//61 62//62 50//50
f 50//50 62//62 63//63
f 63//63 51//51 50//50
f 50//50 49//49 61//61
f 61//61 49//49 48//48
f 48//48 47//47 59//59
f 59//59 47//47 46//46
f 45//45 44//44 57//57
f 43//43 42//42 53//53
f 41//41 6//6 54//54
f 5//5 64//64 54//54
f 54//54 6//6 5//5
f 52//52 65//65 66//66
f 52//52 67//67 65//65
f 66//66 53//53 52//52
f 55//55 68//68 69//69
f 55//55 66//66 68//68
f 69//69 56//56 55//55
f 57//57 70//70 71//71
f 57//57 69//69 70//70
f 71//71 58//58 57//57
f 58//58 71//71 72//72
f 72//72 73//73 60//60
f 60//60 73//73 74//74
f 61//61 74//74 75//75
f 62//62 75//75 76//76
f 76//76 63//63 62//62
f 75//75 62//62 61//61
f 74//74 61//61 60//60
f 60//60 59//59 72//72
f 72//72 59//59 58//58
f 57//57 56//56 69//69
f 55//55 53//53 66//66
f 52//52 54//54 67//67
f 77//77 78//78 79//79
f 78//78 80//80 81//81
f 80//80 82//82 83//83
f 82//82 84//84 85//85
f 84//84 86//86 87//87
f 88//88 89//89 86//86
f 86//86 90//90 88//88
f 90//90 91//91 88//88
f 92//92 93//93 91//91
f 91//91 94//94 92//92
f 94//94 95//95 92//92
f 2//2 96//96 95//95
f 95//95 97//97 2//2
f 97//97 5//5 2//2
f 96//96 92//92 95//95
f 93//93 88//88 91//91
f 89//89 87//87 86//86
f 87//87 85//85 84//84
f 85//85 83//83 82//82
f 83//83 81//81 80//80
f 81//81 79//79 78//78
f 79//79 98//98 77//77
f 99//99 92//92 96//96
f 96//96 1//1 99//99
f 99//99 100//100 92//92
f 101//101 88//88 93//93
f 93//93 100//100 101//101
f 93//93 92//92 100//100
f 102//102 87//87 89//89
f 89//89 103//103 102//102
f 89//89 88//88 103//103
f 104//104 85//85 87//87
f 83//83 85//85 104//104
f 105//105 81//81 83//83
f 79//79 81//81 105//105
f 106//106 98//98 79//79
f 79//79 107//107 106//106
f 105//105 107//107 79//79
f 83//83 108//108 105//105
f 104//104 108//108 83//83
f 87//87 109//109 104//104
f 102//102 109//109 87//87
f 101//101 103//103 88//88
f 96//96 2//2 1//1
f 110//110 1//1 4//4
f 4//4 40//40 110//110
f 111//111 30//30 29//29
f 112//112 31//31 30//30
f 113//113 32//32 31//31
f 114//114 33//33 32//32
f 115//115 34//34 33//33
f 35//35 34//34 115//115
f 116//116 36//36 35//35
f 115//115 116//116 35//35
f 117//117 37//37 36//36
f 117//117 38//38 37//37
f 36//36 118//118 117//117
f 119//119 39//39 38//38
f 38//38 120//120 119//119
f 121//121 40//40 39//39
f 119//119 121//121 39//39
f 117//117 120//120 38//38
f 116//116 118//118 36//36
f 33//33 114//114 115//115
f 32//32 113//113 114//114
f 31//31 112//112 113//113
f 30//30 111//111 112//112
f 29//29 122//122 111//111
f 1//1 123//123 124//124
f 1//1 110//110 123//123
f 124//124 100//100 99//99
f 100//100 125//125 126//126
f 100//100 124//124 125//125
f 126//126 103//103 101//101
f 103//103 127//127 128//128
f 103//103 126//126 127//127
f 128//128 109//109 102//102
f 129//129 104//104 109//109
f 104//104 129//129 130//130
f 108//108 130//130 131//131
f 105//105 131//131 132//132
f 133//133 106//106 107//107
f 107//107 132//132 133//133
f 132//132 107//107 105//105
f 131//131 105//105 108//108
f 130//130 108//108 104//104
f 109//109 128//128 129//129
f 128//128 102//102 103//103
f 126//126 101//101 100//100
f 124//124 99//99 1//1
f 134//134 110//110 40//40
f 40//40 121//121 134//134
f 135//135 111//111 122//122
f 136//136 112//112 111//111
f 137//137 113//113 112//112
f 138//138 114//114 113//113
f 139//139 115//115 114//114
f 140//140 116//116 115//115
f 140//140 118//118 116//116
f 115//115 139//139 140//140
f 117//117 118//118 141//141
f 141//141 142//142 117//117
f 143//143 120//120 117//117
f 119//119 120//120 143//143
f 144//144 121//121 119//119
f 143//143 144//144 119//119
f 144//144 145//145 121//121
f 142//142 143//143 117//117
f 140//140 141//141 118//118
f 114//114 138//138 139//139
f 113//113 137//137 138//138
f 112//112 136//136 137//137
f 111//111 135//135 136//136
f 122//122 146//146 135//135
f 123//123 147//147 148//148
f 123//123 134//134 147//147
f 148//148 124//124 123//123
f 149//149 150//150 126//126
f 126//126 125//125 149//149
f 124//124 148//148 149//149
f 127//127 151//151 152//152
f 152//152 128//128 127//127
f 126//126 150//150 151//151
f 152//152 153//153 129//129
f 129//129 153//153 154//154
f 130//130 154//154 155//155
f 131//131 155//155 156//156
f 156//156 157//157 133//133
f 133//133 132//132 156//156
f 156//156 132//132 131//131
f 155//155 131//131 130//130
f 154//154 130//130 129//129
f 129//129 128//128 152//152
f 127//127 126//126 151//151
f 125//125 124//124 149//149
f 123//123 110//110 134//134
f 158//158 134//134 121//121
f 121//121 145//145 158//158
f 159//159 135//135 146//146
f 160//160 136//136 135//135
f 161//161 137//137 136//136
f 162//162 138//138 137//137
f 163//163 139//139 138//138
f 164//164 140//140 139//139
f 139//139 163//163 164//164
f 165//165 141//141 140//140
f 142//142 141//141 165//165
f 165//165 166//166 142//142
f 167//167 143//143 142//142
f 144//144 143//143 167//167
f 167//167 168//168 144//144
f 169//169 145//145 144//144
f 168//168 169//169 144//144
f 166//166 167//167 142//142
f 164//164 165//165 140//140
f 138//138 162//162 163//163
f 137//137 161//161 162//162
f 136//136 160//160 161//161
f 135//135 159//159 160//160
f 146//146 170//170 159//159
f 171//171 78//78 77//77
f 80//80 78//78 171//171
f 82//82 80//80 172//172
f 173//173 84//84 82//82
f 86//86 84//84 173//173
f 174//174 90//90 86//86
f 174//174 91//91 90//90
f 86//86 175//175 174//174
f 94//94 91//91 176//176
f 176//176 177//177 94//94
f 178//178 95//95 94//94
f 179//179 97//97 95//95
f 95//95 178//178 179//179
f 64//64 5//5 97//97
f 179//179 64//64 97//97
f 177//177 178//178 94//94
f 174//174 176//176 91//91
f 173//173 175//175 86//86
f 82//82 180//180 173//173
f 172//172 180//180 82//82
f 171//171 172//172 80//80
f 77//77 181//181 171//171
f 64//64 182//182 67//67
f 67//67 54//54 64//64
f 183//183 184//184 66//66
f 66//66 65//65 183//183
f 67//67 185//185 183//183
f 68//68 186//186 187//187
f 187//187 69//69 68//68
f 66//66 184//184 186//186
f 188//188 189//189 71//71
f 70//70 187//187 188//188
f 71//71 70//70 188//188
f 71//71 189//189 190//190
f 190//190 191//191 73//73
f 191//191 192//192 74//74
f 74//74 192//192 193//193
f 75//75 193//193 194//194
f 194//194 76//76 75//75
f 193//193 75//75 74//74
f 74//74 73//73 191//191
f 73//73 72//72 190//190
f 190//190 72//72 71//71
f 70//70 69//69 187//187
f 68//68 66//66 186//186
f 65//65 67//67 183//183
f 8//8 7//7 195//195
f 76//76 194//194 195//195
f 195//195 7//7 76//76
f 122//122 29//29 8//8
f 146//146 122//122 196//196
f 8//8 196//196 122//122
f 63//63 76//76 7//7
f 195//195 196//196 8//8
f 196//196 170//170 146//146
f 7//7 51//51 63//63
f 170//170 196//196 197//197
f 159//159 197//197 198//198
f 160//160 198//198 199//199
f 200//200 162//162 161//161
f 162//162 200//200 201//201
f 202//202 164//164 163//163
f 202//202 165//165 164//164
f 163//163 201//201 203//203
f 204//204 166//166 165//165
f 204//204 167//167 166//166
f 165//165 202//202 205//205
f 206//206 168//168 167//167
f 206//206 169//169 168//168
f 167//167 204//204 207//207
f 167//167 207//207 206//206
f 165//165 205//205 204//204
f 163//163 203//203 202//202
f 201//201 163//163 162//162
f 161//161 199//199 200//200
f 199//199 161//161 160//160
f 198//198 160//160 159//159
f 197//197 159//159 170//170
f 208//208 158//158 145//145
f 145//145 169//169 208//208
f 209//209 210//210 148//148
f 148//148 147//147 209//209
f 134//134 158//158 209//209
f 211//211 212//212 150//150
f 150//150 149//149 211//211
f 148//148 210//210 211//211
f 213//213 214//214 152//152
f 152//152 151//151 213//213
f 150//150 212//212 213//213
f 152//152 214//214 215//215
f 153//153 215//215 216//216
f 154//154 216//216 217//217
f 217//217 218//218 156//156
f 156//156 218//218 219//219
f 219//219 157//157 156//156
f 156//156 155//155 217//217
f 217//217 155//155 154//154
f 216//216 154//154 153//153
f 215//215 153//153 152//152
f 151//151 150//150 213//213
f 149//149 148//148 211//211
f 147//147 134//134 209//209
f 220//220 221//221 184//184
f 184//184 183//183 220//220
f 183//183 185//185 220//220
f 222//222 223//223 187//187
f 187//187 186//186 222//222
f 186//186 184//184 222//222
f 224//224 225//225 189//189
f 189//189 188//188 224//224
f 188//188 187//187 224//224
f 190//190 189//189 226//226
f 227//227 228//228 191//191
f 228//228 229//229 192//192
f 193//193 192//192 229//229
f 194//194 193//193 230//230
f 230//230 195//195 194//194
f 229//229 230//230 193//193
f 192//192 191//191 228//228
f 191//191 190//190 227//227
f 226//226 227//227 190//190
f 225//225 226//226 189//189
f 223//223 224//224 187//187
f 221//221 222//222 184//184
f 185//185 67//67 182//182
f 182//182 231//231 185//185
f 232//232 171//171 181//181
f 172//172 171//171 232//232
f 233//233 180//180 172//172
f 173//173 180//180 233//233
f 234//234 175//175 173//173
f 235//235 174//174 175//175
f 175//175 234//234 235//235
f 236//236 176//176 174//174
f 177//177 176//176 236//236
f 236//236 237//237 177//177
f 238//238 178//178 177//177
f 239//239 179//179 178//178
f 239//239 64//64 179//179
f 178//178 238//238 239//239
f 239//239 182//182 64//64
f 237//237 238//238 177//177
f 235//235 236//236 174//174
f 173//173 240//240 234//234
f 233//233 240//240 173//173
f 172//172 241//241 233//233
f 232//232 241//241 172//172
f 181//181 242//242 232//232
f 196//196 195//195 230//230
f 197//197 230//230 229//229
f 198//198 229//229 228//228
f 228//228 227//227 200//200
f 200//200 227//227 226//226
f 203//203 226//226 225//225
f 225//225 202//202 203//203
f 225//225 224//224 202//202
f 205//205 224//224 223//223
f 223//223 204//204 205//205
f 223//223 222//222 204//204
f 207//207 222//222 221//221
f 221//221 206//206 207//207
f 207//207 204//204 222//222
f 221//221 220//220 206//206
f 205//205 202//202 224//224
f 203//203 201//201 226//226
f 226//226 201//201 200//200
f 200//200 199//199 228//228
f 228//228 199//199 198//198
f 229//229 198//198 197//197
f 230//230 197//197 196//196
f 243//243 244//244 206//206
f 206//206 220//220 243//243
f 244//244 208//208 169//169
f 169//169 206//206 244//244
f 209//209 245//245 246//246
f 209//209 208//208 245//245
f 246//246 210//210 209//209
f 247//247 248//248 212//212
f 212//212 211//211 247//247
f 210//210 246//246 247//247
f 249//249 250//250 214//214
f 214//214 213//213 249//249
f 212//212 248//248 249//249
f 214//214 250//250 251//251
f 215//215 251//251 252//252
f 216//216 252//252 253//253
f 217//217 253//253 254//254
f 218//218 254//254 255//255
f 255//255 219//219 218//218
f 254//254 218//218 217//217
f 253//253 217//217 216//216
f 252//252 216//216 215//215
f 251//251 215//215 214//214
f 213//213 212//212 249//249
f 211//211 210//210 247//247
f 209//209 158//158 208//208
f 244//244 256//256 246//246
f 246//246 245//245 244//244
f 245//245 208//208 244//244
f 257//257 258//258 248//248
f 248//248 247//247 257//257
f 247//247 246//246 257//257
f 259//259 260//260 250//250
f 250//250 249//249 259//259
f 249//249 248//248 259//259
f 251//251 250//250 261//261
f 262//262 263//263 252//252
f 263//263 264//264 253//253
f 264//264 265//265 254//254
f 265//265 266//266 255//255
f 255//255 254//254 265//265
f 254//254 253//253 264//264
f 253//253 252//252 263//263
f 252//252 251//251 262//262
f 261//261 262//262 251//251
f 260//260 261//261 250//250
f 258//258 259//259 248//248
f 256//256 257//257 246//246
f 242//242 98//98 267//267
f 266//266 267//267 98//98
f 98//98 106//106 266//266
f 219//219 255//255 266//266
f 157//157 219//219 106//106
f 266//266 106//106 219//219
f 267//267 268//268 242//242
f 181//181 77//77 98//98
f 98//98 242//242 181//181
f 106//106 133//133 157//157
f 231//231 243//243 220//220
f 220//220 185//185 231//231
f 269//269 232//232 242//242
f 241//241 232//232 269//269
f 233//233 241//241 270//270
f 240//240 233//233 271//271
f 234//234 240//240 272//272
f 273//273 235//235 234//234
f 234//234 274//274 273//273
f 275//275 236//236 235//235
f 237//237 236//236 275//275
f 275//275 276//276 237//237
f 277//277 238//238 237//237
f 278//278 239//239 238//238
f 278//278 182//182 239//239
f 238//238 277//277 278//278
f 278//278 231//231 182//182
f 276//276 277//277 237//237
f 273//273 275//275 235//235
f 272//272 274//274 234//234
f 271//271 272//272 240//240
f 270//270 271//271 233//233
f 269//269 270//270 241//241
f 242//242 268//268 269//269
f 268//268 267//267 279//279
f 280//280 270//270 269//269
f 270//270 280//280 281//281
f 282//282 272//272 271//271
f 272//272 282//282 283//283
f 284//284 273//273 274//274
f 284//284 275//275 273//273
f 274//274 283//283 285//285
f 286//286 276//276 275//275
f 286//286 277//277 276//276
f 275//275 284//284 287//287
f 243//243 278//278 277//277
f 243//243 231//231 278//278
f 277//277 286//286 288//288
f 277//277 288//288 243//243
f 275//275 287//287 286//286
f 274//274 285//285 284//284
f 283//283 274//274 272//272
f 271//271 281//281 282//282
f 281//281 271//271 270//270
f 269//269 279//279 280//280
f 279//279 269//269 268//268
f 288//288 257//257 256//256
f 256//256 243//243 288//288
f 256//256 244//244 243//243
f 287//287 259//259 258//258
f 258//258 286//286 287//287
f 287//287 284//284 259//259
f 285//285 261//261 260//260
f 260//260 284//284 285//285
f 285//285 283//283 261//261
f 262//262 261//261 283//283
f 281//281 263//263 262//262
f 280//280 264//264 263//263
f 279//279 265//265 264//264
f 266//266 265//265 279//279
f 279//279 267//267 266//266
f 264//264 280//280 279//279
f 263//263 281//281 280//280
f 262//262 282//282 281//281
f 283//283 282//282 262//262
f 260//260 259//259 284//284
f 258//258 257//257 286//286
f 288//288 286//286 257//257

