# https://github.com/mikedh/trimesh
v 0.02436639 0.07373176 0.01914760
v 0.02393829 0.05971745 0.01953805
v 0.02421418 0.05971745 -0.01931170
v -0.02457827 0.07394410 -0.01888893
v -0.02448641 0.07385194 0.01900118
v -0.02426827 0.05971745 -0.01926777
v 0.02456329 0.07392866 -0.01890774
v -0.02419188 0.05971745 0.01933046
vn 0.58643218 0.57428326 0.57122328
vn 0.56322722 -0.57791632 0.59058261
vn 0.56970955 -0.57590584 -0.58631347
vn -0.58630671 0.57921242 -0.56635449
vn -0.58517204 0.57774353 0.56902205
vn -0.56999934 -0.57582299 -0.58611316
vn 0.58821868 0.57884077 -0.56474963
vn -0.57003818 -0.57689984 0.58501543
f 1//1 2//2 3//3
f 5//5 2//2 1//1
f 6//6 3//3 2//2
f 6//6 4//4 3//3
f 7//7 1//1 3//3
f 7//7 3//3 4//4
f 7//7 5//5 1//1
f 7//7 4//4 5//5
f 8//8 5//5 4//4
f 8//8 4//4 6//6
f 8//8 6//6 2//2
f 8//8 2//2 5//5

