# https://github.com/mikedh/trimesh
v 0.00091481 -0.03492892 0.02000000
v 0.00091481 -0.07355594 0.01933077
v 0.00091481 -0.03492892 -0.02000000
v -0.00798188 -0.03492892 -0.01918054
v -0.01035262 -0.05850279 0.01974545
v -0.01035262 -0.07363267 -0.01926777
v -0.00842146 -0.03492892 0.01852178
v 0.00091481 -0.07363267 -0.01926777
v -0.01035262 -0.07355594 0.01933077
v -0.00709927 -0.03492892 0.01980970
vn 0.57178175 0.57442794 0.58574582
vn 0.57935468 -0.58247385 0.57015119
vn 0.55369973 0.57295913 -0.60426355
vn -0.57554542 0.60104592 -0.55451896
vn -0.71423896 0.02058208 0.69959923
vn -0.59163107 -0.56732223 -0.57281600
vn -0.69211830 0.66364269 0.28381445
vn 0.57824569 -0.58290031 -0.57084073
vn -0.57891896 -0.58388360 0.56915093
vn -0.27302821 0.65081124 0.70844924
f 1//1 2//2 3//3
f 5//5 2//2 1//1
f 6//6 4//4 3//3
f 6//6 5//5 4//4
f 7//7 4//4 5//5
f 8//8 6//6 3//3
f 8//8 3//3 2//2
f 8//8 2//2 6//6
f 9//9 6//6 2//2
f 9//9 2//2 5//5
f 9//9 5//5 6//6
f 10//10 7//7 5//5
f 10//10 5//5 1//1
f 10//10 4//4 7//7
f 10//10 1//1 3//3
f 10//10 3//3 4//4

