# https://github.com/mikedh/trimesh
v -0.01035262 0.05971745 0.02000000
v -0.00842146 0.05521048 0.01852178
v -0.01035262 0.05971745 -0.02000000
v -0.02426827 0.05971745 -0.01926777
v -0.02487626 0.05720411 0.01827025
v -0.00853527 0.05521048 -0.01822571
v -0.02426827 0.05781310 0.01926780
v -0.02426827 0.05781310 -0.01926777
v -0.02492859 0.05715178 -0.01808166
v -0.01035262 0.05850165 0.01974437
v -0.02419188 0.05971745 0.01933046
v -0.01035262 0.05826801 -0.01961972
vn 0.44071175 0.58630855 0.67971717
vn 0.69901565 -0.55248577 0.45402268
vn 0.45028241 0.56458921 -0.69172594
vn -0.52523765 0.61854193 -0.58440679
vn -0.77809656 -0.56419515 0.27613327
vn 0.69989187 -0.56962717 -0.43090168
vn -0.44410652 -0.35779317 0.82143377
vn -0.44755510 -0.37335470 -0.81258889
vn -0.77755617 -0.57382249 -0.25716560
vn 0.09914283 -0.25413754 0.96207318
vn -0.51489018 0.61642296 0.59574393
vn 0.12054546 -0.30729552 -0.94394823
f 1//1 2//2 3//3
f 1//1 3//3 4//4
f 6//6 3//3 2//2
f 7//7 5//5 2//2
f 8//8 4//4 3//3
f 9//9 6//6 2//2
f 9//9 2//2 5//5
f 9//9 8//8 6//6
f 9//9 5//5 4//4
f 9//9 4//4 8//8
f 10//10 7//7 2//2
f 10//10 2//2 1//1
f 10//10 1//1 7//7
f 11//11 7//7 1//1
f 11//11 1//1 4//4
f 11//11 4//4 5//5
f 11//11 5//5 7//7
f 12//12 8//8 3//3
f 12//12 3//3 6//6
f 12//12 6//6 8//8

