# https://github.com/mikedh/trimesh
v 0.01443571 -0.06197073 0.02000000
v 0.01443571 -0.07355594 0.01933077
v 0.01443571 -0.06197073 -0.02000000
v 0.00091481 -0.06197073 -0.02000000
v 0.00091481 -0.06197073 0.02000000
v 0.00091481 -0.07363267 -0.01926777
v 0.01443571 -0.07363267 -0.01926777
v 0.00091481 -0.07355594 0.01933077
vn 0.57437655 0.56189297 0.59528806
vn 0.58055417 -0.59155466 0.55948185
vn 0.57412436 0.56052298 -0.59682091
vn -0.57412436 0.56052298 -0.59682091
vn -0.57437655 0.56189297 0.59528806
vn -0.58061050 -0.59403129 -0.55679285
vn 0.58061050 -0.59403129 -0.55679285
vn -0.58055417 -0.59155466 0.55948185
f 1//1 2//2 3//3
f 1//1 3//3 4//4
f 5//5 2//2 1//1
f 5//5 1//1 4//4
f 6//6 4//4 3//3
f 6//6 5//5 4//4
f 7//7 6//6 3//3
f 7//7 3//3 2//2
f 7//7 2//2 6//6
f 8//8 6//6 2//2
f 8//8 2//2 5//5
f 8//8 5//5 6//6

