# https://github.com/mikedh/trimesh
v 0.07564330 -0.03954500 0.02000000
v 0.07554151 -0.06425252 0.02000000
v 0.07554151 -0.06425252 -0.02000000
v 0.03075956 -0.04865199 -0.02000000
v 0.03075956 -0.04865199 0.02000000
v 0.03081550 -0.07107986 -0.02000000
v 0.07564330 -0.03954500 -0.02000000
v 0.03723633 -0.04668799 0.02000000
v 0.05411428 -0.07013263 0.02000000
v 0.03723633 -0.04668799 -0.02000000
v 0.05411428 -0.07013263 -0.02000000
v 0.06469677 -0.06786676 0.02000000
v 0.03081550 -0.07107986 0.02000000
v 0.07103178 -0.06591053 0.02000000
v 0.06469677 -0.06786676 -0.02000000
v 0.07103178 -0.06591053 -0.02000000
f 1 2 3
f 5 2 1
f 6 4 3
f 7 1 3
f 7 3 4
f 8 5 1
f 8 4 5
f 8 1 7
f 9 2 5
f 10 8 7
f 10 7 4
f 10 4 8
f 11 9 6
f 11 6 3
f 12 2 9
f 12 9 11
f 13 9 5
f 13 6 9
f 13 5 4
f 13 4 6
f 14 3 2
f 14 2 12
f 15 12 11
f 15 11 3
f 15 14 12
f 16 15 3
f 16 3 14
f 16 14 15

