# https://github.com/mikedh/trimesh
v 0.04999277 0.07071293 0.02000000
v 0.05059611 0.04560944 0.02000000
v 0.05059611 0.04560944 -0.02000000
v 0.01403345 0.06666169 -0.02000000
v 0.01346211 0.04432183 0.02000000
v 0.04999277 0.07071293 -0.02000000
v 0.01403345 0.06666169 0.02000000
v 0.01346211 0.04432183 -0.02000000
v 0.02684090 0.07018646 0.02000000
v 0.02684090 0.07018646 -0.02000000
v 0.01837410 0.06819370 0.02000000
v 0.01837410 0.06819370 -0.02000000
f 1 2 3
f 5 2 1
f 6 1 3
f 6 3 4
f 7 5 1
f 7 4 5
f 8 5 4
f 8 4 3
f 8 3 2
f 8 2 5
f 9 1 6
f 9 7 1
f 10 9 6
f 10 6 4
f 11 4 7
f 11 7 9
f 11 9 10
f 12 11 10
f 12 10 4
f 12 4 11

