# https://github.com/mikedh/trimesh
v 0.00544677 0.00112441 0.02000000
v 0.01167189 -0.06704329 0.02000000
v 0.00908992 -0.02559438 -0.02000000
v -0.02113280 0.00107819 -0.02000000
v -0.01858927 -0.03686183 0.02000000
v -0.01032189 -0.06563010 -0.02000000
v 0.00544677 0.00112441 -0.02000000
v 0.00908992 -0.02559438 0.02000000
v -0.02113280 0.00107819 0.02000000
v 0.01167189 -0.06704329 -0.02000000
v -0.01858927 -0.03686183 -0.02000000
v -0.01032189 -0.06563010 0.02000000
f 5 2 1
f 6 4 3
f 7 1 3
f 7 3 4
f 8 1 2
f 8 2 3
f 8 3 1
f 9 5 1
f 9 4 5
f 9 7 4
f 9 1 7
f 10 6 3
f 10 3 2
f 10 2 6
f 11 6 5
f 11 5 4
f 11 4 6
f 12 6 2
f 12 2 5
f 12 5 6

