# https://github.com/mikedh/trimesh
v 0.08086900 0.06159650 0.02000000
v 0.08037835 0.06035729 0.02000000
v 0.08037835 0.06035729 -0.02000000
v 0.04999277 0.07071293 -0.02000000
v 0.04999277 0.07071293 0.02000000
v 0.07138990 0.03765560 0.02000000
v 0.07090595 0.06574497 -0.02000000
v 0.07138990 0.03765560 -0.02000000
v 0.05059611 0.04560944 0.02000000
v 0.08086900 0.06159650 -0.02000000
v 0.06458531 0.06776708 0.02000000
v 0.05021920 0.05513274 0.02000000
v 0.05059611 0.04560944 -0.02000000
v 0.07090595 0.06574497 0.02000000
v 0.06458531 0.06776708 -0.02000000
v 0.05424324 0.07015249 0.02000000
v 0.05424324 0.07015249 -0.02000000
f 1 2 3
f 5 2 1
f 6 3 2
f 6 2 5
f 7 3 4
f 8 4 3
f 8 3 6
f 9 6 5
f 9 8 6
f 10 7 1
f 10 1 3
f 10 3 7
f 11 5 1
f 12 9 5
f 12 5 4
f 13 4 8
f 13 8 9
f 13 12 4
f 13 9 12
f 14 11 1
f 14 1 7
f 14 7 11
f 15 11 7
f 15 7 4
f 16 4 5
f 16 5 11
f 16 11 15
f 17 16 15
f 17 15 4
f 17 4 16

