# https://github.com/mikedh/trimesh
v -0.02736870 0.06932050 0.02000000
v -0.02545716 -0.06063010 0.02000000
v -0.02107832 0.02700775 -0.02000000
v -0.05680880 0.06932050 -0.02000000
v -0.05680880 -0.06949460 0.02000000
v -0.02736870 0.06932050 -0.02000000
v -0.02107832 0.02700775 0.02000000
v -0.05680880 0.06932050 0.02000000
v -0.03843025 -0.06949460 -0.02000000
v -0.02064107 -0.03121571 0.02000000
v -0.02545716 -0.06063010 -0.02000000
v -0.03843025 -0.06949460 0.02000000
v -0.05680880 -0.06949460 -0.02000000
v -0.02064107 -0.03121571 -0.02000000
f 5 2 1
f 6 1 3
f 6 3 4
f 6 4 1
f 7 1 2
f 7 3 1
f 8 5 1
f 8 1 4
f 8 4 5
f 9 4 3
f 10 7 2
f 10 3 7
f 11 9 3
f 11 2 9
f 11 10 2
f 12 9 2
f 12 2 5
f 12 5 9
f 13 9 5
f 13 5 4
f 13 4 9
f 14 11 3
f 14 3 10
f 14 10 11

