# https://github.com/mikedh/trimesh
v 0.03075956 -0.04865199 0.02000000
v 0.03081550 -0.07107986 0.02000000
v 0.03081550 -0.07107986 -0.02000000
v 0.01068603 -0.02946264 -0.02000000
v 0.01068603 -0.02946264 0.02000000
v 0.01167189 -0.06704329 0.02000000
v 0.03075956 -0.04865199 -0.02000000
v 0.02255580 -0.07008700 0.02000000
v 0.01167189 -0.06704329 -0.02000000
v 0.01427172 -0.06794847 0.02000000
v 0.02255580 -0.07008700 -0.02000000
v 0.01427172 -0.06794847 -0.02000000
f 1 2 3
f 5 2 1
f 5 1 4
f 6 5 4
f 6 2 5
f 7 1 3
f 7 3 4
f 7 4 1
f 8 3 2
f 8 2 6
f 9 6 4
f 9 4 3
f 10 8 6
f 11 9 3
f 11 3 8
f 12 9 11
f 12 10 6
f 12 6 9
f 12 11 8
f 12 8 10

