# https://github.com/mikedh/trimesh
v -0.01032189 -0.06063010 0.02000000
v -0.01032189 -0.06563010 0.02000000
v -0.01032189 -0.06063010 -0.02000000
v -0.03843025 -0.05946290 -0.02000000
v -0.03843025 -0.05946290 0.02000000
v -0.03843025 -0.06949460 -0.02000000
v -0.01032189 -0.06563010 -0.02000000
v -0.03843025 -0.06949460 0.02000000
v -0.02736870 -0.06949460 0.02000000
v -0.02736870 -0.06949460 -0.02000000
f 1 2 3
f 1 3 4
f 5 2 1
f 5 1 4
f 6 4 3
f 6 5 4
f 7 6 3
f 7 3 2
f 8 2 5
f 8 5 6
f 9 7 2
f 9 8 6
f 9 2 8
f 10 9 6
f 10 6 7
f 10 7 9

