# OBJ generated by ONSHAPE BY PTC INC, 1.201 Units = meters
mtllib smaller_IC.mtl
g Part 1
v -0.0273687 -0.0694946 0.02 
v -0.0273687 -0.0694946 -0.02 
v -0.0273687 -0.0656301 -0.02 
v -0.0273687 -0.0656301 0.02 
v 0.00811232 -0.0656301 -0.02 
v 0.00811232 -0.0656301 0.02 
v 0.0297521 -0.071036 0.02 
v 0.0297521 -0.071036 -0.02 
v 0.0374836 -0.0713549 -0.02 
v 0.0225558 -0.070087 0.02 
v 0.0225558 -0.070087 -0.02 
v 0.0160333 -0.0685618 0.02 
v 0.0160333 -0.0685618 -0.02 
v 0.0101195 -0.0665028 -0.02 
v 0.0101195 -0.0665028 0.02 
v 0.0374836 -0.0713549 0.02 
v 0.0686459 -0.0667877 0.02 
v 0.0686459 -0.0667877 -0.02 
v 0.0756433 -0.0642151 -0.02 
v 0.0613172 -0.0687902 0.02 
v 0.0613172 -0.0687902 -0.02 
v 0.0535972 -0.070229 -0.02 
v 0.0454489 -0.0710905 0.02 
v 0.0454489 -0.0710905 -0.02 
v 0.0535972 -0.070229 0.02 
v 0.0756433 -0.0642151 0.02 
v 0.0756433 -0.039545 -0.02 
v 0.0756433 -0.039545 0.02 
v 0.0467847 -0.0465028 -0.02 
v 0.0402484 -0.0468366 -0.02 
v 0.0402484 -0.0468366 0.02 
v 0.0539536 -0.0454889 0.02 
v 0.0539536 -0.0454889 -0.02 
v 0.0620758 -0.0436987 0.02 
v 0.0620758 -0.0436987 -0.02 
v 0.0712596 -0.0410242 0.02 
v 0.0712596 -0.0410242 -0.02 
v 0.0467847 -0.0465028 0.02 
v 0.00571574 -0.00882653 0.02 
v 0.00571574 -0.00882653 -0.02 
v 0.00540029 -0.000413015 -0.02 
v 0.00665048 -0.0163336 0.02 
v 0.00665048 -0.0163336 -0.02 
v 0.00794155 -0.0221005 0.02 
v 0.00794155 -0.0221005 -0.02 
v 0.0094051 -0.0265533 0.02 
v 0.0094051 -0.0265533 -0.02 
v 0.0109865 -0.0301451 0.02 
v 0.0109865 -0.0301451 -0.02 
v 0.0126551 -0.0331119 0.02 
v 0.0126551 -0.0331119 -0.02 
v 0.0145221 -0.0357641 -0.02 
v 0.0163626 -0.0378844 0.02 
v 0.0163626 -0.0378844 -0.02 
v 0.0184927 -0.0398818 0.02 
v 0.0184927 -0.0398818 -0.02 
v 0.0207341 -0.041575 0.02 
v 0.0207341 -0.041575 -0.02 
v 0.0231225 -0.0430163 0.02 
v 0.0231225 -0.0430163 -0.02 
v 0.0257105 -0.0442385 0.02 
v 0.0257105 -0.0442385 -0.02 
v 0.0285647 -0.045253 0.02 
v 0.0285647 -0.045253 -0.02 
v 0.0317715 -0.046051 -0.02 
v 0.035447 -0.0465997 0.02 
v 0.035447 -0.0465997 -0.02 
v 0.0317715 -0.046051 0.02 
v 0.0145221 -0.0357641 0.02 
v 0.00540029 -0.000413015 0.02 
v 0.0123959 0.0311288 0.02 
v 0.0123959 0.0311288 -0.02 
v 0.0145149 0.0343743 -0.02 
v 0.0105453 0.0275569 0.02 
v 0.0105453 0.0275569 -0.02 
v 0.00889023 0.0234278 0.02 
v 0.00889023 0.0234278 -0.02 
v 0.00745867 0.0185659 0.02 
v 0.00745867 0.0185659 -0.02 
v 0.0063131 0.0127186 0.02 
v 0.0063131 0.0127186 -0.02 
v 0.00558737 0.00577537 0.02 
v 0.00558737 0.00577537 -0.02 
v 0.0145149 0.0343743 0.02 
v 0.0359934 0.0466439 0.02 
v 0.0359934 0.0466439 -0.02 
v 0.0402484 0.0468613 -0.02 
v 0.0326045 0.0461219 0.02 
v 0.0326045 0.0461219 -0.02 
v 0.029602 0.0453527 0.02 
v 0.029602 0.0453527 -0.02 
v 0.0266001 0.0442422 -0.02 
v 0.0239137 0.0429031 0.02 
v 0.0239137 0.0429031 -0.02 
v 0.0214625 0.0413383 0.02 
v 0.0214625 0.0413383 -0.02 
v 0.0191799 0.0395243 0.02 
v 0.0191799 0.0395243 -0.02 
v 0.0170185 0.0374174 0.02 
v 0.0170185 0.0374174 -0.02 
v 0.014922 0.0349209 0.02 
v 0.014922 0.0349209 -0.02 
v 0.0266001 0.0442422 0.02 
v 0.0402484 0.0468613 0.02 
v 0.0504818 0.0456429 0.02 
v 0.0504818 0.0456429 -0.02 
v 0.0557128 0.0441117 -0.02 
v 0.0459902 0.0464737 0.02 
v 0.0459902 0.0464737 -0.02 
v 0.0417498 0.0468345 0.02 
v 0.0417498 0.0468345 -0.02 
v 0.0557128 0.0441117 0.02 
v 0.0635665 0.0411229 0.02 
v 0.0635665 0.0411229 -0.02 
v 0.0713899 0.0376556 -0.02 
v 0.0713899 0.0376556 0.02 
v 0.080869 0.0615965 -0.02 
v 0.080869 0.0615965 0.02 
v 0.0476343 0.0710239 0.02 
v 0.0476343 0.0710239 -0.02 
v 0.0402484 0.0713491 -0.02 
v 0.055038 0.0700477 0.02 
v 0.055038 0.0700477 -0.02 
v 0.0624916 0.068411 0.02 
v 0.0624916 0.068411 -0.02 
v 0.0700227 0.0660948 0.02 
v 0.0700227 0.0660948 -0.02 
v 0.0776579 0.0630707 0.02 
v 0.0776579 0.0630707 -0.02 
v 0.0402484 0.0713491 0.02 
v 0.0110165 0.0654681 0.02 
v 0.0110165 0.0654681 -0.02 
v 0.00564334 0.0626751 -0.02 
v 0.0167249 0.0677265 0.02 
v 0.0167249 0.0677265 -0.02 
v 0.0228812 0.0694705 0.02 
v 0.0228812 0.0694705 -0.02 
v 0.0294388 0.0706562 0.02 
v 0.0294388 0.0706562 -0.02 
v 0.0364431 0.0712673 0.02 
v 0.0364431 0.0712673 -0.02 
v 0.00564334 0.0626751 0.02 
v -0.0138763 0.0434445 0.02 
v -0.0138763 0.0434445 -0.02 
v -0.0170064 0.0377163 -0.02 
v -0.0102948 0.0486414 0.02 
v -0.0102948 0.0486414 -0.02 
v -0.00634869 0.053227 0.02 
v -0.00634869 0.053227 -0.02 
v -0.00213565 0.057179 0.02 
v -0.00213565 0.057179 -0.02 
v 0.00241163 0.0606295 0.02 
v 0.00241163 0.0606295 -0.02 
v -0.0170064 0.0377163 0.02 
v -0.0245705 0.00827951 0.02 
v -0.0245705 0.00827951 -0.02 
v -0.0248905 -0.000230723 -0.02 
v -0.0236165 0.0163162 0.02 
v -0.0236165 0.0163162 -0.02 
v -0.0220719 0.0237514 0.02 
v -0.0220719 0.0237514 -0.02 
v -0.019971 0.0306369 0.02 
v -0.019971 0.0306369 -0.02 
v -0.0175254 0.0366201 0.02 
v -0.0175254 0.0366201 -0.02 
v -0.0248905 -0.000230723 0.02 
v -0.012253 -0.0486388 0.02 
v -0.012253 -0.0486388 -0.02 
v -0.00884885 -0.0529738 -0.02 
v -0.0152671 -0.0438727 -0.02 
v -0.017955 -0.0385093 0.02 
v -0.017955 -0.0385093 -0.02 
v -0.0203058 -0.0324033 0.02 
v -0.0203058 -0.0324033 -0.02 
v -0.0222024 -0.0256853 0.02 
v -0.0222024 -0.0256853 -0.02 
v -0.0236221 -0.0182919 0.02 
v -0.0236221 -0.0182919 -0.02 
v -0.0245314 -0.0101554 0.02 
v -0.0245314 -0.0101554 -0.02 
v -0.0248858 -0.00140244 0.02 
v -0.0248858 -0.00140244 -0.02 
v -0.0152671 -0.0438727 0.02 
v -0.00884885 -0.0529738 0.02 
v -0.00445295 -0.0574281 0.02 
v -0.00445295 -0.0574281 -0.02 
v -0.000477787 -0.0606301 -0.02 
v -0.00798781 -0.053936 0.02 
v -0.00798781 -0.053936 -0.02 
v -0.000477787 -0.0606301 0.02 
v -0.0273687 -0.0606301 -0.02 
v -0.0273687 -0.0606301 0.02 
v -0.0273687 0.0693205 -0.02 
v -0.0273687 0.0693205 0.02 
v -0.0568088 0.0693205 0.02 
v -0.0568088 -0.0694946 0.02 
v -0.0568088 -0.0694946 -0.02 
v -0.0568088 0.0693205 -0.02 
vn 1 0 0 
vn 0 -1 0 
vn -0.0848902 -0.99639 0 
vn -0.178902 -0.983867 0 
vn -0.278226 -0.960515 0 
vn -0.380254 -0.924882 0 
vn -0.41731 -0.908764 0 
vn 0 -1 0 
vn 0.304271 -0.952586 0 
vn 0.385781 -0.922591 0 
vn 0.223274 -0.974756 0 
vn 0.143938 -0.989587 0 
vn 0.0674722 -0.997721 0 
vn 0 -1 0 
vn 0.143938 -0.989587 0 
vn 0.385781 -0.922591 0 
vn 1 0 0 
vn -0.0974562 0.99524 0 
vn 0 1 0 
vn -0.178647 0.983913 0 
vn -0.248319 0.968678 0 
vn -0.307849 0.951435 0 
vn -0.331088 0.9436 0 
vn -0.0974562 0.99524 0 
vn 0.9969 0.0786842 0 
vn 1 0 0 
vn 0.984963 0.172766 0 
vn 0.963537 0.267576 0 
vn 0.933231 0.359278 0 
vn 0.893989 0.448088 0 
vn 0.846124 0.532985 0 
vn 0.78606 0.61815 0 
vn 0.721838 0.692062 0 
vn 0.643743 0.765242 0 
vn 0.560103 0.828423 0 
vn 0.472338 0.881417 0 
vn 0.38158 0.924336 0 
vn 0.288911 0.957356 0 
vn 0.195374 0.980729 0 
vn 0.101961 0.994788 0 
vn 0 1 0 
vn 0.195374 0.980729 0 
vn 0.78606 0.61815 0 
vn 1 0 0 
vn 0.864008 -0.503478 0 
vn 0.807715 -0.589573 0 
vn 0.90892 -0.41697 0 
vn 0.944579 -0.328286 0 
vn 0.971142 -0.238503 0 
vn 0.988897 -0.148603 0 
vn 0.998053 -0.0623744 0 
vn 1 0 0 
vn 0.807715 -0.589573 0 
vn 0.104841 -0.994489 0 
vn 0 -1 0 
vn 0.201212 -0.979548 0 
vn 0.295916 -0.955214 0 
vn 0.39799 -0.91739 0 
vn 0.493394 -0.869806 0 
vn 0.581181 -0.813774 0 
vn 0.660978 -0.750405 0 
vn 0.732489 -0.680779 0 
vn 0.796143 -0.605108 0 
vn 0.807715 -0.589573 0 
vn 0.39799 -0.91739 0 
vn 0 -1 0 
vn -0.229076 -0.973408 0 
vn -0.329863 -0.944029 0 
vn -0.132907 -0.991129 0 
vn -0.0355664 -0.999367 0 
vn 0 -1 0 
vn -0.329863 -0.944029 0 
vn -0.380795 -0.92466 0 
vn -0.428842 -0.90338 0 
vn -0.329863 -0.944029 0 
vn 0.929773 -0.368133 0 
vn 0.0876383 0.996152 0 
vn 0 1 0 
vn 0.173011 0.98492 0 
vn 0.254736 0.967011 0 
vn 0.331689 0.943389 0 
vn 0.403091 0.91516 0 
vn 0.431028 0.902339 0 
vn 0 1 0 
vn -0.414929 0.909854 0 
vn -0.506516 0.862231 0 
vn -0.320624 0.947207 0 
vn -0.225039 0.97435 0 
vn -0.132037 0.991245 0 
vn -0.0434966 0.999054 0 
vn 0 1 0 
vn -0.506516 0.862231 0 
vn -0.851965 0.523599 0 
vn -0.900064 0.435758 0 
vn -0.791769 0.610821 0 
vn -0.721526 0.692387 0 
vn -0.644812 0.764341 0 
vn -0.562897 0.826527 0 
vn -0.506516 0.862231 0 
vn -0.900064 0.435758 0 
vn -0.997034 0.0769565 0 
vn -1 0 0 
vn -0.987049 0.160418 0 
vn -0.968865 0.247591 0 
vn -0.941598 0.33674 0 
vn -0.907516 0.420018 0 
vn -0.900064 0.435758 0 
vn -1 0 0 
vn -0.817062 -0.57655 0 
vn -0.753425 -0.657534 0 
vn -0.870581 -0.492025 0 
vn -0.914578 -0.404409 0 
vn -0.949017 -0.315226 0 
vn -0.973254 -0.229731 0 
vn -0.988787 -0.149331 0 
vn -0.997194 -0.0748621 0 
vn -0.999968 -0.0080552 0 
vn -1 0 0 
vn -0.870581 -0.492025 0 
vn -0.753425 -0.657534 0 
vn -0.666674 -0.74535 0 
vn -0.586164 -0.810193 0 
vn -0.736801 -0.67611 0 
vn -0.753425 -0.657534 0 
vn -0.586164 -0.810193 0 
vn 0 1 0 
vn 1 0 0 
vn 0 0 1 
vn 0 0 -1 
vn 0 1 0 
vn -1 0 0 
vn 0 -1 0 
usemtl 0.615686_0.811765_0.929412_0.000000_0.000000
o mesh0
f 1//1 2//1 3//1 
f 3//1 4//1 1//1 
o mesh1
f 4//2 3//2 5//2 
f 5//2 6//2 4//2 
o mesh2
f 7//3 8//3 9//2 
f 10//4 11//4 8//3 
f 12//5 13//5 11//4 
f 14//6 13//5 12//5 
f 6//7 5//7 14//6 
f 14//6 15//6 6//7 
f 12//5 15//6 14//6 
f 11//4 10//4 12//5 
f 8//3 7//3 10//4 
f 9//2 16//8 7//3 
o mesh3
f 17//9 18//9 19//10 
f 20//11 21//11 18//9 
f 22//12 21//11 20//11 
f 23//13 24//13 22//12 
f 16//14 9//14 24//13 
f 24//13 23//13 16//14 
f 22//12 25//15 23//13 
f 20//11 25//15 22//12 
f 18//9 17//9 20//11 
f 19//10 26//16 17//9 
o mesh4
f 26//17 19//17 27//17 
f 27//17 28//17 26//17 
o mesh5
f 29//18 30//19 31//19 
f 32//20 33//20 29//18 
f 34//21 35//21 33//20 
f 36//22 37//22 35//21 
f 28//23 27//23 37//22 
f 37//22 36//22 28//23 
f 35//21 34//21 36//22 
f 33//20 32//20 34//21 
f 29//18 38//24 32//20 
f 31//19 38//24 29//18 
o mesh6
f 39//25 40//25 41//26 
f 42//27 43//27 40//25 
f 44//28 45//28 43//27 
f 46//29 47//29 45//28 
f 48//30 49//30 47//29 
f 50//31 51//31 49//30 
f 52//32 51//31 50//31 
f 53//33 54//33 52//32 
f 55//34 56//34 54//33 
f 57//35 58//35 56//34 
f 59//36 60//36 58//35 
f 61//37 62//37 60//36 
f 63//38 64//38 62//37 
f 65//39 64//38 63//38 
f 66//40 67//40 65//39 
f 31//41 30//41 67//40 
f 67//40 66//40 31//41 
f 65//39 68//42 66//40 
f 63//38 68//42 65//39 
f 62//37 61//37 63//38 
f 60//36 59//36 61//37 
f 58//35 57//35 59//36 
f 56//34 55//34 57//35 
f 54//33 53//33 55//34 
f 52//32 69//43 53//33 
f 50//31 69//43 52//32 
f 49//30 48//30 50//31 
f 47//29 46//29 48//30 
f 45//28 44//28 46//29 
f 43//27 42//27 44//28 
f 40//25 39//25 42//27 
f 41//26 70//44 39//25 
o mesh7
f 71//45 72//45 73//46 
f 74//47 75//47 72//45 
f 76//48 77//48 75//47 
f 78//49 79//49 77//48 
f 80//50 81//50 79//49 
f 82//51 83//51 81//50 
f 70//52 41//52 83//51 
f 83//51 82//51 70//52 
f 81//50 80//50 82//51 
f 79//49 78//49 80//50 
f 77//48 76//48 78//49 
f 75//47 74//47 76//48 
f 72//45 71//45 74//47 
f 73//46 84//53 71//45 
o mesh8
f 85//54 86//54 87//55 
f 88//56 89//56 86//54 
f 90//57 91//57 89//56 
f 92//58 91//57 90//57 
f 93//59 94//59 92//58 
f 95//60 96//60 94//59 
f 97//61 98//61 96//60 
f 99//62 100//62 98//61 
f 101//63 102//63 100//62 
f 84//64 73//64 102//63 
f 102//63 101//63 84//64 
f 100//62 99//62 101//63 
f 98//61 97//61 99//62 
f 96//60 95//60 97//61 
f 94//59 93//59 95//60 
f 92//58 103//65 93//59 
f 90//57 103//65 92//58 
f 89//56 88//56 90//57 
f 86//54 85//54 88//56 
f 87//55 104//66 85//54 
o mesh9
f 105//67 106//67 107//68 
f 108//69 109//69 106//67 
f 110//70 111//70 109//69 
f 104//71 87//71 111//70 
f 111//70 110//70 104//71 
f 109//69 108//69 110//70 
f 106//67 105//67 108//69 
f 107//68 112//72 105//67 
o mesh10
f 113//73 114//73 115//74 
f 112//75 107//75 114//73 
f 114//73 113//73 112//75 
f 115//74 116//74 113//73 
o mesh11
f 116//76 115//76 117//76 
f 117//76 118//76 116//76 
o mesh12
f 119//77 120//77 121//78 
f 122//79 123//79 120//77 
f 124//80 125//80 123//79 
f 126//81 127//81 125//80 
f 128//82 129//82 127//81 
f 118//83 117//83 129//82 
f 129//82 128//82 118//83 
f 127//81 126//81 128//82 
f 125//80 124//80 126//81 
f 123//79 122//79 124//80 
f 120//77 119//77 122//79 
f 121//78 130//84 119//77 
o mesh13
f 131//85 132//85 133//86 
f 134//87 135//87 132//85 
f 136//88 137//88 135//87 
f 138//89 139//89 137//88 
f 140//90 141//90 139//89 
f 130//91 121//91 141//90 
f 141//90 140//90 130//91 
f 139//89 138//89 140//90 
f 137//88 136//88 138//89 
f 135//87 134//87 136//88 
f 132//85 131//85 134//87 
f 133//86 142//92 131//85 
o mesh14
f 143//93 144//93 145//94 
f 146//95 147//95 144//93 
f 148//96 149//96 147//95 
f 150//97 151//97 149//96 
f 152//98 153//98 151//97 
f 142//99 133//99 153//98 
f 153//98 152//98 142//99 
f 151//97 150//97 152//98 
f 149//96 148//96 150//97 
f 147//95 146//95 148//96 
f 144//93 143//93 146//95 
f 145//94 154//100 143//93 
o mesh15
f 155//101 156//101 157//102 
f 158//103 159//103 156//101 
f 160//104 161//104 159//103 
f 162//105 163//105 161//104 
f 164//106 165//106 163//105 
f 154//107 145//107 165//106 
f 165//106 164//106 154//107 
f 163//105 162//105 164//106 
f 161//104 160//104 162//105 
f 159//103 158//103 160//104 
f 156//101 155//101 158//103 
f 157//102 166//108 155//101 
o mesh16
f 167//109 168//109 169//110 
f 170//111 168//109 167//109 
f 171//112 172//112 170//111 
f 173//113 174//113 172//112 
f 175//114 176//114 174//113 
f 177//115 178//115 176//114 
f 179//116 180//116 178//115 
f 181//117 182//117 180//116 
f 166//118 157//118 182//117 
f 182//117 181//117 166//118 
f 180//116 179//116 181//117 
f 178//115 177//115 179//116 
f 176//114 175//114 177//115 
f 174//113 173//113 175//114 
f 172//112 171//112 173//113 
f 170//111 183//119 171//112 
f 167//109 183//119 170//111 
f 169//110 184//120 167//109 
o mesh17
f 185//121 186//121 187//122 
f 188//123 189//123 186//121 
f 184//124 169//124 189//123 
f 189//123 188//123 184//124 
f 186//121 185//121 188//123 
f 187//122 190//125 185//121 
o mesh18
f 190//126 187//126 191//126 
f 191//126 192//126 190//126 
o mesh19
f 192//127 191//127 193//127 
f 193//127 194//127 192//127 
o mesh20
f 181//128 179//128 39//128 
f 166//128 70//128 82//128 
f 70//128 166//128 181//128 
f 158//128 155//128 82//128 
f 39//128 70//128 181//128 
f 82//128 155//128 166//128 
f 177//128 42//128 39//128 
f 160//128 158//128 80//128 
f 39//128 179//128 177//128 
f 76//128 74//128 154//128 
f 162//128 160//128 78//128 
f 82//128 80//128 158//128 
f 154//128 164//128 76//128 
f 80//128 78//128 160//128 
f 175//128 173//128 44//128 
f 78//128 76//128 162//128 
f 42//128 177//128 175//128 
f 148//128 101//128 99//128 
f 148//128 146//128 84//128 
f 143//128 154//128 74//128 
f 44//128 42//128 175//128 
f 173//128 171//128 46//128 
f 171//128 183//128 48//128 
f 84//128 101//128 148//128 
f 146//128 143//128 71//128 
f 164//128 162//128 76//128 
f 48//128 46//128 171//128 
f 150//128 99//128 97//128 
f 71//128 84//128 146//128 
f 46//128 44//128 173//128 
f 183//128 167//128 50//128 
f 99//128 150//128 148//128 
f 50//128 48//128 183//128 
f 184//128 188//128 69//128 
f 34//128 17//128 26//128 
f 74//128 71//128 143//128 
f 50//128 167//128 184//128 
f 7//128 66//128 68//128 
f 25//128 20//128 32//128 
f 20//128 17//128 34//128 
f 26//128 28//128 36//128 
f 119//128 130//128 110//128 
f 97//128 95//128 142//128 
f 69//128 50//128 184//128 
f 68//128 63//128 7//128 
f 16//128 31//128 66//128 
f 38//128 23//128 25//128 
f 26//128 36//128 34//128 
f 128//128 126//128 113//128 
f 130//128 104//128 110//128 
f 140//128 85//128 104//128 
f 97//128 152//128 150//128 
f 188//128 185//128 53//128 
f 190//128 7//128 61//128 
f 66//128 7//128 16//128 
f 23//128 38//128 31//128 
f 34//128 32//128 20//128 
f 116//128 118//128 128//128 
f 126//128 124//128 112//128 
f 122//128 119//128 108//128 
f 104//128 130//128 140//128 
f 138//128 88//128 85//128 
f 136//128 90//128 88//128 
f 53//128 69//128 188//128 
f 190//128 55//128 53//128 
f 63//128 61//128 7//128 
f 32//128 38//128 25//128 
f 15//128 12//128 10//128 
f 7//128 190//128 6//128 
f 112//128 113//128 126//128 
f 124//128 122//128 105//128 
f 110//128 108//128 119//128 
f 88//128 138//128 136//128 
f 131//128 142//128 95//128 
f 53//128 185//128 190//128 
f 31//128 16//128 23//128 
f 6//128 15//128 7//128 
f 4//128 6//128 190//128 
f 105//128 112//128 124//128 
f 85//128 140//128 138//128 
f 131//128 93//128 103//128 
f 142//128 152//128 97//128 
f 61//128 59//128 190//128 
f 195//128 4//128 192//128 
f 190//128 192//128 4//128 
f 108//128 105//128 122//128 
f 134//128 103//128 90//128 
f 95//128 93//128 131//128 
f 59//128 57//128 190//128 
f 10//128 7//128 15//128 
f 196//128 1//128 4//128 
f 90//128 136//128 134//128 
f 57//128 55//128 190//128 
f 4//128 195//128 196//128 
f 103//128 134//128 131//128 
f 113//128 116//128 128//128 
f 192//128 194//128 195//128 
o mesh21
f 182//129 41//129 40//129 
f 40//129 180//129 182//129 
f 157//129 156//129 83//129 
f 83//129 41//129 157//129 
f 159//129 81//129 83//129 
f 178//129 180//129 40//129 
f 83//129 156//129 159//129 
f 182//129 157//129 41//129 
f 161//129 79//129 81//129 
f 81//129 159//129 161//129 
f 163//129 77//129 79//129 
f 77//129 165//129 145//129 
f 176//129 43//129 45//129 
f 79//129 161//129 163//129 
f 77//129 163//129 165//129 
f 45//129 174//129 176//129 
f 145//129 75//129 77//129 
f 172//129 47//129 49//129 
f 174//129 45//129 47//129 
f 40//129 43//129 178//129 
f 144//129 72//129 75//129 
f 149//129 102//129 73//129 
f 149//129 151//129 100//129 
f 47//129 172//129 174//129 
f 75//129 145//129 144//129 
f 147//129 73//129 72//129 
f 100//129 102//129 149//129 
f 170//129 49//129 51//129 
f 176//129 178//129 43//129 
f 73//129 147//129 149//129 
f 151//129 153//129 98//129 
f 35//129 37//129 19//129 
f 169//129 51//129 52//129 
f 49//129 170//129 172//129 
f 98//129 100//129 151//129 
f 19//129 18//129 35//129 
f 21//129 33//129 35//129 
f 22//129 29//129 33//129 
f 8//129 64//129 65//129 
f 52//129 189//129 169//129 
f 72//129 144//129 147//129 
f 35//129 18//129 21//129 
f 33//129 21//129 22//129 
f 9//129 8//129 67//129 
f 8//129 62//129 64//129 
f 51//129 168//129 170//129 
f 98//129 153//129 133//129 
f 120//129 109//129 111//129 
f 22//129 24//129 29//129 
f 24//129 9//129 30//129 
f 65//129 67//129 8//129 
f 187//129 60//129 62//129 
f 189//129 52//129 54//129 
f 133//129 96//129 98//129 
f 141//129 121//129 87//129 
f 111//129 121//129 120//129 
f 129//129 115//129 114//129 
f 30//129 29//129 24//129 
f 62//129 8//129 187//129 
f 187//129 186//129 54//129 
f 169//129 168//129 51//129 
f 137//129 139//129 89//129 
f 139//129 141//129 86//129 
f 111//129 87//129 121//129 
f 123//129 106//129 109//129 
f 127//129 114//129 107//129 
f 114//129 127//129 129//129 
f 67//129 30//129 9//129 
f 54//129 186//129 189//129 
f 132//129 94//129 96//129 
f 86//129 89//129 139//129 
f 109//129 120//129 123//129 
f 125//129 107//129 106//129 
f 129//129 117//129 115//129 
f 8//129 14//129 5//129 
f 14//129 8//129 11//129 
f 187//129 58//129 60//129 
f 96//129 133//129 132//129 
f 132//129 135//129 92//129 
f 87//129 86//129 141//129 
f 107//129 125//129 127//129 
f 3//129 191//129 187//129 
f 11//129 13//129 14//129 
f 187//129 56//129 58//129 
f 92//129 94//129 132//129 
f 135//129 137//129 91//129 
f 106//129 123//129 125//129 
f 197//129 191//129 3//129 
f 5//129 187//129 8//129 
f 54//129 56//129 187//129 
f 89//129 91//129 137//129 
f 187//129 5//129 3//129 
f 198//129 193//129 191//129 
f 91//129 92//129 135//129 
f 191//129 197//129 198//129 
f 3//129 2//129 197//129 
f 37//129 27//129 19//129 
o mesh22
f 194//130 193//130 198//130 
f 198//130 195//130 194//130 
o mesh23
f 195//131 198//131 197//131 
f 197//131 196//131 195//131 
o mesh24
f 196//132 197//132 2//132 
f 2//132 1//132 196//132 
