# https://github.com/mikedh/trimesh
v 0.05781515 0.00538276 0.01888535
v 0.06371200 0.00066711 0.01255452
v 0.06037666 0.01142047 0.01249849
v 0.01838478 0.01528422 0.01372104
v 0.01623588 -0.01232963 0.02008205
v 0.04414616 0.01055991 0.01154068
v 0.01656553 0.01558729 0.01857641
v 0.06236142 0.00636322 0.01605794
v 0.05967021 -0.00195204 0.01682202
v 0.05266037 0.01115147 0.01167768
v 0.02585495 -0.00676900 0.01271676
v 0.05866031 0.01015140 0.01613221
v 0.01950198 0.01569550 0.01652065
v 0.01598079 0.00977818 0.02019117
v 0.06330105 0.00738039 0.01277447
v 0.05260569 -0.00560670 0.01272933
v 0.05656636 0.00002463 0.01902574
v 0.06027799 0.00183991 0.01784651
v 0.06243047 0.00923635 0.01246182
v 0.01833524 0.01555432 0.01389568
v 0.01964101 -0.01238114 0.01491066
v 0.02645011 0.00897202 0.01285357
v 0.05874182 0.00912787 0.01704088
v 0.06026363 0.01124777 0.01343515
v 0.01594845 0.01414966 0.01919980
v 0.06303967 0.00748920 0.01431830
v 0.05680256 -0.00297858 0.01681158
v 0.05978214 -0.00211715 0.01656131
v 0.05050461 -0.00594763 0.01272951
v 0.01592725 -0.00913211 0.02036157
v 0.02469437 0.00253776 0.02010587
v 0.06025798 0.00637212 0.01782205
v 0.05907642 -0.00023566 0.01807720
v 0.05752180 0.00075749 0.01886199
v 0.06219277 0.00082395 0.01602823
v 0.02206809 -0.00852140 0.01394388
v 0.01667778 -0.01248687 0.01980377
v 0.01617336 0.01535529 0.01883899
v 0.05972171 0.01100386 0.01416261
v 0.06308479 0.00068399 0.01434446
v 0.06226042 0.00907876 0.01347779
v 0.06056422 0.01000851 0.01506124
v 0.05857819 -0.00089884 0.01787168
v 0.01955785 -0.01256935 0.01512640
v 0.02468920 0.00157162 0.02011198
v 0.05962433 0.00746906 0.01775106
v 0.06006440 -0.00103408 0.01697760
v 0.06123571 0.00084840 0.01682478
v 0.05042194 -0.00576022 0.01420853
v 0.06215069 0.00818759 0.01504872
v 0.06030694 0.00811437 0.01690556
vn 0.19591744 0.16210477 0.96712895
vn 0.79113696 -0.35449534 -0.49843291
vn 0.41013990 0.76786685 -0.49210340
vn -0.50712915 0.22884367 -0.83093357
vn -0.71044752 -0.55844058 0.42826213
vn -0.01210057 0.14995637 -0.98861856
vn -0.23122986 0.93143799 0.28099113
vn 0.77943618 0.16521880 0.60430289
vn 0.44360523 -0.56694454 0.69410971
vn 0.04453948 0.36263490 -0.93086635
vn -0.10142708 -0.17256575 -0.97976202
vn 0.24705481 0.75050902 0.61294383
vn 0.06444553 0.99621538 0.05832397
vn -0.65137080 0.09422817 0.75288587
vn 0.89028119 0.19606657 -0.41104415
vn 0.25108670 -0.78933560 -0.56027207
vn 0.16722403 -0.27448019 0.94694073
vn 0.53133144 -0.08793342 0.84258804
vn 0.67782142 0.45736198 -0.57565454
vn -0.46470317 0.72049486 -0.51472140
vn -0.39625285 -0.43710761 -0.80741602
vn -0.08372328 0.02191599 -0.99624801
vn 0.25171587 0.56537165 0.78548967
vn 0.42787328 0.84610043 0.31786557
vn -0.81246357 0.23688731 0.53271695
vn 0.89725164 0.29748870 0.32625139
vn 0.25145889 -0.78176771 0.57062042
vn 0.53866086 -0.77628346 0.32745758
vn 0.07712294 -0.49712086 -0.86424702
vn -0.83969171 -0.08508900 0.53635594
vn 0.02856986 0.01596181 0.99946435
vn 0.51037647 0.17726761 0.84148206
vn 0.41982139 -0.31465164 0.85131918
vn 0.28883129 -0.09648136 0.95250608
vn 0.76806451 -0.25264978 0.58842586
vn -0.28683759 -0.05769498 -0.95624029
vn -0.10334225 -0.96514116 0.24046397
vn -0.70205348 0.56592212 0.43226505
vn 0.24290542 0.84592234 0.47477612
vn 0.87000721 -0.32933918 0.36691028
vn 0.75191401 0.59324551 0.28755014
vn 0.53832323 0.65909845 0.52516410
vn 0.25143120 -0.52198509 0.81505455
vn -0.32643832 -0.85899385 -0.39442058
vn 0.02890214 0.00246265 0.99957921
vn 0.33959541 0.40156938 0.85053924
vn 0.59650536 -0.35579109 0.71944010
vn 0.60765132 -0.24702522 0.75481019
vn 0.24051205 -0.92177908 0.30410079
vn 0.69393128 0.50322337 0.51500060
vn 0.53043678 0.48479974 0.69541789
f 10//10 2//2 6//6
f 10//10 6//6 4//4
f 16//16 6//6 2//2
f 19//19 10//10 3//3
f 19//19 2//2 10//10
f 19//19 15//15 2//2
f 20//20 10//10 4//4
f 20//20 3//3 10//10
f 20//20 13//13 3//3
f 20//20 7//7 13//13
f 21//21 5//5 4//4
f 22//22 11//11 4//4
f 22//22 4//4 6//6
f 22//22 6//6 11//11
f 23//23 12//12 7//7
f 24//24 13//13 7//7
f 24//24 3//3 13//13
f 24//24 19//19 3//3
f 25//25 14//14 1//1
f 26//26 2//2 15//15
f 26//26 15//15 19//19
f 28//28 16//16 2//2
f 28//28 27//27 16//16
f 28//28 9//9 27//27
f 29//29 11//11 6//6
f 29//29 6//6 16//16
f 29//29 21//21 11//11
f 30//30 5//5 17//17
f 30//30 14//14 25//25
f 30//30 25//25 4//4
f 30//30 4//4 5//5
f 31//31 17//17 1//1
f 31//31 1//1 14//14
f 31//31 14//14 30//30
f 32//32 18//18 8//8
f 32//32 1//1 18//18
f 34//34 18//18 1//1
f 34//34 1//1 17//17
f 34//34 33//33 18//18
f 34//34 17//17 33//33
f 35//35 8//8 18//18
f 35//35 9//9 28//28
f 36//36 21//21 4//4
f 36//36 4//4 11//11
f 36//36 11//11 21//21
f 37//37 27//27 5//5
f 38//38 23//23 7//7
f 38//38 25//25 1//1
f 38//38 7//7 20//20
f 38//38 20//20 4//4
f 38//38 4//4 25//25
f 39//39 24//24 7//7
f 39//39 7//7 12//12
f 40//40 26//26 8//8
f 40//40 2//2 26//26
f 40//40 8//8 35//35
f 40//40 35//35 28//28
f 40//40 28//28 2//2
f 41//41 26//26 19//19
f 41//41 19//19 24//24
f 42//42 12//12 23//23
f 42//42 39//39 12//12
f 42//42 24//24 39//39
f 42//42 41//41 24//24
f 43//43 27//27 9//9
f 43//43 17//17 5//5
f 43//43 5//5 27//27
f 43//43 33//33 17//17
f 43//43 9//9 33//33
f 44//44 29//29 16//16
f 44//44 21//21 29//29
f 44//44 16//16 37//37
f 44//44 37//37 5//5
f 44//44 5//5 21//21
f 45//45 31//31 30//30
f 45//45 30//30 17//17
f 45//45 17//17 31//31
f 46//46 1//1 32//32
f 46//46 38//38 1//1
f 46//46 23//23 38//38
f 47//47 33//33 9//9
f 47//47 9//9 35//35
f 48//48 35//35 18//18
f 48//48 18//18 33//33
f 48//48 47//47 35//35
f 48//48 33//33 47//47
f 49//49 37//37 16//16
f 49//49 16//16 27//27
f 49//49 27//27 37//37
f 50//50 8//8 26//26
f 50//50 26//26 41//41
f 50//50 41//41 42//42
f 51//51 42//42 23//23
f 51//51 23//23 46//46
f 51//51 50//50 42//42
f 51//51 8//8 50//50
f 51//51 46//46 32//32
f 51//51 32//32 8//8

