# https://github.com/mikedh/trimesh
v -0.00370828 0.06782555 0.01760076
v 0.00282749 0.06661809 0.01227657
v -0.00325395 0.07530708 -0.00889690
v -0.00766378 0.06767052 -0.01540797
v -0.01136854 0.06760486 0.01465510
v 0.00316744 0.06658204 -0.00318024
v -0.00104688 0.07400034 0.01214991
v 0.00175234 0.06675581 0.01375247
v -0.01314966 0.07225594 -0.00847642
v -0.00242006 0.06766371 -0.01428944
v -0.00861485 0.07223264 0.01464087
v 0.00167137 0.07261688 -0.00339348
v -0.00749622 0.06776222 0.01696378
v -0.00207333 0.07144272 0.01578165
v -0.00747476 0.07312447 -0.01200845
v -0.01442619 0.06963001 -0.00569649
v -0.00346916 0.06760157 -0.01535086
v -0.00379670 0.07521920 0.00821026
v -0.00049631 0.07424113 0.00798377
v 0.00035824 0.07341371 -0.00737571
v 0.00245687 0.06956196 0.01134560
v -0.00927099 0.06970818 0.01576865
v -0.00282113 0.06964106 0.01692719
v -0.00666209 0.07410606 0.01308307
v -0.00661964 0.07508665 -0.00954151
v -0.01142660 0.07022207 -0.01300811
v -0.01192707 0.07156511 0.01008864
v -0.00589179 0.07145859 -0.01385112
v -0.00274145 0.07518964 0.00714446
v -0.00026222 0.07411884 0.00192668
v -0.00462017 0.07215040 -0.01310917
v -0.00389608 0.06833705 -0.01551920
v 0.00259846 0.06863541 0.01210634
v 0.00251918 0.06951546 0.00216959
v 0.00148113 0.07231609 0.00591762
v -0.01123324 0.07035194 0.01391451
v -0.00557563 0.07034476 0.01669807
v -0.00203169 0.07412122 0.01290085
v -0.01240804 0.07235339 -0.01021976
v -0.00763403 0.07509394 -0.00142181
v -0.01349713 0.06966302 -0.01051963
v -0.01301956 0.07248121 -0.00455120
v -0.00922629 0.07319193 0.01304116
v -0.01322197 0.06972530 0.00498880
v -0.00726856 0.07108653 -0.01410253
v -0.00588609 0.07438317 -0.01079535
v -0.00246852 0.06818806 -0.01419476
v -0.00242141 0.07120662 -0.01195899
v 0.00228456 0.06677434 0.01327220
v 0.00055096 0.07218369 0.01296627
v 0.00042318 0.07333700 0.00812318
v -0.01027249 0.07043969 0.01480447
v -0.01223238 0.06971897 0.01122176
v -0.00739064 0.06963068 0.01663082
v -0.00278709 0.07050041 0.01664536
v -0.00762064 0.07135821 0.01563855
v -0.01078037 0.07204274 -0.01183747
v -0.01064952 0.07389426 -0.00827069
v -0.00744659 0.07507926 -0.00846890
v -0.00741432 0.07401009 0.01259711
v -0.01417021 0.07050522 -0.00667261
v -0.01251496 0.07030130 -0.01212003
v -0.01322528 0.07049309 -0.01034468
v -0.00868084 0.07293612 0.01384530
vn 0.12992126 -0.44576251 0.88567277
vn 0.73773620 -0.63870955 0.21862162
vn 0.29726757 0.89500840 -0.33255369
vn -0.29953852 -0.52941216 -0.79372504
vn -0.67155695 -0.56473329 0.47967444
vn 0.76834010 -0.61796898 -0.16663684
vn 0.48976259 0.82545530 0.28063528
vn 0.46015047 -0.62482536 0.63075733
vn -0.77163789 0.61454328 -0.16404730
vn 0.71332542 -0.44175609 -0.54407573
vn -0.35514915 0.62189395 0.69793767
vn 0.84126643 0.53221007 -0.09499075
vn -0.26446720 -0.54115792 0.79825135
vn 0.37062016 0.53091865 0.76208010
vn -0.18680763 0.74783727 -0.63705756
vn -0.91614861 -0.40079209 -0.00611690
vn 0.39070997 -0.57382276 -0.71977299
vn -0.01943872 0.99337200 0.11328814
vn 0.54109282 0.83810800 0.06923541
vn 0.75407980 0.56714247 -0.33122963
vn 0.92375332 0.35478606 0.14424510
vn -0.47710008 0.26645853 0.83748156
vn 0.39803309 0.21156488 0.89264213
vn -0.12256541 0.88774622 0.44371654
vn -0.15307137 0.93222015 -0.32792492
vn -0.53714490 0.22967184 -0.81161949
vn -0.81241225 0.55677029 0.17318538
vn 0.04071995 0.61356613 -0.78859273
vn 0.22038035 0.97444035 0.04357192
vn 0.51252972 0.85866710 -0.00202541
vn 0.29886151 0.64206056 -0.70600285
vn 0.29078785 0.22267600 -0.93051482
vn 0.91316075 0.23499721 0.33303715
vn 0.97094258 0.23930266 0.00217785
vn 0.83895634 0.54199409 0.04893539
vn -0.79043970 0.37589794 0.48363812
vn -0.08388182 0.48070261 0.87286244
vn 0.22383867 0.85652770 0.46503393
vn -0.61913358 0.67258535 -0.40534252
vn -0.26173741 0.96461970 0.03166024
vn -0.86495450 -0.38128894 -0.32630117
vn -0.71866465 0.69309313 0.05606277
vn -0.52113989 0.78416811 0.33688810
vn -0.99294703 0.02438786 0.11602340
vn -0.16190849 0.54178511 -0.82477544
vn -0.00350120 0.80312597 -0.59579897
vn 0.74453036 0.28824685 -0.60215305
vn 0.60386191 0.50052884 -0.62033997
vn 0.70101614 -0.38742298 0.59873183
vn 0.71575812 0.53095164 0.45363055
vn 0.74245144 0.66307712 0.09536560
vn -0.57655894 0.40488485 0.70968166
vn -0.97316428 0.09086290 0.21141243
vn -0.27720696 0.30637840 0.91065283
vn 0.26993405 0.44339379 0.85471490
vn -0.21517735 0.57153813 0.79186039
vn -0.36846316 0.69246563 -0.62026305
vn -0.43073917 0.89037026 -0.14732468
vn -0.23498763 0.96632508 -0.10486497
vn -0.30639482 0.93532873 0.17686827
vn -0.94995117 0.30191156 -0.08026325
vn -0.74179838 0.10336561 -0.66260902
vn -0.86346747 0.37078940 -0.34196367
vn -0.37313389 0.71789391 0.58770693
f 6//6 5//5 4//4
f 6//6 2//2 5//5
f 8//8 5//5 2//2
f 13//13 8//8 1//1
f 13//13 5//5 8//8
f 16//16 4//4 5//5
f 17//17 10//10 6//6
f 17//17 6//6 4//4
f 20//20 12//12 6//6
f 20//20 6//6 10//10
f 22//22 5//5 13//13
f 23//23 1//1 8//8
f 23//23 8//8 14//14
f 29//29 7//7 19//19
f 29//29 3//3 18//18
f 30//30 19//19 12//12
f 30//30 12//12 20//20
f 30//30 20//20 3//3
f 30//30 29//29 19//19
f 30//30 3//3 29//29
f 31//31 3//3 20//20
f 32//32 28//28 31//31
f 32//32 17//17 4//4
f 33//33 2//2 6//6
f 33//33 6//6 21//21
f 34//34 21//21 6//6
f 34//34 6//6 12//12
f 34//34 12//12 21//21
f 35//35 21//21 12//12
f 37//37 14//14 24//24
f 38//38 24//24 14//14
f 38//38 18//18 24//24
f 38//38 29//29 18//18
f 38//38 7//7 29//29
f 40//40 18//18 3//3
f 41//41 4//4 16//16
f 43//43 42//42 27//27
f 43//43 40//40 42//42
f 43//43 27//27 36//36
f 44//44 27//27 16//16
f 44//44 16//16 5//5
f 45//45 15//15 28//28
f 45//45 4//4 26//26
f 45//45 32//32 4//4
f 45//45 28//28 32//32
f 46//46 25//25 3//3
f 46//46 3//3 31//31
f 46//46 15//15 25//25
f 46//46 31//31 28//28
f 46//46 28//28 15//15
f 47//47 20//20 10//10
f 47//47 10//10 17//17
f 47//47 17//17 32//32
f 48//48 32//32 31//31
f 48//48 31//31 20//20
f 48//48 47//47 32//32
f 48//48 20//20 47//47
f 49//49 8//8 2//2
f 49//49 2//2 33//33
f 49//49 14//14 8//8
f 50//50 33//33 21//21
f 50//50 49//49 33//33
f 50//50 14//14 49//49
f 50//50 38//38 14//14
f 50//50 7//7 38//38
f 50//50 21//21 35//35
f 51//51 35//35 12//12
f 51//51 12//12 19//19
f 51//51 50//50 35//35
f 51//51 19//19 7//7
f 51//51 7//7 50//50
f 52//52 22//22 11//11
f 52//52 43//43 36//36
f 52//52 11//11 43//43
f 52//52 36//36 5//5
f 52//52 5//5 22//22
f 53//53 36//36 27//27
f 53//53 5//5 36//36
f 53//53 44//44 5//5
f 53//53 27//27 44//44
f 54//54 22//22 13//13
f 54//54 13//13 1//1
f 54//54 1//1 37//37
f 55//55 37//37 1//1
f 55//55 1//1 23//23
f 55//55 23//23 14//14
f 55//55 14//14 37//37
f 56//56 37//37 24//24
f 56//56 24//24 11//11
f 56//56 54//54 37//37
f 56//56 11//11 22//22
f 56//56 22//22 54//54
f 57//57 39//39 25//25
f 57//57 25//25 15//15
f 57//57 45//45 26//26
f 57//57 15//15 45//45
f 58//58 39//39 9//9
f 58//58 25//25 39//39
f 58//58 42//42 40//40
f 58//58 9//9 42//42
f 59//59 40//40 3//3
f 59//59 3//3 25//25
f 59//59 58//58 40//40
f 59//59 25//25 58//58
f 60//60 24//24 18//18
f 60//60 18//18 40//40
f 60//60 43//43 24//24
f 60//60 40//40 43//43
f 61//61 41//41 16//16
f 61//61 9//9 41//41
f 61//61 42//42 9//9
f 61//61 16//16 27//27
f 61//61 27//27 42//42
f 62//62 26//26 4//4
f 62//62 4//4 41//41
f 62//62 57//57 26//26
f 62//62 39//39 57//57
f 63//63 41//41 9//9
f 63//63 9//9 39//39
f 63//63 62//62 41//41
f 63//63 39//39 62//62
f 64//64 43//43 11//11
f 64//64 11//11 24//24
f 64//64 24//24 43//43

