# https://github.com/mikedh/trimesh
v -0.00328417 0.05259410 0.02253661
v 0.00337906 -0.04341094 0.02280332
v 0.00431266 0.04630662 0.01469365
v -0.01195397 0.05265283 0.01566445
v -0.01356503 0.00961130 0.02039056
v -0.01089485 0.01974195 0.01466448
v 0.00052492 0.05552081 0.01869487
v 0.00035586 -0.04005042 0.02331578
v -0.01082484 0.05050774 0.02007416
v 0.00509355 0.03574080 0.01479865
v -0.01229377 0.03260147 0.01476022
v 0.00387384 0.04953513 0.01470318
v -0.01082387 0.05265391 0.01958994
v 0.00395300 0.01400843 0.02093416
v 0.00284401 -0.03258589 0.02325710
v -0.00695253 0.05066511 0.02238284
v -0.00104834 -0.04334983 0.02246925
v -0.01160302 0.02635500 0.01456873
v -0.01416442 0.01105971 0.01694607
v 0.00310138 0.04956604 0.01836394
v -0.00094410 0.05615294 0.01913059
v -0.01134933 0.05152613 0.01868876
v 0.00488489 -0.02395793 0.02102475
v 0.00214867 -0.03900413 0.02323583
v -0.00195193 0.05244845 0.02228879
v -0.01036943 0.00967351 0.02130619
v -0.00978181 0.04950176 0.02099369
v -0.00071004 -0.04325066 0.02260490
v -0.00048143 -0.03796583 0.02314513
v -0.01396330 0.01138430 0.01593389
v 0.00238515 0.05250446 0.01848462
v 0.00416093 0.04629372 0.01559887
v 0.00435166 0.03557942 0.01768099
v -0.01166721 0.05316399 0.01618359
v -0.00130378 0.05545214 0.02034731
v 0.00446765 -0.03689457 0.02254183
v 0.00321910 -0.04324915 0.02285417
v 0.00194196 0.05232816 0.01926015
v -0.00770531 0.04431500 0.02218268
v -0.00783436 0.04956153 0.02206168
v -0.01284802 0.01245630 0.01556265
v 0.00383687 0.04962212 0.01485185
v 0.00421729 0.04415882 0.01664543
v 0.00013757 0.05540943 0.01951409
v 0.00409855 -0.03697839 0.02269897
v 0.00108168 -0.04007417 0.02326341
v 0.00140683 0.05452446 0.01850205
v -0.00055908 0.05522221 0.02013386
v 0.00038157 0.05436206 0.01998859
v 0.00099913 0.05427620 0.01927684
vn -0.03963135 0.38497011 0.92207775
vn 0.63025175 -0.77637188 -0.00542492
vn 0.76269759 0.08689013 -0.64089195
vn -0.70704622 0.40207056 -0.58174299
vn -0.78215499 -0.08336508 0.61748185
vn -0.08248478 -0.06620994 -0.99439052
vn 0.50653113 0.82638484 -0.24599655
vn -0.14801795 -0.07942899 0.98578990
vn -0.76018892 0.11487477 0.63946586
vn 0.79690656 0.00287523 -0.60409575
vn -0.50091375 0.03742925 -0.86468750
vn 0.68670472 0.31169558 -0.65672102
vn -0.64146534 0.55599504 0.52857519
vn 0.76260973 0.03356965 0.64598721
vn 0.24407016 0.01679188 0.96961219
vn -0.27517307 0.22834128 0.93388438
vn -0.64313539 -0.75541011 -0.12542904
vn -0.20053224 -0.01159229 -0.97961852
vn -0.99481097 -0.09151734 -0.04444908
vn 0.87647813 0.13298762 0.46270982
vn 0.08678274 0.99252612 -0.08579423
vn -0.94435931 0.11876501 0.30672522
vn 0.89126398 -0.06632067 -0.44860905
vn 0.13934476 -0.02852293 0.98983306
vn 0.37292518 0.22924384 0.89909625
vn -0.24986613 -0.00999094 0.96822885
vn -0.54537595 0.10208494 0.83195177
vn -0.17496237 -0.41764293 0.89160673
vn -0.32778690 -0.03966477 0.94391867
vn -0.71795235 -0.11431233 -0.68664191
vn 0.89102357 0.34026042 0.30049933
vn 0.97431568 0.12506895 0.18726106
vn 0.93107403 0.04447068 0.36210981
vn -0.59317096 0.78324003 -0.18623444
vn 0.06246805 0.73799990 0.67190319
vn 0.98864292 -0.13453468 0.06697453
vn 0.09282790 -0.17783719 0.97967184
vn 0.72707599 0.20544480 0.65509766
vn -0.28379292 0.00294562 0.95888107
vn -0.43102853 0.06053088 0.90030574
vn -0.14321830 -0.09647817 -0.98497740
vn 0.94617686 0.31513437 0.07375414
vn 0.96097727 0.07682005 0.26574681
vn 0.55094636 0.64176736 0.53347237
vn 0.37090489 -0.01997930 0.92845592
vn 0.07602679 -0.06360969 0.99507474
vn 0.80702998 0.58740645 0.06046707
vn 0.43178002 0.52556748 0.73303808
vn 0.61604861 0.34693483 0.70719187
vn 0.73678973 0.39130113 0.55138400
f 10//10 2//2 6//6
f 12//12 4//4 7//7
f 12//12 11//11 4//4
f 15//15 1//1 8//8
f 16//16 8//8 1//1
f 16//16 1//1 13//13
f 17//17 6//6 2//2
f 18//18 10//10 6//6
f 18//18 3//3 10//10
f 18//18 12//12 3//3
f 18//18 11//11 12//12
f 19//19 5//5 4//4
f 19//19 17//17 5//5
f 21//21 7//7 4//4
f 22//22 13//13 4//4
f 22//22 4//4 5//5
f 22//22 5//5 9//9
f 22//22 9//9 13//13
f 23//23 2//2 10//10
f 24//24 15//15 8//8
f 25//25 15//15 14//14
f 25//25 1//1 15//15
f 27//27 9//9 5//5
f 27//27 16//16 13//13
f 27//27 13//13 9//9
f 28//28 17//17 2//2
f 28//28 8//8 17//17
f 29//29 17//17 8//8
f 29//29 5//5 17//17
f 29//29 26//26 5//5
f 30//30 19//19 4//4
f 30//30 4//4 11//11
f 30//30 11//11 18//18
f 30//30 18//18 6//6
f 30//30 17//17 19//19
f 33//33 20//20 14//14
f 33//33 23//23 10//10
f 33//33 14//14 23//23
f 34//34 21//21 4//4
f 34//34 4//4 13//13
f 34//34 13//13 21//21
f 35//35 21//21 13//13
f 35//35 13//13 1//1
f 35//35 1//1 25//25
f 36//36 2//2 23//23
f 36//36 23//23 14//14
f 36//36 14//14 15//15
f 37//37 2//2 15//15
f 37//37 15//15 24//24
f 37//37 28//28 2//2
f 37//37 8//8 28//28
f 38//38 25//25 14//14
f 38//38 14//14 20//20
f 38//38 20//20 31//31
f 39//39 5//5 26//26
f 39//39 26//26 29//29
f 39//39 29//29 8//8
f 39//39 8//8 16//16
f 40//40 27//27 5//5
f 40//40 16//16 27//27
f 40//40 39//39 16//16
f 40//40 5//5 39//39
f 41//41 30//30 6//6
f 41//41 6//6 17//17
f 41//41 17//17 30//30
f 42//42 31//31 20//20
f 42//42 20//20 32//32
f 42//42 32//32 3//3
f 42//42 3//3 12//12
f 43//43 10//10 3//3
f 43//43 3//3 32//32
f 43//43 33//33 10//10
f 43//43 32//32 20//20
f 43//43 20//20 33//33
f 44//44 7//7 21//21
f 44//44 21//21 35//35
f 45//45 36//36 15//15
f 45//45 15//15 2//2
f 45//45 2//2 36//36
f 46//46 37//37 24//24
f 46//46 24//24 8//8
f 46//46 8//8 37//37
f 47//47 42//42 12//12
f 47//47 12//12 7//7
f 47//47 31//31 42//42
f 47//47 7//7 44//44
f 48//48 44//44 35//35
f 48//48 35//35 25//25
f 49//49 25//25 38//38
f 49//49 48//48 25//25
f 49//49 44//44 48//48
f 50//50 47//47 44//44
f 50//50 44//44 49//49
f 50//50 49//49 38//38
f 50//50 38//38 31//31
f 50//50 31//31 47//47

