# https://github.com/mikedh/trimesh
v -0.01141050 -0.00075884 0.01821777
v -0.01137756 -0.01365630 0.01801934
v -0.02400626 -0.00086415 -0.01308271
v -0.04098172 -0.00125896 -0.01182545
v -0.06462364 -0.00605816 0.01771070
v -0.02121448 -0.01377142 -0.00987837
v -0.02375934 0.01077100 -0.00737350
v -0.06018433 -0.00862878 0.02113654
v -0.03086847 -0.00979084 -0.01063441
v -0.01134643 -0.00407737 0.01811084
v -0.02397990 0.00092453 -0.01284974
v -0.06026807 0.00111984 0.01849052
v -0.04997111 -0.00423505 0.02119071
v -0.01655506 -0.02022378 0.01591402
v -0.06132758 -0.01360610 -0.00516585
v -0.02138533 -0.01290051 -0.01020774
v -0.02349043 0.00954663 -0.00913085
v -0.01686933 0.00464862 0.01779252
v -0.06174305 -0.00322269 0.02020410
v -0.06600422 -0.00075244 -0.00484289
v -0.05229992 -0.00878822 0.02107203
v -0.01142925 -0.00930087 0.01809809
v -0.01543035 -0.02003428 0.01655552
v -0.06379702 -0.01140365 0.01137585
v -0.01821513 -0.02004040 0.01152336
v -0.06309919 -0.01081837 -0.00758749
v -0.03801589 0.00062663 -0.01163588
v -0.02367622 0.01066816 -0.00342255
v -0.01672459 0.00450716 0.01783232
v -0.05913233 -0.00237689 0.02110816
v -0.06374422 0.00018658 0.01569698
v -0.06086705 -0.00707675 0.02115299
v -0.05804233 0.00137917 -0.00644284
v -0.06110445 -0.01036632 0.01929518
v -0.06704340 -0.00784880 -0.00532573
v -0.06127403 -0.01233420 0.01259653
v -0.02116504 -0.01580462 -0.00433680
v -0.01789105 -0.02016366 0.01298279
v -0.06303478 -0.01268974 -0.00615330
v -0.06144740 -0.00079042 -0.00749705
v -0.02399647 0.00408994 -0.01171360
v -0.06220419 0.00213829 0.01044237
v -0.02388934 0.00577010 0.01353499
v -0.05829405 -0.00063142 0.02008072
v -0.05417160 -0.00254102 0.02111368
v -0.06219140 0.00019485 0.01854182
v -0.06695502 -0.00298958 0.00099428
v -0.06101106 -0.00523199 0.02107850
v -0.06364683 -0.00861980 0.01848134
v -0.06011472 -0.00335228 0.02115279
v -0.06093979 -0.00948946 0.02031726
v -0.06466122 -0.00974083 0.01263286
v -0.05717434 -0.01346307 0.00840192
v -0.06192560 -0.01143283 0.01659025
v -0.01814825 -0.02006972 0.01176884
v -0.06587122 -0.00948024 -0.00587500
v -0.06316867 -0.01232221 0.00096605
v -0.06435227 -0.00892519 -0.00773634
v -0.06428633 -0.00084172 -0.00648351
v -0.03773950 0.00283773 -0.01043626
v -0.02370351 0.00821563 -0.00989026
v -0.05712082 0.00325924 0.01152526
v -0.06133860 0.00217167 0.01261678
v -0.06571845 -0.00014391 0.00611894
vn 0.81372217 0.27597216 0.51156192
vn 0.81539668 -0.26725633 0.51351952
vn 0.40400653 -0.00641455 -0.91473361
vn -0.13480283 0.07680826 -0.98789103
vn -0.90151909 -0.00778284 0.43266935
vn 0.50547630 -0.54559506 -0.66844576
vn 0.30577023 0.90631865 -0.29170374
vn -0.22095064 -0.32515252 0.91948717
vn -0.06698607 -0.28722441 -0.95551819
vn 0.97706230 0.00522958 0.21288943
vn 0.49363561 0.21059066 -0.84378639
vn -0.22870800 0.81225841 0.53659009
vn 0.04704589 0.05450530 0.99740456
vn 0.00105703 -0.98343312 0.18126823
vn -0.24222296 -0.93707016 -0.25145089
vn 0.53892734 -0.15902244 -0.82720565
vn 0.45956879 0.59530417 -0.65909747
vn 0.33285762 0.76430830 0.55230302
vn -0.60891825 0.21845010 0.76256024
vn -0.72946663 0.58579607 -0.35315916
vn 0.01700206 -0.20056317 0.97953323
vn 0.17833890 -0.01498885 0.98385495
vn 0.48479523 -0.76251171 0.42842675
vn -0.65556993 -0.74672244 0.11239955
vn 0.22425311 -0.94735320 -0.22854419
vn -0.32070924 -0.42944840 -0.84422725
vn -0.13307774 0.36839593 -0.92009497
vn 0.23478780 0.96847437 0.08325918
vn 0.48727975 0.58379707 0.64941467
vn -0.13148755 0.32391171 0.93690567
vn -0.76946070 0.57474487 0.27856520
vn -0.37866800 -0.07491466 0.92249571
vn -0.26004661 0.86556979 -0.42797744
vn -0.36107566 -0.75675903 0.54492214
vn -0.91947566 -0.18276460 -0.34808276
vn -0.28365503 -0.95084732 0.12421433
vn 0.20320600 -0.92830864 -0.31136858
vn 0.01962505 -0.99887287 -0.04321856
vn -0.47240686 -0.77050493 -0.42796484
vn -0.26032128 0.42175860 -0.86853470
vn 0.33048523 0.34456735 -0.87866538
vn -0.42395518 0.90481507 0.03964459
vn -0.05549915 0.94940953 0.30909769
vn -0.07264825 0.57543975 0.81461115
vn 0.01041548 0.21121329 0.97738450
vn -0.56936932 0.58819835 0.57431810
vn -0.98968783 0.13607441 0.04474101
vn -0.44571067 0.04903691 0.89383297
vn -0.77277926 -0.36911756 0.51629879
vn -0.25115131 0.18677945 0.94975600
vn -0.39278374 -0.54148064 0.74331665
vn -0.90612293 -0.38978476 0.16434437
vn -0.18389090 -0.98010979 0.07462536
vn -0.45628433 -0.83422652 0.30962997
vn 0.13145450 -0.98164969 -0.13814341
vn -0.77574379 -0.52390211 -0.35177857
vn -0.56003783 -0.82756514 0.03864674
vn -0.47065982 -0.14914236 -0.86961825
vn -0.46178911 0.52344887 -0.71606710
vn -0.17356689 0.51599814 -0.83882087
vn 0.35541858 0.40020662 -0.84469657
vn -0.17097525 0.97602927 0.13466375
vn -0.33133657 0.92852558 0.16750025
vn -0.82978092 0.55293750 0.07565544
f 9//9 4//4 3//3
f 10//10 6//6 1//1
f 10//10 1//1 2//2
f 10//10 2//2 6//6
f 11//11 3//3 4//4
f 16//16 9//9 3//3
f 16//16 3//3 11//11
f 16//16 11//11 1//1
f 16//16 1//1 6//6
f 17//17 7//7 1//1
f 17//17 1//1 11//11
f 21//21 13//13 8//8
f 21//21 2//2 13//13
f 22//22 13//13 2//2
f 22//22 2//2 1//1
f 22//22 1//1 13//13
f 23//23 6//6 2//2
f 23//23 2//2 21//21
f 23//23 21//21 8//8
f 25//25 6//6 23//23
f 26//26 16//16 6//6
f 26//26 9//9 16//16
f 26//26 4//4 9//9
f 27//27 11//11 4//4
f 28//28 18//18 7//7
f 29//29 13//13 1//1
f 29//29 1//1 7//7
f 29//29 7//7 18//18
f 32//32 8//8 13//13
f 33//33 7//7 17//17
f 34//34 14//14 23//23
f 36//36 24//24 15//15
f 37//37 25//25 15//15
f 37//37 15//15 6//6
f 37//37 6//6 25//25
f 38//38 14//14 15//15
f 39//39 26//26 6//6
f 39//39 6//6 15//15
f 40//40 27//27 4//4
f 40//40 33//33 17//17
f 41//41 11//11 27//27
f 42//42 33//33 20//20
f 42//42 7//7 33//33
f 43//43 28//28 12//12
f 43//43 12//12 18//18
f 43//43 18//18 28//28
f 44//44 30//30 18//18
f 44//44 18//18 12//12
f 44//44 12//12 30//30
f 45//45 29//29 18//18
f 45//45 18//18 30//30
f 45//45 30//30 13//13
f 45//45 13//13 29//29
f 46//46 30//30 12//12
f 46//46 31//31 5//5
f 46//46 5//5 19//19
f 47//47 35//35 5//5
f 47//47 20//20 35//35
f 48//48 19//19 5//5
f 48//48 5//5 32//32
f 49//49 32//32 5//5
f 50//50 32//32 13//13
f 50//50 13//13 30//30
f 50//50 48//48 32//32
f 50//50 19//19 48//48
f 50//50 46//46 19//19
f 50//50 30//30 46//46
f 51//51 34//34 23//23
f 51//51 23//23 8//8
f 51//51 49//49 34//34
f 51//51 8//8 32//32
f 51//51 32//32 49//49
f 52//52 35//35 24//24
f 52//52 5//5 35//35
f 52//52 49//49 5//5
f 52//52 24//24 49//49
f 53//53 36//36 15//15
f 53//53 15//15 14//14
f 53//53 14//14 36//36
f 54//54 24//24 36//36
f 54//54 49//49 24//24
f 54//54 34//34 49//49
f 54//54 36//36 14//14
f 54//54 14//14 34//34
f 55//55 25//25 23//23
f 55//55 23//23 14//14
f 55//55 14//14 38//38
f 55//55 38//38 15//15
f 55//55 15//15 25//25
f 56//56 26//26 39//39
f 56//56 39//39 24//24
f 56//56 24//24 35//35
f 57//57 39//39 15//15
f 57//57 15//15 24//24
f 57//57 24//24 39//39
f 58//58 40//40 4//4
f 58//58 4//4 26//26
f 58//58 56//56 35//35
f 58//58 26//26 56//56
f 59//59 20//20 33//33
f 59//59 33//33 40//40
f 59//59 40//40 58//58
f 59//59 58//58 35//35
f 59//59 35//35 20//20
f 60//60 40//40 17//17
f 60//60 27//27 40//40
f 61//61 41//41 27//27
f 61//61 17//17 11//11
f 61//61 11//11 41//41
f 61//61 60//60 17//17
f 61//61 27//27 60//60
f 62//62 28//28 7//7
f 62//62 7//7 42//42
f 62//62 12//12 28//28
f 63//63 42//42 31//31
f 63//63 62//62 42//42
f 63//63 12//12 62//62
f 63//63 46//46 12//12
f 63//63 31//31 46//46
f 64//64 42//42 20//20
f 64//64 31//31 42//42
f 64//64 20//20 47//47
f 64//64 47//47 5//5
f 64//64 5//5 31//31

