# https://github.com/mikedh/trimesh
v -0.01427144 0.05912960 0.00781617
v -0.00320334 0.00573535 -0.01897697
v -0.00548881 0.05700508 -0.01797911
v -0.00950458 0.05762258 -0.01796521
v -0.01629372 0.01099975 -0.01691165
v -0.00333505 0.02595980 -0.02023619
v -0.00992797 0.05925360 -0.01711554
v -0.01642415 0.01760549 0.00782604
v -0.00562377 0.05028052 -0.01885946
v -0.00387579 0.02603145 -0.02013400
v -0.01275259 0.01107129 -0.01768703
v -0.01311628 0.02595361 0.00778686
v -0.00312617 0.02399696 -0.02013460
v -0.00569158 0.05684699 -0.01828930
v -0.01599390 0.05894559 -0.01122737
v -0.00566553 0.00557495 -0.01847153
v -0.00726854 0.05047753 -0.01871010
v -0.01602480 0.01092584 -0.01699785
v -0.01400463 0.01990431 0.00809897
v -0.00972732 0.05882996 -0.01739327
v -0.01616724 0.05680743 -0.00303274
v -0.01409840 0.05777818 -0.01573661
v -0.00355256 0.00534073 -0.01883057
v -0.01047057 0.05750412 -0.01767306
v -0.01575390 0.01810682 0.00795191
v -0.01441482 0.05887402 0.00755660
v -0.01616155 0.05275101 -0.01102212
v -0.01504489 0.05865560 -0.01410600
v -0.01251891 0.05846512 -0.01640310
v -0.01503556 0.05686342 0.00436145
v -0.01602199 0.05856757 -0.00520709
v -0.01502161 0.05882429 0.00335520
vn 0.00863227 0.63551008 0.77204431
vn 0.75350405 -0.40501076 -0.51787830
vn 0.82271815 0.53185636 -0.20065805
vn -0.16493018 0.24395841 -0.95565806
vn -0.76357155 -0.47988518 -0.43205173
vn 0.50719537 0.04652400 -0.86057445
vn 0.02631831 0.87739847 -0.47903995
vn -0.51782433 -0.53621304 0.66658348
vn 0.12580530 0.07523479 -0.98919803
vn -0.21804700 0.00028674 -0.97593823
vn -0.19355031 -0.07714084 -0.97805295
vn 0.69153428 -0.00505299 0.72232597
vn 0.78784593 -0.02894613 -0.61519177
vn 0.39489657 0.35392103 -0.84781873
vn -0.73307204 0.66812977 -0.12731063
vn -0.27397563 -0.85016030 -0.44962742
vn -0.16519827 0.04501173 -0.98523270
vn -0.33189359 -0.27300149 -0.90294897
vn 0.49195977 -0.21900474 0.84262240
vn -0.11961950 0.47789861 -0.87023220
vn -0.99260423 0.09695738 0.07304865
vn -0.64813465 0.26273335 -0.71476756
vn 0.34453141 -0.87808090 -0.33207235
vn -0.36730172 0.18347673 -0.91182550
vn 0.21253127 -0.39412252 0.89414646
vn -0.94833336 0.18274182 0.25936320
vn -0.99751049 0.01715235 -0.06840042
vn -0.69635888 0.59882419 -0.39559310
vn -0.43879167 0.52951915 -0.72599679
vn -0.98652623 0.05559283 0.15386827
vn -0.87785867 0.47737987 0.03837463
vn -0.86313605 0.49478748 0.10090349
f 7//7 1//1 3//3
f 11//11 6//6 2//2
f 11//11 10//10 6//6
f 13//13 6//6 3//3
f 13//13 3//3 1//1
f 13//13 1//1 12//12
f 13//13 12//12 2//2
f 13//13 2//2 6//6
f 14//14 7//7 3//3
f 14//14 9//9 4//4
f 14//14 3//3 6//6
f 14//14 6//6 9//9
f 15//15 1//1 7//7
f 16//16 8//8 5//5
f 16//16 11//11 2//2
f 17//17 9//9 6//6
f 17//17 4//4 9//9
f 17//17 10//10 4//4
f 17//17 6//6 10//10
f 18//18 4//4 10//10
f 18//18 10//10 11//11
f 18//18 16//16 5//5
f 18//18 11//11 16//16
f 19//19 2//2 12//12
f 19//19 12//12 1//1
f 20//20 14//14 4//4
f 20//20 7//7 14//14
f 23//23 16//16 2//2
f 23//23 8//8 16//16
f 23//23 2//2 19//19
f 24//24 18//18 5//5
f 24//24 4//4 18//18
f 24//24 5//5 22//22
f 24//24 20//20 4//4
f 25//25 19//19 1//1
f 25//25 1//1 8//8
f 25//25 23//23 19//19
f 25//25 8//8 23//23
f 26//26 8//8 1//1
f 27//27 21//21 15//15
f 27//27 15//15 5//5
f 27//27 5//5 8//8
f 27//27 8//8 21//21
f 28//28 15//15 7//7
f 28//28 22//22 5//5
f 28//28 5//5 15//15
f 29//29 24//24 22//22
f 29//29 7//7 20//20
f 29//29 20//20 24//24
f 29//29 28//28 7//7
f 29//29 22//22 28//28
f 30//30 26//26 21//21
f 30//30 21//21 8//8
f 30//30 8//8 26//26
f 31//31 15//15 21//21
f 32//32 26//26 1//1
f 32//32 1//1 15//15
f 32//32 15//15 31//31
f 32//32 31//31 21//21
f 32//32 21//21 26//26

