# https://github.com/mikedh/trimesh
v 0.00550494 0.04375940 0.01221467
v 0.01017913 0.02671908 0.01019979
v 0.00477836 0.06343014 -0.00649724
v -0.00068789 0.05867772 -0.01778431
v -0.00062626 0.02776841 -0.01856744
v 0.00207706 0.06484415 -0.00964612
v 0.00637971 0.05767404 0.00724899
v 0.00676611 0.02663974 0.01223400
v 0.01026467 0.02060546 -0.01788916
v 0.00334537 0.06376500 -0.01029630
v 0.00118557 0.06370850 -0.01253002
v 0.00598244 0.04373146 0.01170026
v 0.00370901 0.06454086 -0.00551695
v 0.00844096 0.02662932 0.01138335
v 0.00554963 0.03953841 0.01219223
v 0.00152929 0.02030867 -0.01865472
v 0.00941986 0.03129050 -0.02018719
v 0.00157375 0.06248516 -0.01314367
v 0.00475790 0.06357168 -0.00557727
v 0.00298898 0.06464172 -0.00703935
v 0.00980720 0.01978497 -0.01851711
v 0.00997828 0.03057565 0.00890597
v 0.00667083 0.05552369 0.00297330
v 0.00538810 0.03314833 -0.02169738
v 0.00187028 0.06346406 -0.01217770
v 0.00149119 0.05917781 -0.01534483
v 0.00641668 0.05758705 0.00710032
v 0.01001338 0.02940115 0.00965118
v 0.00568258 0.05843999 -0.00622443
v 0.00014159 0.02914288 -0.01917909
v 0.00630986 0.03268377 -0.02169492
v 0.00246337 0.06247145 -0.01221832
v -0.00003145 0.05911832 -0.01694121
v 0.00671795 0.05539966 0.00709311
v 0.00526771 0.03256941 -0.02163473
v -0.00007862 0.04032624 -0.01923815
v 0.00805484 0.03221243 -0.02078297
v 0.00897114 0.03039557 -0.02055278
v 0.00178336 0.02033764 -0.01871520
v -0.00062007 0.05211125 -0.01835446
v 0.00199846 0.03413309 -0.02037446
v 0.00208827 0.03823165 -0.02040977
vn -0.27031544 0.18453658 0.94492106
vn 0.77087972 -0.45538815 0.44538307
vn 0.86341955 0.47942126 -0.15704120
vn -0.48811301 0.50050168 -0.71501312
vn -0.91297433 -0.15381937 -0.37791200
vn -0.38990085 0.92048262 -0.02625008
vn 0.08927078 0.66136758 0.74473059
vn -0.31644957 -0.51104615 0.79918177
vn 0.95826449 -0.23320519 -0.16536171
vn 0.71768676 0.57454684 -0.39347382
vn -0.45856100 0.78403468 -0.41834367
vn 0.76873953 0.15488709 0.62052359
vn -0.05249568 0.95296827 0.29848900
vn 0.41909293 -0.58155756 0.69724595
vn -0.67507044 -0.03047669 0.73712352
vn -0.59531803 -0.70695737 -0.38184776
vn 0.84707474 0.13447225 -0.51418051
vn 0.60705292 0.45304023 -0.65287158
vn 0.83505967 0.54850149 0.04267860
vn -0.60265009 0.74849525 0.27670876
vn 0.45216750 -0.75425869 -0.47606552
vn 0.99154151 0.10913913 0.07024303
vn 0.98695805 0.15841551 -0.02860671
vn -0.13010207 0.04185882 -0.99061662
vn 0.58297923 0.55746962 -0.59106924
vn 0.70381000 0.34811448 -0.61924777
vn 0.97462161 0.21565089 0.06006180
vn 0.95137053 0.12032075 0.28357897
vn 0.98326318 0.17146632 -0.06158581
vn -0.49062257 -0.06556108 -0.86890232
vn 0.23641482 0.03028565 -0.97118011
vn 0.71300206 0.37179701 -0.59447039
vn 0.61183486 0.41255559 -0.67487479
vn 0.99024669 0.13442366 0.03663015
vn -0.20476785 -0.12129011 -0.97126661
vn -0.64928159 0.01993508 -0.76028680
vn 0.50958528 0.22710954 -0.82990608
vn 0.50529468 -0.06522770 -0.86047814
vn -0.09258865 -0.52000748 -0.84912871
vn -0.76923168 0.04605077 -0.63730836
vn -0.43466018 -0.02462947 -0.90025769
vn -0.35778011 0.04653948 -0.93264542
f 5//5 1//1 4//4
f 7//7 6//6 1//1
f 11//11 4//4 1//1
f 11//11 1//1 6//6
f 11//11 6//6 10//10
f 12//12 7//7 1//1
f 12//12 1//1 2//2
f 12//12 2//2 7//7
f 13//13 10//10 6//6
f 13//13 3//3 10//10
f 14//14 2//2 1//1
f 14//14 1//1 8//8
f 15//15 8//8 1//1
f 15//15 1//1 5//5
f 15//15 5//5 8//8
f 16//16 8//8 5//5
f 17//17 10//10 3//3
f 19//19 13//13 7//7
f 19//19 3//3 13//13
f 20//20 13//13 6//6
f 20//20 6//6 7//7
f 20//20 7//7 13//13
f 21//21 9//9 2//2
f 21//21 2//2 14//14
f 21//21 14//14 8//8
f 21//21 8//8 16//16
f 21//21 17//17 9//9
f 22//22 2//2 9//9
f 22//22 9//9 17//17
f 23//23 22//22 17//17
f 25//25 11//11 10//10
f 27//27 19//19 7//7
f 27//27 3//3 19//19
f 27//27 23//23 3//3
f 27//27 7//7 22//22
f 28//28 22//22 7//7
f 28//28 7//7 2//2
f 28//28 2//2 22//22
f 29//29 23//23 17//17
f 29//29 17//17 3//3
f 29//29 3//3 23//23
f 30//30 16//16 5//5
f 31//31 24//24 4//4
f 32//32 25//25 10//10
f 32//32 18//18 25//25
f 32//32 26//26 18//18
f 32//32 10//10 17//17
f 32//32 17//17 26//26
f 33//33 25//25 18//18
f 33//33 4//4 11//11
f 33//33 11//11 25//25
f 33//33 18//18 26//26
f 33//33 26//26 17//17
f 33//33 17//17 4//4
f 34//34 27//27 22//22
f 34//34 22//22 23//23
f 34//34 23//23 27//27
f 35//35 16//16 30//30
f 35//35 24//24 31//31
f 36//36 30//30 5//5
f 37//37 31//31 4//4
f 37//37 4//4 17//17
f 37//37 17//17 31//31
f 38//38 31//31 17//17
f 38//38 17//17 21//21
f 38//38 21//21 31//31
f 39//39 31//31 21//21
f 39//39 21//21 16//16
f 39//39 35//35 31//31
f 39//39 16//16 35//35
f 40//40 36//36 5//5
f 40//40 5//5 4//4
f 41//41 35//35 30//30
f 41//41 30//30 36//36
f 41//41 24//24 35//35
f 42//42 40//40 4//4
f 42//42 4//4 24//24
f 42//42 24//24 41//41
f 42//42 41//41 36//36
f 42//42 36//36 40//40

