# https://github.com/mikedh/trimesh
v 0.00027487 -0.02549767 0.01657737
v 0.00971893 -0.06169770 0.01099932
v 0.00894121 -0.02847912 -0.01044233
v -0.00378754 -0.02529696 -0.01439324
v -0.00478379 -0.06262567 0.00887324
v 0.00983893 -0.02654729 0.00489006
v 0.00071678 -0.06331046 0.01635162
v -0.01244824 -0.02529440 -0.00581142
v 0.00320132 -0.06471746 -0.01429013
v 0.00635423 -0.02643422 -0.01270892
v 0.00030140 -0.02538043 -0.01480163
v 0.00788581 -0.02640492 0.01381872
v 0.00981991 -0.06175706 -0.01054261
v -0.00567847 -0.03179008 0.01391456
v -0.00871475 -0.02499875 -0.01226151
v -0.00048194 -0.06799767 0.00808139
v -0.00591329 -0.06253500 -0.00862673
v 0.00884266 -0.02632293 0.01113712
v 0.00593949 -0.05891584 -0.01438181
v 0.00059406 -0.04147864 -0.01541098
v 0.00632374 -0.06265838 0.01647598
v 0.00985112 -0.06280950 -0.00333522
v 0.00977546 -0.03210739 -0.00238868
v -0.00388344 -0.02531960 0.01603937
v -0.00207455 -0.06232383 0.01538566
v -0.00770078 -0.02719221 0.01028559
v -0.00598473 -0.05942941 0.00479276
v -0.00287529 -0.05858083 -0.01435285
v -0.01216973 -0.02501704 -0.00962921
v -0.00483596 -0.06534895 -0.00602689
v 0.00960805 -0.05434437 0.01206618
v 0.00303916 -0.02656563 -0.01455002
v 0.00683120 -0.06423652 -0.01308552
v 0.00242173 -0.05100732 -0.01529664
v 0.00629888 -0.06700569 0.01313471
v 0.00564935 -0.04708404 0.01662435
v -0.00110457 -0.05636236 0.01647171
v -0.00012576 -0.06702636 0.01274997
v -0.00479999 -0.06060112 0.00979594
v -0.00593189 -0.06252091 -0.00593044
v -0.00599863 -0.05847518 0.00580712
v -0.00189854 -0.06517483 -0.01320063
v -0.00677764 -0.02519741 -0.01344227
v -0.00480731 -0.06169878 -0.01158345
v -0.00291198 -0.06597544 0.00997177
v 0.00971260 -0.05953239 0.01203299
v 0.00968634 -0.05129457 0.01107611
v 0.00517042 -0.02644696 -0.01346210
v 0.00136686 -0.03849797 -0.01529856
v 0.00588193 -0.06272923 -0.01422122
v 0.00704918 -0.06726383 -0.01054472
v -0.00199654 -0.06354936 -0.01408000
v 0.00288651 -0.05025299 -0.01523699
v 0.00856200 -0.06370255 0.01421235
v 0.00614896 -0.06530823 0.01557235
v 0.00859754 -0.05030693 0.01392220
v 0.00694587 -0.02655664 0.01456059
v -0.00100058 -0.04576597 0.01648810
v 0.00042206 -0.03945256 0.01665284
v 0.00527041 -0.06367150 0.01658671
v -0.00014053 -0.06244098 0.01637247
v -0.00114722 -0.06491965 0.01463256
v 0.00159676 -0.06812517 0.01094436
v -0.00364102 -0.06364152 0.01195391
vn 0.08725812 0.67678124 0.73099464
vn 0.97182038 -0.21598730 0.09441733
vn 0.87011915 0.31700086 -0.37736337
vn -0.14540634 0.64429515 -0.75082672
vn -0.93945019 -0.29186058 0.17958492
vn 0.76860598 0.63926287 0.02424534
vn -0.17403280 -0.37989266 0.90851205
vn -0.82913134 0.55152289 0.09145346
vn 0.05487165 -0.50304192 -0.86251836
vn 0.55888300 0.64457179 -0.52170586
vn 0.07581333 0.70712881 -0.70300867
vn 0.64666889 0.59993764 0.47105645
vn 0.91452550 -0.17304705 -0.36564714
vn -0.81895655 -0.04326950 0.57222192
vn -0.39799099 0.69073916 -0.60372393
vn -0.33387789 -0.94169694 0.04162238
vn -0.90795047 -0.34978473 -0.23081720
vn 0.72478092 0.66570516 0.17756479
vn 0.46048740 -0.01872604 -0.88746870
vn -0.07388131 0.00126581 -0.99726624
vn 0.44987363 -0.09724456 0.88778219
vn 0.95465424 -0.29765824 0.00590317
vn 0.99801857 0.03482636 -0.05240276
vn -0.40077801 0.63944127 0.65611878
vn -0.68538359 -0.22567523 0.69232942
vn -0.89435268 0.25734891 0.36593008
vn -0.97499822 -0.20185273 0.09291908
vn -0.44786642 -0.09825910 -0.88868488
vn -0.73004827 0.58195041 -0.35827817
vn -0.66781499 -0.73901659 -0.08875597
vn 0.95404289 0.01914650 0.29905782
vn 0.31229103 0.29497959 -0.90302899
vn 0.57126886 -0.38545150 -0.72462337
vn 0.02805232 -0.03536743 -0.99898059
vn 0.43881463 -0.84447674 0.30708430
vn 0.37196364 0.01569218 0.92811465
vn -0.33675258 -0.03140063 0.94106945
vn -0.34264994 -0.81155189 0.47325949
vn -0.94687874 -0.10525870 0.30387704
vn -0.96188404 -0.27205843 0.02762781
vn -0.97428187 -0.13531218 0.18018169
vn -0.41738165 -0.73165193 -0.53896012
vn -0.31384822 0.58144831 -0.75061119
vn -0.81251797 -0.26310613 -0.52018238
vn -0.73073783 -0.65169308 0.20326914
vn 0.96747588 -0.01585901 0.25246566
vn 0.99198112 0.02207930 0.12444260
vn 0.44840424 0.45086010 -0.77178935
vn 0.12289938 0.03143983 -0.99192101
vn 0.40594432 -0.16311768 -0.89922290
vn 0.44203658 -0.83695031 -0.32267295
vn -0.41696677 -0.28127921 -0.86430361
vn 0.22495961 0.01060622 -0.97431036
vn 0.83640574 -0.33455384 0.43416491
vn 0.31415141 -0.61585076 0.72252109
vn 0.80960031 0.02459576 0.58646602
vn 0.42996841 0.42522480 0.79643646
vn -0.13356787 -0.00000754 0.99103967
vn -0.05823866 0.00334076 0.99829710
vn 0.09716909 -0.29993137 0.94899913
vn -0.28580358 -0.18985406 0.93929322
vn -0.48152886 -0.59138557 0.64683310
vn -0.04648833 -0.97536826 0.21562835
vn -0.86284784 -0.33943006 0.37454084
f 10//10 6//6 3//3
f 11//11 6//6 10//10
f 15//15 11//11 4//4
f 15//15 1//1 11//11
f 18//18 11//11 1//1
f 18//18 6//6 11//11
f 18//18 1//1 12//12
f 19//19 10//10 3//3
f 19//19 3//3 13//13
f 20//20 4//4 11//11
f 22//22 13//13 6//6
f 22//22 6//6 2//2
f 23//23 13//13 3//3
f 23//23 3//3 6//6
f 23//23 6//6 13//13
f 24//24 1//1 15//15
f 25//25 24//24 14//14
f 26//26 24//24 8//8
f 26//26 14//14 24//24
f 28//28 4//4 20//20
f 29//29 17//17 8//8
f 29//29 15//15 28//28
f 29//29 24//24 15//15
f 29//29 8//8 24//24
f 31//31 18//18 12//12
f 34//34 28//28 20//20
f 37//37 24//24 25//25
f 39//39 26//26 8//8
f 40//40 5//5 27//27
f 40//40 30//30 5//5
f 40//40 17//17 30//30
f 40//40 27//27 8//8
f 40//40 8//8 17//17
f 41//41 27//27 5//5
f 41//41 8//8 27//27
f 41//41 39//39 8//8
f 41//41 5//5 39//39
f 42//42 30//30 17//17
f 42//42 16//16 30//30
f 43//43 28//28 15//15
f 43//43 15//15 4//4
f 43//43 4//4 28//28
f 44//44 29//29 28//28
f 44//44 17//17 29//29
f 44//44 42//42 17//17
f 45//45 30//30 16//16
f 45//45 5//5 30//30
f 45//45 16//16 38//38
f 46//46 2//2 6//6
f 47//47 6//6 18//18
f 47//47 18//18 31//31
f 47//47 46//46 6//6
f 47//47 31//31 46//46
f 48//48 32//32 11//11
f 48//48 11//11 10//10
f 48//48 10//10 19//19
f 48//48 19//19 32//32
f 49//49 20//20 11//11
f 49//49 11//11 32//32
f 49//49 34//34 20//20
f 50//50 19//19 13//13
f 50//50 13//13 33//33
f 50//50 33//33 9//9
f 50//50 34//34 19//19
f 50//50 9//9 34//34
f 51//51 33//33 13//13
f 51//51 13//13 22//22
f 51//51 9//9 33//33
f 51//51 42//42 9//9
f 51//51 16//16 42//42
f 52//52 34//34 9//9
f 52//52 28//28 34//34
f 52//52 9//9 42//42
f 52//52 44//44 28//28
f 52//52 42//42 44//44
f 53//53 32//32 19//19
f 53//53 19//19 34//34
f 53//53 49//49 32//32
f 53//53 34//34 49//49
f 54//54 2//2 46//46
f 54//54 22//22 2//2
f 54//54 51//51 22//22
f 54//54 35//35 51//51
f 55//55 38//38 35//35
f 55//55 54//54 21//21
f 55//55 35//35 54//54
f 56//56 36//36 21//21
f 56//56 12//12 36//36
f 56//56 21//21 54//54
f 56//56 31//31 12//12
f 56//56 54//54 46//46
f 56//56 46//46 31//31
f 57//57 36//36 12//12
f 57//57 12//12 1//1
f 57//57 1//1 36//36
f 58//58 24//24 37//37
f 59//59 36//36 1//1
f 59//59 58//58 37//37
f 59//59 1//1 24//24
f 59//59 24//24 58//58
f 60//60 21//21 36//36
f 60//60 59//59 37//37
f 60//60 36//36 59//59
f 60//60 55//55 21//21
f 60//60 7//7 55//55
f 61//61 37//37 25//25
f 61//61 60//60 37//37
f 61//61 7//7 60//60
f 62//62 45//45 38//38
f 62//62 61//61 25//25
f 62//62 7//7 61//61
f 62//62 55//55 7//7
f 62//62 38//38 55//55
f 63//63 38//38 16//16
f 63//63 35//35 38//38
f 63//63 51//51 35//35
f 63//63 16//16 51//51
f 64//64 39//39 5//5
f 64//64 25//25 14//14
f 64//64 14//14 26//26
f 64//64 26//26 39//39
f 64//64 5//5 45//45
f 64//64 62//62 25//25
f 64//64 45//45 62//62

