# https://github.com/mikedh/trimesh
v 0.06330867 -0.00263099 0.01149364
v 0.06631087 -0.00227754 0.00759199
v 0.06588636 0.00518307 0.00692794
v 0.06378201 0.00491409 -0.01948719
v 0.01982742 -0.01746272 -0.01386687
v 0.06852248 0.00233089 -0.01484079
v 0.06547570 -0.00229885 0.00954657
v 0.02225691 -0.01102410 0.01297750
v 0.06618100 0.00438428 0.00690772
v 0.06502658 0.00554661 -0.01696237
v 0.06252740 -0.01216195 -0.01699783
v 0.06461345 -0.00232930 0.01049323
v 0.01992994 -0.01522029 -0.01393604
v 0.06435508 0.00481639 -0.01899771
v 0.06721314 0.00430031 -0.01267935
v 0.06281529 -0.00222549 -0.01939821
v 0.06829016 -0.00190990 -0.01464439
v 0.06506842 -0.00572875 0.00637063
v 0.02297637 -0.01756978 0.00373298
v 0.02178986 -0.01402738 0.01248108
v 0.06725981 0.00399256 -0.01477788
v 0.06352318 -0.01026780 -0.01798143
v 0.06402342 -0.00111833 -0.01888915
v 0.06506810 -0.00471142 0.00848701
v 0.06607565 -0.00489271 0.00460892
v 0.02328183 -0.01748137 -0.01061322
v 0.05953124 -0.00765889 0.00767511
v 0.02217087 -0.01530051 0.01111693
v 0.06121306 -0.01235674 -0.01701152
v 0.06412568 -0.01031217 -0.01360906
v 0.06627876 -0.00229233 -0.01656400
v 0.06605782 -0.00311556 0.00751852
v 0.06402514 -0.00401949 0.01009008
v 0.06606476 -0.00408081 0.00657259
v 0.02084290 -0.01754598 -0.01314484
v 0.06344536 -0.00645948 0.00761372
v 0.06152100 -0.00666020 0.00933983
v 0.06423677 -0.00558509 0.00837983
v 0.05856672 -0.00665413 0.01026964
v 0.06233657 -0.00561363 0.01027293
vn 0.29871312 0.02890968 0.95390498
vn 0.95794108 -0.10943822 0.26527754
vn 0.37742179 0.81734384 0.43531809
vn 0.09399632 0.63719719 -0.76494734
vn -0.63307630 -0.57132017 -0.52230993
vn 0.92645953 0.20823350 -0.31354672
vn 0.81894696 -0.10843132 0.56353218
vn -0.58094656 0.46043900 0.67119075
vn 0.89783742 0.21380103 0.38493776
vn 0.25632971 0.93936653 -0.22778413
vn 0.43483054 -0.81878194 -0.37485803
vn 0.66660631 -0.05231351 0.74357200
vn -0.71688770 0.39558272 -0.57409610
vn 0.67011262 0.38052245 -0.63730035
vn 0.69844286 0.71562898 -0.00726169
vn 0.16653930 -0.08684588 -0.98220286
vn 0.93072357 -0.19996910 -0.30621234
vn 0.68344182 -0.69680149 0.21765789
vn -0.26069249 -0.94963661 0.17386702
vn -0.60993157 -0.36514684 0.70331448
vn 0.72786533 0.65935740 -0.18830797
vn 0.53815723 -0.42166628 -0.72978377
vn 0.57848254 -0.08148390 -0.81161464
vn 0.73942788 -0.50313399 0.44732830
vn 0.89158519 -0.43805428 0.11482294
vn 0.09049843 -0.99532440 -0.03375449
vn 0.24843671 -0.93781230 0.24246090
vn -0.39346590 -0.81395594 0.42738778
vn 0.08544167 -0.83683701 -0.54074351
vn 0.77947666 -0.62541256 0.03571074
vn 0.69388445 -0.09745094 -0.71346176
vn 0.88617885 -0.30945374 0.34485566
vn 0.60287403 -0.45307098 0.65671119
vn 0.91429856 -0.34979310 0.20421296
vn 0.02623111 -0.99386416 -0.10745216
vn 0.43581791 -0.85551321 0.27957092
vn 0.29952272 -0.84392985 0.44504892
vn 0.56928428 -0.70405494 0.42452569
vn 0.18401188 -0.69185429 0.69819573
vn 0.35186933 -0.60378891 0.71528102
f 8//8 1//1 3//3
f 9//9 6//6 3//3
f 9//9 2//2 6//6
f 9//9 7//7 2//2
f 10//10 8//8 3//3
f 10//10 4//4 8//8
f 12//12 3//3 1//1
f 12//12 9//9 3//3
f 12//12 7//7 9//9
f 13//13 8//8 4//4
f 14//14 10//10 6//6
f 14//14 4//4 10//10
f 15//15 10//10 3//3
f 15//15 3//3 6//6
f 16//16 13//13 4//4
f 16//16 5//5 13//13
f 17//17 6//6 2//2
f 20//20 13//13 5//5
f 20//20 8//8 13//13
f 20//20 1//1 8//8
f 21//21 15//15 6//6
f 21//21 6//6 10//10
f 21//21 10//10 15//15
f 22//22 5//5 16//16
f 23//23 14//14 6//6
f 23//23 6//6 17//17
f 23//23 4//4 14//14
f 23//23 22//22 16//16
f 23//23 16//16 4//4
f 27//27 19//19 11//11
f 28//28 20//20 5//5
f 28//28 5//5 19//19
f 29//29 22//22 11//11
f 29//29 5//5 22//22
f 29//29 11//11 19//19
f 29//29 19//19 26//26
f 30//30 22//22 17//17
f 30//30 11//11 22//22
f 30//30 17//17 25//25
f 30//30 25//25 18//18
f 30//30 18//18 11//11
f 31//31 23//23 17//17
f 31//31 17//17 22//22
f 31//31 22//22 23//23
f 32//32 2//2 7//7
f 32//32 7//7 24//24
f 33//33 12//12 1//1
f 33//33 24//24 7//7
f 33//33 7//7 12//12
f 34//34 24//24 18//18
f 34//34 18//18 25//25
f 34//34 32//32 24//24
f 34//34 2//2 32//32
f 34//34 25//25 17//17
f 34//34 17//17 2//2
f 35//35 26//26 19//19
f 35//35 19//19 5//5
f 35//35 29//29 26//26
f 35//35 5//5 29//29
f 36//36 27//27 11//11
f 36//36 11//11 18//18
f 37//37 28//28 19//19
f 37//37 19//19 27//27
f 37//37 27//27 36//36
f 38//38 36//36 18//18
f 38//38 18//18 24//24
f 38//38 37//37 36//36
f 39//39 20//20 28//28
f 39//39 28//28 37//37
f 40//40 33//33 1//1
f 40//40 39//39 37//37
f 40//40 1//1 20//20
f 40//40 20//20 39//39
f 40//40 37//37 38//38
f 40//40 38//38 24//24
f 40//40 24//24 33//33

