# https://github.com/mikedh/trimesh
v 0.04905288 0.01068212 -0.01957762
v 0.05109485 -0.00131446 -0.02240780
v 0.04584847 0.00785646 -0.02520919
v -0.04936917 -0.00453532 -0.01663866
v 0.02613991 -0.00957800 -0.01442637
v 0.00063360 -0.01389253 -0.02034037
v 0.00079386 0.00754243 -0.02231673
v 0.05105029 0.00651919 -0.02326800
v 0.04007078 -0.00813798 -0.01559788
v -0.05440547 -0.00049380 -0.01198394
v 0.04901747 0.00163443 -0.02502264
v 0.04686976 0.01177837 -0.02050774
v -0.02923551 -0.00634125 -0.01976501
v 0.05041515 0.00926135 -0.02010014
v 0.04709949 0.01195351 -0.01961390
v 0.04977685 -0.00533904 -0.02182147
v 0.01132145 -0.01311456 -0.01444692
v -0.05200231 -0.00085467 -0.01436937
v 0.05016314 0.00054990 -0.02399021
v 0.04779296 0.00784695 -0.02509580
v 0.04597138 0.01062047 -0.02244601
v -0.04824567 -0.01189051 -0.01452741
v -0.02908810 -0.00329832 -0.01969306
v 0.02225907 -0.00180126 -0.02401816
v 0.05144466 0.00090962 -0.02259031
v 0.04901200 0.00856641 -0.02340903
v 0.01550240 0.00912908 -0.01862541
v 0.00612674 -0.01363043 -0.01863589
v 0.04226080 -0.00774885 -0.01658988
v 0.05008877 -0.00539844 -0.02161955
v 0.03342807 -0.00255182 -0.02394344
v -0.04121765 -0.01296588 -0.01232447
v -0.05212183 0.00058160 -0.01276968
v -0.05131979 -0.00260386 -0.01560637
v 0.04921532 0.00403260 -0.02502386
v 0.04792954 0.00848016 -0.02452007
v -0.04915701 -0.01009578 -0.01550454
v 0.00501875 0.00523513 -0.02301547
v 0.00817033 -0.00389025 -0.02292510
v 0.04592775 0.00227819 -0.02498478
v 0.00920977 -0.01330509 -0.01675314
v 0.04228294 -0.00745260 -0.01849668
v 0.00423533 -0.01374313 -0.01965810
v 0.04910096 -0.00050471 -0.02409076
v 0.02427860 -0.00275489 -0.02392589
v -0.04933193 -0.01278060 -0.01217753
v -0.05400326 -0.00068044 -0.01275273
v -0.05046966 -0.00175029 -0.01535694
v 0.05004687 0.00628822 -0.02421696
v 0.04907209 0.00786621 -0.02433088
v -0.04933277 -0.00706553 -0.01643725
v 0.02111210 -0.00093301 -0.02399438
v 0.00399210 -0.00000148 -0.02299325
v -0.04812338 -0.01256767 -0.01370069
v -0.05023828 -0.01172143 -0.01385132
v -0.05403755 -0.00355302 -0.01431495
v 0.00493992 -0.00288871 -0.02289613
v -0.05012586 -0.01107187 -0.01452315
v -0.04925600 -0.01261480 -0.01301388
v -0.05386238 -0.00166486 -0.01352542
v -0.05221968 -0.00438658 -0.01542451
v -0.05499280 -0.00265768 -0.01275293
v -0.05499078 -0.00691521 -0.01287934
v -0.05228969 -0.00603983 -0.01529186
vn 0.59619207 0.64224074 0.48174874
vn 0.96900690 -0.23116991 -0.08709827
vn -0.00775838 0.36801314 -0.92978822
vn -0.25551828 0.08946095 -0.96265630
vn 0.09320283 -0.18422247 0.97845558
vn -0.02949324 -0.81251885 -0.58218834
vn -0.15446045 0.74500322 -0.64893156
vn 0.89128650 0.25148054 -0.37731408
vn 0.25334154 -0.60811045 0.75234284
vn -0.67443656 0.55838284 0.48305687
vn 0.29968215 -0.17113342 -0.93856484
vn 0.21463156 0.90309274 -0.37196345
vn -0.12425186 -0.18297784 -0.97523361
vn 0.82831630 0.42991759 0.35925335
vn 0.25812889 0.84721318 0.46432673
vn 0.23893206 -0.61223100 -0.75371392
vn 0.11251432 -0.78273891 0.61209503
vn -0.36928725 0.55813400 -0.74304332
vn 0.61706308 -0.19612426 -0.76208164
vn 0.22035164 0.36035196 -0.90641691
vn 0.05479024 0.79600693 -0.60280261
vn -0.18269603 -0.66714128 -0.72218050
vn -0.14011614 0.10871633 -0.98414848
vn -0.04345999 -0.11023130 -0.99295533
vn 0.99351054 -0.09359487 -0.06462828
vn 0.55854049 0.69331962 -0.45534649
vn -0.07982775 0.96264726 0.25872339
vn 0.09572705 -0.99426874 -0.04760260
vn 0.44951416 -0.70867582 0.54379739
vn 0.77617611 -0.63039202 0.01251207
vn 0.02453200 -0.34347682 -0.93884070
vn 0.00447233 -0.70639692 0.70780180
vn -0.26743932 0.96069724 0.07441114
vn -0.35070866 0.31065044 -0.88345896
vn 0.40537039 0.00834303 -0.91411446
vn 0.27731559 0.69742088 -0.66083294
vn -0.28419781 -0.40393656 -0.86952105
vn -0.07518743 0.08951217 -0.99314371
vn -0.05409241 -0.18403841 -0.98142951
vn -0.02742329 -0.05565836 -0.99807320
vn 0.14667308 -0.98701025 -0.06555743
vn 0.17565035 -0.96795636 -0.17946434
vn 0.09349003 -0.96634311 -0.23966770
vn 0.16752278 -0.39376240 -0.90381817
vn -0.01217031 -0.22804200 -0.97357523
vn -0.31340412 -0.75802746 0.57198970
vn -0.61222756 0.55725914 -0.56092751
vn -0.21507031 0.49611605 -0.84119773
vn 0.59326637 0.16102759 -0.78873641
vn 0.55426564 0.50397974 -0.66241530
vn -0.28555610 -0.19987122 -0.93728822
vn -0.05519484 -0.01924312 -0.99829015
vn -0.07885840 -0.02045459 -0.99667596
vn -0.13849643 -0.89525770 -0.42347656
vn -0.55525272 -0.71578717 -0.42348925
vn -0.66815888 0.12256164 -0.73385445
vn -0.06983102 -0.12331864 -0.98990714
vn -0.44956093 -0.51550337 -0.72948697
vn -0.31802708 -0.89629867 -0.30904282
vn -0.61387687 0.39108357 -0.68571775
vn -0.45633146 0.02933806 -0.88932608
vn -0.98819512 0.15215336 -0.01788188
vn -0.91357097 -0.36083320 0.18758324
vn -0.51018283 -0.18895771 -0.83905212
f 14//14 1//1 9//9
f 15//15 9//9 1//1
f 15//15 5//5 9//9
f 15//15 10//10 5//5
f 15//15 1//1 12//12
f 15//15 12//12 7//7
f 17//17 9//9 5//5
f 19//19 16//16 11//11
f 21//21 3//3 7//7
f 21//21 7//7 12//12
f 23//23 13//13 4//4
f 23//23 4//4 7//7
f 25//25 14//14 2//2
f 25//25 8//8 14//14
f 25//25 19//19 8//8
f 25//25 2//2 19//19
f 26//26 12//12 1//1
f 26//26 1//1 14//14
f 26//26 14//14 8//8
f 27//27 15//15 7//7
f 28//28 17//17 6//6
f 29//29 14//14 9//9
f 29//29 9//9 17//17
f 30//30 2//2 14//14
f 30//30 14//14 29//29
f 30//30 19//19 2//2
f 30//30 16//16 19//19
f 31//31 16//16 6//6
f 32//32 17//17 5//5
f 32//32 5//5 10//10
f 32//32 6//6 17//17
f 33//33 7//7 18//18
f 33//33 27//27 7//7
f 33//33 10//10 15//15
f 33//33 15//15 27//27
f 34//34 7//7 4//4
f 35//35 19//19 11//11
f 35//35 8//8 19//19
f 35//35 11//11 3//3
f 35//35 3//3 20//20
f 36//36 20//20 3//3
f 36//36 3//3 21//21
f 36//36 21//21 12//12
f 36//36 12//12 26//26
f 37//37 13//13 6//6
f 37//37 6//6 22//22
f 38//38 23//23 7//7
f 38//38 13//13 23//23
f 38//38 7//7 3//3
f 39//39 6//6 13//13
f 40//40 24//24 3//3
f 40//40 3//3 11//11
f 40//40 11//11 24//24
f 41//41 29//29 17//17
f 41//41 17//17 28//28
f 41//41 28//28 29//29
f 42//42 30//30 29//29
f 42//42 29//29 28//28
f 43//43 28//28 6//6
f 43//43 6//6 16//16
f 43//43 16//16 30//30
f 43//43 42//42 28//28
f 43//43 30//30 42//42
f 44//44 31//31 11//11
f 44//44 11//11 16//16
f 44//44 16//16 31//31
f 45//45 24//24 11//11
f 45//45 11//11 31//31
f 45//45 31//31 6//6
f 45//45 39//39 24//24
f 45//45 6//6 39//39
f 46//46 32//32 10//10
f 46//46 6//6 32//32
f 47//47 33//33 18//18
f 47//47 10//10 33//33
f 48//48 34//34 18//18
f 48//48 18//18 7//7
f 48//48 7//7 34//34
f 49//49 35//35 20//20
f 49//49 8//8 35//35
f 50//50 36//36 26//26
f 50//50 26//26 8//8
f 50//50 20//20 36//36
f 50//50 49//49 20//20
f 50//50 8//8 49//49
f 51//51 4//4 13//13
f 51//51 13//13 37//37
f 52//52 38//38 3//3
f 52//52 3//3 24//24
f 53//53 13//13 38//38
f 53//53 38//38 52//52
f 53//53 52//52 24//24
f 54//54 22//22 6//6
f 54//54 6//6 46//46
f 55//55 22//22 54//54
f 56//56 18//18 34//34
f 57//57 39//39 13//13
f 57//57 13//13 53//53
f 57//57 53//53 24//24
f 57//57 24//24 39//39
f 58//58 37//37 22//22
f 58//58 22//22 55//55
f 59//59 55//55 54//54
f 59//59 54//54 46//46
f 59//59 46//46 55//55
f 60//60 47//47 18//18
f 60//60 18//18 56//56
f 61//61 56//56 34//34
f 61//61 34//34 4//4
f 62//62 10//10 47//47
f 62//62 60//60 56//56
f 62//62 47//47 60//60
f 63//63 58//58 55//55
f 63//63 62//62 56//56
f 63//63 55//55 46//46
f 63//63 46//46 10//10
f 63//63 10//10 62//62
f 64//64 61//61 4//4
f 64//64 4//4 51//51
f 64//64 51//51 37//37
f 64//64 37//37 58//58
f 64//64 58//58 63//63
f 64//64 63//63 56//56
f 64//64 56//56 61//61

