# https://github.com/mikedh/trimesh
v 0.06074650 0.01436609 0.00820479
v 0.06483549 0.01138055 0.00619212
v 0.05922457 0.01697158 -0.01594709
v 0.02115121 0.01113678 -0.01878489
v 0.02588359 0.01264154 0.00709970
v 0.06217194 0.01130629 -0.02055015
v 0.06210499 0.01492777 0.00595876
v 0.02765930 0.01230317 0.00696712
v 0.02100203 0.01930759 -0.00565842
v 0.06551214 0.01090653 -0.01578739
v 0.02070026 0.01618685 -0.01579717
v 0.06415880 0.01274365 0.00592210
v 0.05866092 0.01443886 0.00824865
v 0.02018939 0.01806344 0.00739521
v 0.02006357 0.01906162 0.00735596
v 0.06276888 0.01360406 -0.01798030
v 0.06141758 0.01220740 -0.02081466
v 0.02043016 0.01733961 -0.01381774
v 0.06223048 0.01551769 -0.01314243
v 0.02102911 0.01622902 0.00735150
v 0.06061269 0.01562131 0.00492119
v 0.02023968 0.01921027 0.00535083
v 0.02094278 0.01200782 -0.01845184
v 0.06286579 0.01209715 -0.01978106
v 0.06147818 0.01137990 -0.02105495
v 0.06218229 0.01360771 -0.01867357
v 0.06510157 0.01161890 -0.01549517
v 0.06181136 0.01578249 -0.01460659
v 0.02388901 0.01354232 0.00725286
v 0.06131067 0.01549931 0.00384779
v 0.06058914 0.01458552 0.00780276
v 0.02085729 0.01405614 -0.01729189
v 0.06320347 0.01131980 -0.01967068
v 0.06222822 0.01205782 -0.02039874
v 0.05984168 0.01674445 -0.01496742
vn 0.25284726 0.27296694 0.92820112
vn 0.74809173 -0.45480116 0.48323355
vn 0.20622897 0.91368664 -0.35020898
vn -0.52812406 -0.53157740 -0.66220121
vn -0.19447111 -0.74250010 0.64099499
vn 0.44888054 -0.63361580 -0.63010894
vn 0.52968371 0.79910706 0.28436432
vn -0.06106335 -0.83156140 0.55206603
vn -0.45580465 0.88577488 -0.08743559
vn 0.86629401 -0.45253151 -0.21154180
vn -0.61696516 0.55092394 -0.56199359
vn 0.77640137 0.55006300 0.30762251
vn 0.01852584 -0.03080213 0.99935380
vn -0.70543719 -0.17309604 0.68731079
vn -0.60486585 0.55760031 0.56852370
vn 0.66468676 0.65389949 -0.36139587
vn 0.21660934 0.51084273 -0.83193756
vn -0.70800419 0.64569177 -0.28602832
vn 0.65880454 0.75223954 -0.01059517
vn -0.58854346 -0.42063341 0.69042315
vn 0.19134911 0.96406014 0.18431920
vn -0.49810794 0.86710136 0.00486958
vn -0.74684848 0.16795313 -0.64343538
vn 0.69274474 0.43543703 -0.57489070
vn 0.20609196 -0.47569529 -0.85512578
vn 0.45574509 0.71742402 -0.52687682
vn 0.81574947 0.56549214 -0.12153778
vn 0.59781516 0.78944458 -0.13926340
vn -0.38195348 -0.60838134 0.69568936
vn 0.39020605 0.91930459 0.05116930
vn 0.16347469 0.90711363 0.38784132
vn -0.62273632 0.39438213 -0.67576786
vn 0.69863289 -0.44401211 -0.56103952
vn 0.56012558 0.40750726 -0.72124695
vn 0.37971671 0.92508546 -0.00566681
f 8//8 2//2 1//1
f 8//8 5//5 4//4
f 8//8 4//4 2//2
f 10//10 2//2 4//4
f 10//10 4//4 6//6
f 12//12 7//7 1//1
f 12//12 1//1 2//2
f 12//12 2//2 10//10
f 13//13 8//8 1//1
f 13//13 5//5 8//8
f 15//15 14//14 13//13
f 15//15 13//13 1//1
f 17//17 11//11 3//3
f 18//18 9//9 3//3
f 18//18 3//3 11//11
f 19//19 7//7 12//12
f 20//20 14//14 4//4
f 20//20 13//13 14//14
f 22//22 3//3 9//9
f 22//22 18//18 15//15
f 22//22 9//9 18//18
f 22//22 21//21 3//3
f 22//22 15//15 21//21
f 23//23 4//4 14//14
f 23//23 14//14 15//15
f 23//23 15//15 18//18
f 23//23 18//18 11//11
f 23//23 17//17 4//4
f 24//24 16//16 10//10
f 25//25 6//6 4//4
f 25//25 4//4 17//17
f 26//26 17//17 3//3
f 26//26 3//3 16//16
f 26//26 16//16 24//24
f 27//27 19//19 12//12
f 27//27 12//12 10//10
f 27//27 10//10 16//16
f 28//28 16//16 3//3
f 28//28 27//27 16//16
f 28//28 19//19 27//27
f 29//29 20//20 4//4
f 29//29 4//4 5//5
f 29//29 5//5 13//13
f 29//29 13//13 20//20
f 30//30 21//21 7//7
f 30//30 3//3 21//21
f 30//30 7//7 19//19
f 30//30 19//19 28//28
f 31//31 21//21 15//15
f 31//31 15//15 1//1
f 31//31 1//1 7//7
f 31//31 7//7 21//21
f 32//32 23//23 11//11
f 32//32 11//11 17//17
f 32//32 17//17 23//23
f 33//33 24//24 10//10
f 33//33 10//10 6//6
f 34//34 6//6 25//25
f 34//34 33//33 6//6
f 34//34 24//24 33//33
f 34//34 25//25 17//17
f 34//34 26//26 24//24
f 34//34 17//17 26//26
f 35//35 30//30 28//28
f 35//35 28//28 3//3
f 35//35 3//3 30//30

