# https://github.com/mikedh/trimesh
v 0.09160937 0.00132785 0.02500000
v 0.09141821 -0.00165894 0.02500000
v 0.09141821 -0.00165894 -0.02500000
v 0.07302045 0.00352482 -0.02500000
v 0.04870600 -0.07563870 0.02500000
v 0.09160937 0.00132785 -0.02500000
v 0.07302045 0.00352482 0.02500000
v 0.04870600 -0.07563870 -0.02500000
v 0.05147321 -0.04084580 -0.02500000
v 0.05147321 -0.04084580 0.02500000
f 1 2 3
f 5 2 1
f 5 3 2
f 6 1 3
f 6 3 4
f 6 4 1
f 7 5 1
f 7 1 4
f 8 4 3
f 8 3 5
f 9 7 4
f 9 8 5
f 9 4 8
f 10 9 5
f 10 5 7
f 10 7 9

