# https://github.com/mikedh/trimesh
v 0.04890530 0.06282414 0.01970378
v 0.06169806 0.02391092 0.01873520
v 0.06144811 0.04506687 -0.01857918
v 0.03558403 0.07144981 -0.01936046
v 0.04312636 0.02386257 0.01864529
v 0.05399936 0.05921457 -0.01842871
v 0.06138850 0.04516026 0.01864931
v 0.04413109 0.02482717 0.01966054
v 0.03571191 0.07174078 0.01904158
v 0.06179454 0.02379964 -0.01851687
v 0.05564650 0.05649821 -0.01907827
v 0.06089954 0.02483364 0.01966507
v 0.05695042 0.05500013 0.01870762
v 0.03674975 0.05066384 0.01969495
v 0.04399217 0.06785260 -0.01845399
v 0.06203866 0.03649652 -0.01944553
v 0.04333254 0.02406104 -0.01896949
v 0.06052768 0.04524390 0.01955512
v 0.04826634 0.06495558 0.01814548
v 0.05703441 0.05507761 -0.01845597
v 0.03584998 0.07058079 0.01980488
v 0.03839208 0.07098799 -0.01838050
v 0.04712034 0.06525094 -0.01908867
v 0.06011156 0.04799782 -0.01914420
v 0.06135437 0.02430793 -0.01925516
v 0.03716643 0.04949762 -0.01940016
v 0.05595972 0.05533429 0.01946848
v 0.05998245 0.04933938 0.01864277
v 0.05395519 0.05914875 0.01863825
v 0.04147398 0.06851155 0.01944544
v 0.04271326 0.06820911 -0.01909878
v 0.04395765 0.06780840 0.01863677
v 0.04822310 0.06488300 -0.01841111
v 0.06161794 0.04228914 -0.01922498
v 0.05996371 0.04944409 -0.01856716
v 0.06164660 0.02624925 -0.01923784
v 0.03750133 0.04806348 -0.01858416
v 0.05904707 0.04959595 0.01950814
v 0.04969447 0.06353218 0.01863383
v 0.03855575 0.07002354 0.01945039
v 0.03693861 0.07107680 -0.01919191
v 0.03825387 0.07090598 0.01863851
v 0.04590762 0.06563030 0.01947816
vn 0.27337091 0.29107849 0.91681059
vn 0.65326413 -0.65267529 0.38374594
vn 0.92422609 0.20887645 -0.31965099
vn -0.53459508 0.61408333 -0.58061154
vn -0.57523784 -0.72120252 0.38596418
vn 0.68809237 0.61746946 -0.38113037
vn 0.92182721 0.15570171 0.35495291
vn -0.22349207 -0.36010945 0.90574416
vn -0.51654967 0.75845934 0.39738630
vn 0.65417847 -0.69461503 -0.29926659
vn 0.45684743 0.33462668 -0.82420593
vn 0.34046787 -0.29391300 0.89313872
vn 0.79763936 0.48901566 0.35303702
vn -0.72562577 -0.10739379 0.67965714
vn 0.51842372 0.81148141 -0.26969384
vn 0.71333421 0.01450151 -0.70067397
vn -0.50579308 -0.63536155 -0.58351441
vn 0.43588937 0.08738757 0.89574766
vn 0.60344484 0.76257435 0.23309802
vn 0.81063224 0.48352393 -0.33027258
vn -0.54938488 0.25511725 0.79567044
vn 0.35645743 0.89747272 -0.25977070
vn 0.33905115 0.44069198 -0.83116478
vn 0.49622863 0.18763764 -0.84767285
vn 0.34787436 -0.40445550 -0.84581273
vn -0.71291966 -0.11292258 -0.69209396
vn 0.40398572 0.27627233 0.87204882
vn 0.86396199 0.36436410 0.34757515
vn 0.69180297 0.59168677 0.41390266
vn 0.28875703 0.50813148 0.81143193
vn 0.31003958 0.52827965 -0.79044043
vn 0.49240354 0.79498072 0.35432248
vn 0.62602060 0.72146977 -0.29593847
vn 0.72656301 0.08600360 -0.68169610
vn 0.85168424 0.38906405 -0.35108849
vn 0.67347094 -0.04557753 -0.73780728
vn -0.97236378 -0.23329546 -0.00904973
vn 0.42021397 0.19699346 0.88578428
vn 0.63889192 0.66425653 0.38804687
vn 0.27937802 0.55471309 0.78373548
vn 0.28096771 0.67519143 -0.68203642
vn 0.39138314 0.86475921 0.31465974
vn 0.33908956 0.47492536 0.81207399
f 8//8 5//5 2//2
f 10//10 2//2 5//5
f 12//12 2//2 7//7
f 12//12 8//8 2//2
f 14//14 9//9 4//4
f 14//14 5//5 8//8
f 16//16 7//7 2//2
f 16//16 2//2 10//10
f 16//16 3//3 7//7
f 16//16 4//4 11//11
f 17//17 10//10 5//5
f 18//18 12//12 7//7
f 18//18 1//1 12//12
f 20//20 11//11 6//6
f 21//21 9//9 14//14
f 21//21 12//12 1//1
f 21//21 14//14 8//8
f 21//21 8//8 12//12
f 22//22 4//4 9//9
f 23//23 11//11 4//4
f 23//23 6//6 11//11
f 24//24 16//16 11//11
f 25//25 10//10 17//17
f 26//26 4//4 16//16
f 26//26 25//25 17//17
f 26//26 16//16 25//25
f 26//26 14//14 4//4
f 28//28 18//18 7//7
f 28//28 20//20 13//13
f 28//28 7//7 3//3
f 29//29 20//20 6//6
f 29//29 13//13 20//20
f 29//29 27//27 13//13
f 29//29 1//1 27//27
f 31//31 22//22 15//15
f 31//31 23//23 4//4
f 31//31 15//15 23//23
f 32//32 19//19 15//15
f 32//32 15//15 22//22
f 33//33 19//19 6//6
f 33//33 6//6 23//23
f 33//33 23//23 15//15
f 33//33 15//15 19//19
f 34//34 24//24 3//3
f 34//34 3//3 16//16
f 34//34 16//16 24//24
f 35//35 3//3 24//24
f 35//35 28//28 3//3
f 35//35 20//20 28//28
f 35//35 24//24 11//11
f 35//35 11//11 20//20
f 36//36 25//25 16//16
f 36//36 16//16 10//10
f 36//36 10//10 25//25
f 37//37 26//26 17//17
f 37//37 17//17 5//5
f 37//37 5//5 14//14
f 37//37 14//14 26//26
f 38//38 27//27 1//1
f 38//38 1//1 18//18
f 38//38 18//18 28//28
f 38//38 28//28 13//13
f 38//38 13//13 27//27
f 39//39 29//29 6//6
f 39//39 6//6 19//19
f 39//39 1//1 29//29
f 39//39 19//19 32//32
f 40//40 9//9 21//21
f 40//40 21//21 30//30
f 41//41 31//31 4//4
f 41//41 4//4 22//22
f 41//41 22//22 31//31
f 42//42 32//32 22//22
f 42//42 22//22 9//9
f 42//42 9//9 40//40
f 42//42 40//40 30//30
f 42//42 30//30 32//32
f 43//43 32//32 30//30
f 43//43 39//39 32//32
f 43//43 1//1 39//39
f 43//43 30//30 21//21
f 43//43 21//21 1//1

