# https://github.com/mikedh/trimesh
v 0.03709405 0.07121276 0.01896947
v 0.03827786 0.05745611 0.01999997
v 0.03827786 0.05745611 -0.02000003
v -0.00876168 0.07522362 -0.01952257
v -0.00947507 0.05887515 0.01947633
v 0.03039722 0.07371735 -0.01896949
v 0.03711104 0.07120213 -0.01896949
v -0.00876599 0.07519824 0.01953510
v -0.00940325 0.05881607 -0.01941944
v 0.01907468 0.07613215 -0.01907650
v 0.01905084 0.07605706 0.01916617
v -0.00851867 0.07622479 -0.01814140
v 0.03035893 0.07365134 0.01904616
v -0.00623144 0.07612423 -0.01905937
v 0.02130949 0.07621956 0.01827247
v 0.02135750 0.07626551 -0.01815300
v -0.00852979 0.07617949 0.01827247
v -0.00624558 0.07604665 0.01915666
vn 0.64468844 0.50921638 0.57015392
vn 0.59455757 -0.54823130 0.58816982
vn 0.59417907 -0.54765825 -0.58908546
vn -0.64314396 0.34202980 -0.68511420
vn -0.60170767 -0.55719211 0.57226291
vn 0.23090669 0.70701631 -0.66843851
vn 0.64391606 0.50549084 -0.57432667
vn -0.64539552 0.33440932 0.68675689
vn -0.59984248 -0.56025045 -0.57123413
vn 0.02613039 0.67893689 -0.73373149
vn 0.02434506 0.66281970 0.74838317
vn -0.58306260 0.79342048 -0.17470531
vn 0.22920206 0.70360351 0.67261320
vn -0.02371154 0.82327913 -0.56714128
vn 0.15305733 0.95088669 0.26905009
vn 0.15364567 0.95560582 -0.25141705
vn -0.58016917 0.79198249 0.19017746
vn -0.02156836 0.79525419 0.60589238
f 7//7 1//1 2//2
f 7//7 2//2 3//3
f 7//7 6//6 1//1
f 7//7 3//3 6//6
f 8//8 5//5 2//2
f 8//8 4//4 5//5
f 9//9 3//3 2//2
f 9//9 2//2 5//5
f 9//9 5//5 4//4
f 9//9 4//4 3//3
f 10//10 6//6 3//3
f 10//10 3//3 4//4
f 11//11 8//8 2//2
f 13//13 11//11 2//2
f 13//13 2//2 1//1
f 13//13 1//1 6//6
f 14//14 10//10 4//4
f 14//14 4//4 12//12
f 15//15 11//11 13//13
f 15//15 13//13 6//6
f 16//16 14//14 12//12
f 16//16 10//10 14//14
f 16//16 15//15 6//6
f 16//16 6//6 10//10
f 17//17 12//12 4//4
f 17//17 4//4 8//8
f 17//17 16//16 12//12
f 17//17 15//15 16//16
f 18//18 17//17 8//8
f 18//18 8//8 11//11
f 18//18 11//11 15//15
f 18//18 15//15 17//17

