# https://github.com/mikedh/trimesh
v -0.03204477 0.03211644 0.01991860
v -0.03117297 -0.02656051 0.01890619
v -0.03078471 0.02153571 0.01229674
v -0.05029699 0.02153614 0.01229703
v -0.04867013 -0.03096298 0.01973051
v -0.04353934 -0.03104277 0.01229674
v -0.03028480 0.03208484 0.01820384
v -0.03227244 -0.02654819 0.01980134
v -0.04881646 0.02153596 0.01978387
v -0.03074545 -0.02655237 0.01229721
v -0.05003842 -0.03095323 0.01229613
v -0.04353934 -0.03104277 0.01999997
v -0.03302321 0.03205494 0.01999491
v -0.03073802 0.03214114 0.01908184
v -0.04982246 0.02153596 0.01896947
v -0.04961649 -0.03091293 0.01887617
vn 0.20852515 0.69055366 0.69256978
vn 0.77389204 -0.50761861 0.37870101
vn 0.62181223 0.18745369 -0.76040165
vn -0.68500118 0.41211003 -0.60078174
vn -0.30443971 -0.63827222 0.70705378
vn 0.11972895 -0.73287887 -0.66974140
vn 0.65161708 0.71425949 -0.25539885
vn 0.36799868 -0.40101601 0.83890591
vn -0.38845835 0.29077195 0.87438652
vn 0.66987179 -0.46402216 -0.57961644
vn -0.59932500 -0.57110284 -0.56093769
vn 0.10694983 -0.72693675 0.67832492
vn -0.23830749 0.81074328 0.53470074
vn 0.53802788 0.69924045 0.47073219
vn -0.81666189 0.41960080 0.39623040
vn -0.71748478 -0.60878201 0.33852630
f 7//7 3//3 4//4
f 10//10 7//7 2//2
f 10//10 3//3 7//7
f 11//11 4//4 3//3
f 11//11 10//10 6//6
f 11//11 3//3 10//10
f 12//12 11//11 6//6
f 12//12 5//5 11//11
f 12//12 2//2 8//8
f 12//12 9//9 5//5
f 12//12 10//10 2//2
f 12//12 6//6 10//10
f 13//13 7//7 4//4
f 13//13 9//9 12//12
f 13//13 12//12 8//8
f 13//13 8//8 1//1
f 14//14 2//2 7//7
f 14//14 8//8 2//2
f 14//14 1//1 8//8
f 14//14 13//13 1//1
f 14//14 7//7 13//13
f 15//15 5//5 9//9
f 15//15 13//13 4//4
f 15//15 9//9 13//13
f 16//16 11//11 5//5
f 16//16 5//5 15//15
f 16//16 15//15 4//4
f 16//16 4//4 11//11

