# https://github.com/mikedh/trimesh
v 0.06157354 -0.02505426 0.01917277
v 0.06175817 -0.04133298 0.01827247
v 0.06211054 -0.02446676 -0.01801981
v 0.05245023 -0.02505426 -0.01917286
v 0.05216075 -0.05804110 0.01992501
v 0.05245023 -0.02505426 0.01917277
v 0.06211054 -0.02446676 0.01801977
v 0.06161954 -0.03900846 0.01917277
v 0.05698054 -0.05433666 -0.01801981
v 0.06181242 -0.04124035 -0.01814665
v 0.05938526 -0.04795628 0.01917277
v 0.06160869 -0.02545101 0.01917277
v 0.05218994 -0.05806540 -0.01991325
v 0.05695016 -0.05431879 0.01814989
v 0.05920537 -0.04996128 -0.01801997
v 0.06157802 -0.02504934 -0.01916679
v 0.05491863 -0.05661306 0.01905733
v 0.05913589 -0.05000684 0.01816109
v 0.05946774 -0.04792329 -0.01907957
v 0.06167522 -0.03911179 -0.01907766
v 0.05496281 -0.05666300 -0.01896949
v 0.06167623 -0.02544569 -0.01908897
vn 0.40836241 0.44754020 0.79558023
vn 0.94229684 -0.17367114 0.28620797
vn 0.67082157 0.70057181 -0.24330550
vn -0.58956549 0.56704547 -0.57521472
vn -0.39714114 -0.69707243 0.59696645
vn -0.58961501 0.56735034 0.57486323
vn 0.67201120 0.69803924 0.24726942
vn 0.66387877 -0.02923066 0.74726873
vn 0.81593107 -0.50696824 -0.27792029
vn 0.94953943 -0.17284721 -0.26172258
vn 0.60896626 -0.19936955 0.76773165
vn 0.57579777 0.01700210 0.81741535
vn -0.39554921 -0.69530083 -0.60008131
vn 0.80962452 -0.50722535 0.29534822
vn 0.88682331 -0.38224901 -0.25967310
vn 0.39234835 0.45432848 -0.79978022
vn 0.60583538 -0.62800756 0.48843628
vn 0.88197851 -0.38107152 0.27730563
vn 0.62719353 -0.20396135 -0.75168348
vn 0.67689761 -0.03369401 -0.73530560
vn 0.61265631 -0.63259885 -0.47378363
vn 0.80203145 0.02297710 -0.59683968
f 6//6 3//3 4//4
f 6//6 5//5 1//1
f 6//6 4//4 5//5
f 7//7 6//6 1//1
f 7//7 3//3 6//6
f 8//8 2//2 7//7
f 10//10 7//7 2//2
f 10//10 3//3 7//7
f 11//11 8//8 5//5
f 11//11 2//2 8//8
f 12//12 8//8 7//7
f 12//12 7//7 1//1
f 12//12 1//1 5//5
f 12//12 5//5 8//8
f 13//13 5//5 4//4
f 15//15 10//10 2//2
f 15//15 14//14 9//9
f 16//16 13//13 4//4
f 16//16 4//4 3//3
f 17//17 14//14 11//11
f 17//17 11//11 5//5
f 18//18 15//15 2//2
f 18//18 2//2 11//11
f 18//18 11//11 14//14
f 18//18 14//14 15//15
f 19//19 10//10 15//15
f 19//19 15//15 9//9
f 20//20 3//3 10//10
f 20//20 10//10 19//19
f 20//20 19//19 13//13
f 20//20 13//13 16//16
f 21//21 17//17 5//5
f 21//21 5//5 13//13
f 21//21 9//9 14//14
f 21//21 14//14 17//17
f 21//21 19//19 9//9
f 21//21 13//13 19//19
f 22//22 20//20 16//16
f 22//22 16//16 3//3
f 22//22 3//3 20//20

