# https://github.com/mikedh/trimesh
v 0.04816543 0.06452776 0.01896947
v 0.06193454 0.02363814 0.01801977
v 0.06165914 0.04496764 -0.01809412
v 0.03768573 0.07038931 -0.01948695
v 0.04289154 0.02363784 0.01801807
v 0.05265991 0.06033310 -0.01896949
v 0.06159133 0.04501228 0.01824228
v 0.06142554 0.02422564 0.01917277
v 0.03765659 0.07035162 0.01952247
v 0.04343396 0.02415810 -0.01908941
v 0.04591217 0.06675653 -0.01801981
v 0.05679849 0.05566146 0.01809701
v 0.05958524 0.04932434 0.01917277
v 0.06163223 0.04265879 0.01914331
v 0.04289254 0.02363814 -0.01801981
v 0.04349143 0.02421311 0.01915726
v 0.06193454 0.02363814 -0.01801981
v 0.06145999 0.02418599 -0.01912387
v 0.04818859 0.06453385 -0.01896949
v 0.04591775 0.06670964 0.01814261
v 0.05467590 0.05792256 0.01896947
v 0.05919287 0.05151051 0.01818657
v 0.05680377 0.05569826 -0.01801981
v 0.06155344 0.02477917 0.01911457
v 0.05955374 0.04946985 -0.01914092
v 0.06169241 0.04270420 -0.01904700
v 0.04156257 0.06897663 -0.01896949
v 0.04152446 0.06899563 0.01896947
v 0.05924165 0.05147763 -0.01802397
v 0.05466500 0.05794716 -0.01896949
v 0.06162816 0.02476836 -0.01902164
vn 0.52908062 0.54928361 0.64680849
vn 0.67950982 -0.69120261 0.24597835
vn 0.94758213 0.21089196 -0.24002645
vn -0.50288083 0.65162469 -0.56788743
vn -0.64298977 -0.71529162 0.27371892
vn 0.54307231 0.51929362 -0.65985347
vn 0.94265485 0.21023565 0.25923504
vn 0.38521580 -0.45897439 0.80059434
vn -0.50622183 0.64810121 0.56895016
vn -0.38032495 -0.46227910 -0.80103119
vn 0.55706622 0.79877279 -0.22724274
vn 0.78860755 0.54300914 0.28851206
vn 0.52795131 0.20872774 0.82322545
vn 0.71303833 0.03531908 0.70023489
vn -0.64444120 -0.71656662 -0.26688542
vn -0.37334005 -0.45651062 0.80759845
vn 0.67889841 -0.69453096 -0.23816737
vn 0.38283848 -0.46459028 -0.79849269
vn 0.50225637 0.55073079 -0.66665894
vn 0.55817413 0.79120639 0.24986813
vn 0.55053025 0.50383444 0.66563300
vn 0.85004239 0.42936552 0.30507896
vn 0.79515641 0.53824445 -0.27931918
vn 0.74435450 -0.02945805 0.66713462
vn 0.53737345 0.21514015 -0.81544129
vn 0.72636286 0.03708724 -0.68631008
vn 0.38869329 0.77241738 -0.50228371
vn 0.38845559 0.77603148 0.49686759
vn 0.86269980 0.43134937 -0.26398252
vn 0.52153242 0.42473364 -0.74000356
vn 0.79307659 -0.03248319 -0.60825519
f 13//13 9//9 8//8
f 14//14 13//13 8//8
f 14//14 7//7 13//13
f 14//14 2//2 3//3
f 14//14 3//3 7//7
f 15//15 9//9 4//4
f 15//15 5//5 9//9
f 15//15 4//4 10//10
f 16//16 9//9 5//5
f 16//16 8//8 9//9
f 16//16 5//5 2//2
f 16//16 2//2 8//8
f 17//17 15//15 10//10
f 17//17 2//2 5//5
f 17//17 5//5 15//15
f 18//18 10//10 4//4
f 18//18 17//17 10//10
f 19//19 11//11 6//6
f 19//19 6//6 4//4
f 20//20 1//1 6//6
f 20//20 6//6 11//11
f 21//21 12//12 6//6
f 21//21 6//6 1//1
f 21//21 1//1 9//9
f 21//21 9//9 13//13
f 22//22 7//7 3//3
f 22//22 13//13 7//7
f 22//22 21//21 13//13
f 22//22 12//12 21//21
f 23//23 6//6 12//12
f 24//24 14//14 8//8
f 24//24 8//8 2//2
f 24//24 2//2 14//14
f 25//25 18//18 4//4
f 26//26 3//3 2//2
f 26//26 2//2 17//17
f 26//26 25//25 3//3
f 26//26 18//18 25//25
f 27//27 19//19 4//4
f 27//27 11//11 19//19
f 28//28 9//9 1//1
f 28//28 1//1 20//20
f 28//28 20//20 11//11
f 28//28 11//11 27//27
f 28//28 27//27 4//4
f 28//28 4//4 9//9
f 29//29 22//22 3//3
f 29//29 25//25 23//23
f 29//29 3//3 25//25
f 29//29 23//23 12//12
f 29//29 12//12 22//22
f 30//30 6//6 23//23
f 30//30 23//23 25//25
f 30//30 25//25 4//4
f 30//30 4//4 6//6
f 31//31 26//26 17//17
f 31//31 17//17 18//18
f 31//31 18//18 26//26

