# https://github.com/mikedh/trimesh
v 0.06106129 -0.02561329 0.01963332
v 0.06128057 -0.04265693 0.01874997
v 0.06199176 -0.02460250 -0.01845234
v 0.04342603 -0.02508600 -0.01920458
v 0.03581042 -0.07100229 0.01979587
v 0.04300022 -0.02470580 0.01867029
v 0.06190289 -0.02469437 0.01864653
v 0.05742339 -0.05145744 0.01952247
v 0.03551412 -0.07185619 -0.01938098
v 0.04290002 -0.02461618 -0.01848541
v 0.04401483 -0.02561299 0.01962912
v 0.06160578 -0.03839220 -0.01923161
v 0.06049615 -0.04281425 0.01954636
v 0.04528415 -0.06684347 0.01863682
v 0.03695692 -0.05145714 0.01952247
v 0.03746189 -0.05030074 -0.01917286
v 0.05969535 -0.04834712 -0.01846622
v 0.06156789 -0.02517133 -0.01918876
v 0.05835932 -0.05116304 0.01874997
v 0.04720391 -0.06451591 0.01944626
v 0.03812564 -0.07122115 0.01870596
v 0.03564048 -0.07211905 0.01908312
v 0.06135578 -0.04269258 -0.01855838
v 0.05562481 -0.05560932 -0.01904652
v 0.05983826 -0.04844667 0.01800781
v 0.05159390 -0.06023611 0.01944443
v 0.04099737 -0.06976767 -0.01843239
v 0.03841729 -0.07029896 0.01949950
v 0.03815393 -0.07130838 -0.01847301
v 0.06013124 -0.04564577 -0.01920101
v 0.05697691 -0.05415410 -0.01832223
v 0.05590893 -0.05429748 0.01948476
v 0.05399606 -0.05842344 -0.01848521
v 0.04110791 -0.06987659 0.01795625
v 0.04970905 -0.06274546 -0.01907423
v 0.03970206 -0.07011457 -0.01907594
v 0.05863499 -0.04989110 -0.01912374
v 0.05686288 -0.05406969 0.01867357
v 0.05393521 -0.05835301 0.01869291
v 0.04534265 -0.06689660 -0.01843980
v 0.03688645 -0.07156861 -0.01907737
v 0.04412637 -0.06728485 -0.01912340
vn 0.34440452 0.30447384 0.88807725
vn 0.91822185 -0.13956757 0.37066094
vn 0.66906859 0.67199389 -0.31744517
vn -0.28696867 0.42989075 -0.85606246
vn -0.53086825 -0.24713653 0.81061855
vn -0.57847503 0.71369758 0.39497140
vn 0.66351660 0.64836538 0.37332032
vn 0.38472350 -0.18588672 0.90412054
vn -0.53052174 -0.61873977 -0.57940295
vn -0.59960763 0.72943486 -0.32923467
vn -0.21717520 0.35924867 0.90762069
vn 0.71084328 -0.03390718 -0.70253266
vn 0.42960721 -0.09360574 0.89815122
vn 0.56809163 -0.72914577 0.38159972
vn -0.74508095 0.11187720 0.65752404
vn -0.73415044 0.11484139 -0.66920444
vn 0.89758922 -0.33786900 -0.28315743
vn 0.40886826 0.34595851 -0.84447585
vn 0.81722631 -0.38169770 0.43179628
vn 0.41330358 -0.43791764 0.79837854
vn 0.39633306 -0.85141440 0.34353112
vn -0.51209425 -0.75806689 0.40384906
vn 0.92665060 -0.17193719 -0.33429968
vn 0.48512666 -0.32711485 -0.81095499
vn 0.90461311 -0.33410098 0.26467272
vn 0.42313722 -0.41691792 0.80444660
vn 0.50157257 -0.82410802 -0.26319370
vn 0.29737228 -0.49370303 0.81720685
vn 0.37237354 -0.90110478 -0.22214438
vn 0.51104460 -0.15651152 -0.84518493
vn 0.83646327 -0.47456311 -0.27407854
vn 0.38535628 -0.25075639 0.88804379
vn 0.72303853 -0.59869303 -0.34464755
vn 0.49729970 -0.83796511 0.22473869
vn 0.51411406 -0.51846650 -0.68328561
vn 0.34321839 -0.59861297 -0.72378426
vn 0.51301583 -0.24790143 -0.82180268
vn 0.80572054 -0.48025784 0.34665087
vn 0.72609554 -0.58389400 0.36311577
vn 0.59920415 -0.75263408 -0.27294016
vn 0.28684620 -0.85154108 -0.43885881
vn 0.32684990 -0.46353754 -0.82359097
f 7//7 1//1 2//2
f 7//7 6//6 1//1
f 7//7 3//3 6//6
f 10//10 6//6 3//3
f 10//10 3//3 4//4
f 11//11 5//5 1//1
f 11//11 1//1 6//6
f 12//12 7//7 2//2
f 12//12 3//3 7//7
f 13//13 2//2 1//1
f 13//13 1//1 5//5
f 13//13 5//5 8//8
f 15//15 6//6 10//10
f 15//15 11//11 6//6
f 15//15 5//5 11//11
f 16//16 10//10 4//4
f 16//16 4//4 9//9
f 16//16 15//15 10//10
f 16//16 9//9 15//15
f 18//18 4//4 3//3
f 18//18 3//3 12//12
f 18//18 12//12 9//9
f 18//18 9//9 4//4
f 19//19 13//13 8//8
f 19//19 2//2 13//13
f 22//22 15//15 9//9
f 22//22 5//5 15//15
f 23//23 12//12 2//2
f 25//25 2//2 19//19
f 25//25 23//23 2//2
f 25//25 17//17 23//23
f 26//26 5//5 20//20
f 26//26 20//20 14//14
f 28//28 20//20 5//5
f 28//28 22//22 21//21
f 28//28 5//5 22//22
f 28//28 21//21 14//14
f 28//28 14//14 20//20
f 29//29 22//22 9//9
f 29//29 21//21 22//22
f 30//30 23//23 17//17
f 30//30 12//12 23//23
f 30//30 9//9 12//12
f 31//31 17//17 25//25
f 32//32 8//8 5//5
f 32//32 5//5 26//26
f 33//33 24//24 31//31
f 34//34 14//14 21//21
f 34//34 29//29 27//27
f 34//34 21//21 29//29
f 35//35 24//24 33//33
f 36//36 27//27 29//29
f 37//37 30//30 17//17
f 37//37 24//24 35//35
f 37//37 35//35 9//9
f 37//37 9//9 30//30
f 37//37 31//31 24//24
f 37//37 17//17 31//31
f 38//38 31//31 25//25
f 38//38 25//25 19//19
f 38//38 19//19 8//8
f 38//38 8//8 32//32
f 39//39 26//26 14//14
f 39//39 35//35 33//33
f 39//39 14//14 35//35
f 39//39 33//33 31//31
f 39//39 31//31 38//38
f 39//39 38//38 32//32
f 39//39 32//32 26//26
f 40//40 34//34 27//27
f 40//40 14//14 34//34
f 40//40 35//35 14//14
f 41//41 36//36 29//29
f 41//41 29//29 9//9
f 41//41 9//9 36//36
f 42//42 36//36 9//9
f 42//42 9//9 35//35
f 42//42 35//35 40//40
f 42//42 40//40 27//27
f 42//42 27//27 36//36

