# https://github.com/mikedh/trimesh
v -0.03109124 0.03400089 0.01966507
v -0.02991148 -0.03753140 0.01922644
v -0.03110023 0.03399540 -0.01966509
v -0.04905477 0.03359261 -0.01917286
v -0.04877233 -0.03663557 0.01912403
v -0.02983465 -0.03760881 -0.01917286
v -0.04904046 0.03355325 0.01917277
v -0.04885891 -0.03662873 -0.01904115
vn 0.55831184 0.58729879 0.58597612
vn 0.56835871 -0.58861626 0.57489066
vn 0.55857984 0.58660656 -0.58641393
vn -0.59134273 0.57039290 -0.57005764
vn -0.58984001 -0.56453016 0.57740320
vn 0.56825753 -0.59037168 -0.57318815
vn -0.59190932 0.56946336 0.57039884
vn -0.59261055 -0.56360398 -0.57546789
f 1//1 3//3 4//4
f 5//5 2//2 1//1
f 6//6 2//2 5//5
f 6//6 1//1 2//2
f 6//6 3//3 1//1
f 7//7 5//5 1//1
f 7//7 1//1 4//4
f 8//8 4//4 3//3
f 8//8 3//3 6//6
f 8//8 6//6 5//5
f 8//8 7//7 4//4
f 8//8 5//5 7//7

