# https://github.com/mikedh/trimesh
v 0.05245023 -0.04647461 0.01999997
v 0.05369434 -0.05745605 0.01952247
v 0.05245023 -0.04647461 -0.02000003
v 0.02416768 -0.06081501 -0.01998633
v 0.02379371 -0.07566183 0.01942063
v 0.03982629 -0.04742415 0.01935787
v 0.05371455 -0.05747936 -0.01949914
v 0.03980914 -0.04744450 -0.01935789
v 0.02416463 -0.06081140 0.01998627
v 0.04141952 -0.06966242 0.01811455
v 0.02378328 -0.07574512 -0.01936286
v 0.03831198 -0.04828437 -0.01801981
v 0.05012841 -0.06301234 0.01809037
v 0.03483201 -0.07239087 0.01917277
v 0.04136712 -0.06970665 -0.01801981
v 0.03836737 -0.04826743 0.01816324
v 0.05226783 -0.06086249 0.00007823
v 0.04378082 -0.06766331 0.01898252
v 0.03038831 -0.07465897 0.01826501
v 0.04377283 -0.06769187 -0.01896949
v 0.05007923 -0.06308014 -0.01801981
v 0.05221784 -0.06082179 0.01807028
v 0.05294285 -0.05907146 0.01917277
v 0.02808537 -0.07484498 0.01917277
v 0.03702631 -0.07205525 -0.01801981
v 0.03702643 -0.07201525 0.01815360
v 0.05293802 -0.05906659 -0.01917286
v 0.03025458 -0.07431600 -0.01896949
vn 0.51672498 0.61943868 0.59100847
vn 0.74908689 -0.15092833 0.64504998
vn 0.51600743 0.61950265 -0.59156809
vn -0.69849865 0.31438192 -0.64285585
vn -0.53812638 -0.62611678 0.56426748
vn -0.26898583 0.74534646 0.61000433
vn 0.75026628 -0.16107322 -0.64121441
vn -0.26859292 0.74453824 -0.61116336
vn -0.69908198 0.31601814 0.64141790
vn 0.49859220 -0.81910731 0.28367065
vn -0.52119216 -0.64310887 -0.56104341
vn -0.59390034 0.79960977 -0.08891909
vn 0.62894369 -0.69596584 0.34649875
vn 0.23051520 -0.52794374 0.81739718
vn 0.50050388 -0.82409633 -0.26525668
vn -0.59789573 0.79613079 0.09325479
vn 0.83060512 -0.55686155 -0.00058708
vn 0.42028604 -0.57036533 0.70572164
vn 0.27944845 -0.92432864 0.25985599
vn 0.40976420 -0.56743005 -0.71422436
vn 0.66292321 -0.67657923 -0.32058284
vn 0.78316850 -0.57878988 0.22726499
vn 0.67394083 -0.45979129 0.57826960
vn 0.18086409 -0.69525088 0.69563956
vn 0.38751365 -0.84876990 -0.35975384
vn 0.42084674 -0.86068935 0.28653422
vn 0.69175509 -0.49877704 -0.52220336
vn 0.24076982 -0.75752613 -0.60678173
f 5//5 2//2 1//1
f 6//6 1//1 3//3
f 7//7 1//1 2//2
f 7//7 3//3 1//1
f 8//8 6//6 3//3
f 8//8 3//3 4//4
f 9//9 5//5 1//1
f 9//9 1//1 6//6
f 11//11 4//4 3//3
f 11//11 3//3 7//7
f 11//11 9//9 4//4
f 11//11 5//5 9//9
f 12//12 8//8 4//4
f 12//12 4//4 9//9
f 12//12 6//6 8//8
f 14//14 2//2 5//5
f 16//16 12//12 9//9
f 16//16 9//9 6//6
f 16//16 6//6 12//12
f 17//17 7//7 2//2
f 18//18 10//10 13//13
f 18//18 14//14 10//10
f 18//18 2//2 14//14
f 19//19 5//5 11//11
f 20//20 11//11 7//7
f 21//21 13//13 10//10
f 21//21 10//10 15//15
f 21//21 15//15 20//20
f 21//21 17//17 13//13
f 22//22 17//17 2//2
f 22//22 13//13 17//17
f 23//23 18//18 13//13
f 23//23 2//2 18//18
f 23//23 22//22 2//2
f 23//23 13//13 22//22
f 24//24 19//19 14//14
f 24//24 14//14 5//5
f 24//24 5//5 19//19
f 25//25 15//15 10//10
f 25//25 20//20 15//15
f 26//26 10//10 14//14
f 26//26 14//14 19//19
f 26//26 25//25 10//10
f 26//26 19//19 25//25
f 27//27 21//21 20//20
f 27//27 20//20 7//7
f 27//27 7//7 17//17
f 27//27 17//17 21//21
f 28//28 25//25 19//19
f 28//28 19//19 11//11
f 28//28 11//11 20//20
f 28//28 20//20 25//25

