# https://github.com/mikedh/trimesh
v -0.00459057 -0.06164796 0.01981622
v -0.00430710 -0.07744863 0.01872073
v -0.00474531 -0.06074827 -0.01928069
v -0.04243846 -0.05445942 -0.01944704
v -0.04275894 -0.05464154 0.01907583
v -0.00574919 -0.07736988 -0.01857485
v -0.00432329 -0.07750738 -0.01863090
v -0.01325608 -0.07503452 0.01961421
v -0.02034147 -0.05299864 0.01898204
v -0.00573501 -0.07734381 0.01864675
v -0.02473002 -0.07156015 -0.01907702
v -0.00436851 -0.07653407 0.01964244
v -0.04154485 -0.05476914 0.01979588
v -0.00467717 -0.06057829 0.01907504
v -0.02020012 -0.05289225 -0.01870121
v -0.00439999 -0.07678860 -0.01947847
v -0.01451295 -0.07584592 0.01811733
v -0.03875250 -0.06156940 -0.00571691
v -0.00582644 -0.07649048 0.01956485
v -0.02011287 -0.05437563 0.01973717
v -0.01998521 -0.05415278 -0.01959691
v -0.00636964 -0.05978439 -0.01839654
v -0.01162876 -0.07600517 -0.01910562
v -0.03181407 -0.06706766 -0.01915661
v -0.01312645 -0.07595365 0.01870566
v -0.03073936 -0.06750687 0.01944528
v -0.04174668 -0.05696637 -0.01844501
v -0.01445631 -0.07572597 -0.01849793
v -0.03952914 -0.05885491 0.01944648
v -0.03458453 -0.06555410 0.01798724
v -0.02319154 -0.07284606 0.01797754
v -0.04168715 -0.05691916 0.01863321
v -0.04211272 -0.05569311 -0.01907989
v -0.03741309 -0.06255216 -0.01841810
v -0.04112255 -0.05600607 0.01964503
v -0.01890988 -0.07431609 0.01863528
v -0.02318995 -0.07268891 -0.01844787
v -0.03040751 -0.06854655 0.01864143
v -0.03888925 -0.06121095 0.01525495
v -0.03752483 -0.06264550 0.01793488
v -0.03450837 -0.06544253 -0.01839105
v -0.03916093 -0.05994928 -0.01907335
v -0.01913160 -0.07348386 0.01948787
v -0.02608594 -0.07127030 -0.01846061
v -0.02893825 -0.06985070 -0.00873574
v -0.02600338 -0.07123034 0.01863689
v -0.02757933 -0.07001325 -0.01907640
v -0.02893406 -0.06984392 0.00778900
vn 0.68349858 0.17696992 0.70817466
vn 0.60984788 -0.73047948 0.30738460
vn 0.68358263 0.41015188 -0.60373025
vn -0.67204735 0.45366928 -0.58526622
vn -0.80484866 0.42130838 0.41799268
vn -0.13441166 -0.93224309 -0.33594095
vn 0.61081636 -0.73860169 -0.28525590
vn -0.10001674 -0.40030731 0.91090653
vn 0.16066810 0.87054984 0.46511154
vn -0.12294629 -0.92772474 0.35243583
vn -0.23860869 -0.49726225 -0.83414396
vn 0.59920045 -0.31171758 0.73742184
vn -0.28847135 0.44338295 0.84864353
vn 0.73511623 0.58680120 0.33951211
vn 0.16728879 0.89448571 -0.41462005
vn 0.57355629 -0.34815500 -0.74149935
vn -0.25247194 -0.94748368 0.19629722
vn -0.76655290 -0.64216689 -0.00428327
vn -0.08663933 -0.55863546 0.82487578
vn 0.07944967 0.29652488 0.95171463
vn 0.09070807 0.34486584 -0.93425885
vn 0.46595242 0.88239776 -0.06528815
vn -0.14152013 -0.62343219 -0.76896317
vn -0.36537674 -0.51522946 -0.77526669
vn -0.18047595 -0.85206941 0.49133101
vn -0.30347602 -0.38687195 0.87076541
vn -0.84758784 -0.46920625 -0.24787163
vn -0.25836294 -0.88851251 -0.37920194
vn -0.45909431 -0.39028411 0.79806687
vn -0.62816878 -0.70085687 0.33794029
vn -0.39379010 -0.89196152 0.22211261
vn -0.80340210 -0.49495163 0.33101050
vn -0.82871193 -0.36297549 -0.42601094
vn -0.67976115 -0.63461067 -0.36768747
vn -0.40927605 -0.28197539 0.86774593
vn -0.30512744 -0.88033608 0.36318815
vn -0.34732513 -0.87505369 -0.33711466
vn -0.52159654 -0.77302613 0.36106462
vn -0.78802446 -0.61503370 0.02740428
vn -0.69094402 -0.64333516 0.32972146
vn -0.61984360 -0.69890056 -0.35683598
vn -0.52693158 -0.43136295 -0.73230398
vn -0.17712227 -0.44341150 0.87864324
vn -0.47085616 -0.84048113 -0.26811555
vn -0.53776041 -0.84304455 -0.00946757
vn -0.43057531 -0.77532248 0.46203891
vn -0.35675991 -0.54376516 -0.75963268
vn -0.53584743 -0.84430044 0.00493054
f 7//7 1//1 2//2
f 7//7 3//3 1//1
f 9//9 4//4 5//5
f 10//10 7//7 2//2
f 10//10 6//6 7//7
f 12//12 2//2 1//1
f 13//13 9//9 5//5
f 13//13 12//12 1//1
f 13//13 8//8 12//12
f 14//14 9//9 1//1
f 14//14 1//1 3//3
f 15//15 4//4 9//9
f 15//15 9//9 14//14
f 16//16 7//7 6//6
f 16//16 3//3 7//7
f 17//17 6//6 10//10
f 19//19 10//10 2//2
f 19//19 2//2 12//12
f 19//19 12//12 8//8
f 20//20 13//13 1//1
f 20//20 1//1 9//9
f 20//20 9//9 13//13
f 21//21 15//15 3//3
f 21//21 4//4 15//15
f 21//21 16//16 4//4
f 21//21 3//3 16//16
f 22//22 15//15 14//14
f 22//22 14//14 3//3
f 22//22 3//3 15//15
f 23//23 16//16 6//6
f 23//23 11//11 16//16
f 24//24 16//16 11//11
f 24//24 4//4 16//16
f 25//25 17//17 10//10
f 25//25 19//19 8//8
f 25//25 10//10 19//19
f 26//26 8//8 13//13
f 28//28 11//11 23//23
f 28//28 23//23 6//6
f 28//28 6//6 17//17
f 29//29 26//26 13//13
f 30//30 26//26 29//29
f 31//31 28//28 17//17
f 32//32 27//27 18//18
f 32//32 5//5 27//27
f 32//32 29//29 5//5
f 33//33 27//27 5//5
f 33//33 5//5 4//4
f 34//34 18//18 27//27
f 35//35 29//29 13//13
f 35//35 13//13 5//5
f 35//35 5//5 29//29
f 36//36 31//31 17//17
f 36//36 17//17 25//25
f 37//37 11//11 28//28
f 37//37 28//28 31//31
f 38//38 26//26 30//30
f 39//39 32//32 18//18
f 40//40 30//30 29//29
f 40//40 29//29 32//32
f 40//40 32//32 39//39
f 40//40 39//39 18//18
f 40//40 18//18 30//30
f 41//41 30//30 18//18
f 41//41 18//18 34//34
f 41//41 34//34 24//24
f 42//42 34//34 27//27
f 42//42 27//27 33//33
f 42//42 33//33 4//4
f 42//42 4//4 24//24
f 42//42 24//24 34//34
f 43//43 36//36 25//25
f 43//43 25//25 8//8
f 43//43 8//8 26//26
f 44//44 11//11 37//37
f 44//44 41//41 24//24
f 44//44 37//37 31//31
f 45//45 30//30 41//41
f 45//45 41//41 44//44
f 45//45 44//44 31//31
f 46//46 43//43 26//26
f 46//46 26//26 38//38
f 46//46 31//31 36//36
f 46//46 36//36 43//43
f 47//47 44//44 24//24
f 47//47 24//24 11//11
f 47//47 11//11 44//44
f 48//48 38//38 30//30
f 48//48 30//30 45//45
f 48//48 46//46 38//38
f 48//48 45//45 31//31
f 48//48 31//31 46//46

