# https://github.com/mikedh/trimesh
v 0.02561914 -0.02517710 0.02065243
v 0.02581006 -0.03249655 0.01831478
v 0.02565282 -0.02516383 0.01388332
v -0.01610169 -0.01874498 0.01067871
v -0.01603331 -0.02517728 0.02100232
v 0.01105017 -0.03423223 0.01386423
v 0.00888446 -0.01506151 0.01465566
v -0.00155057 -0.02929014 0.02064447
v 0.02562394 -0.03413336 0.01377027
v -0.01606350 -0.02516383 0.01075460
v 0.01132194 -0.01585524 0.01871619
v -0.00146471 -0.01799341 0.01072754
v 0.02557742 -0.02988398 0.02008572
v -0.01491057 -0.02535588 0.02120252
v 0.01098032 -0.03238826 0.01858769
v 0.02461971 -0.03325919 0.01656356
v -0.01610658 -0.01893628 0.01273269
v 0.00769301 -0.01636940 0.01351624
v -0.00146279 -0.02516383 0.01075460
v 0.02570109 -0.03169191 0.01930104
v -0.01599564 -0.02243450 0.02012863
v -0.01202172 -0.02436620 0.02101065
v 0.01081721 -0.03336059 0.01647623
v 0.02563914 -0.03356742 0.01564455
v -0.01606681 -0.01993593 0.01748508
v -0.01195329 -0.02522697 0.02115158
v 0.01135110 -0.01798111 0.01921346
v -0.01488608 -0.02454082 0.02093135
vn 0.67725444 0.35527394 0.64428786
vn 0.69299862 -0.61647343 0.37378260
vn 0.72087080 0.39208015 -0.57150542
vn -0.61039718 0.55131005 -0.56874645
vn -0.67968893 -0.38260913 0.62580605
vn -0.08494519 -0.90635064 -0.41389955
vn 0.15029440 0.93202553 -0.32975750
vn -0.14572860 -0.65086290 0.74507762
vn 0.57806938 -0.66658121 -0.47064348
vn -0.64386048 -0.47949250 -0.59626389
vn 0.22896612 0.80622093 0.54551108
vn 0.02743898 0.47290428 -0.88068646
vn 0.58690937 -0.19950659 0.78468753
vn -0.17307560 -0.32011321 0.93143565
vn -0.04882893 -0.78422744 0.61854916
vn 0.01795264 -0.93227780 0.36129740
vn -0.75369054 0.64980628 0.09850063
vn 0.19353761 0.48336315 -0.85375831
vn 0.03412401 -0.14733289 -0.98849814
vn 0.61930232 -0.44750455 0.64513898
vn -0.66540840 0.38467955 0.63972908
vn -0.01346531 0.25826504 0.96598026
vn -0.09706461 -0.92944007 0.35597698
vn 0.49342475 -0.82806581 0.26615601
vn -0.70682489 0.62091726 0.33891050
vn 0.01227581 0.12818034 0.99167490
vn 0.01453263 0.22599175 0.97402081
vn -0.06129313 0.32233308 0.94463990
f 1//1 2//2 3//3
f 8//8 5//5 6//6
f 9//9 3//3 2//2
f 10//10 6//6 5//5
f 10//10 9//9 6//6
f 11//11 1//1 3//3
f 11//11 3//3 7//7
f 12//12 4//4 7//7
f 12//12 3//3 9//9
f 13//13 1//1 8//8
f 14//14 8//8 1//1
f 14//14 5//5 8//8
f 17//17 10//10 5//5
f 17//17 4//4 10//10
f 17//17 7//7 4//4
f 18//18 12//12 7//7
f 18//18 7//7 3//3
f 18//18 3//3 12//12
f 19//19 10//10 4//4
f 19//19 4//4 12//12
f 19//19 12//12 9//9
f 19//19 9//9 10//10
f 20//20 2//2 1//1
f 20//20 1//1 13//13
f 20//20 15//15 2//2
f 20//20 13//13 8//8
f 20//20 8//8 15//15
f 21//21 5//5 14//14
f 22//22 11//11 21//21
f 23//23 15//15 8//8
f 23//23 8//8 6//6
f 23//23 16//16 2//2
f 23//23 2//2 15//15
f 24//24 9//9 2//2
f 24//24 2//2 16//16
f 24//24 6//6 9//9
f 24//24 23//23 6//6
f 24//24 16//16 23//23
f 25//25 11//11 7//7
f 25//25 7//7 17//17
f 25//25 21//21 11//11
f 25//25 17//17 5//5
f 25//25 5//5 21//21
f 26//26 22//22 14//14
f 26//26 14//14 1//1
f 26//26 1//1 22//22
f 27//27 22//22 1//1
f 27//27 1//1 11//11
f 27//27 11//11 22//22
f 28//28 22//22 21//21
f 28//28 21//21 14//14
f 28//28 14//14 22//22

