# https://github.com/mikedh/trimesh
v 0.00213499 -0.02925416 0.01517722
v 0.00206301 -0.03230824 0.01362979
v 0.00272743 -0.01685274 -0.01549194
v -0.04730577 -0.01568334 -0.01612439
v -0.04983922 -0.03080268 0.01429808
v -0.04267056 -0.03328312 -0.01431788
v -0.04133920 -0.01563376 0.01609989
v -0.04792049 -0.03095735 0.01497873
v 0.00215094 -0.03246735 -0.01354133
v -0.00924263 -0.02861400 -0.01706310
v -0.05075988 -0.03075076 -0.01070027
v -0.00003285 -0.01498150 0.00969776
v -0.05197241 -0.01560058 0.01079368
v -0.00311588 -0.03085427 0.01490061
v -0.04727770 -0.01565707 0.01623271
v -0.04692107 -0.03429299 0.01159812
v 0.00214818 -0.03342638 -0.00875855
v -0.04550291 -0.03090075 -0.01585446
v -0.01045473 -0.02325265 -0.01699372
v 0.00214623 -0.03154784 -0.01500533
v 0.00230898 -0.01573062 -0.01488145
v -0.05195537 -0.02916623 0.00980719
v -0.05203686 -0.01562089 -0.01057298
v -0.00535132 -0.03256080 0.01397968
v 0.00099350 -0.02998545 0.01507506
v -0.04923021 -0.02974333 0.01502165
v -0.05112633 -0.01562093 0.01332687
v -0.01670583 -0.02707794 0.01621413
v -0.04838071 -0.03257371 0.01389182
v -0.04674436 -0.03433980 -0.00978220
v -0.00000905 -0.03438010 0.00573633
v -0.03735297 -0.03229802 -0.01508352
v -0.02597147 -0.02710559 -0.01709467
v -0.04804348 -0.03071491 -0.01501060
v 0.00237051 -0.02009681 -0.01614645
v -0.01160043 -0.03317944 -0.01343392
v -0.05014980 -0.03336774 0.00689546
v -0.05199169 -0.02708282 -0.00666173
v -0.04924036 -0.01566308 -0.01490874
v 0.00201045 -0.03165671 0.01405632
v -0.04569148 -0.02795862 0.01591135
v -0.05019848 -0.01568528 0.01435045
v -0.05084542 -0.02988222 0.01327989
v -0.01672258 -0.02633137 0.01611351
v -0.01877818 -0.02796229 0.01603365
v -0.02383506 -0.03253503 0.01403132
v 0.00189990 -0.03328058 0.01151833
v -0.03849055 -0.03440327 -0.01063401
v -0.01441107 -0.02902404 -0.01695340
v -0.04549745 -0.03249776 -0.01487888
v -0.04736059 -0.02709768 -0.01594838
v -0.00628676 -0.02615511 -0.01706496
v -0.01957954 -0.02364586 -0.01700195
v -0.05086442 -0.02896965 -0.01226508
v -0.04812748 -0.03324670 -0.01230155
v 0.00216205 -0.02974857 -0.01598411
v -0.00105577 -0.03328671 -0.01166027
v -0.05091557 -0.03243670 0.00592379
v -0.05010392 -0.03328868 0.01081032
v -0.04827848 -0.03428258 0.00266490
v -0.04679623 -0.02515190 0.01606128
v -0.05196096 -0.02295557 0.01072968
v -0.00858888 -0.03323176 0.01340216
v -0.00103818 -0.03441629 0.00166745
vn 0.68190576 0.00471134 0.73142487
vn 0.66526119 -0.57026968 0.48189215
vn 0.71448116 0.31203741 -0.62621827
vn -0.22250956 0.64190721 -0.73378786
vn -0.63550169 -0.37686337 0.67387804
vn -0.03710774 -0.82921182 -0.55770133
vn 0.02328944 0.69540115 0.71824428
vn -0.14530420 -0.40060387 0.90465642
vn 0.68168898 -0.67256636 -0.28801844
vn 0.02266507 -0.26594629 -0.96372136
vn -0.86085570 -0.46184747 -0.21359863
vn 0.53793971 0.72548893 0.42928625
vn -0.73327737 0.66876585 0.12270511
vn 0.03280549 -0.40966680 0.91164517
vn -0.21461365 0.63451305 0.74251880
vn -0.13908396 -0.94380192 0.29982261
vn 0.70512692 -0.70528286 -0.07329468
vn -0.15327716 -0.31826796 -0.93552746
vn 0.01323082 0.10951834 -0.99389671
vn 0.64919339 -0.52262360 -0.55264141
vn 0.51224788 0.76946480 -0.38147874
vn -0.97500085 -0.18128020 0.12849452
vn -0.73635151 0.64027172 -0.21872033
vn 0.03356812 -0.64807757 0.76083418
vn 0.08409622 -0.34761216 0.93385952
vn -0.46446557 -0.15792765 0.87139577
vn -0.64868778 0.65367509 0.38976024
vn 0.03858319 -0.05562304 0.99770608
vn -0.29538903 -0.69059846 0.66016595
vn -0.25674613 -0.95830611 -0.12542256
vn 0.22310374 -0.97319012 0.05590803
vn 0.00577242 -0.57752916 -0.81634965
vn -0.02124476 -0.07504817 -0.99695358
vn -0.56339894 -0.36171911 -0.74279265
vn 0.55385886 0.06103014 -0.83037081
vn 0.02353758 -0.90422454 -0.42640822
vn -0.61087012 -0.79172732 0.00235659
vn -0.98921008 -0.13063922 -0.06630840
vn -0.52964231 0.65090065 -0.54388175
vn 0.45121390 -0.44445443 0.77386451
vn -0.06415069 -0.16960473 0.98342205
vn -0.51465187 0.59606482 0.61631175
vn -0.86702867 -0.19877775 0.45689024
vn 0.06894739 0.15377516 0.98569745
vn 0.00111011 -0.27236441 0.96219353
vn -0.00062565 -0.60519199 0.79607931
vn 0.62512217 -0.75697694 0.19028450
vn -0.00019853 -0.98838135 -0.15199431
vn 0.00084569 -0.35656099 -0.93427166
vn -0.19565218 -0.70069306 -0.68611184
vn -0.39878967 -0.05803327 -0.91520431
vn 0.06027022 -0.00690945 -0.99815818
vn -0.00354481 0.06258001 -0.99803366
vn -0.87341177 -0.19648437 -0.44558474
vn -0.51117178 -0.77896067 -0.36321302
vn 0.65800025 -0.22232775 -0.71944843
vn 0.05746745 -0.97659217 -0.20728056
vn -0.87164184 -0.48945535 -0.02596096
vn -0.65961918 -0.72021019 0.21494145
vn -0.29829926 -0.95415713 -0.02452991
vn -0.16962922 -0.04701187 0.98438601
vn -0.98297398 -0.01239843 0.18332601
vn 0.01514151 -0.87125389 0.49059901
vn 0.08241639 -0.99602543 -0.03377684
f 1//1 2//2 3//3
f 12//12 7//7 1//1
f 12//12 1//1 3//3
f 15//15 7//7 12//12
f 17//17 9//9 3//3
f 17//17 3//3 2//2
f 20//20 3//3 9//9
f 21//21 12//12 3//3
f 21//21 3//3 4//4
f 21//21 4//4 12//12
f 23//23 22//22 13//13
f 23//23 13//13 12//12
f 24//24 14//14 8//8
f 26//26 5//5 8//8
f 27//27 15//15 12//12
f 27//27 12//12 13//13
f 28//28 7//7 15//15
f 28//28 25//25 1//1
f 29//29 8//8 5//5
f 32//32 20//20 6//6
f 35//35 19//19 4//4
f 35//35 4//4 3//3
f 36//36 20//20 9//9
f 36//36 6//6 20//20
f 38//38 22//22 23//23
f 39//39 23//23 12//12
f 39//39 12//12 4//4
f 40//40 24//24 2//2
f 40//40 14//14 24//24
f 40//40 25//25 14//14
f 40//40 2//2 1//1
f 40//40 1//1 25//25
f 41//41 26//26 8//8
f 42//42 26//26 15//15
f 42//42 15//15 27//27
f 43//43 5//5 26//26
f 43//43 42//42 27//27
f 43//43 26//26 42//42
f 44//44 28//28 1//1
f 44//44 1//1 7//7
f 44//44 7//7 28//28
f 45//45 8//8 14//14
f 45//45 14//14 25//25
f 45//45 25//25 28//28
f 45//45 41//41 8//8
f 45//45 28//28 41//41
f 46//46 24//24 8//8
f 46//46 8//8 29//29
f 47//47 31//31 17//17
f 47//47 17//17 2//2
f 48//48 30//30 6//6
f 48//48 6//6 36//36
f 48//48 16//16 30//30
f 49//49 32//32 18//18
f 49//49 10//10 20//20
f 49//49 20//20 32//32
f 49//49 33//33 10//10
f 49//49 18//18 33//33
f 50//50 32//32 6//6
f 50//50 18//18 32//32
f 50//50 34//34 18//18
f 51//51 33//33 18//18
f 51//51 4//4 33//33
f 51//51 18//18 34//34
f 51//51 39//39 4//4
f 51//51 34//34 39//39
f 52//52 33//33 19//19
f 52//52 10//10 33//33
f 52//52 19//19 35//35
f 53//53 33//33 4//4
f 53//53 4//4 19//19
f 53//53 19//19 33//33
f 54//54 34//34 11//11
f 54//54 39//39 34//34
f 54//54 23//23 39//39
f 54//54 38//38 23//23
f 54//54 11//11 38//38
f 55//55 11//11 34//34
f 55//55 37//37 11//11
f 55//55 34//34 50//50
f 55//55 50//50 6//6
f 55//55 6//6 30//30
f 56//56 35//35 3//3
f 56//56 3//3 20//20
f 56//56 52//52 35//35
f 56//56 20//20 10//10
f 56//56 10//10 52//52
f 57//57 36//36 9//9
f 57//57 9//9 17//17
f 57//57 48//48 36//36
f 58//58 11//11 37//37
f 58//58 38//38 11//11
f 58//58 22//22 38//38
f 59//59 16//16 29//29
f 59//59 29//29 5//5
f 59//59 5//5 43//43
f 59//59 58//58 37//37
f 59//59 43//43 22//22
f 59//59 22//22 58//58
f 60//60 30//30 16//16
f 60//60 59//59 37//37
f 60//60 16//16 59//59
f 60//60 55//55 30//30
f 60//60 37//37 55//55
f 61//61 15//15 26//26
f 61//61 26//26 41//41
f 61//61 41//41 28//28
f 61//61 28//28 15//15
f 62//62 43//43 27//27
f 62//62 27//27 13//13
f 62//62 13//13 22//22
f 62//62 22//22 43//43
f 63//63 46//46 29//29
f 63//63 29//29 16//16
f 63//63 24//24 46//46
f 63//63 16//16 31//31
f 63//63 31//31 47//47
f 63//63 47//47 2//2
f 63//63 2//2 24//24
f 64//64 17//17 31//31
f 64//64 31//31 16//16
f 64//64 16//16 48//48
f 64//64 57//57 17//17
f 64//64 48//48 57//57

