# https://github.com/mikedh/trimesh
v 0.07265113 -0.02572436 0.01651691
v 0.07608743 -0.03170443 0.01478147
v 0.07605648 -0.02263297 -0.01477470
v 0.04375843 -0.02534062 -0.01647672
v 0.02499212 -0.02548769 0.01592912
v 0.07382863 -0.03354456 -0.01108792
v 0.07470675 -0.02396418 0.01409339
v 0.07334830 -0.03028807 0.01655979
v 0.02188218 -0.01609832 -0.00757749
v 0.07818418 -0.03108705 -0.00915118
v 0.07174337 -0.02533803 -0.01659715
v 0.03957918 -0.03421741 0.00106810
v 0.07601370 -0.02790007 0.01513642
v 0.02832405 -0.01796250 0.01559583
v 0.03974144 -0.03263866 0.01383124
v 0.06467939 -0.02721155 0.01666227
v 0.04352000 -0.02004476 -0.01405401
v 0.07397981 -0.03365723 0.00342141
v 0.04698511 -0.02556805 -0.01667944
v 0.07557473 -0.02530337 -0.01562071
v 0.06457886 -0.03324806 -0.01142110
v 0.02498348 -0.02530593 -0.00728675
v 0.07394188 -0.02485985 0.01563719
v 0.07843550 -0.03003486 -0.00802240
v 0.07538460 -0.03103021 0.01548025
v 0.07344258 -0.02660999 0.01643705
v 0.02528247 -0.01812321 0.01472991
v 0.07249367 -0.01912911 -0.00037259
v 0.03950880 -0.03002609 0.01560217
v 0.07045732 -0.03352495 0.01407499
v 0.03957052 -0.03370952 0.01116100
v 0.07270772 -0.01907770 -0.01298886
v 0.04367183 -0.02258839 -0.01567697
v 0.07722521 -0.03205632 -0.01102655
v 0.05002574 -0.03461856 0.00428711
v 0.07647155 -0.03247920 -0.01117993
v 0.07547792 -0.02358898 -0.01528068
v 0.07704999 -0.02561373 -0.01418706
v 0.07204325 -0.03360858 -0.01116702
v 0.07483041 -0.02489333 0.01473549
v 0.06761332 -0.02274932 0.01542698
v 0.07809133 -0.03121069 -0.00681941
v 0.07700451 -0.02246221 -0.01204995
v 0.07499530 -0.02695582 0.01572838
v 0.07441549 -0.03189507 0.01565945
v 0.02501888 -0.02347776 0.01547491
v 0.03411083 -0.01796696 0.01559465
v 0.03963246 -0.03183401 0.01481749
v 0.07246566 -0.03342798 0.01354396
v 0.04073102 -0.03338238 0.01209276
v 0.07379524 -0.02080797 -0.01439729
v 0.04349440 -0.02082462 -0.01469640
v 0.04704174 -0.02474967 -0.01647776
v 0.05197656 -0.03453622 0.00928734
v 0.07426302 -0.02334833 0.01414162
v 0.07329623 -0.02407854 0.01545975
v 0.07602189 -0.02685343 0.01409733
v 0.07597101 -0.02063981 -0.00771416
v 0.07499099 -0.02001406 -0.01293997
v 0.07022615 -0.03221104 0.01547817
v 0.04393513 -0.03079938 0.01542939
v 0.07385452 -0.03365189 0.00481340
v 0.07357966 -0.03240450 0.01512673
v 0.07370493 -0.02265070 -0.01537497
vn 0.16859498 0.25979610 0.95083212
vn 0.76307222 -0.50120391 0.40806302
vn 0.63067375 0.39762781 -0.66644036
vn -0.22775249 -0.33887370 -0.91284907
vn -0.65967669 -0.38926047 0.64288642
vn 0.18858388 -0.87180346 -0.45210048
vn 0.81855712 0.48025461 0.31515035
vn 0.18502756 -0.20097643 0.96196324
vn -0.73386773 0.53618740 -0.41706262
vn 0.91785952 -0.36954194 -0.14481940
vn 0.09232970 -0.09216955 -0.99145348
vn -0.26726636 -0.94878345 -0.16845966
vn 0.83757211 0.10838736 0.53546721
vn -0.09268494 0.68790969 0.71985399
vn -0.17579378 -0.85368547 0.49022206
vn -0.01027325 0.00509823 0.99993423
vn -0.03592305 0.73533944 -0.67674621
vn 0.31418556 -0.94919562 0.01775113
vn -0.05759455 -0.25796328 -0.96443653
vn 0.44179209 -0.13063853 -0.88755469
vn -0.04832834 -0.84218709 -0.53701515
vn -0.67643239 -0.57335995 -0.46227437
vn 0.49493780 0.41567247 0.76305503
vn 0.99980797 -0.01100667 -0.01621317
vn 0.52948957 -0.16211386 0.83268235
vn 0.31971302 0.12466798 0.93927710
vn -0.60993303 0.60290574 0.51428238
vn 0.34205389 0.93137786 0.12463714
vn -0.05391438 -0.29549027 0.95382322
vn 0.03915757 -0.92041255 0.38898254
vn -0.24691000 -0.94832745 0.19927494
vn 0.17541627 0.90215717 -0.39413395
vn -0.12213399 0.37263908 -0.91990402
vn 0.69278715 -0.59660555 -0.40510219
vn -0.01058992 -0.99979203 -0.01742863
vn 0.40498317 -0.77653724 -0.48267851
vn 0.31375156 0.25154920 -0.91557794
vn 0.85920894 -0.04456557 -0.50968021
vn 0.03085480 -0.87297081 -0.48679560
vn 0.74381944 0.40713061 0.53007293
vn 0.11713845 0.76307394 0.63560738
vn 0.84481065 -0.53219289 0.05536872
vn 0.91608872 0.37698726 -0.13660914
vn 0.56659348 0.19787058 0.79988690
vn 0.27476960 -0.62186051 0.73334246
vn -0.96125860 0.07659874 0.26479149
vn 0.03097851 0.73233263 0.68024206
vn -0.12838290 -0.62699154 0.76837455
vn 0.21465434 -0.95290132 0.21424890
vn -0.03198414 -0.92804690 0.37108754
vn 0.19082228 0.59163237 -0.78329942
vn -0.07792547 0.54951041 -0.83184490
vn -0.01362293 0.29134934 -0.95651972
vn -0.00638790 -0.99063678 0.13637435
vn 0.51439497 0.76014108 0.39696769
vn 0.27592657 0.61995594 0.73451968
vn 0.93622919 0.28091497 0.21109637
vn 0.74971857 0.65945182 0.05518480
vn 0.54796324 0.77385052 -0.31763449
vn -0.01042174 -0.60919358 0.79295307
vn -0.02873796 -0.39790475 0.91697652
vn 0.28776439 -0.95696960 0.03742773
vn 0.17812837 -0.84280735 0.50788389
vn 0.12833077 0.39579283 -0.90932901
f 16//16 8//8 1//1
f 16//16 5//5 8//8
f 16//16 14//14 5//5
f 16//16 1//1 14//14
f 21//21 12//12 4//4
f 21//21 4//4 19//19
f 22//22 9//9 4//4
f 22//22 4//4 12//12
f 22//22 12//12 5//5
f 22//22 5//5 9//9
f 24//24 13//13 2//2
f 25//25 2//2 13//13
f 26//26 1//1 8//8
f 26//26 23//23 1//1
f 27//27 14//14 9//9
f 27//27 5//5 14//14
f 29//29 8//8 5//5
f 31//31 15//15 5//5
f 31//31 5//5 12//12
f 32//32 17//17 9//9
f 32//32 9//9 28//28
f 33//33 4//4 9//9
f 34//34 2//2 18//18
f 35//35 6//6 18//18
f 36//36 6//6 11//11
f 36//36 11//11 20//20
f 36//36 20//20 34//34
f 36//36 34//34 18//18
f 36//36 18//18 6//6
f 37//37 20//20 11//11
f 37//37 3//3 20//20
f 38//38 20//20 3//3
f 38//38 34//34 20//20
f 38//38 10//10 34//34
f 38//38 24//24 10//10
f 39//39 12//12 21//21
f 39//39 35//35 12//12
f 39//39 6//6 35//35
f 39//39 11//11 6//6
f 39//39 21//21 19//19
f 39//39 19//19 11//11
f 42//42 24//24 2//2
f 42//42 10//10 24//24
f 42//42 34//34 10//10
f 42//42 2//2 34//34
f 43//43 38//38 3//3
f 43//43 24//24 38//38
f 44//44 25//25 13//13
f 44//44 8//8 25//25
f 44//44 26//26 8//8
f 44//44 23//23 26//26
f 44//44 40//40 23//23
f 44//44 13//13 40//40
f 45//45 25//25 8//8
f 45//45 2//2 25//25
f 46//46 27//27 9//9
f 46//46 9//9 5//5
f 46//46 5//5 27//27
f 47//47 28//28 9//9
f 47//47 9//9 14//14
f 47//47 14//14 1//1
f 47//47 1//1 41//41
f 48//48 29//29 5//5
f 48//48 5//5 15//15
f 48//48 15//15 30//30
f 50//50 31//31 30//30
f 50//50 30//30 15//15
f 50//50 15//15 31//31
f 52//52 33//33 9//9
f 52//52 9//9 17//17
f 52//52 51//51 33//33
f 52//52 17//17 32//32
f 52//52 32//32 51//51
f 53//53 19//19 4//4
f 53//53 4//4 33//33
f 53//53 33//33 11//11
f 53//53 11//11 19//19
f 54//54 35//35 18//18
f 54//54 30//30 31//31
f 54//54 31//31 12//12
f 54//54 12//12 35//35
f 55//55 40//40 7//7
f 55//55 23//23 40//40
f 55//55 47//47 41//41
f 55//55 28//28 47//47
f 56//56 41//41 1//1
f 56//56 1//1 23//23
f 56//56 55//55 41//41
f 56//56 23//23 55//55
f 57//57 13//13 24//24
f 57//57 24//24 43//43
f 57//57 40//40 13//13
f 57//57 7//7 40//40
f 58//58 28//28 55//55
f 58//58 55//55 7//7
f 58//58 57//57 43//43
f 58//58 7//7 57//57
f 59//59 43//43 3//3
f 59//59 58//58 43//43
f 59//59 32//32 28//28
f 59//59 28//28 58//58
f 59//59 51//51 32//32
f 59//59 3//3 51//51
f 60//60 48//48 30//30
f 60//60 30//30 45//45
f 60//60 45//45 8//8
f 60//60 8//8 48//48
f 61//61 48//48 8//8
f 61//61 8//8 29//29
f 61//61 29//29 48//48
f 62//62 49//49 30//30
f 62//62 18//18 2//2
f 62//62 2//2 49//49
f 62//62 54//54 18//18
f 62//62 30//30 54//54
f 63//63 45//45 30//30
f 63//63 30//30 49//49
f 63//63 49//49 2//2
f 63//63 2//2 45//45
f 64//64 11//11 33//33
f 64//64 33//33 51//51
f 64//64 37//37 11//11
f 64//64 51//51 3//3
f 64//64 3//3 37//37

