# https://github.com/mikedh/trimesh
v -0.04943070 0.00954824 0.01678038
v -0.04509061 -0.00859718 0.01307687
v -0.04570349 0.00968723 -0.01040578
v -0.05547050 0.00943537 -0.01569064
v -0.06016039 -0.00816642 0.01104973
v -0.04502318 -0.00847732 -0.01505287
v -0.06014738 0.00942202 -0.00016422
v -0.04459443 0.00974110 0.00976325
v -0.05546567 -0.00822291 0.01648876
v -0.04924126 0.00944865 -0.01595077
v -0.05825595 -0.00835305 -0.01379910
v -0.04762554 0.00972070 -0.01491637
v -0.05929706 0.00931756 0.01383756
v -0.04648195 0.00964943 0.01399505
v -0.04297881 -0.00885578 -0.00836424
v -0.04418710 -0.00894878 0.00803350
v -0.04952718 -0.00819960 0.01635593
v -0.05549375 -0.00824918 -0.01586835
v -0.06021215 0.00733976 -0.00936491
v -0.06019888 0.00937806 -0.00748459
v -0.04398284 -0.00849094 -0.01442522
v -0.06018535 0.00521700 0.01012120
v -0.05643219 0.00940357 0.01631756
v -0.05895719 -0.00282527 0.01466524
v -0.04631177 -0.00875403 0.01461679
v -0.04477065 0.00963643 -0.00399678
v -0.04325666 -0.00885508 0.00173586
v -0.05220082 -0.00301462 0.01742951
v -0.04704787 -0.00839955 -0.01572324
v -0.05730702 0.00204498 -0.01468907
v -0.06022483 -0.00818674 -0.01031694
v -0.05902592 0.00934826 -0.01202298
v -0.04668033 0.00964502 -0.01333513
v -0.06013976 0.00421234 0.01111005
v -0.05913505 0.00298313 0.01440278
v -0.05931430 -0.00818677 0.01358292
v -0.05852741 -0.00184119 0.01522998
v -0.05130997 -0.00084041 0.01730201
v -0.05463861 0.00032030 0.01734379
v -0.05742834 -0.00822892 -0.01465270
v -0.05821232 0.00623421 -0.01374959
v -0.06007966 0.00417212 -0.01032533
v -0.05833890 0.00296893 0.01534225
v -0.05739929 -0.00817753 0.01527365
v -0.05194377 0.00715000 0.01743403
v -0.05374109 -0.00285249 0.01727657
v -0.05120793 0.00319559 0.01735729
v -0.05393796 0.00719709 0.01742910
v -0.05445098 0.00543586 0.01736279
vn 0.30152961 0.65976017 0.68832871
vn 0.77317625 -0.52755855 0.35196656
vn 0.66857167 0.72806747 -0.15142550
vn -0.29005791 0.64459807 -0.70736111
vn -0.74447010 -0.65686768 0.11953711
vn 0.31366105 -0.64711023 -0.69488495
vn -0.70549561 0.70863626 0.01051643
vn 0.70511728 0.69057368 0.16098950
vn -0.23243897 -0.66723306 0.70765258
vn 0.16489995 0.56854769 -0.80595380
vn -0.59170699 -0.67230001 -0.44485451
vn 0.47665069 0.71077501 -0.51730359
vn -0.67970048 0.64582122 0.34773871
vn 0.58457674 0.68420801 0.43603833
vn 0.74608415 -0.66098943 -0.08032065
vn 0.68470211 -0.71869533 0.12107870
vn 0.21108108 -0.56395168 0.79837540
vn -0.21283626 -0.61949028 -0.75560077
vn -0.97925650 0.08590188 -0.18351448
vn -0.71977805 0.69235548 -0.05063061
vn 0.68827161 -0.55343214 -0.46903631
vn -0.99554008 0.07243935 0.06043591
vn -0.33986597 0.68416647 0.64529634
vn -0.83530967 -0.04706290 0.54776166
vn 0.46612274 -0.67099285 0.57662655
vn 0.72086057 0.69122603 -0.05066179
vn 0.77289935 -0.63238807 0.05207613
vn 0.07620182 -0.08054256 0.99383408
vn 0.12087762 -0.64659507 -0.75319547
vn -0.61207403 0.01086395 -0.79072584
vn -0.76030223 -0.62157158 -0.18865125
vn -0.63741799 0.68431268 -0.35413904
vn 0.69298731 0.65129522 -0.30916519
vn -0.98530567 0.01934728 0.16970099
vn -0.87591960 0.01347167 0.48226899
vn -0.64348140 -0.65795937 0.39117918
vn -0.64297513 -0.02726003 0.76540177
vn 0.28840981 -0.02493042 0.95718246
vn -0.27047552 -0.01694543 0.96257771
vn -0.52770086 -0.50133833 -0.68570524
vn -0.76337867 0.06468235 -0.64270459
vn -0.94409820 0.01915029 -0.32910768
vn -0.63070928 0.02063475 0.77574481
vn -0.44308299 -0.67332459 0.59187115
vn 0.08343192 0.10638962 0.99081803
vn -0.14584740 -0.07861740 0.98617840
vn 0.23739043 -0.01011163 0.97136169
vn -0.14369107 0.16376005 0.97597926
vn -0.29349817 0.01468322 0.95584686
f 12//12 10//10 4//4
f 12//12 8//8 3//3
f 12//12 7//7 8//8
f 14//14 2//2 8//8
f 15//15 11//11 6//6
f 16//16 5//5 11//11
f 16//16 11//11 15//15
f 16//16 8//8 2//2
f 18//18 4//4 10//10
f 20//20 12//12 4//4
f 20//20 7//7 12//12
f 21//21 6//6 10//10
f 21//21 10//10 12//12
f 21//21 15//15 6//6
f 21//21 3//3 15//15
f 22//22 13//13 7//7
f 22//22 7//7 20//20
f 22//22 20//20 19//19
f 23//23 8//8 7//7
f 23//23 7//7 13//13
f 23//23 14//14 8//8
f 23//23 1//1 14//14
f 25//25 14//14 1//1
f 25//25 2//2 14//14
f 25//25 1//1 17//17
f 25//25 17//17 9//9
f 25//25 16//16 2//2
f 26//26 15//15 3//3
f 26//26 3//3 8//8
f 26//26 8//8 15//15
f 27//27 16//16 15//15
f 27//27 15//15 8//8
f 27//27 8//8 16//16
f 28//28 9//9 17//17
f 29//29 18//18 10//10
f 29//29 10//10 6//6
f 29//29 6//6 11//11
f 29//29 11//11 18//18
f 30//30 4//4 18//18
f 31//31 11//11 5//5
f 31//31 22//22 19//19
f 31//31 5//5 22//22
f 32//32 20//20 4//4
f 32//32 19//19 20//20
f 33//33 21//21 12//12
f 33//33 12//12 3//3
f 33//33 3//3 21//21
f 34//34 22//22 5//5
f 34//34 13//13 22//22
f 35//35 34//34 5//5
f 35//35 13//13 34//34
f 36//36 25//25 9//9
f 36//36 5//5 16//16
f 36//36 16//16 25//25
f 36//36 35//35 5//5
f 36//36 24//24 35//35
f 37//37 35//35 24//24
f 37//37 24//24 36//36
f 38//38 28//28 17//17
f 38//38 17//17 1//1
f 39//39 37//37 9//9
f 40//40 30//30 18//18
f 40//40 18//18 11//11
f 41//41 32//32 4//4
f 41//41 4//4 30//30
f 41//41 11//11 31//31
f 41//41 40//40 11//11
f 41//41 30//30 40//40
f 42//42 31//31 19//19
f 42//42 19//19 32//32
f 42//42 41//41 31//31
f 42//42 32//32 41//41
f 43//43 23//23 13//13
f 43//43 13//13 35//35
f 43//43 35//35 37//37
f 43//43 39//39 23//23
f 43//43 37//37 39//39
f 44//44 37//37 36//36
f 44//44 36//36 9//9
f 44//44 9//9 37//37
f 46//46 39//39 9//9
f 46//46 9//9 28//28
f 46//46 28//28 39//39
f 47//47 38//38 1//1
f 47//47 1//1 45//45
f 47//47 45//45 28//28
f 47//47 28//28 38//38
f 48//48 39//39 28//28
f 48//48 28//28 45//45
f 48//48 45//45 1//1
f 48//48 1//1 23//23
f 49//49 48//48 23//23
f 49//49 23//23 39//39
f 49//49 39//39 48//48

