# https://github.com/mikedh/trimesh
v 0.00569625 0.04693948 0.01639937
v 0.01149458 0.02061728 0.01823076
v 0.01066559 0.04152252 -0.01577671
v -0.00115952 0.04596149 -0.01657470
v -0.00030032 0.03288230 0.01109379
v 0.01167026 0.02048964 -0.01534473
v 0.00112110 0.05258531 -0.00908388
v 0.01044922 0.04646866 0.01292481
v -0.00123002 0.04641765 0.01733840
v 0.01167315 0.03099587 -0.01693331
v -0.00063505 0.03738548 -0.01286864
v 0.00727738 0.02062095 0.00735641
v -0.00057835 0.05197664 -0.01255317
v 0.01126463 0.02989011 0.01856826
v -0.00148093 0.05280631 0.00907908
v 0.01042876 0.04732422 -0.00995134
v 0.00819172 0.02096102 0.01580531
v -0.00106448 0.04259944 -0.01668355
v 0.00891961 0.04096612 -0.01646768
v 0.01180223 0.02377608 0.01878093
v 0.00836434 0.02064818 -0.00716947
v 0.00247163 0.04651158 -0.01560657
v 0.00845109 0.04659037 0.01541393
v 0.00736711 0.04940679 0.00814357
v -0.00143422 0.05073652 0.01498896
v -0.00157588 0.05295464 -0.01202238
v 0.01050957 0.04625299 -0.01184786
v 0.01004178 0.02082161 0.01739619
v 0.00732517 0.02076195 0.01327552
v -0.00097339 0.04003040 -0.01561315
v 0.00270347 0.04489175 -0.01649616
v 0.01104048 0.03701135 -0.01660930
v 0.01176758 0.02458913 -0.01594693
v 0.00870930 0.03005857 0.01868079
v 0.00934277 0.02073962 -0.01110000
v -0.00058576 0.03520228 -0.00705118
v 0.00664326 0.04459166 -0.01546628
v -0.00148335 0.05212336 -0.01271803
v 0.00922800 0.04642732 0.01469905
v 0.00340944 0.05139705 0.00808948
v 0.00953030 0.04841953 -0.00820157
v -0.00131150 0.04897084 0.01653896
v 0.00434986 0.04869123 0.01572612
v 0.00008769 0.05259978 -0.01117429
v -0.00070805 0.05267222 -0.01183062
v 0.00829121 0.02278120 0.01668724
v 0.00731816 0.02178547 0.01482383
v 0.00063743 0.04569137 -0.01650307
v 0.01057016 0.02307624 0.01829885
v 0.01052728 0.02084215 -0.01404941
v -0.00044814 0.03632859 -0.01099840
v 0.01052415 0.04451695 -0.01354906
v 0.00935423 0.04733842 0.01295680
v 0.00045409 0.05250383 0.00804739
v 0.00952163 0.04838076 0.00301776
v 0.00139467 0.05245045 -0.00345943
v 0.00373782 0.04777392 0.01647403
v 0.00249054 0.05037120 0.01406955
v 0.00164902 0.04965376 0.01555347
v 0.00327638 0.05063027 -0.01149588
v 0.01117606 0.02061793 -0.01486873
v 0.00971968 0.04247819 -0.01557528
v 0.00640793 0.04942092 0.01220664
v 0.01035851 0.04740337 0.00813060
vn 0.26048662 0.35565141 0.89758498
vn 0.38931087 -0.66096617 0.64153002
vn 0.73208608 0.29227043 -0.61532753
vn -0.60749484 0.23488242 -0.75880186
vn -0.91937117 -0.32526694 0.22126469
vn 0.36776684 -0.69382383 -0.61915753
vn 0.32232602 0.94349542 -0.07695663
vn 0.86216260 0.43482577 0.26000424
vn -0.65621969 0.07011465 0.75130530
vn 0.65448287 -0.03931341 -0.75505406
vn -0.90169913 -0.37546643 -0.21439133
vn -0.50401065 -0.86361481 -0.01194694
vn 0.31488450 0.64311622 -0.69803243
vn 0.66523613 0.11712745 0.73738867
vn -0.59369757 0.79061376 0.14984353
vn 0.82260136 0.53518259 -0.19211089
vn -0.56531519 -0.70123201 0.43438739
vn -0.69168675 -0.06369268 -0.71938354
vn 0.17346929 0.20342838 -0.96360018
vn 0.60791466 -0.10108904 0.78754096
vn -0.53016898 -0.84323997 -0.08869726
vn 0.23626084 0.54295500 -0.80584160
vn 0.51057447 0.50929658 0.69277031
vn 0.49809401 0.86398882 0.07365915
vn -0.61392575 0.65564941 0.43956687
vn -0.53268778 0.75445534 -0.38345908
vn 0.79959415 0.48122483 -0.35926572
vn -0.46782180 -0.65812514 0.58992717
vn -0.54982248 -0.82485668 0.13155494
vn -0.86296256 -0.27095201 -0.42647464
vn 0.14545477 0.28968303 -0.94600563
vn 0.65444619 0.11924658 -0.74664612
vn 0.77104032 -0.09676253 -0.62939164
vn -0.15523429 -0.02657010 0.98752030
vn -0.59074777 -0.78082712 -0.20328815
vn -0.94516395 -0.31962317 -0.06712778
vn 0.30979254 0.53108362 -0.78865630
vn -0.48525214 0.50078745 -0.71675818
vn 0.68205914 0.48105363 0.55080190
vn 0.38928906 0.91657675 0.09132950
vn 0.59677575 0.79655450 -0.09674521
vn -0.60358295 0.37444066 0.70390469
vn 0.31043236 0.69920649 0.64400468
vn 0.37680201 0.88281654 -0.28045536
vn 0.38077723 0.79022270 -0.48016329
vn -0.63723230 -0.28218566 0.71715149
vn -0.82226376 -0.46248644 0.33164530
vn 0.11323751 0.35890423 -0.92647991
vn -0.37817164 -0.16539837 0.91084005
vn -0.70176605 -0.61988487 -0.35109424
vn -0.86055978 -0.47721110 -0.17806302
vn 0.74685054 0.44592090 -0.49332426
vn 0.55225074 0.78374481 0.28418867
vn 0.26683141 0.95814311 0.10374382
vn 0.60966329 0.79258671 0.01081546
vn 0.33276775 0.94297142 0.00839741
vn 0.15565408 0.38849995 0.90820680
vn 0.27579673 0.88274660 0.38038744
vn 0.17980923 0.71294179 0.67777773
vn 0.44042915 0.77298419 -0.45663728
vn -0.59120568 -0.71085713 -0.38099604
vn 0.34533592 0.51917957 -0.78179004
vn 0.44711269 0.85753941 0.25439419
vn 0.84837413 0.52642878 0.05598278
f 12//12 6//6 2//2
f 14//14 1//1 9//9
f 16//16 8//8 10//10
f 17//17 9//9 5//5
f 18//18 10//10 6//6
f 18//18 4//4 10//10
f 20//20 2//2 6//6
f 20//20 10//10 8//8
f 20//20 8//8 14//14
f 21//21 6//6 12//12
f 23//23 1//1 14//14
f 26//26 15//15 7//7
f 26//26 4//4 18//18
f 26//26 25//25 15//15
f 26//26 9//9 25//25
f 27//27 16//16 10//10
f 27//27 10//10 3//3
f 28//28 17//17 2//2
f 28//28 2//2 9//9
f 29//29 12//12 2//2
f 29//29 2//2 17//17
f 29//29 5//5 12//12
f 30//30 18//18 6//6
f 30//30 26//26 18//18
f 30//30 9//9 26//26
f 31//31 19//19 10//10
f 31//31 10//10 4//4
f 31//31 3//3 19//19
f 32//32 19//19 3//3
f 32//32 3//3 10//10
f 32//32 10//10 19//19
f 33//33 20//20 6//6
f 33//33 6//6 10//10
f 33//33 10//10 20//20
f 34//34 20//20 14//14
f 34//34 14//14 9//9
f 35//35 21//21 11//11
f 35//35 6//6 21//21
f 36//36 21//21 12//12
f 36//36 12//12 5//5
f 36//36 30//30 11//11
f 36//36 5//5 9//9
f 36//36 9//9 30//30
f 37//37 22//22 13//13
f 37//37 31//31 22//22
f 37//37 3//3 31//31
f 38//38 13//13 22//22
f 38//38 26//26 13//13
f 38//38 4//4 26//26
f 39//39 23//23 14//14
f 39//39 14//14 8//8
f 42//42 25//25 9//9
f 43//43 1//1 23//23
f 44//44 26//26 7//7
f 44//44 41//41 16//16
f 44//44 7//7 41//41
f 45//45 27//27 13//13
f 45//45 13//13 26//26
f 45//45 26//26 44//44
f 46//46 28//28 9//9
f 46//46 9//9 17//17
f 46//46 17//17 28//28
f 47//47 29//29 17//17
f 47//47 17//17 5//5
f 47//47 5//5 29//29
f 48//48 31//31 4//4
f 48//48 22//22 31//31
f 48//48 38//38 22//22
f 48//48 4//4 38//38
f 49//49 34//34 9//9
f 49//49 9//9 2//2
f 49//49 2//2 20//20
f 49//49 20//20 34//34
f 50//50 35//35 11//11
f 50//50 11//11 30//30
f 51//51 36//36 11//11
f 51//51 11//11 21//21
f 51//51 21//21 36//36
f 52//52 27//27 3//3
f 52//52 37//37 13//13
f 52//52 13//13 27//27
f 53//53 39//39 8//8
f 53//53 23//23 39//39
f 54//54 7//7 15//15
f 55//55 40//40 24//24
f 56//56 41//41 7//7
f 56//56 55//55 41//41
f 56//56 40//40 55//55
f 56//56 54//54 40//40
f 56//56 7//7 54//54
f 57//57 42//42 9//9
f 57//57 9//9 1//1
f 57//57 1//1 43//43
f 58//58 15//15 25//25
f 58//58 54//54 15//15
f 59//59 25//25 42//42
f 59//59 57//57 43//43
f 59//59 42//42 57//57
f 59//59 58//58 25//25
f 59//59 43//43 58//58
f 60//60 44//44 16//16
f 60//60 16//16 27//27
f 60//60 45//45 44//44
f 60//60 27//27 45//45
f 61//61 50//50 30//30
f 61//61 30//30 6//6
f 61//61 6//6 35//35
f 61//61 35//35 50//50
f 62//62 52//52 3//3
f 62//62 3//3 37//37
f 62//62 37//37 52//52
f 63//63 43//43 23//23
f 63//63 23//23 53//53
f 63//63 58//58 43//43
f 63//63 40//40 54//54
f 63//63 54//54 58//58
f 63//63 53//53 24//24
f 63//63 24//24 40//40
f 64//64 8//8 16//16
f 64//64 16//16 41//41
f 64//64 41//41 55//55
f 64//64 53//53 8//8
f 64//64 55//55 24//24
f 64//64 24//24 53//53

