# https://github.com/mikedh/trimesh
v 0.00837803 0.03722481 0.02443408
v 0.00857580 0.03104766 0.02444334
v 0.00839319 0.04749921 0.01722337
v -0.01749314 0.04876754 0.01727310
v -0.01769771 0.04314986 0.02340424
v -0.00023968 0.03173399 0.01711328
v -0.00253675 0.03986180 0.02442113
v -0.00395269 0.04862847 0.02298275
v 0.00857956 0.03103810 0.01727310
v -0.01746205 0.03901455 0.01729035
v 0.00599055 0.03129220 0.02456232
v -0.00393534 0.04876754 0.01727310
v -0.01753374 0.04864481 0.02309325
v 0.00612921 0.03886022 0.02447407
v 0.00652197 0.04689214 0.02146744
v 0.00743277 0.03091494 0.02450627
v -0.01764934 0.04021684 0.02147689
v -0.01760136 0.04743938 0.02338278
v 0.00849811 0.03209687 0.02453491
v 0.00015342 0.04007763 0.02445249
v 0.00792846 0.04386402 0.02234021
v 0.00027884 0.03184857 0.01947525
v 0.00007910 0.04639985 0.02335140
v 0.00824596 0.04113679 0.02333010
v 0.00750021 0.04675526 0.02043136
v 0.00247696 0.03187611 0.02265155
v 0.00492928 0.04697890 0.02220816
v 0.00623066 0.04318155 0.02322217
v 0.00740771 0.04573759 0.02152136
vn 0.69268746 0.08768755 0.71588754
vn 0.63197532 -0.55675814 0.53909885
vn 0.63339254 0.59433062 -0.49556534
vn -0.56943307 0.58715569 -0.57532093
vn -0.71761621 -0.14406583 0.68137509
vn -0.20869231 -0.73441240 -0.64582192
vn -0.04537248 0.01524160 0.99885386
vn 0.05771960 0.76980718 0.63566135
vn 0.56686049 -0.59187002 -0.57302624
vn -0.66155377 -0.51617768 -0.54397354
vn -0.17557621 -0.61490942 0.76880387
vn 0.03701843 0.73899062 -0.67269792
vn -0.57289675 0.64351169 0.50762390
vn 0.09841989 0.14896637 0.98393219
vn 0.40663121 0.73672343 0.54026812
vn -0.00175605 -0.74980629 0.66165508
vn -0.77622666 -0.50567881 0.37651178
vn -0.69365002 0.12477217 0.70942340
vn 0.53233180 0.00415029 0.84652562
vn 0.00553428 0.09118262 0.99581881
vn 0.72099021 0.33125393 0.60864107
vn -0.30485745 -0.93744430 0.16810745
vn 0.09959231 0.29863914 0.94915543
vn 0.74990773 0.22214539 0.62312906
vn 0.69402032 0.60880044 0.38431475
vn -0.32719473 -0.89500866 0.30315525
vn 0.25254908 0.67190367 0.69625025
vn 0.22981907 0.30603887 0.92386330
vn 0.67551340 0.45771870 0.57807892
f 1//1 2//2 3//3
f 6//6 4//4 3//3
f 9//9 6//6 3//3
f 9//9 3//3 2//2
f 10//10 4//4 6//6
f 11//11 7//7 5//5
f 12//12 8//8 3//3
f 12//12 3//3 4//4
f 13//13 12//12 4//4
f 13//13 8//8 12//12
f 15//15 3//3 8//8
f 16//16 9//9 2//2
f 16//16 6//6 9//9
f 17//17 5//5 4//4
f 17//17 4//4 10//10
f 17//17 11//11 5//5
f 18//18 13//13 4//4
f 18//18 4//4 5//5
f 18//18 5//5 7//7
f 18//18 8//8 13//13
f 19//19 14//14 11//11
f 19//19 1//1 14//14
f 19//19 11//11 16//16
f 19//19 16//16 2//2
f 19//19 2//2 1//1
f 20//20 7//7 11//11
f 20//20 11//11 14//14
f 20//20 18//18 7//7
f 22//22 16//16 11//11
f 22//22 6//6 16//16
f 22//22 17//17 10//10
f 22//22 10//10 6//6
f 23//23 20//20 14//14
f 23//23 8//8 18//18
f 23//23 18//18 20//20
f 24//24 1//1 3//3
f 24//24 3//3 21//21
f 25//25 21//21 3//3
f 25//25 3//3 15//15
f 26//26 22//22 11//11
f 26//26 11//11 17//17
f 26//26 17//17 22//22
f 27//27 21//21 15//15
f 27//27 15//15 8//8
f 27//27 8//8 23//23
f 27//27 24//24 21//21
f 28//28 14//14 1//1
f 28//28 1//1 24//24
f 28//28 24//24 27//27
f 28//28 27//27 23//23
f 28//28 23//23 14//14
f 29//29 25//25 15//15
f 29//29 15//15 21//21
f 29//29 21//21 25//25

