# https://github.com/mikedh/trimesh
v -0.01270039 0.04901838 0.01657761
v -0.01200110 0.03591280 0.01595137
v -0.01213452 0.04344442 -0.01688181
v -0.03853097 0.04299677 -0.01652341
v -0.05333446 0.02031745 0.01400050
v -0.01524221 0.05488465 -0.00999949
v -0.04406403 0.02579062 0.01755659
v -0.04166294 0.02072058 -0.01475343
v -0.01315209 0.05379491 -0.01088648
v -0.03791774 0.04949697 0.01424687
v -0.04346810 0.02054812 0.01694332
v -0.01239945 0.03862675 0.01814686
v -0.01204861 0.03591980 -0.00914799
v -0.05308348 0.02554758 -0.01106682
v -0.04327866 0.02044854 -0.01578783
v -0.01288082 0.05262443 0.01006680
v -0.02491178 0.05089048 -0.01449552
v -0.03324263 0.04631883 0.01760395
v -0.04720957 0.03568214 0.01652485
v -0.05046960 0.02040346 0.01648050
v -0.01203491 0.03366792 0.01231426
v -0.01223662 0.03792485 0.01768551
v -0.04789185 0.04266817 -0.00822552
v -0.03875928 0.03730916 -0.01652518
v -0.01221492 0.03810197 -0.01371359
v -0.04942111 0.02462301 -0.01544846
v -0.05350227 0.02038920 -0.01106011
v -0.03910077 0.02060608 0.01092452
v -0.01306772 0.05354020 -0.00340840
v -0.01283603 0.05173357 0.01309833
v -0.02088649 0.05372734 0.01031284
v -0.01299754 0.04980076 -0.01441477
v -0.03435823 0.04524692 -0.01652135
v -0.01391011 0.05268296 -0.01260817
v -0.03407177 0.05257105 -0.00817611
v -0.03198025 0.04976960 0.01650696
v -0.02627150 0.04625329 0.01753991
v -0.04063189 0.04110997 0.01754066
v -0.04590952 0.02566343 0.01746947
v -0.05128264 0.02747821 0.01551710
v -0.03994628 0.02072988 -0.01124168
v -0.04690333 0.04248400 0.01009463
v -0.03962481 0.04112464 -0.01660232
v -0.01209687 0.03707557 -0.01206000
v -0.01245725 0.04069768 -0.01585354
v -0.04618051 0.04184605 -0.01369603
v -0.05313466 0.02852148 0.00508026
v -0.04950790 0.02043526 -0.01552770
v -0.05238452 0.02039382 -0.01305269
v -0.04166609 0.02062456 0.01549520
v -0.01501415 0.05463860 -0.00649879
v -0.01616205 0.05260043 0.01283610
v -0.01245475 0.04532710 -0.01672605
v -0.02605761 0.05265982 -0.01269344
v -0.01403424 0.05364561 -0.01150286
v -0.01793591 0.05090796 -0.01440336
v -0.02698360 0.05376273 -0.00432410
v -0.03109870 0.05264052 0.00811208
v -0.04190129 0.04849791 -0.00431788
v -0.03043384 0.04973378 0.01652038
v -0.03044516 0.05158142 0.01486815
v -0.04677188 0.02765924 0.01751163
v -0.04407800 0.04266692 0.01561548
v -0.03818833 0.04696759 0.01640104
vn 0.64129388 0.38812136 0.66189423
vn 0.80655203 -0.41774200 0.41828871
vn 0.69505578 -0.02357852 -0.71856908
vn -0.23395257 0.36373430 -0.90164491
vn -0.73680118 -0.58797128 0.33378703
vn 0.14720903 0.95645249 -0.25204787
vn -0.01276569 -0.06914440 0.99752498
vn 0.37697326 -0.87385507 -0.30703172
vn 0.73135422 0.62790807 -0.26618126
vn -0.45758668 0.79985701 0.38838537
vn 0.07484581 -0.73786346 0.67078732
vn 0.58273657 -0.06966145 0.80966992
vn 0.84403787 -0.51942121 -0.13342297
vn -0.92108075 0.18603411 -0.34205491
vn 0.08983208 -0.72063071 -0.68747478
vn 0.72214096 0.68280692 0.11084740
vn -0.05951870 0.55610807 -0.82897608
vn -0.07870606 0.20322324 0.97596397
vn -0.60731578 0.27905843 0.74383731
vn -0.31082226 -0.64423655 0.69881957
vn 0.79864388 -0.58265154 0.15061582
vn 0.77220607 -0.29804867 0.56112813
vn -0.80935922 0.56391127 -0.16413938
vn -0.02208109 -0.03247907 -0.99922847
vn 0.76790059 -0.44572863 -0.46005942
vn -0.48379139 0.10054579 -0.86938854
vn -0.75359039 -0.62623231 -0.19983646
vn 0.26535416 -0.96136120 0.07329262
vn 0.81483861 0.57914192 0.02515324
vn 0.71593668 0.62059994 0.31982869
vn -0.00409765 0.97753096 0.21075207
vn 0.62091251 0.44361456 -0.64627686
vn -0.18535781 0.41789208 -0.88938669
vn 0.27707694 0.65740785 -0.70074481
vn -0.35062754 0.89757084 -0.26725815
vn -0.13359603 0.56228197 0.81608277
vn 0.01408065 0.18827535 0.98201534
vn -0.19669839 0.16513036 0.96645833
vn -0.07327537 -0.08388924 0.99377730
vn -0.76529802 0.20665708 0.60959969
vn 0.31725358 -0.94340436 -0.09663532
vn -0.80555546 0.55791067 0.19953968
vn -0.20259092 0.11076905 -0.97297849
vn 0.83758498 -0.47545176 -0.26906696
vn 0.59593401 -0.38643365 -0.70394012
vn -0.62034465 0.47764975 -0.62211191
vn -0.97206744 0.22611742 0.06289524
vn -0.29435802 -0.63228131 -0.71664056
vn -0.59785936 -0.63741944 -0.48606650
vn 0.27097661 -0.92977987 0.24916074
vn 0.25059736 0.96645663 0.05623650
vn 0.10840603 0.89120000 0.44046645
vn 0.59523432 0.27113333 -0.75642767
vn -0.16566111 0.82920694 -0.53382792
vn 0.15361589 0.77929840 -0.60753284
vn 0.03245941 0.55614183 -0.83045328
vn -0.12880117 0.99166910 -0.00162774
vn -0.23676828 0.96680165 0.09610074
vn -0.58338791 0.80877558 -0.07443525
vn 0.01165208 0.49423604 0.86924966
vn -0.12879505 0.86788180 0.47978434
vn -0.21632541 0.03005880 0.97585849
vn -0.60574480 0.47911813 0.63523150
vn -0.34339102 0.47069992 0.81272640
f 1//1 2//2 3//3
f 12//12 7//7 11//11
f 13//13 3//3 2//2
f 20//20 5//5 11//11
f 21//21 2//2 11//11
f 21//21 13//13 2//2
f 22//22 2//2 1//1
f 22//22 1//1 12//12
f 22//22 12//12 11//11
f 22//22 11//11 2//2
f 24//24 3//3 15//15
f 25//25 8//8 15//15
f 28//28 11//11 5//5
f 28//28 5//5 15//15
f 29//29 9//9 6//6
f 29//29 16//16 3//3
f 29//29 3//3 9//9
f 30//30 1//1 3//3
f 30//30 3//3 16//16
f 34//34 9//9 32//32
f 37//37 18//18 12//12
f 37//37 12//12 1//1
f 37//37 1//1 18//18
f 38//38 12//12 18//18
f 39//39 20//20 11//11
f 39//39 11//11 7//7
f 40//40 5//5 20//20
f 41//41 8//8 13//13
f 41//41 13//13 21//21
f 41//41 21//21 28//28
f 41//41 28//28 15//15
f 41//41 15//15 8//8
f 42//42 40//40 19//19
f 43//43 3//3 24//24
f 43//43 33//33 3//3
f 43//43 4//4 33//33
f 44//44 13//13 8//8
f 44//44 8//8 25//25
f 44//44 25//25 3//3
f 44//44 3//3 13//13
f 45//45 25//25 15//15
f 45//45 15//15 3//3
f 45//45 3//3 25//25
f 46//46 26//26 14//14
f 46//46 14//14 23//23
f 46//46 43//43 26//26
f 46//46 4//4 43//43
f 46//46 33//33 4//4
f 47//47 27//27 5//5
f 47//47 14//14 27//27
f 47//47 5//5 40//40
f 47//47 23//23 14//14
f 47//47 42//42 23//23
f 47//47 40//40 42//42
f 48//48 26//26 43//43
f 48//48 43//43 24//24
f 48//48 24//24 15//15
f 49//49 27//27 14//14
f 49//49 14//14 26//26
f 49//49 26//26 48//48
f 49//49 48//48 15//15
f 49//49 15//15 5//5
f 49//49 5//5 27//27
f 50//50 28//28 21//21
f 50//50 21//21 11//11
f 50//50 11//11 28//28
f 51//51 29//29 6//6
f 51//51 16//16 29//29
f 51//51 31//31 16//16
f 51//51 6//6 31//31
f 52//52 30//30 16//16
f 52//52 16//16 31//31
f 52//52 1//1 30//30
f 53//53 32//32 9//9
f 53//53 9//9 3//3
f 53//53 33//33 17//17
f 53//53 3//3 33//33
f 54//54 34//34 17//17
f 54//54 35//35 6//6
f 54//54 17//17 33//33
f 54//54 46//46 35//35
f 54//54 33//33 46//46
f 55//55 6//6 9//9
f 55//55 9//9 34//34
f 55//55 54//54 6//6
f 55//55 34//34 54//54
f 56//56 34//34 32//32
f 56//56 17//17 34//34
f 56//56 53//53 17//17
f 56//56 32//32 53//53
f 57//57 31//31 6//6
f 57//57 6//6 35//35
f 58//58 35//35 10//10
f 58//58 57//57 35//35
f 58//58 31//31 57//57
f 59//59 10//10 35//35
f 59//59 42//42 10//10
f 59//59 23//23 42//42
f 59//59 46//46 23//23
f 59//59 35//35 46//46
f 60//60 36//36 18//18
f 60//60 18//18 1//1
f 61//61 10//10 36//36
f 61//61 58//58 10//10
f 61//61 31//31 58//58
f 61//61 52//52 31//31
f 61//61 36//36 60//60
f 61//61 60//60 1//1
f 61//61 1//1 52//52
f 62//62 7//7 12//12
f 62//62 12//12 38//38
f 62//62 39//39 7//7
f 62//62 38//38 19//19
f 62//62 20//20 39//39
f 62//62 40//40 20//20
f 62//62 19//19 40//40
f 63//63 19//19 38//38
f 63//63 42//42 19//19
f 63//63 10//10 42//42
f 64//64 38//38 18//18
f 64//64 18//18 36//36
f 64//64 63//63 38//38
f 64//64 36//36 10//10
f 64//64 10//10 63//63

