# https://github.com/mikedh/trimesh
v 0.01330390 0.00988413 0.01831630
v 0.01337748 -0.00812187 0.01422417
v 0.01368007 0.00769928 -0.01505592
v 0.01347958 0.00975649 -0.01525919
v 0.00936676 -0.00858382 -0.00615376
v 0.01346278 0.00791817 0.01764372
v 0.00957137 0.01000892 0.01517102
v 0.01328183 -0.00807726 -0.01441558
v 0.00974855 -0.00863603 0.00902422
v 0.01170502 -0.00836033 0.01305085
v 0.01115210 0.01000647 -0.01101445
v 0.01251677 -0.00842379 -0.01383744
v 0.01258045 -0.00826310 0.01374333
v 0.01261045 0.00995055 0.01792480
v 0.01298539 0.00988477 -0.01478319
v 0.00996030 0.00998144 0.00011378
v 0.01161907 -0.00849279 -0.01308688
v 0.01068435 -0.00852746 -0.01119922
vn 0.38527122 0.47916526 0.78864868
vn 0.46077110 -0.58694707 0.66572002
vn 0.85590603 -0.00218572 -0.51712676
vn 0.31660586 0.52846232 -0.78771080
vn -0.73014166 -0.67649859 -0.09613954
vn 0.95921149 -0.03766649 0.28016879
vn -0.71913489 0.59340869 0.36153994
vn 0.41582306 -0.47899069 -0.77308415
vn -0.66596088 -0.73048135 0.15130466
vn -0.49744468 -0.73906415 0.45423889
vn -0.67257358 0.70820978 -0.21467113
vn -0.21601798 -0.77648605 -0.59195072
vn -0.27369860 -0.78210635 0.55982026
vn -0.41232062 0.63923002 0.64913534
vn -0.48168520 0.73858415 -0.47167026
vn -0.71433003 0.69857287 -0.04157580
vn -0.56357365 -0.68510644 -0.46153431
vn -0.67979790 -0.68456349 -0.26314945
f 1//1 3//3 4//4
f 6//6 1//1 2//2
f 6//6 2//2 3//3
f 6//6 3//3 1//1
f 8//8 3//3 2//2
f 8//8 4//4 3//3
f 9//9 7//7 5//5
f 10//10 7//7 9//9
f 12//12 8//8 2//2
f 12//12 4//4 8//8
f 13//13 2//2 1//1
f 13//13 12//12 2//2
f 13//13 10//10 9//9
f 13//13 9//9 12//12
f 14//14 7//7 10//10
f 14//14 11//11 7//7
f 14//14 13//13 1//1
f 14//14 10//10 13//13
f 15//15 1//1 4//4
f 15//15 14//14 1//1
f 15//15 11//11 14//14
f 16//16 11//11 5//5
f 16//16 5//5 7//7
f 16//16 7//7 11//11
f 17//17 12//12 9//9
f 17//17 15//15 4//4
f 17//17 4//4 12//12
f 18//18 5//5 11//11
f 18//18 11//11 15//15
f 18//18 15//15 17//17
f 18//18 17//17 9//9
f 18//18 9//9 5//5

