# https://github.com/mikedh/trimesh
v 0.03720001 -0.02704413 0.00670755
v 0.07482601 -0.03224893 -0.01386572
v 0.07319053 -0.02704157 -0.01831294
v 0.02262963 -0.03096734 -0.01846774
v 0.02259736 -0.03611253 0.00668845
v 0.07292322 -0.03444682 -0.01563174
v 0.03094523 -0.02703874 -0.01904014
v 0.07530364 -0.02697323 -0.01422946
v 0.03717112 -0.03601367 0.00659449
v 0.02259929 -0.02704413 0.00670755
v 0.07383134 -0.03239521 -0.01721800
v 0.02369378 -0.03535630 -0.01299087
v 0.05693062 -0.03090193 -0.01917825
v 0.07408736 -0.03421740 -0.01387216
v 0.02259929 -0.02704413 -0.00997898
v 0.07466579 -0.02735193 -0.01687929
v 0.02261326 -0.03534136 -0.01201737
v 0.02788333 -0.03415526 -0.01657197
v 0.05910038 -0.03534347 -0.01293509
v 0.06935918 -0.02707623 -0.01928938
v 0.04564983 -0.03101456 -0.01919369
v 0.06310295 -0.03320304 -0.01727869
v 0.05796227 -0.03545200 -0.00471892
v 0.07380878 -0.03418576 -0.01466277
v 0.07451261 -0.02849165 -0.01686324
v 0.07327674 -0.02902984 -0.01823204
v 0.02261072 -0.03350815 -0.01722321
v 0.02908285 -0.03515921 -0.01478858
v 0.06719503 -0.02876559 -0.01932222
v 0.04051378 -0.02797216 -0.01930329
v 0.06845840 -0.03160612 -0.01820480
v 0.04641843 -0.03419740 -0.01641493
v 0.05687218 -0.03220088 -0.01832962
v 0.02261544 -0.03442767 -0.01575921
v 0.02262655 -0.03170888 -0.01820200
v 0.05495898 -0.03516755 -0.01399623
v 0.06932906 -0.02785603 -0.01915091
v 0.04240021 -0.02732888 -0.01922486
vn 0.18872355 0.65008606 0.73605131
vn 0.90554047 -0.18613264 0.38124939
vn 0.37425599 0.64412605 -0.66710875
vn -0.66981827 0.18280399 -0.71967088
vn -0.57398087 -0.59072883 0.56708500
vn 0.27391145 -0.86806888 -0.41403977
vn -0.10731017 0.68334422 -0.72216702
vn 0.76019612 0.57802208 0.29663503
vn 0.19262505 -0.67022808 0.71672164
vn -0.57740892 0.57649955 0.57814116
vn 0.59045808 -0.41286344 -0.69347172
vn -0.09129895 -0.98135975 -0.16910810
vn 0.01464071 -0.32707583 -0.94488468
vn 0.67469185 -0.67297464 0.30314360
vn -0.70204334 0.70824858 -0.07429065
vn 0.80464279 0.40818019 -0.43120635
vn -0.71875929 -0.69212426 -0.06594768
vn -0.00877233 -0.79782086 -0.60283076
vn 0.03008990 -0.99315137 -0.11289356
vn 0.10907063 0.62101115 -0.77617572
vn -0.00519799 -0.33723629 -0.94140568
vn 0.02636420 -0.68388756 -0.72911092
vn 0.35759957 -0.71152797 0.60485576
vn 0.67078189 -0.68055291 -0.29478703
vn 0.94157205 -0.13208156 -0.30983309
vn 0.46474090 -0.12587214 -0.87645428
vn -0.66514602 -0.50743206 -0.54780789
vn -0.00786003 -0.95157340 -0.30732114
vn 0.06008895 -0.16659424 -0.98419291
vn -0.01934233 0.03305179 -0.99926646
vn 0.07884714 -0.47242533 -0.87783679
vn 0.00507527 -0.80390751 -0.59473267
vn 0.01450894 -0.62693989 -0.77893251
vn -0.69294224 -0.65521356 -0.30087578
vn -0.69092558 -0.29347939 -0.66067518
vn 0.00797292 -0.96818875 -0.25009396
vn 0.16341280 -0.18826231 -0.96842840
vn -0.00514269 0.25153414 -0.96783476
f 8//8 1//1 2//2
f 8//8 3//3 7//7
f 9//9 1//1 5//5
f 10//10 5//5 1//1
f 10//10 1//1 8//8
f 14//14 11//11 2//2
f 15//15 5//5 10//10
f 15//15 7//7 4//4
f 15//15 10//10 8//8
f 15//15 8//8 7//7
f 16//16 8//8 2//2
f 16//16 3//3 8//8
f 17//17 12//12 5//5
f 19//19 9//9 5//5
f 19//19 5//5 12//12
f 20//20 7//7 3//3
f 22//22 11//11 6//6
f 23//23 6//6 14//14
f 23//23 19//19 6//6
f 23//23 9//9 19//19
f 23//23 14//14 2//2
f 23//23 2//2 1//1
f 23//23 1//1 9//9
f 24//24 14//14 6//6
f 24//24 6//6 11//11
f 24//24 11//11 14//14
f 25//25 16//16 2//2
f 25//25 2//2 11//11
f 25//25 11//11 16//16
f 26//26 16//16 11//11
f 26//26 3//3 16//16
f 26//26 20//20 3//3
f 27//27 15//15 4//4
f 27//27 17//17 5//5
f 27//27 5//5 15//15
f 28//28 19//19 12//12
f 29//29 13//13 21//21
f 29//29 26//26 11//11
f 30//30 21//21 4//4
f 30//30 4//4 7//7
f 30//30 29//29 21//21
f 30//30 20//20 29//29
f 31//31 11//11 22//22
f 31//31 29//29 11//11
f 31//31 13//13 29//29
f 32//32 22//22 6//6
f 32//32 28//28 18//18
f 32//32 6//6 28//28
f 33//33 21//21 13//13
f 33//33 31//31 22//22
f 33//33 13//13 31//31
f 33//33 27//27 21//21
f 33//33 18//18 27//27
f 33//33 32//32 18//18
f 33//33 22//22 32//32
f 34//34 12//12 17//17
f 34//34 17//17 27//27
f 34//34 28//28 12//12
f 34//34 27//27 18//18
f 34//34 18//18 28//28
f 35//35 27//27 4//4
f 35//35 4//4 21//21
f 35//35 21//21 27//27
f 36//36 28//28 6//6
f 36//36 6//6 19//19
f 36//36 19//19 28//28
f 37//37 29//29 20//20
f 37//37 20//20 26//26
f 37//37 26//26 29//29
f 38//38 30//30 7//7
f 38//38 7//7 20//20
f 38//38 20//20 30//30

