# https://github.com/mikedh/trimesh
v 0.01590100 0.03025247 0.01691380
v 0.03494188 -0.01536954 -0.00815809
v 0.02535013 0.02579995 -0.00191313
v 0.01575542 0.03224423 -0.01676359
v 0.01619987 -0.01929275 -0.01664685
v 0.03485787 -0.01265200 -0.01654830
v 0.01558532 0.03817351 0.00945403
v 0.02736862 0.01362900 0.01330753
v 0.02421876 0.02674271 -0.01164888
v 0.01940971 0.00998897 -0.01872026
v 0.03494447 -0.01540423 -0.01734805
v 0.01543863 0.03611943 0.01409966
v 0.02748005 0.01880973 0.00744871
v 0.01646852 -0.00818682 0.01385858
v 0.02372048 0.02280642 -0.01532832
v 0.02639307 0.02288619 -0.00614051
v 0.01919494 0.03583429 -0.00824393
v 0.01607578 0.02721037 -0.01758417
v 0.02451279 -0.01954117 -0.00815809
v 0.02439924 0.02564971 0.01297933
v 0.01566228 0.03823533 -0.01103395
v 0.01566225 0.03403809 -0.01554473
v 0.03476964 -0.00975475 -0.00827630
v 0.03018799 -0.00872078 0.01223782
v 0.01616953 -0.01954117 -0.00815809
v 0.01599981 0.01679810 0.01788498
v 0.02551806 0.02028078 -0.01368625
v 0.02432081 0.02781921 -0.00994676
v 0.02640453 0.02274412 0.00327223
v 0.01875804 0.01453005 -0.01858538
v 0.02106322 0.02208810 -0.01729841
v 0.02454584 -0.01913550 -0.01677108
v 0.01853129 0.03091115 0.01568756
v 0.02739002 0.01769923 0.01032722
v 0.01917951 0.03370615 0.01239123
v 0.01725969 0.03773540 -0.00195284
v 0.02020737 0.03272586 -0.01268533
v 0.03467383 -0.00920533 -0.00979953
v 0.02855295 0.01073867 0.01037097
v 0.02813716 -0.00854218 0.01367980
v 0.01568643 0.03328531 0.01596846
v 0.02272156 0.01766642 0.01661766
v 0.03468044 -0.01088823 -0.01556773
v 0.02529386 0.02583286 -0.00704891
v 0.02226266 0.03176932 0.00113282
v 0.02533149 0.02486116 0.01045003
v 0.02250904 0.02260478 -0.01635826
v 0.01991978 0.02388845 -0.01733386
v 0.02062732 0.01161034 -0.01841976
v 0.02640365 0.01882613 0.01317558
v 0.01570205 0.03732669 0.01237316
v 0.02128911 0.03068571 0.01322988
v 0.01727840 0.03773084 -0.00786714
v 0.01725955 0.03662076 -0.01178617
v 0.02212414 0.02884791 -0.01363098
v 0.01829593 0.03177248 -0.01528232
v 0.02220775 0.03183615 -0.00911515
v 0.02741803 0.01569786 0.01212950
v 0.02529688 -0.00803057 0.01472331
v 0.01659639 0.03299341 0.01562935
v 0.01687821 0.03018739 0.01666891
v 0.01846037 0.01425638 0.01792442
v 0.02251104 0.02603052 0.01471015
v 0.02470999 0.01477562 0.01566605
vn -0.47957110 0.15975701 0.86283791
vn 0.81471672 -0.55393276 0.17145016
vn 0.91729024 0.39810414 0.00957608
vn -0.44223380 0.37044817 -0.81682153
vn -0.58092525 -0.59108454 -0.55959354
vn 0.90728647 0.16402728 -0.38720320
vn -0.32358357 0.93608392 0.13798758
vn 0.84391531 0.11151652 0.52475806
vn 0.86413387 0.35890564 -0.35278804
vn -0.10010475 0.00443965 -0.99496700
vn 0.66951742 -0.43432502 -0.60258460
vn -0.43653166 0.63830749 0.63403758
vn 0.96489290 0.25316577 0.06991990
vn -0.63047988 -0.47243579 0.61587299
vn 0.71836807 0.30334394 -0.62604295
vn 0.95396465 0.29274018 -0.06522756
vn 0.74161603 0.66097845 -0.11451272
vn -0.49478840 0.09418198 -0.86389478
vn 0.16818295 -0.96628373 0.19496218
vn 0.81796753 0.37140889 0.43930006
vn -0.40214382 0.85162067 -0.33618831
vn -0.47158735 0.56218386 -0.67937816
vn 0.98973423 0.11050146 0.09063979
vn 0.72150351 -0.42027890 0.55027114
vn -0.65280863 -0.73934621 0.16494870
vn -0.67080699 -0.00359616 0.74162325
vn 0.86740351 0.28620980 -0.40705662
vn 0.88966987 0.41831602 -0.18302794
vn 0.94786441 0.31799969 0.02071862
vn -0.10358308 0.03888734 -0.99386031
vn 0.35205080 0.17280427 -0.91989071
vn 0.11952181 -0.75395954 -0.64595630
vn 0.51416434 0.37966860 0.76908178
vn 0.96027892 0.22226051 0.16871472
vn 0.71512706 0.62498615 0.31302652
vn 0.54311097 0.83914868 0.02932534
vn 0.69521383 0.55122191 -0.46133733
vn 0.98114343 0.19117068 -0.02848402
vn 0.96818656 0.13292754 0.21200250
vn 0.34087509 -0.52533261 0.77963442
vn -0.46218429 0.38988146 0.79647858
vn 0.43877225 0.11007503 0.89183093
vn 0.95818598 0.22024865 -0.18267503
vn 0.92741057 0.37160614 -0.04264405
vn 0.82626304 0.56087793 0.05201281
vn 0.91077650 0.38782387 0.14169973
vn 0.53726130 0.26371441 -0.80112734
vn 0.31558172 0.20032564 -0.92751163
vn 0.20932538 0.07381054 -0.97505635
vn 0.83386038 0.22447279 0.50427060
vn -0.12559830 0.90844680 0.39868470
vn 0.74831512 0.51811646 0.41422194
vn 0.53386699 0.84316787 -0.06367085
vn 0.58456502 0.67754823 -0.44633187
vn 0.72125345 0.42249575 -0.54889962
vn 0.55594742 0.44707625 -0.70074623
vn 0.82593103 0.54286280 -0.15211156
vn 0.94944656 0.17551911 0.26027728
vn 0.10501406 -0.51251711 0.85223134
vn 0.48140876 0.48495836 0.73011026
vn 0.32475277 0.22434839 0.91880544
vn 0.07156336 -0.05846472 0.99572113
vn 0.59348940 0.27455517 0.75656447
vn 0.56610624 0.06873477 0.82146166
f 11//11 5//5 10//10
f 15//15 6//6 11//11
f 18//18 5//5 4//4
f 19//19 11//11 2//2
f 21//21 12//12 7//7
f 22//22 4//4 5//5
f 22//22 5//5 12//12
f 22//22 12//12 21//21
f 23//23 11//11 6//6
f 23//23 2//2 11//11
f 24//24 2//2 23//23
f 24//24 19//19 2//2
f 25//25 14//14 12//12
f 25//25 12//12 5//5
f 25//25 5//5 19//19
f 26//26 12//12 14//14
f 27//27 15//15 9//9
f 27//27 6//6 15//15
f 29//29 16//16 3//3
f 29//29 13//13 16//16
f 30//30 10//10 5//5
f 30//30 5//5 18//18
f 32//32 19//19 5//5
f 32//32 5//5 11//11
f 32//32 11//11 19//19
f 34//34 23//23 13//13
f 36//36 21//21 7//7
f 38//38 16//16 13//13
f 38//38 13//13 23//23
f 38//38 23//23 6//6
f 39//39 24//24 23//23
f 39//39 8//8 24//24
f 39//39 23//23 34//34
f 40//40 19//19 24//24
f 41//41 26//26 1//1
f 41//41 12//12 26//26
f 43//43 27//27 9//9
f 43//43 6//6 27//27
f 43//43 9//9 28//28
f 43//43 28//28 16//16
f 43//43 38//38 6//6
f 43//43 16//16 38//38
f 44//44 28//28 3//3
f 44//44 3//3 16//16
f 44//44 16//16 28//28
f 45//45 3//3 28//28
f 45//45 17//17 36//36
f 45//45 36//36 7//7
f 45//45 7//7 35//35
f 46//46 13//13 29//29
f 46//46 34//34 13//13
f 46//46 29//29 3//3
f 46//46 3//3 45//45
f 47//47 15//15 11//11
f 47//47 11//11 31//31
f 48//48 31//31 30//30
f 48//48 30//30 18//18
f 48//48 18//18 4//4
f 48//48 47//47 31//31
f 48//48 4//4 47//47
f 49//49 31//31 11//11
f 49//49 30//30 31//31
f 49//49 11//11 10//10
f 49//49 10//10 30//30
f 50//50 46//46 20//20
f 50//50 34//34 46//46
f 51//51 35//35 7//7
f 51//51 7//7 12//12
f 51//51 12//12 35//35
f 52//52 20//20 46//46
f 52//52 46//46 45//45
f 52//52 45//45 35//35
f 52//52 35//35 12//12
f 52//52 12//12 33//33
f 53//53 36//36 17//17
f 53//53 21//21 36//36
f 54//54 17//17 37//37
f 54//54 53//53 17//17
f 54//54 21//21 53//53
f 54//54 22//22 21//21
f 55//55 9//9 15//15
f 55//55 37//37 28//28
f 55//55 28//28 9//9
f 56//56 4//4 22//22
f 56//56 54//54 37//37
f 56//56 22//22 54//54
f 56//56 37//37 55//55
f 56//56 47//47 4//4
f 56//56 55//55 15//15
f 56//56 15//15 47//47
f 57//57 37//37 17//17
f 57//57 28//28 37//37
f 57//57 45//45 28//28
f 57//57 17//17 45//45
f 58//58 39//39 34//34
f 58//58 8//8 39//39
f 58//58 50//50 8//8
f 58//58 34//34 50//50
f 59//59 25//25 19//19
f 59//59 19//19 40//40
f 59//59 14//14 25//25
f 59//59 40//40 42//42
f 60//60 41//41 33//33
f 60//60 33//33 12//12
f 60//60 12//12 41//41
f 61//61 41//41 1//1
f 61//61 33//33 41//41
f 61//61 42//42 33//33
f 61//61 1//1 42//42
f 62//62 42//42 1//1
f 62//62 1//1 26//26
f 62//62 59//59 42//42
f 62//62 26//26 14//14
f 62//62 14//14 59//59
f 63//63 33//33 42//42
f 63//63 52//52 33//33
f 63//63 20//20 52//52
f 63//63 50//50 20//20
f 64//64 42//42 40//40
f 64//64 40//40 24//24
f 64//64 24//24 8//8
f 64//64 8//8 50//50
f 64//64 63//63 42//42
f 64//64 50//50 63//63

