<?xml version="1.0" encoding="utf-8" standalone="no"?>
<!DOCTYPE svg PUBLIC "-//W3C//DTD SVG 1.1//EN"
  "http://www.w3.org/Graphics/SVG/1.1/DTD/svg11.dtd">
<!-- Created with matplotlib (https://matplotlib.org/) -->
<svg height="345.6pt" version="1.1" viewBox="0 0 460.8 345.6" width="460.8pt" xmlns="http://www.w3.org/2000/svg" xmlns:xlink="http://www.w3.org/1999/xlink">
 <defs>
  <style type="text/css">
*{stroke-linecap:butt;stroke-linejoin:round;}
  </style>
 </defs>
 <g id="figure_1">
  <g id="patch_1">
   <path d="M 0 345.6 
L 460.8 345.6 
L 460.8 0 
L 0 0 
z
" style="fill:#ffffff;"/>
  </g>
  <g id="axes_1">
   <g id="patch_2">
    <path d="M 57.6 307.584 
L 414.72 307.584 
L 414.72 41.472 
L 57.6 41.472 
z
" style="fill:#ffffff;"/>
   </g>
   <g id="matplotlib.axis_1">
    <g id="xtick_1">
     <g id="line2d_1">
      <path clip-path="url(#p2ec74c7157)" d="M 85.612386 307.584 
L 85.612386 41.472 
" style="fill:none;stroke:#b0b0b0;stroke-linecap:square;stroke-width:0.8;"/>
     </g>
     <g id="line2d_2">
      <defs>
       <path d="M 0 0 
L 0 3.5 
" id="m20a8e508c1" style="stroke:#000000;stroke-width:0.8;"/>
      </defs>
      <g>
       <use style="stroke:#000000;stroke-width:0.8;" x="85.612386" xlink:href="#m20a8e508c1" y="307.584"/>
      </g>
     </g>
     <g id="text_1">
      <!-- 85.75 -->
      <defs>
       <path d="M 31.78125 34.625 
Q 24.75 34.625 20.71875 30.859375 
Q 16.703125 27.09375 16.703125 20.515625 
Q 16.703125 13.921875 20.71875 10.15625 
Q 24.75 6.390625 31.78125 6.390625 
Q 38.8125 6.390625 42.859375 10.171875 
Q 46.921875 13.96875 46.921875 20.515625 
Q 46.921875 27.09375 42.890625 30.859375 
Q 38.875 34.625 31.78125 34.625 
z
M 21.921875 38.8125 
Q 15.578125 40.375 12.03125 44.71875 
Q 8.5 49.078125 8.5 55.328125 
Q 8.5 64.0625 14.71875 69.140625 
Q 20.953125 74.21875 31.78125 74.21875 
Q 42.671875 74.21875 48.875 69.140625 
Q 55.078125 64.0625 55.078125 55.328125 
Q 55.078125 49.078125 51.53125 44.71875 
Q 48 40.375 41.703125 38.8125 
Q 48.828125 37.15625 52.796875 32.3125 
Q 56.78125 27.484375 56.78125 20.515625 
Q 56.78125 9.90625 50.3125 4.234375 
Q 43.84375 -1.421875 31.78125 -1.421875 
Q 19.734375 -1.421875 13.25 4.234375 
Q 6.78125 9.90625 6.78125 20.515625 
Q 6.78125 27.484375 10.78125 32.3125 
Q 14.796875 37.15625 21.921875 38.8125 
z
M 18.3125 54.390625 
Q 18.3125 48.734375 21.84375 45.5625 
Q 25.390625 42.390625 31.78125 42.390625 
Q 38.140625 42.390625 41.71875 45.5625 
Q 45.3125 48.734375 45.3125 54.390625 
Q 45.3125 60.0625 41.71875 63.234375 
Q 38.140625 66.40625 31.78125 66.40625 
Q 25.390625 66.40625 21.84375 63.234375 
Q 18.3125 60.0625 18.3125 54.390625 
z
" id="DejaVuSans-56"/>
       <path d="M 10.796875 72.90625 
L 49.515625 72.90625 
L 49.515625 64.59375 
L 19.828125 64.59375 
L 19.828125 46.734375 
Q 21.96875 47.46875 24.109375 47.828125 
Q 26.265625 48.1875 28.421875 48.1875 
Q 40.625 48.1875 47.75 41.5 
Q 54.890625 34.8125 54.890625 23.390625 
Q 54.890625 11.625 47.5625 5.09375 
Q 40.234375 -1.421875 26.90625 -1.421875 
Q 22.3125 -1.421875 17.546875 -0.640625 
Q 12.796875 0.140625 7.71875 1.703125 
L 7.71875 11.625 
Q 12.109375 9.234375 16.796875 8.0625 
Q 21.484375 6.890625 26.703125 6.890625 
Q 35.15625 6.890625 40.078125 11.328125 
Q 45.015625 15.765625 45.015625 23.390625 
Q 45.015625 31 40.078125 35.4375 
Q 35.15625 39.890625 26.703125 39.890625 
Q 22.75 39.890625 18.8125 39.015625 
Q 14.890625 38.140625 10.796875 36.28125 
z
" id="DejaVuSans-53"/>
       <path d="M 10.6875 12.40625 
L 21 12.40625 
L 21 0 
L 10.6875 0 
z
" id="DejaVuSans-46"/>
       <path d="M 8.203125 72.90625 
L 55.078125 72.90625 
L 55.078125 68.703125 
L 28.609375 0 
L 18.3125 0 
L 43.21875 64.59375 
L 8.203125 64.59375 
z
" id="DejaVuSans-55"/>
      </defs>
      <g transform="translate(71.298324 322.182437)scale(0.1 -0.1)">
       <use xlink:href="#DejaVuSans-56"/>
       <use x="63.623047" xlink:href="#DejaVuSans-53"/>
       <use x="127.246094" xlink:href="#DejaVuSans-46"/>
       <use x="159.033203" xlink:href="#DejaVuSans-55"/>
       <use x="222.65625" xlink:href="#DejaVuSans-53"/>
      </g>
     </g>
    </g>
    <g id="xtick_2">
     <g id="line2d_3">
      <path clip-path="url(#p2ec74c7157)" d="M 130.232307 307.584 
L 130.232307 41.472 
" style="fill:none;stroke:#b0b0b0;stroke-linecap:square;stroke-width:0.8;"/>
     </g>
     <g id="line2d_4">
      <g>
       <use style="stroke:#000000;stroke-width:0.8;" x="130.232307" xlink:href="#m20a8e508c1" y="307.584"/>
      </g>
     </g>
     <g id="text_2">
      <!-- 86.00 -->
      <defs>
       <path d="M 33.015625 40.375 
Q 26.375 40.375 22.484375 35.828125 
Q 18.609375 31.296875 18.609375 23.390625 
Q 18.609375 15.53125 22.484375 10.953125 
Q 26.375 6.390625 33.015625 6.390625 
Q 39.65625 6.390625 43.53125 10.953125 
Q 47.40625 15.53125 47.40625 23.390625 
Q 47.40625 31.296875 43.53125 35.828125 
Q 39.65625 40.375 33.015625 40.375 
z
M 52.59375 71.296875 
L 52.59375 62.3125 
Q 48.875 64.0625 45.09375 64.984375 
Q 41.3125 65.921875 37.59375 65.921875 
Q 27.828125 65.921875 22.671875 59.328125 
Q 17.53125 52.734375 16.796875 39.40625 
Q 19.671875 43.65625 24.015625 45.921875 
Q 28.375 48.1875 33.59375 48.1875 
Q 44.578125 48.1875 50.953125 41.515625 
Q 57.328125 34.859375 57.328125 23.390625 
Q 57.328125 12.15625 50.6875 5.359375 
Q 44.046875 -1.421875 33.015625 -1.421875 
Q 20.359375 -1.421875 13.671875 8.265625 
Q 6.984375 17.96875 6.984375 36.375 
Q 6.984375 53.65625 15.1875 63.9375 
Q 23.390625 74.21875 37.203125 74.21875 
Q 40.921875 74.21875 44.703125 73.484375 
Q 48.484375 72.75 52.59375 71.296875 
z
" id="DejaVuSans-54"/>
       <path d="M 31.78125 66.40625 
Q 24.171875 66.40625 20.328125 58.90625 
Q 16.5 51.421875 16.5 36.375 
Q 16.5 21.390625 20.328125 13.890625 
Q 24.171875 6.390625 31.78125 6.390625 
Q 39.453125 6.390625 43.28125 13.890625 
Q 47.125 21.390625 47.125 36.375 
Q 47.125 51.421875 43.28125 58.90625 
Q 39.453125 66.40625 31.78125 66.40625 
z
M 31.78125 74.21875 
Q 44.046875 74.21875 50.515625 64.515625 
Q 56.984375 54.828125 56.984375 36.375 
Q 56.984375 17.96875 50.515625 8.265625 
Q 44.046875 -1.421875 31.78125 -1.421875 
Q 19.53125 -1.421875 13.0625 8.265625 
Q 6.59375 17.96875 6.59375 36.375 
Q 6.59375 54.828125 13.0625 64.515625 
Q 19.53125 74.21875 31.78125 74.21875 
z
" id="DejaVuSans-48"/>
      </defs>
      <g transform="translate(115.918245 322.182437)scale(0.1 -0.1)">
       <use xlink:href="#DejaVuSans-56"/>
       <use x="63.623047" xlink:href="#DejaVuSans-54"/>
       <use x="127.246094" xlink:href="#DejaVuSans-46"/>
       <use x="159.033203" xlink:href="#DejaVuSans-48"/>
       <use x="222.65625" xlink:href="#DejaVuSans-48"/>
      </g>
     </g>
    </g>
    <g id="xtick_3">
     <g id="line2d_5">
      <path clip-path="url(#p2ec74c7157)" d="M 174.852228 307.584 
L 174.852228 41.472 
" style="fill:none;stroke:#b0b0b0;stroke-linecap:square;stroke-width:0.8;"/>
     </g>
     <g id="line2d_6">
      <g>
       <use style="stroke:#000000;stroke-width:0.8;" x="174.852228" xlink:href="#m20a8e508c1" y="307.584"/>
      </g>
     </g>
     <g id="text_3">
      <!-- 86.25 -->
      <defs>
       <path d="M 19.1875 8.296875 
L 53.609375 8.296875 
L 53.609375 0 
L 7.328125 0 
L 7.328125 8.296875 
Q 12.9375 14.109375 22.625 23.890625 
Q 32.328125 33.6875 34.8125 36.53125 
Q 39.546875 41.84375 41.421875 45.53125 
Q 43.3125 49.21875 43.3125 52.78125 
Q 43.3125 58.59375 39.234375 62.25 
Q 35.15625 65.921875 28.609375 65.921875 
Q 23.96875 65.921875 18.8125 64.3125 
Q 13.671875 62.703125 7.8125 59.421875 
L 7.8125 69.390625 
Q 13.765625 71.78125 18.9375 73 
Q 24.125 74.21875 28.421875 74.21875 
Q 39.75 74.21875 46.484375 68.546875 
Q 53.21875 62.890625 53.21875 53.421875 
Q 53.21875 48.921875 51.53125 44.890625 
Q 49.859375 40.875 45.40625 35.40625 
Q 44.1875 33.984375 37.640625 27.21875 
Q 31.109375 20.453125 19.1875 8.296875 
z
" id="DejaVuSans-50"/>
      </defs>
      <g transform="translate(160.538166 322.182437)scale(0.1 -0.1)">
       <use xlink:href="#DejaVuSans-56"/>
       <use x="63.623047" xlink:href="#DejaVuSans-54"/>
       <use x="127.246094" xlink:href="#DejaVuSans-46"/>
       <use x="159.033203" xlink:href="#DejaVuSans-50"/>
       <use x="222.65625" xlink:href="#DejaVuSans-53"/>
      </g>
     </g>
    </g>
    <g id="xtick_4">
     <g id="line2d_7">
      <path clip-path="url(#p2ec74c7157)" d="M 219.47215 307.584 
L 219.47215 41.472 
" style="fill:none;stroke:#b0b0b0;stroke-linecap:square;stroke-width:0.8;"/>
     </g>
     <g id="line2d_8">
      <g>
       <use style="stroke:#000000;stroke-width:0.8;" x="219.47215" xlink:href="#m20a8e508c1" y="307.584"/>
      </g>
     </g>
     <g id="text_4">
      <!-- 86.50 -->
      <g transform="translate(205.158087 322.182437)scale(0.1 -0.1)">
       <use xlink:href="#DejaVuSans-56"/>
       <use x="63.623047" xlink:href="#DejaVuSans-54"/>
       <use x="127.246094" xlink:href="#DejaVuSans-46"/>
       <use x="159.033203" xlink:href="#DejaVuSans-53"/>
       <use x="222.65625" xlink:href="#DejaVuSans-48"/>
      </g>
     </g>
    </g>
    <g id="xtick_5">
     <g id="line2d_9">
      <path clip-path="url(#p2ec74c7157)" d="M 264.092071 307.584 
L 264.092071 41.472 
" style="fill:none;stroke:#b0b0b0;stroke-linecap:square;stroke-width:0.8;"/>
     </g>
     <g id="line2d_10">
      <g>
       <use style="stroke:#000000;stroke-width:0.8;" x="264.092071" xlink:href="#m20a8e508c1" y="307.584"/>
      </g>
     </g>
     <g id="text_5">
      <!-- 86.75 -->
      <g transform="translate(249.778008 322.182437)scale(0.1 -0.1)">
       <use xlink:href="#DejaVuSans-56"/>
       <use x="63.623047" xlink:href="#DejaVuSans-54"/>
       <use x="127.246094" xlink:href="#DejaVuSans-46"/>
       <use x="159.033203" xlink:href="#DejaVuSans-55"/>
       <use x="222.65625" xlink:href="#DejaVuSans-53"/>
      </g>
     </g>
    </g>
    <g id="xtick_6">
     <g id="line2d_11">
      <path clip-path="url(#p2ec74c7157)" d="M 308.711992 307.584 
L 308.711992 41.472 
" style="fill:none;stroke:#b0b0b0;stroke-linecap:square;stroke-width:0.8;"/>
     </g>
     <g id="line2d_12">
      <g>
       <use style="stroke:#000000;stroke-width:0.8;" x="308.711992" xlink:href="#m20a8e508c1" y="307.584"/>
      </g>
     </g>
     <g id="text_6">
      <!-- 87.00 -->
      <g transform="translate(294.397929 322.182437)scale(0.1 -0.1)">
       <use xlink:href="#DejaVuSans-56"/>
       <use x="63.623047" xlink:href="#DejaVuSans-55"/>
       <use x="127.246094" xlink:href="#DejaVuSans-46"/>
       <use x="159.033203" xlink:href="#DejaVuSans-48"/>
       <use x="222.65625" xlink:href="#DejaVuSans-48"/>
      </g>
     </g>
    </g>
    <g id="xtick_7">
     <g id="line2d_13">
      <path clip-path="url(#p2ec74c7157)" d="M 353.331913 307.584 
L 353.331913 41.472 
" style="fill:none;stroke:#b0b0b0;stroke-linecap:square;stroke-width:0.8;"/>
     </g>
     <g id="line2d_14">
      <g>
       <use style="stroke:#000000;stroke-width:0.8;" x="353.331913" xlink:href="#m20a8e508c1" y="307.584"/>
      </g>
     </g>
     <g id="text_7">
      <!-- 87.25 -->
      <g transform="translate(339.01785 322.182437)scale(0.1 -0.1)">
       <use xlink:href="#DejaVuSans-56"/>
       <use x="63.623047" xlink:href="#DejaVuSans-55"/>
       <use x="127.246094" xlink:href="#DejaVuSans-46"/>
       <use x="159.033203" xlink:href="#DejaVuSans-50"/>
       <use x="222.65625" xlink:href="#DejaVuSans-53"/>
      </g>
     </g>
    </g>
    <g id="xtick_8">
     <g id="line2d_15">
      <path clip-path="url(#p2ec74c7157)" d="M 397.951834 307.584 
L 397.951834 41.472 
" style="fill:none;stroke:#b0b0b0;stroke-linecap:square;stroke-width:0.8;"/>
     </g>
     <g id="line2d_16">
      <g>
       <use style="stroke:#000000;stroke-width:0.8;" x="397.951834" xlink:href="#m20a8e508c1" y="307.584"/>
      </g>
     </g>
     <g id="text_8">
      <!-- 87.50 -->
      <g transform="translate(383.637771 322.182437)scale(0.1 -0.1)">
       <use xlink:href="#DejaVuSans-56"/>
       <use x="63.623047" xlink:href="#DejaVuSans-55"/>
       <use x="127.246094" xlink:href="#DejaVuSans-46"/>
       <use x="159.033203" xlink:href="#DejaVuSans-53"/>
       <use x="222.65625" xlink:href="#DejaVuSans-48"/>
      </g>
     </g>
    </g>
    <g id="text_9">
     <!-- Time -->
     <defs>
      <path d="M -0.296875 72.90625 
L 61.375 72.90625 
L 61.375 64.59375 
L 35.5 64.59375 
L 35.5 0 
L 25.59375 0 
L 25.59375 64.59375 
L -0.296875 64.59375 
z
" id="DejaVuSans-84"/>
      <path d="M 9.421875 54.6875 
L 18.40625 54.6875 
L 18.40625 0 
L 9.421875 0 
z
M 9.421875 75.984375 
L 18.40625 75.984375 
L 18.40625 64.59375 
L 9.421875 64.59375 
z
" id="DejaVuSans-105"/>
      <path d="M 52 44.1875 
Q 55.375 50.25 60.0625 53.125 
Q 64.75 56 71.09375 56 
Q 79.640625 56 84.28125 50.015625 
Q 88.921875 44.046875 88.921875 33.015625 
L 88.921875 0 
L 79.890625 0 
L 79.890625 32.71875 
Q 79.890625 40.578125 77.09375 44.375 
Q 74.3125 48.1875 68.609375 48.1875 
Q 61.625 48.1875 57.5625 43.546875 
Q 53.515625 38.921875 53.515625 30.90625 
L 53.515625 0 
L 44.484375 0 
L 44.484375 32.71875 
Q 44.484375 40.625 41.703125 44.40625 
Q 38.921875 48.1875 33.109375 48.1875 
Q 26.21875 48.1875 22.15625 43.53125 
Q 18.109375 38.875 18.109375 30.90625 
L 18.109375 0 
L 9.078125 0 
L 9.078125 54.6875 
L 18.109375 54.6875 
L 18.109375 46.1875 
Q 21.1875 51.21875 25.484375 53.609375 
Q 29.78125 56 35.6875 56 
Q 41.65625 56 45.828125 52.96875 
Q 50 49.953125 52 44.1875 
z
" id="DejaVuSans-109"/>
      <path d="M 56.203125 29.59375 
L 56.203125 25.203125 
L 14.890625 25.203125 
Q 15.484375 15.921875 20.484375 11.0625 
Q 25.484375 6.203125 34.421875 6.203125 
Q 39.59375 6.203125 44.453125 7.46875 
Q 49.3125 8.734375 54.109375 11.28125 
L 54.109375 2.78125 
Q 49.265625 0.734375 44.1875 -0.34375 
Q 39.109375 -1.421875 33.890625 -1.421875 
Q 20.796875 -1.421875 13.15625 6.1875 
Q 5.515625 13.8125 5.515625 26.8125 
Q 5.515625 40.234375 12.765625 48.109375 
Q 20.015625 56 32.328125 56 
Q 43.359375 56 49.78125 48.890625 
Q 56.203125 41.796875 56.203125 29.59375 
z
M 47.21875 32.234375 
Q 47.125 39.59375 43.09375 43.984375 
Q 39.0625 48.390625 32.421875 48.390625 
Q 24.90625 48.390625 20.390625 44.140625 
Q 15.875 39.890625 15.1875 32.171875 
z
" id="DejaVuSans-101"/>
     </defs>
     <g transform="translate(223.7725 335.860562)scale(0.1 -0.1)">
      <use xlink:href="#DejaVuSans-84"/>
      <use x="61.037109" xlink:href="#DejaVuSans-105"/>
      <use x="88.820312" xlink:href="#DejaVuSans-109"/>
      <use x="186.232422" xlink:href="#DejaVuSans-101"/>
     </g>
    </g>
   </g>
   <g id="matplotlib.axis_2">
    <g id="ytick_1">
     <g id="line2d_17">
      <path clip-path="url(#p2ec74c7157)" d="M 57.6 297.274345 
L 414.72 297.274345 
" style="fill:none;stroke:#b0b0b0;stroke-linecap:square;stroke-width:0.8;"/>
     </g>
     <g id="line2d_18">
      <defs>
       <path d="M 0 0 
L -3.5 0 
" id="mf49e22e21c" style="stroke:#000000;stroke-width:0.8;"/>
      </defs>
      <g>
       <use style="stroke:#000000;stroke-width:0.8;" x="57.6" xlink:href="#mf49e22e21c" y="297.274345"/>
      </g>
     </g>
     <g id="text_10">
      <!-- −1.5 -->
      <defs>
       <path d="M 10.59375 35.5 
L 73.1875 35.5 
L 73.1875 27.203125 
L 10.59375 27.203125 
z
" id="DejaVuSans-8722"/>
       <path d="M 12.40625 8.296875 
L 28.515625 8.296875 
L 28.515625 63.921875 
L 10.984375 60.40625 
L 10.984375 69.390625 
L 28.421875 72.90625 
L 38.28125 72.90625 
L 38.28125 8.296875 
L 54.390625 8.296875 
L 54.390625 0 
L 12.40625 0 
z
" id="DejaVuSans-49"/>
      </defs>
      <g transform="translate(26.317187 301.073564)scale(0.1 -0.1)">
       <use xlink:href="#DejaVuSans-8722"/>
       <use x="83.789062" xlink:href="#DejaVuSans-49"/>
       <use x="147.412109" xlink:href="#DejaVuSans-46"/>
       <use x="179.199219" xlink:href="#DejaVuSans-53"/>
      </g>
     </g>
    </g>
    <g id="ytick_2">
     <g id="line2d_19">
      <path clip-path="url(#p2ec74c7157)" d="M 57.6 267.475107 
L 414.72 267.475107 
" style="fill:none;stroke:#b0b0b0;stroke-linecap:square;stroke-width:0.8;"/>
     </g>
     <g id="line2d_20">
      <g>
       <use style="stroke:#000000;stroke-width:0.8;" x="57.6" xlink:href="#mf49e22e21c" y="267.475107"/>
      </g>
     </g>
     <g id="text_11">
      <!-- −1.0 -->
      <g transform="translate(26.317187 271.274325)scale(0.1 -0.1)">
       <use xlink:href="#DejaVuSans-8722"/>
       <use x="83.789062" xlink:href="#DejaVuSans-49"/>
       <use x="147.412109" xlink:href="#DejaVuSans-46"/>
       <use x="179.199219" xlink:href="#DejaVuSans-48"/>
      </g>
     </g>
    </g>
    <g id="ytick_3">
     <g id="line2d_21">
      <path clip-path="url(#p2ec74c7157)" d="M 57.6 237.675868 
L 414.72 237.675868 
" style="fill:none;stroke:#b0b0b0;stroke-linecap:square;stroke-width:0.8;"/>
     </g>
     <g id="line2d_22">
      <g>
       <use style="stroke:#000000;stroke-width:0.8;" x="57.6" xlink:href="#mf49e22e21c" y="237.675868"/>
      </g>
     </g>
     <g id="text_12">
      <!-- −0.5 -->
      <g transform="translate(26.317187 241.475087)scale(0.1 -0.1)">
       <use xlink:href="#DejaVuSans-8722"/>
       <use x="83.789062" xlink:href="#DejaVuSans-48"/>
       <use x="147.412109" xlink:href="#DejaVuSans-46"/>
       <use x="179.199219" xlink:href="#DejaVuSans-53"/>
      </g>
     </g>
    </g>
    <g id="ytick_4">
     <g id="line2d_23">
      <path clip-path="url(#p2ec74c7157)" d="M 57.6 207.876629 
L 414.72 207.876629 
" style="fill:none;stroke:#b0b0b0;stroke-linecap:square;stroke-width:0.8;"/>
     </g>
     <g id="line2d_24">
      <g>
       <use style="stroke:#000000;stroke-width:0.8;" x="57.6" xlink:href="#mf49e22e21c" y="207.876629"/>
      </g>
     </g>
     <g id="text_13">
      <!-- 0.0 -->
      <g transform="translate(34.696875 211.675848)scale(0.1 -0.1)">
       <use xlink:href="#DejaVuSans-48"/>
       <use x="63.623047" xlink:href="#DejaVuSans-46"/>
       <use x="95.410156" xlink:href="#DejaVuSans-48"/>
      </g>
     </g>
    </g>
    <g id="ytick_5">
     <g id="line2d_25">
      <path clip-path="url(#p2ec74c7157)" d="M 57.6 178.07739 
L 414.72 178.07739 
" style="fill:none;stroke:#b0b0b0;stroke-linecap:square;stroke-width:0.8;"/>
     </g>
     <g id="line2d_26">
      <g>
       <use style="stroke:#000000;stroke-width:0.8;" x="57.6" xlink:href="#mf49e22e21c" y="178.07739"/>
      </g>
     </g>
     <g id="text_14">
      <!-- 0.5 -->
      <g transform="translate(34.696875 181.876609)scale(0.1 -0.1)">
       <use xlink:href="#DejaVuSans-48"/>
       <use x="63.623047" xlink:href="#DejaVuSans-46"/>
       <use x="95.410156" xlink:href="#DejaVuSans-53"/>
      </g>
     </g>
    </g>
    <g id="ytick_6">
     <g id="line2d_27">
      <path clip-path="url(#p2ec74c7157)" d="M 57.6 148.278152 
L 414.72 148.278152 
" style="fill:none;stroke:#b0b0b0;stroke-linecap:square;stroke-width:0.8;"/>
     </g>
     <g id="line2d_28">
      <g>
       <use style="stroke:#000000;stroke-width:0.8;" x="57.6" xlink:href="#mf49e22e21c" y="148.278152"/>
      </g>
     </g>
     <g id="text_15">
      <!-- 1.0 -->
      <g transform="translate(34.696875 152.07737)scale(0.1 -0.1)">
       <use xlink:href="#DejaVuSans-49"/>
       <use x="63.623047" xlink:href="#DejaVuSans-46"/>
       <use x="95.410156" xlink:href="#DejaVuSans-48"/>
      </g>
     </g>
    </g>
    <g id="ytick_7">
     <g id="line2d_29">
      <path clip-path="url(#p2ec74c7157)" d="M 57.6 118.478913 
L 414.72 118.478913 
" style="fill:none;stroke:#b0b0b0;stroke-linecap:square;stroke-width:0.8;"/>
     </g>
     <g id="line2d_30">
      <g>
       <use style="stroke:#000000;stroke-width:0.8;" x="57.6" xlink:href="#mf49e22e21c" y="118.478913"/>
      </g>
     </g>
     <g id="text_16">
      <!-- 1.5 -->
      <g transform="translate(34.696875 122.278132)scale(0.1 -0.1)">
       <use xlink:href="#DejaVuSans-49"/>
       <use x="63.623047" xlink:href="#DejaVuSans-46"/>
       <use x="95.410156" xlink:href="#DejaVuSans-53"/>
      </g>
     </g>
    </g>
    <g id="ytick_8">
     <g id="line2d_31">
      <path clip-path="url(#p2ec74c7157)" d="M 57.6 88.679674 
L 414.72 88.679674 
" style="fill:none;stroke:#b0b0b0;stroke-linecap:square;stroke-width:0.8;"/>
     </g>
     <g id="line2d_32">
      <g>
       <use style="stroke:#000000;stroke-width:0.8;" x="57.6" xlink:href="#mf49e22e21c" y="88.679674"/>
      </g>
     </g>
     <g id="text_17">
      <!-- 2.0 -->
      <g transform="translate(34.696875 92.478893)scale(0.1 -0.1)">
       <use xlink:href="#DejaVuSans-50"/>
       <use x="63.623047" xlink:href="#DejaVuSans-46"/>
       <use x="95.410156" xlink:href="#DejaVuSans-48"/>
      </g>
     </g>
    </g>
    <g id="ytick_9">
     <g id="line2d_33">
      <path clip-path="url(#p2ec74c7157)" d="M 57.6 58.880435 
L 414.72 58.880435 
" style="fill:none;stroke:#b0b0b0;stroke-linecap:square;stroke-width:0.8;"/>
     </g>
     <g id="line2d_34">
      <g>
       <use style="stroke:#000000;stroke-width:0.8;" x="57.6" xlink:href="#mf49e22e21c" y="58.880435"/>
      </g>
     </g>
     <g id="text_18">
      <!-- 2.5 -->
      <g transform="translate(34.696875 62.679654)scale(0.1 -0.1)">
       <use xlink:href="#DejaVuSans-50"/>
       <use x="63.623047" xlink:href="#DejaVuSans-46"/>
       <use x="95.410156" xlink:href="#DejaVuSans-53"/>
      </g>
     </g>
    </g>
    <g id="text_19">
     <!-- Velocity -->
     <defs>
      <path d="M 28.609375 0 
L 0.78125 72.90625 
L 11.078125 72.90625 
L 34.1875 11.53125 
L 57.328125 72.90625 
L 67.578125 72.90625 
L 39.796875 0 
z
" id="DejaVuSans-86"/>
      <path d="M 9.421875 75.984375 
L 18.40625 75.984375 
L 18.40625 0 
L 9.421875 0 
z
" id="DejaVuSans-108"/>
      <path d="M 30.609375 48.390625 
Q 23.390625 48.390625 19.1875 42.75 
Q 14.984375 37.109375 14.984375 27.296875 
Q 14.984375 17.484375 19.15625 11.84375 
Q 23.34375 6.203125 30.609375 6.203125 
Q 37.796875 6.203125 41.984375 11.859375 
Q 46.1875 17.53125 46.1875 27.296875 
Q 46.1875 37.015625 41.984375 42.703125 
Q 37.796875 48.390625 30.609375 48.390625 
z
M 30.609375 56 
Q 42.328125 56 49.015625 48.375 
Q 55.71875 40.765625 55.71875 27.296875 
Q 55.71875 13.875 49.015625 6.21875 
Q 42.328125 -1.421875 30.609375 -1.421875 
Q 18.84375 -1.421875 12.171875 6.21875 
Q 5.515625 13.875 5.515625 27.296875 
Q 5.515625 40.765625 12.171875 48.375 
Q 18.84375 56 30.609375 56 
z
" id="DejaVuSans-111"/>
      <path d="M 48.78125 52.59375 
L 48.78125 44.1875 
Q 44.96875 46.296875 41.140625 47.34375 
Q 37.3125 48.390625 33.40625 48.390625 
Q 24.65625 48.390625 19.8125 42.84375 
Q 14.984375 37.3125 14.984375 27.296875 
Q 14.984375 17.28125 19.8125 11.734375 
Q 24.65625 6.203125 33.40625 6.203125 
Q 37.3125 6.203125 41.140625 7.25 
Q 44.96875 8.296875 48.78125 10.40625 
L 48.78125 2.09375 
Q 45.015625 0.34375 40.984375 -0.53125 
Q 36.96875 -1.421875 32.421875 -1.421875 
Q 20.0625 -1.421875 12.78125 6.34375 
Q 5.515625 14.109375 5.515625 27.296875 
Q 5.515625 40.671875 12.859375 48.328125 
Q 20.21875 56 33.015625 56 
Q 37.15625 56 41.109375 55.140625 
Q 45.0625 54.296875 48.78125 52.59375 
z
" id="DejaVuSans-99"/>
      <path d="M 18.3125 70.21875 
L 18.3125 54.6875 
L 36.8125 54.6875 
L 36.8125 47.703125 
L 18.3125 47.703125 
L 18.3125 18.015625 
Q 18.3125 11.328125 20.140625 9.421875 
Q 21.96875 7.515625 27.59375 7.515625 
L 36.8125 7.515625 
L 36.8125 0 
L 27.59375 0 
Q 17.1875 0 13.234375 3.875 
Q 9.28125 7.765625 9.28125 18.015625 
L 9.28125 47.703125 
L 2.6875 47.703125 
L 2.6875 54.6875 
L 9.28125 54.6875 
L 9.28125 70.21875 
z
" id="DejaVuSans-116"/>
      <path d="M 32.171875 -5.078125 
Q 28.375 -14.84375 24.75 -17.8125 
Q 21.140625 -20.796875 15.09375 -20.796875 
L 7.90625 -20.796875 
L 7.90625 -13.28125 
L 13.1875 -13.28125 
Q 16.890625 -13.28125 18.9375 -11.515625 
Q 21 -9.765625 23.484375 -3.21875 
L 25.09375 0.875 
L 2.984375 54.6875 
L 12.5 54.6875 
L 29.59375 11.921875 
L 46.6875 54.6875 
L 56.203125 54.6875 
z
" id="DejaVuSans-121"/>
     </defs>
     <g transform="translate(20.2375 194.525656)rotate(-90)scale(0.1 -0.1)">
      <use xlink:href="#DejaVuSans-86"/>
      <use x="68.298828" xlink:href="#DejaVuSans-101"/>
      <use x="129.822266" xlink:href="#DejaVuSans-108"/>
      <use x="157.605469" xlink:href="#DejaVuSans-111"/>
      <use x="218.787109" xlink:href="#DejaVuSans-99"/>
      <use x="273.767578" xlink:href="#DejaVuSans-105"/>
      <use x="301.550781" xlink:href="#DejaVuSans-116"/>
      <use x="340.759766" xlink:href="#DejaVuSans-121"/>
     </g>
    </g>
   </g>
   <g id="line2d_35">
    <path clip-path="url(#p2ec74c7157)" d="M 73.832727 211.683998 
L 74.189687 211.631309 
L 74.546646 211.281694 
L 75.260565 210.159696 
L 78.11624 205.237325 
L 79.187118 203.904064 
L 80.257996 202.940756 
L 80.971915 202.50134 
L 81.507354 199.444621 
L 81.864313 198.451696 
L 82.399752 197.596177 
L 83.292151 196.324551 
L 84.006069 194.843554 
L 84.363029 193.700367 
L 87.040224 182.902404 
L 87.932622 180.605504 
L 88.825021 178.940823 
L 89.538939 178.008447 
L 89.895899 174.912585 
L 90.074379 174.283748 
L 90.252858 174.18709 
L 90.609818 175.07962 
L 91.145257 177.745673 
L 93.822452 193.051115 
L 94.89333 197.671172 
L 95.964208 201.434182 
L 97.035086 204.482753 
L 98.105964 206.943773 
L 99.176842 208.913582 
L 100.4262 210.715461 
L 101.140119 211.54429 
L 101.675558 207.586715 
L 102.032517 206.794805 
L 102.210997 206.740539 
L 102.567956 206.999772 
L 103.103395 207.563679 
L 103.460355 207.399374 
L 103.995794 206.581536 
L 105.066672 204.235502 
L 106.494509 201.283304 
L 107.565388 199.572463 
L 108.636266 198.294185 
L 109.707144 197.387608 
L 110.242583 197.051395 
L 110.778022 203.156402 
L 111.134981 204.551632 
L 111.313461 204.661913 
L 111.491941 204.457516 
L 111.8489 203.326991 
L 112.384339 200.452706 
L 113.812177 190.682467 
L 115.061534 183.028897 
L 115.953933 178.777969 
L 116.846331 175.563079 
L 117.56025 173.681982 
L 118.274169 172.344041 
L 118.809608 171.655037 
L 119.166567 168.944409 
L 119.345047 168.676145 
L 119.523526 168.992403 
L 119.880486 170.814734 
L 120.415925 175.485348 
L 121.486803 187.86656 
L 123.09312 205.961254 
L 124.163998 215.289908 
L 125.056397 221.132614 
L 125.770315 224.629878 
L 126.484234 227.196717 
L 126.841193 228.168614 
L 127.019673 228.286144 
L 127.376633 228.102471 
L 127.733592 227.67055 
L 128.090551 226.901484 
L 128.62599 224.781235 
L 129.518389 219.815752 
L 131.838625 206.200513 
L 132.909503 201.221293 
L 133.980381 197.286541 
L 134.872779 194.757575 
L 135.765178 192.838269 
L 136.657576 191.447389 
L 137.549975 190.512211 
L 138.442373 189.96312 
L 139.156292 189.758349 
L 140.04869 189.748636 
L 140.941089 189.967999 
L 142.011967 190.470526 
L 143.261324 191.30531 
L 145.046121 192.80305 
L 148.437235 196.04529 
L 151.64987 198.985688 
L 153.970105 200.805678 
L 156.111862 202.195436 
L 158.075138 203.212497 
L 160.038415 203.992731 
L 162.180171 204.598988 
L 164.500407 205.009228 
L 166.999122 205.22412 
L 170.211757 205.262619 
L 175.387668 205.061608 
L 182.705335 204.82013 
L 188.416684 204.875518 
L 196.80523 205.219268 
L 208.04945 205.636071 
L 218.579751 205.771649 
L 252.312411 206.077182 
L 296.575373 206.470992 
L 370.465962 206.946059 
L 398.487273 207.080701 
L 398.487273 207.080701 
" style="fill:none;stroke:#1f77b4;stroke-linecap:square;stroke-width:1.5;"/>
   </g>
   <g id="line2d_36">
    <path clip-path="url(#p2ec74c7157)" d="M 73.832727 189.818966 
L 74.725126 210.844995 
L 75.617524 227.170755 
L 76.509923 239.580296 
L 77.402321 248.743299 
L 78.11624 254.120206 
L 78.830158 258.032855 
L 79.544077 260.698818 
L 80.079516 261.995451 
L 80.614955 262.769471 
L 80.971915 263.027194 
L 81.507354 254.954738 
L 82.399752 238.106025 
L 83.64911 209.61605 
L 84.898468 180.57247 
L 85.790866 165.530275 
L 86.683265 154.541567 
L 87.397183 148.119523 
L 88.111102 143.439862 
L 88.825021 140.22149 
L 89.36046 138.606718 
L 89.538939 138.201089 
L 90.074379 139.348214 
L 91.145257 142.229344 
L 92.394614 146.263245 
L 94.71485 154.731094 
L 97.927485 166.322221 
L 100.069241 173.158383 
L 101.140119 176.238997 
L 101.675558 167.519544 
L 102.746436 146.227559 
L 103.638835 129.062563 
L 104.352753 119.229397 
L 105.066672 112.259373 
L 105.780591 107.671727 
L 106.31603 105.53164 
L 106.851469 104.32286 
L 107.208428 103.97449 
L 107.565388 103.957631 
L 107.922347 104.222414 
L 108.279306 104.747181 
L 108.814745 105.966463 
L 109.528664 108.258834 
L 110.242583 111.147744 
L 111.491941 119.670436 
L 114.704575 141.677911 
L 116.489372 152.382032 
L 118.274169 161.732934 
L 118.809608 164.276057 
L 119.345047 168.499213 
L 120.058965 171.795328 
L 121.129844 175.751511 
L 122.200722 178.931112 
L 123.2716 181.472279 
L 124.342478 183.487222 
L 125.413356 185.079817 
L 126.662714 186.532953 
L 126.841193 186.712613 
L 127.555112 182.066987 
L 128.80447 172.345735 
L 129.518389 168.687491 
L 130.232307 166.206527 
L 130.767747 164.973131 
L 131.303186 164.190827 
L 131.838625 163.790669 
L 132.374064 163.713069 
L 132.909503 163.906519 
L 133.444942 164.324107 
L 134.158861 165.170615 
L 135.051259 166.585087 
L 136.300617 169.017906 
L 138.263893 173.400054 
L 142.725885 183.459 
L 144.867642 187.690949 
L 146.830918 191.098349 
L 148.794195 194.04795 
L 150.578991 196.349226 
L 152.363788 198.317138 
L 154.327065 200.138124 
L 156.290341 201.642587 
L 158.253618 202.875942 
L 160.395374 203.961941 
L 162.71561 204.888379 
L 165.392805 205.701237 
L 168.42696 206.370591 
L 171.996554 206.912776 
L 176.280066 207.329202 
L 181.991416 207.645101 
L 190.023002 207.848473 
L 203.587458 207.938552 
L 264.805989 207.922059 
L 398.487273 207.893284 
L 398.487273 207.893284 
" style="fill:none;stroke:#ff7f0e;stroke-linecap:square;stroke-width:1.5;"/>
   </g>
   <g id="line2d_37">
    <path clip-path="url(#p2ec74c7157)" d="M 73.832727 219.139036 
L 74.189687 219.122833 
L 74.725126 219.525491 
L 77.580801 222.478024 
L 78.473199 222.93315 
L 79.365597 223.108778 
L 80.257996 223.019954 
L 80.971915 222.775024 
L 81.328874 221.362059 
L 82.042793 216.593976 
L 83.113671 209.668073 
L 83.82759 206.411862 
L 84.184549 205.299642 
L 84.541508 204.876947 
L 84.898468 204.900008 
L 85.433907 205.371801 
L 86.326305 206.624758 
L 88.289582 209.934891 
L 89.538939 212.020771 
L 90.074379 221.391552 
L 90.431338 224.726246 
L 90.788297 226.700935 
L 91.323736 228.159496 
L 91.680696 228.570472 
L 92.037655 228.716787 
L 92.394614 228.689047 
L 92.930053 228.407452 
L 93.643972 227.743321 
L 94.71485 226.377332 
L 96.321167 223.862028 
L 101.140119 215.875517 
L 101.497078 217.820303 
L 101.675558 218.174158 
L 101.854038 218.162044 
L 102.210997 217.386812 
L 102.924916 214.468534 
L 103.281875 213.326211 
L 103.638835 212.686107 
L 103.995794 212.37511 
L 104.531233 212.283785 
L 105.245152 212.52857 
L 106.494509 213.299792 
L 108.636266 214.605222 
L 110.242583 215.333603 
L 110.778022 203.518473 
L 111.313461 196.743687 
L 111.67042 194.275657 
L 112.02738 192.952489 
L 112.384339 192.471877 
L 112.562819 192.453765 
L 112.919778 192.780069 
L 113.455217 193.876363 
L 114.169136 195.986316 
L 117.56025 206.91794 
L 118.809608 209.956267 
L 119.345047 221.594913 
L 119.880486 228.136327 
L 120.237445 230.510588 
L 120.594405 231.753003 
L 120.951364 232.158839 
L 121.129844 232.12141 
L 121.486803 231.682506 
L 122.022242 230.383565 
L 122.91464 227.350017 
L 124.877917 220.419746 
L 125.948795 217.427329 
L 126.841193 215.466013 
L 127.912072 208.316564 
L 128.447511 206.321668 
L 128.80447 205.735375 
L 129.161429 205.571474 
L 129.518389 205.714819 
L 130.053828 206.351224 
L 130.767747 207.659747 
L 134.33734 214.905703 
L 135.408218 216.419018 
L 136.479096 217.552821 
L 137.549975 218.338591 
L 138.620853 218.816153 
L 139.691731 219.02986 
L 140.762609 219.022073 
L 142.011967 218.784774 
L 143.439804 218.283555 
L 145.403081 217.323956 
L 148.615715 215.444237 
L 152.542268 213.211632 
L 155.040984 212.038391 
L 157.361219 211.181472 
L 159.681455 210.555739 
L 162.180171 210.121968 
L 164.857366 209.890448 
L 168.07 209.849704 
L 172.710472 210.044846 
L 182.169896 210.481293 
L 187.881245 210.485775 
L 195.734352 210.244251 
L 209.477287 209.823628 
L 222.327824 209.714013 
L 249.992176 209.485 
L 296.575373 209.114312 
L 375.998833 208.670953 
L 398.487273 208.577327 
L 398.487273 208.577327 
" style="fill:none;stroke:#2ca02c;stroke-linecap:square;stroke-width:1.5;"/>
   </g>
   <g id="line2d_38">
    <path clip-path="url(#p2ec74c7157)" d="M 73.832727 172.573313 
L 74.903605 195.794521 
L 75.974483 213.939038 
L 76.866882 225.727503 
L 77.75928 234.896292 
L 78.651679 241.785622 
L 79.365597 245.861725 
L 80.079516 248.816201 
L 80.793435 250.779266 
L 80.971915 251.129384 
L 81.685833 259.190972 
L 82.042793 261.205115 
L 82.399752 261.974322 
L 82.578232 261.937022 
L 82.756711 261.641275 
L 83.113671 260.339488 
L 83.64911 256.822095 
L 86.504785 233.372628 
L 87.754143 225.945409 
L 89.0035 219.749535 
L 89.538939 217.406729 
L 90.788297 195.851606 
L 91.680696 184.526688 
L 92.573094 176.026988 
L 93.465493 169.804707 
L 94.179411 166.173189 
L 94.89333 163.521955 
L 95.607249 161.695134 
L 96.321167 160.553602 
L 96.856607 160.069047 
L 97.392046 159.853648 
L 97.927485 159.892299 
L 98.462924 160.1353 
L 99.176842 160.727156 
L 100.069241 161.811585 
L 101.140119 163.505455 
L 101.675558 167.68746 
L 102.032517 169.178676 
L 102.389477 169.689158 
L 102.567956 169.619399 
L 102.924916 168.909653 
L 103.638835 167.454388 
L 104.174274 166.792001 
L 104.709713 166.438512 
L 105.245152 166.348894 
L 105.780591 166.48777 
L 106.494509 166.965647 
L 107.208428 167.718487 
L 108.279306 169.255322 
L 109.528664 171.497749 
L 110.421063 173.134983 
L 111.313461 174.314936 
L 112.562819 176.45869 
L 114.526095 180.377636 
L 118.452648 188.265329 
L 118.809608 188.926595 
L 119.345047 174.721023 
L 120.415925 142.533327 
L 121.308323 123.25782 
L 122.022242 111.997426 
L 122.736161 103.762845 
L 123.450079 98.033395 
L 123.985519 95.112821 
L 124.520958 93.192683 
L 125.056397 92.132654 
L 125.413356 91.842335 
L 125.770315 91.846548 
L 126.127275 92.115358 
L 126.662714 92.955377 
L 126.841193 93.339456 
L 128.98295 147.684268 
L 130.053828 166.075071 
L 131.124706 180.254762 
L 132.195584 191.05146 
L 133.087982 197.961129 
L 133.980381 203.337528 
L 134.872779 207.454644 
L 135.765178 210.546387 
L 136.657576 212.818406 
L 137.549975 214.431874 
L 138.442373 215.523784 
L 139.334771 216.207929 
L 140.22717 216.575516 
L 141.119568 216.699441 
L 142.190446 216.612289 
L 143.439804 216.286431 
L 145.224601 215.576453 
L 154.505545 211.519682 
L 157.718179 210.531673 
L 161.109293 209.72396 
L 164.857366 209.058656 
L 169.140879 208.529779 
L 173.95983 208.162285 
L 179.84966 207.947133 
L 188.238205 207.890879 
L 240.711232 207.897687 
L 398.487273 207.88379 
L 398.487273 207.88379 
" style="fill:none;stroke:#d62728;stroke-linecap:square;stroke-width:1.5;"/>
   </g>
   <g id="line2d_39">
    <path clip-path="url(#p2ec74c7157)" d="M 73.832727 206.622048 
L 74.903605 201.738288 
L 75.617524 199.339023 
L 76.331443 197.615276 
L 77.045362 196.499659 
L 77.580801 196.015232 
L 78.11624 195.796034 
L 78.651679 195.810001 
L 79.187118 196.026397 
L 79.901037 196.579502 
L 80.793435 197.605745 
L 80.971915 197.846269 
L 81.328874 198.919123 
L 81.864313 201.393111 
L 82.756711 206.959769 
L 83.82759 215.278528 
L 84.719988 222.259136 
L 85.612386 227.365603 
L 86.504785 231.176059 
L 87.397183 233.955166 
L 88.111102 235.55943 
L 88.825021 236.686838 
L 89.538939 237.406677 
L 90.074379 233.886453 
L 90.609818 231.810737 
L 91.323736 230.118978 
L 92.394614 228.363162 
L 94.536371 225.441056 
L 98.819883 220.009866 
L 101.140119 217.24018 
L 101.318599 217.640848 
L 101.675558 219.199124 
L 102.389477 224.01744 
L 103.460355 231.569536 
L 103.995794 233.912211 
L 104.531233 235.497895 
L 105.066672 236.50873 
L 105.602111 237.067172 
L 106.13755 237.257391 
L 106.672989 237.150999 
L 107.208428 236.803183 
L 107.922347 236.030718 
L 108.814745 234.691757 
L 110.064103 232.34963 
L 110.242583 231.985861 
L 110.778022 238.162785 
L 111.134981 240.435909 
L 111.491941 241.564027 
L 111.67042 241.785913 
L 111.8489 241.823917 
L 112.02738 241.705709 
L 112.384339 241.081232 
L 112.919778 239.489787 
L 113.812177 235.879404 
L 116.846331 222.906852 
L 118.095689 218.686669 
L 118.809608 216.637901 
L 119.345047 191.011835 
L 119.702006 183.573297 
L 120.237445 177.301941 
L 120.772884 173.831228 
L 121.129844 172.641524 
L 121.486803 172.124225 
L 121.843762 172.128968 
L 122.200722 172.53594 
L 122.736161 173.697283 
L 123.450079 175.915565 
L 124.877917 181.361096 
L 126.841193 188.923657 
L 127.198153 198.838279 
L 127.912072 208.721703 
L 128.62599 215.558657 
L 129.161429 218.972641 
L 129.696868 221.344137 
L 130.232307 222.945691 
L 130.767747 223.973335 
L 131.303186 224.569369 
L 131.838625 224.838172 
L 132.374064 224.857179 
L 133.087982 224.59296 
L 133.980381 223.932159 
L 135.051259 222.826043 
L 136.836056 220.594219 
L 141.655007 214.392963 
L 143.796763 212.079544 
L 145.76004 210.293567 
L 147.723317 208.828035 
L 149.508113 207.75655 
L 151.47139 206.837204 
L 153.434666 206.154457 
L 155.576423 205.635354 
L 158.075138 205.267053 
L 160.930813 205.075643 
L 164.678887 205.0574 
L 171.996554 205.30295 
L 180.742058 205.509667 
L 192.521717 205.511874 
L 206.978572 205.59025 
L 268.197103 206.2819 
L 336.376343 206.786794 
L 398.487273 207.105784 
L 398.487273 207.105784 
" style="fill:none;stroke:#9467bd;stroke-linecap:square;stroke-width:1.5;"/>
   </g>
   <g id="line2d_40">
    <path clip-path="url(#p2ec74c7157)" d="M 73.832727 187.80523 
L 76.152963 173.181705 
L 77.223841 167.722426 
L 78.11624 164.131387 
L 78.830158 161.954076 
L 79.544077 160.419551 
L 80.079516 159.693238 
L 80.614955 159.326743 
L 80.971915 159.278441 
L 82.399752 146.748917 
L 83.292151 137.340667 
L 84.184549 125.088576 
L 84.898468 116.329849 
L 85.612386 110.242901 
L 86.147825 107.168422 
L 86.683265 105.210162 
L 87.040224 104.449974 
L 87.397183 104.098024 
L 87.754143 104.108338 
L 88.111102 104.440938 
L 88.646541 105.501267 
L 89.18198 107.141942 
L 89.538939 108.517213 
L 91.323736 145.191007 
L 92.394614 162.227555 
L 93.465493 176.205165 
L 94.536371 187.668155 
L 95.607249 197.045859 
L 96.678127 204.681196 
L 97.749005 210.87678 
L 98.819883 215.814111 
L 99.890761 219.709519 
L 100.78316 222.270906 
L 101.140119 223.137802 
L 101.675558 217.602598 
L 102.389477 207.623074 
L 104.352753 176.31822 
L 105.245152 167.456978 
L 105.95907 162.378382 
L 106.672989 158.743747 
L 107.386908 156.294427 
L 107.922347 155.097552 
L 108.457786 154.367951 
L 108.993225 154.02908 
L 109.528664 154.019071 
L 110.064103 154.283899 
L 110.242583 154.424122 
L 112.205859 163.368362 
L 113.633697 168.50686 
L 115.061534 172.823678 
L 116.667851 176.938149 
L 118.274169 180.451065 
L 118.809608 181.514486 
L 119.166567 186.157522 
L 119.523526 196.58194 
L 120.415925 226.552162 
L 121.308323 249.39965 
L 122.200722 266.326495 
L 122.91464 276.3572 
L 123.628559 283.803479 
L 124.342478 289.09208 
L 125.056397 292.591528 
L 125.591836 294.234083 
L 126.127275 295.165281 
L 126.484234 295.442192 
L 126.841193 295.476387 
L 127.019673 292.929527 
L 127.376633 282.97389 
L 128.80447 238.594488 
L 129.696868 218.053746 
L 130.589267 202.24601 
L 131.481665 190.32648 
L 132.374064 181.539487 
L 133.087982 176.345131 
L 133.801901 172.492257 
L 134.51582 169.774618 
L 135.229739 167.97692 
L 135.765178 167.137223 
L 136.300617 166.66423 
L 136.836056 166.501546 
L 137.371495 166.608057 
L 137.906934 166.93873 
L 138.620853 167.663673 
L 139.513251 168.928322 
L 140.762609 171.159603 
L 142.725885 175.237651 
L 147.009398 184.258806 
L 149.151154 188.213457 
L 151.114431 191.395193 
L 153.077707 194.156789 
L 155.040984 196.529346 
L 157.00426 198.552038 
L 158.967537 200.268124 
L 161.109293 201.837335 
L 163.251049 203.136472 
L 165.571285 204.283808 
L 168.07 205.263738 
L 170.747196 206.068673 
L 173.602871 206.69762 
L 176.815505 207.180431 
L 180.563578 207.517499 
L 185.38253 207.711624 
L 192.878677 207.754022 
L 216.794954 207.789539 
L 244.280826 207.82694 
L 398.487273 207.860641 
L 398.487273 207.860641 
" style="fill:none;stroke:#8c564b;stroke-linecap:square;stroke-width:1.5;"/>
   </g>
   <g id="line2d_41">
    <path clip-path="url(#p2ec74c7157)" d="M 73.832727 125.451515 
L 75.082085 100.91882 
L 76.152963 83.990552 
L 77.045362 72.777605 
L 77.93776 64.193363 
L 78.651679 59.190057 
L 79.365597 55.799503 
L 79.901037 54.281226 
L 80.257996 53.741237 
L 80.614955 53.568 
L 80.971915 53.751308 
L 81.864313 92.182025 
L 82.399752 107.290273 
L 82.935191 115.943978 
L 83.292151 118.11622 
L 83.47063 118.04878 
L 83.64911 117.339253 
L 84.006069 113.70121 
L 84.719988 104.572947 
L 85.433907 98.034531 
L 86.147825 93.680487 
L 86.683265 91.644766 
L 87.218704 90.548797 
L 87.575663 90.286043 
L 87.932622 90.381484 
L 88.289582 90.799867 
L 88.825021 91.976774 
L 89.36046 93.751059 
L 89.538939 94.460398 
L 90.788297 118.124732 
L 92.037655 136.362554 
L 93.465493 153.760262 
L 94.89333 168.539854 
L 96.321167 181.219124 
L 97.749005 192.128886 
L 99.176842 201.452195 
L 100.60468 209.351797 
L 101.140119 211.963751 
L 101.675558 228.055523 
L 102.032517 234.322161 
L 102.389477 236.862672 
L 102.567956 236.789186 
L 102.746436 235.843628 
L 103.817314 226.066318 
L 104.709713 220.194169 
L 105.602111 215.699808 
L 106.672989 211.572109 
L 107.743867 208.410494 
L 108.814745 205.932564 
L 110.064103 203.64566 
L 110.242583 203.358239 
L 111.134981 184.235593 
L 111.8489 174.637125 
L 112.562819 168.459455 
L 113.276737 164.536442 
L 113.812177 162.620272 
L 114.347616 161.360115 
L 114.883055 160.607858 
L 115.418494 160.252555 
L 115.953933 160.209789 
L 116.489372 160.411368 
L 117.203291 160.980385 
L 118.095689 162.049118 
L 118.809608 163.110122 
L 119.345047 205.51892 
L 119.702006 218.251913 
L 120.415925 234.212926 
L 121.129844 244.630313 
L 121.665283 249.788597 
L 122.200722 253.223719 
L 122.736161 255.307337 
L 123.09312 256.090527 
L 123.450079 256.471515 
L 123.807039 256.509451 
L 124.163998 256.255129 
L 124.699437 255.419931 
L 125.413356 253.646195 
L 126.305754 250.68555 
L 126.841193 248.645644 
L 127.198153 238.095586 
L 127.733592 230.108005 
L 128.62599 213.976772 
L 129.339909 204.494342 
L 130.053828 197.278719 
L 130.946226 190.653992 
L 131.660145 186.815831 
L 132.374064 184.006384 
L 133.087982 182.021279 
L 133.801901 180.71345 
L 134.33734 180.110492 
L 134.872779 179.780331 
L 135.408218 179.686633 
L 135.943657 179.797676 
L 136.657576 180.215825 
L 137.371495 180.891724 
L 138.263893 182.02454 
L 139.513251 184.006604 
L 141.298048 187.333978 
L 147.366357 199.089942 
L 149.329634 202.253596 
L 151.114431 204.703948 
L 152.720748 206.545379 
L 154.327065 208.045427 
L 155.933382 209.219099 
L 157.361219 210.008672 
L 158.967537 210.639467 
L 160.573854 211.031215 
L 162.358651 211.232925 
L 164.321927 211.229612 
L 166.820643 210.984774 
L 170.568716 210.356997 
L 176.637025 209.350511 
L 180.206619 208.994068 
L 183.954692 208.850443 
L 188.238205 208.918368 
L 196.091311 209.322231 
L 203.587458 209.605821 
L 210.369686 209.628959 
L 221.792385 209.395982 
L 235.713801 209.19496 
L 331.557391 208.676023 
L 398.487273 208.427149 
L 398.487273 208.427149 
" style="fill:none;stroke:#e377c2;stroke-linecap:square;stroke-width:1.5;"/>
   </g>
   <g id="patch_3">
    <path d="M 57.6 307.584 
L 57.6 41.472 
" style="fill:none;stroke:#000000;stroke-linecap:square;stroke-linejoin:miter;stroke-width:0.8;"/>
   </g>
   <g id="patch_4">
    <path d="M 414.72 307.584 
L 414.72 41.472 
" style="fill:none;stroke:#000000;stroke-linecap:square;stroke-linejoin:miter;stroke-width:0.8;"/>
   </g>
   <g id="patch_5">
    <path d="M 57.6 307.584 
L 414.72 307.584 
" style="fill:none;stroke:#000000;stroke-linecap:square;stroke-linejoin:miter;stroke-width:0.8;"/>
   </g>
   <g id="patch_6">
    <path d="M 57.6 41.472 
L 414.72 41.472 
" style="fill:none;stroke:#000000;stroke-linecap:square;stroke-linejoin:miter;stroke-width:0.8;"/>
   </g>
   <g id="text_20">
    <!-- Franka Joint Velocities -->
    <defs>
     <path d="M 9.8125 72.90625 
L 51.703125 72.90625 
L 51.703125 64.59375 
L 19.671875 64.59375 
L 19.671875 43.109375 
L 48.578125 43.109375 
L 48.578125 34.8125 
L 19.671875 34.8125 
L 19.671875 0 
L 9.8125 0 
z
" id="DejaVuSans-70"/>
     <path d="M 41.109375 46.296875 
Q 39.59375 47.171875 37.8125 47.578125 
Q 36.03125 48 33.890625 48 
Q 26.265625 48 22.1875 43.046875 
Q 18.109375 38.09375 18.109375 28.8125 
L 18.109375 0 
L 9.078125 0 
L 9.078125 54.6875 
L 18.109375 54.6875 
L 18.109375 46.1875 
Q 20.953125 51.171875 25.484375 53.578125 
Q 30.03125 56 36.53125 56 
Q 37.453125 56 38.578125 55.875 
Q 39.703125 55.765625 41.0625 55.515625 
z
" id="DejaVuSans-114"/>
     <path d="M 34.28125 27.484375 
Q 23.390625 27.484375 19.1875 25 
Q 14.984375 22.515625 14.984375 16.5 
Q 14.984375 11.71875 18.140625 8.90625 
Q 21.296875 6.109375 26.703125 6.109375 
Q 34.1875 6.109375 38.703125 11.40625 
Q 43.21875 16.703125 43.21875 25.484375 
L 43.21875 27.484375 
z
M 52.203125 31.203125 
L 52.203125 0 
L 43.21875 0 
L 43.21875 8.296875 
Q 40.140625 3.328125 35.546875 0.953125 
Q 30.953125 -1.421875 24.3125 -1.421875 
Q 15.921875 -1.421875 10.953125 3.296875 
Q 6 8.015625 6 15.921875 
Q 6 25.140625 12.171875 29.828125 
Q 18.359375 34.515625 30.609375 34.515625 
L 43.21875 34.515625 
L 43.21875 35.40625 
Q 43.21875 41.609375 39.140625 45 
Q 35.0625 48.390625 27.6875 48.390625 
Q 23 48.390625 18.546875 47.265625 
Q 14.109375 46.140625 10.015625 43.890625 
L 10.015625 52.203125 
Q 14.9375 54.109375 19.578125 55.046875 
Q 24.21875 56 28.609375 56 
Q 40.484375 56 46.34375 49.84375 
Q 52.203125 43.703125 52.203125 31.203125 
z
" id="DejaVuSans-97"/>
     <path d="M 54.890625 33.015625 
L 54.890625 0 
L 45.90625 0 
L 45.90625 32.71875 
Q 45.90625 40.484375 42.875 44.328125 
Q 39.84375 48.1875 33.796875 48.1875 
Q 26.515625 48.1875 22.3125 43.546875 
Q 18.109375 38.921875 18.109375 30.90625 
L 18.109375 0 
L 9.078125 0 
L 9.078125 54.6875 
L 18.109375 54.6875 
L 18.109375 46.1875 
Q 21.34375 51.125 25.703125 53.5625 
Q 30.078125 56 35.796875 56 
Q 45.21875 56 50.046875 50.171875 
Q 54.890625 44.34375 54.890625 33.015625 
z
" id="DejaVuSans-110"/>
     <path d="M 9.078125 75.984375 
L 18.109375 75.984375 
L 18.109375 31.109375 
L 44.921875 54.6875 
L 56.390625 54.6875 
L 27.390625 29.109375 
L 57.625 0 
L 45.90625 0 
L 18.109375 26.703125 
L 18.109375 0 
L 9.078125 0 
z
" id="DejaVuSans-107"/>
     <path id="DejaVuSans-32"/>
     <path d="M 9.8125 72.90625 
L 19.671875 72.90625 
L 19.671875 5.078125 
Q 19.671875 -8.109375 14.671875 -14.0625 
Q 9.671875 -20.015625 -1.421875 -20.015625 
L -5.171875 -20.015625 
L -5.171875 -11.71875 
L -2.09375 -11.71875 
Q 4.4375 -11.71875 7.125 -8.046875 
Q 9.8125 -4.390625 9.8125 5.078125 
z
" id="DejaVuSans-74"/>
     <path d="M 44.28125 53.078125 
L 44.28125 44.578125 
Q 40.484375 46.53125 36.375 47.5 
Q 32.28125 48.484375 27.875 48.484375 
Q 21.1875 48.484375 17.84375 46.4375 
Q 14.5 44.390625 14.5 40.28125 
Q 14.5 37.15625 16.890625 35.375 
Q 19.28125 33.59375 26.515625 31.984375 
L 29.59375 31.296875 
Q 39.15625 29.25 43.1875 25.515625 
Q 47.21875 21.78125 47.21875 15.09375 
Q 47.21875 7.46875 41.1875 3.015625 
Q 35.15625 -1.421875 24.609375 -1.421875 
Q 20.21875 -1.421875 15.453125 -0.5625 
Q 10.6875 0.296875 5.421875 2 
L 5.421875 11.28125 
Q 10.40625 8.6875 15.234375 7.390625 
Q 20.0625 6.109375 24.8125 6.109375 
Q 31.15625 6.109375 34.5625 8.28125 
Q 37.984375 10.453125 37.984375 14.40625 
Q 37.984375 18.0625 35.515625 20.015625 
Q 33.0625 21.96875 24.703125 23.78125 
L 21.578125 24.515625 
Q 13.234375 26.265625 9.515625 29.90625 
Q 5.8125 33.546875 5.8125 39.890625 
Q 5.8125 47.609375 11.28125 51.796875 
Q 16.75 56 26.8125 56 
Q 31.78125 56 36.171875 55.265625 
Q 40.578125 54.546875 44.28125 53.078125 
z
" id="DejaVuSans-115"/>
    </defs>
    <g transform="translate(169.6125 35.472)scale(0.12 -0.12)">
     <use xlink:href="#DejaVuSans-70"/>
     <use x="57.410156" xlink:href="#DejaVuSans-114"/>
     <use x="98.523438" xlink:href="#DejaVuSans-97"/>
     <use x="159.802734" xlink:href="#DejaVuSans-110"/>
     <use x="223.181641" xlink:href="#DejaVuSans-107"/>
     <use x="281.076172" xlink:href="#DejaVuSans-97"/>
     <use x="342.355469" xlink:href="#DejaVuSans-32"/>
     <use x="374.142578" xlink:href="#DejaVuSans-74"/>
     <use x="403.634766" xlink:href="#DejaVuSans-111"/>
     <use x="464.816406" xlink:href="#DejaVuSans-105"/>
     <use x="492.599609" xlink:href="#DejaVuSans-110"/>
     <use x="555.978516" xlink:href="#DejaVuSans-116"/>
     <use x="595.1875" xlink:href="#DejaVuSans-32"/>
     <use x="626.974609" xlink:href="#DejaVuSans-86"/>
     <use x="695.273438" xlink:href="#DejaVuSans-101"/>
     <use x="756.796875" xlink:href="#DejaVuSans-108"/>
     <use x="784.580078" xlink:href="#DejaVuSans-111"/>
     <use x="845.761719" xlink:href="#DejaVuSans-99"/>
     <use x="900.742188" xlink:href="#DejaVuSans-105"/>
     <use x="928.525391" xlink:href="#DejaVuSans-116"/>
     <use x="967.734375" xlink:href="#DejaVuSans-105"/>
     <use x="995.517578" xlink:href="#DejaVuSans-101"/>
     <use x="1057.041016" xlink:href="#DejaVuSans-115"/>
    </g>
   </g>
   <g id="legend_1">
    <g id="patch_7">
     <path d="M 294.746563 154.16575 
L 407.72 154.16575 
Q 409.72 154.16575 409.72 152.16575 
L 409.72 48.472 
Q 409.72 46.472 407.72 46.472 
L 294.746563 46.472 
Q 292.746563 46.472 292.746563 48.472 
L 292.746563 152.16575 
Q 292.746563 154.16575 294.746563 154.16575 
z
" style="fill:#ffffff;opacity:0.8;stroke:#cccccc;stroke-linejoin:miter;"/>
    </g>
    <g id="line2d_42">
     <path d="M 296.746563 54.570438 
L 316.746563 54.570438 
" style="fill:none;stroke:#1f77b4;stroke-linecap:square;stroke-width:1.5;"/>
    </g>
    <g id="line2d_43"/>
    <g id="text_21">
     <!-- panda_joint1dot -->
     <defs>
      <path d="M 18.109375 8.203125 
L 18.109375 -20.796875 
L 9.078125 -20.796875 
L 9.078125 54.6875 
L 18.109375 54.6875 
L 18.109375 46.390625 
Q 20.953125 51.265625 25.265625 53.625 
Q 29.59375 56 35.59375 56 
Q 45.5625 56 51.78125 48.09375 
Q 58.015625 40.1875 58.015625 27.296875 
Q 58.015625 14.40625 51.78125 6.484375 
Q 45.5625 -1.421875 35.59375 -1.421875 
Q 29.59375 -1.421875 25.265625 0.953125 
Q 20.953125 3.328125 18.109375 8.203125 
z
M 48.6875 27.296875 
Q 48.6875 37.203125 44.609375 42.84375 
Q 40.53125 48.484375 33.40625 48.484375 
Q 26.265625 48.484375 22.1875 42.84375 
Q 18.109375 37.203125 18.109375 27.296875 
Q 18.109375 17.390625 22.1875 11.75 
Q 26.265625 6.109375 33.40625 6.109375 
Q 40.53125 6.109375 44.609375 11.75 
Q 48.6875 17.390625 48.6875 27.296875 
z
" id="DejaVuSans-112"/>
      <path d="M 45.40625 46.390625 
L 45.40625 75.984375 
L 54.390625 75.984375 
L 54.390625 0 
L 45.40625 0 
L 45.40625 8.203125 
Q 42.578125 3.328125 38.25 0.953125 
Q 33.9375 -1.421875 27.875 -1.421875 
Q 17.96875 -1.421875 11.734375 6.484375 
Q 5.515625 14.40625 5.515625 27.296875 
Q 5.515625 40.1875 11.734375 48.09375 
Q 17.96875 56 27.875 56 
Q 33.9375 56 38.25 53.625 
Q 42.578125 51.265625 45.40625 46.390625 
z
M 14.796875 27.296875 
Q 14.796875 17.390625 18.875 11.75 
Q 22.953125 6.109375 30.078125 6.109375 
Q 37.203125 6.109375 41.296875 11.75 
Q 45.40625 17.390625 45.40625 27.296875 
Q 45.40625 37.203125 41.296875 42.84375 
Q 37.203125 48.484375 30.078125 48.484375 
Q 22.953125 48.484375 18.875 42.84375 
Q 14.796875 37.203125 14.796875 27.296875 
z
" id="DejaVuSans-100"/>
      <path d="M 50.984375 -16.609375 
L 50.984375 -23.578125 
L -0.984375 -23.578125 
L -0.984375 -16.609375 
z
" id="DejaVuSans-95"/>
      <path d="M 9.421875 54.6875 
L 18.40625 54.6875 
L 18.40625 -0.984375 
Q 18.40625 -11.421875 14.421875 -16.109375 
Q 10.453125 -20.796875 1.609375 -20.796875 
L -1.8125 -20.796875 
L -1.8125 -13.1875 
L 0.59375 -13.1875 
Q 5.71875 -13.1875 7.5625 -10.8125 
Q 9.421875 -8.453125 9.421875 -0.984375 
z
M 9.421875 75.984375 
L 18.40625 75.984375 
L 18.40625 64.59375 
L 9.421875 64.59375 
z
" id="DejaVuSans-106"/>
     </defs>
     <g transform="translate(324.746563 58.070438)scale(0.1 -0.1)">
      <use xlink:href="#DejaVuSans-112"/>
      <use x="63.476562" xlink:href="#DejaVuSans-97"/>
      <use x="124.755859" xlink:href="#DejaVuSans-110"/>
      <use x="188.134766" xlink:href="#DejaVuSans-100"/>
      <use x="251.611328" xlink:href="#DejaVuSans-97"/>
      <use x="312.890625" xlink:href="#DejaVuSans-95"/>
      <use x="362.890625" xlink:href="#DejaVuSans-106"/>
      <use x="390.673828" xlink:href="#DejaVuSans-111"/>
      <use x="451.855469" xlink:href="#DejaVuSans-105"/>
      <use x="479.638672" xlink:href="#DejaVuSans-110"/>
      <use x="543.017578" xlink:href="#DejaVuSans-116"/>
      <use x="582.226562" xlink:href="#DejaVuSans-49"/>
      <use x="645.849609" xlink:href="#DejaVuSans-100"/>
      <use x="709.326172" xlink:href="#DejaVuSans-111"/>
      <use x="770.507812" xlink:href="#DejaVuSans-116"/>
     </g>
    </g>
    <g id="line2d_44">
     <path d="M 296.746563 69.526688 
L 316.746563 69.526688 
" style="fill:none;stroke:#ff7f0e;stroke-linecap:square;stroke-width:1.5;"/>
    </g>
    <g id="line2d_45"/>
    <g id="text_22">
     <!-- panda_joint2dot -->
     <g transform="translate(324.746563 73.026688)scale(0.1 -0.1)">
      <use xlink:href="#DejaVuSans-112"/>
      <use x="63.476562" xlink:href="#DejaVuSans-97"/>
      <use x="124.755859" xlink:href="#DejaVuSans-110"/>
      <use x="188.134766" xlink:href="#DejaVuSans-100"/>
      <use x="251.611328" xlink:href="#DejaVuSans-97"/>
      <use x="312.890625" xlink:href="#DejaVuSans-95"/>
      <use x="362.890625" xlink:href="#DejaVuSans-106"/>
      <use x="390.673828" xlink:href="#DejaVuSans-111"/>
      <use x="451.855469" xlink:href="#DejaVuSans-105"/>
      <use x="479.638672" xlink:href="#DejaVuSans-110"/>
      <use x="543.017578" xlink:href="#DejaVuSans-116"/>
      <use x="582.226562" xlink:href="#DejaVuSans-50"/>
      <use x="645.849609" xlink:href="#DejaVuSans-100"/>
      <use x="709.326172" xlink:href="#DejaVuSans-111"/>
      <use x="770.507812" xlink:href="#DejaVuSans-116"/>
     </g>
    </g>
    <g id="line2d_46">
     <path d="M 296.746563 84.482938 
L 316.746563 84.482938 
" style="fill:none;stroke:#2ca02c;stroke-linecap:square;stroke-width:1.5;"/>
    </g>
    <g id="line2d_47"/>
    <g id="text_23">
     <!-- panda_joint3dot -->
     <defs>
      <path d="M 40.578125 39.3125 
Q 47.65625 37.796875 51.625 33 
Q 55.609375 28.21875 55.609375 21.1875 
Q 55.609375 10.40625 48.1875 4.484375 
Q 40.765625 -1.421875 27.09375 -1.421875 
Q 22.515625 -1.421875 17.65625 -0.515625 
Q 12.796875 0.390625 7.625 2.203125 
L 7.625 11.71875 
Q 11.71875 9.328125 16.59375 8.109375 
Q 21.484375 6.890625 26.8125 6.890625 
Q 36.078125 6.890625 40.9375 10.546875 
Q 45.796875 14.203125 45.796875 21.1875 
Q 45.796875 27.640625 41.28125 31.265625 
Q 36.765625 34.90625 28.71875 34.90625 
L 20.21875 34.90625 
L 20.21875 43.015625 
L 29.109375 43.015625 
Q 36.375 43.015625 40.234375 45.921875 
Q 44.09375 48.828125 44.09375 54.296875 
Q 44.09375 59.90625 40.109375 62.90625 
Q 36.140625 65.921875 28.71875 65.921875 
Q 24.65625 65.921875 20.015625 65.03125 
Q 15.375 64.15625 9.8125 62.3125 
L 9.8125 71.09375 
Q 15.4375 72.65625 20.34375 73.4375 
Q 25.25 74.21875 29.59375 74.21875 
Q 40.828125 74.21875 47.359375 69.109375 
Q 53.90625 64.015625 53.90625 55.328125 
Q 53.90625 49.265625 50.4375 45.09375 
Q 46.96875 40.921875 40.578125 39.3125 
z
" id="DejaVuSans-51"/>
     </defs>
     <g transform="translate(324.746563 87.982938)scale(0.1 -0.1)">
      <use xlink:href="#DejaVuSans-112"/>
      <use x="63.476562" xlink:href="#DejaVuSans-97"/>
      <use x="124.755859" xlink:href="#DejaVuSans-110"/>
      <use x="188.134766" xlink:href="#DejaVuSans-100"/>
      <use x="251.611328" xlink:href="#DejaVuSans-97"/>
      <use x="312.890625" xlink:href="#DejaVuSans-95"/>
      <use x="362.890625" xlink:href="#DejaVuSans-106"/>
      <use x="390.673828" xlink:href="#DejaVuSans-111"/>
      <use x="451.855469" xlink:href="#DejaVuSans-105"/>
      <use x="479.638672" xlink:href="#DejaVuSans-110"/>
      <use x="543.017578" xlink:href="#DejaVuSans-116"/>
      <use x="582.226562" xlink:href="#DejaVuSans-51"/>
      <use x="645.849609" xlink:href="#DejaVuSans-100"/>
      <use x="709.326172" xlink:href="#DejaVuSans-111"/>
      <use x="770.507812" xlink:href="#DejaVuSans-116"/>
     </g>
    </g>
    <g id="line2d_48">
     <path d="M 296.746563 99.439188 
L 316.746563 99.439188 
" style="fill:none;stroke:#d62728;stroke-linecap:square;stroke-width:1.5;"/>
    </g>
    <g id="line2d_49"/>
    <g id="text_24">
     <!-- panda_joint4dot -->
     <defs>
      <path d="M 37.796875 64.3125 
L 12.890625 25.390625 
L 37.796875 25.390625 
z
M 35.203125 72.90625 
L 47.609375 72.90625 
L 47.609375 25.390625 
L 58.015625 25.390625 
L 58.015625 17.1875 
L 47.609375 17.1875 
L 47.609375 0 
L 37.796875 0 
L 37.796875 17.1875 
L 4.890625 17.1875 
L 4.890625 26.703125 
z
" id="DejaVuSans-52"/>
     </defs>
     <g transform="translate(324.746563 102.939188)scale(0.1 -0.1)">
      <use xlink:href="#DejaVuSans-112"/>
      <use x="63.476562" xlink:href="#DejaVuSans-97"/>
      <use x="124.755859" xlink:href="#DejaVuSans-110"/>
      <use x="188.134766" xlink:href="#DejaVuSans-100"/>
      <use x="251.611328" xlink:href="#DejaVuSans-97"/>
      <use x="312.890625" xlink:href="#DejaVuSans-95"/>
      <use x="362.890625" xlink:href="#DejaVuSans-106"/>
      <use x="390.673828" xlink:href="#DejaVuSans-111"/>
      <use x="451.855469" xlink:href="#DejaVuSans-105"/>
      <use x="479.638672" xlink:href="#DejaVuSans-110"/>
      <use x="543.017578" xlink:href="#DejaVuSans-116"/>
      <use x="582.226562" xlink:href="#DejaVuSans-52"/>
      <use x="645.849609" xlink:href="#DejaVuSans-100"/>
      <use x="709.326172" xlink:href="#DejaVuSans-111"/>
      <use x="770.507812" xlink:href="#DejaVuSans-116"/>
     </g>
    </g>
    <g id="line2d_50">
     <path d="M 296.746563 114.395438 
L 316.746563 114.395438 
" style="fill:none;stroke:#9467bd;stroke-linecap:square;stroke-width:1.5;"/>
    </g>
    <g id="line2d_51"/>
    <g id="text_25">
     <!-- panda_joint5dot -->
     <g transform="translate(324.746563 117.895438)scale(0.1 -0.1)">
      <use xlink:href="#DejaVuSans-112"/>
      <use x="63.476562" xlink:href="#DejaVuSans-97"/>
      <use x="124.755859" xlink:href="#DejaVuSans-110"/>
      <use x="188.134766" xlink:href="#DejaVuSans-100"/>
      <use x="251.611328" xlink:href="#DejaVuSans-97"/>
      <use x="312.890625" xlink:href="#DejaVuSans-95"/>
      <use x="362.890625" xlink:href="#DejaVuSans-106"/>
      <use x="390.673828" xlink:href="#DejaVuSans-111"/>
      <use x="451.855469" xlink:href="#DejaVuSans-105"/>
      <use x="479.638672" xlink:href="#DejaVuSans-110"/>
      <use x="543.017578" xlink:href="#DejaVuSans-116"/>
      <use x="582.226562" xlink:href="#DejaVuSans-53"/>
      <use x="645.849609" xlink:href="#DejaVuSans-100"/>
      <use x="709.326172" xlink:href="#DejaVuSans-111"/>
      <use x="770.507812" xlink:href="#DejaVuSans-116"/>
     </g>
    </g>
    <g id="line2d_52">
     <path d="M 296.746563 129.351688 
L 316.746563 129.351688 
" style="fill:none;stroke:#8c564b;stroke-linecap:square;stroke-width:1.5;"/>
    </g>
    <g id="line2d_53"/>
    <g id="text_26">
     <!-- panda_joint6dot -->
     <g transform="translate(324.746563 132.851688)scale(0.1 -0.1)">
      <use xlink:href="#DejaVuSans-112"/>
      <use x="63.476562" xlink:href="#DejaVuSans-97"/>
      <use x="124.755859" xlink:href="#DejaVuSans-110"/>
      <use x="188.134766" xlink:href="#DejaVuSans-100"/>
      <use x="251.611328" xlink:href="#DejaVuSans-97"/>
      <use x="312.890625" xlink:href="#DejaVuSans-95"/>
      <use x="362.890625" xlink:href="#DejaVuSans-106"/>
      <use x="390.673828" xlink:href="#DejaVuSans-111"/>
      <use x="451.855469" xlink:href="#DejaVuSans-105"/>
      <use x="479.638672" xlink:href="#DejaVuSans-110"/>
      <use x="543.017578" xlink:href="#DejaVuSans-116"/>
      <use x="582.226562" xlink:href="#DejaVuSans-54"/>
      <use x="645.849609" xlink:href="#DejaVuSans-100"/>
      <use x="709.326172" xlink:href="#DejaVuSans-111"/>
      <use x="770.507812" xlink:href="#DejaVuSans-116"/>
     </g>
    </g>
    <g id="line2d_54">
     <path d="M 296.746563 144.307938 
L 316.746563 144.307938 
" style="fill:none;stroke:#e377c2;stroke-linecap:square;stroke-width:1.5;"/>
    </g>
    <g id="line2d_55"/>
    <g id="text_27">
     <!-- panda_joint7dot -->
     <g transform="translate(324.746563 147.807938)scale(0.1 -0.1)">
      <use xlink:href="#DejaVuSans-112"/>
      <use x="63.476562" xlink:href="#DejaVuSans-97"/>
      <use x="124.755859" xlink:href="#DejaVuSans-110"/>
      <use x="188.134766" xlink:href="#DejaVuSans-100"/>
      <use x="251.611328" xlink:href="#DejaVuSans-97"/>
      <use x="312.890625" xlink:href="#DejaVuSans-95"/>
      <use x="362.890625" xlink:href="#DejaVuSans-106"/>
      <use x="390.673828" xlink:href="#DejaVuSans-111"/>
      <use x="451.855469" xlink:href="#DejaVuSans-105"/>
      <use x="479.638672" xlink:href="#DejaVuSans-110"/>
      <use x="543.017578" xlink:href="#DejaVuSans-116"/>
      <use x="582.226562" xlink:href="#DejaVuSans-55"/>
      <use x="645.849609" xlink:href="#DejaVuSans-100"/>
      <use x="709.326172" xlink:href="#DejaVuSans-111"/>
      <use x="770.507812" xlink:href="#DejaVuSans-116"/>
     </g>
    </g>
   </g>
  </g>
 </g>
 <defs>
  <clipPath id="p2ec74c7157">
   <rect height="266.112" width="357.12" x="57.6" y="41.472"/>
  </clipPath>
 </defs>
</svg>
