<?xml version="1.0" encoding="utf-8" standalone="no"?>
<!DOCTYPE svg PUBLIC "-//W3C//DTD SVG 1.1//EN"
  "http://www.w3.org/Graphics/SVG/1.1/DTD/svg11.dtd">
<!-- Created with matplotlib (https://matplotlib.org/) -->
<svg height="345.6pt" version="1.1" viewBox="0 0 460.8 345.6" width="460.8pt" xmlns="http://www.w3.org/2000/svg" xmlns:xlink="http://www.w3.org/1999/xlink">
 <defs>
  <style type="text/css">
*{stroke-linecap:butt;stroke-linejoin:round;}
  </style>
 </defs>
 <g id="figure_1">
  <g id="patch_1">
   <path d="M 0 345.6 
L 460.8 345.6 
L 460.8 0 
L 0 0 
z
" style="fill:#ffffff;"/>
  </g>
  <g id="axes_1">
   <g id="patch_2">
    <path d="M 57.6 307.584 
L 414.72 307.584 
L 414.72 41.472 
L 57.6 41.472 
z
" style="fill:#ffffff;"/>
   </g>
   <g id="matplotlib.axis_1">
    <g id="xtick_1">
     <g id="line2d_1">
      <path clip-path="url(#pd2b53ed500)" d="M 85.612386 307.584 
L 85.612386 41.472 
" style="fill:none;stroke:#b0b0b0;stroke-linecap:square;stroke-width:0.8;"/>
     </g>
     <g id="line2d_2">
      <defs>
       <path d="M 0 0 
L 0 3.5 
" id="m35096fefcf" style="stroke:#000000;stroke-width:0.8;"/>
      </defs>
      <g>
       <use style="stroke:#000000;stroke-width:0.8;" x="85.612386" xlink:href="#m35096fefcf" y="307.584"/>
      </g>
     </g>
     <g id="text_1">
      <!-- 85.75 -->
      <defs>
       <path d="M 31.78125 34.625 
Q 24.75 34.625 20.71875 30.859375 
Q 16.703125 27.09375 16.703125 20.515625 
Q 16.703125 13.921875 20.71875 10.15625 
Q 24.75 6.390625 31.78125 6.390625 
Q 38.8125 6.390625 42.859375 10.171875 
Q 46.921875 13.96875 46.921875 20.515625 
Q 46.921875 27.09375 42.890625 30.859375 
Q 38.875 34.625 31.78125 34.625 
z
M 21.921875 38.8125 
Q 15.578125 40.375 12.03125 44.71875 
Q 8.5 49.078125 8.5 55.328125 
Q 8.5 64.0625 14.71875 69.140625 
Q 20.953125 74.21875 31.78125 74.21875 
Q 42.671875 74.21875 48.875 69.140625 
Q 55.078125 64.0625 55.078125 55.328125 
Q 55.078125 49.078125 51.53125 44.71875 
Q 48 40.375 41.703125 38.8125 
Q 48.828125 37.15625 52.796875 32.3125 
Q 56.78125 27.484375 56.78125 20.515625 
Q 56.78125 9.90625 50.3125 4.234375 
Q 43.84375 -1.421875 31.78125 -1.421875 
Q 19.734375 -1.421875 13.25 4.234375 
Q 6.78125 9.90625 6.78125 20.515625 
Q 6.78125 27.484375 10.78125 32.3125 
Q 14.796875 37.15625 21.921875 38.8125 
z
M 18.3125 54.390625 
Q 18.3125 48.734375 21.84375 45.5625 
Q 25.390625 42.390625 31.78125 42.390625 
Q 38.140625 42.390625 41.71875 45.5625 
Q 45.3125 48.734375 45.3125 54.390625 
Q 45.3125 60.0625 41.71875 63.234375 
Q 38.140625 66.40625 31.78125 66.40625 
Q 25.390625 66.40625 21.84375 63.234375 
Q 18.3125 60.0625 18.3125 54.390625 
z
" id="DejaVuSans-56"/>
       <path d="M 10.796875 72.90625 
L 49.515625 72.90625 
L 49.515625 64.59375 
L 19.828125 64.59375 
L 19.828125 46.734375 
Q 21.96875 47.46875 24.109375 47.828125 
Q 26.265625 48.1875 28.421875 48.1875 
Q 40.625 48.1875 47.75 41.5 
Q 54.890625 34.8125 54.890625 23.390625 
Q 54.890625 11.625 47.5625 5.09375 
Q 40.234375 -1.421875 26.90625 -1.421875 
Q 22.3125 -1.421875 17.546875 -0.640625 
Q 12.796875 0.140625 7.71875 1.703125 
L 7.71875 11.625 
Q 12.109375 9.234375 16.796875 8.0625 
Q 21.484375 6.890625 26.703125 6.890625 
Q 35.15625 6.890625 40.078125 11.328125 
Q 45.015625 15.765625 45.015625 23.390625 
Q 45.015625 31 40.078125 35.4375 
Q 35.15625 39.890625 26.703125 39.890625 
Q 22.75 39.890625 18.8125 39.015625 
Q 14.890625 38.140625 10.796875 36.28125 
z
" id="DejaVuSans-53"/>
       <path d="M 10.6875 12.40625 
L 21 12.40625 
L 21 0 
L 10.6875 0 
z
" id="DejaVuSans-46"/>
       <path d="M 8.203125 72.90625 
L 55.078125 72.90625 
L 55.078125 68.703125 
L 28.609375 0 
L 18.3125 0 
L 43.21875 64.59375 
L 8.203125 64.59375 
z
" id="DejaVuSans-55"/>
      </defs>
      <g transform="translate(71.298324 322.182437)scale(0.1 -0.1)">
       <use xlink:href="#DejaVuSans-56"/>
       <use x="63.623047" xlink:href="#DejaVuSans-53"/>
       <use x="127.246094" xlink:href="#DejaVuSans-46"/>
       <use x="159.033203" xlink:href="#DejaVuSans-55"/>
       <use x="222.65625" xlink:href="#DejaVuSans-53"/>
      </g>
     </g>
    </g>
    <g id="xtick_2">
     <g id="line2d_3">
      <path clip-path="url(#pd2b53ed500)" d="M 130.232307 307.584 
L 130.232307 41.472 
" style="fill:none;stroke:#b0b0b0;stroke-linecap:square;stroke-width:0.8;"/>
     </g>
     <g id="line2d_4">
      <g>
       <use style="stroke:#000000;stroke-width:0.8;" x="130.232307" xlink:href="#m35096fefcf" y="307.584"/>
      </g>
     </g>
     <g id="text_2">
      <!-- 86.00 -->
      <defs>
       <path d="M 33.015625 40.375 
Q 26.375 40.375 22.484375 35.828125 
Q 18.609375 31.296875 18.609375 23.390625 
Q 18.609375 15.53125 22.484375 10.953125 
Q 26.375 6.390625 33.015625 6.390625 
Q 39.65625 6.390625 43.53125 10.953125 
Q 47.40625 15.53125 47.40625 23.390625 
Q 47.40625 31.296875 43.53125 35.828125 
Q 39.65625 40.375 33.015625 40.375 
z
M 52.59375 71.296875 
L 52.59375 62.3125 
Q 48.875 64.0625 45.09375 64.984375 
Q 41.3125 65.921875 37.59375 65.921875 
Q 27.828125 65.921875 22.671875 59.328125 
Q 17.53125 52.734375 16.796875 39.40625 
Q 19.671875 43.65625 24.015625 45.921875 
Q 28.375 48.1875 33.59375 48.1875 
Q 44.578125 48.1875 50.953125 41.515625 
Q 57.328125 34.859375 57.328125 23.390625 
Q 57.328125 12.15625 50.6875 5.359375 
Q 44.046875 -1.421875 33.015625 -1.421875 
Q 20.359375 -1.421875 13.671875 8.265625 
Q 6.984375 17.96875 6.984375 36.375 
Q 6.984375 53.65625 15.1875 63.9375 
Q 23.390625 74.21875 37.203125 74.21875 
Q 40.921875 74.21875 44.703125 73.484375 
Q 48.484375 72.75 52.59375 71.296875 
z
" id="DejaVuSans-54"/>
       <path d="M 31.78125 66.40625 
Q 24.171875 66.40625 20.328125 58.90625 
Q 16.5 51.421875 16.5 36.375 
Q 16.5 21.390625 20.328125 13.890625 
Q 24.171875 6.390625 31.78125 6.390625 
Q 39.453125 6.390625 43.28125 13.890625 
Q 47.125 21.390625 47.125 36.375 
Q 47.125 51.421875 43.28125 58.90625 
Q 39.453125 66.40625 31.78125 66.40625 
z
M 31.78125 74.21875 
Q 44.046875 74.21875 50.515625 64.515625 
Q 56.984375 54.828125 56.984375 36.375 
Q 56.984375 17.96875 50.515625 8.265625 
Q 44.046875 -1.421875 31.78125 -1.421875 
Q 19.53125 -1.421875 13.0625 8.265625 
Q 6.59375 17.96875 6.59375 36.375 
Q 6.59375 54.828125 13.0625 64.515625 
Q 19.53125 74.21875 31.78125 74.21875 
z
" id="DejaVuSans-48"/>
      </defs>
      <g transform="translate(115.918245 322.182437)scale(0.1 -0.1)">
       <use xlink:href="#DejaVuSans-56"/>
       <use x="63.623047" xlink:href="#DejaVuSans-54"/>
       <use x="127.246094" xlink:href="#DejaVuSans-46"/>
       <use x="159.033203" xlink:href="#DejaVuSans-48"/>
       <use x="222.65625" xlink:href="#DejaVuSans-48"/>
      </g>
     </g>
    </g>
    <g id="xtick_3">
     <g id="line2d_5">
      <path clip-path="url(#pd2b53ed500)" d="M 174.852228 307.584 
L 174.852228 41.472 
" style="fill:none;stroke:#b0b0b0;stroke-linecap:square;stroke-width:0.8;"/>
     </g>
     <g id="line2d_6">
      <g>
       <use style="stroke:#000000;stroke-width:0.8;" x="174.852228" xlink:href="#m35096fefcf" y="307.584"/>
      </g>
     </g>
     <g id="text_3">
      <!-- 86.25 -->
      <defs>
       <path d="M 19.1875 8.296875 
L 53.609375 8.296875 
L 53.609375 0 
L 7.328125 0 
L 7.328125 8.296875 
Q 12.9375 14.109375 22.625 23.890625 
Q 32.328125 33.6875 34.8125 36.53125 
Q 39.546875 41.84375 41.421875 45.53125 
Q 43.3125 49.21875 43.3125 52.78125 
Q 43.3125 58.59375 39.234375 62.25 
Q 35.15625 65.921875 28.609375 65.921875 
Q 23.96875 65.921875 18.8125 64.3125 
Q 13.671875 62.703125 7.8125 59.421875 
L 7.8125 69.390625 
Q 13.765625 71.78125 18.9375 73 
Q 24.125 74.21875 28.421875 74.21875 
Q 39.75 74.21875 46.484375 68.546875 
Q 53.21875 62.890625 53.21875 53.421875 
Q 53.21875 48.921875 51.53125 44.890625 
Q 49.859375 40.875 45.40625 35.40625 
Q 44.1875 33.984375 37.640625 27.21875 
Q 31.109375 20.453125 19.1875 8.296875 
z
" id="DejaVuSans-50"/>
      </defs>
      <g transform="translate(160.538166 322.182437)scale(0.1 -0.1)">
       <use xlink:href="#DejaVuSans-56"/>
       <use x="63.623047" xlink:href="#DejaVuSans-54"/>
       <use x="127.246094" xlink:href="#DejaVuSans-46"/>
       <use x="159.033203" xlink:href="#DejaVuSans-50"/>
       <use x="222.65625" xlink:href="#DejaVuSans-53"/>
      </g>
     </g>
    </g>
    <g id="xtick_4">
     <g id="line2d_7">
      <path clip-path="url(#pd2b53ed500)" d="M 219.47215 307.584 
L 219.47215 41.472 
" style="fill:none;stroke:#b0b0b0;stroke-linecap:square;stroke-width:0.8;"/>
     </g>
     <g id="line2d_8">
      <g>
       <use style="stroke:#000000;stroke-width:0.8;" x="219.47215" xlink:href="#m35096fefcf" y="307.584"/>
      </g>
     </g>
     <g id="text_4">
      <!-- 86.50 -->
      <g transform="translate(205.158087 322.182437)scale(0.1 -0.1)">
       <use xlink:href="#DejaVuSans-56"/>
       <use x="63.623047" xlink:href="#DejaVuSans-54"/>
       <use x="127.246094" xlink:href="#DejaVuSans-46"/>
       <use x="159.033203" xlink:href="#DejaVuSans-53"/>
       <use x="222.65625" xlink:href="#DejaVuSans-48"/>
      </g>
     </g>
    </g>
    <g id="xtick_5">
     <g id="line2d_9">
      <path clip-path="url(#pd2b53ed500)" d="M 264.092071 307.584 
L 264.092071 41.472 
" style="fill:none;stroke:#b0b0b0;stroke-linecap:square;stroke-width:0.8;"/>
     </g>
     <g id="line2d_10">
      <g>
       <use style="stroke:#000000;stroke-width:0.8;" x="264.092071" xlink:href="#m35096fefcf" y="307.584"/>
      </g>
     </g>
     <g id="text_5">
      <!-- 86.75 -->
      <g transform="translate(249.778008 322.182437)scale(0.1 -0.1)">
       <use xlink:href="#DejaVuSans-56"/>
       <use x="63.623047" xlink:href="#DejaVuSans-54"/>
       <use x="127.246094" xlink:href="#DejaVuSans-46"/>
       <use x="159.033203" xlink:href="#DejaVuSans-55"/>
       <use x="222.65625" xlink:href="#DejaVuSans-53"/>
      </g>
     </g>
    </g>
    <g id="xtick_6">
     <g id="line2d_11">
      <path clip-path="url(#pd2b53ed500)" d="M 308.711992 307.584 
L 308.711992 41.472 
" style="fill:none;stroke:#b0b0b0;stroke-linecap:square;stroke-width:0.8;"/>
     </g>
     <g id="line2d_12">
      <g>
       <use style="stroke:#000000;stroke-width:0.8;" x="308.711992" xlink:href="#m35096fefcf" y="307.584"/>
      </g>
     </g>
     <g id="text_6">
      <!-- 87.00 -->
      <g transform="translate(294.397929 322.182437)scale(0.1 -0.1)">
       <use xlink:href="#DejaVuSans-56"/>
       <use x="63.623047" xlink:href="#DejaVuSans-55"/>
       <use x="127.246094" xlink:href="#DejaVuSans-46"/>
       <use x="159.033203" xlink:href="#DejaVuSans-48"/>
       <use x="222.65625" xlink:href="#DejaVuSans-48"/>
      </g>
     </g>
    </g>
    <g id="xtick_7">
     <g id="line2d_13">
      <path clip-path="url(#pd2b53ed500)" d="M 353.331913 307.584 
L 353.331913 41.472 
" style="fill:none;stroke:#b0b0b0;stroke-linecap:square;stroke-width:0.8;"/>
     </g>
     <g id="line2d_14">
      <g>
       <use style="stroke:#000000;stroke-width:0.8;" x="353.331913" xlink:href="#m35096fefcf" y="307.584"/>
      </g>
     </g>
     <g id="text_7">
      <!-- 87.25 -->
      <g transform="translate(339.01785 322.182437)scale(0.1 -0.1)">
       <use xlink:href="#DejaVuSans-56"/>
       <use x="63.623047" xlink:href="#DejaVuSans-55"/>
       <use x="127.246094" xlink:href="#DejaVuSans-46"/>
       <use x="159.033203" xlink:href="#DejaVuSans-50"/>
       <use x="222.65625" xlink:href="#DejaVuSans-53"/>
      </g>
     </g>
    </g>
    <g id="xtick_8">
     <g id="line2d_15">
      <path clip-path="url(#pd2b53ed500)" d="M 397.951834 307.584 
L 397.951834 41.472 
" style="fill:none;stroke:#b0b0b0;stroke-linecap:square;stroke-width:0.8;"/>
     </g>
     <g id="line2d_16">
      <g>
       <use style="stroke:#000000;stroke-width:0.8;" x="397.951834" xlink:href="#m35096fefcf" y="307.584"/>
      </g>
     </g>
     <g id="text_8">
      <!-- 87.50 -->
      <g transform="translate(383.637771 322.182437)scale(0.1 -0.1)">
       <use xlink:href="#DejaVuSans-56"/>
       <use x="63.623047" xlink:href="#DejaVuSans-55"/>
       <use x="127.246094" xlink:href="#DejaVuSans-46"/>
       <use x="159.033203" xlink:href="#DejaVuSans-53"/>
       <use x="222.65625" xlink:href="#DejaVuSans-48"/>
      </g>
     </g>
    </g>
    <g id="text_9">
     <!-- Time -->
     <defs>
      <path d="M -0.296875 72.90625 
L 61.375 72.90625 
L 61.375 64.59375 
L 35.5 64.59375 
L 35.5 0 
L 25.59375 0 
L 25.59375 64.59375 
L -0.296875 64.59375 
z
" id="DejaVuSans-84"/>
      <path d="M 9.421875 54.6875 
L 18.40625 54.6875 
L 18.40625 0 
L 9.421875 0 
z
M 9.421875 75.984375 
L 18.40625 75.984375 
L 18.40625 64.59375 
L 9.421875 64.59375 
z
" id="DejaVuSans-105"/>
      <path d="M 52 44.1875 
Q 55.375 50.25 60.0625 53.125 
Q 64.75 56 71.09375 56 
Q 79.640625 56 84.28125 50.015625 
Q 88.921875 44.046875 88.921875 33.015625 
L 88.921875 0 
L 79.890625 0 
L 79.890625 32.71875 
Q 79.890625 40.578125 77.09375 44.375 
Q 74.3125 48.1875 68.609375 48.1875 
Q 61.625 48.1875 57.5625 43.546875 
Q 53.515625 38.921875 53.515625 30.90625 
L 53.515625 0 
L 44.484375 0 
L 44.484375 32.71875 
Q 44.484375 40.625 41.703125 44.40625 
Q 38.921875 48.1875 33.109375 48.1875 
Q 26.21875 48.1875 22.15625 43.53125 
Q 18.109375 38.875 18.109375 30.90625 
L 18.109375 0 
L 9.078125 0 
L 9.078125 54.6875 
L 18.109375 54.6875 
L 18.109375 46.1875 
Q 21.1875 51.21875 25.484375 53.609375 
Q 29.78125 56 35.6875 56 
Q 41.65625 56 45.828125 52.96875 
Q 50 49.953125 52 44.1875 
z
" id="DejaVuSans-109"/>
      <path d="M 56.203125 29.59375 
L 56.203125 25.203125 
L 14.890625 25.203125 
Q 15.484375 15.921875 20.484375 11.0625 
Q 25.484375 6.203125 34.421875 6.203125 
Q 39.59375 6.203125 44.453125 7.46875 
Q 49.3125 8.734375 54.109375 11.28125 
L 54.109375 2.78125 
Q 49.265625 0.734375 44.1875 -0.34375 
Q 39.109375 -1.421875 33.890625 -1.421875 
Q 20.796875 -1.421875 13.15625 6.1875 
Q 5.515625 13.8125 5.515625 26.8125 
Q 5.515625 40.234375 12.765625 48.109375 
Q 20.015625 56 32.328125 56 
Q 43.359375 56 49.78125 48.890625 
Q 56.203125 41.796875 56.203125 29.59375 
z
M 47.21875 32.234375 
Q 47.125 39.59375 43.09375 43.984375 
Q 39.0625 48.390625 32.421875 48.390625 
Q 24.90625 48.390625 20.390625 44.140625 
Q 15.875 39.890625 15.1875 32.171875 
z
" id="DejaVuSans-101"/>
     </defs>
     <g transform="translate(223.7725 335.860562)scale(0.1 -0.1)">
      <use xlink:href="#DejaVuSans-84"/>
      <use x="61.037109" xlink:href="#DejaVuSans-105"/>
      <use x="88.820312" xlink:href="#DejaVuSans-109"/>
      <use x="186.232422" xlink:href="#DejaVuSans-101"/>
     </g>
    </g>
   </g>
   <g id="matplotlib.axis_2">
    <g id="ytick_1">
     <g id="line2d_17">
      <path clip-path="url(#pd2b53ed500)" d="M 57.6 281.059594 
L 414.72 281.059594 
" style="fill:none;stroke:#b0b0b0;stroke-linecap:square;stroke-width:0.8;"/>
     </g>
     <g id="line2d_18">
      <defs>
       <path d="M 0 0 
L -3.5 0 
" id="m9133e2fe54" style="stroke:#000000;stroke-width:0.8;"/>
      </defs>
      <g>
       <use style="stroke:#000000;stroke-width:0.8;" x="57.6" xlink:href="#m9133e2fe54" y="281.059594"/>
      </g>
     </g>
     <g id="text_10">
      <!-- −100 -->
      <defs>
       <path d="M 10.59375 35.5 
L 73.1875 35.5 
L 73.1875 27.203125 
L 10.59375 27.203125 
z
" id="DejaVuSans-8722"/>
       <path d="M 12.40625 8.296875 
L 28.515625 8.296875 
L 28.515625 63.921875 
L 10.984375 60.40625 
L 10.984375 69.390625 
L 28.421875 72.90625 
L 38.28125 72.90625 
L 38.28125 8.296875 
L 54.390625 8.296875 
L 54.390625 0 
L 12.40625 0 
z
" id="DejaVuSans-49"/>
      </defs>
      <g transform="translate(23.132812 284.858813)scale(0.1 -0.1)">
       <use xlink:href="#DejaVuSans-8722"/>
       <use x="83.789062" xlink:href="#DejaVuSans-49"/>
       <use x="147.412109" xlink:href="#DejaVuSans-48"/>
       <use x="211.035156" xlink:href="#DejaVuSans-48"/>
      </g>
     </g>
    </g>
    <g id="ytick_2">
     <g id="line2d_19">
      <path clip-path="url(#pd2b53ed500)" d="M 57.6 222.851768 
L 414.72 222.851768 
" style="fill:none;stroke:#b0b0b0;stroke-linecap:square;stroke-width:0.8;"/>
     </g>
     <g id="line2d_20">
      <g>
       <use style="stroke:#000000;stroke-width:0.8;" x="57.6" xlink:href="#m9133e2fe54" y="222.851768"/>
      </g>
     </g>
     <g id="text_11">
      <!-- −50 -->
      <g transform="translate(29.495313 226.650987)scale(0.1 -0.1)">
       <use xlink:href="#DejaVuSans-8722"/>
       <use x="83.789062" xlink:href="#DejaVuSans-53"/>
       <use x="147.412109" xlink:href="#DejaVuSans-48"/>
      </g>
     </g>
    </g>
    <g id="ytick_3">
     <g id="line2d_21">
      <path clip-path="url(#pd2b53ed500)" d="M 57.6 164.643942 
L 414.72 164.643942 
" style="fill:none;stroke:#b0b0b0;stroke-linecap:square;stroke-width:0.8;"/>
     </g>
     <g id="line2d_22">
      <g>
       <use style="stroke:#000000;stroke-width:0.8;" x="57.6" xlink:href="#m9133e2fe54" y="164.643942"/>
      </g>
     </g>
     <g id="text_12">
      <!-- 0 -->
      <g transform="translate(44.2375 168.443161)scale(0.1 -0.1)">
       <use xlink:href="#DejaVuSans-48"/>
      </g>
     </g>
    </g>
    <g id="ytick_4">
     <g id="line2d_23">
      <path clip-path="url(#pd2b53ed500)" d="M 57.6 106.436116 
L 414.72 106.436116 
" style="fill:none;stroke:#b0b0b0;stroke-linecap:square;stroke-width:0.8;"/>
     </g>
     <g id="line2d_24">
      <g>
       <use style="stroke:#000000;stroke-width:0.8;" x="57.6" xlink:href="#m9133e2fe54" y="106.436116"/>
      </g>
     </g>
     <g id="text_13">
      <!-- 50 -->
      <g transform="translate(37.875 110.235335)scale(0.1 -0.1)">
       <use xlink:href="#DejaVuSans-53"/>
       <use x="63.623047" xlink:href="#DejaVuSans-48"/>
      </g>
     </g>
    </g>
    <g id="ytick_5">
     <g id="line2d_25">
      <path clip-path="url(#pd2b53ed500)" d="M 57.6 48.22829 
L 414.72 48.22829 
" style="fill:none;stroke:#b0b0b0;stroke-linecap:square;stroke-width:0.8;"/>
     </g>
     <g id="line2d_26">
      <g>
       <use style="stroke:#000000;stroke-width:0.8;" x="57.6" xlink:href="#m9133e2fe54" y="48.22829"/>
      </g>
     </g>
     <g id="text_14">
      <!-- 100 -->
      <g transform="translate(31.5125 52.027508)scale(0.1 -0.1)">
       <use xlink:href="#DejaVuSans-49"/>
       <use x="63.623047" xlink:href="#DejaVuSans-48"/>
       <use x="127.246094" xlink:href="#DejaVuSans-48"/>
      </g>
     </g>
    </g>
    <g id="text_15">
     <!-- Efforts (Nm) -->
     <defs>
      <path d="M 9.8125 72.90625 
L 55.90625 72.90625 
L 55.90625 64.59375 
L 19.671875 64.59375 
L 19.671875 43.015625 
L 54.390625 43.015625 
L 54.390625 34.71875 
L 19.671875 34.71875 
L 19.671875 8.296875 
L 56.78125 8.296875 
L 56.78125 0 
L 9.8125 0 
z
" id="DejaVuSans-69"/>
      <path d="M 37.109375 75.984375 
L 37.109375 68.5 
L 28.515625 68.5 
Q 23.6875 68.5 21.796875 66.546875 
Q 19.921875 64.59375 19.921875 59.515625 
L 19.921875 54.6875 
L 34.71875 54.6875 
L 34.71875 47.703125 
L 19.921875 47.703125 
L 19.921875 0 
L 10.890625 0 
L 10.890625 47.703125 
L 2.296875 47.703125 
L 2.296875 54.6875 
L 10.890625 54.6875 
L 10.890625 58.5 
Q 10.890625 67.625 15.140625 71.796875 
Q 19.390625 75.984375 28.609375 75.984375 
z
" id="DejaVuSans-102"/>
      <path d="M 30.609375 48.390625 
Q 23.390625 48.390625 19.1875 42.75 
Q 14.984375 37.109375 14.984375 27.296875 
Q 14.984375 17.484375 19.15625 11.84375 
Q 23.34375 6.203125 30.609375 6.203125 
Q 37.796875 6.203125 41.984375 11.859375 
Q 46.1875 17.53125 46.1875 27.296875 
Q 46.1875 37.015625 41.984375 42.703125 
Q 37.796875 48.390625 30.609375 48.390625 
z
M 30.609375 56 
Q 42.328125 56 49.015625 48.375 
Q 55.71875 40.765625 55.71875 27.296875 
Q 55.71875 13.875 49.015625 6.21875 
Q 42.328125 -1.421875 30.609375 -1.421875 
Q 18.84375 -1.421875 12.171875 6.21875 
Q 5.515625 13.875 5.515625 27.296875 
Q 5.515625 40.765625 12.171875 48.375 
Q 18.84375 56 30.609375 56 
z
" id="DejaVuSans-111"/>
      <path d="M 41.109375 46.296875 
Q 39.59375 47.171875 37.8125 47.578125 
Q 36.03125 48 33.890625 48 
Q 26.265625 48 22.1875 43.046875 
Q 18.109375 38.09375 18.109375 28.8125 
L 18.109375 0 
L 9.078125 0 
L 9.078125 54.6875 
L 18.109375 54.6875 
L 18.109375 46.1875 
Q 20.953125 51.171875 25.484375 53.578125 
Q 30.03125 56 36.53125 56 
Q 37.453125 56 38.578125 55.875 
Q 39.703125 55.765625 41.0625 55.515625 
z
" id="DejaVuSans-114"/>
      <path d="M 18.3125 70.21875 
L 18.3125 54.6875 
L 36.8125 54.6875 
L 36.8125 47.703125 
L 18.3125 47.703125 
L 18.3125 18.015625 
Q 18.3125 11.328125 20.140625 9.421875 
Q 21.96875 7.515625 27.59375 7.515625 
L 36.8125 7.515625 
L 36.8125 0 
L 27.59375 0 
Q 17.1875 0 13.234375 3.875 
Q 9.28125 7.765625 9.28125 18.015625 
L 9.28125 47.703125 
L 2.6875 47.703125 
L 2.6875 54.6875 
L 9.28125 54.6875 
L 9.28125 70.21875 
z
" id="DejaVuSans-116"/>
      <path d="M 44.28125 53.078125 
L 44.28125 44.578125 
Q 40.484375 46.53125 36.375 47.5 
Q 32.28125 48.484375 27.875 48.484375 
Q 21.1875 48.484375 17.84375 46.4375 
Q 14.5 44.390625 14.5 40.28125 
Q 14.5 37.15625 16.890625 35.375 
Q 19.28125 33.59375 26.515625 31.984375 
L 29.59375 31.296875 
Q 39.15625 29.25 43.1875 25.515625 
Q 47.21875 21.78125 47.21875 15.09375 
Q 47.21875 7.46875 41.1875 3.015625 
Q 35.15625 -1.421875 24.609375 -1.421875 
Q 20.21875 -1.421875 15.453125 -0.5625 
Q 10.6875 0.296875 5.421875 2 
L 5.421875 11.28125 
Q 10.40625 8.6875 15.234375 7.390625 
Q 20.0625 6.109375 24.8125 6.109375 
Q 31.15625 6.109375 34.5625 8.28125 
Q 37.984375 10.453125 37.984375 14.40625 
Q 37.984375 18.0625 35.515625 20.015625 
Q 33.0625 21.96875 24.703125 23.78125 
L 21.578125 24.515625 
Q 13.234375 26.265625 9.515625 29.90625 
Q 5.8125 33.546875 5.8125 39.890625 
Q 5.8125 47.609375 11.28125 51.796875 
Q 16.75 56 26.8125 56 
Q 31.78125 56 36.171875 55.265625 
Q 40.578125 54.546875 44.28125 53.078125 
z
" id="DejaVuSans-115"/>
      <path id="DejaVuSans-32"/>
      <path d="M 31 75.875 
Q 24.46875 64.65625 21.28125 53.65625 
Q 18.109375 42.671875 18.109375 31.390625 
Q 18.109375 20.125 21.3125 9.0625 
Q 24.515625 -2 31 -13.1875 
L 23.1875 -13.1875 
Q 15.875 -1.703125 12.234375 9.375 
Q 8.59375 20.453125 8.59375 31.390625 
Q 8.59375 42.28125 12.203125 53.3125 
Q 15.828125 64.359375 23.1875 75.875 
z
" id="DejaVuSans-40"/>
      <path d="M 9.8125 72.90625 
L 23.09375 72.90625 
L 55.421875 11.921875 
L 55.421875 72.90625 
L 64.984375 72.90625 
L 64.984375 0 
L 51.703125 0 
L 19.390625 60.984375 
L 19.390625 0 
L 9.8125 0 
z
" id="DejaVuSans-78"/>
      <path d="M 8.015625 75.875 
L 15.828125 75.875 
Q 23.140625 64.359375 26.78125 53.3125 
Q 30.421875 42.28125 30.421875 31.390625 
Q 30.421875 20.453125 26.78125 9.375 
Q 23.140625 -1.703125 15.828125 -13.1875 
L 8.015625 -13.1875 
Q 14.5 -2 17.703125 9.0625 
Q 20.90625 20.125 20.90625 31.390625 
Q 20.90625 42.671875 17.703125 53.65625 
Q 14.5 64.65625 8.015625 75.875 
z
" id="DejaVuSans-41"/>
     </defs>
     <g transform="translate(17.053125 204.988937)rotate(-90)scale(0.1 -0.1)">
      <use xlink:href="#DejaVuSans-69"/>
      <use x="63.183594" xlink:href="#DejaVuSans-102"/>
      <use x="98.388672" xlink:href="#DejaVuSans-102"/>
      <use x="133.59375" xlink:href="#DejaVuSans-111"/>
      <use x="194.775391" xlink:href="#DejaVuSans-114"/>
      <use x="235.888672" xlink:href="#DejaVuSans-116"/>
      <use x="275.097656" xlink:href="#DejaVuSans-115"/>
      <use x="327.197266" xlink:href="#DejaVuSans-32"/>
      <use x="358.984375" xlink:href="#DejaVuSans-40"/>
      <use x="397.998047" xlink:href="#DejaVuSans-78"/>
      <use x="472.802734" xlink:href="#DejaVuSans-109"/>
      <use x="570.214844" xlink:href="#DejaVuSans-41"/>
     </g>
    </g>
   </g>
   <g id="line2d_27">
    <path clip-path="url(#pd2b53ed500)" d="M 73.832727 158.814154 
L 74.368166 158.376724 
L 74.903605 158.240038 
L 75.617524 158.290849 
L 76.688402 158.612696 
L 78.294719 159.349552 
L 80.971915 160.791568 
L 81.150394 126.59667 
L 82.042793 136.290354 
L 82.935191 143.098936 
L 83.82759 148.116236 
L 85.433907 155.200762 
L 86.504785 159.161329 
L 87.575663 162.220097 
L 88.646541 164.531395 
L 89.538939 165.99635 
L 89.717419 200.650426 
L 89.895899 200.293897 
L 90.252858 198.764764 
L 90.966777 194.292114 
L 92.573094 184.143779 
L 93.643972 178.797906 
L 94.71485 174.568342 
L 95.785728 171.267524 
L 96.856607 168.723089 
L 97.927485 166.775824 
L 98.998363 165.326097 
L 100.069241 164.260762 
L 101.140119 163.49723 
L 101.318599 149.707006 
L 101.854038 152.955224 
L 102.210997 154.178719 
L 102.567956 154.857591 
L 102.924916 155.169868 
L 103.281875 155.323729 
L 103.817314 155.863095 
L 105.066672 157.673221 
L 106.672989 159.900139 
L 107.922347 161.288675 
L 109.171705 162.377938 
L 110.242583 163.104329 
L 110.421063 128.316172 
L 110.599542 128.474288 
L 110.956502 129.444832 
L 111.491941 132.119621 
L 112.562819 139.331044 
L 114.169136 150.048892 
L 115.240014 155.877561 
L 116.310892 160.515617 
L 117.38177 164.084076 
L 118.274169 166.355034 
L 118.809608 167.45503 
L 118.988087 236.062733 
L 119.166567 236.385726 
L 119.345047 236.373827 
L 119.523526 235.516143 
L 120.058965 229.652336 
L 122.736161 197.80586 
L 123.985519 186.143701 
L 125.056397 178.095359 
L 126.127275 171.677216 
L 126.841193 168.200875 
L 127.019673 125.615869 
L 127.198153 125.477209 
L 127.376633 125.833113 
L 129.339909 135.296401 
L 131.481665 146.151082 
L 132.731023 151.330771 
L 133.801901 154.970493 
L 134.872779 157.924491 
L 135.943657 160.281777 
L 137.014535 162.135469 
L 138.085414 163.569074 
L 139.156292 164.66198 
L 140.405649 165.590706 
L 141.655007 166.226339 
L 143.082845 166.681845 
L 144.689162 166.942048 
L 146.652438 167.012555 
L 149.151154 166.861947 
L 153.256187 166.351895 
L 161.466252 165.308261 
L 166.642163 164.902985 
L 172.353513 164.691973 
L 180.206619 164.649288 
L 211.262084 164.659642 
L 254.097208 164.654423 
L 398.487273 164.647964 
L 398.487273 164.647964 
" style="fill:none;stroke:#1f77b4;stroke-linecap:square;stroke-width:1.5;"/>
   </g>
   <g id="line2d_28">
    <path clip-path="url(#pd2b53ed500)" d="M 73.832727 278.393526 
L 74.903605 255.655486 
L 75.974483 237.393564 
L 77.045362 222.948909 
L 78.11624 211.671544 
L 79.187118 202.984256 
L 80.079516 197.365002 
L 80.971915 192.957788 
L 81.150394 98.259329 
L 84.006069 97.916889 
L 84.184549 100.046162 
L 85.255427 129.259339 
L 86.147825 148.266954 
L 87.218704 166.050144 
L 88.289582 179.533084 
L 89.18198 188.174454 
L 89.538939 191.080087 
L 89.717419 234.284695 
L 91.680696 225.277522 
L 92.930053 221.153253 
L 94.357891 217.253422 
L 95.785728 213.984829 
L 97.392046 210.899469 
L 98.998363 208.361666 
L 100.60468 206.268282 
L 101.140119 205.659734 
L 101.318599 99.986309 
L 102.924916 100.211944 
L 104.174274 137.166568 
L 105.245152 161.17036 
L 106.13755 176.727808 
L 107.029949 189.019038 
L 107.922347 198.619244 
L 108.814745 206.006548 
L 109.707144 211.574382 
L 110.242583 214.188052 
L 110.421063 229.402889 
L 110.778022 229.761378 
L 111.134981 229.846377 
L 111.67042 229.647988 
L 112.205859 229.174859 
L 113.098258 228.004284 
L 114.526095 225.642808 
L 118.809608 218.146065 
L 118.988087 295.488 
L 119.523526 283.098432 
L 120.415925 264.512248 
L 121.486803 246.945806 
L 122.557681 233.233726 
L 123.628559 222.515728 
L 124.699437 214.200005 
L 125.591836 208.781338 
L 126.484234 204.511089 
L 126.841193 203.083547 
L 127.019673 104.592279 
L 127.912072 104.758938 
L 129.161429 135.612731 
L 130.232307 156.115882 
L 131.303186 172.024989 
L 132.374064 184.20446 
L 133.266462 192.040276 
L 134.158861 198.173862 
L 135.051259 202.904283 
L 135.943657 206.488499 
L 136.836056 209.152559 
L 137.728454 211.072352 
L 138.620853 212.396804 
L 139.334771 213.111811 
L 140.04869 213.576618 
L 140.941089 213.873518 
L 141.833487 213.92064 
L 142.904365 213.730236 
L 144.153723 213.267368 
L 145.93852 212.332749 
L 149.686593 210.014496 
L 152.899227 208.14515 
L 155.754902 206.745321 
L 158.432098 205.67979 
L 161.287773 204.785688 
L 164.321927 204.065908 
L 167.891521 203.460476 
L 171.996554 202.999487 
L 177.172464 202.655387 
L 184.133172 202.429475 
L 195.555872 202.311011 
L 226.075898 202.296728 
L 398.487273 202.378119 
L 398.487273 202.378119 
" style="fill:none;stroke:#ff7f0e;stroke-linecap:square;stroke-width:1.5;"/>
   </g>
   <g id="line2d_29">
    <path clip-path="url(#pd2b53ed500)" d="M 73.832727 157.021383 
L 74.368166 156.937934 
L 75.082085 157.093819 
L 76.331443 157.659197 
L 79.187118 159.30236 
L 80.971915 160.326077 
L 81.150394 129.637525 
L 82.221272 139.67138 
L 83.113671 145.70726 
L 84.006069 150.271255 
L 85.612386 156.682688 
L 86.683265 160.006946 
L 87.754143 162.527716 
L 88.825021 164.395023 
L 89.538939 165.343078 
L 89.717419 198.692662 
L 90.074379 196.918483 
L 93.287013 177.807165 
L 94.357891 173.549988 
L 95.428769 170.235915 
L 96.499647 167.687102 
L 97.570525 165.741052 
L 98.641403 164.295235 
L 99.712281 163.236141 
L 100.78316 162.478203 
L 101.140119 162.281525 
L 101.318599 153.068278 
L 101.854038 155.097853 
L 102.389477 156.136101 
L 102.924916 156.552111 
L 103.460355 156.78733 
L 104.352753 157.560643 
L 106.672989 159.714638 
L 108.100827 160.704886 
L 109.528664 161.435892 
L 110.242583 161.719324 
L 110.421063 125.639594 
L 110.956502 128.538164 
L 112.205859 137.421275 
L 113.633697 147.064571 
L 114.704575 152.936482 
L 115.775453 157.582493 
L 116.846331 161.145886 
L 117.73873 163.416888 
L 118.631128 165.159061 
L 118.809608 165.452313 
L 118.988087 227.999891 
L 119.345047 226.347263 
L 119.702006 222.924559 
L 121.665283 200.137468 
L 122.91464 188.380483 
L 123.985519 180.215169 
L 125.056397 173.644638 
L 126.127275 168.45855 
L 126.841193 165.66667 
L 127.019673 131.151713 
L 127.198153 131.275011 
L 127.555112 132.53922 
L 130.232307 144.022273 
L 131.660145 149.372557 
L 132.909503 153.186562 
L 134.158861 156.216788 
L 135.229739 158.26615 
L 136.300617 159.888514 
L 137.371495 161.156373 
L 138.620853 162.270985 
L 139.87021 163.075434 
L 141.298048 163.704394 
L 142.904365 164.138305 
L 144.689162 164.382915 
L 147.009398 164.45997 
L 150.222032 164.319614 
L 157.896659 163.669286 
L 164.500407 163.240998 
L 171.104155 163.044802 
L 180.206619 163.024828 
L 216.616475 163.12104 
L 398.487273 163.386099 
L 398.487273 163.386099 
" style="fill:none;stroke:#2ca02c;stroke-linecap:square;stroke-width:1.5;"/>
   </g>
   <g id="line2d_30">
    <path clip-path="url(#pd2b53ed500)" d="M 73.832727 159.125534 
L 75.260565 158.627572 
L 76.331443 157.981328 
L 77.402321 157.062018 
L 78.830158 155.50072 
L 80.971915 152.796029 
L 81.150394 216.489731 
L 82.578232 187.317384 
L 83.47063 174.682149 
L 84.184549 167.330893 
L 85.076947 160.454332 
L 85.969346 155.107528 
L 86.861744 150.926233 
L 87.754143 147.670472 
L 88.646541 145.170331 
L 89.538939 143.284988 
L 89.717419 95.082384 
L 91.323736 112.712981 
L 92.394614 121.367325 
L 93.465493 128.171367 
L 94.536371 133.521942 
L 95.607249 137.716492 
L 96.678127 140.989695 
L 97.749005 143.548837 
L 98.819883 145.51377 
L 99.890761 147.026836 
L 100.961639 148.183576 
L 101.140119 148.346911 
L 101.318599 205.887538 
L 102.567956 186.512707 
L 103.281875 178.828642 
L 104.352753 169.88527 
L 105.423631 163.004755 
L 106.494509 157.730164 
L 107.386908 154.307208 
L 108.279306 151.619036 
L 109.171705 149.540427 
L 110.064103 147.962814 
L 110.242583 147.70071 
L 110.421063 144.156346 
L 110.956502 143.511949 
L 111.491941 143.178864 
L 112.205859 143.054213 
L 113.098258 143.197283 
L 114.526095 143.729563 
L 118.809608 145.65063 
L 118.988087 53.568 
L 119.523526 53.580133 
L 119.702006 56.539648 
L 120.772884 84.450634 
L 121.665283 102.60655 
L 122.557681 117.056631 
L 123.450079 128.489932 
L 124.342478 137.464686 
L 125.234876 144.436839 
L 126.127275 149.780528 
L 126.841193 153.091798 
L 127.019673 245.215851 
L 127.376633 245.169805 
L 128.447511 221.290287 
L 129.518389 202.69926 
L 130.589267 188.130057 
L 131.660145 176.771684 
L 132.731023 167.9797 
L 133.801901 161.230829 
L 134.6943 156.875158 
L 135.586698 153.447267 
L 136.479096 150.788438 
L 137.371495 148.752498 
L 138.263893 147.226261 
L 139.156292 146.111039 
L 140.04869 145.327741 
L 140.941089 144.808563 
L 142.011967 144.458592 
L 143.082845 144.33321 
L 144.510682 144.412408 
L 146.295479 144.761446 
L 149.151154 145.585781 
L 155.040984 147.308637 
L 158.789057 148.138235 
L 162.71561 148.76854 
L 167.177602 149.251543 
L 172.710472 149.61253 
L 180.028139 149.84973 
L 191.272359 149.965614 
L 225.361979 149.980471 
L 398.487273 149.944404 
L 398.487273 149.944404 
" style="fill:none;stroke:#d62728;stroke-linecap:square;stroke-width:1.5;"/>
   </g>
   <g id="line2d_31">
    <path clip-path="url(#pd2b53ed500)" d="M 73.832727 165.866669 
L 76.331443 165.300956 
L 80.971915 164.430585 
L 81.150394 169.579155 
L 82.578232 167.077158 
L 83.47063 165.996118 
L 84.363029 165.247253 
L 85.612386 164.534196 
L 87.218704 163.909101 
L 89.0035 163.466777 
L 89.538939 163.373504 
L 89.717419 157.659989 
L 90.966777 159.483002 
L 92.037655 160.612988 
L 93.287013 161.611899 
L 94.71485 162.449357 
L 96.321167 163.104286 
L 98.105964 163.580001 
L 100.247721 163.914571 
L 101.140119 164.002441 
L 101.318599 167.548083 
L 103.281875 165.901238 
L 104.531233 165.275366 
L 106.13755 164.726535 
L 108.100827 164.295065 
L 110.242583 164.024473 
L 110.421063 167.311282 
L 111.491941 166.005761 
L 112.384339 165.277687 
L 113.455217 164.677534 
L 114.883055 164.162155 
L 116.667851 163.794107 
L 118.809608 163.584872 
L 118.988087 150.721894 
L 119.166567 150.81476 
L 120.058965 154.285752 
L 120.951364 156.926601 
L 121.843762 158.975861 
L 122.91464 160.844276 
L 123.985519 162.225824 
L 125.056397 163.240425 
L 126.127275 163.975288 
L 126.841193 164.342652 
L 127.019673 173.671692 
L 128.447511 170.551551 
L 129.518389 168.859649 
L 130.589267 167.561722 
L 131.838625 166.41327 
L 133.087982 165.561531 
L 134.51582 164.857202 
L 136.122137 164.319435 
L 138.085414 163.916781 
L 140.405649 163.674864 
L 143.618284 163.574785 
L 149.329634 163.656823 
L 166.285204 163.957363 
L 186.988847 164.010952 
L 398.487273 164.01614 
L 398.487273 164.01614 
" style="fill:none;stroke:#9467bd;stroke-linecap:square;stroke-width:1.5;"/>
   </g>
   <g id="line2d_32">
    <path clip-path="url(#pd2b53ed500)" d="M 73.832727 161.938868 
L 75.617524 162.60189 
L 77.402321 163.025535 
L 79.544077 163.293692 
L 80.971915 163.372565 
L 81.150394 170.863967 
L 82.756711 167.789971 
L 83.82759 166.289093 
L 84.898468 165.15464 
L 86.147825 164.174164 
L 87.397183 163.467508 
L 88.825021 162.904489 
L 89.538939 162.698805 
L 89.717419 158.642449 
L 91.680696 160.22727 
L 93.108533 161.019476 
L 94.71485 161.654497 
L 96.678127 162.176448 
L 98.998363 162.5574 
L 101.140119 162.764373 
L 101.318599 169.773504 
L 102.924916 167.044294 
L 103.995794 165.723731 
L 105.245152 164.553925 
L 106.494509 163.694632 
L 107.922347 163.000258 
L 109.528664 162.493751 
L 110.242583 162.340187 
L 110.421063 161.401382 
L 112.919778 161.638643 
L 118.809608 162.193982 
L 118.988087 154.06121 
L 120.594405 157.469628 
L 121.665283 159.133046 
L 122.736161 160.421765 
L 123.985519 161.555699 
L 125.234876 162.380199 
L 126.662714 163.034495 
L 126.841193 163.098694 
L 127.019673 171.933678 
L 128.98295 168.263224 
L 130.053828 166.797086 
L 131.303186 165.475515 
L 132.552543 164.49136 
L 133.801901 163.768857 
L 135.229739 163.189574 
L 136.836056 162.766957 
L 138.799332 162.4767 
L 141.476528 162.324856 
L 145.58156 162.350569 
L 169.676318 162.840813 
L 195.912831 162.892019 
L 398.487273 162.892303 
L 398.487273 162.892303 
" style="fill:none;stroke:#8c564b;stroke-linecap:square;stroke-width:1.5;"/>
   </g>
   <g id="line2d_33">
    <path clip-path="url(#pd2b53ed500)" d="M 73.832727 164.395579 
L 79.901037 164.617538 
L 80.971915 164.640205 
L 81.328874 164.785162 
L 84.898468 164.741112 
L 89.895899 164.726351 
L 101.140119 164.642053 
L 101.854038 164.684526 
L 109.528664 164.618776 
L 118.809608 164.61878 
L 118.988087 164.848392 
L 123.807039 164.648767 
L 126.841193 164.612332 
L 127.019673 164.431101 
L 130.767747 164.5644 
L 140.584129 164.644203 
L 196.44827 164.644008 
L 398.487273 164.643942 
L 398.487273 164.643942 
" style="fill:none;stroke:#e377c2;stroke-linecap:square;stroke-width:1.5;"/>
   </g>
   <g id="patch_3">
    <path d="M 57.6 307.584 
L 57.6 41.472 
" style="fill:none;stroke:#000000;stroke-linecap:square;stroke-linejoin:miter;stroke-width:0.8;"/>
   </g>
   <g id="patch_4">
    <path d="M 414.72 307.584 
L 414.72 41.472 
" style="fill:none;stroke:#000000;stroke-linecap:square;stroke-linejoin:miter;stroke-width:0.8;"/>
   </g>
   <g id="patch_5">
    <path d="M 57.6 307.584 
L 414.72 307.584 
" style="fill:none;stroke:#000000;stroke-linecap:square;stroke-linejoin:miter;stroke-width:0.8;"/>
   </g>
   <g id="patch_6">
    <path d="M 57.6 41.472 
L 414.72 41.472 
" style="fill:none;stroke:#000000;stroke-linecap:square;stroke-linejoin:miter;stroke-width:0.8;"/>
   </g>
   <g id="text_16">
    <!-- Joint Efforts -->
    <defs>
     <path d="M 9.8125 72.90625 
L 19.671875 72.90625 
L 19.671875 5.078125 
Q 19.671875 -8.109375 14.671875 -14.0625 
Q 9.671875 -20.015625 -1.421875 -20.015625 
L -5.171875 -20.015625 
L -5.171875 -11.71875 
L -2.09375 -11.71875 
Q 4.4375 -11.71875 7.125 -8.046875 
Q 9.8125 -4.390625 9.8125 5.078125 
z
" id="DejaVuSans-74"/>
     <path d="M 54.890625 33.015625 
L 54.890625 0 
L 45.90625 0 
L 45.90625 32.71875 
Q 45.90625 40.484375 42.875 44.328125 
Q 39.84375 48.1875 33.796875 48.1875 
Q 26.515625 48.1875 22.3125 43.546875 
Q 18.109375 38.921875 18.109375 30.90625 
L 18.109375 0 
L 9.078125 0 
L 9.078125 54.6875 
L 18.109375 54.6875 
L 18.109375 46.1875 
Q 21.34375 51.125 25.703125 53.5625 
Q 30.078125 56 35.796875 56 
Q 45.21875 56 50.046875 50.171875 
Q 54.890625 44.34375 54.890625 33.015625 
z
" id="DejaVuSans-110"/>
    </defs>
    <g transform="translate(201.359062 35.472)scale(0.12 -0.12)">
     <use xlink:href="#DejaVuSans-74"/>
     <use x="29.492188" xlink:href="#DejaVuSans-111"/>
     <use x="90.673828" xlink:href="#DejaVuSans-105"/>
     <use x="118.457031" xlink:href="#DejaVuSans-110"/>
     <use x="181.835938" xlink:href="#DejaVuSans-116"/>
     <use x="221.044922" xlink:href="#DejaVuSans-32"/>
     <use x="252.832031" xlink:href="#DejaVuSans-69"/>
     <use x="316.015625" xlink:href="#DejaVuSans-102"/>
     <use x="351.220703" xlink:href="#DejaVuSans-102"/>
     <use x="386.425781" xlink:href="#DejaVuSans-111"/>
     <use x="447.607422" xlink:href="#DejaVuSans-114"/>
     <use x="488.720703" xlink:href="#DejaVuSans-116"/>
     <use x="527.929688" xlink:href="#DejaVuSans-115"/>
    </g>
   </g>
   <g id="legend_1">
    <g id="patch_7">
     <path d="M 64.6 302.584 
L 169.2625 302.584 
Q 171.2625 302.584 171.2625 300.584 
L 171.2625 196.89025 
Q 171.2625 194.89025 169.2625 194.89025 
L 64.6 194.89025 
Q 62.6 194.89025 62.6 196.89025 
L 62.6 300.584 
Q 62.6 302.584 64.6 302.584 
z
" style="fill:#ffffff;opacity:0.8;stroke:#cccccc;stroke-linejoin:miter;"/>
    </g>
    <g id="line2d_34">
     <path d="M 66.6 202.988687 
L 86.6 202.988687 
" style="fill:none;stroke:#1f77b4;stroke-linecap:square;stroke-width:1.5;"/>
    </g>
    <g id="line2d_35"/>
    <g id="text_17">
     <!-- panda_motor1 -->
     <defs>
      <path d="M 18.109375 8.203125 
L 18.109375 -20.796875 
L 9.078125 -20.796875 
L 9.078125 54.6875 
L 18.109375 54.6875 
L 18.109375 46.390625 
Q 20.953125 51.265625 25.265625 53.625 
Q 29.59375 56 35.59375 56 
Q 45.5625 56 51.78125 48.09375 
Q 58.015625 40.1875 58.015625 27.296875 
Q 58.015625 14.40625 51.78125 6.484375 
Q 45.5625 -1.421875 35.59375 -1.421875 
Q 29.59375 -1.421875 25.265625 0.953125 
Q 20.953125 3.328125 18.109375 8.203125 
z
M 48.6875 27.296875 
Q 48.6875 37.203125 44.609375 42.84375 
Q 40.53125 48.484375 33.40625 48.484375 
Q 26.265625 48.484375 22.1875 42.84375 
Q 18.109375 37.203125 18.109375 27.296875 
Q 18.109375 17.390625 22.1875 11.75 
Q 26.265625 6.109375 33.40625 6.109375 
Q 40.53125 6.109375 44.609375 11.75 
Q 48.6875 17.390625 48.6875 27.296875 
z
" id="DejaVuSans-112"/>
      <path d="M 34.28125 27.484375 
Q 23.390625 27.484375 19.1875 25 
Q 14.984375 22.515625 14.984375 16.5 
Q 14.984375 11.71875 18.140625 8.90625 
Q 21.296875 6.109375 26.703125 6.109375 
Q 34.1875 6.109375 38.703125 11.40625 
Q 43.21875 16.703125 43.21875 25.484375 
L 43.21875 27.484375 
z
M 52.203125 31.203125 
L 52.203125 0 
L 43.21875 0 
L 43.21875 8.296875 
Q 40.140625 3.328125 35.546875 0.953125 
Q 30.953125 -1.421875 24.3125 -1.421875 
Q 15.921875 -1.421875 10.953125 3.296875 
Q 6 8.015625 6 15.921875 
Q 6 25.140625 12.171875 29.828125 
Q 18.359375 34.515625 30.609375 34.515625 
L 43.21875 34.515625 
L 43.21875 35.40625 
Q 43.21875 41.609375 39.140625 45 
Q 35.0625 48.390625 27.6875 48.390625 
Q 23 48.390625 18.546875 47.265625 
Q 14.109375 46.140625 10.015625 43.890625 
L 10.015625 52.203125 
Q 14.9375 54.109375 19.578125 55.046875 
Q 24.21875 56 28.609375 56 
Q 40.484375 56 46.34375 49.84375 
Q 52.203125 43.703125 52.203125 31.203125 
z
" id="DejaVuSans-97"/>
      <path d="M 45.40625 46.390625 
L 45.40625 75.984375 
L 54.390625 75.984375 
L 54.390625 0 
L 45.40625 0 
L 45.40625 8.203125 
Q 42.578125 3.328125 38.25 0.953125 
Q 33.9375 -1.421875 27.875 -1.421875 
Q 17.96875 -1.421875 11.734375 6.484375 
Q 5.515625 14.40625 5.515625 27.296875 
Q 5.515625 40.1875 11.734375 48.09375 
Q 17.96875 56 27.875 56 
Q 33.9375 56 38.25 53.625 
Q 42.578125 51.265625 45.40625 46.390625 
z
M 14.796875 27.296875 
Q 14.796875 17.390625 18.875 11.75 
Q 22.953125 6.109375 30.078125 6.109375 
Q 37.203125 6.109375 41.296875 11.75 
Q 45.40625 17.390625 45.40625 27.296875 
Q 45.40625 37.203125 41.296875 42.84375 
Q 37.203125 48.484375 30.078125 48.484375 
Q 22.953125 48.484375 18.875 42.84375 
Q 14.796875 37.203125 14.796875 27.296875 
z
" id="DejaVuSans-100"/>
      <path d="M 50.984375 -16.609375 
L 50.984375 -23.578125 
L -0.984375 -23.578125 
L -0.984375 -16.609375 
z
" id="DejaVuSans-95"/>
     </defs>
     <g transform="translate(94.6 206.488687)scale(0.1 -0.1)">
      <use xlink:href="#DejaVuSans-112"/>
      <use x="63.476562" xlink:href="#DejaVuSans-97"/>
      <use x="124.755859" xlink:href="#DejaVuSans-110"/>
      <use x="188.134766" xlink:href="#DejaVuSans-100"/>
      <use x="251.611328" xlink:href="#DejaVuSans-97"/>
      <use x="312.890625" xlink:href="#DejaVuSans-95"/>
      <use x="362.890625" xlink:href="#DejaVuSans-109"/>
      <use x="460.302734" xlink:href="#DejaVuSans-111"/>
      <use x="521.484375" xlink:href="#DejaVuSans-116"/>
      <use x="560.693359" xlink:href="#DejaVuSans-111"/>
      <use x="621.875" xlink:href="#DejaVuSans-114"/>
      <use x="662.988281" xlink:href="#DejaVuSans-49"/>
     </g>
    </g>
    <g id="line2d_36">
     <path d="M 66.6 217.944937 
L 86.6 217.944937 
" style="fill:none;stroke:#ff7f0e;stroke-linecap:square;stroke-width:1.5;"/>
    </g>
    <g id="line2d_37"/>
    <g id="text_18">
     <!-- panda_motor2 -->
     <g transform="translate(94.6 221.444937)scale(0.1 -0.1)">
      <use xlink:href="#DejaVuSans-112"/>
      <use x="63.476562" xlink:href="#DejaVuSans-97"/>
      <use x="124.755859" xlink:href="#DejaVuSans-110"/>
      <use x="188.134766" xlink:href="#DejaVuSans-100"/>
      <use x="251.611328" xlink:href="#DejaVuSans-97"/>
      <use x="312.890625" xlink:href="#DejaVuSans-95"/>
      <use x="362.890625" xlink:href="#DejaVuSans-109"/>
      <use x="460.302734" xlink:href="#DejaVuSans-111"/>
      <use x="521.484375" xlink:href="#DejaVuSans-116"/>
      <use x="560.693359" xlink:href="#DejaVuSans-111"/>
      <use x="621.875" xlink:href="#DejaVuSans-114"/>
      <use x="662.988281" xlink:href="#DejaVuSans-50"/>
     </g>
    </g>
    <g id="line2d_38">
     <path d="M 66.6 232.901187 
L 86.6 232.901187 
" style="fill:none;stroke:#2ca02c;stroke-linecap:square;stroke-width:1.5;"/>
    </g>
    <g id="line2d_39"/>
    <g id="text_19">
     <!-- panda_motor3 -->
     <defs>
      <path d="M 40.578125 39.3125 
Q 47.65625 37.796875 51.625 33 
Q 55.609375 28.21875 55.609375 21.1875 
Q 55.609375 10.40625 48.1875 4.484375 
Q 40.765625 -1.421875 27.09375 -1.421875 
Q 22.515625 -1.421875 17.65625 -0.515625 
Q 12.796875 0.390625 7.625 2.203125 
L 7.625 11.71875 
Q 11.71875 9.328125 16.59375 8.109375 
Q 21.484375 6.890625 26.8125 6.890625 
Q 36.078125 6.890625 40.9375 10.546875 
Q 45.796875 14.203125 45.796875 21.1875 
Q 45.796875 27.640625 41.28125 31.265625 
Q 36.765625 34.90625 28.71875 34.90625 
L 20.21875 34.90625 
L 20.21875 43.015625 
L 29.109375 43.015625 
Q 36.375 43.015625 40.234375 45.921875 
Q 44.09375 48.828125 44.09375 54.296875 
Q 44.09375 59.90625 40.109375 62.90625 
Q 36.140625 65.921875 28.71875 65.921875 
Q 24.65625 65.921875 20.015625 65.03125 
Q 15.375 64.15625 9.8125 62.3125 
L 9.8125 71.09375 
Q 15.4375 72.65625 20.34375 73.4375 
Q 25.25 74.21875 29.59375 74.21875 
Q 40.828125 74.21875 47.359375 69.109375 
Q 53.90625 64.015625 53.90625 55.328125 
Q 53.90625 49.265625 50.4375 45.09375 
Q 46.96875 40.921875 40.578125 39.3125 
z
" id="DejaVuSans-51"/>
     </defs>
     <g transform="translate(94.6 236.401187)scale(0.1 -0.1)">
      <use xlink:href="#DejaVuSans-112"/>
      <use x="63.476562" xlink:href="#DejaVuSans-97"/>
      <use x="124.755859" xlink:href="#DejaVuSans-110"/>
      <use x="188.134766" xlink:href="#DejaVuSans-100"/>
      <use x="251.611328" xlink:href="#DejaVuSans-97"/>
      <use x="312.890625" xlink:href="#DejaVuSans-95"/>
      <use x="362.890625" xlink:href="#DejaVuSans-109"/>
      <use x="460.302734" xlink:href="#DejaVuSans-111"/>
      <use x="521.484375" xlink:href="#DejaVuSans-116"/>
      <use x="560.693359" xlink:href="#DejaVuSans-111"/>
      <use x="621.875" xlink:href="#DejaVuSans-114"/>
      <use x="662.988281" xlink:href="#DejaVuSans-51"/>
     </g>
    </g>
    <g id="line2d_40">
     <path d="M 66.6 247.857437 
L 86.6 247.857437 
" style="fill:none;stroke:#d62728;stroke-linecap:square;stroke-width:1.5;"/>
    </g>
    <g id="line2d_41"/>
    <g id="text_20">
     <!-- panda_motor4 -->
     <defs>
      <path d="M 37.796875 64.3125 
L 12.890625 25.390625 
L 37.796875 25.390625 
z
M 35.203125 72.90625 
L 47.609375 72.90625 
L 47.609375 25.390625 
L 58.015625 25.390625 
L 58.015625 17.1875 
L 47.609375 17.1875 
L 47.609375 0 
L 37.796875 0 
L 37.796875 17.1875 
L 4.890625 17.1875 
L 4.890625 26.703125 
z
" id="DejaVuSans-52"/>
     </defs>
     <g transform="translate(94.6 251.357437)scale(0.1 -0.1)">
      <use xlink:href="#DejaVuSans-112"/>
      <use x="63.476562" xlink:href="#DejaVuSans-97"/>
      <use x="124.755859" xlink:href="#DejaVuSans-110"/>
      <use x="188.134766" xlink:href="#DejaVuSans-100"/>
      <use x="251.611328" xlink:href="#DejaVuSans-97"/>
      <use x="312.890625" xlink:href="#DejaVuSans-95"/>
      <use x="362.890625" xlink:href="#DejaVuSans-109"/>
      <use x="460.302734" xlink:href="#DejaVuSans-111"/>
      <use x="521.484375" xlink:href="#DejaVuSans-116"/>
      <use x="560.693359" xlink:href="#DejaVuSans-111"/>
      <use x="621.875" xlink:href="#DejaVuSans-114"/>
      <use x="662.988281" xlink:href="#DejaVuSans-52"/>
     </g>
    </g>
    <g id="line2d_42">
     <path d="M 66.6 262.813687 
L 86.6 262.813687 
" style="fill:none;stroke:#9467bd;stroke-linecap:square;stroke-width:1.5;"/>
    </g>
    <g id="line2d_43"/>
    <g id="text_21">
     <!-- panda_motor5 -->
     <g transform="translate(94.6 266.313687)scale(0.1 -0.1)">
      <use xlink:href="#DejaVuSans-112"/>
      <use x="63.476562" xlink:href="#DejaVuSans-97"/>
      <use x="124.755859" xlink:href="#DejaVuSans-110"/>
      <use x="188.134766" xlink:href="#DejaVuSans-100"/>
      <use x="251.611328" xlink:href="#DejaVuSans-97"/>
      <use x="312.890625" xlink:href="#DejaVuSans-95"/>
      <use x="362.890625" xlink:href="#DejaVuSans-109"/>
      <use x="460.302734" xlink:href="#DejaVuSans-111"/>
      <use x="521.484375" xlink:href="#DejaVuSans-116"/>
      <use x="560.693359" xlink:href="#DejaVuSans-111"/>
      <use x="621.875" xlink:href="#DejaVuSans-114"/>
      <use x="662.988281" xlink:href="#DejaVuSans-53"/>
     </g>
    </g>
    <g id="line2d_44">
     <path d="M 66.6 277.769937 
L 86.6 277.769937 
" style="fill:none;stroke:#8c564b;stroke-linecap:square;stroke-width:1.5;"/>
    </g>
    <g id="line2d_45"/>
    <g id="text_22">
     <!-- panda_motor6 -->
     <g transform="translate(94.6 281.269937)scale(0.1 -0.1)">
      <use xlink:href="#DejaVuSans-112"/>
      <use x="63.476562" xlink:href="#DejaVuSans-97"/>
      <use x="124.755859" xlink:href="#DejaVuSans-110"/>
      <use x="188.134766" xlink:href="#DejaVuSans-100"/>
      <use x="251.611328" xlink:href="#DejaVuSans-97"/>
      <use x="312.890625" xlink:href="#DejaVuSans-95"/>
      <use x="362.890625" xlink:href="#DejaVuSans-109"/>
      <use x="460.302734" xlink:href="#DejaVuSans-111"/>
      <use x="521.484375" xlink:href="#DejaVuSans-116"/>
      <use x="560.693359" xlink:href="#DejaVuSans-111"/>
      <use x="621.875" xlink:href="#DejaVuSans-114"/>
      <use x="662.988281" xlink:href="#DejaVuSans-54"/>
     </g>
    </g>
    <g id="line2d_46">
     <path d="M 66.6 292.726187 
L 86.6 292.726187 
" style="fill:none;stroke:#e377c2;stroke-linecap:square;stroke-width:1.5;"/>
    </g>
    <g id="line2d_47"/>
    <g id="text_23">
     <!-- panda_motor7 -->
     <g transform="translate(94.6 296.226187)scale(0.1 -0.1)">
      <use xlink:href="#DejaVuSans-112"/>
      <use x="63.476562" xlink:href="#DejaVuSans-97"/>
      <use x="124.755859" xlink:href="#DejaVuSans-110"/>
      <use x="188.134766" xlink:href="#DejaVuSans-100"/>
      <use x="251.611328" xlink:href="#DejaVuSans-97"/>
      <use x="312.890625" xlink:href="#DejaVuSans-95"/>
      <use x="362.890625" xlink:href="#DejaVuSans-109"/>
      <use x="460.302734" xlink:href="#DejaVuSans-111"/>
      <use x="521.484375" xlink:href="#DejaVuSans-116"/>
      <use x="560.693359" xlink:href="#DejaVuSans-111"/>
      <use x="621.875" xlink:href="#DejaVuSans-114"/>
      <use x="662.988281" xlink:href="#DejaVuSans-55"/>
     </g>
    </g>
   </g>
  </g>
 </g>
 <defs>
  <clipPath id="pd2b53ed500">
   <rect height="266.112" width="357.12" x="57.6" y="41.472"/>
  </clipPath>
 </defs>
</svg>
