# https://github.com/mikedh/trimesh
v 0.06234752 0.05240997 0.02219309
v 0.07108701 0.03076150 0.01560353
v 0.06226766 0.05627643 -0.02025171
v -0.00561652 0.04934379 -0.02493038
v -0.00539280 0.03226695 0.02711887
v 0.06434517 0.03086807 -0.02325858
v -0.00655788 0.05964336 0.01541632
v 0.06745956 0.05249768 0.01444959
v 0.06673146 0.03076678 0.02114193
v 0.07079672 0.03684908 -0.01903374
v 0.05637704 0.05371707 -0.02298884
v -0.00590653 0.03245925 -0.02514148
v 0.05816341 0.06066863 0.01119002
v -0.00710438 0.05896159 -0.01652979
v 0.00041808 0.05375902 0.02539000
v 0.06585335 0.05113044 0.01997945
v -0.00333218 0.03246505 0.02726600
v 0.06488467 0.04793129 -0.02141688
v 0.07116965 0.03083439 -0.01892904
v 0.07061555 0.04159286 -0.01107654
v 0.02828874 0.04976108 -0.02477753
v 0.06603989 0.05674832 -0.01090432
v -0.00973015 0.05555898 -0.00920829
v -0.00621269 0.05767372 -0.02052504
v 0.05949804 0.05900368 -0.01781633
v -0.00159552 0.06091457 0.00531252
v -0.00647595 0.04786929 0.02402866
v 0.04561535 0.05907323 0.01836378
v 0.06744045 0.04823205 0.01821471
v 0.06940721 0.03075708 0.01835428
v 0.06466076 0.05276220 0.02073005
v 0.06257589 0.04861221 0.02225723
v -0.00331676 0.03402045 0.02716943
v 0.06854918 0.03083989 -0.02159621
v 0.06610903 0.05495645 -0.01725753
v 0.05963086 0.05247747 -0.02293351
v 0.06909248 0.04643540 0.01298065
v 0.07065983 0.03998705 -0.01772012
v 0.03615032 0.05542865 -0.02293861
v 0.06383626 0.05900170 0.01108226
v 0.06740930 0.05245256 -0.01492405
v -0.00671603 0.03278093 -0.02413415
v -0.00917391 0.05855109 -0.00405986
v -0.00673271 0.05522786 -0.02171412
v 0.03005677 0.05916516 -0.01797013
v -0.00785318 0.05990202 -0.00873531
v 0.00159559 0.06086558 0.00981478
v 0.05646735 0.06090670 0.00359257
v -0.00487108 0.05522685 0.02245112
v -0.00403117 0.04927749 0.02553424
v -0.01005676 0.04859823 0.00187138
v 0.01103733 0.06069248 0.01130739
v -0.00433019 0.05800467 0.02080803
v 0.05810442 0.05514848 0.02226357
v 0.06591813 0.05396094 0.01859725
v 0.06760882 0.03872594 0.01963155
v 0.06104890 0.04532493 0.02226779
v 0.00715568 0.05340067 0.02556021
v 0.06932733 0.03844402 -0.02019972
v 0.06242501 0.04666238 -0.02286565
v 0.06323314 0.05246639 -0.02130142
v 0.06190360 0.05898343 -0.01603537
v 0.05781489 0.05617574 -0.02179732
v 0.07070793 0.03703187 0.01136165
vn 0.32160028 0.25441079 0.91205724
vn 0.75935472 -0.61156886 0.22217997
vn 0.44904357 0.58633760 -0.67421665
vn -0.49503132 0.18423626 -0.84911777
vn -0.54842143 -0.57522244 0.60692099
vn 0.15913750 -0.65671098 -0.73716073
vn -0.63982562 0.72642999 0.25084386
vn 0.92489803 0.35805552 0.12790572
vn 0.34826810 -0.63481310 0.68972579
vn 0.89665048 0.10298271 -0.43059550
vn 0.06789628 0.26490966 -0.96187991
vn -0.37442611 -0.62079290 -0.68878245
vn 0.17094584 0.96398355 0.20374799
vn -0.57900089 0.77191565 -0.26249608
vn -0.09962204 0.44643103 0.88925519
vn 0.75143611 0.15378480 0.64163386
vn 0.01169117 -0.39868999 0.91701124
vn 0.58515608 0.20287289 -0.78513371
vn 0.73307429 -0.61294661 -0.29478559
vn 0.98509207 0.17163494 -0.01162124
vn 0.01709554 0.14069201 -0.98990580
vn 0.78072227 0.62253234 -0.05409462
vn -0.98018159 0.16108776 -0.11530303
vn -0.43645042 0.68452998 -0.58389189
vn 0.13538313 0.91558329 -0.37865374
vn -0.09155323 0.99580000 0.00061126
vn -0.84954589 0.12362120 0.51282510
vn 0.02958291 0.88565103 0.46340814
vn 0.90032381 0.15687755 0.40596364
vn 0.60401268 -0.65617301 0.45233358
vn 0.55568273 0.38394333 0.73743083
vn 0.24229228 0.01574730 0.97007550
vn -0.03626650 0.07887159 0.99622488
vn 0.41561566 -0.63964864 -0.64661677
vn 0.77879573 0.49000441 -0.39162851
vn 0.22478427 0.21337275 -0.95075975
vn 0.97232206 0.19984352 0.12104704
vn 0.94356100 0.19806630 -0.26544751
vn 0.01139805 0.55711422 -0.83035765
vn 0.56567381 0.80682760 0.17041820
vn 0.94471420 0.31152760 -0.10230172
vn -0.82061129 -0.50041248 -0.27601533
vn -0.88166272 0.47070741 0.03324722
vn -0.68366313 0.32517246 -0.65335105
vn 0.00372221 0.93931322 -0.34304055
vn -0.53254014 0.83880159 -0.11319404
vn -0.02835270 0.99457300 0.10010329
vn 0.10919637 0.99364179 -0.02742520
vn -0.63064859 0.41184372 0.65777436
vn -0.36917585 0.21106240 0.90507561
vn -0.99765113 -0.03793197 0.05703853
vn -0.00158143 0.98479111 0.17373535
vn -0.37995443 0.74389042 0.54978330
vn 0.17678694 0.55963102 0.80966629
vn 0.70725204 0.55683023 0.43558541
vn 0.74607331 0.08295716 0.66067596
vn 0.08833417 -0.03970126 0.99529939
vn 0.02882737 0.40712118 0.91291913
vn 0.63713065 0.16839955 -0.75213438
vn 0.29056620 0.09428327 -0.95219848
vn 0.54079193 0.27790923 -0.79392100
vn 0.37906652 0.89676241 -0.22831063
vn 0.12681670 0.60919500 -0.78281477
vn 0.99085935 0.12105228 0.05953235
f 9//9 5//5 6//6
f 12//12 6//6 5//5
f 17//17 5//5 9//9
f 20//20 2//2 19//19
f 21//21 12//12 4//4
f 21//21 6//6 12//12
f 30//30 2//2 29//29
f 31//31 1//1 9//9
f 31//31 9//9 16//16
f 32//32 9//9 1//1
f 32//32 1//1 17//17
f 33//33 5//5 17//17
f 34//34 10//10 19//19
f 34//34 19//19 2//2
f 34//34 2//2 30//30
f 34//34 30//30 9//9
f 34//34 9//9 6//6
f 36//36 21//21 11//11
f 36//36 6//6 21//21
f 37//37 20//20 8//8
f 37//37 29//29 2//2
f 37//37 8//8 29//29
f 38//38 20//20 19//19
f 38//38 19//19 10//10
f 38//38 10//10 35//35
f 39//39 21//21 4//4
f 39//39 11//11 21//21
f 39//39 4//4 24//24
f 40//40 8//8 22//22
f 41//41 22//22 8//8
f 41//41 8//8 20//20
f 41//41 20//20 38//38
f 41//41 38//38 35//35
f 41//41 35//35 22//22
f 42//42 4//4 12//12
f 42//42 12//12 5//5
f 43//43 14//14 23//23
f 44//44 23//23 14//14
f 44//44 14//14 24//24
f 44//44 24//24 4//4
f 44//44 42//42 23//23
f 44//44 4//4 42//42
f 45//45 24//24 14//14
f 46//46 7//7 26//26
f 46//46 43//43 7//7
f 46//46 14//14 43//43
f 46//46 45//45 14//14
f 47//47 26//26 7//7
f 48//48 25//25 45//45
f 48//48 46//46 26//26
f 48//48 45//45 46//46
f 48//48 47//47 13//13
f 48//48 26//26 47//47
f 49//49 7//7 27//27
f 50//50 27//27 5//5
f 50//50 49//49 27//27
f 50//50 15//15 49//49
f 50//50 33//33 15//15
f 50//50 5//5 33//33
f 51//51 5//5 27//27
f 51//51 42//42 5//5
f 51//51 23//23 42//42
f 51//51 43//43 23//23
f 51//51 27//27 7//7
f 51//51 7//7 43//43
f 52//52 28//28 13//13
f 52//52 7//7 28//28
f 52//52 47//47 7//7
f 52//52 13//13 47//47
f 53//53 28//28 7//7
f 53//53 15//15 28//28
f 53//53 49//49 15//15
f 53//53 7//7 49//49
f 54//54 28//28 15//15
f 54//54 13//13 28//28
f 54//54 1//1 31//31
f 54//54 40//40 13//13
f 55//55 29//29 8//8
f 55//55 16//16 29//29
f 55//55 31//31 16//16
f 55//55 8//8 40//40
f 55//55 54//54 31//31
f 55//55 40//40 54//54
f 56//56 16//16 9//9
f 56//56 9//9 30//30
f 56//56 30//30 29//29
f 56//56 29//29 16//16
f 57//57 32//32 17//17
f 57//57 17//17 9//9
f 57//57 9//9 32//32
f 58//58 33//33 17//17
f 58//58 17//17 1//1
f 58//58 1//1 54//54
f 58//58 54//54 15//15
f 58//58 15//15 33//33
f 59//59 34//34 18//18
f 59//59 10//10 34//34
f 59//59 35//35 10//10
f 59//59 18//18 35//35
f 60//60 34//34 6//6
f 60//60 18//18 34//34
f 60//60 6//6 36//36
f 61//61 35//35 18//18
f 61//61 3//3 35//35
f 61//61 36//36 3//3
f 61//61 60//60 36//36
f 61//61 18//18 60//60
f 62//62 22//22 35//35
f 62//62 40//40 22//22
f 62//62 25//25 48//48
f 62//62 48//48 13//13
f 62//62 13//13 40//40
f 62//62 35//35 3//3
f 62//62 3//3 25//25
f 63//63 36//36 11//11
f 63//63 3//3 36//36
f 63//63 11//11 39//39
f 63//63 25//25 3//3
f 63//63 39//39 24//24
f 63//63 45//45 25//25
f 63//63 24//24 45//45
f 64//64 37//37 2//2
f 64//64 2//2 20//20
f 64//64 20//20 37//37

