# https://github.com/mikedh/trimesh
v -0.00709934 0.04780297 0.02335864
v -0.00694324 0.00497820 0.01713140
v -0.00699892 0.05874684 0.01573353
v -0.00719768 0.04953424 -0.02294612
v -0.01420360 0.04166631 0.00724950
v -0.00699219 0.00338858 -0.00171235
v -0.00703765 0.02868299 0.02457679
v -0.01293392 0.04671639 0.01558751
v -0.00716124 0.05460282 -0.02117951
v -0.01097717 0.00628211 -0.00686214
v -0.00765858 0.05509028 0.01970244
v -0.01107300 0.04379963 0.02250790
v -0.00717524 0.01552925 -0.02124845
v -0.01108780 0.05679013 0.01068369
v -0.01102522 0.04870069 -0.01502504
v -0.01014672 0.00350934 -0.00444455
v -0.01397573 0.03269789 0.01103702
v -0.00718304 0.05580412 0.01975546
v -0.00733862 0.04163294 0.02444755
v -0.00838668 0.01011181 0.02055433
v -0.00716397 0.03111126 -0.02279814
v -0.00742928 0.06000550 -0.01055693
v -0.00910551 0.05399970 -0.01792357
v -0.01062275 0.05233398 -0.01472603
v -0.01410165 0.03288824 0.00415239
v -0.00924758 0.02499476 -0.01769986
v -0.00716752 0.00558545 -0.01206954
v -0.01415573 0.03848324 0.01306638
v -0.01092994 0.00499556 -0.00473338
v -0.00823799 0.05973459 0.01231428
v -0.01002737 0.03537006 0.02385865
v -0.00701502 0.00971005 0.02143584
v -0.00913389 0.04397771 -0.01965469
v -0.00731538 0.05718580 -0.01963372
v -0.00765531 0.04896729 -0.02250864
v -0.00910543 0.05734670 -0.01460847
v -0.00767437 0.01598645 -0.02067437
v -0.00718112 0.01231971 -0.01962566
v -0.00749737 0.00401683 -0.00550148
v -0.00856680 0.00618448 -0.01153506
v -0.01338094 0.04439942 0.01582965
v -0.01412051 0.03117517 0.00675739
v -0.01404859 0.03582363 0.01274951
v -0.00774395 0.00557977 0.01663446
v -0.00938479 0.05828594 0.01220311
v -0.00757159 0.05990685 -0.01018284
v -0.00745256 0.06031651 0.01272584
v -0.00868407 0.04144373 0.02387383
v -0.01069463 0.03456383 0.02345134
v -0.00774550 0.05694310 -0.01935825
v -0.00756566 0.03130597 -0.02213883
v -0.00771508 0.01273352 -0.01907213
v -0.01014376 0.00389685 -0.00513694
v -0.01406257 0.03122556 0.00824353
v -0.00985724 0.03305293 0.02384550
v -0.00794849 0.05806528 -0.01752358
v -0.00744044 0.05824318 -0.01799889
vn 0.47558958 0.29896994 0.82730377
vn 0.34720215 -0.82349401 0.44867391
vn 0.41449787 0.76563977 0.49192201
vn 0.29617492 0.21060686 -0.93162501
vn -0.99442271 0.10023838 -0.03279861
vn 0.66141941 -0.75000421 0.00424747
vn 0.51668051 -0.11005181 0.84907588
vn -0.94159313 0.25617355 0.21858062
vn 0.28961348 0.37289460 -0.88151781
vn -0.92117654 -0.29309725 -0.25598394
vn -0.74445216 0.40099630 0.53384731
vn -0.73639445 0.17238658 0.65422174
vn 0.27816359 -0.28686016 -0.91669857
vn -0.87973476 0.45918458 0.12335422
vn -0.96307060 0.06105908 -0.26223426
vn -0.50597946 -0.85621216 -0.10433373
vn -0.98371436 -0.11803288 0.13555183
vn 0.27630418 0.64774149 0.70999082
vn 0.38097210 0.09909716 0.91926058
vn -0.79896510 -0.30460557 0.51852696
vn 0.25905379 -0.05667322 -0.96419878
vn 0.31235186 0.93910343 -0.14325173
vn -0.90550222 0.20178363 -0.37329492
vn -0.95731338 0.20081746 -0.20790250
vn -0.99470386 -0.02620319 -0.09938628
vn -0.94951955 -0.04452473 -0.31053208
vn 0.46188627 -0.74332319 -0.48387159
vn -0.98768988 -0.00197032 0.15641235
vn -0.93716379 -0.34462512 -0.05438341
vn -0.69306413 0.69473593 0.19236453
vn -0.40785080 0.02443513 0.91272156
vn 0.39800834 -0.40353996 0.82385974
vn -0.90965140 -0.01003316 -0.41525134
vn 0.35100888 0.65029502 -0.67372781
vn -0.81696842 0.06569216 -0.57292857
vn -0.87457126 0.45881337 -0.15689296
vn -0.87762775 -0.11372265 -0.46565728
vn 0.29158560 -0.55173880 -0.78138475
vn 0.22711587 -0.95194373 -0.20547873
vn -0.66012676 -0.59298498 -0.46108727
vn -0.96983870 0.12346220 0.21016654
vn -0.99702143 -0.07712430 -0.00033749
vn -0.98099825 -0.08049724 0.17652941
vn -0.81290450 -0.52267282 0.25690346
vn -0.76290246 0.54538008 0.34718929
vn -0.71174723 0.70109364 -0.04340027
vn 0.22775109 0.94194712 0.24670845
vn -0.40979857 0.09938440 0.90674576
vn -0.78206707 -0.05721183 0.62056257
vn -0.78071399 0.39740517 -0.48223937
vn -0.88408896 -0.02923611 -0.46640322
vn -0.85933435 -0.27293411 -0.43249445
vn -0.71837452 -0.60168469 -0.34916126
vn -0.99065729 -0.11339577 0.07575971
vn -0.46905475 -0.09105931 0.87846220
vn -0.73613784 0.61530452 -0.28195999
vn 0.31795138 0.85539078 -0.40891752
f 6//6 3//3 2//2
f 7//7 2//2 3//3
f 7//7 3//3 1//1
f 9//9 3//3 6//6
f 14//14 12//12 11//11
f 14//14 8//8 12//12
f 14//14 5//5 8//8
f 16//16 6//6 2//2
f 18//18 1//1 3//3
f 18//18 14//14 11//11
f 18//18 12//12 1//1
f 18//18 11//11 12//12
f 19//19 7//7 1//1
f 19//19 1//1 12//12
f 21//21 9//9 6//6
f 21//21 6//6 13//13
f 21//21 4//4 9//9
f 24//24 15//15 5//5
f 24//24 5//5 14//14
f 24//24 23//23 15//15
f 25//25 15//15 10//10
f 25//25 5//5 15//15
f 26//26 10//10 15//15
f 29//29 20//20 17//17
f 31//31 7//7 19//19
f 32//32 20//20 2//2
f 32//32 2//2 7//7
f 33//33 26//26 15//15
f 34//34 22//22 3//3
f 34//34 3//3 9//9
f 35//35 9//9 4//4
f 35//35 15//15 23//23
f 35//35 33//33 15//15
f 35//35 4//4 21//21
f 36//36 24//24 14//14
f 37//37 10//10 26//26
f 37//37 21//21 13//13
f 37//37 26//26 33//33
f 38//38 13//13 6//6
f 38//38 6//6 27//27
f 39//39 27//27 6//6
f 39//39 6//6 16//16
f 39//39 16//16 27//27
f 40//40 27//27 16//16
f 40//40 38//38 27//27
f 41//41 12//12 8//8
f 41//41 8//8 5//5
f 41//41 5//5 28//28
f 42//42 25//25 10//10
f 42//42 10//10 29//29
f 42//42 28//28 5//5
f 42//42 5//5 25//25
f 43//43 17//17 20//20
f 44//44 29//29 16//16
f 44//44 16//16 2//2
f 44//44 2//2 20//20
f 44//44 20//20 29//29
f 45//45 30//30 14//14
f 45//45 14//14 18//18
f 45//45 18//18 30//30
f 46//46 14//14 30//30
f 46//46 36//36 14//14
f 46//46 22//22 36//36
f 47//47 3//3 22//22
f 47//47 46//46 30//30
f 47//47 22//22 46//46
f 47//47 30//30 18//18
f 47//47 18//18 3//3
f 48//48 31//31 19//19
f 48//48 19//19 12//12
f 48//48 12//12 31//31
f 49//49 31//31 12//12
f 49//49 28//28 43//43
f 49//49 43//43 20//20
f 49//49 41//41 28//28
f 49//49 12//12 41//41
f 50//50 34//34 9//9
f 50//50 23//23 24//24
f 50//50 24//24 36//36
f 50//50 35//35 23//23
f 50//50 9//9 35//35
f 51//51 35//35 21//21
f 51//51 33//33 35//35
f 51//51 37//37 33//33
f 51//51 21//21 37//37
f 52//52 37//37 13//13
f 52//52 13//13 38//38
f 52//52 10//10 37//37
f 52//52 40//40 10//10
f 52//52 38//38 40//40
f 53//53 40//40 16//16
f 53//53 10//10 40//40
f 53//53 29//29 10//10
f 53//53 16//16 29//29
f 54//54 42//42 29//29
f 54//54 29//29 17//17
f 54//54 17//17 43//43
f 54//54 43//43 28//28
f 54//54 28//28 42//42
f 55//55 49//49 20//20
f 55//55 20//20 32//32
f 55//55 32//32 7//7
f 55//55 7//7 31//31
f 55//55 31//31 49//49
f 56//56 50//50 36//36
f 56//56 36//36 22//22
f 57//57 56//56 22//22
f 57//57 22//22 34//34
f 57//57 34//34 50//50
f 57//57 50//50 56//56

