# https://github.com/mikedh/trimesh
v -0.00253391 0.03274174 0.02703184
v 0.00758533 0.01080565 0.01403257
v 0.01119334 0.03311936 -0.01216301
v -0.00590653 0.03245925 -0.02514148
v -0.00712246 0.00424248 0.01541122
v 0.00529812 0.00894489 -0.02018614
v -0.00671603 0.03278093 -0.02413415
v 0.00972312 0.03337285 0.01703445
v -0.00239967 0.01111103 0.02392865
v 0.00907058 0.01076397 -0.01354418
v 0.00680925 0.03288906 -0.02191522
v -0.00693452 0.03273914 0.02605727
v -0.00444808 0.00552166 -0.02081826
v 0.01120292 0.03321213 -0.00599255
v 0.00355652 0.00588328 0.01563331
v 0.00352037 0.01533859 0.02226508
v -0.00039271 0.01536968 -0.02456425
v 0.00924257 0.01516501 -0.01681362
v 0.00953314 0.03306076 -0.01789443
v -0.00054881 0.03263595 -0.02465542
v -0.00951695 0.01244022 -0.01436428
v -0.00360969 0.02993320 0.02721309
v -0.00716834 0.01127145 0.02258457
v -0.00491165 0.01420213 -0.02467092
v 0.00919166 0.01081901 -0.00606125
v -0.00080096 0.00598505 0.01973544
v 0.00535995 0.00619862 -0.01034516
v 0.00551732 0.03284458 0.02279473
v 0.00609191 0.01549925 0.01948981
v 0.00605565 0.01276707 -0.02155445
v -0.00204982 0.00823767 -0.02293152
v 0.00767731 0.01117442 -0.01886115
v 0.00910631 0.01216700 -0.01545074
v 0.00790245 0.03296980 -0.02066390
v 0.00413260 0.03258376 -0.02329749
v -0.00947250 0.01356052 -0.01425117
v -0.00686367 0.00409116 -0.00955507
v -0.00539280 0.03226695 0.02711887
v 0.00214075 0.02028260 0.02369430
v -0.00421577 0.01246239 0.02372086
v -0.00590510 0.01718349 -0.02392361
v -0.00197337 0.01221457 -0.02455042
v -0.00449269 0.00772686 -0.02223826
v 0.00755123 0.00802132 0.00820871
v 0.00932479 0.01397975 0.00510834
v -0.00197499 0.00437727 0.01751438
v -0.00454625 0.00598434 0.01980910
v 0.00349378 0.01001229 0.02090845
v 0.00622889 0.00725120 -0.01495083
v 0.00745144 0.01556547 0.01714466
v 0.00613426 0.02341840 0.02106468
v 0.00246611 0.00752889 -0.02025509
v 0.00360838 0.01143871 -0.02280307
v 0.00600216 0.00969332 -0.02019336
v 0.00766935 0.01009637 -0.01750708
v -0.00940985 0.01217742 -0.01468519
v -0.00075614 0.00440452 -0.01627309
v -0.00690779 0.03003741 0.02567354
v 0.00059445 0.01544073 0.02370606
v -0.00268349 0.01116694 0.02389990
v -0.00522882 0.03042807 0.02684132
v -0.00418170 0.00815083 -0.02299957
v 0.00591444 0.00690903 0.01417471
v 0.00742469 0.00943565 0.01282625
vn 0.20025896 0.63285855 0.74792139
vn 0.92394257 -0.24640719 0.29259804
vn 0.75739855 0.64493791 -0.10199283
vn -0.32358106 0.47332066 -0.81930632
vn -0.64826864 -0.73774059 0.18837883
vn 0.50737475 -0.66441928 -0.54874209
vn -0.67679018 0.65494985 -0.33614839
vn 0.72388265 0.63480803 0.27020857
vn 0.09156546 -0.39071707 0.91594538
vn 0.92205485 -0.37754345 -0.08529827
vn 0.46060173 0.63261116 -0.62261478
vn -0.68064525 0.59431693 0.42838001
vn -0.38104771 -0.76591113 -0.51786367
vn 0.73601015 0.67687674 0.01126655
vn 0.44635053 -0.84948064 0.28134294
vn 0.58297493 -0.16676732 0.79519110
vn 0.21223472 -0.04858082 -0.97601041
vn 0.94229744 -0.08725385 -0.32320629
vn 0.67700864 0.66894991 -0.30686369
vn 0.13524639 0.63757167 -0.75842652
vn -0.98890883 -0.10927974 -0.10058462
vn 0.06276186 -0.11135556 0.99179680
vn -0.74567844 -0.27684840 0.60606817
vn -0.50050222 -0.16165686 -0.85050843
vn 0.94688548 -0.32157090 -0.00022476
vn 0.24323748 -0.73144096 0.63704761
vn 0.51654293 -0.85577871 -0.02874379
vn 0.51534030 0.57912717 0.63169304
vn 0.80588042 -0.17965836 0.56416276
vn 0.66652011 -0.14173721 -0.73188899
vn 0.18134896 -0.55471739 -0.81203520
vn 0.84180680 -0.28618660 -0.45766641
vn 0.95790894 -0.21202347 -0.19353685
vn 0.59327131 0.66656923 -0.45134756
vn 0.31542414 0.46433571 -0.82758683
vn -0.99607123 0.07052164 -0.05356118
vn -0.57255634 -0.81704693 -0.06792310
vn -0.29117339 0.34676287 0.89161290
vn 0.46082003 -0.10048120 0.88178706
vn -0.27691347 -0.18702881 0.94251746
vn -0.83245896 -0.08655550 -0.54728440
vn 0.07826355 -0.22462306 -0.97129774
vn -0.83619429 -0.28833520 -0.46652108
vn 0.82969489 -0.55535300 0.05647510
vn 0.98518405 -0.15355802 0.07636965
vn 0.11555829 -0.94630390 0.30191921
vn -0.26005457 -0.71599766 0.64785722
vn 0.59224673 -0.42296100 0.68581908
vn 0.61582511 -0.76473152 -0.18959204
vn 0.90740742 -0.17122273 0.38378972
vn 0.76262696 -0.09942877 0.63915103
vn 0.35563906 -0.76464108 -0.53744290
vn 0.40337517 -0.30072104 -0.86420792
vn 0.65984660 -0.48993178 -0.56970986
vn 0.80695276 -0.51191074 -0.29457534
vn -0.93723252 -0.23486100 -0.25775089
vn 0.18086944 -0.96151165 -0.20683714
vn -0.63514672 -0.11643011 0.76356576
vn 0.36913450 -0.17061635 0.91358075
vn -0.20993843 -0.36483029 0.90709686
vn -0.30613167 -0.17148859 0.93641607
vn -0.42251588 -0.44345180 -0.79046241
vn 0.69192130 -0.67610937 0.25322132
vn 0.92577176 -0.33073746 0.18319222
f 12//12 8//8 7//7
f 12//12 1//1 8//8
f 14//14 7//7 8//8
f 19//19 3//3 18//18
f 19//19 14//14 3//3
f 19//19 7//7 14//14
f 20//20 4//4 7//7
f 20//20 7//7 11//11
f 20//20 17//17 4//4
f 23//23 21//21 5//5
f 23//23 12//12 21//21
f 25//25 10//10 3//3
f 25//25 3//3 14//14
f 28//28 8//8 1//1
f 32//32 30//30 18//18
f 33//33 18//18 3//3
f 33//33 3//3 10//10
f 33//33 32//32 18//18
f 34//34 11//11 7//7
f 34//34 7//7 19//19
f 34//34 30//30 11//11
f 34//34 19//19 18//18
f 34//34 18//18 30//30
f 35//35 20//20 11//11
f 35//35 17//17 20//20
f 36//36 21//21 12//12
f 36//36 12//12 7//7
f 36//36 7//7 21//21
f 37//37 5//5 21//21
f 38//38 22//22 1//1
f 38//38 1//1 12//12
f 39//39 1//1 22//22
f 39//39 28//28 1//1
f 39//39 16//16 28//28
f 41//41 7//7 4//4
f 41//41 4//4 24//24
f 42//42 24//24 4//4
f 42//42 4//4 17//17
f 44//44 10//10 25//25
f 45//45 25//25 14//14
f 45//45 14//14 8//8
f 45//45 8//8 2//2
f 45//45 44//44 25//25
f 46//46 15//15 26//26
f 46//46 5//5 37//37
f 47//47 23//23 5//5
f 47//47 46//46 26//26
f 47//47 5//5 46//46
f 47//47 26//26 9//9
f 48//48 9//9 26//26
f 48//48 26//26 15//15
f 48//48 29//29 16//16
f 49//49 44//44 27//27
f 49//49 10//10 44//44
f 50//50 2//2 8//8
f 50//50 8//8 29//29
f 50//50 48//48 2//2
f 50//50 29//29 48//48
f 51//51 28//28 16//16
f 51//51 16//16 29//29
f 51//51 29//29 8//8
f 51//51 8//8 28//28
f 52//52 31//31 6//6
f 52//52 13//13 31//31
f 52//52 6//6 49//49
f 53//53 6//6 31//31
f 53//53 31//31 42//42
f 53//53 42//42 17//17
f 53//53 17//17 35//35
f 53//53 35//35 11//11
f 53//53 11//11 30//30
f 54//54 30//30 32//32
f 54//54 53//53 30//30
f 54//54 6//6 53//53
f 54//54 49//49 6//6
f 55//55 33//33 10//10
f 55//55 32//32 33//33
f 55//55 10//10 49//49
f 55//55 54//54 32//32
f 55//55 49//49 54//54
f 56//56 37//37 21//21
f 56//56 13//13 37//37
f 56//56 43//43 13//13
f 56//56 24//24 43//43
f 56//56 41//41 24//24
f 56//56 21//21 7//7
f 56//56 7//7 41//41
f 57//57 37//37 13//13
f 57//57 46//46 37//37
f 57//57 27//27 15//15
f 57//57 15//15 46//46
f 57//57 49//49 27//27
f 57//57 52//52 49//49
f 57//57 13//13 52//52
f 58//58 38//38 12//12
f 58//58 12//12 23//23
f 58//58 23//23 38//38
f 59//59 39//39 22//22
f 59//59 22//22 9//9
f 59//59 16//16 39//39
f 59//59 48//48 16//16
f 59//59 9//9 48//48
f 60//60 40//40 23//23
f 60//60 9//9 22//22
f 60//60 22//22 40//40
f 60//60 47//47 9//9
f 60//60 23//23 47//47
f 61//61 38//38 23//23
f 61//61 23//23 40//40
f 61//61 40//40 22//22
f 61//61 22//22 38//38
f 62//62 31//31 13//13
f 62//62 13//13 43//43
f 62//62 42//42 31//31
f 62//62 43//43 24//24
f 62//62 24//24 42//42
f 63//63 15//15 27//27
f 63//63 27//27 44//44
f 63//63 48//48 15//15
f 63//63 2//2 48//48
f 64//64 45//45 2//2
f 64//64 44//44 45//45
f 64//64 63//63 44//44
f 64//64 2//2 63//63

