# https://github.com/mikedh/trimesh
v -0.07162773 -0.00377782 0.02582049
v -0.02502427 -0.06513505 0.01891070
v -0.02572311 -0.04338509 -0.01493805
v -0.07614007 -0.00831434 -0.02485828
v -0.06466578 -0.04487083 0.01305873
v -0.06385990 -0.00387515 -0.01819567
v -0.02621707 -0.04495884 0.01884867
v -0.04851318 -0.05136222 0.02525550
v -0.08020115 -0.01105701 0.01109398
v -0.04013531 -0.06030165 -0.01897564
v -0.02555031 -0.04929722 -0.02316253
v -0.08216194 -0.00339399 -0.01504397
v -0.02543890 -0.04182231 -0.00303920
v -0.04474419 -0.06019903 0.01444724
v -0.07250479 -0.02665611 0.02271477
v -0.02590796 -0.04866266 0.02235424
v -0.06630856 -0.04208424 -0.01864843
v -0.02568336 -0.04479278 -0.01919113
v -0.06727025 -0.00875856 -0.02309441
v -0.04091368 -0.05207979 -0.02458547
v -0.02508109 -0.06693005 -0.01523536
v -0.08177767 -0.00362221 -0.01688442
v -0.07888234 -0.00323697 0.02172390
v -0.06368202 -0.00392220 0.01708564
v -0.05092327 -0.05410812 0.02112554
v -0.07241402 -0.01870976 0.02584893
v -0.07707658 -0.02211390 0.01105316
v -0.06624643 -0.00432145 0.02217883
v -0.03188271 -0.04973273 0.02381869
v -0.02517333 -0.06115840 0.02246094
v -0.05242685 -0.05560631 -0.01203884
v -0.07302474 -0.00833580 -0.02487135
v -0.06933592 -0.03094325 -0.02331402
v -0.05436537 -0.04813394 -0.02303135
v -0.02522645 -0.06101270 -0.02318866
v -0.03124393 -0.06500547 0.00984063
v -0.02501683 -0.06685585 0.00191772
v -0.07571797 -0.02513731 -0.01791275
v -0.08061318 -0.00350465 0.01598433
v -0.07734351 -0.01436869 0.02167576
v -0.06187232 -0.00420164 0.00480626
v -0.04915290 -0.05714488 0.01587103
v -0.06327859 -0.04191296 0.02261299
v -0.04187644 -0.06018350 0.01972848
v -0.04585203 -0.05165139 0.02544589
v -0.07722346 -0.00673426 0.02439468
v -0.07078762 -0.03423377 0.01538482
v -0.08219459 -0.00489565 -0.00981240
v -0.06024599 -0.04934451 -0.01376899
v -0.04489526 -0.06020312 -0.01043335
v -0.03237140 -0.05278363 -0.02477410
v -0.07508887 -0.01776710 -0.02446523
v -0.04511846 -0.05471292 -0.02278711
v -0.05842292 -0.04671684 -0.02159589
v -0.02645548 -0.06511208 -0.01881022
v -0.02778600 -0.06658505 -0.00893279
v -0.02967161 -0.06493207 0.01599648
v -0.08020291 -0.00944103 -0.01832232
v -0.07393392 -0.02689795 -0.02076055
v -0.08252362 -0.00340924 -0.00964452
v -0.07409630 -0.02032828 0.02417536
v -0.07393555 -0.02369703 0.02209919
v -0.07876456 -0.01752079 0.01131989
v -0.06203771 -0.00417828 -0.00715077
vn 0.02965666 0.66678542 0.74465944
vn 0.57683946 -0.71967358 0.38642745
vn 0.88298024 0.45557542 -0.11312351
vn -0.40757089 0.35288366 -0.84223458
vn -0.75317091 -0.64391560 0.13455958
vn 0.36907677 0.84185975 -0.39376961
vn 0.85386551 0.44952025 0.26238374
vn -0.26009577 -0.40719240 0.87552529
vn -0.97828493 -0.17545668 0.11033377
vn -0.35323580 -0.81621506 -0.45718427
vn 0.74252940 0.17657690 -0.64611972
vn -0.77511399 0.61788493 -0.13197165
vn 0.91325834 0.40737594 0.00201466
vn -0.44376388 -0.88855076 0.11640951
vn -0.75230507 -0.38731446 0.53293957
vn 0.74937066 0.19528590 0.63269821
vn -0.73447771 -0.56923823 -0.36947305
vn 0.86460614 0.40218075 -0.30117580
vn 0.33645623 0.44813366 -0.82823513
vn -0.10021402 -0.21099878 -0.97233567
vn 0.55559780 -0.80711442 -0.19969323
vn -0.70075955 0.58686379 -0.40561921
vn -0.64507312 0.65569932 0.39235070
vn 0.44234083 0.88188491 0.16313674
vn -0.52203022 -0.71238890 0.46902719
vn -0.32179016 -0.12174897 0.93895063
vn -0.91701898 -0.38838039 0.09075723
vn 0.45963329 0.76563647 0.45004225
vn 0.17219139 0.04513073 0.98402914
vn 0.61872945 -0.33230991 0.71185953
vn -0.55763110 -0.81211660 -0.17179694
vn 0.06902779 0.46406772 -0.88310606
vn -0.45965816 -0.31558294 -0.83013359
vn -0.32750722 -0.42138305 -0.84568040
vn 0.59228832 -0.38617638 -0.70715087
vn -0.27480185 -0.96001987 0.05334602
vn 0.62221155 -0.78210655 0.03409001
vn -0.91284912 -0.36657661 -0.17980009
vn -0.82772048 0.54092277 0.14926942
vn -0.89746916 -0.22327771 0.38038951
vn 0.47756739 0.87819479 0.02651986
vn -0.56872674 -0.80631905 0.16247919
vn -0.60111844 -0.48701448 0.63361938
vn -0.30856098 -0.80994398 0.49877939
vn -0.01760967 -0.23950739 0.97073483
vn -0.64068801 0.06206911 0.76528838
vn -0.86233824 -0.48027433 0.16034128
vn -0.96874722 -0.24626963 -0.02966642
vn -0.64435826 -0.74526096 -0.17143083
vn -0.43671672 -0.89362809 -0.10347634
vn 0.07729528 -0.04395005 -0.99603907
vn -0.55533905 -0.18132296 -0.81161599
vn -0.33584154 -0.58218449 -0.74045370
vn -0.50873344 -0.59644757 -0.62083861
vn 0.03154144 -0.83113438 -0.55517635
vn -0.24687476 -0.96878617 -0.02249896
vn -0.22196026 -0.95716566 0.18592349
vn -0.92493202 -0.20119381 -0.32252413
vn -0.79980193 -0.38735426 -0.45855595
vn -0.80206524 0.59717840 -0.00832471
vn -0.71139186 -0.27747514 0.64570053
vn -0.88344605 -0.34337855 0.31876990
vn -0.95150251 -0.28843298 0.10700178
vn 0.47877069 0.87734685 -0.03226668
f 13//13 3//3 6//6
f 16//16 13//13 7//7
f 18//18 11//11 6//6
f 18//18 6//6 3//3
f 18//18 13//13 11//11
f 18//18 3//3 13//13
f 19//19 6//6 11//11
f 22//22 12//12 6//6
f 22//22 6//6 4//4
f 23//23 6//6 12//12
f 24//24 7//7 13//13
f 24//24 23//23 1//1
f 24//24 6//6 23//23
f 28//28 16//16 7//7
f 28//28 1//1 16//16
f 28//28 24//24 1//1
f 28//28 7//7 24//24
f 29//29 16//16 1//1
f 30//30 2//2 13//13
f 30//30 13//13 16//16
f 30//30 16//16 29//29
f 32//32 19//19 11//11
f 32//32 4//4 6//6
f 32//32 6//6 19//19
f 35//35 11//11 13//13
f 35//35 13//13 21//21
f 37//37 21//21 13//13
f 37//37 13//13 2//2
f 40//40 39//39 9//9
f 40//40 23//23 39//39
f 41//41 24//24 13//13
f 41//41 6//6 24//24
f 42//42 25//25 5//5
f 42//42 31//31 14//14
f 42//42 5//5 31//31
f 43//43 5//5 25//25
f 43//43 25//25 8//8
f 43//43 8//8 26//26
f 44//44 8//8 25//25
f 44//44 30//30 8//8
f 44//44 2//2 30//30
f 44//44 42//42 14//14
f 44//44 25//25 42//42
f 45//45 26//26 8//8
f 45//45 1//1 26//26
f 45//45 29//29 1//1
f 45//45 30//30 29//29
f 45//45 8//8 30//30
f 46//46 26//26 1//1
f 46//46 1//1 23//23
f 46//46 23//23 40//40
f 47//47 15//15 27//27
f 47//47 43//43 15//15
f 47//47 5//5 43//43
f 47//47 27//27 38//38
f 47//47 38//38 17//17
f 47//47 17//17 5//5
f 49//49 31//31 5//5
f 49//49 5//5 17//17
f 50//50 14//14 31//31
f 50//50 31//31 10//10
f 50//50 10//10 21//21
f 51//51 20//20 4//4
f 51//51 4//4 32//32
f 51//51 32//32 11//11
f 51//51 35//35 20//20
f 51//51 11//11 35//35
f 52//52 4//4 20//20
f 52//52 34//34 33//33
f 52//52 20//20 34//34
f 53//53 34//34 20//20
f 53//53 20//20 35//35
f 54//54 17//17 33//33
f 54//54 33//33 34//34
f 54//54 49//49 17//17
f 54//54 34//34 53//53
f 54//54 53//53 10//10
f 54//54 10//10 31//31
f 54//54 31//31 49//49
f 55//55 35//35 21//21
f 55//55 21//21 10//10
f 55//55 53//53 35//35
f 55//55 10//10 53//53
f 56//56 37//37 36//36
f 56//56 21//21 37//37
f 56//56 50//50 21//21
f 56//56 36//36 14//14
f 56//56 14//14 50//50
f 57//57 37//37 2//2
f 57//57 36//36 37//37
f 57//57 2//2 44//44
f 57//57 44//44 14//14
f 57//57 14//14 36//36
f 58//58 12//12 22//22
f 58//58 52//52 38//38
f 58//58 22//22 4//4
f 58//58 4//4 52//52
f 58//58 48//48 12//12
f 58//58 38//38 48//48
f 59//59 33//33 17//17
f 59//59 17//17 38//38
f 59//59 52//52 33//33
f 59//59 38//38 52//52
f 60//60 39//39 23//23
f 60//60 23//23 12//12
f 60//60 12//12 48//48
f 60//60 9//9 39//39
f 61//61 46//46 40//40
f 61//61 26//26 46//46
f 61//61 43//43 26//26
f 61//61 15//15 43//43
f 62//62 27//27 15//15
f 62//62 61//61 40//40
f 62//62 15//15 61//61
f 63//63 40//40 9//9
f 63//63 62//62 40//40
f 63//63 27//27 62//62
f 63//63 60//60 48//48
f 63//63 9//9 60//60
f 63//63 48//48 38//38
f 63//63 38//38 27//27
f 64//64 41//41 13//13
f 64//64 13//13 6//6
f 64//64 6//6 41//41

