# https://github.com/mikedh/trimesh
v 0.06562211 -0.00202723 0.02273554
v 0.07068781 -0.01588521 0.01286013
v 0.07225874 -0.00215528 -0.00112515
v 0.05201724 -0.03057509 -0.02477949
v 0.04354235 -0.03151773 0.02012214
v 0.06587210 -0.02969123 -0.00103491
v 0.05304463 -0.00257740 0.01113339
v 0.07101360 -0.00221440 0.01847559
v 0.05754069 -0.03030579 0.02223394
v 0.07069114 -0.01748193 -0.00117171
v 0.04329882 -0.03149511 -0.01961117
v 0.06234252 -0.00217206 -0.00121002
v 0.05759509 -0.00241406 0.02267597
v 0.07074326 -0.01124636 0.01671893
v 0.06828187 -0.00205573 0.02125912
v 0.06593674 -0.02978208 0.01422736
v 0.06922609 -0.02195197 -0.00107270
v 0.04140757 -0.03125475 0.01394766
v 0.05249821 -0.01502446 -0.02107548
v 0.05376549 -0.00301372 0.01837292
v 0.05060778 -0.03098773 0.02411997
v 0.06958467 -0.00967867 0.01913971
v 0.06366145 -0.01755790 0.02206988
v 0.06892517 -0.02059671 0.01579616
v 0.06744907 -0.02663462 0.00365562
v 0.06909280 -0.02226007 0.01294106
v 0.05059441 -0.00756843 0.01230007
v 0.05273193 -0.02317374 -0.02339548
v 0.05505226 -0.00400675 0.02083911
v 0.04159976 -0.03122999 0.01731099
v 0.04504361 -0.03136306 0.02107916
v 0.06313957 -0.02994321 0.01922831
v 0.07055390 -0.00804917 0.01818363
v 0.06659047 -0.01598081 0.02072524
v 0.05297700 -0.03029421 0.02396480
v 0.06897750 -0.01592547 0.01817910
v 0.07067181 -0.01747707 0.00040624
v 0.06738445 -0.02640226 0.01409271
v 0.05274343 -0.01818091 -0.02225396
v 0.05641857 -0.00411422 0.02227545
v 0.06602235 -0.02808880 0.01646060
v 0.06348856 -0.02528425 0.02046562
v 0.06517934 -0.00970086 0.02216977
v 0.06820342 -0.00648935 0.02073086
v 0.05329634 -0.02753181 0.02395774
v 0.06899770 -0.01903457 0.01675614
v 0.06772334 -0.01743816 0.01921727
v 0.04792851 -0.03094842 -0.02385545
v 0.06425038 -0.02942236 0.01800795
v 0.06188855 -0.02843195 0.02054522
v 0.06737254 -0.02206642 0.01816816
v 0.06644674 -0.02173608 0.01923851
vn 0.20784179 0.64798664 0.73274491
vn 0.97957043 -0.16850190 0.10976740
vn 0.70731937 0.62652307 -0.32736546
vn 0.26619655 -0.53280381 -0.80328046
vn -0.56615702 -0.59145944 0.57414455
vn 0.61431404 -0.76887963 -0.17731998
vn -0.57219381 0.81886205 -0.04537839
vn 0.74067712 0.58544185 0.32962896
vn 0.31585072 -0.69751495 0.64320387
vn 0.94009630 -0.18427899 -0.28681037
vn -0.77687307 -0.51017373 -0.36904064
vn -0.15757251 0.94349306 -0.29153346
vn -0.25818026 0.68369992 0.68256675
vn 0.95340547 -0.12538181 0.27440375
vn 0.46734763 0.64356415 0.60614469
vn 0.60472705 -0.78822363 0.11405572
vn 0.90792885 -0.33507688 -0.25177111
vn -0.86649544 -0.49918375 0.00110706
vn -0.25246784 0.62558399 -0.73817657
vn -0.65281888 0.70334352 0.28131016
vn -0.15898186 -0.61758473 0.77026870
vn 0.73518603 -0.13102442 0.66508202
vn 0.38307797 -0.12706299 0.91493511
vn 0.91744950 -0.26893928 0.29318607
vn 0.91561604 -0.40189068 -0.01145210
vn 0.94569473 -0.30553980 0.11093653
vn -0.91286228 0.40635748 0.03944687
vn 0.27310427 0.17131967 -0.94660638
vn -0.71784178 0.35898280 0.59651867
vn -0.86141626 -0.43199799 0.26709503
vn -0.42548559 -0.46878809 0.77407993
vn 0.46173185 -0.74672932 0.47874735
vn 0.87045849 -0.10569943 0.48075944
vn 0.58611345 -0.14969116 0.79628109
vn 0.21593171 -0.36704814 0.90479233
vn 0.81588717 -0.18794980 0.54681166
vn 0.98038894 -0.19657501 0.01399287
vn 0.91983784 -0.36168075 0.15193876
vn 0.12570148 0.28714366 -0.94960395
vn -0.62987877 0.25337983 0.73420119
vn 0.81951856 -0.40245542 0.40794481
vn 0.52085748 -0.22024512 0.82474213
vn 0.44592246 -0.09198204 0.89033278
vn 0.62614638 -0.10377592 0.77276857
vn 0.05906823 0.01747852 0.99810092
vn 0.89517534 -0.22583959 0.38426240
vn 0.72060137 -0.19047972 0.66667169
vn -0.37951287 -0.54669636 -0.74638667
vn 0.73435643 -0.51605110 0.44092164
vn 0.47366166 -0.25720177 0.84231341
vn 0.79227553 -0.27180804 0.54627820
vn 0.65015740 -0.23083198 0.72388670
f 10//10 3//3 2//2
f 10//10 4//4 3//3
f 11//11 4//4 6//6
f 12//12 7//7 1//1
f 12//12 1//1 3//3
f 13//13 1//1 7//7
f 14//14 2//2 3//3
f 14//14 3//3 8//8
f 15//15 8//8 3//3
f 15//15 3//3 1//1
f 16//16 11//11 6//6
f 17//17 6//6 4//4
f 17//17 4//4 10//10
f 18//18 11//11 5//5
f 19//19 12//12 3//3
f 19//19 11//11 7//7
f 19//19 7//7 12//12
f 20//20 13//13 7//7
f 21//21 1//1 13//13
f 21//21 5//5 11//11
f 21//21 11//11 16//16
f 22//22 8//8 15//15
f 24//24 2//2 14//14
f 25//25 16//16 6//6
f 25//25 6//6 17//17
f 26//26 17//17 10//10
f 26//26 25//25 17//17
f 26//26 2//2 24//24
f 27//27 7//7 11//11
f 27//27 11//11 18//18
f 27//27 20//20 7//7
f 28//28 3//3 4//4
f 29//29 13//13 20//20
f 30//30 18//18 5//5
f 30//30 29//29 20//20
f 30//30 5//5 29//29
f 30//30 27//27 18//18
f 30//30 20//20 27//27
f 31//31 21//21 13//13
f 31//31 13//13 5//5
f 31//31 5//5 21//21
f 32//32 21//21 16//16
f 32//32 9//9 21//21
f 33//33 14//14 8//8
f 33//33 8//8 22//22
f 34//34 15//15 1//1
f 35//35 21//21 9//9
f 35//35 9//9 23//23
f 35//35 23//23 1//1
f 36//36 33//33 22//22
f 36//36 14//14 33//33
f 37//37 26//26 10//10
f 37//37 10//10 2//2
f 37//37 2//2 26//26
f 38//38 16//16 25//25
f 38//38 25//25 26//26
f 38//38 26//26 24//24
f 39//39 19//19 3//3
f 39//39 3//3 28//28
f 40//40 29//29 5//5
f 40//40 5//5 13//13
f 40//40 13//13 29//29
f 41//41 38//38 24//24
f 41//41 16//16 38//38
f 42//42 23//23 9//9
f 42//42 34//34 23//23
f 43//43 34//34 1//1
f 43//43 1//1 23//23
f 43//43 23//23 34//34
f 44//44 34//34 22//22
f 44//44 22//22 15//15
f 44//44 15//15 34//34
f 45//45 35//35 1//1
f 45//45 1//1 21//21
f 45//45 21//21 35//35
f 46//46 24//24 14//14
f 46//46 14//14 36//36
f 47//47 36//36 22//22
f 47//47 22//22 34//34
f 48//48 11//11 19//19
f 48//48 19//19 39//39
f 48//48 4//4 11//11
f 48//48 39//39 28//28
f 48//48 28//28 4//4
f 49//49 41//41 32//32
f 49//49 32//32 16//16
f 49//49 16//16 41//41
f 50//50 42//42 9//9
f 50//50 9//9 32//32
f 50//50 32//32 42//42
f 51//51 41//41 24//24
f 51//51 24//24 46//46
f 51//51 46//46 36//36
f 51//51 36//36 47//47
f 51//51 32//32 41//41
f 52//52 42//42 32//32
f 52//52 32//32 51//51
f 52//52 34//34 42//42
f 52//52 51//51 47//47
f 52//52 47//47 34//34

