# https://github.com/mikedh/trimesh
v -0.06644427 0.04359952 0.02720759
v -0.06305912 -0.00409430 0.01560352
v -0.05705222 0.04790377 -0.01299812
v -0.07179412 0.05027223 -0.02338054
v -0.09081269 0.03070963 0.02000476
v -0.06727025 -0.00875856 -0.02309441
v -0.06819694 0.05447105 0.01719838
v -0.05709728 0.04533581 0.01597663
v -0.07382873 -0.00384817 0.02545273
v -0.06257887 -0.00836535 -0.01709596
v -0.05994661 0.04383324 -0.02002587
v -0.08068312 -0.00403779 -0.02030479
v -0.06713019 0.05425697 -0.01522627
v -0.07149529 0.05175368 0.02235113
v -0.06289529 0.03919804 0.02547017
v -0.06181319 0.04947610 0.02284585
v -0.07834071 0.02371492 0.02740240
v -0.08079084 -0.00804936 -0.01680068
v -0.06903455 -0.00379935 0.02444666
v -0.06162393 -0.00410749 0.00341519
v -0.06998328 0.04188475 -0.02457951
v -0.06451220 -0.00870340 -0.02058176
v -0.05727421 0.04421089 -0.01463896
v -0.08027094 0.02736375 -0.02096669
v -0.05668842 0.04977550 0.00071728
v -0.07730636 0.05320332 -0.00112835
v -0.06416100 0.05143498 -0.02047644
v -0.08747167 0.03041035 0.02338014
v -0.05879581 0.04081730 0.01983184
v -0.06296337 0.04335088 0.02553664
v -0.06574038 0.04901588 0.02526906
v -0.07268612 0.01403246 0.02706220
v -0.07614007 -0.00831434 -0.02485828
v -0.08033018 -0.00335258 0.01722973
v -0.08348909 0.00127875 -0.01347937
v -0.06471695 -0.00388549 0.01992747
v -0.07162773 -0.00377782 0.02582049
v -0.05726701 0.04213793 0.01554625
v -0.06546500 0.04639526 -0.02293439
v -0.05859644 0.04648490 -0.01774976
v -0.05724527 0.03810317 -0.00403865
v -0.06539019 0.05421142 0.01278424
v -0.05982542 0.05034392 -0.01731421
v -0.05882322 0.05052361 0.01555179
v -0.07313534 0.05466844 -0.01783892
v -0.07312668 0.05420210 0.01731192
v -0.07725736 0.04940448 0.01978114
v -0.07291409 0.03975701 0.02702336
v -0.07783661 -0.00377698 0.02393325
v -0.05883437 0.04652487 0.01998734
v -0.06417968 0.04742136 0.02523307
v -0.06706593 0.05304657 0.02159016
v -0.08055052 -0.00789982 -0.01979160
v -0.07152952 -0.00830382 -0.02452056
v -0.07779140 0.00295437 -0.02464030
v -0.08352511 -0.00030866 -0.01107264
v -0.08339339 0.01339013 -0.01633989
v -0.06178985 0.04070817 0.02432355
v -0.07178246 0.01544819 0.02704088
v -0.06716150 0.03283730 0.02689284
v -0.07657450 0.01750178 0.02711073
v -0.06115396 0.04889933 -0.02004864
v -0.06719399 0.04924325 -0.02300893
v -0.05735032 0.04633702 -0.01453949
vn 0.11956986 0.18210141 0.97598265
vn 0.74124598 -0.63321981 0.22268156
vn 0.93734917 0.31386198 -0.15121902
vn -0.34734197 0.46976700 -0.81158642
vn -0.94067221 0.15630362 0.30117268
vn 0.34853082 -0.69758722 -0.62601785
vn 0.12896146 0.97711302 0.16917174
vn 0.97272700 0.10532349 0.20666193
vn -0.17502264 -0.69330379 0.69906862
vn 0.69757568 -0.70254844 -0.14076171
vn 0.71056673 0.01347060 -0.70350087
vn -0.86047468 -0.07713393 -0.50362058
vn 0.26320945 0.95389721 -0.14422515
vn -0.31664740 0.64176086 0.69848223
vn 0.60798947 -0.06719458 0.79109651
vn 0.61272077 0.52985590 0.58636676
vn -0.23718499 -0.02494929 0.97114407
vn -0.60816654 -0.79378902 0.00569665
vn 0.43610601 -0.66484401 0.60646021
vn 0.93020538 -0.36118933 0.06527035
vn 0.01988622 0.05100423 -0.99850043
vn 0.56075848 -0.72269436 -0.40405791
vn 0.96993451 -0.04305175 -0.23952785
vn -0.78686017 0.14780141 -0.59917094
vn 0.85886955 0.51213242 -0.00796823
vn -0.68055980 0.73043414 -0.05748333
vn 0.37508308 0.70673876 -0.59986082
vn -0.58515026 0.12929882 0.80055043
vn 0.89448801 -0.07309148 0.44107690
vn 0.60487502 0.09286741 0.79088675
vn 0.10759412 0.50274693 0.85771151
vn 0.03376260 -0.05744439 0.99777765
vn -0.29037840 -0.63198366 -0.71852421
vn -0.78385580 -0.59612991 0.17377921
vn -0.97057104 -0.11255828 -0.21289080
vn 0.62910969 -0.64982335 0.42655670
vn 0.13014579 -0.63596779 0.76066224
vn 0.98305304 -0.08937952 0.16005630
vn 0.38616075 0.10952082 -0.91590669
vn 0.86185999 0.14540781 -0.48585381
vn 0.99675380 -0.07875771 -0.01670613
vn 0.30165779 0.95174594 0.05641130
vn 0.67767985 0.65402862 -0.33614965
vn 0.73203913 0.65114829 0.20031128
vn -0.44644844 0.81562640 -0.36801816
vn -0.38200368 0.89222953 0.24083118
vn -0.67138662 0.58709683 0.45228013
vn -0.25421503 0.22057631 0.94165854
vn -0.50308268 -0.66096081 0.55681112
vn 0.86130680 0.20003187 0.46705230
vn 0.45223608 0.29279122 0.84247008
vn 0.16048482 0.85446737 0.49409527
vn -0.70247385 -0.63282327 -0.32567653
vn 0.14244529 -0.52583065 -0.83857705
vn -0.49454544 -0.00296564 -0.86914672
vn -0.96562486 -0.25806039 -0.03120049
vn -0.92920713 0.01524433 -0.36924479
vn 0.78684292 -0.02984280 0.61643137
vn 0.15044131 -0.03993620 0.98781198
vn 0.30454869 -0.05817539 0.95071853
vn -0.11585516 -0.08056470 0.98999339
vn 0.60951381 0.33640502 -0.71786111
vn 0.25536952 0.36129041 -0.89680301
vn 0.94646271 0.09231186 -0.30933293
f 20//20 2//2 10//10
f 22//22 11//11 10//10
f 22//22 6//6 11//11
f 22//22 18//18 6//6
f 22//22 10//10 9//9
f 22//22 9//9 18//18
f 30//30 1//1 15//15
f 32//32 1//1 17//17
f 33//33 6//6 18//18
f 36//36 19//19 10//10
f 36//36 10//10 2//2
f 36//36 2//2 29//29
f 36//36 15//15 19//19
f 37//37 9//9 10//10
f 37//37 10//10 19//19
f 37//37 19//19 15//15
f 38//38 2//2 20//20
f 38//38 29//29 2//2
f 38//38 8//8 29//29
f 39//39 11//11 6//6
f 39//39 6//6 21//21
f 40//40 23//23 10//10
f 40//40 10//10 11//11
f 41//41 20//20 10//10
f 41//41 10//10 23//23
f 41//41 38//38 20//20
f 41//41 25//25 8//8
f 41//41 8//8 38//38
f 41//41 23//23 3//3
f 41//41 3//3 25//25
f 42//42 25//25 13//13
f 42//42 13//13 7//7
f 43//43 25//25 3//3
f 43//43 13//13 25//25
f 43//43 27//27 13//13
f 43//43 3//3 40//40
f 44//44 8//8 25//25
f 44//44 25//25 42//42
f 45//45 4//4 24//24
f 45//45 24//24 5//5
f 45//45 5//5 26//26
f 45//45 27//27 4//4
f 45//45 13//13 27//27
f 45//45 7//7 13//13
f 46//46 45//45 26//26
f 46//46 7//7 45//45
f 47//47 28//28 14//14
f 47//47 5//5 28//28
f 47//47 14//14 46//46
f 47//47 46//46 26//26
f 47//47 26//26 5//5
f 48//48 14//14 28//28
f 48//48 31//31 14//14
f 48//48 1//1 31//31
f 48//48 28//28 17//17
f 48//48 17//17 1//1
f 49//49 28//28 5//5
f 49//49 9//9 17//17
f 49//49 17//17 28//28
f 49//49 5//5 34//34
f 49//49 34//34 18//18
f 49//49 18//18 9//9
f 50//50 29//29 8//8
f 50//50 16//16 30//30
f 50//50 44//44 16//16
f 50//50 8//8 44//44
f 51//51 30//30 16//16
f 51//51 16//16 31//31
f 51//51 31//31 1//1
f 51//51 1//1 30//30
f 52//52 31//31 16//16
f 52//52 14//14 31//31
f 52//52 46//46 14//14
f 52//52 7//7 46//46
f 52//52 16//16 44//44
f 52//52 44//44 42//42
f 52//52 42//42 7//7
f 53//53 33//33 18//18
f 53//53 12//12 33//33
f 53//53 35//35 12//12
f 54//54 33//33 21//21
f 54//54 21//21 6//6
f 54//54 6//6 33//33
f 55//55 33//33 12//12
f 55//55 24//24 4//4
f 55//55 4//4 21//21
f 55//55 21//21 33//33
f 56//56 34//34 5//5
f 56//56 18//18 34//34
f 56//56 5//5 35//35
f 56//56 53//53 18//18
f 56//56 35//35 53//53
f 57//57 12//12 35//35
f 57//57 55//55 12//12
f 57//57 24//24 55//55
f 57//57 35//35 5//5
f 57//57 5//5 24//24
f 58//58 36//36 29//29
f 58//58 15//15 36//36
f 58//58 29//29 50//50
f 58//58 50//50 30//30
f 58//58 30//30 15//15
f 59//59 1//1 32//32
f 59//59 32//32 37//37
f 60//60 37//37 15//15
f 60//60 15//15 1//1
f 60//60 59//59 37//37
f 60//60 1//1 59//59
f 61//61 37//37 32//32
f 61//61 32//32 17//17
f 61//61 17//17 9//9
f 61//61 9//9 37//37
f 62//62 11//11 39//39
f 62//62 27//27 43//43
f 62//62 43//43 40//40
f 62//62 40//40 11//11
f 63//63 39//39 21//21
f 63//63 21//21 4//4
f 63//63 4//4 27//27
f 63//63 62//62 39//39
f 63//63 27//27 62//62
f 64//64 40//40 3//3
f 64//64 3//3 23//23
f 64//64 23//23 40//40

