# https://github.com/mikedh/trimesh
v 0.05297700 -0.03029421 0.02396480
v 0.06485062 -0.02977234 0.01684482
v 0.04943546 -0.03095467 -0.02448174
v 0.01431439 -0.05016518 -0.02306711
v 0.01382486 -0.06686172 0.01548808
v 0.01460035 -0.04356499 0.01223649
v 0.06516307 -0.02991549 -0.01788049
v 0.04458096 -0.05292925 0.01904209
v 0.04074820 -0.03183234 0.01701698
v 0.01450918 -0.04505352 -0.01670459
v 0.01485754 -0.04746498 0.02252408
v 0.01422791 -0.04484186 0.01728306
v 0.06191160 -0.03013298 -0.02211515
v 0.05858553 -0.03623875 0.02056270
v 0.05817197 -0.04337991 0.00526115
v 0.04666150 -0.03128121 -0.02321256
v 0.04226377 -0.03216213 -0.01926872
v 0.04943392 -0.03097485 0.02398772
v 0.01397562 -0.06017672 0.02237804
v 0.01367794 -0.06696076 -0.01811975
v 0.05211511 -0.03077028 -0.02481030
v 0.06047327 -0.03017803 0.02091614
v 0.05303536 -0.03930051 0.02203706
v 0.06433891 -0.03284293 0.01438913
v 0.01449789 -0.04752171 -0.02138305
v 0.01471722 -0.04372865 -0.00218628
v 0.04052571 -0.03191885 0.01387308
v 0.04257381 -0.03209737 0.01961766
v 0.02534356 -0.04899359 0.02413713
v 0.02802781 -0.06201470 0.01932894
v 0.01381073 -0.06543235 0.01865456
v 0.04883964 -0.05109229 -0.01756345
v 0.01406609 -0.06294799 -0.02334423
v 0.06139783 -0.03292463 0.01956290
v 0.05746232 -0.03185769 0.02204771
v 0.05230675 -0.04637634 0.01930653
v 0.06275131 -0.03588245 -0.01211817
v 0.01489064 -0.04665341 -0.02045792
v 0.02084952 -0.04670377 0.02387388
v 0.04208901 -0.04262441 0.02362748
v 0.02939018 -0.06341281 0.01287455
v 0.01401108 -0.06287363 0.02140287
v 0.02475317 -0.06352267 0.01822429
v 0.06121530 -0.03559910 -0.01927402
v 0.04748717 -0.05393871 0.01109337
v 0.01377757 -0.06567358 -0.02167636
v 0.03619580 -0.04775079 -0.02479252
v 0.06030724 -0.03169185 0.02065177
v 0.05950924 -0.03897268 0.01804895
v 0.05754069 -0.03030579 0.02223394
v 0.05455562 -0.03798257 0.02201801
v 0.04486582 -0.05011836 0.02060630
v 0.06130348 -0.03865165 0.01401601
v 0.06422878 -0.03277995 -0.01510200
v 0.05979969 -0.04040380 -0.01216666
v 0.02253055 -0.04616163 0.02394760
v 0.02068594 -0.04897126 0.02385171
v 0.04990821 -0.03636465 0.02368606
v 0.03261940 -0.05522618 0.02204749
v 0.01850817 -0.06664479 -0.00579666
v 0.03668271 -0.06034338 0.01450590
v 0.02000340 -0.06360628 0.01963991
v 0.01706554 -0.06487579 0.01853260
v 0.02779882 -0.06350252 0.01598450
vn 0.10743888 0.63973103 0.76105262
vn 0.77403219 0.52964860 0.34690997
vn -0.16925324 0.75769318 -0.63028119
vn -0.70831099 0.17700544 -0.68334810
vn -0.57952514 -0.79646019 0.17263192
vn -0.74972526 0.66019916 0.04526699
vn 0.81482695 0.49411532 -0.30316182
vn 0.46867664 -0.65834459 0.58900307
vn -0.31151923 0.93799699 0.15204415
vn -0.80462748 0.57335272 -0.15440618
vn -0.67293613 0.33165435 0.66118254
vn -0.81671911 0.53347727 0.21993613
vn 0.48579670 0.49802355 -0.71831338
vn 0.53618112 -0.31375524 0.78362456
vn 0.76612549 -0.64259769 0.01095151
vn -0.29263539 0.89522610 -0.33605768
vn -0.34674357 0.92890856 -0.12999151
vn -0.15965918 0.64917609 0.74369305
vn -0.65454268 -0.16949509 0.73678036
vn -0.53907896 -0.81953775 -0.19429810
vn 0.09998835 0.60187544 -0.79230568
vn 0.43977413 0.54930108 0.71053996
vn 0.27528815 -0.31580390 0.90801120
vn 0.92155575 -0.35827561 0.14957804
vn -0.76102341 0.45555701 -0.46185624
vn -0.75198275 0.65857537 -0.02829176
vn -0.30331837 0.95281832 -0.01162842
vn -0.38423291 0.84206140 0.37854678
vn 0.01979209 -0.09908659 0.99488196
vn 0.27381800 -0.70875316 0.65014818
vn -0.62495530 -0.65328449 0.42737601
vn 0.53565617 -0.70609957 -0.46313698
vn -0.51781815 -0.28173281 -0.80776914
vn 0.67844043 -0.27025138 0.68314184
vn 0.38869858 -0.16163282 0.90707676
vn 0.56777722 -0.57703472 0.58707748
vn 0.86186397 -0.50324356 -0.06274098
vn -0.52096058 0.74014211 -0.42519375
vn -0.18370423 0.20922265 0.96045752
vn 0.13952978 -0.18893238 0.97202675
vn 0.33029027 -0.94311886 0.03788347
vn -0.55413890 -0.45130609 0.69946615
vn 0.21062471 -0.87944500 0.42686500
vn 0.68299659 -0.51939011 -0.51356555
vn 0.61002815 -0.78511760 0.10703278
vn -0.50112505 -0.67930784 -0.53611057
vn 0.14096369 -0.23445606 -0.96185217
vn 0.52963230 -0.20607429 0.82281408
vn 0.71120349 -0.51138075 0.48236846
vn 0.34510297 0.39281245 0.85240971
vn 0.36177239 -0.28471880 0.88772515
vn 0.30288147 -0.40039274 0.86484014
vn 0.81747593 -0.55190424 0.16472649
vn 0.88978214 -0.44208475 -0.11335265
vn 0.77757891 -0.61568119 -0.12770168
vn -0.06748095 0.09494545 0.99319267
vn -0.12953243 -0.03072241 0.99109913
vn 0.16599168 -0.17083524 0.97121681
vn 0.19734477 -0.37405179 0.90616792
vn 0.25028625 -0.96684449 -0.05068066
vn 0.45571461 -0.86606728 0.20555210
vn 0.15816094 -0.73943736 0.65438331
vn 0.16853604 -0.86934240 0.46458519
vn 0.29183593 -0.92657152 0.23726989
f 7//7 1//1 2//2
f 12//12 9//9 6//6
f 12//12 10//10 4//4
f 12//12 6//6 10//10
f 13//13 1//1 7//7
f 16//16 9//9 1//1
f 16//16 1//1 3//3
f 17//17 16//16 10//10
f 18//18 1//1 9//9
f 18//18 12//12 11//11
f 19//19 11//11 12//12
f 20//20 12//12 4//4
f 21//21 3//3 1//1
f 21//21 1//1 13//13
f 21//21 4//4 3//3
f 22//22 2//2 1//1
f 24//24 7//7 2//2
f 25//25 16//16 3//3
f 25//25 3//3 4//4
f 25//25 4//4 10//10
f 26//26 17//17 10//10
f 26//26 10//10 6//6
f 27//27 9//9 16//16
f 27//27 16//16 17//17
f 27//27 17//17 26//26
f 27//27 26//26 6//6
f 27//27 6//6 9//9
f 28//28 18//18 9//9
f 28//28 9//9 12//12
f 28//28 12//12 18//18
f 29//29 1//1 18//18
f 31//31 19//19 12//12
f 31//31 20//20 5//5
f 31//31 12//12 20//20
f 34//34 2//2 22//22
f 35//35 14//14 22//22
f 38//38 25//25 10//10
f 38//38 10//10 16//16
f 38//38 16//16 25//25
f 39//39 18//18 11//11
f 42//42 19//19 31//31
f 44//44 32//32 13//13
f 44//44 13//13 7//7
f 45//45 32//32 15//15
f 45//45 36//36 8//8
f 46//46 20//20 4//4
f 46//46 4//4 33//33
f 46//46 32//32 20//20
f 47//47 33//33 4//4
f 47//47 4//4 21//21
f 47//47 21//21 13//13
f 47//47 13//13 32//32
f 47//47 46//46 33//33
f 47//47 32//32 46//46
f 48//48 34//34 22//22
f 48//48 22//22 14//14
f 48//48 14//14 34//34
f 49//49 24//24 2//2
f 49//49 2//2 34//34
f 49//49 34//34 14//14
f 49//49 14//14 36//36
f 50//50 35//35 22//22
f 50//50 22//22 1//1
f 50//50 1//1 35//35
f 51//51 14//14 35//35
f 51//51 36//36 14//14
f 51//51 35//35 1//1
f 52//52 8//8 36//36
f 52//52 51//51 23//23
f 52//52 36//36 51//51
f 53//53 37//37 24//24
f 53//53 15//15 37//37
f 53//53 24//24 49//49
f 53//53 45//45 15//15
f 53//53 49//49 36//36
f 53//53 36//36 45//45
f 54//54 7//7 24//24
f 54//54 24//24 37//37
f 54//54 44//44 7//7
f 55//55 37//37 15//15
f 55//55 15//15 32//32
f 55//55 32//32 44//44
f 55//55 54//54 37//37
f 55//55 44//44 54//54
f 56//56 39//39 29//29
f 56//56 29//29 18//18
f 56//56 18//18 39//39
f 57//57 19//19 29//29
f 57//57 29//29 39//39
f 57//57 39//39 11//11
f 57//57 11//11 19//19
f 58//58 1//1 29//29
f 58//58 29//29 40//40
f 58//58 51//51 1//1
f 58//58 23//23 51//51
f 59//59 40//40 29//29
f 59//59 29//29 19//19
f 59//59 30//30 8//8
f 59//59 8//8 52//52
f 59//59 42//42 30//30
f 59//59 19//19 42//42
f 59//59 52//52 23//23
f 59//59 58//58 40//40
f 59//59 23//23 58//58
f 60//60 41//41 5//5
f 60//60 5//5 20//20
f 60//60 20//20 32//32
f 61//61 8//8 30//30
f 61//61 45//45 8//8
f 61//61 32//32 45//45
f 61//61 60//60 32//32
f 61//61 41//41 60//60
f 62//62 42//42 31//31
f 62//62 30//30 42//42
f 62//62 43//43 30//30
f 63//63 31//31 5//5
f 63//63 5//5 43//43
f 63//63 62//62 31//31
f 63//63 43//43 62//62
f 64//64 43//43 5//5
f 64//64 5//5 41//41
f 64//64 41//41 61//61
f 64//64 61//61 30//30
f 64//64 30//30 43//43

