# https://github.com/mikedh/trimesh
v 0.06673146 0.03076678 0.02114193
v 0.07101360 -0.00221440 0.01847559
v 0.07133419 0.03090648 -0.00114768
v 0.05621732 0.03174093 -0.00176761
v 0.05320589 -0.00267634 0.01715585
v 0.05339544 0.03190528 0.01854893
v 0.07052026 0.03062068 0.01662240
v 0.05759509 -0.00241406 0.02267597
v 0.07225874 -0.00215528 -0.00112515
v 0.05290419 0.02383901 0.00208470
v 0.06929439 0.02596970 0.01938027
v 0.05496312 -0.00262766 0.02004757
v 0.06695033 -0.00197064 0.02216211
v 0.05918377 0.02258859 0.02229127
v 0.07241427 0.01674842 0.01271108
v 0.05677770 0.03149464 -0.00182988
v 0.05310831 0.03112019 0.00137716
v 0.05211322 0.02943738 0.01535349
v 0.06234252 -0.00217206 -0.00121002
v 0.06776247 0.02596016 0.02095802
v 0.05762354 0.03123200 0.02089989
v 0.06570854 0.02290384 0.02223048
v 0.07239301 -0.00046575 0.01137150
v 0.07240095 0.01976742 -0.00116727
v 0.07238310 0.01824321 0.01142406
v 0.05215258 0.03145176 0.00999513
v 0.05304463 -0.00257740 0.01113339
v 0.06310151 0.02433227 0.02228510
v 0.06633779 0.00875520 0.02240169
v 0.07239069 0.00259455 0.01286319
v 0.07232797 -0.00042178 -0.00092681
v 0.07237104 0.01973576 0.00356690
v 0.05226881 0.03070508 0.01455486
v 0.05229652 0.02894175 0.00691121
v 0.05231120 0.02199779 0.01385954
v 0.06439928 0.02431554 0.02227878
v 0.05226536 0.02308609 0.00871983
vn 0.33414557 0.65762601 0.67518499
vn 0.66925909 -0.63711613 0.38232880
vn 0.58274772 0.59077544 -0.55802283
vn -0.33100698 0.63342836 -0.69943040
vn -0.70794483 -0.67328834 0.21330008
vn -0.56812412 0.67151931 0.47570664
vn 0.70686999 0.65643879 0.26348231
vn -0.26623928 -0.61062471 0.74582445
vn 0.57188462 -0.58523719 -0.57484382
vn -0.87542058 -0.08195434 -0.47636361
vn 0.79998133 0.07312045 0.59555291
vn -0.55325851 -0.69275059 0.46260312
vn 0.32039808 -0.58493044 0.74511841
vn -0.24690509 0.05946878 0.96721318
vn 0.98553302 0.03300792 0.16623819
vn -0.01020868 0.15087773 -0.98849972
vn -0.76744519 0.52449948 -0.36868439
vn -0.98091127 0.06371918 0.18371974
vn -0.28732406 -0.64837351 -0.70502246
vn 0.60583415 0.06737313 0.79273315
vn -0.18258156 0.62624315 0.75794690
vn 0.27689392 0.04051908 0.96004581
vn 0.97072502 -0.23209514 0.06184474
vn 0.73174844 0.03473912 -0.68068893
vn 0.99592132 0.07833512 0.04476988
vn -0.76692368 0.64062780 -0.03773710
vn -0.70506908 -0.68223442 -0.19347813
vn -0.01485040 0.10113993 0.99476137
vn 0.32705293 0.01100229 0.94494197
vn 0.99194002 -0.01778190 0.12545440
vn 0.99051272 -0.01483548 -0.13661794
vn 0.99734333 0.07210192 0.01037242
vn -0.94365097 0.31409954 0.10423206
vn -0.99536866 0.02341591 -0.09323591
vn -0.99941621 -0.03051430 0.01536614
vn 0.06176444 0.09456325 0.99360100
vn -0.99837331 -0.02790592 -0.04971918
f 6//6 3//3 4//4
f 7//7 6//6 1//1
f 7//7 3//3 6//6
f 9//9 2//2 5//5
f 11//11 7//7 1//1
f 11//11 2//2 7//7
f 12//12 5//5 2//2
f 12//12 2//2 8//8
f 12//12 8//8 6//6
f 12//12 6//6 5//5
f 13//13 8//8 2//2
f 14//14 6//6 8//8
f 15//15 7//7 2//2
f 16//16 4//4 3//3
f 17//17 4//4 10//10
f 18//18 5//5 6//6
f 19//19 10//10 4//4
f 19//19 16//16 9//9
f 19//19 4//4 16//16
f 20//20 11//11 1//1
f 20//20 13//13 2//2
f 20//20 2//2 11//11
f 21//21 1//1 6//6
f 21//21 6//6 14//14
f 22//22 20//20 1//1
f 23//23 2//2 9//9
f 24//24 16//16 3//3
f 24//24 9//9 16//16
f 24//24 15//15 23//23
f 25//25 3//3 7//7
f 25//25 7//7 15//15
f 25//25 15//15 24//24
f 26//26 6//6 4//4
f 26//26 4//4 17//17
f 27//27 19//19 9//9
f 27//27 9//9 5//5
f 27//27 10//10 19//19
f 28//28 21//21 14//14
f 28//28 1//1 21//21
f 28//28 14//14 8//8
f 29//29 13//13 20//20
f 29//29 20//20 22//22
f 29//29 8//8 13//13
f 30//30 23//23 15//15
f 30//30 15//15 2//2
f 30//30 2//2 23//23
f 31//31 24//24 23//23
f 31//31 23//23 9//9
f 31//31 9//9 24//24
f 32//32 25//25 24//24
f 32//32 24//24 3//3
f 32//32 3//3 25//25
f 33//33 26//26 18//18
f 33//33 18//18 6//6
f 33//33 6//6 26//26
f 34//34 26//26 17//17
f 34//34 17//17 10//10
f 35//35 27//27 5//5
f 35//35 5//5 18//18
f 36//36 22//22 1//1
f 36//36 1//1 28//28
f 36//36 29//29 22//22
f 36//36 28//28 8//8
f 36//36 8//8 29//29
f 37//37 34//34 10//10
f 37//37 10//10 27//27
f 37//37 27//27 35//35
f 37//37 26//26 34//34
f 37//37 35//35 18//18
f 37//37 18//18 26//26

