# https://github.com/mikedh/trimesh
v 0.01426103 -0.04820103 0.02277097
v 0.01371713 -0.06496217 0.01962139
v 0.01431439 -0.05016518 -0.02306711
v -0.02546736 -0.05006499 -0.02346965
v -0.02517333 -0.06115840 0.02246094
v -0.00937899 -0.06825554 -0.01813340
v -0.02567105 -0.04316807 -0.01353504
v 0.01463262 -0.04600919 -0.01929319
v 0.01229518 -0.06162193 0.02223901
v 0.01356833 -0.06660653 -0.01960541
v -0.02486226 -0.06664713 -0.01628217
v -0.02601840 -0.04592310 0.01982027
v 0.01382486 -0.06686172 0.01548808
v 0.01453368 -0.04308671 0.00970702
v -0.02576507 -0.04716781 -0.02163834
v -0.01710733 -0.06545412 0.02079900
v 0.01397562 -0.06017672 0.02237804
v 0.01406609 -0.06294799 -0.02334423
v -0.02522645 -0.06101270 -0.02318866
v -0.02573488 -0.05002621 0.02286682
v 0.00922312 -0.06830676 -0.00275759
v 0.01461075 -0.04339122 -0.00073063
v 0.01422791 -0.04484186 0.01728306
v -0.02567076 -0.04309333 0.00486527
v -0.02568336 -0.04479278 -0.01919113
v -0.02605583 -0.04446455 0.01447949
v -0.01879117 -0.06321913 0.02215031
v 0.00757457 -0.06535698 0.02072724
v -0.02508274 -0.06665079 0.00982492
v 0.01354040 -0.06393429 0.02067238
v 0.00762700 -0.06296311 0.02220332
v 0.01377757 -0.06567358 -0.02167636
v -0.00173312 -0.05747702 -0.02476045
v -0.02191429 -0.06378596 -0.02163779
v -0.02580570 -0.04750878 0.02152012
v 0.00791595 -0.06816023 -0.01685249
v 0.01447293 -0.04487216 -0.01514837
v 0.01429167 -0.04620569 0.02028021
v -0.02513846 -0.06524474 -0.01899649
v -0.02492642 -0.06367495 0.02082195
v 0.00131776 -0.06832396 0.01419908
v 0.00753445 -0.06655967 0.01842134
v -0.01715199 -0.06818583 0.00521576
v -0.00480624 -0.05471800 -0.02463530
v -0.01898437 -0.05745497 -0.02474796
v -0.01077028 -0.06425704 -0.02289647
v 0.00453745 -0.06812274 -0.01813313
v -0.01080707 -0.06663697 -0.02048528
v -0.02344681 -0.06655630 -0.01738719
v -0.02502427 -0.06513505 0.01891070
v 0.00920696 -0.06830476 0.00974657
v 0.01218184 -0.06653337 0.01691622
v -0.01113793 -0.06672920 0.01952584
v -0.01406727 -0.06809541 -0.01656919
v -0.01894402 -0.05598759 -0.02461119
v -0.00637788 -0.06019024 -0.02463056
v -0.00018651 -0.06416765 -0.02292396
v 0.01228914 -0.06651363 -0.02056678
v -0.02016973 -0.06526858 -0.02022563
v -0.01396318 -0.06509727 -0.02166186
v -0.02328128 -0.06523966 0.01953779
v 0.00760668 -0.06828192 0.01126990
v -0.01401627 -0.06817738 0.01437544
v -0.00801438 -0.05465719 -0.02460622
vn 0.61914296 0.32084429 0.71674328
vn 0.68728676 -0.58924506 0.42476719
vn 0.63452858 0.28400036 -0.71883050
vn -0.62252391 0.22318170 -0.75010260
vn -0.65916794 -0.22289955 0.71820152
vn -0.03481853 -0.95268406 -0.30196151
vn -0.65182855 0.74947264 -0.11580286
vn 0.67224033 0.62472782 -0.39725066
vn 0.13860819 -0.32590312 0.93518711
vn 0.65503660 -0.74064682 -0.14956381
vn -0.65053474 -0.74761053 -0.13372752
vn -0.67708274 0.63341906 0.37461881
vn 0.71116136 -0.68202208 0.17057371
vn 0.68902670 0.71984614 0.08404609
vn -0.68471268 0.44772311 -0.57507614
vn -0.07443889 -0.74662690 0.66106514
vn 0.69133101 -0.13486314 0.70984038
vn 0.66852539 -0.23878595 -0.70431177
vn -0.68640510 -0.29456681 -0.66488979
vn -0.65077984 0.13863652 0.74650218
vn 0.16790631 -0.98577305 -0.00767892
vn 0.71810552 0.69489929 -0.03794000
vn 0.57287009 0.77495828 0.26694478
vn -0.59208805 0.80484941 0.04061009
vn -0.62905540 0.67702939 -0.38199543
vn -0.71157314 0.68745181 0.14516773
vn -0.05226438 -0.38533857 0.92129399
vn 0.08054289 -0.72776302 0.68108283
vn -0.73904200 -0.67152850 0.05353873
vn 0.52295015 -0.49735554 0.69221428
vn 0.04395811 -0.32563184 0.94447424
vn 0.63725389 -0.58196894 -0.50519267
vn 0.04580840 -0.00799936 -0.99891822
vn -0.15960284 -0.68236315 -0.71337750
vn -0.59885693 0.46511065 0.65195281
vn 0.11974788 -0.98473445 -0.12632695
vn 0.59677648 0.78982682 -0.14153243
vn 0.66806116 0.62966940 0.39649808
vn -0.73332662 -0.56215417 -0.38238038
vn -0.60507348 -0.53421478 0.59033944
vn 0.02331568 -0.98414172 0.17584499
vn 0.08353078 -0.91955552 0.38397951
vn -0.10286634 -0.99464241 0.01024696
vn 0.01251437 0.16520379 -0.98618005
vn -0.08588844 -0.09651257 -0.99161913
vn -0.04814022 -0.54690777 -0.83580764
vn 0.01980997 -0.95258322 -0.30363264
vn -0.06855956 -0.78674032 -0.61346496
vn -0.16929066 -0.90118568 -0.39900508
vn -0.71619419 -0.64459765 0.26750655
vn 0.14917008 -0.98811738 0.03704507
vn 0.14467860 -0.90826013 0.39259603
vn -0.02211858 -0.86114310 0.50788122
vn -0.10189603 -0.98474415 -0.14105372
vn -0.04209217 0.12100359 -0.99175924
vn -0.00391936 -0.22459712 -0.97444383
vn 0.00465336 -0.50799349 -0.86134834
vn 0.09398434 -0.89038895 -0.44539247
vn -0.13713536 -0.79656236 -0.58879733
vn -0.11384036 -0.71003962 -0.69489863
vn -0.17440125 -0.85753604 0.48395882
vn 0.07103375 -0.99085575 0.11471311
vn -0.08222320 -0.98317042 0.16314189
vn -0.00701666 0.15231379 -0.98830728
f 15//15 8//8 3//3
f 15//15 3//3 4//4
f 17//17 2//2 13//13
f 17//17 14//14 1//1
f 18//18 3//3 8//8
f 18//18 8//8 13//13
f 19//19 15//15 4//4
f 20//20 12//12 5//5
f 20//20 17//17 1//1
f 20//20 5//5 17//17
f 21//21 10//10 13//13
f 22//22 7//7 14//14
f 22//22 14//14 17//17
f 22//22 17//17 13//13
f 22//22 13//13 8//8
f 24//24 14//14 7//7
f 25//25 7//7 8//8
f 25//25 8//8 15//15
f 26//26 25//25 15//15
f 26//26 7//7 25//25
f 26//26 24//24 7//7
f 26//26 14//14 24//24
f 26//26 23//23 14//14
f 26//26 12//12 23//23
f 30//30 17//17 9//9
f 30//30 2//2 17//17
f 30//30 28//28 2//2
f 31//31 17//17 5//5
f 31//31 9//9 17//17
f 31//31 5//5 27//27
f 31//31 27//27 16//16
f 31//31 16//16 28//28
f 31//31 30//30 9//9
f 31//31 28//28 30//30
f 32//32 18//18 13//13
f 32//32 13//13 10//10
f 33//33 3//3 18//18
f 35//35 20//20 1//1
f 35//35 1//1 12//12
f 35//35 12//12 20//20
f 36//36 21//21 6//6
f 36//36 10//10 21//21
f 37//37 22//22 8//8
f 37//37 8//8 7//7
f 37//37 7//7 22//22
f 38//38 23//23 12//12
f 38//38 12//12 1//1
f 38//38 1//1 14//14
f 38//38 14//14 23//23
f 39//39 12//12 26//26
f 39//39 29//29 12//12
f 39//39 11//11 29//29
f 39//39 19//19 34//34
f 39//39 26//26 15//15
f 39//39 15//15 19//19
f 40//40 27//27 5//5
f 40//40 16//16 27//27
f 41//41 6//6 21//21
f 42//42 2//2 28//28
f 42//42 41//41 13//13
f 43//43 29//29 11//11
f 43//43 6//6 41//41
f 44//44 4//4 3//3
f 44//44 3//3 33//33
f 45//45 19//19 4//4
f 45//45 44//44 33//33
f 46//46 34//34 19//19
f 47//47 36//36 6//6
f 48//48 46//46 32//32
f 49//49 11//11 39//39
f 49//49 48//48 6//6
f 49//49 39//39 48//48
f 50//50 40//40 5//5
f 50//50 5//5 12//12
f 50//50 12//12 29//29
f 51//51 41//41 21//21
f 51//51 21//21 13//13
f 52//52 42//42 13//13
f 52//52 13//13 2//2
f 52//52 2//2 42//42
f 53//53 42//42 28//28
f 53//53 28//28 16//16
f 53//53 41//41 42//42
f 54//54 43//43 11//11
f 54//54 6//6 43//43
f 54//54 49//49 6//6
f 54//54 11//11 49//49
f 55//55 45//45 4//4
f 56//56 45//45 33//33
f 56//56 33//33 18//18
f 56//56 46//46 19//19
f 56//56 19//19 45//45
f 57//57 18//18 32//32
f 57//57 32//32 46//46
f 57//57 56//56 18//18
f 57//57 46//46 56//56
f 58//58 32//32 10//10
f 58//58 10//10 36//36
f 58//58 36//36 47//47
f 58//58 47//47 6//6
f 58//58 48//48 32//32
f 58//58 6//6 48//48
f 59//59 48//48 39//39
f 59//59 39//39 34//34
f 59//59 34//34 48//48
f 60//60 48//48 34//34
f 60//60 34//34 46//46
f 60//60 46//46 48//48
f 61//61 16//16 40//40
f 61//61 40//40 50//50
f 61//61 53//53 16//16
f 62//62 51//51 13//13
f 62//62 13//13 41//41
f 62//62 41//41 51//51
f 63//63 43//43 41//41
f 63//63 41//41 53//53
f 63//63 29//29 43//43
f 63//63 50//50 29//29
f 63//63 61//61 50//50
f 63//63 53//53 61//61
f 64//64 55//55 4//4
f 64//64 4//4 44//44
f 64//64 44//44 45//45
f 64//64 45//45 55//55

