# https://github.com/mikedh/trimesh
v 0.05857723 0.04112938 0.02513058
v 0.07691386 0.00861435 0.01873996
v 0.07219833 0.03167356 0.01885329
v 0.05358005 0.03176351 0.01873958
v 0.06688467 0.00858413 0.02420952
v 0.07400977 0.02680270 0.01871234
v 0.05823775 0.04606849 0.02251203
v 0.05068495 0.03755629 0.02438668
v 0.06416416 0.00865596 0.01902632
v 0.05411308 0.03120331 0.01862788
v 0.07289805 0.02034234 0.02417653
v 0.06856949 0.03503723 0.02301526
v 0.05357120 0.03833411 0.02534611
v 0.05741607 0.04643069 0.02277587
v 0.07628063 0.00851954 0.02132087
v 0.05145196 0.03527861 0.02277031
v 0.06608819 0.00854335 0.02356726
v 0.06878811 0.03527726 0.02253763
v 0.06699740 0.03122451 0.02510510
v 0.05130783 0.03822315 0.02488401
v 0.05740329 0.04425485 0.02444631
v 0.07253813 0.00858764 0.02440335
v 0.07609689 0.01719438 0.01953929
v 0.06226447 0.04067497 0.02399098
v 0.07085971 0.03104045 0.02302658
v 0.05755231 0.04118553 0.02526713
v 0.05707865 0.04600866 0.02339044
v 0.07441669 0.00857973 0.02338551
v 0.07068787 0.01874906 0.02530181
v 0.07593672 0.01608472 0.02058307
v 0.07618095 0.01719030 0.01880373
v 0.05893512 0.04362784 0.02415605
v 0.06778022 0.03405949 0.02409044
v 0.07372189 0.02676474 0.02031548
v 0.06500160 0.03446528 0.02513690
v 0.05803147 0.04571719 0.02299153
v 0.07490420 0.01719465 0.02246687
v 0.07334537 0.01532483 0.02400189
v 0.06987696 0.03004495 0.02420369
v 0.06779667 0.01636457 0.02521662
v 0.07516287 0.02256784 0.01874846
v 0.07493798 0.02233305 0.02037863
v 0.07383668 0.02031037 0.02326566
v 0.07017704 0.02350288 0.02496526
v 0.06951498 0.01650523 0.02522192
v 0.07488169 0.02033839 0.02141164
v 0.07268585 0.02674528 0.02231672
vn 0.21495515 0.23401616 0.94817230
vn 0.66954660 -0.53698750 -0.51317812
vn 0.70117399 0.44265309 -0.55893943
vn -0.65283151 -0.05997751 -0.75512497
vn -0.19360095 -0.69563727 0.69181462
vn 0.73600108 0.24127689 -0.63252499
vn 0.40898197 0.85033394 -0.33115848
vn -0.98048048 0.10268272 0.16767314
vn -0.52014142 -0.68932944 -0.50425968
vn -0.17602677 -0.01018762 -0.98433266
vn 0.56603604 0.10756557 0.81733277
vn 0.61461062 0.45028905 0.64768322
vn -0.14409178 0.07260632 0.98689710
vn -0.10719986 0.97887679 -0.17409314
vn 0.68274153 -0.64631191 0.34080040
vn -0.95921589 -0.21708745 -0.18104672
vn -0.46319529 -0.79800185 0.38554269
vn 0.73642745 0.60395019 0.30482582
vn 0.23588080 0.12419441 0.96381326
vn -0.61557911 0.28312820 0.73545957
vn 0.01778824 0.43822985 0.89868692
vn 0.19688587 -0.66248231 0.72274003
vn 0.96978994 0.13822652 0.20099978
vn 0.48320030 0.46971336 0.73884154
vn 0.75178281 0.34448820 0.56227261
vn 0.00340337 0.17395892 0.98474703
vn -0.28761744 0.77694572 0.56002817
vn 0.47286688 -0.64501734 0.60029122
vn 0.22585445 0.01073612 0.97410190
vn 0.93670526 0.09918581 0.33577587
vn 0.80176562 0.10861166 -0.58768647
vn 0.41987210 0.46053207 0.78205987
vn 0.46972042 0.31816385 0.82348922
vn 0.90434613 0.29373532 0.30964115
vn 0.22171293 0.17393036 0.95947465
vn 0.47961798 0.58368249 0.65519566
vn 0.81059572 0.09027963 0.57860536
vn 0.53847401 0.01518997 0.84250520
vn 0.50511714 0.20551230 0.83822513
vn -0.06833827 -0.08061863 0.99439958
vn 0.76950674 0.17837876 -0.61322133
vn 0.92228313 0.22166195 0.31663828
vn 0.77284614 0.15699069 0.61486809
vn 0.34392930 0.11049328 0.93247191
vn 0.02872460 -0.06903890 0.99720034
vn 0.88531417 0.18062419 0.42847839
vn 0.81748116 0.24794079 0.51985567
f 7//7 3//3 4//4
f 10//10 6//6 2//2
f 10//10 4//4 3//3
f 10//10 3//3 6//6
f 10//10 9//9 4//4
f 10//10 2//2 9//9
f 14//14 7//7 4//4
f 14//14 4//4 8//8
f 15//15 9//9 2//2
f 16//16 9//9 8//8
f 16//16 8//8 4//4
f 16//16 4//4 9//9
f 17//17 5//5 8//8
f 17//17 8//8 9//9
f 17//17 9//9 15//15
f 18//18 3//3 7//7
f 20//20 8//8 5//5
f 20//20 5//5 13//13
f 21//21 20//20 13//13
f 22//22 17//17 15//15
f 22//22 5//5 17//17
f 24//24 18//18 7//7
f 24//24 12//12 18//18
f 25//25 3//3 18//18
f 25//25 18//18 12//12
f 26//26 21//21 13//13
f 26//26 1//1 21//21
f 27//27 14//14 8//8
f 27//27 8//8 20//20
f 27//27 20//20 21//21
f 28//28 22//22 15//15
f 29//29 26//26 13//13
f 30//30 15//15 2//2
f 30//30 2//2 23//23
f 31//31 23//23 2//2
f 32//32 21//21 1//1
f 32//32 1//1 24//24
f 32//32 27//27 21//21
f 32//32 24//24 7//7
f 33//33 12//12 24//24
f 33//33 25//25 12//12
f 34//34 6//6 3//3
f 34//34 3//3 25//25
f 35//35 1//1 26//26
f 35//35 19//19 33//33
f 35//35 33//33 24//24
f 35//35 24//24 1//1
f 35//35 29//29 19//19
f 35//35 26//26 29//29
f 36//36 7//7 14//14
f 36//36 14//14 27//27
f 36//36 32//32 7//7
f 36//36 27//27 32//32
f 37//37 28//28 15//15
f 37//37 11//11 28//28
f 37//37 15//15 30//30
f 38//38 28//28 11//11
f 38//38 22//22 28//28
f 38//38 29//29 22//22
f 38//38 11//11 29//29
f 39//39 33//33 19//19
f 39//39 11//11 25//25
f 39//39 25//25 33//33
f 40//40 29//29 13//13
f 40//40 13//13 5//5
f 40//40 5//5 22//22
f 41//41 31//31 2//2
f 41//41 2//2 6//6
f 41//41 23//23 31//31
f 42//42 30//30 23//23
f 42//42 23//23 41//41
f 42//42 41//41 6//6
f 42//42 6//6 34//34
f 43//43 25//25 11//11
f 43//43 11//11 37//37
f 44//44 29//29 11//11
f 44//44 11//11 39//39
f 44//44 39//39 19//19
f 44//44 19//19 29//29
f 45//45 40//40 22//22
f 45//45 22//22 29//29
f 45//45 29//29 40//40
f 46//46 37//37 30//30
f 46//46 30//30 42//42
f 46//46 43//43 37//37
f 47//47 42//42 34//34
f 47//47 34//34 25//25
f 47//47 25//25 43//43
f 47//47 46//46 42//42
f 47//47 43//43 46//46

