# https://github.com/mikedh/trimesh
v -0.01395242 -0.03983648 -0.00670838
v 0.01451661 -0.04339686 -0.01834108
v -0.03096327 -0.00680872 -0.01580760
v -0.03062002 -0.01217639 -0.02405318
v -0.00767952 -0.03429882 -0.02964149
v 0.00318018 -0.03140126 -0.02844487
v -0.02363121 -0.03364016 -0.01111159
v 0.01432499 -0.04208453 -0.01690029
v -0.00085021 -0.04417337 -0.01947927
v -0.03089526 -0.01084463 -0.02306277
v -0.00755550 -0.03311833 -0.02971463
v 0.01029978 -0.03939647 -0.02933014
v -0.03122341 -0.01019660 -0.01548655
v -0.01472033 -0.03254946 -0.02746644
v -0.01296275 -0.04011461 -0.00685530
v 0.01257878 -0.03732078 -0.02280106
v -0.01390038 -0.03968007 -0.01852030
v -0.02980553 -0.01125504 -0.02281371
v -0.03061318 -0.01395717 -0.02413272
v -0.00487066 -0.03296236 -0.02952021
v 0.00855301 -0.03848887 -0.02952034
v 0.01440626 -0.04441620 -0.01906181
v -0.03101542 -0.00683547 -0.01578438
v 0.00669712 -0.03332507 -0.02589944
v 0.01043543 -0.03749332 -0.02847094
v 0.01411072 -0.04085197 -0.02661247
v -0.02372179 -0.03436724 -0.01302942
v -0.00830214 -0.03674179 -0.02608586
v -0.03118439 -0.01478999 -0.02148190
v 0.01006862 -0.03880311 -0.02945639
v -0.03118237 -0.01151164 -0.02177196
v 0.01251550 -0.03763021 -0.02484374
v 0.01339003 -0.03796739 -0.02327038
v 0.01283947 -0.04074520 -0.02739088
v -0.03024008 -0.01544473 -0.01585231
v -0.03121296 -0.00741602 -0.01604380
v 0.01320065 -0.03953274 -0.02654686
v 0.00935982 -0.04043205 -0.02745390
v -0.03110985 -0.00698459 -0.01581532
v 0.01350984 -0.03863215 -0.02462677
vn -0.22729700 -0.50520108 0.83253104
vn 0.95759784 -0.17367470 0.22987709
vn 0.04242376 0.97492318 0.21846058
vn -0.48055915 0.35035244 -0.80393786
vn -0.22770737 -0.42953968 -0.87386785
vn 0.38569505 0.63277662 -0.67144104
vn -0.71922331 -0.33323080 0.60965159
vn 0.74293166 0.00836121 0.66931505
vn -0.15565291 -0.97087416 -0.18214154
vn -0.47411558 0.64907765 -0.59490556
vn -0.07163239 0.10374662 -0.99202089
vn 0.22021218 -0.45537451 -0.86263587
vn -0.81444738 0.01316969 0.58008795
vn -0.47871041 -0.45446880 -0.75119535
vn 0.07462545 -0.51760290 0.85236042
vn 0.62244524 0.76328853 0.17306802
vn -0.44977163 -0.84198019 -0.29795108
vn 0.40632494 0.79523734 -0.44999736
vn -0.70878412 -0.14358722 -0.69065750
vn 0.06382892 0.24012514 -0.96864121
vn -0.00023951 -0.08353887 -0.99650449
vn 0.60879419 -0.78793424 0.09235402
vn -0.50027488 0.70938903 0.49647985
vn 0.58752754 0.79542196 -0.14871211
vn 0.58904907 0.55949606 -0.58308263
vn 0.80871089 -0.26327432 -0.52599746
vn -0.77193923 -0.63173292 -0.07087557
vn -0.31409341 -0.76389163 -0.56375076
vn -0.96120539 -0.24770841 -0.12134557
vn 0.33499222 0.12909679 -0.93333500
vn -0.99149616 0.05157121 -0.11948123
vn 0.65775390 0.70043780 -0.27703193
vn 0.81672905 0.57678572 0.01648913
vn 0.25661784 -0.67812403 -0.68869085
vn -0.93044153 -0.23280799 0.28298232
vn -0.98535685 0.16663181 0.03613466
vn 0.72441071 0.54578163 -0.42113126
vn -0.07804948 -0.85879916 -0.50633218
vn -0.86016930 0.36778785 0.35332829
vn 0.83763947 0.49735044 -0.22583769
f 10//10 6//6 4//4
f 12//12 9//9 5//5
f 13//13 7//7 1//1
f 15//15 1//1 9//9
f 15//15 8//8 3//3
f 15//15 3//3 1//1
f 16//16 3//3 8//8
f 17//17 9//9 1//1
f 18//18 10//10 3//3
f 18//18 3//3 6//6
f 18//18 6//6 10//10
f 19//19 11//11 5//5
f 19//19 4//4 11//11
f 19//19 5//5 14//14
f 19//19 10//10 4//4
f 20//20 11//11 4//4
f 20//20 4//4 6//6
f 21//21 12//12 5//5
f 21//21 5//5 11//11
f 21//21 11//11 20//20
f 22//22 15//15 9//9
f 22//22 2//2 8//8
f 22//22 8//8 15//15
f 23//23 13//13 1//1
f 23//23 1//1 3//3
f 23//23 3//3 10//10
f 24//24 6//6 3//3
f 24//24 3//3 16//16
f 26//26 8//8 2//2
f 26//26 2//2 22//22
f 27//27 17//17 1//1
f 27//27 1//1 7//7
f 27//27 14//14 17//17
f 27//27 19//19 14//14
f 28//28 17//17 14//14
f 28//28 14//14 5//5
f 28//28 5//5 9//9
f 28//28 9//9 17//17
f 29//29 19//19 27//27
f 30//30 12//12 21//21
f 30//30 6//6 25//25
f 30//30 26//26 12//12
f 30//30 25//25 26//26
f 30//30 21//21 20//20
f 30//30 20//20 6//6
f 31//31 29//29 13//13
f 31//31 10//10 19//19
f 31//31 19//19 29//29
f 32//32 25//25 6//6
f 32//32 6//6 24//24
f 33//33 16//16 8//8
f 33//33 8//8 26//26
f 33//33 32//32 24//24
f 33//33 24//24 16//16
f 34//34 26//26 22//22
f 34//34 22//22 9//9
f 34//34 12//12 26//26
f 35//35 29//29 27//27
f 35//35 27//27 7//7
f 35//35 7//7 13//13
f 35//35 13//13 29//29
f 36//36 10//10 31//31
f 36//36 31//31 13//13
f 37//37 26//26 25//25
f 38//38 34//34 9//9
f 38//38 9//9 12//12
f 38//38 12//12 34//34
f 39//39 23//23 10//10
f 39//39 10//10 36//36
f 39//39 36//36 13//13
f 39//39 13//13 23//23
f 40//40 37//37 25//25
f 40//40 25//25 32//32
f 40//40 32//32 33//33
f 40//40 33//33 26//26
f 40//40 26//26 37//37

