# https://github.com/mikedh/trimesh
v 0.05620006 0.04346524 0.01928281
v 0.07565024 0.01072468 0.01305435
v 0.06710327 0.03980798 -0.00850951
v 0.04975832 0.04897063 -0.01437226
v 0.05072592 0.02108135 0.00209147
v 0.05268800 0.05236613 0.00726229
v 0.06935454 0.03544529 0.01535720
v 0.06449192 0.01013323 0.01701051
v 0.07130187 0.01019147 -0.01312738
v 0.05779227 0.04917572 -0.00870460
v 0.04996393 0.04699518 0.01935592
v 0.07360149 0.02597376 -0.00757723
v 0.05894699 0.04706836 0.01537411
v 0.07075789 0.02837118 0.01759271
v 0.05877348 0.01007709 -0.00947510
v 0.06775912 0.03356957 -0.01301960
v 0.04954466 0.05372231 -0.00868035
v 0.06470507 0.02002377 0.01872328
v 0.05020175 0.04097853 0.01934967
v 0.07378888 0.02510919 0.01282646
v 0.07047691 0.03456682 0.01073547
v 0.07403839 0.02187092 -0.00948139
v 0.06224409 0.04208269 0.01741091
v 0.05483305 0.04741479 0.01817828
v 0.06208588 0.04601389 0.00397722
v 0.06313876 0.01009804 0.01373483
v 0.05021193 0.03820268 -0.01428453
v 0.06833161 0.01120406 -0.01426569
v 0.07167493 0.02821235 -0.01121271
v 0.06433012 0.04206874 -0.01093423
v 0.05066047 0.05145617 -0.01258874
v 0.05354455 0.05245493 -0.00324203
v 0.04954793 0.05266364 0.01470150
v 0.05653074 0.03953431 0.01977783
v 0.06469488 0.01456831 0.01795623
v 0.05064311 0.03624533 0.01643347
v 0.07444810 0.02199650 0.01285131
v 0.07142559 0.03037156 0.01553173
v 0.07148738 0.03144944 -0.00764140
v 0.07262110 0.02931718 0.01169288
v 0.06625732 0.03954752 0.01556265
v 0.06939096 0.03436212 0.01643422
v 0.07052603 0.02947865 0.01751259
v 0.05411012 0.04576286 0.01912303
v 0.05790748 0.04719738 0.01631760
v 0.05603638 0.04647346 0.01823123
v 0.05885918 0.04808480 0.01249071
v 0.06412988 0.04390709 -0.00774406
v 0.06416514 0.01013326 0.01653666
v 0.05112274 0.02093154 -0.00057017
v 0.07142683 0.01776560 -0.01297465
v 0.05960613 0.03947897 -0.01418164
v 0.06492273 0.01048632 -0.01308211
v 0.06833241 0.03665147 -0.01037602
v 0.07364321 0.02396049 -0.00929136
v 0.05255410 0.05129923 -0.01136097
v 0.04969339 0.05106400 -0.01346625
v 0.04959083 0.05385589 0.00617294
v 0.05039489 0.05342909 -0.00839481
v 0.05686479 0.05026808 -0.00542752
v 0.04970433 0.04979043 0.01822113
v 0.07370988 0.02596755 -0.00346964
v 0.06948689 0.03649768 0.00740246
v 0.07154826 0.03030889 -0.00937347
vn 0.22891633 0.22255604 0.94766351
vn 0.72228124 -0.57368919 0.38625191
vn 0.82237690 0.53858965 -0.18335054
vn -0.54962405 0.22564700 -0.80436113
vn -0.91802581 -0.37855082 0.11801645
vn 0.46537775 0.88036510 0.09154693
vn 0.81812601 0.50093908 0.28236480
vn -0.15326900 -0.71923381 0.67765134
vn 0.54275965 -0.64361848 -0.53959911
vn 0.57434023 0.76241225 -0.29809540
vn -0.57792061 0.16839674 0.79853009
vn 0.95739715 0.25535098 -0.13485758
vn 0.58585386 0.71817858 0.37549271
vn 0.58235387 0.08559174 0.80841699
vn -0.52442546 -0.76827215 -0.36706382
vn 0.49200535 0.24190387 -0.83630931
vn -0.53516872 0.81872640 -0.20804212
vn 0.10393422 -0.11113352 0.98835571
vn -0.71151931 -0.10859814 0.69422383
vn 0.95189404 0.22995664 0.20252823
vn 0.88431504 0.46225950 0.06559769
vn 0.93529764 0.04305761 -0.35123264
vn 0.49728777 0.44482340 0.74487383
vn 0.32523412 0.58371865 0.74397265
vn 0.69909330 0.71389956 0.04019909
vn -0.43663014 -0.88730779 0.14845544
vn -0.70478586 -0.09128889 -0.70352202
vn 0.04846030 -0.37947925 -0.92393025
vn 0.77329149 0.23548053 -0.58870127
vn 0.59313180 0.53245634 -0.60389148
vn 0.31304298 0.74661037 -0.58700686
vn 0.45234724 0.89157752 -0.02171420
vn -0.49633922 0.80019225 0.33665969
vn 0.07995207 0.03517515 0.99617788
vn 0.06268688 -0.18116451 0.98145289
vn -0.86103574 -0.32924655 0.38757472
vn 0.95716200 0.13806116 0.25451920
vn 0.88718186 0.29843336 0.35191742
vn 0.90733581 0.40309679 -0.11939307
vn 0.93768350 0.33587500 0.08909347
vn 0.71634540 0.58779693 0.37595749
vn 0.68298482 0.37061888 0.62942305
vn 0.59078490 0.21176753 0.77854204
vn 0.18555325 0.29170034 0.93833944
vn 0.47873808 0.68929660 0.54376470
vn 0.38215234 0.47039155 0.79541900
vn 0.59847138 0.78408084 0.16446655
vn 0.72001113 0.67532445 -0.15975248
vn -0.49922723 -0.81410733 0.29665035
vn -0.91924246 -0.34601539 -0.18779415
vn 0.56919950 0.04258954 -0.82109564
vn 0.21966348 0.19332588 -0.95622856
vn -0.24054869 -0.69623754 -0.67630586
vn 0.79588064 0.43896366 -0.41699510
vn 0.91938820 0.21876414 -0.32690608
vn 0.45923386 0.74895604 -0.47767050
vn -0.50581814 0.52169290 -0.68701130
vn -0.50802266 0.85898182 0.06374330
vn 0.40297748 0.89939975 -0.16937900
vn 0.56899324 0.82004050 -0.06148382
vn -0.55118261 0.51560544 0.65600973
vn 0.97077896 0.23937493 -0.01696649
vn 0.84508602 0.53414826 0.02269933
vn 0.88762165 0.36346646 -0.28287796
f 9//9 2//2 8//8
f 17//17 4//4 5//5
f 22//22 2//2 9//9
f 26//26 15//15 9//9
f 26//26 9//9 8//8
f 26//26 5//5 15//15
f 27//27 5//5 4//4
f 28//28 27//27 4//4
f 33//33 17//17 5//5
f 34//34 18//18 14//14
f 34//34 19//19 18//18
f 34//34 1//1 11//11
f 34//34 11//11 19//19
f 35//35 8//8 2//2
f 35//35 2//2 14//14
f 35//35 14//14 18//18
f 35//35 19//19 8//8
f 35//35 18//18 19//19
f 36//36 19//19 5//5
f 37//37 2//2 22//22
f 37//37 14//14 2//2
f 38//38 37//37 20//20
f 38//38 14//14 37//37
f 40//40 39//39 21//21
f 40//40 38//38 20//20
f 40//40 21//21 7//7
f 40//40 7//7 38//38
f 41//41 13//13 23//23
f 42//42 41//41 23//23
f 42//42 7//7 41//41
f 42//42 38//38 7//7
f 43//43 23//23 1//1
f 43//43 42//42 23//23
f 43//43 14//14 38//38
f 43//43 38//38 42//42
f 43//43 34//34 14//14
f 43//43 1//1 34//34
f 44//44 11//11 1//1
f 45//45 23//23 13//13
f 45//45 33//33 24//24
f 45//45 13//13 33//33
f 46//46 1//1 23//23
f 46//46 45//45 24//24
f 46//46 23//23 45//45
f 46//46 44//44 1//1
f 46//46 24//24 44//44
f 47//47 41//41 25//25
f 47//47 13//13 41//41
f 47//47 33//33 13//13
f 47//47 6//6 33//33
f 47//47 32//32 6//6
f 48//48 30//30 10//10
f 48//48 3//3 30//30
f 49//49 26//26 8//8
f 49//49 5//5 26//26
f 49//49 36//36 5//5
f 49//49 8//8 19//19
f 49//49 19//19 36//36
f 50//50 27//27 15//15
f 50//50 15//15 5//5
f 50//50 5//5 27//27
f 51//51 28//28 16//16
f 51//51 9//9 28//28
f 51//51 16//16 29//29
f 51//51 29//29 22//22
f 51//51 22//22 9//9
f 52//52 28//28 4//4
f 52//52 16//16 28//28
f 52//52 30//30 16//16
f 52//52 4//4 30//30
f 53//53 28//28 9//9
f 53//53 9//9 15//15
f 53//53 15//15 27//27
f 53//53 27//27 28//28
f 54//54 29//29 16//16
f 54//54 3//3 39//39
f 54//54 30//30 3//3
f 54//54 16//16 30//30
f 55//55 29//29 12//12
f 55//55 12//12 22//22
f 55//55 22//22 29//29
f 56//56 31//31 17//17
f 56//56 10//10 30//30
f 56//56 30//30 31//31
f 57//57 4//4 17//17
f 57//57 17//17 31//31
f 57//57 31//31 30//30
f 57//57 30//30 4//4
f 58//58 32//32 17//17
f 58//58 6//6 32//32
f 58//58 33//33 6//6
f 58//58 17//17 33//33
f 59//59 17//17 32//32
f 59//59 56//56 17//17
f 59//59 10//10 56//56
f 60//60 59//59 32//32
f 60//60 10//10 59//59
f 60//60 48//48 10//10
f 60//60 25//25 48//48
f 60//60 47//47 25//25
f 60//60 32//32 47//47
f 61//61 24//24 33//33
f 61//61 44//44 24//24
f 61//61 11//11 44//44
f 61//61 19//19 11//11
f 61//61 33//33 5//5
f 61//61 5//5 19//19
f 62//62 20//20 37//37
f 62//62 40//40 20//20
f 62//62 12//12 39//39
f 62//62 39//39 40//40
f 62//62 37//37 22//22
f 62//62 22//22 12//12
f 63//63 39//39 3//3
f 63//63 21//21 39//39
f 63//63 3//3 48//48
f 63//63 48//48 25//25
f 63//63 25//25 41//41
f 63//63 41//41 7//7
f 63//63 7//7 21//21
f 64//64 39//39 12//12
f 64//64 12//12 29//29
f 64//64 54//54 39//39
f 64//64 29//29 54//54

