# https://github.com/mikedh/trimesh
v 0.07033644 -0.02399935 0.02394377
v 0.07344029 -0.02383767 0.02115130
v 0.06293390 -0.02411278 0.02398421
v 0.05899305 -0.02472245 0.01706305
v 0.06168648 -0.04128945 0.02366495
v 0.07404838 -0.02404751 0.01735303
v 0.06868862 -0.03324744 0.02273161
v 0.05040989 -0.04192948 0.02509535
v 0.06578618 -0.04094747 0.01815937
v 0.07079255 -0.02857111 0.02300145
v 0.07180870 -0.03013330 0.01943533
v 0.06093040 -0.03690896 0.02486262
v 0.05070748 -0.03463567 0.01821958
v 0.07198324 -0.03012661 0.01730614
v 0.06552104 -0.03961687 0.02163147
v 0.07034259 -0.02697706 0.02361823
v 0.07283852 -0.02686188 0.02007704
v 0.07068920 -0.03214158 0.02006051
v 0.05772867 -0.04126582 0.02476806
v 0.06096278 -0.03492156 0.02496416
v 0.05071129 -0.03915621 0.02422536
v 0.06028087 -0.02486139 0.02107222
v 0.05024916 -0.04153145 0.01845488
v 0.05545470 -0.03008500 0.01724617
v 0.07311895 -0.02700687 0.01730787
v 0.06676709 -0.03640589 0.02269125
v 0.06447878 -0.04071376 0.02180158
v 0.06833772 -0.03155185 0.02367550
v 0.06849768 -0.03629345 0.01987875
v 0.05957362 -0.04017935 0.02469820
v 0.05920041 -0.02485403 0.01810071
v 0.05122276 -0.03513396 0.01978035
v 0.05483267 -0.03083403 0.01733496
v 0.06538634 -0.04059368 0.02023397
v 0.06339152 -0.04073970 0.02274099
v 0.06327614 -0.03921866 0.02369960
v 0.06881196 -0.03646049 0.01825928
v 0.06660782 -0.03971254 0.01825465
vn 0.30684011 0.60542040 0.73438088
vn 0.73572459 0.58247752 0.34558539
vn -0.21720300 0.73755632 0.63940091
vn -0.41746971 0.68995174 -0.59134224
vn 0.28301488 -0.78381133 0.55275887
vn 0.70533445 0.48196704 -0.51981833
vn 0.68599757 -0.38651609 0.61645166
vn -0.58465944 -0.54379852 0.60204361
vn 0.44932700 -0.72317220 -0.52452570
vn 0.70466224 -0.26513088 0.65814645
vn 0.89953693 -0.37601047 0.22237230
vn 0.16086207 -0.10019025 0.98187846
vn -0.82049054 0.36113646 -0.44314301
vn 0.67652503 -0.31029099 -0.66785731
vn 0.69846048 -0.51753873 0.49427384
vn 0.48429690 -0.11109168 0.86782207
vn 0.91306837 -0.31167377 0.26299358
vn 0.85433538 -0.42160594 0.30390704
vn 0.11023912 -0.57297634 0.81212404
vn 0.05357263 0.01623922 0.99843190
vn -0.77299198 0.32485902 0.54493121
vn -0.60287141 0.73477475 0.31088927
vn -0.61204125 -0.57027126 -0.54790163
vn -0.20877632 0.08043109 -0.97465034
vn 0.71535434 -0.23095484 -0.65949073
vn 0.62235164 -0.40181159 0.67173349
vn 0.52329638 -0.73910406 0.42412980
vn 0.40813642 -0.21177154 0.88801885
vn 0.81274460 -0.48956553 0.31586675
vn 0.20043171 -0.21541338 0.95573229
vn -0.66776997 0.70646308 0.23450626
vn -0.71293910 0.56110692 0.42056732
vn -0.22531524 0.06751203 -0.97194401
vn 0.67243432 -0.68720457 0.27492175
vn 0.54140819 -0.52223635 0.65889783
vn 0.42973352 -0.31565184 0.84598641
vn 0.82867849 -0.51277479 -0.22439693
vn 0.81246718 -0.55415031 0.18114779
f 1//1 2//2 3//3
f 6//6 3//3 2//2
f 6//6 4//4 3//3
f 9//9 5//5 8//8
f 16//16 10//10 2//2
f 16//16 2//2 1//1
f 17//17 6//6 2//2
f 17//17 2//2 10//10
f 17//17 10//10 11//11
f 18//18 11//11 10//10
f 18//18 10//10 7//7
f 19//19 12//12 8//8
f 19//19 8//8 5//5
f 20//20 12//12 1//1
f 20//20 1//1 3//3
f 20//20 3//3 8//8
f 20//20 8//8 12//12
f 21//21 13//13 8//8
f 21//21 8//8 3//3
f 22//22 3//3 4//4
f 22//22 21//21 3//3
f 23//23 9//9 8//8
f 23//23 8//8 13//13
f 24//24 14//14 9//9
f 24//24 4//4 14//14
f 24//24 9//9 23//23
f 24//24 13//13 4//4
f 25//25 14//14 4//4
f 25//25 4//4 6//6
f 25//25 11//11 14//14
f 25//25 17//17 11//11
f 25//25 6//6 17//17
f 26//26 15//15 7//7
f 27//27 5//5 9//9
f 28//28 16//16 1//1
f 28//28 1//1 12//12
f 28//28 7//7 10//10
f 28//28 10//10 16//16
f 28//28 26//26 7//7
f 29//29 18//18 7//7
f 29//29 7//7 15//15
f 30//30 19//19 5//5
f 30//30 12//12 19//19
f 30//30 28//28 12//12
f 31//31 22//22 4//4
f 31//31 4//4 13//13
f 31//31 13//13 22//22
f 32//32 22//22 13//13
f 32//32 13//13 21//21
f 32//32 21//21 22//22
f 33//33 24//24 23//23
f 33//33 23//23 13//13
f 33//33 13//13 24//24
f 34//34 27//27 9//9
f 34//34 15//15 27//27
f 34//34 29//29 15//15
f 34//34 9//9 29//29
f 35//35 5//5 27//27
f 35//35 27//27 15//15
f 35//35 15//15 26//26
f 36//36 26//26 28//28
f 36//36 35//35 26//26
f 36//36 5//5 35//35
f 36//36 30//30 5//5
f 36//36 28//28 30//30
f 37//37 9//9 14//14
f 37//37 14//14 11//11
f 37//37 11//11 18//18
f 37//37 18//18 29//29
f 38//38 37//37 29//29
f 38//38 29//29 9//9
f 38//38 9//9 37//37

