# https://github.com/mikedh/trimesh
v -0.00309277 0.06240295 0.01888603
v -0.00297028 0.05467044 0.01908743
v -0.00317917 0.05753083 -0.01681568
v -0.03126909 0.05610533 -0.01996746
v -0.03154227 0.04807217 0.02008725
v -0.01477151 0.06512831 -0.01424893
v -0.00298099 0.06509679 0.01522340
v -0.01620946 0.05868005 0.02008011
v -0.03190688 0.03991048 -0.00376828
v -0.02205235 0.06134704 -0.01782746
v -0.00297582 0.05119999 -0.01422109
v -0.00312932 0.06513845 -0.01229451
v -0.01628508 0.05662196 0.01997602
v -0.01911165 0.06306029 0.01701013
v -0.03205440 0.04326037 0.01628242
v -0.02705564 0.05622382 -0.02015781
v -0.00315130 0.04886588 0.00697297
v -0.00848856 0.06514468 0.01541233
v -0.00446182 0.06223294 -0.01562444
v -0.00316749 0.06132708 -0.01596505
v -0.01929518 0.06108778 0.01892322
v -0.02868629 0.06178439 0.00931472
v -0.03179798 0.04635815 0.01917539
v -0.03202707 0.04538155 -0.01724218
v -0.02523649 0.06133301 -0.01801762
v -0.00306730 0.04909555 -0.00675569
v -0.03197630 0.03976029 0.00364462
v -0.00315000 0.04993282 0.01416128
v -0.01085246 0.06516858 -0.01392230
v -0.00309282 0.06426683 0.01738741
v -0.00329405 0.06331990 -0.01467834
v -0.00644047 0.06049481 -0.01671760
v -0.00975773 0.06134997 -0.01673854
v -0.03113496 0.05582576 0.02005901
v -0.02452588 0.06293629 0.01337658
v -0.00306800 0.05309811 0.01800055
v -0.03129565 0.05810183 -0.01918606
v -0.03156549 0.05144268 -0.02028946
v -0.02408768 0.05934229 -0.01887827
v -0.02411264 0.06299243 -0.00976585
v -0.02441216 0.06211001 -0.01764178
v -0.03219653 0.04105623 -0.00675903
v -0.01051333 0.06393791 0.01718273
v -0.01267922 0.06290758 0.01809845
v -0.00329410 0.06420052 -0.01380710
v -0.00973580 0.06332941 -0.01566288
v -0.02551753 0.05816255 0.01997869
v -0.03104279 0.05748588 0.01904793
v -0.01696284 0.06503259 -0.00957589
v -0.01703078 0.06401704 0.01560401
v -0.00315821 0.05102526 0.01598602
v -0.02905239 0.05876719 -0.01906857
v -0.00325967 0.05377421 -0.01676618
v -0.03114901 0.05977125 -0.01767914
v -0.00410317 0.06254198 0.01876279
v -0.02124622 0.06173804 0.01809711
v -0.00979997 0.06415767 -0.01483489
v -0.02974681 0.06069421 0.01522373
v -0.02989948 0.05684242 0.01982823
v -0.01064667 0.06512399 0.01447157
v -0.01671498 0.06509238 -0.01227938
v -0.02112717 0.06396111 -0.01001842
v -0.02137710 0.06292161 0.01625806
v -0.02744838 0.05456554 -0.02014866
vn 0.63315780 0.28802854 0.71843633
vn 0.68899692 -0.19485514 0.69807931
vn 0.71355375 0.06656863 -0.69743076
vn -0.59975336 0.18681006 -0.77807320
vn -0.55385128 -0.18984178 0.81068419
vn -0.02948682 0.92015376 -0.39044537
vn 0.67526372 0.72435763 0.13901415
vn 0.01075128 0.17544996 0.98442964
vn -0.43790788 -0.88827178 -0.13859988
vn 0.07634015 0.42719929 -0.90092894
vn 0.74304821 -0.56143512 -0.36423888
vn 0.66648664 0.72092671 -0.18989532
vn 0.04939345 -0.06461707 0.99668697
vn -0.14666171 0.83299883 0.53348223
vn -0.59021317 -0.68639576 0.42486383
vn 0.04217052 0.17234015 -0.98413440
vn 0.77629474 -0.62859129 0.04732289
vn -0.03625933 0.96226840 0.26967535
vn 0.12600864 0.52591679 -0.84115002
vn 0.71222263 0.27890357 -0.64416747
vn -0.07145120 0.53933039 0.83905748
vn -0.49209405 0.87028826 0.02101885
vn -0.62565224 -0.43055944 0.65052122
vn -0.57964826 -0.59936251 -0.55206203
vn -0.05256615 0.46761354 -0.88236862
vn 0.76911002 -0.63211006 -0.09437502
vn -0.53899505 -0.83723870 0.09228052
vn 0.74153423 -0.62883358 0.23387030
vn 0.03734716 0.92256015 -0.38404162
vn 0.61104280 0.62682096 0.48344822
vn 0.61745638 0.50964474 -0.59917431
vn 0.12392489 0.28609316 -0.95015437
vn 0.09250435 0.41055609 -0.90713099
vn -0.67131152 0.17810902 0.71945675
vn -0.25886223 0.95443141 0.14849590
vn 0.70897852 -0.46483081 0.53036004
vn -0.70294467 0.37061106 -0.60705538
vn -0.59687910 -0.16751215 -0.78464961
vn 0.05361472 0.36006331 -0.93138600
vn -0.33840446 0.93970377 -0.04938864
vn -0.15503483 0.79259576 -0.58970854
vn -0.64098122 -0.71004829 -0.29150387
vn -0.07284476 0.80391397 0.59026771
vn -0.06547480 0.65691659 0.75111494
vn 0.58034448 0.62005199 -0.52795436
vn 0.08674628 0.60020795 -0.79512609
vn -0.10841613 0.37500792 0.92066009
vn -0.74205927 0.48810299 0.45946002
vn -0.16311849 0.98654128 0.01134270
vn -0.14455554 0.95485513 0.25952916
vn 0.70792124 -0.55440535 0.43758682
vn -0.06629217 0.43443866 -0.89825854
vn 0.64952959 -0.26376866 -0.71311808
vn -0.71819625 0.62409580 -0.30773133
vn -0.03050423 0.56780164 0.82260001
vn -0.19286757 0.71501937 0.67197426
vn 0.09071985 0.71311628 -0.69515112
vn -0.62623632 0.73799747 0.25137186
vn -0.19469716 0.48772754 0.85100815
vn -0.09161061 0.98909339 0.11533330
vn -0.16359666 0.98377148 -0.07368725
vn -0.28532693 0.95739961 -0.04443580
vn -0.23728192 0.88795198 0.39400327
vn 0.10049704 -0.06618458 -0.99273357
f 7//7 1//1 2//2
f 8//8 2//2 1//1
f 11//11 7//7 2//2
f 12//12 7//7 11//11
f 13//13 8//8 5//5
f 13//13 5//5 2//2
f 13//13 2//2 8//8
f 18//18 7//7 12//12
f 20//20 12//12 11//11
f 20//20 11//11 3//3
f 21//21 8//8 1//1
f 23//23 2//2 5//5
f 26//26 11//11 2//2
f 26//26 2//2 17//17
f 26//26 9//9 11//11
f 27//27 26//26 17//17
f 27//27 9//9 26//26
f 28//28 17//17 2//2
f 28//28 27//27 17//17
f 28//28 15//15 27//27
f 29//29 18//18 12//12
f 30//30 1//1 7//7
f 30//30 7//7 18//18
f 31//31 20//20 19//19
f 31//31 12//12 20//20
f 32//32 20//20 3//3
f 32//32 3//3 16//16
f 33//33 20//20 32//32
f 34//34 5//5 8//8
f 34//34 23//23 5//5
f 36//36 23//23 15//15
f 36//36 2//2 23//23
f 36//36 28//28 2//2
f 37//37 24//24 15//15
f 38//38 4//4 16//16
f 38//38 37//37 4//4
f 38//38 24//24 37//37
f 39//39 10//10 33//33
f 39//39 33//33 32//32
f 39//39 32//32 16//16
f 41//41 39//39 25//25
f 41//41 10//10 39//39
f 41//41 33//33 10//10
f 41//41 25//25 37//37
f 42//42 9//9 27//27
f 42//42 24//24 11//11
f 42//42 11//11 9//9
f 42//42 27//27 15//15
f 42//42 15//15 24//24
f 43//43 30//30 18//18
f 43//43 18//18 14//14
f 44//44 30//30 43//43
f 44//44 43//43 14//14
f 45//45 29//29 12//12
f 45//45 12//12 31//31
f 46//46 19//19 20//20
f 46//46 20//20 33//33
f 46//46 33//33 41//41
f 46//46 31//31 19//19
f 46//46 45//45 31//31
f 46//46 41//41 6//6
f 46//46 6//6 29//29
f 47//47 34//34 8//8
f 47//47 8//8 21//21
f 48//48 15//15 23//23
f 48//48 23//23 34//34
f 48//48 37//37 15//15
f 50//50 14//14 18//18
f 51//51 36//36 15//15
f 51//51 15//15 28//28
f 51//51 28//28 36//36
f 52//52 37//37 25//25
f 52//52 16//16 4//4
f 52//52 4//4 37//37
f 52//52 39//39 16//16
f 52//52 25//25 39//39
f 53//53 16//16 3//3
f 53//53 3//3 11//11
f 53//53 11//11 24//24
f 53//53 24//24 38//38
f 54//54 22//22 40//40
f 54//54 37//37 48//48
f 54//54 41//41 37//37
f 54//54 40//40 41//41
f 55//55 44//44 21//21
f 55//55 21//21 1//1
f 55//55 1//1 30//30
f 55//55 30//30 44//44
f 56//56 44//44 14//14
f 56//56 21//21 44//44
f 56//56 48//48 47//47
f 56//56 47//47 21//21
f 57//57 46//46 29//29
f 57//57 29//29 45//45
f 57//57 45//45 46//46
f 58//58 35//35 22//22
f 58//58 54//54 48//48
f 58//58 22//22 54//54
f 58//58 48//48 56//56
f 59//59 48//48 34//34
f 59//59 34//34 47//47
f 59//59 47//47 48//48
f 60//60 29//29 6//6
f 60//60 18//18 29//29
f 60//60 50//50 18//18
f 60//60 49//49 35//35
f 60//60 35//35 50//50
f 61//61 6//6 41//41
f 61//61 60//60 6//6
f 61//61 49//49 60//60
f 62//62 22//22 35//35
f 62//62 35//35 49//49
f 62//62 49//49 61//61
f 62//62 40//40 22//22
f 62//62 61//61 41//41
f 62//62 41//41 40//40
f 63//63 50//50 35//35
f 63//63 14//14 50//50
f 63//63 35//35 58//58
f 63//63 58//58 56//56
f 63//63 56//56 14//14
f 64//64 53//53 38//38
f 64//64 38//38 16//16
f 64//64 16//16 53//53

