# https://github.com/mikedh/trimesh
v 0.03890292 0.05385420 0.01932570
v 0.03934823 0.04507376 0.01843531
v 0.03855976 0.05673207 -0.01410082
v 0.00944512 0.06098296 -0.01557395
v 0.00416952 0.04907593 0.01299019
v 0.02886636 0.06367885 0.01366850
v 0.03927505 0.04404478 -0.01359130
v 0.00964233 0.05432632 0.01947853
v 0.03837194 0.06030321 0.01053778
v 0.02892442 0.06357724 -0.00755464
v 0.03954411 0.04180763 0.01370617
v 0.03854560 0.05818909 -0.01338605
v 0.00963679 0.05085587 -0.01382999
v 0.03249874 0.04997449 -0.01546993
v 0.00945440 0.05068115 0.01637712
v 0.03914074 0.04783755 0.01931945
v 0.00951984 0.06205884 0.01927713
v 0.03833403 0.05926338 0.01557548
v 0.03509962 0.06254152 -0.00436696
v 0.03935711 0.04282695 0.01578876
v 0.03938483 0.03568322 -0.00403578
v 0.02666403 0.06080403 -0.01415970
v 0.00396374 0.04825314 0.00735291
v 0.02570970 0.05820944 -0.01526260
v 0.03903667 0.04562234 -0.01448934
v 0.00935294 0.05343010 -0.01637509
v 0.00954461 0.05275400 0.01839165
v 0.00406547 0.05294416 0.00740230
v 0.00948329 0.06479433 -0.01190341
v 0.03515874 0.06147509 0.01254578
v 0.03864332 0.05664945 0.01819092
v 0.03113876 0.06370827 -0.00241484
v 0.03817284 0.06049278 -0.00926075
v 0.03433577 0.05857281 -0.01431302
v 0.00403352 0.04866290 0.01153799
v 0.00954531 0.04875143 -0.00636459
v 0.03232533 0.05388637 -0.01531832
v 0.01586146 0.06095307 -0.01524159
v 0.00944000 0.05610657 -0.01652561
v 0.01163774 0.05416724 -0.01656303
v 0.00951979 0.06392271 0.01777851
v 0.00931851 0.06385640 -0.01341600
v 0.02445055 0.06255709 -0.01286528
v 0.03733669 0.06032974 0.01352562
v 0.03740463 0.06140706 0.00297823
v 0.01816627 0.06113826 0.01924190
v 0.02458173 0.06273970 0.01723530
v 0.03103100 0.06356777 -0.00541392
v 0.02971461 0.06360065 0.01060525
v 0.02245421 0.06486036 0.00087116
v 0.00963161 0.06475267 0.01561450
v 0.00931856 0.06297578 -0.01428724
v 0.02371015 0.06350035 -0.01063758
v 0.01050759 0.06472159 -0.01189210
v 0.03204375 0.06242667 -0.00965842
v 0.03201141 0.06050778 -0.01319444
v 0.03188113 0.06255234 0.01350133
v 0.03298454 0.06250844 0.01056836
v 0.03624701 0.06143878 0.00825773
v 0.03738601 0.06139960 -0.00648239
v 0.02878159 0.06058600 0.01820420
v 0.01804289 0.06302782 0.01814025
v 0.03193519 0.06131106 0.01652301
v 0.02218869 0.06477070 -0.00438258
vn 0.68650010 0.14667132 0.71218336
vn 0.60714222 -0.44586380 0.65771103
vn 0.69485302 0.17982943 -0.69630500
vn -0.56483260 0.29506470 -0.77064970
vn -0.76851956 -0.44925340 0.45557553
vn 0.20694310 0.94831775 0.24055770
vn 0.63611400 -0.48166562 -0.60279119
vn -0.38532295 -0.19312701 0.90234593
vn 0.80892235 0.58432587 0.06486843
vn 0.14995574 0.96832844 -0.19963292
vn 0.64296345 -0.70449100 0.30048369
vn 0.72885807 0.47882259 -0.48938211
vn -0.55806791 -0.68625779 -0.46648736
vn 0.07883089 -0.06686250 -0.99464320
vn -0.20369195 -0.70414073 0.68021719
vn 0.62061523 -0.10576073 0.77695006
vn -0.48354973 0.33028951 0.81060996
vn 0.73086635 0.59637358 0.33192307
vn 0.34108883 0.93796656 -0.06226664
vn 0.47806334 -0.72600523 0.49433981
vn 0.50792084 -0.84609450 -0.16168029
vn 0.12552252 0.56705701 -0.81405801
vn -0.81728453 -0.57206549 -0.06918868
vn 0.07838710 0.21989087 -0.97237003
vn 0.58858916 -0.20392594 -0.78228960
vn -0.60141573 -0.29521693 -0.74239214
vn -0.27321801 -0.58151848 0.76628205
vn -0.97954055 0.20054412 -0.01680403
vn -0.50292930 0.83028950 -0.24016965
vn 0.37346780 0.91394879 0.15880622
vn 0.71979569 0.39789639 0.56883445
vn 0.21288627 0.97706238 -0.00534197
vn 0.72986963 0.65174200 -0.20621032
vn 0.16802484 0.43467406 -0.88477461
vn -0.79192266 -0.58441498 0.17696789
vn -0.43668258 -0.86984741 -0.22950773
vn 0.11127087 0.09047584 -0.98966303
vn 0.07011219 0.42875444 -0.90069635
vn -0.58934389 0.08522836 -0.80337407
vn 0.01435430 -0.07460919 -0.99710953
vn -0.50618848 0.70940651 0.49042392
vn -0.56901582 0.65002228 -0.50367850
vn 0.13113574 0.81998826 -0.55715588
vn 0.43577811 0.87556040 0.20854598
vn 0.55620539 0.83064148 0.02589027
vn 0.05191914 0.28582125 0.95687544
vn 0.13371559 0.80065891 0.58400809
vn 0.20732078 0.97091860 -0.11972959
vn 0.26022885 0.96456544 0.04352538
vn 0.06861475 0.99759134 0.01017501
vn -0.49055729 0.85455297 0.17056601
vn -0.58623128 0.49868491 -0.63847180
vn 0.12663454 0.95012117 -0.28501484
vn 0.08277601 0.93634831 -0.34117440
vn 0.24741771 0.91031252 -0.33183669
vn 0.21868753 0.76298065 -0.60830608
vn 0.35229395 0.90259473 0.24741005
vn 0.33782285 0.93816913 0.07559371
vn 0.37800258 0.92230496 0.08042142
vn 0.53854824 0.83778851 -0.08986765
vn 0.16542552 0.52564390 0.83446563
vn 0.08907415 0.75823493 0.64586809
vn 0.28204447 0.77433785 0.56643782
vn 0.07686978 0.99425496 -0.07448560
f 11//11 1//1 2//2
f 12//12 7//7 3//3
f 12//12 11//11 7//7
f 12//12 1//1 11//11
f 12//12 9//9 1//1
f 15//15 5//5 2//2
f 16//16 8//8 2//2
f 16//16 2//2 1//1
f 16//16 1//1 8//8
f 17//17 8//8 1//1
f 17//17 5//5 8//8
f 20//20 11//11 2//2
f 20//20 2//2 5//5
f 20//20 5//5 11//11
f 21//21 11//11 5//5
f 21//21 7//7 11//11
f 21//21 13//13 7//7
f 25//25 14//14 3//3
f 25//25 3//3 7//7
f 26//26 13//13 23//23
f 26//26 25//25 7//7
f 26//26 7//7 13//13
f 27//27 8//8 5//5
f 27//27 5//5 15//15
f 27//27 15//15 2//2
f 27//27 2//2 8//8
f 31//31 1//1 9//9
f 31//31 9//9 18//18
f 33//33 9//9 12//12
f 34//34 12//12 3//3
f 35//35 23//23 21//21
f 35//35 21//21 5//5
f 35//35 28//28 23//23
f 35//35 5//5 28//28
f 36//36 23//23 13//13
f 36//36 13//13 21//21
f 36//36 21//21 23//23
f 37//37 3//3 14//14
f 37//37 34//34 3//3
f 37//37 24//24 34//34
f 38//38 24//24 4//4
f 38//38 34//34 24//24
f 38//38 22//22 34//34
f 39//39 4//4 24//24
f 39//39 24//24 37//37
f 39//39 28//28 4//4
f 39//39 26//26 23//23
f 39//39 23//23 28//28
f 40//40 14//14 25//25
f 40//40 25//25 26//26
f 40//40 26//26 39//39
f 40//40 39//39 37//37
f 40//40 37//37 14//14
f 41//41 28//28 5//5
f 41//41 5//5 17//17
f 42//42 28//28 29//29
f 44//44 18//18 9//9
f 44//44 9//9 30//30
f 45//45 9//9 33//33
f 46//46 17//17 1//1
f 48//48 32//32 19//19
f 49//49 32//32 6//6
f 49//49 19//19 32//32
f 49//49 45//45 19//19
f 50//50 6//6 32//32
f 51//51 29//29 28//28
f 51//51 28//28 41//41
f 51//51 50//50 29//29
f 51//51 6//6 50//50
f 52//52 4//4 28//28
f 52//52 28//28 42//42
f 52//52 38//38 4//4
f 52//52 42//42 43//43
f 52//52 43//43 22//22
f 52//52 22//22 38//38
f 54//54 43//43 42//42
f 54//54 42//42 29//29
f 54//54 53//53 43//43
f 54//54 10//10 53//53
f 55//55 33//33 12//12
f 55//55 10//10 48//48
f 55//55 48//48 19//19
f 55//55 53//53 10//10
f 55//55 43//43 53//53
f 56//56 34//34 22//22
f 56//56 22//22 43//43
f 56//56 12//12 34//34
f 56//56 55//55 12//12
f 56//56 43//43 55//55
f 57//57 44//44 30//30
f 57//57 30//30 6//6
f 57//57 6//6 18//18
f 57//57 18//18 44//44
f 58//58 6//6 30//30
f 58//58 49//49 6//6
f 58//58 45//45 49//49
f 59//59 30//30 9//9
f 59//59 9//9 45//45
f 59//59 58//58 30//30
f 59//59 45//45 58//58
f 60//60 45//45 33//33
f 60//60 19//19 45//45
f 60//60 55//55 19//19
f 60//60 33//33 55//55
f 61//61 46//46 1//1
f 61//61 1//1 31//31
f 62//62 41//41 17//17
f 62//62 17//17 46//46
f 62//62 61//61 47//47
f 62//62 46//46 61//61
f 62//62 51//51 41//41
f 62//62 47//47 6//6
f 62//62 6//6 51//51
f 63//63 18//18 6//6
f 63//63 6//6 47//47
f 63//63 47//47 61//61
f 63//63 61//61 31//31
f 63//63 31//31 18//18
f 64//64 50//50 32//32
f 64//64 32//32 48//48
f 64//64 48//48 10//10
f 64//64 10//10 54//54
f 64//64 54//54 29//29
f 64//64 29//29 50//50

