# https://github.com/mikedh/trimesh
v -0.02244617 -0.04901384 0.01905008
v -0.02226417 -0.05831136 0.01803339
v -0.02231514 -0.03866134 -0.01688038
v -0.05456002 -0.03431436 -0.01791906
v -0.05939412 -0.03379331 0.01636857
v -0.02214452 -0.06041420 -0.01209922
v -0.02228593 -0.05667062 0.01886752
v -0.04503174 -0.03495752 0.01877434
v -0.02217483 -0.06055802 0.01438457
v -0.02886496 -0.05371940 -0.01566996
v -0.04418447 -0.05418671 -0.00768136
v -0.04709545 -0.04597627 0.01993341
v -0.02241306 -0.03881891 -0.00752226
v -0.03870376 -0.03520877 -0.00452567
v -0.04540326 -0.04061800 -0.01777332
v -0.02244348 -0.05285747 -0.01568560
v -0.05811041 -0.03998952 -0.00444671
v -0.03925572 -0.05374086 -0.01487177
v -0.02737466 -0.06037586 -0.00586309
v -0.03835140 -0.05314168 0.01885491
v -0.05461600 -0.03413756 0.02030887
v -0.02676187 -0.05275366 0.02005042
v -0.02249191 -0.04716789 0.01731183
v -0.04604648 -0.03490187 -0.01779663
v -0.05731849 -0.03400898 -0.01611836
v -0.04101171 -0.03527913 0.01344653
v -0.02226046 -0.05763771 -0.01451037
v -0.03329441 -0.04834577 -0.01675568
v -0.05051449 -0.04744730 0.01631860
v -0.03578944 -0.05684437 -0.01207266
v -0.04792413 -0.04562819 -0.01676036
v -0.03082120 -0.05915374 0.01345105
v -0.02770492 -0.05627000 0.01892078
v -0.04793656 -0.03466569 0.02011943
v -0.03206641 -0.05253176 0.02007698
v -0.04290229 -0.03520360 -0.01516383
v -0.04430565 -0.03953934 -0.01782894
v -0.06056252 -0.03414761 -0.00535708
v -0.04196258 -0.03544934 0.01614831
v -0.02455732 -0.05377357 -0.01564342
v -0.03725429 -0.05337419 -0.01556715
v -0.05596117 -0.04108953 0.01457401
v -0.05309298 -0.04238215 0.01893589
v -0.05385943 -0.04531916 0.00264864
v -0.04332424 -0.05286030 0.01707046
v -0.02943024 -0.05821047 -0.01377104
v -0.04138652 -0.05382998 -0.01363085
v -0.04253084 -0.05484730 -0.00767410
v -0.05128303 -0.04049667 -0.01767931
v -0.05068866 -0.04638364 -0.01399294
v -0.02542728 -0.06039786 0.01329789
v -0.02965433 -0.05913517 0.01526605
v -0.02684287 -0.05093173 0.02005052
v -0.05110351 -0.04252112 0.01999219
v -0.03530596 -0.05150239 0.02002621
v -0.03193425 -0.05547432 0.01879119
v -0.05707724 -0.03604873 -0.01568344
v -0.05920698 -0.03586325 0.01432734
v -0.06062997 -0.03399160 -0.00174886
v -0.02258072 -0.04649465 0.01565349
v -0.02553598 -0.05769404 -0.01454524
v -0.04474706 -0.04995565 -0.01555635
v -0.04289366 -0.04818125 -0.01662558
v -0.05629646 -0.03605623 0.01908880
vn 0.72691486 0.22091607 0.65022371
vn 0.60989201 -0.54379497 0.57647096
vn 0.63302441 0.49909683 -0.59176216
vn -0.25163322 0.54875103 -0.79721580
vn -0.75598969 0.53084741 0.38298905
vn 0.58518273 -0.74211548 -0.32684213
vn 0.67715623 -0.21893394 0.70251503
vn 0.29220548 0.87938064 0.37590644
vn 0.62330470 -0.74718328 0.23066947
vn -0.00949779 -0.24339982 -0.96987954
vn -0.54634738 -0.83001269 -0.11217607
vn -0.24784021 -0.32469545 0.91276946
vn 0.76779311 0.63744058 0.06452323
vn 0.14810639 0.98896207 -0.00430453
vn -0.00569218 -0.09775890 -0.99519385
vn 0.60571418 -0.11688204 -0.78705077
vn -0.84324893 -0.52926231 -0.09387573
vn -0.26468216 -0.63549158 -0.72532325
vn -0.19162067 -0.97965327 -0.05967403
vn -0.22963340 -0.55866165 0.79697281
vn -0.22079371 0.61409463 0.75771889
vn 0.08626045 -0.12147206 0.98883956
vn 0.80071985 0.49020216 0.34431027
vn 0.08699828 0.70211807 -0.70672591
vn -0.62925384 0.57919376 -0.51824144
vn 0.25274241 0.96189849 0.10427166
vn 0.64963734 -0.34575497 -0.67707077
vn 0.01818153 -0.13841200 -0.99020783
vn -0.64614638 -0.68416089 0.33825837
vn -0.32577900 -0.90008984 -0.28932043
vn -0.33134481 -0.40730062 -0.85106805
vn -0.32718844 -0.93771038 0.11682026
vn -0.09005995 -0.52563325 0.84593079
vn 0.12275289 0.71037069 0.69304056
vn -0.05709762 -0.21582027 0.97476227
vn 0.15169751 0.98629218 -0.06492761
vn 0.02571086 -0.02917033 -0.99924374
vn -0.89229635 0.43097654 -0.13441145
vn 0.39208513 0.88007253 0.26784621
vn 0.03569101 -0.21063474 -0.97691308
vn -0.10984774 -0.40482306 -0.90777297
vn -0.80850334 -0.54776508 0.21511803
vn -0.62900926 -0.45646445 0.62927543
vn -0.73996437 -0.67239025 0.01854922
vn -0.46203221 -0.76221689 0.45337805
vn -0.19205246 -0.79208489 -0.57941123
vn -0.43292464 -0.77595306 -0.45877348
vn -0.36188533 -0.93008832 -0.06304544
vn -0.32131632 -0.28929801 -0.90169977
vn -0.66674440 -0.61882066 -0.41534672
vn -0.14010915 -0.98171572 0.12885526
vn -0.23244529 -0.87879438 0.41676087
vn 0.11875681 0.06372433 0.99087639
vn -0.27613996 -0.27584099 0.92068370
vn -0.09411841 -0.22617983 0.96952793
vn -0.18208927 -0.59709517 0.78123034
vn -0.77282021 -0.34926902 -0.52986798
vn -0.90765708 -0.37528219 0.18794125
vn -0.84692149 0.53161605 0.01041002
vn 0.62518688 0.73663944 0.25788312
vn -0.02226540 -0.50123133 -0.86502682
vn -0.38391500 -0.57061234 -0.72595512
vn -0.08465351 -0.25998684 -0.96189429
vn -0.63663064 -0.20569507 0.74323009
f 7//7 3//3 1//1
f 9//9 6//6 3//3
f 9//9 7//7 2//2
f 9//9 3//3 7//7
f 13//13 1//1 3//3
f 14//14 13//13 3//3
f 19//19 6//6 9//9
f 21//21 14//14 5//5
f 22//22 7//7 1//1
f 23//23 8//8 1//1
f 23//23 1//1 13//13
f 25//25 5//5 14//14
f 25//25 24//24 4//4
f 25//25 14//14 24//24
f 26//26 13//13 14//14
f 27//27 16//16 3//3
f 27//27 3//3 6//6
f 28//28 3//3 16//16
f 33//33 2//2 7//7
f 34//34 14//14 21//21
f 34//34 26//26 14//14
f 34//34 8//8 26//26
f 34//34 1//1 8//8
f 35//35 22//22 21//21
f 35//35 33//33 7//7
f 35//35 7//7 22//22
f 36//36 24//24 14//14
f 36//36 14//14 3//3
f 36//36 3//3 24//24
f 37//37 15//15 4//4
f 37//37 4//4 24//24
f 37//37 24//24 3//3
f 37//37 28//28 15//15
f 37//37 3//3 28//28
f 39//39 13//13 26//26
f 39//39 26//26 8//8
f 39//39 8//8 23//23
f 40//40 16//16 27//27
f 40//40 28//28 16//16
f 40//40 10//10 28//28
f 43//43 42//42 29//29
f 44//44 17//17 11//11
f 44//44 11//11 29//29
f 44//44 42//42 17//17
f 44//44 29//29 42//42
f 45//45 20//20 12//12
f 45//45 43//43 29//29
f 45//45 12//12 43//43
f 45//45 29//29 11//11
f 45//45 11//11 32//32
f 46//46 6//6 19//19
f 46//46 19//19 30//30
f 46//46 18//18 41//41
f 47//47 30//30 11//11
f 47//47 46//46 30//30
f 47//47 18//18 46//46
f 48//48 30//30 19//19
f 48//48 11//11 30//30
f 48//48 32//32 11//11
f 48//48 19//19 32//32
f 49//49 4//4 15//15
f 50//50 11//11 17//17
f 50//50 49//49 31//31
f 50//50 47//47 11//11
f 51//51 32//32 19//19
f 51//51 19//19 9//9
f 52//52 9//9 2//2
f 52//52 45//45 32//32
f 52//52 51//51 9//9
f 52//52 32//32 51//51
f 53//53 22//22 1//1
f 53//53 1//1 34//34
f 53//53 34//34 21//21
f 53//53 21//21 22//22
f 54//54 35//35 21//21
f 54//54 43//43 12//12
f 55//55 12//12 20//20
f 55//55 20//20 35//35
f 55//55 54//54 12//12
f 55//55 35//35 54//54
f 56//56 35//35 20//20
f 56//56 33//33 35//35
f 56//56 20//20 45//45
f 56//56 45//45 52//52
f 56//56 52//52 2//2
f 56//56 2//2 33//33
f 57//57 38//38 25//25
f 57//57 17//17 38//38
f 57//57 50//50 17//17
f 57//57 49//49 50//50
f 57//57 25//25 4//4
f 57//57 4//4 49//49
f 58//58 17//17 42//42
f 58//58 43//43 5//5
f 58//58 42//42 43//43
f 59//59 5//5 25//25
f 59//59 25//25 38//38
f 59//59 58//58 5//5
f 59//59 38//38 17//17
f 59//59 17//17 58//58
f 60//60 39//39 23//23
f 60//60 23//23 13//13
f 60//60 13//13 39//39
f 61//61 40//40 27//27
f 61//61 10//10 40//40
f 61//61 41//41 10//10
f 61//61 46//46 41//41
f 61//61 27//27 6//6
f 61//61 6//6 46//46
f 62//62 41//41 18//18
f 62//62 31//31 41//41
f 62//62 18//18 47//47
f 62//62 50//50 31//31
f 62//62 47//47 50//50
f 63//63 41//41 31//31
f 63//63 28//28 10//10
f 63//63 10//10 41//41
f 63//63 31//31 49//49
f 63//63 49//49 15//15
f 63//63 15//15 28//28
f 64//64 21//21 5//5
f 64//64 5//5 43//43
f 64//64 54//54 21//21
f 64//64 43//43 54//54

