# https://github.com/mikedh/trimesh
v -0.04169642 0.04347108 0.01995900
v -0.04606805 -0.01763177 0.01508764
v -0.04186895 0.04276914 -0.02039097
v -0.05018371 0.03519322 -0.02114881
v -0.06800345 0.00722034 0.01424146
v -0.04927249 -0.01735310 -0.01709069
v -0.05309143 0.04194060 -0.00688594
v -0.04379263 -0.01735748 0.00134927
v -0.05982377 -0.01665446 0.01983785
v -0.05128818 -0.01735268 -0.01829366
v -0.04171039 0.04749514 -0.01695879
v -0.06047543 0.03140502 0.01608825
v -0.07006766 0.01545031 -0.00448328
v -0.04221908 0.03506060 0.01970167
v -0.04146798 0.04773493 0.01514226
v -0.04381903 -0.01733590 -0.00593337
v -0.05886399 0.01395044 -0.02149317
v -0.04216848 0.03810027 -0.02007494
v -0.04713504 -0.01747942 -0.01463538
v -0.06496392 -0.01662831 -0.00552609
v -0.05226099 0.03883534 -0.01926875
v -0.05983220 0.02429198 0.02086979
v -0.06466268 0.02710688 -0.00412525
v -0.06467755 0.02308182 0.01521906
v -0.05233795 -0.01714639 0.01995042
v -0.04587491 0.04604829 0.01321246
v -0.04896575 0.03379008 -0.02116945
v -0.04827578 -0.01733986 -0.01628937
v -0.06570427 -0.01304083 0.01326056
v -0.06293201 -0.01547373 -0.01593001
v -0.04278193 0.04587657 -0.01906347
v -0.04408883 0.04653579 -0.01765361
v -0.06146595 0.02859244 -0.01851537
v -0.05335331 0.03684731 0.01990133
v -0.06525744 0.00518108 0.01972336
v -0.05926079 0.03457856 0.01110234
v -0.06682895 0.01460272 0.01547988
v -0.06897174 0.01865371 -0.00316927
v -0.06080704 0.02633042 0.01988954
v -0.05023644 -0.01724160 0.01904277
v -0.06176809 0.00503130 0.02102103
v -0.04255112 0.04727481 -0.01689495
v -0.04873474 0.03544564 -0.02116456
v -0.06379551 -0.01627401 0.01619956
v -0.07024200 0.00394302 -0.00211440
v -0.06009277 -0.00895312 -0.01916974
v -0.06101705 -0.01665513 -0.01710257
v -0.04185712 0.04574716 -0.01928607
v -0.04715303 0.04118822 -0.02020779
v -0.05270854 0.03881070 -0.01885225
v -0.04353164 0.04632590 -0.01829559
v -0.05987934 0.03247868 -0.01852984
v -0.06573443 0.01580096 -0.01779119
v -0.05663144 0.02974573 0.02091394
v -0.05094899 0.04198800 0.01715731
v -0.06688315 -0.00446316 0.01633541
v -0.06137900 0.03148847 0.01000700
v -0.05603578 0.03894426 -0.00644465
v -0.07017080 0.01549574 -0.00401314
v -0.06679604 0.01142549 0.01708555
v -0.06370052 0.02416893 0.01696150
v -0.05815870 0.03350046 0.01793293
v -0.06498513 0.01137761 0.01991743
v -0.06433375 -0.00367277 0.01973937
vn 0.54502466 0.40099568 0.73630876
vn 0.62481187 -0.70068542 0.34445619
vn 0.64367796 0.15432017 -0.74957586
vn -0.17312524 0.15794672 -0.97215250
vn -0.96624838 0.01525989 0.25715987
vn 0.40875361 -0.68930880 -0.59814201
vn -0.61786659 0.78392547 -0.06084189
vn 0.73878029 -0.67268206 0.04126172
vn -0.26813971 -0.67158412 0.69070678
vn 0.14552111 -0.69602847 -0.70311306
vn 0.57135897 0.78755656 -0.23087570
vn -0.81659692 0.49363826 0.29915002
vn -0.95487047 0.14133834 -0.26123907
vn 0.76001303 -0.06915992 0.64621753
vn 0.50337084 0.81161019 0.29649063
vn 0.73180996 -0.67183494 -0.11442028
vn -0.18980854 -0.01669144 -0.98167923
vn 0.75795722 -0.09386920 -0.64551485
vn 0.59850184 -0.73203044 -0.32546426
vn -0.66148773 -0.74621684 -0.07479577
vn -0.44098913 0.49635681 -0.74776901
vn -0.28995241 0.10074433 0.95172379
vn -0.86477549 0.50100365 -0.03403976
vn -0.91677232 0.32790660 0.22804775
vn 0.10149059 -0.68152182 0.72472592
vn -0.47166881 0.87423730 0.11505510
vn 0.11351350 -0.03197739 -0.99302172
vn 0.56089632 -0.62205823 -0.54629560
vn -0.93868468 -0.31150758 0.14776365
vn -0.77658955 -0.41410834 -0.47478727
vn -0.18802171 0.62188254 -0.76020388
vn -0.44981223 0.82533325 -0.34131215
vn -0.71026893 0.26855651 -0.65068844
vn -0.39346638 0.42195836 0.81678354
vn -0.65567790 -0.02329831 0.75468118
vn -0.77100325 0.62845938 0.10292127
vn -0.93518351 0.19503948 0.29562035
vn -0.92175073 0.38765187 -0.01008098
vn -0.63497507 0.30340010 0.71046114
vn 0.36994054 -0.67537763 0.63797262
vn -0.14168146 -0.01948540 0.98972051
vn -0.31797070 0.93584777 -0.15193285
vn 0.03730564 0.05198975 -0.99795058
vn -0.62525558 -0.70442172 0.33592485
vn -0.99159083 -0.09599793 -0.08678724
vn -0.33305663 -0.12970730 -0.93394288
vn -0.35924293 -0.71212369 -0.60317856
vn 0.57397622 0.45819843 -0.67867923
vn -0.25292619 0.37964186 -0.88988786
vn -0.60561789 0.68983710 -0.39667588
vn -0.29768073 0.73284201 -0.61182413
vn -0.67162472 0.44726759 -0.59065382
vn -0.78151232 0.07907383 -0.61885848
vn -0.21277874 0.17108709 0.96200541
vn -0.53751005 0.72226068 0.43522690
vn -0.91195207 -0.14379360 0.38427441
vn -0.86288436 0.49850275 0.08322018
vn -0.75243527 0.65741496 -0.04057999
vn -0.98152892 0.18321816 -0.05506438
vn -0.90188862 0.10555666 0.41887313
vn -0.84610784 0.32188092 0.42484609
vn -0.69585141 0.53251019 0.48189595
vn -0.61122624 0.08160855 0.78723727
vn -0.55059569 -0.11451534 0.82688005
f 14//14 8//8 1//1
f 14//14 2//2 8//8
f 15//15 1//1 8//8
f 15//15 3//3 11//11
f 16//16 15//15 8//8
f 16//16 3//3 15//15
f 16//16 8//8 2//2
f 18//18 10//10 3//3
f 18//18 6//6 10//10
f 18//18 3//3 16//16
f 19//19 10//10 6//6
f 19//19 2//2 10//10
f 19//19 16//16 2//2
f 19//19 18//18 16//16
f 20//20 10//10 2//2
f 20//20 2//2 9//9
f 25//25 9//9 2//2
f 25//25 14//14 1//1
f 27//27 3//3 10//10
f 27//27 10//10 17//17
f 28//28 19//19 6//6
f 28//28 6//6 18//18
f 28//28 18//18 19//19
f 32//32 7//7 26//26
f 40//40 25//25 2//2
f 40//40 2//2 14//14
f 40//40 14//14 25//25
f 41//41 9//9 25//25
f 41//41 25//25 1//1
f 42//42 26//26 15//15
f 42//42 15//15 11//11
f 42//42 32//32 26//26
f 42//42 11//11 32//32
f 43//43 27//27 17//17
f 43//43 17//17 4//4
f 43//43 4//4 3//3
f 43//43 3//3 27//27
f 44//44 29//29 20//20
f 44//44 20//20 9//9
f 45//45 20//20 29//29
f 45//45 30//30 20//20
f 46//46 17//17 10//10
f 47//47 10//10 20//20
f 47//47 20//20 30//30
f 47//47 46//46 10//10
f 47//47 30//30 46//46
f 48//48 31//31 11//11
f 48//48 11//11 3//3
f 49//49 3//3 4//4
f 49//49 4//4 21//21
f 49//49 21//21 31//31
f 49//49 48//48 3//3
f 49//49 31//31 48//48
f 50//50 32//32 21//21
f 50//50 7//7 32//32
f 51//51 31//31 21//21
f 51//51 21//21 32//32
f 51//51 32//32 11//11
f 51//51 11//11 31//31
f 52//52 7//7 50//50
f 52//52 50//50 21//21
f 52//52 21//21 4//4
f 52//52 4//4 17//17
f 52//52 17//17 33//33
f 52//52 38//38 23//23
f 53//53 13//13 33//33
f 53//53 45//45 13//13
f 53//53 30//30 45//45
f 53//53 33//33 17//17
f 53//53 46//46 30//30
f 53//53 17//17 46//46
f 54//54 1//1 34//34
f 54//54 41//41 1//1
f 54//54 22//22 41//41
f 54//54 39//39 22//22
f 54//54 34//34 39//39
f 55//55 34//34 1//1
f 55//55 1//1 15//15
f 55//55 15//15 26//26
f 55//55 26//26 7//7
f 55//55 7//7 36//36
f 56//56 29//29 44//44
f 56//56 45//45 29//29
f 56//56 5//5 45//45
f 57//57 36//36 23//23
f 57//57 12//12 36//36
f 57//57 23//23 38//38
f 57//57 38//38 24//24
f 57//57 24//24 12//12
f 58//58 36//36 7//7
f 58//58 23//23 36//36
f 58//58 52//52 23//23
f 58//58 7//7 52//52
f 59//59 37//37 24//24
f 59//59 5//5 37//37
f 59//59 45//45 5//5
f 59//59 13//13 45//45
f 59//59 24//24 38//38
f 59//59 38//38 52//52
f 59//59 52//52 33//33
f 59//59 33//33 13//13
f 60//60 37//37 5//5
f 60//60 56//56 35//35
f 60//60 5//5 56//56
f 61//61 39//39 12//12
f 61//61 12//12 24//24
f 61//61 24//24 37//37
f 61//61 37//37 60//60
f 62//62 39//39 34//34
f 62//62 12//12 39//39
f 62//62 34//34 55//55
f 62//62 55//55 36//36
f 62//62 36//36 12//12
f 63//63 22//22 39//39
f 63//63 41//41 22//22
f 63//63 35//35 41//41
f 63//63 60//60 35//35
f 63//63 61//61 60//60
f 63//63 39//39 61//61
f 64//64 41//41 35//35
f 64//64 9//9 41//41
f 64//64 35//35 56//56
f 64//64 56//56 44//44
f 64//64 44//44 9//9

