# https://github.com/mikedh/trimesh
v 0.04590189 -0.04628382 0.01937919
v 0.06113302 -0.03546704 0.01280814
v -0.00301513 -0.04841133 0.01761615
v -0.00337697 -0.04716415 -0.01486996
v 0.03687485 -0.05819811 -0.01032423
v 0.04381857 -0.03638630 0.01271000
v 0.04548940 -0.05495942 0.01430364
v 0.05470818 -0.03517262 -0.01348806
v -0.00262035 -0.06269248 -0.00356344
v -0.00334297 -0.04628374 0.00277781
v 0.04010014 -0.04410113 0.01860320
v 0.05473137 -0.04650862 -0.00659108
v 0.05172615 -0.04689716 0.01734329
v 0.01551965 -0.06011179 0.01912784
v 0.01124541 -0.05926189 -0.01419823
v 0.06154451 -0.03520798 0.00836953
v -0.00297286 -0.04759143 0.01483673
v -0.00278555 -0.06061605 0.01722109
v 0.04505040 -0.03582347 -0.01297737
v -0.00296939 -0.05025729 0.01935441
v 0.04544277 -0.05493865 -0.00847456
v 0.05016781 -0.04617449 0.01840669
v 0.05479959 -0.04649754 0.01159304
v 0.01874523 -0.06377710 -0.00579223
v 0.03483671 -0.05581178 -0.01299172
v 0.01771551 -0.05618766 -0.01430871
v -0.00278178 -0.06104326 -0.01308334
v 0.06064189 -0.03516312 -0.00977680
v -0.00352233 -0.04632579 -0.01377656
v 0.05161468 -0.03539098 -0.01359851
v 0.04058340 -0.03675120 -0.00052886
v 0.00813587 -0.05439720 0.02042527
v 0.04014147 -0.05827069 0.00542655
v 0.05188432 -0.04613133 0.01762925
v 0.04020524 -0.05446436 0.01803506
v 0.05370615 -0.04658020 0.01530584
v 0.05906129 -0.04126322 0.00507672
v 0.04733363 -0.05404105 0.01057437
v 0.02052116 -0.06257000 -0.01034824
v 0.01021129 -0.06388110 0.01269208
v 0.04445302 -0.05415303 -0.01102265
v 0.03825610 -0.05353805 -0.01301575
v -0.00278368 -0.05888115 -0.01420604
v -0.00265986 -0.06263333 -0.00447435
v 0.06161511 -0.03509966 -0.00662234
v 0.01236473 -0.05724107 0.02024186
v -0.00280915 -0.05791407 0.01917184
v 0.03687275 -0.05934771 -0.00770197
v 0.04998514 -0.04726195 0.01810947
v 0.04767172 -0.05095842 0.01697342
v 0.03268018 -0.05943298 0.01643215
v 0.05909789 -0.04024721 0.01168038
v 0.04940873 -0.05190773 0.01365175
v 0.06034761 -0.03727993 0.01279557
v 0.05799739 -0.04338074 0.00104677
v 0.04841945 -0.05290250 -0.00752482
v 0.04427042 -0.05607618 0.00746275
v 0.02405519 -0.06077619 -0.01195965
v 0.01547055 -0.06179523 -0.01213969
v 0.00817021 -0.06368541 -0.00850399
v 0.00054507 -0.06263296 0.01370168
v 0.00622524 -0.06270066 0.01634012
v 0.03901536 -0.05815157 -0.00857902
v 0.03708183 -0.05663182 -0.01201714
vn 0.13101484 0.08202414 0.98798135
vn 0.71185570 0.50445790 0.48865498
vn -0.70565834 0.58457176 0.40040250
vn -0.61696091 0.25835214 -0.74337972
vn 0.28862030 -0.80739263 -0.51460224
vn -0.10622737 0.89765174 0.42771146
vn 0.48063317 -0.80231119 0.35396118
vn 0.28959083 0.56060372 -0.77579676
vn -0.62518198 -0.78046361 0.00490377
vn -0.77821718 0.62662577 0.04145081
vn -0.03253670 0.46692821 0.88369645
vn 0.73599540 -0.60040197 -0.31277507
vn 0.56955675 -0.49398572 0.65694994
vn 0.08296052 -0.62120616 0.77924351
vn 0.02311778 -0.34841366 -0.93705576
vn 0.81960513 0.56907203 0.06636615
vn -0.67940232 0.71786914 0.15190913
vn -0.68593926 -0.58772373 0.42903163
vn -0.13684686 0.90362589 -0.40587337
vn -0.66126132 0.25865351 0.70415327
vn 0.53131179 -0.80996909 -0.24830998
vn 0.29600217 -0.03469757 0.95455686
vn 0.76616411 -0.63199110 0.11653242
vn 0.12099721 -0.98963692 -0.07732034
vn 0.14123143 -0.33723765 -0.93076552
vn 0.04999362 -0.10438954 -0.99327915
vn -0.63033524 -0.60827303 -0.48237061
vn 0.73675128 0.42830775 -0.52321125
vn -0.73270354 0.63045504 -0.25626541
vn -0.02717996 0.68316736 -0.72975586
vn -0.19307124 0.98111739 0.01149615
vn -0.03703375 0.02413932 0.99902242
vn 0.36013926 -0.93223360 0.03521689
vn 0.54273029 -0.20849266 0.81361824
vn 0.25006341 -0.50144048 0.82826671
vn 0.73047549 -0.52970485 0.43106651
vn 0.87945897 -0.47415569 0.04157280
vn 0.61984930 -0.78390797 0.03570904
vn 0.13721487 -0.90482584 -0.40306609
vn 0.03730432 -0.98139067 0.18836334
vn 0.43265043 -0.56565355 -0.70203253
vn 0.17436875 -0.23616365 -0.95594052
vn -0.61939321 -0.21854148 -0.75405018
vn -0.71660463 -0.69414439 -0.06812761
vn 0.85908595 0.48773568 -0.15519420
vn 0.00511704 -0.21867452 0.97578444
vn -0.66837861 -0.25273484 0.69956782
vn 0.31729759 -0.93135515 -0.17860520
vn 0.34531357 -0.38907433 0.85403730
vn 0.46444752 -0.57797370 0.67099546
vn 0.22984370 -0.83482665 0.50023628
vn 0.85340373 -0.48466743 0.19183209
vn 0.66440500 -0.70177861 0.25704625
vn 0.84350873 -0.38423958 0.37530384
vn 0.82186288 -0.56895443 -0.02884882
vn 0.66012353 -0.70566026 -0.25745004
vn 0.50154104 -0.86496703 0.01698855
vn 0.16938281 -0.67956901 -0.71378949
vn 0.04621869 -0.74905166 -0.66089745
vn -0.04108248 -0.97053411 -0.23743584
vn -0.25620238 -0.95236052 0.16543811
vn -0.05914046 -0.85088010 0.52202056
vn 0.40941688 -0.86368230 -0.29399099
vn 0.26138061 -0.57753896 -0.77338795
f 11//11 1//1 2//2
f 11//11 2//2 6//6
f 16//16 8//8 6//6
f 16//16 6//6 2//2
f 17//17 10//10 3//3
f 17//17 3//3 6//6
f 17//17 6//6 10//10
f 19//19 6//6 8//8
f 20//20 11//11 6//6
f 20//20 6//6 3//3
f 20//20 1//1 11//11
f 20//20 3//3 10//10
f 20//20 10//10 18//18
f 22//22 2//2 1//1
f 26//26 15//15 4//4
f 26//26 25//25 15//15
f 29//29 18//18 10//10
f 29//29 27//27 18//18
f 29//29 4//4 27//27
f 29//29 19//19 4//4
f 30//30 19//19 8//8
f 30//30 4//4 19//19
f 30//30 26//26 4//4
f 30//30 8//8 26//26
f 31//31 10//10 6//6
f 31//31 6//6 19//19
f 31//31 29//29 10//10
f 31//31 19//19 29//29
f 32//32 1//1 20//20
f 34//34 2//2 22//22
f 36//36 34//34 13//13
f 41//41 8//8 28//28
f 41//41 28//28 12//12
f 42//42 26//26 8//8
f 42//42 25//25 26//26
f 42//42 8//8 41//41
f 43//43 27//27 4//4
f 43//43 4//4 15//15
f 43//43 15//15 27//27
f 44//44 9//9 18//18
f 44//44 18//18 27//27
f 45//45 28//28 8//8
f 45//45 8//8 16//16
f 45//45 16//16 37//37
f 45//45 12//12 28//28
f 46//46 1//1 32//32
f 46//46 35//35 1//1
f 46//46 14//14 35//35
f 47//47 32//32 20//20
f 47//47 20//20 18//18
f 47//47 46//46 32//32
f 47//47 18//18 14//14
f 47//47 14//14 46//46
f 48//48 21//21 33//33
f 48//48 33//33 24//24
f 48//48 39//39 5//5
f 48//48 24//24 39//39
f 49//49 34//34 22//22
f 49//49 13//13 34//34
f 49//49 22//22 1//1
f 49//49 1//1 35//35
f 50//50 35//35 7//7
f 50//50 49//49 35//35
f 50//50 13//13 49//49
f 51//51 35//35 14//14
f 51//51 7//7 35//35
f 51//51 33//33 7//7
f 51//51 40//40 24//24
f 51//51 24//24 33//33
f 52//52 36//36 23//23
f 52//52 23//23 37//37
f 53//53 23//23 36//36
f 53//53 38//38 23//23
f 53//53 7//7 38//38
f 53//53 50//50 7//7
f 53//53 36//36 13//13
f 53//53 13//13 50//50
f 54//54 2//2 34//34
f 54//54 34//34 36//36
f 54//54 36//36 52//52
f 54//54 16//16 2//2
f 54//54 52//52 37//37
f 54//54 37//37 16//16
f 55//55 37//37 23//23
f 55//55 45//45 37//37
f 55//55 12//12 45//45
f 55//55 23//23 38//38
f 56//56 38//38 21//21
f 56//56 55//55 38//38
f 56//56 12//12 55//55
f 56//56 41//41 12//12
f 56//56 21//21 41//41
f 57//57 33//33 21//21
f 57//57 21//21 38//38
f 57//57 38//38 7//7
f 57//57 7//7 33//33
f 58//58 5//5 39//39
f 58//58 15//15 25//25
f 59//59 27//27 15//15
f 59//59 58//58 39//39
f 59//59 15//15 58//58
f 60//60 39//39 24//24
f 60//60 59//59 39//39
f 60//60 27//27 59//59
f 60//60 44//44 27//27
f 60//60 9//9 44//44
f 60//60 40//40 9//9
f 60//60 24//24 40//40
f 61//61 18//18 9//9
f 61//61 9//9 40//40
f 62//62 14//14 18//18
f 62//62 61//61 40//40
f 62//62 18//18 61//61
f 62//62 51//51 14//14
f 62//62 40//40 51//51
f 63//63 41//41 21//21
f 63//63 5//5 41//41
f 63//63 48//48 5//5
f 63//63 21//21 48//48
f 64//64 41//41 5//5
f 64//64 42//42 41//41
f 64//64 25//25 42//42
f 64//64 58//58 25//25
f 64//64 5//5 58//58

