# https://github.com/mikedh/trimesh
v 0.01195368 0.03266246 0.11564438
v 0.06450348 0.02380009 0.04656056
v 0.00334967 0.06793855 0.06335198
v -0.02036287 0.07291505 0.01460045
v -0.05054956 0.02430502 0.02729162
v 0.05560859 0.04171440 0.02619449
v 0.00407009 0.05776047 0.09660981
v -0.01855989 0.02374610 0.09109804
v 0.00248403 0.07387600 0.02695197
v -0.01385923 0.04142718 0.01506151
v 0.05949599 0.02517188 0.05953803
v -0.01133451 0.06602834 0.07317658
v 0.00326399 0.06304214 0.08225547
v -0.05021425 0.02330455 0.06112876
v -0.01574204 0.03354005 0.11595907
v -0.01369640 0.07474970 0.01494187
v 0.00219480 0.07027593 0.05598199
v -0.02119729 0.04142718 0.01506151
v 0.06624831 0.02422134 0.02709683
v 0.01277206 0.03666253 0.11206933
v 0.06032364 0.03135968 0.04842671
v 0.06014689 0.02332661 0.05997820
v -0.00593494 0.06332421 0.08713743
v -0.04969142 0.03691273 0.02637114
v 0.00217637 0.04410516 0.11299673
v -0.01957768 0.03294505 0.11200916
v -0.01012324 0.06755809 0.06624681
v 0.00021356 0.07322391 0.03675541
v -0.00019633 0.06504127 0.08113826
v 0.06219101 0.02326116 0.05600416
v 0.06410291 0.03259124 0.02688496
v 0.00573056 0.05375304 0.10113165
v 0.01321475 0.02647354 0.09231654
v 0.01397314 0.03291700 0.11406019
v -0.01398645 0.05890916 0.08968532
v 0.00758655 0.03786732 0.11493543
v -0.00597682 0.05547995 0.10130085
v 0.00016649 0.07078194 0.05614945
v -0.00017516 0.06763682 0.07077192
v 0.00036049 0.06283771 0.08741164
v 0.06130962 0.02529321 0.05575046
v 0.06243557 0.03370964 0.03409360
v 0.06407477 0.02777469 0.04138393
v 0.05924438 0.02703666 0.05760709
v -0.01353345 0.06621957 0.06569760
v -0.01372709 0.05633206 0.09408156
v -0.01266423 0.06052385 0.08809381
v -0.01259491 0.03665516 0.11521820
v 0.00674298 0.04200665 0.11302103
v -0.00224189 0.05591221 0.10072431
v -0.00592579 0.06775200 0.07059941
v 0.06382894 0.03244236 0.02929057
v 0.06132575 0.02992259 0.04841499
v -0.01433987 0.06043930 0.08305395
v -0.01241754 0.05106459 0.10330155
v -0.00836411 0.05782524 0.09645283
v 0.00192361 0.05380563 0.10359477
v 0.01315764 0.03473412 0.11336900
v -0.00726679 0.06514927 0.07994977
v 0.06404141 0.02576941 0.04642860
v -0.01530134 0.03467224 0.11568030
v -0.00568903 0.04689700 0.11024623
v -0.00850034 0.06042614 0.09165761
v -0.00975457 0.05573264 0.09852587
vn 0.34678883 -0.37082199 0.86152688
vn 0.85230818 -0.50772290 0.12565117
vn 0.47697073 0.85337262 0.21036656
vn -0.45132025 0.65412269 -0.60698726
vn -0.65336843 -0.59539676 -0.46756005
vn 0.57198970 0.64464097 -0.50721377
vn 0.36730853 0.82862310 0.42245497
vn -0.11928924 -0.96398755 0.23769325
vn 0.33359429 0.92840648 -0.16363451
vn 0.04593974 -0.28292946 -0.95803991
vn 0.74725696 0.46968527 0.47010934
vn -0.43077690 0.87446018 0.22304855
vn 0.49938896 0.82972568 0.24933105
vn -0.85327765 -0.44991554 0.26361574
vn -0.39082120 -0.31702732 0.86414841
vn -0.00065358 0.76703040 -0.64161043
vn 0.39283472 0.90531840 0.16149142
vn -0.13344769 -0.25908118 -0.95659221
vn 0.70621035 -0.50265569 -0.49860224
vn 0.63700964 0.54355890 0.54659166
vn 0.69870248 0.65822808 0.28026887
vn 0.70430997 -0.52748526 0.47508605
vn -0.12451781 0.92106703 0.36895914
vn -0.84105721 0.31071936 -0.44280498
vn 0.09171131 0.54046700 0.83635188
vn -0.74169887 -0.25888655 0.61875725
vn -0.24731089 0.95623526 0.15636961
vn 0.08164792 0.98973002 0.11733755
vn 0.21263444 0.94062097 0.26461064
vn 0.79040165 -0.53388876 0.30037979
vn 0.74064693 0.36822403 -0.56200817
vn 0.52838701 0.68178906 0.50593561
vn 0.08904924 -0.96705998 0.23846430
vn 0.69341696 -0.04872011 0.71888752
vn -0.62580949 0.69148657 0.36084458
vn 0.19554826 0.33154546 0.92295097
vn -0.16294792 0.79101918 0.58969198
vn 0.06708543 0.98464219 0.16118096
vn 0.20277788 0.95198696 0.22935117
vn 0.23449330 0.90322108 0.35945039
vn 0.81924483 0.46037675 0.34189349
vn 0.77694680 0.60825215 0.16242842
vn 0.92489419 0.35322320 0.14072706
vn 0.70866324 0.58151828 0.39954086
vn -0.64129083 0.74458081 0.18532534
vn -0.62524558 0.64749302 0.43568424
vn -0.47744672 0.81704713 0.32323152
vn -0.13844135 0.41655788 0.89850627
vn 0.40700065 0.55716628 0.72382056
vn 0.01910827 0.84961908 0.52705056
vn -0.10549077 0.97273321 0.20654735
vn 0.89522792 0.42612148 0.13033598
vn 0.82224212 0.50424609 0.26392001
vn -0.71943078 0.66762816 0.19155152
vn -0.53931524 0.63171932 0.55683909
vn -0.28012976 0.82422310 0.49212154
vn 0.18107657 0.75366389 0.63182436
vn 0.59349932 0.50844376 0.62389382
vn -0.17487924 0.94724331 0.26860262
vn 0.92042422 0.34025625 0.19247062
vn -0.37861339 0.42647906 0.82144233
vn -0.17525614 0.62744613 0.75868086
vn -0.26074468 0.85457876 0.44911841
vn -0.39201741 0.76120079 0.51661949
f 13//13 6//6 3//3
f 15//15 8//8 1//1
f 16//16 9//9 6//6
f 16//16 10//10 4//4
f 17//17 3//3 6//6
f 17//17 6//6 9//9
f 18//18 4//4 10//10
f 19//19 18//18 10//10
f 19//19 5//5 18//18
f 19//19 10//10 16//16
f 21//21 13//13 7//7
f 21//21 6//6 13//13
f 24//24 5//5 14//14
f 24//24 18//18 5//5
f 24//24 4//4 18//18
f 26//26 14//14 8//8
f 26//26 8//8 15//15
f 27//27 16//16 4//4
f 27//27 4//4 12//12
f 28//28 9//9 16//16
f 29//29 13//13 3//3
f 30//30 14//14 5//5
f 30//30 5//5 19//19
f 30//30 19//19 2//2
f 30//30 11//11 22//22
f 30//30 22//22 8//8
f 30//30 8//8 14//14
f 31//31 19//19 16//16
f 31//31 16//16 6//6
f 32//32 20//20 11//11
f 32//32 21//21 7//7
f 33//33 22//22 1//1
f 33//33 1//1 8//8
f 33//33 8//8 22//22
f 34//34 1//1 22//22
f 34//34 22//22 11//11
f 34//34 11//11 20//20
f 35//35 24//24 14//14
f 36//36 15//15 1//1
f 38//38 17//17 9//9
f 38//38 9//9 28//28
f 38//38 28//28 16//16
f 39//39 29//29 3//3
f 39//39 3//3 17//17
f 39//39 17//17 38//38
f 40//40 29//29 23//23
f 40//40 23//23 7//7
f 40//40 7//7 13//13
f 40//40 13//13 29//29
f 41//41 11//11 30//30
f 42//42 31//31 6//6
f 42//42 6//6 21//21
f 43//43 2//2 19//19
f 43//43 19//19 31//31
f 44//44 32//32 11//11
f 44//44 21//21 32//32
f 44//44 41//41 21//21
f 44//44 11//11 41//41
f 45//45 35//35 12//12
f 45//45 12//12 4//4
f 45//45 4//4 24//24
f 46//46 35//35 14//14
f 46//46 14//14 26//26
f 47//47 23//23 12//12
f 47//47 12//12 35//35
f 48//48 36//36 25//25
f 48//48 15//15 36//36
f 49//49 25//25 36//36
f 49//49 20//20 32//32
f 49//49 36//36 1//1
f 49//49 1//1 34//34
f 50//50 7//7 23//23
f 50//50 23//23 37//37
f 51//51 27//27 12//12
f 51//51 39//39 38//38
f 51//51 23//23 29//29
f 51//51 29//29 39//39
f 51//51 38//38 16//16
f 51//51 16//16 27//27
f 52//52 43//43 31//31
f 52//52 31//31 42//42
f 52//52 42//42 43//43
f 53//53 43//43 42//42
f 53//53 42//42 21//21
f 53//53 21//21 41//41
f 54//54 45//45 24//24
f 54//54 24//24 35//35
f 54//54 35//35 45//45
f 55//55 46//46 26//26
f 56//56 37//37 23//23
f 56//56 47//47 35//35
f 56//56 35//35 46//46
f 57//57 49//49 32//32
f 57//57 25//25 49//49
f 57//57 32//32 7//7
f 57//57 7//7 50//50
f 57//57 50//50 37//37
f 58//58 49//49 34//34
f 58//58 34//34 20//20
f 58//58 20//20 49//49
f 59//59 51//51 12//12
f 59//59 12//12 23//23
f 59//59 23//23 51//51
f 60//60 53//53 41//41
f 60//60 41//41 30//30
f 60//60 30//30 2//2
f 60//60 2//2 43//43
f 60//60 43//43 53//53
f 61//61 55//55 26//26
f 61//61 26//26 15//15
f 61//61 15//15 48//48
f 62//62 48//48 25//25
f 62//62 37//37 55//55
f 62//62 57//57 37//37
f 62//62 25//25 57//57
f 62//62 61//61 48//48
f 62//62 55//55 61//61
f 63//63 56//56 23//23
f 63//63 23//23 47//47
f 63//63 47//47 56//56
f 64//64 55//55 37//37
f 64//64 37//37 56//56
f 64//64 56//56 46//46
f 64//64 46//46 55//55

