# https://github.com/mikedh/trimesh
v 0.03647920 0.00481128 0.09225236
v 0.06644067 -0.04653330 0.05063102
v 0.06393652 0.04283905 0.00498227
v 0.03747848 0.04383140 -0.09963027
v 0.03750724 -0.05396769 -0.06565723
v 0.03752959 0.04464026 0.02760711
v 0.06158511 0.02353058 0.05766952
v 0.03710515 -0.06647883 0.05804562
v 0.03614463 0.01849256 0.08644687
v 0.06914997 -0.04160560 -0.07508131
v 0.06200967 0.04371798 -0.08186491
v 0.05446598 0.00464594 0.07388444
v 0.06657744 0.01424546 0.03938799
v 0.05560859 0.04171440 0.02619449
v 0.04555645 -0.04308800 0.07583400
v 0.03729722 0.00770479 -0.09732945
v 0.03632326 -0.02395512 0.08638255
v 0.06603183 -0.05256515 -0.07680323
v 0.06045107 -0.03669275 -0.09269524
v 0.06912597 0.01187068 -0.07260054
v 0.06624991 -0.02435678 0.05580895
v 0.05436952 0.01811116 0.07188622
v 0.06370082 0.02374988 0.05098503
v 0.06129877 0.04247374 0.01628208
v 0.05068940 0.02861839 0.06485577
v 0.05290694 -0.06120057 0.05943377
v 0.05441453 -0.03408731 0.07133179
v 0.03738485 0.04126963 -0.09986019
v 0.03621290 -0.00247350 0.09198621
v 0.03695054 -0.05217340 0.07403144
v 0.03712731 -0.06866784 0.05144501
v 0.06885456 -0.04811475 -0.04605389
v 0.05497667 0.03611252 -0.09468360
v 0.06410686 -0.04614189 -0.08583182
v 0.05591886 -0.05070887 -0.09301694
v 0.06389121 0.04311384 -0.07490123
v 0.06881638 -0.01736542 -0.07951478
v 0.06652522 0.03113035 0.01241816
v 0.05899490 0.01189246 0.06708185
v 0.06910798 -0.01725862 0.02482218
v 0.03615507 0.01358592 0.08961522
v 0.05207506 0.00923571 0.07606798
v 0.06630599 0.00450951 0.04858491
v 0.06380729 0.04043650 0.01215999
v 0.05319042 0.02870466 0.06240419
v 0.04789248 0.02386063 0.07384011
v 0.04183616 0.03114397 0.06286147
v 0.05231978 -0.00953841 0.07589965
v 0.06390973 -0.05045959 0.05544371
v 0.04786891 -0.03873585 0.07568010
v 0.03664045 -0.03831988 0.08130605
v 0.04808485 -0.05454068 0.06831077
v 0.04656470 -0.06558518 0.05587487
v 0.06911129 -0.04413655 -0.07048933
v 0.05287837 0.04352060 -0.09514285
v 0.05125251 0.02202951 -0.09696636
v 0.06625316 -0.04574007 -0.08159362
v 0.03756169 0.00226831 -0.09649627
v 0.03740737 0.03410094 -0.09990548
v 0.06179983 -0.05087154 -0.08802216
v 0.03742913 -0.07043838 0.02723765
v 0.06661864 0.02153585 -0.07925851
v 0.05897456 0.03153469 -0.09058947
v 0.06233017 -0.03661643 -0.09081549
vn -0.25267594 0.10491128 0.96184640
vn 0.95440931 -0.24761697 0.16669943
vn 0.65750654 0.75228467 0.04186809
vn -0.48603836 0.59908238 -0.63629161
vn -0.73461700 -0.63627366 -0.23557098
vn -0.59581505 0.78727492 0.15875337
vn 0.82070406 0.41737756 0.39018049
vn -0.58699740 -0.69934246 0.40786539
vn -0.47098836 0.57686628 0.66737940
vn 0.97810972 -0.09913960 -0.18295549
vn 0.62862407 0.72662707 -0.27720909
vn 0.77533275 0.02062025 0.63121623
vn 0.99031726 0.10395304 0.09200809
vn 0.29904450 0.91229164 0.27981487
vn 0.46989533 -0.35938387 0.80625158
vn -0.73119204 -0.07421431 -0.67812273
vn -0.50178954 -0.23513002 0.83241884
vn 0.64589754 -0.73452022 -0.20807790
vn 0.49785924 -0.06122990 -0.86509368
vn 0.99013954 0.07636220 -0.11744151
vn 0.93569997 -0.01890204 0.35229004
vn 0.71662271 0.32619949 0.61647854
vn 0.91155067 0.33376293 0.24016179
vn 0.50628259 0.84202186 0.18621793
vn 0.31370543 0.82981527 0.46151438
vn 0.54433213 -0.72490096 0.42216245
vn 0.72221973 -0.14883754 0.67545988
vn -0.59845894 0.06274203 -0.79869289
vn -0.38944748 -0.10228676 0.91535134
vn -0.54967664 -0.49733543 0.67120270
vn -0.58349023 -0.80208858 0.12725200
vn 0.93576849 -0.35234788 0.01372236
vn 0.62187703 0.10601428 -0.77590588
vn 0.86605611 -0.14984142 -0.47696369
vn -0.05599211 -0.62166791 -0.78127710
vn 0.77128371 0.63173278 -0.07768611
vn 0.94826821 0.01525677 -0.31710349
vn 0.98255198 0.17626064 0.05936163
vn 0.86225229 0.10227751 0.49604465
vn 0.99905292 0.00043456 0.04350954
vn -0.41237536 0.35725173 0.83804401
vn 0.72477454 0.10037238 0.68163572
vn 0.97765708 0.06693100 0.19926584
vn 0.88763084 0.42890326 0.16778998
vn 0.50736441 0.74845450 0.42707987
vn 0.42146425 0.67745848 0.60284151
vn -0.07469514 0.91184877 0.40367370
vn 0.74829116 -0.04598796 0.66177447
vn 0.82129102 -0.43672573 0.36708541
vn 0.58934922 -0.24046997 0.77125981
vn -0.54381655 -0.32406501 0.77410944
vn 0.42769528 -0.54146359 0.72380518
vn 0.36307157 -0.88854047 0.28049042
vn 0.98498506 -0.16735088 -0.04240427
vn 0.41165907 0.66685116 -0.62116531
vn 0.33153300 -0.00233699 -0.94344073
vn 0.91127575 -0.16994847 -0.37509203
vn -0.75611516 -0.15304566 -0.63629151
vn -0.59777050 -0.00995893 -0.80160542
vn 0.58455202 -0.64445073 -0.49293224
vn -0.47997410 -0.87698013 -0.02303710
vn 0.93250289 0.10661196 -0.34506847
vn 0.80744478 0.10023185 -0.58136607
vn 0.79893973 -0.05606198 -0.59879242
f 9//9 6//6 4//4
f 11//11 6//6 3//3
f 11//11 4//4 6//6
f 17//17 16//16 5//5
f 17//17 9//9 16//16
f 24//24 3//3 6//6
f 24//24 6//6 14//14
f 24//24 7//7 23//23
f 28//28 16//16 9//9
f 28//28 9//9 4//4
f 29//29 9//9 17//17
f 31//31 17//17 5//5
f 31//31 8//8 17//17
f 36//36 11//11 3//3
f 37//37 20//20 10//10
f 38//38 23//23 13//13
f 38//38 36//36 3//3
f 38//38 20//20 36//36
f 39//39 21//21 7//7
f 39//39 12//12 21//21
f 39//39 22//22 12//12
f 39//39 7//7 22//22
f 40//40 21//21 2//2
f 40//40 2//2 32//32
f 40//40 38//38 13//13
f 40//40 20//20 38//38
f 40//40 10//10 20//20
f 41//41 1//1 22//22
f 41//41 29//29 1//1
f 41//41 9//9 29//29
f 42//42 22//22 1//1
f 42//42 1//1 12//12
f 42//42 12//12 22//22
f 43//43 13//13 23//23
f 43//43 40//40 13//13
f 43//43 21//21 40//40
f 43//43 23//23 7//7
f 43//43 7//7 21//21
f 44//44 24//24 23//23
f 44//44 3//3 24//24
f 44//44 38//38 3//3
f 44//44 23//23 38//38
f 45//45 24//24 14//14
f 45//45 14//14 25//25
f 45//45 7//7 24//24
f 46//46 25//25 9//9
f 46//46 45//45 25//25
f 46//46 22//22 7//7
f 46//46 7//7 45//45
f 46//46 41//41 22//22
f 46//46 9//9 41//41
f 47//47 25//25 14//14
f 47//47 14//14 6//6
f 47//47 6//6 9//9
f 47//47 9//9 25//25
f 48//48 12//12 1//1
f 48//48 29//29 27//27
f 48//48 1//1 29//29
f 48//48 27//27 21//21
f 48//48 21//21 12//12
f 49//49 2//2 21//21
f 49//49 21//21 27//27
f 49//49 32//32 2//2
f 49//49 26//26 18//18
f 49//49 18//18 32//32
f 50//50 29//29 17//17
f 50//50 17//17 15//15
f 50//50 27//27 29//29
f 50//50 49//49 27//27
f 51//51 30//30 15//15
f 51//51 15//15 17//17
f 51//51 17//17 8//8
f 51//51 8//8 30//30
f 52//52 15//15 30//30
f 52//52 26//26 49//49
f 52//52 50//50 15//15
f 52//52 49//49 50//50
f 52//52 30//30 8//8
f 52//52 8//8 26//26
f 53//53 26//26 8//8
f 53//53 8//8 31//31
f 53//53 18//18 26//26
f 54//54 32//32 18//18
f 54//54 18//18 10//10
f 54//54 40//40 32//32
f 54//54 10//10 40//40
f 55//55 4//4 11//11
f 55//55 28//28 4//4
f 56//56 33//33 19//19
f 56//56 55//55 33//33
f 56//56 28//28 55//55
f 56//56 19//19 35//35
f 57//57 10//10 18//18
f 57//57 37//37 10//10
f 58//58 35//35 5//5
f 58//58 5//5 16//16
f 58//58 16//16 35//35
f 59//59 35//35 16//16
f 59//59 16//16 28//28
f 59//59 56//56 35//35
f 59//59 28//28 56//56
f 60//60 35//35 19//19
f 60//60 18//18 35//35
f 60//60 57//57 18//18
f 60//60 34//34 57//57
f 61//61 31//31 5//5
f 61//61 5//5 35//35
f 61//61 35//35 18//18
f 61//61 53//53 31//31
f 61//61 18//18 53//53
f 62//62 36//36 20//20
f 62//62 11//11 36//36
f 62//62 20//20 37//37
f 63//63 62//62 37//37
f 63//63 11//11 62//62
f 63//63 55//55 11//11
f 63//63 33//33 55//55
f 64//64 63//63 37//37
f 64//64 19//19 33//33
f 64//64 33//33 63//63
f 64//64 60//60 19//19
f 64//64 34//34 60//60
f 64//64 57//57 34//34
f 64//64 37//37 57//57

