# https://github.com/mikedh/trimesh
v 0.00081691 0.06099535 -0.06810325
v 0.00081691 0.00229082 -0.06810325
v 0.00069254 0.00241149 -0.09737829
v -0.04770969 0.04099682 -0.09945898
v -0.07007101 0.03357303 -0.06798970
v 0.00078568 0.06050070 -0.09604974
v -0.06980525 0.00231127 -0.06808490
v -0.01420943 0.04124978 -0.09954071
v -0.03342741 0.06099535 -0.06810325
v -0.06271912 0.00231553 -0.09066770
v 0.00074684 0.05814376 -0.09720484
v -0.04317835 0.00774611 -0.09959774
v -0.03326417 0.05970775 -0.09573007
v -0.06973300 0.02201337 -0.07715976
v -0.01417977 0.03175807 -0.09963526
v -0.03336368 0.05039222 -0.09984089
v -0.05586083 0.00741289 -0.09715527
v -0.05458262 0.00286674 -0.09713457
v -0.06735630 0.04131153 -0.08214031
v -0.03316111 0.05713956 -0.09710820
v -0.06763351 0.00239206 -0.08196313
v -0.07019040 0.00758859 -0.06813325
v -0.01647449 0.02690809 -0.09969839
v -0.01902096 0.04606068 -0.09965838
v -0.04996008 0.03847750 -0.09948761
v -0.05006032 0.00751080 -0.09947637
v -0.05837343 0.00256502 -0.09480468
v -0.05867181 0.04143265 -0.09512818
v -0.06921822 0.04139208 -0.06808879
v -0.06957301 0.03324764 -0.07522445
v -0.05442026 0.04125428 -0.09792854
v -0.06462097 0.03142009 -0.08875852
v -0.06993115 0.00973719 -0.07278817
v -0.03134964 0.01250173 -0.09945664
v -0.06309368 0.04113604 -0.09068380
v -0.05569894 0.03863113 -0.09722577
v -0.05193016 0.01718619 -0.09936480
v -0.06482296 0.00958283 -0.08807528
v -0.06722503 0.02627583 -0.08417861
v -0.07002224 0.00728742 -0.07034932
v -0.06978897 0.01448902 -0.07488521
v -0.05198020 0.03144231 -0.09940429
v -0.06712892 0.01204152 -0.08385079
vn 0.57706079 0.58297594 0.57196145
vn 0.57855739 -0.57852208 0.57496396
vn 0.59162196 -0.58798126 -0.55159903
vn -0.14969049 0.17691062 -0.97277715
vn -0.73805505 0.04877342 0.67297540
vn 0.60070949 0.67196946 -0.43313410
vn -0.59027906 -0.59730739 0.54294983
vn 0.08857612 0.02257550 -0.99581355
vn -0.19456042 0.74458434 0.63854554
vn -0.55893229 -0.68902584 -0.46134378
vn 0.66267989 0.19950858 -0.72183910
vn -0.00171893 -0.20313253 -0.97914974
vn -0.23832127 0.83098261 -0.50266378
vn -0.98016322 0.00222230 -0.19817953
vn 0.08716870 -0.00033517 -0.99619351
vn -0.08367225 0.21790070 -0.97237762
vn -0.52400521 -0.05885914 -0.84967885
vn -0.23791987 -0.68047878 -0.69306764
vn -0.82593905 0.50111145 -0.25828665
vn -0.14672010 0.42564895 -0.89291443
vn -0.69138743 -0.67918902 -0.24634466
vn -0.79614217 -0.02969113 0.60438074
vn 0.04403507 -0.02613790 -0.99868800
vn 0.04377106 0.05951082 -0.99726755
vn -0.15659584 0.07976093 -0.98443686
vn -0.14148792 -0.19981618 -0.96956416
vn -0.44345437 -0.68268935 -0.58076112
vn -0.61307919 0.36727189 -0.69946069
vn -0.68404931 0.45011187 0.57399986
vn -0.98602638 0.07745305 -0.14748898
vn -0.41515278 0.29311235 -0.86123941
vn -0.83518270 0.01659047 -0.54972231
vn -0.99064018 -0.05155166 -0.12639010
vn 0.03783911 -0.06128770 -0.99740264
vn -0.74488917 0.41274491 -0.52419630
vn -0.53667892 0.01294437 -0.84368725
vn -0.28560320 -0.00931193 -0.95830272
vn -0.84442338 -0.03100582 -0.53477827
vn -0.91183041 0.01292660 -0.41036350
vn -0.99174239 -0.07551370 -0.10365670
vn -0.98210264 -0.04855729 -0.18197967
vn -0.28087060 0.00673349 -0.95972203
vn -0.91254261 -0.02228197 -0.40837420
f 5//5 2//2 1//1
f 6//6 1//1 2//2
f 6//6 2//2 3//3
f 7//7 2//2 5//5
f 9//9 5//5 1//1
f 9//9 1//1 6//6
f 10//10 3//3 2//2
f 10//10 2//2 7//7
f 11//11 6//6 3//3
f 13//13 9//9 6//6
f 15//15 11//11 3//3
f 15//15 8//8 11//11
f 20//20 13//13 6//6
f 20//20 6//6 11//11
f 20//20 11//11 16//16
f 21//21 10//10 7//7
f 22//22 7//7 5//5
f 22//22 5//5 14//14
f 23//23 15//15 3//3
f 23//23 12//12 16//16
f 24//24 16//16 11//11
f 24//24 11//11 8//8
f 24//24 8//8 15//15
f 24//24 23//23 16//16
f 24//24 15//15 23//23
f 25//25 4//4 16//16
f 26//26 12//12 3//3
f 26//26 3//3 18//18
f 26//26 18//18 17//17
f 26//26 25//25 16//16
f 26//26 16//16 12//12
f 27//27 18//18 3//3
f 27//27 3//3 10//10
f 27//27 17//17 18//18
f 28//28 27//27 10//10
f 28//28 17//17 27//27
f 29//29 5//5 9//9
f 29//29 9//9 13//13
f 29//29 13//13 19//19
f 30//30 19//19 14//14
f 30//30 14//14 5//5
f 30//30 29//29 19//19
f 30//30 5//5 29//29
f 31//31 20//20 16//16
f 31//31 16//16 4//4
f 31//31 4//4 25//25
f 31//31 28//28 13//13
f 31//31 13//13 20//20
f 33//33 21//21 7//7
f 33//33 22//22 14//14
f 34//34 23//23 3//3
f 34//34 3//3 12//12
f 34//34 12//12 23//23
f 35//35 19//19 13//13
f 35//35 13//13 28//28
f 35//35 28//28 10//10
f 35//35 10//10 32//32
f 36//36 17//17 28//28
f 36//36 28//28 31//31
f 37//37 26//26 17//17
f 38//38 32//32 10//10
f 38//38 10//10 21//21
f 39//39 14//14 19//19
f 39//39 35//35 32//32
f 39//39 19//19 35//35
f 39//39 32//32 38//38
f 40//40 33//33 7//7
f 40//40 7//7 22//22
f 40//40 22//22 33//33
f 41//41 33//33 14//14
f 41//41 14//14 21//21
f 41//41 21//21 33//33
f 42//42 36//36 31//31
f 42//42 31//31 25//25
f 42//42 25//25 26//26
f 42//42 26//26 37//37
f 42//42 37//37 17//17
f 42//42 17//17 36//36
f 43//43 21//21 14//14
f 43//43 14//14 39//39
f 43//43 39//39 38//38
f 43//43 38//38 21//21

