# https://github.com/mikedh/trimesh
v 0.00189626 0.02816202 0.09046389
v 0.00071317 -0.06620778 0.06453226
v 0.00081691 0.02430502 0.02729162
v -0.06906372 0.04132437 -0.00207662
v -0.05518676 -0.02159801 0.06914119
v -0.03095344 -0.07532845 0.01508546
v -0.05188293 0.04352819 0.01862363
v 0.00081691 -0.05396769 0.02729162
v -0.02015208 -0.03759844 0.08783662
v -0.05977426 -0.05522450 0.02754073
v -0.05054956 0.04142718 -0.00206065
v -0.05972202 0.01504264 0.06443817
v 0.00081221 -0.06849150 0.06141415
v 0.00064040 -0.03969268 0.08814450
v -0.06835939 -0.01467999 -0.00199179
v -0.04574160 -0.06375765 0.06200411
v -0.03342741 0.02430502 -0.00206065
v -0.02243943 0.02169284 0.09030453
v -0.06520523 0.04080067 0.01292849
v -0.06485184 -0.01950224 0.05107539
v 0.00062304 -0.04939707 0.08086349
v -0.04497472 -0.07205386 0.01507167
v -0.03600774 -0.01893359 0.08812256
v -0.03725681 -0.07275555 0.05318271
v -0.03342741 0.00229082 -0.00206065
v -0.01118718 -0.03980627 0.08808587
v -0.06736229 0.01394465 0.04886074
v -0.05816378 0.01915631 0.06173868
v -0.06241751 0.00291653 0.06433852
v -0.05487557 -0.05245520 0.06000317
v -0.06507507 -0.03415343 0.02749165
v -0.02817873 -0.05883344 0.07371859
v -0.04204778 -0.07335462 0.01505179
v -0.05775595 -0.05978742 0.02712459
v -0.03875743 0.01101797 0.08791481
v -0.03099321 -0.07326861 0.05353763
v -0.05054956 -0.01483133 -0.00206065
v -0.06715995 0.04047708 0.01042705
v -0.07005672 0.00959300 0.01709603
v -0.05378754 0.02118898 0.06226587
v -0.06461098 0.00028591 0.05817552
v -0.06463174 0.01359157 0.05790192
v -0.04316221 -0.00216577 0.08588068
v -0.05982424 -0.03859487 0.05725438
v -0.04819827 -0.04319703 0.07093978
v -0.06262488 -0.04611023 0.02715801
v -0.01165858 -0.05893386 0.07368145
v -0.03730306 -0.06813078 0.06186405
v -0.01815695 -0.04246377 0.08547759
v -0.04219246 -0.07301935 0.03945073
v -0.05737759 -0.05741788 0.04626167
v -0.03191139 0.01688557 0.08947577
v -0.05042046 0.01312749 0.07598947
v -0.03983759 -0.07312191 0.04873109
v -0.00406447 -0.06930971 0.06038665
v -0.06725004 0.01817165 0.04350730
v -0.06261930 0.01921565 0.05495451
v -0.06996762 0.03151525 0.00271313
v -0.06735207 -0.00732299 0.04408062
v -0.06221816 0.00878170 0.06425421
v -0.05276004 -0.01176642 0.07404390
v -0.03835806 -0.01165619 0.08827223
v -0.05736880 -0.04364965 0.05961478
v -0.05976220 -0.03153670 0.05959942
vn 0.55767515 0.55906805 0.61354816
vn 0.65269350 -0.57804119 0.48975461
vn 0.80449166 0.47678189 -0.35422056
vn -0.59160903 0.57964223 -0.56036920
vn -0.77038576 -0.15441588 0.61859642
vn 0.19402359 -0.78206000 -0.59223054
vn -0.02084202 0.98963758 0.14206711
vn 0.82863924 -0.29896579 -0.47326151
vn -0.20324432 -0.28369561 0.93712782
vn -0.93138462 -0.35725562 -0.06993642
vn 0.17918875 0.68912881 -0.70213451
vn -0.70201890 0.44253823 0.55796897
vn 0.67880332 -0.70122238 0.21797530
vn 0.63241914 -0.26116953 0.72927122
vn -0.68841809 -0.18420904 -0.70153230
vn -0.56203277 -0.61896978 0.54863064
vn 0.39805273 0.21203040 -0.89252290
vn -0.20741150 0.51541059 0.83146401
vn -0.42512348 0.86124666 0.27843172
vn -0.96209388 -0.13992104 0.23408861
vn 0.68424712 -0.45663868 0.56858332
vn -0.50612294 -0.69348401 -0.51275677
vn -0.34259474 -0.17917087 0.92224001
vn -0.25072601 -0.91299411 0.32183572
vn 0.34446262 -0.04546964 -0.93769825
vn -0.03278318 -0.33646152 0.94112640
vn -0.96358651 0.15654708 0.21678112
vn -0.55662309 0.68467689 0.47051918
vn -0.85751980 -0.02987633 0.51358271
vn -0.79327149 -0.36764536 0.48534240
vn -0.98302432 -0.17493704 0.05531922
vn -0.19975736 -0.60511299 0.77067196
vn -0.23323729 -0.79558032 -0.55915321
vn -0.82467270 -0.55485785 -0.10976204
vn -0.49508953 0.21903645 0.84077904
vn 0.00665574 -0.96156533 0.27449558
vn 0.06458942 -0.15105659 -0.98641275
vn -0.70860216 0.67850758 0.19367613
vn -0.99937727 -0.02010470 0.02899766
vn -0.40763116 0.80461522 0.43177677
vn -0.94973614 -0.06260679 0.30672732
vn -0.88366887 0.26578144 0.38534342
vn -0.62211708 -0.01597458 0.78276124
vn -0.92097146 -0.19538387 0.33710045
vn -0.60158924 -0.29869781 0.74085762
vn -0.96610212 -0.25813523 0.00359229
vn 0.02749188 -0.69853820 0.71504446
vn -0.22558273 -0.78358768 0.57888062
vn -0.14828742 -0.50620185 0.84957079
vn -0.44672982 -0.89166249 0.07328355
vn -0.85110112 -0.49153657 0.18444152
vn -0.33980066 0.40965886 0.84659030
vn -0.65514380 0.38282357 0.65133149
vn -0.38189952 -0.90973214 0.16291162
vn 0.07841460 -0.93934943 0.33387692
vn -0.91820947 0.32732724 0.22304314
vn -0.72440997 0.57659571 0.37784597
vn -0.99768803 0.05269140 -0.04292088
vn -0.98850916 -0.07888341 0.12894588
vn -0.82638453 0.13348369 0.54705641
vn -0.73957477 -0.12159904 0.66199912
vn -0.39862667 -0.10471241 0.91111585
vn -0.82877396 -0.20431447 0.52095040
vn -0.86475954 -0.14205794 0.48167466
f 7//7 1//1 3//3
f 8//8 3//3 1//1
f 11//11 7//7 3//3
f 11//11 4//4 7//7
f 13//13 8//8 1//1
f 13//13 6//6 8//8
f 14//14 13//13 1//1
f 17//17 11//11 3//3
f 17//17 3//3 8//8
f 17//17 4//4 11//11
f 18//18 1//1 7//7
f 18//18 14//14 1//1
f 19//19 7//7 4//4
f 19//19 18//18 7//7
f 21//21 2//2 13//13
f 21//21 13//13 14//14
f 25//25 17//17 8//8
f 25//25 8//8 6//6
f 25//25 4//4 17//17
f 26//26 14//14 18//18
f 26//26 21//21 14//14
f 26//26 23//23 9//9
f 26//26 18//18 23//23
f 33//33 22//22 15//15
f 33//33 15//15 6//6
f 34//34 10//10 15//15
f 34//34 15//15 22//22
f 37//37 25//25 6//6
f 37//37 6//6 15//15
f 37//37 15//15 4//4
f 37//37 4//4 25//25
f 38//38 19//19 4//4
f 40//40 28//28 18//18
f 40//40 18//18 19//19
f 40//40 19//19 28//28
f 42//42 41//41 29//29
f 42//42 27//27 41//41
f 44//44 41//41 20//20
f 44//44 29//29 41//41
f 45//45 5//5 30//30
f 45//45 30//30 16//16
f 45//45 16//16 32//32
f 45//45 32//32 9//9
f 45//45 9//9 23//23
f 46//46 31//31 15//15
f 46//46 15//15 10//10
f 46//46 44//44 20//20
f 46//46 20//20 31//31
f 47//47 32//32 2//2
f 47//47 2//2 21//21
f 47//47 21//21 26//26
f 47//47 26//26 32//32
f 48//48 32//32 16//16
f 48//48 16//16 24//24
f 48//48 24//24 36//36
f 48//48 2//2 32//32
f 49//49 32//32 26//26
f 49//49 26//26 9//9
f 49//49 9//9 32//32
f 50//50 22//22 33//33
f 50//50 34//34 22//22
f 50//50 33//33 6//6
f 51//51 10//10 34//34
f 51//51 30//30 44//44
f 51//51 46//46 10//10
f 51//51 44//44 46//46
f 51//51 16//16 30//30
f 51//51 34//34 50//50
f 52//52 18//18 28//28
f 53//53 43//43 35//35
f 53//53 35//35 52//52
f 53//53 52//52 28//28
f 53//53 28//28 12//12
f 54//54 36//36 24//24
f 54//54 6//6 36//36
f 54//54 50//50 6//6
f 54//54 24//24 16//16
f 54//54 51//51 50//50
f 54//54 16//16 51//51
f 55//55 36//36 6//6
f 55//55 6//6 13//13
f 55//55 48//48 36//36
f 55//55 13//13 2//2
f 55//55 2//2 48//48
f 56//56 38//38 4//4
f 56//56 4//4 27//27
f 56//56 42//42 38//38
f 56//56 27//27 42//42
f 57//57 28//28 19//19
f 57//57 19//19 38//38
f 57//57 38//38 42//42
f 57//57 42//42 12//12
f 57//57 12//12 28//28
f 58//58 39//39 27//27
f 58//58 27//27 4//4
f 58//58 4//4 15//15
f 58//58 15//15 39//39
f 59//59 27//27 39//39
f 59//59 41//41 27//27
f 59//59 20//20 41//41
f 59//59 31//31 20//20
f 59//59 39//39 15//15
f 59//59 15//15 31//31
f 60//60 42//42 29//29
f 60//60 12//12 42//42
f 60//60 53//53 12//12
f 60//60 29//29 43//43
f 60//60 43//43 53//53
f 61//61 43//43 29//29
f 61//61 29//29 5//5
f 61//61 45//45 43//43
f 61//61 5//5 45//45
f 62//62 35//35 43//43
f 62//62 52//52 35//35
f 62//62 23//23 18//18
f 62//62 18//18 52//52
f 62//62 45//45 23//23
f 62//62 43//43 45//45
f 63//63 44//44 30//30
f 63//63 30//30 5//5
f 64//64 5//5 29//29
f 64//64 29//29 44//44
f 64//64 63//63 5//5
f 64//64 44//44 63//63

