# https://github.com/mikedh/trimesh
v 0.05401462 0.04232354 0.02663800
v 0.06200813 0.04279246 0.01411514
v 0.03853169 0.07538929 0.00409635
v 0.00074684 0.05814376 -0.09720484
v 0.00095083 0.04367056 -0.09787208
v 0.05678470 0.06351131 -0.07953047
v 0.05436103 0.06381830 0.00612322
v 0.05731462 0.04327636 -0.09054415
v -0.00311662 0.04802632 0.03132743
v 0.00599023 0.07775053 -0.07033025
v 0.06043656 0.04199013 0.01896221
v 0.03948214 0.07308451 0.00827629
v 0.04831996 0.07267528 -0.03637848
v 0.06156175 0.05468150 0.00012317
v 0.03494396 0.04377333 -0.09981842
v 0.04155626 0.07043016 -0.08787404
v 0.00060313 0.07433259 0.02704914
v 0.05674375 0.05899118 0.00832303
v 0.06429635 0.04321748 -0.07252892
v 0.04856912 0.04325387 -0.09740053
v 0.05006977 0.06782745 0.00644683
v 0.05667961 0.06397640 -0.02659324
v 0.03483766 0.07787375 -0.05090306
v 0.02297981 0.05111897 -0.09971282
v 0.00097770 0.07039958 -0.08816853
v 0.05276412 0.05910094 -0.08985106
v 0.04802745 0.07265705 -0.07667592
v 0.04810240 0.06594636 0.01005665
v 0.05876495 0.05711482 0.00645446
v 0.06445994 0.04351725 -0.02674314
v 0.06140617 0.04813192 -0.08158632
v 0.06174843 0.05522949 -0.07453911
v 0.02048657 0.04383475 -0.09985063
v 0.04537183 0.07263189 0.00215539
v 0.05238729 0.05940713 0.01217408
v 0.05016589 0.07046826 -0.00451649
v 0.05898894 0.06190223 -0.07484385
v 0.05423359 0.06608883 -0.00242868
v 0.04118926 0.07528263 -0.00239175
v 0.01797946 0.07805583 -0.02411907
v 0.03688078 0.06390991 -0.09468749
v 0.03233927 0.07508482 -0.08136263
v 0.00091869 0.07801835 -0.05096880
v 0.00076687 0.06600943 -0.09241688
v 0.05013161 0.06780788 -0.08338017
v 0.05238201 0.04534217 -0.09506181
v 0.04393214 0.07534829 -0.07041542
v 0.04823459 0.06820943 0.00773869
v 0.06157260 0.05260142 0.00438310
v 0.05886060 0.05927707 0.00230630
v 0.06200967 0.04371798 -0.08186491
v 0.05641789 0.05744587 -0.08641323
v 0.02985057 0.05109443 -0.09973761
v 0.02053944 0.04619236 -0.09975840
v 0.05199021 0.06833750 -0.00008731
v 0.05008845 0.07053281 -0.07897850
v 0.05903243 0.05962838 -0.07911668
v 0.03435942 0.07758240 -0.03655205
v 0.00062437 0.07565501 0.01963495
v 0.04128987 0.06630068 -0.09198166
v 0.03242872 0.07288014 -0.08589782
v 0.00107003 0.07551705 -0.07909580
v 0.03922253 0.07494386 -0.07939752
v 0.02733860 0.07796237 -0.07284515
vn 0.43811801 -0.43590259 0.78615618
vn 0.92502028 -0.32326606 0.19959093
vn 0.24526174 0.94228729 0.22790644
vn -0.66626280 0.23003413 -0.70935053
vn -0.59196824 -0.57338717 -0.56639275
vn 0.75148497 0.58320034 -0.30846020
vn 0.69160919 0.60991801 0.38688079
vn 0.63501554 -0.59227027 -0.49595483
vn -0.60724503 -0.45257587 0.65301498
vn -0.12182295 0.98640517 -0.11029061
vn 0.72692692 -0.50601431 0.46424861
vn 0.36114976 0.76547443 0.53255962
vn 0.57760493 0.81623751 0.01135248
vn 0.94115944 0.32840997 0.07978599
vn 0.08494535 -0.57642949 -0.81271971
vn 0.28347877 0.76310715 -0.58078160
vn -0.46476716 0.63319002 0.61891993
vn 0.70916462 0.52678730 0.46859436
vn 0.79385239 -0.60144705 -0.08977657
vn 0.28944129 -0.57252271 -0.76709940
vn 0.58002778 0.69696262 0.42167626
vn 0.79248726 0.60973581 0.01364497
vn 0.15360696 0.98813097 0.00144524
vn -0.02505719 0.17021073 -0.98508905
vn -0.64930217 0.60577146 -0.45983435
vn 0.57535812 0.41860876 -0.70265905
vn 0.51372923 0.83900697 -0.17930302
vn 0.46059612 0.59631087 0.65746829
vn 0.82797118 0.45423931 0.32883183
vn 0.89725513 -0.44139722 0.01008556
vn 0.91393183 0.18847113 -0.35945409
vn 0.95086922 0.28097103 -0.13001153
vn -0.04373913 -0.62646613 -0.77822046
vn 0.48933310 0.84248447 0.22532870
vn 0.56985426 0.56215697 0.59937105
vn 0.60950738 0.79100151 0.05307882
vn 0.83786027 0.53948310 -0.08335561
vn 0.77114116 0.63355844 0.06280938
vn 0.32052978 0.94517308 0.06251809
vn 0.00628216 0.99934546 0.03562552
vn 0.14417917 0.48766350 -0.86104395
vn 0.06189621 0.92675926 -0.37052143
vn -0.67111036 0.74126393 -0.01177582
vn -0.67689188 0.45857669 -0.57578190
vn 0.56467893 0.65727912 -0.49912108
vn 0.57040846 0.08589958 -0.81685706
vn 0.35421806 0.93271138 -0.06766875
vn 0.47299124 0.68805114 0.55033164
vn 0.94268966 0.27465629 0.18947330
vn 0.83527435 0.52642545 0.15872306
vn 0.82293722 -0.46972824 -0.31957739
vn 0.78256994 0.34317479 -0.51943754
vn 0.07087336 0.19573180 -0.97809306
vn -0.08315286 0.04469888 -0.99553383
vn 0.67773545 0.71964349 0.15095663
vn 0.59789614 0.75572757 -0.26720037
vn 0.87549663 0.36715165 -0.31417404
vn 0.12065386 0.99228691 0.02844875
vn -0.62231624 0.77684486 0.09609662
vn 0.29683391 0.56327351 -0.77111126
vn 0.04258626 0.82293988 -0.56653011
vn -0.66354945 0.70326725 -0.25518094
vn 0.21539564 0.93089883 -0.29501202
vn 0.04995910 0.98622118 -0.15770821
f 9//9 5//5 1//1
f 9//9 4//4 5//5
f 11//11 1//1 5//5
f 17//17 12//12 3//3
f 17//17 9//9 1//1
f 18//18 7//7 1//1
f 18//18 1//1 11//11
f 19//19 11//11 8//8
f 20//20 11//11 5//5
f 20//20 8//8 11//11
f 28//28 17//17 1//1
f 28//28 12//12 17//17
f 29//29 18//18 11//11
f 29//29 7//7 18//18
f 30//30 2//2 11//11
f 30//30 11//11 19//19
f 32//32 30//30 19//19
f 32//32 14//14 30//30
f 32//32 19//19 31//31
f 33//33 20//20 5//5
f 33//33 15//15 20//20
f 34//34 3//3 12//12
f 34//34 12//12 21//21
f 35//35 1//1 7//7
f 35//35 7//7 21//21
f 35//35 28//28 1//1
f 35//35 21//21 28//28
f 36//36 22//22 13//13
f 37//37 13//13 22//22
f 37//37 27//27 13//13
f 37//37 14//14 32//32
f 38//38 22//22 36//36
f 39//39 3//3 34//34
f 39//39 36//36 13//13
f 39//39 34//34 36//36
f 44//44 4//4 9//9
f 44//44 41//41 4//4
f 44//44 25//25 41//41
f 45//45 26//26 16//16
f 45//45 6//6 26//26
f 46//46 26//26 8//8
f 46//46 8//8 20//20
f 46//46 20//20 41//41
f 47//47 13//13 27//27
f 47//47 39//39 13//13
f 47//47 23//23 39//39
f 48//48 28//28 21//21
f 48//48 21//21 12//12
f 48//48 12//12 28//28
f 49//49 30//30 14//14
f 49//49 2//2 30//30
f 49//49 29//29 11//11
f 49//49 11//11 2//2
f 50//50 7//7 29//29
f 50//50 22//22 38//38
f 50//50 37//37 22//22
f 50//50 14//14 37//37
f 50//50 49//49 14//14
f 50//50 29//29 49//49
f 51//51 31//31 19//19
f 51//51 19//19 8//8
f 51//51 8//8 31//31
f 52//52 26//26 6//6
f 52//52 31//31 8//8
f 52//52 8//8 26//26
f 53//53 33//33 24//24
f 53//53 15//15 33//33
f 53//53 24//24 4//4
f 53//53 4//4 41//41
f 53//53 41//41 20//20
f 53//53 20//20 15//15
f 54//54 4//4 24//24
f 54//54 24//24 33//33
f 54//54 33//33 5//5
f 54//54 5//5 4//4
f 55//55 36//36 34//34
f 55//55 34//34 21//21
f 55//55 38//38 36//36
f 55//55 21//21 7//7
f 55//55 50//50 38//38
f 55//55 7//7 50//50
f 56//56 37//37 6//6
f 56//56 27//27 37//37
f 56//56 6//6 45//45
f 56//56 45//45 16//16
f 56//56 16//16 27//27
f 57//57 37//37 32//32
f 57//57 6//6 37//37
f 57//57 52//52 6//6
f 57//57 32//32 31//31
f 57//57 31//31 52//52
f 58//58 39//39 23//23
f 58//58 3//3 39//39
f 58//58 40//40 3//3
f 58//58 23//23 40//40
f 59//59 17//17 3//3
f 59//59 3//3 40//40
f 59//59 40//40 43//43
f 59//59 43//43 9//9
f 59//59 9//9 17//17
f 60//60 41//41 16//16
f 60//60 16//16 26//26
f 60//60 46//46 41//41
f 60//60 26//26 46//46
f 61//61 41//41 25//25
f 61//61 16//16 41//41
f 62//62 43//43 10//10
f 62//62 9//9 43//43
f 62//62 44//44 9//9
f 62//62 25//25 44//44
f 62//62 61//61 25//25
f 62//62 42//42 61//61
f 63//63 27//27 16//16
f 63//63 61//61 42//42
f 63//63 16//16 61//61
f 63//63 47//47 27//27
f 64//64 43//43 40//40
f 64//64 40//40 23//23
f 64//64 10//10 43//43
f 64//64 23//23 47//47
f 64//64 47//47 63//63
f 64//64 63//63 42//42
f 64//64 62//62 10//10
f 64//64 42//42 62//62

