# https://github.com/mikedh/trimesh
v 0.03752959 0.04464026 0.02760711
v 0.03750724 0.00229082 0.02729162
v 0.03747848 0.04383140 -0.09963027
v 0.00095083 0.04367056 -0.09787208
v -0.00311662 0.04802632 0.03132743
v 0.00069254 0.00241149 -0.09737829
v 0.03756169 0.00226831 -0.09649627
v 0.02048657 0.04383475 -0.09985063
v 0.00081691 0.00229082 0.02729162
v 0.03730229 0.02201158 -0.09966326
v 0.02040121 0.02680380 -0.09986101
v 0.03738485 0.04126963 -0.09986019
v 0.03019289 0.02216853 -0.09967715
v 0.03494396 0.04377333 -0.09981842
vn 0.62221159 0.55475796 0.55235526
vn 0.58516699 -0.58784904 0.55858133
vn 0.60154407 0.59352211 -0.53467396
vn -0.59652973 0.57022666 -0.56479539
vn -0.56343713 0.56565587 0.60213954
vn -0.57983777 -0.59103388 -0.56077368
vn 0.59152536 -0.61747948 -0.51847550
vn -0.03865356 0.68576656 -0.72679442
vn -0.55342636 -0.62278338 0.55304623
vn 0.64646208 -0.05978313 -0.76060026
vn -0.04707612 -0.02950880 -0.99845534
vn 0.58458521 0.01033476 -0.81126650
vn -0.00324128 -0.07619397 -0.99708775
vn 0.01525818 0.57462597 -0.81827390
f 5//5 2//2 1//1
f 5//5 1//1 3//3
f 6//6 5//5 4//4
f 7//7 1//1 2//2
f 7//7 3//3 1//1
f 8//8 5//5 3//3
f 8//8 4//4 5//5
f 9//9 2//2 5//5
f 9//9 5//5 6//6
f 9//9 7//7 2//2
f 9//9 6//6 7//7
f 10//10 7//7 6//6
f 10//10 3//3 7//7
f 11//11 6//6 4//4
f 11//11 4//4 8//8
f 12//12 3//3 10//10
f 12//12 11//11 8//8
f 12//12 10//10 11//11
f 13//13 11//11 10//10
f 13//13 10//10 6//6
f 13//13 6//6 11//11
f 14//14 12//12 8//8
f 14//14 8//8 3//3
f 14//14 3//3 12//12

