# https://github.com/mikedh/trimesh
v 0.00051888 0.06964486 0.06130544
v 0.00577843 0.05975603 0.06138700
v 0.00120274 0.06882011 -0.09008626
v -0.04525962 0.04343841 -0.09942927
v -0.06986076 0.00230837 -0.00205072
v -0.05851431 0.06547660 -0.04330541
v 0.00107003 0.07551705 -0.07909580
v -0.06817959 0.02352202 0.02707569
v 0.00081691 0.00229082 -0.06810325
v -0.06735630 0.04131153 -0.08214031
v 0.00036775 0.07530446 0.02189013
v -0.04862988 0.06290567 -0.09112324
v 0.00081691 0.00229082 0.02729162
v -0.01573992 0.06127755 0.06170351
v 0.00078568 0.06050070 -0.09604974
v -0.06721413 0.05044080 -0.00697811
v -0.06980525 0.00231127 -0.06808490
v -0.02343171 0.07537667 -0.07037446
v -0.05143539 0.06783106 0.00015646
v -0.02807348 0.06786855 -0.08842324
v -0.06474183 0.05665779 -0.07667652
v -0.05807391 0.04795633 -0.09451738
v -0.03342741 0.00229082 0.02729162
v -0.03349212 0.04137584 -0.10046647
v -0.01597742 0.06589565 -0.09251677
v -0.07008012 0.03142321 -0.00204672
v -0.00428682 0.07541017 0.02449532
v -0.05147305 0.06792248 -0.07758099
v -0.01194464 0.06828791 0.06071522
v -0.06225884 0.05870267 -0.00031748
v 0.00104394 0.07317853 -0.08396501
v -0.02791428 0.07253710 -0.07904515
v -0.06971512 0.04560761 -0.05289467
v -0.04511428 0.05509724 -0.09687574
v -0.05986604 0.05243315 -0.09047528
v -0.06309368 0.04113604 -0.09068380
v -0.04530528 0.04103137 -0.09978345
v 0.00087804 0.06248727 -0.09524509
v -0.04047943 0.06315650 -0.09283391
v -0.07004127 0.00490469 -0.00196182
v -0.06730209 0.04732454 0.00667477
v -0.03527735 0.07284732 -0.01198353
v -0.00252826 0.07310200 0.04426509
v -0.04733947 0.07025612 -0.07041299
v -0.05627060 0.06538666 -0.07738603
v -0.06756845 0.02515706 0.02663213
v -0.05794713 0.06326291 0.00023329
v -0.06273148 0.06100610 -0.04556958
v -0.01130469 0.06799280 -0.09047149
v -0.02104455 0.07531999 -0.07250200
v -0.04500461 0.07012295 -0.07725509
v -0.04499746 0.06531173 -0.08882228
v -0.06697157 0.05022636 -0.07925465
v -0.07007101 0.03357303 -0.06798970
v -0.04698711 0.05906404 -0.09477064
v -0.05442026 0.04125428 -0.09792854
v -0.03336368 0.05039222 -0.09984089
v -0.06248646 0.04816546 -0.09009403
v 0.00076687 0.06600943 -0.09241688
v -0.03316111 0.05713956 -0.09710820
v -0.07000587 0.00230764 -0.03649145
v -0.06965416 0.04578120 -0.04370583
v -0.06473060 0.05469685 0.00225520
v -0.02081489 0.07527972 -0.00959970
vn 0.38339497 0.65430800 0.65183537
vn 0.70691734 -0.05232957 0.70535770
vn 0.67001845 0.53905322 -0.51038897
vn -0.16689525 0.17638552 -0.97006913
vn -0.67621406 -0.72137939 0.14948686
vn -0.57538053 0.81785658 0.00691831
vn 0.61141299 0.76559328 -0.20010271
vn -0.77805637 -0.17297726 0.60390989
vn 0.61618540 -0.69468553 -0.37111665
vn -0.94458999 0.03781012 -0.32606771
vn 0.57689570 0.81621910 0.03126885
vn -0.39095288 0.70028487 -0.59729133
vn 0.57906905 -0.71558075 0.39067022
vn -0.38617318 0.01643992 0.92227979
vn 0.65454223 0.04866298 -0.75445768
vn -0.94103991 0.33635183 0.03621231
vn -0.62711500 -0.68955169 -0.36227786
vn -0.12234704 0.98936276 -0.07869260
vn -0.42999795 0.88801074 0.16290702
vn -0.09696562 0.84485796 -0.52612992
vn -0.81938124 0.53571742 -0.20401284
vn -0.54023519 0.26126140 -0.79993026
vn -0.14194371 -0.83334292 0.53422052
vn 0.07437623 -0.29765047 -0.95177328
vn -0.05213420 0.65976207 -0.74966395
vn -0.99665070 0.06786027 0.04563295
vn -0.06749115 0.99354785 0.09114615
vn -0.39926762 0.88807409 -0.22783717
vn -0.31027079 0.66761279 0.67677559
vn -0.76789882 0.62309316 0.14861468
vn 0.60271884 0.69541257 -0.39132003
vn -0.13160736 0.92914199 -0.34550639
vn -0.97523460 0.22079406 -0.01294087
vn -0.19565317 0.32649551 -0.92472727
vn -0.65045766 0.49384899 -0.57707713
vn -0.76813891 -0.07825991 -0.63548249
vn -0.11966328 -0.25622386 -0.95918196
vn 0.66349533 0.35646755 -0.65780303
vn -0.10220290 0.68185683 -0.72431059
vn -0.99789371 -0.04205950 0.04938771
vn -0.88827492 0.35923749 0.28620989
vn -0.22162710 0.97401184 0.04671588
vn 0.04152047 0.98773316 0.15052991
vn -0.32174397 0.94576923 -0.04473672
vn -0.59376581 0.76940828 -0.23548473
vn -0.73465768 0.43473125 0.52085204
vn -0.64831257 0.72568326 0.23037930
vn -0.82111039 0.57074677 -0.00508479
vn -0.05084716 0.78852652 -0.61289517
vn -0.08316731 0.98061558 -0.17741555
vn -0.23691214 0.94072594 -0.24270836
vn -0.20580174 0.85720889 -0.47205780
vn -0.92546126 0.28461556 -0.25003089
vn -0.99487435 0.03698801 -0.09411121
vn -0.28140212 0.48640797 -0.82717600
vn -0.38006953 -0.15147332 -0.91247081
vn -0.02472283 0.21301586 -0.97673590
vn -0.79142860 0.26305733 -0.55176229
vn 0.05210435 0.62956446 -0.77519915
vn -0.04879617 0.44938336 -0.89200534
vn -0.70631139 -0.70789965 -0.00152004
vn -0.97184258 0.23550431 0.00772775
vn -0.81157511 0.52398348 0.25843211
vn -0.10410519 0.99406180 0.03167395
f 7//7 2//2 3//3
f 9//9 3//3 2//2
f 11//11 1//1 2//2
f 11//11 2//2 7//7
f 13//13 9//9 2//2
f 14//14 2//2 1//1
f 23//23 8//8 5//5
f 23//23 9//9 13//13
f 23//23 14//14 8//8
f 23//23 13//13 2//2
f 23//23 2//2 14//14
f 24//24 15//15 9//9
f 24//24 9//9 17//17
f 27//27 11//11 7//7
f 27//27 7//7 18//18
f 29//29 14//14 1//1
f 31//31 7//7 3//3
f 32//32 31//31 20//20
f 32//32 7//7 31//31
f 36//36 17//17 10//10
f 37//37 24//24 17//17
f 38//38 3//3 9//9
f 38//38 9//9 15//15
f 40//40 5//5 8//8
f 40//40 8//8 26//26
f 41//41 26//26 8//8
f 42//42 19//19 27//27
f 43//43 1//1 11//11
f 43//43 11//11 27//27
f 43//43 29//29 1//1
f 43//43 27//27 19//19
f 43//43 19//19 29//29
f 44//44 28//28 6//6
f 44//44 6//6 19//19
f 44//44 19//19 42//42
f 44//44 42//42 18//18
f 45//45 6//6 28//28
f 45//45 28//28 12//12
f 45//45 35//35 21//21
f 45//45 12//12 35//35
f 46//46 8//8 14//14
f 46//46 14//14 29//29
f 46//46 41//41 8//8
f 46//46 29//29 41//41
f 47//47 19//19 6//6
f 47//47 6//6 30//30
f 47//47 29//29 19//19
f 48//48 30//30 6//6
f 48//48 45//45 21//21
f 48//48 6//6 45//45
f 49//49 20//20 31//31
f 49//49 39//39 20//20
f 49//49 25//25 39//39
f 49//49 31//31 3//3
f 49//49 3//3 25//25
f 50//50 18//18 7//7
f 50//50 7//7 32//32
f 51//51 50//50 32//32
f 51//51 18//18 50//50
f 51//51 44//44 18//18
f 51//51 28//28 44//44
f 52//52 32//32 20//20
f 52//52 51//51 32//32
f 52//52 12//12 28//28
f 52//52 28//28 51//51
f 52//52 39//39 12//12
f 52//52 20//20 39//39
f 53//53 33//33 21//21
f 54//54 10//10 17//17
f 54//54 26//26 33//33
f 54//54 40//40 26//26
f 54//54 53//53 10//10
f 54//54 33//33 53//53
f 55//55 34//34 22//22
f 55//55 12//12 39//39
f 55//55 35//35 12//12
f 55//55 22//22 35//35
f 56//56 34//34 4//4
f 56//56 22//22 34//34
f 56//56 4//4 37//37
f 56//56 36//36 22//22
f 56//56 37//37 17//17
f 56//56 17//17 36//36
f 57//57 4//4 34//34
f 57//57 37//37 4//4
f 57//57 24//24 37//37
f 57//57 15//15 24//24
f 58//58 35//35 22//22
f 58//58 22//22 36//36
f 58//58 36//36 10//10
f 58//58 10//10 53//53
f 58//58 53//53 21//21
f 58//58 21//21 35//35
f 59//59 38//38 25//25
f 59//59 25//25 3//3
f 59//59 3//3 38//38
f 60//60 39//39 25//25
f 60//60 25//25 38//38
f 60//60 55//55 39//39
f 60//60 38//38 15//15
f 60//60 15//15 57//57
f 60//60 57//57 34//34
f 60//60 34//34 55//55
f 61//61 5//5 40//40
f 61//61 23//23 5//5
f 61//61 17//17 9//9
f 61//61 9//9 23//23
f 61//61 54//54 17//17
f 61//61 40//40 54//54
f 62//62 33//33 26//26
f 62//62 26//26 41//41
f 62//62 41//41 16//16
f 62//62 16//16 48//48
f 62//62 48//48 21//21
f 62//62 21//21 33//33
f 63//63 16//16 41//41
f 63//63 48//48 16//16
f 63//63 30//30 48//48
f 63//63 47//47 30//30
f 63//63 41//41 29//29
f 63//63 29//29 47//47
f 64//64 42//42 27//27
f 64//64 27//27 18//18
f 64//64 18//18 42//42

