# https://github.com/mikedh/trimesh
v 0.01655052 0.02725179 0.09480663
v 0.03738482 -0.06502763 0.06089461
v 0.03750724 0.02430502 0.02729162
v 0.00081691 0.02430502 0.02729162
v 0.00071317 -0.06620778 0.06453226
v 0.00081691 -0.05396769 0.02729162
v 0.01304261 0.03390085 0.06147949
v 0.03532998 0.01286003 0.09101848
v 0.00241066 0.02823170 0.09240583
v 0.03750724 -0.05396769 0.02729162
v 0.00056118 -0.05208631 0.07877298
v 0.00081221 -0.06849150 0.06141415
v 0.03731826 0.03257066 0.06096628
v 0.01271948 0.02811322 0.09399645
v 0.00062805 -0.03545794 0.09183678
v 0.03456362 -0.05665718 0.07103042
v 0.01035865 -0.06585706 0.06432888
v 0.02516705 -0.06667985 0.06039969
v 0.03654258 0.02667871 0.07675672
v 0.03474542 -0.00945060 0.09135481
v 0.02748088 -0.04987441 0.07793192
v 0.03479683 -0.06106414 0.06654637
v 0.01525341 -0.06366686 0.06637138
v 0.03724999 -0.06422575 0.06234132
v 0.03690563 0.02848451 0.07264199
v 0.03644760 0.02133083 0.08367516
v 0.01045459 -0.05427263 0.07591696
v 0.02186252 -0.03198549 0.09038452
v 0.02496475 -0.06557241 0.06234447
v 0.03661860 -0.04970488 0.07596427
v 0.03694489 0.03114802 0.06530903
v 0.03245515 0.01746406 0.09102196
v 0.03171617 -0.05150080 0.07607229
v 0.01261187 -0.05642286 0.07371684
v 0.01244946 -0.03432483 0.09090465
v 0.03588801 -0.02882235 0.08522979
v 0.02989259 0.01934908 0.09147344
v 0.03548046 0.01971728 0.08599728
v 0.02864806 -0.02578518 0.09018561
v 0.03263338 -0.01622921 0.09084870
v 0.03608283 -0.03549079 0.08272060
vn 0.15016983 0.55450584 0.81851835
vn 0.67845891 -0.72853018 0.09453723
vn 0.59583146 0.48994340 -0.63634922
vn -0.60121364 0.49979539 -0.62349557
vn -0.67688882 -0.56630822 0.47023028
vn -0.59988086 -0.44078506 -0.66772111
vn -0.20178306 0.97864304 -0.03926065
vn 0.72509599 0.09682310 0.68180723
vn -0.62080767 0.54653101 0.56205132
vn 0.60469318 -0.45079609 -0.65660417
vn -0.67282670 -0.48662936 0.55722177
vn -0.58126484 -0.80801141 0.09617039
vn 0.68623424 0.72735414 0.00620676
vn -0.04201819 0.74773147 0.66267044
vn -0.61527370 -0.27536766 0.73865481
vn 0.26249984 -0.65568408 0.70793518
vn 0.06514885 -0.80005540 0.59637822
vn 0.09783224 -0.99175807 0.08273319
vn 0.74054789 0.57292101 0.35121267
vn 0.63487712 -0.06387341 0.76996833
vn 0.11442900 -0.59706907 0.79398648
vn 0.18070485 -0.71598766 0.67431997
vn 0.07386452 -0.73884488 0.66981511
vn 0.66455958 -0.58833151 0.46068058
vn 0.80102515 0.54885237 0.23899744
vn 0.85508309 0.36672201 0.36653496
vn 0.07038129 -0.66599718 0.74262657
vn 0.19390422 -0.31249970 0.92991671
vn 0.09020973 -0.84661978 0.52449705
vn 0.75231999 -0.35053830 0.55779704
vn 0.33750183 0.88533469 0.31980463
vn 0.51263292 0.39765929 0.76096950
vn 0.16101821 -0.60024320 0.78344192
vn 0.06618179 -0.68907247 0.72166412
vn 0.11867230 -0.37001359 0.92141566
vn 0.82295420 -0.16838274 0.54258053
vn 0.48951937 0.51971962 0.70018734
vn 0.67339871 0.44381134 0.59124079
vn 0.30985344 -0.23704247 0.92076149
vn 0.33403007 -0.17880646 0.92544701
vn 0.79665882 -0.22574671 0.56068988
f 6//6 4//4 3//3
f 7//7 3//3 4//4
f 9//9 7//7 4//4
f 10//10 6//6 3//3
f 10//10 3//3 2//2
f 11//11 6//6 5//5
f 11//11 4//4 6//6
f 12//12 5//5 6//6
f 12//12 6//6 10//10
f 13//13 3//3 7//7
f 13//13 2//2 3//3
f 14//14 9//9 1//1
f 14//14 7//7 9//9
f 14//14 13//13 7//7
f 14//14 1//1 13//13
f 15//15 9//9 4//4
f 15//15 4//4 11//11
f 15//15 1//1 9//9
f 17//17 5//5 12//12
f 18//18 12//12 10//10
f 18//18 10//10 2//2
f 20//20 8//8 1//1
f 20//20 1//1 15//15
f 21//21 15//15 11//11
f 23//23 11//11 5//5
f 23//23 5//5 17//17
f 23//23 22//22 16//16
f 24//24 18//18 2//2
f 24//24 16//16 22//22
f 24//24 23//23 17//17
f 24//24 22//22 23//23
f 25//25 1//1 19//19
f 25//25 2//2 13//13
f 26//26 19//19 1//1
f 26//26 25//25 19//19
f 26//26 2//2 25//25
f 27//27 21//21 11//11
f 28//28 20//20 15//15
f 29//29 24//24 17//17
f 29//29 18//18 24//24
f 29//29 17//17 12//12
f 29//29 12//12 18//18
f 30//30 16//16 24//24
f 30//30 24//24 2//2
f 30//30 2//2 26//26
f 31//31 25//25 13//13
f 31//31 13//13 1//1
f 31//31 1//1 25//25
f 32//32 1//1 8//8
f 33//33 21//21 27//27
f 33//33 16//16 30//30
f 33//33 30//30 28//28
f 34//34 23//23 16//16
f 34//34 33//33 27//27
f 34//34 16//16 33//33
f 34//34 27//27 11//11
f 34//34 11//11 23//23
f 35//35 28//28 15//15
f 35//35 15//15 21//21
f 35//35 33//33 28//28
f 35//35 21//21 33//33
f 36//36 8//8 20//20
f 36//36 26//26 8//8
f 37//37 32//32 26//26
f 37//37 26//26 1//1
f 37//37 1//1 32//32
f 38//38 32//32 8//8
f 38//38 8//8 26//26
f 38//38 26//26 32//32
f 40//40 39//39 36//36
f 40//40 36//36 20//20
f 40//40 20//20 28//28
f 40//40 28//28 39//39
f 41//41 39//39 28//28
f 41//41 28//28 30//30
f 41//41 36//36 39//39
f 41//41 30//30 26//26
f 41//41 26//26 36//36

