# https://github.com/mikedh/trimesh
v 0.01154740 0.01347274 0.15152016
v 0.03621290 -0.00247350 0.09198621
v 0.00761473 0.03459000 0.09632505
v -0.03703624 0.01143688 0.08889935
v -0.01610573 -0.03615041 0.08987961
v 0.03138800 0.01761420 0.09188425
v -0.01659873 0.03278564 0.11573753
v 0.00945665 -0.01730079 0.15077985
v -0.02530983 -0.03097123 0.08931040
v 0.03573790 0.00926316 0.09199602
v -0.00592922 0.03548435 0.09328709
v 0.01536169 0.03210150 0.11316392
v 0.01999945 -0.03081287 0.09191470
v 0.01994810 -0.00215887 0.14641051
v -0.01842889 -0.00396192 0.15071061
v 0.00078920 -0.03666080 0.09069045
v 0.01787031 0.01011731 0.14868701
v -0.01608997 0.03344666 0.09969047
v 0.01574626 0.03100123 0.10183145
v 0.00447474 0.01900503 0.15056627
v 0.01336072 0.03214367 0.11517855
v 0.02975942 0.00901851 0.11550443
v 0.02513078 -0.01998675 0.11246027
v -0.01847558 0.00812343 0.14883249
v -0.03698827 -0.01198213 0.08944218
v -0.00950210 -0.01692187 0.14894247
v 0.00119561 -0.01677443 0.15185324
v 0.02871499 -0.02134208 0.09187074
v 0.01164517 -0.02908658 0.11537882
v 0.01758305 -0.00643412 0.15066428
v 0.01367827 0.01492853 0.14992756
v -0.01445238 0.03364181 0.09679967
v -0.01885799 0.03232661 0.11356010
v 0.02607513 0.02183182 0.09325333
v 0.00661833 0.01451268 0.15173774
v -0.00580081 0.01979285 0.14939037
v 0.02965742 -0.00434683 0.11580593
v 0.01988038 0.00169430 0.14685532
v 0.02985920 0.01060358 0.11410619
v -0.03066193 0.01057219 0.11359257
v -0.03467856 -0.01916133 0.08917471
v -0.01740648 -0.02689428 0.11404410
v -0.01395675 -0.01245630 0.14957637
v 0.00329343 -0.01961363 0.15003622
v 0.02303705 -0.02215724 0.11385024
v 0.02986131 -0.01058313 0.11256198
v 0.01409279 -0.02920413 0.11197475
v 0.01385698 0.01093135 0.15125044
v 0.01087961 -0.01409759 0.15160953
v 0.02046342 0.02745841 0.11119388
v -0.02740136 0.01939845 0.09033841
v -0.01824185 0.03270031 0.10383886
v 0.00074019 -0.01038564 0.15199227
v -0.01152327 0.01664281 0.14789976
v -0.00960075 0.01702257 0.14993107
v 0.01812730 0.00837766 0.14926193
v -0.01842655 0.00692669 0.14977970
v -0.03054777 -0.00891519 0.11404728
v -0.02568354 0.02243053 0.11208139
v -0.02980351 -0.02618298 0.08919359
v -0.01275770 -0.02917846 0.11402354
v -0.00730751 -0.01785030 0.14944199
v -0.02378519 -0.02228865 0.11230241
v -0.01010769 -0.02898734 0.11589429
vn 0.22078852 0.24334454 0.94447650
vn 0.81900917 -0.11036084 -0.56306702
vn 0.24564462 0.88831347 -0.38801791
vn -0.76413978 0.27247714 -0.58467650
vn -0.20944500 -0.81738676 -0.53666719
vn 0.64199365 0.47574783 -0.60125548
vn -0.27406294 0.91446571 0.29772802
vn 0.40563427 -0.62674992 0.66531600
vn -0.49251148 -0.65597686 -0.57195000
vn 0.80787027 0.20065955 -0.55414923
vn -0.04352756 0.79948738 -0.59910374
vn 0.46977461 0.86672697 0.16761912
vn 0.46263721 -0.70982349 -0.53114726
vn 0.92678371 -0.08921957 0.36484494
vn -0.63032565 -0.14605713 0.76246763
vn 0.10445553 -0.81372219 -0.57179126
vn 0.77563373 0.39098609 0.49550197
vn -0.43427918 0.89209155 -0.12479685
vn 0.53825601 0.83393671 -0.12177860
vn 0.11174244 0.66413576 0.73921399
vn 0.20602015 0.93525531 0.28784233
vn 0.94981179 0.11050420 0.29265404
vn 0.81785060 -0.52151493 0.24319244
vn -0.77033851 0.42514476 0.47521627
vn -0.86161466 -0.14005878 -0.48785624
vn -0.48749762 -0.67826121 0.54982524
vn -0.05940753 -0.32827009 0.94271390
vn 0.68600621 -0.42884627 -0.58778087
vn 0.22625001 -0.93259893 0.28119419
vn 0.63793110 -0.21931698 0.73820321
vn 0.53368678 0.57951823 0.61590343
vn -0.40819115 0.84306229 -0.35017990
vn -0.58502104 0.79050359 0.18125800
vn 0.48133928 0.75602714 -0.44354872
vn 0.01731018 0.15290927 0.98808862
vn -0.17420860 0.70634320 0.68609814
vn 0.95576185 -0.06341795 0.28722370
vn 0.90885398 0.03650372 0.41551405
vn 0.90148192 0.34405428 0.26259667
vn -0.93404622 0.20915592 0.28950210
vn -0.74136519 -0.37700811 -0.55519595
vn -0.51699898 -0.79152548 0.32588260
vn -0.54891431 -0.47164603 0.69010369
vn 0.04833166 -0.80740211 0.58801861
vn 0.68648346 -0.67268605 0.27610496
vn 0.92211550 -0.29190099 0.25396223
vn 0.40904647 -0.88133838 0.23648178
vn 0.34850711 0.14172986 0.92652870
vn 0.32545076 -0.25469938 0.91060970
vn 0.74860453 0.63957541 0.17474139
vn -0.25789121 0.46752319 -0.84552599
vn -0.54534440 0.83658141 -0.05225923
vn -0.02166454 -0.00606632 0.99974689
vn -0.63680823 0.62373837 0.45323914
vn -0.37486095 0.46317934 0.80308416
vn 0.74531245 0.16665341 0.64555093
vn -0.63308916 0.17941276 0.75300011
vn -0.92193164 -0.22861345 0.31269463
vn -0.83893579 0.48237021 0.25200340
vn -0.62633592 -0.51728269 -0.58319974
vn -0.28378307 -0.90635113 0.31304122
vn -0.28586219 -0.68852898 0.66649130
vn -0.72660513 -0.60258264 0.33005930
vn -0.09749447 -0.95020533 0.29598085
f 9//9 4//4 2//2
f 10//10 2//2 4//4
f 10//10 4//4 6//6
f 11//11 6//6 4//4
f 11//11 3//3 6//6
f 16//16 5//5 9//9
f 18//18 7//7 11//11
f 19//19 12//12 6//6
f 19//19 3//3 12//12
f 21//21 11//11 7//7
f 21//21 12//12 3//3
f 21//21 3//3 11//11
f 22//22 2//2 10//10
f 28//28 13//13 16//16
f 28//28 16//16 9//9
f 28//28 9//9 2//2
f 31//31 20//20 1//1
f 31//31 21//21 20//20
f 31//31 12//12 21//21
f 32//32 18//18 11//11
f 32//32 4//4 18//18
f 33//33 7//7 18//18
f 34//34 19//19 6//6
f 34//34 6//6 3//3
f 34//34 3//3 19//19
f 35//35 1//1 20//20
f 36//36 21//21 7//7
f 36//36 20//20 21//21
f 37//37 2//2 22//22
f 38//38 37//37 22//22
f 38//38 14//14 37//37
f 38//38 30//30 14//14
f 39//39 22//22 10//10
f 39//39 10//10 6//6
f 40//40 4//4 25//25
f 41//41 25//25 4//4
f 42//42 9//9 5//5
f 43//43 27//27 15//15
f 44//44 16//16 29//29
f 44//44 29//29 8//8
f 44//44 8//8 27//27
f 45//45 28//28 23//23
f 45//45 13//13 28//28
f 45//45 30//30 8//8
f 45//45 23//23 30//30
f 46//46 28//28 2//2
f 46//46 23//23 28//28
f 46//46 2//2 37//37
f 46//46 30//30 23//23
f 46//46 37//37 14//14
f 46//46 14//14 30//30
f 47//47 29//29 16//16
f 47//47 16//16 13//13
f 47//47 13//13 45//45
f 47//47 45//45 8//8
f 47//47 8//8 29//29
f 48//48 31//31 1//1
f 49//49 27//27 8//8
f 49//49 8//8 30//30
f 49//49 1//1 35//35
f 49//49 48//48 1//1
f 49//49 30//30 48//48
f 50//50 31//31 17//17
f 50//50 12//12 31//31
f 50//50 17//17 39//39
f 50//50 39//39 6//6
f 50//50 6//6 12//12
f 51//51 32//32 11//11
f 51//51 11//11 4//4
f 51//51 4//4 32//32
f 52//52 33//33 18//18
f 52//52 18//18 4//4
f 52//52 4//4 33//33
f 53//53 35//35 15//15
f 53//53 15//15 27//27
f 53//53 49//49 35//35
f 53//53 27//27 49//49
f 54//54 33//33 24//24
f 55//55 35//35 20//20
f 55//55 20//20 36//36
f 55//55 15//15 35//35
f 55//55 54//54 24//24
f 55//55 36//36 7//7
f 55//55 7//7 33//33
f 55//55 33//33 54//54
f 56//56 38//38 22//22
f 56//56 30//30 38//38
f 56//56 48//48 30//30
f 56//56 17//17 31//31
f 56//56 31//31 48//48
f 56//56 39//39 17//17
f 56//56 22//22 39//39
f 57//57 40//40 15//15
f 57//57 24//24 40//40
f 57//57 55//55 24//24
f 57//57 15//15 55//55
f 58//58 40//40 25//25
f 58//58 15//15 40//40
f 58//58 25//25 41//41
f 59//59 33//33 4//4
f 59//59 4//4 40//40
f 59//59 40//40 24//24
f 59//59 24//24 33//33
f 60//60 41//41 4//4
f 60//60 4//4 9//9
f 61//61 42//42 5//5
f 62//62 43//43 26//26
f 62//62 27//27 43//43
f 62//62 44//44 27//27
f 62//62 61//61 44//44
f 62//62 26//26 42//42
f 62//62 42//42 61//61
f 63//63 42//42 26//26
f 63//63 26//26 43//43
f 63//63 41//41 60//60
f 63//63 58//58 41//41
f 63//63 43//43 15//15
f 63//63 15//15 58//58
f 63//63 60//60 9//9
f 63//63 9//9 42//42
f 64//64 5//5 16//16
f 64//64 16//16 44//44
f 64//64 61//61 5//5
f 64//64 44//44 61//61

