# https://github.com/mikedh/trimesh
v 0.03670938 -0.02414416 0.04000000
v 0.04583330 -0.05000000 0.04000000
v 0.03670938 -0.02414416 0.00000000
v 0.01260589 -0.02359992 0.00000000
v 0.01260589 -0.02638890 0.04000000
v 0.02317710 -0.05000000 0.00000000
v 0.01260589 -0.02359992 0.04000000
v 0.04583330 -0.05000000 0.00000000
v 0.01260589 -0.02638890 0.00000000
v 0.02317710 -0.05000000 0.04000000
f 1 2 3
f 5 2 1
f 6 4 3
f 7 5 1
f 7 4 5
f 7 1 3
f 7 3 4
f 8 6 3
f 8 3 2
f 8 2 6
f 9 6 5
f 9 5 4
f 9 4 6
f 10 6 2
f 10 2 5
f 10 5 6

