# OBJ generated by ONSHAPE BY PTC INC, 1.201 Units = meters
mtllib small_a.mtl
g Part 1
v 0.00317383 0.0163411 0.04 
v 0.00317383 0.0163411 0 
v 0.0109592 -0.00876736 0 
v -0.000260417 0.0275174 0.04 
v -0.000260417 0.0275174 0 
v 0.0109592 -0.00876736 0.04 
v -0.0148655 -0.00876736 0 
v -0.0148655 -0.00876736 0.04 
v -0.00638021 0.0190864 0.04 
v -0.00638021 0.0190864 0 
v -0.00206163 0.034158 0 
v -0.00206163 0.034158 0.04 
v -0.00134006 0.0312826 0.04 
v -0.00134006 0.0312826 0 
v -0.0149957 0.049566 0.04 
v -0.05 -0.05 0.04 
v 0.0458333 -0.05 0.04 
v 0.0159939 -0.0263889 0.04 
v 0.0106988 0.049566 0.04 
v -0.0201606 -0.0263889 0.04 
v -0.0273438 -0.05 0.04 
v 0.0231771 -0.05 0.04 
v 0.0106988 0.049566 0 
v 0.0159939 -0.0263889 0 
v -0.0201606 -0.0263889 0 
v 0.0458333 -0.05 0 
v 0.0231771 -0.05 0 
v -0.0149957 0.049566 0 
v -0.05 -0.05 0 
v -0.0273438 -0.05 0 
vn -0.95537 -0.295411 0 
vn -0.955007 -0.296582 0 
vn -0.958098 -0.286442 0 
vn 0 1 0 
vn 0.958278 -0.285836 0 
vn 0.968409 -0.249365 0 
vn 0.95553 -0.294894 0 
vn -0.965127 -0.261783 0 
vn -0.958098 -0.286442 0 
vn -0.975982 -0.217853 0 
vn 0 0 1 
vn 0 0 -1 
vn 0 -1 0 
vn 0.956706 -0.291057 0 
vn -0.956706 -0.291057 0 
vn 0 -1 0 
vn 0.943009 0.332766 0 
vn 0 1 0 
vn -0.943396 0.331669 0 
usemtl 0.615686_0.811765_0.929412_0.000000_0.000000
o mesh0
f 1//1 2//1 3//2 
f 4//3 5//3 2//1 
f 2//1 1//1 4//3 
f 3//2 6//2 1//1 
o mesh1
f 6//4 3//4 7//4 
f 7//4 8//4 6//4 
o mesh2
f 9//5 10//5 11//6 
f 8//7 7//7 10//5 
f 10//5 9//5 8//7 
f 11//6 12//6 9//5 
o mesh3
f 13//8 14//8 5//9 
f 12//10 11//10 14//8 
f 14//8 13//8 12//10 
f 5//9 4//9 13//8 
o mesh4
f 15//11 16//11 8//11 
f 17//11 6//11 18//11 
f 18//11 6//11 8//11 
f 19//11 12//11 13//11 
f 8//11 9//11 15//11 
f 8//11 20//11 18//11 
f 16//11 21//11 20//11 
f 19//11 1//11 6//11 
f 13//11 4//11 19//11 
f 9//11 12//11 15//11 
f 20//11 8//11 16//11 
f 4//11 1//11 19//11 
f 18//11 22//11 17//11 
f 12//11 19//11 15//11 
f 6//11 17//11 19//11 
o mesh5
f 23//12 5//12 14//12 
f 24//12 25//12 7//12 
f 26//12 27//12 24//12 
f 28//12 10//12 7//12 
f 23//12 2//12 5//12 
f 23//12 26//12 3//12 
f 29//12 7//12 25//12 
f 24//12 3//12 26//12 
f 28//12 11//12 10//12 
f 3//12 2//12 23//12 
f 7//12 3//12 24//12 
f 28//12 23//12 11//12 
f 25//12 30//12 29//12 
f 14//12 11//12 23//12 
f 7//12 29//12 28//12 
o mesh6
f 16//13 29//13 30//13 
f 30//13 21//13 16//13 
o mesh7
f 21//14 30//14 25//14 
f 25//14 20//14 21//14 
o mesh8
f 20//13 25//13 24//13 
f 24//13 18//13 20//13 
o mesh9
f 18//15 24//15 27//15 
f 27//15 22//15 18//15 
o mesh10
f 22//16 27//16 26//16 
f 26//16 17//16 22//16 
o mesh11
f 17//17 26//17 23//17 
f 23//17 19//17 17//17 
o mesh12
f 19//18 23//18 28//18 
f 28//18 15//18 19//18 
o mesh13
f 15//19 28//19 29//19 
f 29//19 16//19 15//19 
