# https://github.com/mikedh/trimesh
v -0.00431956 0.02627795 0.04000000
v -0.00551796 0.02209561 0.04000000
v -0.00431956 0.02627795 0.00000000
v -0.02342454 0.02559105 0.00000000
v -0.03227873 0.00040627 0.04000000
v -0.02342454 0.02559105 0.04000000
v -0.01198853 0.00067657 0.00000000
v -0.00727067 0.01616337 0.00000000
v -0.01198853 0.00067657 0.04000000
v -0.03227873 0.00040627 0.00000000
v -0.00551796 0.02209561 0.00000000
v -0.00727067 0.01616337 0.04000000
f 1 2 3
f 1 3 4
f 5 2 1
f 6 5 1
f 6 1 4
f 6 4 5
f 7 4 3
f 8 7 3
f 9 2 5
f 9 5 7
f 9 7 8
f 10 7 5
f 10 5 4
f 10 4 7
f 11 8 3
f 11 3 2
f 11 2 8
f 12 9 8
f 12 8 2
f 12 2 9

