# https://github.com/mikedh/trimesh
v 0.01908282 0.02580693 0.04000000
v 0.02813280 0.00016062 0.04000000
v 0.02019665 0.02265048 0.00000000
v 0.00005289 0.02649778 0.00000000
v 0.00935485 -0.00359320 0.04000000
v 0.01908282 0.02580693 0.00000000
v 0.00005289 0.02649778 0.04000000
v 0.00958874 -0.00398844 0.00000000
v 0.00230085 0.01918210 0.00000000
v 0.02813280 0.00016062 0.00000000
v 0.00958874 -0.00398844 0.04000000
v 0.00230085 0.01918210 0.04000000
v 0.00935485 -0.00359320 0.00000000
f 5 2 1
f 6 1 3
f 6 3 4
f 7 5 1
f 7 6 4
f 7 1 6
f 8 4 3
f 9 7 4
f 9 4 8
f 10 8 3
f 10 2 8
f 10 1 2
f 10 3 1
f 11 8 2
f 11 2 5
f 11 5 8
f 12 9 5
f 12 5 7
f 12 7 9
f 13 9 8
f 13 8 5
f 13 5 9

