# https://github.com/mikedh/trimesh
v -0.01198853 0.00067657 0.04000000
v -0.01002274 -0.01002274 0.04000000
v -0.01002274 -0.00876736 0.00000000
v -0.03244468 -0.00006575 0.00000000
v -0.03608075 -0.01040819 0.04000000
v -0.01198853 0.00067657 0.00000000
v -0.01002274 -0.00876736 0.04000000
v -0.03244468 -0.00006575 0.04000000
v -0.03608075 -0.01040819 0.00000000
v -0.01002274 -0.01002274 0.00000000
f 5 2 1
f 6 1 3
f 6 3 4
f 6 4 1
f 7 1 2
f 7 2 3
f 7 3 1
f 8 5 1
f 8 1 4
f 8 4 5
f 9 2 5
f 9 5 4
f 9 4 3
f 10 9 3
f 10 3 2
f 10 2 9

