# https://github.com/mikedh/trimesh
v 0.02813280 0.00016062 0.04000000
v 0.03178065 -0.01017685 0.04000000
v 0.02813280 0.00016062 0.00000000
v 0.00958874 0.00053729 0.00000000
v 0.00506302 -0.01002274 0.04000000
v 0.00958874 0.00053729 0.04000000
v 0.00506302 -0.01002274 0.00000000
v 0.00506302 -0.00876736 0.04000000
v 0.03178065 -0.01017685 0.00000000
v 0.00506302 -0.00876736 0.00000000
f 1 2 3
f 1 3 4
f 5 2 1
f 6 5 1
f 6 1 4
f 7 2 5
f 7 4 3
f 8 6 4
f 8 5 6
f 9 7 3
f 9 3 2
f 9 2 7
f 10 8 4
f 10 4 7
f 10 7 5
f 10 5 8

