# https://github.com/mikedh/trimesh
v -0.01907420 -0.02638890 0.04000000
v -0.02055218 -0.02767601 0.04000000
v -0.02734380 -0.05000000 0.00000000
v -0.04082683 -0.02390790 0.00000000
v -0.04082683 -0.02390790 0.04000000
v -0.01907420 -0.02638890 0.00000000
v -0.02734380 -0.05000000 0.04000000
v -0.02510850 -0.02359992 0.04000000
v -0.05000000 -0.05000000 0.04000000
v -0.02510850 -0.02359992 0.00000000
v -0.05000000 -0.05000000 0.00000000
f 5 2 1
f 6 1 3
f 6 3 4
f 7 1 2
f 7 3 1
f 7 2 5
f 8 5 1
f 8 4 5
f 8 1 6
f 9 5 4
f 9 7 5
f 9 3 7
f 10 8 6
f 10 6 4
f 10 4 8
f 11 9 4
f 11 4 3
f 11 3 9

