# OBJ generated by ONSHAPE BY PTC INC, 1.201 Units = meters
mtllib letter_d.mtl
g Part 1
v 0.0383153 0.00816796 0.02 
v 0.0383153 0.00816796 -0.02 
v 0.0386319 -3.47222e-05 -0.02 
v 0.0373757 0.0155961 0.02 
v 0.0373757 0.0155961 -0.02 
v 0.0358895 0.0220566 0.02 
v 0.0358895 0.0220566 -0.02 
v 0.0342825 0.0267715 -0.02 
v 0.0325021 0.0306943 0.02 
v 0.0325021 0.0306943 -0.02 
v 0.0305749 0.0340297 -0.02 
v 0.0285046 0.0369173 0.02 
v 0.0285046 0.0369173 -0.02 
v 0.0261341 0.0396021 0.02 
v 0.0261341 0.0396021 -0.02 
v 0.0235287 0.0419933 0.02 
v 0.0235287 0.0419933 -0.02 
v 0.020721 0.0440762 0.02 
v 0.020721 0.0440762 -0.02 
v 0.0176526 0.0458995 0.02 
v 0.0176526 0.0458995 -0.02 
v 0.0142448 0.0474879 0.02 
v 0.0142448 0.0474879 -0.02 
v 0.0103931 0.0488427 0.02 
v 0.0103931 0.0488427 -0.02 
v 0.00595638 0.0499389 0.02 
v 0.00595638 0.0499389 -0.02 
v 0.000738914 0.0507177 0.02 
v 0.000738914 0.0507177 -0.02 
v -0.00562734 0.0510715 0.02 
v -0.00562734 0.0510715 -0.02 
v -0.00650694 0.0510764 0.02 
v -0.00650694 0.0510764 -0.02 
v 0.0305749 0.0340297 0.02 
v 0.0342825 0.0267715 0.02 
v 0.0386319 -3.47222e-05 0.02 
v -0.00269473 -0.051905 0.02 
v -0.00269473 -0.051905 -0.02 
v -0.00997917 -0.0522222 -0.02 
v 0.00395122 -0.0509627 -0.02 
v 0.0089731 -0.0497217 0.02 
v 0.0089731 -0.0497217 -0.02 
v 0.0132028 -0.0482256 0.02 
v 0.0132028 -0.0482256 -0.02 
v 0.0168497 -0.0465182 0.02 
v 0.0168497 -0.0465182 -0.02 
v 0.0200541 -0.0446148 0.02 
v 0.0200541 -0.0446148 -0.02 
v 0.0231656 -0.0423043 0.02 
v 0.0231656 -0.0423043 -0.02 
v 0.0259044 -0.0397781 -0.02 
v 0.0281238 -0.0372814 0.02 
v 0.0281238 -0.0372814 -0.02 
v 0.030349 -0.0342269 0.02 
v 0.030349 -0.0342269 -0.02 
v 0.032362 -0.0307887 0.02 
v 0.032362 -0.0307887 -0.02 
v 0.0341749 -0.0268545 0.02 
v 0.0341749 -0.0268545 -0.02 
v 0.0357749 -0.0222712 0.02 
v 0.0357749 -0.0222712 -0.02 
v 0.037119 -0.0168241 0.02 
v 0.037119 -0.0168241 -0.02 
v 0.0381192 -0.0102041 0.02 
v 0.0381192 -0.0102041 -0.02 
v 0.038598 -0.00275814 0.02 
v 0.038598 -0.00275814 -0.02 
v 0.0259044 -0.0397781 0.02 
v 0.00395122 -0.0509627 0.02 
v -0.00997917 -0.0522222 0.02 
v -0.0243889 -0.0522222 -0.02 
v -0.0243889 -0.0522222 0.02 
v -0.0243889 0.0510764 -0.02 
v -0.0243889 0.0510764 0.02 
v -0.00824306 0.0786458 0.02 
v -0.0580347 0.0786458 0.02 
v 0.00118559 0.0783264 0.02 
v 0.0100274 0.077375 0.02 
v 0.0639501 0.0428328 0.02 
v 0.0605306 0.0483178 0.02 
v 0.0181207 0.0758416 0.02 
v 0.0732778 -0.00827703 0.02 
v 0.0735972 0.000833333 0.02 
v 0.0668573 0.0369425 0.02 
v 0.0723264 -0.016818 0.02 
v 0.072525 0.0164617 0.02 
v 0.0711535 0.0238007 0.02 
v 0.0565806 0.053425 0.02 
v 0.0255267 0.0737688 0.02 
v 0.0139866 -0.0774365 0.02 
v 0.0215873 -0.0755453 0.02 
v 0.0707931 -0.0246341 0.02 
v 0.0733498 0.00854425 0.02 
v 0.0521042 0.0581424 0.02 
v 0.0323052 0.0711894 0.02 
v -0.0131042 -0.08 0.02 
v -0.00328878 -0.0797 0.02 
v 0.0285728 -0.0731823 0.02 
v 0.0554981 -0.0548492 0.02 
v 0.0661378 -0.0383325 0.02 
v 0.0687197 -0.0317858 0.02 
v 0.0692596 0.0306122 0.02 
v 0.0493941 0.0605874 0.02 
v 0.038511 0.0681262 0.02 
v 0.00571466 -0.0788322 0.02 
v 0.034994 -0.0703625 0.02 
v 0.0512882 -0.0591667 0.02 
v 0.0630686 -0.0443279 0.02 
v 0.0441932 0.0645916 0.02 
v 0.0463173 -0.0633639 0.02 
v 0.0595224 -0.0498198 0.02 
v 0.040896 -0.0670912 0.02 
v -0.0580347 -0.08 0.02 
v 0.0733498 0.00854425 -0.02 
v 0.0735972 0.000833333 -0.02 
v 0.0732778 -0.00827703 -0.02 
v 0.0723264 -0.016818 -0.02 
v -0.00824306 0.0786458 -0.02 
v 0.072525 0.0164617 -0.02 
v 0.0707931 -0.0246341 -0.02 
v 0.00118559 0.0783264 -0.02 
v 0.0711535 0.0238007 -0.02 
v 0.0100274 0.077375 -0.02 
v 0.0687197 -0.0317858 -0.02 
v 0.0181207 0.0758416 -0.02 
v 0.0639501 0.0428328 -0.02 
v 0.0661378 -0.0383325 -0.02 
v 0.0554981 -0.0548492 -0.02 
v 0.0512882 -0.0591667 -0.02 
v 0.0255267 0.0737688 -0.02 
v 0.0605306 0.0483178 -0.02 
v 0.0668573 0.0369425 -0.02 
v 0.0692596 0.0306122 -0.02 
v 0.0630686 -0.0443279 -0.02 
v 0.0595224 -0.0498198 -0.02 
v 0.0463173 -0.0633639 -0.02 
v 0.0323052 0.0711894 -0.02 
v 0.040896 -0.0670912 -0.02 
v 0.0215873 -0.0755453 -0.02 
v 0.0139866 -0.0774365 -0.02 
v 0.00571466 -0.0788322 -0.02 
v 0.038511 0.0681262 -0.02 
v 0.0565806 0.053425 -0.02 
v 0.0285728 -0.0731823 -0.02 
v -0.00328878 -0.0797 -0.02 
v -0.0131042 -0.08 -0.02 
v -0.0580347 -0.08 -0.02 
v 0.0441932 0.0645916 -0.02 
v 0.0493941 0.0605874 -0.02 
v 0.034994 -0.0703625 -0.02 
v 0.0521042 0.0581424 -0.02 
v -0.0580347 0.0786458 -0.02 
vn -0.996758 -0.0804637 0 
vn -1 0 0 
vn -0.984722 -0.174132 0 
vn -0.960712 -0.277547 0 
vn -0.929261 -0.369423 0 
vn -0.888897 -0.458108 0 
vn -0.839946 -0.54267 0 
vn -0.782857 -0.622201 0 
vn -0.713935 -0.700212 0 
vn -0.636478 -0.771295 0 
vn -0.553879 -0.832597 0 
vn -0.467323 -0.884087 0 
vn -0.377912 -0.925841 0 
vn -0.28671 -0.958017 0 
vn -0.194739 -0.980855 0 
vn -0.102976 -0.994684 0 
vn -0.0111956 -0.999937 0 
vn 0 -1 0 
vn -0.839946 -0.54267 0 
vn -0.929261 -0.369423 0 
vn -1 0 0 
vn -0.0904067 0.995905 0 
vn 0 1 0 
vn -0.193715 0.981058 0 
vn -0.288099 0.957601 0 
vn -0.379961 0.925002 0 
vn -0.468443 0.883494 0 
vn -0.552603 0.833444 0 
vn -0.638542 0.769587 0 
vn -0.715622 0.698488 0 
vn -0.777293 0.629139 0 
vn -0.836611 0.547798 0 
vn -0.886491 0.462745 0 
vn -0.927017 0.37502 0 
vn -0.958331 0.285661 0 
vn -0.980669 0.195672 0 
vn -0.994364 0.106017 0 
vn -0.99968 0.025291 0 
vn -1 0 0 
vn -0.715622 0.698488 0 
vn -0.193715 0.981058 0 
vn 0 1 0 
vn 1 0 0 
vn 0 -1 0 
vn 0 0 1 
vn 0 0 -1 
vn 0.606383 -0.795173 0 
vn 0.682521 -0.730866 0 
vn 0.525971 -0.850502 0 
vn 0.443524 -0.896263 0 
vn 0.361162 -0.932503 0 
vn 0.280705 -0.959794 0 
vn 0.20357 -0.97906 0 
vn 0.130747 -0.991416 0 
vn 0.0628323 -0.998024 0 
vn 0 -1 0 
vn 0.361162 -0.932503 0 
vn 0.606383 -0.795173 0 
vn 0.997404 -0.0720098 0 
vn 1 0 0 
vn 0.988491 -0.151279 0 
vn 0.971918 -0.23532 0 
vn 0.946496 -0.322716 0 
vn 0.911376 -0.411575 0 
vn 0.866244 -0.499621 0 
vn 0.811462 -0.584405 0 
vn 0.748103 -0.663583 0 
vn 0.682521 -0.730866 0 
vn 0.971918 -0.23532 0 
vn 1 0 0 
vn 0.75909 0.650986 0 
vn 0.690253 0.723568 0 
vn 0.820956 0.570992 0 
vn 0.873875 0.48615 0 
vn 0.917039 0.398797 0 
vn 0.950332 0.311237 0 
vn 0.97424 0.225514 0 
vn 0.989685 0.14326 0 
vn 0.997843 0.065645 0 
vn 1 0 0 
vn 0.873875 0.48615 0 
vn 0.690253 0.723568 0 
vn 0.0695861 0.997576 0 
vn 0 1 0 
vn 0.146234 0.98925 0 
vn 0.22765 0.973743 0 
vn 0.312592 0.949888 0 
vn 0.399364 0.916792 0 
vn 0.48588 0.874025 0 
vn 0.569829 0.821763 0 
vn 0.648926 0.760852 0 
vn 0.690253 0.723568 0 
vn 0.399364 0.916792 0 
vn 0 1 0 
vn -1 0 0 
vn 0 -1 0 
usemtl 0.615686_0.811765_0.929412_0.000000_0.000000
o mesh0
f 1//1 2//1 3//2 
f 4//3 5//3 2//1 
f 6//4 7//4 5//3 
f 8//5 7//4 6//4 
f 9//6 10//6 8//5 
f 11//7 10//6 9//6 
f 12//8 13//8 11//7 
f 14//9 15//9 13//8 
f 16//10 17//10 15//9 
f 18//11 19//11 17//10 
f 20//12 21//12 19//11 
f 22//13 23//13 21//12 
f 24//14 25//14 23//13 
f 26//15 27//15 25//14 
f 28//16 29//16 27//15 
f 30//17 31//17 29//16 
f 32//18 33//18 31//17 
f 31//17 30//17 32//18 
f 29//16 28//16 30//17 
f 27//15 26//15 28//16 
f 25//14 24//14 26//15 
f 23//13 22//13 24//14 
f 21//12 20//12 22//13 
f 19//11 18//11 20//12 
f 17//10 16//10 18//11 
f 15//9 14//9 16//10 
f 13//8 12//8 14//9 
f 11//7 34//19 12//8 
f 9//6 34//19 11//7 
f 8//5 35//20 9//6 
f 6//4 35//20 8//5 
f 5//3 4//3 6//4 
f 2//1 1//1 4//3 
f 3//2 36//21 1//1 
o mesh1
f 37//22 38//22 39//23 
f 40//24 38//22 37//22 
f 41//25 42//25 40//24 
f 43//26 44//26 42//25 
f 45//27 46//27 44//26 
f 47//28 48//28 46//27 
f 49//29 50//29 48//28 
f 51//30 50//29 49//29 
f 52//31 53//31 51//30 
f 54//32 55//32 53//31 
f 56//33 57//33 55//32 
f 58//34 59//34 57//33 
f 60//35 61//35 59//34 
f 62//36 63//36 61//35 
f 64//37 65//37 63//36 
f 66//38 67//38 65//37 
f 36//39 3//39 67//38 
f 67//38 66//38 36//39 
f 65//37 64//37 66//38 
f 63//36 62//36 64//37 
f 61//35 60//35 62//36 
f 59//34 58//34 60//35 
f 57//33 56//33 58//34 
f 55//32 54//32 56//33 
f 53//31 52//31 54//32 
f 51//30 68//40 52//31 
f 49//29 68//40 51//30 
f 48//28 47//28 49//29 
f 46//27 45//27 47//28 
f 44//26 43//26 45//27 
f 42//25 41//25 43//26 
f 40//24 69//41 41//25 
f 37//22 69//41 40//24 
f 39//23 70//42 37//22 
o mesh2
f 70//42 39//42 71//42 
f 71//42 72//42 70//42 
o mesh3
f 72//43 71//43 73//43 
f 73//43 74//43 72//43 
o mesh4
f 74//44 73//44 33//44 
f 33//44 32//44 74//44 
o mesh5
f 75//45 76//45 74//45 
f 77//45 75//45 30//45 
f 74//45 32//45 75//45 
f 78//45 77//45 28//45 
f 32//45 30//45 75//45 
f 79//45 80//45 9//45 
f 81//45 78//45 26//45 
f 30//45 28//45 77//45 
f 82//45 66//45 64//45 
f 83//45 36//45 66//45 
f 84//45 35//45 6//45 
f 35//45 84//45 79//45 
f 81//45 24//45 22//45 
f 28//45 26//45 78//45 
f 85//45 64//45 62//45 
f 66//45 82//45 83//45 
f 86//45 87//45 4//45 
f 9//45 35//45 79//45 
f 80//45 88//45 34//45 
f 89//45 22//45 20//45 
f 26//45 24//45 81//45 
f 90//45 41//45 69//45 
f 91//45 43//45 41//45 
f 92//45 62//45 60//45 
f 64//45 85//45 82//45 
f 36//45 83//45 93//45 
f 1//45 93//45 86//45 
f 34//45 9//45 80//45 
f 88//45 94//45 12//45 
f 95//45 20//45 18//45 
f 22//45 89//45 81//45 
f 96//45 70//45 72//45 
f 97//45 37//45 70//45 
f 41//45 90//45 91//45 
f 98//45 45//45 43//45 
f 99//45 54//45 52//45 
f 100//45 101//45 60//45 
f 62//45 92//45 85//45 
f 4//45 1//45 86//45 
f 87//45 102//45 6//45 
f 12//45 34//45 88//45 
f 12//45 94//45 103//45 
f 104//45 18//45 16//45 
f 20//45 95//45 89//45 
f 70//45 96//45 97//45 
f 105//45 69//45 37//45 
f 43//45 91//45 98//45 
f 106//45 47//45 45//45 
f 107//45 52//45 68//45 
f 52//45 107//45 99//45 
f 108//45 100//45 58//45 
f 60//45 101//45 92//45 
f 6//45 4//45 87//45 
f 103//45 14//45 12//45 
f 109//45 16//45 14//45 
f 18//45 104//45 95//45 
f 37//45 97//45 105//45 
f 45//45 98//45 106//45 
f 110//45 68//45 49//45 
f 99//45 111//45 54//45 
f 111//45 108//45 56//45 
f 60//45 58//45 100//45 
f 6//45 102//45 84//45 
f 16//45 109//45 104//45 
f 69//45 105//45 90//45 
f 112//45 49//45 47//45 
f 68//45 110//45 107//45 
f 58//45 56//45 108//45 
f 14//45 103//45 109//45 
f 76//45 113//45 72//45 
f 47//45 106//45 112//45 
f 56//45 54//45 111//45 
f 72//45 74//45 76//45 
f 49//45 112//45 110//45 
f 72//45 113//45 96//45 
f 93//45 1//45 36//45 
o mesh6
f 3//46 2//46 114//46 
f 115//46 116//46 67//46 
f 67//46 3//46 115//46 
f 116//46 117//46 65//46 
f 118//46 33//46 73//46 
f 119//46 2//46 5//46 
f 65//46 67//46 116//46 
f 117//46 120//46 63//46 
f 118//46 31//46 33//46 
f 121//46 29//46 31//46 
f 5//46 122//46 119//46 
f 63//46 65//46 117//46 
f 31//46 118//46 121//46 
f 123//46 27//46 29//46 
f 114//46 115//46 3//46 
f 120//46 124//46 61//46 
f 29//46 121//46 123//46 
f 125//46 25//46 27//46 
f 126//46 8//46 10//46 
f 61//46 63//46 120//46 
f 127//46 59//46 61//46 
f 128//46 129//46 53//46 
f 27//46 123//46 125//46 
f 125//46 130//46 23//46 
f 10//46 131//46 126//46 
f 132//46 133//46 7//46 
f 61//46 124//46 127//46 
f 134//46 57//46 59//46 
f 55//46 135//46 128//46 
f 129//46 136//46 51//46 
f 23//46 25//46 125//46 
f 130//46 137//46 21//46 
f 131//46 10//46 11//46 
f 7//46 8//46 132//46 
f 59//46 127//46 134//46 
f 135//46 55//46 57//46 
f 51//46 53//46 129//46 
f 136//46 138//46 50//46 
f 139//46 140//46 42//46 
f 140//46 141//46 40//46 
f 21//46 23//46 130//46 
f 137//46 142//46 19//46 
f 143//46 11//46 13//46 
f 126//46 132//46 8//46 
f 57//46 134//46 135//46 
f 50//46 51//46 136//46 
f 144//46 139//46 44//46 
f 40//46 42//46 140//46 
f 145//46 146//46 39//46 
f 146//46 147//46 71//46 
f 19//46 21//46 137//46 
f 142//46 148//46 17//46 
f 13//46 15//46 149//46 
f 11//46 143//46 131//46 
f 122//46 5//46 7//46 
f 53//46 55//46 128//46 
f 150//46 144//46 46//46 
f 42//46 44//46 139//46 
f 141//46 145//46 38//46 
f 71//46 39//46 146//46 
f 17//46 19//46 142//46 
f 148//46 149//46 15//46 
f 13//46 151//46 143//46 
f 119//46 114//46 2//46 
f 44//46 46//46 144//46 
f 39//46 38//46 145//46 
f 15//46 17//46 148//46 
f 7//46 133//46 122//46 
f 138//46 150//46 48//46 
f 38//46 40//46 141//46 
f 149//46 151//46 13//46 
f 46//46 48//46 150//46 
f 48//46 50//46 138//46 
f 152//46 73//46 71//46 
f 71//46 147//46 152//46 
f 73//46 152//46 118//46 
o mesh7
f 136//47 129//48 107//48 
f 112//49 138//49 136//47 
f 106//50 150//50 138//49 
f 144//51 150//50 106//50 
f 91//52 139//52 144//51 
f 90//53 140//53 139//52 
f 105//54 141//54 140//53 
f 97//55 145//55 141//54 
f 96//56 146//56 145//55 
f 145//55 97//55 96//56 
f 141//54 105//54 97//55 
f 140//53 90//53 105//54 
f 139//52 91//52 90//53 
f 144//51 98//57 91//52 
f 106//50 98//57 144//51 
f 138//49 112//49 106//50 
f 136//47 110//58 112//49 
f 107//48 110//58 136//47 
o mesh8
f 82//59 116//59 115//60 
f 117//61 116//59 82//59 
f 120//62 117//61 85//61 
f 101//63 124//63 120//62 
f 100//64 127//64 124//63 
f 108//65 134//65 127//64 
f 111//66 135//66 134//65 
f 99//67 128//67 135//66 
f 107//68 129//68 128//67 
f 128//67 99//67 107//68 
f 135//66 111//66 99//67 
f 134//65 108//65 111//66 
f 127//64 100//64 108//65 
f 124//63 101//63 100//64 
f 120//62 92//69 101//63 
f 85//61 92//69 120//62 
f 82//59 85//61 117//61 
f 115//60 83//70 82//59 
o mesh9
f 88//71 143//71 151//72 
f 80//73 131//73 143//71 
f 126//74 131//73 80//73 
f 84//75 132//75 126//74 
f 102//76 133//76 132//75 
f 87//77 122//77 133//76 
f 86//78 119//78 122//77 
f 93//79 114//79 119//78 
f 83//80 115//80 114//79 
f 114//79 93//79 83//80 
f 119//78 86//78 93//79 
f 122//77 87//77 86//78 
f 133//76 102//76 87//77 
f 132//75 84//75 102//76 
f 126//74 79//81 84//75 
f 80//73 79//81 126//74 
f 143//71 88//71 80//73 
f 151//72 94//82 88//71 
o mesh10
f 77//83 121//83 118//84 
f 78//85 123//85 121//83 
f 81//86 125//86 123//85 
f 89//87 130//87 125//86 
f 137//88 130//87 89//87 
f 104//89 142//89 137//88 
f 109//90 148//90 142//89 
f 103//91 149//91 148//90 
f 94//92 151//92 149//91 
f 149//91 103//91 94//92 
f 148//90 109//90 103//91 
f 142//89 104//89 109//90 
f 137//88 95//93 104//89 
f 89//87 95//93 137//88 
f 125//86 81//86 89//87 
f 123//85 78//85 81//86 
f 121//83 77//83 78//85 
f 118//84 75//94 77//83 
o mesh11
f 75//94 118//94 152//94 
f 152//94 76//94 75//94 
o mesh12
f 76//95 152//95 147//95 
f 147//95 113//95 76//95 
o mesh13
f 113//96 147//96 146//96 
f 146//96 96//96 113//96 
