# https://github.com/mikedh/trimesh
v 0.01098765 -0.04900913 0.02000000
v 0.01034536 -0.07805088 0.02000000
v 0.01098765 -0.04900913 -0.02000000
v -0.00386371 -0.05195590 -0.02000000
v -0.00386371 -0.05195590 0.02000000
v 0.01034536 -0.07805088 -0.02000000
v -0.00399615 -0.07972162 -0.02000000
v 0.00761382 -0.07851176 0.02000000
v 0.00761382 -0.07851176 -0.02000000
v -0.00399615 -0.07972162 0.02000000
f 1 2 3
f 1 3 4
f 5 2 1
f 5 1 4
f 6 3 2
f 6 4 3
f 7 5 4
f 7 4 6
f 8 6 2
f 8 2 5
f 9 7 6
f 9 6 8
f 10 8 5
f 10 5 7
f 10 9 8
f 10 7 9

