# https://github.com/mikedh/trimesh
v 0.07239112 -0.01623702 0.02000000
v 0.07061887 -0.02523507 0.02000000
v 0.07239112 -0.01623702 -0.02000000
v 0.03713797 -0.01669856 -0.02000000
v 0.02981431 -0.03496086 0.02000000
v 0.03713797 -0.01669856 0.02000000
v 0.02718308 -0.07365240 -0.02000000
v 0.06058879 -0.04816831 -0.02000000
v 0.02718308 -0.07365240 0.02000000
v 0.02981431 -0.03496086 -0.02000000
v 0.06768976 -0.03439734 -0.02000000
v 0.06058879 -0.04816831 0.02000000
v 0.04486532 -0.06436218 0.02000000
v 0.07061887 -0.02523507 -0.02000000
v 0.06768976 -0.03439734 0.02000000
v 0.03778118 -0.06881765 0.02000000
v 0.04486532 -0.06436218 -0.02000000
v 0.03325144 -0.07112772 0.02000000
v 0.03778118 -0.06881765 -0.02000000
v 0.03325144 -0.07112772 -0.02000000
f 1 2 3
f 1 3 4
f 5 2 1
f 6 5 1
f 6 1 4
f 7 4 3
f 8 7 3
f 9 2 5
f 10 4 7
f 10 6 4
f 10 5 6
f 10 9 5
f 10 7 9
f 11 8 3
f 12 2 9
f 12 8 11
f 13 12 9
f 13 8 12
f 14 11 3
f 14 3 2
f 14 2 11
f 15 12 11
f 15 11 2
f 15 2 12
f 16 13 9
f 17 7 8
f 17 8 13
f 17 13 16
f 18 16 9
f 18 9 7
f 19 17 16
f 19 7 17
f 19 16 18
f 20 19 18
f 20 18 7
f 20 7 19

