# https://github.com/mikedh/trimesh
v 0.06534829 0.03999993 0.02000000
v 0.07151131 0.02188601 0.02000000
v 0.07046686 0.02627023 -0.02000000
v 0.02314837 0.04227545 -0.02000000
v 0.02314837 0.04227545 0.02000000
v 0.03571474 0.02256935 -0.02000000
v 0.06534829 0.03999993 -0.02000000
v 0.07046686 0.02627023 0.02000000
v 0.07151131 0.02188601 -0.02000000
v 0.03571474 0.02256935 0.02000000
f 5 2 1
f 6 4 3
f 7 1 3
f 7 3 4
f 7 5 1
f 7 4 5
f 8 1 2
f 8 2 3
f 8 3 1
f 9 6 3
f 9 3 2
f 9 2 6
f 10 6 2
f 10 2 5
f 10 5 4
f 10 4 6

