# https://github.com/mikedh/trimesh
v 0.05632071 0.05369888 0.02000000
v 0.06487744 0.04095391 0.02000000
v 0.06119429 0.04725322 -0.02000000
v 0.01044344 0.07729617 -0.02000000
v 0.01129142 0.04852672 0.02000000
v 0.04269100 0.06552604 -0.02000000
v 0.06119429 0.04725322 0.02000000
v 0.01044344 0.07729617 0.02000000
v 0.02159792 0.04342565 -0.02000000
v 0.04939410 0.06058740 -0.02000000
v 0.06395010 0.04283280 0.02000000
v 0.02875060 0.07254202 0.02000000
v 0.06487744 0.04095391 -0.02000000
v 0.02159792 0.04342565 0.02000000
v 0.01129142 0.04852672 -0.02000000
v 0.04269100 0.06552604 0.02000000
v 0.05632071 0.05369888 -0.02000000
v 0.02875060 0.07254202 -0.02000000
v 0.02175677 0.07482393 0.02000000
v 0.06395010 0.04283280 -0.02000000
v 0.04939410 0.06058740 0.02000000
v 0.02175677 0.07482393 -0.02000000
f 5 2 1
f 6 3 4
f 7 1 2
f 7 3 1
f 8 5 1
f 8 4 5
f 9 4 3
f 10 3 6
f 11 7 2
f 11 3 7
f 12 8 1
f 13 9 3
f 13 2 9
f 13 11 2
f 14 9 2
f 14 2 5
f 15 5 4
f 15 4 9
f 15 14 5
f 15 9 14
f 16 10 6
f 16 12 1
f 16 6 12
f 17 10 1
f 17 1 3
f 17 3 10
f 18 12 6
f 18 6 4
f 19 4 8
f 19 8 12
f 19 12 18
f 20 13 3
f 20 3 11
f 20 11 13
f 21 16 1
f 21 1 10
f 21 10 16
f 22 19 18
f 22 18 4
f 22 4 19

