# https://github.com/mikedh/trimesh
v 0.03828388 -0.03658027 0.01926163
v 0.03796599 -0.04227270 0.01842545
v 0.03825794 -0.03660763 -0.01926787
v -0.00871490 -0.06168888 -0.01926787
v -0.00886627 -0.07425447 0.01956204
v 0.02209660 -0.03692750 -0.01926787
v 0.03796055 -0.04230034 -0.01845681
v 0.02521332 -0.06313246 0.01888880
v -0.00887511 -0.07423990 -0.01957878
v 0.02204477 -0.03697910 0.01921839
v 0.03239401 -0.05492554 0.01903396
v 0.02260259 -0.06473076 -0.01926787
v -0.00892385 -0.07511369 -0.01855680
v -0.00870828 -0.06168845 0.01925706
v 0.03652631 -0.04653629 0.01897454
v 0.02101655 -0.06612718 0.01894111
v 0.03518087 -0.04929745 -0.01926787
v 0.03203805 -0.05607056 -0.01845681
v 0.00693071 -0.07200334 -0.01926787
v -0.00890632 -0.07515974 0.01845660
v 0.03808691 -0.03949823 0.01909980
v 0.03639371 -0.04783595 -0.01845681
v 0.02379723 -0.06454418 -0.01845681
v 0.03666767 -0.04511058 -0.01926787
v 0.03205032 -0.05617226 0.01831644
v 0.03231329 -0.05479397 -0.01922898
v 0.00119697 -0.07332766 -0.01926787
v 0.01545504 -0.06888006 -0.01923979
v 0.00973134 -0.07169174 0.01838673
v 0.03639912 -0.04778883 0.01836366
v 0.02385494 -0.06451151 0.01835375
v 0.03812352 -0.03806540 -0.01926787
v 0.02942787 -0.05901015 0.01888880
v -0.00461125 -0.07479096 -0.01845681
v 0.01963289 -0.06729516 -0.01845681
v 0.00829592 -0.07180267 0.01897587
v 0.00967833 -0.07169725 -0.01845681
v 0.00402398 -0.07326594 0.01843081
v 0.01824977 -0.06745860 -0.01922572
v 0.01386995 -0.07017783 0.01834505
v 0.01958791 -0.06731914 0.01834428
v 0.01260210 -0.07035852 0.01896714
v 0.01388596 -0.07012109 -0.01845681
v 0.00400562 -0.07326670 -0.01845681
v -0.00463427 -0.07476346 0.01844743
v 0.00255393 -0.07326626 0.01899999
vn 0.59042218 0.56530210 0.57605137
vn 0.93995120 -0.17989226 0.29005263
vn 0.58977396 0.56872585 -0.57333897
vn -0.70892095 0.35261755 -0.61081253
vn -0.59428690 -0.34631244 0.72587242
vn -0.26200919 0.72404174 -0.63805544
vn 0.93358539 -0.16976404 -0.31559229
vn 0.49419165 -0.52237563 0.69490885
vn -0.59392562 -0.33717994 -0.73045332
vn -0.26464754 0.72381123 0.63722757
vn 0.50565564 -0.28714538 0.81354773
vn 0.29489567 -0.40023819 -0.86766695
vn -0.61529350 -0.73728806 -0.27896276
vn -0.70840738 0.35225241 0.61161853
vn 0.59165976 -0.19340288 0.78264555
vn 0.32580468 -0.50152731 0.80144973
vn 0.47908373 -0.23924773 -0.84453496
vn 0.74686443 -0.58072442 -0.32396400
vn 0.15253864 -0.52418095 -0.83783429
vn -0.61236973 -0.74419662 0.26678588
vn 0.74257128 -0.09211145 0.66340287
vn 0.88809958 -0.34490345 -0.30384329
vn 0.61654520 -0.71357426 -0.33269173
vn 0.48087539 -0.13600072 -0.86617704
vn 0.78970607 -0.55950734 0.25162642
vn 0.47512230 -0.28863658 -0.83123265
vn 0.11269665 -0.59714395 -0.79417792
vn 0.23132282 -0.48472624 -0.84352251
vn 0.29891667 -0.91971066 0.25452137
vn 0.88587453 -0.37264148 0.27634153
vn 0.59613844 -0.76670982 0.23827508
vn 0.60446041 -0.06010869 -0.79436425
vn 0.55386785 -0.53442884 0.63844829
vn 0.11460704 -0.92821599 -0.35394957
vn 0.48046227 -0.82280873 -0.30354869
vn 0.17178952 -0.58155631 0.79516075
vn 0.30387816 -0.89584565 -0.32422003
vn 0.21987387 -0.93794509 0.26816875
vn 0.25675315 -0.48026003 -0.83870622
vn 0.39646743 -0.87774624 0.26902623
vn 0.46310582 -0.83938783 0.28453659
vn 0.21676650 -0.54281460 0.81139670
vn 0.36345132 -0.87767345 -0.31239790
vn 0.21248305 -0.93352068 -0.28877343
vn 0.12191299 -0.92435276 0.36153726
vn 0.12891482 -0.64108225 0.75656759
f 6//6 1//1 3//3
f 7//7 1//1 2//2
f 7//7 3//3 1//1
f 9//9 6//6 3//3
f 9//9 4//4 6//6
f 10//10 5//5 1//1
f 10//10 1//1 6//6
f 11//11 1//1 5//5
f 13//13 4//4 9//9
f 14//14 5//5 10//10
f 14//14 4//4 13//13
f 14//14 10//10 6//6
f 14//14 6//6 4//4
f 15//15 1//1 11//11
f 16//16 11//11 5//5
f 16//16 8//8 11//11
f 17//17 12//12 9//9
f 20//20 14//14 13//13
f 20//20 5//5 14//14
f 21//21 15//15 2//2
f 21//21 2//2 1//1
f 21//21 1//1 15//15
f 22//22 7//7 2//2
f 23//23 12//12 18//18
f 24//24 22//22 17//17
f 24//24 7//7 22//22
f 24//24 17//17 9//9
f 25//25 18//18 22//22
f 26//26 18//18 12//12
f 26//26 12//12 17//17
f 26//26 22//22 18//18
f 26//26 17//17 22//22
f 27//27 9//9 19//19
f 28//28 19//19 9//9
f 28//28 9//9 12//12
f 30//30 22//22 2//2
f 30//30 2//2 15//15
f 30//30 25//25 22//22
f 30//30 15//15 11//11
f 30//30 11//11 25//25
f 31//31 8//8 16//16
f 32//32 3//3 7//7
f 32//32 7//7 24//24
f 32//32 24//24 9//9
f 32//32 9//9 3//3
f 33//33 25//25 11//11
f 33//33 11//11 8//8
f 33//33 23//23 18//18
f 33//33 18//18 25//25
f 33//33 31//31 23//23
f 33//33 8//8 31//31
f 34//34 13//13 9//9
f 34//34 9//9 27//27
f 34//34 20//20 13//13
f 35//35 12//12 23//23
f 35//35 23//23 31//31
f 37//37 19//19 28//28
f 38//38 29//29 36//36
f 39//39 35//35 28//28
f 39//39 28//28 12//12
f 39//39 12//12 35//35
f 40//40 29//29 37//37
f 41//41 35//35 31//31
f 41//41 31//31 16//16
f 41//41 40//40 35//35
f 42//42 16//16 5//5
f 42//42 5//5 36//36
f 42//42 36//36 29//29
f 42//42 29//29 40//40
f 42//42 41//41 16//16
f 42//42 40//40 41//41
f 43//43 37//37 28//28
f 43//43 28//28 35//35
f 43//43 40//40 37//37
f 43//43 35//35 40//40
f 44//44 34//34 27//27
f 44//44 27//27 19//19
f 44//44 19//19 37//37
f 44//44 38//38 34//34
f 44//44 37//37 29//29
f 44//44 29//29 38//38
f 45//45 20//20 34//34
f 45//45 34//34 38//38
f 45//45 5//5 20//20
f 46//46 38//38 36//36
f 46//46 36//36 5//5
f 46//46 45//45 38//38
f 46//46 5//5 45//45

