# https://github.com/mikedh/trimesh
v 0.03820020 -0.02403496 0.01888880
v 0.03785595 -0.04160001 0.01888880
v 0.03777525 -0.04162644 -0.01897888
v 0.02138613 -0.02300420 -0.01926787
v 0.02079626 -0.04255152 0.01926770
v 0.03797036 -0.02389823 -0.01915620
v 0.02125636 -0.02312485 0.01908472
v 0.02091965 -0.04261458 -0.01937084
vn 0.60226527 0.55540042 0.57341687
vn 0.59245112 -0.56528026 0.57398597
vn 0.59420853 -0.56611382 -0.57134173
vn -0.55250287 0.60223530 -0.57624059
vn -0.56594470 -0.58512908 0.58080165
vn 0.59534403 0.55793178 -0.57816747
vn -0.55404588 0.60061854 0.57644646
vn -0.56351571 -0.58865721 -0.57959705
f 1//1 2//2 3//3
f 5//5 2//2 1//1
f 6//6 1//1 3//3
f 6//6 4//4 1//1
f 7//7 5//5 1//1
f 7//7 1//1 4//4
f 8//8 3//3 2//2
f 8//8 2//2 5//5
f 8//8 6//6 3//3
f 8//8 4//4 6//6
f 8//8 7//7 4//4
f 8//8 5//5 7//7

