# https://github.com/mikedh/trimesh
v 0.02936484 -0.00691730 0.01888880
v 0.03820020 -0.02403496 0.01888880
v 0.03552201 -0.01551338 -0.01888903
v 0.00561257 0.00166831 -0.01992918
v 0.00647340 -0.00790010 0.01893277
v 0.02500075 -0.00297481 -0.01798783
v 0.03550389 -0.01546936 0.01888880
v 0.00560688 0.00168985 0.01992494
v 0.02138613 -0.02300420 -0.01926787
v 0.03316570 -0.01140919 -0.01888903
v 0.03773501 -0.02181586 0.01888880
v 0.00644304 -0.00760249 -0.01926787
v 0.02070670 -0.00066729 -0.01798783
v 0.03316592 -0.01139793 0.01887961
v 0.02125636 -0.02312485 0.01908472
v 0.03797036 -0.02389823 -0.01915620
v 0.02714472 -0.00497570 -0.01888903
v 0.02056358 -0.00098817 0.01884882
v 0.03772255 -0.02188411 -0.01891147
v 0.01853855 -0.00033553 -0.01914362
v 0.02484086 -0.00325023 0.01878696
vn 0.52950083 0.53442403 0.65880181
vn 0.63161963 -0.54061367 0.55569191
vn 0.69767792 0.32531312 -0.63829217
vn -0.55688060 0.59129359 -0.58331457
vn -0.73624350 -0.36293173 0.57116204
vn 0.52890900 0.80055522 -0.28172079
vn 0.67514470 0.30783362 0.67038653
vn -0.55173944 0.59148740 0.58798490
vn -0.31708230 -0.71090543 -0.62775177
vn 0.60731354 0.44778901 -0.65624330
vn 0.70788954 0.19651234 0.67843592
vn -0.72250607 -0.34831939 -0.59720899
vn 0.35582975 0.90552984 -0.23108635
vn 0.61276236 0.42849717 0.66401240
vn -0.31697735 -0.71434064 0.62389327
vn 0.60564648 -0.55274411 -0.57242142
vn 0.51419155 0.53842436 -0.66761236
vn 0.28070590 0.74474870 0.60543667
vn 0.84849318 0.22553598 -0.47874090
vn 0.18263390 0.71773792 -0.67193537
vn 0.43093013 0.65265469 0.62317018
f 10//10 7//7 3//3
f 11//11 3//3 7//7
f 11//11 8//8 2//2
f 11//11 7//7 8//8
f 12//12 8//8 4//4
f 12//12 5//5 8//8
f 12//12 9//9 5//5
f 12//12 4//4 9//9
f 13//13 4//4 8//8
f 14//14 8//8 7//7
f 14//14 1//1 8//8
f 14//14 10//10 1//1
f 14//14 7//7 10//10
f 15//15 8//8 5//5
f 15//15 2//2 8//8
f 15//15 5//5 9//9
f 16//16 15//15 9//9
f 16//16 2//2 15//15
f 16//16 9//9 4//4
f 16//16 10//10 3//3
f 16//16 4//4 10//10
f 17//17 6//6 1//1
f 17//17 1//1 10//10
f 17//17 10//10 4//4
f 18//18 13//13 8//8
f 19//19 11//11 2//2
f 19//19 2//2 16//16
f 19//19 16//16 3//3
f 19//19 3//3 11//11
f 20//20 13//13 6//6
f 20//20 6//6 17//17
f 20//20 17//17 4//4
f 20//20 4//4 13//13
f 21//21 18//18 8//8
f 21//21 8//8 1//1
f 21//21 1//1 6//6
f 21//21 6//6 13//13
f 21//21 13//13 18//18

