# https://github.com/mikedh/trimesh
v 0.03091954 -0.00854161 0.01890088
v 0.03569205 -0.01663991 0.01926770
v 0.03375249 -0.01277538 -0.01922077
v -0.00881588 0.00148364 -0.02000010
v -0.01466303 -0.00346722 0.01929617
v 0.01558204 0.00117232 -0.01845681
v 0.03514549 -0.01411239 0.01839906
v -0.01469653 0.00148364 0.01999990
v 0.01734158 -0.01528355 -0.01926787
v 0.02531853 -0.00311514 -0.01759723
v 0.01717493 0.00006961 -0.01926787
v 0.03387230 -0.01268924 0.01903723
v 0.03568748 -0.01666392 -0.01929337
v 0.03349076 -0.01147989 -0.01845681
v 0.01725152 -0.01522209 0.01926413
v 0.01288197 0.00148164 0.01918800
v -0.01505747 -0.00418924 -0.00896936
v 0.02131137 -0.00165679 -0.01923556
v 0.01296882 0.00184202 -0.01865444
v 0.03352309 -0.01145080 0.01831633
v 0.03527074 -0.01535991 0.01909343
v 0.02681580 -0.00444568 -0.01845681
v 0.03507022 -0.01401548 -0.01845681
v 0.02411264 -0.00298078 0.01898442
v -0.00872413 -0.00359927 -0.01957878
v -0.01305612 -0.00411764 0.01842620
v 0.01974807 -0.00039466 -0.01845681
v 0.01558789 0.00118983 0.01839568
v 0.02812649 -0.00576313 0.01889572
v 0.02253010 -0.00170445 -0.01845681
v 0.02403742 -0.00311025 -0.01916726
v 0.03514819 -0.01544820 -0.01926787
v -0.00865810 -0.00449555 -0.01852721
v 0.01976184 -0.00036384 0.01834531
v 0.02524471 -0.00322811 0.01830627
v 0.01839747 -0.00012748 0.01898202
v 0.01415643 0.00130561 0.01900381
vn 0.55472801 0.52567642 0.64493499
vn 0.62900386 -0.52143915 0.57658942
vn 0.42403114 0.28985759 -0.85800942
vn -0.43426418 0.58879206 -0.68171734
vn -0.67010140 -0.49097219 0.55669599
vn 0.28981631 0.91245443 -0.28884845
vn 0.88484600 0.39133529 0.25279287
vn -0.57898682 0.54540324 0.60606070
vn -0.15323579 -0.73534599 -0.66014019
vn 0.55149708 0.82325742 -0.13452952
vn 0.18244343 0.49356333 -0.85035854
vn 0.48431442 0.32846553 0.81089453
vn 0.63371206 -0.52133375 -0.57150691
vn 0.73118870 0.59187397 -0.33918769
vn -0.15179107 -0.73514429 0.66069838
vn 0.06552412 0.72774266 0.68271312
vn -0.93919456 -0.29065579 -0.18284637
vn 0.22637382 0.45486270 -0.86130994
vn 0.10454444 0.86055896 -0.49850650
vn 0.78043517 0.57278035 0.25068630
vn 0.67961233 0.32098862 0.65961609
vn 0.60927098 0.65520056 -0.44665545
vn 0.87635756 0.39759472 -0.27187472
vn 0.28232029 0.49601806 0.82113418
vn -0.49661998 -0.33358411 -0.80130534
vn -0.35009375 -0.93572727 0.04299806
vn 0.37288772 0.88051022 -0.29267132
vn 0.25660148 0.93960942 0.22647257
vn 0.51459472 0.55537496 0.65326176
vn 0.44002380 0.84665866 -0.29924600
vn 0.30971935 0.46104400 -0.83157222
vn 0.44997661 0.22387325 -0.86452404
vn -0.48909421 -0.75867940 -0.43033989
vn 0.40373447 0.87761272 0.25844611
vn 0.54464046 0.79752114 0.25947408
vn 0.24155689 0.59059605 0.76996531
vn 0.19826928 0.81987428 0.53711773
f 13//13 7//7 2//2
f 13//13 2//2 9//9
f 13//13 9//9 4//4
f 15//15 8//8 5//5
f 15//15 2//2 8//8
f 15//15 9//9 2//2
f 16//16 8//8 2//2
f 17//17 8//8 4//4
f 17//17 5//5 8//8
f 17//17 9//9 15//15
f 18//18 4//4 11//11
f 18//18 13//13 4//4
f 18//18 3//3 13//13
f 19//19 11//11 4//4
f 19//19 6//6 11//11
f 19//19 4//4 8//8
f 19//19 8//8 16//16
f 20//20 12//12 7//7
f 20//20 1//1 12//12
f 20//20 14//14 1//1
f 21//21 12//12 2//2
f 21//21 2//2 7//7
f 21//21 7//7 12//12
f 22//22 1//1 14//14
f 22//22 14//14 3//3
f 23//23 3//3 14//14
f 23//23 7//7 13//13
f 23//23 20//20 7//7
f 23//23 14//14 20//20
f 24//24 16//16 2//2
f 25//25 17//17 4//4
f 25//25 4//4 9//9
f 26//26 17//17 15//15
f 26//26 15//15 5//5
f 26//26 5//5 17//17
f 27//27 18//18 11//11
f 27//27 11//11 6//6
f 28//28 19//19 16//16
f 28//28 6//6 19//19
f 29//29 22//22 10//10
f 29//29 1//1 22//22
f 29//29 24//24 2//2
f 29//29 12//12 1//1
f 29//29 2//2 12//12
f 30//30 10//10 22//22
f 30//30 18//18 27//27
f 31//31 22//22 3//3
f 31//31 3//3 18//18
f 31//31 30//30 22//22
f 31//31 18//18 30//30
f 32//32 23//23 13//13
f 32//32 13//13 3//3
f 32//32 3//3 23//23
f 33//33 25//25 9//9
f 33//33 9//9 17//17
f 33//33 17//17 25//25
f 34//34 27//27 6//6
f 34//34 6//6 28//28
f 34//34 30//30 27//27
f 34//34 10//10 30//30
f 35//35 29//29 10//10
f 35//35 24//24 29//29
f 35//35 34//34 24//24
f 35//35 10//10 34//34
f 36//36 34//34 28//28
f 36//36 16//16 24//24
f 36//36 24//24 34//34
f 37//37 36//36 28//28
f 37//37 28//28 16//16
f 37//37 16//16 36//36

