# https://github.com/mikedh/trimesh
v 0.02957720 0.05815599 0.01923039
v 0.02923869 0.05920412 0.01888880
v -0.03192052 0.07361954 0.01925104
v -0.03192767 0.07359106 -0.01926787
v 0.02889304 0.05847763 -0.01957971
v 0.00122938 0.07628061 0.00573004
v -0.03264171 0.05967565 0.01932394
v 0.00544902 0.07486551 0.01907208
v 0.02994579 0.05829593 -0.01869497
v -0.02184191 0.07624150 -0.01845681
v -0.03269179 0.05981698 -0.01944726
v 0.01949315 0.06909915 0.01891564
v -0.00455908 0.07633150 0.01910792
v 0.01253931 0.07323044 -0.01760662
v -0.03032937 0.07462412 -0.01845681
v 0.00406987 0.07498382 -0.01926787
v 0.02224795 0.06737858 -0.01845681
v 0.00113021 0.07612027 0.01840217
v -0.02186863 0.07626370 0.01844999
v -0.01033176 0.07644550 -0.01926787
v 0.00691773 0.07485910 0.01845660
v -0.02613802 0.07498369 -0.01926787
v -0.03040361 0.07462724 0.01838269
v 0.00698101 0.07485937 -0.01845681
v 0.02771579 0.06192867 0.01831074
v 0.01806004 0.07025398 -0.01845681
v 0.02788054 0.06074493 -0.01922960
v -0.01746461 0.07632597 0.01910108
v -0.01170610 0.07644004 -0.01926787
v 0.01113507 0.07326127 0.01892034
v -0.02759884 0.07483814 0.01907261
v 0.01256022 0.07323065 0.00278660
v -0.00024190 0.07627560 -0.01845681
v 0.02227362 0.06741205 0.01831736
v 0.02943295 0.05932954 -0.01845681
v 0.01393230 0.07184431 -0.01921889
v 0.01535512 0.07176663 0.01837263
v 0.02772609 0.06181430 -0.01845681
v 0.00977486 0.07342289 -0.01926787
v 0.01535466 0.07174003 -0.01845681
v 0.02098175 0.06765517 -0.01925426
v 0.01807821 0.07028882 0.01833723
v 0.01671154 0.07045971 -0.01922475
vn 0.66417339 -0.46184857 0.58785169
vn 0.77297604 0.44936402 0.44786160
vn -0.65754562 0.41985049 0.62558718
vn -0.65928855 0.42429940 -0.62073233
vn 0.35902194 -0.44727218 -0.81917693
vn 0.12748726 0.99183860 0.00178462
vn -0.59830799 -0.55549177 0.57745688
vn 0.11903084 0.52541799 0.84247706
vn 0.80909453 -0.45905337 -0.36692785
vn -0.09706029 0.92738242 -0.36130477
vn -0.60078872 -0.55036393 -0.57978656
vn 0.35093472 0.51421655 0.78257662
vn 0.01699819 0.71391319 0.70002787
vn 0.36102090 0.91290870 -0.19042481
vn -0.32001750 0.90741302 -0.27237915
vn 0.10023992 0.51236701 -0.85289625
vn 0.62022861 0.71137931 -0.33053888
vn 0.12664182 0.93243230 0.33842556
vn -0.11204902 0.93586596 0.33406574
vn 0.00542558 0.71579874 -0.69828557
vn 0.26565229 0.92219980 0.28102740
vn -0.09608884 0.51159234 -0.85383852
vn -0.33085793 0.91117609 0.24554258
vn 0.23958960 0.91652789 -0.32027092
vn 0.70087306 0.57293310 0.42488189
vn 0.50468193 0.81021142 -0.29808322
vn 0.50453412 0.40330420 -0.76340752
vn -0.01054757 0.72821321 0.68526949
vn -0.00994559 0.71412711 -0.69994540
vn 0.25811222 0.67245560 0.69367251
vn -0.12223687 0.64872053 0.75114567
vn 0.37414051 0.92736917 0.00230185
vn 0.09586499 0.92362870 -0.37110636
vn 0.60171386 0.68019638 0.41865657
vn 0.82151744 0.50797735 -0.25897512
vn 0.21687945 0.52273825 -0.82444407
vn 0.39940251 0.84058852 0.36590788
vn 0.72026526 0.61590476 -0.31918534
vn 0.18686070 0.51824168 -0.83457093
vn 0.43004250 0.85055262 -0.30269406
vn 0.30958157 0.42337079 -0.85142024
vn 0.49151259 0.83181029 0.25788953
vn 0.25411795 0.45543517 -0.85323084
f 7//7 1//1 3//3
f 9//9 2//2 1//1
f 11//11 7//7 3//3
f 11//11 3//3 4//4
f 11//11 5//5 9//9
f 11//11 9//9 1//1
f 11//11 1//1 7//7
f 12//12 8//8 1//1
f 12//12 1//1 2//2
f 13//13 3//3 1//1
f 13//13 1//1 8//8
f 18//18 13//13 8//8
f 18//18 6//6 13//13
f 19//19 10//10 15//15
f 20//20 13//13 6//6
f 20//20 16//16 5//5
f 21//21 18//18 8//8
f 21//21 6//6 18//18
f 22//22 15//15 10//10
f 22//22 4//4 15//15
f 22//22 11//11 4//4
f 22//22 5//5 11//11
f 23//23 15//15 4//4
f 23//23 4//4 3//3
f 23//23 19//19 15//15
f 24//24 6//6 21//21
f 25//25 12//12 2//2
f 27//27 9//9 5//5
f 28//28 3//3 13//13
f 28//28 13//13 20//20
f 29//29 10//10 19//19
f 29//29 28//28 20//20
f 29//29 19//19 28//28
f 29//29 22//22 10//10
f 29//29 20//20 5//5
f 29//29 5//5 22//22
f 30//30 21//21 8//8
f 30//30 8//8 12//12
f 31//31 23//23 3//3
f 31//31 19//19 23//23
f 31//31 28//28 19//19
f 31//31 3//3 28//28
f 32//32 24//24 21//21
f 32//32 14//14 24//24
f 33//33 20//20 6//6
f 33//33 6//6 24//24
f 33//33 24//24 16//16
f 33//33 16//16 20//20
f 34//34 25//25 17//17
f 34//34 12//12 25//25
f 34//34 17//17 26//26
f 35//35 25//25 2//2
f 35//35 2//2 9//9
f 35//35 9//9 27//27
f 37//37 32//32 21//21
f 37//37 21//21 30//30
f 37//37 30//30 12//12
f 37//37 14//14 32//32
f 38//38 35//35 27//27
f 38//38 27//27 17//17
f 38//38 17//17 25//25
f 38//38 25//25 35//35
f 39//39 24//24 14//14
f 39//39 16//16 24//24
f 39//39 5//5 16//16
f 40//40 14//14 37//37
f 40//40 39//39 14//14
f 40//40 36//36 39//39
f 41//41 26//26 17//17
f 41//41 17//17 27//27
f 41//41 27//27 5//5
f 42//42 34//34 26//26
f 42//42 40//40 37//37
f 42//42 26//26 40//40
f 42//42 37//37 12//12
f 42//42 12//12 34//34
f 43//43 40//40 26//26
f 43//43 36//36 40//40
f 43//43 26//26 41//41
f 43//43 39//39 36//36
f 43//43 41//41 5//5
f 43//43 5//5 39//39

