# https://github.com/mikedh/trimesh
v -0.00811971 -0.06166686 0.01928092
v -0.00839967 -0.07487495 0.01890992
v -0.00816470 -0.06197330 -0.01953274
v -0.05756762 -0.05237856 -0.01899013
v -0.05767265 -0.06741153 0.01883835
v -0.03572037 -0.07402160 0.01888880
v -0.05766229 -0.05222805 0.01886370
v -0.04674349 -0.07156804 0.01888255
v -0.03334970 -0.07424740 -0.01899273
v -0.05764929 -0.06739679 -0.01888341
v -0.00844478 -0.07458466 -0.01926787
v -0.03567961 -0.07433619 -0.01806821
v -0.04458156 -0.07208022 -0.01904919
v -0.05356990 -0.06956750 -0.01798783
v -0.04684862 -0.07191544 -0.01801020
v -0.05344650 -0.06924572 0.01883570
vn 0.62728721 0.50397900 0.59373052
vn 0.56487457 -0.59864165 0.56793036
vn 0.62667822 0.50008488 -0.59765335
vn -0.52411856 0.63391013 -0.56873341
vn -0.67044341 -0.43588810 0.60042252
vn -0.09215397 -0.72522697 0.68231480
vn -0.52630409 0.63560642 0.56480836
vn -0.19901468 -0.69206668 0.69385651
vn -0.03048637 -0.69159883 -0.72163816
vn -0.68157663 -0.41503140 -0.60266262
vn 0.56685426 -0.58894269 -0.57604058
vn -0.13474491 -0.96544810 -0.22305553
vn -0.14252473 -0.57945660 -0.80244423
vn -0.36358798 -0.88960758 -0.27640938
vn -0.28277793 -0.92973271 -0.23586806
vn -0.27214877 -0.69286048 0.66774201
f 1//1 2//2 3//3
f 1//1 3//3 4//4
f 6//6 2//2 1//1
f 7//7 5//5 1//1
f 7//7 1//1 4//4
f 8//8 6//6 1//1
f 8//8 1//1 5//5
f 10//10 7//7 4//4
f 10//10 5//5 7//7
f 11//11 3//3 2//2
f 12//12 2//2 6//6
f 12//12 11//11 2//2
f 12//12 9//9 11//11
f 13//13 10//10 4//4
f 13//13 4//4 3//3
f 13//13 3//3 11//11
f 13//13 11//11 9//9
f 13//13 9//9 12//12
f 14//14 5//5 10//10
f 14//14 10//10 13//13
f 15//15 12//12 6//6
f 15//15 6//6 8//8
f 15//15 13//13 12//12
f 15//15 14//14 13//13
f 16//16 8//8 5//5
f 16//16 5//5 14//14
f 16//16 15//15 8//8
f 16//16 14//14 15//15

