# https://github.com/mikedh/trimesh
v 0.02848173 0.06038937 0.01884518
v 0.02649026 0.04128937 0.01999990
v 0.02649026 0.04128937 -0.02000010
v 0.00304255 0.07483547 -0.01957878
v 0.00314038 0.07507383 0.01934479
v 0.01719597 0.04152919 -0.01814469
v 0.02846420 0.06037065 -0.01888903
v 0.02949518 0.05874393 0.01893785
v 0.01822983 0.04139503 -0.01957878
v 0.00443513 0.06033669 0.01888880
v 0.02927319 0.05859264 -0.01926787
v 0.01604456 0.07116725 -0.01888903
v 0.01995248 0.06882663 0.01882951
v 0.01752240 0.04141352 0.01888880
v 0.00468061 0.06020275 -0.01888903
v 0.01173871 0.07347661 -0.01802804
v 0.01993366 0.06880129 -0.01888903
v 0.00948266 0.07365759 -0.01910808
v 0.01153422 0.07314316 0.01888880
f 8 2 3
f 8 7 1
f 8 5 2
f 9 3 2
f 9 4 3
f 10 5 4
f 10 2 5
f 11 3 4
f 11 8 3
f 11 7 8
f 13 8 1
f 13 5 8
f 13 1 7
f 14 9 2
f 14 6 9
f 14 10 6
f 14 2 10
f 15 9 6
f 15 4 9
f 15 10 4
f 15 6 10
f 16 4 5
f 16 13 12
f 17 11 4
f 17 4 12
f 17 7 11
f 17 13 7
f 17 12 13
f 18 16 12
f 18 12 4
f 18 4 16
f 19 16 5
f 19 5 13
f 19 13 16

