# https://github.com/mikedh/trimesh
v 0.03721420 -0.04193607 0.01947483
v 0.03822158 -0.04167321 0.01798760
v 0.02091965 -0.04261458 -0.01937084
v -0.00816470 -0.06197330 -0.01953274
v 0.00933966 -0.07155974 0.01887218
v -0.00790514 -0.06092911 0.01796548
v 0.02022495 -0.04316707 0.01884399
v 0.03303548 -0.05423785 0.01880743
v 0.02256094 -0.06512914 -0.01888903
v -0.00787657 -0.06094614 -0.01803796
v -0.00839967 -0.07487495 0.01890992
v 0.01988591 -0.04308479 -0.01798783
v 0.03522828 -0.05010314 0.01887329
v 0.02247161 -0.06516076 0.01888880
v 0.03709335 -0.04192810 -0.01957878
v -0.00811971 -0.06166686 0.01928092
v -0.00171371 -0.07447835 -0.01811027
v 0.03781993 -0.04368391 0.01796405
v 0.03122034 -0.05676412 -0.01893665
v 0.01385849 -0.06979304 -0.01898823
v 0.03816340 -0.04169803 -0.01815814
v -0.00844478 -0.07458466 -0.01926787
v -0.00168353 -0.07412360 0.01888880
v 0.03323711 -0.05460844 -0.01798783
v 0.00938067 -0.07194295 -0.01800915
v 0.03778310 -0.04367302 -0.01802256
v 0.00723947 -0.07208913 -0.01906181
v 0.03580770 -0.04809062 -0.01914312
v 0.03550187 -0.05027650 -0.01799702
v -0.00394265 -0.07432788 -0.01906622
vn 0.39497258 0.52224844 0.75581296
vn 0.74862520 0.61175571 0.25556851
vn -0.21290637 0.72763525 -0.65208728
vn -0.68845965 0.25670339 -0.67832638
vn 0.24572254 -0.69482577 0.67589761
vn -0.76533600 0.63193213 0.12215807
vn -0.25567257 0.73982457 0.62232719
vn 0.62362883 -0.46072274 0.63152327
vn 0.44769771 -0.61271383 -0.65126686
vn -0.76283297 0.62882394 -0.15055338
vn -0.55478537 -0.61035416 0.56540339
vn -0.48893083 0.87143569 -0.03932538
vn 0.71267744 -0.34263767 0.61211951
vn 0.43844337 -0.61082500 0.65928767
vn 0.39095349 0.52023483 -0.75928327
vn -0.68574598 0.27510102 0.67384855
vn 0.14438874 -0.95983957 -0.24054085
vn 0.92216184 -0.26467014 0.28207667
vn 0.54228374 -0.51072101 -0.66715245
vn 0.32802748 -0.65341503 -0.68223659
vn 0.75506019 0.59429630 -0.27694045
vn -0.57595062 -0.58101365 -0.57506871
vn 0.12417408 -0.71545269 0.68753781
vn 0.80294774 -0.52713440 -0.27821618
vn 0.31985158 -0.92386898 -0.21014536
vn 0.92673499 -0.24545891 -0.28445068
vn 0.15153621 -0.58559247 -0.79631541
vn 0.59267817 -0.24120133 -0.76847544
vn 0.87692123 -0.40320507 -0.26160052
vn 0.08000575 -0.70054348 -0.70911065
f 7//7 1//1 2//2
f 7//7 2//2 3//3
f 10//10 3//3 4//4
f 12//12 7//7 3//3
f 12//12 6//6 7//7
f 12//12 10//10 6//6
f 12//12 3//3 10//10
f 13//13 1//1 8//8
f 14//14 8//8 1//1
f 14//14 1//1 5//5
f 15//15 4//4 3//3
f 16//16 10//10 4//4
f 16//16 6//6 10//10
f 16//16 7//7 6//6
f 16//16 1//1 7//7
f 18//18 2//2 1//1
f 18//18 1//1 13//13
f 19//19 14//14 9//9
f 19//19 8//8 14//14
f 19//19 9//9 15//15
f 20//20 14//14 5//5
f 20//20 9//9 14//14
f 20//20 15//15 9//9
f 21//21 15//15 3//3
f 21//21 3//3 2//2
f 22//22 16//16 4//4
f 22//22 11//11 16//16
f 22//22 17//17 11//11
f 22//22 4//4 15//15
f 23//23 16//16 11//11
f 23//23 5//5 1//1
f 23//23 1//1 16//16
f 23//23 11//11 17//17
f 24//24 13//13 8//8
f 24//24 8//8 19//19
f 25//25 20//20 5//5
f 25//25 23//23 17//17
f 25//25 5//5 23//23
f 26//26 21//21 2//2
f 26//26 2//2 18//18
f 26//26 15//15 21//21
f 27//27 25//25 17//17
f 27//27 20//20 25//25
f 27//27 22//22 15//15
f 27//27 15//15 20//20
f 28//28 24//24 19//19
f 28//28 19//19 15//15
f 28//28 15//15 26//26
f 29//29 26//26 18//18
f 29//29 18//18 13//13
f 29//29 13//13 24//24
f 29//29 28//28 26//26
f 29//29 24//24 28//28
f 30//30 27//27 17//17
f 30//30 17//17 22//22
f 30//30 22//22 27//27

