# https://github.com/mikedh/trimesh
v -0.01007566 0.01055986 0.01926770
v -0.01028605 0.00148364 0.01999990
v -0.00872413 -0.00359927 -0.01957878
v -0.03464500 0.00973306 -0.01926810
v -0.03527029 0.01035785 0.01822560
v -0.01009112 0.01056476 -0.01926787
v -0.00869382 -0.00479296 -0.00896518
v -0.03464529 0.00973335 0.01926770
v -0.00881588 0.00148364 -0.02000010
v -0.03537829 0.01046555 0.00131724
v -0.03518729 -0.00386235 -0.01845681
v -0.00865810 -0.00449555 -0.01852721
v -0.00881588 0.00148364 -0.00897389
v -0.03526993 0.01035749 -0.01822681
v -0.03464529 -0.00332045 -0.01926787
v -0.03525872 -0.00393352 0.01825780
v -0.01466303 -0.00346722 0.01929617
v -0.03472981 -0.00340495 0.01916472
vn 0.57028106 0.59876332 0.56237177
vn 0.67073356 -0.23205835 0.70446108
vn 0.60851960 -0.34927305 -0.71253929
vn -0.40844020 0.38894966 -0.82576920
vn -0.67888206 0.66880536 0.30301574
vn 0.53226881 0.63588884 -0.55886966
vn 0.70253160 -0.71130972 0.02208701
vn -0.40901979 0.38721169 0.82629893
vn 0.69562181 0.05171315 -0.71654452
vn -0.71200121 0.70217819 -0.00027017
vn -0.67592872 -0.66048068 -0.32693370
vn 0.64288461 -0.71227337 -0.28171974
vn 0.99723144 0.07335387 0.01219289
vn -0.68010440 0.66825050 -0.30149506
vn -0.38996460 -0.37205626 -0.84231927
vn -0.67510984 -0.67322044 0.30166362
vn 0.27078253 -0.73172900 0.62549940
vn -0.41089092 -0.40439420 0.81708873
f 7//7 1//1 2//2
f 8//8 2//2 1//1
f 8//8 1//1 5//5
f 9//9 6//6 1//1
f 9//9 4//4 6//6
f 10//10 5//5 1//1
f 10//10 1//1 6//6
f 12//12 3//3 9//9
f 12//12 7//7 11//11
f 13//13 9//9 1//1
f 13//13 1//1 7//7
f 13//13 12//12 9//9
f 13//13 7//7 12//12
f 14//14 10//10 6//6
f 14//14 6//6 4//4
f 14//14 11//11 10//10
f 14//14 4//4 11//11
f 15//15 9//9 3//3
f 15//15 12//12 11//11
f 15//15 3//3 12//12
f 15//15 11//11 4//4
f 15//15 4//4 9//9
f 16//16 11//11 7//7
f 16//16 5//5 10//10
f 16//16 10//10 11//11
f 17//17 16//16 7//7
f 17//17 7//7 2//2
f 18//18 2//2 8//8
f 18//18 8//8 5//5
f 18//18 5//5 16//16
f 18//18 17//17 2//2
f 18//18 16//16 17//17

