# https://github.com/mikedh/trimesh
v 0.00279060 0.07555211 0.01888880
v 0.00376053 0.06093474 0.01926770
v 0.00382204 0.06114860 -0.01943472
v -0.03300026 0.07350950 -0.01899520
v -0.03434094 0.05893419 0.01926770
v 0.00295921 0.07590815 -0.01809627
v -0.02399029 0.07572395 0.01888880
v -0.03434160 0.05893576 -0.01926927
v 0.00304255 0.07483547 -0.01957878
v -0.03299944 0.07360185 0.01888880
v -0.02620918 0.07566254 -0.01800595
v -0.02185368 0.07584527 -0.01908575
v -0.02624364 0.07565101 0.01795202
v 0.00062553 0.07579260 -0.01903390
vn 0.55804355 0.59668671 0.57667353
vn 0.60826068 -0.53697607 0.58453027
vn 0.60984589 -0.54395549 -0.57636830
vn -0.62456567 0.50937895 -0.59198886
vn -0.59081782 -0.56368289 0.57723124
vn 0.64636295 0.74224347 -0.17688854
vn -0.02996602 0.71793326 0.69546665
vn -0.59307785 -0.56668442 -0.57195055
vn 0.63368135 0.32838104 -0.70043832
vn -0.62036755 0.51480658 0.59170794
vn -0.17876260 0.94982869 -0.25665034
vn -0.03504046 0.72778591 -0.68490864
vn -0.18032281 0.96658599 0.18219551
vn 0.02708023 0.83174385 -0.55449872
f 7//7 5//5 2//2
f 7//7 2//2 1//1
f 7//7 1//1 6//6
f 8//8 3//3 2//2
f 8//8 2//2 5//5
f 9//9 8//8 4//4
f 9//9 3//3 8//8
f 9//9 2//2 3//3
f 9//9 6//6 1//1
f 9//9 1//1 2//2
f 10//10 5//5 7//7
f 10//10 8//8 5//5
f 10//10 4//4 8//8
f 11//11 4//4 10//10
f 12//12 7//7 6//6
f 12//12 9//9 4//4
f 12//12 4//4 11//11
f 13//13 11//11 10//10
f 13//13 10//10 7//7
f 13//13 12//12 11//11
f 13//13 7//7 12//12
f 14//14 12//12 6//6
f 14//14 6//6 9//9
f 14//14 9//9 12//12

