# https://github.com/mikedh/trimesh
v 0.03450579 0.01184015 0.02089410
v 0.03599558 -0.03719091 0.00800811
v 0.03467529 0.01196607 -0.02544385
v 0.00822346 0.01187644 -0.02410358
v 0.00804754 -0.01554227 0.02159094
v 0.03663830 -0.02703738 -0.01967472
v 0.01823480 0.01224054 -0.02458897
v 0.03477042 -0.00988551 0.02119754
v 0.00827603 0.01167742 0.02241113
v 0.03466786 -0.00413115 -0.02461295
v 0.00772129 -0.01920234 -0.01916568
v 0.03676890 -0.01656722 0.01854654
v 0.03088326 0.01206935 0.02127658
v 0.03586359 -0.01682895 -0.02223367
v 0.00794961 -0.01623240 -0.02120730
v 0.00760108 -0.02097899 -0.01094635
v 0.03626129 -0.03074943 -0.01707703
v 0.03446486 0.00820396 0.02115844
v 0.03159308 -0.00423380 -0.02439825
v 0.03559578 -0.03730084 0.00183228
v 0.00797664 -0.02073792 0.01064879
v 0.00814555 -0.01747676 0.01948015
f 7 3 4
f 9 7 4
f 9 5 8
f 10 4 3
f 12 2 6
f 12 8 5
f 12 5 2
f 12 6 3
f 12 3 1
f 13 1 3
f 13 3 7
f 13 7 9
f 14 10 3
f 14 3 6
f 15 11 4
f 15 10 14
f 15 14 6
f 15 6 11
f 16 9 4
f 16 4 11
f 16 5 9
f 17 11 6
f 17 6 2
f 18 12 1
f 18 8 12
f 18 1 13
f 18 13 9
f 18 9 8
f 19 15 4
f 19 4 10
f 19 10 15
f 20 16 11
f 20 17 2
f 20 11 17
f 21 5 16
f 21 20 2
f 21 16 20
f 22 21 2
f 22 2 5
f 22 5 21

