# https://github.com/mikedh/trimesh
v 0.06921275 0.01137274 0.01855300
v 0.08385535 -0.06374248 0.01581796
v 0.07087650 0.01153971 -0.02339214
v 0.03467529 0.01196607 -0.02544385
v 0.04448202 -0.06573036 0.01899317
v 0.07044307 -0.06772126 -0.02089372
v 0.03450579 0.01184015 0.02089410
v 0.07336615 0.00833787 0.01370240
v 0.05710388 -0.05973379 0.02428610
v 0.08358851 -0.06314689 -0.01888589
v 0.07011556 -0.03393971 -0.02420008
v 0.04486664 -0.06860377 -0.01863512
v 0.05289184 -0.07352817 0.00800218
v 0.06931388 0.01158444 -0.02467922
v 0.08336001 -0.05440274 0.01946143
v 0.07175764 0.01120744 0.01657031
v 0.05751699 -0.06957513 0.01926968
v 0.05031586 -0.05952800 0.02405557
v 0.05049613 0.00508609 0.02096185
v 0.07357657 -0.06991024 -0.01413742
v 0.08323940 -0.04824172 -0.01384487
v 0.08117613 -0.06253062 -0.02105269
v 0.04874369 -0.06952389 -0.02086046
v 0.03852373 -0.05022517 0.00206963
v 0.04684958 -0.07306553 -0.00547145
v 0.06480468 -0.03425701 -0.02448214
v 0.07990228 -0.06231009 0.02075519
v 0.08312951 -0.04806904 0.01716233
v 0.08165134 -0.05090421 0.02088078
v 0.08213326 -0.06659751 0.01083800
v 0.04949181 -0.07046827 0.01881534
v 0.04889958 -0.04361665 0.02442713
v 0.03477042 -0.00988551 0.02119754
v 0.08143269 -0.06705176 -0.01884250
v 0.08366299 -0.05823474 -0.01839290
v 0.07378399 0.00459541 -0.01722505
v 0.08077143 -0.05750611 -0.02121451
v 0.05008423 -0.07349501 -0.01877981
v 0.03466786 -0.00413115 -0.02461295
v 0.04191608 -0.06656036 -0.01120981
v 0.07966975 -0.06532782 -0.02092236
v 0.08361932 -0.06144765 0.01853811
v 0.07257930 -0.06616938 0.01938927
v 0.05337584 -0.06219871 0.02451065
v 0.08182922 -0.05953876 0.02087900
v 0.06331705 -0.06928056 0.01694362
v 0.07376431 -0.06993372 -0.00840847
v 0.04949431 -0.07327510 0.00464052
v 0.04713227 -0.06990582 0.01678553
v 0.06660278 -0.02116039 0.02106924
v 0.05653056 -0.04795132 0.02392761
v 0.04691524 -0.06586931 0.02119783
v 0.03856391 -0.04995349 0.01136504
v 0.03446486 0.00820396 0.02115844
v 0.08369880 -0.06557683 -0.01682079
v 0.07343249 0.00776810 -0.00122648
v 0.08008703 -0.03158029 -0.01686916
v 0.04831574 -0.07297159 -0.01930299
v 0.05663741 -0.07286778 -0.01452803
v 0.04669309 -0.06653644 -0.02069519
v 0.04473258 -0.07049817 -0.00183215
v 0.04175436 -0.05981279 -0.01691618
v 0.03840189 -0.04697336 -0.01037405
v 0.08138703 -0.06368384 0.01884960
f 14 7 1
f 14 1 3
f 14 4 7
f 16 8 3
f 16 3 1
f 19 1 7
f 26 14 11
f 26 4 14
f 26 6 23
f 28 16 15
f 28 8 16
f 28 21 8
f 28 15 2
f 28 2 21
f 29 16 1
f 29 15 16
f 31 13 17
f 33 18 32
f 34 22 10
f 35 21 2
f 37 22 11
f 37 11 14
f 37 14 3
f 37 3 35
f 37 35 10
f 37 10 22
f 38 34 20
f 38 6 34
f 39 26 23
f 39 4 26
f 39 24 33
f 41 6 26
f 41 34 6
f 41 22 34
f 41 26 11
f 41 11 22
f 42 2 15
f 44 43 27
f 44 17 43
f 44 31 17
f 44 32 18
f 44 9 32
f 45 15 29
f 45 42 15
f 45 27 42
f 45 29 9
f 45 44 27
f 45 9 44
f 46 17 13
f 46 13 30
f 46 43 17
f 46 30 43
f 47 30 13
f 47 34 30
f 47 20 34
f 48 13 31
f 48 38 13
f 48 25 38
f 49 31 5
f 49 48 31
f 49 25 48
f 50 1 19
f 50 19 32
f 50 29 1
f 51 32 9
f 51 9 29
f 51 50 32
f 51 29 50
f 52 33 5
f 52 18 33
f 52 44 18
f 52 5 31
f 52 31 44
f 53 33 24
f 53 5 33
f 53 40 5
f 53 24 40
f 54 33 32
f 54 39 33
f 54 7 4
f 54 4 39
f 54 32 19
f 54 19 7
f 55 34 10
f 55 2 30
f 55 30 34
f 55 35 2
f 55 10 35
f 56 36 3
f 56 3 8
f 56 8 21
f 56 21 36
f 57 35 3
f 57 3 36
f 57 36 21
f 57 21 35
f 58 23 6
f 58 6 38
f 58 38 25
f 58 40 12
f 58 25 40
f 59 38 20
f 59 13 38
f 59 47 13
f 59 20 47
f 60 39 23
f 60 12 39
f 60 58 12
f 60 23 58
f 61 40 25
f 61 5 40
f 61 49 5
f 61 25 49
f 62 39 12
f 62 12 40
f 63 40 24
f 63 24 39
f 63 62 40
f 63 39 62
f 64 42 27
f 64 2 42
f 64 27 43
f 64 43 30
f 64 30 2

