# https://github.com/mikedh/trimesh
v -0.09981504 -0.00269273 0.02837106
v -0.10109262 -0.01376174 0.03012735
v -0.10030915 -0.01442204 -0.02036643
v -0.12742779 -0.00524769 -0.01768028
v -0.12937180 -0.00031167 0.01935074
v -0.12794868 -0.02810884 -0.01334560
v -0.09963911 0.00483503 -0.01600982
v -0.12085675 0.00047339 0.02678521
v -0.12159101 -0.02861988 -0.01826650
v -0.13006142 0.00020232 -0.01287843
v -0.12751117 -0.01406845 0.02161391
v -0.09981299 0.00276127 -0.01890856
v -0.11310948 -0.00316230 0.02780406
v -0.09968807 0.00871957 0.01710537
v -0.12703928 -0.01419915 -0.01784918
v -0.12970846 -0.01308709 0.01679994
v -0.11420166 -0.01450778 0.02914684
v -0.12913716 -0.00933858 0.02196304
v -0.12323513 -0.00025421 -0.01747125
v -0.12094660 0.00299418 0.02333901
v -0.10600828 0.00807675 0.00846049
v -0.12252573 -0.02716854 -0.01826783
v -0.11973339 -0.02734502 -0.01880296
v -0.12919190 -0.01085938 -0.01585985
v -0.12810585 0.00146371 -0.01275494
v -0.10960505 0.00201385 -0.01786694
v -0.12823868 -0.00022497 -0.01540342
v -0.12745338 0.00154456 0.02035354
v -0.09988496 0.00866992 0.00555365
v -0.11966474 0.00497053 0.01404263
v -0.12970112 -0.00235054 -0.01507822
v -0.12971835 -0.01376605 -0.01377140
v -0.10301494 0.00439775 -0.01577687
v -0.10312488 0.00819874 0.00568284
v -0.10280243 0.00821770 0.01622759
v -0.12010687 0.00494368 0.00260535
v -0.10539294 0.00798938 0.01437769
f 1 2 3
f 7 1 3
f 9 3 2
f 9 2 6
f 12 7 3
f 12 3 4
f 13 8 2
f 13 2 1
f 13 1 8
f 14 8 1
f 14 1 7
f 16 5 10
f 16 6 11
f 17 11 6
f 17 6 2
f 17 2 8
f 18 8 5
f 18 16 11
f 18 5 16
f 18 17 8
f 18 11 17
f 19 12 4
f 20 8 14
f 22 9 6
f 22 6 15
f 23 15 4
f 23 4 3
f 23 22 15
f 23 3 9
f 23 9 22
f 24 4 15
f 24 15 6
f 26 7 12
f 26 12 19
f 27 19 4
f 27 25 19
f 27 10 25
f 28 5 8
f 28 8 20
f 28 25 10
f 28 10 5
f 29 21 14
f 29 14 7
f 29 7 25
f 30 28 20
f 31 4 24
f 31 27 4
f 31 10 27
f 32 16 10
f 32 31 24
f 32 10 31
f 32 24 6
f 32 6 16
f 33 25 7
f 33 7 26
f 33 26 19
f 33 19 25
f 34 29 25
f 34 21 29
f 35 30 20
f 35 20 14
f 36 30 21
f 36 25 28
f 36 28 30
f 36 34 25
f 36 21 34
f 37 35 14
f 37 14 21
f 37 21 30
f 37 30 35

