# https://github.com/mikedh/trimesh
v 0.05631289 0.08656010 0.01495607
v 0.06449993 0.05506162 0.01374967
v 0.05790558 0.08815118 -0.02547878
v 0.03068426 0.07783596 -0.02800223
v 0.02485967 0.05438135 0.01264797
v 0.06216196 0.05487733 -0.02686136
v 0.02819246 0.08977308 0.01113688
v 0.05951456 0.08945055 0.01182225
v 0.04875341 0.05511626 0.01796563
v 0.06335473 0.06732294 -0.01577474
v 0.05423393 0.08404074 -0.02819684
v 0.02845941 0.05526797 -0.02754275
v 0.06573253 0.05495374 0.00502741
v 0.02849798 0.08650733 -0.02460067
v 0.05903473 0.08768632 0.01330406
v 0.05741990 0.09088360 0.01347379
v 0.06218604 0.05508662 0.01540700
v 0.04058156 0.07607903 0.01677033
v 0.06367571 0.05505860 -0.02539485
v 0.05906197 0.08803802 -0.02001578
v 0.05653097 0.07802749 -0.02793717
v 0.04278935 0.05760047 -0.02823695
v 0.06123472 0.08405465 0.00499294
v 0.06098569 0.08388770 0.01036374
v 0.05128654 0.09275078 -0.00128136
v 0.02848323 0.08460950 -0.02612504
v 0.02809528 0.08850624 -0.01768019
v 0.04064863 0.08749759 0.01516322
v 0.05294346 0.05929625 0.01715641
v 0.06246868 0.05705118 0.01503065
v 0.05789369 0.08603673 -0.02595260
v 0.05799754 0.09298688 0.01065988
v 0.03034363 0.06794418 -0.02827292
v 0.05558941 0.07228725 -0.02805955
v 0.06550118 0.05710808 0.00677520
v 0.04139506 0.08470444 -0.02821613
v 0.04714801 0.09259537 0.00295850
v 0.04521781 0.09023656 -0.02149964
v 0.04104820 0.09081269 0.01249407
v 0.05105056 0.08798935 0.01490526
v 0.05275089 0.05518343 0.01737461
v 0.05768773 0.09042693 -0.01560924
v 0.06337693 0.06552611 0.01180256
v 0.06571574 0.05504622 0.00678748
v 0.03738184 0.08294596 -0.02804698
v 0.05462051 0.08902281 -0.02627117
v 0.03446493 0.09038507 -0.00118031
v 0.03892225 0.09047726 -0.01584105
v 0.04722014 0.09262589 0.00479201
v 0.04717022 0.09095390 0.01304663
v 0.04933316 0.09241816 0.01086981
v 0.05729168 0.09277899 0.00134340
v 0.05457444 0.09005359 -0.02333661
v 0.05281028 0.08555066 -0.02784276
v 0.05134032 0.08845653 -0.02657745
v 0.05644813 0.09017421 -0.02126225
v 0.05492080 0.09255681 -0.00168108
v 0.05113530 0.09002159 -0.02333078
v 0.04100141 0.08811256 -0.02469581
vn 0.24925199 0.16755704 0.95383336
vn 0.69642210 -0.57505820 0.42930680
vn 0.66283142 0.51978524 -0.53895994
vn -0.30911828 0.07502255 -0.94805986
vn -0.66749547 -0.57256238 0.47604845
vn 0.35936422 -0.62187530 -0.69579341
vn -0.65097376 0.60201115 0.46240215
vn 0.88441435 0.34376661 0.31565134
vn -0.00216454 -0.62720313 0.77885271
vn 0.98480267 0.14423048 -0.09675363
vn 0.20949080 0.15972562 -0.96467680
vn -0.56733489 -0.58310957 -0.58147602
vn 0.75762641 -0.65250977 -0.01527190
vn -0.66097042 0.61285764 -0.43303998
vn 0.68889007 0.18384610 0.70116409
vn 0.34593959 0.54264035 0.76541966
vn 0.31924885 -0.62239253 0.71463816
vn -0.14583744 0.07715936 0.98629502
vn 0.77202278 -0.53272547 -0.34667623
vn 0.89534793 0.42474450 -0.13395592
vn 0.35811452 0.05879074 -0.93182490
vn 0.01336655 -0.18216846 -0.98317648
vn 0.97138203 0.23749825 -0.00339740
vn 0.96496796 0.18208326 0.18889818
vn -0.02676220 0.99726056 -0.06895773
vn -0.69180113 0.30790358 -0.65315127
vn -0.72434828 0.67550575 -0.13788238
vn -0.12443976 0.36448342 0.92285783
vn 0.16841996 0.05452662 0.98420606
vn 0.54196515 0.10008829 0.83441962
vn 0.61723504 0.15643302 -0.77107043
vn 0.49025194 0.83330647 0.25544737
vn -0.30174016 0.01400546 -0.95328732
vn 0.09364518 -0.01327510 -0.99551713
vn 0.98860508 0.13046867 0.07508609
vn -0.07041387 0.34466715 -0.93608036
vn -0.10808403 0.99370966 -0.02930799
vn -0.08150529 0.95842865 -0.27344360
vn -0.11063447 0.80419605 0.58397665
vn 0.02012519 0.29054614 0.95664932
vn 0.15123282 -0.51502549 0.84372826
vn 0.60777551 0.78724102 -0.10421371
vn 0.97138295 0.14114134 0.19103480
vn 0.84356206 -0.52932229 0.09066960
vn -0.12724615 0.18585131 -0.97430371
vn 0.15983208 0.71621420 -0.67933123
vn -0.16821199 0.98493298 -0.04014660
vn -0.12791106 0.98490106 -0.11665617
vn -0.09627651 0.99513179 0.02106091
vn -0.04964489 0.72751715 0.68429101
vn -0.07172988 0.95206711 0.29736012
vn 0.41448385 0.90741405 -0.06930279
vn 0.11530541 0.96110511 -0.25096140
vn 0.05016864 0.32918439 -0.94293200
vn -0.05945408 0.68309832 -0.72790239
vn 0.34354503 0.92197599 -0.17870950
vn 0.04627845 0.99262000 -0.11208853
vn -0.04807149 0.95583680 -0.28993990
vn -0.11581051 0.88222937 -0.45635432
f 12//12 6//6 5//5
f 13//13 2//2 5//5
f 13//13 5//5 6//6
f 15//15 2//2 8//8
f 16//16 15//15 8//8
f 16//16 1//1 15//15
f 17//17 9//9 5//5
f 17//17 5//5 2//2
f 18//18 7//7 5//5
f 18//18 5//5 9//9
f 18//18 9//9 1//1
f 19//19 13//13 6//6
f 19//19 10//10 13//13
f 20//20 19//19 3//3
f 20//20 10//10 19//19
f 22//22 6//6 12//12
f 23//23 20//20 8//8
f 23//23 10//10 20//20
f 24//24 8//8 2//2
f 24//24 23//23 8//8
f 26//26 12//12 5//5
f 27//27 5//5 7//7
f 27//27 26//26 5//5
f 27//27 14//14 26//26
f 28//28 7//7 18//18
f 29//29 17//17 1//1
f 29//29 1//1 9//9
f 30//30 15//15 1//1
f 30//30 1//1 17//17
f 30//30 17//17 2//2
f 30//30 2//2 15//15
f 31//31 19//19 6//6
f 31//31 3//3 19//19
f 31//31 6//6 21//21
f 31//31 21//21 11//11
f 31//31 11//11 3//3
f 32//32 16//16 8//8
f 32//32 8//8 20//20
f 33//33 22//22 12//12
f 33//33 11//11 22//22
f 33//33 26//26 4//4
f 33//33 12//12 26//26
f 34//34 22//22 11//11
f 34//34 11//11 21//21
f 34//34 21//21 6//6
f 34//34 6//6 22//22
f 35//35 13//13 10//10
f 35//35 10//10 23//23
f 35//35 23//23 24//24
f 36//36 33//33 4//4
f 36//36 11//11 33//33
f 36//36 26//26 14//14
f 38//38 14//14 27//27
f 39//39 7//7 28//28
f 40//40 1//1 16//16
f 40//40 16//16 28//28
f 40//40 28//28 18//18
f 40//40 18//18 1//1
f 41//41 29//29 9//9
f 41//41 9//9 17//17
f 41//41 17//17 29//29
f 42//42 32//32 20//20
f 42//42 20//20 3//3
f 43//43 35//35 24//24
f 43//43 24//24 2//2
f 43//43 2//2 35//35
f 44//44 35//35 2//2
f 44//44 2//2 13//13
f 44//44 13//13 35//35
f 45//45 36//36 4//4
f 45//45 4//4 26//26
f 45//45 26//26 36//36
f 46//46 3//3 11//11
f 47//47 27//27 7//7
f 47//47 7//7 37//37
f 48//48 37//37 25//25
f 48//48 47//47 37//37
f 48//48 27//27 47//47
f 48//48 38//38 27//27
f 48//48 25//25 38//38
f 49//49 32//32 25//25
f 49//49 25//25 37//37
f 49//49 37//37 7//7
f 50//50 39//39 28//28
f 50//50 28//28 16//16
f 50//50 16//16 32//32
f 51//51 7//7 39//39
f 51//51 49//49 7//7
f 51//51 32//32 49//49
f 51//51 50//50 32//32
f 51//51 39//39 50//50
f 52//52 25//25 32//32
f 52//52 32//32 42//42
f 53//53 38//38 25//25
f 54//54 46//46 11//11
f 54//54 11//11 36//36
f 55//55 36//36 14//14
f 55//55 54//54 36//36
f 55//55 46//46 54//54
f 56//56 53//53 52//52
f 56//56 52//52 42//42
f 56//56 42//42 3//3
f 56//56 3//3 46//46
f 56//56 46//46 53//53
f 57//57 53//53 25//25
f 57//57 25//25 52//52
f 57//57 52//52 53//53
f 58//58 53//53 46//46
f 58//58 46//46 38//38
f 58//58 38//38 53//53
f 59//59 55//55 14//14
f 59//59 14//14 38//38
f 59//59 38//38 46//46
f 59//59 46//46 55//55

