# https://github.com/mikedh/trimesh
v -0.08868669 0.00080256 0.02757341
v -0.08849905 0.00378027 0.02567826
v -0.12202348 0.00138514 0.02558046
v -0.12569932 -0.00376063 -0.01807007
v -0.10331042 -0.00318494 -0.02017417
v -0.08829732 0.00941115 -0.00511877
v -0.12207233 -0.00391231 0.02877521
v -0.09867558 0.00901775 0.01650038
v -0.10309910 0.00230078 -0.01891687
v -0.13013993 -0.00319571 0.01543472
v -0.11579862 -0.00391666 0.02800366
v -0.08837051 0.00793787 0.02263776
v -0.12756727 0.00237415 -0.00895776
v -0.09027312 0.00871966 -0.00759990
v -0.10304460 -0.00170468 -0.02004455
v -0.12882776 0.00021977 0.01586783
v -0.13041199 -0.00340432 -0.00170469
v -0.10333139 -0.00317535 -0.00551781
v -0.10513948 -0.00342126 -0.02005405
v -0.12193997 0.00374632 0.02144683
v -0.08843850 0.00927283 0.01899799
v -0.10089833 0.00908482 0.00939091
v -0.12824478 0.00109599 -0.01455336
v -0.09049676 0.00905036 -0.00548908
v -0.12008471 -0.00062279 -0.01786290
v -0.12867337 -0.00359368 -0.01622080
v -0.13030004 0.00102542 -0.00837823
v -0.09824896 0.00698842 0.02176294
v -0.10092756 0.00907285 0.01506339
v -0.10270201 0.00361514 -0.01698985
v -0.12397944 0.00061189 -0.01663407
v -0.12836894 -0.00067129 -0.01570621
v -0.13079584 -0.00320002 -0.01306441
v -0.13009679 0.00111911 -0.01061360
v -0.12551633 0.00323843 0.01527306
v -0.10486361 0.00489376 -0.01327773
v -0.11111673 0.00266174 -0.01665028
v -0.12540841 -0.00187083 -0.01758871
v -0.13032852 -0.00055162 -0.01294460
v -0.12147941 0.00476370 0.01311224
v -0.12106143 0.00491180 0.00482281
vn 0.60354008 -0.33471740 0.72367370
vn 0.69971716 0.37732958 0.60664511
vn -0.43304235 0.61963419 0.65462035
vn -0.26324542 -0.56650066 -0.78088338
vn 0.34656693 -0.59841110 -0.72235415
vn 0.81937791 0.45282315 -0.35152672
vn -0.40102669 -0.42957140 0.80910197
vn -0.09808529 0.96396689 0.24727943
vn 0.17105677 0.53163468 -0.82952043
vn -0.84390852 -0.48386995 0.23170732
vn 0.09745364 -0.87829149 0.46808851
vn 0.62456764 0.62827416 0.46388236
vn -0.30138485 0.94836039 -0.09889257
vn 0.51676672 0.58181943 -0.62804323
vn 0.34288478 0.11302635 -0.93255298
vn -0.81271009 0.51387077 0.27466186
vn -0.52683907 -0.84986004 0.01336087
vn 0.17009002 -0.98538965 0.00875307
vn -0.01069575 -0.67391850 -0.73872827
vn -0.37478728 0.86584990 0.33141884
vn 0.61713441 0.77103081 0.15702426
vn -0.12220763 0.99184697 -0.03612311
vn -0.45231777 0.74598150 -0.48879467
vn -0.14839217 0.97912805 -0.13888130
vn -0.12224916 0.35742253 -0.92590727
vn -0.58003280 -0.57534325 -0.57666462
vn -0.82465777 0.56561177 0.00478402
vn -0.12595237 0.89947956 0.41841668
vn -0.12685509 0.98515454 0.11566464
vn -0.02799180 0.86751906 -0.49661569
vn -0.18687132 0.66579810 -0.72235172
vn -0.58368042 0.36236763 -0.72664082
vn -0.83290631 -0.49804966 -0.24127497
vn -0.73568311 0.66324986 -0.13736805
vn -0.50989614 0.85006341 0.13190194
vn -0.12344552 0.93380265 -0.33581813
vn -0.12861090 0.86804724 -0.47953439
vn -0.26686910 0.35418608 -0.89628852
vn -0.88324407 0.32764658 -0.33545137
vn -0.27417836 0.96066771 0.04408835
vn -0.26131462 0.96465711 -0.03393118
f 1//1 2//2 3//3
f 6//6 2//2 1//1
f 6//6 1//1 5//5
f 7//7 1//1 3//3
f 11//11 1//1 7//7
f 11//11 7//7 4//4
f 12//12 3//3 2//2
f 12//12 2//2 6//6
f 14//14 6//6 5//5
f 15//15 14//14 5//5
f 15//15 9//9 14//14
f 16//16 10//10 7//7
f 16//16 7//7 3//3
f 17//17 7//7 10//10
f 18//18 5//5 1//1
f 18//18 1//1 11//11
f 19//19 11//11 4//4
f 19//19 18//18 11//11
f 19//19 5//5 18//18
f 19//19 15//15 5//5
f 19//19 4//4 15//15
f 20//20 3//3 12//12
f 20//20 16//16 3//3
f 21//21 12//12 6//6
f 21//21 8//8 12//12
f 23//23 13//13 14//14
f 24//24 14//14 13//13
f 24//24 6//6 14//14
f 24//24 22//22 6//6
f 24//24 13//13 22//22
f 25//25 15//15 4//4
f 25//25 9//9 15//15
f 26//26 4//4 7//7
f 26//26 7//7 17//17
f 27//27 10//10 16//16
f 28//28 20//20 12//12
f 28//28 12//12 8//8
f 28//28 8//8 20//20
f 29//29 21//21 6//6
f 29//29 6//6 22//22
f 29//29 8//8 21//21
f 29//29 20//20 8//8
f 30//30 14//14 9//9
f 31//31 9//9 25//25
f 32//32 4//4 26//26
f 32//32 23//23 31//31
f 33//33 17//17 10//10
f 33//33 10//10 27//27
f 33//33 26//26 17//17
f 34//34 27//27 13//13
f 34//34 13//13 23//23
f 35//35 13//13 27//27
f 35//35 27//27 16//16
f 35//35 16//16 20//20
f 36//36 23//23 14//14
f 36//36 14//14 30//30
f 37//37 30//30 9//9
f 37//37 9//9 31//31
f 37//37 31//31 23//23
f 37//37 36//36 30//30
f 37//37 23//23 36//36
f 38//38 31//31 25//25
f 38//38 25//25 4//4
f 38//38 32//32 31//31
f 38//38 4//4 32//32
f 39//39 32//32 26//26
f 39//39 26//26 33//33
f 39//39 23//23 32//32
f 39//39 34//34 23//23
f 39//39 33//33 27//27
f 39//39 27//27 34//34
f 40//40 35//35 20//20
f 40//40 20//20 29//29
f 41//41 40//40 29//29
f 41//41 29//29 22//22
f 41//41 22//22 13//13
f 41//41 13//13 35//35
f 41//41 35//35 40//40

