# https://github.com/mikedh/trimesh
v 0.06722352 0.01099058 0.01913878
v 0.07645259 -0.01867621 0.01820268
v 0.07000812 0.01115229 -0.02442427
v 0.03448981 0.01146292 -0.02541627
v 0.03445059 -0.00680481 0.02181682
v 0.07128329 -0.01786389 -0.02424489
v 0.07223567 0.01151487 0.01626711
v 0.06775105 -0.03033490 0.02122718
v 0.03433562 0.01141641 0.02092064
v 0.07621676 -0.01822001 -0.01952508
v 0.06321828 0.01138875 -0.02622849
v 0.03445424 -0.00710724 -0.02426018
v 0.07072159 0.01104328 0.01769198
v 0.07335372 -0.02995125 0.02017549
v 0.04672000 0.00292281 0.02148769
v 0.07441039 -0.01804514 -0.02271915
v 0.07382799 0.00901247 0.01078774
v 0.05559908 0.01142394 -0.02622523
v 0.03423172 0.00493920 0.02156299
v 0.04880126 -0.01787692 0.02237291
v 0.04902836 -0.01777510 -0.02380583
v 0.07333990 -0.01791161 0.01949649
v 0.07178683 -0.03038132 0.02048986
v 0.07157215 0.00680767 -0.02270471
v 0.07576687 -0.00756818 -0.01554698
v 0.07178306 0.01066544 -0.02110039
v 0.05980984 0.00324897 -0.02622894
v 0.05759770 -0.01778059 -0.02421933
v 0.07565629 -0.00769633 0.01253503
v 0.07372294 0.00899743 0.00507884
v 0.07348667 0.00258792 -0.01933579
v 0.06135784 0.00316555 -0.02618555
v 0.07364761 0.00466567 -0.01731734
v 0.06317687 0.00532040 -0.02608271
vn 0.16436767 0.61657281 0.76994885
vn 0.85994158 -0.02856813 0.50959232
vn 0.47282431 0.64116833 -0.60443391
vn -0.58466569 0.56512361 -0.58206643
vn -0.70796218 -0.34165790 0.61810956
vn 0.18910126 -0.57166325 -0.79839955
vn 0.60838418 0.70750491 0.35959074
vn -0.10786786 -0.76980063 0.62910374
vn -0.56908380 0.60634069 0.55542290
vn 0.84414478 -0.44645476 -0.29681261
vn 0.10366464 0.67839301 -0.72734900
vn -0.71162078 -0.38000110 -0.59092726
vn 0.41449421 0.50062544 0.75997942
vn 0.60566467 -0.62145904 0.49694967
vn 0.05202926 0.08546353 0.99498188
vn 0.56972832 -0.52050370 -0.63599178
vn 0.94372606 0.32595156 0.05600622
vn -0.01595845 0.69759588 -0.71631370
vn -0.69902507 0.04935430 0.71339197
vn -0.37570290 -0.56637201 0.73353260
vn -0.30197569 -0.70823623 -0.63813175
vn 0.30916137 0.06689738 0.94865377
vn 0.20187904 -0.78970499 0.57931932
vn 0.87860263 0.11131510 -0.46439894
vn 0.98830076 0.10990976 -0.10574237
vn 0.76346089 0.61247011 -0.20495815
vn -0.00858152 -0.04932745 -0.99874579
vn -0.02080701 -0.63739513 -0.77025613
vn 0.99395235 0.10165360 0.04153647
vn 0.92709817 0.37405111 -0.02397405
vn 0.95285213 0.13360365 -0.27243877
vn 0.05549673 -0.04495428 -0.99744635
vn 0.97397883 0.18882881 -0.12533522
vn 0.11893168 -0.02751267 -0.99252119
f 9//9 7//7 4//4
f 9//9 1//1 7//7
f 11//11 3//3 6//6
f 11//11 7//7 3//3
f 13//13 7//7 1//1
f 13//13 2//2 7//7
f 14//14 10//10 2//2
f 15//15 1//1 9//9
f 16//16 6//6 3//3
f 16//16 10//10 14//14
f 17//17 7//7 2//2
f 18//18 4//4 7//7
f 18//18 7//7 11//11
f 19//19 9//9 4//4
f 19//19 4//4 12//12
f 19//19 12//12 5//5
f 19//19 15//15 9//9
f 20//20 5//5 12//12
f 20//20 8//8 1//1
f 20//20 1//1 15//15
f 20//20 19//19 5//5
f 20//20 15//15 19//19
f 21//21 20//20 12//12
f 21//21 8//8 20//20
f 22//22 13//13 1//1
f 22//22 2//2 13//13
f 22//22 14//14 2//2
f 22//22 1//1 14//14
f 23//23 16//16 14//14
f 23//23 6//6 16//16
f 23//23 8//8 21//21
f 23//23 14//14 1//1
f 23//23 1//1 8//8
f 24//24 16//16 3//3
f 24//24 10//10 16//16
f 25//25 2//2 10//10
f 26//26 3//3 7//7
f 26//26 24//24 3//3
f 26//26 10//10 24//24
f 27//27 12//12 4//4
f 27//27 4//4 18//18
f 27//27 18//18 11//11
f 28//28 23//23 21//21
f 28//28 6//6 23//23
f 28//28 27//27 6//6
f 28//28 21//21 12//12
f 28//28 12//12 27//27
f 29//29 25//25 17//17
f 29//29 17//17 2//2
f 29//29 2//2 25//25
f 30//30 26//26 7//7
f 30//30 7//7 17//17
f 30//30 17//17 25//25
f 31//31 25//25 10//10
f 31//31 10//10 26//26
f 32//32 27//27 11//11
f 32//32 6//6 27//27
f 33//33 30//30 25//25
f 33//33 26//26 30//30
f 33//33 31//31 26//26
f 33//33 25//25 31//31
f 34//34 32//32 11//11
f 34//34 11//11 6//6
f 34//34 6//6 32//32

