# https://github.com/mikedh/trimesh
v 0.05320914 0.05526644 -0.01386664
v 0.06979972 0.02394392 -0.02009646
v 0.05307991 0.05541189 -0.02735806
v 0.02845941 0.05526797 -0.02754275
v 0.02816265 0.01143510 -0.01386664
v 0.05324363 0.01142992 -0.02599865
v 0.06802986 0.03405971 -0.01981378
v 0.05320914 0.01143510 -0.01386664
v 0.02104238 0.05397490 -0.01477484
v 0.06470262 0.02403673 -0.02605557
v 0.05342382 0.02208546 -0.02640739
v 0.02835520 0.01151871 -0.02485933
v 0.06821873 0.02347738 -0.02307823
v 0.06727794 0.03207099 -0.02297536
v 0.06743955 0.03401388 -0.02146300
v 0.06470450 0.02539396 -0.02593933
v 0.06588623 0.03231178 -0.02413660
vn 0.37620706 0.67782929 0.63167690
vn 0.92294728 -0.25670654 0.28682758
vn 0.37304396 0.68491258 -0.62588574
vn -0.41009118 0.61441050 -0.67403632
vn -0.53037418 -0.61600700 0.58244193
vn 0.24320007 -0.73303035 -0.63523242
vn 0.89634218 0.27887238 0.34467505
vn 0.29507585 -0.69196112 0.65887788
vn -0.75860708 0.50384319 0.41310692
vn 0.40999064 -0.15764296 -0.89836316
vn 0.01734080 -0.03518283 -0.99923044
vn -0.54006627 -0.62451989 -0.56418377
vn 0.76745094 -0.33948385 -0.54384719
vn 0.79808188 0.19207368 -0.57111558
vn 0.85186305 0.33625997 -0.40157014
vn 0.49926179 0.08508410 -0.86226351
vn 0.58683881 0.16868568 -0.79193772
f 1//1 3//3 4//4
f 7//7 1//1 2//2
f 7//7 3//3 1//1
f 8//8 2//2 1//1
f 8//8 1//1 5//5
f 8//8 6//6 2//2
f 8//8 5//5 6//6
f 9//9 5//5 1//1
f 9//9 1//1 4//4
f 11//11 6//6 4//4
f 11//11 4//4 3//3
f 11//11 10//10 6//6
f 11//11 3//3 10//10
f 12//12 6//6 5//5
f 12//12 4//4 6//6
f 12//12 9//9 4//4
f 12//12 5//5 9//9
f 13//13 2//2 6//6
f 13//13 6//6 10//10
f 14//14 7//7 2//2
f 14//14 2//2 13//13
f 15//15 14//14 3//3
f 15//15 3//3 7//7
f 15//15 7//7 14//14
f 16//16 14//14 13//13
f 16//16 13//13 10//10
f 16//16 10//10 3//3
f 17//17 16//16 3//3
f 17//17 3//3 14//14
f 17//17 14//14 16//16

