# https://github.com/mikedh/trimesh
v 0.02819246 0.08977308 0.01113688
v 0.02594704 0.03441133 0.01187248
v 0.02903490 0.03681742 -0.02484924
v 0.02319984 0.08139127 -0.02613673
v 0.01802453 0.07969248 0.00622284
v 0.02858263 0.08370089 -0.02663130
v 0.02029400 0.08421037 0.01074971
v 0.02445603 0.03470504 -0.01901026
v 0.02855864 0.04500196 -0.02673210
v 0.02307287 0.08817163 -0.01535236
v 0.01786499 0.07258016 0.00542828
v 0.02840945 0.03450569 -0.02389827
v 0.02024493 0.07026056 -0.02360087
v 0.02353209 0.08633458 -0.02340548
v 0.02809528 0.08850624 -0.01768019
v 0.02387766 0.08867828 0.01041035
v 0.01989614 0.08464850 -0.02116891
v 0.02511716 0.03356523 0.01071274
v 0.02346041 0.06623755 -0.02596400
v 0.01793717 0.07223331 -0.01167540
v 0.02694379 0.03469958 -0.02305719
v 0.02477409 0.08333962 -0.02591865
v 0.02513431 0.08862497 -0.01749519
v 0.02849798 0.08650733 -0.02460067
v 0.02204469 0.08661616 0.01065777
v 0.01814556 0.08181121 0.00426352
v 0.02140944 0.08643372 -0.01929665
v 0.02131240 0.08368712 -0.02409959
v 0.02036522 0.07465612 0.00961322
v 0.02221503 0.04303308 -0.00520220
v 0.02592640 0.04555873 -0.02441652
v 0.01802925 0.07426551 -0.01546202
v 0.01797175 0.08003927 -0.01379214
v 0.02762490 0.03695186 -0.02407473
v 0.02644839 0.08638367 -0.02436545
v 0.02021149 0.08531700 0.00841016
v 0.02052278 0.08385623 -0.02318628
v 0.02299414 0.08471889 -0.02438750
v 0.02243639 0.04293781 0.00477296
v 0.02455333 0.03440948 0.00796195
v 0.02228904 0.04511149 -0.01367098
v 0.01810552 0.07025450 0.00467674
v 0.02796175 0.04543420 -0.02636960
v 0.02045054 0.06203396 -0.01929708
v 0.01807120 0.07793789 -0.01538227
v 0.01812984 0.08168009 -0.00108930
v 0.02227197 0.04752620 0.00778250
v 0.01811944 0.07023072 -0.00111196
vn 0.48521612 0.65189695 0.58274838
vn 0.28587860 -0.45476634 0.84348148
vn 0.55033698 -0.31371057 -0.77376669
vn -0.42039038 0.12999321 -0.89798313
vn -0.96725755 0.06455496 0.24544958
vn 0.58722073 0.27117308 -0.76265128
vn -0.63987120 0.23039859 0.73313118
vn -0.69914429 -0.68148794 -0.21626710
vn 0.32668452 -0.13687435 -0.93516985
vn -0.49078873 0.86975469 -0.05150916
vn -0.96242493 -0.06218990 0.26433060
vn 0.34312178 -0.73140646 -0.58933185
vn -0.84864239 -0.06290795 -0.52521299
vn -0.35295574 0.78037956 -0.51616856
vn 0.59813614 0.79255000 -0.11873354
vn -0.44023779 0.75416943 0.48725677
vn -0.84512457 0.46256679 -0.26794856
vn -0.30894276 -0.86239372 0.40103795
vn -0.47291503 -0.06720834 -0.87854107
vn -0.99549933 -0.08498694 -0.04193210
vn -0.56494012 -0.64313465 -0.51693374
vn -0.26534847 0.41134206 -0.87200224
vn -0.17125354 0.96986778 -0.17328795
vn 0.59427625 0.65098277 -0.47228930
vn -0.52914290 0.47716400 0.70165684
vn -0.95504326 0.29151178 0.05397453
vn -0.60482412 0.78283804 -0.14612456
vn -0.61424733 0.33450476 -0.71470748
vn -0.82149539 -0.07569165 0.56516909
vn -0.98002577 -0.19863998 -0.00957287
vn -0.71810455 -0.14722465 -0.68018435
vn -0.98768294 -0.04457162 -0.14998591
vn -0.98460953 0.16171763 -0.06626824
vn -0.51552065 -0.21475917 -0.82952815
vn -0.16532180 0.77513690 -0.60977987
vn -0.82099197 0.55610554 0.12930124
vn -0.79252006 0.32984924 -0.51294389
vn -0.37672410 0.51816974 -0.76784053
vn -0.97884521 -0.18238749 0.09271920
vn -0.92559994 -0.37485286 0.05244122
vn -0.98440107 -0.15947539 -0.07431105
vn -0.98763523 -0.13800515 0.07437222
vn -0.63084510 -0.13892884 -0.76336966
vn -0.97102122 -0.14240913 -0.19193080
vn -0.98319321 0.03520368 -0.17914187
vn -0.95880017 0.28402986 -0.00540960
vn -0.96669229 -0.15131034 0.20642481
vn -0.99197398 -0.12637027 -0.00426284
f 1//1 2//2 3//3
f 6//6 1//1 3//3
f 7//7 2//2 1//1
f 9//9 6//6 3//3
f 9//9 4//4 6//6
f 11//11 7//7 5//5
f 12//12 3//3 2//2
f 12//12 9//9 3//3
f 16//16 1//1 10//10
f 18//18 2//2 7//7
f 18//18 12//12 2//2
f 18//18 8//8 12//12
f 19//19 13//13 4//4
f 19//19 4//4 9//9
f 21//21 12//12 8//8
f 21//21 8//8 13//13
f 22//22 6//6 4//4
f 23//23 10//10 1//1
f 23//23 1//1 15//15
f 24//24 15//15 1//1
f 24//24 1//1 6//6
f 24//24 23//23 15//15
f 25//25 7//7 1//1
f 25//25 1//1 16//16
f 26//26 5//5 7//7
f 27//27 14//14 17//17
f 27//27 23//23 14//14
f 27//27 10//10 23//23
f 28//28 4//4 13//13
f 29//29 18//18 7//7
f 29//29 7//7 11//11
f 29//29 11//11 18//18
f 31//31 13//13 19//19
f 31//31 21//21 13//13
f 33//33 20//20 11//11
f 33//33 11//11 5//5
f 33//33 32//32 20//20
f 33//33 5//5 26//26
f 34//34 21//21 9//9
f 34//34 9//9 12//12
f 34//34 12//12 21//21
f 35//35 14//14 23//23
f 35//35 23//23 24//24
f 35//35 24//24 6//6
f 35//35 6//6 22//22
f 36//36 17//17 26//26
f 36//36 27//27 17//17
f 36//36 25//25 16//16
f 36//36 16//16 10//10
f 36//36 10//10 27//27
f 36//36 26//26 7//7
f 36//36 7//7 25//25
f 37//37 17//17 14//14
f 37//37 14//14 28//28
f 37//37 28//28 13//13
f 37//37 13//13 17//17
f 38//38 28//28 14//14
f 38//38 22//22 4//4
f 38//38 4//4 28//28
f 38//38 35//35 22//22
f 38//38 14//14 35//35
f 40//40 30//30 8//8
f 40//40 8//8 18//18
f 40//40 39//39 30//30
f 40//40 18//18 39//39
f 41//41 30//30 20//20
f 41//41 8//8 30//30
f 41//41 32//32 8//8
f 41//41 20//20 32//32
f 42//42 39//39 11//11
f 42//42 30//30 39//39
f 43//43 31//31 19//19
f 43//43 19//19 9//9
f 43//43 9//9 21//21
f 43//43 21//21 31//31
f 44//44 32//32 13//13
f 44//44 13//13 8//8
f 44//44 8//8 32//32
f 45//45 17//17 13//13
f 45//45 13//13 32//32
f 45//45 33//33 17//17
f 45//45 32//32 33//33
f 46//46 33//33 26//26
f 46//46 26//26 17//17
f 46//46 17//17 33//33
f 47//47 39//39 18//18
f 47//47 18//18 11//11
f 47//47 11//11 39//39
f 48//48 20//20 30//30
f 48//48 30//30 42//42
f 48//48 42//42 11//11
f 48//48 11//11 20//20

