# https://github.com/mikedh/trimesh
v 0.00827603 0.01167742 0.02241113
v 0.00814555 -0.01747676 0.01948015
v 0.00827229 -0.00450301 -0.02357766
v -0.09981299 0.00276127 -0.01890856
v -0.10244104 -0.01567274 0.02987308
v -0.04414126 0.01531629 -0.01393125
v -0.01170832 -0.01433518 0.02444408
v -0.10104688 -0.03749397 -0.01342734
v 0.00824595 0.01186253 0.00500202
v -0.04418625 0.01085550 -0.02128981
v -0.09949625 0.00789817 0.01928463
v -0.10423348 -0.03594406 0.02332235
v 0.00804754 -0.01554227 0.02159094
v -0.05138203 -0.00736139 0.02754371
v 0.00784429 -0.02068729 -0.01469872
v -0.10024926 -0.03309115 -0.01770610
v -0.04400406 0.01611355 0.01950835
v -0.04404005 0.01301463 -0.02003812
v -0.07065991 -0.00456570 -0.02121579
v -0.09973824 0.00806009 -0.00089882
v -0.10481811 -0.03317037 0.02594218
v -0.08756753 -0.03215187 0.02419531
v -0.01180606 0.00170602 0.02441464
v -0.06101152 0.00452150 0.02756692
v -0.08840951 -0.03677547 0.01415974
v 0.00772129 -0.01920234 -0.01916568
v -0.08364700 0.00813207 -0.01601817
v -0.06728298 0.00161244 -0.02089212
v -0.07034527 -0.01092783 -0.02106046
v -0.06673839 0.01478903 0.00532421
v -0.10281270 0.00623177 0.02009998
v -0.04179588 -0.02281050 0.02430661
v -0.03559539 -0.02436919 0.02153709
v -0.01839069 0.01091895 0.02420374
v -0.06629869 0.01141127 0.02274730
v -0.05248838 0.00132630 0.02724529
v -0.10114360 -0.03790840 0.01730683
v -0.08770673 -0.03693718 -0.00766519
v 0.00797664 -0.02073792 0.01064879
v -0.03511916 -0.02702871 -0.01588247
v -0.08076669 -0.03170922 -0.01754649
v -0.00533896 -0.01904473 -0.02089519
v 0.00794961 -0.01623240 -0.02120730
v -0.07634246 0.00837000 -0.01814152
v -0.08301114 0.01155086 -0.00063306
v -0.09963911 0.00483503 -0.01600982
v -0.06732732 -0.01428571 -0.02102725
v -0.06357269 0.01473734 0.01705097
v -0.10284329 0.00265116 0.02423934
v -0.01496683 -0.01632172 0.02415072
v -0.04149091 -0.02681002 0.01923540
v -0.00229830 -0.01789928 0.02132344
v -0.10376803 -0.03692650 0.02115304
v -0.04505168 -0.03040039 -0.00459882
v 0.00114745 -0.02047238 -0.01875166
v -0.09422916 -0.03670415 -0.01302033
v -0.04736533 -0.01998703 -0.02064910
v -0.09352477 0.00750524 -0.01035238
v -0.07340736 0.01109061 -0.01097760
v -0.06659178 0.01463236 0.01420883
v -0.09938277 -0.00098884 0.02739733
v -0.08987612 0.00791121 0.02207861
v -0.10249994 0.00550705 0.02169971
v -0.08771010 -0.03351079 0.02235618
f 1 2 3
f 9 1 3
f 13 2 1
f 13 1 7
f 14 5 7
f 16 8 4
f 17 9 6
f 17 1 9
f 18 9 3
f 18 6 9
f 18 3 10
f 18 10 4
f 19 10 3
f 21 7 5
f 21 4 8
f 21 8 12
f 22 21 12
f 23 14 7
f 23 7 1
f 24 5 14
f 27 6 18
f 28 19 4
f 28 4 10
f 28 10 19
f 29 16 4
f 29 4 19
f 29 19 3
f 30 17 6
f 31 11 20
f 31 4 21
f 32 7 21
f 32 22 13
f 32 21 22
f 33 22 12
f 34 24 1
f 34 1 17
f 35 34 17
f 35 24 34
f 36 23 1
f 36 1 24
f 36 24 14
f 36 14 23
f 38 37 8
f 38 25 37
f 39 15 2
f 40 15 38
f 41 8 16
f 42 41 16
f 43 15 26
f 43 3 2
f 43 2 15
f 43 42 3
f 43 26 42
f 44 27 18
f 44 18 4
f 45 30 6
f 45 20 11
f 45 11 30
f 46 31 20
f 46 4 31
f 46 44 4
f 46 27 44
f 47 29 3
f 47 16 29
f 48 35 17
f 48 11 35
f 49 31 21
f 49 21 5
f 50 32 13
f 50 13 7
f 50 7 32
f 51 2 33
f 51 37 25
f 51 39 2
f 51 25 39
f 52 33 2
f 52 2 13
f 52 13 22
f 52 22 33
f 53 12 8
f 53 8 37
f 53 37 51
f 54 38 15
f 54 15 39
f 54 39 25
f 54 25 38
f 55 26 15
f 55 15 40
f 55 40 8
f 55 8 41
f 55 42 26
f 55 41 42
f 56 40 38
f 56 38 8
f 56 8 40
f 57 42 16
f 57 3 42
f 57 47 3
f 57 16 47
f 58 45 27
f 58 20 45
f 58 46 20
f 58 27 46
f 59 45 6
f 59 6 27
f 59 27 45
f 60 30 11
f 60 11 48
f 60 48 17
f 60 17 30
f 61 49 5
f 61 5 24
f 61 24 35
f 61 35 49
f 62 49 35
f 62 35 11
f 63 11 31
f 63 31 49
f 63 62 11
f 63 49 62
f 64 51 33
f 64 33 12
f 64 53 51
f 64 12 53

