# https://github.com/mikedh/trimesh
v 0.05275089 0.05518343 0.01737461
v 0.07223567 0.01151487 0.01626711
v 0.06539757 0.05505854 0.01064016
v 0.05307991 0.05541189 -0.02735806
v 0.02816265 0.01143510 -0.01386664
v 0.07204971 0.01112117 -0.01987681
v 0.06218604 0.05508662 0.01540700
v 0.02932617 0.01172212 0.02146014
v 0.02104238 0.05397490 -0.01477484
v 0.07166114 0.02367976 0.00472225
v 0.06367571 0.05505860 -0.02539485
v 0.05559908 0.01142394 -0.02622523
v 0.06530512 0.01115756 0.01953058
v 0.06449993 0.05506162 0.01374967
v 0.04277128 0.05513593 0.01850348
v 0.07178324 0.02150524 0.01075039
v 0.06556779 0.05267129 -0.01782603
v 0.07000812 0.01115229 -0.02442427
v 0.05352597 0.01781443 -0.02612713
v 0.05691659 0.03402923 0.01913663
v 0.07072159 0.01104328 0.01769198
v 0.02485967 0.05438135 0.01264797
v 0.07173453 0.01540912 -0.01793907
v 0.06541689 0.05497764 -0.00126158
v 0.06321828 0.01138875 -0.02622849
v 0.05882442 0.03005385 0.01910439
v 0.04278706 0.01138424 0.02097746
v 0.06682465 0.03169311 0.01677688
v 0.07166444 0.02343471 0.00310998
v 0.07178000 0.01313857 -0.01969677
v 0.06216196 0.05487733 -0.02686136
v 0.06540091 0.04435198 0.01556885
v 0.06470262 0.02403673 -0.02605557
vn 0.10515884 0.73551162 0.66930133
vn 0.82607941 -0.44539490 0.34527696
vn 0.66687722 0.73876289 0.09748930
vn -0.12296917 0.66115974 -0.74009890
vn -0.63302455 -0.65494490 -0.41270704
vn 0.75916523 -0.62496279 -0.18190566
vn 0.27353934 0.71412654 0.64435978
vn -0.52300533 -0.56752744 0.63590725
vn -0.74196705 0.52565209 -0.41614274
vn 0.99180796 0.12762251 0.00542874
vn 0.63124553 0.68405132 -0.36551727
vn -0.13874927 -0.67388865 -0.72568776
vn 0.15553515 -0.63429340 0.75728509
vn 0.57985799 0.70613213 0.40637682
vn -0.07304124 0.70650603 0.70392770
vn 0.98494239 0.13028486 0.11364125
vn 0.94520025 0.31256870 -0.09432552
vn 0.54051974 -0.59817946 -0.59162466
vn -0.29077056 -0.06588490 -0.95452169
vn 0.14217547 0.08336770 0.98632447
vn 0.43485486 -0.62718039 0.64617801
vn -0.65335101 0.60566103 0.45421049
vn 0.98590498 0.13332774 -0.10106966
vn 0.68823904 0.72539369 -0.01144588
vn 0.08951118 -0.64460001 -0.75926186
vn 0.23478406 0.10269735 0.96660732
vn 0.02163156 -0.68522147 0.72801347
vn 0.41381658 0.12576573 0.90163120
vn 0.99304194 0.11530970 -0.02390357
vn 0.96674041 0.14967970 -0.20738602
vn 0.30298663 0.56567986 -0.76694550
vn 0.58965845 0.15616136 0.79241185
vn 0.24402181 -0.00629394 -0.96974932
f 7//7 4//4 1//1
f 9//9 5//5 8//8
f 11//11 4//4 3//3
f 14//14 2//2 3//3
f 14//14 3//3 4//4
f 14//14 4//4 7//7
f 15//15 1//1 4//4
f 16//16 10//10 3//3
f 16//16 3//3 2//2
f 18//18 6//6 5//5
f 18//18 5//5 12//12
f 18//18 11//11 6//6
f 19//19 9//9 4//4
f 19//19 4//4 12//12
f 19//19 12//12 5//5
f 19//19 5//5 9//9
f 20//20 7//7 1//1
f 20//20 1//1 15//15
f 21//21 6//6 2//2
f 21//21 5//5 6//6
f 22//22 15//15 4//4
f 22//22 4//4 9//9
f 22//22 9//9 8//8
f 22//22 8//8 15//15
f 24//24 17//17 11//11
f 24//24 11//11 3//3
f 24//24 3//3 10//10
f 24//24 10//10 17//17
f 25//25 18//18 12//12
f 25//25 12//12 4//4
f 26//26 20//20 13//13
f 26//26 13//13 7//7
f 26//26 7//7 20//20
f 27//27 20//20 15//15
f 27//27 15//15 8//8
f 27//27 13//13 20//20
f 27//27 21//21 13//13
f 27//27 8//8 5//5
f 27//27 5//5 21//21
f 28//28 7//7 13//13
f 28//28 13//13 21//21
f 29//29 23//23 17//17
f 29//29 17//17 10//10
f 29//29 6//6 23//23
f 29//29 2//2 6//6
f 29//29 16//16 2//2
f 29//29 10//10 16//16
f 30//30 23//23 6//6
f 30//30 6//6 11//11
f 30//30 11//11 17//17
f 30//30 17//17 23//23
f 31//31 25//25 4//4
f 31//31 4//4 11//11
f 31//31 11//11 18//18
f 32//32 14//14 7//7
f 32//32 7//7 28//28
f 32//32 2//2 14//14
f 32//32 28//28 21//21
f 32//32 21//21 2//2
f 33//33 31//31 18//18
f 33//33 18//18 25//25
f 33//33 25//25 31//31

